ISO-10303-21;
HEADER;
/* Generated by software containing ST-Developer
 * from STEP Tools, Inc. (www.steptools.com) 
 */
/* OPTION: using custom schema-name function */

FILE_DESCRIPTION(
/* description */ (''),
/* implementation_level */ '2;1');

FILE_NAME(
/* name */ 'featured_part_08348.stp',
/* time_stamp */ '2026-07-10T20:01:48-04:00',
/* author */ (''),
/* organization */ (''),
/* preprocessor_version */ 'ST-DEVELOPER v20.1',
/* originating_system */ 'SIEMENS PLM Software NX2512.6002',
/* authorisation */ '');

FILE_SCHEMA (('AUTOMOTIVE_DESIGN { 1 0 10303 214 3 1 1 1 }'));
ENDSEC;

DATA;
#10=SHAPE_REPRESENTATION_RELATIONSHIP('None',
'relationship between featured_part_08348-None and featured_part_08348
-None',#22,#11);
#11=ADVANCED_BREP_SHAPE_REPRESENTATION('featured_part_08348-None',(#32),
#811);
#12=SHAPE_DEFINITION_REPRESENTATION(#13,#22);
#13=PRODUCT_DEFINITION_SHAPE('','',#14);
#14=PRODUCT_DEFINITION(' ','',#16,#15);
#15=PRODUCT_DEFINITION_CONTEXT('part definition',#21,'design');
#16=PRODUCT_DEFINITION_FORMATION_WITH_SPECIFIED_SOURCE(' ',' ',#18,
 .NOT_KNOWN.);
#17=PRODUCT_RELATED_PRODUCT_CATEGORY('part','',(#18));
#18=PRODUCT('featured_part_08348','featured_part_08348',' ',(#19));
#19=PRODUCT_CONTEXT(' ',#21,'mechanical');
#20=APPLICATION_PROTOCOL_DEFINITION('international standard',
'automotive_design',2010,#21);
#21=APPLICATION_CONTEXT(
'core data for automotive mechanical design processes');
#22=SHAPE_REPRESENTATION('featured_part_08348-None',(#505),#811);
#23=PRESENTATION_LAYER_ASSIGNMENT('1','Layer 1',(#32));
#24=STYLED_ITEM('',(#25),#32);
#25=PRESENTATION_STYLE_ASSIGNMENT((#26));
#26=SURFACE_STYLE_USAGE(.BOTH.,#27);
#27=SURFACE_SIDE_STYLE('',(#28));
#28=SURFACE_STYLE_FILL_AREA(#29);
#29=FILL_AREA_STYLE('',(#30));
#30=FILL_AREA_STYLE_COLOUR('',#31);
#31=COLOUR_RGB('medium steel',0.611764705882353,0.658823529411765,0.670588235294118);
#32=MANIFOLD_SOLID_BREP('',#33);
#33=CLOSED_SHELL('',(#53,#54,#55,#56,#57,#58,#59,#60,#61,#62,#63,#64,#65,
#66,#67,#68,#69,#70,#71,#72,#73,#74,#75,#76,#77));
#34=CYLINDRICAL_SURFACE('',#533,4.2);
#35=CYLINDRICAL_SURFACE('',#534,4.2);
#36=CYLINDRICAL_SURFACE('',#539,7.55);
#37=CYLINDRICAL_SURFACE('',#542,6.8);
#38=CYLINDRICAL_SURFACE('',#543,7.6);
#39=ELLIPSE('',#523,10.6773123959169,7.55);
#40=FACE_BOUND('',#119,.T.);
#41=FACE_BOUND('',#120,.T.);
#42=FACE_BOUND('',#126,.T.);
#43=FACE_BOUND('',#127,.T.);
#44=FACE_BOUND('',#128,.T.);
#45=FACE_BOUND('',#134,.T.);
#46=FACE_BOUND('',#135,.T.);
#47=FACE_BOUND('',#142,.T.);
#48=FACE_BOUND('',#143,.T.);
#49=FACE_BOUND('',#145,.T.);
#50=FACE_BOUND('',#146,.T.);
#51=FACE_BOUND('',#147,.T.);
#52=FACE_BOUND('',#148,.T.);
#53=ADVANCED_FACE('',(#98),#78,.T.);
#54=ADVANCED_FACE('',(#99),#79,.F.);
#55=ADVANCED_FACE('',(#40,#41),#80,.T.);
#56=ADVANCED_FACE('',(#100),#81,.F.);
#57=ADVANCED_FACE('',(#101),#82,.T.);
#58=ADVANCED_FACE('',(#102),#83,.T.);
#59=ADVANCED_FACE('',(#103),#84,.T.);
#60=ADVANCED_FACE('',(#104),#85,.T.);
#61=ADVANCED_FACE('',(#42,#43,#44),#86,.T.);
#62=ADVANCED_FACE('',(#105),#87,.T.);
#63=ADVANCED_FACE('',(#106),#88,.F.);
#64=ADVANCED_FACE('',(#107),#89,.F.);
#65=ADVANCED_FACE('',(#108),#90,.F.);
#66=ADVANCED_FACE('',(#109),#91,.F.);
#67=ADVANCED_FACE('',(#45,#46),#92,.F.);
#68=ADVANCED_FACE('',(#110),#93,.F.);
#69=ADVANCED_FACE('',(#111),#34,.F.);
#70=ADVANCED_FACE('',(#112),#35,.F.);
#71=ADVANCED_FACE('',(#113),#94,.F.);
#72=ADVANCED_FACE('',(#114),#95,.F.);
#73=ADVANCED_FACE('',(#115),#96,.F.);
#74=ADVANCED_FACE('',(#47,#48),#36,.F.);
#75=ADVANCED_FACE('',(#116),#97,.F.);
#76=ADVANCED_FACE('',(#49,#50),#37,.F.);
#77=ADVANCED_FACE('',(#51,#52),#38,.F.);
#78=PLANE('',#507);
#79=PLANE('',#508);
#80=PLANE('',#512);
#81=PLANE('',#513);
#82=PLANE('',#515);
#83=PLANE('',#516);
#84=PLANE('',#517);
#85=PLANE('',#518);
#86=PLANE('',#521);
#87=PLANE('',#522);
#88=PLANE('',#524);
#89=PLANE('',#525);
#90=PLANE('',#526);
#91=PLANE('',#527);
#92=PLANE('',#531);
#93=PLANE('',#532);
#94=PLANE('',#535);
#95=PLANE('',#536);
#96=PLANE('',#538);
#97=PLANE('',#541);
#98=FACE_OUTER_BOUND('',#117,.T.);
#99=FACE_OUTER_BOUND('',#118,.T.);
#100=FACE_OUTER_BOUND('',#121,.T.);
#101=FACE_OUTER_BOUND('',#122,.T.);
#102=FACE_OUTER_BOUND('',#123,.T.);
#103=FACE_OUTER_BOUND('',#124,.T.);
#104=FACE_OUTER_BOUND('',#125,.T.);
#105=FACE_OUTER_BOUND('',#129,.T.);
#106=FACE_OUTER_BOUND('',#130,.T.);
#107=FACE_OUTER_BOUND('',#131,.T.);
#108=FACE_OUTER_BOUND('',#132,.T.);
#109=FACE_OUTER_BOUND('',#133,.T.);
#110=FACE_OUTER_BOUND('',#136,.T.);
#111=FACE_OUTER_BOUND('',#137,.T.);
#112=FACE_OUTER_BOUND('',#138,.T.);
#113=FACE_OUTER_BOUND('',#139,.T.);
#114=FACE_OUTER_BOUND('',#140,.T.);
#115=FACE_OUTER_BOUND('',#141,.T.);
#116=FACE_OUTER_BOUND('',#144,.T.);
#117=EDGE_LOOP('',(#253,#254,#255,#256));
#118=EDGE_LOOP('',(#257,#258,#259,#260,#261));
#119=EDGE_LOOP('',(#262));
#120=EDGE_LOOP('',(#263,#264,#265,#266,#267,#268,#269,#270,#271,#272));
#121=EDGE_LOOP('',(#273,#274,#275,#276));
#122=EDGE_LOOP('',(#277,#278,#279,#280));
#123=EDGE_LOOP('',(#281,#282,#283,#284,#285,#286,#287,#288,#289));
#124=EDGE_LOOP('',(#290,#291,#292,#293,#294,#295,#296,#297,#298));
#125=EDGE_LOOP('',(#299,#300,#301,#302));
#126=EDGE_LOOP('',(#303));
#127=EDGE_LOOP('',(#304));
#128=EDGE_LOOP('',(#305,#306,#307,#308));
#129=EDGE_LOOP('',(#309,#310,#311,#312,#313,#314,#315,#316,#317));
#130=EDGE_LOOP('',(#318,#319,#320,#321,#322,#323,#324));
#131=EDGE_LOOP('',(#325,#326,#327,#328));
#132=EDGE_LOOP('',(#329,#330,#331,#332));
#133=EDGE_LOOP('',(#333,#334,#335,#336));
#134=EDGE_LOOP('',(#337));
#135=EDGE_LOOP('',(#338,#339,#340,#341,#342,#343));
#136=EDGE_LOOP('',(#344,#345,#346,#347));
#137=EDGE_LOOP('',(#348,#349,#350,#351));
#138=EDGE_LOOP('',(#352,#353,#354,#355));
#139=EDGE_LOOP('',(#356,#357,#358,#359,#360));
#140=EDGE_LOOP('',(#361,#362,#363,#364));
#141=EDGE_LOOP('',(#365,#366,#367,#368,#369,#370));
#142=EDGE_LOOP('',(#371));
#143=EDGE_LOOP('',(#372,#373,#374,#375,#376,#377));
#144=EDGE_LOOP('',(#378));
#145=EDGE_LOOP('',(#379));
#146=EDGE_LOOP('',(#380));
#147=EDGE_LOOP('',(#381));
#148=EDGE_LOOP('',(#382));
#149=LINE('',#678,#201);
#150=LINE('',#680,#202);
#151=LINE('',#682,#203);
#152=LINE('',#684,#204);
#153=LINE('',#686,#205);
#154=LINE('',#688,#206);
#155=LINE('',#690,#207);
#156=LINE('',#694,#208);
#157=LINE('',#697,#209);
#158=LINE('',#699,#210);
#159=LINE('',#701,#211);
#160=LINE('',#705,#212);
#161=LINE('',#709,#213);
#162=LINE('',#711,#214);
#163=LINE('',#713,#215);
#164=LINE('',#715,#216);
#165=LINE('',#717,#217);
#166=LINE('',#719,#218);
#167=LINE('',#724,#219);
#168=LINE('',#726,#220);
#169=LINE('',#728,#221);
#170=LINE('',#730,#222);
#171=LINE('',#732,#223);
#172=LINE('',#734,#224);
#173=LINE('',#736,#225);
#174=LINE('',#737,#226);
#175=LINE('',#739,#227);
#176=LINE('',#741,#228);
#177=LINE('',#743,#229);
#178=LINE('',#745,#230);
#179=LINE('',#746,#231);
#180=LINE('',#748,#232);
#181=LINE('',#750,#233);
#182=LINE('',#752,#234);
#183=LINE('',#754,#235);
#184=LINE('',#756,#236);
#185=LINE('',#762,#237);
#186=LINE('',#764,#238);
#187=LINE('',#766,#239);
#188=LINE('',#768,#240);
#189=LINE('',#769,#241);
#190=LINE('',#772,#242);
#191=LINE('',#775,#243);
#192=LINE('',#777,#244);
#193=LINE('',#779,#245);
#194=LINE('',#781,#246);
#195=LINE('',#783,#247);
#196=LINE('',#788,#248);
#197=LINE('',#792,#249);
#198=LINE('',#796,#250);
#199=LINE('',#798,#251);
#200=LINE('',#800,#252);
#201=VECTOR('',#548,1.);
#202=VECTOR('',#549,1.);
#203=VECTOR('',#550,1.);
#204=VECTOR('',#553,1.);
#205=VECTOR('',#554,1.);
#206=VECTOR('',#555,1.);
#207=VECTOR('',#556,1.);
#208=VECTOR('',#561,1.);
#209=VECTOR('',#562,1.);
#210=VECTOR('',#563,1.);
#211=VECTOR('',#564,1.);
#212=VECTOR('',#567,1.);
#213=VECTOR('',#570,1.);
#214=VECTOR('',#571,1.);
#215=VECTOR('',#572,1.);
#216=VECTOR('',#575,1.);
#217=VECTOR('',#576,1.);
#218=VECTOR('',#577,1.);
#219=VECTOR('',#582,1.);
#220=VECTOR('',#583,1.);
#221=VECTOR('',#584,1.);
#222=VECTOR('',#587,1.);
#223=VECTOR('',#588,1.);
#224=VECTOR('',#589,1.);
#225=VECTOR('',#590,1.);
#226=VECTOR('',#591,1.);
#227=VECTOR('',#592,1.);
#228=VECTOR('',#595,1.);
#229=VECTOR('',#596,1.);
#230=VECTOR('',#597,1.);
#231=VECTOR('',#598,1.);
#232=VECTOR('',#599,1.);
#233=VECTOR('',#600,1.);
#234=VECTOR('',#603,1.);
#235=VECTOR('',#604,1.);
#236=VECTOR('',#605,1.);
#237=VECTOR('',#612,1.);
#238=VECTOR('',#615,1.);
#239=VECTOR('',#616,1.);
#240=VECTOR('',#617,1.);
#241=VECTOR('',#618,1.);
#242=VECTOR('',#623,1.);
#243=VECTOR('',#628,1.);
#244=VECTOR('',#629,1.);
#245=VECTOR('',#632,1.);
#246=VECTOR('',#633,1.);
#247=VECTOR('',#634,1.);
#248=VECTOR('',#641,1.);
#249=VECTOR('',#646,1.);
#250=VECTOR('',#653,1.);
#251=VECTOR('',#656,1.);
#252=VECTOR('',#657,1.);
#253=ORIENTED_EDGE('',*,*,#428,.F.);
#254=ORIENTED_EDGE('',*,*,#429,.F.);
#255=ORIENTED_EDGE('',*,*,#430,.T.);
#256=ORIENTED_EDGE('',*,*,#431,.T.);
#257=ORIENTED_EDGE('',*,*,#429,.T.);
#258=ORIENTED_EDGE('',*,*,#432,.T.);
#259=ORIENTED_EDGE('',*,*,#433,.T.);
#260=ORIENTED_EDGE('',*,*,#434,.T.);
#261=ORIENTED_EDGE('',*,*,#435,.T.);
#262=ORIENTED_EDGE('',*,*,#436,.F.);
#263=ORIENTED_EDGE('',*,*,#437,.F.);
#264=ORIENTED_EDGE('',*,*,#438,.F.);
#265=ORIENTED_EDGE('',*,*,#439,.F.);
#266=ORIENTED_EDGE('',*,*,#440,.F.);
#267=ORIENTED_EDGE('',*,*,#441,.T.);
#268=ORIENTED_EDGE('',*,*,#442,.F.);
#269=ORIENTED_EDGE('',*,*,#443,.T.);
#270=ORIENTED_EDGE('',*,*,#444,.F.);
#271=ORIENTED_EDGE('',*,*,#445,.F.);
#272=ORIENTED_EDGE('',*,*,#446,.T.);
#273=ORIENTED_EDGE('',*,*,#447,.F.);
#274=ORIENTED_EDGE('',*,*,#446,.F.);
#275=ORIENTED_EDGE('',*,*,#448,.F.);
#276=ORIENTED_EDGE('',*,*,#449,.F.);
#277=ORIENTED_EDGE('',*,*,#450,.F.);
#278=ORIENTED_EDGE('',*,*,#451,.T.);
#279=ORIENTED_EDGE('',*,*,#452,.F.);
#280=ORIENTED_EDGE('',*,*,#453,.F.);
#281=ORIENTED_EDGE('',*,*,#454,.T.);
#282=ORIENTED_EDGE('',*,*,#439,.T.);
#283=ORIENTED_EDGE('',*,*,#455,.F.);
#284=ORIENTED_EDGE('',*,*,#456,.T.);
#285=ORIENTED_EDGE('',*,*,#457,.T.);
#286=ORIENTED_EDGE('',*,*,#448,.T.);
#287=ORIENTED_EDGE('',*,*,#445,.T.);
#288=ORIENTED_EDGE('',*,*,#458,.F.);
#289=ORIENTED_EDGE('',*,*,#459,.F.);
#290=ORIENTED_EDGE('',*,*,#460,.F.);
#291=ORIENTED_EDGE('',*,*,#461,.F.);
#292=ORIENTED_EDGE('',*,*,#462,.F.);
#293=ORIENTED_EDGE('',*,*,#452,.T.);
#294=ORIENTED_EDGE('',*,*,#463,.T.);
#295=ORIENTED_EDGE('',*,*,#464,.F.);
#296=ORIENTED_EDGE('',*,*,#465,.T.);
#297=ORIENTED_EDGE('',*,*,#455,.T.);
#298=ORIENTED_EDGE('',*,*,#438,.T.);
#299=ORIENTED_EDGE('',*,*,#464,.T.);
#300=ORIENTED_EDGE('',*,*,#466,.T.);
#301=ORIENTED_EDGE('',*,*,#467,.F.);
#302=ORIENTED_EDGE('',*,*,#468,.T.);
#303=ORIENTED_EDGE('',*,*,#469,.F.);
#304=ORIENTED_EDGE('',*,*,#470,.F.);
#305=ORIENTED_EDGE('',*,*,#471,.F.);
#306=ORIENTED_EDGE('',*,*,#456,.F.);
#307=ORIENTED_EDGE('',*,*,#465,.F.);
#308=ORIENTED_EDGE('',*,*,#468,.F.);
#309=ORIENTED_EDGE('',*,*,#472,.F.);
#310=ORIENTED_EDGE('',*,*,#449,.T.);
#311=ORIENTED_EDGE('',*,*,#457,.F.);
#312=ORIENTED_EDGE('',*,*,#471,.T.);
#313=ORIENTED_EDGE('',*,*,#467,.T.);
#314=ORIENTED_EDGE('',*,*,#473,.T.);
#315=ORIENTED_EDGE('',*,*,#474,.T.);
#316=ORIENTED_EDGE('',*,*,#434,.F.);
#317=ORIENTED_EDGE('',*,*,#475,.F.);
#318=ORIENTED_EDGE('',*,*,#476,.F.);
#319=ORIENTED_EDGE('',*,*,#431,.F.);
#320=ORIENTED_EDGE('',*,*,#477,.T.);
#321=ORIENTED_EDGE('',*,*,#473,.F.);
#322=ORIENTED_EDGE('',*,*,#466,.F.);
#323=ORIENTED_EDGE('',*,*,#463,.F.);
#324=ORIENTED_EDGE('',*,*,#451,.F.);
#325=ORIENTED_EDGE('',*,*,#435,.F.);
#326=ORIENTED_EDGE('',*,*,#474,.F.);
#327=ORIENTED_EDGE('',*,*,#477,.F.);
#328=ORIENTED_EDGE('',*,*,#430,.F.);
#329=ORIENTED_EDGE('',*,*,#478,.T.);
#330=ORIENTED_EDGE('',*,*,#479,.T.);
#331=ORIENTED_EDGE('',*,*,#440,.T.);
#332=ORIENTED_EDGE('',*,*,#454,.F.);
#333=ORIENTED_EDGE('',*,*,#442,.T.);
#334=ORIENTED_EDGE('',*,*,#480,.T.);
#335=ORIENTED_EDGE('',*,*,#481,.T.);
#336=ORIENTED_EDGE('',*,*,#482,.T.);
#337=ORIENTED_EDGE('',*,*,#483,.T.);
#338=ORIENTED_EDGE('',*,*,#481,.F.);
#339=ORIENTED_EDGE('',*,*,#484,.T.);
#340=ORIENTED_EDGE('',*,*,#478,.F.);
#341=ORIENTED_EDGE('',*,*,#459,.T.);
#342=ORIENTED_EDGE('',*,*,#485,.F.);
#343=ORIENTED_EDGE('',*,*,#486,.T.);
#344=ORIENTED_EDGE('',*,*,#444,.T.);
#345=ORIENTED_EDGE('',*,*,#487,.T.);
#346=ORIENTED_EDGE('',*,*,#485,.T.);
#347=ORIENTED_EDGE('',*,*,#458,.T.);
#348=ORIENTED_EDGE('',*,*,#441,.F.);
#349=ORIENTED_EDGE('',*,*,#479,.F.);
#350=ORIENTED_EDGE('',*,*,#484,.F.);
#351=ORIENTED_EDGE('',*,*,#480,.F.);
#352=ORIENTED_EDGE('',*,*,#443,.F.);
#353=ORIENTED_EDGE('',*,*,#482,.F.);
#354=ORIENTED_EDGE('',*,*,#486,.F.);
#355=ORIENTED_EDGE('',*,*,#487,.F.);
#356=ORIENTED_EDGE('',*,*,#460,.T.);
#357=ORIENTED_EDGE('',*,*,#437,.T.);
#358=ORIENTED_EDGE('',*,*,#447,.T.);
#359=ORIENTED_EDGE('',*,*,#472,.T.);
#360=ORIENTED_EDGE('',*,*,#488,.T.);
#361=ORIENTED_EDGE('',*,*,#489,.T.);
#362=ORIENTED_EDGE('',*,*,#490,.T.);
#363=ORIENTED_EDGE('',*,*,#453,.T.);
#364=ORIENTED_EDGE('',*,*,#462,.T.);
#365=ORIENTED_EDGE('',*,*,#433,.F.);
#366=ORIENTED_EDGE('',*,*,#491,.T.);
#367=ORIENTED_EDGE('',*,*,#489,.F.);
#368=ORIENTED_EDGE('',*,*,#461,.T.);
#369=ORIENTED_EDGE('',*,*,#488,.F.);
#370=ORIENTED_EDGE('',*,*,#475,.T.);
#371=ORIENTED_EDGE('',*,*,#470,.T.);
#372=ORIENTED_EDGE('',*,*,#476,.T.);
#373=ORIENTED_EDGE('',*,*,#450,.T.);
#374=ORIENTED_EDGE('',*,*,#490,.F.);
#375=ORIENTED_EDGE('',*,*,#491,.F.);
#376=ORIENTED_EDGE('',*,*,#432,.F.);
#377=ORIENTED_EDGE('',*,*,#428,.T.);
#378=ORIENTED_EDGE('',*,*,#492,.F.);
#379=ORIENTED_EDGE('',*,*,#436,.T.);
#380=ORIENTED_EDGE('',*,*,#492,.T.);
#381=ORIENTED_EDGE('',*,*,#469,.T.);
#382=ORIENTED_EDGE('',*,*,#483,.F.);
#383=VERTEX_POINT('',#676);
#384=VERTEX_POINT('',#677);
#385=VERTEX_POINT('',#679);
#386=VERTEX_POINT('',#681);
#387=VERTEX_POINT('',#685);
#388=VERTEX_POINT('',#687);
#389=VERTEX_POINT('',#689);
#390=VERTEX_POINT('',#693);
#391=VERTEX_POINT('',#695);
#392=VERTEX_POINT('',#696);
#393=VERTEX_POINT('',#698);
#394=VERTEX_POINT('',#700);
#395=VERTEX_POINT('',#702);
#396=VERTEX_POINT('',#704);
#397=VERTEX_POINT('',#706);
#398=VERTEX_POINT('',#708);
#399=VERTEX_POINT('',#710);
#400=VERTEX_POINT('',#712);
#401=VERTEX_POINT('',#716);
#402=VERTEX_POINT('',#718);
#403=VERTEX_POINT('',#722);
#404=VERTEX_POINT('',#723);
#405=VERTEX_POINT('',#725);
#406=VERTEX_POINT('',#727);
#407=VERTEX_POINT('',#731);
#408=VERTEX_POINT('',#733);
#409=VERTEX_POINT('',#735);
#410=VERTEX_POINT('',#738);
#411=VERTEX_POINT('',#742);
#412=VERTEX_POINT('',#744);
#413=VERTEX_POINT('',#747);
#414=VERTEX_POINT('',#749);
#415=VERTEX_POINT('',#753);
#416=VERTEX_POINT('',#755);
#417=VERTEX_POINT('',#759);
#418=VERTEX_POINT('',#761);
#419=VERTEX_POINT('',#765);
#420=VERTEX_POINT('',#767);
#421=VERTEX_POINT('',#776);
#422=VERTEX_POINT('',#780);
#423=VERTEX_POINT('',#782);
#424=VERTEX_POINT('',#786);
#425=VERTEX_POINT('',#789);
#426=VERTEX_POINT('',#799);
#427=VERTEX_POINT('',#806);
#428=EDGE_CURVE('',#383,#384,#493,.T.);
#429=EDGE_CURVE('',#385,#383,#149,.T.);
#430=EDGE_CURVE('',#385,#386,#150,.T.);
#431=EDGE_CURVE('',#386,#384,#151,.T.);
#432=EDGE_CURVE('',#383,#387,#152,.T.);
#433=EDGE_CURVE('',#387,#388,#153,.T.);
#434=EDGE_CURVE('',#388,#389,#154,.T.);
#435=EDGE_CURVE('',#389,#385,#155,.T.);
#436=EDGE_CURVE('',#390,#390,#494,.T.);
#437=EDGE_CURVE('',#391,#392,#156,.T.);
#438=EDGE_CURVE('',#393,#391,#157,.T.);
#439=EDGE_CURVE('',#394,#393,#158,.T.);
#440=EDGE_CURVE('',#395,#394,#159,.T.);
#441=EDGE_CURVE('',#395,#396,#495,.T.);
#442=EDGE_CURVE('',#397,#396,#160,.T.);
#443=EDGE_CURVE('',#397,#398,#496,.T.);
#444=EDGE_CURVE('',#399,#398,#161,.T.);
#445=EDGE_CURVE('',#400,#399,#162,.T.);
#446=EDGE_CURVE('',#400,#392,#163,.T.);
#447=EDGE_CURVE('',#392,#401,#164,.T.);
#448=EDGE_CURVE('',#402,#400,#165,.T.);
#449=EDGE_CURVE('',#401,#402,#166,.T.);
#450=EDGE_CURVE('',#403,#404,#497,.T.);
#451=EDGE_CURVE('',#403,#405,#167,.T.);
#452=EDGE_CURVE('',#406,#405,#168,.T.);
#453=EDGE_CURVE('',#404,#406,#169,.T.);
#454=EDGE_CURVE('',#407,#394,#170,.T.);
#455=EDGE_CURVE('',#408,#393,#171,.T.);
#456=EDGE_CURVE('',#408,#409,#172,.T.);
#457=EDGE_CURVE('',#409,#402,#173,.T.);
#458=EDGE_CURVE('',#410,#399,#174,.T.);
#459=EDGE_CURVE('',#407,#410,#175,.T.);
#460=EDGE_CURVE('',#411,#391,#176,.T.);
#461=EDGE_CURVE('',#412,#411,#177,.T.);
#462=EDGE_CURVE('',#406,#412,#178,.T.);
#463=EDGE_CURVE('',#405,#413,#179,.T.);
#464=EDGE_CURVE('',#414,#413,#180,.T.);
#465=EDGE_CURVE('',#414,#408,#181,.T.);
#466=EDGE_CURVE('',#413,#415,#182,.T.);
#467=EDGE_CURVE('',#416,#415,#183,.T.);
#468=EDGE_CURVE('',#416,#414,#184,.T.);
#469=EDGE_CURVE('',#417,#417,#498,.T.);
#470=EDGE_CURVE('',#418,#418,#499,.T.);
#471=EDGE_CURVE('',#409,#416,#185,.T.);
#472=EDGE_CURVE('',#401,#419,#186,.T.);
#473=EDGE_CURVE('',#415,#420,#187,.T.);
#474=EDGE_CURVE('',#420,#389,#188,.T.);
#475=EDGE_CURVE('',#419,#388,#189,.T.);
#476=EDGE_CURVE('',#384,#403,#39,.T.);
#477=EDGE_CURVE('',#386,#420,#190,.T.);
#478=EDGE_CURVE('',#407,#421,#191,.T.);
#479=EDGE_CURVE('',#421,#395,#192,.T.);
#480=EDGE_CURVE('',#396,#422,#193,.T.);
#481=EDGE_CURVE('',#422,#423,#194,.T.);
#482=EDGE_CURVE('',#423,#397,#195,.T.);
#483=EDGE_CURVE('',#424,#424,#500,.T.);
#484=EDGE_CURVE('',#422,#421,#501,.T.);
#485=EDGE_CURVE('',#425,#410,#196,.T.);
#486=EDGE_CURVE('',#425,#423,#502,.T.);
#487=EDGE_CURVE('',#398,#425,#197,.T.);
#488=EDGE_CURVE('',#419,#411,#198,.T.);
#489=EDGE_CURVE('',#412,#426,#199,.T.);
#490=EDGE_CURVE('',#426,#404,#200,.T.);
#491=EDGE_CURVE('',#387,#426,#503,.T.);
#492=EDGE_CURVE('',#427,#427,#504,.T.);
#493=CIRCLE('',#506,7.55);
#494=CIRCLE('',#509,6.8);
#495=CIRCLE('',#510,4.2);
#496=CIRCLE('',#511,4.2);
#497=CIRCLE('',#514,7.55);
#498=CIRCLE('',#519,7.6);
#499=CIRCLE('',#520,7.55);
#500=CIRCLE('',#528,7.6);
#501=CIRCLE('',#529,4.2);
#502=CIRCLE('',#530,4.2);
#503=CIRCLE('',#537,7.55);
#504=CIRCLE('',#540,6.8);
#505=AXIS2_PLACEMENT_3D('',#674,#544,#545);
#506=AXIS2_PLACEMENT_3D('',#675,#546,#547);
#507=AXIS2_PLACEMENT_3D('',#683,#551,#552);
#508=AXIS2_PLACEMENT_3D('',#691,#557,#558);
#509=AXIS2_PLACEMENT_3D('',#692,#559,#560);
#510=AXIS2_PLACEMENT_3D('',#703,#565,#566);
#511=AXIS2_PLACEMENT_3D('',#707,#568,#569);
#512=AXIS2_PLACEMENT_3D('',#714,#573,#574);
#513=AXIS2_PLACEMENT_3D('',#720,#578,#579);
#514=AXIS2_PLACEMENT_3D('',#721,#580,#581);
#515=AXIS2_PLACEMENT_3D('',#729,#585,#586);
#516=AXIS2_PLACEMENT_3D('',#740,#593,#594);
#517=AXIS2_PLACEMENT_3D('',#751,#601,#602);
#518=AXIS2_PLACEMENT_3D('',#757,#606,#607);
#519=AXIS2_PLACEMENT_3D('',#758,#608,#609);
#520=AXIS2_PLACEMENT_3D('',#760,#610,#611);
#521=AXIS2_PLACEMENT_3D('',#763,#613,#614);
#522=AXIS2_PLACEMENT_3D('',#770,#619,#620);
#523=AXIS2_PLACEMENT_3D('',#771,#621,#622);
#524=AXIS2_PLACEMENT_3D('',#773,#624,#625);
#525=AXIS2_PLACEMENT_3D('',#774,#626,#627);
#526=AXIS2_PLACEMENT_3D('',#778,#630,#631);
#527=AXIS2_PLACEMENT_3D('',#784,#635,#636);
#528=AXIS2_PLACEMENT_3D('',#785,#637,#638);
#529=AXIS2_PLACEMENT_3D('',#787,#639,#640);
#530=AXIS2_PLACEMENT_3D('',#790,#642,#643);
#531=AXIS2_PLACEMENT_3D('',#791,#644,#645);
#532=AXIS2_PLACEMENT_3D('',#793,#647,#648);
#533=AXIS2_PLACEMENT_3D('',#794,#649,#650);
#534=AXIS2_PLACEMENT_3D('',#795,#651,#652);
#535=AXIS2_PLACEMENT_3D('',#797,#654,#655);
#536=AXIS2_PLACEMENT_3D('',#801,#658,#659);
#537=AXIS2_PLACEMENT_3D('',#802,#660,#661);
#538=AXIS2_PLACEMENT_3D('',#803,#662,#663);
#539=AXIS2_PLACEMENT_3D('',#804,#664,#665);
#540=AXIS2_PLACEMENT_3D('',#805,#666,#667);
#541=AXIS2_PLACEMENT_3D('',#807,#668,#669);
#542=AXIS2_PLACEMENT_3D('',#808,#670,#671);
#543=AXIS2_PLACEMENT_3D('',#809,#672,#673);
#544=DIRECTION('',(0.,0.,1.));
#545=DIRECTION('',(1.,0.,0.));
#546=DIRECTION('',(0.,0.,1.));
#547=DIRECTION('',(1.,0.,0.));
#548=DIRECTION('',(-1.,0.,0.));
#549=DIRECTION('',(0.,1.,0.));
#550=DIRECTION('',(-1.,0.,0.));
#551=DIRECTION('',(0.,0.,1.));
#552=DIRECTION('',(1.,0.,0.));
#553=DIRECTION('',(0.,0.,-1.));
#554=DIRECTION('',(1.,0.,0.));
#555=DIRECTION('',(0.,0.,1.));
#556=DIRECTION('',(-0.707106781186552,0.,0.707106781186543));
#557=DIRECTION('',(0.,1.,0.));
#558=DIRECTION('',(0.,0.,1.));
#559=DIRECTION('',(0.,0.,1.));
#560=DIRECTION('',(0.999999999999996,0.,0.));
#561=DIRECTION('',(1.,0.,0.));
#562=DIRECTION('',(0.,1.,0.));
#563=DIRECTION('',(-1.,0.,0.));
#564=DIRECTION('',(0.,-1.,0.));
#565=DIRECTION('',(0.,0.,-1.));
#566=DIRECTION('',(0.999999999999999,0.,0.));
#567=DIRECTION('',(-1.,0.,0.));
#568=DIRECTION('',(0.,0.,-1.));
#569=DIRECTION('',(1.,0.,0.));
#570=DIRECTION('',(0.,1.,0.));
#571=DIRECTION('',(-1.,0.,0.));
#572=DIRECTION('',(0.,1.,0.));
#573=DIRECTION('',(0.,0.,1.));
#574=DIRECTION('',(1.,0.,0.));
#575=DIRECTION('',(0.707106781186552,0.,-0.707106781186543));
#576=DIRECTION('',(-0.707106781186552,0.,0.707106781186543));
#577=DIRECTION('',(0.,-1.,0.));
#578=DIRECTION('',(-0.707106781186543,0.,-0.707106781186552));
#579=DIRECTION('',(0.,-1.,0.));
#580=DIRECTION('',(0.,0.,1.));
#581=DIRECTION('',(1.,0.,0.));
#582=DIRECTION('',(-1.,0.,0.));
#583=DIRECTION('',(0.,1.,0.));
#584=DIRECTION('',(-1.,0.,0.));
#585=DIRECTION('',(0.,0.,1.));
#586=DIRECTION('',(1.,0.,0.));
#587=DIRECTION('',(0.,0.,1.));
#588=DIRECTION('',(0.,0.,1.));
#589=DIRECTION('',(1.,0.,0.));
#590=DIRECTION('',(0.,0.,1.));
#591=DIRECTION('',(0.,0.,1.));
#592=DIRECTION('',(1.,0.,0.));
#593=DIRECTION('',(0.,-1.,0.));
#594=DIRECTION('',(0.,0.,-1.));
#595=DIRECTION('',(0.,0.,1.));
#596=DIRECTION('',(0.,-1.,0.));
#597=DIRECTION('',(0.,0.,-1.));
#598=DIRECTION('',(0.,0.707106781186546,-0.707106781186549));
#599=DIRECTION('',(0.,0.,1.));
#600=DIRECTION('',(0.,-1.,0.));
#601=DIRECTION('',(-1.,0.,0.));
#602=DIRECTION('',(0.,0.,1.));
#603=DIRECTION('',(1.,0.,0.));
#604=DIRECTION('',(0.,0.,1.));
#605=DIRECTION('',(-1.,0.,0.));
#606=DIRECTION('',(0.,1.,0.));
#607=DIRECTION('',(0.,0.,1.));
#608=DIRECTION('',(0.,0.,-1.));
#609=DIRECTION('',(-0.999999999999999,0.,0.));
#610=DIRECTION('',(0.,0.,-1.));
#611=DIRECTION('',(-1.,0.,0.));
#612=DIRECTION('',(0.,1.,0.));
#613=DIRECTION('',(0.,0.,-1.));
#614=DIRECTION('',(-1.,0.,0.));
#615=DIRECTION('',(0.,0.,-1.));
#616=DIRECTION('',(0.,-0.707106781186546,0.707106781186549));
#617=DIRECTION('',(0.,-1.,0.));
#618=DIRECTION('',(0.,1.,0.));
#619=DIRECTION('',(1.,0.,0.));
#620=DIRECTION('',(0.,0.,-1.));
#621=DIRECTION('',(0.,0.707106781186549,0.707106781186546));
#622=DIRECTION('',(0.,0.707106781186546,-0.707106781186549));
#623=DIRECTION('',(0.577350269189631,0.577350269189622,-0.577350269189624));
#624=DIRECTION('',(0.,-0.707106781186549,-0.707106781186546));
#625=DIRECTION('',(1.,0.,0.));
#626=DIRECTION('',(-0.707106781186543,0.,-0.707106781186552));
#627=DIRECTION('',(0.,-1.,0.));
#628=DIRECTION('',(0.,1.,0.));
#629=DIRECTION('',(0.,0.,1.));
#630=DIRECTION('',(-1.,0.,0.));
#631=DIRECTION('',(0.,0.,1.));
#632=DIRECTION('',(0.,0.,-1.));
#633=DIRECTION('',(1.,0.,0.));
#634=DIRECTION('',(0.,0.,1.));
#635=DIRECTION('',(0.,1.,0.));
#636=DIRECTION('',(0.,0.,1.));
#637=DIRECTION('',(0.,0.,-1.));
#638=DIRECTION('',(-0.999999999999999,0.,0.));
#639=DIRECTION('',(0.,0.,1.));
#640=DIRECTION('',(-0.999999999999999,0.,0.));
#641=DIRECTION('',(0.,-1.,0.));
#642=DIRECTION('',(0.,0.,1.));
#643=DIRECTION('',(-1.,0.,0.));
#644=DIRECTION('',(0.,0.,-1.));
#645=DIRECTION('',(-1.,0.,0.));
#646=DIRECTION('',(0.,0.,-1.));
#647=DIRECTION('',(1.,0.,0.));
#648=DIRECTION('',(0.,0.,-1.));
#649=DIRECTION('',(0.,0.,1.));
#650=DIRECTION('',(0.999999999999999,0.,0.));
#651=DIRECTION('',(0.,0.,1.));
#652=DIRECTION('',(1.,0.,0.));
#653=DIRECTION('',(-1.,0.,0.));
#654=DIRECTION('',(0.,-1.,0.));
#655=DIRECTION('',(0.,0.,-1.));
#656=DIRECTION('',(1.,0.,0.));
#657=DIRECTION('',(0.,0.,1.));
#658=DIRECTION('',(0.,1.,0.));
#659=DIRECTION('',(0.,0.,1.));
#660=DIRECTION('',(0.,0.,-1.));
#661=DIRECTION('',(-1.,0.,0.));
#662=DIRECTION('',(0.,0.,-1.));
#663=DIRECTION('',(-1.,0.,0.));
#664=DIRECTION('',(0.,0.,-1.));
#665=DIRECTION('',(1.,0.,0.));
#666=DIRECTION('',(0.,0.,-1.));
#667=DIRECTION('',(0.999999999999996,0.,0.));
#668=DIRECTION('',(0.,0.,-1.));
#669=DIRECTION('',(-1.,0.,0.));
#670=DIRECTION('',(0.,0.,-1.));
#671=DIRECTION('',(0.999999999999996,0.,0.));
#672=DIRECTION('',(0.,0.,-1.));
#673=DIRECTION('',(0.999999999999999,0.,0.));
#674=CARTESIAN_POINT('',(0.,0.,0.));
#675=CARTESIAN_POINT('',(319.9,255.8,52.3));
#676=CARTESIAN_POINT('',(327.426121178934,256.4,52.3));
#677=CARTESIAN_POINT('',(323.180624940465,262.6,52.3));
#678=CARTESIAN_POINT('',(167.7,256.4,52.3));
#679=CARTESIAN_POINT('',(333.1,256.4,52.3));
#680=CARTESIAN_POINT('',(333.1,133.65,52.3));
#681=CARTESIAN_POINT('',(333.1,262.6,52.3));
#682=CARTESIAN_POINT('',(167.7,262.6,52.3));
#683=CARTESIAN_POINT('',(167.7,133.65,52.3));
#684=CARTESIAN_POINT('',(327.426121178934,256.4,52.35));
#685=CARTESIAN_POINT('',(327.426121178934,256.4,27.1));
#686=CARTESIAN_POINT('',(167.7,256.4,27.1));
#687=CARTESIAN_POINT('',(335.4,256.4,27.1));
#688=CARTESIAN_POINT('',(335.4,256.4,0.));
#689=CARTESIAN_POINT('',(335.4,256.4,50.));
#690=CARTESIAN_POINT('',(335.4,256.4,50.));
#691=CARTESIAN_POINT('',(167.7,256.4,27.1));
#692=CARTESIAN_POINT('',(324.6,56.5,52.3));
#693=CARTESIAN_POINT('',(331.4,56.5,52.3));
#694=CARTESIAN_POINT('',(167.7,228.6,52.3));
#695=CARTESIAN_POINT('',(0.,228.6,52.3));
#696=CARTESIAN_POINT('',(333.1,228.6,52.3));
#697=CARTESIAN_POINT('',(0.,133.65,52.3));
#698=CARTESIAN_POINT('',(0.,0.,52.3));
#699=CARTESIAN_POINT('',(167.7,0.,52.3));
#700=CARTESIAN_POINT('',(97.2,0.,52.3));
#701=CARTESIAN_POINT('',(97.2,133.65,52.3));
#702=CARTESIAN_POINT('',(97.2,67.6,52.3));
#703=CARTESIAN_POINT('',(101.4,67.6,52.3));
#704=CARTESIAN_POINT('',(101.4,71.8,52.3));
#705=CARTESIAN_POINT('',(167.7,71.8,52.3));
#706=CARTESIAN_POINT('',(189.3,71.8,52.3));
#707=CARTESIAN_POINT('',(189.3,67.6,52.3));
#708=CARTESIAN_POINT('',(193.5,67.6,52.3));
#709=CARTESIAN_POINT('',(193.5,133.65,52.3));
#710=CARTESIAN_POINT('',(193.5,0.,52.3));
#711=CARTESIAN_POINT('',(167.7,0.,52.3));
#712=CARTESIAN_POINT('',(333.1,0.,52.3));
#713=CARTESIAN_POINT('',(333.1,133.65,52.3));
#714=CARTESIAN_POINT('',(167.7,133.65,52.3));
#715=CARTESIAN_POINT('',(335.4,228.6,50.));
#716=CARTESIAN_POINT('',(335.4,228.6,50.));
#717=CARTESIAN_POINT('',(276.549999999999,0.,108.85));
#718=CARTESIAN_POINT('',(335.4,0.,50.));
#719=CARTESIAN_POINT('',(335.4,133.65,50.));
#720=CARTESIAN_POINT('',(335.4,133.65,50.));
#721=CARTESIAN_POINT('',(319.9,255.8,52.3));
#722=CARTESIAN_POINT('',(316.619375059535,262.6,52.3));
#723=CARTESIAN_POINT('',(312.373878821066,256.4,52.3));
#724=CARTESIAN_POINT('',(167.7,262.6,52.3));
#725=CARTESIAN_POINT('',(0.,262.6,52.3));
#726=CARTESIAN_POINT('',(0.,133.65,52.3));
#727=CARTESIAN_POINT('',(0.,256.4,52.3));
#728=CARTESIAN_POINT('',(167.7,256.4,52.3));
#729=CARTESIAN_POINT('',(167.7,133.65,52.3));
#730=CARTESIAN_POINT('',(97.2,0.,35.9));
#731=CARTESIAN_POINT('',(97.2,0.,35.9));
#732=CARTESIAN_POINT('',(0.,0.,0.));
#733=CARTESIAN_POINT('',(0.,0.,0.));
#734=CARTESIAN_POINT('',(167.7,0.,0.));
#735=CARTESIAN_POINT('',(335.4,0.,0.));
#736=CARTESIAN_POINT('',(335.4,0.,0.));
#737=CARTESIAN_POINT('',(193.5,0.,35.9));
#738=CARTESIAN_POINT('',(193.5,0.,35.9));
#739=CARTESIAN_POINT('',(145.35,0.,35.9));
#740=CARTESIAN_POINT('',(167.7,0.,0.));
#741=CARTESIAN_POINT('',(0.,228.6,0.));
#742=CARTESIAN_POINT('',(0.,228.6,27.1));
#743=CARTESIAN_POINT('',(0.,133.65,27.1));
#744=CARTESIAN_POINT('',(0.,256.4,27.1));
#745=CARTESIAN_POINT('',(0.,256.4,0.));
#746=CARTESIAN_POINT('',(0.,224.275,90.6249999999999));
#747=CARTESIAN_POINT('',(0.,267.3,47.6));
#748=CARTESIAN_POINT('',(0.,267.3,0.));
#749=CARTESIAN_POINT('',(0.,267.3,0.));
#750=CARTESIAN_POINT('',(0.,133.65,0.));
#751=CARTESIAN_POINT('',(0.,133.65,0.));
#752=CARTESIAN_POINT('',(167.7,267.3,47.6));
#753=CARTESIAN_POINT('',(335.4,267.3,47.6));
#754=CARTESIAN_POINT('',(335.4,267.3,0.));
#755=CARTESIAN_POINT('',(335.4,267.3,0.));
#756=CARTESIAN_POINT('',(167.7,267.3,0.));
#757=CARTESIAN_POINT('',(167.7,267.3,0.));
#758=CARTESIAN_POINT('',(144.7,37.6,0.));
#759=CARTESIAN_POINT('',(137.1,37.6,0.));
#760=CARTESIAN_POINT('',(319.9,255.8,0.));
#761=CARTESIAN_POINT('',(312.35,255.8,0.));
#762=CARTESIAN_POINT('',(335.4,133.65,0.));
#763=CARTESIAN_POINT('',(167.7,133.65,0.));
#764=CARTESIAN_POINT('',(335.4,228.6,0.));
#765=CARTESIAN_POINT('',(335.4,228.6,27.1));
#766=CARTESIAN_POINT('',(335.4,224.275,90.6249999999999));
#767=CARTESIAN_POINT('',(335.4,264.9,50.));
#768=CARTESIAN_POINT('',(335.4,133.65,50.));
#769=CARTESIAN_POINT('',(335.4,133.65,27.1));
#770=CARTESIAN_POINT('',(335.4,133.65,0.));
#771=CARTESIAN_POINT('',(319.9,255.8,59.1000000000001));
#772=CARTESIAN_POINT('',(281.099999999999,210.6,104.3));
#773=CARTESIAN_POINT('',(167.7,267.3,47.6));
#774=CARTESIAN_POINT('',(335.4,133.65,50.));
#775=CARTESIAN_POINT('',(97.2,35.9,35.9));
#776=CARTESIAN_POINT('',(97.2,67.6,35.9));
#777=CARTESIAN_POINT('',(97.2,67.6,52.3));
#778=CARTESIAN_POINT('',(97.2,35.9,35.9));
#779=CARTESIAN_POINT('',(101.4,71.8,35.9));
#780=CARTESIAN_POINT('',(101.4,71.8,35.9));
#781=CARTESIAN_POINT('',(145.35,71.8,35.9));
#782=CARTESIAN_POINT('',(189.3,71.8,35.9));
#783=CARTESIAN_POINT('',(189.3,71.8,52.3));
#784=CARTESIAN_POINT('',(145.35,71.8,35.9));
#785=CARTESIAN_POINT('',(144.7,37.6,35.9));
#786=CARTESIAN_POINT('',(137.1,37.6,35.9));
#787=CARTESIAN_POINT('',(101.4,67.6,35.9));
#788=CARTESIAN_POINT('',(193.5,35.9,35.9));
#789=CARTESIAN_POINT('',(193.5,67.6,35.9));
#790=CARTESIAN_POINT('',(189.3,67.6,35.9));
#791=CARTESIAN_POINT('',(145.35,35.9,35.9));
#792=CARTESIAN_POINT('',(193.5,67.6,35.9));
#793=CARTESIAN_POINT('',(193.5,35.9,35.9));
#794=CARTESIAN_POINT('',(101.4,67.6,35.9));
#795=CARTESIAN_POINT('',(189.3,67.6,35.9));
#796=CARTESIAN_POINT('',(167.7,228.6,27.1));
#797=CARTESIAN_POINT('',(167.7,228.6,27.1));
#798=CARTESIAN_POINT('',(167.7,256.4,27.1));
#799=CARTESIAN_POINT('',(312.373878821066,256.4,27.1));
#800=CARTESIAN_POINT('',(312.373878821066,256.4,52.35));
#801=CARTESIAN_POINT('',(167.7,256.4,27.1));
#802=CARTESIAN_POINT('',(319.9,255.8,27.1));
#803=CARTESIAN_POINT('',(167.7,242.5,27.1));
#804=CARTESIAN_POINT('',(319.9,255.8,52.35));
#805=CARTESIAN_POINT('',(324.6,56.5,25.9));
#806=CARTESIAN_POINT('',(331.4,56.5,25.9));
#807=CARTESIAN_POINT('',(324.6,56.5,25.9));
#808=CARTESIAN_POINT('',(324.6,56.5,52.35));
#809=CARTESIAN_POINT('',(144.7,37.6,52.35));
#810=MECHANICAL_DESIGN_GEOMETRIC_PRESENTATION_REPRESENTATION('',(#24),#811);
#811=(
GEOMETRIC_REPRESENTATION_CONTEXT(3)
GLOBAL_UNCERTAINTY_ASSIGNED_CONTEXT((#812))
GLOBAL_UNIT_ASSIGNED_CONTEXT((#818,#814,#813))
REPRESENTATION_CONTEXT('featured_part_08348','TOP_LEVEL_ASSEMBLY_PART')
);
#812=UNCERTAINTY_MEASURE_WITH_UNIT(LENGTH_MEASURE(2.E-5),#818,
'DISTANCE_ACCURACY_VALUE','Maximum Tolerance applied to model');
#813=(
NAMED_UNIT(*)
SI_UNIT($,.STERADIAN.)
SOLID_ANGLE_UNIT()
);
#814=(
CONVERSION_BASED_UNIT('DEGREE',#816)
NAMED_UNIT(#815)
PLANE_ANGLE_UNIT()
);
#815=DIMENSIONAL_EXPONENTS(0.,0.,0.,0.,0.,0.,0.);
#816=PLANE_ANGLE_MEASURE_WITH_UNIT(PLANE_ANGLE_MEASURE(0.0174532925),#817);
#817=(
NAMED_UNIT(*)
PLANE_ANGLE_UNIT()
SI_UNIT($,.RADIAN.)
);
#818=(
LENGTH_UNIT()
NAMED_UNIT(*)
SI_UNIT(.MILLI.,.METRE.)
);
ENDSEC;
END-ISO-10303-21;
