ISO-10303-21;
HEADER;
/* Generated by software containing ST-Developer
 * from STEP Tools, Inc. (www.steptools.com) 
 */
/* OPTION: using custom schema-name function */

FILE_DESCRIPTION(
/* description */ (''),
/* implementation_level */ '2;1');

FILE_NAME(
/* name */ 'featured_part_09453.stp',
/* time_stamp */ '2026-07-11T12:17:51-04:00',
/* author */ (''),
/* organization */ (''),
/* preprocessor_version */ 'ST-DEVELOPER v20.1',
/* originating_system */ 'SIEMENS PLM Software NX2512.6002',
/* authorisation */ '');

FILE_SCHEMA (('AUTOMOTIVE_DESIGN { 1 0 10303 214 3 1 1 1 }'));
ENDSEC;

DATA;
#10=SHAPE_REPRESENTATION_RELATIONSHIP('None',
'relationship between featured_part_09453-None and featured_part_09453
-None',#22,#11);
#11=ADVANCED_BREP_SHAPE_REPRESENTATION('featured_part_09453-None',(#32),
#845);
#12=SHAPE_DEFINITION_REPRESENTATION(#13,#22);
#13=PRODUCT_DEFINITION_SHAPE('','',#14);
#14=PRODUCT_DEFINITION(' ','',#16,#15);
#15=PRODUCT_DEFINITION_CONTEXT('part definition',#21,'design');
#16=PRODUCT_DEFINITION_FORMATION_WITH_SPECIFIED_SOURCE(' ',' ',#18,
 .NOT_KNOWN.);
#17=PRODUCT_RELATED_PRODUCT_CATEGORY('part','',(#18));
#18=PRODUCT('featured_part_09453','featured_part_09453',' ',(#19));
#19=PRODUCT_CONTEXT(' ',#21,'mechanical');
#20=APPLICATION_PROTOCOL_DEFINITION('international standard',
'automotive_design',2010,#21);
#21=APPLICATION_CONTEXT(
'core data for automotive mechanical design processes');
#22=SHAPE_REPRESENTATION('featured_part_09453-None',(#518),#845);
#23=PRESENTATION_LAYER_ASSIGNMENT('1','Layer 1',(#32));
#24=STYLED_ITEM('',(#25),#32);
#25=PRESENTATION_STYLE_ASSIGNMENT((#26));
#26=SURFACE_STYLE_USAGE(.BOTH.,#27);
#27=SURFACE_SIDE_STYLE('',(#28));
#28=SURFACE_STYLE_FILL_AREA(#29);
#29=FILL_AREA_STYLE('',(#30));
#30=FILL_AREA_STYLE_COLOUR('',#31);
#31=COLOUR_RGB('medium steel',0.611764705882353,0.658823529411765,0.670588235294118);
#32=MANIFOLD_SOLID_BREP('',#33);
#33=CLOSED_SHELL('',(#67,#68,#69,#70,#71,#72,#73,#74,#75,#76,#77,#78,#79,
#80,#81,#82,#83,#84,#85,#86,#87,#88,#89,#90,#91,#92,#93));
#34=CYLINDRICAL_SURFACE('',#539,10.7);
#35=CYLINDRICAL_SURFACE('',#540,10.7);
#36=CYLINDRICAL_SURFACE('',#550,8.4);
#37=CYLINDRICAL_SURFACE('',#551,8.4);
#38=CYLINDRICAL_SURFACE('',#552,8.4);
#39=CYLINDRICAL_SURFACE('',#553,8.4);
#40=CYLINDRICAL_SURFACE('',#558,9.);
#41=CYLINDRICAL_SURFACE('',#561,21.);
#42=FACE_OUTER_BOUND('',#225,.T.);
#43=FACE_OUTER_BOUND('',#226,.T.);
#44=FACE_OUTER_BOUND('',#227,.T.);
#45=FACE_OUTER_BOUND('',#228,.T.);
#46=FACE_OUTER_BOUND('',#229,.T.);
#47=FACE_OUTER_BOUND('',#230,.T.);
#48=FACE_OUTER_BOUND('',#231,.T.);
#49=FACE_OUTER_BOUND('',#232,.T.);
#50=FACE_OUTER_BOUND('',#233,.T.);
#51=FACE_OUTER_BOUND('',#234,.T.);
#52=FACE_OUTER_BOUND('',#235,.T.);
#53=FACE_OUTER_BOUND('',#236,.T.);
#54=FACE_OUTER_BOUND('',#237,.T.);
#55=FACE_OUTER_BOUND('',#238,.T.);
#56=FACE_OUTER_BOUND('',#239,.T.);
#57=FACE_OUTER_BOUND('',#240,.T.);
#58=FACE_OUTER_BOUND('',#241,.T.);
#59=FACE_OUTER_BOUND('',#242,.T.);
#60=FACE_OUTER_BOUND('',#243,.T.);
#61=FACE_OUTER_BOUND('',#244,.T.);
#62=FACE_OUTER_BOUND('',#245,.T.);
#63=FACE_OUTER_BOUND('',#246,.T.);
#64=FACE_OUTER_BOUND('',#247,.T.);
#65=FACE_OUTER_BOUND('',#248,.T.);
#66=FACE_OUTER_BOUND('',#249,.T.);
#67=ADVANCED_FACE('',(#217,#218,#219),#94,.T.);
#68=ADVANCED_FACE('',(#42),#95,.T.);
#69=ADVANCED_FACE('',(#43),#96,.T.);
#70=ADVANCED_FACE('',(#44),#97,.T.);
#71=ADVANCED_FACE('',(#45),#98,.T.);
#72=ADVANCED_FACE('',(#46),#99,.T.);
#73=ADVANCED_FACE('',(#47),#100,.F.);
#74=ADVANCED_FACE('',(#48),#101,.F.);
#75=ADVANCED_FACE('',(#49),#102,.F.);
#76=ADVANCED_FACE('',(#50),#103,.F.);
#77=ADVANCED_FACE('',(#51),#34,.F.);
#78=ADVANCED_FACE('',(#52),#35,.F.);
#79=ADVANCED_FACE('',(#53),#104,.F.);
#80=ADVANCED_FACE('',(#54),#105,.F.);
#81=ADVANCED_FACE('',(#55),#106,.F.);
#82=ADVANCED_FACE('',(#56),#107,.F.);
#83=ADVANCED_FACE('',(#57),#108,.F.);
#84=ADVANCED_FACE('',(#58),#36,.F.);
#85=ADVANCED_FACE('',(#59),#37,.F.);
#86=ADVANCED_FACE('',(#60),#38,.F.);
#87=ADVANCED_FACE('',(#61),#39,.F.);
#88=ADVANCED_FACE('',(#62),#109,.F.);
#89=ADVANCED_FACE('',(#63),#110,.F.);
#90=ADVANCED_FACE('',(#64),#111,.F.);
#91=ADVANCED_FACE('',(#65),#40,.F.);
#92=ADVANCED_FACE('',(#66),#112,.F.);
#93=ADVANCED_FACE('',(#220,#221),#41,.F.);
#94=PLANE('',#527);
#95=PLANE('',#528);
#96=PLANE('',#529);
#97=PLANE('',#530);
#98=PLANE('',#531);
#99=PLANE('',#532);
#100=PLANE('',#533);
#101=PLANE('',#534);
#102=PLANE('',#537);
#103=PLANE('',#538);
#104=PLANE('',#541);
#105=PLANE('',#542);
#106=PLANE('',#543);
#107=PLANE('',#548);
#108=PLANE('',#549);
#109=PLANE('',#554);
#110=PLANE('',#555);
#111=PLANE('',#557);
#112=PLANE('',#560);
#113=LINE('',#705,#165);
#114=LINE('',#710,#166);
#115=LINE('',#712,#167);
#116=LINE('',#714,#168);
#117=LINE('',#716,#169);
#118=LINE('',#718,#170);
#119=LINE('',#722,#171);
#120=LINE('',#726,#172);
#121=LINE('',#728,#173);
#122=LINE('',#730,#174);
#123=LINE('',#731,#175);
#124=LINE('',#736,#176);
#125=LINE('',#740,#177);
#126=LINE('',#744,#178);
#127=LINE('',#748,#179);
#128=LINE('',#750,#180);
#129=LINE('',#752,#181);
#130=LINE('',#754,#182);
#131=LINE('',#756,#183);
#132=LINE('',#758,#184);
#133=LINE('',#760,#185);
#134=LINE('',#762,#186);
#135=LINE('',#763,#187);
#136=LINE('',#765,#188);
#137=LINE('',#767,#189);
#138=LINE('',#769,#190);
#139=LINE('',#771,#191);
#140=LINE('',#773,#192);
#141=LINE('',#775,#193);
#142=LINE('',#777,#194);
#143=LINE('',#779,#195);
#144=LINE('',#781,#196);
#145=LINE('',#783,#197);
#146=LINE('',#785,#198);
#147=LINE('',#791,#199);
#148=LINE('',#792,#200);
#149=LINE('',#796,#201);
#150=LINE('',#799,#202);
#151=LINE('',#800,#203);
#152=LINE('',#802,#204);
#153=LINE('',#804,#205);
#154=LINE('',#806,#206);
#155=LINE('',#808,#207);
#156=LINE('',#811,#208);
#157=LINE('',#812,#209);
#158=LINE('',#817,#210);
#159=LINE('',#822,#211);
#160=LINE('',#823,#212);
#161=LINE('',#829,#213);
#162=LINE('',#831,#214);
#163=LINE('',#833,#215);
#164=LINE('',#835,#216);
#165=VECTOR('',#566,1.);
#166=VECTOR('',#569,1.);
#167=VECTOR('',#570,1.);
#168=VECTOR('',#571,1.);
#169=VECTOR('',#572,1.);
#170=VECTOR('',#573,1.);
#171=VECTOR('',#576,1.);
#172=VECTOR('',#579,1.);
#173=VECTOR('',#580,1.);
#174=VECTOR('',#581,1.);
#175=VECTOR('',#582,1.);
#176=VECTOR('',#585,1.);
#177=VECTOR('',#588,1.);
#178=VECTOR('',#591,1.);
#179=VECTOR('',#596,1.);
#180=VECTOR('',#597,1.);
#181=VECTOR('',#598,1.);
#182=VECTOR('',#599,1.);
#183=VECTOR('',#600,1.);
#184=VECTOR('',#603,1.);
#185=VECTOR('',#604,1.);
#186=VECTOR('',#605,1.);
#187=VECTOR('',#606,1.);
#188=VECTOR('',#607,1.);
#189=VECTOR('',#610,1.);
#190=VECTOR('',#611,1.);
#191=VECTOR('',#614,1.);
#192=VECTOR('',#617,1.);
#193=VECTOR('',#618,1.);
#194=VECTOR('',#621,1.);
#195=VECTOR('',#622,1.);
#196=VECTOR('',#625,1.);
#197=VECTOR('',#626,1.);
#198=VECTOR('',#629,1.);
#199=VECTOR('',#636,1.);
#200=VECTOR('',#637,1.);
#201=VECTOR('',#644,1.);
#202=VECTOR('',#645,1.);
#203=VECTOR('',#646,1.);
#204=VECTOR('',#649,1.);
#205=VECTOR('',#650,1.);
#206=VECTOR('',#651,1.);
#207=VECTOR('',#654,1.);
#208=VECTOR('',#655,1.);
#209=VECTOR('',#656,1.);
#210=VECTOR('',#663,1.);
#211=VECTOR('',#670,1.);
#212=VECTOR('',#671,1.);
#213=VECTOR('',#682,1.);
#214=VECTOR('',#683,1.);
#215=VECTOR('',#686,1.);
#216=VECTOR('',#687,1.);
#217=FACE_BOUND('',#222,.T.);
#218=FACE_BOUND('',#223,.T.);
#219=FACE_BOUND('',#224,.T.);
#220=FACE_BOUND('',#250,.T.);
#221=FACE_BOUND('',#251,.T.);
#222=EDGE_LOOP('',(#252));
#223=EDGE_LOOP('',(#253,#254,#255,#256,#257,#258,#259,#260,#261,#262,#263,
#264,#265));
#224=EDGE_LOOP('',(#266,#267,#268,#269,#270,#271,#272,#273));
#225=EDGE_LOOP('',(#274,#275,#276,#277,#278,#279));
#226=EDGE_LOOP('',(#280,#281,#282,#283,#284,#285,#286,#287));
#227=EDGE_LOOP('',(#288,#289,#290,#291));
#228=EDGE_LOOP('',(#292,#293,#294,#295));
#229=EDGE_LOOP('',(#296,#297,#298,#299,#300,#301));
#230=EDGE_LOOP('',(#302,#303,#304,#305));
#231=EDGE_LOOP('',(#306,#307,#308,#309));
#232=EDGE_LOOP('',(#310,#311,#312,#313,#314,#315));
#233=EDGE_LOOP('',(#316,#317,#318,#319));
#234=EDGE_LOOP('',(#320,#321,#322,#323));
#235=EDGE_LOOP('',(#324,#325,#326,#327));
#236=EDGE_LOOP('',(#328,#329,#330,#331));
#237=EDGE_LOOP('',(#332,#333,#334,#335));
#238=EDGE_LOOP('',(#336,#337,#338,#339));
#239=EDGE_LOOP('',(#340,#341,#342,#343,#344,#345,#346,#347));
#240=EDGE_LOOP('',(#348,#349,#350,#351));
#241=EDGE_LOOP('',(#352,#353,#354,#355));
#242=EDGE_LOOP('',(#356,#357,#358,#359));
#243=EDGE_LOOP('',(#360,#361,#362,#363));
#244=EDGE_LOOP('',(#364,#365,#366,#367));
#245=EDGE_LOOP('',(#368,#369,#370,#371));
#246=EDGE_LOOP('',(#372,#373,#374,#375));
#247=EDGE_LOOP('',(#376,#377,#378,#379,#380));
#248=EDGE_LOOP('',(#381,#382,#383,#384));
#249=EDGE_LOOP('',(#385));
#250=EDGE_LOOP('',(#386));
#251=EDGE_LOOP('',(#387));
#252=ORIENTED_EDGE('',*,*,#434,.F.);
#253=ORIENTED_EDGE('',*,*,#435,.F.);
#254=ORIENTED_EDGE('',*,*,#436,.T.);
#255=ORIENTED_EDGE('',*,*,#437,.F.);
#256=ORIENTED_EDGE('',*,*,#438,.F.);
#257=ORIENTED_EDGE('',*,*,#439,.F.);
#258=ORIENTED_EDGE('',*,*,#440,.F.);
#259=ORIENTED_EDGE('',*,*,#441,.F.);
#260=ORIENTED_EDGE('',*,*,#442,.T.);
#261=ORIENTED_EDGE('',*,*,#443,.F.);
#262=ORIENTED_EDGE('',*,*,#444,.T.);
#263=ORIENTED_EDGE('',*,*,#445,.F.);
#264=ORIENTED_EDGE('',*,*,#446,.F.);
#265=ORIENTED_EDGE('',*,*,#447,.F.);
#266=ORIENTED_EDGE('',*,*,#448,.F.);
#267=ORIENTED_EDGE('',*,*,#449,.T.);
#268=ORIENTED_EDGE('',*,*,#450,.F.);
#269=ORIENTED_EDGE('',*,*,#451,.T.);
#270=ORIENTED_EDGE('',*,*,#452,.F.);
#271=ORIENTED_EDGE('',*,*,#453,.T.);
#272=ORIENTED_EDGE('',*,*,#454,.F.);
#273=ORIENTED_EDGE('',*,*,#455,.T.);
#274=ORIENTED_EDGE('',*,*,#456,.T.);
#275=ORIENTED_EDGE('',*,*,#447,.T.);
#276=ORIENTED_EDGE('',*,*,#457,.F.);
#277=ORIENTED_EDGE('',*,*,#458,.T.);
#278=ORIENTED_EDGE('',*,*,#459,.T.);
#279=ORIENTED_EDGE('',*,*,#460,.F.);
#280=ORIENTED_EDGE('',*,*,#461,.F.);
#281=ORIENTED_EDGE('',*,*,#462,.F.);
#282=ORIENTED_EDGE('',*,*,#463,.T.);
#283=ORIENTED_EDGE('',*,*,#440,.T.);
#284=ORIENTED_EDGE('',*,*,#464,.F.);
#285=ORIENTED_EDGE('',*,*,#465,.T.);
#286=ORIENTED_EDGE('',*,*,#457,.T.);
#287=ORIENTED_EDGE('',*,*,#446,.T.);
#288=ORIENTED_EDGE('',*,*,#464,.T.);
#289=ORIENTED_EDGE('',*,*,#439,.T.);
#290=ORIENTED_EDGE('',*,*,#466,.F.);
#291=ORIENTED_EDGE('',*,*,#467,.T.);
#292=ORIENTED_EDGE('',*,*,#468,.F.);
#293=ORIENTED_EDGE('',*,*,#458,.F.);
#294=ORIENTED_EDGE('',*,*,#465,.F.);
#295=ORIENTED_EDGE('',*,*,#467,.F.);
#296=ORIENTED_EDGE('',*,*,#469,.F.);
#297=ORIENTED_EDGE('',*,*,#470,.F.);
#298=ORIENTED_EDGE('',*,*,#459,.F.);
#299=ORIENTED_EDGE('',*,*,#468,.T.);
#300=ORIENTED_EDGE('',*,*,#466,.T.);
#301=ORIENTED_EDGE('',*,*,#438,.T.);
#302=ORIENTED_EDGE('',*,*,#445,.T.);
#303=ORIENTED_EDGE('',*,*,#471,.T.);
#304=ORIENTED_EDGE('',*,*,#472,.T.);
#305=ORIENTED_EDGE('',*,*,#461,.T.);
#306=ORIENTED_EDGE('',*,*,#473,.T.);
#307=ORIENTED_EDGE('',*,*,#474,.T.);
#308=ORIENTED_EDGE('',*,*,#441,.T.);
#309=ORIENTED_EDGE('',*,*,#463,.F.);
#310=ORIENTED_EDGE('',*,*,#475,.F.);
#311=ORIENTED_EDGE('',*,*,#476,.T.);
#312=ORIENTED_EDGE('',*,*,#473,.F.);
#313=ORIENTED_EDGE('',*,*,#462,.T.);
#314=ORIENTED_EDGE('',*,*,#472,.F.);
#315=ORIENTED_EDGE('',*,*,#477,.T.);
#316=ORIENTED_EDGE('',*,*,#443,.T.);
#317=ORIENTED_EDGE('',*,*,#478,.T.);
#318=ORIENTED_EDGE('',*,*,#475,.T.);
#319=ORIENTED_EDGE('',*,*,#479,.T.);
#320=ORIENTED_EDGE('',*,*,#442,.F.);
#321=ORIENTED_EDGE('',*,*,#474,.F.);
#322=ORIENTED_EDGE('',*,*,#476,.F.);
#323=ORIENTED_EDGE('',*,*,#478,.F.);
#324=ORIENTED_EDGE('',*,*,#444,.F.);
#325=ORIENTED_EDGE('',*,*,#479,.F.);
#326=ORIENTED_EDGE('',*,*,#477,.F.);
#327=ORIENTED_EDGE('',*,*,#471,.F.);
#328=ORIENTED_EDGE('',*,*,#480,.T.);
#329=ORIENTED_EDGE('',*,*,#481,.T.);
#330=ORIENTED_EDGE('',*,*,#448,.T.);
#331=ORIENTED_EDGE('',*,*,#482,.T.);
#332=ORIENTED_EDGE('',*,*,#450,.T.);
#333=ORIENTED_EDGE('',*,*,#483,.T.);
#334=ORIENTED_EDGE('',*,*,#484,.T.);
#335=ORIENTED_EDGE('',*,*,#485,.T.);
#336=ORIENTED_EDGE('',*,*,#486,.T.);
#337=ORIENTED_EDGE('',*,*,#487,.T.);
#338=ORIENTED_EDGE('',*,*,#452,.T.);
#339=ORIENTED_EDGE('',*,*,#488,.T.);
#340=ORIENTED_EDGE('',*,*,#484,.F.);
#341=ORIENTED_EDGE('',*,*,#489,.T.);
#342=ORIENTED_EDGE('',*,*,#480,.F.);
#343=ORIENTED_EDGE('',*,*,#490,.T.);
#344=ORIENTED_EDGE('',*,*,#491,.F.);
#345=ORIENTED_EDGE('',*,*,#492,.T.);
#346=ORIENTED_EDGE('',*,*,#486,.F.);
#347=ORIENTED_EDGE('',*,*,#493,.T.);
#348=ORIENTED_EDGE('',*,*,#454,.T.);
#349=ORIENTED_EDGE('',*,*,#494,.T.);
#350=ORIENTED_EDGE('',*,*,#491,.T.);
#351=ORIENTED_EDGE('',*,*,#495,.T.);
#352=ORIENTED_EDGE('',*,*,#449,.F.);
#353=ORIENTED_EDGE('',*,*,#481,.F.);
#354=ORIENTED_EDGE('',*,*,#489,.F.);
#355=ORIENTED_EDGE('',*,*,#483,.F.);
#356=ORIENTED_EDGE('',*,*,#453,.F.);
#357=ORIENTED_EDGE('',*,*,#487,.F.);
#358=ORIENTED_EDGE('',*,*,#492,.F.);
#359=ORIENTED_EDGE('',*,*,#494,.F.);
#360=ORIENTED_EDGE('',*,*,#451,.F.);
#361=ORIENTED_EDGE('',*,*,#485,.F.);
#362=ORIENTED_EDGE('',*,*,#493,.F.);
#363=ORIENTED_EDGE('',*,*,#488,.F.);
#364=ORIENTED_EDGE('',*,*,#455,.F.);
#365=ORIENTED_EDGE('',*,*,#495,.F.);
#366=ORIENTED_EDGE('',*,*,#490,.F.);
#367=ORIENTED_EDGE('',*,*,#482,.F.);
#368=ORIENTED_EDGE('',*,*,#496,.T.);
#369=ORIENTED_EDGE('',*,*,#497,.T.);
#370=ORIENTED_EDGE('',*,*,#435,.T.);
#371=ORIENTED_EDGE('',*,*,#456,.F.);
#372=ORIENTED_EDGE('',*,*,#437,.T.);
#373=ORIENTED_EDGE('',*,*,#498,.T.);
#374=ORIENTED_EDGE('',*,*,#499,.T.);
#375=ORIENTED_EDGE('',*,*,#469,.T.);
#376=ORIENTED_EDGE('',*,*,#499,.F.);
#377=ORIENTED_EDGE('',*,*,#500,.T.);
#378=ORIENTED_EDGE('',*,*,#496,.F.);
#379=ORIENTED_EDGE('',*,*,#460,.T.);
#380=ORIENTED_EDGE('',*,*,#470,.T.);
#381=ORIENTED_EDGE('',*,*,#436,.F.);
#382=ORIENTED_EDGE('',*,*,#497,.F.);
#383=ORIENTED_EDGE('',*,*,#500,.F.);
#384=ORIENTED_EDGE('',*,*,#498,.F.);
#385=ORIENTED_EDGE('',*,*,#501,.F.);
#386=ORIENTED_EDGE('',*,*,#434,.T.);
#387=ORIENTED_EDGE('',*,*,#501,.T.);
#388=VERTEX_POINT('',#704);
#389=VERTEX_POINT('',#706);
#390=VERTEX_POINT('',#707);
#391=VERTEX_POINT('',#709);
#392=VERTEX_POINT('',#711);
#393=VERTEX_POINT('',#713);
#394=VERTEX_POINT('',#715);
#395=VERTEX_POINT('',#717);
#396=VERTEX_POINT('',#719);
#397=VERTEX_POINT('',#721);
#398=VERTEX_POINT('',#723);
#399=VERTEX_POINT('',#725);
#400=VERTEX_POINT('',#727);
#401=VERTEX_POINT('',#729);
#402=VERTEX_POINT('',#732);
#403=VERTEX_POINT('',#733);
#404=VERTEX_POINT('',#735);
#405=VERTEX_POINT('',#737);
#406=VERTEX_POINT('',#739);
#407=VERTEX_POINT('',#741);
#408=VERTEX_POINT('',#743);
#409=VERTEX_POINT('',#745);
#410=VERTEX_POINT('',#749);
#411=VERTEX_POINT('',#751);
#412=VERTEX_POINT('',#753);
#413=VERTEX_POINT('',#755);
#414=VERTEX_POINT('',#759);
#415=VERTEX_POINT('',#761);
#416=VERTEX_POINT('',#764);
#417=VERTEX_POINT('',#768);
#418=VERTEX_POINT('',#774);
#419=VERTEX_POINT('',#778);
#420=VERTEX_POINT('',#782);
#421=VERTEX_POINT('',#786);
#422=VERTEX_POINT('',#787);
#423=VERTEX_POINT('',#797);
#424=VERTEX_POINT('',#798);
#425=VERTEX_POINT('',#803);
#426=VERTEX_POINT('',#805);
#427=VERTEX_POINT('',#809);
#428=VERTEX_POINT('',#810);
#429=VERTEX_POINT('',#816);
#430=VERTEX_POINT('',#818);
#431=VERTEX_POINT('',#830);
#432=VERTEX_POINT('',#834);
#433=VERTEX_POINT('',#841);
#434=EDGE_CURVE('',#388,#388,#502,.T.);
#435=EDGE_CURVE('',#389,#390,#113,.T.);
#436=EDGE_CURVE('',#389,#391,#503,.T.);
#437=EDGE_CURVE('',#392,#391,#114,.T.);
#438=EDGE_CURVE('',#393,#392,#115,.T.);
#439=EDGE_CURVE('',#394,#393,#116,.T.);
#440=EDGE_CURVE('',#395,#394,#117,.T.);
#441=EDGE_CURVE('',#396,#395,#118,.T.);
#442=EDGE_CURVE('',#396,#397,#504,.T.);
#443=EDGE_CURVE('',#398,#397,#119,.T.);
#444=EDGE_CURVE('',#398,#399,#505,.T.);
#445=EDGE_CURVE('',#400,#399,#120,.T.);
#446=EDGE_CURVE('',#401,#400,#121,.T.);
#447=EDGE_CURVE('',#390,#401,#122,.T.);
#448=EDGE_CURVE('',#402,#403,#123,.T.);
#449=EDGE_CURVE('',#402,#404,#506,.T.);
#450=EDGE_CURVE('',#405,#404,#124,.T.);
#451=EDGE_CURVE('',#405,#406,#507,.T.);
#452=EDGE_CURVE('',#407,#406,#125,.T.);
#453=EDGE_CURVE('',#407,#408,#508,.T.);
#454=EDGE_CURVE('',#409,#408,#126,.T.);
#455=EDGE_CURVE('',#409,#403,#509,.T.);
#456=EDGE_CURVE('',#410,#390,#127,.T.);
#457=EDGE_CURVE('',#411,#401,#128,.T.);
#458=EDGE_CURVE('',#411,#412,#129,.T.);
#459=EDGE_CURVE('',#412,#413,#130,.T.);
#460=EDGE_CURVE('',#410,#413,#131,.T.);
#461=EDGE_CURVE('',#414,#400,#132,.T.);
#462=EDGE_CURVE('',#415,#414,#133,.T.);
#463=EDGE_CURVE('',#415,#395,#134,.T.);
#464=EDGE_CURVE('',#416,#394,#135,.T.);
#465=EDGE_CURVE('',#416,#411,#136,.T.);
#466=EDGE_CURVE('',#417,#393,#137,.T.);
#467=EDGE_CURVE('',#417,#416,#138,.T.);
#468=EDGE_CURVE('',#412,#417,#139,.T.);
#469=EDGE_CURVE('',#418,#392,#140,.T.);
#470=EDGE_CURVE('',#413,#418,#141,.T.);
#471=EDGE_CURVE('',#399,#419,#142,.T.);
#472=EDGE_CURVE('',#419,#414,#143,.T.);
#473=EDGE_CURVE('',#415,#420,#144,.T.);
#474=EDGE_CURVE('',#420,#396,#145,.T.);
#475=EDGE_CURVE('',#421,#422,#146,.T.);
#476=EDGE_CURVE('',#421,#420,#510,.T.);
#477=EDGE_CURVE('',#419,#422,#511,.T.);
#478=EDGE_CURVE('',#397,#421,#147,.T.);
#479=EDGE_CURVE('',#422,#398,#148,.T.);
#480=EDGE_CURVE('',#423,#424,#149,.T.);
#481=EDGE_CURVE('',#424,#402,#150,.T.);
#482=EDGE_CURVE('',#403,#423,#151,.T.);
#483=EDGE_CURVE('',#404,#425,#152,.T.);
#484=EDGE_CURVE('',#425,#426,#153,.T.);
#485=EDGE_CURVE('',#426,#405,#154,.T.);
#486=EDGE_CURVE('',#427,#428,#155,.T.);
#487=EDGE_CURVE('',#428,#407,#156,.T.);
#488=EDGE_CURVE('',#406,#427,#157,.T.);
#489=EDGE_CURVE('',#425,#424,#512,.T.);
#490=EDGE_CURVE('',#423,#429,#513,.T.);
#491=EDGE_CURVE('',#430,#429,#158,.T.);
#492=EDGE_CURVE('',#430,#428,#514,.T.);
#493=EDGE_CURVE('',#427,#426,#515,.T.);
#494=EDGE_CURVE('',#408,#430,#159,.T.);
#495=EDGE_CURVE('',#429,#409,#160,.T.);
#496=EDGE_CURVE('',#410,#431,#161,.T.);
#497=EDGE_CURVE('',#431,#389,#162,.T.);
#498=EDGE_CURVE('',#391,#432,#163,.T.);
#499=EDGE_CURVE('',#432,#418,#164,.T.);
#500=EDGE_CURVE('',#432,#431,#516,.T.);
#501=EDGE_CURVE('',#433,#433,#517,.T.);
#502=CIRCLE('',#519,21.);
#503=CIRCLE('',#520,9.);
#504=CIRCLE('',#521,10.7);
#505=CIRCLE('',#522,10.7);
#506=CIRCLE('',#523,8.4);
#507=CIRCLE('',#524,8.4);
#508=CIRCLE('',#525,8.4);
#509=CIRCLE('',#526,8.4);
#510=CIRCLE('',#535,10.7);
#511=CIRCLE('',#536,10.7);
#512=CIRCLE('',#544,8.4);
#513=CIRCLE('',#545,8.4);
#514=CIRCLE('',#546,8.4);
#515=CIRCLE('',#547,8.4);
#516=CIRCLE('',#556,9.);
#517=CIRCLE('',#559,21.);
#518=AXIS2_PLACEMENT_3D('',#702,#562,#563);
#519=AXIS2_PLACEMENT_3D('',#703,#564,#565);
#520=AXIS2_PLACEMENT_3D('',#708,#567,#568);
#521=AXIS2_PLACEMENT_3D('',#720,#574,#575);
#522=AXIS2_PLACEMENT_3D('',#724,#577,#578);
#523=AXIS2_PLACEMENT_3D('',#734,#583,#584);
#524=AXIS2_PLACEMENT_3D('',#738,#586,#587);
#525=AXIS2_PLACEMENT_3D('',#742,#589,#590);
#526=AXIS2_PLACEMENT_3D('',#746,#592,#593);
#527=AXIS2_PLACEMENT_3D('',#747,#594,#595);
#528=AXIS2_PLACEMENT_3D('',#757,#601,#602);
#529=AXIS2_PLACEMENT_3D('',#766,#608,#609);
#530=AXIS2_PLACEMENT_3D('',#770,#612,#613);
#531=AXIS2_PLACEMENT_3D('',#772,#615,#616);
#532=AXIS2_PLACEMENT_3D('',#776,#619,#620);
#533=AXIS2_PLACEMENT_3D('',#780,#623,#624);
#534=AXIS2_PLACEMENT_3D('',#784,#627,#628);
#535=AXIS2_PLACEMENT_3D('',#788,#630,#631);
#536=AXIS2_PLACEMENT_3D('',#789,#632,#633);
#537=AXIS2_PLACEMENT_3D('',#790,#634,#635);
#538=AXIS2_PLACEMENT_3D('',#793,#638,#639);
#539=AXIS2_PLACEMENT_3D('',#794,#640,#641);
#540=AXIS2_PLACEMENT_3D('',#795,#642,#643);
#541=AXIS2_PLACEMENT_3D('',#801,#647,#648);
#542=AXIS2_PLACEMENT_3D('',#807,#652,#653);
#543=AXIS2_PLACEMENT_3D('',#813,#657,#658);
#544=AXIS2_PLACEMENT_3D('',#814,#659,#660);
#545=AXIS2_PLACEMENT_3D('',#815,#661,#662);
#546=AXIS2_PLACEMENT_3D('',#819,#664,#665);
#547=AXIS2_PLACEMENT_3D('',#820,#666,#667);
#548=AXIS2_PLACEMENT_3D('',#821,#668,#669);
#549=AXIS2_PLACEMENT_3D('',#824,#672,#673);
#550=AXIS2_PLACEMENT_3D('',#825,#674,#675);
#551=AXIS2_PLACEMENT_3D('',#826,#676,#677);
#552=AXIS2_PLACEMENT_3D('',#827,#678,#679);
#553=AXIS2_PLACEMENT_3D('',#828,#680,#681);
#554=AXIS2_PLACEMENT_3D('',#832,#684,#685);
#555=AXIS2_PLACEMENT_3D('',#836,#688,#689);
#556=AXIS2_PLACEMENT_3D('',#837,#690,#691);
#557=AXIS2_PLACEMENT_3D('',#838,#692,#693);
#558=AXIS2_PLACEMENT_3D('',#839,#694,#695);
#559=AXIS2_PLACEMENT_3D('',#840,#696,#697);
#560=AXIS2_PLACEMENT_3D('',#842,#698,#699);
#561=AXIS2_PLACEMENT_3D('',#843,#700,#701);
#562=DIRECTION('',(0.,0.,1.));
#563=DIRECTION('',(1.,0.,0.));
#564=DIRECTION('',(0.,0.,1.));
#565=DIRECTION('',(1.,0.,0.));
#566=DIRECTION('',(0.,-1.,0.));
#567=DIRECTION('',(0.,0.,-1.));
#568=DIRECTION('',(1.,0.,0.));
#569=DIRECTION('',(-1.,0.,0.));
#570=DIRECTION('',(0.,-1.,0.));
#571=DIRECTION('',(1.,0.,0.));
#572=DIRECTION('',(0.,1.,0.));
#573=DIRECTION('',(-1.,0.,0.));
#574=DIRECTION('',(0.,0.,-1.));
#575=DIRECTION('',(1.,0.,0.));
#576=DIRECTION('',(0.,1.,0.));
#577=DIRECTION('',(0.,0.,-1.));
#578=DIRECTION('',(1.,0.,0.));
#579=DIRECTION('',(1.,0.,0.));
#580=DIRECTION('',(0.,1.,0.));
#581=DIRECTION('',(-1.,0.,0.));
#582=DIRECTION('',(1.,0.,0.));
#583=DIRECTION('',(0.,0.,-1.));
#584=DIRECTION('',(1.,0.,0.));
#585=DIRECTION('',(0.,-1.,0.));
#586=DIRECTION('',(0.,0.,-1.));
#587=DIRECTION('',(1.,0.,0.));
#588=DIRECTION('',(-1.,0.,0.));
#589=DIRECTION('',(0.,0.,-1.));
#590=DIRECTION('',(0.999999999999999,0.,0.));
#591=DIRECTION('',(0.,1.,0.));
#592=DIRECTION('',(0.,0.,-1.));
#593=DIRECTION('',(0.999999999999999,0.,0.));
#594=DIRECTION('',(0.,0.,1.));
#595=DIRECTION('',(1.,0.,0.));
#596=DIRECTION('',(0.,0.,1.));
#597=DIRECTION('',(0.,0.,1.));
#598=DIRECTION('',(1.,0.,0.));
#599=DIRECTION('',(0.,0.,1.));
#600=DIRECTION('',(1.,0.,0.));
#601=DIRECTION('',(0.,-1.,0.));
#602=DIRECTION('',(0.,0.,-1.));
#603=DIRECTION('',(0.,0.,1.));
#604=DIRECTION('',(0.,-1.,0.));
#605=DIRECTION('',(0.,0.,1.));
#606=DIRECTION('',(0.,0.,1.));
#607=DIRECTION('',(0.,-1.,0.));
#608=DIRECTION('',(-1.,0.,0.));
#609=DIRECTION('',(0.,0.,1.));
#610=DIRECTION('',(0.,0.,1.));
#611=DIRECTION('',(-1.,0.,0.));
#612=DIRECTION('',(0.,1.,0.));
#613=DIRECTION('',(0.,0.,1.));
#614=DIRECTION('',(0.,1.,0.));
#615=DIRECTION('',(0.,0.,-1.));
#616=DIRECTION('',(-1.,0.,0.));
#617=DIRECTION('',(0.,0.,1.));
#618=DIRECTION('',(0.,1.,0.));
#619=DIRECTION('',(1.,0.,0.));
#620=DIRECTION('',(0.,0.,-1.));
#621=DIRECTION('',(0.,0.,-1.));
#622=DIRECTION('',(-1.,0.,0.));
#623=DIRECTION('',(0.,-1.,0.));
#624=DIRECTION('',(0.,0.,-1.));
#625=DIRECTION('',(1.,0.,0.));
#626=DIRECTION('',(0.,0.,1.));
#627=DIRECTION('',(0.,1.,0.));
#628=DIRECTION('',(0.,0.,1.));
#629=DIRECTION('',(0.,-1.,0.));
#630=DIRECTION('',(0.,0.,1.));
#631=DIRECTION('',(-1.,0.,0.));
#632=DIRECTION('',(0.,0.,1.));
#633=DIRECTION('',(-1.,0.,0.));
#634=DIRECTION('',(0.,0.,-1.));
#635=DIRECTION('',(-1.,0.,0.));
#636=DIRECTION('',(0.,0.,-1.));
#637=DIRECTION('',(0.,0.,1.));
#638=DIRECTION('',(1.,0.,0.));
#639=DIRECTION('',(0.,0.,-1.));
#640=DIRECTION('',(0.,0.,1.));
#641=DIRECTION('',(1.,0.,0.));
#642=DIRECTION('',(0.,0.,1.));
#643=DIRECTION('',(1.,0.,0.));
#644=DIRECTION('',(-1.,0.,0.));
#645=DIRECTION('',(0.,0.,1.));
#646=DIRECTION('',(0.,0.,-1.));
#647=DIRECTION('',(0.,-1.,0.));
#648=DIRECTION('',(0.,0.,-1.));
#649=DIRECTION('',(0.,0.,-1.));
#650=DIRECTION('',(0.,1.,0.));
#651=DIRECTION('',(0.,0.,1.));
#652=DIRECTION('',(-1.,0.,0.));
#653=DIRECTION('',(0.,0.,1.));
#654=DIRECTION('',(1.,0.,0.));
#655=DIRECTION('',(0.,0.,1.));
#656=DIRECTION('',(0.,0.,-1.));
#657=DIRECTION('',(0.,1.,0.));
#658=DIRECTION('',(0.,0.,1.));
#659=DIRECTION('',(0.,0.,1.));
#660=DIRECTION('',(-1.,0.,0.));
#661=DIRECTION('',(0.,0.,1.));
#662=DIRECTION('',(-0.999999999999999,0.,0.));
#663=DIRECTION('',(0.,-1.,0.));
#664=DIRECTION('',(0.,0.,1.));
#665=DIRECTION('',(-0.999999999999999,0.,0.));
#666=DIRECTION('',(0.,0.,1.));
#667=DIRECTION('',(-1.,0.,0.));
#668=DIRECTION('',(0.,0.,-1.));
#669=DIRECTION('',(-1.,0.,0.));
#670=DIRECTION('',(0.,0.,-1.));
#671=DIRECTION('',(0.,0.,1.));
#672=DIRECTION('',(1.,0.,0.));
#673=DIRECTION('',(0.,0.,-1.));
#674=DIRECTION('',(0.,0.,1.));
#675=DIRECTION('',(1.,0.,0.));
#676=DIRECTION('',(0.,0.,1.));
#677=DIRECTION('',(0.999999999999999,0.,0.));
#678=DIRECTION('',(0.,0.,1.));
#679=DIRECTION('',(1.,0.,0.));
#680=DIRECTION('',(0.,0.,1.));
#681=DIRECTION('',(0.999999999999999,0.,0.));
#682=DIRECTION('',(0.,1.,0.));
#683=DIRECTION('',(0.,0.,1.));
#684=DIRECTION('',(-1.,0.,0.));
#685=DIRECTION('',(0.,0.,1.));
#686=DIRECTION('',(0.,0.,-1.));
#687=DIRECTION('',(1.,0.,0.));
#688=DIRECTION('',(0.,1.,0.));
#689=DIRECTION('',(0.,0.,1.));
#690=DIRECTION('',(0.,0.,1.));
#691=DIRECTION('',(-1.,0.,0.));
#692=DIRECTION('',(0.,0.,-1.));
#693=DIRECTION('',(-1.,0.,0.));
#694=DIRECTION('',(0.,0.,1.));
#695=DIRECTION('',(1.,0.,0.));
#696=DIRECTION('',(0.,0.,-1.));
#697=DIRECTION('',(1.,0.,0.));
#698=DIRECTION('',(0.,0.,-1.));
#699=DIRECTION('',(-1.,0.,0.));
#700=DIRECTION('',(0.,0.,-1.));
#701=DIRECTION('',(1.,0.,0.));
#702=CARTESIAN_POINT('',(0.,0.,0.));
#703=CARTESIAN_POINT('',(337.4,257.1,121.3));
#704=CARTESIAN_POINT('',(358.4,257.1,121.3));
#705=CARTESIAN_POINT('',(261.9,218.9,121.3));
#706=CARTESIAN_POINT('',(261.9,86.8,121.3));
#707=CARTESIAN_POINT('',(261.9,0.,121.3));
#708=CARTESIAN_POINT('',(270.9,86.8,121.3));
#709=CARTESIAN_POINT('',(270.9,95.8,121.3));
#710=CARTESIAN_POINT('',(191.5,95.8,121.3));
#711=CARTESIAN_POINT('',(383.,95.8,121.3));
#712=CARTESIAN_POINT('',(383.,218.9,121.3));
#713=CARTESIAN_POINT('',(383.,437.8,121.3));
#714=CARTESIAN_POINT('',(191.5,437.8,121.3));
#715=CARTESIAN_POINT('',(0.,437.8,121.3));
#716=CARTESIAN_POINT('',(0.,218.9,121.3));
#717=CARTESIAN_POINT('',(0.,411.9,121.3));
#718=CARTESIAN_POINT('',(191.5,411.9,121.3));
#719=CARTESIAN_POINT('',(85.4,411.9,121.3));
#720=CARTESIAN_POINT('',(85.4,401.2,121.3));
#721=CARTESIAN_POINT('',(96.1,401.2,121.3));
#722=CARTESIAN_POINT('',(96.1,218.9,121.3));
#723=CARTESIAN_POINT('',(96.1,333.,121.3));
#724=CARTESIAN_POINT('',(85.4,333.,121.3));
#725=CARTESIAN_POINT('',(85.4,322.3,121.3));
#726=CARTESIAN_POINT('',(191.5,322.3,121.3));
#727=CARTESIAN_POINT('',(0.,322.3,121.3));
#728=CARTESIAN_POINT('',(0.,218.9,121.3));
#729=CARTESIAN_POINT('',(0.,0.,121.3));
#730=CARTESIAN_POINT('',(191.5,0.,121.3));
#731=CARTESIAN_POINT('',(191.5,124.5,121.3));
#732=CARTESIAN_POINT('',(58.6,124.5,121.3));
#733=CARTESIAN_POINT('',(208.3,124.5,121.3));
#734=CARTESIAN_POINT('',(58.6,132.9,121.3));
#735=CARTESIAN_POINT('',(50.2,132.9,121.3));
#736=CARTESIAN_POINT('',(50.2,218.9,121.3));
#737=CARTESIAN_POINT('',(50.2,284.3,121.3));
#738=CARTESIAN_POINT('',(58.6,284.3,121.3));
#739=CARTESIAN_POINT('',(58.6,292.7,121.3));
#740=CARTESIAN_POINT('',(191.5,292.7,121.3));
#741=CARTESIAN_POINT('',(208.3,292.7,121.3));
#742=CARTESIAN_POINT('',(208.3,284.3,121.3));
#743=CARTESIAN_POINT('',(216.7,284.3,121.3));
#744=CARTESIAN_POINT('',(216.7,218.9,121.3));
#745=CARTESIAN_POINT('',(216.7,132.9,121.3));
#746=CARTESIAN_POINT('',(208.3,132.9,121.3));
#747=CARTESIAN_POINT('',(191.5,218.9,121.3));
#748=CARTESIAN_POINT('',(261.9,0.,89.2));
#749=CARTESIAN_POINT('',(261.9,0.,89.2));
#750=CARTESIAN_POINT('',(0.,0.,0.));
#751=CARTESIAN_POINT('',(0.,0.,0.));
#752=CARTESIAN_POINT('',(191.5,0.,0.));
#753=CARTESIAN_POINT('',(383.,0.,0.));
#754=CARTESIAN_POINT('',(383.,0.,0.));
#755=CARTESIAN_POINT('',(383.,0.,89.2));
#756=CARTESIAN_POINT('',(322.45,0.,89.2));
#757=CARTESIAN_POINT('',(191.5,0.,0.));
#758=CARTESIAN_POINT('',(0.,322.3,83.4));
#759=CARTESIAN_POINT('',(0.,322.3,83.4));
#760=CARTESIAN_POINT('',(0.,367.1,83.4));
#761=CARTESIAN_POINT('',(0.,411.9,83.4));
#762=CARTESIAN_POINT('',(0.,411.9,83.4));
#763=CARTESIAN_POINT('',(0.,437.8,0.));
#764=CARTESIAN_POINT('',(0.,437.8,0.));
#765=CARTESIAN_POINT('',(0.,218.9,0.));
#766=CARTESIAN_POINT('',(0.,218.9,0.));
#767=CARTESIAN_POINT('',(383.,437.8,0.));
#768=CARTESIAN_POINT('',(383.,437.8,0.));
#769=CARTESIAN_POINT('',(191.5,437.8,0.));
#770=CARTESIAN_POINT('',(191.5,437.8,0.));
#771=CARTESIAN_POINT('',(383.,218.9,0.));
#772=CARTESIAN_POINT('',(191.5,218.9,0.));
#773=CARTESIAN_POINT('',(383.,95.8,89.2));
#774=CARTESIAN_POINT('',(383.,95.8,89.2));
#775=CARTESIAN_POINT('',(383.,47.9,89.2));
#776=CARTESIAN_POINT('',(383.,218.9,0.));
#777=CARTESIAN_POINT('',(85.4,322.3,83.4));
#778=CARTESIAN_POINT('',(85.4,322.3,83.4));
#779=CARTESIAN_POINT('',(48.05,322.3,83.4));
#780=CARTESIAN_POINT('',(48.05,322.3,83.4));
#781=CARTESIAN_POINT('',(48.05,411.9,83.4));
#782=CARTESIAN_POINT('',(85.4,411.9,83.4));
#783=CARTESIAN_POINT('',(85.4,411.9,121.3));
#784=CARTESIAN_POINT('',(48.05,411.9,83.4));
#785=CARTESIAN_POINT('',(96.1,367.1,83.4));
#786=CARTESIAN_POINT('',(96.1,401.2,83.4));
#787=CARTESIAN_POINT('',(96.1,333.,83.4));
#788=CARTESIAN_POINT('',(85.4,401.2,83.4));
#789=CARTESIAN_POINT('',(85.4,333.,83.4));
#790=CARTESIAN_POINT('',(48.05,367.1,83.4));
#791=CARTESIAN_POINT('',(96.1,401.2,83.4));
#792=CARTESIAN_POINT('',(96.1,333.,121.3));
#793=CARTESIAN_POINT('',(96.1,367.1,83.4));
#794=CARTESIAN_POINT('',(85.4,401.2,83.4));
#795=CARTESIAN_POINT('',(85.4,333.,83.4));
#796=CARTESIAN_POINT('',(133.45,124.5,83.4));
#797=CARTESIAN_POINT('',(208.3,124.5,83.4));
#798=CARTESIAN_POINT('',(58.6,124.5,83.4));
#799=CARTESIAN_POINT('',(58.6,124.5,121.3));
#800=CARTESIAN_POINT('',(208.3,124.5,83.4));
#801=CARTESIAN_POINT('',(133.45,124.5,83.4));
#802=CARTESIAN_POINT('',(50.2,132.9,83.4));
#803=CARTESIAN_POINT('',(50.2,132.9,83.4));
#804=CARTESIAN_POINT('',(50.2,208.6,83.4));
#805=CARTESIAN_POINT('',(50.2,284.3,83.4));
#806=CARTESIAN_POINT('',(50.2,284.3,121.3));
#807=CARTESIAN_POINT('',(50.2,208.6,83.4));
#808=CARTESIAN_POINT('',(133.45,292.7,83.4));
#809=CARTESIAN_POINT('',(58.6,292.7,83.4));
#810=CARTESIAN_POINT('',(208.3,292.7,83.4));
#811=CARTESIAN_POINT('',(208.3,292.7,121.3));
#812=CARTESIAN_POINT('',(58.6,292.7,83.4));
#813=CARTESIAN_POINT('',(133.45,292.7,83.4));
#814=CARTESIAN_POINT('',(58.6,132.9,83.4));
#815=CARTESIAN_POINT('',(208.3,132.9,83.4));
#816=CARTESIAN_POINT('',(216.7,132.9,83.4));
#817=CARTESIAN_POINT('',(216.7,208.6,83.4));
#818=CARTESIAN_POINT('',(216.7,284.3,83.4));
#819=CARTESIAN_POINT('',(208.3,284.3,83.4));
#820=CARTESIAN_POINT('',(58.6,284.3,83.4));
#821=CARTESIAN_POINT('',(133.45,208.6,83.4));
#822=CARTESIAN_POINT('',(216.7,284.3,83.4));
#823=CARTESIAN_POINT('',(216.7,132.9,121.3));
#824=CARTESIAN_POINT('',(216.7,208.6,83.4));
#825=CARTESIAN_POINT('',(58.6,132.9,83.4));
#826=CARTESIAN_POINT('',(208.3,284.3,83.4));
#827=CARTESIAN_POINT('',(58.6,284.3,83.4));
#828=CARTESIAN_POINT('',(208.3,132.9,83.4));
#829=CARTESIAN_POINT('',(261.9,47.9,89.2));
#830=CARTESIAN_POINT('',(261.9,86.8,89.2));
#831=CARTESIAN_POINT('',(261.9,86.8,121.3));
#832=CARTESIAN_POINT('',(261.9,47.9,89.2));
#833=CARTESIAN_POINT('',(270.9,95.8,89.2));
#834=CARTESIAN_POINT('',(270.9,95.8,89.2));
#835=CARTESIAN_POINT('',(322.45,95.8,89.2));
#836=CARTESIAN_POINT('',(322.45,95.8,89.2));
#837=CARTESIAN_POINT('',(270.9,86.8,89.2));
#838=CARTESIAN_POINT('',(322.45,47.9,89.2));
#839=CARTESIAN_POINT('',(270.9,86.8,89.2));
#840=CARTESIAN_POINT('',(337.4,257.1,59.7));
#841=CARTESIAN_POINT('',(358.4,257.1,59.7));
#842=CARTESIAN_POINT('',(337.4,257.1,59.7));
#843=CARTESIAN_POINT('',(337.4,257.1,121.35));
#844=MECHANICAL_DESIGN_GEOMETRIC_PRESENTATION_REPRESENTATION('',(#24),#845);
#845=(
GEOMETRIC_REPRESENTATION_CONTEXT(3)
GLOBAL_UNCERTAINTY_ASSIGNED_CONTEXT((#846))
GLOBAL_UNIT_ASSIGNED_CONTEXT((#852,#848,#847))
REPRESENTATION_CONTEXT('featured_part_09453','TOP_LEVEL_ASSEMBLY_PART')
);
#846=UNCERTAINTY_MEASURE_WITH_UNIT(LENGTH_MEASURE(2.E-5),#852,
'DISTANCE_ACCURACY_VALUE','Maximum Tolerance applied to model');
#847=(
NAMED_UNIT(*)
SI_UNIT($,.STERADIAN.)
SOLID_ANGLE_UNIT()
);
#848=(
CONVERSION_BASED_UNIT('DEGREE',#850)
NAMED_UNIT(#849)
PLANE_ANGLE_UNIT()
);
#849=DIMENSIONAL_EXPONENTS(0.,0.,0.,0.,0.,0.,0.);
#850=PLANE_ANGLE_MEASURE_WITH_UNIT(PLANE_ANGLE_MEASURE(0.0174532925),#851);
#851=(
NAMED_UNIT(*)
PLANE_ANGLE_UNIT()
SI_UNIT($,.RADIAN.)
);
#852=(
LENGTH_UNIT()
NAMED_UNIT(*)
SI_UNIT(.MILLI.,.METRE.)
);
ENDSEC;
END-ISO-10303-21;
