ISO-10303-21;
HEADER;
/* Generated by software containing ST-Developer
 * from STEP Tools, Inc. (www.steptools.com) 
 */
/* OPTION: using custom schema-name function */

FILE_DESCRIPTION(
/* description */ (''),
/* implementation_level */ '2;1');

FILE_NAME(
/* name */ 'featured_part_01081.stp',
/* time_stamp */ '2026-07-08T14:10:19-04:00',
/* author */ (''),
/* organization */ (''),
/* preprocessor_version */ 'ST-DEVELOPER v20.1',
/* originating_system */ 'SIEMENS PLM Software NX2512.6002',
/* authorisation */ '');

FILE_SCHEMA (('AUTOMOTIVE_DESIGN { 1 0 10303 214 3 1 1 1 }'));
ENDSEC;

DATA;
#10=SHAPE_REPRESENTATION_RELATIONSHIP('None',
'relationship between featured_part_01081-None and featured_part_01081
-None',#22,#11);
#11=ADVANCED_BREP_SHAPE_REPRESENTATION('featured_part_01081-None',(#32),
#614);
#12=SHAPE_DEFINITION_REPRESENTATION(#13,#22);
#13=PRODUCT_DEFINITION_SHAPE('','',#14);
#14=PRODUCT_DEFINITION(' ','',#16,#15);
#15=PRODUCT_DEFINITION_CONTEXT('part definition',#21,'design');
#16=PRODUCT_DEFINITION_FORMATION_WITH_SPECIFIED_SOURCE(' ',' ',#18,
 .NOT_KNOWN.);
#17=PRODUCT_RELATED_PRODUCT_CATEGORY('part','',(#18));
#18=PRODUCT('featured_part_01081','featured_part_01081',' ',(#19));
#19=PRODUCT_CONTEXT(' ',#21,'mechanical');
#20=APPLICATION_PROTOCOL_DEFINITION('international standard',
'automotive_design',2010,#21);
#21=APPLICATION_CONTEXT(
'core data for automotive mechanical design processes');
#22=SHAPE_REPRESENTATION('featured_part_01081-None',(#386),#614);
#23=PRESENTATION_LAYER_ASSIGNMENT('1','Layer 1',(#32));
#24=STYLED_ITEM('',(#25),#32);
#25=PRESENTATION_STYLE_ASSIGNMENT((#26));
#26=SURFACE_STYLE_USAGE(.BOTH.,#27);
#27=SURFACE_SIDE_STYLE('',(#28));
#28=SURFACE_STYLE_FILL_AREA(#29);
#29=FILL_AREA_STYLE('',(#30));
#30=FILL_AREA_STYLE_COLOUR('',#31);
#31=COLOUR_RGB('medium steel',0.611764705882353,0.658823529411765,0.670588235294118);
#32=MANIFOLD_SOLID_BREP('',#33);
#33=CLOSED_SHELL('',(#44,#45,#46,#47,#48,#49,#50,#51,#52,#53,#54,#55,#56,
#57,#58,#59,#60,#61,#62,#63));
#34=CYLINDRICAL_SURFACE('',#407,4.9);
#35=CYLINDRICAL_SURFACE('',#410,8.3);
#36=CYLINDRICAL_SURFACE('',#413,3.9);
#37=ELLIPSE('',#398,11.7379725676967,8.3);
#38=FACE_BOUND('',#100,.T.);
#39=FACE_BOUND('',#101,.T.);
#40=FACE_BOUND('',#116,.T.);
#41=FACE_BOUND('',#117,.T.);
#42=FACE_BOUND('',#119,.T.);
#43=FACE_BOUND('',#120,.T.);
#44=ADVANCED_FACE('',(#81),#64,.T.);
#45=ADVANCED_FACE('',(#82),#65,.F.);
#46=ADVANCED_FACE('',(#38,#39),#66,.T.);
#47=ADVANCED_FACE('',(#83),#67,.T.);
#48=ADVANCED_FACE('',(#84),#68,.T.);
#49=ADVANCED_FACE('',(#85),#69,.T.);
#50=ADVANCED_FACE('',(#86),#70,.T.);
#51=ADVANCED_FACE('',(#87),#71,.T.);
#52=ADVANCED_FACE('',(#88),#72,.F.);
#53=ADVANCED_FACE('',(#89),#73,.F.);
#54=ADVANCED_FACE('',(#90),#74,.F.);
#55=ADVANCED_FACE('',(#91),#75,.F.);
#56=ADVANCED_FACE('',(#92),#76,.F.);
#57=ADVANCED_FACE('',(#93),#77,.F.);
#58=ADVANCED_FACE('',(#94),#78,.F.);
#59=ADVANCED_FACE('',(#95),#34,.F.);
#60=ADVANCED_FACE('',(#96),#79,.F.);
#61=ADVANCED_FACE('',(#40,#41),#35,.F.);
#62=ADVANCED_FACE('',(#97),#80,.F.);
#63=ADVANCED_FACE('',(#42,#43),#36,.F.);
#64=PLANE('',#388);
#65=PLANE('',#389);
#66=PLANE('',#392);
#67=PLANE('',#393);
#68=PLANE('',#394);
#69=PLANE('',#395);
#70=PLANE('',#396);
#71=PLANE('',#397);
#72=PLANE('',#399);
#73=PLANE('',#400);
#74=PLANE('',#401);
#75=PLANE('',#402);
#76=PLANE('',#403);
#77=PLANE('',#405);
#78=PLANE('',#406);
#79=PLANE('',#409);
#80=PLANE('',#412);
#81=FACE_OUTER_BOUND('',#98,.T.);
#82=FACE_OUTER_BOUND('',#99,.T.);
#83=FACE_OUTER_BOUND('',#102,.T.);
#84=FACE_OUTER_BOUND('',#103,.T.);
#85=FACE_OUTER_BOUND('',#104,.T.);
#86=FACE_OUTER_BOUND('',#105,.T.);
#87=FACE_OUTER_BOUND('',#106,.T.);
#88=FACE_OUTER_BOUND('',#107,.T.);
#89=FACE_OUTER_BOUND('',#108,.T.);
#90=FACE_OUTER_BOUND('',#109,.T.);
#91=FACE_OUTER_BOUND('',#110,.T.);
#92=FACE_OUTER_BOUND('',#111,.T.);
#93=FACE_OUTER_BOUND('',#112,.T.);
#94=FACE_OUTER_BOUND('',#113,.T.);
#95=FACE_OUTER_BOUND('',#114,.T.);
#96=FACE_OUTER_BOUND('',#115,.T.);
#97=FACE_OUTER_BOUND('',#118,.T.);
#98=EDGE_LOOP('',(#127,#128,#129,#130,#131,#132,#133));
#99=EDGE_LOOP('',(#134,#135,#136,#137));
#100=EDGE_LOOP('',(#138));
#101=EDGE_LOOP('',(#139,#140,#141,#142,#143,#144));
#102=EDGE_LOOP('',(#145,#146,#147,#148,#149,#150,#151,#152));
#103=EDGE_LOOP('',(#153,#154,#155,#156,#157,#158));
#104=EDGE_LOOP('',(#159,#160,#161,#162,#163,#164,#165,#166,#167,#168));
#105=EDGE_LOOP('',(#169,#170,#171,#172));
#106=EDGE_LOOP('',(#173,#174,#175,#176,#177));
#107=EDGE_LOOP('',(#178,#179,#180,#181,#182,#183));
#108=EDGE_LOOP('',(#184,#185,#186,#187,#188));
#109=EDGE_LOOP('',(#189,#190,#191,#192));
#110=EDGE_LOOP('',(#193,#194,#195,#196,#197));
#111=EDGE_LOOP('',(#198,#199,#200,#201));
#112=EDGE_LOOP('',(#202,#203,#204,#205,#206));
#113=EDGE_LOOP('',(#207,#208,#209,#210,#211));
#114=EDGE_LOOP('',(#212,#213,#214,#215));
#115=EDGE_LOOP('',(#216));
#116=EDGE_LOOP('',(#217,#218));
#117=EDGE_LOOP('',(#219));
#118=EDGE_LOOP('',(#220));
#119=EDGE_LOOP('',(#221));
#120=EDGE_LOOP('',(#222));
#121=CIRCLE('',#387,4.9);
#122=CIRCLE('',#390,3.9);
#123=CIRCLE('',#391,8.3);
#124=CIRCLE('',#404,4.9);
#125=CIRCLE('',#408,8.3);
#126=CIRCLE('',#411,3.9);
#127=ORIENTED_EDGE('',*,*,#256,.F.);
#128=ORIENTED_EDGE('',*,*,#257,.F.);
#129=ORIENTED_EDGE('',*,*,#258,.F.);
#130=ORIENTED_EDGE('',*,*,#259,.F.);
#131=ORIENTED_EDGE('',*,*,#260,.T.);
#132=ORIENTED_EDGE('',*,*,#261,.F.);
#133=ORIENTED_EDGE('',*,*,#262,.T.);
#134=ORIENTED_EDGE('',*,*,#263,.F.);
#135=ORIENTED_EDGE('',*,*,#260,.F.);
#136=ORIENTED_EDGE('',*,*,#264,.F.);
#137=ORIENTED_EDGE('',*,*,#265,.F.);
#138=ORIENTED_EDGE('',*,*,#266,.F.);
#139=ORIENTED_EDGE('',*,*,#267,.F.);
#140=ORIENTED_EDGE('',*,*,#268,.T.);
#141=ORIENTED_EDGE('',*,*,#269,.F.);
#142=ORIENTED_EDGE('',*,*,#270,.F.);
#143=ORIENTED_EDGE('',*,*,#271,.F.);
#144=ORIENTED_EDGE('',*,*,#272,.T.);
#145=ORIENTED_EDGE('',*,*,#273,.F.);
#146=ORIENTED_EDGE('',*,*,#258,.T.);
#147=ORIENTED_EDGE('',*,*,#274,.F.);
#148=ORIENTED_EDGE('',*,*,#275,.T.);
#149=ORIENTED_EDGE('',*,*,#276,.T.);
#150=ORIENTED_EDGE('',*,*,#270,.T.);
#151=ORIENTED_EDGE('',*,*,#277,.F.);
#152=ORIENTED_EDGE('',*,*,#278,.F.);
#153=ORIENTED_EDGE('',*,*,#279,.F.);
#154=ORIENTED_EDGE('',*,*,#280,.F.);
#155=ORIENTED_EDGE('',*,*,#281,.F.);
#156=ORIENTED_EDGE('',*,*,#282,.T.);
#157=ORIENTED_EDGE('',*,*,#274,.T.);
#158=ORIENTED_EDGE('',*,*,#257,.T.);
#159=ORIENTED_EDGE('',*,*,#283,.F.);
#160=ORIENTED_EDGE('',*,*,#284,.T.);
#161=ORIENTED_EDGE('',*,*,#265,.T.);
#162=ORIENTED_EDGE('',*,*,#285,.F.);
#163=ORIENTED_EDGE('',*,*,#286,.F.);
#164=ORIENTED_EDGE('',*,*,#287,.F.);
#165=ORIENTED_EDGE('',*,*,#288,.T.);
#166=ORIENTED_EDGE('',*,*,#289,.F.);
#167=ORIENTED_EDGE('',*,*,#290,.T.);
#168=ORIENTED_EDGE('',*,*,#281,.T.);
#169=ORIENTED_EDGE('',*,*,#291,.F.);
#170=ORIENTED_EDGE('',*,*,#275,.F.);
#171=ORIENTED_EDGE('',*,*,#282,.F.);
#172=ORIENTED_EDGE('',*,*,#290,.F.);
#173=ORIENTED_EDGE('',*,*,#289,.T.);
#174=ORIENTED_EDGE('',*,*,#292,.T.);
#175=ORIENTED_EDGE('',*,*,#271,.T.);
#176=ORIENTED_EDGE('',*,*,#276,.F.);
#177=ORIENTED_EDGE('',*,*,#291,.T.);
#178=ORIENTED_EDGE('',*,*,#293,.F.);
#179=ORIENTED_EDGE('',*,*,#272,.F.);
#180=ORIENTED_EDGE('',*,*,#292,.F.);
#181=ORIENTED_EDGE('',*,*,#288,.F.);
#182=ORIENTED_EDGE('',*,*,#294,.F.);
#183=ORIENTED_EDGE('',*,*,#268,.F.);
#184=ORIENTED_EDGE('',*,*,#273,.T.);
#185=ORIENTED_EDGE('',*,*,#295,.T.);
#186=ORIENTED_EDGE('',*,*,#285,.T.);
#187=ORIENTED_EDGE('',*,*,#264,.T.);
#188=ORIENTED_EDGE('',*,*,#259,.T.);
#189=ORIENTED_EDGE('',*,*,#278,.T.);
#190=ORIENTED_EDGE('',*,*,#296,.F.);
#191=ORIENTED_EDGE('',*,*,#286,.T.);
#192=ORIENTED_EDGE('',*,*,#295,.F.);
#193=ORIENTED_EDGE('',*,*,#277,.T.);
#194=ORIENTED_EDGE('',*,*,#269,.T.);
#195=ORIENTED_EDGE('',*,*,#294,.T.);
#196=ORIENTED_EDGE('',*,*,#287,.T.);
#197=ORIENTED_EDGE('',*,*,#296,.T.);
#198=ORIENTED_EDGE('',*,*,#256,.T.);
#199=ORIENTED_EDGE('',*,*,#297,.T.);
#200=ORIENTED_EDGE('',*,*,#298,.T.);
#201=ORIENTED_EDGE('',*,*,#279,.T.);
#202=ORIENTED_EDGE('',*,*,#298,.F.);
#203=ORIENTED_EDGE('',*,*,#299,.T.);
#204=ORIENTED_EDGE('',*,*,#300,.F.);
#205=ORIENTED_EDGE('',*,*,#283,.T.);
#206=ORIENTED_EDGE('',*,*,#280,.T.);
#207=ORIENTED_EDGE('',*,*,#300,.T.);
#208=ORIENTED_EDGE('',*,*,#301,.T.);
#209=ORIENTED_EDGE('',*,*,#261,.T.);
#210=ORIENTED_EDGE('',*,*,#263,.T.);
#211=ORIENTED_EDGE('',*,*,#284,.F.);
#212=ORIENTED_EDGE('',*,*,#262,.F.);
#213=ORIENTED_EDGE('',*,*,#301,.F.);
#214=ORIENTED_EDGE('',*,*,#299,.F.);
#215=ORIENTED_EDGE('',*,*,#297,.F.);
#216=ORIENTED_EDGE('',*,*,#302,.F.);
#217=ORIENTED_EDGE('',*,*,#267,.T.);
#218=ORIENTED_EDGE('',*,*,#293,.T.);
#219=ORIENTED_EDGE('',*,*,#302,.T.);
#220=ORIENTED_EDGE('',*,*,#303,.F.);
#221=ORIENTED_EDGE('',*,*,#266,.T.);
#222=ORIENTED_EDGE('',*,*,#303,.T.);
#223=VERTEX_POINT('',#513);
#224=VERTEX_POINT('',#514);
#225=VERTEX_POINT('',#516);
#226=VERTEX_POINT('',#518);
#227=VERTEX_POINT('',#520);
#228=VERTEX_POINT('',#522);
#229=VERTEX_POINT('',#524);
#230=VERTEX_POINT('',#528);
#231=VERTEX_POINT('',#530);
#232=VERTEX_POINT('',#534);
#233=VERTEX_POINT('',#536);
#234=VERTEX_POINT('',#537);
#235=VERTEX_POINT('',#539);
#236=VERTEX_POINT('',#541);
#237=VERTEX_POINT('',#543);
#238=VERTEX_POINT('',#545);
#239=VERTEX_POINT('',#549);
#240=VERTEX_POINT('',#551);
#241=VERTEX_POINT('',#553);
#242=VERTEX_POINT('',#556);
#243=VERTEX_POINT('',#560);
#244=VERTEX_POINT('',#562);
#245=VERTEX_POINT('',#564);
#246=VERTEX_POINT('',#568);
#247=VERTEX_POINT('',#571);
#248=VERTEX_POINT('',#573);
#249=VERTEX_POINT('',#575);
#250=VERTEX_POINT('',#577);
#251=VERTEX_POINT('',#579);
#252=VERTEX_POINT('',#595);
#253=VERTEX_POINT('',#599);
#254=VERTEX_POINT('',#606);
#255=VERTEX_POINT('',#610);
#256=EDGE_CURVE('',#223,#224,#304,.T.);
#257=EDGE_CURVE('',#225,#223,#305,.T.);
#258=EDGE_CURVE('',#226,#225,#306,.T.);
#259=EDGE_CURVE('',#227,#226,#307,.T.);
#260=EDGE_CURVE('',#227,#228,#308,.T.);
#261=EDGE_CURVE('',#229,#228,#309,.T.);
#262=EDGE_CURVE('',#229,#224,#121,.T.);
#263=EDGE_CURVE('',#228,#230,#310,.T.);
#264=EDGE_CURVE('',#231,#227,#311,.T.);
#265=EDGE_CURVE('',#230,#231,#312,.T.);
#266=EDGE_CURVE('',#232,#232,#122,.T.);
#267=EDGE_CURVE('',#233,#234,#123,.T.);
#268=EDGE_CURVE('',#233,#235,#313,.T.);
#269=EDGE_CURVE('',#236,#235,#314,.T.);
#270=EDGE_CURVE('',#237,#236,#315,.T.);
#271=EDGE_CURVE('',#238,#237,#316,.T.);
#272=EDGE_CURVE('',#238,#234,#317,.T.);
#273=EDGE_CURVE('',#226,#239,#318,.T.);
#274=EDGE_CURVE('',#240,#225,#319,.T.);
#275=EDGE_CURVE('',#240,#241,#320,.T.);
#276=EDGE_CURVE('',#241,#237,#321,.T.);
#277=EDGE_CURVE('',#242,#236,#322,.T.);
#278=EDGE_CURVE('',#239,#242,#323,.T.);
#279=EDGE_CURVE('',#243,#223,#324,.T.);
#280=EDGE_CURVE('',#244,#243,#325,.T.);
#281=EDGE_CURVE('',#245,#244,#326,.T.);
#282=EDGE_CURVE('',#245,#240,#327,.T.);
#283=EDGE_CURVE('',#246,#244,#328,.T.);
#284=EDGE_CURVE('',#246,#230,#329,.T.);
#285=EDGE_CURVE('',#247,#231,#330,.T.);
#286=EDGE_CURVE('',#248,#247,#331,.T.);
#287=EDGE_CURVE('',#249,#248,#332,.T.);
#288=EDGE_CURVE('',#249,#250,#333,.T.);
#289=EDGE_CURVE('',#251,#250,#334,.T.);
#290=EDGE_CURVE('',#251,#245,#335,.T.);
#291=EDGE_CURVE('',#241,#251,#336,.T.);
#292=EDGE_CURVE('',#250,#238,#337,.T.);
#293=EDGE_CURVE('',#234,#233,#37,.T.);
#294=EDGE_CURVE('',#235,#249,#338,.T.);
#295=EDGE_CURVE('',#239,#247,#339,.T.);
#296=EDGE_CURVE('',#248,#242,#340,.T.);
#297=EDGE_CURVE('',#224,#252,#341,.T.);
#298=EDGE_CURVE('',#252,#243,#342,.T.);
#299=EDGE_CURVE('',#252,#253,#124,.T.);
#300=EDGE_CURVE('',#246,#253,#343,.T.);
#301=EDGE_CURVE('',#253,#229,#344,.T.);
#302=EDGE_CURVE('',#254,#254,#125,.T.);
#303=EDGE_CURVE('',#255,#255,#126,.T.);
#304=LINE('',#512,#345);
#305=LINE('',#515,#346);
#306=LINE('',#517,#347);
#307=LINE('',#519,#348);
#308=LINE('',#521,#349);
#309=LINE('',#523,#350);
#310=LINE('',#527,#351);
#311=LINE('',#529,#352);
#312=LINE('',#531,#353);
#313=LINE('',#538,#354);
#314=LINE('',#540,#355);
#315=LINE('',#542,#356);
#316=LINE('',#544,#357);
#317=LINE('',#546,#358);
#318=LINE('',#548,#359);
#319=LINE('',#550,#360);
#320=LINE('',#552,#361);
#321=LINE('',#554,#362);
#322=LINE('',#555,#363);
#323=LINE('',#557,#364);
#324=LINE('',#559,#365);
#325=LINE('',#561,#366);
#326=LINE('',#563,#367);
#327=LINE('',#565,#368);
#328=LINE('',#567,#369);
#329=LINE('',#569,#370);
#330=LINE('',#570,#371);
#331=LINE('',#572,#372);
#332=LINE('',#574,#373);
#333=LINE('',#576,#374);
#334=LINE('',#578,#375);
#335=LINE('',#580,#376);
#336=LINE('',#582,#377);
#337=LINE('',#584,#378);
#338=LINE('',#587,#379);
#339=LINE('',#589,#380);
#340=LINE('',#591,#381);
#341=LINE('',#594,#382);
#342=LINE('',#596,#383);
#343=LINE('',#600,#384);
#344=LINE('',#602,#385);
#345=VECTOR('',#416,1.);
#346=VECTOR('',#417,1.);
#347=VECTOR('',#418,1.);
#348=VECTOR('',#419,1.);
#349=VECTOR('',#420,1.);
#350=VECTOR('',#421,1.);
#351=VECTOR('',#426,1.);
#352=VECTOR('',#427,1.);
#353=VECTOR('',#428,1.);
#354=VECTOR('',#435,1.);
#355=VECTOR('',#436,1.);
#356=VECTOR('',#437,1.);
#357=VECTOR('',#438,1.);
#358=VECTOR('',#439,1.);
#359=VECTOR('',#442,1.);
#360=VECTOR('',#443,1.);
#361=VECTOR('',#444,1.);
#362=VECTOR('',#445,1.);
#363=VECTOR('',#446,1.);
#364=VECTOR('',#447,1.);
#365=VECTOR('',#450,1.);
#366=VECTOR('',#451,1.);
#367=VECTOR('',#452,1.);
#368=VECTOR('',#453,1.);
#369=VECTOR('',#456,1.);
#370=VECTOR('',#457,1.);
#371=VECTOR('',#458,1.);
#372=VECTOR('',#459,1.);
#373=VECTOR('',#460,1.);
#374=VECTOR('',#461,1.);
#375=VECTOR('',#462,1.);
#376=VECTOR('',#463,1.);
#377=VECTOR('',#466,1.);
#378=VECTOR('',#469,1.);
#379=VECTOR('',#474,1.);
#380=VECTOR('',#477,1.);
#381=VECTOR('',#480,1.);
#382=VECTOR('',#485,1.);
#383=VECTOR('',#486,1.);
#384=VECTOR('',#491,1.);
#385=VECTOR('',#494,1.);
#386=AXIS2_PLACEMENT_3D('',#511,#414,#415);
#387=AXIS2_PLACEMENT_3D('',#525,#422,#423);
#388=AXIS2_PLACEMENT_3D('',#526,#424,#425);
#389=AXIS2_PLACEMENT_3D('',#532,#429,#430);
#390=AXIS2_PLACEMENT_3D('',#533,#431,#432);
#391=AXIS2_PLACEMENT_3D('',#535,#433,#434);
#392=AXIS2_PLACEMENT_3D('',#547,#440,#441);
#393=AXIS2_PLACEMENT_3D('',#558,#448,#449);
#394=AXIS2_PLACEMENT_3D('',#566,#454,#455);
#395=AXIS2_PLACEMENT_3D('',#581,#464,#465);
#396=AXIS2_PLACEMENT_3D('',#583,#467,#468);
#397=AXIS2_PLACEMENT_3D('',#585,#470,#471);
#398=AXIS2_PLACEMENT_3D('',#586,#472,#473);
#399=AXIS2_PLACEMENT_3D('',#588,#475,#476);
#400=AXIS2_PLACEMENT_3D('',#590,#478,#479);
#401=AXIS2_PLACEMENT_3D('',#592,#481,#482);
#402=AXIS2_PLACEMENT_3D('',#593,#483,#484);
#403=AXIS2_PLACEMENT_3D('',#597,#487,#488);
#404=AXIS2_PLACEMENT_3D('',#598,#489,#490);
#405=AXIS2_PLACEMENT_3D('',#601,#492,#493);
#406=AXIS2_PLACEMENT_3D('',#603,#495,#496);
#407=AXIS2_PLACEMENT_3D('',#604,#497,#498);
#408=AXIS2_PLACEMENT_3D('',#605,#499,#500);
#409=AXIS2_PLACEMENT_3D('',#607,#501,#502);
#410=AXIS2_PLACEMENT_3D('',#608,#503,#504);
#411=AXIS2_PLACEMENT_3D('',#609,#505,#506);
#412=AXIS2_PLACEMENT_3D('',#611,#507,#508);
#413=AXIS2_PLACEMENT_3D('',#612,#509,#510);
#414=DIRECTION('',(0.,0.,1.));
#415=DIRECTION('',(1.,0.,0.));
#416=DIRECTION('',(1.,0.,0.));
#417=DIRECTION('',(0.,1.,0.));
#418=DIRECTION('',(-1.,0.,0.));
#419=DIRECTION('',(0.,-1.,0.));
#420=DIRECTION('',(-1.,0.,0.));
#421=DIRECTION('',(0.,1.,0.));
#422=DIRECTION('',(0.,0.,-1.));
#423=DIRECTION('',(0.999999999999997,0.,0.));
#424=DIRECTION('',(0.,0.,1.));
#425=DIRECTION('',(1.,0.,0.));
#426=DIRECTION('',(0.,0.707106781186547,-0.707106781186548));
#427=DIRECTION('',(0.,-0.707106781186547,0.707106781186548));
#428=DIRECTION('',(1.,0.,0.));
#429=DIRECTION('',(0.,-0.707106781186548,-0.707106781186547));
#430=DIRECTION('',(1.,0.,0.));
#431=DIRECTION('',(0.,0.,1.));
#432=DIRECTION('',(1.,0.,0.));
#433=DIRECTION('',(0.,0.,1.));
#434=DIRECTION('',(0.999999999999997,0.,0.));
#435=DIRECTION('',(-1.,0.,0.));
#436=DIRECTION('',(0.,1.,0.));
#437=DIRECTION('',(-1.,0.,0.));
#438=DIRECTION('',(0.,-1.,0.));
#439=DIRECTION('',(-1.,0.,0.));
#440=DIRECTION('',(0.,0.,1.));
#441=DIRECTION('',(1.,0.,0.));
#442=DIRECTION('',(0.,0.,-1.));
#443=DIRECTION('',(0.,0.,1.));
#444=DIRECTION('',(1.,0.,0.));
#445=DIRECTION('',(0.,0.,1.));
#446=DIRECTION('',(0.,0.,1.));
#447=DIRECTION('',(1.,0.,0.));
#448=DIRECTION('',(0.,-1.,0.));
#449=DIRECTION('',(0.,0.,-1.));
#450=DIRECTION('',(0.,0.,1.));
#451=DIRECTION('',(0.,-1.,0.));
#452=DIRECTION('',(0.,0.,1.));
#453=DIRECTION('',(0.,-1.,0.));
#454=DIRECTION('',(-1.,0.,0.));
#455=DIRECTION('',(0.,0.,1.));
#456=DIRECTION('',(-1.,0.,0.));
#457=DIRECTION('',(0.,0.,1.));
#458=DIRECTION('',(0.,0.,1.));
#459=DIRECTION('',(-1.,0.,0.));
#460=DIRECTION('',(0.,0.,-1.));
#461=DIRECTION('',(1.,0.,0.));
#462=DIRECTION('',(0.,0.,1.));
#463=DIRECTION('',(-1.,0.,0.));
#464=DIRECTION('',(0.,1.,0.));
#465=DIRECTION('',(0.,0.,1.));
#466=DIRECTION('',(0.,1.,0.));
#467=DIRECTION('',(0.,0.,-1.));
#468=DIRECTION('',(-1.,0.,0.));
#469=DIRECTION('',(0.,-0.707106781186547,0.707106781186548));
#470=DIRECTION('',(1.,0.,0.));
#471=DIRECTION('',(0.,0.,-1.));
#472=DIRECTION('',(0.,0.707106781186548,0.707106781186547));
#473=DIRECTION('',(0.,0.707106781186547,-0.707106781186548));
#474=DIRECTION('',(0.,0.707106781186547,-0.707106781186548));
#475=DIRECTION('',(0.,-0.707106781186548,-0.707106781186547));
#476=DIRECTION('',(1.,0.,0.));
#477=DIRECTION('',(0.,1.,0.));
#478=DIRECTION('',(-1.,0.,0.));
#479=DIRECTION('',(0.,0.,1.));
#480=DIRECTION('',(0.,-1.,0.));
#481=DIRECTION('',(0.,0.,-1.));
#482=DIRECTION('',(-1.,0.,0.));
#483=DIRECTION('',(1.,0.,0.));
#484=DIRECTION('',(0.,0.,-1.));
#485=DIRECTION('',(0.,0.,-1.));
#486=DIRECTION('',(-1.,0.,0.));
#487=DIRECTION('',(0.,-1.,0.));
#488=DIRECTION('',(0.,0.,-1.));
#489=DIRECTION('',(0.,0.,1.));
#490=DIRECTION('',(-1.,0.,0.));
#491=DIRECTION('',(0.,-1.,0.));
#492=DIRECTION('',(0.,0.,-1.));
#493=DIRECTION('',(-1.,0.,0.));
#494=DIRECTION('',(0.,0.,1.));
#495=DIRECTION('',(1.,0.,0.));
#496=DIRECTION('',(0.,0.,-1.));
#497=DIRECTION('',(0.,0.,1.));
#498=DIRECTION('',(0.999999999999997,0.,0.));
#499=DIRECTION('',(0.,0.,-1.));
#500=DIRECTION('',(0.999999999999997,0.,0.));
#501=DIRECTION('',(0.,0.,-1.));
#502=DIRECTION('',(-1.,0.,0.));
#503=DIRECTION('',(0.,0.,-1.));
#504=DIRECTION('',(0.999999999999997,0.,0.));
#505=DIRECTION('',(0.,0.,-1.));
#506=DIRECTION('',(1.,0.,0.));
#507=DIRECTION('',(0.,0.,-1.));
#508=DIRECTION('',(-1.,0.,0.));
#509=DIRECTION('',(0.,0.,-1.));
#510=DIRECTION('',(1.,0.,0.));
#511=CARTESIAN_POINT('',(0.,0.,0.));
#512=CARTESIAN_POINT('',(246.15,239.6,109.1));
#513=CARTESIAN_POINT('',(0.,239.6,109.1));
#514=CARTESIAN_POINT('',(127.9,239.6,109.1));
#515=CARTESIAN_POINT('',(0.,182.25,109.1));
#516=CARTESIAN_POINT('',(0.,0.,109.1));
#517=CARTESIAN_POINT('',(246.15,0.,109.1));
#518=CARTESIAN_POINT('',(182.5,0.,109.1));
#519=CARTESIAN_POINT('',(182.5,182.25,109.1));
#520=CARTESIAN_POINT('',(182.5,353.2,109.1));
#521=CARTESIAN_POINT('',(246.15,353.2,109.1));
#522=CARTESIAN_POINT('',(132.8,353.2,109.1));
#523=CARTESIAN_POINT('',(132.8,182.25,109.1));
#524=CARTESIAN_POINT('',(132.8,244.5,109.1));
#525=CARTESIAN_POINT('',(127.9,244.5,109.1));
#526=CARTESIAN_POINT('',(246.15,182.25,109.1));
#527=CARTESIAN_POINT('',(132.8,364.5,97.8));
#528=CARTESIAN_POINT('',(132.8,364.5,97.8));
#529=CARTESIAN_POINT('',(182.5,364.5,97.8));
#530=CARTESIAN_POINT('',(182.5,364.5,97.8));
#531=CARTESIAN_POINT('',(246.15,364.5,97.8));
#532=CARTESIAN_POINT('',(246.15,364.5,97.8));
#533=CARTESIAN_POINT('',(308.1,270.7,109.1));
#534=CARTESIAN_POINT('',(312.,270.7,109.1));
#535=CARTESIAN_POINT('',(480.,351.8,109.1));
#536=CARTESIAN_POINT('',(471.818924276111,353.2,109.1));
#537=CARTESIAN_POINT('',(488.181075723889,353.2,109.1));
#538=CARTESIAN_POINT('',(246.15,353.2,109.1));
#539=CARTESIAN_POINT('',(207.5,353.2,109.1));
#540=CARTESIAN_POINT('',(207.5,182.25,109.1));
#541=CARTESIAN_POINT('',(207.5,0.,109.1));
#542=CARTESIAN_POINT('',(246.15,0.,109.1));
#543=CARTESIAN_POINT('',(492.3,0.,109.1));
#544=CARTESIAN_POINT('',(492.3,182.25,109.1));
#545=CARTESIAN_POINT('',(492.3,353.2,109.1));
#546=CARTESIAN_POINT('',(246.15,353.2,109.1));
#547=CARTESIAN_POINT('',(246.15,182.25,109.1));
#548=CARTESIAN_POINT('',(182.5,0.,0.));
#549=CARTESIAN_POINT('',(182.5,0.,72.1));
#550=CARTESIAN_POINT('',(0.,0.,0.));
#551=CARTESIAN_POINT('',(0.,0.,0.));
#552=CARTESIAN_POINT('',(246.15,0.,0.));
#553=CARTESIAN_POINT('',(492.3,0.,0.));
#554=CARTESIAN_POINT('',(492.3,0.,0.));
#555=CARTESIAN_POINT('',(207.5,0.,0.));
#556=CARTESIAN_POINT('',(207.5,0.,72.1));
#557=CARTESIAN_POINT('',(246.15,0.,72.1));
#558=CARTESIAN_POINT('',(246.15,0.,0.));
#559=CARTESIAN_POINT('',(0.,239.6,83.2));
#560=CARTESIAN_POINT('',(0.,239.6,83.2));
#561=CARTESIAN_POINT('',(0.,302.05,83.2));
#562=CARTESIAN_POINT('',(0.,364.5,83.2));
#563=CARTESIAN_POINT('',(0.,364.5,0.));
#564=CARTESIAN_POINT('',(0.,364.5,0.));
#565=CARTESIAN_POINT('',(0.,182.25,0.));
#566=CARTESIAN_POINT('',(0.,182.25,0.));
#567=CARTESIAN_POINT('',(66.4,364.5,83.2));
#568=CARTESIAN_POINT('',(132.8,364.5,83.2));
#569=CARTESIAN_POINT('',(132.8,364.5,83.2));
#570=CARTESIAN_POINT('',(182.5,364.5,0.));
#571=CARTESIAN_POINT('',(182.5,364.5,72.1));
#572=CARTESIAN_POINT('',(246.15,364.5,72.1));
#573=CARTESIAN_POINT('',(207.5,364.5,72.1));
#574=CARTESIAN_POINT('',(207.5,364.5,0.));
#575=CARTESIAN_POINT('',(207.5,364.5,97.8));
#576=CARTESIAN_POINT('',(246.15,364.5,97.8));
#577=CARTESIAN_POINT('',(492.3,364.5,97.8));
#578=CARTESIAN_POINT('',(492.3,364.5,0.));
#579=CARTESIAN_POINT('',(492.3,364.5,0.));
#580=CARTESIAN_POINT('',(246.15,364.5,0.));
#581=CARTESIAN_POINT('',(246.15,364.5,0.));
#582=CARTESIAN_POINT('',(492.3,182.25,0.));
#583=CARTESIAN_POINT('',(246.15,182.25,0.));
#584=CARTESIAN_POINT('',(492.3,322.275,140.025));
#585=CARTESIAN_POINT('',(492.3,182.25,0.));
#586=CARTESIAN_POINT('',(480.,351.8,110.5));
#587=CARTESIAN_POINT('',(207.5,364.5,97.8));
#588=CARTESIAN_POINT('',(246.15,364.5,97.8));
#589=CARTESIAN_POINT('',(182.5,182.25,72.1));
#590=CARTESIAN_POINT('',(182.5,182.25,72.1));
#591=CARTESIAN_POINT('',(207.5,182.25,72.1));
#592=CARTESIAN_POINT('',(195.,182.25,72.1));
#593=CARTESIAN_POINT('',(207.5,182.25,72.1));
#594=CARTESIAN_POINT('',(127.9,239.6,83.2));
#595=CARTESIAN_POINT('',(127.9,239.6,83.2));
#596=CARTESIAN_POINT('',(66.4,239.6,83.2));
#597=CARTESIAN_POINT('',(66.4,239.6,83.2));
#598=CARTESIAN_POINT('',(127.9,244.5,83.2));
#599=CARTESIAN_POINT('',(132.8,244.5,83.2));
#600=CARTESIAN_POINT('',(132.8,302.05,83.2));
#601=CARTESIAN_POINT('',(66.4,302.05,83.2));
#602=CARTESIAN_POINT('',(132.8,244.5,109.1));
#603=CARTESIAN_POINT('',(132.8,302.05,83.2));
#604=CARTESIAN_POINT('',(127.9,244.5,83.2));
#605=CARTESIAN_POINT('',(480.,351.8,39.1));
#606=CARTESIAN_POINT('',(488.3,351.8,39.1));
#607=CARTESIAN_POINT('',(480.,351.8,39.1));
#608=CARTESIAN_POINT('',(480.,351.8,109.15));
#609=CARTESIAN_POINT('',(308.1,270.7,48.7));
#610=CARTESIAN_POINT('',(312.,270.7,48.7));
#611=CARTESIAN_POINT('',(308.1,270.7,48.7));
#612=CARTESIAN_POINT('',(308.1,270.7,109.15));
#613=MECHANICAL_DESIGN_GEOMETRIC_PRESENTATION_REPRESENTATION('',(#24),#614);
#614=(
GEOMETRIC_REPRESENTATION_CONTEXT(3)
GLOBAL_UNCERTAINTY_ASSIGNED_CONTEXT((#615))
GLOBAL_UNIT_ASSIGNED_CONTEXT((#621,#617,#616))
REPRESENTATION_CONTEXT('featured_part_01081','TOP_LEVEL_ASSEMBLY_PART')
);
#615=UNCERTAINTY_MEASURE_WITH_UNIT(LENGTH_MEASURE(2.E-5),#621,
'DISTANCE_ACCURACY_VALUE','Maximum Tolerance applied to model');
#616=(
NAMED_UNIT(*)
SI_UNIT($,.STERADIAN.)
SOLID_ANGLE_UNIT()
);
#617=(
CONVERSION_BASED_UNIT('DEGREE',#619)
NAMED_UNIT(#618)
PLANE_ANGLE_UNIT()
);
#618=DIMENSIONAL_EXPONENTS(0.,0.,0.,0.,0.,0.,0.);
#619=PLANE_ANGLE_MEASURE_WITH_UNIT(PLANE_ANGLE_MEASURE(0.0174532925),#620);
#620=(
NAMED_UNIT(*)
PLANE_ANGLE_UNIT()
SI_UNIT($,.RADIAN.)
);
#621=(
LENGTH_UNIT()
NAMED_UNIT(*)
SI_UNIT(.MILLI.,.METRE.)
);
ENDSEC;
END-ISO-10303-21;
