ISO-10303-21;
HEADER;
/* Generated by software containing ST-Developer
 * from STEP Tools, Inc. (www.steptools.com) 
 */
/* OPTION: using custom schema-name function */

FILE_DESCRIPTION(
/* description */ (''),
/* implementation_level */ '2;1');

FILE_NAME(
/* name */ 'featured_part_05931.stp',
/* time_stamp */ '2026-07-08T11:20:13-04:00',
/* author */ (''),
/* organization */ (''),
/* preprocessor_version */ 'ST-DEVELOPER v20.1',
/* originating_system */ 'SIEMENS PLM Software NX2512.6002',
/* authorisation */ '');

FILE_SCHEMA (('AUTOMOTIVE_DESIGN { 1 0 10303 214 3 1 1 1 }'));
ENDSEC;

DATA;
#10=SHAPE_REPRESENTATION_RELATIONSHIP('None',
'relationship between featured_part_05931-None and featured_part_05931
-None',#22,#11);
#11=ADVANCED_BREP_SHAPE_REPRESENTATION('featured_part_05931-None',(#32),
#1443);
#12=SHAPE_DEFINITION_REPRESENTATION(#13,#22);
#13=PRODUCT_DEFINITION_SHAPE('','',#14);
#14=PRODUCT_DEFINITION(' ','',#16,#15);
#15=PRODUCT_DEFINITION_CONTEXT('part definition',#21,'design');
#16=PRODUCT_DEFINITION_FORMATION_WITH_SPECIFIED_SOURCE(' ',' ',#18,
 .NOT_KNOWN.);
#17=PRODUCT_RELATED_PRODUCT_CATEGORY('part','',(#18));
#18=PRODUCT('featured_part_05931','featured_part_05931',' ',(#19));
#19=PRODUCT_CONTEXT(' ',#21,'mechanical');
#20=APPLICATION_PROTOCOL_DEFINITION('international standard',
'automotive_design',2010,#21);
#21=APPLICATION_CONTEXT(
'core data for automotive mechanical design processes');
#22=SHAPE_REPRESENTATION('featured_part_05931-None',(#863),#1443);
#23=PRESENTATION_LAYER_ASSIGNMENT('1','Layer 1',(#32));
#24=STYLED_ITEM('',(#25),#32);
#25=PRESENTATION_STYLE_ASSIGNMENT((#26));
#26=SURFACE_STYLE_USAGE(.BOTH.,#27);
#27=SURFACE_SIDE_STYLE('',(#28));
#28=SURFACE_STYLE_FILL_AREA(#29);
#29=FILL_AREA_STYLE('',(#30));
#30=FILL_AREA_STYLE_COLOUR('',#31);
#31=COLOUR_RGB('medium steel',0.611764705882353,0.658823529411765,0.670588235294118);
#32=MANIFOLD_SOLID_BREP('',#33);
#33=CLOSED_SHELL('',(#80,#81,#82,#83,#84,#85,#86,#87,#88,#89,#90,#91,#92,
#93,#94,#95,#96,#97,#98,#99,#100,#101,#102,#103,#104,#105,#106,#107,#108,
#109,#110,#111,#112,#113,#114,#115,#116,#117,#118,#119,#120,#121,#122,#123,
#124,#125,#126,#127));
#34=PLANE('',#880);
#35=PLANE('',#881);
#36=PLANE('',#882);
#37=PLANE('',#883);
#38=PLANE('',#884);
#39=PLANE('',#885);
#40=PLANE('',#886);
#41=PLANE('',#887);
#42=PLANE('',#888);
#43=PLANE('',#889);
#44=PLANE('',#892);
#45=PLANE('',#894);
#46=PLANE('',#895);
#47=PLANE('',#896);
#48=PLANE('',#901);
#49=PLANE('',#902);
#50=PLANE('',#907);
#51=PLANE('',#908);
#52=PLANE('',#909);
#53=PLANE('',#918);
#54=PLANE('',#919);
#55=PLANE('',#924);
#56=PLANE('',#925);
#57=PLANE('',#926);
#58=PLANE('',#927);
#59=PLANE('',#932);
#60=PLANE('',#938);
#61=PLANE('',#942);
#62=PLANE('',#944);
#63=PLANE('',#947);
#64=FACE_BOUND('',#189,.T.);
#65=FACE_BOUND('',#190,.T.);
#66=FACE_BOUND('',#191,.T.);
#67=FACE_BOUND('',#192,.T.);
#68=FACE_BOUND('',#193,.T.);
#69=FACE_BOUND('',#194,.T.);
#70=FACE_BOUND('',#218,.T.);
#71=FACE_BOUND('',#219,.T.);
#72=FACE_BOUND('',#235,.T.);
#73=FACE_BOUND('',#236,.T.);
#74=FACE_BOUND('',#237,.T.);
#75=FACE_BOUND('',#238,.T.);
#76=FACE_BOUND('',#241,.T.);
#77=FACE_BOUND('',#242,.T.);
#78=FACE_BOUND('',#244,.T.);
#79=FACE_BOUND('',#245,.T.);
#80=ADVANCED_FACE('',(#146),#128,.F.);
#81=ADVANCED_FACE('',(#64,#65,#66,#67,#68,#69),#34,.T.);
#82=ADVANCED_FACE('',(#147),#35,.T.);
#83=ADVANCED_FACE('',(#148),#36,.T.);
#84=ADVANCED_FACE('',(#149),#37,.T.);
#85=ADVANCED_FACE('',(#150),#38,.T.);
#86=ADVANCED_FACE('',(#151),#39,.T.);
#87=ADVANCED_FACE('',(#152),#40,.F.);
#88=ADVANCED_FACE('',(#153),#41,.F.);
#89=ADVANCED_FACE('',(#154),#42,.F.);
#90=ADVANCED_FACE('',(#155),#43,.F.);
#91=ADVANCED_FACE('',(#156),#44,.F.);
#92=ADVANCED_FACE('',(#157),#129,.F.);
#93=ADVANCED_FACE('',(#158),#45,.F.);
#94=ADVANCED_FACE('',(#159),#46,.F.);
#95=ADVANCED_FACE('',(#160),#47,.F.);
#96=ADVANCED_FACE('',(#161),#48,.F.);
#97=ADVANCED_FACE('',(#162),#49,.F.);
#98=ADVANCED_FACE('',(#163),#130,.F.);
#99=ADVANCED_FACE('',(#164),#131,.F.);
#100=ADVANCED_FACE('',(#165),#132,.F.);
#101=ADVANCED_FACE('',(#166),#133,.F.);
#102=ADVANCED_FACE('',(#167),#50,.F.);
#103=ADVANCED_FACE('',(#168),#51,.F.);
#104=ADVANCED_FACE('',(#169),#52,.F.);
#105=ADVANCED_FACE('',(#70,#71),#53,.F.);
#106=ADVANCED_FACE('',(#170),#54,.F.);
#107=ADVANCED_FACE('',(#171),#134,.F.);
#108=ADVANCED_FACE('',(#172),#135,.F.);
#109=ADVANCED_FACE('',(#173),#136,.F.);
#110=ADVANCED_FACE('',(#174),#137,.F.);
#111=ADVANCED_FACE('',(#175),#55,.F.);
#112=ADVANCED_FACE('',(#176),#56,.F.);
#113=ADVANCED_FACE('',(#177),#57,.F.);
#114=ADVANCED_FACE('',(#178),#58,.F.);
#115=ADVANCED_FACE('',(#179),#59,.F.);
#116=ADVANCED_FACE('',(#180),#138,.F.);
#117=ADVANCED_FACE('',(#181),#139,.F.);
#118=ADVANCED_FACE('',(#182),#140,.F.);
#119=ADVANCED_FACE('',(#183),#141,.F.);
#120=ADVANCED_FACE('',(#184),#60,.F.);
#121=ADVANCED_FACE('',(#72,#73),#142,.F.);
#122=ADVANCED_FACE('',(#74,#75),#143,.F.);
#123=ADVANCED_FACE('',(#185),#61,.F.);
#124=ADVANCED_FACE('',(#186),#62,.F.);
#125=ADVANCED_FACE('',(#76,#77),#144,.F.);
#126=ADVANCED_FACE('',(#187),#63,.F.);
#127=ADVANCED_FACE('',(#78,#79),#145,.F.);
#128=CYLINDRICAL_SURFACE('',#866,8.9);
#129=CYLINDRICAL_SURFACE('',#893,8.9);
#130=CYLINDRICAL_SURFACE('',#903,15.);
#131=CYLINDRICAL_SURFACE('',#904,15.);
#132=CYLINDRICAL_SURFACE('',#905,15.);
#133=CYLINDRICAL_SURFACE('',#906,15.);
#134=CYLINDRICAL_SURFACE('',#920,9.);
#135=CYLINDRICAL_SURFACE('',#921,9.);
#136=CYLINDRICAL_SURFACE('',#922,9.);
#137=CYLINDRICAL_SURFACE('',#923,9.);
#138=CYLINDRICAL_SURFACE('',#933,9.4);
#139=CYLINDRICAL_SURFACE('',#934,9.4);
#140=CYLINDRICAL_SURFACE('',#935,9.4);
#141=CYLINDRICAL_SURFACE('',#936,9.4);
#142=CYLINDRICAL_SURFACE('',#939,6.2);
#143=CYLINDRICAL_SURFACE('',#941,6.2);
#144=CYLINDRICAL_SURFACE('',#945,6.2);
#145=CYLINDRICAL_SURFACE('',#948,6.2);
#146=FACE_OUTER_BOUND('',#188,.T.);
#147=FACE_OUTER_BOUND('',#195,.T.);
#148=FACE_OUTER_BOUND('',#196,.T.);
#149=FACE_OUTER_BOUND('',#197,.T.);
#150=FACE_OUTER_BOUND('',#198,.T.);
#151=FACE_OUTER_BOUND('',#199,.T.);
#152=FACE_OUTER_BOUND('',#200,.T.);
#153=FACE_OUTER_BOUND('',#201,.T.);
#154=FACE_OUTER_BOUND('',#202,.T.);
#155=FACE_OUTER_BOUND('',#203,.T.);
#156=FACE_OUTER_BOUND('',#204,.T.);
#157=FACE_OUTER_BOUND('',#205,.T.);
#158=FACE_OUTER_BOUND('',#206,.T.);
#159=FACE_OUTER_BOUND('',#207,.T.);
#160=FACE_OUTER_BOUND('',#208,.T.);
#161=FACE_OUTER_BOUND('',#209,.T.);
#162=FACE_OUTER_BOUND('',#210,.T.);
#163=FACE_OUTER_BOUND('',#211,.T.);
#164=FACE_OUTER_BOUND('',#212,.T.);
#165=FACE_OUTER_BOUND('',#213,.T.);
#166=FACE_OUTER_BOUND('',#214,.T.);
#167=FACE_OUTER_BOUND('',#215,.T.);
#168=FACE_OUTER_BOUND('',#216,.T.);
#169=FACE_OUTER_BOUND('',#217,.T.);
#170=FACE_OUTER_BOUND('',#220,.T.);
#171=FACE_OUTER_BOUND('',#221,.T.);
#172=FACE_OUTER_BOUND('',#222,.T.);
#173=FACE_OUTER_BOUND('',#223,.T.);
#174=FACE_OUTER_BOUND('',#224,.T.);
#175=FACE_OUTER_BOUND('',#225,.T.);
#176=FACE_OUTER_BOUND('',#226,.T.);
#177=FACE_OUTER_BOUND('',#227,.T.);
#178=FACE_OUTER_BOUND('',#228,.T.);
#179=FACE_OUTER_BOUND('',#229,.T.);
#180=FACE_OUTER_BOUND('',#230,.T.);
#181=FACE_OUTER_BOUND('',#231,.T.);
#182=FACE_OUTER_BOUND('',#232,.T.);
#183=FACE_OUTER_BOUND('',#233,.T.);
#184=FACE_OUTER_BOUND('',#234,.T.);
#185=FACE_OUTER_BOUND('',#239,.T.);
#186=FACE_OUTER_BOUND('',#240,.T.);
#187=FACE_OUTER_BOUND('',#243,.T.);
#188=EDGE_LOOP('',(#402,#403,#404,#405));
#189=EDGE_LOOP('',(#406));
#190=EDGE_LOOP('',(#407));
#191=EDGE_LOOP('',(#408,#409,#410,#411,#412,#413,#414,#415,#416));
#192=EDGE_LOOP('',(#417));
#193=EDGE_LOOP('',(#418,#419,#420,#421,#422,#423,#424,#425));
#194=EDGE_LOOP('',(#426,#427,#428,#429,#430,#431,#432,#433));
#195=EDGE_LOOP('',(#434,#435,#436,#437,#438,#439,#440));
#196=EDGE_LOOP('',(#441,#442,#443,#444,#445));
#197=EDGE_LOOP('',(#446,#447,#448,#449));
#198=EDGE_LOOP('',(#450,#451,#452,#453));
#199=EDGE_LOOP('',(#454,#455,#456,#457,#458,#459,#460));
#200=EDGE_LOOP('',(#461,#462,#463,#464,#465));
#201=EDGE_LOOP('',(#466,#467,#468,#469));
#202=EDGE_LOOP('',(#470,#471,#472,#473));
#203=EDGE_LOOP('',(#474,#475,#476,#477));
#204=EDGE_LOOP('',(#478,#479,#480,#481,#482,#483,#484));
#205=EDGE_LOOP('',(#485,#486,#487,#488));
#206=EDGE_LOOP('',(#489,#490,#491,#492));
#207=EDGE_LOOP('',(#493,#494,#495,#496));
#208=EDGE_LOOP('',(#497,#498,#499,#500));
#209=EDGE_LOOP('',(#501,#502,#503,#504,#505,#506,#507,#508));
#210=EDGE_LOOP('',(#509,#510,#511,#512));
#211=EDGE_LOOP('',(#513,#514,#515,#516));
#212=EDGE_LOOP('',(#517,#518,#519,#520));
#213=EDGE_LOOP('',(#521,#522,#523,#524));
#214=EDGE_LOOP('',(#525,#526,#527,#528));
#215=EDGE_LOOP('',(#529,#530,#531,#532));
#216=EDGE_LOOP('',(#533,#534,#535,#536));
#217=EDGE_LOOP('',(#537,#538,#539,#540));
#218=EDGE_LOOP('',(#541,#542,#543,#544,#545,#546,#547,#548));
#219=EDGE_LOOP('',(#549,#550,#551,#552,#553,#554,#555,#556));
#220=EDGE_LOOP('',(#557,#558,#559,#560));
#221=EDGE_LOOP('',(#561,#562,#563,#564));
#222=EDGE_LOOP('',(#565,#566,#567,#568));
#223=EDGE_LOOP('',(#569,#570,#571,#572));
#224=EDGE_LOOP('',(#573,#574,#575,#576));
#225=EDGE_LOOP('',(#577,#578,#579,#580));
#226=EDGE_LOOP('',(#581,#582,#583,#584));
#227=EDGE_LOOP('',(#585,#586,#587,#588));
#228=EDGE_LOOP('',(#589,#590,#591,#592));
#229=EDGE_LOOP('',(#593,#594,#595,#596,#597,#598,#599,#600));
#230=EDGE_LOOP('',(#601,#602,#603,#604));
#231=EDGE_LOOP('',(#605,#606,#607,#608));
#232=EDGE_LOOP('',(#609,#610,#611,#612));
#233=EDGE_LOOP('',(#613,#614,#615,#616));
#234=EDGE_LOOP('',(#617));
#235=EDGE_LOOP('',(#618));
#236=EDGE_LOOP('',(#619));
#237=EDGE_LOOP('',(#620));
#238=EDGE_LOOP('',(#621,#622,#623,#624));
#239=EDGE_LOOP('',(#625));
#240=EDGE_LOOP('',(#626));
#241=EDGE_LOOP('',(#627));
#242=EDGE_LOOP('',(#628));
#243=EDGE_LOOP('',(#629));
#244=EDGE_LOOP('',(#630));
#245=EDGE_LOOP('',(#631));
#246=LINE('',#1203,#324);
#247=LINE('',#1207,#325);
#248=LINE('',#1217,#326);
#249=LINE('',#1219,#327);
#250=LINE('',#1221,#328);
#251=LINE('',#1223,#329);
#252=LINE('',#1225,#330);
#253=LINE('',#1227,#331);
#254=LINE('',#1230,#332);
#255=LINE('',#1235,#333);
#256=LINE('',#1239,#334);
#257=LINE('',#1243,#335);
#258=LINE('',#1246,#336);
#259=LINE('',#1251,#337);
#260=LINE('',#1255,#338);
#261=LINE('',#1259,#339);
#262=LINE('',#1263,#340);
#263=LINE('',#1265,#341);
#264=LINE('',#1267,#342);
#265=LINE('',#1269,#343);
#266=LINE('',#1271,#344);
#267=LINE('',#1273,#345);
#268=LINE('',#1275,#346);
#269=LINE('',#1277,#347);
#270=LINE('',#1279,#348);
#271=LINE('',#1281,#349);
#272=LINE('',#1283,#350);
#273=LINE('',#1285,#351);
#274=LINE('',#1287,#352);
#275=LINE('',#1289,#353);
#276=LINE('',#1291,#354);
#277=LINE('',#1293,#355);
#278=LINE('',#1294,#356);
#279=LINE('',#1296,#357);
#280=LINE('',#1299,#358);
#281=LINE('',#1301,#359);
#282=LINE('',#1303,#360);
#283=LINE('',#1309,#361);
#284=LINE('',#1311,#362);
#285=LINE('',#1313,#363);
#286=LINE('',#1315,#364);
#287=LINE('',#1317,#365);
#288=LINE('',#1320,#366);
#289=LINE('',#1321,#367);
#290=LINE('',#1323,#368);
#291=LINE('',#1325,#369);
#292=LINE('',#1327,#370);
#293=LINE('',#1331,#371);
#294=LINE('',#1337,#372);
#295=LINE('',#1338,#373);
#296=LINE('',#1344,#374);
#297=LINE('',#1346,#375);
#298=LINE('',#1348,#376);
#299=LINE('',#1350,#377);
#300=LINE('',#1352,#378);
#301=LINE('',#1354,#379);
#302=LINE('',#1356,#380);
#303=LINE('',#1358,#381);
#304=LINE('',#1360,#382);
#305=LINE('',#1362,#383);
#306=LINE('',#1367,#384);
#307=LINE('',#1371,#385);
#308=LINE('',#1375,#386);
#309=LINE('',#1380,#387);
#310=LINE('',#1386,#388);
#311=LINE('',#1387,#389);
#312=LINE('',#1393,#390);
#313=LINE('',#1396,#391);
#314=LINE('',#1397,#392);
#315=LINE('',#1399,#393);
#316=LINE('',#1401,#394);
#317=LINE('',#1403,#395);
#318=LINE('',#1405,#396);
#319=LINE('',#1407,#397);
#320=LINE('',#1409,#398);
#321=LINE('',#1411,#399);
#322=LINE('',#1414,#400);
#323=LINE('',#1415,#401);
#324=VECTOR('',#953,1.);
#325=VECTOR('',#956,1.);
#326=VECTOR('',#967,1.);
#327=VECTOR('',#968,1.);
#328=VECTOR('',#969,1.);
#329=VECTOR('',#970,1.);
#330=VECTOR('',#971,1.);
#331=VECTOR('',#972,1.);
#332=VECTOR('',#975,1.);
#333=VECTOR('',#978,1.);
#334=VECTOR('',#981,1.);
#335=VECTOR('',#984,1.);
#336=VECTOR('',#987,1.);
#337=VECTOR('',#990,1.);
#338=VECTOR('',#993,1.);
#339=VECTOR('',#996,1.);
#340=VECTOR('',#1001,1.);
#341=VECTOR('',#1002,1.);
#342=VECTOR('',#1003,1.);
#343=VECTOR('',#1004,1.);
#344=VECTOR('',#1005,1.);
#345=VECTOR('',#1006,1.);
#346=VECTOR('',#1009,1.);
#347=VECTOR('',#1010,1.);
#348=VECTOR('',#1011,1.);
#349=VECTOR('',#1012,1.);
#350=VECTOR('',#1015,1.);
#351=VECTOR('',#1016,1.);
#352=VECTOR('',#1017,1.);
#353=VECTOR('',#1020,1.);
#354=VECTOR('',#1023,1.);
#355=VECTOR('',#1024,1.);
#356=VECTOR('',#1025,1.);
#357=VECTOR('',#1028,1.);
#358=VECTOR('',#1033,1.);
#359=VECTOR('',#1036,1.);
#360=VECTOR('',#1037,1.);
#361=VECTOR('',#1046,1.);
#362=VECTOR('',#1049,1.);
#363=VECTOR('',#1050,1.);
#364=VECTOR('',#1051,1.);
#365=VECTOR('',#1054,1.);
#366=VECTOR('',#1055,1.);
#367=VECTOR('',#1056,1.);
#368=VECTOR('',#1059,1.);
#369=VECTOR('',#1060,1.);
#370=VECTOR('',#1061,1.);
#371=VECTOR('',#1066,1.);
#372=VECTOR('',#1075,1.);
#373=VECTOR('',#1076,1.);
#374=VECTOR('',#1087,1.);
#375=VECTOR('',#1088,1.);
#376=VECTOR('',#1089,1.);
#377=VECTOR('',#1092,1.);
#378=VECTOR('',#1093,1.);
#379=VECTOR('',#1094,1.);
#380=VECTOR('',#1097,1.);
#381=VECTOR('',#1098,1.);
#382=VECTOR('',#1099,1.);
#383=VECTOR('',#1102,1.);
#384=VECTOR('',#1105,1.);
#385=VECTOR('',#1108,1.);
#386=VECTOR('',#1111,1.);
#387=VECTOR('',#1116,1.);
#388=VECTOR('',#1125,1.);
#389=VECTOR('',#1126,1.);
#390=VECTOR('',#1137,1.);
#391=VECTOR('',#1138,1.);
#392=VECTOR('',#1139,1.);
#393=VECTOR('',#1142,1.);
#394=VECTOR('',#1143,1.);
#395=VECTOR('',#1144,1.);
#396=VECTOR('',#1147,1.);
#397=VECTOR('',#1148,1.);
#398=VECTOR('',#1149,1.);
#399=VECTOR('',#1152,1.);
#400=VECTOR('',#1153,1.);
#401=VECTOR('',#1154,1.);
#402=ORIENTED_EDGE('',*,*,#711,.F.);
#403=ORIENTED_EDGE('',*,*,#712,.T.);
#404=ORIENTED_EDGE('',*,*,#713,.F.);
#405=ORIENTED_EDGE('',*,*,#714,.F.);
#406=ORIENTED_EDGE('',*,*,#715,.F.);
#407=ORIENTED_EDGE('',*,*,#716,.F.);
#408=ORIENTED_EDGE('',*,*,#717,.F.);
#409=ORIENTED_EDGE('',*,*,#718,.T.);
#410=ORIENTED_EDGE('',*,*,#719,.F.);
#411=ORIENTED_EDGE('',*,*,#720,.F.);
#412=ORIENTED_EDGE('',*,*,#721,.T.);
#413=ORIENTED_EDGE('',*,*,#722,.T.);
#414=ORIENTED_EDGE('',*,*,#723,.F.);
#415=ORIENTED_EDGE('',*,*,#724,.F.);
#416=ORIENTED_EDGE('',*,*,#713,.T.);
#417=ORIENTED_EDGE('',*,*,#725,.F.);
#418=ORIENTED_EDGE('',*,*,#726,.F.);
#419=ORIENTED_EDGE('',*,*,#727,.T.);
#420=ORIENTED_EDGE('',*,*,#728,.F.);
#421=ORIENTED_EDGE('',*,*,#729,.T.);
#422=ORIENTED_EDGE('',*,*,#730,.F.);
#423=ORIENTED_EDGE('',*,*,#731,.T.);
#424=ORIENTED_EDGE('',*,*,#732,.F.);
#425=ORIENTED_EDGE('',*,*,#733,.T.);
#426=ORIENTED_EDGE('',*,*,#734,.F.);
#427=ORIENTED_EDGE('',*,*,#735,.T.);
#428=ORIENTED_EDGE('',*,*,#736,.F.);
#429=ORIENTED_EDGE('',*,*,#737,.T.);
#430=ORIENTED_EDGE('',*,*,#738,.F.);
#431=ORIENTED_EDGE('',*,*,#739,.T.);
#432=ORIENTED_EDGE('',*,*,#740,.F.);
#433=ORIENTED_EDGE('',*,*,#741,.T.);
#434=ORIENTED_EDGE('',*,*,#742,.T.);
#435=ORIENTED_EDGE('',*,*,#723,.T.);
#436=ORIENTED_EDGE('',*,*,#743,.T.);
#437=ORIENTED_EDGE('',*,*,#744,.F.);
#438=ORIENTED_EDGE('',*,*,#745,.T.);
#439=ORIENTED_EDGE('',*,*,#746,.T.);
#440=ORIENTED_EDGE('',*,*,#747,.F.);
#441=ORIENTED_EDGE('',*,*,#744,.T.);
#442=ORIENTED_EDGE('',*,*,#748,.T.);
#443=ORIENTED_EDGE('',*,*,#749,.T.);
#444=ORIENTED_EDGE('',*,*,#750,.F.);
#445=ORIENTED_EDGE('',*,*,#751,.T.);
#446=ORIENTED_EDGE('',*,*,#750,.T.);
#447=ORIENTED_EDGE('',*,*,#752,.T.);
#448=ORIENTED_EDGE('',*,*,#753,.F.);
#449=ORIENTED_EDGE('',*,*,#754,.T.);
#450=ORIENTED_EDGE('',*,*,#755,.F.);
#451=ORIENTED_EDGE('',*,*,#745,.F.);
#452=ORIENTED_EDGE('',*,*,#751,.F.);
#453=ORIENTED_EDGE('',*,*,#754,.F.);
#454=ORIENTED_EDGE('',*,*,#756,.F.);
#455=ORIENTED_EDGE('',*,*,#757,.F.);
#456=ORIENTED_EDGE('',*,*,#746,.F.);
#457=ORIENTED_EDGE('',*,*,#755,.T.);
#458=ORIENTED_EDGE('',*,*,#753,.T.);
#459=ORIENTED_EDGE('',*,*,#758,.T.);
#460=ORIENTED_EDGE('',*,*,#720,.T.);
#461=ORIENTED_EDGE('',*,*,#749,.F.);
#462=ORIENTED_EDGE('',*,*,#759,.T.);
#463=ORIENTED_EDGE('',*,*,#721,.F.);
#464=ORIENTED_EDGE('',*,*,#758,.F.);
#465=ORIENTED_EDGE('',*,*,#752,.F.);
#466=ORIENTED_EDGE('',*,*,#743,.F.);
#467=ORIENTED_EDGE('',*,*,#722,.F.);
#468=ORIENTED_EDGE('',*,*,#759,.F.);
#469=ORIENTED_EDGE('',*,*,#748,.F.);
#470=ORIENTED_EDGE('',*,*,#760,.T.);
#471=ORIENTED_EDGE('',*,*,#714,.T.);
#472=ORIENTED_EDGE('',*,*,#724,.T.);
#473=ORIENTED_EDGE('',*,*,#742,.F.);
#474=ORIENTED_EDGE('',*,*,#719,.T.);
#475=ORIENTED_EDGE('',*,*,#761,.T.);
#476=ORIENTED_EDGE('',*,*,#762,.T.);
#477=ORIENTED_EDGE('',*,*,#756,.T.);
#478=ORIENTED_EDGE('',*,*,#763,.T.);
#479=ORIENTED_EDGE('',*,*,#764,.T.);
#480=ORIENTED_EDGE('',*,*,#711,.T.);
#481=ORIENTED_EDGE('',*,*,#760,.F.);
#482=ORIENTED_EDGE('',*,*,#747,.T.);
#483=ORIENTED_EDGE('',*,*,#757,.T.);
#484=ORIENTED_EDGE('',*,*,#762,.F.);
#485=ORIENTED_EDGE('',*,*,#718,.F.);
#486=ORIENTED_EDGE('',*,*,#765,.T.);
#487=ORIENTED_EDGE('',*,*,#763,.F.);
#488=ORIENTED_EDGE('',*,*,#761,.F.);
#489=ORIENTED_EDGE('',*,*,#734,.T.);
#490=ORIENTED_EDGE('',*,*,#766,.T.);
#491=ORIENTED_EDGE('',*,*,#767,.T.);
#492=ORIENTED_EDGE('',*,*,#768,.T.);
#493=ORIENTED_EDGE('',*,*,#769,.T.);
#494=ORIENTED_EDGE('',*,*,#770,.T.);
#495=ORIENTED_EDGE('',*,*,#736,.T.);
#496=ORIENTED_EDGE('',*,*,#771,.T.);
#497=ORIENTED_EDGE('',*,*,#738,.T.);
#498=ORIENTED_EDGE('',*,*,#772,.T.);
#499=ORIENTED_EDGE('',*,*,#773,.T.);
#500=ORIENTED_EDGE('',*,*,#774,.T.);
#501=ORIENTED_EDGE('',*,*,#767,.F.);
#502=ORIENTED_EDGE('',*,*,#775,.T.);
#503=ORIENTED_EDGE('',*,*,#776,.F.);
#504=ORIENTED_EDGE('',*,*,#777,.T.);
#505=ORIENTED_EDGE('',*,*,#773,.F.);
#506=ORIENTED_EDGE('',*,*,#778,.T.);
#507=ORIENTED_EDGE('',*,*,#769,.F.);
#508=ORIENTED_EDGE('',*,*,#779,.T.);
#509=ORIENTED_EDGE('',*,*,#776,.T.);
#510=ORIENTED_EDGE('',*,*,#780,.T.);
#511=ORIENTED_EDGE('',*,*,#740,.T.);
#512=ORIENTED_EDGE('',*,*,#781,.T.);
#513=ORIENTED_EDGE('',*,*,#741,.F.);
#514=ORIENTED_EDGE('',*,*,#780,.F.);
#515=ORIENTED_EDGE('',*,*,#775,.F.);
#516=ORIENTED_EDGE('',*,*,#766,.F.);
#517=ORIENTED_EDGE('',*,*,#737,.F.);
#518=ORIENTED_EDGE('',*,*,#770,.F.);
#519=ORIENTED_EDGE('',*,*,#778,.F.);
#520=ORIENTED_EDGE('',*,*,#772,.F.);
#521=ORIENTED_EDGE('',*,*,#735,.F.);
#522=ORIENTED_EDGE('',*,*,#768,.F.);
#523=ORIENTED_EDGE('',*,*,#779,.F.);
#524=ORIENTED_EDGE('',*,*,#771,.F.);
#525=ORIENTED_EDGE('',*,*,#739,.F.);
#526=ORIENTED_EDGE('',*,*,#774,.F.);
#527=ORIENTED_EDGE('',*,*,#777,.F.);
#528=ORIENTED_EDGE('',*,*,#781,.F.);
#529=ORIENTED_EDGE('',*,*,#726,.T.);
#530=ORIENTED_EDGE('',*,*,#782,.T.);
#531=ORIENTED_EDGE('',*,*,#783,.T.);
#532=ORIENTED_EDGE('',*,*,#784,.T.);
#533=ORIENTED_EDGE('',*,*,#728,.T.);
#534=ORIENTED_EDGE('',*,*,#785,.T.);
#535=ORIENTED_EDGE('',*,*,#786,.T.);
#536=ORIENTED_EDGE('',*,*,#787,.T.);
#537=ORIENTED_EDGE('',*,*,#730,.T.);
#538=ORIENTED_EDGE('',*,*,#788,.T.);
#539=ORIENTED_EDGE('',*,*,#789,.T.);
#540=ORIENTED_EDGE('',*,*,#790,.T.);
#541=ORIENTED_EDGE('',*,*,#791,.T.);
#542=ORIENTED_EDGE('',*,*,#792,.T.);
#543=ORIENTED_EDGE('',*,*,#793,.T.);
#544=ORIENTED_EDGE('',*,*,#794,.T.);
#545=ORIENTED_EDGE('',*,*,#795,.T.);
#546=ORIENTED_EDGE('',*,*,#796,.T.);
#547=ORIENTED_EDGE('',*,*,#797,.T.);
#548=ORIENTED_EDGE('',*,*,#798,.T.);
#549=ORIENTED_EDGE('',*,*,#783,.F.);
#550=ORIENTED_EDGE('',*,*,#799,.T.);
#551=ORIENTED_EDGE('',*,*,#800,.F.);
#552=ORIENTED_EDGE('',*,*,#801,.T.);
#553=ORIENTED_EDGE('',*,*,#789,.F.);
#554=ORIENTED_EDGE('',*,*,#802,.T.);
#555=ORIENTED_EDGE('',*,*,#786,.F.);
#556=ORIENTED_EDGE('',*,*,#803,.T.);
#557=ORIENTED_EDGE('',*,*,#800,.T.);
#558=ORIENTED_EDGE('',*,*,#804,.T.);
#559=ORIENTED_EDGE('',*,*,#732,.T.);
#560=ORIENTED_EDGE('',*,*,#805,.T.);
#561=ORIENTED_EDGE('',*,*,#733,.F.);
#562=ORIENTED_EDGE('',*,*,#804,.F.);
#563=ORIENTED_EDGE('',*,*,#799,.F.);
#564=ORIENTED_EDGE('',*,*,#782,.F.);
#565=ORIENTED_EDGE('',*,*,#727,.F.);
#566=ORIENTED_EDGE('',*,*,#784,.F.);
#567=ORIENTED_EDGE('',*,*,#803,.F.);
#568=ORIENTED_EDGE('',*,*,#785,.F.);
#569=ORIENTED_EDGE('',*,*,#729,.F.);
#570=ORIENTED_EDGE('',*,*,#787,.F.);
#571=ORIENTED_EDGE('',*,*,#802,.F.);
#572=ORIENTED_EDGE('',*,*,#788,.F.);
#573=ORIENTED_EDGE('',*,*,#731,.F.);
#574=ORIENTED_EDGE('',*,*,#790,.F.);
#575=ORIENTED_EDGE('',*,*,#801,.F.);
#576=ORIENTED_EDGE('',*,*,#805,.F.);
#577=ORIENTED_EDGE('',*,*,#806,.T.);
#578=ORIENTED_EDGE('',*,*,#807,.T.);
#579=ORIENTED_EDGE('',*,*,#795,.F.);
#580=ORIENTED_EDGE('',*,*,#808,.T.);
#581=ORIENTED_EDGE('',*,*,#797,.F.);
#582=ORIENTED_EDGE('',*,*,#809,.T.);
#583=ORIENTED_EDGE('',*,*,#810,.T.);
#584=ORIENTED_EDGE('',*,*,#811,.T.);
#585=ORIENTED_EDGE('',*,*,#791,.F.);
#586=ORIENTED_EDGE('',*,*,#812,.T.);
#587=ORIENTED_EDGE('',*,*,#813,.T.);
#588=ORIENTED_EDGE('',*,*,#814,.T.);
#589=ORIENTED_EDGE('',*,*,#815,.T.);
#590=ORIENTED_EDGE('',*,*,#816,.T.);
#591=ORIENTED_EDGE('',*,*,#793,.F.);
#592=ORIENTED_EDGE('',*,*,#817,.T.);
#593=ORIENTED_EDGE('',*,*,#810,.F.);
#594=ORIENTED_EDGE('',*,*,#818,.T.);
#595=ORIENTED_EDGE('',*,*,#806,.F.);
#596=ORIENTED_EDGE('',*,*,#819,.T.);
#597=ORIENTED_EDGE('',*,*,#815,.F.);
#598=ORIENTED_EDGE('',*,*,#820,.T.);
#599=ORIENTED_EDGE('',*,*,#813,.F.);
#600=ORIENTED_EDGE('',*,*,#821,.T.);
#601=ORIENTED_EDGE('',*,*,#796,.F.);
#602=ORIENTED_EDGE('',*,*,#807,.F.);
#603=ORIENTED_EDGE('',*,*,#818,.F.);
#604=ORIENTED_EDGE('',*,*,#809,.F.);
#605=ORIENTED_EDGE('',*,*,#798,.F.);
#606=ORIENTED_EDGE('',*,*,#811,.F.);
#607=ORIENTED_EDGE('',*,*,#821,.F.);
#608=ORIENTED_EDGE('',*,*,#812,.F.);
#609=ORIENTED_EDGE('',*,*,#794,.F.);
#610=ORIENTED_EDGE('',*,*,#816,.F.);
#611=ORIENTED_EDGE('',*,*,#819,.F.);
#612=ORIENTED_EDGE('',*,*,#808,.F.);
#613=ORIENTED_EDGE('',*,*,#792,.F.);
#614=ORIENTED_EDGE('',*,*,#814,.F.);
#615=ORIENTED_EDGE('',*,*,#820,.F.);
#616=ORIENTED_EDGE('',*,*,#817,.F.);
#617=ORIENTED_EDGE('',*,*,#822,.F.);
#618=ORIENTED_EDGE('',*,*,#725,.T.);
#619=ORIENTED_EDGE('',*,*,#822,.T.);
#620=ORIENTED_EDGE('',*,*,#823,.T.);
#621=ORIENTED_EDGE('',*,*,#764,.F.);
#622=ORIENTED_EDGE('',*,*,#765,.F.);
#623=ORIENTED_EDGE('',*,*,#717,.T.);
#624=ORIENTED_EDGE('',*,*,#712,.F.);
#625=ORIENTED_EDGE('',*,*,#823,.F.);
#626=ORIENTED_EDGE('',*,*,#824,.F.);
#627=ORIENTED_EDGE('',*,*,#716,.T.);
#628=ORIENTED_EDGE('',*,*,#824,.T.);
#629=ORIENTED_EDGE('',*,*,#825,.F.);
#630=ORIENTED_EDGE('',*,*,#715,.T.);
#631=ORIENTED_EDGE('',*,*,#825,.T.);
#632=VERTEX_POINT('',#1201);
#633=VERTEX_POINT('',#1202);
#634=VERTEX_POINT('',#1204);
#635=VERTEX_POINT('',#1206);
#636=VERTEX_POINT('',#1210);
#637=VERTEX_POINT('',#1212);
#638=VERTEX_POINT('',#1214);
#639=VERTEX_POINT('',#1216);
#640=VERTEX_POINT('',#1218);
#641=VERTEX_POINT('',#1220);
#642=VERTEX_POINT('',#1222);
#643=VERTEX_POINT('',#1224);
#644=VERTEX_POINT('',#1226);
#645=VERTEX_POINT('',#1229);
#646=VERTEX_POINT('',#1231);
#647=VERTEX_POINT('',#1232);
#648=VERTEX_POINT('',#1234);
#649=VERTEX_POINT('',#1236);
#650=VERTEX_POINT('',#1238);
#651=VERTEX_POINT('',#1240);
#652=VERTEX_POINT('',#1242);
#653=VERTEX_POINT('',#1244);
#654=VERTEX_POINT('',#1247);
#655=VERTEX_POINT('',#1248);
#656=VERTEX_POINT('',#1250);
#657=VERTEX_POINT('',#1252);
#658=VERTEX_POINT('',#1254);
#659=VERTEX_POINT('',#1256);
#660=VERTEX_POINT('',#1258);
#661=VERTEX_POINT('',#1260);
#662=VERTEX_POINT('',#1264);
#663=VERTEX_POINT('',#1266);
#664=VERTEX_POINT('',#1268);
#665=VERTEX_POINT('',#1270);
#666=VERTEX_POINT('',#1272);
#667=VERTEX_POINT('',#1276);
#668=VERTEX_POINT('',#1278);
#669=VERTEX_POINT('',#1280);
#670=VERTEX_POINT('',#1284);
#671=VERTEX_POINT('',#1286);
#672=VERTEX_POINT('',#1292);
#673=VERTEX_POINT('',#1302);
#674=VERTEX_POINT('',#1306);
#675=VERTEX_POINT('',#1312);
#676=VERTEX_POINT('',#1314);
#677=VERTEX_POINT('',#1318);
#678=VERTEX_POINT('',#1319);
#679=VERTEX_POINT('',#1324);
#680=VERTEX_POINT('',#1326);
#681=VERTEX_POINT('',#1330);
#682=VERTEX_POINT('',#1332);
#683=VERTEX_POINT('',#1345);
#684=VERTEX_POINT('',#1347);
#685=VERTEX_POINT('',#1351);
#686=VERTEX_POINT('',#1353);
#687=VERTEX_POINT('',#1357);
#688=VERTEX_POINT('',#1359);
#689=VERTEX_POINT('',#1363);
#690=VERTEX_POINT('',#1364);
#691=VERTEX_POINT('',#1366);
#692=VERTEX_POINT('',#1368);
#693=VERTEX_POINT('',#1370);
#694=VERTEX_POINT('',#1372);
#695=VERTEX_POINT('',#1374);
#696=VERTEX_POINT('',#1376);
#697=VERTEX_POINT('',#1379);
#698=VERTEX_POINT('',#1381);
#699=VERTEX_POINT('',#1394);
#700=VERTEX_POINT('',#1395);
#701=VERTEX_POINT('',#1400);
#702=VERTEX_POINT('',#1402);
#703=VERTEX_POINT('',#1406);
#704=VERTEX_POINT('',#1408);
#705=VERTEX_POINT('',#1412);
#706=VERTEX_POINT('',#1413);
#707=VERTEX_POINT('',#1427);
#708=VERTEX_POINT('',#1431);
#709=VERTEX_POINT('',#1435);
#710=VERTEX_POINT('',#1439);
#711=EDGE_CURVE('',#632,#633,#826,.T.);
#712=EDGE_CURVE('',#632,#634,#246,.T.);
#713=EDGE_CURVE('',#635,#634,#827,.T.);
#714=EDGE_CURVE('',#633,#635,#247,.T.);
#715=EDGE_CURVE('',#636,#636,#828,.T.);
#716=EDGE_CURVE('',#637,#637,#829,.T.);
#717=EDGE_CURVE('',#638,#634,#830,.T.);
#718=EDGE_CURVE('',#638,#639,#831,.T.);
#719=EDGE_CURVE('',#640,#639,#248,.T.);
#720=EDGE_CURVE('',#641,#640,#249,.T.);
#721=EDGE_CURVE('',#641,#642,#250,.T.);
#722=EDGE_CURVE('',#642,#643,#251,.T.);
#723=EDGE_CURVE('',#644,#643,#252,.T.);
#724=EDGE_CURVE('',#635,#644,#253,.T.);
#725=EDGE_CURVE('',#645,#645,#832,.T.);
#726=EDGE_CURVE('',#646,#647,#254,.T.);
#727=EDGE_CURVE('',#646,#648,#833,.T.);
#728=EDGE_CURVE('',#649,#648,#255,.T.);
#729=EDGE_CURVE('',#649,#650,#834,.T.);
#730=EDGE_CURVE('',#651,#650,#256,.T.);
#731=EDGE_CURVE('',#651,#652,#835,.T.);
#732=EDGE_CURVE('',#653,#652,#257,.T.);
#733=EDGE_CURVE('',#653,#647,#836,.T.);
#734=EDGE_CURVE('',#654,#655,#258,.T.);
#735=EDGE_CURVE('',#654,#656,#837,.T.);
#736=EDGE_CURVE('',#657,#656,#259,.T.);
#737=EDGE_CURVE('',#657,#658,#838,.T.);
#738=EDGE_CURVE('',#659,#658,#260,.T.);
#739=EDGE_CURVE('',#659,#660,#839,.T.);
#740=EDGE_CURVE('',#661,#660,#261,.T.);
#741=EDGE_CURVE('',#661,#655,#840,.T.);
#742=EDGE_CURVE('',#662,#644,#262,.T.);
#743=EDGE_CURVE('',#643,#663,#263,.T.);
#744=EDGE_CURVE('',#664,#663,#264,.T.);
#745=EDGE_CURVE('',#664,#665,#265,.T.);
#746=EDGE_CURVE('',#665,#666,#266,.T.);
#747=EDGE_CURVE('',#662,#666,#267,.T.);
#748=EDGE_CURVE('',#663,#667,#268,.T.);
#749=EDGE_CURVE('',#667,#668,#269,.T.);
#750=EDGE_CURVE('',#669,#668,#270,.T.);
#751=EDGE_CURVE('',#669,#664,#271,.T.);
#752=EDGE_CURVE('',#668,#670,#272,.T.);
#753=EDGE_CURVE('',#671,#670,#273,.T.);
#754=EDGE_CURVE('',#671,#669,#274,.T.);
#755=EDGE_CURVE('',#665,#671,#275,.T.);
#756=EDGE_CURVE('',#672,#640,#276,.T.);
#757=EDGE_CURVE('',#666,#672,#277,.T.);
#758=EDGE_CURVE('',#670,#641,#278,.T.);
#759=EDGE_CURVE('',#667,#642,#279,.T.);
#760=EDGE_CURVE('',#662,#633,#280,.T.);
#761=EDGE_CURVE('',#639,#673,#281,.T.);
#762=EDGE_CURVE('',#673,#672,#282,.T.);
#763=EDGE_CURVE('',#673,#674,#841,.T.);
#764=EDGE_CURVE('',#674,#632,#842,.T.);
#765=EDGE_CURVE('',#638,#674,#283,.T.);
#766=EDGE_CURVE('',#655,#675,#284,.T.);
#767=EDGE_CURVE('',#675,#676,#285,.T.);
#768=EDGE_CURVE('',#676,#654,#286,.T.);
#769=EDGE_CURVE('',#677,#678,#287,.T.);
#770=EDGE_CURVE('',#678,#657,#288,.T.);
#771=EDGE_CURVE('',#656,#677,#289,.T.);
#772=EDGE_CURVE('',#658,#679,#290,.T.);
#773=EDGE_CURVE('',#679,#680,#291,.T.);
#774=EDGE_CURVE('',#680,#659,#292,.T.);
#775=EDGE_CURVE('',#675,#681,#843,.T.);
#776=EDGE_CURVE('',#682,#681,#293,.T.);
#777=EDGE_CURVE('',#682,#680,#844,.T.);
#778=EDGE_CURVE('',#679,#678,#845,.T.);
#779=EDGE_CURVE('',#677,#676,#846,.T.);
#780=EDGE_CURVE('',#681,#661,#294,.T.);
#781=EDGE_CURVE('',#660,#682,#295,.T.);
#782=EDGE_CURVE('',#647,#683,#296,.T.);
#783=EDGE_CURVE('',#683,#684,#297,.T.);
#784=EDGE_CURVE('',#684,#646,#298,.T.);
#785=EDGE_CURVE('',#648,#685,#299,.T.);
#786=EDGE_CURVE('',#685,#686,#300,.T.);
#787=EDGE_CURVE('',#686,#649,#301,.T.);
#788=EDGE_CURVE('',#650,#687,#302,.T.);
#789=EDGE_CURVE('',#687,#688,#303,.T.);
#790=EDGE_CURVE('',#688,#651,#304,.T.);
#791=EDGE_CURVE('',#689,#690,#305,.T.);
#792=EDGE_CURVE('',#690,#691,#847,.T.);
#793=EDGE_CURVE('',#691,#692,#306,.T.);
#794=EDGE_CURVE('',#692,#693,#848,.T.);
#795=EDGE_CURVE('',#693,#694,#307,.T.);
#796=EDGE_CURVE('',#694,#695,#849,.T.);
#797=EDGE_CURVE('',#695,#696,#308,.T.);
#798=EDGE_CURVE('',#696,#689,#850,.T.);
#799=EDGE_CURVE('',#683,#697,#851,.T.);
#800=EDGE_CURVE('',#698,#697,#309,.T.);
#801=EDGE_CURVE('',#698,#688,#852,.T.);
#802=EDGE_CURVE('',#687,#686,#853,.T.);
#803=EDGE_CURVE('',#685,#684,#854,.T.);
#804=EDGE_CURVE('',#697,#653,#310,.T.);
#805=EDGE_CURVE('',#652,#698,#311,.T.);
#806=EDGE_CURVE('',#699,#700,#312,.T.);
#807=EDGE_CURVE('',#700,#694,#313,.T.);
#808=EDGE_CURVE('',#693,#699,#314,.T.);
#809=EDGE_CURVE('',#695,#701,#315,.T.);
#810=EDGE_CURVE('',#701,#702,#316,.T.);
#811=EDGE_CURVE('',#702,#696,#317,.T.);
#812=EDGE_CURVE('',#689,#703,#318,.T.);
#813=EDGE_CURVE('',#703,#704,#319,.T.);
#814=EDGE_CURVE('',#704,#690,#320,.T.);
#815=EDGE_CURVE('',#705,#706,#321,.T.);
#816=EDGE_CURVE('',#706,#692,#322,.T.);
#817=EDGE_CURVE('',#691,#705,#323,.T.);
#818=EDGE_CURVE('',#701,#700,#855,.T.);
#819=EDGE_CURVE('',#699,#706,#856,.T.);
#820=EDGE_CURVE('',#705,#704,#857,.T.);
#821=EDGE_CURVE('',#703,#702,#858,.T.);
#822=EDGE_CURVE('',#707,#707,#859,.T.);
#823=EDGE_CURVE('',#708,#708,#860,.T.);
#824=EDGE_CURVE('',#709,#709,#861,.T.);
#825=EDGE_CURVE('',#710,#710,#862,.T.);
#826=CIRCLE('',#864,8.9);
#827=CIRCLE('',#865,8.9);
#828=CIRCLE('',#867,6.2);
#829=CIRCLE('',#868,6.2);
#830=CIRCLE('',#869,6.2);
#831=CIRCLE('',#870,8.9);
#832=CIRCLE('',#871,6.2);
#833=CIRCLE('',#872,9.);
#834=CIRCLE('',#873,9.);
#835=CIRCLE('',#874,9.);
#836=CIRCLE('',#875,9.);
#837=CIRCLE('',#876,15.);
#838=CIRCLE('',#877,15.);
#839=CIRCLE('',#878,15.);
#840=CIRCLE('',#879,15.);
#841=CIRCLE('',#890,8.9);
#842=CIRCLE('',#891,6.2);
#843=CIRCLE('',#897,15.);
#844=CIRCLE('',#898,15.);
#845=CIRCLE('',#899,15.);
#846=CIRCLE('',#900,15.);
#847=CIRCLE('',#910,9.4);
#848=CIRCLE('',#911,9.4);
#849=CIRCLE('',#912,9.4);
#850=CIRCLE('',#913,9.4);
#851=CIRCLE('',#914,9.);
#852=CIRCLE('',#915,9.);
#853=CIRCLE('',#916,9.);
#854=CIRCLE('',#917,9.);
#855=CIRCLE('',#928,9.4);
#856=CIRCLE('',#929,9.4);
#857=CIRCLE('',#930,9.4);
#858=CIRCLE('',#931,9.4);
#859=CIRCLE('',#937,6.2);
#860=CIRCLE('',#940,6.2);
#861=CIRCLE('',#943,6.2);
#862=CIRCLE('',#946,6.2);
#863=AXIS2_PLACEMENT_3D('',#1199,#949,#950);
#864=AXIS2_PLACEMENT_3D('',#1200,#951,#952);
#865=AXIS2_PLACEMENT_3D('',#1205,#954,#955);
#866=AXIS2_PLACEMENT_3D('',#1208,#957,#958);
#867=AXIS2_PLACEMENT_3D('',#1209,#959,#960);
#868=AXIS2_PLACEMENT_3D('',#1211,#961,#962);
#869=AXIS2_PLACEMENT_3D('',#1213,#963,#964);
#870=AXIS2_PLACEMENT_3D('',#1215,#965,#966);
#871=AXIS2_PLACEMENT_3D('',#1228,#973,#974);
#872=AXIS2_PLACEMENT_3D('',#1233,#976,#977);
#873=AXIS2_PLACEMENT_3D('',#1237,#979,#980);
#874=AXIS2_PLACEMENT_3D('',#1241,#982,#983);
#875=AXIS2_PLACEMENT_3D('',#1245,#985,#986);
#876=AXIS2_PLACEMENT_3D('',#1249,#988,#989);
#877=AXIS2_PLACEMENT_3D('',#1253,#991,#992);
#878=AXIS2_PLACEMENT_3D('',#1257,#994,#995);
#879=AXIS2_PLACEMENT_3D('',#1261,#997,#998);
#880=AXIS2_PLACEMENT_3D('',#1262,#999,#1000);
#881=AXIS2_PLACEMENT_3D('',#1274,#1007,#1008);
#882=AXIS2_PLACEMENT_3D('',#1282,#1013,#1014);
#883=AXIS2_PLACEMENT_3D('',#1288,#1018,#1019);
#884=AXIS2_PLACEMENT_3D('',#1290,#1021,#1022);
#885=AXIS2_PLACEMENT_3D('',#1295,#1026,#1027);
#886=AXIS2_PLACEMENT_3D('',#1297,#1029,#1030);
#887=AXIS2_PLACEMENT_3D('',#1298,#1031,#1032);
#888=AXIS2_PLACEMENT_3D('',#1300,#1034,#1035);
#889=AXIS2_PLACEMENT_3D('',#1304,#1038,#1039);
#890=AXIS2_PLACEMENT_3D('',#1305,#1040,#1041);
#891=AXIS2_PLACEMENT_3D('',#1307,#1042,#1043);
#892=AXIS2_PLACEMENT_3D('',#1308,#1044,#1045);
#893=AXIS2_PLACEMENT_3D('',#1310,#1047,#1048);
#894=AXIS2_PLACEMENT_3D('',#1316,#1052,#1053);
#895=AXIS2_PLACEMENT_3D('',#1322,#1057,#1058);
#896=AXIS2_PLACEMENT_3D('',#1328,#1062,#1063);
#897=AXIS2_PLACEMENT_3D('',#1329,#1064,#1065);
#898=AXIS2_PLACEMENT_3D('',#1333,#1067,#1068);
#899=AXIS2_PLACEMENT_3D('',#1334,#1069,#1070);
#900=AXIS2_PLACEMENT_3D('',#1335,#1071,#1072);
#901=AXIS2_PLACEMENT_3D('',#1336,#1073,#1074);
#902=AXIS2_PLACEMENT_3D('',#1339,#1077,#1078);
#903=AXIS2_PLACEMENT_3D('',#1340,#1079,#1080);
#904=AXIS2_PLACEMENT_3D('',#1341,#1081,#1082);
#905=AXIS2_PLACEMENT_3D('',#1342,#1083,#1084);
#906=AXIS2_PLACEMENT_3D('',#1343,#1085,#1086);
#907=AXIS2_PLACEMENT_3D('',#1349,#1090,#1091);
#908=AXIS2_PLACEMENT_3D('',#1355,#1095,#1096);
#909=AXIS2_PLACEMENT_3D('',#1361,#1100,#1101);
#910=AXIS2_PLACEMENT_3D('',#1365,#1103,#1104);
#911=AXIS2_PLACEMENT_3D('',#1369,#1106,#1107);
#912=AXIS2_PLACEMENT_3D('',#1373,#1109,#1110);
#913=AXIS2_PLACEMENT_3D('',#1377,#1112,#1113);
#914=AXIS2_PLACEMENT_3D('',#1378,#1114,#1115);
#915=AXIS2_PLACEMENT_3D('',#1382,#1117,#1118);
#916=AXIS2_PLACEMENT_3D('',#1383,#1119,#1120);
#917=AXIS2_PLACEMENT_3D('',#1384,#1121,#1122);
#918=AXIS2_PLACEMENT_3D('',#1385,#1123,#1124);
#919=AXIS2_PLACEMENT_3D('',#1388,#1127,#1128);
#920=AXIS2_PLACEMENT_3D('',#1389,#1129,#1130);
#921=AXIS2_PLACEMENT_3D('',#1390,#1131,#1132);
#922=AXIS2_PLACEMENT_3D('',#1391,#1133,#1134);
#923=AXIS2_PLACEMENT_3D('',#1392,#1135,#1136);
#924=AXIS2_PLACEMENT_3D('',#1398,#1140,#1141);
#925=AXIS2_PLACEMENT_3D('',#1404,#1145,#1146);
#926=AXIS2_PLACEMENT_3D('',#1410,#1150,#1151);
#927=AXIS2_PLACEMENT_3D('',#1416,#1155,#1156);
#928=AXIS2_PLACEMENT_3D('',#1417,#1157,#1158);
#929=AXIS2_PLACEMENT_3D('',#1418,#1159,#1160);
#930=AXIS2_PLACEMENT_3D('',#1419,#1161,#1162);
#931=AXIS2_PLACEMENT_3D('',#1420,#1163,#1164);
#932=AXIS2_PLACEMENT_3D('',#1421,#1165,#1166);
#933=AXIS2_PLACEMENT_3D('',#1422,#1167,#1168);
#934=AXIS2_PLACEMENT_3D('',#1423,#1169,#1170);
#935=AXIS2_PLACEMENT_3D('',#1424,#1171,#1172);
#936=AXIS2_PLACEMENT_3D('',#1425,#1173,#1174);
#937=AXIS2_PLACEMENT_3D('',#1426,#1175,#1176);
#938=AXIS2_PLACEMENT_3D('',#1428,#1177,#1178);
#939=AXIS2_PLACEMENT_3D('',#1429,#1179,#1180);
#940=AXIS2_PLACEMENT_3D('',#1430,#1181,#1182);
#941=AXIS2_PLACEMENT_3D('',#1432,#1183,#1184);
#942=AXIS2_PLACEMENT_3D('',#1433,#1185,#1186);
#943=AXIS2_PLACEMENT_3D('',#1434,#1187,#1188);
#944=AXIS2_PLACEMENT_3D('',#1436,#1189,#1190);
#945=AXIS2_PLACEMENT_3D('',#1437,#1191,#1192);
#946=AXIS2_PLACEMENT_3D('',#1438,#1193,#1194);
#947=AXIS2_PLACEMENT_3D('',#1440,#1195,#1196);
#948=AXIS2_PLACEMENT_3D('',#1441,#1197,#1198);
#949=DIRECTION('',(0.,0.,1.));
#950=DIRECTION('',(1.,0.,0.));
#951=DIRECTION('',(0.,0.,1.));
#952=DIRECTION('',(-0.999999999999999,0.,0.));
#953=DIRECTION('',(0.,0.,1.));
#954=DIRECTION('',(0.,0.,-1.));
#955=DIRECTION('',(0.999999999999999,0.,0.));
#956=DIRECTION('',(0.,0.,1.));
#957=DIRECTION('',(0.,0.,1.));
#958=DIRECTION('',(0.999999999999999,0.,0.));
#959=DIRECTION('',(0.,0.,1.));
#960=DIRECTION('',(1.,0.,0.));
#961=DIRECTION('',(0.,0.,1.));
#962=DIRECTION('',(0.999999999999999,0.,0.));
#963=DIRECTION('',(0.,0.,1.));
#964=DIRECTION('',(1.,0.,0.));
#965=DIRECTION('',(0.,0.,-1.));
#966=DIRECTION('',(0.999999999999999,0.,0.));
#967=DIRECTION('',(-1.,0.,0.));
#968=DIRECTION('',(0.,-1.,0.));
#969=DIRECTION('',(-1.,0.,0.));
#970=DIRECTION('',(0.,-1.,0.));
#971=DIRECTION('',(-1.,0.,0.));
#972=DIRECTION('',(0.,-1.,0.));
#973=DIRECTION('',(0.,0.,1.));
#974=DIRECTION('',(0.999999999999999,0.,0.));
#975=DIRECTION('',(1.,0.,0.));
#976=DIRECTION('',(0.,0.,-1.));
#977=DIRECTION('',(1.,0.,0.));
#978=DIRECTION('',(0.,-1.,0.));
#979=DIRECTION('',(0.,0.,-1.));
#980=DIRECTION('',(1.,0.,0.));
#981=DIRECTION('',(-1.,0.,0.));
#982=DIRECTION('',(0.,0.,-1.));
#983=DIRECTION('',(1.,0.,0.));
#984=DIRECTION('',(0.,1.,0.));
#985=DIRECTION('',(0.,0.,-1.));
#986=DIRECTION('',(1.,0.,0.));
#987=DIRECTION('',(1.,0.,0.));
#988=DIRECTION('',(0.,0.,-1.));
#989=DIRECTION('',(0.999999999999999,0.,0.));
#990=DIRECTION('',(0.,-1.,0.));
#991=DIRECTION('',(0.,0.,-1.));
#992=DIRECTION('',(0.999999999999999,0.,0.));
#993=DIRECTION('',(-1.,0.,0.));
#994=DIRECTION('',(0.,0.,-1.));
#995=DIRECTION('',(1.,0.,0.));
#996=DIRECTION('',(0.,1.,0.));
#997=DIRECTION('',(0.,0.,-1.));
#998=DIRECTION('',(1.,0.,0.));
#999=DIRECTION('',(0.,0.,1.));
#1000=DIRECTION('',(1.,0.,0.));
#1001=DIRECTION('',(0.,0.,1.));
#1002=DIRECTION('',(-0.707106781186548,0.,-0.707106781186548));
#1003=DIRECTION('',(0.,0.,1.));
#1004=DIRECTION('',(1.,0.,0.));
#1005=DIRECTION('',(0.,0.,1.));
#1006=DIRECTION('',(1.,0.,0.));
#1007=DIRECTION('',(0.,-1.,0.));
#1008=DIRECTION('',(0.,0.,-1.));
#1009=DIRECTION('',(0.,1.,0.));
#1010=DIRECTION('',(0.,0.707106781186547,-0.707106781186548));
#1011=DIRECTION('',(0.,0.,1.));
#1012=DIRECTION('',(0.,-1.,0.));
#1013=DIRECTION('',(-1.,0.,0.));
#1014=DIRECTION('',(0.,0.,1.));
#1015=DIRECTION('',(1.,0.,0.));
#1016=DIRECTION('',(0.,0.,1.));
#1017=DIRECTION('',(-1.,0.,0.));
#1018=DIRECTION('',(0.,1.,0.));
#1019=DIRECTION('',(0.,0.,1.));
#1020=DIRECTION('',(0.,1.,0.));
#1021=DIRECTION('',(0.,0.,-1.));
#1022=DIRECTION('',(-1.,0.,0.));
#1023=DIRECTION('',(0.,0.,1.));
#1024=DIRECTION('',(0.,1.,0.));
#1025=DIRECTION('',(0.,-0.707106781186547,0.707106781186548));
#1026=DIRECTION('',(1.,0.,0.));
#1027=DIRECTION('',(0.,0.,-1.));
#1028=DIRECTION('',(0.577350269189626,-0.577350269189625,0.577350269189626));
#1029=DIRECTION('',(0.,-0.707106781186548,-0.707106781186547));
#1030=DIRECTION('',(1.,0.,0.));
#1031=DIRECTION('',(0.707106781186548,0.,-0.707106781186548));
#1032=DIRECTION('',(0.,1.,0.));
#1033=DIRECTION('',(0.,1.,0.));
#1034=DIRECTION('',(-1.,0.,0.));
#1035=DIRECTION('',(0.,0.,1.));
#1036=DIRECTION('',(0.,0.,-1.));
#1037=DIRECTION('',(1.,0.,0.));
#1038=DIRECTION('',(0.,1.,0.));
#1039=DIRECTION('',(0.,0.,1.));
#1040=DIRECTION('',(0.,0.,1.));
#1041=DIRECTION('',(-0.999999999999999,0.,0.));
#1042=DIRECTION('',(0.,0.,-1.));
#1043=DIRECTION('',(-1.,0.,0.));
#1044=DIRECTION('',(0.,0.,-1.));
#1045=DIRECTION('',(-1.,0.,0.));
#1046=DIRECTION('',(0.,0.,-1.));
#1047=DIRECTION('',(0.,0.,1.));
#1048=DIRECTION('',(0.999999999999999,0.,0.));
#1049=DIRECTION('',(0.,0.,-1.));
#1050=DIRECTION('',(-1.,0.,0.));
#1051=DIRECTION('',(0.,0.,1.));
#1052=DIRECTION('',(0.,-1.,0.));
#1053=DIRECTION('',(0.,0.,-1.));
#1054=DIRECTION('',(0.,1.,0.));
#1055=DIRECTION('',(0.,0.,1.));
#1056=DIRECTION('',(0.,0.,-1.));
#1057=DIRECTION('',(-1.,0.,0.));
#1058=DIRECTION('',(0.,0.,1.));
#1059=DIRECTION('',(0.,0.,-1.));
#1060=DIRECTION('',(1.,0.,0.));
#1061=DIRECTION('',(0.,0.,1.));
#1062=DIRECTION('',(0.,1.,0.));
#1063=DIRECTION('',(0.,0.,1.));
#1064=DIRECTION('',(0.,0.,1.));
#1065=DIRECTION('',(-1.,0.,0.));
#1066=DIRECTION('',(0.,-1.,0.));
#1067=DIRECTION('',(0.,0.,1.));
#1068=DIRECTION('',(-1.,0.,0.));
#1069=DIRECTION('',(0.,0.,1.));
#1070=DIRECTION('',(-1.,0.,0.));
#1071=DIRECTION('',(0.,0.,1.));
#1072=DIRECTION('',(-1.,0.,0.));
#1073=DIRECTION('',(0.,0.,-1.));
#1074=DIRECTION('',(-1.,0.,0.));
#1075=DIRECTION('',(0.,0.,1.));
#1076=DIRECTION('',(0.,0.,-1.));
#1077=DIRECTION('',(1.,0.,0.));
#1078=DIRECTION('',(0.,0.,-1.));
#1079=DIRECTION('',(0.,0.,1.));
#1080=DIRECTION('',(1.,0.,0.));
#1081=DIRECTION('',(0.,0.,1.));
#1082=DIRECTION('',(0.999999999999999,0.,0.));
#1083=DIRECTION('',(0.,0.,1.));
#1084=DIRECTION('',(0.999999999999999,0.,0.));
#1085=DIRECTION('',(0.,0.,1.));
#1086=DIRECTION('',(1.,0.,0.));
#1087=DIRECTION('',(0.,0.,-1.));
#1088=DIRECTION('',(-1.,0.,0.));
#1089=DIRECTION('',(0.,0.,1.));
#1090=DIRECTION('',(0.,-1.,0.));
#1091=DIRECTION('',(0.,0.,-1.));
#1092=DIRECTION('',(0.,0.,-1.));
#1093=DIRECTION('',(0.,1.,0.));
#1094=DIRECTION('',(0.,0.,1.));
#1095=DIRECTION('',(-1.,0.,0.));
#1096=DIRECTION('',(0.,0.,1.));
#1097=DIRECTION('',(0.,0.,-1.));
#1098=DIRECTION('',(1.,0.,0.));
#1099=DIRECTION('',(0.,0.,1.));
#1100=DIRECTION('',(0.,1.,0.));
#1101=DIRECTION('',(0.,0.,1.));
#1102=DIRECTION('',(1.,0.,0.));
#1103=DIRECTION('',(0.,0.,-1.));
#1104=DIRECTION('',(-1.,0.,0.));
#1105=DIRECTION('',(0.,-1.,0.));
#1106=DIRECTION('',(0.,0.,-1.));
#1107=DIRECTION('',(-1.,0.,0.));
#1108=DIRECTION('',(-1.,0.,0.));
#1109=DIRECTION('',(0.,0.,-1.));
#1110=DIRECTION('',(-1.,0.,0.));
#1111=DIRECTION('',(0.,1.,0.));
#1112=DIRECTION('',(0.,0.,-1.));
#1113=DIRECTION('',(-1.,0.,0.));
#1114=DIRECTION('',(0.,0.,1.));
#1115=DIRECTION('',(-1.,0.,0.));
#1116=DIRECTION('',(0.,-1.,0.));
#1117=DIRECTION('',(0.,0.,1.));
#1118=DIRECTION('',(-1.,0.,0.));
#1119=DIRECTION('',(0.,0.,1.));
#1120=DIRECTION('',(-1.,0.,0.));
#1121=DIRECTION('',(0.,0.,1.));
#1122=DIRECTION('',(-1.,0.,0.));
#1123=DIRECTION('',(0.,0.,-1.));
#1124=DIRECTION('',(-1.,0.,0.));
#1125=DIRECTION('',(0.,0.,1.));
#1126=DIRECTION('',(0.,0.,-1.));
#1127=DIRECTION('',(1.,0.,0.));
#1128=DIRECTION('',(0.,0.,-1.));
#1129=DIRECTION('',(0.,0.,1.));
#1130=DIRECTION('',(1.,0.,0.));
#1131=DIRECTION('',(0.,0.,1.));
#1132=DIRECTION('',(1.,0.,0.));
#1133=DIRECTION('',(0.,0.,1.));
#1134=DIRECTION('',(1.,0.,0.));
#1135=DIRECTION('',(0.,0.,1.));
#1136=DIRECTION('',(1.,0.,0.));
#1137=DIRECTION('',(-1.,0.,0.));
#1138=DIRECTION('',(0.,0.,1.));
#1139=DIRECTION('',(0.,0.,-1.));
#1140=DIRECTION('',(0.,-1.,0.));
#1141=DIRECTION('',(0.,0.,-1.));
#1142=DIRECTION('',(0.,0.,-1.));
#1143=DIRECTION('',(0.,1.,0.));
#1144=DIRECTION('',(0.,0.,1.));
#1145=DIRECTION('',(-1.,0.,0.));
#1146=DIRECTION('',(0.,0.,1.));
#1147=DIRECTION('',(0.,0.,-1.));
#1148=DIRECTION('',(1.,0.,0.));
#1149=DIRECTION('',(0.,0.,1.));
#1150=DIRECTION('',(0.,1.,0.));
#1151=DIRECTION('',(0.,0.,1.));
#1152=DIRECTION('',(0.,-1.,0.));
#1153=DIRECTION('',(0.,0.,1.));
#1154=DIRECTION('',(0.,0.,-1.));
#1155=DIRECTION('',(1.,0.,0.));
#1156=DIRECTION('',(0.,0.,-1.));
#1157=DIRECTION('',(0.,0.,1.));
#1158=DIRECTION('',(-1.,0.,0.));
#1159=DIRECTION('',(0.,0.,1.));
#1160=DIRECTION('',(-1.,0.,0.));
#1161=DIRECTION('',(0.,0.,1.));
#1162=DIRECTION('',(-1.,0.,0.));
#1163=DIRECTION('',(0.,0.,1.));
#1164=DIRECTION('',(-1.,0.,0.));
#1165=DIRECTION('',(0.,0.,-1.));
#1166=DIRECTION('',(-1.,0.,0.));
#1167=DIRECTION('',(0.,0.,1.));
#1168=DIRECTION('',(1.,0.,0.));
#1169=DIRECTION('',(0.,0.,1.));
#1170=DIRECTION('',(1.,0.,0.));
#1171=DIRECTION('',(0.,0.,1.));
#1172=DIRECTION('',(1.,0.,0.));
#1173=DIRECTION('',(0.,0.,1.));
#1174=DIRECTION('',(1.,0.,0.));
#1175=DIRECTION('',(0.,0.,-1.));
#1176=DIRECTION('',(0.999999999999999,0.,0.));
#1177=DIRECTION('',(0.,0.,-1.));
#1178=DIRECTION('',(-1.,0.,0.));
#1179=DIRECTION('',(0.,0.,-1.));
#1180=DIRECTION('',(0.999999999999999,0.,0.));
#1181=DIRECTION('',(0.,0.,-1.));
#1182=DIRECTION('',(1.,0.,0.));
#1183=DIRECTION('',(0.,0.,-1.));
#1184=DIRECTION('',(1.,0.,0.));
#1185=DIRECTION('',(0.,0.,-1.));
#1186=DIRECTION('',(-1.,0.,0.));
#1187=DIRECTION('',(0.,0.,-1.));
#1188=DIRECTION('',(0.999999999999999,0.,0.));
#1189=DIRECTION('',(0.,0.,-1.));
#1190=DIRECTION('',(-1.,0.,0.));
#1191=DIRECTION('',(0.,0.,-1.));
#1192=DIRECTION('',(0.999999999999999,0.,0.));
#1193=DIRECTION('',(0.,0.,-1.));
#1194=DIRECTION('',(1.,0.,0.));
#1195=DIRECTION('',(0.,0.,-1.));
#1196=DIRECTION('',(-1.,0.,0.));
#1197=DIRECTION('',(0.,0.,-1.));
#1198=DIRECTION('',(1.,0.,0.));
#1199=CARTESIAN_POINT('',(0.,0.,0.));
#1200=CARTESIAN_POINT('',(157.2,104.,80.2));
#1201=CARTESIAN_POINT('',(149.415400173296,108.313931563907,80.2));
#1202=CARTESIAN_POINT('',(148.3,104.,80.2));
#1203=CARTESIAN_POINT('',(149.415400173296,108.313931563907,98.825));
#1204=CARTESIAN_POINT('',(149.415400173296,108.313931563907,118.1));
#1205=CARTESIAN_POINT('',(157.2,104.,118.1));
#1206=CARTESIAN_POINT('',(148.3,104.,118.1));
#1207=CARTESIAN_POINT('',(148.3,104.,118.1));
#1208=CARTESIAN_POINT('',(157.2,104.,80.2));
#1209=CARTESIAN_POINT('',(149.,335.4,118.1));
#1210=CARTESIAN_POINT('',(155.2,335.4,118.1));
#1211=CARTESIAN_POINT('',(52.3,335.4,118.1));
#1212=CARTESIAN_POINT('',(58.5,335.4,118.1));
#1213=CARTESIAN_POINT('',(149.,114.5,118.1));
#1214=CARTESIAN_POINT('',(154.901034555422,112.597950795663,118.1));
#1215=CARTESIAN_POINT('',(157.2,104.,118.1));
#1216=CARTESIAN_POINT('',(157.2,112.9,118.1));
#1217=CARTESIAN_POINT('',(100.65,112.9,118.1));
#1218=CARTESIAN_POINT('',(201.3,112.9,118.1));
#1219=CARTESIAN_POINT('',(201.3,224.95,118.1));
#1220=CARTESIAN_POINT('',(201.3,432.6,118.1));
#1221=CARTESIAN_POINT('',(100.65,432.6,118.1));
#1222=CARTESIAN_POINT('',(12.2,432.6,118.1));
#1223=CARTESIAN_POINT('',(12.2,224.95,118.1));
#1224=CARTESIAN_POINT('',(12.2,0.,118.1));
#1225=CARTESIAN_POINT('',(100.65,0.,118.1));
#1226=CARTESIAN_POINT('',(148.3,0.,118.1));
#1227=CARTESIAN_POINT('',(148.3,224.95,118.1));
#1228=CARTESIAN_POINT('',(52.3,114.5,118.1));
#1229=CARTESIAN_POINT('',(58.5,114.5,118.1));
#1230=CARTESIAN_POINT('',(100.65,121.9,118.1));
#1231=CARTESIAN_POINT('',(53.,121.9,118.1));
#1232=CARTESIAN_POINT('',(98.1,121.9,118.1));
#1233=CARTESIAN_POINT('',(53.,130.9,118.1));
#1234=CARTESIAN_POINT('',(44.,130.9,118.1));
#1235=CARTESIAN_POINT('',(44.,224.95,118.1));
#1236=CARTESIAN_POINT('',(44.,295.5,118.1));
#1237=CARTESIAN_POINT('',(53.,295.5,118.1));
#1238=CARTESIAN_POINT('',(53.,304.5,118.1));
#1239=CARTESIAN_POINT('',(100.65,304.5,118.1));
#1240=CARTESIAN_POINT('',(98.1,304.5,118.1));
#1241=CARTESIAN_POINT('',(98.1,295.5,118.1));
#1242=CARTESIAN_POINT('',(107.1,295.5,118.1));
#1243=CARTESIAN_POINT('',(107.1,224.95,118.1));
#1244=CARTESIAN_POINT('',(107.1,130.9,118.1));
#1245=CARTESIAN_POINT('',(98.1,130.9,118.1));
#1246=CARTESIAN_POINT('',(100.65,222.3,118.1));
#1247=CARTESIAN_POINT('',(131.3,222.3,118.1));
#1248=CARTESIAN_POINT('',(152.9,222.3,118.1));
#1249=CARTESIAN_POINT('',(131.3,237.3,118.1));
#1250=CARTESIAN_POINT('',(116.3,237.3,118.1));
#1251=CARTESIAN_POINT('',(116.3,224.95,118.1));
#1252=CARTESIAN_POINT('',(116.3,311.3,118.1));
#1253=CARTESIAN_POINT('',(131.3,311.3,118.1));
#1254=CARTESIAN_POINT('',(131.3,326.3,118.1));
#1255=CARTESIAN_POINT('',(100.65,326.3,118.1));
#1256=CARTESIAN_POINT('',(152.9,326.3,118.1));
#1257=CARTESIAN_POINT('',(152.9,311.3,118.1));
#1258=CARTESIAN_POINT('',(167.9,311.3,118.1));
#1259=CARTESIAN_POINT('',(167.9,224.95,118.1));
#1260=CARTESIAN_POINT('',(167.9,237.3,118.1));
#1261=CARTESIAN_POINT('',(152.9,237.3,118.1));
#1262=CARTESIAN_POINT('',(100.65,224.95,118.1));
#1263=CARTESIAN_POINT('',(148.3,0.,80.2));
#1264=CARTESIAN_POINT('',(148.3,0.,80.2));
#1265=CARTESIAN_POINT('',(-2.625,0.,103.275));
#1266=CARTESIAN_POINT('',(0.,0.,105.9));
#1267=CARTESIAN_POINT('',(0.,0.,0.));
#1268=CARTESIAN_POINT('',(0.,0.,0.));
#1269=CARTESIAN_POINT('',(100.65,0.,0.));
#1270=CARTESIAN_POINT('',(201.3,0.,0.));
#1271=CARTESIAN_POINT('',(201.3,0.,0.));
#1272=CARTESIAN_POINT('',(201.3,0.,80.2));
#1273=CARTESIAN_POINT('',(174.8,0.,80.2));
#1274=CARTESIAN_POINT('',(100.65,0.,0.));
#1275=CARTESIAN_POINT('',(0.,224.95,105.9));
#1276=CARTESIAN_POINT('',(0.,444.8,105.9));
#1277=CARTESIAN_POINT('',(0.,387.825,162.875));
#1278=CARTESIAN_POINT('',(0.,449.9,100.8));
#1279=CARTESIAN_POINT('',(0.,449.9,0.));
#1280=CARTESIAN_POINT('',(0.,449.9,0.));
#1281=CARTESIAN_POINT('',(0.,224.95,0.));
#1282=CARTESIAN_POINT('',(0.,224.95,0.));
#1283=CARTESIAN_POINT('',(100.65,449.9,100.8));
#1284=CARTESIAN_POINT('',(201.3,449.9,100.8));
#1285=CARTESIAN_POINT('',(201.3,449.9,0.));
#1286=CARTESIAN_POINT('',(201.3,449.9,0.));
#1287=CARTESIAN_POINT('',(100.65,449.9,0.));
#1288=CARTESIAN_POINT('',(100.65,449.9,0.));
#1289=CARTESIAN_POINT('',(201.3,224.95,0.));
#1290=CARTESIAN_POINT('',(100.65,224.95,0.));
#1291=CARTESIAN_POINT('',(201.3,112.9,80.2));
#1292=CARTESIAN_POINT('',(201.3,112.9,80.2));
#1293=CARTESIAN_POINT('',(201.3,56.45,80.2));
#1294=CARTESIAN_POINT('',(201.3,387.825,162.875));
#1295=CARTESIAN_POINT('',(201.3,224.95,0.));
#1296=CARTESIAN_POINT('',(30.15,414.65,136.05));
#1297=CARTESIAN_POINT('',(100.65,449.9,100.8));
#1298=CARTESIAN_POINT('',(0.,224.95,105.9));
#1299=CARTESIAN_POINT('',(148.3,56.45,80.2));
#1300=CARTESIAN_POINT('',(148.3,56.45,80.2));
#1301=CARTESIAN_POINT('',(157.2,112.9,80.2));
#1302=CARTESIAN_POINT('',(157.2,112.9,80.2));
#1303=CARTESIAN_POINT('',(174.8,112.9,80.2));
#1304=CARTESIAN_POINT('',(174.8,112.9,80.2));
#1305=CARTESIAN_POINT('',(157.2,104.,80.2));
#1306=CARTESIAN_POINT('',(154.901034555422,112.597950795663,80.2));
#1307=CARTESIAN_POINT('',(149.,114.5,80.2));
#1308=CARTESIAN_POINT('',(174.8,56.45,80.2));
#1309=CARTESIAN_POINT('',(154.901034555422,112.597950795663,98.825));
#1310=CARTESIAN_POINT('',(157.2,104.,80.2));
#1311=CARTESIAN_POINT('',(152.9,222.3,80.2));
#1312=CARTESIAN_POINT('',(152.9,222.3,80.2));
#1313=CARTESIAN_POINT('',(142.1,222.3,80.2));
#1314=CARTESIAN_POINT('',(131.3,222.3,80.2));
#1315=CARTESIAN_POINT('',(131.3,222.3,118.1));
#1316=CARTESIAN_POINT('',(142.1,222.3,80.2));
#1317=CARTESIAN_POINT('',(116.3,274.3,80.2));
#1318=CARTESIAN_POINT('',(116.3,237.3,80.2));
#1319=CARTESIAN_POINT('',(116.3,311.3,80.2));
#1320=CARTESIAN_POINT('',(116.3,311.3,118.1));
#1321=CARTESIAN_POINT('',(116.3,237.3,80.2));
#1322=CARTESIAN_POINT('',(116.3,274.3,80.2));
#1323=CARTESIAN_POINT('',(131.3,326.3,80.2));
#1324=CARTESIAN_POINT('',(131.3,326.3,80.2));
#1325=CARTESIAN_POINT('',(142.1,326.3,80.2));
#1326=CARTESIAN_POINT('',(152.9,326.3,80.2));
#1327=CARTESIAN_POINT('',(152.9,326.3,118.1));
#1328=CARTESIAN_POINT('',(142.1,326.3,80.2));
#1329=CARTESIAN_POINT('',(152.9,237.3,80.2));
#1330=CARTESIAN_POINT('',(167.9,237.3,80.2));
#1331=CARTESIAN_POINT('',(167.9,274.3,80.2));
#1332=CARTESIAN_POINT('',(167.9,311.3,80.2));
#1333=CARTESIAN_POINT('',(152.9,311.3,80.2));
#1334=CARTESIAN_POINT('',(131.3,311.3,80.2));
#1335=CARTESIAN_POINT('',(131.3,237.3,80.2));
#1336=CARTESIAN_POINT('',(142.1,274.3,80.2));
#1337=CARTESIAN_POINT('',(167.9,237.3,118.1));
#1338=CARTESIAN_POINT('',(167.9,311.3,80.2));
#1339=CARTESIAN_POINT('',(167.9,274.3,80.2));
#1340=CARTESIAN_POINT('',(152.9,237.3,80.2));
#1341=CARTESIAN_POINT('',(131.3,311.3,80.2));
#1342=CARTESIAN_POINT('',(131.3,237.3,80.2));
#1343=CARTESIAN_POINT('',(152.9,311.3,80.2));
#1344=CARTESIAN_POINT('',(98.1,121.9,83.3));
#1345=CARTESIAN_POINT('',(98.1,121.9,83.3));
#1346=CARTESIAN_POINT('',(75.55,121.9,83.3));
#1347=CARTESIAN_POINT('',(53.,121.9,83.3));
#1348=CARTESIAN_POINT('',(53.,121.9,118.1));
#1349=CARTESIAN_POINT('',(75.55,121.9,83.3));
#1350=CARTESIAN_POINT('',(44.,130.9,83.3));
#1351=CARTESIAN_POINT('',(44.,130.9,83.3));
#1352=CARTESIAN_POINT('',(44.,213.2,83.3));
#1353=CARTESIAN_POINT('',(44.,295.5,83.3));
#1354=CARTESIAN_POINT('',(44.,295.5,118.1));
#1355=CARTESIAN_POINT('',(44.,213.2,83.3));
#1356=CARTESIAN_POINT('',(53.,304.5,83.3));
#1357=CARTESIAN_POINT('',(53.,304.5,83.3));
#1358=CARTESIAN_POINT('',(75.55,304.5,83.3));
#1359=CARTESIAN_POINT('',(98.1,304.5,83.3));
#1360=CARTESIAN_POINT('',(98.1,304.5,118.1));
#1361=CARTESIAN_POINT('',(75.55,304.5,83.3));
#1362=CARTESIAN_POINT('',(75.55,237.6,83.3));
#1363=CARTESIAN_POINT('',(66.9,237.6,83.3));
#1364=CARTESIAN_POINT('',(68.9,237.6,83.3));
#1365=CARTESIAN_POINT('',(68.9,228.2,83.3));
#1366=CARTESIAN_POINT('',(78.3,228.2,83.3));
#1367=CARTESIAN_POINT('',(78.3,213.2,83.3));
#1368=CARTESIAN_POINT('',(78.3,159.2,83.3));
#1369=CARTESIAN_POINT('',(68.9,159.2,83.3));
#1370=CARTESIAN_POINT('',(68.9,149.8,83.3));
#1371=CARTESIAN_POINT('',(75.55,149.8,83.3));
#1372=CARTESIAN_POINT('',(66.9,149.8,83.3));
#1373=CARTESIAN_POINT('',(66.9,159.2,83.3));
#1374=CARTESIAN_POINT('',(57.5,159.2,83.3));
#1375=CARTESIAN_POINT('',(57.5,213.2,83.3));
#1376=CARTESIAN_POINT('',(57.5,228.2,83.3));
#1377=CARTESIAN_POINT('',(66.9,228.2,83.3));
#1378=CARTESIAN_POINT('',(98.1,130.9,83.3));
#1379=CARTESIAN_POINT('',(107.1,130.9,83.3));
#1380=CARTESIAN_POINT('',(107.1,213.2,83.3));
#1381=CARTESIAN_POINT('',(107.1,295.5,83.3));
#1382=CARTESIAN_POINT('',(98.1,295.5,83.3));
#1383=CARTESIAN_POINT('',(53.,295.5,83.3));
#1384=CARTESIAN_POINT('',(53.,130.9,83.3));
#1385=CARTESIAN_POINT('',(75.55,213.2,83.3));
#1386=CARTESIAN_POINT('',(107.1,130.9,118.1));
#1387=CARTESIAN_POINT('',(107.1,295.5,83.3));
#1388=CARTESIAN_POINT('',(107.1,213.2,83.3));
#1389=CARTESIAN_POINT('',(98.1,130.9,83.3));
#1390=CARTESIAN_POINT('',(53.,130.9,83.3));
#1391=CARTESIAN_POINT('',(53.,295.5,83.3));
#1392=CARTESIAN_POINT('',(98.1,295.5,83.3));
#1393=CARTESIAN_POINT('',(67.9,149.8,80.2));
#1394=CARTESIAN_POINT('',(68.9,149.8,80.2));
#1395=CARTESIAN_POINT('',(66.9,149.8,80.2));
#1396=CARTESIAN_POINT('',(66.9,149.8,83.3));
#1397=CARTESIAN_POINT('',(68.9,149.8,80.2));
#1398=CARTESIAN_POINT('',(67.9,149.8,80.2));
#1399=CARTESIAN_POINT('',(57.5,159.2,80.2));
#1400=CARTESIAN_POINT('',(57.5,159.2,80.2));
#1401=CARTESIAN_POINT('',(57.5,193.7,80.2));
#1402=CARTESIAN_POINT('',(57.5,228.2,80.2));
#1403=CARTESIAN_POINT('',(57.5,228.2,83.3));
#1404=CARTESIAN_POINT('',(57.5,193.7,80.2));
#1405=CARTESIAN_POINT('',(66.9,237.6,80.2));
#1406=CARTESIAN_POINT('',(66.9,237.6,80.2));
#1407=CARTESIAN_POINT('',(67.9,237.6,80.2));
#1408=CARTESIAN_POINT('',(68.9,237.6,80.2));
#1409=CARTESIAN_POINT('',(68.9,237.6,83.3));
#1410=CARTESIAN_POINT('',(67.9,237.6,80.2));
#1411=CARTESIAN_POINT('',(78.3,193.7,80.2));
#1412=CARTESIAN_POINT('',(78.3,228.2,80.2));
#1413=CARTESIAN_POINT('',(78.3,159.2,80.2));
#1414=CARTESIAN_POINT('',(78.3,159.2,83.3));
#1415=CARTESIAN_POINT('',(78.3,228.2,80.2));
#1416=CARTESIAN_POINT('',(78.3,193.7,80.2));
#1417=CARTESIAN_POINT('',(66.9,159.2,80.2));
#1418=CARTESIAN_POINT('',(68.9,159.2,80.2));
#1419=CARTESIAN_POINT('',(68.9,228.2,80.2));
#1420=CARTESIAN_POINT('',(66.9,228.2,80.2));
#1421=CARTESIAN_POINT('',(67.9,193.7,80.2));
#1422=CARTESIAN_POINT('',(66.9,159.2,80.2));
#1423=CARTESIAN_POINT('',(66.9,228.2,80.2));
#1424=CARTESIAN_POINT('',(68.9,159.2,80.2));
#1425=CARTESIAN_POINT('',(68.9,228.2,80.2));
#1426=CARTESIAN_POINT('',(52.3,114.5,64.4));
#1427=CARTESIAN_POINT('',(58.5,114.5,64.4));
#1428=CARTESIAN_POINT('',(52.3,114.5,64.4));
#1429=CARTESIAN_POINT('',(52.3,114.5,118.15));
#1430=CARTESIAN_POINT('',(149.,114.5,79.5));
#1431=CARTESIAN_POINT('',(155.2,114.5,79.5));
#1432=CARTESIAN_POINT('',(149.,114.5,118.15));
#1433=CARTESIAN_POINT('',(149.,114.5,79.5));
#1434=CARTESIAN_POINT('',(52.3,335.4,89.8));
#1435=CARTESIAN_POINT('',(58.5,335.4,89.8));
#1436=CARTESIAN_POINT('',(52.3,335.4,89.8));
#1437=CARTESIAN_POINT('',(52.3,335.4,118.15));
#1438=CARTESIAN_POINT('',(149.,335.4,73.2));
#1439=CARTESIAN_POINT('',(155.2,335.4,73.2));
#1440=CARTESIAN_POINT('',(149.,335.4,73.2));
#1441=CARTESIAN_POINT('',(149.,335.4,118.15));
#1442=MECHANICAL_DESIGN_GEOMETRIC_PRESENTATION_REPRESENTATION('',(#24),
#1443);
#1443=(
GEOMETRIC_REPRESENTATION_CONTEXT(3)
GLOBAL_UNCERTAINTY_ASSIGNED_CONTEXT((#1444))
GLOBAL_UNIT_ASSIGNED_CONTEXT((#1450,#1446,#1445))
REPRESENTATION_CONTEXT('featured_part_05931','TOP_LEVEL_ASSEMBLY_PART')
);
#1444=UNCERTAINTY_MEASURE_WITH_UNIT(LENGTH_MEASURE(2.E-5),#1450,
'DISTANCE_ACCURACY_VALUE','Maximum Tolerance applied to model');
#1445=(
NAMED_UNIT(*)
SI_UNIT($,.STERADIAN.)
SOLID_ANGLE_UNIT()
);
#1446=(
CONVERSION_BASED_UNIT('DEGREE',#1448)
NAMED_UNIT(#1447)
PLANE_ANGLE_UNIT()
);
#1447=DIMENSIONAL_EXPONENTS(0.,0.,0.,0.,0.,0.,0.);
#1448=PLANE_ANGLE_MEASURE_WITH_UNIT(PLANE_ANGLE_MEASURE(0.0174532925),#1449);
#1449=(
NAMED_UNIT(*)
PLANE_ANGLE_UNIT()
SI_UNIT($,.RADIAN.)
);
#1450=(
LENGTH_UNIT()
NAMED_UNIT(*)
SI_UNIT(.MILLI.,.METRE.)
);
ENDSEC;
END-ISO-10303-21;
