ISO-10303-21;
HEADER;
/* Generated by software containing ST-Developer
 * from STEP Tools, Inc. (www.steptools.com) 
 */
/* OPTION: using custom schema-name function */

FILE_DESCRIPTION(
/* description */ (''),
/* implementation_level */ '2;1');

FILE_NAME(
/* name */ 'featured_part_00754.stp',
/* time_stamp */ '2026-07-01T15:38:34-04:00',
/* author */ (''),
/* organization */ (''),
/* preprocessor_version */ 'ST-DEVELOPER v20.1',
/* originating_system */ 'SIEMENS PLM Software NX2512.6002',
/* authorisation */ '');

FILE_SCHEMA (('AUTOMOTIVE_DESIGN { 1 0 10303 214 3 1 1 1 }'));
ENDSEC;

DATA;
#10=SHAPE_REPRESENTATION_RELATIONSHIP('None',
'relationship between featured_part_00754-None and featured_part_00754
-None',#22,#11);
#11=ADVANCED_BREP_SHAPE_REPRESENTATION('featured_part_00754-None',(#32),
#771);
#12=SHAPE_DEFINITION_REPRESENTATION(#13,#22);
#13=PRODUCT_DEFINITION_SHAPE('','',#14);
#14=PRODUCT_DEFINITION(' ','',#16,#15);
#15=PRODUCT_DEFINITION_CONTEXT('part definition',#21,'design');
#16=PRODUCT_DEFINITION_FORMATION_WITH_SPECIFIED_SOURCE(' ',' ',#18,
 .NOT_KNOWN.);
#17=PRODUCT_RELATED_PRODUCT_CATEGORY('part','',(#18));
#18=PRODUCT('featured_part_00754','featured_part_00754',' ',(#19));
#19=PRODUCT_CONTEXT(' ',#21,'mechanical');
#20=APPLICATION_PROTOCOL_DEFINITION('international standard',
'automotive_design',2010,#21);
#21=APPLICATION_CONTEXT(
'core data for automotive mechanical design processes');
#22=SHAPE_REPRESENTATION('featured_part_00754-None',(#476),#771);
#23=PRESENTATION_LAYER_ASSIGNMENT('1','Layer 1',(#32));
#24=STYLED_ITEM('',(#25),#32);
#25=PRESENTATION_STYLE_ASSIGNMENT((#26));
#26=SURFACE_STYLE_USAGE(.BOTH.,#27);
#27=SURFACE_SIDE_STYLE('',(#28));
#28=SURFACE_STYLE_FILL_AREA(#29);
#29=FILL_AREA_STYLE('',(#30));
#30=FILL_AREA_STYLE_COLOUR('',#31);
#31=COLOUR_RGB('medium steel',0.611764705882353,0.658823529411765,0.670588235294118);
#32=MANIFOLD_SOLID_BREP('',#33);
#33=CLOSED_SHELL('',(#61,#62,#63,#64,#65,#66,#67,#68,#69,#70,#71,#72,#73,
#74,#75,#76,#77,#78,#79,#80,#81,#82,#83,#84));
#34=CYLINDRICAL_SURFACE('',#495,11.5);
#35=CYLINDRICAL_SURFACE('',#505,4.8);
#36=CYLINDRICAL_SURFACE('',#506,4.8);
#37=CYLINDRICAL_SURFACE('',#507,4.8);
#38=CYLINDRICAL_SURFACE('',#508,4.8);
#39=CYLINDRICAL_SURFACE('',#513,8.3);
#40=CYLINDRICAL_SURFACE('',#514,6.95);
#41=FACE_OUTER_BOUND('',#208,.T.);
#42=FACE_OUTER_BOUND('',#209,.T.);
#43=FACE_OUTER_BOUND('',#210,.T.);
#44=FACE_OUTER_BOUND('',#213,.T.);
#45=FACE_OUTER_BOUND('',#214,.T.);
#46=FACE_OUTER_BOUND('',#217,.T.);
#47=FACE_OUTER_BOUND('',#218,.T.);
#48=FACE_OUTER_BOUND('',#219,.T.);
#49=FACE_OUTER_BOUND('',#220,.T.);
#50=FACE_OUTER_BOUND('',#221,.T.);
#51=FACE_OUTER_BOUND('',#222,.T.);
#52=FACE_OUTER_BOUND('',#223,.T.);
#53=FACE_OUTER_BOUND('',#224,.T.);
#54=FACE_OUTER_BOUND('',#225,.T.);
#55=FACE_OUTER_BOUND('',#226,.T.);
#56=FACE_OUTER_BOUND('',#227,.T.);
#57=FACE_OUTER_BOUND('',#228,.T.);
#58=FACE_OUTER_BOUND('',#229,.T.);
#59=FACE_OUTER_BOUND('',#230,.T.);
#60=FACE_OUTER_BOUND('',#231,.T.);
#61=ADVANCED_FACE('',(#198,#199),#85,.T.);
#62=ADVANCED_FACE('',(#41),#86,.T.);
#63=ADVANCED_FACE('',(#42),#87,.T.);
#64=ADVANCED_FACE('',(#43),#88,.T.);
#65=ADVANCED_FACE('',(#200,#201),#89,.T.);
#66=ADVANCED_FACE('',(#44),#90,.T.);
#67=ADVANCED_FACE('',(#45),#91,.F.);
#68=ADVANCED_FACE('',(#202,#203),#92,.F.);
#69=ADVANCED_FACE('',(#46),#93,.F.);
#70=ADVANCED_FACE('',(#47),#34,.F.);
#71=ADVANCED_FACE('',(#48),#94,.F.);
#72=ADVANCED_FACE('',(#49),#95,.F.);
#73=ADVANCED_FACE('',(#50),#96,.F.);
#74=ADVANCED_FACE('',(#51),#97,.F.);
#75=ADVANCED_FACE('',(#52),#98,.F.);
#76=ADVANCED_FACE('',(#53),#35,.F.);
#77=ADVANCED_FACE('',(#54),#36,.F.);
#78=ADVANCED_FACE('',(#55),#37,.F.);
#79=ADVANCED_FACE('',(#56),#38,.F.);
#80=ADVANCED_FACE('',(#57),#99,.F.);
#81=ADVANCED_FACE('',(#58),#100,.F.);
#82=ADVANCED_FACE('',(#59),#101,.F.);
#83=ADVANCED_FACE('',(#60),#39,.F.);
#84=ADVANCED_FACE('',(#204,#205),#40,.F.);
#85=PLANE('',#480);
#86=PLANE('',#481);
#87=PLANE('',#482);
#88=PLANE('',#483);
#89=PLANE('',#485);
#90=PLANE('',#486);
#91=PLANE('',#487);
#92=PLANE('',#493);
#93=PLANE('',#494);
#94=PLANE('',#496);
#95=PLANE('',#497);
#96=PLANE('',#498);
#97=PLANE('',#499);
#98=PLANE('',#504);
#99=PLANE('',#509);
#100=PLANE('',#510);
#101=PLANE('',#512);
#102=LINE('',#644,#150);
#103=LINE('',#649,#151);
#104=LINE('',#651,#152);
#105=LINE('',#653,#153);
#106=LINE('',#655,#154);
#107=LINE('',#657,#155);
#108=LINE('',#661,#156);
#109=LINE('',#663,#157);
#110=LINE('',#665,#158);
#111=LINE('',#667,#159);
#112=LINE('',#669,#160);
#113=LINE('',#671,#161);
#114=LINE('',#673,#162);
#115=LINE('',#675,#163);
#116=LINE('',#677,#164);
#117=LINE('',#679,#165);
#118=LINE('',#681,#166);
#119=LINE('',#683,#167);
#120=LINE('',#684,#168);
#121=LINE('',#686,#169);
#122=LINE('',#688,#170);
#123=LINE('',#692,#171);
#124=LINE('',#694,#172);
#125=LINE('',#696,#173);
#126=LINE('',#698,#174);
#127=LINE('',#700,#175);
#128=LINE('',#702,#176);
#129=LINE('',#707,#177);
#130=LINE('',#711,#178);
#131=LINE('',#715,#179);
#132=LINE('',#718,#180);
#133=LINE('',#722,#181);
#134=LINE('',#725,#182);
#135=LINE('',#727,#183);
#136=LINE('',#729,#184);
#137=LINE('',#731,#185);
#138=LINE('',#734,#186);
#139=LINE('',#735,#187);
#140=LINE('',#737,#188);
#141=LINE('',#740,#189);
#142=LINE('',#741,#190);
#143=LINE('',#743,#191);
#144=LINE('',#745,#192);
#145=LINE('',#747,#193);
#146=LINE('',#758,#194);
#147=LINE('',#760,#195);
#148=LINE('',#762,#196);
#149=LINE('',#764,#197);
#150=VECTOR('',#519,1.);
#151=VECTOR('',#522,1.);
#152=VECTOR('',#523,1.);
#153=VECTOR('',#524,1.);
#154=VECTOR('',#525,1.);
#155=VECTOR('',#526,1.);
#156=VECTOR('',#529,1.);
#157=VECTOR('',#530,1.);
#158=VECTOR('',#533,1.);
#159=VECTOR('',#534,1.);
#160=VECTOR('',#535,1.);
#161=VECTOR('',#536,1.);
#162=VECTOR('',#537,1.);
#163=VECTOR('',#538,1.);
#164=VECTOR('',#539,1.);
#165=VECTOR('',#542,1.);
#166=VECTOR('',#543,1.);
#167=VECTOR('',#544,1.);
#168=VECTOR('',#545,1.);
#169=VECTOR('',#548,1.);
#170=VECTOR('',#549,1.);
#171=VECTOR('',#554,1.);
#172=VECTOR('',#557,1.);
#173=VECTOR('',#558,1.);
#174=VECTOR('',#561,1.);
#175=VECTOR('',#562,1.);
#176=VECTOR('',#565,1.);
#177=VECTOR('',#568,1.);
#178=VECTOR('',#571,1.);
#179=VECTOR('',#574,1.);
#180=VECTOR('',#577,1.);
#181=VECTOR('',#582,1.);
#182=VECTOR('',#587,1.);
#183=VECTOR('',#588,1.);
#184=VECTOR('',#589,1.);
#185=VECTOR('',#592,1.);
#186=VECTOR('',#593,1.);
#187=VECTOR('',#594,1.);
#188=VECTOR('',#597,1.);
#189=VECTOR('',#598,1.);
#190=VECTOR('',#599,1.);
#191=VECTOR('',#602,1.);
#192=VECTOR('',#603,1.);
#193=VECTOR('',#604,1.);
#194=VECTOR('',#625,1.);
#195=VECTOR('',#626,1.);
#196=VECTOR('',#629,1.);
#197=VECTOR('',#630,1.);
#198=FACE_BOUND('',#206,.T.);
#199=FACE_BOUND('',#207,.T.);
#200=FACE_BOUND('',#211,.T.);
#201=FACE_BOUND('',#212,.T.);
#202=FACE_BOUND('',#215,.T.);
#203=FACE_BOUND('',#216,.T.);
#204=FACE_BOUND('',#232,.T.);
#205=FACE_BOUND('',#233,.T.);
#206=EDGE_LOOP('',(#234));
#207=EDGE_LOOP('',(#235,#236,#237,#238,#239,#240,#241,#242,#243,#244));
#208=EDGE_LOOP('',(#245,#246,#247,#248,#249,#250,#251,#252));
#209=EDGE_LOOP('',(#253,#254,#255,#256,#257,#258));
#210=EDGE_LOOP('',(#259,#260,#261,#262));
#211=EDGE_LOOP('',(#263));
#212=EDGE_LOOP('',(#264,#265,#266,#267));
#213=EDGE_LOOP('',(#268,#269,#270,#271,#272,#273));
#214=EDGE_LOOP('',(#274,#275,#276,#277));
#215=EDGE_LOOP('',(#278,#279,#280,#281,#282,#283,#284,#285));
#216=EDGE_LOOP('',(#286,#287,#288,#289,#290));
#217=EDGE_LOOP('',(#291,#292,#293,#294));
#218=EDGE_LOOP('',(#295,#296,#297,#298));
#219=EDGE_LOOP('',(#299,#300,#301,#302));
#220=EDGE_LOOP('',(#303,#304,#305,#306));
#221=EDGE_LOOP('',(#307,#308,#309,#310));
#222=EDGE_LOOP('',(#311,#312,#313,#314));
#223=EDGE_LOOP('',(#315,#316,#317,#318,#319,#320,#321,#322));
#224=EDGE_LOOP('',(#323,#324,#325,#326));
#225=EDGE_LOOP('',(#327,#328,#329,#330));
#226=EDGE_LOOP('',(#331,#332,#333,#334));
#227=EDGE_LOOP('',(#335,#336,#337,#338));
#228=EDGE_LOOP('',(#339,#340,#341,#342));
#229=EDGE_LOOP('',(#343,#344,#345,#346));
#230=EDGE_LOOP('',(#347,#348,#349,#350,#351));
#231=EDGE_LOOP('',(#352,#353,#354,#355));
#232=EDGE_LOOP('',(#356));
#233=EDGE_LOOP('',(#357));
#234=ORIENTED_EDGE('',*,*,#400,.F.);
#235=ORIENTED_EDGE('',*,*,#401,.F.);
#236=ORIENTED_EDGE('',*,*,#402,.T.);
#237=ORIENTED_EDGE('',*,*,#403,.F.);
#238=ORIENTED_EDGE('',*,*,#404,.F.);
#239=ORIENTED_EDGE('',*,*,#405,.F.);
#240=ORIENTED_EDGE('',*,*,#406,.F.);
#241=ORIENTED_EDGE('',*,*,#407,.F.);
#242=ORIENTED_EDGE('',*,*,#408,.T.);
#243=ORIENTED_EDGE('',*,*,#409,.F.);
#244=ORIENTED_EDGE('',*,*,#410,.F.);
#245=ORIENTED_EDGE('',*,*,#411,.T.);
#246=ORIENTED_EDGE('',*,*,#410,.T.);
#247=ORIENTED_EDGE('',*,*,#412,.F.);
#248=ORIENTED_EDGE('',*,*,#413,.F.);
#249=ORIENTED_EDGE('',*,*,#414,.F.);
#250=ORIENTED_EDGE('',*,*,#415,.T.);
#251=ORIENTED_EDGE('',*,*,#416,.T.);
#252=ORIENTED_EDGE('',*,*,#417,.F.);
#253=ORIENTED_EDGE('',*,*,#418,.T.);
#254=ORIENTED_EDGE('',*,*,#406,.T.);
#255=ORIENTED_EDGE('',*,*,#419,.F.);
#256=ORIENTED_EDGE('',*,*,#420,.T.);
#257=ORIENTED_EDGE('',*,*,#414,.T.);
#258=ORIENTED_EDGE('',*,*,#421,.F.);
#259=ORIENTED_EDGE('',*,*,#419,.T.);
#260=ORIENTED_EDGE('',*,*,#405,.T.);
#261=ORIENTED_EDGE('',*,*,#422,.F.);
#262=ORIENTED_EDGE('',*,*,#423,.T.);
#263=ORIENTED_EDGE('',*,*,#424,.F.);
#264=ORIENTED_EDGE('',*,*,#425,.F.);
#265=ORIENTED_EDGE('',*,*,#415,.F.);
#266=ORIENTED_EDGE('',*,*,#420,.F.);
#267=ORIENTED_EDGE('',*,*,#423,.F.);
#268=ORIENTED_EDGE('',*,*,#426,.F.);
#269=ORIENTED_EDGE('',*,*,#427,.F.);
#270=ORIENTED_EDGE('',*,*,#416,.F.);
#271=ORIENTED_EDGE('',*,*,#425,.T.);
#272=ORIENTED_EDGE('',*,*,#422,.T.);
#273=ORIENTED_EDGE('',*,*,#404,.T.);
#274=ORIENTED_EDGE('',*,*,#428,.T.);
#275=ORIENTED_EDGE('',*,*,#429,.T.);
#276=ORIENTED_EDGE('',*,*,#407,.T.);
#277=ORIENTED_EDGE('',*,*,#418,.F.);
#278=ORIENTED_EDGE('',*,*,#430,.T.);
#279=ORIENTED_EDGE('',*,*,#431,.T.);
#280=ORIENTED_EDGE('',*,*,#432,.T.);
#281=ORIENTED_EDGE('',*,*,#433,.T.);
#282=ORIENTED_EDGE('',*,*,#434,.T.);
#283=ORIENTED_EDGE('',*,*,#435,.T.);
#284=ORIENTED_EDGE('',*,*,#436,.T.);
#285=ORIENTED_EDGE('',*,*,#437,.T.);
#286=ORIENTED_EDGE('',*,*,#438,.F.);
#287=ORIENTED_EDGE('',*,*,#439,.T.);
#288=ORIENTED_EDGE('',*,*,#428,.F.);
#289=ORIENTED_EDGE('',*,*,#421,.T.);
#290=ORIENTED_EDGE('',*,*,#413,.T.);
#291=ORIENTED_EDGE('',*,*,#409,.T.);
#292=ORIENTED_EDGE('',*,*,#440,.T.);
#293=ORIENTED_EDGE('',*,*,#438,.T.);
#294=ORIENTED_EDGE('',*,*,#412,.T.);
#295=ORIENTED_EDGE('',*,*,#408,.F.);
#296=ORIENTED_EDGE('',*,*,#429,.F.);
#297=ORIENTED_EDGE('',*,*,#439,.F.);
#298=ORIENTED_EDGE('',*,*,#440,.F.);
#299=ORIENTED_EDGE('',*,*,#434,.F.);
#300=ORIENTED_EDGE('',*,*,#441,.T.);
#301=ORIENTED_EDGE('',*,*,#442,.T.);
#302=ORIENTED_EDGE('',*,*,#443,.T.);
#303=ORIENTED_EDGE('',*,*,#444,.T.);
#304=ORIENTED_EDGE('',*,*,#445,.T.);
#305=ORIENTED_EDGE('',*,*,#436,.F.);
#306=ORIENTED_EDGE('',*,*,#446,.T.);
#307=ORIENTED_EDGE('',*,*,#447,.T.);
#308=ORIENTED_EDGE('',*,*,#448,.T.);
#309=ORIENTED_EDGE('',*,*,#430,.F.);
#310=ORIENTED_EDGE('',*,*,#449,.T.);
#311=ORIENTED_EDGE('',*,*,#432,.F.);
#312=ORIENTED_EDGE('',*,*,#450,.T.);
#313=ORIENTED_EDGE('',*,*,#451,.T.);
#314=ORIENTED_EDGE('',*,*,#452,.T.);
#315=ORIENTED_EDGE('',*,*,#451,.F.);
#316=ORIENTED_EDGE('',*,*,#453,.T.);
#317=ORIENTED_EDGE('',*,*,#447,.F.);
#318=ORIENTED_EDGE('',*,*,#454,.T.);
#319=ORIENTED_EDGE('',*,*,#444,.F.);
#320=ORIENTED_EDGE('',*,*,#455,.T.);
#321=ORIENTED_EDGE('',*,*,#442,.F.);
#322=ORIENTED_EDGE('',*,*,#456,.T.);
#323=ORIENTED_EDGE('',*,*,#431,.F.);
#324=ORIENTED_EDGE('',*,*,#448,.F.);
#325=ORIENTED_EDGE('',*,*,#453,.F.);
#326=ORIENTED_EDGE('',*,*,#450,.F.);
#327=ORIENTED_EDGE('',*,*,#433,.F.);
#328=ORIENTED_EDGE('',*,*,#452,.F.);
#329=ORIENTED_EDGE('',*,*,#456,.F.);
#330=ORIENTED_EDGE('',*,*,#441,.F.);
#331=ORIENTED_EDGE('',*,*,#437,.F.);
#332=ORIENTED_EDGE('',*,*,#445,.F.);
#333=ORIENTED_EDGE('',*,*,#454,.F.);
#334=ORIENTED_EDGE('',*,*,#449,.F.);
#335=ORIENTED_EDGE('',*,*,#435,.F.);
#336=ORIENTED_EDGE('',*,*,#443,.F.);
#337=ORIENTED_EDGE('',*,*,#455,.F.);
#338=ORIENTED_EDGE('',*,*,#446,.F.);
#339=ORIENTED_EDGE('',*,*,#457,.T.);
#340=ORIENTED_EDGE('',*,*,#458,.T.);
#341=ORIENTED_EDGE('',*,*,#401,.T.);
#342=ORIENTED_EDGE('',*,*,#411,.F.);
#343=ORIENTED_EDGE('',*,*,#403,.T.);
#344=ORIENTED_EDGE('',*,*,#459,.T.);
#345=ORIENTED_EDGE('',*,*,#460,.T.);
#346=ORIENTED_EDGE('',*,*,#426,.T.);
#347=ORIENTED_EDGE('',*,*,#460,.F.);
#348=ORIENTED_EDGE('',*,*,#461,.T.);
#349=ORIENTED_EDGE('',*,*,#457,.F.);
#350=ORIENTED_EDGE('',*,*,#417,.T.);
#351=ORIENTED_EDGE('',*,*,#427,.T.);
#352=ORIENTED_EDGE('',*,*,#402,.F.);
#353=ORIENTED_EDGE('',*,*,#458,.F.);
#354=ORIENTED_EDGE('',*,*,#461,.F.);
#355=ORIENTED_EDGE('',*,*,#459,.F.);
#356=ORIENTED_EDGE('',*,*,#400,.T.);
#357=ORIENTED_EDGE('',*,*,#424,.T.);
#358=VERTEX_POINT('',#643);
#359=VERTEX_POINT('',#645);
#360=VERTEX_POINT('',#646);
#361=VERTEX_POINT('',#648);
#362=VERTEX_POINT('',#650);
#363=VERTEX_POINT('',#652);
#364=VERTEX_POINT('',#654);
#365=VERTEX_POINT('',#656);
#366=VERTEX_POINT('',#658);
#367=VERTEX_POINT('',#660);
#368=VERTEX_POINT('',#662);
#369=VERTEX_POINT('',#666);
#370=VERTEX_POINT('',#668);
#371=VERTEX_POINT('',#670);
#372=VERTEX_POINT('',#672);
#373=VERTEX_POINT('',#674);
#374=VERTEX_POINT('',#676);
#375=VERTEX_POINT('',#680);
#376=VERTEX_POINT('',#682);
#377=VERTEX_POINT('',#687);
#378=VERTEX_POINT('',#691);
#379=VERTEX_POINT('',#695);
#380=VERTEX_POINT('',#699);
#381=VERTEX_POINT('',#703);
#382=VERTEX_POINT('',#704);
#383=VERTEX_POINT('',#706);
#384=VERTEX_POINT('',#708);
#385=VERTEX_POINT('',#710);
#386=VERTEX_POINT('',#712);
#387=VERTEX_POINT('',#714);
#388=VERTEX_POINT('',#716);
#389=VERTEX_POINT('',#719);
#390=VERTEX_POINT('',#726);
#391=VERTEX_POINT('',#728);
#392=VERTEX_POINT('',#732);
#393=VERTEX_POINT('',#733);
#394=VERTEX_POINT('',#738);
#395=VERTEX_POINT('',#739);
#396=VERTEX_POINT('',#744);
#397=VERTEX_POINT('',#746);
#398=VERTEX_POINT('',#759);
#399=VERTEX_POINT('',#763);
#400=EDGE_CURVE('',#358,#358,#462,.T.);
#401=EDGE_CURVE('',#359,#360,#102,.T.);
#402=EDGE_CURVE('',#359,#361,#463,.T.);
#403=EDGE_CURVE('',#362,#361,#103,.T.);
#404=EDGE_CURVE('',#363,#362,#104,.T.);
#405=EDGE_CURVE('',#364,#363,#105,.T.);
#406=EDGE_CURVE('',#365,#364,#106,.T.);
#407=EDGE_CURVE('',#366,#365,#107,.T.);
#408=EDGE_CURVE('',#366,#367,#464,.T.);
#409=EDGE_CURVE('',#368,#367,#108,.T.);
#410=EDGE_CURVE('',#360,#368,#109,.T.);
#411=EDGE_CURVE('',#369,#360,#110,.T.);
#412=EDGE_CURVE('',#370,#368,#111,.T.);
#413=EDGE_CURVE('',#371,#370,#112,.T.);
#414=EDGE_CURVE('',#372,#371,#113,.T.);
#415=EDGE_CURVE('',#372,#373,#114,.T.);
#416=EDGE_CURVE('',#373,#374,#115,.T.);
#417=EDGE_CURVE('',#369,#374,#116,.T.);
#418=EDGE_CURVE('',#375,#365,#117,.T.);
#419=EDGE_CURVE('',#376,#364,#118,.T.);
#420=EDGE_CURVE('',#376,#372,#119,.T.);
#421=EDGE_CURVE('',#375,#371,#120,.T.);
#422=EDGE_CURVE('',#377,#363,#121,.T.);
#423=EDGE_CURVE('',#377,#376,#122,.T.);
#424=EDGE_CURVE('',#378,#378,#465,.T.);
#425=EDGE_CURVE('',#373,#377,#123,.T.);
#426=EDGE_CURVE('',#379,#362,#124,.T.);
#427=EDGE_CURVE('',#374,#379,#125,.T.);
#428=EDGE_CURVE('',#375,#380,#126,.T.);
#429=EDGE_CURVE('',#380,#366,#127,.T.);
#430=EDGE_CURVE('',#381,#382,#128,.T.);
#431=EDGE_CURVE('',#382,#383,#466,.T.);
#432=EDGE_CURVE('',#383,#384,#129,.T.);
#433=EDGE_CURVE('',#384,#385,#467,.T.);
#434=EDGE_CURVE('',#385,#386,#130,.T.);
#435=EDGE_CURVE('',#386,#387,#468,.T.);
#436=EDGE_CURVE('',#387,#388,#131,.T.);
#437=EDGE_CURVE('',#388,#381,#469,.T.);
#438=EDGE_CURVE('',#389,#370,#132,.T.);
#439=EDGE_CURVE('',#389,#380,#470,.T.);
#440=EDGE_CURVE('',#367,#389,#133,.T.);
#441=EDGE_CURVE('',#385,#390,#134,.T.);
#442=EDGE_CURVE('',#390,#391,#135,.T.);
#443=EDGE_CURVE('',#391,#386,#136,.T.);
#444=EDGE_CURVE('',#392,#393,#137,.T.);
#445=EDGE_CURVE('',#393,#388,#138,.T.);
#446=EDGE_CURVE('',#387,#392,#139,.T.);
#447=EDGE_CURVE('',#394,#395,#140,.T.);
#448=EDGE_CURVE('',#395,#382,#141,.T.);
#449=EDGE_CURVE('',#381,#394,#142,.T.);
#450=EDGE_CURVE('',#383,#396,#143,.T.);
#451=EDGE_CURVE('',#396,#397,#144,.T.);
#452=EDGE_CURVE('',#397,#384,#145,.T.);
#453=EDGE_CURVE('',#396,#395,#471,.T.);
#454=EDGE_CURVE('',#394,#393,#472,.T.);
#455=EDGE_CURVE('',#392,#391,#473,.T.);
#456=EDGE_CURVE('',#390,#397,#474,.T.);
#457=EDGE_CURVE('',#369,#398,#146,.T.);
#458=EDGE_CURVE('',#398,#359,#147,.T.);
#459=EDGE_CURVE('',#361,#399,#148,.T.);
#460=EDGE_CURVE('',#399,#379,#149,.T.);
#461=EDGE_CURVE('',#399,#398,#475,.T.);
#462=CIRCLE('',#477,6.95);
#463=CIRCLE('',#478,8.3);
#464=CIRCLE('',#479,11.5);
#465=CIRCLE('',#484,6.95);
#466=CIRCLE('',#488,4.8);
#467=CIRCLE('',#489,4.8);
#468=CIRCLE('',#490,4.8);
#469=CIRCLE('',#491,4.8);
#470=CIRCLE('',#492,11.5);
#471=CIRCLE('',#500,4.8);
#472=CIRCLE('',#501,4.8);
#473=CIRCLE('',#502,4.8);
#474=CIRCLE('',#503,4.8);
#475=CIRCLE('',#511,8.3);
#476=AXIS2_PLACEMENT_3D('',#641,#515,#516);
#477=AXIS2_PLACEMENT_3D('',#642,#517,#518);
#478=AXIS2_PLACEMENT_3D('',#647,#520,#521);
#479=AXIS2_PLACEMENT_3D('',#659,#527,#528);
#480=AXIS2_PLACEMENT_3D('',#664,#531,#532);
#481=AXIS2_PLACEMENT_3D('',#678,#540,#541);
#482=AXIS2_PLACEMENT_3D('',#685,#546,#547);
#483=AXIS2_PLACEMENT_3D('',#689,#550,#551);
#484=AXIS2_PLACEMENT_3D('',#690,#552,#553);
#485=AXIS2_PLACEMENT_3D('',#693,#555,#556);
#486=AXIS2_PLACEMENT_3D('',#697,#559,#560);
#487=AXIS2_PLACEMENT_3D('',#701,#563,#564);
#488=AXIS2_PLACEMENT_3D('',#705,#566,#567);
#489=AXIS2_PLACEMENT_3D('',#709,#569,#570);
#490=AXIS2_PLACEMENT_3D('',#713,#572,#573);
#491=AXIS2_PLACEMENT_3D('',#717,#575,#576);
#492=AXIS2_PLACEMENT_3D('',#720,#578,#579);
#493=AXIS2_PLACEMENT_3D('',#721,#580,#581);
#494=AXIS2_PLACEMENT_3D('',#723,#583,#584);
#495=AXIS2_PLACEMENT_3D('',#724,#585,#586);
#496=AXIS2_PLACEMENT_3D('',#730,#590,#591);
#497=AXIS2_PLACEMENT_3D('',#736,#595,#596);
#498=AXIS2_PLACEMENT_3D('',#742,#600,#601);
#499=AXIS2_PLACEMENT_3D('',#748,#605,#606);
#500=AXIS2_PLACEMENT_3D('',#749,#607,#608);
#501=AXIS2_PLACEMENT_3D('',#750,#609,#610);
#502=AXIS2_PLACEMENT_3D('',#751,#611,#612);
#503=AXIS2_PLACEMENT_3D('',#752,#613,#614);
#504=AXIS2_PLACEMENT_3D('',#753,#615,#616);
#505=AXIS2_PLACEMENT_3D('',#754,#617,#618);
#506=AXIS2_PLACEMENT_3D('',#755,#619,#620);
#507=AXIS2_PLACEMENT_3D('',#756,#621,#622);
#508=AXIS2_PLACEMENT_3D('',#757,#623,#624);
#509=AXIS2_PLACEMENT_3D('',#761,#627,#628);
#510=AXIS2_PLACEMENT_3D('',#765,#631,#632);
#511=AXIS2_PLACEMENT_3D('',#766,#633,#634);
#512=AXIS2_PLACEMENT_3D('',#767,#635,#636);
#513=AXIS2_PLACEMENT_3D('',#768,#637,#638);
#514=AXIS2_PLACEMENT_3D('',#769,#639,#640);
#515=DIRECTION('',(0.,0.,1.));
#516=DIRECTION('',(1.,0.,0.));
#517=DIRECTION('',(0.,0.,1.));
#518=DIRECTION('',(1.,0.,0.));
#519=DIRECTION('',(0.,-1.,0.));
#520=DIRECTION('',(0.,0.,-1.));
#521=DIRECTION('',(0.999999999999997,0.,0.));
#522=DIRECTION('',(-1.,0.,0.));
#523=DIRECTION('',(0.,-1.,0.));
#524=DIRECTION('',(1.,0.,0.));
#525=DIRECTION('',(0.,1.,0.));
#526=DIRECTION('',(-1.,0.,0.));
#527=DIRECTION('',(0.,0.,-1.));
#528=DIRECTION('',(1.,0.,0.));
#529=DIRECTION('',(0.,1.,0.));
#530=DIRECTION('',(-1.,0.,0.));
#531=DIRECTION('',(0.,0.,1.));
#532=DIRECTION('',(1.,0.,0.));
#533=DIRECTION('',(0.,0.,1.));
#534=DIRECTION('',(0.,0.,1.));
#535=DIRECTION('',(1.,0.,0.));
#536=DIRECTION('',(0.,0.,1.));
#537=DIRECTION('',(1.,0.,0.));
#538=DIRECTION('',(0.,0.,1.));
#539=DIRECTION('',(1.,0.,0.));
#540=DIRECTION('',(0.,-1.,0.));
#541=DIRECTION('',(0.,0.,-1.));
#542=DIRECTION('',(0.,0.,1.));
#543=DIRECTION('',(0.,0.,1.));
#544=DIRECTION('',(0.,-1.,0.));
#545=DIRECTION('',(0.,-1.,0.));
#546=DIRECTION('',(-1.,0.,0.));
#547=DIRECTION('',(0.,0.,1.));
#548=DIRECTION('',(0.,0.,1.));
#549=DIRECTION('',(-1.,0.,0.));
#550=DIRECTION('',(0.,1.,0.));
#551=DIRECTION('',(0.,0.,1.));
#552=DIRECTION('',(0.,0.,-1.));
#553=DIRECTION('',(-1.,0.,0.));
#554=DIRECTION('',(0.,1.,0.));
#555=DIRECTION('',(0.,0.,-1.));
#556=DIRECTION('',(-1.,0.,0.));
#557=DIRECTION('',(0.,0.,1.));
#558=DIRECTION('',(0.,1.,0.));
#559=DIRECTION('',(1.,0.,0.));
#560=DIRECTION('',(0.,0.,-1.));
#561=DIRECTION('',(1.,0.,0.));
#562=DIRECTION('',(0.,0.,1.));
#563=DIRECTION('',(0.,1.,0.));
#564=DIRECTION('',(0.,0.,1.));
#565=DIRECTION('',(1.,0.,0.));
#566=DIRECTION('',(0.,0.,-1.));
#567=DIRECTION('',(-1.,0.,0.));
#568=DIRECTION('',(0.,-1.,0.));
#569=DIRECTION('',(0.,0.,-1.));
#570=DIRECTION('',(-1.,0.,0.));
#571=DIRECTION('',(-1.,0.,0.));
#572=DIRECTION('',(0.,0.,-1.));
#573=DIRECTION('',(-1.,0.,0.));
#574=DIRECTION('',(0.,1.,0.));
#575=DIRECTION('',(0.,0.,-1.));
#576=DIRECTION('',(-1.,0.,0.));
#577=DIRECTION('',(0.,-1.,0.));
#578=DIRECTION('',(0.,0.,1.));
#579=DIRECTION('',(-1.,0.,0.));
#580=DIRECTION('',(0.,0.,-1.));
#581=DIRECTION('',(-1.,0.,0.));
#582=DIRECTION('',(0.,0.,-1.));
#583=DIRECTION('',(1.,0.,0.));
#584=DIRECTION('',(0.,0.,-1.));
#585=DIRECTION('',(0.,0.,1.));
#586=DIRECTION('',(1.,0.,0.));
#587=DIRECTION('',(0.,0.,-1.));
#588=DIRECTION('',(-1.,0.,0.));
#589=DIRECTION('',(0.,0.,1.));
#590=DIRECTION('',(0.,-1.,0.));
#591=DIRECTION('',(0.,0.,-1.));
#592=DIRECTION('',(0.,1.,0.));
#593=DIRECTION('',(0.,0.,1.));
#594=DIRECTION('',(0.,0.,-1.));
#595=DIRECTION('',(-1.,0.,0.));
#596=DIRECTION('',(0.,0.,1.));
#597=DIRECTION('',(1.,0.,0.));
#598=DIRECTION('',(0.,0.,1.));
#599=DIRECTION('',(0.,0.,-1.));
#600=DIRECTION('',(0.,1.,0.));
#601=DIRECTION('',(0.,0.,1.));
#602=DIRECTION('',(0.,0.,-1.));
#603=DIRECTION('',(0.,-1.,0.));
#604=DIRECTION('',(0.,0.,1.));
#605=DIRECTION('',(1.,0.,0.));
#606=DIRECTION('',(0.,0.,-1.));
#607=DIRECTION('',(0.,0.,1.));
#608=DIRECTION('',(-1.,0.,0.));
#609=DIRECTION('',(0.,0.,1.));
#610=DIRECTION('',(-1.,0.,0.));
#611=DIRECTION('',(0.,0.,1.));
#612=DIRECTION('',(-1.,0.,0.));
#613=DIRECTION('',(0.,0.,1.));
#614=DIRECTION('',(-1.,0.,0.));
#615=DIRECTION('',(0.,0.,-1.));
#616=DIRECTION('',(-1.,0.,0.));
#617=DIRECTION('',(0.,0.,1.));
#618=DIRECTION('',(1.,0.,0.));
#619=DIRECTION('',(0.,0.,1.));
#620=DIRECTION('',(1.,0.,0.));
#621=DIRECTION('',(0.,0.,1.));
#622=DIRECTION('',(1.,0.,0.));
#623=DIRECTION('',(0.,0.,1.));
#624=DIRECTION('',(1.,0.,0.));
#625=DIRECTION('',(0.,1.,0.));
#626=DIRECTION('',(0.,0.,1.));
#627=DIRECTION('',(-1.,0.,0.));
#628=DIRECTION('',(0.,0.,1.));
#629=DIRECTION('',(0.,0.,-1.));
#630=DIRECTION('',(1.,0.,0.));
#631=DIRECTION('',(0.,1.,0.));
#632=DIRECTION('',(0.,0.,1.));
#633=DIRECTION('',(0.,0.,1.));
#634=DIRECTION('',(-0.999999999999997,0.,0.));
#635=DIRECTION('',(0.,0.,-1.));
#636=DIRECTION('',(-1.,0.,0.));
#637=DIRECTION('',(0.,0.,1.));
#638=DIRECTION('',(0.999999999999997,0.,0.));
#639=DIRECTION('',(0.,0.,-1.));
#640=DIRECTION('',(1.,0.,0.));
#641=CARTESIAN_POINT('',(0.,0.,0.));
#642=CARTESIAN_POINT('',(260.2,106.2,52.6));
#643=CARTESIAN_POINT('',(267.15,106.2,52.6));
#644=CARTESIAN_POINT('',(268.1,111.1,52.6));
#645=CARTESIAN_POINT('',(268.1,47.7,52.6));
#646=CARTESIAN_POINT('',(268.1,0.,52.6));
#647=CARTESIAN_POINT('',(276.4,47.7,52.6));
#648=CARTESIAN_POINT('',(276.4,56.,52.6));
#649=CARTESIAN_POINT('',(161.7,56.,52.6));
#650=CARTESIAN_POINT('',(323.4,56.,52.6));
#651=CARTESIAN_POINT('',(323.4,111.1,52.6));
#652=CARTESIAN_POINT('',(323.4,222.2,52.6));
#653=CARTESIAN_POINT('',(161.7,222.2,52.6));
#654=CARTESIAN_POINT('',(0.,222.2,52.6));
#655=CARTESIAN_POINT('',(0.,111.1,52.6));
#656=CARTESIAN_POINT('',(0.,50.3,52.6));
#657=CARTESIAN_POINT('',(161.7,50.3,52.6));
#658=CARTESIAN_POINT('',(69.8,50.3,52.6));
#659=CARTESIAN_POINT('',(69.8,38.8,52.6));
#660=CARTESIAN_POINT('',(81.3,38.8,52.6));
#661=CARTESIAN_POINT('',(81.3,111.1,52.6));
#662=CARTESIAN_POINT('',(81.3,0.,52.6));
#663=CARTESIAN_POINT('',(161.7,0.,52.6));
#664=CARTESIAN_POINT('',(161.7,111.1,52.6));
#665=CARTESIAN_POINT('',(268.1,0.,21.));
#666=CARTESIAN_POINT('',(268.1,0.,21.));
#667=CARTESIAN_POINT('',(81.3,0.,40.6));
#668=CARTESIAN_POINT('',(81.3,0.,40.6));
#669=CARTESIAN_POINT('',(40.65,0.,40.6));
#670=CARTESIAN_POINT('',(0.,0.,40.6));
#671=CARTESIAN_POINT('',(0.,0.,0.));
#672=CARTESIAN_POINT('',(0.,0.,0.));
#673=CARTESIAN_POINT('',(161.7,0.,0.));
#674=CARTESIAN_POINT('',(323.4,0.,0.));
#675=CARTESIAN_POINT('',(323.4,0.,0.));
#676=CARTESIAN_POINT('',(323.4,0.,21.));
#677=CARTESIAN_POINT('',(295.75,0.,21.));
#678=CARTESIAN_POINT('',(161.7,0.,0.));
#679=CARTESIAN_POINT('',(0.,50.3,40.6));
#680=CARTESIAN_POINT('',(0.,50.3,40.6));
#681=CARTESIAN_POINT('',(0.,222.2,0.));
#682=CARTESIAN_POINT('',(0.,222.2,0.));
#683=CARTESIAN_POINT('',(0.,111.1,0.));
#684=CARTESIAN_POINT('',(0.,25.15,40.6));
#685=CARTESIAN_POINT('',(0.,111.1,0.));
#686=CARTESIAN_POINT('',(323.4,222.2,0.));
#687=CARTESIAN_POINT('',(323.4,222.2,0.));
#688=CARTESIAN_POINT('',(161.7,222.2,0.));
#689=CARTESIAN_POINT('',(161.7,222.2,0.));
#690=CARTESIAN_POINT('',(260.2,106.2,0.));
#691=CARTESIAN_POINT('',(253.25,106.2,0.));
#692=CARTESIAN_POINT('',(323.4,111.1,0.));
#693=CARTESIAN_POINT('',(161.7,111.1,0.));
#694=CARTESIAN_POINT('',(323.4,56.,21.));
#695=CARTESIAN_POINT('',(323.4,56.,21.));
#696=CARTESIAN_POINT('',(323.4,28.,21.));
#697=CARTESIAN_POINT('',(323.4,111.1,0.));
#698=CARTESIAN_POINT('',(40.65,50.3,40.6));
#699=CARTESIAN_POINT('',(69.8,50.3,40.6));
#700=CARTESIAN_POINT('',(69.8,50.3,52.6));
#701=CARTESIAN_POINT('',(40.65,50.3,40.6));
#702=CARTESIAN_POINT('',(40.65,31.4,40.6));
#703=CARTESIAN_POINT('',(27.,31.4,40.6));
#704=CARTESIAN_POINT('',(42.6,31.4,40.6));
#705=CARTESIAN_POINT('',(42.6,26.6,40.6));
#706=CARTESIAN_POINT('',(47.4,26.6,40.6));
#707=CARTESIAN_POINT('',(47.4,25.15,40.6));
#708=CARTESIAN_POINT('',(47.4,19.7,40.6));
#709=CARTESIAN_POINT('',(42.6,19.7,40.6));
#710=CARTESIAN_POINT('',(42.6,14.9,40.6));
#711=CARTESIAN_POINT('',(40.65,14.9,40.6));
#712=CARTESIAN_POINT('',(27.,14.9,40.6));
#713=CARTESIAN_POINT('',(27.,19.7,40.6));
#714=CARTESIAN_POINT('',(22.2,19.7,40.6));
#715=CARTESIAN_POINT('',(22.2,25.15,40.6));
#716=CARTESIAN_POINT('',(22.2,26.6,40.6));
#717=CARTESIAN_POINT('',(27.,26.6,40.6));
#718=CARTESIAN_POINT('',(81.3,25.15,40.6));
#719=CARTESIAN_POINT('',(81.3,38.8,40.6));
#720=CARTESIAN_POINT('',(69.8,38.8,40.6));
#721=CARTESIAN_POINT('',(40.65,25.15,40.6));
#722=CARTESIAN_POINT('',(81.3,38.8,40.6));
#723=CARTESIAN_POINT('',(81.3,25.15,40.6));
#724=CARTESIAN_POINT('',(69.8,38.8,40.6));
#725=CARTESIAN_POINT('',(42.6,14.9,31.7));
#726=CARTESIAN_POINT('',(42.6,14.9,31.7));
#727=CARTESIAN_POINT('',(34.8,14.9,31.7));
#728=CARTESIAN_POINT('',(27.,14.9,31.7));
#729=CARTESIAN_POINT('',(27.,14.9,40.6));
#730=CARTESIAN_POINT('',(34.8,14.9,31.7));
#731=CARTESIAN_POINT('',(22.2,23.15,31.7));
#732=CARTESIAN_POINT('',(22.2,19.7,31.7));
#733=CARTESIAN_POINT('',(22.2,26.6,31.7));
#734=CARTESIAN_POINT('',(22.2,26.6,40.6));
#735=CARTESIAN_POINT('',(22.2,19.7,31.7));
#736=CARTESIAN_POINT('',(22.2,23.15,31.7));
#737=CARTESIAN_POINT('',(34.8,31.4,31.7));
#738=CARTESIAN_POINT('',(27.,31.4,31.7));
#739=CARTESIAN_POINT('',(42.6,31.4,31.7));
#740=CARTESIAN_POINT('',(42.6,31.4,40.6));
#741=CARTESIAN_POINT('',(27.,31.4,31.7));
#742=CARTESIAN_POINT('',(34.8,31.4,31.7));
#743=CARTESIAN_POINT('',(47.4,26.6,31.7));
#744=CARTESIAN_POINT('',(47.4,26.6,31.7));
#745=CARTESIAN_POINT('',(47.4,23.15,31.7));
#746=CARTESIAN_POINT('',(47.4,19.7,31.7));
#747=CARTESIAN_POINT('',(47.4,19.7,40.6));
#748=CARTESIAN_POINT('',(47.4,23.15,31.7));
#749=CARTESIAN_POINT('',(42.6,26.6,31.7));
#750=CARTESIAN_POINT('',(27.,26.6,31.7));
#751=CARTESIAN_POINT('',(27.,19.7,31.7));
#752=CARTESIAN_POINT('',(42.6,19.7,31.7));
#753=CARTESIAN_POINT('',(34.8,23.15,31.7));
#754=CARTESIAN_POINT('',(42.6,26.6,31.7));
#755=CARTESIAN_POINT('',(42.6,19.7,31.7));
#756=CARTESIAN_POINT('',(27.,26.6,31.7));
#757=CARTESIAN_POINT('',(27.,19.7,31.7));
#758=CARTESIAN_POINT('',(268.1,28.,21.));
#759=CARTESIAN_POINT('',(268.1,47.7,21.));
#760=CARTESIAN_POINT('',(268.1,47.7,52.6));
#761=CARTESIAN_POINT('',(268.1,28.,21.));
#762=CARTESIAN_POINT('',(276.4,56.,21.));
#763=CARTESIAN_POINT('',(276.4,56.,21.));
#764=CARTESIAN_POINT('',(295.75,56.,21.));
#765=CARTESIAN_POINT('',(295.75,56.,21.));
#766=CARTESIAN_POINT('',(276.4,47.7,21.));
#767=CARTESIAN_POINT('',(295.75,28.,21.));
#768=CARTESIAN_POINT('',(276.4,47.7,21.));
#769=CARTESIAN_POINT('',(260.2,106.2,52.65));
#770=MECHANICAL_DESIGN_GEOMETRIC_PRESENTATION_REPRESENTATION('',(#24),#771);
#771=(
GEOMETRIC_REPRESENTATION_CONTEXT(3)
GLOBAL_UNCERTAINTY_ASSIGNED_CONTEXT((#772))
GLOBAL_UNIT_ASSIGNED_CONTEXT((#778,#774,#773))
REPRESENTATION_CONTEXT('featured_part_00754','TOP_LEVEL_ASSEMBLY_PART')
);
#772=UNCERTAINTY_MEASURE_WITH_UNIT(LENGTH_MEASURE(2.E-5),#778,
'DISTANCE_ACCURACY_VALUE','Maximum Tolerance applied to model');
#773=(
NAMED_UNIT(*)
SI_UNIT($,.STERADIAN.)
SOLID_ANGLE_UNIT()
);
#774=(
CONVERSION_BASED_UNIT('DEGREE',#776)
NAMED_UNIT(#775)
PLANE_ANGLE_UNIT()
);
#775=DIMENSIONAL_EXPONENTS(0.,0.,0.,0.,0.,0.,0.);
#776=PLANE_ANGLE_MEASURE_WITH_UNIT(PLANE_ANGLE_MEASURE(0.0174532925),#777);
#777=(
NAMED_UNIT(*)
PLANE_ANGLE_UNIT()
SI_UNIT($,.RADIAN.)
);
#778=(
LENGTH_UNIT()
NAMED_UNIT(*)
SI_UNIT(.MILLI.,.METRE.)
);
ENDSEC;
END-ISO-10303-21;
