ISO-10303-21;
HEADER;
/* Generated by software containing ST-Developer
 * from STEP Tools, Inc. (www.steptools.com) 
 */
/* OPTION: using custom schema-name function */

FILE_DESCRIPTION(
/* description */ (''),
/* implementation_level */ '2;1');

FILE_NAME(
/* name */ 'featured_part_07180.stp',
/* time_stamp */ '2026-07-10T00:50:42-04:00',
/* author */ (''),
/* organization */ (''),
/* preprocessor_version */ 'ST-DEVELOPER v20.1',
/* originating_system */ 'SIEMENS PLM Software NX2512.6002',
/* authorisation */ '');

FILE_SCHEMA (('AUTOMOTIVE_DESIGN { 1 0 10303 214 3 1 1 1 }'));
ENDSEC;

DATA;
#10=SHAPE_REPRESENTATION_RELATIONSHIP('None',
'relationship between featured_part_07180-None and featured_part_07180
-None',#22,#11);
#11=ADVANCED_BREP_SHAPE_REPRESENTATION('featured_part_07180-None',(#32),
#1066);
#12=SHAPE_DEFINITION_REPRESENTATION(#13,#22);
#13=PRODUCT_DEFINITION_SHAPE('','',#14);
#14=PRODUCT_DEFINITION(' ','',#16,#15);
#15=PRODUCT_DEFINITION_CONTEXT('part definition',#21,'design');
#16=PRODUCT_DEFINITION_FORMATION_WITH_SPECIFIED_SOURCE(' ',' ',#18,
 .NOT_KNOWN.);
#17=PRODUCT_RELATED_PRODUCT_CATEGORY('part','',(#18));
#18=PRODUCT('featured_part_07180','featured_part_07180',' ',(#19));
#19=PRODUCT_CONTEXT(' ',#21,'mechanical');
#20=APPLICATION_PROTOCOL_DEFINITION('international standard',
'automotive_design',2010,#21);
#21=APPLICATION_CONTEXT(
'core data for automotive mechanical design processes');
#22=SHAPE_REPRESENTATION('featured_part_07180-None',(#645),#1066);
#23=PRESENTATION_LAYER_ASSIGNMENT('1','Layer 1',(#32));
#24=STYLED_ITEM('',(#25),#32);
#25=PRESENTATION_STYLE_ASSIGNMENT((#26));
#26=SURFACE_STYLE_USAGE(.BOTH.,#27);
#27=SURFACE_SIDE_STYLE('',(#28));
#28=SURFACE_STYLE_FILL_AREA(#29);
#29=FILL_AREA_STYLE('',(#30));
#30=FILL_AREA_STYLE_COLOUR('',#31);
#31=COLOUR_RGB('medium steel',0.611764705882353,0.658823529411765,0.670588235294118);
#32=MANIFOLD_SOLID_BREP('',#33);
#33=CLOSED_SHELL('',(#77,#78,#79,#80,#81,#82,#83,#84,#85,#86,#87,#88,#89,
#90,#91,#92,#93,#94,#95,#96,#97,#98,#99,#100,#101,#102,#103,#104,#105,#106,
#107,#108,#109,#110,#111));
#34=CYLINDRICAL_SURFACE('',#671,5.1);
#35=CYLINDRICAL_SURFACE('',#672,5.1);
#36=CYLINDRICAL_SURFACE('',#682,7.7);
#37=CYLINDRICAL_SURFACE('',#683,7.7);
#38=CYLINDRICAL_SURFACE('',#684,7.7);
#39=CYLINDRICAL_SURFACE('',#685,7.7);
#40=CYLINDRICAL_SURFACE('',#695,3.3);
#41=CYLINDRICAL_SURFACE('',#696,3.3);
#42=CYLINDRICAL_SURFACE('',#697,3.3);
#43=CYLINDRICAL_SURFACE('',#698,3.3);
#44=CYLINDRICAL_SURFACE('',#701,6.5);
#45=CYLINDRICAL_SURFACE('',#704,6.5);
#46=FACE_OUTER_BOUND('',#271,.T.);
#47=FACE_OUTER_BOUND('',#272,.T.);
#48=FACE_OUTER_BOUND('',#273,.T.);
#49=FACE_OUTER_BOUND('',#274,.T.);
#50=FACE_OUTER_BOUND('',#275,.T.);
#51=FACE_OUTER_BOUND('',#276,.T.);
#52=FACE_OUTER_BOUND('',#277,.T.);
#53=FACE_OUTER_BOUND('',#278,.T.);
#54=FACE_OUTER_BOUND('',#281,.T.);
#55=FACE_OUTER_BOUND('',#282,.T.);
#56=FACE_OUTER_BOUND('',#283,.T.);
#57=FACE_OUTER_BOUND('',#284,.T.);
#58=FACE_OUTER_BOUND('',#285,.T.);
#59=FACE_OUTER_BOUND('',#286,.T.);
#60=FACE_OUTER_BOUND('',#287,.T.);
#61=FACE_OUTER_BOUND('',#288,.T.);
#62=FACE_OUTER_BOUND('',#289,.T.);
#63=FACE_OUTER_BOUND('',#290,.T.);
#64=FACE_OUTER_BOUND('',#291,.T.);
#65=FACE_OUTER_BOUND('',#292,.T.);
#66=FACE_OUTER_BOUND('',#293,.T.);
#67=FACE_OUTER_BOUND('',#294,.T.);
#68=FACE_OUTER_BOUND('',#295,.T.);
#69=FACE_OUTER_BOUND('',#296,.T.);
#70=FACE_OUTER_BOUND('',#297,.T.);
#71=FACE_OUTER_BOUND('',#298,.T.);
#72=FACE_OUTER_BOUND('',#299,.T.);
#73=FACE_OUTER_BOUND('',#300,.T.);
#74=FACE_OUTER_BOUND('',#301,.T.);
#75=FACE_OUTER_BOUND('',#302,.T.);
#76=FACE_OUTER_BOUND('',#305,.T.);
#77=ADVANCED_FACE('',(#257,#258,#259,#260),#112,.T.);
#78=ADVANCED_FACE('',(#46),#113,.T.);
#79=ADVANCED_FACE('',(#47),#114,.T.);
#80=ADVANCED_FACE('',(#48),#115,.T.);
#81=ADVANCED_FACE('',(#49),#116,.T.);
#82=ADVANCED_FACE('',(#50),#117,.T.);
#83=ADVANCED_FACE('',(#51),#118,.F.);
#84=ADVANCED_FACE('',(#52),#119,.F.);
#85=ADVANCED_FACE('',(#53),#120,.F.);
#86=ADVANCED_FACE('',(#261,#262),#121,.F.);
#87=ADVANCED_FACE('',(#54),#122,.F.);
#88=ADVANCED_FACE('',(#55),#34,.F.);
#89=ADVANCED_FACE('',(#56),#35,.F.);
#90=ADVANCED_FACE('',(#57),#123,.F.);
#91=ADVANCED_FACE('',(#58),#124,.F.);
#92=ADVANCED_FACE('',(#59),#125,.F.);
#93=ADVANCED_FACE('',(#60),#126,.F.);
#94=ADVANCED_FACE('',(#61),#127,.F.);
#95=ADVANCED_FACE('',(#62),#36,.F.);
#96=ADVANCED_FACE('',(#63),#37,.F.);
#97=ADVANCED_FACE('',(#64),#38,.F.);
#98=ADVANCED_FACE('',(#65),#39,.F.);
#99=ADVANCED_FACE('',(#66),#128,.F.);
#100=ADVANCED_FACE('',(#67),#129,.F.);
#101=ADVANCED_FACE('',(#68),#130,.F.);
#102=ADVANCED_FACE('',(#69),#131,.F.);
#103=ADVANCED_FACE('',(#70),#132,.F.);
#104=ADVANCED_FACE('',(#71),#40,.F.);
#105=ADVANCED_FACE('',(#72),#41,.F.);
#106=ADVANCED_FACE('',(#73),#42,.F.);
#107=ADVANCED_FACE('',(#74),#43,.F.);
#108=ADVANCED_FACE('',(#75),#133,.F.);
#109=ADVANCED_FACE('',(#263,#264),#44,.F.);
#110=ADVANCED_FACE('',(#76),#134,.F.);
#111=ADVANCED_FACE('',(#265,#266),#45,.F.);
#112=PLANE('',#654);
#113=PLANE('',#655);
#114=PLANE('',#656);
#115=PLANE('',#657);
#116=PLANE('',#658);
#117=PLANE('',#659);
#118=PLANE('',#660);
#119=PLANE('',#661);
#120=PLANE('',#662);
#121=PLANE('',#669);
#122=PLANE('',#670);
#123=PLANE('',#673);
#124=PLANE('',#674);
#125=PLANE('',#675);
#126=PLANE('',#676);
#127=PLANE('',#681);
#128=PLANE('',#686);
#129=PLANE('',#687);
#130=PLANE('',#688);
#131=PLANE('',#693);
#132=PLANE('',#694);
#133=PLANE('',#700);
#134=PLANE('',#703);
#135=LINE('',#891,#196);
#136=LINE('',#896,#197);
#137=LINE('',#900,#198);
#138=LINE('',#904,#199);
#139=LINE('',#907,#200);
#140=LINE('',#912,#201);
#141=LINE('',#916,#202);
#142=LINE('',#918,#203);
#143=LINE('',#920,#204);
#144=LINE('',#922,#205);
#145=LINE('',#924,#206);
#146=LINE('',#926,#207);
#147=LINE('',#928,#208);
#148=LINE('',#930,#209);
#149=LINE('',#932,#210);
#150=LINE('',#934,#211);
#151=LINE('',#936,#212);
#152=LINE('',#937,#213);
#153=LINE('',#939,#214);
#154=LINE('',#941,#215);
#155=LINE('',#943,#216);
#156=LINE('',#945,#217);
#157=LINE('',#947,#218);
#158=LINE('',#949,#219);
#159=LINE('',#951,#220);
#160=LINE('',#953,#221);
#161=LINE('',#956,#222);
#162=LINE('',#958,#223);
#163=LINE('',#960,#224);
#164=LINE('',#963,#225);
#165=LINE('',#964,#226);
#166=LINE('',#966,#227);
#167=LINE('',#971,#228);
#168=LINE('',#975,#229);
#169=LINE('',#979,#230);
#170=LINE('',#982,#231);
#171=LINE('',#987,#232);
#172=LINE('',#991,#233);
#173=LINE('',#994,#234);
#174=LINE('',#995,#235);
#175=LINE('',#997,#236);
#176=LINE('',#1000,#237);
#177=LINE('',#1001,#238);
#178=LINE('',#1003,#239);
#179=LINE('',#1005,#240);
#180=LINE('',#1007,#241);
#181=LINE('',#1009,#242);
#182=LINE('',#1011,#243);
#183=LINE('',#1013,#244);
#184=LINE('',#1024,#245);
#185=LINE('',#1027,#246);
#186=LINE('',#1028,#247);
#187=LINE('',#1030,#248);
#188=LINE('',#1032,#249);
#189=LINE('',#1034,#250);
#190=LINE('',#1036,#251);
#191=LINE('',#1038,#252);
#192=LINE('',#1040,#253);
#193=LINE('',#1045,#254);
#194=LINE('',#1050,#255);
#195=LINE('',#1051,#256);
#196=VECTOR('',#711,1.);
#197=VECTOR('',#714,1.);
#198=VECTOR('',#717,1.);
#199=VECTOR('',#720,1.);
#200=VECTOR('',#723,1.);
#201=VECTOR('',#726,1.);
#202=VECTOR('',#729,1.);
#203=VECTOR('',#730,1.);
#204=VECTOR('',#731,1.);
#205=VECTOR('',#732,1.);
#206=VECTOR('',#733,1.);
#207=VECTOR('',#734,1.);
#208=VECTOR('',#737,1.);
#209=VECTOR('',#738,1.);
#210=VECTOR('',#739,1.);
#211=VECTOR('',#740,1.);
#212=VECTOR('',#741,1.);
#213=VECTOR('',#742,1.);
#214=VECTOR('',#743,1.);
#215=VECTOR('',#746,1.);
#216=VECTOR('',#747,1.);
#217=VECTOR('',#750,1.);
#218=VECTOR('',#751,1.);
#219=VECTOR('',#752,1.);
#220=VECTOR('',#755,1.);
#221=VECTOR('',#758,1.);
#222=VECTOR('',#763,1.);
#223=VECTOR('',#764,1.);
#224=VECTOR('',#767,1.);
#225=VECTOR('',#768,1.);
#226=VECTOR('',#769,1.);
#227=VECTOR('',#772,1.);
#228=VECTOR('',#775,1.);
#229=VECTOR('',#778,1.);
#230=VECTOR('',#781,1.);
#231=VECTOR('',#784,1.);
#232=VECTOR('',#791,1.);
#233=VECTOR('',#798,1.);
#234=VECTOR('',#799,1.);
#235=VECTOR('',#800,1.);
#236=VECTOR('',#803,1.);
#237=VECTOR('',#804,1.);
#238=VECTOR('',#805,1.);
#239=VECTOR('',#808,1.);
#240=VECTOR('',#809,1.);
#241=VECTOR('',#810,1.);
#242=VECTOR('',#813,1.);
#243=VECTOR('',#814,1.);
#244=VECTOR('',#815,1.);
#245=VECTOR('',#836,1.);
#246=VECTOR('',#837,1.);
#247=VECTOR('',#838,1.);
#248=VECTOR('',#841,1.);
#249=VECTOR('',#842,1.);
#250=VECTOR('',#843,1.);
#251=VECTOR('',#846,1.);
#252=VECTOR('',#847,1.);
#253=VECTOR('',#848,1.);
#254=VECTOR('',#855,1.);
#255=VECTOR('',#862,1.);
#256=VECTOR('',#863,1.);
#257=FACE_BOUND('',#267,.T.);
#258=FACE_BOUND('',#268,.T.);
#259=FACE_BOUND('',#269,.T.);
#260=FACE_BOUND('',#270,.T.);
#261=FACE_BOUND('',#279,.T.);
#262=FACE_BOUND('',#280,.T.);
#263=FACE_BOUND('',#303,.T.);
#264=FACE_BOUND('',#304,.T.);
#265=FACE_BOUND('',#306,.T.);
#266=FACE_BOUND('',#307,.T.);
#267=EDGE_LOOP('',(#308));
#268=EDGE_LOOP('',(#309));
#269=EDGE_LOOP('',(#310,#311,#312,#313,#314,#315,#316,#317));
#270=EDGE_LOOP('',(#318,#319,#320,#321,#322,#323,#324,#325,#326,#327));
#271=EDGE_LOOP('',(#328,#329,#330,#331,#332,#333,#334,#335,#336));
#272=EDGE_LOOP('',(#337,#338,#339,#340));
#273=EDGE_LOOP('',(#341,#342,#343,#344,#345));
#274=EDGE_LOOP('',(#346,#347,#348,#349));
#275=EDGE_LOOP('',(#350,#351,#352,#353));
#276=EDGE_LOOP('',(#354,#355,#356,#357));
#277=EDGE_LOOP('',(#358,#359,#360,#361));
#278=EDGE_LOOP('',(#362,#363,#364,#365));
#279=EDGE_LOOP('',(#366,#367,#368,#369,#370,#371,#372,#373));
#280=EDGE_LOOP('',(#374,#375,#376,#377,#378,#379));
#281=EDGE_LOOP('',(#380,#381,#382,#383));
#282=EDGE_LOOP('',(#384,#385,#386,#387));
#283=EDGE_LOOP('',(#388,#389,#390,#391));
#284=EDGE_LOOP('',(#392,#393,#394,#395));
#285=EDGE_LOOP('',(#396,#397,#398,#399));
#286=EDGE_LOOP('',(#400,#401,#402,#403));
#287=EDGE_LOOP('',(#404,#405,#406,#407));
#288=EDGE_LOOP('',(#408,#409,#410,#411,#412,#413,#414,#415));
#289=EDGE_LOOP('',(#416,#417,#418,#419));
#290=EDGE_LOOP('',(#420,#421,#422,#423));
#291=EDGE_LOOP('',(#424,#425,#426,#427));
#292=EDGE_LOOP('',(#428,#429,#430,#431));
#293=EDGE_LOOP('',(#432,#433,#434,#435));
#294=EDGE_LOOP('',(#436,#437,#438,#439));
#295=EDGE_LOOP('',(#440,#441,#442,#443));
#296=EDGE_LOOP('',(#444,#445,#446,#447,#448,#449,#450,#451));
#297=EDGE_LOOP('',(#452,#453,#454,#455));
#298=EDGE_LOOP('',(#456,#457,#458,#459));
#299=EDGE_LOOP('',(#460,#461,#462,#463));
#300=EDGE_LOOP('',(#464,#465,#466,#467));
#301=EDGE_LOOP('',(#468,#469,#470,#471));
#302=EDGE_LOOP('',(#472));
#303=EDGE_LOOP('',(#473));
#304=EDGE_LOOP('',(#474));
#305=EDGE_LOOP('',(#475));
#306=EDGE_LOOP('',(#476));
#307=EDGE_LOOP('',(#477));
#308=ORIENTED_EDGE('',*,*,#536,.F.);
#309=ORIENTED_EDGE('',*,*,#537,.F.);
#310=ORIENTED_EDGE('',*,*,#538,.F.);
#311=ORIENTED_EDGE('',*,*,#539,.T.);
#312=ORIENTED_EDGE('',*,*,#540,.F.);
#313=ORIENTED_EDGE('',*,*,#541,.T.);
#314=ORIENTED_EDGE('',*,*,#542,.F.);
#315=ORIENTED_EDGE('',*,*,#543,.T.);
#316=ORIENTED_EDGE('',*,*,#544,.F.);
#317=ORIENTED_EDGE('',*,*,#545,.T.);
#318=ORIENTED_EDGE('',*,*,#546,.F.);
#319=ORIENTED_EDGE('',*,*,#547,.T.);
#320=ORIENTED_EDGE('',*,*,#548,.F.);
#321=ORIENTED_EDGE('',*,*,#549,.T.);
#322=ORIENTED_EDGE('',*,*,#550,.F.);
#323=ORIENTED_EDGE('',*,*,#551,.F.);
#324=ORIENTED_EDGE('',*,*,#552,.T.);
#325=ORIENTED_EDGE('',*,*,#553,.F.);
#326=ORIENTED_EDGE('',*,*,#554,.F.);
#327=ORIENTED_EDGE('',*,*,#555,.F.);
#328=ORIENTED_EDGE('',*,*,#556,.T.);
#329=ORIENTED_EDGE('',*,*,#555,.T.);
#330=ORIENTED_EDGE('',*,*,#557,.F.);
#331=ORIENTED_EDGE('',*,*,#558,.T.);
#332=ORIENTED_EDGE('',*,*,#559,.T.);
#333=ORIENTED_EDGE('',*,*,#560,.T.);
#334=ORIENTED_EDGE('',*,*,#551,.T.);
#335=ORIENTED_EDGE('',*,*,#561,.F.);
#336=ORIENTED_EDGE('',*,*,#562,.F.);
#337=ORIENTED_EDGE('',*,*,#557,.T.);
#338=ORIENTED_EDGE('',*,*,#554,.T.);
#339=ORIENTED_EDGE('',*,*,#563,.F.);
#340=ORIENTED_EDGE('',*,*,#564,.T.);
#341=ORIENTED_EDGE('',*,*,#553,.T.);
#342=ORIENTED_EDGE('',*,*,#565,.T.);
#343=ORIENTED_EDGE('',*,*,#566,.F.);
#344=ORIENTED_EDGE('',*,*,#567,.T.);
#345=ORIENTED_EDGE('',*,*,#563,.T.);
#346=ORIENTED_EDGE('',*,*,#568,.F.);
#347=ORIENTED_EDGE('',*,*,#558,.F.);
#348=ORIENTED_EDGE('',*,*,#564,.F.);
#349=ORIENTED_EDGE('',*,*,#567,.F.);
#350=ORIENTED_EDGE('',*,*,#566,.T.);
#351=ORIENTED_EDGE('',*,*,#569,.T.);
#352=ORIENTED_EDGE('',*,*,#559,.F.);
#353=ORIENTED_EDGE('',*,*,#568,.T.);
#354=ORIENTED_EDGE('',*,*,#565,.F.);
#355=ORIENTED_EDGE('',*,*,#552,.F.);
#356=ORIENTED_EDGE('',*,*,#560,.F.);
#357=ORIENTED_EDGE('',*,*,#569,.F.);
#358=ORIENTED_EDGE('',*,*,#570,.T.);
#359=ORIENTED_EDGE('',*,*,#571,.T.);
#360=ORIENTED_EDGE('',*,*,#546,.T.);
#361=ORIENTED_EDGE('',*,*,#556,.F.);
#362=ORIENTED_EDGE('',*,*,#572,.T.);
#363=ORIENTED_EDGE('',*,*,#573,.T.);
#364=ORIENTED_EDGE('',*,*,#548,.T.);
#365=ORIENTED_EDGE('',*,*,#574,.T.);
#366=ORIENTED_EDGE('',*,*,#575,.T.);
#367=ORIENTED_EDGE('',*,*,#576,.T.);
#368=ORIENTED_EDGE('',*,*,#577,.T.);
#369=ORIENTED_EDGE('',*,*,#578,.T.);
#370=ORIENTED_EDGE('',*,*,#579,.T.);
#371=ORIENTED_EDGE('',*,*,#580,.T.);
#372=ORIENTED_EDGE('',*,*,#581,.T.);
#373=ORIENTED_EDGE('',*,*,#582,.T.);
#374=ORIENTED_EDGE('',*,*,#583,.F.);
#375=ORIENTED_EDGE('',*,*,#584,.T.);
#376=ORIENTED_EDGE('',*,*,#572,.F.);
#377=ORIENTED_EDGE('',*,*,#585,.T.);
#378=ORIENTED_EDGE('',*,*,#570,.F.);
#379=ORIENTED_EDGE('',*,*,#562,.T.);
#380=ORIENTED_EDGE('',*,*,#550,.T.);
#381=ORIENTED_EDGE('',*,*,#586,.T.);
#382=ORIENTED_EDGE('',*,*,#583,.T.);
#383=ORIENTED_EDGE('',*,*,#561,.T.);
#384=ORIENTED_EDGE('',*,*,#549,.F.);
#385=ORIENTED_EDGE('',*,*,#573,.F.);
#386=ORIENTED_EDGE('',*,*,#584,.F.);
#387=ORIENTED_EDGE('',*,*,#586,.F.);
#388=ORIENTED_EDGE('',*,*,#547,.F.);
#389=ORIENTED_EDGE('',*,*,#571,.F.);
#390=ORIENTED_EDGE('',*,*,#585,.F.);
#391=ORIENTED_EDGE('',*,*,#574,.F.);
#392=ORIENTED_EDGE('',*,*,#587,.T.);
#393=ORIENTED_EDGE('',*,*,#588,.T.);
#394=ORIENTED_EDGE('',*,*,#579,.F.);
#395=ORIENTED_EDGE('',*,*,#589,.T.);
#396=ORIENTED_EDGE('',*,*,#590,.T.);
#397=ORIENTED_EDGE('',*,*,#591,.T.);
#398=ORIENTED_EDGE('',*,*,#581,.F.);
#399=ORIENTED_EDGE('',*,*,#592,.T.);
#400=ORIENTED_EDGE('',*,*,#575,.F.);
#401=ORIENTED_EDGE('',*,*,#593,.T.);
#402=ORIENTED_EDGE('',*,*,#594,.T.);
#403=ORIENTED_EDGE('',*,*,#595,.T.);
#404=ORIENTED_EDGE('',*,*,#577,.F.);
#405=ORIENTED_EDGE('',*,*,#596,.T.);
#406=ORIENTED_EDGE('',*,*,#597,.T.);
#407=ORIENTED_EDGE('',*,*,#598,.T.);
#408=ORIENTED_EDGE('',*,*,#594,.F.);
#409=ORIENTED_EDGE('',*,*,#599,.T.);
#410=ORIENTED_EDGE('',*,*,#590,.F.);
#411=ORIENTED_EDGE('',*,*,#600,.T.);
#412=ORIENTED_EDGE('',*,*,#587,.F.);
#413=ORIENTED_EDGE('',*,*,#601,.T.);
#414=ORIENTED_EDGE('',*,*,#597,.F.);
#415=ORIENTED_EDGE('',*,*,#602,.T.);
#416=ORIENTED_EDGE('',*,*,#582,.F.);
#417=ORIENTED_EDGE('',*,*,#591,.F.);
#418=ORIENTED_EDGE('',*,*,#599,.F.);
#419=ORIENTED_EDGE('',*,*,#593,.F.);
#420=ORIENTED_EDGE('',*,*,#576,.F.);
#421=ORIENTED_EDGE('',*,*,#595,.F.);
#422=ORIENTED_EDGE('',*,*,#602,.F.);
#423=ORIENTED_EDGE('',*,*,#596,.F.);
#424=ORIENTED_EDGE('',*,*,#580,.F.);
#425=ORIENTED_EDGE('',*,*,#588,.F.);
#426=ORIENTED_EDGE('',*,*,#600,.F.);
#427=ORIENTED_EDGE('',*,*,#592,.F.);
#428=ORIENTED_EDGE('',*,*,#578,.F.);
#429=ORIENTED_EDGE('',*,*,#598,.F.);
#430=ORIENTED_EDGE('',*,*,#601,.F.);
#431=ORIENTED_EDGE('',*,*,#589,.F.);
#432=ORIENTED_EDGE('',*,*,#603,.T.);
#433=ORIENTED_EDGE('',*,*,#604,.T.);
#434=ORIENTED_EDGE('',*,*,#538,.T.);
#435=ORIENTED_EDGE('',*,*,#605,.T.);
#436=ORIENTED_EDGE('',*,*,#540,.T.);
#437=ORIENTED_EDGE('',*,*,#606,.T.);
#438=ORIENTED_EDGE('',*,*,#607,.T.);
#439=ORIENTED_EDGE('',*,*,#608,.T.);
#440=ORIENTED_EDGE('',*,*,#542,.T.);
#441=ORIENTED_EDGE('',*,*,#609,.T.);
#442=ORIENTED_EDGE('',*,*,#610,.T.);
#443=ORIENTED_EDGE('',*,*,#611,.T.);
#444=ORIENTED_EDGE('',*,*,#607,.F.);
#445=ORIENTED_EDGE('',*,*,#612,.T.);
#446=ORIENTED_EDGE('',*,*,#603,.F.);
#447=ORIENTED_EDGE('',*,*,#613,.T.);
#448=ORIENTED_EDGE('',*,*,#614,.F.);
#449=ORIENTED_EDGE('',*,*,#615,.T.);
#450=ORIENTED_EDGE('',*,*,#610,.F.);
#451=ORIENTED_EDGE('',*,*,#616,.T.);
#452=ORIENTED_EDGE('',*,*,#614,.T.);
#453=ORIENTED_EDGE('',*,*,#617,.T.);
#454=ORIENTED_EDGE('',*,*,#544,.T.);
#455=ORIENTED_EDGE('',*,*,#618,.T.);
#456=ORIENTED_EDGE('',*,*,#539,.F.);
#457=ORIENTED_EDGE('',*,*,#604,.F.);
#458=ORIENTED_EDGE('',*,*,#612,.F.);
#459=ORIENTED_EDGE('',*,*,#606,.F.);
#460=ORIENTED_EDGE('',*,*,#541,.F.);
#461=ORIENTED_EDGE('',*,*,#608,.F.);
#462=ORIENTED_EDGE('',*,*,#616,.F.);
#463=ORIENTED_EDGE('',*,*,#609,.F.);
#464=ORIENTED_EDGE('',*,*,#545,.F.);
#465=ORIENTED_EDGE('',*,*,#617,.F.);
#466=ORIENTED_EDGE('',*,*,#613,.F.);
#467=ORIENTED_EDGE('',*,*,#605,.F.);
#468=ORIENTED_EDGE('',*,*,#543,.F.);
#469=ORIENTED_EDGE('',*,*,#611,.F.);
#470=ORIENTED_EDGE('',*,*,#615,.F.);
#471=ORIENTED_EDGE('',*,*,#618,.F.);
#472=ORIENTED_EDGE('',*,*,#619,.F.);
#473=ORIENTED_EDGE('',*,*,#537,.T.);
#474=ORIENTED_EDGE('',*,*,#619,.T.);
#475=ORIENTED_EDGE('',*,*,#620,.F.);
#476=ORIENTED_EDGE('',*,*,#536,.T.);
#477=ORIENTED_EDGE('',*,*,#620,.T.);
#478=VERTEX_POINT('',#888);
#479=VERTEX_POINT('',#890);
#480=VERTEX_POINT('',#892);
#481=VERTEX_POINT('',#893);
#482=VERTEX_POINT('',#895);
#483=VERTEX_POINT('',#897);
#484=VERTEX_POINT('',#899);
#485=VERTEX_POINT('',#901);
#486=VERTEX_POINT('',#903);
#487=VERTEX_POINT('',#905);
#488=VERTEX_POINT('',#908);
#489=VERTEX_POINT('',#909);
#490=VERTEX_POINT('',#911);
#491=VERTEX_POINT('',#913);
#492=VERTEX_POINT('',#915);
#493=VERTEX_POINT('',#917);
#494=VERTEX_POINT('',#919);
#495=VERTEX_POINT('',#921);
#496=VERTEX_POINT('',#923);
#497=VERTEX_POINT('',#925);
#498=VERTEX_POINT('',#929);
#499=VERTEX_POINT('',#931);
#500=VERTEX_POINT('',#933);
#501=VERTEX_POINT('',#935);
#502=VERTEX_POINT('',#938);
#503=VERTEX_POINT('',#942);
#504=VERTEX_POINT('',#946);
#505=VERTEX_POINT('',#948);
#506=VERTEX_POINT('',#957);
#507=VERTEX_POINT('',#961);
#508=VERTEX_POINT('',#962);
#509=VERTEX_POINT('',#967);
#510=VERTEX_POINT('',#968);
#511=VERTEX_POINT('',#970);
#512=VERTEX_POINT('',#972);
#513=VERTEX_POINT('',#974);
#514=VERTEX_POINT('',#976);
#515=VERTEX_POINT('',#978);
#516=VERTEX_POINT('',#980);
#517=VERTEX_POINT('',#983);
#518=VERTEX_POINT('',#992);
#519=VERTEX_POINT('',#993);
#520=VERTEX_POINT('',#998);
#521=VERTEX_POINT('',#999);
#522=VERTEX_POINT('',#1004);
#523=VERTEX_POINT('',#1006);
#524=VERTEX_POINT('',#1010);
#525=VERTEX_POINT('',#1012);
#526=VERTEX_POINT('',#1025);
#527=VERTEX_POINT('',#1026);
#528=VERTEX_POINT('',#1031);
#529=VERTEX_POINT('',#1033);
#530=VERTEX_POINT('',#1037);
#531=VERTEX_POINT('',#1039);
#532=VERTEX_POINT('',#1044);
#533=VERTEX_POINT('',#1046);
#534=VERTEX_POINT('',#1058);
#535=VERTEX_POINT('',#1062);
#536=EDGE_CURVE('',#478,#478,#621,.T.);
#537=EDGE_CURVE('',#479,#479,#622,.T.);
#538=EDGE_CURVE('',#480,#481,#135,.T.);
#539=EDGE_CURVE('',#480,#482,#623,.T.);
#540=EDGE_CURVE('',#483,#482,#136,.T.);
#541=EDGE_CURVE('',#483,#484,#624,.T.);
#542=EDGE_CURVE('',#485,#484,#137,.T.);
#543=EDGE_CURVE('',#485,#486,#625,.T.);
#544=EDGE_CURVE('',#487,#486,#138,.T.);
#545=EDGE_CURVE('',#487,#481,#626,.T.);
#546=EDGE_CURVE('',#488,#489,#139,.T.);
#547=EDGE_CURVE('',#488,#490,#627,.T.);
#548=EDGE_CURVE('',#491,#490,#140,.T.);
#549=EDGE_CURVE('',#491,#492,#628,.T.);
#550=EDGE_CURVE('',#493,#492,#141,.T.);
#551=EDGE_CURVE('',#494,#493,#142,.T.);
#552=EDGE_CURVE('',#494,#495,#143,.T.);
#553=EDGE_CURVE('',#496,#495,#144,.T.);
#554=EDGE_CURVE('',#497,#496,#145,.T.);
#555=EDGE_CURVE('',#489,#497,#146,.T.);
#556=EDGE_CURVE('',#498,#489,#147,.T.);
#557=EDGE_CURVE('',#499,#497,#148,.T.);
#558=EDGE_CURVE('',#499,#500,#149,.T.);
#559=EDGE_CURVE('',#500,#501,#150,.T.);
#560=EDGE_CURVE('',#501,#494,#151,.T.);
#561=EDGE_CURVE('',#502,#493,#152,.T.);
#562=EDGE_CURVE('',#498,#502,#153,.T.);
#563=EDGE_CURVE('',#503,#496,#154,.T.);
#564=EDGE_CURVE('',#503,#499,#155,.T.);
#565=EDGE_CURVE('',#495,#504,#156,.T.);
#566=EDGE_CURVE('',#505,#504,#157,.T.);
#567=EDGE_CURVE('',#505,#503,#158,.T.);
#568=EDGE_CURVE('',#500,#505,#159,.T.);
#569=EDGE_CURVE('',#504,#501,#160,.T.);
#570=EDGE_CURVE('',#498,#506,#161,.T.);
#571=EDGE_CURVE('',#506,#488,#162,.T.);
#572=EDGE_CURVE('',#507,#508,#163,.T.);
#573=EDGE_CURVE('',#508,#491,#164,.T.);
#574=EDGE_CURVE('',#490,#507,#165,.T.);
#575=EDGE_CURVE('',#509,#510,#166,.T.);
#576=EDGE_CURVE('',#510,#511,#629,.T.);
#577=EDGE_CURVE('',#511,#512,#167,.T.);
#578=EDGE_CURVE('',#512,#513,#630,.T.);
#579=EDGE_CURVE('',#513,#514,#168,.T.);
#580=EDGE_CURVE('',#514,#515,#631,.T.);
#581=EDGE_CURVE('',#515,#516,#169,.T.);
#582=EDGE_CURVE('',#516,#509,#632,.T.);
#583=EDGE_CURVE('',#517,#502,#170,.T.);
#584=EDGE_CURVE('',#517,#508,#633,.T.);
#585=EDGE_CURVE('',#507,#506,#634,.T.);
#586=EDGE_CURVE('',#492,#517,#171,.T.);
#587=EDGE_CURVE('',#518,#519,#172,.T.);
#588=EDGE_CURVE('',#519,#514,#173,.T.);
#589=EDGE_CURVE('',#513,#518,#174,.T.);
#590=EDGE_CURVE('',#520,#521,#175,.T.);
#591=EDGE_CURVE('',#521,#516,#176,.T.);
#592=EDGE_CURVE('',#515,#520,#177,.T.);
#593=EDGE_CURVE('',#509,#522,#178,.T.);
#594=EDGE_CURVE('',#522,#523,#179,.T.);
#595=EDGE_CURVE('',#523,#510,#180,.T.);
#596=EDGE_CURVE('',#511,#524,#181,.T.);
#597=EDGE_CURVE('',#524,#525,#182,.T.);
#598=EDGE_CURVE('',#525,#512,#183,.T.);
#599=EDGE_CURVE('',#522,#521,#635,.T.);
#600=EDGE_CURVE('',#520,#519,#636,.T.);
#601=EDGE_CURVE('',#518,#525,#637,.T.);
#602=EDGE_CURVE('',#524,#523,#638,.T.);
#603=EDGE_CURVE('',#526,#527,#184,.T.);
#604=EDGE_CURVE('',#527,#480,#185,.T.);
#605=EDGE_CURVE('',#481,#526,#186,.T.);
#606=EDGE_CURVE('',#482,#528,#187,.T.);
#607=EDGE_CURVE('',#528,#529,#188,.T.);
#608=EDGE_CURVE('',#529,#483,#189,.T.);
#609=EDGE_CURVE('',#484,#530,#190,.T.);
#610=EDGE_CURVE('',#530,#531,#191,.T.);
#611=EDGE_CURVE('',#531,#485,#192,.T.);
#612=EDGE_CURVE('',#528,#527,#639,.T.);
#613=EDGE_CURVE('',#526,#532,#640,.T.);
#614=EDGE_CURVE('',#533,#532,#193,.T.);
#615=EDGE_CURVE('',#533,#531,#641,.T.);
#616=EDGE_CURVE('',#530,#529,#642,.T.);
#617=EDGE_CURVE('',#532,#487,#194,.T.);
#618=EDGE_CURVE('',#486,#533,#195,.T.);
#619=EDGE_CURVE('',#534,#534,#643,.T.);
#620=EDGE_CURVE('',#535,#535,#644,.T.);
#621=CIRCLE('',#646,6.5);
#622=CIRCLE('',#647,6.5);
#623=CIRCLE('',#648,3.3);
#624=CIRCLE('',#649,3.3);
#625=CIRCLE('',#650,3.3);
#626=CIRCLE('',#651,3.3);
#627=CIRCLE('',#652,5.1);
#628=CIRCLE('',#653,5.1);
#629=CIRCLE('',#663,7.7);
#630=CIRCLE('',#664,7.7);
#631=CIRCLE('',#665,7.7);
#632=CIRCLE('',#666,7.7);
#633=CIRCLE('',#667,5.1);
#634=CIRCLE('',#668,5.1);
#635=CIRCLE('',#677,7.7);
#636=CIRCLE('',#678,7.7);
#637=CIRCLE('',#679,7.7);
#638=CIRCLE('',#680,7.7);
#639=CIRCLE('',#689,3.3);
#640=CIRCLE('',#690,3.3);
#641=CIRCLE('',#691,3.3);
#642=CIRCLE('',#692,3.3);
#643=CIRCLE('',#699,6.5);
#644=CIRCLE('',#702,6.5);
#645=AXIS2_PLACEMENT_3D('',#886,#705,#706);
#646=AXIS2_PLACEMENT_3D('',#887,#707,#708);
#647=AXIS2_PLACEMENT_3D('',#889,#709,#710);
#648=AXIS2_PLACEMENT_3D('',#894,#712,#713);
#649=AXIS2_PLACEMENT_3D('',#898,#715,#716);
#650=AXIS2_PLACEMENT_3D('',#902,#718,#719);
#651=AXIS2_PLACEMENT_3D('',#906,#721,#722);
#652=AXIS2_PLACEMENT_3D('',#910,#724,#725);
#653=AXIS2_PLACEMENT_3D('',#914,#727,#728);
#654=AXIS2_PLACEMENT_3D('',#927,#735,#736);
#655=AXIS2_PLACEMENT_3D('',#940,#744,#745);
#656=AXIS2_PLACEMENT_3D('',#944,#748,#749);
#657=AXIS2_PLACEMENT_3D('',#950,#753,#754);
#658=AXIS2_PLACEMENT_3D('',#952,#756,#757);
#659=AXIS2_PLACEMENT_3D('',#954,#759,#760);
#660=AXIS2_PLACEMENT_3D('',#955,#761,#762);
#661=AXIS2_PLACEMENT_3D('',#959,#765,#766);
#662=AXIS2_PLACEMENT_3D('',#965,#770,#771);
#663=AXIS2_PLACEMENT_3D('',#969,#773,#774);
#664=AXIS2_PLACEMENT_3D('',#973,#776,#777);
#665=AXIS2_PLACEMENT_3D('',#977,#779,#780);
#666=AXIS2_PLACEMENT_3D('',#981,#782,#783);
#667=AXIS2_PLACEMENT_3D('',#984,#785,#786);
#668=AXIS2_PLACEMENT_3D('',#985,#787,#788);
#669=AXIS2_PLACEMENT_3D('',#986,#789,#790);
#670=AXIS2_PLACEMENT_3D('',#988,#792,#793);
#671=AXIS2_PLACEMENT_3D('',#989,#794,#795);
#672=AXIS2_PLACEMENT_3D('',#990,#796,#797);
#673=AXIS2_PLACEMENT_3D('',#996,#801,#802);
#674=AXIS2_PLACEMENT_3D('',#1002,#806,#807);
#675=AXIS2_PLACEMENT_3D('',#1008,#811,#812);
#676=AXIS2_PLACEMENT_3D('',#1014,#816,#817);
#677=AXIS2_PLACEMENT_3D('',#1015,#818,#819);
#678=AXIS2_PLACEMENT_3D('',#1016,#820,#821);
#679=AXIS2_PLACEMENT_3D('',#1017,#822,#823);
#680=AXIS2_PLACEMENT_3D('',#1018,#824,#825);
#681=AXIS2_PLACEMENT_3D('',#1019,#826,#827);
#682=AXIS2_PLACEMENT_3D('',#1020,#828,#829);
#683=AXIS2_PLACEMENT_3D('',#1021,#830,#831);
#684=AXIS2_PLACEMENT_3D('',#1022,#832,#833);
#685=AXIS2_PLACEMENT_3D('',#1023,#834,#835);
#686=AXIS2_PLACEMENT_3D('',#1029,#839,#840);
#687=AXIS2_PLACEMENT_3D('',#1035,#844,#845);
#688=AXIS2_PLACEMENT_3D('',#1041,#849,#850);
#689=AXIS2_PLACEMENT_3D('',#1042,#851,#852);
#690=AXIS2_PLACEMENT_3D('',#1043,#853,#854);
#691=AXIS2_PLACEMENT_3D('',#1047,#856,#857);
#692=AXIS2_PLACEMENT_3D('',#1048,#858,#859);
#693=AXIS2_PLACEMENT_3D('',#1049,#860,#861);
#694=AXIS2_PLACEMENT_3D('',#1052,#864,#865);
#695=AXIS2_PLACEMENT_3D('',#1053,#866,#867);
#696=AXIS2_PLACEMENT_3D('',#1054,#868,#869);
#697=AXIS2_PLACEMENT_3D('',#1055,#870,#871);
#698=AXIS2_PLACEMENT_3D('',#1056,#872,#873);
#699=AXIS2_PLACEMENT_3D('',#1057,#874,#875);
#700=AXIS2_PLACEMENT_3D('',#1059,#876,#877);
#701=AXIS2_PLACEMENT_3D('',#1060,#878,#879);
#702=AXIS2_PLACEMENT_3D('',#1061,#880,#881);
#703=AXIS2_PLACEMENT_3D('',#1063,#882,#883);
#704=AXIS2_PLACEMENT_3D('',#1064,#884,#885);
#705=DIRECTION('',(0.,0.,1.));
#706=DIRECTION('',(1.,0.,0.));
#707=DIRECTION('',(0.,0.,1.));
#708=DIRECTION('',(1.,0.,0.));
#709=DIRECTION('',(0.,0.,1.));
#710=DIRECTION('',(1.,0.,0.));
#711=DIRECTION('',(1.,0.,0.));
#712=DIRECTION('',(0.,0.,-1.));
#713=DIRECTION('',(0.999999999999999,0.,0.));
#714=DIRECTION('',(0.,-1.,0.));
#715=DIRECTION('',(0.,0.,-1.));
#716=DIRECTION('',(0.999999999999999,0.,0.));
#717=DIRECTION('',(-1.,0.,0.));
#718=DIRECTION('',(0.,0.,-1.));
#719=DIRECTION('',(1.00000000000001,0.,0.));
#720=DIRECTION('',(0.,1.,0.));
#721=DIRECTION('',(0.,0.,-1.));
#722=DIRECTION('',(1.00000000000001,0.,0.));
#723=DIRECTION('',(0.,-1.,0.));
#724=DIRECTION('',(0.,0.,-1.));
#725=DIRECTION('',(0.999999999999999,0.,0.));
#726=DIRECTION('',(-1.,0.,0.));
#727=DIRECTION('',(0.,0.,-1.));
#728=DIRECTION('',(0.999999999999999,0.,0.));
#729=DIRECTION('',(0.,1.,0.));
#730=DIRECTION('',(-1.,0.,0.));
#731=DIRECTION('',(0.,1.,0.));
#732=DIRECTION('',(1.,0.,0.));
#733=DIRECTION('',(0.,1.,0.));
#734=DIRECTION('',(-1.,0.,0.));
#735=DIRECTION('',(0.,0.,1.));
#736=DIRECTION('',(1.,0.,0.));
#737=DIRECTION('',(0.,0.,1.));
#738=DIRECTION('',(0.,0.,1.));
#739=DIRECTION('',(1.,0.,0.));
#740=DIRECTION('',(0.,0.,1.));
#741=DIRECTION('',(-0.707106781186548,0.,0.707106781186548));
#742=DIRECTION('',(0.,0.,1.));
#743=DIRECTION('',(1.,0.,0.));
#744=DIRECTION('',(0.,-1.,0.));
#745=DIRECTION('',(0.,0.,-1.));
#746=DIRECTION('',(0.,0.,1.));
#747=DIRECTION('',(0.,-1.,0.));
#748=DIRECTION('',(-1.,0.,0.));
#749=DIRECTION('',(0.,0.,1.));
#750=DIRECTION('',(0.707106781186548,0.,-0.707106781186548));
#751=DIRECTION('',(0.,0.,1.));
#752=DIRECTION('',(-1.,0.,0.));
#753=DIRECTION('',(0.,1.,0.));
#754=DIRECTION('',(0.,0.,1.));
#755=DIRECTION('',(0.,1.,0.));
#756=DIRECTION('',(0.,0.,-1.));
#757=DIRECTION('',(-1.,0.,0.));
#758=DIRECTION('',(0.,-1.,0.));
#759=DIRECTION('',(1.,0.,0.));
#760=DIRECTION('',(0.,0.,-1.));
#761=DIRECTION('',(-0.707106781186548,0.,-0.707106781186548));
#762=DIRECTION('',(0.,-1.,0.));
#763=DIRECTION('',(0.,1.,0.));
#764=DIRECTION('',(0.,0.,1.));
#765=DIRECTION('',(-1.,0.,0.));
#766=DIRECTION('',(0.,0.,1.));
#767=DIRECTION('',(1.,0.,0.));
#768=DIRECTION('',(0.,0.,1.));
#769=DIRECTION('',(0.,0.,-1.));
#770=DIRECTION('',(0.,1.,0.));
#771=DIRECTION('',(0.,0.,1.));
#772=DIRECTION('',(1.,0.,0.));
#773=DIRECTION('',(0.,0.,-1.));
#774=DIRECTION('',(-1.,0.,0.));
#775=DIRECTION('',(0.,-1.,0.));
#776=DIRECTION('',(0.,0.,-1.));
#777=DIRECTION('',(-1.,0.,0.));
#778=DIRECTION('',(-1.,0.,0.));
#779=DIRECTION('',(0.,0.,-1.));
#780=DIRECTION('',(-1.,0.,0.));
#781=DIRECTION('',(0.,1.,0.));
#782=DIRECTION('',(0.,0.,-1.));
#783=DIRECTION('',(-1.,0.,0.));
#784=DIRECTION('',(0.,-1.,0.));
#785=DIRECTION('',(0.,0.,1.));
#786=DIRECTION('',(-0.999999999999999,0.,0.));
#787=DIRECTION('',(0.,0.,1.));
#788=DIRECTION('',(-0.999999999999999,0.,0.));
#789=DIRECTION('',(0.,0.,-1.));
#790=DIRECTION('',(-1.,0.,0.));
#791=DIRECTION('',(0.,0.,-1.));
#792=DIRECTION('',(1.,0.,0.));
#793=DIRECTION('',(0.,0.,-1.));
#794=DIRECTION('',(0.,0.,1.));
#795=DIRECTION('',(0.999999999999999,0.,0.));
#796=DIRECTION('',(0.,0.,1.));
#797=DIRECTION('',(0.999999999999999,0.,0.));
#798=DIRECTION('',(-1.,0.,0.));
#799=DIRECTION('',(0.,0.,1.));
#800=DIRECTION('',(0.,0.,-1.));
#801=DIRECTION('',(0.,-1.,0.));
#802=DIRECTION('',(0.,0.,-1.));
#803=DIRECTION('',(0.,1.,0.));
#804=DIRECTION('',(0.,0.,1.));
#805=DIRECTION('',(0.,0.,-1.));
#806=DIRECTION('',(-1.,0.,0.));
#807=DIRECTION('',(0.,0.,1.));
#808=DIRECTION('',(0.,0.,-1.));
#809=DIRECTION('',(1.,0.,0.));
#810=DIRECTION('',(0.,0.,1.));
#811=DIRECTION('',(0.,1.,0.));
#812=DIRECTION('',(0.,0.,1.));
#813=DIRECTION('',(0.,0.,-1.));
#814=DIRECTION('',(0.,-1.,0.));
#815=DIRECTION('',(0.,0.,1.));
#816=DIRECTION('',(1.,0.,0.));
#817=DIRECTION('',(0.,0.,-1.));
#818=DIRECTION('',(0.,0.,1.));
#819=DIRECTION('',(-1.,0.,0.));
#820=DIRECTION('',(0.,0.,1.));
#821=DIRECTION('',(-1.,0.,0.));
#822=DIRECTION('',(0.,0.,1.));
#823=DIRECTION('',(-1.,0.,0.));
#824=DIRECTION('',(0.,0.,1.));
#825=DIRECTION('',(-1.,0.,0.));
#826=DIRECTION('',(0.,0.,-1.));
#827=DIRECTION('',(-1.,0.,0.));
#828=DIRECTION('',(0.,0.,1.));
#829=DIRECTION('',(1.,0.,0.));
#830=DIRECTION('',(0.,0.,1.));
#831=DIRECTION('',(1.,0.,0.));
#832=DIRECTION('',(0.,0.,1.));
#833=DIRECTION('',(1.,0.,0.));
#834=DIRECTION('',(0.,0.,1.));
#835=DIRECTION('',(1.,0.,0.));
#836=DIRECTION('',(-1.,0.,0.));
#837=DIRECTION('',(0.,0.,1.));
#838=DIRECTION('',(0.,0.,-1.));
#839=DIRECTION('',(0.,-1.,0.));
#840=DIRECTION('',(0.,0.,-1.));
#841=DIRECTION('',(0.,0.,-1.));
#842=DIRECTION('',(0.,1.,0.));
#843=DIRECTION('',(0.,0.,1.));
#844=DIRECTION('',(-1.,0.,0.));
#845=DIRECTION('',(0.,0.,1.));
#846=DIRECTION('',(0.,0.,-1.));
#847=DIRECTION('',(1.,0.,0.));
#848=DIRECTION('',(0.,0.,1.));
#849=DIRECTION('',(0.,1.,0.));
#850=DIRECTION('',(0.,0.,1.));
#851=DIRECTION('',(0.,0.,1.));
#852=DIRECTION('',(-0.999999999999999,0.,0.));
#853=DIRECTION('',(0.,0.,1.));
#854=DIRECTION('',(-1.00000000000001,0.,0.));
#855=DIRECTION('',(0.,-1.,0.));
#856=DIRECTION('',(0.,0.,1.));
#857=DIRECTION('',(-1.00000000000001,0.,0.));
#858=DIRECTION('',(0.,0.,1.));
#859=DIRECTION('',(-0.999999999999999,0.,0.));
#860=DIRECTION('',(0.,0.,-1.));
#861=DIRECTION('',(-1.,0.,0.));
#862=DIRECTION('',(0.,0.,1.));
#863=DIRECTION('',(0.,0.,-1.));
#864=DIRECTION('',(1.,0.,0.));
#865=DIRECTION('',(0.,0.,-1.));
#866=DIRECTION('',(0.,0.,1.));
#867=DIRECTION('',(0.999999999999999,0.,0.));
#868=DIRECTION('',(0.,0.,1.));
#869=DIRECTION('',(0.999999999999999,0.,0.));
#870=DIRECTION('',(0.,0.,1.));
#871=DIRECTION('',(1.00000000000001,0.,0.));
#872=DIRECTION('',(0.,0.,1.));
#873=DIRECTION('',(1.00000000000001,0.,0.));
#874=DIRECTION('',(0.,0.,-1.));
#875=DIRECTION('',(1.,0.,0.));
#876=DIRECTION('',(0.,0.,-1.));
#877=DIRECTION('',(-1.,0.,0.));
#878=DIRECTION('',(0.,0.,-1.));
#879=DIRECTION('',(1.,0.,0.));
#880=DIRECTION('',(0.,0.,-1.));
#881=DIRECTION('',(1.,0.,0.));
#882=DIRECTION('',(0.,0.,-1.));
#883=DIRECTION('',(-1.,0.,0.));
#884=DIRECTION('',(0.,0.,-1.));
#885=DIRECTION('',(1.,0.,0.));
#886=CARTESIAN_POINT('',(0.,0.,0.));
#887=CARTESIAN_POINT('',(231.9,44.9,96.7));
#888=CARTESIAN_POINT('',(238.4,44.9,96.7));
#889=CARTESIAN_POINT('',(42.8,44.9,96.7));
#890=CARTESIAN_POINT('',(49.3,44.9,96.7));
#891=CARTESIAN_POINT('',(193.1,149.9,96.7));
#892=CARTESIAN_POINT('',(186.6,149.9,96.7));
#893=CARTESIAN_POINT('',(285.8,149.9,96.7));
#894=CARTESIAN_POINT('',(186.6,153.2,96.7));
#895=CARTESIAN_POINT('',(183.3,153.2,96.7));
#896=CARTESIAN_POINT('',(183.3,193.,96.7));
#897=CARTESIAN_POINT('',(183.3,241.2,96.7));
#898=CARTESIAN_POINT('',(186.6,241.2,96.7));
#899=CARTESIAN_POINT('',(186.6,244.5,96.7));
#900=CARTESIAN_POINT('',(193.1,244.5,96.7));
#901=CARTESIAN_POINT('',(285.8,244.5,96.7));
#902=CARTESIAN_POINT('',(285.8,241.2,96.7));
#903=CARTESIAN_POINT('',(289.1,241.2,96.7));
#904=CARTESIAN_POINT('',(289.1,193.,96.7));
#905=CARTESIAN_POINT('',(289.1,153.2,96.7));
#906=CARTESIAN_POINT('',(285.8,153.2,96.7));
#907=CARTESIAN_POINT('',(92.3,193.,96.7));
#908=CARTESIAN_POINT('',(92.3,54.1,96.7));
#909=CARTESIAN_POINT('',(92.3,0.,96.7));
#910=CARTESIAN_POINT('',(97.4,54.1,96.7));
#911=CARTESIAN_POINT('',(97.4,59.2,96.7));
#912=CARTESIAN_POINT('',(193.1,59.2,96.7));
#913=CARTESIAN_POINT('',(188.3,59.2,96.7));
#914=CARTESIAN_POINT('',(188.3,54.1,96.7));
#915=CARTESIAN_POINT('',(193.4,54.1,96.7));
#916=CARTESIAN_POINT('',(193.4,193.,96.7));
#917=CARTESIAN_POINT('',(193.4,0.,96.7));
#918=CARTESIAN_POINT('',(193.1,0.,96.7));
#919=CARTESIAN_POINT('',(374.1,0.,96.7));
#920=CARTESIAN_POINT('',(374.1,193.,96.7));
#921=CARTESIAN_POINT('',(374.1,386.,96.7));
#922=CARTESIAN_POINT('',(193.1,386.,96.7));
#923=CARTESIAN_POINT('',(0.,386.,96.7));
#924=CARTESIAN_POINT('',(0.,193.,96.7));
#925=CARTESIAN_POINT('',(0.,0.,96.7));
#926=CARTESIAN_POINT('',(193.1,0.,96.7));
#927=CARTESIAN_POINT('',(193.1,193.,96.7));
#928=CARTESIAN_POINT('',(92.3,0.,68.5));
#929=CARTESIAN_POINT('',(92.3,0.,68.5));
#930=CARTESIAN_POINT('',(0.,0.,0.));
#931=CARTESIAN_POINT('',(0.,0.,0.));
#932=CARTESIAN_POINT('',(193.1,0.,0.));
#933=CARTESIAN_POINT('',(386.2,0.,0.));
#934=CARTESIAN_POINT('',(386.2,0.,0.));
#935=CARTESIAN_POINT('',(386.2,0.,84.6));
#936=CARTESIAN_POINT('',(331.95,0.,138.85));
#937=CARTESIAN_POINT('',(193.4,0.,68.5));
#938=CARTESIAN_POINT('',(193.4,0.,68.5));
#939=CARTESIAN_POINT('',(142.85,0.,68.5));
#940=CARTESIAN_POINT('',(193.1,0.,0.));
#941=CARTESIAN_POINT('',(0.,386.,0.));
#942=CARTESIAN_POINT('',(0.,386.,0.));
#943=CARTESIAN_POINT('',(0.,193.,0.));
#944=CARTESIAN_POINT('',(0.,193.,0.));
#945=CARTESIAN_POINT('',(331.95,386.,138.85));
#946=CARTESIAN_POINT('',(386.2,386.,84.6));
#947=CARTESIAN_POINT('',(386.2,386.,0.));
#948=CARTESIAN_POINT('',(386.2,386.,0.));
#949=CARTESIAN_POINT('',(193.1,386.,0.));
#950=CARTESIAN_POINT('',(193.1,386.,0.));
#951=CARTESIAN_POINT('',(386.2,193.,0.));
#952=CARTESIAN_POINT('',(193.1,193.,0.));
#953=CARTESIAN_POINT('',(386.2,193.,84.6));
#954=CARTESIAN_POINT('',(386.2,193.,0.));
#955=CARTESIAN_POINT('',(386.2,193.,84.6));
#956=CARTESIAN_POINT('',(92.3,29.6,68.5));
#957=CARTESIAN_POINT('',(92.3,54.1,68.5));
#958=CARTESIAN_POINT('',(92.3,54.1,96.7));
#959=CARTESIAN_POINT('',(92.3,29.6,68.5));
#960=CARTESIAN_POINT('',(142.85,59.2,68.5));
#961=CARTESIAN_POINT('',(97.4,59.2,68.5));
#962=CARTESIAN_POINT('',(188.3,59.2,68.5));
#963=CARTESIAN_POINT('',(188.3,59.2,96.7));
#964=CARTESIAN_POINT('',(97.4,59.2,68.5));
#965=CARTESIAN_POINT('',(142.85,59.2,68.5));
#966=CARTESIAN_POINT('',(142.85,44.4,68.5));
#967=CARTESIAN_POINT('',(116.6,44.4,68.5));
#968=CARTESIAN_POINT('',(147.1,44.4,68.5));
#969=CARTESIAN_POINT('',(147.1,36.7,68.5));
#970=CARTESIAN_POINT('',(154.8,36.7,68.5));
#971=CARTESIAN_POINT('',(154.8,29.6,68.5));
#972=CARTESIAN_POINT('',(154.8,22.5,68.5));
#973=CARTESIAN_POINT('',(147.1,22.5,68.5));
#974=CARTESIAN_POINT('',(147.1,14.8,68.5));
#975=CARTESIAN_POINT('',(142.85,14.8,68.5));
#976=CARTESIAN_POINT('',(116.6,14.8,68.5));
#977=CARTESIAN_POINT('',(116.6,22.5,68.5));
#978=CARTESIAN_POINT('',(108.9,22.5,68.5));
#979=CARTESIAN_POINT('',(108.9,29.6,68.5));
#980=CARTESIAN_POINT('',(108.9,36.7,68.5));
#981=CARTESIAN_POINT('',(116.6,36.7,68.5));
#982=CARTESIAN_POINT('',(193.4,29.6,68.5));
#983=CARTESIAN_POINT('',(193.4,54.1,68.5));
#984=CARTESIAN_POINT('',(188.3,54.1,68.5));
#985=CARTESIAN_POINT('',(97.4,54.1,68.5));
#986=CARTESIAN_POINT('',(142.85,29.6,68.5));
#987=CARTESIAN_POINT('',(193.4,54.1,68.5));
#988=CARTESIAN_POINT('',(193.4,29.6,68.5));
#989=CARTESIAN_POINT('',(188.3,54.1,68.5));
#990=CARTESIAN_POINT('',(97.4,54.1,68.5));
#991=CARTESIAN_POINT('',(131.85,14.8,58.8));
#992=CARTESIAN_POINT('',(147.1,14.8,58.8));
#993=CARTESIAN_POINT('',(116.6,14.8,58.8));
#994=CARTESIAN_POINT('',(116.6,14.8,68.5));
#995=CARTESIAN_POINT('',(147.1,14.8,58.8));
#996=CARTESIAN_POINT('',(131.85,14.8,58.8));
#997=CARTESIAN_POINT('',(108.9,29.6,58.8));
#998=CARTESIAN_POINT('',(108.9,22.5,58.8));
#999=CARTESIAN_POINT('',(108.9,36.7,58.8));
#1000=CARTESIAN_POINT('',(108.9,36.7,68.5));
#1001=CARTESIAN_POINT('',(108.9,22.5,58.8));
#1002=CARTESIAN_POINT('',(108.9,29.6,58.8));
#1003=CARTESIAN_POINT('',(116.6,44.4,58.8));
#1004=CARTESIAN_POINT('',(116.6,44.4,58.8));
#1005=CARTESIAN_POINT('',(131.85,44.4,58.8));
#1006=CARTESIAN_POINT('',(147.1,44.4,58.8));
#1007=CARTESIAN_POINT('',(147.1,44.4,68.5));
#1008=CARTESIAN_POINT('',(131.85,44.4,58.8));
#1009=CARTESIAN_POINT('',(154.8,36.7,58.8));
#1010=CARTESIAN_POINT('',(154.8,36.7,58.8));
#1011=CARTESIAN_POINT('',(154.8,29.6,58.8));
#1012=CARTESIAN_POINT('',(154.8,22.5,58.8));
#1013=CARTESIAN_POINT('',(154.8,22.5,68.5));
#1014=CARTESIAN_POINT('',(154.8,29.6,58.8));
#1015=CARTESIAN_POINT('',(116.6,36.7,58.8));
#1016=CARTESIAN_POINT('',(116.6,22.5,58.8));
#1017=CARTESIAN_POINT('',(147.1,22.5,58.8));
#1018=CARTESIAN_POINT('',(147.1,36.7,58.8));
#1019=CARTESIAN_POINT('',(131.85,29.6,58.8));
#1020=CARTESIAN_POINT('',(116.6,36.7,58.8));
#1021=CARTESIAN_POINT('',(147.1,36.7,58.8));
#1022=CARTESIAN_POINT('',(116.6,22.5,58.8));
#1023=CARTESIAN_POINT('',(147.1,22.5,58.8));
#1024=CARTESIAN_POINT('',(236.2,149.9,70.8));
#1025=CARTESIAN_POINT('',(285.8,149.9,70.8));
#1026=CARTESIAN_POINT('',(186.6,149.9,70.8));
#1027=CARTESIAN_POINT('',(186.6,149.9,96.7));
#1028=CARTESIAN_POINT('',(285.8,149.9,70.8));
#1029=CARTESIAN_POINT('',(236.2,149.9,70.8));
#1030=CARTESIAN_POINT('',(183.3,153.2,70.8));
#1031=CARTESIAN_POINT('',(183.3,153.2,70.8));
#1032=CARTESIAN_POINT('',(183.3,197.2,70.8));
#1033=CARTESIAN_POINT('',(183.3,241.2,70.8));
#1034=CARTESIAN_POINT('',(183.3,241.2,96.7));
#1035=CARTESIAN_POINT('',(183.3,197.2,70.8));
#1036=CARTESIAN_POINT('',(186.6,244.5,70.8));
#1037=CARTESIAN_POINT('',(186.6,244.5,70.8));
#1038=CARTESIAN_POINT('',(236.2,244.5,70.8));
#1039=CARTESIAN_POINT('',(285.8,244.5,70.8));
#1040=CARTESIAN_POINT('',(285.8,244.5,96.7));
#1041=CARTESIAN_POINT('',(236.2,244.5,70.8));
#1042=CARTESIAN_POINT('',(186.6,153.2,70.8));
#1043=CARTESIAN_POINT('',(285.8,153.2,70.8));
#1044=CARTESIAN_POINT('',(289.1,153.2,70.8));
#1045=CARTESIAN_POINT('',(289.1,197.2,70.8));
#1046=CARTESIAN_POINT('',(289.1,241.2,70.8));
#1047=CARTESIAN_POINT('',(285.8,241.2,70.8));
#1048=CARTESIAN_POINT('',(186.6,241.2,70.8));
#1049=CARTESIAN_POINT('',(236.2,197.2,70.8));
#1050=CARTESIAN_POINT('',(289.1,153.2,96.7));
#1051=CARTESIAN_POINT('',(289.1,241.2,70.8));
#1052=CARTESIAN_POINT('',(289.1,197.2,70.8));
#1053=CARTESIAN_POINT('',(186.6,153.2,70.8));
#1054=CARTESIAN_POINT('',(186.6,241.2,70.8));
#1055=CARTESIAN_POINT('',(285.8,153.2,70.8));
#1056=CARTESIAN_POINT('',(285.8,241.2,70.8));
#1057=CARTESIAN_POINT('',(42.8,44.9,42.9));
#1058=CARTESIAN_POINT('',(49.3,44.9,42.9));
#1059=CARTESIAN_POINT('',(42.8,44.9,42.9));
#1060=CARTESIAN_POINT('',(42.8,44.9,96.75));
#1061=CARTESIAN_POINT('',(231.9,44.9,67.2));
#1062=CARTESIAN_POINT('',(238.4,44.9,67.2));
#1063=CARTESIAN_POINT('',(231.9,44.9,67.2));
#1064=CARTESIAN_POINT('',(231.9,44.9,96.75));
#1065=MECHANICAL_DESIGN_GEOMETRIC_PRESENTATION_REPRESENTATION('',(#24),
#1066);
#1066=(
GEOMETRIC_REPRESENTATION_CONTEXT(3)
GLOBAL_UNCERTAINTY_ASSIGNED_CONTEXT((#1067))
GLOBAL_UNIT_ASSIGNED_CONTEXT((#1073,#1069,#1068))
REPRESENTATION_CONTEXT('featured_part_07180','TOP_LEVEL_ASSEMBLY_PART')
);
#1067=UNCERTAINTY_MEASURE_WITH_UNIT(LENGTH_MEASURE(2.E-5),#1073,
'DISTANCE_ACCURACY_VALUE','Maximum Tolerance applied to model');
#1068=(
NAMED_UNIT(*)
SI_UNIT($,.STERADIAN.)
SOLID_ANGLE_UNIT()
);
#1069=(
CONVERSION_BASED_UNIT('DEGREE',#1071)
NAMED_UNIT(#1070)
PLANE_ANGLE_UNIT()
);
#1070=DIMENSIONAL_EXPONENTS(0.,0.,0.,0.,0.,0.,0.);
#1071=PLANE_ANGLE_MEASURE_WITH_UNIT(PLANE_ANGLE_MEASURE(0.0174532925),#1072);
#1072=(
NAMED_UNIT(*)
PLANE_ANGLE_UNIT()
SI_UNIT($,.RADIAN.)
);
#1073=(
LENGTH_UNIT()
NAMED_UNIT(*)
SI_UNIT(.MILLI.,.METRE.)
);
ENDSEC;
END-ISO-10303-21;
