ISO-10303-21;
HEADER;
/* Generated by software containing ST-Developer
 * from STEP Tools, Inc. (www.steptools.com) 
 */
/* OPTION: using custom schema-name function */

FILE_DESCRIPTION(
/* description */ (''),
/* implementation_level */ '2;1');

FILE_NAME(
/* name */ 'featured_part_05683.stp',
/* time_stamp */ '2026-07-08T07:49:10-04:00',
/* author */ (''),
/* organization */ (''),
/* preprocessor_version */ 'ST-DEVELOPER v20.1',
/* originating_system */ 'SIEMENS PLM Software NX2512.6002',
/* authorisation */ '');

FILE_SCHEMA (('AUTOMOTIVE_DESIGN { 1 0 10303 214 3 1 1 1 }'));
ENDSEC;

DATA;
#10=SHAPE_REPRESENTATION_RELATIONSHIP('None',
'relationship between featured_part_05683-None and featured_part_05683
-None',#22,#11);
#11=ADVANCED_BREP_SHAPE_REPRESENTATION('featured_part_05683-None',(#32),
#663);
#12=SHAPE_DEFINITION_REPRESENTATION(#13,#22);
#13=PRODUCT_DEFINITION_SHAPE('','',#14);
#14=PRODUCT_DEFINITION(' ','',#16,#15);
#15=PRODUCT_DEFINITION_CONTEXT('part definition',#21,'design');
#16=PRODUCT_DEFINITION_FORMATION_WITH_SPECIFIED_SOURCE(' ',' ',#18,
 .NOT_KNOWN.);
#17=PRODUCT_RELATED_PRODUCT_CATEGORY('part','',(#18));
#18=PRODUCT('featured_part_05683','featured_part_05683',' ',(#19));
#19=PRODUCT_CONTEXT(' ',#21,'mechanical');
#20=APPLICATION_PROTOCOL_DEFINITION('international standard',
'automotive_design',2010,#21);
#21=APPLICATION_CONTEXT(
'core data for automotive mechanical design processes');
#22=SHAPE_REPRESENTATION('featured_part_05683-None',(#414),#663);
#23=PRESENTATION_LAYER_ASSIGNMENT('1','Layer 1',(#32));
#24=STYLED_ITEM('',(#25),#32);
#25=PRESENTATION_STYLE_ASSIGNMENT((#26));
#26=SURFACE_STYLE_USAGE(.BOTH.,#27);
#27=SURFACE_SIDE_STYLE('',(#28));
#28=SURFACE_STYLE_FILL_AREA(#29);
#29=FILL_AREA_STYLE('',(#30));
#30=FILL_AREA_STYLE_COLOUR('',#31);
#31=COLOUR_RGB('medium steel',0.611764705882353,0.658823529411765,0.670588235294118);
#32=MANIFOLD_SOLID_BREP('',#33);
#33=CLOSED_SHELL('',(#70,#71,#72,#73,#74,#75,#76,#77,#78,#79,#80,#81,#82,
#83,#84,#85,#86,#87,#88,#89,#90));
#34=CYLINDRICAL_SURFACE('',#440,14.3);
#35=CYLINDRICAL_SURFACE('',#441,14.3);
#36=CYLINDRICAL_SURFACE('',#442,4.9);
#37=CYLINDRICAL_SURFACE('',#443,8.7);
#38=CYLINDRICAL_SURFACE('',#445,5.35);
#39=CYLINDRICAL_SURFACE('',#447,15.25);
#40=FACE_BOUND('',#121,.T.);
#41=FACE_BOUND('',#122,.T.);
#42=FACE_BOUND('',#123,.T.);
#43=FACE_BOUND('',#124,.T.);
#44=FACE_BOUND('',#128,.T.);
#45=FACE_BOUND('',#129,.T.);
#46=FACE_BOUND('',#130,.T.);
#47=FACE_BOUND('',#131,.T.);
#48=FACE_BOUND('',#138,.T.);
#49=FACE_BOUND('',#139,.T.);
#50=FACE_BOUND('',#143,.T.);
#51=FACE_BOUND('',#144,.T.);
#52=FACE_BOUND('',#145,.T.);
#53=FACE_BOUND('',#146,.T.);
#54=FACE_BOUND('',#147,.T.);
#55=FACE_BOUND('',#148,.T.);
#56=FACE_BOUND('',#150,.T.);
#57=FACE_BOUND('',#151,.T.);
#58=CIRCLE('',#416,15.25);
#59=CIRCLE('',#417,8.7);
#60=CIRCLE('',#418,4.9);
#61=CIRCLE('',#419,14.3);
#62=CIRCLE('',#420,14.3);
#63=CIRCLE('',#425,15.25);
#64=CIRCLE('',#426,8.7);
#65=CIRCLE('',#427,4.9);
#66=CIRCLE('',#435,5.35);
#67=CIRCLE('',#436,14.3);
#68=CIRCLE('',#437,14.3);
#69=CIRCLE('',#444,5.35);
#70=ADVANCED_FACE('',(#106),#91,.F.);
#71=ADVANCED_FACE('',(#40,#41,#42,#43),#92,.T.);
#72=ADVANCED_FACE('',(#107),#93,.T.);
#73=ADVANCED_FACE('',(#108),#94,.T.);
#74=ADVANCED_FACE('',(#109),#95,.T.);
#75=ADVANCED_FACE('',(#44,#45,#46,#47),#96,.T.);
#76=ADVANCED_FACE('',(#110),#97,.T.);
#77=ADVANCED_FACE('',(#111),#98,.F.);
#78=ADVANCED_FACE('',(#112),#99,.F.);
#79=ADVANCED_FACE('',(#113),#100,.F.);
#80=ADVANCED_FACE('',(#114),#101,.F.);
#81=ADVANCED_FACE('',(#115),#102,.F.);
#82=ADVANCED_FACE('',(#48,#49),#103,.F.);
#83=ADVANCED_FACE('',(#116),#104,.F.);
#84=ADVANCED_FACE('',(#117),#34,.F.);
#85=ADVANCED_FACE('',(#118),#35,.F.);
#86=ADVANCED_FACE('',(#50,#51),#36,.F.);
#87=ADVANCED_FACE('',(#52,#53),#37,.F.);
#88=ADVANCED_FACE('',(#54,#55),#38,.F.);
#89=ADVANCED_FACE('',(#119),#105,.F.);
#90=ADVANCED_FACE('',(#56,#57),#39,.F.);
#91=PLANE('',#415);
#92=PLANE('',#421);
#93=PLANE('',#422);
#94=PLANE('',#423);
#95=PLANE('',#424);
#96=PLANE('',#428);
#97=PLANE('',#429);
#98=PLANE('',#430);
#99=PLANE('',#431);
#100=PLANE('',#432);
#101=PLANE('',#433);
#102=PLANE('',#434);
#103=PLANE('',#438);
#104=PLANE('',#439);
#105=PLANE('',#446);
#106=FACE_OUTER_BOUND('',#120,.T.);
#107=FACE_OUTER_BOUND('',#125,.T.);
#108=FACE_OUTER_BOUND('',#126,.T.);
#109=FACE_OUTER_BOUND('',#127,.T.);
#110=FACE_OUTER_BOUND('',#132,.T.);
#111=FACE_OUTER_BOUND('',#133,.T.);
#112=FACE_OUTER_BOUND('',#134,.T.);
#113=FACE_OUTER_BOUND('',#135,.T.);
#114=FACE_OUTER_BOUND('',#136,.T.);
#115=FACE_OUTER_BOUND('',#137,.T.);
#116=FACE_OUTER_BOUND('',#140,.T.);
#117=FACE_OUTER_BOUND('',#141,.T.);
#118=FACE_OUTER_BOUND('',#142,.T.);
#119=FACE_OUTER_BOUND('',#149,.T.);
#120=EDGE_LOOP('',(#152,#153,#154,#155,#156));
#121=EDGE_LOOP('',(#157));
#122=EDGE_LOOP('',(#158));
#123=EDGE_LOOP('',(#159));
#124=EDGE_LOOP('',(#160,#161,#162,#163,#164,#165,#166,#167,#168,#169));
#125=EDGE_LOOP('',(#170,#171,#172,#173,#174,#175,#176,#177));
#126=EDGE_LOOP('',(#178,#179,#180,#181,#182,#183));
#127=EDGE_LOOP('',(#184,#185,#186,#187));
#128=EDGE_LOOP('',(#188));
#129=EDGE_LOOP('',(#189));
#130=EDGE_LOOP('',(#190));
#131=EDGE_LOOP('',(#191,#192,#193,#194));
#132=EDGE_LOOP('',(#195,#196,#197,#198,#199,#200));
#133=EDGE_LOOP('',(#201,#202,#203,#204));
#134=EDGE_LOOP('',(#205,#206,#207,#208,#209));
#135=EDGE_LOOP('',(#210,#211,#212,#213));
#136=EDGE_LOOP('',(#214,#215,#216,#217,#218));
#137=EDGE_LOOP('',(#219,#220,#221,#222));
#138=EDGE_LOOP('',(#223));
#139=EDGE_LOOP('',(#224,#225,#226,#227,#228,#229));
#140=EDGE_LOOP('',(#230,#231,#232,#233,#234));
#141=EDGE_LOOP('',(#235,#236,#237,#238));
#142=EDGE_LOOP('',(#239,#240,#241,#242));
#143=EDGE_LOOP('',(#243));
#144=EDGE_LOOP('',(#244));
#145=EDGE_LOOP('',(#245));
#146=EDGE_LOOP('',(#246));
#147=EDGE_LOOP('',(#247));
#148=EDGE_LOOP('',(#248));
#149=EDGE_LOOP('',(#249));
#150=EDGE_LOOP('',(#250));
#151=EDGE_LOOP('',(#251));
#152=ORIENTED_EDGE('',*,*,#288,.F.);
#153=ORIENTED_EDGE('',*,*,#289,.F.);
#154=ORIENTED_EDGE('',*,*,#290,.T.);
#155=ORIENTED_EDGE('',*,*,#291,.F.);
#156=ORIENTED_EDGE('',*,*,#292,.F.);
#157=ORIENTED_EDGE('',*,*,#293,.F.);
#158=ORIENTED_EDGE('',*,*,#294,.F.);
#159=ORIENTED_EDGE('',*,*,#295,.F.);
#160=ORIENTED_EDGE('',*,*,#296,.F.);
#161=ORIENTED_EDGE('',*,*,#297,.T.);
#162=ORIENTED_EDGE('',*,*,#298,.F.);
#163=ORIENTED_EDGE('',*,*,#299,.T.);
#164=ORIENTED_EDGE('',*,*,#300,.F.);
#165=ORIENTED_EDGE('',*,*,#301,.T.);
#166=ORIENTED_EDGE('',*,*,#302,.F.);
#167=ORIENTED_EDGE('',*,*,#303,.T.);
#168=ORIENTED_EDGE('',*,*,#304,.T.);
#169=ORIENTED_EDGE('',*,*,#289,.T.);
#170=ORIENTED_EDGE('',*,*,#305,.T.);
#171=ORIENTED_EDGE('',*,*,#292,.T.);
#172=ORIENTED_EDGE('',*,*,#306,.F.);
#173=ORIENTED_EDGE('',*,*,#307,.T.);
#174=ORIENTED_EDGE('',*,*,#308,.T.);
#175=ORIENTED_EDGE('',*,*,#309,.T.);
#176=ORIENTED_EDGE('',*,*,#310,.F.);
#177=ORIENTED_EDGE('',*,*,#311,.F.);
#178=ORIENTED_EDGE('',*,*,#291,.T.);
#179=ORIENTED_EDGE('',*,*,#312,.T.);
#180=ORIENTED_EDGE('',*,*,#313,.T.);
#181=ORIENTED_EDGE('',*,*,#314,.F.);
#182=ORIENTED_EDGE('',*,*,#315,.T.);
#183=ORIENTED_EDGE('',*,*,#306,.T.);
#184=ORIENTED_EDGE('',*,*,#314,.T.);
#185=ORIENTED_EDGE('',*,*,#316,.T.);
#186=ORIENTED_EDGE('',*,*,#317,.F.);
#187=ORIENTED_EDGE('',*,*,#318,.T.);
#188=ORIENTED_EDGE('',*,*,#319,.F.);
#189=ORIENTED_EDGE('',*,*,#320,.F.);
#190=ORIENTED_EDGE('',*,*,#321,.F.);
#191=ORIENTED_EDGE('',*,*,#322,.F.);
#192=ORIENTED_EDGE('',*,*,#307,.F.);
#193=ORIENTED_EDGE('',*,*,#315,.F.);
#194=ORIENTED_EDGE('',*,*,#318,.F.);
#195=ORIENTED_EDGE('',*,*,#317,.T.);
#196=ORIENTED_EDGE('',*,*,#323,.T.);
#197=ORIENTED_EDGE('',*,*,#302,.T.);
#198=ORIENTED_EDGE('',*,*,#324,.T.);
#199=ORIENTED_EDGE('',*,*,#308,.F.);
#200=ORIENTED_EDGE('',*,*,#322,.T.);
#201=ORIENTED_EDGE('',*,*,#325,.F.);
#202=ORIENTED_EDGE('',*,*,#309,.F.);
#203=ORIENTED_EDGE('',*,*,#324,.F.);
#204=ORIENTED_EDGE('',*,*,#301,.F.);
#205=ORIENTED_EDGE('',*,*,#313,.F.);
#206=ORIENTED_EDGE('',*,*,#326,.T.);
#207=ORIENTED_EDGE('',*,*,#303,.F.);
#208=ORIENTED_EDGE('',*,*,#323,.F.);
#209=ORIENTED_EDGE('',*,*,#316,.F.);
#210=ORIENTED_EDGE('',*,*,#290,.F.);
#211=ORIENTED_EDGE('',*,*,#304,.F.);
#212=ORIENTED_EDGE('',*,*,#326,.F.);
#213=ORIENTED_EDGE('',*,*,#312,.F.);
#214=ORIENTED_EDGE('',*,*,#327,.T.);
#215=ORIENTED_EDGE('',*,*,#328,.T.);
#216=ORIENTED_EDGE('',*,*,#296,.T.);
#217=ORIENTED_EDGE('',*,*,#288,.T.);
#218=ORIENTED_EDGE('',*,*,#305,.F.);
#219=ORIENTED_EDGE('',*,*,#329,.T.);
#220=ORIENTED_EDGE('',*,*,#330,.T.);
#221=ORIENTED_EDGE('',*,*,#298,.T.);
#222=ORIENTED_EDGE('',*,*,#331,.T.);
#223=ORIENTED_EDGE('',*,*,#332,.T.);
#224=ORIENTED_EDGE('',*,*,#333,.F.);
#225=ORIENTED_EDGE('',*,*,#334,.T.);
#226=ORIENTED_EDGE('',*,*,#329,.F.);
#227=ORIENTED_EDGE('',*,*,#335,.T.);
#228=ORIENTED_EDGE('',*,*,#327,.F.);
#229=ORIENTED_EDGE('',*,*,#311,.T.);
#230=ORIENTED_EDGE('',*,*,#300,.T.);
#231=ORIENTED_EDGE('',*,*,#336,.T.);
#232=ORIENTED_EDGE('',*,*,#333,.T.);
#233=ORIENTED_EDGE('',*,*,#310,.T.);
#234=ORIENTED_EDGE('',*,*,#325,.T.);
#235=ORIENTED_EDGE('',*,*,#299,.F.);
#236=ORIENTED_EDGE('',*,*,#330,.F.);
#237=ORIENTED_EDGE('',*,*,#334,.F.);
#238=ORIENTED_EDGE('',*,*,#336,.F.);
#239=ORIENTED_EDGE('',*,*,#297,.F.);
#240=ORIENTED_EDGE('',*,*,#328,.F.);
#241=ORIENTED_EDGE('',*,*,#335,.F.);
#242=ORIENTED_EDGE('',*,*,#331,.F.);
#243=ORIENTED_EDGE('',*,*,#295,.T.);
#244=ORIENTED_EDGE('',*,*,#321,.T.);
#245=ORIENTED_EDGE('',*,*,#294,.T.);
#246=ORIENTED_EDGE('',*,*,#320,.T.);
#247=ORIENTED_EDGE('',*,*,#337,.T.);
#248=ORIENTED_EDGE('',*,*,#332,.F.);
#249=ORIENTED_EDGE('',*,*,#337,.F.);
#250=ORIENTED_EDGE('',*,*,#293,.T.);
#251=ORIENTED_EDGE('',*,*,#319,.T.);
#252=VERTEX_POINT('',#556);
#253=VERTEX_POINT('',#557);
#254=VERTEX_POINT('',#559);
#255=VERTEX_POINT('',#561);
#256=VERTEX_POINT('',#563);
#257=VERTEX_POINT('',#567);
#258=VERTEX_POINT('',#569);
#259=VERTEX_POINT('',#571);
#260=VERTEX_POINT('',#573);
#261=VERTEX_POINT('',#575);
#262=VERTEX_POINT('',#577);
#263=VERTEX_POINT('',#579);
#264=VERTEX_POINT('',#581);
#265=VERTEX_POINT('',#583);
#266=VERTEX_POINT('',#585);
#267=VERTEX_POINT('',#587);
#268=VERTEX_POINT('',#591);
#269=VERTEX_POINT('',#593);
#270=VERTEX_POINT('',#595);
#271=VERTEX_POINT('',#597);
#272=VERTEX_POINT('',#599);
#273=VERTEX_POINT('',#601);
#274=VERTEX_POINT('',#605);
#275=VERTEX_POINT('',#607);
#276=VERTEX_POINT('',#609);
#277=VERTEX_POINT('',#613);
#278=VERTEX_POINT('',#615);
#279=VERTEX_POINT('',#619);
#280=VERTEX_POINT('',#621);
#281=VERTEX_POINT('',#623);
#282=VERTEX_POINT('',#635);
#283=VERTEX_POINT('',#639);
#284=VERTEX_POINT('',#640);
#285=VERTEX_POINT('',#645);
#286=VERTEX_POINT('',#647);
#287=VERTEX_POINT('',#658);
#288=EDGE_CURVE('',#252,#253,#338,.T.);
#289=EDGE_CURVE('',#254,#252,#339,.T.);
#290=EDGE_CURVE('',#254,#255,#340,.T.);
#291=EDGE_CURVE('',#256,#255,#341,.T.);
#292=EDGE_CURVE('',#253,#256,#342,.T.);
#293=EDGE_CURVE('',#257,#257,#58,.T.);
#294=EDGE_CURVE('',#258,#258,#59,.T.);
#295=EDGE_CURVE('',#259,#259,#60,.T.);
#296=EDGE_CURVE('',#260,#252,#343,.T.);
#297=EDGE_CURVE('',#260,#261,#61,.T.);
#298=EDGE_CURVE('',#262,#261,#344,.T.);
#299=EDGE_CURVE('',#262,#263,#62,.T.);
#300=EDGE_CURVE('',#264,#263,#345,.T.);
#301=EDGE_CURVE('',#264,#265,#346,.T.);
#302=EDGE_CURVE('',#266,#265,#347,.T.);
#303=EDGE_CURVE('',#266,#267,#348,.T.);
#304=EDGE_CURVE('',#267,#254,#349,.T.);
#305=EDGE_CURVE('',#268,#253,#350,.T.);
#306=EDGE_CURVE('',#269,#256,#351,.T.);
#307=EDGE_CURVE('',#269,#270,#352,.T.);
#308=EDGE_CURVE('',#270,#271,#353,.T.);
#309=EDGE_CURVE('',#271,#272,#354,.T.);
#310=EDGE_CURVE('',#273,#272,#355,.T.);
#311=EDGE_CURVE('',#268,#273,#356,.T.);
#312=EDGE_CURVE('',#255,#274,#357,.T.);
#313=EDGE_CURVE('',#274,#275,#358,.T.);
#314=EDGE_CURVE('',#276,#275,#359,.T.);
#315=EDGE_CURVE('',#276,#269,#360,.T.);
#316=EDGE_CURVE('',#275,#277,#361,.T.);
#317=EDGE_CURVE('',#278,#277,#362,.T.);
#318=EDGE_CURVE('',#278,#276,#363,.T.);
#319=EDGE_CURVE('',#279,#279,#63,.T.);
#320=EDGE_CURVE('',#280,#280,#64,.T.);
#321=EDGE_CURVE('',#281,#281,#65,.T.);
#322=EDGE_CURVE('',#270,#278,#364,.T.);
#323=EDGE_CURVE('',#277,#266,#365,.T.);
#324=EDGE_CURVE('',#265,#271,#366,.T.);
#325=EDGE_CURVE('',#272,#264,#367,.T.);
#326=EDGE_CURVE('',#274,#267,#368,.T.);
#327=EDGE_CURVE('',#268,#282,#369,.T.);
#328=EDGE_CURVE('',#282,#260,#370,.T.);
#329=EDGE_CURVE('',#283,#284,#371,.T.);
#330=EDGE_CURVE('',#284,#262,#372,.T.);
#331=EDGE_CURVE('',#261,#283,#373,.T.);
#332=EDGE_CURVE('',#285,#285,#66,.T.);
#333=EDGE_CURVE('',#286,#273,#374,.T.);
#334=EDGE_CURVE('',#286,#284,#67,.T.);
#335=EDGE_CURVE('',#283,#282,#68,.T.);
#336=EDGE_CURVE('',#263,#286,#375,.T.);
#337=EDGE_CURVE('',#287,#287,#69,.T.);
#338=LINE('',#555,#376);
#339=LINE('',#558,#377);
#340=LINE('',#560,#378);
#341=LINE('',#562,#379);
#342=LINE('',#564,#380);
#343=LINE('',#572,#381);
#344=LINE('',#576,#382);
#345=LINE('',#580,#383);
#346=LINE('',#582,#384);
#347=LINE('',#584,#385);
#348=LINE('',#586,#386);
#349=LINE('',#588,#387);
#350=LINE('',#590,#388);
#351=LINE('',#592,#389);
#352=LINE('',#594,#390);
#353=LINE('',#596,#391);
#354=LINE('',#598,#392);
#355=LINE('',#600,#393);
#356=LINE('',#602,#394);
#357=LINE('',#604,#395);
#358=LINE('',#606,#396);
#359=LINE('',#608,#397);
#360=LINE('',#610,#398);
#361=LINE('',#612,#399);
#362=LINE('',#614,#400);
#363=LINE('',#616,#401);
#364=LINE('',#624,#402);
#365=LINE('',#626,#403);
#366=LINE('',#627,#404);
#367=LINE('',#629,#405);
#368=LINE('',#631,#406);
#369=LINE('',#634,#407);
#370=LINE('',#636,#408);
#371=LINE('',#638,#409);
#372=LINE('',#641,#410);
#373=LINE('',#642,#411);
#374=LINE('',#646,#412);
#375=LINE('',#651,#413);
#376=VECTOR('',#450,1.);
#377=VECTOR('',#451,1.);
#378=VECTOR('',#452,1.);
#379=VECTOR('',#453,1.);
#380=VECTOR('',#454,1.);
#381=VECTOR('',#463,1.);
#382=VECTOR('',#466,1.);
#383=VECTOR('',#469,1.);
#384=VECTOR('',#470,1.);
#385=VECTOR('',#471,1.);
#386=VECTOR('',#472,1.);
#387=VECTOR('',#473,1.);
#388=VECTOR('',#476,1.);
#389=VECTOR('',#477,1.);
#390=VECTOR('',#478,1.);
#391=VECTOR('',#479,1.);
#392=VECTOR('',#480,1.);
#393=VECTOR('',#481,1.);
#394=VECTOR('',#482,1.);
#395=VECTOR('',#485,1.);
#396=VECTOR('',#486,1.);
#397=VECTOR('',#487,1.);
#398=VECTOR('',#488,1.);
#399=VECTOR('',#491,1.);
#400=VECTOR('',#492,1.);
#401=VECTOR('',#493,1.);
#402=VECTOR('',#502,1.);
#403=VECTOR('',#505,1.);
#404=VECTOR('',#506,1.);
#405=VECTOR('',#509,1.);
#406=VECTOR('',#512,1.);
#407=VECTOR('',#517,1.);
#408=VECTOR('',#518,1.);
#409=VECTOR('',#521,1.);
#410=VECTOR('',#522,1.);
#411=VECTOR('',#523,1.);
#412=VECTOR('',#528,1.);
#413=VECTOR('',#535,1.);
#414=AXIS2_PLACEMENT_3D('',#554,#448,#449);
#415=AXIS2_PLACEMENT_3D('',#565,#455,#456);
#416=AXIS2_PLACEMENT_3D('',#566,#457,#458);
#417=AXIS2_PLACEMENT_3D('',#568,#459,#460);
#418=AXIS2_PLACEMENT_3D('',#570,#461,#462);
#419=AXIS2_PLACEMENT_3D('',#574,#464,#465);
#420=AXIS2_PLACEMENT_3D('',#578,#467,#468);
#421=AXIS2_PLACEMENT_3D('',#589,#474,#475);
#422=AXIS2_PLACEMENT_3D('',#603,#483,#484);
#423=AXIS2_PLACEMENT_3D('',#611,#489,#490);
#424=AXIS2_PLACEMENT_3D('',#617,#494,#495);
#425=AXIS2_PLACEMENT_3D('',#618,#496,#497);
#426=AXIS2_PLACEMENT_3D('',#620,#498,#499);
#427=AXIS2_PLACEMENT_3D('',#622,#500,#501);
#428=AXIS2_PLACEMENT_3D('',#625,#503,#504);
#429=AXIS2_PLACEMENT_3D('',#628,#507,#508);
#430=AXIS2_PLACEMENT_3D('',#630,#510,#511);
#431=AXIS2_PLACEMENT_3D('',#632,#513,#514);
#432=AXIS2_PLACEMENT_3D('',#633,#515,#516);
#433=AXIS2_PLACEMENT_3D('',#637,#519,#520);
#434=AXIS2_PLACEMENT_3D('',#643,#524,#525);
#435=AXIS2_PLACEMENT_3D('',#644,#526,#527);
#436=AXIS2_PLACEMENT_3D('',#648,#529,#530);
#437=AXIS2_PLACEMENT_3D('',#649,#531,#532);
#438=AXIS2_PLACEMENT_3D('',#650,#533,#534);
#439=AXIS2_PLACEMENT_3D('',#652,#536,#537);
#440=AXIS2_PLACEMENT_3D('',#653,#538,#539);
#441=AXIS2_PLACEMENT_3D('',#654,#540,#541);
#442=AXIS2_PLACEMENT_3D('',#655,#542,#543);
#443=AXIS2_PLACEMENT_3D('',#656,#544,#545);
#444=AXIS2_PLACEMENT_3D('',#657,#546,#547);
#445=AXIS2_PLACEMENT_3D('',#659,#548,#549);
#446=AXIS2_PLACEMENT_3D('',#660,#550,#551);
#447=AXIS2_PLACEMENT_3D('',#661,#552,#553);
#448=DIRECTION('',(0.,0.,1.));
#449=DIRECTION('',(1.,0.,0.));
#450=DIRECTION('',(0.,-0.707106781186548,-0.707106781186548));
#451=DIRECTION('',(1.,0.,0.));
#452=DIRECTION('',(-0.577350269189626,-0.577350269189626,-0.577350269189626));
#453=DIRECTION('',(0.,0.707106781186548,0.707106781186548));
#454=DIRECTION('',(-1.,0.,0.));
#455=DIRECTION('',(0.,0.707106781186548,-0.707106781186548));
#456=DIRECTION('',(-1.,0.,0.));
#457=DIRECTION('',(0.,0.,1.));
#458=DIRECTION('',(1.,0.,0.));
#459=DIRECTION('',(0.,0.,1.));
#460=DIRECTION('',(0.999999999999998,0.,0.));
#461=DIRECTION('',(0.,0.,1.));
#462=DIRECTION('',(0.999999999999997,0.,0.));
#463=DIRECTION('',(0.,-1.,0.));
#464=DIRECTION('',(0.,0.,-1.));
#465=DIRECTION('',(0.999999999999999,0.,0.));
#466=DIRECTION('',(-1.,0.,0.));
#467=DIRECTION('',(0.,0.,-1.));
#468=DIRECTION('',(0.999999999999999,0.,0.));
#469=DIRECTION('',(0.,1.,0.));
#470=DIRECTION('',(1.,0.,0.));
#471=DIRECTION('',(0.,-1.,0.));
#472=DIRECTION('',(-1.,0.,0.));
#473=DIRECTION('',(0.,-1.,0.));
#474=DIRECTION('',(0.,0.,1.));
#475=DIRECTION('',(1.,0.,0.));
#476=DIRECTION('',(0.,0.,1.));
#477=DIRECTION('',(0.,0.,1.));
#478=DIRECTION('',(1.,0.,0.));
#479=DIRECTION('',(0.,0.,1.));
#480=DIRECTION('',(-1.,0.,0.));
#481=DIRECTION('',(0.,0.,1.));
#482=DIRECTION('',(1.,0.,0.));
#483=DIRECTION('',(0.,-1.,0.));
#484=DIRECTION('',(0.,0.,-1.));
#485=DIRECTION('',(0.,1.,0.));
#486=DIRECTION('',(0.,0.707106781186548,-0.707106781186548));
#487=DIRECTION('',(0.,0.,1.));
#488=DIRECTION('',(0.,-1.,0.));
#489=DIRECTION('',(-1.,0.,0.));
#490=DIRECTION('',(0.,0.,1.));
#491=DIRECTION('',(1.,0.,0.));
#492=DIRECTION('',(0.,0.,1.));
#493=DIRECTION('',(-1.,0.,0.));
#494=DIRECTION('',(0.,1.,0.));
#495=DIRECTION('',(0.,0.,1.));
#496=DIRECTION('',(0.,0.,-1.));
#497=DIRECTION('',(-1.,0.,0.));
#498=DIRECTION('',(0.,0.,-1.));
#499=DIRECTION('',(-0.999999999999998,0.,0.));
#500=DIRECTION('',(0.,0.,-1.));
#501=DIRECTION('',(-1.,0.,0.));
#502=DIRECTION('',(0.,1.,0.));
#503=DIRECTION('',(0.,0.,-1.));
#504=DIRECTION('',(-1.,0.,0.));
#505=DIRECTION('',(0.,-0.707106781186548,0.707106781186548));
#506=DIRECTION('',(0.,-0.707106781186548,-0.707106781186548));
#507=DIRECTION('',(1.,0.,0.));
#508=DIRECTION('',(0.,0.,-1.));
#509=DIRECTION('',(0.,0.707106781186548,0.707106781186548));
#510=DIRECTION('',(0.,0.707106781186548,-0.707106781186548));
#511=DIRECTION('',(-1.,0.,0.));
#512=DIRECTION('',(0.577350269189626,-0.577350269189626,0.577350269189626));
#513=DIRECTION('',(0.,-0.707106781186548,-0.707106781186548));
#514=DIRECTION('',(1.,0.,0.));
#515=DIRECTION('',(0.707106781186547,0.,-0.707106781186547));
#516=DIRECTION('',(0.,1.,0.));
#517=DIRECTION('',(0.,1.,0.));
#518=DIRECTION('',(0.,0.,1.));
#519=DIRECTION('',(-1.,0.,0.));
#520=DIRECTION('',(0.,0.,1.));
#521=DIRECTION('',(1.,0.,0.));
#522=DIRECTION('',(0.,0.,1.));
#523=DIRECTION('',(0.,0.,-1.));
#524=DIRECTION('',(0.,1.,0.));
#525=DIRECTION('',(0.,0.,1.));
#526=DIRECTION('',(0.,0.,-1.));
#527=DIRECTION('',(-1.,0.,0.));
#528=DIRECTION('',(0.,-1.,0.));
#529=DIRECTION('',(0.,0.,1.));
#530=DIRECTION('',(-0.999999999999999,0.,0.));
#531=DIRECTION('',(0.,0.,1.));
#532=DIRECTION('',(-0.999999999999999,0.,0.));
#533=DIRECTION('',(0.,0.,-1.));
#534=DIRECTION('',(-1.,0.,0.));
#535=DIRECTION('',(0.,0.,-1.));
#536=DIRECTION('',(1.,0.,0.));
#537=DIRECTION('',(0.,0.,-1.));
#538=DIRECTION('',(0.,0.,1.));
#539=DIRECTION('',(0.999999999999999,0.,0.));
#540=DIRECTION('',(0.,0.,1.));
#541=DIRECTION('',(0.999999999999999,0.,0.));
#542=DIRECTION('',(0.,0.,-1.));
#543=DIRECTION('',(0.999999999999997,0.,0.));
#544=DIRECTION('',(0.,0.,-1.));
#545=DIRECTION('',(0.999999999999998,0.,0.));
#546=DIRECTION('',(0.,0.,-1.));
#547=DIRECTION('',(1.,0.,0.));
#548=DIRECTION('',(0.,0.,-1.));
#549=DIRECTION('',(1.,0.,0.));
#550=DIRECTION('',(0.,0.,-1.));
#551=DIRECTION('',(-1.,0.,0.));
#552=DIRECTION('',(0.,0.,-1.));
#553=DIRECTION('',(1.,0.,0.));
#554=CARTESIAN_POINT('',(0.,0.,0.));
#555=CARTESIAN_POINT('',(263.4,0.,54.4));
#556=CARTESIAN_POINT('',(263.4,10.1,64.5));
#557=CARTESIAN_POINT('',(263.4,0.,54.4));
#558=CARTESIAN_POINT('',(193.8,10.1,64.5));
#559=CARTESIAN_POINT('',(9.6,10.1,64.5));
#560=CARTESIAN_POINT('',(64.2666666666667,64.7666666666667,119.166666666667));
#561=CARTESIAN_POINT('',(0.,0.500000000000014,54.9));
#562=CARTESIAN_POINT('',(0.,25.675,80.075));
#563=CARTESIAN_POINT('',(0.,0.,54.4));
#564=CARTESIAN_POINT('',(193.8,0.,54.4));
#565=CARTESIAN_POINT('',(193.8,0.,54.4));
#566=CARTESIAN_POINT('',(31.5,104.5,64.5));
#567=CARTESIAN_POINT('',(46.75,104.5,64.5));
#568=CARTESIAN_POINT('',(289.2,90.5,64.5));
#569=CARTESIAN_POINT('',(297.9,90.5,64.5));
#570=CARTESIAN_POINT('',(123.4,111.2,64.5));
#571=CARTESIAN_POINT('',(128.3,111.2,64.5));
#572=CARTESIAN_POINT('',(263.4,105.75,64.5));
#573=CARTESIAN_POINT('',(263.4,44.7,64.5));
#574=CARTESIAN_POINT('',(277.7,44.7,64.5));
#575=CARTESIAN_POINT('',(277.7,59.,64.5));
#576=CARTESIAN_POINT('',(193.8,59.,64.5));
#577=CARTESIAN_POINT('',(333.8,59.,64.5));
#578=CARTESIAN_POINT('',(333.8,44.7,64.5));
#579=CARTESIAN_POINT('',(348.1,44.7,64.5));
#580=CARTESIAN_POINT('',(348.1,105.75,64.5));
#581=CARTESIAN_POINT('',(348.1,10.1,64.5));
#582=CARTESIAN_POINT('',(193.8,10.1,64.5));
#583=CARTESIAN_POINT('',(387.6,10.1,64.5));
#584=CARTESIAN_POINT('',(387.6,105.75,64.5));
#585=CARTESIAN_POINT('',(387.6,200.4,64.5));
#586=CARTESIAN_POINT('',(193.8,200.4,64.5));
#587=CARTESIAN_POINT('',(9.6,200.4,64.5));
#588=CARTESIAN_POINT('',(9.6,105.75,64.5));
#589=CARTESIAN_POINT('',(193.8,105.75,64.5));
#590=CARTESIAN_POINT('',(263.4,0.,43.1));
#591=CARTESIAN_POINT('',(263.4,0.,43.1));
#592=CARTESIAN_POINT('',(0.,0.,0.));
#593=CARTESIAN_POINT('',(0.,0.,0.));
#594=CARTESIAN_POINT('',(193.8,0.,0.));
#595=CARTESIAN_POINT('',(387.6,0.,0.));
#596=CARTESIAN_POINT('',(387.6,0.,0.));
#597=CARTESIAN_POINT('',(387.6,0.,54.4));
#598=CARTESIAN_POINT('',(193.8,0.,54.4));
#599=CARTESIAN_POINT('',(348.1,0.,54.4));
#600=CARTESIAN_POINT('',(348.1,0.,43.1));
#601=CARTESIAN_POINT('',(348.1,0.,43.1));
#602=CARTESIAN_POINT('',(305.75,0.,43.1));
#603=CARTESIAN_POINT('',(193.8,0.,0.));
#604=CARTESIAN_POINT('',(0.,105.75,54.9));
#605=CARTESIAN_POINT('',(0.,210.,54.9));
#606=CARTESIAN_POINT('',(0.,185.325,79.575));
#607=CARTESIAN_POINT('',(0.,211.5,53.4));
#608=CARTESIAN_POINT('',(0.,211.5,0.));
#609=CARTESIAN_POINT('',(0.,211.5,0.));
#610=CARTESIAN_POINT('',(0.,105.75,0.));
#611=CARTESIAN_POINT('',(0.,105.75,0.));
#612=CARTESIAN_POINT('',(193.8,211.5,53.4));
#613=CARTESIAN_POINT('',(387.6,211.5,53.4));
#614=CARTESIAN_POINT('',(387.6,211.5,0.));
#615=CARTESIAN_POINT('',(387.6,211.5,0.));
#616=CARTESIAN_POINT('',(193.8,211.5,0.));
#617=CARTESIAN_POINT('',(193.8,211.5,0.));
#618=CARTESIAN_POINT('',(31.5,104.5,0.));
#619=CARTESIAN_POINT('',(16.25,104.5,0.));
#620=CARTESIAN_POINT('',(289.2,90.5,0.));
#621=CARTESIAN_POINT('',(280.5,90.5,0.));
#622=CARTESIAN_POINT('',(123.4,111.2,0.));
#623=CARTESIAN_POINT('',(118.5,111.2,0.));
#624=CARTESIAN_POINT('',(387.6,105.75,0.));
#625=CARTESIAN_POINT('',(193.8,105.75,0.));
#626=CARTESIAN_POINT('',(387.6,185.325,79.575));
#627=CARTESIAN_POINT('',(387.6,25.675,80.075));
#628=CARTESIAN_POINT('',(387.6,105.75,0.));
#629=CARTESIAN_POINT('',(348.1,0.,54.4));
#630=CARTESIAN_POINT('',(193.8,0.,54.4));
#631=CARTESIAN_POINT('',(63.6,146.4,118.5));
#632=CARTESIAN_POINT('',(193.8,211.5,53.4));
#633=CARTESIAN_POINT('',(0.,105.75,54.9));
#634=CARTESIAN_POINT('',(263.4,29.5,43.1));
#635=CARTESIAN_POINT('',(263.4,44.7,43.1));
#636=CARTESIAN_POINT('',(263.4,44.7,64.5));
#637=CARTESIAN_POINT('',(263.4,29.5,43.1));
#638=CARTESIAN_POINT('',(305.75,59.,43.1));
#639=CARTESIAN_POINT('',(277.7,59.,43.1));
#640=CARTESIAN_POINT('',(333.8,59.,43.1));
#641=CARTESIAN_POINT('',(333.8,59.,64.5));
#642=CARTESIAN_POINT('',(277.7,59.,43.1));
#643=CARTESIAN_POINT('',(305.75,59.,43.1));
#644=CARTESIAN_POINT('',(295.3,31.8,43.1));
#645=CARTESIAN_POINT('',(289.95,31.8,43.1));
#646=CARTESIAN_POINT('',(348.1,29.5,43.1));
#647=CARTESIAN_POINT('',(348.1,44.7,43.1));
#648=CARTESIAN_POINT('',(333.8,44.7,43.1));
#649=CARTESIAN_POINT('',(277.7,44.7,43.1));
#650=CARTESIAN_POINT('',(305.75,29.5,43.1));
#651=CARTESIAN_POINT('',(348.1,44.7,43.1));
#652=CARTESIAN_POINT('',(348.1,29.5,43.1));
#653=CARTESIAN_POINT('',(333.8,44.7,43.1));
#654=CARTESIAN_POINT('',(277.7,44.7,43.1));
#655=CARTESIAN_POINT('',(123.4,111.2,64.55));
#656=CARTESIAN_POINT('',(289.2,90.5,64.55));
#657=CARTESIAN_POINT('',(295.3,31.8,42.1));
#658=CARTESIAN_POINT('',(300.65,31.8,42.1));
#659=CARTESIAN_POINT('',(295.3,31.8,64.55));
#660=CARTESIAN_POINT('',(295.3,31.8,42.1));
#661=CARTESIAN_POINT('',(31.5,104.5,64.55));
#662=MECHANICAL_DESIGN_GEOMETRIC_PRESENTATION_REPRESENTATION('',(#24),#663);
#663=(
GEOMETRIC_REPRESENTATION_CONTEXT(3)
GLOBAL_UNCERTAINTY_ASSIGNED_CONTEXT((#664))
GLOBAL_UNIT_ASSIGNED_CONTEXT((#670,#666,#665))
REPRESENTATION_CONTEXT('featured_part_05683','TOP_LEVEL_ASSEMBLY_PART')
);
#664=UNCERTAINTY_MEASURE_WITH_UNIT(LENGTH_MEASURE(2.E-5),#670,
'DISTANCE_ACCURACY_VALUE','Maximum Tolerance applied to model');
#665=(
NAMED_UNIT(*)
SI_UNIT($,.STERADIAN.)
SOLID_ANGLE_UNIT()
);
#666=(
CONVERSION_BASED_UNIT('DEGREE',#668)
NAMED_UNIT(#667)
PLANE_ANGLE_UNIT()
);
#667=DIMENSIONAL_EXPONENTS(0.,0.,0.,0.,0.,0.,0.);
#668=PLANE_ANGLE_MEASURE_WITH_UNIT(PLANE_ANGLE_MEASURE(0.0174532925),#669);
#669=(
NAMED_UNIT(*)
PLANE_ANGLE_UNIT()
SI_UNIT($,.RADIAN.)
);
#670=(
LENGTH_UNIT()
NAMED_UNIT(*)
SI_UNIT(.MILLI.,.METRE.)
);
ENDSEC;
END-ISO-10303-21;
