ISO-10303-21;
HEADER;
/* Generated by software containing ST-Developer
 * from STEP Tools, Inc. (www.steptools.com) 
 */
/* OPTION: using custom schema-name function */

FILE_DESCRIPTION(
/* description */ (''),
/* implementation_level */ '2;1');

FILE_NAME(
/* name */ 'featured_part_09739.stp',
/* time_stamp */ '2026-07-11T17:13:51-04:00',
/* author */ (''),
/* organization */ (''),
/* preprocessor_version */ 'ST-DEVELOPER v20.1',
/* originating_system */ 'SIEMENS PLM Software NX2512.6002',
/* authorisation */ '');

FILE_SCHEMA (('AUTOMOTIVE_DESIGN { 1 0 10303 214 3 1 1 1 }'));
ENDSEC;

DATA;
#10=SHAPE_REPRESENTATION_RELATIONSHIP('None',
'relationship between featured_part_09739-None and featured_part_09739
-None',#22,#11);
#11=ADVANCED_BREP_SHAPE_REPRESENTATION('featured_part_09739-None',(#32),
#744);
#12=SHAPE_DEFINITION_REPRESENTATION(#13,#22);
#13=PRODUCT_DEFINITION_SHAPE('','',#14);
#14=PRODUCT_DEFINITION(' ','',#16,#15);
#15=PRODUCT_DEFINITION_CONTEXT('part definition',#21,'design');
#16=PRODUCT_DEFINITION_FORMATION_WITH_SPECIFIED_SOURCE(' ',' ',#18,
 .NOT_KNOWN.);
#17=PRODUCT_RELATED_PRODUCT_CATEGORY('part','',(#18));
#18=PRODUCT('featured_part_09739','featured_part_09739',' ',(#19));
#19=PRODUCT_CONTEXT(' ',#21,'mechanical');
#20=APPLICATION_PROTOCOL_DEFINITION('international standard',
'automotive_design',2010,#21);
#21=APPLICATION_CONTEXT(
'core data for automotive mechanical design processes');
#22=SHAPE_REPRESENTATION('featured_part_09739-None',(#457),#744);
#23=PRESENTATION_LAYER_ASSIGNMENT('1','Layer 1',(#32));
#24=STYLED_ITEM('',(#25),#32);
#25=PRESENTATION_STYLE_ASSIGNMENT((#26));
#26=SURFACE_STYLE_USAGE(.BOTH.,#27);
#27=SURFACE_SIDE_STYLE('',(#28));
#28=SURFACE_STYLE_FILL_AREA(#29);
#29=FILL_AREA_STYLE('',(#30));
#30=FILL_AREA_STYLE_COLOUR('',#31);
#31=COLOUR_RGB('medium steel',0.611764705882353,0.658823529411765,0.670588235294118);
#32=MANIFOLD_SOLID_BREP('',#33);
#33=CLOSED_SHELL('',(#62,#63,#64,#65,#66,#67,#68,#69,#70,#71,#72,#73,#74,
#75,#76,#77,#78,#79,#80,#81,#82,#83,#84,#85));
#34=CYLINDRICAL_SURFACE('',#481,12.5);
#35=CYLINDRICAL_SURFACE('',#482,12.5);
#36=CYLINDRICAL_SURFACE('',#483,12.5);
#37=CYLINDRICAL_SURFACE('',#484,12.5);
#38=CYLINDRICAL_SURFACE('',#491,13.5);
#39=CYLINDRICAL_SURFACE('',#492,13.5);
#40=CYLINDRICAL_SURFACE('',#494,4.);
#41=FACE_OUTER_BOUND('',#111,.T.);
#42=FACE_OUTER_BOUND('',#112,.T.);
#43=FACE_OUTER_BOUND('',#113,.T.);
#44=FACE_OUTER_BOUND('',#114,.T.);
#45=FACE_OUTER_BOUND('',#115,.T.);
#46=FACE_OUTER_BOUND('',#116,.T.);
#47=FACE_OUTER_BOUND('',#117,.T.);
#48=FACE_OUTER_BOUND('',#118,.T.);
#49=FACE_OUTER_BOUND('',#119,.T.);
#50=FACE_OUTER_BOUND('',#122,.T.);
#51=FACE_OUTER_BOUND('',#123,.T.);
#52=FACE_OUTER_BOUND('',#124,.T.);
#53=FACE_OUTER_BOUND('',#125,.T.);
#54=FACE_OUTER_BOUND('',#126,.T.);
#55=FACE_OUTER_BOUND('',#127,.T.);
#56=FACE_OUTER_BOUND('',#128,.T.);
#57=FACE_OUTER_BOUND('',#129,.T.);
#58=FACE_OUTER_BOUND('',#130,.T.);
#59=FACE_OUTER_BOUND('',#131,.T.);
#60=FACE_OUTER_BOUND('',#132,.T.);
#61=FACE_OUTER_BOUND('',#135,.T.);
#62=ADVANCED_FACE('',(#103,#104),#86,.T.);
#63=ADVANCED_FACE('',(#41),#87,.T.);
#64=ADVANCED_FACE('',(#42),#88,.T.);
#65=ADVANCED_FACE('',(#43),#89,.T.);
#66=ADVANCED_FACE('',(#44),#90,.T.);
#67=ADVANCED_FACE('',(#45),#91,.T.);
#68=ADVANCED_FACE('',(#46),#92,.F.);
#69=ADVANCED_FACE('',(#47),#93,.F.);
#70=ADVANCED_FACE('',(#48),#94,.F.);
#71=ADVANCED_FACE('',(#49),#95,.F.);
#72=ADVANCED_FACE('',(#105,#106),#96,.F.);
#73=ADVANCED_FACE('',(#50),#97,.F.);
#74=ADVANCED_FACE('',(#51),#34,.F.);
#75=ADVANCED_FACE('',(#52),#35,.F.);
#76=ADVANCED_FACE('',(#53),#36,.F.);
#77=ADVANCED_FACE('',(#54),#37,.F.);
#78=ADVANCED_FACE('',(#55),#98,.F.);
#79=ADVANCED_FACE('',(#56),#99,.F.);
#80=ADVANCED_FACE('',(#57),#100,.F.);
#81=ADVANCED_FACE('',(#58),#101,.F.);
#82=ADVANCED_FACE('',(#59),#38,.F.);
#83=ADVANCED_FACE('',(#60),#39,.F.);
#84=ADVANCED_FACE('',(#107,#108),#40,.F.);
#85=ADVANCED_FACE('',(#61),#102,.F.);
#86=PLANE('',#464);
#87=PLANE('',#465);
#88=PLANE('',#466);
#89=PLANE('',#467);
#90=PLANE('',#468);
#91=PLANE('',#469);
#92=PLANE('',#470);
#93=PLANE('',#471);
#94=PLANE('',#472);
#95=PLANE('',#473);
#96=PLANE('',#479);
#97=PLANE('',#480);
#98=PLANE('',#485);
#99=PLANE('',#486);
#100=PLANE('',#489);
#101=PLANE('',#490);
#102=PLANE('',#495);
#103=FACE_BOUND('',#109,.T.);
#104=FACE_BOUND('',#110,.T.);
#105=FACE_BOUND('',#120,.T.);
#106=FACE_BOUND('',#121,.T.);
#107=FACE_BOUND('',#133,.T.);
#108=FACE_BOUND('',#134,.T.);
#109=EDGE_LOOP('',(#150,#151,#152,#153,#154,#155,#156,#157,#158,#159));
#110=EDGE_LOOP('',(#160,#161,#162,#163,#164,#165,#166,#167));
#111=EDGE_LOOP('',(#168,#169,#170,#171,#172));
#112=EDGE_LOOP('',(#173,#174,#175,#176,#177,#178,#179,#180));
#113=EDGE_LOOP('',(#181,#182,#183,#184,#185));
#114=EDGE_LOOP('',(#186,#187,#188,#189));
#115=EDGE_LOOP('',(#190,#191,#192,#193));
#116=EDGE_LOOP('',(#194,#195,#196,#197));
#117=EDGE_LOOP('',(#198,#199,#200,#201));
#118=EDGE_LOOP('',(#202,#203,#204,#205));
#119=EDGE_LOOP('',(#206,#207,#208,#209));
#120=EDGE_LOOP('',(#210));
#121=EDGE_LOOP('',(#211,#212,#213,#214,#215,#216,#217,#218));
#122=EDGE_LOOP('',(#219,#220,#221,#222));
#123=EDGE_LOOP('',(#223,#224,#225,#226));
#124=EDGE_LOOP('',(#227,#228,#229,#230));
#125=EDGE_LOOP('',(#231,#232,#233,#234));
#126=EDGE_LOOP('',(#235,#236,#237,#238));
#127=EDGE_LOOP('',(#239,#240,#241,#242));
#128=EDGE_LOOP('',(#243,#244,#245,#246));
#129=EDGE_LOOP('',(#247,#248,#249,#250,#251,#252));
#130=EDGE_LOOP('',(#253,#254,#255,#256));
#131=EDGE_LOOP('',(#257,#258,#259,#260));
#132=EDGE_LOOP('',(#261,#262,#263,#264));
#133=EDGE_LOOP('',(#265));
#134=EDGE_LOOP('',(#266));
#135=EDGE_LOOP('',(#267));
#136=CIRCLE('',#458,13.5);
#137=CIRCLE('',#459,13.5);
#138=CIRCLE('',#460,12.5);
#139=CIRCLE('',#461,12.5);
#140=CIRCLE('',#462,12.5);
#141=CIRCLE('',#463,12.5);
#142=CIRCLE('',#474,4.);
#143=CIRCLE('',#475,12.5);
#144=CIRCLE('',#476,12.5);
#145=CIRCLE('',#477,12.5);
#146=CIRCLE('',#478,12.5);
#147=CIRCLE('',#487,13.5);
#148=CIRCLE('',#488,13.5);
#149=CIRCLE('',#493,4.);
#150=ORIENTED_EDGE('',*,*,#308,.F.);
#151=ORIENTED_EDGE('',*,*,#309,.F.);
#152=ORIENTED_EDGE('',*,*,#310,.F.);
#153=ORIENTED_EDGE('',*,*,#311,.T.);
#154=ORIENTED_EDGE('',*,*,#312,.F.);
#155=ORIENTED_EDGE('',*,*,#313,.F.);
#156=ORIENTED_EDGE('',*,*,#314,.F.);
#157=ORIENTED_EDGE('',*,*,#315,.T.);
#158=ORIENTED_EDGE('',*,*,#316,.F.);
#159=ORIENTED_EDGE('',*,*,#317,.T.);
#160=ORIENTED_EDGE('',*,*,#318,.F.);
#161=ORIENTED_EDGE('',*,*,#319,.T.);
#162=ORIENTED_EDGE('',*,*,#320,.F.);
#163=ORIENTED_EDGE('',*,*,#321,.T.);
#164=ORIENTED_EDGE('',*,*,#322,.F.);
#165=ORIENTED_EDGE('',*,*,#323,.T.);
#166=ORIENTED_EDGE('',*,*,#324,.F.);
#167=ORIENTED_EDGE('',*,*,#325,.T.);
#168=ORIENTED_EDGE('',*,*,#326,.T.);
#169=ORIENTED_EDGE('',*,*,#327,.T.);
#170=ORIENTED_EDGE('',*,*,#310,.T.);
#171=ORIENTED_EDGE('',*,*,#328,.F.);
#172=ORIENTED_EDGE('',*,*,#329,.T.);
#173=ORIENTED_EDGE('',*,*,#330,.F.);
#174=ORIENTED_EDGE('',*,*,#331,.F.);
#175=ORIENTED_EDGE('',*,*,#332,.T.);
#176=ORIENTED_EDGE('',*,*,#313,.T.);
#177=ORIENTED_EDGE('',*,*,#333,.F.);
#178=ORIENTED_EDGE('',*,*,#334,.T.);
#179=ORIENTED_EDGE('',*,*,#328,.T.);
#180=ORIENTED_EDGE('',*,*,#309,.T.);
#181=ORIENTED_EDGE('',*,*,#312,.T.);
#182=ORIENTED_EDGE('',*,*,#335,.T.);
#183=ORIENTED_EDGE('',*,*,#336,.F.);
#184=ORIENTED_EDGE('',*,*,#337,.T.);
#185=ORIENTED_EDGE('',*,*,#333,.T.);
#186=ORIENTED_EDGE('',*,*,#338,.F.);
#187=ORIENTED_EDGE('',*,*,#329,.F.);
#188=ORIENTED_EDGE('',*,*,#334,.F.);
#189=ORIENTED_EDGE('',*,*,#337,.F.);
#190=ORIENTED_EDGE('',*,*,#336,.T.);
#191=ORIENTED_EDGE('',*,*,#339,.T.);
#192=ORIENTED_EDGE('',*,*,#326,.F.);
#193=ORIENTED_EDGE('',*,*,#338,.T.);
#194=ORIENTED_EDGE('',*,*,#335,.F.);
#195=ORIENTED_EDGE('',*,*,#311,.F.);
#196=ORIENTED_EDGE('',*,*,#327,.F.);
#197=ORIENTED_EDGE('',*,*,#339,.F.);
#198=ORIENTED_EDGE('',*,*,#318,.T.);
#199=ORIENTED_EDGE('',*,*,#340,.T.);
#200=ORIENTED_EDGE('',*,*,#341,.T.);
#201=ORIENTED_EDGE('',*,*,#342,.T.);
#202=ORIENTED_EDGE('',*,*,#343,.T.);
#203=ORIENTED_EDGE('',*,*,#344,.T.);
#204=ORIENTED_EDGE('',*,*,#320,.T.);
#205=ORIENTED_EDGE('',*,*,#345,.T.);
#206=ORIENTED_EDGE('',*,*,#346,.T.);
#207=ORIENTED_EDGE('',*,*,#347,.T.);
#208=ORIENTED_EDGE('',*,*,#322,.T.);
#209=ORIENTED_EDGE('',*,*,#348,.T.);
#210=ORIENTED_EDGE('',*,*,#349,.T.);
#211=ORIENTED_EDGE('',*,*,#341,.F.);
#212=ORIENTED_EDGE('',*,*,#350,.T.);
#213=ORIENTED_EDGE('',*,*,#351,.F.);
#214=ORIENTED_EDGE('',*,*,#352,.T.);
#215=ORIENTED_EDGE('',*,*,#346,.F.);
#216=ORIENTED_EDGE('',*,*,#353,.T.);
#217=ORIENTED_EDGE('',*,*,#343,.F.);
#218=ORIENTED_EDGE('',*,*,#354,.T.);
#219=ORIENTED_EDGE('',*,*,#351,.T.);
#220=ORIENTED_EDGE('',*,*,#355,.T.);
#221=ORIENTED_EDGE('',*,*,#324,.T.);
#222=ORIENTED_EDGE('',*,*,#356,.T.);
#223=ORIENTED_EDGE('',*,*,#325,.F.);
#224=ORIENTED_EDGE('',*,*,#355,.F.);
#225=ORIENTED_EDGE('',*,*,#350,.F.);
#226=ORIENTED_EDGE('',*,*,#340,.F.);
#227=ORIENTED_EDGE('',*,*,#323,.F.);
#228=ORIENTED_EDGE('',*,*,#347,.F.);
#229=ORIENTED_EDGE('',*,*,#352,.F.);
#230=ORIENTED_EDGE('',*,*,#356,.F.);
#231=ORIENTED_EDGE('',*,*,#321,.F.);
#232=ORIENTED_EDGE('',*,*,#344,.F.);
#233=ORIENTED_EDGE('',*,*,#353,.F.);
#234=ORIENTED_EDGE('',*,*,#348,.F.);
#235=ORIENTED_EDGE('',*,*,#319,.F.);
#236=ORIENTED_EDGE('',*,*,#342,.F.);
#237=ORIENTED_EDGE('',*,*,#354,.F.);
#238=ORIENTED_EDGE('',*,*,#345,.F.);
#239=ORIENTED_EDGE('',*,*,#308,.T.);
#240=ORIENTED_EDGE('',*,*,#357,.T.);
#241=ORIENTED_EDGE('',*,*,#358,.T.);
#242=ORIENTED_EDGE('',*,*,#330,.T.);
#243=ORIENTED_EDGE('',*,*,#359,.T.);
#244=ORIENTED_EDGE('',*,*,#360,.T.);
#245=ORIENTED_EDGE('',*,*,#314,.T.);
#246=ORIENTED_EDGE('',*,*,#332,.F.);
#247=ORIENTED_EDGE('',*,*,#361,.F.);
#248=ORIENTED_EDGE('',*,*,#362,.T.);
#249=ORIENTED_EDGE('',*,*,#359,.F.);
#250=ORIENTED_EDGE('',*,*,#331,.T.);
#251=ORIENTED_EDGE('',*,*,#358,.F.);
#252=ORIENTED_EDGE('',*,*,#363,.T.);
#253=ORIENTED_EDGE('',*,*,#316,.T.);
#254=ORIENTED_EDGE('',*,*,#364,.T.);
#255=ORIENTED_EDGE('',*,*,#361,.T.);
#256=ORIENTED_EDGE('',*,*,#365,.T.);
#257=ORIENTED_EDGE('',*,*,#315,.F.);
#258=ORIENTED_EDGE('',*,*,#360,.F.);
#259=ORIENTED_EDGE('',*,*,#362,.F.);
#260=ORIENTED_EDGE('',*,*,#364,.F.);
#261=ORIENTED_EDGE('',*,*,#317,.F.);
#262=ORIENTED_EDGE('',*,*,#365,.F.);
#263=ORIENTED_EDGE('',*,*,#363,.F.);
#264=ORIENTED_EDGE('',*,*,#357,.F.);
#265=ORIENTED_EDGE('',*,*,#366,.T.);
#266=ORIENTED_EDGE('',*,*,#349,.F.);
#267=ORIENTED_EDGE('',*,*,#366,.F.);
#268=VERTEX_POINT('',#621);
#269=VERTEX_POINT('',#622);
#270=VERTEX_POINT('',#624);
#271=VERTEX_POINT('',#626);
#272=VERTEX_POINT('',#628);
#273=VERTEX_POINT('',#630);
#274=VERTEX_POINT('',#632);
#275=VERTEX_POINT('',#634);
#276=VERTEX_POINT('',#636);
#277=VERTEX_POINT('',#638);
#278=VERTEX_POINT('',#641);
#279=VERTEX_POINT('',#642);
#280=VERTEX_POINT('',#644);
#281=VERTEX_POINT('',#646);
#282=VERTEX_POINT('',#648);
#283=VERTEX_POINT('',#650);
#284=VERTEX_POINT('',#652);
#285=VERTEX_POINT('',#654);
#286=VERTEX_POINT('',#658);
#287=VERTEX_POINT('',#659);
#288=VERTEX_POINT('',#662);
#289=VERTEX_POINT('',#666);
#290=VERTEX_POINT('',#668);
#291=VERTEX_POINT('',#671);
#292=VERTEX_POINT('',#675);
#293=VERTEX_POINT('',#677);
#294=VERTEX_POINT('',#686);
#295=VERTEX_POINT('',#688);
#296=VERTEX_POINT('',#692);
#297=VERTEX_POINT('',#693);
#298=VERTEX_POINT('',#698);
#299=VERTEX_POINT('',#699);
#300=VERTEX_POINT('',#704);
#301=VERTEX_POINT('',#706);
#302=VERTEX_POINT('',#708);
#303=VERTEX_POINT('',#721);
#304=VERTEX_POINT('',#725);
#305=VERTEX_POINT('',#729);
#306=VERTEX_POINT('',#730);
#307=VERTEX_POINT('',#740);
#308=EDGE_CURVE('',#268,#269,#367,.T.);
#309=EDGE_CURVE('',#270,#268,#368,.T.);
#310=EDGE_CURVE('',#271,#270,#369,.T.);
#311=EDGE_CURVE('',#271,#272,#370,.T.);
#312=EDGE_CURVE('',#273,#272,#371,.T.);
#313=EDGE_CURVE('',#274,#273,#372,.T.);
#314=EDGE_CURVE('',#275,#274,#373,.T.);
#315=EDGE_CURVE('',#275,#276,#136,.T.);
#316=EDGE_CURVE('',#277,#276,#374,.T.);
#317=EDGE_CURVE('',#277,#269,#137,.T.);
#318=EDGE_CURVE('',#278,#279,#375,.T.);
#319=EDGE_CURVE('',#278,#280,#138,.T.);
#320=EDGE_CURVE('',#281,#280,#376,.T.);
#321=EDGE_CURVE('',#281,#282,#139,.T.);
#322=EDGE_CURVE('',#283,#282,#377,.T.);
#323=EDGE_CURVE('',#283,#284,#140,.T.);
#324=EDGE_CURVE('',#285,#284,#378,.T.);
#325=EDGE_CURVE('',#285,#279,#141,.T.);
#326=EDGE_CURVE('',#286,#287,#379,.T.);
#327=EDGE_CURVE('',#287,#271,#380,.T.);
#328=EDGE_CURVE('',#288,#270,#381,.T.);
#329=EDGE_CURVE('',#288,#286,#382,.T.);
#330=EDGE_CURVE('',#289,#268,#383,.T.);
#331=EDGE_CURVE('',#290,#289,#384,.T.);
#332=EDGE_CURVE('',#290,#274,#385,.T.);
#333=EDGE_CURVE('',#291,#273,#386,.T.);
#334=EDGE_CURVE('',#291,#288,#387,.T.);
#335=EDGE_CURVE('',#272,#292,#388,.T.);
#336=EDGE_CURVE('',#293,#292,#389,.T.);
#337=EDGE_CURVE('',#293,#291,#390,.T.);
#338=EDGE_CURVE('',#286,#293,#391,.T.);
#339=EDGE_CURVE('',#292,#287,#392,.T.);
#340=EDGE_CURVE('',#279,#294,#393,.T.);
#341=EDGE_CURVE('',#294,#295,#394,.T.);
#342=EDGE_CURVE('',#295,#278,#395,.T.);
#343=EDGE_CURVE('',#296,#297,#396,.T.);
#344=EDGE_CURVE('',#297,#281,#397,.T.);
#345=EDGE_CURVE('',#280,#296,#398,.T.);
#346=EDGE_CURVE('',#298,#299,#399,.T.);
#347=EDGE_CURVE('',#299,#283,#400,.T.);
#348=EDGE_CURVE('',#282,#298,#401,.T.);
#349=EDGE_CURVE('',#300,#300,#142,.T.);
#350=EDGE_CURVE('',#294,#301,#143,.T.);
#351=EDGE_CURVE('',#302,#301,#402,.T.);
#352=EDGE_CURVE('',#302,#299,#144,.T.);
#353=EDGE_CURVE('',#298,#297,#145,.T.);
#354=EDGE_CURVE('',#296,#295,#146,.T.);
#355=EDGE_CURVE('',#301,#285,#403,.T.);
#356=EDGE_CURVE('',#284,#302,#404,.T.);
#357=EDGE_CURVE('',#269,#303,#405,.T.);
#358=EDGE_CURVE('',#303,#289,#406,.T.);
#359=EDGE_CURVE('',#290,#304,#407,.T.);
#360=EDGE_CURVE('',#304,#275,#408,.T.);
#361=EDGE_CURVE('',#305,#306,#409,.T.);
#362=EDGE_CURVE('',#305,#304,#147,.T.);
#363=EDGE_CURVE('',#303,#306,#148,.T.);
#364=EDGE_CURVE('',#276,#305,#410,.T.);
#365=EDGE_CURVE('',#306,#277,#411,.T.);
#366=EDGE_CURVE('',#307,#307,#149,.T.);
#367=LINE('',#620,#412);
#368=LINE('',#623,#413);
#369=LINE('',#625,#414);
#370=LINE('',#627,#415);
#371=LINE('',#629,#416);
#372=LINE('',#631,#417);
#373=LINE('',#633,#418);
#374=LINE('',#637,#419);
#375=LINE('',#640,#420);
#376=LINE('',#645,#421);
#377=LINE('',#649,#422);
#378=LINE('',#653,#423);
#379=LINE('',#657,#424);
#380=LINE('',#660,#425);
#381=LINE('',#661,#426);
#382=LINE('',#663,#427);
#383=LINE('',#665,#428);
#384=LINE('',#667,#429);
#385=LINE('',#669,#430);
#386=LINE('',#670,#431);
#387=LINE('',#672,#432);
#388=LINE('',#674,#433);
#389=LINE('',#676,#434);
#390=LINE('',#678,#435);
#391=LINE('',#680,#436);
#392=LINE('',#682,#437);
#393=LINE('',#685,#438);
#394=LINE('',#687,#439);
#395=LINE('',#689,#440);
#396=LINE('',#691,#441);
#397=LINE('',#694,#442);
#398=LINE('',#695,#443);
#399=LINE('',#697,#444);
#400=LINE('',#700,#445);
#401=LINE('',#701,#446);
#402=LINE('',#707,#447);
#403=LINE('',#713,#448);
#404=LINE('',#714,#449);
#405=LINE('',#720,#450);
#406=LINE('',#722,#451);
#407=LINE('',#724,#452);
#408=LINE('',#726,#453);
#409=LINE('',#728,#454);
#410=LINE('',#734,#455);
#411=LINE('',#735,#456);
#412=VECTOR('',#498,1.);
#413=VECTOR('',#499,1.);
#414=VECTOR('',#500,1.);
#415=VECTOR('',#501,1.);
#416=VECTOR('',#502,1.);
#417=VECTOR('',#503,1.);
#418=VECTOR('',#504,1.);
#419=VECTOR('',#507,1.);
#420=VECTOR('',#510,1.);
#421=VECTOR('',#513,1.);
#422=VECTOR('',#516,1.);
#423=VECTOR('',#519,1.);
#424=VECTOR('',#524,1.);
#425=VECTOR('',#525,1.);
#426=VECTOR('',#526,1.);
#427=VECTOR('',#527,1.);
#428=VECTOR('',#530,1.);
#429=VECTOR('',#531,1.);
#430=VECTOR('',#532,1.);
#431=VECTOR('',#533,1.);
#432=VECTOR('',#534,1.);
#433=VECTOR('',#537,1.);
#434=VECTOR('',#538,1.);
#435=VECTOR('',#539,1.);
#436=VECTOR('',#542,1.);
#437=VECTOR('',#545,1.);
#438=VECTOR('',#550,1.);
#439=VECTOR('',#551,1.);
#440=VECTOR('',#552,1.);
#441=VECTOR('',#555,1.);
#442=VECTOR('',#556,1.);
#443=VECTOR('',#557,1.);
#444=VECTOR('',#560,1.);
#445=VECTOR('',#561,1.);
#446=VECTOR('',#562,1.);
#447=VECTOR('',#569,1.);
#448=VECTOR('',#578,1.);
#449=VECTOR('',#579,1.);
#450=VECTOR('',#590,1.);
#451=VECTOR('',#591,1.);
#452=VECTOR('',#594,1.);
#453=VECTOR('',#595,1.);
#454=VECTOR('',#598,1.);
#455=VECTOR('',#605,1.);
#456=VECTOR('',#606,1.);
#457=AXIS2_PLACEMENT_3D('',#619,#496,#497);
#458=AXIS2_PLACEMENT_3D('',#635,#505,#506);
#459=AXIS2_PLACEMENT_3D('',#639,#508,#509);
#460=AXIS2_PLACEMENT_3D('',#643,#511,#512);
#461=AXIS2_PLACEMENT_3D('',#647,#514,#515);
#462=AXIS2_PLACEMENT_3D('',#651,#517,#518);
#463=AXIS2_PLACEMENT_3D('',#655,#520,#521);
#464=AXIS2_PLACEMENT_3D('',#656,#522,#523);
#465=AXIS2_PLACEMENT_3D('',#664,#528,#529);
#466=AXIS2_PLACEMENT_3D('',#673,#535,#536);
#467=AXIS2_PLACEMENT_3D('',#679,#540,#541);
#468=AXIS2_PLACEMENT_3D('',#681,#543,#544);
#469=AXIS2_PLACEMENT_3D('',#683,#546,#547);
#470=AXIS2_PLACEMENT_3D('',#684,#548,#549);
#471=AXIS2_PLACEMENT_3D('',#690,#553,#554);
#472=AXIS2_PLACEMENT_3D('',#696,#558,#559);
#473=AXIS2_PLACEMENT_3D('',#702,#563,#564);
#474=AXIS2_PLACEMENT_3D('',#703,#565,#566);
#475=AXIS2_PLACEMENT_3D('',#705,#567,#568);
#476=AXIS2_PLACEMENT_3D('',#709,#570,#571);
#477=AXIS2_PLACEMENT_3D('',#710,#572,#573);
#478=AXIS2_PLACEMENT_3D('',#711,#574,#575);
#479=AXIS2_PLACEMENT_3D('',#712,#576,#577);
#480=AXIS2_PLACEMENT_3D('',#715,#580,#581);
#481=AXIS2_PLACEMENT_3D('',#716,#582,#583);
#482=AXIS2_PLACEMENT_3D('',#717,#584,#585);
#483=AXIS2_PLACEMENT_3D('',#718,#586,#587);
#484=AXIS2_PLACEMENT_3D('',#719,#588,#589);
#485=AXIS2_PLACEMENT_3D('',#723,#592,#593);
#486=AXIS2_PLACEMENT_3D('',#727,#596,#597);
#487=AXIS2_PLACEMENT_3D('',#731,#599,#600);
#488=AXIS2_PLACEMENT_3D('',#732,#601,#602);
#489=AXIS2_PLACEMENT_3D('',#733,#603,#604);
#490=AXIS2_PLACEMENT_3D('',#736,#607,#608);
#491=AXIS2_PLACEMENT_3D('',#737,#609,#610);
#492=AXIS2_PLACEMENT_3D('',#738,#611,#612);
#493=AXIS2_PLACEMENT_3D('',#739,#613,#614);
#494=AXIS2_PLACEMENT_3D('',#741,#615,#616);
#495=AXIS2_PLACEMENT_3D('',#742,#617,#618);
#496=DIRECTION('',(0.,0.,1.));
#497=DIRECTION('',(1.,0.,0.));
#498=DIRECTION('',(1.,0.,0.));
#499=DIRECTION('',(0.,1.,0.));
#500=DIRECTION('',(-1.,0.,0.));
#501=DIRECTION('',(0.,1.,0.));
#502=DIRECTION('',(1.,0.,0.));
#503=DIRECTION('',(0.,1.,0.));
#504=DIRECTION('',(-1.,0.,0.));
#505=DIRECTION('',(0.,0.,-1.));
#506=DIRECTION('',(1.,0.,0.));
#507=DIRECTION('',(0.,1.,0.));
#508=DIRECTION('',(0.,0.,-1.));
#509=DIRECTION('',(1.,0.,0.));
#510=DIRECTION('',(1.,0.,0.));
#511=DIRECTION('',(0.,0.,-1.));
#512=DIRECTION('',(1.,0.,0.));
#513=DIRECTION('',(0.,-1.,0.));
#514=DIRECTION('',(0.,0.,-1.));
#515=DIRECTION('',(1.,0.,0.));
#516=DIRECTION('',(-1.,0.,0.));
#517=DIRECTION('',(0.,0.,-1.));
#518=DIRECTION('',(1.,0.,0.));
#519=DIRECTION('',(0.,1.,0.));
#520=DIRECTION('',(0.,0.,-1.));
#521=DIRECTION('',(1.,0.,0.));
#522=DIRECTION('',(0.,0.,1.));
#523=DIRECTION('',(1.,0.,0.));
#524=DIRECTION('',(0.,0.,1.));
#525=DIRECTION('',(-0.707106781186548,0.,0.707106781186547));
#526=DIRECTION('',(0.,0.,1.));
#527=DIRECTION('',(1.,0.,0.));
#528=DIRECTION('',(0.,-1.,0.));
#529=DIRECTION('',(0.,0.,-1.));
#530=DIRECTION('',(0.,0.,1.));
#531=DIRECTION('',(0.,-1.,0.));
#532=DIRECTION('',(0.,0.,1.));
#533=DIRECTION('',(0.,0.,1.));
#534=DIRECTION('',(0.,-1.,0.));
#535=DIRECTION('',(-1.,0.,0.));
#536=DIRECTION('',(0.,0.,1.));
#537=DIRECTION('',(0.707106781186548,0.,-0.707106781186547));
#538=DIRECTION('',(0.,0.,1.));
#539=DIRECTION('',(-1.,0.,0.));
#540=DIRECTION('',(0.,1.,0.));
#541=DIRECTION('',(0.,0.,1.));
#542=DIRECTION('',(0.,1.,0.));
#543=DIRECTION('',(0.,0.,-1.));
#544=DIRECTION('',(-1.,0.,0.));
#545=DIRECTION('',(0.,-1.,0.));
#546=DIRECTION('',(1.,0.,0.));
#547=DIRECTION('',(0.,0.,-1.));
#548=DIRECTION('',(-0.707106781186547,0.,-0.707106781186548));
#549=DIRECTION('',(0.,-1.,0.));
#550=DIRECTION('',(0.,0.,-1.));
#551=DIRECTION('',(-1.,0.,0.));
#552=DIRECTION('',(0.,0.,1.));
#553=DIRECTION('',(0.,-1.,0.));
#554=DIRECTION('',(0.,0.,-1.));
#555=DIRECTION('',(0.,1.,0.));
#556=DIRECTION('',(0.,0.,1.));
#557=DIRECTION('',(0.,0.,-1.));
#558=DIRECTION('',(-1.,0.,0.));
#559=DIRECTION('',(0.,0.,1.));
#560=DIRECTION('',(1.,0.,0.));
#561=DIRECTION('',(0.,0.,1.));
#562=DIRECTION('',(0.,0.,-1.));
#563=DIRECTION('',(0.,1.,0.));
#564=DIRECTION('',(0.,0.,1.));
#565=DIRECTION('',(0.,0.,-1.));
#566=DIRECTION('',(-1.,0.,0.));
#567=DIRECTION('',(0.,0.,1.));
#568=DIRECTION('',(-1.,0.,0.));
#569=DIRECTION('',(0.,-1.,0.));
#570=DIRECTION('',(0.,0.,1.));
#571=DIRECTION('',(-1.,0.,0.));
#572=DIRECTION('',(0.,0.,1.));
#573=DIRECTION('',(-1.,0.,0.));
#574=DIRECTION('',(0.,0.,1.));
#575=DIRECTION('',(-1.,0.,0.));
#576=DIRECTION('',(0.,0.,-1.));
#577=DIRECTION('',(-1.,0.,0.));
#578=DIRECTION('',(0.,0.,1.));
#579=DIRECTION('',(0.,0.,-1.));
#580=DIRECTION('',(1.,0.,0.));
#581=DIRECTION('',(0.,0.,-1.));
#582=DIRECTION('',(0.,0.,1.));
#583=DIRECTION('',(1.,0.,0.));
#584=DIRECTION('',(0.,0.,1.));
#585=DIRECTION('',(1.,0.,0.));
#586=DIRECTION('',(0.,0.,1.));
#587=DIRECTION('',(1.,0.,0.));
#588=DIRECTION('',(0.,0.,1.));
#589=DIRECTION('',(1.,0.,0.));
#590=DIRECTION('',(0.,0.,-1.));
#591=DIRECTION('',(-1.,0.,0.));
#592=DIRECTION('',(0.,-1.,0.));
#593=DIRECTION('',(0.,0.,-1.));
#594=DIRECTION('',(1.,0.,0.));
#595=DIRECTION('',(0.,0.,1.));
#596=DIRECTION('',(0.,1.,0.));
#597=DIRECTION('',(0.,0.,1.));
#598=DIRECTION('',(0.,-1.,0.));
#599=DIRECTION('',(0.,0.,1.));
#600=DIRECTION('',(-1.,0.,0.));
#601=DIRECTION('',(0.,0.,1.));
#602=DIRECTION('',(-1.,0.,0.));
#603=DIRECTION('',(0.,0.,-1.));
#604=DIRECTION('',(-1.,0.,0.));
#605=DIRECTION('',(0.,0.,-1.));
#606=DIRECTION('',(0.,0.,1.));
#607=DIRECTION('',(1.,0.,0.));
#608=DIRECTION('',(0.,0.,-1.));
#609=DIRECTION('',(0.,0.,1.));
#610=DIRECTION('',(1.,0.,0.));
#611=DIRECTION('',(0.,0.,1.));
#612=DIRECTION('',(1.,0.,0.));
#613=DIRECTION('',(0.,0.,-1.));
#614=DIRECTION('',(1.,0.,0.));
#615=DIRECTION('',(0.,0.,-1.));
#616=DIRECTION('',(1.,0.,0.));
#617=DIRECTION('',(0.,0.,-1.));
#618=DIRECTION('',(-1.,0.,0.));
#619=CARTESIAN_POINT('',(0.,0.,0.));
#620=CARTESIAN_POINT('',(121.8,147.6,99.3));
#621=CARTESIAN_POINT('',(0.,147.6,99.3));
#622=CARTESIAN_POINT('',(58.8,147.6,99.3));
#623=CARTESIAN_POINT('',(0.,159.15,99.3));
#624=CARTESIAN_POINT('',(0.,0.,99.3));
#625=CARTESIAN_POINT('',(121.8,0.,99.3));
#626=CARTESIAN_POINT('',(229.1,0.,99.3));
#627=CARTESIAN_POINT('',(229.1,159.15,99.3));
#628=CARTESIAN_POINT('',(229.1,318.3,99.3));
#629=CARTESIAN_POINT('',(121.8,318.3,99.3));
#630=CARTESIAN_POINT('',(0.,318.3,99.3));
#631=CARTESIAN_POINT('',(0.,159.15,99.3));
#632=CARTESIAN_POINT('',(0.,243.4,99.3));
#633=CARTESIAN_POINT('',(121.8,243.4,99.3));
#634=CARTESIAN_POINT('',(58.8,243.4,99.3));
#635=CARTESIAN_POINT('',(58.8,229.9,99.3));
#636=CARTESIAN_POINT('',(72.3,229.9,99.3));
#637=CARTESIAN_POINT('',(72.3,159.15,99.3));
#638=CARTESIAN_POINT('',(72.3,161.1,99.3));
#639=CARTESIAN_POINT('',(58.8,161.1,99.3));
#640=CARTESIAN_POINT('',(121.8,42.4,99.3));
#641=CARTESIAN_POINT('',(65.5,42.4,99.3));
#642=CARTESIAN_POINT('',(100.7,42.4,99.3));
#643=CARTESIAN_POINT('',(65.5,54.9,99.3));
#644=CARTESIAN_POINT('',(53.,54.9,99.3));
#645=CARTESIAN_POINT('',(53.,159.15,99.3));
#646=CARTESIAN_POINT('',(53.,97.7,99.3));
#647=CARTESIAN_POINT('',(65.5,97.7,99.3));
#648=CARTESIAN_POINT('',(65.5,110.2,99.3));
#649=CARTESIAN_POINT('',(121.8,110.2,99.3));
#650=CARTESIAN_POINT('',(100.7,110.2,99.3));
#651=CARTESIAN_POINT('',(100.7,97.7,99.3));
#652=CARTESIAN_POINT('',(113.2,97.7,99.3));
#653=CARTESIAN_POINT('',(113.2,159.15,99.3));
#654=CARTESIAN_POINT('',(113.2,54.9,99.3));
#655=CARTESIAN_POINT('',(100.7,54.9,99.3));
#656=CARTESIAN_POINT('',(121.8,159.15,99.3));
#657=CARTESIAN_POINT('',(243.6,0.,0.));
#658=CARTESIAN_POINT('',(243.6,0.,0.));
#659=CARTESIAN_POINT('',(243.6,0.,84.8));
#660=CARTESIAN_POINT('',(225.1,0.,103.3));
#661=CARTESIAN_POINT('',(0.,0.,0.));
#662=CARTESIAN_POINT('',(0.,0.,0.));
#663=CARTESIAN_POINT('',(121.8,0.,0.));
#664=CARTESIAN_POINT('',(121.8,0.,0.));
#665=CARTESIAN_POINT('',(0.,147.6,79.4));
#666=CARTESIAN_POINT('',(0.,147.6,79.4));
#667=CARTESIAN_POINT('',(0.,195.5,79.4));
#668=CARTESIAN_POINT('',(0.,243.4,79.4));
#669=CARTESIAN_POINT('',(0.,243.4,79.4));
#670=CARTESIAN_POINT('',(0.,318.3,0.));
#671=CARTESIAN_POINT('',(0.,318.3,0.));
#672=CARTESIAN_POINT('',(0.,159.15,0.));
#673=CARTESIAN_POINT('',(0.,159.15,0.));
#674=CARTESIAN_POINT('',(225.1,318.3,103.3));
#675=CARTESIAN_POINT('',(243.6,318.3,84.8));
#676=CARTESIAN_POINT('',(243.6,318.3,0.));
#677=CARTESIAN_POINT('',(243.6,318.3,0.));
#678=CARTESIAN_POINT('',(121.8,318.3,0.));
#679=CARTESIAN_POINT('',(121.8,318.3,0.));
#680=CARTESIAN_POINT('',(243.6,159.15,0.));
#681=CARTESIAN_POINT('',(121.8,159.15,0.));
#682=CARTESIAN_POINT('',(243.6,159.15,84.8));
#683=CARTESIAN_POINT('',(243.6,159.15,0.));
#684=CARTESIAN_POINT('',(243.6,159.15,84.8));
#685=CARTESIAN_POINT('',(100.7,42.4,79.8));
#686=CARTESIAN_POINT('',(100.7,42.4,79.8));
#687=CARTESIAN_POINT('',(83.1,42.4,79.8));
#688=CARTESIAN_POINT('',(65.5,42.4,79.8));
#689=CARTESIAN_POINT('',(65.5,42.4,99.3));
#690=CARTESIAN_POINT('',(83.1,42.4,79.8));
#691=CARTESIAN_POINT('',(53.,76.3,79.8));
#692=CARTESIAN_POINT('',(53.,54.9,79.8));
#693=CARTESIAN_POINT('',(53.,97.7,79.8));
#694=CARTESIAN_POINT('',(53.,97.7,99.3));
#695=CARTESIAN_POINT('',(53.,54.9,79.8));
#696=CARTESIAN_POINT('',(53.,76.3,79.8));
#697=CARTESIAN_POINT('',(83.1,110.2,79.8));
#698=CARTESIAN_POINT('',(65.5,110.2,79.8));
#699=CARTESIAN_POINT('',(100.7,110.2,79.8));
#700=CARTESIAN_POINT('',(100.7,110.2,99.3));
#701=CARTESIAN_POINT('',(65.5,110.2,79.8));
#702=CARTESIAN_POINT('',(83.1,110.2,79.8));
#703=CARTESIAN_POINT('',(74.9,76.,79.8));
#704=CARTESIAN_POINT('',(70.9,76.,79.8));
#705=CARTESIAN_POINT('',(100.7,54.9,79.8));
#706=CARTESIAN_POINT('',(113.2,54.9,79.8));
#707=CARTESIAN_POINT('',(113.2,76.3,79.8));
#708=CARTESIAN_POINT('',(113.2,97.7,79.8));
#709=CARTESIAN_POINT('',(100.7,97.7,79.8));
#710=CARTESIAN_POINT('',(65.5,97.7,79.8));
#711=CARTESIAN_POINT('',(65.5,54.9,79.8));
#712=CARTESIAN_POINT('',(83.1,76.3,79.8));
#713=CARTESIAN_POINT('',(113.2,54.9,99.3));
#714=CARTESIAN_POINT('',(113.2,97.7,79.8));
#715=CARTESIAN_POINT('',(113.2,76.3,79.8));
#716=CARTESIAN_POINT('',(100.7,54.9,79.8));
#717=CARTESIAN_POINT('',(100.7,97.7,79.8));
#718=CARTESIAN_POINT('',(65.5,97.7,79.8));
#719=CARTESIAN_POINT('',(65.5,54.9,79.8));
#720=CARTESIAN_POINT('',(58.8,147.6,79.4));
#721=CARTESIAN_POINT('',(58.8,147.6,79.4));
#722=CARTESIAN_POINT('',(36.15,147.6,79.4));
#723=CARTESIAN_POINT('',(36.15,147.6,79.4));
#724=CARTESIAN_POINT('',(36.15,243.4,79.4));
#725=CARTESIAN_POINT('',(58.8,243.4,79.4));
#726=CARTESIAN_POINT('',(58.8,243.4,99.3));
#727=CARTESIAN_POINT('',(36.15,243.4,79.4));
#728=CARTESIAN_POINT('',(72.3,195.5,79.4));
#729=CARTESIAN_POINT('',(72.3,229.9,79.4));
#730=CARTESIAN_POINT('',(72.3,161.1,79.4));
#731=CARTESIAN_POINT('',(58.8,229.9,79.4));
#732=CARTESIAN_POINT('',(58.8,161.1,79.4));
#733=CARTESIAN_POINT('',(36.15,195.5,79.4));
#734=CARTESIAN_POINT('',(72.3,229.9,79.4));
#735=CARTESIAN_POINT('',(72.3,161.1,99.3));
#736=CARTESIAN_POINT('',(72.3,195.5,79.4));
#737=CARTESIAN_POINT('',(58.8,229.9,79.4));
#738=CARTESIAN_POINT('',(58.8,161.1,79.4));
#739=CARTESIAN_POINT('',(74.9,76.,35.1));
#740=CARTESIAN_POINT('',(78.9,76.,35.1));
#741=CARTESIAN_POINT('',(74.9,76.,99.35));
#742=CARTESIAN_POINT('',(74.9,76.,35.1));
#743=MECHANICAL_DESIGN_GEOMETRIC_PRESENTATION_REPRESENTATION('',(#24),#744);
#744=(
GEOMETRIC_REPRESENTATION_CONTEXT(3)
GLOBAL_UNCERTAINTY_ASSIGNED_CONTEXT((#745))
GLOBAL_UNIT_ASSIGNED_CONTEXT((#751,#747,#746))
REPRESENTATION_CONTEXT('featured_part_09739','TOP_LEVEL_ASSEMBLY_PART')
);
#745=UNCERTAINTY_MEASURE_WITH_UNIT(LENGTH_MEASURE(2.E-5),#751,
'DISTANCE_ACCURACY_VALUE','Maximum Tolerance applied to model');
#746=(
NAMED_UNIT(*)
SI_UNIT($,.STERADIAN.)
SOLID_ANGLE_UNIT()
);
#747=(
CONVERSION_BASED_UNIT('DEGREE',#749)
NAMED_UNIT(#748)
PLANE_ANGLE_UNIT()
);
#748=DIMENSIONAL_EXPONENTS(0.,0.,0.,0.,0.,0.,0.);
#749=PLANE_ANGLE_MEASURE_WITH_UNIT(PLANE_ANGLE_MEASURE(0.0174532925),#750);
#750=(
NAMED_UNIT(*)
PLANE_ANGLE_UNIT()
SI_UNIT($,.RADIAN.)
);
#751=(
LENGTH_UNIT()
NAMED_UNIT(*)
SI_UNIT(.MILLI.,.METRE.)
);
ENDSEC;
END-ISO-10303-21;
