ISO-10303-21;
HEADER;
/* Generated by software containing ST-Developer
 * from STEP Tools, Inc. (www.steptools.com) 
 */
/* OPTION: using custom schema-name function */

FILE_DESCRIPTION(
/* description */ (''),
/* implementation_level */ '2;1');

FILE_NAME(
/* name */ 'featured_part_08534.stp',
/* time_stamp */ '2026-07-15T04:45:54-04:00',
/* author */ (''),
/* organization */ (''),
/* preprocessor_version */ 'ST-DEVELOPER v20.1',
/* originating_system */ 'SIEMENS PLM Software NX2512.6002',
/* authorisation */ '');

FILE_SCHEMA (('AUTOMOTIVE_DESIGN { 1 0 10303 214 3 1 1 1 }'));
ENDSEC;

DATA;
#10=SHAPE_REPRESENTATION_RELATIONSHIP('None',
'relationship between featured_part_08534-None and featured_part_08534
-None',#22,#11);
#11=ADVANCED_BREP_SHAPE_REPRESENTATION('featured_part_08534-None',(#32),
#402);
#12=SHAPE_DEFINITION_REPRESENTATION(#13,#22);
#13=PRODUCT_DEFINITION_SHAPE('','',#14);
#14=PRODUCT_DEFINITION(' ','',#16,#15);
#15=PRODUCT_DEFINITION_CONTEXT('part definition',#21,'design');
#16=PRODUCT_DEFINITION_FORMATION_WITH_SPECIFIED_SOURCE(' ',' ',#18,
 .NOT_KNOWN.);
#17=PRODUCT_RELATED_PRODUCT_CATEGORY('part','',(#18));
#18=PRODUCT('featured_part_08534','featured_part_08534',' ',(#19));
#19=PRODUCT_CONTEXT(' ',#21,'mechanical');
#20=APPLICATION_PROTOCOL_DEFINITION('international standard',
'automotive_design',2010,#21);
#21=APPLICATION_CONTEXT(
'core data for automotive mechanical design processes');
#22=SHAPE_REPRESENTATION('featured_part_08534-None',(#251),#402);
#23=PRESENTATION_LAYER_ASSIGNMENT('1','Layer 1',(#32));
#24=STYLED_ITEM('',(#25),#32);
#25=PRESENTATION_STYLE_ASSIGNMENT((#26));
#26=SURFACE_STYLE_USAGE(.BOTH.,#27);
#27=SURFACE_SIDE_STYLE('',(#28));
#28=SURFACE_STYLE_FILL_AREA(#29);
#29=FILL_AREA_STYLE('',(#30));
#30=FILL_AREA_STYLE_COLOUR('',#31);
#31=COLOUR_RGB('medium steel',0.611764705882353,0.658823529411765,0.670588235294118);
#32=MANIFOLD_SOLID_BREP('',#33);
#33=CLOSED_SHELL('',(#46,#47,#48,#49,#50,#51,#52,#53,#54,#55,#56,#57,#58,
#59));
#34=CYLINDRICAL_SURFACE('',#269,7.3);
#35=CYLINDRICAL_SURFACE('',#272,9.2);
#36=CYLINDRICAL_SURFACE('',#273,14.5);
#37=CYLINDRICAL_SURFACE('',#274,15.);
#38=CYLINDRICAL_SURFACE('',#275,12.25);
#39=FACE_OUTER_BOUND('',#125,.T.);
#40=FACE_OUTER_BOUND('',#126,.T.);
#41=FACE_OUTER_BOUND('',#127,.T.);
#42=FACE_OUTER_BOUND('',#132,.T.);
#43=FACE_OUTER_BOUND('',#133,.T.);
#44=FACE_OUTER_BOUND('',#134,.T.);
#45=FACE_OUTER_BOUND('',#137,.T.);
#46=ADVANCED_FACE('',(#99,#100,#101,#102,#103,#104),#60,.T.);
#47=ADVANCED_FACE('',(#39),#61,.T.);
#48=ADVANCED_FACE('',(#40),#62,.T.);
#49=ADVANCED_FACE('',(#41),#63,.T.);
#50=ADVANCED_FACE('',(#105,#106,#107,#108),#64,.T.);
#51=ADVANCED_FACE('',(#42),#65,.T.);
#52=ADVANCED_FACE('',(#43),#66,.F.);
#53=ADVANCED_FACE('',(#44),#67,.F.);
#54=ADVANCED_FACE('',(#109,#110),#34,.F.);
#55=ADVANCED_FACE('',(#45),#68,.F.);
#56=ADVANCED_FACE('',(#111,#112),#35,.F.);
#57=ADVANCED_FACE('',(#113,#114),#36,.F.);
#58=ADVANCED_FACE('',(#115,#116),#37,.F.);
#59=ADVANCED_FACE('',(#117,#118),#38,.F.);
#60=PLANE('',#257);
#61=PLANE('',#258);
#62=PLANE('',#259);
#63=PLANE('',#260);
#64=PLANE('',#264);
#65=PLANE('',#265);
#66=PLANE('',#266);
#67=PLANE('',#268);
#68=PLANE('',#271);
#69=LINE('',#352,#84);
#70=LINE('',#355,#85);
#71=LINE('',#357,#86);
#72=LINE('',#359,#87);
#73=LINE('',#361,#88);
#74=LINE('',#364,#89);
#75=LINE('',#366,#90);
#76=LINE('',#368,#91);
#77=LINE('',#370,#92);
#78=LINE('',#371,#93);
#79=LINE('',#373,#94);
#80=LINE('',#375,#95);
#81=LINE('',#377,#96);
#82=LINE('',#385,#97);
#83=LINE('',#387,#98);
#84=VECTOR('',#288,1.);
#85=VECTOR('',#289,1.);
#86=VECTOR('',#290,1.);
#87=VECTOR('',#291,1.);
#88=VECTOR('',#294,1.);
#89=VECTOR('',#295,1.);
#90=VECTOR('',#296,1.);
#91=VECTOR('',#297,1.);
#92=VECTOR('',#300,1.);
#93=VECTOR('',#301,1.);
#94=VECTOR('',#302,1.);
#95=VECTOR('',#305,1.);
#96=VECTOR('',#306,1.);
#97=VECTOR('',#315,1.);
#98=VECTOR('',#318,1.);
#99=FACE_BOUND('',#119,.T.);
#100=FACE_BOUND('',#120,.T.);
#101=FACE_BOUND('',#121,.T.);
#102=FACE_BOUND('',#122,.T.);
#103=FACE_BOUND('',#123,.T.);
#104=FACE_BOUND('',#124,.T.);
#105=FACE_BOUND('',#128,.T.);
#106=FACE_BOUND('',#129,.T.);
#107=FACE_BOUND('',#130,.T.);
#108=FACE_BOUND('',#131,.T.);
#109=FACE_BOUND('',#135,.T.);
#110=FACE_BOUND('',#136,.T.);
#111=FACE_BOUND('',#138,.T.);
#112=FACE_BOUND('',#139,.T.);
#113=FACE_BOUND('',#140,.T.);
#114=FACE_BOUND('',#141,.T.);
#115=FACE_BOUND('',#142,.T.);
#116=FACE_BOUND('',#143,.T.);
#117=FACE_BOUND('',#144,.T.);
#118=FACE_BOUND('',#145,.T.);
#119=EDGE_LOOP('',(#146));
#120=EDGE_LOOP('',(#147));
#121=EDGE_LOOP('',(#148));
#122=EDGE_LOOP('',(#149));
#123=EDGE_LOOP('',(#150));
#124=EDGE_LOOP('',(#151,#152,#153,#154));
#125=EDGE_LOOP('',(#155,#156,#157,#158));
#126=EDGE_LOOP('',(#159,#160,#161,#162,#163));
#127=EDGE_LOOP('',(#164,#165,#166,#167));
#128=EDGE_LOOP('',(#168));
#129=EDGE_LOOP('',(#169));
#130=EDGE_LOOP('',(#170));
#131=EDGE_LOOP('',(#171,#172,#173,#174));
#132=EDGE_LOOP('',(#175,#176,#177,#178,#179));
#133=EDGE_LOOP('',(#180,#181,#182,#183));
#134=EDGE_LOOP('',(#184));
#135=EDGE_LOOP('',(#185));
#136=EDGE_LOOP('',(#186));
#137=EDGE_LOOP('',(#187));
#138=EDGE_LOOP('',(#188));
#139=EDGE_LOOP('',(#189));
#140=EDGE_LOOP('',(#190));
#141=EDGE_LOOP('',(#191));
#142=EDGE_LOOP('',(#192));
#143=EDGE_LOOP('',(#193));
#144=EDGE_LOOP('',(#194));
#145=EDGE_LOOP('',(#195));
#146=ORIENTED_EDGE('',*,*,#216,.F.);
#147=ORIENTED_EDGE('',*,*,#217,.F.);
#148=ORIENTED_EDGE('',*,*,#218,.F.);
#149=ORIENTED_EDGE('',*,*,#219,.F.);
#150=ORIENTED_EDGE('',*,*,#220,.F.);
#151=ORIENTED_EDGE('',*,*,#221,.F.);
#152=ORIENTED_EDGE('',*,*,#222,.T.);
#153=ORIENTED_EDGE('',*,*,#223,.F.);
#154=ORIENTED_EDGE('',*,*,#224,.F.);
#155=ORIENTED_EDGE('',*,*,#225,.T.);
#156=ORIENTED_EDGE('',*,*,#226,.T.);
#157=ORIENTED_EDGE('',*,*,#227,.F.);
#158=ORIENTED_EDGE('',*,*,#228,.T.);
#159=ORIENTED_EDGE('',*,*,#227,.T.);
#160=ORIENTED_EDGE('',*,*,#229,.T.);
#161=ORIENTED_EDGE('',*,*,#221,.T.);
#162=ORIENTED_EDGE('',*,*,#230,.F.);
#163=ORIENTED_EDGE('',*,*,#231,.T.);
#164=ORIENTED_EDGE('',*,*,#230,.T.);
#165=ORIENTED_EDGE('',*,*,#224,.T.);
#166=ORIENTED_EDGE('',*,*,#232,.F.);
#167=ORIENTED_EDGE('',*,*,#233,.T.);
#168=ORIENTED_EDGE('',*,*,#234,.F.);
#169=ORIENTED_EDGE('',*,*,#235,.F.);
#170=ORIENTED_EDGE('',*,*,#236,.F.);
#171=ORIENTED_EDGE('',*,*,#237,.F.);
#172=ORIENTED_EDGE('',*,*,#228,.F.);
#173=ORIENTED_EDGE('',*,*,#231,.F.);
#174=ORIENTED_EDGE('',*,*,#233,.F.);
#175=ORIENTED_EDGE('',*,*,#223,.T.);
#176=ORIENTED_EDGE('',*,*,#238,.T.);
#177=ORIENTED_EDGE('',*,*,#225,.F.);
#178=ORIENTED_EDGE('',*,*,#237,.T.);
#179=ORIENTED_EDGE('',*,*,#232,.T.);
#180=ORIENTED_EDGE('',*,*,#238,.F.);
#181=ORIENTED_EDGE('',*,*,#222,.F.);
#182=ORIENTED_EDGE('',*,*,#229,.F.);
#183=ORIENTED_EDGE('',*,*,#226,.F.);
#184=ORIENTED_EDGE('',*,*,#239,.F.);
#185=ORIENTED_EDGE('',*,*,#220,.T.);
#186=ORIENTED_EDGE('',*,*,#239,.T.);
#187=ORIENTED_EDGE('',*,*,#240,.F.);
#188=ORIENTED_EDGE('',*,*,#219,.T.);
#189=ORIENTED_EDGE('',*,*,#240,.T.);
#190=ORIENTED_EDGE('',*,*,#218,.T.);
#191=ORIENTED_EDGE('',*,*,#236,.T.);
#192=ORIENTED_EDGE('',*,*,#217,.T.);
#193=ORIENTED_EDGE('',*,*,#235,.T.);
#194=ORIENTED_EDGE('',*,*,#216,.T.);
#195=ORIENTED_EDGE('',*,*,#234,.T.);
#196=VERTEX_POINT('',#343);
#197=VERTEX_POINT('',#345);
#198=VERTEX_POINT('',#347);
#199=VERTEX_POINT('',#349);
#200=VERTEX_POINT('',#351);
#201=VERTEX_POINT('',#353);
#202=VERTEX_POINT('',#354);
#203=VERTEX_POINT('',#356);
#204=VERTEX_POINT('',#358);
#205=VERTEX_POINT('',#362);
#206=VERTEX_POINT('',#363);
#207=VERTEX_POINT('',#365);
#208=VERTEX_POINT('',#367);
#209=VERTEX_POINT('',#372);
#210=VERTEX_POINT('',#376);
#211=VERTEX_POINT('',#380);
#212=VERTEX_POINT('',#382);
#213=VERTEX_POINT('',#384);
#214=VERTEX_POINT('',#391);
#215=VERTEX_POINT('',#395);
#216=EDGE_CURVE('',#196,#196,#241,.T.);
#217=EDGE_CURVE('',#197,#197,#242,.T.);
#218=EDGE_CURVE('',#198,#198,#243,.T.);
#219=EDGE_CURVE('',#199,#199,#244,.T.);
#220=EDGE_CURVE('',#200,#200,#245,.T.);
#221=EDGE_CURVE('',#201,#202,#69,.T.);
#222=EDGE_CURVE('',#201,#203,#70,.T.);
#223=EDGE_CURVE('',#204,#203,#71,.T.);
#224=EDGE_CURVE('',#202,#204,#72,.T.);
#225=EDGE_CURVE('',#205,#206,#73,.T.);
#226=EDGE_CURVE('',#206,#207,#74,.T.);
#227=EDGE_CURVE('',#208,#207,#75,.T.);
#228=EDGE_CURVE('',#208,#205,#76,.T.);
#229=EDGE_CURVE('',#207,#201,#77,.T.);
#230=EDGE_CURVE('',#209,#202,#78,.T.);
#231=EDGE_CURVE('',#209,#208,#79,.T.);
#232=EDGE_CURVE('',#210,#204,#80,.T.);
#233=EDGE_CURVE('',#210,#209,#81,.T.);
#234=EDGE_CURVE('',#211,#211,#246,.T.);
#235=EDGE_CURVE('',#212,#212,#247,.T.);
#236=EDGE_CURVE('',#213,#213,#248,.T.);
#237=EDGE_CURVE('',#205,#210,#82,.T.);
#238=EDGE_CURVE('',#203,#206,#83,.T.);
#239=EDGE_CURVE('',#214,#214,#249,.T.);
#240=EDGE_CURVE('',#215,#215,#250,.T.);
#241=CIRCLE('',#252,12.25);
#242=CIRCLE('',#253,15.);
#243=CIRCLE('',#254,14.5);
#244=CIRCLE('',#255,9.2);
#245=CIRCLE('',#256,7.3);
#246=CIRCLE('',#261,12.25);
#247=CIRCLE('',#262,15.);
#248=CIRCLE('',#263,14.5);
#249=CIRCLE('',#267,7.3);
#250=CIRCLE('',#270,9.2);
#251=AXIS2_PLACEMENT_3D('',#341,#276,#277);
#252=AXIS2_PLACEMENT_3D('',#342,#278,#279);
#253=AXIS2_PLACEMENT_3D('',#344,#280,#281);
#254=AXIS2_PLACEMENT_3D('',#346,#282,#283);
#255=AXIS2_PLACEMENT_3D('',#348,#284,#285);
#256=AXIS2_PLACEMENT_3D('',#350,#286,#287);
#257=AXIS2_PLACEMENT_3D('',#360,#292,#293);
#258=AXIS2_PLACEMENT_3D('',#369,#298,#299);
#259=AXIS2_PLACEMENT_3D('',#374,#303,#304);
#260=AXIS2_PLACEMENT_3D('',#378,#307,#308);
#261=AXIS2_PLACEMENT_3D('',#379,#309,#310);
#262=AXIS2_PLACEMENT_3D('',#381,#311,#312);
#263=AXIS2_PLACEMENT_3D('',#383,#313,#314);
#264=AXIS2_PLACEMENT_3D('',#386,#316,#317);
#265=AXIS2_PLACEMENT_3D('',#388,#319,#320);
#266=AXIS2_PLACEMENT_3D('',#389,#321,#322);
#267=AXIS2_PLACEMENT_3D('',#390,#323,#324);
#268=AXIS2_PLACEMENT_3D('',#392,#325,#326);
#269=AXIS2_PLACEMENT_3D('',#393,#327,#328);
#270=AXIS2_PLACEMENT_3D('',#394,#329,#330);
#271=AXIS2_PLACEMENT_3D('',#396,#331,#332);
#272=AXIS2_PLACEMENT_3D('',#397,#333,#334);
#273=AXIS2_PLACEMENT_3D('',#398,#335,#336);
#274=AXIS2_PLACEMENT_3D('',#399,#337,#338);
#275=AXIS2_PLACEMENT_3D('',#400,#339,#340);
#276=DIRECTION('',(0.,0.,1.));
#277=DIRECTION('',(1.,0.,0.));
#278=DIRECTION('',(0.,0.,1.));
#279=DIRECTION('',(0.999999999999999,0.,0.));
#280=DIRECTION('',(0.,0.,1.));
#281=DIRECTION('',(1.,0.,0.));
#282=DIRECTION('',(0.,0.,1.));
#283=DIRECTION('',(1.,0.,0.));
#284=DIRECTION('',(0.,0.,1.));
#285=DIRECTION('',(1.,0.,0.));
#286=DIRECTION('',(0.,0.,1.));
#287=DIRECTION('',(0.999999999999996,0.,0.));
#288=DIRECTION('',(0.,1.,0.));
#289=DIRECTION('',(1.,0.,0.));
#290=DIRECTION('',(0.,-1.,0.));
#291=DIRECTION('',(1.,0.,0.));
#292=DIRECTION('',(0.,0.,1.));
#293=DIRECTION('',(1.,0.,0.));
#294=DIRECTION('',(0.,0.,1.));
#295=DIRECTION('',(-1.,0.,0.));
#296=DIRECTION('',(0.,0.,1.));
#297=DIRECTION('',(1.,0.,0.));
#298=DIRECTION('',(0.,-1.,0.));
#299=DIRECTION('',(0.,0.,-1.));
#300=DIRECTION('',(0.,0.707106781186548,0.707106781186548));
#301=DIRECTION('',(0.,0.,1.));
#302=DIRECTION('',(0.,-1.,0.));
#303=DIRECTION('',(-1.,0.,0.));
#304=DIRECTION('',(0.,0.,1.));
#305=DIRECTION('',(0.,0.,1.));
#306=DIRECTION('',(-1.,0.,0.));
#307=DIRECTION('',(0.,1.,0.));
#308=DIRECTION('',(0.,0.,1.));
#309=DIRECTION('',(0.,0.,-1.));
#310=DIRECTION('',(-0.999999999999999,0.,0.));
#311=DIRECTION('',(0.,0.,-1.));
#312=DIRECTION('',(-1.,0.,0.));
#313=DIRECTION('',(0.,0.,-1.));
#314=DIRECTION('',(-1.,0.,0.));
#315=DIRECTION('',(0.,1.,0.));
#316=DIRECTION('',(0.,0.,-1.));
#317=DIRECTION('',(-1.,0.,0.));
#318=DIRECTION('',(0.,-0.707106781186548,-0.707106781186548));
#319=DIRECTION('',(1.,0.,0.));
#320=DIRECTION('',(0.,0.,-1.));
#321=DIRECTION('',(0.,0.707106781186548,-0.707106781186548));
#322=DIRECTION('',(-1.,0.,0.));
#323=DIRECTION('',(0.,0.,-1.));
#324=DIRECTION('',(0.999999999999996,0.,0.));
#325=DIRECTION('',(0.,0.,-1.));
#326=DIRECTION('',(-1.,0.,0.));
#327=DIRECTION('',(0.,0.,-1.));
#328=DIRECTION('',(0.999999999999996,0.,0.));
#329=DIRECTION('',(0.,0.,-1.));
#330=DIRECTION('',(1.,0.,0.));
#331=DIRECTION('',(0.,0.,-1.));
#332=DIRECTION('',(-1.,0.,0.));
#333=DIRECTION('',(0.,0.,-1.));
#334=DIRECTION('',(1.,0.,0.));
#335=DIRECTION('',(0.,0.,-1.));
#336=DIRECTION('',(1.,0.,0.));
#337=DIRECTION('',(0.,0.,-1.));
#338=DIRECTION('',(1.,0.,0.));
#339=DIRECTION('',(0.,0.,-1.));
#340=DIRECTION('',(0.999999999999999,0.,0.));
#341=CARTESIAN_POINT('',(0.,0.,0.));
#342=CARTESIAN_POINT('',(287.8,103.1,135.));
#343=CARTESIAN_POINT('',(300.05,103.1,135.));
#344=CARTESIAN_POINT('',(82.9,198.3,135.));
#345=CARTESIAN_POINT('',(97.9,198.3,135.));
#346=CARTESIAN_POINT('',(48.6,108.2,135.));
#347=CARTESIAN_POINT('',(63.1,108.2,135.));
#348=CARTESIAN_POINT('',(87.4,155.5,135.));
#349=CARTESIAN_POINT('',(96.6,155.5,135.));
#350=CARTESIAN_POINT('',(403.9,117.,135.));
#351=CARTESIAN_POINT('',(411.2,117.,135.));
#352=CARTESIAN_POINT('',(0.,127.4,135.));
#353=CARTESIAN_POINT('',(0.,16.,135.));
#354=CARTESIAN_POINT('',(0.,254.8,135.));
#355=CARTESIAN_POINT('',(214.65,16.,135.));
#356=CARTESIAN_POINT('',(429.3,16.,135.));
#357=CARTESIAN_POINT('',(429.3,127.4,135.));
#358=CARTESIAN_POINT('',(429.3,254.8,135.));
#359=CARTESIAN_POINT('',(214.65,254.8,135.));
#360=CARTESIAN_POINT('',(214.65,127.4,135.));
#361=CARTESIAN_POINT('',(429.3,0.,0.));
#362=CARTESIAN_POINT('',(429.3,0.,0.));
#363=CARTESIAN_POINT('',(429.3,0.,119.));
#364=CARTESIAN_POINT('',(214.65,0.,119.));
#365=CARTESIAN_POINT('',(0.,0.,119.));
#366=CARTESIAN_POINT('',(0.,0.,0.));
#367=CARTESIAN_POINT('',(0.,0.,0.));
#368=CARTESIAN_POINT('',(214.65,0.,0.));
#369=CARTESIAN_POINT('',(214.65,0.,0.));
#370=CARTESIAN_POINT('',(0.,4.20000000000001,123.2));
#371=CARTESIAN_POINT('',(0.,254.8,0.));
#372=CARTESIAN_POINT('',(0.,254.8,0.));
#373=CARTESIAN_POINT('',(0.,127.4,0.));
#374=CARTESIAN_POINT('',(0.,127.4,0.));
#375=CARTESIAN_POINT('',(429.3,254.8,0.));
#376=CARTESIAN_POINT('',(429.3,254.8,0.));
#377=CARTESIAN_POINT('',(214.65,254.8,0.));
#378=CARTESIAN_POINT('',(214.65,254.8,0.));
#379=CARTESIAN_POINT('',(287.8,103.1,0.));
#380=CARTESIAN_POINT('',(275.55,103.1,0.));
#381=CARTESIAN_POINT('',(82.9,198.3,0.));
#382=CARTESIAN_POINT('',(67.9,198.3,0.));
#383=CARTESIAN_POINT('',(48.6,108.2,0.));
#384=CARTESIAN_POINT('',(34.1,108.2,0.));
#385=CARTESIAN_POINT('',(429.3,127.4,0.));
#386=CARTESIAN_POINT('',(214.65,127.4,0.));
#387=CARTESIAN_POINT('',(429.3,4.20000000000001,123.2));
#388=CARTESIAN_POINT('',(429.3,127.4,0.));
#389=CARTESIAN_POINT('',(214.65,0.,119.));
#390=CARTESIAN_POINT('',(403.9,117.,57.8));
#391=CARTESIAN_POINT('',(411.2,117.,57.8));
#392=CARTESIAN_POINT('',(403.9,117.,57.8));
#393=CARTESIAN_POINT('',(403.9,117.,135.05));
#394=CARTESIAN_POINT('',(87.4,155.5,99.7));
#395=CARTESIAN_POINT('',(96.6,155.5,99.7));
#396=CARTESIAN_POINT('',(87.4,155.5,99.7));
#397=CARTESIAN_POINT('',(87.4,155.5,135.05));
#398=CARTESIAN_POINT('',(48.6,108.2,135.05));
#399=CARTESIAN_POINT('',(82.9,198.3,135.05));
#400=CARTESIAN_POINT('',(287.8,103.1,135.05));
#401=MECHANICAL_DESIGN_GEOMETRIC_PRESENTATION_REPRESENTATION('',(#24),#402);
#402=(
GEOMETRIC_REPRESENTATION_CONTEXT(3)
GLOBAL_UNCERTAINTY_ASSIGNED_CONTEXT((#403))
GLOBAL_UNIT_ASSIGNED_CONTEXT((#409,#405,#404))
REPRESENTATION_CONTEXT('featured_part_08534','TOP_LEVEL_ASSEMBLY_PART')
);
#403=UNCERTAINTY_MEASURE_WITH_UNIT(LENGTH_MEASURE(2.E-5),#409,
'DISTANCE_ACCURACY_VALUE','Maximum Tolerance applied to model');
#404=(
NAMED_UNIT(*)
SI_UNIT($,.STERADIAN.)
SOLID_ANGLE_UNIT()
);
#405=(
CONVERSION_BASED_UNIT('DEGREE',#407)
NAMED_UNIT(#406)
PLANE_ANGLE_UNIT()
);
#406=DIMENSIONAL_EXPONENTS(0.,0.,0.,0.,0.,0.,0.);
#407=PLANE_ANGLE_MEASURE_WITH_UNIT(PLANE_ANGLE_MEASURE(0.0174532925),#408);
#408=(
NAMED_UNIT(*)
PLANE_ANGLE_UNIT()
SI_UNIT($,.RADIAN.)
);
#409=(
LENGTH_UNIT()
NAMED_UNIT(*)
SI_UNIT(.MILLI.,.METRE.)
);
ENDSEC;
END-ISO-10303-21;
