ISO-10303-21;
HEADER;
/* Generated by software containing ST-Developer
 * from STEP Tools, Inc. (www.steptools.com) 
 */
/* OPTION: using custom schema-name function */

FILE_DESCRIPTION(
/* description */ (''),
/* implementation_level */ '2;1');

FILE_NAME(
/* name */ 'featured_part_05519.stp',
/* time_stamp */ '2026-07-08T05:15:12-04:00',
/* author */ (''),
/* organization */ (''),
/* preprocessor_version */ 'ST-DEVELOPER v20.1',
/* originating_system */ 'SIEMENS PLM Software NX2512.6002',
/* authorisation */ '');

FILE_SCHEMA (('AUTOMOTIVE_DESIGN { 1 0 10303 214 3 1 1 1 }'));
ENDSEC;

DATA;
#10=SHAPE_REPRESENTATION_RELATIONSHIP('None',
'relationship between featured_part_05519-None and featured_part_05519
-None',#22,#11);
#11=ADVANCED_BREP_SHAPE_REPRESENTATION('featured_part_05519-None',(#32),
#453);
#12=SHAPE_DEFINITION_REPRESENTATION(#13,#22);
#13=PRODUCT_DEFINITION_SHAPE('','',#14);
#14=PRODUCT_DEFINITION(' ','',#16,#15);
#15=PRODUCT_DEFINITION_CONTEXT('part definition',#21,'design');
#16=PRODUCT_DEFINITION_FORMATION_WITH_SPECIFIED_SOURCE(' ',' ',#18,
 .NOT_KNOWN.);
#17=PRODUCT_RELATED_PRODUCT_CATEGORY('part','',(#18));
#18=PRODUCT('featured_part_05519','featured_part_05519',' ',(#19));
#19=PRODUCT_CONTEXT(' ',#21,'mechanical');
#20=APPLICATION_PROTOCOL_DEFINITION('international standard',
'automotive_design',2010,#21);
#21=APPLICATION_CONTEXT(
'core data for automotive mechanical design processes');
#22=SHAPE_REPRESENTATION('featured_part_05519-None',(#292),#453);
#23=PRESENTATION_LAYER_ASSIGNMENT('1','Layer 1',(#32));
#24=STYLED_ITEM('',(#25),#32);
#25=PRESENTATION_STYLE_ASSIGNMENT((#26));
#26=SURFACE_STYLE_USAGE(.BOTH.,#27);
#27=SURFACE_SIDE_STYLE('',(#28));
#28=SURFACE_STYLE_FILL_AREA(#29);
#29=FILL_AREA_STYLE('',(#30));
#30=FILL_AREA_STYLE_COLOUR('',#31);
#31=COLOUR_RGB('medium steel',0.611764705882353,0.658823529411765,0.670588235294118);
#32=MANIFOLD_SOLID_BREP('',#33);
#33=CLOSED_SHELL('',(#35,#36,#37,#38,#39,#40,#41,#42,#43,#44,#45,#46,#47,
#48));
#34=CYLINDRICAL_SURFACE('',#308,7.);
#35=ADVANCED_FACE('',(#62),#49,.T.);
#36=ADVANCED_FACE('',(#63),#50,.T.);
#37=ADVANCED_FACE('',(#64),#51,.T.);
#38=ADVANCED_FACE('',(#65),#52,.T.);
#39=ADVANCED_FACE('',(#66),#53,.T.);
#40=ADVANCED_FACE('',(#67),#54,.T.);
#41=ADVANCED_FACE('',(#68),#55,.F.);
#42=ADVANCED_FACE('',(#69),#56,.F.);
#43=ADVANCED_FACE('',(#70),#57,.F.);
#44=ADVANCED_FACE('',(#71),#58,.F.);
#45=ADVANCED_FACE('',(#72),#59,.F.);
#46=ADVANCED_FACE('',(#73),#60,.F.);
#47=ADVANCED_FACE('',(#74),#61,.F.);
#48=ADVANCED_FACE('',(#75),#34,.F.);
#49=PLANE('',#294);
#50=PLANE('',#295);
#51=PLANE('',#296);
#52=PLANE('',#297);
#53=PLANE('',#298);
#54=PLANE('',#299);
#55=PLANE('',#300);
#56=PLANE('',#301);
#57=PLANE('',#302);
#58=PLANE('',#303);
#59=PLANE('',#304);
#60=PLANE('',#305);
#61=PLANE('',#307);
#62=FACE_OUTER_BOUND('',#76,.T.);
#63=FACE_OUTER_BOUND('',#77,.T.);
#64=FACE_OUTER_BOUND('',#78,.T.);
#65=FACE_OUTER_BOUND('',#79,.T.);
#66=FACE_OUTER_BOUND('',#80,.T.);
#67=FACE_OUTER_BOUND('',#81,.T.);
#68=FACE_OUTER_BOUND('',#82,.T.);
#69=FACE_OUTER_BOUND('',#83,.T.);
#70=FACE_OUTER_BOUND('',#84,.T.);
#71=FACE_OUTER_BOUND('',#85,.T.);
#72=FACE_OUTER_BOUND('',#86,.T.);
#73=FACE_OUTER_BOUND('',#87,.T.);
#74=FACE_OUTER_BOUND('',#88,.T.);
#75=FACE_OUTER_BOUND('',#89,.T.);
#76=EDGE_LOOP('',(#92,#93,#94,#95,#96,#97,#98));
#77=EDGE_LOOP('',(#99,#100,#101,#102,#103,#104,#105));
#78=EDGE_LOOP('',(#106,#107,#108,#109));
#79=EDGE_LOOP('',(#110,#111,#112,#113,#114,#115));
#80=EDGE_LOOP('',(#116,#117,#118,#119));
#81=EDGE_LOOP('',(#120,#121,#122,#123,#124,#125));
#82=EDGE_LOOP('',(#126,#127,#128,#129,#130));
#83=EDGE_LOOP('',(#131,#132,#133,#134,#135,#136));
#84=EDGE_LOOP('',(#137,#138,#139,#140));
#85=EDGE_LOOP('',(#141,#142,#143,#144));
#86=EDGE_LOOP('',(#145,#146,#147,#148,#149));
#87=EDGE_LOOP('',(#150,#151,#152,#153,#154));
#88=EDGE_LOOP('',(#155,#156,#157,#158,#159));
#89=EDGE_LOOP('',(#160,#161,#162,#163));
#90=CIRCLE('',#293,7.);
#91=CIRCLE('',#306,7.);
#92=ORIENTED_EDGE('',*,*,#188,.F.);
#93=ORIENTED_EDGE('',*,*,#189,.T.);
#94=ORIENTED_EDGE('',*,*,#190,.F.);
#95=ORIENTED_EDGE('',*,*,#191,.T.);
#96=ORIENTED_EDGE('',*,*,#192,.T.);
#97=ORIENTED_EDGE('',*,*,#193,.T.);
#98=ORIENTED_EDGE('',*,*,#194,.T.);
#99=ORIENTED_EDGE('',*,*,#195,.T.);
#100=ORIENTED_EDGE('',*,*,#196,.T.);
#101=ORIENTED_EDGE('',*,*,#197,.T.);
#102=ORIENTED_EDGE('',*,*,#198,.F.);
#103=ORIENTED_EDGE('',*,*,#199,.T.);
#104=ORIENTED_EDGE('',*,*,#200,.T.);
#105=ORIENTED_EDGE('',*,*,#201,.F.);
#106=ORIENTED_EDGE('',*,*,#198,.T.);
#107=ORIENTED_EDGE('',*,*,#202,.T.);
#108=ORIENTED_EDGE('',*,*,#203,.F.);
#109=ORIENTED_EDGE('',*,*,#204,.T.);
#110=ORIENTED_EDGE('',*,*,#205,.T.);
#111=ORIENTED_EDGE('',*,*,#206,.T.);
#112=ORIENTED_EDGE('',*,*,#207,.T.);
#113=ORIENTED_EDGE('',*,*,#208,.F.);
#114=ORIENTED_EDGE('',*,*,#209,.T.);
#115=ORIENTED_EDGE('',*,*,#203,.T.);
#116=ORIENTED_EDGE('',*,*,#210,.F.);
#117=ORIENTED_EDGE('',*,*,#199,.F.);
#118=ORIENTED_EDGE('',*,*,#204,.F.);
#119=ORIENTED_EDGE('',*,*,#209,.F.);
#120=ORIENTED_EDGE('',*,*,#211,.F.);
#121=ORIENTED_EDGE('',*,*,#212,.F.);
#122=ORIENTED_EDGE('',*,*,#200,.F.);
#123=ORIENTED_EDGE('',*,*,#210,.T.);
#124=ORIENTED_EDGE('',*,*,#208,.T.);
#125=ORIENTED_EDGE('',*,*,#213,.T.);
#126=ORIENTED_EDGE('',*,*,#214,.F.);
#127=ORIENTED_EDGE('',*,*,#213,.F.);
#128=ORIENTED_EDGE('',*,*,#207,.F.);
#129=ORIENTED_EDGE('',*,*,#215,.T.);
#130=ORIENTED_EDGE('',*,*,#191,.F.);
#131=ORIENTED_EDGE('',*,*,#197,.F.);
#132=ORIENTED_EDGE('',*,*,#216,.T.);
#133=ORIENTED_EDGE('',*,*,#193,.F.);
#134=ORIENTED_EDGE('',*,*,#217,.T.);
#135=ORIENTED_EDGE('',*,*,#205,.F.);
#136=ORIENTED_EDGE('',*,*,#202,.F.);
#137=ORIENTED_EDGE('',*,*,#217,.F.);
#138=ORIENTED_EDGE('',*,*,#192,.F.);
#139=ORIENTED_EDGE('',*,*,#215,.F.);
#140=ORIENTED_EDGE('',*,*,#206,.F.);
#141=ORIENTED_EDGE('',*,*,#218,.F.);
#142=ORIENTED_EDGE('',*,*,#194,.F.);
#143=ORIENTED_EDGE('',*,*,#216,.F.);
#144=ORIENTED_EDGE('',*,*,#196,.F.);
#145=ORIENTED_EDGE('',*,*,#219,.T.);
#146=ORIENTED_EDGE('',*,*,#220,.T.);
#147=ORIENTED_EDGE('',*,*,#188,.T.);
#148=ORIENTED_EDGE('',*,*,#218,.T.);
#149=ORIENTED_EDGE('',*,*,#195,.F.);
#150=ORIENTED_EDGE('',*,*,#190,.T.);
#151=ORIENTED_EDGE('',*,*,#221,.T.);
#152=ORIENTED_EDGE('',*,*,#222,.T.);
#153=ORIENTED_EDGE('',*,*,#211,.T.);
#154=ORIENTED_EDGE('',*,*,#214,.T.);
#155=ORIENTED_EDGE('',*,*,#222,.F.);
#156=ORIENTED_EDGE('',*,*,#223,.T.);
#157=ORIENTED_EDGE('',*,*,#219,.F.);
#158=ORIENTED_EDGE('',*,*,#201,.T.);
#159=ORIENTED_EDGE('',*,*,#212,.T.);
#160=ORIENTED_EDGE('',*,*,#189,.F.);
#161=ORIENTED_EDGE('',*,*,#220,.F.);
#162=ORIENTED_EDGE('',*,*,#223,.F.);
#163=ORIENTED_EDGE('',*,*,#221,.F.);
#164=VERTEX_POINT('',#379);
#165=VERTEX_POINT('',#380);
#166=VERTEX_POINT('',#382);
#167=VERTEX_POINT('',#384);
#168=VERTEX_POINT('',#386);
#169=VERTEX_POINT('',#388);
#170=VERTEX_POINT('',#390);
#171=VERTEX_POINT('',#394);
#172=VERTEX_POINT('',#395);
#173=VERTEX_POINT('',#397);
#174=VERTEX_POINT('',#399);
#175=VERTEX_POINT('',#401);
#176=VERTEX_POINT('',#403);
#177=VERTEX_POINT('',#405);
#178=VERTEX_POINT('',#409);
#179=VERTEX_POINT('',#411);
#180=VERTEX_POINT('',#415);
#181=VERTEX_POINT('',#417);
#182=VERTEX_POINT('',#419);
#183=VERTEX_POINT('',#421);
#184=VERTEX_POINT('',#427);
#185=VERTEX_POINT('',#428);
#186=VERTEX_POINT('',#442);
#187=VERTEX_POINT('',#446);
#188=EDGE_CURVE('',#164,#165,#224,.T.);
#189=EDGE_CURVE('',#164,#166,#90,.T.);
#190=EDGE_CURVE('',#167,#166,#225,.T.);
#191=EDGE_CURVE('',#167,#168,#226,.T.);
#192=EDGE_CURVE('',#168,#169,#227,.T.);
#193=EDGE_CURVE('',#169,#170,#228,.T.);
#194=EDGE_CURVE('',#170,#165,#229,.T.);
#195=EDGE_CURVE('',#171,#172,#230,.T.);
#196=EDGE_CURVE('',#172,#173,#231,.T.);
#197=EDGE_CURVE('',#173,#174,#232,.T.);
#198=EDGE_CURVE('',#175,#174,#233,.T.);
#199=EDGE_CURVE('',#175,#176,#234,.T.);
#200=EDGE_CURVE('',#176,#177,#235,.T.);
#201=EDGE_CURVE('',#171,#177,#236,.T.);
#202=EDGE_CURVE('',#174,#178,#237,.T.);
#203=EDGE_CURVE('',#179,#178,#238,.T.);
#204=EDGE_CURVE('',#179,#175,#239,.T.);
#205=EDGE_CURVE('',#178,#180,#240,.T.);
#206=EDGE_CURVE('',#180,#181,#241,.T.);
#207=EDGE_CURVE('',#181,#182,#242,.T.);
#208=EDGE_CURVE('',#183,#182,#243,.T.);
#209=EDGE_CURVE('',#183,#179,#244,.T.);
#210=EDGE_CURVE('',#176,#183,#245,.T.);
#211=EDGE_CURVE('',#184,#185,#246,.T.);
#212=EDGE_CURVE('',#177,#184,#247,.T.);
#213=EDGE_CURVE('',#182,#185,#248,.T.);
#214=EDGE_CURVE('',#185,#167,#249,.T.);
#215=EDGE_CURVE('',#181,#168,#250,.T.);
#216=EDGE_CURVE('',#173,#170,#251,.T.);
#217=EDGE_CURVE('',#169,#180,#252,.T.);
#218=EDGE_CURVE('',#165,#172,#253,.T.);
#219=EDGE_CURVE('',#171,#186,#254,.T.);
#220=EDGE_CURVE('',#186,#164,#255,.T.);
#221=EDGE_CURVE('',#166,#187,#256,.T.);
#222=EDGE_CURVE('',#187,#184,#257,.T.);
#223=EDGE_CURVE('',#187,#186,#91,.T.);
#224=LINE('',#378,#258);
#225=LINE('',#383,#259);
#226=LINE('',#385,#260);
#227=LINE('',#387,#261);
#228=LINE('',#389,#262);
#229=LINE('',#391,#263);
#230=LINE('',#393,#264);
#231=LINE('',#396,#265);
#232=LINE('',#398,#266);
#233=LINE('',#400,#267);
#234=LINE('',#402,#268);
#235=LINE('',#404,#269);
#236=LINE('',#406,#270);
#237=LINE('',#408,#271);
#238=LINE('',#410,#272);
#239=LINE('',#412,#273);
#240=LINE('',#414,#274);
#241=LINE('',#416,#275);
#242=LINE('',#418,#276);
#243=LINE('',#420,#277);
#244=LINE('',#422,#278);
#245=LINE('',#424,#279);
#246=LINE('',#426,#280);
#247=LINE('',#429,#281);
#248=LINE('',#430,#282);
#249=LINE('',#432,#283);
#250=LINE('',#433,#284);
#251=LINE('',#435,#285);
#252=LINE('',#436,#286);
#253=LINE('',#439,#287);
#254=LINE('',#441,#288);
#255=LINE('',#443,#289);
#256=LINE('',#445,#290);
#257=LINE('',#447,#291);
#258=VECTOR('',#311,1.);
#259=VECTOR('',#314,1.);
#260=VECTOR('',#315,1.);
#261=VECTOR('',#316,1.);
#262=VECTOR('',#317,1.);
#263=VECTOR('',#318,1.);
#264=VECTOR('',#321,1.);
#265=VECTOR('',#322,1.);
#266=VECTOR('',#323,1.);
#267=VECTOR('',#324,1.);
#268=VECTOR('',#325,1.);
#269=VECTOR('',#326,1.);
#270=VECTOR('',#327,1.);
#271=VECTOR('',#330,1.);
#272=VECTOR('',#331,1.);
#273=VECTOR('',#332,1.);
#274=VECTOR('',#335,1.);
#275=VECTOR('',#336,1.);
#276=VECTOR('',#337,1.);
#277=VECTOR('',#338,1.);
#278=VECTOR('',#339,1.);
#279=VECTOR('',#342,1.);
#280=VECTOR('',#345,1.);
#281=VECTOR('',#346,1.);
#282=VECTOR('',#347,1.);
#283=VECTOR('',#350,1.);
#284=VECTOR('',#351,1.);
#285=VECTOR('',#354,1.);
#286=VECTOR('',#355,1.);
#287=VECTOR('',#360,1.);
#288=VECTOR('',#363,1.);
#289=VECTOR('',#364,1.);
#290=VECTOR('',#367,1.);
#291=VECTOR('',#368,1.);
#292=AXIS2_PLACEMENT_3D('',#377,#309,#310);
#293=AXIS2_PLACEMENT_3D('',#381,#312,#313);
#294=AXIS2_PLACEMENT_3D('',#392,#319,#320);
#295=AXIS2_PLACEMENT_3D('',#407,#328,#329);
#296=AXIS2_PLACEMENT_3D('',#413,#333,#334);
#297=AXIS2_PLACEMENT_3D('',#423,#340,#341);
#298=AXIS2_PLACEMENT_3D('',#425,#343,#344);
#299=AXIS2_PLACEMENT_3D('',#431,#348,#349);
#300=AXIS2_PLACEMENT_3D('',#434,#352,#353);
#301=AXIS2_PLACEMENT_3D('',#437,#356,#357);
#302=AXIS2_PLACEMENT_3D('',#438,#358,#359);
#303=AXIS2_PLACEMENT_3D('',#440,#361,#362);
#304=AXIS2_PLACEMENT_3D('',#444,#365,#366);
#305=AXIS2_PLACEMENT_3D('',#448,#369,#370);
#306=AXIS2_PLACEMENT_3D('',#449,#371,#372);
#307=AXIS2_PLACEMENT_3D('',#450,#373,#374);
#308=AXIS2_PLACEMENT_3D('',#451,#375,#376);
#309=DIRECTION('',(0.,0.,1.));
#310=DIRECTION('',(1.,0.,0.));
#311=DIRECTION('',(0.,-1.,0.));
#312=DIRECTION('',(0.,0.,-1.));
#313=DIRECTION('',(1.,0.,0.));
#314=DIRECTION('',(-1.,0.,0.));
#315=DIRECTION('',(0.,1.,0.));
#316=DIRECTION('',(-1.,0.,0.));
#317=DIRECTION('',(0.,-1.,0.));
#318=DIRECTION('',(1.,0.,0.));
#319=DIRECTION('',(0.,0.,1.));
#320=DIRECTION('',(1.,0.,0.));
#321=DIRECTION('',(0.,0.,1.));
#322=DIRECTION('',(-1.,0.,0.));
#323=DIRECTION('',(-0.707106781186547,0.,-0.707106781186548));
#324=DIRECTION('',(0.,0.,1.));
#325=DIRECTION('',(1.,0.,0.));
#326=DIRECTION('',(0.,0.,1.));
#327=DIRECTION('',(1.,0.,0.));
#328=DIRECTION('',(0.,-1.,0.));
#329=DIRECTION('',(0.,0.,-1.));
#330=DIRECTION('',(0.,1.,0.));
#331=DIRECTION('',(0.,0.,1.));
#332=DIRECTION('',(0.,-1.,0.));
#333=DIRECTION('',(-1.,0.,0.));
#334=DIRECTION('',(0.,0.,1.));
#335=DIRECTION('',(0.707106781186547,0.,0.707106781186548));
#336=DIRECTION('',(1.,0.,0.));
#337=DIRECTION('',(0.707106781186547,0.,-0.707106781186548));
#338=DIRECTION('',(0.,0.,1.));
#339=DIRECTION('',(-1.,0.,0.));
#340=DIRECTION('',(0.,1.,0.));
#341=DIRECTION('',(0.,0.,1.));
#342=DIRECTION('',(0.,1.,0.));
#343=DIRECTION('',(0.,0.,-1.));
#344=DIRECTION('',(-1.,0.,0.));
#345=DIRECTION('',(0.,0.,1.));
#346=DIRECTION('',(0.,1.,0.));
#347=DIRECTION('',(0.,-1.,0.));
#348=DIRECTION('',(1.,0.,0.));
#349=DIRECTION('',(0.,0.,-1.));
#350=DIRECTION('',(-0.707106781186547,0.,0.707106781186548));
#351=DIRECTION('',(-0.577350269189625,-0.577350269189627,0.577350269189625));
#352=DIRECTION('',(-0.707106781186548,0.,-0.707106781186547));
#353=DIRECTION('',(0.,-1.,0.));
#354=DIRECTION('',(0.577350269189625,0.577350269189626,0.577350269189626));
#355=DIRECTION('',(-0.577350269189625,0.577350269189627,-0.577350269189625));
#356=DIRECTION('',(0.707106781186548,0.,-0.707106781186547));
#357=DIRECTION('',(0.,1.,0.));
#358=DIRECTION('',(0.,-0.707106781186546,-0.707106781186549));
#359=DIRECTION('',(1.,0.,0.));
#360=DIRECTION('',(0.,-0.707106781186548,-0.707106781186548));
#361=DIRECTION('',(0.,0.707106781186547,-0.707106781186547));
#362=DIRECTION('',(-1.,0.,0.));
#363=DIRECTION('',(0.,1.,0.));
#364=DIRECTION('',(0.,0.,1.));
#365=DIRECTION('',(-1.,0.,0.));
#366=DIRECTION('',(0.,0.,1.));
#367=DIRECTION('',(0.,0.,-1.));
#368=DIRECTION('',(1.,0.,0.));
#369=DIRECTION('',(0.,1.,0.));
#370=DIRECTION('',(0.,0.,1.));
#371=DIRECTION('',(0.,0.,1.));
#372=DIRECTION('',(-1.,0.,0.));
#373=DIRECTION('',(0.,0.,-1.));
#374=DIRECTION('',(-1.,0.,0.));
#375=DIRECTION('',(0.,0.,1.));
#376=DIRECTION('',(1.,0.,0.));
#377=CARTESIAN_POINT('',(0.,0.,0.));
#378=CARTESIAN_POINT('',(370.3,107.7,107.9));
#379=CARTESIAN_POINT('',(370.3,65.9,107.9));
#380=CARTESIAN_POINT('',(370.3,2.5,107.9));
#381=CARTESIAN_POINT('',(377.3,65.9,107.9));
#382=CARTESIAN_POINT('',(377.3,72.9,107.9));
#383=CARTESIAN_POINT('',(249.7,72.9,107.9));
#384=CARTESIAN_POINT('',(479.6,72.9,107.9));
#385=CARTESIAN_POINT('',(479.6,107.7,107.9));
#386=CARTESIAN_POINT('',(479.6,210.7,107.9));
#387=CARTESIAN_POINT('',(249.7,210.7,107.9));
#388=CARTESIAN_POINT('',(16.,210.7,107.9));
#389=CARTESIAN_POINT('',(16.,107.7,107.9));
#390=CARTESIAN_POINT('',(16.,2.5,107.9));
#391=CARTESIAN_POINT('',(249.7,2.5,107.9));
#392=CARTESIAN_POINT('',(249.7,107.7,107.9));
#393=CARTESIAN_POINT('',(370.3,0.,70.));
#394=CARTESIAN_POINT('',(370.3,0.,70.));
#395=CARTESIAN_POINT('',(370.3,-3.46944695195361E-15,105.4));
#396=CARTESIAN_POINT('',(249.7,0.,105.4));
#397=CARTESIAN_POINT('',(13.5,0.,105.4));
#398=CARTESIAN_POINT('',(78.8999999999999,0.,170.8));
#399=CARTESIAN_POINT('',(0.,0.,91.9));
#400=CARTESIAN_POINT('',(0.,0.,0.));
#401=CARTESIAN_POINT('',(0.,0.,0.));
#402=CARTESIAN_POINT('',(249.7,0.,0.));
#403=CARTESIAN_POINT('',(499.4,0.,0.));
#404=CARTESIAN_POINT('',(499.4,0.,0.));
#405=CARTESIAN_POINT('',(499.4,0.,70.));
#406=CARTESIAN_POINT('',(434.85,0.,70.));
#407=CARTESIAN_POINT('',(249.7,0.,0.));
#408=CARTESIAN_POINT('',(0.,107.7,91.9));
#409=CARTESIAN_POINT('',(0.,215.4,91.9));
#410=CARTESIAN_POINT('',(0.,215.4,0.));
#411=CARTESIAN_POINT('',(0.,215.4,0.));
#412=CARTESIAN_POINT('',(0.,107.7,0.));
#413=CARTESIAN_POINT('',(0.,107.7,0.));
#414=CARTESIAN_POINT('',(78.8999999999999,215.4,170.8));
#415=CARTESIAN_POINT('',(11.3,215.4,103.2));
#416=CARTESIAN_POINT('',(249.7,215.4,103.2));
#417=CARTESIAN_POINT('',(484.3,215.4,103.2));
#418=CARTESIAN_POINT('',(418.6,215.4,168.9));
#419=CARTESIAN_POINT('',(499.4,215.4,88.1));
#420=CARTESIAN_POINT('',(499.4,215.4,0.));
#421=CARTESIAN_POINT('',(499.4,215.4,0.));
#422=CARTESIAN_POINT('',(249.7,215.4,0.));
#423=CARTESIAN_POINT('',(249.7,215.4,0.));
#424=CARTESIAN_POINT('',(499.4,107.7,0.));
#425=CARTESIAN_POINT('',(249.7,107.7,0.));
#426=CARTESIAN_POINT('',(499.4,72.9,70.));
#427=CARTESIAN_POINT('',(499.4,72.9,70.));
#428=CARTESIAN_POINT('',(499.4,72.9,88.1));
#429=CARTESIAN_POINT('',(499.4,36.45,70.));
#430=CARTESIAN_POINT('',(499.4,107.7,88.1));
#431=CARTESIAN_POINT('',(499.4,107.7,0.));
#432=CARTESIAN_POINT('',(499.4,72.9,88.1));
#433=CARTESIAN_POINT('',(458.466666666667,189.566666666667,129.033333333333));
#434=CARTESIAN_POINT('',(499.4,107.7,88.1));
#435=CARTESIAN_POINT('',(40.4,26.9,132.3));
#436=CARTESIAN_POINT('',(39.6666666666667,187.033333333333,131.566666666667));
#437=CARTESIAN_POINT('',(0.,107.7,91.9));
#438=CARTESIAN_POINT('',(249.7,215.4,103.2));
#439=CARTESIAN_POINT('',(370.3,0.,105.4));
#440=CARTESIAN_POINT('',(249.7,0.,105.4));
#441=CARTESIAN_POINT('',(370.3,36.45,70.));
#442=CARTESIAN_POINT('',(370.3,65.9,70.));
#443=CARTESIAN_POINT('',(370.3,65.9,107.9));
#444=CARTESIAN_POINT('',(370.3,36.45,70.));
#445=CARTESIAN_POINT('',(377.3,72.9,70.));
#446=CARTESIAN_POINT('',(377.3,72.9,70.));
#447=CARTESIAN_POINT('',(434.85,72.9,70.));
#448=CARTESIAN_POINT('',(434.85,72.9,70.));
#449=CARTESIAN_POINT('',(377.3,65.9,70.));
#450=CARTESIAN_POINT('',(434.85,36.45,70.));
#451=CARTESIAN_POINT('',(377.3,65.9,70.));
#452=MECHANICAL_DESIGN_GEOMETRIC_PRESENTATION_REPRESENTATION('',(#24),#453);
#453=(
GEOMETRIC_REPRESENTATION_CONTEXT(3)
GLOBAL_UNCERTAINTY_ASSIGNED_CONTEXT((#454))
GLOBAL_UNIT_ASSIGNED_CONTEXT((#460,#456,#455))
REPRESENTATION_CONTEXT('featured_part_05519','TOP_LEVEL_ASSEMBLY_PART')
);
#454=UNCERTAINTY_MEASURE_WITH_UNIT(LENGTH_MEASURE(2.E-5),#460,
'DISTANCE_ACCURACY_VALUE','Maximum Tolerance applied to model');
#455=(
NAMED_UNIT(*)
SI_UNIT($,.STERADIAN.)
SOLID_ANGLE_UNIT()
);
#456=(
CONVERSION_BASED_UNIT('DEGREE',#458)
NAMED_UNIT(#457)
PLANE_ANGLE_UNIT()
);
#457=DIMENSIONAL_EXPONENTS(0.,0.,0.,0.,0.,0.,0.);
#458=PLANE_ANGLE_MEASURE_WITH_UNIT(PLANE_ANGLE_MEASURE(0.0174532925),#459);
#459=(
NAMED_UNIT(*)
PLANE_ANGLE_UNIT()
SI_UNIT($,.RADIAN.)
);
#460=(
LENGTH_UNIT()
NAMED_UNIT(*)
SI_UNIT(.MILLI.,.METRE.)
);
ENDSEC;
END-ISO-10303-21;
