ISO-10303-21;
HEADER;
/* Generated by software containing ST-Developer
 * from STEP Tools, Inc. (www.steptools.com) 
 */
/* OPTION: using custom schema-name function */

FILE_DESCRIPTION(
/* description */ (''),
/* implementation_level */ '2;1');

FILE_NAME(
/* name */ 'featured_part_05129.stp',
/* time_stamp */ '2026-07-08T23:32:30-04:00',
/* author */ (''),
/* organization */ (''),
/* preprocessor_version */ 'ST-DEVELOPER v20.1',
/* originating_system */ 'SIEMENS PLM Software NX2512.6002',
/* authorisation */ '');

FILE_SCHEMA (('PROCESS_PLANNING_SCHEMA'));
ENDSEC;

DATA;
#10=SHAPE_REPRESENTATION_RELATIONSHIP('None',
'relationship between featured_part_05129-None and featured_part_05129
-None',#22,#11);
#11=ADVANCED_BREP_SHAPE_REPRESENTATION('featured_part_05129-None',(#32),
#841);
#12=SHAPE_DEFINITION_REPRESENTATION(#13,#22);
#13=PRODUCT_DEFINITION_SHAPE('','',#14);
#14=PRODUCT_DEFINITION(' ','',#16,#15);
#15=PRODUCT_DEFINITION_CONTEXT('part definition',#21,'design');
#16=PRODUCT_DEFINITION_FORMATION_WITH_SPECIFIED_SOURCE(' ',' ',#18,
 .NOT_KNOWN.);
#17=PRODUCT_RELATED_PRODUCT_CATEGORY('part','',(#18));
#18=PRODUCT('featured_part_05129','featured_part_05129',' ',(#19));
#19=PRODUCT_CONTEXT(' ',#21,'mechanical');
#20=APPLICATION_PROTOCOL_DEFINITION('international standard',
'automotive_design',2010,#21);
#21=APPLICATION_CONTEXT(
'core data for automotive mechanical design processes');
#22=SHAPE_REPRESENTATION('featured_part_05129-None',(#514),#841);
#23=PRESENTATION_LAYER_ASSIGNMENT('1','Layer 1',(#32));
#24=STYLED_ITEM('',(#25),#32);
#25=PRESENTATION_STYLE_ASSIGNMENT((#26));
#26=SURFACE_STYLE_USAGE(.BOTH.,#27);
#27=SURFACE_SIDE_STYLE('',(#28));
#28=SURFACE_STYLE_FILL_AREA(#29);
#29=FILL_AREA_STYLE('',(#30));
#30=FILL_AREA_STYLE_COLOUR('',#31);
#31=COLOUR_RGB('medium steel',0.611764705882353,0.658823529411765,0.670588235294118);
#32=MANIFOLD_SOLID_BREP('',#33);
#33=CLOSED_SHELL('',(#64,#65,#66,#67,#68,#69,#70,#71,#72,#73,#74,#75,#76,
#77,#78,#79,#80,#81,#82,#83,#84,#85,#86,#87,#88,#89));
#34=CYLINDRICAL_SURFACE('',#545,12.);
#35=CYLINDRICAL_SURFACE('',#546,12.);
#36=CYLINDRICAL_SURFACE('',#547,12.);
#37=CYLINDRICAL_SURFACE('',#548,12.);
#38=CYLINDRICAL_SURFACE('',#554,11.9);
#39=CYLINDRICAL_SURFACE('',#555,14.5);
#40=CYLINDRICAL_SURFACE('',#556,12.25);
#41=CYLINDRICAL_SURFACE('',#557,14.5);
#42=CYLINDRICAL_SURFACE('',#560,9.15);
#43=ELLIPSE('',#532,12.9400540957138,9.15);
#44=ELLIPSE('',#534,17.3241161390704,12.25);
#45=FACE_OUTER_BOUND('',#127,.T.);
#46=FACE_OUTER_BOUND('',#128,.T.);
#47=FACE_OUTER_BOUND('',#129,.T.);
#48=FACE_OUTER_BOUND('',#134,.T.);
#49=FACE_OUTER_BOUND('',#135,.T.);
#50=FACE_OUTER_BOUND('',#136,.T.);
#51=FACE_OUTER_BOUND('',#137,.T.);
#52=FACE_OUTER_BOUND('',#138,.T.);
#53=FACE_OUTER_BOUND('',#139,.T.);
#54=FACE_OUTER_BOUND('',#140,.T.);
#55=FACE_OUTER_BOUND('',#141,.T.);
#56=FACE_OUTER_BOUND('',#142,.T.);
#57=FACE_OUTER_BOUND('',#143,.T.);
#58=FACE_OUTER_BOUND('',#144,.T.);
#59=FACE_OUTER_BOUND('',#145,.T.);
#60=FACE_OUTER_BOUND('',#146,.T.);
#61=FACE_OUTER_BOUND('',#147,.T.);
#62=FACE_OUTER_BOUND('',#150,.T.);
#63=FACE_OUTER_BOUND('',#157,.T.);
#64=ADVANCED_FACE('',(#107,#108,#109),#90,.T.);
#65=ADVANCED_FACE('',(#45),#91,.T.);
#66=ADVANCED_FACE('',(#46),#92,.T.);
#67=ADVANCED_FACE('',(#47),#93,.T.);
#68=ADVANCED_FACE('',(#110,#111,#112,#113),#94,.T.);
#69=ADVANCED_FACE('',(#48),#95,.T.);
#70=ADVANCED_FACE('',(#49),#96,.F.);
#71=ADVANCED_FACE('',(#50),#97,.F.);
#72=ADVANCED_FACE('',(#51),#98,.F.);
#73=ADVANCED_FACE('',(#52),#99,.F.);
#74=ADVANCED_FACE('',(#53),#100,.F.);
#75=ADVANCED_FACE('',(#54),#101,.F.);
#76=ADVANCED_FACE('',(#55),#102,.F.);
#77=ADVANCED_FACE('',(#56),#34,.F.);
#78=ADVANCED_FACE('',(#57),#35,.F.);
#79=ADVANCED_FACE('',(#58),#36,.F.);
#80=ADVANCED_FACE('',(#59),#37,.F.);
#81=ADVANCED_FACE('',(#60),#103,.F.);
#82=ADVANCED_FACE('',(#61),#104,.F.);
#83=ADVANCED_FACE('',(#114,#115),#105,.F.);
#84=ADVANCED_FACE('',(#62),#38,.F.);
#85=ADVANCED_FACE('',(#116,#117),#39,.F.);
#86=ADVANCED_FACE('',(#118,#119),#40,.F.);
#87=ADVANCED_FACE('',(#120,#121),#41,.F.);
#88=ADVANCED_FACE('',(#63),#106,.F.);
#89=ADVANCED_FACE('',(#122,#123),#42,.F.);
#90=PLANE('',#523);
#91=PLANE('',#524);
#92=PLANE('',#525);
#93=PLANE('',#526);
#94=PLANE('',#530);
#95=PLANE('',#531);
#96=PLANE('',#533);
#97=PLANE('',#535);
#98=PLANE('',#536);
#99=PLANE('',#537);
#100=PLANE('',#538);
#101=PLANE('',#543);
#102=PLANE('',#544);
#103=PLANE('',#549);
#104=PLANE('',#550);
#105=PLANE('',#553);
#106=PLANE('',#559);
#107=FACE_BOUND('',#124,.T.);
#108=FACE_BOUND('',#125,.T.);
#109=FACE_BOUND('',#126,.T.);
#110=FACE_BOUND('',#130,.T.);
#111=FACE_BOUND('',#131,.T.);
#112=FACE_BOUND('',#132,.T.);
#113=FACE_BOUND('',#133,.T.);
#114=FACE_BOUND('',#148,.T.);
#115=FACE_BOUND('',#149,.T.);
#116=FACE_BOUND('',#151,.T.);
#117=FACE_BOUND('',#152,.T.);
#118=FACE_BOUND('',#153,.T.);
#119=FACE_BOUND('',#154,.T.);
#120=FACE_BOUND('',#155,.T.);
#121=FACE_BOUND('',#156,.T.);
#122=FACE_BOUND('',#158,.T.);
#123=FACE_BOUND('',#159,.T.);
#124=EDGE_LOOP('',(#252,#253,#254,#255,#256,#257,#258,#259,#260,#261,#262));
#125=EDGE_LOOP('',(#263));
#126=EDGE_LOOP('',(#264,#265,#266,#267,#268,#269,#270,#271));
#127=EDGE_LOOP('',(#272,#273,#274,#275));
#128=EDGE_LOOP('',(#276,#277,#278,#279,#280));
#129=EDGE_LOOP('',(#281,#282,#283,#284,#285,#286,#287));
#130=EDGE_LOOP('',(#288));
#131=EDGE_LOOP('',(#289));
#132=EDGE_LOOP('',(#290));
#133=EDGE_LOOP('',(#291,#292,#293,#294));
#134=EDGE_LOOP('',(#295,#296,#297,#298,#299,#300,#301));
#135=EDGE_LOOP('',(#302,#303,#304,#305,#306,#307));
#136=EDGE_LOOP('',(#308,#309,#310,#311,#312,#313,#314));
#137=EDGE_LOOP('',(#315,#316,#317,#318));
#138=EDGE_LOOP('',(#319,#320,#321,#322));
#139=EDGE_LOOP('',(#323,#324,#325,#326));
#140=EDGE_LOOP('',(#327,#328,#329,#330,#331,#332,#333,#334));
#141=EDGE_LOOP('',(#335,#336,#337,#338));
#142=EDGE_LOOP('',(#339,#340,#341,#342));
#143=EDGE_LOOP('',(#343,#344,#345,#346));
#144=EDGE_LOOP('',(#347,#348,#349,#350));
#145=EDGE_LOOP('',(#351,#352,#353,#354));
#146=EDGE_LOOP('',(#355,#356,#357,#358));
#147=EDGE_LOOP('',(#359,#360,#361,#362));
#148=EDGE_LOOP('',(#363));
#149=EDGE_LOOP('',(#364,#365,#366,#367,#368));
#150=EDGE_LOOP('',(#369,#370,#371,#372));
#151=EDGE_LOOP('',(#373));
#152=EDGE_LOOP('',(#374));
#153=EDGE_LOOP('',(#375));
#154=EDGE_LOOP('',(#376,#377));
#155=EDGE_LOOP('',(#378));
#156=EDGE_LOOP('',(#379));
#157=EDGE_LOOP('',(#380));
#158=EDGE_LOOP('',(#381,#382));
#159=EDGE_LOOP('',(#383));
#160=LINE('',#705,#206);
#161=LINE('',#707,#207);
#162=LINE('',#711,#208);
#163=LINE('',#713,#209);
#164=LINE('',#715,#210);
#165=LINE('',#719,#211);
#166=LINE('',#721,#212);
#167=LINE('',#723,#213);
#168=LINE('',#726,#214);
#169=LINE('',#731,#215);
#170=LINE('',#735,#216);
#171=LINE('',#739,#217);
#172=LINE('',#743,#218);
#173=LINE('',#746,#219);
#174=LINE('',#748,#220);
#175=LINE('',#750,#221);
#176=LINE('',#752,#222);
#177=LINE('',#754,#223);
#178=LINE('',#756,#224);
#179=LINE('',#758,#225);
#180=LINE('',#760,#226);
#181=LINE('',#762,#227);
#182=LINE('',#764,#228);
#183=LINE('',#766,#229);
#184=LINE('',#767,#230);
#185=LINE('',#775,#231);
#186=LINE('',#777,#232);
#187=LINE('',#779,#233);
#188=LINE('',#780,#234);
#189=LINE('',#783,#235);
#190=LINE('',#787,#236);
#191=LINE('',#789,#237);
#192=LINE('',#791,#238);
#193=LINE('',#793,#239);
#194=LINE('',#796,#240);
#195=LINE('',#797,#241);
#196=LINE('',#799,#242);
#197=LINE('',#801,#243);
#198=LINE('',#803,#244);
#199=LINE('',#807,#245);
#200=LINE('',#813,#246);
#201=LINE('',#814,#247);
#202=LINE('',#820,#248);
#203=LINE('',#822,#249);
#204=LINE('',#824,#250);
#205=LINE('',#826,#251);
#206=VECTOR('',#565,1.);
#207=VECTOR('',#566,1.);
#208=VECTOR('',#569,1.);
#209=VECTOR('',#570,1.);
#210=VECTOR('',#571,1.);
#211=VECTOR('',#574,1.);
#212=VECTOR('',#575,1.);
#213=VECTOR('',#576,1.);
#214=VECTOR('',#579,1.);
#215=VECTOR('',#582,1.);
#216=VECTOR('',#585,1.);
#217=VECTOR('',#588,1.);
#218=VECTOR('',#593,1.);
#219=VECTOR('',#594,1.);
#220=VECTOR('',#595,1.);
#221=VECTOR('',#596,1.);
#222=VECTOR('',#599,1.);
#223=VECTOR('',#600,1.);
#224=VECTOR('',#601,1.);
#225=VECTOR('',#602,1.);
#226=VECTOR('',#605,1.);
#227=VECTOR('',#606,1.);
#228=VECTOR('',#607,1.);
#229=VECTOR('',#608,1.);
#230=VECTOR('',#609,1.);
#231=VECTOR('',#618,1.);
#232=VECTOR('',#621,1.);
#233=VECTOR('',#622,1.);
#234=VECTOR('',#623,1.);
#235=VECTOR('',#628,1.);
#236=VECTOR('',#635,1.);
#237=VECTOR('',#636,1.);
#238=VECTOR('',#637,1.);
#239=VECTOR('',#640,1.);
#240=VECTOR('',#641,1.);
#241=VECTOR('',#642,1.);
#242=VECTOR('',#645,1.);
#243=VECTOR('',#646,1.);
#244=VECTOR('',#647,1.);
#245=VECTOR('',#652,1.);
#246=VECTOR('',#661,1.);
#247=VECTOR('',#662,1.);
#248=VECTOR('',#673,1.);
#249=VECTOR('',#674,1.);
#250=VECTOR('',#677,1.);
#251=VECTOR('',#678,1.);
#252=ORIENTED_EDGE('',*,*,#430,.F.);
#253=ORIENTED_EDGE('',*,*,#431,.T.);
#254=ORIENTED_EDGE('',*,*,#432,.T.);
#255=ORIENTED_EDGE('',*,*,#433,.F.);
#256=ORIENTED_EDGE('',*,*,#434,.T.);
#257=ORIENTED_EDGE('',*,*,#435,.F.);
#258=ORIENTED_EDGE('',*,*,#436,.F.);
#259=ORIENTED_EDGE('',*,*,#437,.T.);
#260=ORIENTED_EDGE('',*,*,#438,.F.);
#261=ORIENTED_EDGE('',*,*,#439,.F.);
#262=ORIENTED_EDGE('',*,*,#440,.T.);
#263=ORIENTED_EDGE('',*,*,#441,.F.);
#264=ORIENTED_EDGE('',*,*,#442,.F.);
#265=ORIENTED_EDGE('',*,*,#443,.T.);
#266=ORIENTED_EDGE('',*,*,#444,.F.);
#267=ORIENTED_EDGE('',*,*,#445,.T.);
#268=ORIENTED_EDGE('',*,*,#446,.F.);
#269=ORIENTED_EDGE('',*,*,#447,.T.);
#270=ORIENTED_EDGE('',*,*,#448,.F.);
#271=ORIENTED_EDGE('',*,*,#449,.T.);
#272=ORIENTED_EDGE('',*,*,#450,.T.);
#273=ORIENTED_EDGE('',*,*,#451,.T.);
#274=ORIENTED_EDGE('',*,*,#452,.F.);
#275=ORIENTED_EDGE('',*,*,#453,.T.);
#276=ORIENTED_EDGE('',*,*,#452,.T.);
#277=ORIENTED_EDGE('',*,*,#454,.T.);
#278=ORIENTED_EDGE('',*,*,#455,.T.);
#279=ORIENTED_EDGE('',*,*,#456,.F.);
#280=ORIENTED_EDGE('',*,*,#457,.T.);
#281=ORIENTED_EDGE('',*,*,#458,.F.);
#282=ORIENTED_EDGE('',*,*,#459,.F.);
#283=ORIENTED_EDGE('',*,*,#460,.F.);
#284=ORIENTED_EDGE('',*,*,#461,.T.);
#285=ORIENTED_EDGE('',*,*,#456,.T.);
#286=ORIENTED_EDGE('',*,*,#462,.T.);
#287=ORIENTED_EDGE('',*,*,#439,.T.);
#288=ORIENTED_EDGE('',*,*,#463,.F.);
#289=ORIENTED_EDGE('',*,*,#464,.F.);
#290=ORIENTED_EDGE('',*,*,#465,.F.);
#291=ORIENTED_EDGE('',*,*,#466,.F.);
#292=ORIENTED_EDGE('',*,*,#453,.F.);
#293=ORIENTED_EDGE('',*,*,#457,.F.);
#294=ORIENTED_EDGE('',*,*,#461,.F.);
#295=ORIENTED_EDGE('',*,*,#467,.T.);
#296=ORIENTED_EDGE('',*,*,#435,.T.);
#297=ORIENTED_EDGE('',*,*,#468,.T.);
#298=ORIENTED_EDGE('',*,*,#450,.F.);
#299=ORIENTED_EDGE('',*,*,#466,.T.);
#300=ORIENTED_EDGE('',*,*,#460,.T.);
#301=ORIENTED_EDGE('',*,*,#469,.F.);
#302=ORIENTED_EDGE('',*,*,#470,.F.);
#303=ORIENTED_EDGE('',*,*,#440,.F.);
#304=ORIENTED_EDGE('',*,*,#462,.F.);
#305=ORIENTED_EDGE('',*,*,#455,.F.);
#306=ORIENTED_EDGE('',*,*,#471,.T.);
#307=ORIENTED_EDGE('',*,*,#431,.F.);
#308=ORIENTED_EDGE('',*,*,#472,.F.);
#309=ORIENTED_EDGE('',*,*,#432,.F.);
#310=ORIENTED_EDGE('',*,*,#471,.F.);
#311=ORIENTED_EDGE('',*,*,#454,.F.);
#312=ORIENTED_EDGE('',*,*,#451,.F.);
#313=ORIENTED_EDGE('',*,*,#468,.F.);
#314=ORIENTED_EDGE('',*,*,#434,.F.);
#315=ORIENTED_EDGE('',*,*,#442,.T.);
#316=ORIENTED_EDGE('',*,*,#473,.T.);
#317=ORIENTED_EDGE('',*,*,#474,.T.);
#318=ORIENTED_EDGE('',*,*,#475,.T.);
#319=ORIENTED_EDGE('',*,*,#476,.T.);
#320=ORIENTED_EDGE('',*,*,#477,.T.);
#321=ORIENTED_EDGE('',*,*,#444,.T.);
#322=ORIENTED_EDGE('',*,*,#478,.T.);
#323=ORIENTED_EDGE('',*,*,#446,.T.);
#324=ORIENTED_EDGE('',*,*,#479,.T.);
#325=ORIENTED_EDGE('',*,*,#480,.T.);
#326=ORIENTED_EDGE('',*,*,#481,.T.);
#327=ORIENTED_EDGE('',*,*,#474,.F.);
#328=ORIENTED_EDGE('',*,*,#482,.T.);
#329=ORIENTED_EDGE('',*,*,#483,.F.);
#330=ORIENTED_EDGE('',*,*,#484,.T.);
#331=ORIENTED_EDGE('',*,*,#480,.F.);
#332=ORIENTED_EDGE('',*,*,#485,.T.);
#333=ORIENTED_EDGE('',*,*,#476,.F.);
#334=ORIENTED_EDGE('',*,*,#486,.T.);
#335=ORIENTED_EDGE('',*,*,#483,.T.);
#336=ORIENTED_EDGE('',*,*,#487,.T.);
#337=ORIENTED_EDGE('',*,*,#448,.T.);
#338=ORIENTED_EDGE('',*,*,#488,.T.);
#339=ORIENTED_EDGE('',*,*,#449,.F.);
#340=ORIENTED_EDGE('',*,*,#487,.F.);
#341=ORIENTED_EDGE('',*,*,#482,.F.);
#342=ORIENTED_EDGE('',*,*,#473,.F.);
#343=ORIENTED_EDGE('',*,*,#445,.F.);
#344=ORIENTED_EDGE('',*,*,#477,.F.);
#345=ORIENTED_EDGE('',*,*,#485,.F.);
#346=ORIENTED_EDGE('',*,*,#479,.F.);
#347=ORIENTED_EDGE('',*,*,#447,.F.);
#348=ORIENTED_EDGE('',*,*,#481,.F.);
#349=ORIENTED_EDGE('',*,*,#484,.F.);
#350=ORIENTED_EDGE('',*,*,#488,.F.);
#351=ORIENTED_EDGE('',*,*,#443,.F.);
#352=ORIENTED_EDGE('',*,*,#475,.F.);
#353=ORIENTED_EDGE('',*,*,#486,.F.);
#354=ORIENTED_EDGE('',*,*,#478,.F.);
#355=ORIENTED_EDGE('',*,*,#489,.T.);
#356=ORIENTED_EDGE('',*,*,#490,.T.);
#357=ORIENTED_EDGE('',*,*,#436,.T.);
#358=ORIENTED_EDGE('',*,*,#467,.F.);
#359=ORIENTED_EDGE('',*,*,#438,.T.);
#360=ORIENTED_EDGE('',*,*,#491,.T.);
#361=ORIENTED_EDGE('',*,*,#492,.T.);
#362=ORIENTED_EDGE('',*,*,#458,.T.);
#363=ORIENTED_EDGE('',*,*,#493,.T.);
#364=ORIENTED_EDGE('',*,*,#492,.F.);
#365=ORIENTED_EDGE('',*,*,#494,.T.);
#366=ORIENTED_EDGE('',*,*,#489,.F.);
#367=ORIENTED_EDGE('',*,*,#469,.T.);
#368=ORIENTED_EDGE('',*,*,#459,.T.);
#369=ORIENTED_EDGE('',*,*,#437,.F.);
#370=ORIENTED_EDGE('',*,*,#490,.F.);
#371=ORIENTED_EDGE('',*,*,#494,.F.);
#372=ORIENTED_EDGE('',*,*,#491,.F.);
#373=ORIENTED_EDGE('',*,*,#441,.T.);
#374=ORIENTED_EDGE('',*,*,#465,.T.);
#375=ORIENTED_EDGE('',*,*,#464,.T.);
#376=ORIENTED_EDGE('',*,*,#433,.T.);
#377=ORIENTED_EDGE('',*,*,#472,.T.);
#378=ORIENTED_EDGE('',*,*,#463,.T.);
#379=ORIENTED_EDGE('',*,*,#493,.F.);
#380=ORIENTED_EDGE('',*,*,#495,.F.);
#381=ORIENTED_EDGE('',*,*,#430,.T.);
#382=ORIENTED_EDGE('',*,*,#470,.T.);
#383=ORIENTED_EDGE('',*,*,#495,.T.);
#384=VERTEX_POINT('',#703);
#385=VERTEX_POINT('',#704);
#386=VERTEX_POINT('',#706);
#387=VERTEX_POINT('',#708);
#388=VERTEX_POINT('',#710);
#389=VERTEX_POINT('',#712);
#390=VERTEX_POINT('',#714);
#391=VERTEX_POINT('',#716);
#392=VERTEX_POINT('',#718);
#393=VERTEX_POINT('',#720);
#394=VERTEX_POINT('',#722);
#395=VERTEX_POINT('',#725);
#396=VERTEX_POINT('',#727);
#397=VERTEX_POINT('',#728);
#398=VERTEX_POINT('',#730);
#399=VERTEX_POINT('',#732);
#400=VERTEX_POINT('',#734);
#401=VERTEX_POINT('',#736);
#402=VERTEX_POINT('',#738);
#403=VERTEX_POINT('',#740);
#404=VERTEX_POINT('',#744);
#405=VERTEX_POINT('',#745);
#406=VERTEX_POINT('',#747);
#407=VERTEX_POINT('',#749);
#408=VERTEX_POINT('',#753);
#409=VERTEX_POINT('',#755);
#410=VERTEX_POINT('',#757);
#411=VERTEX_POINT('',#761);
#412=VERTEX_POINT('',#763);
#413=VERTEX_POINT('',#765);
#414=VERTEX_POINT('',#770);
#415=VERTEX_POINT('',#772);
#416=VERTEX_POINT('',#774);
#417=VERTEX_POINT('',#778);
#418=VERTEX_POINT('',#788);
#419=VERTEX_POINT('',#790);
#420=VERTEX_POINT('',#794);
#421=VERTEX_POINT('',#795);
#422=VERTEX_POINT('',#800);
#423=VERTEX_POINT('',#802);
#424=VERTEX_POINT('',#806);
#425=VERTEX_POINT('',#808);
#426=VERTEX_POINT('',#821);
#427=VERTEX_POINT('',#825);
#428=VERTEX_POINT('',#829);
#429=VERTEX_POINT('',#837);
#430=EDGE_CURVE('',#384,#385,#496,.T.);
#431=EDGE_CURVE('',#384,#386,#160,.T.);
#432=EDGE_CURVE('',#386,#387,#161,.T.);
#433=EDGE_CURVE('',#388,#387,#497,.T.);
#434=EDGE_CURVE('',#388,#389,#162,.T.);
#435=EDGE_CURVE('',#390,#389,#163,.T.);
#436=EDGE_CURVE('',#391,#390,#164,.T.);
#437=EDGE_CURVE('',#391,#392,#498,.T.);
#438=EDGE_CURVE('',#393,#392,#165,.T.);
#439=EDGE_CURVE('',#394,#393,#166,.T.);
#440=EDGE_CURVE('',#394,#385,#167,.T.);
#441=EDGE_CURVE('',#395,#395,#499,.T.);
#442=EDGE_CURVE('',#396,#397,#168,.T.);
#443=EDGE_CURVE('',#396,#398,#500,.T.);
#444=EDGE_CURVE('',#399,#398,#169,.T.);
#445=EDGE_CURVE('',#399,#400,#501,.T.);
#446=EDGE_CURVE('',#401,#400,#170,.T.);
#447=EDGE_CURVE('',#401,#402,#502,.T.);
#448=EDGE_CURVE('',#403,#402,#171,.T.);
#449=EDGE_CURVE('',#403,#397,#503,.T.);
#450=EDGE_CURVE('',#404,#405,#172,.T.);
#451=EDGE_CURVE('',#405,#406,#173,.T.);
#452=EDGE_CURVE('',#407,#406,#174,.T.);
#453=EDGE_CURVE('',#407,#404,#175,.T.);
#454=EDGE_CURVE('',#406,#408,#176,.T.);
#455=EDGE_CURVE('',#408,#409,#177,.T.);
#456=EDGE_CURVE('',#410,#409,#178,.T.);
#457=EDGE_CURVE('',#410,#407,#179,.T.);
#458=EDGE_CURVE('',#411,#393,#180,.T.);
#459=EDGE_CURVE('',#412,#411,#181,.T.);
#460=EDGE_CURVE('',#413,#412,#182,.T.);
#461=EDGE_CURVE('',#413,#410,#183,.T.);
#462=EDGE_CURVE('',#409,#394,#184,.T.);
#463=EDGE_CURVE('',#414,#414,#504,.T.);
#464=EDGE_CURVE('',#415,#415,#505,.T.);
#465=EDGE_CURVE('',#416,#416,#506,.T.);
#466=EDGE_CURVE('',#404,#413,#185,.T.);
#467=EDGE_CURVE('',#417,#390,#186,.T.);
#468=EDGE_CURVE('',#389,#405,#187,.T.);
#469=EDGE_CURVE('',#417,#412,#188,.T.);
#470=EDGE_CURVE('',#385,#384,#43,.T.);
#471=EDGE_CURVE('',#408,#386,#189,.T.);
#472=EDGE_CURVE('',#387,#388,#44,.T.);
#473=EDGE_CURVE('',#397,#418,#190,.T.);
#474=EDGE_CURVE('',#418,#419,#191,.T.);
#475=EDGE_CURVE('',#419,#396,#192,.T.);
#476=EDGE_CURVE('',#420,#421,#193,.T.);
#477=EDGE_CURVE('',#421,#399,#194,.T.);
#478=EDGE_CURVE('',#398,#420,#195,.T.);
#479=EDGE_CURVE('',#400,#422,#196,.T.);
#480=EDGE_CURVE('',#422,#423,#197,.T.);
#481=EDGE_CURVE('',#423,#401,#198,.T.);
#482=EDGE_CURVE('',#418,#424,#507,.T.);
#483=EDGE_CURVE('',#425,#424,#199,.T.);
#484=EDGE_CURVE('',#425,#423,#508,.T.);
#485=EDGE_CURVE('',#422,#421,#509,.T.);
#486=EDGE_CURVE('',#420,#419,#510,.T.);
#487=EDGE_CURVE('',#424,#403,#200,.T.);
#488=EDGE_CURVE('',#402,#425,#201,.T.);
#489=EDGE_CURVE('',#417,#426,#202,.T.);
#490=EDGE_CURVE('',#426,#391,#203,.T.);
#491=EDGE_CURVE('',#392,#427,#204,.T.);
#492=EDGE_CURVE('',#427,#411,#205,.T.);
#493=EDGE_CURVE('',#428,#428,#511,.T.);
#494=EDGE_CURVE('',#427,#426,#512,.T.);
#495=EDGE_CURVE('',#429,#429,#513,.T.);
#496=CIRCLE('',#515,9.15);
#497=CIRCLE('',#516,12.25);
#498=CIRCLE('',#517,11.9);
#499=CIRCLE('',#518,14.5);
#500=CIRCLE('',#519,12.);
#501=CIRCLE('',#520,12.);
#502=CIRCLE('',#521,12.);
#503=CIRCLE('',#522,12.);
#504=CIRCLE('',#527,14.5);
#505=CIRCLE('',#528,12.25);
#506=CIRCLE('',#529,14.5);
#507=CIRCLE('',#539,12.);
#508=CIRCLE('',#540,12.);
#509=CIRCLE('',#541,12.);
#510=CIRCLE('',#542,12.);
#511=CIRCLE('',#551,14.5);
#512=CIRCLE('',#552,11.9);
#513=CIRCLE('',#558,9.15);
#514=AXIS2_PLACEMENT_3D('',#701,#561,#562);
#515=AXIS2_PLACEMENT_3D('',#702,#563,#564);
#516=AXIS2_PLACEMENT_3D('',#709,#567,#568);
#517=AXIS2_PLACEMENT_3D('',#717,#572,#573);
#518=AXIS2_PLACEMENT_3D('',#724,#577,#578);
#519=AXIS2_PLACEMENT_3D('',#729,#580,#581);
#520=AXIS2_PLACEMENT_3D('',#733,#583,#584);
#521=AXIS2_PLACEMENT_3D('',#737,#586,#587);
#522=AXIS2_PLACEMENT_3D('',#741,#589,#590);
#523=AXIS2_PLACEMENT_3D('',#742,#591,#592);
#524=AXIS2_PLACEMENT_3D('',#751,#597,#598);
#525=AXIS2_PLACEMENT_3D('',#759,#603,#604);
#526=AXIS2_PLACEMENT_3D('',#768,#610,#611);
#527=AXIS2_PLACEMENT_3D('',#769,#612,#613);
#528=AXIS2_PLACEMENT_3D('',#771,#614,#615);
#529=AXIS2_PLACEMENT_3D('',#773,#616,#617);
#530=AXIS2_PLACEMENT_3D('',#776,#619,#620);
#531=AXIS2_PLACEMENT_3D('',#781,#624,#625);
#532=AXIS2_PLACEMENT_3D('',#782,#626,#627);
#533=AXIS2_PLACEMENT_3D('',#784,#629,#630);
#534=AXIS2_PLACEMENT_3D('',#785,#631,#632);
#535=AXIS2_PLACEMENT_3D('',#786,#633,#634);
#536=AXIS2_PLACEMENT_3D('',#792,#638,#639);
#537=AXIS2_PLACEMENT_3D('',#798,#643,#644);
#538=AXIS2_PLACEMENT_3D('',#804,#648,#649);
#539=AXIS2_PLACEMENT_3D('',#805,#650,#651);
#540=AXIS2_PLACEMENT_3D('',#809,#653,#654);
#541=AXIS2_PLACEMENT_3D('',#810,#655,#656);
#542=AXIS2_PLACEMENT_3D('',#811,#657,#658);
#543=AXIS2_PLACEMENT_3D('',#812,#659,#660);
#544=AXIS2_PLACEMENT_3D('',#815,#663,#664);
#545=AXIS2_PLACEMENT_3D('',#816,#665,#666);
#546=AXIS2_PLACEMENT_3D('',#817,#667,#668);
#547=AXIS2_PLACEMENT_3D('',#818,#669,#670);
#548=AXIS2_PLACEMENT_3D('',#819,#671,#672);
#549=AXIS2_PLACEMENT_3D('',#823,#675,#676);
#550=AXIS2_PLACEMENT_3D('',#827,#679,#680);
#551=AXIS2_PLACEMENT_3D('',#828,#681,#682);
#552=AXIS2_PLACEMENT_3D('',#830,#683,#684);
#553=AXIS2_PLACEMENT_3D('',#831,#685,#686);
#554=AXIS2_PLACEMENT_3D('',#832,#687,#688);
#555=AXIS2_PLACEMENT_3D('',#833,#689,#690);
#556=AXIS2_PLACEMENT_3D('',#834,#691,#692);
#557=AXIS2_PLACEMENT_3D('',#835,#693,#694);
#558=AXIS2_PLACEMENT_3D('',#836,#695,#696);
#559=AXIS2_PLACEMENT_3D('',#838,#697,#698);
#560=AXIS2_PLACEMENT_3D('',#839,#699,#700);
#561=DIRECTION('',(0.,0.,1.));
#562=DIRECTION('',(1.,0.,0.));
#563=DIRECTION('',(0.,0.,1.));
#564=DIRECTION('',(1.,0.,0.));
#565=DIRECTION('',(0.,-1.,0.));
#566=DIRECTION('',(1.,0.,0.));
#567=DIRECTION('',(0.,0.,1.));
#568=DIRECTION('',(1.,0.,0.));
#569=DIRECTION('',(1.,0.,0.));
#570=DIRECTION('',(0.,-1.,0.));
#571=DIRECTION('',(1.,0.,0.));
#572=DIRECTION('',(0.,0.,-1.));
#573=DIRECTION('',(0.999999999999999,0.,0.));
#574=DIRECTION('',(0.,-1.,0.));
#575=DIRECTION('',(1.,0.,0.));
#576=DIRECTION('',(0.,-1.,0.));
#577=DIRECTION('',(0.,0.,1.));
#578=DIRECTION('',(1.,0.,0.));
#579=DIRECTION('',(1.,0.,0.));
#580=DIRECTION('',(0.,0.,-1.));
#581=DIRECTION('',(1.,0.,0.));
#582=DIRECTION('',(0.,-1.,0.));
#583=DIRECTION('',(0.,0.,-1.));
#584=DIRECTION('',(1.,0.,0.));
#585=DIRECTION('',(-1.,0.,0.));
#586=DIRECTION('',(0.,0.,-1.));
#587=DIRECTION('',(1.,0.,0.));
#588=DIRECTION('',(0.,1.,0.));
#589=DIRECTION('',(0.,0.,-1.));
#590=DIRECTION('',(1.,0.,0.));
#591=DIRECTION('',(0.,0.,1.));
#592=DIRECTION('',(1.,0.,0.));
#593=DIRECTION('',(0.,0.,1.));
#594=DIRECTION('',(-1.,0.,0.));
#595=DIRECTION('',(0.,0.,1.));
#596=DIRECTION('',(1.,0.,0.));
#597=DIRECTION('',(0.,-1.,0.));
#598=DIRECTION('',(0.,0.,-1.));
#599=DIRECTION('',(0.,0.707106781186548,0.707106781186548));
#600=DIRECTION('',(0.,1.,0.));
#601=DIRECTION('',(0.,0.,1.));
#602=DIRECTION('',(0.,-1.,0.));
#603=DIRECTION('',(-1.,0.,0.));
#604=DIRECTION('',(0.,0.,1.));
#605=DIRECTION('',(0.,0.,1.));
#606=DIRECTION('',(-1.,0.,0.));
#607=DIRECTION('',(0.,0.,1.));
#608=DIRECTION('',(-1.,0.,0.));
#609=DIRECTION('',(0.707106781186547,0.,0.707106781186548));
#610=DIRECTION('',(0.,1.,0.));
#611=DIRECTION('',(0.,0.,1.));
#612=DIRECTION('',(0.,0.,-1.));
#613=DIRECTION('',(-1.,0.,0.));
#614=DIRECTION('',(0.,0.,-1.));
#615=DIRECTION('',(-1.,0.,0.));
#616=DIRECTION('',(0.,0.,-1.));
#617=DIRECTION('',(-1.,0.,0.));
#618=DIRECTION('',(0.,1.,0.));
#619=DIRECTION('',(0.,0.,-1.));
#620=DIRECTION('',(-1.,0.,0.));
#621=DIRECTION('',(0.,0.,1.));
#622=DIRECTION('',(0.,-0.707106781186548,-0.707106781186548));
#623=DIRECTION('',(0.,1.,0.));
#624=DIRECTION('',(1.,0.,0.));
#625=DIRECTION('',(0.,0.,-1.));
#626=DIRECTION('',(-0.707106781186548,0.,0.707106781186547));
#627=DIRECTION('',(-0.707106781186547,0.,-0.707106781186548));
#628=DIRECTION('',(0.577350269189626,0.577350269189626,0.577350269189626));
#629=DIRECTION('',(0.707106781186548,0.,-0.707106781186547));
#630=DIRECTION('',(0.,1.,0.));
#631=DIRECTION('',(0.,-0.707106781186548,0.707106781186548));
#632=DIRECTION('',(0.,-0.707106781186548,-0.707106781186548));
#633=DIRECTION('',(0.,0.707106781186547,-0.707106781186547));
#634=DIRECTION('',(-1.,0.,0.));
#635=DIRECTION('',(0.,0.,-1.));
#636=DIRECTION('',(-1.,0.,0.));
#637=DIRECTION('',(0.,0.,1.));
#638=DIRECTION('',(0.,-1.,0.));
#639=DIRECTION('',(0.,0.,-1.));
#640=DIRECTION('',(0.,1.,0.));
#641=DIRECTION('',(0.,0.,1.));
#642=DIRECTION('',(0.,0.,-1.));
#643=DIRECTION('',(-1.,0.,0.));
#644=DIRECTION('',(0.,0.,1.));
#645=DIRECTION('',(0.,0.,-1.));
#646=DIRECTION('',(1.,0.,0.));
#647=DIRECTION('',(0.,0.,1.));
#648=DIRECTION('',(0.,1.,0.));
#649=DIRECTION('',(0.,0.,1.));
#650=DIRECTION('',(0.,0.,1.));
#651=DIRECTION('',(-1.,0.,0.));
#652=DIRECTION('',(0.,-1.,0.));
#653=DIRECTION('',(0.,0.,1.));
#654=DIRECTION('',(-1.,0.,0.));
#655=DIRECTION('',(0.,0.,1.));
#656=DIRECTION('',(-1.,0.,0.));
#657=DIRECTION('',(0.,0.,1.));
#658=DIRECTION('',(-1.,0.,0.));
#659=DIRECTION('',(0.,0.,-1.));
#660=DIRECTION('',(-1.,0.,0.));
#661=DIRECTION('',(0.,0.,1.));
#662=DIRECTION('',(0.,0.,-1.));
#663=DIRECTION('',(1.,0.,0.));
#664=DIRECTION('',(0.,0.,-1.));
#665=DIRECTION('',(0.,0.,1.));
#666=DIRECTION('',(1.,0.,0.));
#667=DIRECTION('',(0.,0.,1.));
#668=DIRECTION('',(1.,0.,0.));
#669=DIRECTION('',(0.,0.,1.));
#670=DIRECTION('',(1.,0.,0.));
#671=DIRECTION('',(0.,0.,1.));
#672=DIRECTION('',(1.,0.,0.));
#673=DIRECTION('',(-1.,0.,0.));
#674=DIRECTION('',(0.,0.,1.));
#675=DIRECTION('',(0.,-1.,0.));
#676=DIRECTION('',(0.,0.,-1.));
#677=DIRECTION('',(0.,0.,-1.));
#678=DIRECTION('',(0.,1.,0.));
#679=DIRECTION('',(-1.,0.,0.));
#680=DIRECTION('',(0.,0.,1.));
#681=DIRECTION('',(0.,0.,-1.));
#682=DIRECTION('',(-1.,0.,0.));
#683=DIRECTION('',(0.,0.,1.));
#684=DIRECTION('',(-0.999999999999999,0.,0.));
#685=DIRECTION('',(0.,0.,-1.));
#686=DIRECTION('',(-1.,0.,0.));
#687=DIRECTION('',(0.,0.,1.));
#688=DIRECTION('',(0.999999999999999,0.,0.));
#689=DIRECTION('',(0.,0.,-1.));
#690=DIRECTION('',(1.,0.,0.));
#691=DIRECTION('',(0.,0.,-1.));
#692=DIRECTION('',(1.,0.,0.));
#693=DIRECTION('',(0.,0.,-1.));
#694=DIRECTION('',(1.,0.,0.));
#695=DIRECTION('',(0.,0.,-1.));
#696=DIRECTION('',(1.,0.,0.));
#697=DIRECTION('',(0.,0.,-1.));
#698=DIRECTION('',(-1.,0.,0.));
#699=DIRECTION('',(0.,0.,-1.));
#700=DIRECTION('',(1.,0.,0.));
#701=CARTESIAN_POINT('',(0.,0.,0.));
#702=CARTESIAN_POINT('',(13.2,252.7,139.6));
#703=CARTESIAN_POINT('',(15.,243.728796067417,139.6));
#704=CARTESIAN_POINT('',(15.,261.671203932583,139.6));
#705=CARTESIAN_POINT('',(15.,165.55,139.6));
#706=CARTESIAN_POINT('',(15.,27.4,139.6));
#707=CARTESIAN_POINT('',(141.3,27.4,139.6));
#708=CARTESIAN_POINT('',(49.9302629445004,27.4,139.6));
#709=CARTESIAN_POINT('',(62.1,28.8,139.6));
#710=CARTESIAN_POINT('',(74.2697370554996,27.4,139.6));
#711=CARTESIAN_POINT('',(141.3,27.4,139.6));
#712=CARTESIAN_POINT('',(282.6,27.4,139.6));
#713=CARTESIAN_POINT('',(282.6,165.55,139.6));
#714=CARTESIAN_POINT('',(282.6,225.1,139.6));
#715=CARTESIAN_POINT('',(141.3,225.1,139.6));
#716=CARTESIAN_POINT('',(238.6,225.1,139.6));
#717=CARTESIAN_POINT('',(238.6,237.,139.6));
#718=CARTESIAN_POINT('',(226.7,237.,139.6));
#719=CARTESIAN_POINT('',(226.7,165.55,139.6));
#720=CARTESIAN_POINT('',(226.7,331.1,139.6));
#721=CARTESIAN_POINT('',(141.3,331.1,139.6));
#722=CARTESIAN_POINT('',(15.,331.1,139.6));
#723=CARTESIAN_POINT('',(15.,165.55,139.6));
#724=CARTESIAN_POINT('',(46.6,230.4,139.6));
#725=CARTESIAN_POINT('',(61.1,230.4,139.6));
#726=CARTESIAN_POINT('',(141.3,135.5,139.6));
#727=CARTESIAN_POINT('',(79.6,135.5,139.6));
#728=CARTESIAN_POINT('',(173.7,135.5,139.6));
#729=CARTESIAN_POINT('',(79.6,147.5,139.6));
#730=CARTESIAN_POINT('',(67.6,147.5,139.6));
#731=CARTESIAN_POINT('',(67.6,165.55,139.6));
#732=CARTESIAN_POINT('',(67.6,259.4,139.6));
#733=CARTESIAN_POINT('',(79.6,259.4,139.6));
#734=CARTESIAN_POINT('',(79.6,271.4,139.6));
#735=CARTESIAN_POINT('',(141.3,271.4,139.6));
#736=CARTESIAN_POINT('',(173.7,271.4,139.6));
#737=CARTESIAN_POINT('',(173.7,259.4,139.6));
#738=CARTESIAN_POINT('',(185.7,259.4,139.6));
#739=CARTESIAN_POINT('',(185.7,165.55,139.6));
#740=CARTESIAN_POINT('',(185.7,147.5,139.6));
#741=CARTESIAN_POINT('',(173.7,147.5,139.6));
#742=CARTESIAN_POINT('',(141.3,165.55,139.6));
#743=CARTESIAN_POINT('',(282.6,0.,0.));
#744=CARTESIAN_POINT('',(282.6,0.,0.));
#745=CARTESIAN_POINT('',(282.6,0.,112.2));
#746=CARTESIAN_POINT('',(141.3,0.,112.2));
#747=CARTESIAN_POINT('',(0.,0.,112.2));
#748=CARTESIAN_POINT('',(0.,0.,0.));
#749=CARTESIAN_POINT('',(0.,0.,0.));
#750=CARTESIAN_POINT('',(141.3,0.,0.));
#751=CARTESIAN_POINT('',(141.3,0.,0.));
#752=CARTESIAN_POINT('',(0.,26.675,138.875));
#753=CARTESIAN_POINT('',(0.,12.4,124.6));
#754=CARTESIAN_POINT('',(0.,165.55,124.6));
#755=CARTESIAN_POINT('',(0.,331.1,124.6));
#756=CARTESIAN_POINT('',(0.,331.1,0.));
#757=CARTESIAN_POINT('',(0.,331.1,0.));
#758=CARTESIAN_POINT('',(0.,165.55,0.));
#759=CARTESIAN_POINT('',(0.,165.55,0.));
#760=CARTESIAN_POINT('',(226.7,331.1,115.5));
#761=CARTESIAN_POINT('',(226.7,331.1,115.5));
#762=CARTESIAN_POINT('',(254.65,331.1,115.5));
#763=CARTESIAN_POINT('',(282.6,331.1,115.5));
#764=CARTESIAN_POINT('',(282.6,331.1,0.));
#765=CARTESIAN_POINT('',(282.6,331.1,0.));
#766=CARTESIAN_POINT('',(141.3,331.1,0.));
#767=CARTESIAN_POINT('',(8.34999999999994,331.1,132.95));
#768=CARTESIAN_POINT('',(141.3,331.1,0.));
#769=CARTESIAN_POINT('',(264.1,253.5,0.));
#770=CARTESIAN_POINT('',(249.6,253.5,0.));
#771=CARTESIAN_POINT('',(62.1,28.8,0.));
#772=CARTESIAN_POINT('',(49.85,28.8,0.));
#773=CARTESIAN_POINT('',(46.6,230.4,0.));
#774=CARTESIAN_POINT('',(32.1,230.4,0.));
#775=CARTESIAN_POINT('',(282.6,165.55,0.));
#776=CARTESIAN_POINT('',(141.3,165.55,0.));
#777=CARTESIAN_POINT('',(282.6,225.1,115.5));
#778=CARTESIAN_POINT('',(282.6,225.1,115.5));
#779=CARTESIAN_POINT('',(282.6,26.675,138.875));
#780=CARTESIAN_POINT('',(282.6,278.1,115.5));
#781=CARTESIAN_POINT('',(282.6,165.55,0.));
#782=CARTESIAN_POINT('',(13.2,252.7,137.8));
#783=CARTESIAN_POINT('',(51.05,63.45,175.65));
#784=CARTESIAN_POINT('',(0.,165.55,124.6));
#785=CARTESIAN_POINT('',(62.1,28.8,141.));
#786=CARTESIAN_POINT('',(141.3,0.,112.2));
#787=CARTESIAN_POINT('',(173.7,135.5,101.7));
#788=CARTESIAN_POINT('',(173.7,135.5,101.7));
#789=CARTESIAN_POINT('',(126.65,135.5,101.7));
#790=CARTESIAN_POINT('',(79.6,135.5,101.7));
#791=CARTESIAN_POINT('',(79.6,135.5,139.6));
#792=CARTESIAN_POINT('',(126.65,135.5,101.7));
#793=CARTESIAN_POINT('',(67.6,203.45,101.7));
#794=CARTESIAN_POINT('',(67.6,147.5,101.7));
#795=CARTESIAN_POINT('',(67.6,259.4,101.7));
#796=CARTESIAN_POINT('',(67.6,259.4,139.6));
#797=CARTESIAN_POINT('',(67.6,147.5,101.7));
#798=CARTESIAN_POINT('',(67.6,203.45,101.7));
#799=CARTESIAN_POINT('',(79.6,271.4,101.7));
#800=CARTESIAN_POINT('',(79.6,271.4,101.7));
#801=CARTESIAN_POINT('',(126.65,271.4,101.7));
#802=CARTESIAN_POINT('',(173.7,271.4,101.7));
#803=CARTESIAN_POINT('',(173.7,271.4,139.6));
#804=CARTESIAN_POINT('',(126.65,271.4,101.7));
#805=CARTESIAN_POINT('',(173.7,147.5,101.7));
#806=CARTESIAN_POINT('',(185.7,147.5,101.7));
#807=CARTESIAN_POINT('',(185.7,203.45,101.7));
#808=CARTESIAN_POINT('',(185.7,259.4,101.7));
#809=CARTESIAN_POINT('',(173.7,259.4,101.7));
#810=CARTESIAN_POINT('',(79.6,259.4,101.7));
#811=CARTESIAN_POINT('',(79.6,147.5,101.7));
#812=CARTESIAN_POINT('',(126.65,203.45,101.7));
#813=CARTESIAN_POINT('',(185.7,147.5,139.6));
#814=CARTESIAN_POINT('',(185.7,259.4,101.7));
#815=CARTESIAN_POINT('',(185.7,203.45,101.7));
#816=CARTESIAN_POINT('',(173.7,147.5,101.7));
#817=CARTESIAN_POINT('',(79.6,259.4,101.7));
#818=CARTESIAN_POINT('',(173.7,259.4,101.7));
#819=CARTESIAN_POINT('',(79.6,147.5,101.7));
#820=CARTESIAN_POINT('',(254.65,225.1,115.5));
#821=CARTESIAN_POINT('',(238.6,225.1,115.5));
#822=CARTESIAN_POINT('',(238.6,225.1,139.6));
#823=CARTESIAN_POINT('',(254.65,225.1,115.5));
#824=CARTESIAN_POINT('',(226.7,237.,115.5));
#825=CARTESIAN_POINT('',(226.7,237.,115.5));
#826=CARTESIAN_POINT('',(226.7,278.1,115.5));
#827=CARTESIAN_POINT('',(226.7,278.1,115.5));
#828=CARTESIAN_POINT('',(264.1,253.5,115.5));
#829=CARTESIAN_POINT('',(249.6,253.5,115.5));
#830=CARTESIAN_POINT('',(238.6,237.,115.5));
#831=CARTESIAN_POINT('',(254.65,278.1,115.5));
#832=CARTESIAN_POINT('',(238.6,237.,115.5));
#833=CARTESIAN_POINT('',(46.6,230.4,139.65));
#834=CARTESIAN_POINT('',(62.1,28.8,139.65));
#835=CARTESIAN_POINT('',(264.1,253.5,139.65));
#836=CARTESIAN_POINT('',(13.2,252.7,105.6));
#837=CARTESIAN_POINT('',(22.35,252.7,105.6));
#838=CARTESIAN_POINT('',(13.2,252.7,105.6));
#839=CARTESIAN_POINT('',(13.2,252.7,139.65));
#840=MECHANICAL_DESIGN_GEOMETRIC_PRESENTATION_REPRESENTATION('',(#24),#841);
#841=(
GEOMETRIC_REPRESENTATION_CONTEXT(3)
GLOBAL_UNCERTAINTY_ASSIGNED_CONTEXT((#842))
GLOBAL_UNIT_ASSIGNED_CONTEXT((#848,#844,#843))
REPRESENTATION_CONTEXT('featured_part_05129','TOP_LEVEL_ASSEMBLY_PART')
);
#842=UNCERTAINTY_MEASURE_WITH_UNIT(LENGTH_MEASURE(2.E-5),#848,
'DISTANCE_ACCURACY_VALUE','Maximum Tolerance applied to model');
#843=(
NAMED_UNIT(*)
SI_UNIT($,.STERADIAN.)
SOLID_ANGLE_UNIT()
);
#844=(
CONVERSION_BASED_UNIT('DEGREE',#846)
NAMED_UNIT(#845)
PLANE_ANGLE_UNIT()
);
#845=DIMENSIONAL_EXPONENTS(0.,0.,0.,0.,0.,0.,0.);
#846=PLANE_ANGLE_MEASURE_WITH_UNIT(PLANE_ANGLE_MEASURE(0.0174532925),#847);
#847=(
NAMED_UNIT(*)
PLANE_ANGLE_UNIT()
SI_UNIT($,.RADIAN.)
);
#848=(
LENGTH_UNIT()
NAMED_UNIT(*)
SI_UNIT(.MILLI.,.METRE.)
);
ENDSEC;
END-ISO-10303-21;
