ISO-10303-21;
HEADER;
/* Generated by software containing ST-Developer
 * from STEP Tools, Inc. (www.steptools.com) 
 */
/* OPTION: using custom schema-name function */

FILE_DESCRIPTION(
/* description */ (''),
/* implementation_level */ '2;1');

FILE_NAME(
/* name */ 'featured_part_10544.stp',
/* time_stamp */ '2026-07-12T05:28:10-04:00',
/* author */ (''),
/* organization */ (''),
/* preprocessor_version */ 'ST-DEVELOPER v20.1',
/* originating_system */ 'SIEMENS PLM Software NX2512.6002',
/* authorisation */ '');

FILE_SCHEMA (('AUTOMOTIVE_DESIGN { 1 0 10303 214 3 1 1 1 }'));
ENDSEC;

DATA;
#10=SHAPE_REPRESENTATION_RELATIONSHIP('None',
'relationship between featured_part_10544-None and featured_part_10544
-None',#22,#11);
#11=ADVANCED_BREP_SHAPE_REPRESENTATION('featured_part_10544-None',(#32),
#485);
#12=SHAPE_DEFINITION_REPRESENTATION(#13,#22);
#13=PRODUCT_DEFINITION_SHAPE('','',#14);
#14=PRODUCT_DEFINITION(' ','',#16,#15);
#15=PRODUCT_DEFINITION_CONTEXT('part definition',#21,'design');
#16=PRODUCT_DEFINITION_FORMATION_WITH_SPECIFIED_SOURCE(' ',' ',#18,
 .NOT_KNOWN.);
#17=PRODUCT_RELATED_PRODUCT_CATEGORY('part','',(#18));
#18=PRODUCT('featured_part_10544','featured_part_10544',' ',(#19));
#19=PRODUCT_CONTEXT(' ',#21,'mechanical');
#20=APPLICATION_PROTOCOL_DEFINITION('international standard',
'automotive_design',2010,#21);
#21=APPLICATION_CONTEXT(
'core data for automotive mechanical design processes');
#22=SHAPE_REPRESENTATION('featured_part_10544-None',(#314),#485);
#23=PRESENTATION_LAYER_ASSIGNMENT('1','Layer 1',(#32));
#24=STYLED_ITEM('',(#25),#32);
#25=PRESENTATION_STYLE_ASSIGNMENT((#26));
#26=SURFACE_STYLE_USAGE(.BOTH.,#27);
#27=SURFACE_SIDE_STYLE('',(#28));
#28=SURFACE_STYLE_FILL_AREA(#29);
#29=FILL_AREA_STYLE('',(#30));
#30=FILL_AREA_STYLE_COLOUR('',#31);
#31=COLOUR_RGB('medium steel',0.611764705882353,0.658823529411765,0.670588235294118);
#32=MANIFOLD_SOLID_BREP('',#33);
#33=CLOSED_SHELL('',(#43,#44,#45,#46,#47,#48,#49,#50,#51,#52,#53,#54,#55,
#56,#57));
#34=CYLINDRICAL_SURFACE('',#331,9.5);
#35=FACE_BOUND('',#90,.T.);
#36=FACE_BOUND('',#91,.T.);
#37=FACE_BOUND('',#98,.T.);
#38=FACE_BOUND('',#99,.T.);
#39=FACE_BOUND('',#100,.T.);
#40=FACE_BOUND('',#101,.T.);
#41=CIRCLE('',#321,9.5);
#42=CIRCLE('',#329,9.5);
#43=ADVANCED_FACE('',(#72),#58,.T.);
#44=ADVANCED_FACE('',(#73),#59,.F.);
#45=ADVANCED_FACE('',(#74),#60,.T.);
#46=ADVANCED_FACE('',(#75),#61,.T.);
#47=ADVANCED_FACE('',(#76),#62,.T.);
#48=ADVANCED_FACE('',(#77),#63,.T.);
#49=ADVANCED_FACE('',(#35,#36),#64,.T.);
#50=ADVANCED_FACE('',(#78),#65,.T.);
#51=ADVANCED_FACE('',(#79),#66,.F.);
#52=ADVANCED_FACE('',(#80),#67,.F.);
#53=ADVANCED_FACE('',(#81),#68,.F.);
#54=ADVANCED_FACE('',(#82),#69,.F.);
#55=ADVANCED_FACE('',(#83),#70,.F.);
#56=ADVANCED_FACE('',(#37,#38),#71,.F.);
#57=ADVANCED_FACE('',(#39,#40),#34,.F.);
#58=PLANE('',#315);
#59=PLANE('',#316);
#60=PLANE('',#317);
#61=PLANE('',#318);
#62=PLANE('',#319);
#63=PLANE('',#320);
#64=PLANE('',#322);
#65=PLANE('',#323);
#66=PLANE('',#324);
#67=PLANE('',#325);
#68=PLANE('',#326);
#69=PLANE('',#327);
#70=PLANE('',#328);
#71=PLANE('',#330);
#72=FACE_OUTER_BOUND('',#84,.T.);
#73=FACE_OUTER_BOUND('',#85,.T.);
#74=FACE_OUTER_BOUND('',#86,.T.);
#75=FACE_OUTER_BOUND('',#87,.T.);
#76=FACE_OUTER_BOUND('',#88,.T.);
#77=FACE_OUTER_BOUND('',#89,.T.);
#78=FACE_OUTER_BOUND('',#92,.T.);
#79=FACE_OUTER_BOUND('',#93,.T.);
#80=FACE_OUTER_BOUND('',#94,.T.);
#81=FACE_OUTER_BOUND('',#95,.T.);
#82=FACE_OUTER_BOUND('',#96,.T.);
#83=FACE_OUTER_BOUND('',#97,.T.);
#84=EDGE_LOOP('',(#102,#103,#104,#105));
#85=EDGE_LOOP('',(#106,#107,#108,#109));
#86=EDGE_LOOP('',(#110,#111,#112,#113));
#87=EDGE_LOOP('',(#114,#115,#116,#117,#118));
#88=EDGE_LOOP('',(#119,#120,#121,#122,#123,#124,#125,#126,#127));
#89=EDGE_LOOP('',(#128,#129,#130,#131,#132,#133));
#90=EDGE_LOOP('',(#134));
#91=EDGE_LOOP('',(#135,#136,#137,#138));
#92=EDGE_LOOP('',(#139,#140,#141,#142));
#93=EDGE_LOOP('',(#143,#144,#145,#146,#147));
#94=EDGE_LOOP('',(#148,#149,#150,#151,#152,#153,#154,#155,#156));
#95=EDGE_LOOP('',(#157,#158,#159,#160));
#96=EDGE_LOOP('',(#161,#162,#163,#164,#165));
#97=EDGE_LOOP('',(#166,#167,#168,#169,#170));
#98=EDGE_LOOP('',(#171));
#99=EDGE_LOOP('',(#172,#173,#174,#175));
#100=EDGE_LOOP('',(#176));
#101=EDGE_LOOP('',(#177));
#102=ORIENTED_EDGE('',*,*,#204,.F.);
#103=ORIENTED_EDGE('',*,*,#205,.T.);
#104=ORIENTED_EDGE('',*,*,#206,.T.);
#105=ORIENTED_EDGE('',*,*,#207,.T.);
#106=ORIENTED_EDGE('',*,*,#208,.F.);
#107=ORIENTED_EDGE('',*,*,#209,.F.);
#108=ORIENTED_EDGE('',*,*,#210,.F.);
#109=ORIENTED_EDGE('',*,*,#205,.F.);
#110=ORIENTED_EDGE('',*,*,#211,.F.);
#111=ORIENTED_EDGE('',*,*,#212,.T.);
#112=ORIENTED_EDGE('',*,*,#213,.F.);
#113=ORIENTED_EDGE('',*,*,#214,.T.);
#114=ORIENTED_EDGE('',*,*,#215,.T.);
#115=ORIENTED_EDGE('',*,*,#216,.T.);
#116=ORIENTED_EDGE('',*,*,#217,.T.);
#117=ORIENTED_EDGE('',*,*,#218,.F.);
#118=ORIENTED_EDGE('',*,*,#219,.T.);
#119=ORIENTED_EDGE('',*,*,#220,.F.);
#120=ORIENTED_EDGE('',*,*,#221,.F.);
#121=ORIENTED_EDGE('',*,*,#222,.F.);
#122=ORIENTED_EDGE('',*,*,#223,.T.);
#123=ORIENTED_EDGE('',*,*,#224,.F.);
#124=ORIENTED_EDGE('',*,*,#225,.T.);
#125=ORIENTED_EDGE('',*,*,#218,.T.);
#126=ORIENTED_EDGE('',*,*,#226,.T.);
#127=ORIENTED_EDGE('',*,*,#209,.T.);
#128=ORIENTED_EDGE('',*,*,#224,.T.);
#129=ORIENTED_EDGE('',*,*,#227,.T.);
#130=ORIENTED_EDGE('',*,*,#213,.T.);
#131=ORIENTED_EDGE('',*,*,#228,.T.);
#132=ORIENTED_EDGE('',*,*,#229,.F.);
#133=ORIENTED_EDGE('',*,*,#230,.T.);
#134=ORIENTED_EDGE('',*,*,#231,.F.);
#135=ORIENTED_EDGE('',*,*,#232,.F.);
#136=ORIENTED_EDGE('',*,*,#219,.F.);
#137=ORIENTED_EDGE('',*,*,#225,.F.);
#138=ORIENTED_EDGE('',*,*,#230,.F.);
#139=ORIENTED_EDGE('',*,*,#229,.T.);
#140=ORIENTED_EDGE('',*,*,#233,.T.);
#141=ORIENTED_EDGE('',*,*,#215,.F.);
#142=ORIENTED_EDGE('',*,*,#232,.T.);
#143=ORIENTED_EDGE('',*,*,#206,.F.);
#144=ORIENTED_EDGE('',*,*,#210,.T.);
#145=ORIENTED_EDGE('',*,*,#226,.F.);
#146=ORIENTED_EDGE('',*,*,#217,.F.);
#147=ORIENTED_EDGE('',*,*,#234,.T.);
#148=ORIENTED_EDGE('',*,*,#235,.F.);
#149=ORIENTED_EDGE('',*,*,#207,.F.);
#150=ORIENTED_EDGE('',*,*,#234,.F.);
#151=ORIENTED_EDGE('',*,*,#216,.F.);
#152=ORIENTED_EDGE('',*,*,#233,.F.);
#153=ORIENTED_EDGE('',*,*,#228,.F.);
#154=ORIENTED_EDGE('',*,*,#212,.F.);
#155=ORIENTED_EDGE('',*,*,#236,.F.);
#156=ORIENTED_EDGE('',*,*,#237,.F.);
#157=ORIENTED_EDGE('',*,*,#238,.F.);
#158=ORIENTED_EDGE('',*,*,#214,.F.);
#159=ORIENTED_EDGE('',*,*,#227,.F.);
#160=ORIENTED_EDGE('',*,*,#223,.F.);
#161=ORIENTED_EDGE('',*,*,#235,.T.);
#162=ORIENTED_EDGE('',*,*,#239,.T.);
#163=ORIENTED_EDGE('',*,*,#220,.T.);
#164=ORIENTED_EDGE('',*,*,#208,.T.);
#165=ORIENTED_EDGE('',*,*,#204,.T.);
#166=ORIENTED_EDGE('',*,*,#236,.T.);
#167=ORIENTED_EDGE('',*,*,#211,.T.);
#168=ORIENTED_EDGE('',*,*,#238,.T.);
#169=ORIENTED_EDGE('',*,*,#222,.T.);
#170=ORIENTED_EDGE('',*,*,#240,.T.);
#171=ORIENTED_EDGE('',*,*,#241,.T.);
#172=ORIENTED_EDGE('',*,*,#221,.T.);
#173=ORIENTED_EDGE('',*,*,#239,.F.);
#174=ORIENTED_EDGE('',*,*,#237,.T.);
#175=ORIENTED_EDGE('',*,*,#240,.F.);
#176=ORIENTED_EDGE('',*,*,#231,.T.);
#177=ORIENTED_EDGE('',*,*,#241,.F.);
#178=VERTEX_POINT('',#406);
#179=VERTEX_POINT('',#407);
#180=VERTEX_POINT('',#409);
#181=VERTEX_POINT('',#411);
#182=VERTEX_POINT('',#415);
#183=VERTEX_POINT('',#417);
#184=VERTEX_POINT('',#421);
#185=VERTEX_POINT('',#422);
#186=VERTEX_POINT('',#424);
#187=VERTEX_POINT('',#426);
#188=VERTEX_POINT('',#430);
#189=VERTEX_POINT('',#431);
#190=VERTEX_POINT('',#433);
#191=VERTEX_POINT('',#435);
#192=VERTEX_POINT('',#437);
#193=VERTEX_POINT('',#441);
#194=VERTEX_POINT('',#443);
#195=VERTEX_POINT('',#445);
#196=VERTEX_POINT('',#447);
#197=VERTEX_POINT('',#449);
#198=VERTEX_POINT('',#455);
#199=VERTEX_POINT('',#457);
#200=VERTEX_POINT('',#461);
#201=VERTEX_POINT('',#469);
#202=VERTEX_POINT('',#471);
#203=VERTEX_POINT('',#481);
#204=EDGE_CURVE('',#178,#179,#242,.T.);
#205=EDGE_CURVE('',#178,#180,#243,.T.);
#206=EDGE_CURVE('',#180,#181,#244,.T.);
#207=EDGE_CURVE('',#181,#179,#245,.T.);
#208=EDGE_CURVE('',#182,#178,#246,.T.);
#209=EDGE_CURVE('',#183,#182,#247,.T.);
#210=EDGE_CURVE('',#180,#183,#248,.T.);
#211=EDGE_CURVE('',#184,#185,#249,.T.);
#212=EDGE_CURVE('',#184,#186,#250,.T.);
#213=EDGE_CURVE('',#187,#186,#251,.T.);
#214=EDGE_CURVE('',#187,#185,#252,.T.);
#215=EDGE_CURVE('',#188,#189,#253,.T.);
#216=EDGE_CURVE('',#189,#190,#254,.T.);
#217=EDGE_CURVE('',#190,#191,#255,.T.);
#218=EDGE_CURVE('',#192,#191,#256,.T.);
#219=EDGE_CURVE('',#192,#188,#257,.T.);
#220=EDGE_CURVE('',#193,#182,#258,.T.);
#221=EDGE_CURVE('',#194,#193,#259,.T.);
#222=EDGE_CURVE('',#195,#194,#260,.T.);
#223=EDGE_CURVE('',#195,#196,#261,.T.);
#224=EDGE_CURVE('',#197,#196,#262,.T.);
#225=EDGE_CURVE('',#197,#192,#263,.T.);
#226=EDGE_CURVE('',#191,#183,#264,.T.);
#227=EDGE_CURVE('',#196,#187,#265,.T.);
#228=EDGE_CURVE('',#186,#198,#266,.T.);
#229=EDGE_CURVE('',#199,#198,#267,.T.);
#230=EDGE_CURVE('',#199,#197,#268,.T.);
#231=EDGE_CURVE('',#200,#200,#41,.T.);
#232=EDGE_CURVE('',#188,#199,#269,.T.);
#233=EDGE_CURVE('',#198,#189,#270,.T.);
#234=EDGE_CURVE('',#190,#181,#271,.T.);
#235=EDGE_CURVE('',#179,#201,#272,.T.);
#236=EDGE_CURVE('',#202,#184,#273,.T.);
#237=EDGE_CURVE('',#201,#202,#274,.T.);
#238=EDGE_CURVE('',#185,#195,#275,.T.);
#239=EDGE_CURVE('',#201,#193,#276,.T.);
#240=EDGE_CURVE('',#194,#202,#277,.T.);
#241=EDGE_CURVE('',#203,#203,#42,.T.);
#242=LINE('',#405,#278);
#243=LINE('',#408,#279);
#244=LINE('',#410,#280);
#245=LINE('',#412,#281);
#246=LINE('',#414,#282);
#247=LINE('',#416,#283);
#248=LINE('',#418,#284);
#249=LINE('',#420,#285);
#250=LINE('',#423,#286);
#251=LINE('',#425,#287);
#252=LINE('',#427,#288);
#253=LINE('',#429,#289);
#254=LINE('',#432,#290);
#255=LINE('',#434,#291);
#256=LINE('',#436,#292);
#257=LINE('',#438,#293);
#258=LINE('',#440,#294);
#259=LINE('',#442,#295);
#260=LINE('',#444,#296);
#261=LINE('',#446,#297);
#262=LINE('',#448,#298);
#263=LINE('',#450,#299);
#264=LINE('',#451,#300);
#265=LINE('',#453,#301);
#266=LINE('',#454,#302);
#267=LINE('',#456,#303);
#268=LINE('',#458,#304);
#269=LINE('',#462,#305);
#270=LINE('',#464,#306);
#271=LINE('',#466,#307);
#272=LINE('',#468,#308);
#273=LINE('',#470,#309);
#274=LINE('',#472,#310);
#275=LINE('',#474,#311);
#276=LINE('',#476,#312);
#277=LINE('',#478,#313);
#278=VECTOR('',#334,1.);
#279=VECTOR('',#335,1.);
#280=VECTOR('',#336,1.);
#281=VECTOR('',#337,1.);
#282=VECTOR('',#340,1.);
#283=VECTOR('',#341,1.);
#284=VECTOR('',#342,1.);
#285=VECTOR('',#345,1.);
#286=VECTOR('',#346,1.);
#287=VECTOR('',#347,1.);
#288=VECTOR('',#348,1.);
#289=VECTOR('',#351,1.);
#290=VECTOR('',#352,1.);
#291=VECTOR('',#353,1.);
#292=VECTOR('',#354,1.);
#293=VECTOR('',#355,1.);
#294=VECTOR('',#358,1.);
#295=VECTOR('',#359,1.);
#296=VECTOR('',#360,1.);
#297=VECTOR('',#361,1.);
#298=VECTOR('',#362,1.);
#299=VECTOR('',#363,1.);
#300=VECTOR('',#364,1.);
#301=VECTOR('',#367,1.);
#302=VECTOR('',#368,1.);
#303=VECTOR('',#369,1.);
#304=VECTOR('',#370,1.);
#305=VECTOR('',#375,1.);
#306=VECTOR('',#378,1.);
#307=VECTOR('',#381,1.);
#308=VECTOR('',#384,1.);
#309=VECTOR('',#385,1.);
#310=VECTOR('',#386,1.);
#311=VECTOR('',#389,1.);
#312=VECTOR('',#392,1.);
#313=VECTOR('',#395,1.);
#314=AXIS2_PLACEMENT_3D('',#404,#332,#333);
#315=AXIS2_PLACEMENT_3D('',#413,#338,#339);
#316=AXIS2_PLACEMENT_3D('',#419,#343,#344);
#317=AXIS2_PLACEMENT_3D('',#428,#349,#350);
#318=AXIS2_PLACEMENT_3D('',#439,#356,#357);
#319=AXIS2_PLACEMENT_3D('',#452,#365,#366);
#320=AXIS2_PLACEMENT_3D('',#459,#371,#372);
#321=AXIS2_PLACEMENT_3D('',#460,#373,#374);
#322=AXIS2_PLACEMENT_3D('',#463,#376,#377);
#323=AXIS2_PLACEMENT_3D('',#465,#379,#380);
#324=AXIS2_PLACEMENT_3D('',#467,#382,#383);
#325=AXIS2_PLACEMENT_3D('',#473,#387,#388);
#326=AXIS2_PLACEMENT_3D('',#475,#390,#391);
#327=AXIS2_PLACEMENT_3D('',#477,#393,#394);
#328=AXIS2_PLACEMENT_3D('',#479,#396,#397);
#329=AXIS2_PLACEMENT_3D('',#480,#398,#399);
#330=AXIS2_PLACEMENT_3D('',#482,#400,#401);
#331=AXIS2_PLACEMENT_3D('',#483,#402,#403);
#332=DIRECTION('',(0.,0.,1.));
#333=DIRECTION('',(1.,0.,0.));
#334=DIRECTION('',(1.,0.,0.));
#335=DIRECTION('',(0.,-1.,0.));
#336=DIRECTION('',(1.,0.,0.));
#337=DIRECTION('',(0.,1.,0.));
#338=DIRECTION('',(0.,0.,1.));
#339=DIRECTION('',(1.,0.,0.));
#340=DIRECTION('',(0.707106781186548,0.,0.707106781186548));
#341=DIRECTION('',(0.,1.,0.));
#342=DIRECTION('',(-0.577350269189626,-0.577350269189625,-0.577350269189626));
#343=DIRECTION('',(0.707106781186547,0.,-0.707106781186547));
#344=DIRECTION('',(0.,1.,0.));
#345=DIRECTION('',(-1.,0.,0.));
#346=DIRECTION('',(0.,1.,0.));
#347=DIRECTION('',(1.,0.,0.));
#348=DIRECTION('',(0.,-1.,0.));
#349=DIRECTION('',(0.,0.,1.));
#350=DIRECTION('',(1.,0.,0.));
#351=DIRECTION('',(0.,0.,1.));
#352=DIRECTION('',(-0.707106781186548,0.,0.707106781186548));
#353=DIRECTION('',(-1.,0.,0.));
#354=DIRECTION('',(0.,0.,1.));
#355=DIRECTION('',(1.,0.,0.));
#356=DIRECTION('',(0.,-1.,0.));
#357=DIRECTION('',(0.,0.,-1.));
#358=DIRECTION('',(0.,0.,1.));
#359=DIRECTION('',(0.,-1.,0.));
#360=DIRECTION('',(0.,0.,-1.));
#361=DIRECTION('',(0.,1.,0.));
#362=DIRECTION('',(0.,0.,1.));
#363=DIRECTION('',(0.,-1.,0.));
#364=DIRECTION('',(0.,0.707106781186547,0.707106781186548));
#365=DIRECTION('',(-1.,0.,0.));
#366=DIRECTION('',(0.,0.,1.));
#367=DIRECTION('',(0.707106781186548,0.,0.707106781186548));
#368=DIRECTION('',(0.707106781186548,0.,-0.707106781186548));
#369=DIRECTION('',(0.,0.,1.));
#370=DIRECTION('',(-1.,0.,0.));
#371=DIRECTION('',(0.,1.,0.));
#372=DIRECTION('',(0.,0.,1.));
#373=DIRECTION('',(0.,0.,-1.));
#374=DIRECTION('',(-1.,0.,0.));
#375=DIRECTION('',(0.,1.,0.));
#376=DIRECTION('',(0.,0.,-1.));
#377=DIRECTION('',(-1.,0.,0.));
#378=DIRECTION('',(0.,-1.,0.));
#379=DIRECTION('',(1.,0.,0.));
#380=DIRECTION('',(0.,0.,-1.));
#381=DIRECTION('',(-0.577350269189626,0.577350269189625,0.577350269189626));
#382=DIRECTION('',(0.,0.707106781186548,-0.707106781186547));
#383=DIRECTION('',(-1.,0.,0.));
#384=DIRECTION('',(0.707106781186548,0.,-0.707106781186548));
#385=DIRECTION('',(-0.707106781186548,0.,0.707106781186548));
#386=DIRECTION('',(0.,1.,0.));
#387=DIRECTION('',(-0.707106781186548,0.,-0.707106781186548));
#388=DIRECTION('',(0.,-1.,0.));
#389=DIRECTION('',(-0.707106781186548,0.,-0.707106781186548));
#390=DIRECTION('',(0.707106781186547,0.,-0.707106781186547));
#391=DIRECTION('',(0.,1.,0.));
#392=DIRECTION('',(-1.,0.,0.));
#393=DIRECTION('',(0.,-1.,0.));
#394=DIRECTION('',(0.,0.,-1.));
#395=DIRECTION('',(1.,0.,0.));
#396=DIRECTION('',(0.,1.,0.));
#397=DIRECTION('',(0.,0.,1.));
#398=DIRECTION('',(0.,0.,-1.));
#399=DIRECTION('',(-1.,0.,0.));
#400=DIRECTION('',(0.,0.,-1.));
#401=DIRECTION('',(-1.,0.,0.));
#402=DIRECTION('',(0.,0.,-1.));
#403=DIRECTION('',(0.999999999999999,0.,0.));
#404=CARTESIAN_POINT('',(0.,0.,0.));
#405=CARTESIAN_POINT('',(102.45,81.8,68.9));
#406=CARTESIAN_POINT('',(3.8,81.8,68.9));
#407=CARTESIAN_POINT('',(193.3,81.8,68.9));
#408=CARTESIAN_POINT('',(3.8,154.8,68.9));
#409=CARTESIAN_POINT('',(3.8,10.7,68.9));
#410=CARTESIAN_POINT('',(102.45,10.7,68.9));
#411=CARTESIAN_POINT('',(193.3,10.7,68.9));
#412=CARTESIAN_POINT('',(193.3,154.8,68.9));
#413=CARTESIAN_POINT('',(102.45,154.8,68.9));
#414=CARTESIAN_POINT('',(0.,81.8,65.1));
#415=CARTESIAN_POINT('',(0.,81.8,65.1));
#416=CARTESIAN_POINT('',(0.,154.8,65.1));
#417=CARTESIAN_POINT('',(0.,6.9,65.1));
#418=CARTESIAN_POINT('',(29.55,36.45,94.65));
#419=CARTESIAN_POINT('',(0.,154.8,65.1));
#420=CARTESIAN_POINT('',(102.45,110.9,68.9));
#421=CARTESIAN_POINT('',(193.3,110.9,68.9));
#422=CARTESIAN_POINT('',(3.8,110.9,68.9));
#423=CARTESIAN_POINT('',(193.3,154.8,68.9));
#424=CARTESIAN_POINT('',(193.3,309.6,68.9));
#425=CARTESIAN_POINT('',(102.45,309.6,68.9));
#426=CARTESIAN_POINT('',(3.8,309.6,68.9));
#427=CARTESIAN_POINT('',(3.8,154.8,68.9));
#428=CARTESIAN_POINT('',(102.45,154.8,68.9));
#429=CARTESIAN_POINT('',(204.9,0.,0.));
#430=CARTESIAN_POINT('',(204.9,0.,0.));
#431=CARTESIAN_POINT('',(204.9,0.,57.3));
#432=CARTESIAN_POINT('',(182.325,0.,79.875));
#433=CARTESIAN_POINT('',(204.,0.,58.2));
#434=CARTESIAN_POINT('',(102.45,0.,58.2));
#435=CARTESIAN_POINT('',(0.,0.,58.2));
#436=CARTESIAN_POINT('',(0.,0.,0.));
#437=CARTESIAN_POINT('',(0.,0.,0.));
#438=CARTESIAN_POINT('',(102.45,0.,0.));
#439=CARTESIAN_POINT('',(102.45,0.,0.));
#440=CARTESIAN_POINT('',(0.,81.8,0.));
#441=CARTESIAN_POINT('',(0.,81.8,61.1));
#442=CARTESIAN_POINT('',(0.,154.8,61.1));
#443=CARTESIAN_POINT('',(0.,110.9,61.1));
#444=CARTESIAN_POINT('',(0.,110.9,0.));
#445=CARTESIAN_POINT('',(0.,110.9,65.1));
#446=CARTESIAN_POINT('',(0.,154.8,65.1));
#447=CARTESIAN_POINT('',(0.,309.6,65.1));
#448=CARTESIAN_POINT('',(0.,309.6,0.));
#449=CARTESIAN_POINT('',(0.,309.6,0.));
#450=CARTESIAN_POINT('',(0.,154.8,0.));
#451=CARTESIAN_POINT('',(0.,48.2999999999999,106.5));
#452=CARTESIAN_POINT('',(0.,154.8,0.));
#453=CARTESIAN_POINT('',(18.675,309.6,83.775));
#454=CARTESIAN_POINT('',(182.325,309.6,79.875));
#455=CARTESIAN_POINT('',(204.9,309.6,57.3));
#456=CARTESIAN_POINT('',(204.9,309.6,0.));
#457=CARTESIAN_POINT('',(204.9,309.6,0.));
#458=CARTESIAN_POINT('',(102.45,309.6,0.));
#459=CARTESIAN_POINT('',(102.45,309.6,0.));
#460=CARTESIAN_POINT('',(70.2,91.9,0.));
#461=CARTESIAN_POINT('',(60.7,91.9,0.));
#462=CARTESIAN_POINT('',(204.9,154.8,0.));
#463=CARTESIAN_POINT('',(102.45,154.8,0.));
#464=CARTESIAN_POINT('',(204.9,154.8,57.3));
#465=CARTESIAN_POINT('',(204.9,154.8,0.));
#466=CARTESIAN_POINT('',(170.15,33.85,92.05));
#467=CARTESIAN_POINT('',(102.45,0.,58.2));
#468=CARTESIAN_POINT('',(204.9,81.8,57.3));
#469=CARTESIAN_POINT('',(201.1,81.8,61.1));
#470=CARTESIAN_POINT('',(204.9,110.9,57.3));
#471=CARTESIAN_POINT('',(201.1,110.9,61.1));
#472=CARTESIAN_POINT('',(201.1,154.8,61.1));
#473=CARTESIAN_POINT('',(204.9,154.8,57.3));
#474=CARTESIAN_POINT('',(0.,110.9,65.1));
#475=CARTESIAN_POINT('',(0.,154.8,65.1));
#476=CARTESIAN_POINT('',(102.45,81.8,61.1));
#477=CARTESIAN_POINT('',(102.45,81.8,61.1));
#478=CARTESIAN_POINT('',(102.45,110.9,61.1));
#479=CARTESIAN_POINT('',(102.45,110.9,61.1));
#480=CARTESIAN_POINT('',(70.2,91.9,61.1));
#481=CARTESIAN_POINT('',(60.7,91.9,61.1));
#482=CARTESIAN_POINT('',(102.45,96.35,61.1));
#483=CARTESIAN_POINT('',(70.2,91.9,68.95));
#484=MECHANICAL_DESIGN_GEOMETRIC_PRESENTATION_REPRESENTATION('',(#24),#485);
#485=(
GEOMETRIC_REPRESENTATION_CONTEXT(3)
GLOBAL_UNCERTAINTY_ASSIGNED_CONTEXT((#486))
GLOBAL_UNIT_ASSIGNED_CONTEXT((#492,#488,#487))
REPRESENTATION_CONTEXT('featured_part_10544','TOP_LEVEL_ASSEMBLY_PART')
);
#486=UNCERTAINTY_MEASURE_WITH_UNIT(LENGTH_MEASURE(2.E-5),#492,
'DISTANCE_ACCURACY_VALUE','Maximum Tolerance applied to model');
#487=(
NAMED_UNIT(*)
SI_UNIT($,.STERADIAN.)
SOLID_ANGLE_UNIT()
);
#488=(
CONVERSION_BASED_UNIT('DEGREE',#490)
NAMED_UNIT(#489)
PLANE_ANGLE_UNIT()
);
#489=DIMENSIONAL_EXPONENTS(0.,0.,0.,0.,0.,0.,0.);
#490=PLANE_ANGLE_MEASURE_WITH_UNIT(PLANE_ANGLE_MEASURE(0.0174532925),#491);
#491=(
NAMED_UNIT(*)
PLANE_ANGLE_UNIT()
SI_UNIT($,.RADIAN.)
);
#492=(
LENGTH_UNIT()
NAMED_UNIT(*)
SI_UNIT(.MILLI.,.METRE.)
);
ENDSEC;
END-ISO-10303-21;
