ISO-10303-21;
HEADER;
/* Generated by software containing ST-Developer
 * from STEP Tools, Inc. (www.steptools.com) 
 */
/* OPTION: using custom schema-name function */

FILE_DESCRIPTION(
/* description */ (''),
/* implementation_level */ '2;1');

FILE_NAME(
/* name */ 'featured_part_03513.stp',
/* time_stamp */ '2026-07-06T14:52:54-04:00',
/* author */ (''),
/* organization */ (''),
/* preprocessor_version */ 'ST-DEVELOPER v20.1',
/* originating_system */ 'SIEMENS PLM Software NX2512.6002',
/* authorisation */ '');

FILE_SCHEMA (('AUTOMOTIVE_DESIGN { 1 0 10303 214 3 1 1 1 }'));
ENDSEC;

DATA;
#10=SHAPE_REPRESENTATION_RELATIONSHIP('None',
'relationship between featured_part_03513-None and featured_part_03513
-None',#22,#11);
#11=ADVANCED_BREP_SHAPE_REPRESENTATION('featured_part_03513-None',(#32),
#663);
#12=SHAPE_DEFINITION_REPRESENTATION(#13,#22);
#13=PRODUCT_DEFINITION_SHAPE('','',#14);
#14=PRODUCT_DEFINITION(' ','',#16,#15);
#15=PRODUCT_DEFINITION_CONTEXT('part definition',#21,'design');
#16=PRODUCT_DEFINITION_FORMATION_WITH_SPECIFIED_SOURCE(' ',' ',#18,
 .NOT_KNOWN.);
#17=PRODUCT_RELATED_PRODUCT_CATEGORY('part','',(#18));
#18=PRODUCT('featured_part_03513','featured_part_03513',' ',(#19));
#19=PRODUCT_CONTEXT(' ',#21,'mechanical');
#20=APPLICATION_PROTOCOL_DEFINITION('international standard',
'automotive_design',2010,#21);
#21=APPLICATION_CONTEXT(
'core data for automotive mechanical design processes');
#22=SHAPE_REPRESENTATION('featured_part_03513-None',(#407),#663);
#23=PRESENTATION_LAYER_ASSIGNMENT('1','Layer 1',(#32));
#24=STYLED_ITEM('',(#25),#32);
#25=PRESENTATION_STYLE_ASSIGNMENT((#26));
#26=SURFACE_STYLE_USAGE(.BOTH.,#27);
#27=SURFACE_SIDE_STYLE('',(#28));
#28=SURFACE_STYLE_FILL_AREA(#29);
#29=FILL_AREA_STYLE('',(#30));
#30=FILL_AREA_STYLE_COLOUR('',#31);
#31=COLOUR_RGB('medium steel',0.611764705882353,0.658823529411765,0.670588235294118);
#32=MANIFOLD_SOLID_BREP('',#33);
#33=CLOSED_SHELL('',(#65,#66,#67,#68,#69,#70,#71,#72,#73,#74,#75,#76,#77,
#78,#79,#80,#81,#82,#83,#84,#85,#86,#87));
#34=CYLINDRICAL_SURFACE('',#430,6.);
#35=CYLINDRICAL_SURFACE('',#431,6.);
#36=CYLINDRICAL_SURFACE('',#434,5.15);
#37=CYLINDRICAL_SURFACE('',#437,5.15);
#38=CYLINDRICAL_SURFACE('',#440,5.15);
#39=CYLINDRICAL_SURFACE('',#443,5.15);
#40=FACE_BOUND('',#124,.T.);
#41=FACE_BOUND('',#125,.T.);
#42=FACE_BOUND('',#126,.T.);
#43=FACE_BOUND('',#127,.T.);
#44=FACE_BOUND('',#142,.T.);
#45=FACE_BOUND('',#143,.T.);
#46=FACE_BOUND('',#145,.T.);
#47=FACE_BOUND('',#146,.T.);
#48=FACE_BOUND('',#148,.T.);
#49=FACE_BOUND('',#149,.T.);
#50=FACE_BOUND('',#151,.T.);
#51=FACE_BOUND('',#152,.T.);
#52=CIRCLE('',#409,5.15);
#53=CIRCLE('',#410,5.15);
#54=CIRCLE('',#411,5.15);
#55=CIRCLE('',#412,5.15);
#56=CIRCLE('',#413,6.);
#57=CIRCLE('',#414,6.);
#58=CIRCLE('',#425,5.15);
#59=CIRCLE('',#426,6.);
#60=CIRCLE('',#427,6.);
#61=CIRCLE('',#432,5.15);
#62=CIRCLE('',#435,5.15);
#63=CIRCLE('',#438,5.15);
#64=CIRCLE('',#441,5.15);
#65=ADVANCED_FACE('',(#105),#88,.F.);
#66=ADVANCED_FACE('',(#40,#41,#42,#43),#89,.T.);
#67=ADVANCED_FACE('',(#106),#90,.T.);
#68=ADVANCED_FACE('',(#107),#91,.T.);
#69=ADVANCED_FACE('',(#108),#92,.T.);
#70=ADVANCED_FACE('',(#109),#93,.T.);
#71=ADVANCED_FACE('',(#110),#94,.T.);
#72=ADVANCED_FACE('',(#111),#95,.F.);
#73=ADVANCED_FACE('',(#112),#96,.F.);
#74=ADVANCED_FACE('',(#113),#97,.F.);
#75=ADVANCED_FACE('',(#114),#98,.F.);
#76=ADVANCED_FACE('',(#115),#99,.F.);
#77=ADVANCED_FACE('',(#116),#100,.F.);
#78=ADVANCED_FACE('',(#117),#34,.F.);
#79=ADVANCED_FACE('',(#118),#35,.F.);
#80=ADVANCED_FACE('',(#119),#101,.F.);
#81=ADVANCED_FACE('',(#44,#45),#36,.F.);
#82=ADVANCED_FACE('',(#120),#102,.F.);
#83=ADVANCED_FACE('',(#46,#47),#37,.F.);
#84=ADVANCED_FACE('',(#121),#103,.F.);
#85=ADVANCED_FACE('',(#48,#49),#38,.F.);
#86=ADVANCED_FACE('',(#122),#104,.F.);
#87=ADVANCED_FACE('',(#50,#51),#39,.F.);
#88=PLANE('',#408);
#89=PLANE('',#415);
#90=PLANE('',#416);
#91=PLANE('',#417);
#92=PLANE('',#418);
#93=PLANE('',#419);
#94=PLANE('',#420);
#95=PLANE('',#421);
#96=PLANE('',#422);
#97=PLANE('',#423);
#98=PLANE('',#424);
#99=PLANE('',#428);
#100=PLANE('',#429);
#101=PLANE('',#433);
#102=PLANE('',#436);
#103=PLANE('',#439);
#104=PLANE('',#442);
#105=FACE_OUTER_BOUND('',#123,.T.);
#106=FACE_OUTER_BOUND('',#128,.T.);
#107=FACE_OUTER_BOUND('',#129,.T.);
#108=FACE_OUTER_BOUND('',#130,.T.);
#109=FACE_OUTER_BOUND('',#131,.T.);
#110=FACE_OUTER_BOUND('',#132,.T.);
#111=FACE_OUTER_BOUND('',#133,.T.);
#112=FACE_OUTER_BOUND('',#134,.T.);
#113=FACE_OUTER_BOUND('',#135,.T.);
#114=FACE_OUTER_BOUND('',#136,.T.);
#115=FACE_OUTER_BOUND('',#137,.T.);
#116=FACE_OUTER_BOUND('',#138,.T.);
#117=FACE_OUTER_BOUND('',#139,.T.);
#118=FACE_OUTER_BOUND('',#140,.T.);
#119=FACE_OUTER_BOUND('',#141,.T.);
#120=FACE_OUTER_BOUND('',#144,.T.);
#121=FACE_OUTER_BOUND('',#147,.T.);
#122=FACE_OUTER_BOUND('',#150,.T.);
#123=EDGE_LOOP('',(#153,#154,#155,#156));
#124=EDGE_LOOP('',(#157));
#125=EDGE_LOOP('',(#158));
#126=EDGE_LOOP('',(#159));
#127=EDGE_LOOP('',(#160,#161,#162,#163,#164,#165,#166,#167,#168,#169,#170,
#171));
#128=EDGE_LOOP('',(#172,#173,#174,#175,#176));
#129=EDGE_LOOP('',(#177,#178,#179,#180,#181,#182,#183,#184,#185));
#130=EDGE_LOOP('',(#186,#187,#188,#189,#190));
#131=EDGE_LOOP('',(#191,#192,#193,#194));
#132=EDGE_LOOP('',(#195,#196,#197,#198));
#133=EDGE_LOOP('',(#199,#200,#201,#202,#203));
#134=EDGE_LOOP('',(#204,#205,#206,#207));
#135=EDGE_LOOP('',(#208,#209,#210,#211));
#136=EDGE_LOOP('',(#212,#213,#214,#215));
#137=EDGE_LOOP('',(#216,#217,#218,#219,#220,#221,#222,#223));
#138=EDGE_LOOP('',(#224,#225,#226,#227));
#139=EDGE_LOOP('',(#228,#229,#230,#231));
#140=EDGE_LOOP('',(#232,#233,#234,#235));
#141=EDGE_LOOP('',(#236));
#142=EDGE_LOOP('',(#237,#238,#239,#240));
#143=EDGE_LOOP('',(#241));
#144=EDGE_LOOP('',(#242));
#145=EDGE_LOOP('',(#243));
#146=EDGE_LOOP('',(#244));
#147=EDGE_LOOP('',(#245));
#148=EDGE_LOOP('',(#246));
#149=EDGE_LOOP('',(#247));
#150=EDGE_LOOP('',(#248));
#151=EDGE_LOOP('',(#249));
#152=EDGE_LOOP('',(#250));
#153=ORIENTED_EDGE('',*,*,#286,.T.);
#154=ORIENTED_EDGE('',*,*,#287,.T.);
#155=ORIENTED_EDGE('',*,*,#288,.T.);
#156=ORIENTED_EDGE('',*,*,#289,.T.);
#157=ORIENTED_EDGE('',*,*,#290,.F.);
#158=ORIENTED_EDGE('',*,*,#291,.F.);
#159=ORIENTED_EDGE('',*,*,#292,.F.);
#160=ORIENTED_EDGE('',*,*,#293,.F.);
#161=ORIENTED_EDGE('',*,*,#286,.F.);
#162=ORIENTED_EDGE('',*,*,#294,.T.);
#163=ORIENTED_EDGE('',*,*,#295,.F.);
#164=ORIENTED_EDGE('',*,*,#296,.T.);
#165=ORIENTED_EDGE('',*,*,#297,.F.);
#166=ORIENTED_EDGE('',*,*,#298,.F.);
#167=ORIENTED_EDGE('',*,*,#299,.T.);
#168=ORIENTED_EDGE('',*,*,#300,.T.);
#169=ORIENTED_EDGE('',*,*,#301,.F.);
#170=ORIENTED_EDGE('',*,*,#302,.F.);
#171=ORIENTED_EDGE('',*,*,#303,.F.);
#172=ORIENTED_EDGE('',*,*,#304,.T.);
#173=ORIENTED_EDGE('',*,*,#305,.T.);
#174=ORIENTED_EDGE('',*,*,#306,.F.);
#175=ORIENTED_EDGE('',*,*,#307,.T.);
#176=ORIENTED_EDGE('',*,*,#308,.T.);
#177=ORIENTED_EDGE('',*,*,#309,.F.);
#178=ORIENTED_EDGE('',*,*,#310,.F.);
#179=ORIENTED_EDGE('',*,*,#311,.T.);
#180=ORIENTED_EDGE('',*,*,#302,.T.);
#181=ORIENTED_EDGE('',*,*,#312,.F.);
#182=ORIENTED_EDGE('',*,*,#313,.T.);
#183=ORIENTED_EDGE('',*,*,#306,.T.);
#184=ORIENTED_EDGE('',*,*,#314,.T.);
#185=ORIENTED_EDGE('',*,*,#298,.T.);
#186=ORIENTED_EDGE('',*,*,#301,.T.);
#187=ORIENTED_EDGE('',*,*,#315,.T.);
#188=ORIENTED_EDGE('',*,*,#316,.F.);
#189=ORIENTED_EDGE('',*,*,#317,.T.);
#190=ORIENTED_EDGE('',*,*,#312,.T.);
#191=ORIENTED_EDGE('',*,*,#318,.F.);
#192=ORIENTED_EDGE('',*,*,#307,.F.);
#193=ORIENTED_EDGE('',*,*,#313,.F.);
#194=ORIENTED_EDGE('',*,*,#317,.F.);
#195=ORIENTED_EDGE('',*,*,#316,.T.);
#196=ORIENTED_EDGE('',*,*,#319,.T.);
#197=ORIENTED_EDGE('',*,*,#308,.F.);
#198=ORIENTED_EDGE('',*,*,#318,.T.);
#199=ORIENTED_EDGE('',*,*,#300,.F.);
#200=ORIENTED_EDGE('',*,*,#320,.T.);
#201=ORIENTED_EDGE('',*,*,#304,.F.);
#202=ORIENTED_EDGE('',*,*,#319,.F.);
#203=ORIENTED_EDGE('',*,*,#315,.F.);
#204=ORIENTED_EDGE('',*,*,#320,.F.);
#205=ORIENTED_EDGE('',*,*,#299,.F.);
#206=ORIENTED_EDGE('',*,*,#314,.F.);
#207=ORIENTED_EDGE('',*,*,#305,.F.);
#208=ORIENTED_EDGE('',*,*,#297,.T.);
#209=ORIENTED_EDGE('',*,*,#321,.T.);
#210=ORIENTED_EDGE('',*,*,#322,.T.);
#211=ORIENTED_EDGE('',*,*,#309,.T.);
#212=ORIENTED_EDGE('',*,*,#323,.T.);
#213=ORIENTED_EDGE('',*,*,#324,.T.);
#214=ORIENTED_EDGE('',*,*,#303,.T.);
#215=ORIENTED_EDGE('',*,*,#311,.F.);
#216=ORIENTED_EDGE('',*,*,#288,.F.);
#217=ORIENTED_EDGE('',*,*,#325,.T.);
#218=ORIENTED_EDGE('',*,*,#323,.F.);
#219=ORIENTED_EDGE('',*,*,#310,.T.);
#220=ORIENTED_EDGE('',*,*,#322,.F.);
#221=ORIENTED_EDGE('',*,*,#326,.T.);
#222=ORIENTED_EDGE('',*,*,#327,.F.);
#223=ORIENTED_EDGE('',*,*,#328,.T.);
#224=ORIENTED_EDGE('',*,*,#327,.T.);
#225=ORIENTED_EDGE('',*,*,#329,.T.);
#226=ORIENTED_EDGE('',*,*,#295,.T.);
#227=ORIENTED_EDGE('',*,*,#330,.T.);
#228=ORIENTED_EDGE('',*,*,#296,.F.);
#229=ORIENTED_EDGE('',*,*,#329,.F.);
#230=ORIENTED_EDGE('',*,*,#326,.F.);
#231=ORIENTED_EDGE('',*,*,#321,.F.);
#232=ORIENTED_EDGE('',*,*,#294,.F.);
#233=ORIENTED_EDGE('',*,*,#289,.F.);
#234=ORIENTED_EDGE('',*,*,#328,.F.);
#235=ORIENTED_EDGE('',*,*,#330,.F.);
#236=ORIENTED_EDGE('',*,*,#331,.F.);
#237=ORIENTED_EDGE('',*,*,#293,.T.);
#238=ORIENTED_EDGE('',*,*,#324,.F.);
#239=ORIENTED_EDGE('',*,*,#325,.F.);
#240=ORIENTED_EDGE('',*,*,#287,.F.);
#241=ORIENTED_EDGE('',*,*,#331,.T.);
#242=ORIENTED_EDGE('',*,*,#332,.F.);
#243=ORIENTED_EDGE('',*,*,#292,.T.);
#244=ORIENTED_EDGE('',*,*,#332,.T.);
#245=ORIENTED_EDGE('',*,*,#333,.F.);
#246=ORIENTED_EDGE('',*,*,#291,.T.);
#247=ORIENTED_EDGE('',*,*,#333,.T.);
#248=ORIENTED_EDGE('',*,*,#334,.F.);
#249=ORIENTED_EDGE('',*,*,#290,.T.);
#250=ORIENTED_EDGE('',*,*,#334,.T.);
#251=VERTEX_POINT('',#556);
#252=VERTEX_POINT('',#557);
#253=VERTEX_POINT('',#559);
#254=VERTEX_POINT('',#561);
#255=VERTEX_POINT('',#565);
#256=VERTEX_POINT('',#567);
#257=VERTEX_POINT('',#569);
#258=VERTEX_POINT('',#571);
#259=VERTEX_POINT('',#573);
#260=VERTEX_POINT('',#575);
#261=VERTEX_POINT('',#577);
#262=VERTEX_POINT('',#579);
#263=VERTEX_POINT('',#581);
#264=VERTEX_POINT('',#583);
#265=VERTEX_POINT('',#585);
#266=VERTEX_POINT('',#587);
#267=VERTEX_POINT('',#589);
#268=VERTEX_POINT('',#593);
#269=VERTEX_POINT('',#594);
#270=VERTEX_POINT('',#596);
#271=VERTEX_POINT('',#598);
#272=VERTEX_POINT('',#600);
#273=VERTEX_POINT('',#604);
#274=VERTEX_POINT('',#606);
#275=VERTEX_POINT('',#609);
#276=VERTEX_POINT('',#614);
#277=VERTEX_POINT('',#616);
#278=VERTEX_POINT('',#627);
#279=VERTEX_POINT('',#631);
#280=VERTEX_POINT('',#636);
#281=VERTEX_POINT('',#638);
#282=VERTEX_POINT('',#647);
#283=VERTEX_POINT('',#651);
#284=VERTEX_POINT('',#655);
#285=VERTEX_POINT('',#659);
#286=EDGE_CURVE('',#251,#252,#335,.T.);
#287=EDGE_CURVE('',#252,#253,#336,.T.);
#288=EDGE_CURVE('',#253,#254,#337,.T.);
#289=EDGE_CURVE('',#254,#251,#338,.T.);
#290=EDGE_CURVE('',#255,#255,#52,.T.);
#291=EDGE_CURVE('',#256,#256,#53,.T.);
#292=EDGE_CURVE('',#257,#257,#54,.T.);
#293=EDGE_CURVE('',#252,#258,#55,.T.);
#294=EDGE_CURVE('',#251,#259,#56,.T.);
#295=EDGE_CURVE('',#260,#259,#339,.T.);
#296=EDGE_CURVE('',#260,#261,#57,.T.);
#297=EDGE_CURVE('',#262,#261,#340,.T.);
#298=EDGE_CURVE('',#263,#262,#341,.T.);
#299=EDGE_CURVE('',#263,#264,#342,.T.);
#300=EDGE_CURVE('',#264,#265,#343,.T.);
#301=EDGE_CURVE('',#266,#265,#344,.T.);
#302=EDGE_CURVE('',#267,#266,#345,.T.);
#303=EDGE_CURVE('',#258,#267,#346,.T.);
#304=EDGE_CURVE('',#268,#269,#347,.T.);
#305=EDGE_CURVE('',#269,#270,#348,.T.);
#306=EDGE_CURVE('',#271,#270,#349,.T.);
#307=EDGE_CURVE('',#271,#272,#350,.T.);
#308=EDGE_CURVE('',#272,#268,#351,.T.);
#309=EDGE_CURVE('',#273,#262,#352,.T.);
#310=EDGE_CURVE('',#274,#273,#353,.T.);
#311=EDGE_CURVE('',#274,#267,#354,.T.);
#312=EDGE_CURVE('',#275,#266,#355,.T.);
#313=EDGE_CURVE('',#275,#271,#356,.T.);
#314=EDGE_CURVE('',#270,#263,#357,.T.);
#315=EDGE_CURVE('',#265,#276,#358,.T.);
#316=EDGE_CURVE('',#277,#276,#359,.T.);
#317=EDGE_CURVE('',#277,#275,#360,.T.);
#318=EDGE_CURVE('',#272,#277,#361,.T.);
#319=EDGE_CURVE('',#276,#268,#362,.T.);
#320=EDGE_CURVE('',#264,#269,#363,.T.);
#321=EDGE_CURVE('',#261,#278,#364,.T.);
#322=EDGE_CURVE('',#278,#273,#365,.T.);
#323=EDGE_CURVE('',#274,#279,#366,.T.);
#324=EDGE_CURVE('',#279,#258,#367,.T.);
#325=EDGE_CURVE('',#253,#279,#58,.T.);
#326=EDGE_CURVE('',#278,#280,#59,.T.);
#327=EDGE_CURVE('',#281,#280,#368,.T.);
#328=EDGE_CURVE('',#281,#254,#60,.T.);
#329=EDGE_CURVE('',#280,#260,#369,.T.);
#330=EDGE_CURVE('',#259,#281,#370,.T.);
#331=EDGE_CURVE('',#282,#282,#61,.T.);
#332=EDGE_CURVE('',#283,#283,#62,.T.);
#333=EDGE_CURVE('',#284,#284,#63,.T.);
#334=EDGE_CURVE('',#285,#285,#64,.T.);
#335=LINE('',#555,#371);
#336=LINE('',#558,#372);
#337=LINE('',#560,#373);
#338=LINE('',#562,#374);
#339=LINE('',#574,#375);
#340=LINE('',#578,#376);
#341=LINE('',#580,#377);
#342=LINE('',#582,#378);
#343=LINE('',#584,#379);
#344=LINE('',#586,#380);
#345=LINE('',#588,#381);
#346=LINE('',#590,#382);
#347=LINE('',#592,#383);
#348=LINE('',#595,#384);
#349=LINE('',#597,#385);
#350=LINE('',#599,#386);
#351=LINE('',#601,#387);
#352=LINE('',#603,#388);
#353=LINE('',#605,#389);
#354=LINE('',#607,#390);
#355=LINE('',#608,#391);
#356=LINE('',#610,#392);
#357=LINE('',#611,#393);
#358=LINE('',#613,#394);
#359=LINE('',#615,#395);
#360=LINE('',#617,#396);
#361=LINE('',#619,#397);
#362=LINE('',#621,#398);
#363=LINE('',#623,#399);
#364=LINE('',#626,#400);
#365=LINE('',#628,#401);
#366=LINE('',#630,#402);
#367=LINE('',#632,#403);
#368=LINE('',#637,#404);
#369=LINE('',#641,#405);
#370=LINE('',#642,#406);
#371=VECTOR('',#446,1.);
#372=VECTOR('',#447,1.);
#373=VECTOR('',#448,1.);
#374=VECTOR('',#449,1.);
#375=VECTOR('',#462,1.);
#376=VECTOR('',#465,1.);
#377=VECTOR('',#466,1.);
#378=VECTOR('',#467,1.);
#379=VECTOR('',#468,1.);
#380=VECTOR('',#469,1.);
#381=VECTOR('',#470,1.);
#382=VECTOR('',#471,1.);
#383=VECTOR('',#474,1.);
#384=VECTOR('',#475,1.);
#385=VECTOR('',#476,1.);
#386=VECTOR('',#477,1.);
#387=VECTOR('',#478,1.);
#388=VECTOR('',#481,1.);
#389=VECTOR('',#482,1.);
#390=VECTOR('',#483,1.);
#391=VECTOR('',#484,1.);
#392=VECTOR('',#485,1.);
#393=VECTOR('',#486,1.);
#394=VECTOR('',#489,1.);
#395=VECTOR('',#490,1.);
#396=VECTOR('',#491,1.);
#397=VECTOR('',#494,1.);
#398=VECTOR('',#497,1.);
#399=VECTOR('',#500,1.);
#400=VECTOR('',#505,1.);
#401=VECTOR('',#506,1.);
#402=VECTOR('',#509,1.);
#403=VECTOR('',#510,1.);
#404=VECTOR('',#517,1.);
#405=VECTOR('',#522,1.);
#406=VECTOR('',#523,1.);
#407=AXIS2_PLACEMENT_3D('',#554,#444,#445);
#408=AXIS2_PLACEMENT_3D('',#563,#450,#451);
#409=AXIS2_PLACEMENT_3D('',#564,#452,#453);
#410=AXIS2_PLACEMENT_3D('',#566,#454,#455);
#411=AXIS2_PLACEMENT_3D('',#568,#456,#457);
#412=AXIS2_PLACEMENT_3D('',#570,#458,#459);
#413=AXIS2_PLACEMENT_3D('',#572,#460,#461);
#414=AXIS2_PLACEMENT_3D('',#576,#463,#464);
#415=AXIS2_PLACEMENT_3D('',#591,#472,#473);
#416=AXIS2_PLACEMENT_3D('',#602,#479,#480);
#417=AXIS2_PLACEMENT_3D('',#612,#487,#488);
#418=AXIS2_PLACEMENT_3D('',#618,#492,#493);
#419=AXIS2_PLACEMENT_3D('',#620,#495,#496);
#420=AXIS2_PLACEMENT_3D('',#622,#498,#499);
#421=AXIS2_PLACEMENT_3D('',#624,#501,#502);
#422=AXIS2_PLACEMENT_3D('',#625,#503,#504);
#423=AXIS2_PLACEMENT_3D('',#629,#507,#508);
#424=AXIS2_PLACEMENT_3D('',#633,#511,#512);
#425=AXIS2_PLACEMENT_3D('',#634,#513,#514);
#426=AXIS2_PLACEMENT_3D('',#635,#515,#516);
#427=AXIS2_PLACEMENT_3D('',#639,#518,#519);
#428=AXIS2_PLACEMENT_3D('',#640,#520,#521);
#429=AXIS2_PLACEMENT_3D('',#643,#524,#525);
#430=AXIS2_PLACEMENT_3D('',#644,#526,#527);
#431=AXIS2_PLACEMENT_3D('',#645,#528,#529);
#432=AXIS2_PLACEMENT_3D('',#646,#530,#531);
#433=AXIS2_PLACEMENT_3D('',#648,#532,#533);
#434=AXIS2_PLACEMENT_3D('',#649,#534,#535);
#435=AXIS2_PLACEMENT_3D('',#650,#536,#537);
#436=AXIS2_PLACEMENT_3D('',#652,#538,#539);
#437=AXIS2_PLACEMENT_3D('',#653,#540,#541);
#438=AXIS2_PLACEMENT_3D('',#654,#542,#543);
#439=AXIS2_PLACEMENT_3D('',#656,#544,#545);
#440=AXIS2_PLACEMENT_3D('',#657,#546,#547);
#441=AXIS2_PLACEMENT_3D('',#658,#548,#549);
#442=AXIS2_PLACEMENT_3D('',#660,#550,#551);
#443=AXIS2_PLACEMENT_3D('',#661,#552,#553);
#444=DIRECTION('',(0.,0.,1.));
#445=DIRECTION('',(1.,0.,0.));
#446=DIRECTION('',(-1.,0.,0.));
#447=DIRECTION('',(0.,0.,-1.));
#448=DIRECTION('',(1.,0.,0.));
#449=DIRECTION('',(0.,0.,1.));
#450=DIRECTION('',(0.,1.,0.));
#451=DIRECTION('',(0.,0.,1.));
#452=DIRECTION('',(0.,0.,1.));
#453=DIRECTION('',(0.999999999999998,0.,0.));
#454=DIRECTION('',(0.,0.,1.));
#455=DIRECTION('',(0.999999999999998,0.,0.));
#456=DIRECTION('',(0.,0.,1.));
#457=DIRECTION('',(0.999999999999998,0.,0.));
#458=DIRECTION('',(0.,0.,1.));
#459=DIRECTION('',(1.,0.,0.));
#460=DIRECTION('',(0.,0.,-1.));
#461=DIRECTION('',(1.,0.,0.));
#462=DIRECTION('',(0.,1.,0.));
#463=DIRECTION('',(0.,0.,-1.));
#464=DIRECTION('',(1.,0.,0.));
#465=DIRECTION('',(1.,0.,0.));
#466=DIRECTION('',(0.,1.,0.));
#467=DIRECTION('',(1.,0.,0.));
#468=DIRECTION('',(0.,1.,0.));
#469=DIRECTION('',(1.,0.,0.));
#470=DIRECTION('',(0.,1.,0.));
#471=DIRECTION('',(-1.,0.,0.));
#472=DIRECTION('',(0.,0.,1.));
#473=DIRECTION('',(1.,0.,0.));
#474=DIRECTION('',(-0.707106781186548,0.,0.707106781186548));
#475=DIRECTION('',(-1.,0.,0.));
#476=DIRECTION('',(0.,0.,1.));
#477=DIRECTION('',(1.,0.,0.));
#478=DIRECTION('',(0.,0.,1.));
#479=DIRECTION('',(0.,-1.,0.));
#480=DIRECTION('',(0.,0.,-1.));
#481=DIRECTION('',(0.,0.,1.));
#482=DIRECTION('',(0.,-1.,0.));
#483=DIRECTION('',(0.,0.,1.));
#484=DIRECTION('',(0.,0.,1.));
#485=DIRECTION('',(0.,-1.,0.));
#486=DIRECTION('',(0.,0.707106781186548,0.707106781186548));
#487=DIRECTION('',(-1.,0.,0.));
#488=DIRECTION('',(0.,0.,1.));
#489=DIRECTION('',(0.707106781186548,0.,-0.707106781186548));
#490=DIRECTION('',(0.,0.,1.));
#491=DIRECTION('',(-1.,0.,0.));
#492=DIRECTION('',(0.,1.,0.));
#493=DIRECTION('',(0.,0.,1.));
#494=DIRECTION('',(0.,1.,0.));
#495=DIRECTION('',(0.,0.,-1.));
#496=DIRECTION('',(-1.,0.,0.));
#497=DIRECTION('',(0.,-1.,0.));
#498=DIRECTION('',(1.,0.,0.));
#499=DIRECTION('',(0.,0.,-1.));
#500=DIRECTION('',(0.577350269189626,-0.577350269189626,-0.577350269189626));
#501=DIRECTION('',(-0.707106781186547,0.,-0.707106781186547));
#502=DIRECTION('',(0.,-1.,0.));
#503=DIRECTION('',(0.,0.707106781186547,-0.707106781186547));
#504=DIRECTION('',(-1.,0.,0.));
#505=DIRECTION('',(0.,0.,-1.));
#506=DIRECTION('',(-1.,0.,0.));
#507=DIRECTION('',(0.,-1.,0.));
#508=DIRECTION('',(0.,0.,-1.));
#509=DIRECTION('',(1.,0.,0.));
#510=DIRECTION('',(0.,0.,1.));
#511=DIRECTION('',(0.,1.,0.));
#512=DIRECTION('',(0.,0.,1.));
#513=DIRECTION('',(0.,0.,-1.));
#514=DIRECTION('',(-1.,0.,0.));
#515=DIRECTION('',(0.,0.,1.));
#516=DIRECTION('',(-1.,0.,0.));
#517=DIRECTION('',(0.,-1.,0.));
#518=DIRECTION('',(0.,0.,1.));
#519=DIRECTION('',(-1.,0.,0.));
#520=DIRECTION('',(0.,0.,-1.));
#521=DIRECTION('',(-1.,0.,0.));
#522=DIRECTION('',(0.,0.,1.));
#523=DIRECTION('',(0.,0.,-1.));
#524=DIRECTION('',(1.,0.,0.));
#525=DIRECTION('',(0.,0.,-1.));
#526=DIRECTION('',(0.,0.,1.));
#527=DIRECTION('',(1.,0.,0.));
#528=DIRECTION('',(0.,0.,1.));
#529=DIRECTION('',(1.,0.,0.));
#530=DIRECTION('',(0.,0.,-1.));
#531=DIRECTION('',(1.,0.,0.));
#532=DIRECTION('',(0.,0.,-1.));
#533=DIRECTION('',(-1.,0.,0.));
#534=DIRECTION('',(0.,0.,-1.));
#535=DIRECTION('',(1.,0.,0.));
#536=DIRECTION('',(0.,0.,-1.));
#537=DIRECTION('',(0.999999999999998,0.,0.));
#538=DIRECTION('',(0.,0.,-1.));
#539=DIRECTION('',(-1.,0.,0.));
#540=DIRECTION('',(0.,0.,-1.));
#541=DIRECTION('',(0.999999999999998,0.,0.));
#542=DIRECTION('',(0.,0.,-1.));
#543=DIRECTION('',(0.999999999999998,0.,0.));
#544=DIRECTION('',(0.,0.,-1.));
#545=DIRECTION('',(-1.,0.,0.));
#546=DIRECTION('',(0.,0.,-1.));
#547=DIRECTION('',(0.999999999999998,0.,0.));
#548=DIRECTION('',(0.,0.,-1.));
#549=DIRECTION('',(0.999999999999998,0.,0.));
#550=DIRECTION('',(0.,0.,-1.));
#551=DIRECTION('',(-1.,0.,0.));
#552=DIRECTION('',(0.,0.,-1.));
#553=DIRECTION('',(0.999999999999998,0.,0.));
#554=CARTESIAN_POINT('',(0.,0.,0.));
#555=CARTESIAN_POINT('',(239.85,242.1,99.6));
#556=CARTESIAN_POINT('',(106.2,242.1,99.6));
#557=CARTESIAN_POINT('',(46.4951506616242,242.1,99.6));
#558=CARTESIAN_POINT('',(46.4951506616242,242.1,99.65));
#559=CARTESIAN_POINT('',(46.4951506616242,242.1,69.7));
#560=CARTESIAN_POINT('',(56.1,242.1,69.7));
#561=CARTESIAN_POINT('',(106.2,242.1,69.7));
#562=CARTESIAN_POINT('',(106.2,242.1,99.6));
#563=CARTESIAN_POINT('',(56.1,242.1,69.7));
#564=CARTESIAN_POINT('',(395.3,243.7,99.6));
#565=CARTESIAN_POINT('',(400.45,243.7,99.6));
#566=CARTESIAN_POINT('',(277.4,243.7,99.6));
#567=CARTESIAN_POINT('',(282.55,243.7,99.6));
#568=CARTESIAN_POINT('',(159.5,243.7,99.6));
#569=CARTESIAN_POINT('',(164.65,243.7,99.6));
#570=CARTESIAN_POINT('',(41.6,243.7,99.6));
#571=CARTESIAN_POINT('',(36.7048493383758,242.1,99.6));
#572=CARTESIAN_POINT('',(106.2,236.1,99.6));
#573=CARTESIAN_POINT('',(112.2,236.1,99.6));
#574=CARTESIAN_POINT('',(112.2,159.3,99.6));
#575=CARTESIAN_POINT('',(112.2,125.1,99.6));
#576=CARTESIAN_POINT('',(106.2,125.1,99.6));
#577=CARTESIAN_POINT('',(106.2,119.1,99.6));
#578=CARTESIAN_POINT('',(239.85,119.1,99.6));
#579=CARTESIAN_POINT('',(0.,119.1,99.6));
#580=CARTESIAN_POINT('',(0.,159.3,99.6));
#581=CARTESIAN_POINT('',(0.,11.3,99.6));
#582=CARTESIAN_POINT('',(239.85,11.3,99.6));
#583=CARTESIAN_POINT('',(463.5,11.3,99.6));
#584=CARTESIAN_POINT('',(463.5,159.3,99.6));
#585=CARTESIAN_POINT('',(463.5,318.6,99.6));
#586=CARTESIAN_POINT('',(239.85,318.6,99.6));
#587=CARTESIAN_POINT('',(0.,318.6,99.6));
#588=CARTESIAN_POINT('',(0.,159.3,99.6));
#589=CARTESIAN_POINT('',(0.,242.1,99.6));
#590=CARTESIAN_POINT('',(239.85,242.1,99.6));
#591=CARTESIAN_POINT('',(239.85,159.3,99.6));
#592=CARTESIAN_POINT('',(401.475,0.,161.625));
#593=CARTESIAN_POINT('',(479.7,0.,83.4));
#594=CARTESIAN_POINT('',(474.8,0.,88.3));
#595=CARTESIAN_POINT('',(239.85,0.,88.3));
#596=CARTESIAN_POINT('',(0.,0.,88.3));
#597=CARTESIAN_POINT('',(0.,0.,0.));
#598=CARTESIAN_POINT('',(0.,0.,0.));
#599=CARTESIAN_POINT('',(239.85,0.,0.));
#600=CARTESIAN_POINT('',(479.7,0.,0.));
#601=CARTESIAN_POINT('',(479.7,0.,0.));
#602=CARTESIAN_POINT('',(239.85,0.,0.));
#603=CARTESIAN_POINT('',(0.,119.1,69.7));
#604=CARTESIAN_POINT('',(0.,119.1,69.7));
#605=CARTESIAN_POINT('',(0.,180.6,69.7));
#606=CARTESIAN_POINT('',(0.,242.1,69.7));
#607=CARTESIAN_POINT('',(0.,242.1,69.7));
#608=CARTESIAN_POINT('',(0.,318.6,0.));
#609=CARTESIAN_POINT('',(0.,318.6,0.));
#610=CARTESIAN_POINT('',(0.,159.3,0.));
#611=CARTESIAN_POINT('',(0.,35.5,123.8));
#612=CARTESIAN_POINT('',(0.,159.3,0.));
#613=CARTESIAN_POINT('',(401.475,318.6,161.625));
#614=CARTESIAN_POINT('',(479.7,318.6,83.4));
#615=CARTESIAN_POINT('',(479.7,318.6,0.));
#616=CARTESIAN_POINT('',(479.7,318.6,0.));
#617=CARTESIAN_POINT('',(239.85,318.6,0.));
#618=CARTESIAN_POINT('',(239.85,318.6,0.));
#619=CARTESIAN_POINT('',(479.7,159.3,0.));
#620=CARTESIAN_POINT('',(239.85,159.3,0.));
#621=CARTESIAN_POINT('',(479.7,159.3,83.4));
#622=CARTESIAN_POINT('',(479.7,159.3,0.));
#623=CARTESIAN_POINT('',(424.966666666667,49.8333333333333,138.133333333333));
#624=CARTESIAN_POINT('',(479.7,159.3,83.4));
#625=CARTESIAN_POINT('',(239.85,0.,88.3));
#626=CARTESIAN_POINT('',(106.2,119.1,69.7));
#627=CARTESIAN_POINT('',(106.2,119.1,69.7));
#628=CARTESIAN_POINT('',(56.1,119.1,69.7));
#629=CARTESIAN_POINT('',(56.1,119.1,69.7));
#630=CARTESIAN_POINT('',(56.1,242.1,69.7));
#631=CARTESIAN_POINT('',(36.7048493383758,242.1,69.7));
#632=CARTESIAN_POINT('',(36.7048493383758,242.1,99.65));
#633=CARTESIAN_POINT('',(56.1,242.1,69.7));
#634=CARTESIAN_POINT('',(41.6,243.7,69.7));
#635=CARTESIAN_POINT('',(106.2,125.1,69.7));
#636=CARTESIAN_POINT('',(112.2,125.1,69.7));
#637=CARTESIAN_POINT('',(112.2,180.6,69.7));
#638=CARTESIAN_POINT('',(112.2,236.1,69.7));
#639=CARTESIAN_POINT('',(106.2,236.1,69.7));
#640=CARTESIAN_POINT('',(56.1,180.6,69.7));
#641=CARTESIAN_POINT('',(112.2,125.1,99.6));
#642=CARTESIAN_POINT('',(112.2,236.1,69.7));
#643=CARTESIAN_POINT('',(112.2,180.6,69.7));
#644=CARTESIAN_POINT('',(106.2,125.1,69.7));
#645=CARTESIAN_POINT('',(106.2,236.1,69.7));
#646=CARTESIAN_POINT('',(41.6,243.7,33.6));
#647=CARTESIAN_POINT('',(46.75,243.7,33.6));
#648=CARTESIAN_POINT('',(41.6,243.7,33.6));
#649=CARTESIAN_POINT('',(41.6,243.7,99.65));
#650=CARTESIAN_POINT('',(159.5,243.7,57.7));
#651=CARTESIAN_POINT('',(164.65,243.7,57.7));
#652=CARTESIAN_POINT('',(159.5,243.7,57.7));
#653=CARTESIAN_POINT('',(159.5,243.7,99.65));
#654=CARTESIAN_POINT('',(277.4,243.7,34.));
#655=CARTESIAN_POINT('',(282.55,243.7,34.));
#656=CARTESIAN_POINT('',(277.4,243.7,34.));
#657=CARTESIAN_POINT('',(277.4,243.7,99.65));
#658=CARTESIAN_POINT('',(395.3,243.7,54.));
#659=CARTESIAN_POINT('',(400.45,243.7,54.));
#660=CARTESIAN_POINT('',(395.3,243.7,54.));
#661=CARTESIAN_POINT('',(395.3,243.7,99.65));
#662=MECHANICAL_DESIGN_GEOMETRIC_PRESENTATION_REPRESENTATION('',(#24),#663);
#663=(
GEOMETRIC_REPRESENTATION_CONTEXT(3)
GLOBAL_UNCERTAINTY_ASSIGNED_CONTEXT((#664))
GLOBAL_UNIT_ASSIGNED_CONTEXT((#670,#666,#665))
REPRESENTATION_CONTEXT('featured_part_03513','TOP_LEVEL_ASSEMBLY_PART')
);
#664=UNCERTAINTY_MEASURE_WITH_UNIT(LENGTH_MEASURE(2.E-5),#670,
'DISTANCE_ACCURACY_VALUE','Maximum Tolerance applied to model');
#665=(
NAMED_UNIT(*)
SI_UNIT($,.STERADIAN.)
SOLID_ANGLE_UNIT()
);
#666=(
CONVERSION_BASED_UNIT('DEGREE',#668)
NAMED_UNIT(#667)
PLANE_ANGLE_UNIT()
);
#667=DIMENSIONAL_EXPONENTS(0.,0.,0.,0.,0.,0.,0.);
#668=PLANE_ANGLE_MEASURE_WITH_UNIT(PLANE_ANGLE_MEASURE(0.0174532925),#669);
#669=(
NAMED_UNIT(*)
PLANE_ANGLE_UNIT()
SI_UNIT($,.RADIAN.)
);
#670=(
LENGTH_UNIT()
NAMED_UNIT(*)
SI_UNIT(.MILLI.,.METRE.)
);
ENDSEC;
END-ISO-10303-21;
