ISO-10303-21;
HEADER;
/* Generated by software containing ST-Developer
 * from STEP Tools, Inc. (www.steptools.com) 
 */
/* OPTION: using custom schema-name function */

FILE_DESCRIPTION(
/* description */ (''),
/* implementation_level */ '2;1');

FILE_NAME(
/* name */ 'featured_part_08064.stp',
/* time_stamp */ '2026-07-10T15:01:47-04:00',
/* author */ (''),
/* organization */ (''),
/* preprocessor_version */ 'ST-DEVELOPER v20.1',
/* originating_system */ 'SIEMENS PLM Software NX2512.6002',
/* authorisation */ '');

FILE_SCHEMA (('AUTOMOTIVE_DESIGN { 1 0 10303 214 3 1 1 1 }'));
ENDSEC;

DATA;
#10=SHAPE_REPRESENTATION_RELATIONSHIP('None',
'relationship between featured_part_08064-None and featured_part_08064
-None',#22,#11);
#11=ADVANCED_BREP_SHAPE_REPRESENTATION('featured_part_08064-None',(#32),
#816);
#12=SHAPE_DEFINITION_REPRESENTATION(#13,#22);
#13=PRODUCT_DEFINITION_SHAPE('','',#14);
#14=PRODUCT_DEFINITION(' ','',#16,#15);
#15=PRODUCT_DEFINITION_CONTEXT('part definition',#21,'design');
#16=PRODUCT_DEFINITION_FORMATION_WITH_SPECIFIED_SOURCE(' ',' ',#18,
 .NOT_KNOWN.);
#17=PRODUCT_RELATED_PRODUCT_CATEGORY('part','',(#18));
#18=PRODUCT('featured_part_08064','featured_part_08064',' ',(#19));
#19=PRODUCT_CONTEXT(' ',#21,'mechanical');
#20=APPLICATION_PROTOCOL_DEFINITION('international standard',
'automotive_design',2010,#21);
#21=APPLICATION_CONTEXT(
'core data for automotive mechanical design processes');
#22=SHAPE_REPRESENTATION('featured_part_08064-None',(#500),#816);
#23=PRESENTATION_LAYER_ASSIGNMENT('1','Layer 1',(#32));
#24=STYLED_ITEM('',(#25),#32);
#25=PRESENTATION_STYLE_ASSIGNMENT((#26));
#26=SURFACE_STYLE_USAGE(.BOTH.,#27);
#27=SURFACE_SIDE_STYLE('',(#28));
#28=SURFACE_STYLE_FILL_AREA(#29);
#29=FILL_AREA_STYLE('',(#30));
#30=FILL_AREA_STYLE_COLOUR('',#31);
#31=COLOUR_RGB('medium steel',0.611764705882353,0.658823529411765,0.670588235294118);
#32=MANIFOLD_SOLID_BREP('',#33);
#33=CLOSED_SHELL('',(#61,#62,#63,#64,#65,#66,#67,#68,#69,#70,#71,#72,#73,
#74,#75,#76,#77,#78,#79,#80,#81,#82,#83,#84));
#34=CYLINDRICAL_SURFACE('',#537,12.4);
#35=CYLINDRICAL_SURFACE('',#538,12.4);
#36=CYLINDRICAL_SURFACE('',#539,12.4);
#37=CYLINDRICAL_SURFACE('',#540,12.4);
#38=CYLINDRICAL_SURFACE('',#541,25.);
#39=CYLINDRICAL_SURFACE('',#542,25.);
#40=CYLINDRICAL_SURFACE('',#543,25.);
#41=CYLINDRICAL_SURFACE('',#544,25.);
#42=CYLINDRICAL_SURFACE('',#545,25.);
#43=ELLIPSE('',#522,35.3553390593274,25.);
#44=FACE_OUTER_BOUND('',#210,.T.);
#45=FACE_OUTER_BOUND('',#211,.T.);
#46=FACE_OUTER_BOUND('',#212,.T.);
#47=FACE_OUTER_BOUND('',#219,.T.);
#48=FACE_OUTER_BOUND('',#220,.T.);
#49=FACE_OUTER_BOUND('',#221,.T.);
#50=FACE_OUTER_BOUND('',#222,.T.);
#51=FACE_OUTER_BOUND('',#223,.T.);
#52=FACE_OUTER_BOUND('',#224,.T.);
#53=FACE_OUTER_BOUND('',#225,.T.);
#54=FACE_OUTER_BOUND('',#226,.T.);
#55=FACE_OUTER_BOUND('',#227,.T.);
#56=FACE_OUTER_BOUND('',#228,.T.);
#57=FACE_OUTER_BOUND('',#229,.T.);
#58=FACE_OUTER_BOUND('',#230,.T.);
#59=FACE_OUTER_BOUND('',#231,.T.);
#60=FACE_OUTER_BOUND('',#232,.T.);
#61=ADVANCED_FACE('',(#186,#187,#188,#189),#85,.T.);
#62=ADVANCED_FACE('',(#44),#86,.T.);
#63=ADVANCED_FACE('',(#45),#87,.T.);
#64=ADVANCED_FACE('',(#46),#88,.T.);
#65=ADVANCED_FACE('',(#190,#191,#192,#193,#194,#195),#89,.T.);
#66=ADVANCED_FACE('',(#47),#90,.T.);
#67=ADVANCED_FACE('',(#48),#91,.F.);
#68=ADVANCED_FACE('',(#49),#92,.F.);
#69=ADVANCED_FACE('',(#50),#93,.F.);
#70=ADVANCED_FACE('',(#51),#94,.F.);
#71=ADVANCED_FACE('',(#52),#95,.F.);
#72=ADVANCED_FACE('',(#53),#96,.F.);
#73=ADVANCED_FACE('',(#54),#97,.F.);
#74=ADVANCED_FACE('',(#55),#98,.F.);
#75=ADVANCED_FACE('',(#56),#99,.F.);
#76=ADVANCED_FACE('',(#57),#34,.F.);
#77=ADVANCED_FACE('',(#58),#35,.F.);
#78=ADVANCED_FACE('',(#59),#36,.F.);
#79=ADVANCED_FACE('',(#60),#37,.F.);
#80=ADVANCED_FACE('',(#196,#197),#38,.F.);
#81=ADVANCED_FACE('',(#198,#199),#39,.F.);
#82=ADVANCED_FACE('',(#200,#201),#40,.F.);
#83=ADVANCED_FACE('',(#202,#203),#41,.F.);
#84=ADVANCED_FACE('',(#204,#205),#42,.F.);
#85=PLANE('',#510);
#86=PLANE('',#511);
#87=PLANE('',#512);
#88=PLANE('',#513);
#89=PLANE('',#519);
#90=PLANE('',#520);
#91=PLANE('',#521);
#92=PLANE('',#523);
#93=PLANE('',#524);
#94=PLANE('',#525);
#95=PLANE('',#526);
#96=PLANE('',#527);
#97=PLANE('',#528);
#98=PLANE('',#535);
#99=PLANE('',#536);
#100=LINE('',#689,#143);
#101=LINE('',#695,#144);
#102=LINE('',#699,#145);
#103=LINE('',#703,#146);
#104=LINE('',#709,#147);
#105=LINE('',#711,#148);
#106=LINE('',#713,#149);
#107=LINE('',#715,#150);
#108=LINE('',#717,#151);
#109=LINE('',#719,#152);
#110=LINE('',#722,#153);
#111=LINE('',#724,#154);
#112=LINE('',#726,#155);
#113=LINE('',#728,#156);
#114=LINE('',#730,#157);
#115=LINE('',#732,#158);
#116=LINE('',#734,#159);
#117=LINE('',#736,#160);
#118=LINE('',#738,#161);
#119=LINE('',#740,#162);
#120=LINE('',#742,#163);
#121=LINE('',#744,#164);
#122=LINE('',#746,#165);
#123=LINE('',#758,#166);
#124=LINE('',#760,#167);
#125=LINE('',#762,#168);
#126=LINE('',#763,#169);
#127=LINE('',#766,#170);
#128=LINE('',#768,#171);
#129=LINE('',#771,#172);
#130=LINE('',#773,#173);
#131=LINE('',#775,#174);
#132=LINE('',#777,#175);
#133=LINE('',#780,#176);
#134=LINE('',#781,#177);
#135=LINE('',#783,#178);
#136=LINE('',#785,#179);
#137=LINE('',#787,#180);
#138=LINE('',#789,#181);
#139=LINE('',#801,#182);
#140=LINE('',#802,#183);
#141=LINE('',#804,#184);
#142=LINE('',#807,#185);
#143=VECTOR('',#554,1.);
#144=VECTOR('',#559,1.);
#145=VECTOR('',#562,1.);
#146=VECTOR('',#565,1.);
#147=VECTOR('',#570,1.);
#148=VECTOR('',#571,1.);
#149=VECTOR('',#572,1.);
#150=VECTOR('',#573,1.);
#151=VECTOR('',#574,1.);
#152=VECTOR('',#577,1.);
#153=VECTOR('',#578,1.);
#154=VECTOR('',#579,1.);
#155=VECTOR('',#580,1.);
#156=VECTOR('',#581,1.);
#157=VECTOR('',#582,1.);
#158=VECTOR('',#585,1.);
#159=VECTOR('',#586,1.);
#160=VECTOR('',#587,1.);
#161=VECTOR('',#590,1.);
#162=VECTOR('',#591,1.);
#163=VECTOR('',#592,1.);
#164=VECTOR('',#593,1.);
#165=VECTOR('',#594,1.);
#166=VECTOR('',#607,1.);
#167=VECTOR('',#610,1.);
#168=VECTOR('',#613,1.);
#169=VECTOR('',#614,1.);
#170=VECTOR('',#619,1.);
#171=VECTOR('',#622,1.);
#172=VECTOR('',#627,1.);
#173=VECTOR('',#628,1.);
#174=VECTOR('',#629,1.);
#175=VECTOR('',#632,1.);
#176=VECTOR('',#633,1.);
#177=VECTOR('',#634,1.);
#178=VECTOR('',#637,1.);
#179=VECTOR('',#638,1.);
#180=VECTOR('',#639,1.);
#181=VECTOR('',#642,1.);
#182=VECTOR('',#657,1.);
#183=VECTOR('',#658,1.);
#184=VECTOR('',#661,1.);
#185=VECTOR('',#666,1.);
#186=FACE_BOUND('',#206,.T.);
#187=FACE_BOUND('',#207,.T.);
#188=FACE_BOUND('',#208,.T.);
#189=FACE_BOUND('',#209,.T.);
#190=FACE_BOUND('',#213,.T.);
#191=FACE_BOUND('',#214,.T.);
#192=FACE_BOUND('',#215,.T.);
#193=FACE_BOUND('',#216,.T.);
#194=FACE_BOUND('',#217,.T.);
#195=FACE_BOUND('',#218,.T.);
#196=FACE_BOUND('',#233,.T.);
#197=FACE_BOUND('',#234,.T.);
#198=FACE_BOUND('',#235,.T.);
#199=FACE_BOUND('',#236,.T.);
#200=FACE_BOUND('',#237,.T.);
#201=FACE_BOUND('',#238,.T.);
#202=FACE_BOUND('',#239,.T.);
#203=FACE_BOUND('',#240,.T.);
#204=FACE_BOUND('',#241,.T.);
#205=FACE_BOUND('',#242,.T.);
#206=EDGE_LOOP('',(#243));
#207=EDGE_LOOP('',(#244));
#208=EDGE_LOOP('',(#245,#246,#247,#248,#249,#250,#251,#252,#253,#254));
#209=EDGE_LOOP('',(#255,#256,#257,#258,#259,#260));
#210=EDGE_LOOP('',(#261,#262,#263,#264,#265,#266));
#211=EDGE_LOOP('',(#267,#268,#269,#270));
#212=EDGE_LOOP('',(#271,#272,#273,#274,#275,#276));
#213=EDGE_LOOP('',(#277));
#214=EDGE_LOOP('',(#278));
#215=EDGE_LOOP('',(#279));
#216=EDGE_LOOP('',(#280));
#217=EDGE_LOOP('',(#281));
#218=EDGE_LOOP('',(#282,#283,#284,#285));
#219=EDGE_LOOP('',(#286,#287,#288,#289));
#220=EDGE_LOOP('',(#290,#291,#292,#293,#294,#295));
#221=EDGE_LOOP('',(#296,#297,#298,#299,#300,#301));
#222=EDGE_LOOP('',(#302,#303,#304,#305));
#223=EDGE_LOOP('',(#306,#307,#308,#309,#310,#311));
#224=EDGE_LOOP('',(#312,#313,#314,#315));
#225=EDGE_LOOP('',(#316,#317,#318,#319));
#226=EDGE_LOOP('',(#320,#321,#322,#323));
#227=EDGE_LOOP('',(#324,#325,#326,#327,#328,#329,#330,#331,#332,#333));
#228=EDGE_LOOP('',(#334,#335,#336,#337));
#229=EDGE_LOOP('',(#338,#339,#340,#341));
#230=EDGE_LOOP('',(#342,#343,#344,#345));
#231=EDGE_LOOP('',(#346,#347,#348,#349));
#232=EDGE_LOOP('',(#350,#351,#352,#353));
#233=EDGE_LOOP('',(#354));
#234=EDGE_LOOP('',(#355,#356));
#235=EDGE_LOOP('',(#357));
#236=EDGE_LOOP('',(#358,#359,#360,#361));
#237=EDGE_LOOP('',(#362));
#238=EDGE_LOOP('',(#363,#364,#365,#366));
#239=EDGE_LOOP('',(#367));
#240=EDGE_LOOP('',(#368));
#241=EDGE_LOOP('',(#369));
#242=EDGE_LOOP('',(#370));
#243=ORIENTED_EDGE('',*,*,#416,.F.);
#244=ORIENTED_EDGE('',*,*,#417,.F.);
#245=ORIENTED_EDGE('',*,*,#418,.F.);
#246=ORIENTED_EDGE('',*,*,#419,.F.);
#247=ORIENTED_EDGE('',*,*,#420,.T.);
#248=ORIENTED_EDGE('',*,*,#421,.F.);
#249=ORIENTED_EDGE('',*,*,#422,.F.);
#250=ORIENTED_EDGE('',*,*,#423,.T.);
#251=ORIENTED_EDGE('',*,*,#424,.F.);
#252=ORIENTED_EDGE('',*,*,#425,.T.);
#253=ORIENTED_EDGE('',*,*,#426,.F.);
#254=ORIENTED_EDGE('',*,*,#427,.T.);
#255=ORIENTED_EDGE('',*,*,#428,.F.);
#256=ORIENTED_EDGE('',*,*,#429,.T.);
#257=ORIENTED_EDGE('',*,*,#430,.T.);
#258=ORIENTED_EDGE('',*,*,#431,.T.);
#259=ORIENTED_EDGE('',*,*,#432,.T.);
#260=ORIENTED_EDGE('',*,*,#433,.T.);
#261=ORIENTED_EDGE('',*,*,#434,.T.);
#262=ORIENTED_EDGE('',*,*,#435,.T.);
#263=ORIENTED_EDGE('',*,*,#436,.F.);
#264=ORIENTED_EDGE('',*,*,#437,.T.);
#265=ORIENTED_EDGE('',*,*,#438,.T.);
#266=ORIENTED_EDGE('',*,*,#439,.T.);
#267=ORIENTED_EDGE('',*,*,#436,.T.);
#268=ORIENTED_EDGE('',*,*,#440,.T.);
#269=ORIENTED_EDGE('',*,*,#441,.F.);
#270=ORIENTED_EDGE('',*,*,#442,.T.);
#271=ORIENTED_EDGE('',*,*,#441,.T.);
#272=ORIENTED_EDGE('',*,*,#443,.T.);
#273=ORIENTED_EDGE('',*,*,#444,.T.);
#274=ORIENTED_EDGE('',*,*,#445,.T.);
#275=ORIENTED_EDGE('',*,*,#446,.F.);
#276=ORIENTED_EDGE('',*,*,#447,.T.);
#277=ORIENTED_EDGE('',*,*,#448,.F.);
#278=ORIENTED_EDGE('',*,*,#449,.F.);
#279=ORIENTED_EDGE('',*,*,#450,.F.);
#280=ORIENTED_EDGE('',*,*,#451,.F.);
#281=ORIENTED_EDGE('',*,*,#452,.F.);
#282=ORIENTED_EDGE('',*,*,#453,.F.);
#283=ORIENTED_EDGE('',*,*,#437,.F.);
#284=ORIENTED_EDGE('',*,*,#442,.F.);
#285=ORIENTED_EDGE('',*,*,#447,.F.);
#286=ORIENTED_EDGE('',*,*,#446,.T.);
#287=ORIENTED_EDGE('',*,*,#454,.T.);
#288=ORIENTED_EDGE('',*,*,#438,.F.);
#289=ORIENTED_EDGE('',*,*,#453,.T.);
#290=ORIENTED_EDGE('',*,*,#445,.F.);
#291=ORIENTED_EDGE('',*,*,#455,.T.);
#292=ORIENTED_EDGE('',*,*,#430,.F.);
#293=ORIENTED_EDGE('',*,*,#456,.T.);
#294=ORIENTED_EDGE('',*,*,#439,.F.);
#295=ORIENTED_EDGE('',*,*,#454,.F.);
#296=ORIENTED_EDGE('',*,*,#457,.F.);
#297=ORIENTED_EDGE('',*,*,#433,.F.);
#298=ORIENTED_EDGE('',*,*,#458,.T.);
#299=ORIENTED_EDGE('',*,*,#434,.F.);
#300=ORIENTED_EDGE('',*,*,#456,.F.);
#301=ORIENTED_EDGE('',*,*,#429,.F.);
#302=ORIENTED_EDGE('',*,*,#444,.F.);
#303=ORIENTED_EDGE('',*,*,#459,.T.);
#304=ORIENTED_EDGE('',*,*,#431,.F.);
#305=ORIENTED_EDGE('',*,*,#455,.F.);
#306=ORIENTED_EDGE('',*,*,#458,.F.);
#307=ORIENTED_EDGE('',*,*,#432,.F.);
#308=ORIENTED_EDGE('',*,*,#459,.F.);
#309=ORIENTED_EDGE('',*,*,#443,.F.);
#310=ORIENTED_EDGE('',*,*,#440,.F.);
#311=ORIENTED_EDGE('',*,*,#435,.F.);
#312=ORIENTED_EDGE('',*,*,#422,.T.);
#313=ORIENTED_EDGE('',*,*,#460,.T.);
#314=ORIENTED_EDGE('',*,*,#461,.T.);
#315=ORIENTED_EDGE('',*,*,#462,.T.);
#316=ORIENTED_EDGE('',*,*,#463,.T.);
#317=ORIENTED_EDGE('',*,*,#464,.T.);
#318=ORIENTED_EDGE('',*,*,#424,.T.);
#319=ORIENTED_EDGE('',*,*,#465,.T.);
#320=ORIENTED_EDGE('',*,*,#426,.T.);
#321=ORIENTED_EDGE('',*,*,#466,.T.);
#322=ORIENTED_EDGE('',*,*,#467,.T.);
#323=ORIENTED_EDGE('',*,*,#468,.T.);
#324=ORIENTED_EDGE('',*,*,#469,.F.);
#325=ORIENTED_EDGE('',*,*,#470,.T.);
#326=ORIENTED_EDGE('',*,*,#471,.T.);
#327=ORIENTED_EDGE('',*,*,#467,.F.);
#328=ORIENTED_EDGE('',*,*,#472,.T.);
#329=ORIENTED_EDGE('',*,*,#463,.F.);
#330=ORIENTED_EDGE('',*,*,#473,.T.);
#331=ORIENTED_EDGE('',*,*,#461,.F.);
#332=ORIENTED_EDGE('',*,*,#474,.T.);
#333=ORIENTED_EDGE('',*,*,#475,.T.);
#334=ORIENTED_EDGE('',*,*,#419,.T.);
#335=ORIENTED_EDGE('',*,*,#476,.T.);
#336=ORIENTED_EDGE('',*,*,#469,.T.);
#337=ORIENTED_EDGE('',*,*,#477,.T.);
#338=ORIENTED_EDGE('',*,*,#475,.F.);
#339=ORIENTED_EDGE('',*,*,#478,.T.);
#340=ORIENTED_EDGE('',*,*,#420,.F.);
#341=ORIENTED_EDGE('',*,*,#477,.F.);
#342=ORIENTED_EDGE('',*,*,#425,.F.);
#343=ORIENTED_EDGE('',*,*,#464,.F.);
#344=ORIENTED_EDGE('',*,*,#472,.F.);
#345=ORIENTED_EDGE('',*,*,#466,.F.);
#346=ORIENTED_EDGE('',*,*,#471,.F.);
#347=ORIENTED_EDGE('',*,*,#479,.T.);
#348=ORIENTED_EDGE('',*,*,#427,.F.);
#349=ORIENTED_EDGE('',*,*,#468,.F.);
#350=ORIENTED_EDGE('',*,*,#423,.F.);
#351=ORIENTED_EDGE('',*,*,#462,.F.);
#352=ORIENTED_EDGE('',*,*,#473,.F.);
#353=ORIENTED_EDGE('',*,*,#465,.F.);
#354=ORIENTED_EDGE('',*,*,#452,.T.);
#355=ORIENTED_EDGE('',*,*,#428,.T.);
#356=ORIENTED_EDGE('',*,*,#457,.T.);
#357=ORIENTED_EDGE('',*,*,#451,.T.);
#358=ORIENTED_EDGE('',*,*,#421,.T.);
#359=ORIENTED_EDGE('',*,*,#478,.F.);
#360=ORIENTED_EDGE('',*,*,#474,.F.);
#361=ORIENTED_EDGE('',*,*,#460,.F.);
#362=ORIENTED_EDGE('',*,*,#450,.T.);
#363=ORIENTED_EDGE('',*,*,#418,.T.);
#364=ORIENTED_EDGE('',*,*,#479,.F.);
#365=ORIENTED_EDGE('',*,*,#470,.F.);
#366=ORIENTED_EDGE('',*,*,#476,.F.);
#367=ORIENTED_EDGE('',*,*,#417,.T.);
#368=ORIENTED_EDGE('',*,*,#449,.T.);
#369=ORIENTED_EDGE('',*,*,#416,.T.);
#370=ORIENTED_EDGE('',*,*,#448,.T.);
#371=VERTEX_POINT('',#683);
#372=VERTEX_POINT('',#685);
#373=VERTEX_POINT('',#687);
#374=VERTEX_POINT('',#688);
#375=VERTEX_POINT('',#690);
#376=VERTEX_POINT('',#692);
#377=VERTEX_POINT('',#694);
#378=VERTEX_POINT('',#696);
#379=VERTEX_POINT('',#698);
#380=VERTEX_POINT('',#700);
#381=VERTEX_POINT('',#702);
#382=VERTEX_POINT('',#704);
#383=VERTEX_POINT('',#707);
#384=VERTEX_POINT('',#708);
#385=VERTEX_POINT('',#710);
#386=VERTEX_POINT('',#712);
#387=VERTEX_POINT('',#714);
#388=VERTEX_POINT('',#716);
#389=VERTEX_POINT('',#720);
#390=VERTEX_POINT('',#721);
#391=VERTEX_POINT('',#723);
#392=VERTEX_POINT('',#725);
#393=VERTEX_POINT('',#727);
#394=VERTEX_POINT('',#729);
#395=VERTEX_POINT('',#733);
#396=VERTEX_POINT('',#735);
#397=VERTEX_POINT('',#739);
#398=VERTEX_POINT('',#741);
#399=VERTEX_POINT('',#743);
#400=VERTEX_POINT('',#745);
#401=VERTEX_POINT('',#749);
#402=VERTEX_POINT('',#751);
#403=VERTEX_POINT('',#753);
#404=VERTEX_POINT('',#755);
#405=VERTEX_POINT('',#757);
#406=VERTEX_POINT('',#772);
#407=VERTEX_POINT('',#774);
#408=VERTEX_POINT('',#778);
#409=VERTEX_POINT('',#779);
#410=VERTEX_POINT('',#784);
#411=VERTEX_POINT('',#786);
#412=VERTEX_POINT('',#790);
#413=VERTEX_POINT('',#791);
#414=VERTEX_POINT('',#793);
#415=VERTEX_POINT('',#798);
#416=EDGE_CURVE('',#371,#371,#480,.T.);
#417=EDGE_CURVE('',#372,#372,#481,.T.);
#418=EDGE_CURVE('',#373,#374,#482,.T.);
#419=EDGE_CURVE('',#375,#373,#100,.T.);
#420=EDGE_CURVE('',#375,#376,#483,.T.);
#421=EDGE_CURVE('',#377,#376,#484,.T.);
#422=EDGE_CURVE('',#378,#377,#101,.T.);
#423=EDGE_CURVE('',#378,#379,#485,.T.);
#424=EDGE_CURVE('',#380,#379,#102,.T.);
#425=EDGE_CURVE('',#380,#381,#486,.T.);
#426=EDGE_CURVE('',#382,#381,#103,.T.);
#427=EDGE_CURVE('',#382,#374,#487,.T.);
#428=EDGE_CURVE('',#383,#384,#488,.T.);
#429=EDGE_CURVE('',#383,#385,#104,.T.);
#430=EDGE_CURVE('',#385,#386,#105,.T.);
#431=EDGE_CURVE('',#386,#387,#106,.T.);
#432=EDGE_CURVE('',#387,#388,#107,.T.);
#433=EDGE_CURVE('',#388,#384,#108,.T.);
#434=EDGE_CURVE('',#389,#390,#109,.T.);
#435=EDGE_CURVE('',#390,#391,#110,.T.);
#436=EDGE_CURVE('',#392,#391,#111,.T.);
#437=EDGE_CURVE('',#392,#393,#112,.T.);
#438=EDGE_CURVE('',#393,#394,#113,.T.);
#439=EDGE_CURVE('',#394,#389,#114,.T.);
#440=EDGE_CURVE('',#391,#395,#115,.T.);
#441=EDGE_CURVE('',#396,#395,#116,.T.);
#442=EDGE_CURVE('',#396,#392,#117,.T.);
#443=EDGE_CURVE('',#395,#397,#118,.T.);
#444=EDGE_CURVE('',#397,#398,#119,.T.);
#445=EDGE_CURVE('',#398,#399,#120,.T.);
#446=EDGE_CURVE('',#400,#399,#121,.T.);
#447=EDGE_CURVE('',#400,#396,#122,.T.);
#448=EDGE_CURVE('',#401,#401,#489,.T.);
#449=EDGE_CURVE('',#402,#402,#490,.T.);
#450=EDGE_CURVE('',#403,#403,#491,.T.);
#451=EDGE_CURVE('',#404,#404,#492,.T.);
#452=EDGE_CURVE('',#405,#405,#493,.T.);
#453=EDGE_CURVE('',#393,#400,#123,.T.);
#454=EDGE_CURVE('',#399,#394,#124,.T.);
#455=EDGE_CURVE('',#398,#386,#125,.T.);
#456=EDGE_CURVE('',#385,#389,#126,.T.);
#457=EDGE_CURVE('',#384,#383,#43,.T.);
#458=EDGE_CURVE('',#388,#390,#127,.T.);
#459=EDGE_CURVE('',#397,#387,#128,.T.);
#460=EDGE_CURVE('',#377,#406,#129,.T.);
#461=EDGE_CURVE('',#406,#407,#130,.T.);
#462=EDGE_CURVE('',#407,#378,#131,.T.);
#463=EDGE_CURVE('',#408,#409,#132,.T.);
#464=EDGE_CURVE('',#409,#380,#133,.T.);
#465=EDGE_CURVE('',#379,#408,#134,.T.);
#466=EDGE_CURVE('',#381,#410,#135,.T.);
#467=EDGE_CURVE('',#410,#411,#136,.T.);
#468=EDGE_CURVE('',#411,#382,#137,.T.);
#469=EDGE_CURVE('',#412,#413,#138,.T.);
#470=EDGE_CURVE('',#412,#414,#494,.T.);
#471=EDGE_CURVE('',#414,#411,#495,.T.);
#472=EDGE_CURVE('',#410,#409,#496,.T.);
#473=EDGE_CURVE('',#408,#407,#497,.T.);
#474=EDGE_CURVE('',#406,#415,#498,.T.);
#475=EDGE_CURVE('',#415,#413,#499,.T.);
#476=EDGE_CURVE('',#373,#412,#139,.T.);
#477=EDGE_CURVE('',#413,#375,#140,.T.);
#478=EDGE_CURVE('',#415,#376,#141,.T.);
#479=EDGE_CURVE('',#414,#374,#142,.T.);
#480=CIRCLE('',#501,25.);
#481=CIRCLE('',#502,25.);
#482=CIRCLE('',#503,25.);
#483=CIRCLE('',#504,12.4);
#484=CIRCLE('',#505,25.);
#485=CIRCLE('',#506,12.4);
#486=CIRCLE('',#507,12.4);
#487=CIRCLE('',#508,12.4);
#488=CIRCLE('',#509,25.);
#489=CIRCLE('',#514,25.);
#490=CIRCLE('',#515,25.);
#491=CIRCLE('',#516,25.);
#492=CIRCLE('',#517,25.);
#493=CIRCLE('',#518,25.);
#494=CIRCLE('',#529,25.);
#495=CIRCLE('',#530,12.4);
#496=CIRCLE('',#531,12.4);
#497=CIRCLE('',#532,12.4);
#498=CIRCLE('',#533,25.);
#499=CIRCLE('',#534,12.4);
#500=AXIS2_PLACEMENT_3D('',#681,#546,#547);
#501=AXIS2_PLACEMENT_3D('',#682,#548,#549);
#502=AXIS2_PLACEMENT_3D('',#684,#550,#551);
#503=AXIS2_PLACEMENT_3D('',#686,#552,#553);
#504=AXIS2_PLACEMENT_3D('',#691,#555,#556);
#505=AXIS2_PLACEMENT_3D('',#693,#557,#558);
#506=AXIS2_PLACEMENT_3D('',#697,#560,#561);
#507=AXIS2_PLACEMENT_3D('',#701,#563,#564);
#508=AXIS2_PLACEMENT_3D('',#705,#566,#567);
#509=AXIS2_PLACEMENT_3D('',#706,#568,#569);
#510=AXIS2_PLACEMENT_3D('',#718,#575,#576);
#511=AXIS2_PLACEMENT_3D('',#731,#583,#584);
#512=AXIS2_PLACEMENT_3D('',#737,#588,#589);
#513=AXIS2_PLACEMENT_3D('',#747,#595,#596);
#514=AXIS2_PLACEMENT_3D('',#748,#597,#598);
#515=AXIS2_PLACEMENT_3D('',#750,#599,#600);
#516=AXIS2_PLACEMENT_3D('',#752,#601,#602);
#517=AXIS2_PLACEMENT_3D('',#754,#603,#604);
#518=AXIS2_PLACEMENT_3D('',#756,#605,#606);
#519=AXIS2_PLACEMENT_3D('',#759,#608,#609);
#520=AXIS2_PLACEMENT_3D('',#761,#611,#612);
#521=AXIS2_PLACEMENT_3D('',#764,#615,#616);
#522=AXIS2_PLACEMENT_3D('',#765,#617,#618);
#523=AXIS2_PLACEMENT_3D('',#767,#620,#621);
#524=AXIS2_PLACEMENT_3D('',#769,#623,#624);
#525=AXIS2_PLACEMENT_3D('',#770,#625,#626);
#526=AXIS2_PLACEMENT_3D('',#776,#630,#631);
#527=AXIS2_PLACEMENT_3D('',#782,#635,#636);
#528=AXIS2_PLACEMENT_3D('',#788,#640,#641);
#529=AXIS2_PLACEMENT_3D('',#792,#643,#644);
#530=AXIS2_PLACEMENT_3D('',#794,#645,#646);
#531=AXIS2_PLACEMENT_3D('',#795,#647,#648);
#532=AXIS2_PLACEMENT_3D('',#796,#649,#650);
#533=AXIS2_PLACEMENT_3D('',#797,#651,#652);
#534=AXIS2_PLACEMENT_3D('',#799,#653,#654);
#535=AXIS2_PLACEMENT_3D('',#800,#655,#656);
#536=AXIS2_PLACEMENT_3D('',#803,#659,#660);
#537=AXIS2_PLACEMENT_3D('',#805,#662,#663);
#538=AXIS2_PLACEMENT_3D('',#806,#664,#665);
#539=AXIS2_PLACEMENT_3D('',#808,#667,#668);
#540=AXIS2_PLACEMENT_3D('',#809,#669,#670);
#541=AXIS2_PLACEMENT_3D('',#810,#671,#672);
#542=AXIS2_PLACEMENT_3D('',#811,#673,#674);
#543=AXIS2_PLACEMENT_3D('',#812,#675,#676);
#544=AXIS2_PLACEMENT_3D('',#813,#677,#678);
#545=AXIS2_PLACEMENT_3D('',#814,#679,#680);
#546=DIRECTION('',(0.,0.,1.));
#547=DIRECTION('',(1.,0.,0.));
#548=DIRECTION('',(0.,0.,1.));
#549=DIRECTION('',(1.,0.,0.));
#550=DIRECTION('',(0.,0.,1.));
#551=DIRECTION('',(1.,0.,0.));
#552=DIRECTION('',(0.,0.,1.));
#553=DIRECTION('',(1.,0.,0.));
#554=DIRECTION('',(0.,1.,0.));
#555=DIRECTION('',(0.,0.,-1.));
#556=DIRECTION('',(1.,0.,0.));
#557=DIRECTION('',(0.,0.,1.));
#558=DIRECTION('',(1.,0.,0.));
#559=DIRECTION('',(1.,0.,0.));
#560=DIRECTION('',(0.,0.,-1.));
#561=DIRECTION('',(0.999999999999999,0.,0.));
#562=DIRECTION('',(0.,-1.,0.));
#563=DIRECTION('',(0.,0.,-1.));
#564=DIRECTION('',(0.999999999999999,0.,0.));
#565=DIRECTION('',(-1.,0.,0.));
#566=DIRECTION('',(0.,0.,-1.));
#567=DIRECTION('',(1.,0.,0.));
#568=DIRECTION('',(0.,0.,1.));
#569=DIRECTION('',(1.,0.,0.));
#570=DIRECTION('',(1.,0.,0.));
#571=DIRECTION('',(0.,1.,0.));
#572=DIRECTION('',(-1.,0.,0.));
#573=DIRECTION('',(0.,-1.,0.));
#574=DIRECTION('',(1.,0.,0.));
#575=DIRECTION('',(0.,0.,1.));
#576=DIRECTION('',(1.,0.,0.));
#577=DIRECTION('',(-1.,0.,0.));
#578=DIRECTION('',(-0.707106781186548,0.,-0.707106781186547));
#579=DIRECTION('',(0.,0.,1.));
#580=DIRECTION('',(1.,0.,0.));
#581=DIRECTION('',(0.,0.,1.));
#582=DIRECTION('',(-0.707106781186548,0.,0.707106781186548));
#583=DIRECTION('',(0.,-1.,0.));
#584=DIRECTION('',(0.,0.,-1.));
#585=DIRECTION('',(0.,1.,0.));
#586=DIRECTION('',(0.,0.,1.));
#587=DIRECTION('',(0.,-1.,0.));
#588=DIRECTION('',(-1.,0.,0.));
#589=DIRECTION('',(0.,0.,1.));
#590=DIRECTION('',(0.707106781186548,0.,0.707106781186547));
#591=DIRECTION('',(1.,0.,0.));
#592=DIRECTION('',(0.707106781186548,0.,-0.707106781186548));
#593=DIRECTION('',(0.,0.,1.));
#594=DIRECTION('',(-1.,0.,0.));
#595=DIRECTION('',(0.,1.,0.));
#596=DIRECTION('',(0.,0.,1.));
#597=DIRECTION('',(0.,0.,-1.));
#598=DIRECTION('',(-1.,0.,0.));
#599=DIRECTION('',(0.,0.,-1.));
#600=DIRECTION('',(-1.,0.,0.));
#601=DIRECTION('',(0.,0.,-1.));
#602=DIRECTION('',(-1.,0.,0.));
#603=DIRECTION('',(0.,0.,-1.));
#604=DIRECTION('',(-1.,0.,0.));
#605=DIRECTION('',(0.,0.,-1.));
#606=DIRECTION('',(-1.,0.,0.));
#607=DIRECTION('',(0.,1.,0.));
#608=DIRECTION('',(0.,0.,-1.));
#609=DIRECTION('',(-1.,0.,0.));
#610=DIRECTION('',(0.,-1.,0.));
#611=DIRECTION('',(1.,0.,0.));
#612=DIRECTION('',(0.,0.,-1.));
#613=DIRECTION('',(-0.577350269189626,-0.577350269189626,0.577350269189626));
#614=DIRECTION('',(0.577350269189626,-0.577350269189626,-0.577350269189626));
#615=DIRECTION('',(-0.707106781186547,0.,-0.707106781186547));
#616=DIRECTION('',(0.,-1.,0.));
#617=DIRECTION('',(0.,-0.707106781186548,0.707106781186548));
#618=DIRECTION('',(0.,-0.707106781186548,-0.707106781186548));
#619=DIRECTION('',(-0.577350269189626,-0.577350269189626,-0.577350269189626));
#620=DIRECTION('',(0.,0.707106781186547,-0.707106781186547));
#621=DIRECTION('',(-1.,0.,0.));
#622=DIRECTION('',(0.577350269189626,-0.577350269189626,0.577350269189626));
#623=DIRECTION('',(0.,-0.707106781186547,-0.707106781186547));
#624=DIRECTION('',(1.,0.,0.));
#625=DIRECTION('',(0.707106781186547,0.,-0.707106781186548));
#626=DIRECTION('',(0.,1.,0.));
#627=DIRECTION('',(0.,0.,-1.));
#628=DIRECTION('',(-1.,0.,0.));
#629=DIRECTION('',(0.,0.,1.));
#630=DIRECTION('',(0.,-1.,0.));
#631=DIRECTION('',(0.,0.,-1.));
#632=DIRECTION('',(0.,1.,0.));
#633=DIRECTION('',(0.,0.,1.));
#634=DIRECTION('',(0.,0.,-1.));
#635=DIRECTION('',(-1.,0.,0.));
#636=DIRECTION('',(0.,0.,1.));
#637=DIRECTION('',(0.,0.,-1.));
#638=DIRECTION('',(1.,0.,0.));
#639=DIRECTION('',(0.,0.,1.));
#640=DIRECTION('',(0.,1.,0.));
#641=DIRECTION('',(0.,0.,1.));
#642=DIRECTION('',(0.,-1.,0.));
#643=DIRECTION('',(0.,0.,-1.));
#644=DIRECTION('',(-1.,0.,0.));
#645=DIRECTION('',(0.,0.,1.));
#646=DIRECTION('',(-1.,0.,0.));
#647=DIRECTION('',(0.,0.,1.));
#648=DIRECTION('',(-0.999999999999999,0.,0.));
#649=DIRECTION('',(0.,0.,1.));
#650=DIRECTION('',(-0.999999999999999,0.,0.));
#651=DIRECTION('',(0.,0.,-1.));
#652=DIRECTION('',(-1.,0.,0.));
#653=DIRECTION('',(0.,0.,1.));
#654=DIRECTION('',(-1.,0.,0.));
#655=DIRECTION('',(0.,0.,-1.));
#656=DIRECTION('',(-1.,0.,0.));
#657=DIRECTION('',(0.,0.,-1.));
#658=DIRECTION('',(0.,0.,1.));
#659=DIRECTION('',(1.,0.,0.));
#660=DIRECTION('',(0.,0.,-1.));
#661=DIRECTION('',(0.,0.,1.));
#662=DIRECTION('',(0.,0.,1.));
#663=DIRECTION('',(1.,0.,0.));
#664=DIRECTION('',(0.,0.,1.));
#665=DIRECTION('',(0.999999999999999,0.,0.));
#666=DIRECTION('',(0.,0.,1.));
#667=DIRECTION('',(0.,0.,1.));
#668=DIRECTION('',(1.,0.,0.));
#669=DIRECTION('',(0.,0.,1.));
#670=DIRECTION('',(0.999999999999999,0.,0.));
#671=DIRECTION('',(0.,0.,-1.));
#672=DIRECTION('',(1.,0.,0.));
#673=DIRECTION('',(0.,0.,-1.));
#674=DIRECTION('',(1.,0.,0.));
#675=DIRECTION('',(0.,0.,-1.));
#676=DIRECTION('',(1.,0.,0.));
#677=DIRECTION('',(0.,0.,-1.));
#678=DIRECTION('',(1.,0.,0.));
#679=DIRECTION('',(0.,0.,-1.));
#680=DIRECTION('',(1.,0.,0.));
#681=CARTESIAN_POINT('',(0.,0.,0.));
#682=CARTESIAN_POINT('',(279.,281.9,135.9));
#683=CARTESIAN_POINT('',(304.,281.9,135.9));
#684=CARTESIAN_POINT('',(279.,216.7,135.9));
#685=CARTESIAN_POINT('',(304.,216.7,135.9));
#686=CARTESIAN_POINT('',(279.,151.6,135.9));
#687=CARTESIAN_POINT('',(277.,126.680128411246,135.9));
#688=CARTESIAN_POINT('',(276.881515809237,176.510078778147,135.9));
#689=CARTESIAN_POINT('',(277.,166.85,135.9));
#690=CARTESIAN_POINT('',(277.,117.2,135.9));
#691=CARTESIAN_POINT('',(264.6,117.2,135.9));
#692=CARTESIAN_POINT('',(275.47972203405,111.250911963854,135.9));
#693=CARTESIAN_POINT('',(279.,86.5,135.9));
#694=CARTESIAN_POINT('',(261.967384229074,104.8,135.9));
#695=CARTESIAN_POINT('',(190.25,104.8,135.9));
#696=CARTESIAN_POINT('',(118.8,104.8,135.9));
#697=CARTESIAN_POINT('',(118.8,117.2,135.9));
#698=CARTESIAN_POINT('',(106.4,117.2,135.9));
#699=CARTESIAN_POINT('',(106.4,166.85,135.9));
#700=CARTESIAN_POINT('',(106.4,174.8,135.9));
#701=CARTESIAN_POINT('',(118.8,174.8,135.9));
#702=CARTESIAN_POINT('',(118.8,187.2,135.9));
#703=CARTESIAN_POINT('',(190.25,187.2,135.9));
#704=CARTESIAN_POINT('',(264.6,187.2,135.9));
#705=CARTESIAN_POINT('',(264.6,174.8,135.9));
#706=CARTESIAN_POINT('',(279.,29.,135.9));
#707=CARTESIAN_POINT('',(294.768322675542,9.6,135.9));
#708=CARTESIAN_POINT('',(263.231677324458,9.6,135.9));
#709=CARTESIAN_POINT('',(190.25,9.6,135.9));
#710=CARTESIAN_POINT('',(359.4,9.6,135.9));
#711=CARTESIAN_POINT('',(359.4,166.85,135.9));
#712=CARTESIAN_POINT('',(359.4,326.1,135.9));
#713=CARTESIAN_POINT('',(190.25,326.1,135.9));
#714=CARTESIAN_POINT('',(25.1,326.1,135.9));
#715=CARTESIAN_POINT('',(25.1,166.85,135.9));
#716=CARTESIAN_POINT('',(25.1,9.6,135.9));
#717=CARTESIAN_POINT('',(190.25,9.6,135.9));
#718=CARTESIAN_POINT('',(190.25,166.85,135.9));
#719=CARTESIAN_POINT('',(190.25,0.,126.3));
#720=CARTESIAN_POINT('',(369.,0.,126.3));
#721=CARTESIAN_POINT('',(15.5,0.,126.3));
#722=CARTESIAN_POINT('',(39.725,0.,150.525));
#723=CARTESIAN_POINT('',(0.,0.,110.8));
#724=CARTESIAN_POINT('',(0.,0.,0.));
#725=CARTESIAN_POINT('',(0.,0.,0.));
#726=CARTESIAN_POINT('',(190.25,0.,0.));
#727=CARTESIAN_POINT('',(380.5,0.,0.));
#728=CARTESIAN_POINT('',(380.5,0.,0.));
#729=CARTESIAN_POINT('',(380.5,0.,114.8));
#730=CARTESIAN_POINT('',(342.775,0.,152.525));
#731=CARTESIAN_POINT('',(190.25,0.,0.));
#732=CARTESIAN_POINT('',(0.,166.85,110.8));
#733=CARTESIAN_POINT('',(0.,333.7,110.8));
#734=CARTESIAN_POINT('',(0.,333.7,0.));
#735=CARTESIAN_POINT('',(0.,333.7,0.));
#736=CARTESIAN_POINT('',(0.,166.85,0.));
#737=CARTESIAN_POINT('',(0.,166.85,0.));
#738=CARTESIAN_POINT('',(39.725,333.7,150.525));
#739=CARTESIAN_POINT('',(17.5,333.7,128.3));
#740=CARTESIAN_POINT('',(190.25,333.7,128.3));
#741=CARTESIAN_POINT('',(367.,333.7,128.3));
#742=CARTESIAN_POINT('',(342.775,333.7,152.525));
#743=CARTESIAN_POINT('',(380.5,333.7,114.8));
#744=CARTESIAN_POINT('',(380.5,333.7,0.));
#745=CARTESIAN_POINT('',(380.5,333.7,0.));
#746=CARTESIAN_POINT('',(190.25,333.7,0.));
#747=CARTESIAN_POINT('',(190.25,333.7,0.));
#748=CARTESIAN_POINT('',(279.,281.9,0.));
#749=CARTESIAN_POINT('',(254.,281.9,0.));
#750=CARTESIAN_POINT('',(279.,216.7,0.));
#751=CARTESIAN_POINT('',(254.,216.7,0.));
#752=CARTESIAN_POINT('',(279.,151.6,0.));
#753=CARTESIAN_POINT('',(254.,151.6,0.));
#754=CARTESIAN_POINT('',(279.,86.5,0.));
#755=CARTESIAN_POINT('',(254.,86.5,0.));
#756=CARTESIAN_POINT('',(279.,29.,0.));
#757=CARTESIAN_POINT('',(254.,29.,0.));
#758=CARTESIAN_POINT('',(380.5,166.85,0.));
#759=CARTESIAN_POINT('',(190.25,166.85,0.));
#760=CARTESIAN_POINT('',(380.5,166.85,114.8));
#761=CARTESIAN_POINT('',(380.5,166.85,0.));
#762=CARTESIAN_POINT('',(320.383333333333,287.083333333333,174.916666666667));
#763=CARTESIAN_POINT('',(321.05,47.95,174.25));
#764=CARTESIAN_POINT('',(380.5,166.85,114.8));
#765=CARTESIAN_POINT('',(279.,29.,155.3));
#766=CARTESIAN_POINT('',(73.75,58.25,184.55));
#767=CARTESIAN_POINT('',(190.25,0.,126.3));
#768=CARTESIAN_POINT('',(75.0833333333334,276.116666666667,185.883333333333));
#769=CARTESIAN_POINT('',(190.25,333.7,128.3));
#770=CARTESIAN_POINT('',(0.,166.85,110.8));
#771=CARTESIAN_POINT('',(261.967384229074,104.8,135.95));
#772=CARTESIAN_POINT('',(261.967384229074,104.8,98.));
#773=CARTESIAN_POINT('',(191.7,104.8,98.));
#774=CARTESIAN_POINT('',(118.8,104.8,98.));
#775=CARTESIAN_POINT('',(118.8,104.8,135.9));
#776=CARTESIAN_POINT('',(191.7,104.8,98.));
#777=CARTESIAN_POINT('',(106.4,146.,98.));
#778=CARTESIAN_POINT('',(106.4,117.2,98.));
#779=CARTESIAN_POINT('',(106.4,174.8,98.));
#780=CARTESIAN_POINT('',(106.4,174.8,135.9));
#781=CARTESIAN_POINT('',(106.4,117.2,98.));
#782=CARTESIAN_POINT('',(106.4,146.,98.));
#783=CARTESIAN_POINT('',(118.8,187.2,98.));
#784=CARTESIAN_POINT('',(118.8,187.2,98.));
#785=CARTESIAN_POINT('',(191.7,187.2,98.));
#786=CARTESIAN_POINT('',(264.6,187.2,98.));
#787=CARTESIAN_POINT('',(264.6,187.2,135.9));
#788=CARTESIAN_POINT('',(191.7,187.2,98.));
#789=CARTESIAN_POINT('',(277.,146.,98.));
#790=CARTESIAN_POINT('',(277.,126.680128411246,98.));
#791=CARTESIAN_POINT('',(277.,117.2,98.));
#792=CARTESIAN_POINT('',(279.,151.6,98.));
#793=CARTESIAN_POINT('',(276.881515809237,176.510078778147,98.));
#794=CARTESIAN_POINT('',(264.6,174.8,98.));
#795=CARTESIAN_POINT('',(118.8,174.8,98.));
#796=CARTESIAN_POINT('',(118.8,117.2,98.));
#797=CARTESIAN_POINT('',(279.,86.5,98.));
#798=CARTESIAN_POINT('',(275.47972203405,111.250911963854,98.));
#799=CARTESIAN_POINT('',(264.6,117.2,98.));
#800=CARTESIAN_POINT('',(191.7,146.,98.));
#801=CARTESIAN_POINT('',(277.,126.680128411246,135.95));
#802=CARTESIAN_POINT('',(277.,117.2,135.9));
#803=CARTESIAN_POINT('',(277.,146.,98.));
#804=CARTESIAN_POINT('',(275.47972203405,111.250911963854,67.95));
#805=CARTESIAN_POINT('',(264.6,117.2,98.));
#806=CARTESIAN_POINT('',(118.8,174.8,98.));
#807=CARTESIAN_POINT('',(276.881515809237,176.510078778147,67.95));
#808=CARTESIAN_POINT('',(264.6,174.8,98.));
#809=CARTESIAN_POINT('',(118.8,117.2,98.));
#810=CARTESIAN_POINT('',(279.,29.,135.95));
#811=CARTESIAN_POINT('',(279.,86.5,135.95));
#812=CARTESIAN_POINT('',(279.,151.6,135.95));
#813=CARTESIAN_POINT('',(279.,216.7,135.95));
#814=CARTESIAN_POINT('',(279.,281.9,135.95));
#815=MECHANICAL_DESIGN_GEOMETRIC_PRESENTATION_REPRESENTATION('',(#24),#816);
#816=(
GEOMETRIC_REPRESENTATION_CONTEXT(3)
GLOBAL_UNCERTAINTY_ASSIGNED_CONTEXT((#817))
GLOBAL_UNIT_ASSIGNED_CONTEXT((#823,#819,#818))
REPRESENTATION_CONTEXT('featured_part_08064','TOP_LEVEL_ASSEMBLY_PART')
);
#817=UNCERTAINTY_MEASURE_WITH_UNIT(LENGTH_MEASURE(2.E-5),#823,
'DISTANCE_ACCURACY_VALUE','Maximum Tolerance applied to model');
#818=(
NAMED_UNIT(*)
SI_UNIT($,.STERADIAN.)
SOLID_ANGLE_UNIT()
);
#819=(
CONVERSION_BASED_UNIT('DEGREE',#821)
NAMED_UNIT(#820)
PLANE_ANGLE_UNIT()
);
#820=DIMENSIONAL_EXPONENTS(0.,0.,0.,0.,0.,0.,0.);
#821=PLANE_ANGLE_MEASURE_WITH_UNIT(PLANE_ANGLE_MEASURE(0.0174532925),#822);
#822=(
NAMED_UNIT(*)
PLANE_ANGLE_UNIT()
SI_UNIT($,.RADIAN.)
);
#823=(
LENGTH_UNIT()
NAMED_UNIT(*)
SI_UNIT(.MILLI.,.METRE.)
);
ENDSEC;
END-ISO-10303-21;
