ISO-10303-21;
HEADER;
/* Generated by software containing ST-Developer
 * from STEP Tools, Inc. (www.steptools.com) 
 */
/* OPTION: using custom schema-name function */

FILE_DESCRIPTION(
/* description */ (''),
/* implementation_level */ '2;1');

FILE_NAME(
/* name */ 'featured_part_11317.stp',
/* time_stamp */ '2026-07-12T16:59:13-04:00',
/* author */ (''),
/* organization */ (''),
/* preprocessor_version */ 'ST-DEVELOPER v20.1',
/* originating_system */ 'SIEMENS PLM Software NX2512.6002',
/* authorisation */ '');

FILE_SCHEMA (('AUTOMOTIVE_DESIGN { 1 0 10303 214 3 1 1 1 }'));
ENDSEC;

DATA;
#10=SHAPE_REPRESENTATION_RELATIONSHIP('None',
'relationship between featured_part_11317-None and featured_part_11317
-None',#22,#11);
#11=ADVANCED_BREP_SHAPE_REPRESENTATION('featured_part_11317-None',(#32),
#625);
#12=SHAPE_DEFINITION_REPRESENTATION(#13,#22);
#13=PRODUCT_DEFINITION_SHAPE('','',#14);
#14=PRODUCT_DEFINITION(' ','',#16,#15);
#15=PRODUCT_DEFINITION_CONTEXT('part definition',#21,'design');
#16=PRODUCT_DEFINITION_FORMATION_WITH_SPECIFIED_SOURCE(' ',' ',#18,
 .NOT_KNOWN.);
#17=PRODUCT_RELATED_PRODUCT_CATEGORY('part','',(#18));
#18=PRODUCT('featured_part_11317','featured_part_11317',' ',(#19));
#19=PRODUCT_CONTEXT(' ',#21,'mechanical');
#20=APPLICATION_PROTOCOL_DEFINITION('international standard',
'automotive_design',2010,#21);
#21=APPLICATION_CONTEXT(
'core data for automotive mechanical design processes');
#22=SHAPE_REPRESENTATION('featured_part_11317-None',(#390),#625);
#23=PRESENTATION_LAYER_ASSIGNMENT('1','Layer 1',(#32));
#24=STYLED_ITEM('',(#25),#32);
#25=PRESENTATION_STYLE_ASSIGNMENT((#26));
#26=SURFACE_STYLE_USAGE(.BOTH.,#27);
#27=SURFACE_SIDE_STYLE('',(#28));
#28=SURFACE_STYLE_FILL_AREA(#29);
#29=FILL_AREA_STYLE('',(#30));
#30=FILL_AREA_STYLE_COLOUR('',#31);
#31=COLOUR_RGB('medium steel',0.611764705882353,0.658823529411765,0.670588235294118);
#32=MANIFOLD_SOLID_BREP('',#33);
#33=CLOSED_SHELL('',(#53,#54,#55,#56,#57,#58,#59,#60,#61,#62,#63,#64,#65,
#66,#67,#68,#69,#70,#71));
#34=CYLINDRICAL_SURFACE('',#409,6.5);
#35=CYLINDRICAL_SURFACE('',#417,8.6);
#36=CYLINDRICAL_SURFACE('',#418,8.6);
#37=CYLINDRICAL_SURFACE('',#419,8.1);
#38=CYLINDRICAL_SURFACE('',#420,8.1);
#39=CYLINDRICAL_SURFACE('',#421,8.1);
#40=FACE_OUTER_BOUND('',#175,.T.);
#41=FACE_OUTER_BOUND('',#176,.T.);
#42=FACE_OUTER_BOUND('',#177,.T.);
#43=FACE_OUTER_BOUND('',#182,.T.);
#44=FACE_OUTER_BOUND('',#183,.T.);
#45=FACE_OUTER_BOUND('',#184,.T.);
#46=FACE_OUTER_BOUND('',#185,.T.);
#47=FACE_OUTER_BOUND('',#186,.T.);
#48=FACE_OUTER_BOUND('',#187,.T.);
#49=FACE_OUTER_BOUND('',#188,.T.);
#50=FACE_OUTER_BOUND('',#191,.T.);
#51=FACE_OUTER_BOUND('',#192,.T.);
#52=FACE_OUTER_BOUND('',#193,.T.);
#53=ADVANCED_FACE('',(#157,#158,#159),#72,.T.);
#54=ADVANCED_FACE('',(#40),#73,.T.);
#55=ADVANCED_FACE('',(#41),#74,.T.);
#56=ADVANCED_FACE('',(#42),#75,.T.);
#57=ADVANCED_FACE('',(#160,#161,#162,#163),#76,.T.);
#58=ADVANCED_FACE('',(#43),#77,.T.);
#59=ADVANCED_FACE('',(#44),#78,.F.);
#60=ADVANCED_FACE('',(#45),#79,.F.);
#61=ADVANCED_FACE('',(#46),#80,.F.);
#62=ADVANCED_FACE('',(#47),#34,.F.);
#63=ADVANCED_FACE('',(#48),#81,.F.);
#64=ADVANCED_FACE('',(#49),#82,.F.);
#65=ADVANCED_FACE('',(#164,#165),#83,.F.);
#66=ADVANCED_FACE('',(#50),#84,.F.);
#67=ADVANCED_FACE('',(#51),#35,.F.);
#68=ADVANCED_FACE('',(#52),#36,.F.);
#69=ADVANCED_FACE('',(#166,#167),#37,.F.);
#70=ADVANCED_FACE('',(#168,#169),#38,.F.);
#71=ADVANCED_FACE('',(#170,#171),#39,.F.);
#72=PLANE('',#396);
#73=PLANE('',#397);
#74=PLANE('',#398);
#75=PLANE('',#399);
#76=PLANE('',#403);
#77=PLANE('',#404);
#78=PLANE('',#405);
#79=PLANE('',#406);
#80=PLANE('',#408);
#81=PLANE('',#410);
#82=PLANE('',#411);
#83=PLANE('',#415);
#84=PLANE('',#416);
#85=LINE('',#527,#121);
#86=LINE('',#532,#122);
#87=LINE('',#536,#123);
#88=LINE('',#538,#124);
#89=LINE('',#540,#125);
#90=LINE('',#542,#126);
#91=LINE('',#546,#127);
#92=LINE('',#548,#128);
#93=LINE('',#550,#129);
#94=LINE('',#552,#130);
#95=LINE('',#554,#131);
#96=LINE('',#556,#132);
#97=LINE('',#558,#133);
#98=LINE('',#560,#134);
#99=LINE('',#561,#135);
#100=LINE('',#563,#136);
#101=LINE('',#565,#137);
#102=LINE('',#567,#138);
#103=LINE('',#569,#139);
#104=LINE('',#571,#140);
#105=LINE('',#573,#141);
#106=LINE('',#575,#142);
#107=LINE('',#583,#143);
#108=LINE('',#585,#144);
#109=LINE('',#587,#145);
#110=LINE('',#589,#146);
#111=LINE('',#591,#147);
#112=LINE('',#593,#148);
#113=LINE('',#595,#149);
#114=LINE('',#600,#150);
#115=LINE('',#602,#151);
#116=LINE('',#604,#152);
#117=LINE('',#606,#153);
#118=LINE('',#608,#154);
#119=LINE('',#613,#155);
#120=LINE('',#617,#156);
#121=VECTOR('',#428,1.);
#122=VECTOR('',#431,1.);
#123=VECTOR('',#434,1.);
#124=VECTOR('',#435,1.);
#125=VECTOR('',#436,1.);
#126=VECTOR('',#437,1.);
#127=VECTOR('',#440,1.);
#128=VECTOR('',#441,1.);
#129=VECTOR('',#442,1.);
#130=VECTOR('',#443,1.);
#131=VECTOR('',#446,1.);
#132=VECTOR('',#447,1.);
#133=VECTOR('',#448,1.);
#134=VECTOR('',#449,1.);
#135=VECTOR('',#450,1.);
#136=VECTOR('',#451,1.);
#137=VECTOR('',#454,1.);
#138=VECTOR('',#455,1.);
#139=VECTOR('',#458,1.);
#140=VECTOR('',#459,1.);
#141=VECTOR('',#460,1.);
#142=VECTOR('',#461,1.);
#143=VECTOR('',#470,1.);
#144=VECTOR('',#473,1.);
#145=VECTOR('',#474,1.);
#146=VECTOR('',#477,1.);
#147=VECTOR('',#478,1.);
#148=VECTOR('',#481,1.);
#149=VECTOR('',#482,1.);
#150=VECTOR('',#491,1.);
#151=VECTOR('',#492,1.);
#152=VECTOR('',#495,1.);
#153=VECTOR('',#496,1.);
#154=VECTOR('',#497,1.);
#155=VECTOR('',#504,1.);
#156=VECTOR('',#509,1.);
#157=FACE_BOUND('',#172,.T.);
#158=FACE_BOUND('',#173,.T.);
#159=FACE_BOUND('',#174,.T.);
#160=FACE_BOUND('',#178,.T.);
#161=FACE_BOUND('',#179,.T.);
#162=FACE_BOUND('',#180,.T.);
#163=FACE_BOUND('',#181,.T.);
#164=FACE_BOUND('',#189,.T.);
#165=FACE_BOUND('',#190,.T.);
#166=FACE_BOUND('',#194,.T.);
#167=FACE_BOUND('',#195,.T.);
#168=FACE_BOUND('',#196,.T.);
#169=FACE_BOUND('',#197,.T.);
#170=FACE_BOUND('',#198,.T.);
#171=FACE_BOUND('',#199,.T.);
#172=EDGE_LOOP('',(#200));
#173=EDGE_LOOP('',(#201));
#174=EDGE_LOOP('',(#202,#203,#204,#205,#206,#207,#208,#209,#210,#211,#212,
#213,#214));
#175=EDGE_LOOP('',(#215,#216,#217,#218,#219,#220,#221,#222));
#176=EDGE_LOOP('',(#223,#224,#225,#226));
#177=EDGE_LOOP('',(#227,#228,#229,#230,#231,#232));
#178=EDGE_LOOP('',(#233));
#179=EDGE_LOOP('',(#234));
#180=EDGE_LOOP('',(#235));
#181=EDGE_LOOP('',(#236,#237,#238,#239));
#182=EDGE_LOOP('',(#240,#241,#242,#243,#244,#245));
#183=EDGE_LOOP('',(#246,#247,#248,#249));
#184=EDGE_LOOP('',(#250,#251,#252,#253));
#185=EDGE_LOOP('',(#254,#255,#256,#257,#258));
#186=EDGE_LOOP('',(#259,#260,#261,#262));
#187=EDGE_LOOP('',(#263,#264,#265,#266));
#188=EDGE_LOOP('',(#267,#268,#269,#270));
#189=EDGE_LOOP('',(#271));
#190=EDGE_LOOP('',(#272,#273,#274,#275,#276,#277));
#191=EDGE_LOOP('',(#278,#279,#280,#281));
#192=EDGE_LOOP('',(#282,#283,#284,#285));
#193=EDGE_LOOP('',(#286,#287,#288,#289));
#194=EDGE_LOOP('',(#290));
#195=EDGE_LOOP('',(#291));
#196=EDGE_LOOP('',(#292));
#197=EDGE_LOOP('',(#293));
#198=EDGE_LOOP('',(#294));
#199=EDGE_LOOP('',(#295));
#200=ORIENTED_EDGE('',*,*,#330,.F.);
#201=ORIENTED_EDGE('',*,*,#331,.F.);
#202=ORIENTED_EDGE('',*,*,#332,.F.);
#203=ORIENTED_EDGE('',*,*,#333,.T.);
#204=ORIENTED_EDGE('',*,*,#334,.F.);
#205=ORIENTED_EDGE('',*,*,#335,.T.);
#206=ORIENTED_EDGE('',*,*,#336,.F.);
#207=ORIENTED_EDGE('',*,*,#337,.F.);
#208=ORIENTED_EDGE('',*,*,#338,.F.);
#209=ORIENTED_EDGE('',*,*,#339,.F.);
#210=ORIENTED_EDGE('',*,*,#340,.T.);
#211=ORIENTED_EDGE('',*,*,#341,.F.);
#212=ORIENTED_EDGE('',*,*,#342,.F.);
#213=ORIENTED_EDGE('',*,*,#343,.F.);
#214=ORIENTED_EDGE('',*,*,#344,.F.);
#215=ORIENTED_EDGE('',*,*,#345,.T.);
#216=ORIENTED_EDGE('',*,*,#344,.T.);
#217=ORIENTED_EDGE('',*,*,#346,.F.);
#218=ORIENTED_EDGE('',*,*,#347,.T.);
#219=ORIENTED_EDGE('',*,*,#348,.T.);
#220=ORIENTED_EDGE('',*,*,#337,.T.);
#221=ORIENTED_EDGE('',*,*,#349,.F.);
#222=ORIENTED_EDGE('',*,*,#350,.F.);
#223=ORIENTED_EDGE('',*,*,#346,.T.);
#224=ORIENTED_EDGE('',*,*,#343,.T.);
#225=ORIENTED_EDGE('',*,*,#351,.F.);
#226=ORIENTED_EDGE('',*,*,#352,.T.);
#227=ORIENTED_EDGE('',*,*,#353,.F.);
#228=ORIENTED_EDGE('',*,*,#354,.F.);
#229=ORIENTED_EDGE('',*,*,#355,.F.);
#230=ORIENTED_EDGE('',*,*,#356,.T.);
#231=ORIENTED_EDGE('',*,*,#351,.T.);
#232=ORIENTED_EDGE('',*,*,#342,.T.);
#233=ORIENTED_EDGE('',*,*,#357,.F.);
#234=ORIENTED_EDGE('',*,*,#358,.F.);
#235=ORIENTED_EDGE('',*,*,#359,.F.);
#236=ORIENTED_EDGE('',*,*,#360,.F.);
#237=ORIENTED_EDGE('',*,*,#347,.F.);
#238=ORIENTED_EDGE('',*,*,#352,.F.);
#239=ORIENTED_EDGE('',*,*,#356,.F.);
#240=ORIENTED_EDGE('',*,*,#361,.T.);
#241=ORIENTED_EDGE('',*,*,#338,.T.);
#242=ORIENTED_EDGE('',*,*,#348,.F.);
#243=ORIENTED_EDGE('',*,*,#360,.T.);
#244=ORIENTED_EDGE('',*,*,#355,.T.);
#245=ORIENTED_EDGE('',*,*,#362,.F.);
#246=ORIENTED_EDGE('',*,*,#363,.T.);
#247=ORIENTED_EDGE('',*,*,#364,.T.);
#248=ORIENTED_EDGE('',*,*,#339,.T.);
#249=ORIENTED_EDGE('',*,*,#361,.F.);
#250=ORIENTED_EDGE('',*,*,#341,.T.);
#251=ORIENTED_EDGE('',*,*,#365,.T.);
#252=ORIENTED_EDGE('',*,*,#366,.T.);
#253=ORIENTED_EDGE('',*,*,#353,.T.);
#254=ORIENTED_EDGE('',*,*,#366,.F.);
#255=ORIENTED_EDGE('',*,*,#367,.T.);
#256=ORIENTED_EDGE('',*,*,#363,.F.);
#257=ORIENTED_EDGE('',*,*,#362,.T.);
#258=ORIENTED_EDGE('',*,*,#354,.T.);
#259=ORIENTED_EDGE('',*,*,#340,.F.);
#260=ORIENTED_EDGE('',*,*,#364,.F.);
#261=ORIENTED_EDGE('',*,*,#367,.F.);
#262=ORIENTED_EDGE('',*,*,#365,.F.);
#263=ORIENTED_EDGE('',*,*,#368,.T.);
#264=ORIENTED_EDGE('',*,*,#369,.T.);
#265=ORIENTED_EDGE('',*,*,#332,.T.);
#266=ORIENTED_EDGE('',*,*,#345,.F.);
#267=ORIENTED_EDGE('',*,*,#334,.T.);
#268=ORIENTED_EDGE('',*,*,#370,.T.);
#269=ORIENTED_EDGE('',*,*,#371,.T.);
#270=ORIENTED_EDGE('',*,*,#372,.T.);
#271=ORIENTED_EDGE('',*,*,#373,.T.);
#272=ORIENTED_EDGE('',*,*,#371,.F.);
#273=ORIENTED_EDGE('',*,*,#374,.T.);
#274=ORIENTED_EDGE('',*,*,#368,.F.);
#275=ORIENTED_EDGE('',*,*,#350,.T.);
#276=ORIENTED_EDGE('',*,*,#375,.F.);
#277=ORIENTED_EDGE('',*,*,#376,.T.);
#278=ORIENTED_EDGE('',*,*,#336,.T.);
#279=ORIENTED_EDGE('',*,*,#377,.T.);
#280=ORIENTED_EDGE('',*,*,#375,.T.);
#281=ORIENTED_EDGE('',*,*,#349,.T.);
#282=ORIENTED_EDGE('',*,*,#333,.F.);
#283=ORIENTED_EDGE('',*,*,#369,.F.);
#284=ORIENTED_EDGE('',*,*,#374,.F.);
#285=ORIENTED_EDGE('',*,*,#370,.F.);
#286=ORIENTED_EDGE('',*,*,#335,.F.);
#287=ORIENTED_EDGE('',*,*,#372,.F.);
#288=ORIENTED_EDGE('',*,*,#376,.F.);
#289=ORIENTED_EDGE('',*,*,#377,.F.);
#290=ORIENTED_EDGE('',*,*,#331,.T.);
#291=ORIENTED_EDGE('',*,*,#359,.T.);
#292=ORIENTED_EDGE('',*,*,#330,.T.);
#293=ORIENTED_EDGE('',*,*,#358,.T.);
#294=ORIENTED_EDGE('',*,*,#357,.T.);
#295=ORIENTED_EDGE('',*,*,#373,.F.);
#296=VERTEX_POINT('',#524);
#297=VERTEX_POINT('',#526);
#298=VERTEX_POINT('',#528);
#299=VERTEX_POINT('',#529);
#300=VERTEX_POINT('',#531);
#301=VERTEX_POINT('',#533);
#302=VERTEX_POINT('',#535);
#303=VERTEX_POINT('',#537);
#304=VERTEX_POINT('',#539);
#305=VERTEX_POINT('',#541);
#306=VERTEX_POINT('',#543);
#307=VERTEX_POINT('',#545);
#308=VERTEX_POINT('',#547);
#309=VERTEX_POINT('',#549);
#310=VERTEX_POINT('',#551);
#311=VERTEX_POINT('',#555);
#312=VERTEX_POINT('',#557);
#313=VERTEX_POINT('',#559);
#314=VERTEX_POINT('',#562);
#315=VERTEX_POINT('',#566);
#316=VERTEX_POINT('',#570);
#317=VERTEX_POINT('',#572);
#318=VERTEX_POINT('',#574);
#319=VERTEX_POINT('',#578);
#320=VERTEX_POINT('',#580);
#321=VERTEX_POINT('',#582);
#322=VERTEX_POINT('',#586);
#323=VERTEX_POINT('',#590);
#324=VERTEX_POINT('',#594);
#325=VERTEX_POINT('',#601);
#326=VERTEX_POINT('',#605);
#327=VERTEX_POINT('',#607);
#328=VERTEX_POINT('',#611);
#329=VERTEX_POINT('',#614);
#330=EDGE_CURVE('',#296,#296,#378,.T.);
#331=EDGE_CURVE('',#297,#297,#379,.T.);
#332=EDGE_CURVE('',#298,#299,#85,.T.);
#333=EDGE_CURVE('',#298,#300,#380,.T.);
#334=EDGE_CURVE('',#301,#300,#86,.T.);
#335=EDGE_CURVE('',#301,#302,#381,.T.);
#336=EDGE_CURVE('',#303,#302,#87,.T.);
#337=EDGE_CURVE('',#304,#303,#88,.T.);
#338=EDGE_CURVE('',#305,#304,#89,.T.);
#339=EDGE_CURVE('',#306,#305,#90,.T.);
#340=EDGE_CURVE('',#306,#307,#382,.T.);
#341=EDGE_CURVE('',#308,#307,#91,.T.);
#342=EDGE_CURVE('',#309,#308,#92,.T.);
#343=EDGE_CURVE('',#310,#309,#93,.T.);
#344=EDGE_CURVE('',#299,#310,#94,.T.);
#345=EDGE_CURVE('',#311,#299,#95,.T.);
#346=EDGE_CURVE('',#312,#310,#96,.T.);
#347=EDGE_CURVE('',#312,#313,#97,.T.);
#348=EDGE_CURVE('',#313,#304,#98,.T.);
#349=EDGE_CURVE('',#314,#303,#99,.T.);
#350=EDGE_CURVE('',#311,#314,#100,.T.);
#351=EDGE_CURVE('',#315,#309,#101,.T.);
#352=EDGE_CURVE('',#315,#312,#102,.T.);
#353=EDGE_CURVE('',#316,#308,#103,.T.);
#354=EDGE_CURVE('',#317,#316,#104,.T.);
#355=EDGE_CURVE('',#318,#317,#105,.T.);
#356=EDGE_CURVE('',#318,#315,#106,.T.);
#357=EDGE_CURVE('',#319,#319,#383,.T.);
#358=EDGE_CURVE('',#320,#320,#384,.T.);
#359=EDGE_CURVE('',#321,#321,#385,.T.);
#360=EDGE_CURVE('',#313,#318,#107,.T.);
#361=EDGE_CURVE('',#322,#305,#108,.T.);
#362=EDGE_CURVE('',#322,#317,#109,.T.);
#363=EDGE_CURVE('',#322,#323,#110,.T.);
#364=EDGE_CURVE('',#323,#306,#111,.T.);
#365=EDGE_CURVE('',#307,#324,#112,.T.);
#366=EDGE_CURVE('',#324,#316,#113,.T.);
#367=EDGE_CURVE('',#324,#323,#386,.T.);
#368=EDGE_CURVE('',#311,#325,#114,.T.);
#369=EDGE_CURVE('',#325,#298,#115,.T.);
#370=EDGE_CURVE('',#300,#326,#116,.T.);
#371=EDGE_CURVE('',#326,#327,#117,.T.);
#372=EDGE_CURVE('',#327,#301,#118,.T.);
#373=EDGE_CURVE('',#328,#328,#387,.T.);
#374=EDGE_CURVE('',#326,#325,#388,.T.);
#375=EDGE_CURVE('',#329,#314,#119,.T.);
#376=EDGE_CURVE('',#329,#327,#389,.T.);
#377=EDGE_CURVE('',#302,#329,#120,.T.);
#378=CIRCLE('',#391,8.1);
#379=CIRCLE('',#392,8.1);
#380=CIRCLE('',#393,8.6);
#381=CIRCLE('',#394,8.6);
#382=CIRCLE('',#395,6.5);
#383=CIRCLE('',#400,8.1);
#384=CIRCLE('',#401,8.1);
#385=CIRCLE('',#402,8.1);
#386=CIRCLE('',#407,6.5);
#387=CIRCLE('',#412,8.1);
#388=CIRCLE('',#413,8.6);
#389=CIRCLE('',#414,8.6);
#390=AXIS2_PLACEMENT_3D('',#522,#422,#423);
#391=AXIS2_PLACEMENT_3D('',#523,#424,#425);
#392=AXIS2_PLACEMENT_3D('',#525,#426,#427);
#393=AXIS2_PLACEMENT_3D('',#530,#429,#430);
#394=AXIS2_PLACEMENT_3D('',#534,#432,#433);
#395=AXIS2_PLACEMENT_3D('',#544,#438,#439);
#396=AXIS2_PLACEMENT_3D('',#553,#444,#445);
#397=AXIS2_PLACEMENT_3D('',#564,#452,#453);
#398=AXIS2_PLACEMENT_3D('',#568,#456,#457);
#399=AXIS2_PLACEMENT_3D('',#576,#462,#463);
#400=AXIS2_PLACEMENT_3D('',#577,#464,#465);
#401=AXIS2_PLACEMENT_3D('',#579,#466,#467);
#402=AXIS2_PLACEMENT_3D('',#581,#468,#469);
#403=AXIS2_PLACEMENT_3D('',#584,#471,#472);
#404=AXIS2_PLACEMENT_3D('',#588,#475,#476);
#405=AXIS2_PLACEMENT_3D('',#592,#479,#480);
#406=AXIS2_PLACEMENT_3D('',#596,#483,#484);
#407=AXIS2_PLACEMENT_3D('',#597,#485,#486);
#408=AXIS2_PLACEMENT_3D('',#598,#487,#488);
#409=AXIS2_PLACEMENT_3D('',#599,#489,#490);
#410=AXIS2_PLACEMENT_3D('',#603,#493,#494);
#411=AXIS2_PLACEMENT_3D('',#609,#498,#499);
#412=AXIS2_PLACEMENT_3D('',#610,#500,#501);
#413=AXIS2_PLACEMENT_3D('',#612,#502,#503);
#414=AXIS2_PLACEMENT_3D('',#615,#505,#506);
#415=AXIS2_PLACEMENT_3D('',#616,#507,#508);
#416=AXIS2_PLACEMENT_3D('',#618,#510,#511);
#417=AXIS2_PLACEMENT_3D('',#619,#512,#513);
#418=AXIS2_PLACEMENT_3D('',#620,#514,#515);
#419=AXIS2_PLACEMENT_3D('',#621,#516,#517);
#420=AXIS2_PLACEMENT_3D('',#622,#518,#519);
#421=AXIS2_PLACEMENT_3D('',#623,#520,#521);
#422=DIRECTION('',(0.,0.,1.));
#423=DIRECTION('',(1.,0.,0.));
#424=DIRECTION('',(0.,0.,1.));
#425=DIRECTION('',(1.,0.,0.));
#426=DIRECTION('',(0.,0.,1.));
#427=DIRECTION('',(1.,0.,0.));
#428=DIRECTION('',(0.,-1.,0.));
#429=DIRECTION('',(0.,0.,-1.));
#430=DIRECTION('',(1.,0.,0.));
#431=DIRECTION('',(-1.,0.,0.));
#432=DIRECTION('',(0.,0.,-1.));
#433=DIRECTION('',(1.,0.,0.));
#434=DIRECTION('',(0.,1.,0.));
#435=DIRECTION('',(-1.,0.,0.));
#436=DIRECTION('',(0.,-1.,0.));
#437=DIRECTION('',(1.,0.,0.));
#438=DIRECTION('',(0.,0.,-1.));
#439=DIRECTION('',(1.,0.,0.));
#440=DIRECTION('',(0.,-1.,0.));
#441=DIRECTION('',(1.,0.,0.));
#442=DIRECTION('',(0.,1.,0.));
#443=DIRECTION('',(-1.,0.,0.));
#444=DIRECTION('',(0.,0.,1.));
#445=DIRECTION('',(1.,0.,0.));
#446=DIRECTION('',(0.,0.,1.));
#447=DIRECTION('',(0.,0.,1.));
#448=DIRECTION('',(1.,0.,0.));
#449=DIRECTION('',(0.,0.,1.));
#450=DIRECTION('',(0.,0.,1.));
#451=DIRECTION('',(1.,0.,0.));
#452=DIRECTION('',(0.,-1.,0.));
#453=DIRECTION('',(0.,0.,-1.));
#454=DIRECTION('',(0.,0.,1.));
#455=DIRECTION('',(0.,-1.,0.));
#456=DIRECTION('',(-1.,0.,0.));
#457=DIRECTION('',(0.,0.,1.));
#458=DIRECTION('',(0.,0.,1.));
#459=DIRECTION('',(-1.,0.,0.));
#460=DIRECTION('',(0.,0.,1.));
#461=DIRECTION('',(-1.,0.,0.));
#462=DIRECTION('',(0.,1.,0.));
#463=DIRECTION('',(0.,0.,1.));
#464=DIRECTION('',(0.,0.,-1.));
#465=DIRECTION('',(-1.,0.,0.));
#466=DIRECTION('',(0.,0.,-1.));
#467=DIRECTION('',(-1.,0.,0.));
#468=DIRECTION('',(0.,0.,-1.));
#469=DIRECTION('',(-1.,0.,0.));
#470=DIRECTION('',(0.,1.,0.));
#471=DIRECTION('',(0.,0.,-1.));
#472=DIRECTION('',(-1.,0.,0.));
#473=DIRECTION('',(0.,0.,1.));
#474=DIRECTION('',(0.,1.,0.));
#475=DIRECTION('',(1.,0.,0.));
#476=DIRECTION('',(0.,0.,-1.));
#477=DIRECTION('',(-1.,0.,0.));
#478=DIRECTION('',(0.,0.,1.));
#479=DIRECTION('',(0.,-1.,0.));
#480=DIRECTION('',(0.,0.,-1.));
#481=DIRECTION('',(0.,0.,-1.));
#482=DIRECTION('',(0.,1.,0.));
#483=DIRECTION('',(-1.,0.,0.));
#484=DIRECTION('',(0.,0.,1.));
#485=DIRECTION('',(0.,0.,1.));
#486=DIRECTION('',(-1.,0.,0.));
#487=DIRECTION('',(0.,0.,-1.));
#488=DIRECTION('',(-1.,0.,0.));
#489=DIRECTION('',(0.,0.,1.));
#490=DIRECTION('',(1.,0.,0.));
#491=DIRECTION('',(0.,1.,0.));
#492=DIRECTION('',(0.,0.,1.));
#493=DIRECTION('',(-1.,0.,0.));
#494=DIRECTION('',(0.,0.,1.));
#495=DIRECTION('',(0.,0.,-1.));
#496=DIRECTION('',(1.,0.,0.));
#497=DIRECTION('',(0.,0.,1.));
#498=DIRECTION('',(0.,1.,0.));
#499=DIRECTION('',(0.,0.,1.));
#500=DIRECTION('',(0.,0.,-1.));
#501=DIRECTION('',(-1.,0.,0.));
#502=DIRECTION('',(0.,0.,1.));
#503=DIRECTION('',(-1.,0.,0.));
#504=DIRECTION('',(0.,-1.,0.));
#505=DIRECTION('',(0.,0.,1.));
#506=DIRECTION('',(-1.,0.,0.));
#507=DIRECTION('',(0.,0.,-1.));
#508=DIRECTION('',(-1.,0.,0.));
#509=DIRECTION('',(0.,0.,-1.));
#510=DIRECTION('',(1.,0.,0.));
#511=DIRECTION('',(0.,0.,-1.));
#512=DIRECTION('',(0.,0.,1.));
#513=DIRECTION('',(1.,0.,0.));
#514=DIRECTION('',(0.,0.,1.));
#515=DIRECTION('',(1.,0.,0.));
#516=DIRECTION('',(0.,0.,-1.));
#517=DIRECTION('',(1.,0.,0.));
#518=DIRECTION('',(0.,0.,-1.));
#519=DIRECTION('',(1.,0.,0.));
#520=DIRECTION('',(0.,0.,-1.));
#521=DIRECTION('',(1.,0.,0.));
#522=CARTESIAN_POINT('',(0.,0.,0.));
#523=CARTESIAN_POINT('',(136.8,222.4,92.2));
#524=CARTESIAN_POINT('',(144.9,222.4,92.2));
#525=CARTESIAN_POINT('',(318.3,184.9,92.2));
#526=CARTESIAN_POINT('',(326.4,184.9,92.2));
#527=CARTESIAN_POINT('',(89.,151.25,92.2));
#528=CARTESIAN_POINT('',(89.,56.3,92.2));
#529=CARTESIAN_POINT('',(89.,0.,92.2));
#530=CARTESIAN_POINT('',(97.6,56.3,92.2));
#531=CARTESIAN_POINT('',(97.6,64.9,92.2));
#532=CARTESIAN_POINT('',(216.75,64.9,92.2));
#533=CARTESIAN_POINT('',(273.,64.9,92.2));
#534=CARTESIAN_POINT('',(273.,56.3,92.2));
#535=CARTESIAN_POINT('',(281.6,56.3,92.2));
#536=CARTESIAN_POINT('',(281.6,151.25,92.2));
#537=CARTESIAN_POINT('',(281.6,0.,92.2));
#538=CARTESIAN_POINT('',(216.75,0.,92.2));
#539=CARTESIAN_POINT('',(433.5,0.,92.2));
#540=CARTESIAN_POINT('',(433.5,151.25,92.2));
#541=CARTESIAN_POINT('',(433.5,196.9,92.2));
#542=CARTESIAN_POINT('',(216.75,196.9,92.2));
#543=CARTESIAN_POINT('',(307.6,196.9,92.2));
#544=CARTESIAN_POINT('',(307.6,203.4,92.2));
#545=CARTESIAN_POINT('',(301.1,203.4,92.2));
#546=CARTESIAN_POINT('',(301.1,151.25,92.2));
#547=CARTESIAN_POINT('',(301.1,302.5,92.2));
#548=CARTESIAN_POINT('',(216.75,302.5,92.2));
#549=CARTESIAN_POINT('',(0.,302.5,92.2));
#550=CARTESIAN_POINT('',(0.,151.25,92.2));
#551=CARTESIAN_POINT('',(0.,0.,92.2));
#552=CARTESIAN_POINT('',(216.75,0.,92.2));
#553=CARTESIAN_POINT('',(216.75,151.25,92.2));
#554=CARTESIAN_POINT('',(89.,0.,61.1));
#555=CARTESIAN_POINT('',(89.,0.,61.1));
#556=CARTESIAN_POINT('',(0.,0.,0.));
#557=CARTESIAN_POINT('',(0.,0.,0.));
#558=CARTESIAN_POINT('',(216.75,0.,0.));
#559=CARTESIAN_POINT('',(433.5,0.,0.));
#560=CARTESIAN_POINT('',(433.5,0.,0.));
#561=CARTESIAN_POINT('',(281.6,0.,61.1));
#562=CARTESIAN_POINT('',(281.6,0.,61.1));
#563=CARTESIAN_POINT('',(185.3,0.,61.1));
#564=CARTESIAN_POINT('',(216.75,0.,0.));
#565=CARTESIAN_POINT('',(0.,302.5,0.));
#566=CARTESIAN_POINT('',(0.,302.5,0.));
#567=CARTESIAN_POINT('',(0.,151.25,0.));
#568=CARTESIAN_POINT('',(0.,151.25,0.));
#569=CARTESIAN_POINT('',(301.1,302.5,69.7));
#570=CARTESIAN_POINT('',(301.1,302.5,69.7));
#571=CARTESIAN_POINT('',(367.3,302.5,69.7));
#572=CARTESIAN_POINT('',(433.5,302.5,69.7));
#573=CARTESIAN_POINT('',(433.5,302.5,0.));
#574=CARTESIAN_POINT('',(433.5,302.5,0.));
#575=CARTESIAN_POINT('',(216.75,302.5,0.));
#576=CARTESIAN_POINT('',(216.75,302.5,0.));
#577=CARTESIAN_POINT('',(195.1,46.5,0.));
#578=CARTESIAN_POINT('',(187.,46.5,0.));
#579=CARTESIAN_POINT('',(136.8,222.4,0.));
#580=CARTESIAN_POINT('',(128.7,222.4,0.));
#581=CARTESIAN_POINT('',(318.3,184.9,0.));
#582=CARTESIAN_POINT('',(310.2,184.9,0.));
#583=CARTESIAN_POINT('',(433.5,151.25,0.));
#584=CARTESIAN_POINT('',(216.75,151.25,0.));
#585=CARTESIAN_POINT('',(433.5,196.9,69.7));
#586=CARTESIAN_POINT('',(433.5,196.9,69.7));
#587=CARTESIAN_POINT('',(433.5,249.7,69.7));
#588=CARTESIAN_POINT('',(433.5,151.25,0.));
#589=CARTESIAN_POINT('',(367.3,196.9,69.7));
#590=CARTESIAN_POINT('',(307.6,196.9,69.7));
#591=CARTESIAN_POINT('',(307.6,196.9,92.2));
#592=CARTESIAN_POINT('',(367.3,196.9,69.7));
#593=CARTESIAN_POINT('',(301.1,203.4,69.7));
#594=CARTESIAN_POINT('',(301.1,203.4,69.7));
#595=CARTESIAN_POINT('',(301.1,249.7,69.7));
#596=CARTESIAN_POINT('',(301.1,249.7,69.7));
#597=CARTESIAN_POINT('',(307.6,203.4,69.7));
#598=CARTESIAN_POINT('',(367.3,249.7,69.7));
#599=CARTESIAN_POINT('',(307.6,203.4,69.7));
#600=CARTESIAN_POINT('',(89.,32.45,61.1));
#601=CARTESIAN_POINT('',(89.,56.3,61.1));
#602=CARTESIAN_POINT('',(89.,56.3,92.2));
#603=CARTESIAN_POINT('',(89.,32.45,61.1));
#604=CARTESIAN_POINT('',(97.6,64.9,61.1));
#605=CARTESIAN_POINT('',(97.6,64.9,61.1));
#606=CARTESIAN_POINT('',(185.3,64.9,61.1));
#607=CARTESIAN_POINT('',(273.,64.9,61.1));
#608=CARTESIAN_POINT('',(273.,64.9,92.2));
#609=CARTESIAN_POINT('',(185.3,64.9,61.1));
#610=CARTESIAN_POINT('',(195.1,46.5,61.1));
#611=CARTESIAN_POINT('',(187.,46.5,61.1));
#612=CARTESIAN_POINT('',(97.6,56.3,61.1));
#613=CARTESIAN_POINT('',(281.6,32.45,61.1));
#614=CARTESIAN_POINT('',(281.6,56.3,61.1));
#615=CARTESIAN_POINT('',(273.,56.3,61.1));
#616=CARTESIAN_POINT('',(185.3,32.45,61.1));
#617=CARTESIAN_POINT('',(281.6,56.3,61.1));
#618=CARTESIAN_POINT('',(281.6,32.45,61.1));
#619=CARTESIAN_POINT('',(97.6,56.3,61.1));
#620=CARTESIAN_POINT('',(273.,56.3,61.1));
#621=CARTESIAN_POINT('',(318.3,184.9,92.25));
#622=CARTESIAN_POINT('',(136.8,222.4,92.25));
#623=CARTESIAN_POINT('',(195.1,46.5,92.25));
#624=MECHANICAL_DESIGN_GEOMETRIC_PRESENTATION_REPRESENTATION('',(#24),#625);
#625=(
GEOMETRIC_REPRESENTATION_CONTEXT(3)
GLOBAL_UNCERTAINTY_ASSIGNED_CONTEXT((#626))
GLOBAL_UNIT_ASSIGNED_CONTEXT((#632,#628,#627))
REPRESENTATION_CONTEXT('featured_part_11317','TOP_LEVEL_ASSEMBLY_PART')
);
#626=UNCERTAINTY_MEASURE_WITH_UNIT(LENGTH_MEASURE(2.E-5),#632,
'DISTANCE_ACCURACY_VALUE','Maximum Tolerance applied to model');
#627=(
NAMED_UNIT(*)
SI_UNIT($,.STERADIAN.)
SOLID_ANGLE_UNIT()
);
#628=(
CONVERSION_BASED_UNIT('DEGREE',#630)
NAMED_UNIT(#629)
PLANE_ANGLE_UNIT()
);
#629=DIMENSIONAL_EXPONENTS(0.,0.,0.,0.,0.,0.,0.);
#630=PLANE_ANGLE_MEASURE_WITH_UNIT(PLANE_ANGLE_MEASURE(0.0174532925),#631);
#631=(
NAMED_UNIT(*)
PLANE_ANGLE_UNIT()
SI_UNIT($,.RADIAN.)
);
#632=(
LENGTH_UNIT()
NAMED_UNIT(*)
SI_UNIT(.MILLI.,.METRE.)
);
ENDSEC;
END-ISO-10303-21;
