ISO-10303-21;
HEADER;
/* Generated by software containing ST-Developer
 * from STEP Tools, Inc. (www.steptools.com) 
 */
/* OPTION: using custom schema-name function */

FILE_DESCRIPTION(
/* description */ (''),
/* implementation_level */ '2;1');

FILE_NAME(
/* name */ 'featured_part_05727.stp',
/* time_stamp */ '2026-07-08T08:26:11-04:00',
/* author */ (''),
/* organization */ (''),
/* preprocessor_version */ 'ST-DEVELOPER v20.1',
/* originating_system */ 'SIEMENS PLM Software NX2512.6002',
/* authorisation */ '');

FILE_SCHEMA (('AUTOMOTIVE_DESIGN { 1 0 10303 214 3 1 1 1 }'));
ENDSEC;

DATA;
#10=SHAPE_REPRESENTATION_RELATIONSHIP('None',
'relationship between featured_part_05727-None and featured_part_05727
-None',#22,#11);
#11=ADVANCED_BREP_SHAPE_REPRESENTATION('featured_part_05727-None',(#32),
#861);
#12=SHAPE_DEFINITION_REPRESENTATION(#13,#22);
#13=PRODUCT_DEFINITION_SHAPE('','',#14);
#14=PRODUCT_DEFINITION(' ','',#16,#15);
#15=PRODUCT_DEFINITION_CONTEXT('part definition',#21,'design');
#16=PRODUCT_DEFINITION_FORMATION_WITH_SPECIFIED_SOURCE(' ',' ',#18,
 .NOT_KNOWN.);
#17=PRODUCT_RELATED_PRODUCT_CATEGORY('part','',(#18));
#18=PRODUCT('featured_part_05727','featured_part_05727',' ',(#19));
#19=PRODUCT_CONTEXT(' ',#21,'mechanical');
#20=APPLICATION_PROTOCOL_DEFINITION('international standard',
'automotive_design',2010,#21);
#21=APPLICATION_CONTEXT(
'core data for automotive mechanical design processes');
#22=SHAPE_REPRESENTATION('featured_part_05727-None',(#533),#861);
#23=PRESENTATION_LAYER_ASSIGNMENT('1','Layer 1',(#32));
#24=STYLED_ITEM('',(#25),#32);
#25=PRESENTATION_STYLE_ASSIGNMENT((#26));
#26=SURFACE_STYLE_USAGE(.BOTH.,#27);
#27=SURFACE_SIDE_STYLE('',(#28));
#28=SURFACE_STYLE_FILL_AREA(#29);
#29=FILL_AREA_STYLE('',(#30));
#30=FILL_AREA_STYLE_COLOUR('',#31);
#31=COLOUR_RGB('medium steel',0.611764705882353,0.658823529411765,0.670588235294118);
#32=MANIFOLD_SOLID_BREP('',#33);
#33=CLOSED_SHELL('',(#60,#61,#62,#63,#64,#65,#66,#67,#68,#69,#70,#71,#72,
#73,#74,#75,#76,#77,#78,#79,#80,#81,#82,#83,#84,#85,#86,#87));
#34=CYLINDRICAL_SURFACE('',#565,6.5);
#35=CYLINDRICAL_SURFACE('',#566,6.5);
#36=CYLINDRICAL_SURFACE('',#567,6.5);
#37=CYLINDRICAL_SURFACE('',#568,6.5);
#38=CYLINDRICAL_SURFACE('',#571,7.85);
#39=CYLINDRICAL_SURFACE('',#574,7.85);
#40=FACE_BOUND('',#138,.T.);
#41=FACE_BOUND('',#139,.T.);
#42=FACE_BOUND('',#140,.T.);
#43=FACE_BOUND('',#162,.T.);
#44=FACE_BOUND('',#163,.T.);
#45=FACE_BOUND('',#165,.T.);
#46=FACE_BOUND('',#166,.T.);
#47=CIRCLE('',#537,7.85);
#48=CIRCLE('',#538,6.5);
#49=CIRCLE('',#539,6.5);
#50=CIRCLE('',#540,6.5);
#51=CIRCLE('',#541,6.5);
#52=CIRCLE('',#542,7.85);
#53=CIRCLE('',#558,7.85);
#54=CIRCLE('',#559,6.5);
#55=CIRCLE('',#560,6.5);
#56=CIRCLE('',#561,6.5);
#57=CIRCLE('',#562,6.5);
#58=CIRCLE('',#569,7.85);
#59=CIRCLE('',#572,7.85);
#60=ADVANCED_FACE('',(#110),#88,.F.);
#61=ADVANCED_FACE('',(#111),#89,.F.);
#62=ADVANCED_FACE('',(#112),#90,.F.);
#63=ADVANCED_FACE('',(#40,#41,#42),#91,.T.);
#64=ADVANCED_FACE('',(#113),#92,.T.);
#65=ADVANCED_FACE('',(#114),#93,.T.);
#66=ADVANCED_FACE('',(#115),#94,.T.);
#67=ADVANCED_FACE('',(#116),#95,.T.);
#68=ADVANCED_FACE('',(#117),#96,.T.);
#69=ADVANCED_FACE('',(#118),#97,.F.);
#70=ADVANCED_FACE('',(#119),#98,.F.);
#71=ADVANCED_FACE('',(#120),#99,.F.);
#72=ADVANCED_FACE('',(#121),#100,.F.);
#73=ADVANCED_FACE('',(#122),#101,.F.);
#74=ADVANCED_FACE('',(#123),#102,.F.);
#75=ADVANCED_FACE('',(#124),#103,.F.);
#76=ADVANCED_FACE('',(#125),#104,.F.);
#77=ADVANCED_FACE('',(#126),#105,.F.);
#78=ADVANCED_FACE('',(#127),#106,.F.);
#79=ADVANCED_FACE('',(#128),#107,.F.);
#80=ADVANCED_FACE('',(#129),#34,.F.);
#81=ADVANCED_FACE('',(#130),#35,.F.);
#82=ADVANCED_FACE('',(#131),#36,.F.);
#83=ADVANCED_FACE('',(#132),#37,.F.);
#84=ADVANCED_FACE('',(#133),#108,.F.);
#85=ADVANCED_FACE('',(#43,#44),#38,.F.);
#86=ADVANCED_FACE('',(#134),#109,.F.);
#87=ADVANCED_FACE('',(#45,#46),#39,.F.);
#88=PLANE('',#534);
#89=PLANE('',#535);
#90=PLANE('',#536);
#91=PLANE('',#543);
#92=PLANE('',#544);
#93=PLANE('',#545);
#94=PLANE('',#546);
#95=PLANE('',#547);
#96=PLANE('',#548);
#97=PLANE('',#549);
#98=PLANE('',#550);
#99=PLANE('',#551);
#100=PLANE('',#552);
#101=PLANE('',#553);
#102=PLANE('',#554);
#103=PLANE('',#555);
#104=PLANE('',#556);
#105=PLANE('',#557);
#106=PLANE('',#563);
#107=PLANE('',#564);
#108=PLANE('',#570);
#109=PLANE('',#573);
#110=FACE_OUTER_BOUND('',#135,.T.);
#111=FACE_OUTER_BOUND('',#136,.T.);
#112=FACE_OUTER_BOUND('',#137,.T.);
#113=FACE_OUTER_BOUND('',#141,.T.);
#114=FACE_OUTER_BOUND('',#142,.T.);
#115=FACE_OUTER_BOUND('',#143,.T.);
#116=FACE_OUTER_BOUND('',#144,.T.);
#117=FACE_OUTER_BOUND('',#145,.T.);
#118=FACE_OUTER_BOUND('',#146,.T.);
#119=FACE_OUTER_BOUND('',#147,.T.);
#120=FACE_OUTER_BOUND('',#148,.T.);
#121=FACE_OUTER_BOUND('',#149,.T.);
#122=FACE_OUTER_BOUND('',#150,.T.);
#123=FACE_OUTER_BOUND('',#151,.T.);
#124=FACE_OUTER_BOUND('',#152,.T.);
#125=FACE_OUTER_BOUND('',#153,.T.);
#126=FACE_OUTER_BOUND('',#154,.T.);
#127=FACE_OUTER_BOUND('',#155,.T.);
#128=FACE_OUTER_BOUND('',#156,.T.);
#129=FACE_OUTER_BOUND('',#157,.T.);
#130=FACE_OUTER_BOUND('',#158,.T.);
#131=FACE_OUTER_BOUND('',#159,.T.);
#132=FACE_OUTER_BOUND('',#160,.T.);
#133=FACE_OUTER_BOUND('',#161,.T.);
#134=FACE_OUTER_BOUND('',#164,.T.);
#135=EDGE_LOOP('',(#167,#168,#169,#170));
#136=EDGE_LOOP('',(#171,#172,#173,#174));
#137=EDGE_LOOP('',(#175,#176,#177,#178));
#138=EDGE_LOOP('',(#179,#180,#181,#182,#183,#184,#185,#186,#187,#188));
#139=EDGE_LOOP('',(#189));
#140=EDGE_LOOP('',(#190,#191,#192,#193));
#141=EDGE_LOOP('',(#194,#195,#196,#197,#198,#199));
#142=EDGE_LOOP('',(#200,#201,#202,#203,#204,#205,#206,#207,#208));
#143=EDGE_LOOP('',(#209,#210,#211,#212));
#144=EDGE_LOOP('',(#213,#214,#215,#216));
#145=EDGE_LOOP('',(#217,#218,#219,#220,#221,#222,#223,#224,#225));
#146=EDGE_LOOP('',(#226,#227,#228));
#147=EDGE_LOOP('',(#229,#230,#231));
#148=EDGE_LOOP('',(#232,#233,#234,#235,#236,#237));
#149=EDGE_LOOP('',(#238,#239,#240,#241,#242,#243));
#150=EDGE_LOOP('',(#244,#245,#246,#247,#248,#249));
#151=EDGE_LOOP('',(#250,#251,#252,#253));
#152=EDGE_LOOP('',(#254,#255,#256,#257));
#153=EDGE_LOOP('',(#258,#259,#260,#261));
#154=EDGE_LOOP('',(#262,#263,#264,#265));
#155=EDGE_LOOP('',(#266,#267,#268,#269,#270,#271,#272,#273,#274,#275));
#156=EDGE_LOOP('',(#276,#277,#278,#279));
#157=EDGE_LOOP('',(#280,#281,#282,#283));
#158=EDGE_LOOP('',(#284,#285,#286,#287));
#159=EDGE_LOOP('',(#288,#289,#290,#291));
#160=EDGE_LOOP('',(#292,#293,#294,#295));
#161=EDGE_LOOP('',(#296));
#162=EDGE_LOOP('',(#297));
#163=EDGE_LOOP('',(#298));
#164=EDGE_LOOP('',(#299));
#165=EDGE_LOOP('',(#300,#301,#302,#303));
#166=EDGE_LOOP('',(#304));
#167=ORIENTED_EDGE('',*,*,#352,.T.);
#168=ORIENTED_EDGE('',*,*,#353,.T.);
#169=ORIENTED_EDGE('',*,*,#354,.T.);
#170=ORIENTED_EDGE('',*,*,#355,.T.);
#171=ORIENTED_EDGE('',*,*,#356,.F.);
#172=ORIENTED_EDGE('',*,*,#357,.F.);
#173=ORIENTED_EDGE('',*,*,#358,.F.);
#174=ORIENTED_EDGE('',*,*,#359,.F.);
#175=ORIENTED_EDGE('',*,*,#360,.F.);
#176=ORIENTED_EDGE('',*,*,#361,.F.);
#177=ORIENTED_EDGE('',*,*,#362,.F.);
#178=ORIENTED_EDGE('',*,*,#363,.F.);
#179=ORIENTED_EDGE('',*,*,#364,.F.);
#180=ORIENTED_EDGE('',*,*,#352,.F.);
#181=ORIENTED_EDGE('',*,*,#365,.T.);
#182=ORIENTED_EDGE('',*,*,#366,.F.);
#183=ORIENTED_EDGE('',*,*,#367,.T.);
#184=ORIENTED_EDGE('',*,*,#368,.F.);
#185=ORIENTED_EDGE('',*,*,#369,.T.);
#186=ORIENTED_EDGE('',*,*,#370,.F.);
#187=ORIENTED_EDGE('',*,*,#371,.T.);
#188=ORIENTED_EDGE('',*,*,#372,.F.);
#189=ORIENTED_EDGE('',*,*,#373,.F.);
#190=ORIENTED_EDGE('',*,*,#374,.F.);
#191=ORIENTED_EDGE('',*,*,#363,.T.);
#192=ORIENTED_EDGE('',*,*,#375,.F.);
#193=ORIENTED_EDGE('',*,*,#357,.T.);
#194=ORIENTED_EDGE('',*,*,#375,.T.);
#195=ORIENTED_EDGE('',*,*,#362,.T.);
#196=ORIENTED_EDGE('',*,*,#376,.F.);
#197=ORIENTED_EDGE('',*,*,#377,.T.);
#198=ORIENTED_EDGE('',*,*,#378,.T.);
#199=ORIENTED_EDGE('',*,*,#358,.T.);
#200=ORIENTED_EDGE('',*,*,#379,.F.);
#201=ORIENTED_EDGE('',*,*,#380,.F.);
#202=ORIENTED_EDGE('',*,*,#381,.F.);
#203=ORIENTED_EDGE('',*,*,#382,.T.);
#204=ORIENTED_EDGE('',*,*,#383,.T.);
#205=ORIENTED_EDGE('',*,*,#384,.F.);
#206=ORIENTED_EDGE('',*,*,#385,.T.);
#207=ORIENTED_EDGE('',*,*,#376,.T.);
#208=ORIENTED_EDGE('',*,*,#361,.T.);
#209=ORIENTED_EDGE('',*,*,#384,.T.);
#210=ORIENTED_EDGE('',*,*,#386,.T.);
#211=ORIENTED_EDGE('',*,*,#387,.F.);
#212=ORIENTED_EDGE('',*,*,#388,.T.);
#213=ORIENTED_EDGE('',*,*,#389,.F.);
#214=ORIENTED_EDGE('',*,*,#377,.F.);
#215=ORIENTED_EDGE('',*,*,#385,.F.);
#216=ORIENTED_EDGE('',*,*,#388,.F.);
#217=ORIENTED_EDGE('',*,*,#390,.F.);
#218=ORIENTED_EDGE('',*,*,#359,.T.);
#219=ORIENTED_EDGE('',*,*,#378,.F.);
#220=ORIENTED_EDGE('',*,*,#389,.T.);
#221=ORIENTED_EDGE('',*,*,#387,.T.);
#222=ORIENTED_EDGE('',*,*,#391,.T.);
#223=ORIENTED_EDGE('',*,*,#392,.T.);
#224=ORIENTED_EDGE('',*,*,#393,.F.);
#225=ORIENTED_EDGE('',*,*,#394,.F.);
#226=ORIENTED_EDGE('',*,*,#395,.F.);
#227=ORIENTED_EDGE('',*,*,#392,.F.);
#228=ORIENTED_EDGE('',*,*,#396,.T.);
#229=ORIENTED_EDGE('',*,*,#397,.F.);
#230=ORIENTED_EDGE('',*,*,#398,.T.);
#231=ORIENTED_EDGE('',*,*,#382,.F.);
#232=ORIENTED_EDGE('',*,*,#399,.F.);
#233=ORIENTED_EDGE('',*,*,#396,.F.);
#234=ORIENTED_EDGE('',*,*,#391,.F.);
#235=ORIENTED_EDGE('',*,*,#386,.F.);
#236=ORIENTED_EDGE('',*,*,#383,.F.);
#237=ORIENTED_EDGE('',*,*,#398,.F.);
#238=ORIENTED_EDGE('',*,*,#390,.T.);
#239=ORIENTED_EDGE('',*,*,#400,.T.);
#240=ORIENTED_EDGE('',*,*,#379,.T.);
#241=ORIENTED_EDGE('',*,*,#360,.T.);
#242=ORIENTED_EDGE('',*,*,#374,.T.);
#243=ORIENTED_EDGE('',*,*,#356,.T.);
#244=ORIENTED_EDGE('',*,*,#381,.T.);
#245=ORIENTED_EDGE('',*,*,#401,.T.);
#246=ORIENTED_EDGE('',*,*,#393,.T.);
#247=ORIENTED_EDGE('',*,*,#395,.T.);
#248=ORIENTED_EDGE('',*,*,#399,.T.);
#249=ORIENTED_EDGE('',*,*,#397,.T.);
#250=ORIENTED_EDGE('',*,*,#380,.T.);
#251=ORIENTED_EDGE('',*,*,#400,.F.);
#252=ORIENTED_EDGE('',*,*,#394,.T.);
#253=ORIENTED_EDGE('',*,*,#401,.F.);
#254=ORIENTED_EDGE('',*,*,#402,.T.);
#255=ORIENTED_EDGE('',*,*,#403,.T.);
#256=ORIENTED_EDGE('',*,*,#368,.T.);
#257=ORIENTED_EDGE('',*,*,#404,.T.);
#258=ORIENTED_EDGE('',*,*,#405,.T.);
#259=ORIENTED_EDGE('',*,*,#406,.T.);
#260=ORIENTED_EDGE('',*,*,#370,.T.);
#261=ORIENTED_EDGE('',*,*,#407,.T.);
#262=ORIENTED_EDGE('',*,*,#408,.T.);
#263=ORIENTED_EDGE('',*,*,#409,.T.);
#264=ORIENTED_EDGE('',*,*,#372,.T.);
#265=ORIENTED_EDGE('',*,*,#410,.T.);
#266=ORIENTED_EDGE('',*,*,#354,.F.);
#267=ORIENTED_EDGE('',*,*,#411,.T.);
#268=ORIENTED_EDGE('',*,*,#408,.F.);
#269=ORIENTED_EDGE('',*,*,#412,.T.);
#270=ORIENTED_EDGE('',*,*,#405,.F.);
#271=ORIENTED_EDGE('',*,*,#413,.T.);
#272=ORIENTED_EDGE('',*,*,#402,.F.);
#273=ORIENTED_EDGE('',*,*,#414,.T.);
#274=ORIENTED_EDGE('',*,*,#415,.F.);
#275=ORIENTED_EDGE('',*,*,#416,.T.);
#276=ORIENTED_EDGE('',*,*,#366,.T.);
#277=ORIENTED_EDGE('',*,*,#417,.T.);
#278=ORIENTED_EDGE('',*,*,#415,.T.);
#279=ORIENTED_EDGE('',*,*,#418,.T.);
#280=ORIENTED_EDGE('',*,*,#365,.F.);
#281=ORIENTED_EDGE('',*,*,#355,.F.);
#282=ORIENTED_EDGE('',*,*,#416,.F.);
#283=ORIENTED_EDGE('',*,*,#417,.F.);
#284=ORIENTED_EDGE('',*,*,#371,.F.);
#285=ORIENTED_EDGE('',*,*,#406,.F.);
#286=ORIENTED_EDGE('',*,*,#412,.F.);
#287=ORIENTED_EDGE('',*,*,#410,.F.);
#288=ORIENTED_EDGE('',*,*,#369,.F.);
#289=ORIENTED_EDGE('',*,*,#403,.F.);
#290=ORIENTED_EDGE('',*,*,#413,.F.);
#291=ORIENTED_EDGE('',*,*,#407,.F.);
#292=ORIENTED_EDGE('',*,*,#367,.F.);
#293=ORIENTED_EDGE('',*,*,#418,.F.);
#294=ORIENTED_EDGE('',*,*,#414,.F.);
#295=ORIENTED_EDGE('',*,*,#404,.F.);
#296=ORIENTED_EDGE('',*,*,#419,.F.);
#297=ORIENTED_EDGE('',*,*,#373,.T.);
#298=ORIENTED_EDGE('',*,*,#419,.T.);
#299=ORIENTED_EDGE('',*,*,#420,.F.);
#300=ORIENTED_EDGE('',*,*,#364,.T.);
#301=ORIENTED_EDGE('',*,*,#409,.F.);
#302=ORIENTED_EDGE('',*,*,#411,.F.);
#303=ORIENTED_EDGE('',*,*,#353,.F.);
#304=ORIENTED_EDGE('',*,*,#420,.T.);
#305=VERTEX_POINT('',#717);
#306=VERTEX_POINT('',#718);
#307=VERTEX_POINT('',#720);
#308=VERTEX_POINT('',#722);
#309=VERTEX_POINT('',#726);
#310=VERTEX_POINT('',#727);
#311=VERTEX_POINT('',#729);
#312=VERTEX_POINT('',#731);
#313=VERTEX_POINT('',#735);
#314=VERTEX_POINT('',#736);
#315=VERTEX_POINT('',#738);
#316=VERTEX_POINT('',#740);
#317=VERTEX_POINT('',#744);
#318=VERTEX_POINT('',#746);
#319=VERTEX_POINT('',#748);
#320=VERTEX_POINT('',#750);
#321=VERTEX_POINT('',#752);
#322=VERTEX_POINT('',#754);
#323=VERTEX_POINT('',#756);
#324=VERTEX_POINT('',#758);
#325=VERTEX_POINT('',#761);
#326=VERTEX_POINT('',#766);
#327=VERTEX_POINT('',#768);
#328=VERTEX_POINT('',#772);
#329=VERTEX_POINT('',#774);
#330=VERTEX_POINT('',#776);
#331=VERTEX_POINT('',#778);
#332=VERTEX_POINT('',#780);
#333=VERTEX_POINT('',#782);
#334=VERTEX_POINT('',#786);
#335=VERTEX_POINT('',#788);
#336=VERTEX_POINT('',#794);
#337=VERTEX_POINT('',#796);
#338=VERTEX_POINT('',#798);
#339=VERTEX_POINT('',#800);
#340=VERTEX_POINT('',#804);
#341=VERTEX_POINT('',#808);
#342=VERTEX_POINT('',#819);
#343=VERTEX_POINT('',#820);
#344=VERTEX_POINT('',#825);
#345=VERTEX_POINT('',#826);
#346=VERTEX_POINT('',#831);
#347=VERTEX_POINT('',#832);
#348=VERTEX_POINT('',#840);
#349=VERTEX_POINT('',#842);
#350=VERTEX_POINT('',#853);
#351=VERTEX_POINT('',#857);
#352=EDGE_CURVE('',#305,#306,#421,.T.);
#353=EDGE_CURVE('',#306,#307,#422,.T.);
#354=EDGE_CURVE('',#307,#308,#423,.T.);
#355=EDGE_CURVE('',#308,#305,#424,.T.);
#356=EDGE_CURVE('',#309,#310,#425,.T.);
#357=EDGE_CURVE('',#311,#309,#426,.T.);
#358=EDGE_CURVE('',#312,#311,#427,.T.);
#359=EDGE_CURVE('',#310,#312,#428,.T.);
#360=EDGE_CURVE('',#313,#314,#429,.T.);
#361=EDGE_CURVE('',#315,#313,#430,.T.);
#362=EDGE_CURVE('',#316,#315,#431,.T.);
#363=EDGE_CURVE('',#314,#316,#432,.T.);
#364=EDGE_CURVE('',#306,#317,#47,.T.);
#365=EDGE_CURVE('',#305,#318,#48,.T.);
#366=EDGE_CURVE('',#319,#318,#433,.T.);
#367=EDGE_CURVE('',#319,#320,#49,.T.);
#368=EDGE_CURVE('',#321,#320,#434,.T.);
#369=EDGE_CURVE('',#321,#322,#50,.T.);
#370=EDGE_CURVE('',#323,#322,#435,.T.);
#371=EDGE_CURVE('',#323,#324,#51,.T.);
#372=EDGE_CURVE('',#317,#324,#436,.T.);
#373=EDGE_CURVE('',#325,#325,#52,.T.);
#374=EDGE_CURVE('',#314,#309,#437,.T.);
#375=EDGE_CURVE('',#311,#316,#438,.T.);
#376=EDGE_CURVE('',#326,#315,#439,.T.);
#377=EDGE_CURVE('',#326,#327,#440,.T.);
#378=EDGE_CURVE('',#327,#312,#441,.T.);
#379=EDGE_CURVE('',#328,#313,#442,.T.);
#380=EDGE_CURVE('',#329,#328,#443,.T.);
#381=EDGE_CURVE('',#330,#329,#444,.T.);
#382=EDGE_CURVE('',#330,#331,#445,.T.);
#383=EDGE_CURVE('',#331,#332,#446,.T.);
#384=EDGE_CURVE('',#333,#332,#447,.T.);
#385=EDGE_CURVE('',#333,#326,#448,.T.);
#386=EDGE_CURVE('',#332,#334,#449,.T.);
#387=EDGE_CURVE('',#335,#334,#450,.T.);
#388=EDGE_CURVE('',#335,#333,#451,.T.);
#389=EDGE_CURVE('',#327,#335,#452,.T.);
#390=EDGE_CURVE('',#310,#336,#453,.T.);
#391=EDGE_CURVE('',#334,#337,#454,.T.);
#392=EDGE_CURVE('',#337,#338,#455,.T.);
#393=EDGE_CURVE('',#339,#338,#456,.T.);
#394=EDGE_CURVE('',#336,#339,#457,.T.);
#395=EDGE_CURVE('',#338,#340,#458,.T.);
#396=EDGE_CURVE('',#337,#340,#459,.T.);
#397=EDGE_CURVE('',#341,#330,#460,.T.);
#398=EDGE_CURVE('',#341,#331,#461,.T.);
#399=EDGE_CURVE('',#340,#341,#462,.T.);
#400=EDGE_CURVE('',#336,#328,#463,.T.);
#401=EDGE_CURVE('',#329,#339,#464,.T.);
#402=EDGE_CURVE('',#342,#343,#465,.T.);
#403=EDGE_CURVE('',#343,#321,#466,.T.);
#404=EDGE_CURVE('',#320,#342,#467,.T.);
#405=EDGE_CURVE('',#344,#345,#468,.T.);
#406=EDGE_CURVE('',#345,#323,#469,.T.);
#407=EDGE_CURVE('',#322,#344,#470,.T.);
#408=EDGE_CURVE('',#346,#347,#471,.T.);
#409=EDGE_CURVE('',#347,#317,#472,.T.);
#410=EDGE_CURVE('',#324,#346,#473,.T.);
#411=EDGE_CURVE('',#307,#347,#53,.T.);
#412=EDGE_CURVE('',#346,#345,#54,.T.);
#413=EDGE_CURVE('',#344,#343,#55,.T.);
#414=EDGE_CURVE('',#342,#348,#56,.T.);
#415=EDGE_CURVE('',#349,#348,#474,.T.);
#416=EDGE_CURVE('',#349,#308,#57,.T.);
#417=EDGE_CURVE('',#318,#349,#475,.T.);
#418=EDGE_CURVE('',#348,#319,#476,.T.);
#419=EDGE_CURVE('',#350,#350,#58,.T.);
#420=EDGE_CURVE('',#351,#351,#59,.T.);
#421=LINE('',#716,#477);
#422=LINE('',#719,#478);
#423=LINE('',#721,#479);
#424=LINE('',#723,#480);
#425=LINE('',#725,#481);
#426=LINE('',#728,#482);
#427=LINE('',#730,#483);
#428=LINE('',#732,#484);
#429=LINE('',#734,#485);
#430=LINE('',#737,#486);
#431=LINE('',#739,#487);
#432=LINE('',#741,#488);
#433=LINE('',#747,#489);
#434=LINE('',#751,#490);
#435=LINE('',#755,#491);
#436=LINE('',#759,#492);
#437=LINE('',#762,#493);
#438=LINE('',#763,#494);
#439=LINE('',#765,#495);
#440=LINE('',#767,#496);
#441=LINE('',#769,#497);
#442=LINE('',#771,#498);
#443=LINE('',#773,#499);
#444=LINE('',#775,#500);
#445=LINE('',#777,#501);
#446=LINE('',#779,#502);
#447=LINE('',#781,#503);
#448=LINE('',#783,#504);
#449=LINE('',#785,#505);
#450=LINE('',#787,#506);
#451=LINE('',#789,#507);
#452=LINE('',#791,#508);
#453=LINE('',#793,#509);
#454=LINE('',#795,#510);
#455=LINE('',#797,#511);
#456=LINE('',#799,#512);
#457=LINE('',#801,#513);
#458=LINE('',#803,#514);
#459=LINE('',#805,#515);
#460=LINE('',#807,#516);
#461=LINE('',#809,#517);
#462=LINE('',#811,#518);
#463=LINE('',#813,#519);
#464=LINE('',#815,#520);
#465=LINE('',#818,#521);
#466=LINE('',#821,#522);
#467=LINE('',#822,#523);
#468=LINE('',#824,#524);
#469=LINE('',#827,#525);
#470=LINE('',#828,#526);
#471=LINE('',#830,#527);
#472=LINE('',#833,#528);
#473=LINE('',#834,#529);
#474=LINE('',#841,#530);
#475=LINE('',#845,#531);
#476=LINE('',#846,#532);
#477=VECTOR('',#577,1.);
#478=VECTOR('',#578,1.);
#479=VECTOR('',#579,1.);
#480=VECTOR('',#580,1.);
#481=VECTOR('',#583,1.);
#482=VECTOR('',#584,1.);
#483=VECTOR('',#585,1.);
#484=VECTOR('',#586,1.);
#485=VECTOR('',#589,1.);
#486=VECTOR('',#590,1.);
#487=VECTOR('',#591,1.);
#488=VECTOR('',#592,1.);
#489=VECTOR('',#599,1.);
#490=VECTOR('',#602,1.);
#491=VECTOR('',#605,1.);
#492=VECTOR('',#608,1.);
#493=VECTOR('',#611,1.);
#494=VECTOR('',#612,1.);
#495=VECTOR('',#615,1.);
#496=VECTOR('',#616,1.);
#497=VECTOR('',#617,1.);
#498=VECTOR('',#620,1.);
#499=VECTOR('',#621,1.);
#500=VECTOR('',#622,1.);
#501=VECTOR('',#623,1.);
#502=VECTOR('',#624,1.);
#503=VECTOR('',#625,1.);
#504=VECTOR('',#626,1.);
#505=VECTOR('',#629,1.);
#506=VECTOR('',#630,1.);
#507=VECTOR('',#631,1.);
#508=VECTOR('',#634,1.);
#509=VECTOR('',#637,1.);
#510=VECTOR('',#638,1.);
#511=VECTOR('',#639,1.);
#512=VECTOR('',#640,1.);
#513=VECTOR('',#641,1.);
#514=VECTOR('',#644,1.);
#515=VECTOR('',#645,1.);
#516=VECTOR('',#648,1.);
#517=VECTOR('',#649,1.);
#518=VECTOR('',#652,1.);
#519=VECTOR('',#655,1.);
#520=VECTOR('',#658,1.);
#521=VECTOR('',#663,1.);
#522=VECTOR('',#664,1.);
#523=VECTOR('',#665,1.);
#524=VECTOR('',#668,1.);
#525=VECTOR('',#669,1.);
#526=VECTOR('',#670,1.);
#527=VECTOR('',#673,1.);
#528=VECTOR('',#674,1.);
#529=VECTOR('',#675,1.);
#530=VECTOR('',#686,1.);
#531=VECTOR('',#691,1.);
#532=VECTOR('',#692,1.);
#533=AXIS2_PLACEMENT_3D('',#715,#575,#576);
#534=AXIS2_PLACEMENT_3D('',#724,#581,#582);
#535=AXIS2_PLACEMENT_3D('',#733,#587,#588);
#536=AXIS2_PLACEMENT_3D('',#742,#593,#594);
#537=AXIS2_PLACEMENT_3D('',#743,#595,#596);
#538=AXIS2_PLACEMENT_3D('',#745,#597,#598);
#539=AXIS2_PLACEMENT_3D('',#749,#600,#601);
#540=AXIS2_PLACEMENT_3D('',#753,#603,#604);
#541=AXIS2_PLACEMENT_3D('',#757,#606,#607);
#542=AXIS2_PLACEMENT_3D('',#760,#609,#610);
#543=AXIS2_PLACEMENT_3D('',#764,#613,#614);
#544=AXIS2_PLACEMENT_3D('',#770,#618,#619);
#545=AXIS2_PLACEMENT_3D('',#784,#627,#628);
#546=AXIS2_PLACEMENT_3D('',#790,#632,#633);
#547=AXIS2_PLACEMENT_3D('',#792,#635,#636);
#548=AXIS2_PLACEMENT_3D('',#802,#642,#643);
#549=AXIS2_PLACEMENT_3D('',#806,#646,#647);
#550=AXIS2_PLACEMENT_3D('',#810,#650,#651);
#551=AXIS2_PLACEMENT_3D('',#812,#653,#654);
#552=AXIS2_PLACEMENT_3D('',#814,#656,#657);
#553=AXIS2_PLACEMENT_3D('',#816,#659,#660);
#554=AXIS2_PLACEMENT_3D('',#817,#661,#662);
#555=AXIS2_PLACEMENT_3D('',#823,#666,#667);
#556=AXIS2_PLACEMENT_3D('',#829,#671,#672);
#557=AXIS2_PLACEMENT_3D('',#835,#676,#677);
#558=AXIS2_PLACEMENT_3D('',#836,#678,#679);
#559=AXIS2_PLACEMENT_3D('',#837,#680,#681);
#560=AXIS2_PLACEMENT_3D('',#838,#682,#683);
#561=AXIS2_PLACEMENT_3D('',#839,#684,#685);
#562=AXIS2_PLACEMENT_3D('',#843,#687,#688);
#563=AXIS2_PLACEMENT_3D('',#844,#689,#690);
#564=AXIS2_PLACEMENT_3D('',#847,#693,#694);
#565=AXIS2_PLACEMENT_3D('',#848,#695,#696);
#566=AXIS2_PLACEMENT_3D('',#849,#697,#698);
#567=AXIS2_PLACEMENT_3D('',#850,#699,#700);
#568=AXIS2_PLACEMENT_3D('',#851,#701,#702);
#569=AXIS2_PLACEMENT_3D('',#852,#703,#704);
#570=AXIS2_PLACEMENT_3D('',#854,#705,#706);
#571=AXIS2_PLACEMENT_3D('',#855,#707,#708);
#572=AXIS2_PLACEMENT_3D('',#856,#709,#710);
#573=AXIS2_PLACEMENT_3D('',#858,#711,#712);
#574=AXIS2_PLACEMENT_3D('',#859,#713,#714);
#575=DIRECTION('',(0.,0.,1.));
#576=DIRECTION('',(1.,0.,0.));
#577=DIRECTION('',(-1.,0.,0.));
#578=DIRECTION('',(0.,0.,-1.));
#579=DIRECTION('',(1.,0.,0.));
#580=DIRECTION('',(0.,0.,1.));
#581=DIRECTION('',(0.,1.,0.));
#582=DIRECTION('',(0.,0.,1.));
#583=DIRECTION('',(0.707106781186548,0.,-0.707106781186547));
#584=DIRECTION('',(0.,1.,0.));
#585=DIRECTION('',(-0.707106781186548,0.,0.707106781186547));
#586=DIRECTION('',(0.,-1.,0.));
#587=DIRECTION('',(-0.707106781186547,0.,-0.707106781186548));
#588=DIRECTION('',(0.,-1.,0.));
#589=DIRECTION('',(0.707106781186547,0.,0.707106781186548));
#590=DIRECTION('',(0.,1.,0.));
#591=DIRECTION('',(-0.707106781186547,0.,-0.707106781186548));
#592=DIRECTION('',(0.,-1.,0.));
#593=DIRECTION('',(0.707106781186548,0.,-0.707106781186547));
#594=DIRECTION('',(0.,1.,0.));
#595=DIRECTION('',(0.,0.,1.));
#596=DIRECTION('',(1.,0.,0.));
#597=DIRECTION('',(0.,0.,-1.));
#598=DIRECTION('',(1.,0.,0.));
#599=DIRECTION('',(0.,1.,0.));
#600=DIRECTION('',(0.,0.,-1.));
#601=DIRECTION('',(1.,0.,0.));
#602=DIRECTION('',(1.,0.,0.));
#603=DIRECTION('',(0.,0.,-1.));
#604=DIRECTION('',(1.,0.,0.));
#605=DIRECTION('',(0.,-1.,0.));
#606=DIRECTION('',(0.,0.,-1.));
#607=DIRECTION('',(1.,0.,0.));
#608=DIRECTION('',(-1.,0.,0.));
#609=DIRECTION('',(0.,0.,1.));
#610=DIRECTION('',(1.,0.,0.));
#611=DIRECTION('',(1.,0.,0.));
#612=DIRECTION('',(-1.,0.,0.));
#613=DIRECTION('',(0.,0.,1.));
#614=DIRECTION('',(1.,0.,0.));
#615=DIRECTION('',(0.,0.,1.));
#616=DIRECTION('',(1.,0.,0.));
#617=DIRECTION('',(0.,0.,1.));
#618=DIRECTION('',(0.,-1.,0.));
#619=DIRECTION('',(0.,0.,-1.));
#620=DIRECTION('',(0.,0.,1.));
#621=DIRECTION('',(0.,-1.,0.));
#622=DIRECTION('',(0.,0.,-1.));
#623=DIRECTION('',(0.,1.,0.));
#624=DIRECTION('',(0.,0.707106781186547,-0.707106781186548));
#625=DIRECTION('',(0.,0.,1.));
#626=DIRECTION('',(0.,-1.,0.));
#627=DIRECTION('',(-1.,0.,0.));
#628=DIRECTION('',(0.,0.,1.));
#629=DIRECTION('',(1.,0.,0.));
#630=DIRECTION('',(0.,0.,1.));
#631=DIRECTION('',(-1.,0.,0.));
#632=DIRECTION('',(0.,1.,0.));
#633=DIRECTION('',(0.,0.,1.));
#634=DIRECTION('',(0.,1.,0.));
#635=DIRECTION('',(0.,0.,-1.));
#636=DIRECTION('',(-1.,0.,0.));
#637=DIRECTION('',(0.,0.,-1.));
#638=DIRECTION('',(0.,-0.707106781186547,0.707106781186548));
#639=DIRECTION('',(0.,-1.,0.));
#640=DIRECTION('',(0.,0.,1.));
#641=DIRECTION('',(0.,1.,0.));
#642=DIRECTION('',(1.,0.,0.));
#643=DIRECTION('',(0.,0.,-1.));
#644=DIRECTION('',(-0.707106781186548,0.,0.707106781186547));
#645=DIRECTION('',(-0.577350269189627,-0.577350269189625,0.577350269189626));
#646=DIRECTION('',(-0.707106781186547,0.,-0.707106781186548));
#647=DIRECTION('',(0.,-1.,0.));
#648=DIRECTION('',(-0.707106781186547,0.,-0.707106781186548));
#649=DIRECTION('',(-0.577350269189626,0.577350269189626,-0.577350269189626));
#650=DIRECTION('',(0.707106781186548,0.,-0.707106781186547));
#651=DIRECTION('',(0.,1.,0.));
#652=DIRECTION('',(-1.,0.,0.));
#653=DIRECTION('',(0.,-0.707106781186548,-0.707106781186547));
#654=DIRECTION('',(1.,0.,0.));
#655=DIRECTION('',(-1.,0.,0.));
#656=DIRECTION('',(0.,-1.,0.));
#657=DIRECTION('',(0.,0.,-1.));
#658=DIRECTION('',(1.,0.,0.));
#659=DIRECTION('',(0.,1.,0.));
#660=DIRECTION('',(0.,0.,1.));
#661=DIRECTION('',(0.,0.,-1.));
#662=DIRECTION('',(-1.,0.,0.));
#663=DIRECTION('',(-1.,0.,0.));
#664=DIRECTION('',(0.,0.,1.));
#665=DIRECTION('',(0.,0.,-1.));
#666=DIRECTION('',(0.,-1.,0.));
#667=DIRECTION('',(0.,0.,-1.));
#668=DIRECTION('',(0.,1.,0.));
#669=DIRECTION('',(0.,0.,1.));
#670=DIRECTION('',(0.,0.,-1.));
#671=DIRECTION('',(-1.,0.,0.));
#672=DIRECTION('',(0.,0.,1.));
#673=DIRECTION('',(1.,0.,0.));
#674=DIRECTION('',(0.,0.,1.));
#675=DIRECTION('',(0.,0.,-1.));
#676=DIRECTION('',(0.,1.,0.));
#677=DIRECTION('',(0.,0.,1.));
#678=DIRECTION('',(0.,0.,-1.));
#679=DIRECTION('',(-1.,0.,0.));
#680=DIRECTION('',(0.,0.,1.));
#681=DIRECTION('',(-1.,0.,0.));
#682=DIRECTION('',(0.,0.,1.));
#683=DIRECTION('',(-1.,0.,0.));
#684=DIRECTION('',(0.,0.,1.));
#685=DIRECTION('',(-1.,0.,0.));
#686=DIRECTION('',(0.,-1.,0.));
#687=DIRECTION('',(0.,0.,1.));
#688=DIRECTION('',(-1.,0.,0.));
#689=DIRECTION('',(0.,0.,-1.));
#690=DIRECTION('',(-1.,0.,0.));
#691=DIRECTION('',(0.,0.,-1.));
#692=DIRECTION('',(0.,0.,1.));
#693=DIRECTION('',(1.,0.,0.));
#694=DIRECTION('',(0.,0.,-1.));
#695=DIRECTION('',(0.,0.,1.));
#696=DIRECTION('',(1.,0.,0.));
#697=DIRECTION('',(0.,0.,1.));
#698=DIRECTION('',(1.,0.,0.));
#699=DIRECTION('',(0.,0.,1.));
#700=DIRECTION('',(1.,0.,0.));
#701=DIRECTION('',(0.,0.,1.));
#702=DIRECTION('',(1.,0.,0.));
#703=DIRECTION('',(0.,0.,-1.));
#704=DIRECTION('',(1.,0.,0.));
#705=DIRECTION('',(0.,0.,-1.));
#706=DIRECTION('',(-1.,0.,0.));
#707=DIRECTION('',(0.,0.,-1.));
#708=DIRECTION('',(1.,0.,0.));
#709=DIRECTION('',(0.,0.,-1.));
#710=DIRECTION('',(1.,0.,0.));
#711=DIRECTION('',(0.,0.,-1.));
#712=DIRECTION('',(-1.,0.,0.));
#713=DIRECTION('',(0.,0.,-1.));
#714=DIRECTION('',(1.,0.,0.));
#715=CARTESIAN_POINT('',(0.,0.,0.));
#716=CARTESIAN_POINT('',(100.2,159.1,66.3));
#717=CARTESIAN_POINT('',(148.7,159.1,66.3));
#718=CARTESIAN_POINT('',(107.533655295963,159.1,66.3));
#719=CARTESIAN_POINT('',(107.533655295963,159.1,66.35));
#720=CARTESIAN_POINT('',(107.533655295963,159.1,58.9));
#721=CARTESIAN_POINT('',(119.,159.1,58.9));
#722=CARTESIAN_POINT('',(148.7,159.1,58.9));
#723=CARTESIAN_POINT('',(148.7,159.1,66.3));
#724=CARTESIAN_POINT('',(119.,159.1,58.9));
#725=CARTESIAN_POINT('',(200.4,192.2,59.6));
#726=CARTESIAN_POINT('',(193.7,192.2,66.3));
#727=CARTESIAN_POINT('',(200.4,192.2,59.6));
#728=CARTESIAN_POINT('',(193.7,109.25,66.3));
#729=CARTESIAN_POINT('',(193.7,0.,66.3));
#730=CARTESIAN_POINT('',(180.1,0.,79.9000000000001));
#731=CARTESIAN_POINT('',(200.4,0.,59.6));
#732=CARTESIAN_POINT('',(200.4,109.25,59.6));
#733=CARTESIAN_POINT('',(200.4,109.25,59.6));
#734=CARTESIAN_POINT('',(0.,192.2,56.8));
#735=CARTESIAN_POINT('',(0.,192.2,56.8));
#736=CARTESIAN_POINT('',(9.49999999999999,192.2,66.3));
#737=CARTESIAN_POINT('',(0.,109.25,56.8));
#738=CARTESIAN_POINT('',(0.,0.,56.8));
#739=CARTESIAN_POINT('',(21.7,0.,78.5));
#740=CARTESIAN_POINT('',(9.49999999999999,0.,66.3));
#741=CARTESIAN_POINT('',(9.49999999999999,109.25,66.3));
#742=CARTESIAN_POINT('',(0.,109.25,56.8));
#743=CARTESIAN_POINT('',(100.2,161.9,66.3));
#744=CARTESIAN_POINT('',(92.8663447040374,159.1,66.3));
#745=CARTESIAN_POINT('',(148.7,152.6,66.3));
#746=CARTESIAN_POINT('',(155.2,152.6,66.3));
#747=CARTESIAN_POINT('',(155.2,109.25,66.3));
#748=CARTESIAN_POINT('',(155.2,75.9,66.3));
#749=CARTESIAN_POINT('',(148.7,75.9,66.3));
#750=CARTESIAN_POINT('',(148.7,69.4,66.3));
#751=CARTESIAN_POINT('',(100.2,69.4,66.3));
#752=CARTESIAN_POINT('',(89.3,69.4,66.3));
#753=CARTESIAN_POINT('',(89.3,75.9,66.3));
#754=CARTESIAN_POINT('',(82.8,75.9,66.3));
#755=CARTESIAN_POINT('',(82.8,109.25,66.3));
#756=CARTESIAN_POINT('',(82.8,152.6,66.3));
#757=CARTESIAN_POINT('',(89.3,152.6,66.3));
#758=CARTESIAN_POINT('',(89.3,159.1,66.3));
#759=CARTESIAN_POINT('',(100.2,159.1,66.3));
#760=CARTESIAN_POINT('',(100.2,56.6,66.3));
#761=CARTESIAN_POINT('',(108.05,56.6,66.3));
#762=CARTESIAN_POINT('',(100.2,192.2,66.3));
#763=CARTESIAN_POINT('',(100.2,0.,66.3));
#764=CARTESIAN_POINT('',(100.2,109.25,66.3));
#765=CARTESIAN_POINT('',(0.,0.,0.));
#766=CARTESIAN_POINT('',(0.,0.,0.));
#767=CARTESIAN_POINT('',(100.2,0.,0.));
#768=CARTESIAN_POINT('',(200.4,0.,0.));
#769=CARTESIAN_POINT('',(200.4,0.,0.));
#770=CARTESIAN_POINT('',(100.2,0.,0.));
#771=CARTESIAN_POINT('',(0.,192.2,0.));
#772=CARTESIAN_POINT('',(0.,192.2,54.2));
#773=CARTESIAN_POINT('',(0.,109.25,54.2));
#774=CARTESIAN_POINT('',(0.,208.5,54.2));
#775=CARTESIAN_POINT('',(0.,208.5,0.));
#776=CARTESIAN_POINT('',(0.,208.5,56.8));
#777=CARTESIAN_POINT('',(0.,109.25,56.8));
#778=CARTESIAN_POINT('',(0.,217.6,56.8));
#779=CARTESIAN_POINT('',(0.,191.825,82.575));
#780=CARTESIAN_POINT('',(0.,218.5,55.9));
#781=CARTESIAN_POINT('',(0.,218.5,0.));
#782=CARTESIAN_POINT('',(0.,218.5,0.));
#783=CARTESIAN_POINT('',(0.,109.25,0.));
#784=CARTESIAN_POINT('',(0.,109.25,0.));
#785=CARTESIAN_POINT('',(100.2,218.5,55.9));
#786=CARTESIAN_POINT('',(200.4,218.5,55.9));
#787=CARTESIAN_POINT('',(200.4,218.5,0.));
#788=CARTESIAN_POINT('',(200.4,218.5,0.));
#789=CARTESIAN_POINT('',(100.2,218.5,0.));
#790=CARTESIAN_POINT('',(100.2,218.5,0.));
#791=CARTESIAN_POINT('',(200.4,109.25,0.));
#792=CARTESIAN_POINT('',(100.2,109.25,0.));
#793=CARTESIAN_POINT('',(200.4,192.2,0.));
#794=CARTESIAN_POINT('',(200.4,192.2,54.2));
#795=CARTESIAN_POINT('',(200.4,191.825,82.575));
#796=CARTESIAN_POINT('',(200.4,214.8,59.6));
#797=CARTESIAN_POINT('',(200.4,109.25,59.6));
#798=CARTESIAN_POINT('',(200.4,208.5,59.6));
#799=CARTESIAN_POINT('',(200.4,208.5,0.));
#800=CARTESIAN_POINT('',(200.4,208.5,54.2));
#801=CARTESIAN_POINT('',(200.4,109.25,54.2));
#802=CARTESIAN_POINT('',(200.4,109.25,0.));
#803=CARTESIAN_POINT('',(200.4,208.5,59.6));
#804=CARTESIAN_POINT('',(194.1,208.5,65.9));
#805=CARTESIAN_POINT('',(165.216666666667,179.616666666667,94.7833333333333));
#806=CARTESIAN_POINT('',(200.4,109.25,59.6));
#807=CARTESIAN_POINT('',(0.,208.5,56.8));
#808=CARTESIAN_POINT('',(9.09999999999998,208.5,65.9));
#809=CARTESIAN_POINT('',(36.1166666666667,181.483333333333,92.9166666666667));
#810=CARTESIAN_POINT('',(0.,109.25,56.8));
#811=CARTESIAN_POINT('',(100.2,208.5,65.9));
#812=CARTESIAN_POINT('',(100.2,218.5,55.9));
#813=CARTESIAN_POINT('',(100.2,192.2,54.2));
#814=CARTESIAN_POINT('',(100.2,192.2,54.2));
#815=CARTESIAN_POINT('',(100.2,208.5,54.2));
#816=CARTESIAN_POINT('',(100.2,208.5,54.2));
#817=CARTESIAN_POINT('',(100.2,200.35,54.2));
#818=CARTESIAN_POINT('',(119.,69.4,58.9));
#819=CARTESIAN_POINT('',(148.7,69.4,58.9));
#820=CARTESIAN_POINT('',(89.3,69.4,58.9));
#821=CARTESIAN_POINT('',(89.3,69.4,66.3));
#822=CARTESIAN_POINT('',(148.7,69.4,58.9));
#823=CARTESIAN_POINT('',(119.,69.4,58.9));
#824=CARTESIAN_POINT('',(82.8,114.25,58.9));
#825=CARTESIAN_POINT('',(82.8,75.9,58.9));
#826=CARTESIAN_POINT('',(82.8,152.6,58.9));
#827=CARTESIAN_POINT('',(82.8,152.6,66.3));
#828=CARTESIAN_POINT('',(82.8,75.9,58.9));
#829=CARTESIAN_POINT('',(82.8,114.25,58.9));
#830=CARTESIAN_POINT('',(119.,159.1,58.9));
#831=CARTESIAN_POINT('',(89.3,159.1,58.9));
#832=CARTESIAN_POINT('',(92.8663447040374,159.1,58.9));
#833=CARTESIAN_POINT('',(92.8663447040374,159.1,66.35));
#834=CARTESIAN_POINT('',(89.3,159.1,58.9));
#835=CARTESIAN_POINT('',(119.,159.1,58.9));
#836=CARTESIAN_POINT('',(100.2,161.9,58.9));
#837=CARTESIAN_POINT('',(89.3,152.6,58.9));
#838=CARTESIAN_POINT('',(89.3,75.9,58.9));
#839=CARTESIAN_POINT('',(148.7,75.9,58.9));
#840=CARTESIAN_POINT('',(155.2,75.9,58.9));
#841=CARTESIAN_POINT('',(155.2,114.25,58.9));
#842=CARTESIAN_POINT('',(155.2,152.6,58.9));
#843=CARTESIAN_POINT('',(148.7,152.6,58.9));
#844=CARTESIAN_POINT('',(119.,114.25,58.9));
#845=CARTESIAN_POINT('',(155.2,152.6,58.9));
#846=CARTESIAN_POINT('',(155.2,75.9,66.3));
#847=CARTESIAN_POINT('',(155.2,114.25,58.9));
#848=CARTESIAN_POINT('',(148.7,152.6,58.9));
#849=CARTESIAN_POINT('',(89.3,152.6,58.9));
#850=CARTESIAN_POINT('',(89.3,75.9,58.9));
#851=CARTESIAN_POINT('',(148.7,75.9,58.9));
#852=CARTESIAN_POINT('',(100.2,56.6,41.4));
#853=CARTESIAN_POINT('',(108.05,56.6,41.4));
#854=CARTESIAN_POINT('',(100.2,56.6,41.4));
#855=CARTESIAN_POINT('',(100.2,56.6,66.35));
#856=CARTESIAN_POINT('',(100.2,161.9,44.));
#857=CARTESIAN_POINT('',(108.05,161.9,44.));
#858=CARTESIAN_POINT('',(100.2,161.9,44.));
#859=CARTESIAN_POINT('',(100.2,161.9,66.35));
#860=MECHANICAL_DESIGN_GEOMETRIC_PRESENTATION_REPRESENTATION('',(#24),#861);
#861=(
GEOMETRIC_REPRESENTATION_CONTEXT(3)
GLOBAL_UNCERTAINTY_ASSIGNED_CONTEXT((#862))
GLOBAL_UNIT_ASSIGNED_CONTEXT((#868,#864,#863))
REPRESENTATION_CONTEXT('featured_part_05727','TOP_LEVEL_ASSEMBLY_PART')
);
#862=UNCERTAINTY_MEASURE_WITH_UNIT(LENGTH_MEASURE(2.E-5),#868,
'DISTANCE_ACCURACY_VALUE','Maximum Tolerance applied to model');
#863=(
NAMED_UNIT(*)
SI_UNIT($,.STERADIAN.)
SOLID_ANGLE_UNIT()
);
#864=(
CONVERSION_BASED_UNIT('DEGREE',#866)
NAMED_UNIT(#865)
PLANE_ANGLE_UNIT()
);
#865=DIMENSIONAL_EXPONENTS(0.,0.,0.,0.,0.,0.,0.);
#866=PLANE_ANGLE_MEASURE_WITH_UNIT(PLANE_ANGLE_MEASURE(0.0174532925),#867);
#867=(
NAMED_UNIT(*)
PLANE_ANGLE_UNIT()
SI_UNIT($,.RADIAN.)
);
#868=(
LENGTH_UNIT()
NAMED_UNIT(*)
SI_UNIT(.MILLI.,.METRE.)
);
ENDSEC;
END-ISO-10303-21;
