ISO-10303-21;
HEADER;
/* Generated by software containing ST-Developer
 * from STEP Tools, Inc. (www.steptools.com) 
 */
/* OPTION: using custom schema-name function */

FILE_DESCRIPTION(
/* description */ (''),
/* implementation_level */ '2;1');

FILE_NAME(
/* name */ 'featured_part_07295.stp',
/* time_stamp */ '2026-07-10T02:38:07-04:00',
/* author */ (''),
/* organization */ (''),
/* preprocessor_version */ 'ST-DEVELOPER v20.1',
/* originating_system */ 'SIEMENS PLM Software NX2512.6002',
/* authorisation */ '');

FILE_SCHEMA (('AUTOMOTIVE_DESIGN { 1 0 10303 214 3 1 1 1 }'));
ENDSEC;

DATA;
#10=SHAPE_REPRESENTATION_RELATIONSHIP('None',
'relationship between featured_part_07295-None and featured_part_07295
-None',#22,#11);
#11=ADVANCED_BREP_SHAPE_REPRESENTATION('featured_part_07295-None',(#32),
#1226);
#12=SHAPE_DEFINITION_REPRESENTATION(#13,#22);
#13=PRODUCT_DEFINITION_SHAPE('','',#14);
#14=PRODUCT_DEFINITION(' ','',#16,#15);
#15=PRODUCT_DEFINITION_CONTEXT('part definition',#21,'design');
#16=PRODUCT_DEFINITION_FORMATION_WITH_SPECIFIED_SOURCE(' ',' ',#18,
 .NOT_KNOWN.);
#17=PRODUCT_RELATED_PRODUCT_CATEGORY('part','',(#18));
#18=PRODUCT('featured_part_07295','featured_part_07295',' ',(#19));
#19=PRODUCT_CONTEXT(' ',#21,'mechanical');
#20=APPLICATION_PROTOCOL_DEFINITION('international standard',
'automotive_design',2010,#21);
#21=APPLICATION_CONTEXT(
'core data for automotive mechanical design processes');
#22=SHAPE_REPRESENTATION('featured_part_07295-None',(#747),#1226);
#23=PRESENTATION_LAYER_ASSIGNMENT('1','Layer 1',(#32));
#24=STYLED_ITEM('',(#25),#32);
#25=PRESENTATION_STYLE_ASSIGNMENT((#26));
#26=SURFACE_STYLE_USAGE(.BOTH.,#27);
#27=SURFACE_SIDE_STYLE('',(#28));
#28=SURFACE_STYLE_FILL_AREA(#29);
#29=FILL_AREA_STYLE('',(#30));
#30=FILL_AREA_STYLE_COLOUR('',#31);
#31=COLOUR_RGB('medium steel',0.611764705882353,0.658823529411765,0.670588235294118);
#32=MANIFOLD_SOLID_BREP('',#33);
#33=CLOSED_SHELL('',(#78,#79,#80,#81,#82,#83,#84,#85,#86,#87,#88,#89,#90,
#91,#92,#93,#94,#95,#96,#97,#98,#99,#100,#101,#102,#103,#104,#105,#106,
#107,#108,#109,#110,#111,#112,#113,#114,#115,#116));
#34=CYLINDRICAL_SURFACE('',#772,8.5);
#35=CYLINDRICAL_SURFACE('',#773,8.5);
#36=CYLINDRICAL_SURFACE('',#790,11.4);
#37=CYLINDRICAL_SURFACE('',#791,11.4);
#38=CYLINDRICAL_SURFACE('',#792,11.4);
#39=CYLINDRICAL_SURFACE('',#793,11.4);
#40=CYLINDRICAL_SURFACE('',#804,8.9);
#41=CYLINDRICAL_SURFACE('',#805,8.9);
#42=CYLINDRICAL_SURFACE('',#806,8.9);
#43=CYLINDRICAL_SURFACE('',#807,8.9);
#44=CYLINDRICAL_SURFACE('',#808,5.6);
#45=CYLINDRICAL_SURFACE('',#810,5.1);
#46=CYLINDRICAL_SURFACE('',#812,14.);
#47=FACE_OUTER_BOUND('',#312,.T.);
#48=FACE_OUTER_BOUND('',#313,.T.);
#49=FACE_OUTER_BOUND('',#314,.T.);
#50=FACE_OUTER_BOUND('',#318,.T.);
#51=FACE_OUTER_BOUND('',#319,.T.);
#52=FACE_OUTER_BOUND('',#320,.T.);
#53=FACE_OUTER_BOUND('',#321,.T.);
#54=FACE_OUTER_BOUND('',#322,.T.);
#55=FACE_OUTER_BOUND('',#323,.T.);
#56=FACE_OUTER_BOUND('',#324,.T.);
#57=FACE_OUTER_BOUND('',#325,.T.);
#58=FACE_OUTER_BOUND('',#326,.T.);
#59=FACE_OUTER_BOUND('',#327,.T.);
#60=FACE_OUTER_BOUND('',#328,.T.);
#61=FACE_OUTER_BOUND('',#329,.T.);
#62=FACE_OUTER_BOUND('',#330,.T.);
#63=FACE_OUTER_BOUND('',#331,.T.);
#64=FACE_OUTER_BOUND('',#334,.T.);
#65=FACE_OUTER_BOUND('',#335,.T.);
#66=FACE_OUTER_BOUND('',#336,.T.);
#67=FACE_OUTER_BOUND('',#337,.T.);
#68=FACE_OUTER_BOUND('',#338,.T.);
#69=FACE_OUTER_BOUND('',#339,.T.);
#70=FACE_OUTER_BOUND('',#340,.T.);
#71=FACE_OUTER_BOUND('',#341,.T.);
#72=FACE_OUTER_BOUND('',#342,.T.);
#73=FACE_OUTER_BOUND('',#345,.T.);
#74=FACE_OUTER_BOUND('',#346,.T.);
#75=FACE_OUTER_BOUND('',#347,.T.);
#76=FACE_OUTER_BOUND('',#348,.T.);
#77=FACE_OUTER_BOUND('',#353,.T.);
#78=ADVANCED_FACE('',(#289,#290,#291),#117,.T.);
#79=ADVANCED_FACE('',(#292,#293),#118,.T.);
#80=ADVANCED_FACE('',(#47),#119,.T.);
#81=ADVANCED_FACE('',(#48),#120,.T.);
#82=ADVANCED_FACE('',(#49),#121,.T.);
#83=ADVANCED_FACE('',(#294,#295,#296),#122,.T.);
#84=ADVANCED_FACE('',(#50),#123,.T.);
#85=ADVANCED_FACE('',(#51),#124,.F.);
#86=ADVANCED_FACE('',(#52),#125,.F.);
#87=ADVANCED_FACE('',(#53),#126,.F.);
#88=ADVANCED_FACE('',(#54),#127,.F.);
#89=ADVANCED_FACE('',(#55),#128,.F.);
#90=ADVANCED_FACE('',(#56),#34,.F.);
#91=ADVANCED_FACE('',(#57),#35,.F.);
#92=ADVANCED_FACE('',(#58),#129,.F.);
#93=ADVANCED_FACE('',(#59),#130,.F.);
#94=ADVANCED_FACE('',(#60),#131,.F.);
#95=ADVANCED_FACE('',(#61),#132,.F.);
#96=ADVANCED_FACE('',(#62),#133,.F.);
#97=ADVANCED_FACE('',(#63),#134,.F.);
#98=ADVANCED_FACE('',(#297,#298),#135,.F.);
#99=ADVANCED_FACE('',(#64),#136,.F.);
#100=ADVANCED_FACE('',(#65),#36,.F.);
#101=ADVANCED_FACE('',(#66),#37,.F.);
#102=ADVANCED_FACE('',(#67),#38,.F.);
#103=ADVANCED_FACE('',(#68),#39,.F.);
#104=ADVANCED_FACE('',(#69),#137,.F.);
#105=ADVANCED_FACE('',(#70),#138,.F.);
#106=ADVANCED_FACE('',(#71),#139,.F.);
#107=ADVANCED_FACE('',(#72),#140,.F.);
#108=ADVANCED_FACE('',(#299,#300),#141,.F.);
#109=ADVANCED_FACE('',(#73),#40,.F.);
#110=ADVANCED_FACE('',(#74),#41,.F.);
#111=ADVANCED_FACE('',(#75),#42,.F.);
#112=ADVANCED_FACE('',(#76),#43,.F.);
#113=ADVANCED_FACE('',(#301,#302),#44,.F.);
#114=ADVANCED_FACE('',(#303,#304),#45,.F.);
#115=ADVANCED_FACE('',(#77),#142,.F.);
#116=ADVANCED_FACE('',(#305,#306),#46,.F.);
#117=PLANE('',#755);
#118=PLANE('',#757);
#119=PLANE('',#758);
#120=PLANE('',#759);
#121=PLANE('',#760);
#122=PLANE('',#763);
#123=PLANE('',#764);
#124=PLANE('',#765);
#125=PLANE('',#766);
#126=PLANE('',#767);
#127=PLANE('',#770);
#128=PLANE('',#771);
#129=PLANE('',#774);
#130=PLANE('',#775);
#131=PLANE('',#776);
#132=PLANE('',#777);
#133=PLANE('',#778);
#134=PLANE('',#779);
#135=PLANE('',#788);
#136=PLANE('',#789);
#137=PLANE('',#794);
#138=PLANE('',#795);
#139=PLANE('',#796);
#140=PLANE('',#797);
#141=PLANE('',#803);
#142=PLANE('',#811);
#143=LINE('',#1021,#216);
#144=LINE('',#1026,#217);
#145=LINE('',#1030,#218);
#146=LINE('',#1034,#219);
#147=LINE('',#1037,#220);
#148=LINE('',#1040,#221);
#149=LINE('',#1042,#222);
#150=LINE('',#1044,#223);
#151=LINE('',#1048,#224);
#152=LINE('',#1052,#225);
#153=LINE('',#1054,#226);
#154=LINE('',#1056,#227);
#155=LINE('',#1060,#228);
#156=LINE('',#1063,#229);
#157=LINE('',#1065,#230);
#158=LINE('',#1067,#231);
#159=LINE('',#1069,#232);
#160=LINE('',#1071,#233);
#161=LINE('',#1073,#234);
#162=LINE('',#1075,#235);
#163=LINE('',#1076,#236);
#164=LINE('',#1078,#237);
#165=LINE('',#1080,#238);
#166=LINE('',#1082,#239);
#167=LINE('',#1084,#240);
#168=LINE('',#1085,#241);
#169=LINE('',#1087,#242);
#170=LINE('',#1089,#243);
#171=LINE('',#1091,#244);
#172=LINE('',#1093,#245);
#173=LINE('',#1095,#246);
#174=LINE('',#1101,#247);
#175=LINE('',#1103,#248);
#176=LINE('',#1105,#249);
#177=LINE('',#1106,#250);
#178=LINE('',#1108,#251);
#179=LINE('',#1111,#252);
#180=LINE('',#1113,#253);
#181=LINE('',#1115,#254);
#182=LINE('',#1117,#255);
#183=LINE('',#1119,#256);
#184=LINE('',#1122,#257);
#185=LINE('',#1126,#258);
#186=LINE('',#1130,#259);
#187=LINE('',#1132,#260);
#188=LINE('',#1135,#261);
#189=LINE('',#1137,#262);
#190=LINE('',#1139,#263);
#191=LINE('',#1141,#264);
#192=LINE('',#1143,#265);
#193=LINE('',#1145,#266);
#194=LINE('',#1147,#267);
#195=LINE('',#1150,#268);
#196=LINE('',#1151,#269);
#197=LINE('',#1153,#270);
#198=LINE('',#1158,#271);
#199=LINE('',#1162,#272);
#200=LINE('',#1166,#273);
#201=LINE('',#1171,#274);
#202=LINE('',#1177,#275);
#203=LINE('',#1178,#276);
#204=LINE('',#1184,#277);
#205=LINE('',#1186,#278);
#206=LINE('',#1188,#279);
#207=LINE('',#1190,#280);
#208=LINE('',#1193,#281);
#209=LINE('',#1194,#282);
#210=LINE('',#1196,#283);
#211=LINE('',#1199,#284);
#212=LINE('',#1200,#285);
#213=LINE('',#1202,#286);
#214=LINE('',#1205,#287);
#215=LINE('',#1206,#288);
#216=VECTOR('',#817,1.);
#217=VECTOR('',#820,1.);
#218=VECTOR('',#823,1.);
#219=VECTOR('',#826,1.);
#220=VECTOR('',#829,1.);
#221=VECTOR('',#830,1.);
#222=VECTOR('',#831,1.);
#223=VECTOR('',#832,1.);
#224=VECTOR('',#835,1.);
#225=VECTOR('',#838,1.);
#226=VECTOR('',#839,1.);
#227=VECTOR('',#840,1.);
#228=VECTOR('',#845,1.);
#229=VECTOR('',#846,1.);
#230=VECTOR('',#847,1.);
#231=VECTOR('',#848,1.);
#232=VECTOR('',#851,1.);
#233=VECTOR('',#852,1.);
#234=VECTOR('',#853,1.);
#235=VECTOR('',#854,1.);
#236=VECTOR('',#855,1.);
#237=VECTOR('',#856,1.);
#238=VECTOR('',#859,1.);
#239=VECTOR('',#860,1.);
#240=VECTOR('',#861,1.);
#241=VECTOR('',#862,1.);
#242=VECTOR('',#863,1.);
#243=VECTOR('',#864,1.);
#244=VECTOR('',#867,1.);
#245=VECTOR('',#868,1.);
#246=VECTOR('',#869,1.);
#247=VECTOR('',#876,1.);
#248=VECTOR('',#879,1.);
#249=VECTOR('',#880,1.);
#250=VECTOR('',#881,1.);
#251=VECTOR('',#882,1.);
#252=VECTOR('',#887,1.);
#253=VECTOR('',#888,1.);
#254=VECTOR('',#891,1.);
#255=VECTOR('',#892,1.);
#256=VECTOR('',#893,1.);
#257=VECTOR('',#898,1.);
#258=VECTOR('',#903,1.);
#259=VECTOR('',#910,1.);
#260=VECTOR('',#913,1.);
#261=VECTOR('',#918,1.);
#262=VECTOR('',#919,1.);
#263=VECTOR('',#920,1.);
#264=VECTOR('',#923,1.);
#265=VECTOR('',#924,1.);
#266=VECTOR('',#925,1.);
#267=VECTOR('',#928,1.);
#268=VECTOR('',#929,1.);
#269=VECTOR('',#930,1.);
#270=VECTOR('',#933,1.);
#271=VECTOR('',#936,1.);
#272=VECTOR('',#939,1.);
#273=VECTOR('',#942,1.);
#274=VECTOR('',#947,1.);
#275=VECTOR('',#956,1.);
#276=VECTOR('',#957,1.);
#277=VECTOR('',#968,1.);
#278=VECTOR('',#969,1.);
#279=VECTOR('',#970,1.);
#280=VECTOR('',#973,1.);
#281=VECTOR('',#974,1.);
#282=VECTOR('',#975,1.);
#283=VECTOR('',#978,1.);
#284=VECTOR('',#979,1.);
#285=VECTOR('',#980,1.);
#286=VECTOR('',#983,1.);
#287=VECTOR('',#984,1.);
#288=VECTOR('',#985,1.);
#289=FACE_BOUND('',#307,.T.);
#290=FACE_BOUND('',#308,.T.);
#291=FACE_BOUND('',#309,.T.);
#292=FACE_BOUND('',#310,.T.);
#293=FACE_BOUND('',#311,.T.);
#294=FACE_BOUND('',#315,.T.);
#295=FACE_BOUND('',#316,.T.);
#296=FACE_BOUND('',#317,.T.);
#297=FACE_BOUND('',#332,.T.);
#298=FACE_BOUND('',#333,.T.);
#299=FACE_BOUND('',#343,.T.);
#300=FACE_BOUND('',#344,.T.);
#301=FACE_BOUND('',#349,.T.);
#302=FACE_BOUND('',#350,.T.);
#303=FACE_BOUND('',#351,.T.);
#304=FACE_BOUND('',#352,.T.);
#305=FACE_BOUND('',#354,.T.);
#306=FACE_BOUND('',#355,.T.);
#307=EDGE_LOOP('',(#356));
#308=EDGE_LOOP('',(#357,#358,#359,#360,#361,#362,#363,#364));
#309=EDGE_LOOP('',(#365,#366,#367,#368,#369,#370,#371,#372,#373,#374));
#310=EDGE_LOOP('',(#375));
#311=EDGE_LOOP('',(#376,#377,#378,#379));
#312=EDGE_LOOP('',(#380,#381,#382,#383,#384,#385,#386,#387));
#313=EDGE_LOOP('',(#388,#389,#390,#391,#392,#393,#394,#395,#396));
#314=EDGE_LOOP('',(#397,#398,#399,#400));
#315=EDGE_LOOP('',(#401));
#316=EDGE_LOOP('',(#402));
#317=EDGE_LOOP('',(#403,#404,#405,#406));
#318=EDGE_LOOP('',(#407,#408,#409,#410,#411,#412,#413,#414,#415));
#319=EDGE_LOOP('',(#416,#417,#418,#419));
#320=EDGE_LOOP('',(#420,#421,#422,#423));
#321=EDGE_LOOP('',(#424,#425,#426,#427));
#322=EDGE_LOOP('',(#428,#429,#430,#431,#432,#433));
#323=EDGE_LOOP('',(#434,#435,#436,#437));
#324=EDGE_LOOP('',(#438,#439,#440,#441));
#325=EDGE_LOOP('',(#442,#443,#444,#445));
#326=EDGE_LOOP('',(#446,#447,#448,#449));
#327=EDGE_LOOP('',(#450,#451,#452,#453));
#328=EDGE_LOOP('',(#454,#455,#456,#457));
#329=EDGE_LOOP('',(#458,#459,#460,#461));
#330=EDGE_LOOP('',(#462,#463,#464,#465));
#331=EDGE_LOOP('',(#466,#467,#468,#469));
#332=EDGE_LOOP('',(#470,#471,#472,#473,#474,#475,#476,#477));
#333=EDGE_LOOP('',(#478,#479,#480,#481,#482,#483,#484,#485));
#334=EDGE_LOOP('',(#486,#487,#488,#489));
#335=EDGE_LOOP('',(#490,#491,#492,#493));
#336=EDGE_LOOP('',(#494,#495,#496,#497));
#337=EDGE_LOOP('',(#498,#499,#500,#501));
#338=EDGE_LOOP('',(#502,#503,#504,#505));
#339=EDGE_LOOP('',(#506,#507,#508,#509));
#340=EDGE_LOOP('',(#510,#511,#512,#513));
#341=EDGE_LOOP('',(#514,#515,#516,#517));
#342=EDGE_LOOP('',(#518,#519,#520,#521));
#343=EDGE_LOOP('',(#522));
#344=EDGE_LOOP('',(#523,#524,#525,#526,#527,#528,#529,#530));
#345=EDGE_LOOP('',(#531,#532,#533,#534));
#346=EDGE_LOOP('',(#535,#536,#537,#538));
#347=EDGE_LOOP('',(#539,#540,#541,#542));
#348=EDGE_LOOP('',(#543,#544,#545,#546));
#349=EDGE_LOOP('',(#547));
#350=EDGE_LOOP('',(#548));
#351=EDGE_LOOP('',(#549));
#352=EDGE_LOOP('',(#550));
#353=EDGE_LOOP('',(#551));
#354=EDGE_LOOP('',(#552));
#355=EDGE_LOOP('',(#553));
#356=ORIENTED_EDGE('',*,*,#622,.F.);
#357=ORIENTED_EDGE('',*,*,#623,.F.);
#358=ORIENTED_EDGE('',*,*,#624,.T.);
#359=ORIENTED_EDGE('',*,*,#625,.F.);
#360=ORIENTED_EDGE('',*,*,#626,.T.);
#361=ORIENTED_EDGE('',*,*,#627,.F.);
#362=ORIENTED_EDGE('',*,*,#628,.T.);
#363=ORIENTED_EDGE('',*,*,#629,.F.);
#364=ORIENTED_EDGE('',*,*,#630,.T.);
#365=ORIENTED_EDGE('',*,*,#631,.F.);
#366=ORIENTED_EDGE('',*,*,#632,.F.);
#367=ORIENTED_EDGE('',*,*,#633,.F.);
#368=ORIENTED_EDGE('',*,*,#634,.F.);
#369=ORIENTED_EDGE('',*,*,#635,.T.);
#370=ORIENTED_EDGE('',*,*,#636,.F.);
#371=ORIENTED_EDGE('',*,*,#637,.T.);
#372=ORIENTED_EDGE('',*,*,#638,.F.);
#373=ORIENTED_EDGE('',*,*,#639,.F.);
#374=ORIENTED_EDGE('',*,*,#640,.F.);
#375=ORIENTED_EDGE('',*,*,#641,.F.);
#376=ORIENTED_EDGE('',*,*,#642,.F.);
#377=ORIENTED_EDGE('',*,*,#643,.F.);
#378=ORIENTED_EDGE('',*,*,#644,.T.);
#379=ORIENTED_EDGE('',*,*,#645,.F.);
#380=ORIENTED_EDGE('',*,*,#646,.T.);
#381=ORIENTED_EDGE('',*,*,#633,.T.);
#382=ORIENTED_EDGE('',*,*,#647,.F.);
#383=ORIENTED_EDGE('',*,*,#648,.T.);
#384=ORIENTED_EDGE('',*,*,#649,.T.);
#385=ORIENTED_EDGE('',*,*,#639,.T.);
#386=ORIENTED_EDGE('',*,*,#650,.F.);
#387=ORIENTED_EDGE('',*,*,#651,.F.);
#388=ORIENTED_EDGE('',*,*,#652,.F.);
#389=ORIENTED_EDGE('',*,*,#653,.F.);
#390=ORIENTED_EDGE('',*,*,#654,.F.);
#391=ORIENTED_EDGE('',*,*,#645,.T.);
#392=ORIENTED_EDGE('',*,*,#655,.T.);
#393=ORIENTED_EDGE('',*,*,#656,.F.);
#394=ORIENTED_EDGE('',*,*,#657,.T.);
#395=ORIENTED_EDGE('',*,*,#647,.T.);
#396=ORIENTED_EDGE('',*,*,#632,.T.);
#397=ORIENTED_EDGE('',*,*,#656,.T.);
#398=ORIENTED_EDGE('',*,*,#658,.T.);
#399=ORIENTED_EDGE('',*,*,#659,.F.);
#400=ORIENTED_EDGE('',*,*,#660,.T.);
#401=ORIENTED_EDGE('',*,*,#661,.F.);
#402=ORIENTED_EDGE('',*,*,#662,.F.);
#403=ORIENTED_EDGE('',*,*,#663,.F.);
#404=ORIENTED_EDGE('',*,*,#648,.F.);
#405=ORIENTED_EDGE('',*,*,#657,.F.);
#406=ORIENTED_EDGE('',*,*,#660,.F.);
#407=ORIENTED_EDGE('',*,*,#664,.F.);
#408=ORIENTED_EDGE('',*,*,#640,.T.);
#409=ORIENTED_EDGE('',*,*,#649,.F.);
#410=ORIENTED_EDGE('',*,*,#663,.T.);
#411=ORIENTED_EDGE('',*,*,#659,.T.);
#412=ORIENTED_EDGE('',*,*,#665,.T.);
#413=ORIENTED_EDGE('',*,*,#643,.T.);
#414=ORIENTED_EDGE('',*,*,#666,.F.);
#415=ORIENTED_EDGE('',*,*,#667,.F.);
#416=ORIENTED_EDGE('',*,*,#655,.F.);
#417=ORIENTED_EDGE('',*,*,#644,.F.);
#418=ORIENTED_EDGE('',*,*,#665,.F.);
#419=ORIENTED_EDGE('',*,*,#658,.F.);
#420=ORIENTED_EDGE('',*,*,#668,.T.);
#421=ORIENTED_EDGE('',*,*,#669,.T.);
#422=ORIENTED_EDGE('',*,*,#634,.T.);
#423=ORIENTED_EDGE('',*,*,#646,.F.);
#424=ORIENTED_EDGE('',*,*,#636,.T.);
#425=ORIENTED_EDGE('',*,*,#670,.T.);
#426=ORIENTED_EDGE('',*,*,#671,.T.);
#427=ORIENTED_EDGE('',*,*,#672,.T.);
#428=ORIENTED_EDGE('',*,*,#671,.F.);
#429=ORIENTED_EDGE('',*,*,#673,.T.);
#430=ORIENTED_EDGE('',*,*,#668,.F.);
#431=ORIENTED_EDGE('',*,*,#651,.T.);
#432=ORIENTED_EDGE('',*,*,#674,.F.);
#433=ORIENTED_EDGE('',*,*,#675,.T.);
#434=ORIENTED_EDGE('',*,*,#638,.T.);
#435=ORIENTED_EDGE('',*,*,#676,.T.);
#436=ORIENTED_EDGE('',*,*,#674,.T.);
#437=ORIENTED_EDGE('',*,*,#650,.T.);
#438=ORIENTED_EDGE('',*,*,#635,.F.);
#439=ORIENTED_EDGE('',*,*,#669,.F.);
#440=ORIENTED_EDGE('',*,*,#673,.F.);
#441=ORIENTED_EDGE('',*,*,#670,.F.);
#442=ORIENTED_EDGE('',*,*,#637,.F.);
#443=ORIENTED_EDGE('',*,*,#672,.F.);
#444=ORIENTED_EDGE('',*,*,#675,.F.);
#445=ORIENTED_EDGE('',*,*,#676,.F.);
#446=ORIENTED_EDGE('',*,*,#652,.T.);
#447=ORIENTED_EDGE('',*,*,#631,.T.);
#448=ORIENTED_EDGE('',*,*,#664,.T.);
#449=ORIENTED_EDGE('',*,*,#677,.T.);
#450=ORIENTED_EDGE('',*,*,#654,.T.);
#451=ORIENTED_EDGE('',*,*,#678,.T.);
#452=ORIENTED_EDGE('',*,*,#666,.T.);
#453=ORIENTED_EDGE('',*,*,#642,.T.);
#454=ORIENTED_EDGE('',*,*,#653,.T.);
#455=ORIENTED_EDGE('',*,*,#677,.F.);
#456=ORIENTED_EDGE('',*,*,#667,.T.);
#457=ORIENTED_EDGE('',*,*,#678,.F.);
#458=ORIENTED_EDGE('',*,*,#623,.T.);
#459=ORIENTED_EDGE('',*,*,#679,.T.);
#460=ORIENTED_EDGE('',*,*,#680,.T.);
#461=ORIENTED_EDGE('',*,*,#681,.T.);
#462=ORIENTED_EDGE('',*,*,#625,.T.);
#463=ORIENTED_EDGE('',*,*,#682,.T.);
#464=ORIENTED_EDGE('',*,*,#683,.T.);
#465=ORIENTED_EDGE('',*,*,#684,.T.);
#466=ORIENTED_EDGE('',*,*,#685,.T.);
#467=ORIENTED_EDGE('',*,*,#686,.T.);
#468=ORIENTED_EDGE('',*,*,#627,.T.);
#469=ORIENTED_EDGE('',*,*,#687,.T.);
#470=ORIENTED_EDGE('',*,*,#688,.T.);
#471=ORIENTED_EDGE('',*,*,#689,.T.);
#472=ORIENTED_EDGE('',*,*,#690,.T.);
#473=ORIENTED_EDGE('',*,*,#691,.T.);
#474=ORIENTED_EDGE('',*,*,#692,.T.);
#475=ORIENTED_EDGE('',*,*,#693,.T.);
#476=ORIENTED_EDGE('',*,*,#694,.T.);
#477=ORIENTED_EDGE('',*,*,#695,.T.);
#478=ORIENTED_EDGE('',*,*,#680,.F.);
#479=ORIENTED_EDGE('',*,*,#696,.T.);
#480=ORIENTED_EDGE('',*,*,#697,.F.);
#481=ORIENTED_EDGE('',*,*,#698,.T.);
#482=ORIENTED_EDGE('',*,*,#685,.F.);
#483=ORIENTED_EDGE('',*,*,#699,.T.);
#484=ORIENTED_EDGE('',*,*,#683,.F.);
#485=ORIENTED_EDGE('',*,*,#700,.T.);
#486=ORIENTED_EDGE('',*,*,#697,.T.);
#487=ORIENTED_EDGE('',*,*,#701,.T.);
#488=ORIENTED_EDGE('',*,*,#629,.T.);
#489=ORIENTED_EDGE('',*,*,#702,.T.);
#490=ORIENTED_EDGE('',*,*,#630,.F.);
#491=ORIENTED_EDGE('',*,*,#701,.F.);
#492=ORIENTED_EDGE('',*,*,#696,.F.);
#493=ORIENTED_EDGE('',*,*,#679,.F.);
#494=ORIENTED_EDGE('',*,*,#628,.F.);
#495=ORIENTED_EDGE('',*,*,#686,.F.);
#496=ORIENTED_EDGE('',*,*,#698,.F.);
#497=ORIENTED_EDGE('',*,*,#702,.F.);
#498=ORIENTED_EDGE('',*,*,#624,.F.);
#499=ORIENTED_EDGE('',*,*,#681,.F.);
#500=ORIENTED_EDGE('',*,*,#700,.F.);
#501=ORIENTED_EDGE('',*,*,#682,.F.);
#502=ORIENTED_EDGE('',*,*,#626,.F.);
#503=ORIENTED_EDGE('',*,*,#684,.F.);
#504=ORIENTED_EDGE('',*,*,#699,.F.);
#505=ORIENTED_EDGE('',*,*,#687,.F.);
#506=ORIENTED_EDGE('',*,*,#692,.F.);
#507=ORIENTED_EDGE('',*,*,#703,.T.);
#508=ORIENTED_EDGE('',*,*,#704,.T.);
#509=ORIENTED_EDGE('',*,*,#705,.T.);
#510=ORIENTED_EDGE('',*,*,#706,.T.);
#511=ORIENTED_EDGE('',*,*,#707,.T.);
#512=ORIENTED_EDGE('',*,*,#694,.F.);
#513=ORIENTED_EDGE('',*,*,#708,.T.);
#514=ORIENTED_EDGE('',*,*,#709,.T.);
#515=ORIENTED_EDGE('',*,*,#710,.T.);
#516=ORIENTED_EDGE('',*,*,#688,.F.);
#517=ORIENTED_EDGE('',*,*,#711,.T.);
#518=ORIENTED_EDGE('',*,*,#712,.T.);
#519=ORIENTED_EDGE('',*,*,#713,.T.);
#520=ORIENTED_EDGE('',*,*,#690,.F.);
#521=ORIENTED_EDGE('',*,*,#714,.T.);
#522=ORIENTED_EDGE('',*,*,#715,.T.);
#523=ORIENTED_EDGE('',*,*,#704,.F.);
#524=ORIENTED_EDGE('',*,*,#716,.T.);
#525=ORIENTED_EDGE('',*,*,#712,.F.);
#526=ORIENTED_EDGE('',*,*,#717,.T.);
#527=ORIENTED_EDGE('',*,*,#709,.F.);
#528=ORIENTED_EDGE('',*,*,#718,.T.);
#529=ORIENTED_EDGE('',*,*,#706,.F.);
#530=ORIENTED_EDGE('',*,*,#719,.T.);
#531=ORIENTED_EDGE('',*,*,#691,.F.);
#532=ORIENTED_EDGE('',*,*,#713,.F.);
#533=ORIENTED_EDGE('',*,*,#716,.F.);
#534=ORIENTED_EDGE('',*,*,#703,.F.);
#535=ORIENTED_EDGE('',*,*,#689,.F.);
#536=ORIENTED_EDGE('',*,*,#710,.F.);
#537=ORIENTED_EDGE('',*,*,#717,.F.);
#538=ORIENTED_EDGE('',*,*,#714,.F.);
#539=ORIENTED_EDGE('',*,*,#695,.F.);
#540=ORIENTED_EDGE('',*,*,#707,.F.);
#541=ORIENTED_EDGE('',*,*,#718,.F.);
#542=ORIENTED_EDGE('',*,*,#711,.F.);
#543=ORIENTED_EDGE('',*,*,#693,.F.);
#544=ORIENTED_EDGE('',*,*,#705,.F.);
#545=ORIENTED_EDGE('',*,*,#719,.F.);
#546=ORIENTED_EDGE('',*,*,#708,.F.);
#547=ORIENTED_EDGE('',*,*,#622,.T.);
#548=ORIENTED_EDGE('',*,*,#662,.T.);
#549=ORIENTED_EDGE('',*,*,#720,.T.);
#550=ORIENTED_EDGE('',*,*,#715,.F.);
#551=ORIENTED_EDGE('',*,*,#720,.F.);
#552=ORIENTED_EDGE('',*,*,#641,.T.);
#553=ORIENTED_EDGE('',*,*,#661,.T.);
#554=VERTEX_POINT('',#1020);
#555=VERTEX_POINT('',#1022);
#556=VERTEX_POINT('',#1023);
#557=VERTEX_POINT('',#1025);
#558=VERTEX_POINT('',#1027);
#559=VERTEX_POINT('',#1029);
#560=VERTEX_POINT('',#1031);
#561=VERTEX_POINT('',#1033);
#562=VERTEX_POINT('',#1035);
#563=VERTEX_POINT('',#1038);
#564=VERTEX_POINT('',#1039);
#565=VERTEX_POINT('',#1041);
#566=VERTEX_POINT('',#1043);
#567=VERTEX_POINT('',#1045);
#568=VERTEX_POINT('',#1047);
#569=VERTEX_POINT('',#1049);
#570=VERTEX_POINT('',#1051);
#571=VERTEX_POINT('',#1053);
#572=VERTEX_POINT('',#1055);
#573=VERTEX_POINT('',#1059);
#574=VERTEX_POINT('',#1061);
#575=VERTEX_POINT('',#1062);
#576=VERTEX_POINT('',#1064);
#577=VERTEX_POINT('',#1066);
#578=VERTEX_POINT('',#1070);
#579=VERTEX_POINT('',#1072);
#580=VERTEX_POINT('',#1074);
#581=VERTEX_POINT('',#1077);
#582=VERTEX_POINT('',#1081);
#583=VERTEX_POINT('',#1083);
#584=VERTEX_POINT('',#1086);
#585=VERTEX_POINT('',#1088);
#586=VERTEX_POINT('',#1092);
#587=VERTEX_POINT('',#1094);
#588=VERTEX_POINT('',#1098);
#589=VERTEX_POINT('',#1100);
#590=VERTEX_POINT('',#1104);
#591=VERTEX_POINT('',#1107);
#592=VERTEX_POINT('',#1112);
#593=VERTEX_POINT('',#1116);
#594=VERTEX_POINT('',#1118);
#595=VERTEX_POINT('',#1123);
#596=VERTEX_POINT('',#1136);
#597=VERTEX_POINT('',#1138);
#598=VERTEX_POINT('',#1142);
#599=VERTEX_POINT('',#1144);
#600=VERTEX_POINT('',#1148);
#601=VERTEX_POINT('',#1149);
#602=VERTEX_POINT('',#1154);
#603=VERTEX_POINT('',#1155);
#604=VERTEX_POINT('',#1157);
#605=VERTEX_POINT('',#1159);
#606=VERTEX_POINT('',#1161);
#607=VERTEX_POINT('',#1163);
#608=VERTEX_POINT('',#1165);
#609=VERTEX_POINT('',#1167);
#610=VERTEX_POINT('',#1170);
#611=VERTEX_POINT('',#1172);
#612=VERTEX_POINT('',#1185);
#613=VERTEX_POINT('',#1187);
#614=VERTEX_POINT('',#1191);
#615=VERTEX_POINT('',#1192);
#616=VERTEX_POINT('',#1197);
#617=VERTEX_POINT('',#1198);
#618=VERTEX_POINT('',#1203);
#619=VERTEX_POINT('',#1204);
#620=VERTEX_POINT('',#1209);
#621=VERTEX_POINT('',#1221);
#622=EDGE_CURVE('',#554,#554,#721,.T.);
#623=EDGE_CURVE('',#555,#556,#143,.T.);
#624=EDGE_CURVE('',#555,#557,#722,.T.);
#625=EDGE_CURVE('',#558,#557,#144,.T.);
#626=EDGE_CURVE('',#558,#559,#723,.T.);
#627=EDGE_CURVE('',#560,#559,#145,.T.);
#628=EDGE_CURVE('',#560,#561,#724,.T.);
#629=EDGE_CURVE('',#562,#561,#146,.T.);
#630=EDGE_CURVE('',#562,#556,#725,.T.);
#631=EDGE_CURVE('',#563,#564,#147,.T.);
#632=EDGE_CURVE('',#565,#563,#148,.T.);
#633=EDGE_CURVE('',#566,#565,#149,.T.);
#634=EDGE_CURVE('',#567,#566,#150,.T.);
#635=EDGE_CURVE('',#567,#568,#726,.T.);
#636=EDGE_CURVE('',#569,#568,#151,.T.);
#637=EDGE_CURVE('',#569,#570,#727,.T.);
#638=EDGE_CURVE('',#571,#570,#152,.T.);
#639=EDGE_CURVE('',#572,#571,#153,.T.);
#640=EDGE_CURVE('',#564,#572,#154,.T.);
#641=EDGE_CURVE('',#573,#573,#728,.T.);
#642=EDGE_CURVE('',#574,#575,#155,.T.);
#643=EDGE_CURVE('',#576,#574,#156,.T.);
#644=EDGE_CURVE('',#576,#577,#157,.T.);
#645=EDGE_CURVE('',#575,#577,#158,.T.);
#646=EDGE_CURVE('',#578,#566,#159,.T.);
#647=EDGE_CURVE('',#579,#565,#160,.T.);
#648=EDGE_CURVE('',#579,#580,#161,.T.);
#649=EDGE_CURVE('',#580,#572,#162,.T.);
#650=EDGE_CURVE('',#581,#571,#163,.T.);
#651=EDGE_CURVE('',#578,#581,#164,.T.);
#652=EDGE_CURVE('',#582,#563,#165,.T.);
#653=EDGE_CURVE('',#583,#582,#166,.T.);
#654=EDGE_CURVE('',#575,#583,#167,.T.);
#655=EDGE_CURVE('',#577,#584,#168,.T.);
#656=EDGE_CURVE('',#585,#584,#169,.T.);
#657=EDGE_CURVE('',#585,#579,#170,.T.);
#658=EDGE_CURVE('',#584,#586,#171,.T.);
#659=EDGE_CURVE('',#587,#586,#172,.T.);
#660=EDGE_CURVE('',#587,#585,#173,.T.);
#661=EDGE_CURVE('',#588,#588,#729,.T.);
#662=EDGE_CURVE('',#589,#589,#730,.T.);
#663=EDGE_CURVE('',#580,#587,#174,.T.);
#664=EDGE_CURVE('',#564,#590,#175,.T.);
#665=EDGE_CURVE('',#586,#576,#176,.T.);
#666=EDGE_CURVE('',#591,#574,#177,.T.);
#667=EDGE_CURVE('',#590,#591,#178,.T.);
#668=EDGE_CURVE('',#578,#592,#179,.T.);
#669=EDGE_CURVE('',#592,#567,#180,.T.);
#670=EDGE_CURVE('',#568,#593,#181,.T.);
#671=EDGE_CURVE('',#593,#594,#182,.T.);
#672=EDGE_CURVE('',#594,#569,#183,.T.);
#673=EDGE_CURVE('',#593,#592,#731,.T.);
#674=EDGE_CURVE('',#595,#581,#184,.T.);
#675=EDGE_CURVE('',#595,#594,#732,.T.);
#676=EDGE_CURVE('',#570,#595,#185,.T.);
#677=EDGE_CURVE('',#590,#582,#186,.T.);
#678=EDGE_CURVE('',#583,#591,#187,.T.);
#679=EDGE_CURVE('',#556,#596,#188,.T.);
#680=EDGE_CURVE('',#596,#597,#189,.T.);
#681=EDGE_CURVE('',#597,#555,#190,.T.);
#682=EDGE_CURVE('',#557,#598,#191,.T.);
#683=EDGE_CURVE('',#598,#599,#192,.T.);
#684=EDGE_CURVE('',#599,#558,#193,.T.);
#685=EDGE_CURVE('',#600,#601,#194,.T.);
#686=EDGE_CURVE('',#601,#560,#195,.T.);
#687=EDGE_CURVE('',#559,#600,#196,.T.);
#688=EDGE_CURVE('',#602,#603,#197,.T.);
#689=EDGE_CURVE('',#603,#604,#733,.T.);
#690=EDGE_CURVE('',#604,#605,#198,.T.);
#691=EDGE_CURVE('',#605,#606,#734,.T.);
#692=EDGE_CURVE('',#606,#607,#199,.T.);
#693=EDGE_CURVE('',#607,#608,#735,.T.);
#694=EDGE_CURVE('',#608,#609,#200,.T.);
#695=EDGE_CURVE('',#609,#602,#736,.T.);
#696=EDGE_CURVE('',#596,#610,#737,.T.);
#697=EDGE_CURVE('',#611,#610,#201,.T.);
#698=EDGE_CURVE('',#611,#601,#738,.T.);
#699=EDGE_CURVE('',#600,#599,#739,.T.);
#700=EDGE_CURVE('',#598,#597,#740,.T.);
#701=EDGE_CURVE('',#610,#562,#202,.T.);
#702=EDGE_CURVE('',#561,#611,#203,.T.);
#703=EDGE_CURVE('',#606,#612,#204,.T.);
#704=EDGE_CURVE('',#612,#613,#205,.T.);
#705=EDGE_CURVE('',#613,#607,#206,.T.);
#706=EDGE_CURVE('',#614,#615,#207,.T.);
#707=EDGE_CURVE('',#615,#609,#208,.T.);
#708=EDGE_CURVE('',#608,#614,#209,.T.);
#709=EDGE_CURVE('',#616,#617,#210,.T.);
#710=EDGE_CURVE('',#617,#603,#211,.T.);
#711=EDGE_CURVE('',#602,#616,#212,.T.);
#712=EDGE_CURVE('',#618,#619,#213,.T.);
#713=EDGE_CURVE('',#619,#605,#214,.T.);
#714=EDGE_CURVE('',#604,#618,#215,.T.);
#715=EDGE_CURVE('',#620,#620,#741,.T.);
#716=EDGE_CURVE('',#612,#619,#742,.T.);
#717=EDGE_CURVE('',#618,#617,#743,.T.);
#718=EDGE_CURVE('',#616,#615,#744,.T.);
#719=EDGE_CURVE('',#614,#613,#745,.T.);
#720=EDGE_CURVE('',#621,#621,#746,.T.);
#721=CIRCLE('',#748,5.6);
#722=CIRCLE('',#749,11.4);
#723=CIRCLE('',#750,11.4);
#724=CIRCLE('',#751,11.4);
#725=CIRCLE('',#752,11.4);
#726=CIRCLE('',#753,8.5);
#727=CIRCLE('',#754,8.5);
#728=CIRCLE('',#756,14.);
#729=CIRCLE('',#761,14.);
#730=CIRCLE('',#762,5.6);
#731=CIRCLE('',#768,8.5);
#732=CIRCLE('',#769,8.5);
#733=CIRCLE('',#780,8.9);
#734=CIRCLE('',#781,8.9);
#735=CIRCLE('',#782,8.9);
#736=CIRCLE('',#783,8.9);
#737=CIRCLE('',#784,11.4);
#738=CIRCLE('',#785,11.4);
#739=CIRCLE('',#786,11.4);
#740=CIRCLE('',#787,11.4);
#741=CIRCLE('',#798,5.1);
#742=CIRCLE('',#799,8.9);
#743=CIRCLE('',#800,8.9);
#744=CIRCLE('',#801,8.9);
#745=CIRCLE('',#802,8.9);
#746=CIRCLE('',#809,5.1);
#747=AXIS2_PLACEMENT_3D('',#1018,#813,#814);
#748=AXIS2_PLACEMENT_3D('',#1019,#815,#816);
#749=AXIS2_PLACEMENT_3D('',#1024,#818,#819);
#750=AXIS2_PLACEMENT_3D('',#1028,#821,#822);
#751=AXIS2_PLACEMENT_3D('',#1032,#824,#825);
#752=AXIS2_PLACEMENT_3D('',#1036,#827,#828);
#753=AXIS2_PLACEMENT_3D('',#1046,#833,#834);
#754=AXIS2_PLACEMENT_3D('',#1050,#836,#837);
#755=AXIS2_PLACEMENT_3D('',#1057,#841,#842);
#756=AXIS2_PLACEMENT_3D('',#1058,#843,#844);
#757=AXIS2_PLACEMENT_3D('',#1068,#849,#850);
#758=AXIS2_PLACEMENT_3D('',#1079,#857,#858);
#759=AXIS2_PLACEMENT_3D('',#1090,#865,#866);
#760=AXIS2_PLACEMENT_3D('',#1096,#870,#871);
#761=AXIS2_PLACEMENT_3D('',#1097,#872,#873);
#762=AXIS2_PLACEMENT_3D('',#1099,#874,#875);
#763=AXIS2_PLACEMENT_3D('',#1102,#877,#878);
#764=AXIS2_PLACEMENT_3D('',#1109,#883,#884);
#765=AXIS2_PLACEMENT_3D('',#1110,#885,#886);
#766=AXIS2_PLACEMENT_3D('',#1114,#889,#890);
#767=AXIS2_PLACEMENT_3D('',#1120,#894,#895);
#768=AXIS2_PLACEMENT_3D('',#1121,#896,#897);
#769=AXIS2_PLACEMENT_3D('',#1124,#899,#900);
#770=AXIS2_PLACEMENT_3D('',#1125,#901,#902);
#771=AXIS2_PLACEMENT_3D('',#1127,#904,#905);
#772=AXIS2_PLACEMENT_3D('',#1128,#906,#907);
#773=AXIS2_PLACEMENT_3D('',#1129,#908,#909);
#774=AXIS2_PLACEMENT_3D('',#1131,#911,#912);
#775=AXIS2_PLACEMENT_3D('',#1133,#914,#915);
#776=AXIS2_PLACEMENT_3D('',#1134,#916,#917);
#777=AXIS2_PLACEMENT_3D('',#1140,#921,#922);
#778=AXIS2_PLACEMENT_3D('',#1146,#926,#927);
#779=AXIS2_PLACEMENT_3D('',#1152,#931,#932);
#780=AXIS2_PLACEMENT_3D('',#1156,#934,#935);
#781=AXIS2_PLACEMENT_3D('',#1160,#937,#938);
#782=AXIS2_PLACEMENT_3D('',#1164,#940,#941);
#783=AXIS2_PLACEMENT_3D('',#1168,#943,#944);
#784=AXIS2_PLACEMENT_3D('',#1169,#945,#946);
#785=AXIS2_PLACEMENT_3D('',#1173,#948,#949);
#786=AXIS2_PLACEMENT_3D('',#1174,#950,#951);
#787=AXIS2_PLACEMENT_3D('',#1175,#952,#953);
#788=AXIS2_PLACEMENT_3D('',#1176,#954,#955);
#789=AXIS2_PLACEMENT_3D('',#1179,#958,#959);
#790=AXIS2_PLACEMENT_3D('',#1180,#960,#961);
#791=AXIS2_PLACEMENT_3D('',#1181,#962,#963);
#792=AXIS2_PLACEMENT_3D('',#1182,#964,#965);
#793=AXIS2_PLACEMENT_3D('',#1183,#966,#967);
#794=AXIS2_PLACEMENT_3D('',#1189,#971,#972);
#795=AXIS2_PLACEMENT_3D('',#1195,#976,#977);
#796=AXIS2_PLACEMENT_3D('',#1201,#981,#982);
#797=AXIS2_PLACEMENT_3D('',#1207,#986,#987);
#798=AXIS2_PLACEMENT_3D('',#1208,#988,#989);
#799=AXIS2_PLACEMENT_3D('',#1210,#990,#991);
#800=AXIS2_PLACEMENT_3D('',#1211,#992,#993);
#801=AXIS2_PLACEMENT_3D('',#1212,#994,#995);
#802=AXIS2_PLACEMENT_3D('',#1213,#996,#997);
#803=AXIS2_PLACEMENT_3D('',#1214,#998,#999);
#804=AXIS2_PLACEMENT_3D('',#1215,#1000,#1001);
#805=AXIS2_PLACEMENT_3D('',#1216,#1002,#1003);
#806=AXIS2_PLACEMENT_3D('',#1217,#1004,#1005);
#807=AXIS2_PLACEMENT_3D('',#1218,#1006,#1007);
#808=AXIS2_PLACEMENT_3D('',#1219,#1008,#1009);
#809=AXIS2_PLACEMENT_3D('',#1220,#1010,#1011);
#810=AXIS2_PLACEMENT_3D('',#1222,#1012,#1013);
#811=AXIS2_PLACEMENT_3D('',#1223,#1014,#1015);
#812=AXIS2_PLACEMENT_3D('',#1224,#1016,#1017);
#813=DIRECTION('',(0.,0.,1.));
#814=DIRECTION('',(1.,0.,0.));
#815=DIRECTION('',(0.,0.,1.));
#816=DIRECTION('',(0.999999999999999,0.,0.));
#817=DIRECTION('',(1.,0.,0.));
#818=DIRECTION('',(0.,0.,-1.));
#819=DIRECTION('',(1.,0.,0.));
#820=DIRECTION('',(0.,-1.,0.));
#821=DIRECTION('',(0.,0.,-1.));
#822=DIRECTION('',(1.,0.,0.));
#823=DIRECTION('',(-1.,0.,0.));
#824=DIRECTION('',(0.,0.,-1.));
#825=DIRECTION('',(0.999999999999999,0.,0.));
#826=DIRECTION('',(0.,1.,0.));
#827=DIRECTION('',(0.,0.,-1.));
#828=DIRECTION('',(0.999999999999999,0.,0.));
#829=DIRECTION('',(1.,0.,0.));
#830=DIRECTION('',(0.,1.,0.));
#831=DIRECTION('',(-1.,0.,0.));
#832=DIRECTION('',(0.,-1.,0.));
#833=DIRECTION('',(0.,0.,-1.));
#834=DIRECTION('',(1.,0.,0.));
#835=DIRECTION('',(-1.,0.,0.));
#836=DIRECTION('',(0.,0.,-1.));
#837=DIRECTION('',(1.,0.,0.));
#838=DIRECTION('',(0.,1.,0.));
#839=DIRECTION('',(-1.,0.,0.));
#840=DIRECTION('',(0.,-1.,0.));
#841=DIRECTION('',(0.,0.,1.));
#842=DIRECTION('',(1.,0.,0.));
#843=DIRECTION('',(0.,0.,1.));
#844=DIRECTION('',(1.,0.,0.));
#845=DIRECTION('',(-1.,0.,0.));
#846=DIRECTION('',(0.,-1.,0.));
#847=DIRECTION('',(-1.,0.,0.));
#848=DIRECTION('',(0.,1.,0.));
#849=DIRECTION('',(0.,0.,1.));
#850=DIRECTION('',(1.,0.,0.));
#851=DIRECTION('',(0.,0.,1.));
#852=DIRECTION('',(0.,0.,1.));
#853=DIRECTION('',(1.,0.,0.));
#854=DIRECTION('',(0.,0.,1.));
#855=DIRECTION('',(0.,0.,1.));
#856=DIRECTION('',(1.,0.,0.));
#857=DIRECTION('',(0.,-1.,0.));
#858=DIRECTION('',(0.,0.,-1.));
#859=DIRECTION('',(0.,0.,1.));
#860=DIRECTION('',(0.,-1.,0.));
#861=DIRECTION('',(0.,0.,-1.));
#862=DIRECTION('',(0.,0.707106781186548,-0.707106781186547));
#863=DIRECTION('',(0.,0.,1.));
#864=DIRECTION('',(0.,-1.,0.));
#865=DIRECTION('',(-1.,0.,0.));
#866=DIRECTION('',(0.,0.,1.));
#867=DIRECTION('',(1.,0.,0.));
#868=DIRECTION('',(0.,0.,1.));
#869=DIRECTION('',(-1.,0.,0.));
#870=DIRECTION('',(0.,1.,0.));
#871=DIRECTION('',(0.,0.,1.));
#872=DIRECTION('',(0.,0.,-1.));
#873=DIRECTION('',(-1.,0.,0.));
#874=DIRECTION('',(0.,0.,-1.));
#875=DIRECTION('',(-0.999999999999999,0.,0.));
#876=DIRECTION('',(0.,1.,0.));
#877=DIRECTION('',(0.,0.,-1.));
#878=DIRECTION('',(-1.,0.,0.));
#879=DIRECTION('',(0.,0.,-1.));
#880=DIRECTION('',(0.,-0.707106781186548,0.707106781186547));
#881=DIRECTION('',(0.,0.,1.));
#882=DIRECTION('',(0.,1.,0.));
#883=DIRECTION('',(1.,0.,0.));
#884=DIRECTION('',(0.,0.,-1.));
#885=DIRECTION('',(0.,-0.707106781186547,-0.707106781186548));
#886=DIRECTION('',(1.,0.,0.));
#887=DIRECTION('',(0.,1.,0.));
#888=DIRECTION('',(0.,0.,1.));
#889=DIRECTION('',(-1.,0.,0.));
#890=DIRECTION('',(0.,0.,1.));
#891=DIRECTION('',(0.,0.,-1.));
#892=DIRECTION('',(1.,0.,0.));
#893=DIRECTION('',(0.,0.,1.));
#894=DIRECTION('',(0.,1.,0.));
#895=DIRECTION('',(0.,0.,1.));
#896=DIRECTION('',(0.,0.,1.));
#897=DIRECTION('',(-1.,0.,0.));
#898=DIRECTION('',(0.,-1.,0.));
#899=DIRECTION('',(0.,0.,1.));
#900=DIRECTION('',(-1.,0.,0.));
#901=DIRECTION('',(0.,0.,-1.));
#902=DIRECTION('',(-1.,0.,0.));
#903=DIRECTION('',(0.,0.,-1.));
#904=DIRECTION('',(1.,0.,0.));
#905=DIRECTION('',(0.,0.,-1.));
#906=DIRECTION('',(0.,0.,1.));
#907=DIRECTION('',(1.,0.,0.));
#908=DIRECTION('',(0.,0.,1.));
#909=DIRECTION('',(1.,0.,0.));
#910=DIRECTION('',(-1.,0.,0.));
#911=DIRECTION('',(0.,-1.,0.));
#912=DIRECTION('',(0.,0.,-1.));
#913=DIRECTION('',(1.,0.,0.));
#914=DIRECTION('',(0.,1.,0.));
#915=DIRECTION('',(0.,0.,1.));
#916=DIRECTION('',(0.,0.,-1.));
#917=DIRECTION('',(-1.,0.,0.));
#918=DIRECTION('',(0.,0.,-1.));
#919=DIRECTION('',(-1.,0.,0.));
#920=DIRECTION('',(0.,0.,1.));
#921=DIRECTION('',(0.,-1.,0.));
#922=DIRECTION('',(0.,0.,-1.));
#923=DIRECTION('',(0.,0.,-1.));
#924=DIRECTION('',(0.,1.,0.));
#925=DIRECTION('',(0.,0.,1.));
#926=DIRECTION('',(-1.,0.,0.));
#927=DIRECTION('',(0.,0.,1.));
#928=DIRECTION('',(1.,0.,0.));
#929=DIRECTION('',(0.,0.,1.));
#930=DIRECTION('',(0.,0.,-1.));
#931=DIRECTION('',(0.,1.,0.));
#932=DIRECTION('',(0.,0.,1.));
#933=DIRECTION('',(1.,0.,0.));
#934=DIRECTION('',(0.,0.,-1.));
#935=DIRECTION('',(-1.,0.,0.));
#936=DIRECTION('',(0.,-1.,0.));
#937=DIRECTION('',(0.,0.,-1.));
#938=DIRECTION('',(-1.,0.,0.));
#939=DIRECTION('',(-1.,0.,0.));
#940=DIRECTION('',(0.,0.,-1.));
#941=DIRECTION('',(-1.,0.,0.));
#942=DIRECTION('',(0.,1.,0.));
#943=DIRECTION('',(0.,0.,-1.));
#944=DIRECTION('',(-1.,0.,0.));
#945=DIRECTION('',(0.,0.,1.));
#946=DIRECTION('',(-0.999999999999999,0.,0.));
#947=DIRECTION('',(0.,-1.,0.));
#948=DIRECTION('',(0.,0.,1.));
#949=DIRECTION('',(-0.999999999999999,0.,0.));
#950=DIRECTION('',(0.,0.,1.));
#951=DIRECTION('',(-1.,0.,0.));
#952=DIRECTION('',(0.,0.,1.));
#953=DIRECTION('',(-1.,0.,0.));
#954=DIRECTION('',(0.,0.,-1.));
#955=DIRECTION('',(-1.,0.,0.));
#956=DIRECTION('',(0.,0.,1.));
#957=DIRECTION('',(0.,0.,-1.));
#958=DIRECTION('',(1.,0.,0.));
#959=DIRECTION('',(0.,0.,-1.));
#960=DIRECTION('',(0.,0.,1.));
#961=DIRECTION('',(0.999999999999999,0.,0.));
#962=DIRECTION('',(0.,0.,1.));
#963=DIRECTION('',(0.999999999999999,0.,0.));
#964=DIRECTION('',(0.,0.,1.));
#965=DIRECTION('',(1.,0.,0.));
#966=DIRECTION('',(0.,0.,1.));
#967=DIRECTION('',(1.,0.,0.));
#968=DIRECTION('',(0.,0.,-1.));
#969=DIRECTION('',(-1.,0.,0.));
#970=DIRECTION('',(0.,0.,1.));
#971=DIRECTION('',(0.,-1.,0.));
#972=DIRECTION('',(0.,0.,-1.));
#973=DIRECTION('',(0.,1.,0.));
#974=DIRECTION('',(0.,0.,1.));
#975=DIRECTION('',(0.,0.,-1.));
#976=DIRECTION('',(-1.,0.,0.));
#977=DIRECTION('',(0.,0.,1.));
#978=DIRECTION('',(1.,0.,0.));
#979=DIRECTION('',(0.,0.,1.));
#980=DIRECTION('',(0.,0.,-1.));
#981=DIRECTION('',(0.,1.,0.));
#982=DIRECTION('',(0.,0.,1.));
#983=DIRECTION('',(0.,-1.,0.));
#984=DIRECTION('',(0.,0.,1.));
#985=DIRECTION('',(0.,0.,-1.));
#986=DIRECTION('',(1.,0.,0.));
#987=DIRECTION('',(0.,0.,-1.));
#988=DIRECTION('',(0.,0.,-1.));
#989=DIRECTION('',(-0.999999999999999,0.,0.));
#990=DIRECTION('',(0.,0.,1.));
#991=DIRECTION('',(-1.,0.,0.));
#992=DIRECTION('',(0.,0.,1.));
#993=DIRECTION('',(-1.,0.,0.));
#994=DIRECTION('',(0.,0.,1.));
#995=DIRECTION('',(-1.,0.,0.));
#996=DIRECTION('',(0.,0.,1.));
#997=DIRECTION('',(-1.,0.,0.));
#998=DIRECTION('',(0.,0.,-1.));
#999=DIRECTION('',(-1.,0.,0.));
#1000=DIRECTION('',(0.,0.,1.));
#1001=DIRECTION('',(1.,0.,0.));
#1002=DIRECTION('',(0.,0.,1.));
#1003=DIRECTION('',(1.,0.,0.));
#1004=DIRECTION('',(0.,0.,1.));
#1005=DIRECTION('',(1.,0.,0.));
#1006=DIRECTION('',(0.,0.,1.));
#1007=DIRECTION('',(1.,0.,0.));
#1008=DIRECTION('',(0.,0.,-1.));
#1009=DIRECTION('',(0.999999999999999,0.,0.));
#1010=DIRECTION('',(0.,0.,-1.));
#1011=DIRECTION('',(0.999999999999999,0.,0.));
#1012=DIRECTION('',(0.,0.,-1.));
#1013=DIRECTION('',(0.999999999999999,0.,0.));
#1014=DIRECTION('',(0.,0.,-1.));
#1015=DIRECTION('',(-1.,0.,0.));
#1016=DIRECTION('',(0.,0.,-1.));
#1017=DIRECTION('',(1.,0.,0.));
#1018=CARTESIAN_POINT('',(0.,0.,0.));
#1019=CARTESIAN_POINT('',(224.1,61.5,91.5));
#1020=CARTESIAN_POINT('',(229.7,61.5,91.5));
#1021=CARTESIAN_POINT('',(142.1,134.9,91.5));
#1022=CARTESIAN_POINT('',(65.6,134.9,91.5));
#1023=CARTESIAN_POINT('',(128.7,134.9,91.5));
#1024=CARTESIAN_POINT('',(65.6,146.3,91.5));
#1025=CARTESIAN_POINT('',(54.2,146.3,91.5));
#1026=CARTESIAN_POINT('',(54.2,232.25,91.5));
#1027=CARTESIAN_POINT('',(54.2,216.6,91.5));
#1028=CARTESIAN_POINT('',(65.6,216.6,91.5));
#1029=CARTESIAN_POINT('',(65.6,228.,91.5));
#1030=CARTESIAN_POINT('',(142.1,228.,91.5));
#1031=CARTESIAN_POINT('',(128.7,228.,91.5));
#1032=CARTESIAN_POINT('',(128.7,216.6,91.5));
#1033=CARTESIAN_POINT('',(140.1,216.6,91.5));
#1034=CARTESIAN_POINT('',(140.1,232.25,91.5));
#1035=CARTESIAN_POINT('',(140.1,146.3,91.5));
#1036=CARTESIAN_POINT('',(128.7,146.3,91.5));
#1037=CARTESIAN_POINT('',(142.1,301.2,91.5));
#1038=CARTESIAN_POINT('',(0.,301.2,91.5));
#1039=CARTESIAN_POINT('',(284.2,301.2,91.5));
#1040=CARTESIAN_POINT('',(0.,232.25,91.5));
#1041=CARTESIAN_POINT('',(0.,0.,91.5));
#1042=CARTESIAN_POINT('',(142.1,0.,91.5));
#1043=CARTESIAN_POINT('',(33.7,0.,91.5));
#1044=CARTESIAN_POINT('',(33.7,232.25,91.5));
#1045=CARTESIAN_POINT('',(33.7,64.9,91.5));
#1046=CARTESIAN_POINT('',(42.2,64.9,91.5));
#1047=CARTESIAN_POINT('',(42.2,73.4,91.5));
#1048=CARTESIAN_POINT('',(142.1,73.4,91.5));
#1049=CARTESIAN_POINT('',(138.1,73.4,91.5));
#1050=CARTESIAN_POINT('',(138.1,64.9,91.5));
#1051=CARTESIAN_POINT('',(146.6,64.9,91.5));
#1052=CARTESIAN_POINT('',(146.6,232.25,91.5));
#1053=CARTESIAN_POINT('',(146.6,0.,91.5));
#1054=CARTESIAN_POINT('',(142.1,0.,91.5));
#1055=CARTESIAN_POINT('',(284.2,0.,91.5));
#1056=CARTESIAN_POINT('',(284.2,232.25,91.5));
#1057=CARTESIAN_POINT('',(142.1,232.25,91.5));
#1058=CARTESIAN_POINT('',(161.7,375.5,91.5));
#1059=CARTESIAN_POINT('',(175.7,375.5,91.5));
#1060=CARTESIAN_POINT('',(142.1,328.1,91.5));
#1061=CARTESIAN_POINT('',(284.2,328.1,91.5));
#1062=CARTESIAN_POINT('',(0.,328.1,91.5));
#1063=CARTESIAN_POINT('',(284.2,232.25,91.5));
#1064=CARTESIAN_POINT('',(284.2,458.6,91.5));
#1065=CARTESIAN_POINT('',(142.1,458.6,91.5));
#1066=CARTESIAN_POINT('',(0.,458.6,91.5));
#1067=CARTESIAN_POINT('',(0.,232.25,91.5));
#1068=CARTESIAN_POINT('',(142.1,232.25,91.5));
#1069=CARTESIAN_POINT('',(33.7,0.,53.6));
#1070=CARTESIAN_POINT('',(33.7,0.,53.6));
#1071=CARTESIAN_POINT('',(0.,0.,0.));
#1072=CARTESIAN_POINT('',(0.,0.,0.));
#1073=CARTESIAN_POINT('',(142.1,0.,0.));
#1074=CARTESIAN_POINT('',(284.2,0.,0.));
#1075=CARTESIAN_POINT('',(284.2,0.,0.));
#1076=CARTESIAN_POINT('',(146.6,0.,53.6));
#1077=CARTESIAN_POINT('',(146.6,0.,53.6));
#1078=CARTESIAN_POINT('',(90.15,0.,53.6));
#1079=CARTESIAN_POINT('',(142.1,0.,0.));
#1080=CARTESIAN_POINT('',(0.,301.2,0.));
#1081=CARTESIAN_POINT('',(0.,301.2,80.6));
#1082=CARTESIAN_POINT('',(0.,232.25,80.6));
#1083=CARTESIAN_POINT('',(0.,328.1,80.6));
#1084=CARTESIAN_POINT('',(0.,328.1,0.));
#1085=CARTESIAN_POINT('',(0.,391.175,158.925));
#1086=CARTESIAN_POINT('',(0.,464.5,85.6));
#1087=CARTESIAN_POINT('',(0.,464.5,0.));
#1088=CARTESIAN_POINT('',(0.,464.5,0.));
#1089=CARTESIAN_POINT('',(0.,232.25,0.));
#1090=CARTESIAN_POINT('',(0.,232.25,0.));
#1091=CARTESIAN_POINT('',(142.1,464.5,85.6));
#1092=CARTESIAN_POINT('',(284.2,464.5,85.6));
#1093=CARTESIAN_POINT('',(284.2,464.5,0.));
#1094=CARTESIAN_POINT('',(284.2,464.5,0.));
#1095=CARTESIAN_POINT('',(142.1,464.5,0.));
#1096=CARTESIAN_POINT('',(142.1,464.5,0.));
#1097=CARTESIAN_POINT('',(161.7,375.5,0.));
#1098=CARTESIAN_POINT('',(147.7,375.5,0.));
#1099=CARTESIAN_POINT('',(224.1,61.5,0.));
#1100=CARTESIAN_POINT('',(218.5,61.5,0.));
#1101=CARTESIAN_POINT('',(284.2,232.25,0.));
#1102=CARTESIAN_POINT('',(142.1,232.25,0.));
#1103=CARTESIAN_POINT('',(284.2,301.2,0.));
#1104=CARTESIAN_POINT('',(284.2,301.2,80.6));
#1105=CARTESIAN_POINT('',(284.2,391.175,158.925));
#1106=CARTESIAN_POINT('',(284.2,328.1,0.));
#1107=CARTESIAN_POINT('',(284.2,328.1,80.6));
#1108=CARTESIAN_POINT('',(284.2,232.25,80.6));
#1109=CARTESIAN_POINT('',(284.2,232.25,0.));
#1110=CARTESIAN_POINT('',(142.1,464.5,85.6));
#1111=CARTESIAN_POINT('',(33.7,36.7,53.6));
#1112=CARTESIAN_POINT('',(33.7,64.9,53.6));
#1113=CARTESIAN_POINT('',(33.7,64.9,91.5));
#1114=CARTESIAN_POINT('',(33.7,36.7,53.6));
#1115=CARTESIAN_POINT('',(42.2,73.4,53.6));
#1116=CARTESIAN_POINT('',(42.2,73.4,53.6));
#1117=CARTESIAN_POINT('',(90.15,73.4,53.6));
#1118=CARTESIAN_POINT('',(138.1,73.4,53.6));
#1119=CARTESIAN_POINT('',(138.1,73.4,91.5));
#1120=CARTESIAN_POINT('',(90.15,73.4,53.6));
#1121=CARTESIAN_POINT('',(42.2,64.9,53.6));
#1122=CARTESIAN_POINT('',(146.6,36.7,53.6));
#1123=CARTESIAN_POINT('',(146.6,64.9,53.6));
#1124=CARTESIAN_POINT('',(138.1,64.9,53.6));
#1125=CARTESIAN_POINT('',(90.15,36.7,53.6));
#1126=CARTESIAN_POINT('',(146.6,64.9,53.6));
#1127=CARTESIAN_POINT('',(146.6,36.7,53.6));
#1128=CARTESIAN_POINT('',(42.2,64.9,53.6));
#1129=CARTESIAN_POINT('',(138.1,64.9,53.6));
#1130=CARTESIAN_POINT('',(142.1,301.2,80.6));
#1131=CARTESIAN_POINT('',(142.1,301.2,80.6));
#1132=CARTESIAN_POINT('',(142.1,328.1,80.6));
#1133=CARTESIAN_POINT('',(142.1,328.1,80.6));
#1134=CARTESIAN_POINT('',(142.1,314.65,80.6));
#1135=CARTESIAN_POINT('',(128.7,134.9,78.5));
#1136=CARTESIAN_POINT('',(128.7,134.9,78.5));
#1137=CARTESIAN_POINT('',(97.15,134.9,78.5));
#1138=CARTESIAN_POINT('',(65.6,134.9,78.5));
#1139=CARTESIAN_POINT('',(65.6,134.9,91.5));
#1140=CARTESIAN_POINT('',(97.15,134.9,78.5));
#1141=CARTESIAN_POINT('',(54.2,146.3,78.5));
#1142=CARTESIAN_POINT('',(54.2,146.3,78.5));
#1143=CARTESIAN_POINT('',(54.2,181.45,78.5));
#1144=CARTESIAN_POINT('',(54.2,216.6,78.5));
#1145=CARTESIAN_POINT('',(54.2,216.6,91.5));
#1146=CARTESIAN_POINT('',(54.2,181.45,78.5));
#1147=CARTESIAN_POINT('',(97.15,228.,78.5));
#1148=CARTESIAN_POINT('',(65.6,228.,78.5));
#1149=CARTESIAN_POINT('',(128.7,228.,78.5));
#1150=CARTESIAN_POINT('',(128.7,228.,91.5));
#1151=CARTESIAN_POINT('',(65.6,228.,78.5));
#1152=CARTESIAN_POINT('',(97.15,228.,78.5));
#1153=CARTESIAN_POINT('',(97.15,192.6,78.5));
#1154=CARTESIAN_POINT('',(87.5,192.6,78.5));
#1155=CARTESIAN_POINT('',(106.8,192.6,78.5));
#1156=CARTESIAN_POINT('',(106.8,183.7,78.5));
#1157=CARTESIAN_POINT('',(115.7,183.7,78.5));
#1158=CARTESIAN_POINT('',(115.7,181.45,78.5));
#1159=CARTESIAN_POINT('',(115.7,167.4,78.5));
#1160=CARTESIAN_POINT('',(106.8,167.4,78.5));
#1161=CARTESIAN_POINT('',(106.8,158.5,78.5));
#1162=CARTESIAN_POINT('',(97.15,158.5,78.5));
#1163=CARTESIAN_POINT('',(87.5,158.5,78.5));
#1164=CARTESIAN_POINT('',(87.5,167.4,78.5));
#1165=CARTESIAN_POINT('',(78.6,167.4,78.5));
#1166=CARTESIAN_POINT('',(78.6,181.45,78.5));
#1167=CARTESIAN_POINT('',(78.6,183.7,78.5));
#1168=CARTESIAN_POINT('',(87.5,183.7,78.5));
#1169=CARTESIAN_POINT('',(128.7,146.3,78.5));
#1170=CARTESIAN_POINT('',(140.1,146.3,78.5));
#1171=CARTESIAN_POINT('',(140.1,181.45,78.5));
#1172=CARTESIAN_POINT('',(140.1,216.6,78.5));
#1173=CARTESIAN_POINT('',(128.7,216.6,78.5));
#1174=CARTESIAN_POINT('',(65.6,216.6,78.5));
#1175=CARTESIAN_POINT('',(65.6,146.3,78.5));
#1176=CARTESIAN_POINT('',(97.15,181.45,78.5));
#1177=CARTESIAN_POINT('',(140.1,146.3,91.5));
#1178=CARTESIAN_POINT('',(140.1,216.6,78.5));
#1179=CARTESIAN_POINT('',(140.1,181.45,78.5));
#1180=CARTESIAN_POINT('',(128.7,146.3,78.5));
#1181=CARTESIAN_POINT('',(128.7,216.6,78.5));
#1182=CARTESIAN_POINT('',(65.6,146.3,78.5));
#1183=CARTESIAN_POINT('',(65.6,216.6,78.5));
#1184=CARTESIAN_POINT('',(106.8,158.5,53.6));
#1185=CARTESIAN_POINT('',(106.8,158.5,53.6));
#1186=CARTESIAN_POINT('',(97.15,158.5,53.6));
#1187=CARTESIAN_POINT('',(87.5,158.5,53.6));
#1188=CARTESIAN_POINT('',(87.5,158.5,78.5));
#1189=CARTESIAN_POINT('',(97.15,158.5,53.6));
#1190=CARTESIAN_POINT('',(78.6,175.55,53.6));
#1191=CARTESIAN_POINT('',(78.6,167.4,53.6));
#1192=CARTESIAN_POINT('',(78.6,183.7,53.6));
#1193=CARTESIAN_POINT('',(78.6,183.7,78.5));
#1194=CARTESIAN_POINT('',(78.6,167.4,53.6));
#1195=CARTESIAN_POINT('',(78.6,175.55,53.6));
#1196=CARTESIAN_POINT('',(97.15,192.6,53.6));
#1197=CARTESIAN_POINT('',(87.5,192.6,53.6));
#1198=CARTESIAN_POINT('',(106.8,192.6,53.6));
#1199=CARTESIAN_POINT('',(106.8,192.6,78.5));
#1200=CARTESIAN_POINT('',(87.5,192.6,53.6));
#1201=CARTESIAN_POINT('',(97.15,192.6,53.6));
#1202=CARTESIAN_POINT('',(115.7,175.55,53.6));
#1203=CARTESIAN_POINT('',(115.7,183.7,53.6));
#1204=CARTESIAN_POINT('',(115.7,167.4,53.6));
#1205=CARTESIAN_POINT('',(115.7,167.4,78.5));
#1206=CARTESIAN_POINT('',(115.7,183.7,53.6));
#1207=CARTESIAN_POINT('',(115.7,175.55,53.6));
#1208=CARTESIAN_POINT('',(91.,183.9,53.6));
#1209=CARTESIAN_POINT('',(85.9,183.9,53.6));
#1210=CARTESIAN_POINT('',(106.8,167.4,53.6));
#1211=CARTESIAN_POINT('',(106.8,183.7,53.6));
#1212=CARTESIAN_POINT('',(87.5,183.7,53.6));
#1213=CARTESIAN_POINT('',(87.5,167.4,53.6));
#1214=CARTESIAN_POINT('',(97.15,175.55,53.6));
#1215=CARTESIAN_POINT('',(106.8,167.4,53.6));
#1216=CARTESIAN_POINT('',(106.8,183.7,53.6));
#1217=CARTESIAN_POINT('',(87.5,183.7,53.6));
#1218=CARTESIAN_POINT('',(87.5,167.4,53.6));
#1219=CARTESIAN_POINT('',(224.1,61.5,91.55));
#1220=CARTESIAN_POINT('',(91.,183.9,52.6));
#1221=CARTESIAN_POINT('',(96.1,183.9,52.6));
#1222=CARTESIAN_POINT('',(91.,183.9,91.55));
#1223=CARTESIAN_POINT('',(91.,183.9,52.6));
#1224=CARTESIAN_POINT('',(161.7,375.5,91.55));
#1225=MECHANICAL_DESIGN_GEOMETRIC_PRESENTATION_REPRESENTATION('',(#24),
#1226);
#1226=(
GEOMETRIC_REPRESENTATION_CONTEXT(3)
GLOBAL_UNCERTAINTY_ASSIGNED_CONTEXT((#1227))
GLOBAL_UNIT_ASSIGNED_CONTEXT((#1233,#1229,#1228))
REPRESENTATION_CONTEXT('featured_part_07295','TOP_LEVEL_ASSEMBLY_PART')
);
#1227=UNCERTAINTY_MEASURE_WITH_UNIT(LENGTH_MEASURE(2.E-5),#1233,
'DISTANCE_ACCURACY_VALUE','Maximum Tolerance applied to model');
#1228=(
NAMED_UNIT(*)
SI_UNIT($,.STERADIAN.)
SOLID_ANGLE_UNIT()
);
#1229=(
CONVERSION_BASED_UNIT('DEGREE',#1231)
NAMED_UNIT(#1230)
PLANE_ANGLE_UNIT()
);
#1230=DIMENSIONAL_EXPONENTS(0.,0.,0.,0.,0.,0.,0.);
#1231=PLANE_ANGLE_MEASURE_WITH_UNIT(PLANE_ANGLE_MEASURE(0.0174532925),#1232);
#1232=(
NAMED_UNIT(*)
PLANE_ANGLE_UNIT()
SI_UNIT($,.RADIAN.)
);
#1233=(
LENGTH_UNIT()
NAMED_UNIT(*)
SI_UNIT(.MILLI.,.METRE.)
);
ENDSEC;
END-ISO-10303-21;
