ISO-10303-21;
HEADER;
/* Generated by software containing ST-Developer
 * from STEP Tools, Inc. (www.steptools.com) 
 */
/* OPTION: using custom schema-name function */

FILE_DESCRIPTION(
/* description */ (''),
/* implementation_level */ '2;1');

FILE_NAME(
/* name */ 'featured_part_00156.stp',
/* time_stamp */ '2026-06-30T20:07:48-04:00',
/* author */ (''),
/* organization */ (''),
/* preprocessor_version */ 'ST-DEVELOPER v20.1',
/* originating_system */ 'SIEMENS PLM Software NX2512.6002',
/* authorisation */ '');

FILE_SCHEMA (('AUTOMOTIVE_DESIGN { 1 0 10303 214 3 1 1 1 }'));
ENDSEC;

DATA;
#10=SHAPE_REPRESENTATION_RELATIONSHIP('None',
'relationship between featured_part_00156-None and featured_part_00156
-None',#22,#11);
#11=ADVANCED_BREP_SHAPE_REPRESENTATION('featured_part_00156-None',(#32),
#1268);
#12=SHAPE_DEFINITION_REPRESENTATION(#13,#22);
#13=PRODUCT_DEFINITION_SHAPE('','',#14);
#14=PRODUCT_DEFINITION(' ','',#16,#15);
#15=PRODUCT_DEFINITION_CONTEXT('part definition',#21,'design');
#16=PRODUCT_DEFINITION_FORMATION_WITH_SPECIFIED_SOURCE(' ',' ',#18,
 .NOT_KNOWN.);
#17=PRODUCT_RELATED_PRODUCT_CATEGORY('part','',(#18));
#18=PRODUCT('featured_part_00156','featured_part_00156',' ',(#19));
#19=PRODUCT_CONTEXT(' ',#21,'mechanical');
#20=APPLICATION_PROTOCOL_DEFINITION('international standard',
'automotive_design',2010,#21);
#21=APPLICATION_CONTEXT(
'core data for automotive mechanical design processes');
#22=SHAPE_REPRESENTATION('featured_part_00156-None',(#774),#1268);
#23=PRESENTATION_LAYER_ASSIGNMENT('1','Layer 1',(#32));
#24=STYLED_ITEM('',(#25),#32);
#25=PRESENTATION_STYLE_ASSIGNMENT((#26));
#26=SURFACE_STYLE_USAGE(.BOTH.,#27);
#27=SURFACE_SIDE_STYLE('',(#28));
#28=SURFACE_STYLE_FILL_AREA(#29);
#29=FILL_AREA_STYLE('',(#30));
#30=FILL_AREA_STYLE_COLOUR('',#31);
#31=COLOUR_RGB('medium steel',0.611764705882353,0.658823529411765,0.670588235294118);
#32=MANIFOLD_SOLID_BREP('',#33);
#33=CLOSED_SHELL('',(#102,#103,#104,#105,#106,#107,#108,#109,#110,#111,
#112,#113,#114,#115,#116,#117,#118,#119,#120,#121,#122,#123,#124,#125,#126,
#127,#128,#129,#130,#131,#132,#133,#134,#135,#136,#137,#138,#139,#140));
#34=CYLINDRICAL_SURFACE('',#802,13.8);
#35=CYLINDRICAL_SURFACE('',#821,13.1);
#36=CYLINDRICAL_SURFACE('',#822,13.1);
#37=CYLINDRICAL_SURFACE('',#823,13.1);
#38=CYLINDRICAL_SURFACE('',#824,13.1);
#39=CYLINDRICAL_SURFACE('',#834,13.5);
#40=CYLINDRICAL_SURFACE('',#835,13.5);
#41=CYLINDRICAL_SURFACE('',#836,13.5);
#42=CYLINDRICAL_SURFACE('',#837,13.5);
#43=CYLINDRICAL_SURFACE('',#838,8.45);
#44=CYLINDRICAL_SURFACE('',#839,8.45);
#45=CYLINDRICAL_SURFACE('',#840,8.45);
#46=CYLINDRICAL_SURFACE('',#841,8.45);
#47=CYLINDRICAL_SURFACE('',#842,8.45);
#48=FACE_BOUND('',#197,.T.);
#49=FACE_BOUND('',#198,.T.);
#50=FACE_BOUND('',#199,.T.);
#51=FACE_BOUND('',#200,.T.);
#52=FACE_BOUND('',#201,.T.);
#53=FACE_BOUND('',#202,.T.);
#54=FACE_BOUND('',#206,.T.);
#55=FACE_BOUND('',#207,.T.);
#56=FACE_BOUND('',#208,.T.);
#57=FACE_BOUND('',#209,.T.);
#58=FACE_BOUND('',#210,.T.);
#59=FACE_BOUND('',#211,.T.);
#60=FACE_BOUND('',#224,.T.);
#61=FACE_BOUND('',#225,.T.);
#62=FACE_BOUND('',#226,.T.);
#63=FACE_BOUND('',#241,.T.);
#64=FACE_BOUND('',#242,.T.);
#65=FACE_BOUND('',#243,.T.);
#66=FACE_BOUND('',#244,.T.);
#67=FACE_BOUND('',#245,.T.);
#68=FACE_BOUND('',#246,.T.);
#69=FACE_BOUND('',#247,.T.);
#70=FACE_BOUND('',#248,.T.);
#71=FACE_BOUND('',#249,.T.);
#72=FACE_BOUND('',#250,.T.);
#73=CIRCLE('',#776,8.45);
#74=CIRCLE('',#777,8.45);
#75=CIRCLE('',#778,13.8);
#76=CIRCLE('',#780,8.45);
#77=CIRCLE('',#781,8.45);
#78=CIRCLE('',#782,13.1);
#79=CIRCLE('',#783,13.1);
#80=CIRCLE('',#784,13.1);
#81=CIRCLE('',#785,13.1);
#82=CIRCLE('',#790,8.45);
#83=CIRCLE('',#791,8.45);
#84=CIRCLE('',#792,8.45);
#85=CIRCLE('',#793,8.45);
#86=CIRCLE('',#794,8.45);
#87=CIRCLE('',#799,13.8);
#88=CIRCLE('',#809,8.45);
#89=CIRCLE('',#810,13.5);
#90=CIRCLE('',#811,13.5);
#91=CIRCLE('',#812,13.5);
#92=CIRCLE('',#813,13.5);
#93=CIRCLE('',#814,8.45);
#94=CIRCLE('',#815,13.1);
#95=CIRCLE('',#816,13.1);
#96=CIRCLE('',#817,13.1);
#97=CIRCLE('',#818,13.1);
#98=CIRCLE('',#829,13.5);
#99=CIRCLE('',#830,13.5);
#100=CIRCLE('',#831,13.5);
#101=CIRCLE('',#832,13.5);
#102=ADVANCED_FACE('',(#166),#141,.F.);
#103=ADVANCED_FACE('',(#48,#49,#50),#142,.T.);
#104=ADVANCED_FACE('',(#51,#52,#53),#143,.T.);
#105=ADVANCED_FACE('',(#167),#144,.T.);
#106=ADVANCED_FACE('',(#168),#145,.T.);
#107=ADVANCED_FACE('',(#169),#146,.T.);
#108=ADVANCED_FACE('',(#54,#55,#56,#57,#58,#59),#147,.T.);
#109=ADVANCED_FACE('',(#170),#148,.T.);
#110=ADVANCED_FACE('',(#171),#149,.F.);
#111=ADVANCED_FACE('',(#172),#150,.F.);
#112=ADVANCED_FACE('',(#173),#151,.F.);
#113=ADVANCED_FACE('',(#174),#152,.F.);
#114=ADVANCED_FACE('',(#175),#34,.F.);
#115=ADVANCED_FACE('',(#176),#153,.F.);
#116=ADVANCED_FACE('',(#177),#154,.F.);
#117=ADVANCED_FACE('',(#178),#155,.F.);
#118=ADVANCED_FACE('',(#179),#156,.F.);
#119=ADVANCED_FACE('',(#180),#157,.F.);
#120=ADVANCED_FACE('',(#181),#158,.F.);
#121=ADVANCED_FACE('',(#60,#61,#62),#159,.F.);
#122=ADVANCED_FACE('',(#182),#160,.F.);
#123=ADVANCED_FACE('',(#183),#35,.F.);
#124=ADVANCED_FACE('',(#184),#36,.F.);
#125=ADVANCED_FACE('',(#185),#37,.F.);
#126=ADVANCED_FACE('',(#186),#38,.F.);
#127=ADVANCED_FACE('',(#187),#161,.F.);
#128=ADVANCED_FACE('',(#188),#162,.F.);
#129=ADVANCED_FACE('',(#189),#163,.F.);
#130=ADVANCED_FACE('',(#190),#164,.F.);
#131=ADVANCED_FACE('',(#191),#165,.F.);
#132=ADVANCED_FACE('',(#192),#39,.F.);
#133=ADVANCED_FACE('',(#193),#40,.F.);
#134=ADVANCED_FACE('',(#194),#41,.F.);
#135=ADVANCED_FACE('',(#195),#42,.F.);
#136=ADVANCED_FACE('',(#63,#64),#43,.F.);
#137=ADVANCED_FACE('',(#65,#66),#44,.F.);
#138=ADVANCED_FACE('',(#67,#68),#45,.F.);
#139=ADVANCED_FACE('',(#69,#70),#46,.F.);
#140=ADVANCED_FACE('',(#71,#72),#47,.F.);
#141=PLANE('',#775);
#142=PLANE('',#779);
#143=PLANE('',#786);
#144=PLANE('',#787);
#145=PLANE('',#788);
#146=PLANE('',#789);
#147=PLANE('',#795);
#148=PLANE('',#796);
#149=PLANE('',#797);
#150=PLANE('',#798);
#151=PLANE('',#800);
#152=PLANE('',#801);
#153=PLANE('',#803);
#154=PLANE('',#804);
#155=PLANE('',#805);
#156=PLANE('',#806);
#157=PLANE('',#807);
#158=PLANE('',#808);
#159=PLANE('',#819);
#160=PLANE('',#820);
#161=PLANE('',#825);
#162=PLANE('',#826);
#163=PLANE('',#827);
#164=PLANE('',#828);
#165=PLANE('',#833);
#166=FACE_OUTER_BOUND('',#196,.T.);
#167=FACE_OUTER_BOUND('',#203,.T.);
#168=FACE_OUTER_BOUND('',#204,.T.);
#169=FACE_OUTER_BOUND('',#205,.T.);
#170=FACE_OUTER_BOUND('',#212,.T.);
#171=FACE_OUTER_BOUND('',#213,.T.);
#172=FACE_OUTER_BOUND('',#214,.T.);
#173=FACE_OUTER_BOUND('',#215,.T.);
#174=FACE_OUTER_BOUND('',#216,.T.);
#175=FACE_OUTER_BOUND('',#217,.T.);
#176=FACE_OUTER_BOUND('',#218,.T.);
#177=FACE_OUTER_BOUND('',#219,.T.);
#178=FACE_OUTER_BOUND('',#220,.T.);
#179=FACE_OUTER_BOUND('',#221,.T.);
#180=FACE_OUTER_BOUND('',#222,.T.);
#181=FACE_OUTER_BOUND('',#223,.T.);
#182=FACE_OUTER_BOUND('',#227,.T.);
#183=FACE_OUTER_BOUND('',#228,.T.);
#184=FACE_OUTER_BOUND('',#229,.T.);
#185=FACE_OUTER_BOUND('',#230,.T.);
#186=FACE_OUTER_BOUND('',#231,.T.);
#187=FACE_OUTER_BOUND('',#232,.T.);
#188=FACE_OUTER_BOUND('',#233,.T.);
#189=FACE_OUTER_BOUND('',#234,.T.);
#190=FACE_OUTER_BOUND('',#235,.T.);
#191=FACE_OUTER_BOUND('',#236,.T.);
#192=FACE_OUTER_BOUND('',#237,.T.);
#193=FACE_OUTER_BOUND('',#238,.T.);
#194=FACE_OUTER_BOUND('',#239,.T.);
#195=FACE_OUTER_BOUND('',#240,.T.);
#196=EDGE_LOOP('',(#251,#252,#253,#254));
#197=EDGE_LOOP('',(#255));
#198=EDGE_LOOP('',(#256));
#199=EDGE_LOOP('',(#257,#258,#259,#260,#261,#262,#263));
#200=EDGE_LOOP('',(#264));
#201=EDGE_LOOP('',(#265,#266,#267,#268,#269,#270,#271,#272,#273,#274));
#202=EDGE_LOOP('',(#275,#276,#277,#278));
#203=EDGE_LOOP('',(#279,#280,#281,#282,#283,#284));
#204=EDGE_LOOP('',(#285,#286,#287,#288,#289,#290,#291,#292,#293,#294,#295));
#205=EDGE_LOOP('',(#296,#297,#298,#299));
#206=EDGE_LOOP('',(#300));
#207=EDGE_LOOP('',(#301));
#208=EDGE_LOOP('',(#302));
#209=EDGE_LOOP('',(#303));
#210=EDGE_LOOP('',(#304));
#211=EDGE_LOOP('',(#305,#306,#307,#308));
#212=EDGE_LOOP('',(#309,#310,#311,#312,#313,#314,#315,#316,#317));
#213=EDGE_LOOP('',(#318,#319,#320,#321));
#214=EDGE_LOOP('',(#322,#323,#324,#325));
#215=EDGE_LOOP('',(#326,#327,#328,#329,#330));
#216=EDGE_LOOP('',(#331,#332,#333,#334));
#217=EDGE_LOOP('',(#335,#336,#337,#338));
#218=EDGE_LOOP('',(#339,#340,#341,#342));
#219=EDGE_LOOP('',(#343,#344,#345,#346));
#220=EDGE_LOOP('',(#347,#348,#349,#350));
#221=EDGE_LOOP('',(#351,#352,#353,#354));
#222=EDGE_LOOP('',(#355,#356,#357,#358));
#223=EDGE_LOOP('',(#359,#360,#361,#362));
#224=EDGE_LOOP('',(#363));
#225=EDGE_LOOP('',(#364,#365,#366,#367,#368,#369,#370,#371));
#226=EDGE_LOOP('',(#372,#373,#374,#375,#376,#377,#378,#379,#380,#381));
#227=EDGE_LOOP('',(#382,#383,#384,#385));
#228=EDGE_LOOP('',(#386,#387,#388,#389));
#229=EDGE_LOOP('',(#390,#391,#392,#393));
#230=EDGE_LOOP('',(#394,#395,#396,#397));
#231=EDGE_LOOP('',(#398,#399,#400,#401));
#232=EDGE_LOOP('',(#402,#403,#404,#405));
#233=EDGE_LOOP('',(#406,#407,#408,#409));
#234=EDGE_LOOP('',(#410,#411,#412,#413));
#235=EDGE_LOOP('',(#414,#415,#416,#417));
#236=EDGE_LOOP('',(#418,#419,#420,#421,#422,#423,#424,#425));
#237=EDGE_LOOP('',(#426,#427,#428,#429));
#238=EDGE_LOOP('',(#430,#431,#432,#433));
#239=EDGE_LOOP('',(#434,#435,#436,#437));
#240=EDGE_LOOP('',(#438,#439,#440,#441));
#241=EDGE_LOOP('',(#442));
#242=EDGE_LOOP('',(#443));
#243=EDGE_LOOP('',(#444));
#244=EDGE_LOOP('',(#445));
#245=EDGE_LOOP('',(#446));
#246=EDGE_LOOP('',(#447,#448,#449,#450));
#247=EDGE_LOOP('',(#451));
#248=EDGE_LOOP('',(#452));
#249=EDGE_LOOP('',(#453));
#250=EDGE_LOOP('',(#454));
#251=ORIENTED_EDGE('',*,*,#526,.T.);
#252=ORIENTED_EDGE('',*,*,#527,.T.);
#253=ORIENTED_EDGE('',*,*,#528,.T.);
#254=ORIENTED_EDGE('',*,*,#529,.T.);
#255=ORIENTED_EDGE('',*,*,#530,.F.);
#256=ORIENTED_EDGE('',*,*,#531,.F.);
#257=ORIENTED_EDGE('',*,*,#532,.F.);
#258=ORIENTED_EDGE('',*,*,#533,.F.);
#259=ORIENTED_EDGE('',*,*,#534,.F.);
#260=ORIENTED_EDGE('',*,*,#535,.T.);
#261=ORIENTED_EDGE('',*,*,#536,.F.);
#262=ORIENTED_EDGE('',*,*,#537,.F.);
#263=ORIENTED_EDGE('',*,*,#538,.F.);
#264=ORIENTED_EDGE('',*,*,#539,.F.);
#265=ORIENTED_EDGE('',*,*,#540,.F.);
#266=ORIENTED_EDGE('',*,*,#526,.F.);
#267=ORIENTED_EDGE('',*,*,#541,.T.);
#268=ORIENTED_EDGE('',*,*,#542,.F.);
#269=ORIENTED_EDGE('',*,*,#543,.T.);
#270=ORIENTED_EDGE('',*,*,#544,.F.);
#271=ORIENTED_EDGE('',*,*,#545,.T.);
#272=ORIENTED_EDGE('',*,*,#546,.F.);
#273=ORIENTED_EDGE('',*,*,#547,.T.);
#274=ORIENTED_EDGE('',*,*,#548,.F.);
#275=ORIENTED_EDGE('',*,*,#549,.F.);
#276=ORIENTED_EDGE('',*,*,#550,.F.);
#277=ORIENTED_EDGE('',*,*,#551,.T.);
#278=ORIENTED_EDGE('',*,*,#552,.F.);
#279=ORIENTED_EDGE('',*,*,#553,.F.);
#280=ORIENTED_EDGE('',*,*,#554,.F.);
#281=ORIENTED_EDGE('',*,*,#555,.T.);
#282=ORIENTED_EDGE('',*,*,#556,.T.);
#283=ORIENTED_EDGE('',*,*,#537,.T.);
#284=ORIENTED_EDGE('',*,*,#557,.F.);
#285=ORIENTED_EDGE('',*,*,#558,.F.);
#286=ORIENTED_EDGE('',*,*,#559,.F.);
#287=ORIENTED_EDGE('',*,*,#560,.F.);
#288=ORIENTED_EDGE('',*,*,#552,.T.);
#289=ORIENTED_EDGE('',*,*,#561,.T.);
#290=ORIENTED_EDGE('',*,*,#562,.F.);
#291=ORIENTED_EDGE('',*,*,#563,.T.);
#292=ORIENTED_EDGE('',*,*,#554,.T.);
#293=ORIENTED_EDGE('',*,*,#564,.F.);
#294=ORIENTED_EDGE('',*,*,#565,.T.);
#295=ORIENTED_EDGE('',*,*,#533,.T.);
#296=ORIENTED_EDGE('',*,*,#562,.T.);
#297=ORIENTED_EDGE('',*,*,#566,.T.);
#298=ORIENTED_EDGE('',*,*,#567,.F.);
#299=ORIENTED_EDGE('',*,*,#568,.T.);
#300=ORIENTED_EDGE('',*,*,#569,.F.);
#301=ORIENTED_EDGE('',*,*,#570,.F.);
#302=ORIENTED_EDGE('',*,*,#571,.F.);
#303=ORIENTED_EDGE('',*,*,#572,.F.);
#304=ORIENTED_EDGE('',*,*,#573,.F.);
#305=ORIENTED_EDGE('',*,*,#574,.F.);
#306=ORIENTED_EDGE('',*,*,#555,.F.);
#307=ORIENTED_EDGE('',*,*,#563,.F.);
#308=ORIENTED_EDGE('',*,*,#568,.F.);
#309=ORIENTED_EDGE('',*,*,#575,.F.);
#310=ORIENTED_EDGE('',*,*,#538,.T.);
#311=ORIENTED_EDGE('',*,*,#556,.F.);
#312=ORIENTED_EDGE('',*,*,#574,.T.);
#313=ORIENTED_EDGE('',*,*,#567,.T.);
#314=ORIENTED_EDGE('',*,*,#576,.T.);
#315=ORIENTED_EDGE('',*,*,#550,.T.);
#316=ORIENTED_EDGE('',*,*,#577,.F.);
#317=ORIENTED_EDGE('',*,*,#578,.F.);
#318=ORIENTED_EDGE('',*,*,#561,.F.);
#319=ORIENTED_EDGE('',*,*,#551,.F.);
#320=ORIENTED_EDGE('',*,*,#576,.F.);
#321=ORIENTED_EDGE('',*,*,#566,.F.);
#322=ORIENTED_EDGE('',*,*,#579,.T.);
#323=ORIENTED_EDGE('',*,*,#580,.T.);
#324=ORIENTED_EDGE('',*,*,#534,.T.);
#325=ORIENTED_EDGE('',*,*,#565,.F.);
#326=ORIENTED_EDGE('',*,*,#581,.F.);
#327=ORIENTED_EDGE('',*,*,#582,.T.);
#328=ORIENTED_EDGE('',*,*,#579,.F.);
#329=ORIENTED_EDGE('',*,*,#564,.T.);
#330=ORIENTED_EDGE('',*,*,#553,.T.);
#331=ORIENTED_EDGE('',*,*,#536,.T.);
#332=ORIENTED_EDGE('',*,*,#583,.T.);
#333=ORIENTED_EDGE('',*,*,#581,.T.);
#334=ORIENTED_EDGE('',*,*,#557,.T.);
#335=ORIENTED_EDGE('',*,*,#535,.F.);
#336=ORIENTED_EDGE('',*,*,#580,.F.);
#337=ORIENTED_EDGE('',*,*,#582,.F.);
#338=ORIENTED_EDGE('',*,*,#583,.F.);
#339=ORIENTED_EDGE('',*,*,#558,.T.);
#340=ORIENTED_EDGE('',*,*,#532,.T.);
#341=ORIENTED_EDGE('',*,*,#575,.T.);
#342=ORIENTED_EDGE('',*,*,#584,.T.);
#343=ORIENTED_EDGE('',*,*,#560,.T.);
#344=ORIENTED_EDGE('',*,*,#585,.T.);
#345=ORIENTED_EDGE('',*,*,#577,.T.);
#346=ORIENTED_EDGE('',*,*,#549,.T.);
#347=ORIENTED_EDGE('',*,*,#559,.T.);
#348=ORIENTED_EDGE('',*,*,#584,.F.);
#349=ORIENTED_EDGE('',*,*,#578,.T.);
#350=ORIENTED_EDGE('',*,*,#585,.F.);
#351=ORIENTED_EDGE('',*,*,#586,.T.);
#352=ORIENTED_EDGE('',*,*,#587,.T.);
#353=ORIENTED_EDGE('',*,*,#548,.T.);
#354=ORIENTED_EDGE('',*,*,#588,.T.);
#355=ORIENTED_EDGE('',*,*,#542,.T.);
#356=ORIENTED_EDGE('',*,*,#589,.T.);
#357=ORIENTED_EDGE('',*,*,#590,.T.);
#358=ORIENTED_EDGE('',*,*,#591,.T.);
#359=ORIENTED_EDGE('',*,*,#592,.T.);
#360=ORIENTED_EDGE('',*,*,#593,.T.);
#361=ORIENTED_EDGE('',*,*,#544,.T.);
#362=ORIENTED_EDGE('',*,*,#594,.T.);
#363=ORIENTED_EDGE('',*,*,#595,.T.);
#364=ORIENTED_EDGE('',*,*,#596,.T.);
#365=ORIENTED_EDGE('',*,*,#597,.T.);
#366=ORIENTED_EDGE('',*,*,#598,.T.);
#367=ORIENTED_EDGE('',*,*,#599,.T.);
#368=ORIENTED_EDGE('',*,*,#600,.T.);
#369=ORIENTED_EDGE('',*,*,#601,.T.);
#370=ORIENTED_EDGE('',*,*,#602,.T.);
#371=ORIENTED_EDGE('',*,*,#603,.T.);
#372=ORIENTED_EDGE('',*,*,#528,.F.);
#373=ORIENTED_EDGE('',*,*,#604,.T.);
#374=ORIENTED_EDGE('',*,*,#586,.F.);
#375=ORIENTED_EDGE('',*,*,#605,.T.);
#376=ORIENTED_EDGE('',*,*,#606,.F.);
#377=ORIENTED_EDGE('',*,*,#607,.T.);
#378=ORIENTED_EDGE('',*,*,#592,.F.);
#379=ORIENTED_EDGE('',*,*,#608,.T.);
#380=ORIENTED_EDGE('',*,*,#590,.F.);
#381=ORIENTED_EDGE('',*,*,#609,.T.);
#382=ORIENTED_EDGE('',*,*,#606,.T.);
#383=ORIENTED_EDGE('',*,*,#610,.T.);
#384=ORIENTED_EDGE('',*,*,#546,.T.);
#385=ORIENTED_EDGE('',*,*,#611,.T.);
#386=ORIENTED_EDGE('',*,*,#541,.F.);
#387=ORIENTED_EDGE('',*,*,#529,.F.);
#388=ORIENTED_EDGE('',*,*,#609,.F.);
#389=ORIENTED_EDGE('',*,*,#589,.F.);
#390=ORIENTED_EDGE('',*,*,#547,.F.);
#391=ORIENTED_EDGE('',*,*,#610,.F.);
#392=ORIENTED_EDGE('',*,*,#605,.F.);
#393=ORIENTED_EDGE('',*,*,#588,.F.);
#394=ORIENTED_EDGE('',*,*,#545,.F.);
#395=ORIENTED_EDGE('',*,*,#593,.F.);
#396=ORIENTED_EDGE('',*,*,#607,.F.);
#397=ORIENTED_EDGE('',*,*,#611,.F.);
#398=ORIENTED_EDGE('',*,*,#543,.F.);
#399=ORIENTED_EDGE('',*,*,#591,.F.);
#400=ORIENTED_EDGE('',*,*,#608,.F.);
#401=ORIENTED_EDGE('',*,*,#594,.F.);
#402=ORIENTED_EDGE('',*,*,#600,.F.);
#403=ORIENTED_EDGE('',*,*,#612,.T.);
#404=ORIENTED_EDGE('',*,*,#613,.T.);
#405=ORIENTED_EDGE('',*,*,#614,.T.);
#406=ORIENTED_EDGE('',*,*,#602,.F.);
#407=ORIENTED_EDGE('',*,*,#615,.T.);
#408=ORIENTED_EDGE('',*,*,#616,.T.);
#409=ORIENTED_EDGE('',*,*,#617,.T.);
#410=ORIENTED_EDGE('',*,*,#596,.F.);
#411=ORIENTED_EDGE('',*,*,#618,.T.);
#412=ORIENTED_EDGE('',*,*,#619,.T.);
#413=ORIENTED_EDGE('',*,*,#620,.T.);
#414=ORIENTED_EDGE('',*,*,#621,.T.);
#415=ORIENTED_EDGE('',*,*,#622,.T.);
#416=ORIENTED_EDGE('',*,*,#598,.F.);
#417=ORIENTED_EDGE('',*,*,#623,.T.);
#418=ORIENTED_EDGE('',*,*,#613,.F.);
#419=ORIENTED_EDGE('',*,*,#624,.T.);
#420=ORIENTED_EDGE('',*,*,#621,.F.);
#421=ORIENTED_EDGE('',*,*,#625,.T.);
#422=ORIENTED_EDGE('',*,*,#619,.F.);
#423=ORIENTED_EDGE('',*,*,#626,.T.);
#424=ORIENTED_EDGE('',*,*,#616,.F.);
#425=ORIENTED_EDGE('',*,*,#627,.T.);
#426=ORIENTED_EDGE('',*,*,#599,.F.);
#427=ORIENTED_EDGE('',*,*,#622,.F.);
#428=ORIENTED_EDGE('',*,*,#624,.F.);
#429=ORIENTED_EDGE('',*,*,#612,.F.);
#430=ORIENTED_EDGE('',*,*,#601,.F.);
#431=ORIENTED_EDGE('',*,*,#614,.F.);
#432=ORIENTED_EDGE('',*,*,#627,.F.);
#433=ORIENTED_EDGE('',*,*,#615,.F.);
#434=ORIENTED_EDGE('',*,*,#603,.F.);
#435=ORIENTED_EDGE('',*,*,#617,.F.);
#436=ORIENTED_EDGE('',*,*,#626,.F.);
#437=ORIENTED_EDGE('',*,*,#618,.F.);
#438=ORIENTED_EDGE('',*,*,#597,.F.);
#439=ORIENTED_EDGE('',*,*,#620,.F.);
#440=ORIENTED_EDGE('',*,*,#625,.F.);
#441=ORIENTED_EDGE('',*,*,#623,.F.);
#442=ORIENTED_EDGE('',*,*,#531,.T.);
#443=ORIENTED_EDGE('',*,*,#573,.T.);
#444=ORIENTED_EDGE('',*,*,#530,.T.);
#445=ORIENTED_EDGE('',*,*,#572,.T.);
#446=ORIENTED_EDGE('',*,*,#571,.T.);
#447=ORIENTED_EDGE('',*,*,#540,.T.);
#448=ORIENTED_EDGE('',*,*,#587,.F.);
#449=ORIENTED_EDGE('',*,*,#604,.F.);
#450=ORIENTED_EDGE('',*,*,#527,.F.);
#451=ORIENTED_EDGE('',*,*,#539,.T.);
#452=ORIENTED_EDGE('',*,*,#570,.T.);
#453=ORIENTED_EDGE('',*,*,#569,.T.);
#454=ORIENTED_EDGE('',*,*,#595,.F.);
#455=VERTEX_POINT('',#1056);
#456=VERTEX_POINT('',#1057);
#457=VERTEX_POINT('',#1059);
#458=VERTEX_POINT('',#1061);
#459=VERTEX_POINT('',#1065);
#460=VERTEX_POINT('',#1067);
#461=VERTEX_POINT('',#1069);
#462=VERTEX_POINT('',#1070);
#463=VERTEX_POINT('',#1072);
#464=VERTEX_POINT('',#1074);
#465=VERTEX_POINT('',#1076);
#466=VERTEX_POINT('',#1078);
#467=VERTEX_POINT('',#1080);
#468=VERTEX_POINT('',#1084);
#469=VERTEX_POINT('',#1086);
#470=VERTEX_POINT('',#1088);
#471=VERTEX_POINT('',#1090);
#472=VERTEX_POINT('',#1092);
#473=VERTEX_POINT('',#1094);
#474=VERTEX_POINT('',#1096);
#475=VERTEX_POINT('',#1098);
#476=VERTEX_POINT('',#1100);
#477=VERTEX_POINT('',#1103);
#478=VERTEX_POINT('',#1104);
#479=VERTEX_POINT('',#1106);
#480=VERTEX_POINT('',#1108);
#481=VERTEX_POINT('',#1112);
#482=VERTEX_POINT('',#1113);
#483=VERTEX_POINT('',#1115);
#484=VERTEX_POINT('',#1117);
#485=VERTEX_POINT('',#1122);
#486=VERTEX_POINT('',#1124);
#487=VERTEX_POINT('',#1127);
#488=VERTEX_POINT('',#1129);
#489=VERTEX_POINT('',#1132);
#490=VERTEX_POINT('',#1136);
#491=VERTEX_POINT('',#1138);
#492=VERTEX_POINT('',#1142);
#493=VERTEX_POINT('',#1144);
#494=VERTEX_POINT('',#1146);
#495=VERTEX_POINT('',#1148);
#496=VERTEX_POINT('',#1150);
#497=VERTEX_POINT('',#1154);
#498=VERTEX_POINT('',#1157);
#499=VERTEX_POINT('',#1162);
#500=VERTEX_POINT('',#1166);
#501=VERTEX_POINT('',#1178);
#502=VERTEX_POINT('',#1179);
#503=VERTEX_POINT('',#1184);
#504=VERTEX_POINT('',#1186);
#505=VERTEX_POINT('',#1190);
#506=VERTEX_POINT('',#1191);
#507=VERTEX_POINT('',#1196);
#508=VERTEX_POINT('',#1198);
#509=VERTEX_POINT('',#1199);
#510=VERTEX_POINT('',#1201);
#511=VERTEX_POINT('',#1203);
#512=VERTEX_POINT('',#1205);
#513=VERTEX_POINT('',#1207);
#514=VERTEX_POINT('',#1209);
#515=VERTEX_POINT('',#1211);
#516=VERTEX_POINT('',#1215);
#517=VERTEX_POINT('',#1217);
#518=VERTEX_POINT('',#1230);
#519=VERTEX_POINT('',#1232);
#520=VERTEX_POINT('',#1236);
#521=VERTEX_POINT('',#1238);
#522=VERTEX_POINT('',#1242);
#523=VERTEX_POINT('',#1244);
#524=VERTEX_POINT('',#1248);
#525=VERTEX_POINT('',#1249);
#526=EDGE_CURVE('',#455,#456,#628,.T.);
#527=EDGE_CURVE('',#456,#457,#629,.T.);
#528=EDGE_CURVE('',#457,#458,#630,.T.);
#529=EDGE_CURVE('',#458,#455,#631,.T.);
#530=EDGE_CURVE('',#459,#459,#73,.T.);
#531=EDGE_CURVE('',#460,#460,#74,.T.);
#532=EDGE_CURVE('',#461,#462,#632,.T.);
#533=EDGE_CURVE('',#463,#461,#633,.T.);
#534=EDGE_CURVE('',#464,#463,#634,.T.);
#535=EDGE_CURVE('',#464,#465,#75,.T.);
#536=EDGE_CURVE('',#466,#465,#635,.T.);
#537=EDGE_CURVE('',#467,#466,#636,.T.);
#538=EDGE_CURVE('',#462,#467,#637,.T.);
#539=EDGE_CURVE('',#468,#468,#76,.T.);
#540=EDGE_CURVE('',#456,#469,#77,.T.);
#541=EDGE_CURVE('',#455,#470,#78,.T.);
#542=EDGE_CURVE('',#471,#470,#638,.T.);
#543=EDGE_CURVE('',#471,#472,#79,.T.);
#544=EDGE_CURVE('',#473,#472,#639,.T.);
#545=EDGE_CURVE('',#473,#474,#80,.T.);
#546=EDGE_CURVE('',#475,#474,#640,.T.);
#547=EDGE_CURVE('',#475,#476,#81,.T.);
#548=EDGE_CURVE('',#469,#476,#641,.T.);
#549=EDGE_CURVE('',#477,#478,#642,.T.);
#550=EDGE_CURVE('',#479,#477,#643,.T.);
#551=EDGE_CURVE('',#479,#480,#644,.T.);
#552=EDGE_CURVE('',#478,#480,#645,.T.);
#553=EDGE_CURVE('',#481,#482,#646,.T.);
#554=EDGE_CURVE('',#483,#481,#647,.T.);
#555=EDGE_CURVE('',#483,#484,#648,.T.);
#556=EDGE_CURVE('',#484,#467,#649,.T.);
#557=EDGE_CURVE('',#482,#466,#650,.T.);
#558=EDGE_CURVE('',#485,#461,#651,.T.);
#559=EDGE_CURVE('',#486,#485,#652,.T.);
#560=EDGE_CURVE('',#478,#486,#653,.T.);
#561=EDGE_CURVE('',#480,#487,#654,.T.);
#562=EDGE_CURVE('',#488,#487,#655,.T.);
#563=EDGE_CURVE('',#488,#483,#656,.T.);
#564=EDGE_CURVE('',#489,#481,#657,.T.);
#565=EDGE_CURVE('',#489,#463,#658,.T.);
#566=EDGE_CURVE('',#487,#490,#659,.T.);
#567=EDGE_CURVE('',#491,#490,#660,.T.);
#568=EDGE_CURVE('',#491,#488,#661,.T.);
#569=EDGE_CURVE('',#492,#492,#82,.T.);
#570=EDGE_CURVE('',#493,#493,#83,.T.);
#571=EDGE_CURVE('',#494,#494,#84,.T.);
#572=EDGE_CURVE('',#495,#495,#85,.T.);
#573=EDGE_CURVE('',#496,#496,#86,.T.);
#574=EDGE_CURVE('',#484,#491,#662,.T.);
#575=EDGE_CURVE('',#462,#497,#663,.T.);
#576=EDGE_CURVE('',#490,#479,#664,.T.);
#577=EDGE_CURVE('',#498,#477,#665,.T.);
#578=EDGE_CURVE('',#497,#498,#666,.T.);
#579=EDGE_CURVE('',#489,#499,#667,.T.);
#580=EDGE_CURVE('',#499,#464,#668,.T.);
#581=EDGE_CURVE('',#500,#482,#669,.T.);
#582=EDGE_CURVE('',#500,#499,#87,.T.);
#583=EDGE_CURVE('',#465,#500,#670,.T.);
#584=EDGE_CURVE('',#497,#485,#671,.T.);
#585=EDGE_CURVE('',#486,#498,#672,.T.);
#586=EDGE_CURVE('',#501,#502,#673,.T.);
#587=EDGE_CURVE('',#502,#469,#674,.T.);
#588=EDGE_CURVE('',#476,#501,#675,.T.);
#589=EDGE_CURVE('',#470,#503,#676,.T.);
#590=EDGE_CURVE('',#503,#504,#677,.T.);
#591=EDGE_CURVE('',#504,#471,#678,.T.);
#592=EDGE_CURVE('',#505,#506,#679,.T.);
#593=EDGE_CURVE('',#506,#473,#680,.T.);
#594=EDGE_CURVE('',#472,#505,#681,.T.);
#595=EDGE_CURVE('',#507,#507,#88,.T.);
#596=EDGE_CURVE('',#508,#509,#682,.T.);
#597=EDGE_CURVE('',#509,#510,#89,.T.);
#598=EDGE_CURVE('',#510,#511,#683,.T.);
#599=EDGE_CURVE('',#511,#512,#90,.T.);
#600=EDGE_CURVE('',#512,#513,#684,.T.);
#601=EDGE_CURVE('',#513,#514,#91,.T.);
#602=EDGE_CURVE('',#514,#515,#685,.T.);
#603=EDGE_CURVE('',#515,#508,#92,.T.);
#604=EDGE_CURVE('',#457,#502,#93,.T.);
#605=EDGE_CURVE('',#501,#516,#94,.T.);
#606=EDGE_CURVE('',#517,#516,#686,.T.);
#607=EDGE_CURVE('',#517,#506,#95,.T.);
#608=EDGE_CURVE('',#505,#504,#96,.T.);
#609=EDGE_CURVE('',#503,#458,#97,.T.);
#610=EDGE_CURVE('',#516,#475,#687,.T.);
#611=EDGE_CURVE('',#474,#517,#688,.T.);
#612=EDGE_CURVE('',#512,#518,#689,.T.);
#613=EDGE_CURVE('',#518,#519,#690,.T.);
#614=EDGE_CURVE('',#519,#513,#691,.T.);
#615=EDGE_CURVE('',#514,#520,#692,.T.);
#616=EDGE_CURVE('',#520,#521,#693,.T.);
#617=EDGE_CURVE('',#521,#515,#694,.T.);
#618=EDGE_CURVE('',#508,#522,#695,.T.);
#619=EDGE_CURVE('',#522,#523,#696,.T.);
#620=EDGE_CURVE('',#523,#509,#697,.T.);
#621=EDGE_CURVE('',#524,#525,#698,.T.);
#622=EDGE_CURVE('',#525,#511,#699,.T.);
#623=EDGE_CURVE('',#510,#524,#700,.T.);
#624=EDGE_CURVE('',#518,#525,#98,.T.);
#625=EDGE_CURVE('',#524,#523,#99,.T.);
#626=EDGE_CURVE('',#522,#521,#100,.T.);
#627=EDGE_CURVE('',#520,#519,#101,.T.);
#628=LINE('',#1055,#701);
#629=LINE('',#1058,#702);
#630=LINE('',#1060,#703);
#631=LINE('',#1062,#704);
#632=LINE('',#1068,#705);
#633=LINE('',#1071,#706);
#634=LINE('',#1073,#707);
#635=LINE('',#1077,#708);
#636=LINE('',#1079,#709);
#637=LINE('',#1081,#710);
#638=LINE('',#1089,#711);
#639=LINE('',#1093,#712);
#640=LINE('',#1097,#713);
#641=LINE('',#1101,#714);
#642=LINE('',#1102,#715);
#643=LINE('',#1105,#716);
#644=LINE('',#1107,#717);
#645=LINE('',#1109,#718);
#646=LINE('',#1111,#719);
#647=LINE('',#1114,#720);
#648=LINE('',#1116,#721);
#649=LINE('',#1118,#722);
#650=LINE('',#1119,#723);
#651=LINE('',#1121,#724);
#652=LINE('',#1123,#725);
#653=LINE('',#1125,#726);
#654=LINE('',#1126,#727);
#655=LINE('',#1128,#728);
#656=LINE('',#1130,#729);
#657=LINE('',#1131,#730);
#658=LINE('',#1133,#731);
#659=LINE('',#1135,#732);
#660=LINE('',#1137,#733);
#661=LINE('',#1139,#734);
#662=LINE('',#1151,#735);
#663=LINE('',#1153,#736);
#664=LINE('',#1155,#737);
#665=LINE('',#1156,#738);
#666=LINE('',#1158,#739);
#667=LINE('',#1161,#740);
#668=LINE('',#1163,#741);
#669=LINE('',#1165,#742);
#670=LINE('',#1169,#743);
#671=LINE('',#1172,#744);
#672=LINE('',#1174,#745);
#673=LINE('',#1177,#746);
#674=LINE('',#1180,#747);
#675=LINE('',#1181,#748);
#676=LINE('',#1183,#749);
#677=LINE('',#1185,#750);
#678=LINE('',#1187,#751);
#679=LINE('',#1189,#752);
#680=LINE('',#1192,#753);
#681=LINE('',#1193,#754);
#682=LINE('',#1197,#755);
#683=LINE('',#1202,#756);
#684=LINE('',#1206,#757);
#685=LINE('',#1210,#758);
#686=LINE('',#1216,#759);
#687=LINE('',#1222,#760);
#688=LINE('',#1223,#761);
#689=LINE('',#1229,#762);
#690=LINE('',#1231,#763);
#691=LINE('',#1233,#764);
#692=LINE('',#1235,#765);
#693=LINE('',#1237,#766);
#694=LINE('',#1239,#767);
#695=LINE('',#1241,#768);
#696=LINE('',#1243,#769);
#697=LINE('',#1245,#770);
#698=LINE('',#1247,#771);
#699=LINE('',#1250,#772);
#700=LINE('',#1251,#773);
#701=VECTOR('',#845,1.);
#702=VECTOR('',#846,1.);
#703=VECTOR('',#847,1.);
#704=VECTOR('',#848,1.);
#705=VECTOR('',#855,1.);
#706=VECTOR('',#856,1.);
#707=VECTOR('',#857,1.);
#708=VECTOR('',#860,1.);
#709=VECTOR('',#861,1.);
#710=VECTOR('',#862,1.);
#711=VECTOR('',#871,1.);
#712=VECTOR('',#874,1.);
#713=VECTOR('',#877,1.);
#714=VECTOR('',#880,1.);
#715=VECTOR('',#881,1.);
#716=VECTOR('',#882,1.);
#717=VECTOR('',#883,1.);
#718=VECTOR('',#884,1.);
#719=VECTOR('',#887,1.);
#720=VECTOR('',#888,1.);
#721=VECTOR('',#889,1.);
#722=VECTOR('',#890,1.);
#723=VECTOR('',#891,1.);
#724=VECTOR('',#894,1.);
#725=VECTOR('',#895,1.);
#726=VECTOR('',#896,1.);
#727=VECTOR('',#897,1.);
#728=VECTOR('',#898,1.);
#729=VECTOR('',#899,1.);
#730=VECTOR('',#900,1.);
#731=VECTOR('',#901,1.);
#732=VECTOR('',#904,1.);
#733=VECTOR('',#905,1.);
#734=VECTOR('',#906,1.);
#735=VECTOR('',#919,1.);
#736=VECTOR('',#922,1.);
#737=VECTOR('',#923,1.);
#738=VECTOR('',#924,1.);
#739=VECTOR('',#925,1.);
#740=VECTOR('',#930,1.);
#741=VECTOR('',#931,1.);
#742=VECTOR('',#934,1.);
#743=VECTOR('',#939,1.);
#744=VECTOR('',#944,1.);
#745=VECTOR('',#947,1.);
#746=VECTOR('',#952,1.);
#747=VECTOR('',#953,1.);
#748=VECTOR('',#954,1.);
#749=VECTOR('',#957,1.);
#750=VECTOR('',#958,1.);
#751=VECTOR('',#959,1.);
#752=VECTOR('',#962,1.);
#753=VECTOR('',#963,1.);
#754=VECTOR('',#964,1.);
#755=VECTOR('',#969,1.);
#756=VECTOR('',#972,1.);
#757=VECTOR('',#975,1.);
#758=VECTOR('',#978,1.);
#759=VECTOR('',#985,1.);
#760=VECTOR('',#994,1.);
#761=VECTOR('',#995,1.);
#762=VECTOR('',#1006,1.);
#763=VECTOR('',#1007,1.);
#764=VECTOR('',#1008,1.);
#765=VECTOR('',#1011,1.);
#766=VECTOR('',#1012,1.);
#767=VECTOR('',#1013,1.);
#768=VECTOR('',#1016,1.);
#769=VECTOR('',#1017,1.);
#770=VECTOR('',#1018,1.);
#771=VECTOR('',#1021,1.);
#772=VECTOR('',#1022,1.);
#773=VECTOR('',#1023,1.);
#774=AXIS2_PLACEMENT_3D('',#1054,#843,#844);
#775=AXIS2_PLACEMENT_3D('',#1063,#849,#850);
#776=AXIS2_PLACEMENT_3D('',#1064,#851,#852);
#777=AXIS2_PLACEMENT_3D('',#1066,#853,#854);
#778=AXIS2_PLACEMENT_3D('',#1075,#858,#859);
#779=AXIS2_PLACEMENT_3D('',#1082,#863,#864);
#780=AXIS2_PLACEMENT_3D('',#1083,#865,#866);
#781=AXIS2_PLACEMENT_3D('',#1085,#867,#868);
#782=AXIS2_PLACEMENT_3D('',#1087,#869,#870);
#783=AXIS2_PLACEMENT_3D('',#1091,#872,#873);
#784=AXIS2_PLACEMENT_3D('',#1095,#875,#876);
#785=AXIS2_PLACEMENT_3D('',#1099,#878,#879);
#786=AXIS2_PLACEMENT_3D('',#1110,#885,#886);
#787=AXIS2_PLACEMENT_3D('',#1120,#892,#893);
#788=AXIS2_PLACEMENT_3D('',#1134,#902,#903);
#789=AXIS2_PLACEMENT_3D('',#1140,#907,#908);
#790=AXIS2_PLACEMENT_3D('',#1141,#909,#910);
#791=AXIS2_PLACEMENT_3D('',#1143,#911,#912);
#792=AXIS2_PLACEMENT_3D('',#1145,#913,#914);
#793=AXIS2_PLACEMENT_3D('',#1147,#915,#916);
#794=AXIS2_PLACEMENT_3D('',#1149,#917,#918);
#795=AXIS2_PLACEMENT_3D('',#1152,#920,#921);
#796=AXIS2_PLACEMENT_3D('',#1159,#926,#927);
#797=AXIS2_PLACEMENT_3D('',#1160,#928,#929);
#798=AXIS2_PLACEMENT_3D('',#1164,#932,#933);
#799=AXIS2_PLACEMENT_3D('',#1167,#935,#936);
#800=AXIS2_PLACEMENT_3D('',#1168,#937,#938);
#801=AXIS2_PLACEMENT_3D('',#1170,#940,#941);
#802=AXIS2_PLACEMENT_3D('',#1171,#942,#943);
#803=AXIS2_PLACEMENT_3D('',#1173,#945,#946);
#804=AXIS2_PLACEMENT_3D('',#1175,#948,#949);
#805=AXIS2_PLACEMENT_3D('',#1176,#950,#951);
#806=AXIS2_PLACEMENT_3D('',#1182,#955,#956);
#807=AXIS2_PLACEMENT_3D('',#1188,#960,#961);
#808=AXIS2_PLACEMENT_3D('',#1194,#965,#966);
#809=AXIS2_PLACEMENT_3D('',#1195,#967,#968);
#810=AXIS2_PLACEMENT_3D('',#1200,#970,#971);
#811=AXIS2_PLACEMENT_3D('',#1204,#973,#974);
#812=AXIS2_PLACEMENT_3D('',#1208,#976,#977);
#813=AXIS2_PLACEMENT_3D('',#1212,#979,#980);
#814=AXIS2_PLACEMENT_3D('',#1213,#981,#982);
#815=AXIS2_PLACEMENT_3D('',#1214,#983,#984);
#816=AXIS2_PLACEMENT_3D('',#1218,#986,#987);
#817=AXIS2_PLACEMENT_3D('',#1219,#988,#989);
#818=AXIS2_PLACEMENT_3D('',#1220,#990,#991);
#819=AXIS2_PLACEMENT_3D('',#1221,#992,#993);
#820=AXIS2_PLACEMENT_3D('',#1224,#996,#997);
#821=AXIS2_PLACEMENT_3D('',#1225,#998,#999);
#822=AXIS2_PLACEMENT_3D('',#1226,#1000,#1001);
#823=AXIS2_PLACEMENT_3D('',#1227,#1002,#1003);
#824=AXIS2_PLACEMENT_3D('',#1228,#1004,#1005);
#825=AXIS2_PLACEMENT_3D('',#1234,#1009,#1010);
#826=AXIS2_PLACEMENT_3D('',#1240,#1014,#1015);
#827=AXIS2_PLACEMENT_3D('',#1246,#1019,#1020);
#828=AXIS2_PLACEMENT_3D('',#1252,#1024,#1025);
#829=AXIS2_PLACEMENT_3D('',#1253,#1026,#1027);
#830=AXIS2_PLACEMENT_3D('',#1254,#1028,#1029);
#831=AXIS2_PLACEMENT_3D('',#1255,#1030,#1031);
#832=AXIS2_PLACEMENT_3D('',#1256,#1032,#1033);
#833=AXIS2_PLACEMENT_3D('',#1257,#1034,#1035);
#834=AXIS2_PLACEMENT_3D('',#1258,#1036,#1037);
#835=AXIS2_PLACEMENT_3D('',#1259,#1038,#1039);
#836=AXIS2_PLACEMENT_3D('',#1260,#1040,#1041);
#837=AXIS2_PLACEMENT_3D('',#1261,#1042,#1043);
#838=AXIS2_PLACEMENT_3D('',#1262,#1044,#1045);
#839=AXIS2_PLACEMENT_3D('',#1263,#1046,#1047);
#840=AXIS2_PLACEMENT_3D('',#1264,#1048,#1049);
#841=AXIS2_PLACEMENT_3D('',#1265,#1050,#1051);
#842=AXIS2_PLACEMENT_3D('',#1266,#1052,#1053);
#843=DIRECTION('',(0.,0.,1.));
#844=DIRECTION('',(1.,0.,0.));
#845=DIRECTION('',(1.,0.,0.));
#846=DIRECTION('',(0.,0.,-1.));
#847=DIRECTION('',(-1.,0.,0.));
#848=DIRECTION('',(0.,0.,1.));
#849=DIRECTION('',(0.,-1.,0.));
#850=DIRECTION('',(0.,0.,-1.));
#851=DIRECTION('',(0.,0.,1.));
#852=DIRECTION('',(1.,0.,0.));
#853=DIRECTION('',(0.,0.,1.));
#854=DIRECTION('',(1.,0.,0.));
#855=DIRECTION('',(1.,0.,0.));
#856=DIRECTION('',(0.,1.,0.));
#857=DIRECTION('',(-1.,0.,0.));
#858=DIRECTION('',(0.,0.,-1.));
#859=DIRECTION('',(1.,0.,0.));
#860=DIRECTION('',(0.,1.,0.));
#861=DIRECTION('',(-1.,0.,0.));
#862=DIRECTION('',(0.,-1.,0.));
#863=DIRECTION('',(0.,0.,1.));
#864=DIRECTION('',(1.,0.,0.));
#865=DIRECTION('',(0.,0.,1.));
#866=DIRECTION('',(1.,0.,0.));
#867=DIRECTION('',(0.,0.,1.));
#868=DIRECTION('',(1.,0.,0.));
#869=DIRECTION('',(0.,0.,-1.));
#870=DIRECTION('',(1.,0.,0.));
#871=DIRECTION('',(0.,-1.,0.));
#872=DIRECTION('',(0.,0.,-1.));
#873=DIRECTION('',(1.,0.,0.));
#874=DIRECTION('',(-1.,0.,0.));
#875=DIRECTION('',(0.,0.,-1.));
#876=DIRECTION('',(1.,0.,0.));
#877=DIRECTION('',(0.,1.,0.));
#878=DIRECTION('',(0.,0.,-1.));
#879=DIRECTION('',(1.,0.,0.));
#880=DIRECTION('',(1.,0.,0.));
#881=DIRECTION('',(-1.,0.,0.));
#882=DIRECTION('',(0.,-1.,0.));
#883=DIRECTION('',(-1.,0.,0.));
#884=DIRECTION('',(0.,1.,0.));
#885=DIRECTION('',(0.,0.,1.));
#886=DIRECTION('',(1.,0.,0.));
#887=DIRECTION('',(1.,0.,0.));
#888=DIRECTION('',(0.,0.,1.));
#889=DIRECTION('',(1.,0.,0.));
#890=DIRECTION('',(0.,0.,1.));
#891=DIRECTION('',(0.,0.,1.));
#892=DIRECTION('',(0.,-1.,0.));
#893=DIRECTION('',(0.,0.,-1.));
#894=DIRECTION('',(0.,0.,1.));
#895=DIRECTION('',(0.,-1.,0.));
#896=DIRECTION('',(0.,0.,-1.));
#897=DIRECTION('',(0.,0.707106781186548,-0.707106781186547));
#898=DIRECTION('',(0.,0.,1.));
#899=DIRECTION('',(0.,-1.,0.));
#900=DIRECTION('',(0.,-1.,0.));
#901=DIRECTION('',(0.,0.,1.));
#902=DIRECTION('',(-1.,0.,0.));
#903=DIRECTION('',(0.,0.,1.));
#904=DIRECTION('',(1.,0.,0.));
#905=DIRECTION('',(0.,0.,1.));
#906=DIRECTION('',(-1.,0.,0.));
#907=DIRECTION('',(0.,1.,0.));
#908=DIRECTION('',(0.,0.,1.));
#909=DIRECTION('',(0.,0.,-1.));
#910=DIRECTION('',(-1.,0.,0.));
#911=DIRECTION('',(0.,0.,-1.));
#912=DIRECTION('',(-1.,0.,0.));
#913=DIRECTION('',(0.,0.,-1.));
#914=DIRECTION('',(-1.,0.,0.));
#915=DIRECTION('',(0.,0.,-1.));
#916=DIRECTION('',(-1.,0.,0.));
#917=DIRECTION('',(0.,0.,-1.));
#918=DIRECTION('',(-1.,0.,0.));
#919=DIRECTION('',(0.,1.,0.));
#920=DIRECTION('',(0.,0.,-1.));
#921=DIRECTION('',(-1.,0.,0.));
#922=DIRECTION('',(0.,0.,-1.));
#923=DIRECTION('',(0.,-0.707106781186548,0.707106781186547));
#924=DIRECTION('',(0.,0.,1.));
#925=DIRECTION('',(0.,1.,0.));
#926=DIRECTION('',(1.,0.,0.));
#927=DIRECTION('',(0.,0.,-1.));
#928=DIRECTION('',(0.,-0.707106781186547,-0.707106781186548));
#929=DIRECTION('',(1.,0.,0.));
#930=DIRECTION('',(1.,0.,0.));
#931=DIRECTION('',(0.,0.,1.));
#932=DIRECTION('',(0.,1.,0.));
#933=DIRECTION('',(0.,0.,1.));
#934=DIRECTION('',(0.,-1.,0.));
#935=DIRECTION('',(0.,0.,1.));
#936=DIRECTION('',(-1.,0.,0.));
#937=DIRECTION('',(0.,0.,-1.));
#938=DIRECTION('',(-1.,0.,0.));
#939=DIRECTION('',(0.,0.,-1.));
#940=DIRECTION('',(1.,0.,0.));
#941=DIRECTION('',(0.,0.,-1.));
#942=DIRECTION('',(0.,0.,1.));
#943=DIRECTION('',(1.,0.,0.));
#944=DIRECTION('',(-1.,0.,0.));
#945=DIRECTION('',(0.,-1.,0.));
#946=DIRECTION('',(0.,0.,-1.));
#947=DIRECTION('',(1.,0.,0.));
#948=DIRECTION('',(0.,1.,0.));
#949=DIRECTION('',(0.,0.,1.));
#950=DIRECTION('',(0.,0.,-1.));
#951=DIRECTION('',(-1.,0.,0.));
#952=DIRECTION('',(-1.,0.,0.));
#953=DIRECTION('',(0.,0.,1.));
#954=DIRECTION('',(0.,0.,-1.));
#955=DIRECTION('',(0.,-1.,0.));
#956=DIRECTION('',(0.,0.,-1.));
#957=DIRECTION('',(0.,0.,-1.));
#958=DIRECTION('',(0.,1.,0.));
#959=DIRECTION('',(0.,0.,1.));
#960=DIRECTION('',(-1.,0.,0.));
#961=DIRECTION('',(0.,0.,1.));
#962=DIRECTION('',(1.,0.,0.));
#963=DIRECTION('',(0.,0.,1.));
#964=DIRECTION('',(0.,0.,-1.));
#965=DIRECTION('',(0.,1.,0.));
#966=DIRECTION('',(0.,0.,1.));
#967=DIRECTION('',(0.,0.,-1.));
#968=DIRECTION('',(-1.,0.,0.));
#969=DIRECTION('',(1.,0.,0.));
#970=DIRECTION('',(0.,0.,-1.));
#971=DIRECTION('',(-1.,0.,0.));
#972=DIRECTION('',(0.,-1.,0.));
#973=DIRECTION('',(0.,0.,-1.));
#974=DIRECTION('',(-1.,0.,0.));
#975=DIRECTION('',(-1.,0.,0.));
#976=DIRECTION('',(0.,0.,-1.));
#977=DIRECTION('',(-1.,0.,0.));
#978=DIRECTION('',(0.,1.,0.));
#979=DIRECTION('',(0.,0.,-1.));
#980=DIRECTION('',(-1.,0.,0.));
#981=DIRECTION('',(0.,0.,-1.));
#982=DIRECTION('',(-1.,0.,0.));
#983=DIRECTION('',(0.,0.,1.));
#984=DIRECTION('',(-1.,0.,0.));
#985=DIRECTION('',(0.,-1.,0.));
#986=DIRECTION('',(0.,0.,1.));
#987=DIRECTION('',(-1.,0.,0.));
#988=DIRECTION('',(0.,0.,1.));
#989=DIRECTION('',(-1.,0.,0.));
#990=DIRECTION('',(0.,0.,1.));
#991=DIRECTION('',(-1.,0.,0.));
#992=DIRECTION('',(0.,0.,-1.));
#993=DIRECTION('',(-1.,0.,0.));
#994=DIRECTION('',(0.,0.,1.));
#995=DIRECTION('',(0.,0.,-1.));
#996=DIRECTION('',(1.,0.,0.));
#997=DIRECTION('',(0.,0.,-1.));
#998=DIRECTION('',(0.,0.,1.));
#999=DIRECTION('',(1.,0.,0.));
#1000=DIRECTION('',(0.,0.,1.));
#1001=DIRECTION('',(1.,0.,0.));
#1002=DIRECTION('',(0.,0.,1.));
#1003=DIRECTION('',(1.,0.,0.));
#1004=DIRECTION('',(0.,0.,1.));
#1005=DIRECTION('',(1.,0.,0.));
#1006=DIRECTION('',(0.,0.,-1.));
#1007=DIRECTION('',(-1.,0.,0.));
#1008=DIRECTION('',(0.,0.,1.));
#1009=DIRECTION('',(0.,-1.,0.));
#1010=DIRECTION('',(0.,0.,-1.));
#1011=DIRECTION('',(0.,0.,-1.));
#1012=DIRECTION('',(0.,1.,0.));
#1013=DIRECTION('',(0.,0.,1.));
#1014=DIRECTION('',(-1.,0.,0.));
#1015=DIRECTION('',(0.,0.,1.));
#1016=DIRECTION('',(0.,0.,-1.));
#1017=DIRECTION('',(1.,0.,0.));
#1018=DIRECTION('',(0.,0.,1.));
#1019=DIRECTION('',(0.,1.,0.));
#1020=DIRECTION('',(0.,0.,1.));
#1021=DIRECTION('',(0.,-1.,0.));
#1022=DIRECTION('',(0.,0.,1.));
#1023=DIRECTION('',(0.,0.,-1.));
#1024=DIRECTION('',(1.,0.,0.));
#1025=DIRECTION('',(0.,0.,-1.));
#1026=DIRECTION('',(0.,0.,1.));
#1027=DIRECTION('',(-1.,0.,0.));
#1028=DIRECTION('',(0.,0.,1.));
#1029=DIRECTION('',(-1.,0.,0.));
#1030=DIRECTION('',(0.,0.,1.));
#1031=DIRECTION('',(-1.,0.,0.));
#1032=DIRECTION('',(0.,0.,1.));
#1033=DIRECTION('',(-1.,0.,0.));
#1034=DIRECTION('',(0.,0.,-1.));
#1035=DIRECTION('',(-1.,0.,0.));
#1036=DIRECTION('',(0.,0.,1.));
#1037=DIRECTION('',(1.,0.,0.));
#1038=DIRECTION('',(0.,0.,1.));
#1039=DIRECTION('',(1.,0.,0.));
#1040=DIRECTION('',(0.,0.,1.));
#1041=DIRECTION('',(1.,0.,0.));
#1042=DIRECTION('',(0.,0.,1.));
#1043=DIRECTION('',(1.,0.,0.));
#1044=DIRECTION('',(0.,0.,-1.));
#1045=DIRECTION('',(1.,0.,0.));
#1046=DIRECTION('',(0.,0.,-1.));
#1047=DIRECTION('',(1.,0.,0.));
#1048=DIRECTION('',(0.,0.,-1.));
#1049=DIRECTION('',(1.,0.,0.));
#1050=DIRECTION('',(0.,0.,-1.));
#1051=DIRECTION('',(1.,0.,0.));
#1052=DIRECTION('',(0.,0.,-1.));
#1053=DIRECTION('',(1.,0.,0.));
#1054=CARTESIAN_POINT('',(0.,0.,0.));
#1055=CARTESIAN_POINT('',(217.9,242.5,82.5));
#1056=CARTESIAN_POINT('',(94.,242.5,82.5));
#1057=CARTESIAN_POINT('',(109.414913251585,242.5,82.5));
#1058=CARTESIAN_POINT('',(109.414913251585,242.5,82.55));
#1059=CARTESIAN_POINT('',(109.414913251585,242.5,46.8));
#1060=CARTESIAN_POINT('',(178.4,242.5,46.8));
#1061=CARTESIAN_POINT('',(94.,242.5,46.8));
#1062=CARTESIAN_POINT('',(94.,242.5,82.5));
#1063=CARTESIAN_POINT('',(178.4,242.5,46.8));
#1064=CARTESIAN_POINT('',(324.9,80.8,82.5));
#1065=CARTESIAN_POINT('',(333.35,80.8,82.5));
#1066=CARTESIAN_POINT('',(111.,80.8,82.5));
#1067=CARTESIAN_POINT('',(119.45,80.8,82.5));
#1068=CARTESIAN_POINT('',(217.9,152.6,82.5));
#1069=CARTESIAN_POINT('',(0.,152.6,82.5));
#1070=CARTESIAN_POINT('',(435.8,152.6,82.5));
#1071=CARTESIAN_POINT('',(0.,234.25,82.5));
#1072=CARTESIAN_POINT('',(0.,95.3,82.5));
#1073=CARTESIAN_POINT('',(217.9,95.3,82.5));
#1074=CARTESIAN_POINT('',(87.3,95.3,82.5));
#1075=CARTESIAN_POINT('',(87.3,81.5,82.5));
#1076=CARTESIAN_POINT('',(101.1,81.5,82.5));
#1077=CARTESIAN_POINT('',(101.1,234.25,82.5));
#1078=CARTESIAN_POINT('',(101.1,0.,82.5));
#1079=CARTESIAN_POINT('',(217.9,0.,82.5));
#1080=CARTESIAN_POINT('',(435.8,0.,82.5));
#1081=CARTESIAN_POINT('',(435.8,234.25,82.5));
#1082=CARTESIAN_POINT('',(217.9,234.25,82.5));
#1083=CARTESIAN_POINT('',(324.9,234.2,82.5));
#1084=CARTESIAN_POINT('',(333.35,234.2,82.5));
#1085=CARTESIAN_POINT('',(111.,234.2,82.5));
#1086=CARTESIAN_POINT('',(112.585086748415,242.5,82.5));
#1087=CARTESIAN_POINT('',(94.,255.6,82.5));
#1088=CARTESIAN_POINT('',(80.9,255.6,82.5));
#1089=CARTESIAN_POINT('',(80.9,234.25,82.5));
#1090=CARTESIAN_POINT('',(80.9,386.3,82.5));
#1091=CARTESIAN_POINT('',(94.,386.3,82.5));
#1092=CARTESIAN_POINT('',(94.,399.4,82.5));
#1093=CARTESIAN_POINT('',(217.9,399.4,82.5));
#1094=CARTESIAN_POINT('',(262.8,399.4,82.5));
#1095=CARTESIAN_POINT('',(262.8,386.3,82.5));
#1096=CARTESIAN_POINT('',(275.9,386.3,82.5));
#1097=CARTESIAN_POINT('',(275.9,234.25,82.5));
#1098=CARTESIAN_POINT('',(275.9,255.6,82.5));
#1099=CARTESIAN_POINT('',(262.8,255.6,82.5));
#1100=CARTESIAN_POINT('',(262.8,242.5,82.5));
#1101=CARTESIAN_POINT('',(217.9,242.5,82.5));
#1102=CARTESIAN_POINT('',(217.9,197.3,82.5));
#1103=CARTESIAN_POINT('',(435.8,197.3,82.5));
#1104=CARTESIAN_POINT('',(0.,197.3,82.5));
#1105=CARTESIAN_POINT('',(435.8,234.25,82.5));
#1106=CARTESIAN_POINT('',(435.8,463.1,82.5));
#1107=CARTESIAN_POINT('',(217.9,463.1,82.5));
#1108=CARTESIAN_POINT('',(0.,463.1,82.5));
#1109=CARTESIAN_POINT('',(0.,234.25,82.5));
#1110=CARTESIAN_POINT('',(217.9,234.25,82.5));
#1111=CARTESIAN_POINT('',(50.55,0.,57.8));
#1112=CARTESIAN_POINT('',(0.,0.,57.8));
#1113=CARTESIAN_POINT('',(101.1,0.,57.8));
#1114=CARTESIAN_POINT('',(0.,0.,0.));
#1115=CARTESIAN_POINT('',(0.,0.,0.));
#1116=CARTESIAN_POINT('',(217.9,0.,0.));
#1117=CARTESIAN_POINT('',(435.8,0.,0.));
#1118=CARTESIAN_POINT('',(435.8,0.,0.));
#1119=CARTESIAN_POINT('',(101.1,0.,57.8));
#1120=CARTESIAN_POINT('',(217.9,0.,0.));
#1121=CARTESIAN_POINT('',(0.,152.6,0.));
#1122=CARTESIAN_POINT('',(0.,152.6,59.1));
#1123=CARTESIAN_POINT('',(0.,234.25,59.1));
#1124=CARTESIAN_POINT('',(0.,197.3,59.1));
#1125=CARTESIAN_POINT('',(0.,197.3,0.));
#1126=CARTESIAN_POINT('',(0.,389.925,155.675));
#1127=CARTESIAN_POINT('',(0.,468.5,77.1));
#1128=CARTESIAN_POINT('',(0.,468.5,0.));
#1129=CARTESIAN_POINT('',(0.,468.5,0.));
#1130=CARTESIAN_POINT('',(0.,234.25,0.));
#1131=CARTESIAN_POINT('',(0.,47.65,57.8));
#1132=CARTESIAN_POINT('',(0.,95.3,57.8));
#1133=CARTESIAN_POINT('',(0.,95.3,57.8));
#1134=CARTESIAN_POINT('',(0.,234.25,0.));
#1135=CARTESIAN_POINT('',(217.9,468.5,77.1));
#1136=CARTESIAN_POINT('',(435.8,468.5,77.1));
#1137=CARTESIAN_POINT('',(435.8,468.5,0.));
#1138=CARTESIAN_POINT('',(435.8,468.5,0.));
#1139=CARTESIAN_POINT('',(217.9,468.5,0.));
#1140=CARTESIAN_POINT('',(217.9,468.5,0.));
#1141=CARTESIAN_POINT('',(111.,387.8,0.));
#1142=CARTESIAN_POINT('',(102.55,387.8,0.));
#1143=CARTESIAN_POINT('',(324.9,234.2,0.));
#1144=CARTESIAN_POINT('',(316.45,234.2,0.));
#1145=CARTESIAN_POINT('',(111.,234.2,0.));
#1146=CARTESIAN_POINT('',(102.55,234.2,0.));
#1147=CARTESIAN_POINT('',(324.9,80.8,0.));
#1148=CARTESIAN_POINT('',(316.45,80.8,0.));
#1149=CARTESIAN_POINT('',(111.,80.8,0.));
#1150=CARTESIAN_POINT('',(102.55,80.8,0.));
#1151=CARTESIAN_POINT('',(435.8,234.25,0.));
#1152=CARTESIAN_POINT('',(217.9,234.25,0.));
#1153=CARTESIAN_POINT('',(435.8,152.6,0.));
#1154=CARTESIAN_POINT('',(435.8,152.6,59.1));
#1155=CARTESIAN_POINT('',(435.8,389.925,155.675));
#1156=CARTESIAN_POINT('',(435.8,197.3,0.));
#1157=CARTESIAN_POINT('',(435.8,197.3,59.1));
#1158=CARTESIAN_POINT('',(435.8,234.25,59.1));
#1159=CARTESIAN_POINT('',(435.8,234.25,0.));
#1160=CARTESIAN_POINT('',(217.9,468.5,77.1));
#1161=CARTESIAN_POINT('',(50.55,95.3,57.8));
#1162=CARTESIAN_POINT('',(87.3,95.3,57.8));
#1163=CARTESIAN_POINT('',(87.3,95.3,82.5));
#1164=CARTESIAN_POINT('',(50.55,95.3,57.8));
#1165=CARTESIAN_POINT('',(101.1,47.65,57.8));
#1166=CARTESIAN_POINT('',(101.1,81.5,57.8));
#1167=CARTESIAN_POINT('',(87.3,81.5,57.8));
#1168=CARTESIAN_POINT('',(50.55,47.65,57.8));
#1169=CARTESIAN_POINT('',(101.1,81.5,57.8));
#1170=CARTESIAN_POINT('',(101.1,47.65,57.8));
#1171=CARTESIAN_POINT('',(87.3,81.5,57.8));
#1172=CARTESIAN_POINT('',(217.9,152.6,59.1));
#1173=CARTESIAN_POINT('',(217.9,152.6,59.1));
#1174=CARTESIAN_POINT('',(217.9,197.3,59.1));
#1175=CARTESIAN_POINT('',(217.9,197.3,59.1));
#1176=CARTESIAN_POINT('',(217.9,174.95,59.1));
#1177=CARTESIAN_POINT('',(178.4,242.5,46.8));
#1178=CARTESIAN_POINT('',(262.8,242.5,46.8));
#1179=CARTESIAN_POINT('',(112.585086748415,242.5,46.8));
#1180=CARTESIAN_POINT('',(112.585086748415,242.5,82.55));
#1181=CARTESIAN_POINT('',(262.8,242.5,46.8));
#1182=CARTESIAN_POINT('',(178.4,242.5,46.8));
#1183=CARTESIAN_POINT('',(80.9,255.6,46.8));
#1184=CARTESIAN_POINT('',(80.9,255.6,46.8));
#1185=CARTESIAN_POINT('',(80.9,320.95,46.8));
#1186=CARTESIAN_POINT('',(80.9,386.3,46.8));
#1187=CARTESIAN_POINT('',(80.9,386.3,82.5));
#1188=CARTESIAN_POINT('',(80.9,320.95,46.8));
#1189=CARTESIAN_POINT('',(178.4,399.4,46.8));
#1190=CARTESIAN_POINT('',(94.,399.4,46.8));
#1191=CARTESIAN_POINT('',(262.8,399.4,46.8));
#1192=CARTESIAN_POINT('',(262.8,399.4,82.5));
#1193=CARTESIAN_POINT('',(94.,399.4,46.8));
#1194=CARTESIAN_POINT('',(178.4,399.4,46.8));
#1195=CARTESIAN_POINT('',(111.,387.8,46.8));
#1196=CARTESIAN_POINT('',(102.55,387.8,46.8));
#1197=CARTESIAN_POINT('',(178.4,355.5,46.8));
#1198=CARTESIAN_POINT('',(134.7,355.5,46.8));
#1199=CARTESIAN_POINT('',(181.,355.5,46.8));
#1200=CARTESIAN_POINT('',(181.,342.,46.8));
#1201=CARTESIAN_POINT('',(194.5,342.,46.8));
#1202=CARTESIAN_POINT('',(194.5,320.95,46.8));
#1203=CARTESIAN_POINT('',(194.5,288.9,46.8));
#1204=CARTESIAN_POINT('',(181.,288.9,46.8));
#1205=CARTESIAN_POINT('',(181.,275.4,46.8));
#1206=CARTESIAN_POINT('',(178.4,275.4,46.8));
#1207=CARTESIAN_POINT('',(134.7,275.4,46.8));
#1208=CARTESIAN_POINT('',(134.7,288.9,46.8));
#1209=CARTESIAN_POINT('',(121.2,288.9,46.8));
#1210=CARTESIAN_POINT('',(121.2,320.95,46.8));
#1211=CARTESIAN_POINT('',(121.2,342.,46.8));
#1212=CARTESIAN_POINT('',(134.7,342.,46.8));
#1213=CARTESIAN_POINT('',(111.,234.2,46.8));
#1214=CARTESIAN_POINT('',(262.8,255.6,46.8));
#1215=CARTESIAN_POINT('',(275.9,255.6,46.8));
#1216=CARTESIAN_POINT('',(275.9,320.95,46.8));
#1217=CARTESIAN_POINT('',(275.9,386.3,46.8));
#1218=CARTESIAN_POINT('',(262.8,386.3,46.8));
#1219=CARTESIAN_POINT('',(94.,386.3,46.8));
#1220=CARTESIAN_POINT('',(94.,255.6,46.8));
#1221=CARTESIAN_POINT('',(178.4,320.95,46.8));
#1222=CARTESIAN_POINT('',(275.9,255.6,82.5));
#1223=CARTESIAN_POINT('',(275.9,386.3,46.8));
#1224=CARTESIAN_POINT('',(275.9,320.95,46.8));
#1225=CARTESIAN_POINT('',(94.,255.6,46.8));
#1226=CARTESIAN_POINT('',(262.8,255.6,46.8));
#1227=CARTESIAN_POINT('',(262.8,386.3,46.8));
#1228=CARTESIAN_POINT('',(94.,386.3,46.8));
#1229=CARTESIAN_POINT('',(181.,275.4,44.6));
#1230=CARTESIAN_POINT('',(181.,275.4,44.6));
#1231=CARTESIAN_POINT('',(157.85,275.4,44.6));
#1232=CARTESIAN_POINT('',(134.7,275.4,44.6));
#1233=CARTESIAN_POINT('',(134.7,275.4,46.8));
#1234=CARTESIAN_POINT('',(157.85,275.4,44.6));
#1235=CARTESIAN_POINT('',(121.2,288.9,44.6));
#1236=CARTESIAN_POINT('',(121.2,288.9,44.6));
#1237=CARTESIAN_POINT('',(121.2,315.45,44.6));
#1238=CARTESIAN_POINT('',(121.2,342.,44.6));
#1239=CARTESIAN_POINT('',(121.2,342.,46.8));
#1240=CARTESIAN_POINT('',(121.2,315.45,44.6));
#1241=CARTESIAN_POINT('',(134.7,355.5,44.6));
#1242=CARTESIAN_POINT('',(134.7,355.5,44.6));
#1243=CARTESIAN_POINT('',(157.85,355.5,44.6));
#1244=CARTESIAN_POINT('',(181.,355.5,44.6));
#1245=CARTESIAN_POINT('',(181.,355.5,46.8));
#1246=CARTESIAN_POINT('',(157.85,355.5,44.6));
#1247=CARTESIAN_POINT('',(194.5,315.45,44.6));
#1248=CARTESIAN_POINT('',(194.5,342.,44.6));
#1249=CARTESIAN_POINT('',(194.5,288.9,44.6));
#1250=CARTESIAN_POINT('',(194.5,288.9,46.8));
#1251=CARTESIAN_POINT('',(194.5,342.,44.6));
#1252=CARTESIAN_POINT('',(194.5,315.45,44.6));
#1253=CARTESIAN_POINT('',(181.,288.9,44.6));
#1254=CARTESIAN_POINT('',(181.,342.,44.6));
#1255=CARTESIAN_POINT('',(134.7,342.,44.6));
#1256=CARTESIAN_POINT('',(134.7,288.9,44.6));
#1257=CARTESIAN_POINT('',(157.85,315.45,44.6));
#1258=CARTESIAN_POINT('',(181.,288.9,44.6));
#1259=CARTESIAN_POINT('',(134.7,288.9,44.6));
#1260=CARTESIAN_POINT('',(134.7,342.,44.6));
#1261=CARTESIAN_POINT('',(181.,342.,44.6));
#1262=CARTESIAN_POINT('',(111.,80.8,82.55));
#1263=CARTESIAN_POINT('',(324.9,80.8,82.55));
#1264=CARTESIAN_POINT('',(111.,234.2,82.55));
#1265=CARTESIAN_POINT('',(324.9,234.2,82.55));
#1266=CARTESIAN_POINT('',(111.,387.8,82.55));
#1267=MECHANICAL_DESIGN_GEOMETRIC_PRESENTATION_REPRESENTATION('',(#24),
#1268);
#1268=(
GEOMETRIC_REPRESENTATION_CONTEXT(3)
GLOBAL_UNCERTAINTY_ASSIGNED_CONTEXT((#1269))
GLOBAL_UNIT_ASSIGNED_CONTEXT((#1275,#1271,#1270))
REPRESENTATION_CONTEXT('featured_part_00156','TOP_LEVEL_ASSEMBLY_PART')
);
#1269=UNCERTAINTY_MEASURE_WITH_UNIT(LENGTH_MEASURE(2.E-5),#1275,
'DISTANCE_ACCURACY_VALUE','Maximum Tolerance applied to model');
#1270=(
NAMED_UNIT(*)
SI_UNIT($,.STERADIAN.)
SOLID_ANGLE_UNIT()
);
#1271=(
CONVERSION_BASED_UNIT('DEGREE',#1273)
NAMED_UNIT(#1272)
PLANE_ANGLE_UNIT()
);
#1272=DIMENSIONAL_EXPONENTS(0.,0.,0.,0.,0.,0.,0.);
#1273=PLANE_ANGLE_MEASURE_WITH_UNIT(PLANE_ANGLE_MEASURE(0.0174532925),#1274);
#1274=(
NAMED_UNIT(*)
PLANE_ANGLE_UNIT()
SI_UNIT($,.RADIAN.)
);
#1275=(
LENGTH_UNIT()
NAMED_UNIT(*)
SI_UNIT(.MILLI.,.METRE.)
);
ENDSEC;
END-ISO-10303-21;
