ISO-10303-21;
HEADER;
/* Generated by software containing ST-Developer
 * from STEP Tools, Inc. (www.steptools.com) 
 */
/* OPTION: using custom schema-name function */

FILE_DESCRIPTION(
/* description */ (''),
/* implementation_level */ '2;1');

FILE_NAME(
/* name */ 'featured_part_10007.stp',
/* time_stamp */ '2026-07-11T21:17:08-04:00',
/* author */ (''),
/* organization */ (''),
/* preprocessor_version */ 'ST-DEVELOPER v20.1',
/* originating_system */ 'SIEMENS PLM Software NX2512.6002',
/* authorisation */ '');

FILE_SCHEMA (('AUTOMOTIVE_DESIGN { 1 0 10303 214 3 1 1 1 }'));
ENDSEC;

DATA;
#10=SHAPE_REPRESENTATION_RELATIONSHIP('None',
'relationship between featured_part_10007-None and featured_part_10007
-None',#22,#11);
#11=ADVANCED_BREP_SHAPE_REPRESENTATION('featured_part_10007-None',(#32),
#570);
#12=SHAPE_DEFINITION_REPRESENTATION(#13,#22);
#13=PRODUCT_DEFINITION_SHAPE('','',#14);
#14=PRODUCT_DEFINITION(' ','',#16,#15);
#15=PRODUCT_DEFINITION_CONTEXT('part definition',#21,'design');
#16=PRODUCT_DEFINITION_FORMATION_WITH_SPECIFIED_SOURCE(' ',' ',#18,
 .NOT_KNOWN.);
#17=PRODUCT_RELATED_PRODUCT_CATEGORY('part','',(#18));
#18=PRODUCT('featured_part_10007','featured_part_10007',' ',(#19));
#19=PRODUCT_CONTEXT(' ',#21,'mechanical');
#20=APPLICATION_PROTOCOL_DEFINITION('international standard',
'automotive_design',2010,#21);
#21=APPLICATION_CONTEXT(
'core data for automotive mechanical design processes');
#22=SHAPE_REPRESENTATION('featured_part_10007-None',(#353),#570);
#23=PRESENTATION_LAYER_ASSIGNMENT('1','Layer 1',(#32));
#24=STYLED_ITEM('',(#25),#32);
#25=PRESENTATION_STYLE_ASSIGNMENT((#26));
#26=SURFACE_STYLE_USAGE(.BOTH.,#27);
#27=SURFACE_SIDE_STYLE('',(#28));
#28=SURFACE_STYLE_FILL_AREA(#29);
#29=FILL_AREA_STYLE('',(#30));
#30=FILL_AREA_STYLE_COLOUR('',#31);
#31=COLOUR_RGB('medium steel',0.611764705882353,0.658823529411765,0.670588235294118);
#32=MANIFOLD_SOLID_BREP('',#33);
#33=CLOSED_SHELL('',(#52,#53,#54,#55,#56,#57,#58,#59,#60,#61,#62,#63,#64,
#65,#66,#67,#68,#69,#70));
#34=CYLINDRICAL_SURFACE('',#375,5.1);
#35=CYLINDRICAL_SURFACE('',#376,5.1);
#36=CYLINDRICAL_SURFACE('',#377,4.5);
#37=CYLINDRICAL_SURFACE('',#378,9.5);
#38=CYLINDRICAL_SURFACE('',#380,4.35);
#39=CYLINDRICAL_SURFACE('',#384,7.35);
#40=FACE_OUTER_BOUND('',#162,.T.);
#41=FACE_OUTER_BOUND('',#163,.T.);
#42=FACE_OUTER_BOUND('',#164,.T.);
#43=FACE_OUTER_BOUND('',#168,.T.);
#44=FACE_OUTER_BOUND('',#169,.T.);
#45=FACE_OUTER_BOUND('',#170,.T.);
#46=FACE_OUTER_BOUND('',#171,.T.);
#47=FACE_OUTER_BOUND('',#175,.T.);
#48=FACE_OUTER_BOUND('',#176,.T.);
#49=FACE_OUTER_BOUND('',#177,.T.);
#50=FACE_OUTER_BOUND('',#184,.T.);
#51=FACE_OUTER_BOUND('',#185,.T.);
#52=ADVANCED_FACE('',(#142,#143,#144),#71,.T.);
#53=ADVANCED_FACE('',(#40),#72,.T.);
#54=ADVANCED_FACE('',(#41),#73,.T.);
#55=ADVANCED_FACE('',(#42),#74,.T.);
#56=ADVANCED_FACE('',(#145,#146,#147),#75,.T.);
#57=ADVANCED_FACE('',(#43),#76,.T.);
#58=ADVANCED_FACE('',(#44),#77,.F.);
#59=ADVANCED_FACE('',(#45),#78,.F.);
#60=ADVANCED_FACE('',(#46),#79,.F.);
#61=ADVANCED_FACE('',(#148,#149,#150),#80,.F.);
#62=ADVANCED_FACE('',(#47),#81,.F.);
#63=ADVANCED_FACE('',(#48),#34,.F.);
#64=ADVANCED_FACE('',(#49),#35,.F.);
#65=ADVANCED_FACE('',(#151,#152),#36,.F.);
#66=ADVANCED_FACE('',(#153,#154),#37,.F.);
#67=ADVANCED_FACE('',(#155,#156),#38,.F.);
#68=ADVANCED_FACE('',(#50),#82,.F.);
#69=ADVANCED_FACE('',(#51),#83,.F.);
#70=ADVANCED_FACE('',(#157,#158),#39,.F.);
#71=PLANE('',#358);
#72=PLANE('',#359);
#73=PLANE('',#360);
#74=PLANE('',#361);
#75=PLANE('',#364);
#76=PLANE('',#365);
#77=PLANE('',#366);
#78=PLANE('',#367);
#79=PLANE('',#368);
#80=PLANE('',#373);
#81=PLANE('',#374);
#82=PLANE('',#381);
#83=PLANE('',#383);
#84=LINE('',#483,#113);
#85=LINE('',#486,#114);
#86=LINE('',#488,#115);
#87=LINE('',#490,#116);
#88=LINE('',#492,#117);
#89=LINE('',#494,#118);
#90=LINE('',#496,#119);
#91=LINE('',#500,#120);
#92=LINE('',#504,#121);
#93=LINE('',#507,#122);
#94=LINE('',#508,#123);
#95=LINE('',#510,#124);
#96=LINE('',#512,#125);
#97=LINE('',#514,#126);
#98=LINE('',#516,#127);
#99=LINE('',#517,#128);
#100=LINE('',#519,#129);
#101=LINE('',#521,#130);
#102=LINE('',#523,#131);
#103=LINE('',#525,#132);
#104=LINE('',#531,#133);
#105=LINE('',#533,#134);
#106=LINE('',#536,#135);
#107=LINE('',#538,#136);
#108=LINE('',#540,#137);
#109=LINE('',#542,#138);
#110=LINE('',#548,#139);
#111=LINE('',#554,#140);
#112=LINE('',#555,#141);
#113=VECTOR('',#391,1.);
#114=VECTOR('',#392,1.);
#115=VECTOR('',#393,1.);
#116=VECTOR('',#394,1.);
#117=VECTOR('',#395,1.);
#118=VECTOR('',#396,1.);
#119=VECTOR('',#397,1.);
#120=VECTOR('',#400,1.);
#121=VECTOR('',#405,1.);
#122=VECTOR('',#406,1.);
#123=VECTOR('',#407,1.);
#124=VECTOR('',#408,1.);
#125=VECTOR('',#411,1.);
#126=VECTOR('',#412,1.);
#127=VECTOR('',#413,1.);
#128=VECTOR('',#414,1.);
#129=VECTOR('',#415,1.);
#130=VECTOR('',#418,1.);
#131=VECTOR('',#419,1.);
#132=VECTOR('',#420,1.);
#133=VECTOR('',#427,1.);
#134=VECTOR('',#430,1.);
#135=VECTOR('',#435,1.);
#136=VECTOR('',#436,1.);
#137=VECTOR('',#439,1.);
#138=VECTOR('',#440,1.);
#139=VECTOR('',#447,1.);
#140=VECTOR('',#454,1.);
#141=VECTOR('',#455,1.);
#142=FACE_BOUND('',#159,.T.);
#143=FACE_BOUND('',#160,.T.);
#144=FACE_BOUND('',#161,.T.);
#145=FACE_BOUND('',#165,.T.);
#146=FACE_BOUND('',#166,.T.);
#147=FACE_BOUND('',#167,.T.);
#148=FACE_BOUND('',#172,.T.);
#149=FACE_BOUND('',#173,.T.);
#150=FACE_BOUND('',#174,.T.);
#151=FACE_BOUND('',#178,.T.);
#152=FACE_BOUND('',#179,.T.);
#153=FACE_BOUND('',#180,.T.);
#154=FACE_BOUND('',#181,.T.);
#155=FACE_BOUND('',#182,.T.);
#156=FACE_BOUND('',#183,.T.);
#157=FACE_BOUND('',#186,.T.);
#158=FACE_BOUND('',#187,.T.);
#159=EDGE_LOOP('',(#188));
#160=EDGE_LOOP('',(#189));
#161=EDGE_LOOP('',(#190,#191,#192,#193,#194,#195,#196,#197,#198,#199));
#162=EDGE_LOOP('',(#200,#201,#202,#203,#204));
#163=EDGE_LOOP('',(#205,#206,#207,#208,#209,#210,#211,#212));
#164=EDGE_LOOP('',(#213,#214,#215,#216,#217));
#165=EDGE_LOOP('',(#218));
#166=EDGE_LOOP('',(#219));
#167=EDGE_LOOP('',(#220,#221,#222,#223));
#168=EDGE_LOOP('',(#224,#225,#226,#227));
#169=EDGE_LOOP('',(#228,#229,#230,#231));
#170=EDGE_LOOP('',(#232,#233,#234,#235));
#171=EDGE_LOOP('',(#236,#237,#238,#239));
#172=EDGE_LOOP('',(#240));
#173=EDGE_LOOP('',(#241));
#174=EDGE_LOOP('',(#242,#243,#244,#245,#246,#247));
#175=EDGE_LOOP('',(#248,#249,#250,#251));
#176=EDGE_LOOP('',(#252,#253,#254,#255));
#177=EDGE_LOOP('',(#256,#257,#258,#259));
#178=EDGE_LOOP('',(#260));
#179=EDGE_LOOP('',(#261));
#180=EDGE_LOOP('',(#262));
#181=EDGE_LOOP('',(#263));
#182=EDGE_LOOP('',(#264));
#183=EDGE_LOOP('',(#265));
#184=EDGE_LOOP('',(#266));
#185=EDGE_LOOP('',(#267));
#186=EDGE_LOOP('',(#268));
#187=EDGE_LOOP('',(#269));
#188=ORIENTED_EDGE('',*,*,#300,.F.);
#189=ORIENTED_EDGE('',*,*,#301,.F.);
#190=ORIENTED_EDGE('',*,*,#302,.F.);
#191=ORIENTED_EDGE('',*,*,#303,.F.);
#192=ORIENTED_EDGE('',*,*,#304,.F.);
#193=ORIENTED_EDGE('',*,*,#305,.T.);
#194=ORIENTED_EDGE('',*,*,#306,.F.);
#195=ORIENTED_EDGE('',*,*,#307,.F.);
#196=ORIENTED_EDGE('',*,*,#308,.F.);
#197=ORIENTED_EDGE('',*,*,#309,.T.);
#198=ORIENTED_EDGE('',*,*,#310,.F.);
#199=ORIENTED_EDGE('',*,*,#311,.T.);
#200=ORIENTED_EDGE('',*,*,#312,.T.);
#201=ORIENTED_EDGE('',*,*,#313,.T.);
#202=ORIENTED_EDGE('',*,*,#304,.T.);
#203=ORIENTED_EDGE('',*,*,#314,.F.);
#204=ORIENTED_EDGE('',*,*,#315,.T.);
#205=ORIENTED_EDGE('',*,*,#316,.F.);
#206=ORIENTED_EDGE('',*,*,#317,.F.);
#207=ORIENTED_EDGE('',*,*,#318,.T.);
#208=ORIENTED_EDGE('',*,*,#307,.T.);
#209=ORIENTED_EDGE('',*,*,#319,.F.);
#210=ORIENTED_EDGE('',*,*,#320,.T.);
#211=ORIENTED_EDGE('',*,*,#314,.T.);
#212=ORIENTED_EDGE('',*,*,#303,.T.);
#213=ORIENTED_EDGE('',*,*,#306,.T.);
#214=ORIENTED_EDGE('',*,*,#321,.T.);
#215=ORIENTED_EDGE('',*,*,#322,.F.);
#216=ORIENTED_EDGE('',*,*,#323,.T.);
#217=ORIENTED_EDGE('',*,*,#319,.T.);
#218=ORIENTED_EDGE('',*,*,#324,.F.);
#219=ORIENTED_EDGE('',*,*,#325,.F.);
#220=ORIENTED_EDGE('',*,*,#326,.F.);
#221=ORIENTED_EDGE('',*,*,#315,.F.);
#222=ORIENTED_EDGE('',*,*,#320,.F.);
#223=ORIENTED_EDGE('',*,*,#323,.F.);
#224=ORIENTED_EDGE('',*,*,#322,.T.);
#225=ORIENTED_EDGE('',*,*,#327,.T.);
#226=ORIENTED_EDGE('',*,*,#312,.F.);
#227=ORIENTED_EDGE('',*,*,#326,.T.);
#228=ORIENTED_EDGE('',*,*,#321,.F.);
#229=ORIENTED_EDGE('',*,*,#305,.F.);
#230=ORIENTED_EDGE('',*,*,#313,.F.);
#231=ORIENTED_EDGE('',*,*,#327,.F.);
#232=ORIENTED_EDGE('',*,*,#302,.T.);
#233=ORIENTED_EDGE('',*,*,#328,.T.);
#234=ORIENTED_EDGE('',*,*,#329,.T.);
#235=ORIENTED_EDGE('',*,*,#316,.T.);
#236=ORIENTED_EDGE('',*,*,#330,.T.);
#237=ORIENTED_EDGE('',*,*,#331,.T.);
#238=ORIENTED_EDGE('',*,*,#308,.T.);
#239=ORIENTED_EDGE('',*,*,#318,.F.);
#240=ORIENTED_EDGE('',*,*,#332,.T.);
#241=ORIENTED_EDGE('',*,*,#333,.T.);
#242=ORIENTED_EDGE('',*,*,#334,.F.);
#243=ORIENTED_EDGE('',*,*,#335,.T.);
#244=ORIENTED_EDGE('',*,*,#330,.F.);
#245=ORIENTED_EDGE('',*,*,#317,.T.);
#246=ORIENTED_EDGE('',*,*,#329,.F.);
#247=ORIENTED_EDGE('',*,*,#336,.T.);
#248=ORIENTED_EDGE('',*,*,#310,.T.);
#249=ORIENTED_EDGE('',*,*,#337,.T.);
#250=ORIENTED_EDGE('',*,*,#334,.T.);
#251=ORIENTED_EDGE('',*,*,#338,.T.);
#252=ORIENTED_EDGE('',*,*,#309,.F.);
#253=ORIENTED_EDGE('',*,*,#331,.F.);
#254=ORIENTED_EDGE('',*,*,#335,.F.);
#255=ORIENTED_EDGE('',*,*,#337,.F.);
#256=ORIENTED_EDGE('',*,*,#311,.F.);
#257=ORIENTED_EDGE('',*,*,#338,.F.);
#258=ORIENTED_EDGE('',*,*,#336,.F.);
#259=ORIENTED_EDGE('',*,*,#328,.F.);
#260=ORIENTED_EDGE('',*,*,#325,.T.);
#261=ORIENTED_EDGE('',*,*,#333,.F.);
#262=ORIENTED_EDGE('',*,*,#301,.T.);
#263=ORIENTED_EDGE('',*,*,#324,.T.);
#264=ORIENTED_EDGE('',*,*,#339,.T.);
#265=ORIENTED_EDGE('',*,*,#332,.F.);
#266=ORIENTED_EDGE('',*,*,#339,.F.);
#267=ORIENTED_EDGE('',*,*,#340,.F.);
#268=ORIENTED_EDGE('',*,*,#300,.T.);
#269=ORIENTED_EDGE('',*,*,#340,.T.);
#270=VERTEX_POINT('',#480);
#271=VERTEX_POINT('',#482);
#272=VERTEX_POINT('',#484);
#273=VERTEX_POINT('',#485);
#274=VERTEX_POINT('',#487);
#275=VERTEX_POINT('',#489);
#276=VERTEX_POINT('',#491);
#277=VERTEX_POINT('',#493);
#278=VERTEX_POINT('',#495);
#279=VERTEX_POINT('',#497);
#280=VERTEX_POINT('',#499);
#281=VERTEX_POINT('',#501);
#282=VERTEX_POINT('',#505);
#283=VERTEX_POINT('',#506);
#284=VERTEX_POINT('',#509);
#285=VERTEX_POINT('',#513);
#286=VERTEX_POINT('',#515);
#287=VERTEX_POINT('',#518);
#288=VERTEX_POINT('',#522);
#289=VERTEX_POINT('',#524);
#290=VERTEX_POINT('',#528);
#291=VERTEX_POINT('',#530);
#292=VERTEX_POINT('',#537);
#293=VERTEX_POINT('',#541);
#294=VERTEX_POINT('',#545);
#295=VERTEX_POINT('',#547);
#296=VERTEX_POINT('',#549);
#297=VERTEX_POINT('',#550);
#298=VERTEX_POINT('',#562);
#299=VERTEX_POINT('',#566);
#300=EDGE_CURVE('',#270,#270,#341,.T.);
#301=EDGE_CURVE('',#271,#271,#342,.T.);
#302=EDGE_CURVE('',#272,#273,#84,.T.);
#303=EDGE_CURVE('',#274,#272,#85,.T.);
#304=EDGE_CURVE('',#275,#274,#86,.T.);
#305=EDGE_CURVE('',#275,#276,#87,.T.);
#306=EDGE_CURVE('',#277,#276,#88,.T.);
#307=EDGE_CURVE('',#278,#277,#89,.T.);
#308=EDGE_CURVE('',#279,#278,#90,.T.);
#309=EDGE_CURVE('',#279,#280,#343,.T.);
#310=EDGE_CURVE('',#281,#280,#91,.T.);
#311=EDGE_CURVE('',#281,#273,#344,.T.);
#312=EDGE_CURVE('',#282,#283,#92,.T.);
#313=EDGE_CURVE('',#283,#275,#93,.T.);
#314=EDGE_CURVE('',#284,#274,#94,.T.);
#315=EDGE_CURVE('',#284,#282,#95,.T.);
#316=EDGE_CURVE('',#285,#272,#96,.T.);
#317=EDGE_CURVE('',#286,#285,#97,.T.);
#318=EDGE_CURVE('',#286,#278,#98,.T.);
#319=EDGE_CURVE('',#287,#277,#99,.T.);
#320=EDGE_CURVE('',#287,#284,#100,.T.);
#321=EDGE_CURVE('',#276,#288,#101,.T.);
#322=EDGE_CURVE('',#289,#288,#102,.T.);
#323=EDGE_CURVE('',#289,#287,#103,.T.);
#324=EDGE_CURVE('',#290,#290,#345,.T.);
#325=EDGE_CURVE('',#291,#291,#346,.T.);
#326=EDGE_CURVE('',#282,#289,#104,.T.);
#327=EDGE_CURVE('',#288,#283,#105,.T.);
#328=EDGE_CURVE('',#273,#292,#106,.T.);
#329=EDGE_CURVE('',#292,#285,#107,.T.);
#330=EDGE_CURVE('',#286,#293,#108,.T.);
#331=EDGE_CURVE('',#293,#279,#109,.T.);
#332=EDGE_CURVE('',#294,#294,#347,.T.);
#333=EDGE_CURVE('',#295,#295,#348,.T.);
#334=EDGE_CURVE('',#296,#297,#110,.T.);
#335=EDGE_CURVE('',#296,#293,#349,.T.);
#336=EDGE_CURVE('',#292,#297,#350,.T.);
#337=EDGE_CURVE('',#280,#296,#111,.T.);
#338=EDGE_CURVE('',#297,#281,#112,.T.);
#339=EDGE_CURVE('',#298,#298,#351,.T.);
#340=EDGE_CURVE('',#299,#299,#352,.T.);
#341=CIRCLE('',#354,7.35);
#342=CIRCLE('',#355,9.5);
#343=CIRCLE('',#356,5.1);
#344=CIRCLE('',#357,5.1);
#345=CIRCLE('',#362,9.5);
#346=CIRCLE('',#363,4.5);
#347=CIRCLE('',#369,4.35);
#348=CIRCLE('',#370,4.5);
#349=CIRCLE('',#371,5.1);
#350=CIRCLE('',#372,5.1);
#351=CIRCLE('',#379,4.35);
#352=CIRCLE('',#382,7.35);
#353=AXIS2_PLACEMENT_3D('',#478,#385,#386);
#354=AXIS2_PLACEMENT_3D('',#479,#387,#388);
#355=AXIS2_PLACEMENT_3D('',#481,#389,#390);
#356=AXIS2_PLACEMENT_3D('',#498,#398,#399);
#357=AXIS2_PLACEMENT_3D('',#502,#401,#402);
#358=AXIS2_PLACEMENT_3D('',#503,#403,#404);
#359=AXIS2_PLACEMENT_3D('',#511,#409,#410);
#360=AXIS2_PLACEMENT_3D('',#520,#416,#417);
#361=AXIS2_PLACEMENT_3D('',#526,#421,#422);
#362=AXIS2_PLACEMENT_3D('',#527,#423,#424);
#363=AXIS2_PLACEMENT_3D('',#529,#425,#426);
#364=AXIS2_PLACEMENT_3D('',#532,#428,#429);
#365=AXIS2_PLACEMENT_3D('',#534,#431,#432);
#366=AXIS2_PLACEMENT_3D('',#535,#433,#434);
#367=AXIS2_PLACEMENT_3D('',#539,#437,#438);
#368=AXIS2_PLACEMENT_3D('',#543,#441,#442);
#369=AXIS2_PLACEMENT_3D('',#544,#443,#444);
#370=AXIS2_PLACEMENT_3D('',#546,#445,#446);
#371=AXIS2_PLACEMENT_3D('',#551,#448,#449);
#372=AXIS2_PLACEMENT_3D('',#552,#450,#451);
#373=AXIS2_PLACEMENT_3D('',#553,#452,#453);
#374=AXIS2_PLACEMENT_3D('',#556,#456,#457);
#375=AXIS2_PLACEMENT_3D('',#557,#458,#459);
#376=AXIS2_PLACEMENT_3D('',#558,#460,#461);
#377=AXIS2_PLACEMENT_3D('',#559,#462,#463);
#378=AXIS2_PLACEMENT_3D('',#560,#464,#465);
#379=AXIS2_PLACEMENT_3D('',#561,#466,#467);
#380=AXIS2_PLACEMENT_3D('',#563,#468,#469);
#381=AXIS2_PLACEMENT_3D('',#564,#470,#471);
#382=AXIS2_PLACEMENT_3D('',#565,#472,#473);
#383=AXIS2_PLACEMENT_3D('',#567,#474,#475);
#384=AXIS2_PLACEMENT_3D('',#568,#476,#477);
#385=DIRECTION('',(0.,0.,1.));
#386=DIRECTION('',(1.,0.,0.));
#387=DIRECTION('',(0.,0.,1.));
#388=DIRECTION('',(1.,0.,0.));
#389=DIRECTION('',(0.,0.,1.));
#390=DIRECTION('',(1.,0.,0.));
#391=DIRECTION('',(1.,0.,0.));
#392=DIRECTION('',(0.,1.,0.));
#393=DIRECTION('',(-1.,0.,0.));
#394=DIRECTION('',(0.,1.,0.));
#395=DIRECTION('',(1.,0.,0.));
#396=DIRECTION('',(0.,1.,0.));
#397=DIRECTION('',(-1.,0.,0.));
#398=DIRECTION('',(0.,0.,-1.));
#399=DIRECTION('',(0.999999999999999,0.,0.));
#400=DIRECTION('',(0.,1.,0.));
#401=DIRECTION('',(0.,0.,-1.));
#402=DIRECTION('',(0.999999999999999,0.,0.));
#403=DIRECTION('',(0.,0.,1.));
#404=DIRECTION('',(1.,0.,0.));
#405=DIRECTION('',(0.,0.,1.));
#406=DIRECTION('',(-0.707106781186547,0.,0.707106781186548));
#407=DIRECTION('',(0.,0.,1.));
#408=DIRECTION('',(1.,0.,0.));
#409=DIRECTION('',(0.,-1.,0.));
#410=DIRECTION('',(0.,0.,-1.));
#411=DIRECTION('',(0.,0.,1.));
#412=DIRECTION('',(0.,-1.,0.));
#413=DIRECTION('',(0.,0.,1.));
#414=DIRECTION('',(0.,0.,1.));
#415=DIRECTION('',(0.,-1.,0.));
#416=DIRECTION('',(-1.,0.,0.));
#417=DIRECTION('',(0.,0.,1.));
#418=DIRECTION('',(0.707106781186547,0.,-0.707106781186548));
#419=DIRECTION('',(0.,0.,1.));
#420=DIRECTION('',(-1.,0.,0.));
#421=DIRECTION('',(0.,1.,0.));
#422=DIRECTION('',(0.,0.,1.));
#423=DIRECTION('',(0.,0.,-1.));
#424=DIRECTION('',(-1.,0.,0.));
#425=DIRECTION('',(0.,0.,-1.));
#426=DIRECTION('',(-1.,0.,0.));
#427=DIRECTION('',(0.,1.,0.));
#428=DIRECTION('',(0.,0.,-1.));
#429=DIRECTION('',(-1.,0.,0.));
#430=DIRECTION('',(0.,-1.,0.));
#431=DIRECTION('',(1.,0.,0.));
#432=DIRECTION('',(0.,0.,-1.));
#433=DIRECTION('',(-0.707106781186548,0.,-0.707106781186547));
#434=DIRECTION('',(0.,-1.,0.));
#435=DIRECTION('',(0.,0.,-1.));
#436=DIRECTION('',(-1.,0.,0.));
#437=DIRECTION('',(0.,-1.,0.));
#438=DIRECTION('',(0.,0.,-1.));
#439=DIRECTION('',(1.,0.,0.));
#440=DIRECTION('',(0.,0.,1.));
#441=DIRECTION('',(0.,1.,0.));
#442=DIRECTION('',(0.,0.,1.));
#443=DIRECTION('',(0.,0.,-1.));
#444=DIRECTION('',(-1.,0.,0.));
#445=DIRECTION('',(0.,0.,-1.));
#446=DIRECTION('',(-1.,0.,0.));
#447=DIRECTION('',(0.,-1.,0.));
#448=DIRECTION('',(0.,0.,1.));
#449=DIRECTION('',(-0.999999999999999,0.,0.));
#450=DIRECTION('',(0.,0.,1.));
#451=DIRECTION('',(-0.999999999999999,0.,0.));
#452=DIRECTION('',(0.,0.,-1.));
#453=DIRECTION('',(-1.,0.,0.));
#454=DIRECTION('',(0.,0.,-1.));
#455=DIRECTION('',(0.,0.,1.));
#456=DIRECTION('',(1.,0.,0.));
#457=DIRECTION('',(0.,0.,-1.));
#458=DIRECTION('',(0.,0.,1.));
#459=DIRECTION('',(0.999999999999999,0.,0.));
#460=DIRECTION('',(0.,0.,1.));
#461=DIRECTION('',(0.999999999999999,0.,0.));
#462=DIRECTION('',(0.,0.,-1.));
#463=DIRECTION('',(1.,0.,0.));
#464=DIRECTION('',(0.,0.,-1.));
#465=DIRECTION('',(1.,0.,0.));
#466=DIRECTION('',(0.,0.,-1.));
#467=DIRECTION('',(1.,0.,0.));
#468=DIRECTION('',(0.,0.,-1.));
#469=DIRECTION('',(1.,0.,0.));
#470=DIRECTION('',(0.,0.,-1.));
#471=DIRECTION('',(-1.,0.,0.));
#472=DIRECTION('',(0.,0.,-1.));
#473=DIRECTION('',(1.,0.,0.));
#474=DIRECTION('',(0.,0.,-1.));
#475=DIRECTION('',(-1.,0.,0.));
#476=DIRECTION('',(0.,0.,-1.));
#477=DIRECTION('',(1.,0.,0.));
#478=CARTESIAN_POINT('',(0.,0.,0.));
#479=CARTESIAN_POINT('',(47.2,283.4,64.7));
#480=CARTESIAN_POINT('',(54.55,283.4,64.7));
#481=CARTESIAN_POINT('',(187.4,13.5,64.7));
#482=CARTESIAN_POINT('',(196.9,13.5,64.7));
#483=CARTESIAN_POINT('',(131.75,115.2,64.7));
#484=CARTESIAN_POINT('',(0.,115.2,64.7));
#485=CARTESIAN_POINT('',(68.3,115.2,64.7));
#486=CARTESIAN_POINT('',(0.,176.6,64.7));
#487=CARTESIAN_POINT('',(0.,0.,64.7));
#488=CARTESIAN_POINT('',(131.75,0.,64.7));
#489=CARTESIAN_POINT('',(260.4,0.,64.7));
#490=CARTESIAN_POINT('',(260.4,176.6,64.7));
#491=CARTESIAN_POINT('',(260.4,353.2,64.7));
#492=CARTESIAN_POINT('',(131.75,353.2,64.7));
#493=CARTESIAN_POINT('',(0.,353.2,64.7));
#494=CARTESIAN_POINT('',(0.,176.6,64.7));
#495=CARTESIAN_POINT('',(0.,212.,64.7));
#496=CARTESIAN_POINT('',(131.75,212.,64.7));
#497=CARTESIAN_POINT('',(68.3,212.,64.7));
#498=CARTESIAN_POINT('',(68.3,206.9,64.7));
#499=CARTESIAN_POINT('',(73.4,206.9,64.7));
#500=CARTESIAN_POINT('',(73.4,176.6,64.7));
#501=CARTESIAN_POINT('',(73.4,120.3,64.7));
#502=CARTESIAN_POINT('',(68.3,120.3,64.7));
#503=CARTESIAN_POINT('',(131.75,176.6,64.7));
#504=CARTESIAN_POINT('',(263.5,0.,0.));
#505=CARTESIAN_POINT('',(263.5,0.,0.));
#506=CARTESIAN_POINT('',(263.5,0.,61.6));
#507=CARTESIAN_POINT('',(228.425,0.,96.6749999999999));
#508=CARTESIAN_POINT('',(0.,0.,0.));
#509=CARTESIAN_POINT('',(0.,0.,0.));
#510=CARTESIAN_POINT('',(131.75,0.,0.));
#511=CARTESIAN_POINT('',(131.75,0.,0.));
#512=CARTESIAN_POINT('',(0.,115.2,51.8));
#513=CARTESIAN_POINT('',(0.,115.2,51.8));
#514=CARTESIAN_POINT('',(0.,163.6,51.8));
#515=CARTESIAN_POINT('',(0.,212.,51.8));
#516=CARTESIAN_POINT('',(0.,212.,51.8));
#517=CARTESIAN_POINT('',(0.,353.2,0.));
#518=CARTESIAN_POINT('',(0.,353.2,0.));
#519=CARTESIAN_POINT('',(0.,176.6,0.));
#520=CARTESIAN_POINT('',(0.,176.6,0.));
#521=CARTESIAN_POINT('',(228.425,353.2,96.6749999999999));
#522=CARTESIAN_POINT('',(263.5,353.2,61.6));
#523=CARTESIAN_POINT('',(263.5,353.2,0.));
#524=CARTESIAN_POINT('',(263.5,353.2,0.));
#525=CARTESIAN_POINT('',(131.75,353.2,0.));
#526=CARTESIAN_POINT('',(131.75,353.2,0.));
#527=CARTESIAN_POINT('',(187.4,13.5,0.));
#528=CARTESIAN_POINT('',(177.9,13.5,0.));
#529=CARTESIAN_POINT('',(13.5,201.3,0.));
#530=CARTESIAN_POINT('',(9.,201.3,0.));
#531=CARTESIAN_POINT('',(263.5,176.6,0.));
#532=CARTESIAN_POINT('',(131.75,176.6,0.));
#533=CARTESIAN_POINT('',(263.5,176.6,61.6));
#534=CARTESIAN_POINT('',(263.5,176.6,0.));
#535=CARTESIAN_POINT('',(263.5,176.6,61.6));
#536=CARTESIAN_POINT('',(68.3,115.2,51.8));
#537=CARTESIAN_POINT('',(68.3,115.2,51.8));
#538=CARTESIAN_POINT('',(36.7,115.2,51.8));
#539=CARTESIAN_POINT('',(36.7,115.2,51.8));
#540=CARTESIAN_POINT('',(36.7,212.,51.8));
#541=CARTESIAN_POINT('',(68.3,212.,51.8));
#542=CARTESIAN_POINT('',(68.3,212.,64.7));
#543=CARTESIAN_POINT('',(36.7,212.,51.8));
#544=CARTESIAN_POINT('',(36.3,152.3,51.8));
#545=CARTESIAN_POINT('',(31.95,152.3,51.8));
#546=CARTESIAN_POINT('',(13.5,201.3,51.8));
#547=CARTESIAN_POINT('',(9.,201.3,51.8));
#548=CARTESIAN_POINT('',(73.4,163.6,51.8));
#549=CARTESIAN_POINT('',(73.4,206.9,51.8));
#550=CARTESIAN_POINT('',(73.4,120.3,51.8));
#551=CARTESIAN_POINT('',(68.3,206.9,51.8));
#552=CARTESIAN_POINT('',(68.3,120.3,51.8));
#553=CARTESIAN_POINT('',(36.7,163.6,51.8));
#554=CARTESIAN_POINT('',(73.4,206.9,51.8));
#555=CARTESIAN_POINT('',(73.4,120.3,64.7));
#556=CARTESIAN_POINT('',(73.4,163.6,51.8));
#557=CARTESIAN_POINT('',(68.3,206.9,51.8));
#558=CARTESIAN_POINT('',(68.3,120.3,51.8));
#559=CARTESIAN_POINT('',(13.5,201.3,64.75));
#560=CARTESIAN_POINT('',(187.4,13.5,64.75));
#561=CARTESIAN_POINT('',(36.3,152.3,30.5));
#562=CARTESIAN_POINT('',(40.65,152.3,30.5));
#563=CARTESIAN_POINT('',(36.3,152.3,64.75));
#564=CARTESIAN_POINT('',(36.3,152.3,30.5));
#565=CARTESIAN_POINT('',(47.2,283.4,36.2));
#566=CARTESIAN_POINT('',(54.55,283.4,36.2));
#567=CARTESIAN_POINT('',(47.2,283.4,36.2));
#568=CARTESIAN_POINT('',(47.2,283.4,64.75));
#569=MECHANICAL_DESIGN_GEOMETRIC_PRESENTATION_REPRESENTATION('',(#24),#570);
#570=(
GEOMETRIC_REPRESENTATION_CONTEXT(3)
GLOBAL_UNCERTAINTY_ASSIGNED_CONTEXT((#571))
GLOBAL_UNIT_ASSIGNED_CONTEXT((#577,#573,#572))
REPRESENTATION_CONTEXT('featured_part_10007','TOP_LEVEL_ASSEMBLY_PART')
);
#571=UNCERTAINTY_MEASURE_WITH_UNIT(LENGTH_MEASURE(2.E-5),#577,
'DISTANCE_ACCURACY_VALUE','Maximum Tolerance applied to model');
#572=(
NAMED_UNIT(*)
SI_UNIT($,.STERADIAN.)
SOLID_ANGLE_UNIT()
);
#573=(
CONVERSION_BASED_UNIT('DEGREE',#575)
NAMED_UNIT(#574)
PLANE_ANGLE_UNIT()
);
#574=DIMENSIONAL_EXPONENTS(0.,0.,0.,0.,0.,0.,0.);
#575=PLANE_ANGLE_MEASURE_WITH_UNIT(PLANE_ANGLE_MEASURE(0.0174532925),#576);
#576=(
NAMED_UNIT(*)
PLANE_ANGLE_UNIT()
SI_UNIT($,.RADIAN.)
);
#577=(
LENGTH_UNIT()
NAMED_UNIT(*)
SI_UNIT(.MILLI.,.METRE.)
);
ENDSEC;
END-ISO-10303-21;
