ISO-10303-21;
HEADER;
/* Generated by software containing ST-Developer
 * from STEP Tools, Inc. (www.steptools.com) 
 */
/* OPTION: using custom schema-name function */

FILE_DESCRIPTION(
/* description */ (''),
/* implementation_level */ '2;1');

FILE_NAME(
/* name */ 'featured_part_03440.stp',
/* time_stamp */ '2026-07-13T19:18:28-04:00',
/* author */ (''),
/* organization */ (''),
/* preprocessor_version */ 'ST-DEVELOPER v20.1',
/* originating_system */ 'SIEMENS PLM Software NX2512.6002',
/* authorisation */ '');

FILE_SCHEMA (('AUTOMOTIVE_DESIGN { 1 0 10303 214 3 1 1 1 }'));
ENDSEC;

DATA;
#10=SHAPE_REPRESENTATION_RELATIONSHIP('None',
'relationship between featured_part_03440-None and featured_part_03440
-None',#22,#11);
#11=ADVANCED_BREP_SHAPE_REPRESENTATION('featured_part_03440-None',(#32),
#353);
#12=SHAPE_DEFINITION_REPRESENTATION(#13,#22);
#13=PRODUCT_DEFINITION_SHAPE('','',#14);
#14=PRODUCT_DEFINITION(' ','',#16,#15);
#15=PRODUCT_DEFINITION_CONTEXT('part definition',#21,'design');
#16=PRODUCT_DEFINITION_FORMATION_WITH_SPECIFIED_SOURCE(' ',' ',#18,
 .NOT_KNOWN.);
#17=PRODUCT_RELATED_PRODUCT_CATEGORY('part','',(#18));
#18=PRODUCT('featured_part_03440','featured_part_03440',' ',(#19));
#19=PRODUCT_CONTEXT(' ',#21,'mechanical');
#20=APPLICATION_PROTOCOL_DEFINITION('international standard',
'automotive_design',2010,#21);
#21=APPLICATION_CONTEXT(
'core data for automotive mechanical design processes');
#22=SHAPE_REPRESENTATION('featured_part_03440-None',(#230),#353);
#23=PRESENTATION_LAYER_ASSIGNMENT('1','Layer 1',(#32));
#24=STYLED_ITEM('',(#25),#32);
#25=PRESENTATION_STYLE_ASSIGNMENT((#26));
#26=SURFACE_STYLE_USAGE(.BOTH.,#27);
#27=SURFACE_SIDE_STYLE('',(#28));
#28=SURFACE_STYLE_FILL_AREA(#29);
#29=FILL_AREA_STYLE('',(#30));
#30=FILL_AREA_STYLE_COLOUR('',#31);
#31=COLOUR_RGB('medium steel',0.611764705882353,0.658823529411765,0.670588235294118);
#32=MANIFOLD_SOLID_BREP('',#33);
#33=CLOSED_SHELL('',(#43,#44,#45,#46,#47,#48,#49,#50,#51,#52,#53));
#34=CYLINDRICAL_SURFACE('',#243,8.8);
#35=FACE_OUTER_BOUND('',#120,.T.);
#36=FACE_OUTER_BOUND('',#121,.T.);
#37=FACE_OUTER_BOUND('',#122,.T.);
#38=FACE_OUTER_BOUND('',#125,.T.);
#39=FACE_OUTER_BOUND('',#126,.T.);
#40=FACE_OUTER_BOUND('',#127,.T.);
#41=FACE_OUTER_BOUND('',#128,.T.);
#42=FACE_OUTER_BOUND('',#129,.T.);
#43=ADVANCED_FACE('',(#112,#113),#54,.T.);
#44=ADVANCED_FACE('',(#35),#55,.T.);
#45=ADVANCED_FACE('',(#36),#56,.T.);
#46=ADVANCED_FACE('',(#37),#57,.T.);
#47=ADVANCED_FACE('',(#114,#115),#58,.T.);
#48=ADVANCED_FACE('',(#38),#59,.T.);
#49=ADVANCED_FACE('',(#39),#60,.F.);
#50=ADVANCED_FACE('',(#40),#61,.F.);
#51=ADVANCED_FACE('',(#41),#62,.F.);
#52=ADVANCED_FACE('',(#42),#63,.F.);
#53=ADVANCED_FACE('',(#116,#117),#34,.F.);
#54=PLANE('',#232);
#55=PLANE('',#233);
#56=PLANE('',#234);
#57=PLANE('',#235);
#58=PLANE('',#237);
#59=PLANE('',#238);
#60=PLANE('',#239);
#61=PLANE('',#240);
#62=PLANE('',#241);
#63=PLANE('',#242);
#64=LINE('',#299,#88);
#65=LINE('',#302,#89);
#66=LINE('',#304,#90);
#67=LINE('',#306,#91);
#68=LINE('',#308,#92);
#69=LINE('',#311,#93);
#70=LINE('',#313,#94);
#71=LINE('',#315,#95);
#72=LINE('',#317,#96);
#73=LINE('',#319,#97);
#74=LINE('',#321,#98);
#75=LINE('',#323,#99);
#76=LINE('',#325,#100);
#77=LINE('',#327,#101);
#78=LINE('',#329,#102);
#79=LINE('',#331,#103);
#80=LINE('',#335,#104);
#81=LINE('',#337,#105);
#82=LINE('',#339,#106);
#83=LINE('',#341,#107);
#84=LINE('',#343,#108);
#85=LINE('',#344,#109);
#86=LINE('',#346,#110);
#87=LINE('',#348,#111);
#88=VECTOR('',#248,1.);
#89=VECTOR('',#249,1.);
#90=VECTOR('',#250,1.);
#91=VECTOR('',#251,1.);
#92=VECTOR('',#254,1.);
#93=VECTOR('',#255,1.);
#94=VECTOR('',#256,1.);
#95=VECTOR('',#257,1.);
#96=VECTOR('',#258,1.);
#97=VECTOR('',#261,1.);
#98=VECTOR('',#262,1.);
#99=VECTOR('',#263,1.);
#100=VECTOR('',#264,1.);
#101=VECTOR('',#267,1.);
#102=VECTOR('',#268,1.);
#103=VECTOR('',#269,1.);
#104=VECTOR('',#274,1.);
#105=VECTOR('',#277,1.);
#106=VECTOR('',#278,1.);
#107=VECTOR('',#279,1.);
#108=VECTOR('',#282,1.);
#109=VECTOR('',#283,1.);
#110=VECTOR('',#286,1.);
#111=VECTOR('',#289,1.);
#112=FACE_BOUND('',#118,.T.);
#113=FACE_BOUND('',#119,.T.);
#114=FACE_BOUND('',#123,.T.);
#115=FACE_BOUND('',#124,.T.);
#116=FACE_BOUND('',#130,.T.);
#117=FACE_BOUND('',#131,.T.);
#118=EDGE_LOOP('',(#132));
#119=EDGE_LOOP('',(#133,#134,#135,#136));
#120=EDGE_LOOP('',(#137,#138,#139,#140,#141));
#121=EDGE_LOOP('',(#142,#143,#144,#145,#146));
#122=EDGE_LOOP('',(#147,#148,#149,#150));
#123=EDGE_LOOP('',(#151));
#124=EDGE_LOOP('',(#152,#153,#154,#155));
#125=EDGE_LOOP('',(#156,#157,#158,#159,#160,#161));
#126=EDGE_LOOP('',(#162,#163,#164,#165,#166));
#127=EDGE_LOOP('',(#167,#168,#169,#170));
#128=EDGE_LOOP('',(#171,#172,#173,#174,#175));
#129=EDGE_LOOP('',(#176,#177,#178,#179,#180,#181));
#130=EDGE_LOOP('',(#182));
#131=EDGE_LOOP('',(#183));
#132=ORIENTED_EDGE('',*,*,#202,.F.);
#133=ORIENTED_EDGE('',*,*,#203,.T.);
#134=ORIENTED_EDGE('',*,*,#204,.T.);
#135=ORIENTED_EDGE('',*,*,#205,.T.);
#136=ORIENTED_EDGE('',*,*,#206,.T.);
#137=ORIENTED_EDGE('',*,*,#207,.T.);
#138=ORIENTED_EDGE('',*,*,#208,.T.);
#139=ORIENTED_EDGE('',*,*,#209,.F.);
#140=ORIENTED_EDGE('',*,*,#210,.T.);
#141=ORIENTED_EDGE('',*,*,#211,.T.);
#142=ORIENTED_EDGE('',*,*,#212,.T.);
#143=ORIENTED_EDGE('',*,*,#213,.T.);
#144=ORIENTED_EDGE('',*,*,#214,.F.);
#145=ORIENTED_EDGE('',*,*,#215,.T.);
#146=ORIENTED_EDGE('',*,*,#209,.T.);
#147=ORIENTED_EDGE('',*,*,#214,.T.);
#148=ORIENTED_EDGE('',*,*,#216,.T.);
#149=ORIENTED_EDGE('',*,*,#217,.F.);
#150=ORIENTED_EDGE('',*,*,#218,.T.);
#151=ORIENTED_EDGE('',*,*,#219,.F.);
#152=ORIENTED_EDGE('',*,*,#220,.F.);
#153=ORIENTED_EDGE('',*,*,#210,.F.);
#154=ORIENTED_EDGE('',*,*,#215,.F.);
#155=ORIENTED_EDGE('',*,*,#218,.F.);
#156=ORIENTED_EDGE('',*,*,#217,.T.);
#157=ORIENTED_EDGE('',*,*,#221,.T.);
#158=ORIENTED_EDGE('',*,*,#222,.T.);
#159=ORIENTED_EDGE('',*,*,#223,.T.);
#160=ORIENTED_EDGE('',*,*,#211,.F.);
#161=ORIENTED_EDGE('',*,*,#220,.T.);
#162=ORIENTED_EDGE('',*,*,#206,.F.);
#163=ORIENTED_EDGE('',*,*,#224,.T.);
#164=ORIENTED_EDGE('',*,*,#207,.F.);
#165=ORIENTED_EDGE('',*,*,#223,.F.);
#166=ORIENTED_EDGE('',*,*,#225,.T.);
#167=ORIENTED_EDGE('',*,*,#222,.F.);
#168=ORIENTED_EDGE('',*,*,#226,.T.);
#169=ORIENTED_EDGE('',*,*,#203,.F.);
#170=ORIENTED_EDGE('',*,*,#225,.F.);
#171=ORIENTED_EDGE('',*,*,#205,.F.);
#172=ORIENTED_EDGE('',*,*,#227,.T.);
#173=ORIENTED_EDGE('',*,*,#212,.F.);
#174=ORIENTED_EDGE('',*,*,#208,.F.);
#175=ORIENTED_EDGE('',*,*,#224,.F.);
#176=ORIENTED_EDGE('',*,*,#227,.F.);
#177=ORIENTED_EDGE('',*,*,#204,.F.);
#178=ORIENTED_EDGE('',*,*,#226,.F.);
#179=ORIENTED_EDGE('',*,*,#221,.F.);
#180=ORIENTED_EDGE('',*,*,#216,.F.);
#181=ORIENTED_EDGE('',*,*,#213,.F.);
#182=ORIENTED_EDGE('',*,*,#202,.T.);
#183=ORIENTED_EDGE('',*,*,#219,.T.);
#184=VERTEX_POINT('',#298);
#185=VERTEX_POINT('',#300);
#186=VERTEX_POINT('',#301);
#187=VERTEX_POINT('',#303);
#188=VERTEX_POINT('',#305);
#189=VERTEX_POINT('',#309);
#190=VERTEX_POINT('',#310);
#191=VERTEX_POINT('',#312);
#192=VERTEX_POINT('',#314);
#193=VERTEX_POINT('',#316);
#194=VERTEX_POINT('',#320);
#195=VERTEX_POINT('',#322);
#196=VERTEX_POINT('',#324);
#197=VERTEX_POINT('',#328);
#198=VERTEX_POINT('',#330);
#199=VERTEX_POINT('',#334);
#200=VERTEX_POINT('',#338);
#201=VERTEX_POINT('',#340);
#202=EDGE_CURVE('',#184,#184,#228,.T.);
#203=EDGE_CURVE('',#185,#186,#64,.T.);
#204=EDGE_CURVE('',#186,#187,#65,.T.);
#205=EDGE_CURVE('',#187,#188,#66,.T.);
#206=EDGE_CURVE('',#188,#185,#67,.T.);
#207=EDGE_CURVE('',#189,#190,#68,.T.);
#208=EDGE_CURVE('',#190,#191,#69,.T.);
#209=EDGE_CURVE('',#192,#191,#70,.T.);
#210=EDGE_CURVE('',#192,#193,#71,.T.);
#211=EDGE_CURVE('',#193,#189,#72,.T.);
#212=EDGE_CURVE('',#191,#194,#73,.T.);
#213=EDGE_CURVE('',#194,#195,#74,.T.);
#214=EDGE_CURVE('',#196,#195,#75,.T.);
#215=EDGE_CURVE('',#196,#192,#76,.T.);
#216=EDGE_CURVE('',#195,#197,#77,.T.);
#217=EDGE_CURVE('',#198,#197,#78,.T.);
#218=EDGE_CURVE('',#198,#196,#79,.T.);
#219=EDGE_CURVE('',#199,#199,#229,.T.);
#220=EDGE_CURVE('',#193,#198,#80,.T.);
#221=EDGE_CURVE('',#197,#200,#81,.T.);
#222=EDGE_CURVE('',#200,#201,#82,.T.);
#223=EDGE_CURVE('',#201,#189,#83,.T.);
#224=EDGE_CURVE('',#188,#190,#84,.T.);
#225=EDGE_CURVE('',#201,#185,#85,.T.);
#226=EDGE_CURVE('',#200,#186,#86,.T.);
#227=EDGE_CURVE('',#187,#194,#87,.T.);
#228=CIRCLE('',#231,8.8);
#229=CIRCLE('',#236,8.8);
#230=AXIS2_PLACEMENT_3D('',#296,#244,#245);
#231=AXIS2_PLACEMENT_3D('',#297,#246,#247);
#232=AXIS2_PLACEMENT_3D('',#307,#252,#253);
#233=AXIS2_PLACEMENT_3D('',#318,#259,#260);
#234=AXIS2_PLACEMENT_3D('',#326,#265,#266);
#235=AXIS2_PLACEMENT_3D('',#332,#270,#271);
#236=AXIS2_PLACEMENT_3D('',#333,#272,#273);
#237=AXIS2_PLACEMENT_3D('',#336,#275,#276);
#238=AXIS2_PLACEMENT_3D('',#342,#280,#281);
#239=AXIS2_PLACEMENT_3D('',#345,#284,#285);
#240=AXIS2_PLACEMENT_3D('',#347,#287,#288);
#241=AXIS2_PLACEMENT_3D('',#349,#290,#291);
#242=AXIS2_PLACEMENT_3D('',#350,#292,#293);
#243=AXIS2_PLACEMENT_3D('',#351,#294,#295);
#244=DIRECTION('',(0.,0.,1.));
#245=DIRECTION('',(1.,0.,0.));
#246=DIRECTION('',(0.,0.,1.));
#247=DIRECTION('',(1.,0.,0.));
#248=DIRECTION('',(0.,1.,0.));
#249=DIRECTION('',(-1.,0.,0.));
#250=DIRECTION('',(0.,-1.,0.));
#251=DIRECTION('',(1.,0.,0.));
#252=DIRECTION('',(0.,0.,1.));
#253=DIRECTION('',(1.,0.,0.));
#254=DIRECTION('',(-1.,0.,0.));
#255=DIRECTION('',(-0.707106781186548,0.,-0.707106781186548));
#256=DIRECTION('',(0.,0.,1.));
#257=DIRECTION('',(1.,0.,0.));
#258=DIRECTION('',(0.,0.,1.));
#259=DIRECTION('',(0.,-1.,0.));
#260=DIRECTION('',(0.,0.,-1.));
#261=DIRECTION('',(0.,1.,0.));
#262=DIRECTION('',(0.,0.707106781186547,-0.707106781186548));
#263=DIRECTION('',(0.,0.,1.));
#264=DIRECTION('',(0.,-1.,0.));
#265=DIRECTION('',(-1.,0.,0.));
#266=DIRECTION('',(0.,0.,1.));
#267=DIRECTION('',(1.,0.,0.));
#268=DIRECTION('',(0.,0.,1.));
#269=DIRECTION('',(-1.,0.,0.));
#270=DIRECTION('',(0.,1.,0.));
#271=DIRECTION('',(0.,0.,1.));
#272=DIRECTION('',(0.,0.,-1.));
#273=DIRECTION('',(-1.,0.,0.));
#274=DIRECTION('',(0.,1.,0.));
#275=DIRECTION('',(0.,0.,-1.));
#276=DIRECTION('',(-1.,0.,0.));
#277=DIRECTION('',(0.,-0.707106781186547,0.707106781186548));
#278=DIRECTION('',(0.,-1.,0.));
#279=DIRECTION('',(0.,-0.707106781186548,-0.707106781186548));
#280=DIRECTION('',(1.,0.,0.));
#281=DIRECTION('',(0.,0.,-1.));
#282=DIRECTION('',(-0.577350269189626,-0.577350269189626,-0.577350269189626));
#283=DIRECTION('',(-0.577350269189625,0.577350269189626,0.577350269189626));
#284=DIRECTION('',(0.,0.707106781186547,-0.707106781186547));
#285=DIRECTION('',(-1.,0.,0.));
#286=DIRECTION('',(-0.577350269189625,-0.577350269189626,0.577350269189626));
#287=DIRECTION('',(-0.707106781186549,0.,-0.707106781186546));
#288=DIRECTION('',(0.,-1.,0.));
#289=DIRECTION('',(-0.577350269189626,0.577350269189626,-0.577350269189626));
#290=DIRECTION('',(0.707106781186547,0.,-0.707106781186547));
#291=DIRECTION('',(0.,1.,0.));
#292=DIRECTION('',(0.,-0.707106781186548,-0.707106781186547));
#293=DIRECTION('',(1.,0.,0.));
#294=DIRECTION('',(0.,0.,-1.));
#295=DIRECTION('',(1.,0.,0.));
#296=CARTESIAN_POINT('',(0.,0.,0.));
#297=CARTESIAN_POINT('',(128.1,168.2,111.2));
#298=CARTESIAN_POINT('',(136.9,168.2,111.2));
#299=CARTESIAN_POINT('',(251.4,168.2,111.2));
#300=CARTESIAN_POINT('',(251.4,10.6,111.2));
#301=CARTESIAN_POINT('',(251.4,317.7,111.2));
#302=CARTESIAN_POINT('',(128.05,317.7,111.2));
#303=CARTESIAN_POINT('',(12.6,317.7,111.2));
#304=CARTESIAN_POINT('',(12.6,168.2,111.2));
#305=CARTESIAN_POINT('',(12.6,10.6,111.2));
#306=CARTESIAN_POINT('',(128.05,10.6,111.2));
#307=CARTESIAN_POINT('',(128.05,168.2,111.2));
#308=CARTESIAN_POINT('',(128.05,0.,100.6));
#309=CARTESIAN_POINT('',(256.1,0.,100.6));
#310=CARTESIAN_POINT('',(2.,0.,100.6));
#311=CARTESIAN_POINT('',(14.725,0.,113.325));
#312=CARTESIAN_POINT('',(0.,0.,98.6));
#313=CARTESIAN_POINT('',(0.,0.,0.));
#314=CARTESIAN_POINT('',(0.,0.,0.));
#315=CARTESIAN_POINT('',(128.05,0.,0.));
#316=CARTESIAN_POINT('',(256.1,0.,0.));
#317=CARTESIAN_POINT('',(256.1,0.,0.));
#318=CARTESIAN_POINT('',(128.05,0.,0.));
#319=CARTESIAN_POINT('',(0.,168.2,98.6));
#320=CARTESIAN_POINT('',(0.,330.3,98.6));
#321=CARTESIAN_POINT('',(0.,298.55,130.35));
#322=CARTESIAN_POINT('',(0.,336.4,92.5));
#323=CARTESIAN_POINT('',(0.,336.4,0.));
#324=CARTESIAN_POINT('',(0.,336.4,0.));
#325=CARTESIAN_POINT('',(0.,168.2,0.));
#326=CARTESIAN_POINT('',(0.,168.2,0.));
#327=CARTESIAN_POINT('',(128.05,336.4,92.5));
#328=CARTESIAN_POINT('',(256.1,336.4,92.5));
#329=CARTESIAN_POINT('',(256.1,336.4,0.));
#330=CARTESIAN_POINT('',(256.1,336.4,0.));
#331=CARTESIAN_POINT('',(128.05,336.4,0.));
#332=CARTESIAN_POINT('',(128.05,336.4,0.));
#333=CARTESIAN_POINT('',(128.1,168.2,0.));
#334=CARTESIAN_POINT('',(119.3,168.2,0.));
#335=CARTESIAN_POINT('',(256.1,168.2,0.));
#336=CARTESIAN_POINT('',(128.05,168.2,0.));
#337=CARTESIAN_POINT('',(256.1,298.55,130.35));
#338=CARTESIAN_POINT('',(256.1,322.4,106.5));
#339=CARTESIAN_POINT('',(256.1,168.2,106.5));
#340=CARTESIAN_POINT('',(256.1,5.90000000000001,106.5));
#341=CARTESIAN_POINT('',(256.1,33.8,134.4));
#342=CARTESIAN_POINT('',(256.1,168.2,0.));
#343=CARTESIAN_POINT('',(44.0166666666667,42.0166666666667,142.616666666667));
#344=CARTESIAN_POINT('',(217.35,44.65,145.25));
#345=CARTESIAN_POINT('',(128.05,0.,100.6));
#346=CARTESIAN_POINT('',(204.7,271.,157.9));
#347=CARTESIAN_POINT('',(256.1,168.2,106.5));
#348=CARTESIAN_POINT('',(54.0333333333333,276.266666666667,152.633333333333));
#349=CARTESIAN_POINT('',(0.,168.2,98.6));
#350=CARTESIAN_POINT('',(128.05,336.4,92.5));
#351=CARTESIAN_POINT('',(128.1,168.2,111.25));
#352=MECHANICAL_DESIGN_GEOMETRIC_PRESENTATION_REPRESENTATION('',(#24),#353);
#353=(
GEOMETRIC_REPRESENTATION_CONTEXT(3)
GLOBAL_UNCERTAINTY_ASSIGNED_CONTEXT((#354))
GLOBAL_UNIT_ASSIGNED_CONTEXT((#360,#356,#355))
REPRESENTATION_CONTEXT('featured_part_03440','TOP_LEVEL_ASSEMBLY_PART')
);
#354=UNCERTAINTY_MEASURE_WITH_UNIT(LENGTH_MEASURE(2.E-5),#360,
'DISTANCE_ACCURACY_VALUE','Maximum Tolerance applied to model');
#355=(
NAMED_UNIT(*)
SI_UNIT($,.STERADIAN.)
SOLID_ANGLE_UNIT()
);
#356=(
CONVERSION_BASED_UNIT('DEGREE',#358)
NAMED_UNIT(#357)
PLANE_ANGLE_UNIT()
);
#357=DIMENSIONAL_EXPONENTS(0.,0.,0.,0.,0.,0.,0.);
#358=PLANE_ANGLE_MEASURE_WITH_UNIT(PLANE_ANGLE_MEASURE(0.0174532925),#359);
#359=(
NAMED_UNIT(*)
PLANE_ANGLE_UNIT()
SI_UNIT($,.RADIAN.)
);
#360=(
LENGTH_UNIT()
NAMED_UNIT(*)
SI_UNIT(.MILLI.,.METRE.)
);
ENDSEC;
END-ISO-10303-21;
