ISO-10303-21;
HEADER;
/* Generated by software containing ST-Developer
 * from STEP Tools, Inc. (www.steptools.com) 
 */
/* OPTION: using custom schema-name function */

FILE_DESCRIPTION(
/* description */ (''),
/* implementation_level */ '2;1');

FILE_NAME(
/* name */ 'featured_part_00715.stp',
/* time_stamp */ '2026-07-01T15:09:25-04:00',
/* author */ (''),
/* organization */ (''),
/* preprocessor_version */ 'ST-DEVELOPER v20.1',
/* originating_system */ 'SIEMENS PLM Software NX2512.6002',
/* authorisation */ '');

FILE_SCHEMA (('AUTOMOTIVE_DESIGN { 1 0 10303 214 3 1 1 1 }'));
ENDSEC;

DATA;
#10=SHAPE_REPRESENTATION_RELATIONSHIP('None',
'relationship between featured_part_00715-None and featured_part_00715
-None',#22,#11);
#11=ADVANCED_BREP_SHAPE_REPRESENTATION('featured_part_00715-None',(#32),
#951);
#12=SHAPE_DEFINITION_REPRESENTATION(#13,#22);
#13=PRODUCT_DEFINITION_SHAPE('','',#14);
#14=PRODUCT_DEFINITION(' ','',#16,#15);
#15=PRODUCT_DEFINITION_CONTEXT('part definition',#21,'design');
#16=PRODUCT_DEFINITION_FORMATION_WITH_SPECIFIED_SOURCE(' ',' ',#18,
 .NOT_KNOWN.);
#17=PRODUCT_RELATED_PRODUCT_CATEGORY('part','',(#18));
#18=PRODUCT('featured_part_00715','featured_part_00715',' ',(#19));
#19=PRODUCT_CONTEXT(' ',#21,'mechanical');
#20=APPLICATION_PROTOCOL_DEFINITION('international standard',
'automotive_design',2010,#21);
#21=APPLICATION_CONTEXT(
'core data for automotive mechanical design processes');
#22=SHAPE_REPRESENTATION('featured_part_00715-None',(#582),#951);
#23=PRESENTATION_LAYER_ASSIGNMENT('1','Layer 1',(#32));
#24=STYLED_ITEM('',(#25),#32);
#25=PRESENTATION_STYLE_ASSIGNMENT((#26));
#26=SURFACE_STYLE_USAGE(.BOTH.,#27);
#27=SURFACE_SIDE_STYLE('',(#28));
#28=SURFACE_STYLE_FILL_AREA(#29);
#29=FILL_AREA_STYLE('',(#30));
#30=FILL_AREA_STYLE_COLOUR('',#31);
#31=COLOUR_RGB('medium steel',0.611764705882353,0.658823529411765,0.670588235294118);
#32=MANIFOLD_SOLID_BREP('',#33);
#33=CLOSED_SHELL('',(#71,#72,#73,#74,#75,#76,#77,#78,#79,#80,#81,#82,#83,
#84,#85,#86,#87,#88,#89,#90,#91,#92,#93,#94,#95,#96,#97,#98,#99,#100));
#34=CYLINDRICAL_SURFACE('',#605,3.6);
#35=CYLINDRICAL_SURFACE('',#606,3.6);
#36=CYLINDRICAL_SURFACE('',#607,3.6);
#37=CYLINDRICAL_SURFACE('',#608,3.6);
#38=CYLINDRICAL_SURFACE('',#617,5.3);
#39=CYLINDRICAL_SURFACE('',#627,14.4);
#40=CYLINDRICAL_SURFACE('',#628,14.4);
#41=CYLINDRICAL_SURFACE('',#629,14.4);
#42=CYLINDRICAL_SURFACE('',#630,14.4);
#43=FACE_OUTER_BOUND('',#128,.T.);
#44=FACE_OUTER_BOUND('',#129,.T.);
#45=FACE_OUTER_BOUND('',#130,.T.);
#46=FACE_OUTER_BOUND('',#131,.T.);
#47=FACE_OUTER_BOUND('',#132,.T.);
#48=FACE_OUTER_BOUND('',#133,.T.);
#49=FACE_OUTER_BOUND('',#134,.T.);
#50=FACE_OUTER_BOUND('',#135,.T.);
#51=FACE_OUTER_BOUND('',#136,.T.);
#52=FACE_OUTER_BOUND('',#137,.T.);
#53=FACE_OUTER_BOUND('',#138,.T.);
#54=FACE_OUTER_BOUND('',#139,.T.);
#55=FACE_OUTER_BOUND('',#140,.T.);
#56=FACE_OUTER_BOUND('',#141,.T.);
#57=FACE_OUTER_BOUND('',#142,.T.);
#58=FACE_OUTER_BOUND('',#143,.T.);
#59=FACE_OUTER_BOUND('',#144,.T.);
#60=FACE_OUTER_BOUND('',#147,.T.);
#61=FACE_OUTER_BOUND('',#148,.T.);
#62=FACE_OUTER_BOUND('',#149,.T.);
#63=FACE_OUTER_BOUND('',#150,.T.);
#64=FACE_OUTER_BOUND('',#151,.T.);
#65=FACE_OUTER_BOUND('',#152,.T.);
#66=FACE_OUTER_BOUND('',#153,.T.);
#67=FACE_OUTER_BOUND('',#154,.T.);
#68=FACE_OUTER_BOUND('',#155,.T.);
#69=FACE_OUTER_BOUND('',#156,.T.);
#70=FACE_OUTER_BOUND('',#157,.T.);
#71=ADVANCED_FACE('',(#122,#123),#101,.T.);
#72=ADVANCED_FACE('',(#43),#102,.T.);
#73=ADVANCED_FACE('',(#44),#103,.T.);
#74=ADVANCED_FACE('',(#45),#104,.T.);
#75=ADVANCED_FACE('',(#46),#105,.T.);
#76=ADVANCED_FACE('',(#47),#106,.T.);
#77=ADVANCED_FACE('',(#48),#107,.F.);
#78=ADVANCED_FACE('',(#49),#108,.F.);
#79=ADVANCED_FACE('',(#50),#109,.F.);
#80=ADVANCED_FACE('',(#51),#110,.F.);
#81=ADVANCED_FACE('',(#52),#111,.F.);
#82=ADVANCED_FACE('',(#53),#112,.F.);
#83=ADVANCED_FACE('',(#54),#113,.F.);
#84=ADVANCED_FACE('',(#55),#34,.F.);
#85=ADVANCED_FACE('',(#56),#35,.F.);
#86=ADVANCED_FACE('',(#57),#36,.F.);
#87=ADVANCED_FACE('',(#58),#37,.F.);
#88=ADVANCED_FACE('',(#59),#114,.F.);
#89=ADVANCED_FACE('',(#124,#125),#115,.F.);
#90=ADVANCED_FACE('',(#60),#116,.F.);
#91=ADVANCED_FACE('',(#61),#38,.F.);
#92=ADVANCED_FACE('',(#62),#117,.F.);
#93=ADVANCED_FACE('',(#63),#118,.F.);
#94=ADVANCED_FACE('',(#64),#119,.F.);
#95=ADVANCED_FACE('',(#65),#120,.F.);
#96=ADVANCED_FACE('',(#66),#121,.F.);
#97=ADVANCED_FACE('',(#67),#39,.F.);
#98=ADVANCED_FACE('',(#68),#40,.F.);
#99=ADVANCED_FACE('',(#69),#41,.F.);
#100=ADVANCED_FACE('',(#70),#42,.F.);
#101=PLANE('',#588);
#102=PLANE('',#589);
#103=PLANE('',#590);
#104=PLANE('',#591);
#105=PLANE('',#592);
#106=PLANE('',#593);
#107=PLANE('',#594);
#108=PLANE('',#595);
#109=PLANE('',#596);
#110=PLANE('',#597);
#111=PLANE('',#598);
#112=PLANE('',#603);
#113=PLANE('',#604);
#114=PLANE('',#609);
#115=PLANE('',#615);
#116=PLANE('',#616);
#117=PLANE('',#618);
#118=PLANE('',#619);
#119=PLANE('',#620);
#120=PLANE('',#621);
#121=PLANE('',#626);
#122=FACE_BOUND('',#126,.T.);
#123=FACE_BOUND('',#127,.T.);
#124=FACE_BOUND('',#145,.T.);
#125=FACE_BOUND('',#146,.T.);
#126=EDGE_LOOP('',(#176,#177,#178,#179,#180,#181,#182));
#127=EDGE_LOOP('',(#183,#184,#185,#186,#187,#188,#189,#190));
#128=EDGE_LOOP('',(#191,#192,#193,#194,#195,#196));
#129=EDGE_LOOP('',(#197,#198,#199,#200,#201,#202));
#130=EDGE_LOOP('',(#203,#204,#205,#206,#207,#208,#209));
#131=EDGE_LOOP('',(#210,#211,#212,#213));
#132=EDGE_LOOP('',(#214,#215,#216,#217));
#133=EDGE_LOOP('',(#218,#219,#220,#221));
#134=EDGE_LOOP('',(#222,#223,#224,#225));
#135=EDGE_LOOP('',(#226,#227,#228,#229));
#136=EDGE_LOOP('',(#230,#231,#232,#233));
#137=EDGE_LOOP('',(#234,#235,#236,#237));
#138=EDGE_LOOP('',(#238,#239,#240,#241,#242,#243,#244,#245));
#139=EDGE_LOOP('',(#246,#247,#248,#249));
#140=EDGE_LOOP('',(#250,#251,#252,#253));
#141=EDGE_LOOP('',(#254,#255,#256,#257));
#142=EDGE_LOOP('',(#258,#259,#260,#261));
#143=EDGE_LOOP('',(#262,#263,#264,#265));
#144=EDGE_LOOP('',(#266,#267,#268,#269,#270));
#145=EDGE_LOOP('',(#271,#272,#273,#274,#275,#276,#277,#278));
#146=EDGE_LOOP('',(#279,#280,#281,#282,#283));
#147=EDGE_LOOP('',(#284,#285,#286,#287));
#148=EDGE_LOOP('',(#288,#289,#290,#291));
#149=EDGE_LOOP('',(#292,#293,#294,#295));
#150=EDGE_LOOP('',(#296,#297,#298,#299));
#151=EDGE_LOOP('',(#300,#301,#302,#303));
#152=EDGE_LOOP('',(#304,#305,#306,#307));
#153=EDGE_LOOP('',(#308,#309,#310,#311,#312,#313,#314,#315));
#154=EDGE_LOOP('',(#316,#317,#318,#319));
#155=EDGE_LOOP('',(#320,#321,#322,#323));
#156=EDGE_LOOP('',(#324,#325,#326,#327));
#157=EDGE_LOOP('',(#328,#329,#330,#331));
#158=CIRCLE('',#583,5.3);
#159=CIRCLE('',#584,3.6);
#160=CIRCLE('',#585,3.6);
#161=CIRCLE('',#586,3.6);
#162=CIRCLE('',#587,3.6);
#163=CIRCLE('',#599,3.6);
#164=CIRCLE('',#600,3.6);
#165=CIRCLE('',#601,3.6);
#166=CIRCLE('',#602,3.6);
#167=CIRCLE('',#610,14.4);
#168=CIRCLE('',#611,14.4);
#169=CIRCLE('',#612,14.4);
#170=CIRCLE('',#613,14.4);
#171=CIRCLE('',#614,5.3);
#172=CIRCLE('',#622,14.4);
#173=CIRCLE('',#623,14.4);
#174=CIRCLE('',#624,14.4);
#175=CIRCLE('',#625,14.4);
#176=ORIENTED_EDGE('',*,*,#384,.F.);
#177=ORIENTED_EDGE('',*,*,#385,.T.);
#178=ORIENTED_EDGE('',*,*,#386,.F.);
#179=ORIENTED_EDGE('',*,*,#387,.T.);
#180=ORIENTED_EDGE('',*,*,#388,.F.);
#181=ORIENTED_EDGE('',*,*,#389,.F.);
#182=ORIENTED_EDGE('',*,*,#390,.T.);
#183=ORIENTED_EDGE('',*,*,#391,.F.);
#184=ORIENTED_EDGE('',*,*,#392,.T.);
#185=ORIENTED_EDGE('',*,*,#393,.F.);
#186=ORIENTED_EDGE('',*,*,#394,.T.);
#187=ORIENTED_EDGE('',*,*,#395,.F.);
#188=ORIENTED_EDGE('',*,*,#396,.T.);
#189=ORIENTED_EDGE('',*,*,#397,.F.);
#190=ORIENTED_EDGE('',*,*,#398,.T.);
#191=ORIENTED_EDGE('',*,*,#386,.T.);
#192=ORIENTED_EDGE('',*,*,#399,.T.);
#193=ORIENTED_EDGE('',*,*,#400,.F.);
#194=ORIENTED_EDGE('',*,*,#401,.T.);
#195=ORIENTED_EDGE('',*,*,#402,.T.);
#196=ORIENTED_EDGE('',*,*,#403,.T.);
#197=ORIENTED_EDGE('',*,*,#404,.F.);
#198=ORIENTED_EDGE('',*,*,#405,.F.);
#199=ORIENTED_EDGE('',*,*,#406,.F.);
#200=ORIENTED_EDGE('',*,*,#407,.T.);
#201=ORIENTED_EDGE('',*,*,#400,.T.);
#202=ORIENTED_EDGE('',*,*,#408,.T.);
#203=ORIENTED_EDGE('',*,*,#409,.F.);
#204=ORIENTED_EDGE('',*,*,#410,.T.);
#205=ORIENTED_EDGE('',*,*,#388,.T.);
#206=ORIENTED_EDGE('',*,*,#411,.T.);
#207=ORIENTED_EDGE('',*,*,#412,.F.);
#208=ORIENTED_EDGE('',*,*,#413,.T.);
#209=ORIENTED_EDGE('',*,*,#406,.T.);
#210=ORIENTED_EDGE('',*,*,#414,.F.);
#211=ORIENTED_EDGE('',*,*,#401,.F.);
#212=ORIENTED_EDGE('',*,*,#407,.F.);
#213=ORIENTED_EDGE('',*,*,#413,.F.);
#214=ORIENTED_EDGE('',*,*,#412,.T.);
#215=ORIENTED_EDGE('',*,*,#415,.T.);
#216=ORIENTED_EDGE('',*,*,#402,.F.);
#217=ORIENTED_EDGE('',*,*,#414,.T.);
#218=ORIENTED_EDGE('',*,*,#411,.F.);
#219=ORIENTED_EDGE('',*,*,#387,.F.);
#220=ORIENTED_EDGE('',*,*,#403,.F.);
#221=ORIENTED_EDGE('',*,*,#415,.F.);
#222=ORIENTED_EDGE('',*,*,#416,.F.);
#223=ORIENTED_EDGE('',*,*,#408,.F.);
#224=ORIENTED_EDGE('',*,*,#399,.F.);
#225=ORIENTED_EDGE('',*,*,#385,.F.);
#226=ORIENTED_EDGE('',*,*,#391,.T.);
#227=ORIENTED_EDGE('',*,*,#417,.T.);
#228=ORIENTED_EDGE('',*,*,#418,.T.);
#229=ORIENTED_EDGE('',*,*,#419,.T.);
#230=ORIENTED_EDGE('',*,*,#393,.T.);
#231=ORIENTED_EDGE('',*,*,#420,.T.);
#232=ORIENTED_EDGE('',*,*,#421,.T.);
#233=ORIENTED_EDGE('',*,*,#422,.T.);
#234=ORIENTED_EDGE('',*,*,#423,.T.);
#235=ORIENTED_EDGE('',*,*,#424,.T.);
#236=ORIENTED_EDGE('',*,*,#395,.T.);
#237=ORIENTED_EDGE('',*,*,#425,.T.);
#238=ORIENTED_EDGE('',*,*,#418,.F.);
#239=ORIENTED_EDGE('',*,*,#426,.T.);
#240=ORIENTED_EDGE('',*,*,#427,.F.);
#241=ORIENTED_EDGE('',*,*,#428,.T.);
#242=ORIENTED_EDGE('',*,*,#423,.F.);
#243=ORIENTED_EDGE('',*,*,#429,.T.);
#244=ORIENTED_EDGE('',*,*,#421,.F.);
#245=ORIENTED_EDGE('',*,*,#430,.T.);
#246=ORIENTED_EDGE('',*,*,#427,.T.);
#247=ORIENTED_EDGE('',*,*,#431,.T.);
#248=ORIENTED_EDGE('',*,*,#397,.T.);
#249=ORIENTED_EDGE('',*,*,#432,.T.);
#250=ORIENTED_EDGE('',*,*,#398,.F.);
#251=ORIENTED_EDGE('',*,*,#431,.F.);
#252=ORIENTED_EDGE('',*,*,#426,.F.);
#253=ORIENTED_EDGE('',*,*,#417,.F.);
#254=ORIENTED_EDGE('',*,*,#396,.F.);
#255=ORIENTED_EDGE('',*,*,#424,.F.);
#256=ORIENTED_EDGE('',*,*,#428,.F.);
#257=ORIENTED_EDGE('',*,*,#432,.F.);
#258=ORIENTED_EDGE('',*,*,#392,.F.);
#259=ORIENTED_EDGE('',*,*,#419,.F.);
#260=ORIENTED_EDGE('',*,*,#430,.F.);
#261=ORIENTED_EDGE('',*,*,#420,.F.);
#262=ORIENTED_EDGE('',*,*,#394,.F.);
#263=ORIENTED_EDGE('',*,*,#422,.F.);
#264=ORIENTED_EDGE('',*,*,#429,.F.);
#265=ORIENTED_EDGE('',*,*,#425,.F.);
#266=ORIENTED_EDGE('',*,*,#384,.T.);
#267=ORIENTED_EDGE('',*,*,#433,.T.);
#268=ORIENTED_EDGE('',*,*,#434,.T.);
#269=ORIENTED_EDGE('',*,*,#404,.T.);
#270=ORIENTED_EDGE('',*,*,#416,.T.);
#271=ORIENTED_EDGE('',*,*,#435,.T.);
#272=ORIENTED_EDGE('',*,*,#436,.T.);
#273=ORIENTED_EDGE('',*,*,#437,.T.);
#274=ORIENTED_EDGE('',*,*,#438,.T.);
#275=ORIENTED_EDGE('',*,*,#439,.T.);
#276=ORIENTED_EDGE('',*,*,#440,.T.);
#277=ORIENTED_EDGE('',*,*,#441,.T.);
#278=ORIENTED_EDGE('',*,*,#442,.T.);
#279=ORIENTED_EDGE('',*,*,#434,.F.);
#280=ORIENTED_EDGE('',*,*,#443,.T.);
#281=ORIENTED_EDGE('',*,*,#444,.F.);
#282=ORIENTED_EDGE('',*,*,#409,.T.);
#283=ORIENTED_EDGE('',*,*,#405,.T.);
#284=ORIENTED_EDGE('',*,*,#444,.T.);
#285=ORIENTED_EDGE('',*,*,#445,.T.);
#286=ORIENTED_EDGE('',*,*,#389,.T.);
#287=ORIENTED_EDGE('',*,*,#410,.F.);
#288=ORIENTED_EDGE('',*,*,#390,.F.);
#289=ORIENTED_EDGE('',*,*,#445,.F.);
#290=ORIENTED_EDGE('',*,*,#443,.F.);
#291=ORIENTED_EDGE('',*,*,#433,.F.);
#292=ORIENTED_EDGE('',*,*,#446,.T.);
#293=ORIENTED_EDGE('',*,*,#447,.T.);
#294=ORIENTED_EDGE('',*,*,#439,.F.);
#295=ORIENTED_EDGE('',*,*,#448,.T.);
#296=ORIENTED_EDGE('',*,*,#441,.F.);
#297=ORIENTED_EDGE('',*,*,#449,.T.);
#298=ORIENTED_EDGE('',*,*,#450,.T.);
#299=ORIENTED_EDGE('',*,*,#451,.T.);
#300=ORIENTED_EDGE('',*,*,#452,.T.);
#301=ORIENTED_EDGE('',*,*,#453,.T.);
#302=ORIENTED_EDGE('',*,*,#435,.F.);
#303=ORIENTED_EDGE('',*,*,#454,.T.);
#304=ORIENTED_EDGE('',*,*,#455,.T.);
#305=ORIENTED_EDGE('',*,*,#456,.T.);
#306=ORIENTED_EDGE('',*,*,#437,.F.);
#307=ORIENTED_EDGE('',*,*,#457,.T.);
#308=ORIENTED_EDGE('',*,*,#450,.F.);
#309=ORIENTED_EDGE('',*,*,#458,.T.);
#310=ORIENTED_EDGE('',*,*,#446,.F.);
#311=ORIENTED_EDGE('',*,*,#459,.T.);
#312=ORIENTED_EDGE('',*,*,#455,.F.);
#313=ORIENTED_EDGE('',*,*,#460,.T.);
#314=ORIENTED_EDGE('',*,*,#452,.F.);
#315=ORIENTED_EDGE('',*,*,#461,.T.);
#316=ORIENTED_EDGE('',*,*,#440,.F.);
#317=ORIENTED_EDGE('',*,*,#447,.F.);
#318=ORIENTED_EDGE('',*,*,#458,.F.);
#319=ORIENTED_EDGE('',*,*,#449,.F.);
#320=ORIENTED_EDGE('',*,*,#438,.F.);
#321=ORIENTED_EDGE('',*,*,#456,.F.);
#322=ORIENTED_EDGE('',*,*,#459,.F.);
#323=ORIENTED_EDGE('',*,*,#448,.F.);
#324=ORIENTED_EDGE('',*,*,#436,.F.);
#325=ORIENTED_EDGE('',*,*,#453,.F.);
#326=ORIENTED_EDGE('',*,*,#460,.F.);
#327=ORIENTED_EDGE('',*,*,#457,.F.);
#328=ORIENTED_EDGE('',*,*,#442,.F.);
#329=ORIENTED_EDGE('',*,*,#451,.F.);
#330=ORIENTED_EDGE('',*,*,#461,.F.);
#331=ORIENTED_EDGE('',*,*,#454,.F.);
#332=VERTEX_POINT('',#791);
#333=VERTEX_POINT('',#792);
#334=VERTEX_POINT('',#794);
#335=VERTEX_POINT('',#796);
#336=VERTEX_POINT('',#798);
#337=VERTEX_POINT('',#800);
#338=VERTEX_POINT('',#802);
#339=VERTEX_POINT('',#805);
#340=VERTEX_POINT('',#806);
#341=VERTEX_POINT('',#808);
#342=VERTEX_POINT('',#810);
#343=VERTEX_POINT('',#812);
#344=VERTEX_POINT('',#814);
#345=VERTEX_POINT('',#816);
#346=VERTEX_POINT('',#818);
#347=VERTEX_POINT('',#822);
#348=VERTEX_POINT('',#824);
#349=VERTEX_POINT('',#826);
#350=VERTEX_POINT('',#828);
#351=VERTEX_POINT('',#832);
#352=VERTEX_POINT('',#833);
#353=VERTEX_POINT('',#835);
#354=VERTEX_POINT('',#837);
#355=VERTEX_POINT('',#842);
#356=VERTEX_POINT('',#845);
#357=VERTEX_POINT('',#847);
#358=VERTEX_POINT('',#858);
#359=VERTEX_POINT('',#860);
#360=VERTEX_POINT('',#864);
#361=VERTEX_POINT('',#866);
#362=VERTEX_POINT('',#870);
#363=VERTEX_POINT('',#871);
#364=VERTEX_POINT('',#876);
#365=VERTEX_POINT('',#878);
#366=VERTEX_POINT('',#891);
#367=VERTEX_POINT('',#895);
#368=VERTEX_POINT('',#896);
#369=VERTEX_POINT('',#898);
#370=VERTEX_POINT('',#900);
#371=VERTEX_POINT('',#902);
#372=VERTEX_POINT('',#904);
#373=VERTEX_POINT('',#906);
#374=VERTEX_POINT('',#908);
#375=VERTEX_POINT('',#911);
#376=VERTEX_POINT('',#918);
#377=VERTEX_POINT('',#919);
#378=VERTEX_POINT('',#924);
#379=VERTEX_POINT('',#926);
#380=VERTEX_POINT('',#930);
#381=VERTEX_POINT('',#931);
#382=VERTEX_POINT('',#936);
#383=VERTEX_POINT('',#937);
#384=EDGE_CURVE('',#332,#333,#462,.T.);
#385=EDGE_CURVE('',#332,#334,#463,.T.);
#386=EDGE_CURVE('',#335,#334,#464,.T.);
#387=EDGE_CURVE('',#335,#336,#465,.T.);
#388=EDGE_CURVE('',#337,#336,#466,.T.);
#389=EDGE_CURVE('',#338,#337,#467,.T.);
#390=EDGE_CURVE('',#338,#333,#158,.T.);
#391=EDGE_CURVE('',#339,#340,#468,.T.);
#392=EDGE_CURVE('',#339,#341,#159,.T.);
#393=EDGE_CURVE('',#342,#341,#469,.T.);
#394=EDGE_CURVE('',#342,#343,#160,.T.);
#395=EDGE_CURVE('',#344,#343,#470,.T.);
#396=EDGE_CURVE('',#344,#345,#161,.T.);
#397=EDGE_CURVE('',#346,#345,#471,.T.);
#398=EDGE_CURVE('',#346,#340,#162,.T.);
#399=EDGE_CURVE('',#334,#347,#472,.T.);
#400=EDGE_CURVE('',#348,#347,#473,.T.);
#401=EDGE_CURVE('',#348,#349,#474,.T.);
#402=EDGE_CURVE('',#349,#350,#475,.T.);
#403=EDGE_CURVE('',#350,#335,#476,.T.);
#404=EDGE_CURVE('',#351,#352,#477,.T.);
#405=EDGE_CURVE('',#353,#351,#478,.T.);
#406=EDGE_CURVE('',#354,#353,#479,.T.);
#407=EDGE_CURVE('',#354,#348,#480,.T.);
#408=EDGE_CURVE('',#347,#352,#481,.T.);
#409=EDGE_CURVE('',#355,#353,#482,.T.);
#410=EDGE_CURVE('',#355,#337,#483,.T.);
#411=EDGE_CURVE('',#336,#356,#484,.T.);
#412=EDGE_CURVE('',#357,#356,#485,.T.);
#413=EDGE_CURVE('',#357,#354,#486,.T.);
#414=EDGE_CURVE('',#349,#357,#487,.T.);
#415=EDGE_CURVE('',#356,#350,#488,.T.);
#416=EDGE_CURVE('',#352,#332,#489,.T.);
#417=EDGE_CURVE('',#340,#358,#490,.T.);
#418=EDGE_CURVE('',#358,#359,#491,.T.);
#419=EDGE_CURVE('',#359,#339,#492,.T.);
#420=EDGE_CURVE('',#341,#360,#493,.T.);
#421=EDGE_CURVE('',#360,#361,#494,.T.);
#422=EDGE_CURVE('',#361,#342,#495,.T.);
#423=EDGE_CURVE('',#362,#363,#496,.T.);
#424=EDGE_CURVE('',#363,#344,#497,.T.);
#425=EDGE_CURVE('',#343,#362,#498,.T.);
#426=EDGE_CURVE('',#358,#364,#163,.T.);
#427=EDGE_CURVE('',#365,#364,#499,.T.);
#428=EDGE_CURVE('',#365,#363,#164,.T.);
#429=EDGE_CURVE('',#362,#361,#165,.T.);
#430=EDGE_CURVE('',#360,#359,#166,.T.);
#431=EDGE_CURVE('',#364,#346,#500,.T.);
#432=EDGE_CURVE('',#345,#365,#501,.T.);
#433=EDGE_CURVE('',#333,#366,#502,.T.);
#434=EDGE_CURVE('',#366,#351,#503,.T.);
#435=EDGE_CURVE('',#367,#368,#504,.T.);
#436=EDGE_CURVE('',#368,#369,#167,.T.);
#437=EDGE_CURVE('',#369,#370,#505,.T.);
#438=EDGE_CURVE('',#370,#371,#168,.T.);
#439=EDGE_CURVE('',#371,#372,#506,.T.);
#440=EDGE_CURVE('',#372,#373,#169,.T.);
#441=EDGE_CURVE('',#373,#374,#507,.T.);
#442=EDGE_CURVE('',#374,#367,#170,.T.);
#443=EDGE_CURVE('',#366,#375,#171,.T.);
#444=EDGE_CURVE('',#355,#375,#508,.T.);
#445=EDGE_CURVE('',#375,#338,#509,.T.);
#446=EDGE_CURVE('',#376,#377,#510,.T.);
#447=EDGE_CURVE('',#377,#372,#511,.T.);
#448=EDGE_CURVE('',#371,#376,#512,.T.);
#449=EDGE_CURVE('',#373,#378,#513,.T.);
#450=EDGE_CURVE('',#378,#379,#514,.T.);
#451=EDGE_CURVE('',#379,#374,#515,.T.);
#452=EDGE_CURVE('',#380,#381,#516,.T.);
#453=EDGE_CURVE('',#381,#368,#517,.T.);
#454=EDGE_CURVE('',#367,#380,#518,.T.);
#455=EDGE_CURVE('',#382,#383,#519,.T.);
#456=EDGE_CURVE('',#383,#370,#520,.T.);
#457=EDGE_CURVE('',#369,#382,#521,.T.);
#458=EDGE_CURVE('',#378,#377,#172,.T.);
#459=EDGE_CURVE('',#376,#383,#173,.T.);
#460=EDGE_CURVE('',#382,#381,#174,.T.);
#461=EDGE_CURVE('',#380,#379,#175,.T.);
#462=LINE('',#790,#522);
#463=LINE('',#793,#523);
#464=LINE('',#795,#524);
#465=LINE('',#797,#525);
#466=LINE('',#799,#526);
#467=LINE('',#801,#527);
#468=LINE('',#804,#528);
#469=LINE('',#809,#529);
#470=LINE('',#813,#530);
#471=LINE('',#817,#531);
#472=LINE('',#821,#532);
#473=LINE('',#823,#533);
#474=LINE('',#825,#534);
#475=LINE('',#827,#535);
#476=LINE('',#829,#536);
#477=LINE('',#831,#537);
#478=LINE('',#834,#538);
#479=LINE('',#836,#539);
#480=LINE('',#838,#540);
#481=LINE('',#839,#541);
#482=LINE('',#841,#542);
#483=LINE('',#843,#543);
#484=LINE('',#844,#544);
#485=LINE('',#846,#545);
#486=LINE('',#848,#546);
#487=LINE('',#850,#547);
#488=LINE('',#852,#548);
#489=LINE('',#855,#549);
#490=LINE('',#857,#550);
#491=LINE('',#859,#551);
#492=LINE('',#861,#552);
#493=LINE('',#863,#553);
#494=LINE('',#865,#554);
#495=LINE('',#867,#555);
#496=LINE('',#869,#556);
#497=LINE('',#872,#557);
#498=LINE('',#873,#558);
#499=LINE('',#877,#559);
#500=LINE('',#883,#560);
#501=LINE('',#884,#561);
#502=LINE('',#890,#562);
#503=LINE('',#892,#563);
#504=LINE('',#894,#564);
#505=LINE('',#899,#565);
#506=LINE('',#903,#566);
#507=LINE('',#907,#567);
#508=LINE('',#912,#568);
#509=LINE('',#914,#569);
#510=LINE('',#917,#570);
#511=LINE('',#920,#571);
#512=LINE('',#921,#572);
#513=LINE('',#923,#573);
#514=LINE('',#925,#574);
#515=LINE('',#927,#575);
#516=LINE('',#929,#576);
#517=LINE('',#932,#577);
#518=LINE('',#933,#578);
#519=LINE('',#935,#579);
#520=LINE('',#938,#580);
#521=LINE('',#939,#581);
#522=VECTOR('',#633,1.);
#523=VECTOR('',#634,1.);
#524=VECTOR('',#635,1.);
#525=VECTOR('',#636,1.);
#526=VECTOR('',#637,1.);
#527=VECTOR('',#638,1.);
#528=VECTOR('',#641,1.);
#529=VECTOR('',#644,1.);
#530=VECTOR('',#647,1.);
#531=VECTOR('',#650,1.);
#532=VECTOR('',#655,1.);
#533=VECTOR('',#656,1.);
#534=VECTOR('',#657,1.);
#535=VECTOR('',#658,1.);
#536=VECTOR('',#659,1.);
#537=VECTOR('',#662,1.);
#538=VECTOR('',#663,1.);
#539=VECTOR('',#664,1.);
#540=VECTOR('',#665,1.);
#541=VECTOR('',#666,1.);
#542=VECTOR('',#669,1.);
#543=VECTOR('',#670,1.);
#544=VECTOR('',#671,1.);
#545=VECTOR('',#672,1.);
#546=VECTOR('',#673,1.);
#547=VECTOR('',#676,1.);
#548=VECTOR('',#679,1.);
#549=VECTOR('',#684,1.);
#550=VECTOR('',#687,1.);
#551=VECTOR('',#688,1.);
#552=VECTOR('',#689,1.);
#553=VECTOR('',#692,1.);
#554=VECTOR('',#693,1.);
#555=VECTOR('',#694,1.);
#556=VECTOR('',#697,1.);
#557=VECTOR('',#698,1.);
#558=VECTOR('',#699,1.);
#559=VECTOR('',#704,1.);
#560=VECTOR('',#713,1.);
#561=VECTOR('',#714,1.);
#562=VECTOR('',#725,1.);
#563=VECTOR('',#726,1.);
#564=VECTOR('',#729,1.);
#565=VECTOR('',#732,1.);
#566=VECTOR('',#735,1.);
#567=VECTOR('',#738,1.);
#568=VECTOR('',#743,1.);
#569=VECTOR('',#746,1.);
#570=VECTOR('',#751,1.);
#571=VECTOR('',#752,1.);
#572=VECTOR('',#753,1.);
#573=VECTOR('',#756,1.);
#574=VECTOR('',#757,1.);
#575=VECTOR('',#758,1.);
#576=VECTOR('',#761,1.);
#577=VECTOR('',#762,1.);
#578=VECTOR('',#763,1.);
#579=VECTOR('',#766,1.);
#580=VECTOR('',#767,1.);
#581=VECTOR('',#768,1.);
#582=AXIS2_PLACEMENT_3D('',#789,#631,#632);
#583=AXIS2_PLACEMENT_3D('',#803,#639,#640);
#584=AXIS2_PLACEMENT_3D('',#807,#642,#643);
#585=AXIS2_PLACEMENT_3D('',#811,#645,#646);
#586=AXIS2_PLACEMENT_3D('',#815,#648,#649);
#587=AXIS2_PLACEMENT_3D('',#819,#651,#652);
#588=AXIS2_PLACEMENT_3D('',#820,#653,#654);
#589=AXIS2_PLACEMENT_3D('',#830,#660,#661);
#590=AXIS2_PLACEMENT_3D('',#840,#667,#668);
#591=AXIS2_PLACEMENT_3D('',#849,#674,#675);
#592=AXIS2_PLACEMENT_3D('',#851,#677,#678);
#593=AXIS2_PLACEMENT_3D('',#853,#680,#681);
#594=AXIS2_PLACEMENT_3D('',#854,#682,#683);
#595=AXIS2_PLACEMENT_3D('',#856,#685,#686);
#596=AXIS2_PLACEMENT_3D('',#862,#690,#691);
#597=AXIS2_PLACEMENT_3D('',#868,#695,#696);
#598=AXIS2_PLACEMENT_3D('',#874,#700,#701);
#599=AXIS2_PLACEMENT_3D('',#875,#702,#703);
#600=AXIS2_PLACEMENT_3D('',#879,#705,#706);
#601=AXIS2_PLACEMENT_3D('',#880,#707,#708);
#602=AXIS2_PLACEMENT_3D('',#881,#709,#710);
#603=AXIS2_PLACEMENT_3D('',#882,#711,#712);
#604=AXIS2_PLACEMENT_3D('',#885,#715,#716);
#605=AXIS2_PLACEMENT_3D('',#886,#717,#718);
#606=AXIS2_PLACEMENT_3D('',#887,#719,#720);
#607=AXIS2_PLACEMENT_3D('',#888,#721,#722);
#608=AXIS2_PLACEMENT_3D('',#889,#723,#724);
#609=AXIS2_PLACEMENT_3D('',#893,#727,#728);
#610=AXIS2_PLACEMENT_3D('',#897,#730,#731);
#611=AXIS2_PLACEMENT_3D('',#901,#733,#734);
#612=AXIS2_PLACEMENT_3D('',#905,#736,#737);
#613=AXIS2_PLACEMENT_3D('',#909,#739,#740);
#614=AXIS2_PLACEMENT_3D('',#910,#741,#742);
#615=AXIS2_PLACEMENT_3D('',#913,#744,#745);
#616=AXIS2_PLACEMENT_3D('',#915,#747,#748);
#617=AXIS2_PLACEMENT_3D('',#916,#749,#750);
#618=AXIS2_PLACEMENT_3D('',#922,#754,#755);
#619=AXIS2_PLACEMENT_3D('',#928,#759,#760);
#620=AXIS2_PLACEMENT_3D('',#934,#764,#765);
#621=AXIS2_PLACEMENT_3D('',#940,#769,#770);
#622=AXIS2_PLACEMENT_3D('',#941,#771,#772);
#623=AXIS2_PLACEMENT_3D('',#942,#773,#774);
#624=AXIS2_PLACEMENT_3D('',#943,#775,#776);
#625=AXIS2_PLACEMENT_3D('',#944,#777,#778);
#626=AXIS2_PLACEMENT_3D('',#945,#779,#780);
#627=AXIS2_PLACEMENT_3D('',#946,#781,#782);
#628=AXIS2_PLACEMENT_3D('',#947,#783,#784);
#629=AXIS2_PLACEMENT_3D('',#948,#785,#786);
#630=AXIS2_PLACEMENT_3D('',#949,#787,#788);
#631=DIRECTION('',(0.,0.,1.));
#632=DIRECTION('',(1.,0.,0.));
#633=DIRECTION('',(1.,0.,0.));
#634=DIRECTION('',(0.,-1.,0.));
#635=DIRECTION('',(-1.,0.,0.));
#636=DIRECTION('',(0.,1.,0.));
#637=DIRECTION('',(1.,0.,0.));
#638=DIRECTION('',(0.,1.,0.));
#639=DIRECTION('',(0.,0.,-1.));
#640=DIRECTION('',(1.,0.,0.));
#641=DIRECTION('',(1.,0.,0.));
#642=DIRECTION('',(0.,0.,-1.));
#643=DIRECTION('',(0.999999999999998,0.,0.));
#644=DIRECTION('',(0.,-1.,0.));
#645=DIRECTION('',(0.,0.,-1.));
#646=DIRECTION('',(0.999999999999998,0.,0.));
#647=DIRECTION('',(-1.,0.,0.));
#648=DIRECTION('',(0.,0.,-1.));
#649=DIRECTION('',(0.999999999999998,0.,0.));
#650=DIRECTION('',(0.,1.,0.));
#651=DIRECTION('',(0.,0.,-1.));
#652=DIRECTION('',(0.999999999999998,0.,0.));
#653=DIRECTION('',(0.,0.,1.));
#654=DIRECTION('',(1.,0.,0.));
#655=DIRECTION('',(-0.707106781186548,0.,-0.707106781186548));
#656=DIRECTION('',(0.,0.,1.));
#657=DIRECTION('',(1.,0.,0.));
#658=DIRECTION('',(0.,0.,1.));
#659=DIRECTION('',(-0.707106781186548,0.,0.707106781186547));
#660=DIRECTION('',(0.,-1.,0.));
#661=DIRECTION('',(0.,0.,-1.));
#662=DIRECTION('',(0.,0.,1.));
#663=DIRECTION('',(0.,-1.,0.));
#664=DIRECTION('',(0.,0.,1.));
#665=DIRECTION('',(0.,-1.,0.));
#666=DIRECTION('',(0.,1.,0.));
#667=DIRECTION('',(-1.,0.,0.));
#668=DIRECTION('',(0.,0.,1.));
#669=DIRECTION('',(-1.,0.,0.));
#670=DIRECTION('',(0.,0.,1.));
#671=DIRECTION('',(0.707106781186548,0.,-0.707106781186547));
#672=DIRECTION('',(0.,0.,1.));
#673=DIRECTION('',(-1.,0.,0.));
#674=DIRECTION('',(0.,1.,0.));
#675=DIRECTION('',(0.,0.,1.));
#676=DIRECTION('',(0.,1.,0.));
#677=DIRECTION('',(0.,0.,-1.));
#678=DIRECTION('',(-1.,0.,0.));
#679=DIRECTION('',(0.,-1.,0.));
#680=DIRECTION('',(1.,0.,0.));
#681=DIRECTION('',(0.,0.,-1.));
#682=DIRECTION('',(-0.707106781186547,0.,-0.707106781186548));
#683=DIRECTION('',(0.,-1.,0.));
#684=DIRECTION('',(0.707106781186548,0.,0.707106781186548));
#685=DIRECTION('',(0.707106781186547,0.,-0.707106781186547));
#686=DIRECTION('',(0.,1.,0.));
#687=DIRECTION('',(0.,0.,-1.));
#688=DIRECTION('',(-1.,0.,0.));
#689=DIRECTION('',(0.,0.,1.));
#690=DIRECTION('',(0.,-1.,0.));
#691=DIRECTION('',(0.,0.,-1.));
#692=DIRECTION('',(0.,0.,-1.));
#693=DIRECTION('',(0.,1.,0.));
#694=DIRECTION('',(0.,0.,1.));
#695=DIRECTION('',(-1.,0.,0.));
#696=DIRECTION('',(0.,0.,1.));
#697=DIRECTION('',(1.,0.,0.));
#698=DIRECTION('',(0.,0.,1.));
#699=DIRECTION('',(0.,0.,-1.));
#700=DIRECTION('',(0.,1.,0.));
#701=DIRECTION('',(0.,0.,1.));
#702=DIRECTION('',(0.,0.,1.));
#703=DIRECTION('',(-0.999999999999998,0.,0.));
#704=DIRECTION('',(0.,-1.,0.));
#705=DIRECTION('',(0.,0.,1.));
#706=DIRECTION('',(-0.999999999999998,0.,0.));
#707=DIRECTION('',(0.,0.,1.));
#708=DIRECTION('',(-0.999999999999998,0.,0.));
#709=DIRECTION('',(0.,0.,1.));
#710=DIRECTION('',(-0.999999999999998,0.,0.));
#711=DIRECTION('',(0.,0.,-1.));
#712=DIRECTION('',(-1.,0.,0.));
#713=DIRECTION('',(0.,0.,1.));
#714=DIRECTION('',(0.,0.,-1.));
#715=DIRECTION('',(1.,0.,0.));
#716=DIRECTION('',(0.,0.,-1.));
#717=DIRECTION('',(0.,0.,1.));
#718=DIRECTION('',(0.999999999999998,0.,0.));
#719=DIRECTION('',(0.,0.,1.));
#720=DIRECTION('',(0.999999999999998,0.,0.));
#721=DIRECTION('',(0.,0.,1.));
#722=DIRECTION('',(0.999999999999998,0.,0.));
#723=DIRECTION('',(0.,0.,1.));
#724=DIRECTION('',(0.999999999999998,0.,0.));
#725=DIRECTION('',(0.,0.,-1.));
#726=DIRECTION('',(-1.,0.,0.));
#727=DIRECTION('',(0.,-1.,0.));
#728=DIRECTION('',(0.,0.,-1.));
#729=DIRECTION('',(1.,0.,0.));
#730=DIRECTION('',(0.,0.,-1.));
#731=DIRECTION('',(-1.,0.,0.));
#732=DIRECTION('',(0.,-1.,0.));
#733=DIRECTION('',(0.,0.,-1.));
#734=DIRECTION('',(-1.,0.,0.));
#735=DIRECTION('',(-1.,0.,0.));
#736=DIRECTION('',(0.,0.,-1.));
#737=DIRECTION('',(-1.,0.,0.));
#738=DIRECTION('',(0.,1.,0.));
#739=DIRECTION('',(0.,0.,-1.));
#740=DIRECTION('',(-1.,0.,0.));
#741=DIRECTION('',(0.,0.,1.));
#742=DIRECTION('',(-1.,0.,0.));
#743=DIRECTION('',(0.,-1.,0.));
#744=DIRECTION('',(0.,0.,-1.));
#745=DIRECTION('',(-1.,0.,0.));
#746=DIRECTION('',(0.,0.,1.));
#747=DIRECTION('',(1.,0.,0.));
#748=DIRECTION('',(0.,0.,-1.));
#749=DIRECTION('',(0.,0.,1.));
#750=DIRECTION('',(1.,0.,0.));
#751=DIRECTION('',(-1.,0.,0.));
#752=DIRECTION('',(0.,0.,1.));
#753=DIRECTION('',(0.,0.,-1.));
#754=DIRECTION('',(0.,-1.,0.));
#755=DIRECTION('',(0.,0.,-1.));
#756=DIRECTION('',(0.,0.,-1.));
#757=DIRECTION('',(0.,1.,0.));
#758=DIRECTION('',(0.,0.,1.));
#759=DIRECTION('',(-1.,0.,0.));
#760=DIRECTION('',(0.,0.,1.));
#761=DIRECTION('',(1.,0.,0.));
#762=DIRECTION('',(0.,0.,1.));
#763=DIRECTION('',(0.,0.,-1.));
#764=DIRECTION('',(0.,1.,0.));
#765=DIRECTION('',(0.,0.,1.));
#766=DIRECTION('',(0.,-1.,0.));
#767=DIRECTION('',(0.,0.,1.));
#768=DIRECTION('',(0.,0.,-1.));
#769=DIRECTION('',(1.,0.,0.));
#770=DIRECTION('',(0.,0.,-1.));
#771=DIRECTION('',(0.,0.,1.));
#772=DIRECTION('',(-1.,0.,0.));
#773=DIRECTION('',(0.,0.,1.));
#774=DIRECTION('',(-1.,0.,0.));
#775=DIRECTION('',(0.,0.,1.));
#776=DIRECTION('',(-1.,0.,0.));
#777=DIRECTION('',(0.,0.,1.));
#778=DIRECTION('',(-1.,0.,0.));
#779=DIRECTION('',(0.,0.,-1.));
#780=DIRECTION('',(-1.,0.,0.));
#781=DIRECTION('',(0.,0.,1.));
#782=DIRECTION('',(1.,0.,0.));
#783=DIRECTION('',(0.,0.,1.));
#784=DIRECTION('',(1.,0.,0.));
#785=DIRECTION('',(0.,0.,1.));
#786=DIRECTION('',(1.,0.,0.));
#787=DIRECTION('',(0.,0.,1.));
#788=DIRECTION('',(1.,0.,0.));
#789=CARTESIAN_POINT('',(0.,0.,0.));
#790=CARTESIAN_POINT('',(223.65,190.5,110.5));
#791=CARTESIAN_POINT('',(20.1,190.5,110.5));
#792=CARTESIAN_POINT('',(88.1,190.5,110.5));
#793=CARTESIAN_POINT('',(20.1,144.05,110.5));
#794=CARTESIAN_POINT('',(20.1,0.,110.5));
#795=CARTESIAN_POINT('',(223.65,0.,110.5));
#796=CARTESIAN_POINT('',(439.3,0.,110.5));
#797=CARTESIAN_POINT('',(439.3,144.05,110.5));
#798=CARTESIAN_POINT('',(439.3,288.1,110.5));
#799=CARTESIAN_POINT('',(223.65,288.1,110.5));
#800=CARTESIAN_POINT('',(93.4,288.1,110.5));
#801=CARTESIAN_POINT('',(93.4,144.05,110.5));
#802=CARTESIAN_POINT('',(93.4,195.8,110.5));
#803=CARTESIAN_POINT('',(88.1,195.8,110.5));
#804=CARTESIAN_POINT('',(223.65,35.2,110.5));
#805=CARTESIAN_POINT('',(141.7,35.2,110.5));
#806=CARTESIAN_POINT('',(230.,35.2,110.5));
#807=CARTESIAN_POINT('',(141.7,38.8,110.5));
#808=CARTESIAN_POINT('',(138.1,38.8,110.5));
#809=CARTESIAN_POINT('',(138.1,144.05,110.5));
#810=CARTESIAN_POINT('',(138.1,128.8,110.5));
#811=CARTESIAN_POINT('',(141.7,128.8,110.5));
#812=CARTESIAN_POINT('',(141.7,132.4,110.5));
#813=CARTESIAN_POINT('',(223.65,132.4,110.5));
#814=CARTESIAN_POINT('',(230.,132.4,110.5));
#815=CARTESIAN_POINT('',(230.,128.8,110.5));
#816=CARTESIAN_POINT('',(233.6,128.8,110.5));
#817=CARTESIAN_POINT('',(233.6,144.05,110.5));
#818=CARTESIAN_POINT('',(233.6,38.8,110.5));
#819=CARTESIAN_POINT('',(230.,38.8,110.5));
#820=CARTESIAN_POINT('',(223.65,144.05,110.5));
#821=CARTESIAN_POINT('',(66.625,0.,157.025));
#822=CARTESIAN_POINT('',(0.,0.,90.4));
#823=CARTESIAN_POINT('',(0.,0.,0.));
#824=CARTESIAN_POINT('',(0.,0.,0.));
#825=CARTESIAN_POINT('',(223.65,0.,0.));
#826=CARTESIAN_POINT('',(447.3,0.,0.));
#827=CARTESIAN_POINT('',(447.3,0.,0.));
#828=CARTESIAN_POINT('',(447.3,0.,102.5));
#829=CARTESIAN_POINT('',(386.725,0.,163.075));
#830=CARTESIAN_POINT('',(223.65,0.,0.));
#831=CARTESIAN_POINT('',(0.,190.5,80.6));
#832=CARTESIAN_POINT('',(0.,190.5,80.6));
#833=CARTESIAN_POINT('',(0.,190.5,90.4));
#834=CARTESIAN_POINT('',(0.,239.3,80.6));
#835=CARTESIAN_POINT('',(0.,288.1,80.6));
#836=CARTESIAN_POINT('',(0.,288.1,0.));
#837=CARTESIAN_POINT('',(0.,288.1,0.));
#838=CARTESIAN_POINT('',(0.,144.05,0.));
#839=CARTESIAN_POINT('',(0.,144.05,90.4));
#840=CARTESIAN_POINT('',(0.,144.05,0.));
#841=CARTESIAN_POINT('',(46.7,288.1,80.6));
#842=CARTESIAN_POINT('',(93.4,288.1,80.6));
#843=CARTESIAN_POINT('',(93.4,288.1,80.6));
#844=CARTESIAN_POINT('',(386.725,288.1,163.075));
#845=CARTESIAN_POINT('',(447.3,288.1,102.5));
#846=CARTESIAN_POINT('',(447.3,288.1,0.));
#847=CARTESIAN_POINT('',(447.3,288.1,0.));
#848=CARTESIAN_POINT('',(223.65,288.1,0.));
#849=CARTESIAN_POINT('',(223.65,288.1,0.));
#850=CARTESIAN_POINT('',(447.3,144.05,0.));
#851=CARTESIAN_POINT('',(223.65,144.05,0.));
#852=CARTESIAN_POINT('',(447.3,144.05,102.5));
#853=CARTESIAN_POINT('',(447.3,144.05,0.));
#854=CARTESIAN_POINT('',(447.3,144.05,102.5));
#855=CARTESIAN_POINT('',(0.,190.5,90.4));
#856=CARTESIAN_POINT('',(0.,144.05,90.4));
#857=CARTESIAN_POINT('',(230.,35.2,84.6));
#858=CARTESIAN_POINT('',(230.,35.2,84.6));
#859=CARTESIAN_POINT('',(185.85,35.2,84.6));
#860=CARTESIAN_POINT('',(141.7,35.2,84.6));
#861=CARTESIAN_POINT('',(141.7,35.2,110.5));
#862=CARTESIAN_POINT('',(185.85,35.2,84.6));
#863=CARTESIAN_POINT('',(138.1,38.8,84.6));
#864=CARTESIAN_POINT('',(138.1,38.8,84.6));
#865=CARTESIAN_POINT('',(138.1,83.8,84.6));
#866=CARTESIAN_POINT('',(138.1,128.8,84.6));
#867=CARTESIAN_POINT('',(138.1,128.8,110.5));
#868=CARTESIAN_POINT('',(138.1,83.8,84.6));
#869=CARTESIAN_POINT('',(185.85,132.4,84.6));
#870=CARTESIAN_POINT('',(141.7,132.4,84.6));
#871=CARTESIAN_POINT('',(230.,132.4,84.6));
#872=CARTESIAN_POINT('',(230.,132.4,110.5));
#873=CARTESIAN_POINT('',(141.7,132.4,84.6));
#874=CARTESIAN_POINT('',(185.85,132.4,84.6));
#875=CARTESIAN_POINT('',(230.,38.8,84.6));
#876=CARTESIAN_POINT('',(233.6,38.8,84.6));
#877=CARTESIAN_POINT('',(233.6,83.8,84.6));
#878=CARTESIAN_POINT('',(233.6,128.8,84.6));
#879=CARTESIAN_POINT('',(230.,128.8,84.6));
#880=CARTESIAN_POINT('',(141.7,128.8,84.6));
#881=CARTESIAN_POINT('',(141.7,38.8,84.6));
#882=CARTESIAN_POINT('',(185.85,83.8,84.6));
#883=CARTESIAN_POINT('',(233.6,38.8,110.5));
#884=CARTESIAN_POINT('',(233.6,128.8,84.6));
#885=CARTESIAN_POINT('',(233.6,83.8,84.6));
#886=CARTESIAN_POINT('',(230.,38.8,84.6));
#887=CARTESIAN_POINT('',(230.,128.8,84.6));
#888=CARTESIAN_POINT('',(141.7,38.8,84.6));
#889=CARTESIAN_POINT('',(141.7,128.8,84.6));
#890=CARTESIAN_POINT('',(88.1,190.5,80.6));
#891=CARTESIAN_POINT('',(88.1,190.5,80.6));
#892=CARTESIAN_POINT('',(46.7,190.5,80.6));
#893=CARTESIAN_POINT('',(46.7,190.5,80.6));
#894=CARTESIAN_POINT('',(46.7,260.3,80.6));
#895=CARTESIAN_POINT('',(30.1,260.3,80.6));
#896=CARTESIAN_POINT('',(36.6,260.3,80.6));
#897=CARTESIAN_POINT('',(36.6,245.9,80.6));
#898=CARTESIAN_POINT('',(51.,245.9,80.6));
#899=CARTESIAN_POINT('',(51.,239.3,80.6));
#900=CARTESIAN_POINT('',(51.,220.,80.6));
#901=CARTESIAN_POINT('',(36.6,220.,80.6));
#902=CARTESIAN_POINT('',(36.6,205.6,80.6));
#903=CARTESIAN_POINT('',(46.7,205.6,80.6));
#904=CARTESIAN_POINT('',(30.1,205.6,80.6));
#905=CARTESIAN_POINT('',(30.1,220.,80.6));
#906=CARTESIAN_POINT('',(15.7,220.,80.6));
#907=CARTESIAN_POINT('',(15.7,239.3,80.6));
#908=CARTESIAN_POINT('',(15.7,245.9,80.6));
#909=CARTESIAN_POINT('',(30.1,245.9,80.6));
#910=CARTESIAN_POINT('',(88.1,195.8,80.6));
#911=CARTESIAN_POINT('',(93.4,195.8,80.6));
#912=CARTESIAN_POINT('',(93.4,239.3,80.6));
#913=CARTESIAN_POINT('',(46.7,239.3,80.6));
#914=CARTESIAN_POINT('',(93.4,195.8,110.5));
#915=CARTESIAN_POINT('',(93.4,239.3,80.6));
#916=CARTESIAN_POINT('',(88.1,195.8,80.6));
#917=CARTESIAN_POINT('',(33.35,205.6,72.6));
#918=CARTESIAN_POINT('',(36.6,205.6,72.6));
#919=CARTESIAN_POINT('',(30.1,205.6,72.6));
#920=CARTESIAN_POINT('',(30.1,205.6,80.6));
#921=CARTESIAN_POINT('',(36.6,205.6,72.6));
#922=CARTESIAN_POINT('',(33.35,205.6,72.6));
#923=CARTESIAN_POINT('',(15.7,220.,72.6));
#924=CARTESIAN_POINT('',(15.7,220.,72.6));
#925=CARTESIAN_POINT('',(15.7,232.95,72.6));
#926=CARTESIAN_POINT('',(15.7,245.9,72.6));
#927=CARTESIAN_POINT('',(15.7,245.9,80.6));
#928=CARTESIAN_POINT('',(15.7,232.95,72.6));
#929=CARTESIAN_POINT('',(33.35,260.3,72.6));
#930=CARTESIAN_POINT('',(30.1,260.3,72.6));
#931=CARTESIAN_POINT('',(36.6,260.3,72.6));
#932=CARTESIAN_POINT('',(36.6,260.3,80.6));
#933=CARTESIAN_POINT('',(30.1,260.3,72.6));
#934=CARTESIAN_POINT('',(33.35,260.3,72.6));
#935=CARTESIAN_POINT('',(51.,232.95,72.6));
#936=CARTESIAN_POINT('',(51.,245.9,72.6));
#937=CARTESIAN_POINT('',(51.,220.,72.6));
#938=CARTESIAN_POINT('',(51.,220.,80.6));
#939=CARTESIAN_POINT('',(51.,245.9,72.6));
#940=CARTESIAN_POINT('',(51.,232.95,72.6));
#941=CARTESIAN_POINT('',(30.1,220.,72.6));
#942=CARTESIAN_POINT('',(36.6,220.,72.6));
#943=CARTESIAN_POINT('',(36.6,245.9,72.6));
#944=CARTESIAN_POINT('',(30.1,245.9,72.6));
#945=CARTESIAN_POINT('',(33.35,232.95,72.6));
#946=CARTESIAN_POINT('',(30.1,220.,72.6));
#947=CARTESIAN_POINT('',(36.6,220.,72.6));
#948=CARTESIAN_POINT('',(36.6,245.9,72.6));
#949=CARTESIAN_POINT('',(30.1,245.9,72.6));
#950=MECHANICAL_DESIGN_GEOMETRIC_PRESENTATION_REPRESENTATION('',(#24),#951);
#951=(
GEOMETRIC_REPRESENTATION_CONTEXT(3)
GLOBAL_UNCERTAINTY_ASSIGNED_CONTEXT((#952))
GLOBAL_UNIT_ASSIGNED_CONTEXT((#958,#954,#953))
REPRESENTATION_CONTEXT('featured_part_00715','TOP_LEVEL_ASSEMBLY_PART')
);
#952=UNCERTAINTY_MEASURE_WITH_UNIT(LENGTH_MEASURE(2.E-5),#958,
'DISTANCE_ACCURACY_VALUE','Maximum Tolerance applied to model');
#953=(
NAMED_UNIT(*)
SI_UNIT($,.STERADIAN.)
SOLID_ANGLE_UNIT()
);
#954=(
CONVERSION_BASED_UNIT('DEGREE',#956)
NAMED_UNIT(#955)
PLANE_ANGLE_UNIT()
);
#955=DIMENSIONAL_EXPONENTS(0.,0.,0.,0.,0.,0.,0.);
#956=PLANE_ANGLE_MEASURE_WITH_UNIT(PLANE_ANGLE_MEASURE(0.0174532925),#957);
#957=(
NAMED_UNIT(*)
PLANE_ANGLE_UNIT()
SI_UNIT($,.RADIAN.)
);
#958=(
LENGTH_UNIT()
NAMED_UNIT(*)
SI_UNIT(.MILLI.,.METRE.)
);
ENDSEC;
END-ISO-10303-21;
