ISO-10303-21;
HEADER;
/* Generated by software containing ST-Developer
 * from STEP Tools, Inc. (www.steptools.com) 
 */
/* OPTION: using custom schema-name function */

FILE_DESCRIPTION(
/* description */ (''),
/* implementation_level */ '2;1');

FILE_NAME(
/* name */ 'featured_part_09263.stp',
/* time_stamp */ '2026-07-11T09:24:26-04:00',
/* author */ (''),
/* organization */ (''),
/* preprocessor_version */ 'ST-DEVELOPER v20.1',
/* originating_system */ 'SIEMENS PLM Software NX2512.6002',
/* authorisation */ '');

FILE_SCHEMA (('INTEGRATED_CNC_SCHEMA'));
ENDSEC;

DATA;
#10=SHAPE_REPRESENTATION_RELATIONSHIP('None',
'relationship between featured_part_09263-None and featured_part_09263
-None',#22,#11);
#11=ADVANCED_BREP_SHAPE_REPRESENTATION('featured_part_09263-None',(#32),
#1166);
#12=SHAPE_DEFINITION_REPRESENTATION(#13,#22);
#13=PRODUCT_DEFINITION_SHAPE('','',#14);
#14=PRODUCT_DEFINITION(' ','',#16,#15);
#15=PRODUCT_DEFINITION_CONTEXT('part definition',#21,'design');
#16=PRODUCT_DEFINITION_FORMATION_WITH_SPECIFIED_SOURCE(' ',' ',#18,
 .NOT_KNOWN.);
#17=PRODUCT_RELATED_PRODUCT_CATEGORY('part','',(#18));
#18=PRODUCT('featured_part_09263','featured_part_09263',' ',(#19));
#19=PRODUCT_CONTEXT(' ',#21,'mechanical');
#20=APPLICATION_PROTOCOL_DEFINITION('international standard',
'automotive_design',2010,#21);
#21=APPLICATION_CONTEXT(
'core data for automotive mechanical design processes');
#22=SHAPE_REPRESENTATION('featured_part_09263-None',(#714),#1166);
#23=PRESENTATION_LAYER_ASSIGNMENT('1','Layer 1',(#32));
#24=STYLED_ITEM('',(#25),#32);
#25=PRESENTATION_STYLE_ASSIGNMENT((#26));
#26=SURFACE_STYLE_USAGE(.BOTH.,#27);
#27=SURFACE_SIDE_STYLE('',(#28));
#28=SURFACE_STYLE_FILL_AREA(#29);
#29=FILL_AREA_STYLE('',(#30));
#30=FILL_AREA_STYLE_COLOUR('',#31);
#31=COLOUR_RGB('medium steel',0.611764705882353,0.658823529411765,0.670588235294118);
#32=MANIFOLD_SOLID_BREP('',#33);
#33=CLOSED_SHELL('',(#91,#92,#93,#94,#95,#96,#97,#98,#99,#100,#101,#102,
#103,#104,#105,#106,#107,#108,#109,#110,#111,#112,#113,#114,#115,#116,#117,
#118,#119,#120,#121,#122,#123,#124,#125,#126));
#34=CYLINDRICAL_SURFACE('',#755,3.7);
#35=CYLINDRICAL_SURFACE('',#756,3.7);
#36=CYLINDRICAL_SURFACE('',#757,3.7);
#37=CYLINDRICAL_SURFACE('',#758,3.7);
#38=CYLINDRICAL_SURFACE('',#768,10.);
#39=CYLINDRICAL_SURFACE('',#769,10.);
#40=CYLINDRICAL_SURFACE('',#770,10.);
#41=CYLINDRICAL_SURFACE('',#771,10.);
#42=CYLINDRICAL_SURFACE('',#772,4.85);
#43=CYLINDRICAL_SURFACE('',#773,4.85);
#44=CYLINDRICAL_SURFACE('',#774,4.85);
#45=CYLINDRICAL_SURFACE('',#775,4.85);
#46=FACE_BOUND('',#183,.T.);
#47=FACE_BOUND('',#184,.T.);
#48=FACE_BOUND('',#185,.T.);
#49=FACE_BOUND('',#186,.T.);
#50=FACE_BOUND('',#187,.T.);
#51=FACE_BOUND('',#191,.T.);
#52=FACE_BOUND('',#192,.T.);
#53=FACE_BOUND('',#193,.T.);
#54=FACE_BOUND('',#194,.T.);
#55=FACE_BOUND('',#195,.T.);
#56=FACE_BOUND('',#205,.T.);
#57=FACE_BOUND('',#206,.T.);
#58=FACE_BOUND('',#221,.T.);
#59=FACE_BOUND('',#222,.T.);
#60=FACE_BOUND('',#223,.T.);
#61=FACE_BOUND('',#224,.T.);
#62=FACE_BOUND('',#225,.T.);
#63=FACE_BOUND('',#226,.T.);
#64=FACE_BOUND('',#227,.T.);
#65=FACE_BOUND('',#228,.T.);
#66=CIRCLE('',#718,4.85);
#67=CIRCLE('',#719,3.7);
#68=CIRCLE('',#720,3.7);
#69=CIRCLE('',#721,3.7);
#70=CIRCLE('',#722,3.7);
#71=CIRCLE('',#723,4.85);
#72=CIRCLE('',#724,4.85);
#73=CIRCLE('',#725,4.85);
#74=CIRCLE('',#730,4.85);
#75=CIRCLE('',#731,4.85);
#76=CIRCLE('',#732,4.85);
#77=CIRCLE('',#733,4.85);
#78=CIRCLE('',#744,10.);
#79=CIRCLE('',#745,10.);
#80=CIRCLE('',#746,10.);
#81=CIRCLE('',#747,10.);
#82=CIRCLE('',#748,4.85);
#83=CIRCLE('',#749,3.7);
#84=CIRCLE('',#750,3.7);
#85=CIRCLE('',#751,3.7);
#86=CIRCLE('',#752,3.7);
#87=CIRCLE('',#763,10.);
#88=CIRCLE('',#764,10.);
#89=CIRCLE('',#765,10.);
#90=CIRCLE('',#766,10.);
#91=ADVANCED_FACE('',(#151),#127,.F.);
#92=ADVANCED_FACE('',(#152),#128,.T.);
#93=ADVANCED_FACE('',(#153),#129,.F.);
#94=ADVANCED_FACE('',(#46,#47,#48,#49,#50),#130,.T.);
#95=ADVANCED_FACE('',(#154),#131,.T.);
#96=ADVANCED_FACE('',(#155),#132,.T.);
#97=ADVANCED_FACE('',(#156),#133,.T.);
#98=ADVANCED_FACE('',(#51,#52,#53,#54,#55),#134,.T.);
#99=ADVANCED_FACE('',(#157),#135,.T.);
#100=ADVANCED_FACE('',(#158),#136,.F.);
#101=ADVANCED_FACE('',(#159),#137,.F.);
#102=ADVANCED_FACE('',(#160),#138,.F.);
#103=ADVANCED_FACE('',(#161),#139,.F.);
#104=ADVANCED_FACE('',(#162),#140,.F.);
#105=ADVANCED_FACE('',(#163),#141,.F.);
#106=ADVANCED_FACE('',(#164),#142,.F.);
#107=ADVANCED_FACE('',(#165),#143,.F.);
#108=ADVANCED_FACE('',(#56,#57),#144,.F.);
#109=ADVANCED_FACE('',(#166),#145,.F.);
#110=ADVANCED_FACE('',(#167),#34,.F.);
#111=ADVANCED_FACE('',(#168),#35,.F.);
#112=ADVANCED_FACE('',(#169),#36,.F.);
#113=ADVANCED_FACE('',(#170),#37,.F.);
#114=ADVANCED_FACE('',(#171),#146,.F.);
#115=ADVANCED_FACE('',(#172),#147,.F.);
#116=ADVANCED_FACE('',(#173),#148,.F.);
#117=ADVANCED_FACE('',(#174),#149,.F.);
#118=ADVANCED_FACE('',(#175),#150,.F.);
#119=ADVANCED_FACE('',(#176),#38,.F.);
#120=ADVANCED_FACE('',(#177),#39,.F.);
#121=ADVANCED_FACE('',(#178),#40,.F.);
#122=ADVANCED_FACE('',(#179),#41,.F.);
#123=ADVANCED_FACE('',(#58,#59),#42,.F.);
#124=ADVANCED_FACE('',(#60,#61),#43,.F.);
#125=ADVANCED_FACE('',(#62,#63),#44,.F.);
#126=ADVANCED_FACE('',(#64,#65),#45,.F.);
#127=PLANE('',#715);
#128=PLANE('',#716);
#129=PLANE('',#717);
#130=PLANE('',#726);
#131=PLANE('',#727);
#132=PLANE('',#728);
#133=PLANE('',#729);
#134=PLANE('',#734);
#135=PLANE('',#735);
#136=PLANE('',#736);
#137=PLANE('',#737);
#138=PLANE('',#738);
#139=PLANE('',#739);
#140=PLANE('',#740);
#141=PLANE('',#741);
#142=PLANE('',#742);
#143=PLANE('',#743);
#144=PLANE('',#753);
#145=PLANE('',#754);
#146=PLANE('',#759);
#147=PLANE('',#760);
#148=PLANE('',#761);
#149=PLANE('',#762);
#150=PLANE('',#767);
#151=FACE_OUTER_BOUND('',#180,.T.);
#152=FACE_OUTER_BOUND('',#181,.T.);
#153=FACE_OUTER_BOUND('',#182,.T.);
#154=FACE_OUTER_BOUND('',#188,.T.);
#155=FACE_OUTER_BOUND('',#189,.T.);
#156=FACE_OUTER_BOUND('',#190,.T.);
#157=FACE_OUTER_BOUND('',#196,.T.);
#158=FACE_OUTER_BOUND('',#197,.T.);
#159=FACE_OUTER_BOUND('',#198,.T.);
#160=FACE_OUTER_BOUND('',#199,.T.);
#161=FACE_OUTER_BOUND('',#200,.T.);
#162=FACE_OUTER_BOUND('',#201,.T.);
#163=FACE_OUTER_BOUND('',#202,.T.);
#164=FACE_OUTER_BOUND('',#203,.T.);
#165=FACE_OUTER_BOUND('',#204,.T.);
#166=FACE_OUTER_BOUND('',#207,.T.);
#167=FACE_OUTER_BOUND('',#208,.T.);
#168=FACE_OUTER_BOUND('',#209,.T.);
#169=FACE_OUTER_BOUND('',#210,.T.);
#170=FACE_OUTER_BOUND('',#211,.T.);
#171=FACE_OUTER_BOUND('',#212,.T.);
#172=FACE_OUTER_BOUND('',#213,.T.);
#173=FACE_OUTER_BOUND('',#214,.T.);
#174=FACE_OUTER_BOUND('',#215,.T.);
#175=FACE_OUTER_BOUND('',#216,.T.);
#176=FACE_OUTER_BOUND('',#217,.T.);
#177=FACE_OUTER_BOUND('',#218,.T.);
#178=FACE_OUTER_BOUND('',#219,.T.);
#179=FACE_OUTER_BOUND('',#220,.T.);
#180=EDGE_LOOP('',(#229,#230,#231,#232));
#181=EDGE_LOOP('',(#233,#234,#235,#236));
#182=EDGE_LOOP('',(#237,#238,#239,#240));
#183=EDGE_LOOP('',(#241,#242,#243,#244,#245,#246,#247,#248,#249,#250));
#184=EDGE_LOOP('',(#251));
#185=EDGE_LOOP('',(#252));
#186=EDGE_LOOP('',(#253));
#187=EDGE_LOOP('',(#254,#255,#256,#257));
#188=EDGE_LOOP('',(#258,#259,#260,#261,#262));
#189=EDGE_LOOP('',(#263,#264,#265,#266,#267,#268,#269,#270,#271));
#190=EDGE_LOOP('',(#272,#273,#274,#275));
#191=EDGE_LOOP('',(#276));
#192=EDGE_LOOP('',(#277));
#193=EDGE_LOOP('',(#278));
#194=EDGE_LOOP('',(#279));
#195=EDGE_LOOP('',(#280,#281,#282,#283));
#196=EDGE_LOOP('',(#284,#285,#286,#287,#288,#289,#290,#291,#292));
#197=EDGE_LOOP('',(#293,#294,#295,#296,#297));
#198=EDGE_LOOP('',(#298,#299,#300,#301));
#199=EDGE_LOOP('',(#302,#303,#304,#305,#306));
#200=EDGE_LOOP('',(#307,#308,#309,#310,#311));
#201=EDGE_LOOP('',(#312,#313,#314,#315));
#202=EDGE_LOOP('',(#316,#317,#318,#319));
#203=EDGE_LOOP('',(#320,#321,#322,#323));
#204=EDGE_LOOP('',(#324,#325,#326,#327));
#205=EDGE_LOOP('',(#328,#329,#330,#331,#332,#333,#334,#335));
#206=EDGE_LOOP('',(#336,#337,#338,#339,#340,#341,#342,#343,#344,#345));
#207=EDGE_LOOP('',(#346,#347,#348,#349));
#208=EDGE_LOOP('',(#350,#351,#352,#353));
#209=EDGE_LOOP('',(#354,#355,#356,#357));
#210=EDGE_LOOP('',(#358,#359,#360,#361));
#211=EDGE_LOOP('',(#362,#363,#364,#365));
#212=EDGE_LOOP('',(#366,#367,#368,#369));
#213=EDGE_LOOP('',(#370,#371,#372,#373));
#214=EDGE_LOOP('',(#374,#375,#376,#377));
#215=EDGE_LOOP('',(#378,#379,#380,#381));
#216=EDGE_LOOP('',(#382,#383,#384,#385,#386,#387,#388,#389));
#217=EDGE_LOOP('',(#390,#391,#392,#393));
#218=EDGE_LOOP('',(#394,#395,#396,#397));
#219=EDGE_LOOP('',(#398,#399,#400,#401));
#220=EDGE_LOOP('',(#402,#403,#404,#405));
#221=EDGE_LOOP('',(#406));
#222=EDGE_LOOP('',(#407));
#223=EDGE_LOOP('',(#408));
#224=EDGE_LOOP('',(#409));
#225=EDGE_LOOP('',(#410));
#226=EDGE_LOOP('',(#411));
#227=EDGE_LOOP('',(#412));
#228=EDGE_LOOP('',(#413,#414,#415,#416));
#229=ORIENTED_EDGE('',*,*,#482,.T.);
#230=ORIENTED_EDGE('',*,*,#483,.T.);
#231=ORIENTED_EDGE('',*,*,#484,.T.);
#232=ORIENTED_EDGE('',*,*,#485,.T.);
#233=ORIENTED_EDGE('',*,*,#486,.F.);
#234=ORIENTED_EDGE('',*,*,#487,.T.);
#235=ORIENTED_EDGE('',*,*,#488,.F.);
#236=ORIENTED_EDGE('',*,*,#489,.F.);
#237=ORIENTED_EDGE('',*,*,#490,.F.);
#238=ORIENTED_EDGE('',*,*,#491,.F.);
#239=ORIENTED_EDGE('',*,*,#492,.F.);
#240=ORIENTED_EDGE('',*,*,#487,.F.);
#241=ORIENTED_EDGE('',*,*,#493,.F.);
#242=ORIENTED_EDGE('',*,*,#482,.F.);
#243=ORIENTED_EDGE('',*,*,#494,.T.);
#244=ORIENTED_EDGE('',*,*,#495,.F.);
#245=ORIENTED_EDGE('',*,*,#496,.T.);
#246=ORIENTED_EDGE('',*,*,#497,.F.);
#247=ORIENTED_EDGE('',*,*,#498,.T.);
#248=ORIENTED_EDGE('',*,*,#499,.F.);
#249=ORIENTED_EDGE('',*,*,#500,.T.);
#250=ORIENTED_EDGE('',*,*,#501,.F.);
#251=ORIENTED_EDGE('',*,*,#502,.F.);
#252=ORIENTED_EDGE('',*,*,#503,.F.);
#253=ORIENTED_EDGE('',*,*,#504,.F.);
#254=ORIENTED_EDGE('',*,*,#505,.F.);
#255=ORIENTED_EDGE('',*,*,#506,.F.);
#256=ORIENTED_EDGE('',*,*,#507,.T.);
#257=ORIENTED_EDGE('',*,*,#508,.T.);
#258=ORIENTED_EDGE('',*,*,#488,.T.);
#259=ORIENTED_EDGE('',*,*,#492,.T.);
#260=ORIENTED_EDGE('',*,*,#509,.F.);
#261=ORIENTED_EDGE('',*,*,#510,.T.);
#262=ORIENTED_EDGE('',*,*,#511,.T.);
#263=ORIENTED_EDGE('',*,*,#512,.F.);
#264=ORIENTED_EDGE('',*,*,#513,.F.);
#265=ORIENTED_EDGE('',*,*,#514,.F.);
#266=ORIENTED_EDGE('',*,*,#515,.T.);
#267=ORIENTED_EDGE('',*,*,#516,.T.);
#268=ORIENTED_EDGE('',*,*,#517,.F.);
#269=ORIENTED_EDGE('',*,*,#518,.T.);
#270=ORIENTED_EDGE('',*,*,#509,.T.);
#271=ORIENTED_EDGE('',*,*,#491,.T.);
#272=ORIENTED_EDGE('',*,*,#517,.T.);
#273=ORIENTED_EDGE('',*,*,#519,.T.);
#274=ORIENTED_EDGE('',*,*,#520,.F.);
#275=ORIENTED_EDGE('',*,*,#521,.T.);
#276=ORIENTED_EDGE('',*,*,#522,.F.);
#277=ORIENTED_EDGE('',*,*,#523,.F.);
#278=ORIENTED_EDGE('',*,*,#524,.F.);
#279=ORIENTED_EDGE('',*,*,#525,.F.);
#280=ORIENTED_EDGE('',*,*,#526,.F.);
#281=ORIENTED_EDGE('',*,*,#510,.F.);
#282=ORIENTED_EDGE('',*,*,#518,.F.);
#283=ORIENTED_EDGE('',*,*,#521,.F.);
#284=ORIENTED_EDGE('',*,*,#527,.F.);
#285=ORIENTED_EDGE('',*,*,#489,.T.);
#286=ORIENTED_EDGE('',*,*,#511,.F.);
#287=ORIENTED_EDGE('',*,*,#526,.T.);
#288=ORIENTED_EDGE('',*,*,#520,.T.);
#289=ORIENTED_EDGE('',*,*,#528,.T.);
#290=ORIENTED_EDGE('',*,*,#506,.T.);
#291=ORIENTED_EDGE('',*,*,#529,.F.);
#292=ORIENTED_EDGE('',*,*,#530,.F.);
#293=ORIENTED_EDGE('',*,*,#516,.F.);
#294=ORIENTED_EDGE('',*,*,#531,.T.);
#295=ORIENTED_EDGE('',*,*,#507,.F.);
#296=ORIENTED_EDGE('',*,*,#528,.F.);
#297=ORIENTED_EDGE('',*,*,#519,.F.);
#298=ORIENTED_EDGE('',*,*,#532,.F.);
#299=ORIENTED_EDGE('',*,*,#508,.F.);
#300=ORIENTED_EDGE('',*,*,#531,.F.);
#301=ORIENTED_EDGE('',*,*,#515,.F.);
#302=ORIENTED_EDGE('',*,*,#527,.T.);
#303=ORIENTED_EDGE('',*,*,#533,.T.);
#304=ORIENTED_EDGE('',*,*,#512,.T.);
#305=ORIENTED_EDGE('',*,*,#490,.T.);
#306=ORIENTED_EDGE('',*,*,#486,.T.);
#307=ORIENTED_EDGE('',*,*,#529,.T.);
#308=ORIENTED_EDGE('',*,*,#505,.T.);
#309=ORIENTED_EDGE('',*,*,#532,.T.);
#310=ORIENTED_EDGE('',*,*,#514,.T.);
#311=ORIENTED_EDGE('',*,*,#534,.T.);
#312=ORIENTED_EDGE('',*,*,#513,.T.);
#313=ORIENTED_EDGE('',*,*,#533,.F.);
#314=ORIENTED_EDGE('',*,*,#530,.T.);
#315=ORIENTED_EDGE('',*,*,#534,.F.);
#316=ORIENTED_EDGE('',*,*,#495,.T.);
#317=ORIENTED_EDGE('',*,*,#535,.T.);
#318=ORIENTED_EDGE('',*,*,#536,.T.);
#319=ORIENTED_EDGE('',*,*,#537,.T.);
#320=ORIENTED_EDGE('',*,*,#538,.T.);
#321=ORIENTED_EDGE('',*,*,#539,.T.);
#322=ORIENTED_EDGE('',*,*,#497,.T.);
#323=ORIENTED_EDGE('',*,*,#540,.T.);
#324=ORIENTED_EDGE('',*,*,#541,.T.);
#325=ORIENTED_EDGE('',*,*,#542,.T.);
#326=ORIENTED_EDGE('',*,*,#499,.T.);
#327=ORIENTED_EDGE('',*,*,#543,.T.);
#328=ORIENTED_EDGE('',*,*,#544,.T.);
#329=ORIENTED_EDGE('',*,*,#545,.T.);
#330=ORIENTED_EDGE('',*,*,#546,.T.);
#331=ORIENTED_EDGE('',*,*,#547,.T.);
#332=ORIENTED_EDGE('',*,*,#548,.T.);
#333=ORIENTED_EDGE('',*,*,#549,.T.);
#334=ORIENTED_EDGE('',*,*,#550,.T.);
#335=ORIENTED_EDGE('',*,*,#551,.T.);
#336=ORIENTED_EDGE('',*,*,#484,.F.);
#337=ORIENTED_EDGE('',*,*,#552,.T.);
#338=ORIENTED_EDGE('',*,*,#553,.F.);
#339=ORIENTED_EDGE('',*,*,#554,.T.);
#340=ORIENTED_EDGE('',*,*,#541,.F.);
#341=ORIENTED_EDGE('',*,*,#555,.T.);
#342=ORIENTED_EDGE('',*,*,#538,.F.);
#343=ORIENTED_EDGE('',*,*,#556,.T.);
#344=ORIENTED_EDGE('',*,*,#536,.F.);
#345=ORIENTED_EDGE('',*,*,#557,.T.);
#346=ORIENTED_EDGE('',*,*,#553,.T.);
#347=ORIENTED_EDGE('',*,*,#558,.T.);
#348=ORIENTED_EDGE('',*,*,#501,.T.);
#349=ORIENTED_EDGE('',*,*,#559,.T.);
#350=ORIENTED_EDGE('',*,*,#500,.F.);
#351=ORIENTED_EDGE('',*,*,#542,.F.);
#352=ORIENTED_EDGE('',*,*,#554,.F.);
#353=ORIENTED_EDGE('',*,*,#559,.F.);
#354=ORIENTED_EDGE('',*,*,#494,.F.);
#355=ORIENTED_EDGE('',*,*,#485,.F.);
#356=ORIENTED_EDGE('',*,*,#557,.F.);
#357=ORIENTED_EDGE('',*,*,#535,.F.);
#358=ORIENTED_EDGE('',*,*,#498,.F.);
#359=ORIENTED_EDGE('',*,*,#539,.F.);
#360=ORIENTED_EDGE('',*,*,#555,.F.);
#361=ORIENTED_EDGE('',*,*,#543,.F.);
#362=ORIENTED_EDGE('',*,*,#496,.F.);
#363=ORIENTED_EDGE('',*,*,#537,.F.);
#364=ORIENTED_EDGE('',*,*,#556,.F.);
#365=ORIENTED_EDGE('',*,*,#540,.F.);
#366=ORIENTED_EDGE('',*,*,#548,.F.);
#367=ORIENTED_EDGE('',*,*,#560,.T.);
#368=ORIENTED_EDGE('',*,*,#561,.T.);
#369=ORIENTED_EDGE('',*,*,#562,.T.);
#370=ORIENTED_EDGE('',*,*,#563,.T.);
#371=ORIENTED_EDGE('',*,*,#564,.T.);
#372=ORIENTED_EDGE('',*,*,#550,.F.);
#373=ORIENTED_EDGE('',*,*,#565,.T.);
#374=ORIENTED_EDGE('',*,*,#544,.F.);
#375=ORIENTED_EDGE('',*,*,#566,.T.);
#376=ORIENTED_EDGE('',*,*,#567,.T.);
#377=ORIENTED_EDGE('',*,*,#568,.T.);
#378=ORIENTED_EDGE('',*,*,#546,.F.);
#379=ORIENTED_EDGE('',*,*,#569,.T.);
#380=ORIENTED_EDGE('',*,*,#570,.T.);
#381=ORIENTED_EDGE('',*,*,#571,.T.);
#382=ORIENTED_EDGE('',*,*,#567,.F.);
#383=ORIENTED_EDGE('',*,*,#572,.T.);
#384=ORIENTED_EDGE('',*,*,#563,.F.);
#385=ORIENTED_EDGE('',*,*,#573,.T.);
#386=ORIENTED_EDGE('',*,*,#561,.F.);
#387=ORIENTED_EDGE('',*,*,#574,.T.);
#388=ORIENTED_EDGE('',*,*,#570,.F.);
#389=ORIENTED_EDGE('',*,*,#575,.T.);
#390=ORIENTED_EDGE('',*,*,#551,.F.);
#391=ORIENTED_EDGE('',*,*,#564,.F.);
#392=ORIENTED_EDGE('',*,*,#572,.F.);
#393=ORIENTED_EDGE('',*,*,#566,.F.);
#394=ORIENTED_EDGE('',*,*,#545,.F.);
#395=ORIENTED_EDGE('',*,*,#568,.F.);
#396=ORIENTED_EDGE('',*,*,#575,.F.);
#397=ORIENTED_EDGE('',*,*,#569,.F.);
#398=ORIENTED_EDGE('',*,*,#547,.F.);
#399=ORIENTED_EDGE('',*,*,#571,.F.);
#400=ORIENTED_EDGE('',*,*,#574,.F.);
#401=ORIENTED_EDGE('',*,*,#560,.F.);
#402=ORIENTED_EDGE('',*,*,#549,.F.);
#403=ORIENTED_EDGE('',*,*,#562,.F.);
#404=ORIENTED_EDGE('',*,*,#573,.F.);
#405=ORIENTED_EDGE('',*,*,#565,.F.);
#406=ORIENTED_EDGE('',*,*,#504,.T.);
#407=ORIENTED_EDGE('',*,*,#525,.T.);
#408=ORIENTED_EDGE('',*,*,#503,.T.);
#409=ORIENTED_EDGE('',*,*,#524,.T.);
#410=ORIENTED_EDGE('',*,*,#502,.T.);
#411=ORIENTED_EDGE('',*,*,#523,.T.);
#412=ORIENTED_EDGE('',*,*,#522,.T.);
#413=ORIENTED_EDGE('',*,*,#493,.T.);
#414=ORIENTED_EDGE('',*,*,#558,.F.);
#415=ORIENTED_EDGE('',*,*,#552,.F.);
#416=ORIENTED_EDGE('',*,*,#483,.F.);
#417=VERTEX_POINT('',#971);
#418=VERTEX_POINT('',#972);
#419=VERTEX_POINT('',#974);
#420=VERTEX_POINT('',#976);
#421=VERTEX_POINT('',#980);
#422=VERTEX_POINT('',#981);
#423=VERTEX_POINT('',#983);
#424=VERTEX_POINT('',#985);
#425=VERTEX_POINT('',#989);
#426=VERTEX_POINT('',#991);
#427=VERTEX_POINT('',#995);
#428=VERTEX_POINT('',#997);
#429=VERTEX_POINT('',#999);
#430=VERTEX_POINT('',#1001);
#431=VERTEX_POINT('',#1003);
#432=VERTEX_POINT('',#1005);
#433=VERTEX_POINT('',#1007);
#434=VERTEX_POINT('',#1009);
#435=VERTEX_POINT('',#1012);
#436=VERTEX_POINT('',#1014);
#437=VERTEX_POINT('',#1016);
#438=VERTEX_POINT('',#1018);
#439=VERTEX_POINT('',#1019);
#440=VERTEX_POINT('',#1021);
#441=VERTEX_POINT('',#1023);
#442=VERTEX_POINT('',#1027);
#443=VERTEX_POINT('',#1029);
#444=VERTEX_POINT('',#1033);
#445=VERTEX_POINT('',#1035);
#446=VERTEX_POINT('',#1037);
#447=VERTEX_POINT('',#1039);
#448=VERTEX_POINT('',#1041);
#449=VERTEX_POINT('',#1043);
#450=VERTEX_POINT('',#1047);
#451=VERTEX_POINT('',#1049);
#452=VERTEX_POINT('',#1053);
#453=VERTEX_POINT('',#1055);
#454=VERTEX_POINT('',#1057);
#455=VERTEX_POINT('',#1059);
#456=VERTEX_POINT('',#1063);
#457=VERTEX_POINT('',#1066);
#458=VERTEX_POINT('',#1079);
#459=VERTEX_POINT('',#1081);
#460=VERTEX_POINT('',#1085);
#461=VERTEX_POINT('',#1086);
#462=VERTEX_POINT('',#1091);
#463=VERTEX_POINT('',#1092);
#464=VERTEX_POINT('',#1097);
#465=VERTEX_POINT('',#1098);
#466=VERTEX_POINT('',#1100);
#467=VERTEX_POINT('',#1102);
#468=VERTEX_POINT('',#1104);
#469=VERTEX_POINT('',#1106);
#470=VERTEX_POINT('',#1108);
#471=VERTEX_POINT('',#1110);
#472=VERTEX_POINT('',#1113);
#473=VERTEX_POINT('',#1115);
#474=VERTEX_POINT('',#1129);
#475=VERTEX_POINT('',#1131);
#476=VERTEX_POINT('',#1135);
#477=VERTEX_POINT('',#1136);
#478=VERTEX_POINT('',#1141);
#479=VERTEX_POINT('',#1143);
#480=VERTEX_POINT('',#1147);
#481=VERTEX_POINT('',#1149);
#482=EDGE_CURVE('',#417,#418,#576,.T.);
#483=EDGE_CURVE('',#418,#419,#577,.T.);
#484=EDGE_CURVE('',#419,#420,#578,.T.);
#485=EDGE_CURVE('',#420,#417,#579,.T.);
#486=EDGE_CURVE('',#421,#422,#580,.T.);
#487=EDGE_CURVE('',#421,#423,#581,.T.);
#488=EDGE_CURVE('',#424,#423,#582,.T.);
#489=EDGE_CURVE('',#422,#424,#583,.T.);
#490=EDGE_CURVE('',#425,#421,#584,.T.);
#491=EDGE_CURVE('',#426,#425,#585,.T.);
#492=EDGE_CURVE('',#423,#426,#586,.T.);
#493=EDGE_CURVE('',#418,#427,#66,.T.);
#494=EDGE_CURVE('',#417,#428,#67,.T.);
#495=EDGE_CURVE('',#429,#428,#587,.T.);
#496=EDGE_CURVE('',#429,#430,#68,.T.);
#497=EDGE_CURVE('',#431,#430,#588,.T.);
#498=EDGE_CURVE('',#431,#432,#69,.T.);
#499=EDGE_CURVE('',#433,#432,#589,.T.);
#500=EDGE_CURVE('',#433,#434,#70,.T.);
#501=EDGE_CURVE('',#427,#434,#590,.T.);
#502=EDGE_CURVE('',#435,#435,#71,.T.);
#503=EDGE_CURVE('',#436,#436,#72,.T.);
#504=EDGE_CURVE('',#437,#437,#73,.T.);
#505=EDGE_CURVE('',#438,#439,#591,.T.);
#506=EDGE_CURVE('',#440,#438,#592,.T.);
#507=EDGE_CURVE('',#440,#441,#593,.T.);
#508=EDGE_CURVE('',#441,#439,#594,.T.);
#509=EDGE_CURVE('',#442,#426,#595,.T.);
#510=EDGE_CURVE('',#442,#443,#596,.T.);
#511=EDGE_CURVE('',#443,#424,#597,.T.);
#512=EDGE_CURVE('',#444,#425,#598,.T.);
#513=EDGE_CURVE('',#445,#444,#599,.T.);
#514=EDGE_CURVE('',#446,#445,#600,.T.);
#515=EDGE_CURVE('',#446,#447,#601,.T.);
#516=EDGE_CURVE('',#447,#448,#602,.T.);
#517=EDGE_CURVE('',#449,#448,#603,.T.);
#518=EDGE_CURVE('',#449,#442,#604,.T.);
#519=EDGE_CURVE('',#448,#450,#605,.T.);
#520=EDGE_CURVE('',#451,#450,#606,.T.);
#521=EDGE_CURVE('',#451,#449,#607,.T.);
#522=EDGE_CURVE('',#452,#452,#74,.T.);
#523=EDGE_CURVE('',#453,#453,#75,.T.);
#524=EDGE_CURVE('',#454,#454,#76,.T.);
#525=EDGE_CURVE('',#455,#455,#77,.T.);
#526=EDGE_CURVE('',#443,#451,#608,.T.);
#527=EDGE_CURVE('',#422,#456,#609,.T.);
#528=EDGE_CURVE('',#450,#440,#610,.T.);
#529=EDGE_CURVE('',#457,#438,#611,.T.);
#530=EDGE_CURVE('',#456,#457,#612,.T.);
#531=EDGE_CURVE('',#447,#441,#613,.T.);
#532=EDGE_CURVE('',#439,#446,#614,.T.);
#533=EDGE_CURVE('',#456,#444,#615,.T.);
#534=EDGE_CURVE('',#445,#457,#616,.T.);
#535=EDGE_CURVE('',#428,#458,#617,.T.);
#536=EDGE_CURVE('',#458,#459,#618,.T.);
#537=EDGE_CURVE('',#459,#429,#619,.T.);
#538=EDGE_CURVE('',#460,#461,#620,.T.);
#539=EDGE_CURVE('',#461,#431,#621,.T.);
#540=EDGE_CURVE('',#430,#460,#622,.T.);
#541=EDGE_CURVE('',#462,#463,#623,.T.);
#542=EDGE_CURVE('',#463,#433,#624,.T.);
#543=EDGE_CURVE('',#432,#462,#625,.T.);
#544=EDGE_CURVE('',#464,#465,#626,.T.);
#545=EDGE_CURVE('',#465,#466,#78,.T.);
#546=EDGE_CURVE('',#466,#467,#627,.T.);
#547=EDGE_CURVE('',#467,#468,#79,.T.);
#548=EDGE_CURVE('',#468,#469,#628,.T.);
#549=EDGE_CURVE('',#469,#470,#80,.T.);
#550=EDGE_CURVE('',#470,#471,#629,.T.);
#551=EDGE_CURVE('',#471,#464,#81,.T.);
#552=EDGE_CURVE('',#419,#472,#82,.T.);
#553=EDGE_CURVE('',#473,#472,#630,.T.);
#554=EDGE_CURVE('',#473,#463,#83,.T.);
#555=EDGE_CURVE('',#462,#461,#84,.T.);
#556=EDGE_CURVE('',#460,#459,#85,.T.);
#557=EDGE_CURVE('',#458,#420,#86,.T.);
#558=EDGE_CURVE('',#472,#427,#631,.T.);
#559=EDGE_CURVE('',#434,#473,#632,.T.);
#560=EDGE_CURVE('',#468,#474,#633,.T.);
#561=EDGE_CURVE('',#474,#475,#634,.T.);
#562=EDGE_CURVE('',#475,#469,#635,.T.);
#563=EDGE_CURVE('',#476,#477,#636,.T.);
#564=EDGE_CURVE('',#477,#471,#637,.T.);
#565=EDGE_CURVE('',#470,#476,#638,.T.);
#566=EDGE_CURVE('',#464,#478,#639,.T.);
#567=EDGE_CURVE('',#478,#479,#640,.T.);
#568=EDGE_CURVE('',#479,#465,#641,.T.);
#569=EDGE_CURVE('',#466,#480,#642,.T.);
#570=EDGE_CURVE('',#480,#481,#643,.T.);
#571=EDGE_CURVE('',#481,#467,#644,.T.);
#572=EDGE_CURVE('',#478,#477,#87,.T.);
#573=EDGE_CURVE('',#476,#475,#88,.T.);
#574=EDGE_CURVE('',#474,#481,#89,.T.);
#575=EDGE_CURVE('',#480,#479,#90,.T.);
#576=LINE('',#970,#645);
#577=LINE('',#973,#646);
#578=LINE('',#975,#647);
#579=LINE('',#977,#648);
#580=LINE('',#979,#649);
#581=LINE('',#982,#650);
#582=LINE('',#984,#651);
#583=LINE('',#986,#652);
#584=LINE('',#988,#653);
#585=LINE('',#990,#654);
#586=LINE('',#992,#655);
#587=LINE('',#998,#656);
#588=LINE('',#1002,#657);
#589=LINE('',#1006,#658);
#590=LINE('',#1010,#659);
#591=LINE('',#1017,#660);
#592=LINE('',#1020,#661);
#593=LINE('',#1022,#662);
#594=LINE('',#1024,#663);
#595=LINE('',#1026,#664);
#596=LINE('',#1028,#665);
#597=LINE('',#1030,#666);
#598=LINE('',#1032,#667);
#599=LINE('',#1034,#668);
#600=LINE('',#1036,#669);
#601=LINE('',#1038,#670);
#602=LINE('',#1040,#671);
#603=LINE('',#1042,#672);
#604=LINE('',#1044,#673);
#605=LINE('',#1046,#674);
#606=LINE('',#1048,#675);
#607=LINE('',#1050,#676);
#608=LINE('',#1060,#677);
#609=LINE('',#1062,#678);
#610=LINE('',#1064,#679);
#611=LINE('',#1065,#680);
#612=LINE('',#1067,#681);
#613=LINE('',#1069,#682);
#614=LINE('',#1071,#683);
#615=LINE('',#1073,#684);
#616=LINE('',#1075,#685);
#617=LINE('',#1078,#686);
#618=LINE('',#1080,#687);
#619=LINE('',#1082,#688);
#620=LINE('',#1084,#689);
#621=LINE('',#1087,#690);
#622=LINE('',#1088,#691);
#623=LINE('',#1090,#692);
#624=LINE('',#1093,#693);
#625=LINE('',#1094,#694);
#626=LINE('',#1096,#695);
#627=LINE('',#1101,#696);
#628=LINE('',#1105,#697);
#629=LINE('',#1109,#698);
#630=LINE('',#1114,#699);
#631=LINE('',#1121,#700);
#632=LINE('',#1122,#701);
#633=LINE('',#1128,#702);
#634=LINE('',#1130,#703);
#635=LINE('',#1132,#704);
#636=LINE('',#1134,#705);
#637=LINE('',#1137,#706);
#638=LINE('',#1138,#707);
#639=LINE('',#1140,#708);
#640=LINE('',#1142,#709);
#641=LINE('',#1144,#710);
#642=LINE('',#1146,#711);
#643=LINE('',#1148,#712);
#644=LINE('',#1150,#713);
#645=VECTOR('',#778,1.);
#646=VECTOR('',#779,1.);
#647=VECTOR('',#780,1.);
#648=VECTOR('',#781,1.);
#649=VECTOR('',#784,1.);
#650=VECTOR('',#785,1.);
#651=VECTOR('',#786,1.);
#652=VECTOR('',#787,1.);
#653=VECTOR('',#790,1.);
#654=VECTOR('',#791,1.);
#655=VECTOR('',#792,1.);
#656=VECTOR('',#799,1.);
#657=VECTOR('',#802,1.);
#658=VECTOR('',#805,1.);
#659=VECTOR('',#808,1.);
#660=VECTOR('',#815,1.);
#661=VECTOR('',#816,1.);
#662=VECTOR('',#817,1.);
#663=VECTOR('',#818,1.);
#664=VECTOR('',#821,1.);
#665=VECTOR('',#822,1.);
#666=VECTOR('',#823,1.);
#667=VECTOR('',#826,1.);
#668=VECTOR('',#827,1.);
#669=VECTOR('',#828,1.);
#670=VECTOR('',#829,1.);
#671=VECTOR('',#830,1.);
#672=VECTOR('',#831,1.);
#673=VECTOR('',#832,1.);
#674=VECTOR('',#835,1.);
#675=VECTOR('',#836,1.);
#676=VECTOR('',#837,1.);
#677=VECTOR('',#848,1.);
#678=VECTOR('',#851,1.);
#679=VECTOR('',#852,1.);
#680=VECTOR('',#853,1.);
#681=VECTOR('',#854,1.);
#682=VECTOR('',#857,1.);
#683=VECTOR('',#860,1.);
#684=VECTOR('',#863,1.);
#685=VECTOR('',#866,1.);
#686=VECTOR('',#871,1.);
#687=VECTOR('',#872,1.);
#688=VECTOR('',#873,1.);
#689=VECTOR('',#876,1.);
#690=VECTOR('',#877,1.);
#691=VECTOR('',#878,1.);
#692=VECTOR('',#881,1.);
#693=VECTOR('',#882,1.);
#694=VECTOR('',#883,1.);
#695=VECTOR('',#886,1.);
#696=VECTOR('',#889,1.);
#697=VECTOR('',#892,1.);
#698=VECTOR('',#895,1.);
#699=VECTOR('',#900,1.);
#700=VECTOR('',#911,1.);
#701=VECTOR('',#912,1.);
#702=VECTOR('',#923,1.);
#703=VECTOR('',#924,1.);
#704=VECTOR('',#925,1.);
#705=VECTOR('',#928,1.);
#706=VECTOR('',#929,1.);
#707=VECTOR('',#930,1.);
#708=VECTOR('',#933,1.);
#709=VECTOR('',#934,1.);
#710=VECTOR('',#935,1.);
#711=VECTOR('',#938,1.);
#712=VECTOR('',#939,1.);
#713=VECTOR('',#940,1.);
#714=AXIS2_PLACEMENT_3D('',#969,#776,#777);
#715=AXIS2_PLACEMENT_3D('',#978,#782,#783);
#716=AXIS2_PLACEMENT_3D('',#987,#788,#789);
#717=AXIS2_PLACEMENT_3D('',#993,#793,#794);
#718=AXIS2_PLACEMENT_3D('',#994,#795,#796);
#719=AXIS2_PLACEMENT_3D('',#996,#797,#798);
#720=AXIS2_PLACEMENT_3D('',#1000,#800,#801);
#721=AXIS2_PLACEMENT_3D('',#1004,#803,#804);
#722=AXIS2_PLACEMENT_3D('',#1008,#806,#807);
#723=AXIS2_PLACEMENT_3D('',#1011,#809,#810);
#724=AXIS2_PLACEMENT_3D('',#1013,#811,#812);
#725=AXIS2_PLACEMENT_3D('',#1015,#813,#814);
#726=AXIS2_PLACEMENT_3D('',#1025,#819,#820);
#727=AXIS2_PLACEMENT_3D('',#1031,#824,#825);
#728=AXIS2_PLACEMENT_3D('',#1045,#833,#834);
#729=AXIS2_PLACEMENT_3D('',#1051,#838,#839);
#730=AXIS2_PLACEMENT_3D('',#1052,#840,#841);
#731=AXIS2_PLACEMENT_3D('',#1054,#842,#843);
#732=AXIS2_PLACEMENT_3D('',#1056,#844,#845);
#733=AXIS2_PLACEMENT_3D('',#1058,#846,#847);
#734=AXIS2_PLACEMENT_3D('',#1061,#849,#850);
#735=AXIS2_PLACEMENT_3D('',#1068,#855,#856);
#736=AXIS2_PLACEMENT_3D('',#1070,#858,#859);
#737=AXIS2_PLACEMENT_3D('',#1072,#861,#862);
#738=AXIS2_PLACEMENT_3D('',#1074,#864,#865);
#739=AXIS2_PLACEMENT_3D('',#1076,#867,#868);
#740=AXIS2_PLACEMENT_3D('',#1077,#869,#870);
#741=AXIS2_PLACEMENT_3D('',#1083,#874,#875);
#742=AXIS2_PLACEMENT_3D('',#1089,#879,#880);
#743=AXIS2_PLACEMENT_3D('',#1095,#884,#885);
#744=AXIS2_PLACEMENT_3D('',#1099,#887,#888);
#745=AXIS2_PLACEMENT_3D('',#1103,#890,#891);
#746=AXIS2_PLACEMENT_3D('',#1107,#893,#894);
#747=AXIS2_PLACEMENT_3D('',#1111,#896,#897);
#748=AXIS2_PLACEMENT_3D('',#1112,#898,#899);
#749=AXIS2_PLACEMENT_3D('',#1116,#901,#902);
#750=AXIS2_PLACEMENT_3D('',#1117,#903,#904);
#751=AXIS2_PLACEMENT_3D('',#1118,#905,#906);
#752=AXIS2_PLACEMENT_3D('',#1119,#907,#908);
#753=AXIS2_PLACEMENT_3D('',#1120,#909,#910);
#754=AXIS2_PLACEMENT_3D('',#1123,#913,#914);
#755=AXIS2_PLACEMENT_3D('',#1124,#915,#916);
#756=AXIS2_PLACEMENT_3D('',#1125,#917,#918);
#757=AXIS2_PLACEMENT_3D('',#1126,#919,#920);
#758=AXIS2_PLACEMENT_3D('',#1127,#921,#922);
#759=AXIS2_PLACEMENT_3D('',#1133,#926,#927);
#760=AXIS2_PLACEMENT_3D('',#1139,#931,#932);
#761=AXIS2_PLACEMENT_3D('',#1145,#936,#937);
#762=AXIS2_PLACEMENT_3D('',#1151,#941,#942);
#763=AXIS2_PLACEMENT_3D('',#1152,#943,#944);
#764=AXIS2_PLACEMENT_3D('',#1153,#945,#946);
#765=AXIS2_PLACEMENT_3D('',#1154,#947,#948);
#766=AXIS2_PLACEMENT_3D('',#1155,#949,#950);
#767=AXIS2_PLACEMENT_3D('',#1156,#951,#952);
#768=AXIS2_PLACEMENT_3D('',#1157,#953,#954);
#769=AXIS2_PLACEMENT_3D('',#1158,#955,#956);
#770=AXIS2_PLACEMENT_3D('',#1159,#957,#958);
#771=AXIS2_PLACEMENT_3D('',#1160,#959,#960);
#772=AXIS2_PLACEMENT_3D('',#1161,#961,#962);
#773=AXIS2_PLACEMENT_3D('',#1162,#963,#964);
#774=AXIS2_PLACEMENT_3D('',#1163,#965,#966);
#775=AXIS2_PLACEMENT_3D('',#1164,#967,#968);
#776=DIRECTION('',(0.,0.,1.));
#777=DIRECTION('',(1.,0.,0.));
#778=DIRECTION('',(0.,1.,0.));
#779=DIRECTION('',(0.,0.,-1.));
#780=DIRECTION('',(0.,-1.,0.));
#781=DIRECTION('',(0.,0.,1.));
#782=DIRECTION('',(1.,0.,0.));
#783=DIRECTION('',(0.,0.,-1.));
#784=DIRECTION('',(1.,0.,0.));
#785=DIRECTION('',(0.,-1.,0.));
#786=DIRECTION('',(-1.,0.,0.));
#787=DIRECTION('',(0.,-1.,0.));
#788=DIRECTION('',(0.,0.,1.));
#789=DIRECTION('',(1.,0.,0.));
#790=DIRECTION('',(0.707106781186548,0.,0.707106781186548));
#791=DIRECTION('',(0.,1.,0.));
#792=DIRECTION('',(-0.707106781186548,0.,-0.707106781186548));
#793=DIRECTION('',(0.707106781186547,0.,-0.707106781186547));
#794=DIRECTION('',(0.,1.,0.));
#795=DIRECTION('',(0.,0.,1.));
#796=DIRECTION('',(1.,0.,0.));
#797=DIRECTION('',(0.,0.,-1.));
#798=DIRECTION('',(0.999999999999995,0.,0.));
#799=DIRECTION('',(1.,0.,0.));
#800=DIRECTION('',(0.,0.,-1.));
#801=DIRECTION('',(1.,0.,0.));
#802=DIRECTION('',(0.,-1.,0.));
#803=DIRECTION('',(0.,0.,-1.));
#804=DIRECTION('',(1.,0.,0.));
#805=DIRECTION('',(-1.,0.,0.));
#806=DIRECTION('',(0.,0.,-1.));
#807=DIRECTION('',(0.999999999999995,0.,0.));
#808=DIRECTION('',(0.,1.,0.));
#809=DIRECTION('',(0.,0.,1.));
#810=DIRECTION('',(1.,0.,0.));
#811=DIRECTION('',(0.,0.,1.));
#812=DIRECTION('',(1.,0.,0.));
#813=DIRECTION('',(0.,0.,1.));
#814=DIRECTION('',(1.,0.,0.));
#815=DIRECTION('',(-1.,0.,0.));
#816=DIRECTION('',(0.,-1.,0.));
#817=DIRECTION('',(-1.,0.,0.));
#818=DIRECTION('',(0.,-1.,0.));
#819=DIRECTION('',(0.,0.,1.));
#820=DIRECTION('',(1.,0.,0.));
#821=DIRECTION('',(0.,0.,1.));
#822=DIRECTION('',(1.,0.,0.));
#823=DIRECTION('',(0.,0.,1.));
#824=DIRECTION('',(0.,-1.,0.));
#825=DIRECTION('',(0.,0.,-1.));
#826=DIRECTION('',(0.,0.,1.));
#827=DIRECTION('',(0.,-1.,0.));
#828=DIRECTION('',(0.,0.,-1.));
#829=DIRECTION('',(0.,1.,0.));
#830=DIRECTION('',(0.,0.707106781186548,-0.707106781186548));
#831=DIRECTION('',(0.,0.,1.));
#832=DIRECTION('',(0.,-1.,0.));
#833=DIRECTION('',(-1.,0.,0.));
#834=DIRECTION('',(0.,0.,1.));
#835=DIRECTION('',(1.,0.,0.));
#836=DIRECTION('',(0.,0.,1.));
#837=DIRECTION('',(-1.,0.,0.));
#838=DIRECTION('',(0.,1.,0.));
#839=DIRECTION('',(0.,0.,1.));
#840=DIRECTION('',(0.,0.,-1.));
#841=DIRECTION('',(-1.,0.,0.));
#842=DIRECTION('',(0.,0.,-1.));
#843=DIRECTION('',(-1.,0.,0.));
#844=DIRECTION('',(0.,0.,-1.));
#845=DIRECTION('',(-1.,0.,0.));
#846=DIRECTION('',(0.,0.,-1.));
#847=DIRECTION('',(-1.,0.,0.));
#848=DIRECTION('',(0.,1.,0.));
#849=DIRECTION('',(0.,0.,-1.));
#850=DIRECTION('',(-1.,0.,0.));
#851=DIRECTION('',(0.,0.,-1.));
#852=DIRECTION('',(0.,-0.707106781186548,0.707106781186548));
#853=DIRECTION('',(0.,0.,1.));
#854=DIRECTION('',(0.,1.,0.));
#855=DIRECTION('',(1.,0.,0.));
#856=DIRECTION('',(0.,0.,-1.));
#857=DIRECTION('',(0.577350269189626,-0.577350269189626,0.577350269189626));
#858=DIRECTION('',(0.,-0.707106781186548,-0.707106781186548));
#859=DIRECTION('',(1.,0.,0.));
#860=DIRECTION('',(-0.707106781186548,0.,-0.707106781186548));
#861=DIRECTION('',(0.707106781186547,0.,-0.707106781186547));
#862=DIRECTION('',(0.,1.,0.));
#863=DIRECTION('',(-1.,0.,0.));
#864=DIRECTION('',(0.,-1.,0.));
#865=DIRECTION('',(0.,0.,-1.));
#866=DIRECTION('',(1.,0.,0.));
#867=DIRECTION('',(0.,1.,0.));
#868=DIRECTION('',(0.,0.,1.));
#869=DIRECTION('',(0.,0.,-1.));
#870=DIRECTION('',(-1.,0.,0.));
#871=DIRECTION('',(0.,0.,-1.));
#872=DIRECTION('',(-1.,0.,0.));
#873=DIRECTION('',(0.,0.,1.));
#874=DIRECTION('',(0.,-1.,0.));
#875=DIRECTION('',(0.,0.,-1.));
#876=DIRECTION('',(0.,1.,0.));
#877=DIRECTION('',(0.,0.,1.));
#878=DIRECTION('',(0.,0.,-1.));
#879=DIRECTION('',(-1.,0.,0.));
#880=DIRECTION('',(0.,0.,1.));
#881=DIRECTION('',(1.,0.,0.));
#882=DIRECTION('',(0.,0.,1.));
#883=DIRECTION('',(0.,0.,-1.));
#884=DIRECTION('',(0.,1.,0.));
#885=DIRECTION('',(0.,0.,1.));
#886=DIRECTION('',(1.,0.,0.));
#887=DIRECTION('',(0.,0.,-1.));
#888=DIRECTION('',(-1.,0.,0.));
#889=DIRECTION('',(0.,-1.,0.));
#890=DIRECTION('',(0.,0.,-1.));
#891=DIRECTION('',(-1.,0.,0.));
#892=DIRECTION('',(-1.,0.,0.));
#893=DIRECTION('',(0.,0.,-1.));
#894=DIRECTION('',(-1.,0.,0.));
#895=DIRECTION('',(0.,1.,0.));
#896=DIRECTION('',(0.,0.,-1.));
#897=DIRECTION('',(-1.,0.,0.));
#898=DIRECTION('',(0.,0.,-1.));
#899=DIRECTION('',(-1.,0.,0.));
#900=DIRECTION('',(0.,-1.,0.));
#901=DIRECTION('',(0.,0.,1.));
#902=DIRECTION('',(-0.999999999999995,0.,0.));
#903=DIRECTION('',(0.,0.,1.));
#904=DIRECTION('',(-1.,0.,0.));
#905=DIRECTION('',(0.,0.,1.));
#906=DIRECTION('',(-1.,0.,0.));
#907=DIRECTION('',(0.,0.,1.));
#908=DIRECTION('',(-0.999999999999995,0.,0.));
#909=DIRECTION('',(0.,0.,-1.));
#910=DIRECTION('',(-1.,0.,0.));
#911=DIRECTION('',(0.,0.,1.));
#912=DIRECTION('',(0.,0.,-1.));
#913=DIRECTION('',(1.,0.,0.));
#914=DIRECTION('',(0.,0.,-1.));
#915=DIRECTION('',(0.,0.,1.));
#916=DIRECTION('',(0.999999999999995,0.,0.));
#917=DIRECTION('',(0.,0.,1.));
#918=DIRECTION('',(0.999999999999995,0.,0.));
#919=DIRECTION('',(0.,0.,1.));
#920=DIRECTION('',(1.,0.,0.));
#921=DIRECTION('',(0.,0.,1.));
#922=DIRECTION('',(1.,0.,0.));
#923=DIRECTION('',(0.,0.,-1.));
#924=DIRECTION('',(-1.,0.,0.));
#925=DIRECTION('',(0.,0.,1.));
#926=DIRECTION('',(0.,-1.,0.));
#927=DIRECTION('',(0.,0.,-1.));
#928=DIRECTION('',(0.,1.,0.));
#929=DIRECTION('',(0.,0.,1.));
#930=DIRECTION('',(0.,0.,-1.));
#931=DIRECTION('',(-1.,0.,0.));
#932=DIRECTION('',(0.,0.,1.));
#933=DIRECTION('',(0.,0.,-1.));
#934=DIRECTION('',(1.,0.,0.));
#935=DIRECTION('',(0.,0.,1.));
#936=DIRECTION('',(0.,1.,0.));
#937=DIRECTION('',(0.,0.,1.));
#938=DIRECTION('',(0.,0.,-1.));
#939=DIRECTION('',(0.,-1.,0.));
#940=DIRECTION('',(0.,0.,1.));
#941=DIRECTION('',(1.,0.,0.));
#942=DIRECTION('',(0.,0.,-1.));
#943=DIRECTION('',(0.,0.,1.));
#944=DIRECTION('',(-1.,0.,0.));
#945=DIRECTION('',(0.,0.,1.));
#946=DIRECTION('',(-1.,0.,0.));
#947=DIRECTION('',(0.,0.,1.));
#948=DIRECTION('',(-1.,0.,0.));
#949=DIRECTION('',(0.,0.,1.));
#950=DIRECTION('',(-1.,0.,0.));
#951=DIRECTION('',(0.,0.,-1.));
#952=DIRECTION('',(-1.,0.,0.));
#953=DIRECTION('',(0.,0.,1.));
#954=DIRECTION('',(1.,0.,0.));
#955=DIRECTION('',(0.,0.,1.));
#956=DIRECTION('',(1.,0.,0.));
#957=DIRECTION('',(0.,0.,1.));
#958=DIRECTION('',(1.,0.,0.));
#959=DIRECTION('',(0.,0.,1.));
#960=DIRECTION('',(1.,0.,0.));
#961=DIRECTION('',(0.,0.,-1.));
#962=DIRECTION('',(1.,0.,0.));
#963=DIRECTION('',(0.,0.,-1.));
#964=DIRECTION('',(1.,0.,0.));
#965=DIRECTION('',(0.,0.,-1.));
#966=DIRECTION('',(1.,0.,0.));
#967=DIRECTION('',(0.,0.,-1.));
#968=DIRECTION('',(1.,0.,0.));
#969=CARTESIAN_POINT('',(0.,0.,0.));
#970=CARTESIAN_POINT('',(289.,152.65,82.5));
#971=CARTESIAN_POINT('',(289.,149.7,82.5));
#972=CARTESIAN_POINT('',(289.,222.166522990641,82.5));
#973=CARTESIAN_POINT('',(289.,222.166522990641,82.55));
#974=CARTESIAN_POINT('',(289.,222.166522990641,69.1));
#975=CARTESIAN_POINT('',(289.,209.85,69.1));
#976=CARTESIAN_POINT('',(289.,149.7,69.1));
#977=CARTESIAN_POINT('',(289.,149.7,82.5));
#978=CARTESIAN_POINT('',(289.,209.85,69.1));
#979=CARTESIAN_POINT('',(193.75,30.2,82.5));
#980=CARTESIAN_POINT('',(7.6,30.2,82.5));
#981=CARTESIAN_POINT('',(387.5,30.2,82.5));
#982=CARTESIAN_POINT('',(7.6,152.65,82.5));
#983=CARTESIAN_POINT('',(7.6,0.,82.5));
#984=CARTESIAN_POINT('',(193.75,0.,82.5));
#985=CARTESIAN_POINT('',(387.5,0.,82.5));
#986=CARTESIAN_POINT('',(387.5,152.65,82.5));
#987=CARTESIAN_POINT('',(193.75,152.65,82.5));
#988=CARTESIAN_POINT('',(0.,30.2,74.9));
#989=CARTESIAN_POINT('',(0.,30.2,74.9));
#990=CARTESIAN_POINT('',(0.,152.65,74.9));
#991=CARTESIAN_POINT('',(0.,0.,74.9));
#992=CARTESIAN_POINT('',(59.425,0.,134.325));
#993=CARTESIAN_POINT('',(0.,152.65,74.9));
#994=CARTESIAN_POINT('',(288.6,227.,82.5));
#995=CARTESIAN_POINT('',(289.,231.833477009359,82.5));
#996=CARTESIAN_POINT('',(285.3,149.7,82.5));
#997=CARTESIAN_POINT('',(285.3,146.,82.5));
#998=CARTESIAN_POINT('',(193.75,146.,82.5));
#999=CARTESIAN_POINT('',(156.3,146.,82.5));
#1000=CARTESIAN_POINT('',(156.3,149.7,82.5));
#1001=CARTESIAN_POINT('',(152.6,149.7,82.5));
#1002=CARTESIAN_POINT('',(152.6,152.65,82.5));
#1003=CARTESIAN_POINT('',(152.6,270.,82.5));
#1004=CARTESIAN_POINT('',(156.3,270.,82.5));
#1005=CARTESIAN_POINT('',(156.3,273.7,82.5));
#1006=CARTESIAN_POINT('',(193.75,273.7,82.5));
#1007=CARTESIAN_POINT('',(285.3,273.7,82.5));
#1008=CARTESIAN_POINT('',(285.3,270.,82.5));
#1009=CARTESIAN_POINT('',(289.,270.,82.5));
#1010=CARTESIAN_POINT('',(289.,152.65,82.5));
#1011=CARTESIAN_POINT('',(98.9,227.,82.5));
#1012=CARTESIAN_POINT('',(103.75,227.,82.5));
#1013=CARTESIAN_POINT('',(288.6,78.3,82.5));
#1014=CARTESIAN_POINT('',(293.45,78.3,82.5));
#1015=CARTESIAN_POINT('',(98.9,78.3,82.5));
#1016=CARTESIAN_POINT('',(103.75,78.3,82.5));
#1017=CARTESIAN_POINT('',(193.75,46.1,82.5));
#1018=CARTESIAN_POINT('',(387.5,46.1,82.5));
#1019=CARTESIAN_POINT('',(7.6,46.1,82.5));
#1020=CARTESIAN_POINT('',(387.5,152.65,82.5));
#1021=CARTESIAN_POINT('',(387.5,293.7,82.5));
#1022=CARTESIAN_POINT('',(193.75,293.7,82.5));
#1023=CARTESIAN_POINT('',(7.6,293.7,82.5));
#1024=CARTESIAN_POINT('',(7.6,152.65,82.5));
#1025=CARTESIAN_POINT('',(193.75,152.65,82.5));
#1026=CARTESIAN_POINT('',(0.,0.,0.));
#1027=CARTESIAN_POINT('',(0.,0.,0.));
#1028=CARTESIAN_POINT('',(193.75,0.,0.));
#1029=CARTESIAN_POINT('',(387.5,0.,0.));
#1030=CARTESIAN_POINT('',(387.5,0.,0.));
#1031=CARTESIAN_POINT('',(193.75,0.,0.));
#1032=CARTESIAN_POINT('',(0.,30.2,0.));
#1033=CARTESIAN_POINT('',(0.,30.2,45.7));
#1034=CARTESIAN_POINT('',(0.,152.65,45.7));
#1035=CARTESIAN_POINT('',(0.,46.1,45.7));
#1036=CARTESIAN_POINT('',(0.,46.1,0.));
#1037=CARTESIAN_POINT('',(0.,46.1,74.9));
#1038=CARTESIAN_POINT('',(0.,152.65,74.9));
#1039=CARTESIAN_POINT('',(0.,301.3,74.9));
#1040=CARTESIAN_POINT('',(0.,264.425,111.775));
#1041=CARTESIAN_POINT('',(0.,305.3,70.9));
#1042=CARTESIAN_POINT('',(0.,305.3,0.));
#1043=CARTESIAN_POINT('',(0.,305.3,0.));
#1044=CARTESIAN_POINT('',(0.,152.65,0.));
#1045=CARTESIAN_POINT('',(0.,152.65,0.));
#1046=CARTESIAN_POINT('',(193.75,305.3,70.9));
#1047=CARTESIAN_POINT('',(387.5,305.3,70.9));
#1048=CARTESIAN_POINT('',(387.5,305.3,0.));
#1049=CARTESIAN_POINT('',(387.5,305.3,0.));
#1050=CARTESIAN_POINT('',(193.75,305.3,0.));
#1051=CARTESIAN_POINT('',(193.75,305.3,0.));
#1052=CARTESIAN_POINT('',(288.6,227.,0.));
#1053=CARTESIAN_POINT('',(283.75,227.,0.));
#1054=CARTESIAN_POINT('',(98.9,227.,0.));
#1055=CARTESIAN_POINT('',(94.05,227.,0.));
#1056=CARTESIAN_POINT('',(288.6,78.3,0.));
#1057=CARTESIAN_POINT('',(283.75,78.3,0.));
#1058=CARTESIAN_POINT('',(98.9,78.3,0.));
#1059=CARTESIAN_POINT('',(94.05,78.3,0.));
#1060=CARTESIAN_POINT('',(387.5,152.65,0.));
#1061=CARTESIAN_POINT('',(193.75,152.65,0.));
#1062=CARTESIAN_POINT('',(387.5,30.2,0.));
#1063=CARTESIAN_POINT('',(387.5,30.2,45.7));
#1064=CARTESIAN_POINT('',(387.5,264.425,111.775));
#1065=CARTESIAN_POINT('',(387.5,46.1,0.));
#1066=CARTESIAN_POINT('',(387.5,46.1,45.7));
#1067=CARTESIAN_POINT('',(387.5,152.65,45.7));
#1068=CARTESIAN_POINT('',(387.5,152.65,0.));
#1069=CARTESIAN_POINT('',(61.9166666666667,239.383333333333,136.816666666667));
#1070=CARTESIAN_POINT('',(193.75,305.3,70.9));
#1071=CARTESIAN_POINT('',(0.,46.1,74.9));
#1072=CARTESIAN_POINT('',(0.,152.65,74.9));
#1073=CARTESIAN_POINT('',(193.75,30.2,45.7));
#1074=CARTESIAN_POINT('',(193.75,30.2,45.7));
#1075=CARTESIAN_POINT('',(193.75,46.1,45.7));
#1076=CARTESIAN_POINT('',(193.75,46.1,45.7));
#1077=CARTESIAN_POINT('',(193.75,38.15,45.7));
#1078=CARTESIAN_POINT('',(285.3,146.,69.1));
#1079=CARTESIAN_POINT('',(285.3,146.,69.1));
#1080=CARTESIAN_POINT('',(220.8,146.,69.1));
#1081=CARTESIAN_POINT('',(156.3,146.,69.1));
#1082=CARTESIAN_POINT('',(156.3,146.,82.5));
#1083=CARTESIAN_POINT('',(220.8,146.,69.1));
#1084=CARTESIAN_POINT('',(152.6,209.85,69.1));
#1085=CARTESIAN_POINT('',(152.6,149.7,69.1));
#1086=CARTESIAN_POINT('',(152.6,270.,69.1));
#1087=CARTESIAN_POINT('',(152.6,270.,82.5));
#1088=CARTESIAN_POINT('',(152.6,149.7,69.1));
#1089=CARTESIAN_POINT('',(152.6,209.85,69.1));
#1090=CARTESIAN_POINT('',(220.8,273.7,69.1));
#1091=CARTESIAN_POINT('',(156.3,273.7,69.1));
#1092=CARTESIAN_POINT('',(285.3,273.7,69.1));
#1093=CARTESIAN_POINT('',(285.3,273.7,82.5));
#1094=CARTESIAN_POINT('',(156.3,273.7,69.1));
#1095=CARTESIAN_POINT('',(220.8,273.7,69.1));
#1096=CARTESIAN_POINT('',(220.8,233.9,69.1));
#1097=CARTESIAN_POINT('',(189.4,233.9,69.1));
#1098=CARTESIAN_POINT('',(220.1,233.9,69.1));
#1099=CARTESIAN_POINT('',(220.1,223.9,69.1));
#1100=CARTESIAN_POINT('',(230.1,223.9,69.1));
#1101=CARTESIAN_POINT('',(230.1,209.85,69.1));
#1102=CARTESIAN_POINT('',(230.1,181.,69.1));
#1103=CARTESIAN_POINT('',(220.1,181.,69.1));
#1104=CARTESIAN_POINT('',(220.1,171.,69.1));
#1105=CARTESIAN_POINT('',(220.8,171.,69.1));
#1106=CARTESIAN_POINT('',(189.4,171.,69.1));
#1107=CARTESIAN_POINT('',(189.4,181.,69.1));
#1108=CARTESIAN_POINT('',(179.4,181.,69.1));
#1109=CARTESIAN_POINT('',(179.4,209.85,69.1));
#1110=CARTESIAN_POINT('',(179.4,223.9,69.1));
#1111=CARTESIAN_POINT('',(189.4,223.9,69.1));
#1112=CARTESIAN_POINT('',(288.6,227.,69.1));
#1113=CARTESIAN_POINT('',(289.,231.833477009359,69.1));
#1114=CARTESIAN_POINT('',(289.,209.85,69.1));
#1115=CARTESIAN_POINT('',(289.,270.,69.1));
#1116=CARTESIAN_POINT('',(285.3,270.,69.1));
#1117=CARTESIAN_POINT('',(156.3,270.,69.1));
#1118=CARTESIAN_POINT('',(156.3,149.7,69.1));
#1119=CARTESIAN_POINT('',(285.3,149.7,69.1));
#1120=CARTESIAN_POINT('',(220.8,209.85,69.1));
#1121=CARTESIAN_POINT('',(289.,231.833477009359,82.55));
#1122=CARTESIAN_POINT('',(289.,270.,69.1));
#1123=CARTESIAN_POINT('',(289.,209.85,69.1));
#1124=CARTESIAN_POINT('',(285.3,270.,69.1));
#1125=CARTESIAN_POINT('',(285.3,149.7,69.1));
#1126=CARTESIAN_POINT('',(156.3,270.,69.1));
#1127=CARTESIAN_POINT('',(156.3,149.7,69.1));
#1128=CARTESIAN_POINT('',(220.1,171.,55.7));
#1129=CARTESIAN_POINT('',(220.1,171.,55.7));
#1130=CARTESIAN_POINT('',(204.75,171.,55.7));
#1131=CARTESIAN_POINT('',(189.4,171.,55.7));
#1132=CARTESIAN_POINT('',(189.4,171.,69.1));
#1133=CARTESIAN_POINT('',(204.75,171.,55.7));
#1134=CARTESIAN_POINT('',(179.4,202.45,55.7));
#1135=CARTESIAN_POINT('',(179.4,181.,55.7));
#1136=CARTESIAN_POINT('',(179.4,223.9,55.7));
#1137=CARTESIAN_POINT('',(179.4,223.9,69.1));
#1138=CARTESIAN_POINT('',(179.4,181.,55.7));
#1139=CARTESIAN_POINT('',(179.4,202.45,55.7));
#1140=CARTESIAN_POINT('',(189.4,233.9,55.7));
#1141=CARTESIAN_POINT('',(189.4,233.9,55.7));
#1142=CARTESIAN_POINT('',(204.75,233.9,55.7));
#1143=CARTESIAN_POINT('',(220.1,233.9,55.7));
#1144=CARTESIAN_POINT('',(220.1,233.9,69.1));
#1145=CARTESIAN_POINT('',(204.75,233.9,55.7));
#1146=CARTESIAN_POINT('',(230.1,223.9,55.7));
#1147=CARTESIAN_POINT('',(230.1,223.9,55.7));
#1148=CARTESIAN_POINT('',(230.1,202.45,55.7));
#1149=CARTESIAN_POINT('',(230.1,181.,55.7));
#1150=CARTESIAN_POINT('',(230.1,181.,69.1));
#1151=CARTESIAN_POINT('',(230.1,202.45,55.7));
#1152=CARTESIAN_POINT('',(189.4,223.9,55.7));
#1153=CARTESIAN_POINT('',(189.4,181.,55.7));
#1154=CARTESIAN_POINT('',(220.1,181.,55.7));
#1155=CARTESIAN_POINT('',(220.1,223.9,55.7));
#1156=CARTESIAN_POINT('',(204.75,202.45,55.7));
#1157=CARTESIAN_POINT('',(189.4,223.9,55.7));
#1158=CARTESIAN_POINT('',(220.1,223.9,55.7));
#1159=CARTESIAN_POINT('',(220.1,181.,55.7));
#1160=CARTESIAN_POINT('',(189.4,181.,55.7));
#1161=CARTESIAN_POINT('',(98.9,78.3,82.55));
#1162=CARTESIAN_POINT('',(288.6,78.3,82.55));
#1163=CARTESIAN_POINT('',(98.9,227.,82.55));
#1164=CARTESIAN_POINT('',(288.6,227.,82.55));
#1165=MECHANICAL_DESIGN_GEOMETRIC_PRESENTATION_REPRESENTATION('',(#24),
#1166);
#1166=(
GEOMETRIC_REPRESENTATION_CONTEXT(3)
GLOBAL_UNCERTAINTY_ASSIGNED_CONTEXT((#1167))
GLOBAL_UNIT_ASSIGNED_CONTEXT((#1173,#1169,#1168))
REPRESENTATION_CONTEXT('featured_part_09263','TOP_LEVEL_ASSEMBLY_PART')
);
#1167=UNCERTAINTY_MEASURE_WITH_UNIT(LENGTH_MEASURE(2.E-5),#1173,
'DISTANCE_ACCURACY_VALUE','Maximum Tolerance applied to model');
#1168=(
NAMED_UNIT(*)
SI_UNIT($,.STERADIAN.)
SOLID_ANGLE_UNIT()
);
#1169=(
CONVERSION_BASED_UNIT('DEGREE',#1171)
NAMED_UNIT(#1170)
PLANE_ANGLE_UNIT()
);
#1170=DIMENSIONAL_EXPONENTS(0.,0.,0.,0.,0.,0.,0.);
#1171=PLANE_ANGLE_MEASURE_WITH_UNIT(PLANE_ANGLE_MEASURE(0.0174532925),#1172);
#1172=(
NAMED_UNIT(*)
PLANE_ANGLE_UNIT()
SI_UNIT($,.RADIAN.)
);
#1173=(
LENGTH_UNIT()
NAMED_UNIT(*)
SI_UNIT(.MILLI.,.METRE.)
);
ENDSEC;
END-ISO-10303-21;
