ISO-10303-21;
HEADER;
/* Generated by software containing ST-Developer
 * from STEP Tools, Inc. (www.steptools.com) 
 */
/* OPTION: using custom schema-name function */

FILE_DESCRIPTION(
/* description */ (''),
/* implementation_level */ '2;1');

FILE_NAME(
/* name */ 'featured_part_11231.stp',
/* time_stamp */ '2026-07-15T20:46:17-04:00',
/* author */ (''),
/* organization */ (''),
/* preprocessor_version */ 'ST-DEVELOPER v20.1',
/* originating_system */ 'SIEMENS PLM Software NX2512.6002',
/* authorisation */ '');

FILE_SCHEMA (('AUTOMOTIVE_DESIGN { 1 0 10303 214 3 1 1 1 }'));
ENDSEC;

DATA;
#10=SHAPE_REPRESENTATION_RELATIONSHIP('None',
'relationship between featured_part_11231-None and featured_part_11231
-None',#22,#11);
#11=ADVANCED_BREP_SHAPE_REPRESENTATION('featured_part_11231-None',(#32),
#388);
#12=SHAPE_DEFINITION_REPRESENTATION(#13,#22);
#13=PRODUCT_DEFINITION_SHAPE('','',#14);
#14=PRODUCT_DEFINITION(' ','',#16,#15);
#15=PRODUCT_DEFINITION_CONTEXT('part definition',#21,'design');
#16=PRODUCT_DEFINITION_FORMATION_WITH_SPECIFIED_SOURCE(' ',' ',#18,
 .NOT_KNOWN.);
#17=PRODUCT_RELATED_PRODUCT_CATEGORY('part','',(#18));
#18=PRODUCT('featured_part_11231','featured_part_11231',' ',(#19));
#19=PRODUCT_CONTEXT(' ',#21,'mechanical');
#20=APPLICATION_PROTOCOL_DEFINITION('international standard',
'automotive_design',2010,#21);
#21=APPLICATION_CONTEXT(
'core data for automotive mechanical design processes');
#22=SHAPE_REPRESENTATION('featured_part_11231-None',(#249),#388);
#23=PRESENTATION_LAYER_ASSIGNMENT('1','Layer 1',(#32));
#24=STYLED_ITEM('',(#25),#32);
#25=PRESENTATION_STYLE_ASSIGNMENT((#26));
#26=SURFACE_STYLE_USAGE(.BOTH.,#27);
#27=SURFACE_SIDE_STYLE('',(#28));
#28=SURFACE_STYLE_FILL_AREA(#29);
#29=FILL_AREA_STYLE('',(#30));
#30=FILL_AREA_STYLE_COLOUR('',#31);
#31=COLOUR_RGB('medium steel',0.611764705882353,0.658823529411765,0.670588235294118);
#32=MANIFOLD_SOLID_BREP('',#33);
#33=CLOSED_SHELL('',(#44,#45,#46,#47,#48,#49,#50,#51,#52,#53,#54,#55));
#34=CYLINDRICAL_SURFACE('',#265,7.65);
#35=CYLINDRICAL_SURFACE('',#266,9.6);
#36=CYLINDRICAL_SURFACE('',#267,6.45);
#37=FACE_OUTER_BOUND('',#125,.T.);
#38=FACE_OUTER_BOUND('',#126,.T.);
#39=FACE_OUTER_BOUND('',#127,.T.);
#40=FACE_OUTER_BOUND('',#132,.T.);
#41=FACE_OUTER_BOUND('',#133,.T.);
#42=FACE_OUTER_BOUND('',#134,.T.);
#43=FACE_OUTER_BOUND('',#135,.T.);
#44=ADVANCED_FACE('',(#107,#108,#109,#110),#56,.T.);
#45=ADVANCED_FACE('',(#37),#57,.T.);
#46=ADVANCED_FACE('',(#38),#58,.T.);
#47=ADVANCED_FACE('',(#39),#59,.T.);
#48=ADVANCED_FACE('',(#111,#112,#113,#114),#60,.T.);
#49=ADVANCED_FACE('',(#40),#61,.T.);
#50=ADVANCED_FACE('',(#41),#62,.F.);
#51=ADVANCED_FACE('',(#42),#63,.F.);
#52=ADVANCED_FACE('',(#43),#64,.F.);
#53=ADVANCED_FACE('',(#115,#116),#34,.F.);
#54=ADVANCED_FACE('',(#117,#118),#35,.F.);
#55=ADVANCED_FACE('',(#119,#120),#36,.F.);
#56=PLANE('',#253);
#57=PLANE('',#254);
#58=PLANE('',#255);
#59=PLANE('',#256);
#60=PLANE('',#260);
#61=PLANE('',#261);
#62=PLANE('',#262);
#63=PLANE('',#263);
#64=PLANE('',#264);
#65=LINE('',#334,#86);
#66=LINE('',#337,#87);
#67=LINE('',#339,#88);
#68=LINE('',#341,#89);
#69=LINE('',#343,#90);
#70=LINE('',#346,#91);
#71=LINE('',#348,#92);
#72=LINE('',#350,#93);
#73=LINE('',#352,#94);
#74=LINE('',#354,#95);
#75=LINE('',#356,#96);
#76=LINE('',#358,#97);
#77=LINE('',#360,#98);
#78=LINE('',#362,#99);
#79=LINE('',#364,#100);
#80=LINE('',#366,#101);
#81=LINE('',#374,#102);
#82=LINE('',#376,#103);
#83=LINE('',#377,#104);
#84=LINE('',#379,#105);
#85=LINE('',#381,#106);
#86=VECTOR('',#276,1.);
#87=VECTOR('',#277,1.);
#88=VECTOR('',#278,1.);
#89=VECTOR('',#279,1.);
#90=VECTOR('',#282,1.);
#91=VECTOR('',#283,1.);
#92=VECTOR('',#284,1.);
#93=VECTOR('',#285,1.);
#94=VECTOR('',#288,1.);
#95=VECTOR('',#289,1.);
#96=VECTOR('',#290,1.);
#97=VECTOR('',#291,1.);
#98=VECTOR('',#294,1.);
#99=VECTOR('',#295,1.);
#100=VECTOR('',#296,1.);
#101=VECTOR('',#297,1.);
#102=VECTOR('',#306,1.);
#103=VECTOR('',#309,1.);
#104=VECTOR('',#310,1.);
#105=VECTOR('',#313,1.);
#106=VECTOR('',#316,1.);
#107=FACE_BOUND('',#121,.T.);
#108=FACE_BOUND('',#122,.T.);
#109=FACE_BOUND('',#123,.T.);
#110=FACE_BOUND('',#124,.T.);
#111=FACE_BOUND('',#128,.T.);
#112=FACE_BOUND('',#129,.T.);
#113=FACE_BOUND('',#130,.T.);
#114=FACE_BOUND('',#131,.T.);
#115=FACE_BOUND('',#136,.T.);
#116=FACE_BOUND('',#137,.T.);
#117=FACE_BOUND('',#138,.T.);
#118=FACE_BOUND('',#139,.T.);
#119=FACE_BOUND('',#140,.T.);
#120=FACE_BOUND('',#141,.T.);
#121=EDGE_LOOP('',(#142));
#122=EDGE_LOOP('',(#143));
#123=EDGE_LOOP('',(#144));
#124=EDGE_LOOP('',(#145,#146,#147,#148));
#125=EDGE_LOOP('',(#149,#150,#151,#152));
#126=EDGE_LOOP('',(#153,#154,#155,#156,#157));
#127=EDGE_LOOP('',(#158,#159,#160,#161,#162));
#128=EDGE_LOOP('',(#163));
#129=EDGE_LOOP('',(#164));
#130=EDGE_LOOP('',(#165));
#131=EDGE_LOOP('',(#166,#167,#168,#169));
#132=EDGE_LOOP('',(#170,#171,#172,#173,#174,#175));
#133=EDGE_LOOP('',(#176,#177,#178,#179,#180));
#134=EDGE_LOOP('',(#181,#182,#183,#184,#185));
#135=EDGE_LOOP('',(#186,#187,#188,#189));
#136=EDGE_LOOP('',(#190));
#137=EDGE_LOOP('',(#191));
#138=EDGE_LOOP('',(#192));
#139=EDGE_LOOP('',(#193));
#140=EDGE_LOOP('',(#194));
#141=EDGE_LOOP('',(#195));
#142=ORIENTED_EDGE('',*,*,#216,.F.);
#143=ORIENTED_EDGE('',*,*,#217,.F.);
#144=ORIENTED_EDGE('',*,*,#218,.F.);
#145=ORIENTED_EDGE('',*,*,#219,.F.);
#146=ORIENTED_EDGE('',*,*,#220,.T.);
#147=ORIENTED_EDGE('',*,*,#221,.T.);
#148=ORIENTED_EDGE('',*,*,#222,.T.);
#149=ORIENTED_EDGE('',*,*,#223,.T.);
#150=ORIENTED_EDGE('',*,*,#224,.T.);
#151=ORIENTED_EDGE('',*,*,#225,.F.);
#152=ORIENTED_EDGE('',*,*,#226,.T.);
#153=ORIENTED_EDGE('',*,*,#227,.T.);
#154=ORIENTED_EDGE('',*,*,#228,.T.);
#155=ORIENTED_EDGE('',*,*,#229,.F.);
#156=ORIENTED_EDGE('',*,*,#230,.T.);
#157=ORIENTED_EDGE('',*,*,#225,.T.);
#158=ORIENTED_EDGE('',*,*,#231,.T.);
#159=ORIENTED_EDGE('',*,*,#232,.T.);
#160=ORIENTED_EDGE('',*,*,#233,.F.);
#161=ORIENTED_EDGE('',*,*,#234,.T.);
#162=ORIENTED_EDGE('',*,*,#229,.T.);
#163=ORIENTED_EDGE('',*,*,#235,.F.);
#164=ORIENTED_EDGE('',*,*,#236,.F.);
#165=ORIENTED_EDGE('',*,*,#237,.F.);
#166=ORIENTED_EDGE('',*,*,#238,.F.);
#167=ORIENTED_EDGE('',*,*,#226,.F.);
#168=ORIENTED_EDGE('',*,*,#230,.F.);
#169=ORIENTED_EDGE('',*,*,#234,.F.);
#170=ORIENTED_EDGE('',*,*,#233,.T.);
#171=ORIENTED_EDGE('',*,*,#239,.T.);
#172=ORIENTED_EDGE('',*,*,#219,.T.);
#173=ORIENTED_EDGE('',*,*,#240,.T.);
#174=ORIENTED_EDGE('',*,*,#223,.F.);
#175=ORIENTED_EDGE('',*,*,#238,.T.);
#176=ORIENTED_EDGE('',*,*,#222,.F.);
#177=ORIENTED_EDGE('',*,*,#241,.T.);
#178=ORIENTED_EDGE('',*,*,#227,.F.);
#179=ORIENTED_EDGE('',*,*,#224,.F.);
#180=ORIENTED_EDGE('',*,*,#240,.F.);
#181=ORIENTED_EDGE('',*,*,#221,.F.);
#182=ORIENTED_EDGE('',*,*,#242,.T.);
#183=ORIENTED_EDGE('',*,*,#231,.F.);
#184=ORIENTED_EDGE('',*,*,#228,.F.);
#185=ORIENTED_EDGE('',*,*,#241,.F.);
#186=ORIENTED_EDGE('',*,*,#242,.F.);
#187=ORIENTED_EDGE('',*,*,#220,.F.);
#188=ORIENTED_EDGE('',*,*,#239,.F.);
#189=ORIENTED_EDGE('',*,*,#232,.F.);
#190=ORIENTED_EDGE('',*,*,#218,.T.);
#191=ORIENTED_EDGE('',*,*,#237,.T.);
#192=ORIENTED_EDGE('',*,*,#217,.T.);
#193=ORIENTED_EDGE('',*,*,#236,.T.);
#194=ORIENTED_EDGE('',*,*,#216,.T.);
#195=ORIENTED_EDGE('',*,*,#235,.T.);
#196=VERTEX_POINT('',#329);
#197=VERTEX_POINT('',#331);
#198=VERTEX_POINT('',#333);
#199=VERTEX_POINT('',#335);
#200=VERTEX_POINT('',#336);
#201=VERTEX_POINT('',#338);
#202=VERTEX_POINT('',#340);
#203=VERTEX_POINT('',#344);
#204=VERTEX_POINT('',#345);
#205=VERTEX_POINT('',#347);
#206=VERTEX_POINT('',#349);
#207=VERTEX_POINT('',#353);
#208=VERTEX_POINT('',#355);
#209=VERTEX_POINT('',#357);
#210=VERTEX_POINT('',#361);
#211=VERTEX_POINT('',#363);
#212=VERTEX_POINT('',#365);
#213=VERTEX_POINT('',#369);
#214=VERTEX_POINT('',#371);
#215=VERTEX_POINT('',#373);
#216=EDGE_CURVE('',#196,#196,#243,.T.);
#217=EDGE_CURVE('',#197,#197,#244,.T.);
#218=EDGE_CURVE('',#198,#198,#245,.T.);
#219=EDGE_CURVE('',#199,#200,#65,.T.);
#220=EDGE_CURVE('',#199,#201,#66,.T.);
#221=EDGE_CURVE('',#201,#202,#67,.T.);
#222=EDGE_CURVE('',#202,#200,#68,.T.);
#223=EDGE_CURVE('',#203,#204,#69,.T.);
#224=EDGE_CURVE('',#204,#205,#70,.T.);
#225=EDGE_CURVE('',#206,#205,#71,.T.);
#226=EDGE_CURVE('',#206,#203,#72,.T.);
#227=EDGE_CURVE('',#205,#207,#73,.T.);
#228=EDGE_CURVE('',#207,#208,#74,.T.);
#229=EDGE_CURVE('',#209,#208,#75,.T.);
#230=EDGE_CURVE('',#209,#206,#76,.T.);
#231=EDGE_CURVE('',#208,#210,#77,.T.);
#232=EDGE_CURVE('',#210,#211,#78,.T.);
#233=EDGE_CURVE('',#212,#211,#79,.T.);
#234=EDGE_CURVE('',#212,#209,#80,.T.);
#235=EDGE_CURVE('',#213,#213,#246,.T.);
#236=EDGE_CURVE('',#214,#214,#247,.T.);
#237=EDGE_CURVE('',#215,#215,#248,.T.);
#238=EDGE_CURVE('',#203,#212,#81,.T.);
#239=EDGE_CURVE('',#211,#199,#82,.T.);
#240=EDGE_CURVE('',#200,#204,#83,.T.);
#241=EDGE_CURVE('',#202,#207,#84,.T.);
#242=EDGE_CURVE('',#201,#210,#85,.T.);
#243=CIRCLE('',#250,6.45);
#244=CIRCLE('',#251,9.6);
#245=CIRCLE('',#252,7.65);
#246=CIRCLE('',#257,6.45);
#247=CIRCLE('',#258,9.6);
#248=CIRCLE('',#259,7.65);
#249=AXIS2_PLACEMENT_3D('',#327,#268,#269);
#250=AXIS2_PLACEMENT_3D('',#328,#270,#271);
#251=AXIS2_PLACEMENT_3D('',#330,#272,#273);
#252=AXIS2_PLACEMENT_3D('',#332,#274,#275);
#253=AXIS2_PLACEMENT_3D('',#342,#280,#281);
#254=AXIS2_PLACEMENT_3D('',#351,#286,#287);
#255=AXIS2_PLACEMENT_3D('',#359,#292,#293);
#256=AXIS2_PLACEMENT_3D('',#367,#298,#299);
#257=AXIS2_PLACEMENT_3D('',#368,#300,#301);
#258=AXIS2_PLACEMENT_3D('',#370,#302,#303);
#259=AXIS2_PLACEMENT_3D('',#372,#304,#305);
#260=AXIS2_PLACEMENT_3D('',#375,#307,#308);
#261=AXIS2_PLACEMENT_3D('',#378,#311,#312);
#262=AXIS2_PLACEMENT_3D('',#380,#314,#315);
#263=AXIS2_PLACEMENT_3D('',#382,#317,#318);
#264=AXIS2_PLACEMENT_3D('',#383,#319,#320);
#265=AXIS2_PLACEMENT_3D('',#384,#321,#322);
#266=AXIS2_PLACEMENT_3D('',#385,#323,#324);
#267=AXIS2_PLACEMENT_3D('',#386,#325,#326);
#268=DIRECTION('',(0.,0.,1.));
#269=DIRECTION('',(1.,0.,0.));
#270=DIRECTION('',(0.,0.,1.));
#271=DIRECTION('',(1.,0.,0.));
#272=DIRECTION('',(0.,0.,1.));
#273=DIRECTION('',(1.,0.,0.));
#274=DIRECTION('',(0.,0.,1.));
#275=DIRECTION('',(0.999999999999999,0.,0.));
#276=DIRECTION('',(0.,-1.,0.));
#277=DIRECTION('',(-1.,0.,0.));
#278=DIRECTION('',(0.,-1.,0.));
#279=DIRECTION('',(1.,0.,0.));
#280=DIRECTION('',(0.,0.,1.));
#281=DIRECTION('',(1.,0.,0.));
#282=DIRECTION('',(0.,0.,1.));
#283=DIRECTION('',(-1.,0.,0.));
#284=DIRECTION('',(0.,0.,1.));
#285=DIRECTION('',(1.,0.,0.));
#286=DIRECTION('',(0.,-1.,0.));
#287=DIRECTION('',(0.,0.,-1.));
#288=DIRECTION('',(0.,0.707106781186547,0.707106781186548));
#289=DIRECTION('',(0.,1.,0.));
#290=DIRECTION('',(0.,0.,1.));
#291=DIRECTION('',(0.,-1.,0.));
#292=DIRECTION('',(-1.,0.,0.));
#293=DIRECTION('',(0.,0.,1.));
#294=DIRECTION('',(0.707106781186547,0.,0.707106781186548));
#295=DIRECTION('',(1.,0.,0.));
#296=DIRECTION('',(0.,0.,1.));
#297=DIRECTION('',(-1.,0.,0.));
#298=DIRECTION('',(0.,1.,0.));
#299=DIRECTION('',(0.,0.,1.));
#300=DIRECTION('',(0.,0.,-1.));
#301=DIRECTION('',(-1.,0.,0.));
#302=DIRECTION('',(0.,0.,-1.));
#303=DIRECTION('',(-1.,0.,0.));
#304=DIRECTION('',(0.,0.,-1.));
#305=DIRECTION('',(-0.999999999999999,0.,0.));
#306=DIRECTION('',(0.,1.,0.));
#307=DIRECTION('',(0.,0.,-1.));
#308=DIRECTION('',(-1.,0.,0.));
#309=DIRECTION('',(0.,-0.707106781186548,0.707106781186547));
#310=DIRECTION('',(0.,-0.707106781186547,-0.707106781186548));
#311=DIRECTION('',(1.,0.,0.));
#312=DIRECTION('',(0.,0.,-1.));
#313=DIRECTION('',(-0.577350269189625,-0.577350269189626,-0.577350269189626));
#314=DIRECTION('',(0.,0.707106781186548,-0.707106781186547));
#315=DIRECTION('',(-1.,0.,0.));
#316=DIRECTION('',(-0.577350269189625,0.577350269189627,-0.577350269189626));
#317=DIRECTION('',(0.707106781186548,0.,-0.707106781186547));
#318=DIRECTION('',(0.,1.,0.));
#319=DIRECTION('',(0.,-0.707106781186547,-0.707106781186548));
#320=DIRECTION('',(1.,0.,0.));
#321=DIRECTION('',(0.,0.,-1.));
#322=DIRECTION('',(0.999999999999999,0.,0.));
#323=DIRECTION('',(0.,0.,-1.));
#324=DIRECTION('',(1.,0.,0.));
#325=DIRECTION('',(0.,0.,-1.));
#326=DIRECTION('',(1.,0.,0.));
#327=CARTESIAN_POINT('',(0.,0.,0.));
#328=CARTESIAN_POINT('',(181.8,262.1,85.1));
#329=CARTESIAN_POINT('',(188.25,262.1,85.1));
#330=CARTESIAN_POINT('',(86.7,106.8,85.1));
#331=CARTESIAN_POINT('',(96.3,106.8,85.1));
#332=CARTESIAN_POINT('',(302.2,297.2,85.1));
#333=CARTESIAN_POINT('',(309.85,297.2,85.1));
#334=CARTESIAN_POINT('',(402.1,188.65,85.1));
#335=CARTESIAN_POINT('',(402.1,369.9,85.1));
#336=CARTESIAN_POINT('',(402.1,16.5,85.1));
#337=CARTESIAN_POINT('',(201.05,369.9,85.1));
#338=CARTESIAN_POINT('',(9.19999999999999,369.9,85.1));
#339=CARTESIAN_POINT('',(9.19999999999999,188.65,85.1));
#340=CARTESIAN_POINT('',(9.19999999999999,16.5,85.1));
#341=CARTESIAN_POINT('',(201.05,16.5,85.1));
#342=CARTESIAN_POINT('',(201.05,188.65,85.1));
#343=CARTESIAN_POINT('',(402.1,0.,0.));
#344=CARTESIAN_POINT('',(402.1,0.,0.));
#345=CARTESIAN_POINT('',(402.1,0.,68.6));
#346=CARTESIAN_POINT('',(201.05,0.,68.6));
#347=CARTESIAN_POINT('',(0.,0.,68.6));
#348=CARTESIAN_POINT('',(0.,0.,0.));
#349=CARTESIAN_POINT('',(0.,0.,0.));
#350=CARTESIAN_POINT('',(201.05,0.,0.));
#351=CARTESIAN_POINT('',(201.05,0.,0.));
#352=CARTESIAN_POINT('',(0.,60.0249999999999,128.625));
#353=CARTESIAN_POINT('',(0.,7.30000000000001,75.9));
#354=CARTESIAN_POINT('',(0.,188.65,75.9));
#355=CARTESIAN_POINT('',(0.,377.3,75.9));
#356=CARTESIAN_POINT('',(0.,377.3,0.));
#357=CARTESIAN_POINT('',(0.,377.3,0.));
#358=CARTESIAN_POINT('',(0.,188.65,0.));
#359=CARTESIAN_POINT('',(0.,188.65,0.));
#360=CARTESIAN_POINT('',(62.5749999999999,377.3,138.475));
#361=CARTESIAN_POINT('',(1.80000000000001,377.3,77.7));
#362=CARTESIAN_POINT('',(201.05,377.3,77.7));
#363=CARTESIAN_POINT('',(402.1,377.3,77.7));
#364=CARTESIAN_POINT('',(402.1,377.3,0.));
#365=CARTESIAN_POINT('',(402.1,377.3,0.));
#366=CARTESIAN_POINT('',(201.05,377.3,0.));
#367=CARTESIAN_POINT('',(201.05,377.3,0.));
#368=CARTESIAN_POINT('',(181.8,262.1,0.));
#369=CARTESIAN_POINT('',(175.35,262.1,0.));
#370=CARTESIAN_POINT('',(86.7,106.8,0.));
#371=CARTESIAN_POINT('',(77.1,106.8,0.));
#372=CARTESIAN_POINT('',(302.2,297.2,0.));
#373=CARTESIAN_POINT('',(294.55,297.2,0.));
#374=CARTESIAN_POINT('',(402.1,188.65,0.));
#375=CARTESIAN_POINT('',(201.05,188.65,0.));
#376=CARTESIAN_POINT('',(402.1,321.825,133.175));
#377=CARTESIAN_POINT('',(402.1,60.0249999999999,128.625));
#378=CARTESIAN_POINT('',(402.1,188.65,0.));
#379=CARTESIAN_POINT('',(62.1499999999999,69.4499999999999,138.05));
#380=CARTESIAN_POINT('',(201.05,0.,68.6));
#381=CARTESIAN_POINT('',(63.4833333333333,315.616666666666,139.383333333333));
#382=CARTESIAN_POINT('',(0.,188.65,75.9));
#383=CARTESIAN_POINT('',(201.05,377.3,77.7));
#384=CARTESIAN_POINT('',(302.2,297.2,85.15));
#385=CARTESIAN_POINT('',(86.7,106.8,85.15));
#386=CARTESIAN_POINT('',(181.8,262.1,85.15));
#387=MECHANICAL_DESIGN_GEOMETRIC_PRESENTATION_REPRESENTATION('',(#24),#388);
#388=(
GEOMETRIC_REPRESENTATION_CONTEXT(3)
GLOBAL_UNCERTAINTY_ASSIGNED_CONTEXT((#389))
GLOBAL_UNIT_ASSIGNED_CONTEXT((#395,#391,#390))
REPRESENTATION_CONTEXT('featured_part_11231','TOP_LEVEL_ASSEMBLY_PART')
);
#389=UNCERTAINTY_MEASURE_WITH_UNIT(LENGTH_MEASURE(2.E-5),#395,
'DISTANCE_ACCURACY_VALUE','Maximum Tolerance applied to model');
#390=(
NAMED_UNIT(*)
SI_UNIT($,.STERADIAN.)
SOLID_ANGLE_UNIT()
);
#391=(
CONVERSION_BASED_UNIT('DEGREE',#393)
NAMED_UNIT(#392)
PLANE_ANGLE_UNIT()
);
#392=DIMENSIONAL_EXPONENTS(0.,0.,0.,0.,0.,0.,0.);
#393=PLANE_ANGLE_MEASURE_WITH_UNIT(PLANE_ANGLE_MEASURE(0.0174532925),#394);
#394=(
NAMED_UNIT(*)
PLANE_ANGLE_UNIT()
SI_UNIT($,.RADIAN.)
);
#395=(
LENGTH_UNIT()
NAMED_UNIT(*)
SI_UNIT(.MILLI.,.METRE.)
);
ENDSEC;
END-ISO-10303-21;
