ISO-10303-21;
HEADER;
/* Generated by software containing ST-Developer
 * from STEP Tools, Inc. (www.steptools.com) 
 */
/* OPTION: using custom schema-name function */

FILE_DESCRIPTION(
/* description */ (''),
/* implementation_level */ '2;1');

FILE_NAME(
/* name */ 'featured_part_10029.stp',
/* time_stamp */ '2026-07-15T14:42:54-04:00',
/* author */ (''),
/* organization */ (''),
/* preprocessor_version */ 'ST-DEVELOPER v20.1',
/* originating_system */ 'SIEMENS PLM Software NX2512.6002',
/* authorisation */ '');

FILE_SCHEMA (('AUTOMOTIVE_DESIGN { 1 0 10303 214 3 1 1 1 }'));
ENDSEC;

DATA;
#10=SHAPE_REPRESENTATION_RELATIONSHIP('None',
'relationship between featured_part_10029-None and featured_part_10029
-None',#22,#11);
#11=ADVANCED_BREP_SHAPE_REPRESENTATION('featured_part_10029-None',(#32),
#871);
#12=SHAPE_DEFINITION_REPRESENTATION(#13,#22);
#13=PRODUCT_DEFINITION_SHAPE('','',#14);
#14=PRODUCT_DEFINITION(' ','',#16,#15);
#15=PRODUCT_DEFINITION_CONTEXT('part definition',#21,'design');
#16=PRODUCT_DEFINITION_FORMATION_WITH_SPECIFIED_SOURCE(' ',' ',#18,
 .NOT_KNOWN.);
#17=PRODUCT_RELATED_PRODUCT_CATEGORY('part','',(#18));
#18=PRODUCT('featured_part_10029','featured_part_10029',' ',(#19));
#19=PRODUCT_CONTEXT(' ',#21,'mechanical');
#20=APPLICATION_PROTOCOL_DEFINITION('international standard',
'automotive_design',2010,#21);
#21=APPLICATION_CONTEXT(
'core data for automotive mechanical design processes');
#22=SHAPE_REPRESENTATION('featured_part_10029-None',(#545),#871);
#23=PRESENTATION_LAYER_ASSIGNMENT('1','Layer 1',(#32));
#24=STYLED_ITEM('',(#25),#32);
#25=PRESENTATION_STYLE_ASSIGNMENT((#26));
#26=SURFACE_STYLE_USAGE(.BOTH.,#27);
#27=SURFACE_SIDE_STYLE('',(#28));
#28=SURFACE_STYLE_FILL_AREA(#29);
#29=FILL_AREA_STYLE('',(#30));
#30=FILL_AREA_STYLE_COLOUR('',#31);
#31=COLOUR_RGB('medium steel',0.611764705882353,0.658823529411765,0.670588235294118);
#32=MANIFOLD_SOLID_BREP('',#33);
#33=CLOSED_SHELL('',(#66,#67,#68,#69,#70,#71,#72,#73,#74,#75,#76,#77,#78,
#79,#80,#81,#82,#83,#84,#85,#86,#87,#88,#89,#90,#91));
#34=CYLINDRICAL_SURFACE('',#574,6.3);
#35=CYLINDRICAL_SURFACE('',#581,2.7);
#36=CYLINDRICAL_SURFACE('',#582,10.5);
#37=CYLINDRICAL_SURFACE('',#583,21.);
#38=CYLINDRICAL_SURFACE('',#584,11.);
#39=ELLIPSE('',#565,14.8492424049175,10.5);
#40=ELLIPSE('',#567,3.81837661840736,2.7);
#41=FACE_BOUND('',#141,.T.);
#42=FACE_BOUND('',#142,.T.);
#43=FACE_BOUND('',#143,.T.);
#44=FACE_BOUND('',#144,.T.);
#45=FACE_BOUND('',#151,.T.);
#46=FACE_BOUND('',#152,.T.);
#47=FACE_BOUND('',#159,.T.);
#48=FACE_BOUND('',#160,.T.);
#49=FACE_BOUND('',#161,.T.);
#50=FACE_BOUND('',#162,.T.);
#51=FACE_BOUND('',#163,.T.);
#52=FACE_BOUND('',#164,.T.);
#53=FACE_BOUND('',#165,.T.);
#54=FACE_BOUND('',#166,.T.);
#55=CIRCLE('',#550,11.);
#56=CIRCLE('',#551,10.5);
#57=CIRCLE('',#552,6.3);
#58=CIRCLE('',#553,2.7);
#59=CIRCLE('',#558,11.);
#60=CIRCLE('',#559,21.);
#61=CIRCLE('',#560,10.5);
#62=CIRCLE('',#570,21.);
#63=CIRCLE('',#571,6.3);
#64=CIRCLE('',#577,11.);
#65=CIRCLE('',#579,2.7);
#66=ADVANCED_FACE('',(#113),#92,.F.);
#67=ADVANCED_FACE('',(#114),#93,.T.);
#68=ADVANCED_FACE('',(#115),#94,.F.);
#69=ADVANCED_FACE('',(#116),#95,.F.);
#70=ADVANCED_FACE('',(#117),#96,.T.);
#71=ADVANCED_FACE('',(#118),#97,.T.);
#72=ADVANCED_FACE('',(#119),#98,.T.);
#73=ADVANCED_FACE('',(#120),#99,.T.);
#74=ADVANCED_FACE('',(#41,#42,#43,#44),#100,.T.);
#75=ADVANCED_FACE('',(#121),#101,.T.);
#76=ADVANCED_FACE('',(#122),#102,.F.);
#77=ADVANCED_FACE('',(#123),#103,.F.);
#78=ADVANCED_FACE('',(#124),#104,.F.);
#79=ADVANCED_FACE('',(#125),#105,.F.);
#80=ADVANCED_FACE('',(#126),#106,.F.);
#81=ADVANCED_FACE('',(#45,#46),#107,.F.);
#82=ADVANCED_FACE('',(#127),#108,.F.);
#83=ADVANCED_FACE('',(#128),#34,.F.);
#84=ADVANCED_FACE('',(#129),#109,.F.);
#85=ADVANCED_FACE('',(#130),#110,.F.);
#86=ADVANCED_FACE('',(#131),#111,.F.);
#87=ADVANCED_FACE('',(#132),#112,.F.);
#88=ADVANCED_FACE('',(#47,#48),#35,.F.);
#89=ADVANCED_FACE('',(#49,#50),#36,.F.);
#90=ADVANCED_FACE('',(#51,#52),#37,.F.);
#91=ADVANCED_FACE('',(#53,#54),#38,.F.);
#92=PLANE('',#546);
#93=PLANE('',#547);
#94=PLANE('',#548);
#95=PLANE('',#549);
#96=PLANE('',#554);
#97=PLANE('',#555);
#98=PLANE('',#556);
#99=PLANE('',#557);
#100=PLANE('',#561);
#101=PLANE('',#562);
#102=PLANE('',#563);
#103=PLANE('',#564);
#104=PLANE('',#566);
#105=PLANE('',#568);
#106=PLANE('',#569);
#107=PLANE('',#572);
#108=PLANE('',#573);
#109=PLANE('',#575);
#110=PLANE('',#576);
#111=PLANE('',#578);
#112=PLANE('',#580);
#113=FACE_OUTER_BOUND('',#133,.T.);
#114=FACE_OUTER_BOUND('',#134,.T.);
#115=FACE_OUTER_BOUND('',#135,.T.);
#116=FACE_OUTER_BOUND('',#136,.T.);
#117=FACE_OUTER_BOUND('',#137,.T.);
#118=FACE_OUTER_BOUND('',#138,.T.);
#119=FACE_OUTER_BOUND('',#139,.T.);
#120=FACE_OUTER_BOUND('',#140,.T.);
#121=FACE_OUTER_BOUND('',#145,.T.);
#122=FACE_OUTER_BOUND('',#146,.T.);
#123=FACE_OUTER_BOUND('',#147,.T.);
#124=FACE_OUTER_BOUND('',#148,.T.);
#125=FACE_OUTER_BOUND('',#149,.T.);
#126=FACE_OUTER_BOUND('',#150,.T.);
#127=FACE_OUTER_BOUND('',#153,.T.);
#128=FACE_OUTER_BOUND('',#154,.T.);
#129=FACE_OUTER_BOUND('',#155,.T.);
#130=FACE_OUTER_BOUND('',#156,.T.);
#131=FACE_OUTER_BOUND('',#157,.T.);
#132=FACE_OUTER_BOUND('',#158,.T.);
#133=EDGE_LOOP('',(#167,#168,#169,#170,#171));
#134=EDGE_LOOP('',(#172,#173,#174,#175));
#135=EDGE_LOOP('',(#176,#177,#178,#179));
#136=EDGE_LOOP('',(#180,#181,#182,#183));
#137=EDGE_LOOP('',(#184,#185,#186,#187,#188,#189,#190,#191,#192,#193,#194,
#195,#196));
#138=EDGE_LOOP('',(#197,#198,#199,#200));
#139=EDGE_LOOP('',(#201,#202,#203,#204,#205,#206,#207,#208,#209,#210,#211));
#140=EDGE_LOOP('',(#212,#213,#214,#215,#216,#217,#218));
#141=EDGE_LOOP('',(#219));
#142=EDGE_LOOP('',(#220));
#143=EDGE_LOOP('',(#221));
#144=EDGE_LOOP('',(#222,#223,#224,#225));
#145=EDGE_LOOP('',(#226,#227,#228,#229,#230,#231,#232,#233,#234));
#146=EDGE_LOOP('',(#235,#236,#237,#238,#239,#240));
#147=EDGE_LOOP('',(#241,#242,#243,#244));
#148=EDGE_LOOP('',(#245,#246,#247,#248,#249,#250,#251));
#149=EDGE_LOOP('',(#252,#253,#254,#255,#256,#257));
#150=EDGE_LOOP('',(#258,#259,#260,#261,#262));
#151=EDGE_LOOP('',(#263));
#152=EDGE_LOOP('',(#264,#265,#266,#267,#268));
#153=EDGE_LOOP('',(#269,#270,#271,#272,#273));
#154=EDGE_LOOP('',(#274,#275,#276,#277));
#155=EDGE_LOOP('',(#278,#279,#280,#281,#282,#283));
#156=EDGE_LOOP('',(#284,#285,#286,#287,#288));
#157=EDGE_LOOP('',(#289,#290,#291,#292,#293,#294));
#158=EDGE_LOOP('',(#295));
#159=EDGE_LOOP('',(#296,#297));
#160=EDGE_LOOP('',(#298));
#161=EDGE_LOOP('',(#299));
#162=EDGE_LOOP('',(#300,#301));
#163=EDGE_LOOP('',(#302));
#164=EDGE_LOOP('',(#303));
#165=EDGE_LOOP('',(#304));
#166=EDGE_LOOP('',(#305,#306,#307,#308));
#167=ORIENTED_EDGE('',*,*,#358,.T.);
#168=ORIENTED_EDGE('',*,*,#359,.T.);
#169=ORIENTED_EDGE('',*,*,#360,.T.);
#170=ORIENTED_EDGE('',*,*,#361,.T.);
#171=ORIENTED_EDGE('',*,*,#362,.T.);
#172=ORIENTED_EDGE('',*,*,#363,.F.);
#173=ORIENTED_EDGE('',*,*,#364,.T.);
#174=ORIENTED_EDGE('',*,*,#365,.T.);
#175=ORIENTED_EDGE('',*,*,#366,.T.);
#176=ORIENTED_EDGE('',*,*,#367,.F.);
#177=ORIENTED_EDGE('',*,*,#366,.F.);
#178=ORIENTED_EDGE('',*,*,#368,.F.);
#179=ORIENTED_EDGE('',*,*,#369,.F.);
#180=ORIENTED_EDGE('',*,*,#370,.F.);
#181=ORIENTED_EDGE('',*,*,#371,.F.);
#182=ORIENTED_EDGE('',*,*,#372,.F.);
#183=ORIENTED_EDGE('',*,*,#364,.F.);
#184=ORIENTED_EDGE('',*,*,#373,.F.);
#185=ORIENTED_EDGE('',*,*,#358,.F.);
#186=ORIENTED_EDGE('',*,*,#374,.T.);
#187=ORIENTED_EDGE('',*,*,#375,.F.);
#188=ORIENTED_EDGE('',*,*,#376,.T.);
#189=ORIENTED_EDGE('',*,*,#377,.T.);
#190=ORIENTED_EDGE('',*,*,#378,.F.);
#191=ORIENTED_EDGE('',*,*,#379,.T.);
#192=ORIENTED_EDGE('',*,*,#380,.F.);
#193=ORIENTED_EDGE('',*,*,#381,.T.);
#194=ORIENTED_EDGE('',*,*,#382,.F.);
#195=ORIENTED_EDGE('',*,*,#383,.T.);
#196=ORIENTED_EDGE('',*,*,#384,.F.);
#197=ORIENTED_EDGE('',*,*,#385,.T.);
#198=ORIENTED_EDGE('',*,*,#386,.T.);
#199=ORIENTED_EDGE('',*,*,#387,.F.);
#200=ORIENTED_EDGE('',*,*,#388,.T.);
#201=ORIENTED_EDGE('',*,*,#389,.F.);
#202=ORIENTED_EDGE('',*,*,#390,.F.);
#203=ORIENTED_EDGE('',*,*,#391,.F.);
#204=ORIENTED_EDGE('',*,*,#392,.T.);
#205=ORIENTED_EDGE('',*,*,#393,.F.);
#206=ORIENTED_EDGE('',*,*,#394,.F.);
#207=ORIENTED_EDGE('',*,*,#395,.F.);
#208=ORIENTED_EDGE('',*,*,#396,.T.);
#209=ORIENTED_EDGE('',*,*,#387,.T.);
#210=ORIENTED_EDGE('',*,*,#397,.T.);
#211=ORIENTED_EDGE('',*,*,#371,.T.);
#212=ORIENTED_EDGE('',*,*,#398,.F.);
#213=ORIENTED_EDGE('',*,*,#399,.T.);
#214=ORIENTED_EDGE('',*,*,#400,.T.);
#215=ORIENTED_EDGE('',*,*,#401,.T.);
#216=ORIENTED_EDGE('',*,*,#402,.F.);
#217=ORIENTED_EDGE('',*,*,#403,.T.);
#218=ORIENTED_EDGE('',*,*,#395,.T.);
#219=ORIENTED_EDGE('',*,*,#404,.F.);
#220=ORIENTED_EDGE('',*,*,#405,.F.);
#221=ORIENTED_EDGE('',*,*,#406,.F.);
#222=ORIENTED_EDGE('',*,*,#407,.F.);
#223=ORIENTED_EDGE('',*,*,#388,.F.);
#224=ORIENTED_EDGE('',*,*,#396,.F.);
#225=ORIENTED_EDGE('',*,*,#403,.F.);
#226=ORIENTED_EDGE('',*,*,#408,.F.);
#227=ORIENTED_EDGE('',*,*,#369,.T.);
#228=ORIENTED_EDGE('',*,*,#409,.T.);
#229=ORIENTED_EDGE('',*,*,#385,.F.);
#230=ORIENTED_EDGE('',*,*,#407,.T.);
#231=ORIENTED_EDGE('',*,*,#402,.T.);
#232=ORIENTED_EDGE('',*,*,#410,.T.);
#233=ORIENTED_EDGE('',*,*,#361,.F.);
#234=ORIENTED_EDGE('',*,*,#411,.F.);
#235=ORIENTED_EDGE('',*,*,#365,.F.);
#236=ORIENTED_EDGE('',*,*,#372,.T.);
#237=ORIENTED_EDGE('',*,*,#397,.F.);
#238=ORIENTED_EDGE('',*,*,#386,.F.);
#239=ORIENTED_EDGE('',*,*,#409,.F.);
#240=ORIENTED_EDGE('',*,*,#368,.T.);
#241=ORIENTED_EDGE('',*,*,#412,.F.);
#242=ORIENTED_EDGE('',*,*,#377,.F.);
#243=ORIENTED_EDGE('',*,*,#413,.T.);
#244=ORIENTED_EDGE('',*,*,#400,.F.);
#245=ORIENTED_EDGE('',*,*,#414,.F.);
#246=ORIENTED_EDGE('',*,*,#374,.F.);
#247=ORIENTED_EDGE('',*,*,#362,.F.);
#248=ORIENTED_EDGE('',*,*,#410,.F.);
#249=ORIENTED_EDGE('',*,*,#401,.F.);
#250=ORIENTED_EDGE('',*,*,#413,.F.);
#251=ORIENTED_EDGE('',*,*,#376,.F.);
#252=ORIENTED_EDGE('',*,*,#415,.F.);
#253=ORIENTED_EDGE('',*,*,#381,.F.);
#254=ORIENTED_EDGE('',*,*,#416,.F.);
#255=ORIENTED_EDGE('',*,*,#392,.F.);
#256=ORIENTED_EDGE('',*,*,#417,.F.);
#257=ORIENTED_EDGE('',*,*,#383,.F.);
#258=ORIENTED_EDGE('',*,*,#380,.T.);
#259=ORIENTED_EDGE('',*,*,#418,.T.);
#260=ORIENTED_EDGE('',*,*,#419,.T.);
#261=ORIENTED_EDGE('',*,*,#393,.T.);
#262=ORIENTED_EDGE('',*,*,#416,.T.);
#263=ORIENTED_EDGE('',*,*,#420,.T.);
#264=ORIENTED_EDGE('',*,*,#419,.F.);
#265=ORIENTED_EDGE('',*,*,#421,.T.);
#266=ORIENTED_EDGE('',*,*,#422,.F.);
#267=ORIENTED_EDGE('',*,*,#398,.T.);
#268=ORIENTED_EDGE('',*,*,#394,.T.);
#269=ORIENTED_EDGE('',*,*,#422,.T.);
#270=ORIENTED_EDGE('',*,*,#423,.T.);
#271=ORIENTED_EDGE('',*,*,#378,.T.);
#272=ORIENTED_EDGE('',*,*,#412,.T.);
#273=ORIENTED_EDGE('',*,*,#399,.F.);
#274=ORIENTED_EDGE('',*,*,#379,.F.);
#275=ORIENTED_EDGE('',*,*,#423,.F.);
#276=ORIENTED_EDGE('',*,*,#421,.F.);
#277=ORIENTED_EDGE('',*,*,#418,.F.);
#278=ORIENTED_EDGE('',*,*,#408,.T.);
#279=ORIENTED_EDGE('',*,*,#424,.T.);
#280=ORIENTED_EDGE('',*,*,#389,.T.);
#281=ORIENTED_EDGE('',*,*,#370,.T.);
#282=ORIENTED_EDGE('',*,*,#363,.T.);
#283=ORIENTED_EDGE('',*,*,#367,.T.);
#284=ORIENTED_EDGE('',*,*,#425,.T.);
#285=ORIENTED_EDGE('',*,*,#426,.T.);
#286=ORIENTED_EDGE('',*,*,#384,.T.);
#287=ORIENTED_EDGE('',*,*,#417,.T.);
#288=ORIENTED_EDGE('',*,*,#391,.T.);
#289=ORIENTED_EDGE('',*,*,#360,.F.);
#290=ORIENTED_EDGE('',*,*,#427,.T.);
#291=ORIENTED_EDGE('',*,*,#425,.F.);
#292=ORIENTED_EDGE('',*,*,#390,.T.);
#293=ORIENTED_EDGE('',*,*,#424,.F.);
#294=ORIENTED_EDGE('',*,*,#411,.T.);
#295=ORIENTED_EDGE('',*,*,#428,.F.);
#296=ORIENTED_EDGE('',*,*,#382,.T.);
#297=ORIENTED_EDGE('',*,*,#415,.T.);
#298=ORIENTED_EDGE('',*,*,#428,.T.);
#299=ORIENTED_EDGE('',*,*,#406,.T.);
#300=ORIENTED_EDGE('',*,*,#375,.T.);
#301=ORIENTED_EDGE('',*,*,#414,.T.);
#302=ORIENTED_EDGE('',*,*,#405,.T.);
#303=ORIENTED_EDGE('',*,*,#420,.F.);
#304=ORIENTED_EDGE('',*,*,#404,.T.);
#305=ORIENTED_EDGE('',*,*,#373,.T.);
#306=ORIENTED_EDGE('',*,*,#426,.F.);
#307=ORIENTED_EDGE('',*,*,#427,.F.);
#308=ORIENTED_EDGE('',*,*,#359,.F.);
#309=VERTEX_POINT('',#725);
#310=VERTEX_POINT('',#726);
#311=VERTEX_POINT('',#728);
#312=VERTEX_POINT('',#730);
#313=VERTEX_POINT('',#732);
#314=VERTEX_POINT('',#736);
#315=VERTEX_POINT('',#737);
#316=VERTEX_POINT('',#739);
#317=VERTEX_POINT('',#741);
#318=VERTEX_POINT('',#745);
#319=VERTEX_POINT('',#747);
#320=VERTEX_POINT('',#751);
#321=VERTEX_POINT('',#753);
#322=VERTEX_POINT('',#757);
#323=VERTEX_POINT('',#759);
#324=VERTEX_POINT('',#761);
#325=VERTEX_POINT('',#763);
#326=VERTEX_POINT('',#765);
#327=VERTEX_POINT('',#767);
#328=VERTEX_POINT('',#769);
#329=VERTEX_POINT('',#771);
#330=VERTEX_POINT('',#773);
#331=VERTEX_POINT('',#775);
#332=VERTEX_POINT('',#777);
#333=VERTEX_POINT('',#781);
#334=VERTEX_POINT('',#782);
#335=VERTEX_POINT('',#784);
#336=VERTEX_POINT('',#786);
#337=VERTEX_POINT('',#790);
#338=VERTEX_POINT('',#792);
#339=VERTEX_POINT('',#794);
#340=VERTEX_POINT('',#796);
#341=VERTEX_POINT('',#798);
#342=VERTEX_POINT('',#800);
#343=VERTEX_POINT('',#802);
#344=VERTEX_POINT('',#807);
#345=VERTEX_POINT('',#809);
#346=VERTEX_POINT('',#811);
#347=VERTEX_POINT('',#813);
#348=VERTEX_POINT('',#815);
#349=VERTEX_POINT('',#819);
#350=VERTEX_POINT('',#821);
#351=VERTEX_POINT('',#823);
#352=VERTEX_POINT('',#827);
#353=VERTEX_POINT('',#843);
#354=VERTEX_POINT('',#847);
#355=VERTEX_POINT('',#849);
#356=VERTEX_POINT('',#858);
#357=VERTEX_POINT('',#864);
#358=EDGE_CURVE('',#309,#310,#429,.T.);
#359=EDGE_CURVE('',#310,#311,#430,.T.);
#360=EDGE_CURVE('',#311,#312,#431,.T.);
#361=EDGE_CURVE('',#312,#313,#432,.T.);
#362=EDGE_CURVE('',#313,#309,#433,.T.);
#363=EDGE_CURVE('',#314,#315,#434,.T.);
#364=EDGE_CURVE('',#314,#316,#435,.T.);
#365=EDGE_CURVE('',#316,#317,#436,.T.);
#366=EDGE_CURVE('',#317,#315,#437,.T.);
#367=EDGE_CURVE('',#315,#318,#438,.T.);
#368=EDGE_CURVE('',#319,#317,#439,.T.);
#369=EDGE_CURVE('',#318,#319,#440,.T.);
#370=EDGE_CURVE('',#320,#314,#441,.T.);
#371=EDGE_CURVE('',#321,#320,#442,.T.);
#372=EDGE_CURVE('',#316,#321,#443,.T.);
#373=EDGE_CURVE('',#310,#322,#55,.T.);
#374=EDGE_CURVE('',#309,#323,#444,.T.);
#375=EDGE_CURVE('',#324,#323,#56,.T.);
#376=EDGE_CURVE('',#324,#325,#445,.T.);
#377=EDGE_CURVE('',#325,#326,#446,.T.);
#378=EDGE_CURVE('',#327,#326,#447,.T.);
#379=EDGE_CURVE('',#327,#328,#57,.T.);
#380=EDGE_CURVE('',#329,#328,#448,.T.);
#381=EDGE_CURVE('',#329,#330,#449,.T.);
#382=EDGE_CURVE('',#331,#330,#58,.T.);
#383=EDGE_CURVE('',#331,#332,#450,.T.);
#384=EDGE_CURVE('',#322,#332,#451,.T.);
#385=EDGE_CURVE('',#333,#334,#452,.T.);
#386=EDGE_CURVE('',#334,#335,#453,.T.);
#387=EDGE_CURVE('',#336,#335,#454,.T.);
#388=EDGE_CURVE('',#336,#333,#455,.T.);
#389=EDGE_CURVE('',#337,#320,#456,.T.);
#390=EDGE_CURVE('',#338,#337,#457,.T.);
#391=EDGE_CURVE('',#339,#338,#458,.T.);
#392=EDGE_CURVE('',#339,#340,#459,.T.);
#393=EDGE_CURVE('',#341,#340,#460,.T.);
#394=EDGE_CURVE('',#342,#341,#461,.T.);
#395=EDGE_CURVE('',#343,#342,#462,.T.);
#396=EDGE_CURVE('',#343,#336,#463,.T.);
#397=EDGE_CURVE('',#335,#321,#464,.T.);
#398=EDGE_CURVE('',#344,#342,#465,.T.);
#399=EDGE_CURVE('',#344,#345,#466,.T.);
#400=EDGE_CURVE('',#345,#346,#467,.T.);
#401=EDGE_CURVE('',#346,#347,#468,.T.);
#402=EDGE_CURVE('',#348,#347,#469,.T.);
#403=EDGE_CURVE('',#348,#343,#470,.T.);
#404=EDGE_CURVE('',#349,#349,#59,.T.);
#405=EDGE_CURVE('',#350,#350,#60,.T.);
#406=EDGE_CURVE('',#351,#351,#61,.T.);
#407=EDGE_CURVE('',#333,#348,#471,.T.);
#408=EDGE_CURVE('',#318,#352,#472,.T.);
#409=EDGE_CURVE('',#319,#334,#473,.T.);
#410=EDGE_CURVE('',#347,#313,#474,.T.);
#411=EDGE_CURVE('',#352,#312,#475,.T.);
#412=EDGE_CURVE('',#326,#345,#476,.T.);
#413=EDGE_CURVE('',#325,#346,#477,.T.);
#414=EDGE_CURVE('',#323,#324,#39,.T.);
#415=EDGE_CURVE('',#330,#331,#40,.T.);
#416=EDGE_CURVE('',#340,#329,#478,.T.);
#417=EDGE_CURVE('',#332,#339,#479,.T.);
#418=EDGE_CURVE('',#328,#353,#480,.T.);
#419=EDGE_CURVE('',#353,#341,#481,.T.);
#420=EDGE_CURVE('',#354,#354,#62,.T.);
#421=EDGE_CURVE('',#353,#355,#63,.T.);
#422=EDGE_CURVE('',#344,#355,#482,.T.);
#423=EDGE_CURVE('',#355,#327,#483,.T.);
#424=EDGE_CURVE('',#352,#337,#484,.T.);
#425=EDGE_CURVE('',#338,#356,#485,.T.);
#426=EDGE_CURVE('',#356,#322,#486,.T.);
#427=EDGE_CURVE('',#311,#356,#64,.T.);
#428=EDGE_CURVE('',#357,#357,#65,.T.);
#429=LINE('',#724,#487);
#430=LINE('',#727,#488);
#431=LINE('',#729,#489);
#432=LINE('',#731,#490);
#433=LINE('',#733,#491);
#434=LINE('',#735,#492);
#435=LINE('',#738,#493);
#436=LINE('',#740,#494);
#437=LINE('',#742,#495);
#438=LINE('',#744,#496);
#439=LINE('',#746,#497);
#440=LINE('',#748,#498);
#441=LINE('',#750,#499);
#442=LINE('',#752,#500);
#443=LINE('',#754,#501);
#444=LINE('',#758,#502);
#445=LINE('',#762,#503);
#446=LINE('',#764,#504);
#447=LINE('',#766,#505);
#448=LINE('',#770,#506);
#449=LINE('',#772,#507);
#450=LINE('',#776,#508);
#451=LINE('',#778,#509);
#452=LINE('',#780,#510);
#453=LINE('',#783,#511);
#454=LINE('',#785,#512);
#455=LINE('',#787,#513);
#456=LINE('',#789,#514);
#457=LINE('',#791,#515);
#458=LINE('',#793,#516);
#459=LINE('',#795,#517);
#460=LINE('',#797,#518);
#461=LINE('',#799,#519);
#462=LINE('',#801,#520);
#463=LINE('',#803,#521);
#464=LINE('',#804,#522);
#465=LINE('',#806,#523);
#466=LINE('',#808,#524);
#467=LINE('',#810,#525);
#468=LINE('',#812,#526);
#469=LINE('',#814,#527);
#470=LINE('',#816,#528);
#471=LINE('',#824,#529);
#472=LINE('',#826,#530);
#473=LINE('',#828,#531);
#474=LINE('',#829,#532);
#475=LINE('',#830,#533);
#476=LINE('',#833,#534);
#477=LINE('',#834,#535);
#478=LINE('',#839,#536);
#479=LINE('',#840,#537);
#480=LINE('',#842,#538);
#481=LINE('',#844,#539);
#482=LINE('',#850,#540);
#483=LINE('',#852,#541);
#484=LINE('',#855,#542);
#485=LINE('',#857,#543);
#486=LINE('',#859,#544);
#487=VECTOR('',#587,1.);
#488=VECTOR('',#588,1.);
#489=VECTOR('',#589,1.);
#490=VECTOR('',#590,1.);
#491=VECTOR('',#591,1.);
#492=VECTOR('',#594,1.);
#493=VECTOR('',#595,1.);
#494=VECTOR('',#596,1.);
#495=VECTOR('',#597,1.);
#496=VECTOR('',#600,1.);
#497=VECTOR('',#601,1.);
#498=VECTOR('',#602,1.);
#499=VECTOR('',#605,1.);
#500=VECTOR('',#606,1.);
#501=VECTOR('',#607,1.);
#502=VECTOR('',#612,1.);
#503=VECTOR('',#615,1.);
#504=VECTOR('',#616,1.);
#505=VECTOR('',#617,1.);
#506=VECTOR('',#620,1.);
#507=VECTOR('',#621,1.);
#508=VECTOR('',#624,1.);
#509=VECTOR('',#625,1.);
#510=VECTOR('',#628,1.);
#511=VECTOR('',#629,1.);
#512=VECTOR('',#630,1.);
#513=VECTOR('',#631,1.);
#514=VECTOR('',#634,1.);
#515=VECTOR('',#635,1.);
#516=VECTOR('',#636,1.);
#517=VECTOR('',#637,1.);
#518=VECTOR('',#638,1.);
#519=VECTOR('',#639,1.);
#520=VECTOR('',#640,1.);
#521=VECTOR('',#641,1.);
#522=VECTOR('',#642,1.);
#523=VECTOR('',#645,1.);
#524=VECTOR('',#646,1.);
#525=VECTOR('',#647,1.);
#526=VECTOR('',#648,1.);
#527=VECTOR('',#649,1.);
#528=VECTOR('',#650,1.);
#529=VECTOR('',#659,1.);
#530=VECTOR('',#662,1.);
#531=VECTOR('',#663,1.);
#532=VECTOR('',#664,1.);
#533=VECTOR('',#665,1.);
#534=VECTOR('',#670,1.);
#535=VECTOR('',#671,1.);
#536=VECTOR('',#680,1.);
#537=VECTOR('',#681,1.);
#538=VECTOR('',#684,1.);
#539=VECTOR('',#685,1.);
#540=VECTOR('',#692,1.);
#541=VECTOR('',#695,1.);
#542=VECTOR('',#700,1.);
#543=VECTOR('',#703,1.);
#544=VECTOR('',#704,1.);
#545=AXIS2_PLACEMENT_3D('',#723,#585,#586);
#546=AXIS2_PLACEMENT_3D('',#734,#592,#593);
#547=AXIS2_PLACEMENT_3D('',#743,#598,#599);
#548=AXIS2_PLACEMENT_3D('',#749,#603,#604);
#549=AXIS2_PLACEMENT_3D('',#755,#608,#609);
#550=AXIS2_PLACEMENT_3D('',#756,#610,#611);
#551=AXIS2_PLACEMENT_3D('',#760,#613,#614);
#552=AXIS2_PLACEMENT_3D('',#768,#618,#619);
#553=AXIS2_PLACEMENT_3D('',#774,#622,#623);
#554=AXIS2_PLACEMENT_3D('',#779,#626,#627);
#555=AXIS2_PLACEMENT_3D('',#788,#632,#633);
#556=AXIS2_PLACEMENT_3D('',#805,#643,#644);
#557=AXIS2_PLACEMENT_3D('',#817,#651,#652);
#558=AXIS2_PLACEMENT_3D('',#818,#653,#654);
#559=AXIS2_PLACEMENT_3D('',#820,#655,#656);
#560=AXIS2_PLACEMENT_3D('',#822,#657,#658);
#561=AXIS2_PLACEMENT_3D('',#825,#660,#661);
#562=AXIS2_PLACEMENT_3D('',#831,#666,#667);
#563=AXIS2_PLACEMENT_3D('',#832,#668,#669);
#564=AXIS2_PLACEMENT_3D('',#835,#672,#673);
#565=AXIS2_PLACEMENT_3D('',#836,#674,#675);
#566=AXIS2_PLACEMENT_3D('',#837,#676,#677);
#567=AXIS2_PLACEMENT_3D('',#838,#678,#679);
#568=AXIS2_PLACEMENT_3D('',#841,#682,#683);
#569=AXIS2_PLACEMENT_3D('',#845,#686,#687);
#570=AXIS2_PLACEMENT_3D('',#846,#688,#689);
#571=AXIS2_PLACEMENT_3D('',#848,#690,#691);
#572=AXIS2_PLACEMENT_3D('',#851,#693,#694);
#573=AXIS2_PLACEMENT_3D('',#853,#696,#697);
#574=AXIS2_PLACEMENT_3D('',#854,#698,#699);
#575=AXIS2_PLACEMENT_3D('',#856,#701,#702);
#576=AXIS2_PLACEMENT_3D('',#860,#705,#706);
#577=AXIS2_PLACEMENT_3D('',#861,#707,#708);
#578=AXIS2_PLACEMENT_3D('',#862,#709,#710);
#579=AXIS2_PLACEMENT_3D('',#863,#711,#712);
#580=AXIS2_PLACEMENT_3D('',#865,#713,#714);
#581=AXIS2_PLACEMENT_3D('',#866,#715,#716);
#582=AXIS2_PLACEMENT_3D('',#867,#717,#718);
#583=AXIS2_PLACEMENT_3D('',#868,#719,#720);
#584=AXIS2_PLACEMENT_3D('',#869,#721,#722);
#585=DIRECTION('',(0.,0.,1.));
#586=DIRECTION('',(1.,0.,0.));
#587=DIRECTION('',(-1.,0.,0.));
#588=DIRECTION('',(0.,0.,-1.));
#589=DIRECTION('',(1.,0.,0.));
#590=DIRECTION('',(0.,0.,1.));
#591=DIRECTION('',(-0.707106781186547,0.,0.707106781186548));
#592=DIRECTION('',(0.,1.,0.));
#593=DIRECTION('',(0.,0.,1.));
#594=DIRECTION('',(1.,0.,0.));
#595=DIRECTION('',(0.,-1.,0.));
#596=DIRECTION('',(1.,0.,0.));
#597=DIRECTION('',(0.,1.,0.));
#598=DIRECTION('',(0.,0.,1.));
#599=DIRECTION('',(1.,0.,0.));
#600=DIRECTION('',(0.707106781186547,0.,-0.707106781186548));
#601=DIRECTION('',(-0.577350269189625,0.577350269189626,0.577350269189626));
#602=DIRECTION('',(0.,-1.,0.));
#603=DIRECTION('',(-0.707106781186548,0.,-0.707106781186547));
#604=DIRECTION('',(0.,-1.,0.));
#605=DIRECTION('',(0.707106781186547,0.,0.707106781186548));
#606=DIRECTION('',(0.,1.,0.));
#607=DIRECTION('',(-0.577350269189625,-0.577350269189626,-0.577350269189626));
#608=DIRECTION('',(0.707106781186548,0.,-0.707106781186547));
#609=DIRECTION('',(0.,1.,0.));
#610=DIRECTION('',(0.,0.,1.));
#611=DIRECTION('',(1.,0.,0.));
#612=DIRECTION('',(0.,1.,0.));
#613=DIRECTION('',(0.,0.,1.));
#614=DIRECTION('',(1.,0.,0.));
#615=DIRECTION('',(0.,1.,0.));
#616=DIRECTION('',(-1.,0.,0.));
#617=DIRECTION('',(0.,1.,0.));
#618=DIRECTION('',(0.,0.,-1.));
#619=DIRECTION('',(1.,0.,0.));
#620=DIRECTION('',(1.,0.,0.));
#621=DIRECTION('',(0.,-1.,0.));
#622=DIRECTION('',(0.,0.,1.));
#623=DIRECTION('',(1.,0.,0.));
#624=DIRECTION('',(0.,-1.,0.));
#625=DIRECTION('',(-1.,0.,0.));
#626=DIRECTION('',(0.,0.,1.));
#627=DIRECTION('',(1.,0.,0.));
#628=DIRECTION('',(0.,0.,1.));
#629=DIRECTION('',(-1.,0.,0.));
#630=DIRECTION('',(0.,0.,1.));
#631=DIRECTION('',(1.,0.,0.));
#632=DIRECTION('',(0.,-1.,0.));
#633=DIRECTION('',(0.,0.,-1.));
#634=DIRECTION('',(0.,0.,1.));
#635=DIRECTION('',(0.,-1.,0.));
#636=DIRECTION('',(0.,0.,-1.));
#637=DIRECTION('',(0.,1.,0.));
#638=DIRECTION('',(0.,0.,1.));
#639=DIRECTION('',(0.,-1.,0.));
#640=DIRECTION('',(0.,0.,1.));
#641=DIRECTION('',(0.,-1.,0.));
#642=DIRECTION('',(0.,0.707106781186548,0.707106781186548));
#643=DIRECTION('',(-1.,0.,0.));
#644=DIRECTION('',(0.,0.,1.));
#645=DIRECTION('',(-1.,0.,0.));
#646=DIRECTION('',(0.,0.,1.));
#647=DIRECTION('',(1.,0.,0.));
#648=DIRECTION('',(0.707106781186547,0.,-0.707106781186548));
#649=DIRECTION('',(0.,0.,1.));
#650=DIRECTION('',(-1.,0.,0.));
#651=DIRECTION('',(0.,1.,0.));
#652=DIRECTION('',(0.,0.,1.));
#653=DIRECTION('',(0.,0.,-1.));
#654=DIRECTION('',(-1.,0.,0.));
#655=DIRECTION('',(0.,0.,-1.));
#656=DIRECTION('',(-1.,0.,0.));
#657=DIRECTION('',(0.,0.,-1.));
#658=DIRECTION('',(-1.,0.,0.));
#659=DIRECTION('',(0.,1.,0.));
#660=DIRECTION('',(0.,0.,-1.));
#661=DIRECTION('',(-1.,0.,0.));
#662=DIRECTION('',(0.,0.,-1.));
#663=DIRECTION('',(0.,-0.707106781186548,-0.707106781186548));
#664=DIRECTION('',(0.,-1.,0.));
#665=DIRECTION('',(0.,1.,0.));
#666=DIRECTION('',(1.,0.,0.));
#667=DIRECTION('',(0.,0.,-1.));
#668=DIRECTION('',(0.,0.707106781186547,-0.707106781186547));
#669=DIRECTION('',(-1.,0.,0.));
#670=DIRECTION('',(0.,0.707106781186548,-0.707106781186548));
#671=DIRECTION('',(0.577350269189625,0.577350269189626,-0.577350269189626));
#672=DIRECTION('',(0.,-0.707106781186547,-0.707106781186547));
#673=DIRECTION('',(1.,0.,0.));
#674=DIRECTION('',(0.707106781186548,0.,0.707106781186547));
#675=DIRECTION('',(0.707106781186547,0.,-0.707106781186548));
#676=DIRECTION('',(-0.707106781186548,0.,-0.707106781186547));
#677=DIRECTION('',(0.,-1.,0.));
#678=DIRECTION('',(-0.707106781186548,0.,0.707106781186547));
#679=DIRECTION('',(-0.707106781186547,0.,-0.707106781186548));
#680=DIRECTION('',(0.707106781186547,0.,0.707106781186548));
#681=DIRECTION('',(-0.707106781186547,0.,-0.707106781186548));
#682=DIRECTION('',(0.707106781186548,0.,-0.707106781186547));
#683=DIRECTION('',(0.,1.,0.));
#684=DIRECTION('',(0.,0.,-1.));
#685=DIRECTION('',(-1.,0.,0.));
#686=DIRECTION('',(0.,-1.,0.));
#687=DIRECTION('',(0.,0.,-1.));
#688=DIRECTION('',(0.,0.,-1.));
#689=DIRECTION('',(-1.,0.,0.));
#690=DIRECTION('',(0.,0.,1.));
#691=DIRECTION('',(-1.,0.,0.));
#692=DIRECTION('',(0.,-1.,0.));
#693=DIRECTION('',(0.,0.,-1.));
#694=DIRECTION('',(-1.,0.,0.));
#695=DIRECTION('',(0.,0.,1.));
#696=DIRECTION('',(1.,0.,0.));
#697=DIRECTION('',(0.,0.,-1.));
#698=DIRECTION('',(0.,0.,1.));
#699=DIRECTION('',(1.,0.,0.));
#700=DIRECTION('',(-1.,0.,0.));
#701=DIRECTION('',(0.,-1.,0.));
#702=DIRECTION('',(0.,0.,-1.));
#703=DIRECTION('',(1.,0.,0.));
#704=DIRECTION('',(0.,0.,1.));
#705=DIRECTION('',(0.,1.,0.));
#706=DIRECTION('',(0.,0.,1.));
#707=DIRECTION('',(0.,0.,-1.));
#708=DIRECTION('',(-1.,0.,0.));
#709=DIRECTION('',(0.,0.,-1.));
#710=DIRECTION('',(-1.,0.,0.));
#711=DIRECTION('',(0.,0.,-1.));
#712=DIRECTION('',(1.,0.,0.));
#713=DIRECTION('',(0.,0.,-1.));
#714=DIRECTION('',(-1.,0.,0.));
#715=DIRECTION('',(0.,0.,-1.));
#716=DIRECTION('',(1.,0.,0.));
#717=DIRECTION('',(0.,0.,-1.));
#718=DIRECTION('',(1.,0.,0.));
#719=DIRECTION('',(0.,0.,-1.));
#720=DIRECTION('',(1.,0.,0.));
#721=DIRECTION('',(0.,0.,-1.));
#722=DIRECTION('',(1.,0.,0.));
#723=CARTESIAN_POINT('',(0.,0.,0.));
#724=CARTESIAN_POINT('',(211.15,55.8,134.3));
#725=CARTESIAN_POINT('',(409.6,55.8,134.3));
#726=CARTESIAN_POINT('',(170.616249154517,55.8,134.3));
#727=CARTESIAN_POINT('',(170.616249154517,55.8,134.35));
#728=CARTESIAN_POINT('',(170.616249154517,55.8,96.4));
#729=CARTESIAN_POINT('',(211.15,55.8,96.4));
#730=CARTESIAN_POINT('',(422.3,55.8,96.4));
#731=CARTESIAN_POINT('',(422.3,55.8,0.));
#732=CARTESIAN_POINT('',(422.3,55.8,121.6));
#733=CARTESIAN_POINT('',(422.3,55.8,121.6));
#734=CARTESIAN_POINT('',(211.15,55.8,96.4));
#735=CARTESIAN_POINT('',(211.15,28.,134.3));
#736=CARTESIAN_POINT('',(9.89999999999999,28.,134.3));
#737=CARTESIAN_POINT('',(409.6,28.,134.3));
#738=CARTESIAN_POINT('',(9.89999999999999,131.25,134.3));
#739=CARTESIAN_POINT('',(9.89999999999999,24.9,134.3));
#740=CARTESIAN_POINT('',(211.15,24.9,134.3));
#741=CARTESIAN_POINT('',(409.6,24.9,134.3));
#742=CARTESIAN_POINT('',(409.6,131.25,134.3));
#743=CARTESIAN_POINT('',(211.15,131.25,134.3));
#744=CARTESIAN_POINT('',(422.3,28.,121.6));
#745=CARTESIAN_POINT('',(422.3,28.,121.6));
#746=CARTESIAN_POINT('',(360.05,74.45,183.85));
#747=CARTESIAN_POINT('',(422.3,12.2,121.6));
#748=CARTESIAN_POINT('',(422.3,131.25,121.6));
#749=CARTESIAN_POINT('',(422.3,131.25,121.6));
#750=CARTESIAN_POINT('',(0.,28.,124.4));
#751=CARTESIAN_POINT('',(0.,28.,124.4));
#752=CARTESIAN_POINT('',(0.,131.25,124.4));
#753=CARTESIAN_POINT('',(0.,15.,124.4));
#754=CARTESIAN_POINT('',(60.3833333333332,75.3833333333333,184.783333333333));
#755=CARTESIAN_POINT('',(0.,131.25,124.4));
#756=CARTESIAN_POINT('',(162.3,63.,134.3));
#757=CARTESIAN_POINT('',(153.983750845483,55.8,134.3));
#758=CARTESIAN_POINT('',(409.6,131.25,134.3));
#759=CARTESIAN_POINT('',(409.6,186.95543621026,134.3));
#760=CARTESIAN_POINT('',(407.8,197.3,134.3));
#761=CARTESIAN_POINT('',(409.6,207.64456378974,134.3));
#762=CARTESIAN_POINT('',(409.6,131.25,134.3));
#763=CARTESIAN_POINT('',(409.6,259.,134.3));
#764=CARTESIAN_POINT('',(211.15,259.,134.3));
#765=CARTESIAN_POINT('',(120.7,259.,134.3));
#766=CARTESIAN_POINT('',(120.7,131.25,134.3));
#767=CARTESIAN_POINT('',(120.7,200.5,134.3));
#768=CARTESIAN_POINT('',(114.4,200.5,134.3));
#769=CARTESIAN_POINT('',(114.4,194.2,134.3));
#770=CARTESIAN_POINT('',(211.15,194.2,134.3));
#771=CARTESIAN_POINT('',(9.89999999999999,194.2,134.3));
#772=CARTESIAN_POINT('',(9.89999999999999,131.25,134.3));
#773=CARTESIAN_POINT('',(9.89999999999999,163.053299832284,134.3));
#774=CARTESIAN_POINT('',(10.4,160.4,134.3));
#775=CARTESIAN_POINT('',(9.89999999999999,157.746700167716,134.3));
#776=CARTESIAN_POINT('',(9.89999999999999,131.25,134.3));
#777=CARTESIAN_POINT('',(9.89999999999999,55.8,134.3));
#778=CARTESIAN_POINT('',(211.15,55.8,134.3));
#779=CARTESIAN_POINT('',(211.15,131.25,134.3));
#780=CARTESIAN_POINT('',(422.3,0.,0.));
#781=CARTESIAN_POINT('',(422.3,0.,0.));
#782=CARTESIAN_POINT('',(422.3,0.,109.4));
#783=CARTESIAN_POINT('',(211.15,0.,109.4));
#784=CARTESIAN_POINT('',(0.,0.,109.4));
#785=CARTESIAN_POINT('',(0.,0.,0.));
#786=CARTESIAN_POINT('',(0.,0.,0.));
#787=CARTESIAN_POINT('',(211.15,0.,0.));
#788=CARTESIAN_POINT('',(211.15,0.,0.));
#789=CARTESIAN_POINT('',(0.,28.,0.));
#790=CARTESIAN_POINT('',(0.,28.,96.4));
#791=CARTESIAN_POINT('',(0.,131.25,96.4));
#792=CARTESIAN_POINT('',(0.,55.8,96.4));
#793=CARTESIAN_POINT('',(0.,55.8,0.));
#794=CARTESIAN_POINT('',(0.,55.8,124.4));
#795=CARTESIAN_POINT('',(0.,131.25,124.4));
#796=CARTESIAN_POINT('',(0.,194.2,124.4));
#797=CARTESIAN_POINT('',(0.,194.2,96.4));
#798=CARTESIAN_POINT('',(0.,194.2,96.4));
#799=CARTESIAN_POINT('',(0.,228.35,96.4));
#800=CARTESIAN_POINT('',(0.,262.5,96.4));
#801=CARTESIAN_POINT('',(0.,262.5,0.));
#802=CARTESIAN_POINT('',(0.,262.5,0.));
#803=CARTESIAN_POINT('',(0.,131.25,0.));
#804=CARTESIAN_POINT('',(0.,10.925,120.325));
#805=CARTESIAN_POINT('',(0.,131.25,0.));
#806=CARTESIAN_POINT('',(60.35,262.5,96.4));
#807=CARTESIAN_POINT('',(120.7,262.5,96.4));
#808=CARTESIAN_POINT('',(120.7,262.5,96.4));
#809=CARTESIAN_POINT('',(120.7,262.5,130.8));
#810=CARTESIAN_POINT('',(211.15,262.5,130.8));
#811=CARTESIAN_POINT('',(413.1,262.5,130.8));
#812=CARTESIAN_POINT('',(377.525,262.5,166.375));
#813=CARTESIAN_POINT('',(422.3,262.5,121.6));
#814=CARTESIAN_POINT('',(422.3,262.5,0.));
#815=CARTESIAN_POINT('',(422.3,262.5,0.));
#816=CARTESIAN_POINT('',(211.15,262.5,0.));
#817=CARTESIAN_POINT('',(211.15,262.5,0.));
#818=CARTESIAN_POINT('',(162.3,63.,0.));
#819=CARTESIAN_POINT('',(151.3,63.,0.));
#820=CARTESIAN_POINT('',(98.5,237.5,0.));
#821=CARTESIAN_POINT('',(77.5,237.5,0.));
#822=CARTESIAN_POINT('',(407.8,197.3,0.));
#823=CARTESIAN_POINT('',(397.3,197.3,0.));
#824=CARTESIAN_POINT('',(422.3,131.25,0.));
#825=CARTESIAN_POINT('',(211.15,131.25,0.));
#826=CARTESIAN_POINT('',(422.3,28.,0.));
#827=CARTESIAN_POINT('',(422.3,28.,96.4));
#828=CARTESIAN_POINT('',(422.3,10.925,120.325));
#829=CARTESIAN_POINT('',(422.3,131.25,121.6));
#830=CARTESIAN_POINT('',(422.3,131.25,96.4));
#831=CARTESIAN_POINT('',(422.3,131.25,0.));
#832=CARTESIAN_POINT('',(211.15,0.,109.4));
#833=CARTESIAN_POINT('',(120.7,262.5,130.8));
#834=CARTESIAN_POINT('',(345.783333333333,195.183333333333,198.116666666667));
#835=CARTESIAN_POINT('',(211.15,262.5,130.8));
#836=CARTESIAN_POINT('',(407.8,197.3,136.1));
#837=CARTESIAN_POINT('',(422.3,131.25,121.6));
#838=CARTESIAN_POINT('',(10.4,160.4,134.8));
#839=CARTESIAN_POINT('',(0.,194.2,124.4));
#840=CARTESIAN_POINT('',(0.,55.8,124.4));
#841=CARTESIAN_POINT('',(0.,131.25,124.4));
#842=CARTESIAN_POINT('',(114.4,194.2,96.4));
#843=CARTESIAN_POINT('',(114.4,194.2,96.4));
#844=CARTESIAN_POINT('',(60.35,194.2,96.4));
#845=CARTESIAN_POINT('',(60.35,194.2,96.4));
#846=CARTESIAN_POINT('',(98.5,237.5,96.4));
#847=CARTESIAN_POINT('',(77.5,237.5,96.4));
#848=CARTESIAN_POINT('',(114.4,200.5,96.4));
#849=CARTESIAN_POINT('',(120.7,200.5,96.4));
#850=CARTESIAN_POINT('',(120.7,228.35,96.4));
#851=CARTESIAN_POINT('',(60.35,228.35,96.4));
#852=CARTESIAN_POINT('',(120.7,200.5,134.3));
#853=CARTESIAN_POINT('',(120.7,228.35,96.4));
#854=CARTESIAN_POINT('',(114.4,200.5,96.4));
#855=CARTESIAN_POINT('',(211.15,28.,96.4));
#856=CARTESIAN_POINT('',(211.15,28.,96.4));
#857=CARTESIAN_POINT('',(211.15,55.8,96.4));
#858=CARTESIAN_POINT('',(153.983750845483,55.8,96.4));
#859=CARTESIAN_POINT('',(153.983750845483,55.8,134.35));
#860=CARTESIAN_POINT('',(211.15,55.8,96.4));
#861=CARTESIAN_POINT('',(162.3,63.,96.4));
#862=CARTESIAN_POINT('',(211.15,41.9,96.4));
#863=CARTESIAN_POINT('',(10.4,160.4,77.4));
#864=CARTESIAN_POINT('',(13.1,160.4,77.4));
#865=CARTESIAN_POINT('',(10.4,160.4,77.4));
#866=CARTESIAN_POINT('',(10.4,160.4,134.35));
#867=CARTESIAN_POINT('',(407.8,197.3,134.35));
#868=CARTESIAN_POINT('',(98.5,237.5,134.35));
#869=CARTESIAN_POINT('',(162.3,63.,134.35));
#870=MECHANICAL_DESIGN_GEOMETRIC_PRESENTATION_REPRESENTATION('',(#24),#871);
#871=(
GEOMETRIC_REPRESENTATION_CONTEXT(3)
GLOBAL_UNCERTAINTY_ASSIGNED_CONTEXT((#872))
GLOBAL_UNIT_ASSIGNED_CONTEXT((#878,#874,#873))
REPRESENTATION_CONTEXT('featured_part_10029','TOP_LEVEL_ASSEMBLY_PART')
);
#872=UNCERTAINTY_MEASURE_WITH_UNIT(LENGTH_MEASURE(2.E-5),#878,
'DISTANCE_ACCURACY_VALUE','Maximum Tolerance applied to model');
#873=(
NAMED_UNIT(*)
SI_UNIT($,.STERADIAN.)
SOLID_ANGLE_UNIT()
);
#874=(
CONVERSION_BASED_UNIT('DEGREE',#876)
NAMED_UNIT(#875)
PLANE_ANGLE_UNIT()
);
#875=DIMENSIONAL_EXPONENTS(0.,0.,0.,0.,0.,0.,0.);
#876=PLANE_ANGLE_MEASURE_WITH_UNIT(PLANE_ANGLE_MEASURE(0.0174532925),#877);
#877=(
NAMED_UNIT(*)
PLANE_ANGLE_UNIT()
SI_UNIT($,.RADIAN.)
);
#878=(
LENGTH_UNIT()
NAMED_UNIT(*)
SI_UNIT(.MILLI.,.METRE.)
);
ENDSEC;
END-ISO-10303-21;
