ISO-10303-21;
HEADER;
/* Generated by software containing ST-Developer
 * from STEP Tools, Inc. (www.steptools.com) 
 */
/* OPTION: using custom schema-name function */

FILE_DESCRIPTION(
/* description */ (''),
/* implementation_level */ '2;1');

FILE_NAME(
/* name */ 'featured_part_11132.stp',
/* time_stamp */ '2026-07-12T13:53:25-04:00',
/* author */ (''),
/* organization */ (''),
/* preprocessor_version */ 'ST-DEVELOPER v20.1',
/* originating_system */ 'SIEMENS PLM Software NX2512.6002',
/* authorisation */ '');

FILE_SCHEMA (('AUTOMOTIVE_DESIGN { 1 0 10303 214 3 1 1 1 }'));
ENDSEC;

DATA;
#10=SHAPE_REPRESENTATION_RELATIONSHIP('None',
'relationship between featured_part_11132-None and featured_part_11132
-None',#22,#11);
#11=ADVANCED_BREP_SHAPE_REPRESENTATION('featured_part_11132-None',(#32),
#515);
#12=SHAPE_DEFINITION_REPRESENTATION(#13,#22);
#13=PRODUCT_DEFINITION_SHAPE('','',#14);
#14=PRODUCT_DEFINITION(' ','',#16,#15);
#15=PRODUCT_DEFINITION_CONTEXT('part definition',#21,'design');
#16=PRODUCT_DEFINITION_FORMATION_WITH_SPECIFIED_SOURCE(' ',' ',#18,
 .NOT_KNOWN.);
#17=PRODUCT_RELATED_PRODUCT_CATEGORY('part','',(#18));
#18=PRODUCT('featured_part_11132','featured_part_11132',' ',(#19));
#19=PRODUCT_CONTEXT(' ',#21,'mechanical');
#20=APPLICATION_PROTOCOL_DEFINITION('international standard',
'automotive_design',2010,#21);
#21=APPLICATION_CONTEXT(
'core data for automotive mechanical design processes');
#22=SHAPE_REPRESENTATION('featured_part_11132-None',(#323),#515);
#23=PRESENTATION_LAYER_ASSIGNMENT('1','Layer 1',(#32));
#24=STYLED_ITEM('',(#25),#32);
#25=PRESENTATION_STYLE_ASSIGNMENT((#26));
#26=SURFACE_STYLE_USAGE(.BOTH.,#27);
#27=SURFACE_SIDE_STYLE('',(#28));
#28=SURFACE_STYLE_FILL_AREA(#29);
#29=FILL_AREA_STYLE('',(#30));
#30=FILL_AREA_STYLE_COLOUR('',#31);
#31=COLOUR_RGB('medium steel',0.611764705882353,0.658823529411765,0.670588235294118);
#32=MANIFOLD_SOLID_BREP('',#33);
#33=CLOSED_SHELL('',(#52,#53,#54,#55,#56,#57,#58,#59,#60,#61,#62,#63,#64,
#65,#66,#67,#68));
#34=CYLINDRICAL_SURFACE('',#341,13.4);
#35=CYLINDRICAL_SURFACE('',#344,9.05);
#36=CYLINDRICAL_SURFACE('',#347,9.);
#37=ELLIPSE('',#333,12.7279220613579,9.);
#38=FACE_OUTER_BOUND('',#91,.T.);
#39=FACE_OUTER_BOUND('',#92,.T.);
#40=FACE_OUTER_BOUND('',#93,.T.);
#41=FACE_OUTER_BOUND('',#94,.T.);
#42=FACE_OUTER_BOUND('',#95,.T.);
#43=FACE_OUTER_BOUND('',#96,.T.);
#44=FACE_OUTER_BOUND('',#97,.T.);
#45=FACE_OUTER_BOUND('',#98,.T.);
#46=FACE_OUTER_BOUND('',#99,.T.);
#47=FACE_OUTER_BOUND('',#100,.T.);
#48=FACE_OUTER_BOUND('',#101,.T.);
#49=FACE_OUTER_BOUND('',#102,.T.);
#50=FACE_OUTER_BOUND('',#103,.T.);
#51=FACE_OUTER_BOUND('',#106,.T.);
#52=ADVANCED_FACE('',(#83,#84),#69,.T.);
#53=ADVANCED_FACE('',(#38),#70,.T.);
#54=ADVANCED_FACE('',(#39),#71,.T.);
#55=ADVANCED_FACE('',(#40),#72,.T.);
#56=ADVANCED_FACE('',(#41),#73,.T.);
#57=ADVANCED_FACE('',(#42),#74,.T.);
#58=ADVANCED_FACE('',(#43),#75,.F.);
#59=ADVANCED_FACE('',(#44),#76,.F.);
#60=ADVANCED_FACE('',(#45),#77,.F.);
#61=ADVANCED_FACE('',(#46),#78,.F.);
#62=ADVANCED_FACE('',(#47),#79,.F.);
#63=ADVANCED_FACE('',(#48),#80,.F.);
#64=ADVANCED_FACE('',(#49),#34,.F.);
#65=ADVANCED_FACE('',(#50),#81,.F.);
#66=ADVANCED_FACE('',(#85,#86),#35,.F.);
#67=ADVANCED_FACE('',(#51),#82,.F.);
#68=ADVANCED_FACE('',(#87,#88),#36,.F.);
#69=PLANE('',#327);
#70=PLANE('',#328);
#71=PLANE('',#329);
#72=PLANE('',#330);
#73=PLANE('',#331);
#74=PLANE('',#332);
#75=PLANE('',#334);
#76=PLANE('',#335);
#77=PLANE('',#336);
#78=PLANE('',#337);
#79=PLANE('',#338);
#80=PLANE('',#340);
#81=PLANE('',#343);
#82=PLANE('',#346);
#83=FACE_BOUND('',#89,.T.);
#84=FACE_BOUND('',#90,.T.);
#85=FACE_BOUND('',#104,.T.);
#86=FACE_BOUND('',#105,.T.);
#87=FACE_BOUND('',#107,.T.);
#88=FACE_BOUND('',#108,.T.);
#89=EDGE_LOOP('',(#173,#174,#175,#176,#177,#178,#179,#180,#181));
#90=EDGE_LOOP('',(#182));
#91=EDGE_LOOP('',(#183,#184,#185,#186,#187));
#92=EDGE_LOOP('',(#188,#189,#190,#191,#192,#193));
#93=EDGE_LOOP('',(#194,#195,#196,#197,#198,#199));
#94=EDGE_LOOP('',(#200,#201,#202,#203));
#95=EDGE_LOOP('',(#204,#205,#206,#207,#208,#209));
#96=EDGE_LOOP('',(#210,#211,#212,#213,#214,#215));
#97=EDGE_LOOP('',(#216,#217,#218,#219,#220));
#98=EDGE_LOOP('',(#221,#222,#223,#224));
#99=EDGE_LOOP('',(#225,#226,#227,#228,#229));
#100=EDGE_LOOP('',(#230,#231,#232,#233,#234));
#101=EDGE_LOOP('',(#235,#236,#237,#238,#239));
#102=EDGE_LOOP('',(#240,#241,#242,#243));
#103=EDGE_LOOP('',(#244));
#104=EDGE_LOOP('',(#245));
#105=EDGE_LOOP('',(#246));
#106=EDGE_LOOP('',(#247));
#107=EDGE_LOOP('',(#248,#249));
#108=EDGE_LOOP('',(#250));
#109=LINE('',#434,#141);
#110=LINE('',#436,#142);
#111=LINE('',#438,#143);
#112=LINE('',#442,#144);
#113=LINE('',#444,#145);
#114=LINE('',#446,#146);
#115=LINE('',#448,#147);
#116=LINE('',#452,#148);
#117=LINE('',#455,#149);
#118=LINE('',#457,#150);
#119=LINE('',#459,#151);
#120=LINE('',#461,#152);
#121=LINE('',#463,#153);
#122=LINE('',#465,#154);
#123=LINE('',#467,#155);
#124=LINE('',#468,#156);
#125=LINE('',#470,#157);
#126=LINE('',#473,#158);
#127=LINE('',#475,#159);
#128=LINE('',#477,#160);
#129=LINE('',#478,#161);
#130=LINE('',#480,#162);
#131=LINE('',#482,#163);
#132=LINE('',#485,#164);
#133=LINE('',#486,#165);
#134=LINE('',#489,#166);
#135=LINE('',#491,#167);
#136=LINE('',#493,#168);
#137=LINE('',#495,#169);
#138=LINE('',#497,#170);
#139=LINE('',#499,#171);
#140=LINE('',#501,#172);
#141=VECTOR('',#352,1.);
#142=VECTOR('',#353,1.);
#143=VECTOR('',#354,1.);
#144=VECTOR('',#357,1.);
#145=VECTOR('',#358,1.);
#146=VECTOR('',#359,1.);
#147=VECTOR('',#360,1.);
#148=VECTOR('',#365,1.);
#149=VECTOR('',#366,1.);
#150=VECTOR('',#367,1.);
#151=VECTOR('',#368,1.);
#152=VECTOR('',#369,1.);
#153=VECTOR('',#372,1.);
#154=VECTOR('',#373,1.);
#155=VECTOR('',#374,1.);
#156=VECTOR('',#375,1.);
#157=VECTOR('',#378,1.);
#158=VECTOR('',#379,1.);
#159=VECTOR('',#380,1.);
#160=VECTOR('',#381,1.);
#161=VECTOR('',#382,1.);
#162=VECTOR('',#385,1.);
#163=VECTOR('',#388,1.);
#164=VECTOR('',#389,1.);
#165=VECTOR('',#390,1.);
#166=VECTOR('',#395,1.);
#167=VECTOR('',#398,1.);
#168=VECTOR('',#401,1.);
#169=VECTOR('',#404,1.);
#170=VECTOR('',#405,1.);
#171=VECTOR('',#408,1.);
#172=VECTOR('',#409,1.);
#173=ORIENTED_EDGE('',*,*,#278,.F.);
#174=ORIENTED_EDGE('',*,*,#279,.T.);
#175=ORIENTED_EDGE('',*,*,#280,.T.);
#176=ORIENTED_EDGE('',*,*,#281,.F.);
#177=ORIENTED_EDGE('',*,*,#282,.T.);
#178=ORIENTED_EDGE('',*,*,#283,.F.);
#179=ORIENTED_EDGE('',*,*,#284,.T.);
#180=ORIENTED_EDGE('',*,*,#285,.F.);
#181=ORIENTED_EDGE('',*,*,#286,.T.);
#182=ORIENTED_EDGE('',*,*,#287,.F.);
#183=ORIENTED_EDGE('',*,*,#288,.T.);
#184=ORIENTED_EDGE('',*,*,#289,.T.);
#185=ORIENTED_EDGE('',*,*,#290,.T.);
#186=ORIENTED_EDGE('',*,*,#291,.F.);
#187=ORIENTED_EDGE('',*,*,#292,.T.);
#188=ORIENTED_EDGE('',*,*,#285,.T.);
#189=ORIENTED_EDGE('',*,*,#293,.T.);
#190=ORIENTED_EDGE('',*,*,#294,.F.);
#191=ORIENTED_EDGE('',*,*,#295,.T.);
#192=ORIENTED_EDGE('',*,*,#291,.T.);
#193=ORIENTED_EDGE('',*,*,#296,.T.);
#194=ORIENTED_EDGE('',*,*,#297,.F.);
#195=ORIENTED_EDGE('',*,*,#298,.F.);
#196=ORIENTED_EDGE('',*,*,#299,.F.);
#197=ORIENTED_EDGE('',*,*,#300,.T.);
#198=ORIENTED_EDGE('',*,*,#294,.T.);
#199=ORIENTED_EDGE('',*,*,#301,.T.);
#200=ORIENTED_EDGE('',*,*,#302,.F.);
#201=ORIENTED_EDGE('',*,*,#292,.F.);
#202=ORIENTED_EDGE('',*,*,#295,.F.);
#203=ORIENTED_EDGE('',*,*,#300,.F.);
#204=ORIENTED_EDGE('',*,*,#303,.T.);
#205=ORIENTED_EDGE('',*,*,#304,.T.);
#206=ORIENTED_EDGE('',*,*,#288,.F.);
#207=ORIENTED_EDGE('',*,*,#302,.T.);
#208=ORIENTED_EDGE('',*,*,#299,.T.);
#209=ORIENTED_EDGE('',*,*,#305,.F.);
#210=ORIENTED_EDGE('',*,*,#306,.F.);
#211=ORIENTED_EDGE('',*,*,#286,.F.);
#212=ORIENTED_EDGE('',*,*,#296,.F.);
#213=ORIENTED_EDGE('',*,*,#290,.F.);
#214=ORIENTED_EDGE('',*,*,#307,.T.);
#215=ORIENTED_EDGE('',*,*,#279,.F.);
#216=ORIENTED_EDGE('',*,*,#308,.F.);
#217=ORIENTED_EDGE('',*,*,#280,.F.);
#218=ORIENTED_EDGE('',*,*,#307,.F.);
#219=ORIENTED_EDGE('',*,*,#289,.F.);
#220=ORIENTED_EDGE('',*,*,#304,.F.);
#221=ORIENTED_EDGE('',*,*,#309,.F.);
#222=ORIENTED_EDGE('',*,*,#301,.F.);
#223=ORIENTED_EDGE('',*,*,#293,.F.);
#224=ORIENTED_EDGE('',*,*,#284,.F.);
#225=ORIENTED_EDGE('',*,*,#310,.T.);
#226=ORIENTED_EDGE('',*,*,#311,.T.);
#227=ORIENTED_EDGE('',*,*,#281,.T.);
#228=ORIENTED_EDGE('',*,*,#308,.T.);
#229=ORIENTED_EDGE('',*,*,#303,.F.);
#230=ORIENTED_EDGE('',*,*,#283,.T.);
#231=ORIENTED_EDGE('',*,*,#312,.T.);
#232=ORIENTED_EDGE('',*,*,#313,.T.);
#233=ORIENTED_EDGE('',*,*,#297,.T.);
#234=ORIENTED_EDGE('',*,*,#309,.T.);
#235=ORIENTED_EDGE('',*,*,#313,.F.);
#236=ORIENTED_EDGE('',*,*,#314,.T.);
#237=ORIENTED_EDGE('',*,*,#310,.F.);
#238=ORIENTED_EDGE('',*,*,#305,.T.);
#239=ORIENTED_EDGE('',*,*,#298,.T.);
#240=ORIENTED_EDGE('',*,*,#282,.F.);
#241=ORIENTED_EDGE('',*,*,#311,.F.);
#242=ORIENTED_EDGE('',*,*,#314,.F.);
#243=ORIENTED_EDGE('',*,*,#312,.F.);
#244=ORIENTED_EDGE('',*,*,#315,.F.);
#245=ORIENTED_EDGE('',*,*,#287,.T.);
#246=ORIENTED_EDGE('',*,*,#315,.T.);
#247=ORIENTED_EDGE('',*,*,#316,.F.);
#248=ORIENTED_EDGE('',*,*,#278,.T.);
#249=ORIENTED_EDGE('',*,*,#306,.T.);
#250=ORIENTED_EDGE('',*,*,#316,.T.);
#251=VERTEX_POINT('',#432);
#252=VERTEX_POINT('',#433);
#253=VERTEX_POINT('',#435);
#254=VERTEX_POINT('',#437);
#255=VERTEX_POINT('',#439);
#256=VERTEX_POINT('',#441);
#257=VERTEX_POINT('',#443);
#258=VERTEX_POINT('',#445);
#259=VERTEX_POINT('',#447);
#260=VERTEX_POINT('',#450);
#261=VERTEX_POINT('',#453);
#262=VERTEX_POINT('',#454);
#263=VERTEX_POINT('',#456);
#264=VERTEX_POINT('',#458);
#265=VERTEX_POINT('',#460);
#266=VERTEX_POINT('',#464);
#267=VERTEX_POINT('',#466);
#268=VERTEX_POINT('',#471);
#269=VERTEX_POINT('',#472);
#270=VERTEX_POINT('',#474);
#271=VERTEX_POINT('',#476);
#272=VERTEX_POINT('',#483);
#273=VERTEX_POINT('',#484);
#274=VERTEX_POINT('',#496);
#275=VERTEX_POINT('',#500);
#276=VERTEX_POINT('',#507);
#277=VERTEX_POINT('',#511);
#278=EDGE_CURVE('',#251,#252,#317,.T.);
#279=EDGE_CURVE('',#251,#253,#109,.T.);
#280=EDGE_CURVE('',#253,#254,#110,.T.);
#281=EDGE_CURVE('',#255,#254,#111,.T.);
#282=EDGE_CURVE('',#255,#256,#318,.T.);
#283=EDGE_CURVE('',#257,#256,#112,.T.);
#284=EDGE_CURVE('',#257,#258,#113,.T.);
#285=EDGE_CURVE('',#259,#258,#114,.T.);
#286=EDGE_CURVE('',#259,#252,#115,.T.);
#287=EDGE_CURVE('',#260,#260,#319,.T.);
#288=EDGE_CURVE('',#261,#262,#116,.T.);
#289=EDGE_CURVE('',#262,#263,#117,.T.);
#290=EDGE_CURVE('',#263,#264,#118,.T.);
#291=EDGE_CURVE('',#265,#264,#119,.T.);
#292=EDGE_CURVE('',#265,#261,#120,.T.);
#293=EDGE_CURVE('',#258,#266,#121,.T.);
#294=EDGE_CURVE('',#267,#266,#122,.T.);
#295=EDGE_CURVE('',#267,#265,#123,.T.);
#296=EDGE_CURVE('',#264,#259,#124,.T.);
#297=EDGE_CURVE('',#268,#269,#125,.T.);
#298=EDGE_CURVE('',#270,#268,#126,.T.);
#299=EDGE_CURVE('',#271,#270,#127,.T.);
#300=EDGE_CURVE('',#271,#267,#128,.T.);
#301=EDGE_CURVE('',#266,#269,#129,.T.);
#302=EDGE_CURVE('',#261,#271,#130,.T.);
#303=EDGE_CURVE('',#272,#273,#131,.T.);
#304=EDGE_CURVE('',#273,#262,#132,.T.);
#305=EDGE_CURVE('',#272,#270,#133,.T.);
#306=EDGE_CURVE('',#252,#251,#37,.T.);
#307=EDGE_CURVE('',#263,#253,#134,.T.);
#308=EDGE_CURVE('',#254,#273,#135,.T.);
#309=EDGE_CURVE('',#269,#257,#136,.T.);
#310=EDGE_CURVE('',#272,#274,#137,.T.);
#311=EDGE_CURVE('',#274,#255,#138,.T.);
#312=EDGE_CURVE('',#256,#275,#139,.T.);
#313=EDGE_CURVE('',#275,#268,#140,.T.);
#314=EDGE_CURVE('',#275,#274,#320,.T.);
#315=EDGE_CURVE('',#276,#276,#321,.T.);
#316=EDGE_CURVE('',#277,#277,#322,.T.);
#317=CIRCLE('',#324,9.);
#318=CIRCLE('',#325,13.4);
#319=CIRCLE('',#326,9.05);
#320=CIRCLE('',#339,13.4);
#321=CIRCLE('',#342,9.05);
#322=CIRCLE('',#345,9.);
#323=AXIS2_PLACEMENT_3D('',#430,#348,#349);
#324=AXIS2_PLACEMENT_3D('',#431,#350,#351);
#325=AXIS2_PLACEMENT_3D('',#440,#355,#356);
#326=AXIS2_PLACEMENT_3D('',#449,#361,#362);
#327=AXIS2_PLACEMENT_3D('',#451,#363,#364);
#328=AXIS2_PLACEMENT_3D('',#462,#370,#371);
#329=AXIS2_PLACEMENT_3D('',#469,#376,#377);
#330=AXIS2_PLACEMENT_3D('',#479,#383,#384);
#331=AXIS2_PLACEMENT_3D('',#481,#386,#387);
#332=AXIS2_PLACEMENT_3D('',#487,#391,#392);
#333=AXIS2_PLACEMENT_3D('',#488,#393,#394);
#334=AXIS2_PLACEMENT_3D('',#490,#396,#397);
#335=AXIS2_PLACEMENT_3D('',#492,#399,#400);
#336=AXIS2_PLACEMENT_3D('',#494,#402,#403);
#337=AXIS2_PLACEMENT_3D('',#498,#406,#407);
#338=AXIS2_PLACEMENT_3D('',#502,#410,#411);
#339=AXIS2_PLACEMENT_3D('',#503,#412,#413);
#340=AXIS2_PLACEMENT_3D('',#504,#414,#415);
#341=AXIS2_PLACEMENT_3D('',#505,#416,#417);
#342=AXIS2_PLACEMENT_3D('',#506,#418,#419);
#343=AXIS2_PLACEMENT_3D('',#508,#420,#421);
#344=AXIS2_PLACEMENT_3D('',#509,#422,#423);
#345=AXIS2_PLACEMENT_3D('',#510,#424,#425);
#346=AXIS2_PLACEMENT_3D('',#512,#426,#427);
#347=AXIS2_PLACEMENT_3D('',#513,#428,#429);
#348=DIRECTION('',(0.,0.,1.));
#349=DIRECTION('',(1.,0.,0.));
#350=DIRECTION('',(0.,0.,1.));
#351=DIRECTION('',(1.,0.,0.));
#352=DIRECTION('',(1.,0.,0.));
#353=DIRECTION('',(0.,1.,0.));
#354=DIRECTION('',(1.,0.,0.));
#355=DIRECTION('',(0.,0.,-1.));
#356=DIRECTION('',(1.,0.,0.));
#357=DIRECTION('',(0.,-1.,0.));
#358=DIRECTION('',(-1.,0.,0.));
#359=DIRECTION('',(0.,1.,0.));
#360=DIRECTION('',(1.,0.,0.));
#361=DIRECTION('',(0.,0.,1.));
#362=DIRECTION('',(1.,0.,0.));
#363=DIRECTION('',(0.,0.,1.));
#364=DIRECTION('',(1.,0.,0.));
#365=DIRECTION('',(0.,0.,1.));
#366=DIRECTION('',(-0.707106781186548,0.,0.707106781186547));
#367=DIRECTION('',(-1.,0.,0.));
#368=DIRECTION('',(0.,0.,1.));
#369=DIRECTION('',(1.,0.,0.));
#370=DIRECTION('',(0.,-1.,0.));
#371=DIRECTION('',(0.,0.,-1.));
#372=DIRECTION('',(0.,0.707106781186548,-0.707106781186548));
#373=DIRECTION('',(0.,0.,1.));
#374=DIRECTION('',(0.,-1.,0.));
#375=DIRECTION('',(0.,0.707106781186548,0.707106781186548));
#376=DIRECTION('',(-1.,0.,0.));
#377=DIRECTION('',(0.,0.,1.));
#378=DIRECTION('',(0.,0.,1.));
#379=DIRECTION('',(-1.,0.,0.));
#380=DIRECTION('',(0.,0.,1.));
#381=DIRECTION('',(-1.,0.,0.));
#382=DIRECTION('',(1.,0.,0.));
#383=DIRECTION('',(0.,1.,0.));
#384=DIRECTION('',(0.,0.,1.));
#385=DIRECTION('',(0.,1.,0.));
#386=DIRECTION('',(0.,0.,-1.));
#387=DIRECTION('',(-1.,0.,0.));
#388=DIRECTION('',(0.,0.,1.));
#389=DIRECTION('',(0.,-1.,0.));
#390=DIRECTION('',(0.,1.,0.));
#391=DIRECTION('',(1.,0.,0.));
#392=DIRECTION('',(0.,0.,-1.));
#393=DIRECTION('',(0.,-0.707106781186548,0.707106781186548));
#394=DIRECTION('',(0.,-0.707106781186548,-0.707106781186548));
#395=DIRECTION('',(-0.577350269189626,0.577350269189626,0.577350269189626));
#396=DIRECTION('',(0.,0.707106781186547,-0.707106781186547));
#397=DIRECTION('',(-1.,0.,0.));
#398=DIRECTION('',(0.707106781186548,0.,-0.707106781186547));
#399=DIRECTION('',(-0.707106781186547,0.,-0.707106781186548));
#400=DIRECTION('',(0.,-1.,0.));
#401=DIRECTION('',(0.,-0.707106781186548,0.707106781186548));
#402=DIRECTION('',(0.,-0.707106781186547,-0.707106781186547));
#403=DIRECTION('',(1.,0.,0.));
#404=DIRECTION('',(-1.,0.,0.));
#405=DIRECTION('',(0.,0.,1.));
#406=DIRECTION('',(0.,-1.,0.));
#407=DIRECTION('',(0.,0.,-1.));
#408=DIRECTION('',(0.,0.,-1.));
#409=DIRECTION('',(0.,1.,0.));
#410=DIRECTION('',(-1.,0.,0.));
#411=DIRECTION('',(0.,0.,1.));
#412=DIRECTION('',(0.,0.,1.));
#413=DIRECTION('',(-1.,0.,0.));
#414=DIRECTION('',(0.,0.,-1.));
#415=DIRECTION('',(-1.,0.,0.));
#416=DIRECTION('',(0.,0.,1.));
#417=DIRECTION('',(1.,0.,0.));
#418=DIRECTION('',(0.,0.,-1.));
#419=DIRECTION('',(1.,0.,0.));
#420=DIRECTION('',(0.,0.,-1.));
#421=DIRECTION('',(-1.,0.,0.));
#422=DIRECTION('',(0.,0.,-1.));
#423=DIRECTION('',(1.,0.,0.));
#424=DIRECTION('',(0.,0.,-1.));
#425=DIRECTION('',(1.,0.,0.));
#426=DIRECTION('',(0.,0.,-1.));
#427=DIRECTION('',(-1.,0.,0.));
#428=DIRECTION('',(0.,0.,-1.));
#429=DIRECTION('',(1.,0.,0.));
#430=CARTESIAN_POINT('',(0.,0.,0.));
#431=CARTESIAN_POINT('',(165.6,13.,78.9));
#432=CARTESIAN_POINT('',(172.8,7.6,78.9));
#433=CARTESIAN_POINT('',(158.4,7.6,78.9));
#434=CARTESIAN_POINT('',(207.15,7.6,78.9));
#435=CARTESIAN_POINT('',(400.3,7.6,78.9));
#436=CARTESIAN_POINT('',(400.3,141.6,78.9));
#437=CARTESIAN_POINT('',(400.3,216.,78.9));
#438=CARTESIAN_POINT('',(207.15,216.,78.9));
#439=CARTESIAN_POINT('',(304.4,216.,78.9));
#440=CARTESIAN_POINT('',(304.4,229.4,78.9));
#441=CARTESIAN_POINT('',(291.,229.4,78.9));
#442=CARTESIAN_POINT('',(291.,141.6,78.9));
#443=CARTESIAN_POINT('',(291.,280.7,78.9));
#444=CARTESIAN_POINT('',(207.15,280.7,78.9));
#445=CARTESIAN_POINT('',(0.,280.7,78.9));
#446=CARTESIAN_POINT('',(0.,141.6,78.9));
#447=CARTESIAN_POINT('',(0.,7.6,78.9));
#448=CARTESIAN_POINT('',(207.15,7.6,78.9));
#449=CARTESIAN_POINT('',(118.2,270.1,78.9));
#450=CARTESIAN_POINT('',(127.25,270.1,78.9));
#451=CARTESIAN_POINT('',(207.15,141.6,78.9));
#452=CARTESIAN_POINT('',(414.3,0.,0.));
#453=CARTESIAN_POINT('',(414.3,0.,0.));
#454=CARTESIAN_POINT('',(414.3,0.,64.9));
#455=CARTESIAN_POINT('',(343.175,0.,136.025));
#456=CARTESIAN_POINT('',(407.9,0.,71.3));
#457=CARTESIAN_POINT('',(207.15,0.,71.3));
#458=CARTESIAN_POINT('',(0.,0.,71.3));
#459=CARTESIAN_POINT('',(0.,0.,0.));
#460=CARTESIAN_POINT('',(0.,0.,0.));
#461=CARTESIAN_POINT('',(207.15,0.,0.));
#462=CARTESIAN_POINT('',(207.15,0.,0.));
#463=CARTESIAN_POINT('',(0.,250.6,109.));
#464=CARTESIAN_POINT('',(0.,283.2,76.4));
#465=CARTESIAN_POINT('',(0.,283.2,0.));
#466=CARTESIAN_POINT('',(0.,283.2,0.));
#467=CARTESIAN_POINT('',(0.,141.6,0.));
#468=CARTESIAN_POINT('',(0.,35.15,106.45));
#469=CARTESIAN_POINT('',(0.,141.6,0.));
#470=CARTESIAN_POINT('',(291.,283.2,41.));
#471=CARTESIAN_POINT('',(291.,283.2,41.));
#472=CARTESIAN_POINT('',(291.,283.2,76.4));
#473=CARTESIAN_POINT('',(352.65,283.2,41.));
#474=CARTESIAN_POINT('',(414.3,283.2,41.));
#475=CARTESIAN_POINT('',(414.3,283.2,0.));
#476=CARTESIAN_POINT('',(414.3,283.2,0.));
#477=CARTESIAN_POINT('',(207.15,283.2,0.));
#478=CARTESIAN_POINT('',(207.15,283.2,76.4));
#479=CARTESIAN_POINT('',(207.15,283.2,0.));
#480=CARTESIAN_POINT('',(414.3,141.6,0.));
#481=CARTESIAN_POINT('',(207.15,141.6,0.));
#482=CARTESIAN_POINT('',(414.3,216.,41.));
#483=CARTESIAN_POINT('',(414.3,216.,41.));
#484=CARTESIAN_POINT('',(414.3,216.,64.9));
#485=CARTESIAN_POINT('',(414.3,141.6,64.9));
#486=CARTESIAN_POINT('',(414.3,249.6,41.));
#487=CARTESIAN_POINT('',(414.3,141.6,0.));
#488=CARTESIAN_POINT('',(165.6,13.,84.3));
#489=CARTESIAN_POINT('',(340.983333333333,66.9166666666667,138.216666666667));
#490=CARTESIAN_POINT('',(207.15,0.,71.3));
#491=CARTESIAN_POINT('',(414.3,216.,64.9));
#492=CARTESIAN_POINT('',(414.3,141.6,64.9));
#493=CARTESIAN_POINT('',(291.,283.2,76.4));
#494=CARTESIAN_POINT('',(207.15,283.2,76.4));
#495=CARTESIAN_POINT('',(352.65,216.,41.));
#496=CARTESIAN_POINT('',(304.4,216.,41.));
#497=CARTESIAN_POINT('',(304.4,216.,78.9));
#498=CARTESIAN_POINT('',(352.65,216.,41.));
#499=CARTESIAN_POINT('',(291.,229.4,41.));
#500=CARTESIAN_POINT('',(291.,229.4,41.));
#501=CARTESIAN_POINT('',(291.,249.6,41.));
#502=CARTESIAN_POINT('',(291.,249.6,41.));
#503=CARTESIAN_POINT('',(304.4,229.4,41.));
#504=CARTESIAN_POINT('',(352.65,249.6,41.));
#505=CARTESIAN_POINT('',(304.4,229.4,41.));
#506=CARTESIAN_POINT('',(118.2,270.1,36.3));
#507=CARTESIAN_POINT('',(127.25,270.1,36.3));
#508=CARTESIAN_POINT('',(118.2,270.1,36.3));
#509=CARTESIAN_POINT('',(118.2,270.1,78.95));
#510=CARTESIAN_POINT('',(165.6,13.,42.3));
#511=CARTESIAN_POINT('',(174.6,13.,42.3));
#512=CARTESIAN_POINT('',(165.6,13.,42.3));
#513=CARTESIAN_POINT('',(165.6,13.,78.95));
#514=MECHANICAL_DESIGN_GEOMETRIC_PRESENTATION_REPRESENTATION('',(#24),#515);
#515=(
GEOMETRIC_REPRESENTATION_CONTEXT(3)
GLOBAL_UNCERTAINTY_ASSIGNED_CONTEXT((#516))
GLOBAL_UNIT_ASSIGNED_CONTEXT((#522,#518,#517))
REPRESENTATION_CONTEXT('featured_part_11132','TOP_LEVEL_ASSEMBLY_PART')
);
#516=UNCERTAINTY_MEASURE_WITH_UNIT(LENGTH_MEASURE(2.E-5),#522,
'DISTANCE_ACCURACY_VALUE','Maximum Tolerance applied to model');
#517=(
NAMED_UNIT(*)
SI_UNIT($,.STERADIAN.)
SOLID_ANGLE_UNIT()
);
#518=(
CONVERSION_BASED_UNIT('DEGREE',#520)
NAMED_UNIT(#519)
PLANE_ANGLE_UNIT()
);
#519=DIMENSIONAL_EXPONENTS(0.,0.,0.,0.,0.,0.,0.);
#520=PLANE_ANGLE_MEASURE_WITH_UNIT(PLANE_ANGLE_MEASURE(0.0174532925),#521);
#521=(
NAMED_UNIT(*)
PLANE_ANGLE_UNIT()
SI_UNIT($,.RADIAN.)
);
#522=(
LENGTH_UNIT()
NAMED_UNIT(*)
SI_UNIT(.MILLI.,.METRE.)
);
ENDSEC;
END-ISO-10303-21;
