ISO-10303-21;
HEADER;
/* Generated by software containing ST-Developer
 * from STEP Tools, Inc. (www.steptools.com) 
 */
/* OPTION: using custom schema-name function */

FILE_DESCRIPTION(
/* description */ (''),
/* implementation_level */ '2;1');

FILE_NAME(
/* name */ 'featured_part_08755.stp',
/* time_stamp */ '2026-07-11T02:02:12-04:00',
/* author */ (''),
/* organization */ (''),
/* preprocessor_version */ 'ST-DEVELOPER v20.1',
/* originating_system */ 'SIEMENS PLM Software NX2512.6002',
/* authorisation */ '');

FILE_SCHEMA (('PROCESS_PLANNING_SCHEMA'));
ENDSEC;

DATA;
#10=SHAPE_REPRESENTATION_RELATIONSHIP('None',
'relationship between featured_part_08755-None and featured_part_08755
-None',#22,#11);
#11=ADVANCED_BREP_SHAPE_REPRESENTATION('featured_part_08755-None',(#32),
#908);
#12=SHAPE_DEFINITION_REPRESENTATION(#13,#22);
#13=PRODUCT_DEFINITION_SHAPE('','',#14);
#14=PRODUCT_DEFINITION(' ','',#16,#15);
#15=PRODUCT_DEFINITION_CONTEXT('part definition',#21,'design');
#16=PRODUCT_DEFINITION_FORMATION_WITH_SPECIFIED_SOURCE(' ',' ',#18,
 .NOT_KNOWN.);
#17=PRODUCT_RELATED_PRODUCT_CATEGORY('part','',(#18));
#18=PRODUCT('featured_part_08755','featured_part_08755',' ',(#19));
#19=PRODUCT_CONTEXT(' ',#21,'mechanical');
#20=APPLICATION_PROTOCOL_DEFINITION('international standard',
'automotive_design',2010,#21);
#21=APPLICATION_CONTEXT(
'core data for automotive mechanical design processes');
#22=SHAPE_REPRESENTATION('featured_part_08755-None',(#555),#908);
#23=PRESENTATION_LAYER_ASSIGNMENT('1','Layer 1',(#32));
#24=STYLED_ITEM('',(#25),#32);
#25=PRESENTATION_STYLE_ASSIGNMENT((#26));
#26=SURFACE_STYLE_USAGE(.BOTH.,#27);
#27=SURFACE_SIDE_STYLE('',(#28));
#28=SURFACE_STYLE_FILL_AREA(#29);
#29=FILL_AREA_STYLE('',(#30));
#30=FILL_AREA_STYLE_COLOUR('',#31);
#31=COLOUR_RGB('medium steel',0.611764705882353,0.658823529411765,0.670588235294118);
#32=MANIFOLD_SOLID_BREP('',#33);
#33=CLOSED_SHELL('',(#69,#70,#71,#72,#73,#74,#75,#76,#77,#78,#79,#80,#81,
#82,#83,#84,#85,#86,#87,#88,#89,#90,#91,#92,#93,#94,#95,#96,#97));
#34=CYLINDRICAL_SURFACE('',#576,9.);
#35=CYLINDRICAL_SURFACE('',#585,5.6);
#36=CYLINDRICAL_SURFACE('',#586,5.6);
#37=CYLINDRICAL_SURFACE('',#587,5.6);
#38=CYLINDRICAL_SURFACE('',#588,5.6);
#39=CYLINDRICAL_SURFACE('',#595,8.6);
#40=CYLINDRICAL_SURFACE('',#596,8.6);
#41=CYLINDRICAL_SURFACE('',#599,3.7);
#42=CYLINDRICAL_SURFACE('',#602,3.7);
#43=FACE_OUTER_BOUND('',#238,.T.);
#44=FACE_OUTER_BOUND('',#239,.T.);
#45=FACE_OUTER_BOUND('',#240,.T.);
#46=FACE_OUTER_BOUND('',#241,.T.);
#47=FACE_OUTER_BOUND('',#242,.T.);
#48=FACE_OUTER_BOUND('',#243,.T.);
#49=FACE_OUTER_BOUND('',#244,.T.);
#50=FACE_OUTER_BOUND('',#245,.T.);
#51=FACE_OUTER_BOUND('',#246,.T.);
#52=FACE_OUTER_BOUND('',#247,.T.);
#53=FACE_OUTER_BOUND('',#248,.T.);
#54=FACE_OUTER_BOUND('',#249,.T.);
#55=FACE_OUTER_BOUND('',#250,.T.);
#56=FACE_OUTER_BOUND('',#251,.T.);
#57=FACE_OUTER_BOUND('',#252,.T.);
#58=FACE_OUTER_BOUND('',#253,.T.);
#59=FACE_OUTER_BOUND('',#254,.T.);
#60=FACE_OUTER_BOUND('',#255,.T.);
#61=FACE_OUTER_BOUND('',#256,.T.);
#62=FACE_OUTER_BOUND('',#257,.T.);
#63=FACE_OUTER_BOUND('',#258,.T.);
#64=FACE_OUTER_BOUND('',#259,.T.);
#65=FACE_OUTER_BOUND('',#260,.T.);
#66=FACE_OUTER_BOUND('',#261,.T.);
#67=FACE_OUTER_BOUND('',#262,.T.);
#68=FACE_OUTER_BOUND('',#265,.T.);
#69=ADVANCED_FACE('',(#228,#229,#230),#98,.T.);
#70=ADVANCED_FACE('',(#43),#99,.T.);
#71=ADVANCED_FACE('',(#44),#100,.T.);
#72=ADVANCED_FACE('',(#45),#101,.T.);
#73=ADVANCED_FACE('',(#46),#102,.T.);
#74=ADVANCED_FACE('',(#47),#103,.T.);
#75=ADVANCED_FACE('',(#48),#104,.F.);
#76=ADVANCED_FACE('',(#49),#105,.F.);
#77=ADVANCED_FACE('',(#50),#106,.F.);
#78=ADVANCED_FACE('',(#51),#107,.F.);
#79=ADVANCED_FACE('',(#52),#34,.F.);
#80=ADVANCED_FACE('',(#53),#108,.F.);
#81=ADVANCED_FACE('',(#54),#109,.F.);
#82=ADVANCED_FACE('',(#55),#110,.F.);
#83=ADVANCED_FACE('',(#56),#111,.F.);
#84=ADVANCED_FACE('',(#57),#35,.F.);
#85=ADVANCED_FACE('',(#58),#36,.T.);
#86=ADVANCED_FACE('',(#59),#37,.F.);
#87=ADVANCED_FACE('',(#60),#38,.T.);
#88=ADVANCED_FACE('',(#61),#112,.F.);
#89=ADVANCED_FACE('',(#62),#113,.F.);
#90=ADVANCED_FACE('',(#63),#114,.F.);
#91=ADVANCED_FACE('',(#64),#115,.F.);
#92=ADVANCED_FACE('',(#65),#39,.F.);
#93=ADVANCED_FACE('',(#66),#40,.F.);
#94=ADVANCED_FACE('',(#67),#116,.F.);
#95=ADVANCED_FACE('',(#231,#232),#41,.F.);
#96=ADVANCED_FACE('',(#68),#117,.F.);
#97=ADVANCED_FACE('',(#233,#234),#42,.F.);
#98=PLANE('',#565);
#99=PLANE('',#566);
#100=PLANE('',#567);
#101=PLANE('',#568);
#102=PLANE('',#569);
#103=PLANE('',#570);
#104=PLANE('',#571);
#105=PLANE('',#572);
#106=PLANE('',#574);
#107=PLANE('',#575);
#108=PLANE('',#577);
#109=PLANE('',#578);
#110=PLANE('',#583);
#111=PLANE('',#584);
#112=PLANE('',#589);
#113=PLANE('',#590);
#114=PLANE('',#593);
#115=PLANE('',#594);
#116=PLANE('',#598);
#117=PLANE('',#601);
#118=LINE('',#759,#173);
#119=LINE('',#764,#174);
#120=LINE('',#768,#175);
#121=LINE('',#770,#176);
#122=LINE('',#772,#177);
#123=LINE('',#774,#178);
#124=LINE('',#776,#179);
#125=LINE('',#780,#180);
#126=LINE('',#784,#181);
#127=LINE('',#788,#182);
#128=LINE('',#792,#183);
#129=LINE('',#796,#184);
#130=LINE('',#798,#185);
#131=LINE('',#800,#186);
#132=LINE('',#802,#187);
#133=LINE('',#804,#188);
#134=LINE('',#806,#189);
#135=LINE('',#808,#190);
#136=LINE('',#810,#191);
#137=LINE('',#811,#192);
#138=LINE('',#813,#193);
#139=LINE('',#815,#194);
#140=LINE('',#818,#195);
#141=LINE('',#820,#196);
#142=LINE('',#822,#197);
#143=LINE('',#823,#198);
#144=LINE('',#825,#199);
#145=LINE('',#827,#200);
#146=LINE('',#828,#201);
#147=LINE('',#830,#202);
#148=LINE('',#832,#203);
#149=LINE('',#835,#204);
#150=LINE('',#837,#205);
#151=LINE('',#839,#206);
#152=LINE('',#841,#207);
#153=LINE('',#842,#208);
#154=LINE('',#844,#209);
#155=LINE('',#848,#210);
#156=LINE('',#850,#211);
#157=LINE('',#853,#212);
#158=LINE('',#856,#213);
#159=LINE('',#857,#214);
#160=LINE('',#859,#215);
#161=LINE('',#861,#216);
#162=LINE('',#863,#217);
#163=LINE('',#868,#218);
#164=LINE('',#873,#219);
#165=LINE('',#874,#220);
#166=LINE('',#880,#221);
#167=LINE('',#882,#222);
#168=LINE('',#884,#223);
#169=LINE('',#886,#224);
#170=LINE('',#888,#225);
#171=LINE('',#891,#226);
#172=LINE('',#895,#227);
#173=VECTOR('',#609,1.);
#174=VECTOR('',#612,1.);
#175=VECTOR('',#615,1.);
#176=VECTOR('',#616,1.);
#177=VECTOR('',#617,1.);
#178=VECTOR('',#618,1.);
#179=VECTOR('',#619,1.);
#180=VECTOR('',#622,1.);
#181=VECTOR('',#625,1.);
#182=VECTOR('',#628,1.);
#183=VECTOR('',#631,1.);
#184=VECTOR('',#634,1.);
#185=VECTOR('',#635,1.);
#186=VECTOR('',#636,1.);
#187=VECTOR('',#639,1.);
#188=VECTOR('',#640,1.);
#189=VECTOR('',#641,1.);
#190=VECTOR('',#642,1.);
#191=VECTOR('',#643,1.);
#192=VECTOR('',#644,1.);
#193=VECTOR('',#645,1.);
#194=VECTOR('',#648,1.);
#195=VECTOR('',#649,1.);
#196=VECTOR('',#650,1.);
#197=VECTOR('',#651,1.);
#198=VECTOR('',#652,1.);
#199=VECTOR('',#655,1.);
#200=VECTOR('',#656,1.);
#201=VECTOR('',#657,1.);
#202=VECTOR('',#658,1.);
#203=VECTOR('',#661,1.);
#204=VECTOR('',#666,1.);
#205=VECTOR('',#669,1.);
#206=VECTOR('',#670,1.);
#207=VECTOR('',#671,1.);
#208=VECTOR('',#672,1.);
#209=VECTOR('',#673,1.);
#210=VECTOR('',#678,1.);
#211=VECTOR('',#681,1.);
#212=VECTOR('',#686,1.);
#213=VECTOR('',#687,1.);
#214=VECTOR('',#688,1.);
#215=VECTOR('',#691,1.);
#216=VECTOR('',#692,1.);
#217=VECTOR('',#693,1.);
#218=VECTOR('',#700,1.);
#219=VECTOR('',#707,1.);
#220=VECTOR('',#708,1.);
#221=VECTOR('',#719,1.);
#222=VECTOR('',#720,1.);
#223=VECTOR('',#723,1.);
#224=VECTOR('',#724,1.);
#225=VECTOR('',#725,1.);
#226=VECTOR('',#730,1.);
#227=VECTOR('',#735,1.);
#228=FACE_BOUND('',#235,.T.);
#229=FACE_BOUND('',#236,.T.);
#230=FACE_BOUND('',#237,.T.);
#231=FACE_BOUND('',#263,.T.);
#232=FACE_BOUND('',#264,.T.);
#233=FACE_BOUND('',#266,.T.);
#234=FACE_BOUND('',#267,.T.);
#235=EDGE_LOOP('',(#268));
#236=EDGE_LOOP('',(#269));
#237=EDGE_LOOP('',(#270,#271,#272,#273,#274,#275,#276,#277,#278,#279,#280,
#281,#282,#283,#284,#285,#286,#287,#288,#289,#290));
#238=EDGE_LOOP('',(#291,#292,#293,#294,#295,#296,#297,#298,#299));
#239=EDGE_LOOP('',(#300,#301,#302,#303,#304,#305));
#240=EDGE_LOOP('',(#306,#307,#308,#309,#310,#311));
#241=EDGE_LOOP('',(#312,#313,#314,#315));
#242=EDGE_LOOP('',(#316,#317,#318,#319));
#243=EDGE_LOOP('',(#320,#321,#322,#323));
#244=EDGE_LOOP('',(#324,#325,#326,#327,#328,#329,#330,#331,#332));
#245=EDGE_LOOP('',(#333,#334,#335,#336,#337));
#246=EDGE_LOOP('',(#338,#339,#340,#341));
#247=EDGE_LOOP('',(#342,#343,#344,#345));
#248=EDGE_LOOP('',(#346,#347,#348,#349));
#249=EDGE_LOOP('',(#350,#351,#352,#353));
#250=EDGE_LOOP('',(#354,#355,#356,#357,#358,#359,#360,#361));
#251=EDGE_LOOP('',(#362,#363,#364,#365));
#252=EDGE_LOOP('',(#366,#367,#368,#369));
#253=EDGE_LOOP('',(#370,#371,#372,#373));
#254=EDGE_LOOP('',(#374,#375,#376,#377));
#255=EDGE_LOOP('',(#378,#379,#380,#381));
#256=EDGE_LOOP('',(#382,#383,#384,#385));
#257=EDGE_LOOP('',(#386,#387,#388,#389));
#258=EDGE_LOOP('',(#390,#391,#392,#393,#394,#395));
#259=EDGE_LOOP('',(#396,#397,#398,#399));
#260=EDGE_LOOP('',(#400,#401,#402,#403));
#261=EDGE_LOOP('',(#404,#405,#406,#407));
#262=EDGE_LOOP('',(#408));
#263=EDGE_LOOP('',(#409));
#264=EDGE_LOOP('',(#410));
#265=EDGE_LOOP('',(#411));
#266=EDGE_LOOP('',(#412));
#267=EDGE_LOOP('',(#413));
#268=ORIENTED_EDGE('',*,*,#464,.F.);
#269=ORIENTED_EDGE('',*,*,#465,.F.);
#270=ORIENTED_EDGE('',*,*,#466,.F.);
#271=ORIENTED_EDGE('',*,*,#467,.T.);
#272=ORIENTED_EDGE('',*,*,#468,.F.);
#273=ORIENTED_EDGE('',*,*,#469,.T.);
#274=ORIENTED_EDGE('',*,*,#470,.F.);
#275=ORIENTED_EDGE('',*,*,#471,.F.);
#276=ORIENTED_EDGE('',*,*,#472,.F.);
#277=ORIENTED_EDGE('',*,*,#473,.F.);
#278=ORIENTED_EDGE('',*,*,#474,.F.);
#279=ORIENTED_EDGE('',*,*,#475,.T.);
#280=ORIENTED_EDGE('',*,*,#476,.F.);
#281=ORIENTED_EDGE('',*,*,#477,.T.);
#282=ORIENTED_EDGE('',*,*,#478,.F.);
#283=ORIENTED_EDGE('',*,*,#479,.T.);
#284=ORIENTED_EDGE('',*,*,#480,.F.);
#285=ORIENTED_EDGE('',*,*,#481,.T.);
#286=ORIENTED_EDGE('',*,*,#482,.F.);
#287=ORIENTED_EDGE('',*,*,#483,.T.);
#288=ORIENTED_EDGE('',*,*,#484,.F.);
#289=ORIENTED_EDGE('',*,*,#485,.T.);
#290=ORIENTED_EDGE('',*,*,#486,.F.);
#291=ORIENTED_EDGE('',*,*,#487,.T.);
#292=ORIENTED_EDGE('',*,*,#486,.T.);
#293=ORIENTED_EDGE('',*,*,#488,.T.);
#294=ORIENTED_EDGE('',*,*,#489,.F.);
#295=ORIENTED_EDGE('',*,*,#490,.T.);
#296=ORIENTED_EDGE('',*,*,#491,.T.);
#297=ORIENTED_EDGE('',*,*,#471,.T.);
#298=ORIENTED_EDGE('',*,*,#492,.F.);
#299=ORIENTED_EDGE('',*,*,#493,.F.);
#300=ORIENTED_EDGE('',*,*,#494,.F.);
#301=ORIENTED_EDGE('',*,*,#495,.F.);
#302=ORIENTED_EDGE('',*,*,#496,.F.);
#303=ORIENTED_EDGE('',*,*,#497,.T.);
#304=ORIENTED_EDGE('',*,*,#489,.T.);
#305=ORIENTED_EDGE('',*,*,#498,.T.);
#306=ORIENTED_EDGE('',*,*,#499,.F.);
#307=ORIENTED_EDGE('',*,*,#500,.T.);
#308=ORIENTED_EDGE('',*,*,#473,.T.);
#309=ORIENTED_EDGE('',*,*,#501,.F.);
#310=ORIENTED_EDGE('',*,*,#502,.T.);
#311=ORIENTED_EDGE('',*,*,#496,.T.);
#312=ORIENTED_EDGE('',*,*,#503,.F.);
#313=ORIENTED_EDGE('',*,*,#490,.F.);
#314=ORIENTED_EDGE('',*,*,#497,.F.);
#315=ORIENTED_EDGE('',*,*,#502,.F.);
#316=ORIENTED_EDGE('',*,*,#503,.T.);
#317=ORIENTED_EDGE('',*,*,#501,.T.);
#318=ORIENTED_EDGE('',*,*,#472,.T.);
#319=ORIENTED_EDGE('',*,*,#491,.F.);
#320=ORIENTED_EDGE('',*,*,#504,.F.);
#321=ORIENTED_EDGE('',*,*,#498,.F.);
#322=ORIENTED_EDGE('',*,*,#488,.F.);
#323=ORIENTED_EDGE('',*,*,#485,.F.);
#324=ORIENTED_EDGE('',*,*,#484,.T.);
#325=ORIENTED_EDGE('',*,*,#505,.T.);
#326=ORIENTED_EDGE('',*,*,#506,.F.);
#327=ORIENTED_EDGE('',*,*,#507,.T.);
#328=ORIENTED_EDGE('',*,*,#476,.T.);
#329=ORIENTED_EDGE('',*,*,#508,.T.);
#330=ORIENTED_EDGE('',*,*,#509,.T.);
#331=ORIENTED_EDGE('',*,*,#494,.T.);
#332=ORIENTED_EDGE('',*,*,#504,.T.);
#333=ORIENTED_EDGE('',*,*,#509,.F.);
#334=ORIENTED_EDGE('',*,*,#510,.T.);
#335=ORIENTED_EDGE('',*,*,#511,.F.);
#336=ORIENTED_EDGE('',*,*,#499,.T.);
#337=ORIENTED_EDGE('',*,*,#495,.T.);
#338=ORIENTED_EDGE('',*,*,#511,.T.);
#339=ORIENTED_EDGE('',*,*,#512,.T.);
#340=ORIENTED_EDGE('',*,*,#474,.T.);
#341=ORIENTED_EDGE('',*,*,#500,.F.);
#342=ORIENTED_EDGE('',*,*,#475,.F.);
#343=ORIENTED_EDGE('',*,*,#512,.F.);
#344=ORIENTED_EDGE('',*,*,#510,.F.);
#345=ORIENTED_EDGE('',*,*,#508,.F.);
#346=ORIENTED_EDGE('',*,*,#513,.T.);
#347=ORIENTED_EDGE('',*,*,#514,.T.);
#348=ORIENTED_EDGE('',*,*,#480,.T.);
#349=ORIENTED_EDGE('',*,*,#515,.T.);
#350=ORIENTED_EDGE('',*,*,#482,.T.);
#351=ORIENTED_EDGE('',*,*,#516,.T.);
#352=ORIENTED_EDGE('',*,*,#517,.T.);
#353=ORIENTED_EDGE('',*,*,#518,.T.);
#354=ORIENTED_EDGE('',*,*,#517,.F.);
#355=ORIENTED_EDGE('',*,*,#519,.T.);
#356=ORIENTED_EDGE('',*,*,#513,.F.);
#357=ORIENTED_EDGE('',*,*,#520,.T.);
#358=ORIENTED_EDGE('',*,*,#521,.F.);
#359=ORIENTED_EDGE('',*,*,#522,.T.);
#360=ORIENTED_EDGE('',*,*,#506,.T.);
#361=ORIENTED_EDGE('',*,*,#523,.T.);
#362=ORIENTED_EDGE('',*,*,#521,.T.);
#363=ORIENTED_EDGE('',*,*,#524,.T.);
#364=ORIENTED_EDGE('',*,*,#478,.T.);
#365=ORIENTED_EDGE('',*,*,#525,.T.);
#366=ORIENTED_EDGE('',*,*,#481,.F.);
#367=ORIENTED_EDGE('',*,*,#514,.F.);
#368=ORIENTED_EDGE('',*,*,#519,.F.);
#369=ORIENTED_EDGE('',*,*,#516,.F.);
#370=ORIENTED_EDGE('',*,*,#523,.F.);
#371=ORIENTED_EDGE('',*,*,#505,.F.);
#372=ORIENTED_EDGE('',*,*,#483,.F.);
#373=ORIENTED_EDGE('',*,*,#518,.F.);
#374=ORIENTED_EDGE('',*,*,#479,.F.);
#375=ORIENTED_EDGE('',*,*,#524,.F.);
#376=ORIENTED_EDGE('',*,*,#520,.F.);
#377=ORIENTED_EDGE('',*,*,#515,.F.);
#378=ORIENTED_EDGE('',*,*,#522,.F.);
#379=ORIENTED_EDGE('',*,*,#525,.F.);
#380=ORIENTED_EDGE('',*,*,#477,.F.);
#381=ORIENTED_EDGE('',*,*,#507,.F.);
#382=ORIENTED_EDGE('',*,*,#526,.T.);
#383=ORIENTED_EDGE('',*,*,#527,.T.);
#384=ORIENTED_EDGE('',*,*,#466,.T.);
#385=ORIENTED_EDGE('',*,*,#487,.F.);
#386=ORIENTED_EDGE('',*,*,#468,.T.);
#387=ORIENTED_EDGE('',*,*,#528,.T.);
#388=ORIENTED_EDGE('',*,*,#529,.T.);
#389=ORIENTED_EDGE('',*,*,#530,.T.);
#390=ORIENTED_EDGE('',*,*,#529,.F.);
#391=ORIENTED_EDGE('',*,*,#531,.T.);
#392=ORIENTED_EDGE('',*,*,#526,.F.);
#393=ORIENTED_EDGE('',*,*,#493,.T.);
#394=ORIENTED_EDGE('',*,*,#532,.F.);
#395=ORIENTED_EDGE('',*,*,#533,.T.);
#396=ORIENTED_EDGE('',*,*,#470,.T.);
#397=ORIENTED_EDGE('',*,*,#534,.T.);
#398=ORIENTED_EDGE('',*,*,#532,.T.);
#399=ORIENTED_EDGE('',*,*,#492,.T.);
#400=ORIENTED_EDGE('',*,*,#467,.F.);
#401=ORIENTED_EDGE('',*,*,#527,.F.);
#402=ORIENTED_EDGE('',*,*,#531,.F.);
#403=ORIENTED_EDGE('',*,*,#528,.F.);
#404=ORIENTED_EDGE('',*,*,#469,.F.);
#405=ORIENTED_EDGE('',*,*,#530,.F.);
#406=ORIENTED_EDGE('',*,*,#533,.F.);
#407=ORIENTED_EDGE('',*,*,#534,.F.);
#408=ORIENTED_EDGE('',*,*,#535,.F.);
#409=ORIENTED_EDGE('',*,*,#465,.T.);
#410=ORIENTED_EDGE('',*,*,#535,.T.);
#411=ORIENTED_EDGE('',*,*,#536,.F.);
#412=ORIENTED_EDGE('',*,*,#464,.T.);
#413=ORIENTED_EDGE('',*,*,#536,.T.);
#414=VERTEX_POINT('',#756);
#415=VERTEX_POINT('',#758);
#416=VERTEX_POINT('',#760);
#417=VERTEX_POINT('',#761);
#418=VERTEX_POINT('',#763);
#419=VERTEX_POINT('',#765);
#420=VERTEX_POINT('',#767);
#421=VERTEX_POINT('',#769);
#422=VERTEX_POINT('',#771);
#423=VERTEX_POINT('',#773);
#424=VERTEX_POINT('',#775);
#425=VERTEX_POINT('',#777);
#426=VERTEX_POINT('',#779);
#427=VERTEX_POINT('',#781);
#428=VERTEX_POINT('',#783);
#429=VERTEX_POINT('',#785);
#430=VERTEX_POINT('',#787);
#431=VERTEX_POINT('',#789);
#432=VERTEX_POINT('',#791);
#433=VERTEX_POINT('',#793);
#434=VERTEX_POINT('',#795);
#435=VERTEX_POINT('',#797);
#436=VERTEX_POINT('',#799);
#437=VERTEX_POINT('',#803);
#438=VERTEX_POINT('',#805);
#439=VERTEX_POINT('',#807);
#440=VERTEX_POINT('',#809);
#441=VERTEX_POINT('',#812);
#442=VERTEX_POINT('',#816);
#443=VERTEX_POINT('',#817);
#444=VERTEX_POINT('',#819);
#445=VERTEX_POINT('',#821);
#446=VERTEX_POINT('',#826);
#447=VERTEX_POINT('',#829);
#448=VERTEX_POINT('',#838);
#449=VERTEX_POINT('',#840);
#450=VERTEX_POINT('',#843);
#451=VERTEX_POINT('',#847);
#452=VERTEX_POINT('',#854);
#453=VERTEX_POINT('',#855);
#454=VERTEX_POINT('',#860);
#455=VERTEX_POINT('',#862);
#456=VERTEX_POINT('',#867);
#457=VERTEX_POINT('',#869);
#458=VERTEX_POINT('',#881);
#459=VERTEX_POINT('',#885);
#460=VERTEX_POINT('',#887);
#461=VERTEX_POINT('',#892);
#462=VERTEX_POINT('',#900);
#463=VERTEX_POINT('',#904);
#464=EDGE_CURVE('',#414,#414,#537,.T.);
#465=EDGE_CURVE('',#415,#415,#538,.T.);
#466=EDGE_CURVE('',#416,#417,#118,.T.);
#467=EDGE_CURVE('',#416,#418,#539,.T.);
#468=EDGE_CURVE('',#419,#418,#119,.T.);
#469=EDGE_CURVE('',#419,#420,#540,.T.);
#470=EDGE_CURVE('',#421,#420,#120,.T.);
#471=EDGE_CURVE('',#422,#421,#121,.T.);
#472=EDGE_CURVE('',#423,#422,#122,.T.);
#473=EDGE_CURVE('',#424,#423,#123,.T.);
#474=EDGE_CURVE('',#425,#424,#124,.T.);
#475=EDGE_CURVE('',#425,#426,#541,.T.);
#476=EDGE_CURVE('',#427,#426,#125,.T.);
#477=EDGE_CURVE('',#427,#428,#542,.T.);
#478=EDGE_CURVE('',#429,#428,#126,.T.);
#479=EDGE_CURVE('',#429,#430,#543,.T.);
#480=EDGE_CURVE('',#431,#430,#127,.T.);
#481=EDGE_CURVE('',#431,#432,#544,.T.);
#482=EDGE_CURVE('',#433,#432,#128,.T.);
#483=EDGE_CURVE('',#433,#434,#545,.T.);
#484=EDGE_CURVE('',#435,#434,#129,.T.);
#485=EDGE_CURVE('',#435,#436,#130,.T.);
#486=EDGE_CURVE('',#417,#436,#131,.T.);
#487=EDGE_CURVE('',#437,#417,#132,.T.);
#488=EDGE_CURVE('',#436,#438,#133,.T.);
#489=EDGE_CURVE('',#439,#438,#134,.T.);
#490=EDGE_CURVE('',#439,#440,#135,.T.);
#491=EDGE_CURVE('',#440,#422,#136,.T.);
#492=EDGE_CURVE('',#441,#421,#137,.T.);
#493=EDGE_CURVE('',#437,#441,#138,.T.);
#494=EDGE_CURVE('',#442,#443,#139,.T.);
#495=EDGE_CURVE('',#444,#442,#140,.T.);
#496=EDGE_CURVE('',#445,#444,#141,.T.);
#497=EDGE_CURVE('',#445,#439,#142,.T.);
#498=EDGE_CURVE('',#438,#443,#143,.T.);
#499=EDGE_CURVE('',#446,#444,#144,.T.);
#500=EDGE_CURVE('',#446,#424,#145,.T.);
#501=EDGE_CURVE('',#447,#423,#146,.T.);
#502=EDGE_CURVE('',#447,#445,#147,.T.);
#503=EDGE_CURVE('',#440,#447,#148,.T.);
#504=EDGE_CURVE('',#443,#435,#149,.T.);
#505=EDGE_CURVE('',#434,#448,#150,.T.);
#506=EDGE_CURVE('',#449,#448,#151,.T.);
#507=EDGE_CURVE('',#449,#427,#152,.T.);
#508=EDGE_CURVE('',#426,#450,#153,.T.);
#509=EDGE_CURVE('',#450,#442,#154,.T.);
#510=EDGE_CURVE('',#450,#451,#546,.T.);
#511=EDGE_CURVE('',#446,#451,#155,.T.);
#512=EDGE_CURVE('',#451,#425,#156,.T.);
#513=EDGE_CURVE('',#452,#453,#157,.T.);
#514=EDGE_CURVE('',#453,#431,#158,.T.);
#515=EDGE_CURVE('',#430,#452,#159,.T.);
#516=EDGE_CURVE('',#432,#454,#160,.T.);
#517=EDGE_CURVE('',#454,#455,#161,.T.);
#518=EDGE_CURVE('',#455,#433,#162,.T.);
#519=EDGE_CURVE('',#454,#453,#547,.T.);
#520=EDGE_CURVE('',#452,#456,#548,.T.);
#521=EDGE_CURVE('',#457,#456,#163,.T.);
#522=EDGE_CURVE('',#457,#449,#549,.T.);
#523=EDGE_CURVE('',#448,#455,#550,.T.);
#524=EDGE_CURVE('',#456,#429,#164,.T.);
#525=EDGE_CURVE('',#428,#457,#165,.T.);
#526=EDGE_CURVE('',#437,#458,#166,.T.);
#527=EDGE_CURVE('',#458,#416,#167,.T.);
#528=EDGE_CURVE('',#418,#459,#168,.T.);
#529=EDGE_CURVE('',#459,#460,#169,.T.);
#530=EDGE_CURVE('',#460,#419,#170,.T.);
#531=EDGE_CURVE('',#459,#458,#551,.T.);
#532=EDGE_CURVE('',#461,#441,#171,.T.);
#533=EDGE_CURVE('',#461,#460,#552,.T.);
#534=EDGE_CURVE('',#420,#461,#172,.T.);
#535=EDGE_CURVE('',#462,#462,#553,.T.);
#536=EDGE_CURVE('',#463,#463,#554,.T.);
#537=CIRCLE('',#556,3.7);
#538=CIRCLE('',#557,3.7);
#539=CIRCLE('',#558,8.6);
#540=CIRCLE('',#559,8.6);
#541=CIRCLE('',#560,9.);
#542=CIRCLE('',#561,5.6);
#543=CIRCLE('',#562,5.6);
#544=CIRCLE('',#563,5.6);
#545=CIRCLE('',#564,5.6);
#546=CIRCLE('',#573,9.);
#547=CIRCLE('',#579,5.6);
#548=CIRCLE('',#580,5.6);
#549=CIRCLE('',#581,5.6);
#550=CIRCLE('',#582,5.6);
#551=CIRCLE('',#591,8.6);
#552=CIRCLE('',#592,8.6);
#553=CIRCLE('',#597,3.7);
#554=CIRCLE('',#600,3.7);
#555=AXIS2_PLACEMENT_3D('',#754,#603,#604);
#556=AXIS2_PLACEMENT_3D('',#755,#605,#606);
#557=AXIS2_PLACEMENT_3D('',#757,#607,#608);
#558=AXIS2_PLACEMENT_3D('',#762,#610,#611);
#559=AXIS2_PLACEMENT_3D('',#766,#613,#614);
#560=AXIS2_PLACEMENT_3D('',#778,#620,#621);
#561=AXIS2_PLACEMENT_3D('',#782,#623,#624);
#562=AXIS2_PLACEMENT_3D('',#786,#626,#627);
#563=AXIS2_PLACEMENT_3D('',#790,#629,#630);
#564=AXIS2_PLACEMENT_3D('',#794,#632,#633);
#565=AXIS2_PLACEMENT_3D('',#801,#637,#638);
#566=AXIS2_PLACEMENT_3D('',#814,#646,#647);
#567=AXIS2_PLACEMENT_3D('',#824,#653,#654);
#568=AXIS2_PLACEMENT_3D('',#831,#659,#660);
#569=AXIS2_PLACEMENT_3D('',#833,#662,#663);
#570=AXIS2_PLACEMENT_3D('',#834,#664,#665);
#571=AXIS2_PLACEMENT_3D('',#836,#667,#668);
#572=AXIS2_PLACEMENT_3D('',#845,#674,#675);
#573=AXIS2_PLACEMENT_3D('',#846,#676,#677);
#574=AXIS2_PLACEMENT_3D('',#849,#679,#680);
#575=AXIS2_PLACEMENT_3D('',#851,#682,#683);
#576=AXIS2_PLACEMENT_3D('',#852,#684,#685);
#577=AXIS2_PLACEMENT_3D('',#858,#689,#690);
#578=AXIS2_PLACEMENT_3D('',#864,#694,#695);
#579=AXIS2_PLACEMENT_3D('',#865,#696,#697);
#580=AXIS2_PLACEMENT_3D('',#866,#698,#699);
#581=AXIS2_PLACEMENT_3D('',#870,#701,#702);
#582=AXIS2_PLACEMENT_3D('',#871,#703,#704);
#583=AXIS2_PLACEMENT_3D('',#872,#705,#706);
#584=AXIS2_PLACEMENT_3D('',#875,#709,#710);
#585=AXIS2_PLACEMENT_3D('',#876,#711,#712);
#586=AXIS2_PLACEMENT_3D('',#877,#713,#714);
#587=AXIS2_PLACEMENT_3D('',#878,#715,#716);
#588=AXIS2_PLACEMENT_3D('',#879,#717,#718);
#589=AXIS2_PLACEMENT_3D('',#883,#721,#722);
#590=AXIS2_PLACEMENT_3D('',#889,#726,#727);
#591=AXIS2_PLACEMENT_3D('',#890,#728,#729);
#592=AXIS2_PLACEMENT_3D('',#893,#731,#732);
#593=AXIS2_PLACEMENT_3D('',#894,#733,#734);
#594=AXIS2_PLACEMENT_3D('',#896,#736,#737);
#595=AXIS2_PLACEMENT_3D('',#897,#738,#739);
#596=AXIS2_PLACEMENT_3D('',#898,#740,#741);
#597=AXIS2_PLACEMENT_3D('',#899,#742,#743);
#598=AXIS2_PLACEMENT_3D('',#901,#744,#745);
#599=AXIS2_PLACEMENT_3D('',#902,#746,#747);
#600=AXIS2_PLACEMENT_3D('',#903,#748,#749);
#601=AXIS2_PLACEMENT_3D('',#905,#750,#751);
#602=AXIS2_PLACEMENT_3D('',#906,#752,#753);
#603=DIRECTION('',(0.,0.,1.));
#604=DIRECTION('',(1.,0.,0.));
#605=DIRECTION('',(0.,0.,1.));
#606=DIRECTION('',(0.999999999999995,0.,0.));
#607=DIRECTION('',(0.,0.,1.));
#608=DIRECTION('',(0.999999999999995,0.,0.));
#609=DIRECTION('',(0.,-1.,0.));
#610=DIRECTION('',(0.,0.,-1.));
#611=DIRECTION('',(1.,0.,0.));
#612=DIRECTION('',(-1.,0.,0.));
#613=DIRECTION('',(0.,0.,-1.));
#614=DIRECTION('',(1.,0.,0.));
#615=DIRECTION('',(0.,1.,0.));
#616=DIRECTION('',(-1.,0.,0.));
#617=DIRECTION('',(0.,-1.,0.));
#618=DIRECTION('',(1.,0.,0.));
#619=DIRECTION('',(0.,1.,0.));
#620=DIRECTION('',(0.,0.,-1.));
#621=DIRECTION('',(1.,0.,0.));
#622=DIRECTION('',(1.,0.,0.));
#623=DIRECTION('',(0.,0.,1.));
#624=DIRECTION('',(0.999999999999999,0.,0.));
#625=DIRECTION('',(0.,1.,0.));
#626=DIRECTION('',(0.,0.,-1.));
#627=DIRECTION('',(0.999999999999999,0.,0.));
#628=DIRECTION('',(1.,0.,0.));
#629=DIRECTION('',(0.,0.,-1.));
#630=DIRECTION('',(0.999999999999999,0.,0.));
#631=DIRECTION('',(0.,-1.,0.));
#632=DIRECTION('',(0.,0.,1.));
#633=DIRECTION('',(1.,0.,0.));
#634=DIRECTION('',(1.,0.,0.));
#635=DIRECTION('',(0.,-1.,0.));
#636=DIRECTION('',(-1.,0.,0.));
#637=DIRECTION('',(0.,0.,1.));
#638=DIRECTION('',(1.,0.,0.));
#639=DIRECTION('',(0.,0.,1.));
#640=DIRECTION('',(-0.707106781186548,0.,-0.707106781186548));
#641=DIRECTION('',(0.,0.,1.));
#642=DIRECTION('',(1.,0.,0.));
#643=DIRECTION('',(0.,0.,1.));
#644=DIRECTION('',(0.,0.,1.));
#645=DIRECTION('',(1.,0.,0.));
#646=DIRECTION('',(0.,-1.,0.));
#647=DIRECTION('',(0.,0.,-1.));
#648=DIRECTION('',(0.,0.,1.));
#649=DIRECTION('',(0.,-1.,0.));
#650=DIRECTION('',(0.,0.,1.));
#651=DIRECTION('',(0.,-1.,0.));
#652=DIRECTION('',(0.,1.,0.));
#653=DIRECTION('',(-1.,0.,0.));
#654=DIRECTION('',(0.,0.,1.));
#655=DIRECTION('',(-1.,0.,0.));
#656=DIRECTION('',(0.,0.,1.));
#657=DIRECTION('',(0.,0.,1.));
#658=DIRECTION('',(-1.,0.,0.));
#659=DIRECTION('',(0.,1.,0.));
#660=DIRECTION('',(0.,0.,1.));
#661=DIRECTION('',(0.,1.,0.));
#662=DIRECTION('',(0.,0.,-1.));
#663=DIRECTION('',(-1.,0.,0.));
#664=DIRECTION('',(1.,0.,0.));
#665=DIRECTION('',(0.,0.,-1.));
#666=DIRECTION('',(0.707106781186548,0.,0.707106781186548));
#667=DIRECTION('',(0.707106781186547,0.,-0.707106781186547));
#668=DIRECTION('',(0.,1.,0.));
#669=DIRECTION('',(0.,0.,-1.));
#670=DIRECTION('',(-1.,0.,0.));
#671=DIRECTION('',(0.,0.,1.));
#672=DIRECTION('',(0.,0.,-1.));
#673=DIRECTION('',(-1.,0.,0.));
#674=DIRECTION('',(0.,-1.,0.));
#675=DIRECTION('',(0.,0.,-1.));
#676=DIRECTION('',(0.,0.,1.));
#677=DIRECTION('',(-1.,0.,0.));
#678=DIRECTION('',(0.,-1.,0.));
#679=DIRECTION('',(0.,0.,-1.));
#680=DIRECTION('',(-1.,0.,0.));
#681=DIRECTION('',(0.,0.,1.));
#682=DIRECTION('',(1.,0.,0.));
#683=DIRECTION('',(0.,0.,-1.));
#684=DIRECTION('',(0.,0.,1.));
#685=DIRECTION('',(1.,0.,0.));
#686=DIRECTION('',(-1.,0.,0.));
#687=DIRECTION('',(0.,0.,1.));
#688=DIRECTION('',(0.,0.,-1.));
#689=DIRECTION('',(0.,-1.,0.));
#690=DIRECTION('',(0.,0.,-1.));
#691=DIRECTION('',(0.,0.,-1.));
#692=DIRECTION('',(0.,1.,0.));
#693=DIRECTION('',(0.,0.,1.));
#694=DIRECTION('',(-1.,0.,0.));
#695=DIRECTION('',(0.,0.,1.));
#696=DIRECTION('',(0.,0.,1.));
#697=DIRECTION('',(-1.,0.,0.));
#698=DIRECTION('',(0.,0.,1.));
#699=DIRECTION('',(-0.999999999999999,0.,0.));
#700=DIRECTION('',(0.,-1.,0.));
#701=DIRECTION('',(0.,0.,-1.));
#702=DIRECTION('',(-0.999999999999999,0.,0.));
#703=DIRECTION('',(0.,0.,-1.));
#704=DIRECTION('',(-1.,0.,0.));
#705=DIRECTION('',(0.,0.,-1.));
#706=DIRECTION('',(-1.,0.,0.));
#707=DIRECTION('',(0.,0.,1.));
#708=DIRECTION('',(0.,0.,-1.));
#709=DIRECTION('',(1.,0.,0.));
#710=DIRECTION('',(0.,0.,-1.));
#711=DIRECTION('',(0.,0.,1.));
#712=DIRECTION('',(0.999999999999999,0.,0.));
#713=DIRECTION('',(0.,0.,1.));
#714=DIRECTION('',(1.,0.,0.));
#715=DIRECTION('',(0.,0.,1.));
#716=DIRECTION('',(0.999999999999999,0.,0.));
#717=DIRECTION('',(0.,0.,1.));
#718=DIRECTION('',(0.999999999999999,0.,0.));
#719=DIRECTION('',(0.,1.,0.));
#720=DIRECTION('',(0.,0.,1.));
#721=DIRECTION('',(-1.,0.,0.));
#722=DIRECTION('',(0.,0.,1.));
#723=DIRECTION('',(0.,0.,-1.));
#724=DIRECTION('',(1.,0.,0.));
#725=DIRECTION('',(0.,0.,1.));
#726=DIRECTION('',(0.,1.,0.));
#727=DIRECTION('',(0.,0.,1.));
#728=DIRECTION('',(0.,0.,1.));
#729=DIRECTION('',(-1.,0.,0.));
#730=DIRECTION('',(0.,-1.,0.));
#731=DIRECTION('',(0.,0.,1.));
#732=DIRECTION('',(-1.,0.,0.));
#733=DIRECTION('',(0.,0.,-1.));
#734=DIRECTION('',(-1.,0.,0.));
#735=DIRECTION('',(0.,0.,-1.));
#736=DIRECTION('',(1.,0.,0.));
#737=DIRECTION('',(0.,0.,-1.));
#738=DIRECTION('',(0.,0.,1.));
#739=DIRECTION('',(1.,0.,0.));
#740=DIRECTION('',(0.,0.,1.));
#741=DIRECTION('',(1.,0.,0.));
#742=DIRECTION('',(0.,0.,-1.));
#743=DIRECTION('',(0.999999999999995,0.,0.));
#744=DIRECTION('',(0.,0.,-1.));
#745=DIRECTION('',(-1.,0.,0.));
#746=DIRECTION('',(0.,0.,-1.));
#747=DIRECTION('',(0.999999999999995,0.,0.));
#748=DIRECTION('',(0.,0.,-1.));
#749=DIRECTION('',(0.999999999999995,0.,0.));
#750=DIRECTION('',(0.,0.,-1.));
#751=DIRECTION('',(-1.,0.,0.));
#752=DIRECTION('',(0.,0.,-1.));
#753=DIRECTION('',(0.999999999999995,0.,0.));
#754=CARTESIAN_POINT('',(0.,0.,0.));
#755=CARTESIAN_POINT('',(249.9,281.3,69.7));
#756=CARTESIAN_POINT('',(253.6,281.3,69.7));
#757=CARTESIAN_POINT('',(249.9,96.4,69.7));
#758=CARTESIAN_POINT('',(253.6,96.4,69.7));
#759=CARTESIAN_POINT('',(324.,188.85,69.7));
#760=CARTESIAN_POINT('',(324.,64.2,69.7));
#761=CARTESIAN_POINT('',(324.,0.,69.7));
#762=CARTESIAN_POINT('',(332.6,64.2,69.7));
#763=CARTESIAN_POINT('',(332.6,72.8,69.7));
#764=CARTESIAN_POINT('',(249.95,72.8,69.7));
#765=CARTESIAN_POINT('',(458.7,72.8,69.7));
#766=CARTESIAN_POINT('',(458.7,64.2,69.7));
#767=CARTESIAN_POINT('',(467.3,64.2,69.7));
#768=CARTESIAN_POINT('',(467.3,188.85,69.7));
#769=CARTESIAN_POINT('',(467.3,0.,69.7));
#770=CARTESIAN_POINT('',(249.95,0.,69.7));
#771=CARTESIAN_POINT('',(499.9,0.,69.7));
#772=CARTESIAN_POINT('',(499.9,188.85,69.7));
#773=CARTESIAN_POINT('',(499.9,377.7,69.7));
#774=CARTESIAN_POINT('',(249.95,377.7,69.7));
#775=CARTESIAN_POINT('',(172.5,377.7,69.7));
#776=CARTESIAN_POINT('',(172.5,188.85,69.7));
#777=CARTESIAN_POINT('',(172.5,294.1,69.7));
#778=CARTESIAN_POINT('',(163.5,294.1,69.7));
#779=CARTESIAN_POINT('',(163.5,285.1,69.7));
#780=CARTESIAN_POINT('',(249.95,285.1,69.7));
#781=CARTESIAN_POINT('',(143.8,285.1,69.7));
#782=CARTESIAN_POINT('',(143.8,279.5,69.7));
#783=CARTESIAN_POINT('',(138.2,279.5,69.7));
#784=CARTESIAN_POINT('',(138.2,188.85,69.7));
#785=CARTESIAN_POINT('',(138.2,217.5,69.7));
#786=CARTESIAN_POINT('',(132.6,217.5,69.7));
#787=CARTESIAN_POINT('',(132.6,211.9,69.7));
#788=CARTESIAN_POINT('',(249.95,211.9,69.7));
#789=CARTESIAN_POINT('',(57.1,211.9,69.7));
#790=CARTESIAN_POINT('',(57.1,217.5,69.7));
#791=CARTESIAN_POINT('',(51.5,217.5,69.7));
#792=CARTESIAN_POINT('',(51.5,188.85,69.7));
#793=CARTESIAN_POINT('',(51.5,279.5,69.7));
#794=CARTESIAN_POINT('',(45.9,279.5,69.7));
#795=CARTESIAN_POINT('',(45.9,285.1,69.7));
#796=CARTESIAN_POINT('',(249.95,285.1,69.7));
#797=CARTESIAN_POINT('',(6.8,285.1,69.7));
#798=CARTESIAN_POINT('',(6.8,188.85,69.7));
#799=CARTESIAN_POINT('',(6.8,0.,69.7));
#800=CARTESIAN_POINT('',(249.95,0.,69.7));
#801=CARTESIAN_POINT('',(249.95,188.85,69.7));
#802=CARTESIAN_POINT('',(324.,0.,31.8));
#803=CARTESIAN_POINT('',(324.,0.,31.8));
#804=CARTESIAN_POINT('',(93.525,0.,156.425));
#805=CARTESIAN_POINT('',(0.,0.,62.9));
#806=CARTESIAN_POINT('',(0.,0.,0.));
#807=CARTESIAN_POINT('',(0.,0.,0.));
#808=CARTESIAN_POINT('',(249.95,0.,0.));
#809=CARTESIAN_POINT('',(499.9,0.,0.));
#810=CARTESIAN_POINT('',(499.9,0.,0.));
#811=CARTESIAN_POINT('',(467.3,0.,31.8));
#812=CARTESIAN_POINT('',(467.3,0.,31.8));
#813=CARTESIAN_POINT('',(395.65,0.,31.8));
#814=CARTESIAN_POINT('',(249.95,0.,0.));
#815=CARTESIAN_POINT('',(0.,285.1,31.8));
#816=CARTESIAN_POINT('',(0.,285.1,31.8));
#817=CARTESIAN_POINT('',(0.,285.1,62.9));
#818=CARTESIAN_POINT('',(0.,331.4,31.8));
#819=CARTESIAN_POINT('',(0.,377.7,31.8));
#820=CARTESIAN_POINT('',(0.,377.7,0.));
#821=CARTESIAN_POINT('',(0.,377.7,0.));
#822=CARTESIAN_POINT('',(0.,188.85,0.));
#823=CARTESIAN_POINT('',(0.,188.85,62.9));
#824=CARTESIAN_POINT('',(0.,188.85,0.));
#825=CARTESIAN_POINT('',(86.25,377.7,31.8));
#826=CARTESIAN_POINT('',(172.5,377.7,31.8));
#827=CARTESIAN_POINT('',(172.5,377.7,31.8));
#828=CARTESIAN_POINT('',(499.9,377.7,0.));
#829=CARTESIAN_POINT('',(499.9,377.7,0.));
#830=CARTESIAN_POINT('',(249.95,377.7,0.));
#831=CARTESIAN_POINT('',(249.95,377.7,0.));
#832=CARTESIAN_POINT('',(499.9,188.85,0.));
#833=CARTESIAN_POINT('',(249.95,188.85,0.));
#834=CARTESIAN_POINT('',(499.9,188.85,0.));
#835=CARTESIAN_POINT('',(0.,285.1,62.9));
#836=CARTESIAN_POINT('',(0.,188.85,62.9));
#837=CARTESIAN_POINT('',(45.9,285.1,31.8));
#838=CARTESIAN_POINT('',(45.9,285.1,39.8));
#839=CARTESIAN_POINT('',(94.85,285.1,39.8));
#840=CARTESIAN_POINT('',(143.8,285.1,39.8));
#841=CARTESIAN_POINT('',(143.8,285.1,31.8));
#842=CARTESIAN_POINT('',(163.5,285.1,31.8));
#843=CARTESIAN_POINT('',(163.5,285.1,31.8));
#844=CARTESIAN_POINT('',(86.25,285.1,31.8));
#845=CARTESIAN_POINT('',(86.25,285.1,31.8));
#846=CARTESIAN_POINT('',(163.5,294.1,31.8));
#847=CARTESIAN_POINT('',(172.5,294.1,31.8));
#848=CARTESIAN_POINT('',(172.5,331.4,31.8));
#849=CARTESIAN_POINT('',(86.25,331.4,31.8));
#850=CARTESIAN_POINT('',(172.5,294.1,69.7));
#851=CARTESIAN_POINT('',(172.5,331.4,31.8));
#852=CARTESIAN_POINT('',(163.5,294.1,31.8));
#853=CARTESIAN_POINT('',(94.85,211.9,39.8));
#854=CARTESIAN_POINT('',(132.6,211.9,39.8));
#855=CARTESIAN_POINT('',(57.1,211.9,39.8));
#856=CARTESIAN_POINT('',(57.1,211.9,69.7));
#857=CARTESIAN_POINT('',(132.6,211.9,39.8));
#858=CARTESIAN_POINT('',(94.85,211.9,39.8));
#859=CARTESIAN_POINT('',(51.5,217.5,39.8));
#860=CARTESIAN_POINT('',(51.5,217.5,39.8));
#861=CARTESIAN_POINT('',(51.5,248.5,39.8));
#862=CARTESIAN_POINT('',(51.5,279.5,39.8));
#863=CARTESIAN_POINT('',(51.5,279.5,39.8));
#864=CARTESIAN_POINT('',(51.5,248.5,39.8));
#865=CARTESIAN_POINT('',(57.1,217.5,39.8));
#866=CARTESIAN_POINT('',(132.6,217.5,39.8));
#867=CARTESIAN_POINT('',(138.2,217.5,39.8));
#868=CARTESIAN_POINT('',(138.2,248.5,39.8));
#869=CARTESIAN_POINT('',(138.2,279.5,39.8));
#870=CARTESIAN_POINT('',(143.8,279.5,39.8));
#871=CARTESIAN_POINT('',(45.9,279.5,39.8));
#872=CARTESIAN_POINT('',(94.85,248.5,39.8));
#873=CARTESIAN_POINT('',(138.2,217.5,69.7));
#874=CARTESIAN_POINT('',(138.2,279.5,39.8));
#875=CARTESIAN_POINT('',(138.2,248.5,39.8));
#876=CARTESIAN_POINT('',(57.1,217.5,39.8));
#877=CARTESIAN_POINT('',(45.9,279.5,39.8));
#878=CARTESIAN_POINT('',(132.6,217.5,39.8));
#879=CARTESIAN_POINT('',(143.8,279.5,31.8));
#880=CARTESIAN_POINT('',(324.,36.4,31.8));
#881=CARTESIAN_POINT('',(324.,64.2,31.8));
#882=CARTESIAN_POINT('',(324.,64.2,69.7));
#883=CARTESIAN_POINT('',(324.,36.4,31.8));
#884=CARTESIAN_POINT('',(332.6,72.8,31.8));
#885=CARTESIAN_POINT('',(332.6,72.8,31.8));
#886=CARTESIAN_POINT('',(395.65,72.8,31.8));
#887=CARTESIAN_POINT('',(458.7,72.8,31.8));
#888=CARTESIAN_POINT('',(458.7,72.8,69.7));
#889=CARTESIAN_POINT('',(395.65,72.8,31.8));
#890=CARTESIAN_POINT('',(332.6,64.2,31.8));
#891=CARTESIAN_POINT('',(467.3,36.4,31.8));
#892=CARTESIAN_POINT('',(467.3,64.2,31.8));
#893=CARTESIAN_POINT('',(458.7,64.2,31.8));
#894=CARTESIAN_POINT('',(395.65,36.4,31.8));
#895=CARTESIAN_POINT('',(467.3,64.2,31.8));
#896=CARTESIAN_POINT('',(467.3,36.4,31.8));
#897=CARTESIAN_POINT('',(332.6,64.2,31.8));
#898=CARTESIAN_POINT('',(458.7,64.2,31.8));
#899=CARTESIAN_POINT('',(249.9,96.4,25.2));
#900=CARTESIAN_POINT('',(253.6,96.4,25.2));
#901=CARTESIAN_POINT('',(249.9,96.4,25.2));
#902=CARTESIAN_POINT('',(249.9,96.4,69.75));
#903=CARTESIAN_POINT('',(249.9,281.3,34.4));
#904=CARTESIAN_POINT('',(253.6,281.3,34.4));
#905=CARTESIAN_POINT('',(249.9,281.3,34.4));
#906=CARTESIAN_POINT('',(249.9,281.3,69.75));
#907=MECHANICAL_DESIGN_GEOMETRIC_PRESENTATION_REPRESENTATION('',(#24),#908);
#908=(
GEOMETRIC_REPRESENTATION_CONTEXT(3)
GLOBAL_UNCERTAINTY_ASSIGNED_CONTEXT((#909))
GLOBAL_UNIT_ASSIGNED_CONTEXT((#915,#911,#910))
REPRESENTATION_CONTEXT('featured_part_08755','TOP_LEVEL_ASSEMBLY_PART')
);
#909=UNCERTAINTY_MEASURE_WITH_UNIT(LENGTH_MEASURE(2.E-5),#915,
'DISTANCE_ACCURACY_VALUE','Maximum Tolerance applied to model');
#910=(
NAMED_UNIT(*)
SI_UNIT($,.STERADIAN.)
SOLID_ANGLE_UNIT()
);
#911=(
CONVERSION_BASED_UNIT('DEGREE',#913)
NAMED_UNIT(#912)
PLANE_ANGLE_UNIT()
);
#912=DIMENSIONAL_EXPONENTS(0.,0.,0.,0.,0.,0.,0.);
#913=PLANE_ANGLE_MEASURE_WITH_UNIT(PLANE_ANGLE_MEASURE(0.0174532925),#914);
#914=(
NAMED_UNIT(*)
PLANE_ANGLE_UNIT()
SI_UNIT($,.RADIAN.)
);
#915=(
LENGTH_UNIT()
NAMED_UNIT(*)
SI_UNIT(.MILLI.,.METRE.)
);
ENDSEC;
END-ISO-10303-21;
