ISO-10303-21;
HEADER;
/* Generated by software containing ST-Developer
 * from STEP Tools, Inc. (www.steptools.com) 
 */
/* OPTION: using custom schema-name function */

FILE_DESCRIPTION(
/* description */ (''),
/* implementation_level */ '2;1');

FILE_NAME(
/* name */ 'featured_part_03014.stp',
/* time_stamp */ '2026-07-08T16:57:17-04:00',
/* author */ (''),
/* organization */ (''),
/* preprocessor_version */ 'ST-DEVELOPER v20.1',
/* originating_system */ 'SIEMENS PLM Software NX2512.6002',
/* authorisation */ '');

FILE_SCHEMA (('AUTOMOTIVE_DESIGN { 1 0 10303 214 3 1 1 1 }'));
ENDSEC;

DATA;
#10=SHAPE_REPRESENTATION_RELATIONSHIP('None',
'relationship between featured_part_03014-None and featured_part_03014
-None',#22,#11);
#11=ADVANCED_BREP_SHAPE_REPRESENTATION('featured_part_03014-None',(#32),
#747);
#12=SHAPE_DEFINITION_REPRESENTATION(#13,#22);
#13=PRODUCT_DEFINITION_SHAPE('','',#14);
#14=PRODUCT_DEFINITION(' ','',#16,#15);
#15=PRODUCT_DEFINITION_CONTEXT('part definition',#21,'design');
#16=PRODUCT_DEFINITION_FORMATION_WITH_SPECIFIED_SOURCE(' ',' ',#18,
 .NOT_KNOWN.);
#17=PRODUCT_RELATED_PRODUCT_CATEGORY('part','',(#18));
#18=PRODUCT('featured_part_03014','featured_part_03014',' ',(#19));
#19=PRODUCT_CONTEXT(' ',#21,'mechanical');
#20=APPLICATION_PROTOCOL_DEFINITION('international standard',
'automotive_design',2010,#21);
#21=APPLICATION_CONTEXT(
'core data for automotive mechanical design processes');
#22=SHAPE_REPRESENTATION('featured_part_03014-None',(#462),#747);
#23=PRESENTATION_LAYER_ASSIGNMENT('1','Layer 1',(#32));
#24=STYLED_ITEM('',(#25),#32);
#25=PRESENTATION_STYLE_ASSIGNMENT((#26));
#26=SURFACE_STYLE_USAGE(.BOTH.,#27);
#27=SURFACE_SIDE_STYLE('',(#28));
#28=SURFACE_STYLE_FILL_AREA(#29);
#29=FILL_AREA_STYLE('',(#30));
#30=FILL_AREA_STYLE_COLOUR('',#31);
#31=COLOUR_RGB('medium steel',0.611764705882353,0.658823529411765,0.670588235294118);
#32=MANIFOLD_SOLID_BREP('',#33);
#33=CLOSED_SHELL('',(#60,#61,#62,#63,#64,#65,#66,#67,#68,#69,#70,#71,#72,
#73,#74,#75,#76,#77,#78,#79,#80,#81,#82,#83,#84));
#34=CYLINDRICAL_SURFACE('',#490,5.3);
#35=CYLINDRICAL_SURFACE('',#491,5.3);
#36=CYLINDRICAL_SURFACE('',#492,5.3);
#37=CYLINDRICAL_SURFACE('',#493,5.3);
#38=CYLINDRICAL_SURFACE('',#496,4.25);
#39=CYLINDRICAL_SURFACE('',#499,4.25);
#40=FACE_BOUND('',#128,.T.);
#41=FACE_BOUND('',#129,.T.);
#42=FACE_BOUND('',#130,.T.);
#43=FACE_BOUND('',#131,.T.);
#44=FACE_BOUND('',#151,.T.);
#45=FACE_BOUND('',#152,.T.);
#46=FACE_BOUND('',#154,.T.);
#47=FACE_BOUND('',#155,.T.);
#48=CIRCLE('',#465,4.25);
#49=CIRCLE('',#466,4.25);
#50=CIRCLE('',#467,5.3);
#51=CIRCLE('',#468,5.3);
#52=CIRCLE('',#469,5.3);
#53=CIRCLE('',#470,5.3);
#54=CIRCLE('',#484,5.3);
#55=CIRCLE('',#485,5.3);
#56=CIRCLE('',#486,5.3);
#57=CIRCLE('',#487,5.3);
#58=CIRCLE('',#494,4.25);
#59=CIRCLE('',#497,4.25);
#60=ADVANCED_FACE('',(#104),#85,.T.);
#61=ADVANCED_FACE('',(#105),#86,.F.);
#62=ADVANCED_FACE('',(#40,#41,#42,#43),#87,.T.);
#63=ADVANCED_FACE('',(#106),#88,.T.);
#64=ADVANCED_FACE('',(#107),#89,.T.);
#65=ADVANCED_FACE('',(#108),#90,.T.);
#66=ADVANCED_FACE('',(#109),#91,.T.);
#67=ADVANCED_FACE('',(#110),#92,.T.);
#68=ADVANCED_FACE('',(#111),#93,.F.);
#69=ADVANCED_FACE('',(#112),#94,.F.);
#70=ADVANCED_FACE('',(#113),#95,.F.);
#71=ADVANCED_FACE('',(#114),#96,.F.);
#72=ADVANCED_FACE('',(#115),#97,.F.);
#73=ADVANCED_FACE('',(#116),#98,.F.);
#74=ADVANCED_FACE('',(#117),#99,.F.);
#75=ADVANCED_FACE('',(#118),#100,.F.);
#76=ADVANCED_FACE('',(#119),#101,.F.);
#77=ADVANCED_FACE('',(#120),#34,.F.);
#78=ADVANCED_FACE('',(#121),#35,.F.);
#79=ADVANCED_FACE('',(#122),#36,.F.);
#80=ADVANCED_FACE('',(#123),#37,.F.);
#81=ADVANCED_FACE('',(#124),#102,.F.);
#82=ADVANCED_FACE('',(#44,#45),#38,.F.);
#83=ADVANCED_FACE('',(#125),#103,.F.);
#84=ADVANCED_FACE('',(#46,#47),#39,.F.);
#85=PLANE('',#463);
#86=PLANE('',#464);
#87=PLANE('',#471);
#88=PLANE('',#472);
#89=PLANE('',#473);
#90=PLANE('',#474);
#91=PLANE('',#475);
#92=PLANE('',#476);
#93=PLANE('',#477);
#94=PLANE('',#478);
#95=PLANE('',#479);
#96=PLANE('',#480);
#97=PLANE('',#481);
#98=PLANE('',#482);
#99=PLANE('',#483);
#100=PLANE('',#488);
#101=PLANE('',#489);
#102=PLANE('',#495);
#103=PLANE('',#498);
#104=FACE_OUTER_BOUND('',#126,.T.);
#105=FACE_OUTER_BOUND('',#127,.T.);
#106=FACE_OUTER_BOUND('',#132,.T.);
#107=FACE_OUTER_BOUND('',#133,.T.);
#108=FACE_OUTER_BOUND('',#134,.T.);
#109=FACE_OUTER_BOUND('',#135,.T.);
#110=FACE_OUTER_BOUND('',#136,.T.);
#111=FACE_OUTER_BOUND('',#137,.T.);
#112=FACE_OUTER_BOUND('',#138,.T.);
#113=FACE_OUTER_BOUND('',#139,.T.);
#114=FACE_OUTER_BOUND('',#140,.T.);
#115=FACE_OUTER_BOUND('',#141,.T.);
#116=FACE_OUTER_BOUND('',#142,.T.);
#117=FACE_OUTER_BOUND('',#143,.T.);
#118=FACE_OUTER_BOUND('',#144,.T.);
#119=FACE_OUTER_BOUND('',#145,.T.);
#120=FACE_OUTER_BOUND('',#146,.T.);
#121=FACE_OUTER_BOUND('',#147,.T.);
#122=FACE_OUTER_BOUND('',#148,.T.);
#123=FACE_OUTER_BOUND('',#149,.T.);
#124=FACE_OUTER_BOUND('',#150,.T.);
#125=FACE_OUTER_BOUND('',#153,.T.);
#126=EDGE_LOOP('',(#156,#157,#158,#159));
#127=EDGE_LOOP('',(#160,#161,#162,#163));
#128=EDGE_LOOP('',(#164));
#129=EDGE_LOOP('',(#165));
#130=EDGE_LOOP('',(#166,#167,#168,#169,#170,#171,#172,#173));
#131=EDGE_LOOP('',(#174,#175,#176,#177));
#132=EDGE_LOOP('',(#178,#179,#180,#181,#182));
#133=EDGE_LOOP('',(#183,#184,#185,#186,#187,#188,#189,#190));
#134=EDGE_LOOP('',(#191,#192,#193,#194,#195));
#135=EDGE_LOOP('',(#196,#197,#198,#199));
#136=EDGE_LOOP('',(#200,#201,#202,#203,#204,#205,#206,#207));
#137=EDGE_LOOP('',(#208,#209,#210,#211));
#138=EDGE_LOOP('',(#212,#213,#214,#215,#216));
#139=EDGE_LOOP('',(#217,#218,#219,#220,#221));
#140=EDGE_LOOP('',(#222,#223,#224,#225));
#141=EDGE_LOOP('',(#226,#227,#228,#229));
#142=EDGE_LOOP('',(#230,#231,#232,#233));
#143=EDGE_LOOP('',(#234,#235,#236,#237));
#144=EDGE_LOOP('',(#238,#239,#240,#241,#242,#243,#244,#245));
#145=EDGE_LOOP('',(#246,#247,#248,#249));
#146=EDGE_LOOP('',(#250,#251,#252,#253));
#147=EDGE_LOOP('',(#254,#255,#256,#257));
#148=EDGE_LOOP('',(#258,#259,#260,#261));
#149=EDGE_LOOP('',(#262,#263,#264,#265));
#150=EDGE_LOOP('',(#266));
#151=EDGE_LOOP('',(#267));
#152=EDGE_LOOP('',(#268));
#153=EDGE_LOOP('',(#269));
#154=EDGE_LOOP('',(#270));
#155=EDGE_LOOP('',(#271));
#156=ORIENTED_EDGE('',*,*,#312,.F.);
#157=ORIENTED_EDGE('',*,*,#313,.F.);
#158=ORIENTED_EDGE('',*,*,#314,.F.);
#159=ORIENTED_EDGE('',*,*,#315,.T.);
#160=ORIENTED_EDGE('',*,*,#316,.F.);
#161=ORIENTED_EDGE('',*,*,#315,.F.);
#162=ORIENTED_EDGE('',*,*,#317,.F.);
#163=ORIENTED_EDGE('',*,*,#318,.F.);
#164=ORIENTED_EDGE('',*,*,#319,.F.);
#165=ORIENTED_EDGE('',*,*,#320,.F.);
#166=ORIENTED_EDGE('',*,*,#321,.F.);
#167=ORIENTED_EDGE('',*,*,#322,.T.);
#168=ORIENTED_EDGE('',*,*,#323,.F.);
#169=ORIENTED_EDGE('',*,*,#324,.T.);
#170=ORIENTED_EDGE('',*,*,#325,.F.);
#171=ORIENTED_EDGE('',*,*,#326,.T.);
#172=ORIENTED_EDGE('',*,*,#327,.F.);
#173=ORIENTED_EDGE('',*,*,#328,.T.);
#174=ORIENTED_EDGE('',*,*,#329,.F.);
#175=ORIENTED_EDGE('',*,*,#330,.T.);
#176=ORIENTED_EDGE('',*,*,#331,.F.);
#177=ORIENTED_EDGE('',*,*,#332,.F.);
#178=ORIENTED_EDGE('',*,*,#333,.T.);
#179=ORIENTED_EDGE('',*,*,#317,.T.);
#180=ORIENTED_EDGE('',*,*,#314,.T.);
#181=ORIENTED_EDGE('',*,*,#334,.F.);
#182=ORIENTED_EDGE('',*,*,#335,.T.);
#183=ORIENTED_EDGE('',*,*,#336,.F.);
#184=ORIENTED_EDGE('',*,*,#337,.F.);
#185=ORIENTED_EDGE('',*,*,#338,.F.);
#186=ORIENTED_EDGE('',*,*,#332,.T.);
#187=ORIENTED_EDGE('',*,*,#339,.F.);
#188=ORIENTED_EDGE('',*,*,#340,.T.);
#189=ORIENTED_EDGE('',*,*,#334,.T.);
#190=ORIENTED_EDGE('',*,*,#313,.T.);
#191=ORIENTED_EDGE('',*,*,#331,.T.);
#192=ORIENTED_EDGE('',*,*,#341,.T.);
#193=ORIENTED_EDGE('',*,*,#342,.F.);
#194=ORIENTED_EDGE('',*,*,#343,.T.);
#195=ORIENTED_EDGE('',*,*,#339,.T.);
#196=ORIENTED_EDGE('',*,*,#344,.F.);
#197=ORIENTED_EDGE('',*,*,#335,.F.);
#198=ORIENTED_EDGE('',*,*,#340,.F.);
#199=ORIENTED_EDGE('',*,*,#343,.F.);
#200=ORIENTED_EDGE('',*,*,#345,.F.);
#201=ORIENTED_EDGE('',*,*,#318,.T.);
#202=ORIENTED_EDGE('',*,*,#333,.F.);
#203=ORIENTED_EDGE('',*,*,#344,.T.);
#204=ORIENTED_EDGE('',*,*,#342,.T.);
#205=ORIENTED_EDGE('',*,*,#346,.T.);
#206=ORIENTED_EDGE('',*,*,#347,.F.);
#207=ORIENTED_EDGE('',*,*,#348,.F.);
#208=ORIENTED_EDGE('',*,*,#349,.F.);
#209=ORIENTED_EDGE('',*,*,#346,.F.);
#210=ORIENTED_EDGE('',*,*,#341,.F.);
#211=ORIENTED_EDGE('',*,*,#330,.F.);
#212=ORIENTED_EDGE('',*,*,#336,.T.);
#213=ORIENTED_EDGE('',*,*,#312,.T.);
#214=ORIENTED_EDGE('',*,*,#316,.T.);
#215=ORIENTED_EDGE('',*,*,#345,.T.);
#216=ORIENTED_EDGE('',*,*,#350,.T.);
#217=ORIENTED_EDGE('',*,*,#338,.T.);
#218=ORIENTED_EDGE('',*,*,#351,.T.);
#219=ORIENTED_EDGE('',*,*,#347,.T.);
#220=ORIENTED_EDGE('',*,*,#349,.T.);
#221=ORIENTED_EDGE('',*,*,#329,.T.);
#222=ORIENTED_EDGE('',*,*,#337,.T.);
#223=ORIENTED_EDGE('',*,*,#350,.F.);
#224=ORIENTED_EDGE('',*,*,#348,.T.);
#225=ORIENTED_EDGE('',*,*,#351,.F.);
#226=ORIENTED_EDGE('',*,*,#321,.T.);
#227=ORIENTED_EDGE('',*,*,#352,.T.);
#228=ORIENTED_EDGE('',*,*,#353,.T.);
#229=ORIENTED_EDGE('',*,*,#354,.T.);
#230=ORIENTED_EDGE('',*,*,#355,.T.);
#231=ORIENTED_EDGE('',*,*,#356,.T.);
#232=ORIENTED_EDGE('',*,*,#323,.T.);
#233=ORIENTED_EDGE('',*,*,#357,.T.);
#234=ORIENTED_EDGE('',*,*,#358,.T.);
#235=ORIENTED_EDGE('',*,*,#359,.T.);
#236=ORIENTED_EDGE('',*,*,#325,.T.);
#237=ORIENTED_EDGE('',*,*,#360,.T.);
#238=ORIENTED_EDGE('',*,*,#353,.F.);
#239=ORIENTED_EDGE('',*,*,#361,.T.);
#240=ORIENTED_EDGE('',*,*,#362,.F.);
#241=ORIENTED_EDGE('',*,*,#363,.T.);
#242=ORIENTED_EDGE('',*,*,#358,.F.);
#243=ORIENTED_EDGE('',*,*,#364,.T.);
#244=ORIENTED_EDGE('',*,*,#355,.F.);
#245=ORIENTED_EDGE('',*,*,#365,.T.);
#246=ORIENTED_EDGE('',*,*,#362,.T.);
#247=ORIENTED_EDGE('',*,*,#366,.T.);
#248=ORIENTED_EDGE('',*,*,#327,.T.);
#249=ORIENTED_EDGE('',*,*,#367,.T.);
#250=ORIENTED_EDGE('',*,*,#328,.F.);
#251=ORIENTED_EDGE('',*,*,#366,.F.);
#252=ORIENTED_EDGE('',*,*,#361,.F.);
#253=ORIENTED_EDGE('',*,*,#352,.F.);
#254=ORIENTED_EDGE('',*,*,#326,.F.);
#255=ORIENTED_EDGE('',*,*,#359,.F.);
#256=ORIENTED_EDGE('',*,*,#363,.F.);
#257=ORIENTED_EDGE('',*,*,#367,.F.);
#258=ORIENTED_EDGE('',*,*,#324,.F.);
#259=ORIENTED_EDGE('',*,*,#356,.F.);
#260=ORIENTED_EDGE('',*,*,#364,.F.);
#261=ORIENTED_EDGE('',*,*,#360,.F.);
#262=ORIENTED_EDGE('',*,*,#322,.F.);
#263=ORIENTED_EDGE('',*,*,#354,.F.);
#264=ORIENTED_EDGE('',*,*,#365,.F.);
#265=ORIENTED_EDGE('',*,*,#357,.F.);
#266=ORIENTED_EDGE('',*,*,#368,.F.);
#267=ORIENTED_EDGE('',*,*,#320,.T.);
#268=ORIENTED_EDGE('',*,*,#368,.T.);
#269=ORIENTED_EDGE('',*,*,#369,.F.);
#270=ORIENTED_EDGE('',*,*,#319,.T.);
#271=ORIENTED_EDGE('',*,*,#369,.T.);
#272=VERTEX_POINT('',#624);
#273=VERTEX_POINT('',#625);
#274=VERTEX_POINT('',#627);
#275=VERTEX_POINT('',#629);
#276=VERTEX_POINT('',#633);
#277=VERTEX_POINT('',#635);
#278=VERTEX_POINT('',#639);
#279=VERTEX_POINT('',#641);
#280=VERTEX_POINT('',#643);
#281=VERTEX_POINT('',#644);
#282=VERTEX_POINT('',#646);
#283=VERTEX_POINT('',#648);
#284=VERTEX_POINT('',#650);
#285=VERTEX_POINT('',#652);
#286=VERTEX_POINT('',#654);
#287=VERTEX_POINT('',#656);
#288=VERTEX_POINT('',#659);
#289=VERTEX_POINT('',#660);
#290=VERTEX_POINT('',#662);
#291=VERTEX_POINT('',#664);
#292=VERTEX_POINT('',#668);
#293=VERTEX_POINT('',#670);
#294=VERTEX_POINT('',#674);
#295=VERTEX_POINT('',#676);
#296=VERTEX_POINT('',#679);
#297=VERTEX_POINT('',#683);
#298=VERTEX_POINT('',#685);
#299=VERTEX_POINT('',#691);
#300=VERTEX_POINT('',#693);
#301=VERTEX_POINT('',#695);
#302=VERTEX_POINT('',#706);
#303=VERTEX_POINT('',#708);
#304=VERTEX_POINT('',#712);
#305=VERTEX_POINT('',#713);
#306=VERTEX_POINT('',#718);
#307=VERTEX_POINT('',#719);
#308=VERTEX_POINT('',#724);
#309=VERTEX_POINT('',#726);
#310=VERTEX_POINT('',#739);
#311=VERTEX_POINT('',#743);
#312=EDGE_CURVE('',#272,#273,#370,.T.);
#313=EDGE_CURVE('',#274,#272,#371,.T.);
#314=EDGE_CURVE('',#275,#274,#372,.T.);
#315=EDGE_CURVE('',#275,#273,#373,.T.);
#316=EDGE_CURVE('',#273,#276,#374,.T.);
#317=EDGE_CURVE('',#277,#275,#375,.T.);
#318=EDGE_CURVE('',#276,#277,#376,.T.);
#319=EDGE_CURVE('',#278,#278,#48,.T.);
#320=EDGE_CURVE('',#279,#279,#49,.T.);
#321=EDGE_CURVE('',#280,#281,#377,.T.);
#322=EDGE_CURVE('',#280,#282,#50,.T.);
#323=EDGE_CURVE('',#283,#282,#378,.T.);
#324=EDGE_CURVE('',#283,#284,#51,.T.);
#325=EDGE_CURVE('',#285,#284,#379,.T.);
#326=EDGE_CURVE('',#285,#286,#52,.T.);
#327=EDGE_CURVE('',#287,#286,#380,.T.);
#328=EDGE_CURVE('',#287,#281,#53,.T.);
#329=EDGE_CURVE('',#288,#289,#381,.T.);
#330=EDGE_CURVE('',#288,#290,#382,.T.);
#331=EDGE_CURVE('',#291,#290,#383,.T.);
#332=EDGE_CURVE('',#289,#291,#384,.T.);
#333=EDGE_CURVE('',#292,#277,#385,.T.);
#334=EDGE_CURVE('',#293,#274,#386,.T.);
#335=EDGE_CURVE('',#293,#292,#387,.T.);
#336=EDGE_CURVE('',#294,#272,#388,.T.);
#337=EDGE_CURVE('',#295,#294,#389,.T.);
#338=EDGE_CURVE('',#289,#295,#390,.T.);
#339=EDGE_CURVE('',#296,#291,#391,.T.);
#340=EDGE_CURVE('',#296,#293,#392,.T.);
#341=EDGE_CURVE('',#290,#297,#393,.T.);
#342=EDGE_CURVE('',#298,#297,#394,.T.);
#343=EDGE_CURVE('',#298,#296,#395,.T.);
#344=EDGE_CURVE('',#292,#298,#396,.T.);
#345=EDGE_CURVE('',#276,#299,#397,.T.);
#346=EDGE_CURVE('',#297,#300,#398,.T.);
#347=EDGE_CURVE('',#301,#300,#399,.T.);
#348=EDGE_CURVE('',#299,#301,#400,.T.);
#349=EDGE_CURVE('',#300,#288,#401,.T.);
#350=EDGE_CURVE('',#299,#294,#402,.T.);
#351=EDGE_CURVE('',#295,#301,#403,.T.);
#352=EDGE_CURVE('',#281,#302,#404,.T.);
#353=EDGE_CURVE('',#302,#303,#405,.T.);
#354=EDGE_CURVE('',#303,#280,#406,.T.);
#355=EDGE_CURVE('',#304,#305,#407,.T.);
#356=EDGE_CURVE('',#305,#283,#408,.T.);
#357=EDGE_CURVE('',#282,#304,#409,.T.);
#358=EDGE_CURVE('',#306,#307,#410,.T.);
#359=EDGE_CURVE('',#307,#285,#411,.T.);
#360=EDGE_CURVE('',#284,#306,#412,.T.);
#361=EDGE_CURVE('',#302,#308,#54,.T.);
#362=EDGE_CURVE('',#309,#308,#413,.T.);
#363=EDGE_CURVE('',#309,#307,#55,.T.);
#364=EDGE_CURVE('',#306,#305,#56,.T.);
#365=EDGE_CURVE('',#304,#303,#57,.T.);
#366=EDGE_CURVE('',#308,#287,#414,.T.);
#367=EDGE_CURVE('',#286,#309,#415,.T.);
#368=EDGE_CURVE('',#310,#310,#58,.T.);
#369=EDGE_CURVE('',#311,#311,#59,.T.);
#370=LINE('',#623,#416);
#371=LINE('',#626,#417);
#372=LINE('',#628,#418);
#373=LINE('',#630,#419);
#374=LINE('',#632,#420);
#375=LINE('',#634,#421);
#376=LINE('',#636,#422);
#377=LINE('',#642,#423);
#378=LINE('',#647,#424);
#379=LINE('',#651,#425);
#380=LINE('',#655,#426);
#381=LINE('',#658,#427);
#382=LINE('',#661,#428);
#383=LINE('',#663,#429);
#384=LINE('',#665,#430);
#385=LINE('',#667,#431);
#386=LINE('',#669,#432);
#387=LINE('',#671,#433);
#388=LINE('',#673,#434);
#389=LINE('',#675,#435);
#390=LINE('',#677,#436);
#391=LINE('',#678,#437);
#392=LINE('',#680,#438);
#393=LINE('',#682,#439);
#394=LINE('',#684,#440);
#395=LINE('',#686,#441);
#396=LINE('',#688,#442);
#397=LINE('',#690,#443);
#398=LINE('',#692,#444);
#399=LINE('',#694,#445);
#400=LINE('',#696,#446);
#401=LINE('',#698,#447);
#402=LINE('',#700,#448);
#403=LINE('',#702,#449);
#404=LINE('',#705,#450);
#405=LINE('',#707,#451);
#406=LINE('',#709,#452);
#407=LINE('',#711,#453);
#408=LINE('',#714,#454);
#409=LINE('',#715,#455);
#410=LINE('',#717,#456);
#411=LINE('',#720,#457);
#412=LINE('',#721,#458);
#413=LINE('',#725,#459);
#414=LINE('',#731,#460);
#415=LINE('',#732,#461);
#416=VECTOR('',#502,1.);
#417=VECTOR('',#503,1.);
#418=VECTOR('',#504,1.);
#419=VECTOR('',#505,1.);
#420=VECTOR('',#508,1.);
#421=VECTOR('',#509,1.);
#422=VECTOR('',#510,1.);
#423=VECTOR('',#517,1.);
#424=VECTOR('',#520,1.);
#425=VECTOR('',#523,1.);
#426=VECTOR('',#526,1.);
#427=VECTOR('',#529,1.);
#428=VECTOR('',#530,1.);
#429=VECTOR('',#531,1.);
#430=VECTOR('',#532,1.);
#431=VECTOR('',#535,1.);
#432=VECTOR('',#536,1.);
#433=VECTOR('',#537,1.);
#434=VECTOR('',#540,1.);
#435=VECTOR('',#541,1.);
#436=VECTOR('',#542,1.);
#437=VECTOR('',#543,1.);
#438=VECTOR('',#544,1.);
#439=VECTOR('',#547,1.);
#440=VECTOR('',#548,1.);
#441=VECTOR('',#549,1.);
#442=VECTOR('',#552,1.);
#443=VECTOR('',#555,1.);
#444=VECTOR('',#556,1.);
#445=VECTOR('',#557,1.);
#446=VECTOR('',#558,1.);
#447=VECTOR('',#561,1.);
#448=VECTOR('',#564,1.);
#449=VECTOR('',#567,1.);
#450=VECTOR('',#572,1.);
#451=VECTOR('',#573,1.);
#452=VECTOR('',#574,1.);
#453=VECTOR('',#577,1.);
#454=VECTOR('',#578,1.);
#455=VECTOR('',#579,1.);
#456=VECTOR('',#582,1.);
#457=VECTOR('',#583,1.);
#458=VECTOR('',#584,1.);
#459=VECTOR('',#589,1.);
#460=VECTOR('',#598,1.);
#461=VECTOR('',#599,1.);
#462=AXIS2_PLACEMENT_3D('',#622,#500,#501);
#463=AXIS2_PLACEMENT_3D('',#631,#506,#507);
#464=AXIS2_PLACEMENT_3D('',#637,#511,#512);
#465=AXIS2_PLACEMENT_3D('',#638,#513,#514);
#466=AXIS2_PLACEMENT_3D('',#640,#515,#516);
#467=AXIS2_PLACEMENT_3D('',#645,#518,#519);
#468=AXIS2_PLACEMENT_3D('',#649,#521,#522);
#469=AXIS2_PLACEMENT_3D('',#653,#524,#525);
#470=AXIS2_PLACEMENT_3D('',#657,#527,#528);
#471=AXIS2_PLACEMENT_3D('',#666,#533,#534);
#472=AXIS2_PLACEMENT_3D('',#672,#538,#539);
#473=AXIS2_PLACEMENT_3D('',#681,#545,#546);
#474=AXIS2_PLACEMENT_3D('',#687,#550,#551);
#475=AXIS2_PLACEMENT_3D('',#689,#553,#554);
#476=AXIS2_PLACEMENT_3D('',#697,#559,#560);
#477=AXIS2_PLACEMENT_3D('',#699,#562,#563);
#478=AXIS2_PLACEMENT_3D('',#701,#565,#566);
#479=AXIS2_PLACEMENT_3D('',#703,#568,#569);
#480=AXIS2_PLACEMENT_3D('',#704,#570,#571);
#481=AXIS2_PLACEMENT_3D('',#710,#575,#576);
#482=AXIS2_PLACEMENT_3D('',#716,#580,#581);
#483=AXIS2_PLACEMENT_3D('',#722,#585,#586);
#484=AXIS2_PLACEMENT_3D('',#723,#587,#588);
#485=AXIS2_PLACEMENT_3D('',#727,#590,#591);
#486=AXIS2_PLACEMENT_3D('',#728,#592,#593);
#487=AXIS2_PLACEMENT_3D('',#729,#594,#595);
#488=AXIS2_PLACEMENT_3D('',#730,#596,#597);
#489=AXIS2_PLACEMENT_3D('',#733,#600,#601);
#490=AXIS2_PLACEMENT_3D('',#734,#602,#603);
#491=AXIS2_PLACEMENT_3D('',#735,#604,#605);
#492=AXIS2_PLACEMENT_3D('',#736,#606,#607);
#493=AXIS2_PLACEMENT_3D('',#737,#608,#609);
#494=AXIS2_PLACEMENT_3D('',#738,#610,#611);
#495=AXIS2_PLACEMENT_3D('',#740,#612,#613);
#496=AXIS2_PLACEMENT_3D('',#741,#614,#615);
#497=AXIS2_PLACEMENT_3D('',#742,#616,#617);
#498=AXIS2_PLACEMENT_3D('',#744,#618,#619);
#499=AXIS2_PLACEMENT_3D('',#745,#620,#621);
#500=DIRECTION('',(0.,0.,1.));
#501=DIRECTION('',(1.,0.,0.));
#502=DIRECTION('',(1.,0.,0.));
#503=DIRECTION('',(0.,1.,0.));
#504=DIRECTION('',(-1.,0.,0.));
#505=DIRECTION('',(0.,1.,0.));
#506=DIRECTION('',(0.,0.,1.));
#507=DIRECTION('',(1.,0.,0.));
#508=DIRECTION('',(0.707106781186548,0.,-0.707106781186548));
#509=DIRECTION('',(-0.707106781186548,0.,0.707106781186548));
#510=DIRECTION('',(0.,-1.,0.));
#511=DIRECTION('',(-0.707106781186547,0.,-0.707106781186547));
#512=DIRECTION('',(0.,-1.,0.));
#513=DIRECTION('',(0.,0.,1.));
#514=DIRECTION('',(0.999999999999994,0.,0.));
#515=DIRECTION('',(0.,0.,1.));
#516=DIRECTION('',(1.,0.,0.));
#517=DIRECTION('',(1.,0.,0.));
#518=DIRECTION('',(0.,0.,-1.));
#519=DIRECTION('',(1.,0.,0.));
#520=DIRECTION('',(0.,-1.,0.));
#521=DIRECTION('',(0.,0.,-1.));
#522=DIRECTION('',(1.,0.,0.));
#523=DIRECTION('',(-1.,0.,0.));
#524=DIRECTION('',(0.,0.,-1.));
#525=DIRECTION('',(1.,0.,0.));
#526=DIRECTION('',(0.,1.,0.));
#527=DIRECTION('',(0.,0.,-1.));
#528=DIRECTION('',(1.,0.,0.));
#529=DIRECTION('',(-1.,0.,0.));
#530=DIRECTION('',(0.,1.,0.));
#531=DIRECTION('',(1.,0.,0.));
#532=DIRECTION('',(0.,1.,0.));
#533=DIRECTION('',(0.,0.,1.));
#534=DIRECTION('',(1.,0.,0.));
#535=DIRECTION('',(0.,0.,1.));
#536=DIRECTION('',(0.,0.,1.));
#537=DIRECTION('',(1.,0.,0.));
#538=DIRECTION('',(0.,-1.,0.));
#539=DIRECTION('',(0.,0.,-1.));
#540=DIRECTION('',(0.,0.,1.));
#541=DIRECTION('',(0.,-1.,0.));
#542=DIRECTION('',(0.,0.,-1.));
#543=DIRECTION('',(0.,0.,1.));
#544=DIRECTION('',(0.,-1.,0.));
#545=DIRECTION('',(-1.,0.,0.));
#546=DIRECTION('',(0.,0.,1.));
#547=DIRECTION('',(0.707106781186548,0.,-0.707106781186548));
#548=DIRECTION('',(0.,0.,1.));
#549=DIRECTION('',(-1.,0.,0.));
#550=DIRECTION('',(0.,1.,0.));
#551=DIRECTION('',(0.,0.,1.));
#552=DIRECTION('',(0.,1.,0.));
#553=DIRECTION('',(0.,0.,-1.));
#554=DIRECTION('',(-1.,0.,0.));
#555=DIRECTION('',(0.,0.,-1.));
#556=DIRECTION('',(0.,-1.,0.));
#557=DIRECTION('',(0.,0.,1.));
#558=DIRECTION('',(0.,1.,0.));
#559=DIRECTION('',(1.,0.,0.));
#560=DIRECTION('',(0.,0.,-1.));
#561=DIRECTION('',(-0.707106781186548,0.,0.707106781186548));
#562=DIRECTION('',(-0.707106781186547,0.,-0.707106781186547));
#563=DIRECTION('',(0.,-1.,0.));
#564=DIRECTION('',(-1.,0.,0.));
#565=DIRECTION('',(0.,-1.,0.));
#566=DIRECTION('',(0.,0.,-1.));
#567=DIRECTION('',(1.,0.,0.));
#568=DIRECTION('',(0.,1.,0.));
#569=DIRECTION('',(0.,0.,1.));
#570=DIRECTION('',(0.,0.,-1.));
#571=DIRECTION('',(-1.,0.,0.));
#572=DIRECTION('',(0.,0.,-1.));
#573=DIRECTION('',(-1.,0.,0.));
#574=DIRECTION('',(0.,0.,1.));
#575=DIRECTION('',(0.,-1.,0.));
#576=DIRECTION('',(0.,0.,-1.));
#577=DIRECTION('',(0.,1.,0.));
#578=DIRECTION('',(0.,0.,1.));
#579=DIRECTION('',(0.,0.,-1.));
#580=DIRECTION('',(-1.,0.,0.));
#581=DIRECTION('',(0.,0.,1.));
#582=DIRECTION('',(1.,0.,0.));
#583=DIRECTION('',(0.,0.,1.));
#584=DIRECTION('',(0.,0.,-1.));
#585=DIRECTION('',(0.,1.,0.));
#586=DIRECTION('',(0.,0.,1.));
#587=DIRECTION('',(0.,0.,1.));
#588=DIRECTION('',(-1.,0.,0.));
#589=DIRECTION('',(0.,-1.,0.));
#590=DIRECTION('',(0.,0.,1.));
#591=DIRECTION('',(-1.,0.,0.));
#592=DIRECTION('',(0.,0.,1.));
#593=DIRECTION('',(-1.,0.,0.));
#594=DIRECTION('',(0.,0.,1.));
#595=DIRECTION('',(-1.,0.,0.));
#596=DIRECTION('',(0.,0.,-1.));
#597=DIRECTION('',(-1.,0.,0.));
#598=DIRECTION('',(0.,0.,1.));
#599=DIRECTION('',(0.,0.,-1.));
#600=DIRECTION('',(1.,0.,0.));
#601=DIRECTION('',(0.,0.,-1.));
#602=DIRECTION('',(0.,0.,1.));
#603=DIRECTION('',(1.,0.,0.));
#604=DIRECTION('',(0.,0.,1.));
#605=DIRECTION('',(1.,0.,0.));
#606=DIRECTION('',(0.,0.,1.));
#607=DIRECTION('',(1.,0.,0.));
#608=DIRECTION('',(0.,0.,1.));
#609=DIRECTION('',(1.,0.,0.));
#610=DIRECTION('',(0.,0.,-1.));
#611=DIRECTION('',(1.,0.,0.));
#612=DIRECTION('',(0.,0.,-1.));
#613=DIRECTION('',(-1.,0.,0.));
#614=DIRECTION('',(0.,0.,-1.));
#615=DIRECTION('',(1.,0.,0.));
#616=DIRECTION('',(0.,0.,-1.));
#617=DIRECTION('',(0.999999999999994,0.,0.));
#618=DIRECTION('',(0.,0.,-1.));
#619=DIRECTION('',(-1.,0.,0.));
#620=DIRECTION('',(0.,0.,-1.));
#621=DIRECTION('',(0.999999999999994,0.,0.));
#622=CARTESIAN_POINT('',(0.,0.,0.));
#623=CARTESIAN_POINT('',(194.95,7.00000000000001,117.7));
#624=CARTESIAN_POINT('',(0.,7.00000000000001,117.7));
#625=CARTESIAN_POINT('',(387.4,7.00000000000001,117.7));
#626=CARTESIAN_POINT('',(0.,235.35,117.7));
#627=CARTESIAN_POINT('',(0.,0.,117.7));
#628=CARTESIAN_POINT('',(194.95,0.,117.7));
#629=CARTESIAN_POINT('',(387.4,0.,117.7));
#630=CARTESIAN_POINT('',(387.4,235.35,117.7));
#631=CARTESIAN_POINT('',(194.95,235.35,117.7));
#632=CARTESIAN_POINT('',(389.9,7.00000000000001,115.2));
#633=CARTESIAN_POINT('',(389.9,7.00000000000001,115.2));
#634=CARTESIAN_POINT('',(350.025,0.,155.075));
#635=CARTESIAN_POINT('',(389.9,0.,115.2));
#636=CARTESIAN_POINT('',(389.9,235.35,115.2));
#637=CARTESIAN_POINT('',(389.9,235.35,115.2));
#638=CARTESIAN_POINT('',(265.,249.9,117.7));
#639=CARTESIAN_POINT('',(269.25,249.9,117.7));
#640=CARTESIAN_POINT('',(74.1,249.9,117.7));
#641=CARTESIAN_POINT('',(78.35,249.9,117.7));
#642=CARTESIAN_POINT('',(194.95,132.5,117.7));
#643=CARTESIAN_POINT('',(120.2,132.5,117.7));
#644=CARTESIAN_POINT('',(200.5,132.5,117.7));
#645=CARTESIAN_POINT('',(120.2,137.8,117.7));
#646=CARTESIAN_POINT('',(114.9,137.8,117.7));
#647=CARTESIAN_POINT('',(114.9,235.35,117.7));
#648=CARTESIAN_POINT('',(114.9,313.,117.7));
#649=CARTESIAN_POINT('',(120.2,313.,117.7));
#650=CARTESIAN_POINT('',(120.2,318.3,117.7));
#651=CARTESIAN_POINT('',(194.95,318.3,117.7));
#652=CARTESIAN_POINT('',(200.5,318.3,117.7));
#653=CARTESIAN_POINT('',(200.5,313.,117.7));
#654=CARTESIAN_POINT('',(205.8,313.,117.7));
#655=CARTESIAN_POINT('',(205.8,235.35,117.7));
#656=CARTESIAN_POINT('',(205.8,137.8,117.7));
#657=CARTESIAN_POINT('',(200.5,137.8,117.7));
#658=CARTESIAN_POINT('',(194.95,45.7,117.7));
#659=CARTESIAN_POINT('',(387.4,45.7,117.7));
#660=CARTESIAN_POINT('',(0.,45.7,117.7));
#661=CARTESIAN_POINT('',(387.4,235.35,117.7));
#662=CARTESIAN_POINT('',(387.4,470.7,117.7));
#663=CARTESIAN_POINT('',(194.95,470.7,117.7));
#664=CARTESIAN_POINT('',(0.,470.7,117.7));
#665=CARTESIAN_POINT('',(0.,235.35,117.7));
#666=CARTESIAN_POINT('',(194.95,235.35,117.7));
#667=CARTESIAN_POINT('',(389.9,0.,0.));
#668=CARTESIAN_POINT('',(389.9,0.,0.));
#669=CARTESIAN_POINT('',(0.,0.,0.));
#670=CARTESIAN_POINT('',(0.,0.,0.));
#671=CARTESIAN_POINT('',(194.95,0.,0.));
#672=CARTESIAN_POINT('',(194.95,0.,0.));
#673=CARTESIAN_POINT('',(0.,7.00000000000001,0.));
#674=CARTESIAN_POINT('',(0.,7.,64.8));
#675=CARTESIAN_POINT('',(0.,235.35,64.8));
#676=CARTESIAN_POINT('',(0.,45.7,64.8));
#677=CARTESIAN_POINT('',(0.,45.7,0.));
#678=CARTESIAN_POINT('',(0.,470.7,0.));
#679=CARTESIAN_POINT('',(0.,470.7,0.));
#680=CARTESIAN_POINT('',(0.,235.35,0.));
#681=CARTESIAN_POINT('',(0.,235.35,0.));
#682=CARTESIAN_POINT('',(350.025,470.7,155.075));
#683=CARTESIAN_POINT('',(389.9,470.7,115.2));
#684=CARTESIAN_POINT('',(389.9,470.7,0.));
#685=CARTESIAN_POINT('',(389.9,470.7,0.));
#686=CARTESIAN_POINT('',(194.95,470.7,0.));
#687=CARTESIAN_POINT('',(194.95,470.7,0.));
#688=CARTESIAN_POINT('',(389.9,235.35,0.));
#689=CARTESIAN_POINT('',(194.95,235.35,0.));
#690=CARTESIAN_POINT('',(389.9,7.00000000000001,0.));
#691=CARTESIAN_POINT('',(389.9,7.,64.8));
#692=CARTESIAN_POINT('',(389.9,235.35,115.2));
#693=CARTESIAN_POINT('',(389.9,45.7,115.2));
#694=CARTESIAN_POINT('',(389.9,45.7,0.));
#695=CARTESIAN_POINT('',(389.9,45.7,64.8));
#696=CARTESIAN_POINT('',(389.9,235.35,64.8));
#697=CARTESIAN_POINT('',(389.9,235.35,0.));
#698=CARTESIAN_POINT('',(389.9,45.7,115.2));
#699=CARTESIAN_POINT('',(389.9,235.35,115.2));
#700=CARTESIAN_POINT('',(194.95,7.,64.8));
#701=CARTESIAN_POINT('',(194.95,7.,64.8));
#702=CARTESIAN_POINT('',(194.95,45.7,64.8));
#703=CARTESIAN_POINT('',(194.95,45.7,64.8));
#704=CARTESIAN_POINT('',(194.95,26.35,64.8));
#705=CARTESIAN_POINT('',(200.5,132.5,87.8));
#706=CARTESIAN_POINT('',(200.5,132.5,87.8));
#707=CARTESIAN_POINT('',(160.35,132.5,87.8));
#708=CARTESIAN_POINT('',(120.2,132.5,87.8));
#709=CARTESIAN_POINT('',(120.2,132.5,117.7));
#710=CARTESIAN_POINT('',(160.35,132.5,87.8));
#711=CARTESIAN_POINT('',(114.9,225.4,87.8));
#712=CARTESIAN_POINT('',(114.9,137.8,87.8));
#713=CARTESIAN_POINT('',(114.9,313.,87.8));
#714=CARTESIAN_POINT('',(114.9,313.,117.7));
#715=CARTESIAN_POINT('',(114.9,137.8,87.8));
#716=CARTESIAN_POINT('',(114.9,225.4,87.8));
#717=CARTESIAN_POINT('',(160.35,318.3,87.8));
#718=CARTESIAN_POINT('',(120.2,318.3,87.8));
#719=CARTESIAN_POINT('',(200.5,318.3,87.8));
#720=CARTESIAN_POINT('',(200.5,318.3,117.7));
#721=CARTESIAN_POINT('',(120.2,318.3,87.8));
#722=CARTESIAN_POINT('',(160.35,318.3,87.8));
#723=CARTESIAN_POINT('',(200.5,137.8,87.8));
#724=CARTESIAN_POINT('',(205.8,137.8,87.8));
#725=CARTESIAN_POINT('',(205.8,225.4,87.8));
#726=CARTESIAN_POINT('',(205.8,313.,87.8));
#727=CARTESIAN_POINT('',(200.5,313.,87.8));
#728=CARTESIAN_POINT('',(120.2,313.,87.8));
#729=CARTESIAN_POINT('',(120.2,137.8,87.8));
#730=CARTESIAN_POINT('',(160.35,225.4,87.8));
#731=CARTESIAN_POINT('',(205.8,137.8,117.7));
#732=CARTESIAN_POINT('',(205.8,313.,87.8));
#733=CARTESIAN_POINT('',(205.8,225.4,87.8));
#734=CARTESIAN_POINT('',(200.5,137.8,87.8));
#735=CARTESIAN_POINT('',(200.5,313.,87.8));
#736=CARTESIAN_POINT('',(120.2,313.,87.8));
#737=CARTESIAN_POINT('',(120.2,137.8,87.8));
#738=CARTESIAN_POINT('',(74.1,249.9,48.9));
#739=CARTESIAN_POINT('',(78.35,249.9,48.9));
#740=CARTESIAN_POINT('',(74.1,249.9,48.9));
#741=CARTESIAN_POINT('',(74.1,249.9,117.75));
#742=CARTESIAN_POINT('',(265.,249.9,90.));
#743=CARTESIAN_POINT('',(269.25,249.9,90.));
#744=CARTESIAN_POINT('',(265.,249.9,90.));
#745=CARTESIAN_POINT('',(265.,249.9,117.75));
#746=MECHANICAL_DESIGN_GEOMETRIC_PRESENTATION_REPRESENTATION('',(#24),#747);
#747=(
GEOMETRIC_REPRESENTATION_CONTEXT(3)
GLOBAL_UNCERTAINTY_ASSIGNED_CONTEXT((#748))
GLOBAL_UNIT_ASSIGNED_CONTEXT((#754,#750,#749))
REPRESENTATION_CONTEXT('featured_part_03014','TOP_LEVEL_ASSEMBLY_PART')
);
#748=UNCERTAINTY_MEASURE_WITH_UNIT(LENGTH_MEASURE(2.E-5),#754,
'DISTANCE_ACCURACY_VALUE','Maximum Tolerance applied to model');
#749=(
NAMED_UNIT(*)
SI_UNIT($,.STERADIAN.)
SOLID_ANGLE_UNIT()
);
#750=(
CONVERSION_BASED_UNIT('DEGREE',#752)
NAMED_UNIT(#751)
PLANE_ANGLE_UNIT()
);
#751=DIMENSIONAL_EXPONENTS(0.,0.,0.,0.,0.,0.,0.);
#752=PLANE_ANGLE_MEASURE_WITH_UNIT(PLANE_ANGLE_MEASURE(0.0174532925),#753);
#753=(
NAMED_UNIT(*)
PLANE_ANGLE_UNIT()
SI_UNIT($,.RADIAN.)
);
#754=(
LENGTH_UNIT()
NAMED_UNIT(*)
SI_UNIT(.MILLI.,.METRE.)
);
ENDSEC;
END-ISO-10303-21;
