ISO-10303-21;
HEADER;
/* Generated by software containing ST-Developer
 * from STEP Tools, Inc. (www.steptools.com) 
 */
/* OPTION: using custom schema-name function */

FILE_DESCRIPTION(
/* description */ (''),
/* implementation_level */ '2;1');

FILE_NAME(
/* name */ 'featured_part_05571.stp',
/* time_stamp */ '2026-07-14T08:38:33-04:00',
/* author */ (''),
/* organization */ (''),
/* preprocessor_version */ 'ST-DEVELOPER v20.1',
/* originating_system */ 'SIEMENS PLM Software NX2512.6002',
/* authorisation */ '');

FILE_SCHEMA (('AUTOMOTIVE_DESIGN { 1 0 10303 214 3 1 1 1 }'));
ENDSEC;

DATA;
#10=SHAPE_REPRESENTATION_RELATIONSHIP('None',
'relationship between featured_part_05571-None and featured_part_05571
-None',#22,#11);
#11=ADVANCED_BREP_SHAPE_REPRESENTATION('featured_part_05571-None',(#32),
#455);
#12=SHAPE_DEFINITION_REPRESENTATION(#13,#22);
#13=PRODUCT_DEFINITION_SHAPE('','',#14);
#14=PRODUCT_DEFINITION(' ','',#16,#15);
#15=PRODUCT_DEFINITION_CONTEXT('part definition',#21,'design');
#16=PRODUCT_DEFINITION_FORMATION_WITH_SPECIFIED_SOURCE(' ',' ',#18,
 .NOT_KNOWN.);
#17=PRODUCT_RELATED_PRODUCT_CATEGORY('part','',(#18));
#18=PRODUCT('featured_part_05571','featured_part_05571',' ',(#19));
#19=PRODUCT_CONTEXT(' ',#21,'mechanical');
#20=APPLICATION_PROTOCOL_DEFINITION('international standard',
'automotive_design',2010,#21);
#21=APPLICATION_CONTEXT(
'core data for automotive mechanical design processes');
#22=SHAPE_REPRESENTATION('featured_part_05571-None',(#283),#455);
#23=PRESENTATION_LAYER_ASSIGNMENT('1','Layer 1',(#32));
#24=STYLED_ITEM('',(#25),#32);
#25=PRESENTATION_STYLE_ASSIGNMENT((#26));
#26=SURFACE_STYLE_USAGE(.BOTH.,#27);
#27=SURFACE_SIDE_STYLE('',(#28));
#28=SURFACE_STYLE_FILL_AREA(#29);
#29=FILL_AREA_STYLE('',(#30));
#30=FILL_AREA_STYLE_COLOUR('',#31);
#31=COLOUR_RGB('medium steel',0.611764705882353,0.658823529411765,0.670588235294118);
#32=MANIFOLD_SOLID_BREP('',#33);
#33=CLOSED_SHELL('',(#49,#50,#51,#52,#53,#54,#55,#56,#57,#58,#59,#60,#61,
#62,#63,#64));
#34=CYLINDRICAL_SURFACE('',#301,6.55);
#35=CYLINDRICAL_SURFACE('',#304,8.4);
#36=CYLINDRICAL_SURFACE('',#307,4.2);
#37=CYLINDRICAL_SURFACE('',#308,8.6);
#38=ELLIPSE('',#295,11.879393923934,8.4);
#39=FACE_OUTER_BOUND('',#139,.T.);
#40=FACE_OUTER_BOUND('',#140,.T.);
#41=FACE_OUTER_BOUND('',#141,.T.);
#42=FACE_OUTER_BOUND('',#144,.T.);
#43=FACE_OUTER_BOUND('',#145,.T.);
#44=FACE_OUTER_BOUND('',#146,.T.);
#45=FACE_OUTER_BOUND('',#147,.T.);
#46=FACE_OUTER_BOUND('',#148,.T.);
#47=FACE_OUTER_BOUND('',#151,.T.);
#48=FACE_OUTER_BOUND('',#154,.T.);
#49=ADVANCED_FACE('',(#121,#122,#123,#124),#65,.T.);
#50=ADVANCED_FACE('',(#39),#66,.T.);
#51=ADVANCED_FACE('',(#40),#67,.T.);
#52=ADVANCED_FACE('',(#41),#68,.T.);
#53=ADVANCED_FACE('',(#125,#126),#69,.T.);
#54=ADVANCED_FACE('',(#42),#70,.T.);
#55=ADVANCED_FACE('',(#43),#71,.F.);
#56=ADVANCED_FACE('',(#44),#72,.F.);
#57=ADVANCED_FACE('',(#45),#73,.F.);
#58=ADVANCED_FACE('',(#46),#74,.F.);
#59=ADVANCED_FACE('',(#127,#128),#34,.F.);
#60=ADVANCED_FACE('',(#47),#75,.F.);
#61=ADVANCED_FACE('',(#129,#130),#35,.F.);
#62=ADVANCED_FACE('',(#48),#76,.F.);
#63=ADVANCED_FACE('',(#131,#132),#36,.F.);
#64=ADVANCED_FACE('',(#133,#134),#37,.F.);
#65=PLANE('',#288);
#66=PLANE('',#289);
#67=PLANE('',#290);
#68=PLANE('',#291);
#69=PLANE('',#293);
#70=PLANE('',#294);
#71=PLANE('',#296);
#72=PLANE('',#297);
#73=PLANE('',#298);
#74=PLANE('',#300);
#75=PLANE('',#303);
#76=PLANE('',#306);
#77=LINE('',#391,#99);
#78=LINE('',#393,#100);
#79=LINE('',#395,#101);
#80=LINE('',#397,#102);
#81=LINE('',#399,#103);
#82=LINE('',#403,#104);
#83=LINE('',#406,#105);
#84=LINE('',#408,#106);
#85=LINE('',#410,#107);
#86=LINE('',#412,#108);
#87=LINE('',#414,#109);
#88=LINE('',#416,#110);
#89=LINE('',#418,#111);
#90=LINE('',#420,#112);
#91=LINE('',#422,#113);
#92=LINE('',#424,#114);
#93=LINE('',#426,#115);
#94=LINE('',#430,#116);
#95=LINE('',#432,#117);
#96=LINE('',#433,#118);
#97=LINE('',#436,#119);
#98=LINE('',#437,#120);
#99=VECTOR('',#317,1.);
#100=VECTOR('',#318,1.);
#101=VECTOR('',#319,1.);
#102=VECTOR('',#320,1.);
#103=VECTOR('',#321,1.);
#104=VECTOR('',#326,1.);
#105=VECTOR('',#327,1.);
#106=VECTOR('',#328,1.);
#107=VECTOR('',#329,1.);
#108=VECTOR('',#330,1.);
#109=VECTOR('',#333,1.);
#110=VECTOR('',#334,1.);
#111=VECTOR('',#335,1.);
#112=VECTOR('',#336,1.);
#113=VECTOR('',#339,1.);
#114=VECTOR('',#340,1.);
#115=VECTOR('',#341,1.);
#116=VECTOR('',#346,1.);
#117=VECTOR('',#349,1.);
#118=VECTOR('',#350,1.);
#119=VECTOR('',#355,1.);
#120=VECTOR('',#356,1.);
#121=FACE_BOUND('',#135,.T.);
#122=FACE_BOUND('',#136,.T.);
#123=FACE_BOUND('',#137,.T.);
#124=FACE_BOUND('',#138,.T.);
#125=FACE_BOUND('',#142,.T.);
#126=FACE_BOUND('',#143,.T.);
#127=FACE_BOUND('',#149,.T.);
#128=FACE_BOUND('',#150,.T.);
#129=FACE_BOUND('',#152,.T.);
#130=FACE_BOUND('',#153,.T.);
#131=FACE_BOUND('',#155,.T.);
#132=FACE_BOUND('',#156,.T.);
#133=FACE_BOUND('',#157,.T.);
#134=FACE_BOUND('',#158,.T.);
#135=EDGE_LOOP('',(#159));
#136=EDGE_LOOP('',(#160));
#137=EDGE_LOOP('',(#161,#162,#163,#164,#165,#166));
#138=EDGE_LOOP('',(#167));
#139=EDGE_LOOP('',(#168,#169,#170,#171,#172));
#140=EDGE_LOOP('',(#173,#174,#175,#176,#177));
#141=EDGE_LOOP('',(#178,#179,#180,#181));
#142=EDGE_LOOP('',(#182));
#143=EDGE_LOOP('',(#183,#184,#185,#186));
#144=EDGE_LOOP('',(#187,#188,#189,#190,#191,#192));
#145=EDGE_LOOP('',(#193,#194,#195,#196,#197,#198,#199));
#146=EDGE_LOOP('',(#200,#201,#202,#203,#204));
#147=EDGE_LOOP('',(#205,#206,#207,#208));
#148=EDGE_LOOP('',(#209));
#149=EDGE_LOOP('',(#210));
#150=EDGE_LOOP('',(#211));
#151=EDGE_LOOP('',(#212));
#152=EDGE_LOOP('',(#213,#214));
#153=EDGE_LOOP('',(#215));
#154=EDGE_LOOP('',(#216));
#155=EDGE_LOOP('',(#217));
#156=EDGE_LOOP('',(#218));
#157=EDGE_LOOP('',(#219));
#158=EDGE_LOOP('',(#220));
#159=ORIENTED_EDGE('',*,*,#244,.F.);
#160=ORIENTED_EDGE('',*,*,#245,.F.);
#161=ORIENTED_EDGE('',*,*,#246,.F.);
#162=ORIENTED_EDGE('',*,*,#247,.T.);
#163=ORIENTED_EDGE('',*,*,#248,.T.);
#164=ORIENTED_EDGE('',*,*,#249,.F.);
#165=ORIENTED_EDGE('',*,*,#250,.T.);
#166=ORIENTED_EDGE('',*,*,#251,.T.);
#167=ORIENTED_EDGE('',*,*,#252,.F.);
#168=ORIENTED_EDGE('',*,*,#253,.T.);
#169=ORIENTED_EDGE('',*,*,#254,.T.);
#170=ORIENTED_EDGE('',*,*,#255,.T.);
#171=ORIENTED_EDGE('',*,*,#256,.F.);
#172=ORIENTED_EDGE('',*,*,#257,.T.);
#173=ORIENTED_EDGE('',*,*,#258,.T.);
#174=ORIENTED_EDGE('',*,*,#259,.T.);
#175=ORIENTED_EDGE('',*,*,#260,.F.);
#176=ORIENTED_EDGE('',*,*,#261,.T.);
#177=ORIENTED_EDGE('',*,*,#256,.T.);
#178=ORIENTED_EDGE('',*,*,#260,.T.);
#179=ORIENTED_EDGE('',*,*,#262,.T.);
#180=ORIENTED_EDGE('',*,*,#263,.F.);
#181=ORIENTED_EDGE('',*,*,#264,.T.);
#182=ORIENTED_EDGE('',*,*,#265,.F.);
#183=ORIENTED_EDGE('',*,*,#266,.F.);
#184=ORIENTED_EDGE('',*,*,#257,.F.);
#185=ORIENTED_EDGE('',*,*,#261,.F.);
#186=ORIENTED_EDGE('',*,*,#264,.F.);
#187=ORIENTED_EDGE('',*,*,#249,.T.);
#188=ORIENTED_EDGE('',*,*,#267,.T.);
#189=ORIENTED_EDGE('',*,*,#253,.F.);
#190=ORIENTED_EDGE('',*,*,#266,.T.);
#191=ORIENTED_EDGE('',*,*,#263,.T.);
#192=ORIENTED_EDGE('',*,*,#268,.T.);
#193=ORIENTED_EDGE('',*,*,#269,.F.);
#194=ORIENTED_EDGE('',*,*,#251,.F.);
#195=ORIENTED_EDGE('',*,*,#270,.T.);
#196=ORIENTED_EDGE('',*,*,#258,.F.);
#197=ORIENTED_EDGE('',*,*,#255,.F.);
#198=ORIENTED_EDGE('',*,*,#271,.T.);
#199=ORIENTED_EDGE('',*,*,#247,.F.);
#200=ORIENTED_EDGE('',*,*,#270,.F.);
#201=ORIENTED_EDGE('',*,*,#250,.F.);
#202=ORIENTED_EDGE('',*,*,#268,.F.);
#203=ORIENTED_EDGE('',*,*,#262,.F.);
#204=ORIENTED_EDGE('',*,*,#259,.F.);
#205=ORIENTED_EDGE('',*,*,#267,.F.);
#206=ORIENTED_EDGE('',*,*,#248,.F.);
#207=ORIENTED_EDGE('',*,*,#271,.F.);
#208=ORIENTED_EDGE('',*,*,#254,.F.);
#209=ORIENTED_EDGE('',*,*,#272,.F.);
#210=ORIENTED_EDGE('',*,*,#252,.T.);
#211=ORIENTED_EDGE('',*,*,#272,.T.);
#212=ORIENTED_EDGE('',*,*,#273,.F.);
#213=ORIENTED_EDGE('',*,*,#246,.T.);
#214=ORIENTED_EDGE('',*,*,#269,.T.);
#215=ORIENTED_EDGE('',*,*,#273,.T.);
#216=ORIENTED_EDGE('',*,*,#274,.F.);
#217=ORIENTED_EDGE('',*,*,#245,.T.);
#218=ORIENTED_EDGE('',*,*,#274,.T.);
#219=ORIENTED_EDGE('',*,*,#244,.T.);
#220=ORIENTED_EDGE('',*,*,#265,.T.);
#221=VERTEX_POINT('',#385);
#222=VERTEX_POINT('',#387);
#223=VERTEX_POINT('',#389);
#224=VERTEX_POINT('',#390);
#225=VERTEX_POINT('',#392);
#226=VERTEX_POINT('',#394);
#227=VERTEX_POINT('',#396);
#228=VERTEX_POINT('',#398);
#229=VERTEX_POINT('',#401);
#230=VERTEX_POINT('',#404);
#231=VERTEX_POINT('',#405);
#232=VERTEX_POINT('',#407);
#233=VERTEX_POINT('',#409);
#234=VERTEX_POINT('',#411);
#235=VERTEX_POINT('',#415);
#236=VERTEX_POINT('',#417);
#237=VERTEX_POINT('',#419);
#238=VERTEX_POINT('',#423);
#239=VERTEX_POINT('',#425);
#240=VERTEX_POINT('',#429);
#241=VERTEX_POINT('',#442);
#242=VERTEX_POINT('',#446);
#243=VERTEX_POINT('',#450);
#244=EDGE_CURVE('',#221,#221,#275,.T.);
#245=EDGE_CURVE('',#222,#222,#276,.T.);
#246=EDGE_CURVE('',#223,#224,#277,.T.);
#247=EDGE_CURVE('',#223,#225,#77,.T.);
#248=EDGE_CURVE('',#225,#226,#78,.T.);
#249=EDGE_CURVE('',#227,#226,#79,.T.);
#250=EDGE_CURVE('',#227,#228,#80,.T.);
#251=EDGE_CURVE('',#228,#224,#81,.T.);
#252=EDGE_CURVE('',#229,#229,#278,.T.);
#253=EDGE_CURVE('',#230,#231,#82,.T.);
#254=EDGE_CURVE('',#231,#232,#83,.T.);
#255=EDGE_CURVE('',#232,#233,#84,.T.);
#256=EDGE_CURVE('',#234,#233,#85,.T.);
#257=EDGE_CURVE('',#234,#230,#86,.T.);
#258=EDGE_CURVE('',#233,#235,#87,.T.);
#259=EDGE_CURVE('',#235,#236,#88,.T.);
#260=EDGE_CURVE('',#237,#236,#89,.T.);
#261=EDGE_CURVE('',#237,#234,#90,.T.);
#262=EDGE_CURVE('',#236,#238,#91,.T.);
#263=EDGE_CURVE('',#239,#238,#92,.T.);
#264=EDGE_CURVE('',#239,#237,#93,.T.);
#265=EDGE_CURVE('',#240,#240,#279,.T.);
#266=EDGE_CURVE('',#230,#239,#94,.T.);
#267=EDGE_CURVE('',#226,#231,#95,.T.);
#268=EDGE_CURVE('',#238,#227,#96,.T.);
#269=EDGE_CURVE('',#224,#223,#38,.T.);
#270=EDGE_CURVE('',#228,#235,#97,.T.);
#271=EDGE_CURVE('',#232,#225,#98,.T.);
#272=EDGE_CURVE('',#241,#241,#280,.T.);
#273=EDGE_CURVE('',#242,#242,#281,.T.);
#274=EDGE_CURVE('',#243,#243,#282,.T.);
#275=CIRCLE('',#284,8.6);
#276=CIRCLE('',#285,4.2);
#277=CIRCLE('',#286,8.4);
#278=CIRCLE('',#287,6.55);
#279=CIRCLE('',#292,8.6);
#280=CIRCLE('',#299,6.55);
#281=CIRCLE('',#302,8.4);
#282=CIRCLE('',#305,4.2);
#283=AXIS2_PLACEMENT_3D('',#383,#309,#310);
#284=AXIS2_PLACEMENT_3D('',#384,#311,#312);
#285=AXIS2_PLACEMENT_3D('',#386,#313,#314);
#286=AXIS2_PLACEMENT_3D('',#388,#315,#316);
#287=AXIS2_PLACEMENT_3D('',#400,#322,#323);
#288=AXIS2_PLACEMENT_3D('',#402,#324,#325);
#289=AXIS2_PLACEMENT_3D('',#413,#331,#332);
#290=AXIS2_PLACEMENT_3D('',#421,#337,#338);
#291=AXIS2_PLACEMENT_3D('',#427,#342,#343);
#292=AXIS2_PLACEMENT_3D('',#428,#344,#345);
#293=AXIS2_PLACEMENT_3D('',#431,#347,#348);
#294=AXIS2_PLACEMENT_3D('',#434,#351,#352);
#295=AXIS2_PLACEMENT_3D('',#435,#353,#354);
#296=AXIS2_PLACEMENT_3D('',#438,#357,#358);
#297=AXIS2_PLACEMENT_3D('',#439,#359,#360);
#298=AXIS2_PLACEMENT_3D('',#440,#361,#362);
#299=AXIS2_PLACEMENT_3D('',#441,#363,#364);
#300=AXIS2_PLACEMENT_3D('',#443,#365,#366);
#301=AXIS2_PLACEMENT_3D('',#444,#367,#368);
#302=AXIS2_PLACEMENT_3D('',#445,#369,#370);
#303=AXIS2_PLACEMENT_3D('',#447,#371,#372);
#304=AXIS2_PLACEMENT_3D('',#448,#373,#374);
#305=AXIS2_PLACEMENT_3D('',#449,#375,#376);
#306=AXIS2_PLACEMENT_3D('',#451,#377,#378);
#307=AXIS2_PLACEMENT_3D('',#452,#379,#380);
#308=AXIS2_PLACEMENT_3D('',#453,#381,#382);
#309=DIRECTION('',(0.,0.,1.));
#310=DIRECTION('',(1.,0.,0.));
#311=DIRECTION('',(0.,0.,1.));
#312=DIRECTION('',(1.,0.,0.));
#313=DIRECTION('',(0.,0.,1.));
#314=DIRECTION('',(1.,0.,0.));
#315=DIRECTION('',(0.,0.,1.));
#316=DIRECTION('',(1.,0.,0.));
#317=DIRECTION('',(0.,-1.,0.));
#318=DIRECTION('',(1.,0.,0.));
#319=DIRECTION('',(0.,-1.,0.));
#320=DIRECTION('',(-1.,0.,0.));
#321=DIRECTION('',(0.,-1.,0.));
#322=DIRECTION('',(0.,0.,1.));
#323=DIRECTION('',(1.,0.,0.));
#324=DIRECTION('',(0.,0.,1.));
#325=DIRECTION('',(1.,0.,0.));
#326=DIRECTION('',(0.,0.,1.));
#327=DIRECTION('',(-1.,0.,0.));
#328=DIRECTION('',(-0.707106781186548,0.,-0.707106781186548));
#329=DIRECTION('',(0.,0.,1.));
#330=DIRECTION('',(1.,0.,0.));
#331=DIRECTION('',(0.,-1.,0.));
#332=DIRECTION('',(0.,0.,-1.));
#333=DIRECTION('',(0.,1.,0.));
#334=DIRECTION('',(0.,0.707106781186547,-0.707106781186548));
#335=DIRECTION('',(0.,0.,1.));
#336=DIRECTION('',(0.,-1.,0.));
#337=DIRECTION('',(-1.,0.,0.));
#338=DIRECTION('',(0.,0.,1.));
#339=DIRECTION('',(1.,0.,0.));
#340=DIRECTION('',(0.,0.,1.));
#341=DIRECTION('',(-1.,0.,0.));
#342=DIRECTION('',(0.,1.,0.));
#343=DIRECTION('',(0.,0.,1.));
#344=DIRECTION('',(0.,0.,-1.));
#345=DIRECTION('',(-1.,0.,0.));
#346=DIRECTION('',(0.,1.,0.));
#347=DIRECTION('',(0.,0.,-1.));
#348=DIRECTION('',(-1.,0.,0.));
#349=DIRECTION('',(0.,-0.707106781186548,-0.707106781186548));
#350=DIRECTION('',(0.,-0.707106781186547,0.707106781186548));
#351=DIRECTION('',(1.,0.,0.));
#352=DIRECTION('',(0.,0.,-1.));
#353=DIRECTION('',(-0.707106781186548,0.,0.707106781186548));
#354=DIRECTION('',(-0.707106781186548,0.,-0.707106781186548));
#355=DIRECTION('',(-0.577350269189626,0.577350269189625,-0.577350269189626));
#356=DIRECTION('',(0.577350269189626,0.577350269189626,0.577350269189626));
#357=DIRECTION('',(0.707106781186548,0.,-0.707106781186548));
#358=DIRECTION('',(0.,1.,0.));
#359=DIRECTION('',(0.,-0.707106781186548,-0.707106781186547));
#360=DIRECTION('',(1.,0.,0.));
#361=DIRECTION('',(0.,0.707106781186547,-0.707106781186547));
#362=DIRECTION('',(-1.,0.,0.));
#363=DIRECTION('',(0.,0.,-1.));
#364=DIRECTION('',(1.,0.,0.));
#365=DIRECTION('',(0.,0.,-1.));
#366=DIRECTION('',(-1.,0.,0.));
#367=DIRECTION('',(0.,0.,-1.));
#368=DIRECTION('',(1.,0.,0.));
#369=DIRECTION('',(0.,0.,-1.));
#370=DIRECTION('',(1.,0.,0.));
#371=DIRECTION('',(0.,0.,-1.));
#372=DIRECTION('',(-1.,0.,0.));
#373=DIRECTION('',(0.,0.,-1.));
#374=DIRECTION('',(1.,0.,0.));
#375=DIRECTION('',(0.,0.,-1.));
#376=DIRECTION('',(1.,0.,0.));
#377=DIRECTION('',(0.,0.,-1.));
#378=DIRECTION('',(-1.,0.,0.));
#379=DIRECTION('',(0.,0.,-1.));
#380=DIRECTION('',(1.,0.,0.));
#381=DIRECTION('',(0.,0.,-1.));
#382=DIRECTION('',(1.,0.,0.));
#383=CARTESIAN_POINT('',(0.,0.,0.));
#384=CARTESIAN_POINT('',(91.4,104.9,98.1));
#385=CARTESIAN_POINT('',(100.,104.9,98.1));
#386=CARTESIAN_POINT('',(199.1,295.1,98.1));
#387=CARTESIAN_POINT('',(203.3,295.1,98.1));
#388=CARTESIAN_POINT('',(17.,141.1,98.1));
#389=CARTESIAN_POINT('',(12.3,134.13796006906,98.1));
#390=CARTESIAN_POINT('',(12.3,148.06203993094,98.1));
#391=CARTESIAN_POINT('',(12.3,215.75,98.1));
#392=CARTESIAN_POINT('',(12.3,3.5,98.1));
#393=CARTESIAN_POINT('',(186.55,3.5,98.1));
#394=CARTESIAN_POINT('',(373.1,3.5,98.1));
#395=CARTESIAN_POINT('',(373.1,215.75,98.1));
#396=CARTESIAN_POINT('',(373.1,414.2,98.1));
#397=CARTESIAN_POINT('',(186.55,414.2,98.1));
#398=CARTESIAN_POINT('',(12.3,414.2,98.1));
#399=CARTESIAN_POINT('',(12.3,215.75,98.1));
#400=CARTESIAN_POINT('',(95.3,149.,98.1));
#401=CARTESIAN_POINT('',(101.85,149.,98.1));
#402=CARTESIAN_POINT('',(186.55,215.75,98.1));
#403=CARTESIAN_POINT('',(373.1,0.,0.));
#404=CARTESIAN_POINT('',(373.1,0.,0.));
#405=CARTESIAN_POINT('',(373.1,0.,94.6));
#406=CARTESIAN_POINT('',(186.55,0.,94.6));
#407=CARTESIAN_POINT('',(8.80000000000002,0.,94.6));
#408=CARTESIAN_POINT('',(50.375,0.,136.175));
#409=CARTESIAN_POINT('',(0.,0.,85.8));
#410=CARTESIAN_POINT('',(0.,0.,0.));
#411=CARTESIAN_POINT('',(0.,0.,0.));
#412=CARTESIAN_POINT('',(186.55,0.,0.));
#413=CARTESIAN_POINT('',(186.55,0.,0.));
#414=CARTESIAN_POINT('',(0.,215.75,85.8));
#415=CARTESIAN_POINT('',(0.,426.5,85.8));
#416=CARTESIAN_POINT('',(0.,364.025,148.275));
#417=CARTESIAN_POINT('',(0.,431.5,80.8));
#418=CARTESIAN_POINT('',(0.,431.5,0.));
#419=CARTESIAN_POINT('',(0.,431.5,0.));
#420=CARTESIAN_POINT('',(0.,215.75,0.));
#421=CARTESIAN_POINT('',(0.,215.75,0.));
#422=CARTESIAN_POINT('',(186.55,431.5,80.8));
#423=CARTESIAN_POINT('',(373.1,431.5,80.8));
#424=CARTESIAN_POINT('',(373.1,431.5,0.));
#425=CARTESIAN_POINT('',(373.1,431.5,0.));
#426=CARTESIAN_POINT('',(186.55,431.5,0.));
#427=CARTESIAN_POINT('',(186.55,431.5,0.));
#428=CARTESIAN_POINT('',(91.4,104.9,0.));
#429=CARTESIAN_POINT('',(82.8,104.9,0.));
#430=CARTESIAN_POINT('',(373.1,215.75,0.));
#431=CARTESIAN_POINT('',(186.55,215.75,0.));
#432=CARTESIAN_POINT('',(373.1,60.575,155.175));
#433=CARTESIAN_POINT('',(373.1,364.025,148.275));
#434=CARTESIAN_POINT('',(373.1,215.75,0.));
#435=CARTESIAN_POINT('',(17.,141.1,102.8));
#436=CARTESIAN_POINT('',(70.25,356.25,156.05));
#437=CARTESIAN_POINT('',(74.85,66.05,160.65));
#438=CARTESIAN_POINT('',(0.,215.75,85.8));
#439=CARTESIAN_POINT('',(186.55,431.5,80.8));
#440=CARTESIAN_POINT('',(186.55,0.,94.6));
#441=CARTESIAN_POINT('',(95.3,149.,75.7));
#442=CARTESIAN_POINT('',(101.85,149.,75.7));
#443=CARTESIAN_POINT('',(95.3,149.,75.7));
#444=CARTESIAN_POINT('',(95.3,149.,98.15));
#445=CARTESIAN_POINT('',(17.,141.1,55.8));
#446=CARTESIAN_POINT('',(25.4,141.1,55.8));
#447=CARTESIAN_POINT('',(17.,141.1,55.8));
#448=CARTESIAN_POINT('',(17.,141.1,98.15));
#449=CARTESIAN_POINT('',(199.1,295.1,55.9));
#450=CARTESIAN_POINT('',(203.3,295.1,55.9));
#451=CARTESIAN_POINT('',(199.1,295.1,55.9));
#452=CARTESIAN_POINT('',(199.1,295.1,98.15));
#453=CARTESIAN_POINT('',(91.4,104.9,98.15));
#454=MECHANICAL_DESIGN_GEOMETRIC_PRESENTATION_REPRESENTATION('',(#24),#455);
#455=(
GEOMETRIC_REPRESENTATION_CONTEXT(3)
GLOBAL_UNCERTAINTY_ASSIGNED_CONTEXT((#456))
GLOBAL_UNIT_ASSIGNED_CONTEXT((#462,#458,#457))
REPRESENTATION_CONTEXT('featured_part_05571','TOP_LEVEL_ASSEMBLY_PART')
);
#456=UNCERTAINTY_MEASURE_WITH_UNIT(LENGTH_MEASURE(2.E-5),#462,
'DISTANCE_ACCURACY_VALUE','Maximum Tolerance applied to model');
#457=(
NAMED_UNIT(*)
SI_UNIT($,.STERADIAN.)
SOLID_ANGLE_UNIT()
);
#458=(
CONVERSION_BASED_UNIT('DEGREE',#460)
NAMED_UNIT(#459)
PLANE_ANGLE_UNIT()
);
#459=DIMENSIONAL_EXPONENTS(0.,0.,0.,0.,0.,0.,0.);
#460=PLANE_ANGLE_MEASURE_WITH_UNIT(PLANE_ANGLE_MEASURE(0.0174532925),#461);
#461=(
NAMED_UNIT(*)
PLANE_ANGLE_UNIT()
SI_UNIT($,.RADIAN.)
);
#462=(
LENGTH_UNIT()
NAMED_UNIT(*)
SI_UNIT(.MILLI.,.METRE.)
);
ENDSEC;
END-ISO-10303-21;
