ISO-10303-21;
HEADER;
/* Generated by software containing ST-Developer
 * from STEP Tools, Inc. (www.steptools.com) 
 */
/* OPTION: using custom schema-name function */

FILE_DESCRIPTION(
/* description */ (''),
/* implementation_level */ '2;1');

FILE_NAME(
/* name */ 'featured_part_02368.stp',
/* time_stamp */ '2026-07-13T13:40:51-04:00',
/* author */ (''),
/* organization */ (''),
/* preprocessor_version */ 'ST-DEVELOPER v20.1',
/* originating_system */ 'SIEMENS PLM Software NX2512.6002',
/* authorisation */ '');

FILE_SCHEMA (('AUTOMOTIVE_DESIGN { 1 0 10303 214 3 1 1 1 }'));
ENDSEC;

DATA;
#10=SHAPE_REPRESENTATION_RELATIONSHIP('None',
'relationship between featured_part_02368-None and featured_part_02368
-None',#22,#11);
#11=ADVANCED_BREP_SHAPE_REPRESENTATION('featured_part_02368-None',(#32),
#972);
#12=SHAPE_DEFINITION_REPRESENTATION(#13,#22);
#13=PRODUCT_DEFINITION_SHAPE('','',#14);
#14=PRODUCT_DEFINITION(' ','',#16,#15);
#15=PRODUCT_DEFINITION_CONTEXT('part definition',#21,'design');
#16=PRODUCT_DEFINITION_FORMATION_WITH_SPECIFIED_SOURCE(' ',' ',#18,
 .NOT_KNOWN.);
#17=PRODUCT_RELATED_PRODUCT_CATEGORY('part','',(#18));
#18=PRODUCT('featured_part_02368','featured_part_02368',' ',(#19));
#19=PRODUCT_CONTEXT(' ',#21,'mechanical');
#20=APPLICATION_PROTOCOL_DEFINITION('international standard',
'automotive_design',2010,#21);
#21=APPLICATION_CONTEXT(
'core data for automotive mechanical design processes');
#22=SHAPE_REPRESENTATION('featured_part_02368-None',(#599),#972);
#23=PRESENTATION_LAYER_ASSIGNMENT('1','Layer 1',(#32));
#24=STYLED_ITEM('',(#25),#32);
#25=PRESENTATION_STYLE_ASSIGNMENT((#26));
#26=SURFACE_STYLE_USAGE(.BOTH.,#27);
#27=SURFACE_SIDE_STYLE('',(#28));
#28=SURFACE_STYLE_FILL_AREA(#29);
#29=FILL_AREA_STYLE('',(#30));
#30=FILL_AREA_STYLE_COLOUR('',#31);
#31=COLOUR_RGB('medium steel',0.611764705882353,0.658823529411765,0.670588235294118);
#32=MANIFOLD_SOLID_BREP('',#33);
#33=CLOSED_SHELL('',(#73,#74,#75,#76,#77,#78,#79,#80,#81,#82,#83,#84,#85,
#86,#87,#88,#89,#90,#91,#92,#93,#94,#95,#96,#97,#98,#99,#100,#101,#102));
#34=CYLINDRICAL_SURFACE('',#623,12.4);
#35=CYLINDRICAL_SURFACE('',#634,9.3);
#36=CYLINDRICAL_SURFACE('',#635,9.3);
#37=CYLINDRICAL_SURFACE('',#636,9.3);
#38=CYLINDRICAL_SURFACE('',#637,9.3);
#39=CYLINDRICAL_SURFACE('',#644,4.3);
#40=CYLINDRICAL_SURFACE('',#645,4.3);
#41=CYLINDRICAL_SURFACE('',#646,6.75);
#42=CYLINDRICAL_SURFACE('',#647,6.75);
#43=FACE_BOUND('',#150,.T.);
#44=FACE_BOUND('',#151,.T.);
#45=FACE_BOUND('',#152,.T.);
#46=FACE_BOUND('',#156,.T.);
#47=FACE_BOUND('',#157,.T.);
#48=FACE_BOUND('',#158,.T.);
#49=FACE_BOUND('',#169,.T.);
#50=FACE_BOUND('',#170,.T.);
#51=FACE_BOUND('',#182,.T.);
#52=FACE_BOUND('',#183,.T.);
#53=FACE_BOUND('',#184,.T.);
#54=FACE_BOUND('',#185,.T.);
#55=CIRCLE('',#601,6.75);
#56=CIRCLE('',#602,12.4);
#57=CIRCLE('',#603,4.3);
#58=CIRCLE('',#604,4.3);
#59=CIRCLE('',#605,9.3);
#60=CIRCLE('',#606,9.3);
#61=CIRCLE('',#607,9.3);
#62=CIRCLE('',#608,9.3);
#63=CIRCLE('',#613,6.75);
#64=CIRCLE('',#614,6.75);
#65=CIRCLE('',#620,12.4);
#66=CIRCLE('',#627,6.75);
#67=CIRCLE('',#628,9.3);
#68=CIRCLE('',#629,9.3);
#69=CIRCLE('',#630,9.3);
#70=CIRCLE('',#631,9.3);
#71=CIRCLE('',#640,4.3);
#72=CIRCLE('',#641,4.3);
#73=ADVANCED_FACE('',(#124),#103,.F.);
#74=ADVANCED_FACE('',(#43,#44,#45),#104,.T.);
#75=ADVANCED_FACE('',(#125),#105,.T.);
#76=ADVANCED_FACE('',(#126),#106,.T.);
#77=ADVANCED_FACE('',(#127),#107,.T.);
#78=ADVANCED_FACE('',(#46,#47,#48),#108,.T.);
#79=ADVANCED_FACE('',(#128),#109,.T.);
#80=ADVANCED_FACE('',(#129),#110,.F.);
#81=ADVANCED_FACE('',(#130),#111,.F.);
#82=ADVANCED_FACE('',(#131),#112,.F.);
#83=ADVANCED_FACE('',(#132),#113,.F.);
#84=ADVANCED_FACE('',(#133),#114,.F.);
#85=ADVANCED_FACE('',(#134),#34,.F.);
#86=ADVANCED_FACE('',(#135),#115,.F.);
#87=ADVANCED_FACE('',(#136),#116,.F.);
#88=ADVANCED_FACE('',(#137),#117,.F.);
#89=ADVANCED_FACE('',(#49,#50),#118,.F.);
#90=ADVANCED_FACE('',(#138),#119,.F.);
#91=ADVANCED_FACE('',(#139),#35,.F.);
#92=ADVANCED_FACE('',(#140),#36,.F.);
#93=ADVANCED_FACE('',(#141),#37,.F.);
#94=ADVANCED_FACE('',(#142),#38,.F.);
#95=ADVANCED_FACE('',(#143),#120,.F.);
#96=ADVANCED_FACE('',(#144),#121,.F.);
#97=ADVANCED_FACE('',(#145),#122,.F.);
#98=ADVANCED_FACE('',(#146),#123,.F.);
#99=ADVANCED_FACE('',(#147),#39,.F.);
#100=ADVANCED_FACE('',(#148),#40,.F.);
#101=ADVANCED_FACE('',(#51,#52),#41,.F.);
#102=ADVANCED_FACE('',(#53,#54),#42,.F.);
#103=PLANE('',#600);
#104=PLANE('',#609);
#105=PLANE('',#610);
#106=PLANE('',#611);
#107=PLANE('',#612);
#108=PLANE('',#615);
#109=PLANE('',#616);
#110=PLANE('',#617);
#111=PLANE('',#618);
#112=PLANE('',#619);
#113=PLANE('',#621);
#114=PLANE('',#622);
#115=PLANE('',#624);
#116=PLANE('',#625);
#117=PLANE('',#626);
#118=PLANE('',#632);
#119=PLANE('',#633);
#120=PLANE('',#638);
#121=PLANE('',#639);
#122=PLANE('',#642);
#123=PLANE('',#643);
#124=FACE_OUTER_BOUND('',#149,.T.);
#125=FACE_OUTER_BOUND('',#153,.T.);
#126=FACE_OUTER_BOUND('',#154,.T.);
#127=FACE_OUTER_BOUND('',#155,.T.);
#128=FACE_OUTER_BOUND('',#159,.T.);
#129=FACE_OUTER_BOUND('',#160,.T.);
#130=FACE_OUTER_BOUND('',#161,.T.);
#131=FACE_OUTER_BOUND('',#162,.T.);
#132=FACE_OUTER_BOUND('',#163,.T.);
#133=FACE_OUTER_BOUND('',#164,.T.);
#134=FACE_OUTER_BOUND('',#165,.T.);
#135=FACE_OUTER_BOUND('',#166,.T.);
#136=FACE_OUTER_BOUND('',#167,.T.);
#137=FACE_OUTER_BOUND('',#168,.T.);
#138=FACE_OUTER_BOUND('',#171,.T.);
#139=FACE_OUTER_BOUND('',#172,.T.);
#140=FACE_OUTER_BOUND('',#173,.T.);
#141=FACE_OUTER_BOUND('',#174,.T.);
#142=FACE_OUTER_BOUND('',#175,.T.);
#143=FACE_OUTER_BOUND('',#176,.T.);
#144=FACE_OUTER_BOUND('',#177,.T.);
#145=FACE_OUTER_BOUND('',#178,.T.);
#146=FACE_OUTER_BOUND('',#179,.T.);
#147=FACE_OUTER_BOUND('',#180,.T.);
#148=FACE_OUTER_BOUND('',#181,.T.);
#149=EDGE_LOOP('',(#186,#187,#188,#189));
#150=EDGE_LOOP('',(#190));
#151=EDGE_LOOP('',(#191,#192,#193,#194,#195,#196,#197,#198,#199,#200,#201,
#202,#203));
#152=EDGE_LOOP('',(#204,#205,#206,#207,#208,#209,#210,#211));
#153=EDGE_LOOP('',(#212,#213,#214,#215,#216));
#154=EDGE_LOOP('',(#217,#218,#219,#220,#221,#222,#223,#224));
#155=EDGE_LOOP('',(#225,#226,#227,#228,#229,#230,#231));
#156=EDGE_LOOP('',(#232));
#157=EDGE_LOOP('',(#233));
#158=EDGE_LOOP('',(#234,#235,#236,#237));
#159=EDGE_LOOP('',(#238,#239,#240,#241,#242));
#160=EDGE_LOOP('',(#243,#244,#245,#246));
#161=EDGE_LOOP('',(#247,#248,#249,#250,#251,#252));
#162=EDGE_LOOP('',(#253,#254,#255,#256));
#163=EDGE_LOOP('',(#257,#258,#259,#260,#261));
#164=EDGE_LOOP('',(#262,#263,#264,#265,#266));
#165=EDGE_LOOP('',(#267,#268,#269,#270));
#166=EDGE_LOOP('',(#271,#272,#273,#274));
#167=EDGE_LOOP('',(#275,#276,#277,#278));
#168=EDGE_LOOP('',(#279,#280,#281,#282));
#169=EDGE_LOOP('',(#283));
#170=EDGE_LOOP('',(#284,#285,#286,#287,#288,#289,#290,#291));
#171=EDGE_LOOP('',(#292,#293,#294,#295));
#172=EDGE_LOOP('',(#296,#297,#298,#299));
#173=EDGE_LOOP('',(#300,#301,#302,#303));
#174=EDGE_LOOP('',(#304,#305,#306,#307));
#175=EDGE_LOOP('',(#308,#309,#310,#311));
#176=EDGE_LOOP('',(#312,#313,#314,#315,#316));
#177=EDGE_LOOP('',(#317,#318,#319,#320,#321));
#178=EDGE_LOOP('',(#322,#323,#324,#325,#326,#327));
#179=EDGE_LOOP('',(#328,#329,#330,#331));
#180=EDGE_LOOP('',(#332,#333,#334,#335));
#181=EDGE_LOOP('',(#336,#337,#338,#339));
#182=EDGE_LOOP('',(#340));
#183=EDGE_LOOP('',(#341));
#184=EDGE_LOOP('',(#342));
#185=EDGE_LOOP('',(#343));
#186=ORIENTED_EDGE('',*,*,#398,.F.);
#187=ORIENTED_EDGE('',*,*,#399,.F.);
#188=ORIENTED_EDGE('',*,*,#400,.F.);
#189=ORIENTED_EDGE('',*,*,#401,.F.);
#190=ORIENTED_EDGE('',*,*,#402,.F.);
#191=ORIENTED_EDGE('',*,*,#403,.F.);
#192=ORIENTED_EDGE('',*,*,#401,.T.);
#193=ORIENTED_EDGE('',*,*,#404,.F.);
#194=ORIENTED_EDGE('',*,*,#405,.F.);
#195=ORIENTED_EDGE('',*,*,#406,.T.);
#196=ORIENTED_EDGE('',*,*,#407,.F.);
#197=ORIENTED_EDGE('',*,*,#408,.T.);
#198=ORIENTED_EDGE('',*,*,#409,.F.);
#199=ORIENTED_EDGE('',*,*,#410,.T.);
#200=ORIENTED_EDGE('',*,*,#411,.F.);
#201=ORIENTED_EDGE('',*,*,#412,.T.);
#202=ORIENTED_EDGE('',*,*,#413,.F.);
#203=ORIENTED_EDGE('',*,*,#414,.T.);
#204=ORIENTED_EDGE('',*,*,#415,.F.);
#205=ORIENTED_EDGE('',*,*,#416,.T.);
#206=ORIENTED_EDGE('',*,*,#417,.F.);
#207=ORIENTED_EDGE('',*,*,#418,.T.);
#208=ORIENTED_EDGE('',*,*,#419,.F.);
#209=ORIENTED_EDGE('',*,*,#420,.T.);
#210=ORIENTED_EDGE('',*,*,#421,.F.);
#211=ORIENTED_EDGE('',*,*,#422,.T.);
#212=ORIENTED_EDGE('',*,*,#404,.T.);
#213=ORIENTED_EDGE('',*,*,#400,.T.);
#214=ORIENTED_EDGE('',*,*,#423,.F.);
#215=ORIENTED_EDGE('',*,*,#424,.T.);
#216=ORIENTED_EDGE('',*,*,#425,.T.);
#217=ORIENTED_EDGE('',*,*,#426,.F.);
#218=ORIENTED_EDGE('',*,*,#427,.F.);
#219=ORIENTED_EDGE('',*,*,#428,.T.);
#220=ORIENTED_EDGE('',*,*,#429,.T.);
#221=ORIENTED_EDGE('',*,*,#430,.F.);
#222=ORIENTED_EDGE('',*,*,#431,.T.);
#223=ORIENTED_EDGE('',*,*,#423,.T.);
#224=ORIENTED_EDGE('',*,*,#399,.T.);
#225=ORIENTED_EDGE('',*,*,#432,.F.);
#226=ORIENTED_EDGE('',*,*,#433,.T.);
#227=ORIENTED_EDGE('',*,*,#434,.T.);
#228=ORIENTED_EDGE('',*,*,#435,.F.);
#229=ORIENTED_EDGE('',*,*,#436,.T.);
#230=ORIENTED_EDGE('',*,*,#430,.T.);
#231=ORIENTED_EDGE('',*,*,#437,.T.);
#232=ORIENTED_EDGE('',*,*,#438,.F.);
#233=ORIENTED_EDGE('',*,*,#439,.F.);
#234=ORIENTED_EDGE('',*,*,#440,.F.);
#235=ORIENTED_EDGE('',*,*,#424,.F.);
#236=ORIENTED_EDGE('',*,*,#431,.F.);
#237=ORIENTED_EDGE('',*,*,#436,.F.);
#238=ORIENTED_EDGE('',*,*,#435,.T.);
#239=ORIENTED_EDGE('',*,*,#441,.T.);
#240=ORIENTED_EDGE('',*,*,#405,.T.);
#241=ORIENTED_EDGE('',*,*,#425,.F.);
#242=ORIENTED_EDGE('',*,*,#440,.T.);
#243=ORIENTED_EDGE('',*,*,#442,.F.);
#244=ORIENTED_EDGE('',*,*,#406,.F.);
#245=ORIENTED_EDGE('',*,*,#441,.F.);
#246=ORIENTED_EDGE('',*,*,#434,.F.);
#247=ORIENTED_EDGE('',*,*,#443,.F.);
#248=ORIENTED_EDGE('',*,*,#410,.F.);
#249=ORIENTED_EDGE('',*,*,#444,.F.);
#250=ORIENTED_EDGE('',*,*,#445,.F.);
#251=ORIENTED_EDGE('',*,*,#437,.F.);
#252=ORIENTED_EDGE('',*,*,#429,.F.);
#253=ORIENTED_EDGE('',*,*,#409,.T.);
#254=ORIENTED_EDGE('',*,*,#446,.T.);
#255=ORIENTED_EDGE('',*,*,#447,.T.);
#256=ORIENTED_EDGE('',*,*,#444,.T.);
#257=ORIENTED_EDGE('',*,*,#447,.F.);
#258=ORIENTED_EDGE('',*,*,#448,.T.);
#259=ORIENTED_EDGE('',*,*,#449,.F.);
#260=ORIENTED_EDGE('',*,*,#432,.T.);
#261=ORIENTED_EDGE('',*,*,#445,.T.);
#262=ORIENTED_EDGE('',*,*,#449,.T.);
#263=ORIENTED_EDGE('',*,*,#450,.T.);
#264=ORIENTED_EDGE('',*,*,#407,.T.);
#265=ORIENTED_EDGE('',*,*,#442,.T.);
#266=ORIENTED_EDGE('',*,*,#433,.F.);
#267=ORIENTED_EDGE('',*,*,#408,.F.);
#268=ORIENTED_EDGE('',*,*,#450,.F.);
#269=ORIENTED_EDGE('',*,*,#448,.F.);
#270=ORIENTED_EDGE('',*,*,#446,.F.);
#271=ORIENTED_EDGE('',*,*,#415,.T.);
#272=ORIENTED_EDGE('',*,*,#451,.T.);
#273=ORIENTED_EDGE('',*,*,#452,.T.);
#274=ORIENTED_EDGE('',*,*,#453,.T.);
#275=ORIENTED_EDGE('',*,*,#454,.T.);
#276=ORIENTED_EDGE('',*,*,#455,.T.);
#277=ORIENTED_EDGE('',*,*,#417,.T.);
#278=ORIENTED_EDGE('',*,*,#456,.T.);
#279=ORIENTED_EDGE('',*,*,#419,.T.);
#280=ORIENTED_EDGE('',*,*,#457,.T.);
#281=ORIENTED_EDGE('',*,*,#458,.T.);
#282=ORIENTED_EDGE('',*,*,#459,.T.);
#283=ORIENTED_EDGE('',*,*,#460,.T.);
#284=ORIENTED_EDGE('',*,*,#452,.F.);
#285=ORIENTED_EDGE('',*,*,#461,.T.);
#286=ORIENTED_EDGE('',*,*,#462,.F.);
#287=ORIENTED_EDGE('',*,*,#463,.T.);
#288=ORIENTED_EDGE('',*,*,#458,.F.);
#289=ORIENTED_EDGE('',*,*,#464,.T.);
#290=ORIENTED_EDGE('',*,*,#454,.F.);
#291=ORIENTED_EDGE('',*,*,#465,.T.);
#292=ORIENTED_EDGE('',*,*,#462,.T.);
#293=ORIENTED_EDGE('',*,*,#466,.T.);
#294=ORIENTED_EDGE('',*,*,#421,.T.);
#295=ORIENTED_EDGE('',*,*,#467,.T.);
#296=ORIENTED_EDGE('',*,*,#422,.F.);
#297=ORIENTED_EDGE('',*,*,#466,.F.);
#298=ORIENTED_EDGE('',*,*,#461,.F.);
#299=ORIENTED_EDGE('',*,*,#451,.F.);
#300=ORIENTED_EDGE('',*,*,#418,.F.);
#301=ORIENTED_EDGE('',*,*,#455,.F.);
#302=ORIENTED_EDGE('',*,*,#464,.F.);
#303=ORIENTED_EDGE('',*,*,#457,.F.);
#304=ORIENTED_EDGE('',*,*,#416,.F.);
#305=ORIENTED_EDGE('',*,*,#453,.F.);
#306=ORIENTED_EDGE('',*,*,#465,.F.);
#307=ORIENTED_EDGE('',*,*,#456,.F.);
#308=ORIENTED_EDGE('',*,*,#420,.F.);
#309=ORIENTED_EDGE('',*,*,#459,.F.);
#310=ORIENTED_EDGE('',*,*,#463,.F.);
#311=ORIENTED_EDGE('',*,*,#467,.F.);
#312=ORIENTED_EDGE('',*,*,#403,.T.);
#313=ORIENTED_EDGE('',*,*,#468,.T.);
#314=ORIENTED_EDGE('',*,*,#469,.T.);
#315=ORIENTED_EDGE('',*,*,#426,.T.);
#316=ORIENTED_EDGE('',*,*,#398,.T.);
#317=ORIENTED_EDGE('',*,*,#470,.T.);
#318=ORIENTED_EDGE('',*,*,#471,.T.);
#319=ORIENTED_EDGE('',*,*,#411,.T.);
#320=ORIENTED_EDGE('',*,*,#443,.T.);
#321=ORIENTED_EDGE('',*,*,#428,.F.);
#322=ORIENTED_EDGE('',*,*,#472,.F.);
#323=ORIENTED_EDGE('',*,*,#473,.T.);
#324=ORIENTED_EDGE('',*,*,#470,.F.);
#325=ORIENTED_EDGE('',*,*,#427,.T.);
#326=ORIENTED_EDGE('',*,*,#469,.F.);
#327=ORIENTED_EDGE('',*,*,#474,.T.);
#328=ORIENTED_EDGE('',*,*,#413,.T.);
#329=ORIENTED_EDGE('',*,*,#475,.T.);
#330=ORIENTED_EDGE('',*,*,#472,.T.);
#331=ORIENTED_EDGE('',*,*,#476,.T.);
#332=ORIENTED_EDGE('',*,*,#412,.F.);
#333=ORIENTED_EDGE('',*,*,#471,.F.);
#334=ORIENTED_EDGE('',*,*,#473,.F.);
#335=ORIENTED_EDGE('',*,*,#475,.F.);
#336=ORIENTED_EDGE('',*,*,#414,.F.);
#337=ORIENTED_EDGE('',*,*,#476,.F.);
#338=ORIENTED_EDGE('',*,*,#474,.F.);
#339=ORIENTED_EDGE('',*,*,#468,.F.);
#340=ORIENTED_EDGE('',*,*,#402,.T.);
#341=ORIENTED_EDGE('',*,*,#439,.T.);
#342=ORIENTED_EDGE('',*,*,#438,.T.);
#343=ORIENTED_EDGE('',*,*,#460,.F.);
#344=VERTEX_POINT('',#809);
#345=VERTEX_POINT('',#810);
#346=VERTEX_POINT('',#812);
#347=VERTEX_POINT('',#814);
#348=VERTEX_POINT('',#818);
#349=VERTEX_POINT('',#820);
#350=VERTEX_POINT('',#822);
#351=VERTEX_POINT('',#824);
#352=VERTEX_POINT('',#826);
#353=VERTEX_POINT('',#828);
#354=VERTEX_POINT('',#830);
#355=VERTEX_POINT('',#832);
#356=VERTEX_POINT('',#834);
#357=VERTEX_POINT('',#836);
#358=VERTEX_POINT('',#838);
#359=VERTEX_POINT('',#840);
#360=VERTEX_POINT('',#843);
#361=VERTEX_POINT('',#844);
#362=VERTEX_POINT('',#846);
#363=VERTEX_POINT('',#848);
#364=VERTEX_POINT('',#850);
#365=VERTEX_POINT('',#852);
#366=VERTEX_POINT('',#854);
#367=VERTEX_POINT('',#856);
#368=VERTEX_POINT('',#860);
#369=VERTEX_POINT('',#862);
#370=VERTEX_POINT('',#866);
#371=VERTEX_POINT('',#868);
#372=VERTEX_POINT('',#870);
#373=VERTEX_POINT('',#872);
#374=VERTEX_POINT('',#874);
#375=VERTEX_POINT('',#878);
#376=VERTEX_POINT('',#879);
#377=VERTEX_POINT('',#881);
#378=VERTEX_POINT('',#883);
#379=VERTEX_POINT('',#885);
#380=VERTEX_POINT('',#890);
#381=VERTEX_POINT('',#892);
#382=VERTEX_POINT('',#901);
#383=VERTEX_POINT('',#905);
#384=VERTEX_POINT('',#909);
#385=VERTEX_POINT('',#916);
#386=VERTEX_POINT('',#918);
#387=VERTEX_POINT('',#922);
#388=VERTEX_POINT('',#923);
#389=VERTEX_POINT('',#928);
#390=VERTEX_POINT('',#930);
#391=VERTEX_POINT('',#934);
#392=VERTEX_POINT('',#936);
#393=VERTEX_POINT('',#938);
#394=VERTEX_POINT('',#951);
#395=VERTEX_POINT('',#955);
#396=VERTEX_POINT('',#959);
#397=VERTEX_POINT('',#960);
#398=EDGE_CURVE('',#344,#345,#477,.T.);
#399=EDGE_CURVE('',#346,#344,#478,.T.);
#400=EDGE_CURVE('',#347,#346,#479,.T.);
#401=EDGE_CURVE('',#345,#347,#480,.T.);
#402=EDGE_CURVE('',#348,#348,#55,.T.);
#403=EDGE_CURVE('',#345,#349,#481,.T.);
#404=EDGE_CURVE('',#350,#347,#482,.T.);
#405=EDGE_CURVE('',#351,#350,#483,.T.);
#406=EDGE_CURVE('',#351,#352,#484,.T.);
#407=EDGE_CURVE('',#353,#352,#485,.T.);
#408=EDGE_CURVE('',#353,#354,#56,.T.);
#409=EDGE_CURVE('',#355,#354,#486,.T.);
#410=EDGE_CURVE('',#355,#356,#487,.T.);
#411=EDGE_CURVE('',#357,#356,#488,.T.);
#412=EDGE_CURVE('',#357,#358,#57,.T.);
#413=EDGE_CURVE('',#359,#358,#489,.T.);
#414=EDGE_CURVE('',#359,#349,#58,.T.);
#415=EDGE_CURVE('',#360,#361,#490,.T.);
#416=EDGE_CURVE('',#360,#362,#59,.T.);
#417=EDGE_CURVE('',#363,#362,#491,.T.);
#418=EDGE_CURVE('',#363,#364,#60,.T.);
#419=EDGE_CURVE('',#365,#364,#492,.T.);
#420=EDGE_CURVE('',#365,#366,#61,.T.);
#421=EDGE_CURVE('',#367,#366,#493,.T.);
#422=EDGE_CURVE('',#367,#361,#62,.T.);
#423=EDGE_CURVE('',#368,#346,#494,.T.);
#424=EDGE_CURVE('',#368,#369,#495,.T.);
#425=EDGE_CURVE('',#369,#350,#496,.T.);
#426=EDGE_CURVE('',#370,#344,#497,.T.);
#427=EDGE_CURVE('',#371,#370,#498,.T.);
#428=EDGE_CURVE('',#371,#372,#499,.T.);
#429=EDGE_CURVE('',#372,#373,#500,.T.);
#430=EDGE_CURVE('',#374,#373,#501,.T.);
#431=EDGE_CURVE('',#374,#368,#502,.T.);
#432=EDGE_CURVE('',#375,#376,#503,.T.);
#433=EDGE_CURVE('',#375,#377,#504,.T.);
#434=EDGE_CURVE('',#377,#378,#505,.T.);
#435=EDGE_CURVE('',#379,#378,#506,.T.);
#436=EDGE_CURVE('',#379,#374,#507,.T.);
#437=EDGE_CURVE('',#373,#376,#508,.T.);
#438=EDGE_CURVE('',#380,#380,#63,.T.);
#439=EDGE_CURVE('',#381,#381,#64,.T.);
#440=EDGE_CURVE('',#369,#379,#509,.T.);
#441=EDGE_CURVE('',#378,#351,#510,.T.);
#442=EDGE_CURVE('',#352,#377,#511,.T.);
#443=EDGE_CURVE('',#356,#372,#512,.T.);
#444=EDGE_CURVE('',#382,#355,#513,.T.);
#445=EDGE_CURVE('',#376,#382,#514,.T.);
#446=EDGE_CURVE('',#354,#383,#515,.T.);
#447=EDGE_CURVE('',#383,#382,#516,.T.);
#448=EDGE_CURVE('',#383,#384,#65,.T.);
#449=EDGE_CURVE('',#375,#384,#517,.T.);
#450=EDGE_CURVE('',#384,#353,#518,.T.);
#451=EDGE_CURVE('',#361,#385,#519,.T.);
#452=EDGE_CURVE('',#385,#386,#520,.T.);
#453=EDGE_CURVE('',#386,#360,#521,.T.);
#454=EDGE_CURVE('',#387,#388,#522,.T.);
#455=EDGE_CURVE('',#388,#363,#523,.T.);
#456=EDGE_CURVE('',#362,#387,#524,.T.);
#457=EDGE_CURVE('',#364,#389,#525,.T.);
#458=EDGE_CURVE('',#389,#390,#526,.T.);
#459=EDGE_CURVE('',#390,#365,#527,.T.);
#460=EDGE_CURVE('',#391,#391,#66,.T.);
#461=EDGE_CURVE('',#385,#392,#67,.T.);
#462=EDGE_CURVE('',#393,#392,#528,.T.);
#463=EDGE_CURVE('',#393,#390,#68,.T.);
#464=EDGE_CURVE('',#389,#388,#69,.T.);
#465=EDGE_CURVE('',#387,#386,#70,.T.);
#466=EDGE_CURVE('',#392,#367,#529,.T.);
#467=EDGE_CURVE('',#366,#393,#530,.T.);
#468=EDGE_CURVE('',#349,#394,#531,.T.);
#469=EDGE_CURVE('',#394,#370,#532,.T.);
#470=EDGE_CURVE('',#371,#395,#533,.T.);
#471=EDGE_CURVE('',#395,#357,#534,.T.);
#472=EDGE_CURVE('',#396,#397,#535,.T.);
#473=EDGE_CURVE('',#396,#395,#71,.T.);
#474=EDGE_CURVE('',#394,#397,#72,.T.);
#475=EDGE_CURVE('',#358,#396,#536,.T.);
#476=EDGE_CURVE('',#397,#359,#537,.T.);
#477=LINE('',#808,#538);
#478=LINE('',#811,#539);
#479=LINE('',#813,#540);
#480=LINE('',#815,#541);
#481=LINE('',#819,#542);
#482=LINE('',#821,#543);
#483=LINE('',#823,#544);
#484=LINE('',#825,#545);
#485=LINE('',#827,#546);
#486=LINE('',#831,#547);
#487=LINE('',#833,#548);
#488=LINE('',#835,#549);
#489=LINE('',#839,#550);
#490=LINE('',#842,#551);
#491=LINE('',#847,#552);
#492=LINE('',#851,#553);
#493=LINE('',#855,#554);
#494=LINE('',#859,#555);
#495=LINE('',#861,#556);
#496=LINE('',#863,#557);
#497=LINE('',#865,#558);
#498=LINE('',#867,#559);
#499=LINE('',#869,#560);
#500=LINE('',#871,#561);
#501=LINE('',#873,#562);
#502=LINE('',#875,#563);
#503=LINE('',#877,#564);
#504=LINE('',#880,#565);
#505=LINE('',#882,#566);
#506=LINE('',#884,#567);
#507=LINE('',#886,#568);
#508=LINE('',#887,#569);
#509=LINE('',#893,#570);
#510=LINE('',#895,#571);
#511=LINE('',#897,#572);
#512=LINE('',#899,#573);
#513=LINE('',#900,#574);
#514=LINE('',#902,#575);
#515=LINE('',#904,#576);
#516=LINE('',#906,#577);
#517=LINE('',#910,#578);
#518=LINE('',#912,#579);
#519=LINE('',#915,#580);
#520=LINE('',#917,#581);
#521=LINE('',#919,#582);
#522=LINE('',#921,#583);
#523=LINE('',#924,#584);
#524=LINE('',#925,#585);
#525=LINE('',#927,#586);
#526=LINE('',#929,#587);
#527=LINE('',#931,#588);
#528=LINE('',#937,#589);
#529=LINE('',#943,#590);
#530=LINE('',#944,#591);
#531=LINE('',#950,#592);
#532=LINE('',#952,#593);
#533=LINE('',#954,#594);
#534=LINE('',#956,#595);
#535=LINE('',#958,#596);
#536=LINE('',#964,#597);
#537=LINE('',#965,#598);
#538=VECTOR('',#650,1.);
#539=VECTOR('',#651,1.);
#540=VECTOR('',#652,1.);
#541=VECTOR('',#653,1.);
#542=VECTOR('',#658,1.);
#543=VECTOR('',#659,1.);
#544=VECTOR('',#660,1.);
#545=VECTOR('',#661,1.);
#546=VECTOR('',#662,1.);
#547=VECTOR('',#665,1.);
#548=VECTOR('',#666,1.);
#549=VECTOR('',#667,1.);
#550=VECTOR('',#670,1.);
#551=VECTOR('',#673,1.);
#552=VECTOR('',#676,1.);
#553=VECTOR('',#679,1.);
#554=VECTOR('',#682,1.);
#555=VECTOR('',#687,1.);
#556=VECTOR('',#688,1.);
#557=VECTOR('',#689,1.);
#558=VECTOR('',#692,1.);
#559=VECTOR('',#693,1.);
#560=VECTOR('',#694,1.);
#561=VECTOR('',#695,1.);
#562=VECTOR('',#696,1.);
#563=VECTOR('',#697,1.);
#564=VECTOR('',#700,1.);
#565=VECTOR('',#701,1.);
#566=VECTOR('',#702,1.);
#567=VECTOR('',#703,1.);
#568=VECTOR('',#704,1.);
#569=VECTOR('',#705,1.);
#570=VECTOR('',#712,1.);
#571=VECTOR('',#715,1.);
#572=VECTOR('',#718,1.);
#573=VECTOR('',#721,1.);
#574=VECTOR('',#722,1.);
#575=VECTOR('',#723,1.);
#576=VECTOR('',#726,1.);
#577=VECTOR('',#727,1.);
#578=VECTOR('',#732,1.);
#579=VECTOR('',#735,1.);
#580=VECTOR('',#740,1.);
#581=VECTOR('',#741,1.);
#582=VECTOR('',#742,1.);
#583=VECTOR('',#745,1.);
#584=VECTOR('',#746,1.);
#585=VECTOR('',#747,1.);
#586=VECTOR('',#750,1.);
#587=VECTOR('',#751,1.);
#588=VECTOR('',#752,1.);
#589=VECTOR('',#759,1.);
#590=VECTOR('',#768,1.);
#591=VECTOR('',#769,1.);
#592=VECTOR('',#780,1.);
#593=VECTOR('',#781,1.);
#594=VECTOR('',#784,1.);
#595=VECTOR('',#785,1.);
#596=VECTOR('',#788,1.);
#597=VECTOR('',#795,1.);
#598=VECTOR('',#796,1.);
#599=AXIS2_PLACEMENT_3D('',#807,#648,#649);
#600=AXIS2_PLACEMENT_3D('',#816,#654,#655);
#601=AXIS2_PLACEMENT_3D('',#817,#656,#657);
#602=AXIS2_PLACEMENT_3D('',#829,#663,#664);
#603=AXIS2_PLACEMENT_3D('',#837,#668,#669);
#604=AXIS2_PLACEMENT_3D('',#841,#671,#672);
#605=AXIS2_PLACEMENT_3D('',#845,#674,#675);
#606=AXIS2_PLACEMENT_3D('',#849,#677,#678);
#607=AXIS2_PLACEMENT_3D('',#853,#680,#681);
#608=AXIS2_PLACEMENT_3D('',#857,#683,#684);
#609=AXIS2_PLACEMENT_3D('',#858,#685,#686);
#610=AXIS2_PLACEMENT_3D('',#864,#690,#691);
#611=AXIS2_PLACEMENT_3D('',#876,#698,#699);
#612=AXIS2_PLACEMENT_3D('',#888,#706,#707);
#613=AXIS2_PLACEMENT_3D('',#889,#708,#709);
#614=AXIS2_PLACEMENT_3D('',#891,#710,#711);
#615=AXIS2_PLACEMENT_3D('',#894,#713,#714);
#616=AXIS2_PLACEMENT_3D('',#896,#716,#717);
#617=AXIS2_PLACEMENT_3D('',#898,#719,#720);
#618=AXIS2_PLACEMENT_3D('',#903,#724,#725);
#619=AXIS2_PLACEMENT_3D('',#907,#728,#729);
#620=AXIS2_PLACEMENT_3D('',#908,#730,#731);
#621=AXIS2_PLACEMENT_3D('',#911,#733,#734);
#622=AXIS2_PLACEMENT_3D('',#913,#736,#737);
#623=AXIS2_PLACEMENT_3D('',#914,#738,#739);
#624=AXIS2_PLACEMENT_3D('',#920,#743,#744);
#625=AXIS2_PLACEMENT_3D('',#926,#748,#749);
#626=AXIS2_PLACEMENT_3D('',#932,#753,#754);
#627=AXIS2_PLACEMENT_3D('',#933,#755,#756);
#628=AXIS2_PLACEMENT_3D('',#935,#757,#758);
#629=AXIS2_PLACEMENT_3D('',#939,#760,#761);
#630=AXIS2_PLACEMENT_3D('',#940,#762,#763);
#631=AXIS2_PLACEMENT_3D('',#941,#764,#765);
#632=AXIS2_PLACEMENT_3D('',#942,#766,#767);
#633=AXIS2_PLACEMENT_3D('',#945,#770,#771);
#634=AXIS2_PLACEMENT_3D('',#946,#772,#773);
#635=AXIS2_PLACEMENT_3D('',#947,#774,#775);
#636=AXIS2_PLACEMENT_3D('',#948,#776,#777);
#637=AXIS2_PLACEMENT_3D('',#949,#778,#779);
#638=AXIS2_PLACEMENT_3D('',#953,#782,#783);
#639=AXIS2_PLACEMENT_3D('',#957,#786,#787);
#640=AXIS2_PLACEMENT_3D('',#961,#789,#790);
#641=AXIS2_PLACEMENT_3D('',#962,#791,#792);
#642=AXIS2_PLACEMENT_3D('',#963,#793,#794);
#643=AXIS2_PLACEMENT_3D('',#966,#797,#798);
#644=AXIS2_PLACEMENT_3D('',#967,#799,#800);
#645=AXIS2_PLACEMENT_3D('',#968,#801,#802);
#646=AXIS2_PLACEMENT_3D('',#969,#803,#804);
#647=AXIS2_PLACEMENT_3D('',#970,#805,#806);
#648=DIRECTION('',(0.,0.,1.));
#649=DIRECTION('',(1.,0.,0.));
#650=DIRECTION('',(0.707106781186548,0.,0.707106781186548));
#651=DIRECTION('',(0.,1.,0.));
#652=DIRECTION('',(-0.707106781186548,0.,-0.707106781186548));
#653=DIRECTION('',(0.,-1.,0.));
#654=DIRECTION('',(0.707106781186548,0.,-0.707106781186548));
#655=DIRECTION('',(0.,1.,0.));
#656=DIRECTION('',(0.,0.,1.));
#657=DIRECTION('',(1.,0.,0.));
#658=DIRECTION('',(1.,0.,0.));
#659=DIRECTION('',(-1.,0.,0.));
#660=DIRECTION('',(0.,-1.,0.));
#661=DIRECTION('',(-1.,0.,0.));
#662=DIRECTION('',(0.,1.,0.));
#663=DIRECTION('',(0.,0.,-1.));
#664=DIRECTION('',(0.999999999999999,0.,0.));
#665=DIRECTION('',(1.,0.,0.));
#666=DIRECTION('',(0.,-1.,0.));
#667=DIRECTION('',(-1.,0.,0.));
#668=DIRECTION('',(0.,0.,-1.));
#669=DIRECTION('',(1.,0.,0.));
#670=DIRECTION('',(0.,1.,0.));
#671=DIRECTION('',(0.,0.,-1.));
#672=DIRECTION('',(1.,0.,0.));
#673=DIRECTION('',(1.,0.,0.));
#674=DIRECTION('',(0.,0.,-1.));
#675=DIRECTION('',(1.,0.,0.));
#676=DIRECTION('',(0.,-1.,0.));
#677=DIRECTION('',(0.,0.,-1.));
#678=DIRECTION('',(1.,0.,0.));
#679=DIRECTION('',(-1.,0.,0.));
#680=DIRECTION('',(0.,0.,-1.));
#681=DIRECTION('',(0.999999999999997,0.,0.));
#682=DIRECTION('',(0.,1.,0.));
#683=DIRECTION('',(0.,0.,-1.));
#684=DIRECTION('',(0.999999999999997,0.,0.));
#685=DIRECTION('',(0.,0.,1.));
#686=DIRECTION('',(1.,0.,0.));
#687=DIRECTION('',(0.,0.,1.));
#688=DIRECTION('',(1.,0.,0.));
#689=DIRECTION('',(0.,0.,1.));
#690=DIRECTION('',(0.,-1.,0.));
#691=DIRECTION('',(0.,0.,-1.));
#692=DIRECTION('',(0.,0.,1.));
#693=DIRECTION('',(0.,-1.,0.));
#694=DIRECTION('',(0.,0.,1.));
#695=DIRECTION('',(0.,1.,0.));
#696=DIRECTION('',(0.,0.,1.));
#697=DIRECTION('',(0.,-1.,0.));
#698=DIRECTION('',(-1.,0.,0.));
#699=DIRECTION('',(0.,0.,1.));
#700=DIRECTION('',(-1.,0.,0.));
#701=DIRECTION('',(0.,0.,1.));
#702=DIRECTION('',(1.,0.,0.));
#703=DIRECTION('',(0.,0.,1.));
#704=DIRECTION('',(-1.,0.,0.));
#705=DIRECTION('',(0.707106781186548,0.,0.707106781186548));
#706=DIRECTION('',(0.,1.,0.));
#707=DIRECTION('',(0.,0.,1.));
#708=DIRECTION('',(0.,0.,-1.));
#709=DIRECTION('',(-1.,0.,0.));
#710=DIRECTION('',(0.,0.,-1.));
#711=DIRECTION('',(-1.,0.,0.));
#712=DIRECTION('',(0.,1.,0.));
#713=DIRECTION('',(0.,0.,-1.));
#714=DIRECTION('',(-1.,0.,0.));
#715=DIRECTION('',(0.,-0.707106781186548,0.707106781186548));
#716=DIRECTION('',(1.,0.,0.));
#717=DIRECTION('',(0.,0.,-1.));
#718=DIRECTION('',(0.,0.707106781186548,-0.707106781186548));
#719=DIRECTION('',(0.,-0.707106781186547,-0.707106781186547));
#720=DIRECTION('',(1.,0.,0.));
#721=DIRECTION('',(-0.707106781186548,0.,-0.707106781186548));
#722=DIRECTION('',(0.707106781186548,0.,0.707106781186548));
#723=DIRECTION('',(0.,-1.,0.));
#724=DIRECTION('',(0.707106781186548,0.,-0.707106781186548));
#725=DIRECTION('',(0.,1.,0.));
#726=DIRECTION('',(0.,0.,-1.));
#727=DIRECTION('',(-1.,0.,0.));
#728=DIRECTION('',(0.,-1.,0.));
#729=DIRECTION('',(0.,0.,-1.));
#730=DIRECTION('',(0.,0.,1.));
#731=DIRECTION('',(-0.999999999999999,0.,0.));
#732=DIRECTION('',(0.,-1.,0.));
#733=DIRECTION('',(0.,0.,-1.));
#734=DIRECTION('',(-1.,0.,0.));
#735=DIRECTION('',(0.,0.,1.));
#736=DIRECTION('',(1.,0.,0.));
#737=DIRECTION('',(0.,0.,-1.));
#738=DIRECTION('',(0.,0.,1.));
#739=DIRECTION('',(0.999999999999999,0.,0.));
#740=DIRECTION('',(0.,0.,-1.));
#741=DIRECTION('',(-1.,0.,0.));
#742=DIRECTION('',(0.,0.,1.));
#743=DIRECTION('',(0.,-1.,0.));
#744=DIRECTION('',(0.,0.,-1.));
#745=DIRECTION('',(0.,1.,0.));
#746=DIRECTION('',(0.,0.,1.));
#747=DIRECTION('',(0.,0.,-1.));
#748=DIRECTION('',(-1.,0.,0.));
#749=DIRECTION('',(0.,0.,1.));
#750=DIRECTION('',(0.,0.,-1.));
#751=DIRECTION('',(1.,0.,0.));
#752=DIRECTION('',(0.,0.,1.));
#753=DIRECTION('',(0.,1.,0.));
#754=DIRECTION('',(0.,0.,1.));
#755=DIRECTION('',(0.,0.,-1.));
#756=DIRECTION('',(-1.,0.,0.));
#757=DIRECTION('',(0.,0.,1.));
#758=DIRECTION('',(-0.999999999999997,0.,0.));
#759=DIRECTION('',(0.,-1.,0.));
#760=DIRECTION('',(0.,0.,1.));
#761=DIRECTION('',(-0.999999999999997,0.,0.));
#762=DIRECTION('',(0.,0.,1.));
#763=DIRECTION('',(-1.,0.,0.));
#764=DIRECTION('',(0.,0.,1.));
#765=DIRECTION('',(-1.,0.,0.));
#766=DIRECTION('',(0.,0.,-1.));
#767=DIRECTION('',(-1.,0.,0.));
#768=DIRECTION('',(0.,0.,1.));
#769=DIRECTION('',(0.,0.,-1.));
#770=DIRECTION('',(1.,0.,0.));
#771=DIRECTION('',(0.,0.,-1.));
#772=DIRECTION('',(0.,0.,1.));
#773=DIRECTION('',(0.999999999999997,0.,0.));
#774=DIRECTION('',(0.,0.,1.));
#775=DIRECTION('',(1.,0.,0.));
#776=DIRECTION('',(0.,0.,1.));
#777=DIRECTION('',(1.,0.,0.));
#778=DIRECTION('',(0.,0.,1.));
#779=DIRECTION('',(0.999999999999997,0.,0.));
#780=DIRECTION('',(0.,0.,-1.));
#781=DIRECTION('',(-1.,0.,0.));
#782=DIRECTION('',(0.,-1.,0.));
#783=DIRECTION('',(0.,0.,-1.));
#784=DIRECTION('',(1.,0.,0.));
#785=DIRECTION('',(0.,0.,1.));
#786=DIRECTION('',(0.,1.,0.));
#787=DIRECTION('',(0.,0.,1.));
#788=DIRECTION('',(0.,-1.,0.));
#789=DIRECTION('',(0.,0.,1.));
#790=DIRECTION('',(-1.,0.,0.));
#791=DIRECTION('',(0.,0.,1.));
#792=DIRECTION('',(-1.,0.,0.));
#793=DIRECTION('',(0.,0.,-1.));
#794=DIRECTION('',(-1.,0.,0.));
#795=DIRECTION('',(0.,0.,-1.));
#796=DIRECTION('',(0.,0.,1.));
#797=DIRECTION('',(1.,0.,0.));
#798=DIRECTION('',(0.,0.,-1.));
#799=DIRECTION('',(0.,0.,1.));
#800=DIRECTION('',(1.,0.,0.));
#801=DIRECTION('',(0.,0.,1.));
#802=DIRECTION('',(1.,0.,0.));
#803=DIRECTION('',(0.,0.,-1.));
#804=DIRECTION('',(1.,0.,0.));
#805=DIRECTION('',(0.,0.,-1.));
#806=DIRECTION('',(1.,0.,0.));
#807=CARTESIAN_POINT('',(0.,0.,0.));
#808=CARTESIAN_POINT('',(0.,33.5,75.4));
#809=CARTESIAN_POINT('',(0.,33.5,75.4));
#810=CARTESIAN_POINT('',(17.9,33.5,93.3));
#811=CARTESIAN_POINT('',(0.,142.5,75.4));
#812=CARTESIAN_POINT('',(0.,0.,75.4));
#813=CARTESIAN_POINT('',(62.575,0.,137.975));
#814=CARTESIAN_POINT('',(17.9,0.,93.3));
#815=CARTESIAN_POINT('',(17.9,142.5,93.3));
#816=CARTESIAN_POINT('',(0.,142.5,75.4));
#817=CARTESIAN_POINT('',(200.6,73.2,93.3));
#818=CARTESIAN_POINT('',(207.35,73.2,93.3));
#819=CARTESIAN_POINT('',(200.55,33.5,93.3));
#820=CARTESIAN_POINT('',(68.9,33.5,93.3));
#821=CARTESIAN_POINT('',(200.55,0.,93.3));
#822=CARTESIAN_POINT('',(401.1,0.,93.3));
#823=CARTESIAN_POINT('',(401.1,142.5,93.3));
#824=CARTESIAN_POINT('',(401.1,275.4,93.3));
#825=CARTESIAN_POINT('',(200.55,275.4,93.3));
#826=CARTESIAN_POINT('',(111.5,275.4,93.3));
#827=CARTESIAN_POINT('',(111.5,142.5,93.3));
#828=CARTESIAN_POINT('',(111.5,216.3,93.3));
#829=CARTESIAN_POINT('',(99.1,216.3,93.3));
#830=CARTESIAN_POINT('',(99.1,203.9,93.3));
#831=CARTESIAN_POINT('',(200.55,203.9,93.3));
#832=CARTESIAN_POINT('',(17.9,203.9,93.3));
#833=CARTESIAN_POINT('',(17.9,142.5,93.3));
#834=CARTESIAN_POINT('',(17.9,99.2,93.3));
#835=CARTESIAN_POINT('',(200.55,99.2,93.3));
#836=CARTESIAN_POINT('',(68.9,99.2,93.3));
#837=CARTESIAN_POINT('',(68.9,94.9,93.3));
#838=CARTESIAN_POINT('',(73.2,94.9,93.3));
#839=CARTESIAN_POINT('',(73.2,142.5,93.3));
#840=CARTESIAN_POINT('',(73.2,37.8,93.3));
#841=CARTESIAN_POINT('',(68.9,37.8,93.3));
#842=CARTESIAN_POINT('',(200.55,153.9,93.3));
#843=CARTESIAN_POINT('',(168.5,153.9,93.3));
#844=CARTESIAN_POINT('',(324.3,153.9,93.3));
#845=CARTESIAN_POINT('',(168.5,163.2,93.3));
#846=CARTESIAN_POINT('',(159.2,163.2,93.3));
#847=CARTESIAN_POINT('',(159.2,142.5,93.3));
#848=CARTESIAN_POINT('',(159.2,245.7,93.3));
#849=CARTESIAN_POINT('',(168.5,245.7,93.3));
#850=CARTESIAN_POINT('',(168.5,255.,93.3));
#851=CARTESIAN_POINT('',(200.55,255.,93.3));
#852=CARTESIAN_POINT('',(324.3,255.,93.3));
#853=CARTESIAN_POINT('',(324.3,245.7,93.3));
#854=CARTESIAN_POINT('',(333.6,245.7,93.3));
#855=CARTESIAN_POINT('',(333.6,142.5,93.3));
#856=CARTESIAN_POINT('',(333.6,163.2,93.3));
#857=CARTESIAN_POINT('',(324.3,163.2,93.3));
#858=CARTESIAN_POINT('',(200.55,142.5,93.3));
#859=CARTESIAN_POINT('',(0.,0.,0.));
#860=CARTESIAN_POINT('',(0.,0.,0.));
#861=CARTESIAN_POINT('',(200.55,0.,0.));
#862=CARTESIAN_POINT('',(401.1,0.,0.));
#863=CARTESIAN_POINT('',(401.1,0.,0.));
#864=CARTESIAN_POINT('',(200.55,0.,0.));
#865=CARTESIAN_POINT('',(0.,33.5,74.4));
#866=CARTESIAN_POINT('',(0.,33.5,74.4));
#867=CARTESIAN_POINT('',(0.,66.35,74.4));
#868=CARTESIAN_POINT('',(0.,99.2,74.4));
#869=CARTESIAN_POINT('',(0.,99.2,74.4));
#870=CARTESIAN_POINT('',(0.,99.2,75.4));
#871=CARTESIAN_POINT('',(0.,142.5,75.4));
#872=CARTESIAN_POINT('',(0.,285.,75.4));
#873=CARTESIAN_POINT('',(0.,285.,0.));
#874=CARTESIAN_POINT('',(0.,285.,0.));
#875=CARTESIAN_POINT('',(0.,142.5,0.));
#876=CARTESIAN_POINT('',(0.,142.5,0.));
#877=CARTESIAN_POINT('',(59.1,285.,82.1));
#878=CARTESIAN_POINT('',(111.5,285.,82.1));
#879=CARTESIAN_POINT('',(6.7,285.,82.1));
#880=CARTESIAN_POINT('',(111.5,285.,82.1));
#881=CARTESIAN_POINT('',(111.5,285.,83.7));
#882=CARTESIAN_POINT('',(200.55,285.,83.7));
#883=CARTESIAN_POINT('',(401.1,285.,83.7));
#884=CARTESIAN_POINT('',(401.1,285.,0.));
#885=CARTESIAN_POINT('',(401.1,285.,0.));
#886=CARTESIAN_POINT('',(200.55,285.,0.));
#887=CARTESIAN_POINT('',(62.575,285.,137.975));
#888=CARTESIAN_POINT('',(200.55,285.,0.));
#889=CARTESIAN_POINT('',(200.6,211.8,0.));
#890=CARTESIAN_POINT('',(193.85,211.8,0.));
#891=CARTESIAN_POINT('',(200.6,73.2,0.));
#892=CARTESIAN_POINT('',(193.85,73.2,0.));
#893=CARTESIAN_POINT('',(401.1,142.5,0.));
#894=CARTESIAN_POINT('',(200.55,142.5,0.));
#895=CARTESIAN_POINT('',(401.1,255.6,113.1));
#896=CARTESIAN_POINT('',(401.1,142.5,0.));
#897=CARTESIAN_POINT('',(111.5,285.,83.7));
#898=CARTESIAN_POINT('',(200.55,285.,83.7));
#899=CARTESIAN_POINT('',(0.,99.2,75.4));
#900=CARTESIAN_POINT('',(0.,203.9,75.4));
#901=CARTESIAN_POINT('',(6.7,203.9,82.1));
#902=CARTESIAN_POINT('',(6.7,244.45,82.1));
#903=CARTESIAN_POINT('',(0.,142.5,75.4));
#904=CARTESIAN_POINT('',(99.1,203.9,82.1));
#905=CARTESIAN_POINT('',(99.1,203.9,82.1));
#906=CARTESIAN_POINT('',(59.1,203.9,82.1));
#907=CARTESIAN_POINT('',(59.1,203.9,82.1));
#908=CARTESIAN_POINT('',(99.1,216.3,82.1));
#909=CARTESIAN_POINT('',(111.5,216.3,82.1));
#910=CARTESIAN_POINT('',(111.5,244.45,82.1));
#911=CARTESIAN_POINT('',(59.1,244.45,82.1));
#912=CARTESIAN_POINT('',(111.5,216.3,93.3));
#913=CARTESIAN_POINT('',(111.5,244.45,82.1));
#914=CARTESIAN_POINT('',(99.1,216.3,82.1));
#915=CARTESIAN_POINT('',(324.3,153.9,55.4));
#916=CARTESIAN_POINT('',(324.3,153.9,55.4));
#917=CARTESIAN_POINT('',(246.4,153.9,55.4));
#918=CARTESIAN_POINT('',(168.5,153.9,55.4));
#919=CARTESIAN_POINT('',(168.5,153.9,93.3));
#920=CARTESIAN_POINT('',(246.4,153.9,55.4));
#921=CARTESIAN_POINT('',(159.2,204.45,55.4));
#922=CARTESIAN_POINT('',(159.2,163.2,55.4));
#923=CARTESIAN_POINT('',(159.2,245.7,55.4));
#924=CARTESIAN_POINT('',(159.2,245.7,93.3));
#925=CARTESIAN_POINT('',(159.2,163.2,55.4));
#926=CARTESIAN_POINT('',(159.2,204.45,55.4));
#927=CARTESIAN_POINT('',(168.5,255.,55.4));
#928=CARTESIAN_POINT('',(168.5,255.,55.4));
#929=CARTESIAN_POINT('',(246.4,255.,55.4));
#930=CARTESIAN_POINT('',(324.3,255.,55.4));
#931=CARTESIAN_POINT('',(324.3,255.,93.3));
#932=CARTESIAN_POINT('',(246.4,255.,55.4));
#933=CARTESIAN_POINT('',(200.6,211.8,55.4));
#934=CARTESIAN_POINT('',(193.85,211.8,55.4));
#935=CARTESIAN_POINT('',(324.3,163.2,55.4));
#936=CARTESIAN_POINT('',(333.6,163.2,55.4));
#937=CARTESIAN_POINT('',(333.6,204.45,55.4));
#938=CARTESIAN_POINT('',(333.6,245.7,55.4));
#939=CARTESIAN_POINT('',(324.3,245.7,55.4));
#940=CARTESIAN_POINT('',(168.5,245.7,55.4));
#941=CARTESIAN_POINT('',(168.5,163.2,55.4));
#942=CARTESIAN_POINT('',(246.4,204.45,55.4));
#943=CARTESIAN_POINT('',(333.6,163.2,93.3));
#944=CARTESIAN_POINT('',(333.6,245.7,55.4));
#945=CARTESIAN_POINT('',(333.6,204.45,55.4));
#946=CARTESIAN_POINT('',(324.3,163.2,55.4));
#947=CARTESIAN_POINT('',(168.5,245.7,55.4));
#948=CARTESIAN_POINT('',(168.5,163.2,55.4));
#949=CARTESIAN_POINT('',(324.3,245.7,55.4));
#950=CARTESIAN_POINT('',(68.9,33.5,74.4));
#951=CARTESIAN_POINT('',(68.9,33.5,74.4));
#952=CARTESIAN_POINT('',(36.6,33.5,74.4));
#953=CARTESIAN_POINT('',(36.6,33.5,74.4));
#954=CARTESIAN_POINT('',(36.6,99.2,74.4));
#955=CARTESIAN_POINT('',(68.9,99.2,74.4));
#956=CARTESIAN_POINT('',(68.9,99.2,93.3));
#957=CARTESIAN_POINT('',(36.6,99.2,74.4));
#958=CARTESIAN_POINT('',(73.2,66.35,74.4));
#959=CARTESIAN_POINT('',(73.2,94.9,74.4));
#960=CARTESIAN_POINT('',(73.2,37.8,74.4));
#961=CARTESIAN_POINT('',(68.9,94.9,74.4));
#962=CARTESIAN_POINT('',(68.9,37.8,74.4));
#963=CARTESIAN_POINT('',(36.6,66.35,74.4));
#964=CARTESIAN_POINT('',(73.2,94.9,74.4));
#965=CARTESIAN_POINT('',(73.2,37.8,93.3));
#966=CARTESIAN_POINT('',(73.2,66.35,74.4));
#967=CARTESIAN_POINT('',(68.9,94.9,74.4));
#968=CARTESIAN_POINT('',(68.9,37.8,74.4));
#969=CARTESIAN_POINT('',(200.6,73.2,93.35));
#970=CARTESIAN_POINT('',(200.6,211.8,93.35));
#971=MECHANICAL_DESIGN_GEOMETRIC_PRESENTATION_REPRESENTATION('',(#24),#972);
#972=(
GEOMETRIC_REPRESENTATION_CONTEXT(3)
GLOBAL_UNCERTAINTY_ASSIGNED_CONTEXT((#973))
GLOBAL_UNIT_ASSIGNED_CONTEXT((#979,#975,#974))
REPRESENTATION_CONTEXT('featured_part_02368','TOP_LEVEL_ASSEMBLY_PART')
);
#973=UNCERTAINTY_MEASURE_WITH_UNIT(LENGTH_MEASURE(2.E-5),#979,
'DISTANCE_ACCURACY_VALUE','Maximum Tolerance applied to model');
#974=(
NAMED_UNIT(*)
SI_UNIT($,.STERADIAN.)
SOLID_ANGLE_UNIT()
);
#975=(
CONVERSION_BASED_UNIT('DEGREE',#977)
NAMED_UNIT(#976)
PLANE_ANGLE_UNIT()
);
#976=DIMENSIONAL_EXPONENTS(0.,0.,0.,0.,0.,0.,0.);
#977=PLANE_ANGLE_MEASURE_WITH_UNIT(PLANE_ANGLE_MEASURE(0.0174532925),#978);
#978=(
NAMED_UNIT(*)
PLANE_ANGLE_UNIT()
SI_UNIT($,.RADIAN.)
);
#979=(
LENGTH_UNIT()
NAMED_UNIT(*)
SI_UNIT(.MILLI.,.METRE.)
);
ENDSEC;
END-ISO-10303-21;
