ISO-10303-21;
HEADER;
/* Generated by software containing ST-Developer
 * from STEP Tools, Inc. (www.steptools.com) 
 */
/* OPTION: using custom schema-name function */

FILE_DESCRIPTION(
/* description */ (''),
/* implementation_level */ '2;1');

FILE_NAME(
/* name */ 'featured_part_08966.stp',
/* time_stamp */ '2026-07-11T05:06:24-04:00',
/* author */ (''),
/* organization */ (''),
/* preprocessor_version */ 'ST-DEVELOPER v20.1',
/* originating_system */ 'SIEMENS PLM Software NX2512.6002',
/* authorisation */ '');

FILE_SCHEMA (('AUTOMOTIVE_DESIGN { 1 0 10303 214 3 1 1 1 }'));
ENDSEC;

DATA;
#10=SHAPE_REPRESENTATION_RELATIONSHIP('None',
'relationship between featured_part_08966-None and featured_part_08966
-None',#22,#11);
#11=ADVANCED_BREP_SHAPE_REPRESENTATION('featured_part_08966-None',(#32),
#408);
#12=SHAPE_DEFINITION_REPRESENTATION(#13,#22);
#13=PRODUCT_DEFINITION_SHAPE('','',#14);
#14=PRODUCT_DEFINITION(' ','',#16,#15);
#15=PRODUCT_DEFINITION_CONTEXT('part definition',#21,'design');
#16=PRODUCT_DEFINITION_FORMATION_WITH_SPECIFIED_SOURCE(' ',' ',#18,
 .NOT_KNOWN.);
#17=PRODUCT_RELATED_PRODUCT_CATEGORY('part','',(#18));
#18=PRODUCT('featured_part_08966','featured_part_08966',' ',(#19));
#19=PRODUCT_CONTEXT(' ',#21,'mechanical');
#20=APPLICATION_PROTOCOL_DEFINITION('international standard',
'automotive_design',2010,#21);
#21=APPLICATION_CONTEXT(
'core data for automotive mechanical design processes');
#22=SHAPE_REPRESENTATION('featured_part_08966-None',(#260),#408);
#23=PRESENTATION_LAYER_ASSIGNMENT('1','Layer 1',(#32));
#24=STYLED_ITEM('',(#25),#32);
#25=PRESENTATION_STYLE_ASSIGNMENT((#26));
#26=SURFACE_STYLE_USAGE(.BOTH.,#27);
#27=SURFACE_SIDE_STYLE('',(#28));
#28=SURFACE_STYLE_FILL_AREA(#29);
#29=FILL_AREA_STYLE('',(#30));
#30=FILL_AREA_STYLE_COLOUR('',#31);
#31=COLOUR_RGB('medium steel',0.611764705882353,0.658823529411765,0.670588235294118);
#32=MANIFOLD_SOLID_BREP('',#33);
#33=CLOSED_SHELL('',(#46,#47,#48,#49,#50,#51,#52,#53,#54,#55,#56,#57,#58));
#34=CYLINDRICAL_SURFACE('',#277,8.3);
#35=CYLINDRICAL_SURFACE('',#278,13.25);
#36=ELLIPSE('',#270,18.7383297014435,13.25);
#37=FACE_OUTER_BOUND('',#80,.T.);
#38=FACE_OUTER_BOUND('',#81,.T.);
#39=FACE_OUTER_BOUND('',#82,.T.);
#40=FACE_OUTER_BOUND('',#85,.T.);
#41=FACE_OUTER_BOUND('',#86,.T.);
#42=FACE_OUTER_BOUND('',#87,.T.);
#43=FACE_OUTER_BOUND('',#88,.T.);
#44=FACE_OUTER_BOUND('',#89,.T.);
#45=FACE_OUTER_BOUND('',#90,.T.);
#46=ADVANCED_FACE('',(#70,#71),#59,.T.);
#47=ADVANCED_FACE('',(#37),#60,.T.);
#48=ADVANCED_FACE('',(#38),#61,.T.);
#49=ADVANCED_FACE('',(#39),#62,.T.);
#50=ADVANCED_FACE('',(#72,#73),#63,.T.);
#51=ADVANCED_FACE('',(#40),#64,.T.);
#52=ADVANCED_FACE('',(#41),#65,.F.);
#53=ADVANCED_FACE('',(#42),#66,.F.);
#54=ADVANCED_FACE('',(#43),#67,.F.);
#55=ADVANCED_FACE('',(#44),#68,.F.);
#56=ADVANCED_FACE('',(#45),#69,.F.);
#57=ADVANCED_FACE('',(#74,#75),#34,.F.);
#58=ADVANCED_FACE('',(#76,#77),#35,.F.);
#59=PLANE('',#263);
#60=PLANE('',#264);
#61=PLANE('',#265);
#62=PLANE('',#266);
#63=PLANE('',#268);
#64=PLANE('',#269);
#65=PLANE('',#271);
#66=PLANE('',#272);
#67=PLANE('',#273);
#68=PLANE('',#274);
#69=PLANE('',#276);
#70=FACE_BOUND('',#78,.T.);
#71=FACE_BOUND('',#79,.T.);
#72=FACE_BOUND('',#83,.T.);
#73=FACE_BOUND('',#84,.T.);
#74=FACE_BOUND('',#91,.T.);
#75=FACE_BOUND('',#92,.T.);
#76=FACE_BOUND('',#93,.T.);
#77=FACE_BOUND('',#94,.T.);
#78=EDGE_LOOP('',(#145,#146,#147,#148,#149,#150));
#79=EDGE_LOOP('',(#151));
#80=EDGE_LOOP('',(#152,#153,#154,#155,#156));
#81=EDGE_LOOP('',(#157,#158,#159,#160,#161,#162));
#82=EDGE_LOOP('',(#163,#164,#165,#166));
#83=EDGE_LOOP('',(#167));
#84=EDGE_LOOP('',(#168,#169,#170,#171));
#85=EDGE_LOOP('',(#172,#173,#174,#175,#176));
#86=EDGE_LOOP('',(#177,#178,#179,#180,#181,#182,#183,#184));
#87=EDGE_LOOP('',(#185,#186,#187,#188,#189));
#88=EDGE_LOOP('',(#190,#191,#192,#193));
#89=EDGE_LOOP('',(#194,#195,#196,#197,#198));
#90=EDGE_LOOP('',(#199));
#91=EDGE_LOOP('',(#200));
#92=EDGE_LOOP('',(#201));
#93=EDGE_LOOP('',(#202));
#94=EDGE_LOOP('',(#203,#204));
#95=LINE('',#346,#120);
#96=LINE('',#348,#121);
#97=LINE('',#350,#122);
#98=LINE('',#352,#123);
#99=LINE('',#354,#124);
#100=LINE('',#358,#125);
#101=LINE('',#361,#126);
#102=LINE('',#363,#127);
#103=LINE('',#365,#128);
#104=LINE('',#367,#129);
#105=LINE('',#369,#130);
#106=LINE('',#371,#131);
#107=LINE('',#373,#132);
#108=LINE('',#375,#133);
#109=LINE('',#377,#134);
#110=LINE('',#379,#135);
#111=LINE('',#381,#136);
#112=LINE('',#383,#137);
#113=LINE('',#387,#138);
#114=LINE('',#389,#139);
#115=LINE('',#391,#140);
#116=LINE('',#394,#141);
#117=LINE('',#395,#142);
#118=LINE('',#397,#143);
#119=LINE('',#399,#144);
#120=VECTOR('',#283,1.);
#121=VECTOR('',#284,1.);
#122=VECTOR('',#285,1.);
#123=VECTOR('',#286,1.);
#124=VECTOR('',#287,1.);
#125=VECTOR('',#292,1.);
#126=VECTOR('',#293,1.);
#127=VECTOR('',#294,1.);
#128=VECTOR('',#295,1.);
#129=VECTOR('',#296,1.);
#130=VECTOR('',#299,1.);
#131=VECTOR('',#300,1.);
#132=VECTOR('',#301,1.);
#133=VECTOR('',#302,1.);
#134=VECTOR('',#303,1.);
#135=VECTOR('',#306,1.);
#136=VECTOR('',#307,1.);
#137=VECTOR('',#308,1.);
#138=VECTOR('',#313,1.);
#139=VECTOR('',#316,1.);
#140=VECTOR('',#317,1.);
#141=VECTOR('',#322,1.);
#142=VECTOR('',#323,1.);
#143=VECTOR('',#326,1.);
#144=VECTOR('',#329,1.);
#145=ORIENTED_EDGE('',*,*,#226,.F.);
#146=ORIENTED_EDGE('',*,*,#227,.T.);
#147=ORIENTED_EDGE('',*,*,#228,.T.);
#148=ORIENTED_EDGE('',*,*,#229,.T.);
#149=ORIENTED_EDGE('',*,*,#230,.T.);
#150=ORIENTED_EDGE('',*,*,#231,.T.);
#151=ORIENTED_EDGE('',*,*,#232,.F.);
#152=ORIENTED_EDGE('',*,*,#233,.T.);
#153=ORIENTED_EDGE('',*,*,#234,.T.);
#154=ORIENTED_EDGE('',*,*,#235,.F.);
#155=ORIENTED_EDGE('',*,*,#236,.T.);
#156=ORIENTED_EDGE('',*,*,#237,.T.);
#157=ORIENTED_EDGE('',*,*,#235,.T.);
#158=ORIENTED_EDGE('',*,*,#238,.T.);
#159=ORIENTED_EDGE('',*,*,#239,.T.);
#160=ORIENTED_EDGE('',*,*,#240,.T.);
#161=ORIENTED_EDGE('',*,*,#241,.F.);
#162=ORIENTED_EDGE('',*,*,#242,.T.);
#163=ORIENTED_EDGE('',*,*,#241,.T.);
#164=ORIENTED_EDGE('',*,*,#243,.T.);
#165=ORIENTED_EDGE('',*,*,#244,.F.);
#166=ORIENTED_EDGE('',*,*,#245,.T.);
#167=ORIENTED_EDGE('',*,*,#246,.F.);
#168=ORIENTED_EDGE('',*,*,#247,.F.);
#169=ORIENTED_EDGE('',*,*,#236,.F.);
#170=ORIENTED_EDGE('',*,*,#242,.F.);
#171=ORIENTED_EDGE('',*,*,#245,.F.);
#172=ORIENTED_EDGE('',*,*,#248,.T.);
#173=ORIENTED_EDGE('',*,*,#249,.T.);
#174=ORIENTED_EDGE('',*,*,#237,.F.);
#175=ORIENTED_EDGE('',*,*,#247,.T.);
#176=ORIENTED_EDGE('',*,*,#244,.T.);
#177=ORIENTED_EDGE('',*,*,#250,.F.);
#178=ORIENTED_EDGE('',*,*,#231,.F.);
#179=ORIENTED_EDGE('',*,*,#251,.T.);
#180=ORIENTED_EDGE('',*,*,#248,.F.);
#181=ORIENTED_EDGE('',*,*,#243,.F.);
#182=ORIENTED_EDGE('',*,*,#240,.F.);
#183=ORIENTED_EDGE('',*,*,#252,.T.);
#184=ORIENTED_EDGE('',*,*,#227,.F.);
#185=ORIENTED_EDGE('',*,*,#230,.F.);
#186=ORIENTED_EDGE('',*,*,#253,.T.);
#187=ORIENTED_EDGE('',*,*,#233,.F.);
#188=ORIENTED_EDGE('',*,*,#249,.F.);
#189=ORIENTED_EDGE('',*,*,#251,.F.);
#190=ORIENTED_EDGE('',*,*,#239,.F.);
#191=ORIENTED_EDGE('',*,*,#254,.T.);
#192=ORIENTED_EDGE('',*,*,#228,.F.);
#193=ORIENTED_EDGE('',*,*,#252,.F.);
#194=ORIENTED_EDGE('',*,*,#253,.F.);
#195=ORIENTED_EDGE('',*,*,#229,.F.);
#196=ORIENTED_EDGE('',*,*,#254,.F.);
#197=ORIENTED_EDGE('',*,*,#238,.F.);
#198=ORIENTED_EDGE('',*,*,#234,.F.);
#199=ORIENTED_EDGE('',*,*,#255,.F.);
#200=ORIENTED_EDGE('',*,*,#232,.T.);
#201=ORIENTED_EDGE('',*,*,#255,.T.);
#202=ORIENTED_EDGE('',*,*,#246,.T.);
#203=ORIENTED_EDGE('',*,*,#226,.T.);
#204=ORIENTED_EDGE('',*,*,#250,.T.);
#205=VERTEX_POINT('',#344);
#206=VERTEX_POINT('',#345);
#207=VERTEX_POINT('',#347);
#208=VERTEX_POINT('',#349);
#209=VERTEX_POINT('',#351);
#210=VERTEX_POINT('',#353);
#211=VERTEX_POINT('',#356);
#212=VERTEX_POINT('',#359);
#213=VERTEX_POINT('',#360);
#214=VERTEX_POINT('',#362);
#215=VERTEX_POINT('',#364);
#216=VERTEX_POINT('',#366);
#217=VERTEX_POINT('',#370);
#218=VERTEX_POINT('',#372);
#219=VERTEX_POINT('',#374);
#220=VERTEX_POINT('',#376);
#221=VERTEX_POINT('',#380);
#222=VERTEX_POINT('',#382);
#223=VERTEX_POINT('',#386);
#224=VERTEX_POINT('',#390);
#225=VERTEX_POINT('',#403);
#226=EDGE_CURVE('',#205,#206,#256,.T.);
#227=EDGE_CURVE('',#205,#207,#95,.T.);
#228=EDGE_CURVE('',#207,#208,#96,.T.);
#229=EDGE_CURVE('',#208,#209,#97,.T.);
#230=EDGE_CURVE('',#209,#210,#98,.T.);
#231=EDGE_CURVE('',#210,#206,#99,.T.);
#232=EDGE_CURVE('',#211,#211,#257,.T.);
#233=EDGE_CURVE('',#212,#213,#100,.T.);
#234=EDGE_CURVE('',#213,#214,#101,.T.);
#235=EDGE_CURVE('',#215,#214,#102,.T.);
#236=EDGE_CURVE('',#215,#216,#103,.T.);
#237=EDGE_CURVE('',#216,#212,#104,.T.);
#238=EDGE_CURVE('',#214,#217,#105,.T.);
#239=EDGE_CURVE('',#217,#218,#106,.T.);
#240=EDGE_CURVE('',#218,#219,#107,.T.);
#241=EDGE_CURVE('',#220,#219,#108,.T.);
#242=EDGE_CURVE('',#220,#215,#109,.T.);
#243=EDGE_CURVE('',#219,#221,#110,.T.);
#244=EDGE_CURVE('',#222,#221,#111,.T.);
#245=EDGE_CURVE('',#222,#220,#112,.T.);
#246=EDGE_CURVE('',#223,#223,#258,.T.);
#247=EDGE_CURVE('',#216,#222,#113,.T.);
#248=EDGE_CURVE('',#221,#224,#114,.T.);
#249=EDGE_CURVE('',#224,#212,#115,.T.);
#250=EDGE_CURVE('',#206,#205,#36,.T.);
#251=EDGE_CURVE('',#210,#224,#116,.T.);
#252=EDGE_CURVE('',#218,#207,#117,.T.);
#253=EDGE_CURVE('',#209,#213,#118,.T.);
#254=EDGE_CURVE('',#217,#208,#119,.T.);
#255=EDGE_CURVE('',#225,#225,#259,.T.);
#256=CIRCLE('',#261,13.25);
#257=CIRCLE('',#262,8.3);
#258=CIRCLE('',#267,13.25);
#259=CIRCLE('',#275,8.3);
#260=AXIS2_PLACEMENT_3D('',#342,#279,#280);
#261=AXIS2_PLACEMENT_3D('',#343,#281,#282);
#262=AXIS2_PLACEMENT_3D('',#355,#288,#289);
#263=AXIS2_PLACEMENT_3D('',#357,#290,#291);
#264=AXIS2_PLACEMENT_3D('',#368,#297,#298);
#265=AXIS2_PLACEMENT_3D('',#378,#304,#305);
#266=AXIS2_PLACEMENT_3D('',#384,#309,#310);
#267=AXIS2_PLACEMENT_3D('',#385,#311,#312);
#268=AXIS2_PLACEMENT_3D('',#388,#314,#315);
#269=AXIS2_PLACEMENT_3D('',#392,#318,#319);
#270=AXIS2_PLACEMENT_3D('',#393,#320,#321);
#271=AXIS2_PLACEMENT_3D('',#396,#324,#325);
#272=AXIS2_PLACEMENT_3D('',#398,#327,#328);
#273=AXIS2_PLACEMENT_3D('',#400,#330,#331);
#274=AXIS2_PLACEMENT_3D('',#401,#332,#333);
#275=AXIS2_PLACEMENT_3D('',#402,#334,#335);
#276=AXIS2_PLACEMENT_3D('',#404,#336,#337);
#277=AXIS2_PLACEMENT_3D('',#405,#338,#339);
#278=AXIS2_PLACEMENT_3D('',#406,#340,#341);
#279=DIRECTION('',(0.,0.,1.));
#280=DIRECTION('',(1.,0.,0.));
#281=DIRECTION('',(0.,0.,1.));
#282=DIRECTION('',(1.,0.,0.));
#283=DIRECTION('',(-1.,0.,0.));
#284=DIRECTION('',(0.,-1.,0.));
#285=DIRECTION('',(1.,0.,0.));
#286=DIRECTION('',(0.,1.,0.));
#287=DIRECTION('',(-1.,0.,0.));
#288=DIRECTION('',(0.,0.,1.));
#289=DIRECTION('',(1.,0.,0.));
#290=DIRECTION('',(0.,0.,1.));
#291=DIRECTION('',(1.,0.,0.));
#292=DIRECTION('',(-0.707106781186547,0.,0.707106781186548));
#293=DIRECTION('',(-1.,0.,0.));
#294=DIRECTION('',(0.,0.,1.));
#295=DIRECTION('',(1.,0.,0.));
#296=DIRECTION('',(0.,0.,1.));
#297=DIRECTION('',(0.,-1.,0.));
#298=DIRECTION('',(0.,0.,-1.));
#299=DIRECTION('',(0.,0.707106781186548,0.707106781186548));
#300=DIRECTION('',(0.,1.,0.));
#301=DIRECTION('',(0.,0.707106781186548,-0.707106781186548));
#302=DIRECTION('',(0.,0.,1.));
#303=DIRECTION('',(0.,-1.,0.));
#304=DIRECTION('',(-1.,0.,0.));
#305=DIRECTION('',(0.,0.,1.));
#306=DIRECTION('',(1.,0.,0.));
#307=DIRECTION('',(0.,0.,1.));
#308=DIRECTION('',(-1.,0.,0.));
#309=DIRECTION('',(0.,1.,0.));
#310=DIRECTION('',(0.,0.,1.));
#311=DIRECTION('',(0.,0.,-1.));
#312=DIRECTION('',(-1.,0.,0.));
#313=DIRECTION('',(0.,1.,0.));
#314=DIRECTION('',(0.,0.,-1.));
#315=DIRECTION('',(-1.,0.,0.));
#316=DIRECTION('',(0.,-0.707106781186548,0.707106781186548));
#317=DIRECTION('',(0.,-1.,0.));
#318=DIRECTION('',(1.,0.,0.));
#319=DIRECTION('',(0.,0.,-1.));
#320=DIRECTION('',(0.,0.707106781186548,0.707106781186548));
#321=DIRECTION('',(0.,0.707106781186548,-0.707106781186548));
#322=DIRECTION('',(0.577350269189625,0.577350269189626,-0.577350269189626));
#323=DIRECTION('',(0.577350269189626,-0.577350269189626,0.577350269189626));
#324=DIRECTION('',(0.,-0.707106781186548,-0.707106781186548));
#325=DIRECTION('',(1.,0.,0.));
#326=DIRECTION('',(0.577350269189625,-0.577350269189626,-0.577350269189626));
#327=DIRECTION('',(-0.707106781186548,0.,-0.707106781186547));
#328=DIRECTION('',(0.,-1.,0.));
#329=DIRECTION('',(0.577350269189626,0.577350269189626,0.577350269189626));
#330=DIRECTION('',(0.707106781186547,0.,-0.707106781186547));
#331=DIRECTION('',(0.,1.,0.));
#332=DIRECTION('',(0.,0.707106781186548,-0.707106781186548));
#333=DIRECTION('',(-1.,0.,0.));
#334=DIRECTION('',(0.,0.,-1.));
#335=DIRECTION('',(1.,0.,0.));
#336=DIRECTION('',(0.,0.,-1.));
#337=DIRECTION('',(-1.,0.,0.));
#338=DIRECTION('',(0.,0.,-1.));
#339=DIRECTION('',(1.,0.,0.));
#340=DIRECTION('',(0.,0.,-1.));
#341=DIRECTION('',(1.,0.,0.));
#342=CARTESIAN_POINT('',(0.,0.,0.));
#343=CARTESIAN_POINT('',(30.,185.3,149.8));
#344=CARTESIAN_POINT('',(21.5429023891172,175.1,149.8));
#345=CARTESIAN_POINT('',(38.4570976108828,175.1,149.8));
#346=CARTESIAN_POINT('',(181.8,175.1,149.8));
#347=CARTESIAN_POINT('',(7.20000000000001,175.1,149.8));
#348=CARTESIAN_POINT('',(7.20000000000001,101.3,149.8));
#349=CARTESIAN_POINT('',(7.20000000000001,11.6,149.8));
#350=CARTESIAN_POINT('',(181.8,11.6,149.8));
#351=CARTESIAN_POINT('',(345.3,11.6,149.8));
#352=CARTESIAN_POINT('',(345.3,101.3,149.8));
#353=CARTESIAN_POINT('',(345.3,175.1,149.8));
#354=CARTESIAN_POINT('',(181.8,175.1,149.8));
#355=CARTESIAN_POINT('',(21.5,94.4,149.8));
#356=CARTESIAN_POINT('',(29.8,94.4,149.8));
#357=CARTESIAN_POINT('',(181.8,101.3,149.8));
#358=CARTESIAN_POINT('',(338.45,0.,156.65));
#359=CARTESIAN_POINT('',(363.6,0.,131.5));
#360=CARTESIAN_POINT('',(356.9,0.,138.2));
#361=CARTESIAN_POINT('',(181.8,0.,138.2));
#362=CARTESIAN_POINT('',(0.,0.,138.2));
#363=CARTESIAN_POINT('',(0.,0.,0.));
#364=CARTESIAN_POINT('',(0.,0.,0.));
#365=CARTESIAN_POINT('',(181.8,0.,0.));
#366=CARTESIAN_POINT('',(363.6,0.,0.));
#367=CARTESIAN_POINT('',(363.6,0.,0.));
#368=CARTESIAN_POINT('',(181.8,0.,0.));
#369=CARTESIAN_POINT('',(0.,-18.45,119.75));
#370=CARTESIAN_POINT('',(0.,4.4,142.6));
#371=CARTESIAN_POINT('',(0.,101.3,142.6));
#372=CARTESIAN_POINT('',(0.,182.3,142.6));
#373=CARTESIAN_POINT('',(0.,213.1,111.8));
#374=CARTESIAN_POINT('',(0.,202.6,122.3));
#375=CARTESIAN_POINT('',(0.,202.6,0.));
#376=CARTESIAN_POINT('',(0.,202.6,0.));
#377=CARTESIAN_POINT('',(0.,101.3,0.));
#378=CARTESIAN_POINT('',(0.,101.3,0.));
#379=CARTESIAN_POINT('',(181.8,202.6,122.3));
#380=CARTESIAN_POINT('',(363.6,202.6,122.3));
#381=CARTESIAN_POINT('',(363.6,202.6,0.));
#382=CARTESIAN_POINT('',(363.6,202.6,0.));
#383=CARTESIAN_POINT('',(181.8,202.6,0.));
#384=CARTESIAN_POINT('',(181.8,202.6,0.));
#385=CARTESIAN_POINT('',(30.,185.3,0.));
#386=CARTESIAN_POINT('',(16.75,185.3,0.));
#387=CARTESIAN_POINT('',(363.6,101.3,0.));
#388=CARTESIAN_POINT('',(181.8,101.3,0.));
#389=CARTESIAN_POINT('',(363.6,213.1,111.8));
#390=CARTESIAN_POINT('',(363.6,193.4,131.5));
#391=CARTESIAN_POINT('',(363.6,101.3,131.5));
#392=CARTESIAN_POINT('',(363.6,101.3,0.));
#393=CARTESIAN_POINT('',(30.,185.3,139.6));
#394=CARTESIAN_POINT('',(309.133333333333,138.933333333333,185.966666666667));
#395=CARTESIAN_POINT('',(47.0666666666667,135.233333333333,189.666666666667));
#396=CARTESIAN_POINT('',(181.8,202.6,122.3));
#397=CARTESIAN_POINT('',(327.6,29.3,167.5));
#398=CARTESIAN_POINT('',(363.6,101.3,131.5));
#399=CARTESIAN_POINT('',(32.3,36.7,174.9));
#400=CARTESIAN_POINT('',(0.,101.3,142.6));
#401=CARTESIAN_POINT('',(181.8,0.,138.2));
#402=CARTESIAN_POINT('',(21.5,94.4,71.4));
#403=CARTESIAN_POINT('',(29.8,94.4,71.4));
#404=CARTESIAN_POINT('',(21.5,94.4,71.4));
#405=CARTESIAN_POINT('',(21.5,94.4,149.85));
#406=CARTESIAN_POINT('',(30.,185.3,149.85));
#407=MECHANICAL_DESIGN_GEOMETRIC_PRESENTATION_REPRESENTATION('',(#24),#408);
#408=(
GEOMETRIC_REPRESENTATION_CONTEXT(3)
GLOBAL_UNCERTAINTY_ASSIGNED_CONTEXT((#409))
GLOBAL_UNIT_ASSIGNED_CONTEXT((#415,#411,#410))
REPRESENTATION_CONTEXT('featured_part_08966','TOP_LEVEL_ASSEMBLY_PART')
);
#409=UNCERTAINTY_MEASURE_WITH_UNIT(LENGTH_MEASURE(2.E-5),#415,
'DISTANCE_ACCURACY_VALUE','Maximum Tolerance applied to model');
#410=(
NAMED_UNIT(*)
SI_UNIT($,.STERADIAN.)
SOLID_ANGLE_UNIT()
);
#411=(
CONVERSION_BASED_UNIT('DEGREE',#413)
NAMED_UNIT(#412)
PLANE_ANGLE_UNIT()
);
#412=DIMENSIONAL_EXPONENTS(0.,0.,0.,0.,0.,0.,0.);
#413=PLANE_ANGLE_MEASURE_WITH_UNIT(PLANE_ANGLE_MEASURE(0.0174532925),#414);
#414=(
NAMED_UNIT(*)
PLANE_ANGLE_UNIT()
SI_UNIT($,.RADIAN.)
);
#415=(
LENGTH_UNIT()
NAMED_UNIT(*)
SI_UNIT(.MILLI.,.METRE.)
);
ENDSEC;
END-ISO-10303-21;
