ISO-10303-21;
HEADER;
/* Generated by software containing ST-Developer
 * from STEP Tools, Inc. (www.steptools.com) 
 */
/* OPTION: using custom schema-name function */

FILE_DESCRIPTION(
/* description */ (''),
/* implementation_level */ '2;1');

FILE_NAME(
/* name */ 'featured_part_09400.stp',
/* time_stamp */ '2026-07-11T11:35:35-04:00',
/* author */ (''),
/* organization */ (''),
/* preprocessor_version */ 'ST-DEVELOPER v20.1',
/* originating_system */ 'SIEMENS PLM Software NX2512.6002',
/* authorisation */ '');

FILE_SCHEMA (('AUTOMOTIVE_DESIGN { 1 0 10303 214 3 1 1 1 }'));
ENDSEC;

DATA;
#10=SHAPE_REPRESENTATION_RELATIONSHIP('None',
'relationship between featured_part_09400-None and featured_part_09400
-None',#22,#11);
#11=ADVANCED_BREP_SHAPE_REPRESENTATION('featured_part_09400-None',(#32),
#578);
#12=SHAPE_DEFINITION_REPRESENTATION(#13,#22);
#13=PRODUCT_DEFINITION_SHAPE('','',#14);
#14=PRODUCT_DEFINITION(' ','',#16,#15);
#15=PRODUCT_DEFINITION_CONTEXT('part definition',#21,'design');
#16=PRODUCT_DEFINITION_FORMATION_WITH_SPECIFIED_SOURCE(' ',' ',#18,
 .NOT_KNOWN.);
#17=PRODUCT_RELATED_PRODUCT_CATEGORY('part','',(#18));
#18=PRODUCT('featured_part_09400','featured_part_09400',' ',(#19));
#19=PRODUCT_CONTEXT(' ',#21,'mechanical');
#20=APPLICATION_PROTOCOL_DEFINITION('international standard',
'automotive_design',2010,#21);
#21=APPLICATION_CONTEXT(
'core data for automotive mechanical design processes');
#22=SHAPE_REPRESENTATION('featured_part_09400-None',(#361),#578);
#23=PRESENTATION_LAYER_ASSIGNMENT('1','Layer 1',(#32));
#24=STYLED_ITEM('',(#25),#32);
#25=PRESENTATION_STYLE_ASSIGNMENT((#26));
#26=SURFACE_STYLE_USAGE(.BOTH.,#27);
#27=SURFACE_SIDE_STYLE('',(#28));
#28=SURFACE_STYLE_FILL_AREA(#29);
#29=FILL_AREA_STYLE('',(#30));
#30=FILL_AREA_STYLE_COLOUR('',#31);
#31=COLOUR_RGB('medium steel',0.611764705882353,0.658823529411765,0.670588235294118);
#32=MANIFOLD_SOLID_BREP('',#33);
#33=CLOSED_SHELL('',(#54,#55,#56,#57,#58,#59,#60,#61,#62,#63,#64,#65,#66,
#67,#68,#69,#70,#71,#72,#73,#74));
#34=CYLINDRICAL_SURFACE('',#381,3.1);
#35=CYLINDRICAL_SURFACE('',#384,3.1);
#36=CYLINDRICAL_SURFACE('',#387,3.1);
#37=CYLINDRICAL_SURFACE('',#390,3.1);
#38=FACE_OUTER_BOUND('',#176,.T.);
#39=FACE_OUTER_BOUND('',#177,.T.);
#40=FACE_OUTER_BOUND('',#178,.T.);
#41=FACE_OUTER_BOUND('',#179,.T.);
#42=FACE_OUTER_BOUND('',#180,.T.);
#43=FACE_OUTER_BOUND('',#181,.T.);
#44=FACE_OUTER_BOUND('',#182,.T.);
#45=FACE_OUTER_BOUND('',#183,.T.);
#46=FACE_OUTER_BOUND('',#184,.T.);
#47=FACE_OUTER_BOUND('',#185,.T.);
#48=FACE_OUTER_BOUND('',#186,.T.);
#49=FACE_OUTER_BOUND('',#187,.T.);
#50=FACE_OUTER_BOUND('',#188,.T.);
#51=FACE_OUTER_BOUND('',#191,.T.);
#52=FACE_OUTER_BOUND('',#194,.T.);
#53=FACE_OUTER_BOUND('',#197,.T.);
#54=ADVANCED_FACE('',(#158,#159,#160,#161,#162),#75,.T.);
#55=ADVANCED_FACE('',(#38),#76,.F.);
#56=ADVANCED_FACE('',(#39),#77,.T.);
#57=ADVANCED_FACE('',(#40),#78,.T.);
#58=ADVANCED_FACE('',(#41),#79,.T.);
#59=ADVANCED_FACE('',(#42),#80,.T.);
#60=ADVANCED_FACE('',(#43),#81,.T.);
#61=ADVANCED_FACE('',(#44),#82,.T.);
#62=ADVANCED_FACE('',(#45),#83,.F.);
#63=ADVANCED_FACE('',(#46),#84,.F.);
#64=ADVANCED_FACE('',(#47),#85,.F.);
#65=ADVANCED_FACE('',(#48),#86,.F.);
#66=ADVANCED_FACE('',(#49),#87,.F.);
#67=ADVANCED_FACE('',(#50),#88,.F.);
#68=ADVANCED_FACE('',(#163,#164),#34,.F.);
#69=ADVANCED_FACE('',(#51),#89,.F.);
#70=ADVANCED_FACE('',(#165,#166),#35,.F.);
#71=ADVANCED_FACE('',(#52),#90,.F.);
#72=ADVANCED_FACE('',(#167,#168),#36,.F.);
#73=ADVANCED_FACE('',(#53),#91,.F.);
#74=ADVANCED_FACE('',(#169,#170),#37,.F.);
#75=PLANE('',#366);
#76=PLANE('',#367);
#77=PLANE('',#368);
#78=PLANE('',#369);
#79=PLANE('',#370);
#80=PLANE('',#371);
#81=PLANE('',#372);
#82=PLANE('',#373);
#83=PLANE('',#374);
#84=PLANE('',#375);
#85=PLANE('',#376);
#86=PLANE('',#377);
#87=PLANE('',#378);
#88=PLANE('',#380);
#89=PLANE('',#383);
#90=PLANE('',#386);
#91=PLANE('',#389);
#92=LINE('',#493,#125);
#93=LINE('',#496,#126);
#94=LINE('',#498,#127);
#95=LINE('',#500,#128);
#96=LINE('',#502,#129);
#97=LINE('',#504,#130);
#98=LINE('',#506,#131);
#99=LINE('',#508,#132);
#100=LINE('',#511,#133);
#101=LINE('',#513,#134);
#102=LINE('',#515,#135);
#103=LINE('',#517,#136);
#104=LINE('',#520,#137);
#105=LINE('',#522,#138);
#106=LINE('',#524,#139);
#107=LINE('',#526,#140);
#108=LINE('',#528,#141);
#109=LINE('',#530,#142);
#110=LINE('',#531,#143);
#111=LINE('',#533,#144);
#112=LINE('',#534,#145);
#113=LINE('',#536,#146);
#114=LINE('',#538,#147);
#115=LINE('',#540,#148);
#116=LINE('',#542,#149);
#117=LINE('',#544,#150);
#118=LINE('',#546,#151);
#119=LINE('',#547,#152);
#120=LINE('',#549,#153);
#121=LINE('',#551,#154);
#122=LINE('',#553,#155);
#123=LINE('',#556,#156);
#124=LINE('',#558,#157);
#125=VECTOR('',#401,1.);
#126=VECTOR('',#402,1.);
#127=VECTOR('',#403,1.);
#128=VECTOR('',#404,1.);
#129=VECTOR('',#407,1.);
#130=VECTOR('',#408,1.);
#131=VECTOR('',#409,1.);
#132=VECTOR('',#412,1.);
#133=VECTOR('',#413,1.);
#134=VECTOR('',#414,1.);
#135=VECTOR('',#415,1.);
#136=VECTOR('',#418,1.);
#137=VECTOR('',#419,1.);
#138=VECTOR('',#420,1.);
#139=VECTOR('',#421,1.);
#140=VECTOR('',#424,1.);
#141=VECTOR('',#425,1.);
#142=VECTOR('',#426,1.);
#143=VECTOR('',#427,1.);
#144=VECTOR('',#428,1.);
#145=VECTOR('',#429,1.);
#146=VECTOR('',#432,1.);
#147=VECTOR('',#433,1.);
#148=VECTOR('',#434,1.);
#149=VECTOR('',#437,1.);
#150=VECTOR('',#440,1.);
#151=VECTOR('',#441,1.);
#152=VECTOR('',#442,1.);
#153=VECTOR('',#443,1.);
#154=VECTOR('',#444,1.);
#155=VECTOR('',#447,1.);
#156=VECTOR('',#452,1.);
#157=VECTOR('',#455,1.);
#158=FACE_BOUND('',#171,.T.);
#159=FACE_BOUND('',#172,.T.);
#160=FACE_BOUND('',#173,.T.);
#161=FACE_BOUND('',#174,.T.);
#162=FACE_BOUND('',#175,.T.);
#163=FACE_BOUND('',#189,.T.);
#164=FACE_BOUND('',#190,.T.);
#165=FACE_BOUND('',#192,.T.);
#166=FACE_BOUND('',#193,.T.);
#167=FACE_BOUND('',#195,.T.);
#168=FACE_BOUND('',#196,.T.);
#169=FACE_BOUND('',#198,.T.);
#170=FACE_BOUND('',#199,.T.);
#171=EDGE_LOOP('',(#200));
#172=EDGE_LOOP('',(#201));
#173=EDGE_LOOP('',(#202));
#174=EDGE_LOOP('',(#203));
#175=EDGE_LOOP('',(#204,#205,#206,#207));
#176=EDGE_LOOP('',(#208,#209,#210,#211));
#177=EDGE_LOOP('',(#212,#213,#214,#215));
#178=EDGE_LOOP('',(#216,#217,#218,#219));
#179=EDGE_LOOP('',(#220,#221,#222,#223,#224,#225,#226,#227,#228));
#180=EDGE_LOOP('',(#229,#230,#231,#232,#233));
#181=EDGE_LOOP('',(#234,#235,#236,#237));
#182=EDGE_LOOP('',(#238,#239,#240,#241,#242,#243,#244,#245,#246));
#183=EDGE_LOOP('',(#247,#248,#249,#250));
#184=EDGE_LOOP('',(#251,#252,#253,#254,#255));
#185=EDGE_LOOP('',(#256,#257,#258,#259,#260));
#186=EDGE_LOOP('',(#261,#262,#263,#264,#265));
#187=EDGE_LOOP('',(#266,#267,#268,#269));
#188=EDGE_LOOP('',(#270));
#189=EDGE_LOOP('',(#271));
#190=EDGE_LOOP('',(#272));
#191=EDGE_LOOP('',(#273));
#192=EDGE_LOOP('',(#274));
#193=EDGE_LOOP('',(#275));
#194=EDGE_LOOP('',(#276));
#195=EDGE_LOOP('',(#277));
#196=EDGE_LOOP('',(#278));
#197=EDGE_LOOP('',(#279));
#198=EDGE_LOOP('',(#280));
#199=EDGE_LOOP('',(#281));
#200=ORIENTED_EDGE('',*,*,#312,.F.);
#201=ORIENTED_EDGE('',*,*,#313,.F.);
#202=ORIENTED_EDGE('',*,*,#314,.F.);
#203=ORIENTED_EDGE('',*,*,#315,.F.);
#204=ORIENTED_EDGE('',*,*,#316,.F.);
#205=ORIENTED_EDGE('',*,*,#317,.F.);
#206=ORIENTED_EDGE('',*,*,#318,.T.);
#207=ORIENTED_EDGE('',*,*,#319,.T.);
#208=ORIENTED_EDGE('',*,*,#320,.F.);
#209=ORIENTED_EDGE('',*,*,#319,.F.);
#210=ORIENTED_EDGE('',*,*,#321,.T.);
#211=ORIENTED_EDGE('',*,*,#322,.F.);
#212=ORIENTED_EDGE('',*,*,#323,.F.);
#213=ORIENTED_EDGE('',*,*,#324,.T.);
#214=ORIENTED_EDGE('',*,*,#325,.F.);
#215=ORIENTED_EDGE('',*,*,#326,.F.);
#216=ORIENTED_EDGE('',*,*,#327,.T.);
#217=ORIENTED_EDGE('',*,*,#328,.T.);
#218=ORIENTED_EDGE('',*,*,#329,.F.);
#219=ORIENTED_EDGE('',*,*,#330,.T.);
#220=ORIENTED_EDGE('',*,*,#331,.F.);
#221=ORIENTED_EDGE('',*,*,#332,.F.);
#222=ORIENTED_EDGE('',*,*,#333,.F.);
#223=ORIENTED_EDGE('',*,*,#326,.T.);
#224=ORIENTED_EDGE('',*,*,#334,.F.);
#225=ORIENTED_EDGE('',*,*,#335,.T.);
#226=ORIENTED_EDGE('',*,*,#329,.T.);
#227=ORIENTED_EDGE('',*,*,#336,.T.);
#228=ORIENTED_EDGE('',*,*,#317,.T.);
#229=ORIENTED_EDGE('',*,*,#325,.T.);
#230=ORIENTED_EDGE('',*,*,#337,.T.);
#231=ORIENTED_EDGE('',*,*,#338,.F.);
#232=ORIENTED_EDGE('',*,*,#339,.T.);
#233=ORIENTED_EDGE('',*,*,#334,.T.);
#234=ORIENTED_EDGE('',*,*,#340,.F.);
#235=ORIENTED_EDGE('',*,*,#330,.F.);
#236=ORIENTED_EDGE('',*,*,#335,.F.);
#237=ORIENTED_EDGE('',*,*,#339,.F.);
#238=ORIENTED_EDGE('',*,*,#341,.F.);
#239=ORIENTED_EDGE('',*,*,#322,.T.);
#240=ORIENTED_EDGE('',*,*,#342,.T.);
#241=ORIENTED_EDGE('',*,*,#327,.F.);
#242=ORIENTED_EDGE('',*,*,#340,.T.);
#243=ORIENTED_EDGE('',*,*,#338,.T.);
#244=ORIENTED_EDGE('',*,*,#343,.T.);
#245=ORIENTED_EDGE('',*,*,#344,.F.);
#246=ORIENTED_EDGE('',*,*,#345,.F.);
#247=ORIENTED_EDGE('',*,*,#346,.F.);
#248=ORIENTED_EDGE('',*,*,#343,.F.);
#249=ORIENTED_EDGE('',*,*,#337,.F.);
#250=ORIENTED_EDGE('',*,*,#324,.F.);
#251=ORIENTED_EDGE('',*,*,#321,.F.);
#252=ORIENTED_EDGE('',*,*,#318,.F.);
#253=ORIENTED_EDGE('',*,*,#336,.F.);
#254=ORIENTED_EDGE('',*,*,#328,.F.);
#255=ORIENTED_EDGE('',*,*,#342,.F.);
#256=ORIENTED_EDGE('',*,*,#331,.T.);
#257=ORIENTED_EDGE('',*,*,#316,.T.);
#258=ORIENTED_EDGE('',*,*,#320,.T.);
#259=ORIENTED_EDGE('',*,*,#341,.T.);
#260=ORIENTED_EDGE('',*,*,#347,.T.);
#261=ORIENTED_EDGE('',*,*,#333,.T.);
#262=ORIENTED_EDGE('',*,*,#348,.T.);
#263=ORIENTED_EDGE('',*,*,#344,.T.);
#264=ORIENTED_EDGE('',*,*,#346,.T.);
#265=ORIENTED_EDGE('',*,*,#323,.T.);
#266=ORIENTED_EDGE('',*,*,#332,.T.);
#267=ORIENTED_EDGE('',*,*,#347,.F.);
#268=ORIENTED_EDGE('',*,*,#345,.T.);
#269=ORIENTED_EDGE('',*,*,#348,.F.);
#270=ORIENTED_EDGE('',*,*,#349,.F.);
#271=ORIENTED_EDGE('',*,*,#315,.T.);
#272=ORIENTED_EDGE('',*,*,#349,.T.);
#273=ORIENTED_EDGE('',*,*,#350,.F.);
#274=ORIENTED_EDGE('',*,*,#314,.T.);
#275=ORIENTED_EDGE('',*,*,#350,.T.);
#276=ORIENTED_EDGE('',*,*,#351,.F.);
#277=ORIENTED_EDGE('',*,*,#313,.T.);
#278=ORIENTED_EDGE('',*,*,#351,.T.);
#279=ORIENTED_EDGE('',*,*,#352,.F.);
#280=ORIENTED_EDGE('',*,*,#312,.T.);
#281=ORIENTED_EDGE('',*,*,#352,.T.);
#282=VERTEX_POINT('',#486);
#283=VERTEX_POINT('',#488);
#284=VERTEX_POINT('',#490);
#285=VERTEX_POINT('',#492);
#286=VERTEX_POINT('',#494);
#287=VERTEX_POINT('',#495);
#288=VERTEX_POINT('',#497);
#289=VERTEX_POINT('',#499);
#290=VERTEX_POINT('',#503);
#291=VERTEX_POINT('',#505);
#292=VERTEX_POINT('',#509);
#293=VERTEX_POINT('',#510);
#294=VERTEX_POINT('',#512);
#295=VERTEX_POINT('',#514);
#296=VERTEX_POINT('',#518);
#297=VERTEX_POINT('',#519);
#298=VERTEX_POINT('',#521);
#299=VERTEX_POINT('',#523);
#300=VERTEX_POINT('',#527);
#301=VERTEX_POINT('',#529);
#302=VERTEX_POINT('',#532);
#303=VERTEX_POINT('',#537);
#304=VERTEX_POINT('',#539);
#305=VERTEX_POINT('',#545);
#306=VERTEX_POINT('',#548);
#307=VERTEX_POINT('',#550);
#308=VERTEX_POINT('',#562);
#309=VERTEX_POINT('',#566);
#310=VERTEX_POINT('',#570);
#311=VERTEX_POINT('',#574);
#312=EDGE_CURVE('',#282,#282,#353,.T.);
#313=EDGE_CURVE('',#283,#283,#354,.T.);
#314=EDGE_CURVE('',#284,#284,#355,.T.);
#315=EDGE_CURVE('',#285,#285,#356,.T.);
#316=EDGE_CURVE('',#286,#287,#92,.T.);
#317=EDGE_CURVE('',#288,#286,#93,.T.);
#318=EDGE_CURVE('',#288,#289,#94,.T.);
#319=EDGE_CURVE('',#289,#287,#95,.T.);
#320=EDGE_CURVE('',#287,#290,#96,.T.);
#321=EDGE_CURVE('',#289,#291,#97,.T.);
#322=EDGE_CURVE('',#290,#291,#98,.T.);
#323=EDGE_CURVE('',#292,#293,#99,.T.);
#324=EDGE_CURVE('',#292,#294,#100,.T.);
#325=EDGE_CURVE('',#295,#294,#101,.T.);
#326=EDGE_CURVE('',#293,#295,#102,.T.);
#327=EDGE_CURVE('',#296,#297,#103,.T.);
#328=EDGE_CURVE('',#297,#298,#104,.T.);
#329=EDGE_CURVE('',#299,#298,#105,.T.);
#330=EDGE_CURVE('',#299,#296,#106,.T.);
#331=EDGE_CURVE('',#300,#286,#107,.T.);
#332=EDGE_CURVE('',#301,#300,#108,.T.);
#333=EDGE_CURVE('',#293,#301,#109,.T.);
#334=EDGE_CURVE('',#302,#295,#110,.T.);
#335=EDGE_CURVE('',#302,#299,#111,.T.);
#336=EDGE_CURVE('',#298,#288,#112,.T.);
#337=EDGE_CURVE('',#294,#303,#113,.T.);
#338=EDGE_CURVE('',#304,#303,#114,.T.);
#339=EDGE_CURVE('',#304,#302,#115,.T.);
#340=EDGE_CURVE('',#296,#304,#116,.T.);
#341=EDGE_CURVE('',#290,#305,#117,.T.);
#342=EDGE_CURVE('',#291,#297,#118,.T.);
#343=EDGE_CURVE('',#303,#306,#119,.T.);
#344=EDGE_CURVE('',#307,#306,#120,.T.);
#345=EDGE_CURVE('',#305,#307,#121,.T.);
#346=EDGE_CURVE('',#306,#292,#122,.T.);
#347=EDGE_CURVE('',#305,#300,#123,.T.);
#348=EDGE_CURVE('',#301,#307,#124,.T.);
#349=EDGE_CURVE('',#308,#308,#357,.T.);
#350=EDGE_CURVE('',#309,#309,#358,.T.);
#351=EDGE_CURVE('',#310,#310,#359,.T.);
#352=EDGE_CURVE('',#311,#311,#360,.T.);
#353=CIRCLE('',#362,3.1);
#354=CIRCLE('',#363,3.1);
#355=CIRCLE('',#364,3.1);
#356=CIRCLE('',#365,3.1);
#357=CIRCLE('',#379,3.1);
#358=CIRCLE('',#382,3.1);
#359=CIRCLE('',#385,3.1);
#360=CIRCLE('',#388,3.1);
#361=AXIS2_PLACEMENT_3D('',#484,#391,#392);
#362=AXIS2_PLACEMENT_3D('',#485,#393,#394);
#363=AXIS2_PLACEMENT_3D('',#487,#395,#396);
#364=AXIS2_PLACEMENT_3D('',#489,#397,#398);
#365=AXIS2_PLACEMENT_3D('',#491,#399,#400);
#366=AXIS2_PLACEMENT_3D('',#501,#405,#406);
#367=AXIS2_PLACEMENT_3D('',#507,#410,#411);
#368=AXIS2_PLACEMENT_3D('',#516,#416,#417);
#369=AXIS2_PLACEMENT_3D('',#525,#422,#423);
#370=AXIS2_PLACEMENT_3D('',#535,#430,#431);
#371=AXIS2_PLACEMENT_3D('',#541,#435,#436);
#372=AXIS2_PLACEMENT_3D('',#543,#438,#439);
#373=AXIS2_PLACEMENT_3D('',#552,#445,#446);
#374=AXIS2_PLACEMENT_3D('',#554,#448,#449);
#375=AXIS2_PLACEMENT_3D('',#555,#450,#451);
#376=AXIS2_PLACEMENT_3D('',#557,#453,#454);
#377=AXIS2_PLACEMENT_3D('',#559,#456,#457);
#378=AXIS2_PLACEMENT_3D('',#560,#458,#459);
#379=AXIS2_PLACEMENT_3D('',#561,#460,#461);
#380=AXIS2_PLACEMENT_3D('',#563,#462,#463);
#381=AXIS2_PLACEMENT_3D('',#564,#464,#465);
#382=AXIS2_PLACEMENT_3D('',#565,#466,#467);
#383=AXIS2_PLACEMENT_3D('',#567,#468,#469);
#384=AXIS2_PLACEMENT_3D('',#568,#470,#471);
#385=AXIS2_PLACEMENT_3D('',#569,#472,#473);
#386=AXIS2_PLACEMENT_3D('',#571,#474,#475);
#387=AXIS2_PLACEMENT_3D('',#572,#476,#477);
#388=AXIS2_PLACEMENT_3D('',#573,#478,#479);
#389=AXIS2_PLACEMENT_3D('',#575,#480,#481);
#390=AXIS2_PLACEMENT_3D('',#576,#482,#483);
#391=DIRECTION('',(0.,0.,1.));
#392=DIRECTION('',(1.,0.,0.));
#393=DIRECTION('',(0.,0.,1.));
#394=DIRECTION('',(0.999999999999997,0.,0.));
#395=DIRECTION('',(0.,0.,1.));
#396=DIRECTION('',(0.999999999999997,0.,0.));
#397=DIRECTION('',(0.,0.,1.));
#398=DIRECTION('',(0.999999999999997,0.,0.));
#399=DIRECTION('',(0.,0.,1.));
#400=DIRECTION('',(0.999999999999999,0.,0.));
#401=DIRECTION('',(1.,0.,0.));
#402=DIRECTION('',(0.,1.,0.));
#403=DIRECTION('',(1.,0.,0.));
#404=DIRECTION('',(0.,1.,0.));
#405=DIRECTION('',(0.,0.,1.));
#406=DIRECTION('',(1.,0.,0.));
#407=DIRECTION('',(0.70710678118655,0.,-0.707106781186545));
#408=DIRECTION('',(0.577350269189629,-0.577350269189624,-0.577350269189624));
#409=DIRECTION('',(0.,-1.,0.));
#410=DIRECTION('',(-0.707106781186545,0.,-0.70710678118655));
#411=DIRECTION('',(0.,-1.,0.));
#412=DIRECTION('',(-1.,0.,0.));
#413=DIRECTION('',(0.,1.,0.));
#414=DIRECTION('',(1.,0.,0.));
#415=DIRECTION('',(0.,1.,0.));
#416=DIRECTION('',(0.,0.,1.));
#417=DIRECTION('',(1.,0.,0.));
#418=DIRECTION('',(0.,0.,1.));
#419=DIRECTION('',(-1.,0.,0.));
#420=DIRECTION('',(0.,0.,1.));
#421=DIRECTION('',(1.,0.,0.));
#422=DIRECTION('',(0.,-1.,0.));
#423=DIRECTION('',(0.,0.,-1.));
#424=DIRECTION('',(0.,0.,1.));
#425=DIRECTION('',(0.,-1.,0.));
#426=DIRECTION('',(0.,0.,-1.));
#427=DIRECTION('',(0.,0.,1.));
#428=DIRECTION('',(0.,-1.,0.));
#429=DIRECTION('',(0.,0.707106781186548,0.707106781186548));
#430=DIRECTION('',(-1.,0.,0.));
#431=DIRECTION('',(0.,0.,1.));
#432=DIRECTION('',(0.70710678118655,0.,-0.707106781186545));
#433=DIRECTION('',(0.,0.,1.));
#434=DIRECTION('',(-1.,0.,0.));
#435=DIRECTION('',(0.,1.,0.));
#436=DIRECTION('',(0.,0.,1.));
#437=DIRECTION('',(0.,1.,0.));
#438=DIRECTION('',(0.,0.,-1.));
#439=DIRECTION('',(-1.,0.,0.));
#440=DIRECTION('',(0.,0.,-1.));
#441=DIRECTION('',(0.,-0.707106781186548,-0.707106781186548));
#442=DIRECTION('',(0.,-1.,0.));
#443=DIRECTION('',(0.,0.,1.));
#444=DIRECTION('',(0.,1.,0.));
#445=DIRECTION('',(1.,0.,0.));
#446=DIRECTION('',(0.,0.,-1.));
#447=DIRECTION('',(-0.70710678118655,0.,0.707106781186545));
#448=DIRECTION('',(-0.707106781186545,0.,-0.70710678118655));
#449=DIRECTION('',(0.,-1.,0.));
#450=DIRECTION('',(0.,0.707106781186547,-0.707106781186547));
#451=DIRECTION('',(-1.,0.,0.));
#452=DIRECTION('',(-1.,0.,0.));
#453=DIRECTION('',(0.,-1.,0.));
#454=DIRECTION('',(0.,0.,-1.));
#455=DIRECTION('',(1.,0.,0.));
#456=DIRECTION('',(0.,1.,0.));
#457=DIRECTION('',(0.,0.,1.));
#458=DIRECTION('',(0.,0.,-1.));
#459=DIRECTION('',(-1.,0.,0.));
#460=DIRECTION('',(0.,0.,-1.));
#461=DIRECTION('',(0.999999999999999,0.,0.));
#462=DIRECTION('',(0.,0.,-1.));
#463=DIRECTION('',(-1.,0.,0.));
#464=DIRECTION('',(0.,0.,-1.));
#465=DIRECTION('',(0.999999999999999,0.,0.));
#466=DIRECTION('',(0.,0.,-1.));
#467=DIRECTION('',(0.999999999999997,0.,0.));
#468=DIRECTION('',(0.,0.,-1.));
#469=DIRECTION('',(-1.,0.,0.));
#470=DIRECTION('',(0.,0.,-1.));
#471=DIRECTION('',(0.999999999999997,0.,0.));
#472=DIRECTION('',(0.,0.,-1.));
#473=DIRECTION('',(0.999999999999997,0.,0.));
#474=DIRECTION('',(0.,0.,-1.));
#475=DIRECTION('',(-1.,0.,0.));
#476=DIRECTION('',(0.,0.,-1.));
#477=DIRECTION('',(0.999999999999997,0.,0.));
#478=DIRECTION('',(0.,0.,-1.));
#479=DIRECTION('',(0.999999999999997,0.,0.));
#480=DIRECTION('',(0.,0.,-1.));
#481=DIRECTION('',(-1.,0.,0.));
#482=DIRECTION('',(0.,0.,-1.));
#483=DIRECTION('',(0.999999999999997,0.,0.));
#484=CARTESIAN_POINT('',(0.,0.,0.));
#485=CARTESIAN_POINT('',(419.8,94.4,126.2));
#486=CARTESIAN_POINT('',(422.9,94.4,126.2));
#487=CARTESIAN_POINT('',(298.7,94.4,126.2));
#488=CARTESIAN_POINT('',(301.8,94.4,126.2));
#489=CARTESIAN_POINT('',(177.6,94.4,126.2));
#490=CARTESIAN_POINT('',(180.7,94.4,126.2));
#491=CARTESIAN_POINT('',(56.4,94.4,126.2));
#492=CARTESIAN_POINT('',(59.5,94.4,126.2));
#493=CARTESIAN_POINT('',(246.25,98.2,126.2));
#494=CARTESIAN_POINT('',(0.,98.2,126.2));
#495=CARTESIAN_POINT('',(489.2,98.2,126.2));
#496=CARTESIAN_POINT('',(0.,174.75,126.2));
#497=CARTESIAN_POINT('',(0.,22.,126.2));
#498=CARTESIAN_POINT('',(246.25,22.,126.2));
#499=CARTESIAN_POINT('',(489.2,22.,126.2));
#500=CARTESIAN_POINT('',(489.2,174.75,126.2));
#501=CARTESIAN_POINT('',(246.25,174.75,126.2));
#502=CARTESIAN_POINT('',(492.5,98.2,122.9));
#503=CARTESIAN_POINT('',(492.5,98.2,122.9));
#504=CARTESIAN_POINT('',(440.483333333333,70.7166666666664,174.916666666666));
#505=CARTESIAN_POINT('',(492.5,18.7,122.9));
#506=CARTESIAN_POINT('',(492.5,174.75,122.9));
#507=CARTESIAN_POINT('',(492.5,174.75,122.9));
#508=CARTESIAN_POINT('',(246.25,139.8,126.2));
#509=CARTESIAN_POINT('',(489.2,139.8,126.2));
#510=CARTESIAN_POINT('',(0.,139.8,126.2));
#511=CARTESIAN_POINT('',(489.2,174.75,126.2));
#512=CARTESIAN_POINT('',(489.2,349.5,126.2));
#513=CARTESIAN_POINT('',(246.25,349.5,126.2));
#514=CARTESIAN_POINT('',(0.,349.5,126.2));
#515=CARTESIAN_POINT('',(0.,174.75,126.2));
#516=CARTESIAN_POINT('',(246.25,174.75,126.2));
#517=CARTESIAN_POINT('',(492.5,0.,0.));
#518=CARTESIAN_POINT('',(492.5,0.,0.));
#519=CARTESIAN_POINT('',(492.5,0.,104.2));
#520=CARTESIAN_POINT('',(246.25,0.,104.2));
#521=CARTESIAN_POINT('',(0.,0.,104.2));
#522=CARTESIAN_POINT('',(0.,0.,0.));
#523=CARTESIAN_POINT('',(0.,0.,0.));
#524=CARTESIAN_POINT('',(246.25,0.,0.));
#525=CARTESIAN_POINT('',(246.25,0.,0.));
#526=CARTESIAN_POINT('',(0.,98.2,0.));
#527=CARTESIAN_POINT('',(0.,98.2,76.6));
#528=CARTESIAN_POINT('',(0.,174.75,76.6));
#529=CARTESIAN_POINT('',(0.,139.8,76.6));
#530=CARTESIAN_POINT('',(0.,139.8,0.));
#531=CARTESIAN_POINT('',(0.,349.5,0.));
#532=CARTESIAN_POINT('',(0.,349.5,0.));
#533=CARTESIAN_POINT('',(0.,174.75,0.));
#534=CARTESIAN_POINT('',(0.,35.275,139.475));
#535=CARTESIAN_POINT('',(0.,174.75,0.));
#536=CARTESIAN_POINT('',(430.824999999999,349.5,184.575000000001));
#537=CARTESIAN_POINT('',(492.5,349.5,122.9));
#538=CARTESIAN_POINT('',(492.5,349.5,0.));
#539=CARTESIAN_POINT('',(492.5,349.5,0.));
#540=CARTESIAN_POINT('',(246.25,349.5,0.));
#541=CARTESIAN_POINT('',(246.25,349.5,0.));
#542=CARTESIAN_POINT('',(492.5,174.75,0.));
#543=CARTESIAN_POINT('',(246.25,174.75,0.));
#544=CARTESIAN_POINT('',(492.5,98.2,0.));
#545=CARTESIAN_POINT('',(492.5,98.2,76.6));
#546=CARTESIAN_POINT('',(492.5,35.275,139.475));
#547=CARTESIAN_POINT('',(492.5,174.75,122.9));
#548=CARTESIAN_POINT('',(492.5,139.8,122.9));
#549=CARTESIAN_POINT('',(492.5,139.8,0.));
#550=CARTESIAN_POINT('',(492.5,139.8,76.6));
#551=CARTESIAN_POINT('',(492.5,174.75,76.6));
#552=CARTESIAN_POINT('',(492.5,174.75,0.));
#553=CARTESIAN_POINT('',(492.5,139.8,122.9));
#554=CARTESIAN_POINT('',(492.5,174.75,122.9));
#555=CARTESIAN_POINT('',(246.25,0.,104.2));
#556=CARTESIAN_POINT('',(246.25,98.2,76.6));
#557=CARTESIAN_POINT('',(246.25,98.2,76.6));
#558=CARTESIAN_POINT('',(246.25,139.8,76.6));
#559=CARTESIAN_POINT('',(246.25,139.8,76.6));
#560=CARTESIAN_POINT('',(246.25,119.,76.6));
#561=CARTESIAN_POINT('',(56.4,94.4,63.3));
#562=CARTESIAN_POINT('',(59.5,94.4,63.3));
#563=CARTESIAN_POINT('',(56.4,94.4,63.3));
#564=CARTESIAN_POINT('',(56.4,94.4,126.25));
#565=CARTESIAN_POINT('',(177.6,94.4,63.3));
#566=CARTESIAN_POINT('',(180.7,94.4,63.3));
#567=CARTESIAN_POINT('',(177.6,94.4,63.3));
#568=CARTESIAN_POINT('',(177.6,94.4,126.25));
#569=CARTESIAN_POINT('',(298.7,94.4,63.3));
#570=CARTESIAN_POINT('',(301.8,94.4,63.3));
#571=CARTESIAN_POINT('',(298.7,94.4,63.3));
#572=CARTESIAN_POINT('',(298.7,94.4,126.25));
#573=CARTESIAN_POINT('',(419.8,94.4,63.3));
#574=CARTESIAN_POINT('',(422.9,94.4,63.3));
#575=CARTESIAN_POINT('',(419.8,94.4,63.3));
#576=CARTESIAN_POINT('',(419.8,94.4,126.25));
#577=MECHANICAL_DESIGN_GEOMETRIC_PRESENTATION_REPRESENTATION('',(#24),#578);
#578=(
GEOMETRIC_REPRESENTATION_CONTEXT(3)
GLOBAL_UNCERTAINTY_ASSIGNED_CONTEXT((#579))
GLOBAL_UNIT_ASSIGNED_CONTEXT((#585,#581,#580))
REPRESENTATION_CONTEXT('featured_part_09400','TOP_LEVEL_ASSEMBLY_PART')
);
#579=UNCERTAINTY_MEASURE_WITH_UNIT(LENGTH_MEASURE(2.E-5),#585,
'DISTANCE_ACCURACY_VALUE','Maximum Tolerance applied to model');
#580=(
NAMED_UNIT(*)
SI_UNIT($,.STERADIAN.)
SOLID_ANGLE_UNIT()
);
#581=(
CONVERSION_BASED_UNIT('DEGREE',#583)
NAMED_UNIT(#582)
PLANE_ANGLE_UNIT()
);
#582=DIMENSIONAL_EXPONENTS(0.,0.,0.,0.,0.,0.,0.);
#583=PLANE_ANGLE_MEASURE_WITH_UNIT(PLANE_ANGLE_MEASURE(0.0174532925),#584);
#584=(
NAMED_UNIT(*)
PLANE_ANGLE_UNIT()
SI_UNIT($,.RADIAN.)
);
#585=(
LENGTH_UNIT()
NAMED_UNIT(*)
SI_UNIT(.MILLI.,.METRE.)
);
ENDSEC;
END-ISO-10303-21;
