ISO-10303-21;
HEADER;
/* Generated by software containing ST-Developer
 * from STEP Tools, Inc. (www.steptools.com) 
 */
/* OPTION: using custom schema-name function */

FILE_DESCRIPTION(
/* description */ (''),
/* implementation_level */ '2;1');

FILE_NAME(
/* name */ 'featured_part_11046.stp',
/* time_stamp */ '2026-07-16T09:08:30-04:00',
/* author */ (''),
/* organization */ (''),
/* preprocessor_version */ 'ST-DEVELOPER v20.1',
/* originating_system */ 'SIEMENS PLM Software NX2512.6002',
/* authorisation */ '');

FILE_SCHEMA (('AUTOMOTIVE_DESIGN { 1 0 10303 214 3 1 1 1 }'));
ENDSEC;

DATA;
#10=SHAPE_REPRESENTATION_RELATIONSHIP('None',
'relationship between featured_part_11046-None and featured_part_11046
-None',#22,#11);
#11=ADVANCED_BREP_SHAPE_REPRESENTATION('featured_part_11046-None',(#32),
#523);
#12=SHAPE_DEFINITION_REPRESENTATION(#13,#22);
#13=PRODUCT_DEFINITION_SHAPE('','',#14);
#14=PRODUCT_DEFINITION(' ','',#16,#15);
#15=PRODUCT_DEFINITION_CONTEXT('part definition',#21,'design');
#16=PRODUCT_DEFINITION_FORMATION_WITH_SPECIFIED_SOURCE(' ',' ',#18,
 .NOT_KNOWN.);
#17=PRODUCT_RELATED_PRODUCT_CATEGORY('part','',(#18));
#18=PRODUCT('featured_part_11046','featured_part_11046',' ',(#19));
#19=PRODUCT_CONTEXT(' ',#21,'mechanical');
#20=APPLICATION_PROTOCOL_DEFINITION('international standard',
'automotive_design',2010,#21);
#21=APPLICATION_CONTEXT(
'core data for automotive mechanical design processes');
#22=SHAPE_REPRESENTATION('featured_part_11046-None',(#330),#523);
#23=PRESENTATION_LAYER_ASSIGNMENT('1','Layer 1',(#32));
#24=STYLED_ITEM('',(#25),#32);
#25=PRESENTATION_STYLE_ASSIGNMENT((#26));
#26=SURFACE_STYLE_USAGE(.BOTH.,#27);
#27=SURFACE_SIDE_STYLE('',(#28));
#28=SURFACE_STYLE_FILL_AREA(#29);
#29=FILL_AREA_STYLE('',(#30));
#30=FILL_AREA_STYLE_COLOUR('',#31);
#31=COLOUR_RGB('medium steel',0.611764705882353,0.658823529411765,0.670588235294118);
#32=MANIFOLD_SOLID_BREP('',#33);
#33=CLOSED_SHELL('',(#49,#50,#51,#52,#53,#54,#55,#56,#57,#58,#59,#60,#61,
#62,#63,#64));
#34=CYLINDRICAL_SURFACE('',#351,14.1);
#35=CYLINDRICAL_SURFACE('',#352,14.1);
#36=CYLINDRICAL_SURFACE('',#353,9.6);
#37=CYLINDRICAL_SURFACE('',#354,11.5);
#38=FACE_OUTER_BOUND('',#154,.T.);
#39=FACE_OUTER_BOUND('',#155,.T.);
#40=FACE_OUTER_BOUND('',#156,.T.);
#41=FACE_OUTER_BOUND('',#160,.T.);
#42=FACE_OUTER_BOUND('',#161,.T.);
#43=FACE_OUTER_BOUND('',#162,.T.);
#44=FACE_OUTER_BOUND('',#163,.T.);
#45=FACE_OUTER_BOUND('',#164,.T.);
#46=FACE_OUTER_BOUND('',#167,.T.);
#47=FACE_OUTER_BOUND('',#168,.T.);
#48=FACE_OUTER_BOUND('',#169,.T.);
#49=ADVANCED_FACE('',(#141,#142),#65,.T.);
#50=ADVANCED_FACE('',(#38),#66,.T.);
#51=ADVANCED_FACE('',(#39),#67,.T.);
#52=ADVANCED_FACE('',(#40),#68,.T.);
#53=ADVANCED_FACE('',(#143,#144,#145),#69,.T.);
#54=ADVANCED_FACE('',(#41),#70,.T.);
#55=ADVANCED_FACE('',(#42),#71,.F.);
#56=ADVANCED_FACE('',(#43),#72,.F.);
#57=ADVANCED_FACE('',(#44),#73,.F.);
#58=ADVANCED_FACE('',(#45),#74,.F.);
#59=ADVANCED_FACE('',(#146,#147),#75,.F.);
#60=ADVANCED_FACE('',(#46),#76,.F.);
#61=ADVANCED_FACE('',(#47),#34,.F.);
#62=ADVANCED_FACE('',(#48),#35,.F.);
#63=ADVANCED_FACE('',(#148,#149),#36,.F.);
#64=ADVANCED_FACE('',(#150,#151),#37,.F.);
#65=PLANE('',#334);
#66=PLANE('',#335);
#67=PLANE('',#336);
#68=PLANE('',#337);
#69=PLANE('',#340);
#70=PLANE('',#341);
#71=PLANE('',#342);
#72=PLANE('',#343);
#73=PLANE('',#344);
#74=PLANE('',#345);
#75=PLANE('',#349);
#76=PLANE('',#350);
#77=LINE('',#440,#109);
#78=LINE('',#443,#110);
#79=LINE('',#445,#111);
#80=LINE('',#447,#112);
#81=LINE('',#449,#113);
#82=LINE('',#451,#114);
#83=LINE('',#453,#115);
#84=LINE('',#457,#116);
#85=LINE('',#461,#117);
#86=LINE('',#464,#118);
#87=LINE('',#465,#119);
#88=LINE('',#467,#120);
#89=LINE('',#469,#121);
#90=LINE('',#471,#122);
#91=LINE('',#473,#123);
#92=LINE('',#475,#124);
#93=LINE('',#477,#125);
#94=LINE('',#479,#126);
#95=LINE('',#481,#127);
#96=LINE('',#482,#128);
#97=LINE('',#484,#129);
#98=LINE('',#486,#130);
#99=LINE('',#487,#131);
#100=LINE('',#493,#132);
#101=LINE('',#495,#133);
#102=LINE('',#499,#134);
#103=LINE('',#502,#135);
#104=LINE('',#503,#136);
#105=LINE('',#505,#137);
#106=LINE('',#507,#138);
#107=LINE('',#514,#139);
#108=LINE('',#516,#140);
#109=VECTOR('',#359,1.);
#110=VECTOR('',#360,1.);
#111=VECTOR('',#361,1.);
#112=VECTOR('',#362,1.);
#113=VECTOR('',#363,1.);
#114=VECTOR('',#364,1.);
#115=VECTOR('',#365,1.);
#116=VECTOR('',#368,1.);
#117=VECTOR('',#373,1.);
#118=VECTOR('',#374,1.);
#119=VECTOR('',#375,1.);
#120=VECTOR('',#376,1.);
#121=VECTOR('',#377,1.);
#122=VECTOR('',#380,1.);
#123=VECTOR('',#381,1.);
#124=VECTOR('',#382,1.);
#125=VECTOR('',#385,1.);
#126=VECTOR('',#386,1.);
#127=VECTOR('',#387,1.);
#128=VECTOR('',#388,1.);
#129=VECTOR('',#389,1.);
#130=VECTOR('',#390,1.);
#131=VECTOR('',#391,1.);
#132=VECTOR('',#398,1.);
#133=VECTOR('',#401,1.);
#134=VECTOR('',#408,1.);
#135=VECTOR('',#409,1.);
#136=VECTOR('',#410,1.);
#137=VECTOR('',#413,1.);
#138=VECTOR('',#414,1.);
#139=VECTOR('',#423,1.);
#140=VECTOR('',#426,1.);
#141=FACE_BOUND('',#152,.T.);
#142=FACE_BOUND('',#153,.T.);
#143=FACE_BOUND('',#157,.T.);
#144=FACE_BOUND('',#158,.T.);
#145=FACE_BOUND('',#159,.T.);
#146=FACE_BOUND('',#165,.T.);
#147=FACE_BOUND('',#166,.T.);
#148=FACE_BOUND('',#170,.T.);
#149=FACE_BOUND('',#171,.T.);
#150=FACE_BOUND('',#172,.T.);
#151=FACE_BOUND('',#173,.T.);
#152=EDGE_LOOP('',(#174));
#153=EDGE_LOOP('',(#175,#176,#177,#178,#179,#180,#181,#182,#183,#184));
#154=EDGE_LOOP('',(#185,#186,#187,#188,#189,#190));
#155=EDGE_LOOP('',(#191,#192,#193,#194));
#156=EDGE_LOOP('',(#195,#196,#197,#198,#199,#200,#201,#202,#203,#204));
#157=EDGE_LOOP('',(#205));
#158=EDGE_LOOP('',(#206));
#159=EDGE_LOOP('',(#207,#208,#209,#210));
#160=EDGE_LOOP('',(#211,#212,#213,#214));
#161=EDGE_LOOP('',(#215,#216,#217,#218));
#162=EDGE_LOOP('',(#219,#220,#221,#222));
#163=EDGE_LOOP('',(#223,#224,#225,#226));
#164=EDGE_LOOP('',(#227,#228,#229,#230));
#165=EDGE_LOOP('',(#231));
#166=EDGE_LOOP('',(#232,#233,#234,#235,#236,#237));
#167=EDGE_LOOP('',(#238,#239,#240,#241));
#168=EDGE_LOOP('',(#242,#243,#244,#245));
#169=EDGE_LOOP('',(#246,#247,#248,#249));
#170=EDGE_LOOP('',(#250));
#171=EDGE_LOOP('',(#251));
#172=EDGE_LOOP('',(#252));
#173=EDGE_LOOP('',(#253));
#174=ORIENTED_EDGE('',*,*,#282,.F.);
#175=ORIENTED_EDGE('',*,*,#283,.F.);
#176=ORIENTED_EDGE('',*,*,#284,.F.);
#177=ORIENTED_EDGE('',*,*,#285,.T.);
#178=ORIENTED_EDGE('',*,*,#286,.F.);
#179=ORIENTED_EDGE('',*,*,#287,.T.);
#180=ORIENTED_EDGE('',*,*,#288,.F.);
#181=ORIENTED_EDGE('',*,*,#289,.F.);
#182=ORIENTED_EDGE('',*,*,#290,.T.);
#183=ORIENTED_EDGE('',*,*,#291,.F.);
#184=ORIENTED_EDGE('',*,*,#292,.T.);
#185=ORIENTED_EDGE('',*,*,#293,.T.);
#186=ORIENTED_EDGE('',*,*,#294,.T.);
#187=ORIENTED_EDGE('',*,*,#286,.T.);
#188=ORIENTED_EDGE('',*,*,#295,.T.);
#189=ORIENTED_EDGE('',*,*,#296,.F.);
#190=ORIENTED_EDGE('',*,*,#297,.T.);
#191=ORIENTED_EDGE('',*,*,#296,.T.);
#192=ORIENTED_EDGE('',*,*,#298,.T.);
#193=ORIENTED_EDGE('',*,*,#299,.F.);
#194=ORIENTED_EDGE('',*,*,#300,.T.);
#195=ORIENTED_EDGE('',*,*,#301,.F.);
#196=ORIENTED_EDGE('',*,*,#302,.F.);
#197=ORIENTED_EDGE('',*,*,#303,.T.);
#198=ORIENTED_EDGE('',*,*,#288,.T.);
#199=ORIENTED_EDGE('',*,*,#304,.T.);
#200=ORIENTED_EDGE('',*,*,#305,.F.);
#201=ORIENTED_EDGE('',*,*,#306,.T.);
#202=ORIENTED_EDGE('',*,*,#299,.T.);
#203=ORIENTED_EDGE('',*,*,#307,.T.);
#204=ORIENTED_EDGE('',*,*,#284,.T.);
#205=ORIENTED_EDGE('',*,*,#308,.F.);
#206=ORIENTED_EDGE('',*,*,#309,.F.);
#207=ORIENTED_EDGE('',*,*,#310,.F.);
#208=ORIENTED_EDGE('',*,*,#297,.F.);
#209=ORIENTED_EDGE('',*,*,#300,.F.);
#210=ORIENTED_EDGE('',*,*,#306,.F.);
#211=ORIENTED_EDGE('',*,*,#305,.T.);
#212=ORIENTED_EDGE('',*,*,#311,.T.);
#213=ORIENTED_EDGE('',*,*,#293,.F.);
#214=ORIENTED_EDGE('',*,*,#310,.T.);
#215=ORIENTED_EDGE('',*,*,#295,.F.);
#216=ORIENTED_EDGE('',*,*,#285,.F.);
#217=ORIENTED_EDGE('',*,*,#307,.F.);
#218=ORIENTED_EDGE('',*,*,#298,.F.);
#219=ORIENTED_EDGE('',*,*,#304,.F.);
#220=ORIENTED_EDGE('',*,*,#287,.F.);
#221=ORIENTED_EDGE('',*,*,#294,.F.);
#222=ORIENTED_EDGE('',*,*,#311,.F.);
#223=ORIENTED_EDGE('',*,*,#312,.T.);
#224=ORIENTED_EDGE('',*,*,#313,.T.);
#225=ORIENTED_EDGE('',*,*,#291,.T.);
#226=ORIENTED_EDGE('',*,*,#314,.T.);
#227=ORIENTED_EDGE('',*,*,#283,.T.);
#228=ORIENTED_EDGE('',*,*,#315,.T.);
#229=ORIENTED_EDGE('',*,*,#316,.T.);
#230=ORIENTED_EDGE('',*,*,#301,.T.);
#231=ORIENTED_EDGE('',*,*,#317,.T.);
#232=ORIENTED_EDGE('',*,*,#316,.F.);
#233=ORIENTED_EDGE('',*,*,#318,.T.);
#234=ORIENTED_EDGE('',*,*,#312,.F.);
#235=ORIENTED_EDGE('',*,*,#319,.T.);
#236=ORIENTED_EDGE('',*,*,#320,.F.);
#237=ORIENTED_EDGE('',*,*,#302,.T.);
#238=ORIENTED_EDGE('',*,*,#320,.T.);
#239=ORIENTED_EDGE('',*,*,#321,.T.);
#240=ORIENTED_EDGE('',*,*,#289,.T.);
#241=ORIENTED_EDGE('',*,*,#303,.F.);
#242=ORIENTED_EDGE('',*,*,#292,.F.);
#243=ORIENTED_EDGE('',*,*,#313,.F.);
#244=ORIENTED_EDGE('',*,*,#318,.F.);
#245=ORIENTED_EDGE('',*,*,#315,.F.);
#246=ORIENTED_EDGE('',*,*,#290,.F.);
#247=ORIENTED_EDGE('',*,*,#321,.F.);
#248=ORIENTED_EDGE('',*,*,#319,.F.);
#249=ORIENTED_EDGE('',*,*,#314,.F.);
#250=ORIENTED_EDGE('',*,*,#282,.T.);
#251=ORIENTED_EDGE('',*,*,#309,.T.);
#252=ORIENTED_EDGE('',*,*,#308,.T.);
#253=ORIENTED_EDGE('',*,*,#317,.F.);
#254=VERTEX_POINT('',#439);
#255=VERTEX_POINT('',#441);
#256=VERTEX_POINT('',#442);
#257=VERTEX_POINT('',#444);
#258=VERTEX_POINT('',#446);
#259=VERTEX_POINT('',#448);
#260=VERTEX_POINT('',#450);
#261=VERTEX_POINT('',#452);
#262=VERTEX_POINT('',#454);
#263=VERTEX_POINT('',#456);
#264=VERTEX_POINT('',#458);
#265=VERTEX_POINT('',#462);
#266=VERTEX_POINT('',#463);
#267=VERTEX_POINT('',#466);
#268=VERTEX_POINT('',#468);
#269=VERTEX_POINT('',#472);
#270=VERTEX_POINT('',#474);
#271=VERTEX_POINT('',#478);
#272=VERTEX_POINT('',#480);
#273=VERTEX_POINT('',#483);
#274=VERTEX_POINT('',#485);
#275=VERTEX_POINT('',#490);
#276=VERTEX_POINT('',#492);
#277=VERTEX_POINT('',#500);
#278=VERTEX_POINT('',#501);
#279=VERTEX_POINT('',#506);
#280=VERTEX_POINT('',#510);
#281=VERTEX_POINT('',#513);
#282=EDGE_CURVE('',#254,#254,#322,.T.);
#283=EDGE_CURVE('',#255,#256,#77,.T.);
#284=EDGE_CURVE('',#257,#255,#78,.T.);
#285=EDGE_CURVE('',#257,#258,#79,.T.);
#286=EDGE_CURVE('',#259,#258,#80,.T.);
#287=EDGE_CURVE('',#259,#260,#81,.T.);
#288=EDGE_CURVE('',#261,#260,#82,.T.);
#289=EDGE_CURVE('',#262,#261,#83,.T.);
#290=EDGE_CURVE('',#262,#263,#323,.T.);
#291=EDGE_CURVE('',#264,#263,#84,.T.);
#292=EDGE_CURVE('',#264,#256,#324,.T.);
#293=EDGE_CURVE('',#265,#266,#85,.T.);
#294=EDGE_CURVE('',#266,#259,#86,.T.);
#295=EDGE_CURVE('',#258,#267,#87,.T.);
#296=EDGE_CURVE('',#268,#267,#88,.T.);
#297=EDGE_CURVE('',#268,#265,#89,.T.);
#298=EDGE_CURVE('',#267,#269,#90,.T.);
#299=EDGE_CURVE('',#270,#269,#91,.T.);
#300=EDGE_CURVE('',#270,#268,#92,.T.);
#301=EDGE_CURVE('',#271,#255,#93,.T.);
#302=EDGE_CURVE('',#272,#271,#94,.T.);
#303=EDGE_CURVE('',#272,#261,#95,.T.);
#304=EDGE_CURVE('',#260,#273,#96,.T.);
#305=EDGE_CURVE('',#274,#273,#97,.T.);
#306=EDGE_CURVE('',#274,#270,#98,.T.);
#307=EDGE_CURVE('',#269,#257,#99,.T.);
#308=EDGE_CURVE('',#275,#275,#325,.T.);
#309=EDGE_CURVE('',#276,#276,#326,.T.);
#310=EDGE_CURVE('',#265,#274,#100,.T.);
#311=EDGE_CURVE('',#273,#266,#101,.T.);
#312=EDGE_CURVE('',#277,#278,#102,.T.);
#313=EDGE_CURVE('',#278,#264,#103,.T.);
#314=EDGE_CURVE('',#263,#277,#104,.T.);
#315=EDGE_CURVE('',#256,#279,#105,.T.);
#316=EDGE_CURVE('',#279,#271,#106,.T.);
#317=EDGE_CURVE('',#280,#280,#327,.T.);
#318=EDGE_CURVE('',#279,#278,#328,.T.);
#319=EDGE_CURVE('',#277,#281,#329,.T.);
#320=EDGE_CURVE('',#272,#281,#107,.T.);
#321=EDGE_CURVE('',#281,#262,#108,.T.);
#322=CIRCLE('',#331,9.6);
#323=CIRCLE('',#332,14.1);
#324=CIRCLE('',#333,14.1);
#325=CIRCLE('',#338,11.5);
#326=CIRCLE('',#339,9.6);
#327=CIRCLE('',#346,11.5);
#328=CIRCLE('',#347,14.1);
#329=CIRCLE('',#348,14.1);
#330=AXIS2_PLACEMENT_3D('',#437,#355,#356);
#331=AXIS2_PLACEMENT_3D('',#438,#357,#358);
#332=AXIS2_PLACEMENT_3D('',#455,#366,#367);
#333=AXIS2_PLACEMENT_3D('',#459,#369,#370);
#334=AXIS2_PLACEMENT_3D('',#460,#371,#372);
#335=AXIS2_PLACEMENT_3D('',#470,#378,#379);
#336=AXIS2_PLACEMENT_3D('',#476,#383,#384);
#337=AXIS2_PLACEMENT_3D('',#488,#392,#393);
#338=AXIS2_PLACEMENT_3D('',#489,#394,#395);
#339=AXIS2_PLACEMENT_3D('',#491,#396,#397);
#340=AXIS2_PLACEMENT_3D('',#494,#399,#400);
#341=AXIS2_PLACEMENT_3D('',#496,#402,#403);
#342=AXIS2_PLACEMENT_3D('',#497,#404,#405);
#343=AXIS2_PLACEMENT_3D('',#498,#406,#407);
#344=AXIS2_PLACEMENT_3D('',#504,#411,#412);
#345=AXIS2_PLACEMENT_3D('',#508,#415,#416);
#346=AXIS2_PLACEMENT_3D('',#509,#417,#418);
#347=AXIS2_PLACEMENT_3D('',#511,#419,#420);
#348=AXIS2_PLACEMENT_3D('',#512,#421,#422);
#349=AXIS2_PLACEMENT_3D('',#515,#424,#425);
#350=AXIS2_PLACEMENT_3D('',#517,#427,#428);
#351=AXIS2_PLACEMENT_3D('',#518,#429,#430);
#352=AXIS2_PLACEMENT_3D('',#519,#431,#432);
#353=AXIS2_PLACEMENT_3D('',#520,#433,#434);
#354=AXIS2_PLACEMENT_3D('',#521,#435,#436);
#355=DIRECTION('',(0.,0.,1.));
#356=DIRECTION('',(1.,0.,0.));
#357=DIRECTION('',(0.,0.,1.));
#358=DIRECTION('',(1.,0.,0.));
#359=DIRECTION('',(0.,-1.,0.));
#360=DIRECTION('',(1.,0.,0.));
#361=DIRECTION('',(0.,-1.,0.));
#362=DIRECTION('',(-1.,0.,0.));
#363=DIRECTION('',(0.,1.,0.));
#364=DIRECTION('',(1.,0.,0.));
#365=DIRECTION('',(0.,1.,0.));
#366=DIRECTION('',(0.,0.,-1.));
#367=DIRECTION('',(1.,0.,0.));
#368=DIRECTION('',(1.,0.,0.));
#369=DIRECTION('',(0.,0.,-1.));
#370=DIRECTION('',(1.,0.,0.));
#371=DIRECTION('',(0.,0.,1.));
#372=DIRECTION('',(1.,0.,0.));
#373=DIRECTION('',(0.,0.,1.));
#374=DIRECTION('',(-0.70710678118655,0.,0.707106781186546));
#375=DIRECTION('',(-0.707106781186548,0.,-0.707106781186548));
#376=DIRECTION('',(0.,0.,1.));
#377=DIRECTION('',(1.,0.,0.));
#378=DIRECTION('',(0.,-1.,0.));
#379=DIRECTION('',(0.,0.,-1.));
#380=DIRECTION('',(0.,1.,0.));
#381=DIRECTION('',(0.,0.,1.));
#382=DIRECTION('',(0.,-1.,0.));
#383=DIRECTION('',(-1.,0.,0.));
#384=DIRECTION('',(0.,0.,1.));
#385=DIRECTION('',(0.,0.,1.));
#386=DIRECTION('',(-1.,0.,0.));
#387=DIRECTION('',(0.,0.,1.));
#388=DIRECTION('',(0.70710678118655,0.,-0.707106781186546));
#389=DIRECTION('',(0.,0.,1.));
#390=DIRECTION('',(-1.,0.,0.));
#391=DIRECTION('',(0.707106781186548,0.,0.707106781186548));
#392=DIRECTION('',(0.,1.,0.));
#393=DIRECTION('',(0.,0.,1.));
#394=DIRECTION('',(0.,0.,-1.));
#395=DIRECTION('',(-1.,0.,0.));
#396=DIRECTION('',(0.,0.,-1.));
#397=DIRECTION('',(-1.,0.,0.));
#398=DIRECTION('',(0.,1.,0.));
#399=DIRECTION('',(0.,0.,-1.));
#400=DIRECTION('',(-1.,0.,0.));
#401=DIRECTION('',(0.,-1.,0.));
#402=DIRECTION('',(1.,0.,0.));
#403=DIRECTION('',(0.,0.,-1.));
#404=DIRECTION('',(0.707106781186548,0.,-0.707106781186548));
#405=DIRECTION('',(0.,1.,0.));
#406=DIRECTION('',(-0.707106781186546,0.,-0.70710678118655));
#407=DIRECTION('',(0.,-1.,0.));
#408=DIRECTION('',(-1.,0.,0.));
#409=DIRECTION('',(0.,0.,1.));
#410=DIRECTION('',(0.,0.,-1.));
#411=DIRECTION('',(0.,-1.,0.));
#412=DIRECTION('',(0.,0.,-1.));
#413=DIRECTION('',(0.,0.,-1.));
#414=DIRECTION('',(0.,1.,0.));
#415=DIRECTION('',(-1.,0.,0.));
#416=DIRECTION('',(0.,0.,1.));
#417=DIRECTION('',(0.,0.,-1.));
#418=DIRECTION('',(-1.,0.,0.));
#419=DIRECTION('',(0.,0.,1.));
#420=DIRECTION('',(-1.,0.,0.));
#421=DIRECTION('',(0.,0.,1.));
#422=DIRECTION('',(-1.,0.,0.));
#423=DIRECTION('',(0.,-1.,0.));
#424=DIRECTION('',(0.,0.,-1.));
#425=DIRECTION('',(-1.,0.,0.));
#426=DIRECTION('',(0.,0.,1.));
#427=DIRECTION('',(1.,0.,0.));
#428=DIRECTION('',(0.,0.,-1.));
#429=DIRECTION('',(0.,0.,1.));
#430=DIRECTION('',(1.,0.,0.));
#431=DIRECTION('',(0.,0.,1.));
#432=DIRECTION('',(1.,0.,0.));
#433=DIRECTION('',(0.,0.,-1.));
#434=DIRECTION('',(1.,0.,0.));
#435=DIRECTION('',(0.,0.,-1.));
#436=DIRECTION('',(1.,0.,0.));
#437=CARTESIAN_POINT('',(0.,0.,0.));
#438=CARTESIAN_POINT('',(234.2,65.7,105.));
#439=CARTESIAN_POINT('',(243.8,65.7,105.));
#440=CARTESIAN_POINT('',(118.9,118.15,105.));
#441=CARTESIAN_POINT('',(118.9,236.3,105.));
#442=CARTESIAN_POINT('',(118.9,194.2,105.));
#443=CARTESIAN_POINT('',(123.9,236.3,105.));
#444=CARTESIAN_POINT('',(5.9,236.3,105.));
#445=CARTESIAN_POINT('',(5.9,118.15,105.));
#446=CARTESIAN_POINT('',(5.9,0.,105.));
#447=CARTESIAN_POINT('',(123.9,0.,105.));
#448=CARTESIAN_POINT('',(245.4,0.,105.));
#449=CARTESIAN_POINT('',(245.4,118.15,105.));
#450=CARTESIAN_POINT('',(245.4,236.3,105.));
#451=CARTESIAN_POINT('',(123.9,236.3,105.));
#452=CARTESIAN_POINT('',(188.2,236.3,105.));
#453=CARTESIAN_POINT('',(188.2,118.15,105.));
#454=CARTESIAN_POINT('',(188.2,194.2,105.));
#455=CARTESIAN_POINT('',(174.1,194.2,105.));
#456=CARTESIAN_POINT('',(174.1,180.1,105.));
#457=CARTESIAN_POINT('',(123.9,180.1,105.));
#458=CARTESIAN_POINT('',(133.,180.1,105.));
#459=CARTESIAN_POINT('',(133.,194.2,105.));
#460=CARTESIAN_POINT('',(123.9,118.15,105.));
#461=CARTESIAN_POINT('',(247.8,0.,0.));
#462=CARTESIAN_POINT('',(247.8,0.,0.));
#463=CARTESIAN_POINT('',(247.8,0.,102.6));
#464=CARTESIAN_POINT('',(237.15,0.,113.25));
#465=CARTESIAN_POINT('',(12.4,0.,111.5));
#466=CARTESIAN_POINT('',(0.,0.,99.1));
#467=CARTESIAN_POINT('',(0.,0.,0.));
#468=CARTESIAN_POINT('',(0.,0.,0.));
#469=CARTESIAN_POINT('',(123.9,0.,0.));
#470=CARTESIAN_POINT('',(123.9,0.,0.));
#471=CARTESIAN_POINT('',(0.,118.15,99.1));
#472=CARTESIAN_POINT('',(0.,236.3,99.1));
#473=CARTESIAN_POINT('',(0.,236.3,0.));
#474=CARTESIAN_POINT('',(0.,236.3,0.));
#475=CARTESIAN_POINT('',(0.,118.15,0.));
#476=CARTESIAN_POINT('',(0.,118.15,0.));
#477=CARTESIAN_POINT('',(118.9,236.3,73.8));
#478=CARTESIAN_POINT('',(118.9,236.3,73.8));
#479=CARTESIAN_POINT('',(153.55,236.3,73.8));
#480=CARTESIAN_POINT('',(188.2,236.3,73.8));
#481=CARTESIAN_POINT('',(188.2,236.3,73.8));
#482=CARTESIAN_POINT('',(237.15,236.3,113.25));
#483=CARTESIAN_POINT('',(247.8,236.3,102.6));
#484=CARTESIAN_POINT('',(247.8,236.3,0.));
#485=CARTESIAN_POINT('',(247.8,236.3,0.));
#486=CARTESIAN_POINT('',(123.9,236.3,0.));
#487=CARTESIAN_POINT('',(12.4,236.3,111.5));
#488=CARTESIAN_POINT('',(123.9,236.3,0.));
#489=CARTESIAN_POINT('',(134.7,220.4,0.));
#490=CARTESIAN_POINT('',(123.2,220.4,0.));
#491=CARTESIAN_POINT('',(234.2,65.7,0.));
#492=CARTESIAN_POINT('',(224.6,65.7,0.));
#493=CARTESIAN_POINT('',(247.8,118.15,0.));
#494=CARTESIAN_POINT('',(123.9,118.15,0.));
#495=CARTESIAN_POINT('',(247.8,118.15,102.6));
#496=CARTESIAN_POINT('',(247.8,118.15,0.));
#497=CARTESIAN_POINT('',(0.,118.15,99.1));
#498=CARTESIAN_POINT('',(247.8,118.15,102.6));
#499=CARTESIAN_POINT('',(153.55,180.1,73.8));
#500=CARTESIAN_POINT('',(174.1,180.1,73.8));
#501=CARTESIAN_POINT('',(133.,180.1,73.8));
#502=CARTESIAN_POINT('',(133.,180.1,105.));
#503=CARTESIAN_POINT('',(174.1,180.1,73.8));
#504=CARTESIAN_POINT('',(153.55,180.1,73.8));
#505=CARTESIAN_POINT('',(118.9,194.2,73.8));
#506=CARTESIAN_POINT('',(118.9,194.2,73.8));
#507=CARTESIAN_POINT('',(118.9,208.2,73.8));
#508=CARTESIAN_POINT('',(118.9,208.2,73.8));
#509=CARTESIAN_POINT('',(134.7,220.4,73.8));
#510=CARTESIAN_POINT('',(123.2,220.4,73.8));
#511=CARTESIAN_POINT('',(133.,194.2,73.8));
#512=CARTESIAN_POINT('',(174.1,194.2,73.8));
#513=CARTESIAN_POINT('',(188.2,194.2,73.8));
#514=CARTESIAN_POINT('',(188.2,208.2,73.8));
#515=CARTESIAN_POINT('',(153.55,208.2,73.8));
#516=CARTESIAN_POINT('',(188.2,194.2,105.));
#517=CARTESIAN_POINT('',(188.2,208.2,73.8));
#518=CARTESIAN_POINT('',(133.,194.2,73.8));
#519=CARTESIAN_POINT('',(174.1,194.2,73.8));
#520=CARTESIAN_POINT('',(234.2,65.7,105.05));
#521=CARTESIAN_POINT('',(134.7,220.4,105.05));
#522=MECHANICAL_DESIGN_GEOMETRIC_PRESENTATION_REPRESENTATION('',(#24),#523);
#523=(
GEOMETRIC_REPRESENTATION_CONTEXT(3)
GLOBAL_UNCERTAINTY_ASSIGNED_CONTEXT((#524))
GLOBAL_UNIT_ASSIGNED_CONTEXT((#530,#526,#525))
REPRESENTATION_CONTEXT('featured_part_11046','TOP_LEVEL_ASSEMBLY_PART')
);
#524=UNCERTAINTY_MEASURE_WITH_UNIT(LENGTH_MEASURE(2.E-5),#530,
'DISTANCE_ACCURACY_VALUE','Maximum Tolerance applied to model');
#525=(
NAMED_UNIT(*)
SI_UNIT($,.STERADIAN.)
SOLID_ANGLE_UNIT()
);
#526=(
CONVERSION_BASED_UNIT('DEGREE',#528)
NAMED_UNIT(#527)
PLANE_ANGLE_UNIT()
);
#527=DIMENSIONAL_EXPONENTS(0.,0.,0.,0.,0.,0.,0.);
#528=PLANE_ANGLE_MEASURE_WITH_UNIT(PLANE_ANGLE_MEASURE(0.0174532925),#529);
#529=(
NAMED_UNIT(*)
PLANE_ANGLE_UNIT()
SI_UNIT($,.RADIAN.)
);
#530=(
LENGTH_UNIT()
NAMED_UNIT(*)
SI_UNIT(.MILLI.,.METRE.)
);
ENDSEC;
END-ISO-10303-21;
