ISO-10303-21;
HEADER;
/* Generated by software containing ST-Developer
 * from STEP Tools, Inc. (www.steptools.com) 
 */
/* OPTION: using custom schema-name function */

FILE_DESCRIPTION(
/* description */ (''),
/* implementation_level */ '2;1');

FILE_NAME(
/* name */ 'featured_part_02888.stp',
/* time_stamp */ '2026-07-13T16:13:47-04:00',
/* author */ (''),
/* organization */ (''),
/* preprocessor_version */ 'ST-DEVELOPER v20.1',
/* originating_system */ 'SIEMENS PLM Software NX2512.6002',
/* authorisation */ '');

FILE_SCHEMA (('AUTOMOTIVE_DESIGN { 1 0 10303 214 3 1 1 1 }'));
ENDSEC;

DATA;
#10=SHAPE_REPRESENTATION_RELATIONSHIP('None',
'relationship between featured_part_02888-None and featured_part_02888
-None',#22,#11);
#11=ADVANCED_BREP_SHAPE_REPRESENTATION('featured_part_02888-None',(#32),
#605);
#12=SHAPE_DEFINITION_REPRESENTATION(#13,#22);
#13=PRODUCT_DEFINITION_SHAPE('','',#14);
#14=PRODUCT_DEFINITION(' ','',#16,#15);
#15=PRODUCT_DEFINITION_CONTEXT('part definition',#21,'design');
#16=PRODUCT_DEFINITION_FORMATION_WITH_SPECIFIED_SOURCE(' ',' ',#18,
 .NOT_KNOWN.);
#17=PRODUCT_RELATED_PRODUCT_CATEGORY('part','',(#18));
#18=PRODUCT('featured_part_02888','featured_part_02888',' ',(#19));
#19=PRODUCT_CONTEXT(' ',#21,'mechanical');
#20=APPLICATION_PROTOCOL_DEFINITION('international standard',
'automotive_design',2010,#21);
#21=APPLICATION_CONTEXT(
'core data for automotive mechanical design processes');
#22=SHAPE_REPRESENTATION('featured_part_02888-None',(#379),#605);
#23=PRESENTATION_LAYER_ASSIGNMENT('1','Layer 1',(#32));
#24=STYLED_ITEM('',(#25),#32);
#25=PRESENTATION_STYLE_ASSIGNMENT((#26));
#26=SURFACE_STYLE_USAGE(.BOTH.,#27);
#27=SURFACE_SIDE_STYLE('',(#28));
#28=SURFACE_STYLE_FILL_AREA(#29);
#29=FILL_AREA_STYLE('',(#30));
#30=FILL_AREA_STYLE_COLOUR('',#31);
#31=COLOUR_RGB('medium steel',0.611764705882353,0.658823529411765,0.670588235294118);
#32=MANIFOLD_SOLID_BREP('',#33);
#33=CLOSED_SHELL('',(#53,#54,#55,#56,#57,#58,#59,#60,#61,#62,#63,#64,#65,
#66,#67,#68,#69,#70));
#34=CYLINDRICAL_SURFACE('',#404,6.8);
#35=CYLINDRICAL_SURFACE('',#405,6.8);
#36=CYLINDRICAL_SURFACE('',#406,9.65);
#37=CYLINDRICAL_SURFACE('',#407,11.75);
#38=CYLINDRICAL_SURFACE('',#408,6.9);
#39=ELLIPSE('',#394,9.75807358037436,6.9);
#40=FACE_OUTER_BOUND('',#100,.T.);
#41=FACE_OUTER_BOUND('',#101,.T.);
#42=FACE_OUTER_BOUND('',#102,.T.);
#43=FACE_OUTER_BOUND('',#107,.T.);
#44=FACE_OUTER_BOUND('',#108,.T.);
#45=FACE_OUTER_BOUND('',#109,.T.);
#46=FACE_OUTER_BOUND('',#110,.T.);
#47=FACE_OUTER_BOUND('',#111,.T.);
#48=FACE_OUTER_BOUND('',#112,.T.);
#49=FACE_OUTER_BOUND('',#113,.T.);
#50=FACE_OUTER_BOUND('',#114,.T.);
#51=FACE_OUTER_BOUND('',#115,.T.);
#52=FACE_OUTER_BOUND('',#116,.T.);
#53=ADVANCED_FACE('',(#84,#85,#86),#71,.T.);
#54=ADVANCED_FACE('',(#40),#72,.T.);
#55=ADVANCED_FACE('',(#41),#73,.T.);
#56=ADVANCED_FACE('',(#42),#74,.T.);
#57=ADVANCED_FACE('',(#87,#88,#89,#90),#75,.T.);
#58=ADVANCED_FACE('',(#43),#76,.T.);
#59=ADVANCED_FACE('',(#44),#77,.F.);
#60=ADVANCED_FACE('',(#45),#78,.F.);
#61=ADVANCED_FACE('',(#46),#79,.F.);
#62=ADVANCED_FACE('',(#47),#80,.F.);
#63=ADVANCED_FACE('',(#48),#81,.F.);
#64=ADVANCED_FACE('',(#49),#82,.F.);
#65=ADVANCED_FACE('',(#50),#83,.F.);
#66=ADVANCED_FACE('',(#51),#34,.F.);
#67=ADVANCED_FACE('',(#52),#35,.F.);
#68=ADVANCED_FACE('',(#91,#92),#36,.F.);
#69=ADVANCED_FACE('',(#93,#94),#37,.F.);
#70=ADVANCED_FACE('',(#95,#96),#38,.F.);
#71=PLANE('',#385);
#72=PLANE('',#386);
#73=PLANE('',#387);
#74=PLANE('',#388);
#75=PLANE('',#392);
#76=PLANE('',#393);
#77=PLANE('',#395);
#78=PLANE('',#396);
#79=PLANE('',#397);
#80=PLANE('',#398);
#81=PLANE('',#399);
#82=PLANE('',#402);
#83=PLANE('',#403);
#84=FACE_BOUND('',#97,.T.);
#85=FACE_BOUND('',#98,.T.);
#86=FACE_BOUND('',#99,.T.);
#87=FACE_BOUND('',#103,.T.);
#88=FACE_BOUND('',#104,.T.);
#89=FACE_BOUND('',#105,.T.);
#90=FACE_BOUND('',#106,.T.);
#91=FACE_BOUND('',#117,.T.);
#92=FACE_BOUND('',#118,.T.);
#93=FACE_BOUND('',#119,.T.);
#94=FACE_BOUND('',#120,.T.);
#95=FACE_BOUND('',#121,.T.);
#96=FACE_BOUND('',#122,.T.);
#97=EDGE_LOOP('',(#195,#196,#197,#198,#199,#200,#201,#202,#203,#204,#205,
#206));
#98=EDGE_LOOP('',(#207));
#99=EDGE_LOOP('',(#208));
#100=EDGE_LOOP('',(#209,#210,#211,#212,#213));
#101=EDGE_LOOP('',(#214,#215,#216,#217,#218));
#102=EDGE_LOOP('',(#219,#220,#221,#222));
#103=EDGE_LOOP('',(#223));
#104=EDGE_LOOP('',(#224));
#105=EDGE_LOOP('',(#225));
#106=EDGE_LOOP('',(#226,#227,#228,#229));
#107=EDGE_LOOP('',(#230,#231,#232,#233,#234,#235));
#108=EDGE_LOOP('',(#236,#237,#238,#239,#240,#241,#242));
#109=EDGE_LOOP('',(#243,#244,#245,#246,#247,#248,#249,#250,#251));
#110=EDGE_LOOP('',(#252,#253,#254,#255));
#111=EDGE_LOOP('',(#256,#257,#258,#259));
#112=EDGE_LOOP('',(#260,#261,#262,#263));
#113=EDGE_LOOP('',(#264,#265,#266,#267,#268,#269));
#114=EDGE_LOOP('',(#270,#271,#272,#273));
#115=EDGE_LOOP('',(#274,#275,#276,#277));
#116=EDGE_LOOP('',(#278,#279,#280,#281));
#117=EDGE_LOOP('',(#282));
#118=EDGE_LOOP('',(#283));
#119=EDGE_LOOP('',(#284));
#120=EDGE_LOOP('',(#285));
#121=EDGE_LOOP('',(#286));
#122=EDGE_LOOP('',(#287,#288));
#123=LINE('',#509,#159);
#124=LINE('',#511,#160);
#125=LINE('',#513,#161);
#126=LINE('',#517,#162);
#127=LINE('',#521,#163);
#128=LINE('',#523,#164);
#129=LINE('',#525,#165);
#130=LINE('',#527,#166);
#131=LINE('',#529,#167);
#132=LINE('',#535,#168);
#133=LINE('',#538,#169);
#134=LINE('',#540,#170);
#135=LINE('',#542,#171);
#136=LINE('',#544,#172);
#137=LINE('',#546,#173);
#138=LINE('',#548,#174);
#139=LINE('',#550,#175);
#140=LINE('',#552,#176);
#141=LINE('',#554,#177);
#142=LINE('',#556,#178);
#143=LINE('',#558,#179);
#144=LINE('',#566,#180);
#145=LINE('',#568,#181);
#146=LINE('',#569,#182);
#147=LINE('',#572,#183);
#148=LINE('',#574,#184);
#149=LINE('',#576,#185);
#150=LINE('',#578,#186);
#151=LINE('',#579,#187);
#152=LINE('',#582,#188);
#153=LINE('',#584,#189);
#154=LINE('',#586,#190);
#155=LINE('',#588,#191);
#156=LINE('',#590,#192);
#157=LINE('',#596,#193);
#158=LINE('',#597,#194);
#159=VECTOR('',#413,1.);
#160=VECTOR('',#414,1.);
#161=VECTOR('',#415,1.);
#162=VECTOR('',#418,1.);
#163=VECTOR('',#421,1.);
#164=VECTOR('',#422,1.);
#165=VECTOR('',#423,1.);
#166=VECTOR('',#424,1.);
#167=VECTOR('',#425,1.);
#168=VECTOR('',#432,1.);
#169=VECTOR('',#433,1.);
#170=VECTOR('',#434,1.);
#171=VECTOR('',#435,1.);
#172=VECTOR('',#436,1.);
#173=VECTOR('',#439,1.);
#174=VECTOR('',#440,1.);
#175=VECTOR('',#441,1.);
#176=VECTOR('',#442,1.);
#177=VECTOR('',#445,1.);
#178=VECTOR('',#446,1.);
#179=VECTOR('',#447,1.);
#180=VECTOR('',#456,1.);
#181=VECTOR('',#459,1.);
#182=VECTOR('',#460,1.);
#183=VECTOR('',#465,1.);
#184=VECTOR('',#468,1.);
#185=VECTOR('',#469,1.);
#186=VECTOR('',#470,1.);
#187=VECTOR('',#471,1.);
#188=VECTOR('',#476,1.);
#189=VECTOR('',#477,1.);
#190=VECTOR('',#480,1.);
#191=VECTOR('',#481,1.);
#192=VECTOR('',#484,1.);
#193=VECTOR('',#491,1.);
#194=VECTOR('',#492,1.);
#195=ORIENTED_EDGE('',*,*,#322,.F.);
#196=ORIENTED_EDGE('',*,*,#323,.T.);
#197=ORIENTED_EDGE('',*,*,#324,.T.);
#198=ORIENTED_EDGE('',*,*,#325,.F.);
#199=ORIENTED_EDGE('',*,*,#326,.T.);
#200=ORIENTED_EDGE('',*,*,#327,.F.);
#201=ORIENTED_EDGE('',*,*,#328,.T.);
#202=ORIENTED_EDGE('',*,*,#329,.F.);
#203=ORIENTED_EDGE('',*,*,#330,.T.);
#204=ORIENTED_EDGE('',*,*,#331,.T.);
#205=ORIENTED_EDGE('',*,*,#332,.F.);
#206=ORIENTED_EDGE('',*,*,#333,.T.);
#207=ORIENTED_EDGE('',*,*,#334,.F.);
#208=ORIENTED_EDGE('',*,*,#335,.F.);
#209=ORIENTED_EDGE('',*,*,#336,.T.);
#210=ORIENTED_EDGE('',*,*,#337,.T.);
#211=ORIENTED_EDGE('',*,*,#338,.T.);
#212=ORIENTED_EDGE('',*,*,#339,.F.);
#213=ORIENTED_EDGE('',*,*,#340,.T.);
#214=ORIENTED_EDGE('',*,*,#339,.T.);
#215=ORIENTED_EDGE('',*,*,#341,.T.);
#216=ORIENTED_EDGE('',*,*,#342,.T.);
#217=ORIENTED_EDGE('',*,*,#343,.F.);
#218=ORIENTED_EDGE('',*,*,#344,.T.);
#219=ORIENTED_EDGE('',*,*,#343,.T.);
#220=ORIENTED_EDGE('',*,*,#345,.T.);
#221=ORIENTED_EDGE('',*,*,#346,.F.);
#222=ORIENTED_EDGE('',*,*,#347,.T.);
#223=ORIENTED_EDGE('',*,*,#348,.F.);
#224=ORIENTED_EDGE('',*,*,#349,.F.);
#225=ORIENTED_EDGE('',*,*,#350,.F.);
#226=ORIENTED_EDGE('',*,*,#351,.F.);
#227=ORIENTED_EDGE('',*,*,#340,.F.);
#228=ORIENTED_EDGE('',*,*,#344,.F.);
#229=ORIENTED_EDGE('',*,*,#347,.F.);
#230=ORIENTED_EDGE('',*,*,#332,.T.);
#231=ORIENTED_EDGE('',*,*,#352,.T.);
#232=ORIENTED_EDGE('',*,*,#336,.F.);
#233=ORIENTED_EDGE('',*,*,#351,.T.);
#234=ORIENTED_EDGE('',*,*,#346,.T.);
#235=ORIENTED_EDGE('',*,*,#353,.T.);
#236=ORIENTED_EDGE('',*,*,#354,.F.);
#237=ORIENTED_EDGE('',*,*,#333,.F.);
#238=ORIENTED_EDGE('',*,*,#353,.F.);
#239=ORIENTED_EDGE('',*,*,#345,.F.);
#240=ORIENTED_EDGE('',*,*,#342,.F.);
#241=ORIENTED_EDGE('',*,*,#355,.T.);
#242=ORIENTED_EDGE('',*,*,#323,.F.);
#243=ORIENTED_EDGE('',*,*,#356,.F.);
#244=ORIENTED_EDGE('',*,*,#357,.F.);
#245=ORIENTED_EDGE('',*,*,#358,.F.);
#246=ORIENTED_EDGE('',*,*,#324,.F.);
#247=ORIENTED_EDGE('',*,*,#355,.F.);
#248=ORIENTED_EDGE('',*,*,#341,.F.);
#249=ORIENTED_EDGE('',*,*,#338,.F.);
#250=ORIENTED_EDGE('',*,*,#359,.T.);
#251=ORIENTED_EDGE('',*,*,#330,.F.);
#252=ORIENTED_EDGE('',*,*,#352,.F.);
#253=ORIENTED_EDGE('',*,*,#331,.F.);
#254=ORIENTED_EDGE('',*,*,#359,.F.);
#255=ORIENTED_EDGE('',*,*,#337,.F.);
#256=ORIENTED_EDGE('',*,*,#329,.T.);
#257=ORIENTED_EDGE('',*,*,#360,.T.);
#258=ORIENTED_EDGE('',*,*,#361,.T.);
#259=ORIENTED_EDGE('',*,*,#356,.T.);
#260=ORIENTED_EDGE('',*,*,#362,.T.);
#261=ORIENTED_EDGE('',*,*,#363,.T.);
#262=ORIENTED_EDGE('',*,*,#325,.T.);
#263=ORIENTED_EDGE('',*,*,#358,.T.);
#264=ORIENTED_EDGE('',*,*,#364,.F.);
#265=ORIENTED_EDGE('',*,*,#365,.T.);
#266=ORIENTED_EDGE('',*,*,#362,.F.);
#267=ORIENTED_EDGE('',*,*,#357,.T.);
#268=ORIENTED_EDGE('',*,*,#361,.F.);
#269=ORIENTED_EDGE('',*,*,#366,.T.);
#270=ORIENTED_EDGE('',*,*,#327,.T.);
#271=ORIENTED_EDGE('',*,*,#367,.T.);
#272=ORIENTED_EDGE('',*,*,#364,.T.);
#273=ORIENTED_EDGE('',*,*,#368,.T.);
#274=ORIENTED_EDGE('',*,*,#326,.F.);
#275=ORIENTED_EDGE('',*,*,#363,.F.);
#276=ORIENTED_EDGE('',*,*,#365,.F.);
#277=ORIENTED_EDGE('',*,*,#367,.F.);
#278=ORIENTED_EDGE('',*,*,#328,.F.);
#279=ORIENTED_EDGE('',*,*,#368,.F.);
#280=ORIENTED_EDGE('',*,*,#366,.F.);
#281=ORIENTED_EDGE('',*,*,#360,.F.);
#282=ORIENTED_EDGE('',*,*,#335,.T.);
#283=ORIENTED_EDGE('',*,*,#350,.T.);
#284=ORIENTED_EDGE('',*,*,#334,.T.);
#285=ORIENTED_EDGE('',*,*,#349,.T.);
#286=ORIENTED_EDGE('',*,*,#348,.T.);
#287=ORIENTED_EDGE('',*,*,#322,.T.);
#288=ORIENTED_EDGE('',*,*,#354,.T.);
#289=VERTEX_POINT('',#507);
#290=VERTEX_POINT('',#508);
#291=VERTEX_POINT('',#510);
#292=VERTEX_POINT('',#512);
#293=VERTEX_POINT('',#514);
#294=VERTEX_POINT('',#516);
#295=VERTEX_POINT('',#518);
#296=VERTEX_POINT('',#520);
#297=VERTEX_POINT('',#522);
#298=VERTEX_POINT('',#524);
#299=VERTEX_POINT('',#526);
#300=VERTEX_POINT('',#528);
#301=VERTEX_POINT('',#531);
#302=VERTEX_POINT('',#533);
#303=VERTEX_POINT('',#536);
#304=VERTEX_POINT('',#537);
#305=VERTEX_POINT('',#539);
#306=VERTEX_POINT('',#541);
#307=VERTEX_POINT('',#543);
#308=VERTEX_POINT('',#547);
#309=VERTEX_POINT('',#549);
#310=VERTEX_POINT('',#551);
#311=VERTEX_POINT('',#555);
#312=VERTEX_POINT('',#557);
#313=VERTEX_POINT('',#561);
#314=VERTEX_POINT('',#563);
#315=VERTEX_POINT('',#565);
#316=VERTEX_POINT('',#575);
#317=VERTEX_POINT('',#577);
#318=VERTEX_POINT('',#583);
#319=VERTEX_POINT('',#587);
#320=VERTEX_POINT('',#591);
#321=VERTEX_POINT('',#592);
#322=EDGE_CURVE('',#289,#290,#369,.T.);
#323=EDGE_CURVE('',#289,#291,#123,.T.);
#324=EDGE_CURVE('',#291,#292,#124,.T.);
#325=EDGE_CURVE('',#293,#292,#125,.T.);
#326=EDGE_CURVE('',#293,#294,#370,.T.);
#327=EDGE_CURVE('',#295,#294,#126,.T.);
#328=EDGE_CURVE('',#295,#296,#371,.T.);
#329=EDGE_CURVE('',#297,#296,#127,.T.);
#330=EDGE_CURVE('',#297,#298,#128,.T.);
#331=EDGE_CURVE('',#298,#299,#129,.T.);
#332=EDGE_CURVE('',#300,#299,#130,.T.);
#333=EDGE_CURVE('',#300,#290,#131,.T.);
#334=EDGE_CURVE('',#301,#301,#372,.T.);
#335=EDGE_CURVE('',#302,#302,#373,.T.);
#336=EDGE_CURVE('',#303,#304,#132,.T.);
#337=EDGE_CURVE('',#304,#305,#133,.T.);
#338=EDGE_CURVE('',#305,#306,#134,.T.);
#339=EDGE_CURVE('',#307,#306,#135,.T.);
#340=EDGE_CURVE('',#307,#303,#136,.T.);
#341=EDGE_CURVE('',#306,#308,#137,.T.);
#342=EDGE_CURVE('',#308,#309,#138,.T.);
#343=EDGE_CURVE('',#310,#309,#139,.T.);
#344=EDGE_CURVE('',#310,#307,#140,.T.);
#345=EDGE_CURVE('',#309,#311,#141,.T.);
#346=EDGE_CURVE('',#312,#311,#142,.T.);
#347=EDGE_CURVE('',#312,#310,#143,.T.);
#348=EDGE_CURVE('',#313,#313,#374,.T.);
#349=EDGE_CURVE('',#314,#314,#375,.T.);
#350=EDGE_CURVE('',#315,#315,#376,.T.);
#351=EDGE_CURVE('',#303,#312,#144,.T.);
#352=EDGE_CURVE('',#299,#304,#145,.T.);
#353=EDGE_CURVE('',#311,#300,#146,.T.);
#354=EDGE_CURVE('',#290,#289,#39,.T.);
#355=EDGE_CURVE('',#308,#291,#147,.T.);
#356=EDGE_CURVE('',#316,#297,#148,.T.);
#357=EDGE_CURVE('',#317,#316,#149,.T.);
#358=EDGE_CURVE('',#292,#317,#150,.T.);
#359=EDGE_CURVE('',#305,#298,#151,.T.);
#360=EDGE_CURVE('',#296,#318,#152,.T.);
#361=EDGE_CURVE('',#318,#316,#153,.T.);
#362=EDGE_CURVE('',#317,#319,#154,.T.);
#363=EDGE_CURVE('',#319,#293,#155,.T.);
#364=EDGE_CURVE('',#320,#321,#156,.T.);
#365=EDGE_CURVE('',#320,#319,#377,.T.);
#366=EDGE_CURVE('',#318,#321,#378,.T.);
#367=EDGE_CURVE('',#294,#320,#157,.T.);
#368=EDGE_CURVE('',#321,#295,#158,.T.);
#369=CIRCLE('',#380,6.9);
#370=CIRCLE('',#381,6.8);
#371=CIRCLE('',#382,6.8);
#372=CIRCLE('',#383,11.75);
#373=CIRCLE('',#384,9.65);
#374=CIRCLE('',#389,6.9);
#375=CIRCLE('',#390,11.75);
#376=CIRCLE('',#391,9.65);
#377=CIRCLE('',#400,6.8);
#378=CIRCLE('',#401,6.8);
#379=AXIS2_PLACEMENT_3D('',#505,#409,#410);
#380=AXIS2_PLACEMENT_3D('',#506,#411,#412);
#381=AXIS2_PLACEMENT_3D('',#515,#416,#417);
#382=AXIS2_PLACEMENT_3D('',#519,#419,#420);
#383=AXIS2_PLACEMENT_3D('',#530,#426,#427);
#384=AXIS2_PLACEMENT_3D('',#532,#428,#429);
#385=AXIS2_PLACEMENT_3D('',#534,#430,#431);
#386=AXIS2_PLACEMENT_3D('',#545,#437,#438);
#387=AXIS2_PLACEMENT_3D('',#553,#443,#444);
#388=AXIS2_PLACEMENT_3D('',#559,#448,#449);
#389=AXIS2_PLACEMENT_3D('',#560,#450,#451);
#390=AXIS2_PLACEMENT_3D('',#562,#452,#453);
#391=AXIS2_PLACEMENT_3D('',#564,#454,#455);
#392=AXIS2_PLACEMENT_3D('',#567,#457,#458);
#393=AXIS2_PLACEMENT_3D('',#570,#461,#462);
#394=AXIS2_PLACEMENT_3D('',#571,#463,#464);
#395=AXIS2_PLACEMENT_3D('',#573,#466,#467);
#396=AXIS2_PLACEMENT_3D('',#580,#472,#473);
#397=AXIS2_PLACEMENT_3D('',#581,#474,#475);
#398=AXIS2_PLACEMENT_3D('',#585,#478,#479);
#399=AXIS2_PLACEMENT_3D('',#589,#482,#483);
#400=AXIS2_PLACEMENT_3D('',#593,#485,#486);
#401=AXIS2_PLACEMENT_3D('',#594,#487,#488);
#402=AXIS2_PLACEMENT_3D('',#595,#489,#490);
#403=AXIS2_PLACEMENT_3D('',#598,#493,#494);
#404=AXIS2_PLACEMENT_3D('',#599,#495,#496);
#405=AXIS2_PLACEMENT_3D('',#600,#497,#498);
#406=AXIS2_PLACEMENT_3D('',#601,#499,#500);
#407=AXIS2_PLACEMENT_3D('',#602,#501,#502);
#408=AXIS2_PLACEMENT_3D('',#603,#503,#504);
#409=DIRECTION('',(0.,0.,1.));
#410=DIRECTION('',(1.,0.,0.));
#411=DIRECTION('',(0.,0.,1.));
#412=DIRECTION('',(0.999999999999998,0.,0.));
#413=DIRECTION('',(-1.,0.,0.));
#414=DIRECTION('',(0.,-1.,0.));
#415=DIRECTION('',(-1.,0.,0.));
#416=DIRECTION('',(0.,0.,-1.));
#417=DIRECTION('',(1.,0.,0.));
#418=DIRECTION('',(0.,1.,0.));
#419=DIRECTION('',(0.,0.,-1.));
#420=DIRECTION('',(1.,0.,0.));
#421=DIRECTION('',(1.,0.,0.));
#422=DIRECTION('',(0.,-1.,0.));
#423=DIRECTION('',(1.,0.,0.));
#424=DIRECTION('',(0.,-1.,0.));
#425=DIRECTION('',(-1.,0.,0.));
#426=DIRECTION('',(0.,0.,1.));
#427=DIRECTION('',(1.,0.,0.));
#428=DIRECTION('',(0.,0.,1.));
#429=DIRECTION('',(1.,0.,0.));
#430=DIRECTION('',(0.,0.,1.));
#431=DIRECTION('',(1.,0.,0.));
#432=DIRECTION('',(0.,0.,1.));
#433=DIRECTION('',(-1.,0.,0.));
#434=DIRECTION('',(-0.707106781186548,0.,-0.707106781186548));
#435=DIRECTION('',(0.,0.,1.));
#436=DIRECTION('',(1.,0.,0.));
#437=DIRECTION('',(0.,-1.,0.));
#438=DIRECTION('',(0.,0.,-1.));
#439=DIRECTION('',(0.,1.,0.));
#440=DIRECTION('',(0.,0.707106781186548,-0.707106781186548));
#441=DIRECTION('',(0.,0.,1.));
#442=DIRECTION('',(0.,-1.,0.));
#443=DIRECTION('',(-1.,0.,0.));
#444=DIRECTION('',(0.,0.,1.));
#445=DIRECTION('',(1.,0.,0.));
#446=DIRECTION('',(0.,0.,1.));
#447=DIRECTION('',(-1.,0.,0.));
#448=DIRECTION('',(0.,1.,0.));
#449=DIRECTION('',(0.,0.,1.));
#450=DIRECTION('',(0.,0.,-1.));
#451=DIRECTION('',(-0.999999999999998,0.,0.));
#452=DIRECTION('',(0.,0.,-1.));
#453=DIRECTION('',(-1.,0.,0.));
#454=DIRECTION('',(0.,0.,-1.));
#455=DIRECTION('',(-1.,0.,0.));
#456=DIRECTION('',(0.,1.,0.));
#457=DIRECTION('',(0.,0.,-1.));
#458=DIRECTION('',(-1.,0.,0.));
#459=DIRECTION('',(0.,-0.70710678118655,-0.707106781186545));
#460=DIRECTION('',(0.,-0.707106781186548,0.707106781186548));
#461=DIRECTION('',(1.,0.,0.));
#462=DIRECTION('',(0.,0.,-1.));
#463=DIRECTION('',(0.,0.707106781186548,0.707106781186548));
#464=DIRECTION('',(0.,0.707106781186548,-0.707106781186548));
#465=DIRECTION('',(0.577350269189626,-0.577350269189626,0.577350269189626));
#466=DIRECTION('',(0.,-0.707106781186548,-0.707106781186548));
#467=DIRECTION('',(1.,0.,0.));
#468=DIRECTION('',(0.707106781186548,0.,0.707106781186548));
#469=DIRECTION('',(0.,-1.,0.));
#470=DIRECTION('',(-0.707106781186548,0.,-0.707106781186548));
#471=DIRECTION('',(0.577350269189625,0.577350269189628,0.577350269189625));
#472=DIRECTION('',(0.707106781186548,0.,-0.707106781186548));
#473=DIRECTION('',(0.,1.,0.));
#474=DIRECTION('',(0.,0.707106781186545,-0.70710678118655));
#475=DIRECTION('',(-1.,0.,0.));
#476=DIRECTION('',(0.,0.,-1.));
#477=DIRECTION('',(-1.,0.,0.));
#478=DIRECTION('',(0.,-1.,0.));
#479=DIRECTION('',(0.,0.,-1.));
#480=DIRECTION('',(1.,0.,0.));
#481=DIRECTION('',(0.,0.,1.));
#482=DIRECTION('',(0.,1.,0.));
#483=DIRECTION('',(0.,0.,1.));
#484=DIRECTION('',(0.,-1.,0.));
#485=DIRECTION('',(0.,0.,1.));
#486=DIRECTION('',(-1.,0.,0.));
#487=DIRECTION('',(0.,0.,1.));
#488=DIRECTION('',(-1.,0.,0.));
#489=DIRECTION('',(0.,0.,-1.));
#490=DIRECTION('',(-1.,0.,0.));
#491=DIRECTION('',(0.,0.,-1.));
#492=DIRECTION('',(0.,0.,1.));
#493=DIRECTION('',(1.,0.,0.));
#494=DIRECTION('',(0.,0.,-1.));
#495=DIRECTION('',(0.,0.,1.));
#496=DIRECTION('',(1.,0.,0.));
#497=DIRECTION('',(0.,0.,1.));
#498=DIRECTION('',(1.,0.,0.));
#499=DIRECTION('',(0.,0.,-1.));
#500=DIRECTION('',(1.,0.,0.));
#501=DIRECTION('',(0.,0.,-1.));
#502=DIRECTION('',(1.,0.,0.));
#503=DIRECTION('',(0.,0.,-1.));
#504=DIRECTION('',(0.999999999999998,0.,0.));
#505=CARTESIAN_POINT('',(0.,0.,0.));
#506=CARTESIAN_POINT('',(172.9,358.5,100.4));
#507=CARTESIAN_POINT('',(166.002899159792,358.3,100.4));
#508=CARTESIAN_POINT('',(179.797100840208,358.3,100.4));
#509=CARTESIAN_POINT('',(119.2,358.3,100.4));
#510=CARTESIAN_POINT('',(10.2,358.3,100.4));
#511=CARTESIAN_POINT('',(10.2,184.7,100.4));
#512=CARTESIAN_POINT('',(10.2,291.2,100.4));
#513=CARTESIAN_POINT('',(119.2,291.2,100.4));
#514=CARTESIAN_POINT('',(31.1,291.2,100.4));
#515=CARTESIAN_POINT('',(31.1,284.4,100.4));
#516=CARTESIAN_POINT('',(37.9,284.4,100.4));
#517=CARTESIAN_POINT('',(37.9,184.7,100.4));
#518=CARTESIAN_POINT('',(37.9,139.5,100.4));
#519=CARTESIAN_POINT('',(31.1,139.5,100.4));
#520=CARTESIAN_POINT('',(31.1,132.7,100.4));
#521=CARTESIAN_POINT('',(119.2,132.7,100.4));
#522=CARTESIAN_POINT('',(10.2,132.7,100.4));
#523=CARTESIAN_POINT('',(10.2,184.7,100.4));
#524=CARTESIAN_POINT('',(10.2,2.20000000000001,100.4));
#525=CARTESIAN_POINT('',(119.2,2.20000000000001,100.4));
#526=CARTESIAN_POINT('',(238.4,2.20000000000001,100.4));
#527=CARTESIAN_POINT('',(238.4,184.7,100.4));
#528=CARTESIAN_POINT('',(238.4,358.3,100.4));
#529=CARTESIAN_POINT('',(119.2,358.3,100.4));
#530=CARTESIAN_POINT('',(92.4,345.4,100.4));
#531=CARTESIAN_POINT('',(104.15,345.4,100.4));
#532=CARTESIAN_POINT('',(92.5,293.1,100.4));
#533=CARTESIAN_POINT('',(102.15,293.1,100.4));
#534=CARTESIAN_POINT('',(119.2,184.7,100.4));
#535=CARTESIAN_POINT('',(238.4,0.,0.));
#536=CARTESIAN_POINT('',(238.4,0.,0.));
#537=CARTESIAN_POINT('',(238.4,0.,98.2));
#538=CARTESIAN_POINT('',(119.2,0.,98.2));
#539=CARTESIAN_POINT('',(8.00000000000001,0.,98.2));
#540=CARTESIAN_POINT('',(14.5,0.,104.7));
#541=CARTESIAN_POINT('',(0.,0.,90.2));
#542=CARTESIAN_POINT('',(0.,0.,0.));
#543=CARTESIAN_POINT('',(0.,0.,0.));
#544=CARTESIAN_POINT('',(119.2,0.,0.));
#545=CARTESIAN_POINT('',(119.2,0.,0.));
#546=CARTESIAN_POINT('',(0.,184.7,90.2));
#547=CARTESIAN_POINT('',(0.,368.5,90.2));
#548=CARTESIAN_POINT('',(0.,321.7,137.));
#549=CARTESIAN_POINT('',(0.,369.4,89.3));
#550=CARTESIAN_POINT('',(0.,369.4,0.));
#551=CARTESIAN_POINT('',(0.,369.4,0.));
#552=CARTESIAN_POINT('',(0.,184.7,0.));
#553=CARTESIAN_POINT('',(0.,184.7,0.));
#554=CARTESIAN_POINT('',(119.2,369.4,89.3));
#555=CARTESIAN_POINT('',(238.4,369.4,89.3));
#556=CARTESIAN_POINT('',(238.4,369.4,0.));
#557=CARTESIAN_POINT('',(238.4,369.4,0.));
#558=CARTESIAN_POINT('',(119.2,369.4,0.));
#559=CARTESIAN_POINT('',(119.2,369.4,0.));
#560=CARTESIAN_POINT('',(172.9,358.5,0.));
#561=CARTESIAN_POINT('',(166.,358.5,0.));
#562=CARTESIAN_POINT('',(92.4,345.4,0.));
#563=CARTESIAN_POINT('',(80.65,345.4,0.));
#564=CARTESIAN_POINT('',(92.5,293.1,0.));
#565=CARTESIAN_POINT('',(82.85,293.1,0.));
#566=CARTESIAN_POINT('',(238.4,184.7,0.));
#567=CARTESIAN_POINT('',(119.2,184.7,0.));
#568=CARTESIAN_POINT('',(238.4,43.2500000000006,141.45));
#569=CARTESIAN_POINT('',(238.4,321.7,137.));
#570=CARTESIAN_POINT('',(238.4,184.7,0.));
#571=CARTESIAN_POINT('',(172.9,358.5,100.2));
#572=CARTESIAN_POINT('',(39.1333333333334,329.366666666667,129.333333333333));
#573=CARTESIAN_POINT('',(119.2,369.4,89.3));
#574=CARTESIAN_POINT('',(0.,132.7,90.2));
#575=CARTESIAN_POINT('',(0.100000000000003,132.7,90.3));
#576=CARTESIAN_POINT('',(0.100000000000003,184.7,90.3));
#577=CARTESIAN_POINT('',(0.100000000000003,291.2,90.3));
#578=CARTESIAN_POINT('',(0.,291.2,90.2));
#579=CARTESIAN_POINT('',(64.2333333333335,56.2333333333338,154.433333333333));
#580=CARTESIAN_POINT('',(0.,184.7,90.2));
#581=CARTESIAN_POINT('',(119.2,0.,98.2));
#582=CARTESIAN_POINT('',(31.1,132.7,90.3));
#583=CARTESIAN_POINT('',(31.1,132.7,90.3));
#584=CARTESIAN_POINT('',(18.95,132.7,90.3));
#585=CARTESIAN_POINT('',(18.95,132.7,90.3));
#586=CARTESIAN_POINT('',(18.95,291.2,90.3));
#587=CARTESIAN_POINT('',(31.1,291.2,90.3));
#588=CARTESIAN_POINT('',(31.1,291.2,100.4));
#589=CARTESIAN_POINT('',(18.95,291.2,90.3));
#590=CARTESIAN_POINT('',(37.9,211.95,90.3));
#591=CARTESIAN_POINT('',(37.9,284.4,90.3));
#592=CARTESIAN_POINT('',(37.9,139.5,90.3));
#593=CARTESIAN_POINT('',(31.1,284.4,90.3));
#594=CARTESIAN_POINT('',(31.1,139.5,90.3));
#595=CARTESIAN_POINT('',(18.95,211.95,90.3));
#596=CARTESIAN_POINT('',(37.9,284.4,90.3));
#597=CARTESIAN_POINT('',(37.9,139.5,100.4));
#598=CARTESIAN_POINT('',(37.9,211.95,90.3));
#599=CARTESIAN_POINT('',(31.1,284.4,90.3));
#600=CARTESIAN_POINT('',(31.1,139.5,90.3));
#601=CARTESIAN_POINT('',(92.5,293.1,100.45));
#602=CARTESIAN_POINT('',(92.4,345.4,100.45));
#603=CARTESIAN_POINT('',(172.9,358.5,100.45));
#604=MECHANICAL_DESIGN_GEOMETRIC_PRESENTATION_REPRESENTATION('',(#24),#605);
#605=(
GEOMETRIC_REPRESENTATION_CONTEXT(3)
GLOBAL_UNCERTAINTY_ASSIGNED_CONTEXT((#606))
GLOBAL_UNIT_ASSIGNED_CONTEXT((#612,#608,#607))
REPRESENTATION_CONTEXT('featured_part_02888','TOP_LEVEL_ASSEMBLY_PART')
);
#606=UNCERTAINTY_MEASURE_WITH_UNIT(LENGTH_MEASURE(2.E-5),#612,
'DISTANCE_ACCURACY_VALUE','Maximum Tolerance applied to model');
#607=(
NAMED_UNIT(*)
SI_UNIT($,.STERADIAN.)
SOLID_ANGLE_UNIT()
);
#608=(
CONVERSION_BASED_UNIT('DEGREE',#610)
NAMED_UNIT(#609)
PLANE_ANGLE_UNIT()
);
#609=DIMENSIONAL_EXPONENTS(0.,0.,0.,0.,0.,0.,0.);
#610=PLANE_ANGLE_MEASURE_WITH_UNIT(PLANE_ANGLE_MEASURE(0.0174532925),#611);
#611=(
NAMED_UNIT(*)
PLANE_ANGLE_UNIT()
SI_UNIT($,.RADIAN.)
);
#612=(
LENGTH_UNIT()
NAMED_UNIT(*)
SI_UNIT(.MILLI.,.METRE.)
);
ENDSEC;
END-ISO-10303-21;
