ISO-10303-21;
HEADER;
/* Generated by software containing ST-Developer
 * from STEP Tools, Inc. (www.steptools.com) 
 */
/* OPTION: using custom schema-name function */

FILE_DESCRIPTION(
/* description */ (''),
/* implementation_level */ '2;1');

FILE_NAME(
/* name */ 'featured_part_01647.stp',
/* time_stamp */ '2026-07-02T12:01:48-04:00',
/* author */ (''),
/* organization */ (''),
/* preprocessor_version */ 'ST-DEVELOPER v20.1',
/* originating_system */ 'SIEMENS PLM Software NX2512.6002',
/* authorisation */ '');

FILE_SCHEMA (('INTEGRATED_CNC_SCHEMA'));
ENDSEC;

DATA;
#10=SHAPE_REPRESENTATION_RELATIONSHIP('None',
'relationship between featured_part_01647-None and featured_part_01647
-None',#22,#11);
#11=ADVANCED_BREP_SHAPE_REPRESENTATION('featured_part_01647-None',(#32),
#791);
#12=SHAPE_DEFINITION_REPRESENTATION(#13,#22);
#13=PRODUCT_DEFINITION_SHAPE('','',#14);
#14=PRODUCT_DEFINITION(' ','',#16,#15);
#15=PRODUCT_DEFINITION_CONTEXT('part definition',#21,'design');
#16=PRODUCT_DEFINITION_FORMATION_WITH_SPECIFIED_SOURCE(' ',' ',#18,
 .NOT_KNOWN.);
#17=PRODUCT_RELATED_PRODUCT_CATEGORY('part','',(#18));
#18=PRODUCT('featured_part_01647','featured_part_01647',' ',(#19));
#19=PRODUCT_CONTEXT(' ',#21,'mechanical');
#20=APPLICATION_PROTOCOL_DEFINITION('international standard',
'automotive_design',2010,#21);
#21=APPLICATION_CONTEXT(
'core data for automotive mechanical design processes');
#22=SHAPE_REPRESENTATION('featured_part_01647-None',(#494),#791);
#23=PRESENTATION_LAYER_ASSIGNMENT('1','Layer 1',(#32));
#24=STYLED_ITEM('',(#25),#32);
#25=PRESENTATION_STYLE_ASSIGNMENT((#26));
#26=SURFACE_STYLE_USAGE(.BOTH.,#27);
#27=SURFACE_SIDE_STYLE('',(#28));
#28=SURFACE_STYLE_FILL_AREA(#29);
#29=FILL_AREA_STYLE('',(#30));
#30=FILL_AREA_STYLE_COLOUR('',#31);
#31=COLOUR_RGB('medium steel',0.611764705882353,0.658823529411765,0.670588235294118);
#32=MANIFOLD_SOLID_BREP('',#33);
#33=CLOSED_SHELL('',(#59,#60,#61,#62,#63,#64,#65,#66,#67,#68,#69,#70,#71,
#72,#73,#74,#75,#76,#77,#78,#79,#80,#81,#82));
#34=CYLINDRICAL_SURFACE('',#514,9.5);
#35=CYLINDRICAL_SURFACE('',#522,6.7);
#36=CYLINDRICAL_SURFACE('',#523,6.7);
#37=CYLINDRICAL_SURFACE('',#528,3.4);
#38=CYLINDRICAL_SURFACE('',#529,10.);
#39=CYLINDRICAL_SURFACE('',#530,5.25);
#40=FACE_OUTER_BOUND('',#218,.T.);
#41=FACE_OUTER_BOUND('',#219,.T.);
#42=FACE_OUTER_BOUND('',#220,.T.);
#43=FACE_OUTER_BOUND('',#224,.T.);
#44=FACE_OUTER_BOUND('',#225,.T.);
#45=FACE_OUTER_BOUND('',#226,.T.);
#46=FACE_OUTER_BOUND('',#227,.T.);
#47=FACE_OUTER_BOUND('',#228,.T.);
#48=FACE_OUTER_BOUND('',#229,.T.);
#49=FACE_OUTER_BOUND('',#230,.T.);
#50=FACE_OUTER_BOUND('',#231,.T.);
#51=FACE_OUTER_BOUND('',#232,.T.);
#52=FACE_OUTER_BOUND('',#235,.T.);
#53=FACE_OUTER_BOUND('',#236,.T.);
#54=FACE_OUTER_BOUND('',#237,.T.);
#55=FACE_OUTER_BOUND('',#238,.T.);
#56=FACE_OUTER_BOUND('',#239,.T.);
#57=FACE_OUTER_BOUND('',#240,.T.);
#58=FACE_OUTER_BOUND('',#241,.T.);
#59=ADVANCED_FACE('',(#205,#206),#83,.T.);
#60=ADVANCED_FACE('',(#40),#84,.T.);
#61=ADVANCED_FACE('',(#41),#85,.T.);
#62=ADVANCED_FACE('',(#42),#86,.T.);
#63=ADVANCED_FACE('',(#207,#208,#209),#87,.T.);
#64=ADVANCED_FACE('',(#43),#88,.T.);
#65=ADVANCED_FACE('',(#44),#89,.F.);
#66=ADVANCED_FACE('',(#45),#90,.F.);
#67=ADVANCED_FACE('',(#46),#91,.F.);
#68=ADVANCED_FACE('',(#47),#92,.F.);
#69=ADVANCED_FACE('',(#48),#93,.F.);
#70=ADVANCED_FACE('',(#49),#34,.F.);
#71=ADVANCED_FACE('',(#50),#94,.F.);
#72=ADVANCED_FACE('',(#51),#95,.F.);
#73=ADVANCED_FACE('',(#210,#211),#96,.F.);
#74=ADVANCED_FACE('',(#52),#97,.F.);
#75=ADVANCED_FACE('',(#53),#35,.F.);
#76=ADVANCED_FACE('',(#54),#36,.F.);
#77=ADVANCED_FACE('',(#55),#98,.F.);
#78=ADVANCED_FACE('',(#56),#99,.F.);
#79=ADVANCED_FACE('',(#57),#100,.F.);
#80=ADVANCED_FACE('',(#58),#37,.F.);
#81=ADVANCED_FACE('',(#212,#213),#38,.F.);
#82=ADVANCED_FACE('',(#214,#215),#39,.F.);
#83=PLANE('',#500);
#84=PLANE('',#501);
#85=PLANE('',#502);
#86=PLANE('',#503);
#87=PLANE('',#506);
#88=PLANE('',#507);
#89=PLANE('',#508);
#90=PLANE('',#509);
#91=PLANE('',#510);
#92=PLANE('',#512);
#93=PLANE('',#513);
#94=PLANE('',#515);
#95=PLANE('',#516);
#96=PLANE('',#520);
#97=PLANE('',#521);
#98=PLANE('',#524);
#99=PLANE('',#525);
#100=PLANE('',#527);
#101=LINE('',#660,#153);
#102=LINE('',#665,#154);
#103=LINE('',#667,#155);
#104=LINE('',#669,#156);
#105=LINE('',#671,#157);
#106=LINE('',#675,#158);
#107=LINE('',#677,#159);
#108=LINE('',#679,#160);
#109=LINE('',#683,#161);
#110=LINE('',#687,#162);
#111=LINE('',#689,#163);
#112=LINE('',#691,#164);
#113=LINE('',#693,#165);
#114=LINE('',#695,#166);
#115=LINE('',#697,#167);
#116=LINE('',#699,#168);
#117=LINE('',#701,#169);
#118=LINE('',#703,#170);
#119=LINE('',#705,#171);
#120=LINE('',#707,#172);
#121=LINE('',#708,#173);
#122=LINE('',#710,#174);
#123=LINE('',#712,#175);
#124=LINE('',#714,#176);
#125=LINE('',#716,#177);
#126=LINE('',#718,#178);
#127=LINE('',#720,#179);
#128=LINE('',#722,#180);
#129=LINE('',#724,#181);
#130=LINE('',#726,#182);
#131=LINE('',#732,#183);
#132=LINE('',#734,#184);
#133=LINE('',#737,#185);
#134=LINE('',#738,#186);
#135=LINE('',#740,#187);
#136=LINE('',#741,#188);
#137=LINE('',#743,#189);
#138=LINE('',#745,#190);
#139=LINE('',#747,#191);
#140=LINE('',#751,#192);
#141=LINE('',#753,#193);
#142=LINE('',#756,#194);
#143=LINE('',#758,#195);
#144=LINE('',#760,#196);
#145=LINE('',#762,#197);
#146=LINE('',#766,#198);
#147=LINE('',#772,#199);
#148=LINE('',#773,#200);
#149=LINE('',#777,#201);
#150=LINE('',#779,#202);
#151=LINE('',#781,#203);
#152=LINE('',#783,#204);
#153=VECTOR('',#535,1.);
#154=VECTOR('',#538,1.);
#155=VECTOR('',#539,1.);
#156=VECTOR('',#540,1.);
#157=VECTOR('',#541,1.);
#158=VECTOR('',#544,1.);
#159=VECTOR('',#545,1.);
#160=VECTOR('',#546,1.);
#161=VECTOR('',#549,1.);
#162=VECTOR('',#552,1.);
#163=VECTOR('',#553,1.);
#164=VECTOR('',#554,1.);
#165=VECTOR('',#557,1.);
#166=VECTOR('',#558,1.);
#167=VECTOR('',#559,1.);
#168=VECTOR('',#560,1.);
#169=VECTOR('',#561,1.);
#170=VECTOR('',#564,1.);
#171=VECTOR('',#565,1.);
#172=VECTOR('',#566,1.);
#173=VECTOR('',#567,1.);
#174=VECTOR('',#568,1.);
#175=VECTOR('',#569,1.);
#176=VECTOR('',#570,1.);
#177=VECTOR('',#573,1.);
#178=VECTOR('',#574,1.);
#179=VECTOR('',#575,1.);
#180=VECTOR('',#576,1.);
#181=VECTOR('',#577,1.);
#182=VECTOR('',#578,1.);
#183=VECTOR('',#585,1.);
#184=VECTOR('',#588,1.);
#185=VECTOR('',#589,1.);
#186=VECTOR('',#590,1.);
#187=VECTOR('',#593,1.);
#188=VECTOR('',#594,1.);
#189=VECTOR('',#597,1.);
#190=VECTOR('',#600,1.);
#191=VECTOR('',#601,1.);
#192=VECTOR('',#606,1.);
#193=VECTOR('',#609,1.);
#194=VECTOR('',#614,1.);
#195=VECTOR('',#615,1.);
#196=VECTOR('',#618,1.);
#197=VECTOR('',#619,1.);
#198=VECTOR('',#624,1.);
#199=VECTOR('',#631,1.);
#200=VECTOR('',#632,1.);
#201=VECTOR('',#639,1.);
#202=VECTOR('',#640,1.);
#203=VECTOR('',#643,1.);
#204=VECTOR('',#644,1.);
#205=FACE_BOUND('',#216,.T.);
#206=FACE_BOUND('',#217,.T.);
#207=FACE_BOUND('',#221,.T.);
#208=FACE_BOUND('',#222,.T.);
#209=FACE_BOUND('',#223,.T.);
#210=FACE_BOUND('',#233,.T.);
#211=FACE_BOUND('',#234,.T.);
#212=FACE_BOUND('',#242,.T.);
#213=FACE_BOUND('',#243,.T.);
#214=FACE_BOUND('',#244,.T.);
#215=FACE_BOUND('',#245,.T.);
#216=EDGE_LOOP('',(#246));
#217=EDGE_LOOP('',(#247,#248,#249,#250,#251,#252,#253,#254,#255,#256,#257,
#258,#259,#260,#261,#262));
#218=EDGE_LOOP('',(#263,#264,#265,#266,#267,#268));
#219=EDGE_LOOP('',(#269,#270,#271,#272,#273,#274,#275,#276,#277,#278));
#220=EDGE_LOOP('',(#279,#280,#281,#282,#283,#284,#285));
#221=EDGE_LOOP('',(#286));
#222=EDGE_LOOP('',(#287));
#223=EDGE_LOOP('',(#288,#289,#290,#291));
#224=EDGE_LOOP('',(#292,#293,#294,#295,#296,#297));
#225=EDGE_LOOP('',(#298,#299,#300,#301));
#226=EDGE_LOOP('',(#302,#303,#304,#305,#306));
#227=EDGE_LOOP('',(#307,#308,#309,#310));
#228=EDGE_LOOP('',(#311,#312,#313,#314,#315));
#229=EDGE_LOOP('',(#316,#317,#318,#319,#320));
#230=EDGE_LOOP('',(#321,#322,#323,#324));
#231=EDGE_LOOP('',(#325,#326,#327,#328));
#232=EDGE_LOOP('',(#329,#330,#331,#332));
#233=EDGE_LOOP('',(#333));
#234=EDGE_LOOP('',(#334,#335,#336,#337,#338,#339));
#235=EDGE_LOOP('',(#340,#341,#342,#343));
#236=EDGE_LOOP('',(#344,#345,#346,#347));
#237=EDGE_LOOP('',(#348,#349,#350,#351));
#238=EDGE_LOOP('',(#352,#353,#354,#355));
#239=EDGE_LOOP('',(#356,#357,#358,#359,#360));
#240=EDGE_LOOP('',(#361,#362,#363,#364,#365));
#241=EDGE_LOOP('',(#366,#367,#368,#369));
#242=EDGE_LOOP('',(#370));
#243=EDGE_LOOP('',(#371));
#244=EDGE_LOOP('',(#372));
#245=EDGE_LOOP('',(#373));
#246=ORIENTED_EDGE('',*,*,#418,.F.);
#247=ORIENTED_EDGE('',*,*,#419,.F.);
#248=ORIENTED_EDGE('',*,*,#420,.T.);
#249=ORIENTED_EDGE('',*,*,#421,.F.);
#250=ORIENTED_EDGE('',*,*,#422,.T.);
#251=ORIENTED_EDGE('',*,*,#423,.T.);
#252=ORIENTED_EDGE('',*,*,#424,.F.);
#253=ORIENTED_EDGE('',*,*,#425,.T.);
#254=ORIENTED_EDGE('',*,*,#426,.F.);
#255=ORIENTED_EDGE('',*,*,#427,.F.);
#256=ORIENTED_EDGE('',*,*,#428,.F.);
#257=ORIENTED_EDGE('',*,*,#429,.T.);
#258=ORIENTED_EDGE('',*,*,#430,.F.);
#259=ORIENTED_EDGE('',*,*,#431,.T.);
#260=ORIENTED_EDGE('',*,*,#432,.F.);
#261=ORIENTED_EDGE('',*,*,#433,.F.);
#262=ORIENTED_EDGE('',*,*,#434,.F.);
#263=ORIENTED_EDGE('',*,*,#435,.T.);
#264=ORIENTED_EDGE('',*,*,#434,.T.);
#265=ORIENTED_EDGE('',*,*,#436,.F.);
#266=ORIENTED_EDGE('',*,*,#437,.T.);
#267=ORIENTED_EDGE('',*,*,#438,.T.);
#268=ORIENTED_EDGE('',*,*,#439,.F.);
#269=ORIENTED_EDGE('',*,*,#440,.F.);
#270=ORIENTED_EDGE('',*,*,#441,.F.);
#271=ORIENTED_EDGE('',*,*,#442,.T.);
#272=ORIENTED_EDGE('',*,*,#427,.T.);
#273=ORIENTED_EDGE('',*,*,#443,.F.);
#274=ORIENTED_EDGE('',*,*,#444,.F.);
#275=ORIENTED_EDGE('',*,*,#445,.F.);
#276=ORIENTED_EDGE('',*,*,#446,.T.);
#277=ORIENTED_EDGE('',*,*,#436,.T.);
#278=ORIENTED_EDGE('',*,*,#433,.T.);
#279=ORIENTED_EDGE('',*,*,#447,.F.);
#280=ORIENTED_EDGE('',*,*,#448,.T.);
#281=ORIENTED_EDGE('',*,*,#449,.T.);
#282=ORIENTED_EDGE('',*,*,#450,.T.);
#283=ORIENTED_EDGE('',*,*,#451,.F.);
#284=ORIENTED_EDGE('',*,*,#452,.T.);
#285=ORIENTED_EDGE('',*,*,#445,.T.);
#286=ORIENTED_EDGE('',*,*,#453,.F.);
#287=ORIENTED_EDGE('',*,*,#454,.F.);
#288=ORIENTED_EDGE('',*,*,#455,.F.);
#289=ORIENTED_EDGE('',*,*,#437,.F.);
#290=ORIENTED_EDGE('',*,*,#446,.F.);
#291=ORIENTED_EDGE('',*,*,#452,.F.);
#292=ORIENTED_EDGE('',*,*,#456,.F.);
#293=ORIENTED_EDGE('',*,*,#457,.F.);
#294=ORIENTED_EDGE('',*,*,#438,.F.);
#295=ORIENTED_EDGE('',*,*,#455,.T.);
#296=ORIENTED_EDGE('',*,*,#451,.T.);
#297=ORIENTED_EDGE('',*,*,#458,.T.);
#298=ORIENTED_EDGE('',*,*,#459,.F.);
#299=ORIENTED_EDGE('',*,*,#423,.F.);
#300=ORIENTED_EDGE('',*,*,#460,.T.);
#301=ORIENTED_EDGE('',*,*,#449,.F.);
#302=ORIENTED_EDGE('',*,*,#461,.F.);
#303=ORIENTED_EDGE('',*,*,#458,.F.);
#304=ORIENTED_EDGE('',*,*,#450,.F.);
#305=ORIENTED_EDGE('',*,*,#460,.F.);
#306=ORIENTED_EDGE('',*,*,#422,.F.);
#307=ORIENTED_EDGE('',*,*,#426,.T.);
#308=ORIENTED_EDGE('',*,*,#462,.T.);
#309=ORIENTED_EDGE('',*,*,#463,.T.);
#310=ORIENTED_EDGE('',*,*,#443,.T.);
#311=ORIENTED_EDGE('',*,*,#463,.F.);
#312=ORIENTED_EDGE('',*,*,#464,.T.);
#313=ORIENTED_EDGE('',*,*,#465,.F.);
#314=ORIENTED_EDGE('',*,*,#447,.T.);
#315=ORIENTED_EDGE('',*,*,#444,.T.);
#316=ORIENTED_EDGE('',*,*,#465,.T.);
#317=ORIENTED_EDGE('',*,*,#466,.T.);
#318=ORIENTED_EDGE('',*,*,#424,.T.);
#319=ORIENTED_EDGE('',*,*,#459,.T.);
#320=ORIENTED_EDGE('',*,*,#448,.F.);
#321=ORIENTED_EDGE('',*,*,#425,.F.);
#322=ORIENTED_EDGE('',*,*,#466,.F.);
#323=ORIENTED_EDGE('',*,*,#464,.F.);
#324=ORIENTED_EDGE('',*,*,#462,.F.);
#325=ORIENTED_EDGE('',*,*,#432,.T.);
#326=ORIENTED_EDGE('',*,*,#467,.T.);
#327=ORIENTED_EDGE('',*,*,#468,.T.);
#328=ORIENTED_EDGE('',*,*,#440,.T.);
#329=ORIENTED_EDGE('',*,*,#469,.T.);
#330=ORIENTED_EDGE('',*,*,#470,.T.);
#331=ORIENTED_EDGE('',*,*,#428,.T.);
#332=ORIENTED_EDGE('',*,*,#442,.F.);
#333=ORIENTED_EDGE('',*,*,#471,.T.);
#334=ORIENTED_EDGE('',*,*,#472,.F.);
#335=ORIENTED_EDGE('',*,*,#473,.T.);
#336=ORIENTED_EDGE('',*,*,#469,.F.);
#337=ORIENTED_EDGE('',*,*,#441,.T.);
#338=ORIENTED_EDGE('',*,*,#468,.F.);
#339=ORIENTED_EDGE('',*,*,#474,.T.);
#340=ORIENTED_EDGE('',*,*,#430,.T.);
#341=ORIENTED_EDGE('',*,*,#475,.T.);
#342=ORIENTED_EDGE('',*,*,#472,.T.);
#343=ORIENTED_EDGE('',*,*,#476,.T.);
#344=ORIENTED_EDGE('',*,*,#429,.F.);
#345=ORIENTED_EDGE('',*,*,#470,.F.);
#346=ORIENTED_EDGE('',*,*,#473,.F.);
#347=ORIENTED_EDGE('',*,*,#475,.F.);
#348=ORIENTED_EDGE('',*,*,#431,.F.);
#349=ORIENTED_EDGE('',*,*,#476,.F.);
#350=ORIENTED_EDGE('',*,*,#474,.F.);
#351=ORIENTED_EDGE('',*,*,#467,.F.);
#352=ORIENTED_EDGE('',*,*,#477,.T.);
#353=ORIENTED_EDGE('',*,*,#478,.T.);
#354=ORIENTED_EDGE('',*,*,#419,.T.);
#355=ORIENTED_EDGE('',*,*,#435,.F.);
#356=ORIENTED_EDGE('',*,*,#421,.T.);
#357=ORIENTED_EDGE('',*,*,#479,.T.);
#358=ORIENTED_EDGE('',*,*,#480,.T.);
#359=ORIENTED_EDGE('',*,*,#456,.T.);
#360=ORIENTED_EDGE('',*,*,#461,.T.);
#361=ORIENTED_EDGE('',*,*,#480,.F.);
#362=ORIENTED_EDGE('',*,*,#481,.T.);
#363=ORIENTED_EDGE('',*,*,#477,.F.);
#364=ORIENTED_EDGE('',*,*,#439,.T.);
#365=ORIENTED_EDGE('',*,*,#457,.T.);
#366=ORIENTED_EDGE('',*,*,#420,.F.);
#367=ORIENTED_EDGE('',*,*,#478,.F.);
#368=ORIENTED_EDGE('',*,*,#481,.F.);
#369=ORIENTED_EDGE('',*,*,#479,.F.);
#370=ORIENTED_EDGE('',*,*,#454,.T.);
#371=ORIENTED_EDGE('',*,*,#471,.F.);
#372=ORIENTED_EDGE('',*,*,#418,.T.);
#373=ORIENTED_EDGE('',*,*,#453,.T.);
#374=VERTEX_POINT('',#659);
#375=VERTEX_POINT('',#661);
#376=VERTEX_POINT('',#662);
#377=VERTEX_POINT('',#664);
#378=VERTEX_POINT('',#666);
#379=VERTEX_POINT('',#668);
#380=VERTEX_POINT('',#670);
#381=VERTEX_POINT('',#672);
#382=VERTEX_POINT('',#674);
#383=VERTEX_POINT('',#676);
#384=VERTEX_POINT('',#678);
#385=VERTEX_POINT('',#680);
#386=VERTEX_POINT('',#682);
#387=VERTEX_POINT('',#684);
#388=VERTEX_POINT('',#686);
#389=VERTEX_POINT('',#688);
#390=VERTEX_POINT('',#690);
#391=VERTEX_POINT('',#694);
#392=VERTEX_POINT('',#696);
#393=VERTEX_POINT('',#698);
#394=VERTEX_POINT('',#700);
#395=VERTEX_POINT('',#704);
#396=VERTEX_POINT('',#706);
#397=VERTEX_POINT('',#709);
#398=VERTEX_POINT('',#711);
#399=VERTEX_POINT('',#713);
#400=VERTEX_POINT('',#717);
#401=VERTEX_POINT('',#719);
#402=VERTEX_POINT('',#721);
#403=VERTEX_POINT('',#723);
#404=VERTEX_POINT('',#725);
#405=VERTEX_POINT('',#729);
#406=VERTEX_POINT('',#731);
#407=VERTEX_POINT('',#735);
#408=VERTEX_POINT('',#736);
#409=VERTEX_POINT('',#746);
#410=VERTEX_POINT('',#750);
#411=VERTEX_POINT('',#757);
#412=VERTEX_POINT('',#761);
#413=VERTEX_POINT('',#765);
#414=VERTEX_POINT('',#767);
#415=VERTEX_POINT('',#768);
#416=VERTEX_POINT('',#778);
#417=VERTEX_POINT('',#782);
#418=EDGE_CURVE('',#374,#374,#482,.T.);
#419=EDGE_CURVE('',#375,#376,#101,.T.);
#420=EDGE_CURVE('',#375,#377,#483,.T.);
#421=EDGE_CURVE('',#378,#377,#102,.T.);
#422=EDGE_CURVE('',#378,#379,#103,.T.);
#423=EDGE_CURVE('',#379,#380,#104,.T.);
#424=EDGE_CURVE('',#381,#380,#105,.T.);
#425=EDGE_CURVE('',#381,#382,#484,.T.);
#426=EDGE_CURVE('',#383,#382,#106,.T.);
#427=EDGE_CURVE('',#384,#383,#107,.T.);
#428=EDGE_CURVE('',#385,#384,#108,.T.);
#429=EDGE_CURVE('',#385,#386,#485,.T.);
#430=EDGE_CURVE('',#387,#386,#109,.T.);
#431=EDGE_CURVE('',#387,#388,#486,.T.);
#432=EDGE_CURVE('',#389,#388,#110,.T.);
#433=EDGE_CURVE('',#390,#389,#111,.T.);
#434=EDGE_CURVE('',#376,#390,#112,.T.);
#435=EDGE_CURVE('',#391,#376,#113,.T.);
#436=EDGE_CURVE('',#392,#390,#114,.T.);
#437=EDGE_CURVE('',#392,#393,#115,.T.);
#438=EDGE_CURVE('',#393,#394,#116,.T.);
#439=EDGE_CURVE('',#391,#394,#117,.T.);
#440=EDGE_CURVE('',#395,#389,#118,.T.);
#441=EDGE_CURVE('',#396,#395,#119,.T.);
#442=EDGE_CURVE('',#396,#384,#120,.T.);
#443=EDGE_CURVE('',#397,#383,#121,.T.);
#444=EDGE_CURVE('',#398,#397,#122,.T.);
#445=EDGE_CURVE('',#399,#398,#123,.T.);
#446=EDGE_CURVE('',#399,#392,#124,.T.);
#447=EDGE_CURVE('',#400,#398,#125,.T.);
#448=EDGE_CURVE('',#400,#401,#126,.T.);
#449=EDGE_CURVE('',#401,#402,#127,.T.);
#450=EDGE_CURVE('',#402,#403,#128,.T.);
#451=EDGE_CURVE('',#404,#403,#129,.T.);
#452=EDGE_CURVE('',#404,#399,#130,.T.);
#453=EDGE_CURVE('',#405,#405,#487,.T.);
#454=EDGE_CURVE('',#406,#406,#488,.T.);
#455=EDGE_CURVE('',#393,#404,#131,.T.);
#456=EDGE_CURVE('',#407,#408,#132,.T.);
#457=EDGE_CURVE('',#394,#407,#133,.T.);
#458=EDGE_CURVE('',#403,#408,#134,.T.);
#459=EDGE_CURVE('',#380,#401,#135,.T.);
#460=EDGE_CURVE('',#379,#402,#136,.T.);
#461=EDGE_CURVE('',#408,#378,#137,.T.);
#462=EDGE_CURVE('',#382,#409,#138,.T.);
#463=EDGE_CURVE('',#409,#397,#139,.T.);
#464=EDGE_CURVE('',#409,#410,#489,.T.);
#465=EDGE_CURVE('',#400,#410,#140,.T.);
#466=EDGE_CURVE('',#410,#381,#141,.T.);
#467=EDGE_CURVE('',#388,#411,#142,.T.);
#468=EDGE_CURVE('',#411,#395,#143,.T.);
#469=EDGE_CURVE('',#396,#412,#144,.T.);
#470=EDGE_CURVE('',#412,#385,#145,.T.);
#471=EDGE_CURVE('',#413,#413,#490,.T.);
#472=EDGE_CURVE('',#414,#415,#146,.T.);
#473=EDGE_CURVE('',#414,#412,#491,.T.);
#474=EDGE_CURVE('',#411,#415,#492,.T.);
#475=EDGE_CURVE('',#386,#414,#147,.T.);
#476=EDGE_CURVE('',#415,#387,#148,.T.);
#477=EDGE_CURVE('',#391,#416,#149,.T.);
#478=EDGE_CURVE('',#416,#375,#150,.T.);
#479=EDGE_CURVE('',#377,#417,#151,.T.);
#480=EDGE_CURVE('',#417,#407,#152,.T.);
#481=EDGE_CURVE('',#417,#416,#493,.T.);
#482=CIRCLE('',#495,5.25);
#483=CIRCLE('',#496,3.4);
#484=CIRCLE('',#497,9.5);
#485=CIRCLE('',#498,6.7);
#486=CIRCLE('',#499,6.7);
#487=CIRCLE('',#504,5.25);
#488=CIRCLE('',#505,10.);
#489=CIRCLE('',#511,9.5);
#490=CIRCLE('',#517,10.);
#491=CIRCLE('',#518,6.7);
#492=CIRCLE('',#519,6.7);
#493=CIRCLE('',#526,3.4);
#494=AXIS2_PLACEMENT_3D('',#657,#531,#532);
#495=AXIS2_PLACEMENT_3D('',#658,#533,#534);
#496=AXIS2_PLACEMENT_3D('',#663,#536,#537);
#497=AXIS2_PLACEMENT_3D('',#673,#542,#543);
#498=AXIS2_PLACEMENT_3D('',#681,#547,#548);
#499=AXIS2_PLACEMENT_3D('',#685,#550,#551);
#500=AXIS2_PLACEMENT_3D('',#692,#555,#556);
#501=AXIS2_PLACEMENT_3D('',#702,#562,#563);
#502=AXIS2_PLACEMENT_3D('',#715,#571,#572);
#503=AXIS2_PLACEMENT_3D('',#727,#579,#580);
#504=AXIS2_PLACEMENT_3D('',#728,#581,#582);
#505=AXIS2_PLACEMENT_3D('',#730,#583,#584);
#506=AXIS2_PLACEMENT_3D('',#733,#586,#587);
#507=AXIS2_PLACEMENT_3D('',#739,#591,#592);
#508=AXIS2_PLACEMENT_3D('',#742,#595,#596);
#509=AXIS2_PLACEMENT_3D('',#744,#598,#599);
#510=AXIS2_PLACEMENT_3D('',#748,#602,#603);
#511=AXIS2_PLACEMENT_3D('',#749,#604,#605);
#512=AXIS2_PLACEMENT_3D('',#752,#607,#608);
#513=AXIS2_PLACEMENT_3D('',#754,#610,#611);
#514=AXIS2_PLACEMENT_3D('',#755,#612,#613);
#515=AXIS2_PLACEMENT_3D('',#759,#616,#617);
#516=AXIS2_PLACEMENT_3D('',#763,#620,#621);
#517=AXIS2_PLACEMENT_3D('',#764,#622,#623);
#518=AXIS2_PLACEMENT_3D('',#769,#625,#626);
#519=AXIS2_PLACEMENT_3D('',#770,#627,#628);
#520=AXIS2_PLACEMENT_3D('',#771,#629,#630);
#521=AXIS2_PLACEMENT_3D('',#774,#633,#634);
#522=AXIS2_PLACEMENT_3D('',#775,#635,#636);
#523=AXIS2_PLACEMENT_3D('',#776,#637,#638);
#524=AXIS2_PLACEMENT_3D('',#780,#641,#642);
#525=AXIS2_PLACEMENT_3D('',#784,#645,#646);
#526=AXIS2_PLACEMENT_3D('',#785,#647,#648);
#527=AXIS2_PLACEMENT_3D('',#786,#649,#650);
#528=AXIS2_PLACEMENT_3D('',#787,#651,#652);
#529=AXIS2_PLACEMENT_3D('',#788,#653,#654);
#530=AXIS2_PLACEMENT_3D('',#789,#655,#656);
#531=DIRECTION('',(0.,0.,1.));
#532=DIRECTION('',(1.,0.,0.));
#533=DIRECTION('',(0.,0.,1.));
#534=DIRECTION('',(0.999999999999996,0.,0.));
#535=DIRECTION('',(0.,-1.,0.));
#536=DIRECTION('',(0.,0.,-1.));
#537=DIRECTION('',(1.,0.,0.));
#538=DIRECTION('',(-1.,0.,0.));
#539=DIRECTION('',(0.,1.,0.));
#540=DIRECTION('',(-1.,0.,0.));
#541=DIRECTION('',(0.,1.,0.));
#542=DIRECTION('',(0.,0.,-1.));
#543=DIRECTION('',(0.999999999999999,0.,0.));
#544=DIRECTION('',(1.,0.,0.));
#545=DIRECTION('',(0.,1.,0.));
#546=DIRECTION('',(-1.,0.,0.));
#547=DIRECTION('',(0.,0.,-1.));
#548=DIRECTION('',(1.,0.,0.));
#549=DIRECTION('',(0.,1.,0.));
#550=DIRECTION('',(0.,0.,-1.));
#551=DIRECTION('',(1.,0.,0.));
#552=DIRECTION('',(1.,0.,0.));
#553=DIRECTION('',(0.,1.,0.));
#554=DIRECTION('',(-1.,0.,0.));
#555=DIRECTION('',(0.,0.,1.));
#556=DIRECTION('',(1.,0.,0.));
#557=DIRECTION('',(0.,0.,1.));
#558=DIRECTION('',(0.,0.,1.));
#559=DIRECTION('',(1.,0.,0.));
#560=DIRECTION('',(0.,0.,1.));
#561=DIRECTION('',(1.,0.,0.));
#562=DIRECTION('',(0.,-1.,0.));
#563=DIRECTION('',(0.,0.,-1.));
#564=DIRECTION('',(0.,0.,1.));
#565=DIRECTION('',(0.,-1.,0.));
#566=DIRECTION('',(0.,0.,1.));
#567=DIRECTION('',(0.,0.,1.));
#568=DIRECTION('',(0.,-1.,0.));
#569=DIRECTION('',(0.,0.,1.));
#570=DIRECTION('',(0.,-1.,0.));
#571=DIRECTION('',(-1.,0.,0.));
#572=DIRECTION('',(0.,0.,1.));
#573=DIRECTION('',(-1.,0.,0.));
#574=DIRECTION('',(0.,0.,1.));
#575=DIRECTION('',(1.,0.,0.));
#576=DIRECTION('',(0.707106781186548,0.,-0.707106781186547));
#577=DIRECTION('',(0.,0.,1.));
#578=DIRECTION('',(-1.,0.,0.));
#579=DIRECTION('',(0.,1.,0.));
#580=DIRECTION('',(0.,0.,1.));
#581=DIRECTION('',(0.,0.,-1.));
#582=DIRECTION('',(-0.999999999999996,0.,0.));
#583=DIRECTION('',(0.,0.,-1.));
#584=DIRECTION('',(-1.,0.,0.));
#585=DIRECTION('',(0.,1.,0.));
#586=DIRECTION('',(0.,0.,-1.));
#587=DIRECTION('',(-1.,0.,0.));
#588=DIRECTION('',(0.,0.,1.));
#589=DIRECTION('',(0.,1.,0.));
#590=DIRECTION('',(0.,-1.,0.));
#591=DIRECTION('',(1.,0.,0.));
#592=DIRECTION('',(0.,0.,-1.));
#593=DIRECTION('',(0.,0.707106781186548,-0.707106781186548));
#594=DIRECTION('',(0.577350269189626,0.577350269189626,-0.577350269189626));
#595=DIRECTION('',(0.,-0.707106781186547,-0.707106781186547));
#596=DIRECTION('',(1.,0.,0.));
#597=DIRECTION('',(-0.707106781186548,0.,0.707106781186547));
#598=DIRECTION('',(-0.707106781186547,0.,-0.707106781186548));
#599=DIRECTION('',(0.,-1.,0.));
#600=DIRECTION('',(0.,0.,-1.));
#601=DIRECTION('',(-1.,0.,0.));
#602=DIRECTION('',(0.,-1.,0.));
#603=DIRECTION('',(0.,0.,-1.));
#604=DIRECTION('',(0.,0.,1.));
#605=DIRECTION('',(-0.999999999999999,0.,0.));
#606=DIRECTION('',(0.,-1.,0.));
#607=DIRECTION('',(0.,0.,-1.));
#608=DIRECTION('',(-1.,0.,0.));
#609=DIRECTION('',(0.,0.,1.));
#610=DIRECTION('',(1.,0.,0.));
#611=DIRECTION('',(0.,0.,-1.));
#612=DIRECTION('',(0.,0.,1.));
#613=DIRECTION('',(0.999999999999999,0.,0.));
#614=DIRECTION('',(0.,0.,-1.));
#615=DIRECTION('',(-1.,0.,0.));
#616=DIRECTION('',(0.,-1.,0.));
#617=DIRECTION('',(0.,0.,-1.));
#618=DIRECTION('',(1.,0.,0.));
#619=DIRECTION('',(0.,0.,1.));
#620=DIRECTION('',(0.,1.,0.));
#621=DIRECTION('',(0.,0.,1.));
#622=DIRECTION('',(0.,0.,-1.));
#623=DIRECTION('',(-1.,0.,0.));
#624=DIRECTION('',(0.,-1.,0.));
#625=DIRECTION('',(0.,0.,1.));
#626=DIRECTION('',(-1.,0.,0.));
#627=DIRECTION('',(0.,0.,1.));
#628=DIRECTION('',(-1.,0.,0.));
#629=DIRECTION('',(0.,0.,-1.));
#630=DIRECTION('',(-1.,0.,0.));
#631=DIRECTION('',(0.,0.,-1.));
#632=DIRECTION('',(0.,0.,1.));
#633=DIRECTION('',(1.,0.,0.));
#634=DIRECTION('',(0.,0.,-1.));
#635=DIRECTION('',(0.,0.,1.));
#636=DIRECTION('',(1.,0.,0.));
#637=DIRECTION('',(0.,0.,1.));
#638=DIRECTION('',(1.,0.,0.));
#639=DIRECTION('',(0.,1.,0.));
#640=DIRECTION('',(0.,0.,1.));
#641=DIRECTION('',(-1.,0.,0.));
#642=DIRECTION('',(0.,0.,1.));
#643=DIRECTION('',(0.,0.,-1.));
#644=DIRECTION('',(1.,0.,0.));
#645=DIRECTION('',(0.,1.,0.));
#646=DIRECTION('',(0.,0.,1.));
#647=DIRECTION('',(0.,0.,1.));
#648=DIRECTION('',(-1.,0.,0.));
#649=DIRECTION('',(0.,0.,-1.));
#650=DIRECTION('',(-1.,0.,0.));
#651=DIRECTION('',(0.,0.,1.));
#652=DIRECTION('',(1.,0.,0.));
#653=DIRECTION('',(0.,0.,-1.));
#654=DIRECTION('',(1.,0.,0.));
#655=DIRECTION('',(0.,0.,-1.));
#656=DIRECTION('',(0.999999999999996,0.,0.));
#657=CARTESIAN_POINT('',(0.,0.,0.));
#658=CARTESIAN_POINT('',(264.8,307.4,52.2));
#659=CARTESIAN_POINT('',(270.05,307.4,52.2));
#660=CARTESIAN_POINT('',(346.9,164.45,52.2));
#661=CARTESIAN_POINT('',(346.9,62.1,52.2));
#662=CARTESIAN_POINT('',(346.9,0.,52.2));
#663=CARTESIAN_POINT('',(350.3,62.1,52.2));
#664=CARTESIAN_POINT('',(350.3,65.5,52.2));
#665=CARTESIAN_POINT('',(245.95,65.5,52.2));
#666=CARTESIAN_POINT('',(485.4,65.5,52.2));
#667=CARTESIAN_POINT('',(485.4,164.45,52.2));
#668=CARTESIAN_POINT('',(485.4,325.9,52.2));
#669=CARTESIAN_POINT('',(245.95,325.9,52.2));
#670=CARTESIAN_POINT('',(93.6,325.9,52.2));
#671=CARTESIAN_POINT('',(93.6,164.45,52.2));
#672=CARTESIAN_POINT('',(93.6,228.2,52.2));
#673=CARTESIAN_POINT('',(84.1,228.2,52.2));
#674=CARTESIAN_POINT('',(84.1,218.7,52.2));
#675=CARTESIAN_POINT('',(245.95,218.7,52.2));
#676=CARTESIAN_POINT('',(0.,218.7,52.2));
#677=CARTESIAN_POINT('',(0.,164.45,52.2));
#678=CARTESIAN_POINT('',(0.,211.9,52.2));
#679=CARTESIAN_POINT('',(245.95,211.9,52.2));
#680=CARTESIAN_POINT('',(102.9,211.9,52.2));
#681=CARTESIAN_POINT('',(102.9,205.2,52.2));
#682=CARTESIAN_POINT('',(109.6,205.2,52.2));
#683=CARTESIAN_POINT('',(109.6,164.45,52.2));
#684=CARTESIAN_POINT('',(109.6,63.,52.2));
#685=CARTESIAN_POINT('',(102.9,63.,52.2));
#686=CARTESIAN_POINT('',(102.9,56.3,52.2));
#687=CARTESIAN_POINT('',(245.95,56.3,52.2));
#688=CARTESIAN_POINT('',(0.,56.3,52.2));
#689=CARTESIAN_POINT('',(0.,164.45,52.2));
#690=CARTESIAN_POINT('',(0.,0.,52.2));
#691=CARTESIAN_POINT('',(245.95,0.,52.2));
#692=CARTESIAN_POINT('',(245.95,164.45,52.2));
#693=CARTESIAN_POINT('',(346.9,0.,26.3));
#694=CARTESIAN_POINT('',(346.9,0.,26.3));
#695=CARTESIAN_POINT('',(0.,0.,0.));
#696=CARTESIAN_POINT('',(0.,0.,0.));
#697=CARTESIAN_POINT('',(245.95,0.,0.));
#698=CARTESIAN_POINT('',(491.9,0.,0.));
#699=CARTESIAN_POINT('',(491.9,0.,0.));
#700=CARTESIAN_POINT('',(491.9,0.,26.3));
#701=CARTESIAN_POINT('',(419.4,0.,26.3));
#702=CARTESIAN_POINT('',(245.95,0.,0.));
#703=CARTESIAN_POINT('',(0.,56.3,32.1));
#704=CARTESIAN_POINT('',(0.,56.3,32.1));
#705=CARTESIAN_POINT('',(0.,134.1,32.1));
#706=CARTESIAN_POINT('',(0.,211.9,32.1));
#707=CARTESIAN_POINT('',(0.,211.9,32.1));
#708=CARTESIAN_POINT('',(0.,218.7,45.6));
#709=CARTESIAN_POINT('',(0.,218.7,45.6));
#710=CARTESIAN_POINT('',(0.,273.8,45.6));
#711=CARTESIAN_POINT('',(0.,328.9,45.6));
#712=CARTESIAN_POINT('',(0.,328.9,0.));
#713=CARTESIAN_POINT('',(0.,328.9,0.));
#714=CARTESIAN_POINT('',(0.,164.45,0.));
#715=CARTESIAN_POINT('',(0.,164.45,0.));
#716=CARTESIAN_POINT('',(46.8,328.9,45.6));
#717=CARTESIAN_POINT('',(93.6,328.9,45.6));
#718=CARTESIAN_POINT('',(93.6,328.9,45.6));
#719=CARTESIAN_POINT('',(93.6,328.9,49.2));
#720=CARTESIAN_POINT('',(245.95,328.9,49.2));
#721=CARTESIAN_POINT('',(488.4,328.9,49.2));
#722=CARTESIAN_POINT('',(391.775,328.9,145.825));
#723=CARTESIAN_POINT('',(491.9,328.9,45.7));
#724=CARTESIAN_POINT('',(491.9,328.9,0.));
#725=CARTESIAN_POINT('',(491.9,328.9,0.));
#726=CARTESIAN_POINT('',(245.95,328.9,0.));
#727=CARTESIAN_POINT('',(245.95,328.9,0.));
#728=CARTESIAN_POINT('',(264.8,307.4,0.));
#729=CARTESIAN_POINT('',(259.55,307.4,0.));
#730=CARTESIAN_POINT('',(23.3,198.7,0.));
#731=CARTESIAN_POINT('',(13.3,198.7,0.));
#732=CARTESIAN_POINT('',(491.9,164.45,0.));
#733=CARTESIAN_POINT('',(245.95,164.45,0.));
#734=CARTESIAN_POINT('',(491.9,65.5,26.3));
#735=CARTESIAN_POINT('',(491.9,65.5,26.3));
#736=CARTESIAN_POINT('',(491.9,65.5,45.7));
#737=CARTESIAN_POINT('',(491.9,32.75,26.3));
#738=CARTESIAN_POINT('',(491.9,164.45,45.7));
#739=CARTESIAN_POINT('',(491.9,164.45,0.));
#740=CARTESIAN_POINT('',(93.6,328.9,49.2));
#741=CARTESIAN_POINT('',(407.583333333333,248.083333333333,130.016666666667));
#742=CARTESIAN_POINT('',(245.95,328.9,49.2));
#743=CARTESIAN_POINT('',(491.9,65.5,45.7));
#744=CARTESIAN_POINT('',(491.9,164.45,45.7));
#745=CARTESIAN_POINT('',(84.1,218.7,45.6));
#746=CARTESIAN_POINT('',(84.1,218.7,45.6));
#747=CARTESIAN_POINT('',(46.8,218.7,45.6));
#748=CARTESIAN_POINT('',(46.8,218.7,45.6));
#749=CARTESIAN_POINT('',(84.1,228.2,45.6));
#750=CARTESIAN_POINT('',(93.6,228.2,45.6));
#751=CARTESIAN_POINT('',(93.6,273.8,45.6));
#752=CARTESIAN_POINT('',(46.8,273.8,45.6));
#753=CARTESIAN_POINT('',(93.6,228.2,52.2));
#754=CARTESIAN_POINT('',(93.6,273.8,45.6));
#755=CARTESIAN_POINT('',(84.1,228.2,45.6));
#756=CARTESIAN_POINT('',(102.9,56.3,32.1));
#757=CARTESIAN_POINT('',(102.9,56.3,32.1));
#758=CARTESIAN_POINT('',(54.8,56.3,32.1));
#759=CARTESIAN_POINT('',(54.8,56.3,32.1));
#760=CARTESIAN_POINT('',(54.8,211.9,32.1));
#761=CARTESIAN_POINT('',(102.9,211.9,32.1));
#762=CARTESIAN_POINT('',(102.9,211.9,52.2));
#763=CARTESIAN_POINT('',(54.8,211.9,32.1));
#764=CARTESIAN_POINT('',(23.3,198.7,32.1));
#765=CARTESIAN_POINT('',(13.3,198.7,32.1));
#766=CARTESIAN_POINT('',(109.6,134.1,32.1));
#767=CARTESIAN_POINT('',(109.6,205.2,32.1));
#768=CARTESIAN_POINT('',(109.6,63.,32.1));
#769=CARTESIAN_POINT('',(102.9,205.2,32.1));
#770=CARTESIAN_POINT('',(102.9,63.,32.1));
#771=CARTESIAN_POINT('',(54.8,134.1,32.1));
#772=CARTESIAN_POINT('',(109.6,205.2,32.1));
#773=CARTESIAN_POINT('',(109.6,63.,52.2));
#774=CARTESIAN_POINT('',(109.6,134.1,32.1));
#775=CARTESIAN_POINT('',(102.9,205.2,32.1));
#776=CARTESIAN_POINT('',(102.9,63.,32.1));
#777=CARTESIAN_POINT('',(346.9,32.75,26.3));
#778=CARTESIAN_POINT('',(346.9,62.1,26.3));
#779=CARTESIAN_POINT('',(346.9,62.1,52.2));
#780=CARTESIAN_POINT('',(346.9,32.75,26.3));
#781=CARTESIAN_POINT('',(350.3,65.5,26.3));
#782=CARTESIAN_POINT('',(350.3,65.5,26.3));
#783=CARTESIAN_POINT('',(419.4,65.5,26.3));
#784=CARTESIAN_POINT('',(419.4,65.5,26.3));
#785=CARTESIAN_POINT('',(350.3,62.1,26.3));
#786=CARTESIAN_POINT('',(419.4,32.75,26.3));
#787=CARTESIAN_POINT('',(350.3,62.1,26.3));
#788=CARTESIAN_POINT('',(23.3,198.7,52.25));
#789=CARTESIAN_POINT('',(264.8,307.4,52.25));
#790=MECHANICAL_DESIGN_GEOMETRIC_PRESENTATION_REPRESENTATION('',(#24),#791);
#791=(
GEOMETRIC_REPRESENTATION_CONTEXT(3)
GLOBAL_UNCERTAINTY_ASSIGNED_CONTEXT((#792))
GLOBAL_UNIT_ASSIGNED_CONTEXT((#798,#794,#793))
REPRESENTATION_CONTEXT('featured_part_01647','TOP_LEVEL_ASSEMBLY_PART')
);
#792=UNCERTAINTY_MEASURE_WITH_UNIT(LENGTH_MEASURE(2.E-5),#798,
'DISTANCE_ACCURACY_VALUE','Maximum Tolerance applied to model');
#793=(
NAMED_UNIT(*)
SI_UNIT($,.STERADIAN.)
SOLID_ANGLE_UNIT()
);
#794=(
CONVERSION_BASED_UNIT('DEGREE',#796)
NAMED_UNIT(#795)
PLANE_ANGLE_UNIT()
);
#795=DIMENSIONAL_EXPONENTS(0.,0.,0.,0.,0.,0.,0.);
#796=PLANE_ANGLE_MEASURE_WITH_UNIT(PLANE_ANGLE_MEASURE(0.0174532925),#797);
#797=(
NAMED_UNIT(*)
PLANE_ANGLE_UNIT()
SI_UNIT($,.RADIAN.)
);
#798=(
LENGTH_UNIT()
NAMED_UNIT(*)
SI_UNIT(.MILLI.,.METRE.)
);
ENDSEC;
END-ISO-10303-21;
