ISO-10303-21;
HEADER;
/* Generated by software containing ST-Developer
 * from STEP Tools, Inc. (www.steptools.com) 
 */
/* OPTION: using custom schema-name function */

FILE_DESCRIPTION(
/* description */ (''),
/* implementation_level */ '2;1');

FILE_NAME(
/* name */ 'featured_part_01475.stp',
/* time_stamp */ '2026-07-09T12:40:51-04:00',
/* author */ (''),
/* organization */ (''),
/* preprocessor_version */ 'ST-DEVELOPER v20.1',
/* originating_system */ 'SIEMENS PLM Software NX2512.6002',
/* authorisation */ '');

FILE_SCHEMA (('AUTOMOTIVE_DESIGN { 1 0 10303 214 3 1 1 1 }'));
ENDSEC;

DATA;
#10=SHAPE_REPRESENTATION_RELATIONSHIP('None',
'relationship between featured_part_01475-None and featured_part_01475
-None',#22,#11);
#11=ADVANCED_BREP_SHAPE_REPRESENTATION('featured_part_01475-None',(#32),
#662);
#12=SHAPE_DEFINITION_REPRESENTATION(#13,#22);
#13=PRODUCT_DEFINITION_SHAPE('','',#14);
#14=PRODUCT_DEFINITION(' ','',#16,#15);
#15=PRODUCT_DEFINITION_CONTEXT('part definition',#21,'design');
#16=PRODUCT_DEFINITION_FORMATION_WITH_SPECIFIED_SOURCE(' ',' ',#18,
 .NOT_KNOWN.);
#17=PRODUCT_RELATED_PRODUCT_CATEGORY('part','',(#18));
#18=PRODUCT('featured_part_01475','featured_part_01475',' ',(#19));
#19=PRODUCT_CONTEXT(' ',#21,'mechanical');
#20=APPLICATION_PROTOCOL_DEFINITION('international standard',
'automotive_design',2010,#21);
#21=APPLICATION_CONTEXT(
'core data for automotive mechanical design processes');
#22=SHAPE_REPRESENTATION('featured_part_01475-None',(#401),#662);
#23=PRESENTATION_LAYER_ASSIGNMENT('1','Layer 1',(#32));
#24=STYLED_ITEM('',(#25),#32);
#25=PRESENTATION_STYLE_ASSIGNMENT((#26));
#26=SURFACE_STYLE_USAGE(.BOTH.,#27);
#27=SURFACE_SIDE_STYLE('',(#28));
#28=SURFACE_STYLE_FILL_AREA(#29);
#29=FILL_AREA_STYLE('',(#30));
#30=FILL_AREA_STYLE_COLOUR('',#31);
#31=COLOUR_RGB('medium steel',0.611764705882353,0.658823529411765,0.670588235294118);
#32=MANIFOLD_SOLID_BREP('',#33);
#33=CLOSED_SHELL('',(#60,#61,#62,#63,#64,#65,#66,#67,#68,#69,#70,#71,#72,
#73,#74,#75,#76,#77,#78,#79,#80,#81,#82,#83));
#34=CYLINDRICAL_SURFACE('',#426,8.);
#35=CYLINDRICAL_SURFACE('',#427,8.);
#36=CYLINDRICAL_SURFACE('',#428,8.);
#37=CYLINDRICAL_SURFACE('',#429,8.);
#38=CYLINDRICAL_SURFACE('',#432,14.);
#39=CYLINDRICAL_SURFACE('',#435,14.);
#40=CYLINDRICAL_SURFACE('',#438,14.);
#41=CYLINDRICAL_SURFACE('',#440,14.);
#42=FACE_OUTER_BOUND('',#182,.T.);
#43=FACE_OUTER_BOUND('',#183,.T.);
#44=FACE_OUTER_BOUND('',#184,.T.);
#45=FACE_OUTER_BOUND('',#185,.T.);
#46=FACE_OUTER_BOUND('',#186,.T.);
#47=FACE_OUTER_BOUND('',#187,.T.);
#48=FACE_OUTER_BOUND('',#188,.T.);
#49=FACE_OUTER_BOUND('',#189,.T.);
#50=FACE_OUTER_BOUND('',#190,.T.);
#51=FACE_OUTER_BOUND('',#193,.T.);
#52=FACE_OUTER_BOUND('',#194,.T.);
#53=FACE_OUTER_BOUND('',#195,.T.);
#54=FACE_OUTER_BOUND('',#196,.T.);
#55=FACE_OUTER_BOUND('',#197,.T.);
#56=FACE_OUTER_BOUND('',#198,.T.);
#57=FACE_OUTER_BOUND('',#201,.T.);
#58=FACE_OUTER_BOUND('',#204,.T.);
#59=FACE_OUTER_BOUND('',#209,.T.);
#60=ADVANCED_FACE('',(#162,#163,#164,#165,#166),#84,.T.);
#61=ADVANCED_FACE('',(#42),#85,.T.);
#62=ADVANCED_FACE('',(#43),#86,.T.);
#63=ADVANCED_FACE('',(#44),#87,.T.);
#64=ADVANCED_FACE('',(#45),#88,.T.);
#65=ADVANCED_FACE('',(#46),#89,.T.);
#66=ADVANCED_FACE('',(#47),#90,.F.);
#67=ADVANCED_FACE('',(#48),#91,.F.);
#68=ADVANCED_FACE('',(#49),#92,.F.);
#69=ADVANCED_FACE('',(#50),#93,.F.);
#70=ADVANCED_FACE('',(#167,#168),#94,.F.);
#71=ADVANCED_FACE('',(#51),#95,.F.);
#72=ADVANCED_FACE('',(#52),#34,.F.);
#73=ADVANCED_FACE('',(#53),#35,.F.);
#74=ADVANCED_FACE('',(#54),#36,.F.);
#75=ADVANCED_FACE('',(#55),#37,.F.);
#76=ADVANCED_FACE('',(#56),#96,.F.);
#77=ADVANCED_FACE('',(#169,#170),#38,.F.);
#78=ADVANCED_FACE('',(#57),#97,.F.);
#79=ADVANCED_FACE('',(#171,#172),#39,.F.);
#80=ADVANCED_FACE('',(#58),#98,.F.);
#81=ADVANCED_FACE('',(#173,#174),#40,.F.);
#82=ADVANCED_FACE('',(#175,#176),#41,.F.);
#83=ADVANCED_FACE('',(#59),#99,.F.);
#84=PLANE('',#409);
#85=PLANE('',#410);
#86=PLANE('',#411);
#87=PLANE('',#412);
#88=PLANE('',#413);
#89=PLANE('',#414);
#90=PLANE('',#415);
#91=PLANE('',#416);
#92=PLANE('',#417);
#93=PLANE('',#418);
#94=PLANE('',#424);
#95=PLANE('',#425);
#96=PLANE('',#431);
#97=PLANE('',#434);
#98=PLANE('',#437);
#99=PLANE('',#441);
#100=LINE('',#562,#131);
#101=LINE('',#567,#132);
#102=LINE('',#571,#133);
#103=LINE('',#575,#134);
#104=LINE('',#578,#135);
#105=LINE('',#581,#136);
#106=LINE('',#583,#137);
#107=LINE('',#585,#138);
#108=LINE('',#587,#139);
#109=LINE('',#590,#140);
#110=LINE('',#591,#141);
#111=LINE('',#593,#142);
#112=LINE('',#595,#143);
#113=LINE('',#597,#144);
#114=LINE('',#599,#145);
#115=LINE('',#601,#146);
#116=LINE('',#603,#147);
#117=LINE('',#605,#148);
#118=LINE('',#607,#149);
#119=LINE('',#610,#150);
#120=LINE('',#612,#151);
#121=LINE('',#614,#152);
#122=LINE('',#616,#153);
#123=LINE('',#618,#154);
#124=LINE('',#620,#155);
#125=LINE('',#622,#156);
#126=LINE('',#625,#157);
#127=LINE('',#626,#158);
#128=LINE('',#630,#159);
#129=LINE('',#638,#160);
#130=LINE('',#639,#161);
#131=VECTOR('',#450,1.);
#132=VECTOR('',#453,1.);
#133=VECTOR('',#456,1.);
#134=VECTOR('',#459,1.);
#135=VECTOR('',#462,1.);
#136=VECTOR('',#463,1.);
#137=VECTOR('',#464,1.);
#138=VECTOR('',#465,1.);
#139=VECTOR('',#468,1.);
#140=VECTOR('',#469,1.);
#141=VECTOR('',#470,1.);
#142=VECTOR('',#471,1.);
#143=VECTOR('',#474,1.);
#144=VECTOR('',#475,1.);
#145=VECTOR('',#478,1.);
#146=VECTOR('',#479,1.);
#147=VECTOR('',#480,1.);
#148=VECTOR('',#483,1.);
#149=VECTOR('',#486,1.);
#150=VECTOR('',#491,1.);
#151=VECTOR('',#492,1.);
#152=VECTOR('',#493,1.);
#153=VECTOR('',#496,1.);
#154=VECTOR('',#497,1.);
#155=VECTOR('',#498,1.);
#156=VECTOR('',#501,1.);
#157=VECTOR('',#502,1.);
#158=VECTOR('',#503,1.);
#159=VECTOR('',#508,1.);
#160=VECTOR('',#519,1.);
#161=VECTOR('',#520,1.);
#162=FACE_BOUND('',#177,.T.);
#163=FACE_BOUND('',#178,.T.);
#164=FACE_BOUND('',#179,.T.);
#165=FACE_BOUND('',#180,.T.);
#166=FACE_BOUND('',#181,.T.);
#167=FACE_BOUND('',#191,.T.);
#168=FACE_BOUND('',#192,.T.);
#169=FACE_BOUND('',#199,.T.);
#170=FACE_BOUND('',#200,.T.);
#171=FACE_BOUND('',#202,.T.);
#172=FACE_BOUND('',#203,.T.);
#173=FACE_BOUND('',#205,.T.);
#174=FACE_BOUND('',#206,.T.);
#175=FACE_BOUND('',#207,.T.);
#176=FACE_BOUND('',#208,.T.);
#177=EDGE_LOOP('',(#210));
#178=EDGE_LOOP('',(#211));
#179=EDGE_LOOP('',(#212));
#180=EDGE_LOOP('',(#213,#214,#215,#216,#217,#218,#219,#220));
#181=EDGE_LOOP('',(#221,#222,#223,#224));
#182=EDGE_LOOP('',(#225,#226,#227,#228,#229));
#183=EDGE_LOOP('',(#230,#231,#232,#233));
#184=EDGE_LOOP('',(#234,#235,#236,#237,#238));
#185=EDGE_LOOP('',(#239,#240,#241,#242));
#186=EDGE_LOOP('',(#243,#244,#245,#246));
#187=EDGE_LOOP('',(#247,#248,#249,#250));
#188=EDGE_LOOP('',(#251,#252,#253,#254));
#189=EDGE_LOOP('',(#255,#256,#257,#258));
#190=EDGE_LOOP('',(#259,#260,#261,#262));
#191=EDGE_LOOP('',(#263));
#192=EDGE_LOOP('',(#264,#265,#266,#267,#268,#269,#270,#271));
#193=EDGE_LOOP('',(#272,#273,#274,#275));
#194=EDGE_LOOP('',(#276,#277,#278,#279));
#195=EDGE_LOOP('',(#280,#281,#282,#283));
#196=EDGE_LOOP('',(#284,#285,#286,#287));
#197=EDGE_LOOP('',(#288,#289,#290,#291));
#198=EDGE_LOOP('',(#292));
#199=EDGE_LOOP('',(#293));
#200=EDGE_LOOP('',(#294));
#201=EDGE_LOOP('',(#295));
#202=EDGE_LOOP('',(#296));
#203=EDGE_LOOP('',(#297));
#204=EDGE_LOOP('',(#298));
#205=EDGE_LOOP('',(#299));
#206=EDGE_LOOP('',(#300));
#207=EDGE_LOOP('',(#301));
#208=EDGE_LOOP('',(#302));
#209=EDGE_LOOP('',(#303));
#210=ORIENTED_EDGE('',*,*,#338,.F.);
#211=ORIENTED_EDGE('',*,*,#339,.F.);
#212=ORIENTED_EDGE('',*,*,#340,.F.);
#213=ORIENTED_EDGE('',*,*,#341,.F.);
#214=ORIENTED_EDGE('',*,*,#342,.T.);
#215=ORIENTED_EDGE('',*,*,#343,.F.);
#216=ORIENTED_EDGE('',*,*,#344,.T.);
#217=ORIENTED_EDGE('',*,*,#345,.F.);
#218=ORIENTED_EDGE('',*,*,#346,.T.);
#219=ORIENTED_EDGE('',*,*,#347,.F.);
#220=ORIENTED_EDGE('',*,*,#348,.T.);
#221=ORIENTED_EDGE('',*,*,#349,.F.);
#222=ORIENTED_EDGE('',*,*,#350,.T.);
#223=ORIENTED_EDGE('',*,*,#351,.F.);
#224=ORIENTED_EDGE('',*,*,#352,.F.);
#225=ORIENTED_EDGE('',*,*,#353,.T.);
#226=ORIENTED_EDGE('',*,*,#354,.T.);
#227=ORIENTED_EDGE('',*,*,#349,.T.);
#228=ORIENTED_EDGE('',*,*,#355,.F.);
#229=ORIENTED_EDGE('',*,*,#356,.T.);
#230=ORIENTED_EDGE('',*,*,#355,.T.);
#231=ORIENTED_EDGE('',*,*,#352,.T.);
#232=ORIENTED_EDGE('',*,*,#357,.F.);
#233=ORIENTED_EDGE('',*,*,#358,.T.);
#234=ORIENTED_EDGE('',*,*,#351,.T.);
#235=ORIENTED_EDGE('',*,*,#359,.T.);
#236=ORIENTED_EDGE('',*,*,#360,.F.);
#237=ORIENTED_EDGE('',*,*,#361,.T.);
#238=ORIENTED_EDGE('',*,*,#357,.T.);
#239=ORIENTED_EDGE('',*,*,#362,.F.);
#240=ORIENTED_EDGE('',*,*,#356,.F.);
#241=ORIENTED_EDGE('',*,*,#358,.F.);
#242=ORIENTED_EDGE('',*,*,#361,.F.);
#243=ORIENTED_EDGE('',*,*,#360,.T.);
#244=ORIENTED_EDGE('',*,*,#363,.T.);
#245=ORIENTED_EDGE('',*,*,#353,.F.);
#246=ORIENTED_EDGE('',*,*,#362,.T.);
#247=ORIENTED_EDGE('',*,*,#359,.F.);
#248=ORIENTED_EDGE('',*,*,#350,.F.);
#249=ORIENTED_EDGE('',*,*,#354,.F.);
#250=ORIENTED_EDGE('',*,*,#363,.F.);
#251=ORIENTED_EDGE('',*,*,#341,.T.);
#252=ORIENTED_EDGE('',*,*,#364,.T.);
#253=ORIENTED_EDGE('',*,*,#365,.T.);
#254=ORIENTED_EDGE('',*,*,#366,.T.);
#255=ORIENTED_EDGE('',*,*,#343,.T.);
#256=ORIENTED_EDGE('',*,*,#367,.T.);
#257=ORIENTED_EDGE('',*,*,#368,.T.);
#258=ORIENTED_EDGE('',*,*,#369,.T.);
#259=ORIENTED_EDGE('',*,*,#370,.T.);
#260=ORIENTED_EDGE('',*,*,#371,.T.);
#261=ORIENTED_EDGE('',*,*,#345,.T.);
#262=ORIENTED_EDGE('',*,*,#372,.T.);
#263=ORIENTED_EDGE('',*,*,#373,.T.);
#264=ORIENTED_EDGE('',*,*,#374,.F.);
#265=ORIENTED_EDGE('',*,*,#375,.T.);
#266=ORIENTED_EDGE('',*,*,#370,.F.);
#267=ORIENTED_EDGE('',*,*,#376,.T.);
#268=ORIENTED_EDGE('',*,*,#368,.F.);
#269=ORIENTED_EDGE('',*,*,#377,.T.);
#270=ORIENTED_EDGE('',*,*,#365,.F.);
#271=ORIENTED_EDGE('',*,*,#378,.T.);
#272=ORIENTED_EDGE('',*,*,#347,.T.);
#273=ORIENTED_EDGE('',*,*,#379,.T.);
#274=ORIENTED_EDGE('',*,*,#374,.T.);
#275=ORIENTED_EDGE('',*,*,#380,.T.);
#276=ORIENTED_EDGE('',*,*,#346,.F.);
#277=ORIENTED_EDGE('',*,*,#371,.F.);
#278=ORIENTED_EDGE('',*,*,#375,.F.);
#279=ORIENTED_EDGE('',*,*,#379,.F.);
#280=ORIENTED_EDGE('',*,*,#348,.F.);
#281=ORIENTED_EDGE('',*,*,#380,.F.);
#282=ORIENTED_EDGE('',*,*,#378,.F.);
#283=ORIENTED_EDGE('',*,*,#364,.F.);
#284=ORIENTED_EDGE('',*,*,#342,.F.);
#285=ORIENTED_EDGE('',*,*,#366,.F.);
#286=ORIENTED_EDGE('',*,*,#377,.F.);
#287=ORIENTED_EDGE('',*,*,#367,.F.);
#288=ORIENTED_EDGE('',*,*,#344,.F.);
#289=ORIENTED_EDGE('',*,*,#369,.F.);
#290=ORIENTED_EDGE('',*,*,#376,.F.);
#291=ORIENTED_EDGE('',*,*,#372,.F.);
#292=ORIENTED_EDGE('',*,*,#381,.F.);
#293=ORIENTED_EDGE('',*,*,#340,.T.);
#294=ORIENTED_EDGE('',*,*,#381,.T.);
#295=ORIENTED_EDGE('',*,*,#382,.F.);
#296=ORIENTED_EDGE('',*,*,#339,.T.);
#297=ORIENTED_EDGE('',*,*,#382,.T.);
#298=ORIENTED_EDGE('',*,*,#383,.F.);
#299=ORIENTED_EDGE('',*,*,#338,.T.);
#300=ORIENTED_EDGE('',*,*,#383,.T.);
#301=ORIENTED_EDGE('',*,*,#384,.T.);
#302=ORIENTED_EDGE('',*,*,#373,.F.);
#303=ORIENTED_EDGE('',*,*,#384,.F.);
#304=VERTEX_POINT('',#557);
#305=VERTEX_POINT('',#559);
#306=VERTEX_POINT('',#561);
#307=VERTEX_POINT('',#563);
#308=VERTEX_POINT('',#564);
#309=VERTEX_POINT('',#566);
#310=VERTEX_POINT('',#568);
#311=VERTEX_POINT('',#570);
#312=VERTEX_POINT('',#572);
#313=VERTEX_POINT('',#574);
#314=VERTEX_POINT('',#576);
#315=VERTEX_POINT('',#579);
#316=VERTEX_POINT('',#580);
#317=VERTEX_POINT('',#582);
#318=VERTEX_POINT('',#584);
#319=VERTEX_POINT('',#588);
#320=VERTEX_POINT('',#589);
#321=VERTEX_POINT('',#592);
#322=VERTEX_POINT('',#596);
#323=VERTEX_POINT('',#600);
#324=VERTEX_POINT('',#602);
#325=VERTEX_POINT('',#611);
#326=VERTEX_POINT('',#613);
#327=VERTEX_POINT('',#617);
#328=VERTEX_POINT('',#619);
#329=VERTEX_POINT('',#623);
#330=VERTEX_POINT('',#624);
#331=VERTEX_POINT('',#629);
#332=VERTEX_POINT('',#631);
#333=VERTEX_POINT('',#632);
#334=VERTEX_POINT('',#646);
#335=VERTEX_POINT('',#650);
#336=VERTEX_POINT('',#654);
#337=VERTEX_POINT('',#658);
#338=EDGE_CURVE('',#304,#304,#385,.T.);
#339=EDGE_CURVE('',#305,#305,#386,.T.);
#340=EDGE_CURVE('',#306,#306,#387,.T.);
#341=EDGE_CURVE('',#307,#308,#100,.T.);
#342=EDGE_CURVE('',#307,#309,#388,.T.);
#343=EDGE_CURVE('',#310,#309,#101,.T.);
#344=EDGE_CURVE('',#310,#311,#389,.T.);
#345=EDGE_CURVE('',#312,#311,#102,.T.);
#346=EDGE_CURVE('',#312,#313,#390,.T.);
#347=EDGE_CURVE('',#314,#313,#103,.T.);
#348=EDGE_CURVE('',#314,#308,#391,.T.);
#349=EDGE_CURVE('',#315,#316,#104,.T.);
#350=EDGE_CURVE('',#315,#317,#105,.T.);
#351=EDGE_CURVE('',#318,#317,#106,.T.);
#352=EDGE_CURVE('',#316,#318,#107,.T.);
#353=EDGE_CURVE('',#319,#320,#108,.T.);
#354=EDGE_CURVE('',#320,#315,#109,.T.);
#355=EDGE_CURVE('',#321,#316,#110,.T.);
#356=EDGE_CURVE('',#321,#319,#111,.T.);
#357=EDGE_CURVE('',#322,#318,#112,.T.);
#358=EDGE_CURVE('',#322,#321,#113,.T.);
#359=EDGE_CURVE('',#317,#323,#114,.T.);
#360=EDGE_CURVE('',#324,#323,#115,.T.);
#361=EDGE_CURVE('',#324,#322,#116,.T.);
#362=EDGE_CURVE('',#319,#324,#117,.T.);
#363=EDGE_CURVE('',#323,#320,#118,.T.);
#364=EDGE_CURVE('',#308,#325,#119,.T.);
#365=EDGE_CURVE('',#325,#326,#120,.T.);
#366=EDGE_CURVE('',#326,#307,#121,.T.);
#367=EDGE_CURVE('',#309,#327,#122,.T.);
#368=EDGE_CURVE('',#327,#328,#123,.T.);
#369=EDGE_CURVE('',#328,#310,#124,.T.);
#370=EDGE_CURVE('',#329,#330,#125,.T.);
#371=EDGE_CURVE('',#330,#312,#126,.T.);
#372=EDGE_CURVE('',#311,#329,#127,.T.);
#373=EDGE_CURVE('',#331,#331,#392,.T.);
#374=EDGE_CURVE('',#332,#333,#128,.T.);
#375=EDGE_CURVE('',#332,#330,#393,.T.);
#376=EDGE_CURVE('',#329,#328,#394,.T.);
#377=EDGE_CURVE('',#327,#326,#395,.T.);
#378=EDGE_CURVE('',#325,#333,#396,.T.);
#379=EDGE_CURVE('',#313,#332,#129,.T.);
#380=EDGE_CURVE('',#333,#314,#130,.T.);
#381=EDGE_CURVE('',#334,#334,#397,.T.);
#382=EDGE_CURVE('',#335,#335,#398,.T.);
#383=EDGE_CURVE('',#336,#336,#399,.T.);
#384=EDGE_CURVE('',#337,#337,#400,.T.);
#385=CIRCLE('',#402,14.);
#386=CIRCLE('',#403,14.);
#387=CIRCLE('',#404,14.);
#388=CIRCLE('',#405,8.);
#389=CIRCLE('',#406,8.);
#390=CIRCLE('',#407,8.);
#391=CIRCLE('',#408,8.);
#392=CIRCLE('',#419,14.);
#393=CIRCLE('',#420,8.);
#394=CIRCLE('',#421,8.);
#395=CIRCLE('',#422,8.);
#396=CIRCLE('',#423,8.);
#397=CIRCLE('',#430,14.);
#398=CIRCLE('',#433,14.);
#399=CIRCLE('',#436,14.);
#400=CIRCLE('',#439,14.);
#401=AXIS2_PLACEMENT_3D('',#555,#442,#443);
#402=AXIS2_PLACEMENT_3D('',#556,#444,#445);
#403=AXIS2_PLACEMENT_3D('',#558,#446,#447);
#404=AXIS2_PLACEMENT_3D('',#560,#448,#449);
#405=AXIS2_PLACEMENT_3D('',#565,#451,#452);
#406=AXIS2_PLACEMENT_3D('',#569,#454,#455);
#407=AXIS2_PLACEMENT_3D('',#573,#457,#458);
#408=AXIS2_PLACEMENT_3D('',#577,#460,#461);
#409=AXIS2_PLACEMENT_3D('',#586,#466,#467);
#410=AXIS2_PLACEMENT_3D('',#594,#472,#473);
#411=AXIS2_PLACEMENT_3D('',#598,#476,#477);
#412=AXIS2_PLACEMENT_3D('',#604,#481,#482);
#413=AXIS2_PLACEMENT_3D('',#606,#484,#485);
#414=AXIS2_PLACEMENT_3D('',#608,#487,#488);
#415=AXIS2_PLACEMENT_3D('',#609,#489,#490);
#416=AXIS2_PLACEMENT_3D('',#615,#494,#495);
#417=AXIS2_PLACEMENT_3D('',#621,#499,#500);
#418=AXIS2_PLACEMENT_3D('',#627,#504,#505);
#419=AXIS2_PLACEMENT_3D('',#628,#506,#507);
#420=AXIS2_PLACEMENT_3D('',#633,#509,#510);
#421=AXIS2_PLACEMENT_3D('',#634,#511,#512);
#422=AXIS2_PLACEMENT_3D('',#635,#513,#514);
#423=AXIS2_PLACEMENT_3D('',#636,#515,#516);
#424=AXIS2_PLACEMENT_3D('',#637,#517,#518);
#425=AXIS2_PLACEMENT_3D('',#640,#521,#522);
#426=AXIS2_PLACEMENT_3D('',#641,#523,#524);
#427=AXIS2_PLACEMENT_3D('',#642,#525,#526);
#428=AXIS2_PLACEMENT_3D('',#643,#527,#528);
#429=AXIS2_PLACEMENT_3D('',#644,#529,#530);
#430=AXIS2_PLACEMENT_3D('',#645,#531,#532);
#431=AXIS2_PLACEMENT_3D('',#647,#533,#534);
#432=AXIS2_PLACEMENT_3D('',#648,#535,#536);
#433=AXIS2_PLACEMENT_3D('',#649,#537,#538);
#434=AXIS2_PLACEMENT_3D('',#651,#539,#540);
#435=AXIS2_PLACEMENT_3D('',#652,#541,#542);
#436=AXIS2_PLACEMENT_3D('',#653,#543,#544);
#437=AXIS2_PLACEMENT_3D('',#655,#545,#546);
#438=AXIS2_PLACEMENT_3D('',#656,#547,#548);
#439=AXIS2_PLACEMENT_3D('',#657,#549,#550);
#440=AXIS2_PLACEMENT_3D('',#659,#551,#552);
#441=AXIS2_PLACEMENT_3D('',#660,#553,#554);
#442=DIRECTION('',(0.,0.,1.));
#443=DIRECTION('',(1.,0.,0.));
#444=DIRECTION('',(0.,0.,1.));
#445=DIRECTION('',(1.,0.,0.));
#446=DIRECTION('',(0.,0.,1.));
#447=DIRECTION('',(1.,0.,0.));
#448=DIRECTION('',(0.,0.,1.));
#449=DIRECTION('',(1.,0.,0.));
#450=DIRECTION('',(1.,0.,0.));
#451=DIRECTION('',(0.,0.,-1.));
#452=DIRECTION('',(1.,0.,0.));
#453=DIRECTION('',(0.,-1.,0.));
#454=DIRECTION('',(0.,0.,-1.));
#455=DIRECTION('',(1.,0.,0.));
#456=DIRECTION('',(-1.,0.,0.));
#457=DIRECTION('',(0.,0.,-1.));
#458=DIRECTION('',(1.,0.,0.));
#459=DIRECTION('',(0.,1.,0.));
#460=DIRECTION('',(0.,0.,-1.));
#461=DIRECTION('',(1.,0.,0.));
#462=DIRECTION('',(-1.,0.,0.));
#463=DIRECTION('',(0.,1.,0.));
#464=DIRECTION('',(1.,0.,0.));
#465=DIRECTION('',(0.,1.,0.));
#466=DIRECTION('',(0.,0.,1.));
#467=DIRECTION('',(1.,0.,0.));
#468=DIRECTION('',(0.,0.,1.));
#469=DIRECTION('',(-0.707106781186546,0.,0.707106781186549));
#470=DIRECTION('',(0.,0.,1.));
#471=DIRECTION('',(1.,0.,0.));
#472=DIRECTION('',(0.,-1.,0.));
#473=DIRECTION('',(0.,0.,-1.));
#474=DIRECTION('',(0.,0.,1.));
#475=DIRECTION('',(0.,-1.,0.));
#476=DIRECTION('',(-1.,0.,0.));
#477=DIRECTION('',(0.,0.,1.));
#478=DIRECTION('',(0.707106781186546,0.,-0.707106781186549));
#479=DIRECTION('',(0.,0.,1.));
#480=DIRECTION('',(-1.,0.,0.));
#481=DIRECTION('',(0.,1.,0.));
#482=DIRECTION('',(0.,0.,1.));
#483=DIRECTION('',(0.,1.,0.));
#484=DIRECTION('',(0.,0.,-1.));
#485=DIRECTION('',(-1.,0.,0.));
#486=DIRECTION('',(0.,-1.,0.));
#487=DIRECTION('',(1.,0.,0.));
#488=DIRECTION('',(0.,0.,-1.));
#489=DIRECTION('',(-0.707106781186549,0.,-0.707106781186546));
#490=DIRECTION('',(0.,-1.,0.));
#491=DIRECTION('',(0.,0.,-1.));
#492=DIRECTION('',(-1.,0.,0.));
#493=DIRECTION('',(0.,0.,1.));
#494=DIRECTION('',(0.,-1.,0.));
#495=DIRECTION('',(0.,0.,-1.));
#496=DIRECTION('',(0.,0.,-1.));
#497=DIRECTION('',(0.,1.,0.));
#498=DIRECTION('',(0.,0.,1.));
#499=DIRECTION('',(-1.,0.,0.));
#500=DIRECTION('',(0.,0.,1.));
#501=DIRECTION('',(1.,0.,0.));
#502=DIRECTION('',(0.,0.,1.));
#503=DIRECTION('',(0.,0.,-1.));
#504=DIRECTION('',(0.,1.,0.));
#505=DIRECTION('',(0.,0.,1.));
#506=DIRECTION('',(0.,0.,-1.));
#507=DIRECTION('',(-1.,0.,0.));
#508=DIRECTION('',(0.,-1.,0.));
#509=DIRECTION('',(0.,0.,1.));
#510=DIRECTION('',(-1.,0.,0.));
#511=DIRECTION('',(0.,0.,1.));
#512=DIRECTION('',(-1.,0.,0.));
#513=DIRECTION('',(0.,0.,1.));
#514=DIRECTION('',(-1.,0.,0.));
#515=DIRECTION('',(0.,0.,1.));
#516=DIRECTION('',(-1.,0.,0.));
#517=DIRECTION('',(0.,0.,-1.));
#518=DIRECTION('',(-1.,0.,0.));
#519=DIRECTION('',(0.,0.,-1.));
#520=DIRECTION('',(0.,0.,1.));
#521=DIRECTION('',(1.,0.,0.));
#522=DIRECTION('',(0.,0.,-1.));
#523=DIRECTION('',(0.,0.,1.));
#524=DIRECTION('',(1.,0.,0.));
#525=DIRECTION('',(0.,0.,1.));
#526=DIRECTION('',(1.,0.,0.));
#527=DIRECTION('',(0.,0.,1.));
#528=DIRECTION('',(1.,0.,0.));
#529=DIRECTION('',(0.,0.,1.));
#530=DIRECTION('',(1.,0.,0.));
#531=DIRECTION('',(0.,0.,-1.));
#532=DIRECTION('',(1.,0.,0.));
#533=DIRECTION('',(0.,0.,-1.));
#534=DIRECTION('',(-1.,0.,0.));
#535=DIRECTION('',(0.,0.,-1.));
#536=DIRECTION('',(1.,0.,0.));
#537=DIRECTION('',(0.,0.,-1.));
#538=DIRECTION('',(1.,0.,0.));
#539=DIRECTION('',(0.,0.,-1.));
#540=DIRECTION('',(-1.,0.,0.));
#541=DIRECTION('',(0.,0.,-1.));
#542=DIRECTION('',(1.,0.,0.));
#543=DIRECTION('',(0.,0.,-1.));
#544=DIRECTION('',(1.,0.,0.));
#545=DIRECTION('',(0.,0.,-1.));
#546=DIRECTION('',(-1.,0.,0.));
#547=DIRECTION('',(0.,0.,-1.));
#548=DIRECTION('',(1.,0.,0.));
#549=DIRECTION('',(0.,0.,-1.));
#550=DIRECTION('',(1.,0.,0.));
#551=DIRECTION('',(0.,0.,-1.));
#552=DIRECTION('',(1.,0.,0.));
#553=DIRECTION('',(0.,0.,-1.));
#554=DIRECTION('',(-1.,0.,0.));
#555=CARTESIAN_POINT('',(0.,0.,0.));
#556=CARTESIAN_POINT('',(216.8,49.6,58.1));
#557=CARTESIAN_POINT('',(230.8,49.6,58.1));
#558=CARTESIAN_POINT('',(99.8,136.2,58.1));
#559=CARTESIAN_POINT('',(113.8,136.2,58.1));
#560=CARTESIAN_POINT('',(186.4,253.2,58.1));
#561=CARTESIAN_POINT('',(200.4,253.2,58.1));
#562=CARTESIAN_POINT('',(201.6,121.5,58.1));
#563=CARTESIAN_POINT('',(225.6,121.5,58.1));
#564=CARTESIAN_POINT('',(314.8,121.5,58.1));
#565=CARTESIAN_POINT('',(225.6,129.5,58.1));
#566=CARTESIAN_POINT('',(217.6,129.5,58.1));
#567=CARTESIAN_POINT('',(217.6,151.4,58.1));
#568=CARTESIAN_POINT('',(217.6,244.6,58.1));
#569=CARTESIAN_POINT('',(225.6,244.6,58.1));
#570=CARTESIAN_POINT('',(225.6,252.6,58.1));
#571=CARTESIAN_POINT('',(201.6,252.6,58.1));
#572=CARTESIAN_POINT('',(314.8,252.6,58.1));
#573=CARTESIAN_POINT('',(314.8,244.6,58.1));
#574=CARTESIAN_POINT('',(322.8,244.6,58.1));
#575=CARTESIAN_POINT('',(322.8,151.4,58.1));
#576=CARTESIAN_POINT('',(322.8,129.5,58.1));
#577=CARTESIAN_POINT('',(314.8,129.5,58.1));
#578=CARTESIAN_POINT('',(201.6,0.,58.1));
#579=CARTESIAN_POINT('',(393.9,0.,58.1));
#580=CARTESIAN_POINT('',(0.,0.,58.1));
#581=CARTESIAN_POINT('',(393.9,151.4,58.1));
#582=CARTESIAN_POINT('',(393.9,302.8,58.1));
#583=CARTESIAN_POINT('',(201.6,302.8,58.1));
#584=CARTESIAN_POINT('',(0.,302.8,58.1));
#585=CARTESIAN_POINT('',(0.,151.4,58.1));
#586=CARTESIAN_POINT('',(201.6,151.4,58.1));
#587=CARTESIAN_POINT('',(403.2,0.,0.));
#588=CARTESIAN_POINT('',(403.2,0.,0.));
#589=CARTESIAN_POINT('',(403.2,0.,48.8));
#590=CARTESIAN_POINT('',(326.8,0.,125.2));
#591=CARTESIAN_POINT('',(0.,0.,0.));
#592=CARTESIAN_POINT('',(0.,0.,0.));
#593=CARTESIAN_POINT('',(201.6,0.,0.));
#594=CARTESIAN_POINT('',(201.6,0.,0.));
#595=CARTESIAN_POINT('',(0.,302.8,0.));
#596=CARTESIAN_POINT('',(0.,302.8,0.));
#597=CARTESIAN_POINT('',(0.,151.4,0.));
#598=CARTESIAN_POINT('',(0.,151.4,0.));
#599=CARTESIAN_POINT('',(326.8,302.8,125.2));
#600=CARTESIAN_POINT('',(403.2,302.8,48.8));
#601=CARTESIAN_POINT('',(403.2,302.8,0.));
#602=CARTESIAN_POINT('',(403.2,302.8,0.));
#603=CARTESIAN_POINT('',(201.6,302.8,0.));
#604=CARTESIAN_POINT('',(201.6,302.8,0.));
#605=CARTESIAN_POINT('',(403.2,151.4,0.));
#606=CARTESIAN_POINT('',(201.6,151.4,0.));
#607=CARTESIAN_POINT('',(403.2,151.4,48.8));
#608=CARTESIAN_POINT('',(403.2,151.4,0.));
#609=CARTESIAN_POINT('',(403.2,151.4,48.8));
#610=CARTESIAN_POINT('',(314.8,121.5,51.3));
#611=CARTESIAN_POINT('',(314.8,121.5,51.3));
#612=CARTESIAN_POINT('',(270.2,121.5,51.3));
#613=CARTESIAN_POINT('',(225.6,121.5,51.3));
#614=CARTESIAN_POINT('',(225.6,121.5,58.1));
#615=CARTESIAN_POINT('',(270.2,121.5,51.3));
#616=CARTESIAN_POINT('',(217.6,129.5,51.3));
#617=CARTESIAN_POINT('',(217.6,129.5,51.3));
#618=CARTESIAN_POINT('',(217.6,187.05,51.3));
#619=CARTESIAN_POINT('',(217.6,244.6,51.3));
#620=CARTESIAN_POINT('',(217.6,244.6,58.1));
#621=CARTESIAN_POINT('',(217.6,187.05,51.3));
#622=CARTESIAN_POINT('',(270.2,252.6,51.3));
#623=CARTESIAN_POINT('',(225.6,252.6,51.3));
#624=CARTESIAN_POINT('',(314.8,252.6,51.3));
#625=CARTESIAN_POINT('',(314.8,252.6,58.1));
#626=CARTESIAN_POINT('',(225.6,252.6,51.3));
#627=CARTESIAN_POINT('',(270.2,252.6,51.3));
#628=CARTESIAN_POINT('',(303.4,166.6,51.3));
#629=CARTESIAN_POINT('',(289.4,166.6,51.3));
#630=CARTESIAN_POINT('',(322.8,187.05,51.3));
#631=CARTESIAN_POINT('',(322.8,244.6,51.3));
#632=CARTESIAN_POINT('',(322.8,129.5,51.3));
#633=CARTESIAN_POINT('',(314.8,244.6,51.3));
#634=CARTESIAN_POINT('',(225.6,244.6,51.3));
#635=CARTESIAN_POINT('',(225.6,129.5,51.3));
#636=CARTESIAN_POINT('',(314.8,129.5,51.3));
#637=CARTESIAN_POINT('',(270.2,187.05,51.3));
#638=CARTESIAN_POINT('',(322.8,244.6,51.3));
#639=CARTESIAN_POINT('',(322.8,129.5,58.1));
#640=CARTESIAN_POINT('',(322.8,187.05,51.3));
#641=CARTESIAN_POINT('',(314.8,244.6,51.3));
#642=CARTESIAN_POINT('',(314.8,129.5,51.3));
#643=CARTESIAN_POINT('',(225.6,129.5,51.3));
#644=CARTESIAN_POINT('',(225.6,244.6,51.3));
#645=CARTESIAN_POINT('',(186.4,253.2,23.1));
#646=CARTESIAN_POINT('',(200.4,253.2,23.1));
#647=CARTESIAN_POINT('',(186.4,253.2,23.1));
#648=CARTESIAN_POINT('',(186.4,253.2,58.15));
#649=CARTESIAN_POINT('',(99.8,136.2,34.1));
#650=CARTESIAN_POINT('',(113.8,136.2,34.1));
#651=CARTESIAN_POINT('',(99.8,136.2,34.1));
#652=CARTESIAN_POINT('',(99.8,136.2,58.15));
#653=CARTESIAN_POINT('',(216.8,49.6,32.2));
#654=CARTESIAN_POINT('',(230.8,49.6,32.2));
#655=CARTESIAN_POINT('',(216.8,49.6,32.2));
#656=CARTESIAN_POINT('',(216.8,49.6,58.15));
#657=CARTESIAN_POINT('',(303.4,166.6,33.4));
#658=CARTESIAN_POINT('',(317.4,166.6,33.4));
#659=CARTESIAN_POINT('',(303.4,166.6,58.15));
#660=CARTESIAN_POINT('',(303.4,166.6,33.4));
#661=MECHANICAL_DESIGN_GEOMETRIC_PRESENTATION_REPRESENTATION('',(#24),#662);
#662=(
GEOMETRIC_REPRESENTATION_CONTEXT(3)
GLOBAL_UNCERTAINTY_ASSIGNED_CONTEXT((#663))
GLOBAL_UNIT_ASSIGNED_CONTEXT((#669,#665,#664))
REPRESENTATION_CONTEXT('featured_part_01475','TOP_LEVEL_ASSEMBLY_PART')
);
#663=UNCERTAINTY_MEASURE_WITH_UNIT(LENGTH_MEASURE(2.E-5),#669,
'DISTANCE_ACCURACY_VALUE','Maximum Tolerance applied to model');
#664=(
NAMED_UNIT(*)
SI_UNIT($,.STERADIAN.)
SOLID_ANGLE_UNIT()
);
#665=(
CONVERSION_BASED_UNIT('DEGREE',#667)
NAMED_UNIT(#666)
PLANE_ANGLE_UNIT()
);
#666=DIMENSIONAL_EXPONENTS(0.,0.,0.,0.,0.,0.,0.);
#667=PLANE_ANGLE_MEASURE_WITH_UNIT(PLANE_ANGLE_MEASURE(0.0174532925),#668);
#668=(
NAMED_UNIT(*)
PLANE_ANGLE_UNIT()
SI_UNIT($,.RADIAN.)
);
#669=(
LENGTH_UNIT()
NAMED_UNIT(*)
SI_UNIT(.MILLI.,.METRE.)
);
ENDSEC;
END-ISO-10303-21;
