ISO-10303-21;
HEADER;
/* Generated by software containing ST-Developer
 * from STEP Tools, Inc. (www.steptools.com) 
 */
/* OPTION: using custom schema-name function */

FILE_DESCRIPTION(
/* description */ (''),
/* implementation_level */ '2;1');

FILE_NAME(
/* name */ 'featured_part_06698.stp',
/* time_stamp */ '2026-07-09T10:32:53-04:00',
/* author */ (''),
/* organization */ (''),
/* preprocessor_version */ 'ST-DEVELOPER v20.1',
/* originating_system */ 'SIEMENS PLM Software NX2512.6002',
/* authorisation */ '');

FILE_SCHEMA (('AUTOMOTIVE_DESIGN { 1 0 10303 214 3 1 1 1 }'));
ENDSEC;

DATA;
#10=SHAPE_REPRESENTATION_RELATIONSHIP('None',
'relationship between featured_part_06698-None and featured_part_06698
-None',#22,#11);
#11=ADVANCED_BREP_SHAPE_REPRESENTATION('featured_part_06698-None',(#32),
#664);
#12=SHAPE_DEFINITION_REPRESENTATION(#13,#22);
#13=PRODUCT_DEFINITION_SHAPE('','',#14);
#14=PRODUCT_DEFINITION(' ','',#16,#15);
#15=PRODUCT_DEFINITION_CONTEXT('part definition',#21,'design');
#16=PRODUCT_DEFINITION_FORMATION_WITH_SPECIFIED_SOURCE(' ',' ',#18,
 .NOT_KNOWN.);
#17=PRODUCT_RELATED_PRODUCT_CATEGORY('part','',(#18));
#18=PRODUCT('featured_part_06698','featured_part_06698',' ',(#19));
#19=PRODUCT_CONTEXT(' ',#21,'mechanical');
#20=APPLICATION_PROTOCOL_DEFINITION('international standard',
'automotive_design',2010,#21);
#21=APPLICATION_CONTEXT(
'core data for automotive mechanical design processes');
#22=SHAPE_REPRESENTATION('featured_part_06698-None',(#413),#664);
#23=PRESENTATION_LAYER_ASSIGNMENT('1','Layer 1',(#32));
#24=STYLED_ITEM('',(#25),#32);
#25=PRESENTATION_STYLE_ASSIGNMENT((#26));
#26=SURFACE_STYLE_USAGE(.BOTH.,#27);
#27=SURFACE_SIDE_STYLE('',(#28));
#28=SURFACE_STYLE_FILL_AREA(#29);
#29=FILL_AREA_STYLE('',(#30));
#30=FILL_AREA_STYLE_COLOUR('',#31);
#31=COLOUR_RGB('medium steel',0.611764705882353,0.658823529411765,0.670588235294118);
#32=MANIFOLD_SOLID_BREP('',#33);
#33=CLOSED_SHELL('',(#58,#59,#60,#61,#62,#63,#64,#65,#66,#67,#68,#69,#70,
#71,#72,#73,#74,#75,#76,#77,#78));
#34=CYLINDRICAL_SURFACE('',#432,8.);
#35=CYLINDRICAL_SURFACE('',#433,8.);
#36=CYLINDRICAL_SURFACE('',#440,14.2);
#37=CYLINDRICAL_SURFACE('',#441,14.2);
#38=CYLINDRICAL_SURFACE('',#444,2.9);
#39=FACE_OUTER_BOUND('',#187,.T.);
#40=FACE_OUTER_BOUND('',#188,.T.);
#41=FACE_OUTER_BOUND('',#189,.T.);
#42=FACE_OUTER_BOUND('',#190,.T.);
#43=FACE_OUTER_BOUND('',#191,.T.);
#44=FACE_OUTER_BOUND('',#192,.T.);
#45=FACE_OUTER_BOUND('',#193,.T.);
#46=FACE_OUTER_BOUND('',#194,.T.);
#47=FACE_OUTER_BOUND('',#195,.T.);
#48=FACE_OUTER_BOUND('',#196,.T.);
#49=FACE_OUTER_BOUND('',#197,.T.);
#50=FACE_OUTER_BOUND('',#198,.T.);
#51=FACE_OUTER_BOUND('',#199,.T.);
#52=FACE_OUTER_BOUND('',#200,.T.);
#53=FACE_OUTER_BOUND('',#201,.T.);
#54=FACE_OUTER_BOUND('',#202,.T.);
#55=FACE_OUTER_BOUND('',#203,.T.);
#56=FACE_OUTER_BOUND('',#204,.T.);
#57=FACE_OUTER_BOUND('',#205,.T.);
#58=ADVANCED_FACE('',(#181,#182),#79,.T.);
#59=ADVANCED_FACE('',(#39),#80,.T.);
#60=ADVANCED_FACE('',(#40),#81,.T.);
#61=ADVANCED_FACE('',(#41),#82,.T.);
#62=ADVANCED_FACE('',(#42),#83,.T.);
#63=ADVANCED_FACE('',(#43),#84,.T.);
#64=ADVANCED_FACE('',(#44),#85,.F.);
#65=ADVANCED_FACE('',(#45),#86,.F.);
#66=ADVANCED_FACE('',(#46),#87,.F.);
#67=ADVANCED_FACE('',(#47),#88,.F.);
#68=ADVANCED_FACE('',(#48),#89,.F.);
#69=ADVANCED_FACE('',(#49),#34,.F.);
#70=ADVANCED_FACE('',(#50),#35,.F.);
#71=ADVANCED_FACE('',(#51),#90,.F.);
#72=ADVANCED_FACE('',(#52),#91,.F.);
#73=ADVANCED_FACE('',(#53),#92,.F.);
#74=ADVANCED_FACE('',(#54),#93,.F.);
#75=ADVANCED_FACE('',(#55),#36,.F.);
#76=ADVANCED_FACE('',(#56),#37,.F.);
#77=ADVANCED_FACE('',(#57),#94,.F.);
#78=ADVANCED_FACE('',(#183,#184),#38,.F.);
#79=PLANE('',#419);
#80=PLANE('',#420);
#81=PLANE('',#421);
#82=PLANE('',#422);
#83=PLANE('',#423);
#84=PLANE('',#424);
#85=PLANE('',#425);
#86=PLANE('',#426);
#87=PLANE('',#427);
#88=PLANE('',#430);
#89=PLANE('',#431);
#90=PLANE('',#434);
#91=PLANE('',#435);
#92=PLANE('',#436);
#93=PLANE('',#439);
#94=PLANE('',#443);
#95=LINE('',#555,#138);
#96=LINE('',#560,#139);
#97=LINE('',#564,#140);
#98=LINE('',#566,#141);
#99=LINE('',#568,#142);
#100=LINE('',#570,#143);
#101=LINE('',#572,#144);
#102=LINE('',#574,#145);
#103=LINE('',#578,#146);
#104=LINE('',#582,#147);
#105=LINE('',#584,#148);
#106=LINE('',#586,#149);
#107=LINE('',#588,#150);
#108=LINE('',#590,#151);
#109=LINE('',#592,#152);
#110=LINE('',#594,#153);
#111=LINE('',#595,#154);
#112=LINE('',#597,#155);
#113=LINE('',#599,#156);
#114=LINE('',#601,#157);
#115=LINE('',#603,#158);
#116=LINE('',#605,#159);
#117=LINE('',#607,#160);
#118=LINE('',#609,#161);
#119=LINE('',#611,#162);
#120=LINE('',#613,#163);
#121=LINE('',#615,#164);
#122=LINE('',#616,#165);
#123=LINE('',#618,#166);
#124=LINE('',#621,#167);
#125=LINE('',#623,#168);
#126=LINE('',#625,#169);
#127=LINE('',#627,#170);
#128=LINE('',#629,#171);
#129=LINE('',#632,#172);
#130=LINE('',#636,#173);
#131=LINE('',#640,#174);
#132=LINE('',#642,#175);
#133=LINE('',#644,#176);
#134=LINE('',#647,#177);
#135=LINE('',#648,#178);
#136=LINE('',#650,#179);
#137=LINE('',#652,#180);
#138=VECTOR('',#449,1.);
#139=VECTOR('',#452,1.);
#140=VECTOR('',#455,1.);
#141=VECTOR('',#456,1.);
#142=VECTOR('',#457,1.);
#143=VECTOR('',#458,1.);
#144=VECTOR('',#459,1.);
#145=VECTOR('',#460,1.);
#146=VECTOR('',#463,1.);
#147=VECTOR('',#466,1.);
#148=VECTOR('',#467,1.);
#149=VECTOR('',#468,1.);
#150=VECTOR('',#471,1.);
#151=VECTOR('',#472,1.);
#152=VECTOR('',#473,1.);
#153=VECTOR('',#474,1.);
#154=VECTOR('',#475,1.);
#155=VECTOR('',#476,1.);
#156=VECTOR('',#479,1.);
#157=VECTOR('',#480,1.);
#158=VECTOR('',#481,1.);
#159=VECTOR('',#484,1.);
#160=VECTOR('',#485,1.);
#161=VECTOR('',#486,1.);
#162=VECTOR('',#489,1.);
#163=VECTOR('',#492,1.);
#164=VECTOR('',#493,1.);
#165=VECTOR('',#494,1.);
#166=VECTOR('',#495,1.);
#167=VECTOR('',#500,1.);
#168=VECTOR('',#501,1.);
#169=VECTOR('',#504,1.);
#170=VECTOR('',#505,1.);
#171=VECTOR('',#506,1.);
#172=VECTOR('',#511,1.);
#173=VECTOR('',#516,1.);
#174=VECTOR('',#523,1.);
#175=VECTOR('',#524,1.);
#176=VECTOR('',#527,1.);
#177=VECTOR('',#528,1.);
#178=VECTOR('',#529,1.);
#179=VECTOR('',#532,1.);
#180=VECTOR('',#533,1.);
#181=FACE_BOUND('',#185,.T.);
#182=FACE_BOUND('',#186,.T.);
#183=FACE_BOUND('',#206,.T.);
#184=FACE_BOUND('',#207,.T.);
#185=EDGE_LOOP('',(#208));
#186=EDGE_LOOP('',(#209,#210,#211,#212,#213,#214,#215,#216,#217,#218,#219,
#220,#221,#222,#223,#224));
#187=EDGE_LOOP('',(#225,#226,#227,#228,#229,#230,#231,#232));
#188=EDGE_LOOP('',(#233,#234,#235,#236,#237));
#189=EDGE_LOOP('',(#238,#239,#240,#241));
#190=EDGE_LOOP('',(#242,#243,#244,#245));
#191=EDGE_LOOP('',(#246,#247,#248,#249,#250,#251,#252,#253,#254));
#192=EDGE_LOOP('',(#255,#256,#257,#258));
#193=EDGE_LOOP('',(#259,#260,#261,#262));
#194=EDGE_LOOP('',(#263,#264,#265,#266));
#195=EDGE_LOOP('',(#267,#268,#269,#270,#271,#272));
#196=EDGE_LOOP('',(#273,#274,#275,#276));
#197=EDGE_LOOP('',(#277,#278,#279,#280));
#198=EDGE_LOOP('',(#281,#282,#283,#284));
#199=EDGE_LOOP('',(#285,#286,#287,#288));
#200=EDGE_LOOP('',(#289,#290,#291,#292));
#201=EDGE_LOOP('',(#293,#294,#295,#296));
#202=EDGE_LOOP('',(#297,#298,#299,#300,#301,#302));
#203=EDGE_LOOP('',(#303,#304,#305,#306));
#204=EDGE_LOOP('',(#307,#308,#309,#310));
#205=EDGE_LOOP('',(#311));
#206=EDGE_LOOP('',(#312));
#207=EDGE_LOOP('',(#313));
#208=ORIENTED_EDGE('',*,*,#350,.F.);
#209=ORIENTED_EDGE('',*,*,#351,.F.);
#210=ORIENTED_EDGE('',*,*,#352,.T.);
#211=ORIENTED_EDGE('',*,*,#353,.F.);
#212=ORIENTED_EDGE('',*,*,#354,.T.);
#213=ORIENTED_EDGE('',*,*,#355,.F.);
#214=ORIENTED_EDGE('',*,*,#356,.F.);
#215=ORIENTED_EDGE('',*,*,#357,.T.);
#216=ORIENTED_EDGE('',*,*,#358,.F.);
#217=ORIENTED_EDGE('',*,*,#359,.F.);
#218=ORIENTED_EDGE('',*,*,#360,.F.);
#219=ORIENTED_EDGE('',*,*,#361,.T.);
#220=ORIENTED_EDGE('',*,*,#362,.F.);
#221=ORIENTED_EDGE('',*,*,#363,.T.);
#222=ORIENTED_EDGE('',*,*,#364,.F.);
#223=ORIENTED_EDGE('',*,*,#365,.F.);
#224=ORIENTED_EDGE('',*,*,#366,.F.);
#225=ORIENTED_EDGE('',*,*,#367,.T.);
#226=ORIENTED_EDGE('',*,*,#359,.T.);
#227=ORIENTED_EDGE('',*,*,#368,.F.);
#228=ORIENTED_EDGE('',*,*,#369,.T.);
#229=ORIENTED_EDGE('',*,*,#370,.T.);
#230=ORIENTED_EDGE('',*,*,#365,.T.);
#231=ORIENTED_EDGE('',*,*,#371,.F.);
#232=ORIENTED_EDGE('',*,*,#372,.F.);
#233=ORIENTED_EDGE('',*,*,#358,.T.);
#234=ORIENTED_EDGE('',*,*,#373,.T.);
#235=ORIENTED_EDGE('',*,*,#374,.F.);
#236=ORIENTED_EDGE('',*,*,#375,.T.);
#237=ORIENTED_EDGE('',*,*,#368,.T.);
#238=ORIENTED_EDGE('',*,*,#374,.T.);
#239=ORIENTED_EDGE('',*,*,#376,.T.);
#240=ORIENTED_EDGE('',*,*,#377,.F.);
#241=ORIENTED_EDGE('',*,*,#378,.T.);
#242=ORIENTED_EDGE('',*,*,#379,.F.);
#243=ORIENTED_EDGE('',*,*,#369,.F.);
#244=ORIENTED_EDGE('',*,*,#375,.F.);
#245=ORIENTED_EDGE('',*,*,#378,.F.);
#246=ORIENTED_EDGE('',*,*,#380,.T.);
#247=ORIENTED_EDGE('',*,*,#366,.T.);
#248=ORIENTED_EDGE('',*,*,#370,.F.);
#249=ORIENTED_EDGE('',*,*,#379,.T.);
#250=ORIENTED_EDGE('',*,*,#377,.T.);
#251=ORIENTED_EDGE('',*,*,#381,.T.);
#252=ORIENTED_EDGE('',*,*,#356,.T.);
#253=ORIENTED_EDGE('',*,*,#382,.F.);
#254=ORIENTED_EDGE('',*,*,#383,.F.);
#255=ORIENTED_EDGE('',*,*,#373,.F.);
#256=ORIENTED_EDGE('',*,*,#357,.F.);
#257=ORIENTED_EDGE('',*,*,#381,.F.);
#258=ORIENTED_EDGE('',*,*,#376,.F.);
#259=ORIENTED_EDGE('',*,*,#384,.T.);
#260=ORIENTED_EDGE('',*,*,#385,.T.);
#261=ORIENTED_EDGE('',*,*,#360,.T.);
#262=ORIENTED_EDGE('',*,*,#367,.F.);
#263=ORIENTED_EDGE('',*,*,#362,.T.);
#264=ORIENTED_EDGE('',*,*,#386,.T.);
#265=ORIENTED_EDGE('',*,*,#387,.T.);
#266=ORIENTED_EDGE('',*,*,#388,.T.);
#267=ORIENTED_EDGE('',*,*,#387,.F.);
#268=ORIENTED_EDGE('',*,*,#389,.T.);
#269=ORIENTED_EDGE('',*,*,#384,.F.);
#270=ORIENTED_EDGE('',*,*,#372,.T.);
#271=ORIENTED_EDGE('',*,*,#390,.F.);
#272=ORIENTED_EDGE('',*,*,#391,.T.);
#273=ORIENTED_EDGE('',*,*,#364,.T.);
#274=ORIENTED_EDGE('',*,*,#392,.T.);
#275=ORIENTED_EDGE('',*,*,#390,.T.);
#276=ORIENTED_EDGE('',*,*,#371,.T.);
#277=ORIENTED_EDGE('',*,*,#361,.F.);
#278=ORIENTED_EDGE('',*,*,#385,.F.);
#279=ORIENTED_EDGE('',*,*,#389,.F.);
#280=ORIENTED_EDGE('',*,*,#386,.F.);
#281=ORIENTED_EDGE('',*,*,#363,.F.);
#282=ORIENTED_EDGE('',*,*,#388,.F.);
#283=ORIENTED_EDGE('',*,*,#391,.F.);
#284=ORIENTED_EDGE('',*,*,#392,.F.);
#285=ORIENTED_EDGE('',*,*,#393,.T.);
#286=ORIENTED_EDGE('',*,*,#394,.T.);
#287=ORIENTED_EDGE('',*,*,#351,.T.);
#288=ORIENTED_EDGE('',*,*,#380,.F.);
#289=ORIENTED_EDGE('',*,*,#395,.T.);
#290=ORIENTED_EDGE('',*,*,#396,.T.);
#291=ORIENTED_EDGE('',*,*,#353,.T.);
#292=ORIENTED_EDGE('',*,*,#397,.T.);
#293=ORIENTED_EDGE('',*,*,#355,.T.);
#294=ORIENTED_EDGE('',*,*,#398,.T.);
#295=ORIENTED_EDGE('',*,*,#399,.T.);
#296=ORIENTED_EDGE('',*,*,#382,.T.);
#297=ORIENTED_EDGE('',*,*,#399,.F.);
#298=ORIENTED_EDGE('',*,*,#400,.T.);
#299=ORIENTED_EDGE('',*,*,#395,.F.);
#300=ORIENTED_EDGE('',*,*,#401,.T.);
#301=ORIENTED_EDGE('',*,*,#393,.F.);
#302=ORIENTED_EDGE('',*,*,#383,.T.);
#303=ORIENTED_EDGE('',*,*,#354,.F.);
#304=ORIENTED_EDGE('',*,*,#396,.F.);
#305=ORIENTED_EDGE('',*,*,#400,.F.);
#306=ORIENTED_EDGE('',*,*,#398,.F.);
#307=ORIENTED_EDGE('',*,*,#352,.F.);
#308=ORIENTED_EDGE('',*,*,#394,.F.);
#309=ORIENTED_EDGE('',*,*,#401,.F.);
#310=ORIENTED_EDGE('',*,*,#397,.F.);
#311=ORIENTED_EDGE('',*,*,#402,.F.);
#312=ORIENTED_EDGE('',*,*,#350,.T.);
#313=ORIENTED_EDGE('',*,*,#402,.T.);
#314=VERTEX_POINT('',#554);
#315=VERTEX_POINT('',#556);
#316=VERTEX_POINT('',#557);
#317=VERTEX_POINT('',#559);
#318=VERTEX_POINT('',#561);
#319=VERTEX_POINT('',#563);
#320=VERTEX_POINT('',#565);
#321=VERTEX_POINT('',#567);
#322=VERTEX_POINT('',#569);
#323=VERTEX_POINT('',#571);
#324=VERTEX_POINT('',#573);
#325=VERTEX_POINT('',#575);
#326=VERTEX_POINT('',#577);
#327=VERTEX_POINT('',#579);
#328=VERTEX_POINT('',#581);
#329=VERTEX_POINT('',#583);
#330=VERTEX_POINT('',#585);
#331=VERTEX_POINT('',#589);
#332=VERTEX_POINT('',#591);
#333=VERTEX_POINT('',#593);
#334=VERTEX_POINT('',#596);
#335=VERTEX_POINT('',#600);
#336=VERTEX_POINT('',#602);
#337=VERTEX_POINT('',#606);
#338=VERTEX_POINT('',#608);
#339=VERTEX_POINT('',#614);
#340=VERTEX_POINT('',#617);
#341=VERTEX_POINT('',#622);
#342=VERTEX_POINT('',#626);
#343=VERTEX_POINT('',#628);
#344=VERTEX_POINT('',#633);
#345=VERTEX_POINT('',#641);
#346=VERTEX_POINT('',#645);
#347=VERTEX_POINT('',#646);
#348=VERTEX_POINT('',#651);
#349=VERTEX_POINT('',#660);
#350=EDGE_CURVE('',#314,#314,#403,.T.);
#351=EDGE_CURVE('',#315,#316,#95,.T.);
#352=EDGE_CURVE('',#315,#317,#404,.T.);
#353=EDGE_CURVE('',#318,#317,#96,.T.);
#354=EDGE_CURVE('',#318,#319,#405,.T.);
#355=EDGE_CURVE('',#320,#319,#97,.T.);
#356=EDGE_CURVE('',#321,#320,#98,.T.);
#357=EDGE_CURVE('',#321,#322,#99,.T.);
#358=EDGE_CURVE('',#323,#322,#100,.T.);
#359=EDGE_CURVE('',#324,#323,#101,.T.);
#360=EDGE_CURVE('',#325,#324,#102,.T.);
#361=EDGE_CURVE('',#325,#326,#406,.T.);
#362=EDGE_CURVE('',#327,#326,#103,.T.);
#363=EDGE_CURVE('',#327,#328,#407,.T.);
#364=EDGE_CURVE('',#329,#328,#104,.T.);
#365=EDGE_CURVE('',#330,#329,#105,.T.);
#366=EDGE_CURVE('',#316,#330,#106,.T.);
#367=EDGE_CURVE('',#331,#324,#107,.T.);
#368=EDGE_CURVE('',#332,#323,#108,.T.);
#369=EDGE_CURVE('',#332,#333,#109,.T.);
#370=EDGE_CURVE('',#333,#330,#110,.T.);
#371=EDGE_CURVE('',#334,#329,#111,.T.);
#372=EDGE_CURVE('',#331,#334,#112,.T.);
#373=EDGE_CURVE('',#322,#335,#113,.T.);
#374=EDGE_CURVE('',#336,#335,#114,.T.);
#375=EDGE_CURVE('',#336,#332,#115,.T.);
#376=EDGE_CURVE('',#335,#337,#116,.T.);
#377=EDGE_CURVE('',#338,#337,#117,.T.);
#378=EDGE_CURVE('',#338,#336,#118,.T.);
#379=EDGE_CURVE('',#333,#338,#119,.T.);
#380=EDGE_CURVE('',#339,#316,#120,.T.);
#381=EDGE_CURVE('',#337,#321,#121,.T.);
#382=EDGE_CURVE('',#340,#320,#122,.T.);
#383=EDGE_CURVE('',#339,#340,#123,.T.);
#384=EDGE_CURVE('',#331,#341,#124,.T.);
#385=EDGE_CURVE('',#341,#325,#125,.T.);
#386=EDGE_CURVE('',#326,#342,#126,.T.);
#387=EDGE_CURVE('',#342,#343,#127,.T.);
#388=EDGE_CURVE('',#343,#327,#128,.T.);
#389=EDGE_CURVE('',#342,#341,#408,.T.);
#390=EDGE_CURVE('',#344,#334,#129,.T.);
#391=EDGE_CURVE('',#344,#343,#409,.T.);
#392=EDGE_CURVE('',#328,#344,#130,.T.);
#393=EDGE_CURVE('',#339,#345,#131,.T.);
#394=EDGE_CURVE('',#345,#315,#132,.T.);
#395=EDGE_CURVE('',#346,#347,#133,.T.);
#396=EDGE_CURVE('',#347,#318,#134,.T.);
#397=EDGE_CURVE('',#317,#346,#135,.T.);
#398=EDGE_CURVE('',#319,#348,#136,.T.);
#399=EDGE_CURVE('',#348,#340,#137,.T.);
#400=EDGE_CURVE('',#348,#347,#410,.T.);
#401=EDGE_CURVE('',#346,#345,#411,.T.);
#402=EDGE_CURVE('',#349,#349,#412,.T.);
#403=CIRCLE('',#414,2.9);
#404=CIRCLE('',#415,14.2);
#405=CIRCLE('',#416,14.2);
#406=CIRCLE('',#417,8.);
#407=CIRCLE('',#418,8.);
#408=CIRCLE('',#428,8.);
#409=CIRCLE('',#429,8.);
#410=CIRCLE('',#437,14.2);
#411=CIRCLE('',#438,14.2);
#412=CIRCLE('',#442,2.9);
#413=AXIS2_PLACEMENT_3D('',#552,#445,#446);
#414=AXIS2_PLACEMENT_3D('',#553,#447,#448);
#415=AXIS2_PLACEMENT_3D('',#558,#450,#451);
#416=AXIS2_PLACEMENT_3D('',#562,#453,#454);
#417=AXIS2_PLACEMENT_3D('',#576,#461,#462);
#418=AXIS2_PLACEMENT_3D('',#580,#464,#465);
#419=AXIS2_PLACEMENT_3D('',#587,#469,#470);
#420=AXIS2_PLACEMENT_3D('',#598,#477,#478);
#421=AXIS2_PLACEMENT_3D('',#604,#482,#483);
#422=AXIS2_PLACEMENT_3D('',#610,#487,#488);
#423=AXIS2_PLACEMENT_3D('',#612,#490,#491);
#424=AXIS2_PLACEMENT_3D('',#619,#496,#497);
#425=AXIS2_PLACEMENT_3D('',#620,#498,#499);
#426=AXIS2_PLACEMENT_3D('',#624,#502,#503);
#427=AXIS2_PLACEMENT_3D('',#630,#507,#508);
#428=AXIS2_PLACEMENT_3D('',#631,#509,#510);
#429=AXIS2_PLACEMENT_3D('',#634,#512,#513);
#430=AXIS2_PLACEMENT_3D('',#635,#514,#515);
#431=AXIS2_PLACEMENT_3D('',#637,#517,#518);
#432=AXIS2_PLACEMENT_3D('',#638,#519,#520);
#433=AXIS2_PLACEMENT_3D('',#639,#521,#522);
#434=AXIS2_PLACEMENT_3D('',#643,#525,#526);
#435=AXIS2_PLACEMENT_3D('',#649,#530,#531);
#436=AXIS2_PLACEMENT_3D('',#653,#534,#535);
#437=AXIS2_PLACEMENT_3D('',#654,#536,#537);
#438=AXIS2_PLACEMENT_3D('',#655,#538,#539);
#439=AXIS2_PLACEMENT_3D('',#656,#540,#541);
#440=AXIS2_PLACEMENT_3D('',#657,#542,#543);
#441=AXIS2_PLACEMENT_3D('',#658,#544,#545);
#442=AXIS2_PLACEMENT_3D('',#659,#546,#547);
#443=AXIS2_PLACEMENT_3D('',#661,#548,#549);
#444=AXIS2_PLACEMENT_3D('',#662,#550,#551);
#445=DIRECTION('',(0.,0.,1.));
#446=DIRECTION('',(1.,0.,0.));
#447=DIRECTION('',(0.,0.,1.));
#448=DIRECTION('',(1.,0.,0.));
#449=DIRECTION('',(1.,0.,0.));
#450=DIRECTION('',(0.,0.,-1.));
#451=DIRECTION('',(0.999999999999999,0.,0.));
#452=DIRECTION('',(0.,-1.,0.));
#453=DIRECTION('',(0.,0.,-1.));
#454=DIRECTION('',(0.999999999999999,0.,0.));
#455=DIRECTION('',(-1.,0.,0.));
#456=DIRECTION('',(0.,-1.,0.));
#457=DIRECTION('',(-1.,0.,0.));
#458=DIRECTION('',(0.,1.,0.));
#459=DIRECTION('',(-1.,0.,0.));
#460=DIRECTION('',(0.,-1.,0.));
#461=DIRECTION('',(0.,0.,-1.));
#462=DIRECTION('',(1.,0.,0.));
#463=DIRECTION('',(-1.,0.,0.));
#464=DIRECTION('',(0.,0.,-1.));
#465=DIRECTION('',(1.,0.,0.));
#466=DIRECTION('',(0.,1.,0.));
#467=DIRECTION('',(-1.,0.,0.));
#468=DIRECTION('',(0.,-1.,0.));
#469=DIRECTION('',(0.,0.,1.));
#470=DIRECTION('',(1.,0.,0.));
#471=DIRECTION('',(0.,0.,1.));
#472=DIRECTION('',(0.,0.,1.));
#473=DIRECTION('',(1.,0.,0.));
#474=DIRECTION('',(0.,0.,1.));
#475=DIRECTION('',(0.,0.,1.));
#476=DIRECTION('',(1.,0.,0.));
#477=DIRECTION('',(0.,-1.,0.));
#478=DIRECTION('',(0.,0.,-1.));
#479=DIRECTION('',(0.,0.707106781186546,-0.707106781186549));
#480=DIRECTION('',(0.,0.,1.));
#481=DIRECTION('',(0.,-1.,0.));
#482=DIRECTION('',(-1.,0.,0.));
#483=DIRECTION('',(0.,0.,1.));
#484=DIRECTION('',(1.,0.,0.));
#485=DIRECTION('',(0.,0.,1.));
#486=DIRECTION('',(-1.,0.,0.));
#487=DIRECTION('',(0.,1.,0.));
#488=DIRECTION('',(0.,0.,1.));
#489=DIRECTION('',(0.,1.,0.));
#490=DIRECTION('',(0.,0.,-1.));
#491=DIRECTION('',(-1.,0.,0.));
#492=DIRECTION('',(0.,0.,1.));
#493=DIRECTION('',(0.,-0.707106781186546,0.707106781186549));
#494=DIRECTION('',(0.,0.,1.));
#495=DIRECTION('',(0.,1.,0.));
#496=DIRECTION('',(1.,0.,0.));
#497=DIRECTION('',(0.,0.,-1.));
#498=DIRECTION('',(0.,-0.707106781186549,-0.707106781186546));
#499=DIRECTION('',(1.,0.,0.));
#500=DIRECTION('',(0.,1.,0.));
#501=DIRECTION('',(0.,0.,1.));
#502=DIRECTION('',(-1.,0.,0.));
#503=DIRECTION('',(0.,0.,1.));
#504=DIRECTION('',(0.,0.,-1.));
#505=DIRECTION('',(1.,0.,0.));
#506=DIRECTION('',(0.,0.,1.));
#507=DIRECTION('',(0.,1.,0.));
#508=DIRECTION('',(0.,0.,1.));
#509=DIRECTION('',(0.,0.,1.));
#510=DIRECTION('',(-1.,0.,0.));
#511=DIRECTION('',(0.,-1.,0.));
#512=DIRECTION('',(0.,0.,1.));
#513=DIRECTION('',(-1.,0.,0.));
#514=DIRECTION('',(0.,0.,-1.));
#515=DIRECTION('',(-1.,0.,0.));
#516=DIRECTION('',(0.,0.,-1.));
#517=DIRECTION('',(1.,0.,0.));
#518=DIRECTION('',(0.,0.,-1.));
#519=DIRECTION('',(0.,0.,1.));
#520=DIRECTION('',(1.,0.,0.));
#521=DIRECTION('',(0.,0.,1.));
#522=DIRECTION('',(1.,0.,0.));
#523=DIRECTION('',(-1.,0.,0.));
#524=DIRECTION('',(0.,0.,1.));
#525=DIRECTION('',(0.,-1.,0.));
#526=DIRECTION('',(0.,0.,-1.));
#527=DIRECTION('',(0.,1.,0.));
#528=DIRECTION('',(0.,0.,1.));
#529=DIRECTION('',(0.,0.,-1.));
#530=DIRECTION('',(-1.,0.,0.));
#531=DIRECTION('',(0.,0.,1.));
#532=DIRECTION('',(0.,0.,-1.));
#533=DIRECTION('',(1.,0.,0.));
#534=DIRECTION('',(0.,1.,0.));
#535=DIRECTION('',(0.,0.,1.));
#536=DIRECTION('',(0.,0.,1.));
#537=DIRECTION('',(-0.999999999999999,0.,0.));
#538=DIRECTION('',(0.,0.,1.));
#539=DIRECTION('',(-0.999999999999999,0.,0.));
#540=DIRECTION('',(0.,0.,-1.));
#541=DIRECTION('',(-1.,0.,0.));
#542=DIRECTION('',(0.,0.,1.));
#543=DIRECTION('',(0.999999999999999,0.,0.));
#544=DIRECTION('',(0.,0.,1.));
#545=DIRECTION('',(0.999999999999999,0.,0.));
#546=DIRECTION('',(0.,0.,-1.));
#547=DIRECTION('',(1.,0.,0.));
#548=DIRECTION('',(0.,0.,-1.));
#549=DIRECTION('',(-1.,0.,0.));
#550=DIRECTION('',(0.,0.,-1.));
#551=DIRECTION('',(1.,0.,0.));
#552=CARTESIAN_POINT('',(0.,0.,0.));
#553=CARTESIAN_POINT('',(8.8,144.8,84.4));
#554=CARTESIAN_POINT('',(11.7,144.8,84.4));
#555=CARTESIAN_POINT('',(188.4,90.3,84.4));
#556=CARTESIAN_POINT('',(293.6,90.3,84.4));
#557=CARTESIAN_POINT('',(376.8,90.3,84.4));
#558=CARTESIAN_POINT('',(293.6,104.5,84.4));
#559=CARTESIAN_POINT('',(279.4,104.5,84.4));
#560=CARTESIAN_POINT('',(279.4,134.55,84.4));
#561=CARTESIAN_POINT('',(279.4,151.9,84.4));
#562=CARTESIAN_POINT('',(293.6,151.9,84.4));
#563=CARTESIAN_POINT('',(293.6,166.1,84.4));
#564=CARTESIAN_POINT('',(188.4,166.1,84.4));
#565=CARTESIAN_POINT('',(376.8,166.1,84.4));
#566=CARTESIAN_POINT('',(376.8,134.55,84.4));
#567=CARTESIAN_POINT('',(376.8,266.4,84.4));
#568=CARTESIAN_POINT('',(188.4,266.4,84.4));
#569=CARTESIAN_POINT('',(0.,266.4,84.4));
#570=CARTESIAN_POINT('',(0.,134.55,84.4));
#571=CARTESIAN_POINT('',(0.,0.,84.4));
#572=CARTESIAN_POINT('',(188.4,0.,84.4));
#573=CARTESIAN_POINT('',(288.2,0.,84.4));
#574=CARTESIAN_POINT('',(288.2,134.55,84.4));
#575=CARTESIAN_POINT('',(288.2,39.5,84.4));
#576=CARTESIAN_POINT('',(296.2,39.5,84.4));
#577=CARTESIAN_POINT('',(296.2,47.5,84.4));
#578=CARTESIAN_POINT('',(188.4,47.5,84.4));
#579=CARTESIAN_POINT('',(367.4,47.5,84.4));
#580=CARTESIAN_POINT('',(367.4,39.5,84.4));
#581=CARTESIAN_POINT('',(375.4,39.5,84.4));
#582=CARTESIAN_POINT('',(375.4,134.55,84.4));
#583=CARTESIAN_POINT('',(375.4,0.,84.4));
#584=CARTESIAN_POINT('',(188.4,0.,84.4));
#585=CARTESIAN_POINT('',(376.8,0.,84.4));
#586=CARTESIAN_POINT('',(376.8,134.55,84.4));
#587=CARTESIAN_POINT('',(188.4,134.55,84.4));
#588=CARTESIAN_POINT('',(288.2,0.,49.3));
#589=CARTESIAN_POINT('',(288.2,0.,49.3));
#590=CARTESIAN_POINT('',(0.,0.,0.));
#591=CARTESIAN_POINT('',(0.,0.,0.));
#592=CARTESIAN_POINT('',(188.4,0.,0.));
#593=CARTESIAN_POINT('',(376.8,0.,0.));
#594=CARTESIAN_POINT('',(376.8,0.,0.));
#595=CARTESIAN_POINT('',(375.4,0.,49.3));
#596=CARTESIAN_POINT('',(375.4,0.,49.3));
#597=CARTESIAN_POINT('',(331.8,0.,49.3));
#598=CARTESIAN_POINT('',(188.4,0.,0.));
#599=CARTESIAN_POINT('',(0.,242.675,108.125));
#600=CARTESIAN_POINT('',(0.,269.1,81.7));
#601=CARTESIAN_POINT('',(0.,269.1,0.));
#602=CARTESIAN_POINT('',(0.,269.1,0.));
#603=CARTESIAN_POINT('',(0.,134.55,0.));
#604=CARTESIAN_POINT('',(0.,134.55,0.));
#605=CARTESIAN_POINT('',(188.4,269.1,81.7));
#606=CARTESIAN_POINT('',(376.8,269.1,81.7));
#607=CARTESIAN_POINT('',(376.8,269.1,0.));
#608=CARTESIAN_POINT('',(376.8,269.1,0.));
#609=CARTESIAN_POINT('',(188.4,269.1,0.));
#610=CARTESIAN_POINT('',(188.4,269.1,0.));
#611=CARTESIAN_POINT('',(376.8,134.55,0.));
#612=CARTESIAN_POINT('',(188.4,134.55,0.));
#613=CARTESIAN_POINT('',(376.8,90.3,46.5));
#614=CARTESIAN_POINT('',(376.8,90.3,46.5));
#615=CARTESIAN_POINT('',(376.8,242.675,108.125));
#616=CARTESIAN_POINT('',(376.8,166.1,46.5));
#617=CARTESIAN_POINT('',(376.8,166.1,46.5));
#618=CARTESIAN_POINT('',(376.8,128.2,46.5));
#619=CARTESIAN_POINT('',(376.8,134.55,0.));
#620=CARTESIAN_POINT('',(188.4,269.1,81.7));
#621=CARTESIAN_POINT('',(288.2,23.75,49.3));
#622=CARTESIAN_POINT('',(288.2,39.5,49.3));
#623=CARTESIAN_POINT('',(288.2,39.5,84.4));
#624=CARTESIAN_POINT('',(288.2,23.75,49.3));
#625=CARTESIAN_POINT('',(296.2,47.5,49.3));
#626=CARTESIAN_POINT('',(296.2,47.5,49.3));
#627=CARTESIAN_POINT('',(331.8,47.5,49.3));
#628=CARTESIAN_POINT('',(367.4,47.5,49.3));
#629=CARTESIAN_POINT('',(367.4,47.5,84.4));
#630=CARTESIAN_POINT('',(331.8,47.5,49.3));
#631=CARTESIAN_POINT('',(296.2,39.5,49.3));
#632=CARTESIAN_POINT('',(375.4,23.75,49.3));
#633=CARTESIAN_POINT('',(375.4,39.5,49.3));
#634=CARTESIAN_POINT('',(367.4,39.5,49.3));
#635=CARTESIAN_POINT('',(331.8,23.75,49.3));
#636=CARTESIAN_POINT('',(375.4,39.5,49.3));
#637=CARTESIAN_POINT('',(375.4,23.75,49.3));
#638=CARTESIAN_POINT('',(296.2,39.5,49.3));
#639=CARTESIAN_POINT('',(367.4,39.5,49.3));
#640=CARTESIAN_POINT('',(328.1,90.3,46.5));
#641=CARTESIAN_POINT('',(293.6,90.3,46.5));
#642=CARTESIAN_POINT('',(293.6,90.3,84.4));
#643=CARTESIAN_POINT('',(328.1,90.3,46.5));
#644=CARTESIAN_POINT('',(279.4,128.2,46.5));
#645=CARTESIAN_POINT('',(279.4,104.5,46.5));
#646=CARTESIAN_POINT('',(279.4,151.9,46.5));
#647=CARTESIAN_POINT('',(279.4,151.9,84.4));
#648=CARTESIAN_POINT('',(279.4,104.5,46.5));
#649=CARTESIAN_POINT('',(279.4,128.2,46.5));
#650=CARTESIAN_POINT('',(293.6,166.1,46.5));
#651=CARTESIAN_POINT('',(293.6,166.1,46.5));
#652=CARTESIAN_POINT('',(328.1,166.1,46.5));
#653=CARTESIAN_POINT('',(328.1,166.1,46.5));
#654=CARTESIAN_POINT('',(293.6,151.9,46.5));
#655=CARTESIAN_POINT('',(293.6,104.5,46.5));
#656=CARTESIAN_POINT('',(328.1,128.2,46.5));
#657=CARTESIAN_POINT('',(293.6,151.9,46.5));
#658=CARTESIAN_POINT('',(293.6,104.5,46.5));
#659=CARTESIAN_POINT('',(8.8,144.8,36.8));
#660=CARTESIAN_POINT('',(11.7,144.8,36.8));
#661=CARTESIAN_POINT('',(8.8,144.8,36.8));
#662=CARTESIAN_POINT('',(8.8,144.8,84.45));
#663=MECHANICAL_DESIGN_GEOMETRIC_PRESENTATION_REPRESENTATION('',(#24),#664);
#664=(
GEOMETRIC_REPRESENTATION_CONTEXT(3)
GLOBAL_UNCERTAINTY_ASSIGNED_CONTEXT((#665))
GLOBAL_UNIT_ASSIGNED_CONTEXT((#671,#667,#666))
REPRESENTATION_CONTEXT('featured_part_06698','TOP_LEVEL_ASSEMBLY_PART')
);
#665=UNCERTAINTY_MEASURE_WITH_UNIT(LENGTH_MEASURE(2.E-5),#671,
'DISTANCE_ACCURACY_VALUE','Maximum Tolerance applied to model');
#666=(
NAMED_UNIT(*)
SI_UNIT($,.STERADIAN.)
SOLID_ANGLE_UNIT()
);
#667=(
CONVERSION_BASED_UNIT('DEGREE',#669)
NAMED_UNIT(#668)
PLANE_ANGLE_UNIT()
);
#668=DIMENSIONAL_EXPONENTS(0.,0.,0.,0.,0.,0.,0.);
#669=PLANE_ANGLE_MEASURE_WITH_UNIT(PLANE_ANGLE_MEASURE(0.0174532925),#670);
#670=(
NAMED_UNIT(*)
PLANE_ANGLE_UNIT()
SI_UNIT($,.RADIAN.)
);
#671=(
LENGTH_UNIT()
NAMED_UNIT(*)
SI_UNIT(.MILLI.,.METRE.)
);
ENDSEC;
END-ISO-10303-21;
