ISO-10303-21;
HEADER;
/* Generated by software containing ST-Developer
 * from STEP Tools, Inc. (www.steptools.com) 
 */
/* OPTION: using custom schema-name function */

FILE_DESCRIPTION(
/* description */ (''),
/* implementation_level */ '2;1');

FILE_NAME(
/* name */ 'featured_part_05999.stp',
/* time_stamp */ '2026-07-14T11:47:54-04:00',
/* author */ (''),
/* organization */ (''),
/* preprocessor_version */ 'ST-DEVELOPER v20.1',
/* originating_system */ 'SIEMENS PLM Software NX2512.6002',
/* authorisation */ '');

FILE_SCHEMA (('AUTOMOTIVE_DESIGN { 1 0 10303 214 3 1 1 1 }'));
ENDSEC;

DATA;
#10=SHAPE_REPRESENTATION_RELATIONSHIP('None',
'relationship between featured_part_05999-None and featured_part_05999
-None',#22,#11);
#11=ADVANCED_BREP_SHAPE_REPRESENTATION('featured_part_05999-None',(#32),
#873);
#12=SHAPE_DEFINITION_REPRESENTATION(#13,#22);
#13=PRODUCT_DEFINITION_SHAPE('','',#14);
#14=PRODUCT_DEFINITION(' ','',#16,#15);
#15=PRODUCT_DEFINITION_CONTEXT('part definition',#21,'design');
#16=PRODUCT_DEFINITION_FORMATION_WITH_SPECIFIED_SOURCE(' ',' ',#18,
 .NOT_KNOWN.);
#17=PRODUCT_RELATED_PRODUCT_CATEGORY('part','',(#18));
#18=PRODUCT('featured_part_05999','featured_part_05999',' ',(#19));
#19=PRODUCT_CONTEXT(' ',#21,'mechanical');
#20=APPLICATION_PROTOCOL_DEFINITION('international standard',
'automotive_design',2010,#21);
#21=APPLICATION_CONTEXT(
'core data for automotive mechanical design processes');
#22=SHAPE_REPRESENTATION('featured_part_05999-None',(#529),#873);
#23=PRESENTATION_LAYER_ASSIGNMENT('1','Layer 1',(#32));
#24=STYLED_ITEM('',(#25),#32);
#25=PRESENTATION_STYLE_ASSIGNMENT((#26));
#26=SURFACE_STYLE_USAGE(.BOTH.,#27);
#27=SURFACE_SIDE_STYLE('',(#28));
#28=SURFACE_STYLE_FILL_AREA(#29);
#29=FILL_AREA_STYLE('',(#30));
#30=FILL_AREA_STYLE_COLOUR('',#31);
#31=COLOUR_RGB('medium steel',0.611764705882353,0.658823529411765,0.670588235294118);
#32=MANIFOLD_SOLID_BREP('',#33);
#33=CLOSED_SHELL('',(#69,#70,#71,#72,#73,#74,#75,#76,#77,#78,#79,#80,#81,
#82,#83,#84,#85,#86,#87,#88,#89,#90,#91,#92,#93,#94,#95,#96,#97));
#34=PLANE('',#540);
#35=PLANE('',#541);
#36=PLANE('',#542);
#37=PLANE('',#543);
#38=PLANE('',#545);
#39=PLANE('',#546);
#40=PLANE('',#547);
#41=PLANE('',#548);
#42=PLANE('',#549);
#43=PLANE('',#550);
#44=PLANE('',#551);
#45=PLANE('',#559);
#46=PLANE('',#560);
#47=PLANE('',#565);
#48=PLANE('',#566);
#49=PLANE('',#568);
#50=PLANE('',#572);
#51=PLANE('',#576);
#52=PLANE('',#579);
#53=FACE_BOUND('',#131,.T.);
#54=FACE_BOUND('',#132,.T.);
#55=FACE_BOUND('',#133,.T.);
#56=FACE_BOUND('',#137,.T.);
#57=FACE_BOUND('',#138,.T.);
#58=FACE_BOUND('',#145,.T.);
#59=FACE_BOUND('',#146,.T.);
#60=FACE_BOUND('',#147,.T.);
#61=FACE_BOUND('',#157,.T.);
#62=FACE_BOUND('',#158,.T.);
#63=FACE_BOUND('',#160,.T.);
#64=FACE_BOUND('',#161,.T.);
#65=FACE_BOUND('',#162,.T.);
#66=FACE_BOUND('',#163,.T.);
#67=FACE_BOUND('',#165,.T.);
#68=FACE_BOUND('',#166,.T.);
#69=ADVANCED_FACE('',(#108),#98,.F.);
#70=ADVANCED_FACE('',(#53,#54,#55),#34,.T.);
#71=ADVANCED_FACE('',(#109),#35,.T.);
#72=ADVANCED_FACE('',(#110),#36,.T.);
#73=ADVANCED_FACE('',(#111),#37,.T.);
#74=ADVANCED_FACE('',(#56,#57),#38,.T.);
#75=ADVANCED_FACE('',(#112),#39,.T.);
#76=ADVANCED_FACE('',(#113),#40,.F.);
#77=ADVANCED_FACE('',(#114),#41,.F.);
#78=ADVANCED_FACE('',(#115),#42,.F.);
#79=ADVANCED_FACE('',(#116),#43,.F.);
#80=ADVANCED_FACE('',(#117),#44,.F.);
#81=ADVANCED_FACE('',(#58,#59,#60),#45,.F.);
#82=ADVANCED_FACE('',(#118),#46,.F.);
#83=ADVANCED_FACE('',(#119),#99,.F.);
#84=ADVANCED_FACE('',(#120),#100,.F.);
#85=ADVANCED_FACE('',(#121),#101,.F.);
#86=ADVANCED_FACE('',(#122),#102,.F.);
#87=ADVANCED_FACE('',(#123),#47,.F.);
#88=ADVANCED_FACE('',(#124),#48,.F.);
#89=ADVANCED_FACE('',(#125),#49,.F.);
#90=ADVANCED_FACE('',(#126),#103,.F.);
#91=ADVANCED_FACE('',(#61,#62),#104,.F.);
#92=ADVANCED_FACE('',(#127),#50,.F.);
#93=ADVANCED_FACE('',(#63,#64),#105,.F.);
#94=ADVANCED_FACE('',(#65,#66),#106,.F.);
#95=ADVANCED_FACE('',(#128),#51,.F.);
#96=ADVANCED_FACE('',(#67,#68),#107,.F.);
#97=ADVANCED_FACE('',(#129),#52,.F.);
#98=CYLINDRICAL_SURFACE('',#532,13.7);
#99=CYLINDRICAL_SURFACE('',#561,13.7);
#100=CYLINDRICAL_SURFACE('',#562,13.7);
#101=CYLINDRICAL_SURFACE('',#563,13.7);
#102=CYLINDRICAL_SURFACE('',#564,13.7);
#103=CYLINDRICAL_SURFACE('',#569,7.8);
#104=CYLINDRICAL_SURFACE('',#571,6.65);
#105=CYLINDRICAL_SURFACE('',#573,12.25);
#106=CYLINDRICAL_SURFACE('',#575,9.15);
#107=CYLINDRICAL_SURFACE('',#578,3.35);
#108=FACE_OUTER_BOUND('',#130,.T.);
#109=FACE_OUTER_BOUND('',#134,.T.);
#110=FACE_OUTER_BOUND('',#135,.T.);
#111=FACE_OUTER_BOUND('',#136,.T.);
#112=FACE_OUTER_BOUND('',#139,.T.);
#113=FACE_OUTER_BOUND('',#140,.T.);
#114=FACE_OUTER_BOUND('',#141,.T.);
#115=FACE_OUTER_BOUND('',#142,.T.);
#116=FACE_OUTER_BOUND('',#143,.T.);
#117=FACE_OUTER_BOUND('',#144,.T.);
#118=FACE_OUTER_BOUND('',#148,.T.);
#119=FACE_OUTER_BOUND('',#149,.T.);
#120=FACE_OUTER_BOUND('',#150,.T.);
#121=FACE_OUTER_BOUND('',#151,.T.);
#122=FACE_OUTER_BOUND('',#152,.T.);
#123=FACE_OUTER_BOUND('',#153,.T.);
#124=FACE_OUTER_BOUND('',#154,.T.);
#125=FACE_OUTER_BOUND('',#155,.T.);
#126=FACE_OUTER_BOUND('',#156,.T.);
#127=FACE_OUTER_BOUND('',#159,.T.);
#128=FACE_OUTER_BOUND('',#164,.T.);
#129=FACE_OUTER_BOUND('',#167,.T.);
#130=EDGE_LOOP('',(#260,#261,#262,#263));
#131=EDGE_LOOP('',(#264));
#132=EDGE_LOOP('',(#265,#266,#267,#268,#269,#270,#271,#272,#273,#274));
#133=EDGE_LOOP('',(#275,#276,#277,#278,#279,#280,#281));
#134=EDGE_LOOP('',(#282,#283,#284,#285,#286,#287));
#135=EDGE_LOOP('',(#288,#289,#290,#291,#292,#293));
#136=EDGE_LOOP('',(#294,#295,#296,#297));
#137=EDGE_LOOP('',(#298));
#138=EDGE_LOOP('',(#299,#300,#301,#302));
#139=EDGE_LOOP('',(#303,#304,#305,#306,#307,#308,#309));
#140=EDGE_LOOP('',(#310,#311,#312,#313));
#141=EDGE_LOOP('',(#314,#315,#316,#317));
#142=EDGE_LOOP('',(#318,#319,#320,#321));
#143=EDGE_LOOP('',(#322,#323,#324,#325));
#144=EDGE_LOOP('',(#326,#327,#328,#329));
#145=EDGE_LOOP('',(#330));
#146=EDGE_LOOP('',(#331));
#147=EDGE_LOOP('',(#332,#333,#334,#335,#336,#337,#338,#339,#340,#341));
#148=EDGE_LOOP('',(#342,#343,#344,#345));
#149=EDGE_LOOP('',(#346,#347,#348,#349));
#150=EDGE_LOOP('',(#350,#351,#352,#353));
#151=EDGE_LOOP('',(#354,#355,#356,#357));
#152=EDGE_LOOP('',(#358,#359,#360,#361));
#153=EDGE_LOOP('',(#362,#363,#364,#365,#366));
#154=EDGE_LOOP('',(#367,#368,#369,#370));
#155=EDGE_LOOP('',(#371,#372,#373,#374,#375));
#156=EDGE_LOOP('',(#376,#377,#378,#379));
#157=EDGE_LOOP('',(#380));
#158=EDGE_LOOP('',(#381,#382,#383,#384));
#159=EDGE_LOOP('',(#385));
#160=EDGE_LOOP('',(#386));
#161=EDGE_LOOP('',(#387));
#162=EDGE_LOOP('',(#388));
#163=EDGE_LOOP('',(#389));
#164=EDGE_LOOP('',(#390));
#165=EDGE_LOOP('',(#391));
#166=EDGE_LOOP('',(#392));
#167=EDGE_LOOP('',(#393));
#168=LINE('',#732,#214);
#169=LINE('',#736,#215);
#170=LINE('',#744,#216);
#171=LINE('',#748,#217);
#172=LINE('',#752,#218);
#173=LINE('',#756,#219);
#174=LINE('',#757,#220);
#175=LINE('',#762,#221);
#176=LINE('',#764,#222);
#177=LINE('',#766,#223);
#178=LINE('',#768,#224);
#179=LINE('',#770,#225);
#180=LINE('',#772,#226);
#181=LINE('',#775,#227);
#182=LINE('',#777,#228);
#183=LINE('',#779,#229);
#184=LINE('',#781,#230);
#185=LINE('',#783,#231);
#186=LINE('',#785,#232);
#187=LINE('',#787,#233);
#188=LINE('',#789,#234);
#189=LINE('',#790,#235);
#190=LINE('',#792,#236);
#191=LINE('',#794,#237);
#192=LINE('',#796,#238);
#193=LINE('',#800,#239);
#194=LINE('',#802,#240);
#195=LINE('',#804,#241);
#196=LINE('',#805,#242);
#197=LINE('',#807,#243);
#198=LINE('',#810,#244);
#199=LINE('',#812,#245);
#200=LINE('',#814,#246);
#201=LINE('',#816,#247);
#202=LINE('',#819,#248);
#203=LINE('',#820,#249);
#204=LINE('',#822,#250);
#205=LINE('',#824,#251);
#206=LINE('',#826,#252);
#207=LINE('',#835,#253);
#208=LINE('',#841,#254);
#209=LINE('',#845,#255);
#210=LINE('',#848,#256);
#211=LINE('',#850,#257);
#212=LINE('',#852,#258);
#213=LINE('',#854,#259);
#214=VECTOR('',#584,1.);
#215=VECTOR('',#587,1.);
#216=VECTOR('',#596,1.);
#217=VECTOR('',#599,1.);
#218=VECTOR('',#602,1.);
#219=VECTOR('',#605,1.);
#220=VECTOR('',#606,1.);
#221=VECTOR('',#609,1.);
#222=VECTOR('',#610,1.);
#223=VECTOR('',#611,1.);
#224=VECTOR('',#612,1.);
#225=VECTOR('',#613,1.);
#226=VECTOR('',#616,1.);
#227=VECTOR('',#617,1.);
#228=VECTOR('',#618,1.);
#229=VECTOR('',#619,1.);
#230=VECTOR('',#620,1.);
#231=VECTOR('',#621,1.);
#232=VECTOR('',#624,1.);
#233=VECTOR('',#625,1.);
#234=VECTOR('',#626,1.);
#235=VECTOR('',#627,1.);
#236=VECTOR('',#630,1.);
#237=VECTOR('',#631,1.);
#238=VECTOR('',#632,1.);
#239=VECTOR('',#637,1.);
#240=VECTOR('',#640,1.);
#241=VECTOR('',#641,1.);
#242=VECTOR('',#642,1.);
#243=VECTOR('',#645,1.);
#244=VECTOR('',#650,1.);
#245=VECTOR('',#651,1.);
#246=VECTOR('',#652,1.);
#247=VECTOR('',#655,1.);
#248=VECTOR('',#656,1.);
#249=VECTOR('',#657,1.);
#250=VECTOR('',#660,1.);
#251=VECTOR('',#661,1.);
#252=VECTOR('',#662,1.);
#253=VECTOR('',#673,1.);
#254=VECTOR('',#682,1.);
#255=VECTOR('',#689,1.);
#256=VECTOR('',#694,1.);
#257=VECTOR('',#695,1.);
#258=VECTOR('',#698,1.);
#259=VECTOR('',#699,1.);
#260=ORIENTED_EDGE('',*,*,#441,.F.);
#261=ORIENTED_EDGE('',*,*,#442,.T.);
#262=ORIENTED_EDGE('',*,*,#443,.F.);
#263=ORIENTED_EDGE('',*,*,#444,.F.);
#264=ORIENTED_EDGE('',*,*,#445,.F.);
#265=ORIENTED_EDGE('',*,*,#446,.F.);
#266=ORIENTED_EDGE('',*,*,#447,.T.);
#267=ORIENTED_EDGE('',*,*,#448,.F.);
#268=ORIENTED_EDGE('',*,*,#449,.T.);
#269=ORIENTED_EDGE('',*,*,#450,.F.);
#270=ORIENTED_EDGE('',*,*,#451,.T.);
#271=ORIENTED_EDGE('',*,*,#452,.F.);
#272=ORIENTED_EDGE('',*,*,#453,.T.);
#273=ORIENTED_EDGE('',*,*,#454,.F.);
#274=ORIENTED_EDGE('',*,*,#443,.T.);
#275=ORIENTED_EDGE('',*,*,#455,.F.);
#276=ORIENTED_EDGE('',*,*,#456,.T.);
#277=ORIENTED_EDGE('',*,*,#457,.F.);
#278=ORIENTED_EDGE('',*,*,#458,.F.);
#279=ORIENTED_EDGE('',*,*,#459,.T.);
#280=ORIENTED_EDGE('',*,*,#460,.F.);
#281=ORIENTED_EDGE('',*,*,#461,.T.);
#282=ORIENTED_EDGE('',*,*,#462,.T.);
#283=ORIENTED_EDGE('',*,*,#463,.T.);
#284=ORIENTED_EDGE('',*,*,#464,.F.);
#285=ORIENTED_EDGE('',*,*,#465,.T.);
#286=ORIENTED_EDGE('',*,*,#466,.T.);
#287=ORIENTED_EDGE('',*,*,#467,.F.);
#288=ORIENTED_EDGE('',*,*,#460,.T.);
#289=ORIENTED_EDGE('',*,*,#468,.T.);
#290=ORIENTED_EDGE('',*,*,#469,.F.);
#291=ORIENTED_EDGE('',*,*,#470,.T.);
#292=ORIENTED_EDGE('',*,*,#464,.T.);
#293=ORIENTED_EDGE('',*,*,#471,.T.);
#294=ORIENTED_EDGE('',*,*,#469,.T.);
#295=ORIENTED_EDGE('',*,*,#472,.T.);
#296=ORIENTED_EDGE('',*,*,#473,.F.);
#297=ORIENTED_EDGE('',*,*,#474,.T.);
#298=ORIENTED_EDGE('',*,*,#475,.F.);
#299=ORIENTED_EDGE('',*,*,#476,.F.);
#300=ORIENTED_EDGE('',*,*,#465,.F.);
#301=ORIENTED_EDGE('',*,*,#470,.F.);
#302=ORIENTED_EDGE('',*,*,#474,.F.);
#303=ORIENTED_EDGE('',*,*,#477,.F.);
#304=ORIENTED_EDGE('',*,*,#478,.F.);
#305=ORIENTED_EDGE('',*,*,#466,.F.);
#306=ORIENTED_EDGE('',*,*,#476,.T.);
#307=ORIENTED_EDGE('',*,*,#473,.T.);
#308=ORIENTED_EDGE('',*,*,#479,.T.);
#309=ORIENTED_EDGE('',*,*,#458,.T.);
#310=ORIENTED_EDGE('',*,*,#480,.F.);
#311=ORIENTED_EDGE('',*,*,#461,.F.);
#312=ORIENTED_EDGE('',*,*,#471,.F.);
#313=ORIENTED_EDGE('',*,*,#463,.F.);
#314=ORIENTED_EDGE('',*,*,#468,.F.);
#315=ORIENTED_EDGE('',*,*,#459,.F.);
#316=ORIENTED_EDGE('',*,*,#479,.F.);
#317=ORIENTED_EDGE('',*,*,#472,.F.);
#318=ORIENTED_EDGE('',*,*,#448,.T.);
#319=ORIENTED_EDGE('',*,*,#481,.T.);
#320=ORIENTED_EDGE('',*,*,#482,.T.);
#321=ORIENTED_EDGE('',*,*,#483,.T.);
#322=ORIENTED_EDGE('',*,*,#484,.T.);
#323=ORIENTED_EDGE('',*,*,#485,.T.);
#324=ORIENTED_EDGE('',*,*,#450,.T.);
#325=ORIENTED_EDGE('',*,*,#486,.T.);
#326=ORIENTED_EDGE('',*,*,#452,.T.);
#327=ORIENTED_EDGE('',*,*,#487,.T.);
#328=ORIENTED_EDGE('',*,*,#488,.T.);
#329=ORIENTED_EDGE('',*,*,#489,.T.);
#330=ORIENTED_EDGE('',*,*,#490,.T.);
#331=ORIENTED_EDGE('',*,*,#491,.T.);
#332=ORIENTED_EDGE('',*,*,#492,.T.);
#333=ORIENTED_EDGE('',*,*,#493,.T.);
#334=ORIENTED_EDGE('',*,*,#441,.T.);
#335=ORIENTED_EDGE('',*,*,#494,.F.);
#336=ORIENTED_EDGE('',*,*,#495,.T.);
#337=ORIENTED_EDGE('',*,*,#488,.F.);
#338=ORIENTED_EDGE('',*,*,#496,.T.);
#339=ORIENTED_EDGE('',*,*,#484,.F.);
#340=ORIENTED_EDGE('',*,*,#497,.T.);
#341=ORIENTED_EDGE('',*,*,#482,.F.);
#342=ORIENTED_EDGE('',*,*,#454,.T.);
#343=ORIENTED_EDGE('',*,*,#498,.T.);
#344=ORIENTED_EDGE('',*,*,#494,.T.);
#345=ORIENTED_EDGE('',*,*,#444,.T.);
#346=ORIENTED_EDGE('',*,*,#451,.F.);
#347=ORIENTED_EDGE('',*,*,#485,.F.);
#348=ORIENTED_EDGE('',*,*,#496,.F.);
#349=ORIENTED_EDGE('',*,*,#487,.F.);
#350=ORIENTED_EDGE('',*,*,#453,.F.);
#351=ORIENTED_EDGE('',*,*,#489,.F.);
#352=ORIENTED_EDGE('',*,*,#495,.F.);
#353=ORIENTED_EDGE('',*,*,#498,.F.);
#354=ORIENTED_EDGE('',*,*,#447,.F.);
#355=ORIENTED_EDGE('',*,*,#499,.T.);
#356=ORIENTED_EDGE('',*,*,#492,.F.);
#357=ORIENTED_EDGE('',*,*,#481,.F.);
#358=ORIENTED_EDGE('',*,*,#449,.F.);
#359=ORIENTED_EDGE('',*,*,#483,.F.);
#360=ORIENTED_EDGE('',*,*,#497,.F.);
#361=ORIENTED_EDGE('',*,*,#486,.F.);
#362=ORIENTED_EDGE('',*,*,#500,.T.);
#363=ORIENTED_EDGE('',*,*,#501,.T.);
#364=ORIENTED_EDGE('',*,*,#455,.T.);
#365=ORIENTED_EDGE('',*,*,#480,.T.);
#366=ORIENTED_EDGE('',*,*,#462,.F.);
#367=ORIENTED_EDGE('',*,*,#457,.T.);
#368=ORIENTED_EDGE('',*,*,#502,.T.);
#369=ORIENTED_EDGE('',*,*,#503,.T.);
#370=ORIENTED_EDGE('',*,*,#477,.T.);
#371=ORIENTED_EDGE('',*,*,#503,.F.);
#372=ORIENTED_EDGE('',*,*,#504,.T.);
#373=ORIENTED_EDGE('',*,*,#500,.F.);
#374=ORIENTED_EDGE('',*,*,#467,.T.);
#375=ORIENTED_EDGE('',*,*,#478,.T.);
#376=ORIENTED_EDGE('',*,*,#456,.F.);
#377=ORIENTED_EDGE('',*,*,#501,.F.);
#378=ORIENTED_EDGE('',*,*,#504,.F.);
#379=ORIENTED_EDGE('',*,*,#502,.F.);
#380=ORIENTED_EDGE('',*,*,#505,.T.);
#381=ORIENTED_EDGE('',*,*,#493,.F.);
#382=ORIENTED_EDGE('',*,*,#499,.F.);
#383=ORIENTED_EDGE('',*,*,#446,.T.);
#384=ORIENTED_EDGE('',*,*,#442,.F.);
#385=ORIENTED_EDGE('',*,*,#505,.F.);
#386=ORIENTED_EDGE('',*,*,#445,.T.);
#387=ORIENTED_EDGE('',*,*,#475,.T.);
#388=ORIENTED_EDGE('',*,*,#506,.T.);
#389=ORIENTED_EDGE('',*,*,#491,.F.);
#390=ORIENTED_EDGE('',*,*,#506,.F.);
#391=ORIENTED_EDGE('',*,*,#507,.T.);
#392=ORIENTED_EDGE('',*,*,#490,.F.);
#393=ORIENTED_EDGE('',*,*,#507,.F.);
#394=VERTEX_POINT('',#730);
#395=VERTEX_POINT('',#731);
#396=VERTEX_POINT('',#733);
#397=VERTEX_POINT('',#735);
#398=VERTEX_POINT('',#739);
#399=VERTEX_POINT('',#741);
#400=VERTEX_POINT('',#743);
#401=VERTEX_POINT('',#745);
#402=VERTEX_POINT('',#747);
#403=VERTEX_POINT('',#749);
#404=VERTEX_POINT('',#751);
#405=VERTEX_POINT('',#753);
#406=VERTEX_POINT('',#755);
#407=VERTEX_POINT('',#758);
#408=VERTEX_POINT('',#759);
#409=VERTEX_POINT('',#761);
#410=VERTEX_POINT('',#763);
#411=VERTEX_POINT('',#765);
#412=VERTEX_POINT('',#767);
#413=VERTEX_POINT('',#769);
#414=VERTEX_POINT('',#773);
#415=VERTEX_POINT('',#774);
#416=VERTEX_POINT('',#776);
#417=VERTEX_POINT('',#778);
#418=VERTEX_POINT('',#780);
#419=VERTEX_POINT('',#782);
#420=VERTEX_POINT('',#786);
#421=VERTEX_POINT('',#788);
#422=VERTEX_POINT('',#793);
#423=VERTEX_POINT('',#795);
#424=VERTEX_POINT('',#799);
#425=VERTEX_POINT('',#803);
#426=VERTEX_POINT('',#811);
#427=VERTEX_POINT('',#813);
#428=VERTEX_POINT('',#817);
#429=VERTEX_POINT('',#818);
#430=VERTEX_POINT('',#823);
#431=VERTEX_POINT('',#825);
#432=VERTEX_POINT('',#829);
#433=VERTEX_POINT('',#831);
#434=VERTEX_POINT('',#833);
#435=VERTEX_POINT('',#836);
#436=VERTEX_POINT('',#849);
#437=VERTEX_POINT('',#853);
#438=VERTEX_POINT('',#860);
#439=VERTEX_POINT('',#865);
#440=VERTEX_POINT('',#869);
#441=EDGE_CURVE('',#394,#395,#508,.T.);
#442=EDGE_CURVE('',#394,#396,#168,.T.);
#443=EDGE_CURVE('',#397,#396,#509,.T.);
#444=EDGE_CURVE('',#395,#397,#169,.T.);
#445=EDGE_CURVE('',#398,#398,#510,.T.);
#446=EDGE_CURVE('',#399,#396,#511,.T.);
#447=EDGE_CURVE('',#399,#400,#512,.T.);
#448=EDGE_CURVE('',#401,#400,#170,.T.);
#449=EDGE_CURVE('',#401,#402,#513,.T.);
#450=EDGE_CURVE('',#403,#402,#171,.T.);
#451=EDGE_CURVE('',#403,#404,#514,.T.);
#452=EDGE_CURVE('',#405,#404,#172,.T.);
#453=EDGE_CURVE('',#405,#406,#515,.T.);
#454=EDGE_CURVE('',#397,#406,#173,.T.);
#455=EDGE_CURVE('',#407,#408,#174,.T.);
#456=EDGE_CURVE('',#407,#409,#516,.T.);
#457=EDGE_CURVE('',#410,#409,#175,.T.);
#458=EDGE_CURVE('',#411,#410,#176,.T.);
#459=EDGE_CURVE('',#411,#412,#177,.T.);
#460=EDGE_CURVE('',#413,#412,#178,.T.);
#461=EDGE_CURVE('',#413,#408,#179,.T.);
#462=EDGE_CURVE('',#414,#415,#180,.T.);
#463=EDGE_CURVE('',#415,#416,#181,.T.);
#464=EDGE_CURVE('',#417,#416,#182,.T.);
#465=EDGE_CURVE('',#417,#418,#183,.T.);
#466=EDGE_CURVE('',#418,#419,#184,.T.);
#467=EDGE_CURVE('',#414,#419,#185,.T.);
#468=EDGE_CURVE('',#412,#420,#186,.T.);
#469=EDGE_CURVE('',#421,#420,#187,.T.);
#470=EDGE_CURVE('',#421,#417,#188,.T.);
#471=EDGE_CURVE('',#416,#413,#189,.T.);
#472=EDGE_CURVE('',#420,#422,#190,.T.);
#473=EDGE_CURVE('',#423,#422,#191,.T.);
#474=EDGE_CURVE('',#423,#421,#192,.T.);
#475=EDGE_CURVE('',#424,#424,#517,.T.);
#476=EDGE_CURVE('',#418,#423,#193,.T.);
#477=EDGE_CURVE('',#425,#410,#194,.T.);
#478=EDGE_CURVE('',#419,#425,#195,.T.);
#479=EDGE_CURVE('',#422,#411,#196,.T.);
#480=EDGE_CURVE('',#408,#415,#197,.T.);
#481=EDGE_CURVE('',#400,#426,#198,.T.);
#482=EDGE_CURVE('',#426,#427,#199,.T.);
#483=EDGE_CURVE('',#427,#401,#200,.T.);
#484=EDGE_CURVE('',#428,#429,#201,.T.);
#485=EDGE_CURVE('',#429,#403,#202,.T.);
#486=EDGE_CURVE('',#402,#428,#203,.T.);
#487=EDGE_CURVE('',#404,#430,#204,.T.);
#488=EDGE_CURVE('',#430,#431,#205,.T.);
#489=EDGE_CURVE('',#431,#405,#206,.T.);
#490=EDGE_CURVE('',#432,#432,#518,.T.);
#491=EDGE_CURVE('',#433,#433,#519,.T.);
#492=EDGE_CURVE('',#426,#434,#520,.T.);
#493=EDGE_CURVE('',#434,#394,#521,.T.);
#494=EDGE_CURVE('',#435,#395,#207,.T.);
#495=EDGE_CURVE('',#435,#431,#522,.T.);
#496=EDGE_CURVE('',#430,#429,#523,.T.);
#497=EDGE_CURVE('',#428,#427,#524,.T.);
#498=EDGE_CURVE('',#406,#435,#208,.T.);
#499=EDGE_CURVE('',#399,#434,#209,.T.);
#500=EDGE_CURVE('',#414,#436,#210,.T.);
#501=EDGE_CURVE('',#436,#407,#211,.T.);
#502=EDGE_CURVE('',#409,#437,#212,.T.);
#503=EDGE_CURVE('',#437,#425,#213,.T.);
#504=EDGE_CURVE('',#437,#436,#525,.T.);
#505=EDGE_CURVE('',#438,#438,#526,.T.);
#506=EDGE_CURVE('',#439,#439,#527,.T.);
#507=EDGE_CURVE('',#440,#440,#528,.T.);
#508=CIRCLE('',#530,13.7);
#509=CIRCLE('',#531,13.7);
#510=CIRCLE('',#533,12.25);
#511=CIRCLE('',#534,6.65);
#512=CIRCLE('',#535,13.7);
#513=CIRCLE('',#536,13.7);
#514=CIRCLE('',#537,13.7);
#515=CIRCLE('',#538,13.7);
#516=CIRCLE('',#539,7.8);
#517=CIRCLE('',#544,12.25);
#518=CIRCLE('',#552,3.35);
#519=CIRCLE('',#553,9.15);
#520=CIRCLE('',#554,13.7);
#521=CIRCLE('',#555,6.65);
#522=CIRCLE('',#556,13.7);
#523=CIRCLE('',#557,13.7);
#524=CIRCLE('',#558,13.7);
#525=CIRCLE('',#567,7.8);
#526=CIRCLE('',#570,6.65);
#527=CIRCLE('',#574,9.15);
#528=CIRCLE('',#577,3.35);
#529=AXIS2_PLACEMENT_3D('',#728,#580,#581);
#530=AXIS2_PLACEMENT_3D('',#729,#582,#583);
#531=AXIS2_PLACEMENT_3D('',#734,#585,#586);
#532=AXIS2_PLACEMENT_3D('',#737,#588,#589);
#533=AXIS2_PLACEMENT_3D('',#738,#590,#591);
#534=AXIS2_PLACEMENT_3D('',#740,#592,#593);
#535=AXIS2_PLACEMENT_3D('',#742,#594,#595);
#536=AXIS2_PLACEMENT_3D('',#746,#597,#598);
#537=AXIS2_PLACEMENT_3D('',#750,#600,#601);
#538=AXIS2_PLACEMENT_3D('',#754,#603,#604);
#539=AXIS2_PLACEMENT_3D('',#760,#607,#608);
#540=AXIS2_PLACEMENT_3D('',#771,#614,#615);
#541=AXIS2_PLACEMENT_3D('',#784,#622,#623);
#542=AXIS2_PLACEMENT_3D('',#791,#628,#629);
#543=AXIS2_PLACEMENT_3D('',#797,#633,#634);
#544=AXIS2_PLACEMENT_3D('',#798,#635,#636);
#545=AXIS2_PLACEMENT_3D('',#801,#638,#639);
#546=AXIS2_PLACEMENT_3D('',#806,#643,#644);
#547=AXIS2_PLACEMENT_3D('',#808,#646,#647);
#548=AXIS2_PLACEMENT_3D('',#809,#648,#649);
#549=AXIS2_PLACEMENT_3D('',#815,#653,#654);
#550=AXIS2_PLACEMENT_3D('',#821,#658,#659);
#551=AXIS2_PLACEMENT_3D('',#827,#663,#664);
#552=AXIS2_PLACEMENT_3D('',#828,#665,#666);
#553=AXIS2_PLACEMENT_3D('',#830,#667,#668);
#554=AXIS2_PLACEMENT_3D('',#832,#669,#670);
#555=AXIS2_PLACEMENT_3D('',#834,#671,#672);
#556=AXIS2_PLACEMENT_3D('',#837,#674,#675);
#557=AXIS2_PLACEMENT_3D('',#838,#676,#677);
#558=AXIS2_PLACEMENT_3D('',#839,#678,#679);
#559=AXIS2_PLACEMENT_3D('',#840,#680,#681);
#560=AXIS2_PLACEMENT_3D('',#842,#683,#684);
#561=AXIS2_PLACEMENT_3D('',#843,#685,#686);
#562=AXIS2_PLACEMENT_3D('',#844,#687,#688);
#563=AXIS2_PLACEMENT_3D('',#846,#690,#691);
#564=AXIS2_PLACEMENT_3D('',#847,#692,#693);
#565=AXIS2_PLACEMENT_3D('',#851,#696,#697);
#566=AXIS2_PLACEMENT_3D('',#855,#700,#701);
#567=AXIS2_PLACEMENT_3D('',#856,#702,#703);
#568=AXIS2_PLACEMENT_3D('',#857,#704,#705);
#569=AXIS2_PLACEMENT_3D('',#858,#706,#707);
#570=AXIS2_PLACEMENT_3D('',#859,#708,#709);
#571=AXIS2_PLACEMENT_3D('',#861,#710,#711);
#572=AXIS2_PLACEMENT_3D('',#862,#712,#713);
#573=AXIS2_PLACEMENT_3D('',#863,#714,#715);
#574=AXIS2_PLACEMENT_3D('',#864,#716,#717);
#575=AXIS2_PLACEMENT_3D('',#866,#718,#719);
#576=AXIS2_PLACEMENT_3D('',#867,#720,#721);
#577=AXIS2_PLACEMENT_3D('',#868,#722,#723);
#578=AXIS2_PLACEMENT_3D('',#870,#724,#725);
#579=AXIS2_PLACEMENT_3D('',#871,#726,#727);
#580=DIRECTION('',(0.,0.,1.));
#581=DIRECTION('',(1.,0.,0.));
#582=DIRECTION('',(0.,0.,1.));
#583=DIRECTION('',(-0.999999999999999,0.,0.));
#584=DIRECTION('',(0.,0.,1.));
#585=DIRECTION('',(0.,0.,-1.));
#586=DIRECTION('',(0.999999999999999,0.,0.));
#587=DIRECTION('',(0.,0.,1.));
#588=DIRECTION('',(0.,0.,1.));
#589=DIRECTION('',(0.999999999999999,0.,0.));
#590=DIRECTION('',(0.,0.,1.));
#591=DIRECTION('',(1.,0.,0.));
#592=DIRECTION('',(0.,0.,1.));
#593=DIRECTION('',(0.999999999999998,0.,0.));
#594=DIRECTION('',(0.,0.,-1.));
#595=DIRECTION('',(0.999999999999999,0.,0.));
#596=DIRECTION('',(1.,0.,0.));
#597=DIRECTION('',(0.,0.,-1.));
#598=DIRECTION('',(1.,0.,0.));
#599=DIRECTION('',(0.,-1.,0.));
#600=DIRECTION('',(0.,0.,-1.));
#601=DIRECTION('',(1.,0.,0.));
#602=DIRECTION('',(-1.,0.,0.));
#603=DIRECTION('',(0.,0.,-1.));
#604=DIRECTION('',(0.999999999999999,0.,0.));
#605=DIRECTION('',(0.,1.,0.));
#606=DIRECTION('',(0.,-1.,0.));
#607=DIRECTION('',(0.,0.,-1.));
#608=DIRECTION('',(1.,0.,0.));
#609=DIRECTION('',(-1.,0.,0.));
#610=DIRECTION('',(0.,-1.,0.));
#611=DIRECTION('',(-1.,0.,0.));
#612=DIRECTION('',(0.,1.,0.));
#613=DIRECTION('',(1.,0.,0.));
#614=DIRECTION('',(0.,0.,1.));
#615=DIRECTION('',(1.,0.,0.));
#616=DIRECTION('',(0.,0.,1.));
#617=DIRECTION('',(-1.,0.,0.));
#618=DIRECTION('',(0.,0.,1.));
#619=DIRECTION('',(1.,0.,0.));
#620=DIRECTION('',(0.,0.,1.));
#621=DIRECTION('',(1.,0.,0.));
#622=DIRECTION('',(0.,-1.,0.));
#623=DIRECTION('',(0.,0.,-1.));
#624=DIRECTION('',(0.,0.707106781186548,-0.707106781186548));
#625=DIRECTION('',(0.,0.,1.));
#626=DIRECTION('',(0.,-1.,0.));
#627=DIRECTION('',(0.,0.707106781186548,0.707106781186547));
#628=DIRECTION('',(-1.,0.,0.));
#629=DIRECTION('',(0.,0.,1.));
#630=DIRECTION('',(1.,0.,0.));
#631=DIRECTION('',(0.,0.,1.));
#632=DIRECTION('',(-1.,0.,0.));
#633=DIRECTION('',(0.,1.,0.));
#634=DIRECTION('',(0.,0.,1.));
#635=DIRECTION('',(0.,0.,-1.));
#636=DIRECTION('',(-1.,0.,0.));
#637=DIRECTION('',(0.,1.,0.));
#638=DIRECTION('',(0.,0.,-1.));
#639=DIRECTION('',(-1.,0.,0.));
#640=DIRECTION('',(0.,0.,1.));
#641=DIRECTION('',(0.,1.,0.));
#642=DIRECTION('',(0.,-0.707106781186548,0.707106781186548));
#643=DIRECTION('',(1.,0.,0.));
#644=DIRECTION('',(0.,0.,-1.));
#645=DIRECTION('',(0.,-0.707106781186548,-0.707106781186547));
#646=DIRECTION('',(0.,0.707106781186547,-0.707106781186548));
#647=DIRECTION('',(-1.,0.,0.));
#648=DIRECTION('',(0.,-0.707106781186548,-0.707106781186548));
#649=DIRECTION('',(1.,0.,0.));
#650=DIRECTION('',(0.,0.,-1.));
#651=DIRECTION('',(-1.,0.,0.));
#652=DIRECTION('',(0.,0.,1.));
#653=DIRECTION('',(0.,-1.,0.));
#654=DIRECTION('',(0.,0.,-1.));
#655=DIRECTION('',(0.,1.,0.));
#656=DIRECTION('',(0.,0.,1.));
#657=DIRECTION('',(0.,0.,-1.));
#658=DIRECTION('',(-1.,0.,0.));
#659=DIRECTION('',(0.,0.,1.));
#660=DIRECTION('',(0.,0.,-1.));
#661=DIRECTION('',(1.,0.,0.));
#662=DIRECTION('',(0.,0.,1.));
#663=DIRECTION('',(0.,1.,0.));
#664=DIRECTION('',(0.,0.,1.));
#665=DIRECTION('',(0.,0.,-1.));
#666=DIRECTION('',(-0.999999999999998,0.,0.));
#667=DIRECTION('',(0.,0.,-1.));
#668=DIRECTION('',(-1.,0.,0.));
#669=DIRECTION('',(0.,0.,1.));
#670=DIRECTION('',(-0.999999999999999,0.,0.));
#671=DIRECTION('',(0.,0.,-1.));
#672=DIRECTION('',(-0.999999999999998,0.,0.));
#673=DIRECTION('',(0.,-1.,0.));
#674=DIRECTION('',(0.,0.,1.));
#675=DIRECTION('',(-0.999999999999999,0.,0.));
#676=DIRECTION('',(0.,0.,1.));
#677=DIRECTION('',(-1.,0.,0.));
#678=DIRECTION('',(0.,0.,1.));
#679=DIRECTION('',(-1.,0.,0.));
#680=DIRECTION('',(0.,0.,-1.));
#681=DIRECTION('',(-1.,0.,0.));
#682=DIRECTION('',(0.,0.,-1.));
#683=DIRECTION('',(1.,0.,0.));
#684=DIRECTION('',(0.,0.,-1.));
#685=DIRECTION('',(0.,0.,1.));
#686=DIRECTION('',(1.,0.,0.));
#687=DIRECTION('',(0.,0.,1.));
#688=DIRECTION('',(0.999999999999999,0.,0.));
#689=DIRECTION('',(0.,0.,-1.));
#690=DIRECTION('',(0.,0.,1.));
#691=DIRECTION('',(0.999999999999999,0.,0.));
#692=DIRECTION('',(0.,0.,1.));
#693=DIRECTION('',(1.,0.,0.));
#694=DIRECTION('',(0.,1.,0.));
#695=DIRECTION('',(0.,0.,1.));
#696=DIRECTION('',(-1.,0.,0.));
#697=DIRECTION('',(0.,0.,1.));
#698=DIRECTION('',(0.,0.,-1.));
#699=DIRECTION('',(1.,0.,0.));
#700=DIRECTION('',(0.,1.,0.));
#701=DIRECTION('',(0.,0.,1.));
#702=DIRECTION('',(0.,0.,1.));
#703=DIRECTION('',(-1.,0.,0.));
#704=DIRECTION('',(0.,0.,-1.));
#705=DIRECTION('',(-1.,0.,0.));
#706=DIRECTION('',(0.,0.,1.));
#707=DIRECTION('',(1.,0.,0.));
#708=DIRECTION('',(0.,0.,-1.));
#709=DIRECTION('',(0.999999999999998,0.,0.));
#710=DIRECTION('',(0.,0.,-1.));
#711=DIRECTION('',(0.999999999999998,0.,0.));
#712=DIRECTION('',(0.,0.,-1.));
#713=DIRECTION('',(-1.,0.,0.));
#714=DIRECTION('',(0.,0.,-1.));
#715=DIRECTION('',(1.,0.,0.));
#716=DIRECTION('',(0.,0.,-1.));
#717=DIRECTION('',(0.999999999999999,0.,0.));
#718=DIRECTION('',(0.,0.,-1.));
#719=DIRECTION('',(0.999999999999999,0.,0.));
#720=DIRECTION('',(0.,0.,-1.));
#721=DIRECTION('',(-1.,0.,0.));
#722=DIRECTION('',(0.,0.,-1.));
#723=DIRECTION('',(0.999999999999998,0.,0.));
#724=DIRECTION('',(0.,0.,-1.));
#725=DIRECTION('',(0.999999999999998,0.,0.));
#726=DIRECTION('',(0.,0.,-1.));
#727=DIRECTION('',(-1.,0.,0.));
#728=CARTESIAN_POINT('',(0.,0.,0.));
#729=CARTESIAN_POINT('',(155.1,106.2,88.1));
#730=CARTESIAN_POINT('',(166.841536433425,99.1412237475215,88.1));
#731=CARTESIAN_POINT('',(168.8,106.2,88.1));
#732=CARTESIAN_POINT('',(166.841536433425,99.1412237475215,93.125));
#733=CARTESIAN_POINT('',(166.841536433425,99.1412237475215,126.));
#734=CARTESIAN_POINT('',(155.1,106.2,126.));
#735=CARTESIAN_POINT('',(168.8,106.2,126.));
#736=CARTESIAN_POINT('',(168.8,106.2,126.));
#737=CARTESIAN_POINT('',(155.1,106.2,88.1));
#738=CARTESIAN_POINT('',(17.2,68.7,126.));
#739=CARTESIAN_POINT('',(29.45,68.7,126.));
#740=CARTESIAN_POINT('',(166.5,92.5,126.));
#741=CARTESIAN_POINT('',(159.907305058783,93.3711334065789,126.));
#742=CARTESIAN_POINT('',(155.1,106.2,126.));
#743=CARTESIAN_POINT('',(155.1,92.5,126.));
#744=CARTESIAN_POINT('',(127.75,92.5,126.));
#745=CARTESIAN_POINT('',(103.2,92.5,126.));
#746=CARTESIAN_POINT('',(103.2,106.2,126.));
#747=CARTESIAN_POINT('',(89.5,106.2,126.));
#748=CARTESIAN_POINT('',(89.5,152.9,126.));
#749=CARTESIAN_POINT('',(89.5,158.9,126.));
#750=CARTESIAN_POINT('',(103.2,158.9,126.));
#751=CARTESIAN_POINT('',(103.2,172.6,126.));
#752=CARTESIAN_POINT('',(127.75,172.6,126.));
#753=CARTESIAN_POINT('',(155.1,172.6,126.));
#754=CARTESIAN_POINT('',(155.1,158.9,126.));
#755=CARTESIAN_POINT('',(168.8,158.9,126.));
#756=CARTESIAN_POINT('',(168.8,152.9,126.));
#757=CARTESIAN_POINT('',(211.6,152.9,126.));
#758=CARTESIAN_POINT('',(211.6,73.,126.));
#759=CARTESIAN_POINT('',(211.6,10.,126.));
#760=CARTESIAN_POINT('',(219.4,73.,126.));
#761=CARTESIAN_POINT('',(219.4,80.8,126.));
#762=CARTESIAN_POINT('',(127.75,80.8,126.));
#763=CARTESIAN_POINT('',(255.5,80.8,126.));
#764=CARTESIAN_POINT('',(255.5,152.9,126.));
#765=CARTESIAN_POINT('',(255.5,298.3,126.));
#766=CARTESIAN_POINT('',(127.75,298.3,126.));
#767=CARTESIAN_POINT('',(0.,298.3,126.));
#768=CARTESIAN_POINT('',(0.,152.9,126.));
#769=CARTESIAN_POINT('',(0.,10.,126.));
#770=CARTESIAN_POINT('',(127.75,10.,126.));
#771=CARTESIAN_POINT('',(127.75,152.9,126.));
#772=CARTESIAN_POINT('',(211.6,0.,88.1));
#773=CARTESIAN_POINT('',(211.6,0.,88.1));
#774=CARTESIAN_POINT('',(211.6,0.,116.));
#775=CARTESIAN_POINT('',(127.75,0.,116.));
#776=CARTESIAN_POINT('',(0.,0.,116.));
#777=CARTESIAN_POINT('',(0.,0.,0.));
#778=CARTESIAN_POINT('',(0.,0.,0.));
#779=CARTESIAN_POINT('',(127.75,0.,0.));
#780=CARTESIAN_POINT('',(255.5,0.,0.));
#781=CARTESIAN_POINT('',(255.5,0.,0.));
#782=CARTESIAN_POINT('',(255.5,0.,88.1));
#783=CARTESIAN_POINT('',(233.55,0.,88.1));
#784=CARTESIAN_POINT('',(127.75,0.,0.));
#785=CARTESIAN_POINT('',(0.,288.6,135.7));
#786=CARTESIAN_POINT('',(0.,305.8,118.5));
#787=CARTESIAN_POINT('',(0.,305.8,0.));
#788=CARTESIAN_POINT('',(0.,305.8,0.));
#789=CARTESIAN_POINT('',(0.,152.9,0.));
#790=CARTESIAN_POINT('',(0.,18.4500000000001,134.45));
#791=CARTESIAN_POINT('',(0.,152.9,0.));
#792=CARTESIAN_POINT('',(127.75,305.8,118.5));
#793=CARTESIAN_POINT('',(255.5,305.8,118.5));
#794=CARTESIAN_POINT('',(255.5,305.8,0.));
#795=CARTESIAN_POINT('',(255.5,305.8,0.));
#796=CARTESIAN_POINT('',(127.75,305.8,0.));
#797=CARTESIAN_POINT('',(127.75,305.8,0.));
#798=CARTESIAN_POINT('',(17.2,68.7,0.));
#799=CARTESIAN_POINT('',(4.95,68.7,0.));
#800=CARTESIAN_POINT('',(255.5,152.9,0.));
#801=CARTESIAN_POINT('',(127.75,152.9,0.));
#802=CARTESIAN_POINT('',(255.5,80.8,88.1));
#803=CARTESIAN_POINT('',(255.5,80.8,88.1));
#804=CARTESIAN_POINT('',(255.5,40.4,88.1));
#805=CARTESIAN_POINT('',(255.5,288.6,135.7));
#806=CARTESIAN_POINT('',(255.5,152.9,0.));
#807=CARTESIAN_POINT('',(211.6,0.,116.));
#808=CARTESIAN_POINT('',(127.75,0.,116.));
#809=CARTESIAN_POINT('',(127.75,305.8,118.5));
#810=CARTESIAN_POINT('',(155.1,92.5,88.1));
#811=CARTESIAN_POINT('',(155.1,92.5,88.1));
#812=CARTESIAN_POINT('',(129.15,92.5,88.1));
#813=CARTESIAN_POINT('',(103.2,92.5,88.1));
#814=CARTESIAN_POINT('',(103.2,92.5,126.));
#815=CARTESIAN_POINT('',(129.15,92.5,88.1));
#816=CARTESIAN_POINT('',(89.5,132.55,88.1));
#817=CARTESIAN_POINT('',(89.5,106.2,88.1));
#818=CARTESIAN_POINT('',(89.5,158.9,88.1));
#819=CARTESIAN_POINT('',(89.5,158.9,126.));
#820=CARTESIAN_POINT('',(89.5,106.2,88.1));
#821=CARTESIAN_POINT('',(89.5,132.55,88.1));
#822=CARTESIAN_POINT('',(103.2,172.6,88.1));
#823=CARTESIAN_POINT('',(103.2,172.6,88.1));
#824=CARTESIAN_POINT('',(129.15,172.6,88.1));
#825=CARTESIAN_POINT('',(155.1,172.6,88.1));
#826=CARTESIAN_POINT('',(155.1,172.6,126.));
#827=CARTESIAN_POINT('',(129.15,172.6,88.1));
#828=CARTESIAN_POINT('',(129.3,150.7,88.1));
#829=CARTESIAN_POINT('',(125.95,150.7,88.1));
#830=CARTESIAN_POINT('',(131.7,113.3,88.1));
#831=CARTESIAN_POINT('',(122.55,113.3,88.1));
#832=CARTESIAN_POINT('',(155.1,106.2,88.1));
#833=CARTESIAN_POINT('',(159.907305058783,93.3711334065789,88.1));
#834=CARTESIAN_POINT('',(166.5,92.5,88.1));
#835=CARTESIAN_POINT('',(168.8,132.55,88.1));
#836=CARTESIAN_POINT('',(168.8,158.9,88.1));
#837=CARTESIAN_POINT('',(155.1,158.9,88.1));
#838=CARTESIAN_POINT('',(103.2,158.9,88.1));
#839=CARTESIAN_POINT('',(103.2,106.2,88.1));
#840=CARTESIAN_POINT('',(129.15,132.55,88.1));
#841=CARTESIAN_POINT('',(168.8,158.9,88.1));
#842=CARTESIAN_POINT('',(168.8,132.55,88.1));
#843=CARTESIAN_POINT('',(103.2,158.9,88.1));
#844=CARTESIAN_POINT('',(155.1,158.9,88.1));
#845=CARTESIAN_POINT('',(159.907305058783,93.3711334065789,93.125));
#846=CARTESIAN_POINT('',(155.1,106.2,88.1));
#847=CARTESIAN_POINT('',(103.2,106.2,88.1));
#848=CARTESIAN_POINT('',(211.6,40.4,88.1));
#849=CARTESIAN_POINT('',(211.6,73.,88.1));
#850=CARTESIAN_POINT('',(211.6,73.,126.));
#851=CARTESIAN_POINT('',(211.6,40.4,88.1));
#852=CARTESIAN_POINT('',(219.4,80.8,88.1));
#853=CARTESIAN_POINT('',(219.4,80.8,88.1));
#854=CARTESIAN_POINT('',(233.55,80.8,88.1));
#855=CARTESIAN_POINT('',(233.55,80.8,88.1));
#856=CARTESIAN_POINT('',(219.4,73.,88.1));
#857=CARTESIAN_POINT('',(233.55,40.4,88.1));
#858=CARTESIAN_POINT('',(219.4,73.,88.1));
#859=CARTESIAN_POINT('',(166.5,92.5,60.2));
#860=CARTESIAN_POINT('',(173.15,92.5,60.2));
#861=CARTESIAN_POINT('',(166.5,92.5,126.05));
#862=CARTESIAN_POINT('',(166.5,92.5,60.2));
#863=CARTESIAN_POINT('',(17.2,68.7,126.05));
#864=CARTESIAN_POINT('',(131.7,113.3,43.9));
#865=CARTESIAN_POINT('',(140.85,113.3,43.9));
#866=CARTESIAN_POINT('',(131.7,113.3,126.05));
#867=CARTESIAN_POINT('',(131.7,113.3,43.9));
#868=CARTESIAN_POINT('',(129.3,150.7,63.1));
#869=CARTESIAN_POINT('',(132.65,150.7,63.1));
#870=CARTESIAN_POINT('',(129.3,150.7,126.05));
#871=CARTESIAN_POINT('',(129.3,150.7,63.1));
#872=MECHANICAL_DESIGN_GEOMETRIC_PRESENTATION_REPRESENTATION('',(#24),#873);
#873=(
GEOMETRIC_REPRESENTATION_CONTEXT(3)
GLOBAL_UNCERTAINTY_ASSIGNED_CONTEXT((#874))
GLOBAL_UNIT_ASSIGNED_CONTEXT((#880,#876,#875))
REPRESENTATION_CONTEXT('featured_part_05999','TOP_LEVEL_ASSEMBLY_PART')
);
#874=UNCERTAINTY_MEASURE_WITH_UNIT(LENGTH_MEASURE(2.E-5),#880,
'DISTANCE_ACCURACY_VALUE','Maximum Tolerance applied to model');
#875=(
NAMED_UNIT(*)
SI_UNIT($,.STERADIAN.)
SOLID_ANGLE_UNIT()
);
#876=(
CONVERSION_BASED_UNIT('DEGREE',#878)
NAMED_UNIT(#877)
PLANE_ANGLE_UNIT()
);
#877=DIMENSIONAL_EXPONENTS(0.,0.,0.,0.,0.,0.,0.);
#878=PLANE_ANGLE_MEASURE_WITH_UNIT(PLANE_ANGLE_MEASURE(0.0174532925),#879);
#879=(
NAMED_UNIT(*)
PLANE_ANGLE_UNIT()
SI_UNIT($,.RADIAN.)
);
#880=(
LENGTH_UNIT()
NAMED_UNIT(*)
SI_UNIT(.MILLI.,.METRE.)
);
ENDSEC;
END-ISO-10303-21;
