ISO-10303-21;
HEADER;
/* Generated by software containing ST-Developer
 * from STEP Tools, Inc. (www.steptools.com) 
 */
/* OPTION: using custom schema-name function */

FILE_DESCRIPTION(
/* description */ (''),
/* implementation_level */ '2;1');

FILE_NAME(
/* name */ 'featured_part_10333.stp',
/* time_stamp */ '2026-07-12T02:19:22-04:00',
/* author */ (''),
/* organization */ (''),
/* preprocessor_version */ 'ST-DEVELOPER v20.1',
/* originating_system */ 'SIEMENS PLM Software NX2512.6002',
/* authorisation */ '');

FILE_SCHEMA (('AUTOMOTIVE_DESIGN { 1 0 10303 214 3 1 1 1 }'));
ENDSEC;

DATA;
#10=SHAPE_REPRESENTATION_RELATIONSHIP('None',
'relationship between featured_part_10333-None and featured_part_10333
-None',#22,#11);
#11=ADVANCED_BREP_SHAPE_REPRESENTATION('featured_part_10333-None',(#32),
#597);
#12=SHAPE_DEFINITION_REPRESENTATION(#13,#22);
#13=PRODUCT_DEFINITION_SHAPE('','',#14);
#14=PRODUCT_DEFINITION(' ','',#16,#15);
#15=PRODUCT_DEFINITION_CONTEXT('part definition',#21,'design');
#16=PRODUCT_DEFINITION_FORMATION_WITH_SPECIFIED_SOURCE(' ',' ',#18,
 .NOT_KNOWN.);
#17=PRODUCT_RELATED_PRODUCT_CATEGORY('part','',(#18));
#18=PRODUCT('featured_part_10333','featured_part_10333',' ',(#19));
#19=PRODUCT_CONTEXT(' ',#21,'mechanical');
#20=APPLICATION_PROTOCOL_DEFINITION('international standard',
'automotive_design',2010,#21);
#21=APPLICATION_CONTEXT(
'core data for automotive mechanical design processes');
#22=SHAPE_REPRESENTATION('featured_part_10333-None',(#372),#597);
#23=PRESENTATION_LAYER_ASSIGNMENT('1','Layer 1',(#32));
#24=STYLED_ITEM('',(#25),#32);
#25=PRESENTATION_STYLE_ASSIGNMENT((#26));
#26=SURFACE_STYLE_USAGE(.BOTH.,#27);
#27=SURFACE_SIDE_STYLE('',(#28));
#28=SURFACE_STYLE_FILL_AREA(#29);
#29=FILL_AREA_STYLE('',(#30));
#30=FILL_AREA_STYLE_COLOUR('',#31);
#31=COLOUR_RGB('medium steel',0.611764705882353,0.658823529411765,0.670588235294118);
#32=MANIFOLD_SOLID_BREP('',#33);
#33=CLOSED_SHELL('',(#48,#49,#50,#51,#52,#53,#54,#55,#56,#57,#58,#59,#60,
#61,#62,#63,#64,#65,#66));
#34=CYLINDRICAL_SURFACE('',#391,8.5);
#35=CYLINDRICAL_SURFACE('',#392,8.5);
#36=CYLINDRICAL_SURFACE('',#397,3.1);
#37=CYLINDRICAL_SURFACE('',#399,4.45);
#38=CYLINDRICAL_SURFACE('',#401,9.85);
#39=FACE_BOUND('',#100,.T.);
#40=FACE_BOUND('',#101,.T.);
#41=FACE_BOUND('',#105,.T.);
#42=FACE_BOUND('',#106,.T.);
#43=FACE_BOUND('',#107,.T.);
#44=FACE_BOUND('',#115,.T.);
#45=FACE_BOUND('',#116,.T.);
#46=FACE_BOUND('',#118,.T.);
#47=FACE_BOUND('',#119,.T.);
#48=ADVANCED_FACE('',(#81),#67,.T.);
#49=ADVANCED_FACE('',(#82),#68,.T.);
#50=ADVANCED_FACE('',(#83),#69,.T.);
#51=ADVANCED_FACE('',(#84),#70,.T.);
#52=ADVANCED_FACE('',(#39,#40),#71,.T.);
#53=ADVANCED_FACE('',(#85),#72,.T.);
#54=ADVANCED_FACE('',(#86),#73,.F.);
#55=ADVANCED_FACE('',(#87),#74,.F.);
#56=ADVANCED_FACE('',(#41,#42,#43),#75,.F.);
#57=ADVANCED_FACE('',(#88),#76,.F.);
#58=ADVANCED_FACE('',(#89),#34,.F.);
#59=ADVANCED_FACE('',(#90),#35,.F.);
#60=ADVANCED_FACE('',(#91),#77,.F.);
#61=ADVANCED_FACE('',(#92),#78,.F.);
#62=ADVANCED_FACE('',(#93),#79,.F.);
#63=ADVANCED_FACE('',(#94),#36,.F.);
#64=ADVANCED_FACE('',(#44,#45),#37,.F.);
#65=ADVANCED_FACE('',(#95),#80,.F.);
#66=ADVANCED_FACE('',(#46,#47),#38,.F.);
#67=PLANE('',#376);
#68=PLANE('',#377);
#69=PLANE('',#378);
#70=PLANE('',#379);
#71=PLANE('',#381);
#72=PLANE('',#382);
#73=PLANE('',#383);
#74=PLANE('',#384);
#75=PLANE('',#389);
#76=PLANE('',#390);
#77=PLANE('',#393);
#78=PLANE('',#395);
#79=PLANE('',#396);
#80=PLANE('',#400);
#81=FACE_OUTER_BOUND('',#96,.T.);
#82=FACE_OUTER_BOUND('',#97,.T.);
#83=FACE_OUTER_BOUND('',#98,.T.);
#84=FACE_OUTER_BOUND('',#99,.T.);
#85=FACE_OUTER_BOUND('',#102,.T.);
#86=FACE_OUTER_BOUND('',#103,.T.);
#87=FACE_OUTER_BOUND('',#104,.T.);
#88=FACE_OUTER_BOUND('',#108,.T.);
#89=FACE_OUTER_BOUND('',#109,.T.);
#90=FACE_OUTER_BOUND('',#110,.T.);
#91=FACE_OUTER_BOUND('',#111,.T.);
#92=FACE_OUTER_BOUND('',#112,.T.);
#93=FACE_OUTER_BOUND('',#113,.T.);
#94=FACE_OUTER_BOUND('',#114,.T.);
#95=FACE_OUTER_BOUND('',#117,.T.);
#96=EDGE_LOOP('',(#130,#131,#132,#133,#134,#135,#136,#137,#138,#139,#140,
#141,#142));
#97=EDGE_LOOP('',(#143,#144,#145,#146,#147,#148,#149,#150,#151,#152));
#98=EDGE_LOOP('',(#153,#154,#155,#156,#157,#158));
#99=EDGE_LOOP('',(#159,#160,#161,#162));
#100=EDGE_LOOP('',(#163));
#101=EDGE_LOOP('',(#164,#165,#166,#167));
#102=EDGE_LOOP('',(#168,#169,#170,#171));
#103=EDGE_LOOP('',(#172,#173,#174,#175));
#104=EDGE_LOOP('',(#176,#177,#178,#179));
#105=EDGE_LOOP('',(#180));
#106=EDGE_LOOP('',(#181));
#107=EDGE_LOOP('',(#182,#183,#184,#185,#186,#187));
#108=EDGE_LOOP('',(#188,#189,#190,#191));
#109=EDGE_LOOP('',(#192,#193,#194,#195));
#110=EDGE_LOOP('',(#196,#197,#198,#199));
#111=EDGE_LOOP('',(#200,#201,#202,#203));
#112=EDGE_LOOP('',(#204,#205,#206,#207,#208));
#113=EDGE_LOOP('',(#209,#210,#211,#212));
#114=EDGE_LOOP('',(#213,#214,#215,#216));
#115=EDGE_LOOP('',(#217));
#116=EDGE_LOOP('',(#218));
#117=EDGE_LOOP('',(#219));
#118=EDGE_LOOP('',(#220));
#119=EDGE_LOOP('',(#221));
#120=CIRCLE('',#373,3.1);
#121=CIRCLE('',#374,8.5);
#122=CIRCLE('',#375,8.5);
#123=CIRCLE('',#380,9.85);
#124=CIRCLE('',#385,9.85);
#125=CIRCLE('',#386,4.45);
#126=CIRCLE('',#387,8.5);
#127=CIRCLE('',#388,8.5);
#128=CIRCLE('',#394,3.1);
#129=CIRCLE('',#398,4.45);
#130=ORIENTED_EDGE('',*,*,#254,.F.);
#131=ORIENTED_EDGE('',*,*,#255,.T.);
#132=ORIENTED_EDGE('',*,*,#256,.F.);
#133=ORIENTED_EDGE('',*,*,#257,.F.);
#134=ORIENTED_EDGE('',*,*,#258,.F.);
#135=ORIENTED_EDGE('',*,*,#259,.T.);
#136=ORIENTED_EDGE('',*,*,#260,.F.);
#137=ORIENTED_EDGE('',*,*,#261,.T.);
#138=ORIENTED_EDGE('',*,*,#262,.F.);
#139=ORIENTED_EDGE('',*,*,#263,.F.);
#140=ORIENTED_EDGE('',*,*,#264,.F.);
#141=ORIENTED_EDGE('',*,*,#265,.F.);
#142=ORIENTED_EDGE('',*,*,#266,.F.);
#143=ORIENTED_EDGE('',*,*,#267,.F.);
#144=ORIENTED_EDGE('',*,*,#268,.F.);
#145=ORIENTED_EDGE('',*,*,#269,.T.);
#146=ORIENTED_EDGE('',*,*,#270,.T.);
#147=ORIENTED_EDGE('',*,*,#263,.T.);
#148=ORIENTED_EDGE('',*,*,#271,.F.);
#149=ORIENTED_EDGE('',*,*,#272,.F.);
#150=ORIENTED_EDGE('',*,*,#273,.T.);
#151=ORIENTED_EDGE('',*,*,#257,.T.);
#152=ORIENTED_EDGE('',*,*,#274,.F.);
#153=ORIENTED_EDGE('',*,*,#275,.T.);
#154=ORIENTED_EDGE('',*,*,#266,.T.);
#155=ORIENTED_EDGE('',*,*,#276,.F.);
#156=ORIENTED_EDGE('',*,*,#277,.T.);
#157=ORIENTED_EDGE('',*,*,#268,.T.);
#158=ORIENTED_EDGE('',*,*,#278,.F.);
#159=ORIENTED_EDGE('',*,*,#276,.T.);
#160=ORIENTED_EDGE('',*,*,#265,.T.);
#161=ORIENTED_EDGE('',*,*,#279,.F.);
#162=ORIENTED_EDGE('',*,*,#280,.T.);
#163=ORIENTED_EDGE('',*,*,#281,.F.);
#164=ORIENTED_EDGE('',*,*,#282,.F.);
#165=ORIENTED_EDGE('',*,*,#269,.F.);
#166=ORIENTED_EDGE('',*,*,#277,.F.);
#167=ORIENTED_EDGE('',*,*,#280,.F.);
#168=ORIENTED_EDGE('',*,*,#282,.T.);
#169=ORIENTED_EDGE('',*,*,#279,.T.);
#170=ORIENTED_EDGE('',*,*,#264,.T.);
#171=ORIENTED_EDGE('',*,*,#270,.F.);
#172=ORIENTED_EDGE('',*,*,#283,.T.);
#173=ORIENTED_EDGE('',*,*,#284,.T.);
#174=ORIENTED_EDGE('',*,*,#258,.T.);
#175=ORIENTED_EDGE('',*,*,#273,.F.);
#176=ORIENTED_EDGE('',*,*,#260,.T.);
#177=ORIENTED_EDGE('',*,*,#285,.T.);
#178=ORIENTED_EDGE('',*,*,#286,.T.);
#179=ORIENTED_EDGE('',*,*,#287,.T.);
#180=ORIENTED_EDGE('',*,*,#288,.T.);
#181=ORIENTED_EDGE('',*,*,#289,.T.);
#182=ORIENTED_EDGE('',*,*,#286,.F.);
#183=ORIENTED_EDGE('',*,*,#290,.T.);
#184=ORIENTED_EDGE('',*,*,#283,.F.);
#185=ORIENTED_EDGE('',*,*,#272,.T.);
#186=ORIENTED_EDGE('',*,*,#291,.F.);
#187=ORIENTED_EDGE('',*,*,#292,.T.);
#188=ORIENTED_EDGE('',*,*,#262,.T.);
#189=ORIENTED_EDGE('',*,*,#293,.T.);
#190=ORIENTED_EDGE('',*,*,#291,.T.);
#191=ORIENTED_EDGE('',*,*,#271,.T.);
#192=ORIENTED_EDGE('',*,*,#259,.F.);
#193=ORIENTED_EDGE('',*,*,#284,.F.);
#194=ORIENTED_EDGE('',*,*,#290,.F.);
#195=ORIENTED_EDGE('',*,*,#285,.F.);
#196=ORIENTED_EDGE('',*,*,#261,.F.);
#197=ORIENTED_EDGE('',*,*,#287,.F.);
#198=ORIENTED_EDGE('',*,*,#292,.F.);
#199=ORIENTED_EDGE('',*,*,#293,.F.);
#200=ORIENTED_EDGE('',*,*,#294,.T.);
#201=ORIENTED_EDGE('',*,*,#295,.T.);
#202=ORIENTED_EDGE('',*,*,#254,.T.);
#203=ORIENTED_EDGE('',*,*,#275,.F.);
#204=ORIENTED_EDGE('',*,*,#296,.F.);
#205=ORIENTED_EDGE('',*,*,#297,.T.);
#206=ORIENTED_EDGE('',*,*,#294,.F.);
#207=ORIENTED_EDGE('',*,*,#278,.T.);
#208=ORIENTED_EDGE('',*,*,#267,.T.);
#209=ORIENTED_EDGE('',*,*,#256,.T.);
#210=ORIENTED_EDGE('',*,*,#298,.T.);
#211=ORIENTED_EDGE('',*,*,#296,.T.);
#212=ORIENTED_EDGE('',*,*,#274,.T.);
#213=ORIENTED_EDGE('',*,*,#255,.F.);
#214=ORIENTED_EDGE('',*,*,#295,.F.);
#215=ORIENTED_EDGE('',*,*,#297,.F.);
#216=ORIENTED_EDGE('',*,*,#298,.F.);
#217=ORIENTED_EDGE('',*,*,#299,.T.);
#218=ORIENTED_EDGE('',*,*,#289,.F.);
#219=ORIENTED_EDGE('',*,*,#299,.F.);
#220=ORIENTED_EDGE('',*,*,#281,.T.);
#221=ORIENTED_EDGE('',*,*,#288,.F.);
#222=VERTEX_POINT('',#500);
#223=VERTEX_POINT('',#501);
#224=VERTEX_POINT('',#503);
#225=VERTEX_POINT('',#505);
#226=VERTEX_POINT('',#507);
#227=VERTEX_POINT('',#509);
#228=VERTEX_POINT('',#511);
#229=VERTEX_POINT('',#513);
#230=VERTEX_POINT('',#515);
#231=VERTEX_POINT('',#517);
#232=VERTEX_POINT('',#519);
#233=VERTEX_POINT('',#521);
#234=VERTEX_POINT('',#523);
#235=VERTEX_POINT('',#527);
#236=VERTEX_POINT('',#528);
#237=VERTEX_POINT('',#530);
#238=VERTEX_POINT('',#532);
#239=VERTEX_POINT('',#535);
#240=VERTEX_POINT('',#537);
#241=VERTEX_POINT('',#542);
#242=VERTEX_POINT('',#544);
#243=VERTEX_POINT('',#549);
#244=VERTEX_POINT('',#553);
#245=VERTEX_POINT('',#558);
#246=VERTEX_POINT('',#562);
#247=VERTEX_POINT('',#564);
#248=VERTEX_POINT('',#568);
#249=VERTEX_POINT('',#570);
#250=VERTEX_POINT('',#573);
#251=VERTEX_POINT('',#581);
#252=VERTEX_POINT('',#585);
#253=VERTEX_POINT('',#592);
#254=EDGE_CURVE('',#222,#223,#300,.T.);
#255=EDGE_CURVE('',#222,#224,#120,.T.);
#256=EDGE_CURVE('',#225,#224,#301,.T.);
#257=EDGE_CURVE('',#226,#225,#302,.T.);
#258=EDGE_CURVE('',#227,#226,#303,.T.);
#259=EDGE_CURVE('',#227,#228,#121,.T.);
#260=EDGE_CURVE('',#229,#228,#304,.T.);
#261=EDGE_CURVE('',#229,#230,#122,.T.);
#262=EDGE_CURVE('',#231,#230,#305,.T.);
#263=EDGE_CURVE('',#232,#231,#306,.T.);
#264=EDGE_CURVE('',#233,#232,#307,.T.);
#265=EDGE_CURVE('',#234,#233,#308,.T.);
#266=EDGE_CURVE('',#223,#234,#309,.T.);
#267=EDGE_CURVE('',#235,#236,#310,.T.);
#268=EDGE_CURVE('',#237,#235,#311,.T.);
#269=EDGE_CURVE('',#237,#238,#312,.T.);
#270=EDGE_CURVE('',#238,#232,#313,.T.);
#271=EDGE_CURVE('',#239,#231,#314,.T.);
#272=EDGE_CURVE('',#240,#239,#315,.T.);
#273=EDGE_CURVE('',#240,#226,#316,.T.);
#274=EDGE_CURVE('',#236,#225,#317,.T.);
#275=EDGE_CURVE('',#241,#223,#318,.T.);
#276=EDGE_CURVE('',#242,#234,#319,.T.);
#277=EDGE_CURVE('',#242,#237,#320,.T.);
#278=EDGE_CURVE('',#241,#235,#321,.T.);
#279=EDGE_CURVE('',#243,#233,#322,.T.);
#280=EDGE_CURVE('',#243,#242,#323,.T.);
#281=EDGE_CURVE('',#244,#244,#123,.T.);
#282=EDGE_CURVE('',#238,#243,#324,.T.);
#283=EDGE_CURVE('',#240,#245,#325,.T.);
#284=EDGE_CURVE('',#245,#227,#326,.T.);
#285=EDGE_CURVE('',#228,#246,#327,.T.);
#286=EDGE_CURVE('',#246,#247,#328,.T.);
#287=EDGE_CURVE('',#247,#229,#329,.T.);
#288=EDGE_CURVE('',#248,#248,#124,.T.);
#289=EDGE_CURVE('',#249,#249,#125,.T.);
#290=EDGE_CURVE('',#246,#245,#126,.T.);
#291=EDGE_CURVE('',#250,#239,#330,.T.);
#292=EDGE_CURVE('',#250,#247,#127,.T.);
#293=EDGE_CURVE('',#230,#250,#331,.T.);
#294=EDGE_CURVE('',#241,#251,#332,.T.);
#295=EDGE_CURVE('',#251,#222,#333,.T.);
#296=EDGE_CURVE('',#252,#236,#334,.T.);
#297=EDGE_CURVE('',#252,#251,#128,.T.);
#298=EDGE_CURVE('',#224,#252,#335,.T.);
#299=EDGE_CURVE('',#253,#253,#129,.T.);
#300=LINE('',#499,#336);
#301=LINE('',#504,#337);
#302=LINE('',#506,#338);
#303=LINE('',#508,#339);
#304=LINE('',#512,#340);
#305=LINE('',#516,#341);
#306=LINE('',#518,#342);
#307=LINE('',#520,#343);
#308=LINE('',#522,#344);
#309=LINE('',#524,#345);
#310=LINE('',#526,#346);
#311=LINE('',#529,#347);
#312=LINE('',#531,#348);
#313=LINE('',#533,#349);
#314=LINE('',#534,#350);
#315=LINE('',#536,#351);
#316=LINE('',#538,#352);
#317=LINE('',#539,#353);
#318=LINE('',#541,#354);
#319=LINE('',#543,#355);
#320=LINE('',#545,#356);
#321=LINE('',#546,#357);
#322=LINE('',#548,#358);
#323=LINE('',#550,#359);
#324=LINE('',#554,#360);
#325=LINE('',#557,#361);
#326=LINE('',#559,#362);
#327=LINE('',#561,#363);
#328=LINE('',#563,#364);
#329=LINE('',#565,#365);
#330=LINE('',#572,#366);
#331=LINE('',#576,#367);
#332=LINE('',#580,#368);
#333=LINE('',#582,#369);
#334=LINE('',#584,#370);
#335=LINE('',#588,#371);
#336=VECTOR('',#404,1.);
#337=VECTOR('',#407,1.);
#338=VECTOR('',#408,1.);
#339=VECTOR('',#409,1.);
#340=VECTOR('',#412,1.);
#341=VECTOR('',#415,1.);
#342=VECTOR('',#416,1.);
#343=VECTOR('',#417,1.);
#344=VECTOR('',#418,1.);
#345=VECTOR('',#419,1.);
#346=VECTOR('',#422,1.);
#347=VECTOR('',#423,1.);
#348=VECTOR('',#424,1.);
#349=VECTOR('',#425,1.);
#350=VECTOR('',#426,1.);
#351=VECTOR('',#427,1.);
#352=VECTOR('',#428,1.);
#353=VECTOR('',#429,1.);
#354=VECTOR('',#432,1.);
#355=VECTOR('',#433,1.);
#356=VECTOR('',#434,1.);
#357=VECTOR('',#435,1.);
#358=VECTOR('',#438,1.);
#359=VECTOR('',#439,1.);
#360=VECTOR('',#444,1.);
#361=VECTOR('',#449,1.);
#362=VECTOR('',#450,1.);
#363=VECTOR('',#453,1.);
#364=VECTOR('',#454,1.);
#365=VECTOR('',#455,1.);
#366=VECTOR('',#464,1.);
#367=VECTOR('',#469,1.);
#368=VECTOR('',#476,1.);
#369=VECTOR('',#477,1.);
#370=VECTOR('',#480,1.);
#371=VECTOR('',#485,1.);
#372=AXIS2_PLACEMENT_3D('',#498,#402,#403);
#373=AXIS2_PLACEMENT_3D('',#502,#405,#406);
#374=AXIS2_PLACEMENT_3D('',#510,#410,#411);
#375=AXIS2_PLACEMENT_3D('',#514,#413,#414);
#376=AXIS2_PLACEMENT_3D('',#525,#420,#421);
#377=AXIS2_PLACEMENT_3D('',#540,#430,#431);
#378=AXIS2_PLACEMENT_3D('',#547,#436,#437);
#379=AXIS2_PLACEMENT_3D('',#551,#440,#441);
#380=AXIS2_PLACEMENT_3D('',#552,#442,#443);
#381=AXIS2_PLACEMENT_3D('',#555,#445,#446);
#382=AXIS2_PLACEMENT_3D('',#556,#447,#448);
#383=AXIS2_PLACEMENT_3D('',#560,#451,#452);
#384=AXIS2_PLACEMENT_3D('',#566,#456,#457);
#385=AXIS2_PLACEMENT_3D('',#567,#458,#459);
#386=AXIS2_PLACEMENT_3D('',#569,#460,#461);
#387=AXIS2_PLACEMENT_3D('',#571,#462,#463);
#388=AXIS2_PLACEMENT_3D('',#574,#465,#466);
#389=AXIS2_PLACEMENT_3D('',#575,#467,#468);
#390=AXIS2_PLACEMENT_3D('',#577,#470,#471);
#391=AXIS2_PLACEMENT_3D('',#578,#472,#473);
#392=AXIS2_PLACEMENT_3D('',#579,#474,#475);
#393=AXIS2_PLACEMENT_3D('',#583,#478,#479);
#394=AXIS2_PLACEMENT_3D('',#586,#481,#482);
#395=AXIS2_PLACEMENT_3D('',#587,#483,#484);
#396=AXIS2_PLACEMENT_3D('',#589,#486,#487);
#397=AXIS2_PLACEMENT_3D('',#590,#488,#489);
#398=AXIS2_PLACEMENT_3D('',#591,#490,#491);
#399=AXIS2_PLACEMENT_3D('',#593,#492,#493);
#400=AXIS2_PLACEMENT_3D('',#594,#494,#495);
#401=AXIS2_PLACEMENT_3D('',#595,#496,#497);
#402=DIRECTION('',(0.,0.,1.));
#403=DIRECTION('',(1.,0.,0.));
#404=DIRECTION('',(-1.,0.,0.));
#405=DIRECTION('',(0.,0.,-1.));
#406=DIRECTION('',(1.,0.,0.));
#407=DIRECTION('',(0.,1.,0.));
#408=DIRECTION('',(-1.,0.,0.));
#409=DIRECTION('',(0.,-1.,0.));
#410=DIRECTION('',(0.,0.,-1.));
#411=DIRECTION('',(1.,0.,0.));
#412=DIRECTION('',(-1.,0.,0.));
#413=DIRECTION('',(0.,0.,-1.));
#414=DIRECTION('',(1.,0.,0.));
#415=DIRECTION('',(0.,1.,0.));
#416=DIRECTION('',(-1.,0.,0.));
#417=DIRECTION('',(0.,-1.,0.));
#418=DIRECTION('',(1.,0.,0.));
#419=DIRECTION('',(0.,1.,0.));
#420=DIRECTION('',(0.,0.,1.));
#421=DIRECTION('',(1.,0.,0.));
#422=DIRECTION('',(1.,0.,0.));
#423=DIRECTION('',(0.,0.,1.));
#424=DIRECTION('',(1.,0.,0.));
#425=DIRECTION('',(0.,0.,1.));
#426=DIRECTION('',(0.,0.,1.));
#427=DIRECTION('',(1.,0.,0.));
#428=DIRECTION('',(0.,0.,1.));
#429=DIRECTION('',(0.,0.,1.));
#430=DIRECTION('',(0.,-1.,0.));
#431=DIRECTION('',(0.,0.,-1.));
#432=DIRECTION('',(0.,0.,1.));
#433=DIRECTION('',(0.,0.,1.));
#434=DIRECTION('',(0.,-1.,0.));
#435=DIRECTION('',(0.,-1.,0.));
#436=DIRECTION('',(-1.,0.,0.));
#437=DIRECTION('',(0.,0.,1.));
#438=DIRECTION('',(0.,0.,1.));
#439=DIRECTION('',(-1.,0.,0.));
#440=DIRECTION('',(0.,1.,0.));
#441=DIRECTION('',(0.,0.,1.));
#442=DIRECTION('',(0.,0.,-1.));
#443=DIRECTION('',(-1.,0.,0.));
#444=DIRECTION('',(0.,1.,0.));
#445=DIRECTION('',(0.,0.,-1.));
#446=DIRECTION('',(-1.,0.,0.));
#447=DIRECTION('',(1.,0.,0.));
#448=DIRECTION('',(0.,0.,-1.));
#449=DIRECTION('',(0.,1.,0.));
#450=DIRECTION('',(0.,0.,1.));
#451=DIRECTION('',(-1.,0.,0.));
#452=DIRECTION('',(0.,0.,1.));
#453=DIRECTION('',(0.,0.,-1.));
#454=DIRECTION('',(1.,0.,0.));
#455=DIRECTION('',(0.,0.,1.));
#456=DIRECTION('',(0.,1.,0.));
#457=DIRECTION('',(0.,0.,1.));
#458=DIRECTION('',(0.,0.,-1.));
#459=DIRECTION('',(-1.,0.,0.));
#460=DIRECTION('',(0.,0.,-1.));
#461=DIRECTION('',(-1.,0.,0.));
#462=DIRECTION('',(0.,0.,1.));
#463=DIRECTION('',(-1.,0.,0.));
#464=DIRECTION('',(0.,-1.,0.));
#465=DIRECTION('',(0.,0.,1.));
#466=DIRECTION('',(-1.,0.,0.));
#467=DIRECTION('',(0.,0.,-1.));
#468=DIRECTION('',(-1.,0.,0.));
#469=DIRECTION('',(0.,0.,-1.));
#470=DIRECTION('',(1.,0.,0.));
#471=DIRECTION('',(0.,0.,-1.));
#472=DIRECTION('',(0.,0.,1.));
#473=DIRECTION('',(1.,0.,0.));
#474=DIRECTION('',(0.,0.,1.));
#475=DIRECTION('',(1.,0.,0.));
#476=DIRECTION('',(1.,0.,0.));
#477=DIRECTION('',(0.,0.,1.));
#478=DIRECTION('',(0.,1.,0.));
#479=DIRECTION('',(0.,0.,1.));
#480=DIRECTION('',(0.,-1.,0.));
#481=DIRECTION('',(0.,0.,1.));
#482=DIRECTION('',(-1.,0.,0.));
#483=DIRECTION('',(0.,0.,-1.));
#484=DIRECTION('',(-1.,0.,0.));
#485=DIRECTION('',(0.,0.,-1.));
#486=DIRECTION('',(1.,0.,0.));
#487=DIRECTION('',(0.,0.,-1.));
#488=DIRECTION('',(0.,0.,1.));
#489=DIRECTION('',(1.,0.,0.));
#490=DIRECTION('',(0.,0.,-1.));
#491=DIRECTION('',(1.,0.,0.));
#492=DIRECTION('',(0.,0.,-1.));
#493=DIRECTION('',(1.,0.,0.));
#494=DIRECTION('',(0.,0.,-1.));
#495=DIRECTION('',(-1.,0.,0.));
#496=DIRECTION('',(0.,0.,-1.));
#497=DIRECTION('',(1.,0.,0.));
#498=CARTESIAN_POINT('',(0.,0.,0.));
#499=CARTESIAN_POINT('',(211.1,53.3,131.3));
#500=CARTESIAN_POINT('',(84.8,53.3,131.3));
#501=CARTESIAN_POINT('',(0.,53.3,131.3));
#502=CARTESIAN_POINT('',(84.8,50.2,131.3));
#503=CARTESIAN_POINT('',(87.9,50.2,131.3));
#504=CARTESIAN_POINT('',(87.9,131.85,131.3));
#505=CARTESIAN_POINT('',(87.9,0.,131.3));
#506=CARTESIAN_POINT('',(211.1,0.,131.3));
#507=CARTESIAN_POINT('',(199.2,0.,131.3));
#508=CARTESIAN_POINT('',(199.2,131.85,131.3));
#509=CARTESIAN_POINT('',(199.2,38.7,131.3));
#510=CARTESIAN_POINT('',(207.7,38.7,131.3));
#511=CARTESIAN_POINT('',(207.7,47.2,131.3));
#512=CARTESIAN_POINT('',(211.1,47.2,131.3));
#513=CARTESIAN_POINT('',(398.7,47.2,131.3));
#514=CARTESIAN_POINT('',(398.7,38.7,131.3));
#515=CARTESIAN_POINT('',(407.2,38.7,131.3));
#516=CARTESIAN_POINT('',(407.2,131.85,131.3));
#517=CARTESIAN_POINT('',(407.2,0.,131.3));
#518=CARTESIAN_POINT('',(211.1,0.,131.3));
#519=CARTESIAN_POINT('',(422.2,0.,131.3));
#520=CARTESIAN_POINT('',(422.2,131.85,131.3));
#521=CARTESIAN_POINT('',(422.2,263.7,131.3));
#522=CARTESIAN_POINT('',(211.1,263.7,131.3));
#523=CARTESIAN_POINT('',(0.,263.7,131.3));
#524=CARTESIAN_POINT('',(0.,131.85,131.3));
#525=CARTESIAN_POINT('',(211.1,131.85,131.3));
#526=CARTESIAN_POINT('',(43.95,0.,105.4));
#527=CARTESIAN_POINT('',(0.,0.,105.4));
#528=CARTESIAN_POINT('',(87.9,0.,105.4));
#529=CARTESIAN_POINT('',(0.,0.,0.));
#530=CARTESIAN_POINT('',(0.,0.,0.));
#531=CARTESIAN_POINT('',(211.1,0.,0.));
#532=CARTESIAN_POINT('',(422.2,0.,0.));
#533=CARTESIAN_POINT('',(422.2,0.,0.));
#534=CARTESIAN_POINT('',(407.2,0.,93.4));
#535=CARTESIAN_POINT('',(407.2,0.,93.4));
#536=CARTESIAN_POINT('',(303.2,0.,93.4));
#537=CARTESIAN_POINT('',(199.2,0.,93.4));
#538=CARTESIAN_POINT('',(199.2,0.,93.4));
#539=CARTESIAN_POINT('',(87.9,0.,105.4));
#540=CARTESIAN_POINT('',(211.1,0.,0.));
#541=CARTESIAN_POINT('',(0.,53.3,105.4));
#542=CARTESIAN_POINT('',(0.,53.3,105.4));
#543=CARTESIAN_POINT('',(0.,263.7,0.));
#544=CARTESIAN_POINT('',(0.,263.7,0.));
#545=CARTESIAN_POINT('',(0.,131.85,0.));
#546=CARTESIAN_POINT('',(0.,26.65,105.4));
#547=CARTESIAN_POINT('',(0.,131.85,0.));
#548=CARTESIAN_POINT('',(422.2,263.7,0.));
#549=CARTESIAN_POINT('',(422.2,263.7,0.));
#550=CARTESIAN_POINT('',(211.1,263.7,0.));
#551=CARTESIAN_POINT('',(211.1,263.7,0.));
#552=CARTESIAN_POINT('',(291.7,31.7,0.));
#553=CARTESIAN_POINT('',(281.85,31.7,0.));
#554=CARTESIAN_POINT('',(422.2,131.85,0.));
#555=CARTESIAN_POINT('',(211.1,131.85,0.));
#556=CARTESIAN_POINT('',(422.2,131.85,0.));
#557=CARTESIAN_POINT('',(199.2,23.6,93.4));
#558=CARTESIAN_POINT('',(199.2,38.7,93.4));
#559=CARTESIAN_POINT('',(199.2,38.7,131.3));
#560=CARTESIAN_POINT('',(199.2,23.6,93.4));
#561=CARTESIAN_POINT('',(207.7,47.2,93.4));
#562=CARTESIAN_POINT('',(207.7,47.2,93.4));
#563=CARTESIAN_POINT('',(303.2,47.2,93.4));
#564=CARTESIAN_POINT('',(398.7,47.2,93.4));
#565=CARTESIAN_POINT('',(398.7,47.2,131.3));
#566=CARTESIAN_POINT('',(303.2,47.2,93.4));
#567=CARTESIAN_POINT('',(291.7,31.7,93.4));
#568=CARTESIAN_POINT('',(281.85,31.7,93.4));
#569=CARTESIAN_POINT('',(356.7,16.3,93.4));
#570=CARTESIAN_POINT('',(352.25,16.3,93.4));
#571=CARTESIAN_POINT('',(207.7,38.7,93.4));
#572=CARTESIAN_POINT('',(407.2,23.6,93.4));
#573=CARTESIAN_POINT('',(407.2,38.7,93.4));
#574=CARTESIAN_POINT('',(398.7,38.7,93.4));
#575=CARTESIAN_POINT('',(303.2,23.6,93.4));
#576=CARTESIAN_POINT('',(407.2,38.7,93.4));
#577=CARTESIAN_POINT('',(407.2,23.6,93.4));
#578=CARTESIAN_POINT('',(207.7,38.7,93.4));
#579=CARTESIAN_POINT('',(398.7,38.7,93.4));
#580=CARTESIAN_POINT('',(43.95,53.3,105.4));
#581=CARTESIAN_POINT('',(84.8,53.3,105.4));
#582=CARTESIAN_POINT('',(84.8,53.3,131.3));
#583=CARTESIAN_POINT('',(43.95,53.3,105.4));
#584=CARTESIAN_POINT('',(87.9,26.65,105.4));
#585=CARTESIAN_POINT('',(87.9,50.2,105.4));
#586=CARTESIAN_POINT('',(84.8,50.2,105.4));
#587=CARTESIAN_POINT('',(43.95,26.65,105.4));
#588=CARTESIAN_POINT('',(87.9,50.2,105.4));
#589=CARTESIAN_POINT('',(87.9,26.65,105.4));
#590=CARTESIAN_POINT('',(84.8,50.2,105.4));
#591=CARTESIAN_POINT('',(356.7,16.3,92.4));
#592=CARTESIAN_POINT('',(361.15,16.3,92.4));
#593=CARTESIAN_POINT('',(356.7,16.3,131.35));
#594=CARTESIAN_POINT('',(356.7,16.3,92.4));
#595=CARTESIAN_POINT('',(291.7,31.7,131.35));
#596=MECHANICAL_DESIGN_GEOMETRIC_PRESENTATION_REPRESENTATION('',(#24),#597);
#597=(
GEOMETRIC_REPRESENTATION_CONTEXT(3)
GLOBAL_UNCERTAINTY_ASSIGNED_CONTEXT((#598))
GLOBAL_UNIT_ASSIGNED_CONTEXT((#604,#600,#599))
REPRESENTATION_CONTEXT('featured_part_10333','TOP_LEVEL_ASSEMBLY_PART')
);
#598=UNCERTAINTY_MEASURE_WITH_UNIT(LENGTH_MEASURE(2.E-5),#604,
'DISTANCE_ACCURACY_VALUE','Maximum Tolerance applied to model');
#599=(
NAMED_UNIT(*)
SI_UNIT($,.STERADIAN.)
SOLID_ANGLE_UNIT()
);
#600=(
CONVERSION_BASED_UNIT('DEGREE',#602)
NAMED_UNIT(#601)
PLANE_ANGLE_UNIT()
);
#601=DIMENSIONAL_EXPONENTS(0.,0.,0.,0.,0.,0.,0.);
#602=PLANE_ANGLE_MEASURE_WITH_UNIT(PLANE_ANGLE_MEASURE(0.0174532925),#603);
#603=(
NAMED_UNIT(*)
PLANE_ANGLE_UNIT()
SI_UNIT($,.RADIAN.)
);
#604=(
LENGTH_UNIT()
NAMED_UNIT(*)
SI_UNIT(.MILLI.,.METRE.)
);
ENDSEC;
END-ISO-10303-21;
