ISO-10303-21;
HEADER;
/* Generated by software containing ST-Developer
 * from STEP Tools, Inc. (www.steptools.com) 
 */
/* OPTION: using custom schema-name function */

FILE_DESCRIPTION(
/* description */ (''),
/* implementation_level */ '2;1');

FILE_NAME(
/* name */ 'featured_part_02482.stp',
/* time_stamp */ '2026-07-05T15:45:25-04:00',
/* author */ (''),
/* organization */ (''),
/* preprocessor_version */ 'ST-DEVELOPER v20.1',
/* originating_system */ 'SIEMENS PLM Software NX2512.6002',
/* authorisation */ '');

FILE_SCHEMA (('AUTOMOTIVE_DESIGN { 1 0 10303 214 3 1 1 1 }'));
ENDSEC;

DATA;
#10=SHAPE_REPRESENTATION_RELATIONSHIP('None',
'relationship between featured_part_02482-None and featured_part_02482
-None',#22,#11);
#11=ADVANCED_BREP_SHAPE_REPRESENTATION('featured_part_02482-None',(#32),
#735);
#12=SHAPE_DEFINITION_REPRESENTATION(#13,#22);
#13=PRODUCT_DEFINITION_SHAPE('','',#14);
#14=PRODUCT_DEFINITION(' ','',#16,#15);
#15=PRODUCT_DEFINITION_CONTEXT('part definition',#21,'design');
#16=PRODUCT_DEFINITION_FORMATION_WITH_SPECIFIED_SOURCE(' ',' ',#18,
 .NOT_KNOWN.);
#17=PRODUCT_RELATED_PRODUCT_CATEGORY('part','',(#18));
#18=PRODUCT('featured_part_02482','featured_part_02482',' ',(#19));
#19=PRODUCT_CONTEXT(' ',#21,'mechanical');
#20=APPLICATION_PROTOCOL_DEFINITION('international standard',
'automotive_design',2010,#21);
#21=APPLICATION_CONTEXT(
'core data for automotive mechanical design processes');
#22=SHAPE_REPRESENTATION('featured_part_02482-None',(#458),#735);
#23=PRESENTATION_LAYER_ASSIGNMENT('1','Layer 1',(#32));
#24=STYLED_ITEM('',(#25),#32);
#25=PRESENTATION_STYLE_ASSIGNMENT((#26));
#26=SURFACE_STYLE_USAGE(.BOTH.,#27);
#27=SURFACE_SIDE_STYLE('',(#28));
#28=SURFACE_STYLE_FILL_AREA(#29);
#29=FILL_AREA_STYLE('',(#30));
#30=FILL_AREA_STYLE_COLOUR('',#31);
#31=COLOUR_RGB('medium steel',0.611764705882353,0.658823529411765,0.670588235294118);
#32=MANIFOLD_SOLID_BREP('',#33);
#33=CLOSED_SHELL('',(#61,#62,#63,#64,#65,#66,#67,#68,#69,#70,#71,#72,#73,
#74,#75,#76,#77,#78,#79,#80,#81,#82,#83));
#34=CYLINDRICAL_SURFACE('',#478,12.2);
#35=CYLINDRICAL_SURFACE('',#488,12.);
#36=CYLINDRICAL_SURFACE('',#489,12.);
#37=CYLINDRICAL_SURFACE('',#490,12.);
#38=CYLINDRICAL_SURFACE('',#491,12.);
#39=FACE_OUTER_BOUND('',#106,.T.);
#40=FACE_OUTER_BOUND('',#107,.T.);
#41=FACE_OUTER_BOUND('',#108,.T.);
#42=FACE_OUTER_BOUND('',#109,.T.);
#43=FACE_OUTER_BOUND('',#110,.T.);
#44=FACE_OUTER_BOUND('',#111,.T.);
#45=FACE_OUTER_BOUND('',#112,.T.);
#46=FACE_OUTER_BOUND('',#113,.T.);
#47=FACE_OUTER_BOUND('',#114,.T.);
#48=FACE_OUTER_BOUND('',#115,.T.);
#49=FACE_OUTER_BOUND('',#116,.T.);
#50=FACE_OUTER_BOUND('',#117,.T.);
#51=FACE_OUTER_BOUND('',#118,.T.);
#52=FACE_OUTER_BOUND('',#119,.T.);
#53=FACE_OUTER_BOUND('',#120,.T.);
#54=FACE_OUTER_BOUND('',#121,.T.);
#55=FACE_OUTER_BOUND('',#122,.T.);
#56=FACE_OUTER_BOUND('',#123,.T.);
#57=FACE_OUTER_BOUND('',#124,.T.);
#58=FACE_OUTER_BOUND('',#125,.T.);
#59=FACE_OUTER_BOUND('',#126,.T.);
#60=FACE_OUTER_BOUND('',#127,.T.);
#61=ADVANCED_FACE('',(#102,#103),#84,.T.);
#62=ADVANCED_FACE('',(#39),#85,.T.);
#63=ADVANCED_FACE('',(#40),#86,.T.);
#64=ADVANCED_FACE('',(#41),#87,.T.);
#65=ADVANCED_FACE('',(#42),#88,.T.);
#66=ADVANCED_FACE('',(#43),#89,.T.);
#67=ADVANCED_FACE('',(#44),#90,.F.);
#68=ADVANCED_FACE('',(#45),#91,.F.);
#69=ADVANCED_FACE('',(#46),#92,.F.);
#70=ADVANCED_FACE('',(#47),#93,.F.);
#71=ADVANCED_FACE('',(#48),#94,.F.);
#72=ADVANCED_FACE('',(#49),#95,.F.);
#73=ADVANCED_FACE('',(#50),#96,.F.);
#74=ADVANCED_FACE('',(#51),#34,.F.);
#75=ADVANCED_FACE('',(#52),#97,.F.);
#76=ADVANCED_FACE('',(#53),#98,.F.);
#77=ADVANCED_FACE('',(#54),#99,.F.);
#78=ADVANCED_FACE('',(#55),#100,.F.);
#79=ADVANCED_FACE('',(#56),#101,.F.);
#80=ADVANCED_FACE('',(#57),#35,.F.);
#81=ADVANCED_FACE('',(#58),#36,.F.);
#82=ADVANCED_FACE('',(#59),#37,.F.);
#83=ADVANCED_FACE('',(#60),#38,.F.);
#84=PLANE('',#464);
#85=PLANE('',#465);
#86=PLANE('',#466);
#87=PLANE('',#467);
#88=PLANE('',#468);
#89=PLANE('',#469);
#90=PLANE('',#470);
#91=PLANE('',#471);
#92=PLANE('',#472);
#93=PLANE('',#473);
#94=PLANE('',#474);
#95=PLANE('',#475);
#96=PLANE('',#477);
#97=PLANE('',#479);
#98=PLANE('',#480);
#99=PLANE('',#481);
#100=PLANE('',#486);
#101=PLANE('',#487);
#102=FACE_BOUND('',#104,.T.);
#103=FACE_BOUND('',#105,.T.);
#104=EDGE_LOOP('',(#138,#139,#140,#141,#142,#143,#144,#145));
#105=EDGE_LOOP('',(#146,#147,#148,#149,#150,#151,#152));
#106=EDGE_LOOP('',(#153,#154,#155,#156,#157,#158));
#107=EDGE_LOOP('',(#159,#160,#161,#162,#163));
#108=EDGE_LOOP('',(#164,#165,#166,#167,#168,#169));
#109=EDGE_LOOP('',(#170,#171,#172,#173));
#110=EDGE_LOOP('',(#174,#175,#176,#177,#178,#179));
#111=EDGE_LOOP('',(#180,#181,#182,#183,#184));
#112=EDGE_LOOP('',(#185,#186,#187,#188));
#113=EDGE_LOOP('',(#189,#190,#191,#192,#193));
#114=EDGE_LOOP('',(#194,#195,#196,#197,#198));
#115=EDGE_LOOP('',(#199,#200,#201,#202,#203));
#116=EDGE_LOOP('',(#204,#205,#206,#207,#208));
#117=EDGE_LOOP('',(#209,#210,#211,#212,#213));
#118=EDGE_LOOP('',(#214,#215,#216,#217));
#119=EDGE_LOOP('',(#218,#219,#220,#221));
#120=EDGE_LOOP('',(#222,#223,#224,#225));
#121=EDGE_LOOP('',(#226,#227,#228,#229));
#122=EDGE_LOOP('',(#230,#231,#232,#233,#234,#235,#236,#237));
#123=EDGE_LOOP('',(#238,#239,#240,#241));
#124=EDGE_LOOP('',(#242,#243,#244,#245));
#125=EDGE_LOOP('',(#246,#247,#248,#249));
#126=EDGE_LOOP('',(#250,#251,#252,#253));
#127=EDGE_LOOP('',(#254,#255,#256,#257));
#128=CIRCLE('',#459,12.);
#129=CIRCLE('',#460,12.);
#130=CIRCLE('',#461,12.);
#131=CIRCLE('',#462,12.);
#132=CIRCLE('',#463,12.2);
#133=CIRCLE('',#476,12.2);
#134=CIRCLE('',#482,12.);
#135=CIRCLE('',#483,12.);
#136=CIRCLE('',#484,12.);
#137=CIRCLE('',#485,12.);
#138=ORIENTED_EDGE('',*,*,#298,.F.);
#139=ORIENTED_EDGE('',*,*,#299,.T.);
#140=ORIENTED_EDGE('',*,*,#300,.F.);
#141=ORIENTED_EDGE('',*,*,#301,.T.);
#142=ORIENTED_EDGE('',*,*,#302,.F.);
#143=ORIENTED_EDGE('',*,*,#303,.T.);
#144=ORIENTED_EDGE('',*,*,#304,.F.);
#145=ORIENTED_EDGE('',*,*,#305,.T.);
#146=ORIENTED_EDGE('',*,*,#306,.F.);
#147=ORIENTED_EDGE('',*,*,#307,.T.);
#148=ORIENTED_EDGE('',*,*,#308,.F.);
#149=ORIENTED_EDGE('',*,*,#309,.T.);
#150=ORIENTED_EDGE('',*,*,#310,.T.);
#151=ORIENTED_EDGE('',*,*,#311,.T.);
#152=ORIENTED_EDGE('',*,*,#312,.T.);
#153=ORIENTED_EDGE('',*,*,#313,.T.);
#154=ORIENTED_EDGE('',*,*,#314,.T.);
#155=ORIENTED_EDGE('',*,*,#315,.T.);
#156=ORIENTED_EDGE('',*,*,#316,.T.);
#157=ORIENTED_EDGE('',*,*,#317,.F.);
#158=ORIENTED_EDGE('',*,*,#318,.T.);
#159=ORIENTED_EDGE('',*,*,#317,.T.);
#160=ORIENTED_EDGE('',*,*,#319,.T.);
#161=ORIENTED_EDGE('',*,*,#320,.T.);
#162=ORIENTED_EDGE('',*,*,#321,.F.);
#163=ORIENTED_EDGE('',*,*,#322,.T.);
#164=ORIENTED_EDGE('',*,*,#323,.F.);
#165=ORIENTED_EDGE('',*,*,#324,.F.);
#166=ORIENTED_EDGE('',*,*,#325,.F.);
#167=ORIENTED_EDGE('',*,*,#326,.T.);
#168=ORIENTED_EDGE('',*,*,#321,.T.);
#169=ORIENTED_EDGE('',*,*,#327,.T.);
#170=ORIENTED_EDGE('',*,*,#328,.F.);
#171=ORIENTED_EDGE('',*,*,#318,.F.);
#172=ORIENTED_EDGE('',*,*,#322,.F.);
#173=ORIENTED_EDGE('',*,*,#326,.F.);
#174=ORIENTED_EDGE('',*,*,#329,.T.);
#175=ORIENTED_EDGE('',*,*,#330,.T.);
#176=ORIENTED_EDGE('',*,*,#313,.F.);
#177=ORIENTED_EDGE('',*,*,#328,.T.);
#178=ORIENTED_EDGE('',*,*,#325,.T.);
#179=ORIENTED_EDGE('',*,*,#331,.F.);
#180=ORIENTED_EDGE('',*,*,#332,.F.);
#181=ORIENTED_EDGE('',*,*,#327,.F.);
#182=ORIENTED_EDGE('',*,*,#320,.F.);
#183=ORIENTED_EDGE('',*,*,#333,.T.);
#184=ORIENTED_EDGE('',*,*,#309,.F.);
#185=ORIENTED_EDGE('',*,*,#315,.F.);
#186=ORIENTED_EDGE('',*,*,#334,.T.);
#187=ORIENTED_EDGE('',*,*,#311,.F.);
#188=ORIENTED_EDGE('',*,*,#335,.T.);
#189=ORIENTED_EDGE('',*,*,#335,.F.);
#190=ORIENTED_EDGE('',*,*,#310,.F.);
#191=ORIENTED_EDGE('',*,*,#333,.F.);
#192=ORIENTED_EDGE('',*,*,#319,.F.);
#193=ORIENTED_EDGE('',*,*,#316,.F.);
#194=ORIENTED_EDGE('',*,*,#336,.F.);
#195=ORIENTED_EDGE('',*,*,#312,.F.);
#196=ORIENTED_EDGE('',*,*,#334,.F.);
#197=ORIENTED_EDGE('',*,*,#314,.F.);
#198=ORIENTED_EDGE('',*,*,#330,.F.);
#199=ORIENTED_EDGE('',*,*,#337,.T.);
#200=ORIENTED_EDGE('',*,*,#338,.T.);
#201=ORIENTED_EDGE('',*,*,#306,.T.);
#202=ORIENTED_EDGE('',*,*,#336,.T.);
#203=ORIENTED_EDGE('',*,*,#329,.F.);
#204=ORIENTED_EDGE('',*,*,#308,.T.);
#205=ORIENTED_EDGE('',*,*,#339,.T.);
#206=ORIENTED_EDGE('',*,*,#340,.T.);
#207=ORIENTED_EDGE('',*,*,#323,.T.);
#208=ORIENTED_EDGE('',*,*,#332,.T.);
#209=ORIENTED_EDGE('',*,*,#340,.F.);
#210=ORIENTED_EDGE('',*,*,#341,.T.);
#211=ORIENTED_EDGE('',*,*,#337,.F.);
#212=ORIENTED_EDGE('',*,*,#331,.T.);
#213=ORIENTED_EDGE('',*,*,#324,.T.);
#214=ORIENTED_EDGE('',*,*,#307,.F.);
#215=ORIENTED_EDGE('',*,*,#338,.F.);
#216=ORIENTED_EDGE('',*,*,#341,.F.);
#217=ORIENTED_EDGE('',*,*,#339,.F.);
#218=ORIENTED_EDGE('',*,*,#298,.T.);
#219=ORIENTED_EDGE('',*,*,#342,.T.);
#220=ORIENTED_EDGE('',*,*,#343,.T.);
#221=ORIENTED_EDGE('',*,*,#344,.T.);
#222=ORIENTED_EDGE('',*,*,#300,.T.);
#223=ORIENTED_EDGE('',*,*,#345,.T.);
#224=ORIENTED_EDGE('',*,*,#346,.T.);
#225=ORIENTED_EDGE('',*,*,#347,.T.);
#226=ORIENTED_EDGE('',*,*,#348,.T.);
#227=ORIENTED_EDGE('',*,*,#349,.T.);
#228=ORIENTED_EDGE('',*,*,#302,.T.);
#229=ORIENTED_EDGE('',*,*,#350,.T.);
#230=ORIENTED_EDGE('',*,*,#343,.F.);
#231=ORIENTED_EDGE('',*,*,#351,.T.);
#232=ORIENTED_EDGE('',*,*,#352,.F.);
#233=ORIENTED_EDGE('',*,*,#353,.T.);
#234=ORIENTED_EDGE('',*,*,#348,.F.);
#235=ORIENTED_EDGE('',*,*,#354,.T.);
#236=ORIENTED_EDGE('',*,*,#346,.F.);
#237=ORIENTED_EDGE('',*,*,#355,.T.);
#238=ORIENTED_EDGE('',*,*,#352,.T.);
#239=ORIENTED_EDGE('',*,*,#356,.T.);
#240=ORIENTED_EDGE('',*,*,#304,.T.);
#241=ORIENTED_EDGE('',*,*,#357,.T.);
#242=ORIENTED_EDGE('',*,*,#305,.F.);
#243=ORIENTED_EDGE('',*,*,#356,.F.);
#244=ORIENTED_EDGE('',*,*,#351,.F.);
#245=ORIENTED_EDGE('',*,*,#342,.F.);
#246=ORIENTED_EDGE('',*,*,#303,.F.);
#247=ORIENTED_EDGE('',*,*,#349,.F.);
#248=ORIENTED_EDGE('',*,*,#353,.F.);
#249=ORIENTED_EDGE('',*,*,#357,.F.);
#250=ORIENTED_EDGE('',*,*,#299,.F.);
#251=ORIENTED_EDGE('',*,*,#344,.F.);
#252=ORIENTED_EDGE('',*,*,#355,.F.);
#253=ORIENTED_EDGE('',*,*,#345,.F.);
#254=ORIENTED_EDGE('',*,*,#301,.F.);
#255=ORIENTED_EDGE('',*,*,#347,.F.);
#256=ORIENTED_EDGE('',*,*,#354,.F.);
#257=ORIENTED_EDGE('',*,*,#350,.F.);
#258=VERTEX_POINT('',#612);
#259=VERTEX_POINT('',#613);
#260=VERTEX_POINT('',#615);
#261=VERTEX_POINT('',#617);
#262=VERTEX_POINT('',#619);
#263=VERTEX_POINT('',#621);
#264=VERTEX_POINT('',#623);
#265=VERTEX_POINT('',#625);
#266=VERTEX_POINT('',#628);
#267=VERTEX_POINT('',#629);
#268=VERTEX_POINT('',#631);
#269=VERTEX_POINT('',#633);
#270=VERTEX_POINT('',#635);
#271=VERTEX_POINT('',#637);
#272=VERTEX_POINT('',#639);
#273=VERTEX_POINT('',#643);
#274=VERTEX_POINT('',#644);
#275=VERTEX_POINT('',#646);
#276=VERTEX_POINT('',#648);
#277=VERTEX_POINT('',#650);
#278=VERTEX_POINT('',#652);
#279=VERTEX_POINT('',#656);
#280=VERTEX_POINT('',#658);
#281=VERTEX_POINT('',#660);
#282=VERTEX_POINT('',#664);
#283=VERTEX_POINT('',#665);
#284=VERTEX_POINT('',#667);
#285=VERTEX_POINT('',#669);
#286=VERTEX_POINT('',#676);
#287=VERTEX_POINT('',#677);
#288=VERTEX_POINT('',#691);
#289=VERTEX_POINT('',#695);
#290=VERTEX_POINT('',#702);
#291=VERTEX_POINT('',#704);
#292=VERTEX_POINT('',#708);
#293=VERTEX_POINT('',#710);
#294=VERTEX_POINT('',#714);
#295=VERTEX_POINT('',#715);
#296=VERTEX_POINT('',#720);
#297=VERTEX_POINT('',#722);
#298=EDGE_CURVE('',#258,#259,#358,.T.);
#299=EDGE_CURVE('',#258,#260,#128,.T.);
#300=EDGE_CURVE('',#261,#260,#359,.T.);
#301=EDGE_CURVE('',#261,#262,#129,.T.);
#302=EDGE_CURVE('',#263,#262,#360,.T.);
#303=EDGE_CURVE('',#263,#264,#130,.T.);
#304=EDGE_CURVE('',#265,#264,#361,.T.);
#305=EDGE_CURVE('',#265,#259,#131,.T.);
#306=EDGE_CURVE('',#266,#267,#362,.T.);
#307=EDGE_CURVE('',#266,#268,#132,.T.);
#308=EDGE_CURVE('',#269,#268,#363,.T.);
#309=EDGE_CURVE('',#269,#270,#364,.T.);
#310=EDGE_CURVE('',#270,#271,#365,.T.);
#311=EDGE_CURVE('',#271,#272,#366,.T.);
#312=EDGE_CURVE('',#272,#267,#367,.T.);
#313=EDGE_CURVE('',#273,#274,#368,.T.);
#314=EDGE_CURVE('',#274,#275,#369,.T.);
#315=EDGE_CURVE('',#275,#276,#370,.T.);
#316=EDGE_CURVE('',#276,#277,#371,.T.);
#317=EDGE_CURVE('',#278,#277,#372,.T.);
#318=EDGE_CURVE('',#278,#273,#373,.T.);
#319=EDGE_CURVE('',#277,#279,#374,.T.);
#320=EDGE_CURVE('',#279,#280,#375,.T.);
#321=EDGE_CURVE('',#281,#280,#376,.T.);
#322=EDGE_CURVE('',#281,#278,#377,.T.);
#323=EDGE_CURVE('',#282,#283,#378,.T.);
#324=EDGE_CURVE('',#284,#282,#379,.T.);
#325=EDGE_CURVE('',#285,#284,#380,.T.);
#326=EDGE_CURVE('',#285,#281,#381,.T.);
#327=EDGE_CURVE('',#280,#283,#382,.T.);
#328=EDGE_CURVE('',#273,#285,#383,.T.);
#329=EDGE_CURVE('',#286,#287,#384,.T.);
#330=EDGE_CURVE('',#287,#274,#385,.T.);
#331=EDGE_CURVE('',#286,#284,#386,.T.);
#332=EDGE_CURVE('',#283,#269,#387,.T.);
#333=EDGE_CURVE('',#279,#270,#388,.T.);
#334=EDGE_CURVE('',#275,#272,#389,.T.);
#335=EDGE_CURVE('',#271,#276,#390,.T.);
#336=EDGE_CURVE('',#267,#287,#391,.T.);
#337=EDGE_CURVE('',#286,#288,#392,.T.);
#338=EDGE_CURVE('',#288,#266,#393,.T.);
#339=EDGE_CURVE('',#268,#289,#394,.T.);
#340=EDGE_CURVE('',#289,#282,#395,.T.);
#341=EDGE_CURVE('',#289,#288,#133,.T.);
#342=EDGE_CURVE('',#259,#290,#396,.T.);
#343=EDGE_CURVE('',#290,#291,#397,.T.);
#344=EDGE_CURVE('',#291,#258,#398,.T.);
#345=EDGE_CURVE('',#260,#292,#399,.T.);
#346=EDGE_CURVE('',#292,#293,#400,.T.);
#347=EDGE_CURVE('',#293,#261,#401,.T.);
#348=EDGE_CURVE('',#294,#295,#402,.T.);
#349=EDGE_CURVE('',#295,#263,#403,.T.);
#350=EDGE_CURVE('',#262,#294,#404,.T.);
#351=EDGE_CURVE('',#290,#296,#134,.T.);
#352=EDGE_CURVE('',#297,#296,#405,.T.);
#353=EDGE_CURVE('',#297,#295,#135,.T.);
#354=EDGE_CURVE('',#294,#293,#136,.T.);
#355=EDGE_CURVE('',#292,#291,#137,.T.);
#356=EDGE_CURVE('',#296,#265,#406,.T.);
#357=EDGE_CURVE('',#264,#297,#407,.T.);
#358=LINE('',#611,#408);
#359=LINE('',#616,#409);
#360=LINE('',#620,#410);
#361=LINE('',#624,#411);
#362=LINE('',#627,#412);
#363=LINE('',#632,#413);
#364=LINE('',#634,#414);
#365=LINE('',#636,#415);
#366=LINE('',#638,#416);
#367=LINE('',#640,#417);
#368=LINE('',#642,#418);
#369=LINE('',#645,#419);
#370=LINE('',#647,#420);
#371=LINE('',#649,#421);
#372=LINE('',#651,#422);
#373=LINE('',#653,#423);
#374=LINE('',#655,#424);
#375=LINE('',#657,#425);
#376=LINE('',#659,#426);
#377=LINE('',#661,#427);
#378=LINE('',#663,#428);
#379=LINE('',#666,#429);
#380=LINE('',#668,#430);
#381=LINE('',#670,#431);
#382=LINE('',#671,#432);
#383=LINE('',#673,#433);
#384=LINE('',#675,#434);
#385=LINE('',#678,#435);
#386=LINE('',#679,#436);
#387=LINE('',#681,#437);
#388=LINE('',#682,#438);
#389=LINE('',#684,#439);
#390=LINE('',#685,#440);
#391=LINE('',#688,#441);
#392=LINE('',#690,#442);
#393=LINE('',#692,#443);
#394=LINE('',#694,#444);
#395=LINE('',#696,#445);
#396=LINE('',#701,#446);
#397=LINE('',#703,#447);
#398=LINE('',#705,#448);
#399=LINE('',#707,#449);
#400=LINE('',#709,#450);
#401=LINE('',#711,#451);
#402=LINE('',#713,#452);
#403=LINE('',#716,#453);
#404=LINE('',#717,#454);
#405=LINE('',#721,#455);
#406=LINE('',#727,#456);
#407=LINE('',#728,#457);
#408=VECTOR('',#494,1.);
#409=VECTOR('',#497,1.);
#410=VECTOR('',#500,1.);
#411=VECTOR('',#503,1.);
#412=VECTOR('',#506,1.);
#413=VECTOR('',#509,1.);
#414=VECTOR('',#510,1.);
#415=VECTOR('',#511,1.);
#416=VECTOR('',#512,1.);
#417=VECTOR('',#513,1.);
#418=VECTOR('',#516,1.);
#419=VECTOR('',#517,1.);
#420=VECTOR('',#518,1.);
#421=VECTOR('',#519,1.);
#422=VECTOR('',#520,1.);
#423=VECTOR('',#521,1.);
#424=VECTOR('',#524,1.);
#425=VECTOR('',#525,1.);
#426=VECTOR('',#526,1.);
#427=VECTOR('',#527,1.);
#428=VECTOR('',#530,1.);
#429=VECTOR('',#531,1.);
#430=VECTOR('',#532,1.);
#431=VECTOR('',#533,1.);
#432=VECTOR('',#534,1.);
#433=VECTOR('',#537,1.);
#434=VECTOR('',#540,1.);
#435=VECTOR('',#541,1.);
#436=VECTOR('',#542,1.);
#437=VECTOR('',#545,1.);
#438=VECTOR('',#546,1.);
#439=VECTOR('',#549,1.);
#440=VECTOR('',#550,1.);
#441=VECTOR('',#555,1.);
#442=VECTOR('',#558,1.);
#443=VECTOR('',#559,1.);
#444=VECTOR('',#562,1.);
#445=VECTOR('',#563,1.);
#446=VECTOR('',#572,1.);
#447=VECTOR('',#573,1.);
#448=VECTOR('',#574,1.);
#449=VECTOR('',#577,1.);
#450=VECTOR('',#578,1.);
#451=VECTOR('',#579,1.);
#452=VECTOR('',#582,1.);
#453=VECTOR('',#583,1.);
#454=VECTOR('',#584,1.);
#455=VECTOR('',#589,1.);
#456=VECTOR('',#598,1.);
#457=VECTOR('',#599,1.);
#458=AXIS2_PLACEMENT_3D('',#610,#492,#493);
#459=AXIS2_PLACEMENT_3D('',#614,#495,#496);
#460=AXIS2_PLACEMENT_3D('',#618,#498,#499);
#461=AXIS2_PLACEMENT_3D('',#622,#501,#502);
#462=AXIS2_PLACEMENT_3D('',#626,#504,#505);
#463=AXIS2_PLACEMENT_3D('',#630,#507,#508);
#464=AXIS2_PLACEMENT_3D('',#641,#514,#515);
#465=AXIS2_PLACEMENT_3D('',#654,#522,#523);
#466=AXIS2_PLACEMENT_3D('',#662,#528,#529);
#467=AXIS2_PLACEMENT_3D('',#672,#535,#536);
#468=AXIS2_PLACEMENT_3D('',#674,#538,#539);
#469=AXIS2_PLACEMENT_3D('',#680,#543,#544);
#470=AXIS2_PLACEMENT_3D('',#683,#547,#548);
#471=AXIS2_PLACEMENT_3D('',#686,#551,#552);
#472=AXIS2_PLACEMENT_3D('',#687,#553,#554);
#473=AXIS2_PLACEMENT_3D('',#689,#556,#557);
#474=AXIS2_PLACEMENT_3D('',#693,#560,#561);
#475=AXIS2_PLACEMENT_3D('',#697,#564,#565);
#476=AXIS2_PLACEMENT_3D('',#698,#566,#567);
#477=AXIS2_PLACEMENT_3D('',#699,#568,#569);
#478=AXIS2_PLACEMENT_3D('',#700,#570,#571);
#479=AXIS2_PLACEMENT_3D('',#706,#575,#576);
#480=AXIS2_PLACEMENT_3D('',#712,#580,#581);
#481=AXIS2_PLACEMENT_3D('',#718,#585,#586);
#482=AXIS2_PLACEMENT_3D('',#719,#587,#588);
#483=AXIS2_PLACEMENT_3D('',#723,#590,#591);
#484=AXIS2_PLACEMENT_3D('',#724,#592,#593);
#485=AXIS2_PLACEMENT_3D('',#725,#594,#595);
#486=AXIS2_PLACEMENT_3D('',#726,#596,#597);
#487=AXIS2_PLACEMENT_3D('',#729,#600,#601);
#488=AXIS2_PLACEMENT_3D('',#730,#602,#603);
#489=AXIS2_PLACEMENT_3D('',#731,#604,#605);
#490=AXIS2_PLACEMENT_3D('',#732,#606,#607);
#491=AXIS2_PLACEMENT_3D('',#733,#608,#609);
#492=DIRECTION('',(0.,0.,1.));
#493=DIRECTION('',(1.,0.,0.));
#494=DIRECTION('',(1.,0.,0.));
#495=DIRECTION('',(0.,0.,-1.));
#496=DIRECTION('',(1.,0.,0.));
#497=DIRECTION('',(0.,-1.,0.));
#498=DIRECTION('',(0.,0.,-1.));
#499=DIRECTION('',(1.,0.,0.));
#500=DIRECTION('',(-1.,0.,0.));
#501=DIRECTION('',(0.,0.,-1.));
#502=DIRECTION('',(1.,0.,0.));
#503=DIRECTION('',(0.,1.,0.));
#504=DIRECTION('',(0.,0.,-1.));
#505=DIRECTION('',(1.,0.,0.));
#506=DIRECTION('',(1.,0.,0.));
#507=DIRECTION('',(0.,0.,-1.));
#508=DIRECTION('',(0.999999999999999,0.,0.));
#509=DIRECTION('',(0.,-1.,0.));
#510=DIRECTION('',(-1.,0.,0.));
#511=DIRECTION('',(0.,-1.,0.));
#512=DIRECTION('',(1.,0.,0.));
#513=DIRECTION('',(0.,1.,0.));
#514=DIRECTION('',(0.,0.,1.));
#515=DIRECTION('',(1.,0.,0.));
#516=DIRECTION('',(0.,0.,1.));
#517=DIRECTION('',(-0.707106781186547,0.,0.707106781186548));
#518=DIRECTION('',(-1.,0.,0.));
#519=DIRECTION('',(-0.707106781186548,0.,-0.707106781186548));
#520=DIRECTION('',(0.,0.,1.));
#521=DIRECTION('',(1.,0.,0.));
#522=DIRECTION('',(0.,-1.,0.));
#523=DIRECTION('',(0.,0.,-1.));
#524=DIRECTION('',(0.,1.,0.));
#525=DIRECTION('',(0.,0.707106781186547,-0.707106781186548));
#526=DIRECTION('',(0.,0.,1.));
#527=DIRECTION('',(0.,-1.,0.));
#528=DIRECTION('',(-1.,0.,0.));
#529=DIRECTION('',(0.,0.,1.));
#530=DIRECTION('',(0.,0.,1.));
#531=DIRECTION('',(-1.,0.,0.));
#532=DIRECTION('',(0.,0.,1.));
#533=DIRECTION('',(-1.,0.,0.));
#534=DIRECTION('',(1.,0.,0.));
#535=DIRECTION('',(0.,1.,0.));
#536=DIRECTION('',(0.,0.,1.));
#537=DIRECTION('',(0.,1.,0.));
#538=DIRECTION('',(0.,0.,-1.));
#539=DIRECTION('',(-1.,0.,0.));
#540=DIRECTION('',(0.,0.,1.));
#541=DIRECTION('',(0.,-1.,0.));
#542=DIRECTION('',(0.,1.,0.));
#543=DIRECTION('',(1.,0.,0.));
#544=DIRECTION('',(0.,0.,-1.));
#545=DIRECTION('',(0.,-0.707106781186547,0.707106781186548));
#546=DIRECTION('',(0.577350269189626,-0.577350269189625,0.577350269189626));
#547=DIRECTION('',(0.,-0.707106781186548,-0.707106781186547));
#548=DIRECTION('',(1.,0.,0.));
#549=DIRECTION('',(-0.577350269189626,0.577350269189626,0.577350269189626));
#550=DIRECTION('',(-0.577350269189626,-0.577350269189626,-0.577350269189626));
#551=DIRECTION('',(0.,0.707106781186547,-0.707106781186547));
#552=DIRECTION('',(-1.,0.,0.));
#553=DIRECTION('',(0.707106781186547,0.,-0.707106781186547));
#554=DIRECTION('',(0.,1.,0.));
#555=DIRECTION('',(0.707106781186547,0.,-0.707106781186548));
#556=DIRECTION('',(-0.707106781186548,0.,-0.707106781186547));
#557=DIRECTION('',(0.,-1.,0.));
#558=DIRECTION('',(-1.,0.,0.));
#559=DIRECTION('',(0.,0.,1.));
#560=DIRECTION('',(0.,-1.,0.));
#561=DIRECTION('',(0.,0.,-1.));
#562=DIRECTION('',(0.,0.,-1.));
#563=DIRECTION('',(0.,1.,0.));
#564=DIRECTION('',(-1.,0.,0.));
#565=DIRECTION('',(0.,0.,1.));
#566=DIRECTION('',(0.,0.,1.));
#567=DIRECTION('',(-0.999999999999999,0.,0.));
#568=DIRECTION('',(0.,0.,-1.));
#569=DIRECTION('',(-1.,0.,0.));
#570=DIRECTION('',(0.,0.,1.));
#571=DIRECTION('',(0.999999999999999,0.,0.));
#572=DIRECTION('',(0.,0.,-1.));
#573=DIRECTION('',(-1.,0.,0.));
#574=DIRECTION('',(0.,0.,1.));
#575=DIRECTION('',(0.,-1.,0.));
#576=DIRECTION('',(0.,0.,-1.));
#577=DIRECTION('',(0.,0.,-1.));
#578=DIRECTION('',(0.,1.,0.));
#579=DIRECTION('',(0.,0.,1.));
#580=DIRECTION('',(-1.,0.,0.));
#581=DIRECTION('',(0.,0.,1.));
#582=DIRECTION('',(1.,0.,0.));
#583=DIRECTION('',(0.,0.,1.));
#584=DIRECTION('',(0.,0.,-1.));
#585=DIRECTION('',(0.,1.,0.));
#586=DIRECTION('',(0.,0.,1.));
#587=DIRECTION('',(0.,0.,1.));
#588=DIRECTION('',(-1.,0.,0.));
#589=DIRECTION('',(0.,-1.,0.));
#590=DIRECTION('',(0.,0.,1.));
#591=DIRECTION('',(-1.,0.,0.));
#592=DIRECTION('',(0.,0.,1.));
#593=DIRECTION('',(-1.,0.,0.));
#594=DIRECTION('',(0.,0.,1.));
#595=DIRECTION('',(-1.,0.,0.));
#596=DIRECTION('',(0.,0.,-1.));
#597=DIRECTION('',(-1.,0.,0.));
#598=DIRECTION('',(0.,0.,1.));
#599=DIRECTION('',(0.,0.,-1.));
#600=DIRECTION('',(1.,0.,0.));
#601=DIRECTION('',(0.,0.,-1.));
#602=DIRECTION('',(0.,0.,1.));
#603=DIRECTION('',(1.,0.,0.));
#604=DIRECTION('',(0.,0.,1.));
#605=DIRECTION('',(1.,0.,0.));
#606=DIRECTION('',(0.,0.,1.));
#607=DIRECTION('',(1.,0.,0.));
#608=DIRECTION('',(0.,0.,1.));
#609=DIRECTION('',(1.,0.,0.));
#610=CARTESIAN_POINT('',(0.,0.,0.));
#611=CARTESIAN_POINT('',(181.35,275.2,100.6));
#612=CARTESIAN_POINT('',(122.8,275.2,100.6));
#613=CARTESIAN_POINT('',(190.5,275.2,100.6));
#614=CARTESIAN_POINT('',(122.8,287.2,100.6));
#615=CARTESIAN_POINT('',(110.8,287.2,100.6));
#616=CARTESIAN_POINT('',(110.8,203.55,100.6));
#617=CARTESIAN_POINT('',(110.8,354.2,100.6));
#618=CARTESIAN_POINT('',(122.8,354.2,100.6));
#619=CARTESIAN_POINT('',(122.8,366.2,100.6));
#620=CARTESIAN_POINT('',(181.35,366.2,100.6));
#621=CARTESIAN_POINT('',(190.5,366.2,100.6));
#622=CARTESIAN_POINT('',(190.5,354.2,100.6));
#623=CARTESIAN_POINT('',(202.5,354.2,100.6));
#624=CARTESIAN_POINT('',(202.5,203.55,100.6));
#625=CARTESIAN_POINT('',(202.5,287.2,100.6));
#626=CARTESIAN_POINT('',(190.5,287.2,100.6));
#627=CARTESIAN_POINT('',(181.35,267.3,100.6));
#628=CARTESIAN_POINT('',(263.2,267.3,100.6));
#629=CARTESIAN_POINT('',(345.4,267.3,100.6));
#630=CARTESIAN_POINT('',(263.2,279.5,100.6));
#631=CARTESIAN_POINT('',(251.,279.5,100.6));
#632=CARTESIAN_POINT('',(251.,203.55,100.6));
#633=CARTESIAN_POINT('',(251.,391.8,100.6));
#634=CARTESIAN_POINT('',(181.35,391.8,100.6));
#635=CARTESIAN_POINT('',(4.8,391.8,100.6));
#636=CARTESIAN_POINT('',(4.8,203.55,100.6));
#637=CARTESIAN_POINT('',(4.8,3.,100.6));
#638=CARTESIAN_POINT('',(181.35,3.,100.6));
#639=CARTESIAN_POINT('',(345.4,3.,100.6));
#640=CARTESIAN_POINT('',(345.4,203.55,100.6));
#641=CARTESIAN_POINT('',(181.35,203.55,100.6));
#642=CARTESIAN_POINT('',(362.7,0.,0.));
#643=CARTESIAN_POINT('',(362.7,0.,0.));
#644=CARTESIAN_POINT('',(362.7,0.,83.3));
#645=CARTESIAN_POINT('',(313.675,0.,132.325));
#646=CARTESIAN_POINT('',(348.4,0.,97.6));
#647=CARTESIAN_POINT('',(181.35,0.,97.6));
#648=CARTESIAN_POINT('',(1.8,0.,97.6));
#649=CARTESIAN_POINT('',(42.775,0.,138.575));
#650=CARTESIAN_POINT('',(0.,0.,95.8));
#651=CARTESIAN_POINT('',(0.,0.,0.));
#652=CARTESIAN_POINT('',(0.,0.,0.));
#653=CARTESIAN_POINT('',(181.35,0.,0.));
#654=CARTESIAN_POINT('',(181.35,0.,0.));
#655=CARTESIAN_POINT('',(0.,203.55,95.8));
#656=CARTESIAN_POINT('',(0.,396.6,95.8));
#657=CARTESIAN_POINT('',(0.,347.975,144.425));
#658=CARTESIAN_POINT('',(0.,407.1,85.3));
#659=CARTESIAN_POINT('',(0.,407.1,0.));
#660=CARTESIAN_POINT('',(0.,407.1,0.));
#661=CARTESIAN_POINT('',(0.,203.55,0.));
#662=CARTESIAN_POINT('',(0.,203.55,0.));
#663=CARTESIAN_POINT('',(251.,407.1,62.7));
#664=CARTESIAN_POINT('',(251.,407.1,62.7));
#665=CARTESIAN_POINT('',(251.,407.1,85.2999999999999));
#666=CARTESIAN_POINT('',(306.85,407.1,62.7));
#667=CARTESIAN_POINT('',(362.7,407.1,62.7));
#668=CARTESIAN_POINT('',(362.7,407.1,0.));
#669=CARTESIAN_POINT('',(362.7,407.1,0.));
#670=CARTESIAN_POINT('',(181.35,407.1,0.));
#671=CARTESIAN_POINT('',(181.35,407.1,85.3));
#672=CARTESIAN_POINT('',(181.35,407.1,0.));
#673=CARTESIAN_POINT('',(362.7,203.55,0.));
#674=CARTESIAN_POINT('',(181.35,203.55,0.));
#675=CARTESIAN_POINT('',(362.7,267.3,62.7));
#676=CARTESIAN_POINT('',(362.7,267.3,62.7));
#677=CARTESIAN_POINT('',(362.7,267.3,83.3));
#678=CARTESIAN_POINT('',(362.7,203.55,83.3));
#679=CARTESIAN_POINT('',(362.7,337.2,62.7));
#680=CARTESIAN_POINT('',(362.7,203.55,0.));
#681=CARTESIAN_POINT('',(251.,407.1,85.3));
#682=CARTESIAN_POINT('',(53.4500000000001,343.15,149.25));
#683=CARTESIAN_POINT('',(181.35,407.1,85.3));
#684=CARTESIAN_POINT('',(292.716666666667,55.6833333333333,153.283333333333));
#685=CARTESIAN_POINT('',(61.65,59.85,157.45));
#686=CARTESIAN_POINT('',(181.35,0.,97.6));
#687=CARTESIAN_POINT('',(0.,203.55,95.8));
#688=CARTESIAN_POINT('',(362.7,267.3,83.3));
#689=CARTESIAN_POINT('',(362.7,203.55,83.3));
#690=CARTESIAN_POINT('',(306.85,267.3,62.7));
#691=CARTESIAN_POINT('',(263.2,267.3,62.7));
#692=CARTESIAN_POINT('',(263.2,267.3,100.6));
#693=CARTESIAN_POINT('',(306.85,267.3,62.7));
#694=CARTESIAN_POINT('',(251.,279.5,62.7));
#695=CARTESIAN_POINT('',(251.,279.5,62.7));
#696=CARTESIAN_POINT('',(251.,337.2,62.7));
#697=CARTESIAN_POINT('',(251.,337.2,62.7));
#698=CARTESIAN_POINT('',(263.2,279.5,62.7));
#699=CARTESIAN_POINT('',(306.85,337.2,62.7));
#700=CARTESIAN_POINT('',(263.2,279.5,62.7));
#701=CARTESIAN_POINT('',(190.5,275.2,62.7));
#702=CARTESIAN_POINT('',(190.5,275.2,62.7));
#703=CARTESIAN_POINT('',(156.65,275.2,62.7));
#704=CARTESIAN_POINT('',(122.8,275.2,62.7));
#705=CARTESIAN_POINT('',(122.8,275.2,100.6));
#706=CARTESIAN_POINT('',(156.65,275.2,62.7));
#707=CARTESIAN_POINT('',(110.8,287.2,62.7));
#708=CARTESIAN_POINT('',(110.8,287.2,62.7));
#709=CARTESIAN_POINT('',(110.8,320.7,62.7));
#710=CARTESIAN_POINT('',(110.8,354.2,62.7));
#711=CARTESIAN_POINT('',(110.8,354.2,100.6));
#712=CARTESIAN_POINT('',(110.8,320.7,62.7));
#713=CARTESIAN_POINT('',(156.65,366.2,62.7));
#714=CARTESIAN_POINT('',(122.8,366.2,62.7));
#715=CARTESIAN_POINT('',(190.5,366.2,62.7));
#716=CARTESIAN_POINT('',(190.5,366.2,100.6));
#717=CARTESIAN_POINT('',(122.8,366.2,62.7));
#718=CARTESIAN_POINT('',(156.65,366.2,62.7));
#719=CARTESIAN_POINT('',(190.5,287.2,62.7));
#720=CARTESIAN_POINT('',(202.5,287.2,62.7));
#721=CARTESIAN_POINT('',(202.5,320.7,62.7));
#722=CARTESIAN_POINT('',(202.5,354.2,62.7));
#723=CARTESIAN_POINT('',(190.5,354.2,62.7));
#724=CARTESIAN_POINT('',(122.8,354.2,62.7));
#725=CARTESIAN_POINT('',(122.8,287.2,62.7));
#726=CARTESIAN_POINT('',(156.65,320.7,62.7));
#727=CARTESIAN_POINT('',(202.5,287.2,100.6));
#728=CARTESIAN_POINT('',(202.5,354.2,62.7));
#729=CARTESIAN_POINT('',(202.5,320.7,62.7));
#730=CARTESIAN_POINT('',(190.5,287.2,62.7));
#731=CARTESIAN_POINT('',(190.5,354.2,62.7));
#732=CARTESIAN_POINT('',(122.8,287.2,62.7));
#733=CARTESIAN_POINT('',(122.8,354.2,62.7));
#734=MECHANICAL_DESIGN_GEOMETRIC_PRESENTATION_REPRESENTATION('',(#24),#735);
#735=(
GEOMETRIC_REPRESENTATION_CONTEXT(3)
GLOBAL_UNCERTAINTY_ASSIGNED_CONTEXT((#736))
GLOBAL_UNIT_ASSIGNED_CONTEXT((#742,#738,#737))
REPRESENTATION_CONTEXT('featured_part_02482','TOP_LEVEL_ASSEMBLY_PART')
);
#736=UNCERTAINTY_MEASURE_WITH_UNIT(LENGTH_MEASURE(2.E-5),#742,
'DISTANCE_ACCURACY_VALUE','Maximum Tolerance applied to model');
#737=(
NAMED_UNIT(*)
SI_UNIT($,.STERADIAN.)
SOLID_ANGLE_UNIT()
);
#738=(
CONVERSION_BASED_UNIT('DEGREE',#740)
NAMED_UNIT(#739)
PLANE_ANGLE_UNIT()
);
#739=DIMENSIONAL_EXPONENTS(0.,0.,0.,0.,0.,0.,0.);
#740=PLANE_ANGLE_MEASURE_WITH_UNIT(PLANE_ANGLE_MEASURE(0.0174532925),#741);
#741=(
NAMED_UNIT(*)
PLANE_ANGLE_UNIT()
SI_UNIT($,.RADIAN.)
);
#742=(
LENGTH_UNIT()
NAMED_UNIT(*)
SI_UNIT(.MILLI.,.METRE.)
);
ENDSEC;
END-ISO-10303-21;
