ISO-10303-21;
HEADER;
/* Generated by software containing ST-Developer
 * from STEP Tools, Inc. (www.steptools.com) 
 */
/* OPTION: using custom schema-name function */

FILE_DESCRIPTION(
/* description */ (''),
/* implementation_level */ '2;1');

FILE_NAME(
/* name */ 'featured_part_07511.stp',
/* time_stamp */ '2026-07-10T05:44:30-04:00',
/* author */ (''),
/* organization */ (''),
/* preprocessor_version */ 'ST-DEVELOPER v20.1',
/* originating_system */ 'SIEMENS PLM Software NX2512.6002',
/* authorisation */ '');

FILE_SCHEMA (('AUTOMOTIVE_DESIGN { 1 0 10303 214 3 1 1 1 }'));
ENDSEC;

DATA;
#10=SHAPE_REPRESENTATION_RELATIONSHIP('None',
'relationship between featured_part_07511-None and featured_part_07511
-None',#22,#11);
#11=ADVANCED_BREP_SHAPE_REPRESENTATION('featured_part_07511-None',(#32),
#724);
#12=SHAPE_DEFINITION_REPRESENTATION(#13,#22);
#13=PRODUCT_DEFINITION_SHAPE('','',#14);
#14=PRODUCT_DEFINITION(' ','',#16,#15);
#15=PRODUCT_DEFINITION_CONTEXT('part definition',#21,'design');
#16=PRODUCT_DEFINITION_FORMATION_WITH_SPECIFIED_SOURCE(' ',' ',#18,
 .NOT_KNOWN.);
#17=PRODUCT_RELATED_PRODUCT_CATEGORY('part','',(#18));
#18=PRODUCT('featured_part_07511','featured_part_07511',' ',(#19));
#19=PRODUCT_CONTEXT(' ',#21,'mechanical');
#20=APPLICATION_PROTOCOL_DEFINITION('international standard',
'automotive_design',2010,#21);
#21=APPLICATION_CONTEXT(
'core data for automotive mechanical design processes');
#22=SHAPE_REPRESENTATION('featured_part_07511-None',(#446),#724);
#23=PRESENTATION_LAYER_ASSIGNMENT('1','Layer 1',(#32));
#24=STYLED_ITEM('',(#25),#32);
#25=PRESENTATION_STYLE_ASSIGNMENT((#26));
#26=SURFACE_STYLE_USAGE(.BOTH.,#27);
#27=SURFACE_SIDE_STYLE('',(#28));
#28=SURFACE_STYLE_FILL_AREA(#29);
#29=FILL_AREA_STYLE('',(#30));
#30=FILL_AREA_STYLE_COLOUR('',#31);
#31=COLOUR_RGB('medium steel',0.611764705882353,0.658823529411765,0.670588235294118);
#32=MANIFOLD_SOLID_BREP('',#33);
#33=CLOSED_SHELL('',(#62,#63,#64,#65,#66,#67,#68,#69,#70,#71,#72,#73,#74,
#75,#76,#77,#78,#79,#80,#81,#82,#83,#84));
#34=CYLINDRICAL_SURFACE('',#471,14.3);
#35=CYLINDRICAL_SURFACE('',#472,14.3);
#36=CYLINDRICAL_SURFACE('',#473,14.3);
#37=CYLINDRICAL_SURFACE('',#474,14.3);
#38=CYLINDRICAL_SURFACE('',#479,7.8);
#39=CYLINDRICAL_SURFACE('',#482,3.1);
#40=ELLIPSE('',#460,4.3840620433566,3.1);
#41=FACE_OUTER_BOUND('',#108,.T.);
#42=FACE_OUTER_BOUND('',#109,.T.);
#43=FACE_OUTER_BOUND('',#110,.T.);
#44=FACE_OUTER_BOUND('',#111,.T.);
#45=FACE_OUTER_BOUND('',#112,.T.);
#46=FACE_OUTER_BOUND('',#113,.T.);
#47=FACE_OUTER_BOUND('',#114,.T.);
#48=FACE_OUTER_BOUND('',#115,.T.);
#49=FACE_OUTER_BOUND('',#116,.T.);
#50=FACE_OUTER_BOUND('',#117,.T.);
#51=FACE_OUTER_BOUND('',#118,.T.);
#52=FACE_OUTER_BOUND('',#119,.T.);
#53=FACE_OUTER_BOUND('',#120,.T.);
#54=FACE_OUTER_BOUND('',#121,.T.);
#55=FACE_OUTER_BOUND('',#122,.T.);
#56=FACE_OUTER_BOUND('',#123,.T.);
#57=FACE_OUTER_BOUND('',#124,.T.);
#58=FACE_OUTER_BOUND('',#125,.T.);
#59=FACE_OUTER_BOUND('',#126,.T.);
#60=FACE_OUTER_BOUND('',#127,.T.);
#61=FACE_OUTER_BOUND('',#128,.T.);
#62=ADVANCED_FACE('',(#102,#103),#85,.T.);
#63=ADVANCED_FACE('',(#41),#86,.T.);
#64=ADVANCED_FACE('',(#42),#87,.T.);
#65=ADVANCED_FACE('',(#43),#88,.T.);
#66=ADVANCED_FACE('',(#44),#89,.T.);
#67=ADVANCED_FACE('',(#45),#90,.T.);
#68=ADVANCED_FACE('',(#46),#91,.F.);
#69=ADVANCED_FACE('',(#47),#92,.F.);
#70=ADVANCED_FACE('',(#48),#93,.F.);
#71=ADVANCED_FACE('',(#49),#94,.F.);
#72=ADVANCED_FACE('',(#50),#95,.F.);
#73=ADVANCED_FACE('',(#51),#96,.F.);
#74=ADVANCED_FACE('',(#52),#97,.F.);
#75=ADVANCED_FACE('',(#53),#34,.F.);
#76=ADVANCED_FACE('',(#54),#35,.F.);
#77=ADVANCED_FACE('',(#55),#36,.F.);
#78=ADVANCED_FACE('',(#56),#37,.F.);
#79=ADVANCED_FACE('',(#57),#98,.F.);
#80=ADVANCED_FACE('',(#58),#99,.F.);
#81=ADVANCED_FACE('',(#59),#100,.F.);
#82=ADVANCED_FACE('',(#60),#38,.F.);
#83=ADVANCED_FACE('',(#61),#101,.F.);
#84=ADVANCED_FACE('',(#104,#105),#39,.F.);
#85=PLANE('',#453);
#86=PLANE('',#454);
#87=PLANE('',#455);
#88=PLANE('',#456);
#89=PLANE('',#457);
#90=PLANE('',#458);
#91=PLANE('',#459);
#92=PLANE('',#461);
#93=PLANE('',#462);
#94=PLANE('',#463);
#95=PLANE('',#464);
#96=PLANE('',#469);
#97=PLANE('',#470);
#98=PLANE('',#475);
#99=PLANE('',#477);
#100=PLANE('',#478);
#101=PLANE('',#481);
#102=FACE_BOUND('',#106,.T.);
#103=FACE_BOUND('',#107,.T.);
#104=FACE_BOUND('',#129,.T.);
#105=FACE_BOUND('',#130,.T.);
#106=EDGE_LOOP('',(#221,#222,#223,#224,#225,#226,#227,#228,#229));
#107=EDGE_LOOP('',(#230,#231,#232,#233,#234,#235,#236,#237));
#108=EDGE_LOOP('',(#238,#239,#240,#241,#242,#243));
#109=EDGE_LOOP('',(#244,#245,#246,#247,#248,#249,#250));
#110=EDGE_LOOP('',(#251,#252,#253,#254));
#111=EDGE_LOOP('',(#255,#256,#257,#258));
#112=EDGE_LOOP('',(#259,#260,#261,#262,#263));
#113=EDGE_LOOP('',(#264,#265,#266,#267));
#114=EDGE_LOOP('',(#268,#269,#270,#271,#272,#273,#274));
#115=EDGE_LOOP('',(#275,#276,#277,#278));
#116=EDGE_LOOP('',(#279,#280,#281,#282));
#117=EDGE_LOOP('',(#283,#284,#285,#286));
#118=EDGE_LOOP('',(#287,#288,#289,#290,#291,#292,#293,#294));
#119=EDGE_LOOP('',(#295,#296,#297,#298));
#120=EDGE_LOOP('',(#299,#300,#301,#302));
#121=EDGE_LOOP('',(#303,#304,#305,#306));
#122=EDGE_LOOP('',(#307,#308,#309,#310));
#123=EDGE_LOOP('',(#311,#312,#313,#314));
#124=EDGE_LOOP('',(#315,#316,#317,#318,#319));
#125=EDGE_LOOP('',(#320,#321,#322,#323,#324));
#126=EDGE_LOOP('',(#325,#326,#327,#328));
#127=EDGE_LOOP('',(#329,#330,#331,#332));
#128=EDGE_LOOP('',(#333));
#129=EDGE_LOOP('',(#334,#335));
#130=EDGE_LOOP('',(#336));
#131=LINE('',#606,#176);
#132=LINE('',#608,#177);
#133=LINE('',#610,#178);
#134=LINE('',#614,#179);
#135=LINE('',#616,#180);
#136=LINE('',#618,#181);
#137=LINE('',#620,#182);
#138=LINE('',#621,#183);
#139=LINE('',#626,#184);
#140=LINE('',#630,#185);
#141=LINE('',#634,#186);
#142=LINE('',#638,#187);
#143=LINE('',#641,#188);
#144=LINE('',#643,#189);
#145=LINE('',#645,#190);
#146=LINE('',#646,#191);
#147=LINE('',#648,#192);
#148=LINE('',#651,#193);
#149=LINE('',#653,#194);
#150=LINE('',#655,#195);
#151=LINE('',#657,#196);
#152=LINE('',#658,#197);
#153=LINE('',#660,#198);
#154=LINE('',#662,#199);
#155=LINE('',#664,#200);
#156=LINE('',#666,#201);
#157=LINE('',#668,#202);
#158=LINE('',#670,#203);
#159=LINE('',#671,#204);
#160=LINE('',#675,#205);
#161=LINE('',#678,#206);
#162=LINE('',#679,#207);
#163=LINE('',#681,#208);
#164=LINE('',#683,#209);
#165=LINE('',#685,#210);
#166=LINE('',#687,#211);
#167=LINE('',#690,#212);
#168=LINE('',#691,#213);
#169=LINE('',#693,#214);
#170=LINE('',#701,#215);
#171=LINE('',#702,#216);
#172=LINE('',#708,#217);
#173=LINE('',#710,#218);
#174=LINE('',#712,#219);
#175=LINE('',#716,#220);
#176=VECTOR('',#487,1.);
#177=VECTOR('',#488,1.);
#178=VECTOR('',#489,1.);
#179=VECTOR('',#492,1.);
#180=VECTOR('',#493,1.);
#181=VECTOR('',#494,1.);
#182=VECTOR('',#495,1.);
#183=VECTOR('',#496,1.);
#184=VECTOR('',#499,1.);
#185=VECTOR('',#502,1.);
#186=VECTOR('',#505,1.);
#187=VECTOR('',#510,1.);
#188=VECTOR('',#511,1.);
#189=VECTOR('',#512,1.);
#190=VECTOR('',#513,1.);
#191=VECTOR('',#514,1.);
#192=VECTOR('',#517,1.);
#193=VECTOR('',#518,1.);
#194=VECTOR('',#519,1.);
#195=VECTOR('',#520,1.);
#196=VECTOR('',#521,1.);
#197=VECTOR('',#522,1.);
#198=VECTOR('',#525,1.);
#199=VECTOR('',#526,1.);
#200=VECTOR('',#527,1.);
#201=VECTOR('',#530,1.);
#202=VECTOR('',#533,1.);
#203=VECTOR('',#536,1.);
#204=VECTOR('',#537,1.);
#205=VECTOR('',#544,1.);
#206=VECTOR('',#545,1.);
#207=VECTOR('',#546,1.);
#208=VECTOR('',#549,1.);
#209=VECTOR('',#550,1.);
#210=VECTOR('',#551,1.);
#211=VECTOR('',#554,1.);
#212=VECTOR('',#555,1.);
#213=VECTOR('',#556,1.);
#214=VECTOR('',#559,1.);
#215=VECTOR('',#570,1.);
#216=VECTOR('',#571,1.);
#217=VECTOR('',#582,1.);
#218=VECTOR('',#583,1.);
#219=VECTOR('',#586,1.);
#220=VECTOR('',#591,1.);
#221=ORIENTED_EDGE('',*,*,#376,.F.);
#222=ORIENTED_EDGE('',*,*,#377,.T.);
#223=ORIENTED_EDGE('',*,*,#378,.T.);
#224=ORIENTED_EDGE('',*,*,#379,.F.);
#225=ORIENTED_EDGE('',*,*,#380,.T.);
#226=ORIENTED_EDGE('',*,*,#381,.F.);
#227=ORIENTED_EDGE('',*,*,#382,.F.);
#228=ORIENTED_EDGE('',*,*,#383,.F.);
#229=ORIENTED_EDGE('',*,*,#384,.T.);
#230=ORIENTED_EDGE('',*,*,#385,.F.);
#231=ORIENTED_EDGE('',*,*,#386,.T.);
#232=ORIENTED_EDGE('',*,*,#387,.F.);
#233=ORIENTED_EDGE('',*,*,#388,.T.);
#234=ORIENTED_EDGE('',*,*,#389,.F.);
#235=ORIENTED_EDGE('',*,*,#390,.T.);
#236=ORIENTED_EDGE('',*,*,#391,.F.);
#237=ORIENTED_EDGE('',*,*,#392,.T.);
#238=ORIENTED_EDGE('',*,*,#393,.F.);
#239=ORIENTED_EDGE('',*,*,#394,.F.);
#240=ORIENTED_EDGE('',*,*,#395,.T.);
#241=ORIENTED_EDGE('',*,*,#396,.T.);
#242=ORIENTED_EDGE('',*,*,#382,.T.);
#243=ORIENTED_EDGE('',*,*,#397,.F.);
#244=ORIENTED_EDGE('',*,*,#398,.T.);
#245=ORIENTED_EDGE('',*,*,#399,.T.);
#246=ORIENTED_EDGE('',*,*,#400,.T.);
#247=ORIENTED_EDGE('',*,*,#401,.F.);
#248=ORIENTED_EDGE('',*,*,#402,.T.);
#249=ORIENTED_EDGE('',*,*,#394,.T.);
#250=ORIENTED_EDGE('',*,*,#403,.F.);
#251=ORIENTED_EDGE('',*,*,#401,.T.);
#252=ORIENTED_EDGE('',*,*,#404,.T.);
#253=ORIENTED_EDGE('',*,*,#405,.F.);
#254=ORIENTED_EDGE('',*,*,#406,.T.);
#255=ORIENTED_EDGE('',*,*,#407,.F.);
#256=ORIENTED_EDGE('',*,*,#395,.F.);
#257=ORIENTED_EDGE('',*,*,#402,.F.);
#258=ORIENTED_EDGE('',*,*,#406,.F.);
#259=ORIENTED_EDGE('',*,*,#405,.T.);
#260=ORIENTED_EDGE('',*,*,#408,.T.);
#261=ORIENTED_EDGE('',*,*,#383,.T.);
#262=ORIENTED_EDGE('',*,*,#396,.F.);
#263=ORIENTED_EDGE('',*,*,#407,.T.);
#264=ORIENTED_EDGE('',*,*,#409,.F.);
#265=ORIENTED_EDGE('',*,*,#378,.F.);
#266=ORIENTED_EDGE('',*,*,#410,.T.);
#267=ORIENTED_EDGE('',*,*,#399,.F.);
#268=ORIENTED_EDGE('',*,*,#411,.F.);
#269=ORIENTED_EDGE('',*,*,#384,.F.);
#270=ORIENTED_EDGE('',*,*,#408,.F.);
#271=ORIENTED_EDGE('',*,*,#404,.F.);
#272=ORIENTED_EDGE('',*,*,#400,.F.);
#273=ORIENTED_EDGE('',*,*,#410,.F.);
#274=ORIENTED_EDGE('',*,*,#377,.F.);
#275=ORIENTED_EDGE('',*,*,#412,.T.);
#276=ORIENTED_EDGE('',*,*,#413,.T.);
#277=ORIENTED_EDGE('',*,*,#385,.T.);
#278=ORIENTED_EDGE('',*,*,#414,.T.);
#279=ORIENTED_EDGE('',*,*,#387,.T.);
#280=ORIENTED_EDGE('',*,*,#415,.T.);
#281=ORIENTED_EDGE('',*,*,#416,.T.);
#282=ORIENTED_EDGE('',*,*,#417,.T.);
#283=ORIENTED_EDGE('',*,*,#418,.T.);
#284=ORIENTED_EDGE('',*,*,#419,.T.);
#285=ORIENTED_EDGE('',*,*,#389,.T.);
#286=ORIENTED_EDGE('',*,*,#420,.T.);
#287=ORIENTED_EDGE('',*,*,#421,.F.);
#288=ORIENTED_EDGE('',*,*,#422,.T.);
#289=ORIENTED_EDGE('',*,*,#418,.F.);
#290=ORIENTED_EDGE('',*,*,#423,.T.);
#291=ORIENTED_EDGE('',*,*,#416,.F.);
#292=ORIENTED_EDGE('',*,*,#424,.T.);
#293=ORIENTED_EDGE('',*,*,#412,.F.);
#294=ORIENTED_EDGE('',*,*,#425,.T.);
#295=ORIENTED_EDGE('',*,*,#391,.T.);
#296=ORIENTED_EDGE('',*,*,#426,.T.);
#297=ORIENTED_EDGE('',*,*,#421,.T.);
#298=ORIENTED_EDGE('',*,*,#427,.T.);
#299=ORIENTED_EDGE('',*,*,#390,.F.);
#300=ORIENTED_EDGE('',*,*,#419,.F.);
#301=ORIENTED_EDGE('',*,*,#422,.F.);
#302=ORIENTED_EDGE('',*,*,#426,.F.);
#303=ORIENTED_EDGE('',*,*,#386,.F.);
#304=ORIENTED_EDGE('',*,*,#413,.F.);
#305=ORIENTED_EDGE('',*,*,#424,.F.);
#306=ORIENTED_EDGE('',*,*,#415,.F.);
#307=ORIENTED_EDGE('',*,*,#392,.F.);
#308=ORIENTED_EDGE('',*,*,#427,.F.);
#309=ORIENTED_EDGE('',*,*,#425,.F.);
#310=ORIENTED_EDGE('',*,*,#414,.F.);
#311=ORIENTED_EDGE('',*,*,#388,.F.);
#312=ORIENTED_EDGE('',*,*,#417,.F.);
#313=ORIENTED_EDGE('',*,*,#423,.F.);
#314=ORIENTED_EDGE('',*,*,#420,.F.);
#315=ORIENTED_EDGE('',*,*,#428,.T.);
#316=ORIENTED_EDGE('',*,*,#429,.T.);
#317=ORIENTED_EDGE('',*,*,#379,.T.);
#318=ORIENTED_EDGE('',*,*,#409,.T.);
#319=ORIENTED_EDGE('',*,*,#398,.F.);
#320=ORIENTED_EDGE('',*,*,#430,.F.);
#321=ORIENTED_EDGE('',*,*,#431,.T.);
#322=ORIENTED_EDGE('',*,*,#428,.F.);
#323=ORIENTED_EDGE('',*,*,#403,.T.);
#324=ORIENTED_EDGE('',*,*,#393,.T.);
#325=ORIENTED_EDGE('',*,*,#381,.T.);
#326=ORIENTED_EDGE('',*,*,#432,.T.);
#327=ORIENTED_EDGE('',*,*,#430,.T.);
#328=ORIENTED_EDGE('',*,*,#397,.T.);
#329=ORIENTED_EDGE('',*,*,#380,.F.);
#330=ORIENTED_EDGE('',*,*,#429,.F.);
#331=ORIENTED_EDGE('',*,*,#431,.F.);
#332=ORIENTED_EDGE('',*,*,#432,.F.);
#333=ORIENTED_EDGE('',*,*,#433,.F.);
#334=ORIENTED_EDGE('',*,*,#376,.T.);
#335=ORIENTED_EDGE('',*,*,#411,.T.);
#336=ORIENTED_EDGE('',*,*,#433,.T.);
#337=VERTEX_POINT('',#604);
#338=VERTEX_POINT('',#605);
#339=VERTEX_POINT('',#607);
#340=VERTEX_POINT('',#609);
#341=VERTEX_POINT('',#611);
#342=VERTEX_POINT('',#613);
#343=VERTEX_POINT('',#615);
#344=VERTEX_POINT('',#617);
#345=VERTEX_POINT('',#619);
#346=VERTEX_POINT('',#622);
#347=VERTEX_POINT('',#623);
#348=VERTEX_POINT('',#625);
#349=VERTEX_POINT('',#627);
#350=VERTEX_POINT('',#629);
#351=VERTEX_POINT('',#631);
#352=VERTEX_POINT('',#633);
#353=VERTEX_POINT('',#635);
#354=VERTEX_POINT('',#639);
#355=VERTEX_POINT('',#640);
#356=VERTEX_POINT('',#642);
#357=VERTEX_POINT('',#644);
#358=VERTEX_POINT('',#649);
#359=VERTEX_POINT('',#650);
#360=VERTEX_POINT('',#652);
#361=VERTEX_POINT('',#654);
#362=VERTEX_POINT('',#656);
#363=VERTEX_POINT('',#661);
#364=VERTEX_POINT('',#663);
#365=VERTEX_POINT('',#676);
#366=VERTEX_POINT('',#677);
#367=VERTEX_POINT('',#682);
#368=VERTEX_POINT('',#684);
#369=VERTEX_POINT('',#688);
#370=VERTEX_POINT('',#689);
#371=VERTEX_POINT('',#694);
#372=VERTEX_POINT('',#695);
#373=VERTEX_POINT('',#709);
#374=VERTEX_POINT('',#713);
#375=VERTEX_POINT('',#720);
#376=EDGE_CURVE('',#337,#338,#434,.T.);
#377=EDGE_CURVE('',#337,#339,#131,.T.);
#378=EDGE_CURVE('',#339,#340,#132,.T.);
#379=EDGE_CURVE('',#341,#340,#133,.T.);
#380=EDGE_CURVE('',#341,#342,#435,.T.);
#381=EDGE_CURVE('',#343,#342,#134,.T.);
#382=EDGE_CURVE('',#344,#343,#135,.T.);
#383=EDGE_CURVE('',#345,#344,#136,.T.);
#384=EDGE_CURVE('',#345,#338,#137,.T.);
#385=EDGE_CURVE('',#346,#347,#138,.T.);
#386=EDGE_CURVE('',#346,#348,#436,.T.);
#387=EDGE_CURVE('',#349,#348,#139,.T.);
#388=EDGE_CURVE('',#349,#350,#437,.T.);
#389=EDGE_CURVE('',#351,#350,#140,.T.);
#390=EDGE_CURVE('',#351,#352,#438,.T.);
#391=EDGE_CURVE('',#353,#352,#141,.T.);
#392=EDGE_CURVE('',#353,#347,#439,.T.);
#393=EDGE_CURVE('',#354,#355,#142,.T.);
#394=EDGE_CURVE('',#356,#354,#143,.T.);
#395=EDGE_CURVE('',#356,#357,#144,.T.);
#396=EDGE_CURVE('',#357,#344,#145,.T.);
#397=EDGE_CURVE('',#355,#343,#146,.T.);
#398=EDGE_CURVE('',#358,#359,#147,.T.);
#399=EDGE_CURVE('',#359,#360,#148,.T.);
#400=EDGE_CURVE('',#360,#361,#149,.T.);
#401=EDGE_CURVE('',#362,#361,#150,.T.);
#402=EDGE_CURVE('',#362,#356,#151,.T.);
#403=EDGE_CURVE('',#358,#354,#152,.T.);
#404=EDGE_CURVE('',#361,#363,#153,.T.);
#405=EDGE_CURVE('',#364,#363,#154,.T.);
#406=EDGE_CURVE('',#364,#362,#155,.T.);
#407=EDGE_CURVE('',#357,#364,#156,.T.);
#408=EDGE_CURVE('',#363,#345,#157,.T.);
#409=EDGE_CURVE('',#340,#359,#158,.T.);
#410=EDGE_CURVE('',#339,#360,#159,.T.);
#411=EDGE_CURVE('',#338,#337,#40,.T.);
#412=EDGE_CURVE('',#365,#366,#160,.T.);
#413=EDGE_CURVE('',#366,#346,#161,.T.);
#414=EDGE_CURVE('',#347,#365,#162,.T.);
#415=EDGE_CURVE('',#348,#367,#163,.T.);
#416=EDGE_CURVE('',#367,#368,#164,.T.);
#417=EDGE_CURVE('',#368,#349,#165,.T.);
#418=EDGE_CURVE('',#369,#370,#166,.T.);
#419=EDGE_CURVE('',#370,#351,#167,.T.);
#420=EDGE_CURVE('',#350,#369,#168,.T.);
#421=EDGE_CURVE('',#371,#372,#169,.T.);
#422=EDGE_CURVE('',#371,#370,#440,.T.);
#423=EDGE_CURVE('',#369,#368,#441,.T.);
#424=EDGE_CURVE('',#367,#366,#442,.T.);
#425=EDGE_CURVE('',#365,#372,#443,.T.);
#426=EDGE_CURVE('',#352,#371,#170,.T.);
#427=EDGE_CURVE('',#372,#353,#171,.T.);
#428=EDGE_CURVE('',#358,#373,#172,.T.);
#429=EDGE_CURVE('',#373,#341,#173,.T.);
#430=EDGE_CURVE('',#374,#355,#174,.T.);
#431=EDGE_CURVE('',#374,#373,#444,.T.);
#432=EDGE_CURVE('',#342,#374,#175,.T.);
#433=EDGE_CURVE('',#375,#375,#445,.T.);
#434=CIRCLE('',#447,3.1);
#435=CIRCLE('',#448,7.8);
#436=CIRCLE('',#449,14.3);
#437=CIRCLE('',#450,14.3);
#438=CIRCLE('',#451,14.3);
#439=CIRCLE('',#452,14.3);
#440=CIRCLE('',#465,14.3);
#441=CIRCLE('',#466,14.3);
#442=CIRCLE('',#467,14.3);
#443=CIRCLE('',#468,14.3);
#444=CIRCLE('',#476,7.8);
#445=CIRCLE('',#480,3.1);
#446=AXIS2_PLACEMENT_3D('',#602,#483,#484);
#447=AXIS2_PLACEMENT_3D('',#603,#485,#486);
#448=AXIS2_PLACEMENT_3D('',#612,#490,#491);
#449=AXIS2_PLACEMENT_3D('',#624,#497,#498);
#450=AXIS2_PLACEMENT_3D('',#628,#500,#501);
#451=AXIS2_PLACEMENT_3D('',#632,#503,#504);
#452=AXIS2_PLACEMENT_3D('',#636,#506,#507);
#453=AXIS2_PLACEMENT_3D('',#637,#508,#509);
#454=AXIS2_PLACEMENT_3D('',#647,#515,#516);
#455=AXIS2_PLACEMENT_3D('',#659,#523,#524);
#456=AXIS2_PLACEMENT_3D('',#665,#528,#529);
#457=AXIS2_PLACEMENT_3D('',#667,#531,#532);
#458=AXIS2_PLACEMENT_3D('',#669,#534,#535);
#459=AXIS2_PLACEMENT_3D('',#672,#538,#539);
#460=AXIS2_PLACEMENT_3D('',#673,#540,#541);
#461=AXIS2_PLACEMENT_3D('',#674,#542,#543);
#462=AXIS2_PLACEMENT_3D('',#680,#547,#548);
#463=AXIS2_PLACEMENT_3D('',#686,#552,#553);
#464=AXIS2_PLACEMENT_3D('',#692,#557,#558);
#465=AXIS2_PLACEMENT_3D('',#696,#560,#561);
#466=AXIS2_PLACEMENT_3D('',#697,#562,#563);
#467=AXIS2_PLACEMENT_3D('',#698,#564,#565);
#468=AXIS2_PLACEMENT_3D('',#699,#566,#567);
#469=AXIS2_PLACEMENT_3D('',#700,#568,#569);
#470=AXIS2_PLACEMENT_3D('',#703,#572,#573);
#471=AXIS2_PLACEMENT_3D('',#704,#574,#575);
#472=AXIS2_PLACEMENT_3D('',#705,#576,#577);
#473=AXIS2_PLACEMENT_3D('',#706,#578,#579);
#474=AXIS2_PLACEMENT_3D('',#707,#580,#581);
#475=AXIS2_PLACEMENT_3D('',#711,#584,#585);
#476=AXIS2_PLACEMENT_3D('',#714,#587,#588);
#477=AXIS2_PLACEMENT_3D('',#715,#589,#590);
#478=AXIS2_PLACEMENT_3D('',#717,#592,#593);
#479=AXIS2_PLACEMENT_3D('',#718,#594,#595);
#480=AXIS2_PLACEMENT_3D('',#719,#596,#597);
#481=AXIS2_PLACEMENT_3D('',#721,#598,#599);
#482=AXIS2_PLACEMENT_3D('',#722,#600,#601);
#483=DIRECTION('',(0.,0.,1.));
#484=DIRECTION('',(1.,0.,0.));
#485=DIRECTION('',(0.,0.,1.));
#486=DIRECTION('',(0.999999999999997,0.,0.));
#487=DIRECTION('',(-1.,0.,0.));
#488=DIRECTION('',(0.,-1.,0.));
#489=DIRECTION('',(-1.,0.,0.));
#490=DIRECTION('',(0.,0.,-1.));
#491=DIRECTION('',(1.,0.,0.));
#492=DIRECTION('',(0.,1.,0.));
#493=DIRECTION('',(-1.,0.,0.));
#494=DIRECTION('',(0.,-1.,0.));
#495=DIRECTION('',(-1.,0.,0.));
#496=DIRECTION('',(1.,0.,0.));
#497=DIRECTION('',(0.,0.,-1.));
#498=DIRECTION('',(1.,0.,0.));
#499=DIRECTION('',(0.,-1.,0.));
#500=DIRECTION('',(0.,0.,-1.));
#501=DIRECTION('',(1.,0.,0.));
#502=DIRECTION('',(-1.,0.,0.));
#503=DIRECTION('',(0.,0.,-1.));
#504=DIRECTION('',(1.,0.,0.));
#505=DIRECTION('',(0.,1.,0.));
#506=DIRECTION('',(0.,0.,-1.));
#507=DIRECTION('',(1.,0.,0.));
#508=DIRECTION('',(0.,0.,1.));
#509=DIRECTION('',(1.,0.,0.));
#510=DIRECTION('',(1.,0.,0.));
#511=DIRECTION('',(0.,0.,1.));
#512=DIRECTION('',(1.,0.,0.));
#513=DIRECTION('',(0.,0.,1.));
#514=DIRECTION('',(0.,0.,1.));
#515=DIRECTION('',(0.,-1.,0.));
#516=DIRECTION('',(0.,0.,-1.));
#517=DIRECTION('',(0.,0.,1.));
#518=DIRECTION('',(0.,1.,0.));
#519=DIRECTION('',(0.,0.707106781186547,-0.707106781186548));
#520=DIRECTION('',(0.,0.,1.));
#521=DIRECTION('',(0.,-1.,0.));
#522=DIRECTION('',(0.,-1.,0.));
#523=DIRECTION('',(-1.,0.,0.));
#524=DIRECTION('',(0.,0.,1.));
#525=DIRECTION('',(1.,0.,0.));
#526=DIRECTION('',(0.,0.,1.));
#527=DIRECTION('',(-1.,0.,0.));
#528=DIRECTION('',(0.,1.,0.));
#529=DIRECTION('',(0.,0.,1.));
#530=DIRECTION('',(0.,1.,0.));
#531=DIRECTION('',(0.,0.,-1.));
#532=DIRECTION('',(-1.,0.,0.));
#533=DIRECTION('',(0.,-0.707106781186547,0.707106781186548));
#534=DIRECTION('',(1.,0.,0.));
#535=DIRECTION('',(0.,0.,-1.));
#536=DIRECTION('',(-0.707106781186548,0.,-0.707106781186548));
#537=DIRECTION('',(-0.577350269189626,0.577350269189626,-0.577350269189626));
#538=DIRECTION('',(0.707106781186547,0.,-0.707106781186547));
#539=DIRECTION('',(0.,1.,0.));
#540=DIRECTION('',(0.,0.707106781186548,0.707106781186547));
#541=DIRECTION('',(0.,0.707106781186547,-0.707106781186548));
#542=DIRECTION('',(0.,-0.707106781186548,-0.707106781186547));
#543=DIRECTION('',(1.,0.,0.));
#544=DIRECTION('',(-1.,0.,0.));
#545=DIRECTION('',(0.,0.,1.));
#546=DIRECTION('',(0.,0.,-1.));
#547=DIRECTION('',(0.,-1.,0.));
#548=DIRECTION('',(0.,0.,-1.));
#549=DIRECTION('',(0.,0.,-1.));
#550=DIRECTION('',(0.,1.,0.));
#551=DIRECTION('',(0.,0.,1.));
#552=DIRECTION('',(-1.,0.,0.));
#553=DIRECTION('',(0.,0.,1.));
#554=DIRECTION('',(1.,0.,0.));
#555=DIRECTION('',(0.,0.,1.));
#556=DIRECTION('',(0.,0.,-1.));
#557=DIRECTION('',(0.,1.,0.));
#558=DIRECTION('',(0.,0.,1.));
#559=DIRECTION('',(0.,-1.,0.));
#560=DIRECTION('',(0.,0.,1.));
#561=DIRECTION('',(-1.,0.,0.));
#562=DIRECTION('',(0.,0.,1.));
#563=DIRECTION('',(-1.,0.,0.));
#564=DIRECTION('',(0.,0.,1.));
#565=DIRECTION('',(-1.,0.,0.));
#566=DIRECTION('',(0.,0.,1.));
#567=DIRECTION('',(-1.,0.,0.));
#568=DIRECTION('',(0.,0.,-1.));
#569=DIRECTION('',(-1.,0.,0.));
#570=DIRECTION('',(0.,0.,-1.));
#571=DIRECTION('',(0.,0.,1.));
#572=DIRECTION('',(1.,0.,0.));
#573=DIRECTION('',(0.,0.,-1.));
#574=DIRECTION('',(0.,0.,1.));
#575=DIRECTION('',(1.,0.,0.));
#576=DIRECTION('',(0.,0.,1.));
#577=DIRECTION('',(1.,0.,0.));
#578=DIRECTION('',(0.,0.,1.));
#579=DIRECTION('',(1.,0.,0.));
#580=DIRECTION('',(0.,0.,1.));
#581=DIRECTION('',(1.,0.,0.));
#582=DIRECTION('',(1.,0.,0.));
#583=DIRECTION('',(0.,0.,1.));
#584=DIRECTION('',(0.,1.,0.));
#585=DIRECTION('',(0.,0.,1.));
#586=DIRECTION('',(0.,-1.,0.));
#587=DIRECTION('',(0.,0.,1.));
#588=DIRECTION('',(-1.,0.,0.));
#589=DIRECTION('',(0.,0.,-1.));
#590=DIRECTION('',(-1.,0.,0.));
#591=DIRECTION('',(0.,0.,-1.));
#592=DIRECTION('',(1.,0.,0.));
#593=DIRECTION('',(0.,0.,-1.));
#594=DIRECTION('',(0.,0.,1.));
#595=DIRECTION('',(1.,0.,0.));
#596=DIRECTION('',(0.,0.,-1.));
#597=DIRECTION('',(0.999999999999997,0.,0.));
#598=DIRECTION('',(0.,0.,-1.));
#599=DIRECTION('',(-1.,0.,0.));
#600=DIRECTION('',(0.,0.,-1.));
#601=DIRECTION('',(0.999999999999997,0.,0.));
#602=CARTESIAN_POINT('',(0.,0.,0.));
#603=CARTESIAN_POINT('',(279.7,347.3,121.2));
#604=CARTESIAN_POINT('',(277.737858312965,349.7,121.2));
#605=CARTESIAN_POINT('',(281.662141687035,349.7,121.2));
#606=CARTESIAN_POINT('',(212.05,349.7,121.2));
#607=CARTESIAN_POINT('',(17.4,349.7,121.2));
#608=CARTESIAN_POINT('',(17.4,184.25,121.2));
#609=CARTESIAN_POINT('',(17.4,74.4,121.2));
#610=CARTESIAN_POINT('',(212.05,74.4,121.2));
#611=CARTESIAN_POINT('',(107.6,74.4,121.2));
#612=CARTESIAN_POINT('',(107.6,66.6,121.2));
#613=CARTESIAN_POINT('',(115.4,66.6,121.2));
#614=CARTESIAN_POINT('',(115.4,184.25,121.2));
#615=CARTESIAN_POINT('',(115.4,0.,121.2));
#616=CARTESIAN_POINT('',(212.05,0.,121.2));
#617=CARTESIAN_POINT('',(424.1,0.,121.2));
#618=CARTESIAN_POINT('',(424.1,184.25,121.2));
#619=CARTESIAN_POINT('',(424.1,349.7,121.2));
#620=CARTESIAN_POINT('',(212.05,349.7,121.2));
#621=CARTESIAN_POINT('',(212.05,175.,121.2));
#622=CARTESIAN_POINT('',(65.,175.,121.2));
#623=CARTESIAN_POINT('',(156.1,175.,121.2));
#624=CARTESIAN_POINT('',(65.,189.3,121.2));
#625=CARTESIAN_POINT('',(50.7,189.3,121.2));
#626=CARTESIAN_POINT('',(50.7,184.25,121.2));
#627=CARTESIAN_POINT('',(50.7,237.4,121.2));
#628=CARTESIAN_POINT('',(65.,237.4,121.2));
#629=CARTESIAN_POINT('',(65.,251.7,121.2));
#630=CARTESIAN_POINT('',(212.05,251.7,121.2));
#631=CARTESIAN_POINT('',(156.1,251.7,121.2));
#632=CARTESIAN_POINT('',(156.1,237.4,121.2));
#633=CARTESIAN_POINT('',(170.4,237.4,121.2));
#634=CARTESIAN_POINT('',(170.4,184.25,121.2));
#635=CARTESIAN_POINT('',(170.4,189.3,121.2));
#636=CARTESIAN_POINT('',(156.1,189.3,121.2));
#637=CARTESIAN_POINT('',(212.05,184.25,121.2));
#638=CARTESIAN_POINT('',(57.7,0.,83.3));
#639=CARTESIAN_POINT('',(0.,0.,83.3));
#640=CARTESIAN_POINT('',(115.4,0.,83.3));
#641=CARTESIAN_POINT('',(0.,0.,0.));
#642=CARTESIAN_POINT('',(0.,0.,0.));
#643=CARTESIAN_POINT('',(212.05,0.,0.));
#644=CARTESIAN_POINT('',(424.1,0.,0.));
#645=CARTESIAN_POINT('',(424.1,0.,0.));
#646=CARTESIAN_POINT('',(115.4,0.,83.3));
#647=CARTESIAN_POINT('',(212.05,0.,0.));
#648=CARTESIAN_POINT('',(0.,74.4,83.3));
#649=CARTESIAN_POINT('',(0.,74.4,83.3));
#650=CARTESIAN_POINT('',(0.,74.4,103.8));
#651=CARTESIAN_POINT('',(0.,184.25,103.8));
#652=CARTESIAN_POINT('',(0.,367.1,103.8));
#653=CARTESIAN_POINT('',(0.,327.575,143.325));
#654=CARTESIAN_POINT('',(0.,368.5,102.4));
#655=CARTESIAN_POINT('',(0.,368.5,0.));
#656=CARTESIAN_POINT('',(0.,368.5,0.));
#657=CARTESIAN_POINT('',(0.,184.25,0.));
#658=CARTESIAN_POINT('',(0.,37.2,83.3));
#659=CARTESIAN_POINT('',(0.,184.25,0.));
#660=CARTESIAN_POINT('',(212.05,368.5,102.4));
#661=CARTESIAN_POINT('',(424.1,368.5,102.4));
#662=CARTESIAN_POINT('',(424.1,368.5,0.));
#663=CARTESIAN_POINT('',(424.1,368.5,0.));
#664=CARTESIAN_POINT('',(212.05,368.5,0.));
#665=CARTESIAN_POINT('',(212.05,368.5,0.));
#666=CARTESIAN_POINT('',(424.1,184.25,0.));
#667=CARTESIAN_POINT('',(212.05,184.25,0.));
#668=CARTESIAN_POINT('',(424.1,327.575,143.325));
#669=CARTESIAN_POINT('',(424.1,184.25,0.));
#670=CARTESIAN_POINT('',(0.,74.4,103.8));
#671=CARTESIAN_POINT('',(60.95,306.15,164.75));
#672=CARTESIAN_POINT('',(0.,184.25,103.8));
#673=CARTESIAN_POINT('',(279.7,347.3,123.6));
#674=CARTESIAN_POINT('',(212.05,368.5,102.4));
#675=CARTESIAN_POINT('',(110.55,175.,83.3));
#676=CARTESIAN_POINT('',(156.1,175.,83.3));
#677=CARTESIAN_POINT('',(65.,175.,83.3));
#678=CARTESIAN_POINT('',(65.,175.,121.2));
#679=CARTESIAN_POINT('',(156.1,175.,83.3));
#680=CARTESIAN_POINT('',(110.55,175.,83.3));
#681=CARTESIAN_POINT('',(50.7,189.3,83.3));
#682=CARTESIAN_POINT('',(50.7,189.3,83.3));
#683=CARTESIAN_POINT('',(50.7,213.35,83.3));
#684=CARTESIAN_POINT('',(50.7,237.4,83.3));
#685=CARTESIAN_POINT('',(50.7,237.4,121.2));
#686=CARTESIAN_POINT('',(50.7,213.35,83.3));
#687=CARTESIAN_POINT('',(110.55,251.7,83.3));
#688=CARTESIAN_POINT('',(65.,251.7,83.3));
#689=CARTESIAN_POINT('',(156.1,251.7,83.3));
#690=CARTESIAN_POINT('',(156.1,251.7,121.2));
#691=CARTESIAN_POINT('',(65.,251.7,83.3));
#692=CARTESIAN_POINT('',(110.55,251.7,83.3));
#693=CARTESIAN_POINT('',(170.4,213.35,83.3));
#694=CARTESIAN_POINT('',(170.4,237.4,83.3));
#695=CARTESIAN_POINT('',(170.4,189.3,83.3));
#696=CARTESIAN_POINT('',(156.1,237.4,83.3));
#697=CARTESIAN_POINT('',(65.,237.4,83.3));
#698=CARTESIAN_POINT('',(65.,189.3,83.3));
#699=CARTESIAN_POINT('',(156.1,189.3,83.3));
#700=CARTESIAN_POINT('',(110.55,213.35,83.3));
#701=CARTESIAN_POINT('',(170.4,237.4,83.3));
#702=CARTESIAN_POINT('',(170.4,189.3,121.2));
#703=CARTESIAN_POINT('',(170.4,213.35,83.3));
#704=CARTESIAN_POINT('',(156.1,237.4,83.3));
#705=CARTESIAN_POINT('',(65.,189.3,83.3));
#706=CARTESIAN_POINT('',(156.1,189.3,83.3));
#707=CARTESIAN_POINT('',(65.,237.4,83.3));
#708=CARTESIAN_POINT('',(57.7,74.4,83.3));
#709=CARTESIAN_POINT('',(107.6,74.4,83.3));
#710=CARTESIAN_POINT('',(107.6,74.4,121.2));
#711=CARTESIAN_POINT('',(57.7,74.4,83.3));
#712=CARTESIAN_POINT('',(115.4,37.2,83.3));
#713=CARTESIAN_POINT('',(115.4,66.6,83.3));
#714=CARTESIAN_POINT('',(107.6,66.6,83.3));
#715=CARTESIAN_POINT('',(57.7,37.2,83.3));
#716=CARTESIAN_POINT('',(115.4,66.6,83.3));
#717=CARTESIAN_POINT('',(115.4,37.2,83.3));
#718=CARTESIAN_POINT('',(107.6,66.6,83.3));
#719=CARTESIAN_POINT('',(279.7,347.3,84.9));
#720=CARTESIAN_POINT('',(282.8,347.3,84.9));
#721=CARTESIAN_POINT('',(279.7,347.3,84.9));
#722=CARTESIAN_POINT('',(279.7,347.3,121.25));
#723=MECHANICAL_DESIGN_GEOMETRIC_PRESENTATION_REPRESENTATION('',(#24),#724);
#724=(
GEOMETRIC_REPRESENTATION_CONTEXT(3)
GLOBAL_UNCERTAINTY_ASSIGNED_CONTEXT((#725))
GLOBAL_UNIT_ASSIGNED_CONTEXT((#731,#727,#726))
REPRESENTATION_CONTEXT('featured_part_07511','TOP_LEVEL_ASSEMBLY_PART')
);
#725=UNCERTAINTY_MEASURE_WITH_UNIT(LENGTH_MEASURE(2.E-5),#731,
'DISTANCE_ACCURACY_VALUE','Maximum Tolerance applied to model');
#726=(
NAMED_UNIT(*)
SI_UNIT($,.STERADIAN.)
SOLID_ANGLE_UNIT()
);
#727=(
CONVERSION_BASED_UNIT('DEGREE',#729)
NAMED_UNIT(#728)
PLANE_ANGLE_UNIT()
);
#728=DIMENSIONAL_EXPONENTS(0.,0.,0.,0.,0.,0.,0.);
#729=PLANE_ANGLE_MEASURE_WITH_UNIT(PLANE_ANGLE_MEASURE(0.0174532925),#730);
#730=(
NAMED_UNIT(*)
PLANE_ANGLE_UNIT()
SI_UNIT($,.RADIAN.)
);
#731=(
LENGTH_UNIT()
NAMED_UNIT(*)
SI_UNIT(.MILLI.,.METRE.)
);
ENDSEC;
END-ISO-10303-21;
