ISO-10303-21;
HEADER;
/* Generated by software containing ST-Developer
 * from STEP Tools, Inc. (www.steptools.com) 
 */
/* OPTION: using custom schema-name function */

FILE_DESCRIPTION(
/* description */ (''),
/* implementation_level */ '2;1');

FILE_NAME(
/* name */ 'featured_part_01787.stp',
/* time_stamp */ '2026-07-03T11:41:23-04:00',
/* author */ (''),
/* organization */ (''),
/* preprocessor_version */ 'ST-DEVELOPER v20.1',
/* originating_system */ 'SIEMENS PLM Software NX2512.6002',
/* authorisation */ '');

FILE_SCHEMA (('AUTOMOTIVE_DESIGN { 1 0 10303 214 3 1 1 1 }'));
ENDSEC;

DATA;
#10=SHAPE_REPRESENTATION_RELATIONSHIP('None',
'relationship between featured_part_01787-None and featured_part_01787
-None',#22,#11);
#11=ADVANCED_BREP_SHAPE_REPRESENTATION('featured_part_01787-None',(#32),
#1044);
#12=SHAPE_DEFINITION_REPRESENTATION(#13,#22);
#13=PRODUCT_DEFINITION_SHAPE('','',#14);
#14=PRODUCT_DEFINITION(' ','',#16,#15);
#15=PRODUCT_DEFINITION_CONTEXT('part definition',#21,'design');
#16=PRODUCT_DEFINITION_FORMATION_WITH_SPECIFIED_SOURCE(' ',' ',#18,
 .NOT_KNOWN.);
#17=PRODUCT_RELATED_PRODUCT_CATEGORY('part','',(#18));
#18=PRODUCT('featured_part_01787','featured_part_01787',' ',(#19));
#19=PRODUCT_CONTEXT(' ',#21,'mechanical');
#20=APPLICATION_PROTOCOL_DEFINITION('international standard',
'automotive_design',2010,#21);
#21=APPLICATION_CONTEXT(
'core data for automotive mechanical design processes');
#22=SHAPE_REPRESENTATION('featured_part_01787-None',(#636),#1044);
#23=PRESENTATION_LAYER_ASSIGNMENT('1','Layer 1',(#32));
#24=STYLED_ITEM('',(#25),#32);
#25=PRESENTATION_STYLE_ASSIGNMENT((#26));
#26=SURFACE_STYLE_USAGE(.BOTH.,#27);
#27=SURFACE_SIDE_STYLE('',(#28));
#28=SURFACE_STYLE_FILL_AREA(#29);
#29=FILL_AREA_STYLE('',(#30));
#30=FILL_AREA_STYLE_COLOUR('',#31);
#31=COLOUR_RGB('medium steel',0.611764705882353,0.658823529411765,0.670588235294118);
#32=MANIFOLD_SOLID_BREP('',#33);
#33=CLOSED_SHELL('',(#73,#74,#75,#76,#77,#78,#79,#80,#81,#82,#83,#84,#85,
#86,#87,#88,#89,#90,#91,#92,#93,#94,#95,#96,#97,#98,#99,#100,#101,#102,
#103,#104,#105,#106));
#34=CYLINDRICAL_SURFACE('',#665,3.2);
#35=CYLINDRICAL_SURFACE('',#666,3.2);
#36=CYLINDRICAL_SURFACE('',#667,3.2);
#37=CYLINDRICAL_SURFACE('',#668,3.2);
#38=CYLINDRICAL_SURFACE('',#682,14.8);
#39=CYLINDRICAL_SURFACE('',#683,14.8);
#40=CYLINDRICAL_SURFACE('',#684,14.8);
#41=CYLINDRICAL_SURFACE('',#685,14.8);
#42=CYLINDRICAL_SURFACE('',#688,5.55);
#43=CYLINDRICAL_SURFACE('',#690,5.55);
#44=FACE_OUTER_BOUND('',#166,.T.);
#45=FACE_OUTER_BOUND('',#167,.T.);
#46=FACE_OUTER_BOUND('',#168,.T.);
#47=FACE_OUTER_BOUND('',#169,.T.);
#48=FACE_OUTER_BOUND('',#170,.T.);
#49=FACE_OUTER_BOUND('',#171,.T.);
#50=FACE_OUTER_BOUND('',#172,.T.);
#51=FACE_OUTER_BOUND('',#173,.T.);
#52=FACE_OUTER_BOUND('',#174,.T.);
#53=FACE_OUTER_BOUND('',#175,.T.);
#54=FACE_OUTER_BOUND('',#178,.T.);
#55=FACE_OUTER_BOUND('',#179,.T.);
#56=FACE_OUTER_BOUND('',#180,.T.);
#57=FACE_OUTER_BOUND('',#181,.T.);
#58=FACE_OUTER_BOUND('',#182,.T.);
#59=FACE_OUTER_BOUND('',#183,.T.);
#60=FACE_OUTER_BOUND('',#184,.T.);
#61=FACE_OUTER_BOUND('',#185,.T.);
#62=FACE_OUTER_BOUND('',#186,.T.);
#63=FACE_OUTER_BOUND('',#187,.T.);
#64=FACE_OUTER_BOUND('',#188,.T.);
#65=FACE_OUTER_BOUND('',#189,.T.);
#66=FACE_OUTER_BOUND('',#190,.T.);
#67=FACE_OUTER_BOUND('',#191,.T.);
#68=FACE_OUTER_BOUND('',#192,.T.);
#69=FACE_OUTER_BOUND('',#193,.T.);
#70=FACE_OUTER_BOUND('',#194,.T.);
#71=FACE_OUTER_BOUND('',#195,.T.);
#72=FACE_OUTER_BOUND('',#200,.T.);
#73=ADVANCED_FACE('',(#152,#153),#107,.T.);
#74=ADVANCED_FACE('',(#154,#155),#108,.T.);
#75=ADVANCED_FACE('',(#44),#109,.T.);
#76=ADVANCED_FACE('',(#45),#110,.T.);
#77=ADVANCED_FACE('',(#46),#111,.T.);
#78=ADVANCED_FACE('',(#47),#112,.T.);
#79=ADVANCED_FACE('',(#48),#113,.T.);
#80=ADVANCED_FACE('',(#49),#114,.F.);
#81=ADVANCED_FACE('',(#50),#115,.F.);
#82=ADVANCED_FACE('',(#51),#116,.F.);
#83=ADVANCED_FACE('',(#52),#117,.F.);
#84=ADVANCED_FACE('',(#53),#118,.F.);
#85=ADVANCED_FACE('',(#156,#157),#119,.F.);
#86=ADVANCED_FACE('',(#54),#120,.F.);
#87=ADVANCED_FACE('',(#55),#34,.F.);
#88=ADVANCED_FACE('',(#56),#35,.F.);
#89=ADVANCED_FACE('',(#57),#36,.F.);
#90=ADVANCED_FACE('',(#58),#37,.F.);
#91=ADVANCED_FACE('',(#59),#121,.F.);
#92=ADVANCED_FACE('',(#60),#122,.F.);
#93=ADVANCED_FACE('',(#61),#123,.F.);
#94=ADVANCED_FACE('',(#62),#124,.F.);
#95=ADVANCED_FACE('',(#63),#125,.F.);
#96=ADVANCED_FACE('',(#64),#126,.F.);
#97=ADVANCED_FACE('',(#65),#127,.F.);
#98=ADVANCED_FACE('',(#66),#128,.F.);
#99=ADVANCED_FACE('',(#67),#38,.F.);
#100=ADVANCED_FACE('',(#68),#39,.F.);
#101=ADVANCED_FACE('',(#69),#40,.F.);
#102=ADVANCED_FACE('',(#70),#41,.F.);
#103=ADVANCED_FACE('',(#71),#129,.F.);
#104=ADVANCED_FACE('',(#158,#159),#42,.F.);
#105=ADVANCED_FACE('',(#160,#161),#43,.F.);
#106=ADVANCED_FACE('',(#72),#130,.F.);
#107=PLANE('',#641);
#108=PLANE('',#643);
#109=PLANE('',#644);
#110=PLANE('',#645);
#111=PLANE('',#646);
#112=PLANE('',#647);
#113=PLANE('',#648);
#114=PLANE('',#649);
#115=PLANE('',#650);
#116=PLANE('',#651);
#117=PLANE('',#652);
#118=PLANE('',#653);
#119=PLANE('',#663);
#120=PLANE('',#664);
#121=PLANE('',#669);
#122=PLANE('',#670);
#123=PLANE('',#671);
#124=PLANE('',#672);
#125=PLANE('',#673);
#126=PLANE('',#674);
#127=PLANE('',#675);
#128=PLANE('',#681);
#129=PLANE('',#687);
#130=PLANE('',#691);
#131=CIRCLE('',#637,3.2);
#132=CIRCLE('',#638,3.2);
#133=CIRCLE('',#639,3.2);
#134=CIRCLE('',#640,3.2);
#135=CIRCLE('',#642,5.55);
#136=CIRCLE('',#654,14.8);
#137=CIRCLE('',#655,5.55);
#138=CIRCLE('',#656,14.8);
#139=CIRCLE('',#657,14.8);
#140=CIRCLE('',#658,14.8);
#141=CIRCLE('',#659,3.2);
#142=CIRCLE('',#660,3.2);
#143=CIRCLE('',#661,3.2);
#144=CIRCLE('',#662,3.2);
#145=CIRCLE('',#676,5.55);
#146=CIRCLE('',#677,14.8);
#147=CIRCLE('',#678,14.8);
#148=CIRCLE('',#679,14.8);
#149=CIRCLE('',#680,14.8);
#150=CIRCLE('',#686,5.55);
#151=CIRCLE('',#689,5.55);
#152=FACE_BOUND('',#162,.T.);
#153=FACE_BOUND('',#163,.T.);
#154=FACE_BOUND('',#164,.T.);
#155=FACE_BOUND('',#165,.T.);
#156=FACE_BOUND('',#176,.T.);
#157=FACE_BOUND('',#177,.T.);
#158=FACE_BOUND('',#196,.T.);
#159=FACE_BOUND('',#197,.T.);
#160=FACE_BOUND('',#198,.T.);
#161=FACE_BOUND('',#199,.T.);
#162=EDGE_LOOP('',(#201,#202,#203,#204));
#163=EDGE_LOOP('',(#205,#206,#207,#208,#209,#210,#211,#212));
#164=EDGE_LOOP('',(#213));
#165=EDGE_LOOP('',(#214,#215,#216,#217));
#166=EDGE_LOOP('',(#218,#219,#220,#221,#222,#223,#224,#225,#226,#227));
#167=EDGE_LOOP('',(#228,#229,#230,#231));
#168=EDGE_LOOP('',(#232,#233,#234,#235,#236,#237,#238,#239,#240,#241));
#169=EDGE_LOOP('',(#242,#243,#244,#245));
#170=EDGE_LOOP('',(#246,#247,#248,#249));
#171=EDGE_LOOP('',(#250,#251,#252,#253));
#172=EDGE_LOOP('',(#254,#255,#256,#257));
#173=EDGE_LOOP('',(#258,#259,#260,#261));
#174=EDGE_LOOP('',(#262,#263,#264,#265));
#175=EDGE_LOOP('',(#266,#267,#268,#269));
#176=EDGE_LOOP('',(#270,#271,#272,#273,#274,#275,#276,#277,#278));
#177=EDGE_LOOP('',(#279,#280,#281,#282,#283,#284,#285,#286));
#178=EDGE_LOOP('',(#287,#288,#289,#290));
#179=EDGE_LOOP('',(#291,#292,#293,#294));
#180=EDGE_LOOP('',(#295,#296,#297,#298));
#181=EDGE_LOOP('',(#299,#300,#301,#302));
#182=EDGE_LOOP('',(#303,#304,#305,#306));
#183=EDGE_LOOP('',(#307,#308,#309,#310));
#184=EDGE_LOOP('',(#311,#312,#313,#314));
#185=EDGE_LOOP('',(#315,#316,#317,#318));
#186=EDGE_LOOP('',(#319,#320,#321,#322));
#187=EDGE_LOOP('',(#323,#324,#325,#326));
#188=EDGE_LOOP('',(#327,#328,#329,#330));
#189=EDGE_LOOP('',(#331,#332,#333,#334));
#190=EDGE_LOOP('',(#335,#336,#337,#338,#339,#340,#341,#342,#343));
#191=EDGE_LOOP('',(#344,#345,#346,#347));
#192=EDGE_LOOP('',(#348,#349,#350,#351));
#193=EDGE_LOOP('',(#352,#353,#354,#355));
#194=EDGE_LOOP('',(#356,#357,#358,#359));
#195=EDGE_LOOP('',(#360));
#196=EDGE_LOOP('',(#361));
#197=EDGE_LOOP('',(#362));
#198=EDGE_LOOP('',(#363));
#199=EDGE_LOOP('',(#364,#365,#366,#367));
#200=EDGE_LOOP('',(#368));
#201=ORIENTED_EDGE('',*,*,#426,.F.);
#202=ORIENTED_EDGE('',*,*,#427,.F.);
#203=ORIENTED_EDGE('',*,*,#428,.T.);
#204=ORIENTED_EDGE('',*,*,#429,.F.);
#205=ORIENTED_EDGE('',*,*,#430,.F.);
#206=ORIENTED_EDGE('',*,*,#431,.T.);
#207=ORIENTED_EDGE('',*,*,#432,.F.);
#208=ORIENTED_EDGE('',*,*,#433,.T.);
#209=ORIENTED_EDGE('',*,*,#434,.F.);
#210=ORIENTED_EDGE('',*,*,#435,.T.);
#211=ORIENTED_EDGE('',*,*,#436,.F.);
#212=ORIENTED_EDGE('',*,*,#437,.T.);
#213=ORIENTED_EDGE('',*,*,#438,.F.);
#214=ORIENTED_EDGE('',*,*,#439,.F.);
#215=ORIENTED_EDGE('',*,*,#440,.F.);
#216=ORIENTED_EDGE('',*,*,#441,.T.);
#217=ORIENTED_EDGE('',*,*,#442,.F.);
#218=ORIENTED_EDGE('',*,*,#443,.F.);
#219=ORIENTED_EDGE('',*,*,#429,.T.);
#220=ORIENTED_EDGE('',*,*,#444,.T.);
#221=ORIENTED_EDGE('',*,*,#445,.F.);
#222=ORIENTED_EDGE('',*,*,#446,.T.);
#223=ORIENTED_EDGE('',*,*,#447,.T.);
#224=ORIENTED_EDGE('',*,*,#448,.T.);
#225=ORIENTED_EDGE('',*,*,#440,.T.);
#226=ORIENTED_EDGE('',*,*,#449,.F.);
#227=ORIENTED_EDGE('',*,*,#450,.F.);
#228=ORIENTED_EDGE('',*,*,#445,.T.);
#229=ORIENTED_EDGE('',*,*,#451,.T.);
#230=ORIENTED_EDGE('',*,*,#452,.F.);
#231=ORIENTED_EDGE('',*,*,#453,.T.);
#232=ORIENTED_EDGE('',*,*,#454,.F.);
#233=ORIENTED_EDGE('',*,*,#455,.F.);
#234=ORIENTED_EDGE('',*,*,#456,.F.);
#235=ORIENTED_EDGE('',*,*,#442,.T.);
#236=ORIENTED_EDGE('',*,*,#457,.T.);
#237=ORIENTED_EDGE('',*,*,#458,.F.);
#238=ORIENTED_EDGE('',*,*,#459,.T.);
#239=ORIENTED_EDGE('',*,*,#452,.T.);
#240=ORIENTED_EDGE('',*,*,#460,.T.);
#241=ORIENTED_EDGE('',*,*,#427,.T.);
#242=ORIENTED_EDGE('',*,*,#461,.F.);
#243=ORIENTED_EDGE('',*,*,#446,.F.);
#244=ORIENTED_EDGE('',*,*,#453,.F.);
#245=ORIENTED_EDGE('',*,*,#459,.F.);
#246=ORIENTED_EDGE('',*,*,#458,.T.);
#247=ORIENTED_EDGE('',*,*,#462,.T.);
#248=ORIENTED_EDGE('',*,*,#447,.F.);
#249=ORIENTED_EDGE('',*,*,#461,.T.);
#250=ORIENTED_EDGE('',*,*,#457,.F.);
#251=ORIENTED_EDGE('',*,*,#441,.F.);
#252=ORIENTED_EDGE('',*,*,#448,.F.);
#253=ORIENTED_EDGE('',*,*,#462,.F.);
#254=ORIENTED_EDGE('',*,*,#444,.F.);
#255=ORIENTED_EDGE('',*,*,#428,.F.);
#256=ORIENTED_EDGE('',*,*,#460,.F.);
#257=ORIENTED_EDGE('',*,*,#451,.F.);
#258=ORIENTED_EDGE('',*,*,#430,.T.);
#259=ORIENTED_EDGE('',*,*,#463,.T.);
#260=ORIENTED_EDGE('',*,*,#464,.T.);
#261=ORIENTED_EDGE('',*,*,#465,.T.);
#262=ORIENTED_EDGE('',*,*,#466,.T.);
#263=ORIENTED_EDGE('',*,*,#467,.T.);
#264=ORIENTED_EDGE('',*,*,#432,.T.);
#265=ORIENTED_EDGE('',*,*,#468,.T.);
#266=ORIENTED_EDGE('',*,*,#434,.T.);
#267=ORIENTED_EDGE('',*,*,#469,.T.);
#268=ORIENTED_EDGE('',*,*,#470,.T.);
#269=ORIENTED_EDGE('',*,*,#471,.T.);
#270=ORIENTED_EDGE('',*,*,#472,.T.);
#271=ORIENTED_EDGE('',*,*,#473,.T.);
#272=ORIENTED_EDGE('',*,*,#474,.T.);
#273=ORIENTED_EDGE('',*,*,#475,.T.);
#274=ORIENTED_EDGE('',*,*,#476,.T.);
#275=ORIENTED_EDGE('',*,*,#477,.T.);
#276=ORIENTED_EDGE('',*,*,#478,.T.);
#277=ORIENTED_EDGE('',*,*,#479,.T.);
#278=ORIENTED_EDGE('',*,*,#480,.T.);
#279=ORIENTED_EDGE('',*,*,#470,.F.);
#280=ORIENTED_EDGE('',*,*,#481,.T.);
#281=ORIENTED_EDGE('',*,*,#466,.F.);
#282=ORIENTED_EDGE('',*,*,#482,.T.);
#283=ORIENTED_EDGE('',*,*,#464,.F.);
#284=ORIENTED_EDGE('',*,*,#483,.T.);
#285=ORIENTED_EDGE('',*,*,#484,.F.);
#286=ORIENTED_EDGE('',*,*,#485,.T.);
#287=ORIENTED_EDGE('',*,*,#436,.T.);
#288=ORIENTED_EDGE('',*,*,#486,.T.);
#289=ORIENTED_EDGE('',*,*,#484,.T.);
#290=ORIENTED_EDGE('',*,*,#487,.T.);
#291=ORIENTED_EDGE('',*,*,#433,.F.);
#292=ORIENTED_EDGE('',*,*,#467,.F.);
#293=ORIENTED_EDGE('',*,*,#481,.F.);
#294=ORIENTED_EDGE('',*,*,#469,.F.);
#295=ORIENTED_EDGE('',*,*,#435,.F.);
#296=ORIENTED_EDGE('',*,*,#471,.F.);
#297=ORIENTED_EDGE('',*,*,#485,.F.);
#298=ORIENTED_EDGE('',*,*,#486,.F.);
#299=ORIENTED_EDGE('',*,*,#437,.F.);
#300=ORIENTED_EDGE('',*,*,#487,.F.);
#301=ORIENTED_EDGE('',*,*,#483,.F.);
#302=ORIENTED_EDGE('',*,*,#463,.F.);
#303=ORIENTED_EDGE('',*,*,#431,.F.);
#304=ORIENTED_EDGE('',*,*,#465,.F.);
#305=ORIENTED_EDGE('',*,*,#482,.F.);
#306=ORIENTED_EDGE('',*,*,#468,.F.);
#307=ORIENTED_EDGE('',*,*,#443,.T.);
#308=ORIENTED_EDGE('',*,*,#488,.T.);
#309=ORIENTED_EDGE('',*,*,#454,.T.);
#310=ORIENTED_EDGE('',*,*,#426,.T.);
#311=ORIENTED_EDGE('',*,*,#450,.T.);
#312=ORIENTED_EDGE('',*,*,#489,.F.);
#313=ORIENTED_EDGE('',*,*,#455,.T.);
#314=ORIENTED_EDGE('',*,*,#488,.F.);
#315=ORIENTED_EDGE('',*,*,#449,.T.);
#316=ORIENTED_EDGE('',*,*,#439,.T.);
#317=ORIENTED_EDGE('',*,*,#456,.T.);
#318=ORIENTED_EDGE('',*,*,#489,.T.);
#319=ORIENTED_EDGE('',*,*,#490,.T.);
#320=ORIENTED_EDGE('',*,*,#491,.T.);
#321=ORIENTED_EDGE('',*,*,#480,.F.);
#322=ORIENTED_EDGE('',*,*,#492,.T.);
#323=ORIENTED_EDGE('',*,*,#474,.F.);
#324=ORIENTED_EDGE('',*,*,#493,.T.);
#325=ORIENTED_EDGE('',*,*,#494,.T.);
#326=ORIENTED_EDGE('',*,*,#495,.T.);
#327=ORIENTED_EDGE('',*,*,#476,.F.);
#328=ORIENTED_EDGE('',*,*,#496,.T.);
#329=ORIENTED_EDGE('',*,*,#497,.T.);
#330=ORIENTED_EDGE('',*,*,#498,.T.);
#331=ORIENTED_EDGE('',*,*,#499,.T.);
#332=ORIENTED_EDGE('',*,*,#500,.T.);
#333=ORIENTED_EDGE('',*,*,#478,.F.);
#334=ORIENTED_EDGE('',*,*,#501,.T.);
#335=ORIENTED_EDGE('',*,*,#494,.F.);
#336=ORIENTED_EDGE('',*,*,#502,.T.);
#337=ORIENTED_EDGE('',*,*,#503,.T.);
#338=ORIENTED_EDGE('',*,*,#490,.F.);
#339=ORIENTED_EDGE('',*,*,#504,.T.);
#340=ORIENTED_EDGE('',*,*,#499,.F.);
#341=ORIENTED_EDGE('',*,*,#505,.T.);
#342=ORIENTED_EDGE('',*,*,#497,.F.);
#343=ORIENTED_EDGE('',*,*,#506,.T.);
#344=ORIENTED_EDGE('',*,*,#503,.F.);
#345=ORIENTED_EDGE('',*,*,#507,.T.);
#346=ORIENTED_EDGE('',*,*,#472,.F.);
#347=ORIENTED_EDGE('',*,*,#491,.F.);
#348=ORIENTED_EDGE('',*,*,#479,.F.);
#349=ORIENTED_EDGE('',*,*,#500,.F.);
#350=ORIENTED_EDGE('',*,*,#504,.F.);
#351=ORIENTED_EDGE('',*,*,#492,.F.);
#352=ORIENTED_EDGE('',*,*,#475,.F.);
#353=ORIENTED_EDGE('',*,*,#495,.F.);
#354=ORIENTED_EDGE('',*,*,#506,.F.);
#355=ORIENTED_EDGE('',*,*,#496,.F.);
#356=ORIENTED_EDGE('',*,*,#477,.F.);
#357=ORIENTED_EDGE('',*,*,#498,.F.);
#358=ORIENTED_EDGE('',*,*,#505,.F.);
#359=ORIENTED_EDGE('',*,*,#501,.F.);
#360=ORIENTED_EDGE('',*,*,#508,.F.);
#361=ORIENTED_EDGE('',*,*,#438,.T.);
#362=ORIENTED_EDGE('',*,*,#508,.T.);
#363=ORIENTED_EDGE('',*,*,#509,.T.);
#364=ORIENTED_EDGE('',*,*,#507,.F.);
#365=ORIENTED_EDGE('',*,*,#502,.F.);
#366=ORIENTED_EDGE('',*,*,#493,.F.);
#367=ORIENTED_EDGE('',*,*,#473,.F.);
#368=ORIENTED_EDGE('',*,*,#509,.F.);
#369=VERTEX_POINT('',#869);
#370=VERTEX_POINT('',#870);
#371=VERTEX_POINT('',#872);
#372=VERTEX_POINT('',#874);
#373=VERTEX_POINT('',#877);
#374=VERTEX_POINT('',#878);
#375=VERTEX_POINT('',#880);
#376=VERTEX_POINT('',#882);
#377=VERTEX_POINT('',#884);
#378=VERTEX_POINT('',#886);
#379=VERTEX_POINT('',#888);
#380=VERTEX_POINT('',#890);
#381=VERTEX_POINT('',#894);
#382=VERTEX_POINT('',#896);
#383=VERTEX_POINT('',#897);
#384=VERTEX_POINT('',#899);
#385=VERTEX_POINT('',#901);
#386=VERTEX_POINT('',#905);
#387=VERTEX_POINT('',#907);
#388=VERTEX_POINT('',#909);
#389=VERTEX_POINT('',#911);
#390=VERTEX_POINT('',#913);
#391=VERTEX_POINT('',#916);
#392=VERTEX_POINT('',#920);
#393=VERTEX_POINT('',#922);
#394=VERTEX_POINT('',#926);
#395=VERTEX_POINT('',#928);
#396=VERTEX_POINT('',#931);
#397=VERTEX_POINT('',#933);
#398=VERTEX_POINT('',#944);
#399=VERTEX_POINT('',#946);
#400=VERTEX_POINT('',#950);
#401=VERTEX_POINT('',#951);
#402=VERTEX_POINT('',#956);
#403=VERTEX_POINT('',#958);
#404=VERTEX_POINT('',#962);
#405=VERTEX_POINT('',#963);
#406=VERTEX_POINT('',#965);
#407=VERTEX_POINT('',#967);
#408=VERTEX_POINT('',#969);
#409=VERTEX_POINT('',#971);
#410=VERTEX_POINT('',#973);
#411=VERTEX_POINT('',#975);
#412=VERTEX_POINT('',#977);
#413=VERTEX_POINT('',#982);
#414=VERTEX_POINT('',#984);
#415=VERTEX_POINT('',#1000);
#416=VERTEX_POINT('',#1001);
#417=VERTEX_POINT('',#1006);
#418=VERTEX_POINT('',#1008);
#419=VERTEX_POINT('',#1012);
#420=VERTEX_POINT('',#1014);
#421=VERTEX_POINT('',#1018);
#422=VERTEX_POINT('',#1019);
#423=VERTEX_POINT('',#1024);
#424=VERTEX_POINT('',#1036);
#425=VERTEX_POINT('',#1040);
#426=EDGE_CURVE('',#369,#370,#510,.T.);
#427=EDGE_CURVE('',#371,#369,#511,.T.);
#428=EDGE_CURVE('',#371,#372,#512,.T.);
#429=EDGE_CURVE('',#370,#372,#513,.T.);
#430=EDGE_CURVE('',#373,#374,#514,.T.);
#431=EDGE_CURVE('',#373,#375,#131,.T.);
#432=EDGE_CURVE('',#376,#375,#515,.T.);
#433=EDGE_CURVE('',#376,#377,#132,.T.);
#434=EDGE_CURVE('',#378,#377,#516,.T.);
#435=EDGE_CURVE('',#378,#379,#133,.T.);
#436=EDGE_CURVE('',#380,#379,#517,.T.);
#437=EDGE_CURVE('',#380,#374,#134,.T.);
#438=EDGE_CURVE('',#381,#381,#135,.T.);
#439=EDGE_CURVE('',#382,#383,#518,.T.);
#440=EDGE_CURVE('',#384,#382,#519,.T.);
#441=EDGE_CURVE('',#384,#385,#520,.T.);
#442=EDGE_CURVE('',#383,#385,#521,.T.);
#443=EDGE_CURVE('',#370,#386,#522,.T.);
#444=EDGE_CURVE('',#372,#387,#523,.T.);
#445=EDGE_CURVE('',#388,#387,#524,.T.);
#446=EDGE_CURVE('',#388,#389,#525,.T.);
#447=EDGE_CURVE('',#389,#390,#526,.T.);
#448=EDGE_CURVE('',#390,#384,#527,.T.);
#449=EDGE_CURVE('',#391,#382,#528,.T.);
#450=EDGE_CURVE('',#386,#391,#529,.T.);
#451=EDGE_CURVE('',#387,#392,#530,.T.);
#452=EDGE_CURVE('',#393,#392,#531,.T.);
#453=EDGE_CURVE('',#393,#388,#532,.T.);
#454=EDGE_CURVE('',#394,#369,#533,.T.);
#455=EDGE_CURVE('',#395,#394,#534,.T.);
#456=EDGE_CURVE('',#383,#395,#535,.T.);
#457=EDGE_CURVE('',#385,#396,#536,.T.);
#458=EDGE_CURVE('',#397,#396,#537,.T.);
#459=EDGE_CURVE('',#397,#393,#538,.T.);
#460=EDGE_CURVE('',#392,#371,#539,.T.);
#461=EDGE_CURVE('',#389,#397,#540,.T.);
#462=EDGE_CURVE('',#396,#390,#541,.T.);
#463=EDGE_CURVE('',#374,#398,#542,.T.);
#464=EDGE_CURVE('',#398,#399,#543,.T.);
#465=EDGE_CURVE('',#399,#373,#544,.T.);
#466=EDGE_CURVE('',#400,#401,#545,.T.);
#467=EDGE_CURVE('',#401,#376,#546,.T.);
#468=EDGE_CURVE('',#375,#400,#547,.T.);
#469=EDGE_CURVE('',#377,#402,#548,.T.);
#470=EDGE_CURVE('',#402,#403,#549,.T.);
#471=EDGE_CURVE('',#403,#378,#550,.T.);
#472=EDGE_CURVE('',#404,#405,#136,.T.);
#473=EDGE_CURVE('',#405,#406,#137,.T.);
#474=EDGE_CURVE('',#406,#407,#551,.T.);
#475=EDGE_CURVE('',#407,#408,#138,.T.);
#476=EDGE_CURVE('',#408,#409,#552,.T.);
#477=EDGE_CURVE('',#409,#410,#139,.T.);
#478=EDGE_CURVE('',#410,#411,#553,.T.);
#479=EDGE_CURVE('',#411,#412,#140,.T.);
#480=EDGE_CURVE('',#412,#404,#554,.T.);
#481=EDGE_CURVE('',#402,#401,#141,.T.);
#482=EDGE_CURVE('',#400,#399,#142,.T.);
#483=EDGE_CURVE('',#398,#413,#143,.T.);
#484=EDGE_CURVE('',#414,#413,#555,.T.);
#485=EDGE_CURVE('',#414,#403,#144,.T.);
#486=EDGE_CURVE('',#379,#414,#556,.T.);
#487=EDGE_CURVE('',#413,#380,#557,.T.);
#488=EDGE_CURVE('',#386,#394,#558,.T.);
#489=EDGE_CURVE('',#395,#391,#559,.T.);
#490=EDGE_CURVE('',#415,#416,#560,.T.);
#491=EDGE_CURVE('',#416,#404,#561,.T.);
#492=EDGE_CURVE('',#412,#415,#562,.T.);
#493=EDGE_CURVE('',#406,#417,#563,.T.);
#494=EDGE_CURVE('',#417,#418,#564,.T.);
#495=EDGE_CURVE('',#418,#407,#565,.T.);
#496=EDGE_CURVE('',#408,#419,#566,.T.);
#497=EDGE_CURVE('',#419,#420,#567,.T.);
#498=EDGE_CURVE('',#420,#409,#568,.T.);
#499=EDGE_CURVE('',#421,#422,#569,.T.);
#500=EDGE_CURVE('',#422,#411,#570,.T.);
#501=EDGE_CURVE('',#410,#421,#571,.T.);
#502=EDGE_CURVE('',#417,#423,#145,.T.);
#503=EDGE_CURVE('',#423,#416,#146,.T.);
#504=EDGE_CURVE('',#415,#422,#147,.T.);
#505=EDGE_CURVE('',#421,#420,#148,.T.);
#506=EDGE_CURVE('',#419,#418,#149,.T.);
#507=EDGE_CURVE('',#423,#405,#572,.T.);
#508=EDGE_CURVE('',#424,#424,#150,.T.);
#509=EDGE_CURVE('',#425,#425,#151,.T.);
#510=LINE('',#868,#573);
#511=LINE('',#871,#574);
#512=LINE('',#873,#575);
#513=LINE('',#875,#576);
#514=LINE('',#876,#577);
#515=LINE('',#881,#578);
#516=LINE('',#885,#579);
#517=LINE('',#889,#580);
#518=LINE('',#895,#581);
#519=LINE('',#898,#582);
#520=LINE('',#900,#583);
#521=LINE('',#902,#584);
#522=LINE('',#904,#585);
#523=LINE('',#906,#586);
#524=LINE('',#908,#587);
#525=LINE('',#910,#588);
#526=LINE('',#912,#589);
#527=LINE('',#914,#590);
#528=LINE('',#915,#591);
#529=LINE('',#917,#592);
#530=LINE('',#919,#593);
#531=LINE('',#921,#594);
#532=LINE('',#923,#595);
#533=LINE('',#925,#596);
#534=LINE('',#927,#597);
#535=LINE('',#929,#598);
#536=LINE('',#930,#599);
#537=LINE('',#932,#600);
#538=LINE('',#934,#601);
#539=LINE('',#935,#602);
#540=LINE('',#937,#603);
#541=LINE('',#939,#604);
#542=LINE('',#943,#605);
#543=LINE('',#945,#606);
#544=LINE('',#947,#607);
#545=LINE('',#949,#608);
#546=LINE('',#952,#609);
#547=LINE('',#953,#610);
#548=LINE('',#955,#611);
#549=LINE('',#957,#612);
#550=LINE('',#959,#613);
#551=LINE('',#966,#614);
#552=LINE('',#970,#615);
#553=LINE('',#974,#616);
#554=LINE('',#978,#617);
#555=LINE('',#983,#618);
#556=LINE('',#987,#619);
#557=LINE('',#988,#620);
#558=LINE('',#994,#621);
#559=LINE('',#996,#622);
#560=LINE('',#999,#623);
#561=LINE('',#1002,#624);
#562=LINE('',#1003,#625);
#563=LINE('',#1005,#626);
#564=LINE('',#1007,#627);
#565=LINE('',#1009,#628);
#566=LINE('',#1011,#629);
#567=LINE('',#1013,#630);
#568=LINE('',#1015,#631);
#569=LINE('',#1017,#632);
#570=LINE('',#1020,#633);
#571=LINE('',#1021,#634);
#572=LINE('',#1030,#635);
#573=VECTOR('',#694,1.);
#574=VECTOR('',#695,1.);
#575=VECTOR('',#696,1.);
#576=VECTOR('',#697,1.);
#577=VECTOR('',#698,1.);
#578=VECTOR('',#701,1.);
#579=VECTOR('',#704,1.);
#580=VECTOR('',#707,1.);
#581=VECTOR('',#714,1.);
#582=VECTOR('',#715,1.);
#583=VECTOR('',#716,1.);
#584=VECTOR('',#717,1.);
#585=VECTOR('',#720,1.);
#586=VECTOR('',#721,1.);
#587=VECTOR('',#722,1.);
#588=VECTOR('',#723,1.);
#589=VECTOR('',#724,1.);
#590=VECTOR('',#725,1.);
#591=VECTOR('',#726,1.);
#592=VECTOR('',#727,1.);
#593=VECTOR('',#730,1.);
#594=VECTOR('',#731,1.);
#595=VECTOR('',#732,1.);
#596=VECTOR('',#735,1.);
#597=VECTOR('',#736,1.);
#598=VECTOR('',#737,1.);
#599=VECTOR('',#738,1.);
#600=VECTOR('',#739,1.);
#601=VECTOR('',#740,1.);
#602=VECTOR('',#741,1.);
#603=VECTOR('',#744,1.);
#604=VECTOR('',#747,1.);
#605=VECTOR('',#754,1.);
#606=VECTOR('',#755,1.);
#607=VECTOR('',#756,1.);
#608=VECTOR('',#759,1.);
#609=VECTOR('',#760,1.);
#610=VECTOR('',#761,1.);
#611=VECTOR('',#764,1.);
#612=VECTOR('',#765,1.);
#613=VECTOR('',#766,1.);
#614=VECTOR('',#773,1.);
#615=VECTOR('',#776,1.);
#616=VECTOR('',#779,1.);
#617=VECTOR('',#782,1.);
#618=VECTOR('',#789,1.);
#619=VECTOR('',#794,1.);
#620=VECTOR('',#795,1.);
#621=VECTOR('',#806,1.);
#622=VECTOR('',#809,1.);
#623=VECTOR('',#814,1.);
#624=VECTOR('',#815,1.);
#625=VECTOR('',#816,1.);
#626=VECTOR('',#819,1.);
#627=VECTOR('',#820,1.);
#628=VECTOR('',#821,1.);
#629=VECTOR('',#824,1.);
#630=VECTOR('',#825,1.);
#631=VECTOR('',#826,1.);
#632=VECTOR('',#829,1.);
#633=VECTOR('',#830,1.);
#634=VECTOR('',#831,1.);
#635=VECTOR('',#846,1.);
#636=AXIS2_PLACEMENT_3D('',#867,#692,#693);
#637=AXIS2_PLACEMENT_3D('',#879,#699,#700);
#638=AXIS2_PLACEMENT_3D('',#883,#702,#703);
#639=AXIS2_PLACEMENT_3D('',#887,#705,#706);
#640=AXIS2_PLACEMENT_3D('',#891,#708,#709);
#641=AXIS2_PLACEMENT_3D('',#892,#710,#711);
#642=AXIS2_PLACEMENT_3D('',#893,#712,#713);
#643=AXIS2_PLACEMENT_3D('',#903,#718,#719);
#644=AXIS2_PLACEMENT_3D('',#918,#728,#729);
#645=AXIS2_PLACEMENT_3D('',#924,#733,#734);
#646=AXIS2_PLACEMENT_3D('',#936,#742,#743);
#647=AXIS2_PLACEMENT_3D('',#938,#745,#746);
#648=AXIS2_PLACEMENT_3D('',#940,#748,#749);
#649=AXIS2_PLACEMENT_3D('',#941,#750,#751);
#650=AXIS2_PLACEMENT_3D('',#942,#752,#753);
#651=AXIS2_PLACEMENT_3D('',#948,#757,#758);
#652=AXIS2_PLACEMENT_3D('',#954,#762,#763);
#653=AXIS2_PLACEMENT_3D('',#960,#767,#768);
#654=AXIS2_PLACEMENT_3D('',#961,#769,#770);
#655=AXIS2_PLACEMENT_3D('',#964,#771,#772);
#656=AXIS2_PLACEMENT_3D('',#968,#774,#775);
#657=AXIS2_PLACEMENT_3D('',#972,#777,#778);
#658=AXIS2_PLACEMENT_3D('',#976,#780,#781);
#659=AXIS2_PLACEMENT_3D('',#979,#783,#784);
#660=AXIS2_PLACEMENT_3D('',#980,#785,#786);
#661=AXIS2_PLACEMENT_3D('',#981,#787,#788);
#662=AXIS2_PLACEMENT_3D('',#985,#790,#791);
#663=AXIS2_PLACEMENT_3D('',#986,#792,#793);
#664=AXIS2_PLACEMENT_3D('',#989,#796,#797);
#665=AXIS2_PLACEMENT_3D('',#990,#798,#799);
#666=AXIS2_PLACEMENT_3D('',#991,#800,#801);
#667=AXIS2_PLACEMENT_3D('',#992,#802,#803);
#668=AXIS2_PLACEMENT_3D('',#993,#804,#805);
#669=AXIS2_PLACEMENT_3D('',#995,#807,#808);
#670=AXIS2_PLACEMENT_3D('',#997,#810,#811);
#671=AXIS2_PLACEMENT_3D('',#998,#812,#813);
#672=AXIS2_PLACEMENT_3D('',#1004,#817,#818);
#673=AXIS2_PLACEMENT_3D('',#1010,#822,#823);
#674=AXIS2_PLACEMENT_3D('',#1016,#827,#828);
#675=AXIS2_PLACEMENT_3D('',#1022,#832,#833);
#676=AXIS2_PLACEMENT_3D('',#1023,#834,#835);
#677=AXIS2_PLACEMENT_3D('',#1025,#836,#837);
#678=AXIS2_PLACEMENT_3D('',#1026,#838,#839);
#679=AXIS2_PLACEMENT_3D('',#1027,#840,#841);
#680=AXIS2_PLACEMENT_3D('',#1028,#842,#843);
#681=AXIS2_PLACEMENT_3D('',#1029,#844,#845);
#682=AXIS2_PLACEMENT_3D('',#1031,#847,#848);
#683=AXIS2_PLACEMENT_3D('',#1032,#849,#850);
#684=AXIS2_PLACEMENT_3D('',#1033,#851,#852);
#685=AXIS2_PLACEMENT_3D('',#1034,#853,#854);
#686=AXIS2_PLACEMENT_3D('',#1035,#855,#856);
#687=AXIS2_PLACEMENT_3D('',#1037,#857,#858);
#688=AXIS2_PLACEMENT_3D('',#1038,#859,#860);
#689=AXIS2_PLACEMENT_3D('',#1039,#861,#862);
#690=AXIS2_PLACEMENT_3D('',#1041,#863,#864);
#691=AXIS2_PLACEMENT_3D('',#1042,#865,#866);
#692=DIRECTION('',(0.,0.,1.));
#693=DIRECTION('',(1.,0.,0.));
#694=DIRECTION('',(0.,-1.,0.));
#695=DIRECTION('',(1.,0.,0.));
#696=DIRECTION('',(0.,-1.,0.));
#697=DIRECTION('',(-1.,0.,0.));
#698=DIRECTION('',(1.,0.,0.));
#699=DIRECTION('',(0.,0.,-1.));
#700=DIRECTION('',(0.999999999999998,0.,0.));
#701=DIRECTION('',(0.,-1.,0.));
#702=DIRECTION('',(0.,0.,-1.));
#703=DIRECTION('',(0.999999999999998,0.,0.));
#704=DIRECTION('',(-1.,0.,0.));
#705=DIRECTION('',(0.,0.,-1.));
#706=DIRECTION('',(1.,0.,0.));
#707=DIRECTION('',(0.,1.,0.));
#708=DIRECTION('',(0.,0.,-1.));
#709=DIRECTION('',(1.,0.,0.));
#710=DIRECTION('',(0.,0.,1.));
#711=DIRECTION('',(1.,0.,0.));
#712=DIRECTION('',(0.,0.,1.));
#713=DIRECTION('',(1.,0.,0.));
#714=DIRECTION('',(0.,1.,0.));
#715=DIRECTION('',(-1.,0.,0.));
#716=DIRECTION('',(0.,1.,0.));
#717=DIRECTION('',(1.,0.,0.));
#718=DIRECTION('',(0.,0.,1.));
#719=DIRECTION('',(1.,0.,0.));
#720=DIRECTION('',(0.,0.,-1.));
#721=DIRECTION('',(-0.707106781186548,0.,-0.707106781186548));
#722=DIRECTION('',(0.,0.,1.));
#723=DIRECTION('',(1.,0.,0.));
#724=DIRECTION('',(0.,0.,1.));
#725=DIRECTION('',(-0.70710678118655,0.,0.707106781186545));
#726=DIRECTION('',(0.,0.,1.));
#727=DIRECTION('',(1.,0.,0.));
#728=DIRECTION('',(0.,-1.,0.));
#729=DIRECTION('',(0.,0.,-1.));
#730=DIRECTION('',(0.,1.,0.));
#731=DIRECTION('',(0.,0.,1.));
#732=DIRECTION('',(0.,-1.,0.));
#733=DIRECTION('',(-1.,0.,0.));
#734=DIRECTION('',(0.,0.,1.));
#735=DIRECTION('',(0.,0.,1.));
#736=DIRECTION('',(-1.,0.,0.));
#737=DIRECTION('',(0.,0.,-1.));
#738=DIRECTION('',(0.70710678118655,0.,-0.707106781186545));
#739=DIRECTION('',(0.,0.,1.));
#740=DIRECTION('',(-1.,0.,0.));
#741=DIRECTION('',(0.707106781186548,0.,0.707106781186548));
#742=DIRECTION('',(0.,1.,0.));
#743=DIRECTION('',(0.,0.,1.));
#744=DIRECTION('',(0.,1.,0.));
#745=DIRECTION('',(0.,0.,-1.));
#746=DIRECTION('',(-1.,0.,0.));
#747=DIRECTION('',(0.,-1.,0.));
#748=DIRECTION('',(1.,0.,0.));
#749=DIRECTION('',(0.,0.,-1.));
#750=DIRECTION('',(-0.707106781186545,0.,-0.70710678118655));
#751=DIRECTION('',(0.,-1.,0.));
#752=DIRECTION('',(0.707106781186548,0.,-0.707106781186548));
#753=DIRECTION('',(0.,1.,0.));
#754=DIRECTION('',(0.,0.,-1.));
#755=DIRECTION('',(-1.,0.,0.));
#756=DIRECTION('',(0.,0.,1.));
#757=DIRECTION('',(0.,-1.,0.));
#758=DIRECTION('',(0.,0.,-1.));
#759=DIRECTION('',(0.,1.,0.));
#760=DIRECTION('',(0.,0.,1.));
#761=DIRECTION('',(0.,0.,-1.));
#762=DIRECTION('',(-1.,0.,0.));
#763=DIRECTION('',(0.,0.,1.));
#764=DIRECTION('',(0.,0.,-1.));
#765=DIRECTION('',(1.,0.,0.));
#766=DIRECTION('',(0.,0.,1.));
#767=DIRECTION('',(0.,1.,0.));
#768=DIRECTION('',(0.,0.,1.));
#769=DIRECTION('',(0.,0.,-1.));
#770=DIRECTION('',(-1.,0.,0.));
#771=DIRECTION('',(0.,0.,-1.));
#772=DIRECTION('',(-1.,0.,0.));
#773=DIRECTION('',(0.,1.,0.));
#774=DIRECTION('',(0.,0.,-1.));
#775=DIRECTION('',(-1.,0.,0.));
#776=DIRECTION('',(1.,0.,0.));
#777=DIRECTION('',(0.,0.,-1.));
#778=DIRECTION('',(-1.,0.,0.));
#779=DIRECTION('',(0.,-1.,0.));
#780=DIRECTION('',(0.,0.,-1.));
#781=DIRECTION('',(-1.,0.,0.));
#782=DIRECTION('',(-1.,0.,0.));
#783=DIRECTION('',(0.,0.,1.));
#784=DIRECTION('',(-0.999999999999998,0.,0.));
#785=DIRECTION('',(0.,0.,1.));
#786=DIRECTION('',(-0.999999999999998,0.,0.));
#787=DIRECTION('',(0.,0.,1.));
#788=DIRECTION('',(-1.,0.,0.));
#789=DIRECTION('',(0.,-1.,0.));
#790=DIRECTION('',(0.,0.,1.));
#791=DIRECTION('',(-1.,0.,0.));
#792=DIRECTION('',(0.,0.,-1.));
#793=DIRECTION('',(-1.,0.,0.));
#794=DIRECTION('',(0.,0.,-1.));
#795=DIRECTION('',(0.,0.,1.));
#796=DIRECTION('',(1.,0.,0.));
#797=DIRECTION('',(0.,0.,-1.));
#798=DIRECTION('',(0.,0.,1.));
#799=DIRECTION('',(0.999999999999998,0.,0.));
#800=DIRECTION('',(0.,0.,1.));
#801=DIRECTION('',(1.,0.,0.));
#802=DIRECTION('',(0.,0.,1.));
#803=DIRECTION('',(1.,0.,0.));
#804=DIRECTION('',(0.,0.,1.));
#805=DIRECTION('',(0.999999999999998,0.,0.));
#806=DIRECTION('',(0.,1.,0.));
#807=DIRECTION('',(-1.,0.,0.));
#808=DIRECTION('',(0.,0.,1.));
#809=DIRECTION('',(0.,-1.,0.));
#810=DIRECTION('',(0.,0.,-1.));
#811=DIRECTION('',(-1.,0.,0.));
#812=DIRECTION('',(1.,0.,0.));
#813=DIRECTION('',(0.,0.,-1.));
#814=DIRECTION('',(-1.,0.,0.));
#815=DIRECTION('',(0.,0.,1.));
#816=DIRECTION('',(0.,0.,-1.));
#817=DIRECTION('',(0.,-1.,0.));
#818=DIRECTION('',(0.,0.,-1.));
#819=DIRECTION('',(0.,0.,-1.));
#820=DIRECTION('',(0.,1.,0.));
#821=DIRECTION('',(0.,0.,1.));
#822=DIRECTION('',(-1.,0.,0.));
#823=DIRECTION('',(0.,0.,1.));
#824=DIRECTION('',(0.,0.,-1.));
#825=DIRECTION('',(1.,0.,0.));
#826=DIRECTION('',(0.,0.,1.));
#827=DIRECTION('',(0.,1.,0.));
#828=DIRECTION('',(0.,0.,1.));
#829=DIRECTION('',(0.,-1.,0.));
#830=DIRECTION('',(0.,0.,1.));
#831=DIRECTION('',(0.,0.,-1.));
#832=DIRECTION('',(1.,0.,0.));
#833=DIRECTION('',(0.,0.,-1.));
#834=DIRECTION('',(0.,0.,-1.));
#835=DIRECTION('',(-1.,0.,0.));
#836=DIRECTION('',(0.,0.,1.));
#837=DIRECTION('',(-1.,0.,0.));
#838=DIRECTION('',(0.,0.,1.));
#839=DIRECTION('',(-1.,0.,0.));
#840=DIRECTION('',(0.,0.,1.));
#841=DIRECTION('',(-1.,0.,0.));
#842=DIRECTION('',(0.,0.,1.));
#843=DIRECTION('',(-1.,0.,0.));
#844=DIRECTION('',(0.,0.,-1.));
#845=DIRECTION('',(-1.,0.,0.));
#846=DIRECTION('',(0.,0.,1.));
#847=DIRECTION('',(0.,0.,1.));
#848=DIRECTION('',(1.,0.,0.));
#849=DIRECTION('',(0.,0.,1.));
#850=DIRECTION('',(1.,0.,0.));
#851=DIRECTION('',(0.,0.,1.));
#852=DIRECTION('',(1.,0.,0.));
#853=DIRECTION('',(0.,0.,1.));
#854=DIRECTION('',(1.,0.,0.));
#855=DIRECTION('',(0.,0.,-1.));
#856=DIRECTION('',(1.,0.,0.));
#857=DIRECTION('',(0.,0.,-1.));
#858=DIRECTION('',(-1.,0.,0.));
#859=DIRECTION('',(0.,0.,-1.));
#860=DIRECTION('',(1.,0.,0.));
#861=DIRECTION('',(0.,0.,-1.));
#862=DIRECTION('',(1.,0.,0.));
#863=DIRECTION('',(0.,0.,-1.));
#864=DIRECTION('',(1.,0.,0.));
#865=DIRECTION('',(0.,0.,-1.));
#866=DIRECTION('',(-1.,0.,0.));
#867=CARTESIAN_POINT('',(0.,0.,0.));
#868=CARTESIAN_POINT('',(254.6,216.6,133.8));
#869=CARTESIAN_POINT('',(254.6,433.2,133.8));
#870=CARTESIAN_POINT('',(254.6,0.,133.8));
#871=CARTESIAN_POINT('',(247.05,433.2,133.8));
#872=CARTESIAN_POINT('',(4.3,433.2,133.8));
#873=CARTESIAN_POINT('',(4.3,216.6,133.8));
#874=CARTESIAN_POINT('',(4.3,0.,133.8));
#875=CARTESIAN_POINT('',(247.05,0.,133.8));
#876=CARTESIAN_POINT('',(247.05,217.8,133.8));
#877=CARTESIAN_POINT('',(101.5,217.8,133.8));
#878=CARTESIAN_POINT('',(241.5,217.8,133.8));
#879=CARTESIAN_POINT('',(101.5,221.,133.8));
#880=CARTESIAN_POINT('',(98.3,221.,133.8));
#881=CARTESIAN_POINT('',(98.3,216.6,133.8));
#882=CARTESIAN_POINT('',(98.3,374.9,133.8));
#883=CARTESIAN_POINT('',(101.5,374.9,133.8));
#884=CARTESIAN_POINT('',(101.5,378.1,133.8));
#885=CARTESIAN_POINT('',(247.05,378.1,133.8));
#886=CARTESIAN_POINT('',(241.5,378.1,133.8));
#887=CARTESIAN_POINT('',(241.5,374.9,133.8));
#888=CARTESIAN_POINT('',(244.7,374.9,133.8));
#889=CARTESIAN_POINT('',(244.7,216.6,133.8));
#890=CARTESIAN_POINT('',(244.7,221.,133.8));
#891=CARTESIAN_POINT('',(241.5,221.,133.8));
#892=CARTESIAN_POINT('',(247.05,216.6,133.8));
#893=CARTESIAN_POINT('',(370.8,166.8,133.8));
#894=CARTESIAN_POINT('',(376.35,166.8,133.8));
#895=CARTESIAN_POINT('',(297.,216.6,133.8));
#896=CARTESIAN_POINT('',(297.,0.,133.8));
#897=CARTESIAN_POINT('',(297.,433.2,133.8));
#898=CARTESIAN_POINT('',(247.05,0.,133.8));
#899=CARTESIAN_POINT('',(490.3,0.,133.8));
#900=CARTESIAN_POINT('',(490.3,216.6,133.8));
#901=CARTESIAN_POINT('',(490.3,433.2,133.8));
#902=CARTESIAN_POINT('',(247.05,433.2,133.8));
#903=CARTESIAN_POINT('',(247.05,216.6,133.8));
#904=CARTESIAN_POINT('',(254.6,0.,0.));
#905=CARTESIAN_POINT('',(254.6,0.,82.6));
#906=CARTESIAN_POINT('',(58.775,0.,188.275));
#907=CARTESIAN_POINT('',(0.,0.,129.5));
#908=CARTESIAN_POINT('',(0.,0.,0.));
#909=CARTESIAN_POINT('',(0.,0.,0.));
#910=CARTESIAN_POINT('',(247.05,0.,0.));
#911=CARTESIAN_POINT('',(494.1,0.,0.));
#912=CARTESIAN_POINT('',(494.1,0.,0.));
#913=CARTESIAN_POINT('',(494.1,0.,130.));
#914=CARTESIAN_POINT('',(435.574999999999,0.,188.525));
#915=CARTESIAN_POINT('',(297.,0.,0.));
#916=CARTESIAN_POINT('',(297.,0.,82.6));
#917=CARTESIAN_POINT('',(247.05,0.,82.6));
#918=CARTESIAN_POINT('',(247.05,0.,0.));
#919=CARTESIAN_POINT('',(0.,216.6,129.5));
#920=CARTESIAN_POINT('',(0.,433.2,129.5));
#921=CARTESIAN_POINT('',(0.,433.2,0.));
#922=CARTESIAN_POINT('',(0.,433.2,0.));
#923=CARTESIAN_POINT('',(0.,216.6,0.));
#924=CARTESIAN_POINT('',(0.,216.6,0.));
#925=CARTESIAN_POINT('',(254.6,433.2,0.));
#926=CARTESIAN_POINT('',(254.6,433.2,82.6));
#927=CARTESIAN_POINT('',(247.05,433.2,82.6));
#928=CARTESIAN_POINT('',(297.,433.2,82.6));
#929=CARTESIAN_POINT('',(297.,433.2,0.));
#930=CARTESIAN_POINT('',(435.574999999999,433.2,188.525));
#931=CARTESIAN_POINT('',(494.1,433.2,130.));
#932=CARTESIAN_POINT('',(494.1,433.2,0.));
#933=CARTESIAN_POINT('',(494.1,433.2,0.));
#934=CARTESIAN_POINT('',(247.05,433.2,0.));
#935=CARTESIAN_POINT('',(58.775,433.2,188.275));
#936=CARTESIAN_POINT('',(247.05,433.2,0.));
#937=CARTESIAN_POINT('',(494.1,216.6,0.));
#938=CARTESIAN_POINT('',(247.05,216.6,0.));
#939=CARTESIAN_POINT('',(494.1,216.6,130.));
#940=CARTESIAN_POINT('',(494.1,216.6,0.));
#941=CARTESIAN_POINT('',(494.1,216.6,130.));
#942=CARTESIAN_POINT('',(0.,216.6,129.5));
#943=CARTESIAN_POINT('',(241.5,217.8,107.9));
#944=CARTESIAN_POINT('',(241.5,217.8,107.9));
#945=CARTESIAN_POINT('',(171.5,217.8,107.9));
#946=CARTESIAN_POINT('',(101.5,217.8,107.9));
#947=CARTESIAN_POINT('',(101.5,217.8,133.8));
#948=CARTESIAN_POINT('',(171.5,217.8,107.9));
#949=CARTESIAN_POINT('',(98.3,297.95,107.9));
#950=CARTESIAN_POINT('',(98.3,221.,107.9));
#951=CARTESIAN_POINT('',(98.3,374.9,107.9));
#952=CARTESIAN_POINT('',(98.3,374.9,133.8));
#953=CARTESIAN_POINT('',(98.3,221.,107.9));
#954=CARTESIAN_POINT('',(98.3,297.95,107.9));
#955=CARTESIAN_POINT('',(101.5,378.1,107.9));
#956=CARTESIAN_POINT('',(101.5,378.1,107.9));
#957=CARTESIAN_POINT('',(171.5,378.1,107.9));
#958=CARTESIAN_POINT('',(241.5,378.1,107.9));
#959=CARTESIAN_POINT('',(241.5,378.1,133.8));
#960=CARTESIAN_POINT('',(171.5,378.1,107.9));
#961=CARTESIAN_POINT('',(139.7,264.3,107.9));
#962=CARTESIAN_POINT('',(139.7,249.5,107.9));
#963=CARTESIAN_POINT('',(125.229146059675,261.196069227935,107.9));
#964=CARTESIAN_POINT('',(123.3,266.4,107.9));
#965=CARTESIAN_POINT('',(124.9,271.714367318882,107.9));
#966=CARTESIAN_POINT('',(124.9,297.95,107.9));
#967=CARTESIAN_POINT('',(124.9,330.4,107.9));
#968=CARTESIAN_POINT('',(139.7,330.4,107.9));
#969=CARTESIAN_POINT('',(139.7,345.2,107.9));
#970=CARTESIAN_POINT('',(171.5,345.2,107.9));
#971=CARTESIAN_POINT('',(158.9,345.2,107.9));
#972=CARTESIAN_POINT('',(158.9,330.4,107.9));
#973=CARTESIAN_POINT('',(173.7,330.4,107.9));
#974=CARTESIAN_POINT('',(173.7,297.95,107.9));
#975=CARTESIAN_POINT('',(173.7,264.3,107.9));
#976=CARTESIAN_POINT('',(158.9,264.3,107.9));
#977=CARTESIAN_POINT('',(158.9,249.5,107.9));
#978=CARTESIAN_POINT('',(171.5,249.5,107.9));
#979=CARTESIAN_POINT('',(101.5,374.9,107.9));
#980=CARTESIAN_POINT('',(101.5,221.,107.9));
#981=CARTESIAN_POINT('',(241.5,221.,107.9));
#982=CARTESIAN_POINT('',(244.7,221.,107.9));
#983=CARTESIAN_POINT('',(244.7,297.95,107.9));
#984=CARTESIAN_POINT('',(244.7,374.9,107.9));
#985=CARTESIAN_POINT('',(241.5,374.9,107.9));
#986=CARTESIAN_POINT('',(171.5,297.95,107.9));
#987=CARTESIAN_POINT('',(244.7,374.9,107.9));
#988=CARTESIAN_POINT('',(244.7,221.,133.8));
#989=CARTESIAN_POINT('',(244.7,297.95,107.9));
#990=CARTESIAN_POINT('',(101.5,374.9,107.9));
#991=CARTESIAN_POINT('',(241.5,374.9,107.9));
#992=CARTESIAN_POINT('',(241.5,221.,107.9));
#993=CARTESIAN_POINT('',(101.5,221.,107.9));
#994=CARTESIAN_POINT('',(254.6,216.6,82.6));
#995=CARTESIAN_POINT('',(254.6,216.6,82.6));
#996=CARTESIAN_POINT('',(297.,216.6,82.6));
#997=CARTESIAN_POINT('',(275.8,216.6,82.6));
#998=CARTESIAN_POINT('',(297.,216.6,82.6));
#999=CARTESIAN_POINT('',(149.3,249.5,95.9));
#1000=CARTESIAN_POINT('',(158.9,249.5,95.9));
#1001=CARTESIAN_POINT('',(139.7,249.5,95.9));
#1002=CARTESIAN_POINT('',(139.7,249.5,107.9));
#1003=CARTESIAN_POINT('',(158.9,249.5,95.9));
#1004=CARTESIAN_POINT('',(149.3,249.5,95.9));
#1005=CARTESIAN_POINT('',(124.9,271.714367318882,133.85));
#1006=CARTESIAN_POINT('',(124.9,271.714367318882,95.9));
#1007=CARTESIAN_POINT('',(124.9,297.35,95.9));
#1008=CARTESIAN_POINT('',(124.9,330.4,95.9));
#1009=CARTESIAN_POINT('',(124.9,330.4,107.9));
#1010=CARTESIAN_POINT('',(124.9,297.35,95.9));
#1011=CARTESIAN_POINT('',(139.7,345.2,95.9));
#1012=CARTESIAN_POINT('',(139.7,345.2,95.9));
#1013=CARTESIAN_POINT('',(149.3,345.2,95.9));
#1014=CARTESIAN_POINT('',(158.9,345.2,95.9));
#1015=CARTESIAN_POINT('',(158.9,345.2,107.9));
#1016=CARTESIAN_POINT('',(149.3,345.2,95.9));
#1017=CARTESIAN_POINT('',(173.7,297.35,95.9));
#1018=CARTESIAN_POINT('',(173.7,330.4,95.9));
#1019=CARTESIAN_POINT('',(173.7,264.3,95.9));
#1020=CARTESIAN_POINT('',(173.7,264.3,107.9));
#1021=CARTESIAN_POINT('',(173.7,330.4,95.9));
#1022=CARTESIAN_POINT('',(173.7,297.35,95.9));
#1023=CARTESIAN_POINT('',(123.3,266.4,95.9));
#1024=CARTESIAN_POINT('',(125.229146059675,261.196069227935,95.9));
#1025=CARTESIAN_POINT('',(139.7,264.3,95.9));
#1026=CARTESIAN_POINT('',(158.9,264.3,95.9));
#1027=CARTESIAN_POINT('',(158.9,330.4,95.9));
#1028=CARTESIAN_POINT('',(139.7,330.4,95.9));
#1029=CARTESIAN_POINT('',(149.3,297.35,95.9));
#1030=CARTESIAN_POINT('',(125.229146059675,261.196069227935,106.975));
#1031=CARTESIAN_POINT('',(139.7,264.3,95.9));
#1032=CARTESIAN_POINT('',(158.9,264.3,95.9));
#1033=CARTESIAN_POINT('',(139.7,330.4,95.9));
#1034=CARTESIAN_POINT('',(158.9,330.4,95.9));
#1035=CARTESIAN_POINT('',(370.8,166.8,45.4));
#1036=CARTESIAN_POINT('',(376.35,166.8,45.4));
#1037=CARTESIAN_POINT('',(370.8,166.8,45.4));
#1038=CARTESIAN_POINT('',(370.8,166.8,133.85));
#1039=CARTESIAN_POINT('',(123.3,266.4,80.1));
#1040=CARTESIAN_POINT('',(128.85,266.4,80.1));
#1041=CARTESIAN_POINT('',(123.3,266.4,133.85));
#1042=CARTESIAN_POINT('',(123.3,266.4,80.1));
#1043=MECHANICAL_DESIGN_GEOMETRIC_PRESENTATION_REPRESENTATION('',(#24),
#1044);
#1044=(
GEOMETRIC_REPRESENTATION_CONTEXT(3)
GLOBAL_UNCERTAINTY_ASSIGNED_CONTEXT((#1045))
GLOBAL_UNIT_ASSIGNED_CONTEXT((#1051,#1047,#1046))
REPRESENTATION_CONTEXT('featured_part_01787','TOP_LEVEL_ASSEMBLY_PART')
);
#1045=UNCERTAINTY_MEASURE_WITH_UNIT(LENGTH_MEASURE(2.E-5),#1051,
'DISTANCE_ACCURACY_VALUE','Maximum Tolerance applied to model');
#1046=(
NAMED_UNIT(*)
SI_UNIT($,.STERADIAN.)
SOLID_ANGLE_UNIT()
);
#1047=(
CONVERSION_BASED_UNIT('DEGREE',#1049)
NAMED_UNIT(#1048)
PLANE_ANGLE_UNIT()
);
#1048=DIMENSIONAL_EXPONENTS(0.,0.,0.,0.,0.,0.,0.);
#1049=PLANE_ANGLE_MEASURE_WITH_UNIT(PLANE_ANGLE_MEASURE(0.0174532925),#1050);
#1050=(
NAMED_UNIT(*)
PLANE_ANGLE_UNIT()
SI_UNIT($,.RADIAN.)
);
#1051=(
LENGTH_UNIT()
NAMED_UNIT(*)
SI_UNIT(.MILLI.,.METRE.)
);
ENDSEC;
END-ISO-10303-21;
