ISO-10303-21;
HEADER;
/* Generated by software containing ST-Developer
 * from STEP Tools, Inc. (www.steptools.com) 
 */
/* OPTION: using custom schema-name function */

FILE_DESCRIPTION(
/* description */ (''),
/* implementation_level */ '2;1');

FILE_NAME(
/* name */ 'featured_part_00666.stp',
/* time_stamp */ '2026-07-01T14:36:09-04:00',
/* author */ (''),
/* organization */ (''),
/* preprocessor_version */ 'ST-DEVELOPER v20.1',
/* originating_system */ 'SIEMENS PLM Software NX2512.6002',
/* authorisation */ '');

FILE_SCHEMA (('AUTOMOTIVE_DESIGN { 1 0 10303 214 3 1 1 1 }'));
ENDSEC;

DATA;
#10=SHAPE_REPRESENTATION_RELATIONSHIP('None',
'relationship between featured_part_00666-None and featured_part_00666
-None',#22,#11);
#11=ADVANCED_BREP_SHAPE_REPRESENTATION('featured_part_00666-None',(#32),
#951);
#12=SHAPE_DEFINITION_REPRESENTATION(#13,#22);
#13=PRODUCT_DEFINITION_SHAPE('','',#14);
#14=PRODUCT_DEFINITION(' ','',#16,#15);
#15=PRODUCT_DEFINITION_CONTEXT('part definition',#21,'design');
#16=PRODUCT_DEFINITION_FORMATION_WITH_SPECIFIED_SOURCE(' ',' ',#18,
 .NOT_KNOWN.);
#17=PRODUCT_RELATED_PRODUCT_CATEGORY('part','',(#18));
#18=PRODUCT('featured_part_00666','featured_part_00666',' ',(#19));
#19=PRODUCT_CONTEXT(' ',#21,'mechanical');
#20=APPLICATION_PROTOCOL_DEFINITION('international standard',
'automotive_design',2010,#21);
#21=APPLICATION_CONTEXT(
'core data for automotive mechanical design processes');
#22=SHAPE_REPRESENTATION('featured_part_00666-None',(#582),#951);
#23=PRESENTATION_LAYER_ASSIGNMENT('1','Layer 1',(#32));
#24=STYLED_ITEM('',(#25),#32);
#25=PRESENTATION_STYLE_ASSIGNMENT((#26));
#26=SURFACE_STYLE_USAGE(.BOTH.,#27);
#27=SURFACE_SIDE_STYLE('',(#28));
#28=SURFACE_STYLE_FILL_AREA(#29);
#29=FILL_AREA_STYLE('',(#30));
#30=FILL_AREA_STYLE_COLOUR('',#31);
#31=COLOUR_RGB('medium steel',0.611764705882353,0.658823529411765,0.670588235294118);
#32=MANIFOLD_SOLID_BREP('',#33);
#33=CLOSED_SHELL('',(#71,#72,#73,#74,#75,#76,#77,#78,#79,#80,#81,#82,#83,
#84,#85,#86,#87,#88,#89,#90,#91,#92,#93,#94,#95,#96,#97,#98,#99,#100));
#34=CYLINDRICAL_SURFACE('',#600,14.4);
#35=CYLINDRICAL_SURFACE('',#614,6.5);
#36=CYLINDRICAL_SURFACE('',#615,6.5);
#37=CYLINDRICAL_SURFACE('',#616,6.5);
#38=CYLINDRICAL_SURFACE('',#617,6.5);
#39=CYLINDRICAL_SURFACE('',#627,12.7);
#40=CYLINDRICAL_SURFACE('',#628,12.7);
#41=CYLINDRICAL_SURFACE('',#629,12.7);
#42=CYLINDRICAL_SURFACE('',#630,12.7);
#43=FACE_OUTER_BOUND('',#128,.T.);
#44=FACE_OUTER_BOUND('',#129,.T.);
#45=FACE_OUTER_BOUND('',#130,.T.);
#46=FACE_OUTER_BOUND('',#131,.T.);
#47=FACE_OUTER_BOUND('',#132,.T.);
#48=FACE_OUTER_BOUND('',#133,.T.);
#49=FACE_OUTER_BOUND('',#134,.T.);
#50=FACE_OUTER_BOUND('',#135,.T.);
#51=FACE_OUTER_BOUND('',#136,.T.);
#52=FACE_OUTER_BOUND('',#137,.T.);
#53=FACE_OUTER_BOUND('',#138,.T.);
#54=FACE_OUTER_BOUND('',#139,.T.);
#55=FACE_OUTER_BOUND('',#140,.T.);
#56=FACE_OUTER_BOUND('',#141,.T.);
#57=FACE_OUTER_BOUND('',#144,.T.);
#58=FACE_OUTER_BOUND('',#145,.T.);
#59=FACE_OUTER_BOUND('',#146,.T.);
#60=FACE_OUTER_BOUND('',#147,.T.);
#61=FACE_OUTER_BOUND('',#148,.T.);
#62=FACE_OUTER_BOUND('',#149,.T.);
#63=FACE_OUTER_BOUND('',#150,.T.);
#64=FACE_OUTER_BOUND('',#151,.T.);
#65=FACE_OUTER_BOUND('',#152,.T.);
#66=FACE_OUTER_BOUND('',#153,.T.);
#67=FACE_OUTER_BOUND('',#154,.T.);
#68=FACE_OUTER_BOUND('',#155,.T.);
#69=FACE_OUTER_BOUND('',#156,.T.);
#70=FACE_OUTER_BOUND('',#157,.T.);
#71=ADVANCED_FACE('',(#122,#123),#101,.T.);
#72=ADVANCED_FACE('',(#43),#102,.T.);
#73=ADVANCED_FACE('',(#44),#103,.T.);
#74=ADVANCED_FACE('',(#45),#104,.T.);
#75=ADVANCED_FACE('',(#46),#105,.T.);
#76=ADVANCED_FACE('',(#47),#106,.T.);
#77=ADVANCED_FACE('',(#48),#107,.F.);
#78=ADVANCED_FACE('',(#49),#108,.F.);
#79=ADVANCED_FACE('',(#50),#109,.F.);
#80=ADVANCED_FACE('',(#51),#110,.F.);
#81=ADVANCED_FACE('',(#52),#111,.F.);
#82=ADVANCED_FACE('',(#53),#34,.F.);
#83=ADVANCED_FACE('',(#54),#112,.F.);
#84=ADVANCED_FACE('',(#55),#113,.F.);
#85=ADVANCED_FACE('',(#56),#114,.F.);
#86=ADVANCED_FACE('',(#124,#125),#115,.F.);
#87=ADVANCED_FACE('',(#57),#116,.F.);
#88=ADVANCED_FACE('',(#58),#35,.F.);
#89=ADVANCED_FACE('',(#59),#36,.F.);
#90=ADVANCED_FACE('',(#60),#37,.F.);
#91=ADVANCED_FACE('',(#61),#38,.F.);
#92=ADVANCED_FACE('',(#62),#117,.F.);
#93=ADVANCED_FACE('',(#63),#118,.F.);
#94=ADVANCED_FACE('',(#64),#119,.F.);
#95=ADVANCED_FACE('',(#65),#120,.F.);
#96=ADVANCED_FACE('',(#66),#121,.F.);
#97=ADVANCED_FACE('',(#67),#39,.F.);
#98=ADVANCED_FACE('',(#68),#40,.F.);
#99=ADVANCED_FACE('',(#69),#41,.F.);
#100=ADVANCED_FACE('',(#70),#42,.F.);
#101=PLANE('',#588);
#102=PLANE('',#589);
#103=PLANE('',#590);
#104=PLANE('',#591);
#105=PLANE('',#592);
#106=PLANE('',#593);
#107=PLANE('',#594);
#108=PLANE('',#595);
#109=PLANE('',#596);
#110=PLANE('',#598);
#111=PLANE('',#599);
#112=PLANE('',#601);
#113=PLANE('',#602);
#114=PLANE('',#603);
#115=PLANE('',#612);
#116=PLANE('',#613);
#117=PLANE('',#618);
#118=PLANE('',#619);
#119=PLANE('',#620);
#120=PLANE('',#621);
#121=PLANE('',#626);
#122=FACE_BOUND('',#126,.T.);
#123=FACE_BOUND('',#127,.T.);
#124=FACE_BOUND('',#142,.T.);
#125=FACE_BOUND('',#143,.T.);
#126=EDGE_LOOP('',(#176,#177,#178,#179,#180,#181,#182,#183));
#127=EDGE_LOOP('',(#184,#185,#186,#187,#188,#189,#190));
#128=EDGE_LOOP('',(#191,#192,#193,#194,#195,#196));
#129=EDGE_LOOP('',(#197,#198,#199,#200,#201,#202,#203));
#130=EDGE_LOOP('',(#204,#205,#206,#207));
#131=EDGE_LOOP('',(#208,#209,#210,#211));
#132=EDGE_LOOP('',(#212,#213,#214,#215,#216));
#133=EDGE_LOOP('',(#217,#218,#219,#220,#221));
#134=EDGE_LOOP('',(#222,#223,#224,#225));
#135=EDGE_LOOP('',(#226,#227,#228,#229,#230));
#136=EDGE_LOOP('',(#231,#232,#233,#234,#235));
#137=EDGE_LOOP('',(#236,#237,#238,#239));
#138=EDGE_LOOP('',(#240,#241,#242,#243));
#139=EDGE_LOOP('',(#244,#245,#246,#247));
#140=EDGE_LOOP('',(#248,#249,#250,#251));
#141=EDGE_LOOP('',(#252,#253,#254,#255));
#142=EDGE_LOOP('',(#256,#257,#258,#259,#260,#261,#262,#263));
#143=EDGE_LOOP('',(#264,#265,#266,#267,#268,#269,#270,#271));
#144=EDGE_LOOP('',(#272,#273,#274,#275));
#145=EDGE_LOOP('',(#276,#277,#278,#279));
#146=EDGE_LOOP('',(#280,#281,#282,#283));
#147=EDGE_LOOP('',(#284,#285,#286,#287));
#148=EDGE_LOOP('',(#288,#289,#290,#291));
#149=EDGE_LOOP('',(#292,#293,#294,#295));
#150=EDGE_LOOP('',(#296,#297,#298,#299));
#151=EDGE_LOOP('',(#300,#301,#302,#303));
#152=EDGE_LOOP('',(#304,#305,#306,#307));
#153=EDGE_LOOP('',(#308,#309,#310,#311,#312,#313,#314,#315));
#154=EDGE_LOOP('',(#316,#317,#318,#319));
#155=EDGE_LOOP('',(#320,#321,#322,#323));
#156=EDGE_LOOP('',(#324,#325,#326,#327));
#157=EDGE_LOOP('',(#328,#329,#330,#331));
#158=CIRCLE('',#583,6.5);
#159=CIRCLE('',#584,6.5);
#160=CIRCLE('',#585,6.5);
#161=CIRCLE('',#586,6.5);
#162=CIRCLE('',#587,14.4);
#163=CIRCLE('',#597,14.4);
#164=CIRCLE('',#604,12.7);
#165=CIRCLE('',#605,12.7);
#166=CIRCLE('',#606,12.7);
#167=CIRCLE('',#607,12.7);
#168=CIRCLE('',#608,6.5);
#169=CIRCLE('',#609,6.5);
#170=CIRCLE('',#610,6.5);
#171=CIRCLE('',#611,6.5);
#172=CIRCLE('',#622,12.7);
#173=CIRCLE('',#623,12.7);
#174=CIRCLE('',#624,12.7);
#175=CIRCLE('',#625,12.7);
#176=ORIENTED_EDGE('',*,*,#384,.F.);
#177=ORIENTED_EDGE('',*,*,#385,.T.);
#178=ORIENTED_EDGE('',*,*,#386,.F.);
#179=ORIENTED_EDGE('',*,*,#387,.T.);
#180=ORIENTED_EDGE('',*,*,#388,.F.);
#181=ORIENTED_EDGE('',*,*,#389,.T.);
#182=ORIENTED_EDGE('',*,*,#390,.F.);
#183=ORIENTED_EDGE('',*,*,#391,.T.);
#184=ORIENTED_EDGE('',*,*,#392,.F.);
#185=ORIENTED_EDGE('',*,*,#393,.T.);
#186=ORIENTED_EDGE('',*,*,#394,.F.);
#187=ORIENTED_EDGE('',*,*,#395,.F.);
#188=ORIENTED_EDGE('',*,*,#396,.F.);
#189=ORIENTED_EDGE('',*,*,#397,.T.);
#190=ORIENTED_EDGE('',*,*,#398,.T.);
#191=ORIENTED_EDGE('',*,*,#399,.F.);
#192=ORIENTED_EDGE('',*,*,#400,.F.);
#193=ORIENTED_EDGE('',*,*,#401,.T.);
#194=ORIENTED_EDGE('',*,*,#402,.T.);
#195=ORIENTED_EDGE('',*,*,#395,.T.);
#196=ORIENTED_EDGE('',*,*,#403,.F.);
#197=ORIENTED_EDGE('',*,*,#404,.T.);
#198=ORIENTED_EDGE('',*,*,#405,.T.);
#199=ORIENTED_EDGE('',*,*,#406,.T.);
#200=ORIENTED_EDGE('',*,*,#407,.F.);
#201=ORIENTED_EDGE('',*,*,#408,.T.);
#202=ORIENTED_EDGE('',*,*,#400,.T.);
#203=ORIENTED_EDGE('',*,*,#409,.F.);
#204=ORIENTED_EDGE('',*,*,#407,.T.);
#205=ORIENTED_EDGE('',*,*,#410,.T.);
#206=ORIENTED_EDGE('',*,*,#411,.F.);
#207=ORIENTED_EDGE('',*,*,#412,.T.);
#208=ORIENTED_EDGE('',*,*,#413,.F.);
#209=ORIENTED_EDGE('',*,*,#401,.F.);
#210=ORIENTED_EDGE('',*,*,#408,.F.);
#211=ORIENTED_EDGE('',*,*,#412,.F.);
#212=ORIENTED_EDGE('',*,*,#411,.T.);
#213=ORIENTED_EDGE('',*,*,#414,.T.);
#214=ORIENTED_EDGE('',*,*,#396,.T.);
#215=ORIENTED_EDGE('',*,*,#402,.F.);
#216=ORIENTED_EDGE('',*,*,#413,.T.);
#217=ORIENTED_EDGE('',*,*,#406,.F.);
#218=ORIENTED_EDGE('',*,*,#415,.T.);
#219=ORIENTED_EDGE('',*,*,#397,.F.);
#220=ORIENTED_EDGE('',*,*,#414,.F.);
#221=ORIENTED_EDGE('',*,*,#410,.F.);
#222=ORIENTED_EDGE('',*,*,#416,.F.);
#223=ORIENTED_EDGE('',*,*,#398,.F.);
#224=ORIENTED_EDGE('',*,*,#415,.F.);
#225=ORIENTED_EDGE('',*,*,#405,.F.);
#226=ORIENTED_EDGE('',*,*,#417,.T.);
#227=ORIENTED_EDGE('',*,*,#418,.T.);
#228=ORIENTED_EDGE('',*,*,#392,.T.);
#229=ORIENTED_EDGE('',*,*,#416,.T.);
#230=ORIENTED_EDGE('',*,*,#404,.F.);
#231=ORIENTED_EDGE('',*,*,#419,.F.);
#232=ORIENTED_EDGE('',*,*,#420,.T.);
#233=ORIENTED_EDGE('',*,*,#417,.F.);
#234=ORIENTED_EDGE('',*,*,#409,.T.);
#235=ORIENTED_EDGE('',*,*,#399,.T.);
#236=ORIENTED_EDGE('',*,*,#394,.T.);
#237=ORIENTED_EDGE('',*,*,#421,.T.);
#238=ORIENTED_EDGE('',*,*,#419,.T.);
#239=ORIENTED_EDGE('',*,*,#403,.T.);
#240=ORIENTED_EDGE('',*,*,#393,.F.);
#241=ORIENTED_EDGE('',*,*,#418,.F.);
#242=ORIENTED_EDGE('',*,*,#420,.F.);
#243=ORIENTED_EDGE('',*,*,#421,.F.);
#244=ORIENTED_EDGE('',*,*,#422,.T.);
#245=ORIENTED_EDGE('',*,*,#423,.T.);
#246=ORIENTED_EDGE('',*,*,#384,.T.);
#247=ORIENTED_EDGE('',*,*,#424,.T.);
#248=ORIENTED_EDGE('',*,*,#386,.T.);
#249=ORIENTED_EDGE('',*,*,#425,.T.);
#250=ORIENTED_EDGE('',*,*,#426,.T.);
#251=ORIENTED_EDGE('',*,*,#427,.T.);
#252=ORIENTED_EDGE('',*,*,#428,.T.);
#253=ORIENTED_EDGE('',*,*,#429,.T.);
#254=ORIENTED_EDGE('',*,*,#388,.T.);
#255=ORIENTED_EDGE('',*,*,#430,.T.);
#256=ORIENTED_EDGE('',*,*,#431,.T.);
#257=ORIENTED_EDGE('',*,*,#432,.T.);
#258=ORIENTED_EDGE('',*,*,#433,.T.);
#259=ORIENTED_EDGE('',*,*,#434,.T.);
#260=ORIENTED_EDGE('',*,*,#435,.T.);
#261=ORIENTED_EDGE('',*,*,#436,.T.);
#262=ORIENTED_EDGE('',*,*,#437,.T.);
#263=ORIENTED_EDGE('',*,*,#438,.T.);
#264=ORIENTED_EDGE('',*,*,#426,.F.);
#265=ORIENTED_EDGE('',*,*,#439,.T.);
#266=ORIENTED_EDGE('',*,*,#422,.F.);
#267=ORIENTED_EDGE('',*,*,#440,.T.);
#268=ORIENTED_EDGE('',*,*,#441,.F.);
#269=ORIENTED_EDGE('',*,*,#442,.T.);
#270=ORIENTED_EDGE('',*,*,#428,.F.);
#271=ORIENTED_EDGE('',*,*,#443,.T.);
#272=ORIENTED_EDGE('',*,*,#390,.T.);
#273=ORIENTED_EDGE('',*,*,#444,.T.);
#274=ORIENTED_EDGE('',*,*,#441,.T.);
#275=ORIENTED_EDGE('',*,*,#445,.T.);
#276=ORIENTED_EDGE('',*,*,#385,.F.);
#277=ORIENTED_EDGE('',*,*,#423,.F.);
#278=ORIENTED_EDGE('',*,*,#439,.F.);
#279=ORIENTED_EDGE('',*,*,#425,.F.);
#280=ORIENTED_EDGE('',*,*,#389,.F.);
#281=ORIENTED_EDGE('',*,*,#429,.F.);
#282=ORIENTED_EDGE('',*,*,#442,.F.);
#283=ORIENTED_EDGE('',*,*,#444,.F.);
#284=ORIENTED_EDGE('',*,*,#387,.F.);
#285=ORIENTED_EDGE('',*,*,#427,.F.);
#286=ORIENTED_EDGE('',*,*,#443,.F.);
#287=ORIENTED_EDGE('',*,*,#430,.F.);
#288=ORIENTED_EDGE('',*,*,#391,.F.);
#289=ORIENTED_EDGE('',*,*,#445,.F.);
#290=ORIENTED_EDGE('',*,*,#440,.F.);
#291=ORIENTED_EDGE('',*,*,#424,.F.);
#292=ORIENTED_EDGE('',*,*,#446,.T.);
#293=ORIENTED_EDGE('',*,*,#447,.T.);
#294=ORIENTED_EDGE('',*,*,#435,.F.);
#295=ORIENTED_EDGE('',*,*,#448,.T.);
#296=ORIENTED_EDGE('',*,*,#449,.T.);
#297=ORIENTED_EDGE('',*,*,#450,.T.);
#298=ORIENTED_EDGE('',*,*,#437,.F.);
#299=ORIENTED_EDGE('',*,*,#451,.T.);
#300=ORIENTED_EDGE('',*,*,#452,.T.);
#301=ORIENTED_EDGE('',*,*,#453,.T.);
#302=ORIENTED_EDGE('',*,*,#431,.F.);
#303=ORIENTED_EDGE('',*,*,#454,.T.);
#304=ORIENTED_EDGE('',*,*,#433,.F.);
#305=ORIENTED_EDGE('',*,*,#455,.T.);
#306=ORIENTED_EDGE('',*,*,#456,.T.);
#307=ORIENTED_EDGE('',*,*,#457,.T.);
#308=ORIENTED_EDGE('',*,*,#456,.F.);
#309=ORIENTED_EDGE('',*,*,#458,.T.);
#310=ORIENTED_EDGE('',*,*,#452,.F.);
#311=ORIENTED_EDGE('',*,*,#459,.T.);
#312=ORIENTED_EDGE('',*,*,#449,.F.);
#313=ORIENTED_EDGE('',*,*,#460,.T.);
#314=ORIENTED_EDGE('',*,*,#446,.F.);
#315=ORIENTED_EDGE('',*,*,#461,.T.);
#316=ORIENTED_EDGE('',*,*,#432,.F.);
#317=ORIENTED_EDGE('',*,*,#453,.F.);
#318=ORIENTED_EDGE('',*,*,#458,.F.);
#319=ORIENTED_EDGE('',*,*,#455,.F.);
#320=ORIENTED_EDGE('',*,*,#438,.F.);
#321=ORIENTED_EDGE('',*,*,#450,.F.);
#322=ORIENTED_EDGE('',*,*,#459,.F.);
#323=ORIENTED_EDGE('',*,*,#454,.F.);
#324=ORIENTED_EDGE('',*,*,#436,.F.);
#325=ORIENTED_EDGE('',*,*,#447,.F.);
#326=ORIENTED_EDGE('',*,*,#460,.F.);
#327=ORIENTED_EDGE('',*,*,#451,.F.);
#328=ORIENTED_EDGE('',*,*,#434,.F.);
#329=ORIENTED_EDGE('',*,*,#457,.F.);
#330=ORIENTED_EDGE('',*,*,#461,.F.);
#331=ORIENTED_EDGE('',*,*,#448,.F.);
#332=VERTEX_POINT('',#791);
#333=VERTEX_POINT('',#792);
#334=VERTEX_POINT('',#794);
#335=VERTEX_POINT('',#796);
#336=VERTEX_POINT('',#798);
#337=VERTEX_POINT('',#800);
#338=VERTEX_POINT('',#802);
#339=VERTEX_POINT('',#804);
#340=VERTEX_POINT('',#807);
#341=VERTEX_POINT('',#808);
#342=VERTEX_POINT('',#810);
#343=VERTEX_POINT('',#812);
#344=VERTEX_POINT('',#814);
#345=VERTEX_POINT('',#816);
#346=VERTEX_POINT('',#818);
#347=VERTEX_POINT('',#822);
#348=VERTEX_POINT('',#823);
#349=VERTEX_POINT('',#825);
#350=VERTEX_POINT('',#827);
#351=VERTEX_POINT('',#832);
#352=VERTEX_POINT('',#833);
#353=VERTEX_POINT('',#835);
#354=VERTEX_POINT('',#837);
#355=VERTEX_POINT('',#839);
#356=VERTEX_POINT('',#844);
#357=VERTEX_POINT('',#846);
#358=VERTEX_POINT('',#858);
#359=VERTEX_POINT('',#862);
#360=VERTEX_POINT('',#869);
#361=VERTEX_POINT('',#870);
#362=VERTEX_POINT('',#875);
#363=VERTEX_POINT('',#877);
#364=VERTEX_POINT('',#881);
#365=VERTEX_POINT('',#882);
#366=VERTEX_POINT('',#887);
#367=VERTEX_POINT('',#888);
#368=VERTEX_POINT('',#890);
#369=VERTEX_POINT('',#892);
#370=VERTEX_POINT('',#894);
#371=VERTEX_POINT('',#896);
#372=VERTEX_POINT('',#898);
#373=VERTEX_POINT('',#900);
#374=VERTEX_POINT('',#904);
#375=VERTEX_POINT('',#906);
#376=VERTEX_POINT('',#918);
#377=VERTEX_POINT('',#919);
#378=VERTEX_POINT('',#924);
#379=VERTEX_POINT('',#925);
#380=VERTEX_POINT('',#930);
#381=VERTEX_POINT('',#931);
#382=VERTEX_POINT('',#936);
#383=VERTEX_POINT('',#938);
#384=EDGE_CURVE('',#332,#333,#462,.T.);
#385=EDGE_CURVE('',#332,#334,#158,.T.);
#386=EDGE_CURVE('',#335,#334,#463,.T.);
#387=EDGE_CURVE('',#335,#336,#159,.T.);
#388=EDGE_CURVE('',#337,#336,#464,.T.);
#389=EDGE_CURVE('',#337,#338,#160,.T.);
#390=EDGE_CURVE('',#339,#338,#465,.T.);
#391=EDGE_CURVE('',#339,#333,#161,.T.);
#392=EDGE_CURVE('',#340,#341,#466,.T.);
#393=EDGE_CURVE('',#340,#342,#162,.T.);
#394=EDGE_CURVE('',#343,#342,#467,.T.);
#395=EDGE_CURVE('',#344,#343,#468,.T.);
#396=EDGE_CURVE('',#345,#344,#469,.T.);
#397=EDGE_CURVE('',#345,#346,#470,.T.);
#398=EDGE_CURVE('',#346,#341,#471,.T.);
#399=EDGE_CURVE('',#347,#348,#472,.T.);
#400=EDGE_CURVE('',#349,#347,#473,.T.);
#401=EDGE_CURVE('',#349,#350,#474,.T.);
#402=EDGE_CURVE('',#350,#344,#475,.T.);
#403=EDGE_CURVE('',#348,#343,#476,.T.);
#404=EDGE_CURVE('',#351,#352,#477,.T.);
#405=EDGE_CURVE('',#352,#353,#478,.T.);
#406=EDGE_CURVE('',#353,#354,#479,.T.);
#407=EDGE_CURVE('',#355,#354,#480,.T.);
#408=EDGE_CURVE('',#355,#349,#481,.T.);
#409=EDGE_CURVE('',#351,#347,#482,.T.);
#410=EDGE_CURVE('',#354,#356,#483,.T.);
#411=EDGE_CURVE('',#357,#356,#484,.T.);
#412=EDGE_CURVE('',#357,#355,#485,.T.);
#413=EDGE_CURVE('',#350,#357,#486,.T.);
#414=EDGE_CURVE('',#356,#345,#487,.T.);
#415=EDGE_CURVE('',#353,#346,#488,.T.);
#416=EDGE_CURVE('',#341,#352,#489,.T.);
#417=EDGE_CURVE('',#351,#358,#490,.T.);
#418=EDGE_CURVE('',#358,#340,#491,.T.);
#419=EDGE_CURVE('',#359,#348,#492,.T.);
#420=EDGE_CURVE('',#359,#358,#163,.T.);
#421=EDGE_CURVE('',#342,#359,#493,.T.);
#422=EDGE_CURVE('',#360,#361,#494,.T.);
#423=EDGE_CURVE('',#361,#332,#495,.T.);
#424=EDGE_CURVE('',#333,#360,#496,.T.);
#425=EDGE_CURVE('',#334,#362,#497,.T.);
#426=EDGE_CURVE('',#362,#363,#498,.T.);
#427=EDGE_CURVE('',#363,#335,#499,.T.);
#428=EDGE_CURVE('',#364,#365,#500,.T.);
#429=EDGE_CURVE('',#365,#337,#501,.T.);
#430=EDGE_CURVE('',#336,#364,#502,.T.);
#431=EDGE_CURVE('',#366,#367,#503,.T.);
#432=EDGE_CURVE('',#367,#368,#164,.T.);
#433=EDGE_CURVE('',#368,#369,#504,.T.);
#434=EDGE_CURVE('',#369,#370,#165,.T.);
#435=EDGE_CURVE('',#370,#371,#505,.T.);
#436=EDGE_CURVE('',#371,#372,#166,.T.);
#437=EDGE_CURVE('',#372,#373,#506,.T.);
#438=EDGE_CURVE('',#373,#366,#167,.T.);
#439=EDGE_CURVE('',#362,#361,#168,.T.);
#440=EDGE_CURVE('',#360,#374,#169,.T.);
#441=EDGE_CURVE('',#375,#374,#507,.T.);
#442=EDGE_CURVE('',#375,#365,#170,.T.);
#443=EDGE_CURVE('',#364,#363,#171,.T.);
#444=EDGE_CURVE('',#338,#375,#508,.T.);
#445=EDGE_CURVE('',#374,#339,#509,.T.);
#446=EDGE_CURVE('',#376,#377,#510,.T.);
#447=EDGE_CURVE('',#377,#371,#511,.T.);
#448=EDGE_CURVE('',#370,#376,#512,.T.);
#449=EDGE_CURVE('',#378,#379,#513,.T.);
#450=EDGE_CURVE('',#379,#373,#514,.T.);
#451=EDGE_CURVE('',#372,#378,#515,.T.);
#452=EDGE_CURVE('',#380,#381,#516,.T.);
#453=EDGE_CURVE('',#381,#367,#517,.T.);
#454=EDGE_CURVE('',#366,#380,#518,.T.);
#455=EDGE_CURVE('',#368,#382,#519,.T.);
#456=EDGE_CURVE('',#382,#383,#520,.T.);
#457=EDGE_CURVE('',#383,#369,#521,.T.);
#458=EDGE_CURVE('',#382,#381,#172,.T.);
#459=EDGE_CURVE('',#380,#379,#173,.T.);
#460=EDGE_CURVE('',#378,#377,#174,.T.);
#461=EDGE_CURVE('',#376,#383,#175,.T.);
#462=LINE('',#790,#522);
#463=LINE('',#795,#523);
#464=LINE('',#799,#524);
#465=LINE('',#803,#525);
#466=LINE('',#806,#526);
#467=LINE('',#811,#527);
#468=LINE('',#813,#528);
#469=LINE('',#815,#529);
#470=LINE('',#817,#530);
#471=LINE('',#819,#531);
#472=LINE('',#821,#532);
#473=LINE('',#824,#533);
#474=LINE('',#826,#534);
#475=LINE('',#828,#535);
#476=LINE('',#829,#536);
#477=LINE('',#831,#537);
#478=LINE('',#834,#538);
#479=LINE('',#836,#539);
#480=LINE('',#838,#540);
#481=LINE('',#840,#541);
#482=LINE('',#841,#542);
#483=LINE('',#843,#543);
#484=LINE('',#845,#544);
#485=LINE('',#847,#545);
#486=LINE('',#849,#546);
#487=LINE('',#851,#547);
#488=LINE('',#853,#548);
#489=LINE('',#855,#549);
#490=LINE('',#857,#550);
#491=LINE('',#859,#551);
#492=LINE('',#861,#552);
#493=LINE('',#865,#553);
#494=LINE('',#868,#554);
#495=LINE('',#871,#555);
#496=LINE('',#872,#556);
#497=LINE('',#874,#557);
#498=LINE('',#876,#558);
#499=LINE('',#878,#559);
#500=LINE('',#880,#560);
#501=LINE('',#883,#561);
#502=LINE('',#884,#562);
#503=LINE('',#886,#563);
#504=LINE('',#891,#564);
#505=LINE('',#895,#565);
#506=LINE('',#899,#566);
#507=LINE('',#905,#567);
#508=LINE('',#910,#568);
#509=LINE('',#911,#569);
#510=LINE('',#917,#570);
#511=LINE('',#920,#571);
#512=LINE('',#921,#572);
#513=LINE('',#923,#573);
#514=LINE('',#926,#574);
#515=LINE('',#927,#575);
#516=LINE('',#929,#576);
#517=LINE('',#932,#577);
#518=LINE('',#933,#578);
#519=LINE('',#935,#579);
#520=LINE('',#937,#580);
#521=LINE('',#939,#581);
#522=VECTOR('',#633,1.);
#523=VECTOR('',#636,1.);
#524=VECTOR('',#639,1.);
#525=VECTOR('',#642,1.);
#526=VECTOR('',#645,1.);
#527=VECTOR('',#648,1.);
#528=VECTOR('',#649,1.);
#529=VECTOR('',#650,1.);
#530=VECTOR('',#651,1.);
#531=VECTOR('',#652,1.);
#532=VECTOR('',#655,1.);
#533=VECTOR('',#656,1.);
#534=VECTOR('',#657,1.);
#535=VECTOR('',#658,1.);
#536=VECTOR('',#659,1.);
#537=VECTOR('',#662,1.);
#538=VECTOR('',#663,1.);
#539=VECTOR('',#664,1.);
#540=VECTOR('',#665,1.);
#541=VECTOR('',#666,1.);
#542=VECTOR('',#667,1.);
#543=VECTOR('',#670,1.);
#544=VECTOR('',#671,1.);
#545=VECTOR('',#672,1.);
#546=VECTOR('',#675,1.);
#547=VECTOR('',#678,1.);
#548=VECTOR('',#681,1.);
#549=VECTOR('',#684,1.);
#550=VECTOR('',#687,1.);
#551=VECTOR('',#688,1.);
#552=VECTOR('',#691,1.);
#553=VECTOR('',#696,1.);
#554=VECTOR('',#701,1.);
#555=VECTOR('',#702,1.);
#556=VECTOR('',#703,1.);
#557=VECTOR('',#706,1.);
#558=VECTOR('',#707,1.);
#559=VECTOR('',#708,1.);
#560=VECTOR('',#711,1.);
#561=VECTOR('',#712,1.);
#562=VECTOR('',#713,1.);
#563=VECTOR('',#716,1.);
#564=VECTOR('',#719,1.);
#565=VECTOR('',#722,1.);
#566=VECTOR('',#725,1.);
#567=VECTOR('',#732,1.);
#568=VECTOR('',#739,1.);
#569=VECTOR('',#740,1.);
#570=VECTOR('',#751,1.);
#571=VECTOR('',#752,1.);
#572=VECTOR('',#753,1.);
#573=VECTOR('',#756,1.);
#574=VECTOR('',#757,1.);
#575=VECTOR('',#758,1.);
#576=VECTOR('',#761,1.);
#577=VECTOR('',#762,1.);
#578=VECTOR('',#763,1.);
#579=VECTOR('',#766,1.);
#580=VECTOR('',#767,1.);
#581=VECTOR('',#768,1.);
#582=AXIS2_PLACEMENT_3D('',#789,#631,#632);
#583=AXIS2_PLACEMENT_3D('',#793,#634,#635);
#584=AXIS2_PLACEMENT_3D('',#797,#637,#638);
#585=AXIS2_PLACEMENT_3D('',#801,#640,#641);
#586=AXIS2_PLACEMENT_3D('',#805,#643,#644);
#587=AXIS2_PLACEMENT_3D('',#809,#646,#647);
#588=AXIS2_PLACEMENT_3D('',#820,#653,#654);
#589=AXIS2_PLACEMENT_3D('',#830,#660,#661);
#590=AXIS2_PLACEMENT_3D('',#842,#668,#669);
#591=AXIS2_PLACEMENT_3D('',#848,#673,#674);
#592=AXIS2_PLACEMENT_3D('',#850,#676,#677);
#593=AXIS2_PLACEMENT_3D('',#852,#679,#680);
#594=AXIS2_PLACEMENT_3D('',#854,#682,#683);
#595=AXIS2_PLACEMENT_3D('',#856,#685,#686);
#596=AXIS2_PLACEMENT_3D('',#860,#689,#690);
#597=AXIS2_PLACEMENT_3D('',#863,#692,#693);
#598=AXIS2_PLACEMENT_3D('',#864,#694,#695);
#599=AXIS2_PLACEMENT_3D('',#866,#697,#698);
#600=AXIS2_PLACEMENT_3D('',#867,#699,#700);
#601=AXIS2_PLACEMENT_3D('',#873,#704,#705);
#602=AXIS2_PLACEMENT_3D('',#879,#709,#710);
#603=AXIS2_PLACEMENT_3D('',#885,#714,#715);
#604=AXIS2_PLACEMENT_3D('',#889,#717,#718);
#605=AXIS2_PLACEMENT_3D('',#893,#720,#721);
#606=AXIS2_PLACEMENT_3D('',#897,#723,#724);
#607=AXIS2_PLACEMENT_3D('',#901,#726,#727);
#608=AXIS2_PLACEMENT_3D('',#902,#728,#729);
#609=AXIS2_PLACEMENT_3D('',#903,#730,#731);
#610=AXIS2_PLACEMENT_3D('',#907,#733,#734);
#611=AXIS2_PLACEMENT_3D('',#908,#735,#736);
#612=AXIS2_PLACEMENT_3D('',#909,#737,#738);
#613=AXIS2_PLACEMENT_3D('',#912,#741,#742);
#614=AXIS2_PLACEMENT_3D('',#913,#743,#744);
#615=AXIS2_PLACEMENT_3D('',#914,#745,#746);
#616=AXIS2_PLACEMENT_3D('',#915,#747,#748);
#617=AXIS2_PLACEMENT_3D('',#916,#749,#750);
#618=AXIS2_PLACEMENT_3D('',#922,#754,#755);
#619=AXIS2_PLACEMENT_3D('',#928,#759,#760);
#620=AXIS2_PLACEMENT_3D('',#934,#764,#765);
#621=AXIS2_PLACEMENT_3D('',#940,#769,#770);
#622=AXIS2_PLACEMENT_3D('',#941,#771,#772);
#623=AXIS2_PLACEMENT_3D('',#942,#773,#774);
#624=AXIS2_PLACEMENT_3D('',#943,#775,#776);
#625=AXIS2_PLACEMENT_3D('',#944,#777,#778);
#626=AXIS2_PLACEMENT_3D('',#945,#779,#780);
#627=AXIS2_PLACEMENT_3D('',#946,#781,#782);
#628=AXIS2_PLACEMENT_3D('',#947,#783,#784);
#629=AXIS2_PLACEMENT_3D('',#948,#785,#786);
#630=AXIS2_PLACEMENT_3D('',#949,#787,#788);
#631=DIRECTION('',(0.,0.,1.));
#632=DIRECTION('',(1.,0.,0.));
#633=DIRECTION('',(1.,0.,0.));
#634=DIRECTION('',(0.,0.,-1.));
#635=DIRECTION('',(1.,0.,0.));
#636=DIRECTION('',(0.,-1.,0.));
#637=DIRECTION('',(0.,0.,-1.));
#638=DIRECTION('',(1.,0.,0.));
#639=DIRECTION('',(-1.,0.,0.));
#640=DIRECTION('',(0.,0.,-1.));
#641=DIRECTION('',(1.,0.,0.));
#642=DIRECTION('',(0.,1.,0.));
#643=DIRECTION('',(0.,0.,-1.));
#644=DIRECTION('',(1.,0.,0.));
#645=DIRECTION('',(-1.,0.,0.));
#646=DIRECTION('',(0.,0.,-1.));
#647=DIRECTION('',(1.,0.,0.));
#648=DIRECTION('',(0.,1.,0.));
#649=DIRECTION('',(-1.,0.,0.));
#650=DIRECTION('',(0.,-1.,0.));
#651=DIRECTION('',(-1.,0.,0.));
#652=DIRECTION('',(0.,-1.,0.));
#653=DIRECTION('',(0.,0.,1.));
#654=DIRECTION('',(1.,0.,0.));
#655=DIRECTION('',(1.,0.,0.));
#656=DIRECTION('',(0.,0.,1.));
#657=DIRECTION('',(1.,0.,0.));
#658=DIRECTION('',(0.,0.,1.));
#659=DIRECTION('',(0.,0.,1.));
#660=DIRECTION('',(0.,-1.,0.));
#661=DIRECTION('',(0.,0.,-1.));
#662=DIRECTION('',(0.,0.,1.));
#663=DIRECTION('',(0.,1.,0.));
#664=DIRECTION('',(0.,0.707106781186547,-0.707106781186548));
#665=DIRECTION('',(0.,0.,1.));
#666=DIRECTION('',(0.,-1.,0.));
#667=DIRECTION('',(0.,-1.,0.));
#668=DIRECTION('',(-1.,0.,0.));
#669=DIRECTION('',(0.,0.,1.));
#670=DIRECTION('',(1.,0.,0.));
#671=DIRECTION('',(0.,0.,1.));
#672=DIRECTION('',(-1.,0.,0.));
#673=DIRECTION('',(0.,1.,0.));
#674=DIRECTION('',(0.,0.,1.));
#675=DIRECTION('',(0.,1.,0.));
#676=DIRECTION('',(0.,0.,-1.));
#677=DIRECTION('',(-1.,0.,0.));
#678=DIRECTION('',(0.,-0.707106781186547,0.707106781186548));
#679=DIRECTION('',(1.,0.,0.));
#680=DIRECTION('',(0.,0.,-1.));
#681=DIRECTION('',(0.577350269189626,-0.577350269189625,0.577350269189626));
#682=DIRECTION('',(0.,-0.707106781186548,-0.707106781186547));
#683=DIRECTION('',(1.,0.,0.));
#684=DIRECTION('',(-0.707106781186548,0.,-0.707106781186547));
#685=DIRECTION('',(0.707106781186547,0.,-0.707106781186548));
#686=DIRECTION('',(0.,1.,0.));
#687=DIRECTION('',(1.,0.,0.));
#688=DIRECTION('',(0.,0.,1.));
#689=DIRECTION('',(0.,1.,0.));
#690=DIRECTION('',(0.,0.,1.));
#691=DIRECTION('',(0.,-1.,0.));
#692=DIRECTION('',(0.,0.,1.));
#693=DIRECTION('',(-1.,0.,0.));
#694=DIRECTION('',(0.,0.,-1.));
#695=DIRECTION('',(-1.,0.,0.));
#696=DIRECTION('',(0.,0.,-1.));
#697=DIRECTION('',(1.,0.,0.));
#698=DIRECTION('',(0.,0.,-1.));
#699=DIRECTION('',(0.,0.,1.));
#700=DIRECTION('',(1.,0.,0.));
#701=DIRECTION('',(-1.,0.,0.));
#702=DIRECTION('',(0.,0.,1.));
#703=DIRECTION('',(0.,0.,-1.));
#704=DIRECTION('',(0.,-1.,0.));
#705=DIRECTION('',(0.,0.,-1.));
#706=DIRECTION('',(0.,0.,-1.));
#707=DIRECTION('',(0.,1.,0.));
#708=DIRECTION('',(0.,0.,1.));
#709=DIRECTION('',(-1.,0.,0.));
#710=DIRECTION('',(0.,0.,1.));
#711=DIRECTION('',(1.,0.,0.));
#712=DIRECTION('',(0.,0.,1.));
#713=DIRECTION('',(0.,0.,-1.));
#714=DIRECTION('',(0.,1.,0.));
#715=DIRECTION('',(0.,0.,1.));
#716=DIRECTION('',(1.,0.,0.));
#717=DIRECTION('',(0.,0.,-1.));
#718=DIRECTION('',(-0.999999999999999,0.,0.));
#719=DIRECTION('',(0.,-1.,0.));
#720=DIRECTION('',(0.,0.,-1.));
#721=DIRECTION('',(-0.999999999999999,0.,0.));
#722=DIRECTION('',(-1.,0.,0.));
#723=DIRECTION('',(0.,0.,-1.));
#724=DIRECTION('',(-0.999999999999999,0.,0.));
#725=DIRECTION('',(0.,1.,0.));
#726=DIRECTION('',(0.,0.,-1.));
#727=DIRECTION('',(-0.999999999999999,0.,0.));
#728=DIRECTION('',(0.,0.,1.));
#729=DIRECTION('',(-1.,0.,0.));
#730=DIRECTION('',(0.,0.,1.));
#731=DIRECTION('',(-1.,0.,0.));
#732=DIRECTION('',(0.,-1.,0.));
#733=DIRECTION('',(0.,0.,1.));
#734=DIRECTION('',(-1.,0.,0.));
#735=DIRECTION('',(0.,0.,1.));
#736=DIRECTION('',(-1.,0.,0.));
#737=DIRECTION('',(0.,0.,-1.));
#738=DIRECTION('',(-1.,0.,0.));
#739=DIRECTION('',(0.,0.,-1.));
#740=DIRECTION('',(0.,0.,1.));
#741=DIRECTION('',(1.,0.,0.));
#742=DIRECTION('',(0.,0.,-1.));
#743=DIRECTION('',(0.,0.,1.));
#744=DIRECTION('',(1.,0.,0.));
#745=DIRECTION('',(0.,0.,1.));
#746=DIRECTION('',(1.,0.,0.));
#747=DIRECTION('',(0.,0.,1.));
#748=DIRECTION('',(1.,0.,0.));
#749=DIRECTION('',(0.,0.,1.));
#750=DIRECTION('',(1.,0.,0.));
#751=DIRECTION('',(-1.,0.,0.));
#752=DIRECTION('',(0.,0.,1.));
#753=DIRECTION('',(0.,0.,-1.));
#754=DIRECTION('',(0.,-1.,0.));
#755=DIRECTION('',(0.,0.,-1.));
#756=DIRECTION('',(0.,1.,0.));
#757=DIRECTION('',(0.,0.,1.));
#758=DIRECTION('',(0.,0.,-1.));
#759=DIRECTION('',(-1.,0.,0.));
#760=DIRECTION('',(0.,0.,1.));
#761=DIRECTION('',(1.,0.,0.));
#762=DIRECTION('',(0.,0.,1.));
#763=DIRECTION('',(0.,0.,-1.));
#764=DIRECTION('',(0.,1.,0.));
#765=DIRECTION('',(0.,0.,1.));
#766=DIRECTION('',(0.,0.,-1.));
#767=DIRECTION('',(0.,-1.,0.));
#768=DIRECTION('',(0.,0.,1.));
#769=DIRECTION('',(1.,0.,0.));
#770=DIRECTION('',(0.,0.,-1.));
#771=DIRECTION('',(0.,0.,1.));
#772=DIRECTION('',(-0.999999999999999,0.,0.));
#773=DIRECTION('',(0.,0.,1.));
#774=DIRECTION('',(-0.999999999999999,0.,0.));
#775=DIRECTION('',(0.,0.,1.));
#776=DIRECTION('',(-0.999999999999999,0.,0.));
#777=DIRECTION('',(0.,0.,1.));
#778=DIRECTION('',(-0.999999999999999,0.,0.));
#779=DIRECTION('',(0.,0.,-1.));
#780=DIRECTION('',(-1.,0.,0.));
#781=DIRECTION('',(0.,0.,1.));
#782=DIRECTION('',(0.999999999999999,0.,0.));
#783=DIRECTION('',(0.,0.,1.));
#784=DIRECTION('',(0.999999999999999,0.,0.));
#785=DIRECTION('',(0.,0.,1.));
#786=DIRECTION('',(0.999999999999999,0.,0.));
#787=DIRECTION('',(0.,0.,1.));
#788=DIRECTION('',(0.999999999999999,0.,0.));
#789=CARTESIAN_POINT('',(0.,0.,0.));
#790=CARTESIAN_POINT('',(219.8,115.,72.4));
#791=CARTESIAN_POINT('',(210.8,115.,72.4));
#792=CARTESIAN_POINT('',(346.5,115.,72.4));
#793=CARTESIAN_POINT('',(210.8,121.5,72.4));
#794=CARTESIAN_POINT('',(204.3,121.5,72.4));
#795=CARTESIAN_POINT('',(204.3,216.75,72.4));
#796=CARTESIAN_POINT('',(204.3,236.7,72.4));
#797=CARTESIAN_POINT('',(210.8,236.7,72.4));
#798=CARTESIAN_POINT('',(210.8,243.2,72.4));
#799=CARTESIAN_POINT('',(219.8,243.2,72.4));
#800=CARTESIAN_POINT('',(346.5,243.2,72.4));
#801=CARTESIAN_POINT('',(346.5,236.7,72.4));
#802=CARTESIAN_POINT('',(353.,236.7,72.4));
#803=CARTESIAN_POINT('',(353.,216.75,72.4));
#804=CARTESIAN_POINT('',(353.,121.5,72.4));
#805=CARTESIAN_POINT('',(346.5,121.5,72.4));
#806=CARTESIAN_POINT('',(219.8,118.1,72.4));
#807=CARTESIAN_POINT('',(52.6,118.1,72.4));
#808=CARTESIAN_POINT('',(13.5,118.1,72.4));
#809=CARTESIAN_POINT('',(52.6,103.7,72.4));
#810=CARTESIAN_POINT('',(67.,103.7,72.4));
#811=CARTESIAN_POINT('',(67.,216.75,72.4));
#812=CARTESIAN_POINT('',(67.,0.,72.4));
#813=CARTESIAN_POINT('',(219.8,0.,72.4));
#814=CARTESIAN_POINT('',(439.6,0.,72.4));
#815=CARTESIAN_POINT('',(439.6,216.75,72.4));
#816=CARTESIAN_POINT('',(439.6,419.3,72.4));
#817=CARTESIAN_POINT('',(219.8,419.3,72.4));
#818=CARTESIAN_POINT('',(13.5,419.3,72.4));
#819=CARTESIAN_POINT('',(13.5,216.75,72.4));
#820=CARTESIAN_POINT('',(219.8,216.75,72.4));
#821=CARTESIAN_POINT('',(33.5,0.,34.5));
#822=CARTESIAN_POINT('',(0.,0.,34.5));
#823=CARTESIAN_POINT('',(67.,0.,34.5));
#824=CARTESIAN_POINT('',(0.,0.,0.));
#825=CARTESIAN_POINT('',(0.,0.,0.));
#826=CARTESIAN_POINT('',(219.8,0.,0.));
#827=CARTESIAN_POINT('',(439.6,0.,0.));
#828=CARTESIAN_POINT('',(439.6,0.,0.));
#829=CARTESIAN_POINT('',(67.,0.,34.5));
#830=CARTESIAN_POINT('',(219.8,0.,0.));
#831=CARTESIAN_POINT('',(0.,118.1,34.5));
#832=CARTESIAN_POINT('',(0.,118.1,34.5));
#833=CARTESIAN_POINT('',(-1.73472347597681E-15,118.1,58.9));
#834=CARTESIAN_POINT('',(0.,216.75,58.9));
#835=CARTESIAN_POINT('',(0.,432.8,58.9));
#836=CARTESIAN_POINT('',(0.,354.225,137.475));
#837=CARTESIAN_POINT('',(0.,433.5,58.2));
#838=CARTESIAN_POINT('',(0.,433.5,0.));
#839=CARTESIAN_POINT('',(0.,433.5,0.));
#840=CARTESIAN_POINT('',(0.,216.75,0.));
#841=CARTESIAN_POINT('',(0.,59.05,34.5));
#842=CARTESIAN_POINT('',(0.,216.75,0.));
#843=CARTESIAN_POINT('',(219.8,433.5,58.2));
#844=CARTESIAN_POINT('',(439.6,433.5,58.2));
#845=CARTESIAN_POINT('',(439.6,433.5,0.));
#846=CARTESIAN_POINT('',(439.6,433.5,0.));
#847=CARTESIAN_POINT('',(219.8,433.5,0.));
#848=CARTESIAN_POINT('',(219.8,433.5,0.));
#849=CARTESIAN_POINT('',(439.6,216.75,0.));
#850=CARTESIAN_POINT('',(219.8,216.75,0.));
#851=CARTESIAN_POINT('',(439.6,354.225,137.475));
#852=CARTESIAN_POINT('',(439.6,216.75,0.));
#853=CARTESIAN_POINT('',(72.8000000000001,360.,131.7));
#854=CARTESIAN_POINT('',(219.8,433.5,58.2));
#855=CARTESIAN_POINT('',(0.,118.1,58.9));
#856=CARTESIAN_POINT('',(0.,216.75,58.9));
#857=CARTESIAN_POINT('',(33.5,118.1,34.5));
#858=CARTESIAN_POINT('',(52.6,118.1,34.5));
#859=CARTESIAN_POINT('',(52.6,118.1,72.4));
#860=CARTESIAN_POINT('',(33.5,118.1,34.5));
#861=CARTESIAN_POINT('',(67.,59.05,34.5));
#862=CARTESIAN_POINT('',(67.,103.7,34.5));
#863=CARTESIAN_POINT('',(52.6,103.7,34.5));
#864=CARTESIAN_POINT('',(33.5,59.05,34.5));
#865=CARTESIAN_POINT('',(67.,103.7,34.5));
#866=CARTESIAN_POINT('',(67.,59.05,34.5));
#867=CARTESIAN_POINT('',(52.6,103.7,34.5));
#868=CARTESIAN_POINT('',(278.65,115.,36.));
#869=CARTESIAN_POINT('',(346.5,115.,36.));
#870=CARTESIAN_POINT('',(210.8,115.,36.));
#871=CARTESIAN_POINT('',(210.8,115.,72.4));
#872=CARTESIAN_POINT('',(346.5,115.,36.));
#873=CARTESIAN_POINT('',(278.65,115.,36.));
#874=CARTESIAN_POINT('',(204.3,121.5,36.));
#875=CARTESIAN_POINT('',(204.3,121.5,36.));
#876=CARTESIAN_POINT('',(204.3,179.1,36.));
#877=CARTESIAN_POINT('',(204.3,236.7,36.));
#878=CARTESIAN_POINT('',(204.3,236.7,72.4));
#879=CARTESIAN_POINT('',(204.3,179.1,36.));
#880=CARTESIAN_POINT('',(278.65,243.2,36.));
#881=CARTESIAN_POINT('',(210.8,243.2,36.));
#882=CARTESIAN_POINT('',(346.5,243.2,36.));
#883=CARTESIAN_POINT('',(346.5,243.2,72.4));
#884=CARTESIAN_POINT('',(210.8,243.2,36.));
#885=CARTESIAN_POINT('',(278.65,243.2,36.));
#886=CARTESIAN_POINT('',(278.65,208.6,36.));
#887=CARTESIAN_POINT('',(256.1,208.6,36.));
#888=CARTESIAN_POINT('',(301.2,208.6,36.));
#889=CARTESIAN_POINT('',(301.2,195.9,36.));
#890=CARTESIAN_POINT('',(313.9,195.9,36.));
#891=CARTESIAN_POINT('',(313.9,179.1,36.));
#892=CARTESIAN_POINT('',(313.9,152.4,36.));
#893=CARTESIAN_POINT('',(301.2,152.4,36.));
#894=CARTESIAN_POINT('',(301.2,139.7,36.));
#895=CARTESIAN_POINT('',(278.65,139.7,36.));
#896=CARTESIAN_POINT('',(256.1,139.7,36.));
#897=CARTESIAN_POINT('',(256.1,152.4,36.));
#898=CARTESIAN_POINT('',(243.4,152.4,36.));
#899=CARTESIAN_POINT('',(243.4,179.1,36.));
#900=CARTESIAN_POINT('',(243.4,195.9,36.));
#901=CARTESIAN_POINT('',(256.1,195.9,36.));
#902=CARTESIAN_POINT('',(210.8,121.5,36.));
#903=CARTESIAN_POINT('',(346.5,121.5,36.));
#904=CARTESIAN_POINT('',(353.,121.5,36.));
#905=CARTESIAN_POINT('',(353.,179.1,36.));
#906=CARTESIAN_POINT('',(353.,236.7,36.));
#907=CARTESIAN_POINT('',(346.5,236.7,36.));
#908=CARTESIAN_POINT('',(210.8,236.7,36.));
#909=CARTESIAN_POINT('',(278.65,179.1,36.));
#910=CARTESIAN_POINT('',(353.,236.7,36.));
#911=CARTESIAN_POINT('',(353.,121.5,72.4));
#912=CARTESIAN_POINT('',(353.,179.1,36.));
#913=CARTESIAN_POINT('',(210.8,121.5,36.));
#914=CARTESIAN_POINT('',(346.5,236.7,36.));
#915=CARTESIAN_POINT('',(210.8,236.7,36.));
#916=CARTESIAN_POINT('',(346.5,121.5,36.));
#917=CARTESIAN_POINT('',(278.65,139.7,34.5));
#918=CARTESIAN_POINT('',(301.2,139.7,34.5));
#919=CARTESIAN_POINT('',(256.1,139.7,34.5));
#920=CARTESIAN_POINT('',(256.1,139.7,36.));
#921=CARTESIAN_POINT('',(301.2,139.7,34.5));
#922=CARTESIAN_POINT('',(278.65,139.7,34.5));
#923=CARTESIAN_POINT('',(243.4,174.15,34.5));
#924=CARTESIAN_POINT('',(243.4,152.4,34.5));
#925=CARTESIAN_POINT('',(243.4,195.9,34.5));
#926=CARTESIAN_POINT('',(243.4,195.9,36.));
#927=CARTESIAN_POINT('',(243.4,152.4,34.5));
#928=CARTESIAN_POINT('',(243.4,174.15,34.5));
#929=CARTESIAN_POINT('',(278.65,208.6,34.5));
#930=CARTESIAN_POINT('',(256.1,208.6,34.5));
#931=CARTESIAN_POINT('',(301.2,208.6,34.5));
#932=CARTESIAN_POINT('',(301.2,208.6,36.));
#933=CARTESIAN_POINT('',(256.1,208.6,34.5));
#934=CARTESIAN_POINT('',(278.65,208.6,34.5));
#935=CARTESIAN_POINT('',(313.9,195.9,34.5));
#936=CARTESIAN_POINT('',(313.9,195.9,34.5));
#937=CARTESIAN_POINT('',(313.9,174.15,34.5));
#938=CARTESIAN_POINT('',(313.9,152.4,34.5));
#939=CARTESIAN_POINT('',(313.9,152.4,36.));
#940=CARTESIAN_POINT('',(313.9,174.15,34.5));
#941=CARTESIAN_POINT('',(301.2,195.9,34.5));
#942=CARTESIAN_POINT('',(256.1,195.9,34.5));
#943=CARTESIAN_POINT('',(256.1,152.4,34.5));
#944=CARTESIAN_POINT('',(301.2,152.4,34.5));
#945=CARTESIAN_POINT('',(278.65,174.15,34.5));
#946=CARTESIAN_POINT('',(301.2,195.9,34.5));
#947=CARTESIAN_POINT('',(256.1,195.9,34.5));
#948=CARTESIAN_POINT('',(256.1,152.4,34.5));
#949=CARTESIAN_POINT('',(301.2,152.4,34.5));
#950=MECHANICAL_DESIGN_GEOMETRIC_PRESENTATION_REPRESENTATION('',(#24),#951);
#951=(
GEOMETRIC_REPRESENTATION_CONTEXT(3)
GLOBAL_UNCERTAINTY_ASSIGNED_CONTEXT((#952))
GLOBAL_UNIT_ASSIGNED_CONTEXT((#958,#954,#953))
REPRESENTATION_CONTEXT('featured_part_00666','TOP_LEVEL_ASSEMBLY_PART')
);
#952=UNCERTAINTY_MEASURE_WITH_UNIT(LENGTH_MEASURE(2.E-5),#958,
'DISTANCE_ACCURACY_VALUE','Maximum Tolerance applied to model');
#953=(
NAMED_UNIT(*)
SI_UNIT($,.STERADIAN.)
SOLID_ANGLE_UNIT()
);
#954=(
CONVERSION_BASED_UNIT('DEGREE',#956)
NAMED_UNIT(#955)
PLANE_ANGLE_UNIT()
);
#955=DIMENSIONAL_EXPONENTS(0.,0.,0.,0.,0.,0.,0.);
#956=PLANE_ANGLE_MEASURE_WITH_UNIT(PLANE_ANGLE_MEASURE(0.0174532925),#957);
#957=(
NAMED_UNIT(*)
PLANE_ANGLE_UNIT()
SI_UNIT($,.RADIAN.)
);
#958=(
LENGTH_UNIT()
NAMED_UNIT(*)
SI_UNIT(.MILLI.,.METRE.)
);
ENDSEC;
END-ISO-10303-21;
