ISO-10303-21;
HEADER;
/* Generated by software containing ST-Developer
 * from STEP Tools, Inc. (www.steptools.com) 
 */
/* OPTION: using custom schema-name function */

FILE_DESCRIPTION(
/* description */ (''),
/* implementation_level */ '2;1');

FILE_NAME(
/* name */ 'featured_part_00192.stp',
/* time_stamp */ '2026-07-13T00:18:17-04:00',
/* author */ (''),
/* organization */ (''),
/* preprocessor_version */ 'ST-DEVELOPER v20.1',
/* originating_system */ 'SIEMENS PLM Software NX2512.6002',
/* authorisation */ '');

FILE_SCHEMA (('AUTOMOTIVE_DESIGN { 1 0 10303 214 3 1 1 1 }'));
ENDSEC;

DATA;
#10=SHAPE_REPRESENTATION_RELATIONSHIP('None',
'relationship between featured_part_00192-None and featured_part_00192
-None',#22,#11);
#11=ADVANCED_BREP_SHAPE_REPRESENTATION('featured_part_00192-None',(#32),
#1260);
#12=SHAPE_DEFINITION_REPRESENTATION(#13,#22);
#13=PRODUCT_DEFINITION_SHAPE('','',#14);
#14=PRODUCT_DEFINITION(' ','',#16,#15);
#15=PRODUCT_DEFINITION_CONTEXT('part definition',#21,'design');
#16=PRODUCT_DEFINITION_FORMATION_WITH_SPECIFIED_SOURCE(' ',' ',#18,
 .NOT_KNOWN.);
#17=PRODUCT_RELATED_PRODUCT_CATEGORY('part','',(#18));
#18=PRODUCT('featured_part_00192','featured_part_00192',' ',(#19));
#19=PRODUCT_CONTEXT(' ',#21,'mechanical');
#20=APPLICATION_PROTOCOL_DEFINITION('international standard',
'automotive_design',2010,#21);
#21=APPLICATION_CONTEXT(
'core data for automotive mechanical design processes');
#22=SHAPE_REPRESENTATION('featured_part_00192-None',(#767),#1260);
#23=PRESENTATION_LAYER_ASSIGNMENT('1','Layer 1',(#32));
#24=STYLED_ITEM('',(#25),#32);
#25=PRESENTATION_STYLE_ASSIGNMENT((#26));
#26=SURFACE_STYLE_USAGE(.BOTH.,#27);
#27=SURFACE_SIDE_STYLE('',(#28));
#28=SURFACE_STYLE_FILL_AREA(#29);
#29=FILL_AREA_STYLE('',(#30));
#30=FILL_AREA_STYLE_COLOUR('',#31);
#31=COLOUR_RGB('medium steel',0.611764705882353,0.658823529411765,0.670588235294118);
#32=MANIFOLD_SOLID_BREP('',#33);
#33=CLOSED_SHELL('',(#80,#81,#82,#83,#84,#85,#86,#87,#88,#89,#90,#91,#92,
#93,#94,#95,#96,#97,#98,#99,#100,#101,#102,#103,#104,#105,#106,#107,#108,
#109,#110,#111,#112,#113,#114,#115,#116,#117,#118,#119));
#34=CYLINDRICAL_SURFACE('',#792,4.9);
#35=CYLINDRICAL_SURFACE('',#793,4.9);
#36=CYLINDRICAL_SURFACE('',#802,11.5);
#37=CYLINDRICAL_SURFACE('',#812,8.5);
#38=CYLINDRICAL_SURFACE('',#813,8.5);
#39=CYLINDRICAL_SURFACE('',#814,8.5);
#40=CYLINDRICAL_SURFACE('',#815,8.5);
#41=CYLINDRICAL_SURFACE('',#826,4.8);
#42=CYLINDRICAL_SURFACE('',#827,4.8);
#43=CYLINDRICAL_SURFACE('',#828,4.8);
#44=CYLINDRICAL_SURFACE('',#829,4.8);
#45=CYLINDRICAL_SURFACE('',#831,14.25);
#46=CYLINDRICAL_SURFACE('',#833,11.5);
#47=FACE_OUTER_BOUND('',#163,.T.);
#48=FACE_OUTER_BOUND('',#164,.T.);
#49=FACE_OUTER_BOUND('',#165,.T.);
#50=FACE_OUTER_BOUND('',#168,.T.);
#51=FACE_OUTER_BOUND('',#169,.T.);
#52=FACE_OUTER_BOUND('',#170,.T.);
#53=FACE_OUTER_BOUND('',#171,.T.);
#54=FACE_OUTER_BOUND('',#172,.T.);
#55=FACE_OUTER_BOUND('',#173,.T.);
#56=FACE_OUTER_BOUND('',#176,.T.);
#57=FACE_OUTER_BOUND('',#177,.T.);
#58=FACE_OUTER_BOUND('',#178,.T.);
#59=FACE_OUTER_BOUND('',#179,.T.);
#60=FACE_OUTER_BOUND('',#182,.T.);
#61=FACE_OUTER_BOUND('',#183,.T.);
#62=FACE_OUTER_BOUND('',#184,.T.);
#63=FACE_OUTER_BOUND('',#185,.T.);
#64=FACE_OUTER_BOUND('',#186,.T.);
#65=FACE_OUTER_BOUND('',#187,.T.);
#66=FACE_OUTER_BOUND('',#188,.T.);
#67=FACE_OUTER_BOUND('',#189,.T.);
#68=FACE_OUTER_BOUND('',#190,.T.);
#69=FACE_OUTER_BOUND('',#191,.T.);
#70=FACE_OUTER_BOUND('',#192,.T.);
#71=FACE_OUTER_BOUND('',#193,.T.);
#72=FACE_OUTER_BOUND('',#194,.T.);
#73=FACE_OUTER_BOUND('',#195,.T.);
#74=FACE_OUTER_BOUND('',#198,.T.);
#75=FACE_OUTER_BOUND('',#199,.T.);
#76=FACE_OUTER_BOUND('',#200,.T.);
#77=FACE_OUTER_BOUND('',#201,.T.);
#78=FACE_OUTER_BOUND('',#202,.T.);
#79=FACE_OUTER_BOUND('',#205,.T.);
#80=ADVANCED_FACE('',(#147,#148),#120,.T.);
#81=ADVANCED_FACE('',(#47),#121,.T.);
#82=ADVANCED_FACE('',(#48),#122,.T.);
#83=ADVANCED_FACE('',(#49),#123,.T.);
#84=ADVANCED_FACE('',(#149,#150),#124,.T.);
#85=ADVANCED_FACE('',(#50),#125,.T.);
#86=ADVANCED_FACE('',(#51),#126,.F.);
#87=ADVANCED_FACE('',(#52),#127,.F.);
#88=ADVANCED_FACE('',(#53),#128,.F.);
#89=ADVANCED_FACE('',(#54),#129,.F.);
#90=ADVANCED_FACE('',(#55),#130,.F.);
#91=ADVANCED_FACE('',(#151,#152),#131,.F.);
#92=ADVANCED_FACE('',(#56),#132,.F.);
#93=ADVANCED_FACE('',(#57),#34,.F.);
#94=ADVANCED_FACE('',(#58),#35,.F.);
#95=ADVANCED_FACE('',(#59),#133,.F.);
#96=ADVANCED_FACE('',(#153,#154),#134,.F.);
#97=ADVANCED_FACE('',(#60),#135,.F.);
#98=ADVANCED_FACE('',(#61),#36,.F.);
#99=ADVANCED_FACE('',(#62),#136,.F.);
#100=ADVANCED_FACE('',(#63),#137,.F.);
#101=ADVANCED_FACE('',(#64),#138,.F.);
#102=ADVANCED_FACE('',(#65),#139,.F.);
#103=ADVANCED_FACE('',(#66),#140,.F.);
#104=ADVANCED_FACE('',(#67),#37,.F.);
#105=ADVANCED_FACE('',(#68),#38,.F.);
#106=ADVANCED_FACE('',(#69),#39,.F.);
#107=ADVANCED_FACE('',(#70),#40,.F.);
#108=ADVANCED_FACE('',(#71),#141,.F.);
#109=ADVANCED_FACE('',(#72),#142,.F.);
#110=ADVANCED_FACE('',(#73),#143,.F.);
#111=ADVANCED_FACE('',(#155,#156),#144,.F.);
#112=ADVANCED_FACE('',(#74),#145,.F.);
#113=ADVANCED_FACE('',(#75),#41,.F.);
#114=ADVANCED_FACE('',(#76),#42,.F.);
#115=ADVANCED_FACE('',(#77),#43,.F.);
#116=ADVANCED_FACE('',(#78),#44,.F.);
#117=ADVANCED_FACE('',(#157,#158),#45,.F.);
#118=ADVANCED_FACE('',(#79),#146,.F.);
#119=ADVANCED_FACE('',(#159,#160),#46,.F.);
#120=PLANE('',#775);
#121=PLANE('',#776);
#122=PLANE('',#777);
#123=PLANE('',#778);
#124=PLANE('',#780);
#125=PLANE('',#781);
#126=PLANE('',#782);
#127=PLANE('',#783);
#128=PLANE('',#784);
#129=PLANE('',#785);
#130=PLANE('',#786);
#131=PLANE('',#790);
#132=PLANE('',#791);
#133=PLANE('',#794);
#134=PLANE('',#800);
#135=PLANE('',#801);
#136=PLANE('',#803);
#137=PLANE('',#804);
#138=PLANE('',#805);
#139=PLANE('',#806);
#140=PLANE('',#811);
#141=PLANE('',#816);
#142=PLANE('',#817);
#143=PLANE('',#818);
#144=PLANE('',#824);
#145=PLANE('',#825);
#146=PLANE('',#832);
#147=FACE_BOUND('',#161,.T.);
#148=FACE_BOUND('',#162,.T.);
#149=FACE_BOUND('',#166,.T.);
#150=FACE_BOUND('',#167,.T.);
#151=FACE_BOUND('',#174,.T.);
#152=FACE_BOUND('',#175,.T.);
#153=FACE_BOUND('',#180,.T.);
#154=FACE_BOUND('',#181,.T.);
#155=FACE_BOUND('',#196,.T.);
#156=FACE_BOUND('',#197,.T.);
#157=FACE_BOUND('',#203,.T.);
#158=FACE_BOUND('',#204,.T.);
#159=FACE_BOUND('',#206,.T.);
#160=FACE_BOUND('',#207,.T.);
#161=EDGE_LOOP('',(#234,#235,#236,#237,#238,#239,#240,#241));
#162=EDGE_LOOP('',(#242,#243,#244,#245,#246,#247,#248,#249,#250,#251,#252,
#253,#254));
#163=EDGE_LOOP('',(#255,#256,#257,#258,#259,#260));
#164=EDGE_LOOP('',(#261,#262,#263,#264,#265,#266,#267,#268,#269,#270,#271));
#165=EDGE_LOOP('',(#272,#273,#274,#275,#276));
#166=EDGE_LOOP('',(#277));
#167=EDGE_LOOP('',(#278,#279,#280,#281));
#168=EDGE_LOOP('',(#282,#283,#284,#285,#286));
#169=EDGE_LOOP('',(#287,#288,#289,#290));
#170=EDGE_LOOP('',(#291,#292,#293,#294,#295));
#171=EDGE_LOOP('',(#296,#297,#298,#299,#300));
#172=EDGE_LOOP('',(#301,#302,#303,#304));
#173=EDGE_LOOP('',(#305,#306,#307,#308));
#174=EDGE_LOOP('',(#309));
#175=EDGE_LOOP('',(#310,#311,#312,#313,#314,#315));
#176=EDGE_LOOP('',(#316,#317,#318,#319));
#177=EDGE_LOOP('',(#320,#321,#322,#323));
#178=EDGE_LOOP('',(#324,#325,#326,#327));
#179=EDGE_LOOP('',(#328,#329,#330,#331));
#180=EDGE_LOOP('',(#332,#333,#334,#335,#336,#337,#338,#339));
#181=EDGE_LOOP('',(#340,#341,#342,#343,#344));
#182=EDGE_LOOP('',(#345,#346,#347,#348,#349));
#183=EDGE_LOOP('',(#350,#351,#352,#353));
#184=EDGE_LOOP('',(#354,#355,#356,#357));
#185=EDGE_LOOP('',(#358,#359,#360,#361));
#186=EDGE_LOOP('',(#362,#363,#364,#365));
#187=EDGE_LOOP('',(#366,#367,#368,#369));
#188=EDGE_LOOP('',(#370,#371,#372,#373,#374,#375,#376,#377));
#189=EDGE_LOOP('',(#378,#379,#380,#381));
#190=EDGE_LOOP('',(#382,#383,#384,#385));
#191=EDGE_LOOP('',(#386,#387,#388,#389));
#192=EDGE_LOOP('',(#390,#391,#392,#393));
#193=EDGE_LOOP('',(#394,#395,#396,#397));
#194=EDGE_LOOP('',(#398,#399,#400,#401));
#195=EDGE_LOOP('',(#402,#403,#404,#405));
#196=EDGE_LOOP('',(#406));
#197=EDGE_LOOP('',(#407,#408,#409,#410,#411,#412,#413,#414));
#198=EDGE_LOOP('',(#415,#416,#417,#418));
#199=EDGE_LOOP('',(#419,#420,#421,#422));
#200=EDGE_LOOP('',(#423,#424,#425,#426));
#201=EDGE_LOOP('',(#427,#428,#429,#430));
#202=EDGE_LOOP('',(#431,#432,#433,#434));
#203=EDGE_LOOP('',(#435));
#204=EDGE_LOOP('',(#436));
#205=EDGE_LOOP('',(#437));
#206=EDGE_LOOP('',(#438));
#207=EDGE_LOOP('',(#439));
#208=CIRCLE('',#768,4.8);
#209=CIRCLE('',#769,4.8);
#210=CIRCLE('',#770,4.8);
#211=CIRCLE('',#771,4.8);
#212=CIRCLE('',#772,11.5);
#213=CIRCLE('',#773,4.9);
#214=CIRCLE('',#774,4.9);
#215=CIRCLE('',#779,11.5);
#216=CIRCLE('',#787,11.5);
#217=CIRCLE('',#788,4.9);
#218=CIRCLE('',#789,4.9);
#219=CIRCLE('',#795,8.5);
#220=CIRCLE('',#796,8.5);
#221=CIRCLE('',#797,8.5);
#222=CIRCLE('',#798,8.5);
#223=CIRCLE('',#799,11.5);
#224=CIRCLE('',#807,8.5);
#225=CIRCLE('',#808,8.5);
#226=CIRCLE('',#809,8.5);
#227=CIRCLE('',#810,8.5);
#228=CIRCLE('',#819,14.25);
#229=CIRCLE('',#820,4.8);
#230=CIRCLE('',#821,4.8);
#231=CIRCLE('',#822,4.8);
#232=CIRCLE('',#823,4.8);
#233=CIRCLE('',#830,14.25);
#234=ORIENTED_EDGE('',*,*,#510,.F.);
#235=ORIENTED_EDGE('',*,*,#511,.T.);
#236=ORIENTED_EDGE('',*,*,#512,.F.);
#237=ORIENTED_EDGE('',*,*,#513,.T.);
#238=ORIENTED_EDGE('',*,*,#514,.F.);
#239=ORIENTED_EDGE('',*,*,#515,.T.);
#240=ORIENTED_EDGE('',*,*,#516,.F.);
#241=ORIENTED_EDGE('',*,*,#517,.T.);
#242=ORIENTED_EDGE('',*,*,#518,.F.);
#243=ORIENTED_EDGE('',*,*,#519,.T.);
#244=ORIENTED_EDGE('',*,*,#520,.F.);
#245=ORIENTED_EDGE('',*,*,#521,.T.);
#246=ORIENTED_EDGE('',*,*,#522,.T.);
#247=ORIENTED_EDGE('',*,*,#523,.T.);
#248=ORIENTED_EDGE('',*,*,#524,.F.);
#249=ORIENTED_EDGE('',*,*,#525,.F.);
#250=ORIENTED_EDGE('',*,*,#526,.T.);
#251=ORIENTED_EDGE('',*,*,#527,.F.);
#252=ORIENTED_EDGE('',*,*,#528,.T.);
#253=ORIENTED_EDGE('',*,*,#529,.F.);
#254=ORIENTED_EDGE('',*,*,#530,.F.);
#255=ORIENTED_EDGE('',*,*,#531,.F.);
#256=ORIENTED_EDGE('',*,*,#532,.F.);
#257=ORIENTED_EDGE('',*,*,#533,.T.);
#258=ORIENTED_EDGE('',*,*,#534,.T.);
#259=ORIENTED_EDGE('',*,*,#535,.T.);
#260=ORIENTED_EDGE('',*,*,#536,.F.);
#261=ORIENTED_EDGE('',*,*,#537,.T.);
#262=ORIENTED_EDGE('',*,*,#530,.T.);
#263=ORIENTED_EDGE('',*,*,#538,.F.);
#264=ORIENTED_EDGE('',*,*,#539,.F.);
#265=ORIENTED_EDGE('',*,*,#540,.T.);
#266=ORIENTED_EDGE('',*,*,#524,.T.);
#267=ORIENTED_EDGE('',*,*,#541,.T.);
#268=ORIENTED_EDGE('',*,*,#542,.F.);
#269=ORIENTED_EDGE('',*,*,#543,.T.);
#270=ORIENTED_EDGE('',*,*,#532,.T.);
#271=ORIENTED_EDGE('',*,*,#544,.F.);
#272=ORIENTED_EDGE('',*,*,#545,.T.);
#273=ORIENTED_EDGE('',*,*,#546,.T.);
#274=ORIENTED_EDGE('',*,*,#547,.F.);
#275=ORIENTED_EDGE('',*,*,#548,.T.);
#276=ORIENTED_EDGE('',*,*,#542,.T.);
#277=ORIENTED_EDGE('',*,*,#549,.F.);
#278=ORIENTED_EDGE('',*,*,#550,.F.);
#279=ORIENTED_EDGE('',*,*,#533,.F.);
#280=ORIENTED_EDGE('',*,*,#543,.F.);
#281=ORIENTED_EDGE('',*,*,#548,.F.);
#282=ORIENTED_EDGE('',*,*,#547,.T.);
#283=ORIENTED_EDGE('',*,*,#551,.T.);
#284=ORIENTED_EDGE('',*,*,#552,.T.);
#285=ORIENTED_EDGE('',*,*,#534,.F.);
#286=ORIENTED_EDGE('',*,*,#550,.T.);
#287=ORIENTED_EDGE('',*,*,#523,.F.);
#288=ORIENTED_EDGE('',*,*,#553,.T.);
#289=ORIENTED_EDGE('',*,*,#545,.F.);
#290=ORIENTED_EDGE('',*,*,#541,.F.);
#291=ORIENTED_EDGE('',*,*,#554,.F.);
#292=ORIENTED_EDGE('',*,*,#535,.F.);
#293=ORIENTED_EDGE('',*,*,#552,.F.);
#294=ORIENTED_EDGE('',*,*,#555,.T.);
#295=ORIENTED_EDGE('',*,*,#521,.F.);
#296=ORIENTED_EDGE('',*,*,#553,.F.);
#297=ORIENTED_EDGE('',*,*,#522,.F.);
#298=ORIENTED_EDGE('',*,*,#555,.F.);
#299=ORIENTED_EDGE('',*,*,#551,.F.);
#300=ORIENTED_EDGE('',*,*,#546,.F.);
#301=ORIENTED_EDGE('',*,*,#529,.T.);
#302=ORIENTED_EDGE('',*,*,#556,.T.);
#303=ORIENTED_EDGE('',*,*,#557,.T.);
#304=ORIENTED_EDGE('',*,*,#538,.T.);
#305=ORIENTED_EDGE('',*,*,#558,.T.);
#306=ORIENTED_EDGE('',*,*,#559,.T.);
#307=ORIENTED_EDGE('',*,*,#525,.T.);
#308=ORIENTED_EDGE('',*,*,#540,.F.);
#309=ORIENTED_EDGE('',*,*,#560,.T.);
#310=ORIENTED_EDGE('',*,*,#561,.F.);
#311=ORIENTED_EDGE('',*,*,#562,.T.);
#312=ORIENTED_EDGE('',*,*,#558,.F.);
#313=ORIENTED_EDGE('',*,*,#539,.T.);
#314=ORIENTED_EDGE('',*,*,#557,.F.);
#315=ORIENTED_EDGE('',*,*,#563,.T.);
#316=ORIENTED_EDGE('',*,*,#527,.T.);
#317=ORIENTED_EDGE('',*,*,#564,.T.);
#318=ORIENTED_EDGE('',*,*,#561,.T.);
#319=ORIENTED_EDGE('',*,*,#565,.T.);
#320=ORIENTED_EDGE('',*,*,#526,.F.);
#321=ORIENTED_EDGE('',*,*,#559,.F.);
#322=ORIENTED_EDGE('',*,*,#562,.F.);
#323=ORIENTED_EDGE('',*,*,#564,.F.);
#324=ORIENTED_EDGE('',*,*,#528,.F.);
#325=ORIENTED_EDGE('',*,*,#565,.F.);
#326=ORIENTED_EDGE('',*,*,#563,.F.);
#327=ORIENTED_EDGE('',*,*,#556,.F.);
#328=ORIENTED_EDGE('',*,*,#566,.T.);
#329=ORIENTED_EDGE('',*,*,#567,.T.);
#330=ORIENTED_EDGE('',*,*,#518,.T.);
#331=ORIENTED_EDGE('',*,*,#537,.F.);
#332=ORIENTED_EDGE('',*,*,#568,.T.);
#333=ORIENTED_EDGE('',*,*,#569,.T.);
#334=ORIENTED_EDGE('',*,*,#570,.T.);
#335=ORIENTED_EDGE('',*,*,#571,.T.);
#336=ORIENTED_EDGE('',*,*,#572,.T.);
#337=ORIENTED_EDGE('',*,*,#573,.T.);
#338=ORIENTED_EDGE('',*,*,#574,.T.);
#339=ORIENTED_EDGE('',*,*,#575,.T.);
#340=ORIENTED_EDGE('',*,*,#576,.F.);
#341=ORIENTED_EDGE('',*,*,#577,.T.);
#342=ORIENTED_EDGE('',*,*,#566,.F.);
#343=ORIENTED_EDGE('',*,*,#544,.T.);
#344=ORIENTED_EDGE('',*,*,#531,.T.);
#345=ORIENTED_EDGE('',*,*,#520,.T.);
#346=ORIENTED_EDGE('',*,*,#578,.T.);
#347=ORIENTED_EDGE('',*,*,#576,.T.);
#348=ORIENTED_EDGE('',*,*,#536,.T.);
#349=ORIENTED_EDGE('',*,*,#554,.T.);
#350=ORIENTED_EDGE('',*,*,#519,.F.);
#351=ORIENTED_EDGE('',*,*,#567,.F.);
#352=ORIENTED_EDGE('',*,*,#577,.F.);
#353=ORIENTED_EDGE('',*,*,#578,.F.);
#354=ORIENTED_EDGE('',*,*,#572,.F.);
#355=ORIENTED_EDGE('',*,*,#579,.T.);
#356=ORIENTED_EDGE('',*,*,#580,.T.);
#357=ORIENTED_EDGE('',*,*,#581,.T.);
#358=ORIENTED_EDGE('',*,*,#582,.T.);
#359=ORIENTED_EDGE('',*,*,#583,.T.);
#360=ORIENTED_EDGE('',*,*,#574,.F.);
#361=ORIENTED_EDGE('',*,*,#584,.T.);
#362=ORIENTED_EDGE('',*,*,#568,.F.);
#363=ORIENTED_EDGE('',*,*,#585,.T.);
#364=ORIENTED_EDGE('',*,*,#586,.T.);
#365=ORIENTED_EDGE('',*,*,#587,.T.);
#366=ORIENTED_EDGE('',*,*,#588,.T.);
#367=ORIENTED_EDGE('',*,*,#589,.T.);
#368=ORIENTED_EDGE('',*,*,#570,.F.);
#369=ORIENTED_EDGE('',*,*,#590,.T.);
#370=ORIENTED_EDGE('',*,*,#586,.F.);
#371=ORIENTED_EDGE('',*,*,#591,.T.);
#372=ORIENTED_EDGE('',*,*,#582,.F.);
#373=ORIENTED_EDGE('',*,*,#592,.T.);
#374=ORIENTED_EDGE('',*,*,#580,.F.);
#375=ORIENTED_EDGE('',*,*,#593,.T.);
#376=ORIENTED_EDGE('',*,*,#588,.F.);
#377=ORIENTED_EDGE('',*,*,#594,.T.);
#378=ORIENTED_EDGE('',*,*,#575,.F.);
#379=ORIENTED_EDGE('',*,*,#583,.F.);
#380=ORIENTED_EDGE('',*,*,#591,.F.);
#381=ORIENTED_EDGE('',*,*,#585,.F.);
#382=ORIENTED_EDGE('',*,*,#571,.F.);
#383=ORIENTED_EDGE('',*,*,#589,.F.);
#384=ORIENTED_EDGE('',*,*,#593,.F.);
#385=ORIENTED_EDGE('',*,*,#579,.F.);
#386=ORIENTED_EDGE('',*,*,#569,.F.);
#387=ORIENTED_EDGE('',*,*,#587,.F.);
#388=ORIENTED_EDGE('',*,*,#594,.F.);
#389=ORIENTED_EDGE('',*,*,#590,.F.);
#390=ORIENTED_EDGE('',*,*,#573,.F.);
#391=ORIENTED_EDGE('',*,*,#581,.F.);
#392=ORIENTED_EDGE('',*,*,#592,.F.);
#393=ORIENTED_EDGE('',*,*,#584,.F.);
#394=ORIENTED_EDGE('',*,*,#595,.T.);
#395=ORIENTED_EDGE('',*,*,#596,.T.);
#396=ORIENTED_EDGE('',*,*,#510,.T.);
#397=ORIENTED_EDGE('',*,*,#597,.T.);
#398=ORIENTED_EDGE('',*,*,#512,.T.);
#399=ORIENTED_EDGE('',*,*,#598,.T.);
#400=ORIENTED_EDGE('',*,*,#599,.T.);
#401=ORIENTED_EDGE('',*,*,#600,.T.);
#402=ORIENTED_EDGE('',*,*,#601,.T.);
#403=ORIENTED_EDGE('',*,*,#602,.T.);
#404=ORIENTED_EDGE('',*,*,#514,.T.);
#405=ORIENTED_EDGE('',*,*,#603,.T.);
#406=ORIENTED_EDGE('',*,*,#604,.T.);
#407=ORIENTED_EDGE('',*,*,#599,.F.);
#408=ORIENTED_EDGE('',*,*,#605,.T.);
#409=ORIENTED_EDGE('',*,*,#595,.F.);
#410=ORIENTED_EDGE('',*,*,#606,.T.);
#411=ORIENTED_EDGE('',*,*,#607,.F.);
#412=ORIENTED_EDGE('',*,*,#608,.T.);
#413=ORIENTED_EDGE('',*,*,#601,.F.);
#414=ORIENTED_EDGE('',*,*,#609,.T.);
#415=ORIENTED_EDGE('',*,*,#516,.T.);
#416=ORIENTED_EDGE('',*,*,#610,.T.);
#417=ORIENTED_EDGE('',*,*,#607,.T.);
#418=ORIENTED_EDGE('',*,*,#611,.T.);
#419=ORIENTED_EDGE('',*,*,#511,.F.);
#420=ORIENTED_EDGE('',*,*,#596,.F.);
#421=ORIENTED_EDGE('',*,*,#605,.F.);
#422=ORIENTED_EDGE('',*,*,#598,.F.);
#423=ORIENTED_EDGE('',*,*,#515,.F.);
#424=ORIENTED_EDGE('',*,*,#602,.F.);
#425=ORIENTED_EDGE('',*,*,#608,.F.);
#426=ORIENTED_EDGE('',*,*,#610,.F.);
#427=ORIENTED_EDGE('',*,*,#517,.F.);
#428=ORIENTED_EDGE('',*,*,#611,.F.);
#429=ORIENTED_EDGE('',*,*,#606,.F.);
#430=ORIENTED_EDGE('',*,*,#597,.F.);
#431=ORIENTED_EDGE('',*,*,#513,.F.);
#432=ORIENTED_EDGE('',*,*,#600,.F.);
#433=ORIENTED_EDGE('',*,*,#609,.F.);
#434=ORIENTED_EDGE('',*,*,#603,.F.);
#435=ORIENTED_EDGE('',*,*,#612,.T.);
#436=ORIENTED_EDGE('',*,*,#604,.F.);
#437=ORIENTED_EDGE('',*,*,#612,.F.);
#438=ORIENTED_EDGE('',*,*,#549,.T.);
#439=ORIENTED_EDGE('',*,*,#560,.F.);
#440=VERTEX_POINT('',#1047);
#441=VERTEX_POINT('',#1048);
#442=VERTEX_POINT('',#1050);
#443=VERTEX_POINT('',#1052);
#444=VERTEX_POINT('',#1054);
#445=VERTEX_POINT('',#1056);
#446=VERTEX_POINT('',#1058);
#447=VERTEX_POINT('',#1060);
#448=VERTEX_POINT('',#1063);
#449=VERTEX_POINT('',#1064);
#450=VERTEX_POINT('',#1066);
#451=VERTEX_POINT('',#1068);
#452=VERTEX_POINT('',#1070);
#453=VERTEX_POINT('',#1072);
#454=VERTEX_POINT('',#1074);
#455=VERTEX_POINT('',#1076);
#456=VERTEX_POINT('',#1078);
#457=VERTEX_POINT('',#1080);
#458=VERTEX_POINT('',#1082);
#459=VERTEX_POINT('',#1084);
#460=VERTEX_POINT('',#1086);
#461=VERTEX_POINT('',#1090);
#462=VERTEX_POINT('',#1091);
#463=VERTEX_POINT('',#1093);
#464=VERTEX_POINT('',#1095);
#465=VERTEX_POINT('',#1097);
#466=VERTEX_POINT('',#1099);
#467=VERTEX_POINT('',#1103);
#468=VERTEX_POINT('',#1105);
#469=VERTEX_POINT('',#1107);
#470=VERTEX_POINT('',#1110);
#471=VERTEX_POINT('',#1112);
#472=VERTEX_POINT('',#1117);
#473=VERTEX_POINT('',#1119);
#474=VERTEX_POINT('',#1121);
#475=VERTEX_POINT('',#1125);
#476=VERTEX_POINT('',#1129);
#477=VERTEX_POINT('',#1139);
#478=VERTEX_POINT('',#1143);
#479=VERTEX_POINT('',#1147);
#480=VERTEX_POINT('',#1149);
#481=VERTEX_POINT('',#1150);
#482=VERTEX_POINT('',#1160);
#483=VERTEX_POINT('',#1164);
#484=VERTEX_POINT('',#1165);
#485=VERTEX_POINT('',#1167);
#486=VERTEX_POINT('',#1169);
#487=VERTEX_POINT('',#1171);
#488=VERTEX_POINT('',#1173);
#489=VERTEX_POINT('',#1175);
#490=VERTEX_POINT('',#1177);
#491=VERTEX_POINT('',#1180);
#492=VERTEX_POINT('',#1187);
#493=VERTEX_POINT('',#1189);
#494=VERTEX_POINT('',#1193);
#495=VERTEX_POINT('',#1194);
#496=VERTEX_POINT('',#1199);
#497=VERTEX_POINT('',#1201);
#498=VERTEX_POINT('',#1205);
#499=VERTEX_POINT('',#1206);
#500=VERTEX_POINT('',#1220);
#501=VERTEX_POINT('',#1221);
#502=VERTEX_POINT('',#1226);
#503=VERTEX_POINT('',#1228);
#504=VERTEX_POINT('',#1232);
#505=VERTEX_POINT('',#1233);
#506=VERTEX_POINT('',#1238);
#507=VERTEX_POINT('',#1241);
#508=VERTEX_POINT('',#1243);
#509=VERTEX_POINT('',#1255);
#510=EDGE_CURVE('',#440,#441,#613,.T.);
#511=EDGE_CURVE('',#440,#442,#208,.T.);
#512=EDGE_CURVE('',#443,#442,#614,.T.);
#513=EDGE_CURVE('',#443,#444,#209,.T.);
#514=EDGE_CURVE('',#445,#444,#615,.T.);
#515=EDGE_CURVE('',#445,#446,#210,.T.);
#516=EDGE_CURVE('',#447,#446,#616,.T.);
#517=EDGE_CURVE('',#447,#441,#211,.T.);
#518=EDGE_CURVE('',#448,#449,#617,.T.);
#519=EDGE_CURVE('',#448,#450,#212,.T.);
#520=EDGE_CURVE('',#451,#450,#618,.T.);
#521=EDGE_CURVE('',#451,#452,#619,.T.);
#522=EDGE_CURVE('',#452,#453,#620,.T.);
#523=EDGE_CURVE('',#453,#454,#621,.T.);
#524=EDGE_CURVE('',#455,#454,#622,.T.);
#525=EDGE_CURVE('',#456,#455,#623,.T.);
#526=EDGE_CURVE('',#456,#457,#213,.T.);
#527=EDGE_CURVE('',#458,#457,#624,.T.);
#528=EDGE_CURVE('',#458,#459,#214,.T.);
#529=EDGE_CURVE('',#460,#459,#625,.T.);
#530=EDGE_CURVE('',#449,#460,#626,.T.);
#531=EDGE_CURVE('',#461,#462,#627,.T.);
#532=EDGE_CURVE('',#463,#461,#628,.T.);
#533=EDGE_CURVE('',#463,#464,#629,.T.);
#534=EDGE_CURVE('',#464,#465,#630,.T.);
#535=EDGE_CURVE('',#465,#466,#631,.T.);
#536=EDGE_CURVE('',#462,#466,#632,.T.);
#537=EDGE_CURVE('',#467,#449,#633,.T.);
#538=EDGE_CURVE('',#468,#460,#634,.T.);
#539=EDGE_CURVE('',#469,#468,#635,.T.);
#540=EDGE_CURVE('',#469,#455,#636,.T.);
#541=EDGE_CURVE('',#454,#470,#637,.T.);
#542=EDGE_CURVE('',#471,#470,#638,.T.);
#543=EDGE_CURVE('',#471,#463,#639,.T.);
#544=EDGE_CURVE('',#467,#461,#640,.T.);
#545=EDGE_CURVE('',#470,#472,#641,.T.);
#546=EDGE_CURVE('',#472,#473,#642,.T.);
#547=EDGE_CURVE('',#474,#473,#643,.T.);
#548=EDGE_CURVE('',#474,#471,#644,.T.);
#549=EDGE_CURVE('',#475,#475,#215,.T.);
#550=EDGE_CURVE('',#464,#474,#645,.T.);
#551=EDGE_CURVE('',#473,#476,#646,.T.);
#552=EDGE_CURVE('',#476,#465,#647,.T.);
#553=EDGE_CURVE('',#453,#472,#648,.T.);
#554=EDGE_CURVE('',#466,#451,#649,.T.);
#555=EDGE_CURVE('',#476,#452,#650,.T.);
#556=EDGE_CURVE('',#459,#477,#651,.T.);
#557=EDGE_CURVE('',#477,#468,#652,.T.);
#558=EDGE_CURVE('',#469,#478,#653,.T.);
#559=EDGE_CURVE('',#478,#456,#654,.T.);
#560=EDGE_CURVE('',#479,#479,#216,.T.);
#561=EDGE_CURVE('',#480,#481,#655,.T.);
#562=EDGE_CURVE('',#480,#478,#217,.T.);
#563=EDGE_CURVE('',#477,#481,#218,.T.);
#564=EDGE_CURVE('',#457,#480,#656,.T.);
#565=EDGE_CURVE('',#481,#458,#657,.T.);
#566=EDGE_CURVE('',#467,#482,#658,.T.);
#567=EDGE_CURVE('',#482,#448,#659,.T.);
#568=EDGE_CURVE('',#483,#484,#660,.T.);
#569=EDGE_CURVE('',#484,#485,#219,.T.);
#570=EDGE_CURVE('',#485,#486,#661,.T.);
#571=EDGE_CURVE('',#486,#487,#220,.T.);
#572=EDGE_CURVE('',#487,#488,#662,.T.);
#573=EDGE_CURVE('',#488,#489,#221,.T.);
#574=EDGE_CURVE('',#489,#490,#663,.T.);
#575=EDGE_CURVE('',#490,#483,#222,.T.);
#576=EDGE_CURVE('',#491,#462,#664,.T.);
#577=EDGE_CURVE('',#491,#482,#223,.T.);
#578=EDGE_CURVE('',#450,#491,#665,.T.);
#579=EDGE_CURVE('',#487,#492,#666,.T.);
#580=EDGE_CURVE('',#492,#493,#667,.T.);
#581=EDGE_CURVE('',#493,#488,#668,.T.);
#582=EDGE_CURVE('',#494,#495,#669,.T.);
#583=EDGE_CURVE('',#495,#490,#670,.T.);
#584=EDGE_CURVE('',#489,#494,#671,.T.);
#585=EDGE_CURVE('',#483,#496,#672,.T.);
#586=EDGE_CURVE('',#496,#497,#673,.T.);
#587=EDGE_CURVE('',#497,#484,#674,.T.);
#588=EDGE_CURVE('',#498,#499,#675,.T.);
#589=EDGE_CURVE('',#499,#486,#676,.T.);
#590=EDGE_CURVE('',#485,#498,#677,.T.);
#591=EDGE_CURVE('',#496,#495,#224,.T.);
#592=EDGE_CURVE('',#494,#493,#225,.T.);
#593=EDGE_CURVE('',#492,#499,#226,.T.);
#594=EDGE_CURVE('',#498,#497,#227,.T.);
#595=EDGE_CURVE('',#500,#501,#678,.T.);
#596=EDGE_CURVE('',#501,#440,#679,.T.);
#597=EDGE_CURVE('',#441,#500,#680,.T.);
#598=EDGE_CURVE('',#442,#502,#681,.T.);
#599=EDGE_CURVE('',#502,#503,#682,.T.);
#600=EDGE_CURVE('',#503,#443,#683,.T.);
#601=EDGE_CURVE('',#504,#505,#684,.T.);
#602=EDGE_CURVE('',#505,#445,#685,.T.);
#603=EDGE_CURVE('',#444,#504,#686,.T.);
#604=EDGE_CURVE('',#506,#506,#228,.T.);
#605=EDGE_CURVE('',#502,#501,#229,.T.);
#606=EDGE_CURVE('',#500,#507,#230,.T.);
#607=EDGE_CURVE('',#508,#507,#687,.T.);
#608=EDGE_CURVE('',#508,#505,#231,.T.);
#609=EDGE_CURVE('',#504,#503,#232,.T.);
#610=EDGE_CURVE('',#446,#508,#688,.T.);
#611=EDGE_CURVE('',#507,#447,#689,.T.);
#612=EDGE_CURVE('',#509,#509,#233,.T.);
#613=LINE('',#1046,#690);
#614=LINE('',#1051,#691);
#615=LINE('',#1055,#692);
#616=LINE('',#1059,#693);
#617=LINE('',#1062,#694);
#618=LINE('',#1067,#695);
#619=LINE('',#1069,#696);
#620=LINE('',#1071,#697);
#621=LINE('',#1073,#698);
#622=LINE('',#1075,#699);
#623=LINE('',#1077,#700);
#624=LINE('',#1081,#701);
#625=LINE('',#1085,#702);
#626=LINE('',#1087,#703);
#627=LINE('',#1089,#704);
#628=LINE('',#1092,#705);
#629=LINE('',#1094,#706);
#630=LINE('',#1096,#707);
#631=LINE('',#1098,#708);
#632=LINE('',#1100,#709);
#633=LINE('',#1102,#710);
#634=LINE('',#1104,#711);
#635=LINE('',#1106,#712);
#636=LINE('',#1108,#713);
#637=LINE('',#1109,#714);
#638=LINE('',#1111,#715);
#639=LINE('',#1113,#716);
#640=LINE('',#1114,#717);
#641=LINE('',#1116,#718);
#642=LINE('',#1118,#719);
#643=LINE('',#1120,#720);
#644=LINE('',#1122,#721);
#645=LINE('',#1126,#722);
#646=LINE('',#1128,#723);
#647=LINE('',#1130,#724);
#648=LINE('',#1132,#725);
#649=LINE('',#1134,#726);
#650=LINE('',#1135,#727);
#651=LINE('',#1138,#728);
#652=LINE('',#1140,#729);
#653=LINE('',#1142,#730);
#654=LINE('',#1144,#731);
#655=LINE('',#1148,#732);
#656=LINE('',#1154,#733);
#657=LINE('',#1155,#734);
#658=LINE('',#1159,#735);
#659=LINE('',#1161,#736);
#660=LINE('',#1163,#737);
#661=LINE('',#1168,#738);
#662=LINE('',#1172,#739);
#663=LINE('',#1176,#740);
#664=LINE('',#1179,#741);
#665=LINE('',#1183,#742);
#666=LINE('',#1186,#743);
#667=LINE('',#1188,#744);
#668=LINE('',#1190,#745);
#669=LINE('',#1192,#746);
#670=LINE('',#1195,#747);
#671=LINE('',#1196,#748);
#672=LINE('',#1198,#749);
#673=LINE('',#1200,#750);
#674=LINE('',#1202,#751);
#675=LINE('',#1204,#752);
#676=LINE('',#1207,#753);
#677=LINE('',#1208,#754);
#678=LINE('',#1219,#755);
#679=LINE('',#1222,#756);
#680=LINE('',#1223,#757);
#681=LINE('',#1225,#758);
#682=LINE('',#1227,#759);
#683=LINE('',#1229,#760);
#684=LINE('',#1231,#761);
#685=LINE('',#1234,#762);
#686=LINE('',#1235,#763);
#687=LINE('',#1242,#764);
#688=LINE('',#1247,#765);
#689=LINE('',#1248,#766);
#690=VECTOR('',#836,1.);
#691=VECTOR('',#839,1.);
#692=VECTOR('',#842,1.);
#693=VECTOR('',#845,1.);
#694=VECTOR('',#848,1.);
#695=VECTOR('',#851,1.);
#696=VECTOR('',#852,1.);
#697=VECTOR('',#853,1.);
#698=VECTOR('',#854,1.);
#699=VECTOR('',#855,1.);
#700=VECTOR('',#856,1.);
#701=VECTOR('',#859,1.);
#702=VECTOR('',#862,1.);
#703=VECTOR('',#863,1.);
#704=VECTOR('',#866,1.);
#705=VECTOR('',#867,1.);
#706=VECTOR('',#868,1.);
#707=VECTOR('',#869,1.);
#708=VECTOR('',#870,1.);
#709=VECTOR('',#871,1.);
#710=VECTOR('',#874,1.);
#711=VECTOR('',#875,1.);
#712=VECTOR('',#876,1.);
#713=VECTOR('',#877,1.);
#714=VECTOR('',#878,1.);
#715=VECTOR('',#879,1.);
#716=VECTOR('',#880,1.);
#717=VECTOR('',#881,1.);
#718=VECTOR('',#884,1.);
#719=VECTOR('',#885,1.);
#720=VECTOR('',#886,1.);
#721=VECTOR('',#887,1.);
#722=VECTOR('',#892,1.);
#723=VECTOR('',#895,1.);
#724=VECTOR('',#896,1.);
#725=VECTOR('',#899,1.);
#726=VECTOR('',#902,1.);
#727=VECTOR('',#903,1.);
#728=VECTOR('',#908,1.);
#729=VECTOR('',#909,1.);
#730=VECTOR('',#912,1.);
#731=VECTOR('',#913,1.);
#732=VECTOR('',#918,1.);
#733=VECTOR('',#925,1.);
#734=VECTOR('',#926,1.);
#735=VECTOR('',#933,1.);
#736=VECTOR('',#934,1.);
#737=VECTOR('',#937,1.);
#738=VECTOR('',#940,1.);
#739=VECTOR('',#943,1.);
#740=VECTOR('',#946,1.);
#741=VECTOR('',#949,1.);
#742=VECTOR('',#954,1.);
#743=VECTOR('',#959,1.);
#744=VECTOR('',#960,1.);
#745=VECTOR('',#961,1.);
#746=VECTOR('',#964,1.);
#747=VECTOR('',#965,1.);
#748=VECTOR('',#966,1.);
#749=VECTOR('',#969,1.);
#750=VECTOR('',#970,1.);
#751=VECTOR('',#971,1.);
#752=VECTOR('',#974,1.);
#753=VECTOR('',#975,1.);
#754=VECTOR('',#976,1.);
#755=VECTOR('',#997,1.);
#756=VECTOR('',#998,1.);
#757=VECTOR('',#999,1.);
#758=VECTOR('',#1002,1.);
#759=VECTOR('',#1003,1.);
#760=VECTOR('',#1004,1.);
#761=VECTOR('',#1007,1.);
#762=VECTOR('',#1008,1.);
#763=VECTOR('',#1009,1.);
#764=VECTOR('',#1018,1.);
#765=VECTOR('',#1025,1.);
#766=VECTOR('',#1026,1.);
#767=AXIS2_PLACEMENT_3D('',#1045,#834,#835);
#768=AXIS2_PLACEMENT_3D('',#1049,#837,#838);
#769=AXIS2_PLACEMENT_3D('',#1053,#840,#841);
#770=AXIS2_PLACEMENT_3D('',#1057,#843,#844);
#771=AXIS2_PLACEMENT_3D('',#1061,#846,#847);
#772=AXIS2_PLACEMENT_3D('',#1065,#849,#850);
#773=AXIS2_PLACEMENT_3D('',#1079,#857,#858);
#774=AXIS2_PLACEMENT_3D('',#1083,#860,#861);
#775=AXIS2_PLACEMENT_3D('',#1088,#864,#865);
#776=AXIS2_PLACEMENT_3D('',#1101,#872,#873);
#777=AXIS2_PLACEMENT_3D('',#1115,#882,#883);
#778=AXIS2_PLACEMENT_3D('',#1123,#888,#889);
#779=AXIS2_PLACEMENT_3D('',#1124,#890,#891);
#780=AXIS2_PLACEMENT_3D('',#1127,#893,#894);
#781=AXIS2_PLACEMENT_3D('',#1131,#897,#898);
#782=AXIS2_PLACEMENT_3D('',#1133,#900,#901);
#783=AXIS2_PLACEMENT_3D('',#1136,#904,#905);
#784=AXIS2_PLACEMENT_3D('',#1137,#906,#907);
#785=AXIS2_PLACEMENT_3D('',#1141,#910,#911);
#786=AXIS2_PLACEMENT_3D('',#1145,#914,#915);
#787=AXIS2_PLACEMENT_3D('',#1146,#916,#917);
#788=AXIS2_PLACEMENT_3D('',#1151,#919,#920);
#789=AXIS2_PLACEMENT_3D('',#1152,#921,#922);
#790=AXIS2_PLACEMENT_3D('',#1153,#923,#924);
#791=AXIS2_PLACEMENT_3D('',#1156,#927,#928);
#792=AXIS2_PLACEMENT_3D('',#1157,#929,#930);
#793=AXIS2_PLACEMENT_3D('',#1158,#931,#932);
#794=AXIS2_PLACEMENT_3D('',#1162,#935,#936);
#795=AXIS2_PLACEMENT_3D('',#1166,#938,#939);
#796=AXIS2_PLACEMENT_3D('',#1170,#941,#942);
#797=AXIS2_PLACEMENT_3D('',#1174,#944,#945);
#798=AXIS2_PLACEMENT_3D('',#1178,#947,#948);
#799=AXIS2_PLACEMENT_3D('',#1181,#950,#951);
#800=AXIS2_PLACEMENT_3D('',#1182,#952,#953);
#801=AXIS2_PLACEMENT_3D('',#1184,#955,#956);
#802=AXIS2_PLACEMENT_3D('',#1185,#957,#958);
#803=AXIS2_PLACEMENT_3D('',#1191,#962,#963);
#804=AXIS2_PLACEMENT_3D('',#1197,#967,#968);
#805=AXIS2_PLACEMENT_3D('',#1203,#972,#973);
#806=AXIS2_PLACEMENT_3D('',#1209,#977,#978);
#807=AXIS2_PLACEMENT_3D('',#1210,#979,#980);
#808=AXIS2_PLACEMENT_3D('',#1211,#981,#982);
#809=AXIS2_PLACEMENT_3D('',#1212,#983,#984);
#810=AXIS2_PLACEMENT_3D('',#1213,#985,#986);
#811=AXIS2_PLACEMENT_3D('',#1214,#987,#988);
#812=AXIS2_PLACEMENT_3D('',#1215,#989,#990);
#813=AXIS2_PLACEMENT_3D('',#1216,#991,#992);
#814=AXIS2_PLACEMENT_3D('',#1217,#993,#994);
#815=AXIS2_PLACEMENT_3D('',#1218,#995,#996);
#816=AXIS2_PLACEMENT_3D('',#1224,#1000,#1001);
#817=AXIS2_PLACEMENT_3D('',#1230,#1005,#1006);
#818=AXIS2_PLACEMENT_3D('',#1236,#1010,#1011);
#819=AXIS2_PLACEMENT_3D('',#1237,#1012,#1013);
#820=AXIS2_PLACEMENT_3D('',#1239,#1014,#1015);
#821=AXIS2_PLACEMENT_3D('',#1240,#1016,#1017);
#822=AXIS2_PLACEMENT_3D('',#1244,#1019,#1020);
#823=AXIS2_PLACEMENT_3D('',#1245,#1021,#1022);
#824=AXIS2_PLACEMENT_3D('',#1246,#1023,#1024);
#825=AXIS2_PLACEMENT_3D('',#1249,#1027,#1028);
#826=AXIS2_PLACEMENT_3D('',#1250,#1029,#1030);
#827=AXIS2_PLACEMENT_3D('',#1251,#1031,#1032);
#828=AXIS2_PLACEMENT_3D('',#1252,#1033,#1034);
#829=AXIS2_PLACEMENT_3D('',#1253,#1035,#1036);
#830=AXIS2_PLACEMENT_3D('',#1254,#1037,#1038);
#831=AXIS2_PLACEMENT_3D('',#1256,#1039,#1040);
#832=AXIS2_PLACEMENT_3D('',#1257,#1041,#1042);
#833=AXIS2_PLACEMENT_3D('',#1258,#1043,#1044);
#834=DIRECTION('',(0.,0.,1.));
#835=DIRECTION('',(1.,0.,0.));
#836=DIRECTION('',(1.,0.,0.));
#837=DIRECTION('',(0.,0.,-1.));
#838=DIRECTION('',(1.,0.,0.));
#839=DIRECTION('',(0.,-1.,0.));
#840=DIRECTION('',(0.,0.,-1.));
#841=DIRECTION('',(1.,0.,0.));
#842=DIRECTION('',(-1.,0.,0.));
#843=DIRECTION('',(0.,0.,-1.));
#844=DIRECTION('',(1.00000000000001,0.,0.));
#845=DIRECTION('',(0.,1.,0.));
#846=DIRECTION('',(0.,0.,-1.));
#847=DIRECTION('',(1.00000000000001,0.,0.));
#848=DIRECTION('',(-1.,0.,0.));
#849=DIRECTION('',(0.,0.,-1.));
#850=DIRECTION('',(1.,0.,0.));
#851=DIRECTION('',(0.,1.,0.));
#852=DIRECTION('',(1.,0.,0.));
#853=DIRECTION('',(0.,1.,0.));
#854=DIRECTION('',(-1.,0.,0.));
#855=DIRECTION('',(0.,1.,0.));
#856=DIRECTION('',(-1.,0.,0.));
#857=DIRECTION('',(0.,0.,-1.));
#858=DIRECTION('',(1.,0.,0.));
#859=DIRECTION('',(0.,1.,0.));
#860=DIRECTION('',(0.,0.,-1.));
#861=DIRECTION('',(1.,0.,0.));
#862=DIRECTION('',(1.,0.,0.));
#863=DIRECTION('',(0.,1.,0.));
#864=DIRECTION('',(0.,0.,1.));
#865=DIRECTION('',(1.,0.,0.));
#866=DIRECTION('',(1.,0.,0.));
#867=DIRECTION('',(0.,0.,1.));
#868=DIRECTION('',(1.,0.,0.));
#869=DIRECTION('',(0.,0.,1.));
#870=DIRECTION('',(-1.,0.,0.));
#871=DIRECTION('',(0.,0.,1.));
#872=DIRECTION('',(0.,-1.,0.));
#873=DIRECTION('',(0.,0.,-1.));
#874=DIRECTION('',(0.,0.,1.));
#875=DIRECTION('',(0.,0.,1.));
#876=DIRECTION('',(0.,-1.,0.));
#877=DIRECTION('',(0.,0.,1.));
#878=DIRECTION('',(0.,0.707106781186546,-0.707106781186549));
#879=DIRECTION('',(0.,0.,1.));
#880=DIRECTION('',(0.,-1.,0.));
#881=DIRECTION('',(0.,-1.,0.));
#882=DIRECTION('',(-1.,0.,0.));
#883=DIRECTION('',(0.,0.,1.));
#884=DIRECTION('',(1.,0.,0.));
#885=DIRECTION('',(0.707106781186548,0.,-0.707106781186548));
#886=DIRECTION('',(0.,0.,1.));
#887=DIRECTION('',(-1.,0.,0.));
#888=DIRECTION('',(0.,1.,0.));
#889=DIRECTION('',(0.,0.,1.));
#890=DIRECTION('',(0.,0.,-1.));
#891=DIRECTION('',(-1.,0.,0.));
#892=DIRECTION('',(0.,1.,0.));
#893=DIRECTION('',(0.,0.,-1.));
#894=DIRECTION('',(-1.,0.,0.));
#895=DIRECTION('',(0.,-1.,0.));
#896=DIRECTION('',(0.,-0.707106781186548,-0.707106781186548));
#897=DIRECTION('',(1.,0.,0.));
#898=DIRECTION('',(0.,0.,-1.));
#899=DIRECTION('',(0.577350269189626,0.577350269189625,-0.577350269189626));
#900=DIRECTION('',(0.,-0.707106781186549,-0.707106781186546));
#901=DIRECTION('',(1.,0.,0.));
#902=DIRECTION('',(0.,0.707106781186548,0.707106781186548));
#903=DIRECTION('',(-0.577350269189626,0.577350269189626,0.577350269189626));
#904=DIRECTION('',(0.,0.707106781186547,-0.707106781186547));
#905=DIRECTION('',(-1.,0.,0.));
#906=DIRECTION('',(-0.707106781186547,0.,-0.707106781186547));
#907=DIRECTION('',(0.,-1.,0.));
#908=DIRECTION('',(0.,0.,-1.));
#909=DIRECTION('',(-1.,0.,0.));
#910=DIRECTION('',(0.,-1.,0.));
#911=DIRECTION('',(0.,0.,-1.));
#912=DIRECTION('',(1.,0.,0.));
#913=DIRECTION('',(0.,0.,1.));
#914=DIRECTION('',(0.,1.,0.));
#915=DIRECTION('',(0.,0.,1.));
#916=DIRECTION('',(0.,0.,-1.));
#917=DIRECTION('',(-1.,0.,0.));
#918=DIRECTION('',(0.,-1.,0.));
#919=DIRECTION('',(0.,0.,1.));
#920=DIRECTION('',(-1.,0.,0.));
#921=DIRECTION('',(0.,0.,1.));
#922=DIRECTION('',(-1.,0.,0.));
#923=DIRECTION('',(0.,0.,-1.));
#924=DIRECTION('',(-1.,0.,0.));
#925=DIRECTION('',(0.,0.,-1.));
#926=DIRECTION('',(0.,0.,1.));
#927=DIRECTION('',(1.,0.,0.));
#928=DIRECTION('',(0.,0.,-1.));
#929=DIRECTION('',(0.,0.,1.));
#930=DIRECTION('',(1.,0.,0.));
#931=DIRECTION('',(0.,0.,1.));
#932=DIRECTION('',(1.,0.,0.));
#933=DIRECTION('',(1.,0.,0.));
#934=DIRECTION('',(0.,0.,1.));
#935=DIRECTION('',(0.,1.,0.));
#936=DIRECTION('',(0.,0.,1.));
#937=DIRECTION('',(1.,0.,0.));
#938=DIRECTION('',(0.,0.,-1.));
#939=DIRECTION('',(-1.,0.,0.));
#940=DIRECTION('',(0.,-1.,0.));
#941=DIRECTION('',(0.,0.,-1.));
#942=DIRECTION('',(-1.,0.,0.));
#943=DIRECTION('',(-1.,0.,0.));
#944=DIRECTION('',(0.,0.,-1.));
#945=DIRECTION('',(-1.,0.,0.));
#946=DIRECTION('',(0.,1.,0.));
#947=DIRECTION('',(0.,0.,-1.));
#948=DIRECTION('',(-1.,0.,0.));
#949=DIRECTION('',(0.,-1.,0.));
#950=DIRECTION('',(0.,0.,1.));
#951=DIRECTION('',(-1.,0.,0.));
#952=DIRECTION('',(0.,0.,-1.));
#953=DIRECTION('',(-1.,0.,0.));
#954=DIRECTION('',(0.,0.,-1.));
#955=DIRECTION('',(1.,0.,0.));
#956=DIRECTION('',(0.,0.,-1.));
#957=DIRECTION('',(0.,0.,1.));
#958=DIRECTION('',(1.,0.,0.));
#959=DIRECTION('',(0.,0.,-1.));
#960=DIRECTION('',(-1.,0.,0.));
#961=DIRECTION('',(0.,0.,1.));
#962=DIRECTION('',(0.,-1.,0.));
#963=DIRECTION('',(0.,0.,-1.));
#964=DIRECTION('',(0.,1.,0.));
#965=DIRECTION('',(0.,0.,1.));
#966=DIRECTION('',(0.,0.,-1.));
#967=DIRECTION('',(-1.,0.,0.));
#968=DIRECTION('',(0.,0.,1.));
#969=DIRECTION('',(0.,0.,-1.));
#970=DIRECTION('',(1.,0.,0.));
#971=DIRECTION('',(0.,0.,1.));
#972=DIRECTION('',(0.,1.,0.));
#973=DIRECTION('',(0.,0.,1.));
#974=DIRECTION('',(0.,-1.,0.));
#975=DIRECTION('',(0.,0.,1.));
#976=DIRECTION('',(0.,0.,-1.));
#977=DIRECTION('',(1.,0.,0.));
#978=DIRECTION('',(0.,0.,-1.));
#979=DIRECTION('',(0.,0.,1.));
#980=DIRECTION('',(-1.,0.,0.));
#981=DIRECTION('',(0.,0.,1.));
#982=DIRECTION('',(-1.,0.,0.));
#983=DIRECTION('',(0.,0.,1.));
#984=DIRECTION('',(-1.,0.,0.));
#985=DIRECTION('',(0.,0.,1.));
#986=DIRECTION('',(-1.,0.,0.));
#987=DIRECTION('',(0.,0.,-1.));
#988=DIRECTION('',(-1.,0.,0.));
#989=DIRECTION('',(0.,0.,1.));
#990=DIRECTION('',(1.,0.,0.));
#991=DIRECTION('',(0.,0.,1.));
#992=DIRECTION('',(1.,0.,0.));
#993=DIRECTION('',(0.,0.,1.));
#994=DIRECTION('',(1.,0.,0.));
#995=DIRECTION('',(0.,0.,1.));
#996=DIRECTION('',(1.,0.,0.));
#997=DIRECTION('',(-1.,0.,0.));
#998=DIRECTION('',(0.,0.,1.));
#999=DIRECTION('',(0.,0.,-1.));
#1000=DIRECTION('',(0.,-1.,0.));
#1001=DIRECTION('',(0.,0.,-1.));
#1002=DIRECTION('',(0.,0.,-1.));
#1003=DIRECTION('',(0.,1.,0.));
#1004=DIRECTION('',(0.,0.,1.));
#1005=DIRECTION('',(-1.,0.,0.));
#1006=DIRECTION('',(0.,0.,1.));
#1007=DIRECTION('',(1.,0.,0.));
#1008=DIRECTION('',(0.,0.,1.));
#1009=DIRECTION('',(0.,0.,-1.));
#1010=DIRECTION('',(0.,1.,0.));
#1011=DIRECTION('',(0.,0.,1.));
#1012=DIRECTION('',(0.,0.,-1.));
#1013=DIRECTION('',(-0.999999999999999,0.,0.));
#1014=DIRECTION('',(0.,0.,1.));
#1015=DIRECTION('',(-1.,0.,0.));
#1016=DIRECTION('',(0.,0.,1.));
#1017=DIRECTION('',(-1.00000000000001,0.,0.));
#1018=DIRECTION('',(0.,-1.,0.));
#1019=DIRECTION('',(0.,0.,1.));
#1020=DIRECTION('',(-1.00000000000001,0.,0.));
#1021=DIRECTION('',(0.,0.,1.));
#1022=DIRECTION('',(-1.,0.,0.));
#1023=DIRECTION('',(0.,0.,-1.));
#1024=DIRECTION('',(-1.,0.,0.));
#1025=DIRECTION('',(0.,0.,-1.));
#1026=DIRECTION('',(0.,0.,1.));
#1027=DIRECTION('',(1.,0.,0.));
#1028=DIRECTION('',(0.,0.,-1.));
#1029=DIRECTION('',(0.,0.,1.));
#1030=DIRECTION('',(1.,0.,0.));
#1031=DIRECTION('',(0.,0.,1.));
#1032=DIRECTION('',(1.00000000000001,0.,0.));
#1033=DIRECTION('',(0.,0.,1.));
#1034=DIRECTION('',(1.00000000000001,0.,0.));
#1035=DIRECTION('',(0.,0.,1.));
#1036=DIRECTION('',(1.,0.,0.));
#1037=DIRECTION('',(0.,0.,-1.));
#1038=DIRECTION('',(0.999999999999999,0.,0.));
#1039=DIRECTION('',(0.,0.,-1.));
#1040=DIRECTION('',(0.999999999999999,0.,0.));
#1041=DIRECTION('',(0.,0.,-1.));
#1042=DIRECTION('',(-1.,0.,0.));
#1043=DIRECTION('',(0.,0.,-1.));
#1044=DIRECTION('',(1.,0.,0.));
#1045=CARTESIAN_POINT('',(0.,0.,0.));
#1046=CARTESIAN_POINT('',(250.,76.2,145.4));
#1047=CARTESIAN_POINT('',(128.5,76.2,145.4));
#1048=CARTESIAN_POINT('',(315.2,76.2,145.4));
#1049=CARTESIAN_POINT('',(128.5,81.,145.4));
#1050=CARTESIAN_POINT('',(123.7,81.,145.4));
#1051=CARTESIAN_POINT('',(123.7,181.15,145.4));
#1052=CARTESIAN_POINT('',(123.7,154.3,145.4));
#1053=CARTESIAN_POINT('',(128.5,154.3,145.4));
#1054=CARTESIAN_POINT('',(128.5,159.1,145.4));
#1055=CARTESIAN_POINT('',(250.,159.1,145.4));
#1056=CARTESIAN_POINT('',(315.2,159.1,145.4));
#1057=CARTESIAN_POINT('',(315.2,154.3,145.4));
#1058=CARTESIAN_POINT('',(320.,154.3,145.4));
#1059=CARTESIAN_POINT('',(320.,181.15,145.4));
#1060=CARTESIAN_POINT('',(320.,81.,145.4));
#1061=CARTESIAN_POINT('',(315.2,81.,145.4));
#1062=CARTESIAN_POINT('',(250.,116.6,145.4));
#1063=CARTESIAN_POINT('',(64.8,116.6,145.4));
#1064=CARTESIAN_POINT('',(0.,116.6,145.4));
#1065=CARTESIAN_POINT('',(64.8,105.1,145.4));
#1066=CARTESIAN_POINT('',(76.3,105.1,145.4));
#1067=CARTESIAN_POINT('',(76.3,181.15,145.4));
#1068=CARTESIAN_POINT('',(76.3,21.2,145.4));
#1069=CARTESIAN_POINT('',(250.,21.2,145.4));
#1070=CARTESIAN_POINT('',(483.9,21.2,145.4));
#1071=CARTESIAN_POINT('',(483.9,181.15,145.4));
#1072=CARTESIAN_POINT('',(483.9,353.6,145.4));
#1073=CARTESIAN_POINT('',(250.,353.6,145.4));
#1074=CARTESIAN_POINT('',(0.,353.6,145.4));
#1075=CARTESIAN_POINT('',(0.,181.15,145.4));
#1076=CARTESIAN_POINT('',(0.,269.3,145.4));
#1077=CARTESIAN_POINT('',(250.,269.3,145.4));
#1078=CARTESIAN_POINT('',(116.6,269.3,145.4));
#1079=CARTESIAN_POINT('',(116.6,264.4,145.4));
#1080=CARTESIAN_POINT('',(121.5,264.4,145.4));
#1081=CARTESIAN_POINT('',(121.5,181.15,145.4));
#1082=CARTESIAN_POINT('',(121.5,127.3,145.4));
#1083=CARTESIAN_POINT('',(116.6,127.3,145.4));
#1084=CARTESIAN_POINT('',(116.6,122.4,145.4));
#1085=CARTESIAN_POINT('',(250.,122.4,145.4));
#1086=CARTESIAN_POINT('',(0.,122.4,145.4));
#1087=CARTESIAN_POINT('',(0.,181.15,145.4));
#1088=CARTESIAN_POINT('',(250.,181.15,145.4));
#1089=CARTESIAN_POINT('',(38.15,0.,118.9));
#1090=CARTESIAN_POINT('',(0.,0.,118.9));
#1091=CARTESIAN_POINT('',(76.3,0.,118.9));
#1092=CARTESIAN_POINT('',(0.,0.,0.));
#1093=CARTESIAN_POINT('',(0.,0.,0.));
#1094=CARTESIAN_POINT('',(250.,0.,0.));
#1095=CARTESIAN_POINT('',(500.,0.,0.));
#1096=CARTESIAN_POINT('',(500.,0.,0.));
#1097=CARTESIAN_POINT('',(500.,0.,124.2));
#1098=CARTESIAN_POINT('',(250.,0.,124.2));
#1099=CARTESIAN_POINT('',(76.3,0.,124.2));
#1100=CARTESIAN_POINT('',(76.3,0.,118.9));
#1101=CARTESIAN_POINT('',(250.,0.,0.));
#1102=CARTESIAN_POINT('',(0.,116.6,118.9));
#1103=CARTESIAN_POINT('',(0.,116.6,118.9));
#1104=CARTESIAN_POINT('',(0.,122.4,119.5));
#1105=CARTESIAN_POINT('',(0.,122.4,119.5));
#1106=CARTESIAN_POINT('',(0.,195.85,119.5));
#1107=CARTESIAN_POINT('',(0.,269.3,119.5));
#1108=CARTESIAN_POINT('',(0.,269.3,119.5));
#1109=CARTESIAN_POINT('',(0.,340.075,158.925));
#1110=CARTESIAN_POINT('',(0.,362.3,136.7));
#1111=CARTESIAN_POINT('',(0.,362.3,0.));
#1112=CARTESIAN_POINT('',(0.,362.3,0.));
#1113=CARTESIAN_POINT('',(0.,181.15,0.));
#1114=CARTESIAN_POINT('',(0.,58.3,118.9));
#1115=CARTESIAN_POINT('',(0.,181.15,0.));
#1116=CARTESIAN_POINT('',(250.,362.3,136.7));
#1117=CARTESIAN_POINT('',(492.6,362.3,136.7));
#1118=CARTESIAN_POINT('',(439.65,362.3,189.65));
#1119=CARTESIAN_POINT('',(500.,362.3,129.3));
#1120=CARTESIAN_POINT('',(500.,362.3,0.));
#1121=CARTESIAN_POINT('',(500.,362.3,0.));
#1122=CARTESIAN_POINT('',(250.,362.3,0.));
#1123=CARTESIAN_POINT('',(250.,362.3,0.));
#1124=CARTESIAN_POINT('',(38.1,249.5,0.));
#1125=CARTESIAN_POINT('',(26.6,249.5,0.));
#1126=CARTESIAN_POINT('',(500.,181.15,0.));
#1127=CARTESIAN_POINT('',(250.,181.15,0.));
#1128=CARTESIAN_POINT('',(500.,181.15,129.3));
#1129=CARTESIAN_POINT('',(500.,5.09999999999999,129.3));
#1130=CARTESIAN_POINT('',(500.,28.475,152.675));
#1131=CARTESIAN_POINT('',(500.,181.15,0.));
#1132=CARTESIAN_POINT('',(411.733333333333,281.433333333333,217.566666666667));
#1133=CARTESIAN_POINT('',(250.,362.3,136.7));
#1134=CARTESIAN_POINT('',(76.3,0.,124.2));
#1135=CARTESIAN_POINT('',(420.066666666667,85.0333333333333,209.233333333333));
#1136=CARTESIAN_POINT('',(250.,0.,124.2));
#1137=CARTESIAN_POINT('',(500.,181.15,129.3));
#1138=CARTESIAN_POINT('',(116.6,122.4,119.5));
#1139=CARTESIAN_POINT('',(116.6,122.4,119.5));
#1140=CARTESIAN_POINT('',(60.75,122.4,119.5));
#1141=CARTESIAN_POINT('',(60.75,122.4,119.5));
#1142=CARTESIAN_POINT('',(60.75,269.3,119.5));
#1143=CARTESIAN_POINT('',(116.6,269.3,119.5));
#1144=CARTESIAN_POINT('',(116.6,269.3,145.4));
#1145=CARTESIAN_POINT('',(60.75,269.3,119.5));
#1146=CARTESIAN_POINT('',(38.1,249.5,119.5));
#1147=CARTESIAN_POINT('',(26.6,249.5,119.5));
#1148=CARTESIAN_POINT('',(121.5,195.85,119.5));
#1149=CARTESIAN_POINT('',(121.5,264.4,119.5));
#1150=CARTESIAN_POINT('',(121.5,127.3,119.5));
#1151=CARTESIAN_POINT('',(116.6,264.4,119.5));
#1152=CARTESIAN_POINT('',(116.6,127.3,119.5));
#1153=CARTESIAN_POINT('',(60.75,195.85,119.5));
#1154=CARTESIAN_POINT('',(121.5,264.4,119.5));
#1155=CARTESIAN_POINT('',(121.5,127.3,145.4));
#1156=CARTESIAN_POINT('',(121.5,195.85,119.5));
#1157=CARTESIAN_POINT('',(116.6,264.4,119.5));
#1158=CARTESIAN_POINT('',(116.6,127.3,119.5));
#1159=CARTESIAN_POINT('',(38.15,116.6,118.9));
#1160=CARTESIAN_POINT('',(64.8,116.6,118.9));
#1161=CARTESIAN_POINT('',(64.8,116.6,145.4));
#1162=CARTESIAN_POINT('',(38.15,116.6,118.9));
#1163=CARTESIAN_POINT('',(38.15,65.8,118.9));
#1164=CARTESIAN_POINT('',(21.1,65.8,118.9));
#1165=CARTESIAN_POINT('',(29.9,65.8,118.9));
#1166=CARTESIAN_POINT('',(29.9,57.3,118.9));
#1167=CARTESIAN_POINT('',(38.4,57.3,118.9));
#1168=CARTESIAN_POINT('',(38.4,58.3,118.9));
#1169=CARTESIAN_POINT('',(38.4,35.1,118.9));
#1170=CARTESIAN_POINT('',(29.9,35.1,118.9));
#1171=CARTESIAN_POINT('',(29.9,26.6,118.9));
#1172=CARTESIAN_POINT('',(38.15,26.6,118.9));
#1173=CARTESIAN_POINT('',(21.1,26.6,118.9));
#1174=CARTESIAN_POINT('',(21.1,35.1,118.9));
#1175=CARTESIAN_POINT('',(12.6,35.1,118.9));
#1176=CARTESIAN_POINT('',(12.6,58.3,118.9));
#1177=CARTESIAN_POINT('',(12.6,57.3,118.9));
#1178=CARTESIAN_POINT('',(21.1,57.3,118.9));
#1179=CARTESIAN_POINT('',(76.3,58.3,118.9));
#1180=CARTESIAN_POINT('',(76.3,105.1,118.9));
#1181=CARTESIAN_POINT('',(64.8,105.1,118.9));
#1182=CARTESIAN_POINT('',(38.15,58.3,118.9));
#1183=CARTESIAN_POINT('',(76.3,105.1,118.9));
#1184=CARTESIAN_POINT('',(76.3,58.3,118.9));
#1185=CARTESIAN_POINT('',(64.8,105.1,118.9));
#1186=CARTESIAN_POINT('',(29.9,26.6,107.5));
#1187=CARTESIAN_POINT('',(29.9,26.6,107.5));
#1188=CARTESIAN_POINT('',(25.5,26.6,107.5));
#1189=CARTESIAN_POINT('',(21.1,26.6,107.5));
#1190=CARTESIAN_POINT('',(21.1,26.6,118.9));
#1191=CARTESIAN_POINT('',(25.5,26.6,107.5));
#1192=CARTESIAN_POINT('',(12.6,46.2,107.5));
#1193=CARTESIAN_POINT('',(12.6,35.1,107.5));
#1194=CARTESIAN_POINT('',(12.6,57.3,107.5));
#1195=CARTESIAN_POINT('',(12.6,57.3,118.9));
#1196=CARTESIAN_POINT('',(12.6,35.1,107.5));
#1197=CARTESIAN_POINT('',(12.6,46.2,107.5));
#1198=CARTESIAN_POINT('',(21.1,65.8,107.5));
#1199=CARTESIAN_POINT('',(21.1,65.8,107.5));
#1200=CARTESIAN_POINT('',(25.5,65.8,107.5));
#1201=CARTESIAN_POINT('',(29.9,65.8,107.5));
#1202=CARTESIAN_POINT('',(29.9,65.8,118.9));
#1203=CARTESIAN_POINT('',(25.5,65.8,107.5));
#1204=CARTESIAN_POINT('',(38.4,46.2,107.5));
#1205=CARTESIAN_POINT('',(38.4,57.3,107.5));
#1206=CARTESIAN_POINT('',(38.4,35.1,107.5));
#1207=CARTESIAN_POINT('',(38.4,35.1,118.9));
#1208=CARTESIAN_POINT('',(38.4,57.3,107.5));
#1209=CARTESIAN_POINT('',(38.4,46.2,107.5));
#1210=CARTESIAN_POINT('',(21.1,57.3,107.5));
#1211=CARTESIAN_POINT('',(21.1,35.1,107.5));
#1212=CARTESIAN_POINT('',(29.9,35.1,107.5));
#1213=CARTESIAN_POINT('',(29.9,57.3,107.5));
#1214=CARTESIAN_POINT('',(25.5,46.2,107.5));
#1215=CARTESIAN_POINT('',(21.1,57.3,107.5));
#1216=CARTESIAN_POINT('',(29.9,35.1,107.5));
#1217=CARTESIAN_POINT('',(29.9,57.3,107.5));
#1218=CARTESIAN_POINT('',(21.1,35.1,107.5));
#1219=CARTESIAN_POINT('',(221.85,76.2,119.5));
#1220=CARTESIAN_POINT('',(315.2,76.2,119.5));
#1221=CARTESIAN_POINT('',(128.5,76.2,119.5));
#1222=CARTESIAN_POINT('',(128.5,76.2,145.4));
#1223=CARTESIAN_POINT('',(315.2,76.2,119.5));
#1224=CARTESIAN_POINT('',(221.85,76.2,119.5));
#1225=CARTESIAN_POINT('',(123.7,81.,119.5));
#1226=CARTESIAN_POINT('',(123.7,81.,119.5));
#1227=CARTESIAN_POINT('',(123.7,117.65,119.5));
#1228=CARTESIAN_POINT('',(123.7,154.3,119.5));
#1229=CARTESIAN_POINT('',(123.7,154.3,145.4));
#1230=CARTESIAN_POINT('',(123.7,117.65,119.5));
#1231=CARTESIAN_POINT('',(221.85,159.1,119.5));
#1232=CARTESIAN_POINT('',(128.5,159.1,119.5));
#1233=CARTESIAN_POINT('',(315.2,159.1,119.5));
#1234=CARTESIAN_POINT('',(315.2,159.1,145.4));
#1235=CARTESIAN_POINT('',(128.5,159.1,119.5));
#1236=CARTESIAN_POINT('',(221.85,159.1,119.5));
#1237=CARTESIAN_POINT('',(282.7,114.,119.5));
#1238=CARTESIAN_POINT('',(268.45,114.,119.5));
#1239=CARTESIAN_POINT('',(128.5,81.,119.5));
#1240=CARTESIAN_POINT('',(315.2,81.,119.5));
#1241=CARTESIAN_POINT('',(320.,81.,119.5));
#1242=CARTESIAN_POINT('',(320.,117.65,119.5));
#1243=CARTESIAN_POINT('',(320.,154.3,119.5));
#1244=CARTESIAN_POINT('',(315.2,154.3,119.5));
#1245=CARTESIAN_POINT('',(128.5,154.3,119.5));
#1246=CARTESIAN_POINT('',(221.85,117.65,119.5));
#1247=CARTESIAN_POINT('',(320.,154.3,119.5));
#1248=CARTESIAN_POINT('',(320.,81.,145.4));
#1249=CARTESIAN_POINT('',(320.,117.65,119.5));
#1250=CARTESIAN_POINT('',(128.5,81.,119.5));
#1251=CARTESIAN_POINT('',(315.2,154.3,119.5));
#1252=CARTESIAN_POINT('',(315.2,81.,119.5));
#1253=CARTESIAN_POINT('',(128.5,154.3,119.5));
#1254=CARTESIAN_POINT('',(282.7,114.,77.2));
#1255=CARTESIAN_POINT('',(296.95,114.,77.2));
#1256=CARTESIAN_POINT('',(282.7,114.,145.45));
#1257=CARTESIAN_POINT('',(282.7,114.,77.2));
#1258=CARTESIAN_POINT('',(38.1,249.5,145.45));
#1259=MECHANICAL_DESIGN_GEOMETRIC_PRESENTATION_REPRESENTATION('',(#24),
#1260);
#1260=(
GEOMETRIC_REPRESENTATION_CONTEXT(3)
GLOBAL_UNCERTAINTY_ASSIGNED_CONTEXT((#1261))
GLOBAL_UNIT_ASSIGNED_CONTEXT((#1267,#1263,#1262))
REPRESENTATION_CONTEXT('featured_part_00192','TOP_LEVEL_ASSEMBLY_PART')
);
#1261=UNCERTAINTY_MEASURE_WITH_UNIT(LENGTH_MEASURE(2.E-5),#1267,
'DISTANCE_ACCURACY_VALUE','Maximum Tolerance applied to model');
#1262=(
NAMED_UNIT(*)
SI_UNIT($,.STERADIAN.)
SOLID_ANGLE_UNIT()
);
#1263=(
CONVERSION_BASED_UNIT('DEGREE',#1265)
NAMED_UNIT(#1264)
PLANE_ANGLE_UNIT()
);
#1264=DIMENSIONAL_EXPONENTS(0.,0.,0.,0.,0.,0.,0.);
#1265=PLANE_ANGLE_MEASURE_WITH_UNIT(PLANE_ANGLE_MEASURE(0.0174532925),#1266);
#1266=(
NAMED_UNIT(*)
PLANE_ANGLE_UNIT()
SI_UNIT($,.RADIAN.)
);
#1267=(
LENGTH_UNIT()
NAMED_UNIT(*)
SI_UNIT(.MILLI.,.METRE.)
);
ENDSEC;
END-ISO-10303-21;
