ISO-10303-21;
HEADER;
/* Generated by software containing ST-Developer
 * from STEP Tools, Inc. (www.steptools.com) 
 */
/* OPTION: using custom schema-name function */

FILE_DESCRIPTION(
/* description */ (''),
/* implementation_level */ '2;1');

FILE_NAME(
/* name */ 'featured_part_08817.stp',
/* time_stamp */ '2026-07-15T06:40:34-04:00',
/* author */ (''),
/* organization */ (''),
/* preprocessor_version */ 'ST-DEVELOPER v20.1',
/* originating_system */ 'SIEMENS PLM Software NX2512.6002',
/* authorisation */ '');

FILE_SCHEMA (('AUTOMOTIVE_DESIGN { 1 0 10303 214 3 1 1 1 }'));
ENDSEC;

DATA;
#10=SHAPE_REPRESENTATION_RELATIONSHIP('None',
'relationship between featured_part_08817-None and featured_part_08817
-None',#22,#11);
#11=ADVANCED_BREP_SHAPE_REPRESENTATION('featured_part_08817-None',(#32),
#588);
#12=SHAPE_DEFINITION_REPRESENTATION(#13,#22);
#13=PRODUCT_DEFINITION_SHAPE('','',#14);
#14=PRODUCT_DEFINITION(' ','',#16,#15);
#15=PRODUCT_DEFINITION_CONTEXT('part definition',#21,'design');
#16=PRODUCT_DEFINITION_FORMATION_WITH_SPECIFIED_SOURCE(' ',' ',#18,
 .NOT_KNOWN.);
#17=PRODUCT_RELATED_PRODUCT_CATEGORY('part','',(#18));
#18=PRODUCT('featured_part_08817','featured_part_08817',' ',(#19));
#19=PRODUCT_CONTEXT(' ',#21,'mechanical');
#20=APPLICATION_PROTOCOL_DEFINITION('international standard',
'automotive_design',2010,#21);
#21=APPLICATION_CONTEXT(
'core data for automotive mechanical design processes');
#22=SHAPE_REPRESENTATION('featured_part_08817-None',(#373),#588);
#23=PRESENTATION_LAYER_ASSIGNMENT('1','Layer 1',(#32));
#24=STYLED_ITEM('',(#25),#32);
#25=PRESENTATION_STYLE_ASSIGNMENT((#26));
#26=SURFACE_STYLE_USAGE(.BOTH.,#27);
#27=SURFACE_SIDE_STYLE('',(#28));
#28=SURFACE_STYLE_FILL_AREA(#29);
#29=FILL_AREA_STYLE('',(#30));
#30=FILL_AREA_STYLE_COLOUR('',#31);
#31=COLOUR_RGB('medium steel',0.611764705882353,0.658823529411765,0.670588235294118);
#32=MANIFOLD_SOLID_BREP('',#33);
#33=CLOSED_SHELL('',(#49,#50,#51,#52,#53,#54,#55,#56,#57,#58,#59,#60,#61,
#62,#63,#64,#65,#66));
#34=CYLINDRICAL_SURFACE('',#397,8.9);
#35=CYLINDRICAL_SURFACE('',#398,8.9);
#36=CYLINDRICAL_SURFACE('',#399,8.9);
#37=CYLINDRICAL_SURFACE('',#400,8.9);
#38=CYLINDRICAL_SURFACE('',#401,8.9);
#39=FACE_OUTER_BOUND('',#172,.T.);
#40=FACE_OUTER_BOUND('',#177,.T.);
#41=FACE_OUTER_BOUND('',#178,.T.);
#42=FACE_OUTER_BOUND('',#179,.T.);
#43=FACE_OUTER_BOUND('',#186,.T.);
#44=FACE_OUTER_BOUND('',#187,.T.);
#45=FACE_OUTER_BOUND('',#188,.T.);
#46=FACE_OUTER_BOUND('',#189,.T.);
#47=FACE_OUTER_BOUND('',#190,.T.);
#48=FACE_OUTER_BOUND('',#191,.T.);
#49=ADVANCED_FACE('',(#146,#147,#148),#67,.T.);
#50=ADVANCED_FACE('',(#39),#68,.F.);
#51=ADVANCED_FACE('',(#149,#150,#151,#152),#69,.T.);
#52=ADVANCED_FACE('',(#40),#70,.T.);
#53=ADVANCED_FACE('',(#41),#71,.T.);
#54=ADVANCED_FACE('',(#42),#72,.T.);
#55=ADVANCED_FACE('',(#153,#154,#155,#156,#157,#158),#73,.T.);
#56=ADVANCED_FACE('',(#43),#74,.T.);
#57=ADVANCED_FACE('',(#44),#75,.F.);
#58=ADVANCED_FACE('',(#45),#76,.F.);
#59=ADVANCED_FACE('',(#46),#77,.F.);
#60=ADVANCED_FACE('',(#47),#78,.F.);
#61=ADVANCED_FACE('',(#48),#79,.F.);
#62=ADVANCED_FACE('',(#159,#160),#34,.F.);
#63=ADVANCED_FACE('',(#161,#162),#35,.F.);
#64=ADVANCED_FACE('',(#163,#164),#36,.F.);
#65=ADVANCED_FACE('',(#165,#166),#37,.F.);
#66=ADVANCED_FACE('',(#167,#168),#38,.F.);
#67=PLANE('',#376);
#68=PLANE('',#377);
#69=PLANE('',#381);
#70=PLANE('',#382);
#71=PLANE('',#383);
#72=PLANE('',#384);
#73=PLANE('',#390);
#74=PLANE('',#391);
#75=PLANE('',#392);
#76=PLANE('',#393);
#77=PLANE('',#394);
#78=PLANE('',#395);
#79=PLANE('',#396);
#80=LINE('',#498,#113);
#81=LINE('',#501,#114);
#82=LINE('',#503,#115);
#83=LINE('',#505,#116);
#84=LINE('',#507,#117);
#85=LINE('',#509,#118);
#86=LINE('',#511,#119);
#87=LINE('',#519,#120);
#88=LINE('',#522,#121);
#89=LINE('',#524,#122);
#90=LINE('',#526,#123);
#91=LINE('',#528,#124);
#92=LINE('',#531,#125);
#93=LINE('',#533,#126);
#94=LINE('',#535,#127);
#95=LINE('',#537,#128);
#96=LINE('',#539,#129);
#97=LINE('',#541,#130);
#98=LINE('',#543,#131);
#99=LINE('',#545,#132);
#100=LINE('',#547,#133);
#101=LINE('',#548,#134);
#102=LINE('',#550,#135);
#103=LINE('',#551,#136);
#104=LINE('',#553,#137);
#105=LINE('',#565,#138);
#106=LINE('',#567,#139);
#107=LINE('',#569,#140);
#108=LINE('',#570,#141);
#109=LINE('',#572,#142);
#110=LINE('',#575,#143);
#111=LINE('',#577,#144);
#112=LINE('',#579,#145);
#113=VECTOR('',#408,1.);
#114=VECTOR('',#409,1.);
#115=VECTOR('',#410,1.);
#116=VECTOR('',#411,1.);
#117=VECTOR('',#414,1.);
#118=VECTOR('',#415,1.);
#119=VECTOR('',#416,1.);
#120=VECTOR('',#425,1.);
#121=VECTOR('',#426,1.);
#122=VECTOR('',#427,1.);
#123=VECTOR('',#428,1.);
#124=VECTOR('',#431,1.);
#125=VECTOR('',#432,1.);
#126=VECTOR('',#433,1.);
#127=VECTOR('',#434,1.);
#128=VECTOR('',#437,1.);
#129=VECTOR('',#438,1.);
#130=VECTOR('',#439,1.);
#131=VECTOR('',#440,1.);
#132=VECTOR('',#441,1.);
#133=VECTOR('',#442,1.);
#134=VECTOR('',#443,1.);
#135=VECTOR('',#446,1.);
#136=VECTOR('',#447,1.);
#137=VECTOR('',#448,1.);
#138=VECTOR('',#461,1.);
#139=VECTOR('',#464,1.);
#140=VECTOR('',#465,1.);
#141=VECTOR('',#466,1.);
#142=VECTOR('',#467,1.);
#143=VECTOR('',#472,1.);
#144=VECTOR('',#475,1.);
#145=VECTOR('',#478,1.);
#146=FACE_BOUND('',#169,.T.);
#147=FACE_BOUND('',#170,.T.);
#148=FACE_BOUND('',#171,.T.);
#149=FACE_BOUND('',#173,.T.);
#150=FACE_BOUND('',#174,.T.);
#151=FACE_BOUND('',#175,.T.);
#152=FACE_BOUND('',#176,.T.);
#153=FACE_BOUND('',#180,.T.);
#154=FACE_BOUND('',#181,.T.);
#155=FACE_BOUND('',#182,.T.);
#156=FACE_BOUND('',#183,.T.);
#157=FACE_BOUND('',#184,.T.);
#158=FACE_BOUND('',#185,.T.);
#159=FACE_BOUND('',#192,.T.);
#160=FACE_BOUND('',#193,.T.);
#161=FACE_BOUND('',#194,.T.);
#162=FACE_BOUND('',#195,.T.);
#163=FACE_BOUND('',#196,.T.);
#164=FACE_BOUND('',#197,.T.);
#165=FACE_BOUND('',#198,.T.);
#166=FACE_BOUND('',#199,.T.);
#167=FACE_BOUND('',#200,.T.);
#168=FACE_BOUND('',#201,.T.);
#169=EDGE_LOOP('',(#202));
#170=EDGE_LOOP('',(#203));
#171=EDGE_LOOP('',(#204,#205,#206,#207));
#172=EDGE_LOOP('',(#208,#209,#210,#211));
#173=EDGE_LOOP('',(#212));
#174=EDGE_LOOP('',(#213));
#175=EDGE_LOOP('',(#214));
#176=EDGE_LOOP('',(#215,#216,#217,#218));
#177=EDGE_LOOP('',(#219,#220,#221,#222));
#178=EDGE_LOOP('',(#223,#224,#225,#226,#227,#228,#229,#230,#231));
#179=EDGE_LOOP('',(#232,#233,#234,#235,#236));
#180=EDGE_LOOP('',(#237));
#181=EDGE_LOOP('',(#238));
#182=EDGE_LOOP('',(#239));
#183=EDGE_LOOP('',(#240));
#184=EDGE_LOOP('',(#241));
#185=EDGE_LOOP('',(#242,#243,#244,#245));
#186=EDGE_LOOP('',(#246,#247,#248,#249,#250,#251,#252,#253,#254));
#187=EDGE_LOOP('',(#255,#256,#257,#258,#259));
#188=EDGE_LOOP('',(#260,#261,#262,#263));
#189=EDGE_LOOP('',(#264,#265,#266,#267,#268));
#190=EDGE_LOOP('',(#269,#270,#271,#272,#273));
#191=EDGE_LOOP('',(#274,#275,#276,#277));
#192=EDGE_LOOP('',(#278));
#193=EDGE_LOOP('',(#279));
#194=EDGE_LOOP('',(#280));
#195=EDGE_LOOP('',(#281));
#196=EDGE_LOOP('',(#282));
#197=EDGE_LOOP('',(#283));
#198=EDGE_LOOP('',(#284));
#199=EDGE_LOOP('',(#285));
#200=EDGE_LOOP('',(#286));
#201=EDGE_LOOP('',(#287));
#202=ORIENTED_EDGE('',*,*,#320,.F.);
#203=ORIENTED_EDGE('',*,*,#321,.F.);
#204=ORIENTED_EDGE('',*,*,#322,.F.);
#205=ORIENTED_EDGE('',*,*,#323,.T.);
#206=ORIENTED_EDGE('',*,*,#324,.T.);
#207=ORIENTED_EDGE('',*,*,#325,.F.);
#208=ORIENTED_EDGE('',*,*,#326,.F.);
#209=ORIENTED_EDGE('',*,*,#327,.F.);
#210=ORIENTED_EDGE('',*,*,#328,.F.);
#211=ORIENTED_EDGE('',*,*,#323,.F.);
#212=ORIENTED_EDGE('',*,*,#329,.F.);
#213=ORIENTED_EDGE('',*,*,#330,.F.);
#214=ORIENTED_EDGE('',*,*,#331,.F.);
#215=ORIENTED_EDGE('',*,*,#332,.F.);
#216=ORIENTED_EDGE('',*,*,#333,.F.);
#217=ORIENTED_EDGE('',*,*,#334,.F.);
#218=ORIENTED_EDGE('',*,*,#335,.T.);
#219=ORIENTED_EDGE('',*,*,#336,.T.);
#220=ORIENTED_EDGE('',*,*,#337,.T.);
#221=ORIENTED_EDGE('',*,*,#338,.F.);
#222=ORIENTED_EDGE('',*,*,#339,.T.);
#223=ORIENTED_EDGE('',*,*,#340,.F.);
#224=ORIENTED_EDGE('',*,*,#341,.F.);
#225=ORIENTED_EDGE('',*,*,#342,.F.);
#226=ORIENTED_EDGE('',*,*,#343,.T.);
#227=ORIENTED_EDGE('',*,*,#344,.F.);
#228=ORIENTED_EDGE('',*,*,#345,.T.);
#229=ORIENTED_EDGE('',*,*,#338,.T.);
#230=ORIENTED_EDGE('',*,*,#346,.T.);
#231=ORIENTED_EDGE('',*,*,#327,.T.);
#232=ORIENTED_EDGE('',*,*,#344,.T.);
#233=ORIENTED_EDGE('',*,*,#347,.T.);
#234=ORIENTED_EDGE('',*,*,#334,.T.);
#235=ORIENTED_EDGE('',*,*,#348,.F.);
#236=ORIENTED_EDGE('',*,*,#349,.T.);
#237=ORIENTED_EDGE('',*,*,#350,.F.);
#238=ORIENTED_EDGE('',*,*,#351,.F.);
#239=ORIENTED_EDGE('',*,*,#352,.F.);
#240=ORIENTED_EDGE('',*,*,#353,.F.);
#241=ORIENTED_EDGE('',*,*,#354,.F.);
#242=ORIENTED_EDGE('',*,*,#355,.F.);
#243=ORIENTED_EDGE('',*,*,#339,.F.);
#244=ORIENTED_EDGE('',*,*,#345,.F.);
#245=ORIENTED_EDGE('',*,*,#349,.F.);
#246=ORIENTED_EDGE('',*,*,#356,.F.);
#247=ORIENTED_EDGE('',*,*,#325,.T.);
#248=ORIENTED_EDGE('',*,*,#357,.T.);
#249=ORIENTED_EDGE('',*,*,#336,.F.);
#250=ORIENTED_EDGE('',*,*,#355,.T.);
#251=ORIENTED_EDGE('',*,*,#348,.T.);
#252=ORIENTED_EDGE('',*,*,#333,.T.);
#253=ORIENTED_EDGE('',*,*,#358,.F.);
#254=ORIENTED_EDGE('',*,*,#359,.F.);
#255=ORIENTED_EDGE('',*,*,#324,.F.);
#256=ORIENTED_EDGE('',*,*,#328,.T.);
#257=ORIENTED_EDGE('',*,*,#346,.F.);
#258=ORIENTED_EDGE('',*,*,#337,.F.);
#259=ORIENTED_EDGE('',*,*,#357,.F.);
#260=ORIENTED_EDGE('',*,*,#360,.F.);
#261=ORIENTED_EDGE('',*,*,#335,.F.);
#262=ORIENTED_EDGE('',*,*,#347,.F.);
#263=ORIENTED_EDGE('',*,*,#343,.F.);
#264=ORIENTED_EDGE('',*,*,#356,.T.);
#265=ORIENTED_EDGE('',*,*,#361,.T.);
#266=ORIENTED_EDGE('',*,*,#340,.T.);
#267=ORIENTED_EDGE('',*,*,#326,.T.);
#268=ORIENTED_EDGE('',*,*,#322,.T.);
#269=ORIENTED_EDGE('',*,*,#358,.T.);
#270=ORIENTED_EDGE('',*,*,#332,.T.);
#271=ORIENTED_EDGE('',*,*,#360,.T.);
#272=ORIENTED_EDGE('',*,*,#342,.T.);
#273=ORIENTED_EDGE('',*,*,#362,.T.);
#274=ORIENTED_EDGE('',*,*,#341,.T.);
#275=ORIENTED_EDGE('',*,*,#361,.F.);
#276=ORIENTED_EDGE('',*,*,#359,.T.);
#277=ORIENTED_EDGE('',*,*,#362,.F.);
#278=ORIENTED_EDGE('',*,*,#321,.T.);
#279=ORIENTED_EDGE('',*,*,#354,.T.);
#280=ORIENTED_EDGE('',*,*,#320,.T.);
#281=ORIENTED_EDGE('',*,*,#353,.T.);
#282=ORIENTED_EDGE('',*,*,#331,.T.);
#283=ORIENTED_EDGE('',*,*,#352,.T.);
#284=ORIENTED_EDGE('',*,*,#330,.T.);
#285=ORIENTED_EDGE('',*,*,#351,.T.);
#286=ORIENTED_EDGE('',*,*,#329,.T.);
#287=ORIENTED_EDGE('',*,*,#350,.T.);
#288=VERTEX_POINT('',#495);
#289=VERTEX_POINT('',#497);
#290=VERTEX_POINT('',#499);
#291=VERTEX_POINT('',#500);
#292=VERTEX_POINT('',#502);
#293=VERTEX_POINT('',#504);
#294=VERTEX_POINT('',#508);
#295=VERTEX_POINT('',#510);
#296=VERTEX_POINT('',#514);
#297=VERTEX_POINT('',#516);
#298=VERTEX_POINT('',#518);
#299=VERTEX_POINT('',#520);
#300=VERTEX_POINT('',#521);
#301=VERTEX_POINT('',#523);
#302=VERTEX_POINT('',#525);
#303=VERTEX_POINT('',#529);
#304=VERTEX_POINT('',#530);
#305=VERTEX_POINT('',#532);
#306=VERTEX_POINT('',#534);
#307=VERTEX_POINT('',#538);
#308=VERTEX_POINT('',#540);
#309=VERTEX_POINT('',#542);
#310=VERTEX_POINT('',#544);
#311=VERTEX_POINT('',#546);
#312=VERTEX_POINT('',#552);
#313=VERTEX_POINT('',#556);
#314=VERTEX_POINT('',#558);
#315=VERTEX_POINT('',#560);
#316=VERTEX_POINT('',#562);
#317=VERTEX_POINT('',#564);
#318=VERTEX_POINT('',#568);
#319=VERTEX_POINT('',#571);
#320=EDGE_CURVE('',#288,#288,#363,.T.);
#321=EDGE_CURVE('',#289,#289,#364,.T.);
#322=EDGE_CURVE('',#290,#291,#80,.T.);
#323=EDGE_CURVE('',#290,#292,#81,.T.);
#324=EDGE_CURVE('',#292,#293,#82,.T.);
#325=EDGE_CURVE('',#291,#293,#83,.T.);
#326=EDGE_CURVE('',#294,#290,#84,.T.);
#327=EDGE_CURVE('',#295,#294,#85,.T.);
#328=EDGE_CURVE('',#292,#295,#86,.T.);
#329=EDGE_CURVE('',#296,#296,#365,.T.);
#330=EDGE_CURVE('',#297,#297,#366,.T.);
#331=EDGE_CURVE('',#298,#298,#367,.T.);
#332=EDGE_CURVE('',#299,#300,#87,.T.);
#333=EDGE_CURVE('',#301,#299,#88,.T.);
#334=EDGE_CURVE('',#302,#301,#89,.T.);
#335=EDGE_CURVE('',#302,#300,#90,.T.);
#336=EDGE_CURVE('',#303,#304,#91,.T.);
#337=EDGE_CURVE('',#304,#305,#92,.T.);
#338=EDGE_CURVE('',#306,#305,#93,.T.);
#339=EDGE_CURVE('',#306,#303,#94,.T.);
#340=EDGE_CURVE('',#307,#294,#95,.T.);
#341=EDGE_CURVE('',#308,#307,#96,.T.);
#342=EDGE_CURVE('',#309,#308,#97,.T.);
#343=EDGE_CURVE('',#309,#310,#98,.T.);
#344=EDGE_CURVE('',#311,#310,#99,.T.);
#345=EDGE_CURVE('',#311,#306,#100,.T.);
#346=EDGE_CURVE('',#305,#295,#101,.T.);
#347=EDGE_CURVE('',#310,#302,#102,.T.);
#348=EDGE_CURVE('',#312,#301,#103,.T.);
#349=EDGE_CURVE('',#312,#311,#104,.T.);
#350=EDGE_CURVE('',#313,#313,#368,.T.);
#351=EDGE_CURVE('',#314,#314,#369,.T.);
#352=EDGE_CURVE('',#315,#315,#370,.T.);
#353=EDGE_CURVE('',#316,#316,#371,.T.);
#354=EDGE_CURVE('',#317,#317,#372,.T.);
#355=EDGE_CURVE('',#303,#312,#105,.T.);
#356=EDGE_CURVE('',#291,#318,#106,.T.);
#357=EDGE_CURVE('',#293,#304,#107,.T.);
#358=EDGE_CURVE('',#319,#299,#108,.T.);
#359=EDGE_CURVE('',#318,#319,#109,.T.);
#360=EDGE_CURVE('',#300,#309,#110,.T.);
#361=EDGE_CURVE('',#318,#307,#111,.T.);
#362=EDGE_CURVE('',#308,#319,#112,.T.);
#363=CIRCLE('',#374,8.9);
#364=CIRCLE('',#375,8.9);
#365=CIRCLE('',#378,8.9);
#366=CIRCLE('',#379,8.9);
#367=CIRCLE('',#380,8.9);
#368=CIRCLE('',#385,8.9);
#369=CIRCLE('',#386,8.9);
#370=CIRCLE('',#387,8.9);
#371=CIRCLE('',#388,8.9);
#372=CIRCLE('',#389,8.9);
#373=AXIS2_PLACEMENT_3D('',#493,#402,#403);
#374=AXIS2_PLACEMENT_3D('',#494,#404,#405);
#375=AXIS2_PLACEMENT_3D('',#496,#406,#407);
#376=AXIS2_PLACEMENT_3D('',#506,#412,#413);
#377=AXIS2_PLACEMENT_3D('',#512,#417,#418);
#378=AXIS2_PLACEMENT_3D('',#513,#419,#420);
#379=AXIS2_PLACEMENT_3D('',#515,#421,#422);
#380=AXIS2_PLACEMENT_3D('',#517,#423,#424);
#381=AXIS2_PLACEMENT_3D('',#527,#429,#430);
#382=AXIS2_PLACEMENT_3D('',#536,#435,#436);
#383=AXIS2_PLACEMENT_3D('',#549,#444,#445);
#384=AXIS2_PLACEMENT_3D('',#554,#449,#450);
#385=AXIS2_PLACEMENT_3D('',#555,#451,#452);
#386=AXIS2_PLACEMENT_3D('',#557,#453,#454);
#387=AXIS2_PLACEMENT_3D('',#559,#455,#456);
#388=AXIS2_PLACEMENT_3D('',#561,#457,#458);
#389=AXIS2_PLACEMENT_3D('',#563,#459,#460);
#390=AXIS2_PLACEMENT_3D('',#566,#462,#463);
#391=AXIS2_PLACEMENT_3D('',#573,#468,#469);
#392=AXIS2_PLACEMENT_3D('',#574,#470,#471);
#393=AXIS2_PLACEMENT_3D('',#576,#473,#474);
#394=AXIS2_PLACEMENT_3D('',#578,#476,#477);
#395=AXIS2_PLACEMENT_3D('',#580,#479,#480);
#396=AXIS2_PLACEMENT_3D('',#581,#481,#482);
#397=AXIS2_PLACEMENT_3D('',#582,#483,#484);
#398=AXIS2_PLACEMENT_3D('',#583,#485,#486);
#399=AXIS2_PLACEMENT_3D('',#584,#487,#488);
#400=AXIS2_PLACEMENT_3D('',#585,#489,#490);
#401=AXIS2_PLACEMENT_3D('',#586,#491,#492);
#402=DIRECTION('',(0.,0.,1.));
#403=DIRECTION('',(1.,0.,0.));
#404=DIRECTION('',(0.,0.,1.));
#405=DIRECTION('',(0.999999999999999,0.,0.));
#406=DIRECTION('',(0.,0.,1.));
#407=DIRECTION('',(1.,0.,0.));
#408=DIRECTION('',(1.,0.,0.));
#409=DIRECTION('',(0.,-1.,0.));
#410=DIRECTION('',(1.,0.,0.));
#411=DIRECTION('',(0.,-1.,0.));
#412=DIRECTION('',(0.,0.,1.));
#413=DIRECTION('',(1.,0.,0.));
#414=DIRECTION('',(0.707106781186547,0.,0.707106781186548));
#415=DIRECTION('',(0.,1.,0.));
#416=DIRECTION('',(-0.577350269189625,-0.577350269189626,-0.577350269189626));
#417=DIRECTION('',(0.707106781186548,0.,-0.707106781186547));
#418=DIRECTION('',(0.,1.,0.));
#419=DIRECTION('',(0.,0.,1.));
#420=DIRECTION('',(1.,0.,0.));
#421=DIRECTION('',(0.,0.,1.));
#422=DIRECTION('',(0.999999999999999,0.,0.));
#423=DIRECTION('',(0.,0.,1.));
#424=DIRECTION('',(1.,0.,0.));
#425=DIRECTION('',(-1.,0.,0.));
#426=DIRECTION('',(0.,-1.,0.));
#427=DIRECTION('',(1.,0.,0.));
#428=DIRECTION('',(0.,-1.,0.));
#429=DIRECTION('',(0.,0.,1.));
#430=DIRECTION('',(1.,0.,0.));
#431=DIRECTION('',(0.,0.,1.));
#432=DIRECTION('',(-1.,0.,0.));
#433=DIRECTION('',(0.,0.,1.));
#434=DIRECTION('',(1.,0.,0.));
#435=DIRECTION('',(0.,-1.,0.));
#436=DIRECTION('',(0.,0.,-1.));
#437=DIRECTION('',(0.,0.,1.));
#438=DIRECTION('',(0.,-1.,0.));
#439=DIRECTION('',(0.,0.,-1.));
#440=DIRECTION('',(0.,1.,0.));
#441=DIRECTION('',(0.,0.,1.));
#442=DIRECTION('',(0.,-1.,0.));
#443=DIRECTION('',(0.,0.707106781186548,0.707106781186548));
#444=DIRECTION('',(-1.,0.,0.));
#445=DIRECTION('',(0.,0.,1.));
#446=DIRECTION('',(0.707106781186547,0.,0.707106781186548));
#447=DIRECTION('',(0.,0.,1.));
#448=DIRECTION('',(-1.,0.,0.));
#449=DIRECTION('',(0.,1.,0.));
#450=DIRECTION('',(0.,0.,1.));
#451=DIRECTION('',(0.,0.,-1.));
#452=DIRECTION('',(-1.,0.,0.));
#453=DIRECTION('',(0.,0.,-1.));
#454=DIRECTION('',(-0.999999999999999,0.,0.));
#455=DIRECTION('',(0.,0.,-1.));
#456=DIRECTION('',(-1.,0.,0.));
#457=DIRECTION('',(0.,0.,-1.));
#458=DIRECTION('',(-0.999999999999999,0.,0.));
#459=DIRECTION('',(0.,0.,-1.));
#460=DIRECTION('',(-1.,0.,0.));
#461=DIRECTION('',(0.,1.,0.));
#462=DIRECTION('',(0.,0.,-1.));
#463=DIRECTION('',(-1.,0.,0.));
#464=DIRECTION('',(0.,0.,-1.));
#465=DIRECTION('',(0.,-0.707106781186548,-0.707106781186548));
#466=DIRECTION('',(0.,0.,1.));
#467=DIRECTION('',(0.,1.,0.));
#468=DIRECTION('',(1.,0.,0.));
#469=DIRECTION('',(0.,0.,-1.));
#470=DIRECTION('',(0.,0.707106781186547,-0.707106781186547));
#471=DIRECTION('',(-1.,0.,0.));
#472=DIRECTION('',(-0.707106781186547,0.,-0.707106781186548));
#473=DIRECTION('',(0.707106781186548,0.,-0.707106781186547));
#474=DIRECTION('',(0.,1.,0.));
#475=DIRECTION('',(-1.,0.,0.));
#476=DIRECTION('',(0.,-1.,0.));
#477=DIRECTION('',(0.,0.,-1.));
#478=DIRECTION('',(1.,0.,0.));
#479=DIRECTION('',(0.,1.,0.));
#480=DIRECTION('',(0.,0.,1.));
#481=DIRECTION('',(0.,0.,-1.));
#482=DIRECTION('',(-1.,0.,0.));
#483=DIRECTION('',(0.,0.,-1.));
#484=DIRECTION('',(1.,0.,0.));
#485=DIRECTION('',(0.,0.,-1.));
#486=DIRECTION('',(0.999999999999999,0.,0.));
#487=DIRECTION('',(0.,0.,-1.));
#488=DIRECTION('',(1.,0.,0.));
#489=DIRECTION('',(0.,0.,-1.));
#490=DIRECTION('',(0.999999999999999,0.,0.));
#491=DIRECTION('',(0.,0.,-1.));
#492=DIRECTION('',(1.,0.,0.));
#493=CARTESIAN_POINT('',(0.,0.,0.));
#494=CARTESIAN_POINT('',(196.9,43.9,124.6));
#495=CARTESIAN_POINT('',(205.8,43.9,124.6));
#496=CARTESIAN_POINT('',(68.3,43.9,124.6));
#497=CARTESIAN_POINT('',(77.2,43.9,124.6));
#498=CARTESIAN_POINT('',(132.6,53.5,124.6));
#499=CARTESIAN_POINT('',(6.39999999999999,53.5,124.6));
#500=CARTESIAN_POINT('',(265.2,53.5,124.6));
#501=CARTESIAN_POINT('',(6.39999999999999,123.75,124.6));
#502=CARTESIAN_POINT('',(6.39999999999999,13.5,124.6));
#503=CARTESIAN_POINT('',(132.6,13.5,124.6));
#504=CARTESIAN_POINT('',(265.2,13.5,124.6));
#505=CARTESIAN_POINT('',(265.2,123.75,124.6));
#506=CARTESIAN_POINT('',(132.6,123.75,124.6));
#507=CARTESIAN_POINT('',(0.,53.5,118.2));
#508=CARTESIAN_POINT('',(0.,53.5,118.2));
#509=CARTESIAN_POINT('',(0.,123.75,118.2));
#510=CARTESIAN_POINT('',(0.,7.10000000000002,118.2));
#511=CARTESIAN_POINT('',(39.4666666666665,46.5666666666666,157.666666666667));
#512=CARTESIAN_POINT('',(0.,123.75,118.2));
#513=CARTESIAN_POINT('',(68.3,203.6,124.6));
#514=CARTESIAN_POINT('',(77.2,203.6,124.6));
#515=CARTESIAN_POINT('',(196.9,123.8,124.6));
#516=CARTESIAN_POINT('',(205.8,123.8,124.6));
#517=CARTESIAN_POINT('',(68.3,123.8,124.6));
#518=CARTESIAN_POINT('',(77.2,123.8,124.6));
#519=CARTESIAN_POINT('',(132.6,66.6,124.6));
#520=CARTESIAN_POINT('',(265.2,66.6,124.6));
#521=CARTESIAN_POINT('',(6.39999999999999,66.6,124.6));
#522=CARTESIAN_POINT('',(265.2,123.75,124.6));
#523=CARTESIAN_POINT('',(265.2,247.5,124.6));
#524=CARTESIAN_POINT('',(132.6,247.5,124.6));
#525=CARTESIAN_POINT('',(6.39999999999999,247.5,124.6));
#526=CARTESIAN_POINT('',(6.39999999999999,123.75,124.6));
#527=CARTESIAN_POINT('',(132.6,123.75,124.6));
#528=CARTESIAN_POINT('',(265.2,0.,0.));
#529=CARTESIAN_POINT('',(265.2,0.,0.));
#530=CARTESIAN_POINT('',(265.2,0.,111.1));
#531=CARTESIAN_POINT('',(132.6,0.,111.1));
#532=CARTESIAN_POINT('',(0.,0.,111.1));
#533=CARTESIAN_POINT('',(0.,0.,0.));
#534=CARTESIAN_POINT('',(0.,0.,0.));
#535=CARTESIAN_POINT('',(132.6,0.,0.));
#536=CARTESIAN_POINT('',(132.6,0.,0.));
#537=CARTESIAN_POINT('',(0.,53.5,0.));
#538=CARTESIAN_POINT('',(0.,53.5,111.1));
#539=CARTESIAN_POINT('',(0.,123.75,111.1));
#540=CARTESIAN_POINT('',(0.,66.6,111.1));
#541=CARTESIAN_POINT('',(0.,66.6,0.));
#542=CARTESIAN_POINT('',(0.,66.6,118.2));
#543=CARTESIAN_POINT('',(0.,123.75,118.2));
#544=CARTESIAN_POINT('',(0.,247.5,118.2));
#545=CARTESIAN_POINT('',(0.,247.5,0.));
#546=CARTESIAN_POINT('',(0.,247.5,0.));
#547=CARTESIAN_POINT('',(0.,123.75,0.));
#548=CARTESIAN_POINT('',(0.,6.32500000000001,117.425));
#549=CARTESIAN_POINT('',(0.,123.75,0.));
#550=CARTESIAN_POINT('',(7.19999999999985,247.5,125.4));
#551=CARTESIAN_POINT('',(265.2,247.5,0.));
#552=CARTESIAN_POINT('',(265.2,247.5,0.));
#553=CARTESIAN_POINT('',(132.6,247.5,0.));
#554=CARTESIAN_POINT('',(132.6,247.5,0.));
#555=CARTESIAN_POINT('',(68.3,203.6,0.));
#556=CARTESIAN_POINT('',(59.4,203.6,0.));
#557=CARTESIAN_POINT('',(196.9,123.8,0.));
#558=CARTESIAN_POINT('',(188.,123.8,0.));
#559=CARTESIAN_POINT('',(68.3,123.8,0.));
#560=CARTESIAN_POINT('',(59.4,123.8,0.));
#561=CARTESIAN_POINT('',(196.9,43.9,0.));
#562=CARTESIAN_POINT('',(188.,43.9,0.));
#563=CARTESIAN_POINT('',(68.3,43.9,0.));
#564=CARTESIAN_POINT('',(59.4,43.9,0.));
#565=CARTESIAN_POINT('',(265.2,123.75,0.));
#566=CARTESIAN_POINT('',(132.6,123.75,0.));
#567=CARTESIAN_POINT('',(265.2,53.5,0.));
#568=CARTESIAN_POINT('',(265.2,53.5,111.1));
#569=CARTESIAN_POINT('',(265.2,6.32500000000001,117.425));
#570=CARTESIAN_POINT('',(265.2,66.6,0.));
#571=CARTESIAN_POINT('',(265.2,66.6,111.1));
#572=CARTESIAN_POINT('',(265.2,123.75,111.1));
#573=CARTESIAN_POINT('',(265.2,123.75,0.));
#574=CARTESIAN_POINT('',(132.6,0.,111.1));
#575=CARTESIAN_POINT('',(0.,66.6,118.2));
#576=CARTESIAN_POINT('',(0.,123.75,118.2));
#577=CARTESIAN_POINT('',(132.6,53.5,111.1));
#578=CARTESIAN_POINT('',(132.6,53.5,111.1));
#579=CARTESIAN_POINT('',(132.6,66.6,111.1));
#580=CARTESIAN_POINT('',(132.6,66.6,111.1));
#581=CARTESIAN_POINT('',(132.6,60.05,111.1));
#582=CARTESIAN_POINT('',(68.3,43.9,124.65));
#583=CARTESIAN_POINT('',(196.9,43.9,124.65));
#584=CARTESIAN_POINT('',(68.3,123.8,124.65));
#585=CARTESIAN_POINT('',(196.9,123.8,124.65));
#586=CARTESIAN_POINT('',(68.3,203.6,124.65));
#587=MECHANICAL_DESIGN_GEOMETRIC_PRESENTATION_REPRESENTATION('',(#24),#588);
#588=(
GEOMETRIC_REPRESENTATION_CONTEXT(3)
GLOBAL_UNCERTAINTY_ASSIGNED_CONTEXT((#589))
GLOBAL_UNIT_ASSIGNED_CONTEXT((#595,#591,#590))
REPRESENTATION_CONTEXT('featured_part_08817','TOP_LEVEL_ASSEMBLY_PART')
);
#589=UNCERTAINTY_MEASURE_WITH_UNIT(LENGTH_MEASURE(2.E-5),#595,
'DISTANCE_ACCURACY_VALUE','Maximum Tolerance applied to model');
#590=(
NAMED_UNIT(*)
SI_UNIT($,.STERADIAN.)
SOLID_ANGLE_UNIT()
);
#591=(
CONVERSION_BASED_UNIT('DEGREE',#593)
NAMED_UNIT(#592)
PLANE_ANGLE_UNIT()
);
#592=DIMENSIONAL_EXPONENTS(0.,0.,0.,0.,0.,0.,0.);
#593=PLANE_ANGLE_MEASURE_WITH_UNIT(PLANE_ANGLE_MEASURE(0.0174532925),#594);
#594=(
NAMED_UNIT(*)
PLANE_ANGLE_UNIT()
SI_UNIT($,.RADIAN.)
);
#595=(
LENGTH_UNIT()
NAMED_UNIT(*)
SI_UNIT(.MILLI.,.METRE.)
);
ENDSEC;
END-ISO-10303-21;
