ISO-10303-21;
HEADER;
/* Generated by software containing ST-Developer
 * from STEP Tools, Inc. (www.steptools.com) 
 */
/* OPTION: using custom schema-name function */

FILE_DESCRIPTION(
/* description */ (''),
/* implementation_level */ '2;1');

FILE_NAME(
/* name */ 'featured_part_08171.stp',
/* time_stamp */ '2026-07-15T02:41:37-04:00',
/* author */ (''),
/* organization */ (''),
/* preprocessor_version */ 'ST-DEVELOPER v20.1',
/* originating_system */ 'SIEMENS PLM Software NX2512.6002',
/* authorisation */ '');

FILE_SCHEMA (('AUTOMOTIVE_DESIGN { 1 0 10303 214 3 1 1 1 }'));
ENDSEC;

DATA;
#10=SHAPE_REPRESENTATION_RELATIONSHIP('None',
'relationship between featured_part_08171-None and featured_part_08171
-None',#22,#11);
#11=ADVANCED_BREP_SHAPE_REPRESENTATION('featured_part_08171-None',(#32),
#494);
#12=SHAPE_DEFINITION_REPRESENTATION(#13,#22);
#13=PRODUCT_DEFINITION_SHAPE('','',#14);
#14=PRODUCT_DEFINITION(' ','',#16,#15);
#15=PRODUCT_DEFINITION_CONTEXT('part definition',#21,'design');
#16=PRODUCT_DEFINITION_FORMATION_WITH_SPECIFIED_SOURCE(' ',' ',#18,
 .NOT_KNOWN.);
#17=PRODUCT_RELATED_PRODUCT_CATEGORY('part','',(#18));
#18=PRODUCT('featured_part_08171','featured_part_08171',' ',(#19));
#19=PRODUCT_CONTEXT(' ',#21,'mechanical');
#20=APPLICATION_PROTOCOL_DEFINITION('international standard',
'automotive_design',2010,#21);
#21=APPLICATION_CONTEXT(
'core data for automotive mechanical design processes');
#22=SHAPE_REPRESENTATION('featured_part_08171-None',(#313),#494);
#23=PRESENTATION_LAYER_ASSIGNMENT('1','Layer 1',(#32));
#24=STYLED_ITEM('',(#25),#32);
#25=PRESENTATION_STYLE_ASSIGNMENT((#26));
#26=SURFACE_STYLE_USAGE(.BOTH.,#27);
#27=SURFACE_SIDE_STYLE('',(#28));
#28=SURFACE_STYLE_FILL_AREA(#29);
#29=FILL_AREA_STYLE('',(#30));
#30=FILL_AREA_STYLE_COLOUR('',#31);
#31=COLOUR_RGB('medium steel',0.611764705882353,0.658823529411765,0.670588235294118);
#32=MANIFOLD_SOLID_BREP('',#33);
#33=CLOSED_SHELL('',(#49,#50,#51,#52,#53,#54,#55,#56,#57,#58,#59,#60,#61,
#62,#63,#64));
#34=CYLINDRICAL_SURFACE('',#331,10.9);
#35=CYLINDRICAL_SURFACE('',#334,7.05);
#36=CYLINDRICAL_SURFACE('',#335,14.75);
#37=FACE_OUTER_BOUND('',#152,.T.);
#38=FACE_OUTER_BOUND('',#153,.T.);
#39=FACE_OUTER_BOUND('',#154,.T.);
#40=FACE_OUTER_BOUND('',#157,.T.);
#41=FACE_OUTER_BOUND('',#158,.T.);
#42=FACE_OUTER_BOUND('',#159,.T.);
#43=FACE_OUTER_BOUND('',#160,.T.);
#44=FACE_OUTER_BOUND('',#161,.T.);
#45=FACE_OUTER_BOUND('',#162,.T.);
#46=FACE_OUTER_BOUND('',#163,.T.);
#47=FACE_OUTER_BOUND('',#164,.T.);
#48=FACE_OUTER_BOUND('',#165,.T.);
#49=ADVANCED_FACE('',(#140,#141,#142),#65,.T.);
#50=ADVANCED_FACE('',(#37),#66,.T.);
#51=ADVANCED_FACE('',(#38),#67,.T.);
#52=ADVANCED_FACE('',(#39),#68,.T.);
#53=ADVANCED_FACE('',(#143,#144),#69,.T.);
#54=ADVANCED_FACE('',(#40),#70,.T.);
#55=ADVANCED_FACE('',(#41),#71,.F.);
#56=ADVANCED_FACE('',(#42),#72,.F.);
#57=ADVANCED_FACE('',(#43),#73,.F.);
#58=ADVANCED_FACE('',(#44),#74,.F.);
#59=ADVANCED_FACE('',(#45),#75,.F.);
#60=ADVANCED_FACE('',(#46),#76,.F.);
#61=ADVANCED_FACE('',(#47),#34,.F.);
#62=ADVANCED_FACE('',(#48),#77,.F.);
#63=ADVANCED_FACE('',(#145,#146),#35,.F.);
#64=ADVANCED_FACE('',(#147,#148),#36,.F.);
#65=PLANE('',#317);
#66=PLANE('',#318);
#67=PLANE('',#319);
#68=PLANE('',#320);
#69=PLANE('',#322);
#70=PLANE('',#323);
#71=PLANE('',#324);
#72=PLANE('',#325);
#73=PLANE('',#326);
#74=PLANE('',#327);
#75=PLANE('',#328);
#76=PLANE('',#330);
#77=PLANE('',#333);
#78=LINE('',#418,#109);
#79=LINE('',#423,#110);
#80=LINE('',#425,#111);
#81=LINE('',#427,#112);
#82=LINE('',#429,#113);
#83=LINE('',#431,#114);
#84=LINE('',#433,#115);
#85=LINE('',#436,#116);
#86=LINE('',#438,#117);
#87=LINE('',#440,#118);
#88=LINE('',#442,#119);
#89=LINE('',#444,#120);
#90=LINE('',#446,#121);
#91=LINE('',#448,#122);
#92=LINE('',#450,#123);
#93=LINE('',#452,#124);
#94=LINE('',#454,#125);
#95=LINE('',#456,#126);
#96=LINE('',#458,#127);
#97=LINE('',#459,#128);
#98=LINE('',#463,#129);
#99=LINE('',#465,#130);
#100=LINE('',#468,#131);
#101=LINE('',#469,#132);
#102=LINE('',#471,#133);
#103=LINE('',#472,#134);
#104=LINE('',#474,#135);
#105=LINE('',#477,#136);
#106=LINE('',#479,#137);
#107=LINE('',#481,#138);
#108=LINE('',#483,#139);
#109=VECTOR('',#342,1.);
#110=VECTOR('',#345,1.);
#111=VECTOR('',#346,1.);
#112=VECTOR('',#347,1.);
#113=VECTOR('',#348,1.);
#114=VECTOR('',#349,1.);
#115=VECTOR('',#352,1.);
#116=VECTOR('',#353,1.);
#117=VECTOR('',#354,1.);
#118=VECTOR('',#355,1.);
#119=VECTOR('',#356,1.);
#120=VECTOR('',#359,1.);
#121=VECTOR('',#360,1.);
#122=VECTOR('',#361,1.);
#123=VECTOR('',#362,1.);
#124=VECTOR('',#365,1.);
#125=VECTOR('',#366,1.);
#126=VECTOR('',#367,1.);
#127=VECTOR('',#368,1.);
#128=VECTOR('',#369,1.);
#129=VECTOR('',#374,1.);
#130=VECTOR('',#377,1.);
#131=VECTOR('',#378,1.);
#132=VECTOR('',#379,1.);
#133=VECTOR('',#382,1.);
#134=VECTOR('',#383,1.);
#135=VECTOR('',#386,1.);
#136=VECTOR('',#391,1.);
#137=VECTOR('',#392,1.);
#138=VECTOR('',#395,1.);
#139=VECTOR('',#396,1.);
#140=FACE_BOUND('',#149,.T.);
#141=FACE_BOUND('',#150,.T.);
#142=FACE_BOUND('',#151,.T.);
#143=FACE_BOUND('',#155,.T.);
#144=FACE_BOUND('',#156,.T.);
#145=FACE_BOUND('',#166,.T.);
#146=FACE_BOUND('',#167,.T.);
#147=FACE_BOUND('',#168,.T.);
#148=FACE_BOUND('',#169,.T.);
#149=EDGE_LOOP('',(#170));
#150=EDGE_LOOP('',(#171));
#151=EDGE_LOOP('',(#172,#173,#174,#175,#176,#177,#178));
#152=EDGE_LOOP('',(#179,#180,#181,#182,#183));
#153=EDGE_LOOP('',(#184,#185,#186,#187,#188));
#154=EDGE_LOOP('',(#189,#190,#191,#192,#193,#194,#195));
#155=EDGE_LOOP('',(#196));
#156=EDGE_LOOP('',(#197,#198,#199,#200));
#157=EDGE_LOOP('',(#201,#202,#203,#204,#205,#206));
#158=EDGE_LOOP('',(#207,#208,#209,#210,#211));
#159=EDGE_LOOP('',(#212,#213,#214,#215,#216));
#160=EDGE_LOOP('',(#217,#218,#219,#220));
#161=EDGE_LOOP('',(#221,#222,#223,#224,#225));
#162=EDGE_LOOP('',(#226,#227,#228,#229));
#163=EDGE_LOOP('',(#230,#231,#232,#233,#234));
#164=EDGE_LOOP('',(#235,#236,#237,#238));
#165=EDGE_LOOP('',(#239));
#166=EDGE_LOOP('',(#240));
#167=EDGE_LOOP('',(#241));
#168=EDGE_LOOP('',(#242));
#169=EDGE_LOOP('',(#243));
#170=ORIENTED_EDGE('',*,*,#270,.F.);
#171=ORIENTED_EDGE('',*,*,#271,.F.);
#172=ORIENTED_EDGE('',*,*,#272,.F.);
#173=ORIENTED_EDGE('',*,*,#273,.T.);
#174=ORIENTED_EDGE('',*,*,#274,.F.);
#175=ORIENTED_EDGE('',*,*,#275,.F.);
#176=ORIENTED_EDGE('',*,*,#276,.T.);
#177=ORIENTED_EDGE('',*,*,#277,.T.);
#178=ORIENTED_EDGE('',*,*,#278,.T.);
#179=ORIENTED_EDGE('',*,*,#279,.T.);
#180=ORIENTED_EDGE('',*,*,#280,.T.);
#181=ORIENTED_EDGE('',*,*,#281,.T.);
#182=ORIENTED_EDGE('',*,*,#282,.F.);
#183=ORIENTED_EDGE('',*,*,#283,.T.);
#184=ORIENTED_EDGE('',*,*,#284,.T.);
#185=ORIENTED_EDGE('',*,*,#285,.T.);
#186=ORIENTED_EDGE('',*,*,#286,.F.);
#187=ORIENTED_EDGE('',*,*,#287,.T.);
#188=ORIENTED_EDGE('',*,*,#282,.T.);
#189=ORIENTED_EDGE('',*,*,#288,.F.);
#190=ORIENTED_EDGE('',*,*,#289,.F.);
#191=ORIENTED_EDGE('',*,*,#290,.F.);
#192=ORIENTED_EDGE('',*,*,#291,.T.);
#193=ORIENTED_EDGE('',*,*,#286,.T.);
#194=ORIENTED_EDGE('',*,*,#292,.T.);
#195=ORIENTED_EDGE('',*,*,#275,.T.);
#196=ORIENTED_EDGE('',*,*,#293,.F.);
#197=ORIENTED_EDGE('',*,*,#294,.F.);
#198=ORIENTED_EDGE('',*,*,#283,.F.);
#199=ORIENTED_EDGE('',*,*,#287,.F.);
#200=ORIENTED_EDGE('',*,*,#291,.F.);
#201=ORIENTED_EDGE('',*,*,#295,.T.);
#202=ORIENTED_EDGE('',*,*,#296,.T.);
#203=ORIENTED_EDGE('',*,*,#279,.F.);
#204=ORIENTED_EDGE('',*,*,#294,.T.);
#205=ORIENTED_EDGE('',*,*,#290,.T.);
#206=ORIENTED_EDGE('',*,*,#297,.F.);
#207=ORIENTED_EDGE('',*,*,#277,.F.);
#208=ORIENTED_EDGE('',*,*,#298,.T.);
#209=ORIENTED_EDGE('',*,*,#284,.F.);
#210=ORIENTED_EDGE('',*,*,#281,.F.);
#211=ORIENTED_EDGE('',*,*,#299,.T.);
#212=ORIENTED_EDGE('',*,*,#300,.F.);
#213=ORIENTED_EDGE('',*,*,#278,.F.);
#214=ORIENTED_EDGE('',*,*,#299,.F.);
#215=ORIENTED_EDGE('',*,*,#280,.F.);
#216=ORIENTED_EDGE('',*,*,#296,.F.);
#217=ORIENTED_EDGE('',*,*,#298,.F.);
#218=ORIENTED_EDGE('',*,*,#276,.F.);
#219=ORIENTED_EDGE('',*,*,#292,.F.);
#220=ORIENTED_EDGE('',*,*,#285,.F.);
#221=ORIENTED_EDGE('',*,*,#301,.T.);
#222=ORIENTED_EDGE('',*,*,#302,.T.);
#223=ORIENTED_EDGE('',*,*,#272,.T.);
#224=ORIENTED_EDGE('',*,*,#300,.T.);
#225=ORIENTED_EDGE('',*,*,#295,.F.);
#226=ORIENTED_EDGE('',*,*,#274,.T.);
#227=ORIENTED_EDGE('',*,*,#303,.T.);
#228=ORIENTED_EDGE('',*,*,#304,.T.);
#229=ORIENTED_EDGE('',*,*,#288,.T.);
#230=ORIENTED_EDGE('',*,*,#304,.F.);
#231=ORIENTED_EDGE('',*,*,#305,.T.);
#232=ORIENTED_EDGE('',*,*,#301,.F.);
#233=ORIENTED_EDGE('',*,*,#297,.T.);
#234=ORIENTED_EDGE('',*,*,#289,.T.);
#235=ORIENTED_EDGE('',*,*,#273,.F.);
#236=ORIENTED_EDGE('',*,*,#302,.F.);
#237=ORIENTED_EDGE('',*,*,#305,.F.);
#238=ORIENTED_EDGE('',*,*,#303,.F.);
#239=ORIENTED_EDGE('',*,*,#306,.F.);
#240=ORIENTED_EDGE('',*,*,#271,.T.);
#241=ORIENTED_EDGE('',*,*,#306,.T.);
#242=ORIENTED_EDGE('',*,*,#270,.T.);
#243=ORIENTED_EDGE('',*,*,#293,.T.);
#244=VERTEX_POINT('',#415);
#245=VERTEX_POINT('',#417);
#246=VERTEX_POINT('',#419);
#247=VERTEX_POINT('',#420);
#248=VERTEX_POINT('',#422);
#249=VERTEX_POINT('',#424);
#250=VERTEX_POINT('',#426);
#251=VERTEX_POINT('',#428);
#252=VERTEX_POINT('',#430);
#253=VERTEX_POINT('',#434);
#254=VERTEX_POINT('',#435);
#255=VERTEX_POINT('',#437);
#256=VERTEX_POINT('',#439);
#257=VERTEX_POINT('',#441);
#258=VERTEX_POINT('',#445);
#259=VERTEX_POINT('',#447);
#260=VERTEX_POINT('',#449);
#261=VERTEX_POINT('',#453);
#262=VERTEX_POINT('',#455);
#263=VERTEX_POINT('',#457);
#264=VERTEX_POINT('',#462);
#265=VERTEX_POINT('',#466);
#266=VERTEX_POINT('',#467);
#267=VERTEX_POINT('',#478);
#268=VERTEX_POINT('',#482);
#269=VERTEX_POINT('',#489);
#270=EDGE_CURVE('',#244,#244,#307,.T.);
#271=EDGE_CURVE('',#245,#245,#308,.T.);
#272=EDGE_CURVE('',#246,#247,#78,.T.);
#273=EDGE_CURVE('',#246,#248,#309,.T.);
#274=EDGE_CURVE('',#249,#248,#79,.T.);
#275=EDGE_CURVE('',#250,#249,#80,.T.);
#276=EDGE_CURVE('',#250,#251,#81,.T.);
#277=EDGE_CURVE('',#251,#252,#82,.T.);
#278=EDGE_CURVE('',#252,#247,#83,.T.);
#279=EDGE_CURVE('',#253,#254,#84,.T.);
#280=EDGE_CURVE('',#254,#255,#85,.T.);
#281=EDGE_CURVE('',#255,#256,#86,.T.);
#282=EDGE_CURVE('',#257,#256,#87,.T.);
#283=EDGE_CURVE('',#257,#253,#88,.T.);
#284=EDGE_CURVE('',#256,#258,#89,.T.);
#285=EDGE_CURVE('',#258,#259,#90,.T.);
#286=EDGE_CURVE('',#260,#259,#91,.T.);
#287=EDGE_CURVE('',#260,#257,#92,.T.);
#288=EDGE_CURVE('',#261,#249,#93,.T.);
#289=EDGE_CURVE('',#262,#261,#94,.T.);
#290=EDGE_CURVE('',#263,#262,#95,.T.);
#291=EDGE_CURVE('',#263,#260,#96,.T.);
#292=EDGE_CURVE('',#259,#250,#97,.T.);
#293=EDGE_CURVE('',#264,#264,#310,.T.);
#294=EDGE_CURVE('',#253,#263,#98,.T.);
#295=EDGE_CURVE('',#265,#266,#99,.T.);
#296=EDGE_CURVE('',#266,#254,#100,.T.);
#297=EDGE_CURVE('',#265,#262,#101,.T.);
#298=EDGE_CURVE('',#251,#258,#102,.T.);
#299=EDGE_CURVE('',#255,#252,#103,.T.);
#300=EDGE_CURVE('',#247,#266,#104,.T.);
#301=EDGE_CURVE('',#265,#267,#105,.T.);
#302=EDGE_CURVE('',#267,#246,#106,.T.);
#303=EDGE_CURVE('',#248,#268,#107,.T.);
#304=EDGE_CURVE('',#268,#261,#108,.T.);
#305=EDGE_CURVE('',#268,#267,#311,.T.);
#306=EDGE_CURVE('',#269,#269,#312,.T.);
#307=CIRCLE('',#314,14.75);
#308=CIRCLE('',#315,7.05);
#309=CIRCLE('',#316,10.9);
#310=CIRCLE('',#321,14.75);
#311=CIRCLE('',#329,10.9);
#312=CIRCLE('',#332,7.05);
#313=AXIS2_PLACEMENT_3D('',#413,#336,#337);
#314=AXIS2_PLACEMENT_3D('',#414,#338,#339);
#315=AXIS2_PLACEMENT_3D('',#416,#340,#341);
#316=AXIS2_PLACEMENT_3D('',#421,#343,#344);
#317=AXIS2_PLACEMENT_3D('',#432,#350,#351);
#318=AXIS2_PLACEMENT_3D('',#443,#357,#358);
#319=AXIS2_PLACEMENT_3D('',#451,#363,#364);
#320=AXIS2_PLACEMENT_3D('',#460,#370,#371);
#321=AXIS2_PLACEMENT_3D('',#461,#372,#373);
#322=AXIS2_PLACEMENT_3D('',#464,#375,#376);
#323=AXIS2_PLACEMENT_3D('',#470,#380,#381);
#324=AXIS2_PLACEMENT_3D('',#473,#384,#385);
#325=AXIS2_PLACEMENT_3D('',#475,#387,#388);
#326=AXIS2_PLACEMENT_3D('',#476,#389,#390);
#327=AXIS2_PLACEMENT_3D('',#480,#393,#394);
#328=AXIS2_PLACEMENT_3D('',#484,#397,#398);
#329=AXIS2_PLACEMENT_3D('',#485,#399,#400);
#330=AXIS2_PLACEMENT_3D('',#486,#401,#402);
#331=AXIS2_PLACEMENT_3D('',#487,#403,#404);
#332=AXIS2_PLACEMENT_3D('',#488,#405,#406);
#333=AXIS2_PLACEMENT_3D('',#490,#407,#408);
#334=AXIS2_PLACEMENT_3D('',#491,#409,#410);
#335=AXIS2_PLACEMENT_3D('',#492,#411,#412);
#336=DIRECTION('',(0.,0.,1.));
#337=DIRECTION('',(1.,0.,0.));
#338=DIRECTION('',(0.,0.,1.));
#339=DIRECTION('',(1.,0.,0.));
#340=DIRECTION('',(0.,0.,1.));
#341=DIRECTION('',(1.,0.,0.));
#342=DIRECTION('',(1.,0.,0.));
#343=DIRECTION('',(0.,0.,-1.));
#344=DIRECTION('',(0.999999999999999,0.,0.));
#345=DIRECTION('',(0.,-1.,0.));
#346=DIRECTION('',(1.,0.,0.));
#347=DIRECTION('',(0.,-1.,0.));
#348=DIRECTION('',(1.,0.,0.));
#349=DIRECTION('',(0.,1.,0.));
#350=DIRECTION('',(0.,0.,1.));
#351=DIRECTION('',(1.,0.,0.));
#352=DIRECTION('',(0.,0.,1.));
#353=DIRECTION('',(-0.707106781186548,0.,0.707106781186548));
#354=DIRECTION('',(-1.,0.,0.));
#355=DIRECTION('',(0.,0.,1.));
#356=DIRECTION('',(1.,0.,0.));
#357=DIRECTION('',(0.,-1.,0.));
#358=DIRECTION('',(0.,0.,-1.));
#359=DIRECTION('',(0.,0.707106781186548,0.707106781186548));
#360=DIRECTION('',(0.,1.,0.));
#361=DIRECTION('',(0.,0.,1.));
#362=DIRECTION('',(0.,-1.,0.));
#363=DIRECTION('',(-1.,0.,0.));
#364=DIRECTION('',(0.,0.,1.));
#365=DIRECTION('',(0.,0.,1.));
#366=DIRECTION('',(-1.,0.,0.));
#367=DIRECTION('',(0.,0.,1.));
#368=DIRECTION('',(-1.,0.,0.));
#369=DIRECTION('',(0.707106781186547,0.,0.707106781186548));
#370=DIRECTION('',(0.,1.,0.));
#371=DIRECTION('',(0.,0.,1.));
#372=DIRECTION('',(0.,0.,-1.));
#373=DIRECTION('',(-1.,0.,0.));
#374=DIRECTION('',(0.,1.,0.));
#375=DIRECTION('',(0.,0.,-1.));
#376=DIRECTION('',(-1.,0.,0.));
#377=DIRECTION('',(0.,0.,1.));
#378=DIRECTION('',(0.,-1.,0.));
#379=DIRECTION('',(0.,1.,0.));
#380=DIRECTION('',(1.,0.,0.));
#381=DIRECTION('',(0.,0.,-1.));
#382=DIRECTION('',(-0.577350269189625,-0.577350269189626,-0.577350269189626));
#383=DIRECTION('',(-0.577350269189626,0.577350269189626,0.577350269189626));
#384=DIRECTION('',(0.,0.707106781186547,-0.707106781186547));
#385=DIRECTION('',(-1.,0.,0.));
#386=DIRECTION('',(0.707106781186548,0.,-0.707106781186548));
#387=DIRECTION('',(-0.707106781186547,0.,-0.707106781186547));
#388=DIRECTION('',(0.,-1.,0.));
#389=DIRECTION('',(0.707106781186548,0.,-0.707106781186547));
#390=DIRECTION('',(0.,1.,0.));
#391=DIRECTION('',(-1.,0.,0.));
#392=DIRECTION('',(0.,0.,1.));
#393=DIRECTION('',(0.,-1.,0.));
#394=DIRECTION('',(0.,0.,-1.));
#395=DIRECTION('',(0.,0.,-1.));
#396=DIRECTION('',(0.,1.,0.));
#397=DIRECTION('',(-1.,0.,0.));
#398=DIRECTION('',(0.,0.,1.));
#399=DIRECTION('',(0.,0.,1.));
#400=DIRECTION('',(-0.999999999999999,0.,0.));
#401=DIRECTION('',(0.,0.,-1.));
#402=DIRECTION('',(-1.,0.,0.));
#403=DIRECTION('',(0.,0.,1.));
#404=DIRECTION('',(0.999999999999999,0.,0.));
#405=DIRECTION('',(0.,0.,-1.));
#406=DIRECTION('',(1.,0.,0.));
#407=DIRECTION('',(0.,0.,-1.));
#408=DIRECTION('',(-1.,0.,0.));
#409=DIRECTION('',(0.,0.,-1.));
#410=DIRECTION('',(1.,0.,0.));
#411=DIRECTION('',(0.,0.,-1.));
#412=DIRECTION('',(1.,0.,0.));
#413=CARTESIAN_POINT('',(0.,0.,0.));
#414=CARTESIAN_POINT('',(207.8,75.2,136.7));
#415=CARTESIAN_POINT('',(222.55,75.2,136.7));
#416=CARTESIAN_POINT('',(41.8,101.3,136.7));
#417=CARTESIAN_POINT('',(48.85,101.3,136.7));
#418=CARTESIAN_POINT('',(120.5,235.7,136.7));
#419=CARTESIAN_POINT('',(183.3,235.7,136.7));
#420=CARTESIAN_POINT('',(227.1,235.7,136.7));
#421=CARTESIAN_POINT('',(183.3,246.6,136.7));
#422=CARTESIAN_POINT('',(172.4,246.6,136.7));
#423=CARTESIAN_POINT('',(172.4,139.7,136.7));
#424=CARTESIAN_POINT('',(172.4,279.4,136.7));
#425=CARTESIAN_POINT('',(120.5,279.4,136.7));
#426=CARTESIAN_POINT('',(10.5,279.4,136.7));
#427=CARTESIAN_POINT('',(10.5,139.7,136.7));
#428=CARTESIAN_POINT('',(10.5,11.5,136.7));
#429=CARTESIAN_POINT('',(120.5,11.5,136.7));
#430=CARTESIAN_POINT('',(227.1,11.5,136.7));
#431=CARTESIAN_POINT('',(227.1,139.7,136.7));
#432=CARTESIAN_POINT('',(120.5,139.7,136.7));
#433=CARTESIAN_POINT('',(241.,0.,0.));
#434=CARTESIAN_POINT('',(241.,0.,0.));
#435=CARTESIAN_POINT('',(241.,0.,122.8));
#436=CARTESIAN_POINT('',(242.15,0.,121.65));
#437=CARTESIAN_POINT('',(238.6,0.,125.2));
#438=CARTESIAN_POINT('',(120.5,0.,125.2));
#439=CARTESIAN_POINT('',(0.,0.,125.2));
#440=CARTESIAN_POINT('',(0.,0.,0.));
#441=CARTESIAN_POINT('',(0.,0.,0.));
#442=CARTESIAN_POINT('',(120.5,0.,0.));
#443=CARTESIAN_POINT('',(120.5,0.,0.));
#444=CARTESIAN_POINT('',(0.,7.25000000000001,132.45));
#445=CARTESIAN_POINT('',(0.,1.,126.2));
#446=CARTESIAN_POINT('',(0.,139.7,126.2));
#447=CARTESIAN_POINT('',(0.,279.4,126.2));
#448=CARTESIAN_POINT('',(0.,279.4,0.));
#449=CARTESIAN_POINT('',(0.,279.4,0.));
#450=CARTESIAN_POINT('',(0.,139.7,0.));
#451=CARTESIAN_POINT('',(0.,139.7,0.));
#452=CARTESIAN_POINT('',(172.4,279.4,118.9));
#453=CARTESIAN_POINT('',(172.4,279.4,118.9));
#454=CARTESIAN_POINT('',(206.7,279.4,118.9));
#455=CARTESIAN_POINT('',(241.,279.4,118.9));
#456=CARTESIAN_POINT('',(241.,279.4,0.));
#457=CARTESIAN_POINT('',(241.,279.4,0.));
#458=CARTESIAN_POINT('',(120.5,279.4,0.));
#459=CARTESIAN_POINT('',(-2.85000000000009,279.4,123.35));
#460=CARTESIAN_POINT('',(120.5,279.4,0.));
#461=CARTESIAN_POINT('',(207.8,75.2,0.));
#462=CARTESIAN_POINT('',(193.05,75.2,0.));
#463=CARTESIAN_POINT('',(241.,139.7,0.));
#464=CARTESIAN_POINT('',(120.5,139.7,0.));
#465=CARTESIAN_POINT('',(241.,235.7,118.9));
#466=CARTESIAN_POINT('',(241.,235.7,118.9));
#467=CARTESIAN_POINT('',(241.,235.7,122.8));
#468=CARTESIAN_POINT('',(241.,139.7,122.8));
#469=CARTESIAN_POINT('',(241.,257.55,118.9));
#470=CARTESIAN_POINT('',(241.,139.7,0.));
#471=CARTESIAN_POINT('',(39.4999999999999,40.5,165.7));
#472=CARTESIAN_POINT('',(199.233333333333,39.3666666666667,164.566666666667));
#473=CARTESIAN_POINT('',(120.5,0.,125.2));
#474=CARTESIAN_POINT('',(241.,235.7,122.8));
#475=CARTESIAN_POINT('',(241.,139.7,122.8));
#476=CARTESIAN_POINT('',(0.,139.7,126.2));
#477=CARTESIAN_POINT('',(206.7,235.7,118.9));
#478=CARTESIAN_POINT('',(183.3,235.7,118.9));
#479=CARTESIAN_POINT('',(183.3,235.7,136.7));
#480=CARTESIAN_POINT('',(206.7,235.7,118.9));
#481=CARTESIAN_POINT('',(172.4,246.6,118.9));
#482=CARTESIAN_POINT('',(172.4,246.6,118.9));
#483=CARTESIAN_POINT('',(172.4,257.55,118.9));
#484=CARTESIAN_POINT('',(172.4,257.55,118.9));
#485=CARTESIAN_POINT('',(183.3,246.6,118.9));
#486=CARTESIAN_POINT('',(206.7,257.55,118.9));
#487=CARTESIAN_POINT('',(183.3,246.6,118.9));
#488=CARTESIAN_POINT('',(41.8,101.3,48.4));
#489=CARTESIAN_POINT('',(48.85,101.3,48.4));
#490=CARTESIAN_POINT('',(41.8,101.3,48.4));
#491=CARTESIAN_POINT('',(41.8,101.3,136.75));
#492=CARTESIAN_POINT('',(207.8,75.2,136.75));
#493=MECHANICAL_DESIGN_GEOMETRIC_PRESENTATION_REPRESENTATION('',(#24),#494);
#494=(
GEOMETRIC_REPRESENTATION_CONTEXT(3)
GLOBAL_UNCERTAINTY_ASSIGNED_CONTEXT((#495))
GLOBAL_UNIT_ASSIGNED_CONTEXT((#501,#497,#496))
REPRESENTATION_CONTEXT('featured_part_08171','TOP_LEVEL_ASSEMBLY_PART')
);
#495=UNCERTAINTY_MEASURE_WITH_UNIT(LENGTH_MEASURE(2.E-5),#501,
'DISTANCE_ACCURACY_VALUE','Maximum Tolerance applied to model');
#496=(
NAMED_UNIT(*)
SI_UNIT($,.STERADIAN.)
SOLID_ANGLE_UNIT()
);
#497=(
CONVERSION_BASED_UNIT('DEGREE',#499)
NAMED_UNIT(#498)
PLANE_ANGLE_UNIT()
);
#498=DIMENSIONAL_EXPONENTS(0.,0.,0.,0.,0.,0.,0.);
#499=PLANE_ANGLE_MEASURE_WITH_UNIT(PLANE_ANGLE_MEASURE(0.0174532925),#500);
#500=(
NAMED_UNIT(*)
PLANE_ANGLE_UNIT()
SI_UNIT($,.RADIAN.)
);
#501=(
LENGTH_UNIT()
NAMED_UNIT(*)
SI_UNIT(.MILLI.,.METRE.)
);
ENDSEC;
END-ISO-10303-21;
