ISO-10303-21;
HEADER;
/* Generated by software containing ST-Developer
 * from STEP Tools, Inc. (www.steptools.com) 
 */
/* OPTION: using custom schema-name function */

FILE_DESCRIPTION(
/* description */ (''),
/* implementation_level */ '2;1');

FILE_NAME(
/* name */ 'featured_part_04225.stp',
/* time_stamp */ '2026-07-07T12:36:36-04:00',
/* author */ (''),
/* organization */ (''),
/* preprocessor_version */ 'ST-DEVELOPER v20.1',
/* originating_system */ 'SIEMENS PLM Software NX2512.6002',
/* authorisation */ '');

FILE_SCHEMA (('AUTOMOTIVE_DESIGN { 1 0 10303 214 3 1 1 1 }'));
ENDSEC;

DATA;
#10=SHAPE_REPRESENTATION_RELATIONSHIP('None',
'relationship between featured_part_04225-None and featured_part_04225
-None',#22,#11);
#11=ADVANCED_BREP_SHAPE_REPRESENTATION('featured_part_04225-None',(#32),
#791);
#12=SHAPE_DEFINITION_REPRESENTATION(#13,#22);
#13=PRODUCT_DEFINITION_SHAPE('','',#14);
#14=PRODUCT_DEFINITION(' ','',#16,#15);
#15=PRODUCT_DEFINITION_CONTEXT('part definition',#21,'design');
#16=PRODUCT_DEFINITION_FORMATION_WITH_SPECIFIED_SOURCE(' ',' ',#18,
 .NOT_KNOWN.);
#17=PRODUCT_RELATED_PRODUCT_CATEGORY('part','',(#18));
#18=PRODUCT('featured_part_04225','featured_part_04225',' ',(#19));
#19=PRODUCT_CONTEXT(' ',#21,'mechanical');
#20=APPLICATION_PROTOCOL_DEFINITION('international standard',
'automotive_design',2010,#21);
#21=APPLICATION_CONTEXT(
'core data for automotive mechanical design processes');
#22=SHAPE_REPRESENTATION('featured_part_04225-None',(#480),#791);
#23=PRESENTATION_LAYER_ASSIGNMENT('1','Layer 1',(#32));
#24=STYLED_ITEM('',(#25),#32);
#25=PRESENTATION_STYLE_ASSIGNMENT((#26));
#26=SURFACE_STYLE_USAGE(.BOTH.,#27);
#27=SURFACE_SIDE_STYLE('',(#28));
#28=SURFACE_STYLE_FILL_AREA(#29);
#29=FILL_AREA_STYLE('',(#30));
#30=FILL_AREA_STYLE_COLOUR('',#31);
#31=COLOUR_RGB('medium steel',0.611764705882353,0.658823529411765,0.670588235294118);
#32=MANIFOLD_SOLID_BREP('',#33);
#33=CLOSED_SHELL('',(#66,#67,#68,#69,#70,#71,#72,#73,#74,#75,#76,#77,#78,
#79,#80,#81,#82,#83,#84,#85,#86,#87,#88,#89,#90,#91));
#34=CYLINDRICAL_SURFACE('',#505,3.2);
#35=CYLINDRICAL_SURFACE('',#506,3.2);
#36=CYLINDRICAL_SURFACE('',#507,3.2);
#37=CYLINDRICAL_SURFACE('',#508,3.2);
#38=CYLINDRICAL_SURFACE('',#518,11.5);
#39=CYLINDRICAL_SURFACE('',#519,11.5);
#40=CYLINDRICAL_SURFACE('',#520,11.5);
#41=CYLINDRICAL_SURFACE('',#521,11.5);
#42=CYLINDRICAL_SURFACE('',#523,6.8);
#43=FACE_OUTER_BOUND('',#118,.T.);
#44=FACE_OUTER_BOUND('',#119,.T.);
#45=FACE_OUTER_BOUND('',#120,.T.);
#46=FACE_OUTER_BOUND('',#121,.T.);
#47=FACE_OUTER_BOUND('',#122,.T.);
#48=FACE_OUTER_BOUND('',#123,.T.);
#49=FACE_OUTER_BOUND('',#124,.T.);
#50=FACE_OUTER_BOUND('',#125,.T.);
#51=FACE_OUTER_BOUND('',#129,.T.);
#52=FACE_OUTER_BOUND('',#130,.T.);
#53=FACE_OUTER_BOUND('',#131,.T.);
#54=FACE_OUTER_BOUND('',#132,.T.);
#55=FACE_OUTER_BOUND('',#133,.T.);
#56=FACE_OUTER_BOUND('',#134,.T.);
#57=FACE_OUTER_BOUND('',#135,.T.);
#58=FACE_OUTER_BOUND('',#136,.T.);
#59=FACE_OUTER_BOUND('',#137,.T.);
#60=FACE_OUTER_BOUND('',#138,.T.);
#61=FACE_OUTER_BOUND('',#139,.T.);
#62=FACE_OUTER_BOUND('',#140,.T.);
#63=FACE_OUTER_BOUND('',#141,.T.);
#64=FACE_OUTER_BOUND('',#142,.T.);
#65=FACE_OUTER_BOUND('',#145,.T.);
#66=ADVANCED_FACE('',(#109,#110),#92,.T.);
#67=ADVANCED_FACE('',(#43),#93,.T.);
#68=ADVANCED_FACE('',(#44),#94,.T.);
#69=ADVANCED_FACE('',(#45),#95,.T.);
#70=ADVANCED_FACE('',(#46),#96,.T.);
#71=ADVANCED_FACE('',(#47),#97,.T.);
#72=ADVANCED_FACE('',(#48),#98,.F.);
#73=ADVANCED_FACE('',(#49),#99,.F.);
#74=ADVANCED_FACE('',(#50),#100,.F.);
#75=ADVANCED_FACE('',(#111,#112,#113),#101,.F.);
#76=ADVANCED_FACE('',(#51),#102,.F.);
#77=ADVANCED_FACE('',(#52),#34,.F.);
#78=ADVANCED_FACE('',(#53),#35,.F.);
#79=ADVANCED_FACE('',(#54),#36,.F.);
#80=ADVANCED_FACE('',(#55),#37,.F.);
#81=ADVANCED_FACE('',(#56),#103,.F.);
#82=ADVANCED_FACE('',(#57),#104,.F.);
#83=ADVANCED_FACE('',(#58),#105,.F.);
#84=ADVANCED_FACE('',(#59),#106,.F.);
#85=ADVANCED_FACE('',(#60),#107,.F.);
#86=ADVANCED_FACE('',(#61),#38,.F.);
#87=ADVANCED_FACE('',(#62),#39,.F.);
#88=ADVANCED_FACE('',(#63),#40,.F.);
#89=ADVANCED_FACE('',(#64),#41,.F.);
#90=ADVANCED_FACE('',(#114,#115),#42,.F.);
#91=ADVANCED_FACE('',(#65),#108,.F.);
#92=PLANE('',#485);
#93=PLANE('',#486);
#94=PLANE('',#487);
#95=PLANE('',#488);
#96=PLANE('',#489);
#97=PLANE('',#490);
#98=PLANE('',#491);
#99=PLANE('',#492);
#100=PLANE('',#493);
#101=PLANE('',#503);
#102=PLANE('',#504);
#103=PLANE('',#509);
#104=PLANE('',#510);
#105=PLANE('',#511);
#106=PLANE('',#512);
#107=PLANE('',#517);
#108=PLANE('',#524);
#109=FACE_BOUND('',#116,.T.);
#110=FACE_BOUND('',#117,.T.);
#111=FACE_BOUND('',#126,.T.);
#112=FACE_BOUND('',#127,.T.);
#113=FACE_BOUND('',#128,.T.);
#114=FACE_BOUND('',#143,.T.);
#115=FACE_BOUND('',#144,.T.);
#116=EDGE_LOOP('',(#164,#165,#166,#167,#168,#169,#170,#171));
#117=EDGE_LOOP('',(#172,#173,#174,#175));
#118=EDGE_LOOP('',(#176,#177,#178,#179));
#119=EDGE_LOOP('',(#180,#181,#182,#183));
#120=EDGE_LOOP('',(#184,#185,#186,#187));
#121=EDGE_LOOP('',(#188,#189,#190,#191));
#122=EDGE_LOOP('',(#192,#193,#194,#195));
#123=EDGE_LOOP('',(#196,#197,#198,#199));
#124=EDGE_LOOP('',(#200,#201,#202,#203));
#125=EDGE_LOOP('',(#204,#205,#206,#207));
#126=EDGE_LOOP('',(#208));
#127=EDGE_LOOP('',(#209,#210,#211,#212,#213,#214,#215,#216));
#128=EDGE_LOOP('',(#217,#218,#219,#220,#221,#222,#223,#224));
#129=EDGE_LOOP('',(#225,#226,#227,#228));
#130=EDGE_LOOP('',(#229,#230,#231,#232));
#131=EDGE_LOOP('',(#233,#234,#235,#236));
#132=EDGE_LOOP('',(#237,#238,#239,#240));
#133=EDGE_LOOP('',(#241,#242,#243,#244));
#134=EDGE_LOOP('',(#245,#246,#247,#248));
#135=EDGE_LOOP('',(#249,#250,#251,#252));
#136=EDGE_LOOP('',(#253,#254,#255,#256));
#137=EDGE_LOOP('',(#257,#258,#259,#260));
#138=EDGE_LOOP('',(#261,#262,#263,#264,#265,#266,#267,#268));
#139=EDGE_LOOP('',(#269,#270,#271,#272));
#140=EDGE_LOOP('',(#273,#274,#275,#276));
#141=EDGE_LOOP('',(#277,#278,#279,#280));
#142=EDGE_LOOP('',(#281,#282,#283,#284));
#143=EDGE_LOOP('',(#285));
#144=EDGE_LOOP('',(#286));
#145=EDGE_LOOP('',(#287));
#146=CIRCLE('',#481,3.2);
#147=CIRCLE('',#482,3.2);
#148=CIRCLE('',#483,3.2);
#149=CIRCLE('',#484,3.2);
#150=CIRCLE('',#494,6.8);
#151=CIRCLE('',#495,11.5);
#152=CIRCLE('',#496,11.5);
#153=CIRCLE('',#497,11.5);
#154=CIRCLE('',#498,11.5);
#155=CIRCLE('',#499,3.2);
#156=CIRCLE('',#500,3.2);
#157=CIRCLE('',#501,3.2);
#158=CIRCLE('',#502,3.2);
#159=CIRCLE('',#513,11.5);
#160=CIRCLE('',#514,11.5);
#161=CIRCLE('',#515,11.5);
#162=CIRCLE('',#516,11.5);
#163=CIRCLE('',#522,6.8);
#164=ORIENTED_EDGE('',*,*,#330,.F.);
#165=ORIENTED_EDGE('',*,*,#331,.T.);
#166=ORIENTED_EDGE('',*,*,#332,.F.);
#167=ORIENTED_EDGE('',*,*,#333,.T.);
#168=ORIENTED_EDGE('',*,*,#334,.F.);
#169=ORIENTED_EDGE('',*,*,#335,.T.);
#170=ORIENTED_EDGE('',*,*,#336,.F.);
#171=ORIENTED_EDGE('',*,*,#337,.T.);
#172=ORIENTED_EDGE('',*,*,#338,.F.);
#173=ORIENTED_EDGE('',*,*,#339,.F.);
#174=ORIENTED_EDGE('',*,*,#340,.F.);
#175=ORIENTED_EDGE('',*,*,#341,.F.);
#176=ORIENTED_EDGE('',*,*,#342,.T.);
#177=ORIENTED_EDGE('',*,*,#338,.T.);
#178=ORIENTED_EDGE('',*,*,#343,.F.);
#179=ORIENTED_EDGE('',*,*,#344,.T.);
#180=ORIENTED_EDGE('',*,*,#343,.T.);
#181=ORIENTED_EDGE('',*,*,#341,.T.);
#182=ORIENTED_EDGE('',*,*,#345,.F.);
#183=ORIENTED_EDGE('',*,*,#346,.T.);
#184=ORIENTED_EDGE('',*,*,#345,.T.);
#185=ORIENTED_EDGE('',*,*,#340,.T.);
#186=ORIENTED_EDGE('',*,*,#347,.F.);
#187=ORIENTED_EDGE('',*,*,#348,.T.);
#188=ORIENTED_EDGE('',*,*,#349,.F.);
#189=ORIENTED_EDGE('',*,*,#344,.F.);
#190=ORIENTED_EDGE('',*,*,#346,.F.);
#191=ORIENTED_EDGE('',*,*,#348,.F.);
#192=ORIENTED_EDGE('',*,*,#349,.T.);
#193=ORIENTED_EDGE('',*,*,#347,.T.);
#194=ORIENTED_EDGE('',*,*,#339,.T.);
#195=ORIENTED_EDGE('',*,*,#342,.F.);
#196=ORIENTED_EDGE('',*,*,#350,.T.);
#197=ORIENTED_EDGE('',*,*,#351,.T.);
#198=ORIENTED_EDGE('',*,*,#330,.T.);
#199=ORIENTED_EDGE('',*,*,#352,.T.);
#200=ORIENTED_EDGE('',*,*,#332,.T.);
#201=ORIENTED_EDGE('',*,*,#353,.T.);
#202=ORIENTED_EDGE('',*,*,#354,.T.);
#203=ORIENTED_EDGE('',*,*,#355,.T.);
#204=ORIENTED_EDGE('',*,*,#356,.T.);
#205=ORIENTED_EDGE('',*,*,#357,.T.);
#206=ORIENTED_EDGE('',*,*,#334,.T.);
#207=ORIENTED_EDGE('',*,*,#358,.T.);
#208=ORIENTED_EDGE('',*,*,#359,.T.);
#209=ORIENTED_EDGE('',*,*,#360,.T.);
#210=ORIENTED_EDGE('',*,*,#361,.T.);
#211=ORIENTED_EDGE('',*,*,#362,.T.);
#212=ORIENTED_EDGE('',*,*,#363,.T.);
#213=ORIENTED_EDGE('',*,*,#364,.T.);
#214=ORIENTED_EDGE('',*,*,#365,.T.);
#215=ORIENTED_EDGE('',*,*,#366,.T.);
#216=ORIENTED_EDGE('',*,*,#367,.T.);
#217=ORIENTED_EDGE('',*,*,#354,.F.);
#218=ORIENTED_EDGE('',*,*,#368,.T.);
#219=ORIENTED_EDGE('',*,*,#350,.F.);
#220=ORIENTED_EDGE('',*,*,#369,.T.);
#221=ORIENTED_EDGE('',*,*,#370,.F.);
#222=ORIENTED_EDGE('',*,*,#371,.T.);
#223=ORIENTED_EDGE('',*,*,#356,.F.);
#224=ORIENTED_EDGE('',*,*,#372,.T.);
#225=ORIENTED_EDGE('',*,*,#336,.T.);
#226=ORIENTED_EDGE('',*,*,#373,.T.);
#227=ORIENTED_EDGE('',*,*,#370,.T.);
#228=ORIENTED_EDGE('',*,*,#374,.T.);
#229=ORIENTED_EDGE('',*,*,#331,.F.);
#230=ORIENTED_EDGE('',*,*,#351,.F.);
#231=ORIENTED_EDGE('',*,*,#368,.F.);
#232=ORIENTED_EDGE('',*,*,#353,.F.);
#233=ORIENTED_EDGE('',*,*,#335,.F.);
#234=ORIENTED_EDGE('',*,*,#357,.F.);
#235=ORIENTED_EDGE('',*,*,#371,.F.);
#236=ORIENTED_EDGE('',*,*,#373,.F.);
#237=ORIENTED_EDGE('',*,*,#333,.F.);
#238=ORIENTED_EDGE('',*,*,#355,.F.);
#239=ORIENTED_EDGE('',*,*,#372,.F.);
#240=ORIENTED_EDGE('',*,*,#358,.F.);
#241=ORIENTED_EDGE('',*,*,#337,.F.);
#242=ORIENTED_EDGE('',*,*,#374,.F.);
#243=ORIENTED_EDGE('',*,*,#369,.F.);
#244=ORIENTED_EDGE('',*,*,#352,.F.);
#245=ORIENTED_EDGE('',*,*,#364,.F.);
#246=ORIENTED_EDGE('',*,*,#375,.T.);
#247=ORIENTED_EDGE('',*,*,#376,.T.);
#248=ORIENTED_EDGE('',*,*,#377,.T.);
#249=ORIENTED_EDGE('',*,*,#378,.T.);
#250=ORIENTED_EDGE('',*,*,#379,.T.);
#251=ORIENTED_EDGE('',*,*,#366,.F.);
#252=ORIENTED_EDGE('',*,*,#380,.T.);
#253=ORIENTED_EDGE('',*,*,#360,.F.);
#254=ORIENTED_EDGE('',*,*,#381,.T.);
#255=ORIENTED_EDGE('',*,*,#382,.T.);
#256=ORIENTED_EDGE('',*,*,#383,.T.);
#257=ORIENTED_EDGE('',*,*,#384,.T.);
#258=ORIENTED_EDGE('',*,*,#385,.T.);
#259=ORIENTED_EDGE('',*,*,#362,.F.);
#260=ORIENTED_EDGE('',*,*,#386,.T.);
#261=ORIENTED_EDGE('',*,*,#376,.F.);
#262=ORIENTED_EDGE('',*,*,#387,.T.);
#263=ORIENTED_EDGE('',*,*,#384,.F.);
#264=ORIENTED_EDGE('',*,*,#388,.T.);
#265=ORIENTED_EDGE('',*,*,#382,.F.);
#266=ORIENTED_EDGE('',*,*,#389,.T.);
#267=ORIENTED_EDGE('',*,*,#378,.F.);
#268=ORIENTED_EDGE('',*,*,#390,.T.);
#269=ORIENTED_EDGE('',*,*,#363,.F.);
#270=ORIENTED_EDGE('',*,*,#385,.F.);
#271=ORIENTED_EDGE('',*,*,#387,.F.);
#272=ORIENTED_EDGE('',*,*,#375,.F.);
#273=ORIENTED_EDGE('',*,*,#367,.F.);
#274=ORIENTED_EDGE('',*,*,#379,.F.);
#275=ORIENTED_EDGE('',*,*,#389,.F.);
#276=ORIENTED_EDGE('',*,*,#381,.F.);
#277=ORIENTED_EDGE('',*,*,#361,.F.);
#278=ORIENTED_EDGE('',*,*,#383,.F.);
#279=ORIENTED_EDGE('',*,*,#388,.F.);
#280=ORIENTED_EDGE('',*,*,#386,.F.);
#281=ORIENTED_EDGE('',*,*,#365,.F.);
#282=ORIENTED_EDGE('',*,*,#377,.F.);
#283=ORIENTED_EDGE('',*,*,#390,.F.);
#284=ORIENTED_EDGE('',*,*,#380,.F.);
#285=ORIENTED_EDGE('',*,*,#391,.T.);
#286=ORIENTED_EDGE('',*,*,#359,.F.);
#287=ORIENTED_EDGE('',*,*,#391,.F.);
#288=VERTEX_POINT('',#661);
#289=VERTEX_POINT('',#662);
#290=VERTEX_POINT('',#664);
#291=VERTEX_POINT('',#666);
#292=VERTEX_POINT('',#668);
#293=VERTEX_POINT('',#670);
#294=VERTEX_POINT('',#672);
#295=VERTEX_POINT('',#674);
#296=VERTEX_POINT('',#677);
#297=VERTEX_POINT('',#678);
#298=VERTEX_POINT('',#680);
#299=VERTEX_POINT('',#682);
#300=VERTEX_POINT('',#686);
#301=VERTEX_POINT('',#688);
#302=VERTEX_POINT('',#692);
#303=VERTEX_POINT('',#696);
#304=VERTEX_POINT('',#703);
#305=VERTEX_POINT('',#704);
#306=VERTEX_POINT('',#709);
#307=VERTEX_POINT('',#711);
#308=VERTEX_POINT('',#715);
#309=VERTEX_POINT('',#716);
#310=VERTEX_POINT('',#721);
#311=VERTEX_POINT('',#723);
#312=VERTEX_POINT('',#724);
#313=VERTEX_POINT('',#726);
#314=VERTEX_POINT('',#728);
#315=VERTEX_POINT('',#730);
#316=VERTEX_POINT('',#732);
#317=VERTEX_POINT('',#734);
#318=VERTEX_POINT('',#736);
#319=VERTEX_POINT('',#740);
#320=VERTEX_POINT('',#742);
#321=VERTEX_POINT('',#754);
#322=VERTEX_POINT('',#756);
#323=VERTEX_POINT('',#760);
#324=VERTEX_POINT('',#761);
#325=VERTEX_POINT('',#766);
#326=VERTEX_POINT('',#768);
#327=VERTEX_POINT('',#772);
#328=VERTEX_POINT('',#773);
#329=VERTEX_POINT('',#787);
#330=EDGE_CURVE('',#288,#289,#392,.T.);
#331=EDGE_CURVE('',#288,#290,#146,.T.);
#332=EDGE_CURVE('',#291,#290,#393,.T.);
#333=EDGE_CURVE('',#291,#292,#147,.T.);
#334=EDGE_CURVE('',#293,#292,#394,.T.);
#335=EDGE_CURVE('',#293,#294,#148,.T.);
#336=EDGE_CURVE('',#295,#294,#395,.T.);
#337=EDGE_CURVE('',#295,#289,#149,.T.);
#338=EDGE_CURVE('',#296,#297,#396,.T.);
#339=EDGE_CURVE('',#298,#296,#397,.T.);
#340=EDGE_CURVE('',#299,#298,#398,.T.);
#341=EDGE_CURVE('',#297,#299,#399,.T.);
#342=EDGE_CURVE('',#300,#296,#400,.T.);
#343=EDGE_CURVE('',#301,#297,#401,.T.);
#344=EDGE_CURVE('',#301,#300,#402,.T.);
#345=EDGE_CURVE('',#302,#299,#403,.T.);
#346=EDGE_CURVE('',#302,#301,#404,.T.);
#347=EDGE_CURVE('',#303,#298,#405,.T.);
#348=EDGE_CURVE('',#303,#302,#406,.T.);
#349=EDGE_CURVE('',#300,#303,#407,.T.);
#350=EDGE_CURVE('',#304,#305,#408,.T.);
#351=EDGE_CURVE('',#305,#288,#409,.T.);
#352=EDGE_CURVE('',#289,#304,#410,.T.);
#353=EDGE_CURVE('',#290,#306,#411,.T.);
#354=EDGE_CURVE('',#306,#307,#412,.T.);
#355=EDGE_CURVE('',#307,#291,#413,.T.);
#356=EDGE_CURVE('',#308,#309,#414,.T.);
#357=EDGE_CURVE('',#309,#293,#415,.T.);
#358=EDGE_CURVE('',#292,#308,#416,.T.);
#359=EDGE_CURVE('',#310,#310,#150,.T.);
#360=EDGE_CURVE('',#311,#312,#417,.T.);
#361=EDGE_CURVE('',#312,#313,#151,.T.);
#362=EDGE_CURVE('',#313,#314,#418,.T.);
#363=EDGE_CURVE('',#314,#315,#152,.T.);
#364=EDGE_CURVE('',#315,#316,#419,.T.);
#365=EDGE_CURVE('',#316,#317,#153,.T.);
#366=EDGE_CURVE('',#317,#318,#420,.T.);
#367=EDGE_CURVE('',#318,#311,#154,.T.);
#368=EDGE_CURVE('',#306,#305,#155,.T.);
#369=EDGE_CURVE('',#304,#319,#156,.T.);
#370=EDGE_CURVE('',#320,#319,#421,.T.);
#371=EDGE_CURVE('',#320,#309,#157,.T.);
#372=EDGE_CURVE('',#308,#307,#158,.T.);
#373=EDGE_CURVE('',#294,#320,#422,.T.);
#374=EDGE_CURVE('',#319,#295,#423,.T.);
#375=EDGE_CURVE('',#315,#321,#424,.T.);
#376=EDGE_CURVE('',#321,#322,#425,.T.);
#377=EDGE_CURVE('',#322,#316,#426,.T.);
#378=EDGE_CURVE('',#323,#324,#427,.T.);
#379=EDGE_CURVE('',#324,#318,#428,.T.);
#380=EDGE_CURVE('',#317,#323,#429,.T.);
#381=EDGE_CURVE('',#311,#325,#430,.T.);
#382=EDGE_CURVE('',#325,#326,#431,.T.);
#383=EDGE_CURVE('',#326,#312,#432,.T.);
#384=EDGE_CURVE('',#327,#328,#433,.T.);
#385=EDGE_CURVE('',#328,#314,#434,.T.);
#386=EDGE_CURVE('',#313,#327,#435,.T.);
#387=EDGE_CURVE('',#321,#328,#159,.T.);
#388=EDGE_CURVE('',#327,#326,#160,.T.);
#389=EDGE_CURVE('',#325,#324,#161,.T.);
#390=EDGE_CURVE('',#323,#322,#162,.T.);
#391=EDGE_CURVE('',#329,#329,#163,.T.);
#392=LINE('',#660,#436);
#393=LINE('',#665,#437);
#394=LINE('',#669,#438);
#395=LINE('',#673,#439);
#396=LINE('',#676,#440);
#397=LINE('',#679,#441);
#398=LINE('',#681,#442);
#399=LINE('',#683,#443);
#400=LINE('',#685,#444);
#401=LINE('',#687,#445);
#402=LINE('',#689,#446);
#403=LINE('',#691,#447);
#404=LINE('',#693,#448);
#405=LINE('',#695,#449);
#406=LINE('',#697,#450);
#407=LINE('',#699,#451);
#408=LINE('',#702,#452);
#409=LINE('',#705,#453);
#410=LINE('',#706,#454);
#411=LINE('',#708,#455);
#412=LINE('',#710,#456);
#413=LINE('',#712,#457);
#414=LINE('',#714,#458);
#415=LINE('',#717,#459);
#416=LINE('',#718,#460);
#417=LINE('',#722,#461);
#418=LINE('',#727,#462);
#419=LINE('',#731,#463);
#420=LINE('',#735,#464);
#421=LINE('',#741,#465);
#422=LINE('',#746,#466);
#423=LINE('',#747,#467);
#424=LINE('',#753,#468);
#425=LINE('',#755,#469);
#426=LINE('',#757,#470);
#427=LINE('',#759,#471);
#428=LINE('',#762,#472);
#429=LINE('',#763,#473);
#430=LINE('',#765,#474);
#431=LINE('',#767,#475);
#432=LINE('',#769,#476);
#433=LINE('',#771,#477);
#434=LINE('',#774,#478);
#435=LINE('',#775,#479);
#436=VECTOR('',#527,1.);
#437=VECTOR('',#530,1.);
#438=VECTOR('',#533,1.);
#439=VECTOR('',#536,1.);
#440=VECTOR('',#539,1.);
#441=VECTOR('',#540,1.);
#442=VECTOR('',#541,1.);
#443=VECTOR('',#542,1.);
#444=VECTOR('',#545,1.);
#445=VECTOR('',#546,1.);
#446=VECTOR('',#547,1.);
#447=VECTOR('',#550,1.);
#448=VECTOR('',#551,1.);
#449=VECTOR('',#554,1.);
#450=VECTOR('',#555,1.);
#451=VECTOR('',#558,1.);
#452=VECTOR('',#563,1.);
#453=VECTOR('',#564,1.);
#454=VECTOR('',#565,1.);
#455=VECTOR('',#568,1.);
#456=VECTOR('',#569,1.);
#457=VECTOR('',#570,1.);
#458=VECTOR('',#573,1.);
#459=VECTOR('',#574,1.);
#460=VECTOR('',#575,1.);
#461=VECTOR('',#580,1.);
#462=VECTOR('',#583,1.);
#463=VECTOR('',#586,1.);
#464=VECTOR('',#589,1.);
#465=VECTOR('',#596,1.);
#466=VECTOR('',#603,1.);
#467=VECTOR('',#604,1.);
#468=VECTOR('',#615,1.);
#469=VECTOR('',#616,1.);
#470=VECTOR('',#617,1.);
#471=VECTOR('',#620,1.);
#472=VECTOR('',#621,1.);
#473=VECTOR('',#622,1.);
#474=VECTOR('',#625,1.);
#475=VECTOR('',#626,1.);
#476=VECTOR('',#627,1.);
#477=VECTOR('',#630,1.);
#478=VECTOR('',#631,1.);
#479=VECTOR('',#632,1.);
#480=AXIS2_PLACEMENT_3D('',#659,#525,#526);
#481=AXIS2_PLACEMENT_3D('',#663,#528,#529);
#482=AXIS2_PLACEMENT_3D('',#667,#531,#532);
#483=AXIS2_PLACEMENT_3D('',#671,#534,#535);
#484=AXIS2_PLACEMENT_3D('',#675,#537,#538);
#485=AXIS2_PLACEMENT_3D('',#684,#543,#544);
#486=AXIS2_PLACEMENT_3D('',#690,#548,#549);
#487=AXIS2_PLACEMENT_3D('',#694,#552,#553);
#488=AXIS2_PLACEMENT_3D('',#698,#556,#557);
#489=AXIS2_PLACEMENT_3D('',#700,#559,#560);
#490=AXIS2_PLACEMENT_3D('',#701,#561,#562);
#491=AXIS2_PLACEMENT_3D('',#707,#566,#567);
#492=AXIS2_PLACEMENT_3D('',#713,#571,#572);
#493=AXIS2_PLACEMENT_3D('',#719,#576,#577);
#494=AXIS2_PLACEMENT_3D('',#720,#578,#579);
#495=AXIS2_PLACEMENT_3D('',#725,#581,#582);
#496=AXIS2_PLACEMENT_3D('',#729,#584,#585);
#497=AXIS2_PLACEMENT_3D('',#733,#587,#588);
#498=AXIS2_PLACEMENT_3D('',#737,#590,#591);
#499=AXIS2_PLACEMENT_3D('',#738,#592,#593);
#500=AXIS2_PLACEMENT_3D('',#739,#594,#595);
#501=AXIS2_PLACEMENT_3D('',#743,#597,#598);
#502=AXIS2_PLACEMENT_3D('',#744,#599,#600);
#503=AXIS2_PLACEMENT_3D('',#745,#601,#602);
#504=AXIS2_PLACEMENT_3D('',#748,#605,#606);
#505=AXIS2_PLACEMENT_3D('',#749,#607,#608);
#506=AXIS2_PLACEMENT_3D('',#750,#609,#610);
#507=AXIS2_PLACEMENT_3D('',#751,#611,#612);
#508=AXIS2_PLACEMENT_3D('',#752,#613,#614);
#509=AXIS2_PLACEMENT_3D('',#758,#618,#619);
#510=AXIS2_PLACEMENT_3D('',#764,#623,#624);
#511=AXIS2_PLACEMENT_3D('',#770,#628,#629);
#512=AXIS2_PLACEMENT_3D('',#776,#633,#634);
#513=AXIS2_PLACEMENT_3D('',#777,#635,#636);
#514=AXIS2_PLACEMENT_3D('',#778,#637,#638);
#515=AXIS2_PLACEMENT_3D('',#779,#639,#640);
#516=AXIS2_PLACEMENT_3D('',#780,#641,#642);
#517=AXIS2_PLACEMENT_3D('',#781,#643,#644);
#518=AXIS2_PLACEMENT_3D('',#782,#645,#646);
#519=AXIS2_PLACEMENT_3D('',#783,#647,#648);
#520=AXIS2_PLACEMENT_3D('',#784,#649,#650);
#521=AXIS2_PLACEMENT_3D('',#785,#651,#652);
#522=AXIS2_PLACEMENT_3D('',#786,#653,#654);
#523=AXIS2_PLACEMENT_3D('',#788,#655,#656);
#524=AXIS2_PLACEMENT_3D('',#789,#657,#658);
#525=DIRECTION('',(0.,0.,1.));
#526=DIRECTION('',(1.,0.,0.));
#527=DIRECTION('',(1.,0.,0.));
#528=DIRECTION('',(0.,0.,-1.));
#529=DIRECTION('',(0.999999999999998,0.,0.));
#530=DIRECTION('',(0.,-1.,0.));
#531=DIRECTION('',(0.,0.,-1.));
#532=DIRECTION('',(0.999999999999998,0.,0.));
#533=DIRECTION('',(-1.,0.,0.));
#534=DIRECTION('',(0.,0.,-1.));
#535=DIRECTION('',(1.,0.,0.));
#536=DIRECTION('',(0.,1.,0.));
#537=DIRECTION('',(0.,0.,-1.));
#538=DIRECTION('',(1.,0.,0.));
#539=DIRECTION('',(-1.,0.,0.));
#540=DIRECTION('',(0.,-1.,0.));
#541=DIRECTION('',(1.,0.,0.));
#542=DIRECTION('',(0.,1.,0.));
#543=DIRECTION('',(0.,0.,1.));
#544=DIRECTION('',(1.,0.,0.));
#545=DIRECTION('',(0.,0.,1.));
#546=DIRECTION('',(0.,0.,1.));
#547=DIRECTION('',(1.,0.,0.));
#548=DIRECTION('',(0.,-1.,0.));
#549=DIRECTION('',(0.,0.,-1.));
#550=DIRECTION('',(0.,0.,1.));
#551=DIRECTION('',(0.,-1.,0.));
#552=DIRECTION('',(-1.,0.,0.));
#553=DIRECTION('',(0.,0.,1.));
#554=DIRECTION('',(0.,0.,1.));
#555=DIRECTION('',(-1.,0.,0.));
#556=DIRECTION('',(0.,1.,0.));
#557=DIRECTION('',(0.,0.,1.));
#558=DIRECTION('',(0.,1.,0.));
#559=DIRECTION('',(0.,0.,-1.));
#560=DIRECTION('',(-1.,0.,0.));
#561=DIRECTION('',(1.,0.,0.));
#562=DIRECTION('',(0.,0.,-1.));
#563=DIRECTION('',(-1.,0.,0.));
#564=DIRECTION('',(0.,0.,1.));
#565=DIRECTION('',(0.,0.,-1.));
#566=DIRECTION('',(0.,-1.,0.));
#567=DIRECTION('',(0.,0.,-1.));
#568=DIRECTION('',(0.,0.,-1.));
#569=DIRECTION('',(0.,1.,0.));
#570=DIRECTION('',(0.,0.,1.));
#571=DIRECTION('',(-1.,0.,0.));
#572=DIRECTION('',(0.,0.,1.));
#573=DIRECTION('',(1.,0.,0.));
#574=DIRECTION('',(0.,0.,1.));
#575=DIRECTION('',(0.,0.,-1.));
#576=DIRECTION('',(0.,1.,0.));
#577=DIRECTION('',(0.,0.,1.));
#578=DIRECTION('',(0.,0.,-1.));
#579=DIRECTION('',(-1.,0.,0.));
#580=DIRECTION('',(1.,0.,0.));
#581=DIRECTION('',(0.,0.,-1.));
#582=DIRECTION('',(-1.,0.,0.));
#583=DIRECTION('',(0.,-1.,0.));
#584=DIRECTION('',(0.,0.,-1.));
#585=DIRECTION('',(-1.,0.,0.));
#586=DIRECTION('',(-1.,0.,0.));
#587=DIRECTION('',(0.,0.,-1.));
#588=DIRECTION('',(-1.,0.,0.));
#589=DIRECTION('',(0.,1.,0.));
#590=DIRECTION('',(0.,0.,-1.));
#591=DIRECTION('',(-1.,0.,0.));
#592=DIRECTION('',(0.,0.,1.));
#593=DIRECTION('',(-0.999999999999998,0.,0.));
#594=DIRECTION('',(0.,0.,1.));
#595=DIRECTION('',(-1.,0.,0.));
#596=DIRECTION('',(0.,-1.,0.));
#597=DIRECTION('',(0.,0.,1.));
#598=DIRECTION('',(-1.,0.,0.));
#599=DIRECTION('',(0.,0.,1.));
#600=DIRECTION('',(-0.999999999999998,0.,0.));
#601=DIRECTION('',(0.,0.,-1.));
#602=DIRECTION('',(-1.,0.,0.));
#603=DIRECTION('',(0.,0.,-1.));
#604=DIRECTION('',(0.,0.,1.));
#605=DIRECTION('',(1.,0.,0.));
#606=DIRECTION('',(0.,0.,-1.));
#607=DIRECTION('',(0.,0.,1.));
#608=DIRECTION('',(0.999999999999998,0.,0.));
#609=DIRECTION('',(0.,0.,1.));
#610=DIRECTION('',(1.,0.,0.));
#611=DIRECTION('',(0.,0.,1.));
#612=DIRECTION('',(0.999999999999998,0.,0.));
#613=DIRECTION('',(0.,0.,1.));
#614=DIRECTION('',(1.,0.,0.));
#615=DIRECTION('',(0.,0.,-1.));
#616=DIRECTION('',(-1.,0.,0.));
#617=DIRECTION('',(0.,0.,1.));
#618=DIRECTION('',(0.,-1.,0.));
#619=DIRECTION('',(0.,0.,-1.));
#620=DIRECTION('',(0.,1.,0.));
#621=DIRECTION('',(0.,0.,1.));
#622=DIRECTION('',(0.,0.,-1.));
#623=DIRECTION('',(-1.,0.,0.));
#624=DIRECTION('',(0.,0.,1.));
#625=DIRECTION('',(0.,0.,-1.));
#626=DIRECTION('',(1.,0.,0.));
#627=DIRECTION('',(0.,0.,1.));
#628=DIRECTION('',(0.,1.,0.));
#629=DIRECTION('',(0.,0.,1.));
#630=DIRECTION('',(0.,-1.,0.));
#631=DIRECTION('',(0.,0.,1.));
#632=DIRECTION('',(0.,0.,-1.));
#633=DIRECTION('',(1.,0.,0.));
#634=DIRECTION('',(0.,0.,-1.));
#635=DIRECTION('',(0.,0.,1.));
#636=DIRECTION('',(-1.,0.,0.));
#637=DIRECTION('',(0.,0.,1.));
#638=DIRECTION('',(-1.,0.,0.));
#639=DIRECTION('',(0.,0.,1.));
#640=DIRECTION('',(-1.,0.,0.));
#641=DIRECTION('',(0.,0.,1.));
#642=DIRECTION('',(-1.,0.,0.));
#643=DIRECTION('',(0.,0.,-1.));
#644=DIRECTION('',(-1.,0.,0.));
#645=DIRECTION('',(0.,0.,1.));
#646=DIRECTION('',(1.,0.,0.));
#647=DIRECTION('',(0.,0.,1.));
#648=DIRECTION('',(1.,0.,0.));
#649=DIRECTION('',(0.,0.,1.));
#650=DIRECTION('',(1.,0.,0.));
#651=DIRECTION('',(0.,0.,1.));
#652=DIRECTION('',(1.,0.,0.));
#653=DIRECTION('',(0.,0.,-1.));
#654=DIRECTION('',(1.,0.,0.));
#655=DIRECTION('',(0.,0.,-1.));
#656=DIRECTION('',(1.,0.,0.));
#657=DIRECTION('',(0.,0.,-1.));
#658=DIRECTION('',(-1.,0.,0.));
#659=CARTESIAN_POINT('',(0.,0.,0.));
#660=CARTESIAN_POINT('',(156.,209.5,81.3));
#661=CARTESIAN_POINT('',(101.1,209.5,81.3));
#662=CARTESIAN_POINT('',(209.1,209.5,81.3));
#663=CARTESIAN_POINT('',(101.1,212.7,81.3));
#664=CARTESIAN_POINT('',(97.9,212.7,81.3));
#665=CARTESIAN_POINT('',(97.9,230.7,81.3));
#666=CARTESIAN_POINT('',(97.9,336.5,81.3));
#667=CARTESIAN_POINT('',(101.1,336.5,81.3));
#668=CARTESIAN_POINT('',(101.1,339.7,81.3));
#669=CARTESIAN_POINT('',(156.,339.7,81.3));
#670=CARTESIAN_POINT('',(209.1,339.7,81.3));
#671=CARTESIAN_POINT('',(209.1,336.5,81.3));
#672=CARTESIAN_POINT('',(212.3,336.5,81.3));
#673=CARTESIAN_POINT('',(212.3,230.7,81.3));
#674=CARTESIAN_POINT('',(212.3,212.7,81.3));
#675=CARTESIAN_POINT('',(209.1,212.7,81.3));
#676=CARTESIAN_POINT('',(156.,0.,81.3));
#677=CARTESIAN_POINT('',(312.,0.,81.3));
#678=CARTESIAN_POINT('',(0.,0.,81.3));
#679=CARTESIAN_POINT('',(312.,230.7,81.3));
#680=CARTESIAN_POINT('',(312.,461.4,81.3));
#681=CARTESIAN_POINT('',(156.,461.4,81.3));
#682=CARTESIAN_POINT('',(0.,461.4,81.3));
#683=CARTESIAN_POINT('',(0.,230.7,81.3));
#684=CARTESIAN_POINT('',(156.,230.7,81.3));
#685=CARTESIAN_POINT('',(312.,0.,0.));
#686=CARTESIAN_POINT('',(312.,0.,0.));
#687=CARTESIAN_POINT('',(0.,0.,0.));
#688=CARTESIAN_POINT('',(0.,0.,0.));
#689=CARTESIAN_POINT('',(156.,0.,0.));
#690=CARTESIAN_POINT('',(156.,0.,0.));
#691=CARTESIAN_POINT('',(0.,461.4,0.));
#692=CARTESIAN_POINT('',(0.,461.4,0.));
#693=CARTESIAN_POINT('',(0.,230.7,0.));
#694=CARTESIAN_POINT('',(0.,230.7,0.));
#695=CARTESIAN_POINT('',(312.,461.4,0.));
#696=CARTESIAN_POINT('',(312.,461.4,0.));
#697=CARTESIAN_POINT('',(156.,461.4,0.));
#698=CARTESIAN_POINT('',(156.,461.4,0.));
#699=CARTESIAN_POINT('',(312.,230.7,0.));
#700=CARTESIAN_POINT('',(156.,230.7,0.));
#701=CARTESIAN_POINT('',(312.,230.7,0.));
#702=CARTESIAN_POINT('',(155.1,209.5,55.4));
#703=CARTESIAN_POINT('',(209.1,209.5,55.4));
#704=CARTESIAN_POINT('',(101.1,209.5,55.4));
#705=CARTESIAN_POINT('',(101.1,209.5,81.3));
#706=CARTESIAN_POINT('',(209.1,209.5,55.4));
#707=CARTESIAN_POINT('',(155.1,209.5,55.4));
#708=CARTESIAN_POINT('',(97.9,212.7,55.4));
#709=CARTESIAN_POINT('',(97.9,212.7,55.4));
#710=CARTESIAN_POINT('',(97.9,274.6,55.4));
#711=CARTESIAN_POINT('',(97.9,336.5,55.4));
#712=CARTESIAN_POINT('',(97.9,336.5,81.3));
#713=CARTESIAN_POINT('',(97.9,274.6,55.4));
#714=CARTESIAN_POINT('',(155.1,339.7,55.4));
#715=CARTESIAN_POINT('',(101.1,339.7,55.4));
#716=CARTESIAN_POINT('',(209.1,339.7,55.4));
#717=CARTESIAN_POINT('',(209.1,339.7,81.3));
#718=CARTESIAN_POINT('',(101.1,339.7,55.4));
#719=CARTESIAN_POINT('',(155.1,339.7,55.4));
#720=CARTESIAN_POINT('',(183.5,328.9,55.4));
#721=CARTESIAN_POINT('',(176.7,328.9,55.4));
#722=CARTESIAN_POINT('',(155.1,307.1,55.4));
#723=CARTESIAN_POINT('',(143.,307.1,55.4));
#724=CARTESIAN_POINT('',(167.2,307.1,55.4));
#725=CARTESIAN_POINT('',(167.2,295.6,55.4));
#726=CARTESIAN_POINT('',(178.7,295.6,55.4));
#727=CARTESIAN_POINT('',(178.7,274.6,55.4));
#728=CARTESIAN_POINT('',(178.7,247.2,55.4));
#729=CARTESIAN_POINT('',(167.2,247.2,55.4));
#730=CARTESIAN_POINT('',(167.2,235.7,55.4));
#731=CARTESIAN_POINT('',(155.1,235.7,55.4));
#732=CARTESIAN_POINT('',(143.,235.7,55.4));
#733=CARTESIAN_POINT('',(143.,247.2,55.4));
#734=CARTESIAN_POINT('',(131.5,247.2,55.4));
#735=CARTESIAN_POINT('',(131.5,274.6,55.4));
#736=CARTESIAN_POINT('',(131.5,295.6,55.4));
#737=CARTESIAN_POINT('',(143.,295.6,55.4));
#738=CARTESIAN_POINT('',(101.1,212.7,55.4));
#739=CARTESIAN_POINT('',(209.1,212.7,55.4));
#740=CARTESIAN_POINT('',(212.3,212.7,55.4));
#741=CARTESIAN_POINT('',(212.3,274.6,55.4));
#742=CARTESIAN_POINT('',(212.3,336.5,55.4));
#743=CARTESIAN_POINT('',(209.1,336.5,55.4));
#744=CARTESIAN_POINT('',(101.1,336.5,55.4));
#745=CARTESIAN_POINT('',(155.1,274.6,55.4));
#746=CARTESIAN_POINT('',(212.3,336.5,55.4));
#747=CARTESIAN_POINT('',(212.3,212.7,81.3));
#748=CARTESIAN_POINT('',(212.3,274.6,55.4));
#749=CARTESIAN_POINT('',(101.1,212.7,55.4));
#750=CARTESIAN_POINT('',(209.1,336.5,55.4));
#751=CARTESIAN_POINT('',(101.1,336.5,55.4));
#752=CARTESIAN_POINT('',(209.1,212.7,55.4));
#753=CARTESIAN_POINT('',(167.2,235.7,43.4));
#754=CARTESIAN_POINT('',(167.2,235.7,43.4));
#755=CARTESIAN_POINT('',(155.1,235.7,43.4));
#756=CARTESIAN_POINT('',(143.,235.7,43.4));
#757=CARTESIAN_POINT('',(143.,235.7,55.4));
#758=CARTESIAN_POINT('',(155.1,235.7,43.4));
#759=CARTESIAN_POINT('',(131.5,271.4,43.4));
#760=CARTESIAN_POINT('',(131.5,247.2,43.4));
#761=CARTESIAN_POINT('',(131.5,295.6,43.4));
#762=CARTESIAN_POINT('',(131.5,295.6,55.4));
#763=CARTESIAN_POINT('',(131.5,247.2,43.4));
#764=CARTESIAN_POINT('',(131.5,271.4,43.4));
#765=CARTESIAN_POINT('',(143.,307.1,43.4));
#766=CARTESIAN_POINT('',(143.,307.1,43.4));
#767=CARTESIAN_POINT('',(155.1,307.1,43.4));
#768=CARTESIAN_POINT('',(167.2,307.1,43.4));
#769=CARTESIAN_POINT('',(167.2,307.1,55.4));
#770=CARTESIAN_POINT('',(155.1,307.1,43.4));
#771=CARTESIAN_POINT('',(178.7,271.4,43.4));
#772=CARTESIAN_POINT('',(178.7,295.6,43.4));
#773=CARTESIAN_POINT('',(178.7,247.2,43.4));
#774=CARTESIAN_POINT('',(178.7,247.2,55.4));
#775=CARTESIAN_POINT('',(178.7,295.6,43.4));
#776=CARTESIAN_POINT('',(178.7,271.4,43.4));
#777=CARTESIAN_POINT('',(167.2,247.2,43.4));
#778=CARTESIAN_POINT('',(167.2,295.6,43.4));
#779=CARTESIAN_POINT('',(143.,295.6,43.4));
#780=CARTESIAN_POINT('',(143.,247.2,43.4));
#781=CARTESIAN_POINT('',(155.1,271.4,43.4));
#782=CARTESIAN_POINT('',(167.2,247.2,43.4));
#783=CARTESIAN_POINT('',(143.,295.6,43.4));
#784=CARTESIAN_POINT('',(167.2,295.6,43.4));
#785=CARTESIAN_POINT('',(143.,247.2,43.4));
#786=CARTESIAN_POINT('',(183.5,328.9,54.4));
#787=CARTESIAN_POINT('',(190.3,328.9,54.4));
#788=CARTESIAN_POINT('',(183.5,328.9,81.35));
#789=CARTESIAN_POINT('',(183.5,328.9,54.4));
#790=MECHANICAL_DESIGN_GEOMETRIC_PRESENTATION_REPRESENTATION('',(#24),#791);
#791=(
GEOMETRIC_REPRESENTATION_CONTEXT(3)
GLOBAL_UNCERTAINTY_ASSIGNED_CONTEXT((#792))
GLOBAL_UNIT_ASSIGNED_CONTEXT((#798,#794,#793))
REPRESENTATION_CONTEXT('featured_part_04225','TOP_LEVEL_ASSEMBLY_PART')
);
#792=UNCERTAINTY_MEASURE_WITH_UNIT(LENGTH_MEASURE(2.E-5),#798,
'DISTANCE_ACCURACY_VALUE','Maximum Tolerance applied to model');
#793=(
NAMED_UNIT(*)
SI_UNIT($,.STERADIAN.)
SOLID_ANGLE_UNIT()
);
#794=(
CONVERSION_BASED_UNIT('DEGREE',#796)
NAMED_UNIT(#795)
PLANE_ANGLE_UNIT()
);
#795=DIMENSIONAL_EXPONENTS(0.,0.,0.,0.,0.,0.,0.);
#796=PLANE_ANGLE_MEASURE_WITH_UNIT(PLANE_ANGLE_MEASURE(0.0174532925),#797);
#797=(
NAMED_UNIT(*)
PLANE_ANGLE_UNIT()
SI_UNIT($,.RADIAN.)
);
#798=(
LENGTH_UNIT()
NAMED_UNIT(*)
SI_UNIT(.MILLI.,.METRE.)
);
ENDSEC;
END-ISO-10303-21;
