ISO-10303-21;
HEADER;
/* Generated by software containing ST-Developer
 * from STEP Tools, Inc. (www.steptools.com) 
 */
/* OPTION: using custom schema-name function */

FILE_DESCRIPTION(
/* description */ (''),
/* implementation_level */ '2;1');

FILE_NAME(
/* name */ 'featured_part_11124.stp',
/* time_stamp */ '2026-07-12T13:46:20-04:00',
/* author */ (''),
/* organization */ (''),
/* preprocessor_version */ 'ST-DEVELOPER v20.1',
/* originating_system */ 'SIEMENS PLM Software NX2512.6002',
/* authorisation */ '');

FILE_SCHEMA (('AUTOMOTIVE_DESIGN { 1 0 10303 214 3 1 1 1 }'));
ENDSEC;

DATA;
#10=SHAPE_REPRESENTATION_RELATIONSHIP('None',
'relationship between featured_part_11124-None and featured_part_11124
-None',#22,#11);
#11=ADVANCED_BREP_SHAPE_REPRESENTATION('featured_part_11124-None',(#32),
#535);
#12=SHAPE_DEFINITION_REPRESENTATION(#13,#22);
#13=PRODUCT_DEFINITION_SHAPE('','',#14);
#14=PRODUCT_DEFINITION(' ','',#16,#15);
#15=PRODUCT_DEFINITION_CONTEXT('part definition',#21,'design');
#16=PRODUCT_DEFINITION_FORMATION_WITH_SPECIFIED_SOURCE(' ',' ',#18,
 .NOT_KNOWN.);
#17=PRODUCT_RELATED_PRODUCT_CATEGORY('part','',(#18));
#18=PRODUCT('featured_part_11124','featured_part_11124',' ',(#19));
#19=PRODUCT_CONTEXT(' ',#21,'mechanical');
#20=APPLICATION_PROTOCOL_DEFINITION('international standard',
'automotive_design',2010,#21);
#21=APPLICATION_CONTEXT(
'core data for automotive mechanical design processes');
#22=SHAPE_REPRESENTATION('featured_part_11124-None',(#334),#535);
#23=PRESENTATION_LAYER_ASSIGNMENT('1','Layer 1',(#32));
#24=STYLED_ITEM('',(#25),#32);
#25=PRESENTATION_STYLE_ASSIGNMENT((#26));
#26=SURFACE_STYLE_USAGE(.BOTH.,#27);
#27=SURFACE_SIDE_STYLE('',(#28));
#28=SURFACE_STYLE_FILL_AREA(#29);
#29=FILL_AREA_STYLE('',(#30));
#30=FILL_AREA_STYLE_COLOUR('',#31);
#31=COLOUR_RGB('medium steel',0.611764705882353,0.658823529411765,0.670588235294118);
#32=MANIFOLD_SOLID_BREP('',#33);
#33=CLOSED_SHELL('',(#53,#54,#55,#56,#57,#58,#59,#60,#61,#62,#63,#64,#65,
#66,#67,#68,#69,#70));
#34=CYLINDRICAL_SURFACE('',#353,11.4);
#35=CYLINDRICAL_SURFACE('',#354,11.4);
#36=CYLINDRICAL_SURFACE('',#357,7.2);
#37=CYLINDRICAL_SURFACE('',#360,4.25);
#38=FACE_OUTER_BOUND('',#159,.T.);
#39=FACE_OUTER_BOUND('',#160,.T.);
#40=FACE_OUTER_BOUND('',#161,.T.);
#41=FACE_OUTER_BOUND('',#162,.T.);
#42=FACE_OUTER_BOUND('',#163,.T.);
#43=FACE_OUTER_BOUND('',#164,.T.);
#44=FACE_OUTER_BOUND('',#165,.T.);
#45=FACE_OUTER_BOUND('',#166,.T.);
#46=FACE_OUTER_BOUND('',#167,.T.);
#47=FACE_OUTER_BOUND('',#168,.T.);
#48=FACE_OUTER_BOUND('',#169,.T.);
#49=FACE_OUTER_BOUND('',#170,.T.);
#50=FACE_OUTER_BOUND('',#171,.T.);
#51=FACE_OUTER_BOUND('',#172,.T.);
#52=FACE_OUTER_BOUND('',#175,.T.);
#53=ADVANCED_FACE('',(#149,#150,#151),#71,.T.);
#54=ADVANCED_FACE('',(#38),#72,.T.);
#55=ADVANCED_FACE('',(#39),#73,.T.);
#56=ADVANCED_FACE('',(#40),#74,.T.);
#57=ADVANCED_FACE('',(#41),#75,.T.);
#58=ADVANCED_FACE('',(#42),#76,.T.);
#59=ADVANCED_FACE('',(#43),#77,.F.);
#60=ADVANCED_FACE('',(#44),#78,.F.);
#61=ADVANCED_FACE('',(#45),#79,.F.);
#62=ADVANCED_FACE('',(#46),#80,.F.);
#63=ADVANCED_FACE('',(#47),#81,.F.);
#64=ADVANCED_FACE('',(#48),#82,.F.);
#65=ADVANCED_FACE('',(#49),#34,.F.);
#66=ADVANCED_FACE('',(#50),#35,.F.);
#67=ADVANCED_FACE('',(#51),#83,.F.);
#68=ADVANCED_FACE('',(#152,#153),#36,.F.);
#69=ADVANCED_FACE('',(#52),#84,.F.);
#70=ADVANCED_FACE('',(#154,#155),#37,.F.);
#71=PLANE('',#339);
#72=PLANE('',#340);
#73=PLANE('',#341);
#74=PLANE('',#342);
#75=PLANE('',#343);
#76=PLANE('',#344);
#77=PLANE('',#345);
#78=PLANE('',#346);
#79=PLANE('',#347);
#80=PLANE('',#348);
#81=PLANE('',#351);
#82=PLANE('',#352);
#83=PLANE('',#356);
#84=PLANE('',#359);
#85=LINE('',#452,#117);
#86=LINE('',#455,#118);
#87=LINE('',#457,#119);
#88=LINE('',#459,#120);
#89=LINE('',#461,#121);
#90=LINE('',#463,#122);
#91=LINE('',#465,#123);
#92=LINE('',#469,#124);
#93=LINE('',#473,#125);
#94=LINE('',#476,#126);
#95=LINE('',#478,#127);
#96=LINE('',#480,#128);
#97=LINE('',#482,#129);
#98=LINE('',#484,#130);
#99=LINE('',#486,#131);
#100=LINE('',#487,#132);
#101=LINE('',#489,#133);
#102=LINE('',#491,#134);
#103=LINE('',#492,#135);
#104=LINE('',#494,#136);
#105=LINE('',#496,#137);
#106=LINE('',#498,#138);
#107=LINE('',#500,#139);
#108=LINE('',#502,#140);
#109=LINE('',#503,#141);
#110=LINE('',#507,#142);
#111=LINE('',#509,#143);
#112=LINE('',#511,#144);
#113=LINE('',#513,#145);
#114=LINE('',#515,#146);
#115=LINE('',#521,#147);
#116=LINE('',#522,#148);
#117=VECTOR('',#367,1.);
#118=VECTOR('',#368,1.);
#119=VECTOR('',#369,1.);
#120=VECTOR('',#370,1.);
#121=VECTOR('',#371,1.);
#122=VECTOR('',#372,1.);
#123=VECTOR('',#373,1.);
#124=VECTOR('',#376,1.);
#125=VECTOR('',#381,1.);
#126=VECTOR('',#382,1.);
#127=VECTOR('',#383,1.);
#128=VECTOR('',#384,1.);
#129=VECTOR('',#387,1.);
#130=VECTOR('',#388,1.);
#131=VECTOR('',#389,1.);
#132=VECTOR('',#390,1.);
#133=VECTOR('',#391,1.);
#134=VECTOR('',#392,1.);
#135=VECTOR('',#393,1.);
#136=VECTOR('',#396,1.);
#137=VECTOR('',#397,1.);
#138=VECTOR('',#398,1.);
#139=VECTOR('',#401,1.);
#140=VECTOR('',#404,1.);
#141=VECTOR('',#405,1.);
#142=VECTOR('',#412,1.);
#143=VECTOR('',#413,1.);
#144=VECTOR('',#416,1.);
#145=VECTOR('',#417,1.);
#146=VECTOR('',#420,1.);
#147=VECTOR('',#427,1.);
#148=VECTOR('',#428,1.);
#149=FACE_BOUND('',#156,.T.);
#150=FACE_BOUND('',#157,.T.);
#151=FACE_BOUND('',#158,.T.);
#152=FACE_BOUND('',#173,.T.);
#153=FACE_BOUND('',#174,.T.);
#154=FACE_BOUND('',#176,.T.);
#155=FACE_BOUND('',#177,.T.);
#156=EDGE_LOOP('',(#178));
#157=EDGE_LOOP('',(#179));
#158=EDGE_LOOP('',(#180,#181,#182,#183,#184,#185,#186,#187,#188,#189));
#159=EDGE_LOOP('',(#190,#191,#192,#193));
#160=EDGE_LOOP('',(#194,#195,#196,#197,#198,#199,#200,#201,#202,#203));
#161=EDGE_LOOP('',(#204,#205,#206,#207));
#162=EDGE_LOOP('',(#208,#209,#210,#211));
#163=EDGE_LOOP('',(#212,#213,#214,#215,#216,#217));
#164=EDGE_LOOP('',(#218,#219,#220,#221));
#165=EDGE_LOOP('',(#222,#223,#224,#225));
#166=EDGE_LOOP('',(#226,#227,#228,#229));
#167=EDGE_LOOP('',(#230,#231,#232,#233));
#168=EDGE_LOOP('',(#234,#235,#236,#237,#238,#239));
#169=EDGE_LOOP('',(#240,#241,#242,#243));
#170=EDGE_LOOP('',(#244,#245,#246,#247));
#171=EDGE_LOOP('',(#248,#249,#250,#251));
#172=EDGE_LOOP('',(#252));
#173=EDGE_LOOP('',(#253));
#174=EDGE_LOOP('',(#254));
#175=EDGE_LOOP('',(#255));
#176=EDGE_LOOP('',(#256));
#177=EDGE_LOOP('',(#257));
#178=ORIENTED_EDGE('',*,*,#286,.F.);
#179=ORIENTED_EDGE('',*,*,#287,.F.);
#180=ORIENTED_EDGE('',*,*,#288,.F.);
#181=ORIENTED_EDGE('',*,*,#289,.F.);
#182=ORIENTED_EDGE('',*,*,#290,.T.);
#183=ORIENTED_EDGE('',*,*,#291,.F.);
#184=ORIENTED_EDGE('',*,*,#292,.T.);
#185=ORIENTED_EDGE('',*,*,#293,.F.);
#186=ORIENTED_EDGE('',*,*,#294,.F.);
#187=ORIENTED_EDGE('',*,*,#295,.T.);
#188=ORIENTED_EDGE('',*,*,#296,.F.);
#189=ORIENTED_EDGE('',*,*,#297,.T.);
#190=ORIENTED_EDGE('',*,*,#298,.T.);
#191=ORIENTED_EDGE('',*,*,#299,.T.);
#192=ORIENTED_EDGE('',*,*,#300,.F.);
#193=ORIENTED_EDGE('',*,*,#301,.T.);
#194=ORIENTED_EDGE('',*,*,#302,.F.);
#195=ORIENTED_EDGE('',*,*,#303,.F.);
#196=ORIENTED_EDGE('',*,*,#304,.T.);
#197=ORIENTED_EDGE('',*,*,#293,.T.);
#198=ORIENTED_EDGE('',*,*,#305,.T.);
#199=ORIENTED_EDGE('',*,*,#306,.F.);
#200=ORIENTED_EDGE('',*,*,#307,.T.);
#201=ORIENTED_EDGE('',*,*,#300,.T.);
#202=ORIENTED_EDGE('',*,*,#308,.T.);
#203=ORIENTED_EDGE('',*,*,#289,.T.);
#204=ORIENTED_EDGE('',*,*,#306,.T.);
#205=ORIENTED_EDGE('',*,*,#309,.T.);
#206=ORIENTED_EDGE('',*,*,#310,.F.);
#207=ORIENTED_EDGE('',*,*,#311,.T.);
#208=ORIENTED_EDGE('',*,*,#312,.F.);
#209=ORIENTED_EDGE('',*,*,#301,.F.);
#210=ORIENTED_EDGE('',*,*,#307,.F.);
#211=ORIENTED_EDGE('',*,*,#311,.F.);
#212=ORIENTED_EDGE('',*,*,#310,.T.);
#213=ORIENTED_EDGE('',*,*,#313,.T.);
#214=ORIENTED_EDGE('',*,*,#291,.T.);
#215=ORIENTED_EDGE('',*,*,#314,.T.);
#216=ORIENTED_EDGE('',*,*,#298,.F.);
#217=ORIENTED_EDGE('',*,*,#312,.T.);
#218=ORIENTED_EDGE('',*,*,#314,.F.);
#219=ORIENTED_EDGE('',*,*,#290,.F.);
#220=ORIENTED_EDGE('',*,*,#308,.F.);
#221=ORIENTED_EDGE('',*,*,#299,.F.);
#222=ORIENTED_EDGE('',*,*,#305,.F.);
#223=ORIENTED_EDGE('',*,*,#292,.F.);
#224=ORIENTED_EDGE('',*,*,#313,.F.);
#225=ORIENTED_EDGE('',*,*,#309,.F.);
#226=ORIENTED_EDGE('',*,*,#288,.T.);
#227=ORIENTED_EDGE('',*,*,#315,.T.);
#228=ORIENTED_EDGE('',*,*,#316,.T.);
#229=ORIENTED_EDGE('',*,*,#302,.T.);
#230=ORIENTED_EDGE('',*,*,#317,.T.);
#231=ORIENTED_EDGE('',*,*,#318,.T.);
#232=ORIENTED_EDGE('',*,*,#294,.T.);
#233=ORIENTED_EDGE('',*,*,#304,.F.);
#234=ORIENTED_EDGE('',*,*,#319,.F.);
#235=ORIENTED_EDGE('',*,*,#320,.T.);
#236=ORIENTED_EDGE('',*,*,#317,.F.);
#237=ORIENTED_EDGE('',*,*,#303,.T.);
#238=ORIENTED_EDGE('',*,*,#316,.F.);
#239=ORIENTED_EDGE('',*,*,#321,.T.);
#240=ORIENTED_EDGE('',*,*,#296,.T.);
#241=ORIENTED_EDGE('',*,*,#322,.T.);
#242=ORIENTED_EDGE('',*,*,#319,.T.);
#243=ORIENTED_EDGE('',*,*,#323,.T.);
#244=ORIENTED_EDGE('',*,*,#295,.F.);
#245=ORIENTED_EDGE('',*,*,#318,.F.);
#246=ORIENTED_EDGE('',*,*,#320,.F.);
#247=ORIENTED_EDGE('',*,*,#322,.F.);
#248=ORIENTED_EDGE('',*,*,#297,.F.);
#249=ORIENTED_EDGE('',*,*,#323,.F.);
#250=ORIENTED_EDGE('',*,*,#321,.F.);
#251=ORIENTED_EDGE('',*,*,#315,.F.);
#252=ORIENTED_EDGE('',*,*,#324,.F.);
#253=ORIENTED_EDGE('',*,*,#287,.T.);
#254=ORIENTED_EDGE('',*,*,#324,.T.);
#255=ORIENTED_EDGE('',*,*,#325,.F.);
#256=ORIENTED_EDGE('',*,*,#286,.T.);
#257=ORIENTED_EDGE('',*,*,#325,.T.);
#258=VERTEX_POINT('',#449);
#259=VERTEX_POINT('',#451);
#260=VERTEX_POINT('',#453);
#261=VERTEX_POINT('',#454);
#262=VERTEX_POINT('',#456);
#263=VERTEX_POINT('',#458);
#264=VERTEX_POINT('',#460);
#265=VERTEX_POINT('',#462);
#266=VERTEX_POINT('',#464);
#267=VERTEX_POINT('',#466);
#268=VERTEX_POINT('',#468);
#269=VERTEX_POINT('',#470);
#270=VERTEX_POINT('',#474);
#271=VERTEX_POINT('',#475);
#272=VERTEX_POINT('',#477);
#273=VERTEX_POINT('',#479);
#274=VERTEX_POINT('',#483);
#275=VERTEX_POINT('',#485);
#276=VERTEX_POINT('',#488);
#277=VERTEX_POINT('',#490);
#278=VERTEX_POINT('',#495);
#279=VERTEX_POINT('',#497);
#280=VERTEX_POINT('',#508);
#281=VERTEX_POINT('',#512);
#282=VERTEX_POINT('',#516);
#283=VERTEX_POINT('',#517);
#284=VERTEX_POINT('',#527);
#285=VERTEX_POINT('',#531);
#286=EDGE_CURVE('',#258,#258,#326,.T.);
#287=EDGE_CURVE('',#259,#259,#327,.T.);
#288=EDGE_CURVE('',#260,#261,#85,.T.);
#289=EDGE_CURVE('',#262,#260,#86,.T.);
#290=EDGE_CURVE('',#262,#263,#87,.T.);
#291=EDGE_CURVE('',#264,#263,#88,.T.);
#292=EDGE_CURVE('',#264,#265,#89,.T.);
#293=EDGE_CURVE('',#266,#265,#90,.T.);
#294=EDGE_CURVE('',#267,#266,#91,.T.);
#295=EDGE_CURVE('',#267,#268,#328,.T.);
#296=EDGE_CURVE('',#269,#268,#92,.T.);
#297=EDGE_CURVE('',#269,#261,#329,.T.);
#298=EDGE_CURVE('',#270,#271,#93,.T.);
#299=EDGE_CURVE('',#271,#272,#94,.T.);
#300=EDGE_CURVE('',#273,#272,#95,.T.);
#301=EDGE_CURVE('',#273,#270,#96,.T.);
#302=EDGE_CURVE('',#274,#260,#97,.T.);
#303=EDGE_CURVE('',#275,#274,#98,.T.);
#304=EDGE_CURVE('',#275,#266,#99,.T.);
#305=EDGE_CURVE('',#265,#276,#100,.T.);
#306=EDGE_CURVE('',#277,#276,#101,.T.);
#307=EDGE_CURVE('',#277,#273,#102,.T.);
#308=EDGE_CURVE('',#272,#262,#103,.T.);
#309=EDGE_CURVE('',#276,#278,#104,.T.);
#310=EDGE_CURVE('',#279,#278,#105,.T.);
#311=EDGE_CURVE('',#279,#277,#106,.T.);
#312=EDGE_CURVE('',#270,#279,#107,.T.);
#313=EDGE_CURVE('',#278,#264,#108,.T.);
#314=EDGE_CURVE('',#263,#271,#109,.T.);
#315=EDGE_CURVE('',#261,#280,#110,.T.);
#316=EDGE_CURVE('',#280,#274,#111,.T.);
#317=EDGE_CURVE('',#275,#281,#112,.T.);
#318=EDGE_CURVE('',#281,#267,#113,.T.);
#319=EDGE_CURVE('',#282,#283,#114,.T.);
#320=EDGE_CURVE('',#282,#281,#330,.T.);
#321=EDGE_CURVE('',#280,#283,#331,.T.);
#322=EDGE_CURVE('',#268,#282,#115,.T.);
#323=EDGE_CURVE('',#283,#269,#116,.T.);
#324=EDGE_CURVE('',#284,#284,#332,.T.);
#325=EDGE_CURVE('',#285,#285,#333,.T.);
#326=CIRCLE('',#335,4.25);
#327=CIRCLE('',#336,7.2);
#328=CIRCLE('',#337,11.4);
#329=CIRCLE('',#338,11.4);
#330=CIRCLE('',#349,11.4);
#331=CIRCLE('',#350,11.4);
#332=CIRCLE('',#355,7.2);
#333=CIRCLE('',#358,4.25);
#334=AXIS2_PLACEMENT_3D('',#447,#361,#362);
#335=AXIS2_PLACEMENT_3D('',#448,#363,#364);
#336=AXIS2_PLACEMENT_3D('',#450,#365,#366);
#337=AXIS2_PLACEMENT_3D('',#467,#374,#375);
#338=AXIS2_PLACEMENT_3D('',#471,#377,#378);
#339=AXIS2_PLACEMENT_3D('',#472,#379,#380);
#340=AXIS2_PLACEMENT_3D('',#481,#385,#386);
#341=AXIS2_PLACEMENT_3D('',#493,#394,#395);
#342=AXIS2_PLACEMENT_3D('',#499,#399,#400);
#343=AXIS2_PLACEMENT_3D('',#501,#402,#403);
#344=AXIS2_PLACEMENT_3D('',#504,#406,#407);
#345=AXIS2_PLACEMENT_3D('',#505,#408,#409);
#346=AXIS2_PLACEMENT_3D('',#506,#410,#411);
#347=AXIS2_PLACEMENT_3D('',#510,#414,#415);
#348=AXIS2_PLACEMENT_3D('',#514,#418,#419);
#349=AXIS2_PLACEMENT_3D('',#518,#421,#422);
#350=AXIS2_PLACEMENT_3D('',#519,#423,#424);
#351=AXIS2_PLACEMENT_3D('',#520,#425,#426);
#352=AXIS2_PLACEMENT_3D('',#523,#429,#430);
#353=AXIS2_PLACEMENT_3D('',#524,#431,#432);
#354=AXIS2_PLACEMENT_3D('',#525,#433,#434);
#355=AXIS2_PLACEMENT_3D('',#526,#435,#436);
#356=AXIS2_PLACEMENT_3D('',#528,#437,#438);
#357=AXIS2_PLACEMENT_3D('',#529,#439,#440);
#358=AXIS2_PLACEMENT_3D('',#530,#441,#442);
#359=AXIS2_PLACEMENT_3D('',#532,#443,#444);
#360=AXIS2_PLACEMENT_3D('',#533,#445,#446);
#361=DIRECTION('',(0.,0.,1.));
#362=DIRECTION('',(1.,0.,0.));
#363=DIRECTION('',(0.,0.,1.));
#364=DIRECTION('',(1.,0.,0.));
#365=DIRECTION('',(0.,0.,1.));
#366=DIRECTION('',(0.999999999999998,0.,0.));
#367=DIRECTION('',(1.,0.,0.));
#368=DIRECTION('',(0.,1.,0.));
#369=DIRECTION('',(1.,0.,0.));
#370=DIRECTION('',(0.,-1.,0.));
#371=DIRECTION('',(-1.,0.,0.));
#372=DIRECTION('',(0.,1.,0.));
#373=DIRECTION('',(-1.,0.,0.));
#374=DIRECTION('',(0.,0.,-1.));
#375=DIRECTION('',(1.,0.,0.));
#376=DIRECTION('',(0.,1.,0.));
#377=DIRECTION('',(0.,0.,-1.));
#378=DIRECTION('',(1.,0.,0.));
#379=DIRECTION('',(0.,0.,1.));
#380=DIRECTION('',(1.,0.,0.));
#381=DIRECTION('',(0.,0.,1.));
#382=DIRECTION('',(-1.,0.,0.));
#383=DIRECTION('',(0.,0.,1.));
#384=DIRECTION('',(1.,0.,0.));
#385=DIRECTION('',(0.,-1.,0.));
#386=DIRECTION('',(0.,0.,-1.));
#387=DIRECTION('',(0.,0.,1.));
#388=DIRECTION('',(0.,-1.,0.));
#389=DIRECTION('',(0.,0.,1.));
#390=DIRECTION('',(0.,0.707106781186548,-0.707106781186548));
#391=DIRECTION('',(0.,0.,1.));
#392=DIRECTION('',(0.,-1.,0.));
#393=DIRECTION('',(0.,0.707106781186548,0.707106781186548));
#394=DIRECTION('',(-1.,0.,0.));
#395=DIRECTION('',(0.,0.,1.));
#396=DIRECTION('',(1.,0.,0.));
#397=DIRECTION('',(0.,0.,1.));
#398=DIRECTION('',(-1.,0.,0.));
#399=DIRECTION('',(0.,1.,0.));
#400=DIRECTION('',(0.,0.,1.));
#401=DIRECTION('',(0.,1.,0.));
#402=DIRECTION('',(0.,0.,-1.));
#403=DIRECTION('',(-1.,0.,0.));
#404=DIRECTION('',(0.,-0.707106781186548,0.707106781186548));
#405=DIRECTION('',(0.,-0.707106781186548,-0.707106781186548));
#406=DIRECTION('',(1.,0.,0.));
#407=DIRECTION('',(0.,0.,-1.));
#408=DIRECTION('',(0.,0.707106781186548,-0.707106781186548));
#409=DIRECTION('',(-1.,0.,0.));
#410=DIRECTION('',(0.,-0.707106781186547,-0.707106781186547));
#411=DIRECTION('',(1.,0.,0.));
#412=DIRECTION('',(0.,0.,-1.));
#413=DIRECTION('',(-1.,0.,0.));
#414=DIRECTION('',(0.,-1.,0.));
#415=DIRECTION('',(0.,0.,-1.));
#416=DIRECTION('',(1.,0.,0.));
#417=DIRECTION('',(0.,0.,1.));
#418=DIRECTION('',(0.,1.,0.));
#419=DIRECTION('',(0.,0.,1.));
#420=DIRECTION('',(0.,-1.,0.));
#421=DIRECTION('',(0.,0.,1.));
#422=DIRECTION('',(-1.,0.,0.));
#423=DIRECTION('',(0.,0.,1.));
#424=DIRECTION('',(-1.,0.,0.));
#425=DIRECTION('',(0.,0.,-1.));
#426=DIRECTION('',(-1.,0.,0.));
#427=DIRECTION('',(0.,0.,-1.));
#428=DIRECTION('',(0.,0.,1.));
#429=DIRECTION('',(1.,0.,0.));
#430=DIRECTION('',(0.,0.,-1.));
#431=DIRECTION('',(0.,0.,1.));
#432=DIRECTION('',(1.,0.,0.));
#433=DIRECTION('',(0.,0.,1.));
#434=DIRECTION('',(1.,0.,0.));
#435=DIRECTION('',(0.,0.,-1.));
#436=DIRECTION('',(0.999999999999998,0.,0.));
#437=DIRECTION('',(0.,0.,-1.));
#438=DIRECTION('',(-1.,0.,0.));
#439=DIRECTION('',(0.,0.,-1.));
#440=DIRECTION('',(0.999999999999998,0.,0.));
#441=DIRECTION('',(0.,0.,-1.));
#442=DIRECTION('',(1.,0.,0.));
#443=DIRECTION('',(0.,0.,-1.));
#444=DIRECTION('',(-1.,0.,0.));
#445=DIRECTION('',(0.,0.,-1.));
#446=DIRECTION('',(1.,0.,0.));
#447=CARTESIAN_POINT('',(0.,0.,0.));
#448=CARTESIAN_POINT('',(158.3,112.4,81.));
#449=CARTESIAN_POINT('',(162.55,112.4,81.));
#450=CARTESIAN_POINT('',(263.1,280.9,81.));
#451=CARTESIAN_POINT('',(270.3,280.9,81.));
#452=CARTESIAN_POINT('',(149.25,169.6,81.));
#453=CARTESIAN_POINT('',(0.,169.6,81.));
#454=CARTESIAN_POINT('',(60.8,169.6,81.));
#455=CARTESIAN_POINT('',(0.,233.7,81.));
#456=CARTESIAN_POINT('',(0.,13.8,81.));
#457=CARTESIAN_POINT('',(149.25,13.8,81.));
#458=CARTESIAN_POINT('',(298.5,13.8,81.));
#459=CARTESIAN_POINT('',(298.5,233.7,81.));
#460=CARTESIAN_POINT('',(298.5,464.4,81.));
#461=CARTESIAN_POINT('',(149.25,464.4,81.));
#462=CARTESIAN_POINT('',(0.,464.4,81.));
#463=CARTESIAN_POINT('',(0.,233.7,81.));
#464=CARTESIAN_POINT('',(0.,289.5,81.));
#465=CARTESIAN_POINT('',(149.25,289.5,81.));
#466=CARTESIAN_POINT('',(60.8,289.5,81.));
#467=CARTESIAN_POINT('',(60.8,278.1,81.));
#468=CARTESIAN_POINT('',(72.2,278.1,81.));
#469=CARTESIAN_POINT('',(72.2,233.7,81.));
#470=CARTESIAN_POINT('',(72.2,181.,81.));
#471=CARTESIAN_POINT('',(60.8,181.,81.));
#472=CARTESIAN_POINT('',(149.25,233.7,81.));
#473=CARTESIAN_POINT('',(298.5,0.,0.));
#474=CARTESIAN_POINT('',(298.5,0.,0.));
#475=CARTESIAN_POINT('',(298.5,0.,67.2));
#476=CARTESIAN_POINT('',(149.25,0.,67.2));
#477=CARTESIAN_POINT('',(0.,0.,67.2));
#478=CARTESIAN_POINT('',(0.,0.,0.));
#479=CARTESIAN_POINT('',(0.,0.,0.));
#480=CARTESIAN_POINT('',(149.25,0.,0.));
#481=CARTESIAN_POINT('',(149.25,0.,0.));
#482=CARTESIAN_POINT('',(0.,169.6,43.1));
#483=CARTESIAN_POINT('',(0.,169.6,43.1));
#484=CARTESIAN_POINT('',(0.,229.55,43.1));
#485=CARTESIAN_POINT('',(0.,289.5,43.1));
#486=CARTESIAN_POINT('',(0.,289.5,43.1));
#487=CARTESIAN_POINT('',(0.,389.55,155.85));
#488=CARTESIAN_POINT('',(0.,467.4,78.));
#489=CARTESIAN_POINT('',(0.,467.4,0.));
#490=CARTESIAN_POINT('',(0.,467.4,0.));
#491=CARTESIAN_POINT('',(0.,233.7,0.));
#492=CARTESIAN_POINT('',(0.,83.25,150.45));
#493=CARTESIAN_POINT('',(0.,233.7,0.));
#494=CARTESIAN_POINT('',(149.25,467.4,78.));
#495=CARTESIAN_POINT('',(298.5,467.4,78.));
#496=CARTESIAN_POINT('',(298.5,467.4,0.));
#497=CARTESIAN_POINT('',(298.5,467.4,0.));
#498=CARTESIAN_POINT('',(149.25,467.4,0.));
#499=CARTESIAN_POINT('',(149.25,467.4,0.));
#500=CARTESIAN_POINT('',(298.5,233.7,0.));
#501=CARTESIAN_POINT('',(149.25,233.7,0.));
#502=CARTESIAN_POINT('',(298.5,389.55,155.85));
#503=CARTESIAN_POINT('',(298.5,83.25,150.45));
#504=CARTESIAN_POINT('',(298.5,233.7,0.));
#505=CARTESIAN_POINT('',(149.25,0.,67.2));
#506=CARTESIAN_POINT('',(149.25,467.4,78.));
#507=CARTESIAN_POINT('',(60.8,169.6,43.1));
#508=CARTESIAN_POINT('',(60.8,169.6,43.1));
#509=CARTESIAN_POINT('',(36.1,169.6,43.1));
#510=CARTESIAN_POINT('',(36.1,169.6,43.1));
#511=CARTESIAN_POINT('',(36.1,289.5,43.1));
#512=CARTESIAN_POINT('',(60.8,289.5,43.1));
#513=CARTESIAN_POINT('',(60.8,289.5,81.));
#514=CARTESIAN_POINT('',(36.1,289.5,43.1));
#515=CARTESIAN_POINT('',(72.2,229.55,43.1));
#516=CARTESIAN_POINT('',(72.2,278.1,43.1));
#517=CARTESIAN_POINT('',(72.2,181.,43.1));
#518=CARTESIAN_POINT('',(60.8,278.1,43.1));
#519=CARTESIAN_POINT('',(60.8,181.,43.1));
#520=CARTESIAN_POINT('',(36.1,229.55,43.1));
#521=CARTESIAN_POINT('',(72.2,278.1,43.1));
#522=CARTESIAN_POINT('',(72.2,181.,81.));
#523=CARTESIAN_POINT('',(72.2,229.55,43.1));
#524=CARTESIAN_POINT('',(60.8,278.1,43.1));
#525=CARTESIAN_POINT('',(60.8,181.,43.1));
#526=CARTESIAN_POINT('',(263.1,280.9,53.2));
#527=CARTESIAN_POINT('',(270.3,280.9,53.2));
#528=CARTESIAN_POINT('',(263.1,280.9,53.2));
#529=CARTESIAN_POINT('',(263.1,280.9,81.05));
#530=CARTESIAN_POINT('',(158.3,112.4,32.2));
#531=CARTESIAN_POINT('',(162.55,112.4,32.2));
#532=CARTESIAN_POINT('',(158.3,112.4,32.2));
#533=CARTESIAN_POINT('',(158.3,112.4,81.05));
#534=MECHANICAL_DESIGN_GEOMETRIC_PRESENTATION_REPRESENTATION('',(#24),#535);
#535=(
GEOMETRIC_REPRESENTATION_CONTEXT(3)
GLOBAL_UNCERTAINTY_ASSIGNED_CONTEXT((#536))
GLOBAL_UNIT_ASSIGNED_CONTEXT((#542,#538,#537))
REPRESENTATION_CONTEXT('featured_part_11124','TOP_LEVEL_ASSEMBLY_PART')
);
#536=UNCERTAINTY_MEASURE_WITH_UNIT(LENGTH_MEASURE(2.E-5),#542,
'DISTANCE_ACCURACY_VALUE','Maximum Tolerance applied to model');
#537=(
NAMED_UNIT(*)
SI_UNIT($,.STERADIAN.)
SOLID_ANGLE_UNIT()
);
#538=(
CONVERSION_BASED_UNIT('DEGREE',#540)
NAMED_UNIT(#539)
PLANE_ANGLE_UNIT()
);
#539=DIMENSIONAL_EXPONENTS(0.,0.,0.,0.,0.,0.,0.);
#540=PLANE_ANGLE_MEASURE_WITH_UNIT(PLANE_ANGLE_MEASURE(0.0174532925),#541);
#541=(
NAMED_UNIT(*)
PLANE_ANGLE_UNIT()
SI_UNIT($,.RADIAN.)
);
#542=(
LENGTH_UNIT()
NAMED_UNIT(*)
SI_UNIT(.MILLI.,.METRE.)
);
ENDSEC;
END-ISO-10303-21;
