ISO-10303-21;
HEADER;
/* Generated by software containing ST-Developer
 * from STEP Tools, Inc. (www.steptools.com) 
 */
/* OPTION: using custom schema-name function */

FILE_DESCRIPTION(
/* description */ (''),
/* implementation_level */ '2;1');

FILE_NAME(
/* name */ 'featured_part_02458.stp',
/* time_stamp */ '2026-07-05T15:28:49-04:00',
/* author */ (''),
/* organization */ (''),
/* preprocessor_version */ 'ST-DEVELOPER v20.1',
/* originating_system */ 'SIEMENS PLM Software NX2512.6002',
/* authorisation */ '');

FILE_SCHEMA (('AUTOMOTIVE_DESIGN { 1 0 10303 214 3 1 1 1 }'));
ENDSEC;

DATA;
#10=SHAPE_REPRESENTATION_RELATIONSHIP('None',
'relationship between featured_part_02458-None and featured_part_02458
-None',#22,#11);
#11=ADVANCED_BREP_SHAPE_REPRESENTATION('featured_part_02458-None',(#32),
#537);
#12=SHAPE_DEFINITION_REPRESENTATION(#13,#22);
#13=PRODUCT_DEFINITION_SHAPE('','',#14);
#14=PRODUCT_DEFINITION(' ','',#16,#15);
#15=PRODUCT_DEFINITION_CONTEXT('part definition',#21,'design');
#16=PRODUCT_DEFINITION_FORMATION_WITH_SPECIFIED_SOURCE(' ',' ',#18,
 .NOT_KNOWN.);
#17=PRODUCT_RELATED_PRODUCT_CATEGORY('part','',(#18));
#18=PRODUCT('featured_part_02458','featured_part_02458',' ',(#19));
#19=PRODUCT_CONTEXT(' ',#21,'mechanical');
#20=APPLICATION_PROTOCOL_DEFINITION('international standard',
'automotive_design',2010,#21);
#21=APPLICATION_CONTEXT(
'core data for automotive mechanical design processes');
#22=SHAPE_REPRESENTATION('featured_part_02458-None',(#332),#537);
#23=PRESENTATION_LAYER_ASSIGNMENT('1','Layer 1',(#32));
#24=STYLED_ITEM('',(#25),#32);
#25=PRESENTATION_STYLE_ASSIGNMENT((#26));
#26=SURFACE_STYLE_USAGE(.BOTH.,#27);
#27=SURFACE_SIDE_STYLE('',(#28));
#28=SURFACE_STYLE_FILL_AREA(#29);
#29=FILL_AREA_STYLE('',(#30));
#30=FILL_AREA_STYLE_COLOUR('',#31);
#31=COLOUR_RGB('medium steel',0.611764705882353,0.658823529411765,0.670588235294118);
#32=MANIFOLD_SOLID_BREP('',#33);
#33=CLOSED_SHELL('',(#51,#52,#53,#54,#55,#56,#57,#58,#59,#60,#61,#62,#63,
#64,#65,#66,#67));
#34=CYLINDRICAL_SURFACE('',#355,10.7);
#35=CYLINDRICAL_SURFACE('',#356,11.5);
#36=CYLINDRICAL_SURFACE('',#357,6.75);
#37=CYLINDRICAL_SURFACE('',#358,8.95);
#38=CYLINDRICAL_SURFACE('',#359,9.95);
#39=CYLINDRICAL_SURFACE('',#362,9.35);
#40=CYLINDRICAL_SURFACE('',#363,7.8);
#41=FACE_OUTER_BOUND('',#150,.T.);
#42=FACE_OUTER_BOUND('',#151,.T.);
#43=FACE_OUTER_BOUND('',#152,.T.);
#44=FACE_OUTER_BOUND('',#158,.T.);
#45=FACE_OUTER_BOUND('',#159,.T.);
#46=FACE_OUTER_BOUND('',#163,.T.);
#47=FACE_OUTER_BOUND('',#164,.T.);
#48=FACE_OUTER_BOUND('',#169,.T.);
#49=FACE_OUTER_BOUND('',#172,.T.);
#50=FACE_OUTER_BOUND('',#175,.T.);
#51=ADVANCED_FACE('',(#126,#127,#128,#129),#68,.T.);
#52=ADVANCED_FACE('',(#41),#69,.T.);
#53=ADVANCED_FACE('',(#42),#70,.T.);
#54=ADVANCED_FACE('',(#43),#71,.T.);
#55=ADVANCED_FACE('',(#130,#131,#132,#133,#134),#72,.T.);
#56=ADVANCED_FACE('',(#44),#73,.T.);
#57=ADVANCED_FACE('',(#45),#74,.F.);
#58=ADVANCED_FACE('',(#135,#136,#137),#75,.F.);
#59=ADVANCED_FACE('',(#46),#76,.F.);
#60=ADVANCED_FACE('',(#47),#34,.F.);
#61=ADVANCED_FACE('',(#138,#139),#35,.F.);
#62=ADVANCED_FACE('',(#140,#141),#36,.F.);
#63=ADVANCED_FACE('',(#48),#37,.F.);
#64=ADVANCED_FACE('',(#142,#143),#38,.F.);
#65=ADVANCED_FACE('',(#49),#77,.F.);
#66=ADVANCED_FACE('',(#144,#145),#39,.F.);
#67=ADVANCED_FACE('',(#50),#40,.F.);
#68=PLANE('',#337);
#69=PLANE('',#338);
#70=PLANE('',#339);
#71=PLANE('',#340);
#72=PLANE('',#346);
#73=PLANE('',#347);
#74=PLANE('',#348);
#75=PLANE('',#353);
#76=PLANE('',#354);
#77=PLANE('',#361);
#78=LINE('',#459,#102);
#79=LINE('',#464,#103);
#80=LINE('',#466,#104);
#81=LINE('',#468,#105);
#82=LINE('',#470,#106);
#83=LINE('',#472,#107);
#84=LINE('',#474,#108);
#85=LINE('',#477,#109);
#86=LINE('',#479,#110);
#87=LINE('',#481,#111);
#88=LINE('',#482,#112);
#89=LINE('',#484,#113);
#90=LINE('',#486,#114);
#91=LINE('',#488,#115);
#92=LINE('',#489,#116);
#93=LINE('',#491,#117);
#94=LINE('',#493,#118);
#95=LINE('',#505,#119);
#96=LINE('',#508,#120);
#97=LINE('',#510,#121);
#98=LINE('',#518,#122);
#99=LINE('',#522,#123);
#100=LINE('',#527,#124);
#101=LINE('',#528,#125);
#102=VECTOR('',#372,1.);
#103=VECTOR('',#375,1.);
#104=VECTOR('',#376,1.);
#105=VECTOR('',#377,1.);
#106=VECTOR('',#378,1.);
#107=VECTOR('',#379,1.);
#108=VECTOR('',#382,1.);
#109=VECTOR('',#383,1.);
#110=VECTOR('',#384,1.);
#111=VECTOR('',#385,1.);
#112=VECTOR('',#386,1.);
#113=VECTOR('',#389,1.);
#114=VECTOR('',#390,1.);
#115=VECTOR('',#391,1.);
#116=VECTOR('',#392,1.);
#117=VECTOR('',#395,1.);
#118=VECTOR('',#396,1.);
#119=VECTOR('',#409,1.);
#120=VECTOR('',#414,1.);
#121=VECTOR('',#415,1.);
#122=VECTOR('',#424,1.);
#123=VECTOR('',#429,1.);
#124=VECTOR('',#438,1.);
#125=VECTOR('',#439,1.);
#126=FACE_BOUND('',#146,.T.);
#127=FACE_BOUND('',#147,.T.);
#128=FACE_BOUND('',#148,.T.);
#129=FACE_BOUND('',#149,.T.);
#130=FACE_BOUND('',#153,.T.);
#131=FACE_BOUND('',#154,.T.);
#132=FACE_BOUND('',#155,.T.);
#133=FACE_BOUND('',#156,.T.);
#134=FACE_BOUND('',#157,.T.);
#135=FACE_BOUND('',#160,.T.);
#136=FACE_BOUND('',#161,.T.);
#137=FACE_BOUND('',#162,.T.);
#138=FACE_BOUND('',#165,.T.);
#139=FACE_BOUND('',#166,.T.);
#140=FACE_BOUND('',#167,.T.);
#141=FACE_BOUND('',#168,.T.);
#142=FACE_BOUND('',#170,.T.);
#143=FACE_BOUND('',#171,.T.);
#144=FACE_BOUND('',#173,.T.);
#145=FACE_BOUND('',#174,.T.);
#146=EDGE_LOOP('',(#176));
#147=EDGE_LOOP('',(#177));
#148=EDGE_LOOP('',(#178));
#149=EDGE_LOOP('',(#179,#180,#181,#182,#183,#184,#185));
#150=EDGE_LOOP('',(#186,#187,#188,#189,#190,#191));
#151=EDGE_LOOP('',(#192,#193,#194,#195,#196,#197));
#152=EDGE_LOOP('',(#198,#199,#200,#201));
#153=EDGE_LOOP('',(#202,#203));
#154=EDGE_LOOP('',(#204));
#155=EDGE_LOOP('',(#205));
#156=EDGE_LOOP('',(#206));
#157=EDGE_LOOP('',(#207,#208,#209,#210));
#158=EDGE_LOOP('',(#211,#212,#213,#214));
#159=EDGE_LOOP('',(#215,#216,#217,#218));
#160=EDGE_LOOP('',(#219));
#161=EDGE_LOOP('',(#220,#221));
#162=EDGE_LOOP('',(#222,#223,#224,#225,#226));
#163=EDGE_LOOP('',(#227,#228,#229,#230));
#164=EDGE_LOOP('',(#231,#232,#233,#234));
#165=EDGE_LOOP('',(#235));
#166=EDGE_LOOP('',(#236));
#167=EDGE_LOOP('',(#237));
#168=EDGE_LOOP('',(#238));
#169=EDGE_LOOP('',(#239,#240,#241,#242));
#170=EDGE_LOOP('',(#243));
#171=EDGE_LOOP('',(#244));
#172=EDGE_LOOP('',(#245));
#173=EDGE_LOOP('',(#246));
#174=EDGE_LOOP('',(#247));
#175=EDGE_LOOP('',(#248,#249,#250,#251));
#176=ORIENTED_EDGE('',*,*,#280,.F.);
#177=ORIENTED_EDGE('',*,*,#281,.F.);
#178=ORIENTED_EDGE('',*,*,#282,.F.);
#179=ORIENTED_EDGE('',*,*,#283,.F.);
#180=ORIENTED_EDGE('',*,*,#284,.T.);
#181=ORIENTED_EDGE('',*,*,#285,.F.);
#182=ORIENTED_EDGE('',*,*,#286,.F.);
#183=ORIENTED_EDGE('',*,*,#287,.F.);
#184=ORIENTED_EDGE('',*,*,#288,.F.);
#185=ORIENTED_EDGE('',*,*,#289,.F.);
#186=ORIENTED_EDGE('',*,*,#290,.F.);
#187=ORIENTED_EDGE('',*,*,#291,.F.);
#188=ORIENTED_EDGE('',*,*,#292,.T.);
#189=ORIENTED_EDGE('',*,*,#293,.T.);
#190=ORIENTED_EDGE('',*,*,#286,.T.);
#191=ORIENTED_EDGE('',*,*,#294,.F.);
#192=ORIENTED_EDGE('',*,*,#295,.T.);
#193=ORIENTED_EDGE('',*,*,#289,.T.);
#194=ORIENTED_EDGE('',*,*,#296,.F.);
#195=ORIENTED_EDGE('',*,*,#297,.T.);
#196=ORIENTED_EDGE('',*,*,#291,.T.);
#197=ORIENTED_EDGE('',*,*,#298,.F.);
#198=ORIENTED_EDGE('',*,*,#296,.T.);
#199=ORIENTED_EDGE('',*,*,#288,.T.);
#200=ORIENTED_EDGE('',*,*,#299,.F.);
#201=ORIENTED_EDGE('',*,*,#300,.T.);
#202=ORIENTED_EDGE('',*,*,#301,.F.);
#203=ORIENTED_EDGE('',*,*,#302,.F.);
#204=ORIENTED_EDGE('',*,*,#303,.F.);
#205=ORIENTED_EDGE('',*,*,#304,.F.);
#206=ORIENTED_EDGE('',*,*,#305,.F.);
#207=ORIENTED_EDGE('',*,*,#306,.F.);
#208=ORIENTED_EDGE('',*,*,#292,.F.);
#209=ORIENTED_EDGE('',*,*,#297,.F.);
#210=ORIENTED_EDGE('',*,*,#300,.F.);
#211=ORIENTED_EDGE('',*,*,#306,.T.);
#212=ORIENTED_EDGE('',*,*,#299,.T.);
#213=ORIENTED_EDGE('',*,*,#287,.T.);
#214=ORIENTED_EDGE('',*,*,#293,.F.);
#215=ORIENTED_EDGE('',*,*,#307,.T.);
#216=ORIENTED_EDGE('',*,*,#308,.T.);
#217=ORIENTED_EDGE('',*,*,#283,.T.);
#218=ORIENTED_EDGE('',*,*,#295,.F.);
#219=ORIENTED_EDGE('',*,*,#309,.T.);
#220=ORIENTED_EDGE('',*,*,#310,.T.);
#221=ORIENTED_EDGE('',*,*,#311,.T.);
#222=ORIENTED_EDGE('',*,*,#312,.F.);
#223=ORIENTED_EDGE('',*,*,#313,.T.);
#224=ORIENTED_EDGE('',*,*,#307,.F.);
#225=ORIENTED_EDGE('',*,*,#298,.T.);
#226=ORIENTED_EDGE('',*,*,#290,.T.);
#227=ORIENTED_EDGE('',*,*,#285,.T.);
#228=ORIENTED_EDGE('',*,*,#314,.T.);
#229=ORIENTED_EDGE('',*,*,#312,.T.);
#230=ORIENTED_EDGE('',*,*,#294,.T.);
#231=ORIENTED_EDGE('',*,*,#284,.F.);
#232=ORIENTED_EDGE('',*,*,#308,.F.);
#233=ORIENTED_EDGE('',*,*,#313,.F.);
#234=ORIENTED_EDGE('',*,*,#314,.F.);
#235=ORIENTED_EDGE('',*,*,#282,.T.);
#236=ORIENTED_EDGE('',*,*,#305,.T.);
#237=ORIENTED_EDGE('',*,*,#281,.T.);
#238=ORIENTED_EDGE('',*,*,#304,.T.);
#239=ORIENTED_EDGE('',*,*,#310,.F.);
#240=ORIENTED_EDGE('',*,*,#315,.T.);
#241=ORIENTED_EDGE('',*,*,#302,.T.);
#242=ORIENTED_EDGE('',*,*,#316,.T.);
#243=ORIENTED_EDGE('',*,*,#303,.T.);
#244=ORIENTED_EDGE('',*,*,#309,.F.);
#245=ORIENTED_EDGE('',*,*,#317,.F.);
#246=ORIENTED_EDGE('',*,*,#280,.T.);
#247=ORIENTED_EDGE('',*,*,#317,.T.);
#248=ORIENTED_EDGE('',*,*,#311,.F.);
#249=ORIENTED_EDGE('',*,*,#316,.F.);
#250=ORIENTED_EDGE('',*,*,#301,.T.);
#251=ORIENTED_EDGE('',*,*,#315,.F.);
#252=VERTEX_POINT('',#454);
#253=VERTEX_POINT('',#456);
#254=VERTEX_POINT('',#458);
#255=VERTEX_POINT('',#460);
#256=VERTEX_POINT('',#461);
#257=VERTEX_POINT('',#463);
#258=VERTEX_POINT('',#465);
#259=VERTEX_POINT('',#467);
#260=VERTEX_POINT('',#469);
#261=VERTEX_POINT('',#471);
#262=VERTEX_POINT('',#475);
#263=VERTEX_POINT('',#476);
#264=VERTEX_POINT('',#478);
#265=VERTEX_POINT('',#480);
#266=VERTEX_POINT('',#485);
#267=VERTEX_POINT('',#487);
#268=VERTEX_POINT('',#492);
#269=VERTEX_POINT('',#496);
#270=VERTEX_POINT('',#497);
#271=VERTEX_POINT('',#500);
#272=VERTEX_POINT('',#502);
#273=VERTEX_POINT('',#504);
#274=VERTEX_POINT('',#509);
#275=VERTEX_POINT('',#513);
#276=VERTEX_POINT('',#515);
#277=VERTEX_POINT('',#516);
#278=VERTEX_POINT('',#519);
#279=VERTEX_POINT('',#532);
#280=EDGE_CURVE('',#252,#252,#318,.T.);
#281=EDGE_CURVE('',#253,#253,#319,.T.);
#282=EDGE_CURVE('',#254,#254,#320,.T.);
#283=EDGE_CURVE('',#255,#256,#78,.T.);
#284=EDGE_CURVE('',#255,#257,#321,.T.);
#285=EDGE_CURVE('',#258,#257,#79,.T.);
#286=EDGE_CURVE('',#259,#258,#80,.T.);
#287=EDGE_CURVE('',#260,#259,#81,.T.);
#288=EDGE_CURVE('',#261,#260,#82,.T.);
#289=EDGE_CURVE('',#256,#261,#83,.T.);
#290=EDGE_CURVE('',#262,#263,#84,.T.);
#291=EDGE_CURVE('',#264,#262,#85,.T.);
#292=EDGE_CURVE('',#264,#265,#86,.T.);
#293=EDGE_CURVE('',#265,#259,#87,.T.);
#294=EDGE_CURVE('',#263,#258,#88,.T.);
#295=EDGE_CURVE('',#266,#256,#89,.T.);
#296=EDGE_CURVE('',#267,#261,#90,.T.);
#297=EDGE_CURVE('',#267,#264,#91,.T.);
#298=EDGE_CURVE('',#266,#262,#92,.T.);
#299=EDGE_CURVE('',#268,#260,#93,.T.);
#300=EDGE_CURVE('',#268,#267,#94,.T.);
#301=EDGE_CURVE('',#269,#270,#322,.T.);
#302=EDGE_CURVE('',#270,#269,#323,.T.);
#303=EDGE_CURVE('',#271,#271,#324,.T.);
#304=EDGE_CURVE('',#272,#272,#325,.T.);
#305=EDGE_CURVE('',#273,#273,#326,.T.);
#306=EDGE_CURVE('',#265,#268,#95,.T.);
#307=EDGE_CURVE('',#266,#274,#96,.T.);
#308=EDGE_CURVE('',#274,#255,#97,.T.);
#309=EDGE_CURVE('',#275,#275,#327,.T.);
#310=EDGE_CURVE('',#276,#277,#328,.T.);
#311=EDGE_CURVE('',#277,#276,#329,.T.);
#312=EDGE_CURVE('',#278,#263,#98,.T.);
#313=EDGE_CURVE('',#278,#274,#330,.T.);
#314=EDGE_CURVE('',#257,#278,#99,.T.);
#315=EDGE_CURVE('',#276,#270,#100,.T.);
#316=EDGE_CURVE('',#269,#277,#101,.T.);
#317=EDGE_CURVE('',#279,#279,#331,.T.);
#318=CIRCLE('',#333,9.35);
#319=CIRCLE('',#334,6.75);
#320=CIRCLE('',#335,11.5);
#321=CIRCLE('',#336,10.7);
#322=CIRCLE('',#341,7.8);
#323=CIRCLE('',#342,8.95);
#324=CIRCLE('',#343,9.95);
#325=CIRCLE('',#344,6.75);
#326=CIRCLE('',#345,11.5);
#327=CIRCLE('',#349,9.95);
#328=CIRCLE('',#350,8.95);
#329=CIRCLE('',#351,7.8);
#330=CIRCLE('',#352,10.7);
#331=CIRCLE('',#360,9.35);
#332=AXIS2_PLACEMENT_3D('',#452,#364,#365);
#333=AXIS2_PLACEMENT_3D('',#453,#366,#367);
#334=AXIS2_PLACEMENT_3D('',#455,#368,#369);
#335=AXIS2_PLACEMENT_3D('',#457,#370,#371);
#336=AXIS2_PLACEMENT_3D('',#462,#373,#374);
#337=AXIS2_PLACEMENT_3D('',#473,#380,#381);
#338=AXIS2_PLACEMENT_3D('',#483,#387,#388);
#339=AXIS2_PLACEMENT_3D('',#490,#393,#394);
#340=AXIS2_PLACEMENT_3D('',#494,#397,#398);
#341=AXIS2_PLACEMENT_3D('',#495,#399,#400);
#342=AXIS2_PLACEMENT_3D('',#498,#401,#402);
#343=AXIS2_PLACEMENT_3D('',#499,#403,#404);
#344=AXIS2_PLACEMENT_3D('',#501,#405,#406);
#345=AXIS2_PLACEMENT_3D('',#503,#407,#408);
#346=AXIS2_PLACEMENT_3D('',#506,#410,#411);
#347=AXIS2_PLACEMENT_3D('',#507,#412,#413);
#348=AXIS2_PLACEMENT_3D('',#511,#416,#417);
#349=AXIS2_PLACEMENT_3D('',#512,#418,#419);
#350=AXIS2_PLACEMENT_3D('',#514,#420,#421);
#351=AXIS2_PLACEMENT_3D('',#517,#422,#423);
#352=AXIS2_PLACEMENT_3D('',#520,#425,#426);
#353=AXIS2_PLACEMENT_3D('',#521,#427,#428);
#354=AXIS2_PLACEMENT_3D('',#523,#430,#431);
#355=AXIS2_PLACEMENT_3D('',#524,#432,#433);
#356=AXIS2_PLACEMENT_3D('',#525,#434,#435);
#357=AXIS2_PLACEMENT_3D('',#526,#436,#437);
#358=AXIS2_PLACEMENT_3D('',#529,#440,#441);
#359=AXIS2_PLACEMENT_3D('',#530,#442,#443);
#360=AXIS2_PLACEMENT_3D('',#531,#444,#445);
#361=AXIS2_PLACEMENT_3D('',#533,#446,#447);
#362=AXIS2_PLACEMENT_3D('',#534,#448,#449);
#363=AXIS2_PLACEMENT_3D('',#535,#450,#451);
#364=DIRECTION('',(0.,0.,1.));
#365=DIRECTION('',(1.,0.,0.));
#366=DIRECTION('',(0.,0.,1.));
#367=DIRECTION('',(1.,0.,0.));
#368=DIRECTION('',(0.,0.,1.));
#369=DIRECTION('',(0.999999999999997,0.,0.));
#370=DIRECTION('',(0.,0.,1.));
#371=DIRECTION('',(1.,0.,0.));
#372=DIRECTION('',(-1.,0.,0.));
#373=DIRECTION('',(0.,0.,-1.));
#374=DIRECTION('',(1.,0.,0.));
#375=DIRECTION('',(0.,1.,0.));
#376=DIRECTION('',(-1.,0.,0.));
#377=DIRECTION('',(0.,-1.,0.));
#378=DIRECTION('',(1.,0.,0.));
#379=DIRECTION('',(0.,1.,0.));
#380=DIRECTION('',(0.,0.,1.));
#381=DIRECTION('',(1.,0.,0.));
#382=DIRECTION('',(1.,0.,0.));
#383=DIRECTION('',(0.,0.,1.));
#384=DIRECTION('',(1.,0.,0.));
#385=DIRECTION('',(0.,0.,1.));
#386=DIRECTION('',(0.,0.,1.));
#387=DIRECTION('',(0.,-1.,0.));
#388=DIRECTION('',(0.,0.,-1.));
#389=DIRECTION('',(0.,0.,1.));
#390=DIRECTION('',(0.,0.,1.));
#391=DIRECTION('',(0.,-1.,0.));
#392=DIRECTION('',(0.,-1.,0.));
#393=DIRECTION('',(-1.,0.,0.));
#394=DIRECTION('',(0.,0.,1.));
#395=DIRECTION('',(0.,0.,1.));
#396=DIRECTION('',(-1.,0.,0.));
#397=DIRECTION('',(0.,1.,0.));
#398=DIRECTION('',(0.,0.,1.));
#399=DIRECTION('',(0.,0.,-1.));
#400=DIRECTION('',(-1.,0.,0.));
#401=DIRECTION('',(0.,0.,-1.));
#402=DIRECTION('',(-1.,0.,0.));
#403=DIRECTION('',(0.,0.,-1.));
#404=DIRECTION('',(-1.,0.,0.));
#405=DIRECTION('',(0.,0.,-1.));
#406=DIRECTION('',(-0.999999999999997,0.,0.));
#407=DIRECTION('',(0.,0.,-1.));
#408=DIRECTION('',(-1.,0.,0.));
#409=DIRECTION('',(0.,1.,0.));
#410=DIRECTION('',(0.,0.,-1.));
#411=DIRECTION('',(-1.,0.,0.));
#412=DIRECTION('',(1.,0.,0.));
#413=DIRECTION('',(0.,0.,-1.));
#414=DIRECTION('',(1.,0.,0.));
#415=DIRECTION('',(0.,0.,1.));
#416=DIRECTION('',(0.,1.,0.));
#417=DIRECTION('',(0.,0.,1.));
#418=DIRECTION('',(0.,0.,-1.));
#419=DIRECTION('',(-1.,0.,0.));
#420=DIRECTION('',(0.,0.,-1.));
#421=DIRECTION('',(-1.,0.,0.));
#422=DIRECTION('',(0.,0.,-1.));
#423=DIRECTION('',(-1.,0.,0.));
#424=DIRECTION('',(0.,-1.,0.));
#425=DIRECTION('',(0.,0.,1.));
#426=DIRECTION('',(-1.,0.,0.));
#427=DIRECTION('',(0.,0.,-1.));
#428=DIRECTION('',(-1.,0.,0.));
#429=DIRECTION('',(0.,0.,-1.));
#430=DIRECTION('',(1.,0.,0.));
#431=DIRECTION('',(0.,0.,-1.));
#432=DIRECTION('',(0.,0.,1.));
#433=DIRECTION('',(1.,0.,0.));
#434=DIRECTION('',(0.,0.,-1.));
#435=DIRECTION('',(1.,0.,0.));
#436=DIRECTION('',(0.,0.,-1.));
#437=DIRECTION('',(0.999999999999997,0.,0.));
#438=DIRECTION('',(0.,0.,-1.));
#439=DIRECTION('',(0.,0.,1.));
#440=DIRECTION('',(0.,0.,-1.));
#441=DIRECTION('',(1.,0.,0.));
#442=DIRECTION('',(0.,0.,-1.));
#443=DIRECTION('',(1.,0.,0.));
#444=DIRECTION('',(0.,0.,-1.));
#445=DIRECTION('',(1.,0.,0.));
#446=DIRECTION('',(0.,0.,-1.));
#447=DIRECTION('',(-1.,0.,0.));
#448=DIRECTION('',(0.,0.,-1.));
#449=DIRECTION('',(1.,0.,0.));
#450=DIRECTION('',(0.,0.,-1.));
#451=DIRECTION('',(1.,0.,0.));
#452=CARTESIAN_POINT('',(0.,0.,0.));
#453=CARTESIAN_POINT('',(429.1,239.1,56.));
#454=CARTESIAN_POINT('',(438.45,239.1,56.));
#455=CARTESIAN_POINT('',(321.1,224.2,56.));
#456=CARTESIAN_POINT('',(327.85,224.2,56.));
#457=CARTESIAN_POINT('',(148.2,104.6,56.));
#458=CARTESIAN_POINT('',(159.7,104.6,56.));
#459=CARTESIAN_POINT('',(239.25,82.8,56.));
#460=CARTESIAN_POINT('',(75.6,82.8,56.));
#461=CARTESIAN_POINT('',(0.,82.8,56.));
#462=CARTESIAN_POINT('',(75.6,72.1,56.));
#463=CARTESIAN_POINT('',(86.3,72.1,56.));
#464=CARTESIAN_POINT('',(86.3,153.75,56.));
#465=CARTESIAN_POINT('',(86.3,0.,56.));
#466=CARTESIAN_POINT('',(239.25,0.,56.));
#467=CARTESIAN_POINT('',(478.5,0.,56.));
#468=CARTESIAN_POINT('',(478.5,153.75,56.));
#469=CARTESIAN_POINT('',(478.5,307.5,56.));
#470=CARTESIAN_POINT('',(239.25,307.5,56.));
#471=CARTESIAN_POINT('',(0.,307.5,56.));
#472=CARTESIAN_POINT('',(0.,153.75,56.));
#473=CARTESIAN_POINT('',(239.25,153.75,56.));
#474=CARTESIAN_POINT('',(43.15,0.,29.2));
#475=CARTESIAN_POINT('',(0.,0.,29.2));
#476=CARTESIAN_POINT('',(86.3,0.,29.2));
#477=CARTESIAN_POINT('',(0.,0.,0.));
#478=CARTESIAN_POINT('',(0.,0.,0.));
#479=CARTESIAN_POINT('',(239.25,0.,0.));
#480=CARTESIAN_POINT('',(478.5,0.,0.));
#481=CARTESIAN_POINT('',(478.5,0.,0.));
#482=CARTESIAN_POINT('',(86.3,0.,29.2));
#483=CARTESIAN_POINT('',(239.25,0.,0.));
#484=CARTESIAN_POINT('',(0.,82.8,29.2));
#485=CARTESIAN_POINT('',(0.,82.8,29.2));
#486=CARTESIAN_POINT('',(0.,307.5,0.));
#487=CARTESIAN_POINT('',(0.,307.5,0.));
#488=CARTESIAN_POINT('',(0.,153.75,0.));
#489=CARTESIAN_POINT('',(0.,41.4,29.2));
#490=CARTESIAN_POINT('',(0.,153.75,0.));
#491=CARTESIAN_POINT('',(478.5,307.5,0.));
#492=CARTESIAN_POINT('',(478.5,307.5,0.));
#493=CARTESIAN_POINT('',(239.25,307.5,0.));
#494=CARTESIAN_POINT('',(239.25,307.5,0.));
#495=CARTESIAN_POINT('',(70.6,40.2,0.));
#496=CARTESIAN_POINT('',(75.6063308182626,34.2186413133709,0.));
#497=CARTESIAN_POINT('',(66.3131547871565,46.7163608034792,0.));
#498=CARTESIAN_POINT('',(74.5,43.1,0.));
#499=CARTESIAN_POINT('',(19.3,53.9,0.));
#500=CARTESIAN_POINT('',(9.35,53.9,0.));
#501=CARTESIAN_POINT('',(321.1,224.2,0.));
#502=CARTESIAN_POINT('',(314.35,224.2,0.));
#503=CARTESIAN_POINT('',(148.2,104.6,0.));
#504=CARTESIAN_POINT('',(136.7,104.6,0.));
#505=CARTESIAN_POINT('',(478.5,153.75,0.));
#506=CARTESIAN_POINT('',(239.25,153.75,0.));
#507=CARTESIAN_POINT('',(478.5,153.75,0.));
#508=CARTESIAN_POINT('',(43.15,82.8,29.2));
#509=CARTESIAN_POINT('',(75.6,82.8,29.2));
#510=CARTESIAN_POINT('',(75.6,82.8,56.));
#511=CARTESIAN_POINT('',(43.15,82.8,29.2));
#512=CARTESIAN_POINT('',(19.3,53.9,29.2));
#513=CARTESIAN_POINT('',(9.35,53.9,29.2));
#514=CARTESIAN_POINT('',(74.5,43.1,29.2));
#515=CARTESIAN_POINT('',(66.3131547871565,46.7163608034792,29.2));
#516=CARTESIAN_POINT('',(75.6063308182626,34.2186413133709,29.2));
#517=CARTESIAN_POINT('',(70.6,40.2,29.2));
#518=CARTESIAN_POINT('',(86.3,41.4,29.2));
#519=CARTESIAN_POINT('',(86.3,72.1,29.2));
#520=CARTESIAN_POINT('',(75.6,72.1,29.2));
#521=CARTESIAN_POINT('',(43.15,41.4,29.2));
#522=CARTESIAN_POINT('',(86.3,72.1,29.2));
#523=CARTESIAN_POINT('',(86.3,41.4,29.2));
#524=CARTESIAN_POINT('',(75.6,72.1,29.2));
#525=CARTESIAN_POINT('',(148.2,104.6,56.05));
#526=CARTESIAN_POINT('',(321.1,224.2,56.05));
#527=CARTESIAN_POINT('',(66.3131547871565,46.7163608034792,28.));
#528=CARTESIAN_POINT('',(75.6063308182626,34.2186413133709,28.));
#529=CARTESIAN_POINT('',(74.5,43.1,56.05));
#530=CARTESIAN_POINT('',(19.3,53.9,56.05));
#531=CARTESIAN_POINT('',(429.1,239.1,18.5));
#532=CARTESIAN_POINT('',(438.45,239.1,18.5));
#533=CARTESIAN_POINT('',(429.1,239.1,18.5));
#534=CARTESIAN_POINT('',(429.1,239.1,56.05));
#535=CARTESIAN_POINT('',(70.6,40.2,56.05));
#536=MECHANICAL_DESIGN_GEOMETRIC_PRESENTATION_REPRESENTATION('',(#24),#537);
#537=(
GEOMETRIC_REPRESENTATION_CONTEXT(3)
GLOBAL_UNCERTAINTY_ASSIGNED_CONTEXT((#538))
GLOBAL_UNIT_ASSIGNED_CONTEXT((#544,#540,#539))
REPRESENTATION_CONTEXT('featured_part_02458','TOP_LEVEL_ASSEMBLY_PART')
);
#538=UNCERTAINTY_MEASURE_WITH_UNIT(LENGTH_MEASURE(2.E-5),#544,
'DISTANCE_ACCURACY_VALUE','Maximum Tolerance applied to model');
#539=(
NAMED_UNIT(*)
SI_UNIT($,.STERADIAN.)
SOLID_ANGLE_UNIT()
);
#540=(
CONVERSION_BASED_UNIT('DEGREE',#542)
NAMED_UNIT(#541)
PLANE_ANGLE_UNIT()
);
#541=DIMENSIONAL_EXPONENTS(0.,0.,0.,0.,0.,0.,0.);
#542=PLANE_ANGLE_MEASURE_WITH_UNIT(PLANE_ANGLE_MEASURE(0.0174532925),#543);
#543=(
NAMED_UNIT(*)
PLANE_ANGLE_UNIT()
SI_UNIT($,.RADIAN.)
);
#544=(
LENGTH_UNIT()
NAMED_UNIT(*)
SI_UNIT(.MILLI.,.METRE.)
);
ENDSEC;
END-ISO-10303-21;
