ISO-10303-21;
HEADER;
/* Generated by software containing ST-Developer
 * from STEP Tools, Inc. (www.steptools.com) 
 */
/* OPTION: using custom schema-name function */

FILE_DESCRIPTION(
/* description */ (''),
/* implementation_level */ '2;1');

FILE_NAME(
/* name */ 'featured_part_09980.stp',
/* time_stamp */ '2026-07-11T20:48:48-04:00',
/* author */ (''),
/* organization */ (''),
/* preprocessor_version */ 'ST-DEVELOPER v20.1',
/* originating_system */ 'SIEMENS PLM Software NX2512.6002',
/* authorisation */ '');

FILE_SCHEMA (('AUTOMOTIVE_DESIGN { 1 0 10303 214 3 1 1 1 }'));
ENDSEC;

DATA;
#10=SHAPE_REPRESENTATION_RELATIONSHIP('None',
'relationship between featured_part_09980-None and featured_part_09980
-None',#22,#11);
#11=ADVANCED_BREP_SHAPE_REPRESENTATION('featured_part_09980-None',(#32),
#838);
#12=SHAPE_DEFINITION_REPRESENTATION(#13,#22);
#13=PRODUCT_DEFINITION_SHAPE('','',#14);
#14=PRODUCT_DEFINITION(' ','',#16,#15);
#15=PRODUCT_DEFINITION_CONTEXT('part definition',#21,'design');
#16=PRODUCT_DEFINITION_FORMATION_WITH_SPECIFIED_SOURCE(' ',' ',#18,
 .NOT_KNOWN.);
#17=PRODUCT_RELATED_PRODUCT_CATEGORY('part','',(#18));
#18=PRODUCT('featured_part_09980','featured_part_09980',' ',(#19));
#19=PRODUCT_CONTEXT(' ',#21,'mechanical');
#20=APPLICATION_PROTOCOL_DEFINITION('international standard',
'automotive_design',2010,#21);
#21=APPLICATION_CONTEXT(
'core data for automotive mechanical design processes');
#22=SHAPE_REPRESENTATION('featured_part_09980-None',(#517),#838);
#23=PRESENTATION_LAYER_ASSIGNMENT('1','Layer 1',(#32));
#24=STYLED_ITEM('',(#25),#32);
#25=PRESENTATION_STYLE_ASSIGNMENT((#26));
#26=SURFACE_STYLE_USAGE(.BOTH.,#27);
#27=SURFACE_SIDE_STYLE('',(#28));
#28=SURFACE_STYLE_FILL_AREA(#29);
#29=FILL_AREA_STYLE('',(#30));
#30=FILL_AREA_STYLE_COLOUR('',#31);
#31=COLOUR_RGB('medium steel',0.611764705882353,0.658823529411765,0.670588235294118);
#32=MANIFOLD_SOLID_BREP('',#33);
#33=CLOSED_SHELL('',(#43,#44,#45,#46,#47,#48,#49,#50,#51,#52,#53,#54,#55,
#56,#57,#58,#59,#60,#61,#62,#63,#64,#65,#66,#67,#68));
#34=CYLINDRICAL_SURFACE('',#538,7.7);
#35=CYLINDRICAL_SURFACE('',#539,7.7);
#36=CYLINDRICAL_SURFACE('',#549,6.3);
#37=CYLINDRICAL_SURFACE('',#550,6.3);
#38=CYLINDRICAL_SURFACE('',#551,6.3);
#39=CYLINDRICAL_SURFACE('',#552,6.3);
#40=CYLINDRICAL_SURFACE('',#557,7.2);
#41=FACE_BOUND('',#122,.T.);
#42=FACE_BOUND('',#123,.T.);
#43=ADVANCED_FACE('',(#88),#69,.T.);
#44=ADVANCED_FACE('',(#89),#70,.T.);
#45=ADVANCED_FACE('',(#90),#71,.T.);
#46=ADVANCED_FACE('',(#91),#72,.T.);
#47=ADVANCED_FACE('',(#92),#73,.T.);
#48=ADVANCED_FACE('',(#93),#74,.T.);
#49=ADVANCED_FACE('',(#94),#75,.F.);
#50=ADVANCED_FACE('',(#95),#76,.F.);
#51=ADVANCED_FACE('',(#96),#77,.F.);
#52=ADVANCED_FACE('',(#41,#42),#78,.F.);
#53=ADVANCED_FACE('',(#97),#79,.F.);
#54=ADVANCED_FACE('',(#98),#34,.F.);
#55=ADVANCED_FACE('',(#99),#35,.F.);
#56=ADVANCED_FACE('',(#100),#80,.F.);
#57=ADVANCED_FACE('',(#101),#81,.F.);
#58=ADVANCED_FACE('',(#102),#82,.F.);
#59=ADVANCED_FACE('',(#103),#83,.F.);
#60=ADVANCED_FACE('',(#104),#84,.F.);
#61=ADVANCED_FACE('',(#105),#36,.F.);
#62=ADVANCED_FACE('',(#106),#37,.F.);
#63=ADVANCED_FACE('',(#107),#38,.F.);
#64=ADVANCED_FACE('',(#108),#39,.F.);
#65=ADVANCED_FACE('',(#109),#85,.F.);
#66=ADVANCED_FACE('',(#110),#86,.F.);
#67=ADVANCED_FACE('',(#111),#87,.F.);
#68=ADVANCED_FACE('',(#112),#40,.F.);
#69=PLANE('',#521);
#70=PLANE('',#522);
#71=PLANE('',#523);
#72=PLANE('',#524);
#73=PLANE('',#525);
#74=PLANE('',#526);
#75=PLANE('',#527);
#76=PLANE('',#528);
#77=PLANE('',#529);
#78=PLANE('',#536);
#79=PLANE('',#537);
#80=PLANE('',#540);
#81=PLANE('',#541);
#82=PLANE('',#542);
#83=PLANE('',#543);
#84=PLANE('',#548);
#85=PLANE('',#553);
#86=PLANE('',#554);
#87=PLANE('',#556);
#88=FACE_OUTER_BOUND('',#113,.T.);
#89=FACE_OUTER_BOUND('',#114,.T.);
#90=FACE_OUTER_BOUND('',#115,.T.);
#91=FACE_OUTER_BOUND('',#116,.T.);
#92=FACE_OUTER_BOUND('',#117,.T.);
#93=FACE_OUTER_BOUND('',#118,.T.);
#94=FACE_OUTER_BOUND('',#119,.T.);
#95=FACE_OUTER_BOUND('',#120,.T.);
#96=FACE_OUTER_BOUND('',#121,.T.);
#97=FACE_OUTER_BOUND('',#124,.T.);
#98=FACE_OUTER_BOUND('',#125,.T.);
#99=FACE_OUTER_BOUND('',#126,.T.);
#100=FACE_OUTER_BOUND('',#127,.T.);
#101=FACE_OUTER_BOUND('',#128,.T.);
#102=FACE_OUTER_BOUND('',#129,.T.);
#103=FACE_OUTER_BOUND('',#130,.T.);
#104=FACE_OUTER_BOUND('',#131,.T.);
#105=FACE_OUTER_BOUND('',#132,.T.);
#106=FACE_OUTER_BOUND('',#133,.T.);
#107=FACE_OUTER_BOUND('',#134,.T.);
#108=FACE_OUTER_BOUND('',#135,.T.);
#109=FACE_OUTER_BOUND('',#136,.T.);
#110=FACE_OUTER_BOUND('',#137,.T.);
#111=FACE_OUTER_BOUND('',#138,.T.);
#112=FACE_OUTER_BOUND('',#139,.T.);
#113=EDGE_LOOP('',(#154,#155,#156,#157,#158,#159,#160,#161,#162,#163,#164,
#165,#166));
#114=EDGE_LOOP('',(#167,#168,#169,#170,#171,#172));
#115=EDGE_LOOP('',(#173,#174,#175,#176,#177,#178,#179,#180));
#116=EDGE_LOOP('',(#181,#182,#183,#184,#185));
#117=EDGE_LOOP('',(#186,#187,#188,#189));
#118=EDGE_LOOP('',(#190,#191,#192,#193,#194,#195));
#119=EDGE_LOOP('',(#196,#197,#198,#199));
#120=EDGE_LOOP('',(#200,#201,#202,#203));
#121=EDGE_LOOP('',(#204,#205,#206,#207));
#122=EDGE_LOOP('',(#208,#209,#210,#211,#212,#213,#214,#215));
#123=EDGE_LOOP('',(#216,#217,#218,#219,#220,#221));
#124=EDGE_LOOP('',(#222,#223,#224,#225));
#125=EDGE_LOOP('',(#226,#227,#228,#229));
#126=EDGE_LOOP('',(#230,#231,#232,#233));
#127=EDGE_LOOP('',(#234,#235,#236,#237));
#128=EDGE_LOOP('',(#238,#239,#240,#241));
#129=EDGE_LOOP('',(#242,#243,#244,#245));
#130=EDGE_LOOP('',(#246,#247,#248,#249));
#131=EDGE_LOOP('',(#250,#251,#252,#253,#254,#255,#256,#257));
#132=EDGE_LOOP('',(#258,#259,#260,#261));
#133=EDGE_LOOP('',(#262,#263,#264,#265));
#134=EDGE_LOOP('',(#266,#267,#268,#269));
#135=EDGE_LOOP('',(#270,#271,#272,#273));
#136=EDGE_LOOP('',(#274,#275,#276,#277));
#137=EDGE_LOOP('',(#278,#279,#280,#281,#282));
#138=EDGE_LOOP('',(#283,#284,#285,#286,#287));
#139=EDGE_LOOP('',(#288,#289,#290,#291));
#140=CIRCLE('',#518,7.2);
#141=CIRCLE('',#519,7.7);
#142=CIRCLE('',#520,7.7);
#143=CIRCLE('',#530,6.3);
#144=CIRCLE('',#531,6.3);
#145=CIRCLE('',#532,6.3);
#146=CIRCLE('',#533,6.3);
#147=CIRCLE('',#534,7.7);
#148=CIRCLE('',#535,7.7);
#149=CIRCLE('',#544,6.3);
#150=CIRCLE('',#545,6.3);
#151=CIRCLE('',#546,6.3);
#152=CIRCLE('',#547,6.3);
#153=CIRCLE('',#555,7.2);
#154=ORIENTED_EDGE('',*,*,#338,.F.);
#155=ORIENTED_EDGE('',*,*,#339,.T.);
#156=ORIENTED_EDGE('',*,*,#340,.F.);
#157=ORIENTED_EDGE('',*,*,#341,.T.);
#158=ORIENTED_EDGE('',*,*,#342,.F.);
#159=ORIENTED_EDGE('',*,*,#343,.F.);
#160=ORIENTED_EDGE('',*,*,#344,.F.);
#161=ORIENTED_EDGE('',*,*,#345,.T.);
#162=ORIENTED_EDGE('',*,*,#346,.F.);
#163=ORIENTED_EDGE('',*,*,#347,.T.);
#164=ORIENTED_EDGE('',*,*,#348,.F.);
#165=ORIENTED_EDGE('',*,*,#349,.F.);
#166=ORIENTED_EDGE('',*,*,#350,.F.);
#167=ORIENTED_EDGE('',*,*,#351,.T.);
#168=ORIENTED_EDGE('',*,*,#350,.T.);
#169=ORIENTED_EDGE('',*,*,#352,.F.);
#170=ORIENTED_EDGE('',*,*,#353,.T.);
#171=ORIENTED_EDGE('',*,*,#354,.T.);
#172=ORIENTED_EDGE('',*,*,#355,.F.);
#173=ORIENTED_EDGE('',*,*,#356,.F.);
#174=ORIENTED_EDGE('',*,*,#357,.F.);
#175=ORIENTED_EDGE('',*,*,#358,.T.);
#176=ORIENTED_EDGE('',*,*,#343,.T.);
#177=ORIENTED_EDGE('',*,*,#359,.F.);
#178=ORIENTED_EDGE('',*,*,#360,.T.);
#179=ORIENTED_EDGE('',*,*,#352,.T.);
#180=ORIENTED_EDGE('',*,*,#349,.T.);
#181=ORIENTED_EDGE('',*,*,#342,.T.);
#182=ORIENTED_EDGE('',*,*,#361,.T.);
#183=ORIENTED_EDGE('',*,*,#362,.F.);
#184=ORIENTED_EDGE('',*,*,#363,.T.);
#185=ORIENTED_EDGE('',*,*,#359,.T.);
#186=ORIENTED_EDGE('',*,*,#364,.F.);
#187=ORIENTED_EDGE('',*,*,#353,.F.);
#188=ORIENTED_EDGE('',*,*,#360,.F.);
#189=ORIENTED_EDGE('',*,*,#363,.F.);
#190=ORIENTED_EDGE('',*,*,#365,.F.);
#191=ORIENTED_EDGE('',*,*,#366,.F.);
#192=ORIENTED_EDGE('',*,*,#354,.F.);
#193=ORIENTED_EDGE('',*,*,#364,.T.);
#194=ORIENTED_EDGE('',*,*,#362,.T.);
#195=ORIENTED_EDGE('',*,*,#367,.T.);
#196=ORIENTED_EDGE('',*,*,#368,.F.);
#197=ORIENTED_EDGE('',*,*,#367,.F.);
#198=ORIENTED_EDGE('',*,*,#361,.F.);
#199=ORIENTED_EDGE('',*,*,#341,.F.);
#200=ORIENTED_EDGE('',*,*,#348,.T.);
#201=ORIENTED_EDGE('',*,*,#369,.T.);
#202=ORIENTED_EDGE('',*,*,#370,.T.);
#203=ORIENTED_EDGE('',*,*,#356,.T.);
#204=ORIENTED_EDGE('',*,*,#371,.T.);
#205=ORIENTED_EDGE('',*,*,#372,.T.);
#206=ORIENTED_EDGE('',*,*,#344,.T.);
#207=ORIENTED_EDGE('',*,*,#358,.F.);
#208=ORIENTED_EDGE('',*,*,#373,.T.);
#209=ORIENTED_EDGE('',*,*,#374,.T.);
#210=ORIENTED_EDGE('',*,*,#375,.T.);
#211=ORIENTED_EDGE('',*,*,#376,.T.);
#212=ORIENTED_EDGE('',*,*,#377,.T.);
#213=ORIENTED_EDGE('',*,*,#378,.T.);
#214=ORIENTED_EDGE('',*,*,#379,.T.);
#215=ORIENTED_EDGE('',*,*,#380,.T.);
#216=ORIENTED_EDGE('',*,*,#381,.F.);
#217=ORIENTED_EDGE('',*,*,#382,.T.);
#218=ORIENTED_EDGE('',*,*,#371,.F.);
#219=ORIENTED_EDGE('',*,*,#357,.T.);
#220=ORIENTED_EDGE('',*,*,#370,.F.);
#221=ORIENTED_EDGE('',*,*,#383,.T.);
#222=ORIENTED_EDGE('',*,*,#346,.T.);
#223=ORIENTED_EDGE('',*,*,#384,.T.);
#224=ORIENTED_EDGE('',*,*,#381,.T.);
#225=ORIENTED_EDGE('',*,*,#385,.T.);
#226=ORIENTED_EDGE('',*,*,#345,.F.);
#227=ORIENTED_EDGE('',*,*,#372,.F.);
#228=ORIENTED_EDGE('',*,*,#382,.F.);
#229=ORIENTED_EDGE('',*,*,#384,.F.);
#230=ORIENTED_EDGE('',*,*,#347,.F.);
#231=ORIENTED_EDGE('',*,*,#385,.F.);
#232=ORIENTED_EDGE('',*,*,#383,.F.);
#233=ORIENTED_EDGE('',*,*,#369,.F.);
#234=ORIENTED_EDGE('',*,*,#377,.F.);
#235=ORIENTED_EDGE('',*,*,#386,.T.);
#236=ORIENTED_EDGE('',*,*,#387,.T.);
#237=ORIENTED_EDGE('',*,*,#388,.T.);
#238=ORIENTED_EDGE('',*,*,#389,.T.);
#239=ORIENTED_EDGE('',*,*,#390,.T.);
#240=ORIENTED_EDGE('',*,*,#379,.F.);
#241=ORIENTED_EDGE('',*,*,#391,.T.);
#242=ORIENTED_EDGE('',*,*,#373,.F.);
#243=ORIENTED_EDGE('',*,*,#392,.T.);
#244=ORIENTED_EDGE('',*,*,#393,.T.);
#245=ORIENTED_EDGE('',*,*,#394,.T.);
#246=ORIENTED_EDGE('',*,*,#395,.T.);
#247=ORIENTED_EDGE('',*,*,#396,.T.);
#248=ORIENTED_EDGE('',*,*,#375,.F.);
#249=ORIENTED_EDGE('',*,*,#397,.T.);
#250=ORIENTED_EDGE('',*,*,#393,.F.);
#251=ORIENTED_EDGE('',*,*,#398,.T.);
#252=ORIENTED_EDGE('',*,*,#389,.F.);
#253=ORIENTED_EDGE('',*,*,#399,.T.);
#254=ORIENTED_EDGE('',*,*,#387,.F.);
#255=ORIENTED_EDGE('',*,*,#400,.T.);
#256=ORIENTED_EDGE('',*,*,#395,.F.);
#257=ORIENTED_EDGE('',*,*,#401,.T.);
#258=ORIENTED_EDGE('',*,*,#380,.F.);
#259=ORIENTED_EDGE('',*,*,#390,.F.);
#260=ORIENTED_EDGE('',*,*,#398,.F.);
#261=ORIENTED_EDGE('',*,*,#392,.F.);
#262=ORIENTED_EDGE('',*,*,#376,.F.);
#263=ORIENTED_EDGE('',*,*,#396,.F.);
#264=ORIENTED_EDGE('',*,*,#400,.F.);
#265=ORIENTED_EDGE('',*,*,#386,.F.);
#266=ORIENTED_EDGE('',*,*,#374,.F.);
#267=ORIENTED_EDGE('',*,*,#394,.F.);
#268=ORIENTED_EDGE('',*,*,#401,.F.);
#269=ORIENTED_EDGE('',*,*,#397,.F.);
#270=ORIENTED_EDGE('',*,*,#378,.F.);
#271=ORIENTED_EDGE('',*,*,#388,.F.);
#272=ORIENTED_EDGE('',*,*,#399,.F.);
#273=ORIENTED_EDGE('',*,*,#391,.F.);
#274=ORIENTED_EDGE('',*,*,#402,.T.);
#275=ORIENTED_EDGE('',*,*,#403,.T.);
#276=ORIENTED_EDGE('',*,*,#338,.T.);
#277=ORIENTED_EDGE('',*,*,#351,.F.);
#278=ORIENTED_EDGE('',*,*,#340,.T.);
#279=ORIENTED_EDGE('',*,*,#404,.T.);
#280=ORIENTED_EDGE('',*,*,#405,.T.);
#281=ORIENTED_EDGE('',*,*,#365,.T.);
#282=ORIENTED_EDGE('',*,*,#368,.T.);
#283=ORIENTED_EDGE('',*,*,#405,.F.);
#284=ORIENTED_EDGE('',*,*,#406,.T.);
#285=ORIENTED_EDGE('',*,*,#402,.F.);
#286=ORIENTED_EDGE('',*,*,#355,.T.);
#287=ORIENTED_EDGE('',*,*,#366,.T.);
#288=ORIENTED_EDGE('',*,*,#339,.F.);
#289=ORIENTED_EDGE('',*,*,#403,.F.);
#290=ORIENTED_EDGE('',*,*,#406,.F.);
#291=ORIENTED_EDGE('',*,*,#404,.F.);
#292=VERTEX_POINT('',#697);
#293=VERTEX_POINT('',#698);
#294=VERTEX_POINT('',#700);
#295=VERTEX_POINT('',#702);
#296=VERTEX_POINT('',#704);
#297=VERTEX_POINT('',#706);
#298=VERTEX_POINT('',#708);
#299=VERTEX_POINT('',#710);
#300=VERTEX_POINT('',#712);
#301=VERTEX_POINT('',#714);
#302=VERTEX_POINT('',#716);
#303=VERTEX_POINT('',#718);
#304=VERTEX_POINT('',#720);
#305=VERTEX_POINT('',#724);
#306=VERTEX_POINT('',#726);
#307=VERTEX_POINT('',#728);
#308=VERTEX_POINT('',#730);
#309=VERTEX_POINT('',#734);
#310=VERTEX_POINT('',#736);
#311=VERTEX_POINT('',#739);
#312=VERTEX_POINT('',#743);
#313=VERTEX_POINT('',#745);
#314=VERTEX_POINT('',#751);
#315=VERTEX_POINT('',#752);
#316=VERTEX_POINT('',#759);
#317=VERTEX_POINT('',#763);
#318=VERTEX_POINT('',#767);
#319=VERTEX_POINT('',#768);
#320=VERTEX_POINT('',#770);
#321=VERTEX_POINT('',#772);
#322=VERTEX_POINT('',#774);
#323=VERTEX_POINT('',#776);
#324=VERTEX_POINT('',#778);
#325=VERTEX_POINT('',#780);
#326=VERTEX_POINT('',#783);
#327=VERTEX_POINT('',#784);
#328=VERTEX_POINT('',#794);
#329=VERTEX_POINT('',#796);
#330=VERTEX_POINT('',#800);
#331=VERTEX_POINT('',#801);
#332=VERTEX_POINT('',#806);
#333=VERTEX_POINT('',#808);
#334=VERTEX_POINT('',#812);
#335=VERTEX_POINT('',#813);
#336=VERTEX_POINT('',#827);
#337=VERTEX_POINT('',#831);
#338=EDGE_CURVE('',#292,#293,#407,.T.);
#339=EDGE_CURVE('',#292,#294,#140,.T.);
#340=EDGE_CURVE('',#295,#294,#408,.T.);
#341=EDGE_CURVE('',#295,#296,#409,.T.);
#342=EDGE_CURVE('',#297,#296,#410,.T.);
#343=EDGE_CURVE('',#298,#297,#411,.T.);
#344=EDGE_CURVE('',#299,#298,#412,.T.);
#345=EDGE_CURVE('',#299,#300,#141,.T.);
#346=EDGE_CURVE('',#301,#300,#413,.T.);
#347=EDGE_CURVE('',#301,#302,#142,.T.);
#348=EDGE_CURVE('',#303,#302,#414,.T.);
#349=EDGE_CURVE('',#304,#303,#415,.T.);
#350=EDGE_CURVE('',#293,#304,#416,.T.);
#351=EDGE_CURVE('',#305,#293,#417,.T.);
#352=EDGE_CURVE('',#306,#304,#418,.T.);
#353=EDGE_CURVE('',#306,#307,#419,.T.);
#354=EDGE_CURVE('',#307,#308,#420,.T.);
#355=EDGE_CURVE('',#305,#308,#421,.T.);
#356=EDGE_CURVE('',#309,#303,#422,.T.);
#357=EDGE_CURVE('',#310,#309,#423,.T.);
#358=EDGE_CURVE('',#310,#298,#424,.T.);
#359=EDGE_CURVE('',#311,#297,#425,.T.);
#360=EDGE_CURVE('',#311,#306,#426,.T.);
#361=EDGE_CURVE('',#296,#312,#427,.T.);
#362=EDGE_CURVE('',#313,#312,#428,.T.);
#363=EDGE_CURVE('',#313,#311,#429,.T.);
#364=EDGE_CURVE('',#307,#313,#430,.T.);
#365=EDGE_CURVE('',#314,#315,#431,.T.);
#366=EDGE_CURVE('',#308,#314,#432,.T.);
#367=EDGE_CURVE('',#312,#315,#433,.T.);
#368=EDGE_CURVE('',#315,#295,#434,.T.);
#369=EDGE_CURVE('',#302,#316,#435,.T.);
#370=EDGE_CURVE('',#316,#309,#436,.T.);
#371=EDGE_CURVE('',#310,#317,#437,.T.);
#372=EDGE_CURVE('',#317,#299,#438,.T.);
#373=EDGE_CURVE('',#318,#319,#439,.T.);
#374=EDGE_CURVE('',#319,#320,#143,.T.);
#375=EDGE_CURVE('',#320,#321,#440,.T.);
#376=EDGE_CURVE('',#321,#322,#144,.T.);
#377=EDGE_CURVE('',#322,#323,#441,.T.);
#378=EDGE_CURVE('',#323,#324,#145,.T.);
#379=EDGE_CURVE('',#324,#325,#442,.T.);
#380=EDGE_CURVE('',#325,#318,#146,.T.);
#381=EDGE_CURVE('',#326,#327,#443,.T.);
#382=EDGE_CURVE('',#326,#317,#147,.T.);
#383=EDGE_CURVE('',#316,#327,#148,.T.);
#384=EDGE_CURVE('',#300,#326,#444,.T.);
#385=EDGE_CURVE('',#327,#301,#445,.T.);
#386=EDGE_CURVE('',#322,#328,#446,.T.);
#387=EDGE_CURVE('',#328,#329,#447,.T.);
#388=EDGE_CURVE('',#329,#323,#448,.T.);
#389=EDGE_CURVE('',#330,#331,#449,.T.);
#390=EDGE_CURVE('',#331,#325,#450,.T.);
#391=EDGE_CURVE('',#324,#330,#451,.T.);
#392=EDGE_CURVE('',#318,#332,#452,.T.);
#393=EDGE_CURVE('',#332,#333,#453,.T.);
#394=EDGE_CURVE('',#333,#319,#454,.T.);
#395=EDGE_CURVE('',#334,#335,#455,.T.);
#396=EDGE_CURVE('',#335,#321,#456,.T.);
#397=EDGE_CURVE('',#320,#334,#457,.T.);
#398=EDGE_CURVE('',#332,#331,#149,.T.);
#399=EDGE_CURVE('',#330,#329,#150,.T.);
#400=EDGE_CURVE('',#328,#335,#151,.T.);
#401=EDGE_CURVE('',#334,#333,#152,.T.);
#402=EDGE_CURVE('',#305,#336,#458,.T.);
#403=EDGE_CURVE('',#336,#292,#459,.T.);
#404=EDGE_CURVE('',#294,#337,#460,.T.);
#405=EDGE_CURVE('',#337,#314,#461,.T.);
#406=EDGE_CURVE('',#337,#336,#153,.T.);
#407=LINE('',#696,#462);
#408=LINE('',#701,#463);
#409=LINE('',#703,#464);
#410=LINE('',#705,#465);
#411=LINE('',#707,#466);
#412=LINE('',#709,#467);
#413=LINE('',#713,#468);
#414=LINE('',#717,#469);
#415=LINE('',#719,#470);
#416=LINE('',#721,#471);
#417=LINE('',#723,#472);
#418=LINE('',#725,#473);
#419=LINE('',#727,#474);
#420=LINE('',#729,#475);
#421=LINE('',#731,#476);
#422=LINE('',#733,#477);
#423=LINE('',#735,#478);
#424=LINE('',#737,#479);
#425=LINE('',#738,#480);
#426=LINE('',#740,#481);
#427=LINE('',#742,#482);
#428=LINE('',#744,#483);
#429=LINE('',#746,#484);
#430=LINE('',#748,#485);
#431=LINE('',#750,#486);
#432=LINE('',#753,#487);
#433=LINE('',#754,#488);
#434=LINE('',#756,#489);
#435=LINE('',#758,#490);
#436=LINE('',#760,#491);
#437=LINE('',#762,#492);
#438=LINE('',#764,#493);
#439=LINE('',#766,#494);
#440=LINE('',#771,#495);
#441=LINE('',#775,#496);
#442=LINE('',#779,#497);
#443=LINE('',#782,#498);
#444=LINE('',#788,#499);
#445=LINE('',#789,#500);
#446=LINE('',#793,#501);
#447=LINE('',#795,#502);
#448=LINE('',#797,#503);
#449=LINE('',#799,#504);
#450=LINE('',#802,#505);
#451=LINE('',#803,#506);
#452=LINE('',#805,#507);
#453=LINE('',#807,#508);
#454=LINE('',#809,#509);
#455=LINE('',#811,#510);
#456=LINE('',#814,#511);
#457=LINE('',#815,#512);
#458=LINE('',#826,#513);
#459=LINE('',#828,#514);
#460=LINE('',#830,#515);
#461=LINE('',#832,#516);
#462=VECTOR('',#560,1.);
#463=VECTOR('',#563,1.);
#464=VECTOR('',#564,1.);
#465=VECTOR('',#565,1.);
#466=VECTOR('',#566,1.);
#467=VECTOR('',#567,1.);
#468=VECTOR('',#570,1.);
#469=VECTOR('',#573,1.);
#470=VECTOR('',#574,1.);
#471=VECTOR('',#575,1.);
#472=VECTOR('',#578,1.);
#473=VECTOR('',#579,1.);
#474=VECTOR('',#580,1.);
#475=VECTOR('',#581,1.);
#476=VECTOR('',#582,1.);
#477=VECTOR('',#585,1.);
#478=VECTOR('',#586,1.);
#479=VECTOR('',#587,1.);
#480=VECTOR('',#588,1.);
#481=VECTOR('',#589,1.);
#482=VECTOR('',#592,1.);
#483=VECTOR('',#593,1.);
#484=VECTOR('',#594,1.);
#485=VECTOR('',#597,1.);
#486=VECTOR('',#600,1.);
#487=VECTOR('',#601,1.);
#488=VECTOR('',#602,1.);
#489=VECTOR('',#605,1.);
#490=VECTOR('',#608,1.);
#491=VECTOR('',#609,1.);
#492=VECTOR('',#612,1.);
#493=VECTOR('',#613,1.);
#494=VECTOR('',#616,1.);
#495=VECTOR('',#619,1.);
#496=VECTOR('',#622,1.);
#497=VECTOR('',#625,1.);
#498=VECTOR('',#628,1.);
#499=VECTOR('',#635,1.);
#500=VECTOR('',#636,1.);
#501=VECTOR('',#643,1.);
#502=VECTOR('',#644,1.);
#503=VECTOR('',#645,1.);
#504=VECTOR('',#648,1.);
#505=VECTOR('',#649,1.);
#506=VECTOR('',#650,1.);
#507=VECTOR('',#653,1.);
#508=VECTOR('',#654,1.);
#509=VECTOR('',#655,1.);
#510=VECTOR('',#658,1.);
#511=VECTOR('',#659,1.);
#512=VECTOR('',#660,1.);
#513=VECTOR('',#681,1.);
#514=VECTOR('',#682,1.);
#515=VECTOR('',#685,1.);
#516=VECTOR('',#686,1.);
#517=AXIS2_PLACEMENT_3D('',#695,#558,#559);
#518=AXIS2_PLACEMENT_3D('',#699,#561,#562);
#519=AXIS2_PLACEMENT_3D('',#711,#568,#569);
#520=AXIS2_PLACEMENT_3D('',#715,#571,#572);
#521=AXIS2_PLACEMENT_3D('',#722,#576,#577);
#522=AXIS2_PLACEMENT_3D('',#732,#583,#584);
#523=AXIS2_PLACEMENT_3D('',#741,#590,#591);
#524=AXIS2_PLACEMENT_3D('',#747,#595,#596);
#525=AXIS2_PLACEMENT_3D('',#749,#598,#599);
#526=AXIS2_PLACEMENT_3D('',#755,#603,#604);
#527=AXIS2_PLACEMENT_3D('',#757,#606,#607);
#528=AXIS2_PLACEMENT_3D('',#761,#610,#611);
#529=AXIS2_PLACEMENT_3D('',#765,#614,#615);
#530=AXIS2_PLACEMENT_3D('',#769,#617,#618);
#531=AXIS2_PLACEMENT_3D('',#773,#620,#621);
#532=AXIS2_PLACEMENT_3D('',#777,#623,#624);
#533=AXIS2_PLACEMENT_3D('',#781,#626,#627);
#534=AXIS2_PLACEMENT_3D('',#785,#629,#630);
#535=AXIS2_PLACEMENT_3D('',#786,#631,#632);
#536=AXIS2_PLACEMENT_3D('',#787,#633,#634);
#537=AXIS2_PLACEMENT_3D('',#790,#637,#638);
#538=AXIS2_PLACEMENT_3D('',#791,#639,#640);
#539=AXIS2_PLACEMENT_3D('',#792,#641,#642);
#540=AXIS2_PLACEMENT_3D('',#798,#646,#647);
#541=AXIS2_PLACEMENT_3D('',#804,#651,#652);
#542=AXIS2_PLACEMENT_3D('',#810,#656,#657);
#543=AXIS2_PLACEMENT_3D('',#816,#661,#662);
#544=AXIS2_PLACEMENT_3D('',#817,#663,#664);
#545=AXIS2_PLACEMENT_3D('',#818,#665,#666);
#546=AXIS2_PLACEMENT_3D('',#819,#667,#668);
#547=AXIS2_PLACEMENT_3D('',#820,#669,#670);
#548=AXIS2_PLACEMENT_3D('',#821,#671,#672);
#549=AXIS2_PLACEMENT_3D('',#822,#673,#674);
#550=AXIS2_PLACEMENT_3D('',#823,#675,#676);
#551=AXIS2_PLACEMENT_3D('',#824,#677,#678);
#552=AXIS2_PLACEMENT_3D('',#825,#679,#680);
#553=AXIS2_PLACEMENT_3D('',#829,#683,#684);
#554=AXIS2_PLACEMENT_3D('',#833,#687,#688);
#555=AXIS2_PLACEMENT_3D('',#834,#689,#690);
#556=AXIS2_PLACEMENT_3D('',#835,#691,#692);
#557=AXIS2_PLACEMENT_3D('',#836,#693,#694);
#558=DIRECTION('',(0.,0.,1.));
#559=DIRECTION('',(1.,0.,0.));
#560=DIRECTION('',(0.,-1.,0.));
#561=DIRECTION('',(0.,0.,-1.));
#562=DIRECTION('',(1.,0.,0.));
#563=DIRECTION('',(-1.,0.,0.));
#564=DIRECTION('',(0.,1.,0.));
#565=DIRECTION('',(1.,0.,0.));
#566=DIRECTION('',(0.,1.,0.));
#567=DIRECTION('',(-1.,0.,0.));
#568=DIRECTION('',(0.,0.,-1.));
#569=DIRECTION('',(1.,0.,0.));
#570=DIRECTION('',(0.,1.,0.));
#571=DIRECTION('',(0.,0.,-1.));
#572=DIRECTION('',(1.,0.,0.));
#573=DIRECTION('',(1.,0.,0.));
#574=DIRECTION('',(0.,1.,0.));
#575=DIRECTION('',(-1.,0.,0.));
#576=DIRECTION('',(0.,0.,1.));
#577=DIRECTION('',(1.,0.,0.));
#578=DIRECTION('',(0.,0.,1.));
#579=DIRECTION('',(0.,0.,1.));
#580=DIRECTION('',(1.,0.,0.));
#581=DIRECTION('',(0.,0.,1.));
#582=DIRECTION('',(1.,0.,0.));
#583=DIRECTION('',(0.,-1.,0.));
#584=DIRECTION('',(0.,0.,-1.));
#585=DIRECTION('',(0.,0.,1.));
#586=DIRECTION('',(0.,-1.,0.));
#587=DIRECTION('',(0.,0.,1.));
#588=DIRECTION('',(0.,0.,1.));
#589=DIRECTION('',(0.,-1.,0.));
#590=DIRECTION('',(-1.,0.,0.));
#591=DIRECTION('',(0.,0.,1.));
#592=DIRECTION('',(0.707106781186548,0.,-0.707106781186548));
#593=DIRECTION('',(0.,0.,1.));
#594=DIRECTION('',(-1.,0.,0.));
#595=DIRECTION('',(0.,1.,0.));
#596=DIRECTION('',(0.,0.,1.));
#597=DIRECTION('',(0.,1.,0.));
#598=DIRECTION('',(0.,0.,-1.));
#599=DIRECTION('',(-1.,0.,0.));
#600=DIRECTION('',(0.,0.,1.));
#601=DIRECTION('',(0.,1.,0.));
#602=DIRECTION('',(0.,-1.,0.));
#603=DIRECTION('',(1.,0.,0.));
#604=DIRECTION('',(0.,0.,-1.));
#605=DIRECTION('',(-0.707106781186548,0.,0.707106781186548));
#606=DIRECTION('',(-0.707106781186547,0.,-0.707106781186547));
#607=DIRECTION('',(0.,-1.,0.));
#608=DIRECTION('',(0.,0.,-1.));
#609=DIRECTION('',(-1.,0.,0.));
#610=DIRECTION('',(0.,-1.,0.));
#611=DIRECTION('',(0.,0.,-1.));
#612=DIRECTION('',(1.,0.,0.));
#613=DIRECTION('',(0.,0.,1.));
#614=DIRECTION('',(0.,1.,0.));
#615=DIRECTION('',(0.,0.,1.));
#616=DIRECTION('',(1.,0.,0.));
#617=DIRECTION('',(0.,0.,-1.));
#618=DIRECTION('',(-1.,0.,0.));
#619=DIRECTION('',(0.,-1.,0.));
#620=DIRECTION('',(0.,0.,-1.));
#621=DIRECTION('',(-1.,0.,0.));
#622=DIRECTION('',(-1.,0.,0.));
#623=DIRECTION('',(0.,0.,-1.));
#624=DIRECTION('',(-1.,0.,0.));
#625=DIRECTION('',(0.,1.,0.));
#626=DIRECTION('',(0.,0.,-1.));
#627=DIRECTION('',(-1.,0.,0.));
#628=DIRECTION('',(0.,-1.,0.));
#629=DIRECTION('',(0.,0.,1.));
#630=DIRECTION('',(-1.,0.,0.));
#631=DIRECTION('',(0.,0.,1.));
#632=DIRECTION('',(-1.,0.,0.));
#633=DIRECTION('',(0.,0.,-1.));
#634=DIRECTION('',(-1.,0.,0.));
#635=DIRECTION('',(0.,0.,-1.));
#636=DIRECTION('',(0.,0.,1.));
#637=DIRECTION('',(1.,0.,0.));
#638=DIRECTION('',(0.,0.,-1.));
#639=DIRECTION('',(0.,0.,1.));
#640=DIRECTION('',(1.,0.,0.));
#641=DIRECTION('',(0.,0.,1.));
#642=DIRECTION('',(1.,0.,0.));
#643=DIRECTION('',(0.,0.,-1.));
#644=DIRECTION('',(-1.,0.,0.));
#645=DIRECTION('',(0.,0.,1.));
#646=DIRECTION('',(0.,-1.,0.));
#647=DIRECTION('',(0.,0.,-1.));
#648=DIRECTION('',(0.,1.,0.));
#649=DIRECTION('',(0.,0.,1.));
#650=DIRECTION('',(0.,0.,-1.));
#651=DIRECTION('',(-1.,0.,0.));
#652=DIRECTION('',(0.,0.,1.));
#653=DIRECTION('',(0.,0.,-1.));
#654=DIRECTION('',(1.,0.,0.));
#655=DIRECTION('',(0.,0.,1.));
#656=DIRECTION('',(0.,1.,0.));
#657=DIRECTION('',(0.,0.,1.));
#658=DIRECTION('',(0.,-1.,0.));
#659=DIRECTION('',(0.,0.,1.));
#660=DIRECTION('',(0.,0.,-1.));
#661=DIRECTION('',(1.,0.,0.));
#662=DIRECTION('',(0.,0.,-1.));
#663=DIRECTION('',(0.,0.,1.));
#664=DIRECTION('',(-1.,0.,0.));
#665=DIRECTION('',(0.,0.,1.));
#666=DIRECTION('',(-1.,0.,0.));
#667=DIRECTION('',(0.,0.,1.));
#668=DIRECTION('',(-1.,0.,0.));
#669=DIRECTION('',(0.,0.,1.));
#670=DIRECTION('',(-1.,0.,0.));
#671=DIRECTION('',(0.,0.,-1.));
#672=DIRECTION('',(-1.,0.,0.));
#673=DIRECTION('',(0.,0.,1.));
#674=DIRECTION('',(1.,0.,0.));
#675=DIRECTION('',(0.,0.,1.));
#676=DIRECTION('',(1.,0.,0.));
#677=DIRECTION('',(0.,0.,1.));
#678=DIRECTION('',(1.,0.,0.));
#679=DIRECTION('',(0.,0.,1.));
#680=DIRECTION('',(1.,0.,0.));
#681=DIRECTION('',(0.,1.,0.));
#682=DIRECTION('',(0.,0.,1.));
#683=DIRECTION('',(-1.,0.,0.));
#684=DIRECTION('',(0.,0.,1.));
#685=DIRECTION('',(0.,0.,-1.));
#686=DIRECTION('',(1.,0.,0.));
#687=DIRECTION('',(0.,1.,0.));
#688=DIRECTION('',(0.,0.,1.));
#689=DIRECTION('',(0.,0.,1.));
#690=DIRECTION('',(-1.,0.,0.));
#691=DIRECTION('',(0.,0.,-1.));
#692=DIRECTION('',(-1.,0.,0.));
#693=DIRECTION('',(0.,0.,1.));
#694=DIRECTION('',(1.,0.,0.));
#695=CARTESIAN_POINT('',(0.,0.,0.));
#696=CARTESIAN_POINT('',(145.2,182.2,71.7));
#697=CARTESIAN_POINT('',(145.2,47.6,71.7));
#698=CARTESIAN_POINT('',(145.2,0.,71.7));
#699=CARTESIAN_POINT('',(152.4,47.6,71.7));
#700=CARTESIAN_POINT('',(152.4,54.8,71.7));
#701=CARTESIAN_POINT('',(102.3,54.8,71.7));
#702=CARTESIAN_POINT('',(201.8,54.8,71.7));
#703=CARTESIAN_POINT('',(201.8,182.2,71.7));
#704=CARTESIAN_POINT('',(201.8,364.4,71.7));
#705=CARTESIAN_POINT('',(102.3,364.4,71.7));
#706=CARTESIAN_POINT('',(0.,364.4,71.7));
#707=CARTESIAN_POINT('',(0.,182.2,71.7));
#708=CARTESIAN_POINT('',(0.,215.5,71.7));
#709=CARTESIAN_POINT('',(102.3,215.5,71.7));
#710=CARTESIAN_POINT('',(28.4,215.5,71.7));
#711=CARTESIAN_POINT('',(28.4,207.8,71.7));
#712=CARTESIAN_POINT('',(36.1,207.8,71.7));
#713=CARTESIAN_POINT('',(36.1,182.2,71.7));
#714=CARTESIAN_POINT('',(36.1,68.7,71.7));
#715=CARTESIAN_POINT('',(28.4,68.7,71.7));
#716=CARTESIAN_POINT('',(28.4,61.,71.7));
#717=CARTESIAN_POINT('',(102.3,61.,71.7));
#718=CARTESIAN_POINT('',(0.,61.,71.7));
#719=CARTESIAN_POINT('',(0.,182.2,71.7));
#720=CARTESIAN_POINT('',(0.,0.,71.7));
#721=CARTESIAN_POINT('',(102.3,0.,71.7));
#722=CARTESIAN_POINT('',(102.3,182.2,71.7));
#723=CARTESIAN_POINT('',(145.2,0.,35.9));
#724=CARTESIAN_POINT('',(145.2,0.,35.9));
#725=CARTESIAN_POINT('',(0.,0.,0.));
#726=CARTESIAN_POINT('',(0.,0.,0.));
#727=CARTESIAN_POINT('',(102.3,0.,0.));
#728=CARTESIAN_POINT('',(204.6,0.,0.));
#729=CARTESIAN_POINT('',(204.6,0.,0.));
#730=CARTESIAN_POINT('',(204.6,0.,35.9));
#731=CARTESIAN_POINT('',(174.9,0.,35.9));
#732=CARTESIAN_POINT('',(102.3,0.,0.));
#733=CARTESIAN_POINT('',(0.,61.,42.7));
#734=CARTESIAN_POINT('',(0.,61.,42.7));
#735=CARTESIAN_POINT('',(0.,138.25,42.7));
#736=CARTESIAN_POINT('',(0.,215.5,42.7));
#737=CARTESIAN_POINT('',(0.,215.5,42.7));
#738=CARTESIAN_POINT('',(0.,364.4,0.));
#739=CARTESIAN_POINT('',(0.,364.4,0.));
#740=CARTESIAN_POINT('',(0.,182.2,0.));
#741=CARTESIAN_POINT('',(0.,182.2,0.));
#742=CARTESIAN_POINT('',(187.9,364.4,85.6));
#743=CARTESIAN_POINT('',(204.6,364.4,68.9));
#744=CARTESIAN_POINT('',(204.6,364.4,0.));
#745=CARTESIAN_POINT('',(204.6,364.4,0.));
#746=CARTESIAN_POINT('',(102.3,364.4,0.));
#747=CARTESIAN_POINT('',(102.3,364.4,0.));
#748=CARTESIAN_POINT('',(204.6,182.2,0.));
#749=CARTESIAN_POINT('',(102.3,182.2,0.));
#750=CARTESIAN_POINT('',(204.6,54.8,35.9));
#751=CARTESIAN_POINT('',(204.6,54.8,35.9));
#752=CARTESIAN_POINT('',(204.6,54.8,68.9));
#753=CARTESIAN_POINT('',(204.6,27.4,35.9));
#754=CARTESIAN_POINT('',(204.6,182.2,68.9));
#755=CARTESIAN_POINT('',(204.6,182.2,0.));
#756=CARTESIAN_POINT('',(204.6,54.8,68.9));
#757=CARTESIAN_POINT('',(204.6,182.2,68.9));
#758=CARTESIAN_POINT('',(28.4,61.,42.7));
#759=CARTESIAN_POINT('',(28.4,61.,42.7));
#760=CARTESIAN_POINT('',(18.05,61.,42.7));
#761=CARTESIAN_POINT('',(18.05,61.,42.7));
#762=CARTESIAN_POINT('',(18.05,215.5,42.7));
#763=CARTESIAN_POINT('',(28.4,215.5,42.7));
#764=CARTESIAN_POINT('',(28.4,215.5,71.7));
#765=CARTESIAN_POINT('',(18.05,215.5,42.7));
#766=CARTESIAN_POINT('',(18.05,177.2,42.7));
#767=CARTESIAN_POINT('',(14.3,177.2,42.7));
#768=CARTESIAN_POINT('',(15.8,177.2,42.7));
#769=CARTESIAN_POINT('',(15.8,170.9,42.7));
#770=CARTESIAN_POINT('',(22.1,170.9,42.7));
#771=CARTESIAN_POINT('',(22.1,138.25,42.7));
#772=CARTESIAN_POINT('',(22.1,105.6,42.7));
#773=CARTESIAN_POINT('',(15.8,105.6,42.7));
#774=CARTESIAN_POINT('',(15.8,99.3,42.7));
#775=CARTESIAN_POINT('',(18.05,99.3,42.7));
#776=CARTESIAN_POINT('',(14.3,99.3,42.7));
#777=CARTESIAN_POINT('',(14.3,105.6,42.7));
#778=CARTESIAN_POINT('',(8.,105.6,42.7));
#779=CARTESIAN_POINT('',(8.,138.25,42.7));
#780=CARTESIAN_POINT('',(8.,170.9,42.7));
#781=CARTESIAN_POINT('',(14.3,170.9,42.7));
#782=CARTESIAN_POINT('',(36.1,138.25,42.7));
#783=CARTESIAN_POINT('',(36.1,207.8,42.7));
#784=CARTESIAN_POINT('',(36.1,68.7,42.7));
#785=CARTESIAN_POINT('',(28.4,207.8,42.7));
#786=CARTESIAN_POINT('',(28.4,68.7,42.7));
#787=CARTESIAN_POINT('',(18.05,138.25,42.7));
#788=CARTESIAN_POINT('',(36.1,207.8,42.7));
#789=CARTESIAN_POINT('',(36.1,68.7,71.7));
#790=CARTESIAN_POINT('',(36.1,138.25,42.7));
#791=CARTESIAN_POINT('',(28.4,207.8,42.7));
#792=CARTESIAN_POINT('',(28.4,68.7,42.7));
#793=CARTESIAN_POINT('',(15.8,99.3,33.8));
#794=CARTESIAN_POINT('',(15.8,99.3,33.8));
#795=CARTESIAN_POINT('',(15.05,99.3,33.8));
#796=CARTESIAN_POINT('',(14.3,99.3,33.8));
#797=CARTESIAN_POINT('',(14.3,99.3,42.7));
#798=CARTESIAN_POINT('',(15.05,99.3,33.8));
#799=CARTESIAN_POINT('',(8.,138.25,33.8));
#800=CARTESIAN_POINT('',(8.,105.6,33.8));
#801=CARTESIAN_POINT('',(8.,170.9,33.8));
#802=CARTESIAN_POINT('',(8.,170.9,42.7));
#803=CARTESIAN_POINT('',(8.,105.6,33.8));
#804=CARTESIAN_POINT('',(8.,138.25,33.8));
#805=CARTESIAN_POINT('',(14.3,177.2,33.8));
#806=CARTESIAN_POINT('',(14.3,177.2,33.8));
#807=CARTESIAN_POINT('',(15.05,177.2,33.8));
#808=CARTESIAN_POINT('',(15.8,177.2,33.8));
#809=CARTESIAN_POINT('',(15.8,177.2,42.7));
#810=CARTESIAN_POINT('',(15.05,177.2,33.8));
#811=CARTESIAN_POINT('',(22.1,138.25,33.8));
#812=CARTESIAN_POINT('',(22.1,170.9,33.8));
#813=CARTESIAN_POINT('',(22.1,105.6,33.8));
#814=CARTESIAN_POINT('',(22.1,105.6,42.7));
#815=CARTESIAN_POINT('',(22.1,170.9,33.8));
#816=CARTESIAN_POINT('',(22.1,138.25,33.8));
#817=CARTESIAN_POINT('',(14.3,170.9,33.8));
#818=CARTESIAN_POINT('',(14.3,105.6,33.8));
#819=CARTESIAN_POINT('',(15.8,105.6,33.8));
#820=CARTESIAN_POINT('',(15.8,170.9,33.8));
#821=CARTESIAN_POINT('',(15.05,138.25,33.8));
#822=CARTESIAN_POINT('',(14.3,170.9,33.8));
#823=CARTESIAN_POINT('',(15.8,105.6,33.8));
#824=CARTESIAN_POINT('',(15.8,170.9,33.8));
#825=CARTESIAN_POINT('',(14.3,105.6,33.8));
#826=CARTESIAN_POINT('',(145.2,27.4,35.9));
#827=CARTESIAN_POINT('',(145.2,47.6,35.9));
#828=CARTESIAN_POINT('',(145.2,47.6,71.7));
#829=CARTESIAN_POINT('',(145.2,27.4,35.9));
#830=CARTESIAN_POINT('',(152.4,54.8,35.9));
#831=CARTESIAN_POINT('',(152.4,54.8,35.9));
#832=CARTESIAN_POINT('',(174.9,54.8,35.9));
#833=CARTESIAN_POINT('',(174.9,54.8,35.9));
#834=CARTESIAN_POINT('',(152.4,47.6,35.9));
#835=CARTESIAN_POINT('',(174.9,27.4,35.9));
#836=CARTESIAN_POINT('',(152.4,47.6,35.9));
#837=MECHANICAL_DESIGN_GEOMETRIC_PRESENTATION_REPRESENTATION('',(#24),#838);
#838=(
GEOMETRIC_REPRESENTATION_CONTEXT(3)
GLOBAL_UNCERTAINTY_ASSIGNED_CONTEXT((#839))
GLOBAL_UNIT_ASSIGNED_CONTEXT((#845,#841,#840))
REPRESENTATION_CONTEXT('featured_part_09980','TOP_LEVEL_ASSEMBLY_PART')
);
#839=UNCERTAINTY_MEASURE_WITH_UNIT(LENGTH_MEASURE(2.E-5),#845,
'DISTANCE_ACCURACY_VALUE','Maximum Tolerance applied to model');
#840=(
NAMED_UNIT(*)
SI_UNIT($,.STERADIAN.)
SOLID_ANGLE_UNIT()
);
#841=(
CONVERSION_BASED_UNIT('DEGREE',#843)
NAMED_UNIT(#842)
PLANE_ANGLE_UNIT()
);
#842=DIMENSIONAL_EXPONENTS(0.,0.,0.,0.,0.,0.,0.);
#843=PLANE_ANGLE_MEASURE_WITH_UNIT(PLANE_ANGLE_MEASURE(0.0174532925),#844);
#844=(
NAMED_UNIT(*)
PLANE_ANGLE_UNIT()
SI_UNIT($,.RADIAN.)
);
#845=(
LENGTH_UNIT()
NAMED_UNIT(*)
SI_UNIT(.MILLI.,.METRE.)
);
ENDSEC;
END-ISO-10303-21;
