ISO-10303-21;
HEADER;
/* Generated by software containing ST-Developer
 * from STEP Tools, Inc. (www.steptools.com) 
 */
/* OPTION: using custom schema-name function */

FILE_DESCRIPTION(
/* description */ (''),
/* implementation_level */ '2;1');

FILE_NAME(
/* name */ 'featured_part_01022.stp',
/* time_stamp */ '2026-07-08T13:31:29-04:00',
/* author */ (''),
/* organization */ (''),
/* preprocessor_version */ 'ST-DEVELOPER v20.1',
/* originating_system */ 'SIEMENS PLM Software NX2512.6002',
/* authorisation */ '');

FILE_SCHEMA (('AUTOMOTIVE_DESIGN { 1 0 10303 214 3 1 1 1 }'));
ENDSEC;

DATA;
#10=SHAPE_REPRESENTATION_RELATIONSHIP('None',
'relationship between featured_part_01022-None and featured_part_01022
-None',#22,#11);
#11=ADVANCED_BREP_SHAPE_REPRESENTATION('featured_part_01022-None',(#32),
#953);
#12=SHAPE_DEFINITION_REPRESENTATION(#13,#22);
#13=PRODUCT_DEFINITION_SHAPE('','',#14);
#14=PRODUCT_DEFINITION(' ','',#16,#15);
#15=PRODUCT_DEFINITION_CONTEXT('part definition',#21,'design');
#16=PRODUCT_DEFINITION_FORMATION_WITH_SPECIFIED_SOURCE(' ',' ',#18,
 .NOT_KNOWN.);
#17=PRODUCT_RELATED_PRODUCT_CATEGORY('part','',(#18));
#18=PRODUCT('featured_part_01022','featured_part_01022',' ',(#19));
#19=PRODUCT_CONTEXT(' ',#21,'mechanical');
#20=APPLICATION_PROTOCOL_DEFINITION('international standard',
'automotive_design',2010,#21);
#21=APPLICATION_CONTEXT(
'core data for automotive mechanical design processes');
#22=SHAPE_REPRESENTATION('featured_part_01022-None',(#587),#953);
#23=PRESENTATION_LAYER_ASSIGNMENT('1','Layer 1',(#32));
#24=STYLED_ITEM('',(#25),#32);
#25=PRESENTATION_STYLE_ASSIGNMENT((#26));
#26=SURFACE_STYLE_USAGE(.BOTH.,#27);
#27=SURFACE_SIDE_STYLE('',(#28));
#28=SURFACE_STYLE_FILL_AREA(#29);
#29=FILL_AREA_STYLE('',(#30));
#30=FILL_AREA_STYLE_COLOUR('',#31);
#31=COLOUR_RGB('medium steel',0.611764705882353,0.658823529411765,0.670588235294118);
#32=MANIFOLD_SOLID_BREP('',#33);
#33=CLOSED_SHELL('',(#65,#66,#67,#68,#69,#70,#71,#72,#73,#74,#75,#76,#77,
#78,#79,#80,#81,#82,#83,#84,#85,#86,#87,#88,#89,#90,#91,#92,#93));
#34=CYLINDRICAL_SURFACE('',#610,4.9);
#35=CYLINDRICAL_SURFACE('',#620,6.);
#36=CYLINDRICAL_SURFACE('',#621,6.);
#37=CYLINDRICAL_SURFACE('',#622,6.);
#38=CYLINDRICAL_SURFACE('',#623,6.);
#39=CYLINDRICAL_SURFACE('',#631,8.3);
#40=CYLINDRICAL_SURFACE('',#632,8.3);
#41=CYLINDRICAL_SURFACE('',#633,7.6);
#42=FACE_BOUND('',#143,.T.);
#43=FACE_BOUND('',#144,.T.);
#44=FACE_BOUND('',#148,.T.);
#45=FACE_BOUND('',#149,.T.);
#46=FACE_BOUND('',#171,.T.);
#47=FACE_BOUND('',#172,.T.);
#48=CIRCLE('',#590,7.6);
#49=CIRCLE('',#591,8.3);
#50=CIRCLE('',#592,4.9);
#51=CIRCLE('',#593,8.3);
#52=CIRCLE('',#594,6.);
#53=CIRCLE('',#595,6.);
#54=CIRCLE('',#596,6.);
#55=CIRCLE('',#597,6.);
#56=CIRCLE('',#602,7.6);
#57=CIRCLE('',#607,4.9);
#58=CIRCLE('',#614,6.);
#59=CIRCLE('',#615,6.);
#60=CIRCLE('',#616,6.);
#61=CIRCLE('',#617,6.);
#62=CIRCLE('',#626,7.6);
#63=CIRCLE('',#627,8.3);
#64=CIRCLE('',#628,8.3);
#65=ADVANCED_FACE('',(#115),#94,.F.);
#66=ADVANCED_FACE('',(#116),#95,.F.);
#67=ADVANCED_FACE('',(#42,#43),#96,.T.);
#68=ADVANCED_FACE('',(#117),#97,.T.);
#69=ADVANCED_FACE('',(#118),#98,.T.);
#70=ADVANCED_FACE('',(#119),#99,.T.);
#71=ADVANCED_FACE('',(#44,#45),#100,.T.);
#72=ADVANCED_FACE('',(#120),#101,.T.);
#73=ADVANCED_FACE('',(#121),#102,.F.);
#74=ADVANCED_FACE('',(#122),#103,.F.);
#75=ADVANCED_FACE('',(#123),#104,.F.);
#76=ADVANCED_FACE('',(#124),#105,.F.);
#77=ADVANCED_FACE('',(#125),#34,.F.);
#78=ADVANCED_FACE('',(#126),#106,.F.);
#79=ADVANCED_FACE('',(#127),#107,.F.);
#80=ADVANCED_FACE('',(#128),#108,.F.);
#81=ADVANCED_FACE('',(#129),#109,.F.);
#82=ADVANCED_FACE('',(#130),#110,.F.);
#83=ADVANCED_FACE('',(#131),#35,.F.);
#84=ADVANCED_FACE('',(#132),#36,.F.);
#85=ADVANCED_FACE('',(#133),#37,.F.);
#86=ADVANCED_FACE('',(#134),#38,.F.);
#87=ADVANCED_FACE('',(#135),#111,.F.);
#88=ADVANCED_FACE('',(#136),#112,.F.);
#89=ADVANCED_FACE('',(#137),#113,.F.);
#90=ADVANCED_FACE('',(#138),#114,.F.);
#91=ADVANCED_FACE('',(#139),#39,.F.);
#92=ADVANCED_FACE('',(#140),#40,.F.);
#93=ADVANCED_FACE('',(#46,#47),#41,.F.);
#94=PLANE('',#588);
#95=PLANE('',#589);
#96=PLANE('',#598);
#97=PLANE('',#599);
#98=PLANE('',#600);
#99=PLANE('',#601);
#100=PLANE('',#603);
#101=PLANE('',#604);
#102=PLANE('',#605);
#103=PLANE('',#606);
#104=PLANE('',#608);
#105=PLANE('',#609);
#106=PLANE('',#611);
#107=PLANE('',#612);
#108=PLANE('',#613);
#109=PLANE('',#618);
#110=PLANE('',#619);
#111=PLANE('',#624);
#112=PLANE('',#625);
#113=PLANE('',#629);
#114=PLANE('',#630);
#115=FACE_OUTER_BOUND('',#141,.T.);
#116=FACE_OUTER_BOUND('',#142,.T.);
#117=FACE_OUTER_BOUND('',#145,.T.);
#118=FACE_OUTER_BOUND('',#146,.T.);
#119=FACE_OUTER_BOUND('',#147,.T.);
#120=FACE_OUTER_BOUND('',#150,.T.);
#121=FACE_OUTER_BOUND('',#151,.T.);
#122=FACE_OUTER_BOUND('',#152,.T.);
#123=FACE_OUTER_BOUND('',#153,.T.);
#124=FACE_OUTER_BOUND('',#154,.T.);
#125=FACE_OUTER_BOUND('',#155,.T.);
#126=FACE_OUTER_BOUND('',#156,.T.);
#127=FACE_OUTER_BOUND('',#157,.T.);
#128=FACE_OUTER_BOUND('',#158,.T.);
#129=FACE_OUTER_BOUND('',#159,.T.);
#130=FACE_OUTER_BOUND('',#160,.T.);
#131=FACE_OUTER_BOUND('',#161,.T.);
#132=FACE_OUTER_BOUND('',#162,.T.);
#133=FACE_OUTER_BOUND('',#163,.T.);
#134=FACE_OUTER_BOUND('',#164,.T.);
#135=FACE_OUTER_BOUND('',#165,.T.);
#136=FACE_OUTER_BOUND('',#166,.T.);
#137=FACE_OUTER_BOUND('',#167,.T.);
#138=FACE_OUTER_BOUND('',#168,.T.);
#139=FACE_OUTER_BOUND('',#169,.T.);
#140=FACE_OUTER_BOUND('',#170,.T.);
#141=EDGE_LOOP('',(#173,#174,#175,#176));
#142=EDGE_LOOP('',(#177,#178,#179,#180));
#143=EDGE_LOOP('',(#181,#182,#183,#184,#185,#186,#187,#188,#189,#190,#191,
#192,#193,#194,#195));
#144=EDGE_LOOP('',(#196,#197,#198,#199,#200,#201,#202,#203));
#145=EDGE_LOOP('',(#204,#205,#206,#207,#208,#209,#210,#211,#212,#213));
#146=EDGE_LOOP('',(#214,#215,#216,#217,#218,#219));
#147=EDGE_LOOP('',(#220,#221,#222,#223));
#148=EDGE_LOOP('',(#224));
#149=EDGE_LOOP('',(#225,#226,#227,#228));
#150=EDGE_LOOP('',(#229,#230,#231,#232,#233));
#151=EDGE_LOOP('',(#234,#235,#236,#237));
#152=EDGE_LOOP('',(#238,#239,#240,#241));
#153=EDGE_LOOP('',(#242,#243,#244,#245,#246));
#154=EDGE_LOOP('',(#247,#248,#249,#250,#251));
#155=EDGE_LOOP('',(#252,#253,#254,#255));
#156=EDGE_LOOP('',(#256,#257,#258,#259));
#157=EDGE_LOOP('',(#260,#261,#262,#263));
#158=EDGE_LOOP('',(#264,#265,#266,#267));
#159=EDGE_LOOP('',(#268,#269,#270,#271,#272,#273,#274,#275));
#160=EDGE_LOOP('',(#276,#277,#278,#279));
#161=EDGE_LOOP('',(#280,#281,#282,#283));
#162=EDGE_LOOP('',(#284,#285,#286,#287));
#163=EDGE_LOOP('',(#288,#289,#290,#291));
#164=EDGE_LOOP('',(#292,#293,#294,#295));
#165=EDGE_LOOP('',(#296,#297,#298,#299,#300));
#166=EDGE_LOOP('',(#301,#302,#303,#304));
#167=EDGE_LOOP('',(#305,#306,#307,#308,#309,#310,#311,#312));
#168=EDGE_LOOP('',(#313,#314,#315,#316,#317));
#169=EDGE_LOOP('',(#318,#319,#320,#321));
#170=EDGE_LOOP('',(#322,#323,#324,#325));
#171=EDGE_LOOP('',(#326));
#172=EDGE_LOOP('',(#327,#328,#329,#330));
#173=ORIENTED_EDGE('',*,*,#384,.T.);
#174=ORIENTED_EDGE('',*,*,#385,.T.);
#175=ORIENTED_EDGE('',*,*,#386,.T.);
#176=ORIENTED_EDGE('',*,*,#387,.T.);
#177=ORIENTED_EDGE('',*,*,#388,.F.);
#178=ORIENTED_EDGE('',*,*,#389,.F.);
#179=ORIENTED_EDGE('',*,*,#390,.F.);
#180=ORIENTED_EDGE('',*,*,#391,.F.);
#181=ORIENTED_EDGE('',*,*,#392,.F.);
#182=ORIENTED_EDGE('',*,*,#384,.F.);
#183=ORIENTED_EDGE('',*,*,#393,.T.);
#184=ORIENTED_EDGE('',*,*,#394,.F.);
#185=ORIENTED_EDGE('',*,*,#395,.T.);
#186=ORIENTED_EDGE('',*,*,#396,.F.);
#187=ORIENTED_EDGE('',*,*,#397,.F.);
#188=ORIENTED_EDGE('',*,*,#398,.F.);
#189=ORIENTED_EDGE('',*,*,#399,.F.);
#190=ORIENTED_EDGE('',*,*,#400,.T.);
#191=ORIENTED_EDGE('',*,*,#401,.F.);
#192=ORIENTED_EDGE('',*,*,#389,.T.);
#193=ORIENTED_EDGE('',*,*,#402,.F.);
#194=ORIENTED_EDGE('',*,*,#403,.T.);
#195=ORIENTED_EDGE('',*,*,#404,.F.);
#196=ORIENTED_EDGE('',*,*,#405,.F.);
#197=ORIENTED_EDGE('',*,*,#406,.T.);
#198=ORIENTED_EDGE('',*,*,#407,.F.);
#199=ORIENTED_EDGE('',*,*,#408,.T.);
#200=ORIENTED_EDGE('',*,*,#409,.F.);
#201=ORIENTED_EDGE('',*,*,#410,.T.);
#202=ORIENTED_EDGE('',*,*,#411,.F.);
#203=ORIENTED_EDGE('',*,*,#412,.T.);
#204=ORIENTED_EDGE('',*,*,#413,.T.);
#205=ORIENTED_EDGE('',*,*,#391,.T.);
#206=ORIENTED_EDGE('',*,*,#414,.F.);
#207=ORIENTED_EDGE('',*,*,#415,.F.);
#208=ORIENTED_EDGE('',*,*,#416,.F.);
#209=ORIENTED_EDGE('',*,*,#417,.T.);
#210=ORIENTED_EDGE('',*,*,#418,.T.);
#211=ORIENTED_EDGE('',*,*,#419,.T.);
#212=ORIENTED_EDGE('',*,*,#420,.F.);
#213=ORIENTED_EDGE('',*,*,#421,.F.);
#214=ORIENTED_EDGE('',*,*,#422,.T.);
#215=ORIENTED_EDGE('',*,*,#398,.T.);
#216=ORIENTED_EDGE('',*,*,#423,.F.);
#217=ORIENTED_EDGE('',*,*,#424,.T.);
#218=ORIENTED_EDGE('',*,*,#416,.T.);
#219=ORIENTED_EDGE('',*,*,#425,.F.);
#220=ORIENTED_EDGE('',*,*,#423,.T.);
#221=ORIENTED_EDGE('',*,*,#397,.T.);
#222=ORIENTED_EDGE('',*,*,#426,.F.);
#223=ORIENTED_EDGE('',*,*,#427,.T.);
#224=ORIENTED_EDGE('',*,*,#428,.F.);
#225=ORIENTED_EDGE('',*,*,#429,.F.);
#226=ORIENTED_EDGE('',*,*,#417,.F.);
#227=ORIENTED_EDGE('',*,*,#424,.F.);
#228=ORIENTED_EDGE('',*,*,#427,.F.);
#229=ORIENTED_EDGE('',*,*,#396,.T.);
#230=ORIENTED_EDGE('',*,*,#430,.T.);
#231=ORIENTED_EDGE('',*,*,#418,.F.);
#232=ORIENTED_EDGE('',*,*,#429,.T.);
#233=ORIENTED_EDGE('',*,*,#426,.T.);
#234=ORIENTED_EDGE('',*,*,#431,.F.);
#235=ORIENTED_EDGE('',*,*,#419,.F.);
#236=ORIENTED_EDGE('',*,*,#430,.F.);
#237=ORIENTED_EDGE('',*,*,#395,.F.);
#238=ORIENTED_EDGE('',*,*,#432,.T.);
#239=ORIENTED_EDGE('',*,*,#433,.T.);
#240=ORIENTED_EDGE('',*,*,#399,.T.);
#241=ORIENTED_EDGE('',*,*,#422,.F.);
#242=ORIENTED_EDGE('',*,*,#434,.F.);
#243=ORIENTED_EDGE('',*,*,#435,.T.);
#244=ORIENTED_EDGE('',*,*,#432,.F.);
#245=ORIENTED_EDGE('',*,*,#425,.T.);
#246=ORIENTED_EDGE('',*,*,#415,.T.);
#247=ORIENTED_EDGE('',*,*,#401,.T.);
#248=ORIENTED_EDGE('',*,*,#436,.T.);
#249=ORIENTED_EDGE('',*,*,#434,.T.);
#250=ORIENTED_EDGE('',*,*,#414,.T.);
#251=ORIENTED_EDGE('',*,*,#390,.T.);
#252=ORIENTED_EDGE('',*,*,#400,.F.);
#253=ORIENTED_EDGE('',*,*,#433,.F.);
#254=ORIENTED_EDGE('',*,*,#435,.F.);
#255=ORIENTED_EDGE('',*,*,#436,.F.);
#256=ORIENTED_EDGE('',*,*,#405,.T.);
#257=ORIENTED_EDGE('',*,*,#437,.T.);
#258=ORIENTED_EDGE('',*,*,#438,.T.);
#259=ORIENTED_EDGE('',*,*,#439,.T.);
#260=ORIENTED_EDGE('',*,*,#440,.T.);
#261=ORIENTED_EDGE('',*,*,#441,.T.);
#262=ORIENTED_EDGE('',*,*,#407,.T.);
#263=ORIENTED_EDGE('',*,*,#442,.T.);
#264=ORIENTED_EDGE('',*,*,#409,.T.);
#265=ORIENTED_EDGE('',*,*,#443,.T.);
#266=ORIENTED_EDGE('',*,*,#444,.T.);
#267=ORIENTED_EDGE('',*,*,#445,.T.);
#268=ORIENTED_EDGE('',*,*,#438,.F.);
#269=ORIENTED_EDGE('',*,*,#446,.T.);
#270=ORIENTED_EDGE('',*,*,#447,.F.);
#271=ORIENTED_EDGE('',*,*,#448,.T.);
#272=ORIENTED_EDGE('',*,*,#444,.F.);
#273=ORIENTED_EDGE('',*,*,#449,.T.);
#274=ORIENTED_EDGE('',*,*,#440,.F.);
#275=ORIENTED_EDGE('',*,*,#450,.T.);
#276=ORIENTED_EDGE('',*,*,#447,.T.);
#277=ORIENTED_EDGE('',*,*,#451,.T.);
#278=ORIENTED_EDGE('',*,*,#411,.T.);
#279=ORIENTED_EDGE('',*,*,#452,.T.);
#280=ORIENTED_EDGE('',*,*,#412,.F.);
#281=ORIENTED_EDGE('',*,*,#451,.F.);
#282=ORIENTED_EDGE('',*,*,#446,.F.);
#283=ORIENTED_EDGE('',*,*,#437,.F.);
#284=ORIENTED_EDGE('',*,*,#408,.F.);
#285=ORIENTED_EDGE('',*,*,#441,.F.);
#286=ORIENTED_EDGE('',*,*,#449,.F.);
#287=ORIENTED_EDGE('',*,*,#443,.F.);
#288=ORIENTED_EDGE('',*,*,#406,.F.);
#289=ORIENTED_EDGE('',*,*,#439,.F.);
#290=ORIENTED_EDGE('',*,*,#450,.F.);
#291=ORIENTED_EDGE('',*,*,#442,.F.);
#292=ORIENTED_EDGE('',*,*,#410,.F.);
#293=ORIENTED_EDGE('',*,*,#445,.F.);
#294=ORIENTED_EDGE('',*,*,#448,.F.);
#295=ORIENTED_EDGE('',*,*,#452,.F.);
#296=ORIENTED_EDGE('',*,*,#453,.T.);
#297=ORIENTED_EDGE('',*,*,#454,.T.);
#298=ORIENTED_EDGE('',*,*,#402,.T.);
#299=ORIENTED_EDGE('',*,*,#388,.T.);
#300=ORIENTED_EDGE('',*,*,#413,.F.);
#301=ORIENTED_EDGE('',*,*,#455,.T.);
#302=ORIENTED_EDGE('',*,*,#456,.T.);
#303=ORIENTED_EDGE('',*,*,#404,.T.);
#304=ORIENTED_EDGE('',*,*,#457,.T.);
#305=ORIENTED_EDGE('',*,*,#386,.F.);
#306=ORIENTED_EDGE('',*,*,#458,.T.);
#307=ORIENTED_EDGE('',*,*,#455,.F.);
#308=ORIENTED_EDGE('',*,*,#459,.T.);
#309=ORIENTED_EDGE('',*,*,#453,.F.);
#310=ORIENTED_EDGE('',*,*,#421,.T.);
#311=ORIENTED_EDGE('',*,*,#460,.F.);
#312=ORIENTED_EDGE('',*,*,#461,.T.);
#313=ORIENTED_EDGE('',*,*,#394,.T.);
#314=ORIENTED_EDGE('',*,*,#462,.T.);
#315=ORIENTED_EDGE('',*,*,#460,.T.);
#316=ORIENTED_EDGE('',*,*,#420,.T.);
#317=ORIENTED_EDGE('',*,*,#431,.T.);
#318=ORIENTED_EDGE('',*,*,#393,.F.);
#319=ORIENTED_EDGE('',*,*,#387,.F.);
#320=ORIENTED_EDGE('',*,*,#461,.F.);
#321=ORIENTED_EDGE('',*,*,#462,.F.);
#322=ORIENTED_EDGE('',*,*,#403,.F.);
#323=ORIENTED_EDGE('',*,*,#454,.F.);
#324=ORIENTED_EDGE('',*,*,#459,.F.);
#325=ORIENTED_EDGE('',*,*,#457,.F.);
#326=ORIENTED_EDGE('',*,*,#428,.T.);
#327=ORIENTED_EDGE('',*,*,#392,.T.);
#328=ORIENTED_EDGE('',*,*,#456,.F.);
#329=ORIENTED_EDGE('',*,*,#458,.F.);
#330=ORIENTED_EDGE('',*,*,#385,.F.);
#331=VERTEX_POINT('',#792);
#332=VERTEX_POINT('',#793);
#333=VERTEX_POINT('',#795);
#334=VERTEX_POINT('',#797);
#335=VERTEX_POINT('',#801);
#336=VERTEX_POINT('',#802);
#337=VERTEX_POINT('',#804);
#338=VERTEX_POINT('',#806);
#339=VERTEX_POINT('',#810);
#340=VERTEX_POINT('',#812);
#341=VERTEX_POINT('',#814);
#342=VERTEX_POINT('',#816);
#343=VERTEX_POINT('',#818);
#344=VERTEX_POINT('',#820);
#345=VERTEX_POINT('',#822);
#346=VERTEX_POINT('',#824);
#347=VERTEX_POINT('',#826);
#348=VERTEX_POINT('',#829);
#349=VERTEX_POINT('',#831);
#350=VERTEX_POINT('',#834);
#351=VERTEX_POINT('',#835);
#352=VERTEX_POINT('',#837);
#353=VERTEX_POINT('',#839);
#354=VERTEX_POINT('',#841);
#355=VERTEX_POINT('',#843);
#356=VERTEX_POINT('',#845);
#357=VERTEX_POINT('',#847);
#358=VERTEX_POINT('',#851);
#359=VERTEX_POINT('',#853);
#360=VERTEX_POINT('',#855);
#361=VERTEX_POINT('',#857);
#362=VERTEX_POINT('',#859);
#363=VERTEX_POINT('',#861);
#364=VERTEX_POINT('',#863);
#365=VERTEX_POINT('',#865);
#366=VERTEX_POINT('',#869);
#367=VERTEX_POINT('',#871);
#368=VERTEX_POINT('',#876);
#369=VERTEX_POINT('',#880);
#370=VERTEX_POINT('',#888);
#371=VERTEX_POINT('',#892);
#372=VERTEX_POINT('',#899);
#373=VERTEX_POINT('',#901);
#374=VERTEX_POINT('',#905);
#375=VERTEX_POINT('',#906);
#376=VERTEX_POINT('',#911);
#377=VERTEX_POINT('',#913);
#378=VERTEX_POINT('',#917);
#379=VERTEX_POINT('',#919);
#380=VERTEX_POINT('',#932);
#381=VERTEX_POINT('',#936);
#382=VERTEX_POINT('',#937);
#383=VERTEX_POINT('',#944);
#384=EDGE_CURVE('',#331,#332,#463,.T.);
#385=EDGE_CURVE('',#332,#333,#464,.T.);
#386=EDGE_CURVE('',#333,#334,#465,.T.);
#387=EDGE_CURVE('',#334,#331,#466,.T.);
#388=EDGE_CURVE('',#335,#336,#467,.T.);
#389=EDGE_CURVE('',#337,#335,#468,.T.);
#390=EDGE_CURVE('',#338,#337,#469,.T.);
#391=EDGE_CURVE('',#336,#338,#470,.T.);
#392=EDGE_CURVE('',#332,#339,#48,.T.);
#393=EDGE_CURVE('',#331,#340,#49,.T.);
#394=EDGE_CURVE('',#341,#340,#471,.T.);
#395=EDGE_CURVE('',#341,#342,#472,.T.);
#396=EDGE_CURVE('',#343,#342,#473,.T.);
#397=EDGE_CURVE('',#344,#343,#474,.T.);
#398=EDGE_CURVE('',#345,#344,#475,.T.);
#399=EDGE_CURVE('',#346,#345,#476,.T.);
#400=EDGE_CURVE('',#346,#347,#50,.T.);
#401=EDGE_CURVE('',#337,#347,#477,.T.);
#402=EDGE_CURVE('',#348,#335,#478,.T.);
#403=EDGE_CURVE('',#348,#349,#51,.T.);
#404=EDGE_CURVE('',#339,#349,#479,.T.);
#405=EDGE_CURVE('',#350,#351,#480,.T.);
#406=EDGE_CURVE('',#350,#352,#52,.T.);
#407=EDGE_CURVE('',#353,#352,#481,.T.);
#408=EDGE_CURVE('',#353,#354,#53,.T.);
#409=EDGE_CURVE('',#355,#354,#482,.T.);
#410=EDGE_CURVE('',#355,#356,#54,.T.);
#411=EDGE_CURVE('',#357,#356,#483,.T.);
#412=EDGE_CURVE('',#357,#351,#55,.T.);
#413=EDGE_CURVE('',#358,#336,#484,.T.);
#414=EDGE_CURVE('',#359,#338,#485,.T.);
#415=EDGE_CURVE('',#360,#359,#486,.T.);
#416=EDGE_CURVE('',#361,#360,#487,.T.);
#417=EDGE_CURVE('',#361,#362,#488,.T.);
#418=EDGE_CURVE('',#362,#363,#489,.T.);
#419=EDGE_CURVE('',#363,#364,#490,.T.);
#420=EDGE_CURVE('',#365,#364,#491,.T.);
#421=EDGE_CURVE('',#358,#365,#492,.T.);
#422=EDGE_CURVE('',#366,#345,#493,.T.);
#423=EDGE_CURVE('',#367,#344,#494,.T.);
#424=EDGE_CURVE('',#367,#361,#495,.T.);
#425=EDGE_CURVE('',#366,#360,#496,.T.);
#426=EDGE_CURVE('',#368,#343,#497,.T.);
#427=EDGE_CURVE('',#368,#367,#498,.T.);
#428=EDGE_CURVE('',#369,#369,#56,.T.);
#429=EDGE_CURVE('',#362,#368,#499,.T.);
#430=EDGE_CURVE('',#342,#363,#500,.T.);
#431=EDGE_CURVE('',#364,#341,#501,.T.);
#432=EDGE_CURVE('',#366,#370,#502,.T.);
#433=EDGE_CURVE('',#370,#346,#503,.T.);
#434=EDGE_CURVE('',#371,#359,#504,.T.);
#435=EDGE_CURVE('',#371,#370,#57,.T.);
#436=EDGE_CURVE('',#347,#371,#505,.T.);
#437=EDGE_CURVE('',#351,#372,#506,.T.);
#438=EDGE_CURVE('',#372,#373,#507,.T.);
#439=EDGE_CURVE('',#373,#350,#508,.T.);
#440=EDGE_CURVE('',#374,#375,#509,.T.);
#441=EDGE_CURVE('',#375,#353,#510,.T.);
#442=EDGE_CURVE('',#352,#374,#511,.T.);
#443=EDGE_CURVE('',#354,#376,#512,.T.);
#444=EDGE_CURVE('',#376,#377,#513,.T.);
#445=EDGE_CURVE('',#377,#355,#514,.T.);
#446=EDGE_CURVE('',#372,#378,#58,.T.);
#447=EDGE_CURVE('',#379,#378,#515,.T.);
#448=EDGE_CURVE('',#379,#377,#59,.T.);
#449=EDGE_CURVE('',#376,#375,#60,.T.);
#450=EDGE_CURVE('',#374,#373,#61,.T.);
#451=EDGE_CURVE('',#378,#357,#516,.T.);
#452=EDGE_CURVE('',#356,#379,#517,.T.);
#453=EDGE_CURVE('',#358,#380,#518,.T.);
#454=EDGE_CURVE('',#380,#348,#519,.T.);
#455=EDGE_CURVE('',#381,#382,#520,.T.);
#456=EDGE_CURVE('',#382,#339,#521,.T.);
#457=EDGE_CURVE('',#349,#381,#522,.T.);
#458=EDGE_CURVE('',#333,#382,#62,.T.);
#459=EDGE_CURVE('',#381,#380,#63,.T.);
#460=EDGE_CURVE('',#383,#365,#523,.T.);
#461=EDGE_CURVE('',#383,#334,#64,.T.);
#462=EDGE_CURVE('',#340,#383,#524,.T.);
#463=LINE('',#791,#525);
#464=LINE('',#794,#526);
#465=LINE('',#796,#527);
#466=LINE('',#798,#528);
#467=LINE('',#800,#529);
#468=LINE('',#803,#530);
#469=LINE('',#805,#531);
#470=LINE('',#807,#532);
#471=LINE('',#813,#533);
#472=LINE('',#815,#534);
#473=LINE('',#817,#535);
#474=LINE('',#819,#536);
#475=LINE('',#821,#537);
#476=LINE('',#823,#538);
#477=LINE('',#827,#539);
#478=LINE('',#828,#540);
#479=LINE('',#832,#541);
#480=LINE('',#833,#542);
#481=LINE('',#838,#543);
#482=LINE('',#842,#544);
#483=LINE('',#846,#545);
#484=LINE('',#850,#546);
#485=LINE('',#852,#547);
#486=LINE('',#854,#548);
#487=LINE('',#856,#549);
#488=LINE('',#858,#550);
#489=LINE('',#860,#551);
#490=LINE('',#862,#552);
#491=LINE('',#864,#553);
#492=LINE('',#866,#554);
#493=LINE('',#868,#555);
#494=LINE('',#870,#556);
#495=LINE('',#872,#557);
#496=LINE('',#873,#558);
#497=LINE('',#875,#559);
#498=LINE('',#877,#560);
#499=LINE('',#881,#561);
#500=LINE('',#883,#562);
#501=LINE('',#885,#563);
#502=LINE('',#887,#564);
#503=LINE('',#889,#565);
#504=LINE('',#891,#566);
#505=LINE('',#895,#567);
#506=LINE('',#898,#568);
#507=LINE('',#900,#569);
#508=LINE('',#902,#570);
#509=LINE('',#904,#571);
#510=LINE('',#907,#572);
#511=LINE('',#908,#573);
#512=LINE('',#910,#574);
#513=LINE('',#912,#575);
#514=LINE('',#914,#576);
#515=LINE('',#918,#577);
#516=LINE('',#924,#578);
#517=LINE('',#925,#579);
#518=LINE('',#931,#580);
#519=LINE('',#933,#581);
#520=LINE('',#935,#582);
#521=LINE('',#938,#583);
#522=LINE('',#939,#584);
#523=LINE('',#943,#585);
#524=LINE('',#947,#586);
#525=VECTOR('',#636,1.);
#526=VECTOR('',#637,1.);
#527=VECTOR('',#638,1.);
#528=VECTOR('',#639,1.);
#529=VECTOR('',#642,1.);
#530=VECTOR('',#643,1.);
#531=VECTOR('',#644,1.);
#532=VECTOR('',#645,1.);
#533=VECTOR('',#652,1.);
#534=VECTOR('',#653,1.);
#535=VECTOR('',#654,1.);
#536=VECTOR('',#655,1.);
#537=VECTOR('',#656,1.);
#538=VECTOR('',#657,1.);
#539=VECTOR('',#660,1.);
#540=VECTOR('',#661,1.);
#541=VECTOR('',#664,1.);
#542=VECTOR('',#665,1.);
#543=VECTOR('',#668,1.);
#544=VECTOR('',#671,1.);
#545=VECTOR('',#674,1.);
#546=VECTOR('',#679,1.);
#547=VECTOR('',#680,1.);
#548=VECTOR('',#681,1.);
#549=VECTOR('',#682,1.);
#550=VECTOR('',#683,1.);
#551=VECTOR('',#684,1.);
#552=VECTOR('',#685,1.);
#553=VECTOR('',#686,1.);
#554=VECTOR('',#687,1.);
#555=VECTOR('',#690,1.);
#556=VECTOR('',#691,1.);
#557=VECTOR('',#692,1.);
#558=VECTOR('',#693,1.);
#559=VECTOR('',#696,1.);
#560=VECTOR('',#697,1.);
#561=VECTOR('',#702,1.);
#562=VECTOR('',#705,1.);
#563=VECTOR('',#708,1.);
#564=VECTOR('',#711,1.);
#565=VECTOR('',#712,1.);
#566=VECTOR('',#715,1.);
#567=VECTOR('',#720,1.);
#568=VECTOR('',#725,1.);
#569=VECTOR('',#726,1.);
#570=VECTOR('',#727,1.);
#571=VECTOR('',#730,1.);
#572=VECTOR('',#731,1.);
#573=VECTOR('',#732,1.);
#574=VECTOR('',#735,1.);
#575=VECTOR('',#736,1.);
#576=VECTOR('',#737,1.);
#577=VECTOR('',#742,1.);
#578=VECTOR('',#751,1.);
#579=VECTOR('',#752,1.);
#580=VECTOR('',#763,1.);
#581=VECTOR('',#764,1.);
#582=VECTOR('',#767,1.);
#583=VECTOR('',#768,1.);
#584=VECTOR('',#769,1.);
#585=VECTOR('',#776,1.);
#586=VECTOR('',#781,1.);
#587=AXIS2_PLACEMENT_3D('',#790,#634,#635);
#588=AXIS2_PLACEMENT_3D('',#799,#640,#641);
#589=AXIS2_PLACEMENT_3D('',#808,#646,#647);
#590=AXIS2_PLACEMENT_3D('',#809,#648,#649);
#591=AXIS2_PLACEMENT_3D('',#811,#650,#651);
#592=AXIS2_PLACEMENT_3D('',#825,#658,#659);
#593=AXIS2_PLACEMENT_3D('',#830,#662,#663);
#594=AXIS2_PLACEMENT_3D('',#836,#666,#667);
#595=AXIS2_PLACEMENT_3D('',#840,#669,#670);
#596=AXIS2_PLACEMENT_3D('',#844,#672,#673);
#597=AXIS2_PLACEMENT_3D('',#848,#675,#676);
#598=AXIS2_PLACEMENT_3D('',#849,#677,#678);
#599=AXIS2_PLACEMENT_3D('',#867,#688,#689);
#600=AXIS2_PLACEMENT_3D('',#874,#694,#695);
#601=AXIS2_PLACEMENT_3D('',#878,#698,#699);
#602=AXIS2_PLACEMENT_3D('',#879,#700,#701);
#603=AXIS2_PLACEMENT_3D('',#882,#703,#704);
#604=AXIS2_PLACEMENT_3D('',#884,#706,#707);
#605=AXIS2_PLACEMENT_3D('',#886,#709,#710);
#606=AXIS2_PLACEMENT_3D('',#890,#713,#714);
#607=AXIS2_PLACEMENT_3D('',#893,#716,#717);
#608=AXIS2_PLACEMENT_3D('',#894,#718,#719);
#609=AXIS2_PLACEMENT_3D('',#896,#721,#722);
#610=AXIS2_PLACEMENT_3D('',#897,#723,#724);
#611=AXIS2_PLACEMENT_3D('',#903,#728,#729);
#612=AXIS2_PLACEMENT_3D('',#909,#733,#734);
#613=AXIS2_PLACEMENT_3D('',#915,#738,#739);
#614=AXIS2_PLACEMENT_3D('',#916,#740,#741);
#615=AXIS2_PLACEMENT_3D('',#920,#743,#744);
#616=AXIS2_PLACEMENT_3D('',#921,#745,#746);
#617=AXIS2_PLACEMENT_3D('',#922,#747,#748);
#618=AXIS2_PLACEMENT_3D('',#923,#749,#750);
#619=AXIS2_PLACEMENT_3D('',#926,#753,#754);
#620=AXIS2_PLACEMENT_3D('',#927,#755,#756);
#621=AXIS2_PLACEMENT_3D('',#928,#757,#758);
#622=AXIS2_PLACEMENT_3D('',#929,#759,#760);
#623=AXIS2_PLACEMENT_3D('',#930,#761,#762);
#624=AXIS2_PLACEMENT_3D('',#934,#765,#766);
#625=AXIS2_PLACEMENT_3D('',#940,#770,#771);
#626=AXIS2_PLACEMENT_3D('',#941,#772,#773);
#627=AXIS2_PLACEMENT_3D('',#942,#774,#775);
#628=AXIS2_PLACEMENT_3D('',#945,#777,#778);
#629=AXIS2_PLACEMENT_3D('',#946,#779,#780);
#630=AXIS2_PLACEMENT_3D('',#948,#782,#783);
#631=AXIS2_PLACEMENT_3D('',#949,#784,#785);
#632=AXIS2_PLACEMENT_3D('',#950,#786,#787);
#633=AXIS2_PLACEMENT_3D('',#951,#788,#789);
#634=DIRECTION('',(0.,0.,1.));
#635=DIRECTION('',(1.,0.,0.));
#636=DIRECTION('',(-1.,0.,0.));
#637=DIRECTION('',(0.,0.,-1.));
#638=DIRECTION('',(1.,0.,0.));
#639=DIRECTION('',(0.,0.,1.));
#640=DIRECTION('',(0.,1.,0.));
#641=DIRECTION('',(0.,0.,1.));
#642=DIRECTION('',(0.,-0.707106781186548,-0.707106781186548));
#643=DIRECTION('',(1.,0.,0.));
#644=DIRECTION('',(0.,0.707106781186548,0.707106781186548));
#645=DIRECTION('',(-1.,0.,0.));
#646=DIRECTION('',(0.,0.707106781186548,-0.707106781186548));
#647=DIRECTION('',(-1.,0.,0.));
#648=DIRECTION('',(0.,0.,1.));
#649=DIRECTION('',(0.999999999999999,0.,0.));
#650=DIRECTION('',(0.,0.,-1.));
#651=DIRECTION('',(0.999999999999997,0.,0.));
#652=DIRECTION('',(0.,1.,0.));
#653=DIRECTION('',(1.,0.,0.));
#654=DIRECTION('',(0.,-1.,0.));
#655=DIRECTION('',(1.,0.,0.));
#656=DIRECTION('',(0.,1.,0.));
#657=DIRECTION('',(-1.,0.,0.));
#658=DIRECTION('',(0.,0.,-1.));
#659=DIRECTION('',(1.,0.,0.));
#660=DIRECTION('',(0.,1.,0.));
#661=DIRECTION('',(0.,-1.,0.));
#662=DIRECTION('',(0.,0.,-1.));
#663=DIRECTION('',(1.,0.,0.));
#664=DIRECTION('',(-1.,0.,0.));
#665=DIRECTION('',(1.,0.,0.));
#666=DIRECTION('',(0.,0.,-1.));
#667=DIRECTION('',(1.,0.,0.));
#668=DIRECTION('',(0.,-1.,0.));
#669=DIRECTION('',(0.,0.,-1.));
#670=DIRECTION('',(1.,0.,0.));
#671=DIRECTION('',(-1.,0.,0.));
#672=DIRECTION('',(0.,0.,-1.));
#673=DIRECTION('',(1.,0.,0.));
#674=DIRECTION('',(0.,1.,0.));
#675=DIRECTION('',(0.,0.,-1.));
#676=DIRECTION('',(1.,0.,0.));
#677=DIRECTION('',(0.,0.,1.));
#678=DIRECTION('',(1.,0.,0.));
#679=DIRECTION('',(0.,0.,1.));
#680=DIRECTION('',(0.,0.,1.));
#681=DIRECTION('',(1.,0.,0.));
#682=DIRECTION('',(0.,0.,1.));
#683=DIRECTION('',(1.,0.,0.));
#684=DIRECTION('',(0.,0.,1.));
#685=DIRECTION('',(-1.,0.,0.));
#686=DIRECTION('',(0.,0.,1.));
#687=DIRECTION('',(1.,0.,0.));
#688=DIRECTION('',(0.,-1.,0.));
#689=DIRECTION('',(0.,0.,-1.));
#690=DIRECTION('',(0.,0.,1.));
#691=DIRECTION('',(0.,0.,1.));
#692=DIRECTION('',(0.,-1.,0.));
#693=DIRECTION('',(0.,-1.,0.));
#694=DIRECTION('',(-1.,0.,0.));
#695=DIRECTION('',(0.,0.,1.));
#696=DIRECTION('',(0.,0.,1.));
#697=DIRECTION('',(-1.,0.,0.));
#698=DIRECTION('',(0.,1.,0.));
#699=DIRECTION('',(0.,0.,1.));
#700=DIRECTION('',(0.,0.,-1.));
#701=DIRECTION('',(-0.999999999999999,0.,0.));
#702=DIRECTION('',(0.,1.,0.));
#703=DIRECTION('',(0.,0.,-1.));
#704=DIRECTION('',(-1.,0.,0.));
#705=DIRECTION('',(0.,-0.707106781186548,-0.707106781186548));
#706=DIRECTION('',(1.,0.,0.));
#707=DIRECTION('',(0.,0.,-1.));
#708=DIRECTION('',(0.,0.707106781186548,0.707106781186548));
#709=DIRECTION('',(0.,0.707106781186548,-0.707106781186548));
#710=DIRECTION('',(-1.,0.,0.));
#711=DIRECTION('',(1.,0.,0.));
#712=DIRECTION('',(0.,0.,1.));
#713=DIRECTION('',(0.,1.,0.));
#714=DIRECTION('',(0.,0.,1.));
#715=DIRECTION('',(0.,-1.,0.));
#716=DIRECTION('',(0.,0.,1.));
#717=DIRECTION('',(-1.,0.,0.));
#718=DIRECTION('',(0.,0.,-1.));
#719=DIRECTION('',(-1.,0.,0.));
#720=DIRECTION('',(0.,0.,-1.));
#721=DIRECTION('',(1.,0.,0.));
#722=DIRECTION('',(0.,0.,-1.));
#723=DIRECTION('',(0.,0.,1.));
#724=DIRECTION('',(1.,0.,0.));
#725=DIRECTION('',(0.,0.,-1.));
#726=DIRECTION('',(-1.,0.,0.));
#727=DIRECTION('',(0.,0.,1.));
#728=DIRECTION('',(0.,-1.,0.));
#729=DIRECTION('',(0.,0.,-1.));
#730=DIRECTION('',(0.,1.,0.));
#731=DIRECTION('',(0.,0.,1.));
#732=DIRECTION('',(0.,0.,-1.));
#733=DIRECTION('',(-1.,0.,0.));
#734=DIRECTION('',(0.,0.,1.));
#735=DIRECTION('',(0.,0.,-1.));
#736=DIRECTION('',(1.,0.,0.));
#737=DIRECTION('',(0.,0.,1.));
#738=DIRECTION('',(0.,1.,0.));
#739=DIRECTION('',(0.,0.,1.));
#740=DIRECTION('',(0.,0.,1.));
#741=DIRECTION('',(-1.,0.,0.));
#742=DIRECTION('',(0.,-1.,0.));
#743=DIRECTION('',(0.,0.,1.));
#744=DIRECTION('',(-1.,0.,0.));
#745=DIRECTION('',(0.,0.,1.));
#746=DIRECTION('',(-1.,0.,0.));
#747=DIRECTION('',(0.,0.,1.));
#748=DIRECTION('',(-1.,0.,0.));
#749=DIRECTION('',(0.,0.,-1.));
#750=DIRECTION('',(-1.,0.,0.));
#751=DIRECTION('',(0.,0.,1.));
#752=DIRECTION('',(0.,0.,-1.));
#753=DIRECTION('',(1.,0.,0.));
#754=DIRECTION('',(0.,0.,-1.));
#755=DIRECTION('',(0.,0.,1.));
#756=DIRECTION('',(1.,0.,0.));
#757=DIRECTION('',(0.,0.,1.));
#758=DIRECTION('',(1.,0.,0.));
#759=DIRECTION('',(0.,0.,1.));
#760=DIRECTION('',(1.,0.,0.));
#761=DIRECTION('',(0.,0.,1.));
#762=DIRECTION('',(1.,0.,0.));
#763=DIRECTION('',(0.,1.,0.));
#764=DIRECTION('',(0.,0.,1.));
#765=DIRECTION('',(-1.,0.,0.));
#766=DIRECTION('',(0.,0.,1.));
#767=DIRECTION('',(1.,0.,0.));
#768=DIRECTION('',(0.,0.,1.));
#769=DIRECTION('',(0.,0.,-1.));
#770=DIRECTION('',(0.,1.,0.));
#771=DIRECTION('',(0.,0.,1.));
#772=DIRECTION('',(0.,0.,-1.));
#773=DIRECTION('',(-0.999999999999999,0.,0.));
#774=DIRECTION('',(0.,0.,1.));
#775=DIRECTION('',(-1.,0.,0.));
#776=DIRECTION('',(0.,-1.,0.));
#777=DIRECTION('',(0.,0.,1.));
#778=DIRECTION('',(-0.999999999999997,0.,0.));
#779=DIRECTION('',(0.,0.,-1.));
#780=DIRECTION('',(-1.,0.,0.));
#781=DIRECTION('',(0.,0.,-1.));
#782=DIRECTION('',(1.,0.,0.));
#783=DIRECTION('',(0.,0.,-1.));
#784=DIRECTION('',(0.,0.,1.));
#785=DIRECTION('',(0.999999999999997,0.,0.));
#786=DIRECTION('',(0.,0.,1.));
#787=DIRECTION('',(1.,0.,0.));
#788=DIRECTION('',(0.,0.,-1.));
#789=DIRECTION('',(0.999999999999999,0.,0.));
#790=CARTESIAN_POINT('',(0.,0.,0.));
#791=CARTESIAN_POINT('',(213.6,55.8,53.9));
#792=CARTESIAN_POINT('',(306.1,55.8,53.9));
#793=CARTESIAN_POINT('',(219.626927491023,55.8,53.9));
#794=CARTESIAN_POINT('',(219.626927491023,55.8,53.95));
#795=CARTESIAN_POINT('',(219.626927491023,55.8,41.7));
#796=CARTESIAN_POINT('',(257.3,55.8,41.7));
#797=CARTESIAN_POINT('',(306.1,55.8,41.7));
#798=CARTESIAN_POINT('',(306.1,55.8,53.9));
#799=CARTESIAN_POINT('',(257.3,55.8,41.7));
#800=CARTESIAN_POINT('',(200.2,0.,48.1));
#801=CARTESIAN_POINT('',(200.2,5.8,53.9));
#802=CARTESIAN_POINT('',(200.2,0.,48.1));
#803=CARTESIAN_POINT('',(213.6,5.8,53.9));
#804=CARTESIAN_POINT('',(77.1,5.8,53.9));
#805=CARTESIAN_POINT('',(77.1,0.,48.1));
#806=CARTESIAN_POINT('',(77.1,0.,48.1));
#807=CARTESIAN_POINT('',(213.6,0.,48.1));
#808=CARTESIAN_POINT('',(213.6,0.,48.1));
#809=CARTESIAN_POINT('',(214.6,50.1,53.9));
#810=CARTESIAN_POINT('',(209.573072508977,55.8,53.9));
#811=CARTESIAN_POINT('',(306.1,47.5,53.9));
#812=CARTESIAN_POINT('',(314.4,47.5,53.9));
#813=CARTESIAN_POINT('',(314.4,111.75,53.9));
#814=CARTESIAN_POINT('',(314.4,5.8,53.9));
#815=CARTESIAN_POINT('',(213.6,5.8,53.9));
#816=CARTESIAN_POINT('',(427.2,5.8,53.9));
#817=CARTESIAN_POINT('',(427.2,111.75,53.9));
#818=CARTESIAN_POINT('',(427.2,223.5,53.9));
#819=CARTESIAN_POINT('',(213.6,223.5,53.9));
#820=CARTESIAN_POINT('',(0.,223.5,53.9));
#821=CARTESIAN_POINT('',(0.,111.75,53.9));
#822=CARTESIAN_POINT('',(0.,65.2,53.9));
#823=CARTESIAN_POINT('',(213.6,65.2,53.9));
#824=CARTESIAN_POINT('',(72.2,65.2,53.9));
#825=CARTESIAN_POINT('',(72.2,60.3,53.9));
#826=CARTESIAN_POINT('',(77.1,60.3,53.9));
#827=CARTESIAN_POINT('',(77.1,111.75,53.9));
#828=CARTESIAN_POINT('',(200.2,111.75,53.9));
#829=CARTESIAN_POINT('',(200.2,47.5,53.9));
#830=CARTESIAN_POINT('',(208.5,47.5,53.9));
#831=CARTESIAN_POINT('',(208.5,55.8,53.9));
#832=CARTESIAN_POINT('',(213.6,55.8,53.9));
#833=CARTESIAN_POINT('',(213.6,71.6,53.9));
#834=CARTESIAN_POINT('',(142.,71.6,53.9));
#835=CARTESIAN_POINT('',(234.,71.6,53.9));
#836=CARTESIAN_POINT('',(142.,77.6,53.9));
#837=CARTESIAN_POINT('',(136.,77.6,53.9));
#838=CARTESIAN_POINT('',(136.,111.75,53.9));
#839=CARTESIAN_POINT('',(136.,143.1,53.9));
#840=CARTESIAN_POINT('',(142.,143.1,53.9));
#841=CARTESIAN_POINT('',(142.,149.1,53.9));
#842=CARTESIAN_POINT('',(213.6,149.1,53.9));
#843=CARTESIAN_POINT('',(234.,149.1,53.9));
#844=CARTESIAN_POINT('',(234.,143.1,53.9));
#845=CARTESIAN_POINT('',(240.,143.1,53.9));
#846=CARTESIAN_POINT('',(240.,111.75,53.9));
#847=CARTESIAN_POINT('',(240.,77.6,53.9));
#848=CARTESIAN_POINT('',(234.,77.6,53.9));
#849=CARTESIAN_POINT('',(213.6,111.75,53.9));
#850=CARTESIAN_POINT('',(200.2,0.,41.7));
#851=CARTESIAN_POINT('',(200.2,0.,41.7));
#852=CARTESIAN_POINT('',(77.1,0.,28.));
#853=CARTESIAN_POINT('',(77.1,0.,28.));
#854=CARTESIAN_POINT('',(38.55,0.,28.));
#855=CARTESIAN_POINT('',(0.,0.,28.));
#856=CARTESIAN_POINT('',(0.,0.,0.));
#857=CARTESIAN_POINT('',(0.,0.,0.));
#858=CARTESIAN_POINT('',(213.6,0.,0.));
#859=CARTESIAN_POINT('',(427.2,0.,0.));
#860=CARTESIAN_POINT('',(427.2,0.,0.));
#861=CARTESIAN_POINT('',(427.2,0.,48.1));
#862=CARTESIAN_POINT('',(213.6,0.,48.1));
#863=CARTESIAN_POINT('',(314.4,0.,48.1));
#864=CARTESIAN_POINT('',(314.4,0.,41.7));
#865=CARTESIAN_POINT('',(314.4,0.,41.7));
#866=CARTESIAN_POINT('',(257.3,0.,41.7));
#867=CARTESIAN_POINT('',(213.6,0.,0.));
#868=CARTESIAN_POINT('',(0.,65.2,28.));
#869=CARTESIAN_POINT('',(0.,65.2,28.));
#870=CARTESIAN_POINT('',(0.,223.5,0.));
#871=CARTESIAN_POINT('',(0.,223.5,0.));
#872=CARTESIAN_POINT('',(0.,111.75,0.));
#873=CARTESIAN_POINT('',(0.,32.6,28.));
#874=CARTESIAN_POINT('',(0.,111.75,0.));
#875=CARTESIAN_POINT('',(427.2,223.5,0.));
#876=CARTESIAN_POINT('',(427.2,223.5,0.));
#877=CARTESIAN_POINT('',(213.6,223.5,0.));
#878=CARTESIAN_POINT('',(213.6,223.5,0.));
#879=CARTESIAN_POINT('',(214.6,50.1,0.));
#880=CARTESIAN_POINT('',(207.,50.1,0.));
#881=CARTESIAN_POINT('',(427.2,111.75,0.));
#882=CARTESIAN_POINT('',(213.6,111.75,0.));
#883=CARTESIAN_POINT('',(427.2,31.825,79.925));
#884=CARTESIAN_POINT('',(427.2,111.75,0.));
#885=CARTESIAN_POINT('',(314.4,0.,48.1));
#886=CARTESIAN_POINT('',(213.6,0.,48.1));
#887=CARTESIAN_POINT('',(38.55,65.2,28.));
#888=CARTESIAN_POINT('',(72.2,65.2,28.));
#889=CARTESIAN_POINT('',(72.2,65.2,53.9));
#890=CARTESIAN_POINT('',(38.55,65.2,28.));
#891=CARTESIAN_POINT('',(77.1,32.6,28.));
#892=CARTESIAN_POINT('',(77.1,60.3,28.));
#893=CARTESIAN_POINT('',(72.2,60.3,28.));
#894=CARTESIAN_POINT('',(38.55,32.6,28.));
#895=CARTESIAN_POINT('',(77.1,60.3,28.));
#896=CARTESIAN_POINT('',(77.1,32.6,28.));
#897=CARTESIAN_POINT('',(72.2,60.3,28.));
#898=CARTESIAN_POINT('',(234.,71.6,27.6));
#899=CARTESIAN_POINT('',(234.,71.6,27.6));
#900=CARTESIAN_POINT('',(188.,71.6,27.6));
#901=CARTESIAN_POINT('',(142.,71.6,27.6));
#902=CARTESIAN_POINT('',(142.,71.6,53.9));
#903=CARTESIAN_POINT('',(188.,71.6,27.6));
#904=CARTESIAN_POINT('',(136.,110.35,27.6));
#905=CARTESIAN_POINT('',(136.,77.6,27.6));
#906=CARTESIAN_POINT('',(136.,143.1,27.6));
#907=CARTESIAN_POINT('',(136.,143.1,53.9));
#908=CARTESIAN_POINT('',(136.,77.6,27.6));
#909=CARTESIAN_POINT('',(136.,110.35,27.6));
#910=CARTESIAN_POINT('',(142.,149.1,27.6));
#911=CARTESIAN_POINT('',(142.,149.1,27.6));
#912=CARTESIAN_POINT('',(188.,149.1,27.6));
#913=CARTESIAN_POINT('',(234.,149.1,27.6));
#914=CARTESIAN_POINT('',(234.,149.1,53.9));
#915=CARTESIAN_POINT('',(188.,149.1,27.6));
#916=CARTESIAN_POINT('',(234.,77.6,27.6));
#917=CARTESIAN_POINT('',(240.,77.6,27.6));
#918=CARTESIAN_POINT('',(240.,110.35,27.6));
#919=CARTESIAN_POINT('',(240.,143.1,27.6));
#920=CARTESIAN_POINT('',(234.,143.1,27.6));
#921=CARTESIAN_POINT('',(142.,143.1,27.6));
#922=CARTESIAN_POINT('',(142.,77.6,27.6));
#923=CARTESIAN_POINT('',(188.,110.35,27.6));
#924=CARTESIAN_POINT('',(240.,77.6,53.9));
#925=CARTESIAN_POINT('',(240.,143.1,27.6));
#926=CARTESIAN_POINT('',(240.,110.35,27.6));
#927=CARTESIAN_POINT('',(234.,77.6,27.6));
#928=CARTESIAN_POINT('',(142.,143.1,27.6));
#929=CARTESIAN_POINT('',(142.,77.6,27.6));
#930=CARTESIAN_POINT('',(234.,143.1,27.6));
#931=CARTESIAN_POINT('',(200.2,27.9,41.7));
#932=CARTESIAN_POINT('',(200.2,47.5,41.7));
#933=CARTESIAN_POINT('',(200.2,47.5,53.9));
#934=CARTESIAN_POINT('',(200.2,27.9,41.7));
#935=CARTESIAN_POINT('',(257.3,55.8,41.7));
#936=CARTESIAN_POINT('',(208.5,55.8,41.7));
#937=CARTESIAN_POINT('',(209.573072508977,55.8,41.7));
#938=CARTESIAN_POINT('',(209.573072508977,55.8,53.95));
#939=CARTESIAN_POINT('',(208.5,55.8,41.7));
#940=CARTESIAN_POINT('',(257.3,55.8,41.7));
#941=CARTESIAN_POINT('',(214.6,50.1,41.7));
#942=CARTESIAN_POINT('',(208.5,47.5,41.7));
#943=CARTESIAN_POINT('',(314.4,27.9,41.7));
#944=CARTESIAN_POINT('',(314.4,47.5,41.7));
#945=CARTESIAN_POINT('',(306.1,47.5,41.7));
#946=CARTESIAN_POINT('',(257.3,27.9,41.7));
#947=CARTESIAN_POINT('',(314.4,47.5,41.7));
#948=CARTESIAN_POINT('',(314.4,27.9,41.7));
#949=CARTESIAN_POINT('',(306.1,47.5,41.7));
#950=CARTESIAN_POINT('',(208.5,47.5,41.7));
#951=CARTESIAN_POINT('',(214.6,50.1,53.95));
#952=MECHANICAL_DESIGN_GEOMETRIC_PRESENTATION_REPRESENTATION('',(#24),#953);
#953=(
GEOMETRIC_REPRESENTATION_CONTEXT(3)
GLOBAL_UNCERTAINTY_ASSIGNED_CONTEXT((#954))
GLOBAL_UNIT_ASSIGNED_CONTEXT((#960,#956,#955))
REPRESENTATION_CONTEXT('featured_part_01022','TOP_LEVEL_ASSEMBLY_PART')
);
#954=UNCERTAINTY_MEASURE_WITH_UNIT(LENGTH_MEASURE(2.E-5),#960,
'DISTANCE_ACCURACY_VALUE','Maximum Tolerance applied to model');
#955=(
NAMED_UNIT(*)
SI_UNIT($,.STERADIAN.)
SOLID_ANGLE_UNIT()
);
#956=(
CONVERSION_BASED_UNIT('DEGREE',#958)
NAMED_UNIT(#957)
PLANE_ANGLE_UNIT()
);
#957=DIMENSIONAL_EXPONENTS(0.,0.,0.,0.,0.,0.,0.);
#958=PLANE_ANGLE_MEASURE_WITH_UNIT(PLANE_ANGLE_MEASURE(0.0174532925),#959);
#959=(
NAMED_UNIT(*)
PLANE_ANGLE_UNIT()
SI_UNIT($,.RADIAN.)
);
#960=(
LENGTH_UNIT()
NAMED_UNIT(*)
SI_UNIT(.MILLI.,.METRE.)
);
ENDSEC;
END-ISO-10303-21;
