ISO-10303-21;
HEADER;
/* Generated by software containing ST-Developer
 * from STEP Tools, Inc. (www.steptools.com) 
 */
/* OPTION: using custom schema-name function */

FILE_DESCRIPTION(
/* description */ (''),
/* implementation_level */ '2;1');

FILE_NAME(
/* name */ 'featured_part_05482.stp',
/* time_stamp */ '2026-07-16T03:07:21-04:00',
/* author */ (''),
/* organization */ (''),
/* preprocessor_version */ 'ST-DEVELOPER v20.1',
/* originating_system */ 'SIEMENS PLM Software NX2512.6002',
/* authorisation */ '');

FILE_SCHEMA (('AUTOMOTIVE_DESIGN { 1 0 10303 214 3 1 1 1 }'));
ENDSEC;

DATA;
#10=SHAPE_REPRESENTATION_RELATIONSHIP('None',
'relationship between featured_part_05482-None and featured_part_05482
-None',#22,#11);
#11=ADVANCED_BREP_SHAPE_REPRESENTATION('featured_part_05482-None',(#32),
#988);
#12=SHAPE_DEFINITION_REPRESENTATION(#13,#22);
#13=PRODUCT_DEFINITION_SHAPE('','',#14);
#14=PRODUCT_DEFINITION(' ','',#16,#15);
#15=PRODUCT_DEFINITION_CONTEXT('part definition',#21,'design');
#16=PRODUCT_DEFINITION_FORMATION_WITH_SPECIFIED_SOURCE(' ',' ',#18,
 .NOT_KNOWN.);
#17=PRODUCT_RELATED_PRODUCT_CATEGORY('part','',(#18));
#18=PRODUCT('featured_part_05482','featured_part_05482',' ',(#19));
#19=PRODUCT_CONTEXT(' ',#21,'mechanical');
#20=APPLICATION_PROTOCOL_DEFINITION('international standard',
'automotive_design',2010,#21);
#21=APPLICATION_CONTEXT(
'core data for automotive mechanical design processes');
#22=SHAPE_REPRESENTATION('featured_part_05482-None',(#599),#988);
#23=PRESENTATION_LAYER_ASSIGNMENT('1','Layer 1',(#32));
#24=STYLED_ITEM('',(#25),#32);
#25=PRESENTATION_STYLE_ASSIGNMENT((#26));
#26=SURFACE_STYLE_USAGE(.BOTH.,#27);
#27=SURFACE_SIDE_STYLE('',(#28));
#28=SURFACE_STYLE_FILL_AREA(#29);
#29=FILL_AREA_STYLE('',(#30));
#30=FILL_AREA_STYLE_COLOUR('',#31);
#31=COLOUR_RGB('medium steel',0.611764705882353,0.658823529411765,0.670588235294118);
#32=MANIFOLD_SOLID_BREP('',#33);
#33=CLOSED_SHELL('',(#70,#71,#72,#73,#74,#75,#76,#77,#78,#79,#80,#81,#82,
#83,#84,#85,#86,#87,#88,#89,#90,#91,#92,#93,#94,#95,#96,#97,#98,#99,#100));
#34=CYLINDRICAL_SURFACE('',#636,4.8);
#35=CYLINDRICAL_SURFACE('',#637,4.8);
#36=CYLINDRICAL_SURFACE('',#638,4.8);
#37=CYLINDRICAL_SURFACE('',#639,4.8);
#38=CYLINDRICAL_SURFACE('',#649,6.4);
#39=CYLINDRICAL_SURFACE('',#650,6.4);
#40=CYLINDRICAL_SURFACE('',#651,6.4);
#41=CYLINDRICAL_SURFACE('',#652,6.4);
#42=CYLINDRICAL_SURFACE('',#653,5.85);
#43=CYLINDRICAL_SURFACE('',#654,5.85);
#44=CYLINDRICAL_SURFACE('',#655,5.85);
#45=CYLINDRICAL_SURFACE('',#656,5.85);
#46=CYLINDRICAL_SURFACE('',#657,5.85);
#47=CYLINDRICAL_SURFACE('',#658,5.85);
#48=FACE_OUTER_BOUND('',#249,.T.);
#49=FACE_OUTER_BOUND('',#250,.T.);
#50=FACE_OUTER_BOUND('',#251,.T.);
#51=FACE_OUTER_BOUND('',#259,.T.);
#52=FACE_OUTER_BOUND('',#260,.T.);
#53=FACE_OUTER_BOUND('',#261,.T.);
#54=FACE_OUTER_BOUND('',#262,.T.);
#55=FACE_OUTER_BOUND('',#263,.T.);
#56=FACE_OUTER_BOUND('',#266,.T.);
#57=FACE_OUTER_BOUND('',#267,.T.);
#58=FACE_OUTER_BOUND('',#268,.T.);
#59=FACE_OUTER_BOUND('',#269,.T.);
#60=FACE_OUTER_BOUND('',#270,.T.);
#61=FACE_OUTER_BOUND('',#271,.T.);
#62=FACE_OUTER_BOUND('',#272,.T.);
#63=FACE_OUTER_BOUND('',#273,.T.);
#64=FACE_OUTER_BOUND('',#274,.T.);
#65=FACE_OUTER_BOUND('',#275,.T.);
#66=FACE_OUTER_BOUND('',#276,.T.);
#67=FACE_OUTER_BOUND('',#277,.T.);
#68=FACE_OUTER_BOUND('',#278,.T.);
#69=FACE_OUTER_BOUND('',#279,.T.);
#70=ADVANCED_FACE('',(#212,#213,#214,#215,#216,#217,#218,#219),#101,.T.);
#71=ADVANCED_FACE('',(#48),#102,.T.);
#72=ADVANCED_FACE('',(#49),#103,.T.);
#73=ADVANCED_FACE('',(#50),#104,.T.);
#74=ADVANCED_FACE('',(#220,#221,#222,#223,#224,#225,#226),#105,.T.);
#75=ADVANCED_FACE('',(#51),#106,.T.);
#76=ADVANCED_FACE('',(#52),#107,.F.);
#77=ADVANCED_FACE('',(#53),#108,.F.);
#78=ADVANCED_FACE('',(#54),#109,.F.);
#79=ADVANCED_FACE('',(#55),#110,.F.);
#80=ADVANCED_FACE('',(#227,#228),#111,.F.);
#81=ADVANCED_FACE('',(#56),#112,.F.);
#82=ADVANCED_FACE('',(#57),#34,.F.);
#83=ADVANCED_FACE('',(#58),#35,.F.);
#84=ADVANCED_FACE('',(#59),#36,.F.);
#85=ADVANCED_FACE('',(#60),#37,.F.);
#86=ADVANCED_FACE('',(#61),#113,.F.);
#87=ADVANCED_FACE('',(#62),#114,.F.);
#88=ADVANCED_FACE('',(#63),#115,.F.);
#89=ADVANCED_FACE('',(#64),#116,.F.);
#90=ADVANCED_FACE('',(#65),#117,.F.);
#91=ADVANCED_FACE('',(#66),#38,.F.);
#92=ADVANCED_FACE('',(#67),#39,.F.);
#93=ADVANCED_FACE('',(#68),#40,.F.);
#94=ADVANCED_FACE('',(#69),#41,.F.);
#95=ADVANCED_FACE('',(#229,#230),#42,.F.);
#96=ADVANCED_FACE('',(#231,#232),#43,.F.);
#97=ADVANCED_FACE('',(#233,#234),#44,.F.);
#98=ADVANCED_FACE('',(#235,#236),#45,.F.);
#99=ADVANCED_FACE('',(#237,#238),#46,.F.);
#100=ADVANCED_FACE('',(#239,#240),#47,.F.);
#101=PLANE('',#610);
#102=PLANE('',#611);
#103=PLANE('',#612);
#104=PLANE('',#613);
#105=PLANE('',#620);
#106=PLANE('',#621);
#107=PLANE('',#622);
#108=PLANE('',#623);
#109=PLANE('',#624);
#110=PLANE('',#625);
#111=PLANE('',#634);
#112=PLANE('',#635);
#113=PLANE('',#640);
#114=PLANE('',#641);
#115=PLANE('',#642);
#116=PLANE('',#643);
#117=PLANE('',#648);
#118=LINE('',#839,#165);
#119=LINE('',#844,#166);
#120=LINE('',#848,#167);
#121=LINE('',#852,#168);
#122=LINE('',#855,#169);
#123=LINE('',#858,#170);
#124=LINE('',#860,#171);
#125=LINE('',#862,#172);
#126=LINE('',#864,#173);
#127=LINE('',#867,#174);
#128=LINE('',#869,#175);
#129=LINE('',#871,#176);
#130=LINE('',#873,#177);
#131=LINE('',#874,#178);
#132=LINE('',#876,#179);
#133=LINE('',#878,#180);
#134=LINE('',#880,#181);
#135=LINE('',#894,#182);
#136=LINE('',#896,#183);
#137=LINE('',#899,#184);
#138=LINE('',#902,#185);
#139=LINE('',#903,#186);
#140=LINE('',#905,#187);
#141=LINE('',#907,#188);
#142=LINE('',#909,#189);
#143=LINE('',#911,#190);
#144=LINE('',#914,#191);
#145=LINE('',#915,#192);
#146=LINE('',#917,#193);
#147=LINE('',#922,#194);
#148=LINE('',#926,#195);
#149=LINE('',#930,#196);
#150=LINE('',#936,#197);
#151=LINE('',#941,#198);
#152=LINE('',#942,#199);
#153=LINE('',#948,#200);
#154=LINE('',#950,#201);
#155=LINE('',#952,#202);
#156=LINE('',#954,#203);
#157=LINE('',#957,#204);
#158=LINE('',#958,#205);
#159=LINE('',#960,#206);
#160=LINE('',#962,#207);
#161=LINE('',#964,#208);
#162=LINE('',#966,#209);
#163=LINE('',#969,#210);
#164=LINE('',#970,#211);
#165=VECTOR('',#673,1.);
#166=VECTOR('',#676,1.);
#167=VECTOR('',#679,1.);
#168=VECTOR('',#682,1.);
#169=VECTOR('',#685,1.);
#170=VECTOR('',#686,1.);
#171=VECTOR('',#687,1.);
#172=VECTOR('',#688,1.);
#173=VECTOR('',#691,1.);
#174=VECTOR('',#692,1.);
#175=VECTOR('',#693,1.);
#176=VECTOR('',#694,1.);
#177=VECTOR('',#697,1.);
#178=VECTOR('',#698,1.);
#179=VECTOR('',#699,1.);
#180=VECTOR('',#702,1.);
#181=VECTOR('',#703,1.);
#182=VECTOR('',#718,1.);
#183=VECTOR('',#721,1.);
#184=VECTOR('',#726,1.);
#185=VECTOR('',#727,1.);
#186=VECTOR('',#728,1.);
#187=VECTOR('',#731,1.);
#188=VECTOR('',#732,1.);
#189=VECTOR('',#733,1.);
#190=VECTOR('',#736,1.);
#191=VECTOR('',#737,1.);
#192=VECTOR('',#738,1.);
#193=VECTOR('',#741,1.);
#194=VECTOR('',#744,1.);
#195=VECTOR('',#747,1.);
#196=VECTOR('',#750,1.);
#197=VECTOR('',#757,1.);
#198=VECTOR('',#764,1.);
#199=VECTOR('',#765,1.);
#200=VECTOR('',#776,1.);
#201=VECTOR('',#777,1.);
#202=VECTOR('',#778,1.);
#203=VECTOR('',#781,1.);
#204=VECTOR('',#782,1.);
#205=VECTOR('',#783,1.);
#206=VECTOR('',#786,1.);
#207=VECTOR('',#787,1.);
#208=VECTOR('',#788,1.);
#209=VECTOR('',#791,1.);
#210=VECTOR('',#792,1.);
#211=VECTOR('',#793,1.);
#212=FACE_BOUND('',#241,.T.);
#213=FACE_BOUND('',#242,.T.);
#214=FACE_BOUND('',#243,.T.);
#215=FACE_BOUND('',#244,.T.);
#216=FACE_BOUND('',#245,.T.);
#217=FACE_BOUND('',#246,.T.);
#218=FACE_BOUND('',#247,.T.);
#219=FACE_BOUND('',#248,.T.);
#220=FACE_BOUND('',#252,.T.);
#221=FACE_BOUND('',#253,.T.);
#222=FACE_BOUND('',#254,.T.);
#223=FACE_BOUND('',#255,.T.);
#224=FACE_BOUND('',#256,.T.);
#225=FACE_BOUND('',#257,.T.);
#226=FACE_BOUND('',#258,.T.);
#227=FACE_BOUND('',#264,.T.);
#228=FACE_BOUND('',#265,.T.);
#229=FACE_BOUND('',#280,.T.);
#230=FACE_BOUND('',#281,.T.);
#231=FACE_BOUND('',#282,.T.);
#232=FACE_BOUND('',#283,.T.);
#233=FACE_BOUND('',#284,.T.);
#234=FACE_BOUND('',#285,.T.);
#235=FACE_BOUND('',#286,.T.);
#236=FACE_BOUND('',#287,.T.);
#237=FACE_BOUND('',#288,.T.);
#238=FACE_BOUND('',#289,.T.);
#239=FACE_BOUND('',#290,.T.);
#240=FACE_BOUND('',#291,.T.);
#241=EDGE_LOOP('',(#292));
#242=EDGE_LOOP('',(#293));
#243=EDGE_LOOP('',(#294));
#244=EDGE_LOOP('',(#295));
#245=EDGE_LOOP('',(#296));
#246=EDGE_LOOP('',(#297));
#247=EDGE_LOOP('',(#298,#299,#300,#301,#302,#303,#304,#305));
#248=EDGE_LOOP('',(#306,#307,#308,#309));
#249=EDGE_LOOP('',(#310,#311,#312,#313));
#250=EDGE_LOOP('',(#314,#315,#316,#317,#318));
#251=EDGE_LOOP('',(#319,#320,#321,#322));
#252=EDGE_LOOP('',(#323));
#253=EDGE_LOOP('',(#324));
#254=EDGE_LOOP('',(#325));
#255=EDGE_LOOP('',(#326));
#256=EDGE_LOOP('',(#327));
#257=EDGE_LOOP('',(#328));
#258=EDGE_LOOP('',(#329,#330,#331,#332));
#259=EDGE_LOOP('',(#333,#334,#335,#336,#337));
#260=EDGE_LOOP('',(#338,#339,#340,#341));
#261=EDGE_LOOP('',(#342,#343,#344,#345));
#262=EDGE_LOOP('',(#346,#347,#348,#349));
#263=EDGE_LOOP('',(#350,#351,#352,#353));
#264=EDGE_LOOP('',(#354,#355,#356,#357,#358,#359,#360,#361));
#265=EDGE_LOOP('',(#362,#363,#364,#365,#366,#367,#368,#369));
#266=EDGE_LOOP('',(#370,#371,#372,#373));
#267=EDGE_LOOP('',(#374,#375,#376,#377));
#268=EDGE_LOOP('',(#378,#379,#380,#381));
#269=EDGE_LOOP('',(#382,#383,#384,#385));
#270=EDGE_LOOP('',(#386,#387,#388,#389));
#271=EDGE_LOOP('',(#390,#391,#392,#393));
#272=EDGE_LOOP('',(#394,#395,#396,#397));
#273=EDGE_LOOP('',(#398,#399,#400,#401));
#274=EDGE_LOOP('',(#402,#403,#404,#405));
#275=EDGE_LOOP('',(#406,#407,#408,#409,#410,#411,#412,#413));
#276=EDGE_LOOP('',(#414,#415,#416,#417));
#277=EDGE_LOOP('',(#418,#419,#420,#421));
#278=EDGE_LOOP('',(#422,#423,#424,#425));
#279=EDGE_LOOP('',(#426,#427,#428,#429));
#280=EDGE_LOOP('',(#430));
#281=EDGE_LOOP('',(#431));
#282=EDGE_LOOP('',(#432));
#283=EDGE_LOOP('',(#433));
#284=EDGE_LOOP('',(#434));
#285=EDGE_LOOP('',(#435));
#286=EDGE_LOOP('',(#436));
#287=EDGE_LOOP('',(#437));
#288=EDGE_LOOP('',(#438));
#289=EDGE_LOOP('',(#439));
#290=EDGE_LOOP('',(#440));
#291=EDGE_LOOP('',(#441));
#292=ORIENTED_EDGE('',*,*,#496,.F.);
#293=ORIENTED_EDGE('',*,*,#497,.F.);
#294=ORIENTED_EDGE('',*,*,#498,.F.);
#295=ORIENTED_EDGE('',*,*,#499,.F.);
#296=ORIENTED_EDGE('',*,*,#500,.F.);
#297=ORIENTED_EDGE('',*,*,#501,.F.);
#298=ORIENTED_EDGE('',*,*,#502,.F.);
#299=ORIENTED_EDGE('',*,*,#503,.T.);
#300=ORIENTED_EDGE('',*,*,#504,.F.);
#301=ORIENTED_EDGE('',*,*,#505,.T.);
#302=ORIENTED_EDGE('',*,*,#506,.F.);
#303=ORIENTED_EDGE('',*,*,#507,.T.);
#304=ORIENTED_EDGE('',*,*,#508,.F.);
#305=ORIENTED_EDGE('',*,*,#509,.T.);
#306=ORIENTED_EDGE('',*,*,#510,.F.);
#307=ORIENTED_EDGE('',*,*,#511,.T.);
#308=ORIENTED_EDGE('',*,*,#512,.F.);
#309=ORIENTED_EDGE('',*,*,#513,.F.);
#310=ORIENTED_EDGE('',*,*,#514,.T.);
#311=ORIENTED_EDGE('',*,*,#515,.T.);
#312=ORIENTED_EDGE('',*,*,#516,.F.);
#313=ORIENTED_EDGE('',*,*,#517,.T.);
#314=ORIENTED_EDGE('',*,*,#516,.T.);
#315=ORIENTED_EDGE('',*,*,#518,.T.);
#316=ORIENTED_EDGE('',*,*,#510,.T.);
#317=ORIENTED_EDGE('',*,*,#519,.F.);
#318=ORIENTED_EDGE('',*,*,#520,.T.);
#319=ORIENTED_EDGE('',*,*,#519,.T.);
#320=ORIENTED_EDGE('',*,*,#513,.T.);
#321=ORIENTED_EDGE('',*,*,#521,.F.);
#322=ORIENTED_EDGE('',*,*,#522,.T.);
#323=ORIENTED_EDGE('',*,*,#523,.F.);
#324=ORIENTED_EDGE('',*,*,#524,.F.);
#325=ORIENTED_EDGE('',*,*,#525,.F.);
#326=ORIENTED_EDGE('',*,*,#526,.F.);
#327=ORIENTED_EDGE('',*,*,#527,.F.);
#328=ORIENTED_EDGE('',*,*,#528,.F.);
#329=ORIENTED_EDGE('',*,*,#529,.F.);
#330=ORIENTED_EDGE('',*,*,#517,.F.);
#331=ORIENTED_EDGE('',*,*,#520,.F.);
#332=ORIENTED_EDGE('',*,*,#522,.F.);
#333=ORIENTED_EDGE('',*,*,#512,.T.);
#334=ORIENTED_EDGE('',*,*,#530,.T.);
#335=ORIENTED_EDGE('',*,*,#514,.F.);
#336=ORIENTED_EDGE('',*,*,#529,.T.);
#337=ORIENTED_EDGE('',*,*,#521,.T.);
#338=ORIENTED_EDGE('',*,*,#530,.F.);
#339=ORIENTED_EDGE('',*,*,#511,.F.);
#340=ORIENTED_EDGE('',*,*,#518,.F.);
#341=ORIENTED_EDGE('',*,*,#515,.F.);
#342=ORIENTED_EDGE('',*,*,#531,.T.);
#343=ORIENTED_EDGE('',*,*,#532,.T.);
#344=ORIENTED_EDGE('',*,*,#502,.T.);
#345=ORIENTED_EDGE('',*,*,#533,.T.);
#346=ORIENTED_EDGE('',*,*,#504,.T.);
#347=ORIENTED_EDGE('',*,*,#534,.T.);
#348=ORIENTED_EDGE('',*,*,#535,.T.);
#349=ORIENTED_EDGE('',*,*,#536,.T.);
#350=ORIENTED_EDGE('',*,*,#537,.T.);
#351=ORIENTED_EDGE('',*,*,#538,.T.);
#352=ORIENTED_EDGE('',*,*,#506,.T.);
#353=ORIENTED_EDGE('',*,*,#539,.T.);
#354=ORIENTED_EDGE('',*,*,#540,.T.);
#355=ORIENTED_EDGE('',*,*,#541,.T.);
#356=ORIENTED_EDGE('',*,*,#542,.T.);
#357=ORIENTED_EDGE('',*,*,#543,.T.);
#358=ORIENTED_EDGE('',*,*,#544,.T.);
#359=ORIENTED_EDGE('',*,*,#545,.T.);
#360=ORIENTED_EDGE('',*,*,#546,.T.);
#361=ORIENTED_EDGE('',*,*,#547,.T.);
#362=ORIENTED_EDGE('',*,*,#535,.F.);
#363=ORIENTED_EDGE('',*,*,#548,.T.);
#364=ORIENTED_EDGE('',*,*,#531,.F.);
#365=ORIENTED_EDGE('',*,*,#549,.T.);
#366=ORIENTED_EDGE('',*,*,#550,.F.);
#367=ORIENTED_EDGE('',*,*,#551,.T.);
#368=ORIENTED_EDGE('',*,*,#537,.F.);
#369=ORIENTED_EDGE('',*,*,#552,.T.);
#370=ORIENTED_EDGE('',*,*,#508,.T.);
#371=ORIENTED_EDGE('',*,*,#553,.T.);
#372=ORIENTED_EDGE('',*,*,#550,.T.);
#373=ORIENTED_EDGE('',*,*,#554,.T.);
#374=ORIENTED_EDGE('',*,*,#503,.F.);
#375=ORIENTED_EDGE('',*,*,#532,.F.);
#376=ORIENTED_EDGE('',*,*,#548,.F.);
#377=ORIENTED_EDGE('',*,*,#534,.F.);
#378=ORIENTED_EDGE('',*,*,#507,.F.);
#379=ORIENTED_EDGE('',*,*,#538,.F.);
#380=ORIENTED_EDGE('',*,*,#551,.F.);
#381=ORIENTED_EDGE('',*,*,#553,.F.);
#382=ORIENTED_EDGE('',*,*,#505,.F.);
#383=ORIENTED_EDGE('',*,*,#536,.F.);
#384=ORIENTED_EDGE('',*,*,#552,.F.);
#385=ORIENTED_EDGE('',*,*,#539,.F.);
#386=ORIENTED_EDGE('',*,*,#509,.F.);
#387=ORIENTED_EDGE('',*,*,#554,.F.);
#388=ORIENTED_EDGE('',*,*,#549,.F.);
#389=ORIENTED_EDGE('',*,*,#533,.F.);
#390=ORIENTED_EDGE('',*,*,#544,.F.);
#391=ORIENTED_EDGE('',*,*,#555,.T.);
#392=ORIENTED_EDGE('',*,*,#556,.T.);
#393=ORIENTED_EDGE('',*,*,#557,.T.);
#394=ORIENTED_EDGE('',*,*,#558,.T.);
#395=ORIENTED_EDGE('',*,*,#559,.T.);
#396=ORIENTED_EDGE('',*,*,#546,.F.);
#397=ORIENTED_EDGE('',*,*,#560,.T.);
#398=ORIENTED_EDGE('',*,*,#540,.F.);
#399=ORIENTED_EDGE('',*,*,#561,.T.);
#400=ORIENTED_EDGE('',*,*,#562,.T.);
#401=ORIENTED_EDGE('',*,*,#563,.T.);
#402=ORIENTED_EDGE('',*,*,#564,.T.);
#403=ORIENTED_EDGE('',*,*,#565,.T.);
#404=ORIENTED_EDGE('',*,*,#542,.F.);
#405=ORIENTED_EDGE('',*,*,#566,.T.);
#406=ORIENTED_EDGE('',*,*,#562,.F.);
#407=ORIENTED_EDGE('',*,*,#567,.T.);
#408=ORIENTED_EDGE('',*,*,#558,.F.);
#409=ORIENTED_EDGE('',*,*,#568,.T.);
#410=ORIENTED_EDGE('',*,*,#556,.F.);
#411=ORIENTED_EDGE('',*,*,#569,.T.);
#412=ORIENTED_EDGE('',*,*,#564,.F.);
#413=ORIENTED_EDGE('',*,*,#570,.T.);
#414=ORIENTED_EDGE('',*,*,#547,.F.);
#415=ORIENTED_EDGE('',*,*,#559,.F.);
#416=ORIENTED_EDGE('',*,*,#567,.F.);
#417=ORIENTED_EDGE('',*,*,#561,.F.);
#418=ORIENTED_EDGE('',*,*,#543,.F.);
#419=ORIENTED_EDGE('',*,*,#565,.F.);
#420=ORIENTED_EDGE('',*,*,#569,.F.);
#421=ORIENTED_EDGE('',*,*,#555,.F.);
#422=ORIENTED_EDGE('',*,*,#545,.F.);
#423=ORIENTED_EDGE('',*,*,#557,.F.);
#424=ORIENTED_EDGE('',*,*,#568,.F.);
#425=ORIENTED_EDGE('',*,*,#560,.F.);
#426=ORIENTED_EDGE('',*,*,#541,.F.);
#427=ORIENTED_EDGE('',*,*,#563,.F.);
#428=ORIENTED_EDGE('',*,*,#570,.F.);
#429=ORIENTED_EDGE('',*,*,#566,.F.);
#430=ORIENTED_EDGE('',*,*,#501,.T.);
#431=ORIENTED_EDGE('',*,*,#528,.T.);
#432=ORIENTED_EDGE('',*,*,#500,.T.);
#433=ORIENTED_EDGE('',*,*,#527,.T.);
#434=ORIENTED_EDGE('',*,*,#499,.T.);
#435=ORIENTED_EDGE('',*,*,#526,.T.);
#436=ORIENTED_EDGE('',*,*,#498,.T.);
#437=ORIENTED_EDGE('',*,*,#525,.T.);
#438=ORIENTED_EDGE('',*,*,#497,.T.);
#439=ORIENTED_EDGE('',*,*,#524,.T.);
#440=ORIENTED_EDGE('',*,*,#496,.T.);
#441=ORIENTED_EDGE('',*,*,#523,.T.);
#442=VERTEX_POINT('',#828);
#443=VERTEX_POINT('',#830);
#444=VERTEX_POINT('',#832);
#445=VERTEX_POINT('',#834);
#446=VERTEX_POINT('',#836);
#447=VERTEX_POINT('',#838);
#448=VERTEX_POINT('',#840);
#449=VERTEX_POINT('',#841);
#450=VERTEX_POINT('',#843);
#451=VERTEX_POINT('',#845);
#452=VERTEX_POINT('',#847);
#453=VERTEX_POINT('',#849);
#454=VERTEX_POINT('',#851);
#455=VERTEX_POINT('',#853);
#456=VERTEX_POINT('',#856);
#457=VERTEX_POINT('',#857);
#458=VERTEX_POINT('',#859);
#459=VERTEX_POINT('',#861);
#460=VERTEX_POINT('',#865);
#461=VERTEX_POINT('',#866);
#462=VERTEX_POINT('',#868);
#463=VERTEX_POINT('',#870);
#464=VERTEX_POINT('',#875);
#465=VERTEX_POINT('',#879);
#466=VERTEX_POINT('',#883);
#467=VERTEX_POINT('',#885);
#468=VERTEX_POINT('',#887);
#469=VERTEX_POINT('',#889);
#470=VERTEX_POINT('',#891);
#471=VERTEX_POINT('',#893);
#472=VERTEX_POINT('',#900);
#473=VERTEX_POINT('',#901);
#474=VERTEX_POINT('',#906);
#475=VERTEX_POINT('',#908);
#476=VERTEX_POINT('',#912);
#477=VERTEX_POINT('',#913);
#478=VERTEX_POINT('',#918);
#479=VERTEX_POINT('',#919);
#480=VERTEX_POINT('',#921);
#481=VERTEX_POINT('',#923);
#482=VERTEX_POINT('',#925);
#483=VERTEX_POINT('',#927);
#484=VERTEX_POINT('',#929);
#485=VERTEX_POINT('',#931);
#486=VERTEX_POINT('',#935);
#487=VERTEX_POINT('',#937);
#488=VERTEX_POINT('',#949);
#489=VERTEX_POINT('',#951);
#490=VERTEX_POINT('',#955);
#491=VERTEX_POINT('',#956);
#492=VERTEX_POINT('',#961);
#493=VERTEX_POINT('',#963);
#494=VERTEX_POINT('',#967);
#495=VERTEX_POINT('',#968);
#496=EDGE_CURVE('',#442,#442,#571,.T.);
#497=EDGE_CURVE('',#443,#443,#572,.T.);
#498=EDGE_CURVE('',#444,#444,#573,.T.);
#499=EDGE_CURVE('',#445,#445,#574,.T.);
#500=EDGE_CURVE('',#446,#446,#575,.T.);
#501=EDGE_CURVE('',#447,#447,#576,.T.);
#502=EDGE_CURVE('',#448,#449,#118,.T.);
#503=EDGE_CURVE('',#448,#450,#577,.T.);
#504=EDGE_CURVE('',#451,#450,#119,.T.);
#505=EDGE_CURVE('',#451,#452,#578,.T.);
#506=EDGE_CURVE('',#453,#452,#120,.T.);
#507=EDGE_CURVE('',#453,#454,#579,.T.);
#508=EDGE_CURVE('',#455,#454,#121,.T.);
#509=EDGE_CURVE('',#455,#449,#580,.T.);
#510=EDGE_CURVE('',#456,#457,#122,.T.);
#511=EDGE_CURVE('',#456,#458,#123,.T.);
#512=EDGE_CURVE('',#459,#458,#124,.T.);
#513=EDGE_CURVE('',#457,#459,#125,.T.);
#514=EDGE_CURVE('',#460,#461,#126,.T.);
#515=EDGE_CURVE('',#461,#462,#127,.T.);
#516=EDGE_CURVE('',#463,#462,#128,.T.);
#517=EDGE_CURVE('',#463,#460,#129,.T.);
#518=EDGE_CURVE('',#462,#456,#130,.T.);
#519=EDGE_CURVE('',#464,#457,#131,.T.);
#520=EDGE_CURVE('',#464,#463,#132,.T.);
#521=EDGE_CURVE('',#465,#459,#133,.T.);
#522=EDGE_CURVE('',#465,#464,#134,.T.);
#523=EDGE_CURVE('',#466,#466,#581,.T.);
#524=EDGE_CURVE('',#467,#467,#582,.T.);
#525=EDGE_CURVE('',#468,#468,#583,.T.);
#526=EDGE_CURVE('',#469,#469,#584,.T.);
#527=EDGE_CURVE('',#470,#470,#585,.T.);
#528=EDGE_CURVE('',#471,#471,#586,.T.);
#529=EDGE_CURVE('',#460,#465,#135,.T.);
#530=EDGE_CURVE('',#458,#461,#136,.T.);
#531=EDGE_CURVE('',#472,#473,#137,.T.);
#532=EDGE_CURVE('',#473,#448,#138,.T.);
#533=EDGE_CURVE('',#449,#472,#139,.T.);
#534=EDGE_CURVE('',#450,#474,#140,.T.);
#535=EDGE_CURVE('',#474,#475,#141,.T.);
#536=EDGE_CURVE('',#475,#451,#142,.T.);
#537=EDGE_CURVE('',#476,#477,#143,.T.);
#538=EDGE_CURVE('',#477,#453,#144,.T.);
#539=EDGE_CURVE('',#452,#476,#145,.T.);
#540=EDGE_CURVE('',#478,#479,#146,.T.);
#541=EDGE_CURVE('',#479,#480,#587,.T.);
#542=EDGE_CURVE('',#480,#481,#147,.T.);
#543=EDGE_CURVE('',#481,#482,#588,.T.);
#544=EDGE_CURVE('',#482,#483,#148,.T.);
#545=EDGE_CURVE('',#483,#484,#589,.T.);
#546=EDGE_CURVE('',#484,#485,#149,.T.);
#547=EDGE_CURVE('',#485,#478,#590,.T.);
#548=EDGE_CURVE('',#474,#473,#591,.T.);
#549=EDGE_CURVE('',#472,#486,#592,.T.);
#550=EDGE_CURVE('',#487,#486,#150,.T.);
#551=EDGE_CURVE('',#487,#477,#593,.T.);
#552=EDGE_CURVE('',#476,#475,#594,.T.);
#553=EDGE_CURVE('',#454,#487,#151,.T.);
#554=EDGE_CURVE('',#486,#455,#152,.T.);
#555=EDGE_CURVE('',#482,#488,#153,.T.);
#556=EDGE_CURVE('',#488,#489,#154,.T.);
#557=EDGE_CURVE('',#489,#483,#155,.T.);
#558=EDGE_CURVE('',#490,#491,#156,.T.);
#559=EDGE_CURVE('',#491,#485,#157,.T.);
#560=EDGE_CURVE('',#484,#490,#158,.T.);
#561=EDGE_CURVE('',#478,#492,#159,.T.);
#562=EDGE_CURVE('',#492,#493,#160,.T.);
#563=EDGE_CURVE('',#493,#479,#161,.T.);
#564=EDGE_CURVE('',#494,#495,#162,.T.);
#565=EDGE_CURVE('',#495,#481,#163,.T.);
#566=EDGE_CURVE('',#480,#494,#164,.T.);
#567=EDGE_CURVE('',#492,#491,#595,.T.);
#568=EDGE_CURVE('',#490,#489,#596,.T.);
#569=EDGE_CURVE('',#488,#495,#597,.T.);
#570=EDGE_CURVE('',#494,#493,#598,.T.);
#571=CIRCLE('',#600,5.85);
#572=CIRCLE('',#601,5.85);
#573=CIRCLE('',#602,5.85);
#574=CIRCLE('',#603,5.85);
#575=CIRCLE('',#604,5.85);
#576=CIRCLE('',#605,5.85);
#577=CIRCLE('',#606,4.8);
#578=CIRCLE('',#607,4.8);
#579=CIRCLE('',#608,4.8);
#580=CIRCLE('',#609,4.8);
#581=CIRCLE('',#614,5.85);
#582=CIRCLE('',#615,5.85);
#583=CIRCLE('',#616,5.85);
#584=CIRCLE('',#617,5.85);
#585=CIRCLE('',#618,5.85);
#586=CIRCLE('',#619,5.85);
#587=CIRCLE('',#626,6.4);
#588=CIRCLE('',#627,6.4);
#589=CIRCLE('',#628,6.4);
#590=CIRCLE('',#629,6.4);
#591=CIRCLE('',#630,4.8);
#592=CIRCLE('',#631,4.8);
#593=CIRCLE('',#632,4.8);
#594=CIRCLE('',#633,4.8);
#595=CIRCLE('',#644,6.4);
#596=CIRCLE('',#645,6.4);
#597=CIRCLE('',#646,6.4);
#598=CIRCLE('',#647,6.4);
#599=AXIS2_PLACEMENT_3D('',#826,#659,#660);
#600=AXIS2_PLACEMENT_3D('',#827,#661,#662);
#601=AXIS2_PLACEMENT_3D('',#829,#663,#664);
#602=AXIS2_PLACEMENT_3D('',#831,#665,#666);
#603=AXIS2_PLACEMENT_3D('',#833,#667,#668);
#604=AXIS2_PLACEMENT_3D('',#835,#669,#670);
#605=AXIS2_PLACEMENT_3D('',#837,#671,#672);
#606=AXIS2_PLACEMENT_3D('',#842,#674,#675);
#607=AXIS2_PLACEMENT_3D('',#846,#677,#678);
#608=AXIS2_PLACEMENT_3D('',#850,#680,#681);
#609=AXIS2_PLACEMENT_3D('',#854,#683,#684);
#610=AXIS2_PLACEMENT_3D('',#863,#689,#690);
#611=AXIS2_PLACEMENT_3D('',#872,#695,#696);
#612=AXIS2_PLACEMENT_3D('',#877,#700,#701);
#613=AXIS2_PLACEMENT_3D('',#881,#704,#705);
#614=AXIS2_PLACEMENT_3D('',#882,#706,#707);
#615=AXIS2_PLACEMENT_3D('',#884,#708,#709);
#616=AXIS2_PLACEMENT_3D('',#886,#710,#711);
#617=AXIS2_PLACEMENT_3D('',#888,#712,#713);
#618=AXIS2_PLACEMENT_3D('',#890,#714,#715);
#619=AXIS2_PLACEMENT_3D('',#892,#716,#717);
#620=AXIS2_PLACEMENT_3D('',#895,#719,#720);
#621=AXIS2_PLACEMENT_3D('',#897,#722,#723);
#622=AXIS2_PLACEMENT_3D('',#898,#724,#725);
#623=AXIS2_PLACEMENT_3D('',#904,#729,#730);
#624=AXIS2_PLACEMENT_3D('',#910,#734,#735);
#625=AXIS2_PLACEMENT_3D('',#916,#739,#740);
#626=AXIS2_PLACEMENT_3D('',#920,#742,#743);
#627=AXIS2_PLACEMENT_3D('',#924,#745,#746);
#628=AXIS2_PLACEMENT_3D('',#928,#748,#749);
#629=AXIS2_PLACEMENT_3D('',#932,#751,#752);
#630=AXIS2_PLACEMENT_3D('',#933,#753,#754);
#631=AXIS2_PLACEMENT_3D('',#934,#755,#756);
#632=AXIS2_PLACEMENT_3D('',#938,#758,#759);
#633=AXIS2_PLACEMENT_3D('',#939,#760,#761);
#634=AXIS2_PLACEMENT_3D('',#940,#762,#763);
#635=AXIS2_PLACEMENT_3D('',#943,#766,#767);
#636=AXIS2_PLACEMENT_3D('',#944,#768,#769);
#637=AXIS2_PLACEMENT_3D('',#945,#770,#771);
#638=AXIS2_PLACEMENT_3D('',#946,#772,#773);
#639=AXIS2_PLACEMENT_3D('',#947,#774,#775);
#640=AXIS2_PLACEMENT_3D('',#953,#779,#780);
#641=AXIS2_PLACEMENT_3D('',#959,#784,#785);
#642=AXIS2_PLACEMENT_3D('',#965,#789,#790);
#643=AXIS2_PLACEMENT_3D('',#971,#794,#795);
#644=AXIS2_PLACEMENT_3D('',#972,#796,#797);
#645=AXIS2_PLACEMENT_3D('',#973,#798,#799);
#646=AXIS2_PLACEMENT_3D('',#974,#800,#801);
#647=AXIS2_PLACEMENT_3D('',#975,#802,#803);
#648=AXIS2_PLACEMENT_3D('',#976,#804,#805);
#649=AXIS2_PLACEMENT_3D('',#977,#806,#807);
#650=AXIS2_PLACEMENT_3D('',#978,#808,#809);
#651=AXIS2_PLACEMENT_3D('',#979,#810,#811);
#652=AXIS2_PLACEMENT_3D('',#980,#812,#813);
#653=AXIS2_PLACEMENT_3D('',#981,#814,#815);
#654=AXIS2_PLACEMENT_3D('',#982,#816,#817);
#655=AXIS2_PLACEMENT_3D('',#983,#818,#819);
#656=AXIS2_PLACEMENT_3D('',#984,#820,#821);
#657=AXIS2_PLACEMENT_3D('',#985,#822,#823);
#658=AXIS2_PLACEMENT_3D('',#986,#824,#825);
#659=DIRECTION('',(0.,0.,1.));
#660=DIRECTION('',(1.,0.,0.));
#661=DIRECTION('',(0.,0.,1.));
#662=DIRECTION('',(0.999999999999999,0.,0.));
#663=DIRECTION('',(0.,0.,1.));
#664=DIRECTION('',(0.999999999999999,0.,0.));
#665=DIRECTION('',(0.,0.,1.));
#666=DIRECTION('',(0.999999999999999,0.,0.));
#667=DIRECTION('',(0.,0.,1.));
#668=DIRECTION('',(0.999999999999999,0.,0.));
#669=DIRECTION('',(0.,0.,1.));
#670=DIRECTION('',(1.,0.,0.));
#671=DIRECTION('',(0.,0.,1.));
#672=DIRECTION('',(1.,0.,0.));
#673=DIRECTION('',(1.,0.,0.));
#674=DIRECTION('',(0.,0.,-1.));
#675=DIRECTION('',(1.,0.,0.));
#676=DIRECTION('',(0.,-1.,0.));
#677=DIRECTION('',(0.,0.,-1.));
#678=DIRECTION('',(1.,0.,0.));
#679=DIRECTION('',(-1.,0.,0.));
#680=DIRECTION('',(0.,0.,-1.));
#681=DIRECTION('',(1.,0.,0.));
#682=DIRECTION('',(0.,1.,0.));
#683=DIRECTION('',(0.,0.,-1.));
#684=DIRECTION('',(1.,0.,0.));
#685=DIRECTION('',(0.,1.,0.));
#686=DIRECTION('',(1.,0.,0.));
#687=DIRECTION('',(0.,-1.,0.));
#688=DIRECTION('',(1.,0.,0.));
#689=DIRECTION('',(0.,0.,1.));
#690=DIRECTION('',(1.,0.,0.));
#691=DIRECTION('',(0.,0.,1.));
#692=DIRECTION('',(-1.,0.,0.));
#693=DIRECTION('',(0.,0.,1.));
#694=DIRECTION('',(1.,0.,0.));
#695=DIRECTION('',(0.,-1.,0.));
#696=DIRECTION('',(0.,0.,-1.));
#697=DIRECTION('',(0.,0.707106781186547,0.707106781186548));
#698=DIRECTION('',(0.,0.,1.));
#699=DIRECTION('',(0.,-1.,0.));
#700=DIRECTION('',(-1.,0.,0.));
#701=DIRECTION('',(0.,0.,1.));
#702=DIRECTION('',(0.,0.,1.));
#703=DIRECTION('',(-1.,0.,0.));
#704=DIRECTION('',(0.,1.,0.));
#705=DIRECTION('',(0.,0.,1.));
#706=DIRECTION('',(0.,0.,-1.));
#707=DIRECTION('',(-0.999999999999999,0.,0.));
#708=DIRECTION('',(0.,0.,-1.));
#709=DIRECTION('',(-0.999999999999999,0.,0.));
#710=DIRECTION('',(0.,0.,-1.));
#711=DIRECTION('',(-0.999999999999999,0.,0.));
#712=DIRECTION('',(0.,0.,-1.));
#713=DIRECTION('',(-0.999999999999999,0.,0.));
#714=DIRECTION('',(0.,0.,-1.));
#715=DIRECTION('',(-1.,0.,0.));
#716=DIRECTION('',(0.,0.,-1.));
#717=DIRECTION('',(-1.,0.,0.));
#718=DIRECTION('',(0.,1.,0.));
#719=DIRECTION('',(0.,0.,-1.));
#720=DIRECTION('',(-1.,0.,0.));
#721=DIRECTION('',(0.,-0.707106781186547,-0.707106781186548));
#722=DIRECTION('',(1.,0.,0.));
#723=DIRECTION('',(0.,0.,-1.));
#724=DIRECTION('',(0.,0.707106781186548,-0.707106781186547));
#725=DIRECTION('',(-1.,0.,0.));
#726=DIRECTION('',(-1.,0.,0.));
#727=DIRECTION('',(0.,0.,1.));
#728=DIRECTION('',(0.,0.,-1.));
#729=DIRECTION('',(0.,-1.,0.));
#730=DIRECTION('',(0.,0.,-1.));
#731=DIRECTION('',(0.,0.,-1.));
#732=DIRECTION('',(0.,1.,0.));
#733=DIRECTION('',(0.,0.,1.));
#734=DIRECTION('',(-1.,0.,0.));
#735=DIRECTION('',(0.,0.,1.));
#736=DIRECTION('',(1.,0.,0.));
#737=DIRECTION('',(0.,0.,1.));
#738=DIRECTION('',(0.,0.,-1.));
#739=DIRECTION('',(0.,1.,0.));
#740=DIRECTION('',(0.,0.,1.));
#741=DIRECTION('',(1.,0.,0.));
#742=DIRECTION('',(0.,0.,-1.));
#743=DIRECTION('',(-1.,0.,0.));
#744=DIRECTION('',(0.,-1.,0.));
#745=DIRECTION('',(0.,0.,-1.));
#746=DIRECTION('',(-1.,0.,0.));
#747=DIRECTION('',(-1.,0.,0.));
#748=DIRECTION('',(0.,0.,-1.));
#749=DIRECTION('',(-1.,0.,0.));
#750=DIRECTION('',(0.,1.,0.));
#751=DIRECTION('',(0.,0.,-1.));
#752=DIRECTION('',(-1.,0.,0.));
#753=DIRECTION('',(0.,0.,1.));
#754=DIRECTION('',(-1.,0.,0.));
#755=DIRECTION('',(0.,0.,1.));
#756=DIRECTION('',(-1.,0.,0.));
#757=DIRECTION('',(0.,-1.,0.));
#758=DIRECTION('',(0.,0.,1.));
#759=DIRECTION('',(-1.,0.,0.));
#760=DIRECTION('',(0.,0.,1.));
#761=DIRECTION('',(-1.,0.,0.));
#762=DIRECTION('',(0.,0.,-1.));
#763=DIRECTION('',(-1.,0.,0.));
#764=DIRECTION('',(0.,0.,-1.));
#765=DIRECTION('',(0.,0.,1.));
#766=DIRECTION('',(1.,0.,0.));
#767=DIRECTION('',(0.,0.,-1.));
#768=DIRECTION('',(0.,0.,1.));
#769=DIRECTION('',(1.,0.,0.));
#770=DIRECTION('',(0.,0.,1.));
#771=DIRECTION('',(1.,0.,0.));
#772=DIRECTION('',(0.,0.,1.));
#773=DIRECTION('',(1.,0.,0.));
#774=DIRECTION('',(0.,0.,1.));
#775=DIRECTION('',(1.,0.,0.));
#776=DIRECTION('',(0.,0.,-1.));
#777=DIRECTION('',(-1.,0.,0.));
#778=DIRECTION('',(0.,0.,1.));
#779=DIRECTION('',(0.,-1.,0.));
#780=DIRECTION('',(0.,0.,-1.));
#781=DIRECTION('',(0.,1.,0.));
#782=DIRECTION('',(0.,0.,1.));
#783=DIRECTION('',(0.,0.,-1.));
#784=DIRECTION('',(-1.,0.,0.));
#785=DIRECTION('',(0.,0.,1.));
#786=DIRECTION('',(0.,0.,-1.));
#787=DIRECTION('',(1.,0.,0.));
#788=DIRECTION('',(0.,0.,1.));
#789=DIRECTION('',(0.,1.,0.));
#790=DIRECTION('',(0.,0.,1.));
#791=DIRECTION('',(0.,-1.,0.));
#792=DIRECTION('',(0.,0.,1.));
#793=DIRECTION('',(0.,0.,-1.));
#794=DIRECTION('',(1.,0.,0.));
#795=DIRECTION('',(0.,0.,-1.));
#796=DIRECTION('',(0.,0.,1.));
#797=DIRECTION('',(-1.,0.,0.));
#798=DIRECTION('',(0.,0.,1.));
#799=DIRECTION('',(-1.,0.,0.));
#800=DIRECTION('',(0.,0.,1.));
#801=DIRECTION('',(-1.,0.,0.));
#802=DIRECTION('',(0.,0.,1.));
#803=DIRECTION('',(-1.,0.,0.));
#804=DIRECTION('',(0.,0.,-1.));
#805=DIRECTION('',(-1.,0.,0.));
#806=DIRECTION('',(0.,0.,1.));
#807=DIRECTION('',(1.,0.,0.));
#808=DIRECTION('',(0.,0.,1.));
#809=DIRECTION('',(1.,0.,0.));
#810=DIRECTION('',(0.,0.,1.));
#811=DIRECTION('',(1.,0.,0.));
#812=DIRECTION('',(0.,0.,1.));
#813=DIRECTION('',(1.,0.,0.));
#814=DIRECTION('',(0.,0.,-1.));
#815=DIRECTION('',(1.,0.,0.));
#816=DIRECTION('',(0.,0.,-1.));
#817=DIRECTION('',(1.,0.,0.));
#818=DIRECTION('',(0.,0.,-1.));
#819=DIRECTION('',(0.999999999999999,0.,0.));
#820=DIRECTION('',(0.,0.,-1.));
#821=DIRECTION('',(0.999999999999999,0.,0.));
#822=DIRECTION('',(0.,0.,-1.));
#823=DIRECTION('',(0.999999999999999,0.,0.));
#824=DIRECTION('',(0.,0.,-1.));
#825=DIRECTION('',(0.999999999999999,0.,0.));
#826=CARTESIAN_POINT('',(0.,0.,0.));
#827=CARTESIAN_POINT('',(210.8,88.5,54.));
#828=CARTESIAN_POINT('',(216.65,88.5,54.));
#829=CARTESIAN_POINT('',(172.4,88.5,54.));
#830=CARTESIAN_POINT('',(178.25,88.5,54.));
#831=CARTESIAN_POINT('',(134.,88.5,54.));
#832=CARTESIAN_POINT('',(139.85,88.5,54.));
#833=CARTESIAN_POINT('',(95.6,88.5,54.));
#834=CARTESIAN_POINT('',(101.45,88.5,54.));
#835=CARTESIAN_POINT('',(57.3,88.5,54.));
#836=CARTESIAN_POINT('',(63.15,88.5,54.));
#837=CARTESIAN_POINT('',(18.9,88.5,54.));
#838=CARTESIAN_POINT('',(24.75,88.5,54.));
#839=CARTESIAN_POINT('',(119.15,112.1,54.));
#840=CARTESIAN_POINT('',(39.6,112.1,54.));
#841=CARTESIAN_POINT('',(94.7,112.1,54.));
#842=CARTESIAN_POINT('',(39.6,116.9,54.));
#843=CARTESIAN_POINT('',(34.8,116.9,54.));
#844=CARTESIAN_POINT('',(34.8,174.1,54.));
#845=CARTESIAN_POINT('',(34.8,214.1,54.));
#846=CARTESIAN_POINT('',(39.6,214.1,54.));
#847=CARTESIAN_POINT('',(39.6,218.9,54.));
#848=CARTESIAN_POINT('',(119.15,218.9,54.));
#849=CARTESIAN_POINT('',(94.7,218.9,54.));
#850=CARTESIAN_POINT('',(94.7,214.1,54.));
#851=CARTESIAN_POINT('',(99.5,214.1,54.));
#852=CARTESIAN_POINT('',(99.5,174.1,54.));
#853=CARTESIAN_POINT('',(99.5,116.9,54.));
#854=CARTESIAN_POINT('',(94.7,116.9,54.));
#855=CARTESIAN_POINT('',(0.,174.1,54.));
#856=CARTESIAN_POINT('',(0.,6.59999999999999,54.));
#857=CARTESIAN_POINT('',(0.,348.2,54.));
#858=CARTESIAN_POINT('',(119.15,6.59999999999999,54.));
#859=CARTESIAN_POINT('',(238.3,6.59999999999999,54.));
#860=CARTESIAN_POINT('',(238.3,174.1,54.));
#861=CARTESIAN_POINT('',(238.3,348.2,54.));
#862=CARTESIAN_POINT('',(119.15,348.2,54.));
#863=CARTESIAN_POINT('',(119.15,174.1,54.));
#864=CARTESIAN_POINT('',(238.3,0.,0.));
#865=CARTESIAN_POINT('',(238.3,0.,0.));
#866=CARTESIAN_POINT('',(238.3,0.,47.4));
#867=CARTESIAN_POINT('',(119.15,0.,47.4));
#868=CARTESIAN_POINT('',(0.,0.,47.4));
#869=CARTESIAN_POINT('',(0.,0.,0.));
#870=CARTESIAN_POINT('',(0.,0.,0.));
#871=CARTESIAN_POINT('',(119.15,0.,0.));
#872=CARTESIAN_POINT('',(119.15,0.,0.));
#873=CARTESIAN_POINT('',(0.,63.3499999999999,110.75));
#874=CARTESIAN_POINT('',(0.,348.2,0.));
#875=CARTESIAN_POINT('',(0.,348.2,0.));
#876=CARTESIAN_POINT('',(0.,174.1,0.));
#877=CARTESIAN_POINT('',(0.,174.1,0.));
#878=CARTESIAN_POINT('',(238.3,348.2,0.));
#879=CARTESIAN_POINT('',(238.3,348.2,0.));
#880=CARTESIAN_POINT('',(119.15,348.2,0.));
#881=CARTESIAN_POINT('',(119.15,348.2,0.));
#882=CARTESIAN_POINT('',(210.8,88.5,0.));
#883=CARTESIAN_POINT('',(204.95,88.5,0.));
#884=CARTESIAN_POINT('',(172.4,88.5,0.));
#885=CARTESIAN_POINT('',(166.55,88.5,0.));
#886=CARTESIAN_POINT('',(134.,88.5,0.));
#887=CARTESIAN_POINT('',(128.15,88.5,0.));
#888=CARTESIAN_POINT('',(95.6,88.5,0.));
#889=CARTESIAN_POINT('',(89.75,88.5,0.));
#890=CARTESIAN_POINT('',(57.3,88.5,0.));
#891=CARTESIAN_POINT('',(51.45,88.5,0.));
#892=CARTESIAN_POINT('',(18.9,88.5,0.));
#893=CARTESIAN_POINT('',(13.05,88.5,0.));
#894=CARTESIAN_POINT('',(238.3,174.1,0.));
#895=CARTESIAN_POINT('',(119.15,174.1,0.));
#896=CARTESIAN_POINT('',(238.3,63.3499999999999,110.75));
#897=CARTESIAN_POINT('',(238.3,174.1,0.));
#898=CARTESIAN_POINT('',(119.15,0.,47.4));
#899=CARTESIAN_POINT('',(67.15,112.1,28.1));
#900=CARTESIAN_POINT('',(94.7,112.1,28.1));
#901=CARTESIAN_POINT('',(39.6,112.1,28.1));
#902=CARTESIAN_POINT('',(39.6,112.1,54.));
#903=CARTESIAN_POINT('',(94.7,112.1,28.1));
#904=CARTESIAN_POINT('',(67.15,112.1,28.1));
#905=CARTESIAN_POINT('',(34.8,116.9,28.1));
#906=CARTESIAN_POINT('',(34.8,116.9,28.1));
#907=CARTESIAN_POINT('',(34.8,165.5,28.1));
#908=CARTESIAN_POINT('',(34.8,214.1,28.1));
#909=CARTESIAN_POINT('',(34.8,214.1,54.));
#910=CARTESIAN_POINT('',(34.8,165.5,28.1));
#911=CARTESIAN_POINT('',(67.15,218.9,28.1));
#912=CARTESIAN_POINT('',(39.6,218.9,28.1));
#913=CARTESIAN_POINT('',(94.7,218.9,28.1));
#914=CARTESIAN_POINT('',(94.7,218.9,54.));
#915=CARTESIAN_POINT('',(39.6,218.9,28.1));
#916=CARTESIAN_POINT('',(67.15,218.9,28.1));
#917=CARTESIAN_POINT('',(67.15,174.3,28.1));
#918=CARTESIAN_POINT('',(56.9,174.3,28.1));
#919=CARTESIAN_POINT('',(76.5,174.3,28.1));
#920=CARTESIAN_POINT('',(76.5,167.9,28.1));
#921=CARTESIAN_POINT('',(82.9,167.9,28.1));
#922=CARTESIAN_POINT('',(82.9,165.5,28.1));
#923=CARTESIAN_POINT('',(82.9,140.2,28.1));
#924=CARTESIAN_POINT('',(76.5,140.2,28.1));
#925=CARTESIAN_POINT('',(76.5,133.8,28.1));
#926=CARTESIAN_POINT('',(67.15,133.8,28.1));
#927=CARTESIAN_POINT('',(56.9,133.8,28.1));
#928=CARTESIAN_POINT('',(56.9,140.2,28.1));
#929=CARTESIAN_POINT('',(50.5,140.2,28.1));
#930=CARTESIAN_POINT('',(50.5,165.5,28.1));
#931=CARTESIAN_POINT('',(50.5,167.9,28.1));
#932=CARTESIAN_POINT('',(56.9,167.9,28.1));
#933=CARTESIAN_POINT('',(39.6,116.9,28.1));
#934=CARTESIAN_POINT('',(94.7,116.9,28.1));
#935=CARTESIAN_POINT('',(99.5,116.9,28.1));
#936=CARTESIAN_POINT('',(99.5,165.5,28.1));
#937=CARTESIAN_POINT('',(99.5,214.1,28.1));
#938=CARTESIAN_POINT('',(94.7,214.1,28.1));
#939=CARTESIAN_POINT('',(39.6,214.1,28.1));
#940=CARTESIAN_POINT('',(67.15,165.5,28.1));
#941=CARTESIAN_POINT('',(99.5,214.1,28.1));
#942=CARTESIAN_POINT('',(99.5,116.9,54.));
#943=CARTESIAN_POINT('',(99.5,165.5,28.1));
#944=CARTESIAN_POINT('',(39.6,116.9,28.1));
#945=CARTESIAN_POINT('',(94.7,214.1,28.1));
#946=CARTESIAN_POINT('',(39.6,214.1,28.1));
#947=CARTESIAN_POINT('',(94.7,116.9,28.1));
#948=CARTESIAN_POINT('',(76.5,133.8,16.1));
#949=CARTESIAN_POINT('',(76.5,133.8,16.1));
#950=CARTESIAN_POINT('',(66.7,133.8,16.1));
#951=CARTESIAN_POINT('',(56.9,133.8,16.1));
#952=CARTESIAN_POINT('',(56.9,133.8,28.1));
#953=CARTESIAN_POINT('',(66.7,133.8,16.1));
#954=CARTESIAN_POINT('',(50.5,154.05,16.1));
#955=CARTESIAN_POINT('',(50.5,140.2,16.1));
#956=CARTESIAN_POINT('',(50.5,167.9,16.1));
#957=CARTESIAN_POINT('',(50.5,167.9,28.1));
#958=CARTESIAN_POINT('',(50.5,140.2,16.1));
#959=CARTESIAN_POINT('',(50.5,154.05,16.1));
#960=CARTESIAN_POINT('',(56.9,174.3,16.1));
#961=CARTESIAN_POINT('',(56.9,174.3,16.1));
#962=CARTESIAN_POINT('',(66.7,174.3,16.1));
#963=CARTESIAN_POINT('',(76.5,174.3,16.1));
#964=CARTESIAN_POINT('',(76.5,174.3,28.1));
#965=CARTESIAN_POINT('',(66.7,174.3,16.1));
#966=CARTESIAN_POINT('',(82.9,154.05,16.1));
#967=CARTESIAN_POINT('',(82.9,167.9,16.1));
#968=CARTESIAN_POINT('',(82.9,140.2,16.1));
#969=CARTESIAN_POINT('',(82.9,140.2,28.1));
#970=CARTESIAN_POINT('',(82.9,167.9,16.1));
#971=CARTESIAN_POINT('',(82.9,154.05,16.1));
#972=CARTESIAN_POINT('',(56.9,167.9,16.1));
#973=CARTESIAN_POINT('',(56.9,140.2,16.1));
#974=CARTESIAN_POINT('',(76.5,140.2,16.1));
#975=CARTESIAN_POINT('',(76.5,167.9,16.1));
#976=CARTESIAN_POINT('',(66.7,154.05,16.1));
#977=CARTESIAN_POINT('',(56.9,167.9,16.1));
#978=CARTESIAN_POINT('',(76.5,140.2,16.1));
#979=CARTESIAN_POINT('',(56.9,140.2,16.1));
#980=CARTESIAN_POINT('',(76.5,167.9,16.1));
#981=CARTESIAN_POINT('',(18.9,88.5,54.05));
#982=CARTESIAN_POINT('',(57.3,88.5,54.05));
#983=CARTESIAN_POINT('',(95.6,88.5,54.05));
#984=CARTESIAN_POINT('',(134.,88.5,54.05));
#985=CARTESIAN_POINT('',(172.4,88.5,54.05));
#986=CARTESIAN_POINT('',(210.8,88.5,54.05));
#987=MECHANICAL_DESIGN_GEOMETRIC_PRESENTATION_REPRESENTATION('',(#24),#988);
#988=(
GEOMETRIC_REPRESENTATION_CONTEXT(3)
GLOBAL_UNCERTAINTY_ASSIGNED_CONTEXT((#989))
GLOBAL_UNIT_ASSIGNED_CONTEXT((#995,#991,#990))
REPRESENTATION_CONTEXT('featured_part_05482','TOP_LEVEL_ASSEMBLY_PART')
);
#989=UNCERTAINTY_MEASURE_WITH_UNIT(LENGTH_MEASURE(2.E-5),#995,
'DISTANCE_ACCURACY_VALUE','Maximum Tolerance applied to model');
#990=(
NAMED_UNIT(*)
SI_UNIT($,.STERADIAN.)
SOLID_ANGLE_UNIT()
);
#991=(
CONVERSION_BASED_UNIT('DEGREE',#993)
NAMED_UNIT(#992)
PLANE_ANGLE_UNIT()
);
#992=DIMENSIONAL_EXPONENTS(0.,0.,0.,0.,0.,0.,0.);
#993=PLANE_ANGLE_MEASURE_WITH_UNIT(PLANE_ANGLE_MEASURE(0.0174532925),#994);
#994=(
NAMED_UNIT(*)
PLANE_ANGLE_UNIT()
SI_UNIT($,.RADIAN.)
);
#995=(
LENGTH_UNIT()
NAMED_UNIT(*)
SI_UNIT(.MILLI.,.METRE.)
);
ENDSEC;
END-ISO-10303-21;
