ISO-10303-21;
HEADER;
/* Generated by software containing ST-Developer
 * from STEP Tools, Inc. (www.steptools.com) 
 */
/* OPTION: using custom schema-name function */

FILE_DESCRIPTION(
/* description */ (''),
/* implementation_level */ '2;1');

FILE_NAME(
/* name */ 'featured_part_08095.stp',
/* time_stamp */ '2026-07-15T02:15:06-04:00',
/* author */ (''),
/* organization */ (''),
/* preprocessor_version */ 'ST-DEVELOPER v20.1',
/* originating_system */ 'SIEMENS PLM Software NX2512.6002',
/* authorisation */ '');

FILE_SCHEMA (('AUTOMOTIVE_DESIGN { 1 0 10303 214 3 1 1 1 }'));
ENDSEC;

DATA;
#10=SHAPE_REPRESENTATION_RELATIONSHIP('None',
'relationship between featured_part_08095-None and featured_part_08095
-None',#22,#11);
#11=ADVANCED_BREP_SHAPE_REPRESENTATION('featured_part_08095-None',(#32),
#549);
#12=SHAPE_DEFINITION_REPRESENTATION(#13,#22);
#13=PRODUCT_DEFINITION_SHAPE('','',#14);
#14=PRODUCT_DEFINITION(' ','',#16,#15);
#15=PRODUCT_DEFINITION_CONTEXT('part definition',#21,'design');
#16=PRODUCT_DEFINITION_FORMATION_WITH_SPECIFIED_SOURCE(' ',' ',#18,
 .NOT_KNOWN.);
#17=PRODUCT_RELATED_PRODUCT_CATEGORY('part','',(#18));
#18=PRODUCT('featured_part_08095','featured_part_08095',' ',(#19));
#19=PRODUCT_CONTEXT(' ',#21,'mechanical');
#20=APPLICATION_PROTOCOL_DEFINITION('international standard',
'automotive_design',2010,#21);
#21=APPLICATION_CONTEXT(
'core data for automotive mechanical design processes');
#22=SHAPE_REPRESENTATION('featured_part_08095-None',(#343),#549);
#23=PRESENTATION_LAYER_ASSIGNMENT('1','Layer 1',(#32));
#24=STYLED_ITEM('',(#25),#32);
#25=PRESENTATION_STYLE_ASSIGNMENT((#26));
#26=SURFACE_STYLE_USAGE(.BOTH.,#27);
#27=SURFACE_SIDE_STYLE('',(#28));
#28=SURFACE_STYLE_FILL_AREA(#29);
#29=FILL_AREA_STYLE('',(#30));
#30=FILL_AREA_STYLE_COLOUR('',#31);
#31=COLOUR_RGB('medium steel',0.611764705882353,0.658823529411765,0.670588235294118);
#32=MANIFOLD_SOLID_BREP('',#33);
#33=CLOSED_SHELL('',(#70,#71,#72,#73,#74,#75,#76,#77,#78,#79,#80,#81,#82,
#83,#84,#85,#86,#87));
#34=CYLINDRICAL_SURFACE('',#364,7.35);
#35=CYLINDRICAL_SURFACE('',#367,9.6);
#36=CYLINDRICAL_SURFACE('',#370,6.35);
#37=CYLINDRICAL_SURFACE('',#371,6.35);
#38=CYLINDRICAL_SURFACE('',#372,5.6);
#39=FACE_BOUND('',#112,.T.);
#40=FACE_BOUND('',#113,.T.);
#41=FACE_BOUND('',#114,.T.);
#42=FACE_BOUND('',#115,.T.);
#43=FACE_BOUND('',#116,.T.);
#44=FACE_BOUND('',#117,.T.);
#45=FACE_BOUND('',#121,.T.);
#46=FACE_BOUND('',#122,.T.);
#47=FACE_BOUND('',#123,.T.);
#48=FACE_BOUND('',#124,.T.);
#49=FACE_BOUND('',#129,.T.);
#50=FACE_BOUND('',#130,.T.);
#51=FACE_BOUND('',#132,.T.);
#52=FACE_BOUND('',#133,.T.);
#53=FACE_BOUND('',#135,.T.);
#54=FACE_BOUND('',#136,.T.);
#55=FACE_BOUND('',#137,.T.);
#56=FACE_BOUND('',#138,.T.);
#57=FACE_BOUND('',#139,.T.);
#58=FACE_BOUND('',#140,.T.);
#59=CIRCLE('',#345,6.35);
#60=CIRCLE('',#346,6.35);
#61=CIRCLE('',#348,5.6);
#62=CIRCLE('',#349,9.6);
#63=CIRCLE('',#350,7.35);
#64=CIRCLE('',#355,5.6);
#65=CIRCLE('',#356,6.35);
#66=CIRCLE('',#357,7.35);
#67=CIRCLE('',#362,9.6);
#68=CIRCLE('',#365,9.6);
#69=CIRCLE('',#368,6.35);
#70=ADVANCED_FACE('',(#101),#88,.F.);
#71=ADVANCED_FACE('',(#39,#40,#41),#89,.T.);
#72=ADVANCED_FACE('',(#42,#43,#44),#90,.T.);
#73=ADVANCED_FACE('',(#102),#91,.T.);
#74=ADVANCED_FACE('',(#103),#92,.T.);
#75=ADVANCED_FACE('',(#104),#93,.T.);
#76=ADVANCED_FACE('',(#45,#46,#47,#48),#94,.T.);
#77=ADVANCED_FACE('',(#105),#95,.T.);
#78=ADVANCED_FACE('',(#106),#96,.F.);
#79=ADVANCED_FACE('',(#107),#97,.F.);
#80=ADVANCED_FACE('',(#108),#98,.F.);
#81=ADVANCED_FACE('',(#49,#50),#34,.F.);
#82=ADVANCED_FACE('',(#109),#99,.F.);
#83=ADVANCED_FACE('',(#51,#52),#35,.F.);
#84=ADVANCED_FACE('',(#110),#100,.F.);
#85=ADVANCED_FACE('',(#53,#54),#36,.F.);
#86=ADVANCED_FACE('',(#55,#56),#37,.F.);
#87=ADVANCED_FACE('',(#57,#58),#38,.F.);
#88=PLANE('',#344);
#89=PLANE('',#347);
#90=PLANE('',#351);
#91=PLANE('',#352);
#92=PLANE('',#353);
#93=PLANE('',#354);
#94=PLANE('',#358);
#95=PLANE('',#359);
#96=PLANE('',#360);
#97=PLANE('',#361);
#98=PLANE('',#363);
#99=PLANE('',#366);
#100=PLANE('',#369);
#101=FACE_OUTER_BOUND('',#111,.T.);
#102=FACE_OUTER_BOUND('',#118,.T.);
#103=FACE_OUTER_BOUND('',#119,.T.);
#104=FACE_OUTER_BOUND('',#120,.T.);
#105=FACE_OUTER_BOUND('',#125,.T.);
#106=FACE_OUTER_BOUND('',#126,.T.);
#107=FACE_OUTER_BOUND('',#127,.T.);
#108=FACE_OUTER_BOUND('',#128,.T.);
#109=FACE_OUTER_BOUND('',#131,.T.);
#110=FACE_OUTER_BOUND('',#134,.T.);
#111=EDGE_LOOP('',(#141,#142,#143,#144));
#112=EDGE_LOOP('',(#145));
#113=EDGE_LOOP('',(#146));
#114=EDGE_LOOP('',(#147,#148,#149,#150));
#115=EDGE_LOOP('',(#151));
#116=EDGE_LOOP('',(#152,#153,#154,#155,#156,#157));
#117=EDGE_LOOP('',(#158));
#118=EDGE_LOOP('',(#159,#160,#161,#162));
#119=EDGE_LOOP('',(#163,#164,#165,#166,#167,#168,#169,#170));
#120=EDGE_LOOP('',(#171,#172,#173,#174));
#121=EDGE_LOOP('',(#175));
#122=EDGE_LOOP('',(#176));
#123=EDGE_LOOP('',(#177));
#124=EDGE_LOOP('',(#178,#179,#180,#181));
#125=EDGE_LOOP('',(#182,#183,#184,#185,#186,#187,#188,#189));
#126=EDGE_LOOP('',(#190,#191,#192,#193));
#127=EDGE_LOOP('',(#194,#195,#196,#197));
#128=EDGE_LOOP('',(#198,#199,#200,#201,#202,#203));
#129=EDGE_LOOP('',(#204));
#130=EDGE_LOOP('',(#205));
#131=EDGE_LOOP('',(#206));
#132=EDGE_LOOP('',(#207,#208,#209,#210));
#133=EDGE_LOOP('',(#211));
#134=EDGE_LOOP('',(#212));
#135=EDGE_LOOP('',(#213));
#136=EDGE_LOOP('',(#214));
#137=EDGE_LOOP('',(#215));
#138=EDGE_LOOP('',(#216));
#139=EDGE_LOOP('',(#217));
#140=EDGE_LOOP('',(#218));
#141=ORIENTED_EDGE('',*,*,#248,.T.);
#142=ORIENTED_EDGE('',*,*,#249,.T.);
#143=ORIENTED_EDGE('',*,*,#250,.T.);
#144=ORIENTED_EDGE('',*,*,#251,.T.);
#145=ORIENTED_EDGE('',*,*,#252,.F.);
#146=ORIENTED_EDGE('',*,*,#253,.F.);
#147=ORIENTED_EDGE('',*,*,#254,.F.);
#148=ORIENTED_EDGE('',*,*,#255,.F.);
#149=ORIENTED_EDGE('',*,*,#256,.F.);
#150=ORIENTED_EDGE('',*,*,#257,.F.);
#151=ORIENTED_EDGE('',*,*,#258,.F.);
#152=ORIENTED_EDGE('',*,*,#259,.F.);
#153=ORIENTED_EDGE('',*,*,#248,.F.);
#154=ORIENTED_EDGE('',*,*,#260,.F.);
#155=ORIENTED_EDGE('',*,*,#261,.F.);
#156=ORIENTED_EDGE('',*,*,#262,.F.);
#157=ORIENTED_EDGE('',*,*,#263,.F.);
#158=ORIENTED_EDGE('',*,*,#264,.F.);
#159=ORIENTED_EDGE('',*,*,#265,.T.);
#160=ORIENTED_EDGE('',*,*,#256,.T.);
#161=ORIENTED_EDGE('',*,*,#266,.F.);
#162=ORIENTED_EDGE('',*,*,#267,.T.);
#163=ORIENTED_EDGE('',*,*,#268,.F.);
#164=ORIENTED_EDGE('',*,*,#269,.F.);
#165=ORIENTED_EDGE('',*,*,#270,.F.);
#166=ORIENTED_EDGE('',*,*,#262,.T.);
#167=ORIENTED_EDGE('',*,*,#271,.F.);
#168=ORIENTED_EDGE('',*,*,#272,.T.);
#169=ORIENTED_EDGE('',*,*,#266,.T.);
#170=ORIENTED_EDGE('',*,*,#255,.T.);
#171=ORIENTED_EDGE('',*,*,#271,.T.);
#172=ORIENTED_EDGE('',*,*,#261,.T.);
#173=ORIENTED_EDGE('',*,*,#273,.F.);
#174=ORIENTED_EDGE('',*,*,#274,.T.);
#175=ORIENTED_EDGE('',*,*,#275,.F.);
#176=ORIENTED_EDGE('',*,*,#276,.F.);
#177=ORIENTED_EDGE('',*,*,#277,.F.);
#178=ORIENTED_EDGE('',*,*,#278,.F.);
#179=ORIENTED_EDGE('',*,*,#267,.F.);
#180=ORIENTED_EDGE('',*,*,#272,.F.);
#181=ORIENTED_EDGE('',*,*,#274,.F.);
#182=ORIENTED_EDGE('',*,*,#279,.F.);
#183=ORIENTED_EDGE('',*,*,#257,.T.);
#184=ORIENTED_EDGE('',*,*,#265,.F.);
#185=ORIENTED_EDGE('',*,*,#278,.T.);
#186=ORIENTED_EDGE('',*,*,#273,.T.);
#187=ORIENTED_EDGE('',*,*,#260,.T.);
#188=ORIENTED_EDGE('',*,*,#251,.F.);
#189=ORIENTED_EDGE('',*,*,#280,.F.);
#190=ORIENTED_EDGE('',*,*,#268,.T.);
#191=ORIENTED_EDGE('',*,*,#254,.T.);
#192=ORIENTED_EDGE('',*,*,#279,.T.);
#193=ORIENTED_EDGE('',*,*,#281,.T.);
#194=ORIENTED_EDGE('',*,*,#282,.T.);
#195=ORIENTED_EDGE('',*,*,#283,.T.);
#196=ORIENTED_EDGE('',*,*,#263,.T.);
#197=ORIENTED_EDGE('',*,*,#270,.T.);
#198=ORIENTED_EDGE('',*,*,#250,.F.);
#199=ORIENTED_EDGE('',*,*,#284,.T.);
#200=ORIENTED_EDGE('',*,*,#282,.F.);
#201=ORIENTED_EDGE('',*,*,#269,.T.);
#202=ORIENTED_EDGE('',*,*,#281,.F.);
#203=ORIENTED_EDGE('',*,*,#280,.T.);
#204=ORIENTED_EDGE('',*,*,#264,.T.);
#205=ORIENTED_EDGE('',*,*,#277,.T.);
#206=ORIENTED_EDGE('',*,*,#285,.F.);
#207=ORIENTED_EDGE('',*,*,#259,.T.);
#208=ORIENTED_EDGE('',*,*,#283,.F.);
#209=ORIENTED_EDGE('',*,*,#284,.F.);
#210=ORIENTED_EDGE('',*,*,#249,.F.);
#211=ORIENTED_EDGE('',*,*,#285,.T.);
#212=ORIENTED_EDGE('',*,*,#286,.F.);
#213=ORIENTED_EDGE('',*,*,#253,.T.);
#214=ORIENTED_EDGE('',*,*,#286,.T.);
#215=ORIENTED_EDGE('',*,*,#252,.T.);
#216=ORIENTED_EDGE('',*,*,#276,.T.);
#217=ORIENTED_EDGE('',*,*,#258,.T.);
#218=ORIENTED_EDGE('',*,*,#275,.T.);
#219=VERTEX_POINT('',#463);
#220=VERTEX_POINT('',#464);
#221=VERTEX_POINT('',#466);
#222=VERTEX_POINT('',#468);
#223=VERTEX_POINT('',#472);
#224=VERTEX_POINT('',#474);
#225=VERTEX_POINT('',#476);
#226=VERTEX_POINT('',#477);
#227=VERTEX_POINT('',#479);
#228=VERTEX_POINT('',#481);
#229=VERTEX_POINT('',#485);
#230=VERTEX_POINT('',#487);
#231=VERTEX_POINT('',#489);
#232=VERTEX_POINT('',#491);
#233=VERTEX_POINT('',#493);
#234=VERTEX_POINT('',#496);
#235=VERTEX_POINT('',#499);
#236=VERTEX_POINT('',#501);
#237=VERTEX_POINT('',#505);
#238=VERTEX_POINT('',#507);
#239=VERTEX_POINT('',#510);
#240=VERTEX_POINT('',#514);
#241=VERTEX_POINT('',#518);
#242=VERTEX_POINT('',#520);
#243=VERTEX_POINT('',#522);
#244=VERTEX_POINT('',#526);
#245=VERTEX_POINT('',#532);
#246=VERTEX_POINT('',#539);
#247=VERTEX_POINT('',#543);
#248=EDGE_CURVE('',#219,#220,#287,.T.);
#249=EDGE_CURVE('',#220,#221,#288,.T.);
#250=EDGE_CURVE('',#221,#222,#289,.T.);
#251=EDGE_CURVE('',#222,#219,#290,.T.);
#252=EDGE_CURVE('',#223,#223,#59,.T.);
#253=EDGE_CURVE('',#224,#224,#60,.T.);
#254=EDGE_CURVE('',#225,#226,#291,.T.);
#255=EDGE_CURVE('',#227,#225,#292,.T.);
#256=EDGE_CURVE('',#228,#227,#293,.T.);
#257=EDGE_CURVE('',#226,#228,#294,.T.);
#258=EDGE_CURVE('',#229,#229,#61,.T.);
#259=EDGE_CURVE('',#220,#230,#62,.T.);
#260=EDGE_CURVE('',#231,#219,#295,.T.);
#261=EDGE_CURVE('',#232,#231,#296,.T.);
#262=EDGE_CURVE('',#233,#232,#297,.T.);
#263=EDGE_CURVE('',#230,#233,#298,.T.);
#264=EDGE_CURVE('',#234,#234,#63,.T.);
#265=EDGE_CURVE('',#235,#228,#299,.T.);
#266=EDGE_CURVE('',#236,#227,#300,.T.);
#267=EDGE_CURVE('',#236,#235,#301,.T.);
#268=EDGE_CURVE('',#237,#225,#302,.T.);
#269=EDGE_CURVE('',#238,#237,#303,.T.);
#270=EDGE_CURVE('',#233,#238,#304,.T.);
#271=EDGE_CURVE('',#239,#232,#305,.T.);
#272=EDGE_CURVE('',#239,#236,#306,.T.);
#273=EDGE_CURVE('',#240,#231,#307,.T.);
#274=EDGE_CURVE('',#240,#239,#308,.T.);
#275=EDGE_CURVE('',#241,#241,#64,.T.);
#276=EDGE_CURVE('',#242,#242,#65,.T.);
#277=EDGE_CURVE('',#243,#243,#66,.T.);
#278=EDGE_CURVE('',#235,#240,#309,.T.);
#279=EDGE_CURVE('',#226,#244,#310,.T.);
#280=EDGE_CURVE('',#244,#222,#311,.T.);
#281=EDGE_CURVE('',#244,#237,#312,.T.);
#282=EDGE_CURVE('',#238,#245,#313,.T.);
#283=EDGE_CURVE('',#245,#230,#314,.T.);
#284=EDGE_CURVE('',#221,#245,#67,.T.);
#285=EDGE_CURVE('',#246,#246,#68,.T.);
#286=EDGE_CURVE('',#247,#247,#69,.T.);
#287=LINE('',#462,#315);
#288=LINE('',#465,#316);
#289=LINE('',#467,#317);
#290=LINE('',#469,#318);
#291=LINE('',#475,#319);
#292=LINE('',#478,#320);
#293=LINE('',#480,#321);
#294=LINE('',#482,#322);
#295=LINE('',#488,#323);
#296=LINE('',#490,#324);
#297=LINE('',#492,#325);
#298=LINE('',#494,#326);
#299=LINE('',#498,#327);
#300=LINE('',#500,#328);
#301=LINE('',#502,#329);
#302=LINE('',#504,#330);
#303=LINE('',#506,#331);
#304=LINE('',#508,#332);
#305=LINE('',#509,#333);
#306=LINE('',#511,#334);
#307=LINE('',#513,#335);
#308=LINE('',#515,#336);
#309=LINE('',#523,#337);
#310=LINE('',#525,#338);
#311=LINE('',#527,#339);
#312=LINE('',#529,#340);
#313=LINE('',#531,#341);
#314=LINE('',#533,#342);
#315=VECTOR('',#375,1.);
#316=VECTOR('',#376,1.);
#317=VECTOR('',#377,1.);
#318=VECTOR('',#378,1.);
#319=VECTOR('',#385,1.);
#320=VECTOR('',#386,1.);
#321=VECTOR('',#387,1.);
#322=VECTOR('',#388,1.);
#323=VECTOR('',#395,1.);
#324=VECTOR('',#396,1.);
#325=VECTOR('',#397,1.);
#326=VECTOR('',#398,1.);
#327=VECTOR('',#403,1.);
#328=VECTOR('',#404,1.);
#329=VECTOR('',#405,1.);
#330=VECTOR('',#408,1.);
#331=VECTOR('',#409,1.);
#332=VECTOR('',#410,1.);
#333=VECTOR('',#411,1.);
#334=VECTOR('',#412,1.);
#335=VECTOR('',#415,1.);
#336=VECTOR('',#416,1.);
#337=VECTOR('',#425,1.);
#338=VECTOR('',#428,1.);
#339=VECTOR('',#429,1.);
#340=VECTOR('',#432,1.);
#341=VECTOR('',#435,1.);
#342=VECTOR('',#436,1.);
#343=AXIS2_PLACEMENT_3D('',#461,#373,#374);
#344=AXIS2_PLACEMENT_3D('',#470,#379,#380);
#345=AXIS2_PLACEMENT_3D('',#471,#381,#382);
#346=AXIS2_PLACEMENT_3D('',#473,#383,#384);
#347=AXIS2_PLACEMENT_3D('',#483,#389,#390);
#348=AXIS2_PLACEMENT_3D('',#484,#391,#392);
#349=AXIS2_PLACEMENT_3D('',#486,#393,#394);
#350=AXIS2_PLACEMENT_3D('',#495,#399,#400);
#351=AXIS2_PLACEMENT_3D('',#497,#401,#402);
#352=AXIS2_PLACEMENT_3D('',#503,#406,#407);
#353=AXIS2_PLACEMENT_3D('',#512,#413,#414);
#354=AXIS2_PLACEMENT_3D('',#516,#417,#418);
#355=AXIS2_PLACEMENT_3D('',#517,#419,#420);
#356=AXIS2_PLACEMENT_3D('',#519,#421,#422);
#357=AXIS2_PLACEMENT_3D('',#521,#423,#424);
#358=AXIS2_PLACEMENT_3D('',#524,#426,#427);
#359=AXIS2_PLACEMENT_3D('',#528,#430,#431);
#360=AXIS2_PLACEMENT_3D('',#530,#433,#434);
#361=AXIS2_PLACEMENT_3D('',#534,#437,#438);
#362=AXIS2_PLACEMENT_3D('',#535,#439,#440);
#363=AXIS2_PLACEMENT_3D('',#536,#441,#442);
#364=AXIS2_PLACEMENT_3D('',#537,#443,#444);
#365=AXIS2_PLACEMENT_3D('',#538,#445,#446);
#366=AXIS2_PLACEMENT_3D('',#540,#447,#448);
#367=AXIS2_PLACEMENT_3D('',#541,#449,#450);
#368=AXIS2_PLACEMENT_3D('',#542,#451,#452);
#369=AXIS2_PLACEMENT_3D('',#544,#453,#454);
#370=AXIS2_PLACEMENT_3D('',#545,#455,#456);
#371=AXIS2_PLACEMENT_3D('',#546,#457,#458);
#372=AXIS2_PLACEMENT_3D('',#547,#459,#460);
#373=DIRECTION('',(0.,0.,1.));
#374=DIRECTION('',(1.,0.,0.));
#375=DIRECTION('',(-1.,0.,0.));
#376=DIRECTION('',(0.,0.,-1.));
#377=DIRECTION('',(1.,0.,0.));
#378=DIRECTION('',(0.,0.,1.));
#379=DIRECTION('',(0.,1.,0.));
#380=DIRECTION('',(0.,0.,1.));
#381=DIRECTION('',(0.,0.,1.));
#382=DIRECTION('',(0.999999999999999,0.,0.));
#383=DIRECTION('',(0.,0.,1.));
#384=DIRECTION('',(0.999999999999999,0.,0.));
#385=DIRECTION('',(1.,0.,0.));
#386=DIRECTION('',(0.,1.,0.));
#387=DIRECTION('',(-1.,0.,0.));
#388=DIRECTION('',(0.,-1.,0.));
#389=DIRECTION('',(0.,0.,1.));
#390=DIRECTION('',(1.,0.,0.));
#391=DIRECTION('',(0.,0.,1.));
#392=DIRECTION('',(1.,0.,0.));
#393=DIRECTION('',(0.,0.,1.));
#394=DIRECTION('',(1.,0.,0.));
#395=DIRECTION('',(0.,-1.,0.));
#396=DIRECTION('',(1.,0.,0.));
#397=DIRECTION('',(0.,1.,0.));
#398=DIRECTION('',(-1.,0.,0.));
#399=DIRECTION('',(0.,0.,1.));
#400=DIRECTION('',(0.999999999999999,0.,0.));
#401=DIRECTION('',(0.,0.,1.));
#402=DIRECTION('',(1.,0.,0.));
#403=DIRECTION('',(0.,0.,1.));
#404=DIRECTION('',(0.,0.,1.));
#405=DIRECTION('',(1.,0.,0.));
#406=DIRECTION('',(0.,-1.,0.));
#407=DIRECTION('',(0.,0.,-1.));
#408=DIRECTION('',(0.,0.,1.));
#409=DIRECTION('',(0.,-1.,0.));
#410=DIRECTION('',(0.,0.,-1.));
#411=DIRECTION('',(0.,0.,1.));
#412=DIRECTION('',(0.,-1.,0.));
#413=DIRECTION('',(-1.,0.,0.));
#414=DIRECTION('',(0.,0.,1.));
#415=DIRECTION('',(0.,0.,1.));
#416=DIRECTION('',(-1.,0.,0.));
#417=DIRECTION('',(0.,1.,0.));
#418=DIRECTION('',(0.,0.,1.));
#419=DIRECTION('',(0.,0.,-1.));
#420=DIRECTION('',(-1.,0.,0.));
#421=DIRECTION('',(0.,0.,-1.));
#422=DIRECTION('',(-0.999999999999999,0.,0.));
#423=DIRECTION('',(0.,0.,-1.));
#424=DIRECTION('',(-0.999999999999999,0.,0.));
#425=DIRECTION('',(0.,1.,0.));
#426=DIRECTION('',(0.,0.,-1.));
#427=DIRECTION('',(-1.,0.,0.));
#428=DIRECTION('',(0.,0.,-1.));
#429=DIRECTION('',(0.,1.,0.));
#430=DIRECTION('',(1.,0.,0.));
#431=DIRECTION('',(0.,0.,-1.));
#432=DIRECTION('',(-1.,0.,0.));
#433=DIRECTION('',(0.,-1.,0.));
#434=DIRECTION('',(0.,0.,-1.));
#435=DIRECTION('',(1.,0.,0.));
#436=DIRECTION('',(0.,0.,1.));
#437=DIRECTION('',(0.,1.,0.));
#438=DIRECTION('',(0.,0.,1.));
#439=DIRECTION('',(0.,0.,-1.));
#440=DIRECTION('',(-1.,0.,0.));
#441=DIRECTION('',(0.,0.,-1.));
#442=DIRECTION('',(-1.,0.,0.));
#443=DIRECTION('',(0.,0.,-1.));
#444=DIRECTION('',(0.999999999999999,0.,0.));
#445=DIRECTION('',(0.,0.,-1.));
#446=DIRECTION('',(1.,0.,0.));
#447=DIRECTION('',(0.,0.,-1.));
#448=DIRECTION('',(-1.,0.,0.));
#449=DIRECTION('',(0.,0.,-1.));
#450=DIRECTION('',(1.,0.,0.));
#451=DIRECTION('',(0.,0.,-1.));
#452=DIRECTION('',(0.999999999999999,0.,0.));
#453=DIRECTION('',(0.,0.,-1.));
#454=DIRECTION('',(-1.,0.,0.));
#455=DIRECTION('',(0.,0.,-1.));
#456=DIRECTION('',(0.999999999999999,0.,0.));
#457=DIRECTION('',(0.,0.,-1.));
#458=DIRECTION('',(0.999999999999999,0.,0.));
#459=DIRECTION('',(0.,0.,-1.));
#460=DIRECTION('',(1.,0.,0.));
#461=CARTESIAN_POINT('',(0.,0.,0.));
#462=CARTESIAN_POINT('',(108.1,168.6,89.));
#463=CARTESIAN_POINT('',(216.2,168.6,89.));
#464=CARTESIAN_POINT('',(22.4158947362137,168.6,89.));
#465=CARTESIAN_POINT('',(22.4158947362137,168.6,89.05));
#466=CARTESIAN_POINT('',(22.4158947362137,168.6,53.1));
#467=CARTESIAN_POINT('',(108.1,168.6,53.1));
#468=CARTESIAN_POINT('',(216.2,168.6,53.1));
#469=CARTESIAN_POINT('',(216.2,168.6,0.));
#470=CARTESIAN_POINT('',(108.1,168.6,53.1));
#471=CARTESIAN_POINT('',(202.8,63.4,89.));
#472=CARTESIAN_POINT('',(209.15,63.4,89.));
#473=CARTESIAN_POINT('',(147.3,73.2,89.));
#474=CARTESIAN_POINT('',(153.65,73.2,89.));
#475=CARTESIAN_POINT('',(108.1,149.6,89.));
#476=CARTESIAN_POINT('',(0.,149.6,89.));
#477=CARTESIAN_POINT('',(216.2,149.6,89.));
#478=CARTESIAN_POINT('',(0.,153.8,89.));
#479=CARTESIAN_POINT('',(0.,0.,89.));
#480=CARTESIAN_POINT('',(108.1,0.,89.));
#481=CARTESIAN_POINT('',(216.2,0.,89.));
#482=CARTESIAN_POINT('',(216.2,153.8,89.));
#483=CARTESIAN_POINT('',(108.1,153.8,89.));
#484=CARTESIAN_POINT('',(46.2,289.7,89.));
#485=CARTESIAN_POINT('',(51.8,289.7,89.));
#486=CARTESIAN_POINT('',(13.6,164.8,89.));
#487=CARTESIAN_POINT('',(4.78410526378634,168.6,89.));
#488=CARTESIAN_POINT('',(216.2,153.8,89.));
#489=CARTESIAN_POINT('',(216.2,307.6,89.));
#490=CARTESIAN_POINT('',(108.1,307.6,89.));
#491=CARTESIAN_POINT('',(0.,307.6,89.));
#492=CARTESIAN_POINT('',(0.,153.8,89.));
#493=CARTESIAN_POINT('',(0.,168.6,89.));
#494=CARTESIAN_POINT('',(108.1,168.6,89.));
#495=CARTESIAN_POINT('',(182.1,176.3,89.));
#496=CARTESIAN_POINT('',(189.45,176.3,89.));
#497=CARTESIAN_POINT('',(108.1,153.8,89.));
#498=CARTESIAN_POINT('',(216.2,0.,0.));
#499=CARTESIAN_POINT('',(216.2,0.,0.));
#500=CARTESIAN_POINT('',(0.,0.,0.));
#501=CARTESIAN_POINT('',(0.,0.,0.));
#502=CARTESIAN_POINT('',(108.1,0.,0.));
#503=CARTESIAN_POINT('',(108.1,0.,0.));
#504=CARTESIAN_POINT('',(0.,149.6,0.));
#505=CARTESIAN_POINT('',(0.,149.6,53.1));
#506=CARTESIAN_POINT('',(0.,153.8,53.1));
#507=CARTESIAN_POINT('',(0.,168.6,53.1));
#508=CARTESIAN_POINT('',(0.,168.6,0.));
#509=CARTESIAN_POINT('',(0.,307.6,0.));
#510=CARTESIAN_POINT('',(0.,307.6,0.));
#511=CARTESIAN_POINT('',(0.,153.8,0.));
#512=CARTESIAN_POINT('',(0.,153.8,0.));
#513=CARTESIAN_POINT('',(216.2,307.6,0.));
#514=CARTESIAN_POINT('',(216.2,307.6,0.));
#515=CARTESIAN_POINT('',(108.1,307.6,0.));
#516=CARTESIAN_POINT('',(108.1,307.6,0.));
#517=CARTESIAN_POINT('',(46.2,289.7,0.));
#518=CARTESIAN_POINT('',(40.6,289.7,0.));
#519=CARTESIAN_POINT('',(202.8,63.4,0.));
#520=CARTESIAN_POINT('',(196.45,63.4,0.));
#521=CARTESIAN_POINT('',(182.1,176.3,0.));
#522=CARTESIAN_POINT('',(174.75,176.3,0.));
#523=CARTESIAN_POINT('',(216.2,153.8,0.));
#524=CARTESIAN_POINT('',(108.1,153.8,0.));
#525=CARTESIAN_POINT('',(216.2,149.6,0.));
#526=CARTESIAN_POINT('',(216.2,149.6,53.1));
#527=CARTESIAN_POINT('',(216.2,153.8,53.1));
#528=CARTESIAN_POINT('',(216.2,153.8,0.));
#529=CARTESIAN_POINT('',(108.1,149.6,53.1));
#530=CARTESIAN_POINT('',(108.1,149.6,53.1));
#531=CARTESIAN_POINT('',(108.1,168.6,53.1));
#532=CARTESIAN_POINT('',(4.78410526378634,168.6,53.1));
#533=CARTESIAN_POINT('',(4.78410526378634,168.6,89.05));
#534=CARTESIAN_POINT('',(108.1,168.6,53.1));
#535=CARTESIAN_POINT('',(13.6,164.8,53.1));
#536=CARTESIAN_POINT('',(108.1,159.1,53.1));
#537=CARTESIAN_POINT('',(182.1,176.3,89.05));
#538=CARTESIAN_POINT('',(13.6,164.8,28.));
#539=CARTESIAN_POINT('',(23.2,164.8,28.));
#540=CARTESIAN_POINT('',(13.6,164.8,28.));
#541=CARTESIAN_POINT('',(13.6,164.8,89.05));
#542=CARTESIAN_POINT('',(147.3,73.2,39.3));
#543=CARTESIAN_POINT('',(153.65,73.2,39.3));
#544=CARTESIAN_POINT('',(147.3,73.2,39.3));
#545=CARTESIAN_POINT('',(147.3,73.2,89.05));
#546=CARTESIAN_POINT('',(202.8,63.4,89.05));
#547=CARTESIAN_POINT('',(46.2,289.7,89.05));
#548=MECHANICAL_DESIGN_GEOMETRIC_PRESENTATION_REPRESENTATION('',(#24),#549);
#549=(
GEOMETRIC_REPRESENTATION_CONTEXT(3)
GLOBAL_UNCERTAINTY_ASSIGNED_CONTEXT((#550))
GLOBAL_UNIT_ASSIGNED_CONTEXT((#556,#552,#551))
REPRESENTATION_CONTEXT('featured_part_08095','TOP_LEVEL_ASSEMBLY_PART')
);
#550=UNCERTAINTY_MEASURE_WITH_UNIT(LENGTH_MEASURE(2.E-5),#556,
'DISTANCE_ACCURACY_VALUE','Maximum Tolerance applied to model');
#551=(
NAMED_UNIT(*)
SI_UNIT($,.STERADIAN.)
SOLID_ANGLE_UNIT()
);
#552=(
CONVERSION_BASED_UNIT('DEGREE',#554)
NAMED_UNIT(#553)
PLANE_ANGLE_UNIT()
);
#553=DIMENSIONAL_EXPONENTS(0.,0.,0.,0.,0.,0.,0.);
#554=PLANE_ANGLE_MEASURE_WITH_UNIT(PLANE_ANGLE_MEASURE(0.0174532925),#555);
#555=(
NAMED_UNIT(*)
PLANE_ANGLE_UNIT()
SI_UNIT($,.RADIAN.)
);
#556=(
LENGTH_UNIT()
NAMED_UNIT(*)
SI_UNIT(.MILLI.,.METRE.)
);
ENDSEC;
END-ISO-10303-21;
