ISO-10303-21;
HEADER;
/* Generated by software containing ST-Developer
 * from STEP Tools, Inc. (www.steptools.com) 
 */
/* OPTION: using custom schema-name function */

FILE_DESCRIPTION(
/* description */ (''),
/* implementation_level */ '2;1');

FILE_NAME(
/* name */ 'featured_part_03395.stp',
/* time_stamp */ '2026-07-13T19:03:55-04:00',
/* author */ (''),
/* organization */ (''),
/* preprocessor_version */ 'ST-DEVELOPER v20.1',
/* originating_system */ 'SIEMENS PLM Software NX2512.6002',
/* authorisation */ '');

FILE_SCHEMA (('AUTOMOTIVE_DESIGN { 1 0 10303 214 3 1 1 1 }'));
ENDSEC;

DATA;
#10=SHAPE_REPRESENTATION_RELATIONSHIP('None',
'relationship between featured_part_03395-None and featured_part_03395
-None',#22,#11);
#11=ADVANCED_BREP_SHAPE_REPRESENTATION('featured_part_03395-None',(#32),
#507);
#12=SHAPE_DEFINITION_REPRESENTATION(#13,#22);
#13=PRODUCT_DEFINITION_SHAPE('','',#14);
#14=PRODUCT_DEFINITION(' ','',#16,#15);
#15=PRODUCT_DEFINITION_CONTEXT('part definition',#21,'design');
#16=PRODUCT_DEFINITION_FORMATION_WITH_SPECIFIED_SOURCE(' ',' ',#18,
 .NOT_KNOWN.);
#17=PRODUCT_RELATED_PRODUCT_CATEGORY('part','',(#18));
#18=PRODUCT('featured_part_03395','featured_part_03395',' ',(#19));
#19=PRODUCT_CONTEXT(' ',#21,'mechanical');
#20=APPLICATION_PROTOCOL_DEFINITION('international standard',
'automotive_design',2010,#21);
#21=APPLICATION_CONTEXT(
'core data for automotive mechanical design processes');
#22=SHAPE_REPRESENTATION('featured_part_03395-None',(#323),#507);
#23=PRESENTATION_LAYER_ASSIGNMENT('1','Layer 1',(#32));
#24=STYLED_ITEM('',(#25),#32);
#25=PRESENTATION_STYLE_ASSIGNMENT((#26));
#26=SURFACE_STYLE_USAGE(.BOTH.,#27);
#27=SURFACE_SIDE_STYLE('',(#28));
#28=SURFACE_STYLE_FILL_AREA(#29);
#29=FILL_AREA_STYLE('',(#30));
#30=FILL_AREA_STYLE_COLOUR('',#31);
#31=COLOUR_RGB('medium steel',0.611764705882353,0.658823529411765,0.670588235294118);
#32=MANIFOLD_SOLID_BREP('',#33);
#33=CLOSED_SHELL('',(#49,#50,#51,#52,#53,#54,#55,#56,#57,#58,#59,#60,#61,
#62,#63,#64));
#34=CYLINDRICAL_SURFACE('',#341,9.35);
#35=CYLINDRICAL_SURFACE('',#344,9.);
#36=FACE_BOUND('',#94,.T.);
#37=FACE_BOUND('',#95,.T.);
#38=FACE_BOUND('',#99,.T.);
#39=FACE_BOUND('',#100,.T.);
#40=FACE_BOUND('',#106,.T.);
#41=FACE_BOUND('',#107,.T.);
#42=FACE_BOUND('',#109,.T.);
#43=FACE_BOUND('',#110,.T.);
#44=CIRCLE('',#327,9.);
#45=CIRCLE('',#328,9.35);
#46=CIRCLE('',#333,9.35);
#47=CIRCLE('',#338,9.35);
#48=CIRCLE('',#342,9.);
#49=ADVANCED_FACE('',(#79),#65,.F.);
#50=ADVANCED_FACE('',(#80),#66,.T.);
#51=ADVANCED_FACE('',(#81),#67,.F.);
#52=ADVANCED_FACE('',(#36,#37),#68,.T.);
#53=ADVANCED_FACE('',(#82),#69,.T.);
#54=ADVANCED_FACE('',(#83),#70,.T.);
#55=ADVANCED_FACE('',(#84),#71,.T.);
#56=ADVANCED_FACE('',(#38,#39),#72,.T.);
#57=ADVANCED_FACE('',(#85),#73,.T.);
#58=ADVANCED_FACE('',(#86),#74,.F.);
#59=ADVANCED_FACE('',(#87),#75,.F.);
#60=ADVANCED_FACE('',(#88),#76,.F.);
#61=ADVANCED_FACE('',(#89),#77,.F.);
#62=ADVANCED_FACE('',(#40,#41),#34,.F.);
#63=ADVANCED_FACE('',(#90),#78,.F.);
#64=ADVANCED_FACE('',(#42,#43),#35,.F.);
#65=PLANE('',#324);
#66=PLANE('',#325);
#67=PLANE('',#326);
#68=PLANE('',#329);
#69=PLANE('',#330);
#70=PLANE('',#331);
#71=PLANE('',#332);
#72=PLANE('',#334);
#73=PLANE('',#335);
#74=PLANE('',#336);
#75=PLANE('',#337);
#76=PLANE('',#339);
#77=PLANE('',#340);
#78=PLANE('',#343);
#79=FACE_OUTER_BOUND('',#91,.T.);
#80=FACE_OUTER_BOUND('',#92,.T.);
#81=FACE_OUTER_BOUND('',#93,.T.);
#82=FACE_OUTER_BOUND('',#96,.T.);
#83=FACE_OUTER_BOUND('',#97,.T.);
#84=FACE_OUTER_BOUND('',#98,.T.);
#85=FACE_OUTER_BOUND('',#101,.T.);
#86=FACE_OUTER_BOUND('',#102,.T.);
#87=FACE_OUTER_BOUND('',#103,.T.);
#88=FACE_OUTER_BOUND('',#104,.T.);
#89=FACE_OUTER_BOUND('',#105,.T.);
#90=FACE_OUTER_BOUND('',#108,.T.);
#91=EDGE_LOOP('',(#111,#112,#113,#114));
#92=EDGE_LOOP('',(#115,#116,#117,#118));
#93=EDGE_LOOP('',(#119,#120,#121,#122));
#94=EDGE_LOOP('',(#123));
#95=EDGE_LOOP('',(#124,#125,#126,#127,#128,#129));
#96=EDGE_LOOP('',(#130,#131,#132,#133,#134,#135,#136,#137));
#97=EDGE_LOOP('',(#138,#139,#140,#141,#142));
#98=EDGE_LOOP('',(#143,#144,#145,#146,#147,#148,#149,#150));
#99=EDGE_LOOP('',(#151));
#100=EDGE_LOOP('',(#152,#153,#154,#155));
#101=EDGE_LOOP('',(#156,#157,#158,#159,#160));
#102=EDGE_LOOP('',(#161,#162,#163,#164));
#103=EDGE_LOOP('',(#165,#166,#167,#168,#169));
#104=EDGE_LOOP('',(#170,#171,#172,#173,#174,#175));
#105=EDGE_LOOP('',(#176,#177,#178,#179,#180));
#106=EDGE_LOOP('',(#181));
#107=EDGE_LOOP('',(#182,#183,#184,#185));
#108=EDGE_LOOP('',(#186));
#109=EDGE_LOOP('',(#187));
#110=EDGE_LOOP('',(#188));
#111=ORIENTED_EDGE('',*,*,#216,.T.);
#112=ORIENTED_EDGE('',*,*,#217,.T.);
#113=ORIENTED_EDGE('',*,*,#218,.T.);
#114=ORIENTED_EDGE('',*,*,#219,.T.);
#115=ORIENTED_EDGE('',*,*,#220,.F.);
#116=ORIENTED_EDGE('',*,*,#221,.T.);
#117=ORIENTED_EDGE('',*,*,#222,.F.);
#118=ORIENTED_EDGE('',*,*,#223,.F.);
#119=ORIENTED_EDGE('',*,*,#224,.F.);
#120=ORIENTED_EDGE('',*,*,#225,.F.);
#121=ORIENTED_EDGE('',*,*,#226,.F.);
#122=ORIENTED_EDGE('',*,*,#221,.F.);
#123=ORIENTED_EDGE('',*,*,#227,.F.);
#124=ORIENTED_EDGE('',*,*,#228,.F.);
#125=ORIENTED_EDGE('',*,*,#216,.F.);
#126=ORIENTED_EDGE('',*,*,#229,.F.);
#127=ORIENTED_EDGE('',*,*,#230,.F.);
#128=ORIENTED_EDGE('',*,*,#231,.T.);
#129=ORIENTED_EDGE('',*,*,#232,.F.);
#130=ORIENTED_EDGE('',*,*,#233,.F.);
#131=ORIENTED_EDGE('',*,*,#223,.T.);
#132=ORIENTED_EDGE('',*,*,#234,.F.);
#133=ORIENTED_EDGE('',*,*,#235,.T.);
#134=ORIENTED_EDGE('',*,*,#236,.T.);
#135=ORIENTED_EDGE('',*,*,#229,.T.);
#136=ORIENTED_EDGE('',*,*,#219,.F.);
#137=ORIENTED_EDGE('',*,*,#237,.F.);
#138=ORIENTED_EDGE('',*,*,#222,.T.);
#139=ORIENTED_EDGE('',*,*,#226,.T.);
#140=ORIENTED_EDGE('',*,*,#238,.F.);
#141=ORIENTED_EDGE('',*,*,#239,.T.);
#142=ORIENTED_EDGE('',*,*,#234,.T.);
#143=ORIENTED_EDGE('',*,*,#240,.F.);
#144=ORIENTED_EDGE('',*,*,#241,.F.);
#145=ORIENTED_EDGE('',*,*,#242,.F.);
#146=ORIENTED_EDGE('',*,*,#243,.T.);
#147=ORIENTED_EDGE('',*,*,#244,.F.);
#148=ORIENTED_EDGE('',*,*,#245,.T.);
#149=ORIENTED_EDGE('',*,*,#238,.T.);
#150=ORIENTED_EDGE('',*,*,#225,.T.);
#151=ORIENTED_EDGE('',*,*,#246,.F.);
#152=ORIENTED_EDGE('',*,*,#247,.F.);
#153=ORIENTED_EDGE('',*,*,#235,.F.);
#154=ORIENTED_EDGE('',*,*,#239,.F.);
#155=ORIENTED_EDGE('',*,*,#245,.F.);
#156=ORIENTED_EDGE('',*,*,#244,.T.);
#157=ORIENTED_EDGE('',*,*,#248,.T.);
#158=ORIENTED_EDGE('',*,*,#230,.T.);
#159=ORIENTED_EDGE('',*,*,#236,.F.);
#160=ORIENTED_EDGE('',*,*,#247,.T.);
#161=ORIENTED_EDGE('',*,*,#249,.F.);
#162=ORIENTED_EDGE('',*,*,#231,.F.);
#163=ORIENTED_EDGE('',*,*,#248,.F.);
#164=ORIENTED_EDGE('',*,*,#243,.F.);
#165=ORIENTED_EDGE('',*,*,#233,.T.);
#166=ORIENTED_EDGE('',*,*,#250,.T.);
#167=ORIENTED_EDGE('',*,*,#240,.T.);
#168=ORIENTED_EDGE('',*,*,#224,.T.);
#169=ORIENTED_EDGE('',*,*,#220,.T.);
#170=ORIENTED_EDGE('',*,*,#218,.F.);
#171=ORIENTED_EDGE('',*,*,#251,.T.);
#172=ORIENTED_EDGE('',*,*,#252,.F.);
#173=ORIENTED_EDGE('',*,*,#241,.T.);
#174=ORIENTED_EDGE('',*,*,#250,.F.);
#175=ORIENTED_EDGE('',*,*,#237,.T.);
#176=ORIENTED_EDGE('',*,*,#252,.T.);
#177=ORIENTED_EDGE('',*,*,#253,.T.);
#178=ORIENTED_EDGE('',*,*,#232,.T.);
#179=ORIENTED_EDGE('',*,*,#249,.T.);
#180=ORIENTED_EDGE('',*,*,#242,.T.);
#181=ORIENTED_EDGE('',*,*,#246,.T.);
#182=ORIENTED_EDGE('',*,*,#228,.T.);
#183=ORIENTED_EDGE('',*,*,#253,.F.);
#184=ORIENTED_EDGE('',*,*,#251,.F.);
#185=ORIENTED_EDGE('',*,*,#217,.F.);
#186=ORIENTED_EDGE('',*,*,#254,.F.);
#187=ORIENTED_EDGE('',*,*,#227,.T.);
#188=ORIENTED_EDGE('',*,*,#254,.T.);
#189=VERTEX_POINT('',#425);
#190=VERTEX_POINT('',#426);
#191=VERTEX_POINT('',#428);
#192=VERTEX_POINT('',#430);
#193=VERTEX_POINT('',#434);
#194=VERTEX_POINT('',#435);
#195=VERTEX_POINT('',#437);
#196=VERTEX_POINT('',#439);
#197=VERTEX_POINT('',#443);
#198=VERTEX_POINT('',#445);
#199=VERTEX_POINT('',#449);
#200=VERTEX_POINT('',#451);
#201=VERTEX_POINT('',#453);
#202=VERTEX_POINT('',#455);
#203=VERTEX_POINT('',#457);
#204=VERTEX_POINT('',#461);
#205=VERTEX_POINT('',#463);
#206=VERTEX_POINT('',#465);
#207=VERTEX_POINT('',#470);
#208=VERTEX_POINT('',#474);
#209=VERTEX_POINT('',#476);
#210=VERTEX_POINT('',#478);
#211=VERTEX_POINT('',#480);
#212=VERTEX_POINT('',#482);
#213=VERTEX_POINT('',#486);
#214=VERTEX_POINT('',#496);
#215=VERTEX_POINT('',#503);
#216=EDGE_CURVE('',#189,#190,#255,.T.);
#217=EDGE_CURVE('',#190,#191,#256,.T.);
#218=EDGE_CURVE('',#191,#192,#257,.T.);
#219=EDGE_CURVE('',#192,#189,#258,.T.);
#220=EDGE_CURVE('',#193,#194,#259,.T.);
#221=EDGE_CURVE('',#193,#195,#260,.T.);
#222=EDGE_CURVE('',#196,#195,#261,.T.);
#223=EDGE_CURVE('',#194,#196,#262,.T.);
#224=EDGE_CURVE('',#197,#193,#263,.T.);
#225=EDGE_CURVE('',#198,#197,#264,.T.);
#226=EDGE_CURVE('',#195,#198,#265,.T.);
#227=EDGE_CURVE('',#199,#199,#44,.T.);
#228=EDGE_CURVE('',#190,#200,#45,.T.);
#229=EDGE_CURVE('',#201,#189,#266,.T.);
#230=EDGE_CURVE('',#202,#201,#267,.T.);
#231=EDGE_CURVE('',#202,#203,#268,.T.);
#232=EDGE_CURVE('',#200,#203,#269,.T.);
#233=EDGE_CURVE('',#194,#204,#270,.T.);
#234=EDGE_CURVE('',#205,#196,#271,.T.);
#235=EDGE_CURVE('',#205,#206,#272,.T.);
#236=EDGE_CURVE('',#206,#201,#273,.T.);
#237=EDGE_CURVE('',#204,#192,#274,.T.);
#238=EDGE_CURVE('',#207,#198,#275,.T.);
#239=EDGE_CURVE('',#207,#205,#276,.T.);
#240=EDGE_CURVE('',#208,#197,#277,.T.);
#241=EDGE_CURVE('',#209,#208,#278,.T.);
#242=EDGE_CURVE('',#210,#209,#279,.T.);
#243=EDGE_CURVE('',#210,#211,#280,.T.);
#244=EDGE_CURVE('',#212,#211,#281,.T.);
#245=EDGE_CURVE('',#212,#207,#282,.T.);
#246=EDGE_CURVE('',#213,#213,#46,.T.);
#247=EDGE_CURVE('',#206,#212,#283,.T.);
#248=EDGE_CURVE('',#211,#202,#284,.T.);
#249=EDGE_CURVE('',#203,#210,#285,.T.);
#250=EDGE_CURVE('',#204,#208,#286,.T.);
#251=EDGE_CURVE('',#191,#214,#47,.T.);
#252=EDGE_CURVE('',#209,#214,#287,.T.);
#253=EDGE_CURVE('',#214,#200,#288,.T.);
#254=EDGE_CURVE('',#215,#215,#48,.T.);
#255=LINE('',#424,#289);
#256=LINE('',#427,#290);
#257=LINE('',#429,#291);
#258=LINE('',#431,#292);
#259=LINE('',#433,#293);
#260=LINE('',#436,#294);
#261=LINE('',#438,#295);
#262=LINE('',#440,#296);
#263=LINE('',#442,#297);
#264=LINE('',#444,#298);
#265=LINE('',#446,#299);
#266=LINE('',#452,#300);
#267=LINE('',#454,#301);
#268=LINE('',#456,#302);
#269=LINE('',#458,#303);
#270=LINE('',#460,#304);
#271=LINE('',#462,#305);
#272=LINE('',#464,#306);
#273=LINE('',#466,#307);
#274=LINE('',#467,#308);
#275=LINE('',#469,#309);
#276=LINE('',#471,#310);
#277=LINE('',#473,#311);
#278=LINE('',#475,#312);
#279=LINE('',#477,#313);
#280=LINE('',#479,#314);
#281=LINE('',#481,#315);
#282=LINE('',#483,#316);
#283=LINE('',#487,#317);
#284=LINE('',#489,#318);
#285=LINE('',#491,#319);
#286=LINE('',#493,#320);
#287=LINE('',#497,#321);
#288=LINE('',#499,#322);
#289=VECTOR('',#347,1.);
#290=VECTOR('',#348,1.);
#291=VECTOR('',#349,1.);
#292=VECTOR('',#350,1.);
#293=VECTOR('',#353,1.);
#294=VECTOR('',#354,1.);
#295=VECTOR('',#355,1.);
#296=VECTOR('',#356,1.);
#297=VECTOR('',#359,1.);
#298=VECTOR('',#360,1.);
#299=VECTOR('',#361,1.);
#300=VECTOR('',#368,1.);
#301=VECTOR('',#369,1.);
#302=VECTOR('',#370,1.);
#303=VECTOR('',#371,1.);
#304=VECTOR('',#374,1.);
#305=VECTOR('',#375,1.);
#306=VECTOR('',#376,1.);
#307=VECTOR('',#377,1.);
#308=VECTOR('',#378,1.);
#309=VECTOR('',#381,1.);
#310=VECTOR('',#382,1.);
#311=VECTOR('',#385,1.);
#312=VECTOR('',#386,1.);
#313=VECTOR('',#387,1.);
#314=VECTOR('',#388,1.);
#315=VECTOR('',#389,1.);
#316=VECTOR('',#390,1.);
#317=VECTOR('',#395,1.);
#318=VECTOR('',#398,1.);
#319=VECTOR('',#401,1.);
#320=VECTOR('',#404,1.);
#321=VECTOR('',#409,1.);
#322=VECTOR('',#412,1.);
#323=AXIS2_PLACEMENT_3D('',#423,#345,#346);
#324=AXIS2_PLACEMENT_3D('',#432,#351,#352);
#325=AXIS2_PLACEMENT_3D('',#441,#357,#358);
#326=AXIS2_PLACEMENT_3D('',#447,#362,#363);
#327=AXIS2_PLACEMENT_3D('',#448,#364,#365);
#328=AXIS2_PLACEMENT_3D('',#450,#366,#367);
#329=AXIS2_PLACEMENT_3D('',#459,#372,#373);
#330=AXIS2_PLACEMENT_3D('',#468,#379,#380);
#331=AXIS2_PLACEMENT_3D('',#472,#383,#384);
#332=AXIS2_PLACEMENT_3D('',#484,#391,#392);
#333=AXIS2_PLACEMENT_3D('',#485,#393,#394);
#334=AXIS2_PLACEMENT_3D('',#488,#396,#397);
#335=AXIS2_PLACEMENT_3D('',#490,#399,#400);
#336=AXIS2_PLACEMENT_3D('',#492,#402,#403);
#337=AXIS2_PLACEMENT_3D('',#494,#405,#406);
#338=AXIS2_PLACEMENT_3D('',#495,#407,#408);
#339=AXIS2_PLACEMENT_3D('',#498,#410,#411);
#340=AXIS2_PLACEMENT_3D('',#500,#413,#414);
#341=AXIS2_PLACEMENT_3D('',#501,#415,#416);
#342=AXIS2_PLACEMENT_3D('',#502,#417,#418);
#343=AXIS2_PLACEMENT_3D('',#504,#419,#420);
#344=AXIS2_PLACEMENT_3D('',#505,#421,#422);
#345=DIRECTION('',(0.,0.,1.));
#346=DIRECTION('',(1.,0.,0.));
#347=DIRECTION('',(0.,1.,0.));
#348=DIRECTION('',(0.,0.,-1.));
#349=DIRECTION('',(0.,-1.,0.));
#350=DIRECTION('',(0.,0.,1.));
#351=DIRECTION('',(1.,0.,0.));
#352=DIRECTION('',(0.,0.,-1.));
#353=DIRECTION('',(0.,-1.,0.));
#354=DIRECTION('',(-1.,0.,0.));
#355=DIRECTION('',(0.,1.,0.));
#356=DIRECTION('',(-1.,0.,0.));
#357=DIRECTION('',(0.,0.,1.));
#358=DIRECTION('',(1.,0.,0.));
#359=DIRECTION('',(0.,-0.707106781186552,0.707106781186543));
#360=DIRECTION('',(1.,0.,0.));
#361=DIRECTION('',(0.,0.707106781186552,-0.707106781186543));
#362=DIRECTION('',(0.,-0.707106781186543,-0.707106781186552));
#363=DIRECTION('',(1.,0.,0.));
#364=DIRECTION('',(0.,0.,1.));
#365=DIRECTION('',(1.,0.,0.));
#366=DIRECTION('',(0.,0.,1.));
#367=DIRECTION('',(1.,0.,0.));
#368=DIRECTION('',(-1.,0.,0.));
#369=DIRECTION('',(0.,-1.,0.));
#370=DIRECTION('',(-1.,0.,0.));
#371=DIRECTION('',(0.,1.,0.));
#372=DIRECTION('',(0.,0.,1.));
#373=DIRECTION('',(1.,0.,0.));
#374=DIRECTION('',(0.,0.,-1.));
#375=DIRECTION('',(0.,0.,1.));
#376=DIRECTION('',(1.,0.,0.));
#377=DIRECTION('',(0.,0.,1.));
#378=DIRECTION('',(1.,0.,0.));
#379=DIRECTION('',(0.,-1.,0.));
#380=DIRECTION('',(0.,0.,-1.));
#381=DIRECTION('',(0.,0.,1.));
#382=DIRECTION('',(0.,-1.,0.));
#383=DIRECTION('',(-1.,0.,0.));
#384=DIRECTION('',(0.,0.,1.));
#385=DIRECTION('',(0.,0.,1.));
#386=DIRECTION('',(-1.,0.,0.));
#387=DIRECTION('',(0.,0.,-1.));
#388=DIRECTION('',(1.,0.,0.));
#389=DIRECTION('',(0.,0.,1.));
#390=DIRECTION('',(-1.,0.,0.));
#391=DIRECTION('',(0.,1.,0.));
#392=DIRECTION('',(0.,0.,1.));
#393=DIRECTION('',(0.,0.,-1.));
#394=DIRECTION('',(-1.,0.,0.));
#395=DIRECTION('',(0.,1.,0.));
#396=DIRECTION('',(0.,0.,-1.));
#397=DIRECTION('',(-1.,0.,0.));
#398=DIRECTION('',(0.,-0.707106781186552,0.707106781186543));
#399=DIRECTION('',(1.,0.,0.));
#400=DIRECTION('',(0.,0.,-1.));
#401=DIRECTION('',(0.,0.707106781186552,-0.707106781186543));
#402=DIRECTION('',(0.,-0.707106781186543,-0.707106781186552));
#403=DIRECTION('',(1.,0.,0.));
#404=DIRECTION('',(0.,1.,0.));
#405=DIRECTION('',(-1.,0.,0.));
#406=DIRECTION('',(0.,0.,1.));
#407=DIRECTION('',(0.,0.,-1.));
#408=DIRECTION('',(-1.,0.,0.));
#409=DIRECTION('',(0.,-1.,0.));
#410=DIRECTION('',(0.,0.,-1.));
#411=DIRECTION('',(-1.,0.,0.));
#412=DIRECTION('',(0.,0.,1.));
#413=DIRECTION('',(1.,0.,0.));
#414=DIRECTION('',(0.,0.,-1.));
#415=DIRECTION('',(0.,0.,-1.));
#416=DIRECTION('',(1.,0.,0.));
#417=DIRECTION('',(0.,0.,-1.));
#418=DIRECTION('',(1.,0.,0.));
#419=DIRECTION('',(0.,0.,-1.));
#420=DIRECTION('',(-1.,0.,0.));
#421=DIRECTION('',(0.,0.,-1.));
#422=DIRECTION('',(1.,0.,0.));
#423=CARTESIAN_POINT('',(0.,0.,0.));
#424=CARTESIAN_POINT('',(30.4,193.8,119.7));
#425=CARTESIAN_POINT('',(30.4,0.,119.7));
#426=CARTESIAN_POINT('',(30.4,340.117147780641,119.7));
#427=CARTESIAN_POINT('',(30.4,340.117147780641,119.75));
#428=CARTESIAN_POINT('',(30.4,340.117147780641,81.8));
#429=CARTESIAN_POINT('',(30.4,193.8,81.8));
#430=CARTESIAN_POINT('',(30.4,0.,81.8));
#431=CARTESIAN_POINT('',(30.4,0.,0.));
#432=CARTESIAN_POINT('',(30.4,193.8,81.8));
#433=CARTESIAN_POINT('',(12.6,193.8,119.7));
#434=CARTESIAN_POINT('',(12.6,385.3,119.7));
#435=CARTESIAN_POINT('',(12.6,0.,119.7));
#436=CARTESIAN_POINT('',(123.7,385.3,119.7));
#437=CARTESIAN_POINT('',(0.,385.3,119.7));
#438=CARTESIAN_POINT('',(0.,193.8,119.7));
#439=CARTESIAN_POINT('',(0.,0.,119.7));
#440=CARTESIAN_POINT('',(123.7,0.,119.7));
#441=CARTESIAN_POINT('',(123.7,193.8,119.7));
#442=CARTESIAN_POINT('',(12.6,387.6,117.4));
#443=CARTESIAN_POINT('',(12.6,387.6,117.4));
#444=CARTESIAN_POINT('',(123.7,387.6,117.4));
#445=CARTESIAN_POINT('',(0.,387.6,117.4));
#446=CARTESIAN_POINT('',(0.,349.399999999999,155.600000000001));
#447=CARTESIAN_POINT('',(123.7,387.6,117.4));
#448=CARTESIAN_POINT('',(92.2,374.6,119.7));
#449=CARTESIAN_POINT('',(101.2,374.6,119.7));
#450=CARTESIAN_POINT('',(25.7,348.2,119.7));
#451=CARTESIAN_POINT('',(30.4,356.282852219359,119.7));
#452=CARTESIAN_POINT('',(123.7,0.,119.7));
#453=CARTESIAN_POINT('',(247.4,0.,119.7));
#454=CARTESIAN_POINT('',(247.4,193.8,119.7));
#455=CARTESIAN_POINT('',(247.4,385.3,119.7));
#456=CARTESIAN_POINT('',(123.7,385.3,119.7));
#457=CARTESIAN_POINT('',(30.4,385.3,119.7));
#458=CARTESIAN_POINT('',(30.4,193.8,119.7));
#459=CARTESIAN_POINT('',(123.7,193.8,119.7));
#460=CARTESIAN_POINT('',(12.6,0.,0.));
#461=CARTESIAN_POINT('',(12.6,0.,81.8));
#462=CARTESIAN_POINT('',(0.,0.,0.));
#463=CARTESIAN_POINT('',(0.,0.,0.));
#464=CARTESIAN_POINT('',(123.7,0.,0.));
#465=CARTESIAN_POINT('',(247.4,0.,0.));
#466=CARTESIAN_POINT('',(247.4,0.,0.));
#467=CARTESIAN_POINT('',(123.7,0.,81.8));
#468=CARTESIAN_POINT('',(123.7,0.,0.));
#469=CARTESIAN_POINT('',(0.,387.6,0.));
#470=CARTESIAN_POINT('',(0.,387.6,0.));
#471=CARTESIAN_POINT('',(0.,193.8,0.));
#472=CARTESIAN_POINT('',(0.,193.8,0.));
#473=CARTESIAN_POINT('',(12.6,387.6,0.));
#474=CARTESIAN_POINT('',(12.6,387.6,81.8));
#475=CARTESIAN_POINT('',(123.7,387.6,81.8));
#476=CARTESIAN_POINT('',(30.4,387.6,81.8));
#477=CARTESIAN_POINT('',(30.4,387.6,0.));
#478=CARTESIAN_POINT('',(30.4,387.6,117.4));
#479=CARTESIAN_POINT('',(123.7,387.6,117.4));
#480=CARTESIAN_POINT('',(247.4,387.6,117.4));
#481=CARTESIAN_POINT('',(247.4,387.6,0.));
#482=CARTESIAN_POINT('',(247.4,387.6,0.));
#483=CARTESIAN_POINT('',(123.7,387.6,0.));
#484=CARTESIAN_POINT('',(123.7,387.6,0.));
#485=CARTESIAN_POINT('',(25.7,348.2,0.));
#486=CARTESIAN_POINT('',(16.35,348.2,0.));
#487=CARTESIAN_POINT('',(247.4,193.8,0.));
#488=CARTESIAN_POINT('',(123.7,193.8,0.));
#489=CARTESIAN_POINT('',(247.4,349.399999999999,155.600000000001));
#490=CARTESIAN_POINT('',(247.4,193.8,0.));
#491=CARTESIAN_POINT('',(30.4,387.6,117.4));
#492=CARTESIAN_POINT('',(123.7,387.6,117.4));
#493=CARTESIAN_POINT('',(12.6,193.8,81.8));
#494=CARTESIAN_POINT('',(12.6,193.8,81.8));
#495=CARTESIAN_POINT('',(25.7,348.2,81.8));
#496=CARTESIAN_POINT('',(30.4,356.282852219359,81.8));
#497=CARTESIAN_POINT('',(30.4,193.8,81.8));
#498=CARTESIAN_POINT('',(21.5,193.8,81.8));
#499=CARTESIAN_POINT('',(30.4,356.282852219359,119.75));
#500=CARTESIAN_POINT('',(30.4,193.8,81.8));
#501=CARTESIAN_POINT('',(25.7,348.2,119.75));
#502=CARTESIAN_POINT('',(92.2,374.6,84.2));
#503=CARTESIAN_POINT('',(101.2,374.6,84.2));
#504=CARTESIAN_POINT('',(92.2,374.6,84.2));
#505=CARTESIAN_POINT('',(92.2,374.6,119.75));
#506=MECHANICAL_DESIGN_GEOMETRIC_PRESENTATION_REPRESENTATION('',(#24),#507);
#507=(
GEOMETRIC_REPRESENTATION_CONTEXT(3)
GLOBAL_UNCERTAINTY_ASSIGNED_CONTEXT((#508))
GLOBAL_UNIT_ASSIGNED_CONTEXT((#514,#510,#509))
REPRESENTATION_CONTEXT('featured_part_03395','TOP_LEVEL_ASSEMBLY_PART')
);
#508=UNCERTAINTY_MEASURE_WITH_UNIT(LENGTH_MEASURE(2.E-5),#514,
'DISTANCE_ACCURACY_VALUE','Maximum Tolerance applied to model');
#509=(
NAMED_UNIT(*)
SI_UNIT($,.STERADIAN.)
SOLID_ANGLE_UNIT()
);
#510=(
CONVERSION_BASED_UNIT('DEGREE',#512)
NAMED_UNIT(#511)
PLANE_ANGLE_UNIT()
);
#511=DIMENSIONAL_EXPONENTS(0.,0.,0.,0.,0.,0.,0.);
#512=PLANE_ANGLE_MEASURE_WITH_UNIT(PLANE_ANGLE_MEASURE(0.0174532925),#513);
#513=(
NAMED_UNIT(*)
PLANE_ANGLE_UNIT()
SI_UNIT($,.RADIAN.)
);
#514=(
LENGTH_UNIT()
NAMED_UNIT(*)
SI_UNIT(.MILLI.,.METRE.)
);
ENDSEC;
END-ISO-10303-21;
