ISO-10303-21;
HEADER;
/* Generated by software containing ST-Developer
 * from STEP Tools, Inc. (www.steptools.com) 
 */
/* OPTION: using custom schema-name function */

FILE_DESCRIPTION(
/* description */ (''),
/* implementation_level */ '2;1');

FILE_NAME(
/* name */ 'featured_part_05936.stp',
/* time_stamp */ '2026-07-08T11:23:35-04:00',
/* author */ (''),
/* organization */ (''),
/* preprocessor_version */ 'ST-DEVELOPER v20.1',
/* originating_system */ 'SIEMENS PLM Software NX2512.6002',
/* authorisation */ '');

FILE_SCHEMA (('AUTOMOTIVE_DESIGN { 1 0 10303 214 3 1 1 1 }'));
ENDSEC;

DATA;
#10=SHAPE_REPRESENTATION_RELATIONSHIP('None',
'relationship between featured_part_05936-None and featured_part_05936
-None',#22,#11);
#11=ADVANCED_BREP_SHAPE_REPRESENTATION('featured_part_05936-None',(#32),
#1138);
#12=SHAPE_DEFINITION_REPRESENTATION(#13,#22);
#13=PRODUCT_DEFINITION_SHAPE('','',#14);
#14=PRODUCT_DEFINITION(' ','',#16,#15);
#15=PRODUCT_DEFINITION_CONTEXT('part definition',#21,'design');
#16=PRODUCT_DEFINITION_FORMATION_WITH_SPECIFIED_SOURCE(' ',' ',#18,
 .NOT_KNOWN.);
#17=PRODUCT_RELATED_PRODUCT_CATEGORY('part','',(#18));
#18=PRODUCT('featured_part_05936','featured_part_05936',' ',(#19));
#19=PRODUCT_CONTEXT(' ',#21,'mechanical');
#20=APPLICATION_PROTOCOL_DEFINITION('international standard',
'automotive_design',2010,#21);
#21=APPLICATION_CONTEXT(
'core data for automotive mechanical design processes');
#22=SHAPE_REPRESENTATION('featured_part_05936-None',(#688),#1138);
#23=PRESENTATION_LAYER_ASSIGNMENT('1','Layer 1',(#32));
#24=STYLED_ITEM('',(#25),#32);
#25=PRESENTATION_STYLE_ASSIGNMENT((#26));
#26=SURFACE_STYLE_USAGE(.BOTH.,#27);
#27=SURFACE_SIDE_STYLE('',(#28));
#28=SURFACE_STYLE_FILL_AREA(#29);
#29=FILL_AREA_STYLE('',(#30));
#30=FILL_AREA_STYLE_COLOUR('',#31);
#31=COLOUR_RGB('medium steel',0.611764705882353,0.658823529411765,0.670588235294118);
#32=MANIFOLD_SOLID_BREP('',#33);
#33=CLOSED_SHELL('',(#96,#97,#98,#99,#100,#101,#102,#103,#104,#105,#106,
#107,#108,#109,#110,#111,#112,#113,#114,#115,#116,#117,#118,#119,#120,#121,
#122,#123,#124,#125,#126,#127,#128,#129,#130,#131));
#34=CYLINDRICAL_SURFACE('',#720,6.1);
#35=CYLINDRICAL_SURFACE('',#721,6.1);
#36=CYLINDRICAL_SURFACE('',#731,11.9);
#37=CYLINDRICAL_SURFACE('',#732,11.9);
#38=CYLINDRICAL_SURFACE('',#733,11.9);
#39=CYLINDRICAL_SURFACE('',#734,11.9);
#40=CYLINDRICAL_SURFACE('',#741,11.2);
#41=CYLINDRICAL_SURFACE('',#742,4.25);
#42=CYLINDRICAL_SURFACE('',#743,9.65);
#43=CYLINDRICAL_SURFACE('',#744,7.5);
#44=CYLINDRICAL_SURFACE('',#747,8.2);
#45=CYLINDRICAL_SURFACE('',#750,3.6);
#46=CYLINDRICAL_SURFACE('',#753,7.5);
#47=FACE_BOUND('',#182,.T.);
#48=FACE_BOUND('',#183,.T.);
#49=FACE_BOUND('',#187,.T.);
#50=FACE_BOUND('',#188,.T.);
#51=FACE_BOUND('',#189,.T.);
#52=FACE_BOUND('',#190,.T.);
#53=FACE_BOUND('',#195,.T.);
#54=FACE_BOUND('',#196,.T.);
#55=FACE_BOUND('',#211,.T.);
#56=FACE_BOUND('',#212,.T.);
#57=FACE_BOUND('',#213,.T.);
#58=FACE_BOUND('',#215,.T.);
#59=FACE_BOUND('',#216,.T.);
#60=FACE_BOUND('',#217,.T.);
#61=FACE_BOUND('',#218,.T.);
#62=FACE_BOUND('',#219,.T.);
#63=FACE_BOUND('',#220,.T.);
#64=FACE_BOUND('',#222,.T.);
#65=FACE_BOUND('',#223,.T.);
#66=FACE_BOUND('',#225,.T.);
#67=FACE_BOUND('',#226,.T.);
#68=FACE_BOUND('',#228,.T.);
#69=FACE_BOUND('',#229,.T.);
#70=CIRCLE('',#693,7.5);
#71=CIRCLE('',#694,7.5);
#72=CIRCLE('',#695,8.2);
#73=CIRCLE('',#696,11.2);
#74=CIRCLE('',#697,6.1);
#75=CIRCLE('',#698,6.1);
#76=CIRCLE('',#699,3.6);
#77=CIRCLE('',#704,7.5);
#78=CIRCLE('',#705,9.65);
#79=CIRCLE('',#706,4.25);
#80=CIRCLE('',#712,11.9);
#81=CIRCLE('',#713,11.9);
#82=CIRCLE('',#714,11.9);
#83=CIRCLE('',#715,11.9);
#84=CIRCLE('',#716,6.1);
#85=CIRCLE('',#717,6.1);
#86=CIRCLE('',#726,11.9);
#87=CIRCLE('',#727,11.9);
#88=CIRCLE('',#728,11.9);
#89=CIRCLE('',#729,11.9);
#90=CIRCLE('',#737,9.65);
#91=CIRCLE('',#738,4.25);
#92=CIRCLE('',#739,11.2);
#93=CIRCLE('',#745,8.2);
#94=CIRCLE('',#748,3.6);
#95=CIRCLE('',#751,7.5);
#96=ADVANCED_FACE('',(#155),#132,.F.);
#97=ADVANCED_FACE('',(#47,#48),#133,.T.);
#98=ADVANCED_FACE('',(#156),#134,.T.);
#99=ADVANCED_FACE('',(#157),#135,.T.);
#100=ADVANCED_FACE('',(#158),#136,.T.);
#101=ADVANCED_FACE('',(#49,#50,#51,#52),#137,.T.);
#102=ADVANCED_FACE('',(#159),#138,.T.);
#103=ADVANCED_FACE('',(#160),#139,.F.);
#104=ADVANCED_FACE('',(#161),#140,.F.);
#105=ADVANCED_FACE('',(#162),#141,.F.);
#106=ADVANCED_FACE('',(#53,#54),#142,.F.);
#107=ADVANCED_FACE('',(#163),#143,.F.);
#108=ADVANCED_FACE('',(#164),#34,.F.);
#109=ADVANCED_FACE('',(#165),#35,.F.);
#110=ADVANCED_FACE('',(#166),#144,.F.);
#111=ADVANCED_FACE('',(#167),#145,.F.);
#112=ADVANCED_FACE('',(#168),#146,.F.);
#113=ADVANCED_FACE('',(#169),#147,.F.);
#114=ADVANCED_FACE('',(#170),#148,.F.);
#115=ADVANCED_FACE('',(#171),#36,.F.);
#116=ADVANCED_FACE('',(#172),#37,.F.);
#117=ADVANCED_FACE('',(#173),#38,.F.);
#118=ADVANCED_FACE('',(#174),#39,.F.);
#119=ADVANCED_FACE('',(#175),#149,.F.);
#120=ADVANCED_FACE('',(#176),#150,.F.);
#121=ADVANCED_FACE('',(#55,#56,#57),#151,.F.);
#122=ADVANCED_FACE('',(#177),#40,.F.);
#123=ADVANCED_FACE('',(#58,#59),#41,.F.);
#124=ADVANCED_FACE('',(#60,#61),#42,.F.);
#125=ADVANCED_FACE('',(#62,#63),#43,.F.);
#126=ADVANCED_FACE('',(#178),#152,.F.);
#127=ADVANCED_FACE('',(#64,#65),#44,.F.);
#128=ADVANCED_FACE('',(#179),#153,.F.);
#129=ADVANCED_FACE('',(#66,#67),#45,.F.);
#130=ADVANCED_FACE('',(#180),#154,.F.);
#131=ADVANCED_FACE('',(#68,#69),#46,.F.);
#132=PLANE('',#692);
#133=PLANE('',#700);
#134=PLANE('',#701);
#135=PLANE('',#702);
#136=PLANE('',#703);
#137=PLANE('',#707);
#138=PLANE('',#708);
#139=PLANE('',#709);
#140=PLANE('',#710);
#141=PLANE('',#711);
#142=PLANE('',#718);
#143=PLANE('',#719);
#144=PLANE('',#722);
#145=PLANE('',#723);
#146=PLANE('',#724);
#147=PLANE('',#725);
#148=PLANE('',#730);
#149=PLANE('',#735);
#150=PLANE('',#736);
#151=PLANE('',#740);
#152=PLANE('',#746);
#153=PLANE('',#749);
#154=PLANE('',#752);
#155=FACE_OUTER_BOUND('',#181,.T.);
#156=FACE_OUTER_BOUND('',#184,.T.);
#157=FACE_OUTER_BOUND('',#185,.T.);
#158=FACE_OUTER_BOUND('',#186,.T.);
#159=FACE_OUTER_BOUND('',#191,.T.);
#160=FACE_OUTER_BOUND('',#192,.T.);
#161=FACE_OUTER_BOUND('',#193,.T.);
#162=FACE_OUTER_BOUND('',#194,.T.);
#163=FACE_OUTER_BOUND('',#197,.T.);
#164=FACE_OUTER_BOUND('',#198,.T.);
#165=FACE_OUTER_BOUND('',#199,.T.);
#166=FACE_OUTER_BOUND('',#200,.T.);
#167=FACE_OUTER_BOUND('',#201,.T.);
#168=FACE_OUTER_BOUND('',#202,.T.);
#169=FACE_OUTER_BOUND('',#203,.T.);
#170=FACE_OUTER_BOUND('',#204,.T.);
#171=FACE_OUTER_BOUND('',#205,.T.);
#172=FACE_OUTER_BOUND('',#206,.T.);
#173=FACE_OUTER_BOUND('',#207,.T.);
#174=FACE_OUTER_BOUND('',#208,.T.);
#175=FACE_OUTER_BOUND('',#209,.T.);
#176=FACE_OUTER_BOUND('',#210,.T.);
#177=FACE_OUTER_BOUND('',#214,.T.);
#178=FACE_OUTER_BOUND('',#221,.T.);
#179=FACE_OUTER_BOUND('',#224,.T.);
#180=FACE_OUTER_BOUND('',#227,.T.);
#181=EDGE_LOOP('',(#352,#353,#354,#355,#356,#357,#358,#359,#360,#361));
#182=EDGE_LOOP('',(#362,#363,#364,#365,#366,#367,#368,#369,#370,#371,#372,
#373,#374,#375,#376,#377,#378,#379,#380));
#183=EDGE_LOOP('',(#381));
#184=EDGE_LOOP('',(#382,#383,#384,#385,#386,#387,#388));
#185=EDGE_LOOP('',(#389,#390,#391,#392,#393,#394,#395,#396));
#186=EDGE_LOOP('',(#397,#398,#399,#400,#401));
#187=EDGE_LOOP('',(#402));
#188=EDGE_LOOP('',(#403));
#189=EDGE_LOOP('',(#404));
#190=EDGE_LOOP('',(#405,#406,#407,#408));
#191=EDGE_LOOP('',(#409,#410,#411,#412,#413,#414));
#192=EDGE_LOOP('',(#415,#416,#417,#418));
#193=EDGE_LOOP('',(#419,#420,#421,#422,#423));
#194=EDGE_LOOP('',(#424,#425,#426,#427,#428));
#195=EDGE_LOOP('',(#429,#430,#431,#432,#433,#434,#435,#436));
#196=EDGE_LOOP('',(#437,#438,#439,#440,#441,#442));
#197=EDGE_LOOP('',(#443,#444,#445,#446));
#198=EDGE_LOOP('',(#447,#448,#449,#450));
#199=EDGE_LOOP('',(#451,#452,#453,#454));
#200=EDGE_LOOP('',(#455,#456,#457,#458));
#201=EDGE_LOOP('',(#459,#460,#461,#462));
#202=EDGE_LOOP('',(#463,#464,#465,#466));
#203=EDGE_LOOP('',(#467,#468,#469,#470));
#204=EDGE_LOOP('',(#471,#472,#473,#474,#475,#476,#477,#478));
#205=EDGE_LOOP('',(#479,#480,#481,#482));
#206=EDGE_LOOP('',(#483,#484,#485,#486));
#207=EDGE_LOOP('',(#487,#488,#489,#490));
#208=EDGE_LOOP('',(#491,#492,#493,#494));
#209=EDGE_LOOP('',(#495,#496,#497,#498));
#210=EDGE_LOOP('',(#499,#500,#501,#502));
#211=EDGE_LOOP('',(#503));
#212=EDGE_LOOP('',(#504));
#213=EDGE_LOOP('',(#505,#506,#507,#508,#509));
#214=EDGE_LOOP('',(#510,#511,#512,#513));
#215=EDGE_LOOP('',(#514));
#216=EDGE_LOOP('',(#515));
#217=EDGE_LOOP('',(#516));
#218=EDGE_LOOP('',(#517));
#219=EDGE_LOOP('',(#518,#519));
#220=EDGE_LOOP('',(#520));
#221=EDGE_LOOP('',(#521));
#222=EDGE_LOOP('',(#522,#523));
#223=EDGE_LOOP('',(#524));
#224=EDGE_LOOP('',(#525));
#225=EDGE_LOOP('',(#526));
#226=EDGE_LOOP('',(#527));
#227=EDGE_LOOP('',(#528));
#228=EDGE_LOOP('',(#529,#530));
#229=EDGE_LOOP('',(#531));
#230=LINE('',#951,#291);
#231=LINE('',#953,#292);
#232=LINE('',#955,#293);
#233=LINE('',#957,#294);
#234=LINE('',#959,#295);
#235=LINE('',#963,#296);
#236=LINE('',#967,#297);
#237=LINE('',#972,#298);
#238=LINE('',#974,#299);
#239=LINE('',#978,#300);
#240=LINE('',#980,#301);
#241=LINE('',#982,#302);
#242=LINE('',#984,#303);
#243=LINE('',#986,#304);
#244=LINE('',#990,#305);
#245=LINE('',#994,#306);
#246=LINE('',#998,#307);
#247=LINE('',#1000,#308);
#248=LINE('',#1002,#309);
#249=LINE('',#1004,#310);
#250=LINE('',#1006,#311);
#251=LINE('',#1008,#312);
#252=LINE('',#1010,#313);
#253=LINE('',#1012,#314);
#254=LINE('',#1014,#315);
#255=LINE('',#1016,#316);
#256=LINE('',#1018,#317);
#257=LINE('',#1020,#318);
#258=LINE('',#1021,#319);
#259=LINE('',#1023,#320);
#260=LINE('',#1031,#321);
#261=LINE('',#1033,#322);
#262=LINE('',#1035,#323);
#263=LINE('',#1037,#324);
#264=LINE('',#1039,#325);
#265=LINE('',#1041,#326);
#266=LINE('',#1043,#327);
#267=LINE('',#1045,#328);
#268=LINE('',#1047,#329);
#269=LINE('',#1052,#330);
#270=LINE('',#1056,#331);
#271=LINE('',#1060,#332);
#272=LINE('',#1063,#333);
#273=LINE('',#1069,#334);
#274=LINE('',#1070,#335);
#275=LINE('',#1074,#336);
#276=LINE('',#1077,#337);
#277=LINE('',#1078,#338);
#278=LINE('',#1080,#339);
#279=LINE('',#1082,#340);
#280=LINE('',#1084,#341);
#281=LINE('',#1086,#342);
#282=LINE('',#1088,#343);
#283=LINE('',#1090,#344);
#284=LINE('',#1092,#345);
#285=LINE('',#1095,#346);
#286=LINE('',#1096,#347);
#287=LINE('',#1107,#348);
#288=LINE('',#1109,#349);
#289=LINE('',#1111,#350);
#290=LINE('',#1113,#351);
#291=VECTOR('',#758,1.);
#292=VECTOR('',#759,1.);
#293=VECTOR('',#760,1.);
#294=VECTOR('',#761,1.);
#295=VECTOR('',#762,1.);
#296=VECTOR('',#765,1.);
#297=VECTOR('',#768,1.);
#298=VECTOR('',#777,1.);
#299=VECTOR('',#778,1.);
#300=VECTOR('',#781,1.);
#301=VECTOR('',#782,1.);
#302=VECTOR('',#783,1.);
#303=VECTOR('',#784,1.);
#304=VECTOR('',#785,1.);
#305=VECTOR('',#788,1.);
#306=VECTOR('',#791,1.);
#307=VECTOR('',#796,1.);
#308=VECTOR('',#797,1.);
#309=VECTOR('',#798,1.);
#310=VECTOR('',#799,1.);
#311=VECTOR('',#800,1.);
#312=VECTOR('',#803,1.);
#313=VECTOR('',#804,1.);
#314=VECTOR('',#805,1.);
#315=VECTOR('',#806,1.);
#316=VECTOR('',#807,1.);
#317=VECTOR('',#808,1.);
#318=VECTOR('',#811,1.);
#319=VECTOR('',#812,1.);
#320=VECTOR('',#813,1.);
#321=VECTOR('',#822,1.);
#322=VECTOR('',#825,1.);
#323=VECTOR('',#826,1.);
#324=VECTOR('',#829,1.);
#325=VECTOR('',#832,1.);
#326=VECTOR('',#833,1.);
#327=VECTOR('',#836,1.);
#328=VECTOR('',#837,1.);
#329=VECTOR('',#840,1.);
#330=VECTOR('',#843,1.);
#331=VECTOR('',#846,1.);
#332=VECTOR('',#849,1.);
#333=VECTOR('',#852,1.);
#334=VECTOR('',#859,1.);
#335=VECTOR('',#860,1.);
#336=VECTOR('',#867,1.);
#337=VECTOR('',#868,1.);
#338=VECTOR('',#869,1.);
#339=VECTOR('',#872,1.);
#340=VECTOR('',#873,1.);
#341=VECTOR('',#874,1.);
#342=VECTOR('',#877,1.);
#343=VECTOR('',#878,1.);
#344=VECTOR('',#879,1.);
#345=VECTOR('',#882,1.);
#346=VECTOR('',#883,1.);
#347=VECTOR('',#884,1.);
#348=VECTOR('',#905,1.);
#349=VECTOR('',#906,1.);
#350=VECTOR('',#909,1.);
#351=VECTOR('',#910,1.);
#352=ORIENTED_EDGE('',*,*,#595,.F.);
#353=ORIENTED_EDGE('',*,*,#596,.F.);
#354=ORIENTED_EDGE('',*,*,#597,.F.);
#355=ORIENTED_EDGE('',*,*,#598,.F.);
#356=ORIENTED_EDGE('',*,*,#599,.F.);
#357=ORIENTED_EDGE('',*,*,#600,.F.);
#358=ORIENTED_EDGE('',*,*,#601,.F.);
#359=ORIENTED_EDGE('',*,*,#602,.F.);
#360=ORIENTED_EDGE('',*,*,#603,.F.);
#361=ORIENTED_EDGE('',*,*,#604,.F.);
#362=ORIENTED_EDGE('',*,*,#605,.F.);
#363=ORIENTED_EDGE('',*,*,#604,.T.);
#364=ORIENTED_EDGE('',*,*,#606,.F.);
#365=ORIENTED_EDGE('',*,*,#602,.T.);
#366=ORIENTED_EDGE('',*,*,#607,.F.);
#367=ORIENTED_EDGE('',*,*,#600,.T.);
#368=ORIENTED_EDGE('',*,*,#608,.F.);
#369=ORIENTED_EDGE('',*,*,#609,.F.);
#370=ORIENTED_EDGE('',*,*,#610,.T.);
#371=ORIENTED_EDGE('',*,*,#611,.F.);
#372=ORIENTED_EDGE('',*,*,#612,.F.);
#373=ORIENTED_EDGE('',*,*,#613,.F.);
#374=ORIENTED_EDGE('',*,*,#614,.T.);
#375=ORIENTED_EDGE('',*,*,#615,.F.);
#376=ORIENTED_EDGE('',*,*,#616,.T.);
#377=ORIENTED_EDGE('',*,*,#617,.F.);
#378=ORIENTED_EDGE('',*,*,#618,.T.);
#379=ORIENTED_EDGE('',*,*,#619,.F.);
#380=ORIENTED_EDGE('',*,*,#596,.T.);
#381=ORIENTED_EDGE('',*,*,#620,.F.);
#382=ORIENTED_EDGE('',*,*,#621,.T.);
#383=ORIENTED_EDGE('',*,*,#608,.T.);
#384=ORIENTED_EDGE('',*,*,#599,.T.);
#385=ORIENTED_EDGE('',*,*,#622,.F.);
#386=ORIENTED_EDGE('',*,*,#623,.T.);
#387=ORIENTED_EDGE('',*,*,#624,.T.);
#388=ORIENTED_EDGE('',*,*,#625,.F.);
#389=ORIENTED_EDGE('',*,*,#626,.F.);
#390=ORIENTED_EDGE('',*,*,#627,.F.);
#391=ORIENTED_EDGE('',*,*,#628,.T.);
#392=ORIENTED_EDGE('',*,*,#629,.T.);
#393=ORIENTED_EDGE('',*,*,#630,.F.);
#394=ORIENTED_EDGE('',*,*,#631,.T.);
#395=ORIENTED_EDGE('',*,*,#622,.T.);
#396=ORIENTED_EDGE('',*,*,#598,.T.);
#397=ORIENTED_EDGE('',*,*,#630,.T.);
#398=ORIENTED_EDGE('',*,*,#632,.T.);
#399=ORIENTED_EDGE('',*,*,#613,.T.);
#400=ORIENTED_EDGE('',*,*,#633,.F.);
#401=ORIENTED_EDGE('',*,*,#634,.T.);
#402=ORIENTED_EDGE('',*,*,#635,.F.);
#403=ORIENTED_EDGE('',*,*,#636,.F.);
#404=ORIENTED_EDGE('',*,*,#637,.F.);
#405=ORIENTED_EDGE('',*,*,#638,.F.);
#406=ORIENTED_EDGE('',*,*,#623,.F.);
#407=ORIENTED_EDGE('',*,*,#631,.F.);
#408=ORIENTED_EDGE('',*,*,#634,.F.);
#409=ORIENTED_EDGE('',*,*,#639,.F.);
#410=ORIENTED_EDGE('',*,*,#640,.F.);
#411=ORIENTED_EDGE('',*,*,#624,.F.);
#412=ORIENTED_EDGE('',*,*,#638,.T.);
#413=ORIENTED_EDGE('',*,*,#633,.T.);
#414=ORIENTED_EDGE('',*,*,#612,.T.);
#415=ORIENTED_EDGE('',*,*,#641,.F.);
#416=ORIENTED_EDGE('',*,*,#614,.F.);
#417=ORIENTED_EDGE('',*,*,#632,.F.);
#418=ORIENTED_EDGE('',*,*,#629,.F.);
#419=ORIENTED_EDGE('',*,*,#619,.T.);
#420=ORIENTED_EDGE('',*,*,#642,.T.);
#421=ORIENTED_EDGE('',*,*,#643,.T.);
#422=ORIENTED_EDGE('',*,*,#626,.T.);
#423=ORIENTED_EDGE('',*,*,#597,.T.);
#424=ORIENTED_EDGE('',*,*,#644,.T.);
#425=ORIENTED_EDGE('',*,*,#645,.T.);
#426=ORIENTED_EDGE('',*,*,#615,.T.);
#427=ORIENTED_EDGE('',*,*,#641,.T.);
#428=ORIENTED_EDGE('',*,*,#628,.F.);
#429=ORIENTED_EDGE('',*,*,#646,.T.);
#430=ORIENTED_EDGE('',*,*,#647,.T.);
#431=ORIENTED_EDGE('',*,*,#648,.T.);
#432=ORIENTED_EDGE('',*,*,#649,.T.);
#433=ORIENTED_EDGE('',*,*,#650,.T.);
#434=ORIENTED_EDGE('',*,*,#651,.T.);
#435=ORIENTED_EDGE('',*,*,#652,.T.);
#436=ORIENTED_EDGE('',*,*,#653,.T.);
#437=ORIENTED_EDGE('',*,*,#654,.F.);
#438=ORIENTED_EDGE('',*,*,#655,.T.);
#439=ORIENTED_EDGE('',*,*,#644,.F.);
#440=ORIENTED_EDGE('',*,*,#627,.T.);
#441=ORIENTED_EDGE('',*,*,#643,.F.);
#442=ORIENTED_EDGE('',*,*,#656,.T.);
#443=ORIENTED_EDGE('',*,*,#617,.T.);
#444=ORIENTED_EDGE('',*,*,#657,.T.);
#445=ORIENTED_EDGE('',*,*,#654,.T.);
#446=ORIENTED_EDGE('',*,*,#658,.T.);
#447=ORIENTED_EDGE('',*,*,#616,.F.);
#448=ORIENTED_EDGE('',*,*,#645,.F.);
#449=ORIENTED_EDGE('',*,*,#655,.F.);
#450=ORIENTED_EDGE('',*,*,#657,.F.);
#451=ORIENTED_EDGE('',*,*,#618,.F.);
#452=ORIENTED_EDGE('',*,*,#658,.F.);
#453=ORIENTED_EDGE('',*,*,#656,.F.);
#454=ORIENTED_EDGE('',*,*,#642,.F.);
#455=ORIENTED_EDGE('',*,*,#659,.T.);
#456=ORIENTED_EDGE('',*,*,#660,.T.);
#457=ORIENTED_EDGE('',*,*,#650,.F.);
#458=ORIENTED_EDGE('',*,*,#661,.T.);
#459=ORIENTED_EDGE('',*,*,#652,.F.);
#460=ORIENTED_EDGE('',*,*,#662,.T.);
#461=ORIENTED_EDGE('',*,*,#663,.T.);
#462=ORIENTED_EDGE('',*,*,#664,.T.);
#463=ORIENTED_EDGE('',*,*,#646,.F.);
#464=ORIENTED_EDGE('',*,*,#665,.T.);
#465=ORIENTED_EDGE('',*,*,#666,.T.);
#466=ORIENTED_EDGE('',*,*,#667,.T.);
#467=ORIENTED_EDGE('',*,*,#668,.T.);
#468=ORIENTED_EDGE('',*,*,#669,.T.);
#469=ORIENTED_EDGE('',*,*,#648,.F.);
#470=ORIENTED_EDGE('',*,*,#670,.T.);
#471=ORIENTED_EDGE('',*,*,#663,.F.);
#472=ORIENTED_EDGE('',*,*,#671,.T.);
#473=ORIENTED_EDGE('',*,*,#659,.F.);
#474=ORIENTED_EDGE('',*,*,#672,.T.);
#475=ORIENTED_EDGE('',*,*,#668,.F.);
#476=ORIENTED_EDGE('',*,*,#673,.T.);
#477=ORIENTED_EDGE('',*,*,#666,.F.);
#478=ORIENTED_EDGE('',*,*,#674,.T.);
#479=ORIENTED_EDGE('',*,*,#651,.F.);
#480=ORIENTED_EDGE('',*,*,#660,.F.);
#481=ORIENTED_EDGE('',*,*,#671,.F.);
#482=ORIENTED_EDGE('',*,*,#662,.F.);
#483=ORIENTED_EDGE('',*,*,#649,.F.);
#484=ORIENTED_EDGE('',*,*,#669,.F.);
#485=ORIENTED_EDGE('',*,*,#672,.F.);
#486=ORIENTED_EDGE('',*,*,#661,.F.);
#487=ORIENTED_EDGE('',*,*,#653,.F.);
#488=ORIENTED_EDGE('',*,*,#664,.F.);
#489=ORIENTED_EDGE('',*,*,#674,.F.);
#490=ORIENTED_EDGE('',*,*,#665,.F.);
#491=ORIENTED_EDGE('',*,*,#647,.F.);
#492=ORIENTED_EDGE('',*,*,#667,.F.);
#493=ORIENTED_EDGE('',*,*,#673,.F.);
#494=ORIENTED_EDGE('',*,*,#670,.F.);
#495=ORIENTED_EDGE('',*,*,#675,.T.);
#496=ORIENTED_EDGE('',*,*,#676,.T.);
#497=ORIENTED_EDGE('',*,*,#609,.T.);
#498=ORIENTED_EDGE('',*,*,#621,.F.);
#499=ORIENTED_EDGE('',*,*,#611,.T.);
#500=ORIENTED_EDGE('',*,*,#677,.T.);
#501=ORIENTED_EDGE('',*,*,#678,.T.);
#502=ORIENTED_EDGE('',*,*,#639,.T.);
#503=ORIENTED_EDGE('',*,*,#679,.T.);
#504=ORIENTED_EDGE('',*,*,#680,.T.);
#505=ORIENTED_EDGE('',*,*,#678,.F.);
#506=ORIENTED_EDGE('',*,*,#681,.T.);
#507=ORIENTED_EDGE('',*,*,#675,.F.);
#508=ORIENTED_EDGE('',*,*,#625,.T.);
#509=ORIENTED_EDGE('',*,*,#640,.T.);
#510=ORIENTED_EDGE('',*,*,#610,.F.);
#511=ORIENTED_EDGE('',*,*,#676,.F.);
#512=ORIENTED_EDGE('',*,*,#681,.F.);
#513=ORIENTED_EDGE('',*,*,#677,.F.);
#514=ORIENTED_EDGE('',*,*,#637,.T.);
#515=ORIENTED_EDGE('',*,*,#680,.F.);
#516=ORIENTED_EDGE('',*,*,#636,.T.);
#517=ORIENTED_EDGE('',*,*,#679,.F.);
#518=ORIENTED_EDGE('',*,*,#603,.T.);
#519=ORIENTED_EDGE('',*,*,#606,.T.);
#520=ORIENTED_EDGE('',*,*,#635,.T.);
#521=ORIENTED_EDGE('',*,*,#682,.F.);
#522=ORIENTED_EDGE('',*,*,#601,.T.);
#523=ORIENTED_EDGE('',*,*,#607,.T.);
#524=ORIENTED_EDGE('',*,*,#682,.T.);
#525=ORIENTED_EDGE('',*,*,#683,.F.);
#526=ORIENTED_EDGE('',*,*,#620,.T.);
#527=ORIENTED_EDGE('',*,*,#683,.T.);
#528=ORIENTED_EDGE('',*,*,#684,.F.);
#529=ORIENTED_EDGE('',*,*,#595,.T.);
#530=ORIENTED_EDGE('',*,*,#605,.T.);
#531=ORIENTED_EDGE('',*,*,#684,.T.);
#532=VERTEX_POINT('',#949);
#533=VERTEX_POINT('',#950);
#534=VERTEX_POINT('',#952);
#535=VERTEX_POINT('',#954);
#536=VERTEX_POINT('',#956);
#537=VERTEX_POINT('',#958);
#538=VERTEX_POINT('',#960);
#539=VERTEX_POINT('',#962);
#540=VERTEX_POINT('',#964);
#541=VERTEX_POINT('',#966);
#542=VERTEX_POINT('',#973);
#543=VERTEX_POINT('',#975);
#544=VERTEX_POINT('',#977);
#545=VERTEX_POINT('',#979);
#546=VERTEX_POINT('',#981);
#547=VERTEX_POINT('',#983);
#548=VERTEX_POINT('',#985);
#549=VERTEX_POINT('',#987);
#550=VERTEX_POINT('',#989);
#551=VERTEX_POINT('',#991);
#552=VERTEX_POINT('',#993);
#553=VERTEX_POINT('',#996);
#554=VERTEX_POINT('',#999);
#555=VERTEX_POINT('',#1001);
#556=VERTEX_POINT('',#1003);
#557=VERTEX_POINT('',#1005);
#558=VERTEX_POINT('',#1009);
#559=VERTEX_POINT('',#1011);
#560=VERTEX_POINT('',#1013);
#561=VERTEX_POINT('',#1015);
#562=VERTEX_POINT('',#1017);
#563=VERTEX_POINT('',#1022);
#564=VERTEX_POINT('',#1026);
#565=VERTEX_POINT('',#1028);
#566=VERTEX_POINT('',#1030);
#567=VERTEX_POINT('',#1034);
#568=VERTEX_POINT('',#1040);
#569=VERTEX_POINT('',#1044);
#570=VERTEX_POINT('',#1048);
#571=VERTEX_POINT('',#1049);
#572=VERTEX_POINT('',#1051);
#573=VERTEX_POINT('',#1053);
#574=VERTEX_POINT('',#1055);
#575=VERTEX_POINT('',#1057);
#576=VERTEX_POINT('',#1059);
#577=VERTEX_POINT('',#1061);
#578=VERTEX_POINT('',#1064);
#579=VERTEX_POINT('',#1065);
#580=VERTEX_POINT('',#1075);
#581=VERTEX_POINT('',#1076);
#582=VERTEX_POINT('',#1081);
#583=VERTEX_POINT('',#1083);
#584=VERTEX_POINT('',#1087);
#585=VERTEX_POINT('',#1089);
#586=VERTEX_POINT('',#1093);
#587=VERTEX_POINT('',#1094);
#588=VERTEX_POINT('',#1108);
#589=VERTEX_POINT('',#1112);
#590=VERTEX_POINT('',#1116);
#591=VERTEX_POINT('',#1118);
#592=VERTEX_POINT('',#1126);
#593=VERTEX_POINT('',#1130);
#594=VERTEX_POINT('',#1134);
#595=EDGE_CURVE('',#532,#533,#685,.T.);
#596=EDGE_CURVE('',#534,#532,#230,.T.);
#597=EDGE_CURVE('',#535,#534,#231,.T.);
#598=EDGE_CURVE('',#536,#535,#232,.T.);
#599=EDGE_CURVE('',#537,#536,#233,.T.);
#600=EDGE_CURVE('',#538,#537,#234,.T.);
#601=EDGE_CURVE('',#539,#538,#686,.T.);
#602=EDGE_CURVE('',#540,#539,#235,.T.);
#603=EDGE_CURVE('',#541,#540,#687,.T.);
#604=EDGE_CURVE('',#533,#541,#236,.T.);
#605=EDGE_CURVE('',#533,#532,#70,.T.);
#606=EDGE_CURVE('',#540,#541,#71,.T.);
#607=EDGE_CURVE('',#538,#539,#72,.T.);
#608=EDGE_CURVE('',#542,#537,#237,.T.);
#609=EDGE_CURVE('',#543,#542,#238,.T.);
#610=EDGE_CURVE('',#543,#544,#73,.T.);
#611=EDGE_CURVE('',#545,#544,#239,.T.);
#612=EDGE_CURVE('',#546,#545,#240,.T.);
#613=EDGE_CURVE('',#547,#546,#241,.T.);
#614=EDGE_CURVE('',#547,#548,#242,.T.);
#615=EDGE_CURVE('',#549,#548,#243,.T.);
#616=EDGE_CURVE('',#549,#550,#74,.T.);
#617=EDGE_CURVE('',#551,#550,#244,.T.);
#618=EDGE_CURVE('',#551,#552,#75,.T.);
#619=EDGE_CURVE('',#534,#552,#245,.T.);
#620=EDGE_CURVE('',#553,#553,#76,.T.);
#621=EDGE_CURVE('',#554,#542,#246,.T.);
#622=EDGE_CURVE('',#555,#536,#247,.T.);
#623=EDGE_CURVE('',#555,#556,#248,.T.);
#624=EDGE_CURVE('',#556,#557,#249,.T.);
#625=EDGE_CURVE('',#554,#557,#250,.T.);
#626=EDGE_CURVE('',#558,#535,#251,.T.);
#627=EDGE_CURVE('',#559,#558,#252,.T.);
#628=EDGE_CURVE('',#559,#560,#253,.T.);
#629=EDGE_CURVE('',#560,#561,#254,.T.);
#630=EDGE_CURVE('',#562,#561,#255,.T.);
#631=EDGE_CURVE('',#562,#555,#256,.T.);
#632=EDGE_CURVE('',#561,#547,#257,.T.);
#633=EDGE_CURVE('',#563,#546,#258,.T.);
#634=EDGE_CURVE('',#563,#562,#259,.T.);
#635=EDGE_CURVE('',#564,#564,#77,.T.);
#636=EDGE_CURVE('',#565,#565,#78,.T.);
#637=EDGE_CURVE('',#566,#566,#79,.T.);
#638=EDGE_CURVE('',#556,#563,#260,.T.);
#639=EDGE_CURVE('',#567,#545,#261,.T.);
#640=EDGE_CURVE('',#557,#567,#262,.T.);
#641=EDGE_CURVE('',#548,#560,#263,.T.);
#642=EDGE_CURVE('',#552,#568,#264,.T.);
#643=EDGE_CURVE('',#568,#558,#265,.T.);
#644=EDGE_CURVE('',#559,#569,#266,.T.);
#645=EDGE_CURVE('',#569,#549,#267,.T.);
#646=EDGE_CURVE('',#570,#571,#268,.T.);
#647=EDGE_CURVE('',#571,#572,#80,.T.);
#648=EDGE_CURVE('',#572,#573,#269,.T.);
#649=EDGE_CURVE('',#573,#574,#81,.T.);
#650=EDGE_CURVE('',#574,#575,#270,.T.);
#651=EDGE_CURVE('',#575,#576,#82,.T.);
#652=EDGE_CURVE('',#576,#577,#271,.T.);
#653=EDGE_CURVE('',#577,#570,#83,.T.);
#654=EDGE_CURVE('',#578,#579,#272,.T.);
#655=EDGE_CURVE('',#578,#569,#84,.T.);
#656=EDGE_CURVE('',#568,#579,#85,.T.);
#657=EDGE_CURVE('',#550,#578,#273,.T.);
#658=EDGE_CURVE('',#579,#551,#274,.T.);
#659=EDGE_CURVE('',#580,#581,#275,.T.);
#660=EDGE_CURVE('',#581,#575,#276,.T.);
#661=EDGE_CURVE('',#574,#580,#277,.T.);
#662=EDGE_CURVE('',#576,#582,#278,.T.);
#663=EDGE_CURVE('',#582,#583,#279,.T.);
#664=EDGE_CURVE('',#583,#577,#280,.T.);
#665=EDGE_CURVE('',#570,#584,#281,.T.);
#666=EDGE_CURVE('',#584,#585,#282,.T.);
#667=EDGE_CURVE('',#585,#571,#283,.T.);
#668=EDGE_CURVE('',#586,#587,#284,.T.);
#669=EDGE_CURVE('',#587,#573,#285,.T.);
#670=EDGE_CURVE('',#572,#586,#286,.T.);
#671=EDGE_CURVE('',#582,#581,#86,.T.);
#672=EDGE_CURVE('',#580,#587,#87,.T.);
#673=EDGE_CURVE('',#586,#585,#88,.T.);
#674=EDGE_CURVE('',#584,#583,#89,.T.);
#675=EDGE_CURVE('',#554,#588,#287,.T.);
#676=EDGE_CURVE('',#588,#543,#288,.T.);
#677=EDGE_CURVE('',#544,#589,#289,.T.);
#678=EDGE_CURVE('',#589,#567,#290,.T.);
#679=EDGE_CURVE('',#590,#590,#90,.T.);
#680=EDGE_CURVE('',#591,#591,#91,.T.);
#681=EDGE_CURVE('',#589,#588,#92,.T.);
#682=EDGE_CURVE('',#592,#592,#93,.T.);
#683=EDGE_CURVE('',#593,#593,#94,.T.);
#684=EDGE_CURVE('',#594,#594,#95,.T.);
#685=ELLIPSE('',#689,10.6066017177982,7.5);
#686=ELLIPSE('',#690,11.5965512114594,8.2);
#687=ELLIPSE('',#691,10.6066017177982,7.5);
#688=AXIS2_PLACEMENT_3D('',#947,#754,#755);
#689=AXIS2_PLACEMENT_3D('',#948,#756,#757);
#690=AXIS2_PLACEMENT_3D('',#961,#763,#764);
#691=AXIS2_PLACEMENT_3D('',#965,#766,#767);
#692=AXIS2_PLACEMENT_3D('',#968,#769,#770);
#693=AXIS2_PLACEMENT_3D('',#969,#771,#772);
#694=AXIS2_PLACEMENT_3D('',#970,#773,#774);
#695=AXIS2_PLACEMENT_3D('',#971,#775,#776);
#696=AXIS2_PLACEMENT_3D('',#976,#779,#780);
#697=AXIS2_PLACEMENT_3D('',#988,#786,#787);
#698=AXIS2_PLACEMENT_3D('',#992,#789,#790);
#699=AXIS2_PLACEMENT_3D('',#995,#792,#793);
#700=AXIS2_PLACEMENT_3D('',#997,#794,#795);
#701=AXIS2_PLACEMENT_3D('',#1007,#801,#802);
#702=AXIS2_PLACEMENT_3D('',#1019,#809,#810);
#703=AXIS2_PLACEMENT_3D('',#1024,#814,#815);
#704=AXIS2_PLACEMENT_3D('',#1025,#816,#817);
#705=AXIS2_PLACEMENT_3D('',#1027,#818,#819);
#706=AXIS2_PLACEMENT_3D('',#1029,#820,#821);
#707=AXIS2_PLACEMENT_3D('',#1032,#823,#824);
#708=AXIS2_PLACEMENT_3D('',#1036,#827,#828);
#709=AXIS2_PLACEMENT_3D('',#1038,#830,#831);
#710=AXIS2_PLACEMENT_3D('',#1042,#834,#835);
#711=AXIS2_PLACEMENT_3D('',#1046,#838,#839);
#712=AXIS2_PLACEMENT_3D('',#1050,#841,#842);
#713=AXIS2_PLACEMENT_3D('',#1054,#844,#845);
#714=AXIS2_PLACEMENT_3D('',#1058,#847,#848);
#715=AXIS2_PLACEMENT_3D('',#1062,#850,#851);
#716=AXIS2_PLACEMENT_3D('',#1066,#853,#854);
#717=AXIS2_PLACEMENT_3D('',#1067,#855,#856);
#718=AXIS2_PLACEMENT_3D('',#1068,#857,#858);
#719=AXIS2_PLACEMENT_3D('',#1071,#861,#862);
#720=AXIS2_PLACEMENT_3D('',#1072,#863,#864);
#721=AXIS2_PLACEMENT_3D('',#1073,#865,#866);
#722=AXIS2_PLACEMENT_3D('',#1079,#870,#871);
#723=AXIS2_PLACEMENT_3D('',#1085,#875,#876);
#724=AXIS2_PLACEMENT_3D('',#1091,#880,#881);
#725=AXIS2_PLACEMENT_3D('',#1097,#885,#886);
#726=AXIS2_PLACEMENT_3D('',#1098,#887,#888);
#727=AXIS2_PLACEMENT_3D('',#1099,#889,#890);
#728=AXIS2_PLACEMENT_3D('',#1100,#891,#892);
#729=AXIS2_PLACEMENT_3D('',#1101,#893,#894);
#730=AXIS2_PLACEMENT_3D('',#1102,#895,#896);
#731=AXIS2_PLACEMENT_3D('',#1103,#897,#898);
#732=AXIS2_PLACEMENT_3D('',#1104,#899,#900);
#733=AXIS2_PLACEMENT_3D('',#1105,#901,#902);
#734=AXIS2_PLACEMENT_3D('',#1106,#903,#904);
#735=AXIS2_PLACEMENT_3D('',#1110,#907,#908);
#736=AXIS2_PLACEMENT_3D('',#1114,#911,#912);
#737=AXIS2_PLACEMENT_3D('',#1115,#913,#914);
#738=AXIS2_PLACEMENT_3D('',#1117,#915,#916);
#739=AXIS2_PLACEMENT_3D('',#1119,#917,#918);
#740=AXIS2_PLACEMENT_3D('',#1120,#919,#920);
#741=AXIS2_PLACEMENT_3D('',#1121,#921,#922);
#742=AXIS2_PLACEMENT_3D('',#1122,#923,#924);
#743=AXIS2_PLACEMENT_3D('',#1123,#925,#926);
#744=AXIS2_PLACEMENT_3D('',#1124,#927,#928);
#745=AXIS2_PLACEMENT_3D('',#1125,#929,#930);
#746=AXIS2_PLACEMENT_3D('',#1127,#931,#932);
#747=AXIS2_PLACEMENT_3D('',#1128,#933,#934);
#748=AXIS2_PLACEMENT_3D('',#1129,#935,#936);
#749=AXIS2_PLACEMENT_3D('',#1131,#937,#938);
#750=AXIS2_PLACEMENT_3D('',#1132,#939,#940);
#751=AXIS2_PLACEMENT_3D('',#1133,#941,#942);
#752=AXIS2_PLACEMENT_3D('',#1135,#943,#944);
#753=AXIS2_PLACEMENT_3D('',#1136,#945,#946);
#754=DIRECTION('',(0.,0.,1.));
#755=DIRECTION('',(1.,0.,0.));
#756=DIRECTION('',(-0.707106781186547,0.,0.707106781186548));
#757=DIRECTION('',(-0.707106781186548,0.,-0.707106781186547));
#758=DIRECTION('',(0.,-1.,0.));
#759=DIRECTION('',(0.707106781186548,0.,0.707106781186547));
#760=DIRECTION('',(0.,1.,0.));
#761=DIRECTION('',(-0.707106781186548,0.,-0.707106781186547));
#762=DIRECTION('',(0.,-1.,0.));
#763=DIRECTION('',(-0.707106781186547,0.,0.707106781186548));
#764=DIRECTION('',(-0.707106781186548,0.,-0.707106781186547));
#765=DIRECTION('',(0.,-1.,0.));
#766=DIRECTION('',(-0.707106781186547,0.,0.707106781186548));
#767=DIRECTION('',(-0.707106781186548,0.,-0.707106781186547));
#768=DIRECTION('',(0.,-1.,0.));
#769=DIRECTION('',(0.707106781186547,0.,-0.707106781186548));
#770=DIRECTION('',(0.,1.,0.));
#771=DIRECTION('',(0.,0.,1.));
#772=DIRECTION('',(1.,0.,0.));
#773=DIRECTION('',(0.,0.,1.));
#774=DIRECTION('',(1.,0.,0.));
#775=DIRECTION('',(0.,0.,1.));
#776=DIRECTION('',(1.,0.,0.));
#777=DIRECTION('',(-1.,0.,0.));
#778=DIRECTION('',(0.,-1.,0.));
#779=DIRECTION('',(0.,0.,-1.));
#780=DIRECTION('',(0.999999999999999,0.,0.));
#781=DIRECTION('',(-1.,0.,0.));
#782=DIRECTION('',(0.,-1.,0.));
#783=DIRECTION('',(1.,0.,0.));
#784=DIRECTION('',(0.,-1.,0.));
#785=DIRECTION('',(-1.,0.,0.));
#786=DIRECTION('',(0.,0.,-1.));
#787=DIRECTION('',(0.999999999999999,0.,0.));
#788=DIRECTION('',(0.,1.,0.));
#789=DIRECTION('',(0.,0.,-1.));
#790=DIRECTION('',(0.999999999999999,0.,0.));
#791=DIRECTION('',(1.,0.,0.));
#792=DIRECTION('',(0.,0.,1.));
#793=DIRECTION('',(0.999999999999998,0.,0.));
#794=DIRECTION('',(0.,0.,1.));
#795=DIRECTION('',(1.,0.,0.));
#796=DIRECTION('',(0.,0.,1.));
#797=DIRECTION('',(0.,0.,1.));
#798=DIRECTION('',(1.,0.,0.));
#799=DIRECTION('',(0.,0.,1.));
#800=DIRECTION('',(1.,0.,0.));
#801=DIRECTION('',(0.,-1.,0.));
#802=DIRECTION('',(0.,0.,-1.));
#803=DIRECTION('',(0.,0.,1.));
#804=DIRECTION('',(0.,-1.,0.));
#805=DIRECTION('',(0.,0.,1.));
#806=DIRECTION('',(0.,1.,0.));
#807=DIRECTION('',(0.,0.,1.));
#808=DIRECTION('',(0.,-1.,0.));
#809=DIRECTION('',(-1.,0.,0.));
#810=DIRECTION('',(0.,0.,1.));
#811=DIRECTION('',(0.707106781186548,0.,0.707106781186547));
#812=DIRECTION('',(0.,0.,1.));
#813=DIRECTION('',(-1.,0.,0.));
#814=DIRECTION('',(0.,1.,0.));
#815=DIRECTION('',(0.,0.,1.));
#816=DIRECTION('',(0.,0.,-1.));
#817=DIRECTION('',(-1.,0.,0.));
#818=DIRECTION('',(0.,0.,-1.));
#819=DIRECTION('',(-0.999999999999999,0.,0.));
#820=DIRECTION('',(0.,0.,-1.));
#821=DIRECTION('',(-0.999999999999994,0.,0.));
#822=DIRECTION('',(0.,1.,0.));
#823=DIRECTION('',(0.,0.,-1.));
#824=DIRECTION('',(-1.,0.,0.));
#825=DIRECTION('',(0.,0.,1.));
#826=DIRECTION('',(0.,1.,0.));
#827=DIRECTION('',(1.,0.,0.));
#828=DIRECTION('',(0.,0.,-1.));
#829=DIRECTION('',(-0.707106781186548,0.,-0.707106781186547));
#830=DIRECTION('',(0.707106781186547,0.,-0.707106781186548));
#831=DIRECTION('',(0.,1.,0.));
#832=DIRECTION('',(0.,0.,-1.));
#833=DIRECTION('',(-1.,0.,0.));
#834=DIRECTION('',(0.,-1.,0.));
#835=DIRECTION('',(0.,0.,-1.));
#836=DIRECTION('',(1.,0.,0.));
#837=DIRECTION('',(0.,0.,1.));
#838=DIRECTION('',(0.,1.,0.));
#839=DIRECTION('',(0.,0.,1.));
#840=DIRECTION('',(1.,0.,0.));
#841=DIRECTION('',(0.,0.,-1.));
#842=DIRECTION('',(-1.,0.,0.));
#843=DIRECTION('',(0.,-1.,0.));
#844=DIRECTION('',(0.,0.,-1.));
#845=DIRECTION('',(-1.,0.,0.));
#846=DIRECTION('',(-1.,0.,0.));
#847=DIRECTION('',(0.,0.,-1.));
#848=DIRECTION('',(-1.,0.,0.));
#849=DIRECTION('',(0.,1.,0.));
#850=DIRECTION('',(0.,0.,-1.));
#851=DIRECTION('',(-1.,0.,0.));
#852=DIRECTION('',(0.,-1.,0.));
#853=DIRECTION('',(0.,0.,1.));
#854=DIRECTION('',(-0.999999999999999,0.,0.));
#855=DIRECTION('',(0.,0.,1.));
#856=DIRECTION('',(-0.999999999999999,0.,0.));
#857=DIRECTION('',(0.,0.,-1.));
#858=DIRECTION('',(-1.,0.,0.));
#859=DIRECTION('',(0.,0.,-1.));
#860=DIRECTION('',(0.,0.,1.));
#861=DIRECTION('',(1.,0.,0.));
#862=DIRECTION('',(0.,0.,-1.));
#863=DIRECTION('',(0.,0.,1.));
#864=DIRECTION('',(0.999999999999999,0.,0.));
#865=DIRECTION('',(0.,0.,1.));
#866=DIRECTION('',(0.999999999999999,0.,0.));
#867=DIRECTION('',(-1.,0.,0.));
#868=DIRECTION('',(0.,0.,1.));
#869=DIRECTION('',(0.,0.,-1.));
#870=DIRECTION('',(0.,-1.,0.));
#871=DIRECTION('',(0.,0.,-1.));
#872=DIRECTION('',(0.,0.,-1.));
#873=DIRECTION('',(0.,1.,0.));
#874=DIRECTION('',(0.,0.,1.));
#875=DIRECTION('',(-1.,0.,0.));
#876=DIRECTION('',(0.,0.,1.));
#877=DIRECTION('',(0.,0.,-1.));
#878=DIRECTION('',(1.,0.,0.));
#879=DIRECTION('',(0.,0.,1.));
#880=DIRECTION('',(0.,1.,0.));
#881=DIRECTION('',(0.,0.,1.));
#882=DIRECTION('',(0.,-1.,0.));
#883=DIRECTION('',(0.,0.,1.));
#884=DIRECTION('',(0.,0.,-1.));
#885=DIRECTION('',(1.,0.,0.));
#886=DIRECTION('',(0.,0.,-1.));
#887=DIRECTION('',(0.,0.,1.));
#888=DIRECTION('',(-1.,0.,0.));
#889=DIRECTION('',(0.,0.,1.));
#890=DIRECTION('',(-1.,0.,0.));
#891=DIRECTION('',(0.,0.,1.));
#892=DIRECTION('',(-1.,0.,0.));
#893=DIRECTION('',(0.,0.,1.));
#894=DIRECTION('',(-1.,0.,0.));
#895=DIRECTION('',(0.,0.,-1.));
#896=DIRECTION('',(-1.,0.,0.));
#897=DIRECTION('',(0.,0.,1.));
#898=DIRECTION('',(1.,0.,0.));
#899=DIRECTION('',(0.,0.,1.));
#900=DIRECTION('',(1.,0.,0.));
#901=DIRECTION('',(0.,0.,1.));
#902=DIRECTION('',(1.,0.,0.));
#903=DIRECTION('',(0.,0.,1.));
#904=DIRECTION('',(1.,0.,0.));
#905=DIRECTION('',(0.,1.,0.));
#906=DIRECTION('',(0.,0.,1.));
#907=DIRECTION('',(-1.,0.,0.));
#908=DIRECTION('',(0.,0.,1.));
#909=DIRECTION('',(0.,0.,-1.));
#910=DIRECTION('',(1.,0.,0.));
#911=DIRECTION('',(0.,1.,0.));
#912=DIRECTION('',(0.,0.,1.));
#913=DIRECTION('',(0.,0.,-1.));
#914=DIRECTION('',(-0.999999999999999,0.,0.));
#915=DIRECTION('',(0.,0.,-1.));
#916=DIRECTION('',(-0.999999999999994,0.,0.));
#917=DIRECTION('',(0.,0.,1.));
#918=DIRECTION('',(-0.999999999999999,0.,0.));
#919=DIRECTION('',(0.,0.,-1.));
#920=DIRECTION('',(-1.,0.,0.));
#921=DIRECTION('',(0.,0.,1.));
#922=DIRECTION('',(0.999999999999999,0.,0.));
#923=DIRECTION('',(0.,0.,-1.));
#924=DIRECTION('',(0.999999999999994,0.,0.));
#925=DIRECTION('',(0.,0.,-1.));
#926=DIRECTION('',(0.999999999999999,0.,0.));
#927=DIRECTION('',(0.,0.,-1.));
#928=DIRECTION('',(1.,0.,0.));
#929=DIRECTION('',(0.,0.,-1.));
#930=DIRECTION('',(1.,0.,0.));
#931=DIRECTION('',(0.,0.,-1.));
#932=DIRECTION('',(-1.,0.,0.));
#933=DIRECTION('',(0.,0.,-1.));
#934=DIRECTION('',(1.,0.,0.));
#935=DIRECTION('',(0.,0.,-1.));
#936=DIRECTION('',(0.999999999999998,0.,0.));
#937=DIRECTION('',(0.,0.,-1.));
#938=DIRECTION('',(-1.,0.,0.));
#939=DIRECTION('',(0.,0.,-1.));
#940=DIRECTION('',(0.999999999999998,0.,0.));
#941=DIRECTION('',(0.,0.,-1.));
#942=DIRECTION('',(1.,0.,0.));
#943=DIRECTION('',(0.,0.,-1.));
#944=DIRECTION('',(-1.,0.,0.));
#945=DIRECTION('',(0.,0.,-1.));
#946=DIRECTION('',(1.,0.,0.));
#947=CARTESIAN_POINT('',(0.,0.,0.));
#948=CARTESIAN_POINT('',(12.7,158.2,58.));
#949=CARTESIAN_POINT('',(6.00000000000001,161.570459909271,51.3));
#950=CARTESIAN_POINT('',(6.00000000000001,154.829540090729,51.3));
#951=CARTESIAN_POINT('',(6.00000000000001,140.95,51.3));
#952=CARTESIAN_POINT('',(6.00000000000001,206.1,51.3));
#953=CARTESIAN_POINT('',(0.,206.1,45.3));
#954=CARTESIAN_POINT('',(0.,206.1,45.3));
#955=CARTESIAN_POINT('',(0.,140.95,45.3));
#956=CARTESIAN_POINT('',(0.,0.,45.3));
#957=CARTESIAN_POINT('',(69.6750000000001,0.,114.975));
#958=CARTESIAN_POINT('',(6.00000000000001,0.,51.3));
#959=CARTESIAN_POINT('',(6.00000000000001,140.95,51.3));
#960=CARTESIAN_POINT('',(6.00000000000001,68.3232854665196,51.3));
#961=CARTESIAN_POINT('',(14.1,69.6,59.4));
#962=CARTESIAN_POINT('',(6.00000000000001,70.8767145334804,51.3));
#963=CARTESIAN_POINT('',(6.00000000000001,140.95,51.3));
#964=CARTESIAN_POINT('',(6.00000000000001,125.300980486407,51.3));
#965=CARTESIAN_POINT('',(11.5,130.4,56.8));
#966=CARTESIAN_POINT('',(6.00000000000001,135.499019513593,51.3));
#967=CARTESIAN_POINT('',(6.00000000000001,140.95,51.3));
#968=CARTESIAN_POINT('',(0.,140.95,45.3));
#969=CARTESIAN_POINT('',(12.7,158.2,51.3));
#970=CARTESIAN_POINT('',(11.5,130.4,51.3));
#971=CARTESIAN_POINT('',(14.1,69.6,51.3));
#972=CARTESIAN_POINT('',(184.65,0.,51.3));
#973=CARTESIAN_POINT('',(267.5,0.,51.3));
#974=CARTESIAN_POINT('',(267.5,140.95,51.3));
#975=CARTESIAN_POINT('',(267.5,35.3,51.3));
#976=CARTESIAN_POINT('',(278.7,35.3,51.3));
#977=CARTESIAN_POINT('',(278.7,46.5,51.3));
#978=CARTESIAN_POINT('',(184.65,46.5,51.3));
#979=CARTESIAN_POINT('',(369.3,46.5,51.3));
#980=CARTESIAN_POINT('',(369.3,140.95,51.3));
#981=CARTESIAN_POINT('',(369.3,281.9,51.3));
#982=CARTESIAN_POINT('',(184.65,281.9,51.3));
#983=CARTESIAN_POINT('',(6.00000000000001,281.9,51.3));
#984=CARTESIAN_POINT('',(6.00000000000001,140.95,51.3));
#985=CARTESIAN_POINT('',(6.00000000000001,268.1,51.3));
#986=CARTESIAN_POINT('',(184.65,268.1,51.3));
#987=CARTESIAN_POINT('',(88.6,268.1,51.3));
#988=CARTESIAN_POINT('',(88.6,262.,51.3));
#989=CARTESIAN_POINT('',(94.7,262.,51.3));
#990=CARTESIAN_POINT('',(94.7,140.95,51.3));
#991=CARTESIAN_POINT('',(94.7,212.2,51.3));
#992=CARTESIAN_POINT('',(88.6,212.2,51.3));
#993=CARTESIAN_POINT('',(88.6,206.1,51.3));
#994=CARTESIAN_POINT('',(184.65,206.1,51.3));
#995=CARTESIAN_POINT('',(252.,33.1,51.3));
#996=CARTESIAN_POINT('',(255.6,33.1,51.3));
#997=CARTESIAN_POINT('',(184.65,140.95,51.3));
#998=CARTESIAN_POINT('',(267.5,0.,43.4));
#999=CARTESIAN_POINT('',(267.5,0.,43.4));
#1000=CARTESIAN_POINT('',(0.,0.,0.));
#1001=CARTESIAN_POINT('',(0.,0.,0.));
#1002=CARTESIAN_POINT('',(184.65,0.,0.));
#1003=CARTESIAN_POINT('',(369.3,0.,0.));
#1004=CARTESIAN_POINT('',(369.3,0.,0.));
#1005=CARTESIAN_POINT('',(369.3,0.,43.4));
#1006=CARTESIAN_POINT('',(318.4,0.,43.4));
#1007=CARTESIAN_POINT('',(184.65,0.,0.));
#1008=CARTESIAN_POINT('',(0.,206.1,38.));
#1009=CARTESIAN_POINT('',(0.,206.1,38.));
#1010=CARTESIAN_POINT('',(0.,237.1,38.));
#1011=CARTESIAN_POINT('',(0.,268.1,38.));
#1012=CARTESIAN_POINT('',(0.,268.1,38.));
#1013=CARTESIAN_POINT('',(0.,268.1,45.3));
#1014=CARTESIAN_POINT('',(0.,140.95,45.3));
#1015=CARTESIAN_POINT('',(0.,281.9,45.3));
#1016=CARTESIAN_POINT('',(0.,281.9,0.));
#1017=CARTESIAN_POINT('',(0.,281.9,0.));
#1018=CARTESIAN_POINT('',(0.,140.95,0.));
#1019=CARTESIAN_POINT('',(0.,140.95,0.));
#1020=CARTESIAN_POINT('',(69.6750000000001,281.9,114.975));
#1021=CARTESIAN_POINT('',(369.3,281.9,0.));
#1022=CARTESIAN_POINT('',(369.3,281.9,0.));
#1023=CARTESIAN_POINT('',(184.65,281.9,0.));
#1024=CARTESIAN_POINT('',(184.65,281.9,0.));
#1025=CARTESIAN_POINT('',(11.5,130.4,0.));
#1026=CARTESIAN_POINT('',(4.,130.4,0.));
#1027=CARTESIAN_POINT('',(334.6,32.4,0.));
#1028=CARTESIAN_POINT('',(324.95,32.4,0.));
#1029=CARTESIAN_POINT('',(272.,26.7,0.));
#1030=CARTESIAN_POINT('',(267.75,26.7,0.));
#1031=CARTESIAN_POINT('',(369.3,140.95,0.));
#1032=CARTESIAN_POINT('',(184.65,140.95,0.));
#1033=CARTESIAN_POINT('',(369.3,46.5,43.4));
#1034=CARTESIAN_POINT('',(369.3,46.5,43.4));
#1035=CARTESIAN_POINT('',(369.3,23.25,43.4));
#1036=CARTESIAN_POINT('',(369.3,140.95,0.));
#1037=CARTESIAN_POINT('',(0.,268.1,45.3));
#1038=CARTESIAN_POINT('',(0.,140.95,45.3));
#1039=CARTESIAN_POINT('',(88.6,206.1,38.));
#1040=CARTESIAN_POINT('',(88.6,206.1,38.));
#1041=CARTESIAN_POINT('',(47.35,206.1,38.));
#1042=CARTESIAN_POINT('',(47.35,206.1,38.));
#1043=CARTESIAN_POINT('',(47.35,268.1,38.));
#1044=CARTESIAN_POINT('',(88.6,268.1,38.));
#1045=CARTESIAN_POINT('',(88.6,268.1,51.3));
#1046=CARTESIAN_POINT('',(47.35,268.1,38.));
#1047=CARTESIAN_POINT('',(47.35,248.1,38.));
#1048=CARTESIAN_POINT('',(35.8,248.1,38.));
#1049=CARTESIAN_POINT('',(58.,248.1,38.));
#1050=CARTESIAN_POINT('',(58.,236.2,38.));
#1051=CARTESIAN_POINT('',(69.9,236.2,38.));
#1052=CARTESIAN_POINT('',(69.9,237.1,38.));
#1053=CARTESIAN_POINT('',(69.9,229.6,38.));
#1054=CARTESIAN_POINT('',(58.,229.6,38.));
#1055=CARTESIAN_POINT('',(58.,217.7,38.));
#1056=CARTESIAN_POINT('',(47.35,217.7,38.));
#1057=CARTESIAN_POINT('',(35.8,217.7,38.));
#1058=CARTESIAN_POINT('',(35.8,229.6,38.));
#1059=CARTESIAN_POINT('',(23.9,229.6,38.));
#1060=CARTESIAN_POINT('',(23.9,237.1,38.));
#1061=CARTESIAN_POINT('',(23.9,236.2,38.));
#1062=CARTESIAN_POINT('',(35.8,236.2,38.));
#1063=CARTESIAN_POINT('',(94.7,237.1,38.));
#1064=CARTESIAN_POINT('',(94.7,262.,38.));
#1065=CARTESIAN_POINT('',(94.7,212.2,38.));
#1066=CARTESIAN_POINT('',(88.6,262.,38.));
#1067=CARTESIAN_POINT('',(88.6,212.2,38.));
#1068=CARTESIAN_POINT('',(47.35,237.1,38.));
#1069=CARTESIAN_POINT('',(94.7,262.,38.));
#1070=CARTESIAN_POINT('',(94.7,212.2,51.3));
#1071=CARTESIAN_POINT('',(94.7,237.1,38.));
#1072=CARTESIAN_POINT('',(88.6,262.,38.));
#1073=CARTESIAN_POINT('',(88.6,212.2,38.));
#1074=CARTESIAN_POINT('',(46.9,217.7,18.));
#1075=CARTESIAN_POINT('',(58.,217.7,18.));
#1076=CARTESIAN_POINT('',(35.8,217.7,18.));
#1077=CARTESIAN_POINT('',(35.8,217.7,38.));
#1078=CARTESIAN_POINT('',(58.,217.7,18.));
#1079=CARTESIAN_POINT('',(46.9,217.7,18.));
#1080=CARTESIAN_POINT('',(23.9,229.6,18.));
#1081=CARTESIAN_POINT('',(23.9,229.6,18.));
#1082=CARTESIAN_POINT('',(23.9,232.9,18.));
#1083=CARTESIAN_POINT('',(23.9,236.2,18.));
#1084=CARTESIAN_POINT('',(23.9,236.2,38.));
#1085=CARTESIAN_POINT('',(23.9,232.9,18.));
#1086=CARTESIAN_POINT('',(35.8,248.1,18.));
#1087=CARTESIAN_POINT('',(35.8,248.1,18.));
#1088=CARTESIAN_POINT('',(46.9,248.1,18.));
#1089=CARTESIAN_POINT('',(58.,248.1,18.));
#1090=CARTESIAN_POINT('',(58.,248.1,38.));
#1091=CARTESIAN_POINT('',(46.9,248.1,18.));
#1092=CARTESIAN_POINT('',(69.9,232.9,18.));
#1093=CARTESIAN_POINT('',(69.9,236.2,18.));
#1094=CARTESIAN_POINT('',(69.9,229.6,18.));
#1095=CARTESIAN_POINT('',(69.9,229.6,38.));
#1096=CARTESIAN_POINT('',(69.9,236.2,18.));
#1097=CARTESIAN_POINT('',(69.9,232.9,18.));
#1098=CARTESIAN_POINT('',(35.8,229.6,18.));
#1099=CARTESIAN_POINT('',(58.,229.6,18.));
#1100=CARTESIAN_POINT('',(58.,236.2,18.));
#1101=CARTESIAN_POINT('',(35.8,236.2,18.));
#1102=CARTESIAN_POINT('',(46.9,232.9,18.));
#1103=CARTESIAN_POINT('',(35.8,229.6,18.));
#1104=CARTESIAN_POINT('',(58.,229.6,18.));
#1105=CARTESIAN_POINT('',(35.8,236.2,18.));
#1106=CARTESIAN_POINT('',(58.,236.2,18.));
#1107=CARTESIAN_POINT('',(267.5,23.25,43.4));
#1108=CARTESIAN_POINT('',(267.5,35.3,43.4));
#1109=CARTESIAN_POINT('',(267.5,35.3,51.3));
#1110=CARTESIAN_POINT('',(267.5,23.25,43.4));
#1111=CARTESIAN_POINT('',(278.7,46.5,43.4));
#1112=CARTESIAN_POINT('',(278.7,46.5,43.4));
#1113=CARTESIAN_POINT('',(318.4,46.5,43.4));
#1114=CARTESIAN_POINT('',(318.4,46.5,43.4));
#1115=CARTESIAN_POINT('',(334.6,32.4,43.4));
#1116=CARTESIAN_POINT('',(324.95,32.4,43.4));
#1117=CARTESIAN_POINT('',(272.,26.7,43.4));
#1118=CARTESIAN_POINT('',(267.75,26.7,43.4));
#1119=CARTESIAN_POINT('',(278.7,35.3,43.4));
#1120=CARTESIAN_POINT('',(318.4,23.25,43.4));
#1121=CARTESIAN_POINT('',(278.7,35.3,43.4));
#1122=CARTESIAN_POINT('',(272.,26.7,51.35));
#1123=CARTESIAN_POINT('',(334.6,32.4,51.35));
#1124=CARTESIAN_POINT('',(11.5,130.4,51.35));
#1125=CARTESIAN_POINT('',(14.1,69.6,18.3));
#1126=CARTESIAN_POINT('',(22.3,69.6,18.3));
#1127=CARTESIAN_POINT('',(14.1,69.6,18.3));
#1128=CARTESIAN_POINT('',(14.1,69.6,51.35));
#1129=CARTESIAN_POINT('',(252.,33.1,38.1));
#1130=CARTESIAN_POINT('',(255.6,33.1,38.1));
#1131=CARTESIAN_POINT('',(252.,33.1,38.1));
#1132=CARTESIAN_POINT('',(252.,33.1,51.35));
#1133=CARTESIAN_POINT('',(12.7,158.2,32.));
#1134=CARTESIAN_POINT('',(20.2,158.2,32.));
#1135=CARTESIAN_POINT('',(12.7,158.2,32.));
#1136=CARTESIAN_POINT('',(12.7,158.2,51.35));
#1137=MECHANICAL_DESIGN_GEOMETRIC_PRESENTATION_REPRESENTATION('',(#24),
#1138);
#1138=(
GEOMETRIC_REPRESENTATION_CONTEXT(3)
GLOBAL_UNCERTAINTY_ASSIGNED_CONTEXT((#1139))
GLOBAL_UNIT_ASSIGNED_CONTEXT((#1145,#1141,#1140))
REPRESENTATION_CONTEXT('featured_part_05936','TOP_LEVEL_ASSEMBLY_PART')
);
#1139=UNCERTAINTY_MEASURE_WITH_UNIT(LENGTH_MEASURE(2.E-5),#1145,
'DISTANCE_ACCURACY_VALUE','Maximum Tolerance applied to model');
#1140=(
NAMED_UNIT(*)
SI_UNIT($,.STERADIAN.)
SOLID_ANGLE_UNIT()
);
#1141=(
CONVERSION_BASED_UNIT('DEGREE',#1143)
NAMED_UNIT(#1142)
PLANE_ANGLE_UNIT()
);
#1142=DIMENSIONAL_EXPONENTS(0.,0.,0.,0.,0.,0.,0.);
#1143=PLANE_ANGLE_MEASURE_WITH_UNIT(PLANE_ANGLE_MEASURE(0.0174532925),#1144);
#1144=(
NAMED_UNIT(*)
PLANE_ANGLE_UNIT()
SI_UNIT($,.RADIAN.)
);
#1145=(
LENGTH_UNIT()
NAMED_UNIT(*)
SI_UNIT(.MILLI.,.METRE.)
);
ENDSEC;
END-ISO-10303-21;
