ISO-10303-21;
HEADER;
/* Generated by software containing ST-Developer
 * from STEP Tools, Inc. (www.steptools.com) 
 */
/* OPTION: using custom schema-name function */

FILE_DESCRIPTION(
/* description */ (''),
/* implementation_level */ '2;1');

FILE_NAME(
/* name */ 'featured_part_10795.stp',
/* time_stamp */ '2026-07-12T09:01:51-04:00',
/* author */ (''),
/* organization */ (''),
/* preprocessor_version */ 'ST-DEVELOPER v20.1',
/* originating_system */ 'SIEMENS PLM Software NX2512.6002',
/* authorisation */ '');

FILE_SCHEMA (('AUTOMOTIVE_DESIGN { 1 0 10303 214 3 1 1 1 }'));
ENDSEC;

DATA;
#10=SHAPE_REPRESENTATION_RELATIONSHIP('None',
'relationship between featured_part_10795-None and featured_part_10795
-None',#22,#11);
#11=ADVANCED_BREP_SHAPE_REPRESENTATION('featured_part_10795-None',(#32),
#702);
#12=SHAPE_DEFINITION_REPRESENTATION(#13,#22);
#13=PRODUCT_DEFINITION_SHAPE('','',#14);
#14=PRODUCT_DEFINITION(' ','',#16,#15);
#15=PRODUCT_DEFINITION_CONTEXT('part definition',#21,'design');
#16=PRODUCT_DEFINITION_FORMATION_WITH_SPECIFIED_SOURCE(' ',' ',#18,
 .NOT_KNOWN.);
#17=PRODUCT_RELATED_PRODUCT_CATEGORY('part','',(#18));
#18=PRODUCT('featured_part_10795','featured_part_10795',' ',(#19));
#19=PRODUCT_CONTEXT(' ',#21,'mechanical');
#20=APPLICATION_PROTOCOL_DEFINITION('international standard',
'automotive_design',2010,#21);
#21=APPLICATION_CONTEXT(
'core data for automotive mechanical design processes');
#22=SHAPE_REPRESENTATION('featured_part_10795-None',(#430),#702);
#23=PRESENTATION_LAYER_ASSIGNMENT('1','Layer 1',(#32));
#24=STYLED_ITEM('',(#25),#32);
#25=PRESENTATION_STYLE_ASSIGNMENT((#26));
#26=SURFACE_STYLE_USAGE(.BOTH.,#27);
#27=SURFACE_SIDE_STYLE('',(#28));
#28=SURFACE_STYLE_FILL_AREA(#29);
#29=FILL_AREA_STYLE('',(#30));
#30=FILL_AREA_STYLE_COLOUR('',#31);
#31=COLOUR_RGB('medium steel',0.611764705882353,0.658823529411765,0.670588235294118);
#32=MANIFOLD_SOLID_BREP('',#33);
#33=CLOSED_SHELL('',(#62,#63,#64,#65,#66,#67,#68,#69,#70,#71,#72,#73,#74,
#75,#76,#77,#78,#79,#80,#81,#82,#83,#84));
#34=CYLINDRICAL_SURFACE('',#458,9.2);
#35=CYLINDRICAL_SURFACE('',#459,9.2);
#36=CYLINDRICAL_SURFACE('',#460,9.2);
#37=CYLINDRICAL_SURFACE('',#461,9.2);
#38=CYLINDRICAL_SURFACE('',#464,8.1);
#39=CYLINDRICAL_SURFACE('',#467,8.1);
#40=ELLIPSE('',#446,11.4551298552221,8.1);
#41=ELLIPSE('',#447,11.4551298552221,8.1);
#42=FACE_OUTER_BOUND('',#110,.T.);
#43=FACE_OUTER_BOUND('',#111,.T.);
#44=FACE_OUTER_BOUND('',#112,.T.);
#45=FACE_OUTER_BOUND('',#113,.T.);
#46=FACE_OUTER_BOUND('',#114,.T.);
#47=FACE_OUTER_BOUND('',#115,.T.);
#48=FACE_OUTER_BOUND('',#116,.T.);
#49=FACE_OUTER_BOUND('',#117,.T.);
#50=FACE_OUTER_BOUND('',#118,.T.);
#51=FACE_OUTER_BOUND('',#119,.T.);
#52=FACE_OUTER_BOUND('',#120,.T.);
#53=FACE_OUTER_BOUND('',#121,.T.);
#54=FACE_OUTER_BOUND('',#122,.T.);
#55=FACE_OUTER_BOUND('',#123,.T.);
#56=FACE_OUTER_BOUND('',#124,.T.);
#57=FACE_OUTER_BOUND('',#125,.T.);
#58=FACE_OUTER_BOUND('',#126,.T.);
#59=FACE_OUTER_BOUND('',#127,.T.);
#60=FACE_OUTER_BOUND('',#128,.T.);
#61=FACE_OUTER_BOUND('',#131,.T.);
#62=ADVANCED_FACE('',(#102,#103),#85,.T.);
#63=ADVANCED_FACE('',(#42),#86,.T.);
#64=ADVANCED_FACE('',(#43),#87,.T.);
#65=ADVANCED_FACE('',(#44),#88,.T.);
#66=ADVANCED_FACE('',(#45),#89,.T.);
#67=ADVANCED_FACE('',(#46),#90,.T.);
#68=ADVANCED_FACE('',(#47),#91,.F.);
#69=ADVANCED_FACE('',(#48),#92,.F.);
#70=ADVANCED_FACE('',(#49),#93,.F.);
#71=ADVANCED_FACE('',(#50),#94,.F.);
#72=ADVANCED_FACE('',(#51),#95,.F.);
#73=ADVANCED_FACE('',(#52),#96,.F.);
#74=ADVANCED_FACE('',(#53),#97,.F.);
#75=ADVANCED_FACE('',(#54),#98,.F.);
#76=ADVANCED_FACE('',(#55),#99,.F.);
#77=ADVANCED_FACE('',(#56),#34,.F.);
#78=ADVANCED_FACE('',(#57),#35,.F.);
#79=ADVANCED_FACE('',(#58),#36,.F.);
#80=ADVANCED_FACE('',(#59),#37,.F.);
#81=ADVANCED_FACE('',(#60),#100,.F.);
#82=ADVANCED_FACE('',(#104,#105),#38,.F.);
#83=ADVANCED_FACE('',(#61),#101,.F.);
#84=ADVANCED_FACE('',(#106,#107),#39,.F.);
#85=PLANE('',#437);
#86=PLANE('',#438);
#87=PLANE('',#439);
#88=PLANE('',#440);
#89=PLANE('',#441);
#90=PLANE('',#442);
#91=PLANE('',#443);
#92=PLANE('',#444);
#93=PLANE('',#445);
#94=PLANE('',#448);
#95=PLANE('',#449);
#96=PLANE('',#450);
#97=PLANE('',#451);
#98=PLANE('',#456);
#99=PLANE('',#457);
#100=PLANE('',#463);
#101=PLANE('',#466);
#102=FACE_BOUND('',#108,.T.);
#103=FACE_BOUND('',#109,.T.);
#104=FACE_BOUND('',#129,.T.);
#105=FACE_BOUND('',#130,.T.);
#106=FACE_BOUND('',#132,.T.);
#107=FACE_BOUND('',#133,.T.);
#108=EDGE_LOOP('',(#216,#217,#218,#219,#220,#221,#222,#223));
#109=EDGE_LOOP('',(#224,#225,#226,#227,#228,#229,#230,#231));
#110=EDGE_LOOP('',(#232,#233,#234,#235,#236));
#111=EDGE_LOOP('',(#237,#238,#239,#240));
#112=EDGE_LOOP('',(#241,#242,#243,#244,#245,#246));
#113=EDGE_LOOP('',(#247,#248,#249,#250));
#114=EDGE_LOOP('',(#251,#252,#253,#254));
#115=EDGE_LOOP('',(#255,#256,#257,#258));
#116=EDGE_LOOP('',(#259,#260,#261,#262,#263,#264));
#117=EDGE_LOOP('',(#265,#266,#267,#268));
#118=EDGE_LOOP('',(#269,#270,#271,#272,#273,#274,#275,#276,#277));
#119=EDGE_LOOP('',(#278,#279,#280,#281));
#120=EDGE_LOOP('',(#282,#283,#284,#285));
#121=EDGE_LOOP('',(#286,#287,#288,#289));
#122=EDGE_LOOP('',(#290,#291,#292,#293,#294,#295,#296,#297));
#123=EDGE_LOOP('',(#298,#299,#300,#301));
#124=EDGE_LOOP('',(#302,#303,#304,#305));
#125=EDGE_LOOP('',(#306,#307,#308,#309));
#126=EDGE_LOOP('',(#310,#311,#312,#313));
#127=EDGE_LOOP('',(#314,#315,#316,#317));
#128=EDGE_LOOP('',(#318));
#129=EDGE_LOOP('',(#319,#320));
#130=EDGE_LOOP('',(#321));
#131=EDGE_LOOP('',(#322));
#132=EDGE_LOOP('',(#323,#324));
#133=EDGE_LOOP('',(#325));
#134=LINE('',#589,#175);
#135=LINE('',#591,#176);
#136=LINE('',#593,#177);
#137=LINE('',#595,#178);
#138=LINE('',#597,#179);
#139=LINE('',#601,#180);
#140=LINE('',#602,#181);
#141=LINE('',#607,#182);
#142=LINE('',#611,#183);
#143=LINE('',#615,#184);
#144=LINE('',#619,#185);
#145=LINE('',#622,#186);
#146=LINE('',#624,#187);
#147=LINE('',#626,#188);
#148=LINE('',#628,#189);
#149=LINE('',#630,#190);
#150=LINE('',#632,#191);
#151=LINE('',#634,#192);
#152=LINE('',#636,#193);
#153=LINE('',#639,#194);
#154=LINE('',#641,#195);
#155=LINE('',#643,#196);
#156=LINE('',#644,#197);
#157=LINE('',#646,#198);
#158=LINE('',#648,#199);
#159=LINE('',#650,#200);
#160=LINE('',#651,#201);
#161=LINE('',#653,#202);
#162=LINE('',#655,#203);
#163=LINE('',#660,#204);
#164=LINE('',#663,#205);
#165=LINE('',#664,#206);
#166=LINE('',#666,#207);
#167=LINE('',#668,#208);
#168=LINE('',#670,#209);
#169=LINE('',#672,#210);
#170=LINE('',#675,#211);
#171=LINE('',#676,#212);
#172=LINE('',#681,#213);
#173=LINE('',#686,#214);
#174=LINE('',#687,#215);
#175=VECTOR('',#472,1.);
#176=VECTOR('',#473,1.);
#177=VECTOR('',#474,1.);
#178=VECTOR('',#475,1.);
#179=VECTOR('',#476,1.);
#180=VECTOR('',#479,1.);
#181=VECTOR('',#480,1.);
#182=VECTOR('',#483,1.);
#183=VECTOR('',#486,1.);
#184=VECTOR('',#489,1.);
#185=VECTOR('',#494,1.);
#186=VECTOR('',#495,1.);
#187=VECTOR('',#496,1.);
#188=VECTOR('',#497,1.);
#189=VECTOR('',#498,1.);
#190=VECTOR('',#501,1.);
#191=VECTOR('',#502,1.);
#192=VECTOR('',#503,1.);
#193=VECTOR('',#506,1.);
#194=VECTOR('',#507,1.);
#195=VECTOR('',#508,1.);
#196=VECTOR('',#509,1.);
#197=VECTOR('',#510,1.);
#198=VECTOR('',#513,1.);
#199=VECTOR('',#516,1.);
#200=VECTOR('',#519,1.);
#201=VECTOR('',#520,1.);
#202=VECTOR('',#523,1.);
#203=VECTOR('',#526,1.);
#204=VECTOR('',#535,1.);
#205=VECTOR('',#536,1.);
#206=VECTOR('',#537,1.);
#207=VECTOR('',#540,1.);
#208=VECTOR('',#541,1.);
#209=VECTOR('',#542,1.);
#210=VECTOR('',#545,1.);
#211=VECTOR('',#546,1.);
#212=VECTOR('',#547,1.);
#213=VECTOR('',#554,1.);
#214=VECTOR('',#561,1.);
#215=VECTOR('',#562,1.);
#216=ORIENTED_EDGE('',*,*,#363,.F.);
#217=ORIENTED_EDGE('',*,*,#364,.T.);
#218=ORIENTED_EDGE('',*,*,#365,.T.);
#219=ORIENTED_EDGE('',*,*,#366,.T.);
#220=ORIENTED_EDGE('',*,*,#367,.T.);
#221=ORIENTED_EDGE('',*,*,#368,.T.);
#222=ORIENTED_EDGE('',*,*,#369,.F.);
#223=ORIENTED_EDGE('',*,*,#370,.T.);
#224=ORIENTED_EDGE('',*,*,#371,.F.);
#225=ORIENTED_EDGE('',*,*,#372,.T.);
#226=ORIENTED_EDGE('',*,*,#373,.F.);
#227=ORIENTED_EDGE('',*,*,#374,.T.);
#228=ORIENTED_EDGE('',*,*,#375,.F.);
#229=ORIENTED_EDGE('',*,*,#376,.T.);
#230=ORIENTED_EDGE('',*,*,#377,.F.);
#231=ORIENTED_EDGE('',*,*,#378,.T.);
#232=ORIENTED_EDGE('',*,*,#379,.T.);
#233=ORIENTED_EDGE('',*,*,#380,.T.);
#234=ORIENTED_EDGE('',*,*,#381,.F.);
#235=ORIENTED_EDGE('',*,*,#382,.T.);
#236=ORIENTED_EDGE('',*,*,#383,.T.);
#237=ORIENTED_EDGE('',*,*,#381,.T.);
#238=ORIENTED_EDGE('',*,*,#384,.T.);
#239=ORIENTED_EDGE('',*,*,#385,.F.);
#240=ORIENTED_EDGE('',*,*,#386,.T.);
#241=ORIENTED_EDGE('',*,*,#387,.T.);
#242=ORIENTED_EDGE('',*,*,#388,.T.);
#243=ORIENTED_EDGE('',*,*,#389,.F.);
#244=ORIENTED_EDGE('',*,*,#390,.T.);
#245=ORIENTED_EDGE('',*,*,#385,.T.);
#246=ORIENTED_EDGE('',*,*,#391,.T.);
#247=ORIENTED_EDGE('',*,*,#392,.F.);
#248=ORIENTED_EDGE('',*,*,#382,.F.);
#249=ORIENTED_EDGE('',*,*,#386,.F.);
#250=ORIENTED_EDGE('',*,*,#390,.F.);
#251=ORIENTED_EDGE('',*,*,#389,.T.);
#252=ORIENTED_EDGE('',*,*,#393,.T.);
#253=ORIENTED_EDGE('',*,*,#383,.F.);
#254=ORIENTED_EDGE('',*,*,#392,.T.);
#255=ORIENTED_EDGE('',*,*,#379,.F.);
#256=ORIENTED_EDGE('',*,*,#394,.T.);
#257=ORIENTED_EDGE('',*,*,#367,.F.);
#258=ORIENTED_EDGE('',*,*,#395,.T.);
#259=ORIENTED_EDGE('',*,*,#366,.F.);
#260=ORIENTED_EDGE('',*,*,#396,.T.);
#261=ORIENTED_EDGE('',*,*,#391,.F.);
#262=ORIENTED_EDGE('',*,*,#384,.F.);
#263=ORIENTED_EDGE('',*,*,#380,.F.);
#264=ORIENTED_EDGE('',*,*,#395,.F.);
#265=ORIENTED_EDGE('',*,*,#365,.F.);
#266=ORIENTED_EDGE('',*,*,#397,.T.);
#267=ORIENTED_EDGE('',*,*,#387,.F.);
#268=ORIENTED_EDGE('',*,*,#396,.F.);
#269=ORIENTED_EDGE('',*,*,#398,.F.);
#270=ORIENTED_EDGE('',*,*,#370,.F.);
#271=ORIENTED_EDGE('',*,*,#399,.F.);
#272=ORIENTED_EDGE('',*,*,#368,.F.);
#273=ORIENTED_EDGE('',*,*,#394,.F.);
#274=ORIENTED_EDGE('',*,*,#393,.F.);
#275=ORIENTED_EDGE('',*,*,#388,.F.);
#276=ORIENTED_EDGE('',*,*,#397,.F.);
#277=ORIENTED_EDGE('',*,*,#364,.F.);
#278=ORIENTED_EDGE('',*,*,#400,.T.);
#279=ORIENTED_EDGE('',*,*,#401,.T.);
#280=ORIENTED_EDGE('',*,*,#371,.T.);
#281=ORIENTED_EDGE('',*,*,#402,.T.);
#282=ORIENTED_EDGE('',*,*,#373,.T.);
#283=ORIENTED_EDGE('',*,*,#403,.T.);
#284=ORIENTED_EDGE('',*,*,#404,.T.);
#285=ORIENTED_EDGE('',*,*,#405,.T.);
#286=ORIENTED_EDGE('',*,*,#406,.T.);
#287=ORIENTED_EDGE('',*,*,#407,.T.);
#288=ORIENTED_EDGE('',*,*,#375,.T.);
#289=ORIENTED_EDGE('',*,*,#408,.T.);
#290=ORIENTED_EDGE('',*,*,#404,.F.);
#291=ORIENTED_EDGE('',*,*,#409,.T.);
#292=ORIENTED_EDGE('',*,*,#400,.F.);
#293=ORIENTED_EDGE('',*,*,#410,.T.);
#294=ORIENTED_EDGE('',*,*,#411,.F.);
#295=ORIENTED_EDGE('',*,*,#412,.T.);
#296=ORIENTED_EDGE('',*,*,#406,.F.);
#297=ORIENTED_EDGE('',*,*,#413,.T.);
#298=ORIENTED_EDGE('',*,*,#411,.T.);
#299=ORIENTED_EDGE('',*,*,#414,.T.);
#300=ORIENTED_EDGE('',*,*,#377,.T.);
#301=ORIENTED_EDGE('',*,*,#415,.T.);
#302=ORIENTED_EDGE('',*,*,#372,.F.);
#303=ORIENTED_EDGE('',*,*,#401,.F.);
#304=ORIENTED_EDGE('',*,*,#409,.F.);
#305=ORIENTED_EDGE('',*,*,#403,.F.);
#306=ORIENTED_EDGE('',*,*,#378,.F.);
#307=ORIENTED_EDGE('',*,*,#414,.F.);
#308=ORIENTED_EDGE('',*,*,#410,.F.);
#309=ORIENTED_EDGE('',*,*,#402,.F.);
#310=ORIENTED_EDGE('',*,*,#376,.F.);
#311=ORIENTED_EDGE('',*,*,#407,.F.);
#312=ORIENTED_EDGE('',*,*,#412,.F.);
#313=ORIENTED_EDGE('',*,*,#415,.F.);
#314=ORIENTED_EDGE('',*,*,#374,.F.);
#315=ORIENTED_EDGE('',*,*,#405,.F.);
#316=ORIENTED_EDGE('',*,*,#413,.F.);
#317=ORIENTED_EDGE('',*,*,#408,.F.);
#318=ORIENTED_EDGE('',*,*,#416,.F.);
#319=ORIENTED_EDGE('',*,*,#369,.T.);
#320=ORIENTED_EDGE('',*,*,#399,.T.);
#321=ORIENTED_EDGE('',*,*,#416,.T.);
#322=ORIENTED_EDGE('',*,*,#417,.F.);
#323=ORIENTED_EDGE('',*,*,#363,.T.);
#324=ORIENTED_EDGE('',*,*,#398,.T.);
#325=ORIENTED_EDGE('',*,*,#417,.T.);
#326=VERTEX_POINT('',#587);
#327=VERTEX_POINT('',#588);
#328=VERTEX_POINT('',#590);
#329=VERTEX_POINT('',#592);
#330=VERTEX_POINT('',#594);
#331=VERTEX_POINT('',#596);
#332=VERTEX_POINT('',#598);
#333=VERTEX_POINT('',#600);
#334=VERTEX_POINT('',#603);
#335=VERTEX_POINT('',#604);
#336=VERTEX_POINT('',#606);
#337=VERTEX_POINT('',#608);
#338=VERTEX_POINT('',#610);
#339=VERTEX_POINT('',#612);
#340=VERTEX_POINT('',#614);
#341=VERTEX_POINT('',#616);
#342=VERTEX_POINT('',#620);
#343=VERTEX_POINT('',#621);
#344=VERTEX_POINT('',#623);
#345=VERTEX_POINT('',#625);
#346=VERTEX_POINT('',#627);
#347=VERTEX_POINT('',#631);
#348=VERTEX_POINT('',#633);
#349=VERTEX_POINT('',#637);
#350=VERTEX_POINT('',#638);
#351=VERTEX_POINT('',#640);
#352=VERTEX_POINT('',#642);
#353=VERTEX_POINT('',#661);
#354=VERTEX_POINT('',#662);
#355=VERTEX_POINT('',#667);
#356=VERTEX_POINT('',#669);
#357=VERTEX_POINT('',#673);
#358=VERTEX_POINT('',#674);
#359=VERTEX_POINT('',#680);
#360=VERTEX_POINT('',#682);
#361=VERTEX_POINT('',#694);
#362=VERTEX_POINT('',#698);
#363=EDGE_CURVE('',#326,#327,#418,.T.);
#364=EDGE_CURVE('',#326,#328,#134,.T.);
#365=EDGE_CURVE('',#328,#329,#135,.T.);
#366=EDGE_CURVE('',#329,#330,#136,.T.);
#367=EDGE_CURVE('',#330,#331,#137,.T.);
#368=EDGE_CURVE('',#331,#332,#138,.T.);
#369=EDGE_CURVE('',#333,#332,#419,.T.);
#370=EDGE_CURVE('',#333,#327,#139,.T.);
#371=EDGE_CURVE('',#334,#335,#140,.T.);
#372=EDGE_CURVE('',#334,#336,#420,.T.);
#373=EDGE_CURVE('',#337,#336,#141,.T.);
#374=EDGE_CURVE('',#337,#338,#421,.T.);
#375=EDGE_CURVE('',#339,#338,#142,.T.);
#376=EDGE_CURVE('',#339,#340,#422,.T.);
#377=EDGE_CURVE('',#341,#340,#143,.T.);
#378=EDGE_CURVE('',#341,#335,#423,.T.);
#379=EDGE_CURVE('',#342,#343,#144,.T.);
#380=EDGE_CURVE('',#343,#344,#145,.T.);
#381=EDGE_CURVE('',#345,#344,#146,.T.);
#382=EDGE_CURVE('',#345,#346,#147,.T.);
#383=EDGE_CURVE('',#346,#342,#148,.T.);
#384=EDGE_CURVE('',#344,#347,#149,.T.);
#385=EDGE_CURVE('',#348,#347,#150,.T.);
#386=EDGE_CURVE('',#348,#345,#151,.T.);
#387=EDGE_CURVE('',#349,#350,#152,.T.);
#388=EDGE_CURVE('',#350,#351,#153,.T.);
#389=EDGE_CURVE('',#352,#351,#154,.T.);
#390=EDGE_CURVE('',#352,#348,#155,.T.);
#391=EDGE_CURVE('',#347,#349,#156,.T.);
#392=EDGE_CURVE('',#346,#352,#157,.T.);
#393=EDGE_CURVE('',#351,#342,#158,.T.);
#394=EDGE_CURVE('',#342,#331,#159,.T.);
#395=EDGE_CURVE('',#330,#343,#160,.T.);
#396=EDGE_CURVE('',#329,#349,#161,.T.);
#397=EDGE_CURVE('',#328,#350,#162,.T.);
#398=EDGE_CURVE('',#327,#326,#40,.T.);
#399=EDGE_CURVE('',#332,#333,#41,.T.);
#400=EDGE_CURVE('',#353,#354,#163,.T.);
#401=EDGE_CURVE('',#354,#334,#164,.T.);
#402=EDGE_CURVE('',#335,#353,#165,.T.);
#403=EDGE_CURVE('',#336,#355,#166,.T.);
#404=EDGE_CURVE('',#355,#356,#167,.T.);
#405=EDGE_CURVE('',#356,#337,#168,.T.);
#406=EDGE_CURVE('',#357,#358,#169,.T.);
#407=EDGE_CURVE('',#358,#339,#170,.T.);
#408=EDGE_CURVE('',#338,#357,#171,.T.);
#409=EDGE_CURVE('',#355,#354,#424,.T.);
#410=EDGE_CURVE('',#353,#359,#425,.T.);
#411=EDGE_CURVE('',#360,#359,#172,.T.);
#412=EDGE_CURVE('',#360,#358,#426,.T.);
#413=EDGE_CURVE('',#357,#356,#427,.T.);
#414=EDGE_CURVE('',#359,#341,#173,.T.);
#415=EDGE_CURVE('',#340,#360,#174,.T.);
#416=EDGE_CURVE('',#361,#361,#428,.T.);
#417=EDGE_CURVE('',#362,#362,#429,.T.);
#418=CIRCLE('',#431,8.1);
#419=CIRCLE('',#432,8.1);
#420=CIRCLE('',#433,9.2);
#421=CIRCLE('',#434,9.2);
#422=CIRCLE('',#435,9.2);
#423=CIRCLE('',#436,9.2);
#424=CIRCLE('',#452,9.2);
#425=CIRCLE('',#453,9.2);
#426=CIRCLE('',#454,9.2);
#427=CIRCLE('',#455,9.2);
#428=CIRCLE('',#462,8.1);
#429=CIRCLE('',#465,8.1);
#430=AXIS2_PLACEMENT_3D('',#585,#468,#469);
#431=AXIS2_PLACEMENT_3D('',#586,#470,#471);
#432=AXIS2_PLACEMENT_3D('',#599,#477,#478);
#433=AXIS2_PLACEMENT_3D('',#605,#481,#482);
#434=AXIS2_PLACEMENT_3D('',#609,#484,#485);
#435=AXIS2_PLACEMENT_3D('',#613,#487,#488);
#436=AXIS2_PLACEMENT_3D('',#617,#490,#491);
#437=AXIS2_PLACEMENT_3D('',#618,#492,#493);
#438=AXIS2_PLACEMENT_3D('',#629,#499,#500);
#439=AXIS2_PLACEMENT_3D('',#635,#504,#505);
#440=AXIS2_PLACEMENT_3D('',#645,#511,#512);
#441=AXIS2_PLACEMENT_3D('',#647,#514,#515);
#442=AXIS2_PLACEMENT_3D('',#649,#517,#518);
#443=AXIS2_PLACEMENT_3D('',#652,#521,#522);
#444=AXIS2_PLACEMENT_3D('',#654,#524,#525);
#445=AXIS2_PLACEMENT_3D('',#656,#527,#528);
#446=AXIS2_PLACEMENT_3D('',#657,#529,#530);
#447=AXIS2_PLACEMENT_3D('',#658,#531,#532);
#448=AXIS2_PLACEMENT_3D('',#659,#533,#534);
#449=AXIS2_PLACEMENT_3D('',#665,#538,#539);
#450=AXIS2_PLACEMENT_3D('',#671,#543,#544);
#451=AXIS2_PLACEMENT_3D('',#677,#548,#549);
#452=AXIS2_PLACEMENT_3D('',#678,#550,#551);
#453=AXIS2_PLACEMENT_3D('',#679,#552,#553);
#454=AXIS2_PLACEMENT_3D('',#683,#555,#556);
#455=AXIS2_PLACEMENT_3D('',#684,#557,#558);
#456=AXIS2_PLACEMENT_3D('',#685,#559,#560);
#457=AXIS2_PLACEMENT_3D('',#688,#563,#564);
#458=AXIS2_PLACEMENT_3D('',#689,#565,#566);
#459=AXIS2_PLACEMENT_3D('',#690,#567,#568);
#460=AXIS2_PLACEMENT_3D('',#691,#569,#570);
#461=AXIS2_PLACEMENT_3D('',#692,#571,#572);
#462=AXIS2_PLACEMENT_3D('',#693,#573,#574);
#463=AXIS2_PLACEMENT_3D('',#695,#575,#576);
#464=AXIS2_PLACEMENT_3D('',#696,#577,#578);
#465=AXIS2_PLACEMENT_3D('',#697,#579,#580);
#466=AXIS2_PLACEMENT_3D('',#699,#581,#582);
#467=AXIS2_PLACEMENT_3D('',#700,#583,#584);
#468=DIRECTION('',(0.,0.,1.));
#469=DIRECTION('',(1.,0.,0.));
#470=DIRECTION('',(0.,0.,1.));
#471=DIRECTION('',(1.,0.,0.));
#472=DIRECTION('',(0.,1.,0.));
#473=DIRECTION('',(-1.,0.,0.));
#474=DIRECTION('',(0.,-1.,0.));
#475=DIRECTION('',(1.,0.,0.));
#476=DIRECTION('',(0.,1.,0.));
#477=DIRECTION('',(0.,0.,1.));
#478=DIRECTION('',(1.,0.,0.));
#479=DIRECTION('',(0.,1.,0.));
#480=DIRECTION('',(1.,0.,0.));
#481=DIRECTION('',(0.,0.,-1.));
#482=DIRECTION('',(1.,0.,0.));
#483=DIRECTION('',(0.,-1.,0.));
#484=DIRECTION('',(0.,0.,-1.));
#485=DIRECTION('',(1.,0.,0.));
#486=DIRECTION('',(-1.,0.,0.));
#487=DIRECTION('',(0.,0.,-1.));
#488=DIRECTION('',(0.999999999999998,0.,0.));
#489=DIRECTION('',(0.,1.,0.));
#490=DIRECTION('',(0.,0.,-1.));
#491=DIRECTION('',(0.999999999999998,0.,0.));
#492=DIRECTION('',(0.,0.,1.));
#493=DIRECTION('',(1.,0.,0.));
#494=DIRECTION('',(-1.,0.,0.));
#495=DIRECTION('',(-0.707106781186548,0.,-0.707106781186548));
#496=DIRECTION('',(0.,0.,1.));
#497=DIRECTION('',(1.,0.,0.));
#498=DIRECTION('',(0.,0.,1.));
#499=DIRECTION('',(0.,-1.,0.));
#500=DIRECTION('',(0.,0.,-1.));
#501=DIRECTION('',(0.,1.,0.));
#502=DIRECTION('',(0.,0.,1.));
#503=DIRECTION('',(0.,-1.,0.));
#504=DIRECTION('',(-1.,0.,0.));
#505=DIRECTION('',(0.,0.,1.));
#506=DIRECTION('',(1.,0.,0.));
#507=DIRECTION('',(0.707106781186548,0.,-0.707106781186548));
#508=DIRECTION('',(0.,0.,1.));
#509=DIRECTION('',(-1.,0.,0.));
#510=DIRECTION('',(0.707106781186548,0.,0.707106781186548));
#511=DIRECTION('',(0.,1.,0.));
#512=DIRECTION('',(0.,0.,1.));
#513=DIRECTION('',(0.,1.,0.));
#514=DIRECTION('',(0.,0.,-1.));
#515=DIRECTION('',(-1.,0.,0.));
#516=DIRECTION('',(0.,-1.,0.));
#517=DIRECTION('',(1.,0.,0.));
#518=DIRECTION('',(0.,0.,-1.));
#519=DIRECTION('',(-0.577350269189626,0.577350269189626,0.577350269189626));
#520=DIRECTION('',(-0.577350269189626,-0.577350269189626,-0.577350269189626));
#521=DIRECTION('',(0.,0.707106781186547,-0.707106781186547));
#522=DIRECTION('',(-1.,0.,0.));
#523=DIRECTION('',(-0.577350269189626,0.577350269189626,-0.577350269189626));
#524=DIRECTION('',(0.707106781186547,0.,-0.707106781186547));
#525=DIRECTION('',(0.,1.,0.));
#526=DIRECTION('',(0.577350269189626,0.577350269189626,-0.577350269189626));
#527=DIRECTION('',(0.,-0.707106781186548,-0.707106781186548));
#528=DIRECTION('',(1.,0.,0.));
#529=DIRECTION('',(0.707106781186548,0.,0.707106781186548));
#530=DIRECTION('',(0.707106781186548,0.,-0.707106781186548));
#531=DIRECTION('',(0.707106781186548,0.,0.707106781186548));
#532=DIRECTION('',(0.707106781186548,0.,-0.707106781186548));
#533=DIRECTION('',(-0.707106781186547,0.,-0.707106781186547));
#534=DIRECTION('',(0.,-1.,0.));
#535=DIRECTION('',(-1.,0.,0.));
#536=DIRECTION('',(0.,0.,1.));
#537=DIRECTION('',(0.,0.,-1.));
#538=DIRECTION('',(0.,-1.,0.));
#539=DIRECTION('',(0.,0.,-1.));
#540=DIRECTION('',(0.,0.,-1.));
#541=DIRECTION('',(0.,1.,0.));
#542=DIRECTION('',(0.,0.,1.));
#543=DIRECTION('',(-1.,0.,0.));
#544=DIRECTION('',(0.,0.,1.));
#545=DIRECTION('',(1.,0.,0.));
#546=DIRECTION('',(0.,0.,1.));
#547=DIRECTION('',(0.,0.,-1.));
#548=DIRECTION('',(0.,1.,0.));
#549=DIRECTION('',(0.,0.,1.));
#550=DIRECTION('',(0.,0.,1.));
#551=DIRECTION('',(-1.,0.,0.));
#552=DIRECTION('',(0.,0.,1.));
#553=DIRECTION('',(-0.999999999999998,0.,0.));
#554=DIRECTION('',(0.,-1.,0.));
#555=DIRECTION('',(0.,0.,1.));
#556=DIRECTION('',(-0.999999999999998,0.,0.));
#557=DIRECTION('',(0.,0.,1.));
#558=DIRECTION('',(-1.,0.,0.));
#559=DIRECTION('',(0.,0.,-1.));
#560=DIRECTION('',(-1.,0.,0.));
#561=DIRECTION('',(0.,0.,1.));
#562=DIRECTION('',(0.,0.,-1.));
#563=DIRECTION('',(1.,0.,0.));
#564=DIRECTION('',(0.,0.,-1.));
#565=DIRECTION('',(0.,0.,1.));
#566=DIRECTION('',(1.,0.,0.));
#567=DIRECTION('',(0.,0.,1.));
#568=DIRECTION('',(0.999999999999998,0.,0.));
#569=DIRECTION('',(0.,0.,1.));
#570=DIRECTION('',(0.999999999999998,0.,0.));
#571=DIRECTION('',(0.,0.,1.));
#572=DIRECTION('',(1.,0.,0.));
#573=DIRECTION('',(0.,0.,-1.));
#574=DIRECTION('',(1.,0.,0.));
#575=DIRECTION('',(0.,0.,-1.));
#576=DIRECTION('',(-1.,0.,0.));
#577=DIRECTION('',(0.,0.,-1.));
#578=DIRECTION('',(1.,0.,0.));
#579=DIRECTION('',(0.,0.,-1.));
#580=DIRECTION('',(1.,0.,0.));
#581=DIRECTION('',(0.,0.,-1.));
#582=DIRECTION('',(-1.,0.,0.));
#583=DIRECTION('',(0.,0.,-1.));
#584=DIRECTION('',(1.,0.,0.));
#585=CARTESIAN_POINT('',(0.,0.,0.));
#586=CARTESIAN_POINT('',(207.4,157.2,144.5));
#587=CARTESIAN_POINT('',(211.4,164.243436661176,144.5));
#588=CARTESIAN_POINT('',(211.4,150.156563338824,144.5));
#589=CARTESIAN_POINT('',(211.4,106.9,144.5));
#590=CARTESIAN_POINT('',(211.4,194.9,144.5));
#591=CARTESIAN_POINT('',(116.4,194.9,144.5));
#592=CARTESIAN_POINT('',(21.9,194.9,144.5));
#593=CARTESIAN_POINT('',(21.9,106.9,144.5));
#594=CARTESIAN_POINT('',(21.9,21.4,144.5));
#595=CARTESIAN_POINT('',(116.4,21.4,144.5));
#596=CARTESIAN_POINT('',(211.4,21.4,144.5));
#597=CARTESIAN_POINT('',(211.4,106.9,144.5));
#598=CARTESIAN_POINT('',(211.4,47.2565633388239,144.5));
#599=CARTESIAN_POINT('',(207.4,54.3,144.5));
#600=CARTESIAN_POINT('',(211.4,61.3434366611761,144.5));
#601=CARTESIAN_POINT('',(211.4,106.9,144.5));
#602=CARTESIAN_POINT('',(116.4,59.2,144.5));
#603=CARTESIAN_POINT('',(100.,59.2,144.5));
#604=CARTESIAN_POINT('',(177.2,59.2,144.5));
#605=CARTESIAN_POINT('',(100.,68.4,144.5));
#606=CARTESIAN_POINT('',(90.8,68.4,144.5));
#607=CARTESIAN_POINT('',(90.8,106.9,144.5));
#608=CARTESIAN_POINT('',(90.8,123.5,144.5));
#609=CARTESIAN_POINT('',(100.,123.5,144.5));
#610=CARTESIAN_POINT('',(100.,132.7,144.5));
#611=CARTESIAN_POINT('',(116.4,132.7,144.5));
#612=CARTESIAN_POINT('',(177.2,132.7,144.5));
#613=CARTESIAN_POINT('',(177.2,123.5,144.5));
#614=CARTESIAN_POINT('',(186.4,123.5,144.5));
#615=CARTESIAN_POINT('',(186.4,106.9,144.5));
#616=CARTESIAN_POINT('',(186.4,68.4,144.5));
#617=CARTESIAN_POINT('',(177.2,68.4,144.5));
#618=CARTESIAN_POINT('',(116.4,106.9,144.5));
#619=CARTESIAN_POINT('',(116.4,0.,123.1));
#620=CARTESIAN_POINT('',(232.8,0.,123.1));
#621=CARTESIAN_POINT('',(0.5,0.,123.1));
#622=CARTESIAN_POINT('',(-3.09999999999999,0.,119.5));
#623=CARTESIAN_POINT('',(0.,0.,122.6));
#624=CARTESIAN_POINT('',(0.,0.,0.));
#625=CARTESIAN_POINT('',(0.,0.,0.));
#626=CARTESIAN_POINT('',(116.4,0.,0.));
#627=CARTESIAN_POINT('',(232.8,0.,0.));
#628=CARTESIAN_POINT('',(232.8,0.,0.));
#629=CARTESIAN_POINT('',(116.4,0.,0.));
#630=CARTESIAN_POINT('',(0.,106.9,122.6));
#631=CARTESIAN_POINT('',(0.,213.8,122.6));
#632=CARTESIAN_POINT('',(0.,213.8,0.));
#633=CARTESIAN_POINT('',(0.,213.8,0.));
#634=CARTESIAN_POINT('',(0.,106.9,0.));
#635=CARTESIAN_POINT('',(0.,106.9,0.));
#636=CARTESIAN_POINT('',(116.4,213.8,125.6));
#637=CARTESIAN_POINT('',(3.,213.8,125.6));
#638=CARTESIAN_POINT('',(230.3,213.8,125.6));
#639=CARTESIAN_POINT('',(236.15,213.8,119.75));
#640=CARTESIAN_POINT('',(232.8,213.8,123.1));
#641=CARTESIAN_POINT('',(232.8,213.8,0.));
#642=CARTESIAN_POINT('',(232.8,213.8,0.));
#643=CARTESIAN_POINT('',(116.4,213.8,0.));
#644=CARTESIAN_POINT('',(-3.09999999999999,213.8,119.5));
#645=CARTESIAN_POINT('',(116.4,213.8,0.));
#646=CARTESIAN_POINT('',(232.8,106.9,0.));
#647=CARTESIAN_POINT('',(116.4,106.9,0.));
#648=CARTESIAN_POINT('',(232.8,106.9,123.1));
#649=CARTESIAN_POINT('',(232.8,106.9,0.));
#650=CARTESIAN_POINT('',(194.,38.8,161.9));
#651=CARTESIAN_POINT('',(39.1333333333333,38.6333333333333,161.733333333333));
#652=CARTESIAN_POINT('',(116.4,0.,123.1));
#653=CARTESIAN_POINT('',(36.6333333333333,180.166666666667,159.233333333333));
#654=CARTESIAN_POINT('',(0.,106.9,122.6));
#655=CARTESIAN_POINT('',(192.333333333333,175.833333333333,163.566666666667));
#656=CARTESIAN_POINT('',(116.4,213.8,125.6));
#657=CARTESIAN_POINT('',(207.4,157.2,148.5));
#658=CARTESIAN_POINT('',(207.4,54.3,148.5));
#659=CARTESIAN_POINT('',(232.8,106.9,123.1));
#660=CARTESIAN_POINT('',(138.6,59.2,106.6));
#661=CARTESIAN_POINT('',(177.2,59.2,106.6));
#662=CARTESIAN_POINT('',(100.,59.2,106.6));
#663=CARTESIAN_POINT('',(100.,59.2,144.5));
#664=CARTESIAN_POINT('',(177.2,59.2,106.6));
#665=CARTESIAN_POINT('',(138.6,59.2,106.6));
#666=CARTESIAN_POINT('',(90.8,68.4,106.6));
#667=CARTESIAN_POINT('',(90.8,68.4,106.6));
#668=CARTESIAN_POINT('',(90.8,95.95,106.6));
#669=CARTESIAN_POINT('',(90.8,123.5,106.6));
#670=CARTESIAN_POINT('',(90.8,123.5,144.5));
#671=CARTESIAN_POINT('',(90.8,95.95,106.6));
#672=CARTESIAN_POINT('',(138.6,132.7,106.6));
#673=CARTESIAN_POINT('',(100.,132.7,106.6));
#674=CARTESIAN_POINT('',(177.2,132.7,106.6));
#675=CARTESIAN_POINT('',(177.2,132.7,144.5));
#676=CARTESIAN_POINT('',(100.,132.7,106.6));
#677=CARTESIAN_POINT('',(138.6,132.7,106.6));
#678=CARTESIAN_POINT('',(100.,68.4,106.6));
#679=CARTESIAN_POINT('',(177.2,68.4,106.6));
#680=CARTESIAN_POINT('',(186.4,68.4,106.6));
#681=CARTESIAN_POINT('',(186.4,95.95,106.6));
#682=CARTESIAN_POINT('',(186.4,123.5,106.6));
#683=CARTESIAN_POINT('',(177.2,123.5,106.6));
#684=CARTESIAN_POINT('',(100.,123.5,106.6));
#685=CARTESIAN_POINT('',(138.6,95.95,106.6));
#686=CARTESIAN_POINT('',(186.4,68.4,144.5));
#687=CARTESIAN_POINT('',(186.4,123.5,106.6));
#688=CARTESIAN_POINT('',(186.4,95.95,106.6));
#689=CARTESIAN_POINT('',(100.,68.4,106.6));
#690=CARTESIAN_POINT('',(177.2,68.4,106.6));
#691=CARTESIAN_POINT('',(177.2,123.5,106.6));
#692=CARTESIAN_POINT('',(100.,123.5,106.6));
#693=CARTESIAN_POINT('',(207.4,54.3,50.1));
#694=CARTESIAN_POINT('',(215.5,54.3,50.1));
#695=CARTESIAN_POINT('',(207.4,54.3,50.1));
#696=CARTESIAN_POINT('',(207.4,54.3,144.55));
#697=CARTESIAN_POINT('',(207.4,157.2,99.1));
#698=CARTESIAN_POINT('',(215.5,157.2,99.1));
#699=CARTESIAN_POINT('',(207.4,157.2,99.1));
#700=CARTESIAN_POINT('',(207.4,157.2,144.55));
#701=MECHANICAL_DESIGN_GEOMETRIC_PRESENTATION_REPRESENTATION('',(#24),#702);
#702=(
GEOMETRIC_REPRESENTATION_CONTEXT(3)
GLOBAL_UNCERTAINTY_ASSIGNED_CONTEXT((#703))
GLOBAL_UNIT_ASSIGNED_CONTEXT((#709,#705,#704))
REPRESENTATION_CONTEXT('featured_part_10795','TOP_LEVEL_ASSEMBLY_PART')
);
#703=UNCERTAINTY_MEASURE_WITH_UNIT(LENGTH_MEASURE(2.E-5),#709,
'DISTANCE_ACCURACY_VALUE','Maximum Tolerance applied to model');
#704=(
NAMED_UNIT(*)
SI_UNIT($,.STERADIAN.)
SOLID_ANGLE_UNIT()
);
#705=(
CONVERSION_BASED_UNIT('DEGREE',#707)
NAMED_UNIT(#706)
PLANE_ANGLE_UNIT()
);
#706=DIMENSIONAL_EXPONENTS(0.,0.,0.,0.,0.,0.,0.);
#707=PLANE_ANGLE_MEASURE_WITH_UNIT(PLANE_ANGLE_MEASURE(0.0174532925),#708);
#708=(
NAMED_UNIT(*)
PLANE_ANGLE_UNIT()
SI_UNIT($,.RADIAN.)
);
#709=(
LENGTH_UNIT()
NAMED_UNIT(*)
SI_UNIT(.MILLI.,.METRE.)
);
ENDSEC;
END-ISO-10303-21;
