ISO-10303-21;
HEADER;
/* Generated by software containing ST-Developer
 * from STEP Tools, Inc. (www.steptools.com) 
 */
/* OPTION: using custom schema-name function */

FILE_DESCRIPTION(
/* description */ (''),
/* implementation_level */ '2;1');

FILE_NAME(
/* name */ 'featured_part_09230.stp',
/* time_stamp */ '2026-07-15T09:04:33-04:00',
/* author */ (''),
/* organization */ (''),
/* preprocessor_version */ 'ST-DEVELOPER v20.1',
/* originating_system */ 'SIEMENS PLM Software NX2512.6002',
/* authorisation */ '');

FILE_SCHEMA (('AUTOMOTIVE_DESIGN { 1 0 10303 214 3 1 1 1 }'));
ENDSEC;

DATA;
#10=SHAPE_REPRESENTATION_RELATIONSHIP('None',
'relationship between featured_part_09230-None and featured_part_09230
-None',#22,#11);
#11=ADVANCED_BREP_SHAPE_REPRESENTATION('featured_part_09230-None',(#32),
#874);
#12=SHAPE_DEFINITION_REPRESENTATION(#13,#22);
#13=PRODUCT_DEFINITION_SHAPE('','',#14);
#14=PRODUCT_DEFINITION(' ','',#16,#15);
#15=PRODUCT_DEFINITION_CONTEXT('part definition',#21,'design');
#16=PRODUCT_DEFINITION_FORMATION_WITH_SPECIFIED_SOURCE(' ',' ',#18,
 .NOT_KNOWN.);
#17=PRODUCT_RELATED_PRODUCT_CATEGORY('part','',(#18));
#18=PRODUCT('featured_part_09230','featured_part_09230',' ',(#19));
#19=PRODUCT_CONTEXT(' ',#21,'mechanical');
#20=APPLICATION_PROTOCOL_DEFINITION('international standard',
'automotive_design',2010,#21);
#21=APPLICATION_CONTEXT(
'core data for automotive mechanical design processes');
#22=SHAPE_REPRESENTATION('featured_part_09230-None',(#542),#874);
#23=PRESENTATION_LAYER_ASSIGNMENT('1','Layer 1',(#32));
#24=STYLED_ITEM('',(#25),#32);
#25=PRESENTATION_STYLE_ASSIGNMENT((#26));
#26=SURFACE_STYLE_USAGE(.BOTH.,#27);
#27=SURFACE_SIDE_STYLE('',(#28));
#28=SURFACE_STYLE_FILL_AREA(#29);
#29=FILL_AREA_STYLE('',(#30));
#30=FILL_AREA_STYLE_COLOUR('',#31);
#31=COLOUR_RGB('medium steel',0.611764705882353,0.658823529411765,0.670588235294118);
#32=MANIFOLD_SOLID_BREP('',#33);
#33=CLOSED_SHELL('',(#59,#60,#61,#62,#63,#64,#65,#66,#67,#68,#69,#70,#71,
#72,#73,#74,#75,#76,#77,#78,#79,#80,#81,#82,#83,#84));
#34=CYLINDRICAL_SURFACE('',#573,9.1);
#35=CYLINDRICAL_SURFACE('',#574,9.1);
#36=CYLINDRICAL_SURFACE('',#579,11.25);
#37=CYLINDRICAL_SURFACE('',#582,4.4);
#38=CYLINDRICAL_SURFACE('',#583,9.55);
#39=FACE_BOUND('',#137,.T.);
#40=FACE_BOUND('',#138,.T.);
#41=FACE_BOUND('',#139,.T.);
#42=FACE_BOUND('',#152,.T.);
#43=FACE_BOUND('',#153,.T.);
#44=FACE_BOUND('',#155,.T.);
#45=FACE_BOUND('',#156,.T.);
#46=FACE_BOUND('',#157,.T.);
#47=FACE_BOUND('',#158,.T.);
#48=CIRCLE('',#546,9.55);
#49=CIRCLE('',#547,9.1);
#50=CIRCLE('',#548,9.1);
#51=CIRCLE('',#549,11.25);
#52=CIRCLE('',#555,4.4);
#53=CIRCLE('',#560,9.55);
#54=CIRCLE('',#561,11.25);
#55=CIRCLE('',#569,9.1);
#56=CIRCLE('',#570,9.1);
#57=CIRCLE('',#577,9.55);
#58=CIRCLE('',#580,4.4);
#59=ADVANCED_FACE('',(#106),#85,.F.);
#60=ADVANCED_FACE('',(#107),#86,.F.);
#61=ADVANCED_FACE('',(#108),#87,.T.);
#62=ADVANCED_FACE('',(#109),#88,.F.);
#63=ADVANCED_FACE('',(#110),#89,.F.);
#64=ADVANCED_FACE('',(#111),#90,.T.);
#65=ADVANCED_FACE('',(#112),#91,.T.);
#66=ADVANCED_FACE('',(#113),#92,.T.);
#67=ADVANCED_FACE('',(#114),#93,.T.);
#68=ADVANCED_FACE('',(#39,#40,#41),#94,.T.);
#69=ADVANCED_FACE('',(#115),#95,.T.);
#70=ADVANCED_FACE('',(#116),#96,.F.);
#71=ADVANCED_FACE('',(#117),#97,.F.);
#72=ADVANCED_FACE('',(#118),#98,.F.);
#73=ADVANCED_FACE('',(#119),#99,.F.);
#74=ADVANCED_FACE('',(#120),#100,.F.);
#75=ADVANCED_FACE('',(#121),#101,.F.);
#76=ADVANCED_FACE('',(#122),#34,.F.);
#77=ADVANCED_FACE('',(#123),#35,.F.);
#78=ADVANCED_FACE('',(#124),#102,.F.);
#79=ADVANCED_FACE('',(#125),#103,.F.);
#80=ADVANCED_FACE('',(#126),#104,.F.);
#81=ADVANCED_FACE('',(#42,#43),#36,.F.);
#82=ADVANCED_FACE('',(#127),#105,.F.);
#83=ADVANCED_FACE('',(#44,#45),#37,.F.);
#84=ADVANCED_FACE('',(#46,#47),#38,.F.);
#85=PLANE('',#544);
#86=PLANE('',#545);
#87=PLANE('',#550);
#88=PLANE('',#553);
#89=PLANE('',#554);
#90=PLANE('',#556);
#91=PLANE('',#557);
#92=PLANE('',#558);
#93=PLANE('',#559);
#94=PLANE('',#562);
#95=PLANE('',#563);
#96=PLANE('',#564);
#97=PLANE('',#566);
#98=PLANE('',#567);
#99=PLANE('',#568);
#100=PLANE('',#571);
#101=PLANE('',#572);
#102=PLANE('',#575);
#103=PLANE('',#576);
#104=PLANE('',#578);
#105=PLANE('',#581);
#106=FACE_OUTER_BOUND('',#128,.T.);
#107=FACE_OUTER_BOUND('',#129,.T.);
#108=FACE_OUTER_BOUND('',#130,.T.);
#109=FACE_OUTER_BOUND('',#131,.T.);
#110=FACE_OUTER_BOUND('',#132,.T.);
#111=FACE_OUTER_BOUND('',#133,.T.);
#112=FACE_OUTER_BOUND('',#134,.T.);
#113=FACE_OUTER_BOUND('',#135,.T.);
#114=FACE_OUTER_BOUND('',#136,.T.);
#115=FACE_OUTER_BOUND('',#140,.T.);
#116=FACE_OUTER_BOUND('',#141,.T.);
#117=FACE_OUTER_BOUND('',#142,.T.);
#118=FACE_OUTER_BOUND('',#143,.T.);
#119=FACE_OUTER_BOUND('',#144,.T.);
#120=FACE_OUTER_BOUND('',#145,.T.);
#121=FACE_OUTER_BOUND('',#146,.T.);
#122=FACE_OUTER_BOUND('',#147,.T.);
#123=FACE_OUTER_BOUND('',#148,.T.);
#124=FACE_OUTER_BOUND('',#149,.T.);
#125=FACE_OUTER_BOUND('',#150,.T.);
#126=FACE_OUTER_BOUND('',#151,.T.);
#127=FACE_OUTER_BOUND('',#154,.T.);
#128=EDGE_LOOP('',(#273,#274,#275));
#129=EDGE_LOOP('',(#276,#277,#278,#279,#280,#281));
#130=EDGE_LOOP('',(#282,#283,#284,#285,#286,#287,#288,#289,#290,#291,#292,
#293,#294,#295));
#131=EDGE_LOOP('',(#296,#297,#298,#299,#300,#301,#302));
#132=EDGE_LOOP('',(#303,#304,#305,#306));
#133=EDGE_LOOP('',(#307,#308,#309,#310,#311,#312));
#134=EDGE_LOOP('',(#313,#314,#315,#316,#317,#318,#319,#320,#321,#322));
#135=EDGE_LOOP('',(#323,#324,#325,#326,#327,#328,#329,#330));
#136=EDGE_LOOP('',(#331,#332,#333,#334,#335,#336));
#137=EDGE_LOOP('',(#337));
#138=EDGE_LOOP('',(#338));
#139=EDGE_LOOP('',(#339,#340,#341,#342));
#140=EDGE_LOOP('',(#343,#344,#345,#346,#347,#348,#349,#350));
#141=EDGE_LOOP('',(#351,#352,#353,#354));
#142=EDGE_LOOP('',(#355,#356,#357,#358,#359,#360));
#143=EDGE_LOOP('',(#361,#362,#363,#364));
#144=EDGE_LOOP('',(#365,#366,#367,#368));
#145=EDGE_LOOP('',(#369,#370,#371,#372,#373,#374));
#146=EDGE_LOOP('',(#375,#376,#377,#378));
#147=EDGE_LOOP('',(#379,#380,#381,#382));
#148=EDGE_LOOP('',(#383,#384,#385,#386));
#149=EDGE_LOOP('',(#387,#388,#389,#390));
#150=EDGE_LOOP('',(#391,#392,#393,#394,#395,#396));
#151=EDGE_LOOP('',(#397,#398,#399,#400,#401,#402));
#152=EDGE_LOOP('',(#403,#404));
#153=EDGE_LOOP('',(#405));
#154=EDGE_LOOP('',(#406));
#155=EDGE_LOOP('',(#407,#408));
#156=EDGE_LOOP('',(#409));
#157=EDGE_LOOP('',(#410));
#158=EDGE_LOOP('',(#411,#412,#413,#414,#415,#416));
#159=LINE('',#729,#216);
#160=LINE('',#731,#217);
#161=LINE('',#733,#218);
#162=LINE('',#735,#219);
#163=LINE('',#737,#220);
#164=LINE('',#739,#221);
#165=LINE('',#741,#222);
#166=LINE('',#745,#223);
#167=LINE('',#747,#224);
#168=LINE('',#749,#225);
#169=LINE('',#753,#226);
#170=LINE('',#757,#227);
#171=LINE('',#759,#228);
#172=LINE('',#761,#229);
#173=LINE('',#765,#230);
#174=LINE('',#770,#231);
#175=LINE('',#772,#232);
#176=LINE('',#774,#233);
#177=LINE('',#776,#234);
#178=LINE('',#778,#235);
#179=LINE('',#783,#236);
#180=LINE('',#785,#237);
#181=LINE('',#787,#238);
#182=LINE('',#789,#239);
#183=LINE('',#791,#240);
#184=LINE('',#793,#241);
#185=LINE('',#795,#242);
#186=LINE('',#797,#243);
#187=LINE('',#799,#244);
#188=LINE('',#800,#245);
#189=LINE('',#802,#246);
#190=LINE('',#804,#247);
#191=LINE('',#806,#248);
#192=LINE('',#808,#249);
#193=LINE('',#810,#250);
#194=LINE('',#812,#251);
#195=LINE('',#814,#252);
#196=LINE('',#815,#253);
#197=LINE('',#817,#254);
#198=LINE('',#819,#255);
#199=LINE('',#825,#256);
#200=LINE('',#827,#257);
#201=LINE('',#829,#258);
#202=LINE('',#831,#259);
#203=LINE('',#833,#260);
#204=LINE('',#835,#261);
#205=LINE('',#838,#262);
#206=LINE('',#840,#263);
#207=LINE('',#842,#264);
#208=LINE('',#844,#265);
#209=LINE('',#846,#266);
#210=LINE('',#848,#267);
#211=LINE('',#851,#268);
#212=LINE('',#855,#269);
#213=LINE('',#859,#270);
#214=LINE('',#861,#271);
#215=LINE('',#863,#272);
#216=VECTOR('',#588,1.);
#217=VECTOR('',#589,1.);
#218=VECTOR('',#592,1.);
#219=VECTOR('',#593,1.);
#220=VECTOR('',#594,1.);
#221=VECTOR('',#595,1.);
#222=VECTOR('',#596,1.);
#223=VECTOR('',#601,1.);
#224=VECTOR('',#602,1.);
#225=VECTOR('',#603,1.);
#226=VECTOR('',#606,1.);
#227=VECTOR('',#609,1.);
#228=VECTOR('',#610,1.);
#229=VECTOR('',#611,1.);
#230=VECTOR('',#614,1.);
#231=VECTOR('',#621,1.);
#232=VECTOR('',#622,1.);
#233=VECTOR('',#623,1.);
#234=VECTOR('',#626,1.);
#235=VECTOR('',#627,1.);
#236=VECTOR('',#632,1.);
#237=VECTOR('',#633,1.);
#238=VECTOR('',#634,1.);
#239=VECTOR('',#635,1.);
#240=VECTOR('',#636,1.);
#241=VECTOR('',#639,1.);
#242=VECTOR('',#640,1.);
#243=VECTOR('',#641,1.);
#244=VECTOR('',#642,1.);
#245=VECTOR('',#643,1.);
#246=VECTOR('',#644,1.);
#247=VECTOR('',#647,1.);
#248=VECTOR('',#648,1.);
#249=VECTOR('',#649,1.);
#250=VECTOR('',#650,1.);
#251=VECTOR('',#651,1.);
#252=VECTOR('',#654,1.);
#253=VECTOR('',#655,1.);
#254=VECTOR('',#656,1.);
#255=VECTOR('',#657,1.);
#256=VECTOR('',#664,1.);
#257=VECTOR('',#667,1.);
#258=VECTOR('',#668,1.);
#259=VECTOR('',#669,1.);
#260=VECTOR('',#670,1.);
#261=VECTOR('',#673,1.);
#262=VECTOR('',#678,1.);
#263=VECTOR('',#681,1.);
#264=VECTOR('',#682,1.);
#265=VECTOR('',#685,1.);
#266=VECTOR('',#686,1.);
#267=VECTOR('',#687,1.);
#268=VECTOR('',#692,1.);
#269=VECTOR('',#697,1.);
#270=VECTOR('',#704,1.);
#271=VECTOR('',#705,1.);
#272=VECTOR('',#708,1.);
#273=ORIENTED_EDGE('',*,*,#466,.F.);
#274=ORIENTED_EDGE('',*,*,#467,.F.);
#275=ORIENTED_EDGE('',*,*,#468,.F.);
#276=ORIENTED_EDGE('',*,*,#467,.T.);
#277=ORIENTED_EDGE('',*,*,#469,.T.);
#278=ORIENTED_EDGE('',*,*,#470,.T.);
#279=ORIENTED_EDGE('',*,*,#471,.T.);
#280=ORIENTED_EDGE('',*,*,#472,.T.);
#281=ORIENTED_EDGE('',*,*,#473,.T.);
#282=ORIENTED_EDGE('',*,*,#474,.F.);
#283=ORIENTED_EDGE('',*,*,#468,.T.);
#284=ORIENTED_EDGE('',*,*,#473,.F.);
#285=ORIENTED_EDGE('',*,*,#475,.T.);
#286=ORIENTED_EDGE('',*,*,#476,.F.);
#287=ORIENTED_EDGE('',*,*,#477,.F.);
#288=ORIENTED_EDGE('',*,*,#478,.T.);
#289=ORIENTED_EDGE('',*,*,#479,.F.);
#290=ORIENTED_EDGE('',*,*,#480,.T.);
#291=ORIENTED_EDGE('',*,*,#481,.F.);
#292=ORIENTED_EDGE('',*,*,#482,.F.);
#293=ORIENTED_EDGE('',*,*,#483,.T.);
#294=ORIENTED_EDGE('',*,*,#484,.F.);
#295=ORIENTED_EDGE('',*,*,#485,.T.);
#296=ORIENTED_EDGE('',*,*,#486,.F.);
#297=ORIENTED_EDGE('',*,*,#485,.F.);
#298=ORIENTED_EDGE('',*,*,#487,.F.);
#299=ORIENTED_EDGE('',*,*,#483,.F.);
#300=ORIENTED_EDGE('',*,*,#488,.F.);
#301=ORIENTED_EDGE('',*,*,#489,.F.);
#302=ORIENTED_EDGE('',*,*,#490,.F.);
#303=ORIENTED_EDGE('',*,*,#472,.F.);
#304=ORIENTED_EDGE('',*,*,#491,.F.);
#305=ORIENTED_EDGE('',*,*,#492,.F.);
#306=ORIENTED_EDGE('',*,*,#475,.F.);
#307=ORIENTED_EDGE('',*,*,#493,.F.);
#308=ORIENTED_EDGE('',*,*,#494,.T.);
#309=ORIENTED_EDGE('',*,*,#495,.F.);
#310=ORIENTED_EDGE('',*,*,#496,.T.);
#311=ORIENTED_EDGE('',*,*,#497,.F.);
#312=ORIENTED_EDGE('',*,*,#498,.T.);
#313=ORIENTED_EDGE('',*,*,#499,.T.);
#314=ORIENTED_EDGE('',*,*,#476,.T.);
#315=ORIENTED_EDGE('',*,*,#492,.T.);
#316=ORIENTED_EDGE('',*,*,#500,.F.);
#317=ORIENTED_EDGE('',*,*,#501,.T.);
#318=ORIENTED_EDGE('',*,*,#502,.T.);
#319=ORIENTED_EDGE('',*,*,#488,.T.);
#320=ORIENTED_EDGE('',*,*,#482,.T.);
#321=ORIENTED_EDGE('',*,*,#503,.F.);
#322=ORIENTED_EDGE('',*,*,#504,.F.);
#323=ORIENTED_EDGE('',*,*,#471,.F.);
#324=ORIENTED_EDGE('',*,*,#505,.F.);
#325=ORIENTED_EDGE('',*,*,#506,.F.);
#326=ORIENTED_EDGE('',*,*,#507,.T.);
#327=ORIENTED_EDGE('',*,*,#508,.F.);
#328=ORIENTED_EDGE('',*,*,#509,.T.);
#329=ORIENTED_EDGE('',*,*,#500,.T.);
#330=ORIENTED_EDGE('',*,*,#491,.T.);
#331=ORIENTED_EDGE('',*,*,#508,.T.);
#332=ORIENTED_EDGE('',*,*,#510,.T.);
#333=ORIENTED_EDGE('',*,*,#497,.T.);
#334=ORIENTED_EDGE('',*,*,#511,.T.);
#335=ORIENTED_EDGE('',*,*,#512,.F.);
#336=ORIENTED_EDGE('',*,*,#513,.T.);
#337=ORIENTED_EDGE('',*,*,#514,.F.);
#338=ORIENTED_EDGE('',*,*,#515,.F.);
#339=ORIENTED_EDGE('',*,*,#516,.F.);
#340=ORIENTED_EDGE('',*,*,#501,.F.);
#341=ORIENTED_EDGE('',*,*,#509,.F.);
#342=ORIENTED_EDGE('',*,*,#513,.F.);
#343=ORIENTED_EDGE('',*,*,#517,.F.);
#344=ORIENTED_EDGE('',*,*,#489,.T.);
#345=ORIENTED_EDGE('',*,*,#502,.F.);
#346=ORIENTED_EDGE('',*,*,#516,.T.);
#347=ORIENTED_EDGE('',*,*,#512,.T.);
#348=ORIENTED_EDGE('',*,*,#518,.T.);
#349=ORIENTED_EDGE('',*,*,#519,.F.);
#350=ORIENTED_EDGE('',*,*,#520,.F.);
#351=ORIENTED_EDGE('',*,*,#521,.F.);
#352=ORIENTED_EDGE('',*,*,#518,.F.);
#353=ORIENTED_EDGE('',*,*,#511,.F.);
#354=ORIENTED_EDGE('',*,*,#496,.F.);
#355=ORIENTED_EDGE('',*,*,#522,.F.);
#356=ORIENTED_EDGE('',*,*,#498,.F.);
#357=ORIENTED_EDGE('',*,*,#510,.F.);
#358=ORIENTED_EDGE('',*,*,#507,.F.);
#359=ORIENTED_EDGE('',*,*,#523,.F.);
#360=ORIENTED_EDGE('',*,*,#494,.F.);
#361=ORIENTED_EDGE('',*,*,#524,.T.);
#362=ORIENTED_EDGE('',*,*,#525,.T.);
#363=ORIENTED_EDGE('',*,*,#477,.T.);
#364=ORIENTED_EDGE('',*,*,#499,.F.);
#365=ORIENTED_EDGE('',*,*,#479,.T.);
#366=ORIENTED_EDGE('',*,*,#526,.T.);
#367=ORIENTED_EDGE('',*,*,#527,.T.);
#368=ORIENTED_EDGE('',*,*,#528,.T.);
#369=ORIENTED_EDGE('',*,*,#527,.F.);
#370=ORIENTED_EDGE('',*,*,#529,.T.);
#371=ORIENTED_EDGE('',*,*,#524,.F.);
#372=ORIENTED_EDGE('',*,*,#504,.T.);
#373=ORIENTED_EDGE('',*,*,#530,.F.);
#374=ORIENTED_EDGE('',*,*,#531,.T.);
#375=ORIENTED_EDGE('',*,*,#481,.T.);
#376=ORIENTED_EDGE('',*,*,#532,.T.);
#377=ORIENTED_EDGE('',*,*,#530,.T.);
#378=ORIENTED_EDGE('',*,*,#503,.T.);
#379=ORIENTED_EDGE('',*,*,#478,.F.);
#380=ORIENTED_EDGE('',*,*,#525,.F.);
#381=ORIENTED_EDGE('',*,*,#529,.F.);
#382=ORIENTED_EDGE('',*,*,#526,.F.);
#383=ORIENTED_EDGE('',*,*,#480,.F.);
#384=ORIENTED_EDGE('',*,*,#528,.F.);
#385=ORIENTED_EDGE('',*,*,#531,.F.);
#386=ORIENTED_EDGE('',*,*,#532,.F.);
#387=ORIENTED_EDGE('',*,*,#533,.T.);
#388=ORIENTED_EDGE('',*,*,#534,.T.);
#389=ORIENTED_EDGE('',*,*,#490,.T.);
#390=ORIENTED_EDGE('',*,*,#517,.T.);
#391=ORIENTED_EDGE('',*,*,#519,.T.);
#392=ORIENTED_EDGE('',*,*,#521,.T.);
#393=ORIENTED_EDGE('',*,*,#495,.T.);
#394=ORIENTED_EDGE('',*,*,#523,.T.);
#395=ORIENTED_EDGE('',*,*,#506,.T.);
#396=ORIENTED_EDGE('',*,*,#535,.T.);
#397=ORIENTED_EDGE('',*,*,#470,.F.);
#398=ORIENTED_EDGE('',*,*,#536,.T.);
#399=ORIENTED_EDGE('',*,*,#533,.F.);
#400=ORIENTED_EDGE('',*,*,#520,.T.);
#401=ORIENTED_EDGE('',*,*,#535,.F.);
#402=ORIENTED_EDGE('',*,*,#505,.T.);
#403=ORIENTED_EDGE('',*,*,#484,.T.);
#404=ORIENTED_EDGE('',*,*,#487,.T.);
#405=ORIENTED_EDGE('',*,*,#515,.T.);
#406=ORIENTED_EDGE('',*,*,#537,.F.);
#407=ORIENTED_EDGE('',*,*,#493,.T.);
#408=ORIENTED_EDGE('',*,*,#522,.T.);
#409=ORIENTED_EDGE('',*,*,#537,.T.);
#410=ORIENTED_EDGE('',*,*,#514,.T.);
#411=ORIENTED_EDGE('',*,*,#474,.T.);
#412=ORIENTED_EDGE('',*,*,#486,.T.);
#413=ORIENTED_EDGE('',*,*,#534,.F.);
#414=ORIENTED_EDGE('',*,*,#536,.F.);
#415=ORIENTED_EDGE('',*,*,#469,.F.);
#416=ORIENTED_EDGE('',*,*,#466,.T.);
#417=VERTEX_POINT('',#727);
#418=VERTEX_POINT('',#728);
#419=VERTEX_POINT('',#730);
#420=VERTEX_POINT('',#734);
#421=VERTEX_POINT('',#736);
#422=VERTEX_POINT('',#738);
#423=VERTEX_POINT('',#740);
#424=VERTEX_POINT('',#744);
#425=VERTEX_POINT('',#746);
#426=VERTEX_POINT('',#748);
#427=VERTEX_POINT('',#750);
#428=VERTEX_POINT('',#752);
#429=VERTEX_POINT('',#754);
#430=VERTEX_POINT('',#756);
#431=VERTEX_POINT('',#758);
#432=VERTEX_POINT('',#760);
#433=VERTEX_POINT('',#762);
#434=VERTEX_POINT('',#764);
#435=VERTEX_POINT('',#768);
#436=VERTEX_POINT('',#771);
#437=VERTEX_POINT('',#773);
#438=VERTEX_POINT('',#777);
#439=VERTEX_POINT('',#781);
#440=VERTEX_POINT('',#782);
#441=VERTEX_POINT('',#784);
#442=VERTEX_POINT('',#786);
#443=VERTEX_POINT('',#788);
#444=VERTEX_POINT('',#790);
#445=VERTEX_POINT('',#794);
#446=VERTEX_POINT('',#796);
#447=VERTEX_POINT('',#798);
#448=VERTEX_POINT('',#801);
#449=VERTEX_POINT('',#805);
#450=VERTEX_POINT('',#807);
#451=VERTEX_POINT('',#809);
#452=VERTEX_POINT('',#811);
#453=VERTEX_POINT('',#816);
#454=VERTEX_POINT('',#818);
#455=VERTEX_POINT('',#822);
#456=VERTEX_POINT('',#824);
#457=VERTEX_POINT('',#828);
#458=VERTEX_POINT('',#830);
#459=VERTEX_POINT('',#832);
#460=VERTEX_POINT('',#841);
#461=VERTEX_POINT('',#845);
#462=VERTEX_POINT('',#847);
#463=VERTEX_POINT('',#852);
#464=VERTEX_POINT('',#860);
#465=VERTEX_POINT('',#869);
#466=EDGE_CURVE('',#417,#418,#538,.T.);
#467=EDGE_CURVE('',#419,#417,#159,.T.);
#468=EDGE_CURVE('',#418,#419,#160,.T.);
#469=EDGE_CURVE('',#417,#420,#161,.T.);
#470=EDGE_CURVE('',#420,#421,#162,.T.);
#471=EDGE_CURVE('',#421,#422,#163,.T.);
#472=EDGE_CURVE('',#422,#423,#164,.T.);
#473=EDGE_CURVE('',#423,#419,#165,.T.);
#474=EDGE_CURVE('',#418,#424,#48,.T.);
#475=EDGE_CURVE('',#423,#425,#166,.T.);
#476=EDGE_CURVE('',#426,#425,#167,.T.);
#477=EDGE_CURVE('',#427,#426,#168,.T.);
#478=EDGE_CURVE('',#427,#428,#49,.T.);
#479=EDGE_CURVE('',#429,#428,#169,.T.);
#480=EDGE_CURVE('',#429,#430,#50,.T.);
#481=EDGE_CURVE('',#431,#430,#170,.T.);
#482=EDGE_CURVE('',#432,#431,#171,.T.);
#483=EDGE_CURVE('',#432,#433,#172,.T.);
#484=EDGE_CURVE('',#434,#433,#51,.T.);
#485=EDGE_CURVE('',#434,#424,#173,.T.);
#486=EDGE_CURVE('',#424,#435,#539,.T.);
#487=EDGE_CURVE('',#433,#434,#540,.T.);
#488=EDGE_CURVE('',#436,#432,#174,.T.);
#489=EDGE_CURVE('',#437,#436,#175,.T.);
#490=EDGE_CURVE('',#435,#437,#176,.T.);
#491=EDGE_CURVE('',#438,#422,#177,.T.);
#492=EDGE_CURVE('',#425,#438,#178,.T.);
#493=EDGE_CURVE('',#439,#440,#52,.T.);
#494=EDGE_CURVE('',#439,#441,#179,.T.);
#495=EDGE_CURVE('',#442,#441,#180,.T.);
#496=EDGE_CURVE('',#442,#443,#181,.T.);
#497=EDGE_CURVE('',#444,#443,#182,.T.);
#498=EDGE_CURVE('',#444,#440,#183,.T.);
#499=EDGE_CURVE('',#445,#426,#184,.T.);
#500=EDGE_CURVE('',#446,#438,#185,.T.);
#501=EDGE_CURVE('',#446,#447,#186,.T.);
#502=EDGE_CURVE('',#447,#436,#187,.T.);
#503=EDGE_CURVE('',#448,#431,#188,.T.);
#504=EDGE_CURVE('',#445,#448,#189,.T.);
#505=EDGE_CURVE('',#449,#421,#190,.T.);
#506=EDGE_CURVE('',#450,#449,#191,.T.);
#507=EDGE_CURVE('',#450,#451,#192,.T.);
#508=EDGE_CURVE('',#452,#451,#193,.T.);
#509=EDGE_CURVE('',#452,#446,#194,.T.);
#510=EDGE_CURVE('',#451,#444,#195,.T.);
#511=EDGE_CURVE('',#443,#453,#196,.T.);
#512=EDGE_CURVE('',#454,#453,#197,.T.);
#513=EDGE_CURVE('',#454,#452,#198,.T.);
#514=EDGE_CURVE('',#455,#455,#53,.T.);
#515=EDGE_CURVE('',#456,#456,#54,.T.);
#516=EDGE_CURVE('',#447,#454,#199,.T.);
#517=EDGE_CURVE('',#437,#457,#200,.T.);
#518=EDGE_CURVE('',#453,#458,#201,.T.);
#519=EDGE_CURVE('',#459,#458,#202,.T.);
#520=EDGE_CURVE('',#457,#459,#203,.T.);
#521=EDGE_CURVE('',#458,#442,#204,.T.);
#522=EDGE_CURVE('',#440,#439,#541,.T.);
#523=EDGE_CURVE('',#441,#450,#205,.T.);
#524=EDGE_CURVE('',#445,#460,#206,.T.);
#525=EDGE_CURVE('',#460,#427,#207,.T.);
#526=EDGE_CURVE('',#428,#461,#208,.T.);
#527=EDGE_CURVE('',#461,#462,#209,.T.);
#528=EDGE_CURVE('',#462,#429,#210,.T.);
#529=EDGE_CURVE('',#461,#460,#55,.T.);
#530=EDGE_CURVE('',#463,#448,#211,.T.);
#531=EDGE_CURVE('',#463,#462,#56,.T.);
#532=EDGE_CURVE('',#430,#463,#212,.T.);
#533=EDGE_CURVE('',#457,#464,#213,.T.);
#534=EDGE_CURVE('',#464,#435,#214,.T.);
#535=EDGE_CURVE('',#449,#459,#215,.T.);
#536=EDGE_CURVE('',#420,#464,#57,.T.);
#537=EDGE_CURVE('',#465,#465,#58,.T.);
#538=ELLIPSE('',#543,13.5057395206631,9.55);
#539=ELLIPSE('',#551,13.5057395206631,9.55);
#540=ELLIPSE('',#552,15.9099025766973,11.25);
#541=ELLIPSE('',#565,6.22253967444162,4.4);
#542=AXIS2_PLACEMENT_3D('',#725,#584,#585);
#543=AXIS2_PLACEMENT_3D('',#726,#586,#587);
#544=AXIS2_PLACEMENT_3D('',#732,#590,#591);
#545=AXIS2_PLACEMENT_3D('',#742,#597,#598);
#546=AXIS2_PLACEMENT_3D('',#743,#599,#600);
#547=AXIS2_PLACEMENT_3D('',#751,#604,#605);
#548=AXIS2_PLACEMENT_3D('',#755,#607,#608);
#549=AXIS2_PLACEMENT_3D('',#763,#612,#613);
#550=AXIS2_PLACEMENT_3D('',#766,#615,#616);
#551=AXIS2_PLACEMENT_3D('',#767,#617,#618);
#552=AXIS2_PLACEMENT_3D('',#769,#619,#620);
#553=AXIS2_PLACEMENT_3D('',#775,#624,#625);
#554=AXIS2_PLACEMENT_3D('',#779,#628,#629);
#555=AXIS2_PLACEMENT_3D('',#780,#630,#631);
#556=AXIS2_PLACEMENT_3D('',#792,#637,#638);
#557=AXIS2_PLACEMENT_3D('',#803,#645,#646);
#558=AXIS2_PLACEMENT_3D('',#813,#652,#653);
#559=AXIS2_PLACEMENT_3D('',#820,#658,#659);
#560=AXIS2_PLACEMENT_3D('',#821,#660,#661);
#561=AXIS2_PLACEMENT_3D('',#823,#662,#663);
#562=AXIS2_PLACEMENT_3D('',#826,#665,#666);
#563=AXIS2_PLACEMENT_3D('',#834,#671,#672);
#564=AXIS2_PLACEMENT_3D('',#836,#674,#675);
#565=AXIS2_PLACEMENT_3D('',#837,#676,#677);
#566=AXIS2_PLACEMENT_3D('',#839,#679,#680);
#567=AXIS2_PLACEMENT_3D('',#843,#683,#684);
#568=AXIS2_PLACEMENT_3D('',#849,#688,#689);
#569=AXIS2_PLACEMENT_3D('',#850,#690,#691);
#570=AXIS2_PLACEMENT_3D('',#853,#693,#694);
#571=AXIS2_PLACEMENT_3D('',#854,#695,#696);
#572=AXIS2_PLACEMENT_3D('',#856,#698,#699);
#573=AXIS2_PLACEMENT_3D('',#857,#700,#701);
#574=AXIS2_PLACEMENT_3D('',#858,#702,#703);
#575=AXIS2_PLACEMENT_3D('',#862,#706,#707);
#576=AXIS2_PLACEMENT_3D('',#864,#709,#710);
#577=AXIS2_PLACEMENT_3D('',#865,#711,#712);
#578=AXIS2_PLACEMENT_3D('',#866,#713,#714);
#579=AXIS2_PLACEMENT_3D('',#867,#715,#716);
#580=AXIS2_PLACEMENT_3D('',#868,#717,#718);
#581=AXIS2_PLACEMENT_3D('',#870,#719,#720);
#582=AXIS2_PLACEMENT_3D('',#871,#721,#722);
#583=AXIS2_PLACEMENT_3D('',#872,#723,#724);
#584=DIRECTION('',(0.,0.,1.));
#585=DIRECTION('',(1.,0.,0.));
#586=DIRECTION('',(0.707106781186548,0.,0.707106781186547));
#587=DIRECTION('',(0.707106781186547,0.,-0.707106781186548));
#588=DIRECTION('',(0.707106781186547,0.,-0.707106781186548));
#589=DIRECTION('',(0.,1.,0.));
#590=DIRECTION('',(-0.707106781186548,0.,-0.707106781186547));
#591=DIRECTION('',(0.,-1.,0.));
#592=DIRECTION('',(0.,0.,-1.));
#593=DIRECTION('',(-1.,0.,0.));
#594=DIRECTION('',(0.,0.,1.));
#595=DIRECTION('',(0.707106781186548,0.,0.707106781186548));
#596=DIRECTION('',(1.,0.,0.));
#597=DIRECTION('',(0.,-1.,0.));
#598=DIRECTION('',(0.,0.,-1.));
#599=DIRECTION('',(0.,0.,1.));
#600=DIRECTION('',(1.,0.,0.));
#601=DIRECTION('',(0.,-1.,0.));
#602=DIRECTION('',(-1.,0.,0.));
#603=DIRECTION('',(0.,-1.,0.));
#604=DIRECTION('',(0.,0.,-1.));
#605=DIRECTION('',(1.,0.,0.));
#606=DIRECTION('',(-1.,0.,0.));
#607=DIRECTION('',(0.,0.,-1.));
#608=DIRECTION('',(1.,0.,0.));
#609=DIRECTION('',(0.,1.,0.));
#610=DIRECTION('',(-1.,0.,0.));
#611=DIRECTION('',(0.,1.,0.));
#612=DIRECTION('',(0.,0.,1.));
#613=DIRECTION('',(0.999999999999998,0.,0.));
#614=DIRECTION('',(0.,1.,0.));
#615=DIRECTION('',(0.,0.,1.));
#616=DIRECTION('',(1.,0.,0.));
#617=DIRECTION('',(0.707106781186548,0.,0.707106781186547));
#618=DIRECTION('',(0.707106781186547,0.,-0.707106781186548));
#619=DIRECTION('',(0.707106781186548,0.,0.707106781186547));
#620=DIRECTION('',(0.707106781186547,0.,-0.707106781186548));
#621=DIRECTION('',(-0.707106781186547,0.,0.707106781186548));
#622=DIRECTION('',(0.,-1.,0.));
#623=DIRECTION('',(0.707106781186547,0.,-0.707106781186548));
#624=DIRECTION('',(-0.707106781186548,0.,-0.707106781186547));
#625=DIRECTION('',(0.,-1.,0.));
#626=DIRECTION('',(0.,1.,0.));
#627=DIRECTION('',(-0.707106781186548,0.,-0.707106781186548));
#628=DIRECTION('',(0.707106781186547,0.,-0.707106781186547));
#629=DIRECTION('',(0.,1.,0.));
#630=DIRECTION('',(0.,0.,1.));
#631=DIRECTION('',(1.,0.,0.));
#632=DIRECTION('',(0.,-1.,0.));
#633=DIRECTION('',(-1.,0.,0.));
#634=DIRECTION('',(0.,1.,0.));
#635=DIRECTION('',(1.,0.,0.));
#636=DIRECTION('',(0.,-1.,0.));
#637=DIRECTION('',(0.,0.,1.));
#638=DIRECTION('',(1.,0.,0.));
#639=DIRECTION('',(0.,0.,1.));
#640=DIRECTION('',(0.,0.,1.));
#641=DIRECTION('',(1.,0.,0.));
#642=DIRECTION('',(0.,0.,1.));
#643=DIRECTION('',(0.,0.,1.));
#644=DIRECTION('',(1.,0.,0.));
#645=DIRECTION('',(0.,-1.,0.));
#646=DIRECTION('',(0.,0.,-1.));
#647=DIRECTION('',(0.,-1.,0.));
#648=DIRECTION('',(0.,0.,-1.));
#649=DIRECTION('',(0.,1.,0.));
#650=DIRECTION('',(0.,0.,1.));
#651=DIRECTION('',(0.,-1.,0.));
#652=DIRECTION('',(-1.,0.,0.));
#653=DIRECTION('',(0.,0.,1.));
#654=DIRECTION('',(0.707106781186548,0.,0.707106781186548));
#655=DIRECTION('',(0.707106781186547,0.,-0.707106781186548));
#656=DIRECTION('',(0.,0.,1.));
#657=DIRECTION('',(-1.,0.,0.));
#658=DIRECTION('',(0.,1.,0.));
#659=DIRECTION('',(0.,0.,1.));
#660=DIRECTION('',(0.,0.,-1.));
#661=DIRECTION('',(-1.,0.,0.));
#662=DIRECTION('',(0.,0.,-1.));
#663=DIRECTION('',(-0.999999999999998,0.,0.));
#664=DIRECTION('',(0.,1.,0.));
#665=DIRECTION('',(0.,0.,-1.));
#666=DIRECTION('',(-1.,0.,0.));
#667=DIRECTION('',(0.,0.,-1.));
#668=DIRECTION('',(0.,-1.,0.));
#669=DIRECTION('',(0.,0.,1.));
#670=DIRECTION('',(0.,1.,0.));
#671=DIRECTION('',(1.,0.,0.));
#672=DIRECTION('',(0.,0.,-1.));
#673=DIRECTION('',(-0.707106781186547,0.,0.707106781186548));
#674=DIRECTION('',(-0.707106781186548,0.,-0.707106781186547));
#675=DIRECTION('',(0.,-1.,0.));
#676=DIRECTION('',(-0.707106781186548,0.,0.707106781186548));
#677=DIRECTION('',(-0.707106781186548,0.,-0.707106781186548));
#678=DIRECTION('',(-0.707106781186548,0.,-0.707106781186548));
#679=DIRECTION('',(0.707106781186547,0.,-0.707106781186547));
#680=DIRECTION('',(0.,1.,0.));
#681=DIRECTION('',(0.,1.,0.));
#682=DIRECTION('',(0.,0.,1.));
#683=DIRECTION('',(-1.,0.,0.));
#684=DIRECTION('',(0.,0.,1.));
#685=DIRECTION('',(0.,0.,-1.));
#686=DIRECTION('',(1.,0.,0.));
#687=DIRECTION('',(0.,0.,1.));
#688=DIRECTION('',(0.,1.,0.));
#689=DIRECTION('',(0.,0.,1.));
#690=DIRECTION('',(0.,0.,1.));
#691=DIRECTION('',(-1.,0.,0.));
#692=DIRECTION('',(0.,-1.,0.));
#693=DIRECTION('',(0.,0.,1.));
#694=DIRECTION('',(-1.,0.,0.));
#695=DIRECTION('',(0.,0.,-1.));
#696=DIRECTION('',(-1.,0.,0.));
#697=DIRECTION('',(0.,0.,-1.));
#698=DIRECTION('',(1.,0.,0.));
#699=DIRECTION('',(0.,0.,-1.));
#700=DIRECTION('',(0.,0.,1.));
#701=DIRECTION('',(1.,0.,0.));
#702=DIRECTION('',(0.,0.,1.));
#703=DIRECTION('',(1.,0.,0.));
#704=DIRECTION('',(-1.,0.,0.));
#705=DIRECTION('',(0.,0.,1.));
#706=DIRECTION('',(0.,-1.,0.));
#707=DIRECTION('',(0.,0.,-1.));
#708=DIRECTION('',(1.,0.,0.));
#709=DIRECTION('',(0.,1.,0.));
#710=DIRECTION('',(0.,0.,1.));
#711=DIRECTION('',(0.,0.,-1.));
#712=DIRECTION('',(-1.,0.,0.));
#713=DIRECTION('',(0.,0.,-1.));
#714=DIRECTION('',(-1.,0.,0.));
#715=DIRECTION('',(0.,0.,-1.));
#716=DIRECTION('',(0.999999999999998,0.,0.));
#717=DIRECTION('',(0.,0.,-1.));
#718=DIRECTION('',(1.,0.,0.));
#719=DIRECTION('',(0.,0.,-1.));
#720=DIRECTION('',(-1.,0.,0.));
#721=DIRECTION('',(0.,0.,-1.));
#722=DIRECTION('',(1.,0.,0.));
#723=DIRECTION('',(0.,0.,-1.));
#724=DIRECTION('',(1.,0.,0.));
#725=CARTESIAN_POINT('',(0.,0.,0.));
#726=CARTESIAN_POINT('',(375.6,118.5,117.4));
#727=CARTESIAN_POINT('',(370.704849338376,126.7,122.295150661624));
#728=CARTESIAN_POINT('',(367.,122.652408939399,126.));
#729=CARTESIAN_POINT('',(391.8,126.7,101.2));
#730=CARTESIAN_POINT('',(367.,126.7,126.));
#731=CARTESIAN_POINT('',(367.,166.25,126.));
#732=CARTESIAN_POINT('',(391.8,166.25,101.2));
#733=CARTESIAN_POINT('',(370.704849338376,126.7,126.05));
#734=CARTESIAN_POINT('',(370.704849338376,126.7,73.1));
#735=CARTESIAN_POINT('',(195.9,126.7,73.1));
#736=CARTESIAN_POINT('',(0.,126.7,73.1));
#737=CARTESIAN_POINT('',(0.,126.7,0.));
#738=CARTESIAN_POINT('',(0.,126.7,103.1));
#739=CARTESIAN_POINT('',(0.,126.7,103.1));
#740=CARTESIAN_POINT('',(22.9,126.7,126.));
#741=CARTESIAN_POINT('',(195.9,126.7,126.));
#742=CARTESIAN_POINT('',(195.9,126.7,73.1));
#743=CARTESIAN_POINT('',(375.6,118.5,126.));
#744=CARTESIAN_POINT('',(367.,114.347591060601,126.));
#745=CARTESIAN_POINT('',(22.9,166.25,126.));
#746=CARTESIAN_POINT('',(22.9,0.,126.));
#747=CARTESIAN_POINT('',(195.9,0.,126.));
#748=CARTESIAN_POINT('',(83.7,0.,126.));
#749=CARTESIAN_POINT('',(83.7,166.25,126.));
#750=CARTESIAN_POINT('',(83.7,80.7,126.));
#751=CARTESIAN_POINT('',(92.8,80.7,126.));
#752=CARTESIAN_POINT('',(92.8,89.8,126.));
#753=CARTESIAN_POINT('',(195.9,89.8,126.));
#754=CARTESIAN_POINT('',(182.5,89.8,126.));
#755=CARTESIAN_POINT('',(182.5,80.7,126.));
#756=CARTESIAN_POINT('',(191.6,80.7,126.));
#757=CARTESIAN_POINT('',(191.6,166.25,126.));
#758=CARTESIAN_POINT('',(191.6,0.,126.));
#759=CARTESIAN_POINT('',(195.9,0.,126.));
#760=CARTESIAN_POINT('',(367.,0.,126.));
#761=CARTESIAN_POINT('',(367.,166.25,126.));
#762=CARTESIAN_POINT('',(367.,70.2499999999999,126.));
#763=CARTESIAN_POINT('',(376.,77.,126.));
#764=CARTESIAN_POINT('',(367.,83.7500000000001,126.));
#765=CARTESIAN_POINT('',(367.,166.25,126.));
#766=CARTESIAN_POINT('',(195.9,166.25,126.));
#767=CARTESIAN_POINT('',(375.6,118.5,117.4));
#768=CARTESIAN_POINT('',(380.495150661624,126.7,112.504849338376));
#769=CARTESIAN_POINT('',(376.,77.,117.));
#770=CARTESIAN_POINT('',(344.45,0.,148.55));
#771=CARTESIAN_POINT('',(391.8,0.,101.2));
#772=CARTESIAN_POINT('',(391.8,166.25,101.2));
#773=CARTESIAN_POINT('',(391.8,126.7,101.2));
#774=CARTESIAN_POINT('',(391.8,126.7,101.2));
#775=CARTESIAN_POINT('',(391.8,166.25,101.2));
#776=CARTESIAN_POINT('',(0.,166.25,103.1));
#777=CARTESIAN_POINT('',(0.,0.,103.1));
#778=CARTESIAN_POINT('',(46.4,0.,149.5));
#779=CARTESIAN_POINT('',(0.,166.25,103.1));
#780=CARTESIAN_POINT('',(20.7,231.7,126.));
#781=CARTESIAN_POINT('',(22.9,227.889488223348,126.));
#782=CARTESIAN_POINT('',(22.9,235.510511776651,126.));
#783=CARTESIAN_POINT('',(22.9,166.25,126.));
#784=CARTESIAN_POINT('',(22.9,166.4,126.));
#785=CARTESIAN_POINT('',(195.9,166.4,126.));
#786=CARTESIAN_POINT('',(367.,166.4,126.));
#787=CARTESIAN_POINT('',(367.,166.25,126.));
#788=CARTESIAN_POINT('',(367.,332.5,126.));
#789=CARTESIAN_POINT('',(195.9,332.5,126.));
#790=CARTESIAN_POINT('',(22.9,332.5,126.));
#791=CARTESIAN_POINT('',(22.9,166.25,126.));
#792=CARTESIAN_POINT('',(195.9,166.25,126.));
#793=CARTESIAN_POINT('',(83.7,0.,97.4));
#794=CARTESIAN_POINT('',(83.7,0.,97.4));
#795=CARTESIAN_POINT('',(0.,0.,0.));
#796=CARTESIAN_POINT('',(0.,0.,0.));
#797=CARTESIAN_POINT('',(195.9,0.,0.));
#798=CARTESIAN_POINT('',(391.8,0.,0.));
#799=CARTESIAN_POINT('',(391.8,0.,0.));
#800=CARTESIAN_POINT('',(191.6,0.,97.4));
#801=CARTESIAN_POINT('',(191.6,0.,97.4));
#802=CARTESIAN_POINT('',(137.65,0.,97.4));
#803=CARTESIAN_POINT('',(195.9,0.,0.));
#804=CARTESIAN_POINT('',(0.,166.25,73.1));
#805=CARTESIAN_POINT('',(0.,166.4,73.1));
#806=CARTESIAN_POINT('',(0.,166.4,0.));
#807=CARTESIAN_POINT('',(0.,166.4,103.1));
#808=CARTESIAN_POINT('',(0.,166.25,103.1));
#809=CARTESIAN_POINT('',(0.,332.5,103.1));
#810=CARTESIAN_POINT('',(0.,332.5,0.));
#811=CARTESIAN_POINT('',(0.,332.5,0.));
#812=CARTESIAN_POINT('',(0.,166.25,0.));
#813=CARTESIAN_POINT('',(0.,166.25,0.));
#814=CARTESIAN_POINT('',(46.4,332.5,149.5));
#815=CARTESIAN_POINT('',(344.45,332.5,148.55));
#816=CARTESIAN_POINT('',(391.8,332.5,101.2));
#817=CARTESIAN_POINT('',(391.8,332.5,0.));
#818=CARTESIAN_POINT('',(391.8,332.5,0.));
#819=CARTESIAN_POINT('',(195.9,332.5,0.));
#820=CARTESIAN_POINT('',(195.9,332.5,0.));
#821=CARTESIAN_POINT('',(375.6,118.5,0.));
#822=CARTESIAN_POINT('',(366.05,118.5,0.));
#823=CARTESIAN_POINT('',(376.,77.,0.));
#824=CARTESIAN_POINT('',(364.75,77.,0.));
#825=CARTESIAN_POINT('',(391.8,166.25,0.));
#826=CARTESIAN_POINT('',(195.9,166.25,0.));
#827=CARTESIAN_POINT('',(391.8,126.7,0.));
#828=CARTESIAN_POINT('',(391.8,126.7,73.1));
#829=CARTESIAN_POINT('',(391.8,166.25,101.2));
#830=CARTESIAN_POINT('',(391.8,166.4,101.2));
#831=CARTESIAN_POINT('',(391.8,166.4,0.));
#832=CARTESIAN_POINT('',(391.8,166.4,73.1));
#833=CARTESIAN_POINT('',(391.8,166.25,73.1));
#834=CARTESIAN_POINT('',(391.8,166.25,0.));
#835=CARTESIAN_POINT('',(391.8,166.4,101.2));
#836=CARTESIAN_POINT('',(391.8,166.25,101.2));
#837=CARTESIAN_POINT('',(20.7,231.7,123.8));
#838=CARTESIAN_POINT('',(0.,166.4,103.1));
#839=CARTESIAN_POINT('',(0.,166.25,103.1));
#840=CARTESIAN_POINT('',(83.7,44.9,97.4));
#841=CARTESIAN_POINT('',(83.7,80.7,97.4));
#842=CARTESIAN_POINT('',(83.7,80.7,126.));
#843=CARTESIAN_POINT('',(83.7,44.9,97.4));
#844=CARTESIAN_POINT('',(92.8,89.8,97.4));
#845=CARTESIAN_POINT('',(92.8,89.8,97.4));
#846=CARTESIAN_POINT('',(137.65,89.8,97.4));
#847=CARTESIAN_POINT('',(182.5,89.8,97.4));
#848=CARTESIAN_POINT('',(182.5,89.8,126.));
#849=CARTESIAN_POINT('',(137.65,89.8,97.4));
#850=CARTESIAN_POINT('',(92.8,80.7,97.4));
#851=CARTESIAN_POINT('',(191.6,44.9,97.4));
#852=CARTESIAN_POINT('',(191.6,80.7,97.4));
#853=CARTESIAN_POINT('',(182.5,80.7,97.4));
#854=CARTESIAN_POINT('',(137.65,44.9,97.4));
#855=CARTESIAN_POINT('',(191.6,80.7,97.4));
#856=CARTESIAN_POINT('',(191.6,44.9,97.4));
#857=CARTESIAN_POINT('',(92.8,80.7,97.4));
#858=CARTESIAN_POINT('',(182.5,80.7,97.4));
#859=CARTESIAN_POINT('',(195.9,126.7,73.1));
#860=CARTESIAN_POINT('',(380.495150661624,126.7,73.1));
#861=CARTESIAN_POINT('',(380.495150661624,126.7,126.05));
#862=CARTESIAN_POINT('',(195.9,126.7,73.1));
#863=CARTESIAN_POINT('',(195.9,166.4,73.1));
#864=CARTESIAN_POINT('',(195.9,166.4,73.1));
#865=CARTESIAN_POINT('',(375.6,118.5,73.1));
#866=CARTESIAN_POINT('',(195.9,146.55,73.1));
#867=CARTESIAN_POINT('',(376.,77.,126.05));
#868=CARTESIAN_POINT('',(20.7,231.7,69.3));
#869=CARTESIAN_POINT('',(25.1,231.7,69.3));
#870=CARTESIAN_POINT('',(20.7,231.7,69.3));
#871=CARTESIAN_POINT('',(20.7,231.7,126.05));
#872=CARTESIAN_POINT('',(375.6,118.5,126.05));
#873=MECHANICAL_DESIGN_GEOMETRIC_PRESENTATION_REPRESENTATION('',(#24),#874);
#874=(
GEOMETRIC_REPRESENTATION_CONTEXT(3)
GLOBAL_UNCERTAINTY_ASSIGNED_CONTEXT((#875))
GLOBAL_UNIT_ASSIGNED_CONTEXT((#881,#877,#876))
REPRESENTATION_CONTEXT('featured_part_09230','TOP_LEVEL_ASSEMBLY_PART')
);
#875=UNCERTAINTY_MEASURE_WITH_UNIT(LENGTH_MEASURE(2.E-5),#881,
'DISTANCE_ACCURACY_VALUE','Maximum Tolerance applied to model');
#876=(
NAMED_UNIT(*)
SI_UNIT($,.STERADIAN.)
SOLID_ANGLE_UNIT()
);
#877=(
CONVERSION_BASED_UNIT('DEGREE',#879)
NAMED_UNIT(#878)
PLANE_ANGLE_UNIT()
);
#878=DIMENSIONAL_EXPONENTS(0.,0.,0.,0.,0.,0.,0.);
#879=PLANE_ANGLE_MEASURE_WITH_UNIT(PLANE_ANGLE_MEASURE(0.0174532925),#880);
#880=(
NAMED_UNIT(*)
PLANE_ANGLE_UNIT()
SI_UNIT($,.RADIAN.)
);
#881=(
LENGTH_UNIT()
NAMED_UNIT(*)
SI_UNIT(.MILLI.,.METRE.)
);
ENDSEC;
END-ISO-10303-21;
