ISO-10303-21;
HEADER;
/* Generated by software containing ST-Developer
 * from STEP Tools, Inc. (www.steptools.com) 
 */
/* OPTION: using custom schema-name function */

FILE_DESCRIPTION(
/* description */ (''),
/* implementation_level */ '2;1');

FILE_NAME(
/* name */ 'featured_part_07991.stp',
/* time_stamp */ '2026-07-10T13:43:23-04:00',
/* author */ (''),
/* organization */ (''),
/* preprocessor_version */ 'ST-DEVELOPER v20.1',
/* originating_system */ 'SIEMENS PLM Software NX2512.6002',
/* authorisation */ '');

FILE_SCHEMA (('AUTOMOTIVE_DESIGN { 1 0 10303 214 3 1 1 1 }'));
ENDSEC;

DATA;
#10=SHAPE_REPRESENTATION_RELATIONSHIP('None',
'relationship between featured_part_07991-None and featured_part_07991
-None',#22,#11);
#11=ADVANCED_BREP_SHAPE_REPRESENTATION('featured_part_07991-None',(#32),
#674);
#12=SHAPE_DEFINITION_REPRESENTATION(#13,#22);
#13=PRODUCT_DEFINITION_SHAPE('','',#14);
#14=PRODUCT_DEFINITION(' ','',#16,#15);
#15=PRODUCT_DEFINITION_CONTEXT('part definition',#21,'design');
#16=PRODUCT_DEFINITION_FORMATION_WITH_SPECIFIED_SOURCE(' ',' ',#18,
 .NOT_KNOWN.);
#17=PRODUCT_RELATED_PRODUCT_CATEGORY('part','',(#18));
#18=PRODUCT('featured_part_07991','featured_part_07991',' ',(#19));
#19=PRODUCT_CONTEXT(' ',#21,'mechanical');
#20=APPLICATION_PROTOCOL_DEFINITION('international standard',
'automotive_design',2010,#21);
#21=APPLICATION_CONTEXT(
'core data for automotive mechanical design processes');
#22=SHAPE_REPRESENTATION('featured_part_07991-None',(#411),#674);
#23=PRESENTATION_LAYER_ASSIGNMENT('1','Layer 1',(#32));
#24=STYLED_ITEM('',(#25),#32);
#25=PRESENTATION_STYLE_ASSIGNMENT((#26));
#26=SURFACE_STYLE_USAGE(.BOTH.,#27);
#27=SURFACE_SIDE_STYLE('',(#28));
#28=SURFACE_STYLE_FILL_AREA(#29);
#29=FILL_AREA_STYLE('',(#30));
#30=FILL_AREA_STYLE_COLOUR('',#31);
#31=COLOUR_RGB('medium steel',0.611764705882353,0.658823529411765,0.670588235294118);
#32=MANIFOLD_SOLID_BREP('',#33);
#33=CLOSED_SHELL('',(#58,#59,#60,#61,#62,#63,#64,#65,#66,#67,#68,#69,#70,
#71,#72,#73,#74,#75,#76,#77,#78));
#34=CYLINDRICAL_SURFACE('',#441,7.6);
#35=CYLINDRICAL_SURFACE('',#442,7.6);
#36=CYLINDRICAL_SURFACE('',#443,7.6);
#37=CYLINDRICAL_SURFACE('',#444,7.6);
#38=CYLINDRICAL_SURFACE('',#445,6.45);
#39=CYLINDRICAL_SURFACE('',#448,8.15);
#40=CYLINDRICAL_SURFACE('',#449,9.65);
#41=CYLINDRICAL_SURFACE('',#450,21.);
#42=ELLIPSE('',#428,13.6471608769004,9.65);
#43=ELLIPSE('',#429,9.12167747730647,6.45);
#44=FACE_OUTER_BOUND('',#112,.T.);
#45=FACE_OUTER_BOUND('',#113,.T.);
#46=FACE_OUTER_BOUND('',#114,.T.);
#47=FACE_OUTER_BOUND('',#119,.T.);
#48=FACE_OUTER_BOUND('',#120,.T.);
#49=FACE_OUTER_BOUND('',#121,.T.);
#50=FACE_OUTER_BOUND('',#122,.T.);
#51=FACE_OUTER_BOUND('',#123,.T.);
#52=FACE_OUTER_BOUND('',#126,.T.);
#53=FACE_OUTER_BOUND('',#127,.T.);
#54=FACE_OUTER_BOUND('',#128,.T.);
#55=FACE_OUTER_BOUND('',#129,.T.);
#56=FACE_OUTER_BOUND('',#130,.T.);
#57=FACE_OUTER_BOUND('',#133,.T.);
#58=ADVANCED_FACE('',(#92,#93,#94),#79,.T.);
#59=ADVANCED_FACE('',(#44),#80,.T.);
#60=ADVANCED_FACE('',(#45),#81,.T.);
#61=ADVANCED_FACE('',(#46),#82,.T.);
#62=ADVANCED_FACE('',(#95,#96,#97,#98),#83,.T.);
#63=ADVANCED_FACE('',(#47),#84,.T.);
#64=ADVANCED_FACE('',(#48),#85,.F.);
#65=ADVANCED_FACE('',(#49),#86,.F.);
#66=ADVANCED_FACE('',(#50),#87,.F.);
#67=ADVANCED_FACE('',(#51),#88,.F.);
#68=ADVANCED_FACE('',(#99,#100),#89,.F.);
#69=ADVANCED_FACE('',(#52),#90,.F.);
#70=ADVANCED_FACE('',(#53),#34,.F.);
#71=ADVANCED_FACE('',(#54),#35,.F.);
#72=ADVANCED_FACE('',(#55),#36,.F.);
#73=ADVANCED_FACE('',(#56),#37,.F.);
#74=ADVANCED_FACE('',(#101,#102),#38,.F.);
#75=ADVANCED_FACE('',(#57),#91,.F.);
#76=ADVANCED_FACE('',(#103,#104),#39,.F.);
#77=ADVANCED_FACE('',(#105,#106),#40,.F.);
#78=ADVANCED_FACE('',(#107,#108),#41,.F.);
#79=PLANE('',#419);
#80=PLANE('',#420);
#81=PLANE('',#421);
#82=PLANE('',#422);
#83=PLANE('',#426);
#84=PLANE('',#427);
#85=PLANE('',#430);
#86=PLANE('',#431);
#87=PLANE('',#432);
#88=PLANE('',#433);
#89=PLANE('',#439);
#90=PLANE('',#440);
#91=PLANE('',#447);
#92=FACE_BOUND('',#109,.T.);
#93=FACE_BOUND('',#110,.T.);
#94=FACE_BOUND('',#111,.T.);
#95=FACE_BOUND('',#115,.T.);
#96=FACE_BOUND('',#116,.T.);
#97=FACE_BOUND('',#117,.T.);
#98=FACE_BOUND('',#118,.T.);
#99=FACE_BOUND('',#124,.T.);
#100=FACE_BOUND('',#125,.T.);
#101=FACE_BOUND('',#131,.T.);
#102=FACE_BOUND('',#132,.T.);
#103=FACE_BOUND('',#134,.T.);
#104=FACE_BOUND('',#135,.T.);
#105=FACE_BOUND('',#136,.T.);
#106=FACE_BOUND('',#137,.T.);
#107=FACE_BOUND('',#138,.T.);
#108=FACE_BOUND('',#139,.T.);
#109=EDGE_LOOP('',(#206,#207,#208,#209,#210,#211,#212,#213));
#110=EDGE_LOOP('',(#214));
#111=EDGE_LOOP('',(#215,#216,#217,#218,#219,#220,#221,#222));
#112=EDGE_LOOP('',(#223,#224,#225,#226));
#113=EDGE_LOOP('',(#227,#228,#229,#230,#231));
#114=EDGE_LOOP('',(#232,#233,#234,#235));
#115=EDGE_LOOP('',(#236));
#116=EDGE_LOOP('',(#237));
#117=EDGE_LOOP('',(#238));
#118=EDGE_LOOP('',(#239,#240,#241,#242));
#119=EDGE_LOOP('',(#243,#244,#245,#246,#247));
#120=EDGE_LOOP('',(#248,#249,#250,#251,#252,#253,#254,#255));
#121=EDGE_LOOP('',(#256,#257,#258,#259));
#122=EDGE_LOOP('',(#260,#261,#262,#263));
#123=EDGE_LOOP('',(#264,#265,#266,#267));
#124=EDGE_LOOP('',(#268));
#125=EDGE_LOOP('',(#269,#270,#271,#272,#273,#274,#275,#276));
#126=EDGE_LOOP('',(#277,#278,#279,#280));
#127=EDGE_LOOP('',(#281,#282,#283,#284));
#128=EDGE_LOOP('',(#285,#286,#287,#288));
#129=EDGE_LOOP('',(#289,#290,#291,#292));
#130=EDGE_LOOP('',(#293,#294,#295,#296));
#131=EDGE_LOOP('',(#297));
#132=EDGE_LOOP('',(#298,#299));
#133=EDGE_LOOP('',(#300));
#134=EDGE_LOOP('',(#301));
#135=EDGE_LOOP('',(#302));
#136=EDGE_LOOP('',(#303));
#137=EDGE_LOOP('',(#304,#305));
#138=EDGE_LOOP('',(#306));
#139=EDGE_LOOP('',(#307));
#140=LINE('',#568,#173);
#141=LINE('',#572,#174);
#142=LINE('',#574,#175);
#143=LINE('',#576,#176);
#144=LINE('',#578,#177);
#145=LINE('',#580,#178);
#146=LINE('',#583,#179);
#147=LINE('',#588,#180);
#148=LINE('',#592,#181);
#149=LINE('',#596,#182);
#150=LINE('',#600,#183);
#151=LINE('',#603,#184);
#152=LINE('',#605,#185);
#153=LINE('',#607,#186);
#154=LINE('',#609,#187);
#155=LINE('',#610,#188);
#156=LINE('',#612,#189);
#157=LINE('',#614,#190);
#158=LINE('',#616,#191);
#159=LINE('',#624,#192);
#160=LINE('',#626,#193);
#161=LINE('',#631,#194);
#162=LINE('',#633,#195);
#163=LINE('',#635,#196);
#164=LINE('',#637,#197);
#165=LINE('',#639,#198);
#166=LINE('',#641,#199);
#167=LINE('',#643,#200);
#168=LINE('',#646,#201);
#169=LINE('',#647,#202);
#170=LINE('',#653,#203);
#171=LINE('',#659,#204);
#172=LINE('',#660,#205);
#173=VECTOR('',#455,1.);
#174=VECTOR('',#458,1.);
#175=VECTOR('',#459,1.);
#176=VECTOR('',#460,1.);
#177=VECTOR('',#461,1.);
#178=VECTOR('',#462,1.);
#179=VECTOR('',#465,1.);
#180=VECTOR('',#468,1.);
#181=VECTOR('',#471,1.);
#182=VECTOR('',#474,1.);
#183=VECTOR('',#479,1.);
#184=VECTOR('',#480,1.);
#185=VECTOR('',#481,1.);
#186=VECTOR('',#482,1.);
#187=VECTOR('',#485,1.);
#188=VECTOR('',#486,1.);
#189=VECTOR('',#487,1.);
#190=VECTOR('',#490,1.);
#191=VECTOR('',#491,1.);
#192=VECTOR('',#500,1.);
#193=VECTOR('',#503,1.);
#194=VECTOR('',#512,1.);
#195=VECTOR('',#513,1.);
#196=VECTOR('',#514,1.);
#197=VECTOR('',#517,1.);
#198=VECTOR('',#518,1.);
#199=VECTOR('',#519,1.);
#200=VECTOR('',#522,1.);
#201=VECTOR('',#523,1.);
#202=VECTOR('',#524,1.);
#203=VECTOR('',#531,1.);
#204=VECTOR('',#540,1.);
#205=VECTOR('',#541,1.);
#206=ORIENTED_EDGE('',*,*,#344,.F.);
#207=ORIENTED_EDGE('',*,*,#345,.T.);
#208=ORIENTED_EDGE('',*,*,#346,.F.);
#209=ORIENTED_EDGE('',*,*,#347,.T.);
#210=ORIENTED_EDGE('',*,*,#348,.F.);
#211=ORIENTED_EDGE('',*,*,#349,.F.);
#212=ORIENTED_EDGE('',*,*,#350,.F.);
#213=ORIENTED_EDGE('',*,*,#351,.T.);
#214=ORIENTED_EDGE('',*,*,#352,.F.);
#215=ORIENTED_EDGE('',*,*,#353,.F.);
#216=ORIENTED_EDGE('',*,*,#354,.T.);
#217=ORIENTED_EDGE('',*,*,#355,.F.);
#218=ORIENTED_EDGE('',*,*,#356,.T.);
#219=ORIENTED_EDGE('',*,*,#357,.F.);
#220=ORIENTED_EDGE('',*,*,#358,.T.);
#221=ORIENTED_EDGE('',*,*,#359,.F.);
#222=ORIENTED_EDGE('',*,*,#360,.T.);
#223=ORIENTED_EDGE('',*,*,#361,.T.);
#224=ORIENTED_EDGE('',*,*,#362,.T.);
#225=ORIENTED_EDGE('',*,*,#363,.F.);
#226=ORIENTED_EDGE('',*,*,#364,.T.);
#227=ORIENTED_EDGE('',*,*,#363,.T.);
#228=ORIENTED_EDGE('',*,*,#365,.T.);
#229=ORIENTED_EDGE('',*,*,#350,.T.);
#230=ORIENTED_EDGE('',*,*,#366,.F.);
#231=ORIENTED_EDGE('',*,*,#367,.T.);
#232=ORIENTED_EDGE('',*,*,#366,.T.);
#233=ORIENTED_EDGE('',*,*,#349,.T.);
#234=ORIENTED_EDGE('',*,*,#368,.F.);
#235=ORIENTED_EDGE('',*,*,#369,.T.);
#236=ORIENTED_EDGE('',*,*,#370,.F.);
#237=ORIENTED_EDGE('',*,*,#371,.F.);
#238=ORIENTED_EDGE('',*,*,#372,.F.);
#239=ORIENTED_EDGE('',*,*,#373,.F.);
#240=ORIENTED_EDGE('',*,*,#364,.F.);
#241=ORIENTED_EDGE('',*,*,#367,.F.);
#242=ORIENTED_EDGE('',*,*,#369,.F.);
#243=ORIENTED_EDGE('',*,*,#348,.T.);
#244=ORIENTED_EDGE('',*,*,#374,.T.);
#245=ORIENTED_EDGE('',*,*,#361,.F.);
#246=ORIENTED_EDGE('',*,*,#373,.T.);
#247=ORIENTED_EDGE('',*,*,#368,.T.);
#248=ORIENTED_EDGE('',*,*,#375,.F.);
#249=ORIENTED_EDGE('',*,*,#351,.F.);
#250=ORIENTED_EDGE('',*,*,#365,.F.);
#251=ORIENTED_EDGE('',*,*,#362,.F.);
#252=ORIENTED_EDGE('',*,*,#374,.F.);
#253=ORIENTED_EDGE('',*,*,#347,.F.);
#254=ORIENTED_EDGE('',*,*,#376,.F.);
#255=ORIENTED_EDGE('',*,*,#345,.F.);
#256=ORIENTED_EDGE('',*,*,#353,.T.);
#257=ORIENTED_EDGE('',*,*,#377,.T.);
#258=ORIENTED_EDGE('',*,*,#378,.T.);
#259=ORIENTED_EDGE('',*,*,#379,.T.);
#260=ORIENTED_EDGE('',*,*,#355,.T.);
#261=ORIENTED_EDGE('',*,*,#380,.T.);
#262=ORIENTED_EDGE('',*,*,#381,.T.);
#263=ORIENTED_EDGE('',*,*,#382,.T.);
#264=ORIENTED_EDGE('',*,*,#383,.T.);
#265=ORIENTED_EDGE('',*,*,#384,.T.);
#266=ORIENTED_EDGE('',*,*,#357,.T.);
#267=ORIENTED_EDGE('',*,*,#385,.T.);
#268=ORIENTED_EDGE('',*,*,#386,.T.);
#269=ORIENTED_EDGE('',*,*,#378,.F.);
#270=ORIENTED_EDGE('',*,*,#387,.T.);
#271=ORIENTED_EDGE('',*,*,#388,.F.);
#272=ORIENTED_EDGE('',*,*,#389,.T.);
#273=ORIENTED_EDGE('',*,*,#383,.F.);
#274=ORIENTED_EDGE('',*,*,#390,.T.);
#275=ORIENTED_EDGE('',*,*,#381,.F.);
#276=ORIENTED_EDGE('',*,*,#391,.T.);
#277=ORIENTED_EDGE('',*,*,#388,.T.);
#278=ORIENTED_EDGE('',*,*,#392,.T.);
#279=ORIENTED_EDGE('',*,*,#359,.T.);
#280=ORIENTED_EDGE('',*,*,#393,.T.);
#281=ORIENTED_EDGE('',*,*,#360,.F.);
#282=ORIENTED_EDGE('',*,*,#392,.F.);
#283=ORIENTED_EDGE('',*,*,#387,.F.);
#284=ORIENTED_EDGE('',*,*,#377,.F.);
#285=ORIENTED_EDGE('',*,*,#354,.F.);
#286=ORIENTED_EDGE('',*,*,#379,.F.);
#287=ORIENTED_EDGE('',*,*,#391,.F.);
#288=ORIENTED_EDGE('',*,*,#380,.F.);
#289=ORIENTED_EDGE('',*,*,#358,.F.);
#290=ORIENTED_EDGE('',*,*,#384,.F.);
#291=ORIENTED_EDGE('',*,*,#389,.F.);
#292=ORIENTED_EDGE('',*,*,#393,.F.);
#293=ORIENTED_EDGE('',*,*,#356,.F.);
#294=ORIENTED_EDGE('',*,*,#382,.F.);
#295=ORIENTED_EDGE('',*,*,#390,.F.);
#296=ORIENTED_EDGE('',*,*,#385,.F.);
#297=ORIENTED_EDGE('',*,*,#372,.T.);
#298=ORIENTED_EDGE('',*,*,#346,.T.);
#299=ORIENTED_EDGE('',*,*,#376,.T.);
#300=ORIENTED_EDGE('',*,*,#394,.F.);
#301=ORIENTED_EDGE('',*,*,#352,.T.);
#302=ORIENTED_EDGE('',*,*,#394,.T.);
#303=ORIENTED_EDGE('',*,*,#371,.T.);
#304=ORIENTED_EDGE('',*,*,#344,.T.);
#305=ORIENTED_EDGE('',*,*,#375,.T.);
#306=ORIENTED_EDGE('',*,*,#370,.T.);
#307=ORIENTED_EDGE('',*,*,#386,.F.);
#308=VERTEX_POINT('',#566);
#309=VERTEX_POINT('',#567);
#310=VERTEX_POINT('',#569);
#311=VERTEX_POINT('',#571);
#312=VERTEX_POINT('',#573);
#313=VERTEX_POINT('',#575);
#314=VERTEX_POINT('',#577);
#315=VERTEX_POINT('',#579);
#316=VERTEX_POINT('',#582);
#317=VERTEX_POINT('',#584);
#318=VERTEX_POINT('',#585);
#319=VERTEX_POINT('',#587);
#320=VERTEX_POINT('',#589);
#321=VERTEX_POINT('',#591);
#322=VERTEX_POINT('',#593);
#323=VERTEX_POINT('',#595);
#324=VERTEX_POINT('',#597);
#325=VERTEX_POINT('',#601);
#326=VERTEX_POINT('',#602);
#327=VERTEX_POINT('',#604);
#328=VERTEX_POINT('',#606);
#329=VERTEX_POINT('',#611);
#330=VERTEX_POINT('',#615);
#331=VERTEX_POINT('',#619);
#332=VERTEX_POINT('',#621);
#333=VERTEX_POINT('',#623);
#334=VERTEX_POINT('',#632);
#335=VERTEX_POINT('',#634);
#336=VERTEX_POINT('',#638);
#337=VERTEX_POINT('',#640);
#338=VERTEX_POINT('',#644);
#339=VERTEX_POINT('',#645);
#340=VERTEX_POINT('',#650);
#341=VERTEX_POINT('',#652);
#342=VERTEX_POINT('',#654);
#343=VERTEX_POINT('',#668);
#344=EDGE_CURVE('',#308,#309,#395,.T.);
#345=EDGE_CURVE('',#308,#310,#140,.T.);
#346=EDGE_CURVE('',#311,#310,#396,.T.);
#347=EDGE_CURVE('',#311,#312,#141,.T.);
#348=EDGE_CURVE('',#313,#312,#142,.T.);
#349=EDGE_CURVE('',#314,#313,#143,.T.);
#350=EDGE_CURVE('',#315,#314,#144,.T.);
#351=EDGE_CURVE('',#315,#309,#145,.T.);
#352=EDGE_CURVE('',#316,#316,#397,.T.);
#353=EDGE_CURVE('',#317,#318,#146,.T.);
#354=EDGE_CURVE('',#317,#319,#398,.T.);
#355=EDGE_CURVE('',#320,#319,#147,.T.);
#356=EDGE_CURVE('',#320,#321,#399,.T.);
#357=EDGE_CURVE('',#322,#321,#148,.T.);
#358=EDGE_CURVE('',#322,#323,#400,.T.);
#359=EDGE_CURVE('',#324,#323,#149,.T.);
#360=EDGE_CURVE('',#324,#318,#401,.T.);
#361=EDGE_CURVE('',#325,#326,#150,.T.);
#362=EDGE_CURVE('',#326,#327,#151,.T.);
#363=EDGE_CURVE('',#328,#327,#152,.T.);
#364=EDGE_CURVE('',#328,#325,#153,.T.);
#365=EDGE_CURVE('',#327,#315,#154,.T.);
#366=EDGE_CURVE('',#329,#314,#155,.T.);
#367=EDGE_CURVE('',#329,#328,#156,.T.);
#368=EDGE_CURVE('',#330,#313,#157,.T.);
#369=EDGE_CURVE('',#330,#329,#158,.T.);
#370=EDGE_CURVE('',#331,#331,#402,.T.);
#371=EDGE_CURVE('',#332,#332,#403,.T.);
#372=EDGE_CURVE('',#333,#333,#404,.T.);
#373=EDGE_CURVE('',#325,#330,#159,.T.);
#374=EDGE_CURVE('',#312,#326,#160,.T.);
#375=EDGE_CURVE('',#309,#308,#42,.T.);
#376=EDGE_CURVE('',#310,#311,#43,.T.);
#377=EDGE_CURVE('',#318,#334,#161,.T.);
#378=EDGE_CURVE('',#334,#335,#162,.T.);
#379=EDGE_CURVE('',#335,#317,#163,.T.);
#380=EDGE_CURVE('',#319,#336,#164,.T.);
#381=EDGE_CURVE('',#336,#337,#165,.T.);
#382=EDGE_CURVE('',#337,#320,#166,.T.);
#383=EDGE_CURVE('',#338,#339,#167,.T.);
#384=EDGE_CURVE('',#339,#322,#168,.T.);
#385=EDGE_CURVE('',#321,#338,#169,.T.);
#386=EDGE_CURVE('',#340,#340,#405,.T.);
#387=EDGE_CURVE('',#334,#341,#406,.T.);
#388=EDGE_CURVE('',#342,#341,#170,.T.);
#389=EDGE_CURVE('',#342,#339,#407,.T.);
#390=EDGE_CURVE('',#338,#337,#408,.T.);
#391=EDGE_CURVE('',#336,#335,#409,.T.);
#392=EDGE_CURVE('',#341,#324,#171,.T.);
#393=EDGE_CURVE('',#323,#342,#172,.T.);
#394=EDGE_CURVE('',#343,#343,#410,.T.);
#395=CIRCLE('',#412,9.65);
#396=CIRCLE('',#413,6.45);
#397=CIRCLE('',#414,8.15);
#398=CIRCLE('',#415,7.6);
#399=CIRCLE('',#416,7.6);
#400=CIRCLE('',#417,7.6);
#401=CIRCLE('',#418,7.6);
#402=CIRCLE('',#423,21.);
#403=CIRCLE('',#424,9.65);
#404=CIRCLE('',#425,6.45);
#405=CIRCLE('',#434,21.);
#406=CIRCLE('',#435,7.6);
#407=CIRCLE('',#436,7.6);
#408=CIRCLE('',#437,7.6);
#409=CIRCLE('',#438,7.6);
#410=CIRCLE('',#446,8.15);
#411=AXIS2_PLACEMENT_3D('',#564,#451,#452);
#412=AXIS2_PLACEMENT_3D('',#565,#453,#454);
#413=AXIS2_PLACEMENT_3D('',#570,#456,#457);
#414=AXIS2_PLACEMENT_3D('',#581,#463,#464);
#415=AXIS2_PLACEMENT_3D('',#586,#466,#467);
#416=AXIS2_PLACEMENT_3D('',#590,#469,#470);
#417=AXIS2_PLACEMENT_3D('',#594,#472,#473);
#418=AXIS2_PLACEMENT_3D('',#598,#475,#476);
#419=AXIS2_PLACEMENT_3D('',#599,#477,#478);
#420=AXIS2_PLACEMENT_3D('',#608,#483,#484);
#421=AXIS2_PLACEMENT_3D('',#613,#488,#489);
#422=AXIS2_PLACEMENT_3D('',#617,#492,#493);
#423=AXIS2_PLACEMENT_3D('',#618,#494,#495);
#424=AXIS2_PLACEMENT_3D('',#620,#496,#497);
#425=AXIS2_PLACEMENT_3D('',#622,#498,#499);
#426=AXIS2_PLACEMENT_3D('',#625,#501,#502);
#427=AXIS2_PLACEMENT_3D('',#627,#504,#505);
#428=AXIS2_PLACEMENT_3D('',#628,#506,#507);
#429=AXIS2_PLACEMENT_3D('',#629,#508,#509);
#430=AXIS2_PLACEMENT_3D('',#630,#510,#511);
#431=AXIS2_PLACEMENT_3D('',#636,#515,#516);
#432=AXIS2_PLACEMENT_3D('',#642,#520,#521);
#433=AXIS2_PLACEMENT_3D('',#648,#525,#526);
#434=AXIS2_PLACEMENT_3D('',#649,#527,#528);
#435=AXIS2_PLACEMENT_3D('',#651,#529,#530);
#436=AXIS2_PLACEMENT_3D('',#655,#532,#533);
#437=AXIS2_PLACEMENT_3D('',#656,#534,#535);
#438=AXIS2_PLACEMENT_3D('',#657,#536,#537);
#439=AXIS2_PLACEMENT_3D('',#658,#538,#539);
#440=AXIS2_PLACEMENT_3D('',#661,#542,#543);
#441=AXIS2_PLACEMENT_3D('',#662,#544,#545);
#442=AXIS2_PLACEMENT_3D('',#663,#546,#547);
#443=AXIS2_PLACEMENT_3D('',#664,#548,#549);
#444=AXIS2_PLACEMENT_3D('',#665,#550,#551);
#445=AXIS2_PLACEMENT_3D('',#666,#552,#553);
#446=AXIS2_PLACEMENT_3D('',#667,#554,#555);
#447=AXIS2_PLACEMENT_3D('',#669,#556,#557);
#448=AXIS2_PLACEMENT_3D('',#670,#558,#559);
#449=AXIS2_PLACEMENT_3D('',#671,#560,#561);
#450=AXIS2_PLACEMENT_3D('',#672,#562,#563);
#451=DIRECTION('',(0.,0.,1.));
#452=DIRECTION('',(1.,0.,0.));
#453=DIRECTION('',(0.,0.,1.));
#454=DIRECTION('',(1.,0.,0.));
#455=DIRECTION('',(1.,0.,0.));
#456=DIRECTION('',(0.,0.,1.));
#457=DIRECTION('',(1.,0.,0.));
#458=DIRECTION('',(1.,0.,0.));
#459=DIRECTION('',(0.,-1.,0.));
#460=DIRECTION('',(1.,0.,0.));
#461=DIRECTION('',(0.,1.,0.));
#462=DIRECTION('',(1.,0.,0.));
#463=DIRECTION('',(0.,0.,1.));
#464=DIRECTION('',(1.,0.,0.));
#465=DIRECTION('',(1.,0.,0.));
#466=DIRECTION('',(0.,0.,-1.));
#467=DIRECTION('',(0.999999999999999,0.,0.));
#468=DIRECTION('',(0.,-1.,0.));
#469=DIRECTION('',(0.,0.,-1.));
#470=DIRECTION('',(0.999999999999999,0.,0.));
#471=DIRECTION('',(-1.,0.,0.));
#472=DIRECTION('',(0.,0.,-1.));
#473=DIRECTION('',(0.999999999999999,0.,0.));
#474=DIRECTION('',(0.,1.,0.));
#475=DIRECTION('',(0.,0.,-1.));
#476=DIRECTION('',(0.999999999999999,0.,0.));
#477=DIRECTION('',(0.,0.,1.));
#478=DIRECTION('',(1.,0.,0.));
#479=DIRECTION('',(0.,0.,1.));
#480=DIRECTION('',(-1.,0.,0.));
#481=DIRECTION('',(0.,0.,1.));
#482=DIRECTION('',(1.,0.,0.));
#483=DIRECTION('',(0.,-1.,0.));
#484=DIRECTION('',(0.,0.,-1.));
#485=DIRECTION('',(0.,0.707106781186547,0.707106781186548));
#486=DIRECTION('',(0.,0.,1.));
#487=DIRECTION('',(0.,-1.,0.));
#488=DIRECTION('',(-1.,0.,0.));
#489=DIRECTION('',(0.,0.,1.));
#490=DIRECTION('',(0.,0.,1.));
#491=DIRECTION('',(-1.,0.,0.));
#492=DIRECTION('',(0.,1.,0.));
#493=DIRECTION('',(0.,0.,1.));
#494=DIRECTION('',(0.,0.,-1.));
#495=DIRECTION('',(-1.,0.,0.));
#496=DIRECTION('',(0.,0.,-1.));
#497=DIRECTION('',(-1.,0.,0.));
#498=DIRECTION('',(0.,0.,-1.));
#499=DIRECTION('',(-1.,0.,0.));
#500=DIRECTION('',(0.,1.,0.));
#501=DIRECTION('',(0.,0.,-1.));
#502=DIRECTION('',(-1.,0.,0.));
#503=DIRECTION('',(0.,-0.707106781186547,-0.707106781186548));
#504=DIRECTION('',(1.,0.,0.));
#505=DIRECTION('',(0.,0.,-1.));
#506=DIRECTION('',(0.,-0.707106781186548,0.707106781186547));
#507=DIRECTION('',(0.,-0.707106781186547,-0.707106781186548));
#508=DIRECTION('',(0.,-0.707106781186548,0.707106781186547));
#509=DIRECTION('',(0.,-0.707106781186547,-0.707106781186548));
#510=DIRECTION('',(0.,0.707106781186548,-0.707106781186547));
#511=DIRECTION('',(-1.,0.,0.));
#512=DIRECTION('',(0.,0.,-1.));
#513=DIRECTION('',(-1.,0.,0.));
#514=DIRECTION('',(0.,0.,1.));
#515=DIRECTION('',(0.,-1.,0.));
#516=DIRECTION('',(0.,0.,-1.));
#517=DIRECTION('',(0.,0.,-1.));
#518=DIRECTION('',(0.,1.,0.));
#519=DIRECTION('',(0.,0.,1.));
#520=DIRECTION('',(-1.,0.,0.));
#521=DIRECTION('',(0.,0.,1.));
#522=DIRECTION('',(1.,0.,0.));
#523=DIRECTION('',(0.,0.,1.));
#524=DIRECTION('',(0.,0.,-1.));
#525=DIRECTION('',(0.,1.,0.));
#526=DIRECTION('',(0.,0.,1.));
#527=DIRECTION('',(0.,0.,-1.));
#528=DIRECTION('',(-1.,0.,0.));
#529=DIRECTION('',(0.,0.,1.));
#530=DIRECTION('',(-0.999999999999999,0.,0.));
#531=DIRECTION('',(0.,-1.,0.));
#532=DIRECTION('',(0.,0.,1.));
#533=DIRECTION('',(-0.999999999999999,0.,0.));
#534=DIRECTION('',(0.,0.,1.));
#535=DIRECTION('',(-0.999999999999999,0.,0.));
#536=DIRECTION('',(0.,0.,1.));
#537=DIRECTION('',(-0.999999999999999,0.,0.));
#538=DIRECTION('',(0.,0.,-1.));
#539=DIRECTION('',(-1.,0.,0.));
#540=DIRECTION('',(0.,0.,1.));
#541=DIRECTION('',(0.,0.,-1.));
#542=DIRECTION('',(1.,0.,0.));
#543=DIRECTION('',(0.,0.,-1.));
#544=DIRECTION('',(0.,0.,1.));
#545=DIRECTION('',(0.999999999999999,0.,0.));
#546=DIRECTION('',(0.,0.,1.));
#547=DIRECTION('',(0.999999999999999,0.,0.));
#548=DIRECTION('',(0.,0.,1.));
#549=DIRECTION('',(0.999999999999999,0.,0.));
#550=DIRECTION('',(0.,0.,1.));
#551=DIRECTION('',(0.999999999999999,0.,0.));
#552=DIRECTION('',(0.,0.,-1.));
#553=DIRECTION('',(1.,0.,0.));
#554=DIRECTION('',(0.,0.,-1.));
#555=DIRECTION('',(1.,0.,0.));
#556=DIRECTION('',(0.,0.,-1.));
#557=DIRECTION('',(-1.,0.,0.));
#558=DIRECTION('',(0.,0.,-1.));
#559=DIRECTION('',(1.,0.,0.));
#560=DIRECTION('',(0.,0.,-1.));
#561=DIRECTION('',(1.,0.,0.));
#562=DIRECTION('',(0.,0.,-1.));
#563=DIRECTION('',(1.,0.,0.));
#564=CARTESIAN_POINT('',(0.,0.,0.));
#565=CARTESIAN_POINT('',(38.4,18.6,64.6));
#566=CARTESIAN_POINT('',(43.15,10.2,64.6));
#567=CARTESIAN_POINT('',(33.65,10.2,64.6));
#568=CARTESIAN_POINT('',(220.3,10.2,64.6));
#569=CARTESIAN_POINT('',(308.338706742406,10.2,64.6));
#570=CARTESIAN_POINT('',(314.1,13.1,64.6));
#571=CARTESIAN_POINT('',(319.861293257594,10.2,64.6));
#572=CARTESIAN_POINT('',(220.3,10.2,64.6));
#573=CARTESIAN_POINT('',(440.6,10.2,64.6));
#574=CARTESIAN_POINT('',(440.6,239.25,64.6));
#575=CARTESIAN_POINT('',(440.6,478.5,64.6));
#576=CARTESIAN_POINT('',(220.3,478.5,64.6));
#577=CARTESIAN_POINT('',(0.,478.5,64.6));
#578=CARTESIAN_POINT('',(0.,239.25,64.6));
#579=CARTESIAN_POINT('',(0.,10.2,64.6));
#580=CARTESIAN_POINT('',(220.3,10.2,64.6));
#581=CARTESIAN_POINT('',(14.6,205.7,64.6));
#582=CARTESIAN_POINT('',(22.75,205.7,64.6));
#583=CARTESIAN_POINT('',(220.3,122.5,64.6));
#584=CARTESIAN_POINT('',(209.9,122.5,64.6));
#585=CARTESIAN_POINT('',(358.8,122.5,64.6));
#586=CARTESIAN_POINT('',(209.9,130.1,64.6));
#587=CARTESIAN_POINT('',(202.3,130.1,64.6));
#588=CARTESIAN_POINT('',(202.3,239.25,64.6));
#589=CARTESIAN_POINT('',(202.3,274.8,64.6));
#590=CARTESIAN_POINT('',(209.9,274.8,64.6));
#591=CARTESIAN_POINT('',(209.9,282.4,64.6));
#592=CARTESIAN_POINT('',(220.3,282.4,64.6));
#593=CARTESIAN_POINT('',(358.8,282.4,64.6));
#594=CARTESIAN_POINT('',(358.8,274.8,64.6));
#595=CARTESIAN_POINT('',(366.4,274.8,64.6));
#596=CARTESIAN_POINT('',(366.4,239.25,64.6));
#597=CARTESIAN_POINT('',(366.4,130.1,64.6));
#598=CARTESIAN_POINT('',(358.8,130.1,64.6));
#599=CARTESIAN_POINT('',(220.3,239.25,64.6));
#600=CARTESIAN_POINT('',(440.6,0.,0.));
#601=CARTESIAN_POINT('',(440.6,0.,0.));
#602=CARTESIAN_POINT('',(440.6,0.,54.4));
#603=CARTESIAN_POINT('',(220.3,0.,54.4));
#604=CARTESIAN_POINT('',(0.,0.,54.4));
#605=CARTESIAN_POINT('',(0.,0.,0.));
#606=CARTESIAN_POINT('',(0.,0.,0.));
#607=CARTESIAN_POINT('',(220.3,0.,0.));
#608=CARTESIAN_POINT('',(220.3,0.,0.));
#609=CARTESIAN_POINT('',(0.,92.4249999999998,146.825));
#610=CARTESIAN_POINT('',(0.,478.5,0.));
#611=CARTESIAN_POINT('',(0.,478.5,0.));
#612=CARTESIAN_POINT('',(0.,239.25,0.));
#613=CARTESIAN_POINT('',(0.,239.25,0.));
#614=CARTESIAN_POINT('',(440.6,478.5,0.));
#615=CARTESIAN_POINT('',(440.6,478.5,0.));
#616=CARTESIAN_POINT('',(220.3,478.5,0.));
#617=CARTESIAN_POINT('',(220.3,478.5,0.));
#618=CARTESIAN_POINT('',(299.9,246.4,0.));
#619=CARTESIAN_POINT('',(278.9,246.4,0.));
#620=CARTESIAN_POINT('',(38.4,18.6,0.));
#621=CARTESIAN_POINT('',(28.75,18.6,0.));
#622=CARTESIAN_POINT('',(314.1,13.1,0.));
#623=CARTESIAN_POINT('',(307.65,13.1,0.));
#624=CARTESIAN_POINT('',(440.6,239.25,0.));
#625=CARTESIAN_POINT('',(220.3,239.25,0.));
#626=CARTESIAN_POINT('',(440.6,92.4249999999998,146.825));
#627=CARTESIAN_POINT('',(440.6,239.25,0.));
#628=CARTESIAN_POINT('',(38.4,18.6,73.));
#629=CARTESIAN_POINT('',(314.1,13.1,67.5));
#630=CARTESIAN_POINT('',(220.3,0.,54.4));
#631=CARTESIAN_POINT('',(358.8,122.5,33.5));
#632=CARTESIAN_POINT('',(358.8,122.5,33.5));
#633=CARTESIAN_POINT('',(284.35,122.5,33.5));
#634=CARTESIAN_POINT('',(209.9,122.5,33.5));
#635=CARTESIAN_POINT('',(209.9,122.5,64.6));
#636=CARTESIAN_POINT('',(284.35,122.5,33.5));
#637=CARTESIAN_POINT('',(202.3,130.1,33.5));
#638=CARTESIAN_POINT('',(202.3,130.1,33.5));
#639=CARTESIAN_POINT('',(202.3,202.45,33.5));
#640=CARTESIAN_POINT('',(202.3,274.8,33.5));
#641=CARTESIAN_POINT('',(202.3,274.8,64.6));
#642=CARTESIAN_POINT('',(202.3,202.45,33.5));
#643=CARTESIAN_POINT('',(284.35,282.4,33.5));
#644=CARTESIAN_POINT('',(209.9,282.4,33.5));
#645=CARTESIAN_POINT('',(358.8,282.4,33.5));
#646=CARTESIAN_POINT('',(358.8,282.4,64.6));
#647=CARTESIAN_POINT('',(209.9,282.4,33.5));
#648=CARTESIAN_POINT('',(284.35,282.4,33.5));
#649=CARTESIAN_POINT('',(299.9,246.4,33.5));
#650=CARTESIAN_POINT('',(278.9,246.4,33.5));
#651=CARTESIAN_POINT('',(358.8,130.1,33.5));
#652=CARTESIAN_POINT('',(366.4,130.1,33.5));
#653=CARTESIAN_POINT('',(366.4,202.45,33.5));
#654=CARTESIAN_POINT('',(366.4,274.8,33.5));
#655=CARTESIAN_POINT('',(358.8,274.8,33.5));
#656=CARTESIAN_POINT('',(209.9,274.8,33.5));
#657=CARTESIAN_POINT('',(209.9,130.1,33.5));
#658=CARTESIAN_POINT('',(284.35,202.45,33.5));
#659=CARTESIAN_POINT('',(366.4,130.1,64.6));
#660=CARTESIAN_POINT('',(366.4,274.8,33.5));
#661=CARTESIAN_POINT('',(366.4,202.45,33.5));
#662=CARTESIAN_POINT('',(358.8,130.1,33.5));
#663=CARTESIAN_POINT('',(209.9,130.1,33.5));
#664=CARTESIAN_POINT('',(358.8,274.8,33.5));
#665=CARTESIAN_POINT('',(209.9,274.8,33.5));
#666=CARTESIAN_POINT('',(314.1,13.1,64.65));
#667=CARTESIAN_POINT('',(14.6,205.7,51.5));
#668=CARTESIAN_POINT('',(22.75,205.7,51.5));
#669=CARTESIAN_POINT('',(14.6,205.7,51.5));
#670=CARTESIAN_POINT('',(14.6,205.7,64.65));
#671=CARTESIAN_POINT('',(38.4,18.6,64.65));
#672=CARTESIAN_POINT('',(299.9,246.4,64.65));
#673=MECHANICAL_DESIGN_GEOMETRIC_PRESENTATION_REPRESENTATION('',(#24),#674);
#674=(
GEOMETRIC_REPRESENTATION_CONTEXT(3)
GLOBAL_UNCERTAINTY_ASSIGNED_CONTEXT((#675))
GLOBAL_UNIT_ASSIGNED_CONTEXT((#681,#677,#676))
REPRESENTATION_CONTEXT('featured_part_07991','TOP_LEVEL_ASSEMBLY_PART')
);
#675=UNCERTAINTY_MEASURE_WITH_UNIT(LENGTH_MEASURE(2.E-5),#681,
'DISTANCE_ACCURACY_VALUE','Maximum Tolerance applied to model');
#676=(
NAMED_UNIT(*)
SI_UNIT($,.STERADIAN.)
SOLID_ANGLE_UNIT()
);
#677=(
CONVERSION_BASED_UNIT('DEGREE',#679)
NAMED_UNIT(#678)
PLANE_ANGLE_UNIT()
);
#678=DIMENSIONAL_EXPONENTS(0.,0.,0.,0.,0.,0.,0.);
#679=PLANE_ANGLE_MEASURE_WITH_UNIT(PLANE_ANGLE_MEASURE(0.0174532925),#680);
#680=(
NAMED_UNIT(*)
PLANE_ANGLE_UNIT()
SI_UNIT($,.RADIAN.)
);
#681=(
LENGTH_UNIT()
NAMED_UNIT(*)
SI_UNIT(.MILLI.,.METRE.)
);
ENDSEC;
END-ISO-10303-21;
