ISO-10303-21;
HEADER;
/* Generated by software containing ST-Developer
 * from STEP Tools, Inc. (www.steptools.com) 
 */
/* OPTION: using custom schema-name function */

FILE_DESCRIPTION(
/* description */ (''),
/* implementation_level */ '2;1');

FILE_NAME(
/* name */ 'featured_part_08976.stp',
/* time_stamp */ '2026-07-16T06:46:01-04:00',
/* author */ (''),
/* organization */ (''),
/* preprocessor_version */ 'ST-DEVELOPER v20.1',
/* originating_system */ 'SIEMENS PLM Software NX2512.6002',
/* authorisation */ '');

FILE_SCHEMA (('AUTOMOTIVE_DESIGN { 1 0 10303 214 3 1 1 1 }'));
ENDSEC;

DATA;
#10=SHAPE_REPRESENTATION_RELATIONSHIP('None',
'relationship between featured_part_08976-None and featured_part_08976
-None',#22,#11);
#11=ADVANCED_BREP_SHAPE_REPRESENTATION('featured_part_08976-None',(#32),
#892);
#12=SHAPE_DEFINITION_REPRESENTATION(#13,#22);
#13=PRODUCT_DEFINITION_SHAPE('','',#14);
#14=PRODUCT_DEFINITION(' ','',#16,#15);
#15=PRODUCT_DEFINITION_CONTEXT('part definition',#21,'design');
#16=PRODUCT_DEFINITION_FORMATION_WITH_SPECIFIED_SOURCE(' ',' ',#18,
 .NOT_KNOWN.);
#17=PRODUCT_RELATED_PRODUCT_CATEGORY('part','',(#18));
#18=PRODUCT('featured_part_08976','featured_part_08976',' ',(#19));
#19=PRODUCT_CONTEXT(' ',#21,'mechanical');
#20=APPLICATION_PROTOCOL_DEFINITION('international standard',
'automotive_design',2010,#21);
#21=APPLICATION_CONTEXT(
'core data for automotive mechanical design processes');
#22=SHAPE_REPRESENTATION('featured_part_08976-None',(#548),#892);
#23=PRESENTATION_LAYER_ASSIGNMENT('1','Layer 1',(#32));
#24=STYLED_ITEM('',(#25),#32);
#25=PRESENTATION_STYLE_ASSIGNMENT((#26));
#26=SURFACE_STYLE_USAGE(.BOTH.,#27);
#27=SURFACE_SIDE_STYLE('',(#28));
#28=SURFACE_STYLE_FILL_AREA(#29);
#29=FILL_AREA_STYLE('',(#30));
#30=FILL_AREA_STYLE_COLOUR('',#31);
#31=COLOUR_RGB('medium steel',0.611764705882353,0.658823529411765,0.670588235294118);
#32=MANIFOLD_SOLID_BREP('',#33);
#33=CLOSED_SHELL('',(#68,#69,#70,#71,#72,#73,#74,#75,#76,#77,#78,#79,#80,
#81,#82,#83,#84,#85,#86,#87,#88,#89,#90,#91,#92,#93,#94,#95));
#34=CYLINDRICAL_SURFACE('',#575,7.6);
#35=CYLINDRICAL_SURFACE('',#576,7.6);
#36=CYLINDRICAL_SURFACE('',#586,14.5);
#37=CYLINDRICAL_SURFACE('',#587,14.5);
#38=CYLINDRICAL_SURFACE('',#588,14.5);
#39=CYLINDRICAL_SURFACE('',#589,14.5);
#40=CYLINDRICAL_SURFACE('',#590,13.);
#41=CYLINDRICAL_SURFACE('',#593,13.);
#42=ELLIPSE('',#567,18.3847763108502,13.);
#43=FACE_BOUND('',#141,.T.);
#44=FACE_BOUND('',#142,.T.);
#45=FACE_BOUND('',#143,.T.);
#46=FACE_BOUND('',#147,.T.);
#47=FACE_BOUND('',#148,.T.);
#48=FACE_BOUND('',#168,.T.);
#49=FACE_BOUND('',#169,.T.);
#50=FACE_BOUND('',#171,.T.);
#51=FACE_BOUND('',#172,.T.);
#52=CIRCLE('',#550,13.);
#53=CIRCLE('',#551,13.);
#54=CIRCLE('',#552,7.6);
#55=CIRCLE('',#553,7.6);
#56=CIRCLE('',#554,14.5);
#57=CIRCLE('',#555,14.5);
#58=CIRCLE('',#556,14.5);
#59=CIRCLE('',#557,14.5);
#60=CIRCLE('',#562,13.);
#61=CIRCLE('',#572,7.6);
#62=CIRCLE('',#573,7.6);
#63=CIRCLE('',#580,14.5);
#64=CIRCLE('',#581,14.5);
#65=CIRCLE('',#582,14.5);
#66=CIRCLE('',#583,14.5);
#67=CIRCLE('',#591,13.);
#68=ADVANCED_FACE('',(#116),#96,.F.);
#69=ADVANCED_FACE('',(#43,#44,#45),#97,.T.);
#70=ADVANCED_FACE('',(#117),#98,.T.);
#71=ADVANCED_FACE('',(#118),#99,.T.);
#72=ADVANCED_FACE('',(#119),#100,.T.);
#73=ADVANCED_FACE('',(#46,#47),#101,.T.);
#74=ADVANCED_FACE('',(#120),#102,.T.);
#75=ADVANCED_FACE('',(#121),#103,.F.);
#76=ADVANCED_FACE('',(#122),#104,.F.);
#77=ADVANCED_FACE('',(#123),#105,.F.);
#78=ADVANCED_FACE('',(#124),#106,.F.);
#79=ADVANCED_FACE('',(#125),#107,.F.);
#80=ADVANCED_FACE('',(#126),#108,.F.);
#81=ADVANCED_FACE('',(#127),#109,.F.);
#82=ADVANCED_FACE('',(#128),#34,.F.);
#83=ADVANCED_FACE('',(#129),#35,.F.);
#84=ADVANCED_FACE('',(#130),#110,.F.);
#85=ADVANCED_FACE('',(#131),#111,.F.);
#86=ADVANCED_FACE('',(#132),#112,.F.);
#87=ADVANCED_FACE('',(#133),#113,.F.);
#88=ADVANCED_FACE('',(#134),#114,.F.);
#89=ADVANCED_FACE('',(#135),#36,.F.);
#90=ADVANCED_FACE('',(#136),#37,.F.);
#91=ADVANCED_FACE('',(#137),#38,.F.);
#92=ADVANCED_FACE('',(#138),#39,.F.);
#93=ADVANCED_FACE('',(#48,#49),#40,.F.);
#94=ADVANCED_FACE('',(#139),#115,.F.);
#95=ADVANCED_FACE('',(#50,#51),#41,.F.);
#96=PLANE('',#549);
#97=PLANE('',#558);
#98=PLANE('',#559);
#99=PLANE('',#560);
#100=PLANE('',#561);
#101=PLANE('',#563);
#102=PLANE('',#564);
#103=PLANE('',#565);
#104=PLANE('',#566);
#105=PLANE('',#568);
#106=PLANE('',#569);
#107=PLANE('',#570);
#108=PLANE('',#571);
#109=PLANE('',#574);
#110=PLANE('',#577);
#111=PLANE('',#578);
#112=PLANE('',#579);
#113=PLANE('',#584);
#114=PLANE('',#585);
#115=PLANE('',#592);
#116=FACE_OUTER_BOUND('',#140,.T.);
#117=FACE_OUTER_BOUND('',#144,.T.);
#118=FACE_OUTER_BOUND('',#145,.T.);
#119=FACE_OUTER_BOUND('',#146,.T.);
#120=FACE_OUTER_BOUND('',#149,.T.);
#121=FACE_OUTER_BOUND('',#150,.T.);
#122=FACE_OUTER_BOUND('',#151,.T.);
#123=FACE_OUTER_BOUND('',#152,.T.);
#124=FACE_OUTER_BOUND('',#153,.T.);
#125=FACE_OUTER_BOUND('',#154,.T.);
#126=FACE_OUTER_BOUND('',#155,.T.);
#127=FACE_OUTER_BOUND('',#156,.T.);
#128=FACE_OUTER_BOUND('',#157,.T.);
#129=FACE_OUTER_BOUND('',#158,.T.);
#130=FACE_OUTER_BOUND('',#159,.T.);
#131=FACE_OUTER_BOUND('',#160,.T.);
#132=FACE_OUTER_BOUND('',#161,.T.);
#133=FACE_OUTER_BOUND('',#162,.T.);
#134=FACE_OUTER_BOUND('',#163,.T.);
#135=FACE_OUTER_BOUND('',#164,.T.);
#136=FACE_OUTER_BOUND('',#165,.T.);
#137=FACE_OUTER_BOUND('',#166,.T.);
#138=FACE_OUTER_BOUND('',#167,.T.);
#139=FACE_OUTER_BOUND('',#170,.T.);
#140=EDGE_LOOP('',(#173,#174,#175,#176,#177));
#141=EDGE_LOOP('',(#178));
#142=EDGE_LOOP('',(#179,#180,#181,#182,#183,#184,#185,#186,#187,#188,#189,
#190));
#143=EDGE_LOOP('',(#191,#192,#193,#194,#195,#196,#197,#198));
#144=EDGE_LOOP('',(#199,#200,#201,#202,#203));
#145=EDGE_LOOP('',(#204,#205,#206,#207,#208));
#146=EDGE_LOOP('',(#209,#210,#211,#212,#213,#214));
#147=EDGE_LOOP('',(#215));
#148=EDGE_LOOP('',(#216,#217,#218,#219));
#149=EDGE_LOOP('',(#220,#221,#222,#223,#224,#225,#226,#227));
#150=EDGE_LOOP('',(#228,#229,#230,#231));
#151=EDGE_LOOP('',(#232,#233,#234,#235,#236));
#152=EDGE_LOOP('',(#237,#238,#239,#240,#241,#242));
#153=EDGE_LOOP('',(#243,#244,#245,#246,#247));
#154=EDGE_LOOP('',(#248,#249,#250,#251));
#155=EDGE_LOOP('',(#252,#253,#254,#255,#256));
#156=EDGE_LOOP('',(#257,#258,#259,#260,#261,#262));
#157=EDGE_LOOP('',(#263,#264,#265,#266));
#158=EDGE_LOOP('',(#267,#268,#269,#270));
#159=EDGE_LOOP('',(#271,#272,#273,#274));
#160=EDGE_LOOP('',(#275,#276,#277,#278));
#161=EDGE_LOOP('',(#279,#280,#281,#282));
#162=EDGE_LOOP('',(#283,#284,#285,#286,#287,#288,#289,#290));
#163=EDGE_LOOP('',(#291,#292,#293,#294));
#164=EDGE_LOOP('',(#295,#296,#297,#298));
#165=EDGE_LOOP('',(#299,#300,#301,#302));
#166=EDGE_LOOP('',(#303,#304,#305,#306));
#167=EDGE_LOOP('',(#307,#308,#309,#310));
#168=EDGE_LOOP('',(#311));
#169=EDGE_LOOP('',(#312,#313));
#170=EDGE_LOOP('',(#314));
#171=EDGE_LOOP('',(#315));
#172=EDGE_LOOP('',(#316));
#173=ORIENTED_EDGE('',*,*,#366,.F.);
#174=ORIENTED_EDGE('',*,*,#367,.F.);
#175=ORIENTED_EDGE('',*,*,#368,.T.);
#176=ORIENTED_EDGE('',*,*,#369,.F.);
#177=ORIENTED_EDGE('',*,*,#370,.F.);
#178=ORIENTED_EDGE('',*,*,#371,.F.);
#179=ORIENTED_EDGE('',*,*,#372,.F.);
#180=ORIENTED_EDGE('',*,*,#373,.T.);
#181=ORIENTED_EDGE('',*,*,#374,.T.);
#182=ORIENTED_EDGE('',*,*,#367,.T.);
#183=ORIENTED_EDGE('',*,*,#375,.F.);
#184=ORIENTED_EDGE('',*,*,#376,.T.);
#185=ORIENTED_EDGE('',*,*,#377,.F.);
#186=ORIENTED_EDGE('',*,*,#378,.T.);
#187=ORIENTED_EDGE('',*,*,#379,.F.);
#188=ORIENTED_EDGE('',*,*,#380,.T.);
#189=ORIENTED_EDGE('',*,*,#381,.F.);
#190=ORIENTED_EDGE('',*,*,#382,.T.);
#191=ORIENTED_EDGE('',*,*,#383,.F.);
#192=ORIENTED_EDGE('',*,*,#384,.T.);
#193=ORIENTED_EDGE('',*,*,#385,.F.);
#194=ORIENTED_EDGE('',*,*,#386,.T.);
#195=ORIENTED_EDGE('',*,*,#387,.F.);
#196=ORIENTED_EDGE('',*,*,#388,.T.);
#197=ORIENTED_EDGE('',*,*,#389,.F.);
#198=ORIENTED_EDGE('',*,*,#390,.T.);
#199=ORIENTED_EDGE('',*,*,#369,.T.);
#200=ORIENTED_EDGE('',*,*,#391,.T.);
#201=ORIENTED_EDGE('',*,*,#392,.F.);
#202=ORIENTED_EDGE('',*,*,#393,.T.);
#203=ORIENTED_EDGE('',*,*,#394,.T.);
#204=ORIENTED_EDGE('',*,*,#395,.T.);
#205=ORIENTED_EDGE('',*,*,#396,.T.);
#206=ORIENTED_EDGE('',*,*,#397,.F.);
#207=ORIENTED_EDGE('',*,*,#398,.T.);
#208=ORIENTED_EDGE('',*,*,#392,.T.);
#209=ORIENTED_EDGE('',*,*,#397,.T.);
#210=ORIENTED_EDGE('',*,*,#399,.T.);
#211=ORIENTED_EDGE('',*,*,#381,.T.);
#212=ORIENTED_EDGE('',*,*,#400,.T.);
#213=ORIENTED_EDGE('',*,*,#401,.F.);
#214=ORIENTED_EDGE('',*,*,#402,.T.);
#215=ORIENTED_EDGE('',*,*,#403,.F.);
#216=ORIENTED_EDGE('',*,*,#404,.F.);
#217=ORIENTED_EDGE('',*,*,#393,.F.);
#218=ORIENTED_EDGE('',*,*,#398,.F.);
#219=ORIENTED_EDGE('',*,*,#402,.F.);
#220=ORIENTED_EDGE('',*,*,#405,.T.);
#221=ORIENTED_EDGE('',*,*,#370,.T.);
#222=ORIENTED_EDGE('',*,*,#394,.F.);
#223=ORIENTED_EDGE('',*,*,#404,.T.);
#224=ORIENTED_EDGE('',*,*,#401,.T.);
#225=ORIENTED_EDGE('',*,*,#406,.T.);
#226=ORIENTED_EDGE('',*,*,#407,.F.);
#227=ORIENTED_EDGE('',*,*,#408,.F.);
#228=ORIENTED_EDGE('',*,*,#409,.F.);
#229=ORIENTED_EDGE('',*,*,#406,.F.);
#230=ORIENTED_EDGE('',*,*,#400,.F.);
#231=ORIENTED_EDGE('',*,*,#380,.F.);
#232=ORIENTED_EDGE('',*,*,#374,.F.);
#233=ORIENTED_EDGE('',*,*,#410,.T.);
#234=ORIENTED_EDGE('',*,*,#395,.F.);
#235=ORIENTED_EDGE('',*,*,#391,.F.);
#236=ORIENTED_EDGE('',*,*,#368,.F.);
#237=ORIENTED_EDGE('',*,*,#411,.F.);
#238=ORIENTED_EDGE('',*,*,#382,.F.);
#239=ORIENTED_EDGE('',*,*,#399,.F.);
#240=ORIENTED_EDGE('',*,*,#396,.F.);
#241=ORIENTED_EDGE('',*,*,#410,.F.);
#242=ORIENTED_EDGE('',*,*,#373,.F.);
#243=ORIENTED_EDGE('',*,*,#412,.T.);
#244=ORIENTED_EDGE('',*,*,#413,.T.);
#245=ORIENTED_EDGE('',*,*,#375,.T.);
#246=ORIENTED_EDGE('',*,*,#366,.T.);
#247=ORIENTED_EDGE('',*,*,#405,.F.);
#248=ORIENTED_EDGE('',*,*,#414,.T.);
#249=ORIENTED_EDGE('',*,*,#415,.T.);
#250=ORIENTED_EDGE('',*,*,#377,.T.);
#251=ORIENTED_EDGE('',*,*,#416,.T.);
#252=ORIENTED_EDGE('',*,*,#379,.T.);
#253=ORIENTED_EDGE('',*,*,#417,.T.);
#254=ORIENTED_EDGE('',*,*,#418,.T.);
#255=ORIENTED_EDGE('',*,*,#407,.T.);
#256=ORIENTED_EDGE('',*,*,#409,.T.);
#257=ORIENTED_EDGE('',*,*,#418,.F.);
#258=ORIENTED_EDGE('',*,*,#419,.T.);
#259=ORIENTED_EDGE('',*,*,#414,.F.);
#260=ORIENTED_EDGE('',*,*,#420,.T.);
#261=ORIENTED_EDGE('',*,*,#412,.F.);
#262=ORIENTED_EDGE('',*,*,#408,.T.);
#263=ORIENTED_EDGE('',*,*,#378,.F.);
#264=ORIENTED_EDGE('',*,*,#415,.F.);
#265=ORIENTED_EDGE('',*,*,#419,.F.);
#266=ORIENTED_EDGE('',*,*,#417,.F.);
#267=ORIENTED_EDGE('',*,*,#376,.F.);
#268=ORIENTED_EDGE('',*,*,#413,.F.);
#269=ORIENTED_EDGE('',*,*,#420,.F.);
#270=ORIENTED_EDGE('',*,*,#416,.F.);
#271=ORIENTED_EDGE('',*,*,#421,.T.);
#272=ORIENTED_EDGE('',*,*,#422,.T.);
#273=ORIENTED_EDGE('',*,*,#383,.T.);
#274=ORIENTED_EDGE('',*,*,#423,.T.);
#275=ORIENTED_EDGE('',*,*,#385,.T.);
#276=ORIENTED_EDGE('',*,*,#424,.T.);
#277=ORIENTED_EDGE('',*,*,#425,.T.);
#278=ORIENTED_EDGE('',*,*,#426,.T.);
#279=ORIENTED_EDGE('',*,*,#387,.T.);
#280=ORIENTED_EDGE('',*,*,#427,.T.);
#281=ORIENTED_EDGE('',*,*,#428,.T.);
#282=ORIENTED_EDGE('',*,*,#429,.T.);
#283=ORIENTED_EDGE('',*,*,#425,.F.);
#284=ORIENTED_EDGE('',*,*,#430,.T.);
#285=ORIENTED_EDGE('',*,*,#421,.F.);
#286=ORIENTED_EDGE('',*,*,#431,.T.);
#287=ORIENTED_EDGE('',*,*,#432,.F.);
#288=ORIENTED_EDGE('',*,*,#433,.T.);
#289=ORIENTED_EDGE('',*,*,#428,.F.);
#290=ORIENTED_EDGE('',*,*,#434,.T.);
#291=ORIENTED_EDGE('',*,*,#389,.T.);
#292=ORIENTED_EDGE('',*,*,#435,.T.);
#293=ORIENTED_EDGE('',*,*,#432,.T.);
#294=ORIENTED_EDGE('',*,*,#436,.T.);
#295=ORIENTED_EDGE('',*,*,#384,.F.);
#296=ORIENTED_EDGE('',*,*,#422,.F.);
#297=ORIENTED_EDGE('',*,*,#430,.F.);
#298=ORIENTED_EDGE('',*,*,#424,.F.);
#299=ORIENTED_EDGE('',*,*,#386,.F.);
#300=ORIENTED_EDGE('',*,*,#426,.F.);
#301=ORIENTED_EDGE('',*,*,#434,.F.);
#302=ORIENTED_EDGE('',*,*,#427,.F.);
#303=ORIENTED_EDGE('',*,*,#388,.F.);
#304=ORIENTED_EDGE('',*,*,#429,.F.);
#305=ORIENTED_EDGE('',*,*,#433,.F.);
#306=ORIENTED_EDGE('',*,*,#435,.F.);
#307=ORIENTED_EDGE('',*,*,#390,.F.);
#308=ORIENTED_EDGE('',*,*,#436,.F.);
#309=ORIENTED_EDGE('',*,*,#431,.F.);
#310=ORIENTED_EDGE('',*,*,#423,.F.);
#311=ORIENTED_EDGE('',*,*,#403,.T.);
#312=ORIENTED_EDGE('',*,*,#372,.T.);
#313=ORIENTED_EDGE('',*,*,#411,.T.);
#314=ORIENTED_EDGE('',*,*,#437,.F.);
#315=ORIENTED_EDGE('',*,*,#371,.T.);
#316=ORIENTED_EDGE('',*,*,#437,.T.);
#317=VERTEX_POINT('',#743);
#318=VERTEX_POINT('',#744);
#319=VERTEX_POINT('',#746);
#320=VERTEX_POINT('',#748);
#321=VERTEX_POINT('',#750);
#322=VERTEX_POINT('',#754);
#323=VERTEX_POINT('',#756);
#324=VERTEX_POINT('',#757);
#325=VERTEX_POINT('',#759);
#326=VERTEX_POINT('',#762);
#327=VERTEX_POINT('',#764);
#328=VERTEX_POINT('',#766);
#329=VERTEX_POINT('',#768);
#330=VERTEX_POINT('',#770);
#331=VERTEX_POINT('',#772);
#332=VERTEX_POINT('',#774);
#333=VERTEX_POINT('',#777);
#334=VERTEX_POINT('',#778);
#335=VERTEX_POINT('',#780);
#336=VERTEX_POINT('',#782);
#337=VERTEX_POINT('',#784);
#338=VERTEX_POINT('',#786);
#339=VERTEX_POINT('',#788);
#340=VERTEX_POINT('',#790);
#341=VERTEX_POINT('',#794);
#342=VERTEX_POINT('',#796);
#343=VERTEX_POINT('',#798);
#344=VERTEX_POINT('',#802);
#345=VERTEX_POINT('',#804);
#346=VERTEX_POINT('',#806);
#347=VERTEX_POINT('',#811);
#348=VERTEX_POINT('',#813);
#349=VERTEX_POINT('',#817);
#350=VERTEX_POINT('',#821);
#351=VERTEX_POINT('',#823);
#352=VERTEX_POINT('',#825);
#353=VERTEX_POINT('',#835);
#354=VERTEX_POINT('',#839);
#355=VERTEX_POINT('',#840);
#356=VERTEX_POINT('',#845);
#357=VERTEX_POINT('',#854);
#358=VERTEX_POINT('',#855);
#359=VERTEX_POINT('',#860);
#360=VERTEX_POINT('',#862);
#361=VERTEX_POINT('',#866);
#362=VERTEX_POINT('',#868);
#363=VERTEX_POINT('',#873);
#364=VERTEX_POINT('',#875);
#365=VERTEX_POINT('',#888);
#366=EDGE_CURVE('',#317,#318,#438,.T.);
#367=EDGE_CURVE('',#319,#317,#439,.T.);
#368=EDGE_CURVE('',#319,#320,#440,.T.);
#369=EDGE_CURVE('',#321,#320,#441,.T.);
#370=EDGE_CURVE('',#318,#321,#442,.T.);
#371=EDGE_CURVE('',#322,#322,#52,.T.);
#372=EDGE_CURVE('',#323,#324,#53,.T.);
#373=EDGE_CURVE('',#323,#325,#443,.T.);
#374=EDGE_CURVE('',#325,#319,#444,.T.);
#375=EDGE_CURVE('',#326,#317,#445,.T.);
#376=EDGE_CURVE('',#326,#327,#54,.T.);
#377=EDGE_CURVE('',#328,#327,#446,.T.);
#378=EDGE_CURVE('',#328,#329,#55,.T.);
#379=EDGE_CURVE('',#330,#329,#447,.T.);
#380=EDGE_CURVE('',#330,#331,#448,.T.);
#381=EDGE_CURVE('',#332,#331,#449,.T.);
#382=EDGE_CURVE('',#332,#324,#450,.T.);
#383=EDGE_CURVE('',#333,#334,#451,.T.);
#384=EDGE_CURVE('',#333,#335,#56,.T.);
#385=EDGE_CURVE('',#336,#335,#452,.T.);
#386=EDGE_CURVE('',#336,#337,#57,.T.);
#387=EDGE_CURVE('',#338,#337,#453,.T.);
#388=EDGE_CURVE('',#338,#339,#58,.T.);
#389=EDGE_CURVE('',#340,#339,#454,.T.);
#390=EDGE_CURVE('',#340,#334,#59,.T.);
#391=EDGE_CURVE('',#320,#341,#455,.T.);
#392=EDGE_CURVE('',#342,#341,#456,.T.);
#393=EDGE_CURVE('',#342,#343,#457,.T.);
#394=EDGE_CURVE('',#343,#321,#458,.T.);
#395=EDGE_CURVE('',#341,#344,#459,.T.);
#396=EDGE_CURVE('',#344,#345,#460,.T.);
#397=EDGE_CURVE('',#346,#345,#461,.T.);
#398=EDGE_CURVE('',#346,#342,#462,.T.);
#399=EDGE_CURVE('',#345,#332,#463,.T.);
#400=EDGE_CURVE('',#331,#347,#464,.T.);
#401=EDGE_CURVE('',#348,#347,#465,.T.);
#402=EDGE_CURVE('',#348,#346,#466,.T.);
#403=EDGE_CURVE('',#349,#349,#60,.T.);
#404=EDGE_CURVE('',#343,#348,#467,.T.);
#405=EDGE_CURVE('',#350,#318,#468,.T.);
#406=EDGE_CURVE('',#347,#351,#469,.T.);
#407=EDGE_CURVE('',#352,#351,#470,.T.);
#408=EDGE_CURVE('',#350,#352,#471,.T.);
#409=EDGE_CURVE('',#351,#330,#472,.T.);
#410=EDGE_CURVE('',#325,#344,#473,.T.);
#411=EDGE_CURVE('',#324,#323,#42,.T.);
#412=EDGE_CURVE('',#350,#353,#474,.T.);
#413=EDGE_CURVE('',#353,#326,#475,.T.);
#414=EDGE_CURVE('',#354,#355,#476,.T.);
#415=EDGE_CURVE('',#355,#328,#477,.T.);
#416=EDGE_CURVE('',#327,#354,#478,.T.);
#417=EDGE_CURVE('',#329,#356,#479,.T.);
#418=EDGE_CURVE('',#356,#352,#480,.T.);
#419=EDGE_CURVE('',#356,#355,#61,.T.);
#420=EDGE_CURVE('',#354,#353,#62,.T.);
#421=EDGE_CURVE('',#357,#358,#481,.T.);
#422=EDGE_CURVE('',#358,#333,#482,.T.);
#423=EDGE_CURVE('',#334,#357,#483,.T.);
#424=EDGE_CURVE('',#335,#359,#484,.T.);
#425=EDGE_CURVE('',#359,#360,#485,.T.);
#426=EDGE_CURVE('',#360,#336,#486,.T.);
#427=EDGE_CURVE('',#337,#361,#487,.T.);
#428=EDGE_CURVE('',#361,#362,#488,.T.);
#429=EDGE_CURVE('',#362,#338,#489,.T.);
#430=EDGE_CURVE('',#359,#358,#63,.T.);
#431=EDGE_CURVE('',#357,#363,#64,.T.);
#432=EDGE_CURVE('',#364,#363,#490,.T.);
#433=EDGE_CURVE('',#364,#362,#65,.T.);
#434=EDGE_CURVE('',#361,#360,#66,.T.);
#435=EDGE_CURVE('',#339,#364,#491,.T.);
#436=EDGE_CURVE('',#363,#340,#492,.T.);
#437=EDGE_CURVE('',#365,#365,#67,.T.);
#438=LINE('',#742,#493);
#439=LINE('',#745,#494);
#440=LINE('',#747,#495);
#441=LINE('',#749,#496);
#442=LINE('',#751,#497);
#443=LINE('',#758,#498);
#444=LINE('',#760,#499);
#445=LINE('',#761,#500);
#446=LINE('',#765,#501);
#447=LINE('',#769,#502);
#448=LINE('',#771,#503);
#449=LINE('',#773,#504);
#450=LINE('',#775,#505);
#451=LINE('',#776,#506);
#452=LINE('',#781,#507);
#453=LINE('',#785,#508);
#454=LINE('',#789,#509);
#455=LINE('',#793,#510);
#456=LINE('',#795,#511);
#457=LINE('',#797,#512);
#458=LINE('',#799,#513);
#459=LINE('',#801,#514);
#460=LINE('',#803,#515);
#461=LINE('',#805,#516);
#462=LINE('',#807,#517);
#463=LINE('',#809,#518);
#464=LINE('',#810,#519);
#465=LINE('',#812,#520);
#466=LINE('',#814,#521);
#467=LINE('',#818,#522);
#468=LINE('',#820,#523);
#469=LINE('',#822,#524);
#470=LINE('',#824,#525);
#471=LINE('',#826,#526);
#472=LINE('',#828,#527);
#473=LINE('',#830,#528);
#474=LINE('',#834,#529);
#475=LINE('',#836,#530);
#476=LINE('',#838,#531);
#477=LINE('',#841,#532);
#478=LINE('',#842,#533);
#479=LINE('',#844,#534);
#480=LINE('',#846,#535);
#481=LINE('',#853,#536);
#482=LINE('',#856,#537);
#483=LINE('',#857,#538);
#484=LINE('',#859,#539);
#485=LINE('',#861,#540);
#486=LINE('',#863,#541);
#487=LINE('',#865,#542);
#488=LINE('',#867,#543);
#489=LINE('',#869,#544);
#490=LINE('',#874,#545);
#491=LINE('',#879,#546);
#492=LINE('',#880,#547);
#493=VECTOR('',#596,1.);
#494=VECTOR('',#597,1.);
#495=VECTOR('',#598,1.);
#496=VECTOR('',#599,1.);
#497=VECTOR('',#600,1.);
#498=VECTOR('',#607,1.);
#499=VECTOR('',#608,1.);
#500=VECTOR('',#609,1.);
#501=VECTOR('',#612,1.);
#502=VECTOR('',#615,1.);
#503=VECTOR('',#616,1.);
#504=VECTOR('',#617,1.);
#505=VECTOR('',#618,1.);
#506=VECTOR('',#619,1.);
#507=VECTOR('',#622,1.);
#508=VECTOR('',#625,1.);
#509=VECTOR('',#628,1.);
#510=VECTOR('',#633,1.);
#511=VECTOR('',#634,1.);
#512=VECTOR('',#635,1.);
#513=VECTOR('',#636,1.);
#514=VECTOR('',#639,1.);
#515=VECTOR('',#640,1.);
#516=VECTOR('',#641,1.);
#517=VECTOR('',#642,1.);
#518=VECTOR('',#645,1.);
#519=VECTOR('',#646,1.);
#520=VECTOR('',#647,1.);
#521=VECTOR('',#648,1.);
#522=VECTOR('',#653,1.);
#523=VECTOR('',#656,1.);
#524=VECTOR('',#657,1.);
#525=VECTOR('',#658,1.);
#526=VECTOR('',#659,1.);
#527=VECTOR('',#662,1.);
#528=VECTOR('',#665,1.);
#529=VECTOR('',#672,1.);
#530=VECTOR('',#673,1.);
#531=VECTOR('',#676,1.);
#532=VECTOR('',#677,1.);
#533=VECTOR('',#678,1.);
#534=VECTOR('',#681,1.);
#535=VECTOR('',#682,1.);
#536=VECTOR('',#695,1.);
#537=VECTOR('',#696,1.);
#538=VECTOR('',#697,1.);
#539=VECTOR('',#700,1.);
#540=VECTOR('',#701,1.);
#541=VECTOR('',#702,1.);
#542=VECTOR('',#705,1.);
#543=VECTOR('',#706,1.);
#544=VECTOR('',#707,1.);
#545=VECTOR('',#714,1.);
#546=VECTOR('',#721,1.);
#547=VECTOR('',#722,1.);
#548=AXIS2_PLACEMENT_3D('',#741,#594,#595);
#549=AXIS2_PLACEMENT_3D('',#752,#601,#602);
#550=AXIS2_PLACEMENT_3D('',#753,#603,#604);
#551=AXIS2_PLACEMENT_3D('',#755,#605,#606);
#552=AXIS2_PLACEMENT_3D('',#763,#610,#611);
#553=AXIS2_PLACEMENT_3D('',#767,#613,#614);
#554=AXIS2_PLACEMENT_3D('',#779,#620,#621);
#555=AXIS2_PLACEMENT_3D('',#783,#623,#624);
#556=AXIS2_PLACEMENT_3D('',#787,#626,#627);
#557=AXIS2_PLACEMENT_3D('',#791,#629,#630);
#558=AXIS2_PLACEMENT_3D('',#792,#631,#632);
#559=AXIS2_PLACEMENT_3D('',#800,#637,#638);
#560=AXIS2_PLACEMENT_3D('',#808,#643,#644);
#561=AXIS2_PLACEMENT_3D('',#815,#649,#650);
#562=AXIS2_PLACEMENT_3D('',#816,#651,#652);
#563=AXIS2_PLACEMENT_3D('',#819,#654,#655);
#564=AXIS2_PLACEMENT_3D('',#827,#660,#661);
#565=AXIS2_PLACEMENT_3D('',#829,#663,#664);
#566=AXIS2_PLACEMENT_3D('',#831,#666,#667);
#567=AXIS2_PLACEMENT_3D('',#832,#668,#669);
#568=AXIS2_PLACEMENT_3D('',#833,#670,#671);
#569=AXIS2_PLACEMENT_3D('',#837,#674,#675);
#570=AXIS2_PLACEMENT_3D('',#843,#679,#680);
#571=AXIS2_PLACEMENT_3D('',#847,#683,#684);
#572=AXIS2_PLACEMENT_3D('',#848,#685,#686);
#573=AXIS2_PLACEMENT_3D('',#849,#687,#688);
#574=AXIS2_PLACEMENT_3D('',#850,#689,#690);
#575=AXIS2_PLACEMENT_3D('',#851,#691,#692);
#576=AXIS2_PLACEMENT_3D('',#852,#693,#694);
#577=AXIS2_PLACEMENT_3D('',#858,#698,#699);
#578=AXIS2_PLACEMENT_3D('',#864,#703,#704);
#579=AXIS2_PLACEMENT_3D('',#870,#708,#709);
#580=AXIS2_PLACEMENT_3D('',#871,#710,#711);
#581=AXIS2_PLACEMENT_3D('',#872,#712,#713);
#582=AXIS2_PLACEMENT_3D('',#876,#715,#716);
#583=AXIS2_PLACEMENT_3D('',#877,#717,#718);
#584=AXIS2_PLACEMENT_3D('',#878,#719,#720);
#585=AXIS2_PLACEMENT_3D('',#881,#723,#724);
#586=AXIS2_PLACEMENT_3D('',#882,#725,#726);
#587=AXIS2_PLACEMENT_3D('',#883,#727,#728);
#588=AXIS2_PLACEMENT_3D('',#884,#729,#730);
#589=AXIS2_PLACEMENT_3D('',#885,#731,#732);
#590=AXIS2_PLACEMENT_3D('',#886,#733,#734);
#591=AXIS2_PLACEMENT_3D('',#887,#735,#736);
#592=AXIS2_PLACEMENT_3D('',#889,#737,#738);
#593=AXIS2_PLACEMENT_3D('',#890,#739,#740);
#594=DIRECTION('',(0.,0.,1.));
#595=DIRECTION('',(1.,0.,0.));
#596=DIRECTION('',(0.707106781186547,0.,-0.707106781186548));
#597=DIRECTION('',(0.,1.,0.));
#598=DIRECTION('',(0.577350269189625,-0.577350269189627,-0.577350269189626));
#599=DIRECTION('',(-0.707106781186547,0.,0.707106781186548));
#600=DIRECTION('',(0.,-1.,0.));
#601=DIRECTION('',(-0.707106781186548,0.,-0.707106781186547));
#602=DIRECTION('',(0.,-1.,0.));
#603=DIRECTION('',(0.,0.,1.));
#604=DIRECTION('',(1.,0.,0.));
#605=DIRECTION('',(0.,0.,1.));
#606=DIRECTION('',(1.,0.,0.));
#607=DIRECTION('',(0.,-1.,0.));
#608=DIRECTION('',(1.,0.,0.));
#609=DIRECTION('',(1.,0.,0.));
#610=DIRECTION('',(0.,0.,-1.));
#611=DIRECTION('',(0.999999999999999,0.,0.));
#612=DIRECTION('',(0.,-1.,0.));
#613=DIRECTION('',(0.,0.,-1.));
#614=DIRECTION('',(0.999999999999999,0.,0.));
#615=DIRECTION('',(-1.,0.,0.));
#616=DIRECTION('',(0.,1.,0.));
#617=DIRECTION('',(1.,0.,0.));
#618=DIRECTION('',(0.,-1.,0.));
#619=DIRECTION('',(1.,0.,0.));
#620=DIRECTION('',(0.,0.,-1.));
#621=DIRECTION('',(1.,0.,0.));
#622=DIRECTION('',(0.,-1.,0.));
#623=DIRECTION('',(0.,0.,-1.));
#624=DIRECTION('',(1.,0.,0.));
#625=DIRECTION('',(-1.,0.,0.));
#626=DIRECTION('',(0.,0.,-1.));
#627=DIRECTION('',(1.,0.,0.));
#628=DIRECTION('',(0.,1.,0.));
#629=DIRECTION('',(0.,0.,-1.));
#630=DIRECTION('',(1.,0.,0.));
#631=DIRECTION('',(0.,0.,1.));
#632=DIRECTION('',(1.,0.,0.));
#633=DIRECTION('',(-1.,0.,0.));
#634=DIRECTION('',(0.,0.,1.));
#635=DIRECTION('',(1.,0.,0.));
#636=DIRECTION('',(0.,0.,1.));
#637=DIRECTION('',(0.,-1.,0.));
#638=DIRECTION('',(0.,0.,-1.));
#639=DIRECTION('',(0.,0.707106781186548,0.707106781186547));
#640=DIRECTION('',(0.,1.,0.));
#641=DIRECTION('',(0.,0.,1.));
#642=DIRECTION('',(0.,-1.,0.));
#643=DIRECTION('',(-1.,0.,0.));
#644=DIRECTION('',(0.,0.,1.));
#645=DIRECTION('',(0.707106781186548,0.,0.707106781186548));
#646=DIRECTION('',(0.707106781186547,0.,-0.707106781186548));
#647=DIRECTION('',(0.,0.,1.));
#648=DIRECTION('',(-1.,0.,0.));
#649=DIRECTION('',(0.,1.,0.));
#650=DIRECTION('',(0.,0.,1.));
#651=DIRECTION('',(0.,0.,-1.));
#652=DIRECTION('',(-1.,0.,0.));
#653=DIRECTION('',(0.,1.,0.));
#654=DIRECTION('',(0.,0.,-1.));
#655=DIRECTION('',(-1.,0.,0.));
#656=DIRECTION('',(0.,0.,1.));
#657=DIRECTION('',(0.,-1.,0.));
#658=DIRECTION('',(0.,0.,1.));
#659=DIRECTION('',(0.,1.,0.));
#660=DIRECTION('',(1.,0.,0.));
#661=DIRECTION('',(0.,0.,-1.));
#662=DIRECTION('',(-0.707106781186547,0.,0.707106781186548));
#663=DIRECTION('',(-0.707106781186548,0.,-0.707106781186547));
#664=DIRECTION('',(0.,-1.,0.));
#665=DIRECTION('',(-0.577350269189626,-0.577350269189626,-0.577350269189626));
#666=DIRECTION('',(0.,0.707106781186547,-0.707106781186548));
#667=DIRECTION('',(-1.,0.,0.));
#668=DIRECTION('',(-0.707106781186548,0.,0.707106781186548));
#669=DIRECTION('',(-0.707106781186548,0.,-0.707106781186548));
#670=DIRECTION('',(0.707106781186548,0.,-0.707106781186548));
#671=DIRECTION('',(0.,1.,0.));
#672=DIRECTION('',(-1.,0.,0.));
#673=DIRECTION('',(0.,0.,1.));
#674=DIRECTION('',(0.,-1.,0.));
#675=DIRECTION('',(0.,0.,-1.));
#676=DIRECTION('',(0.,1.,0.));
#677=DIRECTION('',(0.,0.,1.));
#678=DIRECTION('',(0.,0.,-1.));
#679=DIRECTION('',(-1.,0.,0.));
#680=DIRECTION('',(0.,0.,1.));
#681=DIRECTION('',(0.,0.,-1.));
#682=DIRECTION('',(1.,0.,0.));
#683=DIRECTION('',(0.,1.,0.));
#684=DIRECTION('',(0.,0.,1.));
#685=DIRECTION('',(0.,0.,1.));
#686=DIRECTION('',(-0.999999999999999,0.,0.));
#687=DIRECTION('',(0.,0.,1.));
#688=DIRECTION('',(-0.999999999999999,0.,0.));
#689=DIRECTION('',(0.,0.,-1.));
#690=DIRECTION('',(-1.,0.,0.));
#691=DIRECTION('',(0.,0.,1.));
#692=DIRECTION('',(0.999999999999999,0.,0.));
#693=DIRECTION('',(0.,0.,1.));
#694=DIRECTION('',(0.999999999999999,0.,0.));
#695=DIRECTION('',(-1.,0.,0.));
#696=DIRECTION('',(0.,0.,1.));
#697=DIRECTION('',(0.,0.,-1.));
#698=DIRECTION('',(0.,-1.,0.));
#699=DIRECTION('',(0.,0.,-1.));
#700=DIRECTION('',(0.,0.,-1.));
#701=DIRECTION('',(0.,1.,0.));
#702=DIRECTION('',(0.,0.,1.));
#703=DIRECTION('',(-1.,0.,0.));
#704=DIRECTION('',(0.,0.,1.));
#705=DIRECTION('',(0.,0.,-1.));
#706=DIRECTION('',(1.,0.,0.));
#707=DIRECTION('',(0.,0.,1.));
#708=DIRECTION('',(0.,1.,0.));
#709=DIRECTION('',(0.,0.,1.));
#710=DIRECTION('',(0.,0.,1.));
#711=DIRECTION('',(-1.,0.,0.));
#712=DIRECTION('',(0.,0.,1.));
#713=DIRECTION('',(-1.,0.,0.));
#714=DIRECTION('',(0.,-1.,0.));
#715=DIRECTION('',(0.,0.,1.));
#716=DIRECTION('',(-1.,0.,0.));
#717=DIRECTION('',(0.,0.,1.));
#718=DIRECTION('',(-1.,0.,0.));
#719=DIRECTION('',(0.,0.,-1.));
#720=DIRECTION('',(-1.,0.,0.));
#721=DIRECTION('',(0.,0.,-1.));
#722=DIRECTION('',(0.,0.,1.));
#723=DIRECTION('',(1.,0.,0.));
#724=DIRECTION('',(0.,0.,-1.));
#725=DIRECTION('',(0.,0.,1.));
#726=DIRECTION('',(1.,0.,0.));
#727=DIRECTION('',(0.,0.,1.));
#728=DIRECTION('',(1.,0.,0.));
#729=DIRECTION('',(0.,0.,1.));
#730=DIRECTION('',(1.,0.,0.));
#731=DIRECTION('',(0.,0.,1.));
#732=DIRECTION('',(1.,0.,0.));
#733=DIRECTION('',(0.,0.,-1.));
#734=DIRECTION('',(1.,0.,0.));
#735=DIRECTION('',(0.,0.,-1.));
#736=DIRECTION('',(1.,0.,0.));
#737=DIRECTION('',(0.,0.,-1.));
#738=DIRECTION('',(-1.,0.,0.));
#739=DIRECTION('',(0.,0.,-1.));
#740=DIRECTION('',(1.,0.,0.));
#741=CARTESIAN_POINT('',(0.,0.,0.));
#742=CARTESIAN_POINT('',(416.4,35.8,63.5));
#743=CARTESIAN_POINT('',(405.1,35.8,74.8));
#744=CARTESIAN_POINT('',(416.4,35.8,63.5));
#745=CARTESIAN_POINT('',(405.1,215.7,74.8));
#746=CARTESIAN_POINT('',(405.1,11.,74.8));
#747=CARTESIAN_POINT('',(344.4,71.7000000000002,135.5));
#748=CARTESIAN_POINT('',(416.1,0.,63.8));
#749=CARTESIAN_POINT('',(344.05,0.,135.85));
#750=CARTESIAN_POINT('',(416.4,0.,63.5));
#751=CARTESIAN_POINT('',(416.4,215.7,63.5));
#752=CARTESIAN_POINT('',(416.4,215.7,63.5));
#753=CARTESIAN_POINT('',(340.,193.5,74.8));
#754=CARTESIAN_POINT('',(353.,193.5,74.8));
#755=CARTESIAN_POINT('',(19.5,110.8,74.8));
#756=CARTESIAN_POINT('',(8.8,103.416911215487,74.8));
#757=CARTESIAN_POINT('',(8.8,118.183088784513,74.8));
#758=CARTESIAN_POINT('',(8.8,215.7,74.8));
#759=CARTESIAN_POINT('',(8.8,11.,74.8));
#760=CARTESIAN_POINT('',(208.2,11.,74.8));
#761=CARTESIAN_POINT('',(208.2,35.8,74.8));
#762=CARTESIAN_POINT('',(361.2,35.8,74.8));
#763=CARTESIAN_POINT('',(361.2,43.4,74.8));
#764=CARTESIAN_POINT('',(353.6,43.4,74.8));
#765=CARTESIAN_POINT('',(353.6,215.7,74.8));
#766=CARTESIAN_POINT('',(353.6,204.,74.8));
#767=CARTESIAN_POINT('',(361.2,204.,74.8));
#768=CARTESIAN_POINT('',(361.2,211.6,74.8));
#769=CARTESIAN_POINT('',(208.2,211.6,74.8));
#770=CARTESIAN_POINT('',(405.1,211.6,74.8));
#771=CARTESIAN_POINT('',(405.1,215.7,74.8));
#772=CARTESIAN_POINT('',(405.1,431.4,74.8));
#773=CARTESIAN_POINT('',(208.2,431.4,74.8));
#774=CARTESIAN_POINT('',(8.8,431.4,74.8));
#775=CARTESIAN_POINT('',(8.8,215.7,74.8));
#776=CARTESIAN_POINT('',(208.2,90.6,74.8));
#777=CARTESIAN_POINT('',(85.8,90.6,74.8));
#778=CARTESIAN_POINT('',(214.4,90.6,74.8));
#779=CARTESIAN_POINT('',(85.8,105.1,74.8));
#780=CARTESIAN_POINT('',(71.3,105.1,74.8));
#781=CARTESIAN_POINT('',(71.3,215.7,74.8));
#782=CARTESIAN_POINT('',(71.3,188.7,74.8));
#783=CARTESIAN_POINT('',(85.8,188.7,74.8));
#784=CARTESIAN_POINT('',(85.8,203.2,74.8));
#785=CARTESIAN_POINT('',(208.2,203.2,74.8));
#786=CARTESIAN_POINT('',(214.4,203.2,74.8));
#787=CARTESIAN_POINT('',(214.4,188.7,74.8));
#788=CARTESIAN_POINT('',(228.9,188.7,74.8));
#789=CARTESIAN_POINT('',(228.9,215.7,74.8));
#790=CARTESIAN_POINT('',(228.9,105.1,74.8));
#791=CARTESIAN_POINT('',(214.4,105.1,74.8));
#792=CARTESIAN_POINT('',(208.2,215.7,74.8));
#793=CARTESIAN_POINT('',(208.2,0.,63.8));
#794=CARTESIAN_POINT('',(0.,0.,63.8));
#795=CARTESIAN_POINT('',(0.,0.,0.));
#796=CARTESIAN_POINT('',(0.,0.,0.));
#797=CARTESIAN_POINT('',(208.2,0.,0.));
#798=CARTESIAN_POINT('',(416.4,0.,0.));
#799=CARTESIAN_POINT('',(416.4,0.,0.));
#800=CARTESIAN_POINT('',(208.2,0.,0.));
#801=CARTESIAN_POINT('',(0.,75.9500000000001,139.75));
#802=CARTESIAN_POINT('',(0.,2.19999999999998,66.));
#803=CARTESIAN_POINT('',(0.,215.7,66.));
#804=CARTESIAN_POINT('',(0.,431.4,66.));
#805=CARTESIAN_POINT('',(0.,431.4,0.));
#806=CARTESIAN_POINT('',(0.,431.4,0.));
#807=CARTESIAN_POINT('',(0.,215.7,0.));
#808=CARTESIAN_POINT('',(0.,215.7,0.));
#809=CARTESIAN_POINT('',(71.1,431.4,137.1));
#810=CARTESIAN_POINT('',(344.05,431.4,135.85));
#811=CARTESIAN_POINT('',(416.4,431.4,63.5));
#812=CARTESIAN_POINT('',(416.4,431.4,0.));
#813=CARTESIAN_POINT('',(416.4,431.4,0.));
#814=CARTESIAN_POINT('',(208.2,431.4,0.));
#815=CARTESIAN_POINT('',(208.2,431.4,0.));
#816=CARTESIAN_POINT('',(19.5,110.8,0.));
#817=CARTESIAN_POINT('',(6.5,110.8,0.));
#818=CARTESIAN_POINT('',(416.4,215.7,0.));
#819=CARTESIAN_POINT('',(208.2,215.7,0.));
#820=CARTESIAN_POINT('',(416.4,35.8,36.9));
#821=CARTESIAN_POINT('',(416.4,35.8,36.9));
#822=CARTESIAN_POINT('',(416.4,215.7,63.5));
#823=CARTESIAN_POINT('',(416.4,211.6,63.5));
#824=CARTESIAN_POINT('',(416.4,211.6,36.9));
#825=CARTESIAN_POINT('',(416.4,211.6,36.9));
#826=CARTESIAN_POINT('',(416.4,123.7,36.9));
#827=CARTESIAN_POINT('',(416.4,215.7,0.));
#828=CARTESIAN_POINT('',(416.4,211.6,63.5));
#829=CARTESIAN_POINT('',(416.4,215.7,63.5));
#830=CARTESIAN_POINT('',(67.9333333333333,70.1333333333334,133.933333333333));
#831=CARTESIAN_POINT('',(208.2,0.,63.8));
#832=CARTESIAN_POINT('',(19.5,110.8,85.5));
#833=CARTESIAN_POINT('',(0.,215.7,66.));
#834=CARTESIAN_POINT('',(385.,35.8,36.9));
#835=CARTESIAN_POINT('',(361.2,35.8,36.9));
#836=CARTESIAN_POINT('',(361.2,35.8,74.8));
#837=CARTESIAN_POINT('',(385.,35.8,36.9));
#838=CARTESIAN_POINT('',(353.6,123.7,36.9));
#839=CARTESIAN_POINT('',(353.6,43.4,36.9));
#840=CARTESIAN_POINT('',(353.6,204.,36.9));
#841=CARTESIAN_POINT('',(353.6,204.,74.8));
#842=CARTESIAN_POINT('',(353.6,43.4,36.9));
#843=CARTESIAN_POINT('',(353.6,123.7,36.9));
#844=CARTESIAN_POINT('',(361.2,211.6,36.9));
#845=CARTESIAN_POINT('',(361.2,211.6,36.9));
#846=CARTESIAN_POINT('',(385.,211.6,36.9));
#847=CARTESIAN_POINT('',(385.,211.6,36.9));
#848=CARTESIAN_POINT('',(361.2,204.,36.9));
#849=CARTESIAN_POINT('',(361.2,43.4,36.9));
#850=CARTESIAN_POINT('',(385.,123.7,36.9));
#851=CARTESIAN_POINT('',(361.2,204.,36.9));
#852=CARTESIAN_POINT('',(361.2,43.4,36.9));
#853=CARTESIAN_POINT('',(150.1,90.6,46.9));
#854=CARTESIAN_POINT('',(214.4,90.6,46.9));
#855=CARTESIAN_POINT('',(85.8,90.6,46.9));
#856=CARTESIAN_POINT('',(85.8,90.6,74.8));
#857=CARTESIAN_POINT('',(214.4,90.6,46.9));
#858=CARTESIAN_POINT('',(150.1,90.6,46.9));
#859=CARTESIAN_POINT('',(71.3,105.1,46.9));
#860=CARTESIAN_POINT('',(71.3,105.1,46.9));
#861=CARTESIAN_POINT('',(71.3,146.9,46.9));
#862=CARTESIAN_POINT('',(71.3,188.7,46.9));
#863=CARTESIAN_POINT('',(71.3,188.7,74.8));
#864=CARTESIAN_POINT('',(71.3,146.9,46.9));
#865=CARTESIAN_POINT('',(85.8,203.2,46.9));
#866=CARTESIAN_POINT('',(85.8,203.2,46.9));
#867=CARTESIAN_POINT('',(150.1,203.2,46.9));
#868=CARTESIAN_POINT('',(214.4,203.2,46.9));
#869=CARTESIAN_POINT('',(214.4,203.2,74.8));
#870=CARTESIAN_POINT('',(150.1,203.2,46.9));
#871=CARTESIAN_POINT('',(85.8,105.1,46.9));
#872=CARTESIAN_POINT('',(214.4,105.1,46.9));
#873=CARTESIAN_POINT('',(228.9,105.1,46.9));
#874=CARTESIAN_POINT('',(228.9,146.9,46.9));
#875=CARTESIAN_POINT('',(228.9,188.7,46.9));
#876=CARTESIAN_POINT('',(214.4,188.7,46.9));
#877=CARTESIAN_POINT('',(85.8,188.7,46.9));
#878=CARTESIAN_POINT('',(150.1,146.9,46.9));
#879=CARTESIAN_POINT('',(228.9,188.7,46.9));
#880=CARTESIAN_POINT('',(228.9,105.1,74.8));
#881=CARTESIAN_POINT('',(228.9,146.9,46.9));
#882=CARTESIAN_POINT('',(85.8,105.1,46.9));
#883=CARTESIAN_POINT('',(85.8,188.7,46.9));
#884=CARTESIAN_POINT('',(214.4,188.7,46.9));
#885=CARTESIAN_POINT('',(214.4,105.1,46.9));
#886=CARTESIAN_POINT('',(19.5,110.8,74.85));
#887=CARTESIAN_POINT('',(340.,193.5,38.9));
#888=CARTESIAN_POINT('',(353.,193.5,38.9));
#889=CARTESIAN_POINT('',(340.,193.5,38.9));
#890=CARTESIAN_POINT('',(340.,193.5,74.85));
#891=MECHANICAL_DESIGN_GEOMETRIC_PRESENTATION_REPRESENTATION('',(#24),#892);
#892=(
GEOMETRIC_REPRESENTATION_CONTEXT(3)
GLOBAL_UNCERTAINTY_ASSIGNED_CONTEXT((#893))
GLOBAL_UNIT_ASSIGNED_CONTEXT((#899,#895,#894))
REPRESENTATION_CONTEXT('featured_part_08976','TOP_LEVEL_ASSEMBLY_PART')
);
#893=UNCERTAINTY_MEASURE_WITH_UNIT(LENGTH_MEASURE(2.E-5),#899,
'DISTANCE_ACCURACY_VALUE','Maximum Tolerance applied to model');
#894=(
NAMED_UNIT(*)
SI_UNIT($,.STERADIAN.)
SOLID_ANGLE_UNIT()
);
#895=(
CONVERSION_BASED_UNIT('DEGREE',#897)
NAMED_UNIT(#896)
PLANE_ANGLE_UNIT()
);
#896=DIMENSIONAL_EXPONENTS(0.,0.,0.,0.,0.,0.,0.);
#897=PLANE_ANGLE_MEASURE_WITH_UNIT(PLANE_ANGLE_MEASURE(0.0174532925),#898);
#898=(
NAMED_UNIT(*)
PLANE_ANGLE_UNIT()
SI_UNIT($,.RADIAN.)
);
#899=(
LENGTH_UNIT()
NAMED_UNIT(*)
SI_UNIT(.MILLI.,.METRE.)
);
ENDSEC;
END-ISO-10303-21;
