ISO-10303-21;
HEADER;
/* Generated by software containing ST-Developer
 * from STEP Tools, Inc. (www.steptools.com) 
 */
/* OPTION: using custom schema-name function */

FILE_DESCRIPTION(
/* description */ (''),
/* implementation_level */ '2;1');

FILE_NAME(
/* name */ 'featured_part_10549.stp',
/* time_stamp */ '2026-07-15T16:35:28-04:00',
/* author */ (''),
/* organization */ (''),
/* preprocessor_version */ 'ST-DEVELOPER v20.1',
/* originating_system */ 'SIEMENS PLM Software NX2512.6002',
/* authorisation */ '');

FILE_SCHEMA (('AUTOMOTIVE_DESIGN { 1 0 10303 214 3 1 1 1 }'));
ENDSEC;

DATA;
#10=SHAPE_REPRESENTATION_RELATIONSHIP('None',
'relationship between featured_part_10549-None and featured_part_10549
-None',#22,#11);
#11=ADVANCED_BREP_SHAPE_REPRESENTATION('featured_part_10549-None',(#32),
#1493);
#12=SHAPE_DEFINITION_REPRESENTATION(#13,#22);
#13=PRODUCT_DEFINITION_SHAPE('','',#14);
#14=PRODUCT_DEFINITION(' ','',#16,#15);
#15=PRODUCT_DEFINITION_CONTEXT('part definition',#21,'design');
#16=PRODUCT_DEFINITION_FORMATION_WITH_SPECIFIED_SOURCE(' ',' ',#18,
 .NOT_KNOWN.);
#17=PRODUCT_RELATED_PRODUCT_CATEGORY('part','',(#18));
#18=PRODUCT('featured_part_10549','featured_part_10549',' ',(#19));
#19=PRODUCT_CONTEXT(' ',#21,'mechanical');
#20=APPLICATION_PROTOCOL_DEFINITION('international standard',
'automotive_design',2010,#21);
#21=APPLICATION_CONTEXT(
'core data for automotive mechanical design processes');
#22=SHAPE_REPRESENTATION('featured_part_10549-None',(#911),#1493);
#23=PRESENTATION_LAYER_ASSIGNMENT('1','Layer 1',(#32));
#24=STYLED_ITEM('',(#25),#32);
#25=PRESENTATION_STYLE_ASSIGNMENT((#26));
#26=SURFACE_STYLE_USAGE(.BOTH.,#27);
#27=SURFACE_SIDE_STYLE('',(#28));
#28=SURFACE_STYLE_FILL_AREA(#29);
#29=FILL_AREA_STYLE('',(#30));
#30=FILL_AREA_STYLE_COLOUR('',#31);
#31=COLOUR_RGB('medium steel',0.611764705882353,0.658823529411765,0.670588235294118);
#32=MANIFOLD_SOLID_BREP('',#33);
#33=CLOSED_SHELL('',(#106,#107,#108,#109,#110,#111,#112,#113,#114,#115,
#116,#117,#118,#119,#120,#121,#122,#123,#124,#125,#126,#127,#128,#129,#130,
#131,#132,#133,#134,#135,#136,#137,#138,#139,#140,#141,#142,#143,#144,#145,
#146,#147,#148,#149,#150));
#34=CYLINDRICAL_SURFACE('',#945,9.2);
#35=CYLINDRICAL_SURFACE('',#946,9.2);
#36=CYLINDRICAL_SURFACE('',#953,4.8);
#37=CYLINDRICAL_SURFACE('',#954,4.8);
#38=CYLINDRICAL_SURFACE('',#961,9.4);
#39=CYLINDRICAL_SURFACE('',#962,9.4);
#40=CYLINDRICAL_SURFACE('',#971,3.8);
#41=CYLINDRICAL_SURFACE('',#981,5.5);
#42=CYLINDRICAL_SURFACE('',#982,5.5);
#43=CYLINDRICAL_SURFACE('',#983,5.5);
#44=CYLINDRICAL_SURFACE('',#984,5.5);
#45=CYLINDRICAL_SURFACE('',#985,9.55);
#46=CYLINDRICAL_SURFACE('',#986,9.55);
#47=CYLINDRICAL_SURFACE('',#987,9.55);
#48=CYLINDRICAL_SURFACE('',#988,9.55);
#49=CYLINDRICAL_SURFACE('',#989,9.55);
#50=ELLIPSE('',#935,13.2936074863071,9.4);
#51=ELLIPSE('',#937,13.5057395206631,9.55);
#52=FACE_BOUND('',#218,.T.);
#53=FACE_BOUND('',#219,.T.);
#54=FACE_BOUND('',#220,.T.);
#55=FACE_BOUND('',#221,.T.);
#56=FACE_BOUND('',#222,.T.);
#57=FACE_BOUND('',#226,.T.);
#58=FACE_BOUND('',#227,.T.);
#59=FACE_BOUND('',#228,.T.);
#60=FACE_BOUND('',#229,.T.);
#61=FACE_BOUND('',#230,.T.);
#62=FACE_BOUND('',#231,.T.);
#63=FACE_BOUND('',#255,.T.);
#64=FACE_BOUND('',#256,.T.);
#65=FACE_BOUND('',#267,.T.);
#66=FACE_BOUND('',#268,.T.);
#67=FACE_BOUND('',#269,.T.);
#68=FACE_BOUND('',#270,.T.);
#69=FACE_BOUND('',#271,.T.);
#70=FACE_BOUND('',#272,.T.);
#71=FACE_BOUND('',#273,.T.);
#72=FACE_BOUND('',#274,.T.);
#73=FACE_BOUND('',#275,.T.);
#74=FACE_BOUND('',#276,.T.);
#75=CIRCLE('',#913,9.55);
#76=CIRCLE('',#914,9.55);
#77=CIRCLE('',#915,9.55);
#78=CIRCLE('',#916,9.55);
#79=CIRCLE('',#917,9.55);
#80=CIRCLE('',#918,3.8);
#81=CIRCLE('',#919,9.4);
#82=CIRCLE('',#920,4.8);
#83=CIRCLE('',#921,4.8);
#84=CIRCLE('',#922,9.2);
#85=CIRCLE('',#923,9.2);
#86=CIRCLE('',#928,9.55);
#87=CIRCLE('',#929,9.55);
#88=CIRCLE('',#930,9.55);
#89=CIRCLE('',#931,9.55);
#90=CIRCLE('',#932,9.55);
#91=CIRCLE('',#941,9.2);
#92=CIRCLE('',#942,9.2);
#93=CIRCLE('',#949,4.8);
#94=CIRCLE('',#950,4.8);
#95=CIRCLE('',#958,9.4);
#96=CIRCLE('',#959,9.4);
#97=CIRCLE('',#965,5.5);
#98=CIRCLE('',#966,5.5);
#99=CIRCLE('',#967,5.5);
#100=CIRCLE('',#968,5.5);
#101=CIRCLE('',#969,3.8);
#102=CIRCLE('',#976,5.5);
#103=CIRCLE('',#977,5.5);
#104=CIRCLE('',#978,5.5);
#105=CIRCLE('',#979,5.5);
#106=ADVANCED_FACE('',(#180),#151,.F.);
#107=ADVANCED_FACE('',(#52,#53,#54,#55,#56),#152,.T.);
#108=ADVANCED_FACE('',(#181),#153,.T.);
#109=ADVANCED_FACE('',(#182),#154,.T.);
#110=ADVANCED_FACE('',(#183),#155,.T.);
#111=ADVANCED_FACE('',(#57,#58,#59,#60,#61,#62),#156,.T.);
#112=ADVANCED_FACE('',(#184),#157,.T.);
#113=ADVANCED_FACE('',(#185),#158,.F.);
#114=ADVANCED_FACE('',(#186),#159,.F.);
#115=ADVANCED_FACE('',(#187),#160,.F.);
#116=ADVANCED_FACE('',(#188),#161,.F.);
#117=ADVANCED_FACE('',(#189),#162,.F.);
#118=ADVANCED_FACE('',(#190),#163,.F.);
#119=ADVANCED_FACE('',(#191),#34,.F.);
#120=ADVANCED_FACE('',(#192),#35,.F.);
#121=ADVANCED_FACE('',(#193),#164,.F.);
#122=ADVANCED_FACE('',(#194),#165,.F.);
#123=ADVANCED_FACE('',(#195),#166,.F.);
#124=ADVANCED_FACE('',(#196),#167,.F.);
#125=ADVANCED_FACE('',(#197),#36,.F.);
#126=ADVANCED_FACE('',(#198),#37,.F.);
#127=ADVANCED_FACE('',(#199),#168,.F.);
#128=ADVANCED_FACE('',(#200),#169,.F.);
#129=ADVANCED_FACE('',(#201),#170,.F.);
#130=ADVANCED_FACE('',(#202),#171,.F.);
#131=ADVANCED_FACE('',(#203),#38,.F.);
#132=ADVANCED_FACE('',(#204),#39,.F.);
#133=ADVANCED_FACE('',(#205),#172,.F.);
#134=ADVANCED_FACE('',(#206),#173,.F.);
#135=ADVANCED_FACE('',(#63,#64),#174,.F.);
#136=ADVANCED_FACE('',(#207),#40,.F.);
#137=ADVANCED_FACE('',(#208),#175,.F.);
#138=ADVANCED_FACE('',(#209),#176,.F.);
#139=ADVANCED_FACE('',(#210),#177,.F.);
#140=ADVANCED_FACE('',(#211),#178,.F.);
#141=ADVANCED_FACE('',(#212),#179,.F.);
#142=ADVANCED_FACE('',(#213),#41,.F.);
#143=ADVANCED_FACE('',(#214),#42,.F.);
#144=ADVANCED_FACE('',(#215),#43,.F.);
#145=ADVANCED_FACE('',(#216),#44,.F.);
#146=ADVANCED_FACE('',(#65,#66),#45,.F.);
#147=ADVANCED_FACE('',(#67,#68),#46,.F.);
#148=ADVANCED_FACE('',(#69,#70),#47,.F.);
#149=ADVANCED_FACE('',(#71,#72),#48,.F.);
#150=ADVANCED_FACE('',(#73,#74),#49,.F.);
#151=PLANE('',#912);
#152=PLANE('',#924);
#153=PLANE('',#925);
#154=PLANE('',#926);
#155=PLANE('',#927);
#156=PLANE('',#933);
#157=PLANE('',#934);
#158=PLANE('',#936);
#159=PLANE('',#938);
#160=PLANE('',#939);
#161=PLANE('',#940);
#162=PLANE('',#943);
#163=PLANE('',#944);
#164=PLANE('',#947);
#165=PLANE('',#948);
#166=PLANE('',#951);
#167=PLANE('',#952);
#168=PLANE('',#955);
#169=PLANE('',#956);
#170=PLANE('',#957);
#171=PLANE('',#960);
#172=PLANE('',#963);
#173=PLANE('',#964);
#174=PLANE('',#970);
#175=PLANE('',#972);
#176=PLANE('',#973);
#177=PLANE('',#974);
#178=PLANE('',#975);
#179=PLANE('',#980);
#180=FACE_OUTER_BOUND('',#217,.T.);
#181=FACE_OUTER_BOUND('',#223,.T.);
#182=FACE_OUTER_BOUND('',#224,.T.);
#183=FACE_OUTER_BOUND('',#225,.T.);
#184=FACE_OUTER_BOUND('',#232,.T.);
#185=FACE_OUTER_BOUND('',#233,.T.);
#186=FACE_OUTER_BOUND('',#234,.T.);
#187=FACE_OUTER_BOUND('',#235,.T.);
#188=FACE_OUTER_BOUND('',#236,.T.);
#189=FACE_OUTER_BOUND('',#237,.T.);
#190=FACE_OUTER_BOUND('',#238,.T.);
#191=FACE_OUTER_BOUND('',#239,.T.);
#192=FACE_OUTER_BOUND('',#240,.T.);
#193=FACE_OUTER_BOUND('',#241,.T.);
#194=FACE_OUTER_BOUND('',#242,.T.);
#195=FACE_OUTER_BOUND('',#243,.T.);
#196=FACE_OUTER_BOUND('',#244,.T.);
#197=FACE_OUTER_BOUND('',#245,.T.);
#198=FACE_OUTER_BOUND('',#246,.T.);
#199=FACE_OUTER_BOUND('',#247,.T.);
#200=FACE_OUTER_BOUND('',#248,.T.);
#201=FACE_OUTER_BOUND('',#249,.T.);
#202=FACE_OUTER_BOUND('',#250,.T.);
#203=FACE_OUTER_BOUND('',#251,.T.);
#204=FACE_OUTER_BOUND('',#252,.T.);
#205=FACE_OUTER_BOUND('',#253,.T.);
#206=FACE_OUTER_BOUND('',#254,.T.);
#207=FACE_OUTER_BOUND('',#257,.T.);
#208=FACE_OUTER_BOUND('',#258,.T.);
#209=FACE_OUTER_BOUND('',#259,.T.);
#210=FACE_OUTER_BOUND('',#260,.T.);
#211=FACE_OUTER_BOUND('',#261,.T.);
#212=FACE_OUTER_BOUND('',#262,.T.);
#213=FACE_OUTER_BOUND('',#263,.T.);
#214=FACE_OUTER_BOUND('',#264,.T.);
#215=FACE_OUTER_BOUND('',#265,.T.);
#216=FACE_OUTER_BOUND('',#266,.T.);
#217=EDGE_LOOP('',(#277,#278,#279,#280));
#218=EDGE_LOOP('',(#281));
#219=EDGE_LOOP('',(#282));
#220=EDGE_LOOP('',(#283));
#221=EDGE_LOOP('',(#284));
#222=EDGE_LOOP('',(#285,#286,#287,#288,#289,#290,#291,#292,#293,#294,#295,
#296,#297,#298,#299,#300,#301,#302,#303,#304,#305,#306,#307,#308));
#223=EDGE_LOOP('',(#309,#310,#311,#312,#313,#314,#315,#316,#317,#318));
#224=EDGE_LOOP('',(#319,#320,#321,#322,#323,#324,#325,#326,#327,#328));
#225=EDGE_LOOP('',(#329,#330,#331,#332));
#226=EDGE_LOOP('',(#333));
#227=EDGE_LOOP('',(#334));
#228=EDGE_LOOP('',(#335));
#229=EDGE_LOOP('',(#336));
#230=EDGE_LOOP('',(#337));
#231=EDGE_LOOP('',(#338,#339,#340,#341));
#232=EDGE_LOOP('',(#342,#343,#344,#345,#346,#347,#348,#349,#350,#351));
#233=EDGE_LOOP('',(#352,#353,#354,#355,#356,#357,#358));
#234=EDGE_LOOP('',(#359,#360,#361,#362,#363,#364));
#235=EDGE_LOOP('',(#365,#366,#367,#368,#369));
#236=EDGE_LOOP('',(#370,#371,#372,#373));
#237=EDGE_LOOP('',(#374,#375,#376,#377,#378,#379));
#238=EDGE_LOOP('',(#380,#381,#382,#383,#384));
#239=EDGE_LOOP('',(#385,#386,#387,#388));
#240=EDGE_LOOP('',(#389,#390,#391,#392));
#241=EDGE_LOOP('',(#393,#394,#395,#396));
#242=EDGE_LOOP('',(#397,#398,#399,#400));
#243=EDGE_LOOP('',(#401,#402,#403,#404,#405,#406));
#244=EDGE_LOOP('',(#407,#408,#409,#410));
#245=EDGE_LOOP('',(#411,#412,#413,#414));
#246=EDGE_LOOP('',(#415,#416,#417,#418));
#247=EDGE_LOOP('',(#419,#420,#421,#422));
#248=EDGE_LOOP('',(#423,#424,#425,#426,#427));
#249=EDGE_LOOP('',(#428,#429,#430,#431));
#250=EDGE_LOOP('',(#432,#433,#434,#435,#436,#437));
#251=EDGE_LOOP('',(#438,#439,#440,#441));
#252=EDGE_LOOP('',(#442,#443,#444,#445));
#253=EDGE_LOOP('',(#446,#447,#448,#449,#450));
#254=EDGE_LOOP('',(#451,#452,#453,#454));
#255=EDGE_LOOP('',(#455,#456,#457,#458,#459,#460,#461,#462));
#256=EDGE_LOOP('',(#463,#464,#465,#466,#467));
#257=EDGE_LOOP('',(#468,#469,#470,#471));
#258=EDGE_LOOP('',(#472,#473,#474,#475));
#259=EDGE_LOOP('',(#476,#477,#478,#479));
#260=EDGE_LOOP('',(#480,#481,#482,#483));
#261=EDGE_LOOP('',(#484,#485,#486,#487));
#262=EDGE_LOOP('',(#488,#489,#490,#491,#492,#493,#494,#495));
#263=EDGE_LOOP('',(#496,#497,#498,#499));
#264=EDGE_LOOP('',(#500,#501,#502,#503));
#265=EDGE_LOOP('',(#504,#505,#506,#507));
#266=EDGE_LOOP('',(#508,#509,#510,#511));
#267=EDGE_LOOP('',(#512));
#268=EDGE_LOOP('',(#513,#514));
#269=EDGE_LOOP('',(#515));
#270=EDGE_LOOP('',(#516));
#271=EDGE_LOOP('',(#517));
#272=EDGE_LOOP('',(#518));
#273=EDGE_LOOP('',(#519));
#274=EDGE_LOOP('',(#520));
#275=EDGE_LOOP('',(#521));
#276=EDGE_LOOP('',(#522));
#277=ORIENTED_EDGE('',*,*,#608,.F.);
#278=ORIENTED_EDGE('',*,*,#609,.F.);
#279=ORIENTED_EDGE('',*,*,#610,.F.);
#280=ORIENTED_EDGE('',*,*,#611,.F.);
#281=ORIENTED_EDGE('',*,*,#612,.F.);
#282=ORIENTED_EDGE('',*,*,#613,.F.);
#283=ORIENTED_EDGE('',*,*,#614,.F.);
#284=ORIENTED_EDGE('',*,*,#615,.F.);
#285=ORIENTED_EDGE('',*,*,#616,.F.);
#286=ORIENTED_EDGE('',*,*,#617,.T.);
#287=ORIENTED_EDGE('',*,*,#618,.F.);
#288=ORIENTED_EDGE('',*,*,#619,.T.);
#289=ORIENTED_EDGE('',*,*,#620,.F.);
#290=ORIENTED_EDGE('',*,*,#621,.F.);
#291=ORIENTED_EDGE('',*,*,#622,.F.);
#292=ORIENTED_EDGE('',*,*,#623,.T.);
#293=ORIENTED_EDGE('',*,*,#624,.F.);
#294=ORIENTED_EDGE('',*,*,#625,.T.);
#295=ORIENTED_EDGE('',*,*,#626,.F.);
#296=ORIENTED_EDGE('',*,*,#627,.F.);
#297=ORIENTED_EDGE('',*,*,#628,.T.);
#298=ORIENTED_EDGE('',*,*,#629,.F.);
#299=ORIENTED_EDGE('',*,*,#630,.T.);
#300=ORIENTED_EDGE('',*,*,#631,.F.);
#301=ORIENTED_EDGE('',*,*,#632,.F.);
#302=ORIENTED_EDGE('',*,*,#609,.T.);
#303=ORIENTED_EDGE('',*,*,#633,.F.);
#304=ORIENTED_EDGE('',*,*,#634,.T.);
#305=ORIENTED_EDGE('',*,*,#635,.F.);
#306=ORIENTED_EDGE('',*,*,#636,.T.);
#307=ORIENTED_EDGE('',*,*,#637,.F.);
#308=ORIENTED_EDGE('',*,*,#638,.T.);
#309=ORIENTED_EDGE('',*,*,#639,.T.);
#310=ORIENTED_EDGE('',*,*,#640,.T.);
#311=ORIENTED_EDGE('',*,*,#641,.F.);
#312=ORIENTED_EDGE('',*,*,#642,.F.);
#313=ORIENTED_EDGE('',*,*,#643,.T.);
#314=ORIENTED_EDGE('',*,*,#611,.T.);
#315=ORIENTED_EDGE('',*,*,#644,.F.);
#316=ORIENTED_EDGE('',*,*,#645,.T.);
#317=ORIENTED_EDGE('',*,*,#646,.T.);
#318=ORIENTED_EDGE('',*,*,#647,.F.);
#319=ORIENTED_EDGE('',*,*,#648,.F.);
#320=ORIENTED_EDGE('',*,*,#649,.F.);
#321=ORIENTED_EDGE('',*,*,#650,.T.);
#322=ORIENTED_EDGE('',*,*,#626,.T.);
#323=ORIENTED_EDGE('',*,*,#651,.T.);
#324=ORIENTED_EDGE('',*,*,#652,.F.);
#325=ORIENTED_EDGE('',*,*,#653,.T.);
#326=ORIENTED_EDGE('',*,*,#644,.T.);
#327=ORIENTED_EDGE('',*,*,#610,.T.);
#328=ORIENTED_EDGE('',*,*,#632,.T.);
#329=ORIENTED_EDGE('',*,*,#652,.T.);
#330=ORIENTED_EDGE('',*,*,#654,.T.);
#331=ORIENTED_EDGE('',*,*,#655,.F.);
#332=ORIENTED_EDGE('',*,*,#656,.T.);
#333=ORIENTED_EDGE('',*,*,#657,.F.);
#334=ORIENTED_EDGE('',*,*,#658,.F.);
#335=ORIENTED_EDGE('',*,*,#659,.F.);
#336=ORIENTED_EDGE('',*,*,#660,.F.);
#337=ORIENTED_EDGE('',*,*,#661,.F.);
#338=ORIENTED_EDGE('',*,*,#662,.F.);
#339=ORIENTED_EDGE('',*,*,#645,.F.);
#340=ORIENTED_EDGE('',*,*,#653,.F.);
#341=ORIENTED_EDGE('',*,*,#656,.F.);
#342=ORIENTED_EDGE('',*,*,#663,.F.);
#343=ORIENTED_EDGE('',*,*,#664,.F.);
#344=ORIENTED_EDGE('',*,*,#646,.F.);
#345=ORIENTED_EDGE('',*,*,#662,.T.);
#346=ORIENTED_EDGE('',*,*,#655,.T.);
#347=ORIENTED_EDGE('',*,*,#665,.T.);
#348=ORIENTED_EDGE('',*,*,#666,.F.);
#349=ORIENTED_EDGE('',*,*,#667,.F.);
#350=ORIENTED_EDGE('',*,*,#668,.T.);
#351=ORIENTED_EDGE('',*,*,#621,.T.);
#352=ORIENTED_EDGE('',*,*,#669,.F.);
#353=ORIENTED_EDGE('',*,*,#670,.T.);
#354=ORIENTED_EDGE('',*,*,#671,.F.);
#355=ORIENTED_EDGE('',*,*,#665,.F.);
#356=ORIENTED_EDGE('',*,*,#654,.F.);
#357=ORIENTED_EDGE('',*,*,#651,.F.);
#358=ORIENTED_EDGE('',*,*,#625,.F.);
#359=ORIENTED_EDGE('',*,*,#672,.F.);
#360=ORIENTED_EDGE('',*,*,#638,.F.);
#361=ORIENTED_EDGE('',*,*,#673,.F.);
#362=ORIENTED_EDGE('',*,*,#640,.F.);
#363=ORIENTED_EDGE('',*,*,#674,.F.);
#364=ORIENTED_EDGE('',*,*,#617,.F.);
#365=ORIENTED_EDGE('',*,*,#675,.T.);
#366=ORIENTED_EDGE('',*,*,#676,.T.);
#367=ORIENTED_EDGE('',*,*,#633,.T.);
#368=ORIENTED_EDGE('',*,*,#608,.T.);
#369=ORIENTED_EDGE('',*,*,#643,.F.);
#370=ORIENTED_EDGE('',*,*,#635,.T.);
#371=ORIENTED_EDGE('',*,*,#677,.T.);
#372=ORIENTED_EDGE('',*,*,#678,.T.);
#373=ORIENTED_EDGE('',*,*,#679,.T.);
#374=ORIENTED_EDGE('',*,*,#678,.F.);
#375=ORIENTED_EDGE('',*,*,#680,.T.);
#376=ORIENTED_EDGE('',*,*,#675,.F.);
#377=ORIENTED_EDGE('',*,*,#642,.T.);
#378=ORIENTED_EDGE('',*,*,#681,.F.);
#379=ORIENTED_EDGE('',*,*,#682,.T.);
#380=ORIENTED_EDGE('',*,*,#637,.T.);
#381=ORIENTED_EDGE('',*,*,#683,.T.);
#382=ORIENTED_EDGE('',*,*,#681,.T.);
#383=ORIENTED_EDGE('',*,*,#641,.T.);
#384=ORIENTED_EDGE('',*,*,#673,.T.);
#385=ORIENTED_EDGE('',*,*,#634,.F.);
#386=ORIENTED_EDGE('',*,*,#676,.F.);
#387=ORIENTED_EDGE('',*,*,#680,.F.);
#388=ORIENTED_EDGE('',*,*,#677,.F.);
#389=ORIENTED_EDGE('',*,*,#636,.F.);
#390=ORIENTED_EDGE('',*,*,#679,.F.);
#391=ORIENTED_EDGE('',*,*,#682,.F.);
#392=ORIENTED_EDGE('',*,*,#683,.F.);
#393=ORIENTED_EDGE('',*,*,#631,.T.);
#394=ORIENTED_EDGE('',*,*,#684,.T.);
#395=ORIENTED_EDGE('',*,*,#685,.T.);
#396=ORIENTED_EDGE('',*,*,#648,.T.);
#397=ORIENTED_EDGE('',*,*,#686,.T.);
#398=ORIENTED_EDGE('',*,*,#687,.T.);
#399=ORIENTED_EDGE('',*,*,#627,.T.);
#400=ORIENTED_EDGE('',*,*,#650,.F.);
#401=ORIENTED_EDGE('',*,*,#688,.F.);
#402=ORIENTED_EDGE('',*,*,#689,.T.);
#403=ORIENTED_EDGE('',*,*,#686,.F.);
#404=ORIENTED_EDGE('',*,*,#649,.T.);
#405=ORIENTED_EDGE('',*,*,#685,.F.);
#406=ORIENTED_EDGE('',*,*,#690,.T.);
#407=ORIENTED_EDGE('',*,*,#629,.T.);
#408=ORIENTED_EDGE('',*,*,#691,.T.);
#409=ORIENTED_EDGE('',*,*,#688,.T.);
#410=ORIENTED_EDGE('',*,*,#692,.T.);
#411=ORIENTED_EDGE('',*,*,#628,.F.);
#412=ORIENTED_EDGE('',*,*,#687,.F.);
#413=ORIENTED_EDGE('',*,*,#689,.F.);
#414=ORIENTED_EDGE('',*,*,#691,.F.);
#415=ORIENTED_EDGE('',*,*,#630,.F.);
#416=ORIENTED_EDGE('',*,*,#692,.F.);
#417=ORIENTED_EDGE('',*,*,#690,.F.);
#418=ORIENTED_EDGE('',*,*,#684,.F.);
#419=ORIENTED_EDGE('',*,*,#693,.T.);
#420=ORIENTED_EDGE('',*,*,#694,.T.);
#421=ORIENTED_EDGE('',*,*,#622,.T.);
#422=ORIENTED_EDGE('',*,*,#668,.F.);
#423=ORIENTED_EDGE('',*,*,#695,.T.);
#424=ORIENTED_EDGE('',*,*,#696,.T.);
#425=ORIENTED_EDGE('',*,*,#669,.T.);
#426=ORIENTED_EDGE('',*,*,#624,.T.);
#427=ORIENTED_EDGE('',*,*,#697,.T.);
#428=ORIENTED_EDGE('',*,*,#671,.T.);
#429=ORIENTED_EDGE('',*,*,#698,.T.);
#430=ORIENTED_EDGE('',*,*,#699,.T.);
#431=ORIENTED_EDGE('',*,*,#666,.T.);
#432=ORIENTED_EDGE('',*,*,#699,.F.);
#433=ORIENTED_EDGE('',*,*,#700,.T.);
#434=ORIENTED_EDGE('',*,*,#695,.F.);
#435=ORIENTED_EDGE('',*,*,#701,.T.);
#436=ORIENTED_EDGE('',*,*,#693,.F.);
#437=ORIENTED_EDGE('',*,*,#667,.T.);
#438=ORIENTED_EDGE('',*,*,#670,.F.);
#439=ORIENTED_EDGE('',*,*,#696,.F.);
#440=ORIENTED_EDGE('',*,*,#700,.F.);
#441=ORIENTED_EDGE('',*,*,#698,.F.);
#442=ORIENTED_EDGE('',*,*,#623,.F.);
#443=ORIENTED_EDGE('',*,*,#694,.F.);
#444=ORIENTED_EDGE('',*,*,#701,.F.);
#445=ORIENTED_EDGE('',*,*,#697,.F.);
#446=ORIENTED_EDGE('',*,*,#702,.T.);
#447=ORIENTED_EDGE('',*,*,#703,.T.);
#448=ORIENTED_EDGE('',*,*,#618,.T.);
#449=ORIENTED_EDGE('',*,*,#674,.T.);
#450=ORIENTED_EDGE('',*,*,#639,.F.);
#451=ORIENTED_EDGE('',*,*,#620,.T.);
#452=ORIENTED_EDGE('',*,*,#704,.T.);
#453=ORIENTED_EDGE('',*,*,#705,.T.);
#454=ORIENTED_EDGE('',*,*,#663,.T.);
#455=ORIENTED_EDGE('',*,*,#706,.T.);
#456=ORIENTED_EDGE('',*,*,#707,.T.);
#457=ORIENTED_EDGE('',*,*,#708,.T.);
#458=ORIENTED_EDGE('',*,*,#709,.T.);
#459=ORIENTED_EDGE('',*,*,#710,.T.);
#460=ORIENTED_EDGE('',*,*,#711,.T.);
#461=ORIENTED_EDGE('',*,*,#712,.T.);
#462=ORIENTED_EDGE('',*,*,#713,.T.);
#463=ORIENTED_EDGE('',*,*,#705,.F.);
#464=ORIENTED_EDGE('',*,*,#714,.T.);
#465=ORIENTED_EDGE('',*,*,#702,.F.);
#466=ORIENTED_EDGE('',*,*,#647,.T.);
#467=ORIENTED_EDGE('',*,*,#664,.T.);
#468=ORIENTED_EDGE('',*,*,#619,.F.);
#469=ORIENTED_EDGE('',*,*,#703,.F.);
#470=ORIENTED_EDGE('',*,*,#714,.F.);
#471=ORIENTED_EDGE('',*,*,#704,.F.);
#472=ORIENTED_EDGE('',*,*,#715,.T.);
#473=ORIENTED_EDGE('',*,*,#716,.T.);
#474=ORIENTED_EDGE('',*,*,#710,.F.);
#475=ORIENTED_EDGE('',*,*,#717,.T.);
#476=ORIENTED_EDGE('',*,*,#718,.T.);
#477=ORIENTED_EDGE('',*,*,#719,.T.);
#478=ORIENTED_EDGE('',*,*,#712,.F.);
#479=ORIENTED_EDGE('',*,*,#720,.T.);
#480=ORIENTED_EDGE('',*,*,#706,.F.);
#481=ORIENTED_EDGE('',*,*,#721,.T.);
#482=ORIENTED_EDGE('',*,*,#722,.T.);
#483=ORIENTED_EDGE('',*,*,#723,.T.);
#484=ORIENTED_EDGE('',*,*,#708,.F.);
#485=ORIENTED_EDGE('',*,*,#724,.T.);
#486=ORIENTED_EDGE('',*,*,#725,.T.);
#487=ORIENTED_EDGE('',*,*,#726,.T.);
#488=ORIENTED_EDGE('',*,*,#722,.F.);
#489=ORIENTED_EDGE('',*,*,#727,.T.);
#490=ORIENTED_EDGE('',*,*,#718,.F.);
#491=ORIENTED_EDGE('',*,*,#728,.T.);
#492=ORIENTED_EDGE('',*,*,#715,.F.);
#493=ORIENTED_EDGE('',*,*,#729,.T.);
#494=ORIENTED_EDGE('',*,*,#725,.F.);
#495=ORIENTED_EDGE('',*,*,#730,.T.);
#496=ORIENTED_EDGE('',*,*,#713,.F.);
#497=ORIENTED_EDGE('',*,*,#719,.F.);
#498=ORIENTED_EDGE('',*,*,#727,.F.);
#499=ORIENTED_EDGE('',*,*,#721,.F.);
#500=ORIENTED_EDGE('',*,*,#711,.F.);
#501=ORIENTED_EDGE('',*,*,#716,.F.);
#502=ORIENTED_EDGE('',*,*,#728,.F.);
#503=ORIENTED_EDGE('',*,*,#720,.F.);
#504=ORIENTED_EDGE('',*,*,#707,.F.);
#505=ORIENTED_EDGE('',*,*,#723,.F.);
#506=ORIENTED_EDGE('',*,*,#730,.F.);
#507=ORIENTED_EDGE('',*,*,#724,.F.);
#508=ORIENTED_EDGE('',*,*,#709,.F.);
#509=ORIENTED_EDGE('',*,*,#726,.F.);
#510=ORIENTED_EDGE('',*,*,#729,.F.);
#511=ORIENTED_EDGE('',*,*,#717,.F.);
#512=ORIENTED_EDGE('',*,*,#661,.T.);
#513=ORIENTED_EDGE('',*,*,#616,.T.);
#514=ORIENTED_EDGE('',*,*,#672,.T.);
#515=ORIENTED_EDGE('',*,*,#615,.T.);
#516=ORIENTED_EDGE('',*,*,#660,.T.);
#517=ORIENTED_EDGE('',*,*,#614,.T.);
#518=ORIENTED_EDGE('',*,*,#659,.T.);
#519=ORIENTED_EDGE('',*,*,#613,.T.);
#520=ORIENTED_EDGE('',*,*,#658,.T.);
#521=ORIENTED_EDGE('',*,*,#612,.T.);
#522=ORIENTED_EDGE('',*,*,#657,.T.);
#523=VERTEX_POINT('',#1240);
#524=VERTEX_POINT('',#1241);
#525=VERTEX_POINT('',#1243);
#526=VERTEX_POINT('',#1245);
#527=VERTEX_POINT('',#1249);
#528=VERTEX_POINT('',#1251);
#529=VERTEX_POINT('',#1253);
#530=VERTEX_POINT('',#1255);
#531=VERTEX_POINT('',#1257);
#532=VERTEX_POINT('',#1258);
#533=VERTEX_POINT('',#1260);
#534=VERTEX_POINT('',#1262);
#535=VERTEX_POINT('',#1264);
#536=VERTEX_POINT('',#1266);
#537=VERTEX_POINT('',#1268);
#538=VERTEX_POINT('',#1270);
#539=VERTEX_POINT('',#1272);
#540=VERTEX_POINT('',#1274);
#541=VERTEX_POINT('',#1276);
#542=VERTEX_POINT('',#1278);
#543=VERTEX_POINT('',#1280);
#544=VERTEX_POINT('',#1282);
#545=VERTEX_POINT('',#1284);
#546=VERTEX_POINT('',#1286);
#547=VERTEX_POINT('',#1288);
#548=VERTEX_POINT('',#1291);
#549=VERTEX_POINT('',#1293);
#550=VERTEX_POINT('',#1295);
#551=VERTEX_POINT('',#1297);
#552=VERTEX_POINT('',#1299);
#553=VERTEX_POINT('',#1303);
#554=VERTEX_POINT('',#1304);
#555=VERTEX_POINT('',#1306);
#556=VERTEX_POINT('',#1308);
#557=VERTEX_POINT('',#1310);
#558=VERTEX_POINT('',#1313);
#559=VERTEX_POINT('',#1315);
#560=VERTEX_POINT('',#1317);
#561=VERTEX_POINT('',#1321);
#562=VERTEX_POINT('',#1323);
#563=VERTEX_POINT('',#1326);
#564=VERTEX_POINT('',#1328);
#565=VERTEX_POINT('',#1332);
#566=VERTEX_POINT('',#1334);
#567=VERTEX_POINT('',#1338);
#568=VERTEX_POINT('',#1340);
#569=VERTEX_POINT('',#1342);
#570=VERTEX_POINT('',#1344);
#571=VERTEX_POINT('',#1346);
#572=VERTEX_POINT('',#1350);
#573=VERTEX_POINT('',#1353);
#574=VERTEX_POINT('',#1355);
#575=VERTEX_POINT('',#1357);
#576=VERTEX_POINT('',#1361);
#577=VERTEX_POINT('',#1363);
#578=VERTEX_POINT('',#1371);
#579=VERTEX_POINT('',#1375);
#580=VERTEX_POINT('',#1377);
#581=VERTEX_POINT('',#1382);
#582=VERTEX_POINT('',#1390);
#583=VERTEX_POINT('',#1394);
#584=VERTEX_POINT('',#1398);
#585=VERTEX_POINT('',#1399);
#586=VERTEX_POINT('',#1409);
#587=VERTEX_POINT('',#1413);
#588=VERTEX_POINT('',#1414);
#589=VERTEX_POINT('',#1419);
#590=VERTEX_POINT('',#1428);
#591=VERTEX_POINT('',#1432);
#592=VERTEX_POINT('',#1436);
#593=VERTEX_POINT('',#1437);
#594=VERTEX_POINT('',#1439);
#595=VERTEX_POINT('',#1441);
#596=VERTEX_POINT('',#1443);
#597=VERTEX_POINT('',#1445);
#598=VERTEX_POINT('',#1447);
#599=VERTEX_POINT('',#1449);
#600=VERTEX_POINT('',#1455);
#601=VERTEX_POINT('',#1456);
#602=VERTEX_POINT('',#1461);
#603=VERTEX_POINT('',#1462);
#604=VERTEX_POINT('',#1467);
#605=VERTEX_POINT('',#1469);
#606=VERTEX_POINT('',#1473);
#607=VERTEX_POINT('',#1475);
#608=EDGE_CURVE('',#523,#524,#731,.T.);
#609=EDGE_CURVE('',#525,#523,#732,.T.);
#610=EDGE_CURVE('',#526,#525,#733,.T.);
#611=EDGE_CURVE('',#524,#526,#734,.T.);
#612=EDGE_CURVE('',#527,#527,#75,.T.);
#613=EDGE_CURVE('',#528,#528,#76,.T.);
#614=EDGE_CURVE('',#529,#529,#77,.T.);
#615=EDGE_CURVE('',#530,#530,#78,.T.);
#616=EDGE_CURVE('',#531,#532,#79,.T.);
#617=EDGE_CURVE('',#531,#533,#735,.T.);
#618=EDGE_CURVE('',#534,#533,#736,.T.);
#619=EDGE_CURVE('',#534,#535,#80,.T.);
#620=EDGE_CURVE('',#536,#535,#737,.T.);
#621=EDGE_CURVE('',#537,#536,#738,.T.);
#622=EDGE_CURVE('',#538,#537,#739,.T.);
#623=EDGE_CURVE('',#538,#539,#81,.T.);
#624=EDGE_CURVE('',#540,#539,#740,.T.);
#625=EDGE_CURVE('',#540,#541,#741,.T.);
#626=EDGE_CURVE('',#542,#541,#742,.T.);
#627=EDGE_CURVE('',#543,#542,#743,.T.);
#628=EDGE_CURVE('',#543,#544,#82,.T.);
#629=EDGE_CURVE('',#545,#544,#744,.T.);
#630=EDGE_CURVE('',#545,#546,#83,.T.);
#631=EDGE_CURVE('',#547,#546,#745,.T.);
#632=EDGE_CURVE('',#525,#547,#746,.T.);
#633=EDGE_CURVE('',#548,#523,#747,.T.);
#634=EDGE_CURVE('',#548,#549,#84,.T.);
#635=EDGE_CURVE('',#550,#549,#748,.T.);
#636=EDGE_CURVE('',#550,#551,#85,.T.);
#637=EDGE_CURVE('',#552,#551,#749,.T.);
#638=EDGE_CURVE('',#552,#532,#750,.T.);
#639=EDGE_CURVE('',#553,#554,#751,.T.);
#640=EDGE_CURVE('',#554,#555,#752,.T.);
#641=EDGE_CURVE('',#556,#555,#753,.T.);
#642=EDGE_CURVE('',#557,#556,#754,.T.);
#643=EDGE_CURVE('',#557,#524,#755,.T.);
#644=EDGE_CURVE('',#558,#526,#756,.T.);
#645=EDGE_CURVE('',#558,#559,#757,.T.);
#646=EDGE_CURVE('',#559,#560,#758,.T.);
#647=EDGE_CURVE('',#553,#560,#759,.T.);
#648=EDGE_CURVE('',#561,#547,#760,.T.);
#649=EDGE_CURVE('',#562,#561,#761,.T.);
#650=EDGE_CURVE('',#562,#542,#762,.T.);
#651=EDGE_CURVE('',#541,#563,#763,.T.);
#652=EDGE_CURVE('',#564,#563,#764,.T.);
#653=EDGE_CURVE('',#564,#558,#765,.T.);
#654=EDGE_CURVE('',#563,#565,#766,.T.);
#655=EDGE_CURVE('',#566,#565,#767,.T.);
#656=EDGE_CURVE('',#566,#564,#768,.T.);
#657=EDGE_CURVE('',#567,#567,#86,.T.);
#658=EDGE_CURVE('',#568,#568,#87,.T.);
#659=EDGE_CURVE('',#569,#569,#88,.T.);
#660=EDGE_CURVE('',#570,#570,#89,.T.);
#661=EDGE_CURVE('',#571,#571,#90,.T.);
#662=EDGE_CURVE('',#559,#566,#769,.T.);
#663=EDGE_CURVE('',#572,#536,#770,.T.);
#664=EDGE_CURVE('',#560,#572,#771,.T.);
#665=EDGE_CURVE('',#565,#573,#772,.T.);
#666=EDGE_CURVE('',#574,#573,#773,.T.);
#667=EDGE_CURVE('',#575,#574,#774,.T.);
#668=EDGE_CURVE('',#575,#537,#775,.T.);
#669=EDGE_CURVE('',#576,#540,#776,.T.);
#670=EDGE_CURVE('',#576,#577,#50,.T.);
#671=EDGE_CURVE('',#573,#577,#777,.T.);
#672=EDGE_CURVE('',#532,#531,#51,.T.);
#673=EDGE_CURVE('',#555,#552,#778,.T.);
#674=EDGE_CURVE('',#533,#554,#779,.T.);
#675=EDGE_CURVE('',#557,#578,#780,.T.);
#676=EDGE_CURVE('',#578,#548,#781,.T.);
#677=EDGE_CURVE('',#549,#579,#782,.T.);
#678=EDGE_CURVE('',#579,#580,#783,.T.);
#679=EDGE_CURVE('',#580,#550,#784,.T.);
#680=EDGE_CURVE('',#579,#578,#91,.T.);
#681=EDGE_CURVE('',#581,#556,#785,.T.);
#682=EDGE_CURVE('',#581,#580,#92,.T.);
#683=EDGE_CURVE('',#551,#581,#786,.T.);
#684=EDGE_CURVE('',#546,#582,#787,.T.);
#685=EDGE_CURVE('',#582,#561,#788,.T.);
#686=EDGE_CURVE('',#562,#583,#789,.T.);
#687=EDGE_CURVE('',#583,#543,#790,.T.);
#688=EDGE_CURVE('',#584,#585,#791,.T.);
#689=EDGE_CURVE('',#584,#583,#93,.T.);
#690=EDGE_CURVE('',#582,#585,#94,.T.);
#691=EDGE_CURVE('',#544,#584,#792,.T.);
#692=EDGE_CURVE('',#585,#545,#793,.T.);
#693=EDGE_CURVE('',#575,#586,#794,.T.);
#694=EDGE_CURVE('',#586,#538,#795,.T.);
#695=EDGE_CURVE('',#587,#588,#796,.T.);
#696=EDGE_CURVE('',#588,#576,#797,.T.);
#697=EDGE_CURVE('',#539,#587,#798,.T.);
#698=EDGE_CURVE('',#577,#589,#799,.T.);
#699=EDGE_CURVE('',#589,#574,#800,.T.);
#700=EDGE_CURVE('',#589,#588,#95,.T.);
#701=EDGE_CURVE('',#587,#586,#96,.T.);
#702=EDGE_CURVE('',#553,#590,#801,.T.);
#703=EDGE_CURVE('',#590,#534,#802,.T.);
#704=EDGE_CURVE('',#535,#591,#803,.T.);
#705=EDGE_CURVE('',#591,#572,#804,.T.);
#706=EDGE_CURVE('',#592,#593,#805,.T.);
#707=EDGE_CURVE('',#593,#594,#97,.T.);
#708=EDGE_CURVE('',#594,#595,#806,.T.);
#709=EDGE_CURVE('',#595,#596,#98,.T.);
#710=EDGE_CURVE('',#596,#597,#807,.T.);
#711=EDGE_CURVE('',#597,#598,#99,.T.);
#712=EDGE_CURVE('',#598,#599,#808,.T.);
#713=EDGE_CURVE('',#599,#592,#100,.T.);
#714=EDGE_CURVE('',#591,#590,#101,.T.);
#715=EDGE_CURVE('',#600,#601,#809,.T.);
#716=EDGE_CURVE('',#601,#597,#810,.T.);
#717=EDGE_CURVE('',#596,#600,#811,.T.);
#718=EDGE_CURVE('',#602,#603,#812,.T.);
#719=EDGE_CURVE('',#603,#599,#813,.T.);
#720=EDGE_CURVE('',#598,#602,#814,.T.);
#721=EDGE_CURVE('',#592,#604,#815,.T.);
#722=EDGE_CURVE('',#604,#605,#816,.T.);
#723=EDGE_CURVE('',#605,#593,#817,.T.);
#724=EDGE_CURVE('',#594,#606,#818,.T.);
#725=EDGE_CURVE('',#606,#607,#819,.T.);
#726=EDGE_CURVE('',#607,#595,#820,.T.);
#727=EDGE_CURVE('',#604,#603,#102,.T.);
#728=EDGE_CURVE('',#602,#601,#103,.T.);
#729=EDGE_CURVE('',#600,#607,#104,.T.);
#730=EDGE_CURVE('',#606,#605,#105,.T.);
#731=LINE('',#1239,#821);
#732=LINE('',#1242,#822);
#733=LINE('',#1244,#823);
#734=LINE('',#1246,#824);
#735=LINE('',#1259,#825);
#736=LINE('',#1261,#826);
#737=LINE('',#1265,#827);
#738=LINE('',#1267,#828);
#739=LINE('',#1269,#829);
#740=LINE('',#1273,#830);
#741=LINE('',#1275,#831);
#742=LINE('',#1277,#832);
#743=LINE('',#1279,#833);
#744=LINE('',#1283,#834);
#745=LINE('',#1287,#835);
#746=LINE('',#1289,#836);
#747=LINE('',#1290,#837);
#748=LINE('',#1294,#838);
#749=LINE('',#1298,#839);
#750=LINE('',#1300,#840);
#751=LINE('',#1302,#841);
#752=LINE('',#1305,#842);
#753=LINE('',#1307,#843);
#754=LINE('',#1309,#844);
#755=LINE('',#1311,#845);
#756=LINE('',#1312,#846);
#757=LINE('',#1314,#847);
#758=LINE('',#1316,#848);
#759=LINE('',#1318,#849);
#760=LINE('',#1320,#850);
#761=LINE('',#1322,#851);
#762=LINE('',#1324,#852);
#763=LINE('',#1325,#853);
#764=LINE('',#1327,#854);
#765=LINE('',#1329,#855);
#766=LINE('',#1331,#856);
#767=LINE('',#1333,#857);
#768=LINE('',#1335,#858);
#769=LINE('',#1347,#859);
#770=LINE('',#1349,#860);
#771=LINE('',#1351,#861);
#772=LINE('',#1352,#862);
#773=LINE('',#1354,#863);
#774=LINE('',#1356,#864);
#775=LINE('',#1358,#865);
#776=LINE('',#1360,#866);
#777=LINE('',#1364,#867);
#778=LINE('',#1367,#868);
#779=LINE('',#1368,#869);
#780=LINE('',#1370,#870);
#781=LINE('',#1372,#871);
#782=LINE('',#1374,#872);
#783=LINE('',#1376,#873);
#784=LINE('',#1378,#874);
#785=LINE('',#1381,#875);
#786=LINE('',#1385,#876);
#787=LINE('',#1389,#877);
#788=LINE('',#1391,#878);
#789=LINE('',#1393,#879);
#790=LINE('',#1395,#880);
#791=LINE('',#1397,#881);
#792=LINE('',#1403,#882);
#793=LINE('',#1404,#883);
#794=LINE('',#1408,#884);
#795=LINE('',#1410,#885);
#796=LINE('',#1412,#886);
#797=LINE('',#1415,#887);
#798=LINE('',#1416,#888);
#799=LINE('',#1418,#889);
#800=LINE('',#1420,#890);
#801=LINE('',#1427,#891);
#802=LINE('',#1429,#892);
#803=LINE('',#1431,#893);
#804=LINE('',#1433,#894);
#805=LINE('',#1435,#895);
#806=LINE('',#1440,#896);
#807=LINE('',#1444,#897);
#808=LINE('',#1448,#898);
#809=LINE('',#1454,#899);
#810=LINE('',#1457,#900);
#811=LINE('',#1458,#901);
#812=LINE('',#1460,#902);
#813=LINE('',#1463,#903);
#814=LINE('',#1464,#904);
#815=LINE('',#1466,#905);
#816=LINE('',#1468,#906);
#817=LINE('',#1470,#907);
#818=LINE('',#1472,#908);
#819=LINE('',#1474,#909);
#820=LINE('',#1476,#910);
#821=VECTOR('',#992,1.);
#822=VECTOR('',#993,1.);
#823=VECTOR('',#994,1.);
#824=VECTOR('',#995,1.);
#825=VECTOR('',#1008,1.);
#826=VECTOR('',#1009,1.);
#827=VECTOR('',#1012,1.);
#828=VECTOR('',#1013,1.);
#829=VECTOR('',#1014,1.);
#830=VECTOR('',#1017,1.);
#831=VECTOR('',#1018,1.);
#832=VECTOR('',#1019,1.);
#833=VECTOR('',#1020,1.);
#834=VECTOR('',#1023,1.);
#835=VECTOR('',#1026,1.);
#836=VECTOR('',#1027,1.);
#837=VECTOR('',#1028,1.);
#838=VECTOR('',#1031,1.);
#839=VECTOR('',#1034,1.);
#840=VECTOR('',#1035,1.);
#841=VECTOR('',#1038,1.);
#842=VECTOR('',#1039,1.);
#843=VECTOR('',#1040,1.);
#844=VECTOR('',#1041,1.);
#845=VECTOR('',#1042,1.);
#846=VECTOR('',#1043,1.);
#847=VECTOR('',#1044,1.);
#848=VECTOR('',#1045,1.);
#849=VECTOR('',#1046,1.);
#850=VECTOR('',#1049,1.);
#851=VECTOR('',#1050,1.);
#852=VECTOR('',#1051,1.);
#853=VECTOR('',#1052,1.);
#854=VECTOR('',#1053,1.);
#855=VECTOR('',#1054,1.);
#856=VECTOR('',#1057,1.);
#857=VECTOR('',#1058,1.);
#858=VECTOR('',#1059,1.);
#859=VECTOR('',#1072,1.);
#860=VECTOR('',#1075,1.);
#861=VECTOR('',#1076,1.);
#862=VECTOR('',#1077,1.);
#863=VECTOR('',#1078,1.);
#864=VECTOR('',#1079,1.);
#865=VECTOR('',#1080,1.);
#866=VECTOR('',#1083,1.);
#867=VECTOR('',#1086,1.);
#868=VECTOR('',#1091,1.);
#869=VECTOR('',#1092,1.);
#870=VECTOR('',#1095,1.);
#871=VECTOR('',#1096,1.);
#872=VECTOR('',#1099,1.);
#873=VECTOR('',#1100,1.);
#874=VECTOR('',#1101,1.);
#875=VECTOR('',#1106,1.);
#876=VECTOR('',#1111,1.);
#877=VECTOR('',#1118,1.);
#878=VECTOR('',#1119,1.);
#879=VECTOR('',#1122,1.);
#880=VECTOR('',#1123,1.);
#881=VECTOR('',#1126,1.);
#882=VECTOR('',#1133,1.);
#883=VECTOR('',#1134,1.);
#884=VECTOR('',#1141,1.);
#885=VECTOR('',#1142,1.);
#886=VECTOR('',#1145,1.);
#887=VECTOR('',#1146,1.);
#888=VECTOR('',#1147,1.);
#889=VECTOR('',#1150,1.);
#890=VECTOR('',#1151,1.);
#891=VECTOR('',#1164,1.);
#892=VECTOR('',#1165,1.);
#893=VECTOR('',#1168,1.);
#894=VECTOR('',#1169,1.);
#895=VECTOR('',#1172,1.);
#896=VECTOR('',#1175,1.);
#897=VECTOR('',#1178,1.);
#898=VECTOR('',#1181,1.);
#899=VECTOR('',#1190,1.);
#900=VECTOR('',#1191,1.);
#901=VECTOR('',#1192,1.);
#902=VECTOR('',#1195,1.);
#903=VECTOR('',#1196,1.);
#904=VECTOR('',#1197,1.);
#905=VECTOR('',#1200,1.);
#906=VECTOR('',#1201,1.);
#907=VECTOR('',#1202,1.);
#908=VECTOR('',#1205,1.);
#909=VECTOR('',#1206,1.);
#910=VECTOR('',#1207,1.);
#911=AXIS2_PLACEMENT_3D('',#1238,#990,#991);
#912=AXIS2_PLACEMENT_3D('',#1247,#996,#997);
#913=AXIS2_PLACEMENT_3D('',#1248,#998,#999);
#914=AXIS2_PLACEMENT_3D('',#1250,#1000,#1001);
#915=AXIS2_PLACEMENT_3D('',#1252,#1002,#1003);
#916=AXIS2_PLACEMENT_3D('',#1254,#1004,#1005);
#917=AXIS2_PLACEMENT_3D('',#1256,#1006,#1007);
#918=AXIS2_PLACEMENT_3D('',#1263,#1010,#1011);
#919=AXIS2_PLACEMENT_3D('',#1271,#1015,#1016);
#920=AXIS2_PLACEMENT_3D('',#1281,#1021,#1022);
#921=AXIS2_PLACEMENT_3D('',#1285,#1024,#1025);
#922=AXIS2_PLACEMENT_3D('',#1292,#1029,#1030);
#923=AXIS2_PLACEMENT_3D('',#1296,#1032,#1033);
#924=AXIS2_PLACEMENT_3D('',#1301,#1036,#1037);
#925=AXIS2_PLACEMENT_3D('',#1319,#1047,#1048);
#926=AXIS2_PLACEMENT_3D('',#1330,#1055,#1056);
#927=AXIS2_PLACEMENT_3D('',#1336,#1060,#1061);
#928=AXIS2_PLACEMENT_3D('',#1337,#1062,#1063);
#929=AXIS2_PLACEMENT_3D('',#1339,#1064,#1065);
#930=AXIS2_PLACEMENT_3D('',#1341,#1066,#1067);
#931=AXIS2_PLACEMENT_3D('',#1343,#1068,#1069);
#932=AXIS2_PLACEMENT_3D('',#1345,#1070,#1071);
#933=AXIS2_PLACEMENT_3D('',#1348,#1073,#1074);
#934=AXIS2_PLACEMENT_3D('',#1359,#1081,#1082);
#935=AXIS2_PLACEMENT_3D('',#1362,#1084,#1085);
#936=AXIS2_PLACEMENT_3D('',#1365,#1087,#1088);
#937=AXIS2_PLACEMENT_3D('',#1366,#1089,#1090);
#938=AXIS2_PLACEMENT_3D('',#1369,#1093,#1094);
#939=AXIS2_PLACEMENT_3D('',#1373,#1097,#1098);
#940=AXIS2_PLACEMENT_3D('',#1379,#1102,#1103);
#941=AXIS2_PLACEMENT_3D('',#1380,#1104,#1105);
#942=AXIS2_PLACEMENT_3D('',#1383,#1107,#1108);
#943=AXIS2_PLACEMENT_3D('',#1384,#1109,#1110);
#944=AXIS2_PLACEMENT_3D('',#1386,#1112,#1113);
#945=AXIS2_PLACEMENT_3D('',#1387,#1114,#1115);
#946=AXIS2_PLACEMENT_3D('',#1388,#1116,#1117);
#947=AXIS2_PLACEMENT_3D('',#1392,#1120,#1121);
#948=AXIS2_PLACEMENT_3D('',#1396,#1124,#1125);
#949=AXIS2_PLACEMENT_3D('',#1400,#1127,#1128);
#950=AXIS2_PLACEMENT_3D('',#1401,#1129,#1130);
#951=AXIS2_PLACEMENT_3D('',#1402,#1131,#1132);
#952=AXIS2_PLACEMENT_3D('',#1405,#1135,#1136);
#953=AXIS2_PLACEMENT_3D('',#1406,#1137,#1138);
#954=AXIS2_PLACEMENT_3D('',#1407,#1139,#1140);
#955=AXIS2_PLACEMENT_3D('',#1411,#1143,#1144);
#956=AXIS2_PLACEMENT_3D('',#1417,#1148,#1149);
#957=AXIS2_PLACEMENT_3D('',#1421,#1152,#1153);
#958=AXIS2_PLACEMENT_3D('',#1422,#1154,#1155);
#959=AXIS2_PLACEMENT_3D('',#1423,#1156,#1157);
#960=AXIS2_PLACEMENT_3D('',#1424,#1158,#1159);
#961=AXIS2_PLACEMENT_3D('',#1425,#1160,#1161);
#962=AXIS2_PLACEMENT_3D('',#1426,#1162,#1163);
#963=AXIS2_PLACEMENT_3D('',#1430,#1166,#1167);
#964=AXIS2_PLACEMENT_3D('',#1434,#1170,#1171);
#965=AXIS2_PLACEMENT_3D('',#1438,#1173,#1174);
#966=AXIS2_PLACEMENT_3D('',#1442,#1176,#1177);
#967=AXIS2_PLACEMENT_3D('',#1446,#1179,#1180);
#968=AXIS2_PLACEMENT_3D('',#1450,#1182,#1183);
#969=AXIS2_PLACEMENT_3D('',#1451,#1184,#1185);
#970=AXIS2_PLACEMENT_3D('',#1452,#1186,#1187);
#971=AXIS2_PLACEMENT_3D('',#1453,#1188,#1189);
#972=AXIS2_PLACEMENT_3D('',#1459,#1193,#1194);
#973=AXIS2_PLACEMENT_3D('',#1465,#1198,#1199);
#974=AXIS2_PLACEMENT_3D('',#1471,#1203,#1204);
#975=AXIS2_PLACEMENT_3D('',#1477,#1208,#1209);
#976=AXIS2_PLACEMENT_3D('',#1478,#1210,#1211);
#977=AXIS2_PLACEMENT_3D('',#1479,#1212,#1213);
#978=AXIS2_PLACEMENT_3D('',#1480,#1214,#1215);
#979=AXIS2_PLACEMENT_3D('',#1481,#1216,#1217);
#980=AXIS2_PLACEMENT_3D('',#1482,#1218,#1219);
#981=AXIS2_PLACEMENT_3D('',#1483,#1220,#1221);
#982=AXIS2_PLACEMENT_3D('',#1484,#1222,#1223);
#983=AXIS2_PLACEMENT_3D('',#1485,#1224,#1225);
#984=AXIS2_PLACEMENT_3D('',#1486,#1226,#1227);
#985=AXIS2_PLACEMENT_3D('',#1487,#1228,#1229);
#986=AXIS2_PLACEMENT_3D('',#1488,#1230,#1231);
#987=AXIS2_PLACEMENT_3D('',#1489,#1232,#1233);
#988=AXIS2_PLACEMENT_3D('',#1490,#1234,#1235);
#989=AXIS2_PLACEMENT_3D('',#1491,#1236,#1237);
#990=DIRECTION('',(0.,0.,1.));
#991=DIRECTION('',(1.,0.,0.));
#992=DIRECTION('',(0.,-0.707106781186548,-0.707106781186548));
#993=DIRECTION('',(1.,0.,0.));
#994=DIRECTION('',(0.,0.707106781186548,0.707106781186548));
#995=DIRECTION('',(-1.,0.,0.));
#996=DIRECTION('',(0.,0.707106781186548,-0.707106781186548));
#997=DIRECTION('',(-1.,0.,0.));
#998=DIRECTION('',(0.,0.,1.));
#999=DIRECTION('',(1.,0.,0.));
#1000=DIRECTION('',(0.,0.,1.));
#1001=DIRECTION('',(1.,0.,0.));
#1002=DIRECTION('',(0.,0.,1.));
#1003=DIRECTION('',(1.,0.,0.));
#1004=DIRECTION('',(0.,0.,1.));
#1005=DIRECTION('',(1.,0.,0.));
#1006=DIRECTION('',(0.,0.,1.));
#1007=DIRECTION('',(1.,0.,0.));
#1008=DIRECTION('',(1.,0.,0.));
#1009=DIRECTION('',(0.,-1.,0.));
#1010=DIRECTION('',(0.,0.,-1.));
#1011=DIRECTION('',(1.00000000000001,0.,0.));
#1012=DIRECTION('',(-1.,0.,0.));
#1013=DIRECTION('',(0.,-1.,0.));
#1014=DIRECTION('',(1.,0.,0.));
#1015=DIRECTION('',(0.,0.,-1.));
#1016=DIRECTION('',(1.,0.,0.));
#1017=DIRECTION('',(0.,-1.,0.));
#1018=DIRECTION('',(-1.,0.,0.));
#1019=DIRECTION('',(0.,1.,0.));
#1020=DIRECTION('',(-1.,0.,0.));
#1021=DIRECTION('',(0.,0.,-1.));
#1022=DIRECTION('',(1.,0.,0.));
#1023=DIRECTION('',(0.,1.,0.));
#1024=DIRECTION('',(0.,0.,-1.));
#1025=DIRECTION('',(1.,0.,0.));
#1026=DIRECTION('',(1.,0.,0.));
#1027=DIRECTION('',(0.,1.,0.));
#1028=DIRECTION('',(0.,-1.,0.));
#1029=DIRECTION('',(0.,0.,-1.));
#1030=DIRECTION('',(1.,0.,0.));
#1031=DIRECTION('',(-1.,0.,0.));
#1032=DIRECTION('',(0.,0.,-1.));
#1033=DIRECTION('',(0.999999999999998,0.,0.));
#1034=DIRECTION('',(0.,1.,0.));
#1035=DIRECTION('',(1.,0.,0.));
#1036=DIRECTION('',(0.,0.,1.));
#1037=DIRECTION('',(1.,0.,0.));
#1038=DIRECTION('',(0.,0.,1.));
#1039=DIRECTION('',(-1.,0.,0.));
#1040=DIRECTION('',(0.,0.,1.));
#1041=DIRECTION('',(1.,0.,0.));
#1042=DIRECTION('',(0.,0.,1.));
#1043=DIRECTION('',(0.,0.,1.));
#1044=DIRECTION('',(1.,0.,0.));
#1045=DIRECTION('',(0.,0.,1.));
#1046=DIRECTION('',(1.,0.,0.));
#1047=DIRECTION('',(0.,-1.,0.));
#1048=DIRECTION('',(0.,0.,-1.));
#1049=DIRECTION('',(0.,0.,1.));
#1050=DIRECTION('',(0.,-1.,0.));
#1051=DIRECTION('',(0.,0.,1.));
#1052=DIRECTION('',(0.,0.707106781186547,-0.707106781186548));
#1053=DIRECTION('',(0.,0.,1.));
#1054=DIRECTION('',(0.,-1.,0.));
#1055=DIRECTION('',(-1.,0.,0.));
#1056=DIRECTION('',(0.,0.,1.));
#1057=DIRECTION('',(1.,0.,0.));
#1058=DIRECTION('',(0.,0.,1.));
#1059=DIRECTION('',(-1.,0.,0.));
#1060=DIRECTION('',(0.,1.,0.));
#1061=DIRECTION('',(0.,0.,1.));
#1062=DIRECTION('',(0.,0.,-1.));
#1063=DIRECTION('',(-1.,0.,0.));
#1064=DIRECTION('',(0.,0.,-1.));
#1065=DIRECTION('',(-1.,0.,0.));
#1066=DIRECTION('',(0.,0.,-1.));
#1067=DIRECTION('',(-1.,0.,0.));
#1068=DIRECTION('',(0.,0.,-1.));
#1069=DIRECTION('',(-1.,0.,0.));
#1070=DIRECTION('',(0.,0.,-1.));
#1071=DIRECTION('',(-1.,0.,0.));
#1072=DIRECTION('',(0.,1.,0.));
#1073=DIRECTION('',(0.,0.,-1.));
#1074=DIRECTION('',(-1.,0.,0.));
#1075=DIRECTION('',(0.,0.,1.));
#1076=DIRECTION('',(0.,1.,0.));
#1077=DIRECTION('',(0.,-0.707106781186547,0.707106781186548));
#1078=DIRECTION('',(0.,0.,1.));
#1079=DIRECTION('',(0.,1.,0.));
#1080=DIRECTION('',(0.,0.,1.));
#1081=DIRECTION('',(1.,0.,0.));
#1082=DIRECTION('',(0.,0.,-1.));
#1083=DIRECTION('',(0.,-0.707106781186547,0.707106781186548));
#1084=DIRECTION('',(0.,-0.707106781186548,-0.707106781186547));
#1085=DIRECTION('',(0.,-0.707106781186547,0.707106781186548));
#1086=DIRECTION('',(-1.,0.,0.));
#1087=DIRECTION('',(0.,-0.707106781186548,-0.707106781186547));
#1088=DIRECTION('',(1.,0.,0.));
#1089=DIRECTION('',(0.,-0.707106781186548,0.707106781186548));
#1090=DIRECTION('',(0.,-0.707106781186548,-0.707106781186548));
#1091=DIRECTION('',(0.,0.707106781186548,0.707106781186548));
#1092=DIRECTION('',(0.,-0.707106781186548,-0.707106781186548));
#1093=DIRECTION('',(0.,0.707106781186548,-0.707106781186548));
#1094=DIRECTION('',(-1.,0.,0.));
#1095=DIRECTION('',(0.,1.,0.));
#1096=DIRECTION('',(0.,0.,1.));
#1097=DIRECTION('',(-1.,0.,0.));
#1098=DIRECTION('',(0.,0.,1.));
#1099=DIRECTION('',(0.,0.,-1.));
#1100=DIRECTION('',(1.,0.,0.));
#1101=DIRECTION('',(0.,0.,1.));
#1102=DIRECTION('',(0.,1.,0.));
#1103=DIRECTION('',(0.,0.,1.));
#1104=DIRECTION('',(0.,0.,1.));
#1105=DIRECTION('',(-1.,0.,0.));
#1106=DIRECTION('',(0.,-1.,0.));
#1107=DIRECTION('',(0.,0.,1.));
#1108=DIRECTION('',(-0.999999999999998,0.,0.));
#1109=DIRECTION('',(0.,0.,-1.));
#1110=DIRECTION('',(-1.,0.,0.));
#1111=DIRECTION('',(0.,0.,-1.));
#1112=DIRECTION('',(1.,0.,0.));
#1113=DIRECTION('',(0.,0.,-1.));
#1114=DIRECTION('',(0.,0.,1.));
#1115=DIRECTION('',(1.,0.,0.));
#1116=DIRECTION('',(0.,0.,1.));
#1117=DIRECTION('',(0.999999999999998,0.,0.));
#1118=DIRECTION('',(0.,0.,-1.));
#1119=DIRECTION('',(-1.,0.,0.));
#1120=DIRECTION('',(0.,-1.,0.));
#1121=DIRECTION('',(0.,0.,-1.));
#1122=DIRECTION('',(1.,0.,0.));
#1123=DIRECTION('',(0.,0.,1.));
#1124=DIRECTION('',(0.,1.,0.));
#1125=DIRECTION('',(0.,0.,1.));
#1126=DIRECTION('',(0.,-1.,0.));
#1127=DIRECTION('',(0.,0.,1.));
#1128=DIRECTION('',(-1.,0.,0.));
#1129=DIRECTION('',(0.,0.,1.));
#1130=DIRECTION('',(-1.,0.,0.));
#1131=DIRECTION('',(0.,0.,-1.));
#1132=DIRECTION('',(-1.,0.,0.));
#1133=DIRECTION('',(0.,0.,-1.));
#1134=DIRECTION('',(0.,0.,1.));
#1135=DIRECTION('',(1.,0.,0.));
#1136=DIRECTION('',(0.,0.,-1.));
#1137=DIRECTION('',(0.,0.,1.));
#1138=DIRECTION('',(1.,0.,0.));
#1139=DIRECTION('',(0.,0.,1.));
#1140=DIRECTION('',(1.,0.,0.));
#1141=DIRECTION('',(-1.,0.,0.));
#1142=DIRECTION('',(0.,0.,1.));
#1143=DIRECTION('',(0.,-1.,0.));
#1144=DIRECTION('',(0.,0.,-1.));
#1145=DIRECTION('',(0.,1.,0.));
#1146=DIRECTION('',(0.,0.,1.));
#1147=DIRECTION('',(0.,0.,-1.));
#1148=DIRECTION('',(-1.,0.,0.));
#1149=DIRECTION('',(0.,0.,1.));
#1150=DIRECTION('',(0.,0.,-1.));
#1151=DIRECTION('',(1.,0.,0.));
#1152=DIRECTION('',(0.,1.,0.));
#1153=DIRECTION('',(0.,0.,1.));
#1154=DIRECTION('',(0.,0.,1.));
#1155=DIRECTION('',(-1.,0.,0.));
#1156=DIRECTION('',(0.,0.,1.));
#1157=DIRECTION('',(-1.,0.,0.));
#1158=DIRECTION('',(0.,0.,-1.));
#1159=DIRECTION('',(-1.,0.,0.));
#1160=DIRECTION('',(0.,0.,1.));
#1161=DIRECTION('',(1.,0.,0.));
#1162=DIRECTION('',(0.,0.,1.));
#1163=DIRECTION('',(1.,0.,0.));
#1164=DIRECTION('',(0.,1.,0.));
#1165=DIRECTION('',(0.,0.,1.));
#1166=DIRECTION('',(-1.,0.,0.));
#1167=DIRECTION('',(0.,0.,1.));
#1168=DIRECTION('',(0.,0.,-1.));
#1169=DIRECTION('',(1.,0.,0.));
#1170=DIRECTION('',(0.,1.,0.));
#1171=DIRECTION('',(0.,0.,1.));
#1172=DIRECTION('',(1.,0.,0.));
#1173=DIRECTION('',(0.,0.,-1.));
#1174=DIRECTION('',(-1.,0.,0.));
#1175=DIRECTION('',(0.,-1.,0.));
#1176=DIRECTION('',(0.,0.,-1.));
#1177=DIRECTION('',(-1.,0.,0.));
#1178=DIRECTION('',(-1.,0.,0.));
#1179=DIRECTION('',(0.,0.,-1.));
#1180=DIRECTION('',(-1.,0.,0.));
#1181=DIRECTION('',(0.,1.,0.));
#1182=DIRECTION('',(0.,0.,-1.));
#1183=DIRECTION('',(-1.,0.,0.));
#1184=DIRECTION('',(0.,0.,1.));
#1185=DIRECTION('',(-1.00000000000001,0.,0.));
#1186=DIRECTION('',(0.,0.,-1.));
#1187=DIRECTION('',(-1.,0.,0.));
#1188=DIRECTION('',(0.,0.,1.));
#1189=DIRECTION('',(1.00000000000001,0.,0.));
#1190=DIRECTION('',(-1.,0.,0.));
#1191=DIRECTION('',(0.,0.,1.));
#1192=DIRECTION('',(0.,0.,-1.));
#1193=DIRECTION('',(0.,-1.,0.));
#1194=DIRECTION('',(0.,0.,-1.));
#1195=DIRECTION('',(0.,1.,0.));
#1196=DIRECTION('',(0.,0.,1.));
#1197=DIRECTION('',(0.,0.,-1.));
#1198=DIRECTION('',(-1.,0.,0.));
#1199=DIRECTION('',(0.,0.,1.));
#1200=DIRECTION('',(0.,0.,-1.));
#1201=DIRECTION('',(1.,0.,0.));
#1202=DIRECTION('',(0.,0.,1.));
#1203=DIRECTION('',(0.,1.,0.));
#1204=DIRECTION('',(0.,0.,1.));
#1205=DIRECTION('',(0.,0.,-1.));
#1206=DIRECTION('',(0.,-1.,0.));
#1207=DIRECTION('',(0.,0.,1.));
#1208=DIRECTION('',(1.,0.,0.));
#1209=DIRECTION('',(0.,0.,-1.));
#1210=DIRECTION('',(0.,0.,1.));
#1211=DIRECTION('',(-1.,0.,0.));
#1212=DIRECTION('',(0.,0.,1.));
#1213=DIRECTION('',(-1.,0.,0.));
#1214=DIRECTION('',(0.,0.,1.));
#1215=DIRECTION('',(-1.,0.,0.));
#1216=DIRECTION('',(0.,0.,1.));
#1217=DIRECTION('',(-1.,0.,0.));
#1218=DIRECTION('',(0.,0.,-1.));
#1219=DIRECTION('',(-1.,0.,0.));
#1220=DIRECTION('',(0.,0.,1.));
#1221=DIRECTION('',(1.,0.,0.));
#1222=DIRECTION('',(0.,0.,1.));
#1223=DIRECTION('',(1.,0.,0.));
#1224=DIRECTION('',(0.,0.,1.));
#1225=DIRECTION('',(1.,0.,0.));
#1226=DIRECTION('',(0.,0.,1.));
#1227=DIRECTION('',(1.,0.,0.));
#1228=DIRECTION('',(0.,0.,-1.));
#1229=DIRECTION('',(1.,0.,0.));
#1230=DIRECTION('',(0.,0.,-1.));
#1231=DIRECTION('',(1.,0.,0.));
#1232=DIRECTION('',(0.,0.,-1.));
#1233=DIRECTION('',(1.,0.,0.));
#1234=DIRECTION('',(0.,0.,-1.));
#1235=DIRECTION('',(1.,0.,0.));
#1236=DIRECTION('',(0.,0.,-1.));
#1237=DIRECTION('',(1.,0.,0.));
#1238=CARTESIAN_POINT('',(0.,0.,0.));
#1239=CARTESIAN_POINT('',(116.6,0.,110.));
#1240=CARTESIAN_POINT('',(116.6,25.7,135.7));
#1241=CARTESIAN_POINT('',(116.6,0.,110.));
#1242=CARTESIAN_POINT('',(202.6,25.7,135.7));
#1243=CARTESIAN_POINT('',(0.,25.7,135.7));
#1244=CARTESIAN_POINT('',(0.,-0.649999999999984,109.35));
#1245=CARTESIAN_POINT('',(0.,0.,110.));
#1246=CARTESIAN_POINT('',(202.6,0.,110.));
#1247=CARTESIAN_POINT('',(202.6,0.,110.));
#1248=CARTESIAN_POINT('',(297.6,185.9,135.7));
#1249=CARTESIAN_POINT('',(307.15,185.9,135.7));
#1250=CARTESIAN_POINT('',(297.6,144.,135.7));
#1251=CARTESIAN_POINT('',(307.15,144.,135.7));
#1252=CARTESIAN_POINT('',(297.6,102.1,135.7));
#1253=CARTESIAN_POINT('',(307.15,102.1,135.7));
#1254=CARTESIAN_POINT('',(297.6,60.2,135.7));
#1255=CARTESIAN_POINT('',(307.15,60.2,135.7));
#1256=CARTESIAN_POINT('',(297.6,18.4,135.7));
#1257=CARTESIAN_POINT('',(303.757312725532,25.7,135.7));
#1258=CARTESIAN_POINT('',(291.442687274468,25.7,135.7));
#1259=CARTESIAN_POINT('',(202.6,25.7,135.7));
#1260=CARTESIAN_POINT('',(339.2,25.7,135.7));
#1261=CARTESIAN_POINT('',(339.2,108.7,135.7));
#1262=CARTESIAN_POINT('',(339.2,38.9,135.7));
#1263=CARTESIAN_POINT('',(343.,38.9,135.7));
#1264=CARTESIAN_POINT('',(343.,42.7,135.7));
#1265=CARTESIAN_POINT('',(202.6,42.7,135.7));
#1266=CARTESIAN_POINT('',(405.2,42.7,135.7));
#1267=CARTESIAN_POINT('',(405.2,108.7,135.7));
#1268=CARTESIAN_POINT('',(405.2,119.,135.7));
#1269=CARTESIAN_POINT('',(202.6,119.,135.7));
#1270=CARTESIAN_POINT('',(331.1,119.,135.7));
#1271=CARTESIAN_POINT('',(331.1,128.4,135.7));
#1272=CARTESIAN_POINT('',(321.7,128.4,135.7));
#1273=CARTESIAN_POINT('',(321.7,108.7,135.7));
#1274=CARTESIAN_POINT('',(321.7,197.9,135.7));
#1275=CARTESIAN_POINT('',(202.6,197.9,135.7));
#1276=CARTESIAN_POINT('',(0.,197.9,135.7));
#1277=CARTESIAN_POINT('',(0.,108.7,135.7));
#1278=CARTESIAN_POINT('',(0.,185.6,135.7));
#1279=CARTESIAN_POINT('',(202.6,185.6,135.7));
#1280=CARTESIAN_POINT('',(84.,185.6,135.7));
#1281=CARTESIAN_POINT('',(84.,180.8,135.7));
#1282=CARTESIAN_POINT('',(88.8,180.8,135.7));
#1283=CARTESIAN_POINT('',(88.8,108.7,135.7));
#1284=CARTESIAN_POINT('',(88.8,102.2,135.7));
#1285=CARTESIAN_POINT('',(84.,102.2,135.7));
#1286=CARTESIAN_POINT('',(84.,97.4,135.7));
#1287=CARTESIAN_POINT('',(202.6,97.4,135.7));
#1288=CARTESIAN_POINT('',(0.,97.4,135.7));
#1289=CARTESIAN_POINT('',(0.,108.7,135.7));
#1290=CARTESIAN_POINT('',(116.6,108.7,135.7));
#1291=CARTESIAN_POINT('',(116.6,46.4,135.7));
#1292=CARTESIAN_POINT('',(125.8,46.4,135.7));
#1293=CARTESIAN_POINT('',(125.8,55.6,135.7));
#1294=CARTESIAN_POINT('',(202.6,55.6,135.7));
#1295=CARTESIAN_POINT('',(273.2,55.6,135.7));
#1296=CARTESIAN_POINT('',(273.2,46.4,135.7));
#1297=CARTESIAN_POINT('',(282.4,46.4,135.7));
#1298=CARTESIAN_POINT('',(282.4,108.7,135.7));
#1299=CARTESIAN_POINT('',(282.4,25.7,135.7));
#1300=CARTESIAN_POINT('',(202.6,25.7,135.7));
#1301=CARTESIAN_POINT('',(202.6,108.7,135.7));
#1302=CARTESIAN_POINT('',(339.2,0.,109.8));
#1303=CARTESIAN_POINT('',(339.2,0.,109.8));
#1304=CARTESIAN_POINT('',(339.2,0.,110.));
#1305=CARTESIAN_POINT('',(202.6,0.,110.));
#1306=CARTESIAN_POINT('',(282.4,0.,110.));
#1307=CARTESIAN_POINT('',(282.4,0.,97.8));
#1308=CARTESIAN_POINT('',(282.4,0.,97.8));
#1309=CARTESIAN_POINT('',(199.5,0.,97.8));
#1310=CARTESIAN_POINT('',(116.6,0.,97.8));
#1311=CARTESIAN_POINT('',(116.6,0.,97.8));
#1312=CARTESIAN_POINT('',(0.,0.,0.));
#1313=CARTESIAN_POINT('',(0.,0.,0.));
#1314=CARTESIAN_POINT('',(202.6,0.,0.));
#1315=CARTESIAN_POINT('',(405.2,0.,0.));
#1316=CARTESIAN_POINT('',(405.2,0.,0.));
#1317=CARTESIAN_POINT('',(405.2,0.,109.8));
#1318=CARTESIAN_POINT('',(372.2,0.,109.8));
#1319=CARTESIAN_POINT('',(202.6,0.,0.));
#1320=CARTESIAN_POINT('',(0.,97.4,111.9));
#1321=CARTESIAN_POINT('',(0.,97.4,111.9));
#1322=CARTESIAN_POINT('',(0.,141.5,111.9));
#1323=CARTESIAN_POINT('',(0.,185.6,111.9));
#1324=CARTESIAN_POINT('',(0.,185.6,111.9));
#1325=CARTESIAN_POINT('',(0.,221.15,112.45));
#1326=CARTESIAN_POINT('',(0.,217.4,116.2));
#1327=CARTESIAN_POINT('',(0.,217.4,0.));
#1328=CARTESIAN_POINT('',(0.,217.4,0.));
#1329=CARTESIAN_POINT('',(0.,108.7,0.));
#1330=CARTESIAN_POINT('',(0.,108.7,0.));
#1331=CARTESIAN_POINT('',(202.6,217.4,116.2));
#1332=CARTESIAN_POINT('',(405.2,217.4,116.2));
#1333=CARTESIAN_POINT('',(405.2,217.4,0.));
#1334=CARTESIAN_POINT('',(405.2,217.4,0.));
#1335=CARTESIAN_POINT('',(202.6,217.4,0.));
#1336=CARTESIAN_POINT('',(202.6,217.4,0.));
#1337=CARTESIAN_POINT('',(297.6,185.9,0.));
#1338=CARTESIAN_POINT('',(288.05,185.9,0.));
#1339=CARTESIAN_POINT('',(297.6,144.,0.));
#1340=CARTESIAN_POINT('',(288.05,144.,0.));
#1341=CARTESIAN_POINT('',(297.6,102.1,0.));
#1342=CARTESIAN_POINT('',(288.05,102.1,0.));
#1343=CARTESIAN_POINT('',(297.6,60.2,0.));
#1344=CARTESIAN_POINT('',(288.05,60.2,0.));
#1345=CARTESIAN_POINT('',(297.6,18.4,0.));
#1346=CARTESIAN_POINT('',(288.05,18.4,0.));
#1347=CARTESIAN_POINT('',(405.2,108.7,0.));
#1348=CARTESIAN_POINT('',(202.6,108.7,0.));
#1349=CARTESIAN_POINT('',(405.2,42.7,109.8));
#1350=CARTESIAN_POINT('',(405.2,42.7,109.8));
#1351=CARTESIAN_POINT('',(405.2,21.35,109.8));
#1352=CARTESIAN_POINT('',(405.2,221.15,112.45));
#1353=CARTESIAN_POINT('',(405.2,211.5,122.1));
#1354=CARTESIAN_POINT('',(405.2,211.5,97.8));
#1355=CARTESIAN_POINT('',(405.2,211.5,97.8));
#1356=CARTESIAN_POINT('',(405.2,165.25,97.8));
#1357=CARTESIAN_POINT('',(405.2,119.,97.8));
#1358=CARTESIAN_POINT('',(405.2,119.,97.8));
#1359=CARTESIAN_POINT('',(405.2,108.7,0.));
#1360=CARTESIAN_POINT('',(321.7,217.4,116.2));
#1361=CARTESIAN_POINT('',(321.7,202.1,131.5));
#1362=CARTESIAN_POINT('',(331.1,202.1,131.5));
#1363=CARTESIAN_POINT('',(331.1,211.5,122.1));
#1364=CARTESIAN_POINT('',(202.6,211.5,122.1));
#1365=CARTESIAN_POINT('',(202.6,217.4,116.2));
#1366=CARTESIAN_POINT('',(297.6,18.4,128.4));
#1367=CARTESIAN_POINT('',(282.4,0.,110.));
#1368=CARTESIAN_POINT('',(339.2,0.,110.));
#1369=CARTESIAN_POINT('',(202.6,0.,110.));
#1370=CARTESIAN_POINT('',(116.6,27.8,97.8));
#1371=CARTESIAN_POINT('',(116.6,46.4,97.8));
#1372=CARTESIAN_POINT('',(116.6,46.4,135.7));
#1373=CARTESIAN_POINT('',(116.6,27.8,97.8));
#1374=CARTESIAN_POINT('',(125.8,55.6,97.8));
#1375=CARTESIAN_POINT('',(125.8,55.6,97.8));
#1376=CARTESIAN_POINT('',(199.5,55.6,97.8));
#1377=CARTESIAN_POINT('',(273.2,55.6,97.8));
#1378=CARTESIAN_POINT('',(273.2,55.6,135.7));
#1379=CARTESIAN_POINT('',(199.5,55.6,97.8));
#1380=CARTESIAN_POINT('',(125.8,46.4,97.8));
#1381=CARTESIAN_POINT('',(282.4,27.8,97.8));
#1382=CARTESIAN_POINT('',(282.4,46.4,97.8));
#1383=CARTESIAN_POINT('',(273.2,46.4,97.8));
#1384=CARTESIAN_POINT('',(199.5,27.8,97.8));
#1385=CARTESIAN_POINT('',(282.4,46.4,97.8));
#1386=CARTESIAN_POINT('',(282.4,27.8,97.8));
#1387=CARTESIAN_POINT('',(125.8,46.4,97.8));
#1388=CARTESIAN_POINT('',(273.2,46.4,97.8));
#1389=CARTESIAN_POINT('',(84.,97.4,111.9));
#1390=CARTESIAN_POINT('',(84.,97.4,111.9));
#1391=CARTESIAN_POINT('',(44.4,97.4,111.9));
#1392=CARTESIAN_POINT('',(44.4,97.4,111.9));
#1393=CARTESIAN_POINT('',(44.4,185.6,111.9));
#1394=CARTESIAN_POINT('',(84.,185.6,111.9));
#1395=CARTESIAN_POINT('',(84.,185.6,135.7));
#1396=CARTESIAN_POINT('',(44.4,185.6,111.9));
#1397=CARTESIAN_POINT('',(88.8,141.5,111.9));
#1398=CARTESIAN_POINT('',(88.8,180.8,111.9));
#1399=CARTESIAN_POINT('',(88.8,102.2,111.9));
#1400=CARTESIAN_POINT('',(84.,180.8,111.9));
#1401=CARTESIAN_POINT('',(84.,102.2,111.9));
#1402=CARTESIAN_POINT('',(44.4,141.5,111.9));
#1403=CARTESIAN_POINT('',(88.8,180.8,111.9));
#1404=CARTESIAN_POINT('',(88.8,102.2,135.7));
#1405=CARTESIAN_POINT('',(88.8,141.5,111.9));
#1406=CARTESIAN_POINT('',(84.,180.8,111.9));
#1407=CARTESIAN_POINT('',(84.,102.2,111.9));
#1408=CARTESIAN_POINT('',(363.45,119.,97.8));
#1409=CARTESIAN_POINT('',(331.1,119.,97.8));
#1410=CARTESIAN_POINT('',(331.1,119.,135.7));
#1411=CARTESIAN_POINT('',(363.45,119.,97.8));
#1412=CARTESIAN_POINT('',(321.7,165.25,97.8));
#1413=CARTESIAN_POINT('',(321.7,128.4,97.8));
#1414=CARTESIAN_POINT('',(321.7,202.1,97.8));
#1415=CARTESIAN_POINT('',(321.7,202.1,122.1));
#1416=CARTESIAN_POINT('',(321.7,128.4,97.8));
#1417=CARTESIAN_POINT('',(321.7,165.25,97.8));
#1418=CARTESIAN_POINT('',(331.1,211.5,97.8));
#1419=CARTESIAN_POINT('',(331.1,211.5,97.8));
#1420=CARTESIAN_POINT('',(363.45,211.5,97.8));
#1421=CARTESIAN_POINT('',(363.45,211.5,97.8));
#1422=CARTESIAN_POINT('',(331.1,202.1,97.8));
#1423=CARTESIAN_POINT('',(331.1,128.4,97.8));
#1424=CARTESIAN_POINT('',(363.45,165.25,97.8));
#1425=CARTESIAN_POINT('',(331.1,202.1,97.8));
#1426=CARTESIAN_POINT('',(331.1,128.4,97.8));
#1427=CARTESIAN_POINT('',(339.2,21.35,109.8));
#1428=CARTESIAN_POINT('',(339.2,38.9,109.8));
#1429=CARTESIAN_POINT('',(339.2,38.9,135.7));
#1430=CARTESIAN_POINT('',(339.2,21.35,109.8));
#1431=CARTESIAN_POINT('',(343.,42.7,109.8));
#1432=CARTESIAN_POINT('',(343.,42.7,109.8));
#1433=CARTESIAN_POINT('',(372.2,42.7,109.8));
#1434=CARTESIAN_POINT('',(372.2,42.7,109.8));
#1435=CARTESIAN_POINT('',(372.2,25.9,109.8));
#1436=CARTESIAN_POINT('',(357.3,25.9,109.8));
#1437=CARTESIAN_POINT('',(375.9,25.9,109.8));
#1438=CARTESIAN_POINT('',(375.9,20.4,109.8));
#1439=CARTESIAN_POINT('',(381.4,20.4,109.8));
#1440=CARTESIAN_POINT('',(381.4,21.35,109.8));
#1441=CARTESIAN_POINT('',(381.4,17.4,109.8));
#1442=CARTESIAN_POINT('',(375.9,17.4,109.8));
#1443=CARTESIAN_POINT('',(375.9,11.9,109.8));
#1444=CARTESIAN_POINT('',(372.2,11.9,109.8));
#1445=CARTESIAN_POINT('',(357.3,11.9,109.8));
#1446=CARTESIAN_POINT('',(357.3,17.4,109.8));
#1447=CARTESIAN_POINT('',(351.8,17.4,109.8));
#1448=CARTESIAN_POINT('',(351.8,21.35,109.8));
#1449=CARTESIAN_POINT('',(351.8,20.4,109.8));
#1450=CARTESIAN_POINT('',(357.3,20.4,109.8));
#1451=CARTESIAN_POINT('',(343.,38.9,109.8));
#1452=CARTESIAN_POINT('',(372.2,21.35,109.8));
#1453=CARTESIAN_POINT('',(343.,38.9,109.8));
#1454=CARTESIAN_POINT('',(366.6,11.9,105.8));
#1455=CARTESIAN_POINT('',(375.9,11.9,105.8));
#1456=CARTESIAN_POINT('',(357.3,11.9,105.8));
#1457=CARTESIAN_POINT('',(357.3,11.9,109.8));
#1458=CARTESIAN_POINT('',(375.9,11.9,105.8));
#1459=CARTESIAN_POINT('',(366.6,11.9,105.8));
#1460=CARTESIAN_POINT('',(351.8,18.9,105.8));
#1461=CARTESIAN_POINT('',(351.8,17.4,105.8));
#1462=CARTESIAN_POINT('',(351.8,20.4,105.8));
#1463=CARTESIAN_POINT('',(351.8,20.4,109.8));
#1464=CARTESIAN_POINT('',(351.8,17.4,105.8));
#1465=CARTESIAN_POINT('',(351.8,18.9,105.8));
#1466=CARTESIAN_POINT('',(357.3,25.9,105.8));
#1467=CARTESIAN_POINT('',(357.3,25.9,105.8));
#1468=CARTESIAN_POINT('',(366.6,25.9,105.8));
#1469=CARTESIAN_POINT('',(375.9,25.9,105.8));
#1470=CARTESIAN_POINT('',(375.9,25.9,109.8));
#1471=CARTESIAN_POINT('',(366.6,25.9,105.8));
#1472=CARTESIAN_POINT('',(381.4,20.4,105.8));
#1473=CARTESIAN_POINT('',(381.4,20.4,105.8));
#1474=CARTESIAN_POINT('',(381.4,18.9,105.8));
#1475=CARTESIAN_POINT('',(381.4,17.4,105.8));
#1476=CARTESIAN_POINT('',(381.4,17.4,109.8));
#1477=CARTESIAN_POINT('',(381.4,18.9,105.8));
#1478=CARTESIAN_POINT('',(357.3,20.4,105.8));
#1479=CARTESIAN_POINT('',(357.3,17.4,105.8));
#1480=CARTESIAN_POINT('',(375.9,17.4,105.8));
#1481=CARTESIAN_POINT('',(375.9,20.4,105.8));
#1482=CARTESIAN_POINT('',(366.6,18.9,105.8));
#1483=CARTESIAN_POINT('',(357.3,20.4,105.8));
#1484=CARTESIAN_POINT('',(357.3,17.4,105.8));
#1485=CARTESIAN_POINT('',(375.9,20.4,105.8));
#1486=CARTESIAN_POINT('',(375.9,17.4,105.8));
#1487=CARTESIAN_POINT('',(297.6,18.4,135.75));
#1488=CARTESIAN_POINT('',(297.6,60.2,135.75));
#1489=CARTESIAN_POINT('',(297.6,102.1,135.75));
#1490=CARTESIAN_POINT('',(297.6,144.,135.75));
#1491=CARTESIAN_POINT('',(297.6,185.9,135.75));
#1492=MECHANICAL_DESIGN_GEOMETRIC_PRESENTATION_REPRESENTATION('',(#24),
#1493);
#1493=(
GEOMETRIC_REPRESENTATION_CONTEXT(3)
GLOBAL_UNCERTAINTY_ASSIGNED_CONTEXT((#1494))
GLOBAL_UNIT_ASSIGNED_CONTEXT((#1500,#1496,#1495))
REPRESENTATION_CONTEXT('featured_part_10549','TOP_LEVEL_ASSEMBLY_PART')
);
#1494=UNCERTAINTY_MEASURE_WITH_UNIT(LENGTH_MEASURE(2.E-5),#1500,
'DISTANCE_ACCURACY_VALUE','Maximum Tolerance applied to model');
#1495=(
NAMED_UNIT(*)
SI_UNIT($,.STERADIAN.)
SOLID_ANGLE_UNIT()
);
#1496=(
CONVERSION_BASED_UNIT('DEGREE',#1498)
NAMED_UNIT(#1497)
PLANE_ANGLE_UNIT()
);
#1497=DIMENSIONAL_EXPONENTS(0.,0.,0.,0.,0.,0.,0.);
#1498=PLANE_ANGLE_MEASURE_WITH_UNIT(PLANE_ANGLE_MEASURE(0.0174532925),#1499);
#1499=(
NAMED_UNIT(*)
PLANE_ANGLE_UNIT()
SI_UNIT($,.RADIAN.)
);
#1500=(
LENGTH_UNIT()
NAMED_UNIT(*)
SI_UNIT(.MILLI.,.METRE.)
);
ENDSEC;
END-ISO-10303-21;
