ISO-10303-21;
HEADER;
/* Generated by software containing ST-Developer
 * from STEP Tools, Inc. (www.steptools.com) 
 */
/* OPTION: using custom schema-name function */

FILE_DESCRIPTION(
/* description */ (''),
/* implementation_level */ '2;1');

FILE_NAME(
/* name */ 'featured_part_01451.stp',
/* time_stamp */ '2026-07-09T12:24:26-04:00',
/* author */ (''),
/* organization */ (''),
/* preprocessor_version */ 'ST-DEVELOPER v20.1',
/* originating_system */ 'SIEMENS PLM Software NX2512.6002',
/* authorisation */ '');

FILE_SCHEMA (('AUTOMOTIVE_DESIGN { 1 0 10303 214 3 1 1 1 }'));
ENDSEC;

DATA;
#10=SHAPE_REPRESENTATION_RELATIONSHIP('None',
'relationship between featured_part_01451-None and featured_part_01451
-None',#22,#11);
#11=ADVANCED_BREP_SHAPE_REPRESENTATION('featured_part_01451-None',(#32),
#1408);
#12=SHAPE_DEFINITION_REPRESENTATION(#13,#22);
#13=PRODUCT_DEFINITION_SHAPE('','',#14);
#14=PRODUCT_DEFINITION(' ','',#16,#15);
#15=PRODUCT_DEFINITION_CONTEXT('part definition',#21,'design');
#16=PRODUCT_DEFINITION_FORMATION_WITH_SPECIFIED_SOURCE(' ',' ',#18,
 .NOT_KNOWN.);
#17=PRODUCT_RELATED_PRODUCT_CATEGORY('part','',(#18));
#18=PRODUCT('featured_part_01451','featured_part_01451',' ',(#19));
#19=PRODUCT_CONTEXT(' ',#21,'mechanical');
#20=APPLICATION_PROTOCOL_DEFINITION('international standard',
'automotive_design',2010,#21);
#21=APPLICATION_CONTEXT(
'core data for automotive mechanical design processes');
#22=SHAPE_REPRESENTATION('featured_part_01451-None',(#858),#1408);
#23=PRESENTATION_LAYER_ASSIGNMENT('1','Layer 1',(#32));
#24=STYLED_ITEM('',(#25),#32);
#25=PRESENTATION_STYLE_ASSIGNMENT((#26));
#26=SURFACE_STYLE_USAGE(.BOTH.,#27);
#27=SURFACE_SIDE_STYLE('',(#28));
#28=SURFACE_STYLE_FILL_AREA(#29);
#29=FILL_AREA_STYLE('',(#30));
#30=FILL_AREA_STYLE_COLOUR('',#31);
#31=COLOUR_RGB('medium steel',0.611764705882353,0.658823529411765,0.670588235294118);
#32=MANIFOLD_SOLID_BREP('',#33);
#33=CLOSED_SHELL('',(#105,#106,#107,#108,#109,#110,#111,#112,#113,#114,
#115,#116,#117,#118,#119,#120,#121,#122,#123,#124,#125,#126,#127,#128,#129,
#130,#131,#132,#133,#134,#135,#136,#137,#138,#139,#140,#141,#142,#143,#144,
#145,#146,#147,#148));
#34=CYLINDRICAL_SURFACE('',#895,6.5);
#35=CYLINDRICAL_SURFACE('',#896,6.5);
#36=CYLINDRICAL_SURFACE('',#897,6.5);
#37=CYLINDRICAL_SURFACE('',#898,6.5);
#38=CYLINDRICAL_SURFACE('',#908,8.4);
#39=CYLINDRICAL_SURFACE('',#909,8.4);
#40=CYLINDRICAL_SURFACE('',#910,8.4);
#41=CYLINDRICAL_SURFACE('',#911,8.4);
#42=CYLINDRICAL_SURFACE('',#921,14.4);
#43=CYLINDRICAL_SURFACE('',#926,11.4);
#44=CYLINDRICAL_SURFACE('',#928,4.5);
#45=CYLINDRICAL_SURFACE('',#930,5.7);
#46=CYLINDRICAL_SURFACE('',#931,7.5);
#47=CYLINDRICAL_SURFACE('',#932,4.8);
#48=CYLINDRICAL_SURFACE('',#933,7.8);
#49=FACE_BOUND('',#213,.T.);
#50=FACE_BOUND('',#214,.T.);
#51=FACE_BOUND('',#215,.T.);
#52=FACE_BOUND('',#216,.T.);
#53=FACE_BOUND('',#217,.T.);
#54=FACE_BOUND('',#218,.T.);
#55=FACE_BOUND('',#222,.T.);
#56=FACE_BOUND('',#223,.T.);
#57=FACE_BOUND('',#224,.T.);
#58=FACE_BOUND('',#225,.T.);
#59=FACE_BOUND('',#226,.T.);
#60=FACE_BOUND('',#232,.T.);
#61=FACE_BOUND('',#233,.T.);
#62=FACE_BOUND('',#249,.T.);
#63=FACE_BOUND('',#250,.T.);
#64=FACE_BOUND('',#260,.T.);
#65=FACE_BOUND('',#261,.T.);
#66=FACE_BOUND('',#263,.T.);
#67=FACE_BOUND('',#264,.T.);
#68=FACE_BOUND('',#265,.T.);
#69=FACE_BOUND('',#266,.T.);
#70=FACE_BOUND('',#267,.T.);
#71=FACE_BOUND('',#268,.T.);
#72=FACE_BOUND('',#269,.T.);
#73=FACE_BOUND('',#270,.T.);
#74=CIRCLE('',#860,7.8);
#75=CIRCLE('',#861,4.8);
#76=CIRCLE('',#862,7.5);
#77=CIRCLE('',#863,5.7);
#78=CIRCLE('',#865,11.4);
#79=CIRCLE('',#866,14.4);
#80=CIRCLE('',#867,6.5);
#81=CIRCLE('',#868,6.5);
#82=CIRCLE('',#869,6.5);
#83=CIRCLE('',#870,6.5);
#84=CIRCLE('',#875,7.8);
#85=CIRCLE('',#876,4.8);
#86=CIRCLE('',#877,7.5);
#87=CIRCLE('',#878,5.7);
#88=CIRCLE('',#885,8.4);
#89=CIRCLE('',#886,8.4);
#90=CIRCLE('',#887,8.4);
#91=CIRCLE('',#888,8.4);
#92=CIRCLE('',#889,6.5);
#93=CIRCLE('',#890,6.5);
#94=CIRCLE('',#891,6.5);
#95=CIRCLE('',#892,6.5);
#96=CIRCLE('',#903,8.4);
#97=CIRCLE('',#904,8.4);
#98=CIRCLE('',#905,8.4);
#99=CIRCLE('',#906,8.4);
#100=CIRCLE('',#913,4.5);
#101=CIRCLE('',#914,7.8);
#102=CIRCLE('',#919,14.4);
#103=CIRCLE('',#924,11.4);
#104=CIRCLE('',#927,4.5);
#105=ADVANCED_FACE('',(#178),#149,.F.);
#106=ADVANCED_FACE('',(#49,#50,#51,#52),#150,.T.);
#107=ADVANCED_FACE('',(#53,#54),#151,.T.);
#108=ADVANCED_FACE('',(#179),#152,.T.);
#109=ADVANCED_FACE('',(#180),#153,.T.);
#110=ADVANCED_FACE('',(#181),#154,.T.);
#111=ADVANCED_FACE('',(#55,#56,#57,#58,#59),#155,.T.);
#112=ADVANCED_FACE('',(#182),#156,.T.);
#113=ADVANCED_FACE('',(#183),#157,.F.);
#114=ADVANCED_FACE('',(#184),#158,.F.);
#115=ADVANCED_FACE('',(#185),#159,.F.);
#116=ADVANCED_FACE('',(#186),#160,.F.);
#117=ADVANCED_FACE('',(#60,#61),#161,.F.);
#118=ADVANCED_FACE('',(#187),#162,.F.);
#119=ADVANCED_FACE('',(#188),#34,.F.);
#120=ADVANCED_FACE('',(#189),#35,.F.);
#121=ADVANCED_FACE('',(#190),#36,.F.);
#122=ADVANCED_FACE('',(#191),#37,.F.);
#123=ADVANCED_FACE('',(#192),#163,.F.);
#124=ADVANCED_FACE('',(#193),#164,.F.);
#125=ADVANCED_FACE('',(#194),#165,.F.);
#126=ADVANCED_FACE('',(#195),#166,.F.);
#127=ADVANCED_FACE('',(#196),#167,.F.);
#128=ADVANCED_FACE('',(#197),#38,.F.);
#129=ADVANCED_FACE('',(#198),#39,.F.);
#130=ADVANCED_FACE('',(#199),#40,.F.);
#131=ADVANCED_FACE('',(#200),#41,.F.);
#132=ADVANCED_FACE('',(#201),#168,.F.);
#133=ADVANCED_FACE('',(#62,#63),#169,.F.);
#134=ADVANCED_FACE('',(#202),#170,.F.);
#135=ADVANCED_FACE('',(#203),#171,.F.);
#136=ADVANCED_FACE('',(#204),#172,.F.);
#137=ADVANCED_FACE('',(#205),#173,.F.);
#138=ADVANCED_FACE('',(#206),#42,.F.);
#139=ADVANCED_FACE('',(#207),#174,.F.);
#140=ADVANCED_FACE('',(#208),#175,.F.);
#141=ADVANCED_FACE('',(#209),#176,.F.);
#142=ADVANCED_FACE('',(#210),#43,.F.);
#143=ADVANCED_FACE('',(#64,#65),#44,.F.);
#144=ADVANCED_FACE('',(#211),#177,.F.);
#145=ADVANCED_FACE('',(#66,#67),#45,.F.);
#146=ADVANCED_FACE('',(#68,#69),#46,.F.);
#147=ADVANCED_FACE('',(#70,#71),#47,.F.);
#148=ADVANCED_FACE('',(#72,#73),#48,.F.);
#149=PLANE('',#859);
#150=PLANE('',#864);
#151=PLANE('',#871);
#152=PLANE('',#872);
#153=PLANE('',#873);
#154=PLANE('',#874);
#155=PLANE('',#879);
#156=PLANE('',#880);
#157=PLANE('',#881);
#158=PLANE('',#882);
#159=PLANE('',#883);
#160=PLANE('',#884);
#161=PLANE('',#893);
#162=PLANE('',#894);
#163=PLANE('',#899);
#164=PLANE('',#900);
#165=PLANE('',#901);
#166=PLANE('',#902);
#167=PLANE('',#907);
#168=PLANE('',#912);
#169=PLANE('',#915);
#170=PLANE('',#916);
#171=PLANE('',#917);
#172=PLANE('',#918);
#173=PLANE('',#920);
#174=PLANE('',#922);
#175=PLANE('',#923);
#176=PLANE('',#925);
#177=PLANE('',#929);
#178=FACE_OUTER_BOUND('',#212,.T.);
#179=FACE_OUTER_BOUND('',#219,.T.);
#180=FACE_OUTER_BOUND('',#220,.T.);
#181=FACE_OUTER_BOUND('',#221,.T.);
#182=FACE_OUTER_BOUND('',#227,.T.);
#183=FACE_OUTER_BOUND('',#228,.T.);
#184=FACE_OUTER_BOUND('',#229,.T.);
#185=FACE_OUTER_BOUND('',#230,.T.);
#186=FACE_OUTER_BOUND('',#231,.T.);
#187=FACE_OUTER_BOUND('',#234,.T.);
#188=FACE_OUTER_BOUND('',#235,.T.);
#189=FACE_OUTER_BOUND('',#236,.T.);
#190=FACE_OUTER_BOUND('',#237,.T.);
#191=FACE_OUTER_BOUND('',#238,.T.);
#192=FACE_OUTER_BOUND('',#239,.T.);
#193=FACE_OUTER_BOUND('',#240,.T.);
#194=FACE_OUTER_BOUND('',#241,.T.);
#195=FACE_OUTER_BOUND('',#242,.T.);
#196=FACE_OUTER_BOUND('',#243,.T.);
#197=FACE_OUTER_BOUND('',#244,.T.);
#198=FACE_OUTER_BOUND('',#245,.T.);
#199=FACE_OUTER_BOUND('',#246,.T.);
#200=FACE_OUTER_BOUND('',#247,.T.);
#201=FACE_OUTER_BOUND('',#248,.T.);
#202=FACE_OUTER_BOUND('',#251,.T.);
#203=FACE_OUTER_BOUND('',#252,.T.);
#204=FACE_OUTER_BOUND('',#253,.T.);
#205=FACE_OUTER_BOUND('',#254,.T.);
#206=FACE_OUTER_BOUND('',#255,.T.);
#207=FACE_OUTER_BOUND('',#256,.T.);
#208=FACE_OUTER_BOUND('',#257,.T.);
#209=FACE_OUTER_BOUND('',#258,.T.);
#210=FACE_OUTER_BOUND('',#259,.T.);
#211=FACE_OUTER_BOUND('',#262,.T.);
#212=EDGE_LOOP('',(#271,#272,#273,#274));
#213=EDGE_LOOP('',(#275,#276,#277,#278,#279,#280));
#214=EDGE_LOOP('',(#281));
#215=EDGE_LOOP('',(#282));
#216=EDGE_LOOP('',(#283));
#217=EDGE_LOOP('',(#284,#285,#286,#287,#288,#289,#290,#291,#292,#293));
#218=EDGE_LOOP('',(#294,#295,#296,#297,#298,#299,#300,#301));
#219=EDGE_LOOP('',(#302,#303,#304,#305,#306,#307,#308,#309,#310,#311,#312));
#220=EDGE_LOOP('',(#313,#314,#315,#316));
#221=EDGE_LOOP('',(#317,#318,#319,#320,#321,#322,#323,#324,#325,#326,#327));
#222=EDGE_LOOP('',(#328));
#223=EDGE_LOOP('',(#329));
#224=EDGE_LOOP('',(#330));
#225=EDGE_LOOP('',(#331));
#226=EDGE_LOOP('',(#332,#333,#334,#335));
#227=EDGE_LOOP('',(#336,#337,#338,#339,#340,#341,#342,#343));
#228=EDGE_LOOP('',(#344,#345,#346,#347));
#229=EDGE_LOOP('',(#348,#349,#350,#351));
#230=EDGE_LOOP('',(#352,#353,#354,#355));
#231=EDGE_LOOP('',(#356,#357,#358,#359));
#232=EDGE_LOOP('',(#360,#361,#362,#363,#364,#365,#366,#367));
#233=EDGE_LOOP('',(#368,#369,#370,#371,#372,#373,#374,#375));
#234=EDGE_LOOP('',(#376,#377,#378,#379));
#235=EDGE_LOOP('',(#380,#381,#382,#383));
#236=EDGE_LOOP('',(#384,#385,#386,#387));
#237=EDGE_LOOP('',(#388,#389,#390,#391));
#238=EDGE_LOOP('',(#392,#393,#394,#395));
#239=EDGE_LOOP('',(#396,#397,#398,#399));
#240=EDGE_LOOP('',(#400,#401,#402,#403));
#241=EDGE_LOOP('',(#404,#405,#406,#407));
#242=EDGE_LOOP('',(#408,#409,#410,#411));
#243=EDGE_LOOP('',(#412,#413,#414,#415,#416,#417,#418,#419));
#244=EDGE_LOOP('',(#420,#421,#422,#423));
#245=EDGE_LOOP('',(#424,#425,#426,#427));
#246=EDGE_LOOP('',(#428,#429,#430,#431));
#247=EDGE_LOOP('',(#432,#433,#434,#435));
#248=EDGE_LOOP('',(#436,#437,#438,#439));
#249=EDGE_LOOP('',(#440));
#250=EDGE_LOOP('',(#441,#442,#443,#444,#445,#446));
#251=EDGE_LOOP('',(#447,#448,#449,#450));
#252=EDGE_LOOP('',(#451,#452,#453,#454));
#253=EDGE_LOOP('',(#455,#456,#457,#458));
#254=EDGE_LOOP('',(#459,#460,#461,#462,#463));
#255=EDGE_LOOP('',(#464,#465,#466,#467));
#256=EDGE_LOOP('',(#468,#469,#470,#471));
#257=EDGE_LOOP('',(#472,#473,#474,#475));
#258=EDGE_LOOP('',(#476,#477,#478,#479,#480));
#259=EDGE_LOOP('',(#481,#482,#483,#484));
#260=EDGE_LOOP('',(#485));
#261=EDGE_LOOP('',(#486));
#262=EDGE_LOOP('',(#487));
#263=EDGE_LOOP('',(#488));
#264=EDGE_LOOP('',(#489));
#265=EDGE_LOOP('',(#490));
#266=EDGE_LOOP('',(#491));
#267=EDGE_LOOP('',(#492));
#268=EDGE_LOOP('',(#493));
#269=EDGE_LOOP('',(#494));
#270=EDGE_LOOP('',(#495,#496,#497,#498));
#271=ORIENTED_EDGE('',*,*,#578,.T.);
#272=ORIENTED_EDGE('',*,*,#579,.T.);
#273=ORIENTED_EDGE('',*,*,#580,.T.);
#274=ORIENTED_EDGE('',*,*,#581,.T.);
#275=ORIENTED_EDGE('',*,*,#582,.F.);
#276=ORIENTED_EDGE('',*,*,#578,.F.);
#277=ORIENTED_EDGE('',*,*,#583,.F.);
#278=ORIENTED_EDGE('',*,*,#584,.T.);
#279=ORIENTED_EDGE('',*,*,#585,.F.);
#280=ORIENTED_EDGE('',*,*,#586,.F.);
#281=ORIENTED_EDGE('',*,*,#587,.F.);
#282=ORIENTED_EDGE('',*,*,#588,.F.);
#283=ORIENTED_EDGE('',*,*,#589,.F.);
#284=ORIENTED_EDGE('',*,*,#590,.F.);
#285=ORIENTED_EDGE('',*,*,#591,.T.);
#286=ORIENTED_EDGE('',*,*,#592,.F.);
#287=ORIENTED_EDGE('',*,*,#593,.F.);
#288=ORIENTED_EDGE('',*,*,#594,.F.);
#289=ORIENTED_EDGE('',*,*,#595,.F.);
#290=ORIENTED_EDGE('',*,*,#596,.F.);
#291=ORIENTED_EDGE('',*,*,#597,.T.);
#292=ORIENTED_EDGE('',*,*,#598,.F.);
#293=ORIENTED_EDGE('',*,*,#599,.F.);
#294=ORIENTED_EDGE('',*,*,#600,.F.);
#295=ORIENTED_EDGE('',*,*,#601,.T.);
#296=ORIENTED_EDGE('',*,*,#602,.F.);
#297=ORIENTED_EDGE('',*,*,#603,.T.);
#298=ORIENTED_EDGE('',*,*,#604,.F.);
#299=ORIENTED_EDGE('',*,*,#605,.T.);
#300=ORIENTED_EDGE('',*,*,#606,.F.);
#301=ORIENTED_EDGE('',*,*,#607,.T.);
#302=ORIENTED_EDGE('',*,*,#608,.T.);
#303=ORIENTED_EDGE('',*,*,#595,.T.);
#304=ORIENTED_EDGE('',*,*,#609,.F.);
#305=ORIENTED_EDGE('',*,*,#610,.F.);
#306=ORIENTED_EDGE('',*,*,#611,.F.);
#307=ORIENTED_EDGE('',*,*,#585,.T.);
#308=ORIENTED_EDGE('',*,*,#612,.T.);
#309=ORIENTED_EDGE('',*,*,#613,.F.);
#310=ORIENTED_EDGE('',*,*,#614,.T.);
#311=ORIENTED_EDGE('',*,*,#615,.T.);
#312=ORIENTED_EDGE('',*,*,#616,.F.);
#313=ORIENTED_EDGE('',*,*,#613,.T.);
#314=ORIENTED_EDGE('',*,*,#617,.T.);
#315=ORIENTED_EDGE('',*,*,#618,.F.);
#316=ORIENTED_EDGE('',*,*,#619,.T.);
#317=ORIENTED_EDGE('',*,*,#620,.F.);
#318=ORIENTED_EDGE('',*,*,#621,.F.);
#319=ORIENTED_EDGE('',*,*,#622,.F.);
#320=ORIENTED_EDGE('',*,*,#623,.T.);
#321=ORIENTED_EDGE('',*,*,#618,.T.);
#322=ORIENTED_EDGE('',*,*,#624,.T.);
#323=ORIENTED_EDGE('',*,*,#583,.T.);
#324=ORIENTED_EDGE('',*,*,#581,.F.);
#325=ORIENTED_EDGE('',*,*,#625,.F.);
#326=ORIENTED_EDGE('',*,*,#626,.F.);
#327=ORIENTED_EDGE('',*,*,#593,.T.);
#328=ORIENTED_EDGE('',*,*,#627,.F.);
#329=ORIENTED_EDGE('',*,*,#628,.F.);
#330=ORIENTED_EDGE('',*,*,#629,.F.);
#331=ORIENTED_EDGE('',*,*,#630,.F.);
#332=ORIENTED_EDGE('',*,*,#631,.F.);
#333=ORIENTED_EDGE('',*,*,#614,.F.);
#334=ORIENTED_EDGE('',*,*,#619,.F.);
#335=ORIENTED_EDGE('',*,*,#623,.F.);
#336=ORIENTED_EDGE('',*,*,#632,.T.);
#337=ORIENTED_EDGE('',*,*,#599,.T.);
#338=ORIENTED_EDGE('',*,*,#633,.F.);
#339=ORIENTED_EDGE('',*,*,#634,.F.);
#340=ORIENTED_EDGE('',*,*,#615,.F.);
#341=ORIENTED_EDGE('',*,*,#631,.T.);
#342=ORIENTED_EDGE('',*,*,#622,.T.);
#343=ORIENTED_EDGE('',*,*,#635,.F.);
#344=ORIENTED_EDGE('',*,*,#612,.F.);
#345=ORIENTED_EDGE('',*,*,#584,.F.);
#346=ORIENTED_EDGE('',*,*,#624,.F.);
#347=ORIENTED_EDGE('',*,*,#617,.F.);
#348=ORIENTED_EDGE('',*,*,#636,.T.);
#349=ORIENTED_EDGE('',*,*,#637,.T.);
#350=ORIENTED_EDGE('',*,*,#600,.T.);
#351=ORIENTED_EDGE('',*,*,#638,.T.);
#352=ORIENTED_EDGE('',*,*,#602,.T.);
#353=ORIENTED_EDGE('',*,*,#639,.T.);
#354=ORIENTED_EDGE('',*,*,#640,.T.);
#355=ORIENTED_EDGE('',*,*,#641,.T.);
#356=ORIENTED_EDGE('',*,*,#642,.T.);
#357=ORIENTED_EDGE('',*,*,#643,.T.);
#358=ORIENTED_EDGE('',*,*,#604,.T.);
#359=ORIENTED_EDGE('',*,*,#644,.T.);
#360=ORIENTED_EDGE('',*,*,#645,.T.);
#361=ORIENTED_EDGE('',*,*,#646,.T.);
#362=ORIENTED_EDGE('',*,*,#647,.T.);
#363=ORIENTED_EDGE('',*,*,#648,.T.);
#364=ORIENTED_EDGE('',*,*,#649,.T.);
#365=ORIENTED_EDGE('',*,*,#650,.T.);
#366=ORIENTED_EDGE('',*,*,#651,.T.);
#367=ORIENTED_EDGE('',*,*,#652,.T.);
#368=ORIENTED_EDGE('',*,*,#653,.F.);
#369=ORIENTED_EDGE('',*,*,#654,.T.);
#370=ORIENTED_EDGE('',*,*,#642,.F.);
#371=ORIENTED_EDGE('',*,*,#655,.T.);
#372=ORIENTED_EDGE('',*,*,#640,.F.);
#373=ORIENTED_EDGE('',*,*,#656,.T.);
#374=ORIENTED_EDGE('',*,*,#636,.F.);
#375=ORIENTED_EDGE('',*,*,#657,.T.);
#376=ORIENTED_EDGE('',*,*,#606,.T.);
#377=ORIENTED_EDGE('',*,*,#658,.T.);
#378=ORIENTED_EDGE('',*,*,#653,.T.);
#379=ORIENTED_EDGE('',*,*,#659,.T.);
#380=ORIENTED_EDGE('',*,*,#605,.F.);
#381=ORIENTED_EDGE('',*,*,#643,.F.);
#382=ORIENTED_EDGE('',*,*,#654,.F.);
#383=ORIENTED_EDGE('',*,*,#658,.F.);
#384=ORIENTED_EDGE('',*,*,#601,.F.);
#385=ORIENTED_EDGE('',*,*,#637,.F.);
#386=ORIENTED_EDGE('',*,*,#656,.F.);
#387=ORIENTED_EDGE('',*,*,#639,.F.);
#388=ORIENTED_EDGE('',*,*,#603,.F.);
#389=ORIENTED_EDGE('',*,*,#641,.F.);
#390=ORIENTED_EDGE('',*,*,#655,.F.);
#391=ORIENTED_EDGE('',*,*,#644,.F.);
#392=ORIENTED_EDGE('',*,*,#607,.F.);
#393=ORIENTED_EDGE('',*,*,#659,.F.);
#394=ORIENTED_EDGE('',*,*,#657,.F.);
#395=ORIENTED_EDGE('',*,*,#638,.F.);
#396=ORIENTED_EDGE('',*,*,#649,.F.);
#397=ORIENTED_EDGE('',*,*,#660,.T.);
#398=ORIENTED_EDGE('',*,*,#661,.T.);
#399=ORIENTED_EDGE('',*,*,#662,.T.);
#400=ORIENTED_EDGE('',*,*,#651,.F.);
#401=ORIENTED_EDGE('',*,*,#663,.T.);
#402=ORIENTED_EDGE('',*,*,#664,.T.);
#403=ORIENTED_EDGE('',*,*,#665,.T.);
#404=ORIENTED_EDGE('',*,*,#645,.F.);
#405=ORIENTED_EDGE('',*,*,#666,.T.);
#406=ORIENTED_EDGE('',*,*,#667,.T.);
#407=ORIENTED_EDGE('',*,*,#668,.T.);
#408=ORIENTED_EDGE('',*,*,#669,.T.);
#409=ORIENTED_EDGE('',*,*,#670,.T.);
#410=ORIENTED_EDGE('',*,*,#647,.F.);
#411=ORIENTED_EDGE('',*,*,#671,.T.);
#412=ORIENTED_EDGE('',*,*,#661,.F.);
#413=ORIENTED_EDGE('',*,*,#672,.T.);
#414=ORIENTED_EDGE('',*,*,#669,.F.);
#415=ORIENTED_EDGE('',*,*,#673,.T.);
#416=ORIENTED_EDGE('',*,*,#667,.F.);
#417=ORIENTED_EDGE('',*,*,#674,.T.);
#418=ORIENTED_EDGE('',*,*,#664,.F.);
#419=ORIENTED_EDGE('',*,*,#675,.T.);
#420=ORIENTED_EDGE('',*,*,#648,.F.);
#421=ORIENTED_EDGE('',*,*,#670,.F.);
#422=ORIENTED_EDGE('',*,*,#672,.F.);
#423=ORIENTED_EDGE('',*,*,#660,.F.);
#424=ORIENTED_EDGE('',*,*,#650,.F.);
#425=ORIENTED_EDGE('',*,*,#662,.F.);
#426=ORIENTED_EDGE('',*,*,#675,.F.);
#427=ORIENTED_EDGE('',*,*,#663,.F.);
#428=ORIENTED_EDGE('',*,*,#652,.F.);
#429=ORIENTED_EDGE('',*,*,#665,.F.);
#430=ORIENTED_EDGE('',*,*,#674,.F.);
#431=ORIENTED_EDGE('',*,*,#666,.F.);
#432=ORIENTED_EDGE('',*,*,#646,.F.);
#433=ORIENTED_EDGE('',*,*,#668,.F.);
#434=ORIENTED_EDGE('',*,*,#673,.F.);
#435=ORIENTED_EDGE('',*,*,#671,.F.);
#436=ORIENTED_EDGE('',*,*,#676,.T.);
#437=ORIENTED_EDGE('',*,*,#677,.T.);
#438=ORIENTED_EDGE('',*,*,#586,.T.);
#439=ORIENTED_EDGE('',*,*,#611,.T.);
#440=ORIENTED_EDGE('',*,*,#678,.T.);
#441=ORIENTED_EDGE('',*,*,#580,.F.);
#442=ORIENTED_EDGE('',*,*,#679,.T.);
#443=ORIENTED_EDGE('',*,*,#676,.F.);
#444=ORIENTED_EDGE('',*,*,#610,.T.);
#445=ORIENTED_EDGE('',*,*,#680,.F.);
#446=ORIENTED_EDGE('',*,*,#625,.T.);
#447=ORIENTED_EDGE('',*,*,#609,.T.);
#448=ORIENTED_EDGE('',*,*,#594,.T.);
#449=ORIENTED_EDGE('',*,*,#626,.T.);
#450=ORIENTED_EDGE('',*,*,#680,.T.);
#451=ORIENTED_EDGE('',*,*,#681,.T.);
#452=ORIENTED_EDGE('',*,*,#682,.T.);
#453=ORIENTED_EDGE('',*,*,#596,.T.);
#454=ORIENTED_EDGE('',*,*,#608,.F.);
#455=ORIENTED_EDGE('',*,*,#598,.T.);
#456=ORIENTED_EDGE('',*,*,#683,.T.);
#457=ORIENTED_EDGE('',*,*,#684,.T.);
#458=ORIENTED_EDGE('',*,*,#633,.T.);
#459=ORIENTED_EDGE('',*,*,#684,.F.);
#460=ORIENTED_EDGE('',*,*,#685,.T.);
#461=ORIENTED_EDGE('',*,*,#681,.F.);
#462=ORIENTED_EDGE('',*,*,#616,.T.);
#463=ORIENTED_EDGE('',*,*,#634,.T.);
#464=ORIENTED_EDGE('',*,*,#597,.F.);
#465=ORIENTED_EDGE('',*,*,#682,.F.);
#466=ORIENTED_EDGE('',*,*,#685,.F.);
#467=ORIENTED_EDGE('',*,*,#683,.F.);
#468=ORIENTED_EDGE('',*,*,#686,.T.);
#469=ORIENTED_EDGE('',*,*,#687,.T.);
#470=ORIENTED_EDGE('',*,*,#590,.T.);
#471=ORIENTED_EDGE('',*,*,#632,.F.);
#472=ORIENTED_EDGE('',*,*,#592,.T.);
#473=ORIENTED_EDGE('',*,*,#688,.T.);
#474=ORIENTED_EDGE('',*,*,#689,.T.);
#475=ORIENTED_EDGE('',*,*,#620,.T.);
#476=ORIENTED_EDGE('',*,*,#689,.F.);
#477=ORIENTED_EDGE('',*,*,#690,.T.);
#478=ORIENTED_EDGE('',*,*,#686,.F.);
#479=ORIENTED_EDGE('',*,*,#635,.T.);
#480=ORIENTED_EDGE('',*,*,#621,.T.);
#481=ORIENTED_EDGE('',*,*,#591,.F.);
#482=ORIENTED_EDGE('',*,*,#687,.F.);
#483=ORIENTED_EDGE('',*,*,#690,.F.);
#484=ORIENTED_EDGE('',*,*,#688,.F.);
#485=ORIENTED_EDGE('',*,*,#691,.T.);
#486=ORIENTED_EDGE('',*,*,#678,.F.);
#487=ORIENTED_EDGE('',*,*,#691,.F.);
#488=ORIENTED_EDGE('',*,*,#589,.T.);
#489=ORIENTED_EDGE('',*,*,#630,.T.);
#490=ORIENTED_EDGE('',*,*,#588,.T.);
#491=ORIENTED_EDGE('',*,*,#629,.T.);
#492=ORIENTED_EDGE('',*,*,#587,.T.);
#493=ORIENTED_EDGE('',*,*,#628,.T.);
#494=ORIENTED_EDGE('',*,*,#627,.T.);
#495=ORIENTED_EDGE('',*,*,#582,.T.);
#496=ORIENTED_EDGE('',*,*,#677,.F.);
#497=ORIENTED_EDGE('',*,*,#679,.F.);
#498=ORIENTED_EDGE('',*,*,#579,.F.);
#499=VERTEX_POINT('',#1171);
#500=VERTEX_POINT('',#1172);
#501=VERTEX_POINT('',#1174);
#502=VERTEX_POINT('',#1176);
#503=VERTEX_POINT('',#1180);
#504=VERTEX_POINT('',#1182);
#505=VERTEX_POINT('',#1184);
#506=VERTEX_POINT('',#1186);
#507=VERTEX_POINT('',#1189);
#508=VERTEX_POINT('',#1191);
#509=VERTEX_POINT('',#1193);
#510=VERTEX_POINT('',#1196);
#511=VERTEX_POINT('',#1197);
#512=VERTEX_POINT('',#1199);
#513=VERTEX_POINT('',#1201);
#514=VERTEX_POINT('',#1203);
#515=VERTEX_POINT('',#1205);
#516=VERTEX_POINT('',#1207);
#517=VERTEX_POINT('',#1209);
#518=VERTEX_POINT('',#1211);
#519=VERTEX_POINT('',#1213);
#520=VERTEX_POINT('',#1216);
#521=VERTEX_POINT('',#1217);
#522=VERTEX_POINT('',#1219);
#523=VERTEX_POINT('',#1221);
#524=VERTEX_POINT('',#1223);
#525=VERTEX_POINT('',#1225);
#526=VERTEX_POINT('',#1227);
#527=VERTEX_POINT('',#1229);
#528=VERTEX_POINT('',#1233);
#529=VERTEX_POINT('',#1235);
#530=VERTEX_POINT('',#1237);
#531=VERTEX_POINT('',#1240);
#532=VERTEX_POINT('',#1242);
#533=VERTEX_POINT('',#1244);
#534=VERTEX_POINT('',#1246);
#535=VERTEX_POINT('',#1250);
#536=VERTEX_POINT('',#1252);
#537=VERTEX_POINT('',#1256);
#538=VERTEX_POINT('',#1258);
#539=VERTEX_POINT('',#1260);
#540=VERTEX_POINT('',#1264);
#541=VERTEX_POINT('',#1268);
#542=VERTEX_POINT('',#1270);
#543=VERTEX_POINT('',#1272);
#544=VERTEX_POINT('',#1274);
#545=VERTEX_POINT('',#1278);
#546=VERTEX_POINT('',#1280);
#547=VERTEX_POINT('',#1286);
#548=VERTEX_POINT('',#1287);
#549=VERTEX_POINT('',#1292);
#550=VERTEX_POINT('',#1294);
#551=VERTEX_POINT('',#1298);
#552=VERTEX_POINT('',#1299);
#553=VERTEX_POINT('',#1304);
#554=VERTEX_POINT('',#1305);
#555=VERTEX_POINT('',#1307);
#556=VERTEX_POINT('',#1309);
#557=VERTEX_POINT('',#1311);
#558=VERTEX_POINT('',#1313);
#559=VERTEX_POINT('',#1315);
#560=VERTEX_POINT('',#1317);
#561=VERTEX_POINT('',#1320);
#562=VERTEX_POINT('',#1321);
#563=VERTEX_POINT('',#1335);
#564=VERTEX_POINT('',#1337);
#565=VERTEX_POINT('',#1341);
#566=VERTEX_POINT('',#1343);
#567=VERTEX_POINT('',#1347);
#568=VERTEX_POINT('',#1349);
#569=VERTEX_POINT('',#1353);
#570=VERTEX_POINT('',#1354);
#571=VERTEX_POINT('',#1368);
#572=VERTEX_POINT('',#1372);
#573=VERTEX_POINT('',#1378);
#574=VERTEX_POINT('',#1382);
#575=VERTEX_POINT('',#1389);
#576=VERTEX_POINT('',#1393);
#577=VERTEX_POINT('',#1400);
#578=EDGE_CURVE('',#499,#500,#692,.T.);
#579=EDGE_CURVE('',#500,#501,#693,.T.);
#580=EDGE_CURVE('',#501,#502,#694,.T.);
#581=EDGE_CURVE('',#502,#499,#695,.T.);
#582=EDGE_CURVE('',#500,#503,#74,.T.);
#583=EDGE_CURVE('',#504,#499,#696,.T.);
#584=EDGE_CURVE('',#504,#505,#697,.T.);
#585=EDGE_CURVE('',#506,#505,#698,.T.);
#586=EDGE_CURVE('',#503,#506,#699,.T.);
#587=EDGE_CURVE('',#507,#507,#75,.T.);
#588=EDGE_CURVE('',#508,#508,#76,.T.);
#589=EDGE_CURVE('',#509,#509,#77,.T.);
#590=EDGE_CURVE('',#510,#511,#700,.T.);
#591=EDGE_CURVE('',#510,#512,#78,.T.);
#592=EDGE_CURVE('',#513,#512,#701,.T.);
#593=EDGE_CURVE('',#514,#513,#702,.T.);
#594=EDGE_CURVE('',#515,#514,#703,.T.);
#595=EDGE_CURVE('',#516,#515,#704,.T.);
#596=EDGE_CURVE('',#517,#516,#705,.T.);
#597=EDGE_CURVE('',#517,#518,#79,.T.);
#598=EDGE_CURVE('',#519,#518,#706,.T.);
#599=EDGE_CURVE('',#511,#519,#707,.T.);
#600=EDGE_CURVE('',#520,#521,#708,.T.);
#601=EDGE_CURVE('',#520,#522,#80,.T.);
#602=EDGE_CURVE('',#523,#522,#709,.T.);
#603=EDGE_CURVE('',#523,#524,#81,.T.);
#604=EDGE_CURVE('',#525,#524,#710,.T.);
#605=EDGE_CURVE('',#525,#526,#82,.T.);
#606=EDGE_CURVE('',#527,#526,#711,.T.);
#607=EDGE_CURVE('',#527,#521,#83,.T.);
#608=EDGE_CURVE('',#528,#516,#712,.T.);
#609=EDGE_CURVE('',#529,#515,#713,.T.);
#610=EDGE_CURVE('',#530,#529,#714,.T.);
#611=EDGE_CURVE('',#506,#530,#715,.T.);
#612=EDGE_CURVE('',#505,#531,#716,.T.);
#613=EDGE_CURVE('',#532,#531,#717,.T.);
#614=EDGE_CURVE('',#532,#533,#718,.T.);
#615=EDGE_CURVE('',#533,#534,#719,.T.);
#616=EDGE_CURVE('',#528,#534,#720,.T.);
#617=EDGE_CURVE('',#531,#535,#721,.T.);
#618=EDGE_CURVE('',#536,#535,#722,.T.);
#619=EDGE_CURVE('',#536,#532,#723,.T.);
#620=EDGE_CURVE('',#537,#513,#724,.T.);
#621=EDGE_CURVE('',#538,#537,#725,.T.);
#622=EDGE_CURVE('',#539,#538,#726,.T.);
#623=EDGE_CURVE('',#539,#536,#727,.T.);
#624=EDGE_CURVE('',#535,#504,#728,.T.);
#625=EDGE_CURVE('',#540,#502,#729,.T.);
#626=EDGE_CURVE('',#514,#540,#730,.T.);
#627=EDGE_CURVE('',#541,#541,#84,.T.);
#628=EDGE_CURVE('',#542,#542,#85,.T.);
#629=EDGE_CURVE('',#543,#543,#86,.T.);
#630=EDGE_CURVE('',#544,#544,#87,.T.);
#631=EDGE_CURVE('',#533,#539,#731,.T.);
#632=EDGE_CURVE('',#545,#511,#732,.T.);
#633=EDGE_CURVE('',#546,#519,#733,.T.);
#634=EDGE_CURVE('',#534,#546,#734,.T.);
#635=EDGE_CURVE('',#545,#538,#735,.T.);
#636=EDGE_CURVE('',#547,#548,#736,.T.);
#637=EDGE_CURVE('',#548,#520,#737,.T.);
#638=EDGE_CURVE('',#521,#547,#738,.T.);
#639=EDGE_CURVE('',#522,#549,#739,.T.);
#640=EDGE_CURVE('',#549,#550,#740,.T.);
#641=EDGE_CURVE('',#550,#523,#741,.T.);
#642=EDGE_CURVE('',#551,#552,#742,.T.);
#643=EDGE_CURVE('',#552,#525,#743,.T.);
#644=EDGE_CURVE('',#524,#551,#744,.T.);
#645=EDGE_CURVE('',#553,#554,#745,.T.);
#646=EDGE_CURVE('',#554,#555,#88,.T.);
#647=EDGE_CURVE('',#555,#556,#746,.T.);
#648=EDGE_CURVE('',#556,#557,#89,.T.);
#649=EDGE_CURVE('',#557,#558,#747,.T.);
#650=EDGE_CURVE('',#558,#559,#90,.T.);
#651=EDGE_CURVE('',#559,#560,#748,.T.);
#652=EDGE_CURVE('',#560,#553,#91,.T.);
#653=EDGE_CURVE('',#561,#562,#749,.T.);
#654=EDGE_CURVE('',#561,#552,#92,.T.);
#655=EDGE_CURVE('',#551,#550,#93,.T.);
#656=EDGE_CURVE('',#549,#548,#94,.T.);
#657=EDGE_CURVE('',#547,#562,#95,.T.);
#658=EDGE_CURVE('',#526,#561,#750,.T.);
#659=EDGE_CURVE('',#562,#527,#751,.T.);
#660=EDGE_CURVE('',#557,#563,#752,.T.);
#661=EDGE_CURVE('',#563,#564,#753,.T.);
#662=EDGE_CURVE('',#564,#558,#754,.T.);
#663=EDGE_CURVE('',#559,#565,#755,.T.);
#664=EDGE_CURVE('',#565,#566,#756,.T.);
#665=EDGE_CURVE('',#566,#560,#757,.T.);
#666=EDGE_CURVE('',#553,#567,#758,.T.);
#667=EDGE_CURVE('',#567,#568,#759,.T.);
#668=EDGE_CURVE('',#568,#554,#760,.T.);
#669=EDGE_CURVE('',#569,#570,#761,.T.);
#670=EDGE_CURVE('',#570,#556,#762,.T.);
#671=EDGE_CURVE('',#555,#569,#763,.T.);
#672=EDGE_CURVE('',#563,#570,#96,.T.);
#673=EDGE_CURVE('',#569,#568,#97,.T.);
#674=EDGE_CURVE('',#567,#566,#98,.T.);
#675=EDGE_CURVE('',#565,#564,#99,.T.);
#676=EDGE_CURVE('',#530,#571,#764,.T.);
#677=EDGE_CURVE('',#571,#503,#765,.T.);
#678=EDGE_CURVE('',#572,#572,#100,.T.);
#679=EDGE_CURVE('',#501,#571,#101,.T.);
#680=EDGE_CURVE('',#540,#529,#766,.T.);
#681=EDGE_CURVE('',#528,#573,#767,.T.);
#682=EDGE_CURVE('',#573,#517,#768,.T.);
#683=EDGE_CURVE('',#518,#574,#769,.T.);
#684=EDGE_CURVE('',#574,#546,#770,.T.);
#685=EDGE_CURVE('',#574,#573,#102,.T.);
#686=EDGE_CURVE('',#545,#575,#771,.T.);
#687=EDGE_CURVE('',#575,#510,#772,.T.);
#688=EDGE_CURVE('',#512,#576,#773,.T.);
#689=EDGE_CURVE('',#576,#537,#774,.T.);
#690=EDGE_CURVE('',#576,#575,#103,.T.);
#691=EDGE_CURVE('',#577,#577,#104,.T.);
#692=LINE('',#1170,#775);
#693=LINE('',#1173,#776);
#694=LINE('',#1175,#777);
#695=LINE('',#1177,#778);
#696=LINE('',#1181,#779);
#697=LINE('',#1183,#780);
#698=LINE('',#1185,#781);
#699=LINE('',#1187,#782);
#700=LINE('',#1195,#783);
#701=LINE('',#1200,#784);
#702=LINE('',#1202,#785);
#703=LINE('',#1204,#786);
#704=LINE('',#1206,#787);
#705=LINE('',#1208,#788);
#706=LINE('',#1212,#789);
#707=LINE('',#1214,#790);
#708=LINE('',#1215,#791);
#709=LINE('',#1220,#792);
#710=LINE('',#1224,#793);
#711=LINE('',#1228,#794);
#712=LINE('',#1232,#795);
#713=LINE('',#1234,#796);
#714=LINE('',#1236,#797);
#715=LINE('',#1238,#798);
#716=LINE('',#1239,#799);
#717=LINE('',#1241,#800);
#718=LINE('',#1243,#801);
#719=LINE('',#1245,#802);
#720=LINE('',#1247,#803);
#721=LINE('',#1249,#804);
#722=LINE('',#1251,#805);
#723=LINE('',#1253,#806);
#724=LINE('',#1255,#807);
#725=LINE('',#1257,#808);
#726=LINE('',#1259,#809);
#727=LINE('',#1261,#810);
#728=LINE('',#1262,#811);
#729=LINE('',#1263,#812);
#730=LINE('',#1265,#813);
#731=LINE('',#1275,#814);
#732=LINE('',#1277,#815);
#733=LINE('',#1279,#816);
#734=LINE('',#1281,#817);
#735=LINE('',#1282,#818);
#736=LINE('',#1285,#819);
#737=LINE('',#1288,#820);
#738=LINE('',#1289,#821);
#739=LINE('',#1291,#822);
#740=LINE('',#1293,#823);
#741=LINE('',#1295,#824);
#742=LINE('',#1297,#825);
#743=LINE('',#1300,#826);
#744=LINE('',#1301,#827);
#745=LINE('',#1303,#828);
#746=LINE('',#1308,#829);
#747=LINE('',#1312,#830);
#748=LINE('',#1316,#831);
#749=LINE('',#1319,#832);
#750=LINE('',#1327,#833);
#751=LINE('',#1328,#834);
#752=LINE('',#1334,#835);
#753=LINE('',#1336,#836);
#754=LINE('',#1338,#837);
#755=LINE('',#1340,#838);
#756=LINE('',#1342,#839);
#757=LINE('',#1344,#840);
#758=LINE('',#1346,#841);
#759=LINE('',#1348,#842);
#760=LINE('',#1350,#843);
#761=LINE('',#1352,#844);
#762=LINE('',#1355,#845);
#763=LINE('',#1356,#846);
#764=LINE('',#1367,#847);
#765=LINE('',#1369,#848);
#766=LINE('',#1374,#849);
#767=LINE('',#1377,#850);
#768=LINE('',#1379,#851);
#769=LINE('',#1381,#852);
#770=LINE('',#1383,#853);
#771=LINE('',#1388,#854);
#772=LINE('',#1390,#855);
#773=LINE('',#1392,#856);
#774=LINE('',#1394,#857);
#775=VECTOR('',#936,1.);
#776=VECTOR('',#937,1.);
#777=VECTOR('',#938,1.);
#778=VECTOR('',#939,1.);
#779=VECTOR('',#944,1.);
#780=VECTOR('',#945,1.);
#781=VECTOR('',#946,1.);
#782=VECTOR('',#947,1.);
#783=VECTOR('',#956,1.);
#784=VECTOR('',#959,1.);
#785=VECTOR('',#960,1.);
#786=VECTOR('',#961,1.);
#787=VECTOR('',#962,1.);
#788=VECTOR('',#963,1.);
#789=VECTOR('',#966,1.);
#790=VECTOR('',#967,1.);
#791=VECTOR('',#968,1.);
#792=VECTOR('',#971,1.);
#793=VECTOR('',#974,1.);
#794=VECTOR('',#977,1.);
#795=VECTOR('',#982,1.);
#796=VECTOR('',#983,1.);
#797=VECTOR('',#984,1.);
#798=VECTOR('',#985,1.);
#799=VECTOR('',#986,1.);
#800=VECTOR('',#987,1.);
#801=VECTOR('',#988,1.);
#802=VECTOR('',#989,1.);
#803=VECTOR('',#990,1.);
#804=VECTOR('',#993,1.);
#805=VECTOR('',#994,1.);
#806=VECTOR('',#995,1.);
#807=VECTOR('',#998,1.);
#808=VECTOR('',#999,1.);
#809=VECTOR('',#1000,1.);
#810=VECTOR('',#1001,1.);
#811=VECTOR('',#1002,1.);
#812=VECTOR('',#1003,1.);
#813=VECTOR('',#1004,1.);
#814=VECTOR('',#1015,1.);
#815=VECTOR('',#1018,1.);
#816=VECTOR('',#1019,1.);
#817=VECTOR('',#1020,1.);
#818=VECTOR('',#1021,1.);
#819=VECTOR('',#1026,1.);
#820=VECTOR('',#1027,1.);
#821=VECTOR('',#1028,1.);
#822=VECTOR('',#1031,1.);
#823=VECTOR('',#1032,1.);
#824=VECTOR('',#1033,1.);
#825=VECTOR('',#1036,1.);
#826=VECTOR('',#1037,1.);
#827=VECTOR('',#1038,1.);
#828=VECTOR('',#1041,1.);
#829=VECTOR('',#1044,1.);
#830=VECTOR('',#1047,1.);
#831=VECTOR('',#1050,1.);
#832=VECTOR('',#1053,1.);
#833=VECTOR('',#1064,1.);
#834=VECTOR('',#1065,1.);
#835=VECTOR('',#1076,1.);
#836=VECTOR('',#1077,1.);
#837=VECTOR('',#1078,1.);
#838=VECTOR('',#1081,1.);
#839=VECTOR('',#1082,1.);
#840=VECTOR('',#1083,1.);
#841=VECTOR('',#1086,1.);
#842=VECTOR('',#1087,1.);
#843=VECTOR('',#1088,1.);
#844=VECTOR('',#1091,1.);
#845=VECTOR('',#1092,1.);
#846=VECTOR('',#1093,1.);
#847=VECTOR('',#1114,1.);
#848=VECTOR('',#1115,1.);
#849=VECTOR('',#1122,1.);
#850=VECTOR('',#1127,1.);
#851=VECTOR('',#1128,1.);
#852=VECTOR('',#1131,1.);
#853=VECTOR('',#1132,1.);
#854=VECTOR('',#1141,1.);
#855=VECTOR('',#1142,1.);
#856=VECTOR('',#1145,1.);
#857=VECTOR('',#1146,1.);
#858=AXIS2_PLACEMENT_3D('',#1169,#934,#935);
#859=AXIS2_PLACEMENT_3D('',#1178,#940,#941);
#860=AXIS2_PLACEMENT_3D('',#1179,#942,#943);
#861=AXIS2_PLACEMENT_3D('',#1188,#948,#949);
#862=AXIS2_PLACEMENT_3D('',#1190,#950,#951);
#863=AXIS2_PLACEMENT_3D('',#1192,#952,#953);
#864=AXIS2_PLACEMENT_3D('',#1194,#954,#955);
#865=AXIS2_PLACEMENT_3D('',#1198,#957,#958);
#866=AXIS2_PLACEMENT_3D('',#1210,#964,#965);
#867=AXIS2_PLACEMENT_3D('',#1218,#969,#970);
#868=AXIS2_PLACEMENT_3D('',#1222,#972,#973);
#869=AXIS2_PLACEMENT_3D('',#1226,#975,#976);
#870=AXIS2_PLACEMENT_3D('',#1230,#978,#979);
#871=AXIS2_PLACEMENT_3D('',#1231,#980,#981);
#872=AXIS2_PLACEMENT_3D('',#1248,#991,#992);
#873=AXIS2_PLACEMENT_3D('',#1254,#996,#997);
#874=AXIS2_PLACEMENT_3D('',#1266,#1005,#1006);
#875=AXIS2_PLACEMENT_3D('',#1267,#1007,#1008);
#876=AXIS2_PLACEMENT_3D('',#1269,#1009,#1010);
#877=AXIS2_PLACEMENT_3D('',#1271,#1011,#1012);
#878=AXIS2_PLACEMENT_3D('',#1273,#1013,#1014);
#879=AXIS2_PLACEMENT_3D('',#1276,#1016,#1017);
#880=AXIS2_PLACEMENT_3D('',#1283,#1022,#1023);
#881=AXIS2_PLACEMENT_3D('',#1284,#1024,#1025);
#882=AXIS2_PLACEMENT_3D('',#1290,#1029,#1030);
#883=AXIS2_PLACEMENT_3D('',#1296,#1034,#1035);
#884=AXIS2_PLACEMENT_3D('',#1302,#1039,#1040);
#885=AXIS2_PLACEMENT_3D('',#1306,#1042,#1043);
#886=AXIS2_PLACEMENT_3D('',#1310,#1045,#1046);
#887=AXIS2_PLACEMENT_3D('',#1314,#1048,#1049);
#888=AXIS2_PLACEMENT_3D('',#1318,#1051,#1052);
#889=AXIS2_PLACEMENT_3D('',#1322,#1054,#1055);
#890=AXIS2_PLACEMENT_3D('',#1323,#1056,#1057);
#891=AXIS2_PLACEMENT_3D('',#1324,#1058,#1059);
#892=AXIS2_PLACEMENT_3D('',#1325,#1060,#1061);
#893=AXIS2_PLACEMENT_3D('',#1326,#1062,#1063);
#894=AXIS2_PLACEMENT_3D('',#1329,#1066,#1067);
#895=AXIS2_PLACEMENT_3D('',#1330,#1068,#1069);
#896=AXIS2_PLACEMENT_3D('',#1331,#1070,#1071);
#897=AXIS2_PLACEMENT_3D('',#1332,#1072,#1073);
#898=AXIS2_PLACEMENT_3D('',#1333,#1074,#1075);
#899=AXIS2_PLACEMENT_3D('',#1339,#1079,#1080);
#900=AXIS2_PLACEMENT_3D('',#1345,#1084,#1085);
#901=AXIS2_PLACEMENT_3D('',#1351,#1089,#1090);
#902=AXIS2_PLACEMENT_3D('',#1357,#1094,#1095);
#903=AXIS2_PLACEMENT_3D('',#1358,#1096,#1097);
#904=AXIS2_PLACEMENT_3D('',#1359,#1098,#1099);
#905=AXIS2_PLACEMENT_3D('',#1360,#1100,#1101);
#906=AXIS2_PLACEMENT_3D('',#1361,#1102,#1103);
#907=AXIS2_PLACEMENT_3D('',#1362,#1104,#1105);
#908=AXIS2_PLACEMENT_3D('',#1363,#1106,#1107);
#909=AXIS2_PLACEMENT_3D('',#1364,#1108,#1109);
#910=AXIS2_PLACEMENT_3D('',#1365,#1110,#1111);
#911=AXIS2_PLACEMENT_3D('',#1366,#1112,#1113);
#912=AXIS2_PLACEMENT_3D('',#1370,#1116,#1117);
#913=AXIS2_PLACEMENT_3D('',#1371,#1118,#1119);
#914=AXIS2_PLACEMENT_3D('',#1373,#1120,#1121);
#915=AXIS2_PLACEMENT_3D('',#1375,#1123,#1124);
#916=AXIS2_PLACEMENT_3D('',#1376,#1125,#1126);
#917=AXIS2_PLACEMENT_3D('',#1380,#1129,#1130);
#918=AXIS2_PLACEMENT_3D('',#1384,#1133,#1134);
#919=AXIS2_PLACEMENT_3D('',#1385,#1135,#1136);
#920=AXIS2_PLACEMENT_3D('',#1386,#1137,#1138);
#921=AXIS2_PLACEMENT_3D('',#1387,#1139,#1140);
#922=AXIS2_PLACEMENT_3D('',#1391,#1143,#1144);
#923=AXIS2_PLACEMENT_3D('',#1395,#1147,#1148);
#924=AXIS2_PLACEMENT_3D('',#1396,#1149,#1150);
#925=AXIS2_PLACEMENT_3D('',#1397,#1151,#1152);
#926=AXIS2_PLACEMENT_3D('',#1398,#1153,#1154);
#927=AXIS2_PLACEMENT_3D('',#1399,#1155,#1156);
#928=AXIS2_PLACEMENT_3D('',#1401,#1157,#1158);
#929=AXIS2_PLACEMENT_3D('',#1402,#1159,#1160);
#930=AXIS2_PLACEMENT_3D('',#1403,#1161,#1162);
#931=AXIS2_PLACEMENT_3D('',#1404,#1163,#1164);
#932=AXIS2_PLACEMENT_3D('',#1405,#1165,#1166);
#933=AXIS2_PLACEMENT_3D('',#1406,#1167,#1168);
#934=DIRECTION('',(0.,0.,1.));
#935=DIRECTION('',(1.,0.,0.));
#936=DIRECTION('',(0.,-1.,0.));
#937=DIRECTION('',(0.,0.,-1.));
#938=DIRECTION('',(0.,1.,0.));
#939=DIRECTION('',(0.,0.,1.));
#940=DIRECTION('',(-1.,0.,0.));
#941=DIRECTION('',(0.,0.,1.));
#942=DIRECTION('',(0.,0.,1.));
#943=DIRECTION('',(1.,0.,0.));
#944=DIRECTION('',(1.,0.,0.));
#945=DIRECTION('',(0.,-1.,0.));
#946=DIRECTION('',(-1.,0.,0.));
#947=DIRECTION('',(0.,-1.,0.));
#948=DIRECTION('',(0.,0.,1.));
#949=DIRECTION('',(1.,0.,0.));
#950=DIRECTION('',(0.,0.,1.));
#951=DIRECTION('',(1.,0.,0.));
#952=DIRECTION('',(0.,0.,1.));
#953=DIRECTION('',(1.,0.,0.));
#954=DIRECTION('',(0.,0.,1.));
#955=DIRECTION('',(1.,0.,0.));
#956=DIRECTION('',(1.,0.,0.));
#957=DIRECTION('',(0.,0.,-1.));
#958=DIRECTION('',(0.999999999999999,0.,0.));
#959=DIRECTION('',(0.,-1.,0.));
#960=DIRECTION('',(1.,0.,0.));
#961=DIRECTION('',(0.,1.,0.));
#962=DIRECTION('',(-1.,0.,0.));
#963=DIRECTION('',(0.,-1.,0.));
#964=DIRECTION('',(0.,0.,-1.));
#965=DIRECTION('',(1.,0.,0.));
#966=DIRECTION('',(-1.,0.,0.));
#967=DIRECTION('',(0.,-1.,0.));
#968=DIRECTION('',(1.,0.,0.));
#969=DIRECTION('',(0.,0.,-1.));
#970=DIRECTION('',(1.,0.,0.));
#971=DIRECTION('',(0.,-1.,0.));
#972=DIRECTION('',(0.,0.,-1.));
#973=DIRECTION('',(1.,0.,0.));
#974=DIRECTION('',(-1.,0.,0.));
#975=DIRECTION('',(0.,0.,-1.));
#976=DIRECTION('',(1.,0.,0.));
#977=DIRECTION('',(0.,1.,0.));
#978=DIRECTION('',(0.,0.,-1.));
#979=DIRECTION('',(1.,0.,0.));
#980=DIRECTION('',(0.,0.,1.));
#981=DIRECTION('',(1.,0.,0.));
#982=DIRECTION('',(0.,0.,1.));
#983=DIRECTION('',(0.,0.,1.));
#984=DIRECTION('',(1.,0.,0.));
#985=DIRECTION('',(0.,0.,-1.));
#986=DIRECTION('',(-0.707106781186548,0.,-0.707106781186548));
#987=DIRECTION('',(0.,0.,1.));
#988=DIRECTION('',(1.,0.,0.));
#989=DIRECTION('',(0.,0.,1.));
#990=DIRECTION('',(1.,0.,0.));
#991=DIRECTION('',(0.,-1.,0.));
#992=DIRECTION('',(0.,0.,-1.));
#993=DIRECTION('',(0.,1.,0.));
#994=DIRECTION('',(0.,0.,1.));
#995=DIRECTION('',(0.,-1.,0.));
#996=DIRECTION('',(-1.,0.,0.));
#997=DIRECTION('',(0.,0.,1.));
#998=DIRECTION('',(0.,0.,1.));
#999=DIRECTION('',(-1.,0.,0.));
#1000=DIRECTION('',(0.,0.,1.));
#1001=DIRECTION('',(-1.,0.,0.));
#1002=DIRECTION('',(0.707106781186548,0.,0.707106781186548));
#1003=DIRECTION('',(-1.,0.,0.));
#1004=DIRECTION('',(0.,0.,-1.));
#1005=DIRECTION('',(0.,1.,0.));
#1006=DIRECTION('',(0.,0.,1.));
#1007=DIRECTION('',(0.,0.,-1.));
#1008=DIRECTION('',(-1.,0.,0.));
#1009=DIRECTION('',(0.,0.,-1.));
#1010=DIRECTION('',(-1.,0.,0.));
#1011=DIRECTION('',(0.,0.,-1.));
#1012=DIRECTION('',(-1.,0.,0.));
#1013=DIRECTION('',(0.,0.,-1.));
#1014=DIRECTION('',(-1.,0.,0.));
#1015=DIRECTION('',(0.,1.,0.));
#1016=DIRECTION('',(0.,0.,-1.));
#1017=DIRECTION('',(-1.,0.,0.));
#1018=DIRECTION('',(0.,0.,1.));
#1019=DIRECTION('',(0.,0.,1.));
#1020=DIRECTION('',(0.,1.,0.));
#1021=DIRECTION('',(0.,1.,0.));
#1022=DIRECTION('',(1.,0.,0.));
#1023=DIRECTION('',(0.,0.,-1.));
#1024=DIRECTION('',(0.707106781186547,0.,-0.707106781186547));
#1025=DIRECTION('',(0.,1.,0.));
#1026=DIRECTION('',(-1.,0.,0.));
#1027=DIRECTION('',(0.,0.,1.));
#1028=DIRECTION('',(0.,0.,-1.));
#1029=DIRECTION('',(0.,-1.,0.));
#1030=DIRECTION('',(0.,0.,-1.));
#1031=DIRECTION('',(0.,0.,-1.));
#1032=DIRECTION('',(0.,1.,0.));
#1033=DIRECTION('',(0.,0.,1.));
#1034=DIRECTION('',(-1.,0.,0.));
#1035=DIRECTION('',(0.,0.,1.));
#1036=DIRECTION('',(1.,0.,0.));
#1037=DIRECTION('',(0.,0.,1.));
#1038=DIRECTION('',(0.,0.,-1.));
#1039=DIRECTION('',(0.,1.,0.));
#1040=DIRECTION('',(0.,0.,1.));
#1041=DIRECTION('',(1.,0.,0.));
#1042=DIRECTION('',(0.,0.,-1.));
#1043=DIRECTION('',(-0.999999999999999,0.,0.));
#1044=DIRECTION('',(0.,-1.,0.));
#1045=DIRECTION('',(0.,0.,-1.));
#1046=DIRECTION('',(-0.999999999999999,0.,0.));
#1047=DIRECTION('',(-1.,0.,0.));
#1048=DIRECTION('',(0.,0.,-1.));
#1049=DIRECTION('',(-0.999999999999999,0.,0.));
#1050=DIRECTION('',(0.,1.,0.));
#1051=DIRECTION('',(0.,0.,-1.));
#1052=DIRECTION('',(-0.999999999999999,0.,0.));
#1053=DIRECTION('',(0.,-1.,0.));
#1054=DIRECTION('',(0.,0.,1.));
#1055=DIRECTION('',(-1.,0.,0.));
#1056=DIRECTION('',(0.,0.,1.));
#1057=DIRECTION('',(-1.,0.,0.));
#1058=DIRECTION('',(0.,0.,1.));
#1059=DIRECTION('',(-1.,0.,0.));
#1060=DIRECTION('',(0.,0.,1.));
#1061=DIRECTION('',(-1.,0.,0.));
#1062=DIRECTION('',(0.,0.,-1.));
#1063=DIRECTION('',(-1.,0.,0.));
#1064=DIRECTION('',(0.,0.,-1.));
#1065=DIRECTION('',(0.,0.,1.));
#1066=DIRECTION('',(1.,0.,0.));
#1067=DIRECTION('',(0.,0.,-1.));
#1068=DIRECTION('',(0.,0.,1.));
#1069=DIRECTION('',(1.,0.,0.));
#1070=DIRECTION('',(0.,0.,1.));
#1071=DIRECTION('',(1.,0.,0.));
#1072=DIRECTION('',(0.,0.,1.));
#1073=DIRECTION('',(1.,0.,0.));
#1074=DIRECTION('',(0.,0.,1.));
#1075=DIRECTION('',(1.,0.,0.));
#1076=DIRECTION('',(0.,0.,-1.));
#1077=DIRECTION('',(-1.,0.,0.));
#1078=DIRECTION('',(0.,0.,1.));
#1079=DIRECTION('',(0.,-1.,0.));
#1080=DIRECTION('',(0.,0.,-1.));
#1081=DIRECTION('',(0.,0.,-1.));
#1082=DIRECTION('',(0.,1.,0.));
#1083=DIRECTION('',(0.,0.,1.));
#1084=DIRECTION('',(-1.,0.,0.));
#1085=DIRECTION('',(0.,0.,1.));
#1086=DIRECTION('',(0.,0.,-1.));
#1087=DIRECTION('',(1.,0.,0.));
#1088=DIRECTION('',(0.,0.,1.));
#1089=DIRECTION('',(0.,1.,0.));
#1090=DIRECTION('',(0.,0.,1.));
#1091=DIRECTION('',(0.,-1.,0.));
#1092=DIRECTION('',(0.,0.,1.));
#1093=DIRECTION('',(0.,0.,-1.));
#1094=DIRECTION('',(1.,0.,0.));
#1095=DIRECTION('',(0.,0.,-1.));
#1096=DIRECTION('',(0.,0.,1.));
#1097=DIRECTION('',(-0.999999999999999,0.,0.));
#1098=DIRECTION('',(0.,0.,1.));
#1099=DIRECTION('',(-0.999999999999999,0.,0.));
#1100=DIRECTION('',(0.,0.,1.));
#1101=DIRECTION('',(-0.999999999999999,0.,0.));
#1102=DIRECTION('',(0.,0.,1.));
#1103=DIRECTION('',(-0.999999999999999,0.,0.));
#1104=DIRECTION('',(0.,0.,-1.));
#1105=DIRECTION('',(-1.,0.,0.));
#1106=DIRECTION('',(0.,0.,1.));
#1107=DIRECTION('',(0.999999999999999,0.,0.));
#1108=DIRECTION('',(0.,0.,1.));
#1109=DIRECTION('',(0.999999999999999,0.,0.));
#1110=DIRECTION('',(0.,0.,1.));
#1111=DIRECTION('',(0.999999999999999,0.,0.));
#1112=DIRECTION('',(0.,0.,1.));
#1113=DIRECTION('',(0.999999999999999,0.,0.));
#1114=DIRECTION('',(0.,1.,0.));
#1115=DIRECTION('',(0.,0.,1.));
#1116=DIRECTION('',(-1.,0.,0.));
#1117=DIRECTION('',(0.,0.,1.));
#1118=DIRECTION('',(0.,0.,-1.));
#1119=DIRECTION('',(-1.,0.,0.));
#1120=DIRECTION('',(0.,0.,-1.));
#1121=DIRECTION('',(-1.,0.,0.));
#1122=DIRECTION('',(0.,-1.,0.));
#1123=DIRECTION('',(0.,0.,-1.));
#1124=DIRECTION('',(-1.,0.,0.));
#1125=DIRECTION('',(1.,0.,0.));
#1126=DIRECTION('',(0.,0.,-1.));
#1127=DIRECTION('',(0.,1.,0.));
#1128=DIRECTION('',(0.,0.,1.));
#1129=DIRECTION('',(-1.,0.,0.));
#1130=DIRECTION('',(0.,0.,1.));
#1131=DIRECTION('',(0.,0.,-1.));
#1132=DIRECTION('',(1.,0.,0.));
#1133=DIRECTION('',(0.,1.,0.));
#1134=DIRECTION('',(0.,0.,1.));
#1135=DIRECTION('',(0.,0.,1.));
#1136=DIRECTION('',(-1.,0.,0.));
#1137=DIRECTION('',(0.,0.,-1.));
#1138=DIRECTION('',(-1.,0.,0.));
#1139=DIRECTION('',(0.,0.,1.));
#1140=DIRECTION('',(1.,0.,0.));
#1141=DIRECTION('',(-1.,0.,0.));
#1142=DIRECTION('',(0.,0.,1.));
#1143=DIRECTION('',(0.,-1.,0.));
#1144=DIRECTION('',(0.,0.,-1.));
#1145=DIRECTION('',(0.,0.,-1.));
#1146=DIRECTION('',(0.,1.,0.));
#1147=DIRECTION('',(-1.,0.,0.));
#1148=DIRECTION('',(0.,0.,1.));
#1149=DIRECTION('',(0.,0.,1.));
#1150=DIRECTION('',(-0.999999999999999,0.,0.));
#1151=DIRECTION('',(0.,0.,-1.));
#1152=DIRECTION('',(-1.,0.,0.));
#1153=DIRECTION('',(0.,0.,1.));
#1154=DIRECTION('',(0.999999999999999,0.,0.));
#1155=DIRECTION('',(0.,0.,-1.));
#1156=DIRECTION('',(1.,0.,0.));
#1157=DIRECTION('',(0.,0.,-1.));
#1158=DIRECTION('',(1.,0.,0.));
#1159=DIRECTION('',(0.,0.,-1.));
#1160=DIRECTION('',(-1.,0.,0.));
#1161=DIRECTION('',(0.,0.,-1.));
#1162=DIRECTION('',(1.,0.,0.));
#1163=DIRECTION('',(0.,0.,-1.));
#1164=DIRECTION('',(1.,0.,0.));
#1165=DIRECTION('',(0.,0.,-1.));
#1166=DIRECTION('',(1.,0.,0.));
#1167=DIRECTION('',(0.,0.,-1.));
#1168=DIRECTION('',(1.,0.,0.));
#1169=CARTESIAN_POINT('',(0.,0.,0.));
#1170=CARTESIAN_POINT('',(65.,240.4,76.9));
#1171=CARTESIAN_POINT('',(65.,480.8,76.9));
#1172=CARTESIAN_POINT('',(65.,334.70196040753,76.9));
#1173=CARTESIAN_POINT('',(65.,334.70196040753,76.95));
#1174=CARTESIAN_POINT('',(65.,334.70196040753,39.));
#1175=CARTESIAN_POINT('',(65.,240.4,39.));
#1176=CARTESIAN_POINT('',(65.,480.8,39.));
#1177=CARTESIAN_POINT('',(65.,480.8,0.));
#1178=CARTESIAN_POINT('',(65.,240.4,39.));
#1179=CARTESIAN_POINT('',(70.9,329.6,76.9));
#1180=CARTESIAN_POINT('',(65.,324.49803959247,76.9));
#1181=CARTESIAN_POINT('',(115.5,480.8,76.9));
#1182=CARTESIAN_POINT('',(3.60000000000001,480.8,76.9));
#1183=CARTESIAN_POINT('',(3.60000000000001,240.4,76.9));
#1184=CARTESIAN_POINT('',(3.60000000000001,0.,76.9));
#1185=CARTESIAN_POINT('',(115.5,0.,76.9));
#1186=CARTESIAN_POINT('',(65.,0.,76.9));
#1187=CARTESIAN_POINT('',(65.,240.4,76.9));
#1188=CARTESIAN_POINT('',(54.5,361.8,76.9));
#1189=CARTESIAN_POINT('',(59.3,361.8,76.9));
#1190=CARTESIAN_POINT('',(11.5,436.9,76.9));
#1191=CARTESIAN_POINT('',(19.,436.9,76.9));
#1192=CARTESIAN_POINT('',(57.1,456.2,76.9));
#1193=CARTESIAN_POINT('',(62.8,456.2,76.9));
#1194=CARTESIAN_POINT('',(115.5,240.4,76.9));
#1195=CARTESIAN_POINT('',(115.5,355.1,76.9));
#1196=CARTESIAN_POINT('',(205.1,355.1,76.9));
#1197=CARTESIAN_POINT('',(231.,355.1,76.9));
#1198=CARTESIAN_POINT('',(205.1,366.5,76.9));
#1199=CARTESIAN_POINT('',(193.7,366.5,76.9));
#1200=CARTESIAN_POINT('',(193.7,240.4,76.9));
#1201=CARTESIAN_POINT('',(193.7,480.8,76.9));
#1202=CARTESIAN_POINT('',(115.5,480.8,76.9));
#1203=CARTESIAN_POINT('',(87.1,480.8,76.9));
#1204=CARTESIAN_POINT('',(87.1,240.4,76.9));
#1205=CARTESIAN_POINT('',(87.1,0.,76.9));
#1206=CARTESIAN_POINT('',(115.5,0.,76.9));
#1207=CARTESIAN_POINT('',(185.8,0.,76.9));
#1208=CARTESIAN_POINT('',(185.8,240.4,76.9));
#1209=CARTESIAN_POINT('',(185.8,74.1,76.9));
#1210=CARTESIAN_POINT('',(200.2,74.1,76.9));
#1211=CARTESIAN_POINT('',(200.2,88.5,76.9));
#1212=CARTESIAN_POINT('',(115.5,88.5,76.9));
#1213=CARTESIAN_POINT('',(231.,88.5,76.9));
#1214=CARTESIAN_POINT('',(231.,240.4,76.9));
#1215=CARTESIAN_POINT('',(115.5,191.5,76.9));
#1216=CARTESIAN_POINT('',(126.,191.5,76.9));
#1217=CARTESIAN_POINT('',(184.9,191.5,76.9));
#1218=CARTESIAN_POINT('',(126.,198.,76.9));
#1219=CARTESIAN_POINT('',(119.5,198.,76.9));
#1220=CARTESIAN_POINT('',(119.5,240.4,76.9));
#1221=CARTESIAN_POINT('',(119.5,377.7,76.9));
#1222=CARTESIAN_POINT('',(126.,377.7,76.9));
#1223=CARTESIAN_POINT('',(126.,384.2,76.9));
#1224=CARTESIAN_POINT('',(115.5,384.2,76.9));
#1225=CARTESIAN_POINT('',(184.9,384.2,76.9));
#1226=CARTESIAN_POINT('',(184.9,377.7,76.9));
#1227=CARTESIAN_POINT('',(191.4,377.7,76.9));
#1228=CARTESIAN_POINT('',(191.4,240.4,76.9));
#1229=CARTESIAN_POINT('',(191.4,198.,76.9));
#1230=CARTESIAN_POINT('',(184.9,198.,76.9));
#1231=CARTESIAN_POINT('',(115.5,240.4,76.9));
#1232=CARTESIAN_POINT('',(185.8,0.,39.6));
#1233=CARTESIAN_POINT('',(185.8,0.,39.6));
#1234=CARTESIAN_POINT('',(87.1,0.,0.));
#1235=CARTESIAN_POINT('',(87.1,0.,39.));
#1236=CARTESIAN_POINT('',(115.5,0.,39.));
#1237=CARTESIAN_POINT('',(65.,0.,39.));
#1238=CARTESIAN_POINT('',(65.,0.,0.));
#1239=CARTESIAN_POINT('',(21.1,0.,94.4));
#1240=CARTESIAN_POINT('',(0.,0.,73.3));
#1241=CARTESIAN_POINT('',(0.,0.,0.));
#1242=CARTESIAN_POINT('',(0.,0.,0.));
#1243=CARTESIAN_POINT('',(115.5,0.,0.));
#1244=CARTESIAN_POINT('',(231.,0.,0.));
#1245=CARTESIAN_POINT('',(231.,0.,0.));
#1246=CARTESIAN_POINT('',(231.,0.,39.6));
#1247=CARTESIAN_POINT('',(208.4,0.,39.6));
#1248=CARTESIAN_POINT('',(115.5,0.,0.));
#1249=CARTESIAN_POINT('',(0.,240.4,73.3));
#1250=CARTESIAN_POINT('',(0.,480.8,73.3));
#1251=CARTESIAN_POINT('',(0.,480.8,0.));
#1252=CARTESIAN_POINT('',(0.,480.8,0.));
#1253=CARTESIAN_POINT('',(0.,240.4,0.));
#1254=CARTESIAN_POINT('',(0.,240.4,0.));
#1255=CARTESIAN_POINT('',(193.7,480.8,39.));
#1256=CARTESIAN_POINT('',(193.7,480.8,39.));
#1257=CARTESIAN_POINT('',(212.35,480.8,39.));
#1258=CARTESIAN_POINT('',(231.,480.8,39.));
#1259=CARTESIAN_POINT('',(231.,480.8,0.));
#1260=CARTESIAN_POINT('',(231.,480.8,0.));
#1261=CARTESIAN_POINT('',(115.5,480.8,0.));
#1262=CARTESIAN_POINT('',(21.1,480.8,94.4));
#1263=CARTESIAN_POINT('',(115.5,480.8,39.));
#1264=CARTESIAN_POINT('',(87.1,480.8,39.));
#1265=CARTESIAN_POINT('',(87.1,480.8,0.));
#1266=CARTESIAN_POINT('',(115.5,480.8,0.));
#1267=CARTESIAN_POINT('',(70.9,329.6,0.));
#1268=CARTESIAN_POINT('',(63.1,329.6,0.));
#1269=CARTESIAN_POINT('',(54.5,361.8,0.));
#1270=CARTESIAN_POINT('',(49.7,361.8,0.));
#1271=CARTESIAN_POINT('',(11.5,436.9,0.));
#1272=CARTESIAN_POINT('',(4.,436.9,0.));
#1273=CARTESIAN_POINT('',(57.1,456.2,0.));
#1274=CARTESIAN_POINT('',(51.4,456.2,0.));
#1275=CARTESIAN_POINT('',(231.,240.4,0.));
#1276=CARTESIAN_POINT('',(115.5,240.4,0.));
#1277=CARTESIAN_POINT('',(231.,355.1,39.));
#1278=CARTESIAN_POINT('',(231.,355.1,39.));
#1279=CARTESIAN_POINT('',(231.,88.5,39.6));
#1280=CARTESIAN_POINT('',(231.,88.5,39.6));
#1281=CARTESIAN_POINT('',(231.,44.25,39.6));
#1282=CARTESIAN_POINT('',(231.,417.95,39.));
#1283=CARTESIAN_POINT('',(231.,240.4,0.));
#1284=CARTESIAN_POINT('',(0.,240.4,73.3));
#1285=CARTESIAN_POINT('',(155.45,191.5,49.9));
#1286=CARTESIAN_POINT('',(184.9,191.5,49.9));
#1287=CARTESIAN_POINT('',(126.,191.5,49.9));
#1288=CARTESIAN_POINT('',(126.,191.5,76.9));
#1289=CARTESIAN_POINT('',(184.9,191.5,49.9));
#1290=CARTESIAN_POINT('',(155.45,191.5,49.9));
#1291=CARTESIAN_POINT('',(119.5,198.,49.9));
#1292=CARTESIAN_POINT('',(119.5,198.,49.9));
#1293=CARTESIAN_POINT('',(119.5,287.85,49.9));
#1294=CARTESIAN_POINT('',(119.5,377.7,49.9));
#1295=CARTESIAN_POINT('',(119.5,377.7,76.9));
#1296=CARTESIAN_POINT('',(119.5,287.85,49.9));
#1297=CARTESIAN_POINT('',(155.45,384.2,49.9));
#1298=CARTESIAN_POINT('',(126.,384.2,49.9));
#1299=CARTESIAN_POINT('',(184.9,384.2,49.9));
#1300=CARTESIAN_POINT('',(184.9,384.2,76.9));
#1301=CARTESIAN_POINT('',(126.,384.2,49.9));
#1302=CARTESIAN_POINT('',(155.45,384.2,49.9));
#1303=CARTESIAN_POINT('',(155.45,284.4,49.9));
#1304=CARTESIAN_POINT('',(141.7,284.4,49.9));
#1305=CARTESIAN_POINT('',(156.2,284.4,49.9));
#1306=CARTESIAN_POINT('',(156.2,276.,49.9));
#1307=CARTESIAN_POINT('',(164.6,276.,49.9));
#1308=CARTESIAN_POINT('',(164.6,287.85,49.9));
#1309=CARTESIAN_POINT('',(164.6,233.1,49.9));
#1310=CARTESIAN_POINT('',(156.2,233.1,49.9));
#1311=CARTESIAN_POINT('',(156.2,224.7,49.9));
#1312=CARTESIAN_POINT('',(155.45,224.7,49.9));
#1313=CARTESIAN_POINT('',(141.7,224.7,49.9));
#1314=CARTESIAN_POINT('',(141.7,233.1,49.9));
#1315=CARTESIAN_POINT('',(133.3,233.1,49.9));
#1316=CARTESIAN_POINT('',(133.3,287.85,49.9));
#1317=CARTESIAN_POINT('',(133.3,276.,49.9));
#1318=CARTESIAN_POINT('',(141.7,276.,49.9));
#1319=CARTESIAN_POINT('',(191.4,287.85,49.9));
#1320=CARTESIAN_POINT('',(191.4,377.7,49.9));
#1321=CARTESIAN_POINT('',(191.4,198.,49.9));
#1322=CARTESIAN_POINT('',(184.9,377.7,49.9));
#1323=CARTESIAN_POINT('',(126.,377.7,49.9));
#1324=CARTESIAN_POINT('',(126.,198.,49.9));
#1325=CARTESIAN_POINT('',(184.9,198.,49.9));
#1326=CARTESIAN_POINT('',(155.45,287.85,49.9));
#1327=CARTESIAN_POINT('',(191.4,377.7,49.9));
#1328=CARTESIAN_POINT('',(191.4,198.,76.9));
#1329=CARTESIAN_POINT('',(191.4,287.85,49.9));
#1330=CARTESIAN_POINT('',(184.9,377.7,49.9));
#1331=CARTESIAN_POINT('',(126.,198.,49.9));
#1332=CARTESIAN_POINT('',(126.,377.7,49.9));
#1333=CARTESIAN_POINT('',(184.9,198.,49.9));
#1334=CARTESIAN_POINT('',(156.2,224.7,39.));
#1335=CARTESIAN_POINT('',(156.2,224.7,39.));
#1336=CARTESIAN_POINT('',(148.95,224.7,39.));
#1337=CARTESIAN_POINT('',(141.7,224.7,39.));
#1338=CARTESIAN_POINT('',(141.7,224.7,49.9));
#1339=CARTESIAN_POINT('',(148.95,224.7,39.));
#1340=CARTESIAN_POINT('',(133.3,233.1,39.));
#1341=CARTESIAN_POINT('',(133.3,233.1,39.));
#1342=CARTESIAN_POINT('',(133.3,254.55,39.));
#1343=CARTESIAN_POINT('',(133.3,276.,39.));
#1344=CARTESIAN_POINT('',(133.3,276.,49.9));
#1345=CARTESIAN_POINT('',(133.3,254.55,39.));
#1346=CARTESIAN_POINT('',(141.7,284.4,39.));
#1347=CARTESIAN_POINT('',(141.7,284.4,39.));
#1348=CARTESIAN_POINT('',(148.95,284.4,39.));
#1349=CARTESIAN_POINT('',(156.2,284.4,39.));
#1350=CARTESIAN_POINT('',(156.2,284.4,49.9));
#1351=CARTESIAN_POINT('',(148.95,284.4,39.));
#1352=CARTESIAN_POINT('',(164.6,254.55,39.));
#1353=CARTESIAN_POINT('',(164.6,276.,39.));
#1354=CARTESIAN_POINT('',(164.6,233.1,39.));
#1355=CARTESIAN_POINT('',(164.6,233.1,49.9));
#1356=CARTESIAN_POINT('',(164.6,276.,39.));
#1357=CARTESIAN_POINT('',(164.6,254.55,39.));
#1358=CARTESIAN_POINT('',(156.2,233.1,39.));
#1359=CARTESIAN_POINT('',(156.2,276.,39.));
#1360=CARTESIAN_POINT('',(141.7,276.,39.));
#1361=CARTESIAN_POINT('',(141.7,233.1,39.));
#1362=CARTESIAN_POINT('',(148.95,254.55,39.));
#1363=CARTESIAN_POINT('',(156.2,233.1,39.));
#1364=CARTESIAN_POINT('',(141.7,233.1,39.));
#1365=CARTESIAN_POINT('',(141.7,276.,39.));
#1366=CARTESIAN_POINT('',(156.2,276.,39.));
#1367=CARTESIAN_POINT('',(65.,240.4,39.));
#1368=CARTESIAN_POINT('',(65.,324.49803959247,39.));
#1369=CARTESIAN_POINT('',(65.,324.49803959247,76.95));
#1370=CARTESIAN_POINT('',(65.,240.4,39.));
#1371=CARTESIAN_POINT('',(73.7,26.3,39.));
#1372=CARTESIAN_POINT('',(69.2,26.3,39.));
#1373=CARTESIAN_POINT('',(70.9,329.6,39.));
#1374=CARTESIAN_POINT('',(87.1,240.4,39.));
#1375=CARTESIAN_POINT('',(76.05,240.4,39.));
#1376=CARTESIAN_POINT('',(87.1,240.4,39.));
#1377=CARTESIAN_POINT('',(185.8,44.25,39.6));
#1378=CARTESIAN_POINT('',(185.8,74.1,39.6));
#1379=CARTESIAN_POINT('',(185.8,74.1,76.9));
#1380=CARTESIAN_POINT('',(185.8,44.25,39.6));
#1381=CARTESIAN_POINT('',(200.2,88.5,39.6));
#1382=CARTESIAN_POINT('',(200.2,88.5,39.6));
#1383=CARTESIAN_POINT('',(208.4,88.5,39.6));
#1384=CARTESIAN_POINT('',(208.4,88.5,39.6));
#1385=CARTESIAN_POINT('',(200.2,74.1,39.6));
#1386=CARTESIAN_POINT('',(208.4,44.25,39.6));
#1387=CARTESIAN_POINT('',(200.2,74.1,39.6));
#1388=CARTESIAN_POINT('',(212.35,355.1,39.));
#1389=CARTESIAN_POINT('',(205.1,355.1,39.));
#1390=CARTESIAN_POINT('',(205.1,355.1,76.9));
#1391=CARTESIAN_POINT('',(212.35,355.1,39.));
#1392=CARTESIAN_POINT('',(193.7,366.5,39.));
#1393=CARTESIAN_POINT('',(193.7,366.5,39.));
#1394=CARTESIAN_POINT('',(193.7,417.95,39.));
#1395=CARTESIAN_POINT('',(193.7,417.95,39.));
#1396=CARTESIAN_POINT('',(205.1,366.5,39.));
#1397=CARTESIAN_POINT('',(212.35,417.95,39.));
#1398=CARTESIAN_POINT('',(205.1,366.5,39.));
#1399=CARTESIAN_POINT('',(73.7,26.3,38.));
#1400=CARTESIAN_POINT('',(78.2,26.3,38.));
#1401=CARTESIAN_POINT('',(73.7,26.3,76.95));
#1402=CARTESIAN_POINT('',(73.7,26.3,38.));
#1403=CARTESIAN_POINT('',(57.1,456.2,76.95));
#1404=CARTESIAN_POINT('',(11.5,436.9,76.95));
#1405=CARTESIAN_POINT('',(54.5,361.8,76.95));
#1406=CARTESIAN_POINT('',(70.9,329.6,76.95));
#1407=MECHANICAL_DESIGN_GEOMETRIC_PRESENTATION_REPRESENTATION('',(#24),
#1408);
#1408=(
GEOMETRIC_REPRESENTATION_CONTEXT(3)
GLOBAL_UNCERTAINTY_ASSIGNED_CONTEXT((#1409))
GLOBAL_UNIT_ASSIGNED_CONTEXT((#1415,#1411,#1410))
REPRESENTATION_CONTEXT('featured_part_01451','TOP_LEVEL_ASSEMBLY_PART')
);
#1409=UNCERTAINTY_MEASURE_WITH_UNIT(LENGTH_MEASURE(2.E-5),#1415,
'DISTANCE_ACCURACY_VALUE','Maximum Tolerance applied to model');
#1410=(
NAMED_UNIT(*)
SI_UNIT($,.STERADIAN.)
SOLID_ANGLE_UNIT()
);
#1411=(
CONVERSION_BASED_UNIT('DEGREE',#1413)
NAMED_UNIT(#1412)
PLANE_ANGLE_UNIT()
);
#1412=DIMENSIONAL_EXPONENTS(0.,0.,0.,0.,0.,0.,0.);
#1413=PLANE_ANGLE_MEASURE_WITH_UNIT(PLANE_ANGLE_MEASURE(0.0174532925),#1414);
#1414=(
NAMED_UNIT(*)
PLANE_ANGLE_UNIT()
SI_UNIT($,.RADIAN.)
);
#1415=(
LENGTH_UNIT()
NAMED_UNIT(*)
SI_UNIT(.MILLI.,.METRE.)
);
ENDSEC;
END-ISO-10303-21;
