ISO-10303-21;
HEADER;
/* Generated by software containing ST-Developer
 * from STEP Tools, Inc. (www.steptools.com) 
 */
/* OPTION: using custom schema-name function */

FILE_DESCRIPTION(
/* description */ (''),
/* implementation_level */ '2;1');

FILE_NAME(
/* name */ 'featured_part_10483.stp',
/* time_stamp */ '2026-07-16T08:17:34-04:00',
/* author */ (''),
/* organization */ (''),
/* preprocessor_version */ 'ST-DEVELOPER v20.1',
/* originating_system */ 'SIEMENS PLM Software NX2512.6002',
/* authorisation */ '');

FILE_SCHEMA (('AUTOMOTIVE_DESIGN { 1 0 10303 214 3 1 1 1 }'));
ENDSEC;

DATA;
#10=SHAPE_REPRESENTATION_RELATIONSHIP('None',
'relationship between featured_part_10483-None and featured_part_10483
-None',#22,#11);
#11=ADVANCED_BREP_SHAPE_REPRESENTATION('featured_part_10483-None',(#32),
#695);
#12=SHAPE_DEFINITION_REPRESENTATION(#13,#22);
#13=PRODUCT_DEFINITION_SHAPE('','',#14);
#14=PRODUCT_DEFINITION(' ','',#16,#15);
#15=PRODUCT_DEFINITION_CONTEXT('part definition',#21,'design');
#16=PRODUCT_DEFINITION_FORMATION_WITH_SPECIFIED_SOURCE(' ',' ',#18,
 .NOT_KNOWN.);
#17=PRODUCT_RELATED_PRODUCT_CATEGORY('part','',(#18));
#18=PRODUCT('featured_part_10483','featured_part_10483',' ',(#19));
#19=PRODUCT_CONTEXT(' ',#21,'mechanical');
#20=APPLICATION_PROTOCOL_DEFINITION('international standard',
'automotive_design',2010,#21);
#21=APPLICATION_CONTEXT(
'core data for automotive mechanical design processes');
#22=SHAPE_REPRESENTATION('featured_part_10483-None',(#436),#695);
#23=PRESENTATION_LAYER_ASSIGNMENT('1','Layer 1',(#32));
#24=STYLED_ITEM('',(#25),#32);
#25=PRESENTATION_STYLE_ASSIGNMENT((#26));
#26=SURFACE_STYLE_USAGE(.BOTH.,#27);
#27=SURFACE_SIDE_STYLE('',(#28));
#28=SURFACE_STYLE_FILL_AREA(#29);
#29=FILL_AREA_STYLE('',(#30));
#30=FILL_AREA_STYLE_COLOUR('',#31);
#31=COLOUR_RGB('medium steel',0.611764705882353,0.658823529411765,0.670588235294118);
#32=MANIFOLD_SOLID_BREP('',#33);
#33=CLOSED_SHELL('',(#50,#51,#52,#53,#54,#55,#56,#57,#58,#59,#60,#61,#62,
#63,#64,#65,#66,#67,#68,#69,#70,#71));
#34=CYLINDRICAL_SURFACE('',#455,4.3);
#35=CYLINDRICAL_SURFACE('',#462,9.4);
#36=CYLINDRICAL_SURFACE('',#463,9.4);
#37=CYLINDRICAL_SURFACE('',#466,4.85);
#38=FACE_BOUND('',#111,.T.);
#39=FACE_BOUND('',#112,.T.);
#40=FACE_BOUND('',#132,.T.);
#41=FACE_BOUND('',#133,.T.);
#42=CIRCLE('',#438,4.85);
#43=CIRCLE('',#439,4.3);
#44=CIRCLE('',#440,9.4);
#45=CIRCLE('',#441,9.4);
#46=CIRCLE('',#453,4.3);
#47=CIRCLE('',#458,9.4);
#48=CIRCLE('',#459,9.4);
#49=CIRCLE('',#464,4.85);
#50=ADVANCED_FACE('',(#90),#72,.F.);
#51=ADVANCED_FACE('',(#38,#39),#73,.T.);
#52=ADVANCED_FACE('',(#91),#74,.T.);
#53=ADVANCED_FACE('',(#92),#75,.T.);
#54=ADVANCED_FACE('',(#93),#76,.T.);
#55=ADVANCED_FACE('',(#94),#77,.T.);
#56=ADVANCED_FACE('',(#95),#78,.T.);
#57=ADVANCED_FACE('',(#96),#79,.F.);
#58=ADVANCED_FACE('',(#97),#80,.F.);
#59=ADVANCED_FACE('',(#98),#81,.F.);
#60=ADVANCED_FACE('',(#99),#82,.F.);
#61=ADVANCED_FACE('',(#100),#83,.F.);
#62=ADVANCED_FACE('',(#101),#84,.F.);
#63=ADVANCED_FACE('',(#102),#34,.F.);
#64=ADVANCED_FACE('',(#103),#85,.F.);
#65=ADVANCED_FACE('',(#104),#86,.F.);
#66=ADVANCED_FACE('',(#105),#87,.F.);
#67=ADVANCED_FACE('',(#106),#88,.F.);
#68=ADVANCED_FACE('',(#107),#35,.F.);
#69=ADVANCED_FACE('',(#108),#36,.F.);
#70=ADVANCED_FACE('',(#109),#89,.F.);
#71=ADVANCED_FACE('',(#40,#41),#37,.F.);
#72=PLANE('',#437);
#73=PLANE('',#442);
#74=PLANE('',#443);
#75=PLANE('',#444);
#76=PLANE('',#445);
#77=PLANE('',#446);
#78=PLANE('',#447);
#79=PLANE('',#448);
#80=PLANE('',#449);
#81=PLANE('',#450);
#82=PLANE('',#451);
#83=PLANE('',#452);
#84=PLANE('',#454);
#85=PLANE('',#456);
#86=PLANE('',#457);
#87=PLANE('',#460);
#88=PLANE('',#461);
#89=PLANE('',#465);
#90=FACE_OUTER_BOUND('',#110,.T.);
#91=FACE_OUTER_BOUND('',#113,.T.);
#92=FACE_OUTER_BOUND('',#114,.T.);
#93=FACE_OUTER_BOUND('',#115,.T.);
#94=FACE_OUTER_BOUND('',#116,.T.);
#95=FACE_OUTER_BOUND('',#117,.T.);
#96=FACE_OUTER_BOUND('',#118,.T.);
#97=FACE_OUTER_BOUND('',#119,.T.);
#98=FACE_OUTER_BOUND('',#120,.T.);
#99=FACE_OUTER_BOUND('',#121,.T.);
#100=FACE_OUTER_BOUND('',#122,.T.);
#101=FACE_OUTER_BOUND('',#123,.T.);
#102=FACE_OUTER_BOUND('',#124,.T.);
#103=FACE_OUTER_BOUND('',#125,.T.);
#104=FACE_OUTER_BOUND('',#126,.T.);
#105=FACE_OUTER_BOUND('',#127,.T.);
#106=FACE_OUTER_BOUND('',#128,.T.);
#107=FACE_OUTER_BOUND('',#129,.T.);
#108=FACE_OUTER_BOUND('',#130,.T.);
#109=FACE_OUTER_BOUND('',#131,.T.);
#110=EDGE_LOOP('',(#134,#135,#136,#137,#138));
#111=EDGE_LOOP('',(#139));
#112=EDGE_LOOP('',(#140,#141,#142,#143,#144,#145,#146,#147,#148,#149,#150,
#151,#152));
#113=EDGE_LOOP('',(#153,#154,#155,#156,#157,#158));
#114=EDGE_LOOP('',(#159,#160,#161,#162,#163));
#115=EDGE_LOOP('',(#164,#165,#166,#167,#168,#169,#170,#171,#172,#173));
#116=EDGE_LOOP('',(#174,#175,#176,#177));
#117=EDGE_LOOP('',(#178,#179,#180,#181,#182,#183));
#118=EDGE_LOOP('',(#184,#185,#186,#187));
#119=EDGE_LOOP('',(#188,#189,#190,#191));
#120=EDGE_LOOP('',(#192,#193,#194,#195));
#121=EDGE_LOOP('',(#196,#197,#198,#199,#200));
#122=EDGE_LOOP('',(#201,#202,#203,#204,#205));
#123=EDGE_LOOP('',(#206,#207,#208,#209,#210));
#124=EDGE_LOOP('',(#211,#212,#213,#214));
#125=EDGE_LOOP('',(#215,#216,#217,#218));
#126=EDGE_LOOP('',(#219,#220,#221,#222,#223));
#127=EDGE_LOOP('',(#224,#225,#226,#227,#228,#229));
#128=EDGE_LOOP('',(#230,#231,#232,#233,#234));
#129=EDGE_LOOP('',(#235,#236,#237,#238));
#130=EDGE_LOOP('',(#239,#240,#241,#242));
#131=EDGE_LOOP('',(#243));
#132=EDGE_LOOP('',(#244));
#133=EDGE_LOOP('',(#245));
#134=ORIENTED_EDGE('',*,*,#284,.F.);
#135=ORIENTED_EDGE('',*,*,#285,.F.);
#136=ORIENTED_EDGE('',*,*,#286,.F.);
#137=ORIENTED_EDGE('',*,*,#287,.F.);
#138=ORIENTED_EDGE('',*,*,#288,.F.);
#139=ORIENTED_EDGE('',*,*,#289,.F.);
#140=ORIENTED_EDGE('',*,*,#290,.F.);
#141=ORIENTED_EDGE('',*,*,#288,.T.);
#142=ORIENTED_EDGE('',*,*,#291,.T.);
#143=ORIENTED_EDGE('',*,*,#292,.F.);
#144=ORIENTED_EDGE('',*,*,#293,.T.);
#145=ORIENTED_EDGE('',*,*,#294,.F.);
#146=ORIENTED_EDGE('',*,*,#295,.T.);
#147=ORIENTED_EDGE('',*,*,#296,.F.);
#148=ORIENTED_EDGE('',*,*,#297,.T.);
#149=ORIENTED_EDGE('',*,*,#298,.F.);
#150=ORIENTED_EDGE('',*,*,#299,.T.);
#151=ORIENTED_EDGE('',*,*,#300,.F.);
#152=ORIENTED_EDGE('',*,*,#301,.T.);
#153=ORIENTED_EDGE('',*,*,#302,.T.);
#154=ORIENTED_EDGE('',*,*,#303,.T.);
#155=ORIENTED_EDGE('',*,*,#292,.T.);
#156=ORIENTED_EDGE('',*,*,#304,.T.);
#157=ORIENTED_EDGE('',*,*,#305,.F.);
#158=ORIENTED_EDGE('',*,*,#306,.T.);
#159=ORIENTED_EDGE('',*,*,#307,.T.);
#160=ORIENTED_EDGE('',*,*,#286,.T.);
#161=ORIENTED_EDGE('',*,*,#308,.F.);
#162=ORIENTED_EDGE('',*,*,#309,.T.);
#163=ORIENTED_EDGE('',*,*,#305,.T.);
#164=ORIENTED_EDGE('',*,*,#310,.F.);
#165=ORIENTED_EDGE('',*,*,#311,.F.);
#166=ORIENTED_EDGE('',*,*,#312,.T.);
#167=ORIENTED_EDGE('',*,*,#313,.T.);
#168=ORIENTED_EDGE('',*,*,#314,.F.);
#169=ORIENTED_EDGE('',*,*,#315,.F.);
#170=ORIENTED_EDGE('',*,*,#316,.F.);
#171=ORIENTED_EDGE('',*,*,#317,.T.);
#172=ORIENTED_EDGE('',*,*,#308,.T.);
#173=ORIENTED_EDGE('',*,*,#285,.T.);
#174=ORIENTED_EDGE('',*,*,#318,.F.);
#175=ORIENTED_EDGE('',*,*,#306,.F.);
#176=ORIENTED_EDGE('',*,*,#309,.F.);
#177=ORIENTED_EDGE('',*,*,#317,.F.);
#178=ORIENTED_EDGE('',*,*,#319,.T.);
#179=ORIENTED_EDGE('',*,*,#320,.T.);
#180=ORIENTED_EDGE('',*,*,#302,.F.);
#181=ORIENTED_EDGE('',*,*,#318,.T.);
#182=ORIENTED_EDGE('',*,*,#316,.T.);
#183=ORIENTED_EDGE('',*,*,#321,.F.);
#184=ORIENTED_EDGE('',*,*,#291,.F.);
#185=ORIENTED_EDGE('',*,*,#287,.T.);
#186=ORIENTED_EDGE('',*,*,#307,.F.);
#187=ORIENTED_EDGE('',*,*,#304,.F.);
#188=ORIENTED_EDGE('',*,*,#322,.F.);
#189=ORIENTED_EDGE('',*,*,#293,.F.);
#190=ORIENTED_EDGE('',*,*,#303,.F.);
#191=ORIENTED_EDGE('',*,*,#320,.F.);
#192=ORIENTED_EDGE('',*,*,#323,.F.);
#193=ORIENTED_EDGE('',*,*,#297,.F.);
#194=ORIENTED_EDGE('',*,*,#324,.F.);
#195=ORIENTED_EDGE('',*,*,#313,.F.);
#196=ORIENTED_EDGE('',*,*,#325,.T.);
#197=ORIENTED_EDGE('',*,*,#326,.T.);
#198=ORIENTED_EDGE('',*,*,#294,.T.);
#199=ORIENTED_EDGE('',*,*,#322,.T.);
#200=ORIENTED_EDGE('',*,*,#319,.F.);
#201=ORIENTED_EDGE('',*,*,#296,.T.);
#202=ORIENTED_EDGE('',*,*,#327,.T.);
#203=ORIENTED_EDGE('',*,*,#328,.T.);
#204=ORIENTED_EDGE('',*,*,#314,.T.);
#205=ORIENTED_EDGE('',*,*,#324,.T.);
#206=ORIENTED_EDGE('',*,*,#328,.F.);
#207=ORIENTED_EDGE('',*,*,#329,.T.);
#208=ORIENTED_EDGE('',*,*,#325,.F.);
#209=ORIENTED_EDGE('',*,*,#321,.T.);
#210=ORIENTED_EDGE('',*,*,#315,.T.);
#211=ORIENTED_EDGE('',*,*,#295,.F.);
#212=ORIENTED_EDGE('',*,*,#326,.F.);
#213=ORIENTED_EDGE('',*,*,#329,.F.);
#214=ORIENTED_EDGE('',*,*,#327,.F.);
#215=ORIENTED_EDGE('',*,*,#300,.T.);
#216=ORIENTED_EDGE('',*,*,#330,.T.);
#217=ORIENTED_EDGE('',*,*,#331,.T.);
#218=ORIENTED_EDGE('',*,*,#332,.T.);
#219=ORIENTED_EDGE('',*,*,#290,.T.);
#220=ORIENTED_EDGE('',*,*,#333,.T.);
#221=ORIENTED_EDGE('',*,*,#334,.T.);
#222=ORIENTED_EDGE('',*,*,#310,.T.);
#223=ORIENTED_EDGE('',*,*,#284,.T.);
#224=ORIENTED_EDGE('',*,*,#331,.F.);
#225=ORIENTED_EDGE('',*,*,#335,.T.);
#226=ORIENTED_EDGE('',*,*,#336,.F.);
#227=ORIENTED_EDGE('',*,*,#311,.T.);
#228=ORIENTED_EDGE('',*,*,#334,.F.);
#229=ORIENTED_EDGE('',*,*,#337,.T.);
#230=ORIENTED_EDGE('',*,*,#336,.T.);
#231=ORIENTED_EDGE('',*,*,#338,.T.);
#232=ORIENTED_EDGE('',*,*,#298,.T.);
#233=ORIENTED_EDGE('',*,*,#323,.T.);
#234=ORIENTED_EDGE('',*,*,#312,.F.);
#235=ORIENTED_EDGE('',*,*,#299,.F.);
#236=ORIENTED_EDGE('',*,*,#338,.F.);
#237=ORIENTED_EDGE('',*,*,#335,.F.);
#238=ORIENTED_EDGE('',*,*,#330,.F.);
#239=ORIENTED_EDGE('',*,*,#301,.F.);
#240=ORIENTED_EDGE('',*,*,#332,.F.);
#241=ORIENTED_EDGE('',*,*,#337,.F.);
#242=ORIENTED_EDGE('',*,*,#333,.F.);
#243=ORIENTED_EDGE('',*,*,#339,.F.);
#244=ORIENTED_EDGE('',*,*,#289,.T.);
#245=ORIENTED_EDGE('',*,*,#339,.T.);
#246=VERTEX_POINT('',#579);
#247=VERTEX_POINT('',#580);
#248=VERTEX_POINT('',#582);
#249=VERTEX_POINT('',#584);
#250=VERTEX_POINT('',#586);
#251=VERTEX_POINT('',#590);
#252=VERTEX_POINT('',#592);
#253=VERTEX_POINT('',#594);
#254=VERTEX_POINT('',#596);
#255=VERTEX_POINT('',#598);
#256=VERTEX_POINT('',#600);
#257=VERTEX_POINT('',#602);
#258=VERTEX_POINT('',#604);
#259=VERTEX_POINT('',#606);
#260=VERTEX_POINT('',#608);
#261=VERTEX_POINT('',#610);
#262=VERTEX_POINT('',#612);
#263=VERTEX_POINT('',#616);
#264=VERTEX_POINT('',#617);
#265=VERTEX_POINT('',#620);
#266=VERTEX_POINT('',#622);
#267=VERTEX_POINT('',#627);
#268=VERTEX_POINT('',#631);
#269=VERTEX_POINT('',#633);
#270=VERTEX_POINT('',#635);
#271=VERTEX_POINT('',#637);
#272=VERTEX_POINT('',#639);
#273=VERTEX_POINT('',#641);
#274=VERTEX_POINT('',#643);
#275=VERTEX_POINT('',#649);
#276=VERTEX_POINT('',#650);
#277=VERTEX_POINT('',#661);
#278=VERTEX_POINT('',#665);
#279=VERTEX_POINT('',#672);
#280=VERTEX_POINT('',#674);
#281=VERTEX_POINT('',#678);
#282=VERTEX_POINT('',#682);
#283=VERTEX_POINT('',#691);
#284=EDGE_CURVE('',#246,#247,#340,.T.);
#285=EDGE_CURVE('',#248,#246,#341,.T.);
#286=EDGE_CURVE('',#249,#248,#342,.T.);
#287=EDGE_CURVE('',#250,#249,#343,.T.);
#288=EDGE_CURVE('',#247,#250,#344,.T.);
#289=EDGE_CURVE('',#251,#251,#42,.T.);
#290=EDGE_CURVE('',#247,#252,#345,.T.);
#291=EDGE_CURVE('',#250,#253,#346,.T.);
#292=EDGE_CURVE('',#254,#253,#347,.T.);
#293=EDGE_CURVE('',#254,#255,#348,.T.);
#294=EDGE_CURVE('',#256,#255,#349,.T.);
#295=EDGE_CURVE('',#256,#257,#43,.T.);
#296=EDGE_CURVE('',#258,#257,#350,.T.);
#297=EDGE_CURVE('',#258,#259,#351,.T.);
#298=EDGE_CURVE('',#260,#259,#352,.T.);
#299=EDGE_CURVE('',#260,#261,#44,.T.);
#300=EDGE_CURVE('',#262,#261,#353,.T.);
#301=EDGE_CURVE('',#262,#252,#45,.T.);
#302=EDGE_CURVE('',#263,#264,#354,.T.);
#303=EDGE_CURVE('',#264,#254,#355,.T.);
#304=EDGE_CURVE('',#253,#265,#356,.T.);
#305=EDGE_CURVE('',#266,#265,#357,.T.);
#306=EDGE_CURVE('',#266,#263,#358,.T.);
#307=EDGE_CURVE('',#265,#249,#359,.T.);
#308=EDGE_CURVE('',#267,#248,#360,.T.);
#309=EDGE_CURVE('',#267,#266,#361,.T.);
#310=EDGE_CURVE('',#268,#246,#362,.T.);
#311=EDGE_CURVE('',#269,#268,#363,.T.);
#312=EDGE_CURVE('',#269,#270,#364,.T.);
#313=EDGE_CURVE('',#270,#271,#365,.T.);
#314=EDGE_CURVE('',#272,#271,#366,.T.);
#315=EDGE_CURVE('',#273,#272,#367,.T.);
#316=EDGE_CURVE('',#274,#273,#368,.T.);
#317=EDGE_CURVE('',#274,#267,#369,.T.);
#318=EDGE_CURVE('',#263,#274,#370,.T.);
#319=EDGE_CURVE('',#275,#276,#371,.T.);
#320=EDGE_CURVE('',#276,#264,#372,.T.);
#321=EDGE_CURVE('',#275,#273,#373,.T.);
#322=EDGE_CURVE('',#255,#276,#374,.T.);
#323=EDGE_CURVE('',#259,#270,#375,.T.);
#324=EDGE_CURVE('',#271,#258,#376,.T.);
#325=EDGE_CURVE('',#275,#277,#377,.T.);
#326=EDGE_CURVE('',#277,#256,#378,.T.);
#327=EDGE_CURVE('',#257,#278,#379,.T.);
#328=EDGE_CURVE('',#278,#272,#380,.T.);
#329=EDGE_CURVE('',#278,#277,#46,.T.);
#330=EDGE_CURVE('',#261,#279,#381,.T.);
#331=EDGE_CURVE('',#279,#280,#382,.T.);
#332=EDGE_CURVE('',#280,#262,#383,.T.);
#333=EDGE_CURVE('',#252,#281,#384,.T.);
#334=EDGE_CURVE('',#281,#268,#385,.T.);
#335=EDGE_CURVE('',#279,#282,#47,.T.);
#336=EDGE_CURVE('',#269,#282,#386,.T.);
#337=EDGE_CURVE('',#281,#280,#48,.T.);
#338=EDGE_CURVE('',#282,#260,#387,.T.);
#339=EDGE_CURVE('',#283,#283,#49,.T.);
#340=LINE('',#578,#388);
#341=LINE('',#581,#389);
#342=LINE('',#583,#390);
#343=LINE('',#585,#391);
#344=LINE('',#587,#392);
#345=LINE('',#591,#393);
#346=LINE('',#593,#394);
#347=LINE('',#595,#395);
#348=LINE('',#597,#396);
#349=LINE('',#599,#397);
#350=LINE('',#603,#398);
#351=LINE('',#605,#399);
#352=LINE('',#607,#400);
#353=LINE('',#611,#401);
#354=LINE('',#615,#402);
#355=LINE('',#618,#403);
#356=LINE('',#619,#404);
#357=LINE('',#621,#405);
#358=LINE('',#623,#406);
#359=LINE('',#625,#407);
#360=LINE('',#626,#408);
#361=LINE('',#628,#409);
#362=LINE('',#630,#410);
#363=LINE('',#632,#411);
#364=LINE('',#634,#412);
#365=LINE('',#636,#413);
#366=LINE('',#638,#414);
#367=LINE('',#640,#415);
#368=LINE('',#642,#416);
#369=LINE('',#644,#417);
#370=LINE('',#646,#418);
#371=LINE('',#648,#419);
#372=LINE('',#651,#420);
#373=LINE('',#652,#421);
#374=LINE('',#655,#422);
#375=LINE('',#657,#423);
#376=LINE('',#658,#424);
#377=LINE('',#660,#425);
#378=LINE('',#662,#426);
#379=LINE('',#664,#427);
#380=LINE('',#666,#428);
#381=LINE('',#671,#429);
#382=LINE('',#673,#430);
#383=LINE('',#675,#431);
#384=LINE('',#677,#432);
#385=LINE('',#679,#433);
#386=LINE('',#683,#434);
#387=LINE('',#686,#435);
#388=VECTOR('',#469,1.);
#389=VECTOR('',#470,1.);
#390=VECTOR('',#471,1.);
#391=VECTOR('',#472,1.);
#392=VECTOR('',#473,1.);
#393=VECTOR('',#478,1.);
#394=VECTOR('',#479,1.);
#395=VECTOR('',#480,1.);
#396=VECTOR('',#481,1.);
#397=VECTOR('',#482,1.);
#398=VECTOR('',#485,1.);
#399=VECTOR('',#486,1.);
#400=VECTOR('',#487,1.);
#401=VECTOR('',#490,1.);
#402=VECTOR('',#495,1.);
#403=VECTOR('',#496,1.);
#404=VECTOR('',#497,1.);
#405=VECTOR('',#498,1.);
#406=VECTOR('',#499,1.);
#407=VECTOR('',#502,1.);
#408=VECTOR('',#503,1.);
#409=VECTOR('',#504,1.);
#410=VECTOR('',#507,1.);
#411=VECTOR('',#508,1.);
#412=VECTOR('',#509,1.);
#413=VECTOR('',#510,1.);
#414=VECTOR('',#511,1.);
#415=VECTOR('',#512,1.);
#416=VECTOR('',#513,1.);
#417=VECTOR('',#514,1.);
#418=VECTOR('',#517,1.);
#419=VECTOR('',#520,1.);
#420=VECTOR('',#521,1.);
#421=VECTOR('',#522,1.);
#422=VECTOR('',#527,1.);
#423=VECTOR('',#530,1.);
#424=VECTOR('',#531,1.);
#425=VECTOR('',#534,1.);
#426=VECTOR('',#535,1.);
#427=VECTOR('',#538,1.);
#428=VECTOR('',#539,1.);
#429=VECTOR('',#548,1.);
#430=VECTOR('',#549,1.);
#431=VECTOR('',#550,1.);
#432=VECTOR('',#553,1.);
#433=VECTOR('',#554,1.);
#434=VECTOR('',#559,1.);
#435=VECTOR('',#564,1.);
#436=AXIS2_PLACEMENT_3D('',#577,#467,#468);
#437=AXIS2_PLACEMENT_3D('',#588,#474,#475);
#438=AXIS2_PLACEMENT_3D('',#589,#476,#477);
#439=AXIS2_PLACEMENT_3D('',#601,#483,#484);
#440=AXIS2_PLACEMENT_3D('',#609,#488,#489);
#441=AXIS2_PLACEMENT_3D('',#613,#491,#492);
#442=AXIS2_PLACEMENT_3D('',#614,#493,#494);
#443=AXIS2_PLACEMENT_3D('',#624,#500,#501);
#444=AXIS2_PLACEMENT_3D('',#629,#505,#506);
#445=AXIS2_PLACEMENT_3D('',#645,#515,#516);
#446=AXIS2_PLACEMENT_3D('',#647,#518,#519);
#447=AXIS2_PLACEMENT_3D('',#653,#523,#524);
#448=AXIS2_PLACEMENT_3D('',#654,#525,#526);
#449=AXIS2_PLACEMENT_3D('',#656,#528,#529);
#450=AXIS2_PLACEMENT_3D('',#659,#532,#533);
#451=AXIS2_PLACEMENT_3D('',#663,#536,#537);
#452=AXIS2_PLACEMENT_3D('',#667,#540,#541);
#453=AXIS2_PLACEMENT_3D('',#668,#542,#543);
#454=AXIS2_PLACEMENT_3D('',#669,#544,#545);
#455=AXIS2_PLACEMENT_3D('',#670,#546,#547);
#456=AXIS2_PLACEMENT_3D('',#676,#551,#552);
#457=AXIS2_PLACEMENT_3D('',#680,#555,#556);
#458=AXIS2_PLACEMENT_3D('',#681,#557,#558);
#459=AXIS2_PLACEMENT_3D('',#684,#560,#561);
#460=AXIS2_PLACEMENT_3D('',#685,#562,#563);
#461=AXIS2_PLACEMENT_3D('',#687,#565,#566);
#462=AXIS2_PLACEMENT_3D('',#688,#567,#568);
#463=AXIS2_PLACEMENT_3D('',#689,#569,#570);
#464=AXIS2_PLACEMENT_3D('',#690,#571,#572);
#465=AXIS2_PLACEMENT_3D('',#692,#573,#574);
#466=AXIS2_PLACEMENT_3D('',#693,#575,#576);
#467=DIRECTION('',(0.,0.,1.));
#468=DIRECTION('',(1.,0.,0.));
#469=DIRECTION('',(0.,-0.707106781186548,0.707106781186547));
#470=DIRECTION('',(1.,0.,0.));
#471=DIRECTION('',(0.,0.707106781186548,-0.707106781186547));
#472=DIRECTION('',(-0.577350269189626,0.577350269189626,-0.577350269189626));
#473=DIRECTION('',(-1.,0.,0.));
#474=DIRECTION('',(0.,-0.707106781186547,-0.707106781186548));
#475=DIRECTION('',(1.,0.,0.));
#476=DIRECTION('',(0.,0.,1.));
#477=DIRECTION('',(1.,0.,0.));
#478=DIRECTION('',(0.,-1.,0.));
#479=DIRECTION('',(0.,-1.,0.));
#480=DIRECTION('',(-1.,0.,0.));
#481=DIRECTION('',(0.,1.,0.));
#482=DIRECTION('',(1.,0.,0.));
#483=DIRECTION('',(0.,0.,-1.));
#484=DIRECTION('',(1.00000000000001,0.,0.));
#485=DIRECTION('',(0.,-1.,0.));
#486=DIRECTION('',(-1.,0.,0.));
#487=DIRECTION('',(0.,1.,0.));
#488=DIRECTION('',(0.,0.,-1.));
#489=DIRECTION('',(0.999999999999999,0.,0.));
#490=DIRECTION('',(1.,0.,0.));
#491=DIRECTION('',(0.,0.,-1.));
#492=DIRECTION('',(1.,0.,0.));
#493=DIRECTION('',(0.,0.,1.));
#494=DIRECTION('',(1.,0.,0.));
#495=DIRECTION('',(0.,0.,1.));
#496=DIRECTION('',(-0.707106781186547,0.,0.707106781186548));
#497=DIRECTION('',(-0.707106781186548,0.,-0.707106781186548));
#498=DIRECTION('',(0.,0.,1.));
#499=DIRECTION('',(1.,0.,0.));
#500=DIRECTION('',(0.,-1.,0.));
#501=DIRECTION('',(0.,0.,-1.));
#502=DIRECTION('',(0.,1.,0.));
#503=DIRECTION('',(0.,0.,1.));
#504=DIRECTION('',(0.,-1.,0.));
#505=DIRECTION('',(-1.,0.,0.));
#506=DIRECTION('',(0.,0.,1.));
#507=DIRECTION('',(0.,0.,1.));
#508=DIRECTION('',(-1.,0.,0.));
#509=DIRECTION('',(0.,0.,1.));
#510=DIRECTION('',(1.,0.,0.));
#511=DIRECTION('',(0.,0.,1.));
#512=DIRECTION('',(-1.,0.,0.));
#513=DIRECTION('',(0.,0.,1.));
#514=DIRECTION('',(-1.,0.,0.));
#515=DIRECTION('',(0.,1.,0.));
#516=DIRECTION('',(0.,0.,1.));
#517=DIRECTION('',(0.,1.,0.));
#518=DIRECTION('',(0.,0.,-1.));
#519=DIRECTION('',(-1.,0.,0.));
#520=DIRECTION('',(0.,0.,1.));
#521=DIRECTION('',(0.,-1.,0.));
#522=DIRECTION('',(0.,1.,0.));
#523=DIRECTION('',(1.,0.,0.));
#524=DIRECTION('',(0.,0.,-1.));
#525=DIRECTION('',(0.707106781186547,0.,-0.707106781186547));
#526=DIRECTION('',(0.,1.,0.));
#527=DIRECTION('',(0.707106781186547,0.,-0.707106781186548));
#528=DIRECTION('',(-0.707106781186548,0.,-0.707106781186547));
#529=DIRECTION('',(0.,-1.,0.));
#530=DIRECTION('',(0.,0.707106781186548,-0.707106781186547));
#531=DIRECTION('',(0.,-0.707106781186548,0.707106781186547));
#532=DIRECTION('',(0.,-0.707106781186547,-0.707106781186548));
#533=DIRECTION('',(1.,0.,0.));
#534=DIRECTION('',(-1.,0.,0.));
#535=DIRECTION('',(0.,0.,1.));
#536=DIRECTION('',(0.,-1.,0.));
#537=DIRECTION('',(0.,0.,-1.));
#538=DIRECTION('',(0.,0.,-1.));
#539=DIRECTION('',(0.,1.,0.));
#540=DIRECTION('',(-1.,0.,0.));
#541=DIRECTION('',(0.,0.,1.));
#542=DIRECTION('',(0.,0.,1.));
#543=DIRECTION('',(-1.00000000000001,0.,0.));
#544=DIRECTION('',(0.,0.,-1.));
#545=DIRECTION('',(-1.,0.,0.));
#546=DIRECTION('',(0.,0.,1.));
#547=DIRECTION('',(1.00000000000001,0.,0.));
#548=DIRECTION('',(0.,0.,-1.));
#549=DIRECTION('',(-1.,0.,0.));
#550=DIRECTION('',(0.,0.,1.));
#551=DIRECTION('',(0.,-1.,0.));
#552=DIRECTION('',(0.,0.,-1.));
#553=DIRECTION('',(0.,0.,-1.));
#554=DIRECTION('',(0.,1.,0.));
#555=DIRECTION('',(-1.,0.,0.));
#556=DIRECTION('',(0.,0.,1.));
#557=DIRECTION('',(0.,0.,1.));
#558=DIRECTION('',(-0.999999999999999,0.,0.));
#559=DIRECTION('',(0.,-1.,0.));
#560=DIRECTION('',(0.,0.,1.));
#561=DIRECTION('',(-1.,0.,0.));
#562=DIRECTION('',(0.,0.,-1.));
#563=DIRECTION('',(-1.,0.,0.));
#564=DIRECTION('',(0.,0.,1.));
#565=DIRECTION('',(1.,0.,0.));
#566=DIRECTION('',(0.,0.,-1.));
#567=DIRECTION('',(0.,0.,1.));
#568=DIRECTION('',(0.999999999999999,0.,0.));
#569=DIRECTION('',(0.,0.,1.));
#570=DIRECTION('',(1.,0.,0.));
#571=DIRECTION('',(0.,0.,-1.));
#572=DIRECTION('',(1.,0.,0.));
#573=DIRECTION('',(0.,0.,-1.));
#574=DIRECTION('',(-1.,0.,0.));
#575=DIRECTION('',(0.,0.,-1.));
#576=DIRECTION('',(1.,0.,0.));
#577=CARTESIAN_POINT('',(0.,0.,0.));
#578=CARTESIAN_POINT('',(72.5,218.2,55.1));
#579=CARTESIAN_POINT('',(72.5,218.2,55.1));
#580=CARTESIAN_POINT('',(72.5,208.2,65.1));
#581=CARTESIAN_POINT('',(193.15,218.2,55.1));
#582=CARTESIAN_POINT('',(0.,218.2,55.1));
#583=CARTESIAN_POINT('',(0.,191.2,82.1));
#584=CARTESIAN_POINT('',(0.,211.2,62.1));
#585=CARTESIAN_POINT('',(34.0333333333333,177.166666666667,96.1333333333333));
#586=CARTESIAN_POINT('',(3.,208.2,65.1));
#587=CARTESIAN_POINT('',(193.15,208.2,65.1));
#588=CARTESIAN_POINT('',(193.15,218.2,55.1));
#589=CARTESIAN_POINT('',(298.5,175.6,65.1));
#590=CARTESIAN_POINT('',(303.35,175.6,65.1));
#591=CARTESIAN_POINT('',(72.5,109.1,65.1));
#592=CARTESIAN_POINT('',(72.5,192.8,65.1));
#593=CARTESIAN_POINT('',(3.,109.1,65.1));
#594=CARTESIAN_POINT('',(3.,0.,65.1));
#595=CARTESIAN_POINT('',(193.15,0.,65.1));
#596=CARTESIAN_POINT('',(377.6,0.,65.1));
#597=CARTESIAN_POINT('',(377.6,109.1,65.1));
#598=CARTESIAN_POINT('',(377.6,149.,65.1));
#599=CARTESIAN_POINT('',(193.15,149.,65.1));
#600=CARTESIAN_POINT('',(309.6,149.,65.1));
#601=CARTESIAN_POINT('',(309.6,153.3,65.1));
#602=CARTESIAN_POINT('',(305.3,153.3,65.1));
#603=CARTESIAN_POINT('',(305.3,109.1,65.1));
#604=CARTESIAN_POINT('',(305.3,208.2,65.1));
#605=CARTESIAN_POINT('',(193.15,208.2,65.1));
#606=CARTESIAN_POINT('',(181.6,208.2,65.1));
#607=CARTESIAN_POINT('',(181.6,109.1,65.1));
#608=CARTESIAN_POINT('',(181.6,192.8,65.1));
#609=CARTESIAN_POINT('',(172.2,192.8,65.1));
#610=CARTESIAN_POINT('',(172.2,183.4,65.1));
#611=CARTESIAN_POINT('',(193.15,183.4,65.1));
#612=CARTESIAN_POINT('',(81.9,183.4,65.1));
#613=CARTESIAN_POINT('',(81.9,192.8,65.1));
#614=CARTESIAN_POINT('',(193.15,109.1,65.1));
#615=CARTESIAN_POINT('',(386.3,0.,0.));
#616=CARTESIAN_POINT('',(386.3,0.,0.));
#617=CARTESIAN_POINT('',(386.3,0.,56.4));
#618=CARTESIAN_POINT('',(317.925,0.,124.775));
#619=CARTESIAN_POINT('',(65.525,0.,127.625));
#620=CARTESIAN_POINT('',(0.,0.,62.1));
#621=CARTESIAN_POINT('',(0.,0.,0.));
#622=CARTESIAN_POINT('',(0.,0.,0.));
#623=CARTESIAN_POINT('',(193.15,0.,0.));
#624=CARTESIAN_POINT('',(193.15,0.,0.));
#625=CARTESIAN_POINT('',(0.,109.1,62.1));
#626=CARTESIAN_POINT('',(0.,218.2,0.));
#627=CARTESIAN_POINT('',(0.,218.2,0.));
#628=CARTESIAN_POINT('',(0.,109.1,0.));
#629=CARTESIAN_POINT('',(0.,109.1,0.));
#630=CARTESIAN_POINT('',(72.5,218.2,38.8));
#631=CARTESIAN_POINT('',(72.5,218.2,38.8));
#632=CARTESIAN_POINT('',(127.05,218.2,38.8));
#633=CARTESIAN_POINT('',(181.6,218.2,38.8));
#634=CARTESIAN_POINT('',(181.6,218.2,38.8));
#635=CARTESIAN_POINT('',(181.6,218.2,55.1));
#636=CARTESIAN_POINT('',(193.15,218.2,55.1));
#637=CARTESIAN_POINT('',(305.3,218.2,55.1));
#638=CARTESIAN_POINT('',(305.3,218.2,53.7));
#639=CARTESIAN_POINT('',(305.3,218.2,53.7));
#640=CARTESIAN_POINT('',(345.8,218.2,53.7));
#641=CARTESIAN_POINT('',(386.3,218.2,53.7));
#642=CARTESIAN_POINT('',(386.3,218.2,0.));
#643=CARTESIAN_POINT('',(386.3,218.2,0.));
#644=CARTESIAN_POINT('',(193.15,218.2,0.));
#645=CARTESIAN_POINT('',(193.15,218.2,0.));
#646=CARTESIAN_POINT('',(386.3,109.1,0.));
#647=CARTESIAN_POINT('',(193.15,109.1,0.));
#648=CARTESIAN_POINT('',(386.3,149.,53.7));
#649=CARTESIAN_POINT('',(386.3,149.,53.7));
#650=CARTESIAN_POINT('',(386.3,149.,56.4));
#651=CARTESIAN_POINT('',(386.3,109.1,56.4));
#652=CARTESIAN_POINT('',(386.3,183.6,53.7));
#653=CARTESIAN_POINT('',(386.3,109.1,0.));
#654=CARTESIAN_POINT('',(0.,109.1,62.1));
#655=CARTESIAN_POINT('',(386.3,149.,56.4));
#656=CARTESIAN_POINT('',(386.3,109.1,56.4));
#657=CARTESIAN_POINT('',(181.6,218.2,55.1));
#658=CARTESIAN_POINT('',(305.3,218.2,55.1));
#659=CARTESIAN_POINT('',(193.15,218.2,55.1));
#660=CARTESIAN_POINT('',(345.8,149.,53.7));
#661=CARTESIAN_POINT('',(309.6,149.,53.7));
#662=CARTESIAN_POINT('',(309.6,149.,65.1));
#663=CARTESIAN_POINT('',(345.8,149.,53.7));
#664=CARTESIAN_POINT('',(305.3,153.3,53.7));
#665=CARTESIAN_POINT('',(305.3,153.3,53.7));
#666=CARTESIAN_POINT('',(305.3,183.6,53.7));
#667=CARTESIAN_POINT('',(305.3,183.6,53.7));
#668=CARTESIAN_POINT('',(309.6,153.3,53.7));
#669=CARTESIAN_POINT('',(345.8,183.6,53.7));
#670=CARTESIAN_POINT('',(309.6,153.3,53.7));
#671=CARTESIAN_POINT('',(172.2,183.4,38.8));
#672=CARTESIAN_POINT('',(172.2,183.4,38.8));
#673=CARTESIAN_POINT('',(127.05,183.4,38.8));
#674=CARTESIAN_POINT('',(81.9,183.4,38.8));
#675=CARTESIAN_POINT('',(81.9,183.4,65.1));
#676=CARTESIAN_POINT('',(127.05,183.4,38.8));
#677=CARTESIAN_POINT('',(72.5,192.8,38.8));
#678=CARTESIAN_POINT('',(72.5,192.8,38.8));
#679=CARTESIAN_POINT('',(72.5,200.8,38.8));
#680=CARTESIAN_POINT('',(72.5,200.8,38.8));
#681=CARTESIAN_POINT('',(172.2,192.8,38.8));
#682=CARTESIAN_POINT('',(181.6,192.8,38.8));
#683=CARTESIAN_POINT('',(181.6,200.8,38.8));
#684=CARTESIAN_POINT('',(81.9,192.8,38.8));
#685=CARTESIAN_POINT('',(127.05,200.8,38.8));
#686=CARTESIAN_POINT('',(181.6,192.8,65.1));
#687=CARTESIAN_POINT('',(181.6,200.8,38.8));
#688=CARTESIAN_POINT('',(172.2,192.8,38.8));
#689=CARTESIAN_POINT('',(81.9,192.8,38.8));
#690=CARTESIAN_POINT('',(298.5,175.6,20.5));
#691=CARTESIAN_POINT('',(303.35,175.6,20.5));
#692=CARTESIAN_POINT('',(298.5,175.6,20.5));
#693=CARTESIAN_POINT('',(298.5,175.6,65.15));
#694=MECHANICAL_DESIGN_GEOMETRIC_PRESENTATION_REPRESENTATION('',(#24),#695);
#695=(
GEOMETRIC_REPRESENTATION_CONTEXT(3)
GLOBAL_UNCERTAINTY_ASSIGNED_CONTEXT((#696))
GLOBAL_UNIT_ASSIGNED_CONTEXT((#702,#698,#697))
REPRESENTATION_CONTEXT('featured_part_10483','TOP_LEVEL_ASSEMBLY_PART')
);
#696=UNCERTAINTY_MEASURE_WITH_UNIT(LENGTH_MEASURE(2.E-5),#702,
'DISTANCE_ACCURACY_VALUE','Maximum Tolerance applied to model');
#697=(
NAMED_UNIT(*)
SI_UNIT($,.STERADIAN.)
SOLID_ANGLE_UNIT()
);
#698=(
CONVERSION_BASED_UNIT('DEGREE',#700)
NAMED_UNIT(#699)
PLANE_ANGLE_UNIT()
);
#699=DIMENSIONAL_EXPONENTS(0.,0.,0.,0.,0.,0.,0.);
#700=PLANE_ANGLE_MEASURE_WITH_UNIT(PLANE_ANGLE_MEASURE(0.0174532925),#701);
#701=(
NAMED_UNIT(*)
PLANE_ANGLE_UNIT()
SI_UNIT($,.RADIAN.)
);
#702=(
LENGTH_UNIT()
NAMED_UNIT(*)
SI_UNIT(.MILLI.,.METRE.)
);
ENDSEC;
END-ISO-10303-21;
