ISO-10303-21;
HEADER;
/* Generated by software containing ST-Developer
 * from STEP Tools, Inc. (www.steptools.com) 
 */
/* OPTION: using custom schema-name function */

FILE_DESCRIPTION(
/* description */ (''),
/* implementation_level */ '2;1');

FILE_NAME(
/* name */ 'featured_part_07691.stp',
/* time_stamp */ '2026-07-10T08:26:05-04:00',
/* author */ (''),
/* organization */ (''),
/* preprocessor_version */ 'ST-DEVELOPER v20.1',
/* originating_system */ 'SIEMENS PLM Software NX2512.6002',
/* authorisation */ '');

FILE_SCHEMA (('AUTOMOTIVE_DESIGN { 1 0 10303 214 3 1 1 1 }'));
ENDSEC;

DATA;
#10=SHAPE_REPRESENTATION_RELATIONSHIP('None',
'relationship between featured_part_07691-None and featured_part_07691
-None',#22,#11);
#11=ADVANCED_BREP_SHAPE_REPRESENTATION('featured_part_07691-None',(#32),
#1032);
#12=SHAPE_DEFINITION_REPRESENTATION(#13,#22);
#13=PRODUCT_DEFINITION_SHAPE('','',#14);
#14=PRODUCT_DEFINITION(' ','',#16,#15);
#15=PRODUCT_DEFINITION_CONTEXT('part definition',#21,'design');
#16=PRODUCT_DEFINITION_FORMATION_WITH_SPECIFIED_SOURCE(' ',' ',#18,
 .NOT_KNOWN.);
#17=PRODUCT_RELATED_PRODUCT_CATEGORY('part','',(#18));
#18=PRODUCT('featured_part_07691','featured_part_07691',' ',(#19));
#19=PRODUCT_CONTEXT(' ',#21,'mechanical');
#20=APPLICATION_PROTOCOL_DEFINITION('international standard',
'automotive_design',2010,#21);
#21=APPLICATION_CONTEXT(
'core data for automotive mechanical design processes');
#22=SHAPE_REPRESENTATION('featured_part_07691-None',(#632),#1032);
#23=PRESENTATION_LAYER_ASSIGNMENT('1','Layer 1',(#32));
#24=STYLED_ITEM('',(#25),#32);
#25=PRESENTATION_STYLE_ASSIGNMENT((#26));
#26=SURFACE_STYLE_USAGE(.BOTH.,#27);
#27=SURFACE_SIDE_STYLE('',(#28));
#28=SURFACE_STYLE_FILL_AREA(#29);
#29=FILL_AREA_STYLE('',(#30));
#30=FILL_AREA_STYLE_COLOUR('',#31);
#31=COLOUR_RGB('medium steel',0.611764705882353,0.658823529411765,0.670588235294118);
#32=MANIFOLD_SOLID_BREP('',#33);
#33=CLOSED_SHELL('',(#75,#76,#77,#78,#79,#80,#81,#82,#83,#84,#85,#86,#87,
#88,#89,#90,#91,#92,#93,#94,#95,#96,#97,#98,#99,#100,#101,#102,#103,#104,
#105,#106,#107,#108));
#34=CYLINDRICAL_SURFACE('',#657,10.5);
#35=CYLINDRICAL_SURFACE('',#658,10.5);
#36=CYLINDRICAL_SURFACE('',#665,13.4);
#37=CYLINDRICAL_SURFACE('',#672,10.8);
#38=CYLINDRICAL_SURFACE('',#673,10.8);
#39=CYLINDRICAL_SURFACE('',#676,9.4);
#40=CYLINDRICAL_SURFACE('',#678,16.25);
#41=CYLINDRICAL_SURFACE('',#682,3.3);
#42=CYLINDRICAL_SURFACE('',#684,9.5);
#43=ELLIPSE('',#647,4.66690475583121,3.3);
#44=FACE_BOUND('',#163,.T.);
#45=FACE_BOUND('',#164,.T.);
#46=FACE_BOUND('',#181,.T.);
#47=FACE_BOUND('',#182,.T.);
#48=FACE_BOUND('',#183,.T.);
#49=FACE_BOUND('',#192,.T.);
#50=FACE_BOUND('',#193,.T.);
#51=FACE_BOUND('',#194,.T.);
#52=FACE_BOUND('',#195,.T.);
#53=FACE_BOUND('',#198,.T.);
#54=FACE_BOUND('',#199,.T.);
#55=FACE_BOUND('',#200,.T.);
#56=FACE_BOUND('',#201,.T.);
#57=CIRCLE('',#634,3.3);
#58=CIRCLE('',#635,10.5);
#59=CIRCLE('',#636,10.5);
#60=CIRCLE('',#637,13.4);
#61=CIRCLE('',#638,10.8);
#62=CIRCLE('',#639,10.8);
#63=CIRCLE('',#640,9.4);
#64=CIRCLE('',#653,10.5);
#65=CIRCLE('',#654,10.5);
#66=CIRCLE('',#661,9.5);
#67=CIRCLE('',#662,16.25);
#68=CIRCLE('',#663,13.4);
#69=CIRCLE('',#668,10.8);
#70=CIRCLE('',#669,10.8);
#71=CIRCLE('',#674,9.4);
#72=CIRCLE('',#677,16.25);
#73=CIRCLE('',#680,3.3);
#74=CIRCLE('',#683,9.5);
#75=ADVANCED_FACE('',(#134),#109,.F.);
#76=ADVANCED_FACE('',(#44,#45),#110,.T.);
#77=ADVANCED_FACE('',(#135),#111,.T.);
#78=ADVANCED_FACE('',(#136),#112,.T.);
#79=ADVANCED_FACE('',(#137),#113,.T.);
#80=ADVANCED_FACE('',(#138),#114,.T.);
#81=ADVANCED_FACE('',(#139),#115,.T.);
#82=ADVANCED_FACE('',(#140),#116,.F.);
#83=ADVANCED_FACE('',(#141),#117,.F.);
#84=ADVANCED_FACE('',(#142),#118,.F.);
#85=ADVANCED_FACE('',(#143),#119,.F.);
#86=ADVANCED_FACE('',(#144),#120,.F.);
#87=ADVANCED_FACE('',(#145),#121,.F.);
#88=ADVANCED_FACE('',(#146),#122,.F.);
#89=ADVANCED_FACE('',(#147),#34,.F.);
#90=ADVANCED_FACE('',(#148),#35,.F.);
#91=ADVANCED_FACE('',(#149),#123,.F.);
#92=ADVANCED_FACE('',(#150),#124,.F.);
#93=ADVANCED_FACE('',(#46,#47,#48),#125,.F.);
#94=ADVANCED_FACE('',(#151),#36,.F.);
#95=ADVANCED_FACE('',(#152),#126,.F.);
#96=ADVANCED_FACE('',(#153),#127,.F.);
#97=ADVANCED_FACE('',(#154),#128,.F.);
#98=ADVANCED_FACE('',(#155),#129,.F.);
#99=ADVANCED_FACE('',(#156),#37,.F.);
#100=ADVANCED_FACE('',(#157),#38,.F.);
#101=ADVANCED_FACE('',(#158),#130,.F.);
#102=ADVANCED_FACE('',(#49,#50),#39,.F.);
#103=ADVANCED_FACE('',(#51,#52),#40,.F.);
#104=ADVANCED_FACE('',(#159),#131,.F.);
#105=ADVANCED_FACE('',(#160),#132,.F.);
#106=ADVANCED_FACE('',(#53,#54),#41,.F.);
#107=ADVANCED_FACE('',(#55,#56),#42,.F.);
#108=ADVANCED_FACE('',(#161),#133,.F.);
#109=PLANE('',#633);
#110=PLANE('',#641);
#111=PLANE('',#642);
#112=PLANE('',#643);
#113=PLANE('',#644);
#114=PLANE('',#645);
#115=PLANE('',#646);
#116=PLANE('',#648);
#117=PLANE('',#649);
#118=PLANE('',#650);
#119=PLANE('',#651);
#120=PLANE('',#652);
#121=PLANE('',#655);
#122=PLANE('',#656);
#123=PLANE('',#659);
#124=PLANE('',#660);
#125=PLANE('',#664);
#126=PLANE('',#666);
#127=PLANE('',#667);
#128=PLANE('',#670);
#129=PLANE('',#671);
#130=PLANE('',#675);
#131=PLANE('',#679);
#132=PLANE('',#681);
#133=PLANE('',#685);
#134=FACE_OUTER_BOUND('',#162,.T.);
#135=FACE_OUTER_BOUND('',#165,.T.);
#136=FACE_OUTER_BOUND('',#166,.T.);
#137=FACE_OUTER_BOUND('',#167,.T.);
#138=FACE_OUTER_BOUND('',#168,.T.);
#139=FACE_OUTER_BOUND('',#169,.T.);
#140=FACE_OUTER_BOUND('',#170,.T.);
#141=FACE_OUTER_BOUND('',#171,.T.);
#142=FACE_OUTER_BOUND('',#172,.T.);
#143=FACE_OUTER_BOUND('',#173,.T.);
#144=FACE_OUTER_BOUND('',#174,.T.);
#145=FACE_OUTER_BOUND('',#175,.T.);
#146=FACE_OUTER_BOUND('',#176,.T.);
#147=FACE_OUTER_BOUND('',#177,.T.);
#148=FACE_OUTER_BOUND('',#178,.T.);
#149=FACE_OUTER_BOUND('',#179,.T.);
#150=FACE_OUTER_BOUND('',#180,.T.);
#151=FACE_OUTER_BOUND('',#184,.T.);
#152=FACE_OUTER_BOUND('',#185,.T.);
#153=FACE_OUTER_BOUND('',#186,.T.);
#154=FACE_OUTER_BOUND('',#187,.T.);
#155=FACE_OUTER_BOUND('',#188,.T.);
#156=FACE_OUTER_BOUND('',#189,.T.);
#157=FACE_OUTER_BOUND('',#190,.T.);
#158=FACE_OUTER_BOUND('',#191,.T.);
#159=FACE_OUTER_BOUND('',#196,.T.);
#160=FACE_OUTER_BOUND('',#197,.T.);
#161=FACE_OUTER_BOUND('',#202,.T.);
#162=EDGE_LOOP('',(#203,#204,#205,#206));
#163=EDGE_LOOP('',(#207,#208,#209,#210,#211,#212,#213,#214,#215,#216,#217,
#218,#219,#220,#221,#222,#223,#224,#225,#226,#227));
#164=EDGE_LOOP('',(#228));
#165=EDGE_LOOP('',(#229,#230,#231,#232,#233,#234,#235,#236,#237,#238,#239));
#166=EDGE_LOOP('',(#240,#241,#242,#243));
#167=EDGE_LOOP('',(#244,#245,#246,#247,#248,#249,#250,#251,#252,#253));
#168=EDGE_LOOP('',(#254,#255,#256,#257));
#169=EDGE_LOOP('',(#258,#259,#260,#261,#262,#263));
#170=EDGE_LOOP('',(#264,#265,#266,#267,#268,#269,#270));
#171=EDGE_LOOP('',(#271,#272,#273,#274));
#172=EDGE_LOOP('',(#275,#276,#277,#278));
#173=EDGE_LOOP('',(#279,#280,#281,#282,#283));
#174=EDGE_LOOP('',(#284,#285,#286,#287));
#175=EDGE_LOOP('',(#288,#289,#290,#291,#292,#293));
#176=EDGE_LOOP('',(#294,#295,#296,#297,#298));
#177=EDGE_LOOP('',(#299,#300,#301,#302));
#178=EDGE_LOOP('',(#303,#304,#305,#306));
#179=EDGE_LOOP('',(#307,#308,#309,#310,#311));
#180=EDGE_LOOP('',(#312,#313,#314,#315,#316));
#181=EDGE_LOOP('',(#317));
#182=EDGE_LOOP('',(#318));
#183=EDGE_LOOP('',(#319,#320,#321,#322,#323));
#184=EDGE_LOOP('',(#324,#325,#326,#327));
#185=EDGE_LOOP('',(#328,#329,#330,#331));
#186=EDGE_LOOP('',(#332,#333,#334,#335));
#187=EDGE_LOOP('',(#336,#337,#338,#339,#340,#341));
#188=EDGE_LOOP('',(#342,#343,#344,#345));
#189=EDGE_LOOP('',(#346,#347,#348,#349));
#190=EDGE_LOOP('',(#350,#351,#352,#353));
#191=EDGE_LOOP('',(#354));
#192=EDGE_LOOP('',(#355));
#193=EDGE_LOOP('',(#356));
#194=EDGE_LOOP('',(#357));
#195=EDGE_LOOP('',(#358));
#196=EDGE_LOOP('',(#359));
#197=EDGE_LOOP('',(#360));
#198=EDGE_LOOP('',(#361,#362));
#199=EDGE_LOOP('',(#363));
#200=EDGE_LOOP('',(#364));
#201=EDGE_LOOP('',(#365));
#202=EDGE_LOOP('',(#366));
#203=ORIENTED_EDGE('',*,*,#424,.F.);
#204=ORIENTED_EDGE('',*,*,#425,.F.);
#205=ORIENTED_EDGE('',*,*,#426,.F.);
#206=ORIENTED_EDGE('',*,*,#427,.F.);
#207=ORIENTED_EDGE('',*,*,#428,.F.);
#208=ORIENTED_EDGE('',*,*,#429,.T.);
#209=ORIENTED_EDGE('',*,*,#425,.T.);
#210=ORIENTED_EDGE('',*,*,#430,.F.);
#211=ORIENTED_EDGE('',*,*,#431,.T.);
#212=ORIENTED_EDGE('',*,*,#432,.F.);
#213=ORIENTED_EDGE('',*,*,#433,.T.);
#214=ORIENTED_EDGE('',*,*,#434,.F.);
#215=ORIENTED_EDGE('',*,*,#435,.T.);
#216=ORIENTED_EDGE('',*,*,#436,.F.);
#217=ORIENTED_EDGE('',*,*,#437,.T.);
#218=ORIENTED_EDGE('',*,*,#438,.F.);
#219=ORIENTED_EDGE('',*,*,#439,.T.);
#220=ORIENTED_EDGE('',*,*,#440,.F.);
#221=ORIENTED_EDGE('',*,*,#441,.F.);
#222=ORIENTED_EDGE('',*,*,#442,.T.);
#223=ORIENTED_EDGE('',*,*,#443,.F.);
#224=ORIENTED_EDGE('',*,*,#444,.T.);
#225=ORIENTED_EDGE('',*,*,#445,.F.);
#226=ORIENTED_EDGE('',*,*,#446,.F.);
#227=ORIENTED_EDGE('',*,*,#447,.T.);
#228=ORIENTED_EDGE('',*,*,#448,.F.);
#229=ORIENTED_EDGE('',*,*,#449,.T.);
#230=ORIENTED_EDGE('',*,*,#450,.T.);
#231=ORIENTED_EDGE('',*,*,#451,.F.);
#232=ORIENTED_EDGE('',*,*,#452,.F.);
#233=ORIENTED_EDGE('',*,*,#453,.T.);
#234=ORIENTED_EDGE('',*,*,#427,.T.);
#235=ORIENTED_EDGE('',*,*,#454,.T.);
#236=ORIENTED_EDGE('',*,*,#455,.F.);
#237=ORIENTED_EDGE('',*,*,#456,.T.);
#238=ORIENTED_EDGE('',*,*,#457,.T.);
#239=ORIENTED_EDGE('',*,*,#458,.F.);
#240=ORIENTED_EDGE('',*,*,#455,.T.);
#241=ORIENTED_EDGE('',*,*,#459,.T.);
#242=ORIENTED_EDGE('',*,*,#460,.F.);
#243=ORIENTED_EDGE('',*,*,#461,.T.);
#244=ORIENTED_EDGE('',*,*,#462,.F.);
#245=ORIENTED_EDGE('',*,*,#463,.F.);
#246=ORIENTED_EDGE('',*,*,#464,.T.);
#247=ORIENTED_EDGE('',*,*,#440,.T.);
#248=ORIENTED_EDGE('',*,*,#465,.T.);
#249=ORIENTED_EDGE('',*,*,#466,.F.);
#250=ORIENTED_EDGE('',*,*,#467,.T.);
#251=ORIENTED_EDGE('',*,*,#460,.T.);
#252=ORIENTED_EDGE('',*,*,#468,.T.);
#253=ORIENTED_EDGE('',*,*,#446,.T.);
#254=ORIENTED_EDGE('',*,*,#469,.F.);
#255=ORIENTED_EDGE('',*,*,#456,.F.);
#256=ORIENTED_EDGE('',*,*,#461,.F.);
#257=ORIENTED_EDGE('',*,*,#467,.F.);
#258=ORIENTED_EDGE('',*,*,#470,.F.);
#259=ORIENTED_EDGE('',*,*,#471,.F.);
#260=ORIENTED_EDGE('',*,*,#457,.F.);
#261=ORIENTED_EDGE('',*,*,#469,.T.);
#262=ORIENTED_EDGE('',*,*,#466,.T.);
#263=ORIENTED_EDGE('',*,*,#472,.T.);
#264=ORIENTED_EDGE('',*,*,#473,.F.);
#265=ORIENTED_EDGE('',*,*,#447,.F.);
#266=ORIENTED_EDGE('',*,*,#468,.F.);
#267=ORIENTED_EDGE('',*,*,#459,.F.);
#268=ORIENTED_EDGE('',*,*,#454,.F.);
#269=ORIENTED_EDGE('',*,*,#426,.T.);
#270=ORIENTED_EDGE('',*,*,#429,.F.);
#271=ORIENTED_EDGE('',*,*,#474,.F.);
#272=ORIENTED_EDGE('',*,*,#472,.F.);
#273=ORIENTED_EDGE('',*,*,#465,.F.);
#274=ORIENTED_EDGE('',*,*,#439,.F.);
#275=ORIENTED_EDGE('',*,*,#475,.F.);
#276=ORIENTED_EDGE('',*,*,#435,.F.);
#277=ORIENTED_EDGE('',*,*,#476,.F.);
#278=ORIENTED_EDGE('',*,*,#450,.F.);
#279=ORIENTED_EDGE('',*,*,#477,.T.);
#280=ORIENTED_EDGE('',*,*,#478,.T.);
#281=ORIENTED_EDGE('',*,*,#430,.T.);
#282=ORIENTED_EDGE('',*,*,#424,.T.);
#283=ORIENTED_EDGE('',*,*,#453,.F.);
#284=ORIENTED_EDGE('',*,*,#479,.T.);
#285=ORIENTED_EDGE('',*,*,#480,.T.);
#286=ORIENTED_EDGE('',*,*,#432,.T.);
#287=ORIENTED_EDGE('',*,*,#481,.T.);
#288=ORIENTED_EDGE('',*,*,#482,.F.);
#289=ORIENTED_EDGE('',*,*,#483,.T.);
#290=ORIENTED_EDGE('',*,*,#479,.F.);
#291=ORIENTED_EDGE('',*,*,#484,.T.);
#292=ORIENTED_EDGE('',*,*,#477,.F.);
#293=ORIENTED_EDGE('',*,*,#452,.T.);
#294=ORIENTED_EDGE('',*,*,#434,.T.);
#295=ORIENTED_EDGE('',*,*,#485,.T.);
#296=ORIENTED_EDGE('',*,*,#482,.T.);
#297=ORIENTED_EDGE('',*,*,#451,.T.);
#298=ORIENTED_EDGE('',*,*,#476,.T.);
#299=ORIENTED_EDGE('',*,*,#433,.F.);
#300=ORIENTED_EDGE('',*,*,#480,.F.);
#301=ORIENTED_EDGE('',*,*,#483,.F.);
#302=ORIENTED_EDGE('',*,*,#485,.F.);
#303=ORIENTED_EDGE('',*,*,#431,.F.);
#304=ORIENTED_EDGE('',*,*,#478,.F.);
#305=ORIENTED_EDGE('',*,*,#484,.F.);
#306=ORIENTED_EDGE('',*,*,#481,.F.);
#307=ORIENTED_EDGE('',*,*,#486,.T.);
#308=ORIENTED_EDGE('',*,*,#487,.T.);
#309=ORIENTED_EDGE('',*,*,#436,.T.);
#310=ORIENTED_EDGE('',*,*,#475,.T.);
#311=ORIENTED_EDGE('',*,*,#449,.F.);
#312=ORIENTED_EDGE('',*,*,#438,.T.);
#313=ORIENTED_EDGE('',*,*,#488,.T.);
#314=ORIENTED_EDGE('',*,*,#489,.T.);
#315=ORIENTED_EDGE('',*,*,#470,.T.);
#316=ORIENTED_EDGE('',*,*,#474,.T.);
#317=ORIENTED_EDGE('',*,*,#490,.T.);
#318=ORIENTED_EDGE('',*,*,#491,.T.);
#319=ORIENTED_EDGE('',*,*,#489,.F.);
#320=ORIENTED_EDGE('',*,*,#492,.T.);
#321=ORIENTED_EDGE('',*,*,#486,.F.);
#322=ORIENTED_EDGE('',*,*,#458,.T.);
#323=ORIENTED_EDGE('',*,*,#471,.T.);
#324=ORIENTED_EDGE('',*,*,#437,.F.);
#325=ORIENTED_EDGE('',*,*,#487,.F.);
#326=ORIENTED_EDGE('',*,*,#492,.F.);
#327=ORIENTED_EDGE('',*,*,#488,.F.);
#328=ORIENTED_EDGE('',*,*,#443,.T.);
#329=ORIENTED_EDGE('',*,*,#493,.T.);
#330=ORIENTED_EDGE('',*,*,#494,.T.);
#331=ORIENTED_EDGE('',*,*,#495,.T.);
#332=ORIENTED_EDGE('',*,*,#445,.T.);
#333=ORIENTED_EDGE('',*,*,#496,.T.);
#334=ORIENTED_EDGE('',*,*,#497,.T.);
#335=ORIENTED_EDGE('',*,*,#462,.T.);
#336=ORIENTED_EDGE('',*,*,#494,.F.);
#337=ORIENTED_EDGE('',*,*,#498,.T.);
#338=ORIENTED_EDGE('',*,*,#499,.F.);
#339=ORIENTED_EDGE('',*,*,#463,.T.);
#340=ORIENTED_EDGE('',*,*,#497,.F.);
#341=ORIENTED_EDGE('',*,*,#500,.T.);
#342=ORIENTED_EDGE('',*,*,#499,.T.);
#343=ORIENTED_EDGE('',*,*,#501,.T.);
#344=ORIENTED_EDGE('',*,*,#441,.T.);
#345=ORIENTED_EDGE('',*,*,#464,.F.);
#346=ORIENTED_EDGE('',*,*,#442,.F.);
#347=ORIENTED_EDGE('',*,*,#501,.F.);
#348=ORIENTED_EDGE('',*,*,#498,.F.);
#349=ORIENTED_EDGE('',*,*,#493,.F.);
#350=ORIENTED_EDGE('',*,*,#444,.F.);
#351=ORIENTED_EDGE('',*,*,#495,.F.);
#352=ORIENTED_EDGE('',*,*,#500,.F.);
#353=ORIENTED_EDGE('',*,*,#496,.F.);
#354=ORIENTED_EDGE('',*,*,#502,.F.);
#355=ORIENTED_EDGE('',*,*,#448,.T.);
#356=ORIENTED_EDGE('',*,*,#502,.T.);
#357=ORIENTED_EDGE('',*,*,#503,.T.);
#358=ORIENTED_EDGE('',*,*,#491,.F.);
#359=ORIENTED_EDGE('',*,*,#503,.F.);
#360=ORIENTED_EDGE('',*,*,#504,.F.);
#361=ORIENTED_EDGE('',*,*,#428,.T.);
#362=ORIENTED_EDGE('',*,*,#473,.T.);
#363=ORIENTED_EDGE('',*,*,#504,.T.);
#364=ORIENTED_EDGE('',*,*,#505,.T.);
#365=ORIENTED_EDGE('',*,*,#490,.F.);
#366=ORIENTED_EDGE('',*,*,#505,.F.);
#367=VERTEX_POINT('',#859);
#368=VERTEX_POINT('',#860);
#369=VERTEX_POINT('',#862);
#370=VERTEX_POINT('',#864);
#371=VERTEX_POINT('',#868);
#372=VERTEX_POINT('',#869);
#373=VERTEX_POINT('',#872);
#374=VERTEX_POINT('',#874);
#375=VERTEX_POINT('',#876);
#376=VERTEX_POINT('',#878);
#377=VERTEX_POINT('',#880);
#378=VERTEX_POINT('',#882);
#379=VERTEX_POINT('',#884);
#380=VERTEX_POINT('',#886);
#381=VERTEX_POINT('',#888);
#382=VERTEX_POINT('',#890);
#383=VERTEX_POINT('',#892);
#384=VERTEX_POINT('',#894);
#385=VERTEX_POINT('',#896);
#386=VERTEX_POINT('',#898);
#387=VERTEX_POINT('',#900);
#388=VERTEX_POINT('',#902);
#389=VERTEX_POINT('',#904);
#390=VERTEX_POINT('',#907);
#391=VERTEX_POINT('',#910);
#392=VERTEX_POINT('',#911);
#393=VERTEX_POINT('',#913);
#394=VERTEX_POINT('',#915);
#395=VERTEX_POINT('',#917);
#396=VERTEX_POINT('',#920);
#397=VERTEX_POINT('',#922);
#398=VERTEX_POINT('',#924);
#399=VERTEX_POINT('',#926);
#400=VERTEX_POINT('',#930);
#401=VERTEX_POINT('',#932);
#402=VERTEX_POINT('',#936);
#403=VERTEX_POINT('',#938);
#404=VERTEX_POINT('',#941);
#405=VERTEX_POINT('',#943);
#406=VERTEX_POINT('',#950);
#407=VERTEX_POINT('',#951);
#408=VERTEX_POINT('',#963);
#409=VERTEX_POINT('',#967);
#410=VERTEX_POINT('',#968);
#411=VERTEX_POINT('',#973);
#412=VERTEX_POINT('',#982);
#413=VERTEX_POINT('',#986);
#414=VERTEX_POINT('',#990);
#415=VERTEX_POINT('',#992);
#416=VERTEX_POINT('',#997);
#417=VERTEX_POINT('',#999);
#418=VERTEX_POINT('',#1003);
#419=VERTEX_POINT('',#1007);
#420=VERTEX_POINT('',#1016);
#421=VERTEX_POINT('',#1020);
#422=VERTEX_POINT('',#1024);
#423=VERTEX_POINT('',#1028);
#424=EDGE_CURVE('',#367,#368,#506,.T.);
#425=EDGE_CURVE('',#369,#367,#507,.T.);
#426=EDGE_CURVE('',#370,#369,#508,.T.);
#427=EDGE_CURVE('',#368,#370,#509,.T.);
#428=EDGE_CURVE('',#371,#372,#57,.T.);
#429=EDGE_CURVE('',#371,#369,#510,.T.);
#430=EDGE_CURVE('',#373,#367,#511,.T.);
#431=EDGE_CURVE('',#373,#374,#58,.T.);
#432=EDGE_CURVE('',#375,#374,#512,.T.);
#433=EDGE_CURVE('',#375,#376,#59,.T.);
#434=EDGE_CURVE('',#377,#376,#513,.T.);
#435=EDGE_CURVE('',#377,#378,#514,.T.);
#436=EDGE_CURVE('',#379,#378,#515,.T.);
#437=EDGE_CURVE('',#379,#380,#60,.T.);
#438=EDGE_CURVE('',#381,#380,#516,.T.);
#439=EDGE_CURVE('',#381,#382,#517,.T.);
#440=EDGE_CURVE('',#383,#382,#518,.T.);
#441=EDGE_CURVE('',#384,#383,#519,.T.);
#442=EDGE_CURVE('',#384,#385,#61,.T.);
#443=EDGE_CURVE('',#386,#385,#520,.T.);
#444=EDGE_CURVE('',#386,#387,#62,.T.);
#445=EDGE_CURVE('',#388,#387,#521,.T.);
#446=EDGE_CURVE('',#389,#388,#522,.T.);
#447=EDGE_CURVE('',#389,#372,#523,.T.);
#448=EDGE_CURVE('',#390,#390,#63,.T.);
#449=EDGE_CURVE('',#391,#392,#524,.T.);
#450=EDGE_CURVE('',#392,#393,#525,.T.);
#451=EDGE_CURVE('',#394,#393,#526,.T.);
#452=EDGE_CURVE('',#395,#394,#527,.T.);
#453=EDGE_CURVE('',#395,#368,#528,.T.);
#454=EDGE_CURVE('',#370,#396,#529,.T.);
#455=EDGE_CURVE('',#397,#396,#530,.T.);
#456=EDGE_CURVE('',#397,#398,#531,.T.);
#457=EDGE_CURVE('',#398,#399,#532,.T.);
#458=EDGE_CURVE('',#391,#399,#533,.T.);
#459=EDGE_CURVE('',#396,#400,#534,.T.);
#460=EDGE_CURVE('',#401,#400,#535,.T.);
#461=EDGE_CURVE('',#401,#397,#536,.T.);
#462=EDGE_CURVE('',#402,#388,#537,.T.);
#463=EDGE_CURVE('',#403,#402,#538,.T.);
#464=EDGE_CURVE('',#403,#383,#539,.T.);
#465=EDGE_CURVE('',#382,#404,#540,.T.);
#466=EDGE_CURVE('',#405,#404,#541,.T.);
#467=EDGE_CURVE('',#405,#401,#542,.T.);
#468=EDGE_CURVE('',#400,#389,#543,.T.);
#469=EDGE_CURVE('',#398,#405,#544,.T.);
#470=EDGE_CURVE('',#406,#407,#545,.T.);
#471=EDGE_CURVE('',#399,#406,#546,.T.);
#472=EDGE_CURVE('',#404,#407,#547,.T.);
#473=EDGE_CURVE('',#372,#371,#43,.T.);
#474=EDGE_CURVE('',#407,#381,#548,.T.);
#475=EDGE_CURVE('',#378,#392,#549,.T.);
#476=EDGE_CURVE('',#393,#377,#550,.T.);
#477=EDGE_CURVE('',#395,#408,#551,.T.);
#478=EDGE_CURVE('',#408,#373,#552,.T.);
#479=EDGE_CURVE('',#409,#410,#553,.T.);
#480=EDGE_CURVE('',#410,#375,#554,.T.);
#481=EDGE_CURVE('',#374,#409,#555,.T.);
#482=EDGE_CURVE('',#411,#394,#556,.T.);
#483=EDGE_CURVE('',#411,#410,#64,.T.);
#484=EDGE_CURVE('',#409,#408,#65,.T.);
#485=EDGE_CURVE('',#376,#411,#557,.T.);
#486=EDGE_CURVE('',#391,#412,#558,.T.);
#487=EDGE_CURVE('',#412,#379,#559,.T.);
#488=EDGE_CURVE('',#380,#413,#560,.T.);
#489=EDGE_CURVE('',#413,#406,#561,.T.);
#490=EDGE_CURVE('',#414,#414,#66,.T.);
#491=EDGE_CURVE('',#415,#415,#67,.T.);
#492=EDGE_CURVE('',#413,#412,#68,.T.);
#493=EDGE_CURVE('',#385,#416,#562,.T.);
#494=EDGE_CURVE('',#416,#417,#563,.T.);
#495=EDGE_CURVE('',#417,#386,#564,.T.);
#496=EDGE_CURVE('',#387,#418,#565,.T.);
#497=EDGE_CURVE('',#418,#402,#566,.T.);
#498=EDGE_CURVE('',#416,#419,#69,.T.);
#499=EDGE_CURVE('',#403,#419,#567,.T.);
#500=EDGE_CURVE('',#418,#417,#70,.T.);
#501=EDGE_CURVE('',#419,#384,#568,.T.);
#502=EDGE_CURVE('',#420,#420,#71,.T.);
#503=EDGE_CURVE('',#421,#421,#72,.T.);
#504=EDGE_CURVE('',#422,#422,#73,.T.);
#505=EDGE_CURVE('',#423,#423,#74,.T.);
#506=LINE('',#858,#569);
#507=LINE('',#861,#570);
#508=LINE('',#863,#571);
#509=LINE('',#865,#572);
#510=LINE('',#870,#573);
#511=LINE('',#871,#574);
#512=LINE('',#875,#575);
#513=LINE('',#879,#576);
#514=LINE('',#881,#577);
#515=LINE('',#883,#578);
#516=LINE('',#887,#579);
#517=LINE('',#889,#580);
#518=LINE('',#891,#581);
#519=LINE('',#893,#582);
#520=LINE('',#897,#583);
#521=LINE('',#901,#584);
#522=LINE('',#903,#585);
#523=LINE('',#905,#586);
#524=LINE('',#909,#587);
#525=LINE('',#912,#588);
#526=LINE('',#914,#589);
#527=LINE('',#916,#590);
#528=LINE('',#918,#591);
#529=LINE('',#919,#592);
#530=LINE('',#921,#593);
#531=LINE('',#923,#594);
#532=LINE('',#925,#595);
#533=LINE('',#927,#596);
#534=LINE('',#929,#597);
#535=LINE('',#931,#598);
#536=LINE('',#933,#599);
#537=LINE('',#935,#600);
#538=LINE('',#937,#601);
#539=LINE('',#939,#602);
#540=LINE('',#940,#603);
#541=LINE('',#942,#604);
#542=LINE('',#944,#605);
#543=LINE('',#945,#606);
#544=LINE('',#947,#607);
#545=LINE('',#949,#608);
#546=LINE('',#952,#609);
#547=LINE('',#953,#610);
#548=LINE('',#957,#611);
#549=LINE('',#959,#612);
#550=LINE('',#960,#613);
#551=LINE('',#962,#614);
#552=LINE('',#964,#615);
#553=LINE('',#966,#616);
#554=LINE('',#969,#617);
#555=LINE('',#970,#618);
#556=LINE('',#972,#619);
#557=LINE('',#977,#620);
#558=LINE('',#981,#621);
#559=LINE('',#983,#622);
#560=LINE('',#985,#623);
#561=LINE('',#987,#624);
#562=LINE('',#996,#625);
#563=LINE('',#998,#626);
#564=LINE('',#1000,#627);
#565=LINE('',#1002,#628);
#566=LINE('',#1004,#629);
#567=LINE('',#1008,#630);
#568=LINE('',#1011,#631);
#569=VECTOR('',#688,1.);
#570=VECTOR('',#689,1.);
#571=VECTOR('',#690,1.);
#572=VECTOR('',#691,1.);
#573=VECTOR('',#696,1.);
#574=VECTOR('',#697,1.);
#575=VECTOR('',#700,1.);
#576=VECTOR('',#703,1.);
#577=VECTOR('',#704,1.);
#578=VECTOR('',#705,1.);
#579=VECTOR('',#708,1.);
#580=VECTOR('',#709,1.);
#581=VECTOR('',#710,1.);
#582=VECTOR('',#711,1.);
#583=VECTOR('',#714,1.);
#584=VECTOR('',#717,1.);
#585=VECTOR('',#718,1.);
#586=VECTOR('',#719,1.);
#587=VECTOR('',#724,1.);
#588=VECTOR('',#725,1.);
#589=VECTOR('',#726,1.);
#590=VECTOR('',#727,1.);
#591=VECTOR('',#728,1.);
#592=VECTOR('',#729,1.);
#593=VECTOR('',#730,1.);
#594=VECTOR('',#731,1.);
#595=VECTOR('',#732,1.);
#596=VECTOR('',#733,1.);
#597=VECTOR('',#736,1.);
#598=VECTOR('',#737,1.);
#599=VECTOR('',#738,1.);
#600=VECTOR('',#741,1.);
#601=VECTOR('',#742,1.);
#602=VECTOR('',#743,1.);
#603=VECTOR('',#744,1.);
#604=VECTOR('',#745,1.);
#605=VECTOR('',#746,1.);
#606=VECTOR('',#747,1.);
#607=VECTOR('',#750,1.);
#608=VECTOR('',#753,1.);
#609=VECTOR('',#754,1.);
#610=VECTOR('',#755,1.);
#611=VECTOR('',#762,1.);
#612=VECTOR('',#765,1.);
#613=VECTOR('',#766,1.);
#614=VECTOR('',#769,1.);
#615=VECTOR('',#770,1.);
#616=VECTOR('',#773,1.);
#617=VECTOR('',#774,1.);
#618=VECTOR('',#775,1.);
#619=VECTOR('',#778,1.);
#620=VECTOR('',#785,1.);
#621=VECTOR('',#792,1.);
#622=VECTOR('',#793,1.);
#623=VECTOR('',#796,1.);
#624=VECTOR('',#797,1.);
#625=VECTOR('',#810,1.);
#626=VECTOR('',#811,1.);
#627=VECTOR('',#812,1.);
#628=VECTOR('',#815,1.);
#629=VECTOR('',#816,1.);
#630=VECTOR('',#821,1.);
#631=VECTOR('',#826,1.);
#632=AXIS2_PLACEMENT_3D('',#857,#686,#687);
#633=AXIS2_PLACEMENT_3D('',#866,#692,#693);
#634=AXIS2_PLACEMENT_3D('',#867,#694,#695);
#635=AXIS2_PLACEMENT_3D('',#873,#698,#699);
#636=AXIS2_PLACEMENT_3D('',#877,#701,#702);
#637=AXIS2_PLACEMENT_3D('',#885,#706,#707);
#638=AXIS2_PLACEMENT_3D('',#895,#712,#713);
#639=AXIS2_PLACEMENT_3D('',#899,#715,#716);
#640=AXIS2_PLACEMENT_3D('',#906,#720,#721);
#641=AXIS2_PLACEMENT_3D('',#908,#722,#723);
#642=AXIS2_PLACEMENT_3D('',#928,#734,#735);
#643=AXIS2_PLACEMENT_3D('',#934,#739,#740);
#644=AXIS2_PLACEMENT_3D('',#946,#748,#749);
#645=AXIS2_PLACEMENT_3D('',#948,#751,#752);
#646=AXIS2_PLACEMENT_3D('',#954,#756,#757);
#647=AXIS2_PLACEMENT_3D('',#955,#758,#759);
#648=AXIS2_PLACEMENT_3D('',#956,#760,#761);
#649=AXIS2_PLACEMENT_3D('',#958,#763,#764);
#650=AXIS2_PLACEMENT_3D('',#961,#767,#768);
#651=AXIS2_PLACEMENT_3D('',#965,#771,#772);
#652=AXIS2_PLACEMENT_3D('',#971,#776,#777);
#653=AXIS2_PLACEMENT_3D('',#974,#779,#780);
#654=AXIS2_PLACEMENT_3D('',#975,#781,#782);
#655=AXIS2_PLACEMENT_3D('',#976,#783,#784);
#656=AXIS2_PLACEMENT_3D('',#978,#786,#787);
#657=AXIS2_PLACEMENT_3D('',#979,#788,#789);
#658=AXIS2_PLACEMENT_3D('',#980,#790,#791);
#659=AXIS2_PLACEMENT_3D('',#984,#794,#795);
#660=AXIS2_PLACEMENT_3D('',#988,#798,#799);
#661=AXIS2_PLACEMENT_3D('',#989,#800,#801);
#662=AXIS2_PLACEMENT_3D('',#991,#802,#803);
#663=AXIS2_PLACEMENT_3D('',#993,#804,#805);
#664=AXIS2_PLACEMENT_3D('',#994,#806,#807);
#665=AXIS2_PLACEMENT_3D('',#995,#808,#809);
#666=AXIS2_PLACEMENT_3D('',#1001,#813,#814);
#667=AXIS2_PLACEMENT_3D('',#1005,#817,#818);
#668=AXIS2_PLACEMENT_3D('',#1006,#819,#820);
#669=AXIS2_PLACEMENT_3D('',#1009,#822,#823);
#670=AXIS2_PLACEMENT_3D('',#1010,#824,#825);
#671=AXIS2_PLACEMENT_3D('',#1012,#827,#828);
#672=AXIS2_PLACEMENT_3D('',#1013,#829,#830);
#673=AXIS2_PLACEMENT_3D('',#1014,#831,#832);
#674=AXIS2_PLACEMENT_3D('',#1015,#833,#834);
#675=AXIS2_PLACEMENT_3D('',#1017,#835,#836);
#676=AXIS2_PLACEMENT_3D('',#1018,#837,#838);
#677=AXIS2_PLACEMENT_3D('',#1019,#839,#840);
#678=AXIS2_PLACEMENT_3D('',#1021,#841,#842);
#679=AXIS2_PLACEMENT_3D('',#1022,#843,#844);
#680=AXIS2_PLACEMENT_3D('',#1023,#845,#846);
#681=AXIS2_PLACEMENT_3D('',#1025,#847,#848);
#682=AXIS2_PLACEMENT_3D('',#1026,#849,#850);
#683=AXIS2_PLACEMENT_3D('',#1027,#851,#852);
#684=AXIS2_PLACEMENT_3D('',#1029,#853,#854);
#685=AXIS2_PLACEMENT_3D('',#1030,#855,#856);
#686=DIRECTION('',(0.,0.,1.));
#687=DIRECTION('',(1.,0.,0.));
#688=DIRECTION('',(0.,-0.707106781186548,-0.707106781186548));
#689=DIRECTION('',(1.,0.,0.));
#690=DIRECTION('',(0.577350269189626,0.577350269189626,0.577350269189626));
#691=DIRECTION('',(-1.,0.,0.));
#692=DIRECTION('',(0.,0.707106781186547,-0.707106781186547));
#693=DIRECTION('',(-1.,0.,0.));
#694=DIRECTION('',(0.,0.,1.));
#695=DIRECTION('',(1.,0.,0.));
#696=DIRECTION('',(0.,-1.,0.));
#697=DIRECTION('',(0.,-1.,0.));
#698=DIRECTION('',(0.,0.,-1.));
#699=DIRECTION('',(1.,0.,0.));
#700=DIRECTION('',(-1.,0.,0.));
#701=DIRECTION('',(0.,0.,-1.));
#702=DIRECTION('',(1.,0.,0.));
#703=DIRECTION('',(0.,1.,0.));
#704=DIRECTION('',(1.,0.,0.));
#705=DIRECTION('',(0.,-1.,0.));
#706=DIRECTION('',(0.,0.,-1.));
#707=DIRECTION('',(1.,0.,0.));
#708=DIRECTION('',(-1.,0.,0.));
#709=DIRECTION('',(0.,1.,0.));
#710=DIRECTION('',(1.,0.,0.));
#711=DIRECTION('',(0.,1.,0.));
#712=DIRECTION('',(0.,0.,-1.));
#713=DIRECTION('',(0.999999999999998,0.,0.));
#714=DIRECTION('',(1.,0.,0.));
#715=DIRECTION('',(0.,0.,-1.));
#716=DIRECTION('',(1.,0.,0.));
#717=DIRECTION('',(0.,-1.,0.));
#718=DIRECTION('',(1.,0.,0.));
#719=DIRECTION('',(0.,-1.,0.));
#720=DIRECTION('',(0.,0.,1.));
#721=DIRECTION('',(0.999999999999999,0.,0.));
#722=DIRECTION('',(0.,0.,1.));
#723=DIRECTION('',(1.,0.,0.));
#724=DIRECTION('',(0.,0.,1.));
#725=DIRECTION('',(-1.,0.,0.));
#726=DIRECTION('',(0.,0.,1.));
#727=DIRECTION('',(1.,0.,0.));
#728=DIRECTION('',(0.,0.,1.));
#729=DIRECTION('',(-0.707106781186548,0.,-0.707106781186547));
#730=DIRECTION('',(0.,0.,1.));
#731=DIRECTION('',(1.,0.,0.));
#732=DIRECTION('',(0.,0.,1.));
#733=DIRECTION('',(1.,0.,0.));
#734=DIRECTION('',(0.,-1.,0.));
#735=DIRECTION('',(0.,0.,-1.));
#736=DIRECTION('',(0.,1.,0.));
#737=DIRECTION('',(0.,0.,1.));
#738=DIRECTION('',(0.,-1.,0.));
#739=DIRECTION('',(-1.,0.,0.));
#740=DIRECTION('',(0.,0.,1.));
#741=DIRECTION('',(0.,0.,1.));
#742=DIRECTION('',(-1.,0.,0.));
#743=DIRECTION('',(0.,0.,1.));
#744=DIRECTION('',(0.707106781186547,0.,-0.707106781186548));
#745=DIRECTION('',(0.,0.,1.));
#746=DIRECTION('',(-1.,0.,0.));
#747=DIRECTION('',(0.707106781186548,0.,0.707106781186547));
#748=DIRECTION('',(0.,1.,0.));
#749=DIRECTION('',(0.,0.,1.));
#750=DIRECTION('',(0.,1.,0.));
#751=DIRECTION('',(0.,0.,-1.));
#752=DIRECTION('',(-1.,0.,0.));
#753=DIRECTION('',(0.,0.,1.));
#754=DIRECTION('',(0.,1.,0.));
#755=DIRECTION('',(0.,-1.,0.));
#756=DIRECTION('',(1.,0.,0.));
#757=DIRECTION('',(0.,0.,-1.));
#758=DIRECTION('',(-0.707106781186547,0.,0.707106781186548));
#759=DIRECTION('',(-0.707106781186548,0.,-0.707106781186547));
#760=DIRECTION('',(0.707106781186547,0.,-0.707106781186548));
#761=DIRECTION('',(0.,1.,0.));
#762=DIRECTION('',(-0.707106781186547,0.,0.707106781186548));
#763=DIRECTION('',(-0.707106781186548,0.,-0.707106781186547));
#764=DIRECTION('',(0.,-1.,0.));
#765=DIRECTION('',(0.,-0.707106781186548,-0.707106781186548));
#766=DIRECTION('',(0.,0.707106781186548,0.707106781186548));
#767=DIRECTION('',(0.,0.707106781186547,-0.707106781186547));
#768=DIRECTION('',(-1.,0.,0.));
#769=DIRECTION('',(0.,1.,0.));
#770=DIRECTION('',(0.,0.,1.));
#771=DIRECTION('',(-1.,0.,0.));
#772=DIRECTION('',(0.,0.,1.));
#773=DIRECTION('',(1.,0.,0.));
#774=DIRECTION('',(0.,0.,1.));
#775=DIRECTION('',(0.,0.,-1.));
#776=DIRECTION('',(0.,1.,0.));
#777=DIRECTION('',(0.,0.,1.));
#778=DIRECTION('',(0.,-1.,0.));
#779=DIRECTION('',(0.,0.,1.));
#780=DIRECTION('',(-1.,0.,0.));
#781=DIRECTION('',(0.,0.,1.));
#782=DIRECTION('',(-1.,0.,0.));
#783=DIRECTION('',(0.,0.,-1.));
#784=DIRECTION('',(-1.,0.,0.));
#785=DIRECTION('',(0.,0.,-1.));
#786=DIRECTION('',(1.,0.,0.));
#787=DIRECTION('',(0.,0.,-1.));
#788=DIRECTION('',(0.,0.,1.));
#789=DIRECTION('',(1.,0.,0.));
#790=DIRECTION('',(0.,0.,1.));
#791=DIRECTION('',(1.,0.,0.));
#792=DIRECTION('',(0.,1.,0.));
#793=DIRECTION('',(0.,0.,1.));
#794=DIRECTION('',(-1.,0.,0.));
#795=DIRECTION('',(0.,0.,1.));
#796=DIRECTION('',(0.,0.,-1.));
#797=DIRECTION('',(1.,0.,0.));
#798=DIRECTION('',(0.,1.,0.));
#799=DIRECTION('',(0.,0.,1.));
#800=DIRECTION('',(0.,0.,-1.));
#801=DIRECTION('',(-1.,0.,0.));
#802=DIRECTION('',(0.,0.,-1.));
#803=DIRECTION('',(-0.999999999999999,0.,0.));
#804=DIRECTION('',(0.,0.,1.));
#805=DIRECTION('',(-1.,0.,0.));
#806=DIRECTION('',(0.,0.,-1.));
#807=DIRECTION('',(-1.,0.,0.));
#808=DIRECTION('',(0.,0.,1.));
#809=DIRECTION('',(1.,0.,0.));
#810=DIRECTION('',(0.,0.,-1.));
#811=DIRECTION('',(-1.,0.,0.));
#812=DIRECTION('',(0.,0.,1.));
#813=DIRECTION('',(0.,-1.,0.));
#814=DIRECTION('',(0.,0.,-1.));
#815=DIRECTION('',(0.,0.,-1.));
#816=DIRECTION('',(0.,1.,0.));
#817=DIRECTION('',(-1.,0.,0.));
#818=DIRECTION('',(0.,0.,1.));
#819=DIRECTION('',(0.,0.,1.));
#820=DIRECTION('',(-0.999999999999998,0.,0.));
#821=DIRECTION('',(0.,-1.,0.));
#822=DIRECTION('',(0.,0.,1.));
#823=DIRECTION('',(-1.,0.,0.));
#824=DIRECTION('',(0.,0.,-1.));
#825=DIRECTION('',(-1.,0.,0.));
#826=DIRECTION('',(0.,0.,1.));
#827=DIRECTION('',(1.,0.,0.));
#828=DIRECTION('',(0.,0.,-1.));
#829=DIRECTION('',(0.,0.,1.));
#830=DIRECTION('',(0.999999999999998,0.,0.));
#831=DIRECTION('',(0.,0.,1.));
#832=DIRECTION('',(1.,0.,0.));
#833=DIRECTION('',(0.,0.,-1.));
#834=DIRECTION('',(0.999999999999999,0.,0.));
#835=DIRECTION('',(0.,0.,-1.));
#836=DIRECTION('',(-1.,0.,0.));
#837=DIRECTION('',(0.,0.,-1.));
#838=DIRECTION('',(0.999999999999999,0.,0.));
#839=DIRECTION('',(0.,0.,-1.));
#840=DIRECTION('',(0.999999999999999,0.,0.));
#841=DIRECTION('',(0.,0.,-1.));
#842=DIRECTION('',(0.999999999999999,0.,0.));
#843=DIRECTION('',(0.,0.,-1.));
#844=DIRECTION('',(-1.,0.,0.));
#845=DIRECTION('',(0.,0.,-1.));
#846=DIRECTION('',(1.,0.,0.));
#847=DIRECTION('',(0.,0.,-1.));
#848=DIRECTION('',(-1.,0.,0.));
#849=DIRECTION('',(0.,0.,-1.));
#850=DIRECTION('',(1.,0.,0.));
#851=DIRECTION('',(0.,0.,-1.));
#852=DIRECTION('',(1.,0.,0.));
#853=DIRECTION('',(0.,0.,-1.));
#854=DIRECTION('',(1.,0.,0.));
#855=DIRECTION('',(0.,0.,-1.));
#856=DIRECTION('',(-1.,0.,0.));
#857=CARTESIAN_POINT('',(0.,0.,0.));
#858=CARTESIAN_POINT('',(168.4,0.,61.3));
#859=CARTESIAN_POINT('',(168.4,3.8,65.1));
#860=CARTESIAN_POINT('',(168.4,0.,61.3));
#861=CARTESIAN_POINT('',(170.55,3.8,65.1));
#862=CARTESIAN_POINT('',(6.50000000000001,3.8,65.1));
#863=CARTESIAN_POINT('',(60.9166666666667,58.2166666666666,119.516666666667));
#864=CARTESIAN_POINT('',(2.69999999999999,0.,61.3));
#865=CARTESIAN_POINT('',(170.55,0.,61.3));
#866=CARTESIAN_POINT('',(170.55,0.,61.3));
#867=CARTESIAN_POINT('',(7.3,135.3,65.1));
#868=CARTESIAN_POINT('',(6.50000000000001,132.098437881284,65.1));
#869=CARTESIAN_POINT('',(6.50000000000001,138.501562118716,65.1));
#870=CARTESIAN_POINT('',(6.50000000000001,180.05,65.1));
#871=CARTESIAN_POINT('',(168.4,180.05,65.1));
#872=CARTESIAN_POINT('',(168.4,54.,65.1));
#873=CARTESIAN_POINT('',(178.9,54.,65.1));
#874=CARTESIAN_POINT('',(178.9,64.5,65.1));
#875=CARTESIAN_POINT('',(170.55,64.5,65.1));
#876=CARTESIAN_POINT('',(260.3,64.5,65.1));
#877=CARTESIAN_POINT('',(260.3,54.,65.1));
#878=CARTESIAN_POINT('',(270.8,54.,65.1));
#879=CARTESIAN_POINT('',(270.8,180.05,65.1));
#880=CARTESIAN_POINT('',(270.8,3.8,65.1));
#881=CARTESIAN_POINT('',(170.55,3.8,65.1));
#882=CARTESIAN_POINT('',(288.8,3.8,65.1));
#883=CARTESIAN_POINT('',(288.8,180.05,65.1));
#884=CARTESIAN_POINT('',(288.8,97.8,65.1));
#885=CARTESIAN_POINT('',(302.2,97.8,65.1));
#886=CARTESIAN_POINT('',(302.2,111.2,65.1));
#887=CARTESIAN_POINT('',(170.55,111.2,65.1));
#888=CARTESIAN_POINT('',(335.4,111.2,65.1));
#889=CARTESIAN_POINT('',(335.4,180.05,65.1));
#890=CARTESIAN_POINT('',(335.4,360.1,65.1));
#891=CARTESIAN_POINT('',(170.55,360.1,65.1));
#892=CARTESIAN_POINT('',(301.4,360.1,65.1));
#893=CARTESIAN_POINT('',(301.4,180.05,65.1));
#894=CARTESIAN_POINT('',(301.4,285.2,65.1));
#895=CARTESIAN_POINT('',(290.6,285.2,65.1));
#896=CARTESIAN_POINT('',(290.6,274.4,65.1));
#897=CARTESIAN_POINT('',(170.55,274.4,65.1));
#898=CARTESIAN_POINT('',(143.4,274.4,65.1));
#899=CARTESIAN_POINT('',(143.4,285.2,65.1));
#900=CARTESIAN_POINT('',(132.6,285.2,65.1));
#901=CARTESIAN_POINT('',(132.6,180.05,65.1));
#902=CARTESIAN_POINT('',(132.6,360.1,65.1));
#903=CARTESIAN_POINT('',(170.55,360.1,65.1));
#904=CARTESIAN_POINT('',(6.50000000000001,360.1,65.1));
#905=CARTESIAN_POINT('',(6.50000000000001,180.05,65.1));
#906=CARTESIAN_POINT('',(231.3,147.7,65.1));
#907=CARTESIAN_POINT('',(240.7,147.7,65.1));
#908=CARTESIAN_POINT('',(170.55,180.05,65.1));
#909=CARTESIAN_POINT('',(288.8,0.,57.4));
#910=CARTESIAN_POINT('',(288.8,0.,57.4));
#911=CARTESIAN_POINT('',(288.8,0.,61.3));
#912=CARTESIAN_POINT('',(170.55,0.,61.3));
#913=CARTESIAN_POINT('',(270.8,0.,61.3));
#914=CARTESIAN_POINT('',(270.8,0.,43.9));
#915=CARTESIAN_POINT('',(270.8,0.,43.9));
#916=CARTESIAN_POINT('',(219.6,0.,43.9));
#917=CARTESIAN_POINT('',(168.4,0.,43.9));
#918=CARTESIAN_POINT('',(168.4,0.,43.9));
#919=CARTESIAN_POINT('',(55.9750000000001,0.,114.575));
#920=CARTESIAN_POINT('',(0.,0.,58.6));
#921=CARTESIAN_POINT('',(0.,0.,0.));
#922=CARTESIAN_POINT('',(0.,0.,0.));
#923=CARTESIAN_POINT('',(170.55,0.,0.));
#924=CARTESIAN_POINT('',(341.1,0.,0.));
#925=CARTESIAN_POINT('',(341.1,0.,0.));
#926=CARTESIAN_POINT('',(341.1,0.,57.4));
#927=CARTESIAN_POINT('',(314.95,0.,57.4));
#928=CARTESIAN_POINT('',(170.55,0.,0.));
#929=CARTESIAN_POINT('',(0.,180.05,58.6));
#930=CARTESIAN_POINT('',(0.,360.1,58.6));
#931=CARTESIAN_POINT('',(0.,360.1,0.));
#932=CARTESIAN_POINT('',(0.,360.1,0.));
#933=CARTESIAN_POINT('',(0.,180.05,0.));
#934=CARTESIAN_POINT('',(0.,180.05,0.));
#935=CARTESIAN_POINT('',(132.6,360.1,51.9));
#936=CARTESIAN_POINT('',(132.6,360.1,51.9));
#937=CARTESIAN_POINT('',(217.,360.1,51.9));
#938=CARTESIAN_POINT('',(301.4,360.1,51.9));
#939=CARTESIAN_POINT('',(301.4,360.1,51.9));
#940=CARTESIAN_POINT('',(285.525,360.1,114.975));
#941=CARTESIAN_POINT('',(341.1,360.1,59.4));
#942=CARTESIAN_POINT('',(341.1,360.1,0.));
#943=CARTESIAN_POINT('',(341.1,360.1,0.));
#944=CARTESIAN_POINT('',(170.55,360.1,0.));
#945=CARTESIAN_POINT('',(55.9750000000001,360.1,114.575));
#946=CARTESIAN_POINT('',(170.55,360.1,0.));
#947=CARTESIAN_POINT('',(341.1,180.05,0.));
#948=CARTESIAN_POINT('',(170.55,180.05,0.));
#949=CARTESIAN_POINT('',(341.1,111.2,57.4));
#950=CARTESIAN_POINT('',(341.1,111.2,57.4));
#951=CARTESIAN_POINT('',(341.1,111.2,59.4));
#952=CARTESIAN_POINT('',(341.1,55.6,57.4));
#953=CARTESIAN_POINT('',(341.1,180.05,59.4));
#954=CARTESIAN_POINT('',(341.1,180.05,0.));
#955=CARTESIAN_POINT('',(7.3,135.3,65.9));
#956=CARTESIAN_POINT('',(0.,180.05,58.6));
#957=CARTESIAN_POINT('',(341.1,111.2,59.4));
#958=CARTESIAN_POINT('',(341.1,180.05,59.4));
#959=CARTESIAN_POINT('',(288.8,0.,61.3));
#960=CARTESIAN_POINT('',(270.8,0.,61.3));
#961=CARTESIAN_POINT('',(170.55,0.,61.3));
#962=CARTESIAN_POINT('',(168.4,32.25,43.9));
#963=CARTESIAN_POINT('',(168.4,54.,43.9));
#964=CARTESIAN_POINT('',(168.4,54.,65.1));
#965=CARTESIAN_POINT('',(168.4,32.25,43.9));
#966=CARTESIAN_POINT('',(219.6,64.5,43.9));
#967=CARTESIAN_POINT('',(178.9,64.5,43.9));
#968=CARTESIAN_POINT('',(260.3,64.5,43.9));
#969=CARTESIAN_POINT('',(260.3,64.5,65.1));
#970=CARTESIAN_POINT('',(178.9,64.5,43.9));
#971=CARTESIAN_POINT('',(219.6,64.5,43.9));
#972=CARTESIAN_POINT('',(270.8,32.25,43.9));
#973=CARTESIAN_POINT('',(270.8,54.,43.9));
#974=CARTESIAN_POINT('',(260.3,54.,43.9));
#975=CARTESIAN_POINT('',(178.9,54.,43.9));
#976=CARTESIAN_POINT('',(219.6,32.25,43.9));
#977=CARTESIAN_POINT('',(270.8,54.,43.9));
#978=CARTESIAN_POINT('',(270.8,32.25,43.9));
#979=CARTESIAN_POINT('',(260.3,54.,43.9));
#980=CARTESIAN_POINT('',(178.9,54.,43.9));
#981=CARTESIAN_POINT('',(288.8,55.6,57.4));
#982=CARTESIAN_POINT('',(288.8,97.8,57.4));
#983=CARTESIAN_POINT('',(288.8,97.8,65.1));
#984=CARTESIAN_POINT('',(288.8,55.6,57.4));
#985=CARTESIAN_POINT('',(302.2,111.2,57.4));
#986=CARTESIAN_POINT('',(302.2,111.2,57.4));
#987=CARTESIAN_POINT('',(314.95,111.2,57.4));
#988=CARTESIAN_POINT('',(314.95,111.2,57.4));
#989=CARTESIAN_POINT('',(299.,100.,57.4));
#990=CARTESIAN_POINT('',(289.5,100.,57.4));
#991=CARTESIAN_POINT('',(310.8,69.3,57.4));
#992=CARTESIAN_POINT('',(294.55,69.3,57.4));
#993=CARTESIAN_POINT('',(302.2,97.8,57.4));
#994=CARTESIAN_POINT('',(314.95,55.6,57.4));
#995=CARTESIAN_POINT('',(302.2,97.8,57.4));
#996=CARTESIAN_POINT('',(290.6,274.4,51.9));
#997=CARTESIAN_POINT('',(290.6,274.4,51.9));
#998=CARTESIAN_POINT('',(217.,274.4,51.9));
#999=CARTESIAN_POINT('',(143.4,274.4,51.9));
#1000=CARTESIAN_POINT('',(143.4,274.4,65.1));
#1001=CARTESIAN_POINT('',(217.,274.4,51.9));
#1002=CARTESIAN_POINT('',(132.6,285.2,51.9));
#1003=CARTESIAN_POINT('',(132.6,285.2,51.9));
#1004=CARTESIAN_POINT('',(132.6,317.25,51.9));
#1005=CARTESIAN_POINT('',(132.6,317.25,51.9));
#1006=CARTESIAN_POINT('',(290.6,285.2,51.9));
#1007=CARTESIAN_POINT('',(301.4,285.2,51.9));
#1008=CARTESIAN_POINT('',(301.4,317.25,51.9));
#1009=CARTESIAN_POINT('',(143.4,285.2,51.9));
#1010=CARTESIAN_POINT('',(217.,317.25,51.9));
#1011=CARTESIAN_POINT('',(301.4,285.2,65.1));
#1012=CARTESIAN_POINT('',(301.4,317.25,51.9));
#1013=CARTESIAN_POINT('',(290.6,285.2,51.9));
#1014=CARTESIAN_POINT('',(143.4,285.2,51.9));
#1015=CARTESIAN_POINT('',(231.3,147.7,20.4));
#1016=CARTESIAN_POINT('',(240.7,147.7,20.4));
#1017=CARTESIAN_POINT('',(231.3,147.7,20.4));
#1018=CARTESIAN_POINT('',(231.3,147.7,65.15));
#1019=CARTESIAN_POINT('',(310.8,69.3,39.2));
#1020=CARTESIAN_POINT('',(327.05,69.3,39.2));
#1021=CARTESIAN_POINT('',(310.8,69.3,65.15));
#1022=CARTESIAN_POINT('',(310.8,69.3,39.2));
#1023=CARTESIAN_POINT('',(7.3,135.3,33.9));
#1024=CARTESIAN_POINT('',(10.6,135.3,33.9));
#1025=CARTESIAN_POINT('',(7.3,135.3,33.9));
#1026=CARTESIAN_POINT('',(7.3,135.3,65.15));
#1027=CARTESIAN_POINT('',(299.,100.,31.4));
#1028=CARTESIAN_POINT('',(308.5,100.,31.4));
#1029=CARTESIAN_POINT('',(299.,100.,65.15));
#1030=CARTESIAN_POINT('',(299.,100.,31.4));
#1031=MECHANICAL_DESIGN_GEOMETRIC_PRESENTATION_REPRESENTATION('',(#24),
#1032);
#1032=(
GEOMETRIC_REPRESENTATION_CONTEXT(3)
GLOBAL_UNCERTAINTY_ASSIGNED_CONTEXT((#1033))
GLOBAL_UNIT_ASSIGNED_CONTEXT((#1039,#1035,#1034))
REPRESENTATION_CONTEXT('featured_part_07691','TOP_LEVEL_ASSEMBLY_PART')
);
#1033=UNCERTAINTY_MEASURE_WITH_UNIT(LENGTH_MEASURE(2.E-5),#1039,
'DISTANCE_ACCURACY_VALUE','Maximum Tolerance applied to model');
#1034=(
NAMED_UNIT(*)
SI_UNIT($,.STERADIAN.)
SOLID_ANGLE_UNIT()
);
#1035=(
CONVERSION_BASED_UNIT('DEGREE',#1037)
NAMED_UNIT(#1036)
PLANE_ANGLE_UNIT()
);
#1036=DIMENSIONAL_EXPONENTS(0.,0.,0.,0.,0.,0.,0.);
#1037=PLANE_ANGLE_MEASURE_WITH_UNIT(PLANE_ANGLE_MEASURE(0.0174532925),#1038);
#1038=(
NAMED_UNIT(*)
PLANE_ANGLE_UNIT()
SI_UNIT($,.RADIAN.)
);
#1039=(
LENGTH_UNIT()
NAMED_UNIT(*)
SI_UNIT(.MILLI.,.METRE.)
);
ENDSEC;
END-ISO-10303-21;
