ISO-10303-21;
HEADER;
/* Generated by software containing ST-Developer
 * from STEP Tools, Inc. (www.steptools.com) 
 */
/* OPTION: using custom schema-name function */

FILE_DESCRIPTION(
/* description */ (''),
/* implementation_level */ '2;1');

FILE_NAME(
/* name */ 'featured_part_01714.stp',
/* time_stamp */ '2026-07-02T21:41:11-04:00',
/* author */ (''),
/* organization */ (''),
/* preprocessor_version */ 'ST-DEVELOPER v20.1',
/* originating_system */ 'SIEMENS PLM Software NX2512.6002',
/* authorisation */ '');

FILE_SCHEMA (('AUTOMOTIVE_DESIGN { 1 0 10303 214 3 1 1 1 }'));
ENDSEC;

DATA;
#10=SHAPE_REPRESENTATION_RELATIONSHIP('None',
'relationship between featured_part_01714-None and featured_part_01714
-None',#22,#11);
#11=ADVANCED_BREP_SHAPE_REPRESENTATION('featured_part_01714-None',(#32),
#705);
#12=SHAPE_DEFINITION_REPRESENTATION(#13,#22);
#13=PRODUCT_DEFINITION_SHAPE('','',#14);
#14=PRODUCT_DEFINITION(' ','',#16,#15);
#15=PRODUCT_DEFINITION_CONTEXT('part definition',#21,'design');
#16=PRODUCT_DEFINITION_FORMATION_WITH_SPECIFIED_SOURCE(' ',' ',#18,
 .NOT_KNOWN.);
#17=PRODUCT_RELATED_PRODUCT_CATEGORY('part','',(#18));
#18=PRODUCT('featured_part_01714','featured_part_01714',' ',(#19));
#19=PRODUCT_CONTEXT(' ',#21,'mechanical');
#20=APPLICATION_PROTOCOL_DEFINITION('international standard',
'automotive_design',2010,#21);
#21=APPLICATION_CONTEXT(
'core data for automotive mechanical design processes');
#22=SHAPE_REPRESENTATION('featured_part_01714-None',(#434),#705);
#23=PRESENTATION_LAYER_ASSIGNMENT('1','Layer 1',(#32));
#24=STYLED_ITEM('',(#25),#32);
#25=PRESENTATION_STYLE_ASSIGNMENT((#26));
#26=SURFACE_STYLE_USAGE(.BOTH.,#27);
#27=SURFACE_SIDE_STYLE('',(#28));
#28=SURFACE_STYLE_FILL_AREA(#29);
#29=FILL_AREA_STYLE('',(#30));
#30=FILL_AREA_STYLE_COLOUR('',#31);
#31=COLOUR_RGB('medium steel',0.611764705882353,0.658823529411765,0.670588235294118);
#32=MANIFOLD_SOLID_BREP('',#33);
#33=CLOSED_SHELL('',(#57,#58,#59,#60,#61,#62,#63,#64,#65,#66,#67,#68,#69,
#70,#71,#72,#73,#74,#75,#76,#77,#78));
#34=CYLINDRICAL_SURFACE('',#466,13.4);
#35=CYLINDRICAL_SURFACE('',#467,13.4);
#36=CYLINDRICAL_SURFACE('',#468,13.4);
#37=CYLINDRICAL_SURFACE('',#469,13.4);
#38=CYLINDRICAL_SURFACE('',#470,6.75);
#39=CYLINDRICAL_SURFACE('',#471,6.3);
#40=CYLINDRICAL_SURFACE('',#472,8.8);
#41=CYLINDRICAL_SURFACE('',#473,9.95);
#42=CYLINDRICAL_SURFACE('',#474,14.25);
#43=FACE_OUTER_BOUND('',#190,.T.);
#44=FACE_OUTER_BOUND('',#191,.T.);
#45=FACE_OUTER_BOUND('',#192,.T.);
#46=FACE_OUTER_BOUND('',#199,.T.);
#47=FACE_OUTER_BOUND('',#200,.T.);
#48=FACE_OUTER_BOUND('',#201,.T.);
#49=FACE_OUTER_BOUND('',#202,.T.);
#50=FACE_OUTER_BOUND('',#203,.T.);
#51=FACE_OUTER_BOUND('',#204,.T.);
#52=FACE_OUTER_BOUND('',#207,.T.);
#53=FACE_OUTER_BOUND('',#208,.T.);
#54=FACE_OUTER_BOUND('',#209,.T.);
#55=FACE_OUTER_BOUND('',#210,.T.);
#56=FACE_OUTER_BOUND('',#211,.T.);
#57=ADVANCED_FACE('',(#160,#161,#162,#163,#164,#165),#79,.T.);
#58=ADVANCED_FACE('',(#43),#80,.T.);
#59=ADVANCED_FACE('',(#44),#81,.T.);
#60=ADVANCED_FACE('',(#45),#82,.T.);
#61=ADVANCED_FACE('',(#166,#167,#168,#169,#170,#171),#83,.T.);
#62=ADVANCED_FACE('',(#46),#84,.T.);
#63=ADVANCED_FACE('',(#47),#85,.F.);
#64=ADVANCED_FACE('',(#48),#86,.F.);
#65=ADVANCED_FACE('',(#49),#87,.F.);
#66=ADVANCED_FACE('',(#50),#88,.F.);
#67=ADVANCED_FACE('',(#51),#89,.F.);
#68=ADVANCED_FACE('',(#172,#173),#90,.F.);
#69=ADVANCED_FACE('',(#52),#91,.F.);
#70=ADVANCED_FACE('',(#53),#34,.F.);
#71=ADVANCED_FACE('',(#54),#35,.F.);
#72=ADVANCED_FACE('',(#55),#36,.F.);
#73=ADVANCED_FACE('',(#56),#37,.F.);
#74=ADVANCED_FACE('',(#174,#175),#38,.F.);
#75=ADVANCED_FACE('',(#176,#177),#39,.F.);
#76=ADVANCED_FACE('',(#178,#179),#40,.F.);
#77=ADVANCED_FACE('',(#180,#181),#41,.F.);
#78=ADVANCED_FACE('',(#182,#183),#42,.F.);
#79=PLANE('',#443);
#80=PLANE('',#444);
#81=PLANE('',#445);
#82=PLANE('',#446);
#83=PLANE('',#452);
#84=PLANE('',#453);
#85=PLANE('',#454);
#86=PLANE('',#455);
#87=PLANE('',#456);
#88=PLANE('',#457);
#89=PLANE('',#458);
#90=PLANE('',#464);
#91=PLANE('',#465);
#92=LINE('',#600,#126);
#93=LINE('',#605,#127);
#94=LINE('',#609,#128);
#95=LINE('',#613,#129);
#96=LINE('',#616,#130);
#97=LINE('',#619,#131);
#98=LINE('',#621,#132);
#99=LINE('',#623,#133);
#100=LINE('',#625,#134);
#101=LINE('',#627,#135);
#102=LINE('',#629,#136);
#103=LINE('',#631,#137);
#104=LINE('',#633,#138);
#105=LINE('',#635,#139);
#106=LINE('',#637,#140);
#107=LINE('',#639,#141);
#108=LINE('',#641,#142);
#109=LINE('',#643,#143);
#110=LINE('',#645,#144);
#111=LINE('',#657,#145);
#112=LINE('',#659,#146);
#113=LINE('',#661,#147);
#114=LINE('',#664,#148);
#115=LINE('',#666,#149);
#116=LINE('',#668,#150);
#117=LINE('',#670,#151);
#118=LINE('',#672,#152);
#119=LINE('',#674,#153);
#120=LINE('',#676,#154);
#121=LINE('',#679,#155);
#122=LINE('',#680,#156);
#123=LINE('',#684,#157);
#124=LINE('',#692,#158);
#125=LINE('',#693,#159);
#126=VECTOR('',#485,1.);
#127=VECTOR('',#488,1.);
#128=VECTOR('',#491,1.);
#129=VECTOR('',#494,1.);
#130=VECTOR('',#497,1.);
#131=VECTOR('',#498,1.);
#132=VECTOR('',#499,1.);
#133=VECTOR('',#500,1.);
#134=VECTOR('',#503,1.);
#135=VECTOR('',#504,1.);
#136=VECTOR('',#505,1.);
#137=VECTOR('',#506,1.);
#138=VECTOR('',#509,1.);
#139=VECTOR('',#510,1.);
#140=VECTOR('',#511,1.);
#141=VECTOR('',#512,1.);
#142=VECTOR('',#515,1.);
#143=VECTOR('',#516,1.);
#144=VECTOR('',#517,1.);
#145=VECTOR('',#530,1.);
#146=VECTOR('',#533,1.);
#147=VECTOR('',#536,1.);
#148=VECTOR('',#541,1.);
#149=VECTOR('',#542,1.);
#150=VECTOR('',#543,1.);
#151=VECTOR('',#546,1.);
#152=VECTOR('',#547,1.);
#153=VECTOR('',#548,1.);
#154=VECTOR('',#551,1.);
#155=VECTOR('',#552,1.);
#156=VECTOR('',#553,1.);
#157=VECTOR('',#558,1.);
#158=VECTOR('',#569,1.);
#159=VECTOR('',#570,1.);
#160=FACE_BOUND('',#184,.T.);
#161=FACE_BOUND('',#185,.T.);
#162=FACE_BOUND('',#186,.T.);
#163=FACE_BOUND('',#187,.T.);
#164=FACE_BOUND('',#188,.T.);
#165=FACE_BOUND('',#189,.T.);
#166=FACE_BOUND('',#193,.T.);
#167=FACE_BOUND('',#194,.T.);
#168=FACE_BOUND('',#195,.T.);
#169=FACE_BOUND('',#196,.T.);
#170=FACE_BOUND('',#197,.T.);
#171=FACE_BOUND('',#198,.T.);
#172=FACE_BOUND('',#205,.T.);
#173=FACE_BOUND('',#206,.T.);
#174=FACE_BOUND('',#212,.T.);
#175=FACE_BOUND('',#213,.T.);
#176=FACE_BOUND('',#214,.T.);
#177=FACE_BOUND('',#215,.T.);
#178=FACE_BOUND('',#216,.T.);
#179=FACE_BOUND('',#217,.T.);
#180=FACE_BOUND('',#218,.T.);
#181=FACE_BOUND('',#219,.T.);
#182=FACE_BOUND('',#220,.T.);
#183=FACE_BOUND('',#221,.T.);
#184=EDGE_LOOP('',(#222));
#185=EDGE_LOOP('',(#223));
#186=EDGE_LOOP('',(#224));
#187=EDGE_LOOP('',(#225));
#188=EDGE_LOOP('',(#226,#227,#228,#229,#230,#231,#232,#233));
#189=EDGE_LOOP('',(#234,#235,#236,#237));
#190=EDGE_LOOP('',(#238,#239,#240,#241,#242));
#191=EDGE_LOOP('',(#243,#244,#245,#246,#247));
#192=EDGE_LOOP('',(#248,#249,#250,#251));
#193=EDGE_LOOP('',(#252));
#194=EDGE_LOOP('',(#253));
#195=EDGE_LOOP('',(#254));
#196=EDGE_LOOP('',(#255));
#197=EDGE_LOOP('',(#256));
#198=EDGE_LOOP('',(#257,#258,#259,#260));
#199=EDGE_LOOP('',(#261,#262,#263,#264,#265));
#200=EDGE_LOOP('',(#266,#267,#268,#269,#270));
#201=EDGE_LOOP('',(#271,#272,#273,#274));
#202=EDGE_LOOP('',(#275,#276,#277,#278));
#203=EDGE_LOOP('',(#279,#280,#281,#282));
#204=EDGE_LOOP('',(#283,#284,#285,#286));
#205=EDGE_LOOP('',(#287));
#206=EDGE_LOOP('',(#288,#289,#290,#291,#292,#293,#294,#295));
#207=EDGE_LOOP('',(#296,#297,#298,#299));
#208=EDGE_LOOP('',(#300,#301,#302,#303));
#209=EDGE_LOOP('',(#304,#305,#306,#307));
#210=EDGE_LOOP('',(#308,#309,#310,#311));
#211=EDGE_LOOP('',(#312,#313,#314,#315));
#212=EDGE_LOOP('',(#316));
#213=EDGE_LOOP('',(#317));
#214=EDGE_LOOP('',(#318));
#215=EDGE_LOOP('',(#319));
#216=EDGE_LOOP('',(#320));
#217=EDGE_LOOP('',(#321));
#218=EDGE_LOOP('',(#322));
#219=EDGE_LOOP('',(#323));
#220=EDGE_LOOP('',(#324));
#221=EDGE_LOOP('',(#325));
#222=ORIENTED_EDGE('',*,*,#364,.F.);
#223=ORIENTED_EDGE('',*,*,#365,.F.);
#224=ORIENTED_EDGE('',*,*,#366,.F.);
#225=ORIENTED_EDGE('',*,*,#367,.F.);
#226=ORIENTED_EDGE('',*,*,#368,.F.);
#227=ORIENTED_EDGE('',*,*,#369,.T.);
#228=ORIENTED_EDGE('',*,*,#370,.F.);
#229=ORIENTED_EDGE('',*,*,#371,.T.);
#230=ORIENTED_EDGE('',*,*,#372,.F.);
#231=ORIENTED_EDGE('',*,*,#373,.T.);
#232=ORIENTED_EDGE('',*,*,#374,.F.);
#233=ORIENTED_EDGE('',*,*,#375,.T.);
#234=ORIENTED_EDGE('',*,*,#376,.T.);
#235=ORIENTED_EDGE('',*,*,#377,.T.);
#236=ORIENTED_EDGE('',*,*,#378,.F.);
#237=ORIENTED_EDGE('',*,*,#379,.F.);
#238=ORIENTED_EDGE('',*,*,#378,.T.);
#239=ORIENTED_EDGE('',*,*,#380,.T.);
#240=ORIENTED_EDGE('',*,*,#381,.F.);
#241=ORIENTED_EDGE('',*,*,#382,.T.);
#242=ORIENTED_EDGE('',*,*,#383,.T.);
#243=ORIENTED_EDGE('',*,*,#381,.T.);
#244=ORIENTED_EDGE('',*,*,#384,.T.);
#245=ORIENTED_EDGE('',*,*,#385,.T.);
#246=ORIENTED_EDGE('',*,*,#386,.F.);
#247=ORIENTED_EDGE('',*,*,#387,.T.);
#248=ORIENTED_EDGE('',*,*,#386,.T.);
#249=ORIENTED_EDGE('',*,*,#388,.T.);
#250=ORIENTED_EDGE('',*,*,#389,.F.);
#251=ORIENTED_EDGE('',*,*,#390,.T.);
#252=ORIENTED_EDGE('',*,*,#391,.F.);
#253=ORIENTED_EDGE('',*,*,#392,.F.);
#254=ORIENTED_EDGE('',*,*,#393,.F.);
#255=ORIENTED_EDGE('',*,*,#394,.F.);
#256=ORIENTED_EDGE('',*,*,#395,.F.);
#257=ORIENTED_EDGE('',*,*,#396,.F.);
#258=ORIENTED_EDGE('',*,*,#382,.F.);
#259=ORIENTED_EDGE('',*,*,#387,.F.);
#260=ORIENTED_EDGE('',*,*,#390,.F.);
#261=ORIENTED_EDGE('',*,*,#389,.T.);
#262=ORIENTED_EDGE('',*,*,#397,.T.);
#263=ORIENTED_EDGE('',*,*,#379,.T.);
#264=ORIENTED_EDGE('',*,*,#383,.F.);
#265=ORIENTED_EDGE('',*,*,#396,.T.);
#266=ORIENTED_EDGE('',*,*,#385,.F.);
#267=ORIENTED_EDGE('',*,*,#398,.T.);
#268=ORIENTED_EDGE('',*,*,#376,.F.);
#269=ORIENTED_EDGE('',*,*,#397,.F.);
#270=ORIENTED_EDGE('',*,*,#388,.F.);
#271=ORIENTED_EDGE('',*,*,#380,.F.);
#272=ORIENTED_EDGE('',*,*,#377,.F.);
#273=ORIENTED_EDGE('',*,*,#398,.F.);
#274=ORIENTED_EDGE('',*,*,#384,.F.);
#275=ORIENTED_EDGE('',*,*,#368,.T.);
#276=ORIENTED_EDGE('',*,*,#399,.T.);
#277=ORIENTED_EDGE('',*,*,#400,.T.);
#278=ORIENTED_EDGE('',*,*,#401,.T.);
#279=ORIENTED_EDGE('',*,*,#370,.T.);
#280=ORIENTED_EDGE('',*,*,#402,.T.);
#281=ORIENTED_EDGE('',*,*,#403,.T.);
#282=ORIENTED_EDGE('',*,*,#404,.T.);
#283=ORIENTED_EDGE('',*,*,#405,.T.);
#284=ORIENTED_EDGE('',*,*,#406,.T.);
#285=ORIENTED_EDGE('',*,*,#372,.T.);
#286=ORIENTED_EDGE('',*,*,#407,.T.);
#287=ORIENTED_EDGE('',*,*,#408,.T.);
#288=ORIENTED_EDGE('',*,*,#409,.F.);
#289=ORIENTED_EDGE('',*,*,#410,.T.);
#290=ORIENTED_EDGE('',*,*,#405,.F.);
#291=ORIENTED_EDGE('',*,*,#411,.T.);
#292=ORIENTED_EDGE('',*,*,#403,.F.);
#293=ORIENTED_EDGE('',*,*,#412,.T.);
#294=ORIENTED_EDGE('',*,*,#400,.F.);
#295=ORIENTED_EDGE('',*,*,#413,.T.);
#296=ORIENTED_EDGE('',*,*,#374,.T.);
#297=ORIENTED_EDGE('',*,*,#414,.T.);
#298=ORIENTED_EDGE('',*,*,#409,.T.);
#299=ORIENTED_EDGE('',*,*,#415,.T.);
#300=ORIENTED_EDGE('',*,*,#373,.F.);
#301=ORIENTED_EDGE('',*,*,#406,.F.);
#302=ORIENTED_EDGE('',*,*,#410,.F.);
#303=ORIENTED_EDGE('',*,*,#414,.F.);
#304=ORIENTED_EDGE('',*,*,#375,.F.);
#305=ORIENTED_EDGE('',*,*,#415,.F.);
#306=ORIENTED_EDGE('',*,*,#413,.F.);
#307=ORIENTED_EDGE('',*,*,#399,.F.);
#308=ORIENTED_EDGE('',*,*,#369,.F.);
#309=ORIENTED_EDGE('',*,*,#401,.F.);
#310=ORIENTED_EDGE('',*,*,#412,.F.);
#311=ORIENTED_EDGE('',*,*,#402,.F.);
#312=ORIENTED_EDGE('',*,*,#371,.F.);
#313=ORIENTED_EDGE('',*,*,#404,.F.);
#314=ORIENTED_EDGE('',*,*,#411,.F.);
#315=ORIENTED_EDGE('',*,*,#407,.F.);
#316=ORIENTED_EDGE('',*,*,#395,.T.);
#317=ORIENTED_EDGE('',*,*,#408,.F.);
#318=ORIENTED_EDGE('',*,*,#367,.T.);
#319=ORIENTED_EDGE('',*,*,#394,.T.);
#320=ORIENTED_EDGE('',*,*,#366,.T.);
#321=ORIENTED_EDGE('',*,*,#393,.T.);
#322=ORIENTED_EDGE('',*,*,#365,.T.);
#323=ORIENTED_EDGE('',*,*,#392,.T.);
#324=ORIENTED_EDGE('',*,*,#364,.T.);
#325=ORIENTED_EDGE('',*,*,#391,.T.);
#326=VERTEX_POINT('',#593);
#327=VERTEX_POINT('',#595);
#328=VERTEX_POINT('',#597);
#329=VERTEX_POINT('',#599);
#330=VERTEX_POINT('',#601);
#331=VERTEX_POINT('',#602);
#332=VERTEX_POINT('',#604);
#333=VERTEX_POINT('',#606);
#334=VERTEX_POINT('',#608);
#335=VERTEX_POINT('',#610);
#336=VERTEX_POINT('',#612);
#337=VERTEX_POINT('',#614);
#338=VERTEX_POINT('',#617);
#339=VERTEX_POINT('',#618);
#340=VERTEX_POINT('',#620);
#341=VERTEX_POINT('',#622);
#342=VERTEX_POINT('',#626);
#343=VERTEX_POINT('',#628);
#344=VERTEX_POINT('',#630);
#345=VERTEX_POINT('',#634);
#346=VERTEX_POINT('',#636);
#347=VERTEX_POINT('',#638);
#348=VERTEX_POINT('',#642);
#349=VERTEX_POINT('',#644);
#350=VERTEX_POINT('',#648);
#351=VERTEX_POINT('',#650);
#352=VERTEX_POINT('',#652);
#353=VERTEX_POINT('',#654);
#354=VERTEX_POINT('',#656);
#355=VERTEX_POINT('',#665);
#356=VERTEX_POINT('',#667);
#357=VERTEX_POINT('',#671);
#358=VERTEX_POINT('',#673);
#359=VERTEX_POINT('',#677);
#360=VERTEX_POINT('',#678);
#361=VERTEX_POINT('',#683);
#362=VERTEX_POINT('',#685);
#363=VERTEX_POINT('',#686);
#364=EDGE_CURVE('',#326,#326,#416,.T.);
#365=EDGE_CURVE('',#327,#327,#417,.T.);
#366=EDGE_CURVE('',#328,#328,#418,.T.);
#367=EDGE_CURVE('',#329,#329,#419,.T.);
#368=EDGE_CURVE('',#330,#331,#92,.T.);
#369=EDGE_CURVE('',#330,#332,#420,.T.);
#370=EDGE_CURVE('',#333,#332,#93,.T.);
#371=EDGE_CURVE('',#333,#334,#421,.T.);
#372=EDGE_CURVE('',#335,#334,#94,.T.);
#373=EDGE_CURVE('',#335,#336,#422,.T.);
#374=EDGE_CURVE('',#337,#336,#95,.T.);
#375=EDGE_CURVE('',#337,#331,#423,.T.);
#376=EDGE_CURVE('',#338,#339,#96,.T.);
#377=EDGE_CURVE('',#339,#340,#97,.T.);
#378=EDGE_CURVE('',#341,#340,#98,.T.);
#379=EDGE_CURVE('',#338,#341,#99,.T.);
#380=EDGE_CURVE('',#340,#342,#100,.T.);
#381=EDGE_CURVE('',#343,#342,#101,.T.);
#382=EDGE_CURVE('',#343,#344,#102,.T.);
#383=EDGE_CURVE('',#344,#341,#103,.T.);
#384=EDGE_CURVE('',#342,#345,#104,.T.);
#385=EDGE_CURVE('',#345,#346,#105,.T.);
#386=EDGE_CURVE('',#347,#346,#106,.T.);
#387=EDGE_CURVE('',#347,#343,#107,.T.);
#388=EDGE_CURVE('',#346,#348,#108,.T.);
#389=EDGE_CURVE('',#349,#348,#109,.T.);
#390=EDGE_CURVE('',#349,#347,#110,.T.);
#391=EDGE_CURVE('',#350,#350,#424,.T.);
#392=EDGE_CURVE('',#351,#351,#425,.T.);
#393=EDGE_CURVE('',#352,#352,#426,.T.);
#394=EDGE_CURVE('',#353,#353,#427,.T.);
#395=EDGE_CURVE('',#354,#354,#428,.T.);
#396=EDGE_CURVE('',#344,#349,#111,.T.);
#397=EDGE_CURVE('',#348,#338,#112,.T.);
#398=EDGE_CURVE('',#345,#339,#113,.T.);
#399=EDGE_CURVE('',#331,#355,#114,.T.);
#400=EDGE_CURVE('',#355,#356,#115,.T.);
#401=EDGE_CURVE('',#356,#330,#116,.T.);
#402=EDGE_CURVE('',#332,#357,#117,.T.);
#403=EDGE_CURVE('',#357,#358,#118,.T.);
#404=EDGE_CURVE('',#358,#333,#119,.T.);
#405=EDGE_CURVE('',#359,#360,#120,.T.);
#406=EDGE_CURVE('',#360,#335,#121,.T.);
#407=EDGE_CURVE('',#334,#359,#122,.T.);
#408=EDGE_CURVE('',#361,#361,#429,.T.);
#409=EDGE_CURVE('',#362,#363,#123,.T.);
#410=EDGE_CURVE('',#362,#360,#430,.T.);
#411=EDGE_CURVE('',#359,#358,#431,.T.);
#412=EDGE_CURVE('',#357,#356,#432,.T.);
#413=EDGE_CURVE('',#355,#363,#433,.T.);
#414=EDGE_CURVE('',#336,#362,#124,.T.);
#415=EDGE_CURVE('',#363,#337,#125,.T.);
#416=CIRCLE('',#435,14.25);
#417=CIRCLE('',#436,9.95);
#418=CIRCLE('',#437,8.8);
#419=CIRCLE('',#438,6.3);
#420=CIRCLE('',#439,13.4);
#421=CIRCLE('',#440,13.4);
#422=CIRCLE('',#441,13.4);
#423=CIRCLE('',#442,13.4);
#424=CIRCLE('',#447,14.25);
#425=CIRCLE('',#448,9.95);
#426=CIRCLE('',#449,8.8);
#427=CIRCLE('',#450,6.3);
#428=CIRCLE('',#451,6.75);
#429=CIRCLE('',#459,6.75);
#430=CIRCLE('',#460,13.4);
#431=CIRCLE('',#461,13.4);
#432=CIRCLE('',#462,13.4);
#433=CIRCLE('',#463,13.4);
#434=AXIS2_PLACEMENT_3D('',#591,#475,#476);
#435=AXIS2_PLACEMENT_3D('',#592,#477,#478);
#436=AXIS2_PLACEMENT_3D('',#594,#479,#480);
#437=AXIS2_PLACEMENT_3D('',#596,#481,#482);
#438=AXIS2_PLACEMENT_3D('',#598,#483,#484);
#439=AXIS2_PLACEMENT_3D('',#603,#486,#487);
#440=AXIS2_PLACEMENT_3D('',#607,#489,#490);
#441=AXIS2_PLACEMENT_3D('',#611,#492,#493);
#442=AXIS2_PLACEMENT_3D('',#615,#495,#496);
#443=AXIS2_PLACEMENT_3D('',#624,#501,#502);
#444=AXIS2_PLACEMENT_3D('',#632,#507,#508);
#445=AXIS2_PLACEMENT_3D('',#640,#513,#514);
#446=AXIS2_PLACEMENT_3D('',#646,#518,#519);
#447=AXIS2_PLACEMENT_3D('',#647,#520,#521);
#448=AXIS2_PLACEMENT_3D('',#649,#522,#523);
#449=AXIS2_PLACEMENT_3D('',#651,#524,#525);
#450=AXIS2_PLACEMENT_3D('',#653,#526,#527);
#451=AXIS2_PLACEMENT_3D('',#655,#528,#529);
#452=AXIS2_PLACEMENT_3D('',#658,#531,#532);
#453=AXIS2_PLACEMENT_3D('',#660,#534,#535);
#454=AXIS2_PLACEMENT_3D('',#662,#537,#538);
#455=AXIS2_PLACEMENT_3D('',#663,#539,#540);
#456=AXIS2_PLACEMENT_3D('',#669,#544,#545);
#457=AXIS2_PLACEMENT_3D('',#675,#549,#550);
#458=AXIS2_PLACEMENT_3D('',#681,#554,#555);
#459=AXIS2_PLACEMENT_3D('',#682,#556,#557);
#460=AXIS2_PLACEMENT_3D('',#687,#559,#560);
#461=AXIS2_PLACEMENT_3D('',#688,#561,#562);
#462=AXIS2_PLACEMENT_3D('',#689,#563,#564);
#463=AXIS2_PLACEMENT_3D('',#690,#565,#566);
#464=AXIS2_PLACEMENT_3D('',#691,#567,#568);
#465=AXIS2_PLACEMENT_3D('',#694,#571,#572);
#466=AXIS2_PLACEMENT_3D('',#695,#573,#574);
#467=AXIS2_PLACEMENT_3D('',#696,#575,#576);
#468=AXIS2_PLACEMENT_3D('',#697,#577,#578);
#469=AXIS2_PLACEMENT_3D('',#698,#579,#580);
#470=AXIS2_PLACEMENT_3D('',#699,#581,#582);
#471=AXIS2_PLACEMENT_3D('',#700,#583,#584);
#472=AXIS2_PLACEMENT_3D('',#701,#585,#586);
#473=AXIS2_PLACEMENT_3D('',#702,#587,#588);
#474=AXIS2_PLACEMENT_3D('',#703,#589,#590);
#475=DIRECTION('',(0.,0.,1.));
#476=DIRECTION('',(1.,0.,0.));
#477=DIRECTION('',(0.,0.,1.));
#478=DIRECTION('',(1.,0.,0.));
#479=DIRECTION('',(0.,0.,1.));
#480=DIRECTION('',(0.999999999999999,0.,0.));
#481=DIRECTION('',(0.,0.,1.));
#482=DIRECTION('',(1.,0.,0.));
#483=DIRECTION('',(0.,0.,1.));
#484=DIRECTION('',(1.,0.,0.));
#485=DIRECTION('',(1.,0.,0.));
#486=DIRECTION('',(0.,0.,-1.));
#487=DIRECTION('',(1.,0.,0.));
#488=DIRECTION('',(0.,-1.,0.));
#489=DIRECTION('',(0.,0.,-1.));
#490=DIRECTION('',(1.,0.,0.));
#491=DIRECTION('',(-1.,0.,0.));
#492=DIRECTION('',(0.,0.,-1.));
#493=DIRECTION('',(1.,0.,0.));
#494=DIRECTION('',(0.,1.,0.));
#495=DIRECTION('',(0.,0.,-1.));
#496=DIRECTION('',(1.,0.,0.));
#497=DIRECTION('',(-1.,0.,0.));
#498=DIRECTION('',(0.,-1.,0.));
#499=DIRECTION('',(-1.,0.,0.));
#500=DIRECTION('',(0.,-1.,0.));
#501=DIRECTION('',(0.,0.,1.));
#502=DIRECTION('',(1.,0.,0.));
#503=DIRECTION('',(-0.707106781186548,0.,-0.707106781186547));
#504=DIRECTION('',(0.,0.,1.));
#505=DIRECTION('',(1.,0.,0.));
#506=DIRECTION('',(0.,0.,1.));
#507=DIRECTION('',(0.,-1.,0.));
#508=DIRECTION('',(0.,0.,-1.));
#509=DIRECTION('',(0.,1.,0.));
#510=DIRECTION('',(0.,0.707106781186547,-0.707106781186548));
#511=DIRECTION('',(0.,0.,1.));
#512=DIRECTION('',(0.,-1.,0.));
#513=DIRECTION('',(-1.,0.,0.));
#514=DIRECTION('',(0.,0.,1.));
#515=DIRECTION('',(1.,0.,0.));
#516=DIRECTION('',(0.,0.,1.));
#517=DIRECTION('',(-1.,0.,0.));
#518=DIRECTION('',(0.,1.,0.));
#519=DIRECTION('',(0.,0.,1.));
#520=DIRECTION('',(0.,0.,-1.));
#521=DIRECTION('',(-1.,0.,0.));
#522=DIRECTION('',(0.,0.,-1.));
#523=DIRECTION('',(-0.999999999999999,0.,0.));
#524=DIRECTION('',(0.,0.,-1.));
#525=DIRECTION('',(-1.,0.,0.));
#526=DIRECTION('',(0.,0.,-1.));
#527=DIRECTION('',(-1.,0.,0.));
#528=DIRECTION('',(0.,0.,-1.));
#529=DIRECTION('',(-1.,0.,0.));
#530=DIRECTION('',(0.,1.,0.));
#531=DIRECTION('',(0.,0.,-1.));
#532=DIRECTION('',(-1.,0.,0.));
#533=DIRECTION('',(0.,-0.707106781186547,0.707106781186548));
#534=DIRECTION('',(1.,0.,0.));
#535=DIRECTION('',(0.,0.,-1.));
#536=DIRECTION('',(0.577350269189627,-0.577350269189625,0.577350269189626));
#537=DIRECTION('',(0.,-0.707106781186548,-0.707106781186547));
#538=DIRECTION('',(1.,0.,0.));
#539=DIRECTION('',(0.707106781186547,0.,-0.707106781186548));
#540=DIRECTION('',(0.,1.,0.));
#541=DIRECTION('',(0.,0.,-1.));
#542=DIRECTION('',(-1.,0.,0.));
#543=DIRECTION('',(0.,0.,1.));
#544=DIRECTION('',(0.,-1.,0.));
#545=DIRECTION('',(0.,0.,-1.));
#546=DIRECTION('',(0.,0.,-1.));
#547=DIRECTION('',(0.,1.,0.));
#548=DIRECTION('',(0.,0.,1.));
#549=DIRECTION('',(-1.,0.,0.));
#550=DIRECTION('',(0.,0.,1.));
#551=DIRECTION('',(1.,0.,0.));
#552=DIRECTION('',(0.,0.,1.));
#553=DIRECTION('',(0.,0.,-1.));
#554=DIRECTION('',(0.,1.,0.));
#555=DIRECTION('',(0.,0.,1.));
#556=DIRECTION('',(0.,0.,-1.));
#557=DIRECTION('',(-1.,0.,0.));
#558=DIRECTION('',(0.,-1.,0.));
#559=DIRECTION('',(0.,0.,1.));
#560=DIRECTION('',(-1.,0.,0.));
#561=DIRECTION('',(0.,0.,1.));
#562=DIRECTION('',(-1.,0.,0.));
#563=DIRECTION('',(0.,0.,1.));
#564=DIRECTION('',(-1.,0.,0.));
#565=DIRECTION('',(0.,0.,1.));
#566=DIRECTION('',(-1.,0.,0.));
#567=DIRECTION('',(0.,0.,-1.));
#568=DIRECTION('',(-1.,0.,0.));
#569=DIRECTION('',(0.,0.,-1.));
#570=DIRECTION('',(0.,0.,1.));
#571=DIRECTION('',(1.,0.,0.));
#572=DIRECTION('',(0.,0.,-1.));
#573=DIRECTION('',(0.,0.,1.));
#574=DIRECTION('',(1.,0.,0.));
#575=DIRECTION('',(0.,0.,1.));
#576=DIRECTION('',(1.,0.,0.));
#577=DIRECTION('',(0.,0.,1.));
#578=DIRECTION('',(1.,0.,0.));
#579=DIRECTION('',(0.,0.,1.));
#580=DIRECTION('',(1.,0.,0.));
#581=DIRECTION('',(0.,0.,-1.));
#582=DIRECTION('',(1.,0.,0.));
#583=DIRECTION('',(0.,0.,-1.));
#584=DIRECTION('',(1.,0.,0.));
#585=DIRECTION('',(0.,0.,-1.));
#586=DIRECTION('',(1.,0.,0.));
#587=DIRECTION('',(0.,0.,-1.));
#588=DIRECTION('',(0.999999999999999,0.,0.));
#589=DIRECTION('',(0.,0.,-1.));
#590=DIRECTION('',(1.,0.,0.));
#591=CARTESIAN_POINT('',(0.,0.,0.));
#592=CARTESIAN_POINT('',(132.5,305.3,75.2));
#593=CARTESIAN_POINT('',(146.75,305.3,75.2));
#594=CARTESIAN_POINT('',(171.5,286.8,75.2));
#595=CARTESIAN_POINT('',(181.45,286.8,75.2));
#596=CARTESIAN_POINT('',(51.5,318.4,75.2));
#597=CARTESIAN_POINT('',(60.3,318.4,75.2));
#598=CARTESIAN_POINT('',(77.4,336.2,75.2));
#599=CARTESIAN_POINT('',(83.7,336.2,75.2));
#600=CARTESIAN_POINT('',(154.55,53.3,75.2));
#601=CARTESIAN_POINT('',(132.8,53.3,75.2));
#602=CARTESIAN_POINT('',(195.2,53.3,75.2));
#603=CARTESIAN_POINT('',(132.8,66.7,75.2));
#604=CARTESIAN_POINT('',(119.4,66.7,75.2));
#605=CARTESIAN_POINT('',(119.4,185.55,75.2));
#606=CARTESIAN_POINT('',(119.4,150.3,75.2));
#607=CARTESIAN_POINT('',(132.8,150.3,75.2));
#608=CARTESIAN_POINT('',(132.8,163.7,75.2));
#609=CARTESIAN_POINT('',(154.55,163.7,75.2));
#610=CARTESIAN_POINT('',(195.2,163.7,75.2));
#611=CARTESIAN_POINT('',(195.2,150.3,75.2));
#612=CARTESIAN_POINT('',(208.6,150.3,75.2));
#613=CARTESIAN_POINT('',(208.6,185.55,75.2));
#614=CARTESIAN_POINT('',(208.6,66.7,75.2));
#615=CARTESIAN_POINT('',(195.2,66.7,75.2));
#616=CARTESIAN_POINT('',(154.55,360.4,75.2));
#617=CARTESIAN_POINT('',(309.1,360.4,75.2));
#618=CARTESIAN_POINT('',(10.,360.4,75.2));
#619=CARTESIAN_POINT('',(10.,185.55,75.2));
#620=CARTESIAN_POINT('',(10.,0.,75.2));
#621=CARTESIAN_POINT('',(154.55,0.,75.2));
#622=CARTESIAN_POINT('',(309.1,0.,75.2));
#623=CARTESIAN_POINT('',(309.1,185.55,75.2));
#624=CARTESIAN_POINT('',(154.55,185.55,75.2));
#625=CARTESIAN_POINT('',(44.6750000000001,0.,109.875));
#626=CARTESIAN_POINT('',(0.,0.,65.2));
#627=CARTESIAN_POINT('',(0.,0.,0.));
#628=CARTESIAN_POINT('',(0.,0.,0.));
#629=CARTESIAN_POINT('',(154.55,0.,0.));
#630=CARTESIAN_POINT('',(309.1,0.,0.));
#631=CARTESIAN_POINT('',(309.1,0.,0.));
#632=CARTESIAN_POINT('',(154.55,0.,0.));
#633=CARTESIAN_POINT('',(0.,185.55,65.2));
#634=CARTESIAN_POINT('',(0.,370.4,65.2));
#635=CARTESIAN_POINT('',(0.,310.575,125.025));
#636=CARTESIAN_POINT('',(0.,371.1,64.5));
#637=CARTESIAN_POINT('',(0.,371.1,0.));
#638=CARTESIAN_POINT('',(0.,371.1,0.));
#639=CARTESIAN_POINT('',(0.,185.55,0.));
#640=CARTESIAN_POINT('',(0.,185.55,0.));
#641=CARTESIAN_POINT('',(154.55,371.1,64.5));
#642=CARTESIAN_POINT('',(309.1,371.1,64.5));
#643=CARTESIAN_POINT('',(309.1,371.1,0.));
#644=CARTESIAN_POINT('',(309.1,371.1,0.));
#645=CARTESIAN_POINT('',(154.55,371.1,0.));
#646=CARTESIAN_POINT('',(154.55,371.1,0.));
#647=CARTESIAN_POINT('',(132.5,305.3,0.));
#648=CARTESIAN_POINT('',(118.25,305.3,0.));
#649=CARTESIAN_POINT('',(171.5,286.8,0.));
#650=CARTESIAN_POINT('',(161.55,286.8,0.));
#651=CARTESIAN_POINT('',(51.5,318.4,0.));
#652=CARTESIAN_POINT('',(42.7,318.4,0.));
#653=CARTESIAN_POINT('',(77.4,336.2,0.));
#654=CARTESIAN_POINT('',(71.1,336.2,0.));
#655=CARTESIAN_POINT('',(172.1,90.8,0.));
#656=CARTESIAN_POINT('',(165.35,90.8,0.));
#657=CARTESIAN_POINT('',(309.1,185.55,0.));
#658=CARTESIAN_POINT('',(154.55,185.55,0.));
#659=CARTESIAN_POINT('',(309.1,310.575,125.025));
#660=CARTESIAN_POINT('',(309.1,185.55,0.));
#661=CARTESIAN_POINT('',(51.0500000000001,319.35,116.25));
#662=CARTESIAN_POINT('',(154.55,371.1,64.5));
#663=CARTESIAN_POINT('',(0.,185.55,65.2));
#664=CARTESIAN_POINT('',(195.2,53.3,58.2));
#665=CARTESIAN_POINT('',(195.2,53.3,58.2));
#666=CARTESIAN_POINT('',(164.,53.3,58.2));
#667=CARTESIAN_POINT('',(132.8,53.3,58.2));
#668=CARTESIAN_POINT('',(132.8,53.3,75.2));
#669=CARTESIAN_POINT('',(164.,53.3,58.2));
#670=CARTESIAN_POINT('',(119.4,66.7,58.2));
#671=CARTESIAN_POINT('',(119.4,66.7,58.2));
#672=CARTESIAN_POINT('',(119.4,108.5,58.2));
#673=CARTESIAN_POINT('',(119.4,150.3,58.2));
#674=CARTESIAN_POINT('',(119.4,150.3,75.2));
#675=CARTESIAN_POINT('',(119.4,108.5,58.2));
#676=CARTESIAN_POINT('',(164.,163.7,58.2));
#677=CARTESIAN_POINT('',(132.8,163.7,58.2));
#678=CARTESIAN_POINT('',(195.2,163.7,58.2));
#679=CARTESIAN_POINT('',(195.2,163.7,75.2));
#680=CARTESIAN_POINT('',(132.8,163.7,58.2));
#681=CARTESIAN_POINT('',(164.,163.7,58.2));
#682=CARTESIAN_POINT('',(172.1,90.8,58.2));
#683=CARTESIAN_POINT('',(165.35,90.8,58.2));
#684=CARTESIAN_POINT('',(208.6,108.5,58.2));
#685=CARTESIAN_POINT('',(208.6,150.3,58.2));
#686=CARTESIAN_POINT('',(208.6,66.7,58.2));
#687=CARTESIAN_POINT('',(195.2,150.3,58.2));
#688=CARTESIAN_POINT('',(132.8,150.3,58.2));
#689=CARTESIAN_POINT('',(132.8,66.7,58.2));
#690=CARTESIAN_POINT('',(195.2,66.7,58.2));
#691=CARTESIAN_POINT('',(164.,108.5,58.2));
#692=CARTESIAN_POINT('',(208.6,150.3,58.2));
#693=CARTESIAN_POINT('',(208.6,66.7,75.2));
#694=CARTESIAN_POINT('',(208.6,108.5,58.2));
#695=CARTESIAN_POINT('',(195.2,150.3,58.2));
#696=CARTESIAN_POINT('',(195.2,66.7,58.2));
#697=CARTESIAN_POINT('',(132.8,66.7,58.2));
#698=CARTESIAN_POINT('',(132.8,150.3,58.2));
#699=CARTESIAN_POINT('',(172.1,90.8,75.25));
#700=CARTESIAN_POINT('',(77.4,336.2,75.25));
#701=CARTESIAN_POINT('',(51.5,318.4,75.25));
#702=CARTESIAN_POINT('',(171.5,286.8,75.25));
#703=CARTESIAN_POINT('',(132.5,305.3,75.25));
#704=MECHANICAL_DESIGN_GEOMETRIC_PRESENTATION_REPRESENTATION('',(#24),#705);
#705=(
GEOMETRIC_REPRESENTATION_CONTEXT(3)
GLOBAL_UNCERTAINTY_ASSIGNED_CONTEXT((#706))
GLOBAL_UNIT_ASSIGNED_CONTEXT((#712,#708,#707))
REPRESENTATION_CONTEXT('featured_part_01714','TOP_LEVEL_ASSEMBLY_PART')
);
#706=UNCERTAINTY_MEASURE_WITH_UNIT(LENGTH_MEASURE(2.E-5),#712,
'DISTANCE_ACCURACY_VALUE','Maximum Tolerance applied to model');
#707=(
NAMED_UNIT(*)
SI_UNIT($,.STERADIAN.)
SOLID_ANGLE_UNIT()
);
#708=(
CONVERSION_BASED_UNIT('DEGREE',#710)
NAMED_UNIT(#709)
PLANE_ANGLE_UNIT()
);
#709=DIMENSIONAL_EXPONENTS(0.,0.,0.,0.,0.,0.,0.);
#710=PLANE_ANGLE_MEASURE_WITH_UNIT(PLANE_ANGLE_MEASURE(0.0174532925),#711);
#711=(
NAMED_UNIT(*)
PLANE_ANGLE_UNIT()
SI_UNIT($,.RADIAN.)
);
#712=(
LENGTH_UNIT()
NAMED_UNIT(*)
SI_UNIT(.MILLI.,.METRE.)
);
ENDSEC;
END-ISO-10303-21;
