ISO-10303-21;
HEADER;
/* Generated by software containing ST-Developer
 * from STEP Tools, Inc. (www.steptools.com) 
 */
/* OPTION: using custom schema-name function */

FILE_DESCRIPTION(
/* description */ (''),
/* implementation_level */ '2;1');

FILE_NAME(
/* name */ 'featured_part_01592.stp',
/* time_stamp */ '2026-07-01T22:56:13-04:00',
/* author */ (''),
/* organization */ (''),
/* preprocessor_version */ 'ST-DEVELOPER v20.1',
/* originating_system */ 'SIEMENS PLM Software NX2512.6002',
/* authorisation */ '');

FILE_SCHEMA (('AUTOMOTIVE_DESIGN { 1 0 10303 214 3 1 1 1 }'));
ENDSEC;

DATA;
#10=SHAPE_REPRESENTATION_RELATIONSHIP('None',
'relationship between featured_part_01592-None and featured_part_01592
-None',#22,#11);
#11=ADVANCED_BREP_SHAPE_REPRESENTATION('featured_part_01592-None',(#32),
#1039);
#12=SHAPE_DEFINITION_REPRESENTATION(#13,#22);
#13=PRODUCT_DEFINITION_SHAPE('','',#14);
#14=PRODUCT_DEFINITION(' ','',#16,#15);
#15=PRODUCT_DEFINITION_CONTEXT('part definition',#21,'design');
#16=PRODUCT_DEFINITION_FORMATION_WITH_SPECIFIED_SOURCE(' ',' ',#18,
 .NOT_KNOWN.);
#17=PRODUCT_RELATED_PRODUCT_CATEGORY('part','',(#18));
#18=PRODUCT('featured_part_01592','featured_part_01592',' ',(#19));
#19=PRODUCT_CONTEXT(' ',#21,'mechanical');
#20=APPLICATION_PROTOCOL_DEFINITION('international standard',
'automotive_design',2010,#21);
#21=APPLICATION_CONTEXT(
'core data for automotive mechanical design processes');
#22=SHAPE_REPRESENTATION('featured_part_01592-None',(#625),#1039);
#23=PRESENTATION_LAYER_ASSIGNMENT('1','Layer 1',(#32));
#24=STYLED_ITEM('',(#25),#32);
#25=PRESENTATION_STYLE_ASSIGNMENT((#26));
#26=SURFACE_STYLE_USAGE(.BOTH.,#27);
#27=SURFACE_SIDE_STYLE('',(#28));
#28=SURFACE_STYLE_FILL_AREA(#29);
#29=FILL_AREA_STYLE('',(#30));
#30=FILL_AREA_STYLE_COLOUR('',#31);
#31=COLOUR_RGB('medium steel',0.611764705882353,0.658823529411765,0.670588235294118);
#32=MANIFOLD_SOLID_BREP('',#33);
#33=CLOSED_SHELL('',(#72,#73,#74,#75,#76,#77,#78,#79,#80,#81,#82,#83,#84,
#85,#86,#87,#88,#89,#90,#91,#92,#93,#94,#95,#96,#97,#98,#99,#100,#101,#102,
#103));
#34=CYLINDRICAL_SURFACE('',#659,3.1);
#35=CYLINDRICAL_SURFACE('',#660,3.1);
#36=CYLINDRICAL_SURFACE('',#661,3.1);
#37=CYLINDRICAL_SURFACE('',#662,3.1);
#38=CYLINDRICAL_SURFACE('',#674,12.6);
#39=CYLINDRICAL_SURFACE('',#675,12.6);
#40=CYLINDRICAL_SURFACE('',#676,12.6);
#41=CYLINDRICAL_SURFACE('',#678,3.3);
#42=CYLINDRICAL_SURFACE('',#681,12.);
#43=CYLINDRICAL_SURFACE('',#682,12.);
#44=CYLINDRICAL_SURFACE('',#683,5.85);
#45=CYLINDRICAL_SURFACE('',#686,10.);
#46=ELLIPSE('',#641,14.1421356237309,10.);
#47=FACE_OUTER_BOUND('',#144,.T.);
#48=FACE_OUTER_BOUND('',#145,.T.);
#49=FACE_OUTER_BOUND('',#146,.T.);
#50=FACE_OUTER_BOUND('',#151,.T.);
#51=FACE_OUTER_BOUND('',#152,.T.);
#52=FACE_OUTER_BOUND('',#153,.T.);
#53=FACE_OUTER_BOUND('',#154,.T.);
#54=FACE_OUTER_BOUND('',#155,.T.);
#55=FACE_OUTER_BOUND('',#156,.T.);
#56=FACE_OUTER_BOUND('',#157,.T.);
#57=FACE_OUTER_BOUND('',#160,.T.);
#58=FACE_OUTER_BOUND('',#161,.T.);
#59=FACE_OUTER_BOUND('',#162,.T.);
#60=FACE_OUTER_BOUND('',#163,.T.);
#61=FACE_OUTER_BOUND('',#164,.T.);
#62=FACE_OUTER_BOUND('',#165,.T.);
#63=FACE_OUTER_BOUND('',#166,.T.);
#64=FACE_OUTER_BOUND('',#167,.T.);
#65=FACE_OUTER_BOUND('',#168,.T.);
#66=FACE_OUTER_BOUND('',#169,.T.);
#67=FACE_OUTER_BOUND('',#170,.T.);
#68=FACE_OUTER_BOUND('',#171,.T.);
#69=FACE_OUTER_BOUND('',#172,.T.);
#70=FACE_OUTER_BOUND('',#173,.T.);
#71=FACE_OUTER_BOUND('',#180,.T.);
#72=ADVANCED_FACE('',(#124,#125,#126),#104,.T.);
#73=ADVANCED_FACE('',(#47),#105,.T.);
#74=ADVANCED_FACE('',(#48),#106,.T.);
#75=ADVANCED_FACE('',(#49),#107,.T.);
#76=ADVANCED_FACE('',(#127,#128,#129,#130),#108,.T.);
#77=ADVANCED_FACE('',(#50),#109,.T.);
#78=ADVANCED_FACE('',(#51),#110,.F.);
#79=ADVANCED_FACE('',(#52),#111,.F.);
#80=ADVANCED_FACE('',(#53),#112,.F.);
#81=ADVANCED_FACE('',(#54),#113,.F.);
#82=ADVANCED_FACE('',(#55),#114,.F.);
#83=ADVANCED_FACE('',(#56),#115,.F.);
#84=ADVANCED_FACE('',(#131,#132),#116,.F.);
#85=ADVANCED_FACE('',(#57),#117,.F.);
#86=ADVANCED_FACE('',(#58),#34,.F.);
#87=ADVANCED_FACE('',(#59),#35,.F.);
#88=ADVANCED_FACE('',(#60),#36,.F.);
#89=ADVANCED_FACE('',(#61),#37,.F.);
#90=ADVANCED_FACE('',(#62),#118,.F.);
#91=ADVANCED_FACE('',(#63),#119,.F.);
#92=ADVANCED_FACE('',(#64),#120,.F.);
#93=ADVANCED_FACE('',(#65),#121,.F.);
#94=ADVANCED_FACE('',(#66),#38,.F.);
#95=ADVANCED_FACE('',(#67),#39,.F.);
#96=ADVANCED_FACE('',(#68),#40,.F.);
#97=ADVANCED_FACE('',(#69),#41,.F.);
#98=ADVANCED_FACE('',(#70),#122,.F.);
#99=ADVANCED_FACE('',(#133,#134),#42,.F.);
#100=ADVANCED_FACE('',(#135,#136),#43,.F.);
#101=ADVANCED_FACE('',(#137,#138),#44,.F.);
#102=ADVANCED_FACE('',(#71),#123,.F.);
#103=ADVANCED_FACE('',(#139,#140),#45,.F.);
#104=PLANE('',#632);
#105=PLANE('',#633);
#106=PLANE('',#634);
#107=PLANE('',#635);
#108=PLANE('',#639);
#109=PLANE('',#640);
#110=PLANE('',#642);
#111=PLANE('',#643);
#112=PLANE('',#644);
#113=PLANE('',#645);
#114=PLANE('',#646);
#115=PLANE('',#647);
#116=PLANE('',#657);
#117=PLANE('',#658);
#118=PLANE('',#663);
#119=PLANE('',#664);
#120=PLANE('',#665);
#121=PLANE('',#673);
#122=PLANE('',#680);
#123=PLANE('',#685);
#124=FACE_BOUND('',#141,.T.);
#125=FACE_BOUND('',#142,.T.);
#126=FACE_BOUND('',#143,.T.);
#127=FACE_BOUND('',#147,.T.);
#128=FACE_BOUND('',#148,.T.);
#129=FACE_BOUND('',#149,.T.);
#130=FACE_BOUND('',#150,.T.);
#131=FACE_BOUND('',#158,.T.);
#132=FACE_BOUND('',#159,.T.);
#133=FACE_BOUND('',#174,.T.);
#134=FACE_BOUND('',#175,.T.);
#135=FACE_BOUND('',#176,.T.);
#136=FACE_BOUND('',#177,.T.);
#137=FACE_BOUND('',#178,.T.);
#138=FACE_BOUND('',#179,.T.);
#139=FACE_BOUND('',#181,.T.);
#140=FACE_BOUND('',#182,.T.);
#141=EDGE_LOOP('',(#291,#292,#293,#294,#295,#296));
#142=EDGE_LOOP('',(#297));
#143=EDGE_LOOP('',(#298,#299,#300,#301,#302,#303,#304,#305));
#144=EDGE_LOOP('',(#306,#307,#308,#309,#310));
#145=EDGE_LOOP('',(#311,#312,#313,#314,#315,#316));
#146=EDGE_LOOP('',(#317,#318,#319,#320));
#147=EDGE_LOOP('',(#321));
#148=EDGE_LOOP('',(#322));
#149=EDGE_LOOP('',(#323));
#150=EDGE_LOOP('',(#324,#325,#326,#327));
#151=EDGE_LOOP('',(#328,#329,#330,#331,#332));
#152=EDGE_LOOP('',(#333,#334,#335,#336,#337,#338,#339));
#153=EDGE_LOOP('',(#340,#341,#342,#343));
#154=EDGE_LOOP('',(#344,#345,#346,#347,#348));
#155=EDGE_LOOP('',(#349,#350,#351,#352));
#156=EDGE_LOOP('',(#353,#354,#355,#356));
#157=EDGE_LOOP('',(#357,#358,#359,#360));
#158=EDGE_LOOP('',(#361,#362,#363,#364,#365,#366,#367,#368));
#159=EDGE_LOOP('',(#369,#370,#371,#372,#373,#374,#375,#376));
#160=EDGE_LOOP('',(#377,#378,#379,#380));
#161=EDGE_LOOP('',(#381,#382,#383,#384));
#162=EDGE_LOOP('',(#385,#386,#387,#388));
#163=EDGE_LOOP('',(#389,#390,#391,#392));
#164=EDGE_LOOP('',(#393,#394,#395,#396));
#165=EDGE_LOOP('',(#397,#398,#399,#400));
#166=EDGE_LOOP('',(#401,#402,#403,#404));
#167=EDGE_LOOP('',(#405,#406,#407,#408));
#168=EDGE_LOOP('',(#409,#410,#411,#412,#413,#414,#415,#416,#417,#418));
#169=EDGE_LOOP('',(#419,#420,#421,#422));
#170=EDGE_LOOP('',(#423,#424,#425,#426));
#171=EDGE_LOOP('',(#427,#428,#429,#430));
#172=EDGE_LOOP('',(#431,#432,#433,#434));
#173=EDGE_LOOP('',(#435,#436));
#174=EDGE_LOOP('',(#437));
#175=EDGE_LOOP('',(#438,#439,#440,#441));
#176=EDGE_LOOP('',(#442));
#177=EDGE_LOOP('',(#443,#444,#445,#446,#447,#448,#449,#450));
#178=EDGE_LOOP('',(#451));
#179=EDGE_LOOP('',(#452));
#180=EDGE_LOOP('',(#453));
#181=EDGE_LOOP('',(#454,#455));
#182=EDGE_LOOP('',(#456));
#183=LINE('',#869,#237);
#184=LINE('',#871,#238);
#185=LINE('',#873,#239);
#186=LINE('',#875,#240);
#187=LINE('',#877,#241);
#188=LINE('',#880,#242);
#189=LINE('',#885,#243);
#190=LINE('',#889,#244);
#191=LINE('',#893,#245);
#192=LINE('',#897,#246);
#193=LINE('',#900,#247);
#194=LINE('',#902,#248);
#195=LINE('',#904,#249);
#196=LINE('',#906,#250);
#197=LINE('',#908,#251);
#198=LINE('',#909,#252);
#199=LINE('',#911,#253);
#200=LINE('',#913,#254);
#201=LINE('',#915,#255);
#202=LINE('',#917,#256);
#203=LINE('',#919,#257);
#204=LINE('',#927,#258);
#205=LINE('',#929,#259);
#206=LINE('',#931,#260);
#207=LINE('',#934,#261);
#208=LINE('',#936,#262);
#209=LINE('',#939,#263);
#210=LINE('',#942,#264);
#211=LINE('',#943,#265);
#212=LINE('',#945,#266);
#213=LINE('',#947,#267);
#214=LINE('',#949,#268);
#215=LINE('',#951,#269);
#216=LINE('',#954,#270);
#217=LINE('',#955,#271);
#218=LINE('',#957,#272);
#219=LINE('',#962,#273);
#220=LINE('',#966,#274);
#221=LINE('',#973,#275);
#222=LINE('',#981,#276);
#223=LINE('',#982,#277);
#224=LINE('',#988,#278);
#225=LINE('',#990,#279);
#226=LINE('',#992,#280);
#227=LINE('',#994,#281);
#228=LINE('',#997,#282);
#229=LINE('',#998,#283);
#230=LINE('',#1000,#284);
#231=LINE('',#1002,#285);
#232=LINE('',#1004,#286);
#233=LINE('',#1018,#287);
#234=LINE('',#1021,#288);
#235=LINE('',#1023,#289);
#236=LINE('',#1027,#290);
#237=VECTOR('',#691,1.);
#238=VECTOR('',#692,1.);
#239=VECTOR('',#693,1.);
#240=VECTOR('',#694,1.);
#241=VECTOR('',#695,1.);
#242=VECTOR('',#698,1.);
#243=VECTOR('',#701,1.);
#244=VECTOR('',#704,1.);
#245=VECTOR('',#707,1.);
#246=VECTOR('',#712,1.);
#247=VECTOR('',#713,1.);
#248=VECTOR('',#714,1.);
#249=VECTOR('',#715,1.);
#250=VECTOR('',#716,1.);
#251=VECTOR('',#719,1.);
#252=VECTOR('',#720,1.);
#253=VECTOR('',#721,1.);
#254=VECTOR('',#722,1.);
#255=VECTOR('',#725,1.);
#256=VECTOR('',#726,1.);
#257=VECTOR('',#727,1.);
#258=VECTOR('',#736,1.);
#259=VECTOR('',#739,1.);
#260=VECTOR('',#740,1.);
#261=VECTOR('',#745,1.);
#262=VECTOR('',#748,1.);
#263=VECTOR('',#753,1.);
#264=VECTOR('',#754,1.);
#265=VECTOR('',#755,1.);
#266=VECTOR('',#758,1.);
#267=VECTOR('',#759,1.);
#268=VECTOR('',#760,1.);
#269=VECTOR('',#763,1.);
#270=VECTOR('',#764,1.);
#271=VECTOR('',#765,1.);
#272=VECTOR('',#768,1.);
#273=VECTOR('',#771,1.);
#274=VECTOR('',#774,1.);
#275=VECTOR('',#781,1.);
#276=VECTOR('',#792,1.);
#277=VECTOR('',#793,1.);
#278=VECTOR('',#804,1.);
#279=VECTOR('',#805,1.);
#280=VECTOR('',#806,1.);
#281=VECTOR('',#809,1.);
#282=VECTOR('',#810,1.);
#283=VECTOR('',#811,1.);
#284=VECTOR('',#814,1.);
#285=VECTOR('',#815,1.);
#286=VECTOR('',#816,1.);
#287=VECTOR('',#835,1.);
#288=VECTOR('',#840,1.);
#289=VECTOR('',#843,1.);
#290=VECTOR('',#846,1.);
#291=ORIENTED_EDGE('',*,*,#514,.F.);
#292=ORIENTED_EDGE('',*,*,#515,.T.);
#293=ORIENTED_EDGE('',*,*,#516,.F.);
#294=ORIENTED_EDGE('',*,*,#517,.T.);
#295=ORIENTED_EDGE('',*,*,#518,.T.);
#296=ORIENTED_EDGE('',*,*,#519,.T.);
#297=ORIENTED_EDGE('',*,*,#520,.F.);
#298=ORIENTED_EDGE('',*,*,#521,.F.);
#299=ORIENTED_EDGE('',*,*,#522,.T.);
#300=ORIENTED_EDGE('',*,*,#523,.F.);
#301=ORIENTED_EDGE('',*,*,#524,.T.);
#302=ORIENTED_EDGE('',*,*,#525,.F.);
#303=ORIENTED_EDGE('',*,*,#526,.T.);
#304=ORIENTED_EDGE('',*,*,#527,.F.);
#305=ORIENTED_EDGE('',*,*,#528,.T.);
#306=ORIENTED_EDGE('',*,*,#529,.T.);
#307=ORIENTED_EDGE('',*,*,#530,.T.);
#308=ORIENTED_EDGE('',*,*,#531,.T.);
#309=ORIENTED_EDGE('',*,*,#532,.F.);
#310=ORIENTED_EDGE('',*,*,#533,.T.);
#311=ORIENTED_EDGE('',*,*,#532,.T.);
#312=ORIENTED_EDGE('',*,*,#534,.T.);
#313=ORIENTED_EDGE('',*,*,#516,.T.);
#314=ORIENTED_EDGE('',*,*,#535,.T.);
#315=ORIENTED_EDGE('',*,*,#536,.F.);
#316=ORIENTED_EDGE('',*,*,#537,.T.);
#317=ORIENTED_EDGE('',*,*,#536,.T.);
#318=ORIENTED_EDGE('',*,*,#538,.T.);
#319=ORIENTED_EDGE('',*,*,#539,.F.);
#320=ORIENTED_EDGE('',*,*,#540,.T.);
#321=ORIENTED_EDGE('',*,*,#541,.F.);
#322=ORIENTED_EDGE('',*,*,#542,.F.);
#323=ORIENTED_EDGE('',*,*,#543,.F.);
#324=ORIENTED_EDGE('',*,*,#544,.F.);
#325=ORIENTED_EDGE('',*,*,#533,.F.);
#326=ORIENTED_EDGE('',*,*,#537,.F.);
#327=ORIENTED_EDGE('',*,*,#540,.F.);
#328=ORIENTED_EDGE('',*,*,#545,.T.);
#329=ORIENTED_EDGE('',*,*,#546,.T.);
#330=ORIENTED_EDGE('',*,*,#529,.F.);
#331=ORIENTED_EDGE('',*,*,#544,.T.);
#332=ORIENTED_EDGE('',*,*,#539,.T.);
#333=ORIENTED_EDGE('',*,*,#547,.F.);
#334=ORIENTED_EDGE('',*,*,#519,.F.);
#335=ORIENTED_EDGE('',*,*,#548,.T.);
#336=ORIENTED_EDGE('',*,*,#545,.F.);
#337=ORIENTED_EDGE('',*,*,#538,.F.);
#338=ORIENTED_EDGE('',*,*,#535,.F.);
#339=ORIENTED_EDGE('',*,*,#515,.F.);
#340=ORIENTED_EDGE('',*,*,#531,.F.);
#341=ORIENTED_EDGE('',*,*,#549,.T.);
#342=ORIENTED_EDGE('',*,*,#517,.F.);
#343=ORIENTED_EDGE('',*,*,#534,.F.);
#344=ORIENTED_EDGE('',*,*,#548,.F.);
#345=ORIENTED_EDGE('',*,*,#518,.F.);
#346=ORIENTED_EDGE('',*,*,#549,.F.);
#347=ORIENTED_EDGE('',*,*,#530,.F.);
#348=ORIENTED_EDGE('',*,*,#546,.F.);
#349=ORIENTED_EDGE('',*,*,#550,.T.);
#350=ORIENTED_EDGE('',*,*,#551,.T.);
#351=ORIENTED_EDGE('',*,*,#521,.T.);
#352=ORIENTED_EDGE('',*,*,#552,.T.);
#353=ORIENTED_EDGE('',*,*,#523,.T.);
#354=ORIENTED_EDGE('',*,*,#553,.T.);
#355=ORIENTED_EDGE('',*,*,#554,.T.);
#356=ORIENTED_EDGE('',*,*,#555,.T.);
#357=ORIENTED_EDGE('',*,*,#556,.T.);
#358=ORIENTED_EDGE('',*,*,#557,.T.);
#359=ORIENTED_EDGE('',*,*,#525,.T.);
#360=ORIENTED_EDGE('',*,*,#558,.T.);
#361=ORIENTED_EDGE('',*,*,#559,.T.);
#362=ORIENTED_EDGE('',*,*,#560,.T.);
#363=ORIENTED_EDGE('',*,*,#561,.T.);
#364=ORIENTED_EDGE('',*,*,#562,.T.);
#365=ORIENTED_EDGE('',*,*,#563,.T.);
#366=ORIENTED_EDGE('',*,*,#564,.T.);
#367=ORIENTED_EDGE('',*,*,#565,.T.);
#368=ORIENTED_EDGE('',*,*,#566,.T.);
#369=ORIENTED_EDGE('',*,*,#567,.F.);
#370=ORIENTED_EDGE('',*,*,#568,.T.);
#371=ORIENTED_EDGE('',*,*,#556,.F.);
#372=ORIENTED_EDGE('',*,*,#569,.T.);
#373=ORIENTED_EDGE('',*,*,#554,.F.);
#374=ORIENTED_EDGE('',*,*,#570,.T.);
#375=ORIENTED_EDGE('',*,*,#550,.F.);
#376=ORIENTED_EDGE('',*,*,#571,.T.);
#377=ORIENTED_EDGE('',*,*,#527,.T.);
#378=ORIENTED_EDGE('',*,*,#572,.T.);
#379=ORIENTED_EDGE('',*,*,#567,.T.);
#380=ORIENTED_EDGE('',*,*,#573,.T.);
#381=ORIENTED_EDGE('',*,*,#526,.F.);
#382=ORIENTED_EDGE('',*,*,#557,.F.);
#383=ORIENTED_EDGE('',*,*,#568,.F.);
#384=ORIENTED_EDGE('',*,*,#572,.F.);
#385=ORIENTED_EDGE('',*,*,#522,.F.);
#386=ORIENTED_EDGE('',*,*,#551,.F.);
#387=ORIENTED_EDGE('',*,*,#570,.F.);
#388=ORIENTED_EDGE('',*,*,#553,.F.);
#389=ORIENTED_EDGE('',*,*,#528,.F.);
#390=ORIENTED_EDGE('',*,*,#573,.F.);
#391=ORIENTED_EDGE('',*,*,#571,.F.);
#392=ORIENTED_EDGE('',*,*,#552,.F.);
#393=ORIENTED_EDGE('',*,*,#524,.F.);
#394=ORIENTED_EDGE('',*,*,#555,.F.);
#395=ORIENTED_EDGE('',*,*,#569,.F.);
#396=ORIENTED_EDGE('',*,*,#558,.F.);
#397=ORIENTED_EDGE('',*,*,#563,.F.);
#398=ORIENTED_EDGE('',*,*,#574,.T.);
#399=ORIENTED_EDGE('',*,*,#575,.T.);
#400=ORIENTED_EDGE('',*,*,#576,.T.);
#401=ORIENTED_EDGE('',*,*,#577,.T.);
#402=ORIENTED_EDGE('',*,*,#578,.T.);
#403=ORIENTED_EDGE('',*,*,#559,.F.);
#404=ORIENTED_EDGE('',*,*,#579,.T.);
#405=ORIENTED_EDGE('',*,*,#561,.F.);
#406=ORIENTED_EDGE('',*,*,#580,.T.);
#407=ORIENTED_EDGE('',*,*,#581,.T.);
#408=ORIENTED_EDGE('',*,*,#582,.T.);
#409=ORIENTED_EDGE('',*,*,#581,.F.);
#410=ORIENTED_EDGE('',*,*,#583,.T.);
#411=ORIENTED_EDGE('',*,*,#584,.T.);
#412=ORIENTED_EDGE('',*,*,#585,.T.);
#413=ORIENTED_EDGE('',*,*,#577,.F.);
#414=ORIENTED_EDGE('',*,*,#586,.T.);
#415=ORIENTED_EDGE('',*,*,#587,.T.);
#416=ORIENTED_EDGE('',*,*,#588,.T.);
#417=ORIENTED_EDGE('',*,*,#575,.F.);
#418=ORIENTED_EDGE('',*,*,#589,.T.);
#419=ORIENTED_EDGE('',*,*,#566,.F.);
#420=ORIENTED_EDGE('',*,*,#590,.T.);
#421=ORIENTED_EDGE('',*,*,#586,.F.);
#422=ORIENTED_EDGE('',*,*,#579,.F.);
#423=ORIENTED_EDGE('',*,*,#562,.F.);
#424=ORIENTED_EDGE('',*,*,#582,.F.);
#425=ORIENTED_EDGE('',*,*,#589,.F.);
#426=ORIENTED_EDGE('',*,*,#574,.F.);
#427=ORIENTED_EDGE('',*,*,#588,.F.);
#428=ORIENTED_EDGE('',*,*,#591,.T.);
#429=ORIENTED_EDGE('',*,*,#564,.F.);
#430=ORIENTED_EDGE('',*,*,#576,.F.);
#431=ORIENTED_EDGE('',*,*,#584,.F.);
#432=ORIENTED_EDGE('',*,*,#592,.T.);
#433=ORIENTED_EDGE('',*,*,#593,.T.);
#434=ORIENTED_EDGE('',*,*,#594,.T.);
#435=ORIENTED_EDGE('',*,*,#593,.F.);
#436=ORIENTED_EDGE('',*,*,#595,.T.);
#437=ORIENTED_EDGE('',*,*,#543,.T.);
#438=ORIENTED_EDGE('',*,*,#565,.F.);
#439=ORIENTED_EDGE('',*,*,#591,.F.);
#440=ORIENTED_EDGE('',*,*,#587,.F.);
#441=ORIENTED_EDGE('',*,*,#590,.F.);
#442=ORIENTED_EDGE('',*,*,#542,.T.);
#443=ORIENTED_EDGE('',*,*,#578,.F.);
#444=ORIENTED_EDGE('',*,*,#585,.F.);
#445=ORIENTED_EDGE('',*,*,#594,.F.);
#446=ORIENTED_EDGE('',*,*,#595,.F.);
#447=ORIENTED_EDGE('',*,*,#592,.F.);
#448=ORIENTED_EDGE('',*,*,#583,.F.);
#449=ORIENTED_EDGE('',*,*,#580,.F.);
#450=ORIENTED_EDGE('',*,*,#560,.F.);
#451=ORIENTED_EDGE('',*,*,#520,.T.);
#452=ORIENTED_EDGE('',*,*,#541,.T.);
#453=ORIENTED_EDGE('',*,*,#596,.F.);
#454=ORIENTED_EDGE('',*,*,#514,.T.);
#455=ORIENTED_EDGE('',*,*,#547,.T.);
#456=ORIENTED_EDGE('',*,*,#596,.T.);
#457=VERTEX_POINT('',#867);
#458=VERTEX_POINT('',#868);
#459=VERTEX_POINT('',#870);
#460=VERTEX_POINT('',#872);
#461=VERTEX_POINT('',#874);
#462=VERTEX_POINT('',#876);
#463=VERTEX_POINT('',#879);
#464=VERTEX_POINT('',#881);
#465=VERTEX_POINT('',#882);
#466=VERTEX_POINT('',#884);
#467=VERTEX_POINT('',#886);
#468=VERTEX_POINT('',#888);
#469=VERTEX_POINT('',#890);
#470=VERTEX_POINT('',#892);
#471=VERTEX_POINT('',#894);
#472=VERTEX_POINT('',#898);
#473=VERTEX_POINT('',#899);
#474=VERTEX_POINT('',#901);
#475=VERTEX_POINT('',#903);
#476=VERTEX_POINT('',#905);
#477=VERTEX_POINT('',#910);
#478=VERTEX_POINT('',#912);
#479=VERTEX_POINT('',#916);
#480=VERTEX_POINT('',#918);
#481=VERTEX_POINT('',#922);
#482=VERTEX_POINT('',#924);
#483=VERTEX_POINT('',#926);
#484=VERTEX_POINT('',#930);
#485=VERTEX_POINT('',#940);
#486=VERTEX_POINT('',#941);
#487=VERTEX_POINT('',#946);
#488=VERTEX_POINT('',#948);
#489=VERTEX_POINT('',#952);
#490=VERTEX_POINT('',#953);
#491=VERTEX_POINT('',#958);
#492=VERTEX_POINT('',#959);
#493=VERTEX_POINT('',#961);
#494=VERTEX_POINT('',#963);
#495=VERTEX_POINT('',#965);
#496=VERTEX_POINT('',#967);
#497=VERTEX_POINT('',#969);
#498=VERTEX_POINT('',#971);
#499=VERTEX_POINT('',#974);
#500=VERTEX_POINT('',#975);
#501=VERTEX_POINT('',#989);
#502=VERTEX_POINT('',#991);
#503=VERTEX_POINT('',#995);
#504=VERTEX_POINT('',#996);
#505=VERTEX_POINT('',#1001);
#506=VERTEX_POINT('',#1003);
#507=VERTEX_POINT('',#1007);
#508=VERTEX_POINT('',#1009);
#509=VERTEX_POINT('',#1012);
#510=VERTEX_POINT('',#1014);
#511=VERTEX_POINT('',#1024);
#512=VERTEX_POINT('',#1026);
#513=VERTEX_POINT('',#1035);
#514=EDGE_CURVE('',#457,#458,#597,.T.);
#515=EDGE_CURVE('',#457,#459,#183,.T.);
#516=EDGE_CURVE('',#460,#459,#184,.T.);
#517=EDGE_CURVE('',#460,#461,#185,.T.);
#518=EDGE_CURVE('',#461,#462,#186,.T.);
#519=EDGE_CURVE('',#462,#458,#187,.T.);
#520=EDGE_CURVE('',#463,#463,#598,.T.);
#521=EDGE_CURVE('',#464,#465,#188,.T.);
#522=EDGE_CURVE('',#464,#466,#599,.T.);
#523=EDGE_CURVE('',#467,#466,#189,.T.);
#524=EDGE_CURVE('',#467,#468,#600,.T.);
#525=EDGE_CURVE('',#469,#468,#190,.T.);
#526=EDGE_CURVE('',#469,#470,#601,.T.);
#527=EDGE_CURVE('',#471,#470,#191,.T.);
#528=EDGE_CURVE('',#471,#465,#602,.T.);
#529=EDGE_CURVE('',#472,#473,#192,.T.);
#530=EDGE_CURVE('',#473,#474,#193,.T.);
#531=EDGE_CURVE('',#474,#475,#194,.T.);
#532=EDGE_CURVE('',#476,#475,#195,.T.);
#533=EDGE_CURVE('',#476,#472,#196,.T.);
#534=EDGE_CURVE('',#475,#460,#197,.T.);
#535=EDGE_CURVE('',#459,#477,#198,.T.);
#536=EDGE_CURVE('',#478,#477,#199,.T.);
#537=EDGE_CURVE('',#478,#476,#200,.T.);
#538=EDGE_CURVE('',#477,#479,#201,.T.);
#539=EDGE_CURVE('',#480,#479,#202,.T.);
#540=EDGE_CURVE('',#480,#478,#203,.T.);
#541=EDGE_CURVE('',#481,#481,#603,.T.);
#542=EDGE_CURVE('',#482,#482,#604,.T.);
#543=EDGE_CURVE('',#483,#483,#605,.T.);
#544=EDGE_CURVE('',#472,#480,#204,.T.);
#545=EDGE_CURVE('',#479,#484,#205,.T.);
#546=EDGE_CURVE('',#484,#473,#206,.T.);
#547=EDGE_CURVE('',#458,#457,#46,.T.);
#548=EDGE_CURVE('',#462,#484,#207,.T.);
#549=EDGE_CURVE('',#474,#461,#208,.T.);
#550=EDGE_CURVE('',#485,#486,#209,.T.);
#551=EDGE_CURVE('',#486,#464,#210,.T.);
#552=EDGE_CURVE('',#465,#485,#211,.T.);
#553=EDGE_CURVE('',#466,#487,#212,.T.);
#554=EDGE_CURVE('',#487,#488,#213,.T.);
#555=EDGE_CURVE('',#488,#467,#214,.T.);
#556=EDGE_CURVE('',#489,#490,#215,.T.);
#557=EDGE_CURVE('',#490,#469,#216,.T.);
#558=EDGE_CURVE('',#468,#489,#217,.T.);
#559=EDGE_CURVE('',#491,#492,#218,.T.);
#560=EDGE_CURVE('',#492,#493,#606,.T.);
#561=EDGE_CURVE('',#493,#494,#219,.T.);
#562=EDGE_CURVE('',#494,#495,#607,.T.);
#563=EDGE_CURVE('',#495,#496,#220,.T.);
#564=EDGE_CURVE('',#496,#497,#608,.T.);
#565=EDGE_CURVE('',#497,#498,#609,.T.);
#566=EDGE_CURVE('',#498,#491,#610,.T.);
#567=EDGE_CURVE('',#499,#500,#221,.T.);
#568=EDGE_CURVE('',#499,#490,#611,.T.);
#569=EDGE_CURVE('',#489,#488,#612,.T.);
#570=EDGE_CURVE('',#487,#486,#613,.T.);
#571=EDGE_CURVE('',#485,#500,#614,.T.);
#572=EDGE_CURVE('',#470,#499,#222,.T.);
#573=EDGE_CURVE('',#500,#471,#223,.T.);
#574=EDGE_CURVE('',#495,#501,#224,.T.);
#575=EDGE_CURVE('',#501,#502,#225,.T.);
#576=EDGE_CURVE('',#502,#496,#226,.T.);
#577=EDGE_CURVE('',#503,#504,#227,.T.);
#578=EDGE_CURVE('',#504,#492,#228,.T.);
#579=EDGE_CURVE('',#491,#503,#229,.T.);
#580=EDGE_CURVE('',#493,#505,#230,.T.);
#581=EDGE_CURVE('',#505,#506,#231,.T.);
#582=EDGE_CURVE('',#506,#494,#232,.T.);
#583=EDGE_CURVE('',#505,#507,#615,.T.);
#584=EDGE_CURVE('',#507,#508,#616,.T.);
#585=EDGE_CURVE('',#508,#504,#617,.T.);
#586=EDGE_CURVE('',#503,#509,#618,.T.);
#587=EDGE_CURVE('',#509,#510,#619,.T.);
#588=EDGE_CURVE('',#510,#502,#620,.T.);
#589=EDGE_CURVE('',#501,#506,#621,.T.);
#590=EDGE_CURVE('',#498,#509,#233,.T.);
#591=EDGE_CURVE('',#510,#497,#234,.T.);
#592=EDGE_CURVE('',#507,#511,#235,.T.);
#593=EDGE_CURVE('',#511,#512,#622,.T.);
#594=EDGE_CURVE('',#512,#508,#236,.T.);
#595=EDGE_CURVE('',#511,#512,#623,.T.);
#596=EDGE_CURVE('',#513,#513,#624,.T.);
#597=CIRCLE('',#626,10.);
#598=CIRCLE('',#627,5.85);
#599=CIRCLE('',#628,3.1);
#600=CIRCLE('',#629,3.1);
#601=CIRCLE('',#630,3.1);
#602=CIRCLE('',#631,3.1);
#603=CIRCLE('',#636,5.85);
#604=CIRCLE('',#637,12.);
#605=CIRCLE('',#638,12.);
#606=CIRCLE('',#648,12.);
#607=CIRCLE('',#649,12.6);
#608=CIRCLE('',#650,12.6);
#609=CIRCLE('',#651,12.);
#610=CIRCLE('',#652,12.6);
#611=CIRCLE('',#653,3.1);
#612=CIRCLE('',#654,3.1);
#613=CIRCLE('',#655,3.1);
#614=CIRCLE('',#656,3.1);
#615=CIRCLE('',#666,12.);
#616=CIRCLE('',#667,3.3);
#617=CIRCLE('',#668,12.);
#618=CIRCLE('',#669,12.6);
#619=CIRCLE('',#670,12.);
#620=CIRCLE('',#671,12.6);
#621=CIRCLE('',#672,12.6);
#622=CIRCLE('',#677,3.3);
#623=CIRCLE('',#679,12.);
#624=CIRCLE('',#684,10.);
#625=AXIS2_PLACEMENT_3D('',#865,#687,#688);
#626=AXIS2_PLACEMENT_3D('',#866,#689,#690);
#627=AXIS2_PLACEMENT_3D('',#878,#696,#697);
#628=AXIS2_PLACEMENT_3D('',#883,#699,#700);
#629=AXIS2_PLACEMENT_3D('',#887,#702,#703);
#630=AXIS2_PLACEMENT_3D('',#891,#705,#706);
#631=AXIS2_PLACEMENT_3D('',#895,#708,#709);
#632=AXIS2_PLACEMENT_3D('',#896,#710,#711);
#633=AXIS2_PLACEMENT_3D('',#907,#717,#718);
#634=AXIS2_PLACEMENT_3D('',#914,#723,#724);
#635=AXIS2_PLACEMENT_3D('',#920,#728,#729);
#636=AXIS2_PLACEMENT_3D('',#921,#730,#731);
#637=AXIS2_PLACEMENT_3D('',#923,#732,#733);
#638=AXIS2_PLACEMENT_3D('',#925,#734,#735);
#639=AXIS2_PLACEMENT_3D('',#928,#737,#738);
#640=AXIS2_PLACEMENT_3D('',#932,#741,#742);
#641=AXIS2_PLACEMENT_3D('',#933,#743,#744);
#642=AXIS2_PLACEMENT_3D('',#935,#746,#747);
#643=AXIS2_PLACEMENT_3D('',#937,#749,#750);
#644=AXIS2_PLACEMENT_3D('',#938,#751,#752);
#645=AXIS2_PLACEMENT_3D('',#944,#756,#757);
#646=AXIS2_PLACEMENT_3D('',#950,#761,#762);
#647=AXIS2_PLACEMENT_3D('',#956,#766,#767);
#648=AXIS2_PLACEMENT_3D('',#960,#769,#770);
#649=AXIS2_PLACEMENT_3D('',#964,#772,#773);
#650=AXIS2_PLACEMENT_3D('',#968,#775,#776);
#651=AXIS2_PLACEMENT_3D('',#970,#777,#778);
#652=AXIS2_PLACEMENT_3D('',#972,#779,#780);
#653=AXIS2_PLACEMENT_3D('',#976,#782,#783);
#654=AXIS2_PLACEMENT_3D('',#977,#784,#785);
#655=AXIS2_PLACEMENT_3D('',#978,#786,#787);
#656=AXIS2_PLACEMENT_3D('',#979,#788,#789);
#657=AXIS2_PLACEMENT_3D('',#980,#790,#791);
#658=AXIS2_PLACEMENT_3D('',#983,#794,#795);
#659=AXIS2_PLACEMENT_3D('',#984,#796,#797);
#660=AXIS2_PLACEMENT_3D('',#985,#798,#799);
#661=AXIS2_PLACEMENT_3D('',#986,#800,#801);
#662=AXIS2_PLACEMENT_3D('',#987,#802,#803);
#663=AXIS2_PLACEMENT_3D('',#993,#807,#808);
#664=AXIS2_PLACEMENT_3D('',#999,#812,#813);
#665=AXIS2_PLACEMENT_3D('',#1005,#817,#818);
#666=AXIS2_PLACEMENT_3D('',#1006,#819,#820);
#667=AXIS2_PLACEMENT_3D('',#1008,#821,#822);
#668=AXIS2_PLACEMENT_3D('',#1010,#823,#824);
#669=AXIS2_PLACEMENT_3D('',#1011,#825,#826);
#670=AXIS2_PLACEMENT_3D('',#1013,#827,#828);
#671=AXIS2_PLACEMENT_3D('',#1015,#829,#830);
#672=AXIS2_PLACEMENT_3D('',#1016,#831,#832);
#673=AXIS2_PLACEMENT_3D('',#1017,#833,#834);
#674=AXIS2_PLACEMENT_3D('',#1019,#836,#837);
#675=AXIS2_PLACEMENT_3D('',#1020,#838,#839);
#676=AXIS2_PLACEMENT_3D('',#1022,#841,#842);
#677=AXIS2_PLACEMENT_3D('',#1025,#844,#845);
#678=AXIS2_PLACEMENT_3D('',#1028,#847,#848);
#679=AXIS2_PLACEMENT_3D('',#1029,#849,#850);
#680=AXIS2_PLACEMENT_3D('',#1030,#851,#852);
#681=AXIS2_PLACEMENT_3D('',#1031,#853,#854);
#682=AXIS2_PLACEMENT_3D('',#1032,#855,#856);
#683=AXIS2_PLACEMENT_3D('',#1033,#857,#858);
#684=AXIS2_PLACEMENT_3D('',#1034,#859,#860);
#685=AXIS2_PLACEMENT_3D('',#1036,#861,#862);
#686=AXIS2_PLACEMENT_3D('',#1037,#863,#864);
#687=DIRECTION('',(0.,0.,1.));
#688=DIRECTION('',(1.,0.,0.));
#689=DIRECTION('',(0.,0.,1.));
#690=DIRECTION('',(1.,0.,0.));
#691=DIRECTION('',(-1.,0.,0.));
#692=DIRECTION('',(0.,1.,0.));
#693=DIRECTION('',(1.,0.,0.));
#694=DIRECTION('',(0.,1.,0.));
#695=DIRECTION('',(-1.,0.,0.));
#696=DIRECTION('',(0.,0.,1.));
#697=DIRECTION('',(0.999999999999999,0.,0.));
#698=DIRECTION('',(1.,0.,0.));
#699=DIRECTION('',(0.,0.,-1.));
#700=DIRECTION('',(0.999999999999999,0.,0.));
#701=DIRECTION('',(0.,-1.,0.));
#702=DIRECTION('',(0.,0.,-1.));
#703=DIRECTION('',(0.999999999999999,0.,0.));
#704=DIRECTION('',(-1.,0.,0.));
#705=DIRECTION('',(0.,0.,-1.));
#706=DIRECTION('',(0.999999999999997,0.,0.));
#707=DIRECTION('',(0.,1.,0.));
#708=DIRECTION('',(0.,0.,-1.));
#709=DIRECTION('',(0.999999999999997,0.,0.));
#710=DIRECTION('',(0.,0.,1.));
#711=DIRECTION('',(1.,0.,0.));
#712=DIRECTION('',(0.,0.,1.));
#713=DIRECTION('',(-0.707106781186548,0.,0.707106781186548));
#714=DIRECTION('',(-1.,0.,0.));
#715=DIRECTION('',(0.,0.,1.));
#716=DIRECTION('',(1.,0.,0.));
#717=DIRECTION('',(0.,-1.,0.));
#718=DIRECTION('',(0.,0.,-1.));
#719=DIRECTION('',(0.,0.707106781186548,0.707106781186548));
#720=DIRECTION('',(0.,0.707106781186548,-0.707106781186548));
#721=DIRECTION('',(0.,0.,1.));
#722=DIRECTION('',(0.,-1.,0.));
#723=DIRECTION('',(-1.,0.,0.));
#724=DIRECTION('',(0.,0.,1.));
#725=DIRECTION('',(1.,0.,0.));
#726=DIRECTION('',(0.,0.,1.));
#727=DIRECTION('',(-1.,0.,0.));
#728=DIRECTION('',(0.,1.,0.));
#729=DIRECTION('',(0.,0.,1.));
#730=DIRECTION('',(0.,0.,-1.));
#731=DIRECTION('',(-0.999999999999999,0.,0.));
#732=DIRECTION('',(0.,0.,-1.));
#733=DIRECTION('',(-1.,0.,0.));
#734=DIRECTION('',(0.,0.,-1.));
#735=DIRECTION('',(-1.,0.,0.));
#736=DIRECTION('',(0.,1.,0.));
#737=DIRECTION('',(0.,0.,-1.));
#738=DIRECTION('',(-1.,0.,0.));
#739=DIRECTION('',(0.,-0.707106781186548,0.707106781186548));
#740=DIRECTION('',(0.,-1.,0.));
#741=DIRECTION('',(1.,0.,0.));
#742=DIRECTION('',(0.,0.,-1.));
#743=DIRECTION('',(0.,0.707106781186548,0.707106781186548));
#744=DIRECTION('',(0.,0.707106781186548,-0.707106781186548));
#745=DIRECTION('',(0.577350269189626,0.577350269189626,-0.577350269189626));
#746=DIRECTION('',(0.,-0.707106781186548,-0.707106781186548));
#747=DIRECTION('',(1.,0.,0.));
#748=DIRECTION('',(-0.577350269189626,0.577350269189626,0.577350269189626));
#749=DIRECTION('',(0.,0.707106781186547,-0.707106781186547));
#750=DIRECTION('',(-1.,0.,0.));
#751=DIRECTION('',(-0.707106781186547,0.,-0.707106781186547));
#752=DIRECTION('',(0.,-1.,0.));
#753=DIRECTION('',(-1.,0.,0.));
#754=DIRECTION('',(0.,0.,1.));
#755=DIRECTION('',(0.,0.,-1.));
#756=DIRECTION('',(0.,-1.,0.));
#757=DIRECTION('',(0.,0.,-1.));
#758=DIRECTION('',(0.,0.,-1.));
#759=DIRECTION('',(0.,1.,0.));
#760=DIRECTION('',(0.,0.,1.));
#761=DIRECTION('',(-1.,0.,0.));
#762=DIRECTION('',(0.,0.,1.));
#763=DIRECTION('',(1.,0.,0.));
#764=DIRECTION('',(0.,0.,1.));
#765=DIRECTION('',(0.,0.,-1.));
#766=DIRECTION('',(0.,1.,0.));
#767=DIRECTION('',(0.,0.,1.));
#768=DIRECTION('',(1.,0.,0.));
#769=DIRECTION('',(0.,0.,-1.));
#770=DIRECTION('',(-1.,0.,0.));
#771=DIRECTION('',(0.,-1.,0.));
#772=DIRECTION('',(0.,0.,-1.));
#773=DIRECTION('',(-1.,0.,0.));
#774=DIRECTION('',(-1.,0.,0.));
#775=DIRECTION('',(0.,0.,-1.));
#776=DIRECTION('',(-1.,0.,0.));
#777=DIRECTION('',(0.,0.,-1.));
#778=DIRECTION('',(-1.,0.,0.));
#779=DIRECTION('',(0.,0.,-1.));
#780=DIRECTION('',(-1.,0.,0.));
#781=DIRECTION('',(0.,-1.,0.));
#782=DIRECTION('',(0.,0.,1.));
#783=DIRECTION('',(-0.999999999999997,0.,0.));
#784=DIRECTION('',(0.,0.,1.));
#785=DIRECTION('',(-0.999999999999999,0.,0.));
#786=DIRECTION('',(0.,0.,1.));
#787=DIRECTION('',(-0.999999999999999,0.,0.));
#788=DIRECTION('',(0.,0.,1.));
#789=DIRECTION('',(-0.999999999999997,0.,0.));
#790=DIRECTION('',(0.,0.,-1.));
#791=DIRECTION('',(-1.,0.,0.));
#792=DIRECTION('',(0.,0.,-1.));
#793=DIRECTION('',(0.,0.,1.));
#794=DIRECTION('',(1.,0.,0.));
#795=DIRECTION('',(0.,0.,-1.));
#796=DIRECTION('',(0.,0.,1.));
#797=DIRECTION('',(0.999999999999997,0.,0.));
#798=DIRECTION('',(0.,0.,1.));
#799=DIRECTION('',(0.999999999999999,0.,0.));
#800=DIRECTION('',(0.,0.,1.));
#801=DIRECTION('',(0.999999999999997,0.,0.));
#802=DIRECTION('',(0.,0.,1.));
#803=DIRECTION('',(0.999999999999999,0.,0.));
#804=DIRECTION('',(0.,0.,-1.));
#805=DIRECTION('',(-1.,0.,0.));
#806=DIRECTION('',(0.,0.,1.));
#807=DIRECTION('',(0.,-1.,0.));
#808=DIRECTION('',(0.,0.,-1.));
#809=DIRECTION('',(1.,0.,0.));
#810=DIRECTION('',(0.,0.,1.));
#811=DIRECTION('',(0.,0.,-1.));
#812=DIRECTION('',(0.,1.,0.));
#813=DIRECTION('',(0.,0.,1.));
#814=DIRECTION('',(0.,0.,-1.));
#815=DIRECTION('',(0.,-1.,0.));
#816=DIRECTION('',(0.,0.,1.));
#817=DIRECTION('',(1.,0.,0.));
#818=DIRECTION('',(0.,0.,-1.));
#819=DIRECTION('',(0.,0.,-1.));
#820=DIRECTION('',(-1.,0.,0.));
#821=DIRECTION('',(0.,0.,-1.));
#822=DIRECTION('',(-0.999999999999999,0.,0.));
#823=DIRECTION('',(0.,0.,-1.));
#824=DIRECTION('',(-1.,0.,0.));
#825=DIRECTION('',(0.,0.,1.));
#826=DIRECTION('',(-1.,0.,0.));
#827=DIRECTION('',(0.,0.,-1.));
#828=DIRECTION('',(-1.,0.,0.));
#829=DIRECTION('',(0.,0.,1.));
#830=DIRECTION('',(-1.,0.,0.));
#831=DIRECTION('',(0.,0.,1.));
#832=DIRECTION('',(-1.,0.,0.));
#833=DIRECTION('',(0.,0.,-1.));
#834=DIRECTION('',(-1.,0.,0.));
#835=DIRECTION('',(0.,0.,-1.));
#836=DIRECTION('',(0.,0.,1.));
#837=DIRECTION('',(1.,0.,0.));
#838=DIRECTION('',(0.,0.,1.));
#839=DIRECTION('',(1.,0.,0.));
#840=DIRECTION('',(0.,0.,1.));
#841=DIRECTION('',(0.,0.,1.));
#842=DIRECTION('',(1.,0.,0.));
#843=DIRECTION('',(0.,0.,-1.));
#844=DIRECTION('',(0.,0.,-1.));
#845=DIRECTION('',(0.999999999999999,0.,0.));
#846=DIRECTION('',(0.,0.,1.));
#847=DIRECTION('',(0.,0.,-1.));
#848=DIRECTION('',(0.999999999999999,0.,0.));
#849=DIRECTION('',(0.,0.,-1.));
#850=DIRECTION('',(-1.,0.,0.));
#851=DIRECTION('',(0.,0.,-1.));
#852=DIRECTION('',(-1.,0.,0.));
#853=DIRECTION('',(0.,0.,-1.));
#854=DIRECTION('',(1.,0.,0.));
#855=DIRECTION('',(0.,0.,-1.));
#856=DIRECTION('',(1.,0.,0.));
#857=DIRECTION('',(0.,0.,-1.));
#858=DIRECTION('',(0.999999999999999,0.,0.));
#859=DIRECTION('',(0.,0.,-1.));
#860=DIRECTION('',(1.,0.,0.));
#861=DIRECTION('',(0.,0.,-1.));
#862=DIRECTION('',(-1.,0.,0.));
#863=DIRECTION('',(0.,0.,-1.));
#864=DIRECTION('',(1.,0.,0.));
#865=CARTESIAN_POINT('',(0.,0.,0.));
#866=CARTESIAN_POINT('',(14.,192.9,93.8));
#867=CARTESIAN_POINT('',(4.06068412817062,194.,93.8));
#868=CARTESIAN_POINT('',(23.9393158718294,194.,93.8));
#869=CARTESIAN_POINT('',(125.5,194.,93.8));
#870=CARTESIAN_POINT('',(0.,194.,93.8));
#871=CARTESIAN_POINT('',(0.,106.35,93.8));
#872=CARTESIAN_POINT('',(0.,12.4,93.8));
#873=CARTESIAN_POINT('',(125.5,12.4,93.8));
#874=CARTESIAN_POINT('',(237.9,12.4,93.8));
#875=CARTESIAN_POINT('',(237.9,106.35,93.8));
#876=CARTESIAN_POINT('',(237.9,194.,93.8));
#877=CARTESIAN_POINT('',(125.5,194.,93.8));
#878=CARTESIAN_POINT('',(77.1,136.6,93.8));
#879=CARTESIAN_POINT('',(82.95,136.6,93.8));
#880=CARTESIAN_POINT('',(125.5,28.7,93.8));
#881=CARTESIAN_POINT('',(36.,28.7,93.8));
#882=CARTESIAN_POINT('',(131.5,28.7,93.8));
#883=CARTESIAN_POINT('',(36.,31.8,93.8));
#884=CARTESIAN_POINT('',(32.9,31.8,93.8));
#885=CARTESIAN_POINT('',(32.9,106.35,93.8));
#886=CARTESIAN_POINT('',(32.9,81.4,93.8));
#887=CARTESIAN_POINT('',(36.,81.4,93.8));
#888=CARTESIAN_POINT('',(36.,84.5,93.8));
#889=CARTESIAN_POINT('',(125.5,84.5,93.8));
#890=CARTESIAN_POINT('',(131.5,84.5,93.8));
#891=CARTESIAN_POINT('',(131.5,81.4,93.8));
#892=CARTESIAN_POINT('',(134.6,81.4,93.8));
#893=CARTESIAN_POINT('',(134.6,106.35,93.8));
#894=CARTESIAN_POINT('',(134.6,31.8,93.8));
#895=CARTESIAN_POINT('',(131.5,31.8,93.8));
#896=CARTESIAN_POINT('',(125.5,106.35,93.8));
#897=CARTESIAN_POINT('',(251.,0.,0.));
#898=CARTESIAN_POINT('',(251.,0.,0.));
#899=CARTESIAN_POINT('',(251.,0.,80.7));
#900=CARTESIAN_POINT('',(228.6,0.,103.1));
#901=CARTESIAN_POINT('',(250.3,0.,81.4));
#902=CARTESIAN_POINT('',(125.5,0.,81.4));
#903=CARTESIAN_POINT('',(0.,0.,81.4));
#904=CARTESIAN_POINT('',(0.,0.,0.));
#905=CARTESIAN_POINT('',(0.,0.,0.));
#906=CARTESIAN_POINT('',(125.5,0.,0.));
#907=CARTESIAN_POINT('',(125.5,0.,0.));
#908=CARTESIAN_POINT('',(0.,12.475,93.875));
#909=CARTESIAN_POINT('',(0.,197.075,90.725));
#910=CARTESIAN_POINT('',(0.,212.7,75.1));
#911=CARTESIAN_POINT('',(0.,212.7,0.));
#912=CARTESIAN_POINT('',(0.,212.7,0.));
#913=CARTESIAN_POINT('',(0.,106.35,0.));
#914=CARTESIAN_POINT('',(0.,106.35,0.));
#915=CARTESIAN_POINT('',(125.5,212.7,75.1));
#916=CARTESIAN_POINT('',(251.,212.7,75.1));
#917=CARTESIAN_POINT('',(251.,212.7,0.));
#918=CARTESIAN_POINT('',(251.,212.7,0.));
#919=CARTESIAN_POINT('',(125.5,212.7,0.));
#920=CARTESIAN_POINT('',(125.5,212.7,0.));
#921=CARTESIAN_POINT('',(77.1,136.6,0.));
#922=CARTESIAN_POINT('',(71.25,136.6,0.));
#923=CARTESIAN_POINT('',(99.8,65.7,0.));
#924=CARTESIAN_POINT('',(87.8,65.7,0.));
#925=CARTESIAN_POINT('',(58.8,63.5,0.));
#926=CARTESIAN_POINT('',(46.8,63.5,0.));
#927=CARTESIAN_POINT('',(251.,106.35,0.));
#928=CARTESIAN_POINT('',(125.5,106.35,0.));
#929=CARTESIAN_POINT('',(251.,197.075,90.725));
#930=CARTESIAN_POINT('',(251.,207.1,80.7));
#931=CARTESIAN_POINT('',(251.,106.35,80.7));
#932=CARTESIAN_POINT('',(251.,106.35,0.));
#933=CARTESIAN_POINT('',(14.,192.9,94.9));
#934=CARTESIAN_POINT('',(212.9,169.,118.8));
#935=CARTESIAN_POINT('',(125.5,212.7,75.1));
#936=CARTESIAN_POINT('',(208.7,41.6,123.));
#937=CARTESIAN_POINT('',(125.5,0.,81.4));
#938=CARTESIAN_POINT('',(251.,106.35,80.7));
#939=CARTESIAN_POINT('',(83.75,28.7,67.9));
#940=CARTESIAN_POINT('',(131.5,28.7,67.9));
#941=CARTESIAN_POINT('',(36.,28.7,67.9));
#942=CARTESIAN_POINT('',(36.,28.7,93.8));
#943=CARTESIAN_POINT('',(131.5,28.7,67.9));
#944=CARTESIAN_POINT('',(83.75,28.7,67.9));
#945=CARTESIAN_POINT('',(32.9,31.8,67.9));
#946=CARTESIAN_POINT('',(32.9,31.8,67.9));
#947=CARTESIAN_POINT('',(32.9,56.6,67.9));
#948=CARTESIAN_POINT('',(32.9,81.4,67.9));
#949=CARTESIAN_POINT('',(32.9,81.4,93.8));
#950=CARTESIAN_POINT('',(32.9,56.6,67.9));
#951=CARTESIAN_POINT('',(83.75,84.5,67.9));
#952=CARTESIAN_POINT('',(36.,84.5,67.9));
#953=CARTESIAN_POINT('',(131.5,84.5,67.9));
#954=CARTESIAN_POINT('',(131.5,84.5,93.8));
#955=CARTESIAN_POINT('',(36.,84.5,67.9));
#956=CARTESIAN_POINT('',(83.75,84.5,67.9));
#957=CARTESIAN_POINT('',(83.75,70.6,67.9));
#958=CARTESIAN_POINT('',(71.7,70.6,67.9));
#959=CARTESIAN_POINT('',(88.8460052948707,70.6,67.9));
#960=CARTESIAN_POINT('',(99.8,65.7,67.9));
#961=CARTESIAN_POINT('',(108.4,57.331009618837,67.9));
#962=CARTESIAN_POINT('',(108.4,56.6,67.9));
#963=CARTESIAN_POINT('',(108.4,55.2,67.9));
#964=CARTESIAN_POINT('',(95.8,55.2,67.9));
#965=CARTESIAN_POINT('',(95.8,42.6,67.9));
#966=CARTESIAN_POINT('',(83.75,42.6,67.9));
#967=CARTESIAN_POINT('',(71.7,42.6,67.9));
#968=CARTESIAN_POINT('',(71.7,55.2,67.9));
#969=CARTESIAN_POINT('',(59.6463595125908,51.5298840617375,67.9));
#970=CARTESIAN_POINT('',(58.8,63.5,67.9));
#971=CARTESIAN_POINT('',(68.7257018667729,70.2439189238855,67.9));
#972=CARTESIAN_POINT('',(71.7,58.,67.9));
#973=CARTESIAN_POINT('',(134.6,56.6,67.9));
#974=CARTESIAN_POINT('',(134.6,81.4,67.9));
#975=CARTESIAN_POINT('',(134.6,31.8,67.9));
#976=CARTESIAN_POINT('',(131.5,81.4,67.9));
#977=CARTESIAN_POINT('',(36.,81.4,67.9));
#978=CARTESIAN_POINT('',(36.,31.8,67.9));
#979=CARTESIAN_POINT('',(131.5,31.8,67.9));
#980=CARTESIAN_POINT('',(83.75,56.6,67.9));
#981=CARTESIAN_POINT('',(134.6,81.4,67.9));
#982=CARTESIAN_POINT('',(134.6,31.8,93.8));
#983=CARTESIAN_POINT('',(134.6,56.6,67.9));
#984=CARTESIAN_POINT('',(131.5,81.4,67.9));
#985=CARTESIAN_POINT('',(36.,31.8,67.9));
#986=CARTESIAN_POINT('',(131.5,31.8,67.9));
#987=CARTESIAN_POINT('',(36.,81.4,67.9));
#988=CARTESIAN_POINT('',(95.8,42.6,55.9));
#989=CARTESIAN_POINT('',(95.8,42.6,55.9));
#990=CARTESIAN_POINT('',(83.75,42.6,55.9));
#991=CARTESIAN_POINT('',(71.7,42.6,55.9));
#992=CARTESIAN_POINT('',(71.7,42.6,67.9));
#993=CARTESIAN_POINT('',(83.75,42.6,55.9));
#994=CARTESIAN_POINT('',(83.75,70.6,55.9));
#995=CARTESIAN_POINT('',(71.7,70.6,55.9));
#996=CARTESIAN_POINT('',(88.8460052948707,70.6,55.9));
#997=CARTESIAN_POINT('',(88.8460052948707,70.6,93.85));
#998=CARTESIAN_POINT('',(71.7,70.6,55.9));
#999=CARTESIAN_POINT('',(83.75,70.6,55.9));
#1000=CARTESIAN_POINT('',(108.4,57.331009618837,93.85));
#1001=CARTESIAN_POINT('',(108.4,57.331009618837,55.9));
#1002=CARTESIAN_POINT('',(108.4,56.6,55.9));
#1003=CARTESIAN_POINT('',(108.4,55.2,55.9));
#1004=CARTESIAN_POINT('',(108.4,55.2,67.9));
#1005=CARTESIAN_POINT('',(108.4,56.6,55.9));
#1006=CARTESIAN_POINT('',(99.8,65.7,55.9));
#1007=CARTESIAN_POINT('',(95.4567271503874,54.5135805123437,55.9));
#1008=CARTESIAN_POINT('',(92.9,56.6,55.9));
#1009=CARTESIAN_POINT('',(90.200955720338,58.4987258823811,55.9));
#1010=CARTESIAN_POINT('',(99.8,65.7,55.9));
#1011=CARTESIAN_POINT('',(71.7,58.,55.9));
#1012=CARTESIAN_POINT('',(68.7257018667729,70.2439189238855,55.9));
#1013=CARTESIAN_POINT('',(58.8,63.5,55.9));
#1014=CARTESIAN_POINT('',(59.6463595125908,51.5298840617375,55.9));
#1015=CARTESIAN_POINT('',(71.7,55.2,55.9));
#1016=CARTESIAN_POINT('',(95.8,55.2,55.9));
#1017=CARTESIAN_POINT('',(83.75,56.6,55.9));
#1018=CARTESIAN_POINT('',(68.7257018667729,70.2439189238855,46.9));
#1019=CARTESIAN_POINT('',(71.7,58.,55.9));
#1020=CARTESIAN_POINT('',(95.8,55.2,55.9));
#1021=CARTESIAN_POINT('',(59.6463595125908,51.5298840617375,46.9));
#1022=CARTESIAN_POINT('',(71.7,55.2,55.9));
#1023=CARTESIAN_POINT('',(95.4567271503874,54.5135805123437,46.9));
#1024=CARTESIAN_POINT('',(95.4567271503874,54.5135805123437,34.9));
#1025=CARTESIAN_POINT('',(92.9,56.6,34.9));
#1026=CARTESIAN_POINT('',(90.200955720338,58.4987258823811,34.9));
#1027=CARTESIAN_POINT('',(90.200955720338,58.4987258823811,46.9));
#1028=CARTESIAN_POINT('',(92.9,56.6,93.85));
#1029=CARTESIAN_POINT('',(99.8,65.7,34.9));
#1030=CARTESIAN_POINT('',(92.9,56.6,34.9));
#1031=CARTESIAN_POINT('',(58.8,63.5,93.85));
#1032=CARTESIAN_POINT('',(99.8,65.7,93.85));
#1033=CARTESIAN_POINT('',(77.1,136.6,93.85));
#1034=CARTESIAN_POINT('',(14.,192.9,70.5));
#1035=CARTESIAN_POINT('',(24.,192.9,70.5));
#1036=CARTESIAN_POINT('',(14.,192.9,70.5));
#1037=CARTESIAN_POINT('',(14.,192.9,93.85));
#1038=MECHANICAL_DESIGN_GEOMETRIC_PRESENTATION_REPRESENTATION('',(#24),
#1039);
#1039=(
GEOMETRIC_REPRESENTATION_CONTEXT(3)
GLOBAL_UNCERTAINTY_ASSIGNED_CONTEXT((#1040))
GLOBAL_UNIT_ASSIGNED_CONTEXT((#1046,#1042,#1041))
REPRESENTATION_CONTEXT('featured_part_01592','TOP_LEVEL_ASSEMBLY_PART')
);
#1040=UNCERTAINTY_MEASURE_WITH_UNIT(LENGTH_MEASURE(2.E-5),#1046,
'DISTANCE_ACCURACY_VALUE','Maximum Tolerance applied to model');
#1041=(
NAMED_UNIT(*)
SI_UNIT($,.STERADIAN.)
SOLID_ANGLE_UNIT()
);
#1042=(
CONVERSION_BASED_UNIT('DEGREE',#1044)
NAMED_UNIT(#1043)
PLANE_ANGLE_UNIT()
);
#1043=DIMENSIONAL_EXPONENTS(0.,0.,0.,0.,0.,0.,0.);
#1044=PLANE_ANGLE_MEASURE_WITH_UNIT(PLANE_ANGLE_MEASURE(0.0174532925),#1045);
#1045=(
NAMED_UNIT(*)
PLANE_ANGLE_UNIT()
SI_UNIT($,.RADIAN.)
);
#1046=(
LENGTH_UNIT()
NAMED_UNIT(*)
SI_UNIT(.MILLI.,.METRE.)
);
ENDSEC;
END-ISO-10303-21;
