ISO-10303-21;
HEADER;
/* Generated by software containing ST-Developer
 * from STEP Tools, Inc. (www.steptools.com) 
 */
/* OPTION: using custom schema-name function */

FILE_DESCRIPTION(
/* description */ (''),
/* implementation_level */ '2;1');

FILE_NAME(
/* name */ 'featured_part_05548.stp',
/* time_stamp */ '2026-07-14T08:26:18-04:00',
/* author */ (''),
/* organization */ (''),
/* preprocessor_version */ 'ST-DEVELOPER v20.1',
/* originating_system */ 'SIEMENS PLM Software NX2512.6002',
/* authorisation */ '');

FILE_SCHEMA (('AUTOMOTIVE_DESIGN { 1 0 10303 214 3 1 1 1 }'));
ENDSEC;

DATA;
#10=SHAPE_REPRESENTATION_RELATIONSHIP('None',
'relationship between featured_part_05548-None and featured_part_05548
-None',#22,#11);
#11=ADVANCED_BREP_SHAPE_REPRESENTATION('featured_part_05548-None',(#32),
#1547);
#12=SHAPE_DEFINITION_REPRESENTATION(#13,#22);
#13=PRODUCT_DEFINITION_SHAPE('','',#14);
#14=PRODUCT_DEFINITION(' ','',#16,#15);
#15=PRODUCT_DEFINITION_CONTEXT('part definition',#21,'design');
#16=PRODUCT_DEFINITION_FORMATION_WITH_SPECIFIED_SOURCE(' ',' ',#18,
 .NOT_KNOWN.);
#17=PRODUCT_RELATED_PRODUCT_CATEGORY('part','',(#18));
#18=PRODUCT('featured_part_05548','featured_part_05548',' ',(#19));
#19=PRODUCT_CONTEXT(' ',#21,'mechanical');
#20=APPLICATION_PROTOCOL_DEFINITION('international standard',
'automotive_design',2010,#21);
#21=APPLICATION_CONTEXT(
'core data for automotive mechanical design processes');
#22=SHAPE_REPRESENTATION('featured_part_05548-None',(#928),#1547);
#23=PRESENTATION_LAYER_ASSIGNMENT('1','Layer 1',(#32));
#24=STYLED_ITEM('',(#25),#32);
#25=PRESENTATION_STYLE_ASSIGNMENT((#26));
#26=SURFACE_STYLE_USAGE(.BOTH.,#27);
#27=SURFACE_SIDE_STYLE('',(#28));
#28=SURFACE_STYLE_FILL_AREA(#29);
#29=FILL_AREA_STYLE('',(#30));
#30=FILL_AREA_STYLE_COLOUR('',#31);
#31=COLOUR_RGB('medium steel',0.611764705882353,0.658823529411765,0.670588235294118);
#32=MANIFOLD_SOLID_BREP('',#33);
#33=CLOSED_SHELL('',(#106,#107,#108,#109,#110,#111,#112,#113,#114,#115,
#116,#117,#118,#119,#120,#121,#122,#123,#124,#125,#126,#127,#128,#129,#130,
#131,#132,#133,#134,#135,#136,#137,#138,#139,#140,#141,#142,#143,#144,#145,
#146,#147,#148,#149,#150,#151,#152,#153));
#34=CYLINDRICAL_SURFACE('',#955,9.1);
#35=CYLINDRICAL_SURFACE('',#968,5.2);
#36=CYLINDRICAL_SURFACE('',#969,5.2);
#37=CYLINDRICAL_SURFACE('',#970,5.2);
#38=CYLINDRICAL_SURFACE('',#971,5.2);
#39=CYLINDRICAL_SURFACE('',#981,4.9);
#40=CYLINDRICAL_SURFACE('',#982,4.9);
#41=CYLINDRICAL_SURFACE('',#983,4.9);
#42=CYLINDRICAL_SURFACE('',#984,4.9);
#43=CYLINDRICAL_SURFACE('',#993,12.2);
#44=CYLINDRICAL_SURFACE('',#1003,9.8);
#45=CYLINDRICAL_SURFACE('',#1004,9.8);
#46=CYLINDRICAL_SURFACE('',#1005,9.8);
#47=CYLINDRICAL_SURFACE('',#1006,9.8);
#48=CYLINDRICAL_SURFACE('',#1010,11.25);
#49=CYLINDRICAL_SURFACE('',#1011,14.25);
#50=CYLINDRICAL_SURFACE('',#1013,11.25);
#51=CYLINDRICAL_SURFACE('',#1016,8.9);
#52=FACE_BOUND('',#227,.T.);
#53=FACE_BOUND('',#228,.T.);
#54=FACE_BOUND('',#229,.T.);
#55=FACE_BOUND('',#233,.T.);
#56=FACE_BOUND('',#234,.T.);
#57=FACE_BOUND('',#235,.T.);
#58=FACE_BOUND('',#239,.T.);
#59=FACE_BOUND('',#240,.T.);
#60=FACE_BOUND('',#261,.T.);
#61=FACE_BOUND('',#262,.T.);
#62=FACE_BOUND('',#276,.T.);
#63=FACE_BOUND('',#277,.T.);
#64=FACE_BOUND('',#278,.T.);
#65=FACE_BOUND('',#279,.T.);
#66=CIRCLE('',#930,11.25);
#67=CIRCLE('',#931,5.2);
#68=CIRCLE('',#932,5.2);
#69=CIRCLE('',#933,5.2);
#70=CIRCLE('',#934,5.2);
#71=CIRCLE('',#935,14.25);
#72=CIRCLE('',#936,11.25);
#73=CIRCLE('',#937,9.1);
#74=CIRCLE('',#938,12.2);
#75=CIRCLE('',#943,11.25);
#76=CIRCLE('',#944,14.25);
#77=CIRCLE('',#949,4.9);
#78=CIRCLE('',#950,4.9);
#79=CIRCLE('',#951,4.9);
#80=CIRCLE('',#952,4.9);
#81=CIRCLE('',#953,9.1);
#82=CIRCLE('',#959,11.25);
#83=CIRCLE('',#960,8.9);
#84=CIRCLE('',#961,11.25);
#85=CIRCLE('',#962,5.2);
#86=CIRCLE('',#963,5.2);
#87=CIRCLE('',#964,5.2);
#88=CIRCLE('',#965,5.2);
#89=CIRCLE('',#976,4.9);
#90=CIRCLE('',#977,4.9);
#91=CIRCLE('',#978,4.9);
#92=CIRCLE('',#979,4.9);
#93=CIRCLE('',#986,9.8);
#94=CIRCLE('',#987,9.8);
#95=CIRCLE('',#988,9.8);
#96=CIRCLE('',#989,9.8);
#97=CIRCLE('',#990,12.2);
#98=CIRCLE('',#998,9.8);
#99=CIRCLE('',#999,9.8);
#100=CIRCLE('',#1000,9.8);
#101=CIRCLE('',#1001,9.8);
#102=CIRCLE('',#1007,11.25);
#103=CIRCLE('',#1008,14.25);
#104=CIRCLE('',#1012,11.25);
#105=CIRCLE('',#1014,8.9);
#106=ADVANCED_FACE('',(#184),#154,.F.);
#107=ADVANCED_FACE('',(#52,#53,#54),#155,.T.);
#108=ADVANCED_FACE('',(#185),#156,.T.);
#109=ADVANCED_FACE('',(#186),#157,.T.);
#110=ADVANCED_FACE('',(#187),#158,.T.);
#111=ADVANCED_FACE('',(#55,#56,#57),#159,.T.);
#112=ADVANCED_FACE('',(#188),#160,.T.);
#113=ADVANCED_FACE('',(#189),#161,.F.);
#114=ADVANCED_FACE('',(#190),#162,.F.);
#115=ADVANCED_FACE('',(#58,#59),#163,.F.);
#116=ADVANCED_FACE('',(#191),#34,.F.);
#117=ADVANCED_FACE('',(#192),#164,.F.);
#118=ADVANCED_FACE('',(#193),#165,.F.);
#119=ADVANCED_FACE('',(#194),#166,.F.);
#120=ADVANCED_FACE('',(#195),#167,.F.);
#121=ADVANCED_FACE('',(#196),#168,.F.);
#122=ADVANCED_FACE('',(#197),#35,.F.);
#123=ADVANCED_FACE('',(#198),#36,.F.);
#124=ADVANCED_FACE('',(#199),#37,.F.);
#125=ADVANCED_FACE('',(#200),#38,.F.);
#126=ADVANCED_FACE('',(#201),#169,.F.);
#127=ADVANCED_FACE('',(#202),#170,.F.);
#128=ADVANCED_FACE('',(#203),#171,.F.);
#129=ADVANCED_FACE('',(#204),#172,.F.);
#130=ADVANCED_FACE('',(#205),#173,.F.);
#131=ADVANCED_FACE('',(#206),#39,.F.);
#132=ADVANCED_FACE('',(#207),#40,.F.);
#133=ADVANCED_FACE('',(#208),#41,.F.);
#134=ADVANCED_FACE('',(#209),#42,.F.);
#135=ADVANCED_FACE('',(#210),#174,.F.);
#136=ADVANCED_FACE('',(#60,#61),#175,.F.);
#137=ADVANCED_FACE('',(#211),#176,.F.);
#138=ADVANCED_FACE('',(#212),#43,.F.);
#139=ADVANCED_FACE('',(#213),#177,.F.);
#140=ADVANCED_FACE('',(#214),#178,.F.);
#141=ADVANCED_FACE('',(#215),#179,.F.);
#142=ADVANCED_FACE('',(#216),#180,.F.);
#143=ADVANCED_FACE('',(#217),#181,.F.);
#144=ADVANCED_FACE('',(#218),#44,.F.);
#145=ADVANCED_FACE('',(#219),#45,.F.);
#146=ADVANCED_FACE('',(#220),#46,.F.);
#147=ADVANCED_FACE('',(#221),#47,.F.);
#148=ADVANCED_FACE('',(#222),#182,.F.);
#149=ADVANCED_FACE('',(#223),#48,.F.);
#150=ADVANCED_FACE('',(#62,#63),#49,.F.);
#151=ADVANCED_FACE('',(#64,#65),#50,.F.);
#152=ADVANCED_FACE('',(#224),#183,.F.);
#153=ADVANCED_FACE('',(#225),#51,.F.);
#154=PLANE('',#929);
#155=PLANE('',#939);
#156=PLANE('',#940);
#157=PLANE('',#941);
#158=PLANE('',#942);
#159=PLANE('',#945);
#160=PLANE('',#946);
#161=PLANE('',#947);
#162=PLANE('',#948);
#163=PLANE('',#954);
#164=PLANE('',#956);
#165=PLANE('',#957);
#166=PLANE('',#958);
#167=PLANE('',#966);
#168=PLANE('',#967);
#169=PLANE('',#972);
#170=PLANE('',#973);
#171=PLANE('',#974);
#172=PLANE('',#975);
#173=PLANE('',#980);
#174=PLANE('',#985);
#175=PLANE('',#991);
#176=PLANE('',#992);
#177=PLANE('',#994);
#178=PLANE('',#995);
#179=PLANE('',#996);
#180=PLANE('',#997);
#181=PLANE('',#1002);
#182=PLANE('',#1009);
#183=PLANE('',#1015);
#184=FACE_OUTER_BOUND('',#226,.T.);
#185=FACE_OUTER_BOUND('',#230,.T.);
#186=FACE_OUTER_BOUND('',#231,.T.);
#187=FACE_OUTER_BOUND('',#232,.T.);
#188=FACE_OUTER_BOUND('',#236,.T.);
#189=FACE_OUTER_BOUND('',#237,.T.);
#190=FACE_OUTER_BOUND('',#238,.T.);
#191=FACE_OUTER_BOUND('',#241,.T.);
#192=FACE_OUTER_BOUND('',#242,.T.);
#193=FACE_OUTER_BOUND('',#243,.T.);
#194=FACE_OUTER_BOUND('',#244,.T.);
#195=FACE_OUTER_BOUND('',#245,.T.);
#196=FACE_OUTER_BOUND('',#246,.T.);
#197=FACE_OUTER_BOUND('',#247,.T.);
#198=FACE_OUTER_BOUND('',#248,.T.);
#199=FACE_OUTER_BOUND('',#249,.T.);
#200=FACE_OUTER_BOUND('',#250,.T.);
#201=FACE_OUTER_BOUND('',#251,.T.);
#202=FACE_OUTER_BOUND('',#252,.T.);
#203=FACE_OUTER_BOUND('',#253,.T.);
#204=FACE_OUTER_BOUND('',#254,.T.);
#205=FACE_OUTER_BOUND('',#255,.T.);
#206=FACE_OUTER_BOUND('',#256,.T.);
#207=FACE_OUTER_BOUND('',#257,.T.);
#208=FACE_OUTER_BOUND('',#258,.T.);
#209=FACE_OUTER_BOUND('',#259,.T.);
#210=FACE_OUTER_BOUND('',#260,.T.);
#211=FACE_OUTER_BOUND('',#263,.T.);
#212=FACE_OUTER_BOUND('',#264,.T.);
#213=FACE_OUTER_BOUND('',#265,.T.);
#214=FACE_OUTER_BOUND('',#266,.T.);
#215=FACE_OUTER_BOUND('',#267,.T.);
#216=FACE_OUTER_BOUND('',#268,.T.);
#217=FACE_OUTER_BOUND('',#269,.T.);
#218=FACE_OUTER_BOUND('',#270,.T.);
#219=FACE_OUTER_BOUND('',#271,.T.);
#220=FACE_OUTER_BOUND('',#272,.T.);
#221=FACE_OUTER_BOUND('',#273,.T.);
#222=FACE_OUTER_BOUND('',#274,.T.);
#223=FACE_OUTER_BOUND('',#275,.T.);
#224=FACE_OUTER_BOUND('',#280,.T.);
#225=FACE_OUTER_BOUND('',#281,.T.);
#226=EDGE_LOOP('',(#282,#283,#284,#285));
#227=EDGE_LOOP('',(#286,#287,#288,#289,#290,#291,#292,#293,#294,#295));
#228=EDGE_LOOP('',(#296,#297));
#229=EDGE_LOOP('',(#298,#299,#300,#301,#302,#303,#304,#305,#306,#307));
#230=EDGE_LOOP('',(#308,#309,#310,#311,#312,#313));
#231=EDGE_LOOP('',(#314,#315,#316,#317,#318,#319));
#232=EDGE_LOOP('',(#320,#321,#322,#323,#324,#325));
#233=EDGE_LOOP('',(#326));
#234=EDGE_LOOP('',(#327));
#235=EDGE_LOOP('',(#328,#329,#330,#331));
#236=EDGE_LOOP('',(#332,#333,#334,#335,#336,#337));
#237=EDGE_LOOP('',(#338,#339,#340,#341));
#238=EDGE_LOOP('',(#342,#343,#344,#345));
#239=EDGE_LOOP('',(#346,#347,#348,#349,#350,#351,#352,#353));
#240=EDGE_LOOP('',(#354,#355,#356,#357,#358));
#241=EDGE_LOOP('',(#359,#360,#361,#362));
#242=EDGE_LOOP('',(#363,#364,#365,#366));
#243=EDGE_LOOP('',(#367,#368,#369,#370));
#244=EDGE_LOOP('',(#371,#372,#373,#374));
#245=EDGE_LOOP('',(#375,#376,#377,#378,#379,#380,#381,#382,#383,#384,#385,
#386));
#246=EDGE_LOOP('',(#387,#388,#389,#390));
#247=EDGE_LOOP('',(#391,#392,#393,#394));
#248=EDGE_LOOP('',(#395,#396,#397,#398));
#249=EDGE_LOOP('',(#399,#400,#401,#402));
#250=EDGE_LOOP('',(#403,#404,#405,#406));
#251=EDGE_LOOP('',(#407,#408,#409,#410));
#252=EDGE_LOOP('',(#411,#412,#413,#414));
#253=EDGE_LOOP('',(#415,#416,#417,#418));
#254=EDGE_LOOP('',(#419,#420,#421,#422));
#255=EDGE_LOOP('',(#423,#424,#425,#426,#427,#428,#429,#430));
#256=EDGE_LOOP('',(#431,#432,#433,#434));
#257=EDGE_LOOP('',(#435,#436,#437,#438));
#258=EDGE_LOOP('',(#439,#440,#441,#442));
#259=EDGE_LOOP('',(#443,#444,#445,#446));
#260=EDGE_LOOP('',(#447,#448,#449,#450));
#261=EDGE_LOOP('',(#451,#452,#453,#454,#455,#456,#457,#458));
#262=EDGE_LOOP('',(#459,#460,#461,#462,#463));
#263=EDGE_LOOP('',(#464,#465,#466,#467));
#264=EDGE_LOOP('',(#468,#469,#470,#471));
#265=EDGE_LOOP('',(#472,#473,#474,#475));
#266=EDGE_LOOP('',(#476,#477,#478,#479));
#267=EDGE_LOOP('',(#480,#481,#482,#483));
#268=EDGE_LOOP('',(#484,#485,#486,#487));
#269=EDGE_LOOP('',(#488,#489,#490,#491,#492,#493,#494,#495));
#270=EDGE_LOOP('',(#496,#497,#498,#499));
#271=EDGE_LOOP('',(#500,#501,#502,#503));
#272=EDGE_LOOP('',(#504,#505,#506,#507));
#273=EDGE_LOOP('',(#508,#509,#510,#511));
#274=EDGE_LOOP('',(#512,#513));
#275=EDGE_LOOP('',(#514,#515,#516,#517));
#276=EDGE_LOOP('',(#518));
#277=EDGE_LOOP('',(#519,#520,#521,#522));
#278=EDGE_LOOP('',(#523));
#279=EDGE_LOOP('',(#524,#525,#526,#527,#528,#529,#530,#531));
#280=EDGE_LOOP('',(#532,#533));
#281=EDGE_LOOP('',(#534,#535,#536,#537));
#282=ORIENTED_EDGE('',*,*,#624,.T.);
#283=ORIENTED_EDGE('',*,*,#625,.T.);
#284=ORIENTED_EDGE('',*,*,#626,.T.);
#285=ORIENTED_EDGE('',*,*,#627,.T.);
#286=ORIENTED_EDGE('',*,*,#628,.F.);
#287=ORIENTED_EDGE('',*,*,#624,.F.);
#288=ORIENTED_EDGE('',*,*,#629,.T.);
#289=ORIENTED_EDGE('',*,*,#630,.F.);
#290=ORIENTED_EDGE('',*,*,#631,.T.);
#291=ORIENTED_EDGE('',*,*,#632,.F.);
#292=ORIENTED_EDGE('',*,*,#633,.T.);
#293=ORIENTED_EDGE('',*,*,#634,.F.);
#294=ORIENTED_EDGE('',*,*,#635,.T.);
#295=ORIENTED_EDGE('',*,*,#636,.F.);
#296=ORIENTED_EDGE('',*,*,#637,.F.);
#297=ORIENTED_EDGE('',*,*,#638,.F.);
#298=ORIENTED_EDGE('',*,*,#639,.F.);
#299=ORIENTED_EDGE('',*,*,#640,.F.);
#300=ORIENTED_EDGE('',*,*,#641,.F.);
#301=ORIENTED_EDGE('',*,*,#642,.F.);
#302=ORIENTED_EDGE('',*,*,#643,.T.);
#303=ORIENTED_EDGE('',*,*,#644,.F.);
#304=ORIENTED_EDGE('',*,*,#645,.F.);
#305=ORIENTED_EDGE('',*,*,#646,.F.);
#306=ORIENTED_EDGE('',*,*,#647,.F.);
#307=ORIENTED_EDGE('',*,*,#648,.T.);
#308=ORIENTED_EDGE('',*,*,#649,.T.);
#309=ORIENTED_EDGE('',*,*,#641,.T.);
#310=ORIENTED_EDGE('',*,*,#650,.F.);
#311=ORIENTED_EDGE('',*,*,#651,.T.);
#312=ORIENTED_EDGE('',*,*,#652,.T.);
#313=ORIENTED_EDGE('',*,*,#653,.F.);
#314=ORIENTED_EDGE('',*,*,#654,.F.);
#315=ORIENTED_EDGE('',*,*,#655,.F.);
#316=ORIENTED_EDGE('',*,*,#656,.F.);
#317=ORIENTED_EDGE('',*,*,#657,.T.);
#318=ORIENTED_EDGE('',*,*,#650,.T.);
#319=ORIENTED_EDGE('',*,*,#640,.T.);
#320=ORIENTED_EDGE('',*,*,#658,.F.);
#321=ORIENTED_EDGE('',*,*,#659,.T.);
#322=ORIENTED_EDGE('',*,*,#646,.T.);
#323=ORIENTED_EDGE('',*,*,#660,.F.);
#324=ORIENTED_EDGE('',*,*,#661,.T.);
#325=ORIENTED_EDGE('',*,*,#656,.T.);
#326=ORIENTED_EDGE('',*,*,#662,.F.);
#327=ORIENTED_EDGE('',*,*,#663,.F.);
#328=ORIENTED_EDGE('',*,*,#664,.F.);
#329=ORIENTED_EDGE('',*,*,#651,.F.);
#330=ORIENTED_EDGE('',*,*,#657,.F.);
#331=ORIENTED_EDGE('',*,*,#661,.F.);
#332=ORIENTED_EDGE('',*,*,#665,.F.);
#333=ORIENTED_EDGE('',*,*,#666,.F.);
#334=ORIENTED_EDGE('',*,*,#652,.F.);
#335=ORIENTED_EDGE('',*,*,#664,.T.);
#336=ORIENTED_EDGE('',*,*,#660,.T.);
#337=ORIENTED_EDGE('',*,*,#645,.T.);
#338=ORIENTED_EDGE('',*,*,#667,.T.);
#339=ORIENTED_EDGE('',*,*,#668,.T.);
#340=ORIENTED_EDGE('',*,*,#642,.T.);
#341=ORIENTED_EDGE('',*,*,#649,.F.);
#342=ORIENTED_EDGE('',*,*,#644,.T.);
#343=ORIENTED_EDGE('',*,*,#669,.T.);
#344=ORIENTED_EDGE('',*,*,#670,.T.);
#345=ORIENTED_EDGE('',*,*,#665,.T.);
#346=ORIENTED_EDGE('',*,*,#671,.T.);
#347=ORIENTED_EDGE('',*,*,#672,.T.);
#348=ORIENTED_EDGE('',*,*,#673,.T.);
#349=ORIENTED_EDGE('',*,*,#674,.T.);
#350=ORIENTED_EDGE('',*,*,#675,.T.);
#351=ORIENTED_EDGE('',*,*,#676,.T.);
#352=ORIENTED_EDGE('',*,*,#677,.T.);
#353=ORIENTED_EDGE('',*,*,#678,.T.);
#354=ORIENTED_EDGE('',*,*,#670,.F.);
#355=ORIENTED_EDGE('',*,*,#679,.T.);
#356=ORIENTED_EDGE('',*,*,#667,.F.);
#357=ORIENTED_EDGE('',*,*,#653,.T.);
#358=ORIENTED_EDGE('',*,*,#666,.T.);
#359=ORIENTED_EDGE('',*,*,#643,.F.);
#360=ORIENTED_EDGE('',*,*,#668,.F.);
#361=ORIENTED_EDGE('',*,*,#679,.F.);
#362=ORIENTED_EDGE('',*,*,#669,.F.);
#363=ORIENTED_EDGE('',*,*,#680,.T.);
#364=ORIENTED_EDGE('',*,*,#681,.T.);
#365=ORIENTED_EDGE('',*,*,#632,.T.);
#366=ORIENTED_EDGE('',*,*,#682,.T.);
#367=ORIENTED_EDGE('',*,*,#634,.T.);
#368=ORIENTED_EDGE('',*,*,#683,.T.);
#369=ORIENTED_EDGE('',*,*,#684,.T.);
#370=ORIENTED_EDGE('',*,*,#685,.T.);
#371=ORIENTED_EDGE('',*,*,#686,.T.);
#372=ORIENTED_EDGE('',*,*,#687,.T.);
#373=ORIENTED_EDGE('',*,*,#636,.T.);
#374=ORIENTED_EDGE('',*,*,#688,.T.);
#375=ORIENTED_EDGE('',*,*,#689,.T.);
#376=ORIENTED_EDGE('',*,*,#690,.T.);
#377=ORIENTED_EDGE('',*,*,#691,.T.);
#378=ORIENTED_EDGE('',*,*,#686,.F.);
#379=ORIENTED_EDGE('',*,*,#692,.T.);
#380=ORIENTED_EDGE('',*,*,#684,.F.);
#381=ORIENTED_EDGE('',*,*,#693,.T.);
#382=ORIENTED_EDGE('',*,*,#680,.F.);
#383=ORIENTED_EDGE('',*,*,#694,.T.);
#384=ORIENTED_EDGE('',*,*,#695,.F.);
#385=ORIENTED_EDGE('',*,*,#696,.T.);
#386=ORIENTED_EDGE('',*,*,#626,.F.);
#387=ORIENTED_EDGE('',*,*,#695,.T.);
#388=ORIENTED_EDGE('',*,*,#697,.T.);
#389=ORIENTED_EDGE('',*,*,#630,.T.);
#390=ORIENTED_EDGE('',*,*,#698,.T.);
#391=ORIENTED_EDGE('',*,*,#633,.F.);
#392=ORIENTED_EDGE('',*,*,#681,.F.);
#393=ORIENTED_EDGE('',*,*,#693,.F.);
#394=ORIENTED_EDGE('',*,*,#683,.F.);
#395=ORIENTED_EDGE('',*,*,#631,.F.);
#396=ORIENTED_EDGE('',*,*,#697,.F.);
#397=ORIENTED_EDGE('',*,*,#694,.F.);
#398=ORIENTED_EDGE('',*,*,#682,.F.);
#399=ORIENTED_EDGE('',*,*,#629,.F.);
#400=ORIENTED_EDGE('',*,*,#627,.F.);
#401=ORIENTED_EDGE('',*,*,#696,.F.);
#402=ORIENTED_EDGE('',*,*,#698,.F.);
#403=ORIENTED_EDGE('',*,*,#635,.F.);
#404=ORIENTED_EDGE('',*,*,#685,.F.);
#405=ORIENTED_EDGE('',*,*,#692,.F.);
#406=ORIENTED_EDGE('',*,*,#688,.F.);
#407=ORIENTED_EDGE('',*,*,#699,.T.);
#408=ORIENTED_EDGE('',*,*,#700,.T.);
#409=ORIENTED_EDGE('',*,*,#675,.F.);
#410=ORIENTED_EDGE('',*,*,#701,.T.);
#411=ORIENTED_EDGE('',*,*,#677,.F.);
#412=ORIENTED_EDGE('',*,*,#702,.T.);
#413=ORIENTED_EDGE('',*,*,#703,.T.);
#414=ORIENTED_EDGE('',*,*,#704,.T.);
#415=ORIENTED_EDGE('',*,*,#705,.T.);
#416=ORIENTED_EDGE('',*,*,#706,.T.);
#417=ORIENTED_EDGE('',*,*,#671,.F.);
#418=ORIENTED_EDGE('',*,*,#707,.T.);
#419=ORIENTED_EDGE('',*,*,#673,.F.);
#420=ORIENTED_EDGE('',*,*,#708,.T.);
#421=ORIENTED_EDGE('',*,*,#709,.T.);
#422=ORIENTED_EDGE('',*,*,#710,.T.);
#423=ORIENTED_EDGE('',*,*,#709,.F.);
#424=ORIENTED_EDGE('',*,*,#711,.T.);
#425=ORIENTED_EDGE('',*,*,#705,.F.);
#426=ORIENTED_EDGE('',*,*,#712,.T.);
#427=ORIENTED_EDGE('',*,*,#703,.F.);
#428=ORIENTED_EDGE('',*,*,#713,.T.);
#429=ORIENTED_EDGE('',*,*,#699,.F.);
#430=ORIENTED_EDGE('',*,*,#714,.T.);
#431=ORIENTED_EDGE('',*,*,#672,.F.);
#432=ORIENTED_EDGE('',*,*,#706,.F.);
#433=ORIENTED_EDGE('',*,*,#711,.F.);
#434=ORIENTED_EDGE('',*,*,#708,.F.);
#435=ORIENTED_EDGE('',*,*,#676,.F.);
#436=ORIENTED_EDGE('',*,*,#700,.F.);
#437=ORIENTED_EDGE('',*,*,#713,.F.);
#438=ORIENTED_EDGE('',*,*,#702,.F.);
#439=ORIENTED_EDGE('',*,*,#674,.F.);
#440=ORIENTED_EDGE('',*,*,#710,.F.);
#441=ORIENTED_EDGE('',*,*,#714,.F.);
#442=ORIENTED_EDGE('',*,*,#701,.F.);
#443=ORIENTED_EDGE('',*,*,#678,.F.);
#444=ORIENTED_EDGE('',*,*,#704,.F.);
#445=ORIENTED_EDGE('',*,*,#712,.F.);
#446=ORIENTED_EDGE('',*,*,#707,.F.);
#447=ORIENTED_EDGE('',*,*,#639,.T.);
#448=ORIENTED_EDGE('',*,*,#715,.T.);
#449=ORIENTED_EDGE('',*,*,#716,.T.);
#450=ORIENTED_EDGE('',*,*,#654,.T.);
#451=ORIENTED_EDGE('',*,*,#717,.T.);
#452=ORIENTED_EDGE('',*,*,#718,.T.);
#453=ORIENTED_EDGE('',*,*,#719,.T.);
#454=ORIENTED_EDGE('',*,*,#720,.T.);
#455=ORIENTED_EDGE('',*,*,#721,.T.);
#456=ORIENTED_EDGE('',*,*,#722,.T.);
#457=ORIENTED_EDGE('',*,*,#723,.T.);
#458=ORIENTED_EDGE('',*,*,#724,.T.);
#459=ORIENTED_EDGE('',*,*,#716,.F.);
#460=ORIENTED_EDGE('',*,*,#725,.T.);
#461=ORIENTED_EDGE('',*,*,#726,.F.);
#462=ORIENTED_EDGE('',*,*,#658,.T.);
#463=ORIENTED_EDGE('',*,*,#655,.T.);
#464=ORIENTED_EDGE('',*,*,#726,.T.);
#465=ORIENTED_EDGE('',*,*,#727,.T.);
#466=ORIENTED_EDGE('',*,*,#647,.T.);
#467=ORIENTED_EDGE('',*,*,#659,.F.);
#468=ORIENTED_EDGE('',*,*,#648,.F.);
#469=ORIENTED_EDGE('',*,*,#727,.F.);
#470=ORIENTED_EDGE('',*,*,#725,.F.);
#471=ORIENTED_EDGE('',*,*,#715,.F.);
#472=ORIENTED_EDGE('',*,*,#721,.F.);
#473=ORIENTED_EDGE('',*,*,#728,.T.);
#474=ORIENTED_EDGE('',*,*,#729,.T.);
#475=ORIENTED_EDGE('',*,*,#730,.T.);
#476=ORIENTED_EDGE('',*,*,#723,.F.);
#477=ORIENTED_EDGE('',*,*,#731,.T.);
#478=ORIENTED_EDGE('',*,*,#732,.T.);
#479=ORIENTED_EDGE('',*,*,#733,.T.);
#480=ORIENTED_EDGE('',*,*,#734,.T.);
#481=ORIENTED_EDGE('',*,*,#735,.T.);
#482=ORIENTED_EDGE('',*,*,#717,.F.);
#483=ORIENTED_EDGE('',*,*,#736,.T.);
#484=ORIENTED_EDGE('',*,*,#737,.T.);
#485=ORIENTED_EDGE('',*,*,#738,.T.);
#486=ORIENTED_EDGE('',*,*,#719,.F.);
#487=ORIENTED_EDGE('',*,*,#739,.T.);
#488=ORIENTED_EDGE('',*,*,#729,.F.);
#489=ORIENTED_EDGE('',*,*,#740,.T.);
#490=ORIENTED_EDGE('',*,*,#737,.F.);
#491=ORIENTED_EDGE('',*,*,#741,.T.);
#492=ORIENTED_EDGE('',*,*,#734,.F.);
#493=ORIENTED_EDGE('',*,*,#742,.T.);
#494=ORIENTED_EDGE('',*,*,#732,.F.);
#495=ORIENTED_EDGE('',*,*,#743,.T.);
#496=ORIENTED_EDGE('',*,*,#720,.F.);
#497=ORIENTED_EDGE('',*,*,#738,.F.);
#498=ORIENTED_EDGE('',*,*,#740,.F.);
#499=ORIENTED_EDGE('',*,*,#728,.F.);
#500=ORIENTED_EDGE('',*,*,#718,.F.);
#501=ORIENTED_EDGE('',*,*,#735,.F.);
#502=ORIENTED_EDGE('',*,*,#741,.F.);
#503=ORIENTED_EDGE('',*,*,#739,.F.);
#504=ORIENTED_EDGE('',*,*,#722,.F.);
#505=ORIENTED_EDGE('',*,*,#730,.F.);
#506=ORIENTED_EDGE('',*,*,#743,.F.);
#507=ORIENTED_EDGE('',*,*,#731,.F.);
#508=ORIENTED_EDGE('',*,*,#724,.F.);
#509=ORIENTED_EDGE('',*,*,#733,.F.);
#510=ORIENTED_EDGE('',*,*,#742,.F.);
#511=ORIENTED_EDGE('',*,*,#736,.F.);
#512=ORIENTED_EDGE('',*,*,#744,.F.);
#513=ORIENTED_EDGE('',*,*,#745,.T.);
#514=ORIENTED_EDGE('',*,*,#638,.T.);
#515=ORIENTED_EDGE('',*,*,#746,.T.);
#516=ORIENTED_EDGE('',*,*,#744,.T.);
#517=ORIENTED_EDGE('',*,*,#747,.T.);
#518=ORIENTED_EDGE('',*,*,#663,.T.);
#519=ORIENTED_EDGE('',*,*,#637,.T.);
#520=ORIENTED_EDGE('',*,*,#747,.F.);
#521=ORIENTED_EDGE('',*,*,#745,.F.);
#522=ORIENTED_EDGE('',*,*,#746,.F.);
#523=ORIENTED_EDGE('',*,*,#662,.T.);
#524=ORIENTED_EDGE('',*,*,#691,.F.);
#525=ORIENTED_EDGE('',*,*,#748,.T.);
#526=ORIENTED_EDGE('',*,*,#749,.T.);
#527=ORIENTED_EDGE('',*,*,#750,.T.);
#528=ORIENTED_EDGE('',*,*,#689,.F.);
#529=ORIENTED_EDGE('',*,*,#625,.F.);
#530=ORIENTED_EDGE('',*,*,#628,.T.);
#531=ORIENTED_EDGE('',*,*,#687,.F.);
#532=ORIENTED_EDGE('',*,*,#751,.F.);
#533=ORIENTED_EDGE('',*,*,#749,.F.);
#534=ORIENTED_EDGE('',*,*,#690,.F.);
#535=ORIENTED_EDGE('',*,*,#750,.F.);
#536=ORIENTED_EDGE('',*,*,#751,.T.);
#537=ORIENTED_EDGE('',*,*,#748,.F.);
#538=VERTEX_POINT('',#1285);
#539=VERTEX_POINT('',#1286);
#540=VERTEX_POINT('',#1288);
#541=VERTEX_POINT('',#1290);
#542=VERTEX_POINT('',#1294);
#543=VERTEX_POINT('',#1296);
#544=VERTEX_POINT('',#1298);
#545=VERTEX_POINT('',#1300);
#546=VERTEX_POINT('',#1302);
#547=VERTEX_POINT('',#1304);
#548=VERTEX_POINT('',#1306);
#549=VERTEX_POINT('',#1308);
#550=VERTEX_POINT('',#1311);
#551=VERTEX_POINT('',#1312);
#552=VERTEX_POINT('',#1315);
#553=VERTEX_POINT('',#1316);
#554=VERTEX_POINT('',#1318);
#555=VERTEX_POINT('',#1320);
#556=VERTEX_POINT('',#1322);
#557=VERTEX_POINT('',#1324);
#558=VERTEX_POINT('',#1326);
#559=VERTEX_POINT('',#1328);
#560=VERTEX_POINT('',#1330);
#561=VERTEX_POINT('',#1332);
#562=VERTEX_POINT('',#1336);
#563=VERTEX_POINT('',#1338);
#564=VERTEX_POINT('',#1340);
#565=VERTEX_POINT('',#1342);
#566=VERTEX_POINT('',#1346);
#567=VERTEX_POINT('',#1348);
#568=VERTEX_POINT('',#1350);
#569=VERTEX_POINT('',#1354);
#570=VERTEX_POINT('',#1357);
#571=VERTEX_POINT('',#1361);
#572=VERTEX_POINT('',#1363);
#573=VERTEX_POINT('',#1367);
#574=VERTEX_POINT('',#1371);
#575=VERTEX_POINT('',#1375);
#576=VERTEX_POINT('',#1379);
#577=VERTEX_POINT('',#1380);
#578=VERTEX_POINT('',#1382);
#579=VERTEX_POINT('',#1384);
#580=VERTEX_POINT('',#1386);
#581=VERTEX_POINT('',#1388);
#582=VERTEX_POINT('',#1390);
#583=VERTEX_POINT('',#1392);
#584=VERTEX_POINT('',#1398);
#585=VERTEX_POINT('',#1399);
#586=VERTEX_POINT('',#1404);
#587=VERTEX_POINT('',#1406);
#588=VERTEX_POINT('',#1410);
#589=VERTEX_POINT('',#1411);
#590=VERTEX_POINT('',#1416);
#591=VERTEX_POINT('',#1418);
#592=VERTEX_POINT('',#1423);
#593=VERTEX_POINT('',#1425);
#594=VERTEX_POINT('',#1436);
#595=VERTEX_POINT('',#1437);
#596=VERTEX_POINT('',#1442);
#597=VERTEX_POINT('',#1444);
#598=VERTEX_POINT('',#1448);
#599=VERTEX_POINT('',#1449);
#600=VERTEX_POINT('',#1454);
#601=VERTEX_POINT('',#1456);
#602=VERTEX_POINT('',#1469);
#603=VERTEX_POINT('',#1473);
#604=VERTEX_POINT('',#1474);
#605=VERTEX_POINT('',#1476);
#606=VERTEX_POINT('',#1478);
#607=VERTEX_POINT('',#1480);
#608=VERTEX_POINT('',#1482);
#609=VERTEX_POINT('',#1484);
#610=VERTEX_POINT('',#1486);
#611=VERTEX_POINT('',#1489);
#612=VERTEX_POINT('',#1496);
#613=VERTEX_POINT('',#1498);
#614=VERTEX_POINT('',#1502);
#615=VERTEX_POINT('',#1504);
#616=VERTEX_POINT('',#1508);
#617=VERTEX_POINT('',#1509);
#618=VERTEX_POINT('',#1514);
#619=VERTEX_POINT('',#1515);
#620=VERTEX_POINT('',#1529);
#621=VERTEX_POINT('',#1530);
#622=VERTEX_POINT('',#1538);
#623=VERTEX_POINT('',#1540);
#624=EDGE_CURVE('',#538,#539,#752,.T.);
#625=EDGE_CURVE('',#539,#540,#753,.T.);
#626=EDGE_CURVE('',#540,#541,#754,.T.);
#627=EDGE_CURVE('',#541,#538,#755,.T.);
#628=EDGE_CURVE('',#539,#542,#66,.T.);
#629=EDGE_CURVE('',#538,#543,#67,.T.);
#630=EDGE_CURVE('',#544,#543,#756,.T.);
#631=EDGE_CURVE('',#544,#545,#68,.T.);
#632=EDGE_CURVE('',#546,#545,#757,.T.);
#633=EDGE_CURVE('',#546,#547,#69,.T.);
#634=EDGE_CURVE('',#548,#547,#758,.T.);
#635=EDGE_CURVE('',#548,#549,#70,.T.);
#636=EDGE_CURVE('',#542,#549,#759,.T.);
#637=EDGE_CURVE('',#550,#551,#71,.T.);
#638=EDGE_CURVE('',#551,#550,#72,.T.);
#639=EDGE_CURVE('',#552,#553,#760,.T.);
#640=EDGE_CURVE('',#554,#552,#761,.T.);
#641=EDGE_CURVE('',#555,#554,#762,.T.);
#642=EDGE_CURVE('',#556,#555,#763,.T.);
#643=EDGE_CURVE('',#556,#557,#73,.T.);
#644=EDGE_CURVE('',#558,#557,#764,.T.);
#645=EDGE_CURVE('',#559,#558,#765,.T.);
#646=EDGE_CURVE('',#560,#559,#766,.T.);
#647=EDGE_CURVE('',#561,#560,#767,.T.);
#648=EDGE_CURVE('',#561,#553,#74,.T.);
#649=EDGE_CURVE('',#562,#555,#768,.T.);
#650=EDGE_CURVE('',#563,#554,#769,.T.);
#651=EDGE_CURVE('',#563,#564,#770,.T.);
#652=EDGE_CURVE('',#564,#565,#771,.T.);
#653=EDGE_CURVE('',#562,#565,#772,.T.);
#654=EDGE_CURVE('',#566,#552,#773,.T.);
#655=EDGE_CURVE('',#567,#566,#774,.T.);
#656=EDGE_CURVE('',#568,#567,#775,.T.);
#657=EDGE_CURVE('',#568,#563,#776,.T.);
#658=EDGE_CURVE('',#569,#567,#777,.T.);
#659=EDGE_CURVE('',#569,#560,#778,.T.);
#660=EDGE_CURVE('',#570,#559,#779,.T.);
#661=EDGE_CURVE('',#570,#568,#780,.T.);
#662=EDGE_CURVE('',#571,#571,#75,.T.);
#663=EDGE_CURVE('',#572,#572,#76,.T.);
#664=EDGE_CURVE('',#564,#570,#781,.T.);
#665=EDGE_CURVE('',#573,#558,#782,.T.);
#666=EDGE_CURVE('',#565,#573,#783,.T.);
#667=EDGE_CURVE('',#562,#574,#784,.T.);
#668=EDGE_CURVE('',#574,#556,#785,.T.);
#669=EDGE_CURVE('',#557,#575,#786,.T.);
#670=EDGE_CURVE('',#575,#573,#787,.T.);
#671=EDGE_CURVE('',#576,#577,#788,.T.);
#672=EDGE_CURVE('',#577,#578,#77,.T.);
#673=EDGE_CURVE('',#578,#579,#789,.T.);
#674=EDGE_CURVE('',#579,#580,#78,.T.);
#675=EDGE_CURVE('',#580,#581,#790,.T.);
#676=EDGE_CURVE('',#581,#582,#79,.T.);
#677=EDGE_CURVE('',#582,#583,#791,.T.);
#678=EDGE_CURVE('',#583,#576,#80,.T.);
#679=EDGE_CURVE('',#575,#574,#81,.T.);
#680=EDGE_CURVE('',#584,#585,#792,.T.);
#681=EDGE_CURVE('',#585,#546,#793,.T.);
#682=EDGE_CURVE('',#545,#584,#794,.T.);
#683=EDGE_CURVE('',#547,#586,#795,.T.);
#684=EDGE_CURVE('',#586,#587,#796,.T.);
#685=EDGE_CURVE('',#587,#548,#797,.T.);
#686=EDGE_CURVE('',#588,#589,#798,.T.);
#687=EDGE_CURVE('',#589,#542,#799,.T.);
#688=EDGE_CURVE('',#549,#588,#800,.T.);
#689=EDGE_CURVE('',#540,#590,#82,.T.);
#690=EDGE_CURVE('',#590,#591,#83,.T.);
#691=EDGE_CURVE('',#591,#589,#84,.T.);
#692=EDGE_CURVE('',#588,#587,#85,.T.);
#693=EDGE_CURVE('',#586,#585,#86,.T.);
#694=EDGE_CURVE('',#584,#592,#87,.T.);
#695=EDGE_CURVE('',#593,#592,#801,.T.);
#696=EDGE_CURVE('',#593,#541,#88,.T.);
#697=EDGE_CURVE('',#592,#544,#802,.T.);
#698=EDGE_CURVE('',#543,#593,#803,.T.);
#699=EDGE_CURVE('',#594,#595,#804,.T.);
#700=EDGE_CURVE('',#595,#581,#805,.T.);
#701=EDGE_CURVE('',#580,#594,#806,.T.);
#702=EDGE_CURVE('',#582,#596,#807,.T.);
#703=EDGE_CURVE('',#596,#597,#808,.T.);
#704=EDGE_CURVE('',#597,#583,#809,.T.);
#705=EDGE_CURVE('',#598,#599,#810,.T.);
#706=EDGE_CURVE('',#599,#577,#811,.T.);
#707=EDGE_CURVE('',#576,#598,#812,.T.);
#708=EDGE_CURVE('',#578,#600,#813,.T.);
#709=EDGE_CURVE('',#600,#601,#814,.T.);
#710=EDGE_CURVE('',#601,#579,#815,.T.);
#711=EDGE_CURVE('',#600,#599,#89,.T.);
#712=EDGE_CURVE('',#598,#597,#90,.T.);
#713=EDGE_CURVE('',#596,#595,#91,.T.);
#714=EDGE_CURVE('',#594,#601,#92,.T.);
#715=EDGE_CURVE('',#553,#602,#816,.T.);
#716=EDGE_CURVE('',#602,#566,#817,.T.);
#717=EDGE_CURVE('',#603,#604,#818,.T.);
#718=EDGE_CURVE('',#604,#605,#93,.T.);
#719=EDGE_CURVE('',#605,#606,#819,.T.);
#720=EDGE_CURVE('',#606,#607,#94,.T.);
#721=EDGE_CURVE('',#607,#608,#820,.T.);
#722=EDGE_CURVE('',#608,#609,#95,.T.);
#723=EDGE_CURVE('',#609,#610,#821,.T.);
#724=EDGE_CURVE('',#610,#603,#96,.T.);
#725=EDGE_CURVE('',#602,#611,#97,.T.);
#726=EDGE_CURVE('',#569,#611,#822,.T.);
#727=EDGE_CURVE('',#611,#561,#823,.T.);
#728=EDGE_CURVE('',#607,#612,#824,.T.);
#729=EDGE_CURVE('',#612,#613,#825,.T.);
#730=EDGE_CURVE('',#613,#608,#826,.T.);
#731=EDGE_CURVE('',#609,#614,#827,.T.);
#732=EDGE_CURVE('',#614,#615,#828,.T.);
#733=EDGE_CURVE('',#615,#610,#829,.T.);
#734=EDGE_CURVE('',#616,#617,#830,.T.);
#735=EDGE_CURVE('',#617,#604,#831,.T.);
#736=EDGE_CURVE('',#603,#616,#832,.T.);
#737=EDGE_CURVE('',#618,#619,#833,.T.);
#738=EDGE_CURVE('',#619,#606,#834,.T.);
#739=EDGE_CURVE('',#605,#618,#835,.T.);
#740=EDGE_CURVE('',#612,#619,#98,.T.);
#741=EDGE_CURVE('',#618,#617,#99,.T.);
#742=EDGE_CURVE('',#616,#615,#100,.T.);
#743=EDGE_CURVE('',#614,#613,#101,.T.);
#744=EDGE_CURVE('',#620,#621,#102,.T.);
#745=EDGE_CURVE('',#620,#621,#103,.T.);
#746=EDGE_CURVE('',#550,#620,#836,.T.);
#747=EDGE_CURVE('',#621,#551,#837,.T.);
#748=EDGE_CURVE('',#591,#622,#838,.T.);
#749=EDGE_CURVE('',#622,#623,#104,.T.);
#750=EDGE_CURVE('',#623,#590,#839,.T.);
#751=EDGE_CURVE('',#623,#622,#105,.T.);
#752=LINE('',#1284,#840);
#753=LINE('',#1287,#841);
#754=LINE('',#1289,#842);
#755=LINE('',#1291,#843);
#756=LINE('',#1297,#844);
#757=LINE('',#1301,#845);
#758=LINE('',#1305,#846);
#759=LINE('',#1309,#847);
#760=LINE('',#1314,#848);
#761=LINE('',#1317,#849);
#762=LINE('',#1319,#850);
#763=LINE('',#1321,#851);
#764=LINE('',#1325,#852);
#765=LINE('',#1327,#853);
#766=LINE('',#1329,#854);
#767=LINE('',#1331,#855);
#768=LINE('',#1335,#856);
#769=LINE('',#1337,#857);
#770=LINE('',#1339,#858);
#771=LINE('',#1341,#859);
#772=LINE('',#1343,#860);
#773=LINE('',#1345,#861);
#774=LINE('',#1347,#862);
#775=LINE('',#1349,#863);
#776=LINE('',#1351,#864);
#777=LINE('',#1353,#865);
#778=LINE('',#1355,#866);
#779=LINE('',#1356,#867);
#780=LINE('',#1358,#868);
#781=LINE('',#1364,#869);
#782=LINE('',#1366,#870);
#783=LINE('',#1368,#871);
#784=LINE('',#1370,#872);
#785=LINE('',#1372,#873);
#786=LINE('',#1374,#874);
#787=LINE('',#1376,#875);
#788=LINE('',#1378,#876);
#789=LINE('',#1383,#877);
#790=LINE('',#1387,#878);
#791=LINE('',#1391,#879);
#792=LINE('',#1397,#880);
#793=LINE('',#1400,#881);
#794=LINE('',#1401,#882);
#795=LINE('',#1403,#883);
#796=LINE('',#1405,#884);
#797=LINE('',#1407,#885);
#798=LINE('',#1409,#886);
#799=LINE('',#1412,#887);
#800=LINE('',#1413,#888);
#801=LINE('',#1424,#889);
#802=LINE('',#1428,#890);
#803=LINE('',#1429,#891);
#804=LINE('',#1435,#892);
#805=LINE('',#1438,#893);
#806=LINE('',#1439,#894);
#807=LINE('',#1441,#895);
#808=LINE('',#1443,#896);
#809=LINE('',#1445,#897);
#810=LINE('',#1447,#898);
#811=LINE('',#1450,#899);
#812=LINE('',#1451,#900);
#813=LINE('',#1453,#901);
#814=LINE('',#1455,#902);
#815=LINE('',#1457,#903);
#816=LINE('',#1468,#904);
#817=LINE('',#1470,#905);
#818=LINE('',#1472,#906);
#819=LINE('',#1477,#907);
#820=LINE('',#1481,#908);
#821=LINE('',#1485,#909);
#822=LINE('',#1490,#910);
#823=LINE('',#1492,#911);
#824=LINE('',#1495,#912);
#825=LINE('',#1497,#913);
#826=LINE('',#1499,#914);
#827=LINE('',#1501,#915);
#828=LINE('',#1503,#916);
#829=LINE('',#1505,#917);
#830=LINE('',#1507,#918);
#831=LINE('',#1510,#919);
#832=LINE('',#1511,#920);
#833=LINE('',#1513,#921);
#834=LINE('',#1516,#922);
#835=LINE('',#1517,#923);
#836=LINE('',#1533,#924);
#837=LINE('',#1534,#925);
#838=LINE('',#1537,#926);
#839=LINE('',#1541,#927);
#840=VECTOR('',#1019,1.);
#841=VECTOR('',#1020,1.);
#842=VECTOR('',#1021,1.);
#843=VECTOR('',#1022,1.);
#844=VECTOR('',#1029,1.);
#845=VECTOR('',#1032,1.);
#846=VECTOR('',#1035,1.);
#847=VECTOR('',#1038,1.);
#848=VECTOR('',#1043,1.);
#849=VECTOR('',#1044,1.);
#850=VECTOR('',#1045,1.);
#851=VECTOR('',#1046,1.);
#852=VECTOR('',#1049,1.);
#853=VECTOR('',#1050,1.);
#854=VECTOR('',#1051,1.);
#855=VECTOR('',#1052,1.);
#856=VECTOR('',#1057,1.);
#857=VECTOR('',#1058,1.);
#858=VECTOR('',#1059,1.);
#859=VECTOR('',#1060,1.);
#860=VECTOR('',#1061,1.);
#861=VECTOR('',#1064,1.);
#862=VECTOR('',#1065,1.);
#863=VECTOR('',#1066,1.);
#864=VECTOR('',#1067,1.);
#865=VECTOR('',#1070,1.);
#866=VECTOR('',#1071,1.);
#867=VECTOR('',#1072,1.);
#868=VECTOR('',#1073,1.);
#869=VECTOR('',#1080,1.);
#870=VECTOR('',#1083,1.);
#871=VECTOR('',#1084,1.);
#872=VECTOR('',#1087,1.);
#873=VECTOR('',#1088,1.);
#874=VECTOR('',#1091,1.);
#875=VECTOR('',#1092,1.);
#876=VECTOR('',#1095,1.);
#877=VECTOR('',#1098,1.);
#878=VECTOR('',#1101,1.);
#879=VECTOR('',#1104,1.);
#880=VECTOR('',#1113,1.);
#881=VECTOR('',#1114,1.);
#882=VECTOR('',#1115,1.);
#883=VECTOR('',#1118,1.);
#884=VECTOR('',#1119,1.);
#885=VECTOR('',#1120,1.);
#886=VECTOR('',#1123,1.);
#887=VECTOR('',#1124,1.);
#888=VECTOR('',#1125,1.);
#889=VECTOR('',#1140,1.);
#890=VECTOR('',#1145,1.);
#891=VECTOR('',#1146,1.);
#892=VECTOR('',#1157,1.);
#893=VECTOR('',#1158,1.);
#894=VECTOR('',#1159,1.);
#895=VECTOR('',#1162,1.);
#896=VECTOR('',#1163,1.);
#897=VECTOR('',#1164,1.);
#898=VECTOR('',#1167,1.);
#899=VECTOR('',#1168,1.);
#900=VECTOR('',#1169,1.);
#901=VECTOR('',#1172,1.);
#902=VECTOR('',#1173,1.);
#903=VECTOR('',#1174,1.);
#904=VECTOR('',#1195,1.);
#905=VECTOR('',#1196,1.);
#906=VECTOR('',#1199,1.);
#907=VECTOR('',#1202,1.);
#908=VECTOR('',#1205,1.);
#909=VECTOR('',#1208,1.);
#910=VECTOR('',#1213,1.);
#911=VECTOR('',#1216,1.);
#912=VECTOR('',#1221,1.);
#913=VECTOR('',#1222,1.);
#914=VECTOR('',#1223,1.);
#915=VECTOR('',#1226,1.);
#916=VECTOR('',#1227,1.);
#917=VECTOR('',#1228,1.);
#918=VECTOR('',#1231,1.);
#919=VECTOR('',#1232,1.);
#920=VECTOR('',#1233,1.);
#921=VECTOR('',#1236,1.);
#922=VECTOR('',#1237,1.);
#923=VECTOR('',#1238,1.);
#924=VECTOR('',#1265,1.);
#925=VECTOR('',#1266,1.);
#926=VECTOR('',#1271,1.);
#927=VECTOR('',#1274,1.);
#928=AXIS2_PLACEMENT_3D('',#1283,#1017,#1018);
#929=AXIS2_PLACEMENT_3D('',#1292,#1023,#1024);
#930=AXIS2_PLACEMENT_3D('',#1293,#1025,#1026);
#931=AXIS2_PLACEMENT_3D('',#1295,#1027,#1028);
#932=AXIS2_PLACEMENT_3D('',#1299,#1030,#1031);
#933=AXIS2_PLACEMENT_3D('',#1303,#1033,#1034);
#934=AXIS2_PLACEMENT_3D('',#1307,#1036,#1037);
#935=AXIS2_PLACEMENT_3D('',#1310,#1039,#1040);
#936=AXIS2_PLACEMENT_3D('',#1313,#1041,#1042);
#937=AXIS2_PLACEMENT_3D('',#1323,#1047,#1048);
#938=AXIS2_PLACEMENT_3D('',#1333,#1053,#1054);
#939=AXIS2_PLACEMENT_3D('',#1334,#1055,#1056);
#940=AXIS2_PLACEMENT_3D('',#1344,#1062,#1063);
#941=AXIS2_PLACEMENT_3D('',#1352,#1068,#1069);
#942=AXIS2_PLACEMENT_3D('',#1359,#1074,#1075);
#943=AXIS2_PLACEMENT_3D('',#1360,#1076,#1077);
#944=AXIS2_PLACEMENT_3D('',#1362,#1078,#1079);
#945=AXIS2_PLACEMENT_3D('',#1365,#1081,#1082);
#946=AXIS2_PLACEMENT_3D('',#1369,#1085,#1086);
#947=AXIS2_PLACEMENT_3D('',#1373,#1089,#1090);
#948=AXIS2_PLACEMENT_3D('',#1377,#1093,#1094);
#949=AXIS2_PLACEMENT_3D('',#1381,#1096,#1097);
#950=AXIS2_PLACEMENT_3D('',#1385,#1099,#1100);
#951=AXIS2_PLACEMENT_3D('',#1389,#1102,#1103);
#952=AXIS2_PLACEMENT_3D('',#1393,#1105,#1106);
#953=AXIS2_PLACEMENT_3D('',#1394,#1107,#1108);
#954=AXIS2_PLACEMENT_3D('',#1395,#1109,#1110);
#955=AXIS2_PLACEMENT_3D('',#1396,#1111,#1112);
#956=AXIS2_PLACEMENT_3D('',#1402,#1116,#1117);
#957=AXIS2_PLACEMENT_3D('',#1408,#1121,#1122);
#958=AXIS2_PLACEMENT_3D('',#1414,#1126,#1127);
#959=AXIS2_PLACEMENT_3D('',#1415,#1128,#1129);
#960=AXIS2_PLACEMENT_3D('',#1417,#1130,#1131);
#961=AXIS2_PLACEMENT_3D('',#1419,#1132,#1133);
#962=AXIS2_PLACEMENT_3D('',#1420,#1134,#1135);
#963=AXIS2_PLACEMENT_3D('',#1421,#1136,#1137);
#964=AXIS2_PLACEMENT_3D('',#1422,#1138,#1139);
#965=AXIS2_PLACEMENT_3D('',#1426,#1141,#1142);
#966=AXIS2_PLACEMENT_3D('',#1427,#1143,#1144);
#967=AXIS2_PLACEMENT_3D('',#1430,#1147,#1148);
#968=AXIS2_PLACEMENT_3D('',#1431,#1149,#1150);
#969=AXIS2_PLACEMENT_3D('',#1432,#1151,#1152);
#970=AXIS2_PLACEMENT_3D('',#1433,#1153,#1154);
#971=AXIS2_PLACEMENT_3D('',#1434,#1155,#1156);
#972=AXIS2_PLACEMENT_3D('',#1440,#1160,#1161);
#973=AXIS2_PLACEMENT_3D('',#1446,#1165,#1166);
#974=AXIS2_PLACEMENT_3D('',#1452,#1170,#1171);
#975=AXIS2_PLACEMENT_3D('',#1458,#1175,#1176);
#976=AXIS2_PLACEMENT_3D('',#1459,#1177,#1178);
#977=AXIS2_PLACEMENT_3D('',#1460,#1179,#1180);
#978=AXIS2_PLACEMENT_3D('',#1461,#1181,#1182);
#979=AXIS2_PLACEMENT_3D('',#1462,#1183,#1184);
#980=AXIS2_PLACEMENT_3D('',#1463,#1185,#1186);
#981=AXIS2_PLACEMENT_3D('',#1464,#1187,#1188);
#982=AXIS2_PLACEMENT_3D('',#1465,#1189,#1190);
#983=AXIS2_PLACEMENT_3D('',#1466,#1191,#1192);
#984=AXIS2_PLACEMENT_3D('',#1467,#1193,#1194);
#985=AXIS2_PLACEMENT_3D('',#1471,#1197,#1198);
#986=AXIS2_PLACEMENT_3D('',#1475,#1200,#1201);
#987=AXIS2_PLACEMENT_3D('',#1479,#1203,#1204);
#988=AXIS2_PLACEMENT_3D('',#1483,#1206,#1207);
#989=AXIS2_PLACEMENT_3D('',#1487,#1209,#1210);
#990=AXIS2_PLACEMENT_3D('',#1488,#1211,#1212);
#991=AXIS2_PLACEMENT_3D('',#1491,#1214,#1215);
#992=AXIS2_PLACEMENT_3D('',#1493,#1217,#1218);
#993=AXIS2_PLACEMENT_3D('',#1494,#1219,#1220);
#994=AXIS2_PLACEMENT_3D('',#1500,#1224,#1225);
#995=AXIS2_PLACEMENT_3D('',#1506,#1229,#1230);
#996=AXIS2_PLACEMENT_3D('',#1512,#1234,#1235);
#997=AXIS2_PLACEMENT_3D('',#1518,#1239,#1240);
#998=AXIS2_PLACEMENT_3D('',#1519,#1241,#1242);
#999=AXIS2_PLACEMENT_3D('',#1520,#1243,#1244);
#1000=AXIS2_PLACEMENT_3D('',#1521,#1245,#1246);
#1001=AXIS2_PLACEMENT_3D('',#1522,#1247,#1248);
#1002=AXIS2_PLACEMENT_3D('',#1523,#1249,#1250);
#1003=AXIS2_PLACEMENT_3D('',#1524,#1251,#1252);
#1004=AXIS2_PLACEMENT_3D('',#1525,#1253,#1254);
#1005=AXIS2_PLACEMENT_3D('',#1526,#1255,#1256);
#1006=AXIS2_PLACEMENT_3D('',#1527,#1257,#1258);
#1007=AXIS2_PLACEMENT_3D('',#1528,#1259,#1260);
#1008=AXIS2_PLACEMENT_3D('',#1531,#1261,#1262);
#1009=AXIS2_PLACEMENT_3D('',#1532,#1263,#1264);
#1010=AXIS2_PLACEMENT_3D('',#1535,#1267,#1268);
#1011=AXIS2_PLACEMENT_3D('',#1536,#1269,#1270);
#1012=AXIS2_PLACEMENT_3D('',#1539,#1272,#1273);
#1013=AXIS2_PLACEMENT_3D('',#1542,#1275,#1276);
#1014=AXIS2_PLACEMENT_3D('',#1543,#1277,#1278);
#1015=AXIS2_PLACEMENT_3D('',#1544,#1279,#1280);
#1016=AXIS2_PLACEMENT_3D('',#1545,#1281,#1282);
#1017=DIRECTION('',(0.,0.,1.));
#1018=DIRECTION('',(1.,0.,0.));
#1019=DIRECTION('',(-1.,0.,0.));
#1020=DIRECTION('',(0.,0.,-1.));
#1021=DIRECTION('',(1.,0.,0.));
#1022=DIRECTION('',(0.,0.,1.));
#1023=DIRECTION('',(0.,1.,0.));
#1024=DIRECTION('',(0.,0.,1.));
#1025=DIRECTION('',(0.,0.,1.));
#1026=DIRECTION('',(1.,0.,0.));
#1027=DIRECTION('',(0.,0.,-1.));
#1028=DIRECTION('',(1.,0.,0.));
#1029=DIRECTION('',(0.,1.,0.));
#1030=DIRECTION('',(0.,0.,-1.));
#1031=DIRECTION('',(1.,0.,0.));
#1032=DIRECTION('',(1.,0.,0.));
#1033=DIRECTION('',(0.,0.,-1.));
#1034=DIRECTION('',(1.,0.,0.));
#1035=DIRECTION('',(0.,-1.,0.));
#1036=DIRECTION('',(0.,0.,-1.));
#1037=DIRECTION('',(1.,0.,0.));
#1038=DIRECTION('',(-1.,0.,0.));
#1039=DIRECTION('',(0.,0.,1.));
#1040=DIRECTION('',(1.,0.,0.));
#1041=DIRECTION('',(0.,0.,1.));
#1042=DIRECTION('',(1.,0.,0.));
#1043=DIRECTION('',(1.,0.,0.));
#1044=DIRECTION('',(0.,1.,0.));
#1045=DIRECTION('',(-1.,0.,0.));
#1046=DIRECTION('',(0.,-1.,0.));
#1047=DIRECTION('',(0.,0.,-1.));
#1048=DIRECTION('',(1.,0.,0.));
#1049=DIRECTION('',(-1.,0.,0.));
#1050=DIRECTION('',(0.,-1.,0.));
#1051=DIRECTION('',(1.,0.,0.));
#1052=DIRECTION('',(0.,1.,0.));
#1053=DIRECTION('',(0.,0.,-1.));
#1054=DIRECTION('',(1.,0.,0.));
#1055=DIRECTION('',(0.,0.,1.));
#1056=DIRECTION('',(1.,0.,0.));
#1057=DIRECTION('',(0.,0.,1.));
#1058=DIRECTION('',(0.,0.,1.));
#1059=DIRECTION('',(1.,0.,0.));
#1060=DIRECTION('',(0.,0.,1.));
#1061=DIRECTION('',(1.,0.,0.));
#1062=DIRECTION('',(0.,-1.,0.));
#1063=DIRECTION('',(0.,0.,-1.));
#1064=DIRECTION('',(0.,0.,1.));
#1065=DIRECTION('',(0.,-1.,0.));
#1066=DIRECTION('',(0.,0.,1.));
#1067=DIRECTION('',(0.,-1.,0.));
#1068=DIRECTION('',(-1.,0.,0.));
#1069=DIRECTION('',(0.,0.,1.));
#1070=DIRECTION('',(-1.,0.,0.));
#1071=DIRECTION('',(0.,0.,1.));
#1072=DIRECTION('',(0.,0.,1.));
#1073=DIRECTION('',(-1.,0.,0.));
#1074=DIRECTION('',(0.,1.,0.));
#1075=DIRECTION('',(0.,0.,1.));
#1076=DIRECTION('',(0.,0.,-1.));
#1077=DIRECTION('',(-1.,0.,0.));
#1078=DIRECTION('',(0.,0.,-1.));
#1079=DIRECTION('',(-1.,0.,0.));
#1080=DIRECTION('',(0.,1.,0.));
#1081=DIRECTION('',(0.,0.,-1.));
#1082=DIRECTION('',(-1.,0.,0.));
#1083=DIRECTION('',(0.,0.,1.));
#1084=DIRECTION('',(0.,1.,0.));
#1085=DIRECTION('',(1.,0.,0.));
#1086=DIRECTION('',(0.,0.,-1.));
#1087=DIRECTION('',(0.,1.,0.));
#1088=DIRECTION('',(0.,0.,1.));
#1089=DIRECTION('',(-1.,0.,0.));
#1090=DIRECTION('',(0.,0.,1.));
#1091=DIRECTION('',(0.,0.,-1.));
#1092=DIRECTION('',(1.,0.,0.));
#1093=DIRECTION('',(0.,1.,0.));
#1094=DIRECTION('',(0.,0.,1.));
#1095=DIRECTION('',(1.,0.,0.));
#1096=DIRECTION('',(0.,0.,-1.));
#1097=DIRECTION('',(-0.999999999999997,0.,0.));
#1098=DIRECTION('',(0.,-1.,0.));
#1099=DIRECTION('',(0.,0.,-1.));
#1100=DIRECTION('',(-0.999999999999997,0.,0.));
#1101=DIRECTION('',(-1.,0.,0.));
#1102=DIRECTION('',(0.,0.,-1.));
#1103=DIRECTION('',(-0.999999999999997,0.,0.));
#1104=DIRECTION('',(0.,1.,0.));
#1105=DIRECTION('',(0.,0.,-1.));
#1106=DIRECTION('',(-0.999999999999997,0.,0.));
#1107=DIRECTION('',(0.,0.,1.));
#1108=DIRECTION('',(-1.,0.,0.));
#1109=DIRECTION('',(0.,0.,-1.));
#1110=DIRECTION('',(-1.,0.,0.));
#1111=DIRECTION('',(0.,0.,1.));
#1112=DIRECTION('',(1.,0.,0.));
#1113=DIRECTION('',(-1.,0.,0.));
#1114=DIRECTION('',(0.,0.,1.));
#1115=DIRECTION('',(0.,0.,-1.));
#1116=DIRECTION('',(0.,-1.,0.));
#1117=DIRECTION('',(0.,0.,-1.));
#1118=DIRECTION('',(0.,0.,-1.));
#1119=DIRECTION('',(0.,1.,0.));
#1120=DIRECTION('',(0.,0.,1.));
#1121=DIRECTION('',(-1.,0.,0.));
#1122=DIRECTION('',(0.,0.,1.));
#1123=DIRECTION('',(1.,0.,0.));
#1124=DIRECTION('',(0.,0.,1.));
#1125=DIRECTION('',(0.,0.,-1.));
#1126=DIRECTION('',(0.,1.,0.));
#1127=DIRECTION('',(0.,0.,1.));
#1128=DIRECTION('',(0.,0.,-1.));
#1129=DIRECTION('',(-1.,0.,0.));
#1130=DIRECTION('',(0.,0.,-1.));
#1131=DIRECTION('',(-0.999999999999999,0.,0.));
#1132=DIRECTION('',(0.,0.,-1.));
#1133=DIRECTION('',(-1.,0.,0.));
#1134=DIRECTION('',(0.,0.,1.));
#1135=DIRECTION('',(-1.,0.,0.));
#1136=DIRECTION('',(0.,0.,1.));
#1137=DIRECTION('',(-1.,0.,0.));
#1138=DIRECTION('',(0.,0.,1.));
#1139=DIRECTION('',(-1.,0.,0.));
#1140=DIRECTION('',(0.,-1.,0.));
#1141=DIRECTION('',(0.,0.,1.));
#1142=DIRECTION('',(-1.,0.,0.));
#1143=DIRECTION('',(0.,0.,-1.));
#1144=DIRECTION('',(-1.,0.,0.));
#1145=DIRECTION('',(0.,0.,1.));
#1146=DIRECTION('',(0.,0.,-1.));
#1147=DIRECTION('',(1.,0.,0.));
#1148=DIRECTION('',(0.,0.,-1.));
#1149=DIRECTION('',(0.,0.,1.));
#1150=DIRECTION('',(1.,0.,0.));
#1151=DIRECTION('',(0.,0.,1.));
#1152=DIRECTION('',(1.,0.,0.));
#1153=DIRECTION('',(0.,0.,1.));
#1154=DIRECTION('',(1.,0.,0.));
#1155=DIRECTION('',(0.,0.,1.));
#1156=DIRECTION('',(1.,0.,0.));
#1157=DIRECTION('',(-1.,0.,0.));
#1158=DIRECTION('',(0.,0.,1.));
#1159=DIRECTION('',(0.,0.,-1.));
#1160=DIRECTION('',(0.,-1.,0.));
#1161=DIRECTION('',(0.,0.,-1.));
#1162=DIRECTION('',(0.,0.,-1.));
#1163=DIRECTION('',(0.,1.,0.));
#1164=DIRECTION('',(0.,0.,1.));
#1165=DIRECTION('',(-1.,0.,0.));
#1166=DIRECTION('',(0.,0.,1.));
#1167=DIRECTION('',(1.,0.,0.));
#1168=DIRECTION('',(0.,0.,1.));
#1169=DIRECTION('',(0.,0.,-1.));
#1170=DIRECTION('',(0.,1.,0.));
#1171=DIRECTION('',(0.,0.,1.));
#1172=DIRECTION('',(0.,0.,-1.));
#1173=DIRECTION('',(0.,-1.,0.));
#1174=DIRECTION('',(0.,0.,1.));
#1175=DIRECTION('',(1.,0.,0.));
#1176=DIRECTION('',(0.,0.,-1.));
#1177=DIRECTION('',(0.,0.,1.));
#1178=DIRECTION('',(-0.999999999999997,0.,0.));
#1179=DIRECTION('',(0.,0.,1.));
#1180=DIRECTION('',(-0.999999999999997,0.,0.));
#1181=DIRECTION('',(0.,0.,1.));
#1182=DIRECTION('',(-0.999999999999997,0.,0.));
#1183=DIRECTION('',(0.,0.,1.));
#1184=DIRECTION('',(-0.999999999999997,0.,0.));
#1185=DIRECTION('',(0.,0.,-1.));
#1186=DIRECTION('',(-1.,0.,0.));
#1187=DIRECTION('',(0.,0.,1.));
#1188=DIRECTION('',(0.999999999999997,0.,0.));
#1189=DIRECTION('',(0.,0.,1.));
#1190=DIRECTION('',(0.999999999999997,0.,0.));
#1191=DIRECTION('',(0.,0.,1.));
#1192=DIRECTION('',(0.999999999999997,0.,0.));
#1193=DIRECTION('',(0.,0.,1.));
#1194=DIRECTION('',(0.999999999999997,0.,0.));
#1195=DIRECTION('',(0.,0.,-1.));
#1196=DIRECTION('',(-1.,0.,0.));
#1197=DIRECTION('',(0.,-1.,0.));
#1198=DIRECTION('',(0.,0.,-1.));
#1199=DIRECTION('',(1.,0.,0.));
#1200=DIRECTION('',(0.,0.,-1.));
#1201=DIRECTION('',(-1.,0.,0.));
#1202=DIRECTION('',(0.,-1.,0.));
#1203=DIRECTION('',(0.,0.,-1.));
#1204=DIRECTION('',(-1.,0.,0.));
#1205=DIRECTION('',(-1.,0.,0.));
#1206=DIRECTION('',(0.,0.,-1.));
#1207=DIRECTION('',(-1.,0.,0.));
#1208=DIRECTION('',(0.,1.,0.));
#1209=DIRECTION('',(0.,0.,-1.));
#1210=DIRECTION('',(-1.,0.,0.));
#1211=DIRECTION('',(0.,0.,1.));
#1212=DIRECTION('',(-1.,0.,0.));
#1213=DIRECTION('',(0.,-1.,0.));
#1214=DIRECTION('',(0.,0.,-1.));
#1215=DIRECTION('',(-1.,0.,0.));
#1216=DIRECTION('',(0.,0.,1.));
#1217=DIRECTION('',(1.,0.,0.));
#1218=DIRECTION('',(0.,0.,-1.));
#1219=DIRECTION('',(0.,0.,1.));
#1220=DIRECTION('',(1.,0.,0.));
#1221=DIRECTION('',(0.,0.,-1.));
#1222=DIRECTION('',(-1.,0.,0.));
#1223=DIRECTION('',(0.,0.,1.));
#1224=DIRECTION('',(0.,-1.,0.));
#1225=DIRECTION('',(0.,0.,-1.));
#1226=DIRECTION('',(0.,0.,-1.));
#1227=DIRECTION('',(0.,1.,0.));
#1228=DIRECTION('',(0.,0.,1.));
#1229=DIRECTION('',(-1.,0.,0.));
#1230=DIRECTION('',(0.,0.,1.));
#1231=DIRECTION('',(1.,0.,0.));
#1232=DIRECTION('',(0.,0.,1.));
#1233=DIRECTION('',(0.,0.,-1.));
#1234=DIRECTION('',(0.,1.,0.));
#1235=DIRECTION('',(0.,0.,1.));
#1236=DIRECTION('',(0.,-1.,0.));
#1237=DIRECTION('',(0.,0.,1.));
#1238=DIRECTION('',(0.,0.,-1.));
#1239=DIRECTION('',(1.,0.,0.));
#1240=DIRECTION('',(0.,0.,-1.));
#1241=DIRECTION('',(0.,0.,1.));
#1242=DIRECTION('',(-1.,0.,0.));
#1243=DIRECTION('',(0.,0.,1.));
#1244=DIRECTION('',(-1.,0.,0.));
#1245=DIRECTION('',(0.,0.,1.));
#1246=DIRECTION('',(-1.,0.,0.));
#1247=DIRECTION('',(0.,0.,1.));
#1248=DIRECTION('',(-1.,0.,0.));
#1249=DIRECTION('',(0.,0.,-1.));
#1250=DIRECTION('',(-1.,0.,0.));
#1251=DIRECTION('',(0.,0.,1.));
#1252=DIRECTION('',(1.,0.,0.));
#1253=DIRECTION('',(0.,0.,1.));
#1254=DIRECTION('',(1.,0.,0.));
#1255=DIRECTION('',(0.,0.,1.));
#1256=DIRECTION('',(1.,0.,0.));
#1257=DIRECTION('',(0.,0.,1.));
#1258=DIRECTION('',(1.,0.,0.));
#1259=DIRECTION('',(0.,0.,-1.));
#1260=DIRECTION('',(1.,0.,0.));
#1261=DIRECTION('',(0.,0.,-1.));
#1262=DIRECTION('',(-1.,0.,0.));
#1263=DIRECTION('',(0.,0.,-1.));
#1264=DIRECTION('',(-1.,0.,0.));
#1265=DIRECTION('',(0.,0.,-1.));
#1266=DIRECTION('',(0.,0.,1.));
#1267=DIRECTION('',(0.,0.,-1.));
#1268=DIRECTION('',(1.,0.,0.));
#1269=DIRECTION('',(0.,0.,-1.));
#1270=DIRECTION('',(1.,0.,0.));
#1271=DIRECTION('',(0.,0.,-1.));
#1272=DIRECTION('',(0.,0.,1.));
#1273=DIRECTION('',(-1.,0.,0.));
#1274=DIRECTION('',(0.,0.,1.));
#1275=DIRECTION('',(0.,0.,-1.));
#1276=DIRECTION('',(1.,0.,0.));
#1277=DIRECTION('',(0.,0.,-1.));
#1278=DIRECTION('',(0.999999999999999,0.,0.));
#1279=DIRECTION('',(0.,0.,-1.));
#1280=DIRECTION('',(-1.,0.,0.));
#1281=DIRECTION('',(0.,0.,-1.));
#1282=DIRECTION('',(0.999999999999999,0.,0.));
#1283=CARTESIAN_POINT('',(0.,0.,0.));
#1284=CARTESIAN_POINT('',(133.35,164.1,132.8));
#1285=CARTESIAN_POINT('',(233.3,164.1,132.8));
#1286=CARTESIAN_POINT('',(193.824654682956,164.1,132.8));
#1287=CARTESIAN_POINT('',(193.824654682956,164.1,132.85));
#1288=CARTESIAN_POINT('',(193.824654682956,164.1,102.9));
#1289=CARTESIAN_POINT('',(203.6,164.1,102.9));
#1290=CARTESIAN_POINT('',(233.3,164.1,102.9));
#1291=CARTESIAN_POINT('',(233.3,164.1,132.8));
#1292=CARTESIAN_POINT('',(203.6,164.1,102.9));
#1293=CARTESIAN_POINT('',(189.3,153.8,132.8));
#1294=CARTESIAN_POINT('',(184.775345317044,164.1,132.8));
#1295=CARTESIAN_POINT('',(233.3,158.9,132.8));
#1296=CARTESIAN_POINT('',(238.5,158.9,132.8));
#1297=CARTESIAN_POINT('',(238.5,126.15,132.8));
#1298=CARTESIAN_POINT('',(238.5,88.4,132.8));
#1299=CARTESIAN_POINT('',(233.3,88.4,132.8));
#1300=CARTESIAN_POINT('',(233.3,83.2,132.8));
#1301=CARTESIAN_POINT('',(133.35,83.2,132.8));
#1302=CARTESIAN_POINT('',(173.9,83.2,132.8));
#1303=CARTESIAN_POINT('',(173.9,88.4,132.8));
#1304=CARTESIAN_POINT('',(168.7,88.4,132.8));
#1305=CARTESIAN_POINT('',(168.7,126.15,132.8));
#1306=CARTESIAN_POINT('',(168.7,158.9,132.8));
#1307=CARTESIAN_POINT('',(173.9,158.9,132.8));
#1308=CARTESIAN_POINT('',(173.9,164.1,132.8));
#1309=CARTESIAN_POINT('',(133.35,164.1,132.8));
#1310=CARTESIAN_POINT('',(77.1,149.5,132.8));
#1311=CARTESIAN_POINT('',(82.8203406271563,162.551444483631,132.8));
#1312=CARTESIAN_POINT('',(91.3449628872207,149.121143375794,132.8));
#1313=CARTESIAN_POINT('',(93.8,160.1,132.8));
#1314=CARTESIAN_POINT('',(133.35,181.,132.8));
#1315=CARTESIAN_POINT('',(0.,181.,132.8));
#1316=CARTESIAN_POINT('',(38.1,181.,132.8));
#1317=CARTESIAN_POINT('',(0.,126.15,132.8));
#1318=CARTESIAN_POINT('',(0.,0.,132.8));
#1319=CARTESIAN_POINT('',(133.35,0.,132.8));
#1320=CARTESIAN_POINT('',(226.5,0.,132.8));
#1321=CARTESIAN_POINT('',(226.5,126.15,132.8));
#1322=CARTESIAN_POINT('',(226.5,68.6,132.8));
#1323=CARTESIAN_POINT('',(235.6,68.6,132.8));
#1324=CARTESIAN_POINT('',(235.6,77.7,132.8));
#1325=CARTESIAN_POINT('',(133.35,77.7,132.8));
#1326=CARTESIAN_POINT('',(266.7,77.7,132.8));
#1327=CARTESIAN_POINT('',(266.7,126.15,132.8));
#1328=CARTESIAN_POINT('',(266.7,252.3,132.8));
#1329=CARTESIAN_POINT('',(133.35,252.3,132.8));
#1330=CARTESIAN_POINT('',(50.3,252.3,132.8));
#1331=CARTESIAN_POINT('',(50.3,126.15,132.8));
#1332=CARTESIAN_POINT('',(50.3,193.2,132.8));
#1333=CARTESIAN_POINT('',(38.1,193.2,132.8));
#1334=CARTESIAN_POINT('',(133.35,126.15,132.8));
#1335=CARTESIAN_POINT('',(226.5,0.,111.7));
#1336=CARTESIAN_POINT('',(226.5,0.,111.7));
#1337=CARTESIAN_POINT('',(0.,0.,0.));
#1338=CARTESIAN_POINT('',(0.,0.,0.));
#1339=CARTESIAN_POINT('',(133.35,0.,0.));
#1340=CARTESIAN_POINT('',(266.7,0.,0.));
#1341=CARTESIAN_POINT('',(266.7,0.,0.));
#1342=CARTESIAN_POINT('',(266.7,0.,111.7));
#1343=CARTESIAN_POINT('',(246.6,0.,111.7));
#1344=CARTESIAN_POINT('',(133.35,0.,0.));
#1345=CARTESIAN_POINT('',(0.,181.,107.1));
#1346=CARTESIAN_POINT('',(0.,181.,107.1));
#1347=CARTESIAN_POINT('',(0.,216.65,107.1));
#1348=CARTESIAN_POINT('',(0.,252.3,107.1));
#1349=CARTESIAN_POINT('',(0.,252.3,0.));
#1350=CARTESIAN_POINT('',(0.,252.3,0.));
#1351=CARTESIAN_POINT('',(0.,126.15,0.));
#1352=CARTESIAN_POINT('',(0.,126.15,0.));
#1353=CARTESIAN_POINT('',(25.15,252.3,107.1));
#1354=CARTESIAN_POINT('',(50.3,252.3,107.1));
#1355=CARTESIAN_POINT('',(50.3,252.3,107.1));
#1356=CARTESIAN_POINT('',(266.7,252.3,0.));
#1357=CARTESIAN_POINT('',(266.7,252.3,0.));
#1358=CARTESIAN_POINT('',(133.35,252.3,0.));
#1359=CARTESIAN_POINT('',(133.35,252.3,0.));
#1360=CARTESIAN_POINT('',(189.3,153.8,0.));
#1361=CARTESIAN_POINT('',(178.05,153.8,0.));
#1362=CARTESIAN_POINT('',(77.1,149.5,0.));
#1363=CARTESIAN_POINT('',(62.85,149.5,0.));
#1364=CARTESIAN_POINT('',(266.7,126.15,0.));
#1365=CARTESIAN_POINT('',(133.35,126.15,0.));
#1366=CARTESIAN_POINT('',(266.7,77.7,111.7));
#1367=CARTESIAN_POINT('',(266.7,77.7,111.7));
#1368=CARTESIAN_POINT('',(266.7,38.85,111.7));
#1369=CARTESIAN_POINT('',(266.7,126.15,0.));
#1370=CARTESIAN_POINT('',(226.5,38.85,111.7));
#1371=CARTESIAN_POINT('',(226.5,68.6,111.7));
#1372=CARTESIAN_POINT('',(226.5,68.6,132.8));
#1373=CARTESIAN_POINT('',(226.5,38.85,111.7));
#1374=CARTESIAN_POINT('',(235.6,77.7,111.7));
#1375=CARTESIAN_POINT('',(235.6,77.7,111.7));
#1376=CARTESIAN_POINT('',(246.6,77.7,111.7));
#1377=CARTESIAN_POINT('',(246.6,77.7,111.7));
#1378=CARTESIAN_POINT('',(246.6,48.6,111.7));
#1379=CARTESIAN_POINT('',(238.5,48.6,111.7));
#1380=CARTESIAN_POINT('',(242.1,48.6,111.7));
#1381=CARTESIAN_POINT('',(242.1,43.7,111.7));
#1382=CARTESIAN_POINT('',(247.,43.7,111.7));
#1383=CARTESIAN_POINT('',(247.,38.85,111.7));
#1384=CARTESIAN_POINT('',(247.,24.7,111.7));
#1385=CARTESIAN_POINT('',(242.1,24.7,111.7));
#1386=CARTESIAN_POINT('',(242.1,19.8,111.7));
#1387=CARTESIAN_POINT('',(246.6,19.8,111.7));
#1388=CARTESIAN_POINT('',(238.5,19.8,111.7));
#1389=CARTESIAN_POINT('',(238.5,24.7,111.7));
#1390=CARTESIAN_POINT('',(233.6,24.7,111.7));
#1391=CARTESIAN_POINT('',(233.6,38.85,111.7));
#1392=CARTESIAN_POINT('',(233.6,43.7,111.7));
#1393=CARTESIAN_POINT('',(238.5,43.7,111.7));
#1394=CARTESIAN_POINT('',(235.6,68.6,111.7));
#1395=CARTESIAN_POINT('',(246.6,38.85,111.7));
#1396=CARTESIAN_POINT('',(235.6,68.6,111.7));
#1397=CARTESIAN_POINT('',(203.6,83.2,102.9));
#1398=CARTESIAN_POINT('',(233.3,83.2,102.9));
#1399=CARTESIAN_POINT('',(173.9,83.2,102.9));
#1400=CARTESIAN_POINT('',(173.9,83.2,132.8));
#1401=CARTESIAN_POINT('',(233.3,83.2,102.9));
#1402=CARTESIAN_POINT('',(203.6,83.2,102.9));
#1403=CARTESIAN_POINT('',(168.7,88.4,102.9));
#1404=CARTESIAN_POINT('',(168.7,88.4,102.9));
#1405=CARTESIAN_POINT('',(168.7,123.65,102.9));
#1406=CARTESIAN_POINT('',(168.7,158.9,102.9));
#1407=CARTESIAN_POINT('',(168.7,158.9,132.8));
#1408=CARTESIAN_POINT('',(168.7,123.65,102.9));
#1409=CARTESIAN_POINT('',(203.6,164.1,102.9));
#1410=CARTESIAN_POINT('',(173.9,164.1,102.9));
#1411=CARTESIAN_POINT('',(184.775345317044,164.1,102.9));
#1412=CARTESIAN_POINT('',(184.775345317044,164.1,132.85));
#1413=CARTESIAN_POINT('',(173.9,164.1,102.9));
#1414=CARTESIAN_POINT('',(203.6,164.1,102.9));
#1415=CARTESIAN_POINT('',(189.3,153.8,102.9));
#1416=CARTESIAN_POINT('',(200.547137961048,153.546252714007,102.9));
#1417=CARTESIAN_POINT('',(198.9,144.8,102.9));
#1418=CARTESIAN_POINT('',(190.278087264177,142.592598637344,102.9));
#1419=CARTESIAN_POINT('',(189.3,153.8,102.9));
#1420=CARTESIAN_POINT('',(173.9,158.9,102.9));
#1421=CARTESIAN_POINT('',(173.9,88.4,102.9));
#1422=CARTESIAN_POINT('',(233.3,88.4,102.9));
#1423=CARTESIAN_POINT('',(238.5,88.4,102.9));
#1424=CARTESIAN_POINT('',(238.5,123.65,102.9));
#1425=CARTESIAN_POINT('',(238.5,158.9,102.9));
#1426=CARTESIAN_POINT('',(233.3,158.9,102.9));
#1427=CARTESIAN_POINT('',(203.6,123.65,102.9));
#1428=CARTESIAN_POINT('',(238.5,88.4,132.8));
#1429=CARTESIAN_POINT('',(238.5,158.9,102.9));
#1430=CARTESIAN_POINT('',(238.5,123.65,102.9));
#1431=CARTESIAN_POINT('',(173.9,88.4,102.9));
#1432=CARTESIAN_POINT('',(233.3,88.4,102.9));
#1433=CARTESIAN_POINT('',(233.3,158.9,102.9));
#1434=CARTESIAN_POINT('',(173.9,158.9,102.9));
#1435=CARTESIAN_POINT('',(240.3,19.8,106.9));
#1436=CARTESIAN_POINT('',(242.1,19.8,106.9));
#1437=CARTESIAN_POINT('',(238.5,19.8,106.9));
#1438=CARTESIAN_POINT('',(238.5,19.8,111.7));
#1439=CARTESIAN_POINT('',(242.1,19.8,106.9));
#1440=CARTESIAN_POINT('',(240.3,19.8,106.9));
#1441=CARTESIAN_POINT('',(233.6,24.7,106.9));
#1442=CARTESIAN_POINT('',(233.6,24.7,106.9));
#1443=CARTESIAN_POINT('',(233.6,34.2,106.9));
#1444=CARTESIAN_POINT('',(233.6,43.7,106.9));
#1445=CARTESIAN_POINT('',(233.6,43.7,111.7));
#1446=CARTESIAN_POINT('',(233.6,34.2,106.9));
#1447=CARTESIAN_POINT('',(240.3,48.6,106.9));
#1448=CARTESIAN_POINT('',(238.5,48.6,106.9));
#1449=CARTESIAN_POINT('',(242.1,48.6,106.9));
#1450=CARTESIAN_POINT('',(242.1,48.6,111.7));
#1451=CARTESIAN_POINT('',(238.5,48.6,106.9));
#1452=CARTESIAN_POINT('',(240.3,48.6,106.9));
#1453=CARTESIAN_POINT('',(247.,43.7,106.9));
#1454=CARTESIAN_POINT('',(247.,43.7,106.9));
#1455=CARTESIAN_POINT('',(247.,34.2,106.9));
#1456=CARTESIAN_POINT('',(247.,24.7,106.9));
#1457=CARTESIAN_POINT('',(247.,24.7,111.7));
#1458=CARTESIAN_POINT('',(247.,34.2,106.9));
#1459=CARTESIAN_POINT('',(242.1,43.7,106.9));
#1460=CARTESIAN_POINT('',(238.5,43.7,106.9));
#1461=CARTESIAN_POINT('',(238.5,24.7,106.9));
#1462=CARTESIAN_POINT('',(242.1,24.7,106.9));
#1463=CARTESIAN_POINT('',(240.3,34.2,106.9));
#1464=CARTESIAN_POINT('',(242.1,43.7,106.9));
#1465=CARTESIAN_POINT('',(238.5,24.7,106.9));
#1466=CARTESIAN_POINT('',(242.1,24.7,106.9));
#1467=CARTESIAN_POINT('',(238.5,43.7,106.9));
#1468=CARTESIAN_POINT('',(38.1,181.,107.1));
#1469=CARTESIAN_POINT('',(38.1,181.,107.1));
#1470=CARTESIAN_POINT('',(25.15,181.,107.1));
#1471=CARTESIAN_POINT('',(25.15,181.,107.1));
#1472=CARTESIAN_POINT('',(25.15,228.4,107.1));
#1473=CARTESIAN_POINT('',(18.6,228.4,107.1));
#1474=CARTESIAN_POINT('',(26.7,228.4,107.1));
#1475=CARTESIAN_POINT('',(26.7,218.6,107.1));
#1476=CARTESIAN_POINT('',(36.5,218.6,107.1));
#1477=CARTESIAN_POINT('',(36.5,216.65,107.1));
#1478=CARTESIAN_POINT('',(36.5,201.9,107.1));
#1479=CARTESIAN_POINT('',(26.7,201.9,107.1));
#1480=CARTESIAN_POINT('',(26.7,192.1,107.1));
#1481=CARTESIAN_POINT('',(25.15,192.1,107.1));
#1482=CARTESIAN_POINT('',(18.6,192.1,107.1));
#1483=CARTESIAN_POINT('',(18.6,201.9,107.1));
#1484=CARTESIAN_POINT('',(8.8,201.9,107.1));
#1485=CARTESIAN_POINT('',(8.8,216.65,107.1));
#1486=CARTESIAN_POINT('',(8.8,218.6,107.1));
#1487=CARTESIAN_POINT('',(18.6,218.6,107.1));
#1488=CARTESIAN_POINT('',(38.1,193.2,107.1));
#1489=CARTESIAN_POINT('',(50.3,193.2,107.1));
#1490=CARTESIAN_POINT('',(50.3,216.65,107.1));
#1491=CARTESIAN_POINT('',(25.15,216.65,107.1));
#1492=CARTESIAN_POINT('',(50.3,193.2,132.8));
#1493=CARTESIAN_POINT('',(50.3,216.65,107.1));
#1494=CARTESIAN_POINT('',(38.1,193.2,107.1));
#1495=CARTESIAN_POINT('',(26.7,192.1,94.9));
#1496=CARTESIAN_POINT('',(26.7,192.1,94.9));
#1497=CARTESIAN_POINT('',(22.65,192.1,94.9));
#1498=CARTESIAN_POINT('',(18.6,192.1,94.9));
#1499=CARTESIAN_POINT('',(18.6,192.1,107.1));
#1500=CARTESIAN_POINT('',(22.65,192.1,94.9));
#1501=CARTESIAN_POINT('',(8.8,201.9,94.9));
#1502=CARTESIAN_POINT('',(8.8,201.9,94.9));
#1503=CARTESIAN_POINT('',(8.8,210.25,94.9));
#1504=CARTESIAN_POINT('',(8.8,218.6,94.9));
#1505=CARTESIAN_POINT('',(8.8,218.6,107.1));
#1506=CARTESIAN_POINT('',(8.8,210.25,94.9));
#1507=CARTESIAN_POINT('',(22.65,228.4,94.9));
#1508=CARTESIAN_POINT('',(18.6,228.4,94.9));
#1509=CARTESIAN_POINT('',(26.7,228.4,94.9));
#1510=CARTESIAN_POINT('',(26.7,228.4,107.1));
#1511=CARTESIAN_POINT('',(18.6,228.4,94.9));
#1512=CARTESIAN_POINT('',(22.65,228.4,94.9));
#1513=CARTESIAN_POINT('',(36.5,210.25,94.9));
#1514=CARTESIAN_POINT('',(36.5,218.6,94.9));
#1515=CARTESIAN_POINT('',(36.5,201.9,94.9));
#1516=CARTESIAN_POINT('',(36.5,201.9,107.1));
#1517=CARTESIAN_POINT('',(36.5,218.6,94.9));
#1518=CARTESIAN_POINT('',(36.5,210.25,94.9));
#1519=CARTESIAN_POINT('',(26.7,201.9,94.9));
#1520=CARTESIAN_POINT('',(26.7,218.6,94.9));
#1521=CARTESIAN_POINT('',(18.6,218.6,94.9));
#1522=CARTESIAN_POINT('',(18.6,201.9,94.9));
#1523=CARTESIAN_POINT('',(22.65,210.25,94.9));
#1524=CARTESIAN_POINT('',(26.7,201.9,94.9));
#1525=CARTESIAN_POINT('',(26.7,218.6,94.9));
#1526=CARTESIAN_POINT('',(18.6,201.9,94.9));
#1527=CARTESIAN_POINT('',(18.6,218.6,94.9));
#1528=CARTESIAN_POINT('',(93.8,160.1,83.));
#1529=CARTESIAN_POINT('',(82.8203406271563,162.551444483631,83.));
#1530=CARTESIAN_POINT('',(91.3449628872207,149.121143375794,83.));
#1531=CARTESIAN_POINT('',(77.1,149.5,83.));
#1532=CARTESIAN_POINT('',(93.8,160.1,83.));
#1533=CARTESIAN_POINT('',(82.8203406271563,162.551444483631,66.4));
#1534=CARTESIAN_POINT('',(91.3449628872207,149.121143375794,66.4));
#1535=CARTESIAN_POINT('',(93.8,160.1,132.85));
#1536=CARTESIAN_POINT('',(77.1,149.5,132.85));
#1537=CARTESIAN_POINT('',(190.278087264177,142.592598637344,95.225));
#1538=CARTESIAN_POINT('',(190.278087264177,142.592598637344,57.6));
#1539=CARTESIAN_POINT('',(189.3,153.8,57.6));
#1540=CARTESIAN_POINT('',(200.547137961048,153.546252714007,57.6));
#1541=CARTESIAN_POINT('',(200.547137961048,153.546252714007,95.225));
#1542=CARTESIAN_POINT('',(189.3,153.8,132.85));
#1543=CARTESIAN_POINT('',(198.9,144.8,57.6));
#1544=CARTESIAN_POINT('',(198.9,144.8,57.6));
#1545=CARTESIAN_POINT('',(198.9,144.8,132.85));
#1546=MECHANICAL_DESIGN_GEOMETRIC_PRESENTATION_REPRESENTATION('',(#24),
#1547);
#1547=(
GEOMETRIC_REPRESENTATION_CONTEXT(3)
GLOBAL_UNCERTAINTY_ASSIGNED_CONTEXT((#1548))
GLOBAL_UNIT_ASSIGNED_CONTEXT((#1554,#1550,#1549))
REPRESENTATION_CONTEXT('featured_part_05548','TOP_LEVEL_ASSEMBLY_PART')
);
#1548=UNCERTAINTY_MEASURE_WITH_UNIT(LENGTH_MEASURE(2.E-5),#1554,
'DISTANCE_ACCURACY_VALUE','Maximum Tolerance applied to model');
#1549=(
NAMED_UNIT(*)
SI_UNIT($,.STERADIAN.)
SOLID_ANGLE_UNIT()
);
#1550=(
CONVERSION_BASED_UNIT('DEGREE',#1552)
NAMED_UNIT(#1551)
PLANE_ANGLE_UNIT()
);
#1551=DIMENSIONAL_EXPONENTS(0.,0.,0.,0.,0.,0.,0.);
#1552=PLANE_ANGLE_MEASURE_WITH_UNIT(PLANE_ANGLE_MEASURE(0.0174532925),#1553);
#1553=(
NAMED_UNIT(*)
PLANE_ANGLE_UNIT()
SI_UNIT($,.RADIAN.)
);
#1554=(
LENGTH_UNIT()
NAMED_UNIT(*)
SI_UNIT(.MILLI.,.METRE.)
);
ENDSEC;
END-ISO-10303-21;
