ISO-10303-21;
HEADER;
/* Generated by software containing ST-Developer
 * from STEP Tools, Inc. (www.steptools.com) 
 */
/* OPTION: using custom schema-name function */

FILE_DESCRIPTION(
/* description */ (''),
/* implementation_level */ '2;1');

FILE_NAME(
/* name */ 'featured_part_01477.stp',
/* time_stamp */ '2026-07-09T12:42:04-04:00',
/* author */ (''),
/* organization */ (''),
/* preprocessor_version */ 'ST-DEVELOPER v20.1',
/* originating_system */ 'SIEMENS PLM Software NX2512.6002',
/* authorisation */ '');

FILE_SCHEMA (('AUTOMOTIVE_DESIGN { 1 0 10303 214 3 1 1 1 }'));
ENDSEC;

DATA;
#10=SHAPE_REPRESENTATION_RELATIONSHIP('None',
'relationship between featured_part_01477-None and featured_part_01477
-None',#22,#11);
#11=ADVANCED_BREP_SHAPE_REPRESENTATION('featured_part_01477-None',(#32),
#1660);
#12=SHAPE_DEFINITION_REPRESENTATION(#13,#22);
#13=PRODUCT_DEFINITION_SHAPE('','',#14);
#14=PRODUCT_DEFINITION(' ','',#16,#15);
#15=PRODUCT_DEFINITION_CONTEXT('part definition',#21,'design');
#16=PRODUCT_DEFINITION_FORMATION_WITH_SPECIFIED_SOURCE(' ',' ',#18,
 .NOT_KNOWN.);
#17=PRODUCT_RELATED_PRODUCT_CATEGORY('part','',(#18));
#18=PRODUCT('featured_part_01477','featured_part_01477',' ',(#19));
#19=PRODUCT_CONTEXT(' ',#21,'mechanical');
#20=APPLICATION_PROTOCOL_DEFINITION('international standard',
'automotive_design',2010,#21);
#21=APPLICATION_CONTEXT(
'core data for automotive mechanical design processes');
#22=SHAPE_REPRESENTATION('featured_part_01477-None',(#993),#1660);
#23=PRESENTATION_LAYER_ASSIGNMENT('1','Layer 1',(#32));
#24=STYLED_ITEM('',(#25),#32);
#25=PRESENTATION_STYLE_ASSIGNMENT((#26));
#26=SURFACE_STYLE_USAGE(.BOTH.,#27);
#27=SURFACE_SIDE_STYLE('',(#28));
#28=SURFACE_STYLE_FILL_AREA(#29);
#29=FILL_AREA_STYLE('',(#30));
#30=FILL_AREA_STYLE_COLOUR('',#31);
#31=COLOUR_RGB('medium steel',0.611764705882353,0.658823529411765,0.670588235294118);
#32=MANIFOLD_SOLID_BREP('',#33);
#33=CLOSED_SHELL('',(#112,#113,#114,#115,#116,#117,#118,#119,#120,#121,
#122,#123,#124,#125,#126,#127,#128,#129,#130,#131,#132,#133,#134,#135,#136,
#137,#138,#139,#140,#141,#142,#143,#144,#145,#146,#147,#148,#149,#150,#151,
#152,#153,#154,#155,#156,#157,#158,#159,#160,#161,#162,#163,#164,#165));
#34=FACE_BOUND('',#249,.T.);
#35=FACE_BOUND('',#250,.T.);
#36=FACE_BOUND('',#251,.T.);
#37=FACE_BOUND('',#252,.T.);
#38=FACE_BOUND('',#270,.T.);
#39=FACE_BOUND('',#271,.T.);
#40=FACE_BOUND('',#285,.T.);
#41=FACE_BOUND('',#286,.T.);
#42=FACE_BOUND('',#298,.T.);
#43=FACE_BOUND('',#299,.T.);
#44=FACE_BOUND('',#301,.T.);
#45=FACE_BOUND('',#302,.T.);
#46=FACE_BOUND('',#305,.T.);
#47=FACE_BOUND('',#306,.T.);
#48=FACE_BOUND('',#308,.T.);
#49=FACE_BOUND('',#309,.T.);
#50=CYLINDRICAL_SURFACE('',#997,14.8);
#51=CYLINDRICAL_SURFACE('',#1027,10.3);
#52=CYLINDRICAL_SURFACE('',#1028,10.3);
#53=CYLINDRICAL_SURFACE('',#1029,10.3);
#54=CYLINDRICAL_SURFACE('',#1030,10.3);
#55=CYLINDRICAL_SURFACE('',#1036,11.7);
#56=CYLINDRICAL_SURFACE('',#1047,3.9);
#57=CYLINDRICAL_SURFACE('',#1048,3.9);
#58=CYLINDRICAL_SURFACE('',#1049,3.9);
#59=CYLINDRICAL_SURFACE('',#1050,3.9);
#60=CYLINDRICAL_SURFACE('',#1062,7.5);
#61=CYLINDRICAL_SURFACE('',#1063,7.5);
#62=CYLINDRICAL_SURFACE('',#1074,14.8);
#63=CYLINDRICAL_SURFACE('',#1075,14.8);
#64=CYLINDRICAL_SURFACE('',#1076,14.8);
#65=CYLINDRICAL_SURFACE('',#1077,14.8);
#66=CYLINDRICAL_SURFACE('',#1079,7.7);
#67=CYLINDRICAL_SURFACE('',#1082,3.);
#68=CYLINDRICAL_SURFACE('',#1086,9.7);
#69=CYLINDRICAL_SURFACE('',#1089,6.75);
#70=CIRCLE('',#995,14.8);
#71=CIRCLE('',#996,14.8);
#72=CIRCLE('',#998,6.75);
#73=CIRCLE('',#999,9.7);
#74=CIRCLE('',#1000,3.9);
#75=CIRCLE('',#1001,3.9);
#76=CIRCLE('',#1002,3.9);
#77=CIRCLE('',#1003,3.9);
#78=CIRCLE('',#1004,7.5);
#79=CIRCLE('',#1005,7.5);
#80=CIRCLE('',#1006,11.7);
#81=CIRCLE('',#1007,10.3);
#82=CIRCLE('',#1008,10.3);
#83=CIRCLE('',#1009,10.3);
#84=CIRCLE('',#1010,10.3);
#85=CIRCLE('',#1021,10.3);
#86=CIRCLE('',#1022,10.3);
#87=CIRCLE('',#1023,10.3);
#88=CIRCLE('',#1024,10.3);
#89=CIRCLE('',#1033,3.);
#90=CIRCLE('',#1034,11.7);
#91=CIRCLE('',#1040,9.7);
#92=CIRCLE('',#1041,3.9);
#93=CIRCLE('',#1042,3.9);
#94=CIRCLE('',#1043,3.9);
#95=CIRCLE('',#1044,3.9);
#96=CIRCLE('',#1054,7.7);
#97=CIRCLE('',#1055,14.8);
#98=CIRCLE('',#1056,14.8);
#99=CIRCLE('',#1057,14.8);
#100=CIRCLE('',#1058,14.8);
#101=CIRCLE('',#1059,7.5);
#102=CIRCLE('',#1060,7.5);
#103=CIRCLE('',#1068,14.8);
#104=CIRCLE('',#1069,7.7);
#105=CIRCLE('',#1070,14.8);
#106=CIRCLE('',#1071,14.8);
#107=CIRCLE('',#1072,14.8);
#108=CIRCLE('',#1078,7.7);
#109=CIRCLE('',#1081,3.);
#110=CIRCLE('',#1084,9.7);
#111=CIRCLE('',#1087,6.75);
#112=ADVANCED_FACE('',(#200),#166,.F.);
#113=ADVANCED_FACE('',(#201),#50,.F.);
#114=ADVANCED_FACE('',(#34,#35,#36,#37),#167,.T.);
#115=ADVANCED_FACE('',(#202),#168,.T.);
#116=ADVANCED_FACE('',(#203),#169,.T.);
#117=ADVANCED_FACE('',(#204),#170,.T.);
#118=ADVANCED_FACE('',(#205),#171,.T.);
#119=ADVANCED_FACE('',(#206),#172,.T.);
#120=ADVANCED_FACE('',(#207),#173,.F.);
#121=ADVANCED_FACE('',(#208),#174,.F.);
#122=ADVANCED_FACE('',(#209),#175,.F.);
#123=ADVANCED_FACE('',(#210),#176,.F.);
#124=ADVANCED_FACE('',(#211),#177,.F.);
#125=ADVANCED_FACE('',(#212),#178,.F.);
#126=ADVANCED_FACE('',(#213),#51,.F.);
#127=ADVANCED_FACE('',(#214),#52,.F.);
#128=ADVANCED_FACE('',(#215),#53,.F.);
#129=ADVANCED_FACE('',(#216),#54,.F.);
#130=ADVANCED_FACE('',(#217),#179,.F.);
#131=ADVANCED_FACE('',(#218),#180,.F.);
#132=ADVANCED_FACE('',(#38,#39),#181,.F.);
#133=ADVANCED_FACE('',(#219),#55,.F.);
#134=ADVANCED_FACE('',(#220),#182,.F.);
#135=ADVANCED_FACE('',(#221),#183,.F.);
#136=ADVANCED_FACE('',(#222),#184,.F.);
#137=ADVANCED_FACE('',(#223),#185,.F.);
#138=ADVANCED_FACE('',(#224),#186,.F.);
#139=ADVANCED_FACE('',(#225),#56,.F.);
#140=ADVANCED_FACE('',(#226),#57,.F.);
#141=ADVANCED_FACE('',(#227),#58,.F.);
#142=ADVANCED_FACE('',(#228),#59,.F.);
#143=ADVANCED_FACE('',(#229),#187,.F.);
#144=ADVANCED_FACE('',(#230),#188,.F.);
#145=ADVANCED_FACE('',(#231),#189,.F.);
#146=ADVANCED_FACE('',(#40,#41),#190,.F.);
#147=ADVANCED_FACE('',(#232),#60,.F.);
#148=ADVANCED_FACE('',(#233),#61,.F.);
#149=ADVANCED_FACE('',(#234),#191,.F.);
#150=ADVANCED_FACE('',(#235),#192,.F.);
#151=ADVANCED_FACE('',(#236),#193,.F.);
#152=ADVANCED_FACE('',(#237),#194,.F.);
#153=ADVANCED_FACE('',(#238),#195,.F.);
#154=ADVANCED_FACE('',(#239),#62,.F.);
#155=ADVANCED_FACE('',(#240),#63,.F.);
#156=ADVANCED_FACE('',(#241),#64,.F.);
#157=ADVANCED_FACE('',(#242),#65,.F.);
#158=ADVANCED_FACE('',(#42,#43),#66,.F.);
#159=ADVANCED_FACE('',(#243),#196,.F.);
#160=ADVANCED_FACE('',(#44,#45),#67,.F.);
#161=ADVANCED_FACE('',(#244),#197,.F.);
#162=ADVANCED_FACE('',(#245),#198,.F.);
#163=ADVANCED_FACE('',(#46,#47),#68,.F.);
#164=ADVANCED_FACE('',(#246),#199,.F.);
#165=ADVANCED_FACE('',(#48,#49),#69,.F.);
#166=PLANE('',#994);
#167=PLANE('',#1011);
#168=PLANE('',#1012);
#169=PLANE('',#1013);
#170=PLANE('',#1014);
#171=PLANE('',#1015);
#172=PLANE('',#1016);
#173=PLANE('',#1017);
#174=PLANE('',#1018);
#175=PLANE('',#1019);
#176=PLANE('',#1020);
#177=PLANE('',#1025);
#178=PLANE('',#1026);
#179=PLANE('',#1031);
#180=PLANE('',#1032);
#181=PLANE('',#1035);
#182=PLANE('',#1037);
#183=PLANE('',#1038);
#184=PLANE('',#1039);
#185=PLANE('',#1045);
#186=PLANE('',#1046);
#187=PLANE('',#1051);
#188=PLANE('',#1052);
#189=PLANE('',#1053);
#190=PLANE('',#1061);
#191=PLANE('',#1064);
#192=PLANE('',#1065);
#193=PLANE('',#1066);
#194=PLANE('',#1067);
#195=PLANE('',#1073);
#196=PLANE('',#1080);
#197=PLANE('',#1083);
#198=PLANE('',#1085);
#199=PLANE('',#1088);
#200=FACE_OUTER_BOUND('',#247,.T.);
#201=FACE_OUTER_BOUND('',#248,.T.);
#202=FACE_OUTER_BOUND('',#253,.T.);
#203=FACE_OUTER_BOUND('',#254,.T.);
#204=FACE_OUTER_BOUND('',#255,.T.);
#205=FACE_OUTER_BOUND('',#256,.T.);
#206=FACE_OUTER_BOUND('',#257,.T.);
#207=FACE_OUTER_BOUND('',#258,.T.);
#208=FACE_OUTER_BOUND('',#259,.T.);
#209=FACE_OUTER_BOUND('',#260,.T.);
#210=FACE_OUTER_BOUND('',#261,.T.);
#211=FACE_OUTER_BOUND('',#262,.T.);
#212=FACE_OUTER_BOUND('',#263,.T.);
#213=FACE_OUTER_BOUND('',#264,.T.);
#214=FACE_OUTER_BOUND('',#265,.T.);
#215=FACE_OUTER_BOUND('',#266,.T.);
#216=FACE_OUTER_BOUND('',#267,.T.);
#217=FACE_OUTER_BOUND('',#268,.T.);
#218=FACE_OUTER_BOUND('',#269,.T.);
#219=FACE_OUTER_BOUND('',#272,.T.);
#220=FACE_OUTER_BOUND('',#273,.T.);
#221=FACE_OUTER_BOUND('',#274,.T.);
#222=FACE_OUTER_BOUND('',#275,.T.);
#223=FACE_OUTER_BOUND('',#276,.T.);
#224=FACE_OUTER_BOUND('',#277,.T.);
#225=FACE_OUTER_BOUND('',#278,.T.);
#226=FACE_OUTER_BOUND('',#279,.T.);
#227=FACE_OUTER_BOUND('',#280,.T.);
#228=FACE_OUTER_BOUND('',#281,.T.);
#229=FACE_OUTER_BOUND('',#282,.T.);
#230=FACE_OUTER_BOUND('',#283,.T.);
#231=FACE_OUTER_BOUND('',#284,.T.);
#232=FACE_OUTER_BOUND('',#287,.T.);
#233=FACE_OUTER_BOUND('',#288,.T.);
#234=FACE_OUTER_BOUND('',#289,.T.);
#235=FACE_OUTER_BOUND('',#290,.T.);
#236=FACE_OUTER_BOUND('',#291,.T.);
#237=FACE_OUTER_BOUND('',#292,.T.);
#238=FACE_OUTER_BOUND('',#293,.T.);
#239=FACE_OUTER_BOUND('',#294,.T.);
#240=FACE_OUTER_BOUND('',#295,.T.);
#241=FACE_OUTER_BOUND('',#296,.T.);
#242=FACE_OUTER_BOUND('',#297,.T.);
#243=FACE_OUTER_BOUND('',#300,.T.);
#244=FACE_OUTER_BOUND('',#303,.T.);
#245=FACE_OUTER_BOUND('',#304,.T.);
#246=FACE_OUTER_BOUND('',#307,.T.);
#247=EDGE_LOOP('',(#310,#311,#312,#313));
#248=EDGE_LOOP('',(#314,#315,#316,#317));
#249=EDGE_LOOP('',(#318));
#250=EDGE_LOOP('',(#319,#320,#321,#322,#323,#324,#325,#326,#327,#328));
#251=EDGE_LOOP('',(#329,#330,#331,#332,#333,#334,#335,#336,#337,#338,#339,
#340,#341));
#252=EDGE_LOOP('',(#342,#343,#344,#345,#346,#347,#348,#349));
#253=EDGE_LOOP('',(#350,#351,#352,#353,#354,#355));
#254=EDGE_LOOP('',(#356,#357,#358,#359,#360));
#255=EDGE_LOOP('',(#361,#362,#363,#364));
#256=EDGE_LOOP('',(#365,#366,#367,#368));
#257=EDGE_LOOP('',(#369,#370,#371,#372,#373,#374,#375,#376,#377,#378,#379));
#258=EDGE_LOOP('',(#380,#381,#382,#383));
#259=EDGE_LOOP('',(#384,#385,#386,#387));
#260=EDGE_LOOP('',(#388,#389,#390,#391));
#261=EDGE_LOOP('',(#392,#393,#394,#395));
#262=EDGE_LOOP('',(#396,#397,#398,#399,#400,#401,#402,#403));
#263=EDGE_LOOP('',(#404,#405,#406,#407));
#264=EDGE_LOOP('',(#408,#409,#410,#411));
#265=EDGE_LOOP('',(#412,#413,#414,#415));
#266=EDGE_LOOP('',(#416,#417,#418,#419));
#267=EDGE_LOOP('',(#420,#421,#422,#423));
#268=EDGE_LOOP('',(#424,#425,#426,#427));
#269=EDGE_LOOP('',(#428,#429,#430,#431));
#270=EDGE_LOOP('',(#432));
#271=EDGE_LOOP('',(#433,#434,#435,#436,#437));
#272=EDGE_LOOP('',(#438,#439,#440,#441));
#273=EDGE_LOOP('',(#442,#443,#444,#445));
#274=EDGE_LOOP('',(#446,#447,#448,#449));
#275=EDGE_LOOP('',(#450,#451,#452,#453));
#276=EDGE_LOOP('',(#454,#455,#456,#457,#458,#459,#460,#461,#462,#463));
#277=EDGE_LOOP('',(#464,#465,#466,#467));
#278=EDGE_LOOP('',(#468,#469,#470,#471));
#279=EDGE_LOOP('',(#472,#473,#474,#475));
#280=EDGE_LOOP('',(#476,#477,#478,#479));
#281=EDGE_LOOP('',(#480,#481,#482,#483));
#282=EDGE_LOOP('',(#484,#485,#486,#487));
#283=EDGE_LOOP('',(#488,#489,#490,#491));
#284=EDGE_LOOP('',(#492,#493,#494,#495));
#285=EDGE_LOOP('',(#496,#497,#498,#499,#500,#501,#502,#503,#504,#505));
#286=EDGE_LOOP('',(#506,#507,#508,#509,#510,#511));
#287=EDGE_LOOP('',(#512,#513,#514,#515));
#288=EDGE_LOOP('',(#516,#517,#518,#519));
#289=EDGE_LOOP('',(#520,#521,#522,#523));
#290=EDGE_LOOP('',(#524,#525,#526,#527));
#291=EDGE_LOOP('',(#528,#529,#530,#531));
#292=EDGE_LOOP('',(#532,#533,#534,#535));
#293=EDGE_LOOP('',(#536,#537,#538,#539,#540,#541,#542,#543,#544,#545));
#294=EDGE_LOOP('',(#546,#547,#548,#549));
#295=EDGE_LOOP('',(#550,#551,#552,#553));
#296=EDGE_LOOP('',(#554,#555,#556,#557));
#297=EDGE_LOOP('',(#558,#559,#560,#561));
#298=EDGE_LOOP('',(#562));
#299=EDGE_LOOP('',(#563,#564,#565,#566));
#300=EDGE_LOOP('',(#567));
#301=EDGE_LOOP('',(#568));
#302=EDGE_LOOP('',(#569));
#303=EDGE_LOOP('',(#570));
#304=EDGE_LOOP('',(#571));
#305=EDGE_LOOP('',(#572,#573,#574,#575));
#306=EDGE_LOOP('',(#576));
#307=EDGE_LOOP('',(#577));
#308=EDGE_LOOP('',(#578));
#309=EDGE_LOOP('',(#579));
#310=ORIENTED_EDGE('',*,*,#672,.T.);
#311=ORIENTED_EDGE('',*,*,#673,.T.);
#312=ORIENTED_EDGE('',*,*,#674,.T.);
#313=ORIENTED_EDGE('',*,*,#675,.T.);
#314=ORIENTED_EDGE('',*,*,#676,.F.);
#315=ORIENTED_EDGE('',*,*,#677,.T.);
#316=ORIENTED_EDGE('',*,*,#678,.F.);
#317=ORIENTED_EDGE('',*,*,#679,.F.);
#318=ORIENTED_EDGE('',*,*,#680,.F.);
#319=ORIENTED_EDGE('',*,*,#681,.F.);
#320=ORIENTED_EDGE('',*,*,#672,.F.);
#321=ORIENTED_EDGE('',*,*,#682,.T.);
#322=ORIENTED_EDGE('',*,*,#683,.F.);
#323=ORIENTED_EDGE('',*,*,#684,.T.);
#324=ORIENTED_EDGE('',*,*,#685,.F.);
#325=ORIENTED_EDGE('',*,*,#686,.T.);
#326=ORIENTED_EDGE('',*,*,#687,.F.);
#327=ORIENTED_EDGE('',*,*,#688,.T.);
#328=ORIENTED_EDGE('',*,*,#689,.F.);
#329=ORIENTED_EDGE('',*,*,#690,.F.);
#330=ORIENTED_EDGE('',*,*,#691,.T.);
#331=ORIENTED_EDGE('',*,*,#692,.F.);
#332=ORIENTED_EDGE('',*,*,#693,.T.);
#333=ORIENTED_EDGE('',*,*,#694,.F.);
#334=ORIENTED_EDGE('',*,*,#695,.F.);
#335=ORIENTED_EDGE('',*,*,#696,.T.);
#336=ORIENTED_EDGE('',*,*,#697,.F.);
#337=ORIENTED_EDGE('',*,*,#698,.F.);
#338=ORIENTED_EDGE('',*,*,#699,.F.);
#339=ORIENTED_EDGE('',*,*,#700,.T.);
#340=ORIENTED_EDGE('',*,*,#701,.F.);
#341=ORIENTED_EDGE('',*,*,#702,.F.);
#342=ORIENTED_EDGE('',*,*,#703,.F.);
#343=ORIENTED_EDGE('',*,*,#704,.T.);
#344=ORIENTED_EDGE('',*,*,#705,.F.);
#345=ORIENTED_EDGE('',*,*,#706,.T.);
#346=ORIENTED_EDGE('',*,*,#707,.F.);
#347=ORIENTED_EDGE('',*,*,#708,.T.);
#348=ORIENTED_EDGE('',*,*,#709,.F.);
#349=ORIENTED_EDGE('',*,*,#710,.T.);
#350=ORIENTED_EDGE('',*,*,#711,.T.);
#351=ORIENTED_EDGE('',*,*,#698,.T.);
#352=ORIENTED_EDGE('',*,*,#712,.F.);
#353=ORIENTED_EDGE('',*,*,#713,.T.);
#354=ORIENTED_EDGE('',*,*,#714,.T.);
#355=ORIENTED_EDGE('',*,*,#715,.F.);
#356=ORIENTED_EDGE('',*,*,#697,.T.);
#357=ORIENTED_EDGE('',*,*,#716,.T.);
#358=ORIENTED_EDGE('',*,*,#717,.F.);
#359=ORIENTED_EDGE('',*,*,#718,.T.);
#360=ORIENTED_EDGE('',*,*,#712,.T.);
#361=ORIENTED_EDGE('',*,*,#717,.T.);
#362=ORIENTED_EDGE('',*,*,#719,.T.);
#363=ORIENTED_EDGE('',*,*,#720,.F.);
#364=ORIENTED_EDGE('',*,*,#721,.T.);
#365=ORIENTED_EDGE('',*,*,#722,.F.);
#366=ORIENTED_EDGE('',*,*,#713,.F.);
#367=ORIENTED_EDGE('',*,*,#718,.F.);
#368=ORIENTED_EDGE('',*,*,#721,.F.);
#369=ORIENTED_EDGE('',*,*,#723,.T.);
#370=ORIENTED_EDGE('',*,*,#702,.T.);
#371=ORIENTED_EDGE('',*,*,#724,.F.);
#372=ORIENTED_EDGE('',*,*,#725,.F.);
#373=ORIENTED_EDGE('',*,*,#714,.F.);
#374=ORIENTED_EDGE('',*,*,#722,.T.);
#375=ORIENTED_EDGE('',*,*,#720,.T.);
#376=ORIENTED_EDGE('',*,*,#726,.T.);
#377=ORIENTED_EDGE('',*,*,#695,.T.);
#378=ORIENTED_EDGE('',*,*,#727,.F.);
#379=ORIENTED_EDGE('',*,*,#728,.F.);
#380=ORIENTED_EDGE('',*,*,#716,.F.);
#381=ORIENTED_EDGE('',*,*,#696,.F.);
#382=ORIENTED_EDGE('',*,*,#726,.F.);
#383=ORIENTED_EDGE('',*,*,#719,.F.);
#384=ORIENTED_EDGE('',*,*,#703,.T.);
#385=ORIENTED_EDGE('',*,*,#729,.T.);
#386=ORIENTED_EDGE('',*,*,#730,.T.);
#387=ORIENTED_EDGE('',*,*,#731,.T.);
#388=ORIENTED_EDGE('',*,*,#732,.T.);
#389=ORIENTED_EDGE('',*,*,#733,.T.);
#390=ORIENTED_EDGE('',*,*,#705,.T.);
#391=ORIENTED_EDGE('',*,*,#734,.T.);
#392=ORIENTED_EDGE('',*,*,#735,.T.);
#393=ORIENTED_EDGE('',*,*,#736,.T.);
#394=ORIENTED_EDGE('',*,*,#707,.T.);
#395=ORIENTED_EDGE('',*,*,#737,.T.);
#396=ORIENTED_EDGE('',*,*,#738,.F.);
#397=ORIENTED_EDGE('',*,*,#739,.T.);
#398=ORIENTED_EDGE('',*,*,#735,.F.);
#399=ORIENTED_EDGE('',*,*,#740,.T.);
#400=ORIENTED_EDGE('',*,*,#732,.F.);
#401=ORIENTED_EDGE('',*,*,#741,.T.);
#402=ORIENTED_EDGE('',*,*,#730,.F.);
#403=ORIENTED_EDGE('',*,*,#742,.T.);
#404=ORIENTED_EDGE('',*,*,#709,.T.);
#405=ORIENTED_EDGE('',*,*,#743,.T.);
#406=ORIENTED_EDGE('',*,*,#738,.T.);
#407=ORIENTED_EDGE('',*,*,#744,.T.);
#408=ORIENTED_EDGE('',*,*,#708,.F.);
#409=ORIENTED_EDGE('',*,*,#736,.F.);
#410=ORIENTED_EDGE('',*,*,#739,.F.);
#411=ORIENTED_EDGE('',*,*,#743,.F.);
#412=ORIENTED_EDGE('',*,*,#710,.F.);
#413=ORIENTED_EDGE('',*,*,#744,.F.);
#414=ORIENTED_EDGE('',*,*,#742,.F.);
#415=ORIENTED_EDGE('',*,*,#729,.F.);
#416=ORIENTED_EDGE('',*,*,#706,.F.);
#417=ORIENTED_EDGE('',*,*,#733,.F.);
#418=ORIENTED_EDGE('',*,*,#740,.F.);
#419=ORIENTED_EDGE('',*,*,#737,.F.);
#420=ORIENTED_EDGE('',*,*,#704,.F.);
#421=ORIENTED_EDGE('',*,*,#731,.F.);
#422=ORIENTED_EDGE('',*,*,#741,.F.);
#423=ORIENTED_EDGE('',*,*,#734,.F.);
#424=ORIENTED_EDGE('',*,*,#745,.T.);
#425=ORIENTED_EDGE('',*,*,#746,.T.);
#426=ORIENTED_EDGE('',*,*,#699,.T.);
#427=ORIENTED_EDGE('',*,*,#711,.F.);
#428=ORIENTED_EDGE('',*,*,#701,.T.);
#429=ORIENTED_EDGE('',*,*,#747,.T.);
#430=ORIENTED_EDGE('',*,*,#748,.T.);
#431=ORIENTED_EDGE('',*,*,#724,.T.);
#432=ORIENTED_EDGE('',*,*,#749,.T.);
#433=ORIENTED_EDGE('',*,*,#748,.F.);
#434=ORIENTED_EDGE('',*,*,#750,.T.);
#435=ORIENTED_EDGE('',*,*,#745,.F.);
#436=ORIENTED_EDGE('',*,*,#715,.T.);
#437=ORIENTED_EDGE('',*,*,#725,.T.);
#438=ORIENTED_EDGE('',*,*,#700,.F.);
#439=ORIENTED_EDGE('',*,*,#746,.F.);
#440=ORIENTED_EDGE('',*,*,#750,.F.);
#441=ORIENTED_EDGE('',*,*,#747,.F.);
#442=ORIENTED_EDGE('',*,*,#751,.T.);
#443=ORIENTED_EDGE('',*,*,#752,.T.);
#444=ORIENTED_EDGE('',*,*,#689,.T.);
#445=ORIENTED_EDGE('',*,*,#753,.T.);
#446=ORIENTED_EDGE('',*,*,#683,.T.);
#447=ORIENTED_EDGE('',*,*,#754,.T.);
#448=ORIENTED_EDGE('',*,*,#755,.T.);
#449=ORIENTED_EDGE('',*,*,#756,.T.);
#450=ORIENTED_EDGE('',*,*,#757,.T.);
#451=ORIENTED_EDGE('',*,*,#758,.T.);
#452=ORIENTED_EDGE('',*,*,#685,.T.);
#453=ORIENTED_EDGE('',*,*,#759,.T.);
#454=ORIENTED_EDGE('',*,*,#674,.F.);
#455=ORIENTED_EDGE('',*,*,#760,.T.);
#456=ORIENTED_EDGE('',*,*,#751,.F.);
#457=ORIENTED_EDGE('',*,*,#761,.T.);
#458=ORIENTED_EDGE('',*,*,#762,.F.);
#459=ORIENTED_EDGE('',*,*,#763,.T.);
#460=ORIENTED_EDGE('',*,*,#757,.F.);
#461=ORIENTED_EDGE('',*,*,#764,.T.);
#462=ORIENTED_EDGE('',*,*,#755,.F.);
#463=ORIENTED_EDGE('',*,*,#765,.T.);
#464=ORIENTED_EDGE('',*,*,#687,.T.);
#465=ORIENTED_EDGE('',*,*,#766,.T.);
#466=ORIENTED_EDGE('',*,*,#762,.T.);
#467=ORIENTED_EDGE('',*,*,#767,.T.);
#468=ORIENTED_EDGE('',*,*,#686,.F.);
#469=ORIENTED_EDGE('',*,*,#758,.F.);
#470=ORIENTED_EDGE('',*,*,#763,.F.);
#471=ORIENTED_EDGE('',*,*,#766,.F.);
#472=ORIENTED_EDGE('',*,*,#682,.F.);
#473=ORIENTED_EDGE('',*,*,#675,.F.);
#474=ORIENTED_EDGE('',*,*,#765,.F.);
#475=ORIENTED_EDGE('',*,*,#754,.F.);
#476=ORIENTED_EDGE('',*,*,#684,.F.);
#477=ORIENTED_EDGE('',*,*,#756,.F.);
#478=ORIENTED_EDGE('',*,*,#764,.F.);
#479=ORIENTED_EDGE('',*,*,#759,.F.);
#480=ORIENTED_EDGE('',*,*,#688,.F.);
#481=ORIENTED_EDGE('',*,*,#767,.F.);
#482=ORIENTED_EDGE('',*,*,#761,.F.);
#483=ORIENTED_EDGE('',*,*,#753,.F.);
#484=ORIENTED_EDGE('',*,*,#768,.T.);
#485=ORIENTED_EDGE('',*,*,#769,.T.);
#486=ORIENTED_EDGE('',*,*,#690,.T.);
#487=ORIENTED_EDGE('',*,*,#723,.F.);
#488=ORIENTED_EDGE('',*,*,#692,.T.);
#489=ORIENTED_EDGE('',*,*,#770,.T.);
#490=ORIENTED_EDGE('',*,*,#771,.T.);
#491=ORIENTED_EDGE('',*,*,#772,.T.);
#492=ORIENTED_EDGE('',*,*,#694,.T.);
#493=ORIENTED_EDGE('',*,*,#773,.T.);
#494=ORIENTED_EDGE('',*,*,#774,.T.);
#495=ORIENTED_EDGE('',*,*,#727,.T.);
#496=ORIENTED_EDGE('',*,*,#678,.T.);
#497=ORIENTED_EDGE('',*,*,#775,.T.);
#498=ORIENTED_EDGE('',*,*,#776,.T.);
#499=ORIENTED_EDGE('',*,*,#777,.T.);
#500=ORIENTED_EDGE('',*,*,#778,.T.);
#501=ORIENTED_EDGE('',*,*,#779,.T.);
#502=ORIENTED_EDGE('',*,*,#780,.T.);
#503=ORIENTED_EDGE('',*,*,#781,.T.);
#504=ORIENTED_EDGE('',*,*,#782,.T.);
#505=ORIENTED_EDGE('',*,*,#783,.T.);
#506=ORIENTED_EDGE('',*,*,#771,.F.);
#507=ORIENTED_EDGE('',*,*,#784,.T.);
#508=ORIENTED_EDGE('',*,*,#768,.F.);
#509=ORIENTED_EDGE('',*,*,#728,.T.);
#510=ORIENTED_EDGE('',*,*,#774,.F.);
#511=ORIENTED_EDGE('',*,*,#785,.T.);
#512=ORIENTED_EDGE('',*,*,#691,.F.);
#513=ORIENTED_EDGE('',*,*,#769,.F.);
#514=ORIENTED_EDGE('',*,*,#784,.F.);
#515=ORIENTED_EDGE('',*,*,#770,.F.);
#516=ORIENTED_EDGE('',*,*,#693,.F.);
#517=ORIENTED_EDGE('',*,*,#772,.F.);
#518=ORIENTED_EDGE('',*,*,#785,.F.);
#519=ORIENTED_EDGE('',*,*,#773,.F.);
#520=ORIENTED_EDGE('',*,*,#781,.F.);
#521=ORIENTED_EDGE('',*,*,#786,.T.);
#522=ORIENTED_EDGE('',*,*,#787,.T.);
#523=ORIENTED_EDGE('',*,*,#788,.T.);
#524=ORIENTED_EDGE('',*,*,#789,.T.);
#525=ORIENTED_EDGE('',*,*,#679,.T.);
#526=ORIENTED_EDGE('',*,*,#783,.F.);
#527=ORIENTED_EDGE('',*,*,#790,.T.);
#528=ORIENTED_EDGE('',*,*,#777,.F.);
#529=ORIENTED_EDGE('',*,*,#791,.T.);
#530=ORIENTED_EDGE('',*,*,#792,.T.);
#531=ORIENTED_EDGE('',*,*,#793,.T.);
#532=ORIENTED_EDGE('',*,*,#794,.T.);
#533=ORIENTED_EDGE('',*,*,#795,.T.);
#534=ORIENTED_EDGE('',*,*,#779,.F.);
#535=ORIENTED_EDGE('',*,*,#796,.T.);
#536=ORIENTED_EDGE('',*,*,#797,.T.);
#537=ORIENTED_EDGE('',*,*,#798,.T.);
#538=ORIENTED_EDGE('',*,*,#676,.T.);
#539=ORIENTED_EDGE('',*,*,#789,.F.);
#540=ORIENTED_EDGE('',*,*,#799,.T.);
#541=ORIENTED_EDGE('',*,*,#787,.F.);
#542=ORIENTED_EDGE('',*,*,#800,.T.);
#543=ORIENTED_EDGE('',*,*,#794,.F.);
#544=ORIENTED_EDGE('',*,*,#801,.T.);
#545=ORIENTED_EDGE('',*,*,#792,.F.);
#546=ORIENTED_EDGE('',*,*,#776,.F.);
#547=ORIENTED_EDGE('',*,*,#802,.T.);
#548=ORIENTED_EDGE('',*,*,#797,.F.);
#549=ORIENTED_EDGE('',*,*,#791,.F.);
#550=ORIENTED_EDGE('',*,*,#780,.F.);
#551=ORIENTED_EDGE('',*,*,#795,.F.);
#552=ORIENTED_EDGE('',*,*,#800,.F.);
#553=ORIENTED_EDGE('',*,*,#786,.F.);
#554=ORIENTED_EDGE('',*,*,#778,.F.);
#555=ORIENTED_EDGE('',*,*,#793,.F.);
#556=ORIENTED_EDGE('',*,*,#801,.F.);
#557=ORIENTED_EDGE('',*,*,#796,.F.);
#558=ORIENTED_EDGE('',*,*,#782,.F.);
#559=ORIENTED_EDGE('',*,*,#788,.F.);
#560=ORIENTED_EDGE('',*,*,#799,.F.);
#561=ORIENTED_EDGE('',*,*,#790,.F.);
#562=ORIENTED_EDGE('',*,*,#803,.T.);
#563=ORIENTED_EDGE('',*,*,#798,.F.);
#564=ORIENTED_EDGE('',*,*,#802,.F.);
#565=ORIENTED_EDGE('',*,*,#775,.F.);
#566=ORIENTED_EDGE('',*,*,#677,.F.);
#567=ORIENTED_EDGE('',*,*,#803,.F.);
#568=ORIENTED_EDGE('',*,*,#804,.T.);
#569=ORIENTED_EDGE('',*,*,#749,.F.);
#570=ORIENTED_EDGE('',*,*,#804,.F.);
#571=ORIENTED_EDGE('',*,*,#805,.F.);
#572=ORIENTED_EDGE('',*,*,#681,.T.);
#573=ORIENTED_EDGE('',*,*,#752,.F.);
#574=ORIENTED_EDGE('',*,*,#760,.F.);
#575=ORIENTED_EDGE('',*,*,#673,.F.);
#576=ORIENTED_EDGE('',*,*,#805,.T.);
#577=ORIENTED_EDGE('',*,*,#806,.F.);
#578=ORIENTED_EDGE('',*,*,#680,.T.);
#579=ORIENTED_EDGE('',*,*,#806,.T.);
#580=VERTEX_POINT('',#1379);
#581=VERTEX_POINT('',#1380);
#582=VERTEX_POINT('',#1382);
#583=VERTEX_POINT('',#1384);
#584=VERTEX_POINT('',#1388);
#585=VERTEX_POINT('',#1389);
#586=VERTEX_POINT('',#1391);
#587=VERTEX_POINT('',#1393);
#588=VERTEX_POINT('',#1397);
#589=VERTEX_POINT('',#1399);
#590=VERTEX_POINT('',#1401);
#591=VERTEX_POINT('',#1403);
#592=VERTEX_POINT('',#1405);
#593=VERTEX_POINT('',#1407);
#594=VERTEX_POINT('',#1409);
#595=VERTEX_POINT('',#1411);
#596=VERTEX_POINT('',#1413);
#597=VERTEX_POINT('',#1416);
#598=VERTEX_POINT('',#1417);
#599=VERTEX_POINT('',#1419);
#600=VERTEX_POINT('',#1421);
#601=VERTEX_POINT('',#1423);
#602=VERTEX_POINT('',#1425);
#603=VERTEX_POINT('',#1427);
#604=VERTEX_POINT('',#1429);
#605=VERTEX_POINT('',#1431);
#606=VERTEX_POINT('',#1433);
#607=VERTEX_POINT('',#1435);
#608=VERTEX_POINT('',#1437);
#609=VERTEX_POINT('',#1439);
#610=VERTEX_POINT('',#1442);
#611=VERTEX_POINT('',#1443);
#612=VERTEX_POINT('',#1445);
#613=VERTEX_POINT('',#1447);
#614=VERTEX_POINT('',#1449);
#615=VERTEX_POINT('',#1451);
#616=VERTEX_POINT('',#1453);
#617=VERTEX_POINT('',#1455);
#618=VERTEX_POINT('',#1459);
#619=VERTEX_POINT('',#1461);
#620=VERTEX_POINT('',#1463);
#621=VERTEX_POINT('',#1465);
#622=VERTEX_POINT('',#1469);
#623=VERTEX_POINT('',#1471);
#624=VERTEX_POINT('',#1475);
#625=VERTEX_POINT('',#1477);
#626=VERTEX_POINT('',#1483);
#627=VERTEX_POINT('',#1485);
#628=VERTEX_POINT('',#1489);
#629=VERTEX_POINT('',#1494);
#630=VERTEX_POINT('',#1496);
#631=VERTEX_POINT('',#1500);
#632=VERTEX_POINT('',#1501);
#633=VERTEX_POINT('',#1506);
#634=VERTEX_POINT('',#1507);
#635=VERTEX_POINT('',#1512);
#636=VERTEX_POINT('',#1513);
#637=VERTEX_POINT('',#1527);
#638=VERTEX_POINT('',#1531);
#639=VERTEX_POINT('',#1535);
#640=VERTEX_POINT('',#1540);
#641=VERTEX_POINT('',#1541);
#642=VERTEX_POINT('',#1546);
#643=VERTEX_POINT('',#1548);
#644=VERTEX_POINT('',#1552);
#645=VERTEX_POINT('',#1553);
#646=VERTEX_POINT('',#1559);
#647=VERTEX_POINT('',#1561);
#648=VERTEX_POINT('',#1574);
#649=VERTEX_POINT('',#1578);
#650=VERTEX_POINT('',#1580);
#651=VERTEX_POINT('',#1584);
#652=VERTEX_POINT('',#1588);
#653=VERTEX_POINT('',#1590);
#654=VERTEX_POINT('',#1592);
#655=VERTEX_POINT('',#1594);
#656=VERTEX_POINT('',#1596);
#657=VERTEX_POINT('',#1598);
#658=VERTEX_POINT('',#1600);
#659=VERTEX_POINT('',#1602);
#660=VERTEX_POINT('',#1610);
#661=VERTEX_POINT('',#1612);
#662=VERTEX_POINT('',#1616);
#663=VERTEX_POINT('',#1620);
#664=VERTEX_POINT('',#1622);
#665=VERTEX_POINT('',#1626);
#666=VERTEX_POINT('',#1627);
#667=VERTEX_POINT('',#1632);
#668=VERTEX_POINT('',#1644);
#669=VERTEX_POINT('',#1648);
#670=VERTEX_POINT('',#1652);
#671=VERTEX_POINT('',#1656);
#672=EDGE_CURVE('',#580,#581,#807,.T.);
#673=EDGE_CURVE('',#581,#582,#808,.T.);
#674=EDGE_CURVE('',#582,#583,#809,.T.);
#675=EDGE_CURVE('',#583,#580,#810,.T.);
#676=EDGE_CURVE('',#584,#585,#70,.T.);
#677=EDGE_CURVE('',#584,#586,#811,.T.);
#678=EDGE_CURVE('',#587,#586,#71,.T.);
#679=EDGE_CURVE('',#585,#587,#812,.T.);
#680=EDGE_CURVE('',#588,#588,#72,.T.);
#681=EDGE_CURVE('',#581,#589,#73,.T.);
#682=EDGE_CURVE('',#580,#590,#74,.T.);
#683=EDGE_CURVE('',#591,#590,#813,.T.);
#684=EDGE_CURVE('',#591,#592,#75,.T.);
#685=EDGE_CURVE('',#593,#592,#814,.T.);
#686=EDGE_CURVE('',#593,#594,#76,.T.);
#687=EDGE_CURVE('',#595,#594,#815,.T.);
#688=EDGE_CURVE('',#595,#596,#77,.T.);
#689=EDGE_CURVE('',#589,#596,#816,.T.);
#690=EDGE_CURVE('',#597,#598,#817,.T.);
#691=EDGE_CURVE('',#597,#599,#78,.T.);
#692=EDGE_CURVE('',#600,#599,#818,.T.);
#693=EDGE_CURVE('',#600,#601,#79,.T.);
#694=EDGE_CURVE('',#602,#601,#819,.T.);
#695=EDGE_CURVE('',#603,#602,#820,.T.);
#696=EDGE_CURVE('',#603,#604,#821,.T.);
#697=EDGE_CURVE('',#605,#604,#822,.T.);
#698=EDGE_CURVE('',#606,#605,#823,.T.);
#699=EDGE_CURVE('',#607,#606,#824,.T.);
#700=EDGE_CURVE('',#607,#608,#80,.T.);
#701=EDGE_CURVE('',#609,#608,#825,.T.);
#702=EDGE_CURVE('',#598,#609,#826,.T.);
#703=EDGE_CURVE('',#610,#611,#827,.T.);
#704=EDGE_CURVE('',#610,#612,#81,.T.);
#705=EDGE_CURVE('',#613,#612,#828,.T.);
#706=EDGE_CURVE('',#613,#614,#82,.T.);
#707=EDGE_CURVE('',#615,#614,#829,.T.);
#708=EDGE_CURVE('',#615,#616,#83,.T.);
#709=EDGE_CURVE('',#617,#616,#830,.T.);
#710=EDGE_CURVE('',#617,#611,#84,.T.);
#711=EDGE_CURVE('',#618,#606,#831,.T.);
#712=EDGE_CURVE('',#619,#605,#832,.T.);
#713=EDGE_CURVE('',#619,#620,#833,.T.);
#714=EDGE_CURVE('',#620,#621,#834,.T.);
#715=EDGE_CURVE('',#618,#621,#835,.T.);
#716=EDGE_CURVE('',#604,#622,#836,.T.);
#717=EDGE_CURVE('',#623,#622,#837,.T.);
#718=EDGE_CURVE('',#623,#619,#838,.T.);
#719=EDGE_CURVE('',#622,#624,#839,.T.);
#720=EDGE_CURVE('',#625,#624,#840,.T.);
#721=EDGE_CURVE('',#625,#623,#841,.T.);
#722=EDGE_CURVE('',#620,#625,#842,.T.);
#723=EDGE_CURVE('',#626,#598,#843,.T.);
#724=EDGE_CURVE('',#627,#609,#844,.T.);
#725=EDGE_CURVE('',#621,#627,#845,.T.);
#726=EDGE_CURVE('',#624,#603,#846,.T.);
#727=EDGE_CURVE('',#628,#602,#847,.T.);
#728=EDGE_CURVE('',#626,#628,#848,.T.);
#729=EDGE_CURVE('',#611,#629,#849,.T.);
#730=EDGE_CURVE('',#629,#630,#850,.T.);
#731=EDGE_CURVE('',#630,#610,#851,.T.);
#732=EDGE_CURVE('',#631,#632,#852,.T.);
#733=EDGE_CURVE('',#632,#613,#853,.T.);
#734=EDGE_CURVE('',#612,#631,#854,.T.);
#735=EDGE_CURVE('',#633,#634,#855,.T.);
#736=EDGE_CURVE('',#634,#615,#856,.T.);
#737=EDGE_CURVE('',#614,#633,#857,.T.);
#738=EDGE_CURVE('',#635,#636,#858,.T.);
#739=EDGE_CURVE('',#635,#634,#85,.T.);
#740=EDGE_CURVE('',#633,#632,#86,.T.);
#741=EDGE_CURVE('',#631,#630,#87,.T.);
#742=EDGE_CURVE('',#629,#636,#88,.T.);
#743=EDGE_CURVE('',#616,#635,#859,.T.);
#744=EDGE_CURVE('',#636,#617,#860,.T.);
#745=EDGE_CURVE('',#618,#637,#861,.T.);
#746=EDGE_CURVE('',#637,#607,#862,.T.);
#747=EDGE_CURVE('',#608,#638,#863,.T.);
#748=EDGE_CURVE('',#638,#627,#864,.T.);
#749=EDGE_CURVE('',#639,#639,#89,.T.);
#750=EDGE_CURVE('',#638,#637,#90,.T.);
#751=EDGE_CURVE('',#640,#641,#865,.T.);
#752=EDGE_CURVE('',#641,#589,#866,.T.);
#753=EDGE_CURVE('',#596,#640,#867,.T.);
#754=EDGE_CURVE('',#590,#642,#868,.T.);
#755=EDGE_CURVE('',#642,#643,#869,.T.);
#756=EDGE_CURVE('',#643,#591,#870,.T.);
#757=EDGE_CURVE('',#644,#645,#871,.T.);
#758=EDGE_CURVE('',#645,#593,#872,.T.);
#759=EDGE_CURVE('',#592,#644,#873,.T.);
#760=EDGE_CURVE('',#582,#641,#91,.T.);
#761=EDGE_CURVE('',#640,#646,#92,.T.);
#762=EDGE_CURVE('',#647,#646,#874,.T.);
#763=EDGE_CURVE('',#647,#645,#93,.T.);
#764=EDGE_CURVE('',#644,#643,#94,.T.);
#765=EDGE_CURVE('',#642,#583,#95,.T.);
#766=EDGE_CURVE('',#594,#647,#875,.T.);
#767=EDGE_CURVE('',#646,#595,#876,.T.);
#768=EDGE_CURVE('',#626,#648,#877,.T.);
#769=EDGE_CURVE('',#648,#597,#878,.T.);
#770=EDGE_CURVE('',#599,#649,#879,.T.);
#771=EDGE_CURVE('',#649,#650,#880,.T.);
#772=EDGE_CURVE('',#650,#600,#881,.T.);
#773=EDGE_CURVE('',#601,#651,#882,.T.);
#774=EDGE_CURVE('',#651,#628,#883,.T.);
#775=EDGE_CURVE('',#586,#652,#96,.T.);
#776=EDGE_CURVE('',#652,#653,#97,.T.);
#777=EDGE_CURVE('',#653,#654,#884,.T.);
#778=EDGE_CURVE('',#654,#655,#98,.T.);
#779=EDGE_CURVE('',#655,#656,#885,.T.);
#780=EDGE_CURVE('',#656,#657,#99,.T.);
#781=EDGE_CURVE('',#657,#658,#886,.T.);
#782=EDGE_CURVE('',#658,#659,#100,.T.);
#783=EDGE_CURVE('',#659,#587,#887,.T.);
#784=EDGE_CURVE('',#649,#648,#101,.T.);
#785=EDGE_CURVE('',#651,#650,#102,.T.);
#786=EDGE_CURVE('',#657,#660,#888,.T.);
#787=EDGE_CURVE('',#660,#661,#889,.T.);
#788=EDGE_CURVE('',#661,#658,#890,.T.);
#789=EDGE_CURVE('',#662,#585,#891,.T.);
#790=EDGE_CURVE('',#659,#662,#892,.T.);
#791=EDGE_CURVE('',#653,#663,#893,.T.);
#792=EDGE_CURVE('',#663,#664,#894,.T.);
#793=EDGE_CURVE('',#664,#654,#895,.T.);
#794=EDGE_CURVE('',#665,#666,#896,.T.);
#795=EDGE_CURVE('',#666,#656,#897,.T.);
#796=EDGE_CURVE('',#655,#665,#898,.T.);
#797=EDGE_CURVE('',#663,#667,#103,.T.);
#798=EDGE_CURVE('',#667,#584,#104,.T.);
#799=EDGE_CURVE('',#662,#661,#105,.T.);
#800=EDGE_CURVE('',#660,#666,#106,.T.);
#801=EDGE_CURVE('',#665,#664,#107,.T.);
#802=EDGE_CURVE('',#652,#667,#899,.T.);
#803=EDGE_CURVE('',#668,#668,#108,.T.);
#804=EDGE_CURVE('',#669,#669,#109,.T.);
#805=EDGE_CURVE('',#670,#670,#110,.T.);
#806=EDGE_CURVE('',#671,#671,#111,.T.);
#807=LINE('',#1378,#900);
#808=LINE('',#1381,#901);
#809=LINE('',#1383,#902);
#810=LINE('',#1385,#903);
#811=LINE('',#1390,#904);
#812=LINE('',#1394,#905);
#813=LINE('',#1402,#906);
#814=LINE('',#1406,#907);
#815=LINE('',#1410,#908);
#816=LINE('',#1414,#909);
#817=LINE('',#1415,#910);
#818=LINE('',#1420,#911);
#819=LINE('',#1424,#912);
#820=LINE('',#1426,#913);
#821=LINE('',#1428,#914);
#822=LINE('',#1430,#915);
#823=LINE('',#1432,#916);
#824=LINE('',#1434,#917);
#825=LINE('',#1438,#918);
#826=LINE('',#1440,#919);
#827=LINE('',#1441,#920);
#828=LINE('',#1446,#921);
#829=LINE('',#1450,#922);
#830=LINE('',#1454,#923);
#831=LINE('',#1458,#924);
#832=LINE('',#1460,#925);
#833=LINE('',#1462,#926);
#834=LINE('',#1464,#927);
#835=LINE('',#1466,#928);
#836=LINE('',#1468,#929);
#837=LINE('',#1470,#930);
#838=LINE('',#1472,#931);
#839=LINE('',#1474,#932);
#840=LINE('',#1476,#933);
#841=LINE('',#1478,#934);
#842=LINE('',#1480,#935);
#843=LINE('',#1482,#936);
#844=LINE('',#1484,#937);
#845=LINE('',#1486,#938);
#846=LINE('',#1487,#939);
#847=LINE('',#1488,#940);
#848=LINE('',#1490,#941);
#849=LINE('',#1493,#942);
#850=LINE('',#1495,#943);
#851=LINE('',#1497,#944);
#852=LINE('',#1499,#945);
#853=LINE('',#1502,#946);
#854=LINE('',#1503,#947);
#855=LINE('',#1505,#948);
#856=LINE('',#1508,#949);
#857=LINE('',#1509,#950);
#858=LINE('',#1511,#951);
#859=LINE('',#1519,#952);
#860=LINE('',#1520,#953);
#861=LINE('',#1526,#954);
#862=LINE('',#1528,#955);
#863=LINE('',#1530,#956);
#864=LINE('',#1532,#957);
#865=LINE('',#1539,#958);
#866=LINE('',#1542,#959);
#867=LINE('',#1543,#960);
#868=LINE('',#1545,#961);
#869=LINE('',#1547,#962);
#870=LINE('',#1549,#963);
#871=LINE('',#1551,#964);
#872=LINE('',#1554,#965);
#873=LINE('',#1555,#966);
#874=LINE('',#1560,#967);
#875=LINE('',#1566,#968);
#876=LINE('',#1567,#969);
#877=LINE('',#1573,#970);
#878=LINE('',#1575,#971);
#879=LINE('',#1577,#972);
#880=LINE('',#1579,#973);
#881=LINE('',#1581,#974);
#882=LINE('',#1583,#975);
#883=LINE('',#1585,#976);
#884=LINE('',#1591,#977);
#885=LINE('',#1595,#978);
#886=LINE('',#1599,#979);
#887=LINE('',#1603,#980);
#888=LINE('',#1609,#981);
#889=LINE('',#1611,#982);
#890=LINE('',#1613,#983);
#891=LINE('',#1615,#984);
#892=LINE('',#1617,#985);
#893=LINE('',#1619,#986);
#894=LINE('',#1621,#987);
#895=LINE('',#1623,#988);
#896=LINE('',#1625,#989);
#897=LINE('',#1628,#990);
#898=LINE('',#1629,#991);
#899=LINE('',#1638,#992);
#900=VECTOR('',#1092,1.);
#901=VECTOR('',#1093,1.);
#902=VECTOR('',#1094,1.);
#903=VECTOR('',#1095,1.);
#904=VECTOR('',#1100,1.);
#905=VECTOR('',#1103,1.);
#906=VECTOR('',#1112,1.);
#907=VECTOR('',#1115,1.);
#908=VECTOR('',#1118,1.);
#909=VECTOR('',#1121,1.);
#910=VECTOR('',#1122,1.);
#911=VECTOR('',#1125,1.);
#912=VECTOR('',#1128,1.);
#913=VECTOR('',#1129,1.);
#914=VECTOR('',#1130,1.);
#915=VECTOR('',#1131,1.);
#916=VECTOR('',#1132,1.);
#917=VECTOR('',#1133,1.);
#918=VECTOR('',#1136,1.);
#919=VECTOR('',#1137,1.);
#920=VECTOR('',#1138,1.);
#921=VECTOR('',#1141,1.);
#922=VECTOR('',#1144,1.);
#923=VECTOR('',#1147,1.);
#924=VECTOR('',#1152,1.);
#925=VECTOR('',#1153,1.);
#926=VECTOR('',#1154,1.);
#927=VECTOR('',#1155,1.);
#928=VECTOR('',#1156,1.);
#929=VECTOR('',#1159,1.);
#930=VECTOR('',#1160,1.);
#931=VECTOR('',#1161,1.);
#932=VECTOR('',#1164,1.);
#933=VECTOR('',#1165,1.);
#934=VECTOR('',#1166,1.);
#935=VECTOR('',#1169,1.);
#936=VECTOR('',#1172,1.);
#937=VECTOR('',#1173,1.);
#938=VECTOR('',#1174,1.);
#939=VECTOR('',#1175,1.);
#940=VECTOR('',#1176,1.);
#941=VECTOR('',#1177,1.);
#942=VECTOR('',#1182,1.);
#943=VECTOR('',#1183,1.);
#944=VECTOR('',#1184,1.);
#945=VECTOR('',#1187,1.);
#946=VECTOR('',#1188,1.);
#947=VECTOR('',#1189,1.);
#948=VECTOR('',#1192,1.);
#949=VECTOR('',#1193,1.);
#950=VECTOR('',#1194,1.);
#951=VECTOR('',#1197,1.);
#952=VECTOR('',#1208,1.);
#953=VECTOR('',#1209,1.);
#954=VECTOR('',#1220,1.);
#955=VECTOR('',#1221,1.);
#956=VECTOR('',#1224,1.);
#957=VECTOR('',#1225,1.);
#958=VECTOR('',#1236,1.);
#959=VECTOR('',#1237,1.);
#960=VECTOR('',#1238,1.);
#961=VECTOR('',#1241,1.);
#962=VECTOR('',#1242,1.);
#963=VECTOR('',#1243,1.);
#964=VECTOR('',#1246,1.);
#965=VECTOR('',#1247,1.);
#966=VECTOR('',#1248,1.);
#967=VECTOR('',#1255,1.);
#968=VECTOR('',#1264,1.);
#969=VECTOR('',#1265,1.);
#970=VECTOR('',#1276,1.);
#971=VECTOR('',#1277,1.);
#972=VECTOR('',#1280,1.);
#973=VECTOR('',#1281,1.);
#974=VECTOR('',#1282,1.);
#975=VECTOR('',#1285,1.);
#976=VECTOR('',#1286,1.);
#977=VECTOR('',#1293,1.);
#978=VECTOR('',#1296,1.);
#979=VECTOR('',#1299,1.);
#980=VECTOR('',#1302,1.);
#981=VECTOR('',#1313,1.);
#982=VECTOR('',#1314,1.);
#983=VECTOR('',#1315,1.);
#984=VECTOR('',#1318,1.);
#985=VECTOR('',#1319,1.);
#986=VECTOR('',#1322,1.);
#987=VECTOR('',#1323,1.);
#988=VECTOR('',#1324,1.);
#989=VECTOR('',#1327,1.);
#990=VECTOR('',#1328,1.);
#991=VECTOR('',#1329,1.);
#992=VECTOR('',#1344,1.);
#993=AXIS2_PLACEMENT_3D('',#1377,#1090,#1091);
#994=AXIS2_PLACEMENT_3D('',#1386,#1096,#1097);
#995=AXIS2_PLACEMENT_3D('',#1387,#1098,#1099);
#996=AXIS2_PLACEMENT_3D('',#1392,#1101,#1102);
#997=AXIS2_PLACEMENT_3D('',#1395,#1104,#1105);
#998=AXIS2_PLACEMENT_3D('',#1396,#1106,#1107);
#999=AXIS2_PLACEMENT_3D('',#1398,#1108,#1109);
#1000=AXIS2_PLACEMENT_3D('',#1400,#1110,#1111);
#1001=AXIS2_PLACEMENT_3D('',#1404,#1113,#1114);
#1002=AXIS2_PLACEMENT_3D('',#1408,#1116,#1117);
#1003=AXIS2_PLACEMENT_3D('',#1412,#1119,#1120);
#1004=AXIS2_PLACEMENT_3D('',#1418,#1123,#1124);
#1005=AXIS2_PLACEMENT_3D('',#1422,#1126,#1127);
#1006=AXIS2_PLACEMENT_3D('',#1436,#1134,#1135);
#1007=AXIS2_PLACEMENT_3D('',#1444,#1139,#1140);
#1008=AXIS2_PLACEMENT_3D('',#1448,#1142,#1143);
#1009=AXIS2_PLACEMENT_3D('',#1452,#1145,#1146);
#1010=AXIS2_PLACEMENT_3D('',#1456,#1148,#1149);
#1011=AXIS2_PLACEMENT_3D('',#1457,#1150,#1151);
#1012=AXIS2_PLACEMENT_3D('',#1467,#1157,#1158);
#1013=AXIS2_PLACEMENT_3D('',#1473,#1162,#1163);
#1014=AXIS2_PLACEMENT_3D('',#1479,#1167,#1168);
#1015=AXIS2_PLACEMENT_3D('',#1481,#1170,#1171);
#1016=AXIS2_PLACEMENT_3D('',#1491,#1178,#1179);
#1017=AXIS2_PLACEMENT_3D('',#1492,#1180,#1181);
#1018=AXIS2_PLACEMENT_3D('',#1498,#1185,#1186);
#1019=AXIS2_PLACEMENT_3D('',#1504,#1190,#1191);
#1020=AXIS2_PLACEMENT_3D('',#1510,#1195,#1196);
#1021=AXIS2_PLACEMENT_3D('',#1514,#1198,#1199);
#1022=AXIS2_PLACEMENT_3D('',#1515,#1200,#1201);
#1023=AXIS2_PLACEMENT_3D('',#1516,#1202,#1203);
#1024=AXIS2_PLACEMENT_3D('',#1517,#1204,#1205);
#1025=AXIS2_PLACEMENT_3D('',#1518,#1206,#1207);
#1026=AXIS2_PLACEMENT_3D('',#1521,#1210,#1211);
#1027=AXIS2_PLACEMENT_3D('',#1522,#1212,#1213);
#1028=AXIS2_PLACEMENT_3D('',#1523,#1214,#1215);
#1029=AXIS2_PLACEMENT_3D('',#1524,#1216,#1217);
#1030=AXIS2_PLACEMENT_3D('',#1525,#1218,#1219);
#1031=AXIS2_PLACEMENT_3D('',#1529,#1222,#1223);
#1032=AXIS2_PLACEMENT_3D('',#1533,#1226,#1227);
#1033=AXIS2_PLACEMENT_3D('',#1534,#1228,#1229);
#1034=AXIS2_PLACEMENT_3D('',#1536,#1230,#1231);
#1035=AXIS2_PLACEMENT_3D('',#1537,#1232,#1233);
#1036=AXIS2_PLACEMENT_3D('',#1538,#1234,#1235);
#1037=AXIS2_PLACEMENT_3D('',#1544,#1239,#1240);
#1038=AXIS2_PLACEMENT_3D('',#1550,#1244,#1245);
#1039=AXIS2_PLACEMENT_3D('',#1556,#1249,#1250);
#1040=AXIS2_PLACEMENT_3D('',#1557,#1251,#1252);
#1041=AXIS2_PLACEMENT_3D('',#1558,#1253,#1254);
#1042=AXIS2_PLACEMENT_3D('',#1562,#1256,#1257);
#1043=AXIS2_PLACEMENT_3D('',#1563,#1258,#1259);
#1044=AXIS2_PLACEMENT_3D('',#1564,#1260,#1261);
#1045=AXIS2_PLACEMENT_3D('',#1565,#1262,#1263);
#1046=AXIS2_PLACEMENT_3D('',#1568,#1266,#1267);
#1047=AXIS2_PLACEMENT_3D('',#1569,#1268,#1269);
#1048=AXIS2_PLACEMENT_3D('',#1570,#1270,#1271);
#1049=AXIS2_PLACEMENT_3D('',#1571,#1272,#1273);
#1050=AXIS2_PLACEMENT_3D('',#1572,#1274,#1275);
#1051=AXIS2_PLACEMENT_3D('',#1576,#1278,#1279);
#1052=AXIS2_PLACEMENT_3D('',#1582,#1283,#1284);
#1053=AXIS2_PLACEMENT_3D('',#1586,#1287,#1288);
#1054=AXIS2_PLACEMENT_3D('',#1587,#1289,#1290);
#1055=AXIS2_PLACEMENT_3D('',#1589,#1291,#1292);
#1056=AXIS2_PLACEMENT_3D('',#1593,#1294,#1295);
#1057=AXIS2_PLACEMENT_3D('',#1597,#1297,#1298);
#1058=AXIS2_PLACEMENT_3D('',#1601,#1300,#1301);
#1059=AXIS2_PLACEMENT_3D('',#1604,#1303,#1304);
#1060=AXIS2_PLACEMENT_3D('',#1605,#1305,#1306);
#1061=AXIS2_PLACEMENT_3D('',#1606,#1307,#1308);
#1062=AXIS2_PLACEMENT_3D('',#1607,#1309,#1310);
#1063=AXIS2_PLACEMENT_3D('',#1608,#1311,#1312);
#1064=AXIS2_PLACEMENT_3D('',#1614,#1316,#1317);
#1065=AXIS2_PLACEMENT_3D('',#1618,#1320,#1321);
#1066=AXIS2_PLACEMENT_3D('',#1624,#1325,#1326);
#1067=AXIS2_PLACEMENT_3D('',#1630,#1330,#1331);
#1068=AXIS2_PLACEMENT_3D('',#1631,#1332,#1333);
#1069=AXIS2_PLACEMENT_3D('',#1633,#1334,#1335);
#1070=AXIS2_PLACEMENT_3D('',#1634,#1336,#1337);
#1071=AXIS2_PLACEMENT_3D('',#1635,#1338,#1339);
#1072=AXIS2_PLACEMENT_3D('',#1636,#1340,#1341);
#1073=AXIS2_PLACEMENT_3D('',#1637,#1342,#1343);
#1074=AXIS2_PLACEMENT_3D('',#1639,#1345,#1346);
#1075=AXIS2_PLACEMENT_3D('',#1640,#1347,#1348);
#1076=AXIS2_PLACEMENT_3D('',#1641,#1349,#1350);
#1077=AXIS2_PLACEMENT_3D('',#1642,#1351,#1352);
#1078=AXIS2_PLACEMENT_3D('',#1643,#1353,#1354);
#1079=AXIS2_PLACEMENT_3D('',#1645,#1355,#1356);
#1080=AXIS2_PLACEMENT_3D('',#1646,#1357,#1358);
#1081=AXIS2_PLACEMENT_3D('',#1647,#1359,#1360);
#1082=AXIS2_PLACEMENT_3D('',#1649,#1361,#1362);
#1083=AXIS2_PLACEMENT_3D('',#1650,#1363,#1364);
#1084=AXIS2_PLACEMENT_3D('',#1651,#1365,#1366);
#1085=AXIS2_PLACEMENT_3D('',#1653,#1367,#1368);
#1086=AXIS2_PLACEMENT_3D('',#1654,#1369,#1370);
#1087=AXIS2_PLACEMENT_3D('',#1655,#1371,#1372);
#1088=AXIS2_PLACEMENT_3D('',#1657,#1373,#1374);
#1089=AXIS2_PLACEMENT_3D('',#1658,#1375,#1376);
#1090=DIRECTION('',(0.,0.,1.));
#1091=DIRECTION('',(1.,0.,0.));
#1092=DIRECTION('',(1.,0.,0.));
#1093=DIRECTION('',(0.,0.,-1.));
#1094=DIRECTION('',(-1.,0.,0.));
#1095=DIRECTION('',(0.,0.,1.));
#1096=DIRECTION('',(0.,-1.,0.));
#1097=DIRECTION('',(0.,0.,-1.));
#1098=DIRECTION('',(0.,0.,1.));
#1099=DIRECTION('',(-0.999999999999999,0.,0.));
#1100=DIRECTION('',(0.,0.,1.));
#1101=DIRECTION('',(0.,0.,-1.));
#1102=DIRECTION('',(-0.999999999999999,0.,0.));
#1103=DIRECTION('',(0.,0.,1.));
#1104=DIRECTION('',(0.,0.,1.));
#1105=DIRECTION('',(0.999999999999999,0.,0.));
#1106=DIRECTION('',(0.,0.,1.));
#1107=DIRECTION('',(1.,0.,0.));
#1108=DIRECTION('',(0.,0.,1.));
#1109=DIRECTION('',(1.,0.,0.));
#1110=DIRECTION('',(0.,0.,-1.));
#1111=DIRECTION('',(1.,0.,0.));
#1112=DIRECTION('',(0.,-1.,0.));
#1113=DIRECTION('',(0.,0.,-1.));
#1114=DIRECTION('',(1.,0.,0.));
#1115=DIRECTION('',(-1.,0.,0.));
#1116=DIRECTION('',(0.,0.,-1.));
#1117=DIRECTION('',(0.999999999999997,0.,0.));
#1118=DIRECTION('',(0.,1.,0.));
#1119=DIRECTION('',(0.,0.,-1.));
#1120=DIRECTION('',(0.999999999999997,0.,0.));
#1121=DIRECTION('',(1.,0.,0.));
#1122=DIRECTION('',(1.,0.,0.));
#1123=DIRECTION('',(0.,0.,-1.));
#1124=DIRECTION('',(1.,0.,0.));
#1125=DIRECTION('',(0.,-1.,0.));
#1126=DIRECTION('',(0.,0.,-1.));
#1127=DIRECTION('',(1.,0.,0.));
#1128=DIRECTION('',(-1.,0.,0.));
#1129=DIRECTION('',(0.,-1.,0.));
#1130=DIRECTION('',(-1.,0.,0.));
#1131=DIRECTION('',(0.,1.,0.));
#1132=DIRECTION('',(-1.,0.,0.));
#1133=DIRECTION('',(0.,-1.,0.));
#1134=DIRECTION('',(0.,0.,-1.));
#1135=DIRECTION('',(0.999999999999999,0.,0.));
#1136=DIRECTION('',(-1.,0.,0.));
#1137=DIRECTION('',(0.,-1.,0.));
#1138=DIRECTION('',(1.,0.,0.));
#1139=DIRECTION('',(0.,0.,-1.));
#1140=DIRECTION('',(1.,0.,0.));
#1141=DIRECTION('',(0.,-1.,0.));
#1142=DIRECTION('',(0.,0.,-1.));
#1143=DIRECTION('',(1.,0.,0.));
#1144=DIRECTION('',(-1.,0.,0.));
#1145=DIRECTION('',(0.,0.,-1.));
#1146=DIRECTION('',(0.999999999999998,0.,0.));
#1147=DIRECTION('',(0.,1.,0.));
#1148=DIRECTION('',(0.,0.,-1.));
#1149=DIRECTION('',(0.999999999999998,0.,0.));
#1150=DIRECTION('',(0.,0.,1.));
#1151=DIRECTION('',(1.,0.,0.));
#1152=DIRECTION('',(0.,0.,1.));
#1153=DIRECTION('',(0.,0.,1.));
#1154=DIRECTION('',(1.,0.,0.));
#1155=DIRECTION('',(0.,0.,1.));
#1156=DIRECTION('',(1.,0.,0.));
#1157=DIRECTION('',(0.,-1.,0.));
#1158=DIRECTION('',(0.,0.,-1.));
#1159=DIRECTION('',(0.,0.70710678118655,-0.707106781186546));
#1160=DIRECTION('',(0.,0.,1.));
#1161=DIRECTION('',(0.,-1.,0.));
#1162=DIRECTION('',(-1.,0.,0.));
#1163=DIRECTION('',(0.,0.,1.));
#1164=DIRECTION('',(1.,0.,0.));
#1165=DIRECTION('',(0.,0.,1.));
#1166=DIRECTION('',(-1.,0.,0.));
#1167=DIRECTION('',(0.,1.,0.));
#1168=DIRECTION('',(0.,0.,1.));
#1169=DIRECTION('',(0.,1.,0.));
#1170=DIRECTION('',(0.,0.,-1.));
#1171=DIRECTION('',(-1.,0.,0.));
#1172=DIRECTION('',(0.,0.,1.));
#1173=DIRECTION('',(0.,0.,1.));
#1174=DIRECTION('',(0.,1.,0.));
#1175=DIRECTION('',(0.,-0.70710678118655,0.707106781186546));
#1176=DIRECTION('',(0.,0.,1.));
#1177=DIRECTION('',(0.,1.,0.));
#1178=DIRECTION('',(1.,0.,0.));
#1179=DIRECTION('',(0.,0.,-1.));
#1180=DIRECTION('',(0.,-0.707106781186546,-0.70710678118655));
#1181=DIRECTION('',(1.,0.,0.));
#1182=DIRECTION('',(0.,0.,-1.));
#1183=DIRECTION('',(-1.,0.,0.));
#1184=DIRECTION('',(0.,0.,1.));
#1185=DIRECTION('',(0.,-1.,0.));
#1186=DIRECTION('',(0.,0.,-1.));
#1187=DIRECTION('',(0.,1.,0.));
#1188=DIRECTION('',(0.,0.,1.));
#1189=DIRECTION('',(0.,0.,-1.));
#1190=DIRECTION('',(-1.,0.,0.));
#1191=DIRECTION('',(0.,0.,1.));
#1192=DIRECTION('',(1.,0.,0.));
#1193=DIRECTION('',(0.,0.,1.));
#1194=DIRECTION('',(0.,0.,-1.));
#1195=DIRECTION('',(0.,1.,0.));
#1196=DIRECTION('',(0.,0.,1.));
#1197=DIRECTION('',(0.,-1.,0.));
#1198=DIRECTION('',(0.,0.,1.));
#1199=DIRECTION('',(-0.999999999999998,0.,0.));
#1200=DIRECTION('',(0.,0.,1.));
#1201=DIRECTION('',(-1.,0.,0.));
#1202=DIRECTION('',(0.,0.,1.));
#1203=DIRECTION('',(-1.,0.,0.));
#1204=DIRECTION('',(0.,0.,1.));
#1205=DIRECTION('',(-0.999999999999998,0.,0.));
#1206=DIRECTION('',(0.,0.,-1.));
#1207=DIRECTION('',(-1.,0.,0.));
#1208=DIRECTION('',(0.,0.,-1.));
#1209=DIRECTION('',(0.,0.,1.));
#1210=DIRECTION('',(1.,0.,0.));
#1211=DIRECTION('',(0.,0.,-1.));
#1212=DIRECTION('',(0.,0.,1.));
#1213=DIRECTION('',(0.999999999999998,0.,0.));
#1214=DIRECTION('',(0.,0.,1.));
#1215=DIRECTION('',(0.999999999999998,0.,0.));
#1216=DIRECTION('',(0.,0.,1.));
#1217=DIRECTION('',(1.,0.,0.));
#1218=DIRECTION('',(0.,0.,1.));
#1219=DIRECTION('',(1.,0.,0.));
#1220=DIRECTION('',(0.,1.,0.));
#1221=DIRECTION('',(0.,0.,1.));
#1222=DIRECTION('',(-1.,0.,0.));
#1223=DIRECTION('',(0.,0.,1.));
#1224=DIRECTION('',(0.,0.,-1.));
#1225=DIRECTION('',(1.,0.,0.));
#1226=DIRECTION('',(0.,1.,0.));
#1227=DIRECTION('',(0.,0.,1.));
#1228=DIRECTION('',(0.,0.,-1.));
#1229=DIRECTION('',(-1.,0.,0.));
#1230=DIRECTION('',(0.,0.,1.));
#1231=DIRECTION('',(-0.999999999999999,0.,0.));
#1232=DIRECTION('',(0.,0.,-1.));
#1233=DIRECTION('',(-1.,0.,0.));
#1234=DIRECTION('',(0.,0.,1.));
#1235=DIRECTION('',(0.999999999999999,0.,0.));
#1236=DIRECTION('',(-1.,0.,0.));
#1237=DIRECTION('',(0.,0.,1.));
#1238=DIRECTION('',(0.,0.,-1.));
#1239=DIRECTION('',(0.,-1.,0.));
#1240=DIRECTION('',(0.,0.,-1.));
#1241=DIRECTION('',(0.,0.,-1.));
#1242=DIRECTION('',(0.,1.,0.));
#1243=DIRECTION('',(0.,0.,1.));
#1244=DIRECTION('',(-1.,0.,0.));
#1245=DIRECTION('',(0.,0.,1.));
#1246=DIRECTION('',(1.,0.,0.));
#1247=DIRECTION('',(0.,0.,1.));
#1248=DIRECTION('',(0.,0.,-1.));
#1249=DIRECTION('',(0.,1.,0.));
#1250=DIRECTION('',(0.,0.,1.));
#1251=DIRECTION('',(0.,0.,-1.));
#1252=DIRECTION('',(-1.,0.,0.));
#1253=DIRECTION('',(0.,0.,1.));
#1254=DIRECTION('',(-0.999999999999997,0.,0.));
#1255=DIRECTION('',(0.,-1.,0.));
#1256=DIRECTION('',(0.,0.,1.));
#1257=DIRECTION('',(-0.999999999999997,0.,0.));
#1258=DIRECTION('',(0.,0.,1.));
#1259=DIRECTION('',(-1.,0.,0.));
#1260=DIRECTION('',(0.,0.,1.));
#1261=DIRECTION('',(-1.,0.,0.));
#1262=DIRECTION('',(0.,0.,-1.));
#1263=DIRECTION('',(-1.,0.,0.));
#1264=DIRECTION('',(0.,0.,-1.));
#1265=DIRECTION('',(0.,0.,1.));
#1266=DIRECTION('',(1.,0.,0.));
#1267=DIRECTION('',(0.,0.,-1.));
#1268=DIRECTION('',(0.,0.,1.));
#1269=DIRECTION('',(0.999999999999997,0.,0.));
#1270=DIRECTION('',(0.,0.,1.));
#1271=DIRECTION('',(1.,0.,0.));
#1272=DIRECTION('',(0.,0.,1.));
#1273=DIRECTION('',(1.,0.,0.));
#1274=DIRECTION('',(0.,0.,1.));
#1275=DIRECTION('',(0.999999999999997,0.,0.));
#1276=DIRECTION('',(-1.,0.,0.));
#1277=DIRECTION('',(0.,0.,1.));
#1278=DIRECTION('',(0.,-1.,0.));
#1279=DIRECTION('',(0.,0.,-1.));
#1280=DIRECTION('',(0.,0.,-1.));
#1281=DIRECTION('',(0.,1.,0.));
#1282=DIRECTION('',(0.,0.,1.));
#1283=DIRECTION('',(-1.,0.,0.));
#1284=DIRECTION('',(0.,0.,1.));
#1285=DIRECTION('',(0.,0.,-1.));
#1286=DIRECTION('',(1.,0.,0.));
#1287=DIRECTION('',(0.,1.,0.));
#1288=DIRECTION('',(0.,0.,1.));
#1289=DIRECTION('',(0.,0.,-1.));
#1290=DIRECTION('',(-0.999999999999998,0.,0.));
#1291=DIRECTION('',(0.,0.,-1.));
#1292=DIRECTION('',(-0.999999999999999,0.,0.));
#1293=DIRECTION('',(1.,0.,0.));
#1294=DIRECTION('',(0.,0.,-1.));
#1295=DIRECTION('',(-0.999999999999999,0.,0.));
#1296=DIRECTION('',(0.,-1.,0.));
#1297=DIRECTION('',(0.,0.,-1.));
#1298=DIRECTION('',(-0.999999999999999,0.,0.));
#1299=DIRECTION('',(-1.,0.,0.));
#1300=DIRECTION('',(0.,0.,-1.));
#1301=DIRECTION('',(-0.999999999999999,0.,0.));
#1302=DIRECTION('',(0.,1.,0.));
#1303=DIRECTION('',(0.,0.,1.));
#1304=DIRECTION('',(-1.,0.,0.));
#1305=DIRECTION('',(0.,0.,1.));
#1306=DIRECTION('',(-1.,0.,0.));
#1307=DIRECTION('',(0.,0.,-1.));
#1308=DIRECTION('',(-1.,0.,0.));
#1309=DIRECTION('',(0.,0.,1.));
#1310=DIRECTION('',(1.,0.,0.));
#1311=DIRECTION('',(0.,0.,1.));
#1312=DIRECTION('',(1.,0.,0.));
#1313=DIRECTION('',(0.,0.,-1.));
#1314=DIRECTION('',(-1.,0.,0.));
#1315=DIRECTION('',(0.,0.,1.));
#1316=DIRECTION('',(0.,-1.,0.));
#1317=DIRECTION('',(0.,0.,-1.));
#1318=DIRECTION('',(0.,1.,0.));
#1319=DIRECTION('',(0.,0.,-1.));
#1320=DIRECTION('',(-1.,0.,0.));
#1321=DIRECTION('',(0.,0.,1.));
#1322=DIRECTION('',(0.,0.,-1.));
#1323=DIRECTION('',(1.,0.,0.));
#1324=DIRECTION('',(0.,0.,1.));
#1325=DIRECTION('',(0.,1.,0.));
#1326=DIRECTION('',(0.,0.,1.));
#1327=DIRECTION('',(0.,-1.,0.));
#1328=DIRECTION('',(0.,0.,1.));
#1329=DIRECTION('',(0.,0.,-1.));
#1330=DIRECTION('',(1.,0.,0.));
#1331=DIRECTION('',(0.,0.,-1.));
#1332=DIRECTION('',(0.,0.,1.));
#1333=DIRECTION('',(-0.999999999999999,0.,0.));
#1334=DIRECTION('',(0.,0.,-1.));
#1335=DIRECTION('',(-0.999999999999998,0.,0.));
#1336=DIRECTION('',(0.,0.,1.));
#1337=DIRECTION('',(-0.999999999999999,0.,0.));
#1338=DIRECTION('',(0.,0.,1.));
#1339=DIRECTION('',(-0.999999999999999,0.,0.));
#1340=DIRECTION('',(0.,0.,1.));
#1341=DIRECTION('',(-0.999999999999999,0.,0.));
#1342=DIRECTION('',(0.,0.,-1.));
#1343=DIRECTION('',(-1.,0.,0.));
#1344=DIRECTION('',(0.,0.,-1.));
#1345=DIRECTION('',(0.,0.,1.));
#1346=DIRECTION('',(0.999999999999999,0.,0.));
#1347=DIRECTION('',(0.,0.,1.));
#1348=DIRECTION('',(0.999999999999999,0.,0.));
#1349=DIRECTION('',(0.,0.,1.));
#1350=DIRECTION('',(0.999999999999999,0.,0.));
#1351=DIRECTION('',(0.,0.,1.));
#1352=DIRECTION('',(0.999999999999999,0.,0.));
#1353=DIRECTION('',(0.,0.,-1.));
#1354=DIRECTION('',(0.999999999999998,0.,0.));
#1355=DIRECTION('',(0.,0.,-1.));
#1356=DIRECTION('',(0.999999999999998,0.,0.));
#1357=DIRECTION('',(0.,0.,-1.));
#1358=DIRECTION('',(-1.,0.,0.));
#1359=DIRECTION('',(0.,0.,-1.));
#1360=DIRECTION('',(1.,0.,0.));
#1361=DIRECTION('',(0.,0.,-1.));
#1362=DIRECTION('',(1.,0.,0.));
#1363=DIRECTION('',(0.,0.,-1.));
#1364=DIRECTION('',(-1.,0.,0.));
#1365=DIRECTION('',(0.,0.,-1.));
#1366=DIRECTION('',(1.,0.,0.));
#1367=DIRECTION('',(0.,0.,-1.));
#1368=DIRECTION('',(-1.,0.,0.));
#1369=DIRECTION('',(0.,0.,-1.));
#1370=DIRECTION('',(1.,0.,0.));
#1371=DIRECTION('',(0.,0.,-1.));
#1372=DIRECTION('',(1.,0.,0.));
#1373=DIRECTION('',(0.,0.,-1.));
#1374=DIRECTION('',(-1.,0.,0.));
#1375=DIRECTION('',(0.,0.,-1.));
#1376=DIRECTION('',(1.,0.,0.));
#1377=CARTESIAN_POINT('',(0.,0.,0.));
#1378=CARTESIAN_POINT('',(196.25,124.4,96.7));
#1379=CARTESIAN_POINT('',(47.8,124.4,96.7));
#1380=CARTESIAN_POINT('',(155.816681159431,124.4,96.7));
#1381=CARTESIAN_POINT('',(155.816681159431,124.4,96.75));
#1382=CARTESIAN_POINT('',(155.816681159431,124.4,72.3));
#1383=CARTESIAN_POINT('',(114.25,124.4,72.3));
#1384=CARTESIAN_POINT('',(47.8,124.4,72.3));
#1385=CARTESIAN_POINT('',(47.8,124.4,96.7));
#1386=CARTESIAN_POINT('',(114.25,124.4,72.3));
#1387=CARTESIAN_POINT('',(321.,320.8,58.8));
#1388=CARTESIAN_POINT('',(310.294930197748,331.019661468411,58.8));
#1389=CARTESIAN_POINT('',(306.2,320.8,58.8));
#1390=CARTESIAN_POINT('',(310.294930197748,331.019661468411,67.075));
#1391=CARTESIAN_POINT('',(310.294930197748,331.019661468411,68.9));
#1392=CARTESIAN_POINT('',(321.,320.8,68.9));
#1393=CARTESIAN_POINT('',(306.2,320.8,68.9));
#1394=CARTESIAN_POINT('',(306.2,320.8,68.9));
#1395=CARTESIAN_POINT('',(321.,320.8,58.8));
#1396=CARTESIAN_POINT('',(215.3,370.7,96.7));
#1397=CARTESIAN_POINT('',(222.05,370.7,96.7));
#1398=CARTESIAN_POINT('',(165.4,122.9,96.7));
#1399=CARTESIAN_POINT('',(174.983318840569,124.4,96.7));
#1400=CARTESIAN_POINT('',(47.8,128.3,96.7));
#1401=CARTESIAN_POINT('',(43.9,128.3,96.7));
#1402=CARTESIAN_POINT('',(43.9,200.45,96.7));
#1403=CARTESIAN_POINT('',(43.9,284.1,96.7));
#1404=CARTESIAN_POINT('',(47.8,284.1,96.7));
#1405=CARTESIAN_POINT('',(47.8,288.,96.7));
#1406=CARTESIAN_POINT('',(196.25,288.,96.7));
#1407=CARTESIAN_POINT('',(180.7,288.,96.7));
#1408=CARTESIAN_POINT('',(180.7,284.1,96.7));
#1409=CARTESIAN_POINT('',(184.6,284.1,96.7));
#1410=CARTESIAN_POINT('',(184.6,200.45,96.7));
#1411=CARTESIAN_POINT('',(184.6,128.3,96.7));
#1412=CARTESIAN_POINT('',(180.7,128.3,96.7));
#1413=CARTESIAN_POINT('',(180.7,124.4,96.7));
#1414=CARTESIAN_POINT('',(196.25,124.4,96.7));
#1415=CARTESIAN_POINT('',(196.25,241.5,96.7));
#1416=CARTESIAN_POINT('',(288.8,241.5,96.7));
#1417=CARTESIAN_POINT('',(392.5,241.5,96.7));
#1418=CARTESIAN_POINT('',(288.8,249.,96.7));
#1419=CARTESIAN_POINT('',(281.3,249.,96.7));
#1420=CARTESIAN_POINT('',(281.3,200.45,96.7));
#1421=CARTESIAN_POINT('',(281.3,387.8,96.7));
#1422=CARTESIAN_POINT('',(288.8,387.8,96.7));
#1423=CARTESIAN_POINT('',(288.8,395.3,96.7));
#1424=CARTESIAN_POINT('',(196.25,395.3,96.7));
#1425=CARTESIAN_POINT('',(392.5,395.3,96.7));
#1426=CARTESIAN_POINT('',(392.5,200.45,96.7));
#1427=CARTESIAN_POINT('',(392.5,398.5,96.7));
#1428=CARTESIAN_POINT('',(196.25,398.5,96.7));
#1429=CARTESIAN_POINT('',(0.,398.5,96.7));
#1430=CARTESIAN_POINT('',(0.,200.45,96.7));
#1431=CARTESIAN_POINT('',(0.,0.,96.7));
#1432=CARTESIAN_POINT('',(196.25,0.,96.7));
#1433=CARTESIAN_POINT('',(292.1,0.,96.7));
#1434=CARTESIAN_POINT('',(292.1,200.45,96.7));
#1435=CARTESIAN_POINT('',(292.1,91.8,96.7));
#1436=CARTESIAN_POINT('',(303.8,91.8,96.7));
#1437=CARTESIAN_POINT('',(303.8,103.5,96.7));
#1438=CARTESIAN_POINT('',(196.25,103.5,96.7));
#1439=CARTESIAN_POINT('',(392.5,103.5,96.7));
#1440=CARTESIAN_POINT('',(392.5,200.45,96.7));
#1441=CARTESIAN_POINT('',(196.25,105.5,96.7));
#1442=CARTESIAN_POINT('',(214.2,105.5,96.7));
#1443=CARTESIAN_POINT('',(320.2,105.5,96.7));
#1444=CARTESIAN_POINT('',(214.2,115.8,96.7));
#1445=CARTESIAN_POINT('',(203.9,115.8,96.7));
#1446=CARTESIAN_POINT('',(203.9,200.45,96.7));
#1447=CARTESIAN_POINT('',(203.9,212.3,96.7));
#1448=CARTESIAN_POINT('',(214.2,212.3,96.7));
#1449=CARTESIAN_POINT('',(214.2,222.6,96.7));
#1450=CARTESIAN_POINT('',(196.25,222.6,96.7));
#1451=CARTESIAN_POINT('',(320.2,222.6,96.7));
#1452=CARTESIAN_POINT('',(320.2,212.3,96.7));
#1453=CARTESIAN_POINT('',(330.5,212.3,96.7));
#1454=CARTESIAN_POINT('',(330.5,200.45,96.7));
#1455=CARTESIAN_POINT('',(330.5,115.8,96.7));
#1456=CARTESIAN_POINT('',(320.2,115.8,96.7));
#1457=CARTESIAN_POINT('',(196.25,200.45,96.7));
#1458=CARTESIAN_POINT('',(292.1,0.,58.8));
#1459=CARTESIAN_POINT('',(292.1,0.,58.8));
#1460=CARTESIAN_POINT('',(0.,0.,0.));
#1461=CARTESIAN_POINT('',(0.,0.,0.));
#1462=CARTESIAN_POINT('',(196.25,0.,0.));
#1463=CARTESIAN_POINT('',(392.5,0.,0.));
#1464=CARTESIAN_POINT('',(392.5,0.,0.));
#1465=CARTESIAN_POINT('',(392.5,0.,58.8));
#1466=CARTESIAN_POINT('',(342.3,0.,58.8));
#1467=CARTESIAN_POINT('',(196.25,0.,0.));
#1468=CARTESIAN_POINT('',(0.,347.824999999999,147.375));
#1469=CARTESIAN_POINT('',(0.,400.9,94.3));
#1470=CARTESIAN_POINT('',(0.,400.9,0.));
#1471=CARTESIAN_POINT('',(0.,400.9,0.));
#1472=CARTESIAN_POINT('',(0.,200.45,0.));
#1473=CARTESIAN_POINT('',(0.,200.45,0.));
#1474=CARTESIAN_POINT('',(196.25,400.9,94.3));
#1475=CARTESIAN_POINT('',(392.5,400.9,94.3));
#1476=CARTESIAN_POINT('',(392.5,400.9,0.));
#1477=CARTESIAN_POINT('',(392.5,400.9,0.));
#1478=CARTESIAN_POINT('',(196.25,400.9,0.));
#1479=CARTESIAN_POINT('',(196.25,400.9,0.));
#1480=CARTESIAN_POINT('',(392.5,200.45,0.));
#1481=CARTESIAN_POINT('',(196.25,200.45,0.));
#1482=CARTESIAN_POINT('',(392.5,241.5,68.9));
#1483=CARTESIAN_POINT('',(392.5,241.5,68.9));
#1484=CARTESIAN_POINT('',(392.5,103.5,58.8));
#1485=CARTESIAN_POINT('',(392.5,103.5,58.8));
#1486=CARTESIAN_POINT('',(392.5,51.75,58.8));
#1487=CARTESIAN_POINT('',(392.5,347.824999999999,147.375));
#1488=CARTESIAN_POINT('',(392.5,395.3,68.9));
#1489=CARTESIAN_POINT('',(392.5,395.3,68.9));
#1490=CARTESIAN_POINT('',(392.5,318.4,68.9));
#1491=CARTESIAN_POINT('',(392.5,200.45,0.));
#1492=CARTESIAN_POINT('',(196.25,400.9,94.3));
#1493=CARTESIAN_POINT('',(320.2,105.5,58.8));
#1494=CARTESIAN_POINT('',(320.2,105.5,58.8));
#1495=CARTESIAN_POINT('',(267.2,105.5,58.8));
#1496=CARTESIAN_POINT('',(214.2,105.5,58.8));
#1497=CARTESIAN_POINT('',(214.2,105.5,96.7));
#1498=CARTESIAN_POINT('',(267.2,105.5,58.8));
#1499=CARTESIAN_POINT('',(203.9,164.05,58.8));
#1500=CARTESIAN_POINT('',(203.9,115.8,58.8));
#1501=CARTESIAN_POINT('',(203.9,212.3,58.8));
#1502=CARTESIAN_POINT('',(203.9,212.3,96.7));
#1503=CARTESIAN_POINT('',(203.9,115.8,58.8));
#1504=CARTESIAN_POINT('',(203.9,164.05,58.8));
#1505=CARTESIAN_POINT('',(267.2,222.6,58.8));
#1506=CARTESIAN_POINT('',(214.2,222.6,58.8));
#1507=CARTESIAN_POINT('',(320.2,222.6,58.8));
#1508=CARTESIAN_POINT('',(320.2,222.6,96.7));
#1509=CARTESIAN_POINT('',(214.2,222.6,58.8));
#1510=CARTESIAN_POINT('',(267.2,222.6,58.8));
#1511=CARTESIAN_POINT('',(330.5,164.05,58.8));
#1512=CARTESIAN_POINT('',(330.5,212.3,58.8));
#1513=CARTESIAN_POINT('',(330.5,115.8,58.8));
#1514=CARTESIAN_POINT('',(320.2,212.3,58.8));
#1515=CARTESIAN_POINT('',(214.2,212.3,58.8));
#1516=CARTESIAN_POINT('',(214.2,115.8,58.8));
#1517=CARTESIAN_POINT('',(320.2,115.8,58.8));
#1518=CARTESIAN_POINT('',(267.2,164.05,58.8));
#1519=CARTESIAN_POINT('',(330.5,212.3,58.8));
#1520=CARTESIAN_POINT('',(330.5,115.8,96.7));
#1521=CARTESIAN_POINT('',(330.5,164.05,58.8));
#1522=CARTESIAN_POINT('',(320.2,212.3,58.8));
#1523=CARTESIAN_POINT('',(320.2,115.8,58.8));
#1524=CARTESIAN_POINT('',(214.2,212.3,58.8));
#1525=CARTESIAN_POINT('',(214.2,115.8,58.8));
#1526=CARTESIAN_POINT('',(292.1,51.75,58.8));
#1527=CARTESIAN_POINT('',(292.1,91.8,58.8));
#1528=CARTESIAN_POINT('',(292.1,91.8,96.7));
#1529=CARTESIAN_POINT('',(292.1,51.75,58.8));
#1530=CARTESIAN_POINT('',(303.8,103.5,58.8));
#1531=CARTESIAN_POINT('',(303.8,103.5,58.8));
#1532=CARTESIAN_POINT('',(342.3,103.5,58.8));
#1533=CARTESIAN_POINT('',(342.3,103.5,58.8));
#1534=CARTESIAN_POINT('',(326.8,68.8,58.8));
#1535=CARTESIAN_POINT('',(323.8,68.8,58.8));
#1536=CARTESIAN_POINT('',(303.8,91.8,58.8));
#1537=CARTESIAN_POINT('',(342.3,51.75,58.8));
#1538=CARTESIAN_POINT('',(303.8,91.8,58.8));
#1539=CARTESIAN_POINT('',(114.25,124.4,72.3));
#1540=CARTESIAN_POINT('',(180.7,124.4,72.3));
#1541=CARTESIAN_POINT('',(174.983318840569,124.4,72.3));
#1542=CARTESIAN_POINT('',(174.983318840569,124.4,96.75));
#1543=CARTESIAN_POINT('',(180.7,124.4,72.3));
#1544=CARTESIAN_POINT('',(114.25,124.4,72.3));
#1545=CARTESIAN_POINT('',(43.9,128.3,72.3));
#1546=CARTESIAN_POINT('',(43.9,128.3,72.3));
#1547=CARTESIAN_POINT('',(43.9,206.2,72.3));
#1548=CARTESIAN_POINT('',(43.9,284.1,72.3));
#1549=CARTESIAN_POINT('',(43.9,284.1,96.7));
#1550=CARTESIAN_POINT('',(43.9,206.2,72.3));
#1551=CARTESIAN_POINT('',(114.25,288.,72.3));
#1552=CARTESIAN_POINT('',(47.8,288.,72.3));
#1553=CARTESIAN_POINT('',(180.7,288.,72.3));
#1554=CARTESIAN_POINT('',(180.7,288.,96.7));
#1555=CARTESIAN_POINT('',(47.8,288.,72.3));
#1556=CARTESIAN_POINT('',(114.25,288.,72.3));
#1557=CARTESIAN_POINT('',(165.4,122.9,72.3));
#1558=CARTESIAN_POINT('',(180.7,128.3,72.3));
#1559=CARTESIAN_POINT('',(184.6,128.3,72.3));
#1560=CARTESIAN_POINT('',(184.6,206.2,72.3));
#1561=CARTESIAN_POINT('',(184.6,284.1,72.3));
#1562=CARTESIAN_POINT('',(180.7,284.1,72.3));
#1563=CARTESIAN_POINT('',(47.8,284.1,72.3));
#1564=CARTESIAN_POINT('',(47.8,128.3,72.3));
#1565=CARTESIAN_POINT('',(114.25,206.2,72.3));
#1566=CARTESIAN_POINT('',(184.6,284.1,72.3));
#1567=CARTESIAN_POINT('',(184.6,128.3,96.7));
#1568=CARTESIAN_POINT('',(184.6,206.2,72.3));
#1569=CARTESIAN_POINT('',(180.7,284.1,72.3));
#1570=CARTESIAN_POINT('',(47.8,128.3,72.3));
#1571=CARTESIAN_POINT('',(47.8,284.1,72.3));
#1572=CARTESIAN_POINT('',(180.7,128.3,72.3));
#1573=CARTESIAN_POINT('',(336.9,241.5,68.9));
#1574=CARTESIAN_POINT('',(288.8,241.5,68.9));
#1575=CARTESIAN_POINT('',(288.8,241.5,96.7));
#1576=CARTESIAN_POINT('',(336.9,241.5,68.9));
#1577=CARTESIAN_POINT('',(281.3,249.,68.9));
#1578=CARTESIAN_POINT('',(281.3,249.,68.9));
#1579=CARTESIAN_POINT('',(281.3,318.4,68.9));
#1580=CARTESIAN_POINT('',(281.3,387.8,68.9));
#1581=CARTESIAN_POINT('',(281.3,387.8,96.7));
#1582=CARTESIAN_POINT('',(281.3,318.4,68.9));
#1583=CARTESIAN_POINT('',(288.8,395.3,68.9));
#1584=CARTESIAN_POINT('',(288.8,395.3,68.9));
#1585=CARTESIAN_POINT('',(336.9,395.3,68.9));
#1586=CARTESIAN_POINT('',(336.9,395.3,68.9));
#1587=CARTESIAN_POINT('',(316.3,326.2,68.9));
#1588=CARTESIAN_POINT('',(312.354825899812,332.812533653541,68.9));
#1589=CARTESIAN_POINT('',(321.,320.8,68.9));
#1590=CARTESIAN_POINT('',(321.,335.6,68.9));
#1591=CARTESIAN_POINT('',(336.9,335.6,68.9));
#1592=CARTESIAN_POINT('',(352.8,335.6,68.9));
#1593=CARTESIAN_POINT('',(352.8,320.8,68.9));
#1594=CARTESIAN_POINT('',(367.6,320.8,68.9));
#1595=CARTESIAN_POINT('',(367.6,318.4,68.9));
#1596=CARTESIAN_POINT('',(367.6,280.1,68.9));
#1597=CARTESIAN_POINT('',(352.8,280.1,68.9));
#1598=CARTESIAN_POINT('',(352.8,265.3,68.9));
#1599=CARTESIAN_POINT('',(336.9,265.3,68.9));
#1600=CARTESIAN_POINT('',(321.,265.3,68.9));
#1601=CARTESIAN_POINT('',(321.,280.1,68.9));
#1602=CARTESIAN_POINT('',(306.2,280.1,68.9));
#1603=CARTESIAN_POINT('',(306.2,318.4,68.9));
#1604=CARTESIAN_POINT('',(288.8,249.,68.9));
#1605=CARTESIAN_POINT('',(288.8,387.8,68.9));
#1606=CARTESIAN_POINT('',(336.9,318.4,68.9));
#1607=CARTESIAN_POINT('',(288.8,249.,68.9));
#1608=CARTESIAN_POINT('',(288.8,387.8,68.9));
#1609=CARTESIAN_POINT('',(352.8,265.3,58.8));
#1610=CARTESIAN_POINT('',(352.8,265.3,58.8));
#1611=CARTESIAN_POINT('',(336.9,265.3,58.8));
#1612=CARTESIAN_POINT('',(321.,265.3,58.8));
#1613=CARTESIAN_POINT('',(321.,265.3,68.9));
#1614=CARTESIAN_POINT('',(336.9,265.3,58.8));
#1615=CARTESIAN_POINT('',(306.2,300.45,58.8));
#1616=CARTESIAN_POINT('',(306.2,280.1,58.8));
#1617=CARTESIAN_POINT('',(306.2,280.1,58.8));
#1618=CARTESIAN_POINT('',(306.2,300.45,58.8));
#1619=CARTESIAN_POINT('',(321.,335.6,58.8));
#1620=CARTESIAN_POINT('',(321.,335.6,58.8));
#1621=CARTESIAN_POINT('',(336.9,335.6,58.8));
#1622=CARTESIAN_POINT('',(352.8,335.6,58.8));
#1623=CARTESIAN_POINT('',(352.8,335.6,68.9));
#1624=CARTESIAN_POINT('',(336.9,335.6,58.8));
#1625=CARTESIAN_POINT('',(367.6,300.45,58.8));
#1626=CARTESIAN_POINT('',(367.6,320.8,58.8));
#1627=CARTESIAN_POINT('',(367.6,280.1,58.8));
#1628=CARTESIAN_POINT('',(367.6,280.1,68.9));
#1629=CARTESIAN_POINT('',(367.6,320.8,58.8));
#1630=CARTESIAN_POINT('',(367.6,300.45,58.8));
#1631=CARTESIAN_POINT('',(321.,320.8,58.8));
#1632=CARTESIAN_POINT('',(312.354825899812,332.812533653541,58.8));
#1633=CARTESIAN_POINT('',(316.3,326.2,58.8));
#1634=CARTESIAN_POINT('',(321.,280.1,58.8));
#1635=CARTESIAN_POINT('',(352.8,280.1,58.8));
#1636=CARTESIAN_POINT('',(352.8,320.8,58.8));
#1637=CARTESIAN_POINT('',(336.9,300.45,58.8));
#1638=CARTESIAN_POINT('',(312.354825899812,332.812533653541,67.075));
#1639=CARTESIAN_POINT('',(321.,320.8,58.8));
#1640=CARTESIAN_POINT('',(352.8,280.1,58.8));
#1641=CARTESIAN_POINT('',(352.8,320.8,58.8));
#1642=CARTESIAN_POINT('',(321.,280.1,58.8));
#1643=CARTESIAN_POINT('',(316.3,326.2,37.4));
#1644=CARTESIAN_POINT('',(324.,326.2,37.4));
#1645=CARTESIAN_POINT('',(316.3,326.2,96.75));
#1646=CARTESIAN_POINT('',(316.3,326.2,37.4));
#1647=CARTESIAN_POINT('',(326.8,68.8,57.8));
#1648=CARTESIAN_POINT('',(329.8,68.8,57.8));
#1649=CARTESIAN_POINT('',(326.8,68.8,96.75));
#1650=CARTESIAN_POINT('',(326.8,68.8,57.8));
#1651=CARTESIAN_POINT('',(165.4,122.9,66.));
#1652=CARTESIAN_POINT('',(175.1,122.9,66.));
#1653=CARTESIAN_POINT('',(165.4,122.9,66.));
#1654=CARTESIAN_POINT('',(165.4,122.9,96.75));
#1655=CARTESIAN_POINT('',(215.3,370.7,73.3));
#1656=CARTESIAN_POINT('',(222.05,370.7,73.3));
#1657=CARTESIAN_POINT('',(215.3,370.7,73.3));
#1658=CARTESIAN_POINT('',(215.3,370.7,96.75));
#1659=MECHANICAL_DESIGN_GEOMETRIC_PRESENTATION_REPRESENTATION('',(#24),
#1660);
#1660=(
GEOMETRIC_REPRESENTATION_CONTEXT(3)
GLOBAL_UNCERTAINTY_ASSIGNED_CONTEXT((#1661))
GLOBAL_UNIT_ASSIGNED_CONTEXT((#1667,#1663,#1662))
REPRESENTATION_CONTEXT('featured_part_01477','TOP_LEVEL_ASSEMBLY_PART')
);
#1661=UNCERTAINTY_MEASURE_WITH_UNIT(LENGTH_MEASURE(2.E-5),#1667,
'DISTANCE_ACCURACY_VALUE','Maximum Tolerance applied to model');
#1662=(
NAMED_UNIT(*)
SI_UNIT($,.STERADIAN.)
SOLID_ANGLE_UNIT()
);
#1663=(
CONVERSION_BASED_UNIT('DEGREE',#1665)
NAMED_UNIT(#1664)
PLANE_ANGLE_UNIT()
);
#1664=DIMENSIONAL_EXPONENTS(0.,0.,0.,0.,0.,0.,0.);
#1665=PLANE_ANGLE_MEASURE_WITH_UNIT(PLANE_ANGLE_MEASURE(0.0174532925),#1666);
#1666=(
NAMED_UNIT(*)
PLANE_ANGLE_UNIT()
SI_UNIT($,.RADIAN.)
);
#1667=(
LENGTH_UNIT()
NAMED_UNIT(*)
SI_UNIT(.MILLI.,.METRE.)
);
ENDSEC;
END-ISO-10303-21;
