ISO-10303-21;
HEADER;
/* Generated by software containing ST-Developer
 * from STEP Tools, Inc. (www.steptools.com) 
 */
/* OPTION: using custom schema-name function */

FILE_DESCRIPTION(
/* description */ (''),
/* implementation_level */ '2;1');

FILE_NAME(
/* name */ 'featured_part_10642.stp',
/* time_stamp */ '2026-07-16T18:36:42-04:00',
/* author */ (''),
/* organization */ (''),
/* preprocessor_version */ 'ST-DEVELOPER v20.1',
/* originating_system */ 'SIEMENS PLM Software NX2512.6002',
/* authorisation */ '');

FILE_SCHEMA (('AUTOMOTIVE_DESIGN { 1 0 10303 214 3 1 1 1 }'));
ENDSEC;

DATA;
#10=SHAPE_REPRESENTATION_RELATIONSHIP('None',
'relationship between featured_part_10642-None and featured_part_10642
-None',#22,#11);
#11=ADVANCED_BREP_SHAPE_REPRESENTATION('featured_part_10642-None',(#32),
#523);
#12=SHAPE_DEFINITION_REPRESENTATION(#13,#22);
#13=PRODUCT_DEFINITION_SHAPE('','',#14);
#14=PRODUCT_DEFINITION(' ','',#16,#15);
#15=PRODUCT_DEFINITION_CONTEXT('part definition',#21,'design');
#16=PRODUCT_DEFINITION_FORMATION_WITH_SPECIFIED_SOURCE(' ',' ',#18,
 .NOT_KNOWN.);
#17=PRODUCT_RELATED_PRODUCT_CATEGORY('part','',(#18));
#18=PRODUCT('featured_part_10642','featured_part_10642',' ',(#19));
#19=PRODUCT_CONTEXT(' ',#21,'mechanical');
#20=APPLICATION_PROTOCOL_DEFINITION('international standard',
'automotive_design',2010,#21);
#21=APPLICATION_CONTEXT(
'core data for automotive mechanical design processes');
#22=SHAPE_REPRESENTATION('featured_part_10642-None',(#330),#523);
#23=PRESENTATION_LAYER_ASSIGNMENT('1','Layer 1',(#32));
#24=STYLED_ITEM('',(#25),#32);
#25=PRESENTATION_STYLE_ASSIGNMENT((#26));
#26=SURFACE_STYLE_USAGE(.BOTH.,#27);
#27=SURFACE_SIDE_STYLE('',(#28));
#28=SURFACE_STYLE_FILL_AREA(#29);
#29=FILL_AREA_STYLE('',(#30));
#30=FILL_AREA_STYLE_COLOUR('',#31);
#31=COLOUR_RGB('medium steel',0.611764705882353,0.658823529411765,0.670588235294118);
#32=MANIFOLD_SOLID_BREP('',#33);
#33=CLOSED_SHELL('',(#56,#57,#58,#59,#60,#61,#62,#63,#64,#65,#66,#67,#68,
#69,#70,#71));
#34=CYLINDRICAL_SURFACE('',#351,12.1);
#35=CYLINDRICAL_SURFACE('',#352,12.1);
#36=CYLINDRICAL_SURFACE('',#353,7.6);
#37=CYLINDRICAL_SURFACE('',#354,7.6);
#38=FACE_BOUND('',#97,.T.);
#39=FACE_BOUND('',#98,.T.);
#40=FACE_BOUND('',#99,.T.);
#41=FACE_BOUND('',#103,.T.);
#42=FACE_BOUND('',#104,.T.);
#43=FACE_BOUND('',#105,.T.);
#44=FACE_BOUND('',#114,.T.);
#45=FACE_BOUND('',#115,.T.);
#46=FACE_BOUND('',#116,.T.);
#47=FACE_BOUND('',#117,.T.);
#48=CIRCLE('',#332,7.6);
#49=CIRCLE('',#333,7.6);
#50=CIRCLE('',#334,12.1);
#51=CIRCLE('',#335,12.1);
#52=CIRCLE('',#340,7.6);
#53=CIRCLE('',#341,7.6);
#54=CIRCLE('',#348,12.1);
#55=CIRCLE('',#349,12.1);
#56=ADVANCED_FACE('',(#84),#72,.F.);
#57=ADVANCED_FACE('',(#38,#39,#40),#73,.T.);
#58=ADVANCED_FACE('',(#85),#74,.T.);
#59=ADVANCED_FACE('',(#86),#75,.T.);
#60=ADVANCED_FACE('',(#87),#76,.T.);
#61=ADVANCED_FACE('',(#41,#42,#43),#77,.T.);
#62=ADVANCED_FACE('',(#88),#78,.T.);
#63=ADVANCED_FACE('',(#89),#79,.F.);
#64=ADVANCED_FACE('',(#90),#80,.F.);
#65=ADVANCED_FACE('',(#91),#81,.F.);
#66=ADVANCED_FACE('',(#92),#82,.F.);
#67=ADVANCED_FACE('',(#93),#83,.F.);
#68=ADVANCED_FACE('',(#94),#34,.F.);
#69=ADVANCED_FACE('',(#95),#35,.F.);
#70=ADVANCED_FACE('',(#44,#45),#36,.F.);
#71=ADVANCED_FACE('',(#46,#47),#37,.F.);
#72=PLANE('',#331);
#73=PLANE('',#336);
#74=PLANE('',#337);
#75=PLANE('',#338);
#76=PLANE('',#339);
#77=PLANE('',#342);
#78=PLANE('',#343);
#79=PLANE('',#344);
#80=PLANE('',#345);
#81=PLANE('',#346);
#82=PLANE('',#347);
#83=PLANE('',#350);
#84=FACE_OUTER_BOUND('',#96,.T.);
#85=FACE_OUTER_BOUND('',#100,.T.);
#86=FACE_OUTER_BOUND('',#101,.T.);
#87=FACE_OUTER_BOUND('',#102,.T.);
#88=FACE_OUTER_BOUND('',#106,.T.);
#89=FACE_OUTER_BOUND('',#107,.T.);
#90=FACE_OUTER_BOUND('',#108,.T.);
#91=FACE_OUTER_BOUND('',#109,.T.);
#92=FACE_OUTER_BOUND('',#110,.T.);
#93=FACE_OUTER_BOUND('',#111,.T.);
#94=FACE_OUTER_BOUND('',#112,.T.);
#95=FACE_OUTER_BOUND('',#113,.T.);
#96=EDGE_LOOP('',(#118,#119,#120,#121));
#97=EDGE_LOOP('',(#122));
#98=EDGE_LOOP('',(#123));
#99=EDGE_LOOP('',(#124,#125,#126,#127,#128,#129,#130,#131,#132,#133));
#100=EDGE_LOOP('',(#134,#135,#136,#137,#138));
#101=EDGE_LOOP('',(#139,#140,#141,#142));
#102=EDGE_LOOP('',(#143,#144,#145,#146,#147));
#103=EDGE_LOOP('',(#148));
#104=EDGE_LOOP('',(#149));
#105=EDGE_LOOP('',(#150,#151,#152,#153));
#106=EDGE_LOOP('',(#154,#155,#156,#157,#158,#159,#160,#161));
#107=EDGE_LOOP('',(#162,#163,#164,#165));
#108=EDGE_LOOP('',(#166,#167,#168,#169,#170));
#109=EDGE_LOOP('',(#171,#172,#173,#174));
#110=EDGE_LOOP('',(#175,#176,#177,#178,#179));
#111=EDGE_LOOP('',(#180,#181,#182,#183,#184,#185));
#112=EDGE_LOOP('',(#186,#187,#188,#189));
#113=EDGE_LOOP('',(#190,#191,#192,#193));
#114=EDGE_LOOP('',(#194));
#115=EDGE_LOOP('',(#195));
#116=EDGE_LOOP('',(#196));
#117=EDGE_LOOP('',(#197));
#118=ORIENTED_EDGE('',*,*,#226,.F.);
#119=ORIENTED_EDGE('',*,*,#227,.F.);
#120=ORIENTED_EDGE('',*,*,#228,.F.);
#121=ORIENTED_EDGE('',*,*,#229,.F.);
#122=ORIENTED_EDGE('',*,*,#230,.F.);
#123=ORIENTED_EDGE('',*,*,#231,.F.);
#124=ORIENTED_EDGE('',*,*,#232,.F.);
#125=ORIENTED_EDGE('',*,*,#233,.T.);
#126=ORIENTED_EDGE('',*,*,#234,.F.);
#127=ORIENTED_EDGE('',*,*,#235,.T.);
#128=ORIENTED_EDGE('',*,*,#236,.F.);
#129=ORIENTED_EDGE('',*,*,#237,.T.);
#130=ORIENTED_EDGE('',*,*,#238,.F.);
#131=ORIENTED_EDGE('',*,*,#239,.F.);
#132=ORIENTED_EDGE('',*,*,#240,.F.);
#133=ORIENTED_EDGE('',*,*,#227,.T.);
#134=ORIENTED_EDGE('',*,*,#241,.T.);
#135=ORIENTED_EDGE('',*,*,#228,.T.);
#136=ORIENTED_EDGE('',*,*,#240,.T.);
#137=ORIENTED_EDGE('',*,*,#242,.F.);
#138=ORIENTED_EDGE('',*,*,#243,.T.);
#139=ORIENTED_EDGE('',*,*,#242,.T.);
#140=ORIENTED_EDGE('',*,*,#239,.T.);
#141=ORIENTED_EDGE('',*,*,#244,.F.);
#142=ORIENTED_EDGE('',*,*,#245,.T.);
#143=ORIENTED_EDGE('',*,*,#238,.T.);
#144=ORIENTED_EDGE('',*,*,#246,.T.);
#145=ORIENTED_EDGE('',*,*,#247,.F.);
#146=ORIENTED_EDGE('',*,*,#248,.T.);
#147=ORIENTED_EDGE('',*,*,#244,.T.);
#148=ORIENTED_EDGE('',*,*,#249,.F.);
#149=ORIENTED_EDGE('',*,*,#250,.F.);
#150=ORIENTED_EDGE('',*,*,#251,.F.);
#151=ORIENTED_EDGE('',*,*,#243,.F.);
#152=ORIENTED_EDGE('',*,*,#245,.F.);
#153=ORIENTED_EDGE('',*,*,#248,.F.);
#154=ORIENTED_EDGE('',*,*,#252,.T.);
#155=ORIENTED_EDGE('',*,*,#229,.T.);
#156=ORIENTED_EDGE('',*,*,#241,.F.);
#157=ORIENTED_EDGE('',*,*,#251,.T.);
#158=ORIENTED_EDGE('',*,*,#247,.T.);
#159=ORIENTED_EDGE('',*,*,#253,.T.);
#160=ORIENTED_EDGE('',*,*,#254,.F.);
#161=ORIENTED_EDGE('',*,*,#255,.F.);
#162=ORIENTED_EDGE('',*,*,#256,.F.);
#163=ORIENTED_EDGE('',*,*,#253,.F.);
#164=ORIENTED_EDGE('',*,*,#246,.F.);
#165=ORIENTED_EDGE('',*,*,#237,.F.);
#166=ORIENTED_EDGE('',*,*,#257,.T.);
#167=ORIENTED_EDGE('',*,*,#258,.T.);
#168=ORIENTED_EDGE('',*,*,#232,.T.);
#169=ORIENTED_EDGE('',*,*,#226,.T.);
#170=ORIENTED_EDGE('',*,*,#252,.F.);
#171=ORIENTED_EDGE('',*,*,#234,.T.);
#172=ORIENTED_EDGE('',*,*,#259,.T.);
#173=ORIENTED_EDGE('',*,*,#260,.T.);
#174=ORIENTED_EDGE('',*,*,#261,.T.);
#175=ORIENTED_EDGE('',*,*,#236,.T.);
#176=ORIENTED_EDGE('',*,*,#262,.T.);
#177=ORIENTED_EDGE('',*,*,#263,.T.);
#178=ORIENTED_EDGE('',*,*,#254,.T.);
#179=ORIENTED_EDGE('',*,*,#256,.T.);
#180=ORIENTED_EDGE('',*,*,#260,.F.);
#181=ORIENTED_EDGE('',*,*,#264,.T.);
#182=ORIENTED_EDGE('',*,*,#257,.F.);
#183=ORIENTED_EDGE('',*,*,#255,.T.);
#184=ORIENTED_EDGE('',*,*,#263,.F.);
#185=ORIENTED_EDGE('',*,*,#265,.T.);
#186=ORIENTED_EDGE('',*,*,#233,.F.);
#187=ORIENTED_EDGE('',*,*,#258,.F.);
#188=ORIENTED_EDGE('',*,*,#264,.F.);
#189=ORIENTED_EDGE('',*,*,#259,.F.);
#190=ORIENTED_EDGE('',*,*,#235,.F.);
#191=ORIENTED_EDGE('',*,*,#261,.F.);
#192=ORIENTED_EDGE('',*,*,#265,.F.);
#193=ORIENTED_EDGE('',*,*,#262,.F.);
#194=ORIENTED_EDGE('',*,*,#231,.T.);
#195=ORIENTED_EDGE('',*,*,#250,.T.);
#196=ORIENTED_EDGE('',*,*,#230,.T.);
#197=ORIENTED_EDGE('',*,*,#249,.T.);
#198=VERTEX_POINT('',#439);
#199=VERTEX_POINT('',#440);
#200=VERTEX_POINT('',#442);
#201=VERTEX_POINT('',#444);
#202=VERTEX_POINT('',#448);
#203=VERTEX_POINT('',#450);
#204=VERTEX_POINT('',#452);
#205=VERTEX_POINT('',#454);
#206=VERTEX_POINT('',#456);
#207=VERTEX_POINT('',#458);
#208=VERTEX_POINT('',#460);
#209=VERTEX_POINT('',#462);
#210=VERTEX_POINT('',#464);
#211=VERTEX_POINT('',#466);
#212=VERTEX_POINT('',#470);
#213=VERTEX_POINT('',#472);
#214=VERTEX_POINT('',#476);
#215=VERTEX_POINT('',#480);
#216=VERTEX_POINT('',#482);
#217=VERTEX_POINT('',#486);
#218=VERTEX_POINT('',#488);
#219=VERTEX_POINT('',#492);
#220=VERTEX_POINT('',#494);
#221=VERTEX_POINT('',#496);
#222=VERTEX_POINT('',#502);
#223=VERTEX_POINT('',#506);
#224=VERTEX_POINT('',#508);
#225=VERTEX_POINT('',#512);
#226=EDGE_CURVE('',#198,#199,#266,.T.);
#227=EDGE_CURVE('',#200,#198,#267,.T.);
#228=EDGE_CURVE('',#201,#200,#268,.T.);
#229=EDGE_CURVE('',#199,#201,#269,.T.);
#230=EDGE_CURVE('',#202,#202,#48,.T.);
#231=EDGE_CURVE('',#203,#203,#49,.T.);
#232=EDGE_CURVE('',#204,#198,#270,.T.);
#233=EDGE_CURVE('',#204,#205,#50,.T.);
#234=EDGE_CURVE('',#206,#205,#271,.T.);
#235=EDGE_CURVE('',#206,#207,#51,.T.);
#236=EDGE_CURVE('',#208,#207,#272,.T.);
#237=EDGE_CURVE('',#208,#209,#273,.T.);
#238=EDGE_CURVE('',#210,#209,#274,.T.);
#239=EDGE_CURVE('',#211,#210,#275,.T.);
#240=EDGE_CURVE('',#200,#211,#276,.T.);
#241=EDGE_CURVE('',#212,#201,#277,.T.);
#242=EDGE_CURVE('',#213,#211,#278,.T.);
#243=EDGE_CURVE('',#213,#212,#279,.T.);
#244=EDGE_CURVE('',#214,#210,#280,.T.);
#245=EDGE_CURVE('',#214,#213,#281,.T.);
#246=EDGE_CURVE('',#209,#215,#282,.T.);
#247=EDGE_CURVE('',#216,#215,#283,.T.);
#248=EDGE_CURVE('',#216,#214,#284,.T.);
#249=EDGE_CURVE('',#217,#217,#52,.T.);
#250=EDGE_CURVE('',#218,#218,#53,.T.);
#251=EDGE_CURVE('',#212,#216,#285,.T.);
#252=EDGE_CURVE('',#219,#199,#286,.T.);
#253=EDGE_CURVE('',#215,#220,#287,.T.);
#254=EDGE_CURVE('',#221,#220,#288,.T.);
#255=EDGE_CURVE('',#219,#221,#289,.T.);
#256=EDGE_CURVE('',#220,#208,#290,.T.);
#257=EDGE_CURVE('',#219,#222,#291,.T.);
#258=EDGE_CURVE('',#222,#204,#292,.T.);
#259=EDGE_CURVE('',#205,#223,#293,.T.);
#260=EDGE_CURVE('',#223,#224,#294,.T.);
#261=EDGE_CURVE('',#224,#206,#295,.T.);
#262=EDGE_CURVE('',#207,#225,#296,.T.);
#263=EDGE_CURVE('',#225,#221,#297,.T.);
#264=EDGE_CURVE('',#223,#222,#54,.T.);
#265=EDGE_CURVE('',#225,#224,#55,.T.);
#266=LINE('',#438,#298);
#267=LINE('',#441,#299);
#268=LINE('',#443,#300);
#269=LINE('',#445,#301);
#270=LINE('',#451,#302);
#271=LINE('',#455,#303);
#272=LINE('',#459,#304);
#273=LINE('',#461,#305);
#274=LINE('',#463,#306);
#275=LINE('',#465,#307);
#276=LINE('',#467,#308);
#277=LINE('',#469,#309);
#278=LINE('',#471,#310);
#279=LINE('',#473,#311);
#280=LINE('',#475,#312);
#281=LINE('',#477,#313);
#282=LINE('',#479,#314);
#283=LINE('',#481,#315);
#284=LINE('',#483,#316);
#285=LINE('',#489,#317);
#286=LINE('',#491,#318);
#287=LINE('',#493,#319);
#288=LINE('',#495,#320);
#289=LINE('',#497,#321);
#290=LINE('',#499,#322);
#291=LINE('',#501,#323);
#292=LINE('',#503,#324);
#293=LINE('',#505,#325);
#294=LINE('',#507,#326);
#295=LINE('',#509,#327);
#296=LINE('',#511,#328);
#297=LINE('',#513,#329);
#298=VECTOR('',#357,1.);
#299=VECTOR('',#358,1.);
#300=VECTOR('',#359,1.);
#301=VECTOR('',#360,1.);
#302=VECTOR('',#367,1.);
#303=VECTOR('',#370,1.);
#304=VECTOR('',#373,1.);
#305=VECTOR('',#374,1.);
#306=VECTOR('',#375,1.);
#307=VECTOR('',#376,1.);
#308=VECTOR('',#377,1.);
#309=VECTOR('',#380,1.);
#310=VECTOR('',#381,1.);
#311=VECTOR('',#382,1.);
#312=VECTOR('',#385,1.);
#313=VECTOR('',#386,1.);
#314=VECTOR('',#389,1.);
#315=VECTOR('',#390,1.);
#316=VECTOR('',#391,1.);
#317=VECTOR('',#398,1.);
#318=VECTOR('',#401,1.);
#319=VECTOR('',#402,1.);
#320=VECTOR('',#403,1.);
#321=VECTOR('',#404,1.);
#322=VECTOR('',#407,1.);
#323=VECTOR('',#410,1.);
#324=VECTOR('',#411,1.);
#325=VECTOR('',#414,1.);
#326=VECTOR('',#415,1.);
#327=VECTOR('',#416,1.);
#328=VECTOR('',#419,1.);
#329=VECTOR('',#420,1.);
#330=AXIS2_PLACEMENT_3D('',#437,#355,#356);
#331=AXIS2_PLACEMENT_3D('',#446,#361,#362);
#332=AXIS2_PLACEMENT_3D('',#447,#363,#364);
#333=AXIS2_PLACEMENT_3D('',#449,#365,#366);
#334=AXIS2_PLACEMENT_3D('',#453,#368,#369);
#335=AXIS2_PLACEMENT_3D('',#457,#371,#372);
#336=AXIS2_PLACEMENT_3D('',#468,#378,#379);
#337=AXIS2_PLACEMENT_3D('',#474,#383,#384);
#338=AXIS2_PLACEMENT_3D('',#478,#387,#388);
#339=AXIS2_PLACEMENT_3D('',#484,#392,#393);
#340=AXIS2_PLACEMENT_3D('',#485,#394,#395);
#341=AXIS2_PLACEMENT_3D('',#487,#396,#397);
#342=AXIS2_PLACEMENT_3D('',#490,#399,#400);
#343=AXIS2_PLACEMENT_3D('',#498,#405,#406);
#344=AXIS2_PLACEMENT_3D('',#500,#408,#409);
#345=AXIS2_PLACEMENT_3D('',#504,#412,#413);
#346=AXIS2_PLACEMENT_3D('',#510,#417,#418);
#347=AXIS2_PLACEMENT_3D('',#514,#421,#422);
#348=AXIS2_PLACEMENT_3D('',#515,#423,#424);
#349=AXIS2_PLACEMENT_3D('',#516,#425,#426);
#350=AXIS2_PLACEMENT_3D('',#517,#427,#428);
#351=AXIS2_PLACEMENT_3D('',#518,#429,#430);
#352=AXIS2_PLACEMENT_3D('',#519,#431,#432);
#353=AXIS2_PLACEMENT_3D('',#520,#433,#434);
#354=AXIS2_PLACEMENT_3D('',#521,#435,#436);
#355=DIRECTION('',(0.,0.,1.));
#356=DIRECTION('',(1.,0.,0.));
#357=DIRECTION('',(0.707106781186548,0.,-0.707106781186548));
#358=DIRECTION('',(0.,1.,0.));
#359=DIRECTION('',(-0.707106781186548,0.,0.707106781186548));
#360=DIRECTION('',(0.,-1.,0.));
#361=DIRECTION('',(-0.707106781186548,0.,-0.707106781186548));
#362=DIRECTION('',(0.,-1.,0.));
#363=DIRECTION('',(0.,0.,1.));
#364=DIRECTION('',(0.999999999999999,0.,0.));
#365=DIRECTION('',(0.,0.,1.));
#366=DIRECTION('',(1.,0.,0.));
#367=DIRECTION('',(1.,0.,0.));
#368=DIRECTION('',(0.,0.,-1.));
#369=DIRECTION('',(1.,0.,0.));
#370=DIRECTION('',(0.,-1.,0.));
#371=DIRECTION('',(0.,0.,-1.));
#372=DIRECTION('',(1.,0.,0.));
#373=DIRECTION('',(-1.,0.,0.));
#374=DIRECTION('',(0.,1.,0.));
#375=DIRECTION('',(1.,0.,0.));
#376=DIRECTION('',(0.,1.,0.));
#377=DIRECTION('',(-1.,0.,0.));
#378=DIRECTION('',(0.,0.,1.));
#379=DIRECTION('',(1.,0.,0.));
#380=DIRECTION('',(0.,0.,1.));
#381=DIRECTION('',(0.,0.,1.));
#382=DIRECTION('',(1.,0.,0.));
#383=DIRECTION('',(0.,-1.,0.));
#384=DIRECTION('',(0.,0.,-1.));
#385=DIRECTION('',(0.,0.,1.));
#386=DIRECTION('',(0.,-1.,0.));
#387=DIRECTION('',(-1.,0.,0.));
#388=DIRECTION('',(0.,0.,1.));
#389=DIRECTION('',(0.707106781186548,0.,-0.707106781186548));
#390=DIRECTION('',(0.,0.,1.));
#391=DIRECTION('',(-1.,0.,0.));
#392=DIRECTION('',(0.,1.,0.));
#393=DIRECTION('',(0.,0.,1.));
#394=DIRECTION('',(0.,0.,-1.));
#395=DIRECTION('',(-0.999999999999999,0.,0.));
#396=DIRECTION('',(0.,0.,-1.));
#397=DIRECTION('',(-1.,0.,0.));
#398=DIRECTION('',(0.,1.,0.));
#399=DIRECTION('',(0.,0.,-1.));
#400=DIRECTION('',(-1.,0.,0.));
#401=DIRECTION('',(0.,0.,1.));
#402=DIRECTION('',(0.,-1.,0.));
#403=DIRECTION('',(0.,0.,1.));
#404=DIRECTION('',(0.,1.,0.));
#405=DIRECTION('',(1.,0.,0.));
#406=DIRECTION('',(0.,0.,-1.));
#407=DIRECTION('',(-0.707106781186548,0.,0.707106781186548));
#408=DIRECTION('',(-0.707106781186548,0.,-0.707106781186548));
#409=DIRECTION('',(0.,-1.,0.));
#410=DIRECTION('',(-1.,0.,0.));
#411=DIRECTION('',(0.,0.,1.));
#412=DIRECTION('',(0.,-1.,0.));
#413=DIRECTION('',(0.,0.,-1.));
#414=DIRECTION('',(0.,0.,-1.));
#415=DIRECTION('',(0.,1.,0.));
#416=DIRECTION('',(0.,0.,1.));
#417=DIRECTION('',(-1.,0.,0.));
#418=DIRECTION('',(0.,0.,1.));
#419=DIRECTION('',(0.,0.,-1.));
#420=DIRECTION('',(1.,0.,0.));
#421=DIRECTION('',(0.,1.,0.));
#422=DIRECTION('',(0.,0.,1.));
#423=DIRECTION('',(0.,0.,1.));
#424=DIRECTION('',(-1.,0.,0.));
#425=DIRECTION('',(0.,0.,1.));
#426=DIRECTION('',(-1.,0.,0.));
#427=DIRECTION('',(0.,0.,-1.));
#428=DIRECTION('',(-1.,0.,0.));
#429=DIRECTION('',(0.,0.,1.));
#430=DIRECTION('',(1.,0.,0.));
#431=DIRECTION('',(0.,0.,1.));
#432=DIRECTION('',(1.,0.,0.));
#433=DIRECTION('',(0.,0.,-1.));
#434=DIRECTION('',(1.,0.,0.));
#435=DIRECTION('',(0.,0.,-1.));
#436=DIRECTION('',(0.999999999999999,0.,0.));
#437=CARTESIAN_POINT('',(0.,0.,0.));
#438=CARTESIAN_POINT('',(466.4,22.,52.1));
#439=CARTESIAN_POINT('',(457.8,22.,60.7));
#440=CARTESIAN_POINT('',(466.4,22.,52.1));
#441=CARTESIAN_POINT('',(457.8,247.75,60.7));
#442=CARTESIAN_POINT('',(457.8,0.,60.7));
#443=CARTESIAN_POINT('',(375.85,0.,142.65));
#444=CARTESIAN_POINT('',(466.4,0.,52.1));
#445=CARTESIAN_POINT('',(466.4,247.75,52.1));
#446=CARTESIAN_POINT('',(466.4,247.75,52.1));
#447=CARTESIAN_POINT('',(437.,295.6,60.7));
#448=CARTESIAN_POINT('',(444.6,295.6,60.7));
#449=CARTESIAN_POINT('',(29.4,199.9,60.7));
#450=CARTESIAN_POINT('',(37.,199.9,60.7));
#451=CARTESIAN_POINT('',(233.2,22.,60.7));
#452=CARTESIAN_POINT('',(341.2,22.,60.7));
#453=CARTESIAN_POINT('',(341.2,34.1,60.7));
#454=CARTESIAN_POINT('',(329.1,34.1,60.7));
#455=CARTESIAN_POINT('',(329.1,247.75,60.7));
#456=CARTESIAN_POINT('',(329.1,185.8,60.7));
#457=CARTESIAN_POINT('',(341.2,185.8,60.7));
#458=CARTESIAN_POINT('',(341.2,197.9,60.7));
#459=CARTESIAN_POINT('',(233.2,197.9,60.7));
#460=CARTESIAN_POINT('',(457.8,197.9,60.7));
#461=CARTESIAN_POINT('',(457.8,247.75,60.7));
#462=CARTESIAN_POINT('',(457.8,495.5,60.7));
#463=CARTESIAN_POINT('',(233.2,495.5,60.7));
#464=CARTESIAN_POINT('',(0.,495.5,60.7));
#465=CARTESIAN_POINT('',(0.,247.75,60.7));
#466=CARTESIAN_POINT('',(0.,0.,60.7));
#467=CARTESIAN_POINT('',(233.2,0.,60.7));
#468=CARTESIAN_POINT('',(233.2,247.75,60.7));
#469=CARTESIAN_POINT('',(466.4,0.,0.));
#470=CARTESIAN_POINT('',(466.4,0.,0.));
#471=CARTESIAN_POINT('',(0.,0.,0.));
#472=CARTESIAN_POINT('',(0.,0.,0.));
#473=CARTESIAN_POINT('',(233.2,0.,0.));
#474=CARTESIAN_POINT('',(233.2,0.,0.));
#475=CARTESIAN_POINT('',(0.,495.5,0.));
#476=CARTESIAN_POINT('',(0.,495.5,0.));
#477=CARTESIAN_POINT('',(0.,247.75,0.));
#478=CARTESIAN_POINT('',(0.,247.75,0.));
#479=CARTESIAN_POINT('',(375.85,495.5,142.65));
#480=CARTESIAN_POINT('',(466.4,495.5,52.1));
#481=CARTESIAN_POINT('',(466.4,495.5,0.));
#482=CARTESIAN_POINT('',(466.4,495.5,0.));
#483=CARTESIAN_POINT('',(233.2,495.5,0.));
#484=CARTESIAN_POINT('',(233.2,495.5,0.));
#485=CARTESIAN_POINT('',(437.,295.6,0.));
#486=CARTESIAN_POINT('',(429.4,295.6,0.));
#487=CARTESIAN_POINT('',(29.4,199.9,0.));
#488=CARTESIAN_POINT('',(21.8,199.9,0.));
#489=CARTESIAN_POINT('',(466.4,247.75,0.));
#490=CARTESIAN_POINT('',(233.2,247.75,0.));
#491=CARTESIAN_POINT('',(466.4,22.,47.1));
#492=CARTESIAN_POINT('',(466.4,22.,47.1));
#493=CARTESIAN_POINT('',(466.4,247.75,52.1));
#494=CARTESIAN_POINT('',(466.4,197.9,52.1));
#495=CARTESIAN_POINT('',(466.4,197.9,47.1));
#496=CARTESIAN_POINT('',(466.4,197.9,47.1));
#497=CARTESIAN_POINT('',(466.4,109.95,47.1));
#498=CARTESIAN_POINT('',(466.4,247.75,0.));
#499=CARTESIAN_POINT('',(466.4,197.9,52.1));
#500=CARTESIAN_POINT('',(466.4,247.75,52.1));
#501=CARTESIAN_POINT('',(397.75,22.,47.1));
#502=CARTESIAN_POINT('',(341.2,22.,47.1));
#503=CARTESIAN_POINT('',(341.2,22.,60.7));
#504=CARTESIAN_POINT('',(397.75,22.,47.1));
#505=CARTESIAN_POINT('',(329.1,34.1,47.1));
#506=CARTESIAN_POINT('',(329.1,34.1,47.1));
#507=CARTESIAN_POINT('',(329.1,109.95,47.1));
#508=CARTESIAN_POINT('',(329.1,185.8,47.1));
#509=CARTESIAN_POINT('',(329.1,185.8,60.7));
#510=CARTESIAN_POINT('',(329.1,109.95,47.1));
#511=CARTESIAN_POINT('',(341.2,197.9,47.1));
#512=CARTESIAN_POINT('',(341.2,197.9,47.1));
#513=CARTESIAN_POINT('',(397.75,197.9,47.1));
#514=CARTESIAN_POINT('',(397.75,197.9,47.1));
#515=CARTESIAN_POINT('',(341.2,34.1,47.1));
#516=CARTESIAN_POINT('',(341.2,185.8,47.1));
#517=CARTESIAN_POINT('',(397.75,109.95,47.1));
#518=CARTESIAN_POINT('',(341.2,34.1,47.1));
#519=CARTESIAN_POINT('',(341.2,185.8,47.1));
#520=CARTESIAN_POINT('',(29.4,199.9,60.75));
#521=CARTESIAN_POINT('',(437.,295.6,60.75));
#522=MECHANICAL_DESIGN_GEOMETRIC_PRESENTATION_REPRESENTATION('',(#24),#523);
#523=(
GEOMETRIC_REPRESENTATION_CONTEXT(3)
GLOBAL_UNCERTAINTY_ASSIGNED_CONTEXT((#524))
GLOBAL_UNIT_ASSIGNED_CONTEXT((#530,#526,#525))
REPRESENTATION_CONTEXT('featured_part_10642','TOP_LEVEL_ASSEMBLY_PART')
);
#524=UNCERTAINTY_MEASURE_WITH_UNIT(LENGTH_MEASURE(2.E-5),#530,
'DISTANCE_ACCURACY_VALUE','Maximum Tolerance applied to model');
#525=(
NAMED_UNIT(*)
SI_UNIT($,.STERADIAN.)
SOLID_ANGLE_UNIT()
);
#526=(
CONVERSION_BASED_UNIT('DEGREE',#528)
NAMED_UNIT(#527)
PLANE_ANGLE_UNIT()
);
#527=DIMENSIONAL_EXPONENTS(0.,0.,0.,0.,0.,0.,0.);
#528=PLANE_ANGLE_MEASURE_WITH_UNIT(PLANE_ANGLE_MEASURE(0.0174532925),#529);
#529=(
NAMED_UNIT(*)
PLANE_ANGLE_UNIT()
SI_UNIT($,.RADIAN.)
);
#530=(
LENGTH_UNIT()
NAMED_UNIT(*)
SI_UNIT(.MILLI.,.METRE.)
);
ENDSEC;
END-ISO-10303-21;
