ISO-10303-21;
HEADER;
/* Generated by software containing ST-Developer
 * from STEP Tools, Inc. (www.steptools.com) 
 */
/* OPTION: using custom schema-name function */

FILE_DESCRIPTION(
/* description */ (''),
/* implementation_level */ '2;1');

FILE_NAME(
/* name */ 'featured_part_06942.stp',
/* time_stamp */ '2026-07-09T18:09:24-04:00',
/* author */ (''),
/* organization */ (''),
/* preprocessor_version */ 'ST-DEVELOPER v20.1',
/* originating_system */ 'SIEMENS PLM Software NX2512.6002',
/* authorisation */ '');

FILE_SCHEMA (('AUTOMOTIVE_DESIGN { 1 0 10303 214 3 1 1 1 }'));
ENDSEC;

DATA;
#10=SHAPE_REPRESENTATION_RELATIONSHIP('None',
'relationship between featured_part_06942-None and featured_part_06942
-None',#22,#11);
#11=ADVANCED_BREP_SHAPE_REPRESENTATION('featured_part_06942-None',(#32),
#554);
#12=SHAPE_DEFINITION_REPRESENTATION(#13,#22);
#13=PRODUCT_DEFINITION_SHAPE('','',#14);
#14=PRODUCT_DEFINITION(' ','',#16,#15);
#15=PRODUCT_DEFINITION_CONTEXT('part definition',#21,'design');
#16=PRODUCT_DEFINITION_FORMATION_WITH_SPECIFIED_SOURCE(' ',' ',#18,
 .NOT_KNOWN.);
#17=PRODUCT_RELATED_PRODUCT_CATEGORY('part','',(#18));
#18=PRODUCT('featured_part_06942','featured_part_06942',' ',(#19));
#19=PRODUCT_CONTEXT(' ',#21,'mechanical');
#20=APPLICATION_PROTOCOL_DEFINITION('international standard',
'automotive_design',2010,#21);
#21=APPLICATION_CONTEXT(
'core data for automotive mechanical design processes');
#22=SHAPE_REPRESENTATION('featured_part_06942-None',(#339),#554);
#23=PRESENTATION_LAYER_ASSIGNMENT('1','Layer 1',(#32));
#24=STYLED_ITEM('',(#25),#32);
#25=PRESENTATION_STYLE_ASSIGNMENT((#26));
#26=SURFACE_STYLE_USAGE(.BOTH.,#27);
#27=SURFACE_SIDE_STYLE('',(#28));
#28=SURFACE_STYLE_FILL_AREA(#29);
#29=FILL_AREA_STYLE('',(#30));
#30=FILL_AREA_STYLE_COLOUR('',#31);
#31=COLOUR_RGB('medium steel',0.611764705882353,0.658823529411765,0.670588235294118);
#32=MANIFOLD_SOLID_BREP('',#33);
#33=CLOSED_SHELL('',(#54,#55,#56,#57,#58,#59,#60,#61,#62,#63,#64,#65,#66,
#67,#68,#69,#70,#71,#72,#73,#74));
#34=CYLINDRICAL_SURFACE('',#357,5.9);
#35=CYLINDRICAL_SURFACE('',#360,5.);
#36=CYLINDRICAL_SURFACE('',#362,5.);
#37=CYLINDRICAL_SURFACE('',#366,5.);
#38=CYLINDRICAL_SURFACE('',#369,5.);
#39=CYLINDRICAL_SURFACE('',#372,5.);
#40=FACE_OUTER_BOUND('',#162,.T.);
#41=FACE_OUTER_BOUND('',#163,.T.);
#42=FACE_OUTER_BOUND('',#164,.T.);
#43=FACE_OUTER_BOUND('',#165,.T.);
#44=FACE_OUTER_BOUND('',#166,.T.);
#45=FACE_OUTER_BOUND('',#167,.T.);
#46=FACE_OUTER_BOUND('',#168,.T.);
#47=FACE_OUTER_BOUND('',#169,.T.);
#48=FACE_OUTER_BOUND('',#172,.T.);
#49=FACE_OUTER_BOUND('',#173,.T.);
#50=FACE_OUTER_BOUND('',#178,.T.);
#51=FACE_OUTER_BOUND('',#179,.T.);
#52=FACE_OUTER_BOUND('',#182,.T.);
#53=FACE_OUTER_BOUND('',#185,.T.);
#54=ADVANCED_FACE('',(#140,#141,#142,#143,#144),#75,.T.);
#55=ADVANCED_FACE('',(#40),#76,.T.);
#56=ADVANCED_FACE('',(#41),#77,.T.);
#57=ADVANCED_FACE('',(#42),#78,.T.);
#58=ADVANCED_FACE('',(#43),#79,.T.);
#59=ADVANCED_FACE('',(#44),#80,.T.);
#60=ADVANCED_FACE('',(#45),#81,.F.);
#61=ADVANCED_FACE('',(#46),#82,.F.);
#62=ADVANCED_FACE('',(#47),#83,.F.);
#63=ADVANCED_FACE('',(#145,#146),#84,.F.);
#64=ADVANCED_FACE('',(#48),#34,.F.);
#65=ADVANCED_FACE('',(#49),#85,.F.);
#66=ADVANCED_FACE('',(#147,#148),#35,.F.);
#67=ADVANCED_FACE('',(#149,#150),#36,.F.);
#68=ADVANCED_FACE('',(#50),#86,.F.);
#69=ADVANCED_FACE('',(#51),#87,.F.);
#70=ADVANCED_FACE('',(#151,#152),#37,.F.);
#71=ADVANCED_FACE('',(#52),#88,.F.);
#72=ADVANCED_FACE('',(#153,#154),#38,.F.);
#73=ADVANCED_FACE('',(#53),#89,.F.);
#74=ADVANCED_FACE('',(#155,#156),#39,.F.);
#75=PLANE('',#345);
#76=PLANE('',#346);
#77=PLANE('',#347);
#78=PLANE('',#348);
#79=PLANE('',#349);
#80=PLANE('',#350);
#81=PLANE('',#351);
#82=PLANE('',#352);
#83=PLANE('',#353);
#84=PLANE('',#356);
#85=PLANE('',#359);
#86=PLANE('',#363);
#87=PLANE('',#365);
#88=PLANE('',#368);
#89=PLANE('',#371);
#90=LINE('',#475,#115);
#91=LINE('',#480,#116);
#92=LINE('',#482,#117);
#93=LINE('',#484,#118);
#94=LINE('',#486,#119);
#95=LINE('',#488,#120);
#96=LINE('',#490,#121);
#97=LINE('',#493,#122);
#98=LINE('',#495,#123);
#99=LINE('',#497,#124);
#100=LINE('',#499,#125);
#101=LINE('',#501,#126);
#102=LINE('',#503,#127);
#103=LINE('',#504,#128);
#104=LINE('',#506,#129);
#105=LINE('',#508,#130);
#106=LINE('',#510,#131);
#107=LINE('',#512,#132);
#108=LINE('',#514,#133);
#109=LINE('',#516,#134);
#110=LINE('',#518,#135);
#111=LINE('',#520,#136);
#112=LINE('',#522,#137);
#113=LINE('',#524,#138);
#114=LINE('',#526,#139);
#115=VECTOR('',#383,1.);
#116=VECTOR('',#386,1.);
#117=VECTOR('',#387,1.);
#118=VECTOR('',#388,1.);
#119=VECTOR('',#389,1.);
#120=VECTOR('',#390,1.);
#121=VECTOR('',#393,1.);
#122=VECTOR('',#394,1.);
#123=VECTOR('',#395,1.);
#124=VECTOR('',#396,1.);
#125=VECTOR('',#397,1.);
#126=VECTOR('',#398,1.);
#127=VECTOR('',#401,1.);
#128=VECTOR('',#402,1.);
#129=VECTOR('',#403,1.);
#130=VECTOR('',#406,1.);
#131=VECTOR('',#407,1.);
#132=VECTOR('',#410,1.);
#133=VECTOR('',#413,1.);
#134=VECTOR('',#414,1.);
#135=VECTOR('',#417,1.);
#136=VECTOR('',#420,1.);
#137=VECTOR('',#421,1.);
#138=VECTOR('',#424,1.);
#139=VECTOR('',#425,1.);
#140=FACE_BOUND('',#157,.T.);
#141=FACE_BOUND('',#158,.T.);
#142=FACE_BOUND('',#159,.T.);
#143=FACE_BOUND('',#160,.T.);
#144=FACE_BOUND('',#161,.T.);
#145=FACE_BOUND('',#170,.T.);
#146=FACE_BOUND('',#171,.T.);
#147=FACE_BOUND('',#174,.T.);
#148=FACE_BOUND('',#175,.T.);
#149=FACE_BOUND('',#176,.T.);
#150=FACE_BOUND('',#177,.T.);
#151=FACE_BOUND('',#180,.T.);
#152=FACE_BOUND('',#181,.T.);
#153=FACE_BOUND('',#183,.T.);
#154=FACE_BOUND('',#184,.T.);
#155=FACE_BOUND('',#186,.T.);
#156=FACE_BOUND('',#187,.T.);
#157=EDGE_LOOP('',(#188));
#158=EDGE_LOOP('',(#189));
#159=EDGE_LOOP('',(#190));
#160=EDGE_LOOP('',(#191));
#161=EDGE_LOOP('',(#192,#193,#194,#195,#196,#197,#198));
#162=EDGE_LOOP('',(#199,#200,#201,#202,#203,#204));
#163=EDGE_LOOP('',(#205,#206,#207,#208,#209));
#164=EDGE_LOOP('',(#210,#211,#212,#213));
#165=EDGE_LOOP('',(#214,#215,#216,#217));
#166=EDGE_LOOP('',(#218,#219,#220,#221,#222,#223));
#167=EDGE_LOOP('',(#224,#225,#226,#227));
#168=EDGE_LOOP('',(#228,#229,#230,#231,#232));
#169=EDGE_LOOP('',(#233,#234,#235,#236));
#170=EDGE_LOOP('',(#237));
#171=EDGE_LOOP('',(#238,#239,#240,#241,#242));
#172=EDGE_LOOP('',(#243,#244,#245,#246));
#173=EDGE_LOOP('',(#247));
#174=EDGE_LOOP('',(#248));
#175=EDGE_LOOP('',(#249));
#176=EDGE_LOOP('',(#250));
#177=EDGE_LOOP('',(#251));
#178=EDGE_LOOP('',(#252));
#179=EDGE_LOOP('',(#253));
#180=EDGE_LOOP('',(#254));
#181=EDGE_LOOP('',(#255));
#182=EDGE_LOOP('',(#256));
#183=EDGE_LOOP('',(#257));
#184=EDGE_LOOP('',(#258));
#185=EDGE_LOOP('',(#259));
#186=EDGE_LOOP('',(#260));
#187=EDGE_LOOP('',(#261));
#188=ORIENTED_EDGE('',*,*,#290,.F.);
#189=ORIENTED_EDGE('',*,*,#291,.F.);
#190=ORIENTED_EDGE('',*,*,#292,.F.);
#191=ORIENTED_EDGE('',*,*,#293,.F.);
#192=ORIENTED_EDGE('',*,*,#294,.F.);
#193=ORIENTED_EDGE('',*,*,#295,.T.);
#194=ORIENTED_EDGE('',*,*,#296,.F.);
#195=ORIENTED_EDGE('',*,*,#297,.F.);
#196=ORIENTED_EDGE('',*,*,#298,.F.);
#197=ORIENTED_EDGE('',*,*,#299,.F.);
#198=ORIENTED_EDGE('',*,*,#300,.T.);
#199=ORIENTED_EDGE('',*,*,#301,.T.);
#200=ORIENTED_EDGE('',*,*,#302,.T.);
#201=ORIENTED_EDGE('',*,*,#303,.F.);
#202=ORIENTED_EDGE('',*,*,#304,.T.);
#203=ORIENTED_EDGE('',*,*,#305,.T.);
#204=ORIENTED_EDGE('',*,*,#306,.F.);
#205=ORIENTED_EDGE('',*,*,#303,.T.);
#206=ORIENTED_EDGE('',*,*,#307,.T.);
#207=ORIENTED_EDGE('',*,*,#299,.T.);
#208=ORIENTED_EDGE('',*,*,#308,.F.);
#209=ORIENTED_EDGE('',*,*,#309,.T.);
#210=ORIENTED_EDGE('',*,*,#308,.T.);
#211=ORIENTED_EDGE('',*,*,#298,.T.);
#212=ORIENTED_EDGE('',*,*,#310,.F.);
#213=ORIENTED_EDGE('',*,*,#311,.T.);
#214=ORIENTED_EDGE('',*,*,#312,.F.);
#215=ORIENTED_EDGE('',*,*,#304,.F.);
#216=ORIENTED_EDGE('',*,*,#309,.F.);
#217=ORIENTED_EDGE('',*,*,#311,.F.);
#218=ORIENTED_EDGE('',*,*,#313,.F.);
#219=ORIENTED_EDGE('',*,*,#314,.F.);
#220=ORIENTED_EDGE('',*,*,#305,.F.);
#221=ORIENTED_EDGE('',*,*,#312,.T.);
#222=ORIENTED_EDGE('',*,*,#310,.T.);
#223=ORIENTED_EDGE('',*,*,#297,.T.);
#224=ORIENTED_EDGE('',*,*,#315,.F.);
#225=ORIENTED_EDGE('',*,*,#300,.F.);
#226=ORIENTED_EDGE('',*,*,#307,.F.);
#227=ORIENTED_EDGE('',*,*,#302,.F.);
#228=ORIENTED_EDGE('',*,*,#316,.T.);
#229=ORIENTED_EDGE('',*,*,#317,.T.);
#230=ORIENTED_EDGE('',*,*,#294,.T.);
#231=ORIENTED_EDGE('',*,*,#315,.T.);
#232=ORIENTED_EDGE('',*,*,#301,.F.);
#233=ORIENTED_EDGE('',*,*,#296,.T.);
#234=ORIENTED_EDGE('',*,*,#318,.T.);
#235=ORIENTED_EDGE('',*,*,#319,.T.);
#236=ORIENTED_EDGE('',*,*,#313,.T.);
#237=ORIENTED_EDGE('',*,*,#320,.T.);
#238=ORIENTED_EDGE('',*,*,#319,.F.);
#239=ORIENTED_EDGE('',*,*,#321,.T.);
#240=ORIENTED_EDGE('',*,*,#316,.F.);
#241=ORIENTED_EDGE('',*,*,#306,.T.);
#242=ORIENTED_EDGE('',*,*,#314,.T.);
#243=ORIENTED_EDGE('',*,*,#295,.F.);
#244=ORIENTED_EDGE('',*,*,#317,.F.);
#245=ORIENTED_EDGE('',*,*,#321,.F.);
#246=ORIENTED_EDGE('',*,*,#318,.F.);
#247=ORIENTED_EDGE('',*,*,#322,.F.);
#248=ORIENTED_EDGE('',*,*,#293,.T.);
#249=ORIENTED_EDGE('',*,*,#322,.T.);
#250=ORIENTED_EDGE('',*,*,#323,.T.);
#251=ORIENTED_EDGE('',*,*,#320,.F.);
#252=ORIENTED_EDGE('',*,*,#323,.F.);
#253=ORIENTED_EDGE('',*,*,#324,.F.);
#254=ORIENTED_EDGE('',*,*,#292,.T.);
#255=ORIENTED_EDGE('',*,*,#324,.T.);
#256=ORIENTED_EDGE('',*,*,#325,.F.);
#257=ORIENTED_EDGE('',*,*,#291,.T.);
#258=ORIENTED_EDGE('',*,*,#325,.T.);
#259=ORIENTED_EDGE('',*,*,#326,.F.);
#260=ORIENTED_EDGE('',*,*,#290,.T.);
#261=ORIENTED_EDGE('',*,*,#326,.T.);
#262=VERTEX_POINT('',#468);
#263=VERTEX_POINT('',#470);
#264=VERTEX_POINT('',#472);
#265=VERTEX_POINT('',#474);
#266=VERTEX_POINT('',#476);
#267=VERTEX_POINT('',#477);
#268=VERTEX_POINT('',#479);
#269=VERTEX_POINT('',#481);
#270=VERTEX_POINT('',#483);
#271=VERTEX_POINT('',#485);
#272=VERTEX_POINT('',#487);
#273=VERTEX_POINT('',#491);
#274=VERTEX_POINT('',#492);
#275=VERTEX_POINT('',#494);
#276=VERTEX_POINT('',#496);
#277=VERTEX_POINT('',#498);
#278=VERTEX_POINT('',#500);
#279=VERTEX_POINT('',#505);
#280=VERTEX_POINT('',#509);
#281=VERTEX_POINT('',#515);
#282=VERTEX_POINT('',#521);
#283=VERTEX_POINT('',#525);
#284=VERTEX_POINT('',#529);
#285=VERTEX_POINT('',#534);
#286=VERTEX_POINT('',#538);
#287=VERTEX_POINT('',#542);
#288=VERTEX_POINT('',#546);
#289=VERTEX_POINT('',#550);
#290=EDGE_CURVE('',#262,#262,#327,.T.);
#291=EDGE_CURVE('',#263,#263,#328,.T.);
#292=EDGE_CURVE('',#264,#264,#329,.T.);
#293=EDGE_CURVE('',#265,#265,#330,.T.);
#294=EDGE_CURVE('',#266,#267,#90,.T.);
#295=EDGE_CURVE('',#266,#268,#331,.T.);
#296=EDGE_CURVE('',#269,#268,#91,.T.);
#297=EDGE_CURVE('',#270,#269,#92,.T.);
#298=EDGE_CURVE('',#271,#270,#93,.T.);
#299=EDGE_CURVE('',#272,#271,#94,.T.);
#300=EDGE_CURVE('',#272,#267,#95,.T.);
#301=EDGE_CURVE('',#273,#274,#96,.T.);
#302=EDGE_CURVE('',#274,#275,#97,.T.);
#303=EDGE_CURVE('',#276,#275,#98,.T.);
#304=EDGE_CURVE('',#276,#277,#99,.T.);
#305=EDGE_CURVE('',#277,#278,#100,.T.);
#306=EDGE_CURVE('',#273,#278,#101,.T.);
#307=EDGE_CURVE('',#275,#272,#102,.T.);
#308=EDGE_CURVE('',#279,#271,#103,.T.);
#309=EDGE_CURVE('',#279,#276,#104,.T.);
#310=EDGE_CURVE('',#280,#270,#105,.T.);
#311=EDGE_CURVE('',#280,#279,#106,.T.);
#312=EDGE_CURVE('',#277,#280,#107,.T.);
#313=EDGE_CURVE('',#281,#269,#108,.T.);
#314=EDGE_CURVE('',#278,#281,#109,.T.);
#315=EDGE_CURVE('',#267,#274,#110,.T.);
#316=EDGE_CURVE('',#273,#282,#111,.T.);
#317=EDGE_CURVE('',#282,#266,#112,.T.);
#318=EDGE_CURVE('',#268,#283,#113,.T.);
#319=EDGE_CURVE('',#283,#281,#114,.T.);
#320=EDGE_CURVE('',#284,#284,#332,.T.);
#321=EDGE_CURVE('',#283,#282,#333,.T.);
#322=EDGE_CURVE('',#285,#285,#334,.T.);
#323=EDGE_CURVE('',#286,#286,#335,.T.);
#324=EDGE_CURVE('',#287,#287,#336,.T.);
#325=EDGE_CURVE('',#288,#288,#337,.T.);
#326=EDGE_CURVE('',#289,#289,#338,.T.);
#327=CIRCLE('',#340,5.);
#328=CIRCLE('',#341,5.);
#329=CIRCLE('',#342,5.);
#330=CIRCLE('',#343,5.);
#331=CIRCLE('',#344,5.9);
#332=CIRCLE('',#354,5.);
#333=CIRCLE('',#355,5.9);
#334=CIRCLE('',#358,5.);
#335=CIRCLE('',#361,5.);
#336=CIRCLE('',#364,5.);
#337=CIRCLE('',#367,5.);
#338=CIRCLE('',#370,5.);
#339=AXIS2_PLACEMENT_3D('',#466,#373,#374);
#340=AXIS2_PLACEMENT_3D('',#467,#375,#376);
#341=AXIS2_PLACEMENT_3D('',#469,#377,#378);
#342=AXIS2_PLACEMENT_3D('',#471,#379,#380);
#343=AXIS2_PLACEMENT_3D('',#473,#381,#382);
#344=AXIS2_PLACEMENT_3D('',#478,#384,#385);
#345=AXIS2_PLACEMENT_3D('',#489,#391,#392);
#346=AXIS2_PLACEMENT_3D('',#502,#399,#400);
#347=AXIS2_PLACEMENT_3D('',#507,#404,#405);
#348=AXIS2_PLACEMENT_3D('',#511,#408,#409);
#349=AXIS2_PLACEMENT_3D('',#513,#411,#412);
#350=AXIS2_PLACEMENT_3D('',#517,#415,#416);
#351=AXIS2_PLACEMENT_3D('',#519,#418,#419);
#352=AXIS2_PLACEMENT_3D('',#523,#422,#423);
#353=AXIS2_PLACEMENT_3D('',#527,#426,#427);
#354=AXIS2_PLACEMENT_3D('',#528,#428,#429);
#355=AXIS2_PLACEMENT_3D('',#530,#430,#431);
#356=AXIS2_PLACEMENT_3D('',#531,#432,#433);
#357=AXIS2_PLACEMENT_3D('',#532,#434,#435);
#358=AXIS2_PLACEMENT_3D('',#533,#436,#437);
#359=AXIS2_PLACEMENT_3D('',#535,#438,#439);
#360=AXIS2_PLACEMENT_3D('',#536,#440,#441);
#361=AXIS2_PLACEMENT_3D('',#537,#442,#443);
#362=AXIS2_PLACEMENT_3D('',#539,#444,#445);
#363=AXIS2_PLACEMENT_3D('',#540,#446,#447);
#364=AXIS2_PLACEMENT_3D('',#541,#448,#449);
#365=AXIS2_PLACEMENT_3D('',#543,#450,#451);
#366=AXIS2_PLACEMENT_3D('',#544,#452,#453);
#367=AXIS2_PLACEMENT_3D('',#545,#454,#455);
#368=AXIS2_PLACEMENT_3D('',#547,#456,#457);
#369=AXIS2_PLACEMENT_3D('',#548,#458,#459);
#370=AXIS2_PLACEMENT_3D('',#549,#460,#461);
#371=AXIS2_PLACEMENT_3D('',#551,#462,#463);
#372=AXIS2_PLACEMENT_3D('',#552,#464,#465);
#373=DIRECTION('',(0.,0.,1.));
#374=DIRECTION('',(1.,0.,0.));
#375=DIRECTION('',(0.,0.,1.));
#376=DIRECTION('',(1.,0.,0.));
#377=DIRECTION('',(0.,0.,1.));
#378=DIRECTION('',(1.,0.,0.));
#379=DIRECTION('',(0.,0.,1.));
#380=DIRECTION('',(1.,0.,0.));
#381=DIRECTION('',(0.,0.,1.));
#382=DIRECTION('',(1.,0.,0.));
#383=DIRECTION('',(0.,-1.,0.));
#384=DIRECTION('',(0.,0.,-1.));
#385=DIRECTION('',(0.999999999999998,0.,0.));
#386=DIRECTION('',(-1.,0.,0.));
#387=DIRECTION('',(0.,-1.,0.));
#388=DIRECTION('',(1.,0.,0.));
#389=DIRECTION('',(0.,1.,0.));
#390=DIRECTION('',(1.,0.,0.));
#391=DIRECTION('',(0.,0.,1.));
#392=DIRECTION('',(1.,0.,0.));
#393=DIRECTION('',(0.,0.,1.));
#394=DIRECTION('',(-1.,0.,0.));
#395=DIRECTION('',(0.,0.,1.));
#396=DIRECTION('',(1.,0.,0.));
#397=DIRECTION('',(0.,0.,1.));
#398=DIRECTION('',(1.,0.,0.));
#399=DIRECTION('',(0.,-1.,0.));
#400=DIRECTION('',(0.,0.,-1.));
#401=DIRECTION('',(0.,0.707106781186548,0.707106781186548));
#402=DIRECTION('',(0.,0.,1.));
#403=DIRECTION('',(0.,-1.,0.));
#404=DIRECTION('',(-1.,0.,0.));
#405=DIRECTION('',(0.,0.,1.));
#406=DIRECTION('',(0.,0.,1.));
#407=DIRECTION('',(-1.,0.,0.));
#408=DIRECTION('',(0.,1.,0.));
#409=DIRECTION('',(0.,0.,1.));
#410=DIRECTION('',(0.,1.,0.));
#411=DIRECTION('',(0.,0.,-1.));
#412=DIRECTION('',(-1.,0.,0.));
#413=DIRECTION('',(0.,0.,1.));
#414=DIRECTION('',(0.,1.,0.));
#415=DIRECTION('',(1.,0.,0.));
#416=DIRECTION('',(0.,0.,-1.));
#417=DIRECTION('',(0.,-0.707106781186548,-0.707106781186548));
#418=DIRECTION('',(0.,0.707106781186548,-0.707106781186548));
#419=DIRECTION('',(-1.,0.,0.));
#420=DIRECTION('',(0.,1.,0.));
#421=DIRECTION('',(0.,0.,1.));
#422=DIRECTION('',(-1.,0.,0.));
#423=DIRECTION('',(0.,0.,1.));
#424=DIRECTION('',(0.,0.,-1.));
#425=DIRECTION('',(1.,0.,0.));
#426=DIRECTION('',(0.,1.,0.));
#427=DIRECTION('',(0.,0.,1.));
#428=DIRECTION('',(0.,0.,-1.));
#429=DIRECTION('',(-1.,0.,0.));
#430=DIRECTION('',(0.,0.,1.));
#431=DIRECTION('',(-0.999999999999998,0.,0.));
#432=DIRECTION('',(0.,0.,-1.));
#433=DIRECTION('',(-1.,0.,0.));
#434=DIRECTION('',(0.,0.,1.));
#435=DIRECTION('',(0.999999999999998,0.,0.));
#436=DIRECTION('',(0.,0.,-1.));
#437=DIRECTION('',(1.,0.,0.));
#438=DIRECTION('',(0.,0.,-1.));
#439=DIRECTION('',(-1.,0.,0.));
#440=DIRECTION('',(0.,0.,-1.));
#441=DIRECTION('',(1.,0.,0.));
#442=DIRECTION('',(0.,0.,-1.));
#443=DIRECTION('',(1.,0.,0.));
#444=DIRECTION('',(0.,0.,-1.));
#445=DIRECTION('',(1.,0.,0.));
#446=DIRECTION('',(0.,0.,-1.));
#447=DIRECTION('',(-1.,0.,0.));
#448=DIRECTION('',(0.,0.,-1.));
#449=DIRECTION('',(1.,0.,0.));
#450=DIRECTION('',(0.,0.,-1.));
#451=DIRECTION('',(-1.,0.,0.));
#452=DIRECTION('',(0.,0.,-1.));
#453=DIRECTION('',(1.,0.,0.));
#454=DIRECTION('',(0.,0.,-1.));
#455=DIRECTION('',(1.,0.,0.));
#456=DIRECTION('',(0.,0.,-1.));
#457=DIRECTION('',(-1.,0.,0.));
#458=DIRECTION('',(0.,0.,-1.));
#459=DIRECTION('',(1.,0.,0.));
#460=DIRECTION('',(0.,0.,-1.));
#461=DIRECTION('',(1.,0.,0.));
#462=DIRECTION('',(0.,0.,-1.));
#463=DIRECTION('',(-1.,0.,0.));
#464=DIRECTION('',(0.,0.,-1.));
#465=DIRECTION('',(1.,0.,0.));
#466=CARTESIAN_POINT('',(0.,0.,0.));
#467=CARTESIAN_POINT('',(83.8,196.2,145.7));
#468=CARTESIAN_POINT('',(88.8,196.2,145.7));
#469=CARTESIAN_POINT('',(243.5,119.3,145.7));
#470=CARTESIAN_POINT('',(248.5,119.3,145.7));
#471=CARTESIAN_POINT('',(83.8,119.3,145.7));
#472=CARTESIAN_POINT('',(88.8,119.3,145.7));
#473=CARTESIAN_POINT('',(83.8,42.4,145.7));
#474=CARTESIAN_POINT('',(88.8,42.4,145.7));
#475=CARTESIAN_POINT('',(215.4,119.3,145.7));
#476=CARTESIAN_POINT('',(215.4,59.,145.7));
#477=CARTESIAN_POINT('',(215.4,7.1,145.7));
#478=CARTESIAN_POINT('',(221.3,59.,145.7));
#479=CARTESIAN_POINT('',(221.3,64.9,145.7));
#480=CARTESIAN_POINT('',(163.7,64.9,145.7));
#481=CARTESIAN_POINT('',(327.4,64.9,145.7));
#482=CARTESIAN_POINT('',(327.4,119.3,145.7));
#483=CARTESIAN_POINT('',(327.4,238.6,145.7));
#484=CARTESIAN_POINT('',(163.7,238.6,145.7));
#485=CARTESIAN_POINT('',(0.,238.6,145.7));
#486=CARTESIAN_POINT('',(0.,119.3,145.7));
#487=CARTESIAN_POINT('',(0.,7.1,145.7));
#488=CARTESIAN_POINT('',(163.7,7.1,145.7));
#489=CARTESIAN_POINT('',(163.7,119.3,145.7));
#490=CARTESIAN_POINT('',(215.4,0.,115.8));
#491=CARTESIAN_POINT('',(215.4,0.,115.8));
#492=CARTESIAN_POINT('',(215.4,0.,138.6));
#493=CARTESIAN_POINT('',(163.7,0.,138.6));
#494=CARTESIAN_POINT('',(0.,0.,138.6));
#495=CARTESIAN_POINT('',(0.,0.,0.));
#496=CARTESIAN_POINT('',(0.,0.,0.));
#497=CARTESIAN_POINT('',(163.7,0.,0.));
#498=CARTESIAN_POINT('',(327.4,0.,0.));
#499=CARTESIAN_POINT('',(327.4,0.,0.));
#500=CARTESIAN_POINT('',(327.4,0.,115.8));
#501=CARTESIAN_POINT('',(271.4,0.,115.8));
#502=CARTESIAN_POINT('',(163.7,0.,0.));
#503=CARTESIAN_POINT('',(0.,-9.65000000000001,128.95));
#504=CARTESIAN_POINT('',(0.,238.6,0.));
#505=CARTESIAN_POINT('',(0.,238.6,0.));
#506=CARTESIAN_POINT('',(0.,119.3,0.));
#507=CARTESIAN_POINT('',(0.,119.3,0.));
#508=CARTESIAN_POINT('',(327.4,238.6,0.));
#509=CARTESIAN_POINT('',(327.4,238.6,0.));
#510=CARTESIAN_POINT('',(163.7,238.6,0.));
#511=CARTESIAN_POINT('',(163.7,238.6,0.));
#512=CARTESIAN_POINT('',(327.4,119.3,0.));
#513=CARTESIAN_POINT('',(163.7,119.3,0.));
#514=CARTESIAN_POINT('',(327.4,64.9,115.8));
#515=CARTESIAN_POINT('',(327.4,64.9,115.8));
#516=CARTESIAN_POINT('',(327.4,32.45,115.8));
#517=CARTESIAN_POINT('',(327.4,119.3,0.));
#518=CARTESIAN_POINT('',(215.4,0.,138.6));
#519=CARTESIAN_POINT('',(163.7,0.,138.6));
#520=CARTESIAN_POINT('',(215.4,32.45,115.8));
#521=CARTESIAN_POINT('',(215.4,59.,115.8));
#522=CARTESIAN_POINT('',(215.4,59.,145.7));
#523=CARTESIAN_POINT('',(215.4,32.45,115.8));
#524=CARTESIAN_POINT('',(221.3,64.9,115.8));
#525=CARTESIAN_POINT('',(221.3,64.9,115.8));
#526=CARTESIAN_POINT('',(271.4,64.9,115.8));
#527=CARTESIAN_POINT('',(271.4,64.9,115.8));
#528=CARTESIAN_POINT('',(243.5,42.4,115.8));
#529=CARTESIAN_POINT('',(238.5,42.4,115.8));
#530=CARTESIAN_POINT('',(221.3,59.,115.8));
#531=CARTESIAN_POINT('',(271.4,32.45,115.8));
#532=CARTESIAN_POINT('',(221.3,59.,115.8));
#533=CARTESIAN_POINT('',(83.8,42.4,57.9));
#534=CARTESIAN_POINT('',(88.8,42.4,57.9));
#535=CARTESIAN_POINT('',(83.8,42.4,57.9));
#536=CARTESIAN_POINT('',(83.8,42.4,145.75));
#537=CARTESIAN_POINT('',(243.5,42.4,79.4));
#538=CARTESIAN_POINT('',(248.5,42.4,79.4));
#539=CARTESIAN_POINT('',(243.5,42.4,145.75));
#540=CARTESIAN_POINT('',(243.5,42.4,79.4));
#541=CARTESIAN_POINT('',(83.8,119.3,74.5));
#542=CARTESIAN_POINT('',(88.8,119.3,74.5));
#543=CARTESIAN_POINT('',(83.8,119.3,74.5));
#544=CARTESIAN_POINT('',(83.8,119.3,145.75));
#545=CARTESIAN_POINT('',(243.5,119.3,91.8));
#546=CARTESIAN_POINT('',(248.5,119.3,91.8));
#547=CARTESIAN_POINT('',(243.5,119.3,91.8));
#548=CARTESIAN_POINT('',(243.5,119.3,145.75));
#549=CARTESIAN_POINT('',(83.8,196.2,55.3));
#550=CARTESIAN_POINT('',(88.8,196.2,55.3));
#551=CARTESIAN_POINT('',(83.8,196.2,55.3));
#552=CARTESIAN_POINT('',(83.8,196.2,145.75));
#553=MECHANICAL_DESIGN_GEOMETRIC_PRESENTATION_REPRESENTATION('',(#24),#554);
#554=(
GEOMETRIC_REPRESENTATION_CONTEXT(3)
GLOBAL_UNCERTAINTY_ASSIGNED_CONTEXT((#555))
GLOBAL_UNIT_ASSIGNED_CONTEXT((#561,#557,#556))
REPRESENTATION_CONTEXT('featured_part_06942','TOP_LEVEL_ASSEMBLY_PART')
);
#555=UNCERTAINTY_MEASURE_WITH_UNIT(LENGTH_MEASURE(2.E-5),#561,
'DISTANCE_ACCURACY_VALUE','Maximum Tolerance applied to model');
#556=(
NAMED_UNIT(*)
SI_UNIT($,.STERADIAN.)
SOLID_ANGLE_UNIT()
);
#557=(
CONVERSION_BASED_UNIT('DEGREE',#559)
NAMED_UNIT(#558)
PLANE_ANGLE_UNIT()
);
#558=DIMENSIONAL_EXPONENTS(0.,0.,0.,0.,0.,0.,0.);
#559=PLANE_ANGLE_MEASURE_WITH_UNIT(PLANE_ANGLE_MEASURE(0.0174532925),#560);
#560=(
NAMED_UNIT(*)
PLANE_ANGLE_UNIT()
SI_UNIT($,.RADIAN.)
);
#561=(
LENGTH_UNIT()
NAMED_UNIT(*)
SI_UNIT(.MILLI.,.METRE.)
);
ENDSEC;
END-ISO-10303-21;
