ISO-10303-21;
HEADER;
/* Generated by software containing ST-Developer
 * from STEP Tools, Inc. (www.steptools.com) 
 */
/* OPTION: using custom schema-name function */

FILE_DESCRIPTION(
/* description */ (''),
/* implementation_level */ '2;1');

FILE_NAME(
/* name */ 'featured_part_05082.stp',
/* time_stamp */ '2026-07-08T23:02:24-04:00',
/* author */ (''),
/* organization */ (''),
/* preprocessor_version */ 'ST-DEVELOPER v20.1',
/* originating_system */ 'SIEMENS PLM Software NX2512.6002',
/* authorisation */ '');

FILE_SCHEMA (('AUTOMOTIVE_DESIGN { 1 0 10303 214 3 1 1 1 }'));
ENDSEC;

DATA;
#10=SHAPE_REPRESENTATION_RELATIONSHIP('None',
'relationship between featured_part_05082-None and featured_part_05082
-None',#22,#11);
#11=ADVANCED_BREP_SHAPE_REPRESENTATION('featured_part_05082-None',(#32),
#458);
#12=SHAPE_DEFINITION_REPRESENTATION(#13,#22);
#13=PRODUCT_DEFINITION_SHAPE('','',#14);
#14=PRODUCT_DEFINITION(' ','',#16,#15);
#15=PRODUCT_DEFINITION_CONTEXT('part definition',#21,'design');
#16=PRODUCT_DEFINITION_FORMATION_WITH_SPECIFIED_SOURCE(' ',' ',#18,
 .NOT_KNOWN.);
#17=PRODUCT_RELATED_PRODUCT_CATEGORY('part','',(#18));
#18=PRODUCT('featured_part_05082','featured_part_05082',' ',(#19));
#19=PRODUCT_CONTEXT(' ',#21,'mechanical');
#20=APPLICATION_PROTOCOL_DEFINITION('international standard',
'automotive_design',2010,#21);
#21=APPLICATION_CONTEXT(
'core data for automotive mechanical design processes');
#22=SHAPE_REPRESENTATION('featured_part_05082-None',(#287),#458);
#23=PRESENTATION_LAYER_ASSIGNMENT('1','Layer 1',(#32));
#24=STYLED_ITEM('',(#25),#32);
#25=PRESENTATION_STYLE_ASSIGNMENT((#26));
#26=SURFACE_STYLE_USAGE(.BOTH.,#27);
#27=SURFACE_SIDE_STYLE('',(#28));
#28=SURFACE_STYLE_FILL_AREA(#29);
#29=FILL_AREA_STYLE('',(#30));
#30=FILL_AREA_STYLE_COLOUR('',#31);
#31=COLOUR_RGB('medium steel',0.611764705882353,0.658823529411765,0.670588235294118);
#32=MANIFOLD_SOLID_BREP('',#33);
#33=CLOSED_SHELL('',(#45,#46,#47,#48,#49,#50,#51,#52,#53,#54,#55,#56,#57,
#58));
#34=CYLINDRICAL_SURFACE('',#305,14.8);
#35=CYLINDRICAL_SURFACE('',#306,9.4);
#36=CYLINDRICAL_SURFACE('',#309,2.95);
#37=ELLIPSE('',#298,4.17193000900063,2.95);
#38=ELLIPSE('',#299,13.2936074863071,9.4);
#39=FACE_BOUND('',#85,.T.);
#40=FACE_BOUND('',#86,.T.);
#41=FACE_BOUND('',#93,.T.);
#42=FACE_BOUND('',#94,.T.);
#43=FACE_BOUND('',#96,.T.);
#44=FACE_BOUND('',#97,.T.);
#45=ADVANCED_FACE('',(#70),#59,.T.);
#46=ADVANCED_FACE('',(#71),#60,.T.);
#47=ADVANCED_FACE('',(#72),#61,.T.);
#48=ADVANCED_FACE('',(#73),#62,.T.);
#49=ADVANCED_FACE('',(#39,#40),#63,.T.);
#50=ADVANCED_FACE('',(#74),#64,.T.);
#51=ADVANCED_FACE('',(#75),#65,.F.);
#52=ADVANCED_FACE('',(#76),#66,.F.);
#53=ADVANCED_FACE('',(#77),#67,.F.);
#54=ADVANCED_FACE('',(#78),#68,.F.);
#55=ADVANCED_FACE('',(#79),#34,.F.);
#56=ADVANCED_FACE('',(#41,#42),#35,.F.);
#57=ADVANCED_FACE('',(#80),#69,.F.);
#58=ADVANCED_FACE('',(#43,#44),#36,.F.);
#59=PLANE('',#291);
#60=PLANE('',#292);
#61=PLANE('',#293);
#62=PLANE('',#294);
#63=PLANE('',#296);
#64=PLANE('',#297);
#65=PLANE('',#300);
#66=PLANE('',#301);
#67=PLANE('',#303);
#68=PLANE('',#304);
#69=PLANE('',#308);
#70=FACE_OUTER_BOUND('',#81,.T.);
#71=FACE_OUTER_BOUND('',#82,.T.);
#72=FACE_OUTER_BOUND('',#83,.T.);
#73=FACE_OUTER_BOUND('',#84,.T.);
#74=FACE_OUTER_BOUND('',#87,.T.);
#75=FACE_OUTER_BOUND('',#88,.T.);
#76=FACE_OUTER_BOUND('',#89,.T.);
#77=FACE_OUTER_BOUND('',#90,.T.);
#78=FACE_OUTER_BOUND('',#91,.T.);
#79=FACE_OUTER_BOUND('',#92,.T.);
#80=FACE_OUTER_BOUND('',#95,.T.);
#81=EDGE_LOOP('',(#152,#153,#154,#155,#156,#157,#158,#159,#160,#161,#162));
#82=EDGE_LOOP('',(#163,#164,#165,#166,#167));
#83=EDGE_LOOP('',(#168,#169,#170,#171,#172,#173));
#84=EDGE_LOOP('',(#174,#175,#176,#177,#178,#179,#180));
#85=EDGE_LOOP('',(#181));
#86=EDGE_LOOP('',(#182,#183,#184,#185));
#87=EDGE_LOOP('',(#186,#187,#188,#189));
#88=EDGE_LOOP('',(#190,#191,#192,#193,#194,#195,#196,#197));
#89=EDGE_LOOP('',(#198,#199,#200,#201));
#90=EDGE_LOOP('',(#202,#203,#204,#205,#206));
#91=EDGE_LOOP('',(#207,#208,#209,#210));
#92=EDGE_LOOP('',(#211,#212,#213,#214));
#93=EDGE_LOOP('',(#215));
#94=EDGE_LOOP('',(#216,#217));
#95=EDGE_LOOP('',(#218));
#96=EDGE_LOOP('',(#219,#220));
#97=EDGE_LOOP('',(#221));
#98=LINE('',#387,#125);
#99=LINE('',#391,#126);
#100=LINE('',#393,#127);
#101=LINE('',#395,#128);
#102=LINE('',#399,#129);
#103=LINE('',#401,#130);
#104=LINE('',#403,#131);
#105=LINE('',#405,#132);
#106=LINE('',#407,#133);
#107=LINE('',#410,#134);
#108=LINE('',#411,#135);
#109=LINE('',#413,#136);
#110=LINE('',#415,#137);
#111=LINE('',#417,#138);
#112=LINE('',#419,#139);
#113=LINE('',#421,#140);
#114=LINE('',#423,#141);
#115=LINE('',#425,#142);
#116=LINE('',#426,#143);
#117=LINE('',#428,#144);
#118=LINE('',#430,#145);
#119=LINE('',#434,#146);
#120=LINE('',#436,#147);
#121=LINE('',#441,#148);
#122=LINE('',#443,#149);
#123=LINE('',#447,#150);
#124=LINE('',#449,#151);
#125=VECTOR('',#314,1.);
#126=VECTOR('',#317,1.);
#127=VECTOR('',#318,1.);
#128=VECTOR('',#319,1.);
#129=VECTOR('',#322,1.);
#130=VECTOR('',#323,1.);
#131=VECTOR('',#324,1.);
#132=VECTOR('',#325,1.);
#133=VECTOR('',#328,1.);
#134=VECTOR('',#329,1.);
#135=VECTOR('',#330,1.);
#136=VECTOR('',#331,1.);
#137=VECTOR('',#334,1.);
#138=VECTOR('',#335,1.);
#139=VECTOR('',#336,1.);
#140=VECTOR('',#337,1.);
#141=VECTOR('',#340,1.);
#142=VECTOR('',#341,1.);
#143=VECTOR('',#342,1.);
#144=VECTOR('',#343,1.);
#145=VECTOR('',#344,1.);
#146=VECTOR('',#349,1.);
#147=VECTOR('',#352,1.);
#148=VECTOR('',#361,1.);
#149=VECTOR('',#362,1.);
#150=VECTOR('',#367,1.);
#151=VECTOR('',#370,1.);
#152=ORIENTED_EDGE('',*,*,#246,.F.);
#153=ORIENTED_EDGE('',*,*,#247,.T.);
#154=ORIENTED_EDGE('',*,*,#248,.F.);
#155=ORIENTED_EDGE('',*,*,#249,.T.);
#156=ORIENTED_EDGE('',*,*,#250,.F.);
#157=ORIENTED_EDGE('',*,*,#251,.F.);
#158=ORIENTED_EDGE('',*,*,#252,.T.);
#159=ORIENTED_EDGE('',*,*,#253,.F.);
#160=ORIENTED_EDGE('',*,*,#254,.F.);
#161=ORIENTED_EDGE('',*,*,#255,.F.);
#162=ORIENTED_EDGE('',*,*,#256,.T.);
#163=ORIENTED_EDGE('',*,*,#257,.T.);
#164=ORIENTED_EDGE('',*,*,#258,.T.);
#165=ORIENTED_EDGE('',*,*,#255,.T.);
#166=ORIENTED_EDGE('',*,*,#259,.F.);
#167=ORIENTED_EDGE('',*,*,#260,.T.);
#168=ORIENTED_EDGE('',*,*,#261,.F.);
#169=ORIENTED_EDGE('',*,*,#262,.F.);
#170=ORIENTED_EDGE('',*,*,#263,.F.);
#171=ORIENTED_EDGE('',*,*,#264,.T.);
#172=ORIENTED_EDGE('',*,*,#259,.T.);
#173=ORIENTED_EDGE('',*,*,#254,.T.);
#174=ORIENTED_EDGE('',*,*,#265,.F.);
#175=ORIENTED_EDGE('',*,*,#266,.T.);
#176=ORIENTED_EDGE('',*,*,#250,.T.);
#177=ORIENTED_EDGE('',*,*,#267,.T.);
#178=ORIENTED_EDGE('',*,*,#268,.F.);
#179=ORIENTED_EDGE('',*,*,#269,.T.);
#180=ORIENTED_EDGE('',*,*,#263,.T.);
#181=ORIENTED_EDGE('',*,*,#270,.F.);
#182=ORIENTED_EDGE('',*,*,#271,.F.);
#183=ORIENTED_EDGE('',*,*,#260,.F.);
#184=ORIENTED_EDGE('',*,*,#264,.F.);
#185=ORIENTED_EDGE('',*,*,#269,.F.);
#186=ORIENTED_EDGE('',*,*,#268,.T.);
#187=ORIENTED_EDGE('',*,*,#272,.T.);
#188=ORIENTED_EDGE('',*,*,#257,.F.);
#189=ORIENTED_EDGE('',*,*,#271,.T.);
#190=ORIENTED_EDGE('',*,*,#273,.F.);
#191=ORIENTED_EDGE('',*,*,#256,.F.);
#192=ORIENTED_EDGE('',*,*,#258,.F.);
#193=ORIENTED_EDGE('',*,*,#272,.F.);
#194=ORIENTED_EDGE('',*,*,#267,.F.);
#195=ORIENTED_EDGE('',*,*,#249,.F.);
#196=ORIENTED_EDGE('',*,*,#274,.F.);
#197=ORIENTED_EDGE('',*,*,#247,.F.);
#198=ORIENTED_EDGE('',*,*,#253,.T.);
#199=ORIENTED_EDGE('',*,*,#275,.T.);
#200=ORIENTED_EDGE('',*,*,#276,.T.);
#201=ORIENTED_EDGE('',*,*,#261,.T.);
#202=ORIENTED_EDGE('',*,*,#276,.F.);
#203=ORIENTED_EDGE('',*,*,#277,.T.);
#204=ORIENTED_EDGE('',*,*,#278,.F.);
#205=ORIENTED_EDGE('',*,*,#265,.T.);
#206=ORIENTED_EDGE('',*,*,#262,.T.);
#207=ORIENTED_EDGE('',*,*,#278,.T.);
#208=ORIENTED_EDGE('',*,*,#279,.T.);
#209=ORIENTED_EDGE('',*,*,#251,.T.);
#210=ORIENTED_EDGE('',*,*,#266,.F.);
#211=ORIENTED_EDGE('',*,*,#252,.F.);
#212=ORIENTED_EDGE('',*,*,#279,.F.);
#213=ORIENTED_EDGE('',*,*,#277,.F.);
#214=ORIENTED_EDGE('',*,*,#275,.F.);
#215=ORIENTED_EDGE('',*,*,#270,.T.);
#216=ORIENTED_EDGE('',*,*,#248,.T.);
#217=ORIENTED_EDGE('',*,*,#274,.T.);
#218=ORIENTED_EDGE('',*,*,#280,.F.);
#219=ORIENTED_EDGE('',*,*,#246,.T.);
#220=ORIENTED_EDGE('',*,*,#273,.T.);
#221=ORIENTED_EDGE('',*,*,#280,.T.);
#222=VERTEX_POINT('',#385);
#223=VERTEX_POINT('',#386);
#224=VERTEX_POINT('',#388);
#225=VERTEX_POINT('',#390);
#226=VERTEX_POINT('',#392);
#227=VERTEX_POINT('',#394);
#228=VERTEX_POINT('',#396);
#229=VERTEX_POINT('',#398);
#230=VERTEX_POINT('',#400);
#231=VERTEX_POINT('',#402);
#232=VERTEX_POINT('',#404);
#233=VERTEX_POINT('',#408);
#234=VERTEX_POINT('',#409);
#235=VERTEX_POINT('',#412);
#236=VERTEX_POINT('',#416);
#237=VERTEX_POINT('',#418);
#238=VERTEX_POINT('',#420);
#239=VERTEX_POINT('',#424);
#240=VERTEX_POINT('',#427);
#241=VERTEX_POINT('',#429);
#242=VERTEX_POINT('',#433);
#243=VERTEX_POINT('',#442);
#244=VERTEX_POINT('',#446);
#245=VERTEX_POINT('',#454);
#246=EDGE_CURVE('',#222,#223,#281,.T.);
#247=EDGE_CURVE('',#222,#224,#98,.T.);
#248=EDGE_CURVE('',#225,#224,#282,.T.);
#249=EDGE_CURVE('',#225,#226,#99,.T.);
#250=EDGE_CURVE('',#227,#226,#100,.T.);
#251=EDGE_CURVE('',#228,#227,#101,.T.);
#252=EDGE_CURVE('',#228,#229,#283,.T.);
#253=EDGE_CURVE('',#230,#229,#102,.T.);
#254=EDGE_CURVE('',#231,#230,#103,.T.);
#255=EDGE_CURVE('',#232,#231,#104,.T.);
#256=EDGE_CURVE('',#232,#223,#105,.T.);
#257=EDGE_CURVE('',#233,#234,#106,.T.);
#258=EDGE_CURVE('',#234,#232,#107,.T.);
#259=EDGE_CURVE('',#235,#231,#108,.T.);
#260=EDGE_CURVE('',#235,#233,#109,.T.);
#261=EDGE_CURVE('',#236,#230,#110,.T.);
#262=EDGE_CURVE('',#237,#236,#111,.T.);
#263=EDGE_CURVE('',#238,#237,#112,.T.);
#264=EDGE_CURVE('',#238,#235,#113,.T.);
#265=EDGE_CURVE('',#239,#237,#114,.T.);
#266=EDGE_CURVE('',#239,#227,#115,.T.);
#267=EDGE_CURVE('',#226,#240,#116,.T.);
#268=EDGE_CURVE('',#241,#240,#117,.T.);
#269=EDGE_CURVE('',#241,#238,#118,.T.);
#270=EDGE_CURVE('',#242,#242,#284,.T.);
#271=EDGE_CURVE('',#233,#241,#119,.T.);
#272=EDGE_CURVE('',#240,#234,#120,.T.);
#273=EDGE_CURVE('',#223,#222,#37,.T.);
#274=EDGE_CURVE('',#224,#225,#38,.T.);
#275=EDGE_CURVE('',#229,#243,#121,.T.);
#276=EDGE_CURVE('',#243,#236,#122,.T.);
#277=EDGE_CURVE('',#243,#244,#285,.T.);
#278=EDGE_CURVE('',#239,#244,#123,.T.);
#279=EDGE_CURVE('',#244,#228,#124,.T.);
#280=EDGE_CURVE('',#245,#245,#286,.T.);
#281=CIRCLE('',#288,2.95);
#282=CIRCLE('',#289,9.4);
#283=CIRCLE('',#290,14.8);
#284=CIRCLE('',#295,9.4);
#285=CIRCLE('',#302,14.8);
#286=CIRCLE('',#307,2.95);
#287=AXIS2_PLACEMENT_3D('',#383,#310,#311);
#288=AXIS2_PLACEMENT_3D('',#384,#312,#313);
#289=AXIS2_PLACEMENT_3D('',#389,#315,#316);
#290=AXIS2_PLACEMENT_3D('',#397,#320,#321);
#291=AXIS2_PLACEMENT_3D('',#406,#326,#327);
#292=AXIS2_PLACEMENT_3D('',#414,#332,#333);
#293=AXIS2_PLACEMENT_3D('',#422,#338,#339);
#294=AXIS2_PLACEMENT_3D('',#431,#345,#346);
#295=AXIS2_PLACEMENT_3D('',#432,#347,#348);
#296=AXIS2_PLACEMENT_3D('',#435,#350,#351);
#297=AXIS2_PLACEMENT_3D('',#437,#353,#354);
#298=AXIS2_PLACEMENT_3D('',#438,#355,#356);
#299=AXIS2_PLACEMENT_3D('',#439,#357,#358);
#300=AXIS2_PLACEMENT_3D('',#440,#359,#360);
#301=AXIS2_PLACEMENT_3D('',#444,#363,#364);
#302=AXIS2_PLACEMENT_3D('',#445,#365,#366);
#303=AXIS2_PLACEMENT_3D('',#448,#368,#369);
#304=AXIS2_PLACEMENT_3D('',#450,#371,#372);
#305=AXIS2_PLACEMENT_3D('',#451,#373,#374);
#306=AXIS2_PLACEMENT_3D('',#452,#375,#376);
#307=AXIS2_PLACEMENT_3D('',#453,#377,#378);
#308=AXIS2_PLACEMENT_3D('',#455,#379,#380);
#309=AXIS2_PLACEMENT_3D('',#456,#381,#382);
#310=DIRECTION('',(0.,0.,1.));
#311=DIRECTION('',(1.,0.,0.));
#312=DIRECTION('',(0.,0.,1.));
#313=DIRECTION('',(1.,0.,0.));
#314=DIRECTION('',(0.,1.,0.));
#315=DIRECTION('',(0.,0.,1.));
#316=DIRECTION('',(1.,0.,0.));
#317=DIRECTION('',(0.,1.,0.));
#318=DIRECTION('',(1.,0.,0.));
#319=DIRECTION('',(0.,1.,0.));
#320=DIRECTION('',(0.,0.,-1.));
#321=DIRECTION('',(1.,0.,0.));
#322=DIRECTION('',(1.,0.,0.));
#323=DIRECTION('',(0.,1.,0.));
#324=DIRECTION('',(-1.,0.,0.));
#325=DIRECTION('',(0.,1.,0.));
#326=DIRECTION('',(0.,0.,1.));
#327=DIRECTION('',(1.,0.,0.));
#328=DIRECTION('',(0.,0.,1.));
#329=DIRECTION('',(-0.707106781186548,0.,0.707106781186548));
#330=DIRECTION('',(0.,0.,1.));
#331=DIRECTION('',(1.,0.,0.));
#332=DIRECTION('',(0.,-1.,0.));
#333=DIRECTION('',(0.,0.,-1.));
#334=DIRECTION('',(0.,0.,1.));
#335=DIRECTION('',(0.,-1.,0.));
#336=DIRECTION('',(0.,0.,1.));
#337=DIRECTION('',(0.,-1.,0.));
#338=DIRECTION('',(-1.,0.,0.));
#339=DIRECTION('',(0.,0.,1.));
#340=DIRECTION('',(-1.,0.,0.));
#341=DIRECTION('',(0.,0.,1.));
#342=DIRECTION('',(0.707106781186548,0.,-0.707106781186548));
#343=DIRECTION('',(0.,0.,1.));
#344=DIRECTION('',(-1.,0.,0.));
#345=DIRECTION('',(0.,1.,0.));
#346=DIRECTION('',(0.,0.,1.));
#347=DIRECTION('',(0.,0.,-1.));
#348=DIRECTION('',(-1.,0.,0.));
#349=DIRECTION('',(0.,1.,0.));
#350=DIRECTION('',(0.,0.,-1.));
#351=DIRECTION('',(-1.,0.,0.));
#352=DIRECTION('',(0.,-1.,0.));
#353=DIRECTION('',(1.,0.,0.));
#354=DIRECTION('',(0.,0.,-1.));
#355=DIRECTION('',(0.707106781186548,0.,0.707106781186548));
#356=DIRECTION('',(0.707106781186548,0.,-0.707106781186548));
#357=DIRECTION('',(0.707106781186548,0.,0.707106781186548));
#358=DIRECTION('',(0.707106781186548,0.,-0.707106781186548));
#359=DIRECTION('',(-0.707106781186547,0.,-0.707106781186547));
#360=DIRECTION('',(0.,-1.,0.));
#361=DIRECTION('',(0.,0.,-1.));
#362=DIRECTION('',(-1.,0.,0.));
#363=DIRECTION('',(0.,-1.,0.));
#364=DIRECTION('',(0.,0.,-1.));
#365=DIRECTION('',(0.,0.,1.));
#366=DIRECTION('',(-1.,0.,0.));
#367=DIRECTION('',(0.,-1.,0.));
#368=DIRECTION('',(0.,0.,-1.));
#369=DIRECTION('',(-1.,0.,0.));
#370=DIRECTION('',(0.,0.,1.));
#371=DIRECTION('',(1.,0.,0.));
#372=DIRECTION('',(0.,0.,-1.));
#373=DIRECTION('',(0.,0.,1.));
#374=DIRECTION('',(1.,0.,0.));
#375=DIRECTION('',(0.,0.,-1.));
#376=DIRECTION('',(1.,0.,0.));
#377=DIRECTION('',(0.,0.,-1.));
#378=DIRECTION('',(1.,0.,0.));
#379=DIRECTION('',(0.,0.,-1.));
#380=DIRECTION('',(-1.,0.,0.));
#381=DIRECTION('',(0.,0.,-1.));
#382=DIRECTION('',(1.,0.,0.));
#383=CARTESIAN_POINT('',(0.,0.,0.));
#384=CARTESIAN_POINT('',(424.6,200.6,100.2));
#385=CARTESIAN_POINT('',(423.9,203.465745976181,100.2));
#386=CARTESIAN_POINT('',(423.9,197.734254023819,100.2));
#387=CARTESIAN_POINT('',(423.9,131.3,100.2));
#388=CARTESIAN_POINT('',(423.9,230.195457671628,100.2));
#389=CARTESIAN_POINT('',(415.1,233.5,100.2));
#390=CARTESIAN_POINT('',(423.9,236.804542328372,100.2));
#391=CARTESIAN_POINT('',(423.9,131.3,100.2));
#392=CARTESIAN_POINT('',(423.9,262.6,100.2));
#393=CARTESIAN_POINT('',(215.75,262.6,100.2));
#394=CARTESIAN_POINT('',(72.1,262.6,100.2));
#395=CARTESIAN_POINT('',(72.1,131.3,100.2));
#396=CARTESIAN_POINT('',(72.1,223.7,100.2));
#397=CARTESIAN_POINT('',(57.3,223.7,100.2));
#398=CARTESIAN_POINT('',(57.3,208.9,100.2));
#399=CARTESIAN_POINT('',(215.75,208.9,100.2));
#400=CARTESIAN_POINT('',(0.,208.9,100.2));
#401=CARTESIAN_POINT('',(0.,131.3,100.2));
#402=CARTESIAN_POINT('',(0.,0.,100.2));
#403=CARTESIAN_POINT('',(215.75,0.,100.2));
#404=CARTESIAN_POINT('',(423.9,0.,100.2));
#405=CARTESIAN_POINT('',(423.9,131.3,100.2));
#406=CARTESIAN_POINT('',(215.75,131.3,100.2));
#407=CARTESIAN_POINT('',(431.5,0.,0.));
#408=CARTESIAN_POINT('',(431.5,0.,0.));
#409=CARTESIAN_POINT('',(431.5,0.,92.6));
#410=CARTESIAN_POINT('',(369.925,0.,154.175));
#411=CARTESIAN_POINT('',(0.,0.,0.));
#412=CARTESIAN_POINT('',(0.,0.,0.));
#413=CARTESIAN_POINT('',(215.75,0.,0.));
#414=CARTESIAN_POINT('',(215.75,0.,0.));
#415=CARTESIAN_POINT('',(0.,208.9,67.6));
#416=CARTESIAN_POINT('',(0.,208.9,67.6));
#417=CARTESIAN_POINT('',(0.,235.75,67.6));
#418=CARTESIAN_POINT('',(0.,262.6,67.6));
#419=CARTESIAN_POINT('',(0.,262.6,0.));
#420=CARTESIAN_POINT('',(0.,262.6,0.));
#421=CARTESIAN_POINT('',(0.,131.3,0.));
#422=CARTESIAN_POINT('',(0.,131.3,0.));
#423=CARTESIAN_POINT('',(36.05,262.6,67.6));
#424=CARTESIAN_POINT('',(72.1,262.6,67.6));
#425=CARTESIAN_POINT('',(72.1,262.6,67.6));
#426=CARTESIAN_POINT('',(369.925,262.6,154.175));
#427=CARTESIAN_POINT('',(431.5,262.6,92.6));
#428=CARTESIAN_POINT('',(431.5,262.6,0.));
#429=CARTESIAN_POINT('',(431.5,262.6,0.));
#430=CARTESIAN_POINT('',(215.75,262.6,0.));
#431=CARTESIAN_POINT('',(215.75,262.6,0.));
#432=CARTESIAN_POINT('',(415.1,233.5,0.));
#433=CARTESIAN_POINT('',(405.7,233.5,0.));
#434=CARTESIAN_POINT('',(431.5,131.3,0.));
#435=CARTESIAN_POINT('',(215.75,131.3,0.));
#436=CARTESIAN_POINT('',(431.5,131.3,92.6));
#437=CARTESIAN_POINT('',(431.5,131.3,0.));
#438=CARTESIAN_POINT('',(424.6,200.6,99.5));
#439=CARTESIAN_POINT('',(415.1,233.5,109.));
#440=CARTESIAN_POINT('',(431.5,131.3,92.6));
#441=CARTESIAN_POINT('',(57.3,208.9,67.6));
#442=CARTESIAN_POINT('',(57.3,208.9,67.6));
#443=CARTESIAN_POINT('',(36.05,208.9,67.6));
#444=CARTESIAN_POINT('',(36.05,208.9,67.6));
#445=CARTESIAN_POINT('',(57.3,223.7,67.6));
#446=CARTESIAN_POINT('',(72.1,223.7,67.6));
#447=CARTESIAN_POINT('',(72.1,235.75,67.6));
#448=CARTESIAN_POINT('',(36.05,235.75,67.6));
#449=CARTESIAN_POINT('',(72.1,223.7,100.2));
#450=CARTESIAN_POINT('',(72.1,235.75,67.6));
#451=CARTESIAN_POINT('',(57.3,223.7,67.6));
#452=CARTESIAN_POINT('',(415.1,233.5,100.25));
#453=CARTESIAN_POINT('',(424.6,200.6,67.6));
#454=CARTESIAN_POINT('',(427.55,200.6,67.6));
#455=CARTESIAN_POINT('',(424.6,200.6,67.6));
#456=CARTESIAN_POINT('',(424.6,200.6,100.25));
#457=MECHANICAL_DESIGN_GEOMETRIC_PRESENTATION_REPRESENTATION('',(#24),#458);
#458=(
GEOMETRIC_REPRESENTATION_CONTEXT(3)
GLOBAL_UNCERTAINTY_ASSIGNED_CONTEXT((#459))
GLOBAL_UNIT_ASSIGNED_CONTEXT((#465,#461,#460))
REPRESENTATION_CONTEXT('featured_part_05082','TOP_LEVEL_ASSEMBLY_PART')
);
#459=UNCERTAINTY_MEASURE_WITH_UNIT(LENGTH_MEASURE(2.E-5),#465,
'DISTANCE_ACCURACY_VALUE','Maximum Tolerance applied to model');
#460=(
NAMED_UNIT(*)
SI_UNIT($,.STERADIAN.)
SOLID_ANGLE_UNIT()
);
#461=(
CONVERSION_BASED_UNIT('DEGREE',#463)
NAMED_UNIT(#462)
PLANE_ANGLE_UNIT()
);
#462=DIMENSIONAL_EXPONENTS(0.,0.,0.,0.,0.,0.,0.);
#463=PLANE_ANGLE_MEASURE_WITH_UNIT(PLANE_ANGLE_MEASURE(0.0174532925),#464);
#464=(
NAMED_UNIT(*)
PLANE_ANGLE_UNIT()
SI_UNIT($,.RADIAN.)
);
#465=(
LENGTH_UNIT()
NAMED_UNIT(*)
SI_UNIT(.MILLI.,.METRE.)
);
ENDSEC;
END-ISO-10303-21;
