ISO-10303-21;
HEADER;
/* Generated by software containing ST-Developer
 * from STEP Tools, Inc. (www.steptools.com) 
 */
/* OPTION: using custom schema-name function */

FILE_DESCRIPTION(
/* description */ (''),
/* implementation_level */ '2;1');

FILE_NAME(
/* name */ 'featured_part_04900.stp',
/* time_stamp */ '2026-07-08T22:33:40-04:00',
/* author */ (''),
/* organization */ (''),
/* preprocessor_version */ 'ST-DEVELOPER v20.1',
/* originating_system */ 'SIEMENS PLM Software NX2512.6002',
/* authorisation */ '');

FILE_SCHEMA (('AUTOMOTIVE_DESIGN { 1 0 10303 214 3 1 1 1 }'));
ENDSEC;

DATA;
#10=SHAPE_REPRESENTATION_RELATIONSHIP('None',
'relationship between featured_part_04900-None and featured_part_04900
-None',#22,#11);
#11=ADVANCED_BREP_SHAPE_REPRESENTATION('featured_part_04900-None',(#32),
#592);
#12=SHAPE_DEFINITION_REPRESENTATION(#13,#22);
#13=PRODUCT_DEFINITION_SHAPE('','',#14);
#14=PRODUCT_DEFINITION(' ','',#16,#15);
#15=PRODUCT_DEFINITION_CONTEXT('part definition',#21,'design');
#16=PRODUCT_DEFINITION_FORMATION_WITH_SPECIFIED_SOURCE(' ',' ',#18,
 .NOT_KNOWN.);
#17=PRODUCT_RELATED_PRODUCT_CATEGORY('part','',(#18));
#18=PRODUCT('featured_part_04900','featured_part_04900',' ',(#19));
#19=PRODUCT_CONTEXT(' ',#21,'mechanical');
#20=APPLICATION_PROTOCOL_DEFINITION('international standard',
'automotive_design',2010,#21);
#21=APPLICATION_CONTEXT(
'core data for automotive mechanical design processes');
#22=SHAPE_REPRESENTATION('featured_part_04900-None',(#369),#592);
#23=PRESENTATION_LAYER_ASSIGNMENT('1','Layer 1',(#32));
#24=STYLED_ITEM('',(#25),#32);
#25=PRESENTATION_STYLE_ASSIGNMENT((#26));
#26=SURFACE_STYLE_USAGE(.BOTH.,#27);
#27=SURFACE_SIDE_STYLE('',(#28));
#28=SURFACE_STYLE_FILL_AREA(#29);
#29=FILL_AREA_STYLE('',(#30));
#30=FILL_AREA_STYLE_COLOUR('',#31);
#31=COLOUR_RGB('medium steel',0.611764705882353,0.658823529411765,0.670588235294118);
#32=MANIFOLD_SOLID_BREP('',#33);
#33=CLOSED_SHELL('',(#51,#52,#53,#54,#55,#56,#57,#58,#59,#60,#61,#62,#63,
#64,#65,#66,#67,#68));
#34=CYLINDRICAL_SURFACE('',#395,12.1);
#35=CYLINDRICAL_SURFACE('',#396,12.1);
#36=CYLINDRICAL_SURFACE('',#397,8.65);
#37=CYLINDRICAL_SURFACE('',#398,8.65);
#38=CYLINDRICAL_SURFACE('',#399,8.65);
#39=CYLINDRICAL_SURFACE('',#400,8.65);
#40=CYLINDRICAL_SURFACE('',#401,8.65);
#41=FACE_OUTER_BOUND('',#165,.T.);
#42=FACE_OUTER_BOUND('',#166,.T.);
#43=FACE_OUTER_BOUND('',#167,.T.);
#44=FACE_OUTER_BOUND('',#174,.T.);
#45=FACE_OUTER_BOUND('',#175,.T.);
#46=FACE_OUTER_BOUND('',#176,.T.);
#47=FACE_OUTER_BOUND('',#177,.T.);
#48=FACE_OUTER_BOUND('',#178,.T.);
#49=FACE_OUTER_BOUND('',#182,.T.);
#50=FACE_OUTER_BOUND('',#183,.T.);
#51=ADVANCED_FACE('',(#138,#139,#140,#141),#69,.T.);
#52=ADVANCED_FACE('',(#41),#70,.T.);
#53=ADVANCED_FACE('',(#42),#71,.T.);
#54=ADVANCED_FACE('',(#43),#72,.T.);
#55=ADVANCED_FACE('',(#142,#143,#144,#145,#146,#147),#73,.T.);
#56=ADVANCED_FACE('',(#44),#74,.T.);
#57=ADVANCED_FACE('',(#45),#75,.F.);
#58=ADVANCED_FACE('',(#46),#76,.F.);
#59=ADVANCED_FACE('',(#47),#77,.F.);
#60=ADVANCED_FACE('',(#48),#78,.F.);
#61=ADVANCED_FACE('',(#148,#149,#150),#79,.F.);
#62=ADVANCED_FACE('',(#49),#34,.F.);
#63=ADVANCED_FACE('',(#50),#35,.F.);
#64=ADVANCED_FACE('',(#151,#152),#36,.F.);
#65=ADVANCED_FACE('',(#153,#154),#37,.F.);
#66=ADVANCED_FACE('',(#155,#156),#38,.F.);
#67=ADVANCED_FACE('',(#157,#158),#39,.F.);
#68=ADVANCED_FACE('',(#159,#160),#40,.F.);
#69=PLANE('',#375);
#70=PLANE('',#376);
#71=PLANE('',#377);
#72=PLANE('',#378);
#73=PLANE('',#384);
#74=PLANE('',#385);
#75=PLANE('',#386);
#76=PLANE('',#387);
#77=PLANE('',#388);
#78=PLANE('',#389);
#79=PLANE('',#394);
#80=LINE('',#504,#109);
#81=LINE('',#509,#110);
#82=LINE('',#513,#111);
#83=LINE('',#515,#112);
#84=LINE('',#517,#113);
#85=LINE('',#519,#114);
#86=LINE('',#521,#115);
#87=LINE('',#523,#116);
#88=LINE('',#525,#117);
#89=LINE('',#527,#118);
#90=LINE('',#529,#119);
#91=LINE('',#531,#120);
#92=LINE('',#533,#121);
#93=LINE('',#535,#122);
#94=LINE('',#537,#123);
#95=LINE('',#539,#124);
#96=LINE('',#540,#125);
#97=LINE('',#542,#126);
#98=LINE('',#554,#127);
#99=LINE('',#556,#128);
#100=LINE('',#558,#129);
#101=LINE('',#560,#130);
#102=LINE('',#563,#131);
#103=LINE('',#565,#132);
#104=LINE('',#567,#133);
#105=LINE('',#570,#134);
#106=LINE('',#571,#135);
#107=LINE('',#573,#136);
#108=LINE('',#575,#137);
#109=VECTOR('',#410,1.);
#110=VECTOR('',#413,1.);
#111=VECTOR('',#416,1.);
#112=VECTOR('',#417,1.);
#113=VECTOR('',#418,1.);
#114=VECTOR('',#419,1.);
#115=VECTOR('',#420,1.);
#116=VECTOR('',#421,1.);
#117=VECTOR('',#424,1.);
#118=VECTOR('',#425,1.);
#119=VECTOR('',#426,1.);
#120=VECTOR('',#427,1.);
#121=VECTOR('',#430,1.);
#122=VECTOR('',#431,1.);
#123=VECTOR('',#432,1.);
#124=VECTOR('',#435,1.);
#125=VECTOR('',#436,1.);
#126=VECTOR('',#437,1.);
#127=VECTOR('',#450,1.);
#128=VECTOR('',#453,1.);
#129=VECTOR('',#454,1.);
#130=VECTOR('',#455,1.);
#131=VECTOR('',#460,1.);
#132=VECTOR('',#461,1.);
#133=VECTOR('',#464,1.);
#134=VECTOR('',#465,1.);
#135=VECTOR('',#466,1.);
#136=VECTOR('',#469,1.);
#137=VECTOR('',#470,1.);
#138=FACE_BOUND('',#161,.T.);
#139=FACE_BOUND('',#162,.T.);
#140=FACE_BOUND('',#163,.T.);
#141=FACE_BOUND('',#164,.T.);
#142=FACE_BOUND('',#168,.T.);
#143=FACE_BOUND('',#169,.T.);
#144=FACE_BOUND('',#170,.T.);
#145=FACE_BOUND('',#171,.T.);
#146=FACE_BOUND('',#172,.T.);
#147=FACE_BOUND('',#173,.T.);
#148=FACE_BOUND('',#179,.T.);
#149=FACE_BOUND('',#180,.T.);
#150=FACE_BOUND('',#181,.T.);
#151=FACE_BOUND('',#184,.T.);
#152=FACE_BOUND('',#185,.T.);
#153=FACE_BOUND('',#186,.T.);
#154=FACE_BOUND('',#187,.T.);
#155=FACE_BOUND('',#188,.T.);
#156=FACE_BOUND('',#189,.T.);
#157=FACE_BOUND('',#190,.T.);
#158=FACE_BOUND('',#191,.T.);
#159=FACE_BOUND('',#192,.T.);
#160=FACE_BOUND('',#193,.T.);
#161=EDGE_LOOP('',(#194));
#162=EDGE_LOOP('',(#195));
#163=EDGE_LOOP('',(#196));
#164=EDGE_LOOP('',(#197,#198,#199,#200,#201,#202,#203,#204,#205,#206));
#165=EDGE_LOOP('',(#207,#208,#209,#210,#211));
#166=EDGE_LOOP('',(#212,#213,#214,#215));
#167=EDGE_LOOP('',(#216,#217,#218,#219,#220));
#168=EDGE_LOOP('',(#221));
#169=EDGE_LOOP('',(#222));
#170=EDGE_LOOP('',(#223));
#171=EDGE_LOOP('',(#224));
#172=EDGE_LOOP('',(#225));
#173=EDGE_LOOP('',(#226,#227,#228,#229));
#174=EDGE_LOOP('',(#230,#231,#232,#233,#234,#235,#236,#237));
#175=EDGE_LOOP('',(#238,#239,#240,#241));
#176=EDGE_LOOP('',(#242,#243,#244,#245));
#177=EDGE_LOOP('',(#246,#247,#248,#249));
#178=EDGE_LOOP('',(#250,#251,#252,#253));
#179=EDGE_LOOP('',(#254));
#180=EDGE_LOOP('',(#255));
#181=EDGE_LOOP('',(#256,#257,#258,#259,#260,#261));
#182=EDGE_LOOP('',(#262,#263,#264,#265));
#183=EDGE_LOOP('',(#266,#267,#268,#269));
#184=EDGE_LOOP('',(#270));
#185=EDGE_LOOP('',(#271));
#186=EDGE_LOOP('',(#272));
#187=EDGE_LOOP('',(#273));
#188=EDGE_LOOP('',(#274));
#189=EDGE_LOOP('',(#275));
#190=EDGE_LOOP('',(#276));
#191=EDGE_LOOP('',(#277));
#192=EDGE_LOOP('',(#278));
#193=EDGE_LOOP('',(#279));
#194=ORIENTED_EDGE('',*,*,#312,.F.);
#195=ORIENTED_EDGE('',*,*,#313,.F.);
#196=ORIENTED_EDGE('',*,*,#314,.F.);
#197=ORIENTED_EDGE('',*,*,#315,.F.);
#198=ORIENTED_EDGE('',*,*,#316,.T.);
#199=ORIENTED_EDGE('',*,*,#317,.F.);
#200=ORIENTED_EDGE('',*,*,#318,.T.);
#201=ORIENTED_EDGE('',*,*,#319,.F.);
#202=ORIENTED_EDGE('',*,*,#320,.F.);
#203=ORIENTED_EDGE('',*,*,#321,.F.);
#204=ORIENTED_EDGE('',*,*,#322,.T.);
#205=ORIENTED_EDGE('',*,*,#323,.F.);
#206=ORIENTED_EDGE('',*,*,#324,.F.);
#207=ORIENTED_EDGE('',*,*,#323,.T.);
#208=ORIENTED_EDGE('',*,*,#325,.T.);
#209=ORIENTED_EDGE('',*,*,#326,.F.);
#210=ORIENTED_EDGE('',*,*,#327,.T.);
#211=ORIENTED_EDGE('',*,*,#328,.T.);
#212=ORIENTED_EDGE('',*,*,#326,.T.);
#213=ORIENTED_EDGE('',*,*,#329,.T.);
#214=ORIENTED_EDGE('',*,*,#330,.F.);
#215=ORIENTED_EDGE('',*,*,#331,.T.);
#216=ORIENTED_EDGE('',*,*,#330,.T.);
#217=ORIENTED_EDGE('',*,*,#332,.T.);
#218=ORIENTED_EDGE('',*,*,#321,.T.);
#219=ORIENTED_EDGE('',*,*,#333,.F.);
#220=ORIENTED_EDGE('',*,*,#334,.T.);
#221=ORIENTED_EDGE('',*,*,#335,.F.);
#222=ORIENTED_EDGE('',*,*,#336,.F.);
#223=ORIENTED_EDGE('',*,*,#337,.F.);
#224=ORIENTED_EDGE('',*,*,#338,.F.);
#225=ORIENTED_EDGE('',*,*,#339,.F.);
#226=ORIENTED_EDGE('',*,*,#340,.F.);
#227=ORIENTED_EDGE('',*,*,#327,.F.);
#228=ORIENTED_EDGE('',*,*,#331,.F.);
#229=ORIENTED_EDGE('',*,*,#334,.F.);
#230=ORIENTED_EDGE('',*,*,#341,.T.);
#231=ORIENTED_EDGE('',*,*,#324,.T.);
#232=ORIENTED_EDGE('',*,*,#328,.F.);
#233=ORIENTED_EDGE('',*,*,#340,.T.);
#234=ORIENTED_EDGE('',*,*,#333,.T.);
#235=ORIENTED_EDGE('',*,*,#320,.T.);
#236=ORIENTED_EDGE('',*,*,#342,.F.);
#237=ORIENTED_EDGE('',*,*,#343,.F.);
#238=ORIENTED_EDGE('',*,*,#325,.F.);
#239=ORIENTED_EDGE('',*,*,#322,.F.);
#240=ORIENTED_EDGE('',*,*,#332,.F.);
#241=ORIENTED_EDGE('',*,*,#329,.F.);
#242=ORIENTED_EDGE('',*,*,#344,.T.);
#243=ORIENTED_EDGE('',*,*,#345,.T.);
#244=ORIENTED_EDGE('',*,*,#315,.T.);
#245=ORIENTED_EDGE('',*,*,#341,.F.);
#246=ORIENTED_EDGE('',*,*,#346,.T.);
#247=ORIENTED_EDGE('',*,*,#347,.T.);
#248=ORIENTED_EDGE('',*,*,#317,.T.);
#249=ORIENTED_EDGE('',*,*,#348,.T.);
#250=ORIENTED_EDGE('',*,*,#319,.T.);
#251=ORIENTED_EDGE('',*,*,#349,.T.);
#252=ORIENTED_EDGE('',*,*,#350,.T.);
#253=ORIENTED_EDGE('',*,*,#342,.T.);
#254=ORIENTED_EDGE('',*,*,#351,.T.);
#255=ORIENTED_EDGE('',*,*,#352,.T.);
#256=ORIENTED_EDGE('',*,*,#350,.F.);
#257=ORIENTED_EDGE('',*,*,#353,.T.);
#258=ORIENTED_EDGE('',*,*,#346,.F.);
#259=ORIENTED_EDGE('',*,*,#354,.T.);
#260=ORIENTED_EDGE('',*,*,#344,.F.);
#261=ORIENTED_EDGE('',*,*,#343,.T.);
#262=ORIENTED_EDGE('',*,*,#318,.F.);
#263=ORIENTED_EDGE('',*,*,#347,.F.);
#264=ORIENTED_EDGE('',*,*,#353,.F.);
#265=ORIENTED_EDGE('',*,*,#349,.F.);
#266=ORIENTED_EDGE('',*,*,#316,.F.);
#267=ORIENTED_EDGE('',*,*,#345,.F.);
#268=ORIENTED_EDGE('',*,*,#354,.F.);
#269=ORIENTED_EDGE('',*,*,#348,.F.);
#270=ORIENTED_EDGE('',*,*,#314,.T.);
#271=ORIENTED_EDGE('',*,*,#339,.T.);
#272=ORIENTED_EDGE('',*,*,#338,.T.);
#273=ORIENTED_EDGE('',*,*,#352,.F.);
#274=ORIENTED_EDGE('',*,*,#313,.T.);
#275=ORIENTED_EDGE('',*,*,#337,.T.);
#276=ORIENTED_EDGE('',*,*,#336,.T.);
#277=ORIENTED_EDGE('',*,*,#351,.F.);
#278=ORIENTED_EDGE('',*,*,#312,.T.);
#279=ORIENTED_EDGE('',*,*,#335,.T.);
#280=VERTEX_POINT('',#499);
#281=VERTEX_POINT('',#501);
#282=VERTEX_POINT('',#503);
#283=VERTEX_POINT('',#505);
#284=VERTEX_POINT('',#506);
#285=VERTEX_POINT('',#508);
#286=VERTEX_POINT('',#510);
#287=VERTEX_POINT('',#512);
#288=VERTEX_POINT('',#514);
#289=VERTEX_POINT('',#516);
#290=VERTEX_POINT('',#518);
#291=VERTEX_POINT('',#520);
#292=VERTEX_POINT('',#522);
#293=VERTEX_POINT('',#526);
#294=VERTEX_POINT('',#528);
#295=VERTEX_POINT('',#530);
#296=VERTEX_POINT('',#534);
#297=VERTEX_POINT('',#536);
#298=VERTEX_POINT('',#541);
#299=VERTEX_POINT('',#545);
#300=VERTEX_POINT('',#547);
#301=VERTEX_POINT('',#549);
#302=VERTEX_POINT('',#551);
#303=VERTEX_POINT('',#553);
#304=VERTEX_POINT('',#557);
#305=VERTEX_POINT('',#559);
#306=VERTEX_POINT('',#564);
#307=VERTEX_POINT('',#568);
#308=VERTEX_POINT('',#569);
#309=VERTEX_POINT('',#574);
#310=VERTEX_POINT('',#578);
#311=VERTEX_POINT('',#580);
#312=EDGE_CURVE('',#280,#280,#355,.T.);
#313=EDGE_CURVE('',#281,#281,#356,.T.);
#314=EDGE_CURVE('',#282,#282,#357,.T.);
#315=EDGE_CURVE('',#283,#284,#80,.T.);
#316=EDGE_CURVE('',#283,#285,#358,.T.);
#317=EDGE_CURVE('',#286,#285,#81,.T.);
#318=EDGE_CURVE('',#286,#287,#359,.T.);
#319=EDGE_CURVE('',#288,#287,#82,.T.);
#320=EDGE_CURVE('',#289,#288,#83,.T.);
#321=EDGE_CURVE('',#290,#289,#84,.T.);
#322=EDGE_CURVE('',#290,#291,#85,.T.);
#323=EDGE_CURVE('',#292,#291,#86,.T.);
#324=EDGE_CURVE('',#284,#292,#87,.T.);
#325=EDGE_CURVE('',#291,#293,#88,.T.);
#326=EDGE_CURVE('',#294,#293,#89,.T.);
#327=EDGE_CURVE('',#294,#295,#90,.T.);
#328=EDGE_CURVE('',#295,#292,#91,.T.);
#329=EDGE_CURVE('',#293,#296,#92,.T.);
#330=EDGE_CURVE('',#297,#296,#93,.T.);
#331=EDGE_CURVE('',#297,#294,#94,.T.);
#332=EDGE_CURVE('',#296,#290,#95,.T.);
#333=EDGE_CURVE('',#298,#289,#96,.T.);
#334=EDGE_CURVE('',#298,#297,#97,.T.);
#335=EDGE_CURVE('',#299,#299,#360,.T.);
#336=EDGE_CURVE('',#300,#300,#361,.T.);
#337=EDGE_CURVE('',#301,#301,#362,.T.);
#338=EDGE_CURVE('',#302,#302,#363,.T.);
#339=EDGE_CURVE('',#303,#303,#364,.T.);
#340=EDGE_CURVE('',#295,#298,#98,.T.);
#341=EDGE_CURVE('',#304,#284,#99,.T.);
#342=EDGE_CURVE('',#305,#288,#100,.T.);
#343=EDGE_CURVE('',#304,#305,#101,.T.);
#344=EDGE_CURVE('',#304,#306,#102,.T.);
#345=EDGE_CURVE('',#306,#283,#103,.T.);
#346=EDGE_CURVE('',#307,#308,#104,.T.);
#347=EDGE_CURVE('',#308,#286,#105,.T.);
#348=EDGE_CURVE('',#285,#307,#106,.T.);
#349=EDGE_CURVE('',#287,#309,#107,.T.);
#350=EDGE_CURVE('',#309,#305,#108,.T.);
#351=EDGE_CURVE('',#310,#310,#365,.T.);
#352=EDGE_CURVE('',#311,#311,#366,.T.);
#353=EDGE_CURVE('',#309,#308,#367,.T.);
#354=EDGE_CURVE('',#307,#306,#368,.T.);
#355=CIRCLE('',#370,8.65);
#356=CIRCLE('',#371,8.65);
#357=CIRCLE('',#372,8.65);
#358=CIRCLE('',#373,12.1);
#359=CIRCLE('',#374,12.1);
#360=CIRCLE('',#379,8.65);
#361=CIRCLE('',#380,8.65);
#362=CIRCLE('',#381,8.65);
#363=CIRCLE('',#382,8.65);
#364=CIRCLE('',#383,8.65);
#365=CIRCLE('',#390,8.65);
#366=CIRCLE('',#391,8.65);
#367=CIRCLE('',#392,12.1);
#368=CIRCLE('',#393,12.1);
#369=AXIS2_PLACEMENT_3D('',#497,#402,#403);
#370=AXIS2_PLACEMENT_3D('',#498,#404,#405);
#371=AXIS2_PLACEMENT_3D('',#500,#406,#407);
#372=AXIS2_PLACEMENT_3D('',#502,#408,#409);
#373=AXIS2_PLACEMENT_3D('',#507,#411,#412);
#374=AXIS2_PLACEMENT_3D('',#511,#414,#415);
#375=AXIS2_PLACEMENT_3D('',#524,#422,#423);
#376=AXIS2_PLACEMENT_3D('',#532,#428,#429);
#377=AXIS2_PLACEMENT_3D('',#538,#433,#434);
#378=AXIS2_PLACEMENT_3D('',#543,#438,#439);
#379=AXIS2_PLACEMENT_3D('',#544,#440,#441);
#380=AXIS2_PLACEMENT_3D('',#546,#442,#443);
#381=AXIS2_PLACEMENT_3D('',#548,#444,#445);
#382=AXIS2_PLACEMENT_3D('',#550,#446,#447);
#383=AXIS2_PLACEMENT_3D('',#552,#448,#449);
#384=AXIS2_PLACEMENT_3D('',#555,#451,#452);
#385=AXIS2_PLACEMENT_3D('',#561,#456,#457);
#386=AXIS2_PLACEMENT_3D('',#562,#458,#459);
#387=AXIS2_PLACEMENT_3D('',#566,#462,#463);
#388=AXIS2_PLACEMENT_3D('',#572,#467,#468);
#389=AXIS2_PLACEMENT_3D('',#576,#471,#472);
#390=AXIS2_PLACEMENT_3D('',#577,#473,#474);
#391=AXIS2_PLACEMENT_3D('',#579,#475,#476);
#392=AXIS2_PLACEMENT_3D('',#581,#477,#478);
#393=AXIS2_PLACEMENT_3D('',#582,#479,#480);
#394=AXIS2_PLACEMENT_3D('',#583,#481,#482);
#395=AXIS2_PLACEMENT_3D('',#584,#483,#484);
#396=AXIS2_PLACEMENT_3D('',#585,#485,#486);
#397=AXIS2_PLACEMENT_3D('',#586,#487,#488);
#398=AXIS2_PLACEMENT_3D('',#587,#489,#490);
#399=AXIS2_PLACEMENT_3D('',#588,#491,#492);
#400=AXIS2_PLACEMENT_3D('',#589,#493,#494);
#401=AXIS2_PLACEMENT_3D('',#590,#495,#496);
#402=DIRECTION('',(0.,0.,1.));
#403=DIRECTION('',(1.,0.,0.));
#404=DIRECTION('',(0.,0.,1.));
#405=DIRECTION('',(1.,0.,0.));
#406=DIRECTION('',(0.,0.,1.));
#407=DIRECTION('',(1.,0.,0.));
#408=DIRECTION('',(0.,0.,1.));
#409=DIRECTION('',(1.,0.,0.));
#410=DIRECTION('',(1.,0.,0.));
#411=DIRECTION('',(0.,0.,-1.));
#412=DIRECTION('',(1.,0.,0.));
#413=DIRECTION('',(0.,-1.,0.));
#414=DIRECTION('',(0.,0.,-1.));
#415=DIRECTION('',(1.,0.,0.));
#416=DIRECTION('',(-1.,0.,0.));
#417=DIRECTION('',(0.,-1.,0.));
#418=DIRECTION('',(1.,0.,0.));
#419=DIRECTION('',(0.,-1.,0.));
#420=DIRECTION('',(-1.,0.,0.));
#421=DIRECTION('',(0.,-1.,0.));
#422=DIRECTION('',(0.,0.,1.));
#423=DIRECTION('',(1.,0.,0.));
#424=DIRECTION('',(-0.707106781186548,0.,-0.707106781186547));
#425=DIRECTION('',(0.,0.,1.));
#426=DIRECTION('',(1.,0.,0.));
#427=DIRECTION('',(0.,0.,1.));
#428=DIRECTION('',(0.,-1.,0.));
#429=DIRECTION('',(0.,0.,-1.));
#430=DIRECTION('',(0.,1.,0.));
#431=DIRECTION('',(0.,0.,1.));
#432=DIRECTION('',(0.,-1.,0.));
#433=DIRECTION('',(-1.,0.,0.));
#434=DIRECTION('',(0.,0.,1.));
#435=DIRECTION('',(0.707106781186548,0.,0.707106781186547));
#436=DIRECTION('',(0.,0.,1.));
#437=DIRECTION('',(-1.,0.,0.));
#438=DIRECTION('',(0.,1.,0.));
#439=DIRECTION('',(0.,0.,1.));
#440=DIRECTION('',(0.,0.,-1.));
#441=DIRECTION('',(-1.,0.,0.));
#442=DIRECTION('',(0.,0.,-1.));
#443=DIRECTION('',(-0.999999999999999,0.,0.));
#444=DIRECTION('',(0.,0.,-1.));
#445=DIRECTION('',(-1.,0.,0.));
#446=DIRECTION('',(0.,0.,-1.));
#447=DIRECTION('',(-0.999999999999999,0.,0.));
#448=DIRECTION('',(0.,0.,-1.));
#449=DIRECTION('',(-1.,0.,0.));
#450=DIRECTION('',(0.,1.,0.));
#451=DIRECTION('',(0.,0.,-1.));
#452=DIRECTION('',(-1.,0.,0.));
#453=DIRECTION('',(0.,0.,1.));
#454=DIRECTION('',(0.,0.,1.));
#455=DIRECTION('',(0.,1.,0.));
#456=DIRECTION('',(1.,0.,0.));
#457=DIRECTION('',(0.,0.,-1.));
#458=DIRECTION('',(0.707106781186547,0.,-0.707106781186548));
#459=DIRECTION('',(0.,1.,0.));
#460=DIRECTION('',(-1.,0.,0.));
#461=DIRECTION('',(0.,0.,1.));
#462=DIRECTION('',(0.,-1.,0.));
#463=DIRECTION('',(0.,0.,-1.));
#464=DIRECTION('',(0.,1.,0.));
#465=DIRECTION('',(0.,0.,1.));
#466=DIRECTION('',(0.,0.,-1.));
#467=DIRECTION('',(-1.,0.,0.));
#468=DIRECTION('',(0.,0.,1.));
#469=DIRECTION('',(0.,0.,-1.));
#470=DIRECTION('',(1.,0.,0.));
#471=DIRECTION('',(0.,1.,0.));
#472=DIRECTION('',(0.,0.,1.));
#473=DIRECTION('',(0.,0.,-1.));
#474=DIRECTION('',(-0.999999999999999,0.,0.));
#475=DIRECTION('',(0.,0.,-1.));
#476=DIRECTION('',(-0.999999999999999,0.,0.));
#477=DIRECTION('',(0.,0.,1.));
#478=DIRECTION('',(-1.,0.,0.));
#479=DIRECTION('',(0.,0.,1.));
#480=DIRECTION('',(-1.,0.,0.));
#481=DIRECTION('',(0.,0.,-1.));
#482=DIRECTION('',(-1.,0.,0.));
#483=DIRECTION('',(0.,0.,1.));
#484=DIRECTION('',(1.,0.,0.));
#485=DIRECTION('',(0.,0.,1.));
#486=DIRECTION('',(1.,0.,0.));
#487=DIRECTION('',(0.,0.,-1.));
#488=DIRECTION('',(1.,0.,0.));
#489=DIRECTION('',(0.,0.,-1.));
#490=DIRECTION('',(0.999999999999999,0.,0.));
#491=DIRECTION('',(0.,0.,-1.));
#492=DIRECTION('',(1.,0.,0.));
#493=DIRECTION('',(0.,0.,-1.));
#494=DIRECTION('',(0.999999999999999,0.,0.));
#495=DIRECTION('',(0.,0.,-1.));
#496=DIRECTION('',(1.,0.,0.));
#497=CARTESIAN_POINT('',(0.,0.,0.));
#498=CARTESIAN_POINT('',(98.8,314.2,87.4));
#499=CARTESIAN_POINT('',(107.45,314.2,87.4));
#500=CARTESIAN_POINT('',(98.8,190.2,87.4));
#501=CARTESIAN_POINT('',(107.45,190.2,87.4));
#502=CARTESIAN_POINT('',(98.8,66.1,87.4));
#503=CARTESIAN_POINT('',(107.45,66.1,87.4));
#504=CARTESIAN_POINT('',(193.65,55.4,87.4));
#505=CARTESIAN_POINT('',(287.3,55.4,87.4));
#506=CARTESIAN_POINT('',(387.3,55.4,87.4));
#507=CARTESIAN_POINT('',(287.3,67.5,87.4));
#508=CARTESIAN_POINT('',(275.2,67.5,87.4));
#509=CARTESIAN_POINT('',(275.2,190.15,87.4));
#510=CARTESIAN_POINT('',(275.2,232.1,87.4));
#511=CARTESIAN_POINT('',(287.3,232.1,87.4));
#512=CARTESIAN_POINT('',(287.3,244.2,87.4));
#513=CARTESIAN_POINT('',(193.65,244.2,87.4));
#514=CARTESIAN_POINT('',(387.3,244.2,87.4));
#515=CARTESIAN_POINT('',(387.3,190.15,87.4));
#516=CARTESIAN_POINT('',(387.3,380.3,87.4));
#517=CARTESIAN_POINT('',(193.65,380.3,87.4));
#518=CARTESIAN_POINT('',(6.70000000000001,380.3,87.4));
#519=CARTESIAN_POINT('',(6.70000000000001,190.15,87.4));
#520=CARTESIAN_POINT('',(6.70000000000001,0.,87.4));
#521=CARTESIAN_POINT('',(193.65,0.,87.4));
#522=CARTESIAN_POINT('',(387.3,0.,87.4));
#523=CARTESIAN_POINT('',(387.3,190.15,87.4));
#524=CARTESIAN_POINT('',(193.65,190.15,87.4));
#525=CARTESIAN_POINT('',(56.4750000000002,0.,137.175));
#526=CARTESIAN_POINT('',(0.,0.,80.7));
#527=CARTESIAN_POINT('',(0.,0.,0.));
#528=CARTESIAN_POINT('',(0.,0.,0.));
#529=CARTESIAN_POINT('',(193.65,0.,0.));
#530=CARTESIAN_POINT('',(387.3,0.,0.));
#531=CARTESIAN_POINT('',(387.3,0.,0.));
#532=CARTESIAN_POINT('',(193.65,0.,0.));
#533=CARTESIAN_POINT('',(0.,190.15,80.7));
#534=CARTESIAN_POINT('',(0.,380.3,80.7));
#535=CARTESIAN_POINT('',(0.,380.3,0.));
#536=CARTESIAN_POINT('',(0.,380.3,0.));
#537=CARTESIAN_POINT('',(0.,190.15,0.));
#538=CARTESIAN_POINT('',(0.,190.15,0.));
#539=CARTESIAN_POINT('',(56.4750000000002,380.3,137.175));
#540=CARTESIAN_POINT('',(387.3,380.3,0.));
#541=CARTESIAN_POINT('',(387.3,380.3,0.));
#542=CARTESIAN_POINT('',(193.65,380.3,0.));
#543=CARTESIAN_POINT('',(193.65,380.3,0.));
#544=CARTESIAN_POINT('',(98.8,314.2,0.));
#545=CARTESIAN_POINT('',(90.15,314.2,0.));
#546=CARTESIAN_POINT('',(288.5,190.2,0.));
#547=CARTESIAN_POINT('',(279.85,190.2,0.));
#548=CARTESIAN_POINT('',(98.8,190.2,0.));
#549=CARTESIAN_POINT('',(90.15,190.2,0.));
#550=CARTESIAN_POINT('',(288.5,66.1,0.));
#551=CARTESIAN_POINT('',(279.85,66.1,0.));
#552=CARTESIAN_POINT('',(98.8,66.1,0.));
#553=CARTESIAN_POINT('',(90.15,66.1,0.));
#554=CARTESIAN_POINT('',(387.3,190.15,0.));
#555=CARTESIAN_POINT('',(193.65,190.15,0.));
#556=CARTESIAN_POINT('',(387.3,55.4,49.5));
#557=CARTESIAN_POINT('',(387.3,55.4,49.5));
#558=CARTESIAN_POINT('',(387.3,244.2,49.5));
#559=CARTESIAN_POINT('',(387.3,244.2,49.5));
#560=CARTESIAN_POINT('',(387.3,149.8,49.5));
#561=CARTESIAN_POINT('',(387.3,190.15,0.));
#562=CARTESIAN_POINT('',(0.,190.15,80.7));
#563=CARTESIAN_POINT('',(331.25,55.4,49.5));
#564=CARTESIAN_POINT('',(287.3,55.4,49.5));
#565=CARTESIAN_POINT('',(287.3,55.4,87.4));
#566=CARTESIAN_POINT('',(331.25,55.4,49.5));
#567=CARTESIAN_POINT('',(275.2,149.8,49.5));
#568=CARTESIAN_POINT('',(275.2,67.5,49.5));
#569=CARTESIAN_POINT('',(275.2,232.1,49.5));
#570=CARTESIAN_POINT('',(275.2,232.1,87.4));
#571=CARTESIAN_POINT('',(275.2,67.5,49.5));
#572=CARTESIAN_POINT('',(275.2,149.8,49.5));
#573=CARTESIAN_POINT('',(287.3,244.2,49.5));
#574=CARTESIAN_POINT('',(287.3,244.2,49.5));
#575=CARTESIAN_POINT('',(331.25,244.2,49.5));
#576=CARTESIAN_POINT('',(331.25,244.2,49.5));
#577=CARTESIAN_POINT('',(288.5,190.2,49.5));
#578=CARTESIAN_POINT('',(279.85,190.2,49.5));
#579=CARTESIAN_POINT('',(288.5,66.1,49.5));
#580=CARTESIAN_POINT('',(279.85,66.1,49.5));
#581=CARTESIAN_POINT('',(287.3,232.1,49.5));
#582=CARTESIAN_POINT('',(287.3,67.5,49.5));
#583=CARTESIAN_POINT('',(331.25,149.8,49.5));
#584=CARTESIAN_POINT('',(287.3,232.1,49.5));
#585=CARTESIAN_POINT('',(287.3,67.5,49.5));
#586=CARTESIAN_POINT('',(98.8,66.1,87.45));
#587=CARTESIAN_POINT('',(288.5,66.1,87.45));
#588=CARTESIAN_POINT('',(98.8,190.2,87.45));
#589=CARTESIAN_POINT('',(288.5,190.2,87.45));
#590=CARTESIAN_POINT('',(98.8,314.2,87.45));
#591=MECHANICAL_DESIGN_GEOMETRIC_PRESENTATION_REPRESENTATION('',(#24),#592);
#592=(
GEOMETRIC_REPRESENTATION_CONTEXT(3)
GLOBAL_UNCERTAINTY_ASSIGNED_CONTEXT((#593))
GLOBAL_UNIT_ASSIGNED_CONTEXT((#599,#595,#594))
REPRESENTATION_CONTEXT('featured_part_04900','TOP_LEVEL_ASSEMBLY_PART')
);
#593=UNCERTAINTY_MEASURE_WITH_UNIT(LENGTH_MEASURE(2.E-5),#599,
'DISTANCE_ACCURACY_VALUE','Maximum Tolerance applied to model');
#594=(
NAMED_UNIT(*)
SI_UNIT($,.STERADIAN.)
SOLID_ANGLE_UNIT()
);
#595=(
CONVERSION_BASED_UNIT('DEGREE',#597)
NAMED_UNIT(#596)
PLANE_ANGLE_UNIT()
);
#596=DIMENSIONAL_EXPONENTS(0.,0.,0.,0.,0.,0.,0.);
#597=PLANE_ANGLE_MEASURE_WITH_UNIT(PLANE_ANGLE_MEASURE(0.0174532925),#598);
#598=(
NAMED_UNIT(*)
PLANE_ANGLE_UNIT()
SI_UNIT($,.RADIAN.)
);
#599=(
LENGTH_UNIT()
NAMED_UNIT(*)
SI_UNIT(.MILLI.,.METRE.)
);
ENDSEC;
END-ISO-10303-21;
