ISO-10303-21;
HEADER;
/* Generated by software containing ST-Developer
 * from STEP Tools, Inc. (www.steptools.com) 
 */
/* OPTION: using custom schema-name function */

FILE_DESCRIPTION(
/* description */ (''),
/* implementation_level */ '2;1');

FILE_NAME(
/* name */ 'featured_part_06037.stp',
/* time_stamp */ '2026-07-09T00:43:27-04:00',
/* author */ (''),
/* organization */ (''),
/* preprocessor_version */ 'ST-DEVELOPER v20.1',
/* originating_system */ 'SIEMENS PLM Software NX2512.6002',
/* authorisation */ '');

FILE_SCHEMA (('AUTOMOTIVE_DESIGN { 1 0 10303 214 3 1 1 1 }'));
ENDSEC;

DATA;
#10=SHAPE_REPRESENTATION_RELATIONSHIP('None',
'relationship between featured_part_06037-None and featured_part_06037
-None',#22,#11);
#11=ADVANCED_BREP_SHAPE_REPRESENTATION('featured_part_06037-None',(#32),
#672);
#12=SHAPE_DEFINITION_REPRESENTATION(#13,#22);
#13=PRODUCT_DEFINITION_SHAPE('','',#14);
#14=PRODUCT_DEFINITION(' ','',#16,#15);
#15=PRODUCT_DEFINITION_CONTEXT('part definition',#21,'design');
#16=PRODUCT_DEFINITION_FORMATION_WITH_SPECIFIED_SOURCE(' ',' ',#18,
 .NOT_KNOWN.);
#17=PRODUCT_RELATED_PRODUCT_CATEGORY('part','',(#18));
#18=PRODUCT('featured_part_06037','featured_part_06037',' ',(#19));
#19=PRODUCT_CONTEXT(' ',#21,'mechanical');
#20=APPLICATION_PROTOCOL_DEFINITION('international standard',
'automotive_design',2010,#21);
#21=APPLICATION_CONTEXT(
'core data for automotive mechanical design processes');
#22=SHAPE_REPRESENTATION('featured_part_06037-None',(#413),#672);
#23=PRESENTATION_LAYER_ASSIGNMENT('1','Layer 1',(#32));
#24=STYLED_ITEM('',(#25),#32);
#25=PRESENTATION_STYLE_ASSIGNMENT((#26));
#26=SURFACE_STYLE_USAGE(.BOTH.,#27);
#27=SURFACE_SIDE_STYLE('',(#28));
#28=SURFACE_STYLE_FILL_AREA(#29);
#29=FILL_AREA_STYLE('',(#30));
#30=FILL_AREA_STYLE_COLOUR('',#31);
#31=COLOUR_RGB('medium steel',0.611764705882353,0.658823529411765,0.670588235294118);
#32=MANIFOLD_SOLID_BREP('',#33);
#33=CLOSED_SHELL('',(#56,#57,#58,#59,#60,#61,#62,#63,#64,#65,#66,#67,#68,
#69,#70,#71,#72,#73,#74,#75,#76));
#34=CYLINDRICAL_SURFACE('',#444,8.3);
#35=CYLINDRICAL_SURFACE('',#445,8.3);
#36=CYLINDRICAL_SURFACE('',#446,8.3);
#37=CYLINDRICAL_SURFACE('',#447,8.3);
#38=CYLINDRICAL_SURFACE('',#448,5.15);
#39=CYLINDRICAL_SURFACE('',#449,5.15);
#40=CYLINDRICAL_SURFACE('',#450,5.15);
#41=CYLINDRICAL_SURFACE('',#451,5.15);
#42=CYLINDRICAL_SURFACE('',#452,5.15);
#43=FACE_OUTER_BOUND('',#181,.T.);
#44=FACE_OUTER_BOUND('',#182,.T.);
#45=FACE_OUTER_BOUND('',#183,.T.);
#46=FACE_OUTER_BOUND('',#190,.T.);
#47=FACE_OUTER_BOUND('',#191,.T.);
#48=FACE_OUTER_BOUND('',#192,.T.);
#49=FACE_OUTER_BOUND('',#193,.T.);
#50=FACE_OUTER_BOUND('',#194,.T.);
#51=FACE_OUTER_BOUND('',#197,.T.);
#52=FACE_OUTER_BOUND('',#198,.T.);
#53=FACE_OUTER_BOUND('',#199,.T.);
#54=FACE_OUTER_BOUND('',#200,.T.);
#55=FACE_OUTER_BOUND('',#201,.T.);
#56=ADVANCED_FACE('',(#151,#152,#153,#154,#155,#156),#77,.T.);
#57=ADVANCED_FACE('',(#43),#78,.T.);
#58=ADVANCED_FACE('',(#44),#79,.T.);
#59=ADVANCED_FACE('',(#45),#80,.T.);
#60=ADVANCED_FACE('',(#157,#158,#159,#160,#161,#162),#81,.T.);
#61=ADVANCED_FACE('',(#46),#82,.T.);
#62=ADVANCED_FACE('',(#47),#83,.F.);
#63=ADVANCED_FACE('',(#48),#84,.F.);
#64=ADVANCED_FACE('',(#49),#85,.F.);
#65=ADVANCED_FACE('',(#50),#86,.F.);
#66=ADVANCED_FACE('',(#163,#164),#87,.F.);
#67=ADVANCED_FACE('',(#51),#88,.F.);
#68=ADVANCED_FACE('',(#52),#34,.F.);
#69=ADVANCED_FACE('',(#53),#35,.F.);
#70=ADVANCED_FACE('',(#54),#36,.F.);
#71=ADVANCED_FACE('',(#55),#37,.F.);
#72=ADVANCED_FACE('',(#165,#166),#38,.F.);
#73=ADVANCED_FACE('',(#167,#168),#39,.F.);
#74=ADVANCED_FACE('',(#169,#170),#40,.F.);
#75=ADVANCED_FACE('',(#171,#172),#41,.F.);
#76=ADVANCED_FACE('',(#173,#174),#42,.F.);
#77=PLANE('',#422);
#78=PLANE('',#423);
#79=PLANE('',#424);
#80=PLANE('',#425);
#81=PLANE('',#431);
#82=PLANE('',#432);
#83=PLANE('',#433);
#84=PLANE('',#434);
#85=PLANE('',#435);
#86=PLANE('',#436);
#87=PLANE('',#442);
#88=PLANE('',#443);
#89=LINE('',#573,#120);
#90=LINE('',#578,#121);
#91=LINE('',#582,#122);
#92=LINE('',#586,#123);
#93=LINE('',#589,#124);
#94=LINE('',#592,#125);
#95=LINE('',#594,#126);
#96=LINE('',#596,#127);
#97=LINE('',#598,#128);
#98=LINE('',#601,#129);
#99=LINE('',#602,#130);
#100=LINE('',#604,#131);
#101=LINE('',#606,#132);
#102=LINE('',#608,#133);
#103=LINE('',#610,#134);
#104=LINE('',#612,#135);
#105=LINE('',#614,#136);
#106=LINE('',#626,#137);
#107=LINE('',#628,#138);
#108=LINE('',#631,#139);
#109=LINE('',#634,#140);
#110=LINE('',#635,#141);
#111=LINE('',#637,#142);
#112=LINE('',#640,#143);
#113=LINE('',#641,#144);
#114=LINE('',#643,#145);
#115=LINE('',#645,#146);
#116=LINE('',#647,#147);
#117=LINE('',#655,#148);
#118=LINE('',#659,#149);
#119=LINE('',#660,#150);
#120=VECTOR('',#463,1.);
#121=VECTOR('',#466,1.);
#122=VECTOR('',#469,1.);
#123=VECTOR('',#472,1.);
#124=VECTOR('',#475,1.);
#125=VECTOR('',#476,1.);
#126=VECTOR('',#477,1.);
#127=VECTOR('',#478,1.);
#128=VECTOR('',#481,1.);
#129=VECTOR('',#482,1.);
#130=VECTOR('',#483,1.);
#131=VECTOR('',#484,1.);
#132=VECTOR('',#487,1.);
#133=VECTOR('',#488,1.);
#134=VECTOR('',#491,1.);
#135=VECTOR('',#492,1.);
#136=VECTOR('',#493,1.);
#137=VECTOR('',#506,1.);
#138=VECTOR('',#509,1.);
#139=VECTOR('',#514,1.);
#140=VECTOR('',#515,1.);
#141=VECTOR('',#516,1.);
#142=VECTOR('',#519,1.);
#143=VECTOR('',#520,1.);
#144=VECTOR('',#521,1.);
#145=VECTOR('',#524,1.);
#146=VECTOR('',#525,1.);
#147=VECTOR('',#526,1.);
#148=VECTOR('',#537,1.);
#149=VECTOR('',#542,1.);
#150=VECTOR('',#543,1.);
#151=FACE_BOUND('',#175,.T.);
#152=FACE_BOUND('',#176,.T.);
#153=FACE_BOUND('',#177,.T.);
#154=FACE_BOUND('',#178,.T.);
#155=FACE_BOUND('',#179,.T.);
#156=FACE_BOUND('',#180,.T.);
#157=FACE_BOUND('',#184,.T.);
#158=FACE_BOUND('',#185,.T.);
#159=FACE_BOUND('',#186,.T.);
#160=FACE_BOUND('',#187,.T.);
#161=FACE_BOUND('',#188,.T.);
#162=FACE_BOUND('',#189,.T.);
#163=FACE_BOUND('',#195,.T.);
#164=FACE_BOUND('',#196,.T.);
#165=FACE_BOUND('',#202,.T.);
#166=FACE_BOUND('',#203,.T.);
#167=FACE_BOUND('',#204,.T.);
#168=FACE_BOUND('',#205,.T.);
#169=FACE_BOUND('',#206,.T.);
#170=FACE_BOUND('',#207,.T.);
#171=FACE_BOUND('',#208,.T.);
#172=FACE_BOUND('',#209,.T.);
#173=FACE_BOUND('',#210,.T.);
#174=FACE_BOUND('',#211,.T.);
#175=EDGE_LOOP('',(#212));
#176=EDGE_LOOP('',(#213));
#177=EDGE_LOOP('',(#214));
#178=EDGE_LOOP('',(#215));
#179=EDGE_LOOP('',(#216,#217,#218,#219,#220,#221,#222,#223));
#180=EDGE_LOOP('',(#224,#225,#226,#227));
#181=EDGE_LOOP('',(#228,#229,#230,#231,#232));
#182=EDGE_LOOP('',(#233,#234,#235,#236));
#183=EDGE_LOOP('',(#237,#238,#239,#240,#241));
#184=EDGE_LOOP('',(#242));
#185=EDGE_LOOP('',(#243));
#186=EDGE_LOOP('',(#244));
#187=EDGE_LOOP('',(#245));
#188=EDGE_LOOP('',(#246));
#189=EDGE_LOOP('',(#247,#248,#249,#250));
#190=EDGE_LOOP('',(#251,#252,#253,#254));
#191=EDGE_LOOP('',(#255,#256,#257,#258));
#192=EDGE_LOOP('',(#259,#260,#261,#262));
#193=EDGE_LOOP('',(#263,#264,#265,#266));
#194=EDGE_LOOP('',(#267,#268,#269,#270));
#195=EDGE_LOOP('',(#271));
#196=EDGE_LOOP('',(#272,#273,#274,#275,#276,#277,#278,#279));
#197=EDGE_LOOP('',(#280,#281,#282,#283));
#198=EDGE_LOOP('',(#284,#285,#286,#287));
#199=EDGE_LOOP('',(#288,#289,#290,#291));
#200=EDGE_LOOP('',(#292,#293,#294,#295));
#201=EDGE_LOOP('',(#296,#297,#298,#299));
#202=EDGE_LOOP('',(#300));
#203=EDGE_LOOP('',(#301));
#204=EDGE_LOOP('',(#302));
#205=EDGE_LOOP('',(#303));
#206=EDGE_LOOP('',(#304));
#207=EDGE_LOOP('',(#305));
#208=EDGE_LOOP('',(#306));
#209=EDGE_LOOP('',(#307));
#210=EDGE_LOOP('',(#308));
#211=EDGE_LOOP('',(#309));
#212=ORIENTED_EDGE('',*,*,#346,.F.);
#213=ORIENTED_EDGE('',*,*,#347,.F.);
#214=ORIENTED_EDGE('',*,*,#348,.F.);
#215=ORIENTED_EDGE('',*,*,#349,.F.);
#216=ORIENTED_EDGE('',*,*,#350,.F.);
#217=ORIENTED_EDGE('',*,*,#351,.T.);
#218=ORIENTED_EDGE('',*,*,#352,.F.);
#219=ORIENTED_EDGE('',*,*,#353,.T.);
#220=ORIENTED_EDGE('',*,*,#354,.F.);
#221=ORIENTED_EDGE('',*,*,#355,.T.);
#222=ORIENTED_EDGE('',*,*,#356,.F.);
#223=ORIENTED_EDGE('',*,*,#357,.T.);
#224=ORIENTED_EDGE('',*,*,#358,.F.);
#225=ORIENTED_EDGE('',*,*,#359,.T.);
#226=ORIENTED_EDGE('',*,*,#360,.F.);
#227=ORIENTED_EDGE('',*,*,#361,.F.);
#228=ORIENTED_EDGE('',*,*,#362,.T.);
#229=ORIENTED_EDGE('',*,*,#363,.T.);
#230=ORIENTED_EDGE('',*,*,#358,.T.);
#231=ORIENTED_EDGE('',*,*,#364,.F.);
#232=ORIENTED_EDGE('',*,*,#365,.T.);
#233=ORIENTED_EDGE('',*,*,#364,.T.);
#234=ORIENTED_EDGE('',*,*,#361,.T.);
#235=ORIENTED_EDGE('',*,*,#366,.F.);
#236=ORIENTED_EDGE('',*,*,#367,.T.);
#237=ORIENTED_EDGE('',*,*,#360,.T.);
#238=ORIENTED_EDGE('',*,*,#368,.T.);
#239=ORIENTED_EDGE('',*,*,#369,.F.);
#240=ORIENTED_EDGE('',*,*,#370,.T.);
#241=ORIENTED_EDGE('',*,*,#366,.T.);
#242=ORIENTED_EDGE('',*,*,#371,.F.);
#243=ORIENTED_EDGE('',*,*,#372,.F.);
#244=ORIENTED_EDGE('',*,*,#373,.F.);
#245=ORIENTED_EDGE('',*,*,#374,.F.);
#246=ORIENTED_EDGE('',*,*,#375,.F.);
#247=ORIENTED_EDGE('',*,*,#376,.F.);
#248=ORIENTED_EDGE('',*,*,#365,.F.);
#249=ORIENTED_EDGE('',*,*,#367,.F.);
#250=ORIENTED_EDGE('',*,*,#370,.F.);
#251=ORIENTED_EDGE('',*,*,#369,.T.);
#252=ORIENTED_EDGE('',*,*,#377,.T.);
#253=ORIENTED_EDGE('',*,*,#362,.F.);
#254=ORIENTED_EDGE('',*,*,#376,.T.);
#255=ORIENTED_EDGE('',*,*,#368,.F.);
#256=ORIENTED_EDGE('',*,*,#359,.F.);
#257=ORIENTED_EDGE('',*,*,#363,.F.);
#258=ORIENTED_EDGE('',*,*,#377,.F.);
#259=ORIENTED_EDGE('',*,*,#378,.T.);
#260=ORIENTED_EDGE('',*,*,#379,.T.);
#261=ORIENTED_EDGE('',*,*,#350,.T.);
#262=ORIENTED_EDGE('',*,*,#380,.T.);
#263=ORIENTED_EDGE('',*,*,#381,.T.);
#264=ORIENTED_EDGE('',*,*,#382,.T.);
#265=ORIENTED_EDGE('',*,*,#352,.T.);
#266=ORIENTED_EDGE('',*,*,#383,.T.);
#267=ORIENTED_EDGE('',*,*,#354,.T.);
#268=ORIENTED_EDGE('',*,*,#384,.T.);
#269=ORIENTED_EDGE('',*,*,#385,.T.);
#270=ORIENTED_EDGE('',*,*,#386,.T.);
#271=ORIENTED_EDGE('',*,*,#387,.T.);
#272=ORIENTED_EDGE('',*,*,#385,.F.);
#273=ORIENTED_EDGE('',*,*,#388,.T.);
#274=ORIENTED_EDGE('',*,*,#381,.F.);
#275=ORIENTED_EDGE('',*,*,#389,.T.);
#276=ORIENTED_EDGE('',*,*,#378,.F.);
#277=ORIENTED_EDGE('',*,*,#390,.T.);
#278=ORIENTED_EDGE('',*,*,#391,.F.);
#279=ORIENTED_EDGE('',*,*,#392,.T.);
#280=ORIENTED_EDGE('',*,*,#356,.T.);
#281=ORIENTED_EDGE('',*,*,#393,.T.);
#282=ORIENTED_EDGE('',*,*,#391,.T.);
#283=ORIENTED_EDGE('',*,*,#394,.T.);
#284=ORIENTED_EDGE('',*,*,#353,.F.);
#285=ORIENTED_EDGE('',*,*,#382,.F.);
#286=ORIENTED_EDGE('',*,*,#388,.F.);
#287=ORIENTED_EDGE('',*,*,#384,.F.);
#288=ORIENTED_EDGE('',*,*,#351,.F.);
#289=ORIENTED_EDGE('',*,*,#379,.F.);
#290=ORIENTED_EDGE('',*,*,#389,.F.);
#291=ORIENTED_EDGE('',*,*,#383,.F.);
#292=ORIENTED_EDGE('',*,*,#355,.F.);
#293=ORIENTED_EDGE('',*,*,#386,.F.);
#294=ORIENTED_EDGE('',*,*,#392,.F.);
#295=ORIENTED_EDGE('',*,*,#393,.F.);
#296=ORIENTED_EDGE('',*,*,#357,.F.);
#297=ORIENTED_EDGE('',*,*,#394,.F.);
#298=ORIENTED_EDGE('',*,*,#390,.F.);
#299=ORIENTED_EDGE('',*,*,#380,.F.);
#300=ORIENTED_EDGE('',*,*,#349,.T.);
#301=ORIENTED_EDGE('',*,*,#375,.T.);
#302=ORIENTED_EDGE('',*,*,#348,.T.);
#303=ORIENTED_EDGE('',*,*,#374,.T.);
#304=ORIENTED_EDGE('',*,*,#347,.T.);
#305=ORIENTED_EDGE('',*,*,#373,.T.);
#306=ORIENTED_EDGE('',*,*,#346,.T.);
#307=ORIENTED_EDGE('',*,*,#372,.T.);
#308=ORIENTED_EDGE('',*,*,#371,.T.);
#309=ORIENTED_EDGE('',*,*,#387,.F.);
#310=VERTEX_POINT('',#566);
#311=VERTEX_POINT('',#568);
#312=VERTEX_POINT('',#570);
#313=VERTEX_POINT('',#572);
#314=VERTEX_POINT('',#574);
#315=VERTEX_POINT('',#575);
#316=VERTEX_POINT('',#577);
#317=VERTEX_POINT('',#579);
#318=VERTEX_POINT('',#581);
#319=VERTEX_POINT('',#583);
#320=VERTEX_POINT('',#585);
#321=VERTEX_POINT('',#587);
#322=VERTEX_POINT('',#590);
#323=VERTEX_POINT('',#591);
#324=VERTEX_POINT('',#593);
#325=VERTEX_POINT('',#595);
#326=VERTEX_POINT('',#599);
#327=VERTEX_POINT('',#600);
#328=VERTEX_POINT('',#603);
#329=VERTEX_POINT('',#607);
#330=VERTEX_POINT('',#611);
#331=VERTEX_POINT('',#613);
#332=VERTEX_POINT('',#617);
#333=VERTEX_POINT('',#619);
#334=VERTEX_POINT('',#621);
#335=VERTEX_POINT('',#623);
#336=VERTEX_POINT('',#625);
#337=VERTEX_POINT('',#632);
#338=VERTEX_POINT('',#633);
#339=VERTEX_POINT('',#638);
#340=VERTEX_POINT('',#639);
#341=VERTEX_POINT('',#644);
#342=VERTEX_POINT('',#646);
#343=VERTEX_POINT('',#650);
#344=VERTEX_POINT('',#654);
#345=VERTEX_POINT('',#656);
#346=EDGE_CURVE('',#310,#310,#395,.T.);
#347=EDGE_CURVE('',#311,#311,#396,.T.);
#348=EDGE_CURVE('',#312,#312,#397,.T.);
#349=EDGE_CURVE('',#313,#313,#398,.T.);
#350=EDGE_CURVE('',#314,#315,#89,.T.);
#351=EDGE_CURVE('',#314,#316,#399,.T.);
#352=EDGE_CURVE('',#317,#316,#90,.T.);
#353=EDGE_CURVE('',#317,#318,#400,.T.);
#354=EDGE_CURVE('',#319,#318,#91,.T.);
#355=EDGE_CURVE('',#319,#320,#401,.T.);
#356=EDGE_CURVE('',#321,#320,#92,.T.);
#357=EDGE_CURVE('',#321,#315,#402,.T.);
#358=EDGE_CURVE('',#322,#323,#93,.T.);
#359=EDGE_CURVE('',#322,#324,#94,.T.);
#360=EDGE_CURVE('',#325,#324,#95,.T.);
#361=EDGE_CURVE('',#323,#325,#96,.T.);
#362=EDGE_CURVE('',#326,#327,#97,.T.);
#363=EDGE_CURVE('',#327,#322,#98,.T.);
#364=EDGE_CURVE('',#328,#323,#99,.T.);
#365=EDGE_CURVE('',#328,#326,#100,.T.);
#366=EDGE_CURVE('',#329,#325,#101,.T.);
#367=EDGE_CURVE('',#329,#328,#102,.T.);
#368=EDGE_CURVE('',#324,#330,#103,.T.);
#369=EDGE_CURVE('',#331,#330,#104,.T.);
#370=EDGE_CURVE('',#331,#329,#105,.T.);
#371=EDGE_CURVE('',#332,#332,#403,.T.);
#372=EDGE_CURVE('',#333,#333,#404,.T.);
#373=EDGE_CURVE('',#334,#334,#405,.T.);
#374=EDGE_CURVE('',#335,#335,#406,.T.);
#375=EDGE_CURVE('',#336,#336,#407,.T.);
#376=EDGE_CURVE('',#326,#331,#106,.T.);
#377=EDGE_CURVE('',#330,#327,#107,.T.);
#378=EDGE_CURVE('',#337,#338,#108,.T.);
#379=EDGE_CURVE('',#338,#314,#109,.T.);
#380=EDGE_CURVE('',#315,#337,#110,.T.);
#381=EDGE_CURVE('',#339,#340,#111,.T.);
#382=EDGE_CURVE('',#340,#317,#112,.T.);
#383=EDGE_CURVE('',#316,#339,#113,.T.);
#384=EDGE_CURVE('',#318,#341,#114,.T.);
#385=EDGE_CURVE('',#341,#342,#115,.T.);
#386=EDGE_CURVE('',#342,#319,#116,.T.);
#387=EDGE_CURVE('',#343,#343,#408,.T.);
#388=EDGE_CURVE('',#341,#340,#409,.T.);
#389=EDGE_CURVE('',#339,#338,#410,.T.);
#390=EDGE_CURVE('',#337,#344,#411,.T.);
#391=EDGE_CURVE('',#345,#344,#117,.T.);
#392=EDGE_CURVE('',#345,#342,#412,.T.);
#393=EDGE_CURVE('',#320,#345,#118,.T.);
#394=EDGE_CURVE('',#344,#321,#119,.T.);
#395=CIRCLE('',#414,5.15);
#396=CIRCLE('',#415,5.15);
#397=CIRCLE('',#416,5.15);
#398=CIRCLE('',#417,5.15);
#399=CIRCLE('',#418,8.3);
#400=CIRCLE('',#419,8.3);
#401=CIRCLE('',#420,8.3);
#402=CIRCLE('',#421,8.3);
#403=CIRCLE('',#426,5.15);
#404=CIRCLE('',#427,5.15);
#405=CIRCLE('',#428,5.15);
#406=CIRCLE('',#429,5.15);
#407=CIRCLE('',#430,5.15);
#408=CIRCLE('',#437,5.15);
#409=CIRCLE('',#438,8.3);
#410=CIRCLE('',#439,8.3);
#411=CIRCLE('',#440,8.3);
#412=CIRCLE('',#441,8.3);
#413=AXIS2_PLACEMENT_3D('',#564,#453,#454);
#414=AXIS2_PLACEMENT_3D('',#565,#455,#456);
#415=AXIS2_PLACEMENT_3D('',#567,#457,#458);
#416=AXIS2_PLACEMENT_3D('',#569,#459,#460);
#417=AXIS2_PLACEMENT_3D('',#571,#461,#462);
#418=AXIS2_PLACEMENT_3D('',#576,#464,#465);
#419=AXIS2_PLACEMENT_3D('',#580,#467,#468);
#420=AXIS2_PLACEMENT_3D('',#584,#470,#471);
#421=AXIS2_PLACEMENT_3D('',#588,#473,#474);
#422=AXIS2_PLACEMENT_3D('',#597,#479,#480);
#423=AXIS2_PLACEMENT_3D('',#605,#485,#486);
#424=AXIS2_PLACEMENT_3D('',#609,#489,#490);
#425=AXIS2_PLACEMENT_3D('',#615,#494,#495);
#426=AXIS2_PLACEMENT_3D('',#616,#496,#497);
#427=AXIS2_PLACEMENT_3D('',#618,#498,#499);
#428=AXIS2_PLACEMENT_3D('',#620,#500,#501);
#429=AXIS2_PLACEMENT_3D('',#622,#502,#503);
#430=AXIS2_PLACEMENT_3D('',#624,#504,#505);
#431=AXIS2_PLACEMENT_3D('',#627,#507,#508);
#432=AXIS2_PLACEMENT_3D('',#629,#510,#511);
#433=AXIS2_PLACEMENT_3D('',#630,#512,#513);
#434=AXIS2_PLACEMENT_3D('',#636,#517,#518);
#435=AXIS2_PLACEMENT_3D('',#642,#522,#523);
#436=AXIS2_PLACEMENT_3D('',#648,#527,#528);
#437=AXIS2_PLACEMENT_3D('',#649,#529,#530);
#438=AXIS2_PLACEMENT_3D('',#651,#531,#532);
#439=AXIS2_PLACEMENT_3D('',#652,#533,#534);
#440=AXIS2_PLACEMENT_3D('',#653,#535,#536);
#441=AXIS2_PLACEMENT_3D('',#657,#538,#539);
#442=AXIS2_PLACEMENT_3D('',#658,#540,#541);
#443=AXIS2_PLACEMENT_3D('',#661,#544,#545);
#444=AXIS2_PLACEMENT_3D('',#662,#546,#547);
#445=AXIS2_PLACEMENT_3D('',#663,#548,#549);
#446=AXIS2_PLACEMENT_3D('',#664,#550,#551);
#447=AXIS2_PLACEMENT_3D('',#665,#552,#553);
#448=AXIS2_PLACEMENT_3D('',#666,#554,#555);
#449=AXIS2_PLACEMENT_3D('',#667,#556,#557);
#450=AXIS2_PLACEMENT_3D('',#668,#558,#559);
#451=AXIS2_PLACEMENT_3D('',#669,#560,#561);
#452=AXIS2_PLACEMENT_3D('',#670,#562,#563);
#453=DIRECTION('',(0.,0.,1.));
#454=DIRECTION('',(1.,0.,0.));
#455=DIRECTION('',(0.,0.,1.));
#456=DIRECTION('',(1.,0.,0.));
#457=DIRECTION('',(0.,0.,1.));
#458=DIRECTION('',(1.,0.,0.));
#459=DIRECTION('',(0.,0.,1.));
#460=DIRECTION('',(0.999999999999998,0.,0.));
#461=DIRECTION('',(0.,0.,1.));
#462=DIRECTION('',(0.999999999999998,0.,0.));
#463=DIRECTION('',(1.,0.,0.));
#464=DIRECTION('',(0.,0.,-1.));
#465=DIRECTION('',(1.,0.,0.));
#466=DIRECTION('',(0.,-1.,0.));
#467=DIRECTION('',(0.,0.,-1.));
#468=DIRECTION('',(1.,0.,0.));
#469=DIRECTION('',(-1.,0.,0.));
#470=DIRECTION('',(0.,0.,-1.));
#471=DIRECTION('',(1.,0.,0.));
#472=DIRECTION('',(0.,1.,0.));
#473=DIRECTION('',(0.,0.,-1.));
#474=DIRECTION('',(1.,0.,0.));
#475=DIRECTION('',(-1.,0.,0.));
#476=DIRECTION('',(0.,1.,0.));
#477=DIRECTION('',(1.,0.,0.));
#478=DIRECTION('',(0.,1.,0.));
#479=DIRECTION('',(0.,0.,1.));
#480=DIRECTION('',(1.,0.,0.));
#481=DIRECTION('',(0.,0.,1.));
#482=DIRECTION('',(-0.707106781186547,0.,0.707106781186548));
#483=DIRECTION('',(0.,0.,1.));
#484=DIRECTION('',(1.,0.,0.));
#485=DIRECTION('',(0.,-1.,0.));
#486=DIRECTION('',(0.,0.,-1.));
#487=DIRECTION('',(0.,0.,1.));
#488=DIRECTION('',(0.,-1.,0.));
#489=DIRECTION('',(-1.,0.,0.));
#490=DIRECTION('',(0.,0.,1.));
#491=DIRECTION('',(0.707106781186547,0.,-0.707106781186548));
#492=DIRECTION('',(0.,0.,1.));
#493=DIRECTION('',(-1.,0.,0.));
#494=DIRECTION('',(0.,1.,0.));
#495=DIRECTION('',(0.,0.,1.));
#496=DIRECTION('',(0.,0.,-1.));
#497=DIRECTION('',(-1.,0.,0.));
#498=DIRECTION('',(0.,0.,-1.));
#499=DIRECTION('',(-1.,0.,0.));
#500=DIRECTION('',(0.,0.,-1.));
#501=DIRECTION('',(-1.,0.,0.));
#502=DIRECTION('',(0.,0.,-1.));
#503=DIRECTION('',(-0.999999999999998,0.,0.));
#504=DIRECTION('',(0.,0.,-1.));
#505=DIRECTION('',(-0.999999999999998,0.,0.));
#506=DIRECTION('',(0.,1.,0.));
#507=DIRECTION('',(0.,0.,-1.));
#508=DIRECTION('',(-1.,0.,0.));
#509=DIRECTION('',(0.,-1.,0.));
#510=DIRECTION('',(1.,0.,0.));
#511=DIRECTION('',(0.,0.,-1.));
#512=DIRECTION('',(-0.707106781186548,0.,-0.707106781186547));
#513=DIRECTION('',(0.,-1.,0.));
#514=DIRECTION('',(-1.,0.,0.));
#515=DIRECTION('',(0.,0.,1.));
#516=DIRECTION('',(0.,0.,-1.));
#517=DIRECTION('',(0.,-1.,0.));
#518=DIRECTION('',(0.,0.,-1.));
#519=DIRECTION('',(0.,1.,0.));
#520=DIRECTION('',(0.,0.,1.));
#521=DIRECTION('',(0.,0.,-1.));
#522=DIRECTION('',(-1.,0.,0.));
#523=DIRECTION('',(0.,0.,1.));
#524=DIRECTION('',(0.,0.,-1.));
#525=DIRECTION('',(1.,0.,0.));
#526=DIRECTION('',(0.,0.,1.));
#527=DIRECTION('',(0.,1.,0.));
#528=DIRECTION('',(0.,0.,1.));
#529=DIRECTION('',(0.,0.,-1.));
#530=DIRECTION('',(-1.,0.,0.));
#531=DIRECTION('',(0.,0.,1.));
#532=DIRECTION('',(-1.,0.,0.));
#533=DIRECTION('',(0.,0.,1.));
#534=DIRECTION('',(-1.,0.,0.));
#535=DIRECTION('',(0.,0.,1.));
#536=DIRECTION('',(-1.,0.,0.));
#537=DIRECTION('',(0.,-1.,0.));
#538=DIRECTION('',(0.,0.,1.));
#539=DIRECTION('',(-1.,0.,0.));
#540=DIRECTION('',(0.,0.,-1.));
#541=DIRECTION('',(-1.,0.,0.));
#542=DIRECTION('',(0.,0.,-1.));
#543=DIRECTION('',(0.,0.,1.));
#544=DIRECTION('',(1.,0.,0.));
#545=DIRECTION('',(0.,0.,-1.));
#546=DIRECTION('',(0.,0.,1.));
#547=DIRECTION('',(1.,0.,0.));
#548=DIRECTION('',(0.,0.,1.));
#549=DIRECTION('',(1.,0.,0.));
#550=DIRECTION('',(0.,0.,1.));
#551=DIRECTION('',(1.,0.,0.));
#552=DIRECTION('',(0.,0.,1.));
#553=DIRECTION('',(1.,0.,0.));
#554=DIRECTION('',(0.,0.,-1.));
#555=DIRECTION('',(0.999999999999998,0.,0.));
#556=DIRECTION('',(0.,0.,-1.));
#557=DIRECTION('',(0.999999999999998,0.,0.));
#558=DIRECTION('',(0.,0.,-1.));
#559=DIRECTION('',(1.,0.,0.));
#560=DIRECTION('',(0.,0.,-1.));
#561=DIRECTION('',(1.,0.,0.));
#562=DIRECTION('',(0.,0.,-1.));
#563=DIRECTION('',(0.999999999999998,0.,0.));
#564=CARTESIAN_POINT('',(0.,0.,0.));
#565=CARTESIAN_POINT('',(35.2,209.9,64.));
#566=CARTESIAN_POINT('',(40.35,209.9,64.));
#567=CARTESIAN_POINT('',(100.3,325.4,64.));
#568=CARTESIAN_POINT('',(105.45,325.4,64.));
#569=CARTESIAN_POINT('',(230.3,299.1,64.));
#570=CARTESIAN_POINT('',(235.45,299.1,64.));
#571=CARTESIAN_POINT('',(245.4,167.4,64.));
#572=CARTESIAN_POINT('',(250.55,167.4,64.));
#573=CARTESIAN_POINT('',(147.2,50.8,64.));
#574=CARTESIAN_POINT('',(115.6,50.8,64.));
#575=CARTESIAN_POINT('',(193.7,50.8,64.));
#576=CARTESIAN_POINT('',(115.6,59.1,64.));
#577=CARTESIAN_POINT('',(107.3,59.1,64.));
#578=CARTESIAN_POINT('',(107.3,222.85,64.));
#579=CARTESIAN_POINT('',(107.3,207.1,64.));
#580=CARTESIAN_POINT('',(115.6,207.1,64.));
#581=CARTESIAN_POINT('',(115.6,215.4,64.));
#582=CARTESIAN_POINT('',(147.2,215.4,64.));
#583=CARTESIAN_POINT('',(193.7,215.4,64.));
#584=CARTESIAN_POINT('',(193.7,207.1,64.));
#585=CARTESIAN_POINT('',(202.,207.1,64.));
#586=CARTESIAN_POINT('',(202.,222.85,64.));
#587=CARTESIAN_POINT('',(202.,59.1,64.));
#588=CARTESIAN_POINT('',(193.7,59.1,64.));
#589=CARTESIAN_POINT('',(147.2,0.,64.));
#590=CARTESIAN_POINT('',(282.6,0.,64.));
#591=CARTESIAN_POINT('',(0.,0.,64.));
#592=CARTESIAN_POINT('',(282.6,222.85,64.));
#593=CARTESIAN_POINT('',(282.6,445.7,64.));
#594=CARTESIAN_POINT('',(147.2,445.7,64.));
#595=CARTESIAN_POINT('',(0.,445.7,64.));
#596=CARTESIAN_POINT('',(0.,222.85,64.));
#597=CARTESIAN_POINT('',(147.2,222.85,64.));
#598=CARTESIAN_POINT('',(294.4,0.,0.));
#599=CARTESIAN_POINT('',(294.4,0.,0.));
#600=CARTESIAN_POINT('',(294.4,0.,52.2));
#601=CARTESIAN_POINT('',(246.9,0.,99.6999999999999));
#602=CARTESIAN_POINT('',(0.,0.,0.));
#603=CARTESIAN_POINT('',(0.,0.,0.));
#604=CARTESIAN_POINT('',(147.2,0.,0.));
#605=CARTESIAN_POINT('',(147.2,0.,0.));
#606=CARTESIAN_POINT('',(0.,445.7,0.));
#607=CARTESIAN_POINT('',(0.,445.7,0.));
#608=CARTESIAN_POINT('',(0.,222.85,0.));
#609=CARTESIAN_POINT('',(0.,222.85,0.));
#610=CARTESIAN_POINT('',(246.9,445.7,99.6999999999999));
#611=CARTESIAN_POINT('',(294.4,445.7,52.2));
#612=CARTESIAN_POINT('',(294.4,445.7,0.));
#613=CARTESIAN_POINT('',(294.4,445.7,0.));
#614=CARTESIAN_POINT('',(147.2,445.7,0.));
#615=CARTESIAN_POINT('',(147.2,445.7,0.));
#616=CARTESIAN_POINT('',(124.9,112.3,0.));
#617=CARTESIAN_POINT('',(119.75,112.3,0.));
#618=CARTESIAN_POINT('',(35.2,209.9,0.));
#619=CARTESIAN_POINT('',(30.05,209.9,0.));
#620=CARTESIAN_POINT('',(100.3,325.4,0.));
#621=CARTESIAN_POINT('',(95.15,325.4,0.));
#622=CARTESIAN_POINT('',(230.3,299.1,0.));
#623=CARTESIAN_POINT('',(225.15,299.1,0.));
#624=CARTESIAN_POINT('',(245.4,167.4,0.));
#625=CARTESIAN_POINT('',(240.25,167.4,0.));
#626=CARTESIAN_POINT('',(294.4,222.85,0.));
#627=CARTESIAN_POINT('',(147.2,222.85,0.));
#628=CARTESIAN_POINT('',(294.4,222.85,52.2));
#629=CARTESIAN_POINT('',(294.4,222.85,0.));
#630=CARTESIAN_POINT('',(294.4,222.85,52.2));
#631=CARTESIAN_POINT('',(154.65,50.8,39.8));
#632=CARTESIAN_POINT('',(193.7,50.8,39.8));
#633=CARTESIAN_POINT('',(115.6,50.8,39.8));
#634=CARTESIAN_POINT('',(115.6,50.8,64.));
#635=CARTESIAN_POINT('',(193.7,50.8,39.8));
#636=CARTESIAN_POINT('',(154.65,50.8,39.8));
#637=CARTESIAN_POINT('',(107.3,133.1,39.8));
#638=CARTESIAN_POINT('',(107.3,59.1,39.8));
#639=CARTESIAN_POINT('',(107.3,207.1,39.8));
#640=CARTESIAN_POINT('',(107.3,207.1,64.));
#641=CARTESIAN_POINT('',(107.3,59.1,39.8));
#642=CARTESIAN_POINT('',(107.3,133.1,39.8));
#643=CARTESIAN_POINT('',(115.6,215.4,39.8));
#644=CARTESIAN_POINT('',(115.6,215.4,39.8));
#645=CARTESIAN_POINT('',(154.65,215.4,39.8));
#646=CARTESIAN_POINT('',(193.7,215.4,39.8));
#647=CARTESIAN_POINT('',(193.7,215.4,64.));
#648=CARTESIAN_POINT('',(154.65,215.4,39.8));
#649=CARTESIAN_POINT('',(124.9,112.3,39.8));
#650=CARTESIAN_POINT('',(119.75,112.3,39.8));
#651=CARTESIAN_POINT('',(115.6,207.1,39.8));
#652=CARTESIAN_POINT('',(115.6,59.1,39.8));
#653=CARTESIAN_POINT('',(193.7,59.1,39.8));
#654=CARTESIAN_POINT('',(202.,59.1,39.8));
#655=CARTESIAN_POINT('',(202.,133.1,39.8));
#656=CARTESIAN_POINT('',(202.,207.1,39.8));
#657=CARTESIAN_POINT('',(193.7,207.1,39.8));
#658=CARTESIAN_POINT('',(154.65,133.1,39.8));
#659=CARTESIAN_POINT('',(202.,207.1,39.8));
#660=CARTESIAN_POINT('',(202.,59.1,64.));
#661=CARTESIAN_POINT('',(202.,133.1,39.8));
#662=CARTESIAN_POINT('',(115.6,207.1,39.8));
#663=CARTESIAN_POINT('',(115.6,59.1,39.8));
#664=CARTESIAN_POINT('',(193.7,207.1,39.8));
#665=CARTESIAN_POINT('',(193.7,59.1,39.8));
#666=CARTESIAN_POINT('',(245.4,167.4,64.05));
#667=CARTESIAN_POINT('',(230.3,299.1,64.05));
#668=CARTESIAN_POINT('',(100.3,325.4,64.05));
#669=CARTESIAN_POINT('',(35.2,209.9,64.05));
#670=CARTESIAN_POINT('',(124.9,112.3,64.05));
#671=MECHANICAL_DESIGN_GEOMETRIC_PRESENTATION_REPRESENTATION('',(#24),#672);
#672=(
GEOMETRIC_REPRESENTATION_CONTEXT(3)
GLOBAL_UNCERTAINTY_ASSIGNED_CONTEXT((#673))
GLOBAL_UNIT_ASSIGNED_CONTEXT((#679,#675,#674))
REPRESENTATION_CONTEXT('featured_part_06037','TOP_LEVEL_ASSEMBLY_PART')
);
#673=UNCERTAINTY_MEASURE_WITH_UNIT(LENGTH_MEASURE(2.E-5),#679,
'DISTANCE_ACCURACY_VALUE','Maximum Tolerance applied to model');
#674=(
NAMED_UNIT(*)
SI_UNIT($,.STERADIAN.)
SOLID_ANGLE_UNIT()
);
#675=(
CONVERSION_BASED_UNIT('DEGREE',#677)
NAMED_UNIT(#676)
PLANE_ANGLE_UNIT()
);
#676=DIMENSIONAL_EXPONENTS(0.,0.,0.,0.,0.,0.,0.);
#677=PLANE_ANGLE_MEASURE_WITH_UNIT(PLANE_ANGLE_MEASURE(0.0174532925),#678);
#678=(
NAMED_UNIT(*)
PLANE_ANGLE_UNIT()
SI_UNIT($,.RADIAN.)
);
#679=(
LENGTH_UNIT()
NAMED_UNIT(*)
SI_UNIT(.MILLI.,.METRE.)
);
ENDSEC;
END-ISO-10303-21;
