ISO-10303-21;
HEADER;
/* Generated by software containing ST-Developer
 * from STEP Tools, Inc. (www.steptools.com) 
 */
/* OPTION: using custom schema-name function */

FILE_DESCRIPTION(
/* description */ (''),
/* implementation_level */ '2;1');

FILE_NAME(
/* name */ 'featured_part_06647.stp',
/* time_stamp */ '2026-07-09T09:44:51-04:00',
/* author */ (''),
/* organization */ (''),
/* preprocessor_version */ 'ST-DEVELOPER v20.1',
/* originating_system */ 'SIEMENS PLM Software NX2512.6002',
/* authorisation */ '');

FILE_SCHEMA (('AUTOMOTIVE_DESIGN { 1 0 10303 214 3 1 1 1 }'));
ENDSEC;

DATA;
#10=SHAPE_REPRESENTATION_RELATIONSHIP('None',
'relationship between featured_part_06647-None and featured_part_06647
-None',#22,#11);
#11=ADVANCED_BREP_SHAPE_REPRESENTATION('featured_part_06647-None',(#32),
#1186);
#12=SHAPE_DEFINITION_REPRESENTATION(#13,#22);
#13=PRODUCT_DEFINITION_SHAPE('','',#14);
#14=PRODUCT_DEFINITION(' ','',#16,#15);
#15=PRODUCT_DEFINITION_CONTEXT('part definition',#21,'design');
#16=PRODUCT_DEFINITION_FORMATION_WITH_SPECIFIED_SOURCE(' ',' ',#18,
 .NOT_KNOWN.);
#17=PRODUCT_RELATED_PRODUCT_CATEGORY('part','',(#18));
#18=PRODUCT('featured_part_06647','featured_part_06647',' ',(#19));
#19=PRODUCT_CONTEXT(' ',#21,'mechanical');
#20=APPLICATION_PROTOCOL_DEFINITION('international standard',
'automotive_design',2010,#21);
#21=APPLICATION_CONTEXT(
'core data for automotive mechanical design processes');
#22=SHAPE_REPRESENTATION('featured_part_06647-None',(#725),#1186);
#23=PRESENTATION_LAYER_ASSIGNMENT('1','Layer 1',(#32));
#24=STYLED_ITEM('',(#25),#32);
#25=PRESENTATION_STYLE_ASSIGNMENT((#26));
#26=SURFACE_STYLE_USAGE(.BOTH.,#27);
#27=SURFACE_SIDE_STYLE('',(#28));
#28=SURFACE_STYLE_FILL_AREA(#29);
#29=FILL_AREA_STYLE('',(#30));
#30=FILL_AREA_STYLE_COLOUR('',#31);
#31=COLOUR_RGB('medium steel',0.611764705882353,0.658823529411765,0.670588235294118);
#32=MANIFOLD_SOLID_BREP('',#33);
#33=CLOSED_SHELL('',(#71,#72,#73,#74,#75,#76,#77,#78,#79,#80,#81,#82,#83,
#84,#85,#86,#87,#88,#89,#90,#91,#92,#93,#94,#95,#96,#97,#98,#99,#100,#101,
#102,#103,#104,#105,#106,#107));
#34=CYLINDRICAL_SURFACE('',#752,4.6);
#35=CYLINDRICAL_SURFACE('',#753,4.6);
#36=CYLINDRICAL_SURFACE('',#763,4.7);
#37=CYLINDRICAL_SURFACE('',#764,4.7);
#38=CYLINDRICAL_SURFACE('',#765,4.7);
#39=CYLINDRICAL_SURFACE('',#766,4.7);
#40=CYLINDRICAL_SURFACE('',#776,8.9);
#41=CYLINDRICAL_SURFACE('',#777,8.9);
#42=CYLINDRICAL_SURFACE('',#778,8.9);
#43=CYLINDRICAL_SURFACE('',#779,8.9);
#44=CYLINDRICAL_SURFACE('',#784,6.7);
#45=FACE_BOUND('',#170,.T.);
#46=FACE_BOUND('',#171,.T.);
#47=FACE_BOUND('',#181,.T.);
#48=FACE_BOUND('',#182,.T.);
#49=CIRCLE('',#727,6.7);
#50=CIRCLE('',#728,4.6);
#51=CIRCLE('',#729,4.6);
#52=CIRCLE('',#730,4.7);
#53=CIRCLE('',#731,4.7);
#54=CIRCLE('',#732,4.7);
#55=CIRCLE('',#733,4.7);
#56=CIRCLE('',#744,8.9);
#57=CIRCLE('',#745,8.9);
#58=CIRCLE('',#746,8.9);
#59=CIRCLE('',#747,8.9);
#60=CIRCLE('',#748,4.6);
#61=CIRCLE('',#749,4.6);
#62=CIRCLE('',#757,4.7);
#63=CIRCLE('',#758,4.7);
#64=CIRCLE('',#759,4.7);
#65=CIRCLE('',#760,4.7);
#66=CIRCLE('',#771,8.9);
#67=CIRCLE('',#772,8.9);
#68=CIRCLE('',#773,8.9);
#69=CIRCLE('',#774,8.9);
#70=CIRCLE('',#782,6.7);
#71=ADVANCED_FACE('',(#134),#108,.F.);
#72=ADVANCED_FACE('',(#45,#46),#109,.T.);
#73=ADVANCED_FACE('',(#135),#110,.T.);
#74=ADVANCED_FACE('',(#136),#111,.T.);
#75=ADVANCED_FACE('',(#137),#112,.T.);
#76=ADVANCED_FACE('',(#138),#113,.T.);
#77=ADVANCED_FACE('',(#139),#114,.T.);
#78=ADVANCED_FACE('',(#140),#115,.F.);
#79=ADVANCED_FACE('',(#141),#116,.F.);
#80=ADVANCED_FACE('',(#142),#117,.F.);
#81=ADVANCED_FACE('',(#143),#118,.F.);
#82=ADVANCED_FACE('',(#47,#48),#119,.F.);
#83=ADVANCED_FACE('',(#144),#120,.F.);
#84=ADVANCED_FACE('',(#145),#34,.F.);
#85=ADVANCED_FACE('',(#146),#35,.F.);
#86=ADVANCED_FACE('',(#147),#121,.F.);
#87=ADVANCED_FACE('',(#148),#122,.F.);
#88=ADVANCED_FACE('',(#149),#123,.F.);
#89=ADVANCED_FACE('',(#150),#124,.F.);
#90=ADVANCED_FACE('',(#151),#125,.F.);
#91=ADVANCED_FACE('',(#152),#36,.F.);
#92=ADVANCED_FACE('',(#153),#37,.F.);
#93=ADVANCED_FACE('',(#154),#38,.F.);
#94=ADVANCED_FACE('',(#155),#39,.F.);
#95=ADVANCED_FACE('',(#156),#126,.F.);
#96=ADVANCED_FACE('',(#157),#127,.F.);
#97=ADVANCED_FACE('',(#158),#128,.F.);
#98=ADVANCED_FACE('',(#159),#129,.F.);
#99=ADVANCED_FACE('',(#160),#130,.F.);
#100=ADVANCED_FACE('',(#161),#40,.F.);
#101=ADVANCED_FACE('',(#162),#41,.F.);
#102=ADVANCED_FACE('',(#163),#42,.F.);
#103=ADVANCED_FACE('',(#164),#43,.F.);
#104=ADVANCED_FACE('',(#165),#131,.F.);
#105=ADVANCED_FACE('',(#166),#132,.F.);
#106=ADVANCED_FACE('',(#167),#133,.F.);
#107=ADVANCED_FACE('',(#168),#44,.F.);
#108=PLANE('',#726);
#109=PLANE('',#734);
#110=PLANE('',#735);
#111=PLANE('',#736);
#112=PLANE('',#737);
#113=PLANE('',#738);
#114=PLANE('',#739);
#115=PLANE('',#740);
#116=PLANE('',#741);
#117=PLANE('',#742);
#118=PLANE('',#743);
#119=PLANE('',#750);
#120=PLANE('',#751);
#121=PLANE('',#754);
#122=PLANE('',#755);
#123=PLANE('',#756);
#124=PLANE('',#761);
#125=PLANE('',#762);
#126=PLANE('',#767);
#127=PLANE('',#768);
#128=PLANE('',#769);
#129=PLANE('',#770);
#130=PLANE('',#775);
#131=PLANE('',#780);
#132=PLANE('',#781);
#133=PLANE('',#783);
#134=FACE_OUTER_BOUND('',#169,.T.);
#135=FACE_OUTER_BOUND('',#172,.T.);
#136=FACE_OUTER_BOUND('',#173,.T.);
#137=FACE_OUTER_BOUND('',#174,.T.);
#138=FACE_OUTER_BOUND('',#175,.T.);
#139=FACE_OUTER_BOUND('',#176,.T.);
#140=FACE_OUTER_BOUND('',#177,.T.);
#141=FACE_OUTER_BOUND('',#178,.T.);
#142=FACE_OUTER_BOUND('',#179,.T.);
#143=FACE_OUTER_BOUND('',#180,.T.);
#144=FACE_OUTER_BOUND('',#183,.T.);
#145=FACE_OUTER_BOUND('',#184,.T.);
#146=FACE_OUTER_BOUND('',#185,.T.);
#147=FACE_OUTER_BOUND('',#186,.T.);
#148=FACE_OUTER_BOUND('',#187,.T.);
#149=FACE_OUTER_BOUND('',#188,.T.);
#150=FACE_OUTER_BOUND('',#189,.T.);
#151=FACE_OUTER_BOUND('',#190,.T.);
#152=FACE_OUTER_BOUND('',#191,.T.);
#153=FACE_OUTER_BOUND('',#192,.T.);
#154=FACE_OUTER_BOUND('',#193,.T.);
#155=FACE_OUTER_BOUND('',#194,.T.);
#156=FACE_OUTER_BOUND('',#195,.T.);
#157=FACE_OUTER_BOUND('',#196,.T.);
#158=FACE_OUTER_BOUND('',#197,.T.);
#159=FACE_OUTER_BOUND('',#198,.T.);
#160=FACE_OUTER_BOUND('',#199,.T.);
#161=FACE_OUTER_BOUND('',#200,.T.);
#162=FACE_OUTER_BOUND('',#201,.T.);
#163=FACE_OUTER_BOUND('',#202,.T.);
#164=FACE_OUTER_BOUND('',#203,.T.);
#165=FACE_OUTER_BOUND('',#204,.T.);
#166=FACE_OUTER_BOUND('',#205,.T.);
#167=FACE_OUTER_BOUND('',#206,.T.);
#168=FACE_OUTER_BOUND('',#207,.T.);
#169=EDGE_LOOP('',(#208,#209,#210,#211));
#170=EDGE_LOOP('',(#212,#213,#214,#215,#216,#217,#218,#219,#220,#221,#222,
#223,#224));
#171=EDGE_LOOP('',(#225,#226,#227,#228,#229,#230,#231,#232));
#172=EDGE_LOOP('',(#233,#234,#235,#236,#237,#238));
#173=EDGE_LOOP('',(#239,#240,#241,#242,#243,#244,#245,#246));
#174=EDGE_LOOP('',(#247,#248,#249,#250,#251,#252,#253));
#175=EDGE_LOOP('',(#254,#255,#256,#257));
#176=EDGE_LOOP('',(#258,#259,#260,#261,#262,#263));
#177=EDGE_LOOP('',(#264,#265,#266,#267));
#178=EDGE_LOOP('',(#268,#269,#270,#271));
#179=EDGE_LOOP('',(#272,#273,#274,#275,#276));
#180=EDGE_LOOP('',(#277,#278,#279,#280,#281));
#181=EDGE_LOOP('',(#282,#283,#284,#285,#286,#287,#288,#289));
#182=EDGE_LOOP('',(#290,#291,#292,#293,#294,#295));
#183=EDGE_LOOP('',(#296,#297,#298,#299));
#184=EDGE_LOOP('',(#300,#301,#302,#303));
#185=EDGE_LOOP('',(#304,#305,#306,#307));
#186=EDGE_LOOP('',(#308,#309,#310,#311));
#187=EDGE_LOOP('',(#312,#313,#314,#315));
#188=EDGE_LOOP('',(#316,#317,#318,#319));
#189=EDGE_LOOP('',(#320,#321,#322,#323,#324,#325,#326,#327));
#190=EDGE_LOOP('',(#328,#329,#330,#331));
#191=EDGE_LOOP('',(#332,#333,#334,#335));
#192=EDGE_LOOP('',(#336,#337,#338,#339));
#193=EDGE_LOOP('',(#340,#341,#342,#343));
#194=EDGE_LOOP('',(#344,#345,#346,#347));
#195=EDGE_LOOP('',(#348,#349,#350,#351));
#196=EDGE_LOOP('',(#352,#353,#354,#355));
#197=EDGE_LOOP('',(#356,#357,#358,#359));
#198=EDGE_LOOP('',(#360,#361,#362,#363));
#199=EDGE_LOOP('',(#364,#365,#366,#367,#368,#369,#370,#371));
#200=EDGE_LOOP('',(#372,#373,#374,#375));
#201=EDGE_LOOP('',(#376,#377,#378,#379));
#202=EDGE_LOOP('',(#380,#381,#382,#383));
#203=EDGE_LOOP('',(#384,#385,#386,#387));
#204=EDGE_LOOP('',(#388,#389,#390,#391,#392));
#205=EDGE_LOOP('',(#393,#394,#395,#396));
#206=EDGE_LOOP('',(#397,#398,#399,#400,#401));
#207=EDGE_LOOP('',(#402,#403,#404,#405));
#208=ORIENTED_EDGE('',*,*,#472,.F.);
#209=ORIENTED_EDGE('',*,*,#473,.F.);
#210=ORIENTED_EDGE('',*,*,#474,.F.);
#211=ORIENTED_EDGE('',*,*,#475,.F.);
#212=ORIENTED_EDGE('',*,*,#476,.F.);
#213=ORIENTED_EDGE('',*,*,#477,.T.);
#214=ORIENTED_EDGE('',*,*,#478,.F.);
#215=ORIENTED_EDGE('',*,*,#479,.F.);
#216=ORIENTED_EDGE('',*,*,#480,.T.);
#217=ORIENTED_EDGE('',*,*,#481,.F.);
#218=ORIENTED_EDGE('',*,*,#482,.T.);
#219=ORIENTED_EDGE('',*,*,#483,.F.);
#220=ORIENTED_EDGE('',*,*,#484,.T.);
#221=ORIENTED_EDGE('',*,*,#485,.F.);
#222=ORIENTED_EDGE('',*,*,#475,.T.);
#223=ORIENTED_EDGE('',*,*,#486,.F.);
#224=ORIENTED_EDGE('',*,*,#487,.T.);
#225=ORIENTED_EDGE('',*,*,#488,.F.);
#226=ORIENTED_EDGE('',*,*,#489,.T.);
#227=ORIENTED_EDGE('',*,*,#490,.F.);
#228=ORIENTED_EDGE('',*,*,#491,.T.);
#229=ORIENTED_EDGE('',*,*,#492,.F.);
#230=ORIENTED_EDGE('',*,*,#493,.T.);
#231=ORIENTED_EDGE('',*,*,#494,.F.);
#232=ORIENTED_EDGE('',*,*,#495,.T.);
#233=ORIENTED_EDGE('',*,*,#496,.T.);
#234=ORIENTED_EDGE('',*,*,#497,.T.);
#235=ORIENTED_EDGE('',*,*,#486,.T.);
#236=ORIENTED_EDGE('',*,*,#474,.T.);
#237=ORIENTED_EDGE('',*,*,#498,.F.);
#238=ORIENTED_EDGE('',*,*,#499,.T.);
#239=ORIENTED_EDGE('',*,*,#500,.F.);
#240=ORIENTED_EDGE('',*,*,#501,.F.);
#241=ORIENTED_EDGE('',*,*,#502,.T.);
#242=ORIENTED_EDGE('',*,*,#503,.T.);
#243=ORIENTED_EDGE('',*,*,#504,.F.);
#244=ORIENTED_EDGE('',*,*,#505,.T.);
#245=ORIENTED_EDGE('',*,*,#498,.T.);
#246=ORIENTED_EDGE('',*,*,#473,.T.);
#247=ORIENTED_EDGE('',*,*,#506,.F.);
#248=ORIENTED_EDGE('',*,*,#507,.F.);
#249=ORIENTED_EDGE('',*,*,#508,.F.);
#250=ORIENTED_EDGE('',*,*,#509,.T.);
#251=ORIENTED_EDGE('',*,*,#504,.T.);
#252=ORIENTED_EDGE('',*,*,#510,.T.);
#253=ORIENTED_EDGE('',*,*,#479,.T.);
#254=ORIENTED_EDGE('',*,*,#511,.F.);
#255=ORIENTED_EDGE('',*,*,#499,.F.);
#256=ORIENTED_EDGE('',*,*,#505,.F.);
#257=ORIENTED_EDGE('',*,*,#509,.F.);
#258=ORIENTED_EDGE('',*,*,#512,.T.);
#259=ORIENTED_EDGE('',*,*,#513,.T.);
#260=ORIENTED_EDGE('',*,*,#496,.F.);
#261=ORIENTED_EDGE('',*,*,#511,.T.);
#262=ORIENTED_EDGE('',*,*,#508,.T.);
#263=ORIENTED_EDGE('',*,*,#514,.F.);
#264=ORIENTED_EDGE('',*,*,#515,.F.);
#265=ORIENTED_EDGE('',*,*,#480,.F.);
#266=ORIENTED_EDGE('',*,*,#510,.F.);
#267=ORIENTED_EDGE('',*,*,#503,.F.);
#268=ORIENTED_EDGE('',*,*,#516,.F.);
#269=ORIENTED_EDGE('',*,*,#487,.F.);
#270=ORIENTED_EDGE('',*,*,#497,.F.);
#271=ORIENTED_EDGE('',*,*,#513,.F.);
#272=ORIENTED_EDGE('',*,*,#485,.T.);
#273=ORIENTED_EDGE('',*,*,#517,.T.);
#274=ORIENTED_EDGE('',*,*,#518,.T.);
#275=ORIENTED_EDGE('',*,*,#500,.T.);
#276=ORIENTED_EDGE('',*,*,#472,.T.);
#277=ORIENTED_EDGE('',*,*,#519,.T.);
#278=ORIENTED_EDGE('',*,*,#520,.T.);
#279=ORIENTED_EDGE('',*,*,#481,.T.);
#280=ORIENTED_EDGE('',*,*,#515,.T.);
#281=ORIENTED_EDGE('',*,*,#502,.F.);
#282=ORIENTED_EDGE('',*,*,#521,.T.);
#283=ORIENTED_EDGE('',*,*,#522,.T.);
#284=ORIENTED_EDGE('',*,*,#523,.T.);
#285=ORIENTED_EDGE('',*,*,#524,.T.);
#286=ORIENTED_EDGE('',*,*,#525,.T.);
#287=ORIENTED_EDGE('',*,*,#526,.T.);
#288=ORIENTED_EDGE('',*,*,#527,.T.);
#289=ORIENTED_EDGE('',*,*,#528,.T.);
#290=ORIENTED_EDGE('',*,*,#518,.F.);
#291=ORIENTED_EDGE('',*,*,#529,.T.);
#292=ORIENTED_EDGE('',*,*,#530,.F.);
#293=ORIENTED_EDGE('',*,*,#531,.T.);
#294=ORIENTED_EDGE('',*,*,#519,.F.);
#295=ORIENTED_EDGE('',*,*,#501,.T.);
#296=ORIENTED_EDGE('',*,*,#530,.T.);
#297=ORIENTED_EDGE('',*,*,#532,.T.);
#298=ORIENTED_EDGE('',*,*,#483,.T.);
#299=ORIENTED_EDGE('',*,*,#533,.T.);
#300=ORIENTED_EDGE('',*,*,#484,.F.);
#301=ORIENTED_EDGE('',*,*,#532,.F.);
#302=ORIENTED_EDGE('',*,*,#529,.F.);
#303=ORIENTED_EDGE('',*,*,#517,.F.);
#304=ORIENTED_EDGE('',*,*,#482,.F.);
#305=ORIENTED_EDGE('',*,*,#520,.F.);
#306=ORIENTED_EDGE('',*,*,#531,.F.);
#307=ORIENTED_EDGE('',*,*,#533,.F.);
#308=ORIENTED_EDGE('',*,*,#534,.T.);
#309=ORIENTED_EDGE('',*,*,#535,.T.);
#310=ORIENTED_EDGE('',*,*,#488,.T.);
#311=ORIENTED_EDGE('',*,*,#536,.T.);
#312=ORIENTED_EDGE('',*,*,#490,.T.);
#313=ORIENTED_EDGE('',*,*,#537,.T.);
#314=ORIENTED_EDGE('',*,*,#538,.T.);
#315=ORIENTED_EDGE('',*,*,#539,.T.);
#316=ORIENTED_EDGE('',*,*,#540,.T.);
#317=ORIENTED_EDGE('',*,*,#541,.T.);
#318=ORIENTED_EDGE('',*,*,#492,.T.);
#319=ORIENTED_EDGE('',*,*,#542,.T.);
#320=ORIENTED_EDGE('',*,*,#538,.F.);
#321=ORIENTED_EDGE('',*,*,#543,.T.);
#322=ORIENTED_EDGE('',*,*,#534,.F.);
#323=ORIENTED_EDGE('',*,*,#544,.T.);
#324=ORIENTED_EDGE('',*,*,#545,.F.);
#325=ORIENTED_EDGE('',*,*,#546,.T.);
#326=ORIENTED_EDGE('',*,*,#540,.F.);
#327=ORIENTED_EDGE('',*,*,#547,.T.);
#328=ORIENTED_EDGE('',*,*,#494,.T.);
#329=ORIENTED_EDGE('',*,*,#548,.T.);
#330=ORIENTED_EDGE('',*,*,#545,.T.);
#331=ORIENTED_EDGE('',*,*,#549,.T.);
#332=ORIENTED_EDGE('',*,*,#489,.F.);
#333=ORIENTED_EDGE('',*,*,#535,.F.);
#334=ORIENTED_EDGE('',*,*,#543,.F.);
#335=ORIENTED_EDGE('',*,*,#537,.F.);
#336=ORIENTED_EDGE('',*,*,#493,.F.);
#337=ORIENTED_EDGE('',*,*,#541,.F.);
#338=ORIENTED_EDGE('',*,*,#546,.F.);
#339=ORIENTED_EDGE('',*,*,#548,.F.);
#340=ORIENTED_EDGE('',*,*,#491,.F.);
#341=ORIENTED_EDGE('',*,*,#539,.F.);
#342=ORIENTED_EDGE('',*,*,#547,.F.);
#343=ORIENTED_EDGE('',*,*,#542,.F.);
#344=ORIENTED_EDGE('',*,*,#495,.F.);
#345=ORIENTED_EDGE('',*,*,#549,.F.);
#346=ORIENTED_EDGE('',*,*,#544,.F.);
#347=ORIENTED_EDGE('',*,*,#536,.F.);
#348=ORIENTED_EDGE('',*,*,#550,.T.);
#349=ORIENTED_EDGE('',*,*,#551,.T.);
#350=ORIENTED_EDGE('',*,*,#525,.F.);
#351=ORIENTED_EDGE('',*,*,#552,.T.);
#352=ORIENTED_EDGE('',*,*,#527,.F.);
#353=ORIENTED_EDGE('',*,*,#553,.T.);
#354=ORIENTED_EDGE('',*,*,#554,.T.);
#355=ORIENTED_EDGE('',*,*,#555,.T.);
#356=ORIENTED_EDGE('',*,*,#521,.F.);
#357=ORIENTED_EDGE('',*,*,#556,.T.);
#358=ORIENTED_EDGE('',*,*,#557,.T.);
#359=ORIENTED_EDGE('',*,*,#558,.T.);
#360=ORIENTED_EDGE('',*,*,#559,.T.);
#361=ORIENTED_EDGE('',*,*,#560,.T.);
#362=ORIENTED_EDGE('',*,*,#523,.F.);
#363=ORIENTED_EDGE('',*,*,#561,.T.);
#364=ORIENTED_EDGE('',*,*,#554,.F.);
#365=ORIENTED_EDGE('',*,*,#562,.T.);
#366=ORIENTED_EDGE('',*,*,#550,.F.);
#367=ORIENTED_EDGE('',*,*,#563,.T.);
#368=ORIENTED_EDGE('',*,*,#559,.F.);
#369=ORIENTED_EDGE('',*,*,#564,.T.);
#370=ORIENTED_EDGE('',*,*,#557,.F.);
#371=ORIENTED_EDGE('',*,*,#565,.T.);
#372=ORIENTED_EDGE('',*,*,#526,.F.);
#373=ORIENTED_EDGE('',*,*,#551,.F.);
#374=ORIENTED_EDGE('',*,*,#562,.F.);
#375=ORIENTED_EDGE('',*,*,#553,.F.);
#376=ORIENTED_EDGE('',*,*,#524,.F.);
#377=ORIENTED_EDGE('',*,*,#560,.F.);
#378=ORIENTED_EDGE('',*,*,#563,.F.);
#379=ORIENTED_EDGE('',*,*,#552,.F.);
#380=ORIENTED_EDGE('',*,*,#528,.F.);
#381=ORIENTED_EDGE('',*,*,#555,.F.);
#382=ORIENTED_EDGE('',*,*,#565,.F.);
#383=ORIENTED_EDGE('',*,*,#556,.F.);
#384=ORIENTED_EDGE('',*,*,#522,.F.);
#385=ORIENTED_EDGE('',*,*,#558,.F.);
#386=ORIENTED_EDGE('',*,*,#564,.F.);
#387=ORIENTED_EDGE('',*,*,#561,.F.);
#388=ORIENTED_EDGE('',*,*,#566,.T.);
#389=ORIENTED_EDGE('',*,*,#567,.T.);
#390=ORIENTED_EDGE('',*,*,#476,.T.);
#391=ORIENTED_EDGE('',*,*,#516,.T.);
#392=ORIENTED_EDGE('',*,*,#512,.F.);
#393=ORIENTED_EDGE('',*,*,#478,.T.);
#394=ORIENTED_EDGE('',*,*,#568,.T.);
#395=ORIENTED_EDGE('',*,*,#569,.T.);
#396=ORIENTED_EDGE('',*,*,#506,.T.);
#397=ORIENTED_EDGE('',*,*,#569,.F.);
#398=ORIENTED_EDGE('',*,*,#570,.T.);
#399=ORIENTED_EDGE('',*,*,#566,.F.);
#400=ORIENTED_EDGE('',*,*,#514,.T.);
#401=ORIENTED_EDGE('',*,*,#507,.T.);
#402=ORIENTED_EDGE('',*,*,#477,.F.);
#403=ORIENTED_EDGE('',*,*,#567,.F.);
#404=ORIENTED_EDGE('',*,*,#570,.F.);
#405=ORIENTED_EDGE('',*,*,#568,.F.);
#406=VERTEX_POINT('',#984);
#407=VERTEX_POINT('',#985);
#408=VERTEX_POINT('',#987);
#409=VERTEX_POINT('',#989);
#410=VERTEX_POINT('',#993);
#411=VERTEX_POINT('',#994);
#412=VERTEX_POINT('',#996);
#413=VERTEX_POINT('',#998);
#414=VERTEX_POINT('',#1000);
#415=VERTEX_POINT('',#1002);
#416=VERTEX_POINT('',#1004);
#417=VERTEX_POINT('',#1006);
#418=VERTEX_POINT('',#1008);
#419=VERTEX_POINT('',#1010);
#420=VERTEX_POINT('',#1013);
#421=VERTEX_POINT('',#1016);
#422=VERTEX_POINT('',#1017);
#423=VERTEX_POINT('',#1019);
#424=VERTEX_POINT('',#1021);
#425=VERTEX_POINT('',#1023);
#426=VERTEX_POINT('',#1025);
#427=VERTEX_POINT('',#1027);
#428=VERTEX_POINT('',#1029);
#429=VERTEX_POINT('',#1033);
#430=VERTEX_POINT('',#1034);
#431=VERTEX_POINT('',#1037);
#432=VERTEX_POINT('',#1041);
#433=VERTEX_POINT('',#1043);
#434=VERTEX_POINT('',#1045);
#435=VERTEX_POINT('',#1047);
#436=VERTEX_POINT('',#1049);
#437=VERTEX_POINT('',#1053);
#438=VERTEX_POINT('',#1055);
#439=VERTEX_POINT('',#1057);
#440=VERTEX_POINT('',#1064);
#441=VERTEX_POINT('',#1065);
#442=VERTEX_POINT('',#1074);
#443=VERTEX_POINT('',#1078);
#444=VERTEX_POINT('',#1082);
#445=VERTEX_POINT('',#1083);
#446=VERTEX_POINT('',#1085);
#447=VERTEX_POINT('',#1087);
#448=VERTEX_POINT('',#1089);
#449=VERTEX_POINT('',#1091);
#450=VERTEX_POINT('',#1093);
#451=VERTEX_POINT('',#1095);
#452=VERTEX_POINT('',#1098);
#453=VERTEX_POINT('',#1100);
#454=VERTEX_POINT('',#1109);
#455=VERTEX_POINT('',#1110);
#456=VERTEX_POINT('',#1115);
#457=VERTEX_POINT('',#1117);
#458=VERTEX_POINT('',#1121);
#459=VERTEX_POINT('',#1122);
#460=VERTEX_POINT('',#1128);
#461=VERTEX_POINT('',#1130);
#462=VERTEX_POINT('',#1142);
#463=VERTEX_POINT('',#1143);
#464=VERTEX_POINT('',#1148);
#465=VERTEX_POINT('',#1150);
#466=VERTEX_POINT('',#1154);
#467=VERTEX_POINT('',#1156);
#468=VERTEX_POINT('',#1160);
#469=VERTEX_POINT('',#1161);
#470=VERTEX_POINT('',#1175);
#471=VERTEX_POINT('',#1179);
#472=EDGE_CURVE('',#406,#407,#571,.T.);
#473=EDGE_CURVE('',#408,#406,#572,.T.);
#474=EDGE_CURVE('',#409,#408,#573,.T.);
#475=EDGE_CURVE('',#407,#409,#574,.T.);
#476=EDGE_CURVE('',#410,#411,#575,.T.);
#477=EDGE_CURVE('',#410,#412,#49,.T.);
#478=EDGE_CURVE('',#413,#412,#576,.T.);
#479=EDGE_CURVE('',#414,#413,#577,.T.);
#480=EDGE_CURVE('',#414,#415,#578,.T.);
#481=EDGE_CURVE('',#416,#415,#579,.T.);
#482=EDGE_CURVE('',#416,#417,#50,.T.);
#483=EDGE_CURVE('',#418,#417,#580,.T.);
#484=EDGE_CURVE('',#418,#419,#51,.T.);
#485=EDGE_CURVE('',#407,#419,#581,.T.);
#486=EDGE_CURVE('',#420,#409,#582,.T.);
#487=EDGE_CURVE('',#420,#411,#583,.T.);
#488=EDGE_CURVE('',#421,#422,#584,.T.);
#489=EDGE_CURVE('',#421,#423,#52,.T.);
#490=EDGE_CURVE('',#424,#423,#585,.T.);
#491=EDGE_CURVE('',#424,#425,#53,.T.);
#492=EDGE_CURVE('',#426,#425,#586,.T.);
#493=EDGE_CURVE('',#426,#427,#54,.T.);
#494=EDGE_CURVE('',#428,#427,#587,.T.);
#495=EDGE_CURVE('',#428,#422,#55,.T.);
#496=EDGE_CURVE('',#429,#430,#588,.T.);
#497=EDGE_CURVE('',#430,#420,#589,.T.);
#498=EDGE_CURVE('',#431,#408,#590,.T.);
#499=EDGE_CURVE('',#431,#429,#591,.T.);
#500=EDGE_CURVE('',#432,#406,#592,.T.);
#501=EDGE_CURVE('',#433,#432,#593,.T.);
#502=EDGE_CURVE('',#433,#434,#594,.T.);
#503=EDGE_CURVE('',#434,#435,#595,.T.);
#504=EDGE_CURVE('',#436,#435,#596,.T.);
#505=EDGE_CURVE('',#436,#431,#597,.T.);
#506=EDGE_CURVE('',#437,#413,#598,.T.);
#507=EDGE_CURVE('',#438,#437,#599,.T.);
#508=EDGE_CURVE('',#439,#438,#600,.T.);
#509=EDGE_CURVE('',#439,#436,#601,.T.);
#510=EDGE_CURVE('',#435,#414,#602,.T.);
#511=EDGE_CURVE('',#429,#439,#603,.T.);
#512=EDGE_CURVE('',#440,#441,#604,.T.);
#513=EDGE_CURVE('',#441,#430,#605,.T.);
#514=EDGE_CURVE('',#440,#438,#606,.T.);
#515=EDGE_CURVE('',#415,#434,#607,.T.);
#516=EDGE_CURVE('',#411,#441,#608,.T.);
#517=EDGE_CURVE('',#419,#442,#609,.T.);
#518=EDGE_CURVE('',#442,#432,#610,.T.);
#519=EDGE_CURVE('',#433,#443,#611,.T.);
#520=EDGE_CURVE('',#443,#416,#612,.T.);
#521=EDGE_CURVE('',#444,#445,#613,.T.);
#522=EDGE_CURVE('',#445,#446,#56,.T.);
#523=EDGE_CURVE('',#446,#447,#614,.T.);
#524=EDGE_CURVE('',#447,#448,#57,.T.);
#525=EDGE_CURVE('',#448,#449,#615,.T.);
#526=EDGE_CURVE('',#449,#450,#58,.T.);
#527=EDGE_CURVE('',#450,#451,#616,.T.);
#528=EDGE_CURVE('',#451,#444,#59,.T.);
#529=EDGE_CURVE('',#442,#452,#60,.T.);
#530=EDGE_CURVE('',#453,#452,#617,.T.);
#531=EDGE_CURVE('',#453,#443,#61,.T.);
#532=EDGE_CURVE('',#452,#418,#618,.T.);
#533=EDGE_CURVE('',#417,#453,#619,.T.);
#534=EDGE_CURVE('',#454,#455,#620,.T.);
#535=EDGE_CURVE('',#455,#421,#621,.T.);
#536=EDGE_CURVE('',#422,#454,#622,.T.);
#537=EDGE_CURVE('',#423,#456,#623,.T.);
#538=EDGE_CURVE('',#456,#457,#624,.T.);
#539=EDGE_CURVE('',#457,#424,#625,.T.);
#540=EDGE_CURVE('',#458,#459,#626,.T.);
#541=EDGE_CURVE('',#459,#426,#627,.T.);
#542=EDGE_CURVE('',#425,#458,#628,.T.);
#543=EDGE_CURVE('',#456,#455,#62,.T.);
#544=EDGE_CURVE('',#454,#460,#63,.T.);
#545=EDGE_CURVE('',#461,#460,#629,.T.);
#546=EDGE_CURVE('',#461,#459,#64,.T.);
#547=EDGE_CURVE('',#458,#457,#65,.T.);
#548=EDGE_CURVE('',#427,#461,#630,.T.);
#549=EDGE_CURVE('',#460,#428,#631,.T.);
#550=EDGE_CURVE('',#462,#463,#632,.T.);
#551=EDGE_CURVE('',#463,#449,#633,.T.);
#552=EDGE_CURVE('',#448,#462,#634,.T.);
#553=EDGE_CURVE('',#450,#464,#635,.T.);
#554=EDGE_CURVE('',#464,#465,#636,.T.);
#555=EDGE_CURVE('',#465,#451,#637,.T.);
#556=EDGE_CURVE('',#444,#466,#638,.T.);
#557=EDGE_CURVE('',#466,#467,#639,.T.);
#558=EDGE_CURVE('',#467,#445,#640,.T.);
#559=EDGE_CURVE('',#468,#469,#641,.T.);
#560=EDGE_CURVE('',#469,#447,#642,.T.);
#561=EDGE_CURVE('',#446,#468,#643,.T.);
#562=EDGE_CURVE('',#464,#463,#66,.T.);
#563=EDGE_CURVE('',#462,#469,#67,.T.);
#564=EDGE_CURVE('',#468,#467,#68,.T.);
#565=EDGE_CURVE('',#466,#465,#69,.T.);
#566=EDGE_CURVE('',#440,#470,#644,.T.);
#567=EDGE_CURVE('',#470,#410,#645,.T.);
#568=EDGE_CURVE('',#412,#471,#646,.T.);
#569=EDGE_CURVE('',#471,#437,#647,.T.);
#570=EDGE_CURVE('',#471,#470,#70,.T.);
#571=LINE('',#983,#648);
#572=LINE('',#986,#649);
#573=LINE('',#988,#650);
#574=LINE('',#990,#651);
#575=LINE('',#992,#652);
#576=LINE('',#997,#653);
#577=LINE('',#999,#654);
#578=LINE('',#1001,#655);
#579=LINE('',#1003,#656);
#580=LINE('',#1007,#657);
#581=LINE('',#1011,#658);
#582=LINE('',#1012,#659);
#583=LINE('',#1014,#660);
#584=LINE('',#1015,#661);
#585=LINE('',#1020,#662);
#586=LINE('',#1024,#663);
#587=LINE('',#1028,#664);
#588=LINE('',#1032,#665);
#589=LINE('',#1035,#666);
#590=LINE('',#1036,#667);
#591=LINE('',#1038,#668);
#592=LINE('',#1040,#669);
#593=LINE('',#1042,#670);
#594=LINE('',#1044,#671);
#595=LINE('',#1046,#672);
#596=LINE('',#1048,#673);
#597=LINE('',#1050,#674);
#598=LINE('',#1052,#675);
#599=LINE('',#1054,#676);
#600=LINE('',#1056,#677);
#601=LINE('',#1058,#678);
#602=LINE('',#1059,#679);
#603=LINE('',#1061,#680);
#604=LINE('',#1063,#681);
#605=LINE('',#1066,#682);
#606=LINE('',#1067,#683);
#607=LINE('',#1069,#684);
#608=LINE('',#1071,#685);
#609=LINE('',#1073,#686);
#610=LINE('',#1075,#687);
#611=LINE('',#1077,#688);
#612=LINE('',#1079,#689);
#613=LINE('',#1081,#690);
#614=LINE('',#1086,#691);
#615=LINE('',#1090,#692);
#616=LINE('',#1094,#693);
#617=LINE('',#1099,#694);
#618=LINE('',#1103,#695);
#619=LINE('',#1104,#696);
#620=LINE('',#1108,#697);
#621=LINE('',#1111,#698);
#622=LINE('',#1112,#699);
#623=LINE('',#1114,#700);
#624=LINE('',#1116,#701);
#625=LINE('',#1118,#702);
#626=LINE('',#1120,#703);
#627=LINE('',#1123,#704);
#628=LINE('',#1124,#705);
#629=LINE('',#1129,#706);
#630=LINE('',#1134,#707);
#631=LINE('',#1135,#708);
#632=LINE('',#1141,#709);
#633=LINE('',#1144,#710);
#634=LINE('',#1145,#711);
#635=LINE('',#1147,#712);
#636=LINE('',#1149,#713);
#637=LINE('',#1151,#714);
#638=LINE('',#1153,#715);
#639=LINE('',#1155,#716);
#640=LINE('',#1157,#717);
#641=LINE('',#1159,#718);
#642=LINE('',#1162,#719);
#643=LINE('',#1163,#720);
#644=LINE('',#1174,#721);
#645=LINE('',#1176,#722);
#646=LINE('',#1178,#723);
#647=LINE('',#1180,#724);
#648=VECTOR('',#787,1.);
#649=VECTOR('',#788,1.);
#650=VECTOR('',#789,1.);
#651=VECTOR('',#790,1.);
#652=VECTOR('',#793,1.);
#653=VECTOR('',#796,1.);
#654=VECTOR('',#797,1.);
#655=VECTOR('',#798,1.);
#656=VECTOR('',#799,1.);
#657=VECTOR('',#802,1.);
#658=VECTOR('',#805,1.);
#659=VECTOR('',#806,1.);
#660=VECTOR('',#807,1.);
#661=VECTOR('',#808,1.);
#662=VECTOR('',#811,1.);
#663=VECTOR('',#814,1.);
#664=VECTOR('',#817,1.);
#665=VECTOR('',#822,1.);
#666=VECTOR('',#823,1.);
#667=VECTOR('',#824,1.);
#668=VECTOR('',#825,1.);
#669=VECTOR('',#828,1.);
#670=VECTOR('',#829,1.);
#671=VECTOR('',#830,1.);
#672=VECTOR('',#831,1.);
#673=VECTOR('',#832,1.);
#674=VECTOR('',#833,1.);
#675=VECTOR('',#836,1.);
#676=VECTOR('',#837,1.);
#677=VECTOR('',#838,1.);
#678=VECTOR('',#839,1.);
#679=VECTOR('',#840,1.);
#680=VECTOR('',#843,1.);
#681=VECTOR('',#846,1.);
#682=VECTOR('',#847,1.);
#683=VECTOR('',#848,1.);
#684=VECTOR('',#851,1.);
#685=VECTOR('',#854,1.);
#686=VECTOR('',#857,1.);
#687=VECTOR('',#858,1.);
#688=VECTOR('',#861,1.);
#689=VECTOR('',#862,1.);
#690=VECTOR('',#865,1.);
#691=VECTOR('',#868,1.);
#692=VECTOR('',#871,1.);
#693=VECTOR('',#874,1.);
#694=VECTOR('',#879,1.);
#695=VECTOR('',#884,1.);
#696=VECTOR('',#885,1.);
#697=VECTOR('',#892,1.);
#698=VECTOR('',#893,1.);
#699=VECTOR('',#894,1.);
#700=VECTOR('',#897,1.);
#701=VECTOR('',#898,1.);
#702=VECTOR('',#899,1.);
#703=VECTOR('',#902,1.);
#704=VECTOR('',#903,1.);
#705=VECTOR('',#904,1.);
#706=VECTOR('',#911,1.);
#707=VECTOR('',#918,1.);
#708=VECTOR('',#919,1.);
#709=VECTOR('',#930,1.);
#710=VECTOR('',#931,1.);
#711=VECTOR('',#932,1.);
#712=VECTOR('',#935,1.);
#713=VECTOR('',#936,1.);
#714=VECTOR('',#937,1.);
#715=VECTOR('',#940,1.);
#716=VECTOR('',#941,1.);
#717=VECTOR('',#942,1.);
#718=VECTOR('',#945,1.);
#719=VECTOR('',#946,1.);
#720=VECTOR('',#947,1.);
#721=VECTOR('',#968,1.);
#722=VECTOR('',#969,1.);
#723=VECTOR('',#972,1.);
#724=VECTOR('',#973,1.);
#725=AXIS2_PLACEMENT_3D('',#982,#785,#786);
#726=AXIS2_PLACEMENT_3D('',#991,#791,#792);
#727=AXIS2_PLACEMENT_3D('',#995,#794,#795);
#728=AXIS2_PLACEMENT_3D('',#1005,#800,#801);
#729=AXIS2_PLACEMENT_3D('',#1009,#803,#804);
#730=AXIS2_PLACEMENT_3D('',#1018,#809,#810);
#731=AXIS2_PLACEMENT_3D('',#1022,#812,#813);
#732=AXIS2_PLACEMENT_3D('',#1026,#815,#816);
#733=AXIS2_PLACEMENT_3D('',#1030,#818,#819);
#734=AXIS2_PLACEMENT_3D('',#1031,#820,#821);
#735=AXIS2_PLACEMENT_3D('',#1039,#826,#827);
#736=AXIS2_PLACEMENT_3D('',#1051,#834,#835);
#737=AXIS2_PLACEMENT_3D('',#1060,#841,#842);
#738=AXIS2_PLACEMENT_3D('',#1062,#844,#845);
#739=AXIS2_PLACEMENT_3D('',#1068,#849,#850);
#740=AXIS2_PLACEMENT_3D('',#1070,#852,#853);
#741=AXIS2_PLACEMENT_3D('',#1072,#855,#856);
#742=AXIS2_PLACEMENT_3D('',#1076,#859,#860);
#743=AXIS2_PLACEMENT_3D('',#1080,#863,#864);
#744=AXIS2_PLACEMENT_3D('',#1084,#866,#867);
#745=AXIS2_PLACEMENT_3D('',#1088,#869,#870);
#746=AXIS2_PLACEMENT_3D('',#1092,#872,#873);
#747=AXIS2_PLACEMENT_3D('',#1096,#875,#876);
#748=AXIS2_PLACEMENT_3D('',#1097,#877,#878);
#749=AXIS2_PLACEMENT_3D('',#1101,#880,#881);
#750=AXIS2_PLACEMENT_3D('',#1102,#882,#883);
#751=AXIS2_PLACEMENT_3D('',#1105,#886,#887);
#752=AXIS2_PLACEMENT_3D('',#1106,#888,#889);
#753=AXIS2_PLACEMENT_3D('',#1107,#890,#891);
#754=AXIS2_PLACEMENT_3D('',#1113,#895,#896);
#755=AXIS2_PLACEMENT_3D('',#1119,#900,#901);
#756=AXIS2_PLACEMENT_3D('',#1125,#905,#906);
#757=AXIS2_PLACEMENT_3D('',#1126,#907,#908);
#758=AXIS2_PLACEMENT_3D('',#1127,#909,#910);
#759=AXIS2_PLACEMENT_3D('',#1131,#912,#913);
#760=AXIS2_PLACEMENT_3D('',#1132,#914,#915);
#761=AXIS2_PLACEMENT_3D('',#1133,#916,#917);
#762=AXIS2_PLACEMENT_3D('',#1136,#920,#921);
#763=AXIS2_PLACEMENT_3D('',#1137,#922,#923);
#764=AXIS2_PLACEMENT_3D('',#1138,#924,#925);
#765=AXIS2_PLACEMENT_3D('',#1139,#926,#927);
#766=AXIS2_PLACEMENT_3D('',#1140,#928,#929);
#767=AXIS2_PLACEMENT_3D('',#1146,#933,#934);
#768=AXIS2_PLACEMENT_3D('',#1152,#938,#939);
#769=AXIS2_PLACEMENT_3D('',#1158,#943,#944);
#770=AXIS2_PLACEMENT_3D('',#1164,#948,#949);
#771=AXIS2_PLACEMENT_3D('',#1165,#950,#951);
#772=AXIS2_PLACEMENT_3D('',#1166,#952,#953);
#773=AXIS2_PLACEMENT_3D('',#1167,#954,#955);
#774=AXIS2_PLACEMENT_3D('',#1168,#956,#957);
#775=AXIS2_PLACEMENT_3D('',#1169,#958,#959);
#776=AXIS2_PLACEMENT_3D('',#1170,#960,#961);
#777=AXIS2_PLACEMENT_3D('',#1171,#962,#963);
#778=AXIS2_PLACEMENT_3D('',#1172,#964,#965);
#779=AXIS2_PLACEMENT_3D('',#1173,#966,#967);
#780=AXIS2_PLACEMENT_3D('',#1177,#970,#971);
#781=AXIS2_PLACEMENT_3D('',#1181,#974,#975);
#782=AXIS2_PLACEMENT_3D('',#1182,#976,#977);
#783=AXIS2_PLACEMENT_3D('',#1183,#978,#979);
#784=AXIS2_PLACEMENT_3D('',#1184,#980,#981);
#785=DIRECTION('',(0.,0.,1.));
#786=DIRECTION('',(1.,0.,0.));
#787=DIRECTION('',(0.707106781186548,0.,0.707106781186548));
#788=DIRECTION('',(0.,1.,0.));
#789=DIRECTION('',(-0.707106781186548,0.,-0.707106781186548));
#790=DIRECTION('',(0.,-1.,0.));
#791=DIRECTION('',(0.707106781186548,0.,-0.707106781186548));
#792=DIRECTION('',(0.,1.,0.));
#793=DIRECTION('',(1.,0.,0.));
#794=DIRECTION('',(0.,0.,-1.));
#795=DIRECTION('',(1.,0.,0.));
#796=DIRECTION('',(0.,-1.,0.));
#797=DIRECTION('',(1.,0.,0.));
#798=DIRECTION('',(0.,-1.,0.));
#799=DIRECTION('',(-1.,0.,0.));
#800=DIRECTION('',(0.,0.,-1.));
#801=DIRECTION('',(0.999999999999998,0.,0.));
#802=DIRECTION('',(0.,1.,0.));
#803=DIRECTION('',(0.,0.,-1.));
#804=DIRECTION('',(0.999999999999998,0.,0.));
#805=DIRECTION('',(1.,0.,0.));
#806=DIRECTION('',(-1.,0.,0.));
#807=DIRECTION('',(0.,1.,0.));
#808=DIRECTION('',(1.,0.,0.));
#809=DIRECTION('',(0.,0.,-1.));
#810=DIRECTION('',(0.999999999999999,0.,0.));
#811=DIRECTION('',(0.,-1.,0.));
#812=DIRECTION('',(0.,0.,-1.));
#813=DIRECTION('',(0.999999999999999,0.,0.));
#814=DIRECTION('',(-1.,0.,0.));
#815=DIRECTION('',(0.,0.,-1.));
#816=DIRECTION('',(1.,0.,0.));
#817=DIRECTION('',(0.,1.,0.));
#818=DIRECTION('',(0.,0.,-1.));
#819=DIRECTION('',(1.,0.,0.));
#820=DIRECTION('',(0.,0.,1.));
#821=DIRECTION('',(1.,0.,0.));
#822=DIRECTION('',(0.,0.,1.));
#823=DIRECTION('',(-0.707106781186549,0.,0.707106781186546));
#824=DIRECTION('',(0.,0.,1.));
#825=DIRECTION('',(1.,0.,0.));
#826=DIRECTION('',(0.,-1.,0.));
#827=DIRECTION('',(0.,0.,-1.));
#828=DIRECTION('',(0.,0.,1.));
#829=DIRECTION('',(0.,-1.,0.));
#830=DIRECTION('',(0.,0.,1.));
#831=DIRECTION('',(0.,1.,0.));
#832=DIRECTION('',(0.,0.,1.));
#833=DIRECTION('',(0.,-1.,0.));
#834=DIRECTION('',(-1.,0.,0.));
#835=DIRECTION('',(0.,0.,1.));
#836=DIRECTION('',(0.,0.,1.));
#837=DIRECTION('',(-1.,0.,0.));
#838=DIRECTION('',(0.,0.,1.));
#839=DIRECTION('',(-1.,0.,0.));
#840=DIRECTION('',(0.707106781186548,0.,0.707106781186548));
#841=DIRECTION('',(0.,1.,0.));
#842=DIRECTION('',(0.,0.,1.));
#843=DIRECTION('',(0.,1.,0.));
#844=DIRECTION('',(0.,0.,-1.));
#845=DIRECTION('',(-1.,0.,0.));
#846=DIRECTION('',(0.,0.,1.));
#847=DIRECTION('',(0.,-1.,0.));
#848=DIRECTION('',(0.,1.,0.));
#849=DIRECTION('',(1.,0.,0.));
#850=DIRECTION('',(0.,0.,-1.));
#851=DIRECTION('',(-0.707106781186548,0.,-0.707106781186548));
#852=DIRECTION('',(0.707106781186548,0.,-0.707106781186548));
#853=DIRECTION('',(0.,1.,0.));
#854=DIRECTION('',(0.707106781186549,0.,-0.707106781186546));
#855=DIRECTION('',(-0.707106781186546,0.,-0.707106781186549));
#856=DIRECTION('',(0.,-1.,0.));
#857=DIRECTION('',(0.,0.,-1.));
#858=DIRECTION('',(-1.,0.,0.));
#859=DIRECTION('',(0.,-1.,0.));
#860=DIRECTION('',(0.,0.,-1.));
#861=DIRECTION('',(1.,0.,0.));
#862=DIRECTION('',(0.,0.,1.));
#863=DIRECTION('',(0.,1.,0.));
#864=DIRECTION('',(0.,0.,1.));
#865=DIRECTION('',(1.,0.,0.));
#866=DIRECTION('',(0.,0.,-1.));
#867=DIRECTION('',(-1.,0.,0.));
#868=DIRECTION('',(0.,-1.,0.));
#869=DIRECTION('',(0.,0.,-1.));
#870=DIRECTION('',(-1.,0.,0.));
#871=DIRECTION('',(-1.,0.,0.));
#872=DIRECTION('',(0.,0.,-1.));
#873=DIRECTION('',(-1.,0.,0.));
#874=DIRECTION('',(0.,1.,0.));
#875=DIRECTION('',(0.,0.,-1.));
#876=DIRECTION('',(-1.,0.,0.));
#877=DIRECTION('',(0.,0.,1.));
#878=DIRECTION('',(-1.,0.,0.));
#879=DIRECTION('',(0.,-1.,0.));
#880=DIRECTION('',(0.,0.,1.));
#881=DIRECTION('',(-1.,0.,0.));
#882=DIRECTION('',(0.,0.,-1.));
#883=DIRECTION('',(-1.,0.,0.));
#884=DIRECTION('',(0.,0.,1.));
#885=DIRECTION('',(0.,0.,-1.));
#886=DIRECTION('',(1.,0.,0.));
#887=DIRECTION('',(0.,0.,-1.));
#888=DIRECTION('',(0.,0.,1.));
#889=DIRECTION('',(0.999999999999998,0.,0.));
#890=DIRECTION('',(0.,0.,1.));
#891=DIRECTION('',(0.999999999999998,0.,0.));
#892=DIRECTION('',(-1.,0.,0.));
#893=DIRECTION('',(0.,0.,1.));
#894=DIRECTION('',(0.,0.,-1.));
#895=DIRECTION('',(0.,-1.,0.));
#896=DIRECTION('',(0.,0.,-1.));
#897=DIRECTION('',(0.,0.,-1.));
#898=DIRECTION('',(0.,1.,0.));
#899=DIRECTION('',(0.,0.,1.));
#900=DIRECTION('',(-1.,0.,0.));
#901=DIRECTION('',(0.,0.,1.));
#902=DIRECTION('',(1.,0.,0.));
#903=DIRECTION('',(0.,0.,1.));
#904=DIRECTION('',(0.,0.,-1.));
#905=DIRECTION('',(0.,1.,0.));
#906=DIRECTION('',(0.,0.,1.));
#907=DIRECTION('',(0.,0.,1.));
#908=DIRECTION('',(-0.999999999999999,0.,0.));
#909=DIRECTION('',(0.,0.,1.));
#910=DIRECTION('',(-1.,0.,0.));
#911=DIRECTION('',(0.,-1.,0.));
#912=DIRECTION('',(0.,0.,1.));
#913=DIRECTION('',(-1.,0.,0.));
#914=DIRECTION('',(0.,0.,1.));
#915=DIRECTION('',(-0.999999999999999,0.,0.));
#916=DIRECTION('',(0.,0.,-1.));
#917=DIRECTION('',(-1.,0.,0.));
#918=DIRECTION('',(0.,0.,-1.));
#919=DIRECTION('',(0.,0.,1.));
#920=DIRECTION('',(1.,0.,0.));
#921=DIRECTION('',(0.,0.,-1.));
#922=DIRECTION('',(0.,0.,1.));
#923=DIRECTION('',(0.999999999999999,0.,0.));
#924=DIRECTION('',(0.,0.,1.));
#925=DIRECTION('',(1.,0.,0.));
#926=DIRECTION('',(0.,0.,1.));
#927=DIRECTION('',(0.999999999999999,0.,0.));
#928=DIRECTION('',(0.,0.,1.));
#929=DIRECTION('',(1.,0.,0.));
#930=DIRECTION('',(-1.,0.,0.));
#931=DIRECTION('',(0.,0.,1.));
#932=DIRECTION('',(0.,0.,-1.));
#933=DIRECTION('',(0.,-1.,0.));
#934=DIRECTION('',(0.,0.,-1.));
#935=DIRECTION('',(0.,0.,-1.));
#936=DIRECTION('',(0.,1.,0.));
#937=DIRECTION('',(0.,0.,1.));
#938=DIRECTION('',(-1.,0.,0.));
#939=DIRECTION('',(0.,0.,1.));
#940=DIRECTION('',(0.,0.,-1.));
#941=DIRECTION('',(1.,0.,0.));
#942=DIRECTION('',(0.,0.,1.));
#943=DIRECTION('',(0.,1.,0.));
#944=DIRECTION('',(0.,0.,1.));
#945=DIRECTION('',(0.,-1.,0.));
#946=DIRECTION('',(0.,0.,1.));
#947=DIRECTION('',(0.,0.,-1.));
#948=DIRECTION('',(1.,0.,0.));
#949=DIRECTION('',(0.,0.,-1.));
#950=DIRECTION('',(0.,0.,1.));
#951=DIRECTION('',(-1.,0.,0.));
#952=DIRECTION('',(0.,0.,1.));
#953=DIRECTION('',(-1.,0.,0.));
#954=DIRECTION('',(0.,0.,1.));
#955=DIRECTION('',(-1.,0.,0.));
#956=DIRECTION('',(0.,0.,1.));
#957=DIRECTION('',(-1.,0.,0.));
#958=DIRECTION('',(0.,0.,-1.));
#959=DIRECTION('',(-1.,0.,0.));
#960=DIRECTION('',(0.,0.,1.));
#961=DIRECTION('',(1.,0.,0.));
#962=DIRECTION('',(0.,0.,1.));
#963=DIRECTION('',(1.,0.,0.));
#964=DIRECTION('',(0.,0.,1.));
#965=DIRECTION('',(1.,0.,0.));
#966=DIRECTION('',(0.,0.,1.));
#967=DIRECTION('',(1.,0.,0.));
#968=DIRECTION('',(-1.,0.,0.));
#969=DIRECTION('',(0.,0.,1.));
#970=DIRECTION('',(0.,-1.,0.));
#971=DIRECTION('',(0.,0.,-1.));
#972=DIRECTION('',(0.,0.,-1.));
#973=DIRECTION('',(0.,1.,0.));
#974=DIRECTION('',(-1.,0.,0.));
#975=DIRECTION('',(0.,0.,1.));
#976=DIRECTION('',(0.,0.,1.));
#977=DIRECTION('',(-1.,0.,0.));
#978=DIRECTION('',(0.,0.,-1.));
#979=DIRECTION('',(-1.,0.,0.));
#980=DIRECTION('',(0.,0.,1.));
#981=DIRECTION('',(1.,0.,0.));
#982=CARTESIAN_POINT('',(0.,0.,0.));
#983=CARTESIAN_POINT('',(0.,0.100000000000017,121.));
#984=CARTESIAN_POINT('',(0.,0.100000000000003,121.));
#985=CARTESIAN_POINT('',(23.2,0.100000000000017,144.2));
#986=CARTESIAN_POINT('',(0.,152.,121.));
#987=CARTESIAN_POINT('',(0.,0.,121.));
#988=CARTESIAN_POINT('',(26.625,0.,147.625));
#989=CARTESIAN_POINT('',(23.2,0.,144.2));
#990=CARTESIAN_POINT('',(23.2,152.,144.2));
#991=CARTESIAN_POINT('',(0.,152.,121.));
#992=CARTESIAN_POINT('',(174.25,222.2,144.2));
#993=CARTESIAN_POINT('',(249.4,222.2,144.2));
#994=CARTESIAN_POINT('',(340.6,222.2,144.2));
#995=CARTESIAN_POINT('',(249.4,228.9,144.2));
#996=CARTESIAN_POINT('',(242.7,228.9,144.2));
#997=CARTESIAN_POINT('',(242.7,152.,144.2));
#998=CARTESIAN_POINT('',(242.7,304.,144.2));
#999=CARTESIAN_POINT('',(174.25,304.,144.2));
#1000=CARTESIAN_POINT('',(23.2,304.,144.2));
#1001=CARTESIAN_POINT('',(23.2,152.,144.2));
#1002=CARTESIAN_POINT('',(23.2,150.9,144.2));
#1003=CARTESIAN_POINT('',(174.25,150.9,144.2));
#1004=CARTESIAN_POINT('',(65.6,150.9,144.2));
#1005=CARTESIAN_POINT('',(65.6,146.3,144.2));
#1006=CARTESIAN_POINT('',(70.2,146.3,144.2));
#1007=CARTESIAN_POINT('',(70.2,152.,144.2));
#1008=CARTESIAN_POINT('',(70.2,4.70000000000001,144.2));
#1009=CARTESIAN_POINT('',(65.6,4.7,144.2));
#1010=CARTESIAN_POINT('',(65.6,0.100000000000017,144.2));
#1011=CARTESIAN_POINT('',(174.25,0.100000000000017,144.2));
#1012=CARTESIAN_POINT('',(174.25,0.,144.2));
#1013=CARTESIAN_POINT('',(340.6,0.,144.2));
#1014=CARTESIAN_POINT('',(340.6,152.,144.2));
#1015=CARTESIAN_POINT('',(174.25,61.1,144.2));
#1016=CARTESIAN_POINT('',(84.,61.1,144.2));
#1017=CARTESIAN_POINT('',(205.9,61.1,144.2));
#1018=CARTESIAN_POINT('',(84.,65.8,144.2));
#1019=CARTESIAN_POINT('',(79.3,65.8,144.2));
#1020=CARTESIAN_POINT('',(79.3,152.,144.2));
#1021=CARTESIAN_POINT('',(79.3,144.3,144.2));
#1022=CARTESIAN_POINT('',(84.,144.3,144.2));
#1023=CARTESIAN_POINT('',(84.,149.,144.2));
#1024=CARTESIAN_POINT('',(174.25,149.,144.2));
#1025=CARTESIAN_POINT('',(205.9,149.,144.2));
#1026=CARTESIAN_POINT('',(205.9,144.3,144.2));
#1027=CARTESIAN_POINT('',(210.6,144.3,144.2));
#1028=CARTESIAN_POINT('',(210.6,152.,144.2));
#1029=CARTESIAN_POINT('',(210.6,65.8,144.2));
#1030=CARTESIAN_POINT('',(205.9,65.8,144.2));
#1031=CARTESIAN_POINT('',(174.25,152.,144.2));
#1032=CARTESIAN_POINT('',(348.5,0.,0.));
#1033=CARTESIAN_POINT('',(348.5,0.,0.));
#1034=CARTESIAN_POINT('',(348.5,0.,136.3));
#1035=CARTESIAN_POINT('',(329.525,0.,155.275));
#1036=CARTESIAN_POINT('',(0.,0.,0.));
#1037=CARTESIAN_POINT('',(0.,0.,0.));
#1038=CARTESIAN_POINT('',(174.25,0.,0.));
#1039=CARTESIAN_POINT('',(174.25,0.,0.));
#1040=CARTESIAN_POINT('',(0.,0.100000000000003,118.3));
#1041=CARTESIAN_POINT('',(0.,0.100000000000003,118.3));
#1042=CARTESIAN_POINT('',(0.,75.5,118.3));
#1043=CARTESIAN_POINT('',(0.,150.9,118.3));
#1044=CARTESIAN_POINT('',(0.,150.9,118.3));
#1045=CARTESIAN_POINT('',(0.,150.9,121.));
#1046=CARTESIAN_POINT('',(0.,152.,121.));
#1047=CARTESIAN_POINT('',(0.,304.,121.));
#1048=CARTESIAN_POINT('',(0.,304.,0.));
#1049=CARTESIAN_POINT('',(0.,304.,0.));
#1050=CARTESIAN_POINT('',(0.,152.,0.));
#1051=CARTESIAN_POINT('',(0.,152.,0.));
#1052=CARTESIAN_POINT('',(242.7,304.,106.3));
#1053=CARTESIAN_POINT('',(242.7,304.,106.3));
#1054=CARTESIAN_POINT('',(295.6,304.,106.3));
#1055=CARTESIAN_POINT('',(348.5,304.,106.3));
#1056=CARTESIAN_POINT('',(348.5,304.,0.));
#1057=CARTESIAN_POINT('',(348.5,304.,0.));
#1058=CARTESIAN_POINT('',(174.25,304.,0.));
#1059=CARTESIAN_POINT('',(26.625,304.,147.625));
#1060=CARTESIAN_POINT('',(174.25,304.,0.));
#1061=CARTESIAN_POINT('',(348.5,152.,0.));
#1062=CARTESIAN_POINT('',(174.25,152.,0.));
#1063=CARTESIAN_POINT('',(348.5,222.2,106.3));
#1064=CARTESIAN_POINT('',(348.5,222.2,106.3));
#1065=CARTESIAN_POINT('',(348.5,222.2,136.3));
#1066=CARTESIAN_POINT('',(348.5,152.,136.3));
#1067=CARTESIAN_POINT('',(348.5,263.1,106.3));
#1068=CARTESIAN_POINT('',(348.5,152.,0.));
#1069=CARTESIAN_POINT('',(0.,150.9,121.));
#1070=CARTESIAN_POINT('',(0.,152.,121.));
#1071=CARTESIAN_POINT('',(348.5,222.2,136.3));
#1072=CARTESIAN_POINT('',(348.5,152.,136.3));
#1073=CARTESIAN_POINT('',(65.6,0.100000000000003,118.3));
#1074=CARTESIAN_POINT('',(65.6,0.100000000000003,118.3));
#1075=CARTESIAN_POINT('',(35.1,0.100000000000003,118.3));
#1076=CARTESIAN_POINT('',(35.1,0.100000000000003,118.3));
#1077=CARTESIAN_POINT('',(35.1,150.9,118.3));
#1078=CARTESIAN_POINT('',(65.6,150.9,118.3));
#1079=CARTESIAN_POINT('',(65.6,150.9,144.2));
#1080=CARTESIAN_POINT('',(35.1,150.9,118.3));
#1081=CARTESIAN_POINT('',(35.1,112.3,118.3));
#1082=CARTESIAN_POINT('',(28.7,112.3,118.3));
#1083=CARTESIAN_POINT('',(34.7,112.3,118.3));
#1084=CARTESIAN_POINT('',(34.7,103.4,118.3));
#1085=CARTESIAN_POINT('',(43.6,103.4,118.3));
#1086=CARTESIAN_POINT('',(43.6,75.5,118.3));
#1087=CARTESIAN_POINT('',(43.6,41.1,118.3));
#1088=CARTESIAN_POINT('',(34.7,41.1,118.3));
#1089=CARTESIAN_POINT('',(34.7,32.2,118.3));
#1090=CARTESIAN_POINT('',(35.1,32.2,118.3));
#1091=CARTESIAN_POINT('',(28.7,32.2,118.3));
#1092=CARTESIAN_POINT('',(28.7,41.1,118.3));
#1093=CARTESIAN_POINT('',(19.8,41.1,118.3));
#1094=CARTESIAN_POINT('',(19.8,75.5,118.3));
#1095=CARTESIAN_POINT('',(19.8,103.4,118.3));
#1096=CARTESIAN_POINT('',(28.7,103.4,118.3));
#1097=CARTESIAN_POINT('',(65.6,4.7,118.3));
#1098=CARTESIAN_POINT('',(70.2,4.70000000000001,118.3));
#1099=CARTESIAN_POINT('',(70.2,75.5,118.3));
#1100=CARTESIAN_POINT('',(70.2,146.3,118.3));
#1101=CARTESIAN_POINT('',(65.6,146.3,118.3));
#1102=CARTESIAN_POINT('',(35.1,75.5,118.3));
#1103=CARTESIAN_POINT('',(70.2,4.7,144.2));
#1104=CARTESIAN_POINT('',(70.2,146.3,118.3));
#1105=CARTESIAN_POINT('',(70.2,75.5,118.3));
#1106=CARTESIAN_POINT('',(65.6,4.7,118.3));
#1107=CARTESIAN_POINT('',(65.6,146.3,118.3));
#1108=CARTESIAN_POINT('',(144.95,61.1,118.3));
#1109=CARTESIAN_POINT('',(205.9,61.1,118.3));
#1110=CARTESIAN_POINT('',(84.,61.1,118.3));
#1111=CARTESIAN_POINT('',(84.,61.1,144.2));
#1112=CARTESIAN_POINT('',(205.9,61.1,118.3));
#1113=CARTESIAN_POINT('',(144.95,61.1,118.3));
#1114=CARTESIAN_POINT('',(79.3,65.8,118.3));
#1115=CARTESIAN_POINT('',(79.3,65.8,118.3));
#1116=CARTESIAN_POINT('',(79.3,105.05,118.3));
#1117=CARTESIAN_POINT('',(79.3,144.3,118.3));
#1118=CARTESIAN_POINT('',(79.3,144.3,144.2));
#1119=CARTESIAN_POINT('',(79.3,105.05,118.3));
#1120=CARTESIAN_POINT('',(144.95,149.,118.3));
#1121=CARTESIAN_POINT('',(84.,149.,118.3));
#1122=CARTESIAN_POINT('',(205.9,149.,118.3));
#1123=CARTESIAN_POINT('',(205.9,149.,144.2));
#1124=CARTESIAN_POINT('',(84.,149.,118.3));
#1125=CARTESIAN_POINT('',(144.95,149.,118.3));
#1126=CARTESIAN_POINT('',(84.,65.8,118.3));
#1127=CARTESIAN_POINT('',(205.9,65.8,118.3));
#1128=CARTESIAN_POINT('',(210.6,65.8,118.3));
#1129=CARTESIAN_POINT('',(210.6,105.05,118.3));
#1130=CARTESIAN_POINT('',(210.6,144.3,118.3));
#1131=CARTESIAN_POINT('',(205.9,144.3,118.3));
#1132=CARTESIAN_POINT('',(84.,144.3,118.3));
#1133=CARTESIAN_POINT('',(144.95,105.05,118.3));
#1134=CARTESIAN_POINT('',(210.6,144.3,118.3));
#1135=CARTESIAN_POINT('',(210.6,65.8,144.2));
#1136=CARTESIAN_POINT('',(210.6,105.05,118.3));
#1137=CARTESIAN_POINT('',(84.,65.8,118.3));
#1138=CARTESIAN_POINT('',(205.9,144.3,118.3));
#1139=CARTESIAN_POINT('',(84.,144.3,118.3));
#1140=CARTESIAN_POINT('',(205.9,65.8,118.3));
#1141=CARTESIAN_POINT('',(31.7,32.2,106.3));
#1142=CARTESIAN_POINT('',(34.7,32.2,106.3));
#1143=CARTESIAN_POINT('',(28.7,32.2,106.3));
#1144=CARTESIAN_POINT('',(28.7,32.2,118.3));
#1145=CARTESIAN_POINT('',(34.7,32.2,106.3));
#1146=CARTESIAN_POINT('',(31.7,32.2,106.3));
#1147=CARTESIAN_POINT('',(19.8,41.1,106.3));
#1148=CARTESIAN_POINT('',(19.8,41.1,106.3));
#1149=CARTESIAN_POINT('',(19.8,72.25,106.3));
#1150=CARTESIAN_POINT('',(19.8,103.4,106.3));
#1151=CARTESIAN_POINT('',(19.8,103.4,118.3));
#1152=CARTESIAN_POINT('',(19.8,72.25,106.3));
#1153=CARTESIAN_POINT('',(28.7,112.3,106.3));
#1154=CARTESIAN_POINT('',(28.7,112.3,106.3));
#1155=CARTESIAN_POINT('',(31.7,112.3,106.3));
#1156=CARTESIAN_POINT('',(34.7,112.3,106.3));
#1157=CARTESIAN_POINT('',(34.7,112.3,118.3));
#1158=CARTESIAN_POINT('',(31.7,112.3,106.3));
#1159=CARTESIAN_POINT('',(43.6,72.25,106.3));
#1160=CARTESIAN_POINT('',(43.6,103.4,106.3));
#1161=CARTESIAN_POINT('',(43.6,41.1,106.3));
#1162=CARTESIAN_POINT('',(43.6,41.1,118.3));
#1163=CARTESIAN_POINT('',(43.6,103.4,106.3));
#1164=CARTESIAN_POINT('',(43.6,72.25,106.3));
#1165=CARTESIAN_POINT('',(28.7,41.1,106.3));
#1166=CARTESIAN_POINT('',(34.7,41.1,106.3));
#1167=CARTESIAN_POINT('',(34.7,103.4,106.3));
#1168=CARTESIAN_POINT('',(28.7,103.4,106.3));
#1169=CARTESIAN_POINT('',(31.7,72.25,106.3));
#1170=CARTESIAN_POINT('',(28.7,41.1,106.3));
#1171=CARTESIAN_POINT('',(34.7,41.1,106.3));
#1172=CARTESIAN_POINT('',(28.7,103.4,106.3));
#1173=CARTESIAN_POINT('',(34.7,103.4,106.3));
#1174=CARTESIAN_POINT('',(295.6,222.2,106.3));
#1175=CARTESIAN_POINT('',(249.4,222.2,106.3));
#1176=CARTESIAN_POINT('',(249.4,222.2,144.2));
#1177=CARTESIAN_POINT('',(295.6,222.2,106.3));
#1178=CARTESIAN_POINT('',(242.7,228.9,106.3));
#1179=CARTESIAN_POINT('',(242.7,228.9,106.3));
#1180=CARTESIAN_POINT('',(242.7,263.1,106.3));
#1181=CARTESIAN_POINT('',(242.7,263.1,106.3));
#1182=CARTESIAN_POINT('',(249.4,228.9,106.3));
#1183=CARTESIAN_POINT('',(295.6,263.1,106.3));
#1184=CARTESIAN_POINT('',(249.4,228.9,106.3));
#1185=MECHANICAL_DESIGN_GEOMETRIC_PRESENTATION_REPRESENTATION('',(#24),
#1186);
#1186=(
GEOMETRIC_REPRESENTATION_CONTEXT(3)
GLOBAL_UNCERTAINTY_ASSIGNED_CONTEXT((#1187))
GLOBAL_UNIT_ASSIGNED_CONTEXT((#1193,#1189,#1188))
REPRESENTATION_CONTEXT('featured_part_06647','TOP_LEVEL_ASSEMBLY_PART')
);
#1187=UNCERTAINTY_MEASURE_WITH_UNIT(LENGTH_MEASURE(2.E-5),#1193,
'DISTANCE_ACCURACY_VALUE','Maximum Tolerance applied to model');
#1188=(
NAMED_UNIT(*)
SI_UNIT($,.STERADIAN.)
SOLID_ANGLE_UNIT()
);
#1189=(
CONVERSION_BASED_UNIT('DEGREE',#1191)
NAMED_UNIT(#1190)
PLANE_ANGLE_UNIT()
);
#1190=DIMENSIONAL_EXPONENTS(0.,0.,0.,0.,0.,0.,0.);
#1191=PLANE_ANGLE_MEASURE_WITH_UNIT(PLANE_ANGLE_MEASURE(0.0174532925),#1192);
#1192=(
NAMED_UNIT(*)
PLANE_ANGLE_UNIT()
SI_UNIT($,.RADIAN.)
);
#1193=(
LENGTH_UNIT()
NAMED_UNIT(*)
SI_UNIT(.MILLI.,.METRE.)
);
ENDSEC;
END-ISO-10303-21;
