ISO-10303-21;
HEADER;
/* Generated by software containing ST-Developer
 * from STEP Tools, Inc. (www.steptools.com) 
 */
/* OPTION: using custom schema-name function */

FILE_DESCRIPTION(
/* description */ (''),
/* implementation_level */ '2;1');

FILE_NAME(
/* name */ 'featured_part_08983.stp',
/* time_stamp */ '2026-07-16T06:48:30-04:00',
/* author */ (''),
/* organization */ (''),
/* preprocessor_version */ 'ST-DEVELOPER v20.1',
/* originating_system */ 'SIEMENS PLM Software NX2512.6002',
/* authorisation */ '');

FILE_SCHEMA (('AUTOMOTIVE_DESIGN { 1 0 10303 214 3 1 1 1 }'));
ENDSEC;

DATA;
#10=SHAPE_REPRESENTATION_RELATIONSHIP('None',
'relationship between featured_part_08983-None and featured_part_08983
-None',#22,#11);
#11=ADVANCED_BREP_SHAPE_REPRESENTATION('featured_part_08983-None',(#32),
#670);
#12=SHAPE_DEFINITION_REPRESENTATION(#13,#22);
#13=PRODUCT_DEFINITION_SHAPE('','',#14);
#14=PRODUCT_DEFINITION(' ','',#16,#15);
#15=PRODUCT_DEFINITION_CONTEXT('part definition',#21,'design');
#16=PRODUCT_DEFINITION_FORMATION_WITH_SPECIFIED_SOURCE(' ',' ',#18,
 .NOT_KNOWN.);
#17=PRODUCT_RELATED_PRODUCT_CATEGORY('part','',(#18));
#18=PRODUCT('featured_part_08983','featured_part_08983',' ',(#19));
#19=PRODUCT_CONTEXT(' ',#21,'mechanical');
#20=APPLICATION_PROTOCOL_DEFINITION('international standard',
'automotive_design',2010,#21);
#21=APPLICATION_CONTEXT(
'core data for automotive mechanical design processes');
#22=SHAPE_REPRESENTATION('featured_part_08983-None',(#415),#670);
#23=PRESENTATION_LAYER_ASSIGNMENT('1','Layer 1',(#32));
#24=STYLED_ITEM('',(#25),#32);
#25=PRESENTATION_STYLE_ASSIGNMENT((#26));
#26=SURFACE_STYLE_USAGE(.BOTH.,#27);
#27=SURFACE_SIDE_STYLE('',(#28));
#28=SURFACE_STYLE_FILL_AREA(#29);
#29=FILL_AREA_STYLE('',(#30));
#30=FILL_AREA_STYLE_COLOUR('',#31);
#31=COLOUR_RGB('medium steel',0.611764705882353,0.658823529411765,0.670588235294118);
#32=MANIFOLD_SOLID_BREP('',#33);
#33=CLOSED_SHELL('',(#76,#77,#78,#79,#80,#81,#82,#83,#84,#85,#86,#87,#88,
#89,#90,#91,#92,#93,#94,#95,#96,#97));
#34=CYLINDRICAL_SURFACE('',#441,7.4);
#35=CYLINDRICAL_SURFACE('',#442,7.4);
#36=CYLINDRICAL_SURFACE('',#444,8.9);
#37=CYLINDRICAL_SURFACE('',#446,9.);
#38=CYLINDRICAL_SURFACE('',#447,16.25);
#39=CYLINDRICAL_SURFACE('',#450,8.85);
#40=CYLINDRICAL_SURFACE('',#451,8.35);
#41=FACE_BOUND('',#128,.T.);
#42=FACE_BOUND('',#129,.T.);
#43=FACE_BOUND('',#130,.T.);
#44=FACE_BOUND('',#131,.T.);
#45=FACE_BOUND('',#135,.T.);
#46=FACE_BOUND('',#136,.T.);
#47=FACE_BOUND('',#137,.T.);
#48=FACE_BOUND('',#138,.T.);
#49=FACE_BOUND('',#144,.T.);
#50=FACE_BOUND('',#145,.T.);
#51=FACE_BOUND('',#146,.T.);
#52=FACE_BOUND('',#150,.T.);
#53=FACE_BOUND('',#151,.T.);
#54=FACE_BOUND('',#153,.T.);
#55=FACE_BOUND('',#154,.T.);
#56=FACE_BOUND('',#155,.T.);
#57=FACE_BOUND('',#156,.T.);
#58=FACE_BOUND('',#158,.T.);
#59=FACE_BOUND('',#159,.T.);
#60=FACE_BOUND('',#160,.T.);
#61=FACE_BOUND('',#161,.T.);
#62=CIRCLE('',#417,8.35);
#63=CIRCLE('',#418,8.85);
#64=CIRCLE('',#419,9.);
#65=CIRCLE('',#420,7.4);
#66=CIRCLE('',#421,7.4);
#67=CIRCLE('',#426,8.35);
#68=CIRCLE('',#427,16.25);
#69=CIRCLE('',#428,9.);
#70=CIRCLE('',#435,16.25);
#71=CIRCLE('',#436,8.9);
#72=CIRCLE('',#437,7.4);
#73=CIRCLE('',#438,7.4);
#74=CIRCLE('',#443,8.9);
#75=CIRCLE('',#448,8.85);
#76=ADVANCED_FACE('',(#113),#98,.F.);
#77=ADVANCED_FACE('',(#41,#42,#43,#44),#99,.T.);
#78=ADVANCED_FACE('',(#114),#100,.T.);
#79=ADVANCED_FACE('',(#115),#101,.T.);
#80=ADVANCED_FACE('',(#116),#102,.T.);
#81=ADVANCED_FACE('',(#45,#46,#47,#48),#103,.T.);
#82=ADVANCED_FACE('',(#117),#104,.T.);
#83=ADVANCED_FACE('',(#118),#105,.F.);
#84=ADVANCED_FACE('',(#119),#106,.F.);
#85=ADVANCED_FACE('',(#120),#107,.F.);
#86=ADVANCED_FACE('',(#121),#108,.F.);
#87=ADVANCED_FACE('',(#49,#50,#51),#109,.F.);
#88=ADVANCED_FACE('',(#122),#110,.F.);
#89=ADVANCED_FACE('',(#123),#34,.F.);
#90=ADVANCED_FACE('',(#124),#35,.F.);
#91=ADVANCED_FACE('',(#52,#53),#36,.F.);
#92=ADVANCED_FACE('',(#125),#111,.F.);
#93=ADVANCED_FACE('',(#54,#55),#37,.F.);
#94=ADVANCED_FACE('',(#56,#57),#38,.F.);
#95=ADVANCED_FACE('',(#126),#112,.F.);
#96=ADVANCED_FACE('',(#58,#59),#39,.F.);
#97=ADVANCED_FACE('',(#60,#61),#40,.F.);
#98=PLANE('',#416);
#99=PLANE('',#422);
#100=PLANE('',#423);
#101=PLANE('',#424);
#102=PLANE('',#425);
#103=PLANE('',#429);
#104=PLANE('',#430);
#105=PLANE('',#431);
#106=PLANE('',#432);
#107=PLANE('',#433);
#108=PLANE('',#434);
#109=PLANE('',#439);
#110=PLANE('',#440);
#111=PLANE('',#445);
#112=PLANE('',#449);
#113=FACE_OUTER_BOUND('',#127,.T.);
#114=FACE_OUTER_BOUND('',#132,.T.);
#115=FACE_OUTER_BOUND('',#133,.T.);
#116=FACE_OUTER_BOUND('',#134,.T.);
#117=FACE_OUTER_BOUND('',#139,.T.);
#118=FACE_OUTER_BOUND('',#140,.T.);
#119=FACE_OUTER_BOUND('',#141,.T.);
#120=FACE_OUTER_BOUND('',#142,.T.);
#121=FACE_OUTER_BOUND('',#143,.T.);
#122=FACE_OUTER_BOUND('',#147,.T.);
#123=FACE_OUTER_BOUND('',#148,.T.);
#124=FACE_OUTER_BOUND('',#149,.T.);
#125=FACE_OUTER_BOUND('',#152,.T.);
#126=FACE_OUTER_BOUND('',#157,.T.);
#127=EDGE_LOOP('',(#162,#163,#164,#165));
#128=EDGE_LOOP('',(#166));
#129=EDGE_LOOP('',(#167));
#130=EDGE_LOOP('',(#168));
#131=EDGE_LOOP('',(#169,#170,#171,#172,#173,#174,#175,#176,#177,#178));
#132=EDGE_LOOP('',(#179,#180,#181,#182,#183));
#133=EDGE_LOOP('',(#184,#185,#186,#187,#188,#189,#190,#191,#192));
#134=EDGE_LOOP('',(#193,#194,#195,#196));
#135=EDGE_LOOP('',(#197));
#136=EDGE_LOOP('',(#198));
#137=EDGE_LOOP('',(#199));
#138=EDGE_LOOP('',(#200,#201,#202,#203));
#139=EDGE_LOOP('',(#204,#205,#206,#207,#208));
#140=EDGE_LOOP('',(#209,#210,#211,#212));
#141=EDGE_LOOP('',(#213,#214,#215,#216,#217));
#142=EDGE_LOOP('',(#218,#219,#220,#221,#222));
#143=EDGE_LOOP('',(#223,#224,#225,#226,#227));
#144=EDGE_LOOP('',(#228));
#145=EDGE_LOOP('',(#229));
#146=EDGE_LOOP('',(#230,#231,#232,#233,#234,#235));
#147=EDGE_LOOP('',(#236,#237,#238,#239));
#148=EDGE_LOOP('',(#240,#241,#242,#243));
#149=EDGE_LOOP('',(#244,#245,#246,#247));
#150=EDGE_LOOP('',(#248));
#151=EDGE_LOOP('',(#249));
#152=EDGE_LOOP('',(#250));
#153=EDGE_LOOP('',(#251));
#154=EDGE_LOOP('',(#252));
#155=EDGE_LOOP('',(#253));
#156=EDGE_LOOP('',(#254));
#157=EDGE_LOOP('',(#255));
#158=EDGE_LOOP('',(#256));
#159=EDGE_LOOP('',(#257));
#160=EDGE_LOOP('',(#258));
#161=EDGE_LOOP('',(#259));
#162=ORIENTED_EDGE('',*,*,#296,.F.);
#163=ORIENTED_EDGE('',*,*,#297,.F.);
#164=ORIENTED_EDGE('',*,*,#298,.F.);
#165=ORIENTED_EDGE('',*,*,#299,.F.);
#166=ORIENTED_EDGE('',*,*,#300,.F.);
#167=ORIENTED_EDGE('',*,*,#301,.F.);
#168=ORIENTED_EDGE('',*,*,#302,.F.);
#169=ORIENTED_EDGE('',*,*,#303,.F.);
#170=ORIENTED_EDGE('',*,*,#299,.T.);
#171=ORIENTED_EDGE('',*,*,#304,.F.);
#172=ORIENTED_EDGE('',*,*,#305,.F.);
#173=ORIENTED_EDGE('',*,*,#306,.T.);
#174=ORIENTED_EDGE('',*,*,#307,.T.);
#175=ORIENTED_EDGE('',*,*,#308,.F.);
#176=ORIENTED_EDGE('',*,*,#309,.T.);
#177=ORIENTED_EDGE('',*,*,#310,.F.);
#178=ORIENTED_EDGE('',*,*,#311,.T.);
#179=ORIENTED_EDGE('',*,*,#304,.T.);
#180=ORIENTED_EDGE('',*,*,#298,.T.);
#181=ORIENTED_EDGE('',*,*,#312,.F.);
#182=ORIENTED_EDGE('',*,*,#313,.T.);
#183=ORIENTED_EDGE('',*,*,#314,.T.);
#184=ORIENTED_EDGE('',*,*,#315,.F.);
#185=ORIENTED_EDGE('',*,*,#316,.F.);
#186=ORIENTED_EDGE('',*,*,#317,.T.);
#187=ORIENTED_EDGE('',*,*,#318,.T.);
#188=ORIENTED_EDGE('',*,*,#319,.T.);
#189=ORIENTED_EDGE('',*,*,#320,.F.);
#190=ORIENTED_EDGE('',*,*,#321,.T.);
#191=ORIENTED_EDGE('',*,*,#312,.T.);
#192=ORIENTED_EDGE('',*,*,#297,.T.);
#193=ORIENTED_EDGE('',*,*,#320,.T.);
#194=ORIENTED_EDGE('',*,*,#322,.T.);
#195=ORIENTED_EDGE('',*,*,#323,.F.);
#196=ORIENTED_EDGE('',*,*,#324,.T.);
#197=ORIENTED_EDGE('',*,*,#325,.F.);
#198=ORIENTED_EDGE('',*,*,#326,.F.);
#199=ORIENTED_EDGE('',*,*,#327,.F.);
#200=ORIENTED_EDGE('',*,*,#328,.F.);
#201=ORIENTED_EDGE('',*,*,#313,.F.);
#202=ORIENTED_EDGE('',*,*,#321,.F.);
#203=ORIENTED_EDGE('',*,*,#324,.F.);
#204=ORIENTED_EDGE('',*,*,#323,.T.);
#205=ORIENTED_EDGE('',*,*,#329,.T.);
#206=ORIENTED_EDGE('',*,*,#305,.T.);
#207=ORIENTED_EDGE('',*,*,#314,.F.);
#208=ORIENTED_EDGE('',*,*,#328,.T.);
#209=ORIENTED_EDGE('',*,*,#330,.F.);
#210=ORIENTED_EDGE('',*,*,#307,.F.);
#211=ORIENTED_EDGE('',*,*,#331,.T.);
#212=ORIENTED_EDGE('',*,*,#318,.F.);
#213=ORIENTED_EDGE('',*,*,#331,.F.);
#214=ORIENTED_EDGE('',*,*,#306,.F.);
#215=ORIENTED_EDGE('',*,*,#329,.F.);
#216=ORIENTED_EDGE('',*,*,#322,.F.);
#217=ORIENTED_EDGE('',*,*,#319,.F.);
#218=ORIENTED_EDGE('',*,*,#303,.T.);
#219=ORIENTED_EDGE('',*,*,#332,.T.);
#220=ORIENTED_EDGE('',*,*,#333,.T.);
#221=ORIENTED_EDGE('',*,*,#315,.T.);
#222=ORIENTED_EDGE('',*,*,#296,.T.);
#223=ORIENTED_EDGE('',*,*,#334,.T.);
#224=ORIENTED_EDGE('',*,*,#335,.T.);
#225=ORIENTED_EDGE('',*,*,#308,.T.);
#226=ORIENTED_EDGE('',*,*,#330,.T.);
#227=ORIENTED_EDGE('',*,*,#317,.F.);
#228=ORIENTED_EDGE('',*,*,#336,.T.);
#229=ORIENTED_EDGE('',*,*,#337,.T.);
#230=ORIENTED_EDGE('',*,*,#338,.F.);
#231=ORIENTED_EDGE('',*,*,#339,.T.);
#232=ORIENTED_EDGE('',*,*,#334,.F.);
#233=ORIENTED_EDGE('',*,*,#316,.T.);
#234=ORIENTED_EDGE('',*,*,#333,.F.);
#235=ORIENTED_EDGE('',*,*,#340,.T.);
#236=ORIENTED_EDGE('',*,*,#310,.T.);
#237=ORIENTED_EDGE('',*,*,#341,.T.);
#238=ORIENTED_EDGE('',*,*,#338,.T.);
#239=ORIENTED_EDGE('',*,*,#342,.T.);
#240=ORIENTED_EDGE('',*,*,#309,.F.);
#241=ORIENTED_EDGE('',*,*,#335,.F.);
#242=ORIENTED_EDGE('',*,*,#339,.F.);
#243=ORIENTED_EDGE('',*,*,#341,.F.);
#244=ORIENTED_EDGE('',*,*,#311,.F.);
#245=ORIENTED_EDGE('',*,*,#342,.F.);
#246=ORIENTED_EDGE('',*,*,#340,.F.);
#247=ORIENTED_EDGE('',*,*,#332,.F.);
#248=ORIENTED_EDGE('',*,*,#343,.T.);
#249=ORIENTED_EDGE('',*,*,#337,.F.);
#250=ORIENTED_EDGE('',*,*,#343,.F.);
#251=ORIENTED_EDGE('',*,*,#302,.T.);
#252=ORIENTED_EDGE('',*,*,#327,.T.);
#253=ORIENTED_EDGE('',*,*,#326,.T.);
#254=ORIENTED_EDGE('',*,*,#336,.F.);
#255=ORIENTED_EDGE('',*,*,#344,.F.);
#256=ORIENTED_EDGE('',*,*,#301,.T.);
#257=ORIENTED_EDGE('',*,*,#344,.T.);
#258=ORIENTED_EDGE('',*,*,#300,.T.);
#259=ORIENTED_EDGE('',*,*,#325,.T.);
#260=VERTEX_POINT('',#563);
#261=VERTEX_POINT('',#564);
#262=VERTEX_POINT('',#566);
#263=VERTEX_POINT('',#568);
#264=VERTEX_POINT('',#572);
#265=VERTEX_POINT('',#574);
#266=VERTEX_POINT('',#576);
#267=VERTEX_POINT('',#578);
#268=VERTEX_POINT('',#580);
#269=VERTEX_POINT('',#582);
#270=VERTEX_POINT('',#584);
#271=VERTEX_POINT('',#586);
#272=VERTEX_POINT('',#588);
#273=VERTEX_POINT('',#590);
#274=VERTEX_POINT('',#592);
#275=VERTEX_POINT('',#596);
#276=VERTEX_POINT('',#598);
#277=VERTEX_POINT('',#602);
#278=VERTEX_POINT('',#604);
#279=VERTEX_POINT('',#606);
#280=VERTEX_POINT('',#608);
#281=VERTEX_POINT('',#610);
#282=VERTEX_POINT('',#612);
#283=VERTEX_POINT('',#616);
#284=VERTEX_POINT('',#618);
#285=VERTEX_POINT('',#622);
#286=VERTEX_POINT('',#624);
#287=VERTEX_POINT('',#626);
#288=VERTEX_POINT('',#636);
#289=VERTEX_POINT('',#640);
#290=VERTEX_POINT('',#644);
#291=VERTEX_POINT('',#646);
#292=VERTEX_POINT('',#648);
#293=VERTEX_POINT('',#649);
#294=VERTEX_POINT('',#659);
#295=VERTEX_POINT('',#665);
#296=EDGE_CURVE('',#260,#261,#345,.T.);
#297=EDGE_CURVE('',#262,#260,#346,.T.);
#298=EDGE_CURVE('',#263,#262,#347,.T.);
#299=EDGE_CURVE('',#261,#263,#348,.T.);
#300=EDGE_CURVE('',#264,#264,#62,.T.);
#301=EDGE_CURVE('',#265,#265,#63,.T.);
#302=EDGE_CURVE('',#266,#266,#64,.T.);
#303=EDGE_CURVE('',#261,#267,#349,.T.);
#304=EDGE_CURVE('',#268,#263,#350,.T.);
#305=EDGE_CURVE('',#269,#268,#351,.T.);
#306=EDGE_CURVE('',#269,#270,#352,.T.);
#307=EDGE_CURVE('',#270,#271,#353,.T.);
#308=EDGE_CURVE('',#272,#271,#354,.T.);
#309=EDGE_CURVE('',#272,#273,#65,.T.);
#310=EDGE_CURVE('',#274,#273,#355,.T.);
#311=EDGE_CURVE('',#274,#267,#66,.T.);
#312=EDGE_CURVE('',#275,#262,#356,.T.);
#313=EDGE_CURVE('',#275,#276,#357,.T.);
#314=EDGE_CURVE('',#276,#268,#358,.T.);
#315=EDGE_CURVE('',#277,#260,#359,.T.);
#316=EDGE_CURVE('',#278,#277,#360,.T.);
#317=EDGE_CURVE('',#278,#279,#361,.T.);
#318=EDGE_CURVE('',#279,#280,#362,.T.);
#319=EDGE_CURVE('',#280,#281,#363,.T.);
#320=EDGE_CURVE('',#282,#281,#364,.T.);
#321=EDGE_CURVE('',#282,#275,#365,.T.);
#322=EDGE_CURVE('',#281,#283,#366,.T.);
#323=EDGE_CURVE('',#284,#283,#367,.T.);
#324=EDGE_CURVE('',#284,#282,#368,.T.);
#325=EDGE_CURVE('',#285,#285,#67,.T.);
#326=EDGE_CURVE('',#286,#286,#68,.T.);
#327=EDGE_CURVE('',#287,#287,#69,.T.);
#328=EDGE_CURVE('',#276,#284,#369,.T.);
#329=EDGE_CURVE('',#283,#269,#370,.T.);
#330=EDGE_CURVE('',#271,#279,#371,.T.);
#331=EDGE_CURVE('',#270,#280,#372,.T.);
#332=EDGE_CURVE('',#267,#288,#373,.T.);
#333=EDGE_CURVE('',#288,#277,#374,.T.);
#334=EDGE_CURVE('',#278,#289,#375,.T.);
#335=EDGE_CURVE('',#289,#272,#376,.T.);
#336=EDGE_CURVE('',#290,#290,#70,.T.);
#337=EDGE_CURVE('',#291,#291,#71,.T.);
#338=EDGE_CURVE('',#292,#293,#377,.T.);
#339=EDGE_CURVE('',#292,#289,#72,.T.);
#340=EDGE_CURVE('',#288,#293,#73,.T.);
#341=EDGE_CURVE('',#273,#292,#378,.T.);
#342=EDGE_CURVE('',#293,#274,#379,.T.);
#343=EDGE_CURVE('',#294,#294,#74,.T.);
#344=EDGE_CURVE('',#295,#295,#75,.T.);
#345=LINE('',#562,#380);
#346=LINE('',#565,#381);
#347=LINE('',#567,#382);
#348=LINE('',#569,#383);
#349=LINE('',#577,#384);
#350=LINE('',#579,#385);
#351=LINE('',#581,#386);
#352=LINE('',#583,#387);
#353=LINE('',#585,#388);
#354=LINE('',#587,#389);
#355=LINE('',#591,#390);
#356=LINE('',#595,#391);
#357=LINE('',#597,#392);
#358=LINE('',#599,#393);
#359=LINE('',#601,#394);
#360=LINE('',#603,#395);
#361=LINE('',#605,#396);
#362=LINE('',#607,#397);
#363=LINE('',#609,#398);
#364=LINE('',#611,#399);
#365=LINE('',#613,#400);
#366=LINE('',#615,#401);
#367=LINE('',#617,#402);
#368=LINE('',#619,#403);
#369=LINE('',#627,#404);
#370=LINE('',#629,#405);
#371=LINE('',#631,#406);
#372=LINE('',#632,#407);
#373=LINE('',#635,#408);
#374=LINE('',#637,#409);
#375=LINE('',#639,#410);
#376=LINE('',#641,#411);
#377=LINE('',#647,#412);
#378=LINE('',#653,#413);
#379=LINE('',#654,#414);
#380=VECTOR('',#454,1.);
#381=VECTOR('',#455,1.);
#382=VECTOR('',#456,1.);
#383=VECTOR('',#457,1.);
#384=VECTOR('',#466,1.);
#385=VECTOR('',#467,1.);
#386=VECTOR('',#468,1.);
#387=VECTOR('',#469,1.);
#388=VECTOR('',#470,1.);
#389=VECTOR('',#471,1.);
#390=VECTOR('',#474,1.);
#391=VECTOR('',#479,1.);
#392=VECTOR('',#480,1.);
#393=VECTOR('',#481,1.);
#394=VECTOR('',#484,1.);
#395=VECTOR('',#485,1.);
#396=VECTOR('',#486,1.);
#397=VECTOR('',#487,1.);
#398=VECTOR('',#488,1.);
#399=VECTOR('',#489,1.);
#400=VECTOR('',#490,1.);
#401=VECTOR('',#493,1.);
#402=VECTOR('',#494,1.);
#403=VECTOR('',#495,1.);
#404=VECTOR('',#504,1.);
#405=VECTOR('',#507,1.);
#406=VECTOR('',#510,1.);
#407=VECTOR('',#511,1.);
#408=VECTOR('',#516,1.);
#409=VECTOR('',#517,1.);
#410=VECTOR('',#520,1.);
#411=VECTOR('',#521,1.);
#412=VECTOR('',#528,1.);
#413=VECTOR('',#535,1.);
#414=VECTOR('',#536,1.);
#415=AXIS2_PLACEMENT_3D('',#561,#452,#453);
#416=AXIS2_PLACEMENT_3D('',#570,#458,#459);
#417=AXIS2_PLACEMENT_3D('',#571,#460,#461);
#418=AXIS2_PLACEMENT_3D('',#573,#462,#463);
#419=AXIS2_PLACEMENT_3D('',#575,#464,#465);
#420=AXIS2_PLACEMENT_3D('',#589,#472,#473);
#421=AXIS2_PLACEMENT_3D('',#593,#475,#476);
#422=AXIS2_PLACEMENT_3D('',#594,#477,#478);
#423=AXIS2_PLACEMENT_3D('',#600,#482,#483);
#424=AXIS2_PLACEMENT_3D('',#614,#491,#492);
#425=AXIS2_PLACEMENT_3D('',#620,#496,#497);
#426=AXIS2_PLACEMENT_3D('',#621,#498,#499);
#427=AXIS2_PLACEMENT_3D('',#623,#500,#501);
#428=AXIS2_PLACEMENT_3D('',#625,#502,#503);
#429=AXIS2_PLACEMENT_3D('',#628,#505,#506);
#430=AXIS2_PLACEMENT_3D('',#630,#508,#509);
#431=AXIS2_PLACEMENT_3D('',#633,#512,#513);
#432=AXIS2_PLACEMENT_3D('',#634,#514,#515);
#433=AXIS2_PLACEMENT_3D('',#638,#518,#519);
#434=AXIS2_PLACEMENT_3D('',#642,#522,#523);
#435=AXIS2_PLACEMENT_3D('',#643,#524,#525);
#436=AXIS2_PLACEMENT_3D('',#645,#526,#527);
#437=AXIS2_PLACEMENT_3D('',#650,#529,#530);
#438=AXIS2_PLACEMENT_3D('',#651,#531,#532);
#439=AXIS2_PLACEMENT_3D('',#652,#533,#534);
#440=AXIS2_PLACEMENT_3D('',#655,#537,#538);
#441=AXIS2_PLACEMENT_3D('',#656,#539,#540);
#442=AXIS2_PLACEMENT_3D('',#657,#541,#542);
#443=AXIS2_PLACEMENT_3D('',#658,#543,#544);
#444=AXIS2_PLACEMENT_3D('',#660,#545,#546);
#445=AXIS2_PLACEMENT_3D('',#661,#547,#548);
#446=AXIS2_PLACEMENT_3D('',#662,#549,#550);
#447=AXIS2_PLACEMENT_3D('',#663,#551,#552);
#448=AXIS2_PLACEMENT_3D('',#664,#553,#554);
#449=AXIS2_PLACEMENT_3D('',#666,#555,#556);
#450=AXIS2_PLACEMENT_3D('',#667,#557,#558);
#451=AXIS2_PLACEMENT_3D('',#668,#559,#560);
#452=DIRECTION('',(0.,0.,1.));
#453=DIRECTION('',(1.,0.,0.));
#454=DIRECTION('',(0.707106781186549,0.,0.707106781186546));
#455=DIRECTION('',(0.,1.,0.));
#456=DIRECTION('',(-0.707106781186549,0.,-0.707106781186546));
#457=DIRECTION('',(0.,-1.,0.));
#458=DIRECTION('',(0.707106781186546,0.,-0.707106781186549));
#459=DIRECTION('',(0.,1.,0.));
#460=DIRECTION('',(0.,0.,1.));
#461=DIRECTION('',(1.,0.,0.));
#462=DIRECTION('',(0.,0.,1.));
#463=DIRECTION('',(1.,0.,0.));
#464=DIRECTION('',(0.,0.,1.));
#465=DIRECTION('',(0.999999999999999,0.,0.));
#466=DIRECTION('',(1.,0.,0.));
#467=DIRECTION('',(-1.,0.,0.));
#468=DIRECTION('',(0.,-1.,0.));
#469=DIRECTION('',(-1.,0.,0.));
#470=DIRECTION('',(0.,-1.,0.));
#471=DIRECTION('',(-1.,0.,0.));
#472=DIRECTION('',(0.,0.,-1.));
#473=DIRECTION('',(1.,0.,0.));
#474=DIRECTION('',(0.,1.,0.));
#475=DIRECTION('',(0.,0.,-1.));
#476=DIRECTION('',(1.,0.,0.));
#477=DIRECTION('',(0.,0.,1.));
#478=DIRECTION('',(1.,0.,0.));
#479=DIRECTION('',(0.,0.,1.));
#480=DIRECTION('',(1.,0.,0.));
#481=DIRECTION('',(0.,0.,1.));
#482=DIRECTION('',(0.,-1.,0.));
#483=DIRECTION('',(0.,0.,-1.));
#484=DIRECTION('',(0.,0.,1.));
#485=DIRECTION('',(0.,-1.,0.));
#486=DIRECTION('',(0.,0.,1.));
#487=DIRECTION('',(0.,1.,0.));
#488=DIRECTION('',(0.,0.707106781186548,-0.707106781186547));
#489=DIRECTION('',(0.,0.,1.));
#490=DIRECTION('',(0.,-1.,0.));
#491=DIRECTION('',(-1.,0.,0.));
#492=DIRECTION('',(0.,0.,1.));
#493=DIRECTION('',(1.,0.,0.));
#494=DIRECTION('',(0.,0.,1.));
#495=DIRECTION('',(-1.,0.,0.));
#496=DIRECTION('',(0.,1.,0.));
#497=DIRECTION('',(0.,0.,1.));
#498=DIRECTION('',(0.,0.,-1.));
#499=DIRECTION('',(-1.,0.,0.));
#500=DIRECTION('',(0.,0.,-1.));
#501=DIRECTION('',(-1.,0.,0.));
#502=DIRECTION('',(0.,0.,-1.));
#503=DIRECTION('',(-0.999999999999999,0.,0.));
#504=DIRECTION('',(0.,1.,0.));
#505=DIRECTION('',(0.,0.,-1.));
#506=DIRECTION('',(-1.,0.,0.));
#507=DIRECTION('',(0.,-0.707106781186548,0.707106781186547));
#508=DIRECTION('',(1.,0.,0.));
#509=DIRECTION('',(0.,0.,-1.));
#510=DIRECTION('',(-0.707106781186549,0.,-0.707106781186546));
#511=DIRECTION('',(-0.577350269189627,0.577350269189625,-0.577350269189625));
#512=DIRECTION('',(0.707106781186546,0.,-0.707106781186549));
#513=DIRECTION('',(0.,1.,0.));
#514=DIRECTION('',(0.,-0.707106781186547,-0.707106781186548));
#515=DIRECTION('',(1.,0.,0.));
#516=DIRECTION('',(0.,0.,-1.));
#517=DIRECTION('',(-1.,0.,0.));
#518=DIRECTION('',(0.,-1.,0.));
#519=DIRECTION('',(0.,0.,-1.));
#520=DIRECTION('',(1.,0.,0.));
#521=DIRECTION('',(0.,0.,1.));
#522=DIRECTION('',(0.,1.,0.));
#523=DIRECTION('',(0.,0.,1.));
#524=DIRECTION('',(0.,0.,-1.));
#525=DIRECTION('',(-1.,0.,0.));
#526=DIRECTION('',(0.,0.,-1.));
#527=DIRECTION('',(-1.,0.,0.));
#528=DIRECTION('',(0.,-1.,0.));
#529=DIRECTION('',(0.,0.,1.));
#530=DIRECTION('',(-1.,0.,0.));
#531=DIRECTION('',(0.,0.,1.));
#532=DIRECTION('',(-1.,0.,0.));
#533=DIRECTION('',(0.,0.,-1.));
#534=DIRECTION('',(-1.,0.,0.));
#535=DIRECTION('',(0.,0.,-1.));
#536=DIRECTION('',(0.,0.,1.));
#537=DIRECTION('',(1.,0.,0.));
#538=DIRECTION('',(0.,0.,-1.));
#539=DIRECTION('',(0.,0.,1.));
#540=DIRECTION('',(1.,0.,0.));
#541=DIRECTION('',(0.,0.,1.));
#542=DIRECTION('',(1.,0.,0.));
#543=DIRECTION('',(0.,0.,-1.));
#544=DIRECTION('',(1.,0.,0.));
#545=DIRECTION('',(0.,0.,-1.));
#546=DIRECTION('',(1.,0.,0.));
#547=DIRECTION('',(0.,0.,-1.));
#548=DIRECTION('',(-1.,0.,0.));
#549=DIRECTION('',(0.,0.,-1.));
#550=DIRECTION('',(0.999999999999999,0.,0.));
#551=DIRECTION('',(0.,0.,-1.));
#552=DIRECTION('',(1.,0.,0.));
#553=DIRECTION('',(0.,0.,-1.));
#554=DIRECTION('',(1.,0.,0.));
#555=DIRECTION('',(0.,0.,-1.));
#556=DIRECTION('',(-1.,0.,0.));
#557=DIRECTION('',(0.,0.,-1.));
#558=DIRECTION('',(1.,0.,0.));
#559=DIRECTION('',(0.,0.,-1.));
#560=DIRECTION('',(1.,0.,0.));
#561=CARTESIAN_POINT('',(0.,0.,0.));
#562=CARTESIAN_POINT('',(0.,152.2,98.8));
#563=CARTESIAN_POINT('',(0.,152.2,98.8));
#564=CARTESIAN_POINT('',(4.20000000000001,152.2,103.));
#565=CARTESIAN_POINT('',(0.,142.25,98.8));
#566=CARTESIAN_POINT('',(0.,0.,98.8));
#567=CARTESIAN_POINT('',(36.8000000000003,0.,135.6));
#568=CARTESIAN_POINT('',(4.20000000000001,0.,103.));
#569=CARTESIAN_POINT('',(4.20000000000001,142.25,103.));
#570=CARTESIAN_POINT('',(0.,142.25,98.8));
#571=CARTESIAN_POINT('',(124.4,63.1,103.));
#572=CARTESIAN_POINT('',(132.75,63.1,103.));
#573=CARTESIAN_POINT('',(117.,213.3,103.));
#574=CARTESIAN_POINT('',(125.85,213.3,103.));
#575=CARTESIAN_POINT('',(120.6,171.8,103.));
#576=CARTESIAN_POINT('',(129.6,171.8,103.));
#577=CARTESIAN_POINT('',(172.4,152.2,103.));
#578=CARTESIAN_POINT('',(92.6,152.2,103.));
#579=CARTESIAN_POINT('',(172.4,0.,103.));
#580=CARTESIAN_POINT('',(344.8,0.,103.));
#581=CARTESIAN_POINT('',(344.8,142.25,103.));
#582=CARTESIAN_POINT('',(344.8,266.,103.));
#583=CARTESIAN_POINT('',(172.4,266.,103.));
#584=CARTESIAN_POINT('',(4.20000000000001,266.,103.));
#585=CARTESIAN_POINT('',(4.20000000000001,142.25,103.));
#586=CARTESIAN_POINT('',(4.20000000000001,258.9,103.));
#587=CARTESIAN_POINT('',(172.4,258.9,103.));
#588=CARTESIAN_POINT('',(92.6,258.9,103.));
#589=CARTESIAN_POINT('',(92.6,251.5,103.));
#590=CARTESIAN_POINT('',(100.,251.5,103.));
#591=CARTESIAN_POINT('',(100.,142.25,103.));
#592=CARTESIAN_POINT('',(100.,159.6,103.));
#593=CARTESIAN_POINT('',(92.6,159.6,103.));
#594=CARTESIAN_POINT('',(172.4,142.25,103.));
#595=CARTESIAN_POINT('',(0.,0.,0.));
#596=CARTESIAN_POINT('',(0.,0.,0.));
#597=CARTESIAN_POINT('',(172.4,0.,0.));
#598=CARTESIAN_POINT('',(344.8,0.,0.));
#599=CARTESIAN_POINT('',(344.8,0.,0.));
#600=CARTESIAN_POINT('',(172.4,0.,0.));
#601=CARTESIAN_POINT('',(0.,152.2,65.1));
#602=CARTESIAN_POINT('',(0.,152.2,65.1));
#603=CARTESIAN_POINT('',(0.,205.55,65.1));
#604=CARTESIAN_POINT('',(0.,258.9,65.1));
#605=CARTESIAN_POINT('',(0.,258.9,65.1));
#606=CARTESIAN_POINT('',(0.,258.9,98.8));
#607=CARTESIAN_POINT('',(0.,142.25,98.8));
#608=CARTESIAN_POINT('',(0.,270.2,98.8));
#609=CARTESIAN_POINT('',(0.,255.625,113.375));
#610=CARTESIAN_POINT('',(0.,284.5,84.5));
#611=CARTESIAN_POINT('',(0.,284.5,0.));
#612=CARTESIAN_POINT('',(0.,284.5,0.));
#613=CARTESIAN_POINT('',(0.,142.25,0.));
#614=CARTESIAN_POINT('',(0.,142.25,0.));
#615=CARTESIAN_POINT('',(172.4,284.5,84.5));
#616=CARTESIAN_POINT('',(344.8,284.5,84.5));
#617=CARTESIAN_POINT('',(344.8,284.5,0.));
#618=CARTESIAN_POINT('',(344.8,284.5,0.));
#619=CARTESIAN_POINT('',(172.4,284.5,0.));
#620=CARTESIAN_POINT('',(172.4,284.5,0.));
#621=CARTESIAN_POINT('',(124.4,63.1,0.));
#622=CARTESIAN_POINT('',(116.05,63.1,0.));
#623=CARTESIAN_POINT('',(44.1,224.4,0.));
#624=CARTESIAN_POINT('',(27.85,224.4,0.));
#625=CARTESIAN_POINT('',(120.6,171.8,0.));
#626=CARTESIAN_POINT('',(111.6,171.8,0.));
#627=CARTESIAN_POINT('',(344.8,142.25,0.));
#628=CARTESIAN_POINT('',(172.4,142.25,0.));
#629=CARTESIAN_POINT('',(344.8,255.625,113.375));
#630=CARTESIAN_POINT('',(344.8,142.25,0.));
#631=CARTESIAN_POINT('',(0.,258.9,98.8));
#632=CARTESIAN_POINT('',(42.65,227.55,141.45));
#633=CARTESIAN_POINT('',(0.,142.25,98.8));
#634=CARTESIAN_POINT('',(172.4,284.5,84.5));
#635=CARTESIAN_POINT('',(92.6,152.2,65.1));
#636=CARTESIAN_POINT('',(92.6,152.2,65.1));
#637=CARTESIAN_POINT('',(50.,152.2,65.1));
#638=CARTESIAN_POINT('',(50.,152.2,65.1));
#639=CARTESIAN_POINT('',(50.,258.9,65.1));
#640=CARTESIAN_POINT('',(92.6,258.9,65.1));
#641=CARTESIAN_POINT('',(92.6,258.9,103.));
#642=CARTESIAN_POINT('',(50.,258.9,65.1));
#643=CARTESIAN_POINT('',(44.1,224.4,65.1));
#644=CARTESIAN_POINT('',(27.85,224.4,65.1));
#645=CARTESIAN_POINT('',(69.1,219.6,65.1));
#646=CARTESIAN_POINT('',(60.2,219.6,65.1));
#647=CARTESIAN_POINT('',(100.,205.55,65.1));
#648=CARTESIAN_POINT('',(100.,251.5,65.1));
#649=CARTESIAN_POINT('',(100.,159.6,65.1));
#650=CARTESIAN_POINT('',(92.6,251.5,65.1));
#651=CARTESIAN_POINT('',(92.6,159.6,65.1));
#652=CARTESIAN_POINT('',(50.,205.55,65.1));
#653=CARTESIAN_POINT('',(100.,251.5,65.1));
#654=CARTESIAN_POINT('',(100.,159.6,103.));
#655=CARTESIAN_POINT('',(100.,205.55,65.1));
#656=CARTESIAN_POINT('',(92.6,251.5,65.1));
#657=CARTESIAN_POINT('',(92.6,159.6,65.1));
#658=CARTESIAN_POINT('',(69.1,219.6,52.3));
#659=CARTESIAN_POINT('',(78.,219.6,52.3));
#660=CARTESIAN_POINT('',(69.1,219.6,103.05));
#661=CARTESIAN_POINT('',(69.1,219.6,52.3));
#662=CARTESIAN_POINT('',(120.6,171.8,103.05));
#663=CARTESIAN_POINT('',(44.1,224.4,103.05));
#664=CARTESIAN_POINT('',(117.,213.3,34.5));
#665=CARTESIAN_POINT('',(125.85,213.3,34.5));
#666=CARTESIAN_POINT('',(117.,213.3,34.5));
#667=CARTESIAN_POINT('',(117.,213.3,103.05));
#668=CARTESIAN_POINT('',(124.4,63.1,103.05));
#669=MECHANICAL_DESIGN_GEOMETRIC_PRESENTATION_REPRESENTATION('',(#24),#670);
#670=(
GEOMETRIC_REPRESENTATION_CONTEXT(3)
GLOBAL_UNCERTAINTY_ASSIGNED_CONTEXT((#671))
GLOBAL_UNIT_ASSIGNED_CONTEXT((#677,#673,#672))
REPRESENTATION_CONTEXT('featured_part_08983','TOP_LEVEL_ASSEMBLY_PART')
);
#671=UNCERTAINTY_MEASURE_WITH_UNIT(LENGTH_MEASURE(2.E-5),#677,
'DISTANCE_ACCURACY_VALUE','Maximum Tolerance applied to model');
#672=(
NAMED_UNIT(*)
SI_UNIT($,.STERADIAN.)
SOLID_ANGLE_UNIT()
);
#673=(
CONVERSION_BASED_UNIT('DEGREE',#675)
NAMED_UNIT(#674)
PLANE_ANGLE_UNIT()
);
#674=DIMENSIONAL_EXPONENTS(0.,0.,0.,0.,0.,0.,0.);
#675=PLANE_ANGLE_MEASURE_WITH_UNIT(PLANE_ANGLE_MEASURE(0.0174532925),#676);
#676=(
NAMED_UNIT(*)
PLANE_ANGLE_UNIT()
SI_UNIT($,.RADIAN.)
);
#677=(
LENGTH_UNIT()
NAMED_UNIT(*)
SI_UNIT(.MILLI.,.METRE.)
);
ENDSEC;
END-ISO-10303-21;
