ISO-10303-21;
HEADER;
/* Generated by software containing ST-Developer
 * from STEP Tools, Inc. (www.steptools.com) 
 */
/* OPTION: using custom schema-name function */

FILE_DESCRIPTION(
/* description */ (''),
/* implementation_level */ '2;1');

FILE_NAME(
/* name */ 'featured_part_00196.stp',
/* time_stamp */ '2026-06-30T20:38:36-04:00',
/* author */ (''),
/* organization */ (''),
/* preprocessor_version */ 'ST-DEVELOPER v20.1',
/* originating_system */ 'SIEMENS PLM Software NX2512.6002',
/* authorisation */ '');

FILE_SCHEMA (('AUTOMOTIVE_DESIGN { 1 0 10303 214 3 1 1 1 }'));
ENDSEC;

DATA;
#10=SHAPE_REPRESENTATION_RELATIONSHIP('None',
'relationship between featured_part_00196-None and featured_part_00196
-None',#22,#11);
#11=ADVANCED_BREP_SHAPE_REPRESENTATION('featured_part_00196-None',(#32),
#963);
#12=SHAPE_DEFINITION_REPRESENTATION(#13,#22);
#13=PRODUCT_DEFINITION_SHAPE('','',#14);
#14=PRODUCT_DEFINITION(' ','',#16,#15);
#15=PRODUCT_DEFINITION_CONTEXT('part definition',#21,'design');
#16=PRODUCT_DEFINITION_FORMATION_WITH_SPECIFIED_SOURCE(' ',' ',#18,
 .NOT_KNOWN.);
#17=PRODUCT_RELATED_PRODUCT_CATEGORY('part','',(#18));
#18=PRODUCT('featured_part_00196','featured_part_00196',' ',(#19));
#19=PRODUCT_CONTEXT(' ',#21,'mechanical');
#20=APPLICATION_PROTOCOL_DEFINITION('international standard',
'automotive_design',2010,#21);
#21=APPLICATION_CONTEXT(
'core data for automotive mechanical design processes');
#22=SHAPE_REPRESENTATION('featured_part_00196-None',(#600),#963);
#23=PRESENTATION_LAYER_ASSIGNMENT('1','Layer 1',(#32));
#24=STYLED_ITEM('',(#25),#32);
#25=PRESENTATION_STYLE_ASSIGNMENT((#26));
#26=SURFACE_STYLE_USAGE(.BOTH.,#27);
#27=SURFACE_SIDE_STYLE('',(#28));
#28=SURFACE_STYLE_FILL_AREA(#29);
#29=FILL_AREA_STYLE('',(#30));
#30=FILL_AREA_STYLE_COLOUR('',#31);
#31=COLOUR_RGB('medium steel',0.611764705882353,0.658823529411765,0.670588235294118);
#32=MANIFOLD_SOLID_BREP('',#33);
#33=CLOSED_SHELL('',(#56,#57,#58,#59,#60,#61,#62,#63,#64,#65,#66,#67,#68,
#69,#70,#71,#72,#73,#74,#75,#76,#77,#78,#79,#80,#81,#82,#83,#84,#85));
#34=CYLINDRICAL_SURFACE('',#628,9.8);
#35=CYLINDRICAL_SURFACE('',#629,9.8);
#36=CYLINDRICAL_SURFACE('',#630,9.8);
#37=CYLINDRICAL_SURFACE('',#631,9.8);
#38=CYLINDRICAL_SURFACE('',#639,4.3);
#39=CYLINDRICAL_SURFACE('',#642,7.5);
#40=FACE_BOUND('',#141,.T.);
#41=FACE_BOUND('',#142,.T.);
#42=FACE_BOUND('',#168,.T.);
#43=FACE_BOUND('',#169,.T.);
#44=CIRCLE('',#604,7.5);
#45=CIRCLE('',#605,4.3);
#46=CIRCLE('',#606,9.8);
#47=CIRCLE('',#607,9.8);
#48=CIRCLE('',#608,9.8);
#49=CIRCLE('',#609,9.8);
#50=CIRCLE('',#619,9.8);
#51=CIRCLE('',#620,9.8);
#52=CIRCLE('',#621,9.8);
#53=CIRCLE('',#622,9.8);
#54=CIRCLE('',#637,4.3);
#55=CIRCLE('',#640,7.5);
#56=ADVANCED_FACE('',(#110),#86,.F.);
#57=ADVANCED_FACE('',(#111),#87,.T.);
#58=ADVANCED_FACE('',(#112),#88,.F.);
#59=ADVANCED_FACE('',(#40,#41),#89,.T.);
#60=ADVANCED_FACE('',(#113),#90,.T.);
#61=ADVANCED_FACE('',(#114),#91,.T.);
#62=ADVANCED_FACE('',(#115),#92,.T.);
#63=ADVANCED_FACE('',(#116),#93,.T.);
#64=ADVANCED_FACE('',(#117),#94,.T.);
#65=ADVANCED_FACE('',(#118),#95,.F.);
#66=ADVANCED_FACE('',(#119),#96,.F.);
#67=ADVANCED_FACE('',(#120),#97,.F.);
#68=ADVANCED_FACE('',(#121),#98,.F.);
#69=ADVANCED_FACE('',(#122),#99,.F.);
#70=ADVANCED_FACE('',(#123),#100,.F.);
#71=ADVANCED_FACE('',(#124),#101,.F.);
#72=ADVANCED_FACE('',(#125),#102,.F.);
#73=ADVANCED_FACE('',(#126),#34,.F.);
#74=ADVANCED_FACE('',(#127),#35,.T.);
#75=ADVANCED_FACE('',(#128),#36,.F.);
#76=ADVANCED_FACE('',(#129),#37,.T.);
#77=ADVANCED_FACE('',(#130),#103,.F.);
#78=ADVANCED_FACE('',(#131),#104,.F.);
#79=ADVANCED_FACE('',(#132),#105,.F.);
#80=ADVANCED_FACE('',(#133),#106,.F.);
#81=ADVANCED_FACE('',(#134),#107,.F.);
#82=ADVANCED_FACE('',(#135),#108,.F.);
#83=ADVANCED_FACE('',(#136),#38,.F.);
#84=ADVANCED_FACE('',(#137),#109,.F.);
#85=ADVANCED_FACE('',(#42,#43),#39,.F.);
#86=PLANE('',#601);
#87=PLANE('',#602);
#88=PLANE('',#603);
#89=PLANE('',#610);
#90=PLANE('',#611);
#91=PLANE('',#612);
#92=PLANE('',#613);
#93=PLANE('',#614);
#94=PLANE('',#615);
#95=PLANE('',#616);
#96=PLANE('',#617);
#97=PLANE('',#618);
#98=PLANE('',#623);
#99=PLANE('',#624);
#100=PLANE('',#625);
#101=PLANE('',#626);
#102=PLANE('',#627);
#103=PLANE('',#632);
#104=PLANE('',#633);
#105=PLANE('',#634);
#106=PLANE('',#635);
#107=PLANE('',#636);
#108=PLANE('',#638);
#109=PLANE('',#641);
#110=FACE_OUTER_BOUND('',#138,.T.);
#111=FACE_OUTER_BOUND('',#139,.T.);
#112=FACE_OUTER_BOUND('',#140,.T.);
#113=FACE_OUTER_BOUND('',#143,.T.);
#114=FACE_OUTER_BOUND('',#144,.T.);
#115=FACE_OUTER_BOUND('',#145,.T.);
#116=FACE_OUTER_BOUND('',#146,.T.);
#117=FACE_OUTER_BOUND('',#147,.T.);
#118=FACE_OUTER_BOUND('',#148,.T.);
#119=FACE_OUTER_BOUND('',#149,.T.);
#120=FACE_OUTER_BOUND('',#150,.T.);
#121=FACE_OUTER_BOUND('',#151,.T.);
#122=FACE_OUTER_BOUND('',#152,.T.);
#123=FACE_OUTER_BOUND('',#153,.T.);
#124=FACE_OUTER_BOUND('',#154,.T.);
#125=FACE_OUTER_BOUND('',#155,.T.);
#126=FACE_OUTER_BOUND('',#156,.T.);
#127=FACE_OUTER_BOUND('',#157,.T.);
#128=FACE_OUTER_BOUND('',#158,.T.);
#129=FACE_OUTER_BOUND('',#159,.T.);
#130=FACE_OUTER_BOUND('',#160,.T.);
#131=FACE_OUTER_BOUND('',#161,.T.);
#132=FACE_OUTER_BOUND('',#162,.T.);
#133=FACE_OUTER_BOUND('',#163,.T.);
#134=FACE_OUTER_BOUND('',#164,.T.);
#135=FACE_OUTER_BOUND('',#165,.T.);
#136=FACE_OUTER_BOUND('',#166,.T.);
#137=FACE_OUTER_BOUND('',#167,.T.);
#138=EDGE_LOOP('',(#170,#171,#172,#173));
#139=EDGE_LOOP('',(#174,#175,#176,#177));
#140=EDGE_LOOP('',(#178,#179,#180,#181));
#141=EDGE_LOOP('',(#182));
#142=EDGE_LOOP('',(#183,#184,#185,#186,#187,#188,#189,#190,#191,#192,#193,
#194,#195,#196,#197));
#143=EDGE_LOOP('',(#198,#199,#200,#201,#202,#203,#204,#205,#206,#207,#208,
#209,#210,#211));
#144=EDGE_LOOP('',(#212,#213,#214,#215));
#145=EDGE_LOOP('',(#216,#217,#218,#219,#220,#221,#222,#223,#224,#225,#226,
#227));
#146=EDGE_LOOP('',(#228,#229,#230,#231));
#147=EDGE_LOOP('',(#232,#233,#234,#235,#236,#237,#238));
#148=EDGE_LOOP('',(#239,#240,#241,#242));
#149=EDGE_LOOP('',(#243,#244,#245,#246));
#150=EDGE_LOOP('',(#247,#248,#249,#250,#251));
#151=EDGE_LOOP('',(#252,#253,#254,#255,#256,#257,#258,#259,#260,#261,#262,
#263));
#152=EDGE_LOOP('',(#264,#265,#266,#267,#268));
#153=EDGE_LOOP('',(#269,#270,#271,#272));
#154=EDGE_LOOP('',(#273,#274,#275,#276));
#155=EDGE_LOOP('',(#277,#278,#279,#280));
#156=EDGE_LOOP('',(#281,#282,#283,#284));
#157=EDGE_LOOP('',(#285,#286,#287,#288));
#158=EDGE_LOOP('',(#289,#290,#291,#292));
#159=EDGE_LOOP('',(#293,#294,#295,#296));
#160=EDGE_LOOP('',(#297,#298,#299,#300));
#161=EDGE_LOOP('',(#301,#302,#303,#304));
#162=EDGE_LOOP('',(#305,#306,#307,#308,#309));
#163=EDGE_LOOP('',(#310,#311,#312,#313));
#164=EDGE_LOOP('',(#314,#315,#316,#317));
#165=EDGE_LOOP('',(#318,#319,#320,#321,#322));
#166=EDGE_LOOP('',(#323,#324,#325,#326));
#167=EDGE_LOOP('',(#327));
#168=EDGE_LOOP('',(#328));
#169=EDGE_LOOP('',(#329));
#170=ORIENTED_EDGE('',*,*,#384,.T.);
#171=ORIENTED_EDGE('',*,*,#385,.T.);
#172=ORIENTED_EDGE('',*,*,#386,.T.);
#173=ORIENTED_EDGE('',*,*,#387,.T.);
#174=ORIENTED_EDGE('',*,*,#388,.F.);
#175=ORIENTED_EDGE('',*,*,#389,.F.);
#176=ORIENTED_EDGE('',*,*,#390,.F.);
#177=ORIENTED_EDGE('',*,*,#391,.T.);
#178=ORIENTED_EDGE('',*,*,#392,.F.);
#179=ORIENTED_EDGE('',*,*,#391,.F.);
#180=ORIENTED_EDGE('',*,*,#393,.F.);
#181=ORIENTED_EDGE('',*,*,#394,.F.);
#182=ORIENTED_EDGE('',*,*,#395,.F.);
#183=ORIENTED_EDGE('',*,*,#396,.F.);
#184=ORIENTED_EDGE('',*,*,#397,.T.);
#185=ORIENTED_EDGE('',*,*,#398,.F.);
#186=ORIENTED_EDGE('',*,*,#399,.F.);
#187=ORIENTED_EDGE('',*,*,#400,.T.);
#188=ORIENTED_EDGE('',*,*,#401,.F.);
#189=ORIENTED_EDGE('',*,*,#402,.T.);
#190=ORIENTED_EDGE('',*,*,#403,.F.);
#191=ORIENTED_EDGE('',*,*,#404,.T.);
#192=ORIENTED_EDGE('',*,*,#405,.F.);
#193=ORIENTED_EDGE('',*,*,#406,.T.);
#194=ORIENTED_EDGE('',*,*,#407,.F.);
#195=ORIENTED_EDGE('',*,*,#408,.T.);
#196=ORIENTED_EDGE('',*,*,#384,.F.);
#197=ORIENTED_EDGE('',*,*,#409,.F.);
#198=ORIENTED_EDGE('',*,*,#410,.T.);
#199=ORIENTED_EDGE('',*,*,#409,.T.);
#200=ORIENTED_EDGE('',*,*,#387,.F.);
#201=ORIENTED_EDGE('',*,*,#411,.F.);
#202=ORIENTED_EDGE('',*,*,#412,.F.);
#203=ORIENTED_EDGE('',*,*,#389,.T.);
#204=ORIENTED_EDGE('',*,*,#413,.F.);
#205=ORIENTED_EDGE('',*,*,#414,.F.);
#206=ORIENTED_EDGE('',*,*,#415,.F.);
#207=ORIENTED_EDGE('',*,*,#416,.T.);
#208=ORIENTED_EDGE('',*,*,#417,.F.);
#209=ORIENTED_EDGE('',*,*,#418,.T.);
#210=ORIENTED_EDGE('',*,*,#419,.T.);
#211=ORIENTED_EDGE('',*,*,#420,.F.);
#212=ORIENTED_EDGE('',*,*,#417,.T.);
#213=ORIENTED_EDGE('',*,*,#421,.T.);
#214=ORIENTED_EDGE('',*,*,#422,.F.);
#215=ORIENTED_EDGE('',*,*,#423,.T.);
#216=ORIENTED_EDGE('',*,*,#424,.F.);
#217=ORIENTED_EDGE('',*,*,#425,.F.);
#218=ORIENTED_EDGE('',*,*,#426,.F.);
#219=ORIENTED_EDGE('',*,*,#394,.T.);
#220=ORIENTED_EDGE('',*,*,#427,.F.);
#221=ORIENTED_EDGE('',*,*,#428,.F.);
#222=ORIENTED_EDGE('',*,*,#429,.F.);
#223=ORIENTED_EDGE('',*,*,#430,.T.);
#224=ORIENTED_EDGE('',*,*,#431,.F.);
#225=ORIENTED_EDGE('',*,*,#432,.T.);
#226=ORIENTED_EDGE('',*,*,#422,.T.);
#227=ORIENTED_EDGE('',*,*,#433,.T.);
#228=ORIENTED_EDGE('',*,*,#434,.F.);
#229=ORIENTED_EDGE('',*,*,#418,.F.);
#230=ORIENTED_EDGE('',*,*,#423,.F.);
#231=ORIENTED_EDGE('',*,*,#432,.F.);
#232=ORIENTED_EDGE('',*,*,#435,.F.);
#233=ORIENTED_EDGE('',*,*,#436,.F.);
#234=ORIENTED_EDGE('',*,*,#419,.F.);
#235=ORIENTED_EDGE('',*,*,#434,.T.);
#236=ORIENTED_EDGE('',*,*,#431,.T.);
#237=ORIENTED_EDGE('',*,*,#437,.T.);
#238=ORIENTED_EDGE('',*,*,#399,.T.);
#239=ORIENTED_EDGE('',*,*,#438,.F.);
#240=ORIENTED_EDGE('',*,*,#433,.F.);
#241=ORIENTED_EDGE('',*,*,#421,.F.);
#242=ORIENTED_EDGE('',*,*,#416,.F.);
#243=ORIENTED_EDGE('',*,*,#439,.F.);
#244=ORIENTED_EDGE('',*,*,#400,.F.);
#245=ORIENTED_EDGE('',*,*,#437,.F.);
#246=ORIENTED_EDGE('',*,*,#430,.F.);
#247=ORIENTED_EDGE('',*,*,#412,.T.);
#248=ORIENTED_EDGE('',*,*,#440,.T.);
#249=ORIENTED_EDGE('',*,*,#427,.T.);
#250=ORIENTED_EDGE('',*,*,#393,.T.);
#251=ORIENTED_EDGE('',*,*,#390,.T.);
#252=ORIENTED_EDGE('',*,*,#441,.T.);
#253=ORIENTED_EDGE('',*,*,#442,.T.);
#254=ORIENTED_EDGE('',*,*,#443,.T.);
#255=ORIENTED_EDGE('',*,*,#444,.T.);
#256=ORIENTED_EDGE('',*,*,#445,.F.);
#257=ORIENTED_EDGE('',*,*,#428,.T.);
#258=ORIENTED_EDGE('',*,*,#440,.F.);
#259=ORIENTED_EDGE('',*,*,#411,.T.);
#260=ORIENTED_EDGE('',*,*,#386,.F.);
#261=ORIENTED_EDGE('',*,*,#446,.T.);
#262=ORIENTED_EDGE('',*,*,#447,.T.);
#263=ORIENTED_EDGE('',*,*,#448,.T.);
#264=ORIENTED_EDGE('',*,*,#445,.T.);
#265=ORIENTED_EDGE('',*,*,#449,.T.);
#266=ORIENTED_EDGE('',*,*,#401,.T.);
#267=ORIENTED_EDGE('',*,*,#439,.T.);
#268=ORIENTED_EDGE('',*,*,#429,.T.);
#269=ORIENTED_EDGE('',*,*,#447,.F.);
#270=ORIENTED_EDGE('',*,*,#450,.T.);
#271=ORIENTED_EDGE('',*,*,#407,.T.);
#272=ORIENTED_EDGE('',*,*,#451,.T.);
#273=ORIENTED_EDGE('',*,*,#443,.F.);
#274=ORIENTED_EDGE('',*,*,#452,.T.);
#275=ORIENTED_EDGE('',*,*,#403,.T.);
#276=ORIENTED_EDGE('',*,*,#453,.T.);
#277=ORIENTED_EDGE('',*,*,#405,.T.);
#278=ORIENTED_EDGE('',*,*,#454,.T.);
#279=ORIENTED_EDGE('',*,*,#441,.F.);
#280=ORIENTED_EDGE('',*,*,#455,.T.);
#281=ORIENTED_EDGE('',*,*,#404,.F.);
#282=ORIENTED_EDGE('',*,*,#452,.F.);
#283=ORIENTED_EDGE('',*,*,#442,.F.);
#284=ORIENTED_EDGE('',*,*,#454,.F.);
#285=ORIENTED_EDGE('',*,*,#446,.F.);
#286=ORIENTED_EDGE('',*,*,#385,.F.);
#287=ORIENTED_EDGE('',*,*,#408,.F.);
#288=ORIENTED_EDGE('',*,*,#450,.F.);
#289=ORIENTED_EDGE('',*,*,#406,.F.);
#290=ORIENTED_EDGE('',*,*,#455,.F.);
#291=ORIENTED_EDGE('',*,*,#448,.F.);
#292=ORIENTED_EDGE('',*,*,#451,.F.);
#293=ORIENTED_EDGE('',*,*,#444,.F.);
#294=ORIENTED_EDGE('',*,*,#453,.F.);
#295=ORIENTED_EDGE('',*,*,#402,.F.);
#296=ORIENTED_EDGE('',*,*,#449,.F.);
#297=ORIENTED_EDGE('',*,*,#415,.T.);
#298=ORIENTED_EDGE('',*,*,#456,.T.);
#299=ORIENTED_EDGE('',*,*,#424,.T.);
#300=ORIENTED_EDGE('',*,*,#438,.T.);
#301=ORIENTED_EDGE('',*,*,#414,.T.);
#302=ORIENTED_EDGE('',*,*,#457,.F.);
#303=ORIENTED_EDGE('',*,*,#425,.T.);
#304=ORIENTED_EDGE('',*,*,#456,.F.);
#305=ORIENTED_EDGE('',*,*,#413,.T.);
#306=ORIENTED_EDGE('',*,*,#388,.T.);
#307=ORIENTED_EDGE('',*,*,#392,.T.);
#308=ORIENTED_EDGE('',*,*,#426,.T.);
#309=ORIENTED_EDGE('',*,*,#457,.T.);
#310=ORIENTED_EDGE('',*,*,#458,.T.);
#311=ORIENTED_EDGE('',*,*,#459,.T.);
#312=ORIENTED_EDGE('',*,*,#396,.T.);
#313=ORIENTED_EDGE('',*,*,#410,.F.);
#314=ORIENTED_EDGE('',*,*,#398,.T.);
#315=ORIENTED_EDGE('',*,*,#460,.T.);
#316=ORIENTED_EDGE('',*,*,#461,.T.);
#317=ORIENTED_EDGE('',*,*,#435,.T.);
#318=ORIENTED_EDGE('',*,*,#461,.F.);
#319=ORIENTED_EDGE('',*,*,#462,.T.);
#320=ORIENTED_EDGE('',*,*,#458,.F.);
#321=ORIENTED_EDGE('',*,*,#420,.T.);
#322=ORIENTED_EDGE('',*,*,#436,.T.);
#323=ORIENTED_EDGE('',*,*,#397,.F.);
#324=ORIENTED_EDGE('',*,*,#459,.F.);
#325=ORIENTED_EDGE('',*,*,#462,.F.);
#326=ORIENTED_EDGE('',*,*,#460,.F.);
#327=ORIENTED_EDGE('',*,*,#463,.F.);
#328=ORIENTED_EDGE('',*,*,#395,.T.);
#329=ORIENTED_EDGE('',*,*,#463,.T.);
#330=VERTEX_POINT('',#799);
#331=VERTEX_POINT('',#800);
#332=VERTEX_POINT('',#802);
#333=VERTEX_POINT('',#804);
#334=VERTEX_POINT('',#808);
#335=VERTEX_POINT('',#809);
#336=VERTEX_POINT('',#811);
#337=VERTEX_POINT('',#813);
#338=VERTEX_POINT('',#817);
#339=VERTEX_POINT('',#819);
#340=VERTEX_POINT('',#823);
#341=VERTEX_POINT('',#825);
#342=VERTEX_POINT('',#826);
#343=VERTEX_POINT('',#828);
#344=VERTEX_POINT('',#830);
#345=VERTEX_POINT('',#832);
#346=VERTEX_POINT('',#834);
#347=VERTEX_POINT('',#836);
#348=VERTEX_POINT('',#838);
#349=VERTEX_POINT('',#840);
#350=VERTEX_POINT('',#842);
#351=VERTEX_POINT('',#844);
#352=VERTEX_POINT('',#846);
#353=VERTEX_POINT('',#848);
#354=VERTEX_POINT('',#853);
#355=VERTEX_POINT('',#855);
#356=VERTEX_POINT('',#858);
#357=VERTEX_POINT('',#860);
#358=VERTEX_POINT('',#862);
#359=VERTEX_POINT('',#864);
#360=VERTEX_POINT('',#866);
#361=VERTEX_POINT('',#868);
#362=VERTEX_POINT('',#870);
#363=VERTEX_POINT('',#874);
#364=VERTEX_POINT('',#876);
#365=VERTEX_POINT('',#880);
#366=VERTEX_POINT('',#881);
#367=VERTEX_POINT('',#883);
#368=VERTEX_POINT('',#886);
#369=VERTEX_POINT('',#888);
#370=VERTEX_POINT('',#890);
#371=VERTEX_POINT('',#892);
#372=VERTEX_POINT('',#894);
#373=VERTEX_POINT('',#901);
#374=VERTEX_POINT('',#912);
#375=VERTEX_POINT('',#913);
#376=VERTEX_POINT('',#915);
#377=VERTEX_POINT('',#917);
#378=VERTEX_POINT('',#919);
#379=VERTEX_POINT('',#922);
#380=VERTEX_POINT('',#924);
#381=VERTEX_POINT('',#948);
#382=VERTEX_POINT('',#952);
#383=VERTEX_POINT('',#959);
#384=EDGE_CURVE('',#330,#331,#464,.T.);
#385=EDGE_CURVE('',#331,#332,#465,.T.);
#386=EDGE_CURVE('',#332,#333,#466,.T.);
#387=EDGE_CURVE('',#333,#330,#467,.T.);
#388=EDGE_CURVE('',#334,#335,#468,.T.);
#389=EDGE_CURVE('',#336,#334,#469,.T.);
#390=EDGE_CURVE('',#337,#336,#470,.T.);
#391=EDGE_CURVE('',#337,#335,#471,.T.);
#392=EDGE_CURVE('',#335,#338,#472,.T.);
#393=EDGE_CURVE('',#339,#337,#473,.T.);
#394=EDGE_CURVE('',#338,#339,#474,.T.);
#395=EDGE_CURVE('',#340,#340,#44,.T.);
#396=EDGE_CURVE('',#341,#342,#475,.T.);
#397=EDGE_CURVE('',#341,#343,#45,.T.);
#398=EDGE_CURVE('',#344,#343,#476,.T.);
#399=EDGE_CURVE('',#345,#344,#477,.T.);
#400=EDGE_CURVE('',#345,#346,#478,.T.);
#401=EDGE_CURVE('',#347,#346,#479,.T.);
#402=EDGE_CURVE('',#347,#348,#46,.T.);
#403=EDGE_CURVE('',#349,#348,#480,.T.);
#404=EDGE_CURVE('',#349,#350,#47,.T.);
#405=EDGE_CURVE('',#351,#350,#481,.T.);
#406=EDGE_CURVE('',#351,#352,#48,.T.);
#407=EDGE_CURVE('',#353,#352,#482,.T.);
#408=EDGE_CURVE('',#353,#331,#49,.T.);
#409=EDGE_CURVE('',#342,#330,#483,.T.);
#410=EDGE_CURVE('',#354,#342,#484,.T.);
#411=EDGE_CURVE('',#355,#333,#485,.T.);
#412=EDGE_CURVE('',#336,#355,#486,.T.);
#413=EDGE_CURVE('',#356,#334,#487,.T.);
#414=EDGE_CURVE('',#357,#356,#488,.T.);
#415=EDGE_CURVE('',#358,#357,#489,.T.);
#416=EDGE_CURVE('',#358,#359,#490,.T.);
#417=EDGE_CURVE('',#360,#359,#491,.T.);
#418=EDGE_CURVE('',#360,#361,#492,.T.);
#419=EDGE_CURVE('',#361,#362,#493,.T.);
#420=EDGE_CURVE('',#354,#362,#494,.T.);
#421=EDGE_CURVE('',#359,#363,#495,.T.);
#422=EDGE_CURVE('',#364,#363,#496,.T.);
#423=EDGE_CURVE('',#364,#360,#497,.T.);
#424=EDGE_CURVE('',#365,#366,#498,.T.);
#425=EDGE_CURVE('',#367,#365,#499,.T.);
#426=EDGE_CURVE('',#338,#367,#500,.T.);
#427=EDGE_CURVE('',#368,#339,#501,.T.);
#428=EDGE_CURVE('',#369,#368,#502,.T.);
#429=EDGE_CURVE('',#370,#369,#503,.T.);
#430=EDGE_CURVE('',#370,#371,#504,.T.);
#431=EDGE_CURVE('',#372,#371,#505,.T.);
#432=EDGE_CURVE('',#372,#364,#506,.T.);
#433=EDGE_CURVE('',#363,#366,#507,.T.);
#434=EDGE_CURVE('',#361,#372,#508,.T.);
#435=EDGE_CURVE('',#373,#344,#509,.T.);
#436=EDGE_CURVE('',#362,#373,#510,.T.);
#437=EDGE_CURVE('',#371,#345,#511,.T.);
#438=EDGE_CURVE('',#366,#358,#512,.T.);
#439=EDGE_CURVE('',#346,#370,#513,.T.);
#440=EDGE_CURVE('',#355,#368,#514,.T.);
#441=EDGE_CURVE('',#374,#375,#515,.T.);
#442=EDGE_CURVE('',#375,#376,#50,.T.);
#443=EDGE_CURVE('',#376,#377,#516,.T.);
#444=EDGE_CURVE('',#377,#378,#51,.T.);
#445=EDGE_CURVE('',#369,#378,#517,.T.);
#446=EDGE_CURVE('',#332,#379,#52,.T.);
#447=EDGE_CURVE('',#379,#380,#518,.T.);
#448=EDGE_CURVE('',#380,#374,#53,.T.);
#449=EDGE_CURVE('',#378,#347,#519,.T.);
#450=EDGE_CURVE('',#379,#353,#520,.T.);
#451=EDGE_CURVE('',#352,#380,#521,.T.);
#452=EDGE_CURVE('',#376,#349,#522,.T.);
#453=EDGE_CURVE('',#348,#377,#523,.T.);
#454=EDGE_CURVE('',#350,#375,#524,.T.);
#455=EDGE_CURVE('',#374,#351,#525,.T.);
#456=EDGE_CURVE('',#357,#365,#526,.T.);
#457=EDGE_CURVE('',#367,#356,#527,.T.);
#458=EDGE_CURVE('',#354,#381,#528,.T.);
#459=EDGE_CURVE('',#381,#341,#529,.T.);
#460=EDGE_CURVE('',#343,#382,#530,.T.);
#461=EDGE_CURVE('',#382,#373,#531,.T.);
#462=EDGE_CURVE('',#382,#381,#54,.T.);
#463=EDGE_CURVE('',#383,#383,#55,.T.);
#464=LINE('',#798,#532);
#465=LINE('',#801,#533);
#466=LINE('',#803,#534);
#467=LINE('',#805,#535);
#468=LINE('',#807,#536);
#469=LINE('',#810,#537);
#470=LINE('',#812,#538);
#471=LINE('',#814,#539);
#472=LINE('',#816,#540);
#473=LINE('',#818,#541);
#474=LINE('',#820,#542);
#475=LINE('',#824,#543);
#476=LINE('',#829,#544);
#477=LINE('',#831,#545);
#478=LINE('',#833,#546);
#479=LINE('',#835,#547);
#480=LINE('',#839,#548);
#481=LINE('',#843,#549);
#482=LINE('',#847,#550);
#483=LINE('',#850,#551);
#484=LINE('',#852,#552);
#485=LINE('',#854,#553);
#486=LINE('',#856,#554);
#487=LINE('',#857,#555);
#488=LINE('',#859,#556);
#489=LINE('',#861,#557);
#490=LINE('',#863,#558);
#491=LINE('',#865,#559);
#492=LINE('',#867,#560);
#493=LINE('',#869,#561);
#494=LINE('',#871,#562);
#495=LINE('',#873,#563);
#496=LINE('',#875,#564);
#497=LINE('',#877,#565);
#498=LINE('',#879,#566);
#499=LINE('',#882,#567);
#500=LINE('',#884,#568);
#501=LINE('',#885,#569);
#502=LINE('',#887,#570);
#503=LINE('',#889,#571);
#504=LINE('',#891,#572);
#505=LINE('',#893,#573);
#506=LINE('',#895,#574);
#507=LINE('',#896,#575);
#508=LINE('',#898,#576);
#509=LINE('',#900,#577);
#510=LINE('',#902,#578);
#511=LINE('',#903,#579);
#512=LINE('',#905,#580);
#513=LINE('',#907,#581);
#514=LINE('',#909,#582);
#515=LINE('',#911,#583);
#516=LINE('',#916,#584);
#517=LINE('',#920,#585);
#518=LINE('',#923,#586);
#519=LINE('',#927,#587);
#520=LINE('',#929,#588);
#521=LINE('',#930,#589);
#522=LINE('',#932,#590);
#523=LINE('',#933,#591);
#524=LINE('',#935,#592);
#525=LINE('',#936,#593);
#526=LINE('',#942,#594);
#527=LINE('',#944,#595);
#528=LINE('',#947,#596);
#529=LINE('',#949,#597);
#530=LINE('',#951,#598);
#531=LINE('',#953,#599);
#532=VECTOR('',#645,1.);
#533=VECTOR('',#646,1.);
#534=VECTOR('',#647,1.);
#535=VECTOR('',#648,1.);
#536=VECTOR('',#651,1.);
#537=VECTOR('',#652,1.);
#538=VECTOR('',#653,1.);
#539=VECTOR('',#654,1.);
#540=VECTOR('',#657,1.);
#541=VECTOR('',#658,1.);
#542=VECTOR('',#659,1.);
#543=VECTOR('',#664,1.);
#544=VECTOR('',#667,1.);
#545=VECTOR('',#668,1.);
#546=VECTOR('',#669,1.);
#547=VECTOR('',#670,1.);
#548=VECTOR('',#673,1.);
#549=VECTOR('',#676,1.);
#550=VECTOR('',#679,1.);
#551=VECTOR('',#682,1.);
#552=VECTOR('',#685,1.);
#553=VECTOR('',#686,1.);
#554=VECTOR('',#687,1.);
#555=VECTOR('',#688,1.);
#556=VECTOR('',#689,1.);
#557=VECTOR('',#690,1.);
#558=VECTOR('',#691,1.);
#559=VECTOR('',#692,1.);
#560=VECTOR('',#693,1.);
#561=VECTOR('',#694,1.);
#562=VECTOR('',#695,1.);
#563=VECTOR('',#698,1.);
#564=VECTOR('',#699,1.);
#565=VECTOR('',#700,1.);
#566=VECTOR('',#703,1.);
#567=VECTOR('',#704,1.);
#568=VECTOR('',#705,1.);
#569=VECTOR('',#706,1.);
#570=VECTOR('',#707,1.);
#571=VECTOR('',#708,1.);
#572=VECTOR('',#709,1.);
#573=VECTOR('',#710,1.);
#574=VECTOR('',#711,1.);
#575=VECTOR('',#712,1.);
#576=VECTOR('',#715,1.);
#577=VECTOR('',#718,1.);
#578=VECTOR('',#719,1.);
#579=VECTOR('',#720,1.);
#580=VECTOR('',#723,1.);
#581=VECTOR('',#726,1.);
#582=VECTOR('',#729,1.);
#583=VECTOR('',#732,1.);
#584=VECTOR('',#735,1.);
#585=VECTOR('',#738,1.);
#586=VECTOR('',#741,1.);
#587=VECTOR('',#746,1.);
#588=VECTOR('',#749,1.);
#589=VECTOR('',#750,1.);
#590=VECTOR('',#753,1.);
#591=VECTOR('',#754,1.);
#592=VECTOR('',#757,1.);
#593=VECTOR('',#758,1.);
#594=VECTOR('',#769,1.);
#595=VECTOR('',#772,1.);
#596=VECTOR('',#777,1.);
#597=VECTOR('',#778,1.);
#598=VECTOR('',#781,1.);
#599=VECTOR('',#782,1.);
#600=AXIS2_PLACEMENT_3D('',#797,#643,#644);
#601=AXIS2_PLACEMENT_3D('',#806,#649,#650);
#602=AXIS2_PLACEMENT_3D('',#815,#655,#656);
#603=AXIS2_PLACEMENT_3D('',#821,#660,#661);
#604=AXIS2_PLACEMENT_3D('',#822,#662,#663);
#605=AXIS2_PLACEMENT_3D('',#827,#665,#666);
#606=AXIS2_PLACEMENT_3D('',#837,#671,#672);
#607=AXIS2_PLACEMENT_3D('',#841,#674,#675);
#608=AXIS2_PLACEMENT_3D('',#845,#677,#678);
#609=AXIS2_PLACEMENT_3D('',#849,#680,#681);
#610=AXIS2_PLACEMENT_3D('',#851,#683,#684);
#611=AXIS2_PLACEMENT_3D('',#872,#696,#697);
#612=AXIS2_PLACEMENT_3D('',#878,#701,#702);
#613=AXIS2_PLACEMENT_3D('',#897,#713,#714);
#614=AXIS2_PLACEMENT_3D('',#899,#716,#717);
#615=AXIS2_PLACEMENT_3D('',#904,#721,#722);
#616=AXIS2_PLACEMENT_3D('',#906,#724,#725);
#617=AXIS2_PLACEMENT_3D('',#908,#727,#728);
#618=AXIS2_PLACEMENT_3D('',#910,#730,#731);
#619=AXIS2_PLACEMENT_3D('',#914,#733,#734);
#620=AXIS2_PLACEMENT_3D('',#918,#736,#737);
#621=AXIS2_PLACEMENT_3D('',#921,#739,#740);
#622=AXIS2_PLACEMENT_3D('',#925,#742,#743);
#623=AXIS2_PLACEMENT_3D('',#926,#744,#745);
#624=AXIS2_PLACEMENT_3D('',#928,#747,#748);
#625=AXIS2_PLACEMENT_3D('',#931,#751,#752);
#626=AXIS2_PLACEMENT_3D('',#934,#755,#756);
#627=AXIS2_PLACEMENT_3D('',#937,#759,#760);
#628=AXIS2_PLACEMENT_3D('',#938,#761,#762);
#629=AXIS2_PLACEMENT_3D('',#939,#763,#764);
#630=AXIS2_PLACEMENT_3D('',#940,#765,#766);
#631=AXIS2_PLACEMENT_3D('',#941,#767,#768);
#632=AXIS2_PLACEMENT_3D('',#943,#770,#771);
#633=AXIS2_PLACEMENT_3D('',#945,#773,#774);
#634=AXIS2_PLACEMENT_3D('',#946,#775,#776);
#635=AXIS2_PLACEMENT_3D('',#950,#779,#780);
#636=AXIS2_PLACEMENT_3D('',#954,#783,#784);
#637=AXIS2_PLACEMENT_3D('',#955,#785,#786);
#638=AXIS2_PLACEMENT_3D('',#956,#787,#788);
#639=AXIS2_PLACEMENT_3D('',#957,#789,#790);
#640=AXIS2_PLACEMENT_3D('',#958,#791,#792);
#641=AXIS2_PLACEMENT_3D('',#960,#793,#794);
#642=AXIS2_PLACEMENT_3D('',#961,#795,#796);
#643=DIRECTION('',(0.,0.,1.));
#644=DIRECTION('',(1.,0.,0.));
#645=DIRECTION('',(0.,1.,0.));
#646=DIRECTION('',(0.,0.,-1.));
#647=DIRECTION('',(0.,-1.,0.));
#648=DIRECTION('',(0.,0.,1.));
#649=DIRECTION('',(1.,0.,0.));
#650=DIRECTION('',(0.,0.,-1.));
#651=DIRECTION('',(0.,1.,0.));
#652=DIRECTION('',(-1.,0.,0.));
#653=DIRECTION('',(0.,-1.,0.));
#654=DIRECTION('',(-1.,0.,0.));
#655=DIRECTION('',(0.,0.,1.));
#656=DIRECTION('',(1.,0.,0.));
#657=DIRECTION('',(0.,0.707106781186546,-0.707106781186549));
#658=DIRECTION('',(0.,-0.707106781186546,0.707106781186549));
#659=DIRECTION('',(1.,0.,0.));
#660=DIRECTION('',(0.,-0.707106781186549,-0.707106781186546));
#661=DIRECTION('',(1.,0.,0.));
#662=DIRECTION('',(0.,0.,1.));
#663=DIRECTION('',(1.,0.,0.));
#664=DIRECTION('',(0.,-1.,0.));
#665=DIRECTION('',(0.,0.,-1.));
#666=DIRECTION('',(1.,0.,0.));
#667=DIRECTION('',(-1.,0.,0.));
#668=DIRECTION('',(0.,-1.,0.));
#669=DIRECTION('',(-1.,0.,0.));
#670=DIRECTION('',(0.,1.,0.));
#671=DIRECTION('',(0.,0.,1.));
#672=DIRECTION('',(1.,0.,0.));
#673=DIRECTION('',(-1.,0.,0.));
#674=DIRECTION('',(0.,0.,-1.));
#675=DIRECTION('',(1.,0.,0.));
#676=DIRECTION('',(0.,1.,0.));
#677=DIRECTION('',(0.,0.,-1.));
#678=DIRECTION('',(1.,0.,0.));
#679=DIRECTION('',(1.,0.,0.));
#680=DIRECTION('',(0.,0.,1.));
#681=DIRECTION('',(1.,0.,0.));
#682=DIRECTION('',(-1.,0.,0.));
#683=DIRECTION('',(0.,0.,1.));
#684=DIRECTION('',(1.,0.,0.));
#685=DIRECTION('',(0.,0.,1.));
#686=DIRECTION('',(1.,0.,0.));
#687=DIRECTION('',(0.,0.,-1.));
#688=DIRECTION('',(0.,0.,1.));
#689=DIRECTION('',(1.,0.,0.));
#690=DIRECTION('',(0.,0.,-1.));
#691=DIRECTION('',(-0.707106781186548,0.,-0.707106781186548));
#692=DIRECTION('',(0.,0.,1.));
#693=DIRECTION('',(1.,0.,0.));
#694=DIRECTION('',(0.,0.,1.));
#695=DIRECTION('',(1.,0.,0.));
#696=DIRECTION('',(0.,-1.,0.));
#697=DIRECTION('',(0.,0.,-1.));
#698=DIRECTION('',(0.,1.,0.));
#699=DIRECTION('',(0.,0.,1.));
#700=DIRECTION('',(0.,-1.,0.));
#701=DIRECTION('',(-1.,0.,0.));
#702=DIRECTION('',(0.,0.,1.));
#703=DIRECTION('',(0.,0.,1.));
#704=DIRECTION('',(-1.,0.,0.));
#705=DIRECTION('',(0.,0.,-1.));
#706=DIRECTION('',(0.,0.,1.));
#707=DIRECTION('',(-1.,0.,0.));
#708=DIRECTION('',(0.,0.,-1.));
#709=DIRECTION('',(1.,0.,0.));
#710=DIRECTION('',(0.,0.,1.));
#711=DIRECTION('',(-1.,0.,0.));
#712=DIRECTION('',(0.707106781186548,0.,0.707106781186548));
#713=DIRECTION('',(0.,1.,0.));
#714=DIRECTION('',(0.,0.,1.));
#715=DIRECTION('',(0.,1.,0.));
#716=DIRECTION('',(0.,0.,-1.));
#717=DIRECTION('',(-1.,0.,0.));
#718=DIRECTION('',(0.,0.,1.));
#719=DIRECTION('',(0.,1.,0.));
#720=DIRECTION('',(0.,-0.707106781186546,0.707106781186549));
#721=DIRECTION('',(1.,0.,0.));
#722=DIRECTION('',(0.,0.,-1.));
#723=DIRECTION('',(0.,-1.,0.));
#724=DIRECTION('',(0.707106781186547,0.,-0.707106781186547));
#725=DIRECTION('',(0.,1.,0.));
#726=DIRECTION('',(0.,0.707106781186546,-0.707106781186549));
#727=DIRECTION('',(0.,-0.707106781186549,-0.707106781186546));
#728=DIRECTION('',(1.,0.,0.));
#729=DIRECTION('',(0.,1.,0.));
#730=DIRECTION('',(-1.,0.,0.));
#731=DIRECTION('',(0.,0.,1.));
#732=DIRECTION('',(0.,1.,0.));
#733=DIRECTION('',(0.,0.,1.));
#734=DIRECTION('',(-1.,0.,0.));
#735=DIRECTION('',(-1.,0.,0.));
#736=DIRECTION('',(0.,0.,-1.));
#737=DIRECTION('',(-1.,0.,0.));
#738=DIRECTION('',(0.,-1.,0.));
#739=DIRECTION('',(0.,0.,-1.));
#740=DIRECTION('',(-1.,0.,0.));
#741=DIRECTION('',(1.,0.,0.));
#742=DIRECTION('',(0.,0.,1.));
#743=DIRECTION('',(-1.,0.,0.));
#744=DIRECTION('',(0.,0.,-1.));
#745=DIRECTION('',(-1.,0.,0.));
#746=DIRECTION('',(0.,0.,1.));
#747=DIRECTION('',(1.,0.,0.));
#748=DIRECTION('',(0.,0.,-1.));
#749=DIRECTION('',(0.,0.,1.));
#750=DIRECTION('',(0.,0.,-1.));
#751=DIRECTION('',(0.,-1.,0.));
#752=DIRECTION('',(0.,0.,-1.));
#753=DIRECTION('',(0.,0.,1.));
#754=DIRECTION('',(0.,0.,-1.));
#755=DIRECTION('',(0.,1.,0.));
#756=DIRECTION('',(0.,0.,1.));
#757=DIRECTION('',(0.,0.,-1.));
#758=DIRECTION('',(0.,0.,1.));
#759=DIRECTION('',(1.,0.,0.));
#760=DIRECTION('',(0.,0.,-1.));
#761=DIRECTION('',(0.,0.,1.));
#762=DIRECTION('',(1.,0.,0.));
#763=DIRECTION('',(0.,0.,1.));
#764=DIRECTION('',(1.,0.,0.));
#765=DIRECTION('',(0.,0.,1.));
#766=DIRECTION('',(1.,0.,0.));
#767=DIRECTION('',(0.,0.,1.));
#768=DIRECTION('',(1.,0.,0.));
#769=DIRECTION('',(0.,1.,0.));
#770=DIRECTION('',(-1.,0.,0.));
#771=DIRECTION('',(0.,0.,1.));
#772=DIRECTION('',(0.,-1.,0.));
#773=DIRECTION('',(0.,0.,-1.));
#774=DIRECTION('',(-1.,0.,0.));
#775=DIRECTION('',(1.,0.,0.));
#776=DIRECTION('',(0.,0.,-1.));
#777=DIRECTION('',(0.,1.,0.));
#778=DIRECTION('',(0.,0.,1.));
#779=DIRECTION('',(-1.,0.,0.));
#780=DIRECTION('',(0.,0.,1.));
#781=DIRECTION('',(0.,0.,-1.));
#782=DIRECTION('',(1.,0.,0.));
#783=DIRECTION('',(0.,1.,0.));
#784=DIRECTION('',(0.,0.,1.));
#785=DIRECTION('',(0.,0.,1.));
#786=DIRECTION('',(-1.,0.,0.));
#787=DIRECTION('',(0.,0.,-1.));
#788=DIRECTION('',(-1.,0.,0.));
#789=DIRECTION('',(0.,0.,1.));
#790=DIRECTION('',(1.,0.,0.));
#791=DIRECTION('',(0.,0.,-1.));
#792=DIRECTION('',(1.,0.,0.));
#793=DIRECTION('',(0.,0.,-1.));
#794=DIRECTION('',(-1.,0.,0.));
#795=DIRECTION('',(0.,0.,-1.));
#796=DIRECTION('',(1.,0.,0.));
#797=CARTESIAN_POINT('',(0.,0.,0.));
#798=CARTESIAN_POINT('',(55.6,186.5,117.4));
#799=CARTESIAN_POINT('',(55.6,0.,117.4));
#800=CARTESIAN_POINT('',(55.6,24.9,117.4));
#801=CARTESIAN_POINT('',(55.6,24.9,79.5));
#802=CARTESIAN_POINT('',(55.6,24.9,79.5));
#803=CARTESIAN_POINT('',(55.6,186.5,79.5));
#804=CARTESIAN_POINT('',(55.6,0.,79.5));
#805=CARTESIAN_POINT('',(55.6,0.,0.));
#806=CARTESIAN_POINT('',(55.6,186.5,79.5));
#807=CARTESIAN_POINT('',(20.4,186.5,117.4));
#808=CARTESIAN_POINT('',(20.4,0.,117.4));
#809=CARTESIAN_POINT('',(20.4,363.7,117.4));
#810=CARTESIAN_POINT('',(120.55,0.,117.4));
#811=CARTESIAN_POINT('',(35.7,0.,117.4));
#812=CARTESIAN_POINT('',(35.7,186.5,117.4));
#813=CARTESIAN_POINT('',(35.7,363.7,117.4));
#814=CARTESIAN_POINT('',(120.55,363.7,117.4));
#815=CARTESIAN_POINT('',(120.55,186.5,117.4));
#816=CARTESIAN_POINT('',(20.4,373.,108.1));
#817=CARTESIAN_POINT('',(20.4,373.,108.1));
#818=CARTESIAN_POINT('',(35.7,373.,108.1));
#819=CARTESIAN_POINT('',(35.7,373.,108.1));
#820=CARTESIAN_POINT('',(120.55,373.,108.1));
#821=CARTESIAN_POINT('',(120.55,373.,108.1));
#822=CARTESIAN_POINT('',(101.8,232.8,117.4));
#823=CARTESIAN_POINT('',(109.3,232.8,117.4));
#824=CARTESIAN_POINT('',(182.9,186.5,117.4));
#825=CARTESIAN_POINT('',(182.9,113.9,117.4));
#826=CARTESIAN_POINT('',(182.9,0.,117.4));
#827=CARTESIAN_POINT('',(187.2,113.9,117.4));
#828=CARTESIAN_POINT('',(187.2,118.2,117.4));
#829=CARTESIAN_POINT('',(120.55,118.2,117.4));
#830=CARTESIAN_POINT('',(241.1,118.2,117.4));
#831=CARTESIAN_POINT('',(241.1,186.5,117.4));
#832=CARTESIAN_POINT('',(241.1,363.7,117.4));
#833=CARTESIAN_POINT('',(120.55,363.7,117.4));
#834=CARTESIAN_POINT('',(55.6,363.7,117.4));
#835=CARTESIAN_POINT('',(55.6,186.5,117.4));
#836=CARTESIAN_POINT('',(55.6,285.4,117.4));
#837=CARTESIAN_POINT('',(65.4,285.4,117.4));
#838=CARTESIAN_POINT('',(65.4,275.6,117.4));
#839=CARTESIAN_POINT('',(120.55,275.6,117.4));
#840=CARTESIAN_POINT('',(67.6,275.6,117.4));
#841=CARTESIAN_POINT('',(67.6,265.8,117.4));
#842=CARTESIAN_POINT('',(77.4,265.8,117.4));
#843=CARTESIAN_POINT('',(77.4,186.5,117.4));
#844=CARTESIAN_POINT('',(77.4,44.5,117.4));
#845=CARTESIAN_POINT('',(67.6,44.5,117.4));
#846=CARTESIAN_POINT('',(67.6,34.7,117.4));
#847=CARTESIAN_POINT('',(120.55,34.7,117.4));
#848=CARTESIAN_POINT('',(65.4,34.7,117.4));
#849=CARTESIAN_POINT('',(65.4,24.9,117.4));
#850=CARTESIAN_POINT('',(120.55,0.,117.4));
#851=CARTESIAN_POINT('',(120.55,186.5,117.4));
#852=CARTESIAN_POINT('',(182.9,0.,91.5));
#853=CARTESIAN_POINT('',(182.9,0.,91.5));
#854=CARTESIAN_POINT('',(120.55,0.,79.5));
#855=CARTESIAN_POINT('',(35.7,0.,79.5));
#856=CARTESIAN_POINT('',(35.7,0.,0.));
#857=CARTESIAN_POINT('',(20.4,0.,0.));
#858=CARTESIAN_POINT('',(20.4,0.,89.));
#859=CARTESIAN_POINT('',(120.55,0.,89.));
#860=CARTESIAN_POINT('',(5.3,0.,89.));
#861=CARTESIAN_POINT('',(5.3,0.,0.));
#862=CARTESIAN_POINT('',(5.3,0.,105.8));
#863=CARTESIAN_POINT('',(10.025,0.,110.525));
#864=CARTESIAN_POINT('',(0.,0.,100.5));
#865=CARTESIAN_POINT('',(0.,0.,0.));
#866=CARTESIAN_POINT('',(0.,0.,0.));
#867=CARTESIAN_POINT('',(120.55,0.,0.));
#868=CARTESIAN_POINT('',(241.1,0.,0.));
#869=CARTESIAN_POINT('',(241.1,0.,0.));
#870=CARTESIAN_POINT('',(241.1,0.,91.5));
#871=CARTESIAN_POINT('',(212.,0.,91.5));
#872=CARTESIAN_POINT('',(120.55,0.,0.));
#873=CARTESIAN_POINT('',(0.,186.5,100.5));
#874=CARTESIAN_POINT('',(0.,373.,100.5));
#875=CARTESIAN_POINT('',(0.,373.,0.));
#876=CARTESIAN_POINT('',(0.,373.,0.));
#877=CARTESIAN_POINT('',(0.,186.5,0.));
#878=CARTESIAN_POINT('',(0.,186.5,0.));
#879=CARTESIAN_POINT('',(5.3,373.,0.));
#880=CARTESIAN_POINT('',(5.3,373.,89.));
#881=CARTESIAN_POINT('',(5.29999999999999,373.,105.8));
#882=CARTESIAN_POINT('',(120.55,373.,89.));
#883=CARTESIAN_POINT('',(20.4,373.,89.));
#884=CARTESIAN_POINT('',(20.4,373.,0.));
#885=CARTESIAN_POINT('',(35.7,373.,0.));
#886=CARTESIAN_POINT('',(35.7,373.,79.5));
#887=CARTESIAN_POINT('',(120.55,373.,79.5));
#888=CARTESIAN_POINT('',(55.6,373.,79.5));
#889=CARTESIAN_POINT('',(55.6,373.,0.));
#890=CARTESIAN_POINT('',(55.6,373.,108.1));
#891=CARTESIAN_POINT('',(120.55,373.,108.1));
#892=CARTESIAN_POINT('',(241.1,373.,108.1));
#893=CARTESIAN_POINT('',(241.1,373.,0.));
#894=CARTESIAN_POINT('',(241.1,373.,0.));
#895=CARTESIAN_POINT('',(120.55,373.,0.));
#896=CARTESIAN_POINT('',(10.025,373.,110.525));
#897=CARTESIAN_POINT('',(120.55,373.,0.));
#898=CARTESIAN_POINT('',(241.1,186.5,0.));
#899=CARTESIAN_POINT('',(120.55,186.5,0.));
#900=CARTESIAN_POINT('',(241.1,118.2,91.5));
#901=CARTESIAN_POINT('',(241.1,118.2,91.5));
#902=CARTESIAN_POINT('',(241.1,59.1,91.5));
#903=CARTESIAN_POINT('',(241.1,333.8,147.3));
#904=CARTESIAN_POINT('',(241.1,186.5,0.));
#905=CARTESIAN_POINT('',(5.3,186.5,105.8));
#906=CARTESIAN_POINT('',(0.,186.5,100.5));
#907=CARTESIAN_POINT('',(55.6,373.,108.1));
#908=CARTESIAN_POINT('',(120.55,373.,108.1));
#909=CARTESIAN_POINT('',(35.7,186.5,79.5));
#910=CARTESIAN_POINT('',(35.7,186.5,79.5));
#911=CARTESIAN_POINT('',(77.4,155.15,79.5));
#912=CARTESIAN_POINT('',(77.4,44.5,79.5));
#913=CARTESIAN_POINT('',(77.4,265.8,79.5));
#914=CARTESIAN_POINT('',(67.6,265.8,79.5));
#915=CARTESIAN_POINT('',(67.6,275.6,79.5));
#916=CARTESIAN_POINT('',(66.5,275.6,79.5));
#917=CARTESIAN_POINT('',(65.4,275.6,79.5));
#918=CARTESIAN_POINT('',(65.4,285.4,79.5));
#919=CARTESIAN_POINT('',(55.6,285.4,79.5));
#920=CARTESIAN_POINT('',(55.6,186.5,79.5));
#921=CARTESIAN_POINT('',(65.4,24.9,79.5));
#922=CARTESIAN_POINT('',(65.4,34.7,79.5));
#923=CARTESIAN_POINT('',(66.5,34.7,79.5));
#924=CARTESIAN_POINT('',(67.6,34.7,79.5));
#925=CARTESIAN_POINT('',(67.6,44.5,79.5));
#926=CARTESIAN_POINT('',(45.65,186.5,79.5));
#927=CARTESIAN_POINT('',(55.6,285.4,79.5));
#928=CARTESIAN_POINT('',(55.6,186.5,79.5));
#929=CARTESIAN_POINT('',(65.4,34.7,79.5));
#930=CARTESIAN_POINT('',(67.6,34.7,79.5));
#931=CARTESIAN_POINT('',(66.5,34.7,79.5));
#932=CARTESIAN_POINT('',(67.6,275.6,117.4));
#933=CARTESIAN_POINT('',(65.4,275.6,79.5));
#934=CARTESIAN_POINT('',(66.5,275.6,79.5));
#935=CARTESIAN_POINT('',(77.4,265.8,79.5));
#936=CARTESIAN_POINT('',(77.4,44.5,117.4));
#937=CARTESIAN_POINT('',(77.4,155.15,79.5));
#938=CARTESIAN_POINT('',(67.6,265.8,79.5));
#939=CARTESIAN_POINT('',(65.4,24.9,79.5));
#940=CARTESIAN_POINT('',(67.6,44.5,79.5));
#941=CARTESIAN_POINT('',(65.4,285.4,79.5));
#942=CARTESIAN_POINT('',(5.3,186.5,89.));
#943=CARTESIAN_POINT('',(5.3,186.5,89.));
#944=CARTESIAN_POINT('',(20.4,186.5,89.));
#945=CARTESIAN_POINT('',(12.85,186.5,89.));
#946=CARTESIAN_POINT('',(20.4,186.5,89.));
#947=CARTESIAN_POINT('',(182.9,59.1,91.5));
#948=CARTESIAN_POINT('',(182.9,113.9,91.5));
#949=CARTESIAN_POINT('',(182.9,113.9,117.4));
#950=CARTESIAN_POINT('',(182.9,59.1,91.5));
#951=CARTESIAN_POINT('',(187.2,118.2,91.5));
#952=CARTESIAN_POINT('',(187.2,118.2,91.5));
#953=CARTESIAN_POINT('',(212.,118.2,91.5));
#954=CARTESIAN_POINT('',(212.,118.2,91.5));
#955=CARTESIAN_POINT('',(187.2,113.9,91.5));
#956=CARTESIAN_POINT('',(212.,59.1,91.5));
#957=CARTESIAN_POINT('',(187.2,113.9,91.5));
#958=CARTESIAN_POINT('',(101.8,232.8,64.6));
#959=CARTESIAN_POINT('',(109.3,232.8,64.6));
#960=CARTESIAN_POINT('',(101.8,232.8,64.6));
#961=CARTESIAN_POINT('',(101.8,232.8,117.45));
#962=MECHANICAL_DESIGN_GEOMETRIC_PRESENTATION_REPRESENTATION('',(#24),#963);
#963=(
GEOMETRIC_REPRESENTATION_CONTEXT(3)
GLOBAL_UNCERTAINTY_ASSIGNED_CONTEXT((#964))
GLOBAL_UNIT_ASSIGNED_CONTEXT((#970,#966,#965))
REPRESENTATION_CONTEXT('featured_part_00196','TOP_LEVEL_ASSEMBLY_PART')
);
#964=UNCERTAINTY_MEASURE_WITH_UNIT(LENGTH_MEASURE(2.E-5),#970,
'DISTANCE_ACCURACY_VALUE','Maximum Tolerance applied to model');
#965=(
NAMED_UNIT(*)
SI_UNIT($,.STERADIAN.)
SOLID_ANGLE_UNIT()
);
#966=(
CONVERSION_BASED_UNIT('DEGREE',#968)
NAMED_UNIT(#967)
PLANE_ANGLE_UNIT()
);
#967=DIMENSIONAL_EXPONENTS(0.,0.,0.,0.,0.,0.,0.);
#968=PLANE_ANGLE_MEASURE_WITH_UNIT(PLANE_ANGLE_MEASURE(0.0174532925),#969);
#969=(
NAMED_UNIT(*)
PLANE_ANGLE_UNIT()
SI_UNIT($,.RADIAN.)
);
#970=(
LENGTH_UNIT()
NAMED_UNIT(*)
SI_UNIT(.MILLI.,.METRE.)
);
ENDSEC;
END-ISO-10303-21;
