ISO-10303-21;
HEADER;
/* Generated by software containing ST-Developer
 * from STEP Tools, Inc. (www.steptools.com) 
 */
/* OPTION: using custom schema-name function */

FILE_DESCRIPTION(
/* description */ (''),
/* implementation_level */ '2;1');

FILE_NAME(
/* name */ 'featured_part_02748.stp',
/* time_stamp */ '2026-07-05T19:37:27-04:00',
/* author */ (''),
/* organization */ (''),
/* preprocessor_version */ 'ST-DEVELOPER v20.1',
/* originating_system */ 'SIEMENS PLM Software NX2512.6002',
/* authorisation */ '');

FILE_SCHEMA (('AUTOMOTIVE_DESIGN { 1 0 10303 214 3 1 1 1 }'));
ENDSEC;

DATA;
#10=SHAPE_REPRESENTATION_RELATIONSHIP('None',
'relationship between featured_part_02748-None and featured_part_02748
-None',#22,#11);
#11=ADVANCED_BREP_SHAPE_REPRESENTATION('featured_part_02748-None',(#32),
#618);
#12=SHAPE_DEFINITION_REPRESENTATION(#13,#22);
#13=PRODUCT_DEFINITION_SHAPE('','',#14);
#14=PRODUCT_DEFINITION(' ','',#16,#15);
#15=PRODUCT_DEFINITION_CONTEXT('part definition',#21,'design');
#16=PRODUCT_DEFINITION_FORMATION_WITH_SPECIFIED_SOURCE(' ',' ',#18,
 .NOT_KNOWN.);
#17=PRODUCT_RELATED_PRODUCT_CATEGORY('part','',(#18));
#18=PRODUCT('featured_part_02748','featured_part_02748',' ',(#19));
#19=PRODUCT_CONTEXT(' ',#21,'mechanical');
#20=APPLICATION_PROTOCOL_DEFINITION('international standard',
'automotive_design',2010,#21);
#21=APPLICATION_CONTEXT(
'core data for automotive mechanical design processes');
#22=SHAPE_REPRESENTATION('featured_part_02748-None',(#382),#618);
#23=PRESENTATION_LAYER_ASSIGNMENT('1','Layer 1',(#32));
#24=STYLED_ITEM('',(#25),#32);
#25=PRESENTATION_STYLE_ASSIGNMENT((#26));
#26=SURFACE_STYLE_USAGE(.BOTH.,#27);
#27=SURFACE_SIDE_STYLE('',(#28));
#28=SURFACE_STYLE_FILL_AREA(#29);
#29=FILL_AREA_STYLE('',(#30));
#30=FILL_AREA_STYLE_COLOUR('',#31);
#31=COLOUR_RGB('medium steel',0.611764705882353,0.658823529411765,0.670588235294118);
#32=MANIFOLD_SOLID_BREP('',#33);
#33=CLOSED_SHELL('',(#63,#64,#65,#66,#67,#68,#69,#70,#71,#72,#73,#74,#75,
#76,#77,#78,#79,#80,#81));
#34=CYLINDRICAL_SURFACE('',#409,14.2);
#35=CYLINDRICAL_SURFACE('',#410,14.2);
#36=CYLINDRICAL_SURFACE('',#411,14.2);
#37=CYLINDRICAL_SURFACE('',#412,14.2);
#38=CYLINDRICAL_SURFACE('',#413,8.55);
#39=CYLINDRICAL_SURFACE('',#414,8.55);
#40=FACE_BOUND('',#111,.T.);
#41=FACE_BOUND('',#112,.T.);
#42=FACE_BOUND('',#113,.T.);
#43=FACE_BOUND('',#117,.T.);
#44=FACE_BOUND('',#118,.T.);
#45=FACE_BOUND('',#119,.T.);
#46=FACE_BOUND('',#131,.T.);
#47=FACE_BOUND('',#132,.T.);
#48=FACE_BOUND('',#133,.T.);
#49=FACE_BOUND('',#134,.T.);
#50=CIRCLE('',#384,8.55);
#51=CIRCLE('',#385,14.2);
#52=CIRCLE('',#386,14.2);
#53=CIRCLE('',#387,14.2);
#54=CIRCLE('',#388,14.2);
#55=CIRCLE('',#389,8.55);
#56=CIRCLE('',#394,8.55);
#57=CIRCLE('',#395,8.55);
#58=CIRCLE('',#402,8.55);
#59=CIRCLE('',#403,14.2);
#60=CIRCLE('',#404,14.2);
#61=CIRCLE('',#405,14.2);
#62=CIRCLE('',#406,14.2);
#63=ADVANCED_FACE('',(#95),#82,.F.);
#64=ADVANCED_FACE('',(#40,#41,#42),#83,.T.);
#65=ADVANCED_FACE('',(#96),#84,.T.);
#66=ADVANCED_FACE('',(#97),#85,.T.);
#67=ADVANCED_FACE('',(#98),#86,.T.);
#68=ADVANCED_FACE('',(#43,#44,#45),#87,.T.);
#69=ADVANCED_FACE('',(#99),#88,.T.);
#70=ADVANCED_FACE('',(#100),#89,.F.);
#71=ADVANCED_FACE('',(#101),#90,.F.);
#72=ADVANCED_FACE('',(#102),#91,.F.);
#73=ADVANCED_FACE('',(#103),#92,.F.);
#74=ADVANCED_FACE('',(#104),#93,.F.);
#75=ADVANCED_FACE('',(#105),#94,.F.);
#76=ADVANCED_FACE('',(#106),#34,.F.);
#77=ADVANCED_FACE('',(#107),#35,.F.);
#78=ADVANCED_FACE('',(#108),#36,.F.);
#79=ADVANCED_FACE('',(#109),#37,.F.);
#80=ADVANCED_FACE('',(#46,#47),#38,.F.);
#81=ADVANCED_FACE('',(#48,#49),#39,.F.);
#82=PLANE('',#383);
#83=PLANE('',#390);
#84=PLANE('',#391);
#85=PLANE('',#392);
#86=PLANE('',#393);
#87=PLANE('',#396);
#88=PLANE('',#397);
#89=PLANE('',#398);
#90=PLANE('',#399);
#91=PLANE('',#400);
#92=PLANE('',#401);
#93=PLANE('',#407);
#94=PLANE('',#408);
#95=FACE_OUTER_BOUND('',#110,.T.);
#96=FACE_OUTER_BOUND('',#114,.T.);
#97=FACE_OUTER_BOUND('',#115,.T.);
#98=FACE_OUTER_BOUND('',#116,.T.);
#99=FACE_OUTER_BOUND('',#120,.T.);
#100=FACE_OUTER_BOUND('',#121,.T.);
#101=FACE_OUTER_BOUND('',#122,.T.);
#102=FACE_OUTER_BOUND('',#123,.T.);
#103=FACE_OUTER_BOUND('',#124,.T.);
#104=FACE_OUTER_BOUND('',#125,.T.);
#105=FACE_OUTER_BOUND('',#126,.T.);
#106=FACE_OUTER_BOUND('',#127,.T.);
#107=FACE_OUTER_BOUND('',#128,.T.);
#108=FACE_OUTER_BOUND('',#129,.T.);
#109=FACE_OUTER_BOUND('',#130,.T.);
#110=EDGE_LOOP('',(#135,#136,#137,#138));
#111=EDGE_LOOP('',(#139,#140,#141,#142,#143,#144,#145,#146,#147,#148));
#112=EDGE_LOOP('',(#149));
#113=EDGE_LOOP('',(#150,#151,#152,#153));
#114=EDGE_LOOP('',(#154,#155,#156,#157,#158));
#115=EDGE_LOOP('',(#159,#160,#161,#162));
#116=EDGE_LOOP('',(#163,#164,#165,#166,#167));
#117=EDGE_LOOP('',(#168));
#118=EDGE_LOOP('',(#169));
#119=EDGE_LOOP('',(#170,#171,#172,#173));
#120=EDGE_LOOP('',(#174,#175,#176,#177));
#121=EDGE_LOOP('',(#178,#179,#180,#181));
#122=EDGE_LOOP('',(#182,#183,#184,#185));
#123=EDGE_LOOP('',(#186,#187,#188,#189));
#124=EDGE_LOOP('',(#190,#191,#192,#193));
#125=EDGE_LOOP('',(#194,#195,#196,#197,#198,#199,#200,#201,#202,#203));
#126=EDGE_LOOP('',(#204,#205,#206,#207));
#127=EDGE_LOOP('',(#208,#209,#210,#211));
#128=EDGE_LOOP('',(#212,#213,#214,#215));
#129=EDGE_LOOP('',(#216,#217,#218,#219));
#130=EDGE_LOOP('',(#220,#221,#222,#223));
#131=EDGE_LOOP('',(#224));
#132=EDGE_LOOP('',(#225));
#133=EDGE_LOOP('',(#226));
#134=EDGE_LOOP('',(#227,#228,#229,#230));
#135=ORIENTED_EDGE('',*,*,#264,.T.);
#136=ORIENTED_EDGE('',*,*,#265,.T.);
#137=ORIENTED_EDGE('',*,*,#266,.T.);
#138=ORIENTED_EDGE('',*,*,#267,.T.);
#139=ORIENTED_EDGE('',*,*,#268,.F.);
#140=ORIENTED_EDGE('',*,*,#264,.F.);
#141=ORIENTED_EDGE('',*,*,#269,.T.);
#142=ORIENTED_EDGE('',*,*,#270,.F.);
#143=ORIENTED_EDGE('',*,*,#271,.T.);
#144=ORIENTED_EDGE('',*,*,#272,.F.);
#145=ORIENTED_EDGE('',*,*,#273,.T.);
#146=ORIENTED_EDGE('',*,*,#274,.F.);
#147=ORIENTED_EDGE('',*,*,#275,.T.);
#148=ORIENTED_EDGE('',*,*,#276,.F.);
#149=ORIENTED_EDGE('',*,*,#277,.F.);
#150=ORIENTED_EDGE('',*,*,#278,.F.);
#151=ORIENTED_EDGE('',*,*,#279,.T.);
#152=ORIENTED_EDGE('',*,*,#280,.F.);
#153=ORIENTED_EDGE('',*,*,#281,.F.);
#154=ORIENTED_EDGE('',*,*,#282,.T.);
#155=ORIENTED_EDGE('',*,*,#283,.T.);
#156=ORIENTED_EDGE('',*,*,#278,.T.);
#157=ORIENTED_EDGE('',*,*,#284,.F.);
#158=ORIENTED_EDGE('',*,*,#285,.T.);
#159=ORIENTED_EDGE('',*,*,#284,.T.);
#160=ORIENTED_EDGE('',*,*,#281,.T.);
#161=ORIENTED_EDGE('',*,*,#286,.F.);
#162=ORIENTED_EDGE('',*,*,#287,.T.);
#163=ORIENTED_EDGE('',*,*,#280,.T.);
#164=ORIENTED_EDGE('',*,*,#288,.T.);
#165=ORIENTED_EDGE('',*,*,#289,.F.);
#166=ORIENTED_EDGE('',*,*,#290,.T.);
#167=ORIENTED_EDGE('',*,*,#286,.T.);
#168=ORIENTED_EDGE('',*,*,#291,.F.);
#169=ORIENTED_EDGE('',*,*,#292,.F.);
#170=ORIENTED_EDGE('',*,*,#293,.F.);
#171=ORIENTED_EDGE('',*,*,#285,.F.);
#172=ORIENTED_EDGE('',*,*,#287,.F.);
#173=ORIENTED_EDGE('',*,*,#290,.F.);
#174=ORIENTED_EDGE('',*,*,#289,.T.);
#175=ORIENTED_EDGE('',*,*,#294,.T.);
#176=ORIENTED_EDGE('',*,*,#282,.F.);
#177=ORIENTED_EDGE('',*,*,#293,.T.);
#178=ORIENTED_EDGE('',*,*,#288,.F.);
#179=ORIENTED_EDGE('',*,*,#279,.F.);
#180=ORIENTED_EDGE('',*,*,#283,.F.);
#181=ORIENTED_EDGE('',*,*,#294,.F.);
#182=ORIENTED_EDGE('',*,*,#295,.T.);
#183=ORIENTED_EDGE('',*,*,#296,.T.);
#184=ORIENTED_EDGE('',*,*,#276,.T.);
#185=ORIENTED_EDGE('',*,*,#297,.T.);
#186=ORIENTED_EDGE('',*,*,#298,.T.);
#187=ORIENTED_EDGE('',*,*,#299,.T.);
#188=ORIENTED_EDGE('',*,*,#270,.T.);
#189=ORIENTED_EDGE('',*,*,#300,.T.);
#190=ORIENTED_EDGE('',*,*,#272,.T.);
#191=ORIENTED_EDGE('',*,*,#301,.T.);
#192=ORIENTED_EDGE('',*,*,#302,.T.);
#193=ORIENTED_EDGE('',*,*,#303,.T.);
#194=ORIENTED_EDGE('',*,*,#266,.F.);
#195=ORIENTED_EDGE('',*,*,#304,.T.);
#196=ORIENTED_EDGE('',*,*,#295,.F.);
#197=ORIENTED_EDGE('',*,*,#305,.T.);
#198=ORIENTED_EDGE('',*,*,#306,.F.);
#199=ORIENTED_EDGE('',*,*,#307,.T.);
#200=ORIENTED_EDGE('',*,*,#302,.F.);
#201=ORIENTED_EDGE('',*,*,#308,.T.);
#202=ORIENTED_EDGE('',*,*,#298,.F.);
#203=ORIENTED_EDGE('',*,*,#309,.T.);
#204=ORIENTED_EDGE('',*,*,#274,.T.);
#205=ORIENTED_EDGE('',*,*,#310,.T.);
#206=ORIENTED_EDGE('',*,*,#306,.T.);
#207=ORIENTED_EDGE('',*,*,#311,.T.);
#208=ORIENTED_EDGE('',*,*,#271,.F.);
#209=ORIENTED_EDGE('',*,*,#299,.F.);
#210=ORIENTED_EDGE('',*,*,#308,.F.);
#211=ORIENTED_EDGE('',*,*,#301,.F.);
#212=ORIENTED_EDGE('',*,*,#273,.F.);
#213=ORIENTED_EDGE('',*,*,#303,.F.);
#214=ORIENTED_EDGE('',*,*,#307,.F.);
#215=ORIENTED_EDGE('',*,*,#310,.F.);
#216=ORIENTED_EDGE('',*,*,#275,.F.);
#217=ORIENTED_EDGE('',*,*,#311,.F.);
#218=ORIENTED_EDGE('',*,*,#305,.F.);
#219=ORIENTED_EDGE('',*,*,#297,.F.);
#220=ORIENTED_EDGE('',*,*,#269,.F.);
#221=ORIENTED_EDGE('',*,*,#267,.F.);
#222=ORIENTED_EDGE('',*,*,#309,.F.);
#223=ORIENTED_EDGE('',*,*,#300,.F.);
#224=ORIENTED_EDGE('',*,*,#277,.T.);
#225=ORIENTED_EDGE('',*,*,#292,.T.);
#226=ORIENTED_EDGE('',*,*,#291,.T.);
#227=ORIENTED_EDGE('',*,*,#268,.T.);
#228=ORIENTED_EDGE('',*,*,#296,.F.);
#229=ORIENTED_EDGE('',*,*,#304,.F.);
#230=ORIENTED_EDGE('',*,*,#265,.F.);
#231=VERTEX_POINT('',#518);
#232=VERTEX_POINT('',#519);
#233=VERTEX_POINT('',#521);
#234=VERTEX_POINT('',#523);
#235=VERTEX_POINT('',#527);
#236=VERTEX_POINT('',#529);
#237=VERTEX_POINT('',#531);
#238=VERTEX_POINT('',#533);
#239=VERTEX_POINT('',#535);
#240=VERTEX_POINT('',#537);
#241=VERTEX_POINT('',#539);
#242=VERTEX_POINT('',#541);
#243=VERTEX_POINT('',#544);
#244=VERTEX_POINT('',#546);
#245=VERTEX_POINT('',#547);
#246=VERTEX_POINT('',#549);
#247=VERTEX_POINT('',#551);
#248=VERTEX_POINT('',#555);
#249=VERTEX_POINT('',#556);
#250=VERTEX_POINT('',#559);
#251=VERTEX_POINT('',#563);
#252=VERTEX_POINT('',#567);
#253=VERTEX_POINT('',#569);
#254=VERTEX_POINT('',#573);
#255=VERTEX_POINT('',#575);
#256=VERTEX_POINT('',#582);
#257=VERTEX_POINT('',#583);
#258=VERTEX_POINT('',#588);
#259=VERTEX_POINT('',#589);
#260=VERTEX_POINT('',#594);
#261=VERTEX_POINT('',#596);
#262=VERTEX_POINT('',#601);
#263=VERTEX_POINT('',#603);
#264=EDGE_CURVE('',#231,#232,#312,.T.);
#265=EDGE_CURVE('',#232,#233,#313,.T.);
#266=EDGE_CURVE('',#233,#234,#314,.T.);
#267=EDGE_CURVE('',#234,#231,#315,.T.);
#268=EDGE_CURVE('',#232,#235,#50,.T.);
#269=EDGE_CURVE('',#231,#236,#51,.T.);
#270=EDGE_CURVE('',#237,#236,#316,.T.);
#271=EDGE_CURVE('',#237,#238,#52,.T.);
#272=EDGE_CURVE('',#239,#238,#317,.T.);
#273=EDGE_CURVE('',#239,#240,#53,.T.);
#274=EDGE_CURVE('',#241,#240,#318,.T.);
#275=EDGE_CURVE('',#241,#242,#54,.T.);
#276=EDGE_CURVE('',#235,#242,#319,.T.);
#277=EDGE_CURVE('',#243,#243,#55,.T.);
#278=EDGE_CURVE('',#244,#245,#320,.T.);
#279=EDGE_CURVE('',#244,#246,#321,.T.);
#280=EDGE_CURVE('',#247,#246,#322,.T.);
#281=EDGE_CURVE('',#245,#247,#323,.T.);
#282=EDGE_CURVE('',#248,#249,#324,.T.);
#283=EDGE_CURVE('',#249,#244,#325,.T.);
#284=EDGE_CURVE('',#250,#245,#326,.T.);
#285=EDGE_CURVE('',#250,#248,#327,.T.);
#286=EDGE_CURVE('',#251,#247,#328,.T.);
#287=EDGE_CURVE('',#251,#250,#329,.T.);
#288=EDGE_CURVE('',#246,#252,#330,.T.);
#289=EDGE_CURVE('',#253,#252,#331,.T.);
#290=EDGE_CURVE('',#253,#251,#332,.T.);
#291=EDGE_CURVE('',#254,#254,#56,.T.);
#292=EDGE_CURVE('',#255,#255,#57,.T.);
#293=EDGE_CURVE('',#248,#253,#333,.T.);
#294=EDGE_CURVE('',#252,#249,#334,.T.);
#295=EDGE_CURVE('',#256,#257,#335,.T.);
#296=EDGE_CURVE('',#257,#235,#336,.T.);
#297=EDGE_CURVE('',#242,#256,#337,.T.);
#298=EDGE_CURVE('',#258,#259,#338,.T.);
#299=EDGE_CURVE('',#259,#237,#339,.T.);
#300=EDGE_CURVE('',#236,#258,#340,.T.);
#301=EDGE_CURVE('',#238,#260,#341,.T.);
#302=EDGE_CURVE('',#260,#261,#342,.T.);
#303=EDGE_CURVE('',#261,#239,#343,.T.);
#304=EDGE_CURVE('',#233,#257,#58,.T.);
#305=EDGE_CURVE('',#256,#262,#59,.T.);
#306=EDGE_CURVE('',#263,#262,#344,.T.);
#307=EDGE_CURVE('',#263,#261,#60,.T.);
#308=EDGE_CURVE('',#260,#259,#61,.T.);
#309=EDGE_CURVE('',#258,#234,#62,.T.);
#310=EDGE_CURVE('',#240,#263,#345,.T.);
#311=EDGE_CURVE('',#262,#241,#346,.T.);
#312=LINE('',#517,#347);
#313=LINE('',#520,#348);
#314=LINE('',#522,#349);
#315=LINE('',#524,#350);
#316=LINE('',#530,#351);
#317=LINE('',#534,#352);
#318=LINE('',#538,#353);
#319=LINE('',#542,#354);
#320=LINE('',#545,#355);
#321=LINE('',#548,#356);
#322=LINE('',#550,#357);
#323=LINE('',#552,#358);
#324=LINE('',#554,#359);
#325=LINE('',#557,#360);
#326=LINE('',#558,#361);
#327=LINE('',#560,#362);
#328=LINE('',#562,#363);
#329=LINE('',#564,#364);
#330=LINE('',#566,#365);
#331=LINE('',#568,#366);
#332=LINE('',#570,#367);
#333=LINE('',#576,#368);
#334=LINE('',#578,#369);
#335=LINE('',#581,#370);
#336=LINE('',#584,#371);
#337=LINE('',#585,#372);
#338=LINE('',#587,#373);
#339=LINE('',#590,#374);
#340=LINE('',#591,#375);
#341=LINE('',#593,#376);
#342=LINE('',#595,#377);
#343=LINE('',#597,#378);
#344=LINE('',#602,#379);
#345=LINE('',#608,#380);
#346=LINE('',#609,#381);
#347=VECTOR('',#417,1.);
#348=VECTOR('',#418,1.);
#349=VECTOR('',#419,1.);
#350=VECTOR('',#420,1.);
#351=VECTOR('',#427,1.);
#352=VECTOR('',#430,1.);
#353=VECTOR('',#433,1.);
#354=VECTOR('',#436,1.);
#355=VECTOR('',#439,1.);
#356=VECTOR('',#440,1.);
#357=VECTOR('',#441,1.);
#358=VECTOR('',#442,1.);
#359=VECTOR('',#445,1.);
#360=VECTOR('',#446,1.);
#361=VECTOR('',#447,1.);
#362=VECTOR('',#448,1.);
#363=VECTOR('',#451,1.);
#364=VECTOR('',#452,1.);
#365=VECTOR('',#455,1.);
#366=VECTOR('',#456,1.);
#367=VECTOR('',#457,1.);
#368=VECTOR('',#464,1.);
#369=VECTOR('',#467,1.);
#370=VECTOR('',#472,1.);
#371=VECTOR('',#473,1.);
#372=VECTOR('',#474,1.);
#373=VECTOR('',#477,1.);
#374=VECTOR('',#478,1.);
#375=VECTOR('',#479,1.);
#376=VECTOR('',#482,1.);
#377=VECTOR('',#483,1.);
#378=VECTOR('',#484,1.);
#379=VECTOR('',#491,1.);
#380=VECTOR('',#500,1.);
#381=VECTOR('',#501,1.);
#382=AXIS2_PLACEMENT_3D('',#516,#415,#416);
#383=AXIS2_PLACEMENT_3D('',#525,#421,#422);
#384=AXIS2_PLACEMENT_3D('',#526,#423,#424);
#385=AXIS2_PLACEMENT_3D('',#528,#425,#426);
#386=AXIS2_PLACEMENT_3D('',#532,#428,#429);
#387=AXIS2_PLACEMENT_3D('',#536,#431,#432);
#388=AXIS2_PLACEMENT_3D('',#540,#434,#435);
#389=AXIS2_PLACEMENT_3D('',#543,#437,#438);
#390=AXIS2_PLACEMENT_3D('',#553,#443,#444);
#391=AXIS2_PLACEMENT_3D('',#561,#449,#450);
#392=AXIS2_PLACEMENT_3D('',#565,#453,#454);
#393=AXIS2_PLACEMENT_3D('',#571,#458,#459);
#394=AXIS2_PLACEMENT_3D('',#572,#460,#461);
#395=AXIS2_PLACEMENT_3D('',#574,#462,#463);
#396=AXIS2_PLACEMENT_3D('',#577,#465,#466);
#397=AXIS2_PLACEMENT_3D('',#579,#468,#469);
#398=AXIS2_PLACEMENT_3D('',#580,#470,#471);
#399=AXIS2_PLACEMENT_3D('',#586,#475,#476);
#400=AXIS2_PLACEMENT_3D('',#592,#480,#481);
#401=AXIS2_PLACEMENT_3D('',#598,#485,#486);
#402=AXIS2_PLACEMENT_3D('',#599,#487,#488);
#403=AXIS2_PLACEMENT_3D('',#600,#489,#490);
#404=AXIS2_PLACEMENT_3D('',#604,#492,#493);
#405=AXIS2_PLACEMENT_3D('',#605,#494,#495);
#406=AXIS2_PLACEMENT_3D('',#606,#496,#497);
#407=AXIS2_PLACEMENT_3D('',#607,#498,#499);
#408=AXIS2_PLACEMENT_3D('',#610,#502,#503);
#409=AXIS2_PLACEMENT_3D('',#611,#504,#505);
#410=AXIS2_PLACEMENT_3D('',#612,#506,#507);
#411=AXIS2_PLACEMENT_3D('',#613,#508,#509);
#412=AXIS2_PLACEMENT_3D('',#614,#510,#511);
#413=AXIS2_PLACEMENT_3D('',#615,#512,#513);
#414=AXIS2_PLACEMENT_3D('',#616,#514,#515);
#415=DIRECTION('',(0.,0.,1.));
#416=DIRECTION('',(1.,0.,0.));
#417=DIRECTION('',(1.,0.,0.));
#418=DIRECTION('',(0.,0.,-1.));
#419=DIRECTION('',(-1.,0.,0.));
#420=DIRECTION('',(0.,0.,1.));
#421=DIRECTION('',(0.,-1.,0.));
#422=DIRECTION('',(0.,0.,-1.));
#423=DIRECTION('',(0.,0.,1.));
#424=DIRECTION('',(1.,0.,0.));
#425=DIRECTION('',(0.,0.,-1.));
#426=DIRECTION('',(1.,0.,0.));
#427=DIRECTION('',(0.,-1.,0.));
#428=DIRECTION('',(0.,0.,-1.));
#429=DIRECTION('',(1.,0.,0.));
#430=DIRECTION('',(-1.,0.,0.));
#431=DIRECTION('',(0.,0.,-1.));
#432=DIRECTION('',(0.999999999999999,0.,0.));
#433=DIRECTION('',(0.,1.,0.));
#434=DIRECTION('',(0.,0.,-1.));
#435=DIRECTION('',(0.999999999999999,0.,0.));
#436=DIRECTION('',(1.,0.,0.));
#437=DIRECTION('',(0.,0.,1.));
#438=DIRECTION('',(1.,0.,0.));
#439=DIRECTION('',(-1.,0.,0.));
#440=DIRECTION('',(0.,1.,0.));
#441=DIRECTION('',(1.,0.,0.));
#442=DIRECTION('',(0.,1.,0.));
#443=DIRECTION('',(0.,0.,1.));
#444=DIRECTION('',(1.,0.,0.));
#445=DIRECTION('',(0.,0.,1.));
#446=DIRECTION('',(-0.707106781186547,0.,0.707106781186548));
#447=DIRECTION('',(0.,0.,1.));
#448=DIRECTION('',(1.,0.,0.));
#449=DIRECTION('',(0.,-1.,0.));
#450=DIRECTION('',(0.,0.,-1.));
#451=DIRECTION('',(0.,0.,1.));
#452=DIRECTION('',(0.,-1.,0.));
#453=DIRECTION('',(-1.,0.,0.));
#454=DIRECTION('',(0.,0.,1.));
#455=DIRECTION('',(0.707106781186547,0.,-0.707106781186548));
#456=DIRECTION('',(0.,0.,1.));
#457=DIRECTION('',(-1.,0.,0.));
#458=DIRECTION('',(0.,1.,0.));
#459=DIRECTION('',(0.,0.,1.));
#460=DIRECTION('',(0.,0.,-1.));
#461=DIRECTION('',(-1.,0.,0.));
#462=DIRECTION('',(0.,0.,-1.));
#463=DIRECTION('',(-1.,0.,0.));
#464=DIRECTION('',(0.,1.,0.));
#465=DIRECTION('',(0.,0.,-1.));
#466=DIRECTION('',(-1.,0.,0.));
#467=DIRECTION('',(0.,-1.,0.));
#468=DIRECTION('',(1.,0.,0.));
#469=DIRECTION('',(0.,0.,-1.));
#470=DIRECTION('',(-0.707106781186548,0.,-0.707106781186547));
#471=DIRECTION('',(0.,-1.,0.));
#472=DIRECTION('',(-1.,0.,0.));
#473=DIRECTION('',(0.,0.,1.));
#474=DIRECTION('',(0.,0.,-1.));
#475=DIRECTION('',(0.,-1.,0.));
#476=DIRECTION('',(0.,0.,-1.));
#477=DIRECTION('',(0.,1.,0.));
#478=DIRECTION('',(0.,0.,1.));
#479=DIRECTION('',(0.,0.,-1.));
#480=DIRECTION('',(-1.,0.,0.));
#481=DIRECTION('',(0.,0.,1.));
#482=DIRECTION('',(0.,0.,-1.));
#483=DIRECTION('',(1.,0.,0.));
#484=DIRECTION('',(0.,0.,1.));
#485=DIRECTION('',(0.,1.,0.));
#486=DIRECTION('',(0.,0.,1.));
#487=DIRECTION('',(0.,0.,-1.));
#488=DIRECTION('',(-1.,0.,0.));
#489=DIRECTION('',(0.,0.,1.));
#490=DIRECTION('',(-0.999999999999999,0.,0.));
#491=DIRECTION('',(0.,-1.,0.));
#492=DIRECTION('',(0.,0.,1.));
#493=DIRECTION('',(-0.999999999999999,0.,0.));
#494=DIRECTION('',(0.,0.,1.));
#495=DIRECTION('',(-1.,0.,0.));
#496=DIRECTION('',(0.,0.,1.));
#497=DIRECTION('',(-1.,0.,0.));
#498=DIRECTION('',(0.,0.,-1.));
#499=DIRECTION('',(-1.,0.,0.));
#500=DIRECTION('',(0.,0.,-1.));
#501=DIRECTION('',(0.,0.,1.));
#502=DIRECTION('',(1.,0.,0.));
#503=DIRECTION('',(0.,0.,-1.));
#504=DIRECTION('',(0.,0.,1.));
#505=DIRECTION('',(1.,0.,0.));
#506=DIRECTION('',(0.,0.,1.));
#507=DIRECTION('',(0.999999999999999,0.,0.));
#508=DIRECTION('',(0.,0.,1.));
#509=DIRECTION('',(0.999999999999999,0.,0.));
#510=DIRECTION('',(0.,0.,1.));
#511=DIRECTION('',(1.,0.,0.));
#512=DIRECTION('',(0.,0.,-1.));
#513=DIRECTION('',(1.,0.,0.));
#514=DIRECTION('',(0.,0.,-1.));
#515=DIRECTION('',(1.,0.,0.));
#516=CARTESIAN_POINT('',(0.,0.,0.));
#517=CARTESIAN_POINT('',(231.85,69.2,82.6));
#518=CARTESIAN_POINT('',(123.3,69.2,82.6));
#519=CARTESIAN_POINT('',(163.252339501361,69.2,82.6));
#520=CARTESIAN_POINT('',(163.252339501361,69.2,82.65));
#521=CARTESIAN_POINT('',(163.252339501361,69.2,70.3));
#522=CARTESIAN_POINT('',(181.4,69.2,70.3));
#523=CARTESIAN_POINT('',(123.3,69.2,70.3));
#524=CARTESIAN_POINT('',(123.3,69.2,82.6));
#525=CARTESIAN_POINT('',(181.4,69.2,70.3));
#526=CARTESIAN_POINT('',(171.8,69.4,82.6));
#527=CARTESIAN_POINT('',(180.347660498639,69.2,82.6));
#528=CARTESIAN_POINT('',(123.3,83.4,82.6));
#529=CARTESIAN_POINT('',(109.1,83.4,82.6));
#530=CARTESIAN_POINT('',(109.1,100.6,82.6));
#531=CARTESIAN_POINT('',(109.1,141.3,82.6));
#532=CARTESIAN_POINT('',(123.3,141.3,82.6));
#533=CARTESIAN_POINT('',(123.3,155.5,82.6));
#534=CARTESIAN_POINT('',(231.85,155.5,82.6));
#535=CARTESIAN_POINT('',(239.5,155.5,82.6));
#536=CARTESIAN_POINT('',(239.5,141.3,82.6));
#537=CARTESIAN_POINT('',(253.7,141.3,82.6));
#538=CARTESIAN_POINT('',(253.7,100.6,82.6));
#539=CARTESIAN_POINT('',(253.7,83.4,82.6));
#540=CARTESIAN_POINT('',(239.5,83.4,82.6));
#541=CARTESIAN_POINT('',(239.5,69.2,82.6));
#542=CARTESIAN_POINT('',(231.85,69.2,82.6));
#543=CARTESIAN_POINT('',(291.9,131.8,82.6));
#544=CARTESIAN_POINT('',(300.45,131.8,82.6));
#545=CARTESIAN_POINT('',(231.85,0.,82.6));
#546=CARTESIAN_POINT('',(447.9,0.,82.6));
#547=CARTESIAN_POINT('',(0.,0.,82.6));
#548=CARTESIAN_POINT('',(447.9,100.6,82.6));
#549=CARTESIAN_POINT('',(447.9,201.2,82.6));
#550=CARTESIAN_POINT('',(231.85,201.2,82.6));
#551=CARTESIAN_POINT('',(0.,201.2,82.6));
#552=CARTESIAN_POINT('',(0.,100.6,82.6));
#553=CARTESIAN_POINT('',(231.85,100.6,82.6));
#554=CARTESIAN_POINT('',(463.7,0.,0.));
#555=CARTESIAN_POINT('',(463.7,0.,0.));
#556=CARTESIAN_POINT('',(463.7,0.,66.8));
#557=CARTESIAN_POINT('',(381.175,0.,149.325));
#558=CARTESIAN_POINT('',(0.,0.,0.));
#559=CARTESIAN_POINT('',(0.,0.,0.));
#560=CARTESIAN_POINT('',(231.85,0.,0.));
#561=CARTESIAN_POINT('',(231.85,0.,0.));
#562=CARTESIAN_POINT('',(0.,201.2,0.));
#563=CARTESIAN_POINT('',(0.,201.2,0.));
#564=CARTESIAN_POINT('',(0.,100.6,0.));
#565=CARTESIAN_POINT('',(0.,100.6,0.));
#566=CARTESIAN_POINT('',(381.175,201.2,149.325));
#567=CARTESIAN_POINT('',(463.7,201.2,66.8));
#568=CARTESIAN_POINT('',(463.7,201.2,0.));
#569=CARTESIAN_POINT('',(463.7,201.2,0.));
#570=CARTESIAN_POINT('',(231.85,201.2,0.));
#571=CARTESIAN_POINT('',(231.85,201.2,0.));
#572=CARTESIAN_POINT('',(171.8,69.4,0.));
#573=CARTESIAN_POINT('',(163.25,69.4,0.));
#574=CARTESIAN_POINT('',(291.9,131.8,0.));
#575=CARTESIAN_POINT('',(283.35,131.8,0.));
#576=CARTESIAN_POINT('',(463.7,100.6,0.));
#577=CARTESIAN_POINT('',(231.85,100.6,0.));
#578=CARTESIAN_POINT('',(463.7,100.6,66.8));
#579=CARTESIAN_POINT('',(463.7,100.6,0.));
#580=CARTESIAN_POINT('',(463.7,100.6,66.8));
#581=CARTESIAN_POINT('',(181.4,69.2,70.3));
#582=CARTESIAN_POINT('',(239.5,69.2,70.3));
#583=CARTESIAN_POINT('',(180.347660498639,69.2,70.3));
#584=CARTESIAN_POINT('',(180.347660498639,69.2,82.65));
#585=CARTESIAN_POINT('',(239.5,69.2,70.3));
#586=CARTESIAN_POINT('',(181.4,69.2,70.3));
#587=CARTESIAN_POINT('',(109.1,112.35,70.3));
#588=CARTESIAN_POINT('',(109.1,83.4,70.3));
#589=CARTESIAN_POINT('',(109.1,141.3,70.3));
#590=CARTESIAN_POINT('',(109.1,141.3,82.6));
#591=CARTESIAN_POINT('',(109.1,83.4,70.3));
#592=CARTESIAN_POINT('',(109.1,112.35,70.3));
#593=CARTESIAN_POINT('',(123.3,155.5,70.3));
#594=CARTESIAN_POINT('',(123.3,155.5,70.3));
#595=CARTESIAN_POINT('',(181.4,155.5,70.3));
#596=CARTESIAN_POINT('',(239.5,155.5,70.3));
#597=CARTESIAN_POINT('',(239.5,155.5,82.6));
#598=CARTESIAN_POINT('',(181.4,155.5,70.3));
#599=CARTESIAN_POINT('',(171.8,69.4,70.3));
#600=CARTESIAN_POINT('',(239.5,83.4,70.3));
#601=CARTESIAN_POINT('',(253.7,83.4,70.3));
#602=CARTESIAN_POINT('',(253.7,112.35,70.3));
#603=CARTESIAN_POINT('',(253.7,141.3,70.3));
#604=CARTESIAN_POINT('',(239.5,141.3,70.3));
#605=CARTESIAN_POINT('',(123.3,141.3,70.3));
#606=CARTESIAN_POINT('',(123.3,83.4,70.3));
#607=CARTESIAN_POINT('',(181.4,112.35,70.3));
#608=CARTESIAN_POINT('',(253.7,141.3,70.3));
#609=CARTESIAN_POINT('',(253.7,83.4,82.6));
#610=CARTESIAN_POINT('',(253.7,112.35,70.3));
#611=CARTESIAN_POINT('',(123.3,141.3,70.3));
#612=CARTESIAN_POINT('',(239.5,141.3,70.3));
#613=CARTESIAN_POINT('',(239.5,83.4,70.3));
#614=CARTESIAN_POINT('',(123.3,83.4,70.3));
#615=CARTESIAN_POINT('',(291.9,131.8,82.65));
#616=CARTESIAN_POINT('',(171.8,69.4,82.65));
#617=MECHANICAL_DESIGN_GEOMETRIC_PRESENTATION_REPRESENTATION('',(#24),#618);
#618=(
GEOMETRIC_REPRESENTATION_CONTEXT(3)
GLOBAL_UNCERTAINTY_ASSIGNED_CONTEXT((#619))
GLOBAL_UNIT_ASSIGNED_CONTEXT((#625,#621,#620))
REPRESENTATION_CONTEXT('featured_part_02748','TOP_LEVEL_ASSEMBLY_PART')
);
#619=UNCERTAINTY_MEASURE_WITH_UNIT(LENGTH_MEASURE(2.E-5),#625,
'DISTANCE_ACCURACY_VALUE','Maximum Tolerance applied to model');
#620=(
NAMED_UNIT(*)
SI_UNIT($,.STERADIAN.)
SOLID_ANGLE_UNIT()
);
#621=(
CONVERSION_BASED_UNIT('DEGREE',#623)
NAMED_UNIT(#622)
PLANE_ANGLE_UNIT()
);
#622=DIMENSIONAL_EXPONENTS(0.,0.,0.,0.,0.,0.,0.);
#623=PLANE_ANGLE_MEASURE_WITH_UNIT(PLANE_ANGLE_MEASURE(0.0174532925),#624);
#624=(
NAMED_UNIT(*)
PLANE_ANGLE_UNIT()
SI_UNIT($,.RADIAN.)
);
#625=(
LENGTH_UNIT()
NAMED_UNIT(*)
SI_UNIT(.MILLI.,.METRE.)
);
ENDSEC;
END-ISO-10303-21;
