ISO-10303-21;
HEADER;
/* Generated by software containing ST-Developer
 * from STEP Tools, Inc. (www.steptools.com) 
 */
/* OPTION: using custom schema-name function */

FILE_DESCRIPTION(
/* description */ (''),
/* implementation_level */ '2;1');

FILE_NAME(
/* name */ 'featured_part_09899.stp',
/* time_stamp */ '2026-07-11T19:42:09-04:00',
/* author */ (''),
/* organization */ (''),
/* preprocessor_version */ 'ST-DEVELOPER v20.1',
/* originating_system */ 'SIEMENS PLM Software NX2512.6002',
/* authorisation */ '');

FILE_SCHEMA (('AUTOMOTIVE_DESIGN { 1 0 10303 214 3 1 1 1 }'));
ENDSEC;

DATA;
#10=SHAPE_REPRESENTATION_RELATIONSHIP('None',
'relationship between featured_part_09899-None and featured_part_09899
-None',#22,#11);
#11=ADVANCED_BREP_SHAPE_REPRESENTATION('featured_part_09899-None',(#32),
#1059);
#12=SHAPE_DEFINITION_REPRESENTATION(#13,#22);
#13=PRODUCT_DEFINITION_SHAPE('','',#14);
#14=PRODUCT_DEFINITION(' ','',#16,#15);
#15=PRODUCT_DEFINITION_CONTEXT('part definition',#21,'design');
#16=PRODUCT_DEFINITION_FORMATION_WITH_SPECIFIED_SOURCE(' ',' ',#18,
 .NOT_KNOWN.);
#17=PRODUCT_RELATED_PRODUCT_CATEGORY('part','',(#18));
#18=PRODUCT('featured_part_09899','featured_part_09899',' ',(#19));
#19=PRODUCT_CONTEXT(' ',#21,'mechanical');
#20=APPLICATION_PROTOCOL_DEFINITION('international standard',
'automotive_design',2010,#21);
#21=APPLICATION_CONTEXT(
'core data for automotive mechanical design processes');
#22=SHAPE_REPRESENTATION('featured_part_09899-None',(#644),#1059);
#23=PRESENTATION_LAYER_ASSIGNMENT('1','Layer 1',(#32));
#24=STYLED_ITEM('',(#25),#32);
#25=PRESENTATION_STYLE_ASSIGNMENT((#26));
#26=SURFACE_STYLE_USAGE(.BOTH.,#27);
#27=SURFACE_SIDE_STYLE('',(#28));
#28=SURFACE_STYLE_FILL_AREA(#29);
#29=FILL_AREA_STYLE('',(#30));
#30=FILL_AREA_STYLE_COLOUR('',#31);
#31=COLOUR_RGB('medium steel',0.611764705882353,0.658823529411765,0.670588235294118);
#32=MANIFOLD_SOLID_BREP('',#33);
#33=CLOSED_SHELL('',(#78,#79,#80,#81,#82,#83,#84,#85,#86,#87,#88,#89,#90,
#91,#92,#93,#94,#95,#96,#97,#98,#99,#100,#101,#102,#103,#104,#105,#106,
#107,#108,#109,#110,#111,#112));
#34=CYLINDRICAL_SURFACE('',#678,13.5);
#35=CYLINDRICAL_SURFACE('',#679,13.5);
#36=CYLINDRICAL_SURFACE('',#680,13.5);
#37=CYLINDRICAL_SURFACE('',#681,13.5);
#38=CYLINDRICAL_SURFACE('',#688,11.7);
#39=CYLINDRICAL_SURFACE('',#689,11.7);
#40=CYLINDRICAL_SURFACE('',#692,8.6);
#41=CYLINDRICAL_SURFACE('',#695,8.6);
#42=CYLINDRICAL_SURFACE('',#697,8.6);
#43=CYLINDRICAL_SURFACE('',#701,8.6);
#44=ELLIPSE('',#664,12.1622366364086,8.6);
#45=FACE_BOUND('',#170,.T.);
#46=FACE_BOUND('',#171,.T.);
#47=FACE_BOUND('',#172,.T.);
#48=FACE_BOUND('',#173,.T.);
#49=FACE_BOUND('',#199,.T.);
#50=FACE_BOUND('',#200,.T.);
#51=FACE_BOUND('',#202,.T.);
#52=FACE_BOUND('',#203,.T.);
#53=FACE_BOUND('',#204,.T.);
#54=FACE_BOUND('',#205,.T.);
#55=FACE_BOUND('',#208,.T.);
#56=FACE_BOUND('',#209,.T.);
#57=CIRCLE('',#647,8.6);
#58=CIRCLE('',#648,8.6);
#59=CIRCLE('',#649,13.5);
#60=CIRCLE('',#650,13.5);
#61=CIRCLE('',#651,13.5);
#62=CIRCLE('',#652,13.5);
#63=CIRCLE('',#653,8.6);
#64=CIRCLE('',#654,8.6);
#65=CIRCLE('',#655,11.7);
#66=CIRCLE('',#656,11.7);
#67=CIRCLE('',#671,8.6);
#68=CIRCLE('',#672,13.5);
#69=CIRCLE('',#673,13.5);
#70=CIRCLE('',#674,13.5);
#71=CIRCLE('',#675,13.5);
#72=CIRCLE('',#684,11.7);
#73=CIRCLE('',#685,11.7);
#74=CIRCLE('',#690,8.6);
#75=CIRCLE('',#693,8.6);
#76=CIRCLE('',#696,8.6);
#77=CIRCLE('',#699,8.6);
#78=ADVANCED_FACE('',(#138),#113,.F.);
#79=ADVANCED_FACE('',(#139),#114,.F.);
#80=ADVANCED_FACE('',(#45,#46,#47,#48),#115,.T.);
#81=ADVANCED_FACE('',(#140),#116,.T.);
#82=ADVANCED_FACE('',(#141),#117,.T.);
#83=ADVANCED_FACE('',(#142),#118,.T.);
#84=ADVANCED_FACE('',(#143),#119,.T.);
#85=ADVANCED_FACE('',(#144),#120,.T.);
#86=ADVANCED_FACE('',(#145),#121,.F.);
#87=ADVANCED_FACE('',(#146),#122,.F.);
#88=ADVANCED_FACE('',(#147),#123,.F.);
#89=ADVANCED_FACE('',(#148),#124,.F.);
#90=ADVANCED_FACE('',(#149),#125,.F.);
#91=ADVANCED_FACE('',(#150),#126,.F.);
#92=ADVANCED_FACE('',(#151),#127,.F.);
#93=ADVANCED_FACE('',(#152),#128,.F.);
#94=ADVANCED_FACE('',(#153),#129,.F.);
#95=ADVANCED_FACE('',(#154),#34,.F.);
#96=ADVANCED_FACE('',(#155),#35,.F.);
#97=ADVANCED_FACE('',(#156),#36,.F.);
#98=ADVANCED_FACE('',(#157),#37,.F.);
#99=ADVANCED_FACE('',(#158),#130,.F.);
#100=ADVANCED_FACE('',(#159),#131,.F.);
#101=ADVANCED_FACE('',(#160),#132,.F.);
#102=ADVANCED_FACE('',(#161),#133,.F.);
#103=ADVANCED_FACE('',(#162),#38,.F.);
#104=ADVANCED_FACE('',(#163),#39,.F.);
#105=ADVANCED_FACE('',(#164),#134,.F.);
#106=ADVANCED_FACE('',(#49,#50),#40,.F.);
#107=ADVANCED_FACE('',(#165),#135,.F.);
#108=ADVANCED_FACE('',(#51,#52),#41,.F.);
#109=ADVANCED_FACE('',(#53,#54),#42,.F.);
#110=ADVANCED_FACE('',(#166),#136,.F.);
#111=ADVANCED_FACE('',(#167),#137,.F.);
#112=ADVANCED_FACE('',(#55,#56),#43,.F.);
#113=PLANE('',#645);
#114=PLANE('',#646);
#115=PLANE('',#657);
#116=PLANE('',#658);
#117=PLANE('',#659);
#118=PLANE('',#660);
#119=PLANE('',#661);
#120=PLANE('',#662);
#121=PLANE('',#663);
#122=PLANE('',#665);
#123=PLANE('',#666);
#124=PLANE('',#667);
#125=PLANE('',#668);
#126=PLANE('',#669);
#127=PLANE('',#670);
#128=PLANE('',#676);
#129=PLANE('',#677);
#130=PLANE('',#682);
#131=PLANE('',#683);
#132=PLANE('',#686);
#133=PLANE('',#687);
#134=PLANE('',#691);
#135=PLANE('',#694);
#136=PLANE('',#698);
#137=PLANE('',#700);
#138=FACE_OUTER_BOUND('',#168,.T.);
#139=FACE_OUTER_BOUND('',#169,.T.);
#140=FACE_OUTER_BOUND('',#174,.T.);
#141=FACE_OUTER_BOUND('',#175,.T.);
#142=FACE_OUTER_BOUND('',#176,.T.);
#143=FACE_OUTER_BOUND('',#177,.T.);
#144=FACE_OUTER_BOUND('',#178,.T.);
#145=FACE_OUTER_BOUND('',#179,.T.);
#146=FACE_OUTER_BOUND('',#180,.T.);
#147=FACE_OUTER_BOUND('',#181,.T.);
#148=FACE_OUTER_BOUND('',#182,.T.);
#149=FACE_OUTER_BOUND('',#183,.T.);
#150=FACE_OUTER_BOUND('',#184,.T.);
#151=FACE_OUTER_BOUND('',#185,.T.);
#152=FACE_OUTER_BOUND('',#186,.T.);
#153=FACE_OUTER_BOUND('',#187,.T.);
#154=FACE_OUTER_BOUND('',#188,.T.);
#155=FACE_OUTER_BOUND('',#189,.T.);
#156=FACE_OUTER_BOUND('',#190,.T.);
#157=FACE_OUTER_BOUND('',#191,.T.);
#158=FACE_OUTER_BOUND('',#192,.T.);
#159=FACE_OUTER_BOUND('',#193,.T.);
#160=FACE_OUTER_BOUND('',#194,.T.);
#161=FACE_OUTER_BOUND('',#195,.T.);
#162=FACE_OUTER_BOUND('',#196,.T.);
#163=FACE_OUTER_BOUND('',#197,.T.);
#164=FACE_OUTER_BOUND('',#198,.T.);
#165=FACE_OUTER_BOUND('',#201,.T.);
#166=FACE_OUTER_BOUND('',#206,.T.);
#167=FACE_OUTER_BOUND('',#207,.T.);
#168=EDGE_LOOP('',(#210,#211,#212,#213));
#169=EDGE_LOOP('',(#214,#215,#216,#217));
#170=EDGE_LOOP('',(#218));
#171=EDGE_LOOP('',(#219,#220,#221,#222,#223,#224,#225,#226,#227,#228));
#172=EDGE_LOOP('',(#229));
#173=EDGE_LOOP('',(#230,#231,#232,#233,#234,#235,#236,#237,#238,#239,#240,
#241));
#174=EDGE_LOOP('',(#242,#243,#244,#245));
#175=EDGE_LOOP('',(#246,#247,#248,#249,#250,#251,#252,#253,#254));
#176=EDGE_LOOP('',(#255,#256,#257,#258,#259));
#177=EDGE_LOOP('',(#260,#261,#262,#263));
#178=EDGE_LOOP('',(#264,#265,#266,#267,#268,#269));
#179=EDGE_LOOP('',(#270,#271,#272,#273,#274));
#180=EDGE_LOOP('',(#275,#276,#277,#278,#279,#280,#281,#282));
#181=EDGE_LOOP('',(#283,#284,#285,#286));
#182=EDGE_LOOP('',(#287,#288,#289,#290,#291));
#183=EDGE_LOOP('',(#292,#293,#294,#295));
#184=EDGE_LOOP('',(#296,#297,#298,#299));
#185=EDGE_LOOP('',(#300,#301,#302,#303));
#186=EDGE_LOOP('',(#304,#305,#306,#307,#308,#309,#310,#311,#312,#313));
#187=EDGE_LOOP('',(#314,#315,#316,#317));
#188=EDGE_LOOP('',(#318,#319,#320,#321));
#189=EDGE_LOOP('',(#322,#323,#324,#325));
#190=EDGE_LOOP('',(#326,#327,#328,#329));
#191=EDGE_LOOP('',(#330,#331,#332,#333));
#192=EDGE_LOOP('',(#334,#335,#336,#337,#338));
#193=EDGE_LOOP('',(#339,#340,#341,#342,#343));
#194=EDGE_LOOP('',(#344,#345,#346,#347,#348,#349));
#195=EDGE_LOOP('',(#350,#351,#352,#353));
#196=EDGE_LOOP('',(#354,#355,#356,#357));
#197=EDGE_LOOP('',(#358,#359,#360,#361));
#198=EDGE_LOOP('',(#362));
#199=EDGE_LOOP('',(#363,#364));
#200=EDGE_LOOP('',(#365));
#201=EDGE_LOOP('',(#366));
#202=EDGE_LOOP('',(#367));
#203=EDGE_LOOP('',(#368));
#204=EDGE_LOOP('',(#369));
#205=EDGE_LOOP('',(#370,#371,#372,#373));
#206=EDGE_LOOP('',(#374));
#207=EDGE_LOOP('',(#375));
#208=EDGE_LOOP('',(#376));
#209=EDGE_LOOP('',(#377));
#210=ORIENTED_EDGE('',*,*,#436,.T.);
#211=ORIENTED_EDGE('',*,*,#437,.T.);
#212=ORIENTED_EDGE('',*,*,#438,.T.);
#213=ORIENTED_EDGE('',*,*,#439,.T.);
#214=ORIENTED_EDGE('',*,*,#440,.F.);
#215=ORIENTED_EDGE('',*,*,#441,.F.);
#216=ORIENTED_EDGE('',*,*,#442,.F.);
#217=ORIENTED_EDGE('',*,*,#443,.F.);
#218=ORIENTED_EDGE('',*,*,#444,.F.);
#219=ORIENTED_EDGE('',*,*,#445,.F.);
#220=ORIENTED_EDGE('',*,*,#436,.F.);
#221=ORIENTED_EDGE('',*,*,#446,.T.);
#222=ORIENTED_EDGE('',*,*,#447,.F.);
#223=ORIENTED_EDGE('',*,*,#448,.T.);
#224=ORIENTED_EDGE('',*,*,#449,.F.);
#225=ORIENTED_EDGE('',*,*,#450,.T.);
#226=ORIENTED_EDGE('',*,*,#451,.F.);
#227=ORIENTED_EDGE('',*,*,#452,.T.);
#228=ORIENTED_EDGE('',*,*,#453,.F.);
#229=ORIENTED_EDGE('',*,*,#454,.F.);
#230=ORIENTED_EDGE('',*,*,#455,.F.);
#231=ORIENTED_EDGE('',*,*,#456,.T.);
#232=ORIENTED_EDGE('',*,*,#457,.T.);
#233=ORIENTED_EDGE('',*,*,#458,.T.);
#234=ORIENTED_EDGE('',*,*,#459,.T.);
#235=ORIENTED_EDGE('',*,*,#460,.F.);
#236=ORIENTED_EDGE('',*,*,#461,.T.);
#237=ORIENTED_EDGE('',*,*,#462,.F.);
#238=ORIENTED_EDGE('',*,*,#463,.T.);
#239=ORIENTED_EDGE('',*,*,#464,.F.);
#240=ORIENTED_EDGE('',*,*,#443,.T.);
#241=ORIENTED_EDGE('',*,*,#465,.T.);
#242=ORIENTED_EDGE('',*,*,#466,.T.);
#243=ORIENTED_EDGE('',*,*,#467,.T.);
#244=ORIENTED_EDGE('',*,*,#468,.F.);
#245=ORIENTED_EDGE('',*,*,#469,.T.);
#246=ORIENTED_EDGE('',*,*,#470,.F.);
#247=ORIENTED_EDGE('',*,*,#471,.F.);
#248=ORIENTED_EDGE('',*,*,#472,.T.);
#249=ORIENTED_EDGE('',*,*,#473,.T.);
#250=ORIENTED_EDGE('',*,*,#474,.F.);
#251=ORIENTED_EDGE('',*,*,#475,.T.);
#252=ORIENTED_EDGE('',*,*,#468,.T.);
#253=ORIENTED_EDGE('',*,*,#476,.T.);
#254=ORIENTED_EDGE('',*,*,#441,.T.);
#255=ORIENTED_EDGE('',*,*,#474,.T.);
#256=ORIENTED_EDGE('',*,*,#477,.T.);
#257=ORIENTED_EDGE('',*,*,#478,.T.);
#258=ORIENTED_EDGE('',*,*,#479,.F.);
#259=ORIENTED_EDGE('',*,*,#480,.T.);
#260=ORIENTED_EDGE('',*,*,#481,.F.);
#261=ORIENTED_EDGE('',*,*,#469,.F.);
#262=ORIENTED_EDGE('',*,*,#475,.F.);
#263=ORIENTED_EDGE('',*,*,#480,.F.);
#264=ORIENTED_EDGE('',*,*,#482,.T.);
#265=ORIENTED_EDGE('',*,*,#483,.T.);
#266=ORIENTED_EDGE('',*,*,#484,.T.);
#267=ORIENTED_EDGE('',*,*,#466,.F.);
#268=ORIENTED_EDGE('',*,*,#481,.T.);
#269=ORIENTED_EDGE('',*,*,#479,.T.);
#270=ORIENTED_EDGE('',*,*,#478,.F.);
#271=ORIENTED_EDGE('',*,*,#485,.T.);
#272=ORIENTED_EDGE('',*,*,#458,.F.);
#273=ORIENTED_EDGE('',*,*,#486,.T.);
#274=ORIENTED_EDGE('',*,*,#482,.F.);
#275=ORIENTED_EDGE('',*,*,#487,.F.);
#276=ORIENTED_EDGE('',*,*,#465,.F.);
#277=ORIENTED_EDGE('',*,*,#442,.T.);
#278=ORIENTED_EDGE('',*,*,#476,.F.);
#279=ORIENTED_EDGE('',*,*,#467,.F.);
#280=ORIENTED_EDGE('',*,*,#484,.F.);
#281=ORIENTED_EDGE('',*,*,#488,.T.);
#282=ORIENTED_EDGE('',*,*,#456,.F.);
#283=ORIENTED_EDGE('',*,*,#486,.F.);
#284=ORIENTED_EDGE('',*,*,#457,.F.);
#285=ORIENTED_EDGE('',*,*,#488,.F.);
#286=ORIENTED_EDGE('',*,*,#483,.F.);
#287=ORIENTED_EDGE('',*,*,#489,.F.);
#288=ORIENTED_EDGE('',*,*,#459,.F.);
#289=ORIENTED_EDGE('',*,*,#485,.F.);
#290=ORIENTED_EDGE('',*,*,#477,.F.);
#291=ORIENTED_EDGE('',*,*,#473,.F.);
#292=ORIENTED_EDGE('',*,*,#447,.T.);
#293=ORIENTED_EDGE('',*,*,#490,.T.);
#294=ORIENTED_EDGE('',*,*,#491,.T.);
#295=ORIENTED_EDGE('',*,*,#492,.T.);
#296=ORIENTED_EDGE('',*,*,#493,.T.);
#297=ORIENTED_EDGE('',*,*,#494,.T.);
#298=ORIENTED_EDGE('',*,*,#449,.T.);
#299=ORIENTED_EDGE('',*,*,#495,.T.);
#300=ORIENTED_EDGE('',*,*,#496,.T.);
#301=ORIENTED_EDGE('',*,*,#497,.T.);
#302=ORIENTED_EDGE('',*,*,#451,.T.);
#303=ORIENTED_EDGE('',*,*,#498,.T.);
#304=ORIENTED_EDGE('',*,*,#438,.F.);
#305=ORIENTED_EDGE('',*,*,#499,.T.);
#306=ORIENTED_EDGE('',*,*,#500,.F.);
#307=ORIENTED_EDGE('',*,*,#501,.T.);
#308=ORIENTED_EDGE('',*,*,#496,.F.);
#309=ORIENTED_EDGE('',*,*,#502,.T.);
#310=ORIENTED_EDGE('',*,*,#493,.F.);
#311=ORIENTED_EDGE('',*,*,#503,.T.);
#312=ORIENTED_EDGE('',*,*,#491,.F.);
#313=ORIENTED_EDGE('',*,*,#504,.T.);
#314=ORIENTED_EDGE('',*,*,#500,.T.);
#315=ORIENTED_EDGE('',*,*,#505,.T.);
#316=ORIENTED_EDGE('',*,*,#453,.T.);
#317=ORIENTED_EDGE('',*,*,#506,.T.);
#318=ORIENTED_EDGE('',*,*,#446,.F.);
#319=ORIENTED_EDGE('',*,*,#439,.F.);
#320=ORIENTED_EDGE('',*,*,#504,.F.);
#321=ORIENTED_EDGE('',*,*,#490,.F.);
#322=ORIENTED_EDGE('',*,*,#452,.F.);
#323=ORIENTED_EDGE('',*,*,#497,.F.);
#324=ORIENTED_EDGE('',*,*,#501,.F.);
#325=ORIENTED_EDGE('',*,*,#506,.F.);
#326=ORIENTED_EDGE('',*,*,#450,.F.);
#327=ORIENTED_EDGE('',*,*,#494,.F.);
#328=ORIENTED_EDGE('',*,*,#502,.F.);
#329=ORIENTED_EDGE('',*,*,#498,.F.);
#330=ORIENTED_EDGE('',*,*,#448,.F.);
#331=ORIENTED_EDGE('',*,*,#492,.F.);
#332=ORIENTED_EDGE('',*,*,#503,.F.);
#333=ORIENTED_EDGE('',*,*,#495,.F.);
#334=ORIENTED_EDGE('',*,*,#464,.T.);
#335=ORIENTED_EDGE('',*,*,#507,.T.);
#336=ORIENTED_EDGE('',*,*,#508,.T.);
#337=ORIENTED_EDGE('',*,*,#470,.T.);
#338=ORIENTED_EDGE('',*,*,#440,.T.);
#339=ORIENTED_EDGE('',*,*,#509,.T.);
#340=ORIENTED_EDGE('',*,*,#510,.T.);
#341=ORIENTED_EDGE('',*,*,#460,.T.);
#342=ORIENTED_EDGE('',*,*,#489,.T.);
#343=ORIENTED_EDGE('',*,*,#472,.F.);
#344=ORIENTED_EDGE('',*,*,#508,.F.);
#345=ORIENTED_EDGE('',*,*,#511,.T.);
#346=ORIENTED_EDGE('',*,*,#512,.F.);
#347=ORIENTED_EDGE('',*,*,#513,.T.);
#348=ORIENTED_EDGE('',*,*,#509,.F.);
#349=ORIENTED_EDGE('',*,*,#471,.T.);
#350=ORIENTED_EDGE('',*,*,#512,.T.);
#351=ORIENTED_EDGE('',*,*,#514,.T.);
#352=ORIENTED_EDGE('',*,*,#462,.T.);
#353=ORIENTED_EDGE('',*,*,#515,.T.);
#354=ORIENTED_EDGE('',*,*,#463,.F.);
#355=ORIENTED_EDGE('',*,*,#514,.F.);
#356=ORIENTED_EDGE('',*,*,#511,.F.);
#357=ORIENTED_EDGE('',*,*,#507,.F.);
#358=ORIENTED_EDGE('',*,*,#461,.F.);
#359=ORIENTED_EDGE('',*,*,#510,.F.);
#360=ORIENTED_EDGE('',*,*,#513,.F.);
#361=ORIENTED_EDGE('',*,*,#515,.F.);
#362=ORIENTED_EDGE('',*,*,#516,.F.);
#363=ORIENTED_EDGE('',*,*,#455,.T.);
#364=ORIENTED_EDGE('',*,*,#487,.T.);
#365=ORIENTED_EDGE('',*,*,#516,.T.);
#366=ORIENTED_EDGE('',*,*,#517,.F.);
#367=ORIENTED_EDGE('',*,*,#454,.T.);
#368=ORIENTED_EDGE('',*,*,#517,.T.);
#369=ORIENTED_EDGE('',*,*,#518,.T.);
#370=ORIENTED_EDGE('',*,*,#445,.T.);
#371=ORIENTED_EDGE('',*,*,#505,.F.);
#372=ORIENTED_EDGE('',*,*,#499,.F.);
#373=ORIENTED_EDGE('',*,*,#437,.F.);
#374=ORIENTED_EDGE('',*,*,#518,.F.);
#375=ORIENTED_EDGE('',*,*,#519,.F.);
#376=ORIENTED_EDGE('',*,*,#444,.T.);
#377=ORIENTED_EDGE('',*,*,#519,.T.);
#378=VERTEX_POINT('',#882);
#379=VERTEX_POINT('',#883);
#380=VERTEX_POINT('',#885);
#381=VERTEX_POINT('',#887);
#382=VERTEX_POINT('',#891);
#383=VERTEX_POINT('',#892);
#384=VERTEX_POINT('',#894);
#385=VERTEX_POINT('',#896);
#386=VERTEX_POINT('',#900);
#387=VERTEX_POINT('',#902);
#388=VERTEX_POINT('',#904);
#389=VERTEX_POINT('',#906);
#390=VERTEX_POINT('',#908);
#391=VERTEX_POINT('',#910);
#392=VERTEX_POINT('',#912);
#393=VERTEX_POINT('',#914);
#394=VERTEX_POINT('',#916);
#395=VERTEX_POINT('',#919);
#396=VERTEX_POINT('',#921);
#397=VERTEX_POINT('',#922);
#398=VERTEX_POINT('',#924);
#399=VERTEX_POINT('',#926);
#400=VERTEX_POINT('',#928);
#401=VERTEX_POINT('',#930);
#402=VERTEX_POINT('',#932);
#403=VERTEX_POINT('',#934);
#404=VERTEX_POINT('',#936);
#405=VERTEX_POINT('',#938);
#406=VERTEX_POINT('',#943);
#407=VERTEX_POINT('',#944);
#408=VERTEX_POINT('',#946);
#409=VERTEX_POINT('',#948);
#410=VERTEX_POINT('',#952);
#411=VERTEX_POINT('',#954);
#412=VERTEX_POINT('',#956);
#413=VERTEX_POINT('',#958);
#414=VERTEX_POINT('',#960);
#415=VERTEX_POINT('',#965);
#416=VERTEX_POINT('',#967);
#417=VERTEX_POINT('',#969);
#418=VERTEX_POINT('',#975);
#419=VERTEX_POINT('',#977);
#420=VERTEX_POINT('',#990);
#421=VERTEX_POINT('',#992);
#422=VERTEX_POINT('',#996);
#423=VERTEX_POINT('',#997);
#424=VERTEX_POINT('',#1002);
#425=VERTEX_POINT('',#1003);
#426=VERTEX_POINT('',#1008);
#427=VERTEX_POINT('',#1010);
#428=VERTEX_POINT('',#1024);
#429=VERTEX_POINT('',#1028);
#430=VERTEX_POINT('',#1032);
#431=VERTEX_POINT('',#1034);
#432=VERTEX_POINT('',#1043);
#433=VERTEX_POINT('',#1047);
#434=VERTEX_POINT('',#1051);
#435=VERTEX_POINT('',#1055);
#436=EDGE_CURVE('',#378,#379,#520,.T.);
#437=EDGE_CURVE('',#379,#380,#521,.T.);
#438=EDGE_CURVE('',#380,#381,#522,.T.);
#439=EDGE_CURVE('',#381,#378,#523,.T.);
#440=EDGE_CURVE('',#382,#383,#524,.T.);
#441=EDGE_CURVE('',#384,#382,#525,.T.);
#442=EDGE_CURVE('',#385,#384,#526,.T.);
#443=EDGE_CURVE('',#383,#385,#527,.T.);
#444=EDGE_CURVE('',#386,#386,#57,.T.);
#445=EDGE_CURVE('',#379,#387,#58,.T.);
#446=EDGE_CURVE('',#378,#388,#59,.T.);
#447=EDGE_CURVE('',#389,#388,#528,.T.);
#448=EDGE_CURVE('',#389,#390,#60,.T.);
#449=EDGE_CURVE('',#391,#390,#529,.T.);
#450=EDGE_CURVE('',#391,#392,#61,.T.);
#451=EDGE_CURVE('',#393,#392,#530,.T.);
#452=EDGE_CURVE('',#393,#394,#62,.T.);
#453=EDGE_CURVE('',#387,#394,#531,.T.);
#454=EDGE_CURVE('',#395,#395,#63,.T.);
#455=EDGE_CURVE('',#396,#397,#64,.T.);
#456=EDGE_CURVE('',#396,#398,#532,.T.);
#457=EDGE_CURVE('',#398,#399,#533,.T.);
#458=EDGE_CURVE('',#399,#400,#534,.T.);
#459=EDGE_CURVE('',#400,#401,#535,.T.);
#460=EDGE_CURVE('',#402,#401,#536,.T.);
#461=EDGE_CURVE('',#402,#403,#65,.T.);
#462=EDGE_CURVE('',#404,#403,#537,.T.);
#463=EDGE_CURVE('',#404,#405,#66,.T.);
#464=EDGE_CURVE('',#383,#405,#538,.T.);
#465=EDGE_CURVE('',#385,#397,#539,.T.);
#466=EDGE_CURVE('',#406,#407,#540,.T.);
#467=EDGE_CURVE('',#407,#408,#541,.T.);
#468=EDGE_CURVE('',#409,#408,#542,.T.);
#469=EDGE_CURVE('',#409,#406,#543,.T.);
#470=EDGE_CURVE('',#410,#382,#544,.T.);
#471=EDGE_CURVE('',#411,#410,#545,.T.);
#472=EDGE_CURVE('',#411,#412,#546,.T.);
#473=EDGE_CURVE('',#412,#413,#547,.T.);
#474=EDGE_CURVE('',#414,#413,#548,.T.);
#475=EDGE_CURVE('',#414,#409,#549,.T.);
#476=EDGE_CURVE('',#408,#384,#550,.T.);
#477=EDGE_CURVE('',#413,#415,#551,.T.);
#478=EDGE_CURVE('',#415,#416,#552,.T.);
#479=EDGE_CURVE('',#417,#416,#553,.T.);
#480=EDGE_CURVE('',#417,#414,#554,.T.);
#481=EDGE_CURVE('',#406,#417,#555,.T.);
#482=EDGE_CURVE('',#416,#418,#556,.T.);
#483=EDGE_CURVE('',#418,#419,#557,.T.);
#484=EDGE_CURVE('',#419,#407,#558,.T.);
#485=EDGE_CURVE('',#415,#400,#559,.T.);
#486=EDGE_CURVE('',#399,#418,#560,.T.);
#487=EDGE_CURVE('',#397,#396,#44,.T.);
#488=EDGE_CURVE('',#419,#398,#561,.T.);
#489=EDGE_CURVE('',#401,#412,#562,.T.);
#490=EDGE_CURVE('',#388,#420,#563,.T.);
#491=EDGE_CURVE('',#420,#421,#564,.T.);
#492=EDGE_CURVE('',#421,#389,#565,.T.);
#493=EDGE_CURVE('',#422,#423,#566,.T.);
#494=EDGE_CURVE('',#423,#391,#567,.T.);
#495=EDGE_CURVE('',#390,#422,#568,.T.);
#496=EDGE_CURVE('',#424,#425,#569,.T.);
#497=EDGE_CURVE('',#425,#393,#570,.T.);
#498=EDGE_CURVE('',#392,#424,#571,.T.);
#499=EDGE_CURVE('',#380,#426,#67,.T.);
#500=EDGE_CURVE('',#427,#426,#572,.T.);
#501=EDGE_CURVE('',#427,#425,#68,.T.);
#502=EDGE_CURVE('',#424,#423,#69,.T.);
#503=EDGE_CURVE('',#422,#421,#70,.T.);
#504=EDGE_CURVE('',#420,#381,#71,.T.);
#505=EDGE_CURVE('',#426,#387,#573,.T.);
#506=EDGE_CURVE('',#394,#427,#574,.T.);
#507=EDGE_CURVE('',#405,#428,#575,.T.);
#508=EDGE_CURVE('',#428,#410,#576,.T.);
#509=EDGE_CURVE('',#411,#429,#577,.T.);
#510=EDGE_CURVE('',#429,#402,#578,.T.);
#511=EDGE_CURVE('',#428,#430,#72,.T.);
#512=EDGE_CURVE('',#431,#430,#579,.T.);
#513=EDGE_CURVE('',#431,#429,#73,.T.);
#514=EDGE_CURVE('',#430,#404,#580,.T.);
#515=EDGE_CURVE('',#403,#431,#581,.T.);
#516=EDGE_CURVE('',#432,#432,#74,.T.);
#517=EDGE_CURVE('',#433,#433,#75,.T.);
#518=EDGE_CURVE('',#434,#434,#76,.T.);
#519=EDGE_CURVE('',#435,#435,#77,.T.);
#520=LINE('',#881,#582);
#521=LINE('',#884,#583);
#522=LINE('',#886,#584);
#523=LINE('',#888,#585);
#524=LINE('',#890,#586);
#525=LINE('',#893,#587);
#526=LINE('',#895,#588);
#527=LINE('',#897,#589);
#528=LINE('',#905,#590);
#529=LINE('',#909,#591);
#530=LINE('',#913,#592);
#531=LINE('',#917,#593);
#532=LINE('',#923,#594);
#533=LINE('',#925,#595);
#534=LINE('',#927,#596);
#535=LINE('',#929,#597);
#536=LINE('',#931,#598);
#537=LINE('',#935,#599);
#538=LINE('',#939,#600);
#539=LINE('',#940,#601);
#540=LINE('',#942,#602);
#541=LINE('',#945,#603);
#542=LINE('',#947,#604);
#543=LINE('',#949,#605);
#544=LINE('',#951,#606);
#545=LINE('',#953,#607);
#546=LINE('',#955,#608);
#547=LINE('',#957,#609);
#548=LINE('',#959,#610);
#549=LINE('',#961,#611);
#550=LINE('',#962,#612);
#551=LINE('',#964,#613);
#552=LINE('',#966,#614);
#553=LINE('',#968,#615);
#554=LINE('',#970,#616);
#555=LINE('',#972,#617);
#556=LINE('',#974,#618);
#557=LINE('',#976,#619);
#558=LINE('',#978,#620);
#559=LINE('',#980,#621);
#560=LINE('',#981,#622);
#561=LINE('',#984,#623);
#562=LINE('',#987,#624);
#563=LINE('',#989,#625);
#564=LINE('',#991,#626);
#565=LINE('',#993,#627);
#566=LINE('',#995,#628);
#567=LINE('',#998,#629);
#568=LINE('',#999,#630);
#569=LINE('',#1001,#631);
#570=LINE('',#1004,#632);
#571=LINE('',#1005,#633);
#572=LINE('',#1009,#634);
#573=LINE('',#1016,#635);
#574=LINE('',#1017,#636);
#575=LINE('',#1023,#637);
#576=LINE('',#1025,#638);
#577=LINE('',#1027,#639);
#578=LINE('',#1029,#640);
#579=LINE('',#1033,#641);
#580=LINE('',#1037,#642);
#581=LINE('',#1038,#643);
#582=VECTOR('',#704,1.);
#583=VECTOR('',#705,1.);
#584=VECTOR('',#706,1.);
#585=VECTOR('',#707,1.);
#586=VECTOR('',#710,1.);
#587=VECTOR('',#711,1.);
#588=VECTOR('',#712,1.);
#589=VECTOR('',#713,1.);
#590=VECTOR('',#722,1.);
#591=VECTOR('',#725,1.);
#592=VECTOR('',#728,1.);
#593=VECTOR('',#731,1.);
#594=VECTOR('',#736,1.);
#595=VECTOR('',#737,1.);
#596=VECTOR('',#738,1.);
#597=VECTOR('',#739,1.);
#598=VECTOR('',#740,1.);
#599=VECTOR('',#743,1.);
#600=VECTOR('',#746,1.);
#601=VECTOR('',#747,1.);
#602=VECTOR('',#750,1.);
#603=VECTOR('',#751,1.);
#604=VECTOR('',#752,1.);
#605=VECTOR('',#753,1.);
#606=VECTOR('',#756,1.);
#607=VECTOR('',#757,1.);
#608=VECTOR('',#758,1.);
#609=VECTOR('',#759,1.);
#610=VECTOR('',#760,1.);
#611=VECTOR('',#761,1.);
#612=VECTOR('',#762,1.);
#613=VECTOR('',#765,1.);
#614=VECTOR('',#766,1.);
#615=VECTOR('',#767,1.);
#616=VECTOR('',#768,1.);
#617=VECTOR('',#771,1.);
#618=VECTOR('',#774,1.);
#619=VECTOR('',#775,1.);
#620=VECTOR('',#776,1.);
#621=VECTOR('',#779,1.);
#622=VECTOR('',#780,1.);
#623=VECTOR('',#785,1.);
#624=VECTOR('',#790,1.);
#625=VECTOR('',#793,1.);
#626=VECTOR('',#794,1.);
#627=VECTOR('',#795,1.);
#628=VECTOR('',#798,1.);
#629=VECTOR('',#799,1.);
#630=VECTOR('',#800,1.);
#631=VECTOR('',#803,1.);
#632=VECTOR('',#804,1.);
#633=VECTOR('',#805,1.);
#634=VECTOR('',#810,1.);
#635=VECTOR('',#821,1.);
#636=VECTOR('',#822,1.);
#637=VECTOR('',#833,1.);
#638=VECTOR('',#834,1.);
#639=VECTOR('',#837,1.);
#640=VECTOR('',#838,1.);
#641=VECTOR('',#843,1.);
#642=VECTOR('',#848,1.);
#643=VECTOR('',#849,1.);
#644=AXIS2_PLACEMENT_3D('',#880,#702,#703);
#645=AXIS2_PLACEMENT_3D('',#889,#708,#709);
#646=AXIS2_PLACEMENT_3D('',#898,#714,#715);
#647=AXIS2_PLACEMENT_3D('',#899,#716,#717);
#648=AXIS2_PLACEMENT_3D('',#901,#718,#719);
#649=AXIS2_PLACEMENT_3D('',#903,#720,#721);
#650=AXIS2_PLACEMENT_3D('',#907,#723,#724);
#651=AXIS2_PLACEMENT_3D('',#911,#726,#727);
#652=AXIS2_PLACEMENT_3D('',#915,#729,#730);
#653=AXIS2_PLACEMENT_3D('',#918,#732,#733);
#654=AXIS2_PLACEMENT_3D('',#920,#734,#735);
#655=AXIS2_PLACEMENT_3D('',#933,#741,#742);
#656=AXIS2_PLACEMENT_3D('',#937,#744,#745);
#657=AXIS2_PLACEMENT_3D('',#941,#748,#749);
#658=AXIS2_PLACEMENT_3D('',#950,#754,#755);
#659=AXIS2_PLACEMENT_3D('',#963,#763,#764);
#660=AXIS2_PLACEMENT_3D('',#971,#769,#770);
#661=AXIS2_PLACEMENT_3D('',#973,#772,#773);
#662=AXIS2_PLACEMENT_3D('',#979,#777,#778);
#663=AXIS2_PLACEMENT_3D('',#982,#781,#782);
#664=AXIS2_PLACEMENT_3D('',#983,#783,#784);
#665=AXIS2_PLACEMENT_3D('',#985,#786,#787);
#666=AXIS2_PLACEMENT_3D('',#986,#788,#789);
#667=AXIS2_PLACEMENT_3D('',#988,#791,#792);
#668=AXIS2_PLACEMENT_3D('',#994,#796,#797);
#669=AXIS2_PLACEMENT_3D('',#1000,#801,#802);
#670=AXIS2_PLACEMENT_3D('',#1006,#806,#807);
#671=AXIS2_PLACEMENT_3D('',#1007,#808,#809);
#672=AXIS2_PLACEMENT_3D('',#1011,#811,#812);
#673=AXIS2_PLACEMENT_3D('',#1012,#813,#814);
#674=AXIS2_PLACEMENT_3D('',#1013,#815,#816);
#675=AXIS2_PLACEMENT_3D('',#1014,#817,#818);
#676=AXIS2_PLACEMENT_3D('',#1015,#819,#820);
#677=AXIS2_PLACEMENT_3D('',#1018,#823,#824);
#678=AXIS2_PLACEMENT_3D('',#1019,#825,#826);
#679=AXIS2_PLACEMENT_3D('',#1020,#827,#828);
#680=AXIS2_PLACEMENT_3D('',#1021,#829,#830);
#681=AXIS2_PLACEMENT_3D('',#1022,#831,#832);
#682=AXIS2_PLACEMENT_3D('',#1026,#835,#836);
#683=AXIS2_PLACEMENT_3D('',#1030,#839,#840);
#684=AXIS2_PLACEMENT_3D('',#1031,#841,#842);
#685=AXIS2_PLACEMENT_3D('',#1035,#844,#845);
#686=AXIS2_PLACEMENT_3D('',#1036,#846,#847);
#687=AXIS2_PLACEMENT_3D('',#1039,#850,#851);
#688=AXIS2_PLACEMENT_3D('',#1040,#852,#853);
#689=AXIS2_PLACEMENT_3D('',#1041,#854,#855);
#690=AXIS2_PLACEMENT_3D('',#1042,#856,#857);
#691=AXIS2_PLACEMENT_3D('',#1044,#858,#859);
#692=AXIS2_PLACEMENT_3D('',#1045,#860,#861);
#693=AXIS2_PLACEMENT_3D('',#1046,#862,#863);
#694=AXIS2_PLACEMENT_3D('',#1048,#864,#865);
#695=AXIS2_PLACEMENT_3D('',#1049,#866,#867);
#696=AXIS2_PLACEMENT_3D('',#1050,#868,#869);
#697=AXIS2_PLACEMENT_3D('',#1052,#870,#871);
#698=AXIS2_PLACEMENT_3D('',#1053,#872,#873);
#699=AXIS2_PLACEMENT_3D('',#1054,#874,#875);
#700=AXIS2_PLACEMENT_3D('',#1056,#876,#877);
#701=AXIS2_PLACEMENT_3D('',#1057,#878,#879);
#702=DIRECTION('',(0.,0.,1.));
#703=DIRECTION('',(1.,0.,0.));
#704=DIRECTION('',(0.,1.,0.));
#705=DIRECTION('',(0.,0.,-1.));
#706=DIRECTION('',(0.,-1.,0.));
#707=DIRECTION('',(0.,0.,1.));
#708=DIRECTION('',(1.,0.,0.));
#709=DIRECTION('',(0.,0.,-1.));
#710=DIRECTION('',(0.707106781186548,0.,0.707106781186548));
#711=DIRECTION('',(0.,1.,0.));
#712=DIRECTION('',(-0.577350269189626,-0.577350269189626,-0.577350269189626));
#713=DIRECTION('',(0.,-1.,0.));
#714=DIRECTION('',(0.707106781186547,0.,-0.707106781186547));
#715=DIRECTION('',(0.,1.,0.));
#716=DIRECTION('',(0.,0.,1.));
#717=DIRECTION('',(1.,0.,0.));
#718=DIRECTION('',(0.,0.,1.));
#719=DIRECTION('',(1.,0.,0.));
#720=DIRECTION('',(0.,0.,-1.));
#721=DIRECTION('',(1.,0.,0.));
#722=DIRECTION('',(1.,0.,0.));
#723=DIRECTION('',(0.,0.,-1.));
#724=DIRECTION('',(1.,0.,0.));
#725=DIRECTION('',(0.,-1.,0.));
#726=DIRECTION('',(0.,0.,-1.));
#727=DIRECTION('',(1.,0.,0.));
#728=DIRECTION('',(-1.,0.,0.));
#729=DIRECTION('',(0.,0.,-1.));
#730=DIRECTION('',(1.,0.,0.));
#731=DIRECTION('',(0.,1.,0.));
#732=DIRECTION('',(0.,0.,1.));
#733=DIRECTION('',(1.,0.,0.));
#734=DIRECTION('',(0.,0.,1.));
#735=DIRECTION('',(1.,0.,0.));
#736=DIRECTION('',(1.,0.,0.));
#737=DIRECTION('',(0.,1.,0.));
#738=DIRECTION('',(-1.,0.,0.));
#739=DIRECTION('',(0.,-1.,0.));
#740=DIRECTION('',(-1.,0.,0.));
#741=DIRECTION('',(0.,0.,-1.));
#742=DIRECTION('',(1.,0.,0.));
#743=DIRECTION('',(0.,1.,0.));
#744=DIRECTION('',(0.,0.,-1.));
#745=DIRECTION('',(1.,0.,0.));
#746=DIRECTION('',(1.,0.,0.));
#747=DIRECTION('',(1.,0.,0.));
#748=DIRECTION('',(0.,0.,1.));
#749=DIRECTION('',(1.,0.,0.));
#750=DIRECTION('',(0.,0.,1.));
#751=DIRECTION('',(-1.,0.,0.));
#752=DIRECTION('',(0.,0.,1.));
#753=DIRECTION('',(1.,0.,0.));
#754=DIRECTION('',(0.,-1.,0.));
#755=DIRECTION('',(0.,0.,-1.));
#756=DIRECTION('',(0.,0.,1.));
#757=DIRECTION('',(0.,-1.,0.));
#758=DIRECTION('',(0.,0.,1.));
#759=DIRECTION('',(0.,1.,0.));
#760=DIRECTION('',(0.,0.,1.));
#761=DIRECTION('',(0.,-1.,0.));
#762=DIRECTION('',(0.,0.707106781186548,0.707106781186548));
#763=DIRECTION('',(-1.,0.,0.));
#764=DIRECTION('',(0.,0.,1.));
#765=DIRECTION('',(0.707106781186548,0.,0.707106781186548));
#766=DIRECTION('',(1.,0.,0.));
#767=DIRECTION('',(0.,0.,1.));
#768=DIRECTION('',(-1.,0.,0.));
#769=DIRECTION('',(0.,1.,0.));
#770=DIRECTION('',(0.,0.,1.));
#771=DIRECTION('',(0.,1.,0.));
#772=DIRECTION('',(0.,0.,-1.));
#773=DIRECTION('',(-1.,0.,0.));
#774=DIRECTION('',(0.,-0.707106781186548,0.707106781186547));
#775=DIRECTION('',(0.,-1.,0.));
#776=DIRECTION('',(0.,-0.707106781186548,-0.707106781186548));
#777=DIRECTION('',(1.,0.,0.));
#778=DIRECTION('',(0.,0.,-1.));
#779=DIRECTION('',(0.577350269189625,-0.577350269189626,0.577350269189626));
#780=DIRECTION('',(0.577350269189626,0.577350269189626,-0.577350269189625));
#781=DIRECTION('',(0.,-0.707106781186547,-0.707106781186548));
#782=DIRECTION('',(1.,0.,0.));
#783=DIRECTION('',(0.,-0.707106781186548,0.707106781186548));
#784=DIRECTION('',(0.,-0.707106781186548,-0.707106781186548));
#785=DIRECTION('',(-0.577350269189626,0.577350269189626,0.577350269189625));
#786=DIRECTION('',(0.,0.707106781186548,-0.707106781186548));
#787=DIRECTION('',(-1.,0.,0.));
#788=DIRECTION('',(-0.707106781186547,0.,-0.707106781186548));
#789=DIRECTION('',(0.,-1.,0.));
#790=DIRECTION('',(-0.707106781186548,0.,-0.707106781186548));
#791=DIRECTION('',(0.707106781186547,0.,-0.707106781186547));
#792=DIRECTION('',(0.,1.,0.));
#793=DIRECTION('',(0.,0.,-1.));
#794=DIRECTION('',(-1.,0.,0.));
#795=DIRECTION('',(0.,0.,1.));
#796=DIRECTION('',(0.,-1.,0.));
#797=DIRECTION('',(0.,0.,-1.));
#798=DIRECTION('',(0.,1.,0.));
#799=DIRECTION('',(0.,0.,1.));
#800=DIRECTION('',(0.,0.,-1.));
#801=DIRECTION('',(-1.,0.,0.));
#802=DIRECTION('',(0.,0.,1.));
#803=DIRECTION('',(1.,0.,0.));
#804=DIRECTION('',(0.,0.,1.));
#805=DIRECTION('',(0.,0.,-1.));
#806=DIRECTION('',(0.,1.,0.));
#807=DIRECTION('',(0.,0.,1.));
#808=DIRECTION('',(0.,0.,-1.));
#809=DIRECTION('',(-1.,0.,0.));
#810=DIRECTION('',(0.,-1.,0.));
#811=DIRECTION('',(0.,0.,1.));
#812=DIRECTION('',(-1.,0.,0.));
#813=DIRECTION('',(0.,0.,1.));
#814=DIRECTION('',(-1.,0.,0.));
#815=DIRECTION('',(0.,0.,1.));
#816=DIRECTION('',(-1.,0.,0.));
#817=DIRECTION('',(0.,0.,1.));
#818=DIRECTION('',(-1.,0.,0.));
#819=DIRECTION('',(0.,0.,-1.));
#820=DIRECTION('',(-1.,0.,0.));
#821=DIRECTION('',(0.,0.,1.));
#822=DIRECTION('',(0.,0.,-1.));
#823=DIRECTION('',(1.,0.,0.));
#824=DIRECTION('',(0.,0.,-1.));
#825=DIRECTION('',(0.,0.,1.));
#826=DIRECTION('',(1.,0.,0.));
#827=DIRECTION('',(0.,0.,1.));
#828=DIRECTION('',(1.,0.,0.));
#829=DIRECTION('',(0.,0.,1.));
#830=DIRECTION('',(1.,0.,0.));
#831=DIRECTION('',(0.,0.,1.));
#832=DIRECTION('',(1.,0.,0.));
#833=DIRECTION('',(0.,0.,-1.));
#834=DIRECTION('',(-1.,0.,0.));
#835=DIRECTION('',(0.,-1.,0.));
#836=DIRECTION('',(0.,0.,-1.));
#837=DIRECTION('',(1.,0.,0.));
#838=DIRECTION('',(0.,0.,1.));
#839=DIRECTION('',(0.,1.,0.));
#840=DIRECTION('',(0.,0.,1.));
#841=DIRECTION('',(0.,0.,1.));
#842=DIRECTION('',(-1.,0.,0.));
#843=DIRECTION('',(0.,-1.,0.));
#844=DIRECTION('',(0.,0.,1.));
#845=DIRECTION('',(-1.,0.,0.));
#846=DIRECTION('',(0.,0.,-1.));
#847=DIRECTION('',(-1.,0.,0.));
#848=DIRECTION('',(0.,0.,1.));
#849=DIRECTION('',(0.,0.,-1.));
#850=DIRECTION('',(1.,0.,0.));
#851=DIRECTION('',(0.,0.,-1.));
#852=DIRECTION('',(0.,0.,1.));
#853=DIRECTION('',(1.,0.,0.));
#854=DIRECTION('',(0.,0.,1.));
#855=DIRECTION('',(1.,0.,0.));
#856=DIRECTION('',(0.,0.,-1.));
#857=DIRECTION('',(1.,0.,0.));
#858=DIRECTION('',(0.,0.,-1.));
#859=DIRECTION('',(-1.,0.,0.));
#860=DIRECTION('',(0.,0.,-1.));
#861=DIRECTION('',(1.,0.,0.));
#862=DIRECTION('',(0.,0.,-1.));
#863=DIRECTION('',(1.,0.,0.));
#864=DIRECTION('',(0.,0.,-1.));
#865=DIRECTION('',(-1.,0.,0.));
#866=DIRECTION('',(0.,0.,-1.));
#867=DIRECTION('',(1.,0.,0.));
#868=DIRECTION('',(0.,0.,-1.));
#869=DIRECTION('',(1.,0.,0.));
#870=DIRECTION('',(0.,0.,-1.));
#871=DIRECTION('',(1.,0.,0.));
#872=DIRECTION('',(0.,0.,-1.));
#873=DIRECTION('',(-1.,0.,0.));
#874=DIRECTION('',(0.,0.,-1.));
#875=DIRECTION('',(1.,0.,0.));
#876=DIRECTION('',(0.,0.,-1.));
#877=DIRECTION('',(-1.,0.,0.));
#878=DIRECTION('',(0.,0.,-1.));
#879=DIRECTION('',(1.,0.,0.));
#880=CARTESIAN_POINT('',(0.,0.,0.));
#881=CARTESIAN_POINT('',(312.9,104.95,113.8));
#882=CARTESIAN_POINT('',(312.9,98.8,113.8));
#883=CARTESIAN_POINT('',(312.9,99.4402233281561,113.8));
#884=CARTESIAN_POINT('',(312.9,99.4402233281561,113.85));
#885=CARTESIAN_POINT('',(312.9,99.4402233281561,76.5));
#886=CARTESIAN_POINT('',(312.9,110.95,76.5));
#887=CARTESIAN_POINT('',(312.9,98.8,76.5));
#888=CARTESIAN_POINT('',(312.9,98.8,113.8));
#889=CARTESIAN_POINT('',(312.9,110.95,76.5));
#890=CARTESIAN_POINT('',(0.,89.4,96.9));
#891=CARTESIAN_POINT('',(0.,89.4,96.9));
#892=CARTESIAN_POINT('',(16.9,89.4,113.8));
#893=CARTESIAN_POINT('',(0.,104.95,96.9));
#894=CARTESIAN_POINT('',(0.,0.80000000000005,96.9));
#895=CARTESIAN_POINT('',(66.25,67.05,163.15));
#896=CARTESIAN_POINT('',(16.9,17.7,113.8));
#897=CARTESIAN_POINT('',(16.9,104.95,113.8));
#898=CARTESIAN_POINT('',(0.,104.95,96.9));
#899=CARTESIAN_POINT('',(315.9,158.,113.8));
#900=CARTESIAN_POINT('',(324.5,158.,113.8));
#901=CARTESIAN_POINT('',(315.9,107.5,113.8));
#902=CARTESIAN_POINT('',(312.9,115.559776671844,113.8));
#903=CARTESIAN_POINT('',(299.4,98.8,113.8));
#904=CARTESIAN_POINT('',(299.4,85.3,113.8));
#905=CARTESIAN_POINT('',(200.35,85.3,113.8));
#906=CARTESIAN_POINT('',(175.4,85.3,113.8));
#907=CARTESIAN_POINT('',(175.4,98.8,113.8));
#908=CARTESIAN_POINT('',(161.9,98.8,113.8));
#909=CARTESIAN_POINT('',(161.9,104.95,113.8));
#910=CARTESIAN_POINT('',(161.9,123.1,113.8));
#911=CARTESIAN_POINT('',(175.4,123.1,113.8));
#912=CARTESIAN_POINT('',(175.4,136.6,113.8));
#913=CARTESIAN_POINT('',(200.35,136.6,113.8));
#914=CARTESIAN_POINT('',(299.4,136.6,113.8));
#915=CARTESIAN_POINT('',(299.4,123.1,113.8));
#916=CARTESIAN_POINT('',(312.9,123.1,113.8));
#917=CARTESIAN_POINT('',(312.9,104.95,113.8));
#918=CARTESIAN_POINT('',(315.9,57.,113.8));
#919=CARTESIAN_POINT('',(324.5,57.,113.8));
#920=CARTESIAN_POINT('',(315.9,12.6,113.8));
#921=CARTESIAN_POINT('',(322.824593850906,17.7,113.8));
#922=CARTESIAN_POINT('',(308.975406149094,17.7,113.8));
#923=CARTESIAN_POINT('',(200.35,17.7,113.8));
#924=CARTESIAN_POINT('',(393.2,17.7,113.8));
#925=CARTESIAN_POINT('',(393.2,104.95,113.8));
#926=CARTESIAN_POINT('',(393.2,202.2,113.8));
#927=CARTESIAN_POINT('',(200.35,202.2,113.8));
#928=CARTESIAN_POINT('',(16.9,202.2,113.8));
#929=CARTESIAN_POINT('',(16.9,104.95,113.8));
#930=CARTESIAN_POINT('',(16.9,160.1,113.8));
#931=CARTESIAN_POINT('',(200.35,160.1,113.8));
#932=CARTESIAN_POINT('',(100.8,160.1,113.8));
#933=CARTESIAN_POINT('',(100.8,148.4,113.8));
#934=CARTESIAN_POINT('',(112.5,148.4,113.8));
#935=CARTESIAN_POINT('',(112.5,104.95,113.8));
#936=CARTESIAN_POINT('',(112.5,101.1,113.8));
#937=CARTESIAN_POINT('',(100.8,101.1,113.8));
#938=CARTESIAN_POINT('',(100.8,89.4,113.8));
#939=CARTESIAN_POINT('',(200.35,89.4,113.8));
#940=CARTESIAN_POINT('',(200.35,17.7,113.8));
#941=CARTESIAN_POINT('',(200.35,104.95,113.8));
#942=CARTESIAN_POINT('',(400.7,0.,0.));
#943=CARTESIAN_POINT('',(400.7,0.,0.));
#944=CARTESIAN_POINT('',(400.7,0.,96.1));
#945=CARTESIAN_POINT('',(200.35,0.,96.1));
#946=CARTESIAN_POINT('',(0.,0.,96.1));
#947=CARTESIAN_POINT('',(0.,0.,0.));
#948=CARTESIAN_POINT('',(0.,0.,0.));
#949=CARTESIAN_POINT('',(200.35,0.,0.));
#950=CARTESIAN_POINT('',(200.35,0.,0.));
#951=CARTESIAN_POINT('',(0.,89.4,75.9));
#952=CARTESIAN_POINT('',(0.,89.4,75.9));
#953=CARTESIAN_POINT('',(0.,124.75,75.9));
#954=CARTESIAN_POINT('',(0.,160.1,75.9));
#955=CARTESIAN_POINT('',(0.,160.1,75.9));
#956=CARTESIAN_POINT('',(-3.46944695195361E-15,160.1,96.9));
#957=CARTESIAN_POINT('',(0.,104.95,96.9));
#958=CARTESIAN_POINT('',(0.,209.9,96.9));
#959=CARTESIAN_POINT('',(0.,209.9,0.));
#960=CARTESIAN_POINT('',(0.,209.9,0.));
#961=CARTESIAN_POINT('',(0.,104.95,0.));
#962=CARTESIAN_POINT('',(0.,4.42500000000003,100.525));
#963=CARTESIAN_POINT('',(0.,104.95,0.));
#964=CARTESIAN_POINT('',(51.725,209.9,148.625));
#965=CARTESIAN_POINT('',(9.19999999999996,209.9,106.1));
#966=CARTESIAN_POINT('',(200.35,209.9,106.1));
#967=CARTESIAN_POINT('',(400.7,209.9,106.1));
#968=CARTESIAN_POINT('',(400.7,209.9,0.));
#969=CARTESIAN_POINT('',(400.7,209.9,0.));
#970=CARTESIAN_POINT('',(200.35,209.9,0.));
#971=CARTESIAN_POINT('',(200.35,209.9,0.));
#972=CARTESIAN_POINT('',(400.7,104.95,0.));
#973=CARTESIAN_POINT('',(200.35,104.95,0.));
#974=CARTESIAN_POINT('',(400.7,210.475,105.525));
#975=CARTESIAN_POINT('',(400.7,209.7,106.3));
#976=CARTESIAN_POINT('',(400.7,104.95,106.3));
#977=CARTESIAN_POINT('',(400.7,10.2000000000001,106.3));
#978=CARTESIAN_POINT('',(400.7,4.42500000000003,100.525));
#979=CARTESIAN_POINT('',(400.7,104.95,0.));
#980=CARTESIAN_POINT('',(72.9166666666666,146.183333333333,169.816666666667));
#981=CARTESIAN_POINT('',(334.05,143.05,172.95));
#982=CARTESIAN_POINT('',(200.35,209.9,106.1));
#983=CARTESIAN_POINT('',(315.9,12.6,108.7));
#984=CARTESIAN_POINT('',(340.716666666667,70.1833333333334,166.283333333333));
#985=CARTESIAN_POINT('',(200.35,0.,96.1));
#986=CARTESIAN_POINT('',(400.7,104.95,106.3));
#987=CARTESIAN_POINT('',(0.,160.1,96.9));
#988=CARTESIAN_POINT('',(0.,104.95,96.9));
#989=CARTESIAN_POINT('',(299.4,85.3,76.5));
#990=CARTESIAN_POINT('',(299.4,85.3,76.5));
#991=CARTESIAN_POINT('',(237.4,85.3,76.5));
#992=CARTESIAN_POINT('',(175.4,85.3,76.5));
#993=CARTESIAN_POINT('',(175.4,85.3,113.8));
#994=CARTESIAN_POINT('',(237.4,85.3,76.5));
#995=CARTESIAN_POINT('',(161.9,110.95,76.5));
#996=CARTESIAN_POINT('',(161.9,98.8,76.5));
#997=CARTESIAN_POINT('',(161.9,123.1,76.5));
#998=CARTESIAN_POINT('',(161.9,123.1,113.8));
#999=CARTESIAN_POINT('',(161.9,98.8,76.5));
#1000=CARTESIAN_POINT('',(161.9,110.95,76.5));
#1001=CARTESIAN_POINT('',(237.4,136.6,76.5));
#1002=CARTESIAN_POINT('',(175.4,136.6,76.5));
#1003=CARTESIAN_POINT('',(299.4,136.6,76.5));
#1004=CARTESIAN_POINT('',(299.4,136.6,113.8));
#1005=CARTESIAN_POINT('',(175.4,136.6,76.5));
#1006=CARTESIAN_POINT('',(237.4,136.6,76.5));
#1007=CARTESIAN_POINT('',(315.9,107.5,76.5));
#1008=CARTESIAN_POINT('',(312.9,115.559776671844,76.5));
#1009=CARTESIAN_POINT('',(312.9,110.95,76.5));
#1010=CARTESIAN_POINT('',(312.9,123.1,76.5));
#1011=CARTESIAN_POINT('',(299.4,123.1,76.5));
#1012=CARTESIAN_POINT('',(175.4,123.1,76.5));
#1013=CARTESIAN_POINT('',(175.4,98.8,76.5));
#1014=CARTESIAN_POINT('',(299.4,98.8,76.5));
#1015=CARTESIAN_POINT('',(237.4,110.95,76.5));
#1016=CARTESIAN_POINT('',(312.9,115.559776671844,113.85));
#1017=CARTESIAN_POINT('',(312.9,123.1,76.5));
#1018=CARTESIAN_POINT('',(312.9,110.95,76.5));
#1019=CARTESIAN_POINT('',(299.4,98.8,76.5));
#1020=CARTESIAN_POINT('',(299.4,123.1,76.5));
#1021=CARTESIAN_POINT('',(175.4,123.1,76.5));
#1022=CARTESIAN_POINT('',(175.4,98.8,76.5));
#1023=CARTESIAN_POINT('',(100.8,89.4,75.9));
#1024=CARTESIAN_POINT('',(100.8,89.4,75.9));
#1025=CARTESIAN_POINT('',(56.25,89.4,75.9));
#1026=CARTESIAN_POINT('',(56.25,89.4,75.9));
#1027=CARTESIAN_POINT('',(56.25,160.1,75.9));
#1028=CARTESIAN_POINT('',(100.8,160.1,75.9));
#1029=CARTESIAN_POINT('',(100.8,160.1,113.8));
#1030=CARTESIAN_POINT('',(56.25,160.1,75.9));
#1031=CARTESIAN_POINT('',(100.8,101.1,75.9));
#1032=CARTESIAN_POINT('',(112.5,101.1,75.9));
#1033=CARTESIAN_POINT('',(112.5,124.75,75.9));
#1034=CARTESIAN_POINT('',(112.5,148.4,75.9));
#1035=CARTESIAN_POINT('',(100.8,148.4,75.9));
#1036=CARTESIAN_POINT('',(56.25,124.75,75.9));
#1037=CARTESIAN_POINT('',(112.5,101.1,113.8));
#1038=CARTESIAN_POINT('',(112.5,148.4,75.9));
#1039=CARTESIAN_POINT('',(112.5,124.75,75.9));
#1040=CARTESIAN_POINT('',(100.8,101.1,75.9));
#1041=CARTESIAN_POINT('',(100.8,148.4,75.9));
#1042=CARTESIAN_POINT('',(315.9,12.6,70.4));
#1043=CARTESIAN_POINT('',(324.5,12.6,70.4));
#1044=CARTESIAN_POINT('',(315.9,12.6,70.4));
#1045=CARTESIAN_POINT('',(315.9,12.6,113.85));
#1046=CARTESIAN_POINT('',(315.9,57.,71.3));
#1047=CARTESIAN_POINT('',(324.5,57.,71.3));
#1048=CARTESIAN_POINT('',(315.9,57.,71.3));
#1049=CARTESIAN_POINT('',(315.9,57.,113.85));
#1050=CARTESIAN_POINT('',(315.9,107.5,62.7));
#1051=CARTESIAN_POINT('',(324.5,107.5,62.7));
#1052=CARTESIAN_POINT('',(315.9,107.5,113.85));
#1053=CARTESIAN_POINT('',(315.9,107.5,62.7));
#1054=CARTESIAN_POINT('',(315.9,158.,66.7));
#1055=CARTESIAN_POINT('',(324.5,158.,66.7));
#1056=CARTESIAN_POINT('',(315.9,158.,66.7));
#1057=CARTESIAN_POINT('',(315.9,158.,113.85));
#1058=MECHANICAL_DESIGN_GEOMETRIC_PRESENTATION_REPRESENTATION('',(#24),
#1059);
#1059=(
GEOMETRIC_REPRESENTATION_CONTEXT(3)
GLOBAL_UNCERTAINTY_ASSIGNED_CONTEXT((#1060))
GLOBAL_UNIT_ASSIGNED_CONTEXT((#1066,#1062,#1061))
REPRESENTATION_CONTEXT('featured_part_09899','TOP_LEVEL_ASSEMBLY_PART')
);
#1060=UNCERTAINTY_MEASURE_WITH_UNIT(LENGTH_MEASURE(2.E-5),#1066,
'DISTANCE_ACCURACY_VALUE','Maximum Tolerance applied to model');
#1061=(
NAMED_UNIT(*)
SI_UNIT($,.STERADIAN.)
SOLID_ANGLE_UNIT()
);
#1062=(
CONVERSION_BASED_UNIT('DEGREE',#1064)
NAMED_UNIT(#1063)
PLANE_ANGLE_UNIT()
);
#1063=DIMENSIONAL_EXPONENTS(0.,0.,0.,0.,0.,0.,0.);
#1064=PLANE_ANGLE_MEASURE_WITH_UNIT(PLANE_ANGLE_MEASURE(0.0174532925),#1065);
#1065=(
NAMED_UNIT(*)
PLANE_ANGLE_UNIT()
SI_UNIT($,.RADIAN.)
);
#1066=(
LENGTH_UNIT()
NAMED_UNIT(*)
SI_UNIT(.MILLI.,.METRE.)
);
ENDSEC;
END-ISO-10303-21;
