ISO-10303-21;
HEADER;
/* Generated by software containing ST-Developer
 * from STEP Tools, Inc. (www.steptools.com) 
 */
/* OPTION: using custom schema-name function */

FILE_DESCRIPTION(
/* description */ (''),
/* implementation_level */ '2;1');

FILE_NAME(
/* name */ 'featured_part_08048.stp',
/* time_stamp */ '2026-07-10T14:52:27-04:00',
/* author */ (''),
/* organization */ (''),
/* preprocessor_version */ 'ST-DEVELOPER v20.1',
/* originating_system */ 'SIEMENS PLM Software NX2512.6002',
/* authorisation */ '');

FILE_SCHEMA (('AUTOMOTIVE_DESIGN { 1 0 10303 214 3 1 1 1 }'));
ENDSEC;

DATA;
#10=SHAPE_REPRESENTATION_RELATIONSHIP('None',
'relationship between featured_part_08048-None and featured_part_08048
-None',#22,#11);
#11=ADVANCED_BREP_SHAPE_REPRESENTATION('featured_part_08048-None',(#32),
#468);
#12=SHAPE_DEFINITION_REPRESENTATION(#13,#22);
#13=PRODUCT_DEFINITION_SHAPE('','',#14);
#14=PRODUCT_DEFINITION(' ','',#16,#15);
#15=PRODUCT_DEFINITION_CONTEXT('part definition',#21,'design');
#16=PRODUCT_DEFINITION_FORMATION_WITH_SPECIFIED_SOURCE(' ',' ',#18,
 .NOT_KNOWN.);
#17=PRODUCT_RELATED_PRODUCT_CATEGORY('part','',(#18));
#18=PRODUCT('featured_part_08048','featured_part_08048',' ',(#19));
#19=PRODUCT_CONTEXT(' ',#21,'mechanical');
#20=APPLICATION_PROTOCOL_DEFINITION('international standard',
'automotive_design',2010,#21);
#21=APPLICATION_CONTEXT(
'core data for automotive mechanical design processes');
#22=SHAPE_REPRESENTATION('featured_part_08048-None',(#293),#468);
#23=PRESENTATION_LAYER_ASSIGNMENT('1','Layer 1',(#32));
#24=STYLED_ITEM('',(#25),#32);
#25=PRESENTATION_STYLE_ASSIGNMENT((#26));
#26=SURFACE_STYLE_USAGE(.BOTH.,#27);
#27=SURFACE_SIDE_STYLE('',(#28));
#28=SURFACE_STYLE_FILL_AREA(#29);
#29=FILL_AREA_STYLE('',(#30));
#30=FILL_AREA_STYLE_COLOUR('',#31);
#31=COLOUR_RGB('medium steel',0.611764705882353,0.658823529411765,0.670588235294118);
#32=MANIFOLD_SOLID_BREP('',#33);
#33=CLOSED_SHELL('',(#48,#49,#50,#51,#52,#53,#54,#55,#56,#57,#58,#59,#60,
#61,#62,#63));
#34=CYLINDRICAL_SURFACE('',#310,10.3);
#35=CYLINDRICAL_SURFACE('',#312,8.6);
#36=CYLINDRICAL_SURFACE('',#316,10.25);
#37=CYLINDRICAL_SURFACE('',#317,10.75);
#38=FACE_OUTER_BOUND('',#142,.T.);
#39=FACE_OUTER_BOUND('',#143,.T.);
#40=FACE_OUTER_BOUND('',#144,.T.);
#41=FACE_OUTER_BOUND('',#147,.T.);
#42=FACE_OUTER_BOUND('',#148,.T.);
#43=FACE_OUTER_BOUND('',#149,.T.);
#44=FACE_OUTER_BOUND('',#150,.T.);
#45=FACE_OUTER_BOUND('',#153,.T.);
#46=FACE_OUTER_BOUND('',#156,.T.);
#47=FACE_OUTER_BOUND('',#157,.T.);
#48=ADVANCED_FACE('',(#126,#127,#128),#64,.T.);
#49=ADVANCED_FACE('',(#38),#65,.T.);
#50=ADVANCED_FACE('',(#39),#66,.T.);
#51=ADVANCED_FACE('',(#40),#67,.T.);
#52=ADVANCED_FACE('',(#129,#130),#68,.T.);
#53=ADVANCED_FACE('',(#41),#69,.T.);
#54=ADVANCED_FACE('',(#42),#70,.F.);
#55=ADVANCED_FACE('',(#43),#71,.F.);
#56=ADVANCED_FACE('',(#44),#72,.F.);
#57=ADVANCED_FACE('',(#131,#132),#73,.F.);
#58=ADVANCED_FACE('',(#45),#34,.F.);
#59=ADVANCED_FACE('',(#133,#134),#35,.F.);
#60=ADVANCED_FACE('',(#46),#74,.F.);
#61=ADVANCED_FACE('',(#47),#75,.F.);
#62=ADVANCED_FACE('',(#135,#136),#36,.F.);
#63=ADVANCED_FACE('',(#137,#138),#37,.F.);
#64=PLANE('',#297);
#65=PLANE('',#298);
#66=PLANE('',#299);
#67=PLANE('',#300);
#68=PLANE('',#302);
#69=PLANE('',#303);
#70=PLANE('',#304);
#71=PLANE('',#305);
#72=PLANE('',#306);
#73=PLANE('',#309);
#74=PLANE('',#313);
#75=PLANE('',#315);
#76=LINE('',#398,#101);
#77=LINE('',#403,#102);
#78=LINE('',#405,#103);
#79=LINE('',#407,#104);
#80=LINE('',#409,#105);
#81=LINE('',#411,#106);
#82=LINE('',#413,#107);
#83=LINE('',#416,#108);
#84=LINE('',#418,#109);
#85=LINE('',#420,#110);
#86=LINE('',#422,#111);
#87=LINE('',#423,#112);
#88=LINE('',#425,#113);
#89=LINE('',#427,#114);
#90=LINE('',#429,#115);
#91=LINE('',#431,#116);
#92=LINE('',#433,#117);
#93=LINE('',#437,#118);
#94=LINE('',#439,#119);
#95=LINE('',#441,#120);
#96=LINE('',#442,#121);
#97=LINE('',#445,#122);
#98=LINE('',#447,#123);
#99=LINE('',#449,#124);
#100=LINE('',#451,#125);
#101=VECTOR('',#324,1.);
#102=VECTOR('',#327,1.);
#103=VECTOR('',#328,1.);
#104=VECTOR('',#329,1.);
#105=VECTOR('',#330,1.);
#106=VECTOR('',#331,1.);
#107=VECTOR('',#334,1.);
#108=VECTOR('',#335,1.);
#109=VECTOR('',#336,1.);
#110=VECTOR('',#337,1.);
#111=VECTOR('',#340,1.);
#112=VECTOR('',#341,1.);
#113=VECTOR('',#342,1.);
#114=VECTOR('',#345,1.);
#115=VECTOR('',#346,1.);
#116=VECTOR('',#347,1.);
#117=VECTOR('',#348,1.);
#118=VECTOR('',#353,1.);
#119=VECTOR('',#356,1.);
#120=VECTOR('',#357,1.);
#121=VECTOR('',#358,1.);
#122=VECTOR('',#363,1.);
#123=VECTOR('',#364,1.);
#124=VECTOR('',#367,1.);
#125=VECTOR('',#368,1.);
#126=FACE_BOUND('',#139,.T.);
#127=FACE_BOUND('',#140,.T.);
#128=FACE_BOUND('',#141,.T.);
#129=FACE_BOUND('',#145,.T.);
#130=FACE_BOUND('',#146,.T.);
#131=FACE_BOUND('',#151,.T.);
#132=FACE_BOUND('',#152,.T.);
#133=FACE_BOUND('',#154,.T.);
#134=FACE_BOUND('',#155,.T.);
#135=FACE_BOUND('',#158,.T.);
#136=FACE_BOUND('',#159,.T.);
#137=FACE_BOUND('',#160,.T.);
#138=FACE_BOUND('',#161,.T.);
#139=EDGE_LOOP('',(#162));
#140=EDGE_LOOP('',(#163));
#141=EDGE_LOOP('',(#164,#165,#166,#167,#168,#169,#170));
#142=EDGE_LOOP('',(#171,#172,#173,#174));
#143=EDGE_LOOP('',(#175,#176,#177,#178,#179));
#144=EDGE_LOOP('',(#180,#181,#182,#183,#184,#185));
#145=EDGE_LOOP('',(#186));
#146=EDGE_LOOP('',(#187,#188,#189,#190));
#147=EDGE_LOOP('',(#191,#192,#193,#194,#195,#196,#197));
#148=EDGE_LOOP('',(#198,#199,#200,#201));
#149=EDGE_LOOP('',(#202,#203,#204,#205));
#150=EDGE_LOOP('',(#206,#207,#208,#209));
#151=EDGE_LOOP('',(#210));
#152=EDGE_LOOP('',(#211,#212,#213,#214,#215));
#153=EDGE_LOOP('',(#216,#217,#218,#219));
#154=EDGE_LOOP('',(#220));
#155=EDGE_LOOP('',(#221));
#156=EDGE_LOOP('',(#222));
#157=EDGE_LOOP('',(#223));
#158=EDGE_LOOP('',(#224));
#159=EDGE_LOOP('',(#225));
#160=EDGE_LOOP('',(#226));
#161=EDGE_LOOP('',(#227));
#162=ORIENTED_EDGE('',*,*,#252,.F.);
#163=ORIENTED_EDGE('',*,*,#253,.F.);
#164=ORIENTED_EDGE('',*,*,#254,.F.);
#165=ORIENTED_EDGE('',*,*,#255,.T.);
#166=ORIENTED_EDGE('',*,*,#256,.F.);
#167=ORIENTED_EDGE('',*,*,#257,.F.);
#168=ORIENTED_EDGE('',*,*,#258,.F.);
#169=ORIENTED_EDGE('',*,*,#259,.T.);
#170=ORIENTED_EDGE('',*,*,#260,.F.);
#171=ORIENTED_EDGE('',*,*,#261,.T.);
#172=ORIENTED_EDGE('',*,*,#262,.T.);
#173=ORIENTED_EDGE('',*,*,#263,.F.);
#174=ORIENTED_EDGE('',*,*,#264,.T.);
#175=ORIENTED_EDGE('',*,*,#263,.T.);
#176=ORIENTED_EDGE('',*,*,#265,.T.);
#177=ORIENTED_EDGE('',*,*,#258,.T.);
#178=ORIENTED_EDGE('',*,*,#266,.F.);
#179=ORIENTED_EDGE('',*,*,#267,.T.);
#180=ORIENTED_EDGE('',*,*,#268,.F.);
#181=ORIENTED_EDGE('',*,*,#269,.F.);
#182=ORIENTED_EDGE('',*,*,#270,.F.);
#183=ORIENTED_EDGE('',*,*,#271,.T.);
#184=ORIENTED_EDGE('',*,*,#266,.T.);
#185=ORIENTED_EDGE('',*,*,#257,.T.);
#186=ORIENTED_EDGE('',*,*,#272,.F.);
#187=ORIENTED_EDGE('',*,*,#273,.F.);
#188=ORIENTED_EDGE('',*,*,#264,.F.);
#189=ORIENTED_EDGE('',*,*,#267,.F.);
#190=ORIENTED_EDGE('',*,*,#271,.F.);
#191=ORIENTED_EDGE('',*,*,#274,.T.);
#192=ORIENTED_EDGE('',*,*,#260,.T.);
#193=ORIENTED_EDGE('',*,*,#275,.T.);
#194=ORIENTED_EDGE('',*,*,#261,.F.);
#195=ORIENTED_EDGE('',*,*,#273,.T.);
#196=ORIENTED_EDGE('',*,*,#270,.T.);
#197=ORIENTED_EDGE('',*,*,#276,.F.);
#198=ORIENTED_EDGE('',*,*,#275,.F.);
#199=ORIENTED_EDGE('',*,*,#259,.F.);
#200=ORIENTED_EDGE('',*,*,#265,.F.);
#201=ORIENTED_EDGE('',*,*,#262,.F.);
#202=ORIENTED_EDGE('',*,*,#277,.T.);
#203=ORIENTED_EDGE('',*,*,#278,.T.);
#204=ORIENTED_EDGE('',*,*,#254,.T.);
#205=ORIENTED_EDGE('',*,*,#274,.F.);
#206=ORIENTED_EDGE('',*,*,#256,.T.);
#207=ORIENTED_EDGE('',*,*,#279,.T.);
#208=ORIENTED_EDGE('',*,*,#280,.T.);
#209=ORIENTED_EDGE('',*,*,#268,.T.);
#210=ORIENTED_EDGE('',*,*,#281,.T.);
#211=ORIENTED_EDGE('',*,*,#280,.F.);
#212=ORIENTED_EDGE('',*,*,#282,.T.);
#213=ORIENTED_EDGE('',*,*,#277,.F.);
#214=ORIENTED_EDGE('',*,*,#276,.T.);
#215=ORIENTED_EDGE('',*,*,#269,.T.);
#216=ORIENTED_EDGE('',*,*,#255,.F.);
#217=ORIENTED_EDGE('',*,*,#278,.F.);
#218=ORIENTED_EDGE('',*,*,#282,.F.);
#219=ORIENTED_EDGE('',*,*,#279,.F.);
#220=ORIENTED_EDGE('',*,*,#283,.T.);
#221=ORIENTED_EDGE('',*,*,#281,.F.);
#222=ORIENTED_EDGE('',*,*,#283,.F.);
#223=ORIENTED_EDGE('',*,*,#284,.F.);
#224=ORIENTED_EDGE('',*,*,#253,.T.);
#225=ORIENTED_EDGE('',*,*,#284,.T.);
#226=ORIENTED_EDGE('',*,*,#252,.T.);
#227=ORIENTED_EDGE('',*,*,#272,.T.);
#228=VERTEX_POINT('',#395);
#229=VERTEX_POINT('',#397);
#230=VERTEX_POINT('',#399);
#231=VERTEX_POINT('',#400);
#232=VERTEX_POINT('',#402);
#233=VERTEX_POINT('',#404);
#234=VERTEX_POINT('',#406);
#235=VERTEX_POINT('',#408);
#236=VERTEX_POINT('',#410);
#237=VERTEX_POINT('',#414);
#238=VERTEX_POINT('',#415);
#239=VERTEX_POINT('',#417);
#240=VERTEX_POINT('',#419);
#241=VERTEX_POINT('',#424);
#242=VERTEX_POINT('',#428);
#243=VERTEX_POINT('',#430);
#244=VERTEX_POINT('',#432);
#245=VERTEX_POINT('',#436);
#246=VERTEX_POINT('',#440);
#247=VERTEX_POINT('',#446);
#248=VERTEX_POINT('',#450);
#249=VERTEX_POINT('',#454);
#250=VERTEX_POINT('',#459);
#251=VERTEX_POINT('',#463);
#252=EDGE_CURVE('',#228,#228,#285,.T.);
#253=EDGE_CURVE('',#229,#229,#286,.T.);
#254=EDGE_CURVE('',#230,#231,#76,.T.);
#255=EDGE_CURVE('',#230,#232,#287,.T.);
#256=EDGE_CURVE('',#233,#232,#77,.T.);
#257=EDGE_CURVE('',#234,#233,#78,.T.);
#258=EDGE_CURVE('',#235,#234,#79,.T.);
#259=EDGE_CURVE('',#235,#236,#80,.T.);
#260=EDGE_CURVE('',#231,#236,#81,.T.);
#261=EDGE_CURVE('',#237,#238,#82,.T.);
#262=EDGE_CURVE('',#238,#239,#83,.T.);
#263=EDGE_CURVE('',#240,#239,#84,.T.);
#264=EDGE_CURVE('',#240,#237,#85,.T.);
#265=EDGE_CURVE('',#239,#235,#86,.T.);
#266=EDGE_CURVE('',#241,#234,#87,.T.);
#267=EDGE_CURVE('',#241,#240,#88,.T.);
#268=EDGE_CURVE('',#242,#233,#89,.T.);
#269=EDGE_CURVE('',#243,#242,#90,.T.);
#270=EDGE_CURVE('',#244,#243,#91,.T.);
#271=EDGE_CURVE('',#244,#241,#92,.T.);
#272=EDGE_CURVE('',#245,#245,#288,.T.);
#273=EDGE_CURVE('',#237,#244,#93,.T.);
#274=EDGE_CURVE('',#246,#231,#94,.T.);
#275=EDGE_CURVE('',#236,#238,#95,.T.);
#276=EDGE_CURVE('',#246,#243,#96,.T.);
#277=EDGE_CURVE('',#246,#247,#97,.T.);
#278=EDGE_CURVE('',#247,#230,#98,.T.);
#279=EDGE_CURVE('',#232,#248,#99,.T.);
#280=EDGE_CURVE('',#248,#242,#100,.T.);
#281=EDGE_CURVE('',#249,#249,#289,.T.);
#282=EDGE_CURVE('',#248,#247,#290,.T.);
#283=EDGE_CURVE('',#250,#250,#291,.T.);
#284=EDGE_CURVE('',#251,#251,#292,.T.);
#285=CIRCLE('',#294,10.75);
#286=CIRCLE('',#295,10.25);
#287=CIRCLE('',#296,10.3);
#288=CIRCLE('',#301,10.75);
#289=CIRCLE('',#307,8.6);
#290=CIRCLE('',#308,10.3);
#291=CIRCLE('',#311,8.6);
#292=CIRCLE('',#314,10.25);
#293=AXIS2_PLACEMENT_3D('',#393,#318,#319);
#294=AXIS2_PLACEMENT_3D('',#394,#320,#321);
#295=AXIS2_PLACEMENT_3D('',#396,#322,#323);
#296=AXIS2_PLACEMENT_3D('',#401,#325,#326);
#297=AXIS2_PLACEMENT_3D('',#412,#332,#333);
#298=AXIS2_PLACEMENT_3D('',#421,#338,#339);
#299=AXIS2_PLACEMENT_3D('',#426,#343,#344);
#300=AXIS2_PLACEMENT_3D('',#434,#349,#350);
#301=AXIS2_PLACEMENT_3D('',#435,#351,#352);
#302=AXIS2_PLACEMENT_3D('',#438,#354,#355);
#303=AXIS2_PLACEMENT_3D('',#443,#359,#360);
#304=AXIS2_PLACEMENT_3D('',#444,#361,#362);
#305=AXIS2_PLACEMENT_3D('',#448,#365,#366);
#306=AXIS2_PLACEMENT_3D('',#452,#369,#370);
#307=AXIS2_PLACEMENT_3D('',#453,#371,#372);
#308=AXIS2_PLACEMENT_3D('',#455,#373,#374);
#309=AXIS2_PLACEMENT_3D('',#456,#375,#376);
#310=AXIS2_PLACEMENT_3D('',#457,#377,#378);
#311=AXIS2_PLACEMENT_3D('',#458,#379,#380);
#312=AXIS2_PLACEMENT_3D('',#460,#381,#382);
#313=AXIS2_PLACEMENT_3D('',#461,#383,#384);
#314=AXIS2_PLACEMENT_3D('',#462,#385,#386);
#315=AXIS2_PLACEMENT_3D('',#464,#387,#388);
#316=AXIS2_PLACEMENT_3D('',#465,#389,#390);
#317=AXIS2_PLACEMENT_3D('',#466,#391,#392);
#318=DIRECTION('',(0.,0.,1.));
#319=DIRECTION('',(1.,0.,0.));
#320=DIRECTION('',(0.,0.,1.));
#321=DIRECTION('',(1.,0.,0.));
#322=DIRECTION('',(0.,0.,1.));
#323=DIRECTION('',(0.999999999999998,0.,0.));
#324=DIRECTION('',(1.,0.,0.));
#325=DIRECTION('',(0.,0.,-1.));
#326=DIRECTION('',(0.999999999999998,0.,0.));
#327=DIRECTION('',(0.,-1.,0.));
#328=DIRECTION('',(1.,0.,0.));
#329=DIRECTION('',(0.,1.,0.));
#330=DIRECTION('',(1.,0.,0.));
#331=DIRECTION('',(0.,-1.,0.));
#332=DIRECTION('',(0.,0.,1.));
#333=DIRECTION('',(1.,0.,0.));
#334=DIRECTION('',(0.,0.,1.));
#335=DIRECTION('',(-1.,0.,0.));
#336=DIRECTION('',(0.,0.,1.));
#337=DIRECTION('',(1.,0.,0.));
#338=DIRECTION('',(0.,-1.,0.));
#339=DIRECTION('',(0.,0.,-1.));
#340=DIRECTION('',(0.,0.707106781186548,0.707106781186548));
#341=DIRECTION('',(0.,0.,1.));
#342=DIRECTION('',(0.,-1.,0.));
#343=DIRECTION('',(-1.,0.,0.));
#344=DIRECTION('',(0.,0.,1.));
#345=DIRECTION('',(0.,0.,1.));
#346=DIRECTION('',(-1.,0.,0.));
#347=DIRECTION('',(0.,0.,1.));
#348=DIRECTION('',(-1.,0.,0.));
#349=DIRECTION('',(0.,1.,0.));
#350=DIRECTION('',(0.,0.,1.));
#351=DIRECTION('',(0.,0.,-1.));
#352=DIRECTION('',(-1.,0.,0.));
#353=DIRECTION('',(0.,1.,0.));
#354=DIRECTION('',(0.,0.,-1.));
#355=DIRECTION('',(-1.,0.,0.));
#356=DIRECTION('',(0.,0.,1.));
#357=DIRECTION('',(0.,-0.707106781186548,-0.707106781186548));
#358=DIRECTION('',(0.,1.,0.));
#359=DIRECTION('',(1.,0.,0.));
#360=DIRECTION('',(0.,0.,-1.));
#361=DIRECTION('',(0.,0.707106781186547,-0.707106781186547));
#362=DIRECTION('',(-1.,0.,0.));
#363=DIRECTION('',(-1.,0.,0.));
#364=DIRECTION('',(0.,0.,1.));
#365=DIRECTION('',(0.,-1.,0.));
#366=DIRECTION('',(0.,0.,-1.));
#367=DIRECTION('',(0.,0.,-1.));
#368=DIRECTION('',(0.,1.,0.));
#369=DIRECTION('',(-1.,0.,0.));
#370=DIRECTION('',(0.,0.,1.));
#371=DIRECTION('',(0.,0.,-1.));
#372=DIRECTION('',(-1.,0.,0.));
#373=DIRECTION('',(0.,0.,1.));
#374=DIRECTION('',(-0.999999999999998,0.,0.));
#375=DIRECTION('',(0.,0.,-1.));
#376=DIRECTION('',(-1.,0.,0.));
#377=DIRECTION('',(0.,0.,1.));
#378=DIRECTION('',(0.999999999999998,0.,0.));
#379=DIRECTION('',(0.,0.,-1.));
#380=DIRECTION('',(1.,0.,0.));
#381=DIRECTION('',(0.,0.,-1.));
#382=DIRECTION('',(1.,0.,0.));
#383=DIRECTION('',(0.,0.,-1.));
#384=DIRECTION('',(-1.,0.,0.));
#385=DIRECTION('',(0.,0.,-1.));
#386=DIRECTION('',(0.999999999999998,0.,0.));
#387=DIRECTION('',(0.,0.,-1.));
#388=DIRECTION('',(-1.,0.,0.));
#389=DIRECTION('',(0.,0.,-1.));
#390=DIRECTION('',(0.999999999999998,0.,0.));
#391=DIRECTION('',(0.,0.,-1.));
#392=DIRECTION('',(1.,0.,0.));
#393=CARTESIAN_POINT('',(0.,0.,0.));
#394=CARTESIAN_POINT('',(40.5,75.3,143.9));
#395=CARTESIAN_POINT('',(51.25,75.3,143.9));
#396=CARTESIAN_POINT('',(254.2,98.1,143.9));
#397=CARTESIAN_POINT('',(264.45,98.1,143.9));
#398=CARTESIAN_POINT('',(243.9,236.7,143.9));
#399=CARTESIAN_POINT('',(344.5,236.7,143.9));
#400=CARTESIAN_POINT('',(487.8,236.7,143.9));
#401=CARTESIAN_POINT('',(344.5,247.,143.9));
#402=CARTESIAN_POINT('',(334.2,247.,143.9));
#403=CARTESIAN_POINT('',(334.2,178.55,143.9));
#404=CARTESIAN_POINT('',(334.2,357.1,143.9));
#405=CARTESIAN_POINT('',(243.9,357.1,143.9));
#406=CARTESIAN_POINT('',(0.,357.1,143.9));
#407=CARTESIAN_POINT('',(0.,178.55,143.9));
#408=CARTESIAN_POINT('',(0.,6.00000000000001,143.9));
#409=CARTESIAN_POINT('',(243.9,6.00000000000001,143.9));
#410=CARTESIAN_POINT('',(487.8,6.00000000000001,143.9));
#411=CARTESIAN_POINT('',(487.8,178.55,143.9));
#412=CARTESIAN_POINT('',(243.9,178.55,143.9));
#413=CARTESIAN_POINT('',(487.8,0.,0.));
#414=CARTESIAN_POINT('',(487.8,0.,0.));
#415=CARTESIAN_POINT('',(487.8,0.,137.9));
#416=CARTESIAN_POINT('',(243.9,0.,137.9));
#417=CARTESIAN_POINT('',(0.,0.,137.9));
#418=CARTESIAN_POINT('',(0.,0.,0.));
#419=CARTESIAN_POINT('',(0.,0.,0.));
#420=CARTESIAN_POINT('',(243.9,0.,0.));
#421=CARTESIAN_POINT('',(243.9,0.,0.));
#422=CARTESIAN_POINT('',(0.,20.325,158.225));
#423=CARTESIAN_POINT('',(0.,357.1,0.));
#424=CARTESIAN_POINT('',(0.,357.1,0.));
#425=CARTESIAN_POINT('',(0.,178.55,0.));
#426=CARTESIAN_POINT('',(0.,178.55,0.));
#427=CARTESIAN_POINT('',(334.2,357.1,108.2));
#428=CARTESIAN_POINT('',(334.2,357.1,108.2));
#429=CARTESIAN_POINT('',(411.,357.1,108.2));
#430=CARTESIAN_POINT('',(487.8,357.1,108.2));
#431=CARTESIAN_POINT('',(487.8,357.1,0.));
#432=CARTESIAN_POINT('',(487.8,357.1,0.));
#433=CARTESIAN_POINT('',(243.9,357.1,0.));
#434=CARTESIAN_POINT('',(243.9,357.1,0.));
#435=CARTESIAN_POINT('',(40.5,75.3,0.));
#436=CARTESIAN_POINT('',(29.75,75.3,0.));
#437=CARTESIAN_POINT('',(487.8,178.55,0.));
#438=CARTESIAN_POINT('',(243.9,178.55,0.));
#439=CARTESIAN_POINT('',(487.8,236.7,108.2));
#440=CARTESIAN_POINT('',(487.8,236.7,108.2));
#441=CARTESIAN_POINT('',(487.8,20.325,158.225));
#442=CARTESIAN_POINT('',(487.8,296.9,108.2));
#443=CARTESIAN_POINT('',(487.8,178.55,0.));
#444=CARTESIAN_POINT('',(243.9,0.,137.9));
#445=CARTESIAN_POINT('',(411.,236.7,108.2));
#446=CARTESIAN_POINT('',(344.5,236.7,108.2));
#447=CARTESIAN_POINT('',(344.5,236.7,143.9));
#448=CARTESIAN_POINT('',(411.,236.7,108.2));
#449=CARTESIAN_POINT('',(334.2,247.,108.2));
#450=CARTESIAN_POINT('',(334.2,247.,108.2));
#451=CARTESIAN_POINT('',(334.2,296.9,108.2));
#452=CARTESIAN_POINT('',(334.2,296.9,108.2));
#453=CARTESIAN_POINT('',(436.2,325.4,108.2));
#454=CARTESIAN_POINT('',(427.6,325.4,108.2));
#455=CARTESIAN_POINT('',(344.5,247.,108.2));
#456=CARTESIAN_POINT('',(411.,296.9,108.2));
#457=CARTESIAN_POINT('',(344.5,247.,108.2));
#458=CARTESIAN_POINT('',(436.2,325.4,100.7));
#459=CARTESIAN_POINT('',(444.8,325.4,100.7));
#460=CARTESIAN_POINT('',(436.2,325.4,143.95));
#461=CARTESIAN_POINT('',(436.2,325.4,100.7));
#462=CARTESIAN_POINT('',(254.2,98.1,71.1));
#463=CARTESIAN_POINT('',(264.45,98.1,71.1));
#464=CARTESIAN_POINT('',(254.2,98.1,71.1));
#465=CARTESIAN_POINT('',(254.2,98.1,143.95));
#466=CARTESIAN_POINT('',(40.5,75.3,143.95));
#467=MECHANICAL_DESIGN_GEOMETRIC_PRESENTATION_REPRESENTATION('',(#24),#468);
#468=(
GEOMETRIC_REPRESENTATION_CONTEXT(3)
GLOBAL_UNCERTAINTY_ASSIGNED_CONTEXT((#469))
GLOBAL_UNIT_ASSIGNED_CONTEXT((#475,#471,#470))
REPRESENTATION_CONTEXT('featured_part_08048','TOP_LEVEL_ASSEMBLY_PART')
);
#469=UNCERTAINTY_MEASURE_WITH_UNIT(LENGTH_MEASURE(2.E-5),#475,
'DISTANCE_ACCURACY_VALUE','Maximum Tolerance applied to model');
#470=(
NAMED_UNIT(*)
SI_UNIT($,.STERADIAN.)
SOLID_ANGLE_UNIT()
);
#471=(
CONVERSION_BASED_UNIT('DEGREE',#473)
NAMED_UNIT(#472)
PLANE_ANGLE_UNIT()
);
#472=DIMENSIONAL_EXPONENTS(0.,0.,0.,0.,0.,0.,0.);
#473=PLANE_ANGLE_MEASURE_WITH_UNIT(PLANE_ANGLE_MEASURE(0.0174532925),#474);
#474=(
NAMED_UNIT(*)
PLANE_ANGLE_UNIT()
SI_UNIT($,.RADIAN.)
);
#475=(
LENGTH_UNIT()
NAMED_UNIT(*)
SI_UNIT(.MILLI.,.METRE.)
);
ENDSEC;
END-ISO-10303-21;
