ISO-10303-21;
HEADER;
/* Generated by software containing ST-Developer
 * from STEP Tools, Inc. (www.steptools.com) 
 */
/* OPTION: using custom schema-name function */

FILE_DESCRIPTION(
/* description */ (''),
/* implementation_level */ '2;1');

FILE_NAME(
/* name */ 'featured_part_07553.stp',
/* time_stamp */ '2026-07-10T06:19:40-04:00',
/* author */ (''),
/* organization */ (''),
/* preprocessor_version */ 'ST-DEVELOPER v20.1',
/* originating_system */ 'SIEMENS PLM Software NX2512.6002',
/* authorisation */ '');

FILE_SCHEMA (('AUTOMOTIVE_DESIGN { 1 0 10303 214 3 1 1 1 }'));
ENDSEC;

DATA;
#10=SHAPE_REPRESENTATION_RELATIONSHIP('None',
'relationship between featured_part_07553-None and featured_part_07553
-None',#22,#11);
#11=ADVANCED_BREP_SHAPE_REPRESENTATION('featured_part_07553-None',(#32),
#1223);
#12=SHAPE_DEFINITION_REPRESENTATION(#13,#22);
#13=PRODUCT_DEFINITION_SHAPE('','',#14);
#14=PRODUCT_DEFINITION(' ','',#16,#15);
#15=PRODUCT_DEFINITION_CONTEXT('part definition',#21,'design');
#16=PRODUCT_DEFINITION_FORMATION_WITH_SPECIFIED_SOURCE(' ',' ',#18,
 .NOT_KNOWN.);
#17=PRODUCT_RELATED_PRODUCT_CATEGORY('part','',(#18));
#18=PRODUCT('featured_part_07553','featured_part_07553',' ',(#19));
#19=PRODUCT_CONTEXT(' ',#21,'mechanical');
#20=APPLICATION_PROTOCOL_DEFINITION('international standard',
'automotive_design',2010,#21);
#21=APPLICATION_CONTEXT(
'core data for automotive mechanical design processes');
#22=SHAPE_REPRESENTATION('featured_part_07553-None',(#743),#1223);
#23=PRESENTATION_LAYER_ASSIGNMENT('1','Layer 1',(#32));
#24=STYLED_ITEM('',(#25),#32);
#25=PRESENTATION_STYLE_ASSIGNMENT((#26));
#26=SURFACE_STYLE_USAGE(.BOTH.,#27);
#27=SURFACE_SIDE_STYLE('',(#28));
#28=SURFACE_STYLE_FILL_AREA(#29);
#29=FILL_AREA_STYLE('',(#30));
#30=FILL_AREA_STYLE_COLOUR('',#31);
#31=COLOUR_RGB('medium steel',0.611764705882353,0.658823529411765,0.670588235294118);
#32=MANIFOLD_SOLID_BREP('',#33);
#33=CLOSED_SHELL('',(#91,#92,#93,#94,#95,#96,#97,#98,#99,#100,#101,#102,
#103,#104,#105,#106,#107,#108,#109,#110,#111,#112,#113,#114,#115,#116,#117,
#118,#119,#120,#121,#122,#123,#124,#125,#126,#127,#128,#129,#130,#131,#132));
#34=CYLINDRICAL_SURFACE('',#775,11.7);
#35=CYLINDRICAL_SURFACE('',#776,11.7);
#36=CYLINDRICAL_SURFACE('',#789,4.2);
#37=CYLINDRICAL_SURFACE('',#790,4.2);
#38=CYLINDRICAL_SURFACE('',#791,4.2);
#39=CYLINDRICAL_SURFACE('',#792,4.2);
#40=CYLINDRICAL_SURFACE('',#795,9.9);
#41=CYLINDRICAL_SURFACE('',#797,9.9);
#42=CYLINDRICAL_SURFACE('',#801,9.9);
#43=CYLINDRICAL_SURFACE('',#804,9.9);
#44=CYLINDRICAL_SURFACE('',#807,9.9);
#45=CYLINDRICAL_SURFACE('',#810,9.9);
#46=FACE_BOUND('',#198,.T.);
#47=FACE_BOUND('',#199,.T.);
#48=FACE_BOUND('',#200,.T.);
#49=FACE_BOUND('',#201,.T.);
#50=FACE_BOUND('',#202,.T.);
#51=FACE_BOUND('',#203,.T.);
#52=FACE_BOUND('',#216,.T.);
#53=FACE_BOUND('',#217,.T.);
#54=FACE_BOUND('',#234,.T.);
#55=FACE_BOUND('',#235,.T.);
#56=FACE_BOUND('',#236,.T.);
#57=FACE_BOUND('',#237,.T.);
#58=FACE_BOUND('',#240,.T.);
#59=FACE_BOUND('',#241,.T.);
#60=FACE_BOUND('',#243,.T.);
#61=FACE_BOUND('',#244,.T.);
#62=FACE_BOUND('',#246,.T.);
#63=FACE_BOUND('',#247,.T.);
#64=FACE_BOUND('',#249,.T.);
#65=FACE_BOUND('',#250,.T.);
#66=CIRCLE('',#745,9.9);
#67=CIRCLE('',#746,9.9);
#68=CIRCLE('',#747,9.9);
#69=CIRCLE('',#748,9.9);
#70=CIRCLE('',#749,9.9);
#71=CIRCLE('',#750,11.7);
#72=CIRCLE('',#751,11.7);
#73=CIRCLE('',#752,9.9);
#74=CIRCLE('',#766,4.2);
#75=CIRCLE('',#767,4.2);
#76=CIRCLE('',#768,4.2);
#77=CIRCLE('',#769,4.2);
#78=CIRCLE('',#770,9.9);
#79=CIRCLE('',#771,11.7);
#80=CIRCLE('',#772,11.7);
#81=CIRCLE('',#784,4.2);
#82=CIRCLE('',#785,4.2);
#83=CIRCLE('',#786,4.2);
#84=CIRCLE('',#787,4.2);
#85=CIRCLE('',#793,9.9);
#86=CIRCLE('',#796,9.9);
#87=CIRCLE('',#799,9.9);
#88=CIRCLE('',#802,9.9);
#89=CIRCLE('',#805,9.9);
#90=CIRCLE('',#808,9.9);
#91=ADVANCED_FACE('',(#163),#133,.F.);
#92=ADVANCED_FACE('',(#46,#47,#48,#49,#50,#51),#134,.T.);
#93=ADVANCED_FACE('',(#164),#135,.F.);
#94=ADVANCED_FACE('',(#165),#136,.T.);
#95=ADVANCED_FACE('',(#166),#137,.T.);
#96=ADVANCED_FACE('',(#167),#138,.T.);
#97=ADVANCED_FACE('',(#168),#139,.T.);
#98=ADVANCED_FACE('',(#169),#140,.T.);
#99=ADVANCED_FACE('',(#170),#141,.T.);
#100=ADVANCED_FACE('',(#171),#142,.F.);
#101=ADVANCED_FACE('',(#172),#143,.F.);
#102=ADVANCED_FACE('',(#173),#144,.F.);
#103=ADVANCED_FACE('',(#174),#145,.F.);
#104=ADVANCED_FACE('',(#175),#146,.F.);
#105=ADVANCED_FACE('',(#52,#53),#147,.F.);
#106=ADVANCED_FACE('',(#176),#148,.F.);
#107=ADVANCED_FACE('',(#177),#34,.F.);
#108=ADVANCED_FACE('',(#178),#35,.F.);
#109=ADVANCED_FACE('',(#179),#149,.F.);
#110=ADVANCED_FACE('',(#180),#150,.F.);
#111=ADVANCED_FACE('',(#181),#151,.F.);
#112=ADVANCED_FACE('',(#182),#152,.F.);
#113=ADVANCED_FACE('',(#183),#153,.F.);
#114=ADVANCED_FACE('',(#184),#154,.F.);
#115=ADVANCED_FACE('',(#185),#155,.F.);
#116=ADVANCED_FACE('',(#186),#156,.F.);
#117=ADVANCED_FACE('',(#187),#36,.F.);
#118=ADVANCED_FACE('',(#188),#37,.F.);
#119=ADVANCED_FACE('',(#189),#38,.F.);
#120=ADVANCED_FACE('',(#190),#39,.F.);
#121=ADVANCED_FACE('',(#191),#157,.F.);
#122=ADVANCED_FACE('',(#54,#55),#40,.F.);
#123=ADVANCED_FACE('',(#56,#57),#41,.F.);
#124=ADVANCED_FACE('',(#192),#158,.F.);
#125=ADVANCED_FACE('',(#193),#159,.F.);
#126=ADVANCED_FACE('',(#58,#59),#42,.F.);
#127=ADVANCED_FACE('',(#194),#160,.F.);
#128=ADVANCED_FACE('',(#60,#61),#43,.F.);
#129=ADVANCED_FACE('',(#195),#161,.F.);
#130=ADVANCED_FACE('',(#62,#63),#44,.F.);
#131=ADVANCED_FACE('',(#196),#162,.F.);
#132=ADVANCED_FACE('',(#64,#65),#45,.F.);
#133=PLANE('',#744);
#134=PLANE('',#753);
#135=PLANE('',#754);
#136=PLANE('',#755);
#137=PLANE('',#756);
#138=PLANE('',#757);
#139=PLANE('',#758);
#140=PLANE('',#759);
#141=PLANE('',#760);
#142=PLANE('',#761);
#143=PLANE('',#762);
#144=PLANE('',#763);
#145=PLANE('',#764);
#146=PLANE('',#765);
#147=PLANE('',#773);
#148=PLANE('',#774);
#149=PLANE('',#777);
#150=PLANE('',#778);
#151=PLANE('',#779);
#152=PLANE('',#780);
#153=PLANE('',#781);
#154=PLANE('',#782);
#155=PLANE('',#783);
#156=PLANE('',#788);
#157=PLANE('',#794);
#158=PLANE('',#798);
#159=PLANE('',#800);
#160=PLANE('',#803);
#161=PLANE('',#806);
#162=PLANE('',#809);
#163=FACE_OUTER_BOUND('',#197,.T.);
#164=FACE_OUTER_BOUND('',#204,.T.);
#165=FACE_OUTER_BOUND('',#205,.T.);
#166=FACE_OUTER_BOUND('',#206,.T.);
#167=FACE_OUTER_BOUND('',#207,.T.);
#168=FACE_OUTER_BOUND('',#208,.T.);
#169=FACE_OUTER_BOUND('',#209,.T.);
#170=FACE_OUTER_BOUND('',#210,.T.);
#171=FACE_OUTER_BOUND('',#211,.T.);
#172=FACE_OUTER_BOUND('',#212,.T.);
#173=FACE_OUTER_BOUND('',#213,.T.);
#174=FACE_OUTER_BOUND('',#214,.T.);
#175=FACE_OUTER_BOUND('',#215,.T.);
#176=FACE_OUTER_BOUND('',#218,.T.);
#177=FACE_OUTER_BOUND('',#219,.T.);
#178=FACE_OUTER_BOUND('',#220,.T.);
#179=FACE_OUTER_BOUND('',#221,.T.);
#180=FACE_OUTER_BOUND('',#222,.T.);
#181=FACE_OUTER_BOUND('',#223,.T.);
#182=FACE_OUTER_BOUND('',#224,.T.);
#183=FACE_OUTER_BOUND('',#225,.T.);
#184=FACE_OUTER_BOUND('',#226,.T.);
#185=FACE_OUTER_BOUND('',#227,.T.);
#186=FACE_OUTER_BOUND('',#228,.T.);
#187=FACE_OUTER_BOUND('',#229,.T.);
#188=FACE_OUTER_BOUND('',#230,.T.);
#189=FACE_OUTER_BOUND('',#231,.T.);
#190=FACE_OUTER_BOUND('',#232,.T.);
#191=FACE_OUTER_BOUND('',#233,.T.);
#192=FACE_OUTER_BOUND('',#238,.T.);
#193=FACE_OUTER_BOUND('',#239,.T.);
#194=FACE_OUTER_BOUND('',#242,.T.);
#195=FACE_OUTER_BOUND('',#245,.T.);
#196=FACE_OUTER_BOUND('',#248,.T.);
#197=EDGE_LOOP('',(#251,#252,#253,#254));
#198=EDGE_LOOP('',(#255));
#199=EDGE_LOOP('',(#256));
#200=EDGE_LOOP('',(#257));
#201=EDGE_LOOP('',(#258));
#202=EDGE_LOOP('',(#259,#260,#261,#262,#263,#264,#265,#266,#267,#268,#269,
#270));
#203=EDGE_LOOP('',(#271));
#204=EDGE_LOOP('',(#272,#273,#274,#275,#276));
#205=EDGE_LOOP('',(#277,#278,#279,#280));
#206=EDGE_LOOP('',(#281,#282,#283,#284,#285));
#207=EDGE_LOOP('',(#286,#287,#288,#289,#290,#291,#292,#293,#294,#295));
#208=EDGE_LOOP('',(#296,#297,#298,#299,#300));
#209=EDGE_LOOP('',(#301,#302,#303,#304));
#210=EDGE_LOOP('',(#305,#306,#307,#308,#309,#310,#311,#312));
#211=EDGE_LOOP('',(#313,#314,#315,#316,#317,#318,#319,#320));
#212=EDGE_LOOP('',(#321,#322,#323,#324,#325));
#213=EDGE_LOOP('',(#326,#327,#328,#329));
#214=EDGE_LOOP('',(#330,#331,#332,#333));
#215=EDGE_LOOP('',(#334,#335,#336,#337));
#216=EDGE_LOOP('',(#338,#339,#340,#341,#342,#343,#344,#345));
#217=EDGE_LOOP('',(#346,#347,#348,#349,#350,#351,#352,#353));
#218=EDGE_LOOP('',(#354,#355,#356,#357));
#219=EDGE_LOOP('',(#358,#359,#360,#361));
#220=EDGE_LOOP('',(#362,#363,#364,#365));
#221=EDGE_LOOP('',(#366,#367,#368,#369,#370));
#222=EDGE_LOOP('',(#371,#372,#373,#374,#375));
#223=EDGE_LOOP('',(#376,#377,#378,#379));
#224=EDGE_LOOP('',(#380,#381,#382,#383));
#225=EDGE_LOOP('',(#384,#385,#386,#387));
#226=EDGE_LOOP('',(#388,#389,#390,#391));
#227=EDGE_LOOP('',(#392,#393,#394,#395));
#228=EDGE_LOOP('',(#396,#397,#398,#399,#400,#401,#402,#403));
#229=EDGE_LOOP('',(#404,#405,#406,#407));
#230=EDGE_LOOP('',(#408,#409,#410,#411));
#231=EDGE_LOOP('',(#412,#413,#414,#415));
#232=EDGE_LOOP('',(#416,#417,#418,#419));
#233=EDGE_LOOP('',(#420));
#234=EDGE_LOOP('',(#421));
#235=EDGE_LOOP('',(#422));
#236=EDGE_LOOP('',(#423));
#237=EDGE_LOOP('',(#424,#425,#426,#427));
#238=EDGE_LOOP('',(#428));
#239=EDGE_LOOP('',(#429));
#240=EDGE_LOOP('',(#430));
#241=EDGE_LOOP('',(#431));
#242=EDGE_LOOP('',(#432));
#243=EDGE_LOOP('',(#433));
#244=EDGE_LOOP('',(#434));
#245=EDGE_LOOP('',(#435));
#246=EDGE_LOOP('',(#436));
#247=EDGE_LOOP('',(#437));
#248=EDGE_LOOP('',(#438));
#249=EDGE_LOOP('',(#439));
#250=EDGE_LOOP('',(#440));
#251=ORIENTED_EDGE('',*,*,#508,.T.);
#252=ORIENTED_EDGE('',*,*,#509,.T.);
#253=ORIENTED_EDGE('',*,*,#510,.T.);
#254=ORIENTED_EDGE('',*,*,#511,.T.);
#255=ORIENTED_EDGE('',*,*,#512,.F.);
#256=ORIENTED_EDGE('',*,*,#513,.F.);
#257=ORIENTED_EDGE('',*,*,#514,.F.);
#258=ORIENTED_EDGE('',*,*,#515,.F.);
#259=ORIENTED_EDGE('',*,*,#516,.F.);
#260=ORIENTED_EDGE('',*,*,#508,.F.);
#261=ORIENTED_EDGE('',*,*,#517,.T.);
#262=ORIENTED_EDGE('',*,*,#518,.T.);
#263=ORIENTED_EDGE('',*,*,#519,.F.);
#264=ORIENTED_EDGE('',*,*,#520,.F.);
#265=ORIENTED_EDGE('',*,*,#521,.T.);
#266=ORIENTED_EDGE('',*,*,#522,.F.);
#267=ORIENTED_EDGE('',*,*,#523,.T.);
#268=ORIENTED_EDGE('',*,*,#524,.F.);
#269=ORIENTED_EDGE('',*,*,#525,.T.);
#270=ORIENTED_EDGE('',*,*,#526,.F.);
#271=ORIENTED_EDGE('',*,*,#527,.F.);
#272=ORIENTED_EDGE('',*,*,#528,.F.);
#273=ORIENTED_EDGE('',*,*,#518,.F.);
#274=ORIENTED_EDGE('',*,*,#529,.F.);
#275=ORIENTED_EDGE('',*,*,#530,.F.);
#276=ORIENTED_EDGE('',*,*,#531,.F.);
#277=ORIENTED_EDGE('',*,*,#532,.F.);
#278=ORIENTED_EDGE('',*,*,#533,.T.);
#279=ORIENTED_EDGE('',*,*,#534,.T.);
#280=ORIENTED_EDGE('',*,*,#535,.F.);
#281=ORIENTED_EDGE('',*,*,#536,.T.);
#282=ORIENTED_EDGE('',*,*,#530,.T.);
#283=ORIENTED_EDGE('',*,*,#537,.T.);
#284=ORIENTED_EDGE('',*,*,#538,.F.);
#285=ORIENTED_EDGE('',*,*,#539,.T.);
#286=ORIENTED_EDGE('',*,*,#540,.F.);
#287=ORIENTED_EDGE('',*,*,#541,.F.);
#288=ORIENTED_EDGE('',*,*,#542,.F.);
#289=ORIENTED_EDGE('',*,*,#535,.T.);
#290=ORIENTED_EDGE('',*,*,#543,.T.);
#291=ORIENTED_EDGE('',*,*,#544,.F.);
#292=ORIENTED_EDGE('',*,*,#545,.T.);
#293=ORIENTED_EDGE('',*,*,#538,.T.);
#294=ORIENTED_EDGE('',*,*,#546,.T.);
#295=ORIENTED_EDGE('',*,*,#520,.T.);
#296=ORIENTED_EDGE('',*,*,#544,.T.);
#297=ORIENTED_EDGE('',*,*,#547,.T.);
#298=ORIENTED_EDGE('',*,*,#548,.T.);
#299=ORIENTED_EDGE('',*,*,#549,.F.);
#300=ORIENTED_EDGE('',*,*,#550,.T.);
#301=ORIENTED_EDGE('',*,*,#551,.F.);
#302=ORIENTED_EDGE('',*,*,#539,.F.);
#303=ORIENTED_EDGE('',*,*,#545,.F.);
#304=ORIENTED_EDGE('',*,*,#550,.F.);
#305=ORIENTED_EDGE('',*,*,#552,.F.);
#306=ORIENTED_EDGE('',*,*,#531,.T.);
#307=ORIENTED_EDGE('',*,*,#536,.F.);
#308=ORIENTED_EDGE('',*,*,#551,.T.);
#309=ORIENTED_EDGE('',*,*,#549,.T.);
#310=ORIENTED_EDGE('',*,*,#553,.T.);
#311=ORIENTED_EDGE('',*,*,#554,.F.);
#312=ORIENTED_EDGE('',*,*,#555,.F.);
#313=ORIENTED_EDGE('',*,*,#556,.F.);
#314=ORIENTED_EDGE('',*,*,#521,.F.);
#315=ORIENTED_EDGE('',*,*,#546,.F.);
#316=ORIENTED_EDGE('',*,*,#537,.F.);
#317=ORIENTED_EDGE('',*,*,#529,.T.);
#318=ORIENTED_EDGE('',*,*,#517,.F.);
#319=ORIENTED_EDGE('',*,*,#511,.F.);
#320=ORIENTED_EDGE('',*,*,#557,.F.);
#321=ORIENTED_EDGE('',*,*,#558,.F.);
#322=ORIENTED_EDGE('',*,*,#553,.F.);
#323=ORIENTED_EDGE('',*,*,#548,.F.);
#324=ORIENTED_EDGE('',*,*,#559,.T.);
#325=ORIENTED_EDGE('',*,*,#533,.F.);
#326=ORIENTED_EDGE('',*,*,#543,.F.);
#327=ORIENTED_EDGE('',*,*,#534,.F.);
#328=ORIENTED_EDGE('',*,*,#559,.F.);
#329=ORIENTED_EDGE('',*,*,#547,.F.);
#330=ORIENTED_EDGE('',*,*,#560,.T.);
#331=ORIENTED_EDGE('',*,*,#561,.T.);
#332=ORIENTED_EDGE('',*,*,#522,.T.);
#333=ORIENTED_EDGE('',*,*,#556,.T.);
#334=ORIENTED_EDGE('',*,*,#524,.T.);
#335=ORIENTED_EDGE('',*,*,#562,.T.);
#336=ORIENTED_EDGE('',*,*,#563,.T.);
#337=ORIENTED_EDGE('',*,*,#564,.T.);
#338=ORIENTED_EDGE('',*,*,#565,.T.);
#339=ORIENTED_EDGE('',*,*,#566,.T.);
#340=ORIENTED_EDGE('',*,*,#567,.T.);
#341=ORIENTED_EDGE('',*,*,#568,.T.);
#342=ORIENTED_EDGE('',*,*,#569,.T.);
#343=ORIENTED_EDGE('',*,*,#570,.T.);
#344=ORIENTED_EDGE('',*,*,#571,.T.);
#345=ORIENTED_EDGE('',*,*,#572,.T.);
#346=ORIENTED_EDGE('',*,*,#510,.F.);
#347=ORIENTED_EDGE('',*,*,#573,.T.);
#348=ORIENTED_EDGE('',*,*,#574,.F.);
#349=ORIENTED_EDGE('',*,*,#575,.T.);
#350=ORIENTED_EDGE('',*,*,#563,.F.);
#351=ORIENTED_EDGE('',*,*,#576,.T.);
#352=ORIENTED_EDGE('',*,*,#560,.F.);
#353=ORIENTED_EDGE('',*,*,#557,.T.);
#354=ORIENTED_EDGE('',*,*,#574,.T.);
#355=ORIENTED_EDGE('',*,*,#577,.T.);
#356=ORIENTED_EDGE('',*,*,#526,.T.);
#357=ORIENTED_EDGE('',*,*,#578,.T.);
#358=ORIENTED_EDGE('',*,*,#523,.F.);
#359=ORIENTED_EDGE('',*,*,#561,.F.);
#360=ORIENTED_EDGE('',*,*,#576,.F.);
#361=ORIENTED_EDGE('',*,*,#562,.F.);
#362=ORIENTED_EDGE('',*,*,#525,.F.);
#363=ORIENTED_EDGE('',*,*,#564,.F.);
#364=ORIENTED_EDGE('',*,*,#575,.F.);
#365=ORIENTED_EDGE('',*,*,#578,.F.);
#366=ORIENTED_EDGE('',*,*,#540,.T.);
#367=ORIENTED_EDGE('',*,*,#519,.T.);
#368=ORIENTED_EDGE('',*,*,#528,.T.);
#369=ORIENTED_EDGE('',*,*,#552,.T.);
#370=ORIENTED_EDGE('',*,*,#579,.T.);
#371=ORIENTED_EDGE('',*,*,#542,.T.);
#372=ORIENTED_EDGE('',*,*,#580,.T.);
#373=ORIENTED_EDGE('',*,*,#554,.T.);
#374=ORIENTED_EDGE('',*,*,#558,.T.);
#375=ORIENTED_EDGE('',*,*,#532,.T.);
#376=ORIENTED_EDGE('',*,*,#541,.T.);
#377=ORIENTED_EDGE('',*,*,#579,.F.);
#378=ORIENTED_EDGE('',*,*,#555,.T.);
#379=ORIENTED_EDGE('',*,*,#580,.F.);
#380=ORIENTED_EDGE('',*,*,#569,.F.);
#381=ORIENTED_EDGE('',*,*,#581,.T.);
#382=ORIENTED_EDGE('',*,*,#582,.T.);
#383=ORIENTED_EDGE('',*,*,#583,.T.);
#384=ORIENTED_EDGE('',*,*,#584,.T.);
#385=ORIENTED_EDGE('',*,*,#585,.T.);
#386=ORIENTED_EDGE('',*,*,#571,.F.);
#387=ORIENTED_EDGE('',*,*,#586,.T.);
#388=ORIENTED_EDGE('',*,*,#565,.F.);
#389=ORIENTED_EDGE('',*,*,#587,.T.);
#390=ORIENTED_EDGE('',*,*,#588,.T.);
#391=ORIENTED_EDGE('',*,*,#589,.T.);
#392=ORIENTED_EDGE('',*,*,#590,.T.);
#393=ORIENTED_EDGE('',*,*,#591,.T.);
#394=ORIENTED_EDGE('',*,*,#567,.F.);
#395=ORIENTED_EDGE('',*,*,#592,.T.);
#396=ORIENTED_EDGE('',*,*,#582,.F.);
#397=ORIENTED_EDGE('',*,*,#593,.T.);
#398=ORIENTED_EDGE('',*,*,#590,.F.);
#399=ORIENTED_EDGE('',*,*,#594,.T.);
#400=ORIENTED_EDGE('',*,*,#588,.F.);
#401=ORIENTED_EDGE('',*,*,#595,.T.);
#402=ORIENTED_EDGE('',*,*,#584,.F.);
#403=ORIENTED_EDGE('',*,*,#596,.T.);
#404=ORIENTED_EDGE('',*,*,#568,.F.);
#405=ORIENTED_EDGE('',*,*,#591,.F.);
#406=ORIENTED_EDGE('',*,*,#593,.F.);
#407=ORIENTED_EDGE('',*,*,#581,.F.);
#408=ORIENTED_EDGE('',*,*,#572,.F.);
#409=ORIENTED_EDGE('',*,*,#585,.F.);
#410=ORIENTED_EDGE('',*,*,#595,.F.);
#411=ORIENTED_EDGE('',*,*,#587,.F.);
#412=ORIENTED_EDGE('',*,*,#566,.F.);
#413=ORIENTED_EDGE('',*,*,#589,.F.);
#414=ORIENTED_EDGE('',*,*,#594,.F.);
#415=ORIENTED_EDGE('',*,*,#592,.F.);
#416=ORIENTED_EDGE('',*,*,#570,.F.);
#417=ORIENTED_EDGE('',*,*,#583,.F.);
#418=ORIENTED_EDGE('',*,*,#596,.F.);
#419=ORIENTED_EDGE('',*,*,#586,.F.);
#420=ORIENTED_EDGE('',*,*,#597,.F.);
#421=ORIENTED_EDGE('',*,*,#527,.T.);
#422=ORIENTED_EDGE('',*,*,#597,.T.);
#423=ORIENTED_EDGE('',*,*,#598,.T.);
#424=ORIENTED_EDGE('',*,*,#516,.T.);
#425=ORIENTED_EDGE('',*,*,#577,.F.);
#426=ORIENTED_EDGE('',*,*,#573,.F.);
#427=ORIENTED_EDGE('',*,*,#509,.F.);
#428=ORIENTED_EDGE('',*,*,#598,.F.);
#429=ORIENTED_EDGE('',*,*,#599,.F.);
#430=ORIENTED_EDGE('',*,*,#515,.T.);
#431=ORIENTED_EDGE('',*,*,#599,.T.);
#432=ORIENTED_EDGE('',*,*,#600,.F.);
#433=ORIENTED_EDGE('',*,*,#514,.T.);
#434=ORIENTED_EDGE('',*,*,#600,.T.);
#435=ORIENTED_EDGE('',*,*,#601,.F.);
#436=ORIENTED_EDGE('',*,*,#513,.T.);
#437=ORIENTED_EDGE('',*,*,#601,.T.);
#438=ORIENTED_EDGE('',*,*,#602,.F.);
#439=ORIENTED_EDGE('',*,*,#512,.T.);
#440=ORIENTED_EDGE('',*,*,#602,.T.);
#441=VERTEX_POINT('',#1019);
#442=VERTEX_POINT('',#1020);
#443=VERTEX_POINT('',#1022);
#444=VERTEX_POINT('',#1024);
#445=VERTEX_POINT('',#1028);
#446=VERTEX_POINT('',#1030);
#447=VERTEX_POINT('',#1032);
#448=VERTEX_POINT('',#1034);
#449=VERTEX_POINT('',#1036);
#450=VERTEX_POINT('',#1038);
#451=VERTEX_POINT('',#1040);
#452=VERTEX_POINT('',#1042);
#453=VERTEX_POINT('',#1044);
#454=VERTEX_POINT('',#1046);
#455=VERTEX_POINT('',#1048);
#456=VERTEX_POINT('',#1050);
#457=VERTEX_POINT('',#1052);
#458=VERTEX_POINT('',#1054);
#459=VERTEX_POINT('',#1057);
#460=VERTEX_POINT('',#1060);
#461=VERTEX_POINT('',#1062);
#462=VERTEX_POINT('',#1064);
#463=VERTEX_POINT('',#1068);
#464=VERTEX_POINT('',#1069);
#465=VERTEX_POINT('',#1071);
#466=VERTEX_POINT('',#1073);
#467=VERTEX_POINT('',#1077);
#468=VERTEX_POINT('',#1079);
#469=VERTEX_POINT('',#1081);
#470=VERTEX_POINT('',#1085);
#471=VERTEX_POINT('',#1087);
#472=VERTEX_POINT('',#1090);
#473=VERTEX_POINT('',#1092);
#474=VERTEX_POINT('',#1097);
#475=VERTEX_POINT('',#1099);
#476=VERTEX_POINT('',#1101);
#477=VERTEX_POINT('',#1107);
#478=VERTEX_POINT('',#1109);
#479=VERTEX_POINT('',#1111);
#480=VERTEX_POINT('',#1115);
#481=VERTEX_POINT('',#1123);
#482=VERTEX_POINT('',#1127);
#483=VERTEX_POINT('',#1129);
#484=VERTEX_POINT('',#1133);
#485=VERTEX_POINT('',#1134);
#486=VERTEX_POINT('',#1136);
#487=VERTEX_POINT('',#1138);
#488=VERTEX_POINT('',#1140);
#489=VERTEX_POINT('',#1142);
#490=VERTEX_POINT('',#1144);
#491=VERTEX_POINT('',#1146);
#492=VERTEX_POINT('',#1149);
#493=VERTEX_POINT('',#1151);
#494=VERTEX_POINT('',#1166);
#495=VERTEX_POINT('',#1168);
#496=VERTEX_POINT('',#1172);
#497=VERTEX_POINT('',#1173);
#498=VERTEX_POINT('',#1178);
#499=VERTEX_POINT('',#1180);
#500=VERTEX_POINT('',#1184);
#501=VERTEX_POINT('',#1185);
#502=VERTEX_POINT('',#1199);
#503=VERTEX_POINT('',#1203);
#504=VERTEX_POINT('',#1207);
#505=VERTEX_POINT('',#1211);
#506=VERTEX_POINT('',#1215);
#507=VERTEX_POINT('',#1219);
#508=EDGE_CURVE('',#441,#442,#603,.T.);
#509=EDGE_CURVE('',#442,#443,#604,.T.);
#510=EDGE_CURVE('',#443,#444,#605,.T.);
#511=EDGE_CURVE('',#444,#441,#606,.T.);
#512=EDGE_CURVE('',#445,#445,#66,.T.);
#513=EDGE_CURVE('',#446,#446,#67,.T.);
#514=EDGE_CURVE('',#447,#447,#68,.T.);
#515=EDGE_CURVE('',#448,#448,#69,.T.);
#516=EDGE_CURVE('',#442,#449,#70,.T.);
#517=EDGE_CURVE('',#441,#450,#607,.T.);
#518=EDGE_CURVE('',#450,#451,#608,.T.);
#519=EDGE_CURVE('',#452,#451,#609,.T.);
#520=EDGE_CURVE('',#453,#452,#610,.T.);
#521=EDGE_CURVE('',#453,#454,#611,.T.);
#522=EDGE_CURVE('',#455,#454,#612,.T.);
#523=EDGE_CURVE('',#455,#456,#71,.T.);
#524=EDGE_CURVE('',#457,#456,#613,.T.);
#525=EDGE_CURVE('',#457,#458,#72,.T.);
#526=EDGE_CURVE('',#449,#458,#614,.T.);
#527=EDGE_CURVE('',#459,#459,#73,.T.);
#528=EDGE_CURVE('',#451,#460,#615,.T.);
#529=EDGE_CURVE('',#461,#450,#616,.T.);
#530=EDGE_CURVE('',#462,#461,#617,.T.);
#531=EDGE_CURVE('',#460,#462,#618,.T.);
#532=EDGE_CURVE('',#463,#464,#619,.T.);
#533=EDGE_CURVE('',#463,#465,#620,.T.);
#534=EDGE_CURVE('',#465,#466,#621,.T.);
#535=EDGE_CURVE('',#464,#466,#622,.T.);
#536=EDGE_CURVE('',#467,#462,#623,.T.);
#537=EDGE_CURVE('',#461,#468,#624,.T.);
#538=EDGE_CURVE('',#469,#468,#625,.T.);
#539=EDGE_CURVE('',#469,#467,#626,.T.);
#540=EDGE_CURVE('',#470,#452,#627,.T.);
#541=EDGE_CURVE('',#471,#470,#628,.T.);
#542=EDGE_CURVE('',#464,#471,#629,.T.);
#543=EDGE_CURVE('',#466,#472,#630,.T.);
#544=EDGE_CURVE('',#473,#472,#631,.T.);
#545=EDGE_CURVE('',#473,#469,#632,.T.);
#546=EDGE_CURVE('',#468,#453,#633,.T.);
#547=EDGE_CURVE('',#472,#474,#634,.T.);
#548=EDGE_CURVE('',#474,#475,#635,.T.);
#549=EDGE_CURVE('',#476,#475,#636,.T.);
#550=EDGE_CURVE('',#476,#473,#637,.T.);
#551=EDGE_CURVE('',#467,#476,#638,.T.);
#552=EDGE_CURVE('',#460,#477,#639,.T.);
#553=EDGE_CURVE('',#475,#478,#640,.T.);
#554=EDGE_CURVE('',#479,#478,#641,.T.);
#555=EDGE_CURVE('',#477,#479,#642,.T.);
#556=EDGE_CURVE('',#454,#480,#643,.T.);
#557=EDGE_CURVE('',#480,#444,#644,.T.);
#558=EDGE_CURVE('',#478,#463,#645,.T.);
#559=EDGE_CURVE('',#474,#465,#646,.T.);
#560=EDGE_CURVE('',#480,#481,#647,.T.);
#561=EDGE_CURVE('',#481,#455,#648,.T.);
#562=EDGE_CURVE('',#456,#482,#649,.T.);
#563=EDGE_CURVE('',#482,#483,#650,.T.);
#564=EDGE_CURVE('',#483,#457,#651,.T.);
#565=EDGE_CURVE('',#484,#485,#652,.T.);
#566=EDGE_CURVE('',#485,#486,#74,.T.);
#567=EDGE_CURVE('',#486,#487,#653,.T.);
#568=EDGE_CURVE('',#487,#488,#75,.T.);
#569=EDGE_CURVE('',#488,#489,#654,.T.);
#570=EDGE_CURVE('',#489,#490,#76,.T.);
#571=EDGE_CURVE('',#490,#491,#655,.T.);
#572=EDGE_CURVE('',#491,#484,#77,.T.);
#573=EDGE_CURVE('',#443,#492,#78,.T.);
#574=EDGE_CURVE('',#493,#492,#656,.T.);
#575=EDGE_CURVE('',#493,#483,#79,.T.);
#576=EDGE_CURVE('',#482,#481,#80,.T.);
#577=EDGE_CURVE('',#492,#449,#657,.T.);
#578=EDGE_CURVE('',#458,#493,#658,.T.);
#579=EDGE_CURVE('',#477,#470,#659,.T.);
#580=EDGE_CURVE('',#471,#479,#660,.T.);
#581=EDGE_CURVE('',#488,#494,#661,.T.);
#582=EDGE_CURVE('',#494,#495,#662,.T.);
#583=EDGE_CURVE('',#495,#489,#663,.T.);
#584=EDGE_CURVE('',#496,#497,#664,.T.);
#585=EDGE_CURVE('',#497,#491,#665,.T.);
#586=EDGE_CURVE('',#490,#496,#666,.T.);
#587=EDGE_CURVE('',#484,#498,#667,.T.);
#588=EDGE_CURVE('',#498,#499,#668,.T.);
#589=EDGE_CURVE('',#499,#485,#669,.T.);
#590=EDGE_CURVE('',#500,#501,#670,.T.);
#591=EDGE_CURVE('',#501,#487,#671,.T.);
#592=EDGE_CURVE('',#486,#500,#672,.T.);
#593=EDGE_CURVE('',#494,#501,#81,.T.);
#594=EDGE_CURVE('',#500,#499,#82,.T.);
#595=EDGE_CURVE('',#498,#497,#83,.T.);
#596=EDGE_CURVE('',#496,#495,#84,.T.);
#597=EDGE_CURVE('',#502,#502,#85,.T.);
#598=EDGE_CURVE('',#503,#503,#86,.T.);
#599=EDGE_CURVE('',#504,#504,#87,.T.);
#600=EDGE_CURVE('',#505,#505,#88,.T.);
#601=EDGE_CURVE('',#506,#506,#89,.T.);
#602=EDGE_CURVE('',#507,#507,#90,.T.);
#603=LINE('',#1018,#673);
#604=LINE('',#1021,#674);
#605=LINE('',#1023,#675);
#606=LINE('',#1025,#676);
#607=LINE('',#1037,#677);
#608=LINE('',#1039,#678);
#609=LINE('',#1041,#679);
#610=LINE('',#1043,#680);
#611=LINE('',#1045,#681);
#612=LINE('',#1047,#682);
#613=LINE('',#1051,#683);
#614=LINE('',#1055,#684);
#615=LINE('',#1059,#685);
#616=LINE('',#1061,#686);
#617=LINE('',#1063,#687);
#618=LINE('',#1065,#688);
#619=LINE('',#1067,#689);
#620=LINE('',#1070,#690);
#621=LINE('',#1072,#691);
#622=LINE('',#1074,#692);
#623=LINE('',#1076,#693);
#624=LINE('',#1078,#694);
#625=LINE('',#1080,#695);
#626=LINE('',#1082,#696);
#627=LINE('',#1084,#697);
#628=LINE('',#1086,#698);
#629=LINE('',#1088,#699);
#630=LINE('',#1089,#700);
#631=LINE('',#1091,#701);
#632=LINE('',#1093,#702);
#633=LINE('',#1094,#703);
#634=LINE('',#1096,#704);
#635=LINE('',#1098,#705);
#636=LINE('',#1100,#706);
#637=LINE('',#1102,#707);
#638=LINE('',#1104,#708);
#639=LINE('',#1106,#709);
#640=LINE('',#1108,#710);
#641=LINE('',#1110,#711);
#642=LINE('',#1112,#712);
#643=LINE('',#1114,#713);
#644=LINE('',#1116,#714);
#645=LINE('',#1118,#715);
#646=LINE('',#1119,#716);
#647=LINE('',#1122,#717);
#648=LINE('',#1124,#718);
#649=LINE('',#1126,#719);
#650=LINE('',#1128,#720);
#651=LINE('',#1130,#721);
#652=LINE('',#1132,#722);
#653=LINE('',#1137,#723);
#654=LINE('',#1141,#724);
#655=LINE('',#1145,#725);
#656=LINE('',#1150,#726);
#657=LINE('',#1155,#727);
#658=LINE('',#1156,#728);
#659=LINE('',#1160,#729);
#660=LINE('',#1162,#730);
#661=LINE('',#1165,#731);
#662=LINE('',#1167,#732);
#663=LINE('',#1169,#733);
#664=LINE('',#1171,#734);
#665=LINE('',#1174,#735);
#666=LINE('',#1175,#736);
#667=LINE('',#1177,#737);
#668=LINE('',#1179,#738);
#669=LINE('',#1181,#739);
#670=LINE('',#1183,#740);
#671=LINE('',#1186,#741);
#672=LINE('',#1187,#742);
#673=VECTOR('',#813,1.);
#674=VECTOR('',#814,1.);
#675=VECTOR('',#815,1.);
#676=VECTOR('',#816,1.);
#677=VECTOR('',#829,1.);
#678=VECTOR('',#830,1.);
#679=VECTOR('',#831,1.);
#680=VECTOR('',#832,1.);
#681=VECTOR('',#833,1.);
#682=VECTOR('',#834,1.);
#683=VECTOR('',#837,1.);
#684=VECTOR('',#840,1.);
#685=VECTOR('',#845,1.);
#686=VECTOR('',#846,1.);
#687=VECTOR('',#847,1.);
#688=VECTOR('',#848,1.);
#689=VECTOR('',#851,1.);
#690=VECTOR('',#852,1.);
#691=VECTOR('',#853,1.);
#692=VECTOR('',#854,1.);
#693=VECTOR('',#857,1.);
#694=VECTOR('',#858,1.);
#695=VECTOR('',#859,1.);
#696=VECTOR('',#860,1.);
#697=VECTOR('',#863,1.);
#698=VECTOR('',#864,1.);
#699=VECTOR('',#865,1.);
#700=VECTOR('',#866,1.);
#701=VECTOR('',#867,1.);
#702=VECTOR('',#868,1.);
#703=VECTOR('',#869,1.);
#704=VECTOR('',#872,1.);
#705=VECTOR('',#873,1.);
#706=VECTOR('',#874,1.);
#707=VECTOR('',#875,1.);
#708=VECTOR('',#878,1.);
#709=VECTOR('',#881,1.);
#710=VECTOR('',#882,1.);
#711=VECTOR('',#883,1.);
#712=VECTOR('',#884,1.);
#713=VECTOR('',#887,1.);
#714=VECTOR('',#888,1.);
#715=VECTOR('',#891,1.);
#716=VECTOR('',#892,1.);
#717=VECTOR('',#897,1.);
#718=VECTOR('',#898,1.);
#719=VECTOR('',#901,1.);
#720=VECTOR('',#902,1.);
#721=VECTOR('',#903,1.);
#722=VECTOR('',#906,1.);
#723=VECTOR('',#909,1.);
#724=VECTOR('',#912,1.);
#725=VECTOR('',#915,1.);
#726=VECTOR('',#920,1.);
#727=VECTOR('',#927,1.);
#728=VECTOR('',#928,1.);
#729=VECTOR('',#935,1.);
#730=VECTOR('',#938,1.);
#731=VECTOR('',#943,1.);
#732=VECTOR('',#944,1.);
#733=VECTOR('',#945,1.);
#734=VECTOR('',#948,1.);
#735=VECTOR('',#949,1.);
#736=VECTOR('',#950,1.);
#737=VECTOR('',#953,1.);
#738=VECTOR('',#954,1.);
#739=VECTOR('',#955,1.);
#740=VECTOR('',#958,1.);
#741=VECTOR('',#959,1.);
#742=VECTOR('',#960,1.);
#743=AXIS2_PLACEMENT_3D('',#1017,#811,#812);
#744=AXIS2_PLACEMENT_3D('',#1026,#817,#818);
#745=AXIS2_PLACEMENT_3D('',#1027,#819,#820);
#746=AXIS2_PLACEMENT_3D('',#1029,#821,#822);
#747=AXIS2_PLACEMENT_3D('',#1031,#823,#824);
#748=AXIS2_PLACEMENT_3D('',#1033,#825,#826);
#749=AXIS2_PLACEMENT_3D('',#1035,#827,#828);
#750=AXIS2_PLACEMENT_3D('',#1049,#835,#836);
#751=AXIS2_PLACEMENT_3D('',#1053,#838,#839);
#752=AXIS2_PLACEMENT_3D('',#1056,#841,#842);
#753=AXIS2_PLACEMENT_3D('',#1058,#843,#844);
#754=AXIS2_PLACEMENT_3D('',#1066,#849,#850);
#755=AXIS2_PLACEMENT_3D('',#1075,#855,#856);
#756=AXIS2_PLACEMENT_3D('',#1083,#861,#862);
#757=AXIS2_PLACEMENT_3D('',#1095,#870,#871);
#758=AXIS2_PLACEMENT_3D('',#1103,#876,#877);
#759=AXIS2_PLACEMENT_3D('',#1105,#879,#880);
#760=AXIS2_PLACEMENT_3D('',#1113,#885,#886);
#761=AXIS2_PLACEMENT_3D('',#1117,#889,#890);
#762=AXIS2_PLACEMENT_3D('',#1120,#893,#894);
#763=AXIS2_PLACEMENT_3D('',#1121,#895,#896);
#764=AXIS2_PLACEMENT_3D('',#1125,#899,#900);
#765=AXIS2_PLACEMENT_3D('',#1131,#904,#905);
#766=AXIS2_PLACEMENT_3D('',#1135,#907,#908);
#767=AXIS2_PLACEMENT_3D('',#1139,#910,#911);
#768=AXIS2_PLACEMENT_3D('',#1143,#913,#914);
#769=AXIS2_PLACEMENT_3D('',#1147,#916,#917);
#770=AXIS2_PLACEMENT_3D('',#1148,#918,#919);
#771=AXIS2_PLACEMENT_3D('',#1152,#921,#922);
#772=AXIS2_PLACEMENT_3D('',#1153,#923,#924);
#773=AXIS2_PLACEMENT_3D('',#1154,#925,#926);
#774=AXIS2_PLACEMENT_3D('',#1157,#929,#930);
#775=AXIS2_PLACEMENT_3D('',#1158,#931,#932);
#776=AXIS2_PLACEMENT_3D('',#1159,#933,#934);
#777=AXIS2_PLACEMENT_3D('',#1161,#936,#937);
#778=AXIS2_PLACEMENT_3D('',#1163,#939,#940);
#779=AXIS2_PLACEMENT_3D('',#1164,#941,#942);
#780=AXIS2_PLACEMENT_3D('',#1170,#946,#947);
#781=AXIS2_PLACEMENT_3D('',#1176,#951,#952);
#782=AXIS2_PLACEMENT_3D('',#1182,#956,#957);
#783=AXIS2_PLACEMENT_3D('',#1188,#961,#962);
#784=AXIS2_PLACEMENT_3D('',#1189,#963,#964);
#785=AXIS2_PLACEMENT_3D('',#1190,#965,#966);
#786=AXIS2_PLACEMENT_3D('',#1191,#967,#968);
#787=AXIS2_PLACEMENT_3D('',#1192,#969,#970);
#788=AXIS2_PLACEMENT_3D('',#1193,#971,#972);
#789=AXIS2_PLACEMENT_3D('',#1194,#973,#974);
#790=AXIS2_PLACEMENT_3D('',#1195,#975,#976);
#791=AXIS2_PLACEMENT_3D('',#1196,#977,#978);
#792=AXIS2_PLACEMENT_3D('',#1197,#979,#980);
#793=AXIS2_PLACEMENT_3D('',#1198,#981,#982);
#794=AXIS2_PLACEMENT_3D('',#1200,#983,#984);
#795=AXIS2_PLACEMENT_3D('',#1201,#985,#986);
#796=AXIS2_PLACEMENT_3D('',#1202,#987,#988);
#797=AXIS2_PLACEMENT_3D('',#1204,#989,#990);
#798=AXIS2_PLACEMENT_3D('',#1205,#991,#992);
#799=AXIS2_PLACEMENT_3D('',#1206,#993,#994);
#800=AXIS2_PLACEMENT_3D('',#1208,#995,#996);
#801=AXIS2_PLACEMENT_3D('',#1209,#997,#998);
#802=AXIS2_PLACEMENT_3D('',#1210,#999,#1000);
#803=AXIS2_PLACEMENT_3D('',#1212,#1001,#1002);
#804=AXIS2_PLACEMENT_3D('',#1213,#1003,#1004);
#805=AXIS2_PLACEMENT_3D('',#1214,#1005,#1006);
#806=AXIS2_PLACEMENT_3D('',#1216,#1007,#1008);
#807=AXIS2_PLACEMENT_3D('',#1217,#1009,#1010);
#808=AXIS2_PLACEMENT_3D('',#1218,#1011,#1012);
#809=AXIS2_PLACEMENT_3D('',#1220,#1013,#1014);
#810=AXIS2_PLACEMENT_3D('',#1221,#1015,#1016);
#811=DIRECTION('',(0.,0.,1.));
#812=DIRECTION('',(1.,0.,0.));
#813=DIRECTION('',(0.,1.,0.));
#814=DIRECTION('',(0.,0.,-1.));
#815=DIRECTION('',(0.,-1.,0.));
#816=DIRECTION('',(0.,0.707106781186548,0.707106781186548));
#817=DIRECTION('',(1.,0.,0.));
#818=DIRECTION('',(0.,0.,-1.));
#819=DIRECTION('',(0.,0.,1.));
#820=DIRECTION('',(0.999999999999999,0.,0.));
#821=DIRECTION('',(0.,0.,1.));
#822=DIRECTION('',(1.,0.,0.));
#823=DIRECTION('',(0.,0.,1.));
#824=DIRECTION('',(0.999999999999999,0.,0.));
#825=DIRECTION('',(0.,0.,1.));
#826=DIRECTION('',(1.,0.,0.));
#827=DIRECTION('',(0.,0.,1.));
#828=DIRECTION('',(0.999999999999999,0.,0.));
#829=DIRECTION('',(1.,0.,0.));
#830=DIRECTION('',(0.,1.,0.));
#831=DIRECTION('',(1.,0.,0.));
#832=DIRECTION('',(0.,1.,0.));
#833=DIRECTION('',(1.,0.,0.));
#834=DIRECTION('',(0.,-1.,0.));
#835=DIRECTION('',(0.,0.,-1.));
#836=DIRECTION('',(0.999999999999999,0.,0.));
#837=DIRECTION('',(-1.,0.,0.));
#838=DIRECTION('',(0.,0.,-1.));
#839=DIRECTION('',(0.999999999999999,0.,0.));
#840=DIRECTION('',(0.,1.,0.));
#841=DIRECTION('',(0.,0.,1.));
#842=DIRECTION('',(1.,0.,0.));
#843=DIRECTION('',(0.,0.,1.));
#844=DIRECTION('',(1.,0.,0.));
#845=DIRECTION('',(0.707106781186548,0.,-0.707106781186547));
#846=DIRECTION('',(-0.577350269189626,0.577350269189626,0.577350269189626));
#847=DIRECTION('',(-0.707106781186548,0.,0.707106781186547));
#848=DIRECTION('',(0.,-1.,0.));
#849=DIRECTION('',(-0.707106781186547,0.,-0.707106781186548));
#850=DIRECTION('',(0.,-1.,0.));
#851=DIRECTION('',(-1.,0.,0.));
#852=DIRECTION('',(0.,1.,0.));
#853=DIRECTION('',(-1.,0.,0.));
#854=DIRECTION('',(0.,1.,0.));
#855=DIRECTION('',(0.,0.,1.));
#856=DIRECTION('',(1.,0.,0.));
#857=DIRECTION('',(0.,0.,1.));
#858=DIRECTION('',(-1.,0.,0.));
#859=DIRECTION('',(0.,0.,1.));
#860=DIRECTION('',(1.,0.,0.));
#861=DIRECTION('',(0.,-1.,0.));
#862=DIRECTION('',(0.,0.,-1.));
#863=DIRECTION('',(0.,0.,1.));
#864=DIRECTION('',(0.,-1.,0.));
#865=DIRECTION('',(0.,0.,-1.));
#866=DIRECTION('',(0.,0.707106781186548,-0.707106781186548));
#867=DIRECTION('',(0.,0.,1.));
#868=DIRECTION('',(0.,-1.,0.));
#869=DIRECTION('',(0.,0.707106781186548,0.707106781186548));
#870=DIRECTION('',(-1.,0.,0.));
#871=DIRECTION('',(0.,0.,1.));
#872=DIRECTION('',(1.,0.,0.));
#873=DIRECTION('',(0.707106781186548,0.,-0.707106781186547));
#874=DIRECTION('',(0.,0.,1.));
#875=DIRECTION('',(-1.,0.,0.));
#876=DIRECTION('',(0.,1.,0.));
#877=DIRECTION('',(0.,0.,1.));
#878=DIRECTION('',(0.,1.,0.));
#879=DIRECTION('',(0.,0.,-1.));
#880=DIRECTION('',(-1.,0.,0.));
#881=DIRECTION('',(0.,0.,-1.));
#882=DIRECTION('',(0.,-1.,0.));
#883=DIRECTION('',(0.,0.,1.));
#884=DIRECTION('',(0.,1.,0.));
#885=DIRECTION('',(1.,0.,0.));
#886=DIRECTION('',(0.,0.,-1.));
#887=DIRECTION('',(0.,-0.707106781186548,-0.707106781186548));
#888=DIRECTION('',(1.,0.,0.));
#889=DIRECTION('',(0.,0.707106781186548,-0.707106781186548));
#890=DIRECTION('',(-1.,0.,0.));
#891=DIRECTION('',(-0.707106781186548,0.,0.707106781186547));
#892=DIRECTION('',(-0.577350269189626,-0.577350269189625,0.577350269189626));
#893=DIRECTION('',(-0.707106781186547,0.,-0.707106781186548));
#894=DIRECTION('',(0.,-1.,0.));
#895=DIRECTION('',(0.,-0.707106781186547,-0.707106781186547));
#896=DIRECTION('',(1.,0.,0.));
#897=DIRECTION('',(0.,1.,0.));
#898=DIRECTION('',(0.,0.,1.));
#899=DIRECTION('',(-1.,0.,0.));
#900=DIRECTION('',(0.,0.,1.));
#901=DIRECTION('',(0.,0.,-1.));
#902=DIRECTION('',(1.,0.,0.));
#903=DIRECTION('',(0.,0.,1.));
#904=DIRECTION('',(0.,1.,0.));
#905=DIRECTION('',(0.,0.,1.));
#906=DIRECTION('',(1.,0.,0.));
#907=DIRECTION('',(0.,0.,-1.));
#908=DIRECTION('',(-1.,0.,0.));
#909=DIRECTION('',(0.,-1.,0.));
#910=DIRECTION('',(0.,0.,-1.));
#911=DIRECTION('',(-1.,0.,0.));
#912=DIRECTION('',(-1.,0.,0.));
#913=DIRECTION('',(0.,0.,-1.));
#914=DIRECTION('',(-1.,0.,0.));
#915=DIRECTION('',(0.,1.,0.));
#916=DIRECTION('',(0.,0.,-1.));
#917=DIRECTION('',(-1.,0.,0.));
#918=DIRECTION('',(0.,0.,-1.));
#919=DIRECTION('',(-0.999999999999999,0.,0.));
#920=DIRECTION('',(0.,-1.,0.));
#921=DIRECTION('',(0.,0.,1.));
#922=DIRECTION('',(-0.999999999999999,0.,0.));
#923=DIRECTION('',(0.,0.,1.));
#924=DIRECTION('',(-1.,0.,0.));
#925=DIRECTION('',(0.,0.,-1.));
#926=DIRECTION('',(-1.,0.,0.));
#927=DIRECTION('',(0.,0.,1.));
#928=DIRECTION('',(0.,0.,-1.));
#929=DIRECTION('',(1.,0.,0.));
#930=DIRECTION('',(0.,0.,-1.));
#931=DIRECTION('',(0.,0.,1.));
#932=DIRECTION('',(0.999999999999999,0.,0.));
#933=DIRECTION('',(0.,0.,1.));
#934=DIRECTION('',(0.999999999999999,0.,0.));
#935=DIRECTION('',(-1.,0.,0.));
#936=DIRECTION('',(0.,-1.,0.));
#937=DIRECTION('',(0.,0.,-1.));
#938=DIRECTION('',(1.,0.,0.));
#939=DIRECTION('',(0.,1.,0.));
#940=DIRECTION('',(0.,0.,1.));
#941=DIRECTION('',(0.,0.,-1.));
#942=DIRECTION('',(-1.,0.,0.));
#943=DIRECTION('',(0.,0.,-1.));
#944=DIRECTION('',(-1.,0.,0.));
#945=DIRECTION('',(0.,0.,1.));
#946=DIRECTION('',(0.,-1.,0.));
#947=DIRECTION('',(0.,0.,-1.));
#948=DIRECTION('',(0.,1.,0.));
#949=DIRECTION('',(0.,0.,1.));
#950=DIRECTION('',(0.,0.,-1.));
#951=DIRECTION('',(-1.,0.,0.));
#952=DIRECTION('',(0.,0.,1.));
#953=DIRECTION('',(0.,0.,-1.));
#954=DIRECTION('',(1.,0.,0.));
#955=DIRECTION('',(0.,0.,1.));
#956=DIRECTION('',(0.,1.,0.));
#957=DIRECTION('',(0.,0.,1.));
#958=DIRECTION('',(0.,-1.,0.));
#959=DIRECTION('',(0.,0.,1.));
#960=DIRECTION('',(0.,0.,-1.));
#961=DIRECTION('',(1.,0.,0.));
#962=DIRECTION('',(0.,0.,-1.));
#963=DIRECTION('',(0.,0.,1.));
#964=DIRECTION('',(-1.,0.,0.));
#965=DIRECTION('',(0.,0.,1.));
#966=DIRECTION('',(-1.,0.,0.));
#967=DIRECTION('',(0.,0.,1.));
#968=DIRECTION('',(-1.,0.,0.));
#969=DIRECTION('',(0.,0.,1.));
#970=DIRECTION('',(-1.,0.,0.));
#971=DIRECTION('',(0.,0.,-1.));
#972=DIRECTION('',(-1.,0.,0.));
#973=DIRECTION('',(0.,0.,1.));
#974=DIRECTION('',(1.,0.,0.));
#975=DIRECTION('',(0.,0.,1.));
#976=DIRECTION('',(1.,0.,0.));
#977=DIRECTION('',(0.,0.,1.));
#978=DIRECTION('',(1.,0.,0.));
#979=DIRECTION('',(0.,0.,1.));
#980=DIRECTION('',(1.,0.,0.));
#981=DIRECTION('',(0.,0.,-1.));
#982=DIRECTION('',(1.,0.,0.));
#983=DIRECTION('',(0.,0.,-1.));
#984=DIRECTION('',(-1.,0.,0.));
#985=DIRECTION('',(0.,0.,-1.));
#986=DIRECTION('',(1.,0.,0.));
#987=DIRECTION('',(0.,0.,-1.));
#988=DIRECTION('',(0.999999999999999,0.,0.));
#989=DIRECTION('',(0.,0.,-1.));
#990=DIRECTION('',(0.999999999999999,0.,0.));
#991=DIRECTION('',(0.,0.,-1.));
#992=DIRECTION('',(-1.,0.,0.));
#993=DIRECTION('',(0.,0.,-1.));
#994=DIRECTION('',(1.,0.,0.));
#995=DIRECTION('',(0.,0.,-1.));
#996=DIRECTION('',(-1.,0.,0.));
#997=DIRECTION('',(0.,0.,-1.));
#998=DIRECTION('',(1.,0.,0.));
#999=DIRECTION('',(0.,0.,-1.));
#1000=DIRECTION('',(0.999999999999999,0.,0.));
#1001=DIRECTION('',(0.,0.,-1.));
#1002=DIRECTION('',(-1.,0.,0.));
#1003=DIRECTION('',(0.,0.,-1.));
#1004=DIRECTION('',(0.999999999999999,0.,0.));
#1005=DIRECTION('',(0.,0.,-1.));
#1006=DIRECTION('',(1.,0.,0.));
#1007=DIRECTION('',(0.,0.,-1.));
#1008=DIRECTION('',(-1.,0.,0.));
#1009=DIRECTION('',(0.,0.,-1.));
#1010=DIRECTION('',(1.,0.,0.));
#1011=DIRECTION('',(0.,0.,-1.));
#1012=DIRECTION('',(0.999999999999999,0.,0.));
#1013=DIRECTION('',(0.,0.,-1.));
#1014=DIRECTION('',(-1.,0.,0.));
#1015=DIRECTION('',(0.,0.,-1.));
#1016=DIRECTION('',(0.999999999999999,0.,0.));
#1017=CARTESIAN_POINT('',(0.,0.,0.));
#1018=CARTESIAN_POINT('',(203.4,204.65,115.2));
#1019=CARTESIAN_POINT('',(203.4,16.6,115.2));
#1020=CARTESIAN_POINT('',(203.4,61.9826012761568,115.2));
#1021=CARTESIAN_POINT('',(203.4,61.9826012761568,115.25));
#1022=CARTESIAN_POINT('',(203.4,61.9826012761568,100.8));
#1023=CARTESIAN_POINT('',(203.4,51.2,100.8));
#1024=CARTESIAN_POINT('',(203.4,2.19999999999999,100.8));
#1025=CARTESIAN_POINT('',(203.4,0.,98.6));
#1026=CARTESIAN_POINT('',(203.4,51.2,100.8));
#1027=CARTESIAN_POINT('',(199.1,338.4,115.2));
#1028=CARTESIAN_POINT('',(209.,338.4,115.2));
#1029=CARTESIAN_POINT('',(69.,338.4,115.2));
#1030=CARTESIAN_POINT('',(78.9,338.4,115.2));
#1031=CARTESIAN_POINT('',(199.1,204.7,115.2));
#1032=CARTESIAN_POINT('',(209.,204.7,115.2));
#1033=CARTESIAN_POINT('',(69.,204.7,115.2));
#1034=CARTESIAN_POINT('',(78.9,204.7,115.2));
#1035=CARTESIAN_POINT('',(199.1,70.9,115.2));
#1036=CARTESIAN_POINT('',(203.4,79.8173987238432,115.2));
#1037=CARTESIAN_POINT('',(134.1,16.6,115.2));
#1038=CARTESIAN_POINT('',(250.3,16.6,115.2));
#1039=CARTESIAN_POINT('',(250.3,204.65,115.2));
#1040=CARTESIAN_POINT('',(250.3,348.6,115.2));
#1041=CARTESIAN_POINT('',(134.1,348.6,115.2));
#1042=CARTESIAN_POINT('',(0.,348.6,115.2));
#1043=CARTESIAN_POINT('',(0.,204.65,115.2));
#1044=CARTESIAN_POINT('',(0.,16.6,115.2));
#1045=CARTESIAN_POINT('',(134.1,16.6,115.2));
#1046=CARTESIAN_POINT('',(117.2,16.6,115.2));
#1047=CARTESIAN_POINT('',(117.2,204.65,115.2));
#1048=CARTESIAN_POINT('',(117.2,90.7,115.2));
#1049=CARTESIAN_POINT('',(128.9,90.7,115.2));
#1050=CARTESIAN_POINT('',(128.9,102.4,115.2));
#1051=CARTESIAN_POINT('',(134.1,102.4,115.2));
#1052=CARTESIAN_POINT('',(191.7,102.4,115.2));
#1053=CARTESIAN_POINT('',(191.7,90.7,115.2));
#1054=CARTESIAN_POINT('',(203.4,90.7,115.2));
#1055=CARTESIAN_POINT('',(203.4,204.65,115.2));
#1056=CARTESIAN_POINT('',(69.,70.9,115.2));
#1057=CARTESIAN_POINT('',(78.9,70.9,115.2));
#1058=CARTESIAN_POINT('',(134.1,204.65,115.2));
#1059=CARTESIAN_POINT('',(268.2,348.6,97.3));
#1060=CARTESIAN_POINT('',(268.2,348.6,97.3));
#1061=CARTESIAN_POINT('',(222.633333333333,44.2666666666667,142.866666666667));
#1062=CARTESIAN_POINT('',(266.9,0.,98.6));
#1063=CARTESIAN_POINT('',(249.8,0.,115.7));
#1064=CARTESIAN_POINT('',(268.2,0.,97.3));
#1065=CARTESIAN_POINT('',(268.2,204.65,97.3));
#1066=CARTESIAN_POINT('',(268.2,204.65,97.3));
#1067=CARTESIAN_POINT('',(134.1,393.8,115.2));
#1068=CARTESIAN_POINT('',(250.3,393.8,115.2));
#1069=CARTESIAN_POINT('',(0.,393.8,115.2));
#1070=CARTESIAN_POINT('',(250.3,204.65,115.2));
#1071=CARTESIAN_POINT('',(250.3,396.7,115.2));
#1072=CARTESIAN_POINT('',(134.1,396.7,115.2));
#1073=CARTESIAN_POINT('',(0.,396.7,115.2));
#1074=CARTESIAN_POINT('',(0.,204.65,115.2));
#1075=CARTESIAN_POINT('',(134.1,204.65,115.2));
#1076=CARTESIAN_POINT('',(268.2,0.,0.));
#1077=CARTESIAN_POINT('',(268.2,0.,0.));
#1078=CARTESIAN_POINT('',(134.1,0.,98.6));
#1079=CARTESIAN_POINT('',(0.,0.,98.6));
#1080=CARTESIAN_POINT('',(0.,0.,0.));
#1081=CARTESIAN_POINT('',(0.,0.,0.));
#1082=CARTESIAN_POINT('',(134.1,0.,0.));
#1083=CARTESIAN_POINT('',(134.1,0.,0.));
#1084=CARTESIAN_POINT('',(0.,348.6,0.));
#1085=CARTESIAN_POINT('',(0.,348.6,55.8));
#1086=CARTESIAN_POINT('',(0.,204.65,55.8));
#1087=CARTESIAN_POINT('',(0.,393.8,55.8));
#1088=CARTESIAN_POINT('',(0.,393.8,0.));
#1089=CARTESIAN_POINT('',(0.,358.275,153.625));
#1090=CARTESIAN_POINT('',(0.,409.3,102.6));
#1091=CARTESIAN_POINT('',(0.,409.3,0.));
#1092=CARTESIAN_POINT('',(0.,409.3,0.));
#1093=CARTESIAN_POINT('',(0.,204.65,0.));
#1094=CARTESIAN_POINT('',(0.,53.025,151.625));
#1095=CARTESIAN_POINT('',(0.,204.65,0.));
#1096=CARTESIAN_POINT('',(134.1,409.3,102.6));
#1097=CARTESIAN_POINT('',(262.9,409.3,102.6));
#1098=CARTESIAN_POINT('',(249.8,409.3,115.7));
#1099=CARTESIAN_POINT('',(268.2,409.3,97.3));
#1100=CARTESIAN_POINT('',(268.2,409.3,0.));
#1101=CARTESIAN_POINT('',(268.2,409.3,0.));
#1102=CARTESIAN_POINT('',(134.1,409.3,0.));
#1103=CARTESIAN_POINT('',(134.1,409.3,0.));
#1104=CARTESIAN_POINT('',(268.2,204.65,0.));
#1105=CARTESIAN_POINT('',(134.1,204.65,0.));
#1106=CARTESIAN_POINT('',(268.2,348.6,0.));
#1107=CARTESIAN_POINT('',(268.2,348.6,55.8));
#1108=CARTESIAN_POINT('',(268.2,204.65,97.3));
#1109=CARTESIAN_POINT('',(268.2,393.8,97.3));
#1110=CARTESIAN_POINT('',(268.2,393.8,0.));
#1111=CARTESIAN_POINT('',(268.2,393.8,55.8));
#1112=CARTESIAN_POINT('',(268.2,204.65,55.8));
#1113=CARTESIAN_POINT('',(268.2,204.65,0.));
#1114=CARTESIAN_POINT('',(117.2,0.,98.6));
#1115=CARTESIAN_POINT('',(117.2,2.19999999999999,100.8));
#1116=CARTESIAN_POINT('',(134.1,2.19999999999999,100.8));
#1117=CARTESIAN_POINT('',(134.1,0.,98.6));
#1118=CARTESIAN_POINT('',(268.2,393.8,97.3));
#1119=CARTESIAN_POINT('',(198.216666666667,344.616666666667,167.283333333333));
#1120=CARTESIAN_POINT('',(268.2,204.65,97.3));
#1121=CARTESIAN_POINT('',(134.1,409.3,102.6));
#1122=CARTESIAN_POINT('',(117.2,51.2,100.8));
#1123=CARTESIAN_POINT('',(117.2,90.7,100.8));
#1124=CARTESIAN_POINT('',(117.2,90.7,115.2));
#1125=CARTESIAN_POINT('',(117.2,51.2,100.8));
#1126=CARTESIAN_POINT('',(128.9,102.4,100.8));
#1127=CARTESIAN_POINT('',(128.9,102.4,100.8));
#1128=CARTESIAN_POINT('',(160.3,102.4,100.8));
#1129=CARTESIAN_POINT('',(191.7,102.4,100.8));
#1130=CARTESIAN_POINT('',(191.7,102.4,115.2));
#1131=CARTESIAN_POINT('',(160.3,102.4,100.8));
#1132=CARTESIAN_POINT('',(160.3,78.,100.8));
#1133=CARTESIAN_POINT('',(138.5,78.,100.8));
#1134=CARTESIAN_POINT('',(170.2,78.,100.8));
#1135=CARTESIAN_POINT('',(170.2,73.8,100.8));
#1136=CARTESIAN_POINT('',(174.4,73.8,100.8));
#1137=CARTESIAN_POINT('',(174.4,51.2,100.8));
#1138=CARTESIAN_POINT('',(174.4,28.6,100.8));
#1139=CARTESIAN_POINT('',(170.2,28.6,100.8));
#1140=CARTESIAN_POINT('',(170.2,24.4,100.8));
#1141=CARTESIAN_POINT('',(160.3,24.4,100.8));
#1142=CARTESIAN_POINT('',(138.5,24.4,100.8));
#1143=CARTESIAN_POINT('',(138.5,28.6,100.8));
#1144=CARTESIAN_POINT('',(134.3,28.6,100.8));
#1145=CARTESIAN_POINT('',(134.3,51.2,100.8));
#1146=CARTESIAN_POINT('',(134.3,73.8,100.8));
#1147=CARTESIAN_POINT('',(138.5,73.8,100.8));
#1148=CARTESIAN_POINT('',(199.1,70.9,100.8));
#1149=CARTESIAN_POINT('',(203.4,79.8173987238432,100.8));
#1150=CARTESIAN_POINT('',(203.4,51.2,100.8));
#1151=CARTESIAN_POINT('',(203.4,90.7,100.8));
#1152=CARTESIAN_POINT('',(191.7,90.7,100.8));
#1153=CARTESIAN_POINT('',(128.9,90.7,100.8));
#1154=CARTESIAN_POINT('',(160.3,51.2,100.8));
#1155=CARTESIAN_POINT('',(203.4,79.8173987238432,115.25));
#1156=CARTESIAN_POINT('',(203.4,90.7,100.8));
#1157=CARTESIAN_POINT('',(203.4,51.2,100.8));
#1158=CARTESIAN_POINT('',(128.9,90.7,100.8));
#1159=CARTESIAN_POINT('',(191.7,90.7,100.8));
#1160=CARTESIAN_POINT('',(134.1,348.6,55.8));
#1161=CARTESIAN_POINT('',(134.1,348.6,55.8));
#1162=CARTESIAN_POINT('',(134.1,393.8,55.8));
#1163=CARTESIAN_POINT('',(134.1,393.8,55.8));
#1164=CARTESIAN_POINT('',(134.1,371.2,55.8));
#1165=CARTESIAN_POINT('',(170.2,24.4,89.3));
#1166=CARTESIAN_POINT('',(170.2,24.4,89.3));
#1167=CARTESIAN_POINT('',(154.35,24.4,89.3));
#1168=CARTESIAN_POINT('',(138.5,24.4,89.3));
#1169=CARTESIAN_POINT('',(138.5,24.4,100.8));
#1170=CARTESIAN_POINT('',(154.35,24.4,89.3));
#1171=CARTESIAN_POINT('',(134.3,51.2,89.3));
#1172=CARTESIAN_POINT('',(134.3,28.6,89.3));
#1173=CARTESIAN_POINT('',(134.3,73.8,89.3));
#1174=CARTESIAN_POINT('',(134.3,73.8,100.8));
#1175=CARTESIAN_POINT('',(134.3,28.6,89.3));
#1176=CARTESIAN_POINT('',(134.3,51.2,89.3));
#1177=CARTESIAN_POINT('',(138.5,78.,89.3));
#1178=CARTESIAN_POINT('',(138.5,78.,89.3));
#1179=CARTESIAN_POINT('',(154.35,78.,89.3));
#1180=CARTESIAN_POINT('',(170.2,78.,89.3));
#1181=CARTESIAN_POINT('',(170.2,78.,100.8));
#1182=CARTESIAN_POINT('',(154.35,78.,89.3));
#1183=CARTESIAN_POINT('',(174.4,51.2,89.3));
#1184=CARTESIAN_POINT('',(174.4,73.8,89.3));
#1185=CARTESIAN_POINT('',(174.4,28.6,89.3));
#1186=CARTESIAN_POINT('',(174.4,28.6,100.8));
#1187=CARTESIAN_POINT('',(174.4,73.8,89.3));
#1188=CARTESIAN_POINT('',(174.4,51.2,89.3));
#1189=CARTESIAN_POINT('',(170.2,28.6,89.3));
#1190=CARTESIAN_POINT('',(170.2,73.8,89.3));
#1191=CARTESIAN_POINT('',(138.5,73.8,89.3));
#1192=CARTESIAN_POINT('',(138.5,28.6,89.3));
#1193=CARTESIAN_POINT('',(154.35,51.2,89.3));
#1194=CARTESIAN_POINT('',(170.2,28.6,89.3));
#1195=CARTESIAN_POINT('',(138.5,73.8,89.3));
#1196=CARTESIAN_POINT('',(170.2,73.8,89.3));
#1197=CARTESIAN_POINT('',(138.5,28.6,89.3));
#1198=CARTESIAN_POINT('',(69.,70.9,85.7));
#1199=CARTESIAN_POINT('',(78.9,70.9,85.7));
#1200=CARTESIAN_POINT('',(69.,70.9,85.7));
#1201=CARTESIAN_POINT('',(69.,70.9,115.25));
#1202=CARTESIAN_POINT('',(199.1,70.9,43.3));
#1203=CARTESIAN_POINT('',(209.,70.9,43.3));
#1204=CARTESIAN_POINT('',(199.1,70.9,115.25));
#1205=CARTESIAN_POINT('',(199.1,70.9,43.3));
#1206=CARTESIAN_POINT('',(69.,204.7,75.3));
#1207=CARTESIAN_POINT('',(78.9,204.7,75.3));
#1208=CARTESIAN_POINT('',(69.,204.7,75.3));
#1209=CARTESIAN_POINT('',(69.,204.7,115.25));
#1210=CARTESIAN_POINT('',(199.1,204.7,92.1));
#1211=CARTESIAN_POINT('',(209.,204.7,92.1));
#1212=CARTESIAN_POINT('',(199.1,204.7,92.1));
#1213=CARTESIAN_POINT('',(199.1,204.7,115.25));
#1214=CARTESIAN_POINT('',(69.,338.4,88.7));
#1215=CARTESIAN_POINT('',(78.9,338.4,88.7));
#1216=CARTESIAN_POINT('',(69.,338.4,88.7));
#1217=CARTESIAN_POINT('',(69.,338.4,115.25));
#1218=CARTESIAN_POINT('',(199.1,338.4,76.2));
#1219=CARTESIAN_POINT('',(209.,338.4,76.2));
#1220=CARTESIAN_POINT('',(199.1,338.4,76.2));
#1221=CARTESIAN_POINT('',(199.1,338.4,115.25));
#1222=MECHANICAL_DESIGN_GEOMETRIC_PRESENTATION_REPRESENTATION('',(#24),
#1223);
#1223=(
GEOMETRIC_REPRESENTATION_CONTEXT(3)
GLOBAL_UNCERTAINTY_ASSIGNED_CONTEXT((#1224))
GLOBAL_UNIT_ASSIGNED_CONTEXT((#1230,#1226,#1225))
REPRESENTATION_CONTEXT('featured_part_07553','TOP_LEVEL_ASSEMBLY_PART')
);
#1224=UNCERTAINTY_MEASURE_WITH_UNIT(LENGTH_MEASURE(2.E-5),#1230,
'DISTANCE_ACCURACY_VALUE','Maximum Tolerance applied to model');
#1225=(
NAMED_UNIT(*)
SI_UNIT($,.STERADIAN.)
SOLID_ANGLE_UNIT()
);
#1226=(
CONVERSION_BASED_UNIT('DEGREE',#1228)
NAMED_UNIT(#1227)
PLANE_ANGLE_UNIT()
);
#1227=DIMENSIONAL_EXPONENTS(0.,0.,0.,0.,0.,0.,0.);
#1228=PLANE_ANGLE_MEASURE_WITH_UNIT(PLANE_ANGLE_MEASURE(0.0174532925),#1229);
#1229=(
NAMED_UNIT(*)
PLANE_ANGLE_UNIT()
SI_UNIT($,.RADIAN.)
);
#1230=(
LENGTH_UNIT()
NAMED_UNIT(*)
SI_UNIT(.MILLI.,.METRE.)
);
ENDSEC;
END-ISO-10303-21;
