ISO-10303-21;
HEADER;
/* Generated by software containing ST-Developer
 * from STEP Tools, Inc. (www.steptools.com) 
 */
/* OPTION: using custom schema-name function */

FILE_DESCRIPTION(
/* description */ (''),
/* implementation_level */ '2;1');

FILE_NAME(
/* name */ 'featured_part_04257.stp',
/* time_stamp */ '2026-07-07T12:56:49-04:00',
/* author */ (''),
/* organization */ (''),
/* preprocessor_version */ 'ST-DEVELOPER v20.1',
/* originating_system */ 'SIEMENS PLM Software NX2512.6002',
/* authorisation */ '');

FILE_SCHEMA (('AUTOMOTIVE_DESIGN { 1 0 10303 214 3 1 1 1 }'));
ENDSEC;

DATA;
#10=SHAPE_REPRESENTATION_RELATIONSHIP('None',
'relationship between featured_part_04257-None and featured_part_04257
-None',#22,#11);
#11=ADVANCED_BREP_SHAPE_REPRESENTATION('featured_part_04257-None',(#32),
#667);
#12=SHAPE_DEFINITION_REPRESENTATION(#13,#22);
#13=PRODUCT_DEFINITION_SHAPE('','',#14);
#14=PRODUCT_DEFINITION(' ','',#16,#15);
#15=PRODUCT_DEFINITION_CONTEXT('part definition',#21,'design');
#16=PRODUCT_DEFINITION_FORMATION_WITH_SPECIFIED_SOURCE(' ',' ',#18,
 .NOT_KNOWN.);
#17=PRODUCT_RELATED_PRODUCT_CATEGORY('part','',(#18));
#18=PRODUCT('featured_part_04257','featured_part_04257',' ',(#19));
#19=PRODUCT_CONTEXT(' ',#21,'mechanical');
#20=APPLICATION_PROTOCOL_DEFINITION('international standard',
'automotive_design',2010,#21);
#21=APPLICATION_CONTEXT(
'core data for automotive mechanical design processes');
#22=SHAPE_REPRESENTATION('featured_part_04257-None',(#418),#667);
#23=PRESENTATION_LAYER_ASSIGNMENT('1','Layer 1',(#32));
#24=STYLED_ITEM('',(#25),#32);
#25=PRESENTATION_STYLE_ASSIGNMENT((#26));
#26=SURFACE_STYLE_USAGE(.BOTH.,#27);
#27=SURFACE_SIDE_STYLE('',(#28));
#28=SURFACE_STYLE_FILL_AREA(#29);
#29=FILL_AREA_STYLE('',(#30));
#30=FILL_AREA_STYLE_COLOUR('',#31);
#31=COLOUR_RGB('medium steel',0.611764705882353,0.658823529411765,0.670588235294118);
#32=MANIFOLD_SOLID_BREP('',#33);
#33=CLOSED_SHELL('',(#58,#59,#60,#61,#62,#63,#64,#65,#66,#67,#68,#69,#70,
#71,#72,#73,#74,#75,#76,#77,#78));
#34=CYLINDRICAL_SURFACE('',#441,6.5);
#35=CYLINDRICAL_SURFACE('',#442,6.5);
#36=CYLINDRICAL_SURFACE('',#443,6.5);
#37=CYLINDRICAL_SURFACE('',#444,6.5);
#38=FACE_OUTER_BOUND('',#108,.T.);
#39=FACE_OUTER_BOUND('',#109,.T.);
#40=FACE_OUTER_BOUND('',#110,.T.);
#41=FACE_OUTER_BOUND('',#111,.T.);
#42=FACE_OUTER_BOUND('',#112,.T.);
#43=FACE_OUTER_BOUND('',#113,.T.);
#44=FACE_OUTER_BOUND('',#114,.T.);
#45=FACE_OUTER_BOUND('',#115,.T.);
#46=FACE_OUTER_BOUND('',#116,.T.);
#47=FACE_OUTER_BOUND('',#117,.T.);
#48=FACE_OUTER_BOUND('',#118,.T.);
#49=FACE_OUTER_BOUND('',#119,.T.);
#50=FACE_OUTER_BOUND('',#120,.T.);
#51=FACE_OUTER_BOUND('',#121,.T.);
#52=FACE_OUTER_BOUND('',#122,.T.);
#53=FACE_OUTER_BOUND('',#123,.T.);
#54=FACE_OUTER_BOUND('',#124,.T.);
#55=FACE_OUTER_BOUND('',#125,.T.);
#56=FACE_OUTER_BOUND('',#126,.T.);
#57=FACE_OUTER_BOUND('',#127,.T.);
#58=ADVANCED_FACE('',(#104,#105),#79,.T.);
#59=ADVANCED_FACE('',(#38),#80,.T.);
#60=ADVANCED_FACE('',(#39),#81,.T.);
#61=ADVANCED_FACE('',(#40),#82,.T.);
#62=ADVANCED_FACE('',(#41),#83,.T.);
#63=ADVANCED_FACE('',(#42),#84,.T.);
#64=ADVANCED_FACE('',(#43),#85,.T.);
#65=ADVANCED_FACE('',(#44),#86,.F.);
#66=ADVANCED_FACE('',(#45),#87,.F.);
#67=ADVANCED_FACE('',(#46),#88,.F.);
#68=ADVANCED_FACE('',(#47),#89,.F.);
#69=ADVANCED_FACE('',(#48),#90,.F.);
#70=ADVANCED_FACE('',(#49),#91,.F.);
#71=ADVANCED_FACE('',(#50),#92,.F.);
#72=ADVANCED_FACE('',(#51),#34,.F.);
#73=ADVANCED_FACE('',(#52),#35,.F.);
#74=ADVANCED_FACE('',(#53),#36,.F.);
#75=ADVANCED_FACE('',(#54),#37,.F.);
#76=ADVANCED_FACE('',(#55),#93,.F.);
#77=ADVANCED_FACE('',(#56),#94,.F.);
#78=ADVANCED_FACE('',(#57),#95,.F.);
#79=PLANE('',#423);
#80=PLANE('',#424);
#81=PLANE('',#425);
#82=PLANE('',#426);
#83=PLANE('',#427);
#84=PLANE('',#428);
#85=PLANE('',#429);
#86=PLANE('',#430);
#87=PLANE('',#431);
#88=PLANE('',#432);
#89=PLANE('',#433);
#90=PLANE('',#434);
#91=PLANE('',#439);
#92=PLANE('',#440);
#93=PLANE('',#445);
#94=PLANE('',#446);
#95=PLANE('',#447);
#96=CIRCLE('',#419,6.5);
#97=CIRCLE('',#420,6.5);
#98=CIRCLE('',#421,6.5);
#99=CIRCLE('',#422,6.5);
#100=CIRCLE('',#435,6.5);
#101=CIRCLE('',#436,6.5);
#102=CIRCLE('',#437,6.5);
#103=CIRCLE('',#438,6.5);
#104=FACE_BOUND('',#106,.T.);
#105=FACE_BOUND('',#107,.T.);
#106=EDGE_LOOP('',(#128,#129,#130,#131));
#107=EDGE_LOOP('',(#132,#133,#134,#135,#136,#137,#138,#139));
#108=EDGE_LOOP('',(#140,#141,#142,#143));
#109=EDGE_LOOP('',(#144,#145,#146,#147,#148,#149,#150,#151,#152,#153));
#110=EDGE_LOOP('',(#154,#155,#156,#157));
#111=EDGE_LOOP('',(#158,#159,#160,#161,#162,#163,#164,#165,#166,#167));
#112=EDGE_LOOP('',(#168,#169,#170,#171));
#113=EDGE_LOOP('',(#172,#173,#174,#175));
#114=EDGE_LOOP('',(#176,#177,#178,#179));
#115=EDGE_LOOP('',(#180,#181,#182,#183));
#116=EDGE_LOOP('',(#184,#185,#186,#187));
#117=EDGE_LOOP('',(#188,#189,#190,#191));
#118=EDGE_LOOP('',(#192,#193,#194,#195));
#119=EDGE_LOOP('',(#196,#197,#198,#199,#200,#201,#202,#203));
#120=EDGE_LOOP('',(#204,#205,#206,#207));
#121=EDGE_LOOP('',(#208,#209,#210,#211));
#122=EDGE_LOOP('',(#212,#213,#214,#215));
#123=EDGE_LOOP('',(#216,#217,#218,#219));
#124=EDGE_LOOP('',(#220,#221,#222,#223));
#125=EDGE_LOOP('',(#224,#225,#226,#227));
#126=EDGE_LOOP('',(#228,#229,#230,#231));
#127=EDGE_LOOP('',(#232,#233,#234,#235));
#128=ORIENTED_EDGE('',*,*,#272,.F.);
#129=ORIENTED_EDGE('',*,*,#273,.F.);
#130=ORIENTED_EDGE('',*,*,#274,.T.);
#131=ORIENTED_EDGE('',*,*,#275,.F.);
#132=ORIENTED_EDGE('',*,*,#276,.F.);
#133=ORIENTED_EDGE('',*,*,#277,.T.);
#134=ORIENTED_EDGE('',*,*,#278,.F.);
#135=ORIENTED_EDGE('',*,*,#279,.T.);
#136=ORIENTED_EDGE('',*,*,#280,.F.);
#137=ORIENTED_EDGE('',*,*,#281,.T.);
#138=ORIENTED_EDGE('',*,*,#282,.F.);
#139=ORIENTED_EDGE('',*,*,#283,.T.);
#140=ORIENTED_EDGE('',*,*,#284,.F.);
#141=ORIENTED_EDGE('',*,*,#285,.F.);
#142=ORIENTED_EDGE('',*,*,#286,.T.);
#143=ORIENTED_EDGE('',*,*,#287,.F.);
#144=ORIENTED_EDGE('',*,*,#288,.F.);
#145=ORIENTED_EDGE('',*,*,#275,.T.);
#146=ORIENTED_EDGE('',*,*,#289,.T.);
#147=ORIENTED_EDGE('',*,*,#290,.F.);
#148=ORIENTED_EDGE('',*,*,#291,.T.);
#149=ORIENTED_EDGE('',*,*,#292,.T.);
#150=ORIENTED_EDGE('',*,*,#293,.T.);
#151=ORIENTED_EDGE('',*,*,#285,.T.);
#152=ORIENTED_EDGE('',*,*,#294,.F.);
#153=ORIENTED_EDGE('',*,*,#295,.F.);
#154=ORIENTED_EDGE('',*,*,#290,.T.);
#155=ORIENTED_EDGE('',*,*,#296,.T.);
#156=ORIENTED_EDGE('',*,*,#297,.F.);
#157=ORIENTED_EDGE('',*,*,#298,.T.);
#158=ORIENTED_EDGE('',*,*,#299,.F.);
#159=ORIENTED_EDGE('',*,*,#300,.F.);
#160=ORIENTED_EDGE('',*,*,#301,.F.);
#161=ORIENTED_EDGE('',*,*,#287,.T.);
#162=ORIENTED_EDGE('',*,*,#302,.T.);
#163=ORIENTED_EDGE('',*,*,#303,.F.);
#164=ORIENTED_EDGE('',*,*,#304,.T.);
#165=ORIENTED_EDGE('',*,*,#297,.T.);
#166=ORIENTED_EDGE('',*,*,#305,.T.);
#167=ORIENTED_EDGE('',*,*,#273,.T.);
#168=ORIENTED_EDGE('',*,*,#306,.F.);
#169=ORIENTED_EDGE('',*,*,#291,.F.);
#170=ORIENTED_EDGE('',*,*,#298,.F.);
#171=ORIENTED_EDGE('',*,*,#304,.F.);
#172=ORIENTED_EDGE('',*,*,#303,.T.);
#173=ORIENTED_EDGE('',*,*,#307,.T.);
#174=ORIENTED_EDGE('',*,*,#292,.F.);
#175=ORIENTED_EDGE('',*,*,#306,.T.);
#176=ORIENTED_EDGE('',*,*,#289,.F.);
#177=ORIENTED_EDGE('',*,*,#274,.F.);
#178=ORIENTED_EDGE('',*,*,#305,.F.);
#179=ORIENTED_EDGE('',*,*,#296,.F.);
#180=ORIENTED_EDGE('',*,*,#302,.F.);
#181=ORIENTED_EDGE('',*,*,#286,.F.);
#182=ORIENTED_EDGE('',*,*,#293,.F.);
#183=ORIENTED_EDGE('',*,*,#307,.F.);
#184=ORIENTED_EDGE('',*,*,#308,.T.);
#185=ORIENTED_EDGE('',*,*,#309,.T.);
#186=ORIENTED_EDGE('',*,*,#276,.T.);
#187=ORIENTED_EDGE('',*,*,#310,.T.);
#188=ORIENTED_EDGE('',*,*,#311,.T.);
#189=ORIENTED_EDGE('',*,*,#312,.T.);
#190=ORIENTED_EDGE('',*,*,#278,.T.);
#191=ORIENTED_EDGE('',*,*,#313,.T.);
#192=ORIENTED_EDGE('',*,*,#314,.T.);
#193=ORIENTED_EDGE('',*,*,#315,.T.);
#194=ORIENTED_EDGE('',*,*,#280,.T.);
#195=ORIENTED_EDGE('',*,*,#316,.T.);
#196=ORIENTED_EDGE('',*,*,#317,.F.);
#197=ORIENTED_EDGE('',*,*,#318,.T.);
#198=ORIENTED_EDGE('',*,*,#314,.F.);
#199=ORIENTED_EDGE('',*,*,#319,.T.);
#200=ORIENTED_EDGE('',*,*,#311,.F.);
#201=ORIENTED_EDGE('',*,*,#320,.T.);
#202=ORIENTED_EDGE('',*,*,#308,.F.);
#203=ORIENTED_EDGE('',*,*,#321,.T.);
#204=ORIENTED_EDGE('',*,*,#282,.T.);
#205=ORIENTED_EDGE('',*,*,#322,.T.);
#206=ORIENTED_EDGE('',*,*,#317,.T.);
#207=ORIENTED_EDGE('',*,*,#323,.T.);
#208=ORIENTED_EDGE('',*,*,#281,.F.);
#209=ORIENTED_EDGE('',*,*,#315,.F.);
#210=ORIENTED_EDGE('',*,*,#318,.F.);
#211=ORIENTED_EDGE('',*,*,#322,.F.);
#212=ORIENTED_EDGE('',*,*,#279,.F.);
#213=ORIENTED_EDGE('',*,*,#312,.F.);
#214=ORIENTED_EDGE('',*,*,#319,.F.);
#215=ORIENTED_EDGE('',*,*,#316,.F.);
#216=ORIENTED_EDGE('',*,*,#277,.F.);
#217=ORIENTED_EDGE('',*,*,#309,.F.);
#218=ORIENTED_EDGE('',*,*,#320,.F.);
#219=ORIENTED_EDGE('',*,*,#313,.F.);
#220=ORIENTED_EDGE('',*,*,#283,.F.);
#221=ORIENTED_EDGE('',*,*,#323,.F.);
#222=ORIENTED_EDGE('',*,*,#321,.F.);
#223=ORIENTED_EDGE('',*,*,#310,.F.);
#224=ORIENTED_EDGE('',*,*,#288,.T.);
#225=ORIENTED_EDGE('',*,*,#324,.T.);
#226=ORIENTED_EDGE('',*,*,#299,.T.);
#227=ORIENTED_EDGE('',*,*,#272,.T.);
#228=ORIENTED_EDGE('',*,*,#295,.T.);
#229=ORIENTED_EDGE('',*,*,#325,.F.);
#230=ORIENTED_EDGE('',*,*,#300,.T.);
#231=ORIENTED_EDGE('',*,*,#324,.F.);
#232=ORIENTED_EDGE('',*,*,#294,.T.);
#233=ORIENTED_EDGE('',*,*,#284,.T.);
#234=ORIENTED_EDGE('',*,*,#301,.T.);
#235=ORIENTED_EDGE('',*,*,#325,.T.);
#236=VERTEX_POINT('',#556);
#237=VERTEX_POINT('',#557);
#238=VERTEX_POINT('',#559);
#239=VERTEX_POINT('',#561);
#240=VERTEX_POINT('',#564);
#241=VERTEX_POINT('',#565);
#242=VERTEX_POINT('',#567);
#243=VERTEX_POINT('',#569);
#244=VERTEX_POINT('',#571);
#245=VERTEX_POINT('',#573);
#246=VERTEX_POINT('',#575);
#247=VERTEX_POINT('',#577);
#248=VERTEX_POINT('',#581);
#249=VERTEX_POINT('',#582);
#250=VERTEX_POINT('',#584);
#251=VERTEX_POINT('',#586);
#252=VERTEX_POINT('',#590);
#253=VERTEX_POINT('',#592);
#254=VERTEX_POINT('',#594);
#255=VERTEX_POINT('',#596);
#256=VERTEX_POINT('',#598);
#257=VERTEX_POINT('',#601);
#258=VERTEX_POINT('',#605);
#259=VERTEX_POINT('',#607);
#260=VERTEX_POINT('',#611);
#261=VERTEX_POINT('',#613);
#262=VERTEX_POINT('',#616);
#263=VERTEX_POINT('',#618);
#264=VERTEX_POINT('',#629);
#265=VERTEX_POINT('',#630);
#266=VERTEX_POINT('',#635);
#267=VERTEX_POINT('',#636);
#268=VERTEX_POINT('',#641);
#269=VERTEX_POINT('',#642);
#270=VERTEX_POINT('',#647);
#271=VERTEX_POINT('',#648);
#272=EDGE_CURVE('',#236,#237,#326,.T.);
#273=EDGE_CURVE('',#238,#236,#327,.T.);
#274=EDGE_CURVE('',#238,#239,#328,.T.);
#275=EDGE_CURVE('',#237,#239,#329,.T.);
#276=EDGE_CURVE('',#240,#241,#330,.T.);
#277=EDGE_CURVE('',#240,#242,#96,.T.);
#278=EDGE_CURVE('',#243,#242,#331,.T.);
#279=EDGE_CURVE('',#243,#244,#97,.T.);
#280=EDGE_CURVE('',#245,#244,#332,.T.);
#281=EDGE_CURVE('',#245,#246,#98,.T.);
#282=EDGE_CURVE('',#247,#246,#333,.T.);
#283=EDGE_CURVE('',#247,#241,#99,.T.);
#284=EDGE_CURVE('',#248,#249,#334,.T.);
#285=EDGE_CURVE('',#250,#248,#335,.T.);
#286=EDGE_CURVE('',#250,#251,#336,.T.);
#287=EDGE_CURVE('',#249,#251,#337,.T.);
#288=EDGE_CURVE('',#237,#252,#338,.T.);
#289=EDGE_CURVE('',#239,#253,#339,.T.);
#290=EDGE_CURVE('',#254,#253,#340,.T.);
#291=EDGE_CURVE('',#254,#255,#341,.T.);
#292=EDGE_CURVE('',#255,#256,#342,.T.);
#293=EDGE_CURVE('',#256,#250,#343,.T.);
#294=EDGE_CURVE('',#257,#248,#344,.T.);
#295=EDGE_CURVE('',#252,#257,#345,.T.);
#296=EDGE_CURVE('',#253,#258,#346,.T.);
#297=EDGE_CURVE('',#259,#258,#347,.T.);
#298=EDGE_CURVE('',#259,#254,#348,.T.);
#299=EDGE_CURVE('',#260,#236,#349,.T.);
#300=EDGE_CURVE('',#261,#260,#350,.T.);
#301=EDGE_CURVE('',#249,#261,#351,.T.);
#302=EDGE_CURVE('',#251,#262,#352,.T.);
#303=EDGE_CURVE('',#263,#262,#353,.T.);
#304=EDGE_CURVE('',#263,#259,#354,.T.);
#305=EDGE_CURVE('',#258,#238,#355,.T.);
#306=EDGE_CURVE('',#255,#263,#356,.T.);
#307=EDGE_CURVE('',#262,#256,#357,.T.);
#308=EDGE_CURVE('',#264,#265,#358,.T.);
#309=EDGE_CURVE('',#265,#240,#359,.T.);
#310=EDGE_CURVE('',#241,#264,#360,.T.);
#311=EDGE_CURVE('',#266,#267,#361,.T.);
#312=EDGE_CURVE('',#267,#243,#362,.T.);
#313=EDGE_CURVE('',#242,#266,#363,.T.);
#314=EDGE_CURVE('',#268,#269,#364,.T.);
#315=EDGE_CURVE('',#269,#245,#365,.T.);
#316=EDGE_CURVE('',#244,#268,#366,.T.);
#317=EDGE_CURVE('',#270,#271,#367,.T.);
#318=EDGE_CURVE('',#270,#269,#100,.T.);
#319=EDGE_CURVE('',#268,#267,#101,.T.);
#320=EDGE_CURVE('',#266,#265,#102,.T.);
#321=EDGE_CURVE('',#264,#271,#103,.T.);
#322=EDGE_CURVE('',#246,#270,#368,.T.);
#323=EDGE_CURVE('',#271,#247,#369,.T.);
#324=EDGE_CURVE('',#252,#260,#370,.T.);
#325=EDGE_CURVE('',#261,#257,#371,.T.);
#326=LINE('',#555,#372);
#327=LINE('',#558,#373);
#328=LINE('',#560,#374);
#329=LINE('',#562,#375);
#330=LINE('',#563,#376);
#331=LINE('',#568,#377);
#332=LINE('',#572,#378);
#333=LINE('',#576,#379);
#334=LINE('',#580,#380);
#335=LINE('',#583,#381);
#336=LINE('',#585,#382);
#337=LINE('',#587,#383);
#338=LINE('',#589,#384);
#339=LINE('',#591,#385);
#340=LINE('',#593,#386);
#341=LINE('',#595,#387);
#342=LINE('',#597,#388);
#343=LINE('',#599,#389);
#344=LINE('',#600,#390);
#345=LINE('',#602,#391);
#346=LINE('',#604,#392);
#347=LINE('',#606,#393);
#348=LINE('',#608,#394);
#349=LINE('',#610,#395);
#350=LINE('',#612,#396);
#351=LINE('',#614,#397);
#352=LINE('',#615,#398);
#353=LINE('',#617,#399);
#354=LINE('',#619,#400);
#355=LINE('',#620,#401);
#356=LINE('',#622,#402);
#357=LINE('',#624,#403);
#358=LINE('',#628,#404);
#359=LINE('',#631,#405);
#360=LINE('',#632,#406);
#361=LINE('',#634,#407);
#362=LINE('',#637,#408);
#363=LINE('',#638,#409);
#364=LINE('',#640,#410);
#365=LINE('',#643,#411);
#366=LINE('',#644,#412);
#367=LINE('',#646,#413);
#368=LINE('',#654,#414);
#369=LINE('',#655,#415);
#370=LINE('',#661,#416);
#371=LINE('',#663,#417);
#372=VECTOR('',#450,1.);
#373=VECTOR('',#451,1.);
#374=VECTOR('',#452,1.);
#375=VECTOR('',#453,1.);
#376=VECTOR('',#454,1.);
#377=VECTOR('',#457,1.);
#378=VECTOR('',#460,1.);
#379=VECTOR('',#463,1.);
#380=VECTOR('',#468,1.);
#381=VECTOR('',#469,1.);
#382=VECTOR('',#470,1.);
#383=VECTOR('',#471,1.);
#384=VECTOR('',#474,1.);
#385=VECTOR('',#475,1.);
#386=VECTOR('',#476,1.);
#387=VECTOR('',#477,1.);
#388=VECTOR('',#478,1.);
#389=VECTOR('',#479,1.);
#390=VECTOR('',#480,1.);
#391=VECTOR('',#481,1.);
#392=VECTOR('',#484,1.);
#393=VECTOR('',#485,1.);
#394=VECTOR('',#486,1.);
#395=VECTOR('',#489,1.);
#396=VECTOR('',#490,1.);
#397=VECTOR('',#491,1.);
#398=VECTOR('',#492,1.);
#399=VECTOR('',#493,1.);
#400=VECTOR('',#494,1.);
#401=VECTOR('',#495,1.);
#402=VECTOR('',#498,1.);
#403=VECTOR('',#501,1.);
#404=VECTOR('',#508,1.);
#405=VECTOR('',#509,1.);
#406=VECTOR('',#510,1.);
#407=VECTOR('',#513,1.);
#408=VECTOR('',#514,1.);
#409=VECTOR('',#515,1.);
#410=VECTOR('',#518,1.);
#411=VECTOR('',#519,1.);
#412=VECTOR('',#520,1.);
#413=VECTOR('',#523,1.);
#414=VECTOR('',#534,1.);
#415=VECTOR('',#535,1.);
#416=VECTOR('',#546,1.);
#417=VECTOR('',#549,1.);
#418=AXIS2_PLACEMENT_3D('',#554,#448,#449);
#419=AXIS2_PLACEMENT_3D('',#566,#455,#456);
#420=AXIS2_PLACEMENT_3D('',#570,#458,#459);
#421=AXIS2_PLACEMENT_3D('',#574,#461,#462);
#422=AXIS2_PLACEMENT_3D('',#578,#464,#465);
#423=AXIS2_PLACEMENT_3D('',#579,#466,#467);
#424=AXIS2_PLACEMENT_3D('',#588,#472,#473);
#425=AXIS2_PLACEMENT_3D('',#603,#482,#483);
#426=AXIS2_PLACEMENT_3D('',#609,#487,#488);
#427=AXIS2_PLACEMENT_3D('',#621,#496,#497);
#428=AXIS2_PLACEMENT_3D('',#623,#499,#500);
#429=AXIS2_PLACEMENT_3D('',#625,#502,#503);
#430=AXIS2_PLACEMENT_3D('',#626,#504,#505);
#431=AXIS2_PLACEMENT_3D('',#627,#506,#507);
#432=AXIS2_PLACEMENT_3D('',#633,#511,#512);
#433=AXIS2_PLACEMENT_3D('',#639,#516,#517);
#434=AXIS2_PLACEMENT_3D('',#645,#521,#522);
#435=AXIS2_PLACEMENT_3D('',#649,#524,#525);
#436=AXIS2_PLACEMENT_3D('',#650,#526,#527);
#437=AXIS2_PLACEMENT_3D('',#651,#528,#529);
#438=AXIS2_PLACEMENT_3D('',#652,#530,#531);
#439=AXIS2_PLACEMENT_3D('',#653,#532,#533);
#440=AXIS2_PLACEMENT_3D('',#656,#536,#537);
#441=AXIS2_PLACEMENT_3D('',#657,#538,#539);
#442=AXIS2_PLACEMENT_3D('',#658,#540,#541);
#443=AXIS2_PLACEMENT_3D('',#659,#542,#543);
#444=AXIS2_PLACEMENT_3D('',#660,#544,#545);
#445=AXIS2_PLACEMENT_3D('',#662,#547,#548);
#446=AXIS2_PLACEMENT_3D('',#664,#550,#551);
#447=AXIS2_PLACEMENT_3D('',#665,#552,#553);
#448=DIRECTION('',(0.,0.,1.));
#449=DIRECTION('',(1.,0.,0.));
#450=DIRECTION('',(0.,-1.,0.));
#451=DIRECTION('',(1.,0.,0.));
#452=DIRECTION('',(0.,-1.,0.));
#453=DIRECTION('',(-1.,0.,0.));
#454=DIRECTION('',(1.,0.,0.));
#455=DIRECTION('',(0.,0.,-1.));
#456=DIRECTION('',(1.,0.,0.));
#457=DIRECTION('',(0.,-1.,0.));
#458=DIRECTION('',(0.,0.,-1.));
#459=DIRECTION('',(1.,0.,0.));
#460=DIRECTION('',(-1.,0.,0.));
#461=DIRECTION('',(0.,0.,-1.));
#462=DIRECTION('',(1.,0.,0.));
#463=DIRECTION('',(0.,1.,0.));
#464=DIRECTION('',(0.,0.,-1.));
#465=DIRECTION('',(1.,0.,0.));
#466=DIRECTION('',(0.,0.,1.));
#467=DIRECTION('',(1.,0.,0.));
#468=DIRECTION('',(0.,1.,0.));
#469=DIRECTION('',(-1.,0.,0.));
#470=DIRECTION('',(0.,1.,0.));
#471=DIRECTION('',(1.,0.,0.));
#472=DIRECTION('',(0.,0.,1.));
#473=DIRECTION('',(1.,0.,0.));
#474=DIRECTION('',(0.,0.,-1.));
#475=DIRECTION('',(-0.707106781186547,0.,-0.707106781186548));
#476=DIRECTION('',(0.,0.,1.));
#477=DIRECTION('',(1.,0.,0.));
#478=DIRECTION('',(0.,0.,1.));
#479=DIRECTION('',(-0.707106781186547,0.,0.707106781186548));
#480=DIRECTION('',(0.,0.,1.));
#481=DIRECTION('',(1.,0.,0.));
#482=DIRECTION('',(0.,-1.,0.));
#483=DIRECTION('',(0.,0.,-1.));
#484=DIRECTION('',(0.,1.,0.));
#485=DIRECTION('',(0.,0.,1.));
#486=DIRECTION('',(0.,-1.,0.));
#487=DIRECTION('',(-1.,0.,0.));
#488=DIRECTION('',(0.,0.,1.));
#489=DIRECTION('',(0.,0.,1.));
#490=DIRECTION('',(-1.,0.,0.));
#491=DIRECTION('',(0.,0.,-1.));
#492=DIRECTION('',(0.707106781186547,0.,-0.707106781186548));
#493=DIRECTION('',(0.,0.,1.));
#494=DIRECTION('',(-1.,0.,0.));
#495=DIRECTION('',(0.707106781186547,0.,0.707106781186548));
#496=DIRECTION('',(0.,1.,0.));
#497=DIRECTION('',(0.,0.,1.));
#498=DIRECTION('',(0.,1.,0.));
#499=DIRECTION('',(0.,0.,-1.));
#500=DIRECTION('',(-1.,0.,0.));
#501=DIRECTION('',(0.,-1.,0.));
#502=DIRECTION('',(1.,0.,0.));
#503=DIRECTION('',(0.,0.,-1.));
#504=DIRECTION('',(0.707106781186548,0.,-0.707106781186547));
#505=DIRECTION('',(0.,1.,0.));
#506=DIRECTION('',(-0.707106781186548,0.,-0.707106781186547));
#507=DIRECTION('',(0.,-1.,0.));
#508=DIRECTION('',(-1.,0.,0.));
#509=DIRECTION('',(0.,0.,1.));
#510=DIRECTION('',(0.,0.,-1.));
#511=DIRECTION('',(0.,-1.,0.));
#512=DIRECTION('',(0.,0.,-1.));
#513=DIRECTION('',(0.,1.,0.));
#514=DIRECTION('',(0.,0.,1.));
#515=DIRECTION('',(0.,0.,-1.));
#516=DIRECTION('',(-1.,0.,0.));
#517=DIRECTION('',(0.,0.,1.));
#518=DIRECTION('',(1.,0.,0.));
#519=DIRECTION('',(0.,0.,1.));
#520=DIRECTION('',(0.,0.,-1.));
#521=DIRECTION('',(0.,1.,0.));
#522=DIRECTION('',(0.,0.,1.));
#523=DIRECTION('',(0.,-1.,0.));
#524=DIRECTION('',(0.,0.,1.));
#525=DIRECTION('',(-1.,0.,0.));
#526=DIRECTION('',(0.,0.,1.));
#527=DIRECTION('',(-1.,0.,0.));
#528=DIRECTION('',(0.,0.,1.));
#529=DIRECTION('',(-1.,0.,0.));
#530=DIRECTION('',(0.,0.,1.));
#531=DIRECTION('',(-1.,0.,0.));
#532=DIRECTION('',(0.,0.,-1.));
#533=DIRECTION('',(-1.,0.,0.));
#534=DIRECTION('',(0.,0.,-1.));
#535=DIRECTION('',(0.,0.,1.));
#536=DIRECTION('',(1.,0.,0.));
#537=DIRECTION('',(0.,0.,-1.));
#538=DIRECTION('',(0.,0.,1.));
#539=DIRECTION('',(1.,0.,0.));
#540=DIRECTION('',(0.,0.,1.));
#541=DIRECTION('',(1.,0.,0.));
#542=DIRECTION('',(0.,0.,1.));
#543=DIRECTION('',(1.,0.,0.));
#544=DIRECTION('',(0.,0.,1.));
#545=DIRECTION('',(1.,0.,0.));
#546=DIRECTION('',(0.,1.,0.));
#547=DIRECTION('',(-1.,0.,0.));
#548=DIRECTION('',(0.,0.,1.));
#549=DIRECTION('',(0.,-1.,0.));
#550=DIRECTION('',(0.,0.,-1.));
#551=DIRECTION('',(-1.,0.,0.));
#552=DIRECTION('',(1.,0.,0.));
#553=DIRECTION('',(0.,0.,-1.));
#554=CARTESIAN_POINT('',(0.,0.,0.));
#555=CARTESIAN_POINT('',(349.9,160.45,50.7));
#556=CARTESIAN_POINT('',(349.9,320.9,50.7));
#557=CARTESIAN_POINT('',(349.9,0.,50.7));
#558=CARTESIAN_POINT('',(195.6,320.9,50.7));
#559=CARTESIAN_POINT('',(6.09999999999999,320.9,50.7));
#560=CARTESIAN_POINT('',(6.09999999999999,160.45,50.7));
#561=CARTESIAN_POINT('',(6.09999999999999,0.,50.7));
#562=CARTESIAN_POINT('',(195.6,0.,50.7));
#563=CARTESIAN_POINT('',(195.6,69.7,50.7));
#564=CARTESIAN_POINT('',(46.5,69.7,50.7));
#565=CARTESIAN_POINT('',(115.4,69.7,50.7));
#566=CARTESIAN_POINT('',(46.5,76.2,50.7));
#567=CARTESIAN_POINT('',(40.,76.2,50.7));
#568=CARTESIAN_POINT('',(40.,160.45,50.7));
#569=CARTESIAN_POINT('',(40.,144.6,50.7));
#570=CARTESIAN_POINT('',(46.5,144.6,50.7));
#571=CARTESIAN_POINT('',(46.5,151.1,50.7));
#572=CARTESIAN_POINT('',(195.6,151.1,50.7));
#573=CARTESIAN_POINT('',(115.4,151.1,50.7));
#574=CARTESIAN_POINT('',(115.4,144.6,50.7));
#575=CARTESIAN_POINT('',(121.9,144.6,50.7));
#576=CARTESIAN_POINT('',(121.9,160.45,50.7));
#577=CARTESIAN_POINT('',(121.9,76.2,50.7));
#578=CARTESIAN_POINT('',(115.4,76.2,50.7));
#579=CARTESIAN_POINT('',(195.6,160.45,50.7));
#580=CARTESIAN_POINT('',(377.1,160.45,50.7));
#581=CARTESIAN_POINT('',(377.1,0.,50.7));
#582=CARTESIAN_POINT('',(377.1,320.9,50.7));
#583=CARTESIAN_POINT('',(195.6,0.,50.7));
#584=CARTESIAN_POINT('',(382.,0.,50.7));
#585=CARTESIAN_POINT('',(382.,160.45,50.7));
#586=CARTESIAN_POINT('',(382.,320.9,50.7));
#587=CARTESIAN_POINT('',(195.6,320.9,50.7));
#588=CARTESIAN_POINT('',(195.6,160.45,50.7));
#589=CARTESIAN_POINT('',(349.9,0.,0.));
#590=CARTESIAN_POINT('',(349.9,0.,22.7));
#591=CARTESIAN_POINT('',(75.4999999999999,0.,120.1));
#592=CARTESIAN_POINT('',(0.,0.,44.6));
#593=CARTESIAN_POINT('',(0.,0.,0.));
#594=CARTESIAN_POINT('',(0.,0.,0.));
#595=CARTESIAN_POINT('',(195.6,0.,0.));
#596=CARTESIAN_POINT('',(391.2,0.,0.));
#597=CARTESIAN_POINT('',(391.2,0.,0.));
#598=CARTESIAN_POINT('',(391.2,0.,41.5));
#599=CARTESIAN_POINT('',(314.15,0.,118.55));
#600=CARTESIAN_POINT('',(377.1,0.,0.));
#601=CARTESIAN_POINT('',(377.1,0.,22.7));
#602=CARTESIAN_POINT('',(195.6,0.,22.7));
#603=CARTESIAN_POINT('',(195.6,0.,0.));
#604=CARTESIAN_POINT('',(0.,160.45,44.6));
#605=CARTESIAN_POINT('',(0.,320.9,44.6));
#606=CARTESIAN_POINT('',(0.,320.9,0.));
#607=CARTESIAN_POINT('',(0.,320.9,0.));
#608=CARTESIAN_POINT('',(0.,160.45,0.));
#609=CARTESIAN_POINT('',(0.,160.45,0.));
#610=CARTESIAN_POINT('',(349.9,320.9,0.));
#611=CARTESIAN_POINT('',(349.9,320.9,22.7));
#612=CARTESIAN_POINT('',(195.6,320.9,22.7));
#613=CARTESIAN_POINT('',(377.1,320.9,22.7));
#614=CARTESIAN_POINT('',(377.1,320.9,0.));
#615=CARTESIAN_POINT('',(314.15,320.9,118.55));
#616=CARTESIAN_POINT('',(391.2,320.9,41.5));
#617=CARTESIAN_POINT('',(391.2,320.9,0.));
#618=CARTESIAN_POINT('',(391.2,320.9,0.));
#619=CARTESIAN_POINT('',(195.6,320.9,0.));
#620=CARTESIAN_POINT('',(75.4999999999999,320.9,120.1));
#621=CARTESIAN_POINT('',(195.6,320.9,0.));
#622=CARTESIAN_POINT('',(391.2,160.45,0.));
#623=CARTESIAN_POINT('',(195.6,160.45,0.));
#624=CARTESIAN_POINT('',(391.2,160.45,41.5));
#625=CARTESIAN_POINT('',(391.2,160.45,0.));
#626=CARTESIAN_POINT('',(0.,160.45,44.6));
#627=CARTESIAN_POINT('',(391.2,160.45,41.5));
#628=CARTESIAN_POINT('',(80.95,69.7,44.6));
#629=CARTESIAN_POINT('',(115.4,69.7,44.6));
#630=CARTESIAN_POINT('',(46.5,69.7,44.6));
#631=CARTESIAN_POINT('',(46.5,69.7,50.7));
#632=CARTESIAN_POINT('',(115.4,69.7,44.6));
#633=CARTESIAN_POINT('',(80.95,69.7,44.6));
#634=CARTESIAN_POINT('',(40.,110.4,44.6));
#635=CARTESIAN_POINT('',(40.,76.2,44.6));
#636=CARTESIAN_POINT('',(40.,144.6,44.6));
#637=CARTESIAN_POINT('',(40.,144.6,50.7));
#638=CARTESIAN_POINT('',(40.,76.2,44.6));
#639=CARTESIAN_POINT('',(40.,110.4,44.6));
#640=CARTESIAN_POINT('',(80.95,151.1,44.6));
#641=CARTESIAN_POINT('',(46.5,151.1,44.6));
#642=CARTESIAN_POINT('',(115.4,151.1,44.6));
#643=CARTESIAN_POINT('',(115.4,151.1,50.7));
#644=CARTESIAN_POINT('',(46.5,151.1,44.6));
#645=CARTESIAN_POINT('',(80.95,151.1,44.6));
#646=CARTESIAN_POINT('',(121.9,110.4,44.6));
#647=CARTESIAN_POINT('',(121.9,144.6,44.6));
#648=CARTESIAN_POINT('',(121.9,76.2,44.6));
#649=CARTESIAN_POINT('',(115.4,144.6,44.6));
#650=CARTESIAN_POINT('',(46.5,144.6,44.6));
#651=CARTESIAN_POINT('',(46.5,76.2,44.6));
#652=CARTESIAN_POINT('',(115.4,76.2,44.6));
#653=CARTESIAN_POINT('',(80.95,110.4,44.6));
#654=CARTESIAN_POINT('',(121.9,144.6,44.6));
#655=CARTESIAN_POINT('',(121.9,76.2,50.7));
#656=CARTESIAN_POINT('',(121.9,110.4,44.6));
#657=CARTESIAN_POINT('',(115.4,144.6,44.6));
#658=CARTESIAN_POINT('',(46.5,144.6,44.6));
#659=CARTESIAN_POINT('',(46.5,76.2,44.6));
#660=CARTESIAN_POINT('',(115.4,76.2,44.6));
#661=CARTESIAN_POINT('',(349.9,160.45,22.7));
#662=CARTESIAN_POINT('',(349.9,160.45,22.7));
#663=CARTESIAN_POINT('',(377.1,160.45,22.7));
#664=CARTESIAN_POINT('',(363.5,160.45,22.7));
#665=CARTESIAN_POINT('',(377.1,160.45,22.7));
#666=MECHANICAL_DESIGN_GEOMETRIC_PRESENTATION_REPRESENTATION('',(#24),#667);
#667=(
GEOMETRIC_REPRESENTATION_CONTEXT(3)
GLOBAL_UNCERTAINTY_ASSIGNED_CONTEXT((#668))
GLOBAL_UNIT_ASSIGNED_CONTEXT((#674,#670,#669))
REPRESENTATION_CONTEXT('featured_part_04257','TOP_LEVEL_ASSEMBLY_PART')
);
#668=UNCERTAINTY_MEASURE_WITH_UNIT(LENGTH_MEASURE(2.E-5),#674,
'DISTANCE_ACCURACY_VALUE','Maximum Tolerance applied to model');
#669=(
NAMED_UNIT(*)
SI_UNIT($,.STERADIAN.)
SOLID_ANGLE_UNIT()
);
#670=(
CONVERSION_BASED_UNIT('DEGREE',#672)
NAMED_UNIT(#671)
PLANE_ANGLE_UNIT()
);
#671=DIMENSIONAL_EXPONENTS(0.,0.,0.,0.,0.,0.,0.);
#672=PLANE_ANGLE_MEASURE_WITH_UNIT(PLANE_ANGLE_MEASURE(0.0174532925),#673);
#673=(
NAMED_UNIT(*)
PLANE_ANGLE_UNIT()
SI_UNIT($,.RADIAN.)
);
#674=(
LENGTH_UNIT()
NAMED_UNIT(*)
SI_UNIT(.MILLI.,.METRE.)
);
ENDSEC;
END-ISO-10303-21;
