ISO-10303-21;
HEADER;
/* Generated by software containing ST-Developer
 * from STEP Tools, Inc. (www.steptools.com) 
 */
/* OPTION: using custom schema-name function */

FILE_DESCRIPTION(
/* description */ (''),
/* implementation_level */ '2;1');

FILE_NAME(
/* name */ 'featured_part_05954.stp',
/* time_stamp */ '2026-07-14T11:35:13-04:00',
/* author */ (''),
/* organization */ (''),
/* preprocessor_version */ 'ST-DEVELOPER v20.1',
/* originating_system */ 'SIEMENS PLM Software NX2512.6002',
/* authorisation */ '');

FILE_SCHEMA (('AUTOMOTIVE_DESIGN { 1 0 10303 214 3 1 1 1 }'));
ENDSEC;

DATA;
#10=SHAPE_REPRESENTATION_RELATIONSHIP('None',
'relationship between featured_part_05954-None and featured_part_05954
-None',#22,#11);
#11=ADVANCED_BREP_SHAPE_REPRESENTATION('featured_part_05954-None',(#32),
#700);
#12=SHAPE_DEFINITION_REPRESENTATION(#13,#22);
#13=PRODUCT_DEFINITION_SHAPE('','',#14);
#14=PRODUCT_DEFINITION(' ','',#16,#15);
#15=PRODUCT_DEFINITION_CONTEXT('part definition',#21,'design');
#16=PRODUCT_DEFINITION_FORMATION_WITH_SPECIFIED_SOURCE(' ',' ',#18,
 .NOT_KNOWN.);
#17=PRODUCT_RELATED_PRODUCT_CATEGORY('part','',(#18));
#18=PRODUCT('featured_part_05954','featured_part_05954',' ',(#19));
#19=PRODUCT_CONTEXT(' ',#21,'mechanical');
#20=APPLICATION_PROTOCOL_DEFINITION('international standard',
'automotive_design',2010,#21);
#21=APPLICATION_CONTEXT(
'core data for automotive mechanical design processes');
#22=SHAPE_REPRESENTATION('featured_part_05954-None',(#446),#700);
#23=PRESENTATION_LAYER_ASSIGNMENT('1','Layer 1',(#32));
#24=STYLED_ITEM('',(#25),#32);
#25=PRESENTATION_STYLE_ASSIGNMENT((#26));
#26=SURFACE_STYLE_USAGE(.BOTH.,#27);
#27=SURFACE_SIDE_STYLE('',(#28));
#28=SURFACE_STYLE_FILL_AREA(#29);
#29=FILL_AREA_STYLE('',(#30));
#30=FILL_AREA_STYLE_COLOUR('',#31);
#31=COLOUR_RGB('medium steel',0.611764705882353,0.658823529411765,0.670588235294118);
#32=MANIFOLD_SOLID_BREP('',#33);
#33=CLOSED_SHELL('',(#42,#43,#44,#45,#46,#47,#48,#49,#50,#51,#52,#53,#54,
#55,#56,#57,#58,#59,#60,#61,#62));
#34=CYLINDRICAL_SURFACE('',#472,13.75);
#35=FACE_BOUND('',#111,.T.);
#36=FACE_BOUND('',#112,.T.);
#37=FACE_BOUND('',#123,.T.);
#38=FACE_BOUND('',#124,.T.);
#39=CIRCLE('',#451,13.75);
#40=CIRCLE('',#458,13.75);
#41=CIRCLE('',#470,13.75);
#42=ADVANCED_FACE('',(#83),#63,.F.);
#43=ADVANCED_FACE('',(#84),#64,.F.);
#44=ADVANCED_FACE('',(#85),#65,.F.);
#45=ADVANCED_FACE('',(#86),#66,.T.);
#46=ADVANCED_FACE('',(#87),#67,.F.);
#47=ADVANCED_FACE('',(#88),#68,.T.);
#48=ADVANCED_FACE('',(#89),#69,.T.);
#49=ADVANCED_FACE('',(#90),#70,.T.);
#50=ADVANCED_FACE('',(#91),#71,.T.);
#51=ADVANCED_FACE('',(#35,#36),#72,.T.);
#52=ADVANCED_FACE('',(#92),#73,.T.);
#53=ADVANCED_FACE('',(#93),#74,.F.);
#54=ADVANCED_FACE('',(#94),#75,.F.);
#55=ADVANCED_FACE('',(#95),#76,.F.);
#56=ADVANCED_FACE('',(#96),#77,.F.);
#57=ADVANCED_FACE('',(#97),#78,.F.);
#58=ADVANCED_FACE('',(#98),#79,.F.);
#59=ADVANCED_FACE('',(#99),#80,.F.);
#60=ADVANCED_FACE('',(#100),#81,.F.);
#61=ADVANCED_FACE('',(#101),#82,.F.);
#62=ADVANCED_FACE('',(#37,#38),#34,.F.);
#63=PLANE('',#448);
#64=PLANE('',#449);
#65=PLANE('',#450);
#66=PLANE('',#452);
#67=PLANE('',#453);
#68=PLANE('',#454);
#69=PLANE('',#455);
#70=PLANE('',#456);
#71=PLANE('',#457);
#72=PLANE('',#459);
#73=PLANE('',#460);
#74=PLANE('',#461);
#75=PLANE('',#463);
#76=PLANE('',#464);
#77=PLANE('',#465);
#78=PLANE('',#466);
#79=PLANE('',#467);
#80=PLANE('',#468);
#81=PLANE('',#469);
#82=PLANE('',#471);
#83=FACE_OUTER_BOUND('',#102,.T.);
#84=FACE_OUTER_BOUND('',#103,.T.);
#85=FACE_OUTER_BOUND('',#104,.T.);
#86=FACE_OUTER_BOUND('',#105,.T.);
#87=FACE_OUTER_BOUND('',#106,.T.);
#88=FACE_OUTER_BOUND('',#107,.T.);
#89=FACE_OUTER_BOUND('',#108,.T.);
#90=FACE_OUTER_BOUND('',#109,.T.);
#91=FACE_OUTER_BOUND('',#110,.T.);
#92=FACE_OUTER_BOUND('',#113,.T.);
#93=FACE_OUTER_BOUND('',#114,.T.);
#94=FACE_OUTER_BOUND('',#115,.T.);
#95=FACE_OUTER_BOUND('',#116,.T.);
#96=FACE_OUTER_BOUND('',#117,.T.);
#97=FACE_OUTER_BOUND('',#118,.T.);
#98=FACE_OUTER_BOUND('',#119,.T.);
#99=FACE_OUTER_BOUND('',#120,.T.);
#100=FACE_OUTER_BOUND('',#121,.T.);
#101=FACE_OUTER_BOUND('',#122,.T.);
#102=EDGE_LOOP('',(#231,#232,#233,#234));
#103=EDGE_LOOP('',(#235,#236,#237,#238,#239));
#104=EDGE_LOOP('',(#240,#241,#242,#243));
#105=EDGE_LOOP('',(#244,#245,#246,#247,#248,#249));
#106=EDGE_LOOP('',(#250,#251,#252,#253,#254));
#107=EDGE_LOOP('',(#255,#256,#257,#258));
#108=EDGE_LOOP('',(#259,#260,#261,#262));
#109=EDGE_LOOP('',(#263,#264,#265,#266,#267,#268,#269,#270,#271,#272,#273,
#274,#275,#276));
#110=EDGE_LOOP('',(#277,#278,#279,#280));
#111=EDGE_LOOP('',(#281));
#112=EDGE_LOOP('',(#282,#283,#284,#285));
#113=EDGE_LOOP('',(#286,#287,#288,#289,#290,#291,#292,#293,#294,#295,#296,
#297,#298));
#114=EDGE_LOOP('',(#299,#300,#301,#302,#303));
#115=EDGE_LOOP('',(#304,#305,#306,#307));
#116=EDGE_LOOP('',(#308,#309,#310,#311));
#117=EDGE_LOOP('',(#312,#313,#314,#315,#316));
#118=EDGE_LOOP('',(#317,#318,#319,#320,#321));
#119=EDGE_LOOP('',(#322,#323,#324,#325));
#120=EDGE_LOOP('',(#326,#327,#328,#329));
#121=EDGE_LOOP('',(#330,#331,#332,#333));
#122=EDGE_LOOP('',(#334,#335,#336,#337,#338,#339));
#123=EDGE_LOOP('',(#340));
#124=EDGE_LOOP('',(#341,#342,#343,#344,#345,#346));
#125=LINE('',#584,#178);
#126=LINE('',#586,#179);
#127=LINE('',#588,#180);
#128=LINE('',#590,#181);
#129=LINE('',#592,#182);
#130=LINE('',#594,#183);
#131=LINE('',#596,#184);
#132=LINE('',#598,#185);
#133=LINE('',#601,#186);
#134=LINE('',#603,#187);
#135=LINE('',#605,#188);
#136=LINE('',#609,#189);
#137=LINE('',#611,#190);
#138=LINE('',#613,#191);
#139=LINE('',#615,#192);
#140=LINE('',#617,#193);
#141=LINE('',#619,#194);
#142=LINE('',#621,#195);
#143=LINE('',#624,#196);
#144=LINE('',#626,#197);
#145=LINE('',#628,#198);
#146=LINE('',#630,#199);
#147=LINE('',#632,#200);
#148=LINE('',#634,#201);
#149=LINE('',#636,#202);
#150=LINE('',#638,#203);
#151=LINE('',#640,#204);
#152=LINE('',#642,#205);
#153=LINE('',#643,#206);
#154=LINE('',#645,#207);
#155=LINE('',#647,#208);
#156=LINE('',#648,#209);
#157=LINE('',#650,#210);
#158=LINE('',#652,#211);
#159=LINE('',#654,#212);
#160=LINE('',#656,#213);
#161=LINE('',#658,#214);
#162=LINE('',#662,#215);
#163=LINE('',#664,#216);
#164=LINE('',#666,#217);
#165=LINE('',#668,#218);
#166=LINE('',#670,#219);
#167=LINE('',#672,#220);
#168=LINE('',#674,#221);
#169=LINE('',#675,#222);
#170=LINE('',#677,#223);
#171=LINE('',#681,#224);
#172=LINE('',#683,#225);
#173=LINE('',#685,#226);
#174=LINE('',#687,#227);
#175=LINE('',#690,#228);
#176=LINE('',#692,#229);
#177=LINE('',#694,#230);
#178=VECTOR('',#477,1.);
#179=VECTOR('',#478,1.);
#180=VECTOR('',#479,1.);
#181=VECTOR('',#482,1.);
#182=VECTOR('',#483,1.);
#183=VECTOR('',#484,1.);
#184=VECTOR('',#485,1.);
#185=VECTOR('',#488,1.);
#186=VECTOR('',#489,1.);
#187=VECTOR('',#490,1.);
#188=VECTOR('',#491,1.);
#189=VECTOR('',#496,1.);
#190=VECTOR('',#497,1.);
#191=VECTOR('',#498,1.);
#192=VECTOR('',#499,1.);
#193=VECTOR('',#502,1.);
#194=VECTOR('',#503,1.);
#195=VECTOR('',#506,1.);
#196=VECTOR('',#507,1.);
#197=VECTOR('',#508,1.);
#198=VECTOR('',#509,1.);
#199=VECTOR('',#512,1.);
#200=VECTOR('',#513,1.);
#201=VECTOR('',#514,1.);
#202=VECTOR('',#517,1.);
#203=VECTOR('',#518,1.);
#204=VECTOR('',#519,1.);
#205=VECTOR('',#520,1.);
#206=VECTOR('',#521,1.);
#207=VECTOR('',#522,1.);
#208=VECTOR('',#523,1.);
#209=VECTOR('',#524,1.);
#210=VECTOR('',#525,1.);
#211=VECTOR('',#526,1.);
#212=VECTOR('',#529,1.);
#213=VECTOR('',#530,1.);
#214=VECTOR('',#531,1.);
#215=VECTOR('',#536,1.);
#216=VECTOR('',#539,1.);
#217=VECTOR('',#540,1.);
#218=VECTOR('',#541,1.);
#219=VECTOR('',#542,1.);
#220=VECTOR('',#543,1.);
#221=VECTOR('',#544,1.);
#222=VECTOR('',#545,1.);
#223=VECTOR('',#548,1.);
#224=VECTOR('',#553,1.);
#225=VECTOR('',#556,1.);
#226=VECTOR('',#559,1.);
#227=VECTOR('',#562,1.);
#228=VECTOR('',#567,1.);
#229=VECTOR('',#570,1.);
#230=VECTOR('',#571,1.);
#231=ORIENTED_EDGE('',*,*,#386,.F.);
#232=ORIENTED_EDGE('',*,*,#387,.F.);
#233=ORIENTED_EDGE('',*,*,#388,.T.);
#234=ORIENTED_EDGE('',*,*,#389,.F.);
#235=ORIENTED_EDGE('',*,*,#387,.T.);
#236=ORIENTED_EDGE('',*,*,#390,.T.);
#237=ORIENTED_EDGE('',*,*,#391,.T.);
#238=ORIENTED_EDGE('',*,*,#392,.T.);
#239=ORIENTED_EDGE('',*,*,#393,.T.);
#240=ORIENTED_EDGE('',*,*,#394,.F.);
#241=ORIENTED_EDGE('',*,*,#395,.F.);
#242=ORIENTED_EDGE('',*,*,#396,.F.);
#243=ORIENTED_EDGE('',*,*,#397,.F.);
#244=ORIENTED_EDGE('',*,*,#398,.F.);
#245=ORIENTED_EDGE('',*,*,#389,.T.);
#246=ORIENTED_EDGE('',*,*,#399,.T.);
#247=ORIENTED_EDGE('',*,*,#400,.F.);
#248=ORIENTED_EDGE('',*,*,#401,.F.);
#249=ORIENTED_EDGE('',*,*,#402,.T.);
#250=ORIENTED_EDGE('',*,*,#393,.F.);
#251=ORIENTED_EDGE('',*,*,#403,.F.);
#252=ORIENTED_EDGE('',*,*,#404,.F.);
#253=ORIENTED_EDGE('',*,*,#399,.F.);
#254=ORIENTED_EDGE('',*,*,#388,.F.);
#255=ORIENTED_EDGE('',*,*,#405,.F.);
#256=ORIENTED_EDGE('',*,*,#406,.T.);
#257=ORIENTED_EDGE('',*,*,#407,.T.);
#258=ORIENTED_EDGE('',*,*,#408,.F.);
#259=ORIENTED_EDGE('',*,*,#409,.T.);
#260=ORIENTED_EDGE('',*,*,#396,.T.);
#261=ORIENTED_EDGE('',*,*,#410,.F.);
#262=ORIENTED_EDGE('',*,*,#411,.T.);
#263=ORIENTED_EDGE('',*,*,#412,.F.);
#264=ORIENTED_EDGE('',*,*,#413,.F.);
#265=ORIENTED_EDGE('',*,*,#414,.F.);
#266=ORIENTED_EDGE('',*,*,#415,.T.);
#267=ORIENTED_EDGE('',*,*,#401,.T.);
#268=ORIENTED_EDGE('',*,*,#416,.F.);
#269=ORIENTED_EDGE('',*,*,#417,.F.);
#270=ORIENTED_EDGE('',*,*,#418,.F.);
#271=ORIENTED_EDGE('',*,*,#408,.T.);
#272=ORIENTED_EDGE('',*,*,#419,.T.);
#273=ORIENTED_EDGE('',*,*,#420,.F.);
#274=ORIENTED_EDGE('',*,*,#421,.T.);
#275=ORIENTED_EDGE('',*,*,#410,.T.);
#276=ORIENTED_EDGE('',*,*,#395,.T.);
#277=ORIENTED_EDGE('',*,*,#420,.T.);
#278=ORIENTED_EDGE('',*,*,#422,.T.);
#279=ORIENTED_EDGE('',*,*,#423,.F.);
#280=ORIENTED_EDGE('',*,*,#424,.T.);
#281=ORIENTED_EDGE('',*,*,#425,.F.);
#282=ORIENTED_EDGE('',*,*,#426,.F.);
#283=ORIENTED_EDGE('',*,*,#411,.F.);
#284=ORIENTED_EDGE('',*,*,#421,.F.);
#285=ORIENTED_EDGE('',*,*,#424,.F.);
#286=ORIENTED_EDGE('',*,*,#427,.F.);
#287=ORIENTED_EDGE('',*,*,#397,.T.);
#288=ORIENTED_EDGE('',*,*,#409,.F.);
#289=ORIENTED_EDGE('',*,*,#426,.T.);
#290=ORIENTED_EDGE('',*,*,#423,.T.);
#291=ORIENTED_EDGE('',*,*,#428,.T.);
#292=ORIENTED_EDGE('',*,*,#429,.T.);
#293=ORIENTED_EDGE('',*,*,#430,.F.);
#294=ORIENTED_EDGE('',*,*,#431,.F.);
#295=ORIENTED_EDGE('',*,*,#432,.F.);
#296=ORIENTED_EDGE('',*,*,#403,.T.);
#297=ORIENTED_EDGE('',*,*,#392,.F.);
#298=ORIENTED_EDGE('',*,*,#433,.F.);
#299=ORIENTED_EDGE('',*,*,#407,.F.);
#300=ORIENTED_EDGE('',*,*,#434,.T.);
#301=ORIENTED_EDGE('',*,*,#428,.F.);
#302=ORIENTED_EDGE('',*,*,#422,.F.);
#303=ORIENTED_EDGE('',*,*,#419,.F.);
#304=ORIENTED_EDGE('',*,*,#435,.F.);
#305=ORIENTED_EDGE('',*,*,#402,.F.);
#306=ORIENTED_EDGE('',*,*,#415,.F.);
#307=ORIENTED_EDGE('',*,*,#436,.F.);
#308=ORIENTED_EDGE('',*,*,#437,.F.);
#309=ORIENTED_EDGE('',*,*,#429,.F.);
#310=ORIENTED_EDGE('',*,*,#434,.F.);
#311=ORIENTED_EDGE('',*,*,#406,.F.);
#312=ORIENTED_EDGE('',*,*,#416,.T.);
#313=ORIENTED_EDGE('',*,*,#400,.T.);
#314=ORIENTED_EDGE('',*,*,#404,.T.);
#315=ORIENTED_EDGE('',*,*,#432,.T.);
#316=ORIENTED_EDGE('',*,*,#438,.T.);
#317=ORIENTED_EDGE('',*,*,#418,.T.);
#318=ORIENTED_EDGE('',*,*,#439,.T.);
#319=ORIENTED_EDGE('',*,*,#430,.T.);
#320=ORIENTED_EDGE('',*,*,#437,.T.);
#321=ORIENTED_EDGE('',*,*,#405,.T.);
#322=ORIENTED_EDGE('',*,*,#417,.T.);
#323=ORIENTED_EDGE('',*,*,#438,.F.);
#324=ORIENTED_EDGE('',*,*,#431,.T.);
#325=ORIENTED_EDGE('',*,*,#439,.F.);
#326=ORIENTED_EDGE('',*,*,#412,.T.);
#327=ORIENTED_EDGE('',*,*,#394,.T.);
#328=ORIENTED_EDGE('',*,*,#427,.T.);
#329=ORIENTED_EDGE('',*,*,#440,.T.);
#330=ORIENTED_EDGE('',*,*,#441,.T.);
#331=ORIENTED_EDGE('',*,*,#442,.T.);
#332=ORIENTED_EDGE('',*,*,#436,.T.);
#333=ORIENTED_EDGE('',*,*,#414,.T.);
#334=ORIENTED_EDGE('',*,*,#391,.F.);
#335=ORIENTED_EDGE('',*,*,#443,.T.);
#336=ORIENTED_EDGE('',*,*,#441,.F.);
#337=ORIENTED_EDGE('',*,*,#413,.T.);
#338=ORIENTED_EDGE('',*,*,#440,.F.);
#339=ORIENTED_EDGE('',*,*,#433,.T.);
#340=ORIENTED_EDGE('',*,*,#425,.T.);
#341=ORIENTED_EDGE('',*,*,#398,.T.);
#342=ORIENTED_EDGE('',*,*,#435,.T.);
#343=ORIENTED_EDGE('',*,*,#442,.F.);
#344=ORIENTED_EDGE('',*,*,#443,.F.);
#345=ORIENTED_EDGE('',*,*,#390,.F.);
#346=ORIENTED_EDGE('',*,*,#386,.T.);
#347=VERTEX_POINT('',#582);
#348=VERTEX_POINT('',#583);
#349=VERTEX_POINT('',#585);
#350=VERTEX_POINT('',#587);
#351=VERTEX_POINT('',#591);
#352=VERTEX_POINT('',#593);
#353=VERTEX_POINT('',#595);
#354=VERTEX_POINT('',#599);
#355=VERTEX_POINT('',#600);
#356=VERTEX_POINT('',#602);
#357=VERTEX_POINT('',#604);
#358=VERTEX_POINT('',#608);
#359=VERTEX_POINT('',#610);
#360=VERTEX_POINT('',#612);
#361=VERTEX_POINT('',#614);
#362=VERTEX_POINT('',#618);
#363=VERTEX_POINT('',#622);
#364=VERTEX_POINT('',#623);
#365=VERTEX_POINT('',#625);
#366=VERTEX_POINT('',#627);
#367=VERTEX_POINT('',#631);
#368=VERTEX_POINT('',#633);
#369=VERTEX_POINT('',#637);
#370=VERTEX_POINT('',#639);
#371=VERTEX_POINT('',#641);
#372=VERTEX_POINT('',#644);
#373=VERTEX_POINT('',#646);
#374=VERTEX_POINT('',#649);
#375=VERTEX_POINT('',#651);
#376=VERTEX_POINT('',#655);
#377=VERTEX_POINT('',#657);
#378=VERTEX_POINT('',#661);
#379=VERTEX_POINT('',#665);
#380=VERTEX_POINT('',#667);
#381=VERTEX_POINT('',#669);
#382=VERTEX_POINT('',#671);
#383=VERTEX_POINT('',#673);
#384=VERTEX_POINT('',#680);
#385=VERTEX_POINT('',#693);
#386=EDGE_CURVE('',#347,#348,#444,.T.);
#387=EDGE_CURVE('',#349,#347,#125,.T.);
#388=EDGE_CURVE('',#349,#350,#126,.T.);
#389=EDGE_CURVE('',#348,#350,#127,.T.);
#390=EDGE_CURVE('',#347,#351,#128,.T.);
#391=EDGE_CURVE('',#351,#352,#129,.T.);
#392=EDGE_CURVE('',#352,#353,#130,.T.);
#393=EDGE_CURVE('',#353,#349,#131,.T.);
#394=EDGE_CURVE('',#354,#355,#132,.T.);
#395=EDGE_CURVE('',#356,#354,#133,.T.);
#396=EDGE_CURVE('',#357,#356,#134,.T.);
#397=EDGE_CURVE('',#355,#357,#135,.T.);
#398=EDGE_CURVE('',#348,#358,#39,.T.);
#399=EDGE_CURVE('',#350,#359,#136,.T.);
#400=EDGE_CURVE('',#360,#359,#137,.T.);
#401=EDGE_CURVE('',#361,#360,#138,.T.);
#402=EDGE_CURVE('',#361,#358,#139,.T.);
#403=EDGE_CURVE('',#362,#353,#140,.T.);
#404=EDGE_CURVE('',#359,#362,#141,.T.);
#405=EDGE_CURVE('',#363,#364,#142,.T.);
#406=EDGE_CURVE('',#363,#365,#143,.T.);
#407=EDGE_CURVE('',#365,#366,#144,.T.);
#408=EDGE_CURVE('',#364,#366,#145,.T.);
#409=EDGE_CURVE('',#367,#357,#146,.T.);
#410=EDGE_CURVE('',#368,#356,#147,.T.);
#411=EDGE_CURVE('',#368,#367,#148,.T.);
#412=EDGE_CURVE('',#369,#354,#149,.T.);
#413=EDGE_CURVE('',#370,#369,#150,.T.);
#414=EDGE_CURVE('',#371,#370,#151,.T.);
#415=EDGE_CURVE('',#371,#361,#152,.T.);
#416=EDGE_CURVE('',#372,#360,#153,.T.);
#417=EDGE_CURVE('',#373,#372,#154,.T.);
#418=EDGE_CURVE('',#364,#373,#155,.T.);
#419=EDGE_CURVE('',#366,#374,#156,.T.);
#420=EDGE_CURVE('',#375,#374,#157,.T.);
#421=EDGE_CURVE('',#375,#368,#158,.T.);
#422=EDGE_CURVE('',#374,#376,#159,.T.);
#423=EDGE_CURVE('',#377,#376,#160,.T.);
#424=EDGE_CURVE('',#377,#375,#161,.T.);
#425=EDGE_CURVE('',#378,#378,#40,.T.);
#426=EDGE_CURVE('',#367,#377,#162,.T.);
#427=EDGE_CURVE('',#355,#379,#163,.T.);
#428=EDGE_CURVE('',#376,#380,#164,.T.);
#429=EDGE_CURVE('',#380,#381,#165,.T.);
#430=EDGE_CURVE('',#382,#381,#166,.T.);
#431=EDGE_CURVE('',#383,#382,#167,.T.);
#432=EDGE_CURVE('',#362,#383,#168,.T.);
#433=EDGE_CURVE('',#379,#352,#169,.T.);
#434=EDGE_CURVE('',#365,#380,#170,.T.);
#435=EDGE_CURVE('',#358,#384,#445,.T.);
#436=EDGE_CURVE('',#384,#371,#171,.T.);
#437=EDGE_CURVE('',#381,#363,#172,.T.);
#438=EDGE_CURVE('',#383,#372,#173,.T.);
#439=EDGE_CURVE('',#373,#382,#174,.T.);
#440=EDGE_CURVE('',#379,#369,#175,.T.);
#441=EDGE_CURVE('',#370,#385,#176,.T.);
#442=EDGE_CURVE('',#385,#384,#177,.T.);
#443=EDGE_CURVE('',#351,#385,#41,.T.);
#444=ELLIPSE('',#447,19.4454364826301,13.75);
#445=ELLIPSE('',#462,19.4454364826301,13.75);
#446=AXIS2_PLACEMENT_3D('',#580,#473,#474);
#447=AXIS2_PLACEMENT_3D('',#581,#475,#476);
#448=AXIS2_PLACEMENT_3D('',#589,#480,#481);
#449=AXIS2_PLACEMENT_3D('',#597,#486,#487);
#450=AXIS2_PLACEMENT_3D('',#606,#492,#493);
#451=AXIS2_PLACEMENT_3D('',#607,#494,#495);
#452=AXIS2_PLACEMENT_3D('',#616,#500,#501);
#453=AXIS2_PLACEMENT_3D('',#620,#504,#505);
#454=AXIS2_PLACEMENT_3D('',#629,#510,#511);
#455=AXIS2_PLACEMENT_3D('',#635,#515,#516);
#456=AXIS2_PLACEMENT_3D('',#653,#527,#528);
#457=AXIS2_PLACEMENT_3D('',#659,#532,#533);
#458=AXIS2_PLACEMENT_3D('',#660,#534,#535);
#459=AXIS2_PLACEMENT_3D('',#663,#537,#538);
#460=AXIS2_PLACEMENT_3D('',#676,#546,#547);
#461=AXIS2_PLACEMENT_3D('',#678,#549,#550);
#462=AXIS2_PLACEMENT_3D('',#679,#551,#552);
#463=AXIS2_PLACEMENT_3D('',#682,#554,#555);
#464=AXIS2_PLACEMENT_3D('',#684,#557,#558);
#465=AXIS2_PLACEMENT_3D('',#686,#560,#561);
#466=AXIS2_PLACEMENT_3D('',#688,#563,#564);
#467=AXIS2_PLACEMENT_3D('',#689,#565,#566);
#468=AXIS2_PLACEMENT_3D('',#691,#568,#569);
#469=AXIS2_PLACEMENT_3D('',#695,#572,#573);
#470=AXIS2_PLACEMENT_3D('',#696,#574,#575);
#471=AXIS2_PLACEMENT_3D('',#697,#576,#577);
#472=AXIS2_PLACEMENT_3D('',#698,#578,#579);
#473=DIRECTION('',(0.,0.,1.));
#474=DIRECTION('',(1.,0.,0.));
#475=DIRECTION('',(0.,-0.707106781186547,0.707106781186548));
#476=DIRECTION('',(0.,-0.707106781186548,-0.707106781186547));
#477=DIRECTION('',(-1.,0.,0.));
#478=DIRECTION('',(-0.577350269189628,0.577350269189625,0.577350269189625));
#479=DIRECTION('',(1.,0.,0.));
#480=DIRECTION('',(0.,0.707106781186547,-0.707106781186548));
#481=DIRECTION('',(-1.,0.,0.));
#482=DIRECTION('',(0.,0.,-1.));
#483=DIRECTION('',(1.,0.,0.));
#484=DIRECTION('',(0.,0.,1.));
#485=DIRECTION('',(-0.70710678118655,0.,0.707106781186546));
#486=DIRECTION('',(0.,1.,0.));
#487=DIRECTION('',(0.,0.,1.));
#488=DIRECTION('',(1.,0.,0.));
#489=DIRECTION('',(0.,0.707106781186548,0.707106781186547));
#490=DIRECTION('',(-1.,0.,0.));
#491=DIRECTION('',(0.,-0.707106781186548,-0.707106781186547));
#492=DIRECTION('',(0.,0.707106781186547,-0.707106781186548));
#493=DIRECTION('',(-1.,0.,0.));
#494=DIRECTION('',(0.,0.,1.));
#495=DIRECTION('',(1.,0.,0.));
#496=DIRECTION('',(0.,1.,0.));
#497=DIRECTION('',(1.,0.,0.));
#498=DIRECTION('',(0.,1.,0.));
#499=DIRECTION('',(1.,0.,0.));
#500=DIRECTION('',(0.,0.,1.));
#501=DIRECTION('',(1.,0.,0.));
#502=DIRECTION('',(0.,-1.,0.));
#503=DIRECTION('',(0.70710678118655,0.,-0.707106781186546));
#504=DIRECTION('',(-0.707106781186546,0.,-0.70710678118655));
#505=DIRECTION('',(0.,-1.,0.));
#506=DIRECTION('',(-1.,0.,0.));
#507=DIRECTION('',(0.,1.,0.));
#508=DIRECTION('',(-1.,0.,0.));
#509=DIRECTION('',(0.,1.,0.));
#510=DIRECTION('',(0.,0.,1.));
#511=DIRECTION('',(1.,0.,0.));
#512=DIRECTION('',(0.,0.,1.));
#513=DIRECTION('',(0.,0.,1.));
#514=DIRECTION('',(1.,0.,0.));
#515=DIRECTION('',(0.,-1.,0.));
#516=DIRECTION('',(0.,0.,-1.));
#517=DIRECTION('',(0.,0.,1.));
#518=DIRECTION('',(0.,-1.,0.));
#519=DIRECTION('',(0.,0.,-1.));
#520=DIRECTION('',(0.,0.707106781186548,0.707106781186547));
#521=DIRECTION('',(0.,0.,1.));
#522=DIRECTION('',(0.,-1.,0.));
#523=DIRECTION('',(0.,0.,-1.));
#524=DIRECTION('',(0.,0.707106781186548,-0.707106781186548));
#525=DIRECTION('',(0.,0.,1.));
#526=DIRECTION('',(0.,-1.,0.));
#527=DIRECTION('',(-1.,0.,0.));
#528=DIRECTION('',(0.,0.,1.));
#529=DIRECTION('',(1.,0.,0.));
#530=DIRECTION('',(0.,0.,1.));
#531=DIRECTION('',(-1.,0.,0.));
#532=DIRECTION('',(0.,1.,0.));
#533=DIRECTION('',(0.,0.,1.));
#534=DIRECTION('',(0.,0.,-1.));
#535=DIRECTION('',(-1.,0.,0.));
#536=DIRECTION('',(0.,1.,0.));
#537=DIRECTION('',(0.,0.,-1.));
#538=DIRECTION('',(-1.,0.,0.));
#539=DIRECTION('',(0.,0.,-1.));
#540=DIRECTION('',(0.,-0.707106781186548,0.707106781186548));
#541=DIRECTION('',(0.,-1.,0.));
#542=DIRECTION('',(0.,0.,1.));
#543=DIRECTION('',(0.,1.,0.));
#544=DIRECTION('',(0.,0.,-1.));
#545=DIRECTION('',(0.,1.,0.));
#546=DIRECTION('',(1.,0.,0.));
#547=DIRECTION('',(0.,0.,-1.));
#548=DIRECTION('',(0.577350269189628,0.577350269189625,-0.577350269189625));
#549=DIRECTION('',(0.,-0.707106781186548,-0.707106781186548));
#550=DIRECTION('',(1.,0.,0.));
#551=DIRECTION('',(0.,-0.707106781186547,0.707106781186548));
#552=DIRECTION('',(0.,-0.707106781186548,-0.707106781186547));
#553=DIRECTION('',(-1.,0.,0.));
#554=DIRECTION('',(0.,0.707106781186547,-0.707106781186548));
#555=DIRECTION('',(-1.,0.,0.));
#556=DIRECTION('',(-0.70710678118655,0.,0.707106781186546));
#557=DIRECTION('',(-0.707106781186546,0.,-0.70710678118655));
#558=DIRECTION('',(0.,-1.,0.));
#559=DIRECTION('',(-1.,0.,0.));
#560=DIRECTION('',(0.,-1.,0.));
#561=DIRECTION('',(0.,0.,-1.));
#562=DIRECTION('',(1.,0.,0.));
#563=DIRECTION('',(0.,1.,0.));
#564=DIRECTION('',(0.,0.,1.));
#565=DIRECTION('',(0.,0.,-1.));
#566=DIRECTION('',(-1.,0.,0.));
#567=DIRECTION('',(-1.,0.,0.));
#568=DIRECTION('',(0.,-1.,0.));
#569=DIRECTION('',(0.,0.,-1.));
#570=DIRECTION('',(1.,0.,0.));
#571=DIRECTION('',(0.,0.,1.));
#572=DIRECTION('',(0.,1.,0.));
#573=DIRECTION('',(0.,0.,1.));
#574=DIRECTION('',(0.,0.,-1.));
#575=DIRECTION('',(-1.,0.,0.));
#576=DIRECTION('',(0.,0.,-1.));
#577=DIRECTION('',(-1.,0.,0.));
#578=DIRECTION('',(0.,0.,-1.));
#579=DIRECTION('',(1.,0.,0.));
#580=CARTESIAN_POINT('',(0.,0.,0.));
#581=CARTESIAN_POINT('',(95.9,19.4,134.9));
#582=CARTESIAN_POINT('',(109.248127209463,22.7,138.2));
#583=CARTESIAN_POINT('',(109.024499990476,23.5,139.));
#584=CARTESIAN_POINT('',(142.8,22.7,138.2));
#585=CARTESIAN_POINT('',(281.5,22.7,138.2));
#586=CARTESIAN_POINT('',(250.4,53.8000000000002,169.3));
#587=CARTESIAN_POINT('',(280.7,23.5,139.));
#588=CARTESIAN_POINT('',(142.8,23.5,139.));
#589=CARTESIAN_POINT('',(142.8,0.,115.5));
#590=CARTESIAN_POINT('',(109.248127209463,22.7,139.05));
#591=CARTESIAN_POINT('',(109.248127209463,22.7,101.1));
#592=CARTESIAN_POINT('',(142.8,22.7,101.1));
#593=CARTESIAN_POINT('',(285.6,22.7,101.1));
#594=CARTESIAN_POINT('',(285.6,22.7,0.));
#595=CARTESIAN_POINT('',(285.6,22.7,134.1));
#596=CARTESIAN_POINT('',(285.6,22.7,134.1));
#597=CARTESIAN_POINT('',(142.8,22.7,101.1));
#598=CARTESIAN_POINT('',(142.8,5.6,121.1));
#599=CARTESIAN_POINT('',(0.,5.6,121.1));
#600=CARTESIAN_POINT('',(285.6,5.6,121.1));
#601=CARTESIAN_POINT('',(0.,-2.49999999999996,113.));
#602=CARTESIAN_POINT('',(0.,0.,115.5));
#603=CARTESIAN_POINT('',(142.8,0.,115.5));
#604=CARTESIAN_POINT('',(285.6,0.,115.5));
#605=CARTESIAN_POINT('',(285.6,-2.49999999999996,113.));
#606=CARTESIAN_POINT('',(142.8,0.,115.5));
#607=CARTESIAN_POINT('',(95.9,19.4,139.));
#608=CARTESIAN_POINT('',(82.7755000095242,23.5,139.));
#609=CARTESIAN_POINT('',(280.7,110.5,139.));
#610=CARTESIAN_POINT('',(280.7,128.7,139.));
#611=CARTESIAN_POINT('',(142.8,128.7,139.));
#612=CARTESIAN_POINT('',(0.,128.7,139.));
#613=CARTESIAN_POINT('',(0.,110.5,139.));
#614=CARTESIAN_POINT('',(0.,23.5,139.));
#615=CARTESIAN_POINT('',(142.8,23.5,139.));
#616=CARTESIAN_POINT('',(142.8,110.5,139.));
#617=CARTESIAN_POINT('',(285.6,110.5,134.1));
#618=CARTESIAN_POINT('',(285.6,128.7,134.1));
#619=CARTESIAN_POINT('',(285.6,128.7,134.1));
#620=CARTESIAN_POINT('',(285.6,110.5,134.1));
#621=CARTESIAN_POINT('',(142.8,149.6,139.));
#622=CARTESIAN_POINT('',(280.7,149.6,139.));
#623=CARTESIAN_POINT('',(0.,149.6,139.));
#624=CARTESIAN_POINT('',(280.7,110.5,139.));
#625=CARTESIAN_POINT('',(280.7,214.8,139.));
#626=CARTESIAN_POINT('',(142.8,214.8,139.));
#627=CARTESIAN_POINT('',(0.,214.8,139.));
#628=CARTESIAN_POINT('',(0.,110.5,139.));
#629=CARTESIAN_POINT('',(142.8,110.5,139.));
#630=CARTESIAN_POINT('',(285.6,0.,0.));
#631=CARTESIAN_POINT('',(285.6,0.,0.));
#632=CARTESIAN_POINT('',(0.,0.,0.));
#633=CARTESIAN_POINT('',(0.,0.,0.));
#634=CARTESIAN_POINT('',(142.8,0.,0.));
#635=CARTESIAN_POINT('',(142.8,0.,0.));
#636=CARTESIAN_POINT('',(0.,5.59999999999999,0.));
#637=CARTESIAN_POINT('',(0.,5.6,101.1));
#638=CARTESIAN_POINT('',(0.,110.5,101.1));
#639=CARTESIAN_POINT('',(0.,22.7,101.1));
#640=CARTESIAN_POINT('',(0.,22.7,0.));
#641=CARTESIAN_POINT('',(0.,22.7,138.2));
#642=CARTESIAN_POINT('',(0.,-2.49999999999996,113.));
#643=CARTESIAN_POINT('',(0.,128.7,0.));
#644=CARTESIAN_POINT('',(0.,128.7,101.1));
#645=CARTESIAN_POINT('',(0.,110.5,101.1));
#646=CARTESIAN_POINT('',(0.,149.6,101.1));
#647=CARTESIAN_POINT('',(0.,149.6,0.));
#648=CARTESIAN_POINT('',(0.,232.15,121.65));
#649=CARTESIAN_POINT('',(0.,221.,132.8));
#650=CARTESIAN_POINT('',(0.,221.,0.));
#651=CARTESIAN_POINT('',(0.,221.,0.));
#652=CARTESIAN_POINT('',(0.,110.5,0.));
#653=CARTESIAN_POINT('',(0.,110.5,0.));
#654=CARTESIAN_POINT('',(142.8,221.,132.8));
#655=CARTESIAN_POINT('',(285.6,221.,132.8));
#656=CARTESIAN_POINT('',(285.6,221.,0.));
#657=CARTESIAN_POINT('',(285.6,221.,0.));
#658=CARTESIAN_POINT('',(142.8,221.,0.));
#659=CARTESIAN_POINT('',(142.8,221.,0.));
#660=CARTESIAN_POINT('',(95.9,19.4,0.));
#661=CARTESIAN_POINT('',(82.15,19.4,0.));
#662=CARTESIAN_POINT('',(285.6,110.5,0.));
#663=CARTESIAN_POINT('',(142.8,110.5,0.));
#664=CARTESIAN_POINT('',(285.6,5.59999999999999,0.));
#665=CARTESIAN_POINT('',(285.6,5.6,101.1));
#666=CARTESIAN_POINT('',(285.6,232.15,121.65));
#667=CARTESIAN_POINT('',(285.6,219.7,134.1));
#668=CARTESIAN_POINT('',(285.6,110.5,134.1));
#669=CARTESIAN_POINT('',(285.6,149.6,134.1));
#670=CARTESIAN_POINT('',(285.6,149.6,0.));
#671=CARTESIAN_POINT('',(285.6,149.6,101.1));
#672=CARTESIAN_POINT('',(285.6,110.5,101.1));
#673=CARTESIAN_POINT('',(285.6,128.7,101.1));
#674=CARTESIAN_POINT('',(285.6,128.7,0.));
#675=CARTESIAN_POINT('',(285.6,110.5,101.1));
#676=CARTESIAN_POINT('',(285.6,110.5,0.));
#677=CARTESIAN_POINT('',(238.866666666666,172.966666666667,180.833333333333));
#678=CARTESIAN_POINT('',(142.8,221.,132.8));
#679=CARTESIAN_POINT('',(95.9,19.4,134.9));
#680=CARTESIAN_POINT('',(82.5518727905373,22.7,138.2));
#681=CARTESIAN_POINT('',(142.8,22.7,138.2));
#682=CARTESIAN_POINT('',(142.8,0.,115.5));
#683=CARTESIAN_POINT('',(285.6,149.6,134.1));
#684=CARTESIAN_POINT('',(285.6,110.5,134.1));
#685=CARTESIAN_POINT('',(142.8,128.7,101.1));
#686=CARTESIAN_POINT('',(142.8,128.7,101.1));
#687=CARTESIAN_POINT('',(142.8,149.6,101.1));
#688=CARTESIAN_POINT('',(142.8,149.6,101.1));
#689=CARTESIAN_POINT('',(142.8,139.15,101.1));
#690=CARTESIAN_POINT('',(142.8,5.6,101.1));
#691=CARTESIAN_POINT('',(142.8,5.6,101.1));
#692=CARTESIAN_POINT('',(142.8,22.7,101.1));
#693=CARTESIAN_POINT('',(82.5518727905373,22.7,101.1));
#694=CARTESIAN_POINT('',(82.5518727905373,22.7,139.05));
#695=CARTESIAN_POINT('',(142.8,22.7,101.1));
#696=CARTESIAN_POINT('',(95.9,19.4,101.1));
#697=CARTESIAN_POINT('',(142.8,14.15,101.1));
#698=CARTESIAN_POINT('',(95.9,19.4,139.05));
#699=MECHANICAL_DESIGN_GEOMETRIC_PRESENTATION_REPRESENTATION('',(#24),#700);
#700=(
GEOMETRIC_REPRESENTATION_CONTEXT(3)
GLOBAL_UNCERTAINTY_ASSIGNED_CONTEXT((#701))
GLOBAL_UNIT_ASSIGNED_CONTEXT((#707,#703,#702))
REPRESENTATION_CONTEXT('featured_part_05954','TOP_LEVEL_ASSEMBLY_PART')
);
#701=UNCERTAINTY_MEASURE_WITH_UNIT(LENGTH_MEASURE(2.E-5),#707,
'DISTANCE_ACCURACY_VALUE','Maximum Tolerance applied to model');
#702=(
NAMED_UNIT(*)
SI_UNIT($,.STERADIAN.)
SOLID_ANGLE_UNIT()
);
#703=(
CONVERSION_BASED_UNIT('DEGREE',#705)
NAMED_UNIT(#704)
PLANE_ANGLE_UNIT()
);
#704=DIMENSIONAL_EXPONENTS(0.,0.,0.,0.,0.,0.,0.);
#705=PLANE_ANGLE_MEASURE_WITH_UNIT(PLANE_ANGLE_MEASURE(0.0174532925),#706);
#706=(
NAMED_UNIT(*)
PLANE_ANGLE_UNIT()
SI_UNIT($,.RADIAN.)
);
#707=(
LENGTH_UNIT()
NAMED_UNIT(*)
SI_UNIT(.MILLI.,.METRE.)
);
ENDSEC;
END-ISO-10303-21;
