ISO-10303-21;
HEADER;
/* Generated by software containing ST-Developer
 * from STEP Tools, Inc. (www.steptools.com) 
 */
/* OPTION: using custom schema-name function */

FILE_DESCRIPTION(
/* description */ (''),
/* implementation_level */ '2;1');

FILE_NAME(
/* name */ 'featured_part_03856.stp',
/* time_stamp */ '2026-07-06T20:41:08-04:00',
/* author */ (''),
/* organization */ (''),
/* preprocessor_version */ 'ST-DEVELOPER v20.1',
/* originating_system */ 'SIEMENS PLM Software NX2512.6002',
/* authorisation */ '');

FILE_SCHEMA (('AUTOMOTIVE_DESIGN { 1 0 10303 214 3 1 1 1 }'));
ENDSEC;

DATA;
#10=SHAPE_REPRESENTATION_RELATIONSHIP('None',
'relationship between featured_part_03856-None and featured_part_03856
-None',#22,#11);
#11=ADVANCED_BREP_SHAPE_REPRESENTATION('featured_part_03856-None',(#32),
#674);
#12=SHAPE_DEFINITION_REPRESENTATION(#13,#22);
#13=PRODUCT_DEFINITION_SHAPE('','',#14);
#14=PRODUCT_DEFINITION(' ','',#16,#15);
#15=PRODUCT_DEFINITION_CONTEXT('part definition',#21,'design');
#16=PRODUCT_DEFINITION_FORMATION_WITH_SPECIFIED_SOURCE(' ',' ',#18,
 .NOT_KNOWN.);
#17=PRODUCT_RELATED_PRODUCT_CATEGORY('part','',(#18));
#18=PRODUCT('featured_part_03856','featured_part_03856',' ',(#19));
#19=PRODUCT_CONTEXT(' ',#21,'mechanical');
#20=APPLICATION_PROTOCOL_DEFINITION('international standard',
'automotive_design',2010,#21);
#21=APPLICATION_CONTEXT(
'core data for automotive mechanical design processes');
#22=SHAPE_REPRESENTATION('featured_part_03856-None',(#426),#674);
#23=PRESENTATION_LAYER_ASSIGNMENT('1','Layer 1',(#32));
#24=STYLED_ITEM('',(#25),#32);
#25=PRESENTATION_STYLE_ASSIGNMENT((#26));
#26=SURFACE_STYLE_USAGE(.BOTH.,#27);
#27=SURFACE_SIDE_STYLE('',(#28));
#28=SURFACE_STYLE_FILL_AREA(#29);
#29=FILL_AREA_STYLE('',(#30));
#30=FILL_AREA_STYLE_COLOUR('',#31);
#31=COLOUR_RGB('medium steel',0.611764705882353,0.658823529411765,0.670588235294118);
#32=MANIFOLD_SOLID_BREP('',#33);
#33=CLOSED_SHELL('',(#46,#47,#48,#49,#50,#51,#52,#53,#54,#55,#56,#57,#58,
#59,#60,#61,#62,#63,#64,#65,#66));
#34=CYLINDRICAL_SURFACE('',#450,14.8);
#35=CYLINDRICAL_SURFACE('',#452,3.5);
#36=CYLINDRICAL_SURFACE('',#454,8.75);
#37=ELLIPSE('',#439,12.3743686707646,8.75);
#38=FACE_BOUND('',#108,.T.);
#39=FACE_BOUND('',#109,.T.);
#40=FACE_BOUND('',#116,.T.);
#41=FACE_BOUND('',#117,.T.);
#42=FACE_BOUND('',#122,.T.);
#43=FACE_BOUND('',#123,.T.);
#44=FACE_BOUND('',#125,.T.);
#45=FACE_BOUND('',#126,.T.);
#46=ADVANCED_FACE('',(#85),#67,.T.);
#47=ADVANCED_FACE('',(#86),#68,.F.);
#48=ADVANCED_FACE('',(#87),#69,.T.);
#49=ADVANCED_FACE('',(#88),#70,.T.);
#50=ADVANCED_FACE('',(#89),#71,.T.);
#51=ADVANCED_FACE('',(#90),#72,.T.);
#52=ADVANCED_FACE('',(#38,#39),#73,.T.);
#53=ADVANCED_FACE('',(#91),#74,.T.);
#54=ADVANCED_FACE('',(#92),#75,.F.);
#55=ADVANCED_FACE('',(#93),#76,.F.);
#56=ADVANCED_FACE('',(#94),#77,.F.);
#57=ADVANCED_FACE('',(#95),#78,.F.);
#58=ADVANCED_FACE('',(#96),#79,.F.);
#59=ADVANCED_FACE('',(#40,#41),#80,.F.);
#60=ADVANCED_FACE('',(#97),#81,.F.);
#61=ADVANCED_FACE('',(#98),#82,.F.);
#62=ADVANCED_FACE('',(#99),#83,.F.);
#63=ADVANCED_FACE('',(#100),#34,.F.);
#64=ADVANCED_FACE('',(#42,#43),#35,.F.);
#65=ADVANCED_FACE('',(#101),#84,.F.);
#66=ADVANCED_FACE('',(#44,#45),#36,.F.);
#67=PLANE('',#428);
#68=PLANE('',#429);
#69=PLANE('',#431);
#70=PLANE('',#432);
#71=PLANE('',#433);
#72=PLANE('',#434);
#73=PLANE('',#436);
#74=PLANE('',#437);
#75=PLANE('',#438);
#76=PLANE('',#440);
#77=PLANE('',#441);
#78=PLANE('',#442);
#79=PLANE('',#443);
#80=PLANE('',#445);
#81=PLANE('',#446);
#82=PLANE('',#448);
#83=PLANE('',#449);
#84=PLANE('',#453);
#85=FACE_OUTER_BOUND('',#102,.T.);
#86=FACE_OUTER_BOUND('',#103,.T.);
#87=FACE_OUTER_BOUND('',#104,.T.);
#88=FACE_OUTER_BOUND('',#105,.T.);
#89=FACE_OUTER_BOUND('',#106,.T.);
#90=FACE_OUTER_BOUND('',#107,.T.);
#91=FACE_OUTER_BOUND('',#110,.T.);
#92=FACE_OUTER_BOUND('',#111,.T.);
#93=FACE_OUTER_BOUND('',#112,.T.);
#94=FACE_OUTER_BOUND('',#113,.T.);
#95=FACE_OUTER_BOUND('',#114,.T.);
#96=FACE_OUTER_BOUND('',#115,.T.);
#97=FACE_OUTER_BOUND('',#118,.T.);
#98=FACE_OUTER_BOUND('',#119,.T.);
#99=FACE_OUTER_BOUND('',#120,.T.);
#100=FACE_OUTER_BOUND('',#121,.T.);
#101=FACE_OUTER_BOUND('',#124,.T.);
#102=EDGE_LOOP('',(#133,#134,#135,#136,#137,#138,#139));
#103=EDGE_LOOP('',(#140,#141,#142,#143));
#104=EDGE_LOOP('',(#144,#145,#146,#147,#148,#149));
#105=EDGE_LOOP('',(#150,#151,#152,#153,#154,#155));
#106=EDGE_LOOP('',(#156,#157,#158,#159,#160,#161,#162,#163,#164,#165,#166));
#107=EDGE_LOOP('',(#167,#168,#169,#170));
#108=EDGE_LOOP('',(#171));
#109=EDGE_LOOP('',(#172,#173,#174,#175));
#110=EDGE_LOOP('',(#176,#177,#178,#179,#180,#181,#182,#183,#184,#185));
#111=EDGE_LOOP('',(#186,#187,#188,#189,#190));
#112=EDGE_LOOP('',(#191,#192,#193,#194,#195,#196));
#113=EDGE_LOOP('',(#197,#198,#199,#200));
#114=EDGE_LOOP('',(#201,#202,#203,#204,#205));
#115=EDGE_LOOP('',(#206,#207,#208,#209,#210));
#116=EDGE_LOOP('',(#211));
#117=EDGE_LOOP('',(#212,#213,#214,#215));
#118=EDGE_LOOP('',(#216,#217,#218,#219,#220));
#119=EDGE_LOOP('',(#221,#222,#223,#224,#225));
#120=EDGE_LOOP('',(#226,#227,#228,#229,#230));
#121=EDGE_LOOP('',(#231,#232,#233,#234));
#122=EDGE_LOOP('',(#235));
#123=EDGE_LOOP('',(#236));
#124=EDGE_LOOP('',(#237));
#125=EDGE_LOOP('',(#238));
#126=EDGE_LOOP('',(#239,#240));
#127=CIRCLE('',#427,14.8);
#128=CIRCLE('',#430,8.75);
#129=CIRCLE('',#435,8.75);
#130=CIRCLE('',#444,3.5);
#131=CIRCLE('',#447,14.8);
#132=CIRCLE('',#451,3.5);
#133=ORIENTED_EDGE('',*,*,#278,.F.);
#134=ORIENTED_EDGE('',*,*,#279,.T.);
#135=ORIENTED_EDGE('',*,*,#280,.F.);
#136=ORIENTED_EDGE('',*,*,#281,.T.);
#137=ORIENTED_EDGE('',*,*,#282,.F.);
#138=ORIENTED_EDGE('',*,*,#283,.F.);
#139=ORIENTED_EDGE('',*,*,#284,.T.);
#140=ORIENTED_EDGE('',*,*,#285,.F.);
#141=ORIENTED_EDGE('',*,*,#284,.F.);
#142=ORIENTED_EDGE('',*,*,#286,.F.);
#143=ORIENTED_EDGE('',*,*,#287,.F.);
#144=ORIENTED_EDGE('',*,*,#288,.F.);
#145=ORIENTED_EDGE('',*,*,#289,.T.);
#146=ORIENTED_EDGE('',*,*,#290,.F.);
#147=ORIENTED_EDGE('',*,*,#291,.F.);
#148=ORIENTED_EDGE('',*,*,#292,.T.);
#149=ORIENTED_EDGE('',*,*,#293,.T.);
#150=ORIENTED_EDGE('',*,*,#294,.F.);
#151=ORIENTED_EDGE('',*,*,#295,.F.);
#152=ORIENTED_EDGE('',*,*,#296,.T.);
#153=ORIENTED_EDGE('',*,*,#297,.T.);
#154=ORIENTED_EDGE('',*,*,#298,.T.);
#155=ORIENTED_EDGE('',*,*,#299,.F.);
#156=ORIENTED_EDGE('',*,*,#300,.T.);
#157=ORIENTED_EDGE('',*,*,#287,.T.);
#158=ORIENTED_EDGE('',*,*,#301,.F.);
#159=ORIENTED_EDGE('',*,*,#302,.F.);
#160=ORIENTED_EDGE('',*,*,#303,.F.);
#161=ORIENTED_EDGE('',*,*,#304,.T.);
#162=ORIENTED_EDGE('',*,*,#305,.T.);
#163=ORIENTED_EDGE('',*,*,#306,.F.);
#164=ORIENTED_EDGE('',*,*,#307,.T.);
#165=ORIENTED_EDGE('',*,*,#295,.T.);
#166=ORIENTED_EDGE('',*,*,#308,.F.);
#167=ORIENTED_EDGE('',*,*,#306,.T.);
#168=ORIENTED_EDGE('',*,*,#309,.T.);
#169=ORIENTED_EDGE('',*,*,#310,.F.);
#170=ORIENTED_EDGE('',*,*,#311,.T.);
#171=ORIENTED_EDGE('',*,*,#312,.F.);
#172=ORIENTED_EDGE('',*,*,#313,.F.);
#173=ORIENTED_EDGE('',*,*,#296,.F.);
#174=ORIENTED_EDGE('',*,*,#307,.F.);
#175=ORIENTED_EDGE('',*,*,#311,.F.);
#176=ORIENTED_EDGE('',*,*,#314,.F.);
#177=ORIENTED_EDGE('',*,*,#282,.T.);
#178=ORIENTED_EDGE('',*,*,#315,.T.);
#179=ORIENTED_EDGE('',*,*,#297,.F.);
#180=ORIENTED_EDGE('',*,*,#313,.T.);
#181=ORIENTED_EDGE('',*,*,#310,.T.);
#182=ORIENTED_EDGE('',*,*,#316,.T.);
#183=ORIENTED_EDGE('',*,*,#291,.T.);
#184=ORIENTED_EDGE('',*,*,#317,.F.);
#185=ORIENTED_EDGE('',*,*,#318,.F.);
#186=ORIENTED_EDGE('',*,*,#305,.F.);
#187=ORIENTED_EDGE('',*,*,#319,.T.);
#188=ORIENTED_EDGE('',*,*,#292,.F.);
#189=ORIENTED_EDGE('',*,*,#316,.F.);
#190=ORIENTED_EDGE('',*,*,#309,.F.);
#191=ORIENTED_EDGE('',*,*,#320,.F.);
#192=ORIENTED_EDGE('',*,*,#293,.F.);
#193=ORIENTED_EDGE('',*,*,#319,.F.);
#194=ORIENTED_EDGE('',*,*,#304,.F.);
#195=ORIENTED_EDGE('',*,*,#321,.F.);
#196=ORIENTED_EDGE('',*,*,#289,.F.);
#197=ORIENTED_EDGE('',*,*,#322,.F.);
#198=ORIENTED_EDGE('',*,*,#298,.F.);
#199=ORIENTED_EDGE('',*,*,#315,.F.);
#200=ORIENTED_EDGE('',*,*,#281,.F.);
#201=ORIENTED_EDGE('',*,*,#314,.T.);
#202=ORIENTED_EDGE('',*,*,#323,.T.);
#203=ORIENTED_EDGE('',*,*,#301,.T.);
#204=ORIENTED_EDGE('',*,*,#286,.T.);
#205=ORIENTED_EDGE('',*,*,#283,.T.);
#206=ORIENTED_EDGE('',*,*,#317,.T.);
#207=ORIENTED_EDGE('',*,*,#290,.T.);
#208=ORIENTED_EDGE('',*,*,#321,.T.);
#209=ORIENTED_EDGE('',*,*,#303,.T.);
#210=ORIENTED_EDGE('',*,*,#324,.T.);
#211=ORIENTED_EDGE('',*,*,#325,.T.);
#212=ORIENTED_EDGE('',*,*,#302,.T.);
#213=ORIENTED_EDGE('',*,*,#323,.F.);
#214=ORIENTED_EDGE('',*,*,#318,.T.);
#215=ORIENTED_EDGE('',*,*,#324,.F.);
#216=ORIENTED_EDGE('',*,*,#326,.T.);
#217=ORIENTED_EDGE('',*,*,#327,.T.);
#218=ORIENTED_EDGE('',*,*,#278,.T.);
#219=ORIENTED_EDGE('',*,*,#285,.T.);
#220=ORIENTED_EDGE('',*,*,#300,.F.);
#221=ORIENTED_EDGE('',*,*,#328,.F.);
#222=ORIENTED_EDGE('',*,*,#329,.T.);
#223=ORIENTED_EDGE('',*,*,#326,.F.);
#224=ORIENTED_EDGE('',*,*,#308,.T.);
#225=ORIENTED_EDGE('',*,*,#294,.T.);
#226=ORIENTED_EDGE('',*,*,#280,.T.);
#227=ORIENTED_EDGE('',*,*,#330,.T.);
#228=ORIENTED_EDGE('',*,*,#328,.T.);
#229=ORIENTED_EDGE('',*,*,#299,.T.);
#230=ORIENTED_EDGE('',*,*,#322,.T.);
#231=ORIENTED_EDGE('',*,*,#279,.F.);
#232=ORIENTED_EDGE('',*,*,#327,.F.);
#233=ORIENTED_EDGE('',*,*,#329,.F.);
#234=ORIENTED_EDGE('',*,*,#330,.F.);
#235=ORIENTED_EDGE('',*,*,#331,.T.);
#236=ORIENTED_EDGE('',*,*,#325,.F.);
#237=ORIENTED_EDGE('',*,*,#331,.F.);
#238=ORIENTED_EDGE('',*,*,#312,.T.);
#239=ORIENTED_EDGE('',*,*,#288,.T.);
#240=ORIENTED_EDGE('',*,*,#320,.T.);
#241=VERTEX_POINT('',#562);
#242=VERTEX_POINT('',#563);
#243=VERTEX_POINT('',#565);
#244=VERTEX_POINT('',#567);
#245=VERTEX_POINT('',#569);
#246=VERTEX_POINT('',#571);
#247=VERTEX_POINT('',#573);
#248=VERTEX_POINT('',#577);
#249=VERTEX_POINT('',#579);
#250=VERTEX_POINT('',#583);
#251=VERTEX_POINT('',#584);
#252=VERTEX_POINT('',#586);
#253=VERTEX_POINT('',#588);
#254=VERTEX_POINT('',#590);
#255=VERTEX_POINT('',#592);
#256=VERTEX_POINT('',#596);
#257=VERTEX_POINT('',#597);
#258=VERTEX_POINT('',#599);
#259=VERTEX_POINT('',#601);
#260=VERTEX_POINT('',#603);
#261=VERTEX_POINT('',#605);
#262=VERTEX_POINT('',#609);
#263=VERTEX_POINT('',#611);
#264=VERTEX_POINT('',#613);
#265=VERTEX_POINT('',#615);
#266=VERTEX_POINT('',#617);
#267=VERTEX_POINT('',#619);
#268=VERTEX_POINT('',#621);
#269=VERTEX_POINT('',#626);
#270=VERTEX_POINT('',#628);
#271=VERTEX_POINT('',#632);
#272=VERTEX_POINT('',#636);
#273=VERTEX_POINT('',#640);
#274=VERTEX_POINT('',#655);
#275=VERTEX_POINT('',#658);
#276=VERTEX_POINT('',#662);
#277=VERTEX_POINT('',#669);
#278=EDGE_CURVE('',#241,#242,#332,.T.);
#279=EDGE_CURVE('',#241,#243,#127,.T.);
#280=EDGE_CURVE('',#244,#243,#333,.T.);
#281=EDGE_CURVE('',#244,#245,#334,.T.);
#282=EDGE_CURVE('',#246,#245,#335,.T.);
#283=EDGE_CURVE('',#247,#246,#336,.T.);
#284=EDGE_CURVE('',#247,#242,#337,.T.);
#285=EDGE_CURVE('',#242,#248,#338,.T.);
#286=EDGE_CURVE('',#249,#247,#339,.T.);
#287=EDGE_CURVE('',#248,#249,#340,.T.);
#288=EDGE_CURVE('',#250,#251,#128,.T.);
#289=EDGE_CURVE('',#250,#252,#341,.T.);
#290=EDGE_CURVE('',#253,#252,#342,.T.);
#291=EDGE_CURVE('',#254,#253,#343,.T.);
#292=EDGE_CURVE('',#254,#255,#344,.T.);
#293=EDGE_CURVE('',#255,#251,#345,.T.);
#294=EDGE_CURVE('',#256,#257,#346,.T.);
#295=EDGE_CURVE('',#258,#256,#347,.T.);
#296=EDGE_CURVE('',#258,#259,#348,.T.);
#297=EDGE_CURVE('',#259,#260,#349,.T.);
#298=EDGE_CURVE('',#260,#261,#350,.T.);
#299=EDGE_CURVE('',#257,#261,#351,.T.);
#300=EDGE_CURVE('',#262,#248,#352,.T.);
#301=EDGE_CURVE('',#263,#249,#353,.T.);
#302=EDGE_CURVE('',#264,#263,#354,.T.);
#303=EDGE_CURVE('',#265,#264,#355,.T.);
#304=EDGE_CURVE('',#265,#266,#356,.T.);
#305=EDGE_CURVE('',#266,#267,#357,.T.);
#306=EDGE_CURVE('',#268,#267,#358,.T.);
#307=EDGE_CURVE('',#268,#258,#359,.T.);
#308=EDGE_CURVE('',#262,#256,#360,.T.);
#309=EDGE_CURVE('',#267,#269,#361,.T.);
#310=EDGE_CURVE('',#270,#269,#362,.T.);
#311=EDGE_CURVE('',#270,#268,#363,.T.);
#312=EDGE_CURVE('',#271,#271,#129,.T.);
#313=EDGE_CURVE('',#259,#270,#364,.T.);
#314=EDGE_CURVE('',#246,#272,#365,.T.);
#315=EDGE_CURVE('',#245,#260,#366,.T.);
#316=EDGE_CURVE('',#269,#254,#367,.T.);
#317=EDGE_CURVE('',#273,#253,#368,.T.);
#318=EDGE_CURVE('',#272,#273,#369,.T.);
#319=EDGE_CURVE('',#266,#255,#370,.T.);
#320=EDGE_CURVE('',#251,#250,#37,.T.);
#321=EDGE_CURVE('',#252,#265,#371,.T.);
#322=EDGE_CURVE('',#261,#244,#372,.T.);
#323=EDGE_CURVE('',#272,#263,#373,.T.);
#324=EDGE_CURVE('',#264,#273,#374,.T.);
#325=EDGE_CURVE('',#274,#274,#130,.T.);
#326=EDGE_CURVE('',#262,#275,#375,.T.);
#327=EDGE_CURVE('',#275,#241,#376,.T.);
#328=EDGE_CURVE('',#276,#257,#377,.T.);
#329=EDGE_CURVE('',#276,#275,#131,.T.);
#330=EDGE_CURVE('',#243,#276,#378,.T.);
#331=EDGE_CURVE('',#277,#277,#132,.T.);
#332=LINE('',#561,#379);
#333=LINE('',#566,#380);
#334=LINE('',#568,#381);
#335=LINE('',#570,#382);
#336=LINE('',#572,#383);
#337=LINE('',#574,#384);
#338=LINE('',#576,#385);
#339=LINE('',#578,#386);
#340=LINE('',#580,#387);
#341=LINE('',#585,#388);
#342=LINE('',#587,#389);
#343=LINE('',#589,#390);
#344=LINE('',#591,#391);
#345=LINE('',#593,#392);
#346=LINE('',#595,#393);
#347=LINE('',#598,#394);
#348=LINE('',#600,#395);
#349=LINE('',#602,#396);
#350=LINE('',#604,#397);
#351=LINE('',#606,#398);
#352=LINE('',#608,#399);
#353=LINE('',#610,#400);
#354=LINE('',#612,#401);
#355=LINE('',#614,#402);
#356=LINE('',#616,#403);
#357=LINE('',#618,#404);
#358=LINE('',#620,#405);
#359=LINE('',#622,#406);
#360=LINE('',#623,#407);
#361=LINE('',#625,#408);
#362=LINE('',#627,#409);
#363=LINE('',#629,#410);
#364=LINE('',#633,#411);
#365=LINE('',#635,#412);
#366=LINE('',#637,#413);
#367=LINE('',#638,#414);
#368=LINE('',#639,#415);
#369=LINE('',#641,#416);
#370=LINE('',#643,#417);
#371=LINE('',#646,#418);
#372=LINE('',#648,#419);
#373=LINE('',#650,#420);
#374=LINE('',#652,#421);
#375=LINE('',#657,#422);
#376=LINE('',#659,#423);
#377=LINE('',#661,#424);
#378=LINE('',#665,#425);
#379=VECTOR('',#457,1.);
#380=VECTOR('',#460,1.);
#381=VECTOR('',#461,1.);
#382=VECTOR('',#462,1.);
#383=VECTOR('',#463,1.);
#384=VECTOR('',#464,1.);
#385=VECTOR('',#467,1.);
#386=VECTOR('',#468,1.);
#387=VECTOR('',#469,1.);
#388=VECTOR('',#474,1.);
#389=VECTOR('',#475,1.);
#390=VECTOR('',#476,1.);
#391=VECTOR('',#477,1.);
#392=VECTOR('',#478,1.);
#393=VECTOR('',#481,1.);
#394=VECTOR('',#482,1.);
#395=VECTOR('',#483,1.);
#396=VECTOR('',#484,1.);
#397=VECTOR('',#485,1.);
#398=VECTOR('',#486,1.);
#399=VECTOR('',#489,1.);
#400=VECTOR('',#490,1.);
#401=VECTOR('',#491,1.);
#402=VECTOR('',#492,1.);
#403=VECTOR('',#493,1.);
#404=VECTOR('',#494,1.);
#405=VECTOR('',#495,1.);
#406=VECTOR('',#496,1.);
#407=VECTOR('',#497,1.);
#408=VECTOR('',#500,1.);
#409=VECTOR('',#501,1.);
#410=VECTOR('',#502,1.);
#411=VECTOR('',#507,1.);
#412=VECTOR('',#510,1.);
#413=VECTOR('',#511,1.);
#414=VECTOR('',#512,1.);
#415=VECTOR('',#513,1.);
#416=VECTOR('',#514,1.);
#417=VECTOR('',#517,1.);
#418=VECTOR('',#522,1.);
#419=VECTOR('',#525,1.);
#420=VECTOR('',#528,1.);
#421=VECTOR('',#531,1.);
#422=VECTOR('',#538,1.);
#423=VECTOR('',#539,1.);
#424=VECTOR('',#542,1.);
#425=VECTOR('',#547,1.);
#426=AXIS2_PLACEMENT_3D('',#560,#455,#456);
#427=AXIS2_PLACEMENT_3D('',#564,#458,#459);
#428=AXIS2_PLACEMENT_3D('',#575,#465,#466);
#429=AXIS2_PLACEMENT_3D('',#581,#470,#471);
#430=AXIS2_PLACEMENT_3D('',#582,#472,#473);
#431=AXIS2_PLACEMENT_3D('',#594,#479,#480);
#432=AXIS2_PLACEMENT_3D('',#607,#487,#488);
#433=AXIS2_PLACEMENT_3D('',#624,#498,#499);
#434=AXIS2_PLACEMENT_3D('',#630,#503,#504);
#435=AXIS2_PLACEMENT_3D('',#631,#505,#506);
#436=AXIS2_PLACEMENT_3D('',#634,#508,#509);
#437=AXIS2_PLACEMENT_3D('',#642,#515,#516);
#438=AXIS2_PLACEMENT_3D('',#644,#518,#519);
#439=AXIS2_PLACEMENT_3D('',#645,#520,#521);
#440=AXIS2_PLACEMENT_3D('',#647,#523,#524);
#441=AXIS2_PLACEMENT_3D('',#649,#526,#527);
#442=AXIS2_PLACEMENT_3D('',#651,#529,#530);
#443=AXIS2_PLACEMENT_3D('',#653,#532,#533);
#444=AXIS2_PLACEMENT_3D('',#654,#534,#535);
#445=AXIS2_PLACEMENT_3D('',#656,#536,#537);
#446=AXIS2_PLACEMENT_3D('',#660,#540,#541);
#447=AXIS2_PLACEMENT_3D('',#663,#543,#544);
#448=AXIS2_PLACEMENT_3D('',#664,#545,#546);
#449=AXIS2_PLACEMENT_3D('',#666,#548,#549);
#450=AXIS2_PLACEMENT_3D('',#667,#550,#551);
#451=AXIS2_PLACEMENT_3D('',#668,#552,#553);
#452=AXIS2_PLACEMENT_3D('',#670,#554,#555);
#453=AXIS2_PLACEMENT_3D('',#671,#556,#557);
#454=AXIS2_PLACEMENT_3D('',#672,#558,#559);
#455=DIRECTION('',(0.,0.,1.));
#456=DIRECTION('',(1.,0.,0.));
#457=DIRECTION('',(-1.,0.,0.));
#458=DIRECTION('',(0.,0.,-1.));
#459=DIRECTION('',(1.,0.,0.));
#460=DIRECTION('',(0.,1.,0.));
#461=DIRECTION('',(1.,0.,0.));
#462=DIRECTION('',(0.,-1.,0.));
#463=DIRECTION('',(1.,0.,0.));
#464=DIRECTION('',(0.,-1.,0.));
#465=DIRECTION('',(0.,0.,1.));
#466=DIRECTION('',(1.,0.,0.));
#467=DIRECTION('',(-0.707106781186548,0.,-0.707106781186547));
#468=DIRECTION('',(0.707106781186548,0.,0.707106781186547));
#469=DIRECTION('',(0.,1.,0.));
#470=DIRECTION('',(0.707106781186547,0.,-0.707106781186548));
#471=DIRECTION('',(0.,1.,0.));
#472=DIRECTION('',(0.,0.,1.));
#473=DIRECTION('',(1.,0.,0.));
#474=DIRECTION('',(0.,-1.,0.));
#475=DIRECTION('',(-1.,0.,0.));
#476=DIRECTION('',(0.,-1.,0.));
#477=DIRECTION('',(-1.,0.,0.));
#478=DIRECTION('',(0.,-1.,0.));
#479=DIRECTION('',(0.,0.,1.));
#480=DIRECTION('',(1.,0.,0.));
#481=DIRECTION('',(1.,0.,0.));
#482=DIRECTION('',(0.,0.,1.));
#483=DIRECTION('',(1.,0.,0.));
#484=DIRECTION('',(0.,0.,1.));
#485=DIRECTION('',(-1.,0.,0.));
#486=DIRECTION('',(0.,0.,1.));
#487=DIRECTION('',(0.,-1.,0.));
#488=DIRECTION('',(0.,0.,-1.));
#489=DIRECTION('',(0.,0.,1.));
#490=DIRECTION('',(0.,0.,1.));
#491=DIRECTION('',(0.,-1.,0.));
#492=DIRECTION('',(0.,0.,-1.));
#493=DIRECTION('',(0.,1.,0.));
#494=DIRECTION('',(0.,0.707106781186547,-0.707106781186548));
#495=DIRECTION('',(0.,0.,1.));
#496=DIRECTION('',(0.,-1.,0.));
#497=DIRECTION('',(0.,-1.,0.));
#498=DIRECTION('',(-1.,0.,0.));
#499=DIRECTION('',(0.,0.,1.));
#500=DIRECTION('',(1.,0.,0.));
#501=DIRECTION('',(0.,0.,1.));
#502=DIRECTION('',(-1.,0.,0.));
#503=DIRECTION('',(0.,1.,0.));
#504=DIRECTION('',(0.,0.,1.));
#505=DIRECTION('',(0.,0.,-1.));
#506=DIRECTION('',(-1.,0.,0.));
#507=DIRECTION('',(0.,1.,0.));
#508=DIRECTION('',(0.,0.,-1.));
#509=DIRECTION('',(-1.,0.,0.));
#510=DIRECTION('',(0.,0.,-1.));
#511=DIRECTION('',(0.,-0.707106781186549,-0.707106781186546));
#512=DIRECTION('',(0.,-0.707106781186547,0.707106781186548));
#513=DIRECTION('',(0.,0.,1.));
#514=DIRECTION('',(0.,1.,0.));
#515=DIRECTION('',(1.,0.,0.));
#516=DIRECTION('',(0.,0.,-1.));
#517=DIRECTION('',(0.577350269189627,-0.577350269189625,0.577350269189626));
#518=DIRECTION('',(0.,-0.707106781186548,-0.707106781186547));
#519=DIRECTION('',(1.,0.,0.));
#520=DIRECTION('',(-0.707106781186547,0.,0.707106781186548));
#521=DIRECTION('',(-0.707106781186548,0.,-0.707106781186547));
#522=DIRECTION('',(-0.707106781186548,0.,-0.707106781186547));
#523=DIRECTION('',(0.707106781186547,0.,-0.707106781186548));
#524=DIRECTION('',(0.,1.,0.));
#525=DIRECTION('',(0.,0.707106781186549,0.707106781186546));
#526=DIRECTION('',(0.,0.707106781186546,-0.707106781186549));
#527=DIRECTION('',(-1.,0.,0.));
#528=DIRECTION('',(-1.,0.,0.));
#529=DIRECTION('',(0.,-1.,0.));
#530=DIRECTION('',(0.,0.,-1.));
#531=DIRECTION('',(1.,0.,0.));
#532=DIRECTION('',(0.,1.,0.));
#533=DIRECTION('',(0.,0.,1.));
#534=DIRECTION('',(0.,0.,-1.));
#535=DIRECTION('',(-1.,0.,0.));
#536=DIRECTION('',(0.,0.,-1.));
#537=DIRECTION('',(-1.,0.,0.));
#538=DIRECTION('',(1.,0.,0.));
#539=DIRECTION('',(0.,0.,1.));
#540=DIRECTION('',(0.,1.,0.));
#541=DIRECTION('',(0.,0.,1.));
#542=DIRECTION('',(0.,-1.,0.));
#543=DIRECTION('',(0.,0.,1.));
#544=DIRECTION('',(-1.,0.,0.));
#545=DIRECTION('',(0.,0.,-1.));
#546=DIRECTION('',(-1.,0.,0.));
#547=DIRECTION('',(0.,0.,-1.));
#548=DIRECTION('',(1.,0.,0.));
#549=DIRECTION('',(0.,0.,-1.));
#550=DIRECTION('',(0.,0.,1.));
#551=DIRECTION('',(1.,0.,0.));
#552=DIRECTION('',(0.,0.,-1.));
#553=DIRECTION('',(1.,0.,0.));
#554=DIRECTION('',(0.,0.,-1.));
#555=DIRECTION('',(1.,0.,0.));
#556=DIRECTION('',(0.,0.,-1.));
#557=DIRECTION('',(-1.,0.,0.));
#558=DIRECTION('',(0.,0.,-1.));
#559=DIRECTION('',(1.,0.,0.));
#560=CARTESIAN_POINT('',(0.,0.,0.));
#561=CARTESIAN_POINT('',(222.9,52.2,54.));
#562=CARTESIAN_POINT('',(127.,52.2,54.));
#563=CARTESIAN_POINT('',(5.20000000000001,52.2,54.));
#564=CARTESIAN_POINT('',(127.,37.4,54.));
#565=CARTESIAN_POINT('',(141.8,37.4,54.));
#566=CARTESIAN_POINT('',(141.8,104.2,54.));
#567=CARTESIAN_POINT('',(141.8,2.1,54.));
#568=CARTESIAN_POINT('',(222.9,2.1,54.));
#569=CARTESIAN_POINT('',(445.8,2.1,54.));
#570=CARTESIAN_POINT('',(445.8,104.2,54.));
#571=CARTESIAN_POINT('',(445.8,60.2,54.));
#572=CARTESIAN_POINT('',(222.9,60.2,54.));
#573=CARTESIAN_POINT('',(5.20000000000001,60.2,54.));
#574=CARTESIAN_POINT('',(5.20000000000001,104.2,54.));
#575=CARTESIAN_POINT('',(222.9,104.2,54.));
#576=CARTESIAN_POINT('',(0.,52.2,48.8));
#577=CARTESIAN_POINT('',(0.,52.2,48.8));
#578=CARTESIAN_POINT('',(0.,60.2,48.8));
#579=CARTESIAN_POINT('',(0.,60.2,48.8));
#580=CARTESIAN_POINT('',(0.,104.2,48.8));
#581=CARTESIAN_POINT('',(0.,104.2,48.8));
#582=CARTESIAN_POINT('',(12.8,176.8,54.));
#583=CARTESIAN_POINT('',(5.20000000000001,172.463815040845,54.));
#584=CARTESIAN_POINT('',(5.20000000000001,181.136184959155,54.));
#585=CARTESIAN_POINT('',(5.20000000000001,104.2,54.));
#586=CARTESIAN_POINT('',(5.20000000000001,75.9,54.));
#587=CARTESIAN_POINT('',(222.9,75.9,54.));
#588=CARTESIAN_POINT('',(445.8,75.9,54.));
#589=CARTESIAN_POINT('',(445.8,104.2,54.));
#590=CARTESIAN_POINT('',(445.8,200.8,54.));
#591=CARTESIAN_POINT('',(222.9,200.8,54.));
#592=CARTESIAN_POINT('',(5.20000000000001,200.8,54.));
#593=CARTESIAN_POINT('',(5.20000000000001,104.2,54.));
#594=CARTESIAN_POINT('',(222.9,104.2,54.));
#595=CARTESIAN_POINT('',(70.9,0.,32.5));
#596=CARTESIAN_POINT('',(0.,0.,32.5));
#597=CARTESIAN_POINT('',(141.8,0.,32.5));
#598=CARTESIAN_POINT('',(0.,0.,0.));
#599=CARTESIAN_POINT('',(0.,0.,0.));
#600=CARTESIAN_POINT('',(222.9,0.,0.));
#601=CARTESIAN_POINT('',(445.8,0.,0.));
#602=CARTESIAN_POINT('',(445.8,0.,0.));
#603=CARTESIAN_POINT('',(445.8,0.,51.9));
#604=CARTESIAN_POINT('',(222.9,0.,51.9));
#605=CARTESIAN_POINT('',(141.8,0.,51.9));
#606=CARTESIAN_POINT('',(141.8,0.,32.5));
#607=CARTESIAN_POINT('',(222.9,0.,0.));
#608=CARTESIAN_POINT('',(0.,52.2,32.5));
#609=CARTESIAN_POINT('',(0.,52.2,32.5));
#610=CARTESIAN_POINT('',(0.,60.2,0.));
#611=CARTESIAN_POINT('',(0.,60.2,35.9));
#612=CARTESIAN_POINT('',(0.,104.2,35.9));
#613=CARTESIAN_POINT('',(0.,75.9,35.9));
#614=CARTESIAN_POINT('',(0.,75.9,0.));
#615=CARTESIAN_POINT('',(0.,75.9,48.8));
#616=CARTESIAN_POINT('',(0.,104.2,48.8));
#617=CARTESIAN_POINT('',(0.,206.,48.8));
#618=CARTESIAN_POINT('',(0.,179.5,75.3));
#619=CARTESIAN_POINT('',(0.,208.4,46.4));
#620=CARTESIAN_POINT('',(0.,208.4,0.));
#621=CARTESIAN_POINT('',(0.,208.4,0.));
#622=CARTESIAN_POINT('',(0.,104.2,0.));
#623=CARTESIAN_POINT('',(0.,26.1,32.5));
#624=CARTESIAN_POINT('',(0.,104.2,0.));
#625=CARTESIAN_POINT('',(222.9,208.4,46.4));
#626=CARTESIAN_POINT('',(445.8,208.4,46.4));
#627=CARTESIAN_POINT('',(445.8,208.4,0.));
#628=CARTESIAN_POINT('',(445.8,208.4,0.));
#629=CARTESIAN_POINT('',(222.9,208.4,0.));
#630=CARTESIAN_POINT('',(222.9,208.4,0.));
#631=CARTESIAN_POINT('',(12.8,176.8,0.));
#632=CARTESIAN_POINT('',(4.05,176.8,0.));
#633=CARTESIAN_POINT('',(445.8,104.2,0.));
#634=CARTESIAN_POINT('',(222.9,104.2,0.));
#635=CARTESIAN_POINT('',(445.8,60.2,0.));
#636=CARTESIAN_POINT('',(445.8,60.2,35.9));
#637=CARTESIAN_POINT('',(445.8,26.1500000000002,78.0500000000001));
#638=CARTESIAN_POINT('',(445.8,179.5,75.3));
#639=CARTESIAN_POINT('',(445.8,75.9,0.));
#640=CARTESIAN_POINT('',(445.8,75.9,35.9));
#641=CARTESIAN_POINT('',(445.8,104.2,35.9));
#642=CARTESIAN_POINT('',(445.8,104.2,0.));
#643=CARTESIAN_POINT('',(72.7000000000002,133.3,121.5));
#644=CARTESIAN_POINT('',(222.9,208.4,46.4));
#645=CARTESIAN_POINT('',(12.8,176.8,61.6));
#646=CARTESIAN_POINT('',(0.,75.9,48.8));
#647=CARTESIAN_POINT('',(0.,104.2,48.8));
#648=CARTESIAN_POINT('',(141.8,0.,51.9));
#649=CARTESIAN_POINT('',(222.9,0.,51.9));
#650=CARTESIAN_POINT('',(222.9,60.2,35.9));
#651=CARTESIAN_POINT('',(222.9,60.2,35.9));
#652=CARTESIAN_POINT('',(222.9,75.9,35.9));
#653=CARTESIAN_POINT('',(222.9,75.9,35.9));
#654=CARTESIAN_POINT('',(65.8,66.4,35.9));
#655=CARTESIAN_POINT('',(62.3,66.4,35.9));
#656=CARTESIAN_POINT('',(222.9,68.05,35.9));
#657=CARTESIAN_POINT('',(70.9,52.2,32.5));
#658=CARTESIAN_POINT('',(127.,52.2,32.5));
#659=CARTESIAN_POINT('',(127.,52.2,54.));
#660=CARTESIAN_POINT('',(70.9,52.2,32.5));
#661=CARTESIAN_POINT('',(141.8,26.1,32.5));
#662=CARTESIAN_POINT('',(141.8,37.4,32.5));
#663=CARTESIAN_POINT('',(127.,37.4,32.5));
#664=CARTESIAN_POINT('',(70.9,26.1,32.5));
#665=CARTESIAN_POINT('',(141.8,37.4,32.5));
#666=CARTESIAN_POINT('',(141.8,26.1,32.5));
#667=CARTESIAN_POINT('',(127.,37.4,32.5));
#668=CARTESIAN_POINT('',(65.8,66.4,18.3));
#669=CARTESIAN_POINT('',(69.3,66.4,18.3));
#670=CARTESIAN_POINT('',(65.8,66.4,54.05));
#671=CARTESIAN_POINT('',(65.8,66.4,18.3));
#672=CARTESIAN_POINT('',(12.8,176.8,54.05));
#673=MECHANICAL_DESIGN_GEOMETRIC_PRESENTATION_REPRESENTATION('',(#24),#674);
#674=(
GEOMETRIC_REPRESENTATION_CONTEXT(3)
GLOBAL_UNCERTAINTY_ASSIGNED_CONTEXT((#675))
GLOBAL_UNIT_ASSIGNED_CONTEXT((#681,#677,#676))
REPRESENTATION_CONTEXT('featured_part_03856','TOP_LEVEL_ASSEMBLY_PART')
);
#675=UNCERTAINTY_MEASURE_WITH_UNIT(LENGTH_MEASURE(2.E-5),#681,
'DISTANCE_ACCURACY_VALUE','Maximum Tolerance applied to model');
#676=(
NAMED_UNIT(*)
SI_UNIT($,.STERADIAN.)
SOLID_ANGLE_UNIT()
);
#677=(
CONVERSION_BASED_UNIT('DEGREE',#679)
NAMED_UNIT(#678)
PLANE_ANGLE_UNIT()
);
#678=DIMENSIONAL_EXPONENTS(0.,0.,0.,0.,0.,0.,0.);
#679=PLANE_ANGLE_MEASURE_WITH_UNIT(PLANE_ANGLE_MEASURE(0.0174532925),#680);
#680=(
NAMED_UNIT(*)
PLANE_ANGLE_UNIT()
SI_UNIT($,.RADIAN.)
);
#681=(
LENGTH_UNIT()
NAMED_UNIT(*)
SI_UNIT(.MILLI.,.METRE.)
);
ENDSEC;
END-ISO-10303-21;
