ISO-10303-21;
HEADER;
/* Generated by software containing ST-Developer
 * from STEP Tools, Inc. (www.steptools.com) 
 */
/* OPTION: using custom schema-name function */

FILE_DESCRIPTION(
/* description */ (''),
/* implementation_level */ '2;1');

FILE_NAME(
/* name */ 'featured_part_03597.stp',
/* time_stamp */ '2026-07-06T15:50:29-04:00',
/* author */ (''),
/* organization */ (''),
/* preprocessor_version */ 'ST-DEVELOPER v20.1',
/* originating_system */ 'SIEMENS PLM Software NX2512.6002',
/* authorisation */ '');

FILE_SCHEMA (('AUTOMOTIVE_DESIGN { 1 0 10303 214 3 1 1 1 }'));
ENDSEC;

DATA;
#10=SHAPE_REPRESENTATION_RELATIONSHIP('None',
'relationship between featured_part_03597-None and featured_part_03597
-None',#22,#11);
#11=ADVANCED_BREP_SHAPE_REPRESENTATION('featured_part_03597-None',(#32),
#840);
#12=SHAPE_DEFINITION_REPRESENTATION(#13,#22);
#13=PRODUCT_DEFINITION_SHAPE('','',#14);
#14=PRODUCT_DEFINITION(' ','',#16,#15);
#15=PRODUCT_DEFINITION_CONTEXT('part definition',#21,'design');
#16=PRODUCT_DEFINITION_FORMATION_WITH_SPECIFIED_SOURCE(' ',' ',#18,
 .NOT_KNOWN.);
#17=PRODUCT_RELATED_PRODUCT_CATEGORY('part','',(#18));
#18=PRODUCT('featured_part_03597','featured_part_03597',' ',(#19));
#19=PRODUCT_CONTEXT(' ',#21,'mechanical');
#20=APPLICATION_PROTOCOL_DEFINITION('international standard',
'automotive_design',2010,#21);
#21=APPLICATION_CONTEXT(
'core data for automotive mechanical design processes');
#22=SHAPE_REPRESENTATION('featured_part_03597-None',(#515),#840);
#23=PRESENTATION_LAYER_ASSIGNMENT('1','Layer 1',(#32));
#24=STYLED_ITEM('',(#25),#32);
#25=PRESENTATION_STYLE_ASSIGNMENT((#26));
#26=SURFACE_STYLE_USAGE(.BOTH.,#27);
#27=SURFACE_SIDE_STYLE('',(#28));
#28=SURFACE_STYLE_FILL_AREA(#29);
#29=FILL_AREA_STYLE('',(#30));
#30=FILL_AREA_STYLE_COLOUR('',#31);
#31=COLOUR_RGB('medium steel',0.611764705882353,0.658823529411765,0.670588235294118);
#32=MANIFOLD_SOLID_BREP('',#33);
#33=CLOSED_SHELL('',(#63,#64,#65,#66,#67,#68,#69,#70,#71,#72,#73,#74,#75,
#76,#77,#78,#79,#80,#81,#82,#83,#84,#85,#86,#87,#88));
#34=CYLINDRICAL_SURFACE('',#543,3.5);
#35=CYLINDRICAL_SURFACE('',#544,3.5);
#36=CYLINDRICAL_SURFACE('',#554,6.7);
#37=CYLINDRICAL_SURFACE('',#555,6.7);
#38=CYLINDRICAL_SURFACE('',#556,6.7);
#39=CYLINDRICAL_SURFACE('',#557,6.7);
#40=CYLINDRICAL_SURFACE('',#558,12.25);
#41=CYLINDRICAL_SURFACE('',#559,12.25);
#42=CYLINDRICAL_SURFACE('',#560,12.25);
#43=CYLINDRICAL_SURFACE('',#561,12.25);
#44=FACE_OUTER_BOUND('',#220,.T.);
#45=FACE_OUTER_BOUND('',#221,.T.);
#46=FACE_OUTER_BOUND('',#222,.T.);
#47=FACE_OUTER_BOUND('',#228,.T.);
#48=FACE_OUTER_BOUND('',#229,.T.);
#49=FACE_OUTER_BOUND('',#230,.T.);
#50=FACE_OUTER_BOUND('',#231,.T.);
#51=FACE_OUTER_BOUND('',#234,.T.);
#52=FACE_OUTER_BOUND('',#235,.T.);
#53=FACE_OUTER_BOUND('',#236,.T.);
#54=FACE_OUTER_BOUND('',#237,.T.);
#55=FACE_OUTER_BOUND('',#238,.T.);
#56=FACE_OUTER_BOUND('',#239,.T.);
#57=FACE_OUTER_BOUND('',#240,.T.);
#58=FACE_OUTER_BOUND('',#241,.T.);
#59=FACE_OUTER_BOUND('',#242,.T.);
#60=FACE_OUTER_BOUND('',#243,.T.);
#61=FACE_OUTER_BOUND('',#244,.T.);
#62=FACE_OUTER_BOUND('',#245,.T.);
#63=ADVANCED_FACE('',(#195,#196,#197,#198,#199),#89,.T.);
#64=ADVANCED_FACE('',(#44),#90,.T.);
#65=ADVANCED_FACE('',(#45),#91,.T.);
#66=ADVANCED_FACE('',(#46),#92,.T.);
#67=ADVANCED_FACE('',(#200,#201,#202,#203,#204),#93,.T.);
#68=ADVANCED_FACE('',(#47),#94,.T.);
#69=ADVANCED_FACE('',(#48),#95,.F.);
#70=ADVANCED_FACE('',(#49),#96,.F.);
#71=ADVANCED_FACE('',(#50),#97,.F.);
#72=ADVANCED_FACE('',(#205,#206),#98,.F.);
#73=ADVANCED_FACE('',(#51),#99,.F.);
#74=ADVANCED_FACE('',(#52),#34,.F.);
#75=ADVANCED_FACE('',(#53),#35,.F.);
#76=ADVANCED_FACE('',(#54),#100,.F.);
#77=ADVANCED_FACE('',(#55),#101,.F.);
#78=ADVANCED_FACE('',(#56),#102,.F.);
#79=ADVANCED_FACE('',(#57),#103,.F.);
#80=ADVANCED_FACE('',(#58),#104,.F.);
#81=ADVANCED_FACE('',(#59),#36,.F.);
#82=ADVANCED_FACE('',(#60),#37,.F.);
#83=ADVANCED_FACE('',(#61),#38,.F.);
#84=ADVANCED_FACE('',(#62),#39,.F.);
#85=ADVANCED_FACE('',(#207,#208),#40,.F.);
#86=ADVANCED_FACE('',(#209,#210),#41,.F.);
#87=ADVANCED_FACE('',(#211,#212),#42,.F.);
#88=ADVANCED_FACE('',(#213,#214),#43,.F.);
#89=PLANE('',#522);
#90=PLANE('',#523);
#91=PLANE('',#524);
#92=PLANE('',#525);
#93=PLANE('',#530);
#94=PLANE('',#531);
#95=PLANE('',#532);
#96=PLANE('',#533);
#97=PLANE('',#534);
#98=PLANE('',#541);
#99=PLANE('',#542);
#100=PLANE('',#545);
#101=PLANE('',#546);
#102=PLANE('',#547);
#103=PLANE('',#548);
#104=PLANE('',#553);
#105=LINE('',#710,#150);
#106=LINE('',#713,#151);
#107=LINE('',#715,#152);
#108=LINE('',#717,#153);
#109=LINE('',#719,#154);
#110=LINE('',#721,#155);
#111=LINE('',#723,#156);
#112=LINE('',#727,#157);
#113=LINE('',#731,#158);
#114=LINE('',#733,#159);
#115=LINE('',#735,#160);
#116=LINE('',#737,#161);
#117=LINE('',#739,#162);
#118=LINE('',#741,#163);
#119=LINE('',#742,#164);
#120=LINE('',#744,#165);
#121=LINE('',#746,#166);
#122=LINE('',#748,#167);
#123=LINE('',#750,#168);
#124=LINE('',#752,#169);
#125=LINE('',#762,#170);
#126=LINE('',#764,#171);
#127=LINE('',#767,#172);
#128=LINE('',#769,#173);
#129=LINE('',#771,#174);
#130=LINE('',#773,#175);
#131=LINE('',#775,#176);
#132=LINE('',#780,#177);
#133=LINE('',#784,#178);
#134=LINE('',#788,#179);
#135=LINE('',#793,#180);
#136=LINE('',#797,#181);
#137=LINE('',#798,#182);
#138=LINE('',#802,#183);
#139=LINE('',#804,#184);
#140=LINE('',#806,#185);
#141=LINE('',#808,#186);
#142=LINE('',#810,#187);
#143=LINE('',#812,#188);
#144=LINE('',#814,#189);
#145=LINE('',#817,#190);
#146=LINE('',#818,#191);
#147=LINE('',#820,#192);
#148=LINE('',#823,#193);
#149=LINE('',#824,#194);
#150=VECTOR('',#572,1.);
#151=VECTOR('',#573,1.);
#152=VECTOR('',#574,1.);
#153=VECTOR('',#575,1.);
#154=VECTOR('',#576,1.);
#155=VECTOR('',#577,1.);
#156=VECTOR('',#578,1.);
#157=VECTOR('',#581,1.);
#158=VECTOR('',#586,1.);
#159=VECTOR('',#587,1.);
#160=VECTOR('',#588,1.);
#161=VECTOR('',#591,1.);
#162=VECTOR('',#592,1.);
#163=VECTOR('',#593,1.);
#164=VECTOR('',#594,1.);
#165=VECTOR('',#595,1.);
#166=VECTOR('',#596,1.);
#167=VECTOR('',#599,1.);
#168=VECTOR('',#600,1.);
#169=VECTOR('',#601,1.);
#170=VECTOR('',#612,1.);
#171=VECTOR('',#615,1.);
#172=VECTOR('',#620,1.);
#173=VECTOR('',#621,1.);
#174=VECTOR('',#624,1.);
#175=VECTOR('',#625,1.);
#176=VECTOR('',#628,1.);
#177=VECTOR('',#631,1.);
#178=VECTOR('',#634,1.);
#179=VECTOR('',#637,1.);
#180=VECTOR('',#642,1.);
#181=VECTOR('',#647,1.);
#182=VECTOR('',#648,1.);
#183=VECTOR('',#655,1.);
#184=VECTOR('',#656,1.);
#185=VECTOR('',#657,1.);
#186=VECTOR('',#660,1.);
#187=VECTOR('',#661,1.);
#188=VECTOR('',#662,1.);
#189=VECTOR('',#665,1.);
#190=VECTOR('',#666,1.);
#191=VECTOR('',#667,1.);
#192=VECTOR('',#670,1.);
#193=VECTOR('',#671,1.);
#194=VECTOR('',#672,1.);
#195=FACE_BOUND('',#215,.T.);
#196=FACE_BOUND('',#216,.T.);
#197=FACE_BOUND('',#217,.T.);
#198=FACE_BOUND('',#218,.T.);
#199=FACE_BOUND('',#219,.T.);
#200=FACE_BOUND('',#223,.T.);
#201=FACE_BOUND('',#224,.T.);
#202=FACE_BOUND('',#225,.T.);
#203=FACE_BOUND('',#226,.T.);
#204=FACE_BOUND('',#227,.T.);
#205=FACE_BOUND('',#232,.T.);
#206=FACE_BOUND('',#233,.T.);
#207=FACE_BOUND('',#246,.T.);
#208=FACE_BOUND('',#247,.T.);
#209=FACE_BOUND('',#248,.T.);
#210=FACE_BOUND('',#249,.T.);
#211=FACE_BOUND('',#250,.T.);
#212=FACE_BOUND('',#251,.T.);
#213=FACE_BOUND('',#252,.T.);
#214=FACE_BOUND('',#253,.T.);
#215=EDGE_LOOP('',(#254));
#216=EDGE_LOOP('',(#255));
#217=EDGE_LOOP('',(#256));
#218=EDGE_LOOP('',(#257));
#219=EDGE_LOOP('',(#258,#259,#260,#261,#262,#263,#264,#265,#266,#267));
#220=EDGE_LOOP('',(#268,#269,#270,#271));
#221=EDGE_LOOP('',(#272,#273,#274,#275,#276,#277,#278,#279,#280));
#222=EDGE_LOOP('',(#281,#282,#283,#284));
#223=EDGE_LOOP('',(#285));
#224=EDGE_LOOP('',(#286));
#225=EDGE_LOOP('',(#287));
#226=EDGE_LOOP('',(#288));
#227=EDGE_LOOP('',(#289,#290,#291,#292));
#228=EDGE_LOOP('',(#293,#294,#295,#296,#297));
#229=EDGE_LOOP('',(#298,#299,#300,#301));
#230=EDGE_LOOP('',(#302,#303,#304,#305));
#231=EDGE_LOOP('',(#306,#307,#308,#309));
#232=EDGE_LOOP('',(#310,#311,#312,#313,#314,#315,#316,#317));
#233=EDGE_LOOP('',(#318,#319,#320,#321,#322,#323));
#234=EDGE_LOOP('',(#324,#325,#326,#327));
#235=EDGE_LOOP('',(#328,#329,#330,#331));
#236=EDGE_LOOP('',(#332,#333,#334,#335));
#237=EDGE_LOOP('',(#336,#337,#338,#339));
#238=EDGE_LOOP('',(#340,#341,#342,#343));
#239=EDGE_LOOP('',(#344,#345,#346,#347));
#240=EDGE_LOOP('',(#348,#349,#350,#351));
#241=EDGE_LOOP('',(#352,#353,#354,#355,#356,#357,#358,#359));
#242=EDGE_LOOP('',(#360,#361,#362,#363));
#243=EDGE_LOOP('',(#364,#365,#366,#367));
#244=EDGE_LOOP('',(#368,#369,#370,#371));
#245=EDGE_LOOP('',(#372,#373,#374,#375));
#246=EDGE_LOOP('',(#376));
#247=EDGE_LOOP('',(#377));
#248=EDGE_LOOP('',(#378));
#249=EDGE_LOOP('',(#379));
#250=EDGE_LOOP('',(#380));
#251=EDGE_LOOP('',(#381));
#252=EDGE_LOOP('',(#382));
#253=EDGE_LOOP('',(#383));
#254=ORIENTED_EDGE('',*,*,#430,.F.);
#255=ORIENTED_EDGE('',*,*,#431,.F.);
#256=ORIENTED_EDGE('',*,*,#432,.F.);
#257=ORIENTED_EDGE('',*,*,#433,.F.);
#258=ORIENTED_EDGE('',*,*,#434,.F.);
#259=ORIENTED_EDGE('',*,*,#435,.F.);
#260=ORIENTED_EDGE('',*,*,#436,.F.);
#261=ORIENTED_EDGE('',*,*,#437,.F.);
#262=ORIENTED_EDGE('',*,*,#438,.T.);
#263=ORIENTED_EDGE('',*,*,#439,.F.);
#264=ORIENTED_EDGE('',*,*,#440,.F.);
#265=ORIENTED_EDGE('',*,*,#441,.T.);
#266=ORIENTED_EDGE('',*,*,#442,.F.);
#267=ORIENTED_EDGE('',*,*,#443,.T.);
#268=ORIENTED_EDGE('',*,*,#444,.T.);
#269=ORIENTED_EDGE('',*,*,#436,.T.);
#270=ORIENTED_EDGE('',*,*,#445,.F.);
#271=ORIENTED_EDGE('',*,*,#446,.T.);
#272=ORIENTED_EDGE('',*,*,#447,.F.);
#273=ORIENTED_EDGE('',*,*,#448,.F.);
#274=ORIENTED_EDGE('',*,*,#449,.T.);
#275=ORIENTED_EDGE('',*,*,#439,.T.);
#276=ORIENTED_EDGE('',*,*,#450,.T.);
#277=ORIENTED_EDGE('',*,*,#451,.F.);
#278=ORIENTED_EDGE('',*,*,#452,.T.);
#279=ORIENTED_EDGE('',*,*,#445,.T.);
#280=ORIENTED_EDGE('',*,*,#435,.T.);
#281=ORIENTED_EDGE('',*,*,#451,.T.);
#282=ORIENTED_EDGE('',*,*,#453,.T.);
#283=ORIENTED_EDGE('',*,*,#454,.F.);
#284=ORIENTED_EDGE('',*,*,#455,.T.);
#285=ORIENTED_EDGE('',*,*,#456,.F.);
#286=ORIENTED_EDGE('',*,*,#457,.F.);
#287=ORIENTED_EDGE('',*,*,#458,.F.);
#288=ORIENTED_EDGE('',*,*,#459,.F.);
#289=ORIENTED_EDGE('',*,*,#460,.F.);
#290=ORIENTED_EDGE('',*,*,#446,.F.);
#291=ORIENTED_EDGE('',*,*,#452,.F.);
#292=ORIENTED_EDGE('',*,*,#455,.F.);
#293=ORIENTED_EDGE('',*,*,#454,.T.);
#294=ORIENTED_EDGE('',*,*,#461,.T.);
#295=ORIENTED_EDGE('',*,*,#437,.T.);
#296=ORIENTED_EDGE('',*,*,#444,.F.);
#297=ORIENTED_EDGE('',*,*,#460,.T.);
#298=ORIENTED_EDGE('',*,*,#450,.F.);
#299=ORIENTED_EDGE('',*,*,#438,.F.);
#300=ORIENTED_EDGE('',*,*,#461,.F.);
#301=ORIENTED_EDGE('',*,*,#453,.F.);
#302=ORIENTED_EDGE('',*,*,#434,.T.);
#303=ORIENTED_EDGE('',*,*,#462,.T.);
#304=ORIENTED_EDGE('',*,*,#463,.T.);
#305=ORIENTED_EDGE('',*,*,#447,.T.);
#306=ORIENTED_EDGE('',*,*,#464,.T.);
#307=ORIENTED_EDGE('',*,*,#465,.T.);
#308=ORIENTED_EDGE('',*,*,#440,.T.);
#309=ORIENTED_EDGE('',*,*,#449,.F.);
#310=ORIENTED_EDGE('',*,*,#466,.T.);
#311=ORIENTED_EDGE('',*,*,#467,.T.);
#312=ORIENTED_EDGE('',*,*,#468,.T.);
#313=ORIENTED_EDGE('',*,*,#469,.T.);
#314=ORIENTED_EDGE('',*,*,#470,.T.);
#315=ORIENTED_EDGE('',*,*,#471,.T.);
#316=ORIENTED_EDGE('',*,*,#472,.T.);
#317=ORIENTED_EDGE('',*,*,#473,.T.);
#318=ORIENTED_EDGE('',*,*,#463,.F.);
#319=ORIENTED_EDGE('',*,*,#474,.T.);
#320=ORIENTED_EDGE('',*,*,#475,.F.);
#321=ORIENTED_EDGE('',*,*,#476,.T.);
#322=ORIENTED_EDGE('',*,*,#464,.F.);
#323=ORIENTED_EDGE('',*,*,#448,.T.);
#324=ORIENTED_EDGE('',*,*,#475,.T.);
#325=ORIENTED_EDGE('',*,*,#477,.T.);
#326=ORIENTED_EDGE('',*,*,#442,.T.);
#327=ORIENTED_EDGE('',*,*,#478,.T.);
#328=ORIENTED_EDGE('',*,*,#443,.F.);
#329=ORIENTED_EDGE('',*,*,#477,.F.);
#330=ORIENTED_EDGE('',*,*,#474,.F.);
#331=ORIENTED_EDGE('',*,*,#462,.F.);
#332=ORIENTED_EDGE('',*,*,#441,.F.);
#333=ORIENTED_EDGE('',*,*,#465,.F.);
#334=ORIENTED_EDGE('',*,*,#476,.F.);
#335=ORIENTED_EDGE('',*,*,#478,.F.);
#336=ORIENTED_EDGE('',*,*,#470,.F.);
#337=ORIENTED_EDGE('',*,*,#479,.T.);
#338=ORIENTED_EDGE('',*,*,#480,.T.);
#339=ORIENTED_EDGE('',*,*,#481,.T.);
#340=ORIENTED_EDGE('',*,*,#472,.F.);
#341=ORIENTED_EDGE('',*,*,#482,.T.);
#342=ORIENTED_EDGE('',*,*,#483,.T.);
#343=ORIENTED_EDGE('',*,*,#484,.T.);
#344=ORIENTED_EDGE('',*,*,#485,.T.);
#345=ORIENTED_EDGE('',*,*,#486,.T.);
#346=ORIENTED_EDGE('',*,*,#466,.F.);
#347=ORIENTED_EDGE('',*,*,#487,.T.);
#348=ORIENTED_EDGE('',*,*,#488,.T.);
#349=ORIENTED_EDGE('',*,*,#489,.T.);
#350=ORIENTED_EDGE('',*,*,#468,.F.);
#351=ORIENTED_EDGE('',*,*,#490,.T.);
#352=ORIENTED_EDGE('',*,*,#480,.F.);
#353=ORIENTED_EDGE('',*,*,#491,.T.);
#354=ORIENTED_EDGE('',*,*,#488,.F.);
#355=ORIENTED_EDGE('',*,*,#492,.T.);
#356=ORIENTED_EDGE('',*,*,#485,.F.);
#357=ORIENTED_EDGE('',*,*,#493,.T.);
#358=ORIENTED_EDGE('',*,*,#483,.F.);
#359=ORIENTED_EDGE('',*,*,#494,.T.);
#360=ORIENTED_EDGE('',*,*,#469,.F.);
#361=ORIENTED_EDGE('',*,*,#489,.F.);
#362=ORIENTED_EDGE('',*,*,#491,.F.);
#363=ORIENTED_EDGE('',*,*,#479,.F.);
#364=ORIENTED_EDGE('',*,*,#467,.F.);
#365=ORIENTED_EDGE('',*,*,#486,.F.);
#366=ORIENTED_EDGE('',*,*,#492,.F.);
#367=ORIENTED_EDGE('',*,*,#490,.F.);
#368=ORIENTED_EDGE('',*,*,#471,.F.);
#369=ORIENTED_EDGE('',*,*,#481,.F.);
#370=ORIENTED_EDGE('',*,*,#494,.F.);
#371=ORIENTED_EDGE('',*,*,#482,.F.);
#372=ORIENTED_EDGE('',*,*,#473,.F.);
#373=ORIENTED_EDGE('',*,*,#484,.F.);
#374=ORIENTED_EDGE('',*,*,#493,.F.);
#375=ORIENTED_EDGE('',*,*,#487,.F.);
#376=ORIENTED_EDGE('',*,*,#433,.T.);
#377=ORIENTED_EDGE('',*,*,#459,.T.);
#378=ORIENTED_EDGE('',*,*,#432,.T.);
#379=ORIENTED_EDGE('',*,*,#458,.T.);
#380=ORIENTED_EDGE('',*,*,#431,.T.);
#381=ORIENTED_EDGE('',*,*,#457,.T.);
#382=ORIENTED_EDGE('',*,*,#430,.T.);
#383=ORIENTED_EDGE('',*,*,#456,.T.);
#384=VERTEX_POINT('',#703);
#385=VERTEX_POINT('',#705);
#386=VERTEX_POINT('',#707);
#387=VERTEX_POINT('',#709);
#388=VERTEX_POINT('',#711);
#389=VERTEX_POINT('',#712);
#390=VERTEX_POINT('',#714);
#391=VERTEX_POINT('',#716);
#392=VERTEX_POINT('',#718);
#393=VERTEX_POINT('',#720);
#394=VERTEX_POINT('',#722);
#395=VERTEX_POINT('',#724);
#396=VERTEX_POINT('',#726);
#397=VERTEX_POINT('',#728);
#398=VERTEX_POINT('',#732);
#399=VERTEX_POINT('',#734);
#400=VERTEX_POINT('',#738);
#401=VERTEX_POINT('',#740);
#402=VERTEX_POINT('',#743);
#403=VERTEX_POINT('',#745);
#404=VERTEX_POINT('',#749);
#405=VERTEX_POINT('',#751);
#406=VERTEX_POINT('',#755);
#407=VERTEX_POINT('',#757);
#408=VERTEX_POINT('',#759);
#409=VERTEX_POINT('',#761);
#410=VERTEX_POINT('',#768);
#411=VERTEX_POINT('',#772);
#412=VERTEX_POINT('',#776);
#413=VERTEX_POINT('',#777);
#414=VERTEX_POINT('',#779);
#415=VERTEX_POINT('',#781);
#416=VERTEX_POINT('',#783);
#417=VERTEX_POINT('',#785);
#418=VERTEX_POINT('',#787);
#419=VERTEX_POINT('',#789);
#420=VERTEX_POINT('',#792);
#421=VERTEX_POINT('',#794);
#422=VERTEX_POINT('',#803);
#423=VERTEX_POINT('',#805);
#424=VERTEX_POINT('',#809);
#425=VERTEX_POINT('',#811);
#426=VERTEX_POINT('',#815);
#427=VERTEX_POINT('',#816);
#428=VERTEX_POINT('',#821);
#429=VERTEX_POINT('',#822);
#430=EDGE_CURVE('',#384,#384,#495,.T.);
#431=EDGE_CURVE('',#385,#385,#496,.T.);
#432=EDGE_CURVE('',#386,#386,#497,.T.);
#433=EDGE_CURVE('',#387,#387,#498,.T.);
#434=EDGE_CURVE('',#388,#389,#105,.T.);
#435=EDGE_CURVE('',#390,#388,#106,.T.);
#436=EDGE_CURVE('',#391,#390,#107,.T.);
#437=EDGE_CURVE('',#392,#391,#108,.T.);
#438=EDGE_CURVE('',#392,#393,#109,.T.);
#439=EDGE_CURVE('',#394,#393,#110,.T.);
#440=EDGE_CURVE('',#395,#394,#111,.T.);
#441=EDGE_CURVE('',#395,#396,#499,.T.);
#442=EDGE_CURVE('',#397,#396,#112,.T.);
#443=EDGE_CURVE('',#397,#389,#500,.T.);
#444=EDGE_CURVE('',#398,#391,#113,.T.);
#445=EDGE_CURVE('',#399,#390,#114,.T.);
#446=EDGE_CURVE('',#399,#398,#115,.T.);
#447=EDGE_CURVE('',#400,#388,#116,.T.);
#448=EDGE_CURVE('',#401,#400,#117,.T.);
#449=EDGE_CURVE('',#401,#394,#118,.T.);
#450=EDGE_CURVE('',#393,#402,#119,.T.);
#451=EDGE_CURVE('',#403,#402,#120,.T.);
#452=EDGE_CURVE('',#403,#399,#121,.T.);
#453=EDGE_CURVE('',#402,#404,#122,.T.);
#454=EDGE_CURVE('',#405,#404,#123,.T.);
#455=EDGE_CURVE('',#405,#403,#124,.T.);
#456=EDGE_CURVE('',#406,#406,#501,.T.);
#457=EDGE_CURVE('',#407,#407,#502,.T.);
#458=EDGE_CURVE('',#408,#408,#503,.T.);
#459=EDGE_CURVE('',#409,#409,#504,.T.);
#460=EDGE_CURVE('',#398,#405,#125,.T.);
#461=EDGE_CURVE('',#404,#392,#126,.T.);
#462=EDGE_CURVE('',#389,#410,#127,.T.);
#463=EDGE_CURVE('',#410,#400,#128,.T.);
#464=EDGE_CURVE('',#401,#411,#129,.T.);
#465=EDGE_CURVE('',#411,#395,#130,.T.);
#466=EDGE_CURVE('',#412,#413,#131,.T.);
#467=EDGE_CURVE('',#413,#414,#505,.T.);
#468=EDGE_CURVE('',#414,#415,#132,.T.);
#469=EDGE_CURVE('',#415,#416,#506,.T.);
#470=EDGE_CURVE('',#416,#417,#133,.T.);
#471=EDGE_CURVE('',#417,#418,#507,.T.);
#472=EDGE_CURVE('',#418,#419,#134,.T.);
#473=EDGE_CURVE('',#419,#412,#508,.T.);
#474=EDGE_CURVE('',#410,#420,#509,.T.);
#475=EDGE_CURVE('',#421,#420,#135,.T.);
#476=EDGE_CURVE('',#421,#411,#510,.T.);
#477=EDGE_CURVE('',#420,#397,#136,.T.);
#478=EDGE_CURVE('',#396,#421,#137,.T.);
#479=EDGE_CURVE('',#416,#422,#138,.T.);
#480=EDGE_CURVE('',#422,#423,#139,.T.);
#481=EDGE_CURVE('',#423,#417,#140,.T.);
#482=EDGE_CURVE('',#418,#424,#141,.T.);
#483=EDGE_CURVE('',#424,#425,#142,.T.);
#484=EDGE_CURVE('',#425,#419,#143,.T.);
#485=EDGE_CURVE('',#426,#427,#144,.T.);
#486=EDGE_CURVE('',#427,#413,#145,.T.);
#487=EDGE_CURVE('',#412,#426,#146,.T.);
#488=EDGE_CURVE('',#428,#429,#147,.T.);
#489=EDGE_CURVE('',#429,#415,#148,.T.);
#490=EDGE_CURVE('',#414,#428,#149,.T.);
#491=EDGE_CURVE('',#422,#429,#511,.T.);
#492=EDGE_CURVE('',#428,#427,#512,.T.);
#493=EDGE_CURVE('',#426,#425,#513,.T.);
#494=EDGE_CURVE('',#424,#423,#514,.T.);
#495=CIRCLE('',#516,12.25);
#496=CIRCLE('',#517,12.25);
#497=CIRCLE('',#518,12.25);
#498=CIRCLE('',#519,12.25);
#499=CIRCLE('',#520,3.5);
#500=CIRCLE('',#521,3.5);
#501=CIRCLE('',#526,12.25);
#502=CIRCLE('',#527,12.25);
#503=CIRCLE('',#528,12.25);
#504=CIRCLE('',#529,12.25);
#505=CIRCLE('',#535,6.7);
#506=CIRCLE('',#536,6.7);
#507=CIRCLE('',#537,6.7);
#508=CIRCLE('',#538,6.7);
#509=CIRCLE('',#539,3.5);
#510=CIRCLE('',#540,3.5);
#511=CIRCLE('',#549,6.7);
#512=CIRCLE('',#550,6.7);
#513=CIRCLE('',#551,6.7);
#514=CIRCLE('',#552,6.7);
#515=AXIS2_PLACEMENT_3D('',#701,#562,#563);
#516=AXIS2_PLACEMENT_3D('',#702,#564,#565);
#517=AXIS2_PLACEMENT_3D('',#704,#566,#567);
#518=AXIS2_PLACEMENT_3D('',#706,#568,#569);
#519=AXIS2_PLACEMENT_3D('',#708,#570,#571);
#520=AXIS2_PLACEMENT_3D('',#725,#579,#580);
#521=AXIS2_PLACEMENT_3D('',#729,#582,#583);
#522=AXIS2_PLACEMENT_3D('',#730,#584,#585);
#523=AXIS2_PLACEMENT_3D('',#736,#589,#590);
#524=AXIS2_PLACEMENT_3D('',#747,#597,#598);
#525=AXIS2_PLACEMENT_3D('',#753,#602,#603);
#526=AXIS2_PLACEMENT_3D('',#754,#604,#605);
#527=AXIS2_PLACEMENT_3D('',#756,#606,#607);
#528=AXIS2_PLACEMENT_3D('',#758,#608,#609);
#529=AXIS2_PLACEMENT_3D('',#760,#610,#611);
#530=AXIS2_PLACEMENT_3D('',#763,#613,#614);
#531=AXIS2_PLACEMENT_3D('',#765,#616,#617);
#532=AXIS2_PLACEMENT_3D('',#766,#618,#619);
#533=AXIS2_PLACEMENT_3D('',#770,#622,#623);
#534=AXIS2_PLACEMENT_3D('',#774,#626,#627);
#535=AXIS2_PLACEMENT_3D('',#778,#629,#630);
#536=AXIS2_PLACEMENT_3D('',#782,#632,#633);
#537=AXIS2_PLACEMENT_3D('',#786,#635,#636);
#538=AXIS2_PLACEMENT_3D('',#790,#638,#639);
#539=AXIS2_PLACEMENT_3D('',#791,#640,#641);
#540=AXIS2_PLACEMENT_3D('',#795,#643,#644);
#541=AXIS2_PLACEMENT_3D('',#796,#645,#646);
#542=AXIS2_PLACEMENT_3D('',#799,#649,#650);
#543=AXIS2_PLACEMENT_3D('',#800,#651,#652);
#544=AXIS2_PLACEMENT_3D('',#801,#653,#654);
#545=AXIS2_PLACEMENT_3D('',#807,#658,#659);
#546=AXIS2_PLACEMENT_3D('',#813,#663,#664);
#547=AXIS2_PLACEMENT_3D('',#819,#668,#669);
#548=AXIS2_PLACEMENT_3D('',#825,#673,#674);
#549=AXIS2_PLACEMENT_3D('',#826,#675,#676);
#550=AXIS2_PLACEMENT_3D('',#827,#677,#678);
#551=AXIS2_PLACEMENT_3D('',#828,#679,#680);
#552=AXIS2_PLACEMENT_3D('',#829,#681,#682);
#553=AXIS2_PLACEMENT_3D('',#830,#683,#684);
#554=AXIS2_PLACEMENT_3D('',#831,#685,#686);
#555=AXIS2_PLACEMENT_3D('',#832,#687,#688);
#556=AXIS2_PLACEMENT_3D('',#833,#689,#690);
#557=AXIS2_PLACEMENT_3D('',#834,#691,#692);
#558=AXIS2_PLACEMENT_3D('',#835,#693,#694);
#559=AXIS2_PLACEMENT_3D('',#836,#695,#696);
#560=AXIS2_PLACEMENT_3D('',#837,#697,#698);
#561=AXIS2_PLACEMENT_3D('',#838,#699,#700);
#562=DIRECTION('',(0.,0.,1.));
#563=DIRECTION('',(1.,0.,0.));
#564=DIRECTION('',(0.,0.,1.));
#565=DIRECTION('',(1.,0.,0.));
#566=DIRECTION('',(0.,0.,1.));
#567=DIRECTION('',(1.,0.,0.));
#568=DIRECTION('',(0.,0.,1.));
#569=DIRECTION('',(1.,0.,0.));
#570=DIRECTION('',(0.,0.,1.));
#571=DIRECTION('',(1.,0.,0.));
#572=DIRECTION('',(1.,0.,0.));
#573=DIRECTION('',(0.,1.,0.));
#574=DIRECTION('',(-1.,0.,0.));
#575=DIRECTION('',(0.,-1.,0.));
#576=DIRECTION('',(-1.,0.,0.));
#577=DIRECTION('',(0.,1.,0.));
#578=DIRECTION('',(-1.,0.,0.));
#579=DIRECTION('',(0.,0.,-1.));
#580=DIRECTION('',(1.,0.,0.));
#581=DIRECTION('',(0.,1.,0.));
#582=DIRECTION('',(0.,0.,-1.));
#583=DIRECTION('',(1.,0.,0.));
#584=DIRECTION('',(0.,0.,1.));
#585=DIRECTION('',(1.,0.,0.));
#586=DIRECTION('',(0.,0.,1.));
#587=DIRECTION('',(0.,0.,1.));
#588=DIRECTION('',(1.,0.,0.));
#589=DIRECTION('',(0.,-1.,0.));
#590=DIRECTION('',(0.,0.,-1.));
#591=DIRECTION('',(0.,0.,1.));
#592=DIRECTION('',(0.,-1.,0.));
#593=DIRECTION('',(0.,0.,1.));
#594=DIRECTION('',(0.,0.707106781186547,-0.707106781186548));
#595=DIRECTION('',(0.,0.,1.));
#596=DIRECTION('',(0.,-1.,0.));
#597=DIRECTION('',(-1.,0.,0.));
#598=DIRECTION('',(0.,0.,1.));
#599=DIRECTION('',(1.,0.,0.));
#600=DIRECTION('',(0.,0.,1.));
#601=DIRECTION('',(-1.,0.,0.));
#602=DIRECTION('',(0.,1.,0.));
#603=DIRECTION('',(0.,0.,1.));
#604=DIRECTION('',(0.,0.,-1.));
#605=DIRECTION('',(-1.,0.,0.));
#606=DIRECTION('',(0.,0.,-1.));
#607=DIRECTION('',(-1.,0.,0.));
#608=DIRECTION('',(0.,0.,-1.));
#609=DIRECTION('',(-1.,0.,0.));
#610=DIRECTION('',(0.,0.,-1.));
#611=DIRECTION('',(-1.,0.,0.));
#612=DIRECTION('',(0.,1.,0.));
#613=DIRECTION('',(0.,0.,-1.));
#614=DIRECTION('',(-1.,0.,0.));
#615=DIRECTION('',(0.,-0.707106781186547,0.707106781186548));
#616=DIRECTION('',(1.,0.,0.));
#617=DIRECTION('',(0.,0.,-1.));
#618=DIRECTION('',(0.,-0.707106781186548,-0.707106781186547));
#619=DIRECTION('',(1.,0.,0.));
#620=DIRECTION('',(0.,0.,-1.));
#621=DIRECTION('',(-1.,0.,0.));
#622=DIRECTION('',(0.,-1.,0.));
#623=DIRECTION('',(0.,0.,-1.));
#624=DIRECTION('',(1.,0.,0.));
#625=DIRECTION('',(0.,0.,1.));
#626=DIRECTION('',(0.,1.,0.));
#627=DIRECTION('',(0.,0.,1.));
#628=DIRECTION('',(1.,0.,0.));
#629=DIRECTION('',(0.,0.,-1.));
#630=DIRECTION('',(-1.,0.,0.));
#631=DIRECTION('',(0.,-1.,0.));
#632=DIRECTION('',(0.,0.,-1.));
#633=DIRECTION('',(-1.,0.,0.));
#634=DIRECTION('',(-1.,0.,0.));
#635=DIRECTION('',(0.,0.,-1.));
#636=DIRECTION('',(-1.,0.,0.));
#637=DIRECTION('',(0.,1.,0.));
#638=DIRECTION('',(0.,0.,-1.));
#639=DIRECTION('',(-1.,0.,0.));
#640=DIRECTION('',(0.,0.,1.));
#641=DIRECTION('',(-1.,0.,0.));
#642=DIRECTION('',(0.,-1.,0.));
#643=DIRECTION('',(0.,0.,1.));
#644=DIRECTION('',(-1.,0.,0.));
#645=DIRECTION('',(0.,0.,-1.));
#646=DIRECTION('',(-1.,0.,0.));
#647=DIRECTION('',(0.,0.,1.));
#648=DIRECTION('',(0.,0.,-1.));
#649=DIRECTION('',(1.,0.,0.));
#650=DIRECTION('',(0.,0.,-1.));
#651=DIRECTION('',(0.,0.,1.));
#652=DIRECTION('',(1.,0.,0.));
#653=DIRECTION('',(0.,0.,1.));
#654=DIRECTION('',(1.,0.,0.));
#655=DIRECTION('',(0.,0.,-1.));
#656=DIRECTION('',(-1.,0.,0.));
#657=DIRECTION('',(0.,0.,1.));
#658=DIRECTION('',(0.,-1.,0.));
#659=DIRECTION('',(0.,0.,-1.));
#660=DIRECTION('',(0.,0.,-1.));
#661=DIRECTION('',(0.,1.,0.));
#662=DIRECTION('',(0.,0.,1.));
#663=DIRECTION('',(-1.,0.,0.));
#664=DIRECTION('',(0.,0.,1.));
#665=DIRECTION('',(1.,0.,0.));
#666=DIRECTION('',(0.,0.,1.));
#667=DIRECTION('',(0.,0.,-1.));
#668=DIRECTION('',(0.,1.,0.));
#669=DIRECTION('',(0.,0.,1.));
#670=DIRECTION('',(0.,-1.,0.));
#671=DIRECTION('',(0.,0.,1.));
#672=DIRECTION('',(0.,0.,-1.));
#673=DIRECTION('',(1.,0.,0.));
#674=DIRECTION('',(0.,0.,-1.));
#675=DIRECTION('',(0.,0.,1.));
#676=DIRECTION('',(-1.,0.,0.));
#677=DIRECTION('',(0.,0.,1.));
#678=DIRECTION('',(-1.,0.,0.));
#679=DIRECTION('',(0.,0.,1.));
#680=DIRECTION('',(-1.,0.,0.));
#681=DIRECTION('',(0.,0.,1.));
#682=DIRECTION('',(-1.,0.,0.));
#683=DIRECTION('',(0.,0.,-1.));
#684=DIRECTION('',(-1.,0.,0.));
#685=DIRECTION('',(0.,0.,1.));
#686=DIRECTION('',(1.,0.,0.));
#687=DIRECTION('',(0.,0.,1.));
#688=DIRECTION('',(1.,0.,0.));
#689=DIRECTION('',(0.,0.,1.));
#690=DIRECTION('',(1.,0.,0.));
#691=DIRECTION('',(0.,0.,1.));
#692=DIRECTION('',(1.,0.,0.));
#693=DIRECTION('',(0.,0.,-1.));
#694=DIRECTION('',(1.,0.,0.));
#695=DIRECTION('',(0.,0.,-1.));
#696=DIRECTION('',(1.,0.,0.));
#697=DIRECTION('',(0.,0.,-1.));
#698=DIRECTION('',(1.,0.,0.));
#699=DIRECTION('',(0.,0.,-1.));
#700=DIRECTION('',(1.,0.,0.));
#701=CARTESIAN_POINT('',(0.,0.,0.));
#702=CARTESIAN_POINT('',(203.7,207.3,84.7));
#703=CARTESIAN_POINT('',(215.95,207.3,84.7));
#704=CARTESIAN_POINT('',(70.6,207.3,84.7));
#705=CARTESIAN_POINT('',(82.85,207.3,84.7));
#706=CARTESIAN_POINT('',(203.7,71.8,84.7));
#707=CARTESIAN_POINT('',(215.95,71.8,84.7));
#708=CARTESIAN_POINT('',(70.6,71.8,84.7));
#709=CARTESIAN_POINT('',(82.85,71.8,84.7));
#710=CARTESIAN_POINT('',(137.15,26.3,84.7));
#711=CARTESIAN_POINT('',(0.,26.3,84.7));
#712=CARTESIAN_POINT('',(46.7,26.3,84.7));
#713=CARTESIAN_POINT('',(0.,139.55,84.7));
#714=CARTESIAN_POINT('',(0.,0.,84.7));
#715=CARTESIAN_POINT('',(137.15,0.,84.7));
#716=CARTESIAN_POINT('',(274.3,0.,84.7));
#717=CARTESIAN_POINT('',(274.3,139.55,84.7));
#718=CARTESIAN_POINT('',(274.3,268.9,84.7));
#719=CARTESIAN_POINT('',(137.15,268.9,84.7));
#720=CARTESIAN_POINT('',(0.,268.9,84.7));
#721=CARTESIAN_POINT('',(0.,139.55,84.7));
#722=CARTESIAN_POINT('',(0.,106.,84.7));
#723=CARTESIAN_POINT('',(137.15,106.,84.7));
#724=CARTESIAN_POINT('',(46.7,106.,84.7));
#725=CARTESIAN_POINT('',(46.7,102.5,84.7));
#726=CARTESIAN_POINT('',(50.2,102.5,84.7));
#727=CARTESIAN_POINT('',(50.2,139.55,84.7));
#728=CARTESIAN_POINT('',(50.2,29.8,84.7));
#729=CARTESIAN_POINT('',(46.7,29.8,84.7));
#730=CARTESIAN_POINT('',(137.15,139.55,84.7));
#731=CARTESIAN_POINT('',(274.3,0.,0.));
#732=CARTESIAN_POINT('',(274.3,0.,0.));
#733=CARTESIAN_POINT('',(0.,0.,0.));
#734=CARTESIAN_POINT('',(0.,0.,0.));
#735=CARTESIAN_POINT('',(137.15,0.,0.));
#736=CARTESIAN_POINT('',(137.15,0.,0.));
#737=CARTESIAN_POINT('',(0.,26.3,74.));
#738=CARTESIAN_POINT('',(0.,26.3,74.));
#739=CARTESIAN_POINT('',(0.,66.15,74.));
#740=CARTESIAN_POINT('',(0.,106.,74.));
#741=CARTESIAN_POINT('',(0.,106.,74.));
#742=CARTESIAN_POINT('',(0.,246.575,107.025));
#743=CARTESIAN_POINT('',(0.,279.1,74.5));
#744=CARTESIAN_POINT('',(0.,279.1,0.));
#745=CARTESIAN_POINT('',(0.,279.1,0.));
#746=CARTESIAN_POINT('',(0.,139.55,0.));
#747=CARTESIAN_POINT('',(0.,139.55,0.));
#748=CARTESIAN_POINT('',(137.15,279.1,74.5));
#749=CARTESIAN_POINT('',(274.3,279.1,74.5));
#750=CARTESIAN_POINT('',(274.3,279.1,0.));
#751=CARTESIAN_POINT('',(274.3,279.1,0.));
#752=CARTESIAN_POINT('',(137.15,279.1,0.));
#753=CARTESIAN_POINT('',(137.15,279.1,0.));
#754=CARTESIAN_POINT('',(203.7,207.3,0.));
#755=CARTESIAN_POINT('',(191.45,207.3,0.));
#756=CARTESIAN_POINT('',(70.6,207.3,0.));
#757=CARTESIAN_POINT('',(58.35,207.3,0.));
#758=CARTESIAN_POINT('',(203.7,71.8,0.));
#759=CARTESIAN_POINT('',(191.45,71.8,0.));
#760=CARTESIAN_POINT('',(70.6,71.8,0.));
#761=CARTESIAN_POINT('',(58.35,71.8,0.));
#762=CARTESIAN_POINT('',(274.3,139.55,0.));
#763=CARTESIAN_POINT('',(137.15,139.55,0.));
#764=CARTESIAN_POINT('',(274.3,246.575,107.025));
#765=CARTESIAN_POINT('',(274.3,139.55,0.));
#766=CARTESIAN_POINT('',(137.15,279.1,74.5));
#767=CARTESIAN_POINT('',(46.7,26.3,74.));
#768=CARTESIAN_POINT('',(46.7,26.3,74.));
#769=CARTESIAN_POINT('',(25.1,26.3,74.));
#770=CARTESIAN_POINT('',(25.1,26.3,74.));
#771=CARTESIAN_POINT('',(25.1,106.,74.));
#772=CARTESIAN_POINT('',(46.7,106.,74.));
#773=CARTESIAN_POINT('',(46.7,106.,84.7));
#774=CARTESIAN_POINT('',(25.1,106.,74.));
#775=CARTESIAN_POINT('',(25.1,73.8,74.));
#776=CARTESIAN_POINT('',(15.6,73.8,74.));
#777=CARTESIAN_POINT('',(31.6,73.8,74.));
#778=CARTESIAN_POINT('',(31.6,67.1,74.));
#779=CARTESIAN_POINT('',(38.3,67.1,74.));
#780=CARTESIAN_POINT('',(38.3,66.15,74.));
#781=CARTESIAN_POINT('',(38.3,56.3,74.));
#782=CARTESIAN_POINT('',(31.6,56.3,74.));
#783=CARTESIAN_POINT('',(31.6,49.6,74.));
#784=CARTESIAN_POINT('',(25.1,49.6,74.));
#785=CARTESIAN_POINT('',(15.6,49.6,74.));
#786=CARTESIAN_POINT('',(15.6,56.3,74.));
#787=CARTESIAN_POINT('',(8.9,56.3,74.));
#788=CARTESIAN_POINT('',(8.9,66.15,74.));
#789=CARTESIAN_POINT('',(8.9,67.1,74.));
#790=CARTESIAN_POINT('',(15.6,67.1,74.));
#791=CARTESIAN_POINT('',(46.7,29.8,74.));
#792=CARTESIAN_POINT('',(50.2,29.8,74.));
#793=CARTESIAN_POINT('',(50.2,66.15,74.));
#794=CARTESIAN_POINT('',(50.2,102.5,74.));
#795=CARTESIAN_POINT('',(46.7,102.5,74.));
#796=CARTESIAN_POINT('',(25.1,66.15,74.));
#797=CARTESIAN_POINT('',(50.2,29.8,84.7));
#798=CARTESIAN_POINT('',(50.2,102.5,74.));
#799=CARTESIAN_POINT('',(50.2,66.15,74.));
#800=CARTESIAN_POINT('',(46.7,29.8,74.));
#801=CARTESIAN_POINT('',(46.7,102.5,74.));
#802=CARTESIAN_POINT('',(31.6,49.6,50.3));
#803=CARTESIAN_POINT('',(31.6,49.6,50.3));
#804=CARTESIAN_POINT('',(23.6,49.6,50.3));
#805=CARTESIAN_POINT('',(15.6,49.6,50.3));
#806=CARTESIAN_POINT('',(15.6,49.6,74.));
#807=CARTESIAN_POINT('',(23.6,49.6,50.3));
#808=CARTESIAN_POINT('',(8.9,56.3,50.3));
#809=CARTESIAN_POINT('',(8.9,56.3,50.3));
#810=CARTESIAN_POINT('',(8.9,61.7,50.3));
#811=CARTESIAN_POINT('',(8.9,67.1,50.3));
#812=CARTESIAN_POINT('',(8.9,67.1,74.));
#813=CARTESIAN_POINT('',(8.9,61.7,50.3));
#814=CARTESIAN_POINT('',(23.6,73.8,50.3));
#815=CARTESIAN_POINT('',(15.6,73.8,50.3));
#816=CARTESIAN_POINT('',(31.6,73.8,50.3));
#817=CARTESIAN_POINT('',(31.6,73.8,74.));
#818=CARTESIAN_POINT('',(15.6,73.8,50.3));
#819=CARTESIAN_POINT('',(23.6,73.8,50.3));
#820=CARTESIAN_POINT('',(38.3,61.7,50.3));
#821=CARTESIAN_POINT('',(38.3,67.1,50.3));
#822=CARTESIAN_POINT('',(38.3,56.3,50.3));
#823=CARTESIAN_POINT('',(38.3,56.3,74.));
#824=CARTESIAN_POINT('',(38.3,67.1,50.3));
#825=CARTESIAN_POINT('',(38.3,61.7,50.3));
#826=CARTESIAN_POINT('',(31.6,56.3,50.3));
#827=CARTESIAN_POINT('',(31.6,67.1,50.3));
#828=CARTESIAN_POINT('',(15.6,67.1,50.3));
#829=CARTESIAN_POINT('',(15.6,56.3,50.3));
#830=CARTESIAN_POINT('',(23.6,61.7,50.3));
#831=CARTESIAN_POINT('',(31.6,56.3,50.3));
#832=CARTESIAN_POINT('',(31.6,67.1,50.3));
#833=CARTESIAN_POINT('',(15.6,56.3,50.3));
#834=CARTESIAN_POINT('',(15.6,67.1,50.3));
#835=CARTESIAN_POINT('',(70.6,71.8,84.75));
#836=CARTESIAN_POINT('',(203.7,71.8,84.75));
#837=CARTESIAN_POINT('',(70.6,207.3,84.75));
#838=CARTESIAN_POINT('',(203.7,207.3,84.75));
#839=MECHANICAL_DESIGN_GEOMETRIC_PRESENTATION_REPRESENTATION('',(#24),#840);
#840=(
GEOMETRIC_REPRESENTATION_CONTEXT(3)
GLOBAL_UNCERTAINTY_ASSIGNED_CONTEXT((#841))
GLOBAL_UNIT_ASSIGNED_CONTEXT((#847,#843,#842))
REPRESENTATION_CONTEXT('featured_part_03597','TOP_LEVEL_ASSEMBLY_PART')
);
#841=UNCERTAINTY_MEASURE_WITH_UNIT(LENGTH_MEASURE(2.E-5),#847,
'DISTANCE_ACCURACY_VALUE','Maximum Tolerance applied to model');
#842=(
NAMED_UNIT(*)
SI_UNIT($,.STERADIAN.)
SOLID_ANGLE_UNIT()
);
#843=(
CONVERSION_BASED_UNIT('DEGREE',#845)
NAMED_UNIT(#844)
PLANE_ANGLE_UNIT()
);
#844=DIMENSIONAL_EXPONENTS(0.,0.,0.,0.,0.,0.,0.);
#845=PLANE_ANGLE_MEASURE_WITH_UNIT(PLANE_ANGLE_MEASURE(0.0174532925),#846);
#846=(
NAMED_UNIT(*)
PLANE_ANGLE_UNIT()
SI_UNIT($,.RADIAN.)
);
#847=(
LENGTH_UNIT()
NAMED_UNIT(*)
SI_UNIT(.MILLI.,.METRE.)
);
ENDSEC;
END-ISO-10303-21;
