ISO-10303-21;
HEADER;
/* Generated by software containing ST-Developer
 * from STEP Tools, Inc. (www.steptools.com) 
 */
/* OPTION: using custom schema-name function */

FILE_DESCRIPTION(
/* description */ (''),
/* implementation_level */ '2;1');

FILE_NAME(
/* name */ 'featured_part_05397.stp',
/* time_stamp */ '2026-07-09T22:46:12-04:00',
/* author */ (''),
/* organization */ (''),
/* preprocessor_version */ 'ST-DEVELOPER v20.1',
/* originating_system */ 'SIEMENS PLM Software NX2512.6002',
/* authorisation */ '');

FILE_SCHEMA (('AUTOMOTIVE_DESIGN { 1 0 10303 214 3 1 1 1 }'));
ENDSEC;

DATA;
#10=SHAPE_REPRESENTATION_RELATIONSHIP('None',
'relationship between featured_part_05397-None and featured_part_05397
-None',#22,#11);
#11=ADVANCED_BREP_SHAPE_REPRESENTATION('featured_part_05397-None',(#32),
#470);
#12=SHAPE_DEFINITION_REPRESENTATION(#13,#22);
#13=PRODUCT_DEFINITION_SHAPE('','',#14);
#14=PRODUCT_DEFINITION(' ','',#16,#15);
#15=PRODUCT_DEFINITION_CONTEXT('part definition',#21,'design');
#16=PRODUCT_DEFINITION_FORMATION_WITH_SPECIFIED_SOURCE(' ',' ',#18,
 .NOT_KNOWN.);
#17=PRODUCT_RELATED_PRODUCT_CATEGORY('part','',(#18));
#18=PRODUCT('featured_part_05397','featured_part_05397',' ',(#19));
#19=PRODUCT_CONTEXT(' ',#21,'mechanical');
#20=APPLICATION_PROTOCOL_DEFINITION('international standard',
'automotive_design',2010,#21);
#21=APPLICATION_CONTEXT(
'core data for automotive mechanical design processes');
#22=SHAPE_REPRESENTATION('featured_part_05397-None',(#298),#470);
#23=PRESENTATION_LAYER_ASSIGNMENT('1','Layer 1',(#32));
#24=STYLED_ITEM('',(#25),#32);
#25=PRESENTATION_STYLE_ASSIGNMENT((#26));
#26=SURFACE_STYLE_USAGE(.BOTH.,#27);
#27=SURFACE_SIDE_STYLE('',(#28));
#28=SURFACE_STYLE_FILL_AREA(#29);
#29=FILL_AREA_STYLE('',(#30));
#30=FILL_AREA_STYLE_COLOUR('',#31);
#31=COLOUR_RGB('medium steel',0.611764705882353,0.658823529411765,0.670588235294118);
#32=MANIFOLD_SOLID_BREP('',#33);
#33=CLOSED_SHELL('',(#48,#49,#50,#51,#52,#53,#54,#55,#56,#57,#58,#59,#60,
#61));
#34=CYLINDRICAL_SURFACE('',#317,3.8);
#35=CYLINDRICAL_SURFACE('',#318,4.3);
#36=CYLINDRICAL_SURFACE('',#319,7.4);
#37=ELLIPSE('',#311,10.4651803615609,7.4);
#38=FACE_OUTER_BOUND('',#84,.T.);
#39=FACE_OUTER_BOUND('',#85,.T.);
#40=FACE_OUTER_BOUND('',#86,.T.);
#41=FACE_OUTER_BOUND('',#90,.T.);
#42=FACE_OUTER_BOUND('',#91,.T.);
#43=FACE_OUTER_BOUND('',#92,.T.);
#44=FACE_OUTER_BOUND('',#93,.T.);
#45=FACE_OUTER_BOUND('',#94,.T.);
#46=FACE_OUTER_BOUND('',#95,.T.);
#47=FACE_OUTER_BOUND('',#96,.T.);
#48=ADVANCED_FACE('',(#73,#74),#62,.T.);
#49=ADVANCED_FACE('',(#38),#63,.T.);
#50=ADVANCED_FACE('',(#39),#64,.T.);
#51=ADVANCED_FACE('',(#40),#65,.T.);
#52=ADVANCED_FACE('',(#75,#76,#77),#66,.T.);
#53=ADVANCED_FACE('',(#41),#67,.T.);
#54=ADVANCED_FACE('',(#42),#68,.F.);
#55=ADVANCED_FACE('',(#43),#69,.F.);
#56=ADVANCED_FACE('',(#44),#70,.F.);
#57=ADVANCED_FACE('',(#45),#71,.F.);
#58=ADVANCED_FACE('',(#46),#72,.F.);
#59=ADVANCED_FACE('',(#47),#34,.F.);
#60=ADVANCED_FACE('',(#78,#79),#35,.F.);
#61=ADVANCED_FACE('',(#80,#81),#36,.F.);
#62=PLANE('',#302);
#63=PLANE('',#303);
#64=PLANE('',#304);
#65=PLANE('',#305);
#66=PLANE('',#308);
#67=PLANE('',#309);
#68=PLANE('',#310);
#69=PLANE('',#312);
#70=PLANE('',#313);
#71=PLANE('',#314);
#72=PLANE('',#316);
#73=FACE_BOUND('',#82,.T.);
#74=FACE_BOUND('',#83,.T.);
#75=FACE_BOUND('',#87,.T.);
#76=FACE_BOUND('',#88,.T.);
#77=FACE_BOUND('',#89,.T.);
#78=FACE_BOUND('',#97,.T.);
#79=FACE_BOUND('',#98,.T.);
#80=FACE_BOUND('',#99,.T.);
#81=FACE_BOUND('',#100,.T.);
#82=EDGE_LOOP('',(#159,#160,#161,#162,#163,#164,#165,#166,#167));
#83=EDGE_LOOP('',(#168));
#84=EDGE_LOOP('',(#169,#170,#171,#172,#173,#174));
#85=EDGE_LOOP('',(#175,#176,#177,#178,#179,#180));
#86=EDGE_LOOP('',(#181,#182,#183,#184));
#87=EDGE_LOOP('',(#185));
#88=EDGE_LOOP('',(#186));
#89=EDGE_LOOP('',(#187,#188,#189,#190));
#90=EDGE_LOOP('',(#191,#192,#193,#194,#195,#196,#197));
#91=EDGE_LOOP('',(#198,#199,#200,#201));
#92=EDGE_LOOP('',(#202,#203,#204,#205,#206,#207));
#93=EDGE_LOOP('',(#208,#209,#210,#211,#212));
#94=EDGE_LOOP('',(#213,#214,#215,#216));
#95=EDGE_LOOP('',(#217,#218,#219,#220,#221));
#96=EDGE_LOOP('',(#222,#223,#224,#225));
#97=EDGE_LOOP('',(#226));
#98=EDGE_LOOP('',(#227));
#99=EDGE_LOOP('',(#228));
#100=EDGE_LOOP('',(#229,#230));
#101=LINE('',#397,#130);
#102=LINE('',#399,#131);
#103=LINE('',#401,#132);
#104=LINE('',#403,#133);
#105=LINE('',#407,#134);
#106=LINE('',#409,#135);
#107=LINE('',#411,#136);
#108=LINE('',#415,#137);
#109=LINE('',#418,#138);
#110=LINE('',#420,#139);
#111=LINE('',#422,#140);
#112=LINE('',#424,#141);
#113=LINE('',#426,#142);
#114=LINE('',#428,#143);
#115=LINE('',#430,#144);
#116=LINE('',#432,#145);
#117=LINE('',#433,#146);
#118=LINE('',#435,#147);
#119=LINE('',#437,#148);
#120=LINE('',#439,#149);
#121=LINE('',#445,#150);
#122=LINE('',#447,#151);
#123=LINE('',#449,#152);
#124=LINE('',#450,#153);
#125=LINE('',#452,#154);
#126=LINE('',#456,#155);
#127=LINE('',#458,#156);
#128=LINE('',#460,#157);
#129=LINE('',#462,#158);
#130=VECTOR('',#324,1.);
#131=VECTOR('',#325,1.);
#132=VECTOR('',#326,1.);
#133=VECTOR('',#327,1.);
#134=VECTOR('',#330,1.);
#135=VECTOR('',#331,1.);
#136=VECTOR('',#332,1.);
#137=VECTOR('',#337,1.);
#138=VECTOR('',#338,1.);
#139=VECTOR('',#339,1.);
#140=VECTOR('',#340,1.);
#141=VECTOR('',#341,1.);
#142=VECTOR('',#342,1.);
#143=VECTOR('',#345,1.);
#144=VECTOR('',#346,1.);
#145=VECTOR('',#347,1.);
#146=VECTOR('',#348,1.);
#147=VECTOR('',#351,1.);
#148=VECTOR('',#352,1.);
#149=VECTOR('',#353,1.);
#150=VECTOR('',#360,1.);
#151=VECTOR('',#363,1.);
#152=VECTOR('',#364,1.);
#153=VECTOR('',#365,1.);
#154=VECTOR('',#368,1.);
#155=VECTOR('',#375,1.);
#156=VECTOR('',#376,1.);
#157=VECTOR('',#379,1.);
#158=VECTOR('',#380,1.);
#159=ORIENTED_EDGE('',*,*,#256,.F.);
#160=ORIENTED_EDGE('',*,*,#257,.T.);
#161=ORIENTED_EDGE('',*,*,#258,.F.);
#162=ORIENTED_EDGE('',*,*,#259,.T.);
#163=ORIENTED_EDGE('',*,*,#260,.F.);
#164=ORIENTED_EDGE('',*,*,#261,.T.);
#165=ORIENTED_EDGE('',*,*,#262,.F.);
#166=ORIENTED_EDGE('',*,*,#263,.F.);
#167=ORIENTED_EDGE('',*,*,#264,.T.);
#168=ORIENTED_EDGE('',*,*,#265,.F.);
#169=ORIENTED_EDGE('',*,*,#266,.T.);
#170=ORIENTED_EDGE('',*,*,#267,.T.);
#171=ORIENTED_EDGE('',*,*,#268,.F.);
#172=ORIENTED_EDGE('',*,*,#269,.T.);
#173=ORIENTED_EDGE('',*,*,#270,.T.);
#174=ORIENTED_EDGE('',*,*,#271,.F.);
#175=ORIENTED_EDGE('',*,*,#258,.T.);
#176=ORIENTED_EDGE('',*,*,#272,.T.);
#177=ORIENTED_EDGE('',*,*,#273,.F.);
#178=ORIENTED_EDGE('',*,*,#274,.T.);
#179=ORIENTED_EDGE('',*,*,#268,.T.);
#180=ORIENTED_EDGE('',*,*,#275,.T.);
#181=ORIENTED_EDGE('',*,*,#273,.T.);
#182=ORIENTED_EDGE('',*,*,#276,.T.);
#183=ORIENTED_EDGE('',*,*,#277,.F.);
#184=ORIENTED_EDGE('',*,*,#278,.T.);
#185=ORIENTED_EDGE('',*,*,#279,.F.);
#186=ORIENTED_EDGE('',*,*,#280,.F.);
#187=ORIENTED_EDGE('',*,*,#281,.F.);
#188=ORIENTED_EDGE('',*,*,#269,.F.);
#189=ORIENTED_EDGE('',*,*,#274,.F.);
#190=ORIENTED_EDGE('',*,*,#278,.F.);
#191=ORIENTED_EDGE('',*,*,#282,.F.);
#192=ORIENTED_EDGE('',*,*,#283,.F.);
#193=ORIENTED_EDGE('',*,*,#270,.F.);
#194=ORIENTED_EDGE('',*,*,#281,.T.);
#195=ORIENTED_EDGE('',*,*,#277,.T.);
#196=ORIENTED_EDGE('',*,*,#284,.T.);
#197=ORIENTED_EDGE('',*,*,#263,.T.);
#198=ORIENTED_EDGE('',*,*,#285,.F.);
#199=ORIENTED_EDGE('',*,*,#259,.F.);
#200=ORIENTED_EDGE('',*,*,#275,.F.);
#201=ORIENTED_EDGE('',*,*,#267,.F.);
#202=ORIENTED_EDGE('',*,*,#286,.F.);
#203=ORIENTED_EDGE('',*,*,#264,.F.);
#204=ORIENTED_EDGE('',*,*,#284,.F.);
#205=ORIENTED_EDGE('',*,*,#276,.F.);
#206=ORIENTED_EDGE('',*,*,#272,.F.);
#207=ORIENTED_EDGE('',*,*,#257,.F.);
#208=ORIENTED_EDGE('',*,*,#287,.T.);
#209=ORIENTED_EDGE('',*,*,#288,.T.);
#210=ORIENTED_EDGE('',*,*,#260,.T.);
#211=ORIENTED_EDGE('',*,*,#285,.T.);
#212=ORIENTED_EDGE('',*,*,#266,.F.);
#213=ORIENTED_EDGE('',*,*,#262,.T.);
#214=ORIENTED_EDGE('',*,*,#289,.T.);
#215=ORIENTED_EDGE('',*,*,#290,.T.);
#216=ORIENTED_EDGE('',*,*,#282,.T.);
#217=ORIENTED_EDGE('',*,*,#290,.F.);
#218=ORIENTED_EDGE('',*,*,#291,.T.);
#219=ORIENTED_EDGE('',*,*,#287,.F.);
#220=ORIENTED_EDGE('',*,*,#271,.T.);
#221=ORIENTED_EDGE('',*,*,#283,.T.);
#222=ORIENTED_EDGE('',*,*,#261,.F.);
#223=ORIENTED_EDGE('',*,*,#288,.F.);
#224=ORIENTED_EDGE('',*,*,#291,.F.);
#225=ORIENTED_EDGE('',*,*,#289,.F.);
#226=ORIENTED_EDGE('',*,*,#265,.T.);
#227=ORIENTED_EDGE('',*,*,#280,.T.);
#228=ORIENTED_EDGE('',*,*,#279,.T.);
#229=ORIENTED_EDGE('',*,*,#256,.T.);
#230=ORIENTED_EDGE('',*,*,#286,.T.);
#231=VERTEX_POINT('',#395);
#232=VERTEX_POINT('',#396);
#233=VERTEX_POINT('',#398);
#234=VERTEX_POINT('',#400);
#235=VERTEX_POINT('',#402);
#236=VERTEX_POINT('',#404);
#237=VERTEX_POINT('',#406);
#238=VERTEX_POINT('',#408);
#239=VERTEX_POINT('',#410);
#240=VERTEX_POINT('',#413);
#241=VERTEX_POINT('',#416);
#242=VERTEX_POINT('',#417);
#243=VERTEX_POINT('',#419);
#244=VERTEX_POINT('',#421);
#245=VERTEX_POINT('',#423);
#246=VERTEX_POINT('',#425);
#247=VERTEX_POINT('',#429);
#248=VERTEX_POINT('',#431);
#249=VERTEX_POINT('',#436);
#250=VERTEX_POINT('',#438);
#251=VERTEX_POINT('',#442);
#252=VERTEX_POINT('',#444);
#253=VERTEX_POINT('',#448);
#254=VERTEX_POINT('',#457);
#255=VERTEX_POINT('',#461);
#256=EDGE_CURVE('',#231,#232,#292,.T.);
#257=EDGE_CURVE('',#231,#233,#101,.T.);
#258=EDGE_CURVE('',#234,#233,#102,.T.);
#259=EDGE_CURVE('',#234,#235,#103,.T.);
#260=EDGE_CURVE('',#236,#235,#104,.T.);
#261=EDGE_CURVE('',#236,#237,#293,.T.);
#262=EDGE_CURVE('',#238,#237,#105,.T.);
#263=EDGE_CURVE('',#239,#238,#106,.T.);
#264=EDGE_CURVE('',#239,#232,#107,.T.);
#265=EDGE_CURVE('',#240,#240,#294,.T.);
#266=EDGE_CURVE('',#241,#242,#108,.T.);
#267=EDGE_CURVE('',#242,#243,#109,.T.);
#268=EDGE_CURVE('',#244,#243,#110,.T.);
#269=EDGE_CURVE('',#244,#245,#111,.T.);
#270=EDGE_CURVE('',#245,#246,#112,.T.);
#271=EDGE_CURVE('',#241,#246,#113,.T.);
#272=EDGE_CURVE('',#233,#247,#114,.T.);
#273=EDGE_CURVE('',#248,#247,#115,.T.);
#274=EDGE_CURVE('',#248,#244,#116,.T.);
#275=EDGE_CURVE('',#243,#234,#117,.T.);
#276=EDGE_CURVE('',#247,#249,#118,.T.);
#277=EDGE_CURVE('',#250,#249,#119,.T.);
#278=EDGE_CURVE('',#250,#248,#120,.T.);
#279=EDGE_CURVE('',#251,#251,#295,.T.);
#280=EDGE_CURVE('',#252,#252,#296,.T.);
#281=EDGE_CURVE('',#245,#250,#121,.T.);
#282=EDGE_CURVE('',#253,#238,#122,.T.);
#283=EDGE_CURVE('',#246,#253,#123,.T.);
#284=EDGE_CURVE('',#249,#239,#124,.T.);
#285=EDGE_CURVE('',#235,#242,#125,.T.);
#286=EDGE_CURVE('',#232,#231,#37,.T.);
#287=EDGE_CURVE('',#241,#254,#126,.T.);
#288=EDGE_CURVE('',#254,#236,#127,.T.);
#289=EDGE_CURVE('',#237,#255,#128,.T.);
#290=EDGE_CURVE('',#255,#253,#129,.T.);
#291=EDGE_CURVE('',#255,#254,#297,.T.);
#292=CIRCLE('',#299,7.4);
#293=CIRCLE('',#300,3.8);
#294=CIRCLE('',#301,4.3);
#295=CIRCLE('',#306,7.4);
#296=CIRCLE('',#307,4.3);
#297=CIRCLE('',#315,3.8);
#298=AXIS2_PLACEMENT_3D('',#393,#320,#321);
#299=AXIS2_PLACEMENT_3D('',#394,#322,#323);
#300=AXIS2_PLACEMENT_3D('',#405,#328,#329);
#301=AXIS2_PLACEMENT_3D('',#412,#333,#334);
#302=AXIS2_PLACEMENT_3D('',#414,#335,#336);
#303=AXIS2_PLACEMENT_3D('',#427,#343,#344);
#304=AXIS2_PLACEMENT_3D('',#434,#349,#350);
#305=AXIS2_PLACEMENT_3D('',#440,#354,#355);
#306=AXIS2_PLACEMENT_3D('',#441,#356,#357);
#307=AXIS2_PLACEMENT_3D('',#443,#358,#359);
#308=AXIS2_PLACEMENT_3D('',#446,#361,#362);
#309=AXIS2_PLACEMENT_3D('',#451,#366,#367);
#310=AXIS2_PLACEMENT_3D('',#453,#369,#370);
#311=AXIS2_PLACEMENT_3D('',#454,#371,#372);
#312=AXIS2_PLACEMENT_3D('',#455,#373,#374);
#313=AXIS2_PLACEMENT_3D('',#459,#377,#378);
#314=AXIS2_PLACEMENT_3D('',#463,#381,#382);
#315=AXIS2_PLACEMENT_3D('',#464,#383,#384);
#316=AXIS2_PLACEMENT_3D('',#465,#385,#386);
#317=AXIS2_PLACEMENT_3D('',#466,#387,#388);
#318=AXIS2_PLACEMENT_3D('',#467,#389,#390);
#319=AXIS2_PLACEMENT_3D('',#468,#391,#392);
#320=DIRECTION('',(0.,0.,1.));
#321=DIRECTION('',(1.,0.,0.));
#322=DIRECTION('',(0.,0.,1.));
#323=DIRECTION('',(1.,0.,0.));
#324=DIRECTION('',(-1.,0.,0.));
#325=DIRECTION('',(0.,1.,0.));
#326=DIRECTION('',(1.,0.,0.));
#327=DIRECTION('',(0.,-1.,0.));
#328=DIRECTION('',(0.,0.,-1.));
#329=DIRECTION('',(1.00000000000001,0.,0.));
#330=DIRECTION('',(-1.,0.,0.));
#331=DIRECTION('',(0.,-1.,0.));
#332=DIRECTION('',(-1.,0.,0.));
#333=DIRECTION('',(0.,0.,1.));
#334=DIRECTION('',(1.,0.,0.));
#335=DIRECTION('',(0.,0.,1.));
#336=DIRECTION('',(1.,0.,0.));
#337=DIRECTION('',(0.,0.,1.));
#338=DIRECTION('',(-1.,0.,0.));
#339=DIRECTION('',(0.,0.,1.));
#340=DIRECTION('',(1.,0.,0.));
#341=DIRECTION('',(0.,0.,1.));
#342=DIRECTION('',(1.,0.,0.));
#343=DIRECTION('',(0.,-1.,0.));
#344=DIRECTION('',(0.,0.,-1.));
#345=DIRECTION('',(0.,0.707106781186547,-0.707106781186548));
#346=DIRECTION('',(0.,0.,1.));
#347=DIRECTION('',(0.,-1.,0.));
#348=DIRECTION('',(0.,0.707106781186548,0.707106781186548));
#349=DIRECTION('',(-1.,0.,0.));
#350=DIRECTION('',(0.,0.,1.));
#351=DIRECTION('',(1.,0.,0.));
#352=DIRECTION('',(0.,0.,1.));
#353=DIRECTION('',(-1.,0.,0.));
#354=DIRECTION('',(0.,1.,0.));
#355=DIRECTION('',(0.,0.,1.));
#356=DIRECTION('',(0.,0.,-1.));
#357=DIRECTION('',(-1.,0.,0.));
#358=DIRECTION('',(0.,0.,-1.));
#359=DIRECTION('',(-1.,0.,0.));
#360=DIRECTION('',(0.,1.,0.));
#361=DIRECTION('',(0.,0.,-1.));
#362=DIRECTION('',(-1.,0.,0.));
#363=DIRECTION('',(0.,0.,1.));
#364=DIRECTION('',(0.,1.,0.));
#365=DIRECTION('',(0.,-0.707106781186547,0.707106781186548));
#366=DIRECTION('',(1.,0.,0.));
#367=DIRECTION('',(0.,0.,-1.));
#368=DIRECTION('',(0.,-0.707106781186548,-0.707106781186548));
#369=DIRECTION('',(0.,0.707106781186548,-0.707106781186548));
#370=DIRECTION('',(-1.,0.,0.));
#371=DIRECTION('',(0.,0.707106781186548,0.707106781186547));
#372=DIRECTION('',(0.,0.707106781186547,-0.707106781186548));
#373=DIRECTION('',(0.,-0.707106781186548,-0.707106781186547));
#374=DIRECTION('',(1.,0.,0.));
#375=DIRECTION('',(0.,1.,0.));
#376=DIRECTION('',(0.,0.,1.));
#377=DIRECTION('',(-1.,0.,0.));
#378=DIRECTION('',(0.,0.,1.));
#379=DIRECTION('',(0.,0.,-1.));
#380=DIRECTION('',(1.,0.,0.));
#381=DIRECTION('',(0.,1.,0.));
#382=DIRECTION('',(0.,0.,1.));
#383=DIRECTION('',(0.,0.,1.));
#384=DIRECTION('',(-1.00000000000001,0.,0.));
#385=DIRECTION('',(0.,0.,-1.));
#386=DIRECTION('',(-1.,0.,0.));
#387=DIRECTION('',(0.,0.,1.));
#388=DIRECTION('',(1.00000000000001,0.,0.));
#389=DIRECTION('',(0.,0.,-1.));
#390=DIRECTION('',(1.,0.,0.));
#391=DIRECTION('',(0.,0.,-1.));
#392=DIRECTION('',(1.,0.,0.));
#393=CARTESIAN_POINT('',(0.,0.,0.));
#394=CARTESIAN_POINT('',(322.2,426.1,64.1));
#395=CARTESIAN_POINT('',(316.654731746795,431.,64.1));
#396=CARTESIAN_POINT('',(327.745268253205,431.,64.1));
#397=CARTESIAN_POINT('',(204.1,431.,64.1));
#398=CARTESIAN_POINT('',(0.,431.,64.1));
#399=CARTESIAN_POINT('',(0.,221.15,64.1));
#400=CARTESIAN_POINT('',(0.,8.3,64.1));
#401=CARTESIAN_POINT('',(204.1,8.3,64.1));
#402=CARTESIAN_POINT('',(272.9,8.3,64.1));
#403=CARTESIAN_POINT('',(272.9,221.15,64.1));
#404=CARTESIAN_POINT('',(272.9,140.,64.1));
#405=CARTESIAN_POINT('',(276.7,140.,64.1));
#406=CARTESIAN_POINT('',(276.7,143.8,64.1));
#407=CARTESIAN_POINT('',(204.1,143.8,64.1));
#408=CARTESIAN_POINT('',(408.2,143.8,64.1));
#409=CARTESIAN_POINT('',(408.2,221.15,64.1));
#410=CARTESIAN_POINT('',(408.2,431.,64.1));
#411=CARTESIAN_POINT('',(204.1,431.,64.1));
#412=CARTESIAN_POINT('',(60.7,257.4,64.1));
#413=CARTESIAN_POINT('',(65.,257.4,64.1));
#414=CARTESIAN_POINT('',(204.1,221.15,64.1));
#415=CARTESIAN_POINT('',(272.9,0.,46.5));
#416=CARTESIAN_POINT('',(272.9,0.,46.5));
#417=CARTESIAN_POINT('',(272.9,0.,55.8));
#418=CARTESIAN_POINT('',(204.1,0.,55.8));
#419=CARTESIAN_POINT('',(0.,0.,55.8));
#420=CARTESIAN_POINT('',(0.,0.,0.));
#421=CARTESIAN_POINT('',(0.,0.,0.));
#422=CARTESIAN_POINT('',(204.1,0.,0.));
#423=CARTESIAN_POINT('',(408.2,0.,0.));
#424=CARTESIAN_POINT('',(408.2,0.,0.));
#425=CARTESIAN_POINT('',(408.2,0.,46.5));
#426=CARTESIAN_POINT('',(340.55,0.,46.5));
#427=CARTESIAN_POINT('',(204.1,0.,0.));
#428=CARTESIAN_POINT('',(0.,358.125,136.975));
#429=CARTESIAN_POINT('',(0.,442.3,52.8));
#430=CARTESIAN_POINT('',(0.,442.3,0.));
#431=CARTESIAN_POINT('',(0.,442.3,0.));
#432=CARTESIAN_POINT('',(0.,221.15,0.));
#433=CARTESIAN_POINT('',(0.,82.675,138.475));
#434=CARTESIAN_POINT('',(0.,221.15,0.));
#435=CARTESIAN_POINT('',(204.1,442.3,52.8));
#436=CARTESIAN_POINT('',(408.2,442.3,52.8));
#437=CARTESIAN_POINT('',(408.2,442.3,0.));
#438=CARTESIAN_POINT('',(408.2,442.3,0.));
#439=CARTESIAN_POINT('',(204.1,442.3,0.));
#440=CARTESIAN_POINT('',(204.1,442.3,0.));
#441=CARTESIAN_POINT('',(322.2,426.1,0.));
#442=CARTESIAN_POINT('',(314.8,426.1,0.));
#443=CARTESIAN_POINT('',(60.7,257.4,0.));
#444=CARTESIAN_POINT('',(56.4,257.4,0.));
#445=CARTESIAN_POINT('',(408.2,221.15,0.));
#446=CARTESIAN_POINT('',(204.1,221.15,0.));
#447=CARTESIAN_POINT('',(408.2,143.8,46.5));
#448=CARTESIAN_POINT('',(408.2,143.8,46.5));
#449=CARTESIAN_POINT('',(408.2,71.9,46.5));
#450=CARTESIAN_POINT('',(408.2,358.125,136.975));
#451=CARTESIAN_POINT('',(408.2,221.15,0.));
#452=CARTESIAN_POINT('',(272.9,0.,55.8));
#453=CARTESIAN_POINT('',(204.1,0.,55.8));
#454=CARTESIAN_POINT('',(322.2,426.1,69.));
#455=CARTESIAN_POINT('',(204.1,442.3,52.8));
#456=CARTESIAN_POINT('',(272.9,71.9,46.5));
#457=CARTESIAN_POINT('',(272.9,140.,46.5));
#458=CARTESIAN_POINT('',(272.9,140.,64.1));
#459=CARTESIAN_POINT('',(272.9,71.9,46.5));
#460=CARTESIAN_POINT('',(276.7,143.8,46.5));
#461=CARTESIAN_POINT('',(276.7,143.8,46.5));
#462=CARTESIAN_POINT('',(340.55,143.8,46.5));
#463=CARTESIAN_POINT('',(340.55,143.8,46.5));
#464=CARTESIAN_POINT('',(276.7,140.,46.5));
#465=CARTESIAN_POINT('',(340.55,71.9,46.5));
#466=CARTESIAN_POINT('',(276.7,140.,46.5));
#467=CARTESIAN_POINT('',(60.7,257.4,64.15));
#468=CARTESIAN_POINT('',(322.2,426.1,64.15));
#469=MECHANICAL_DESIGN_GEOMETRIC_PRESENTATION_REPRESENTATION('',(#24),#470);
#470=(
GEOMETRIC_REPRESENTATION_CONTEXT(3)
GLOBAL_UNCERTAINTY_ASSIGNED_CONTEXT((#471))
GLOBAL_UNIT_ASSIGNED_CONTEXT((#477,#473,#472))
REPRESENTATION_CONTEXT('featured_part_05397','TOP_LEVEL_ASSEMBLY_PART')
);
#471=UNCERTAINTY_MEASURE_WITH_UNIT(LENGTH_MEASURE(2.E-5),#477,
'DISTANCE_ACCURACY_VALUE','Maximum Tolerance applied to model');
#472=(
NAMED_UNIT(*)
SI_UNIT($,.STERADIAN.)
SOLID_ANGLE_UNIT()
);
#473=(
CONVERSION_BASED_UNIT('DEGREE',#475)
NAMED_UNIT(#474)
PLANE_ANGLE_UNIT()
);
#474=DIMENSIONAL_EXPONENTS(0.,0.,0.,0.,0.,0.,0.);
#475=PLANE_ANGLE_MEASURE_WITH_UNIT(PLANE_ANGLE_MEASURE(0.0174532925),#476);
#476=(
NAMED_UNIT(*)
PLANE_ANGLE_UNIT()
SI_UNIT($,.RADIAN.)
);
#477=(
LENGTH_UNIT()
NAMED_UNIT(*)
SI_UNIT(.MILLI.,.METRE.)
);
ENDSEC;
END-ISO-10303-21;
