ISO-10303-21;
HEADER;
/* Generated by software containing ST-Developer
 * from STEP Tools, Inc. (www.steptools.com) 
 */
/* OPTION: using custom schema-name function */

FILE_DESCRIPTION(
/* description */ (''),
/* implementation_level */ '2;1');

FILE_NAME(
/* name */ 'featured_part_03337.stp',
/* time_stamp */ '2026-07-13T18:40:32-04:00',
/* author */ (''),
/* organization */ (''),
/* preprocessor_version */ 'ST-DEVELOPER v20.1',
/* originating_system */ 'SIEMENS PLM Software NX2512.6002',
/* authorisation */ '');

FILE_SCHEMA (('AUTOMOTIVE_DESIGN { 1 0 10303 214 3 1 1 1 }'));
ENDSEC;

DATA;
#10=SHAPE_REPRESENTATION_RELATIONSHIP('None',
'relationship between featured_part_03337-None and featured_part_03337
-None',#22,#11);
#11=ADVANCED_BREP_SHAPE_REPRESENTATION('featured_part_03337-None',(#32),
#390);
#12=SHAPE_DEFINITION_REPRESENTATION(#13,#22);
#13=PRODUCT_DEFINITION_SHAPE('','',#14);
#14=PRODUCT_DEFINITION(' ','',#16,#15);
#15=PRODUCT_DEFINITION_CONTEXT('part definition',#21,'design');
#16=PRODUCT_DEFINITION_FORMATION_WITH_SPECIFIED_SOURCE(' ',' ',#18,
 .NOT_KNOWN.);
#17=PRODUCT_RELATED_PRODUCT_CATEGORY('part','',(#18));
#18=PRODUCT('featured_part_03337','featured_part_03337',' ',(#19));
#19=PRODUCT_CONTEXT(' ',#21,'mechanical');
#20=APPLICATION_PROTOCOL_DEFINITION('international standard',
'automotive_design',2010,#21);
#21=APPLICATION_CONTEXT(
'core data for automotive mechanical design processes');
#22=SHAPE_REPRESENTATION('featured_part_03337-None',(#247),#390);
#23=PRESENTATION_LAYER_ASSIGNMENT('1','Layer 1',(#32));
#24=STYLED_ITEM('',(#25),#32);
#25=PRESENTATION_STYLE_ASSIGNMENT((#26));
#26=SURFACE_STYLE_USAGE(.BOTH.,#27);
#27=SURFACE_SIDE_STYLE('',(#28));
#28=SURFACE_STYLE_FILL_AREA(#29);
#29=FILL_AREA_STYLE('',(#30));
#30=FILL_AREA_STYLE_COLOUR('',#31);
#31=COLOUR_RGB('medium steel',0.611764705882353,0.658823529411765,0.670588235294118);
#32=MANIFOLD_SOLID_BREP('',#33);
#33=CLOSED_SHELL('',(#44,#45,#46,#47,#48,#49,#50,#51,#52,#53,#54,#55));
#34=CYLINDRICAL_SURFACE('',#264,8.4);
#35=CYLINDRICAL_SURFACE('',#265,14.75);
#36=ELLIPSE('',#257,11.879393923934,8.4);
#37=ELLIPSE('',#260,20.8596500450031,14.75);
#38=FACE_BOUND('',#79,.T.);
#39=FACE_BOUND('',#80,.T.);
#40=FACE_BOUND('',#86,.T.);
#41=FACE_BOUND('',#87,.T.);
#42=FACE_BOUND('',#88,.T.);
#43=FACE_BOUND('',#89,.T.);
#44=ADVANCED_FACE('',(#66),#56,.T.);
#45=ADVANCED_FACE('',(#67),#57,.T.);
#46=ADVANCED_FACE('',(#68),#58,.T.);
#47=ADVANCED_FACE('',(#69),#59,.T.);
#48=ADVANCED_FACE('',(#38,#39),#60,.T.);
#49=ADVANCED_FACE('',(#70),#61,.T.);
#50=ADVANCED_FACE('',(#71),#62,.F.);
#51=ADVANCED_FACE('',(#72),#63,.F.);
#52=ADVANCED_FACE('',(#73),#64,.F.);
#53=ADVANCED_FACE('',(#74),#65,.F.);
#54=ADVANCED_FACE('',(#40,#41),#34,.F.);
#55=ADVANCED_FACE('',(#42,#43),#35,.F.);
#56=PLANE('',#250);
#57=PLANE('',#251);
#58=PLANE('',#252);
#59=PLANE('',#253);
#60=PLANE('',#255);
#61=PLANE('',#256);
#62=PLANE('',#258);
#63=PLANE('',#259);
#64=PLANE('',#261);
#65=PLANE('',#263);
#66=FACE_OUTER_BOUND('',#75,.T.);
#67=FACE_OUTER_BOUND('',#76,.T.);
#68=FACE_OUTER_BOUND('',#77,.T.);
#69=FACE_OUTER_BOUND('',#78,.T.);
#70=FACE_OUTER_BOUND('',#81,.T.);
#71=FACE_OUTER_BOUND('',#82,.T.);
#72=FACE_OUTER_BOUND('',#83,.T.);
#73=FACE_OUTER_BOUND('',#84,.T.);
#74=FACE_OUTER_BOUND('',#85,.T.);
#75=EDGE_LOOP('',(#136,#137,#138,#139,#140,#141,#142,#143));
#76=EDGE_LOOP('',(#144,#145,#146,#147,#148));
#77=EDGE_LOOP('',(#149,#150,#151,#152,#153));
#78=EDGE_LOOP('',(#154,#155,#156,#157));
#79=EDGE_LOOP('',(#158));
#80=EDGE_LOOP('',(#159,#160,#161,#162));
#81=EDGE_LOOP('',(#163,#164,#165,#166,#167,#168));
#82=EDGE_LOOP('',(#169,#170,#171,#172,#173,#174,#175));
#83=EDGE_LOOP('',(#176,#177,#178,#179,#180));
#84=EDGE_LOOP('',(#181,#182,#183,#184,#185,#186));
#85=EDGE_LOOP('',(#187));
#86=EDGE_LOOP('',(#188,#189));
#87=EDGE_LOOP('',(#190));
#88=EDGE_LOOP('',(#191));
#89=EDGE_LOOP('',(#192,#193));
#90=LINE('',#331,#113);
#91=LINE('',#333,#114);
#92=LINE('',#335,#115);
#93=LINE('',#337,#116);
#94=LINE('',#341,#117);
#95=LINE('',#343,#118);
#96=LINE('',#345,#119);
#97=LINE('',#348,#120);
#98=LINE('',#350,#121);
#99=LINE('',#352,#122);
#100=LINE('',#354,#123);
#101=LINE('',#356,#124);
#102=LINE('',#358,#125);
#103=LINE('',#360,#126);
#104=LINE('',#362,#127);
#105=LINE('',#364,#128);
#106=LINE('',#366,#129);
#107=LINE('',#368,#130);
#108=LINE('',#372,#131);
#109=LINE('',#374,#132);
#110=LINE('',#375,#133);
#111=LINE('',#378,#134);
#112=LINE('',#379,#135);
#113=VECTOR('',#270,1.);
#114=VECTOR('',#271,1.);
#115=VECTOR('',#272,1.);
#116=VECTOR('',#273,1.);
#117=VECTOR('',#276,1.);
#118=VECTOR('',#277,1.);
#119=VECTOR('',#280,1.);
#120=VECTOR('',#281,1.);
#121=VECTOR('',#282,1.);
#122=VECTOR('',#283,1.);
#123=VECTOR('',#284,1.);
#124=VECTOR('',#287,1.);
#125=VECTOR('',#288,1.);
#126=VECTOR('',#289,1.);
#127=VECTOR('',#290,1.);
#128=VECTOR('',#293,1.);
#129=VECTOR('',#294,1.);
#130=VECTOR('',#295,1.);
#131=VECTOR('',#300,1.);
#132=VECTOR('',#303,1.);
#133=VECTOR('',#304,1.);
#134=VECTOR('',#309,1.);
#135=VECTOR('',#310,1.);
#136=ORIENTED_EDGE('',*,*,#214,.F.);
#137=ORIENTED_EDGE('',*,*,#215,.T.);
#138=ORIENTED_EDGE('',*,*,#216,.F.);
#139=ORIENTED_EDGE('',*,*,#217,.T.);
#140=ORIENTED_EDGE('',*,*,#218,.T.);
#141=ORIENTED_EDGE('',*,*,#219,.F.);
#142=ORIENTED_EDGE('',*,*,#220,.T.);
#143=ORIENTED_EDGE('',*,*,#221,.T.);
#144=ORIENTED_EDGE('',*,*,#222,.T.);
#145=ORIENTED_EDGE('',*,*,#223,.T.);
#146=ORIENTED_EDGE('',*,*,#224,.T.);
#147=ORIENTED_EDGE('',*,*,#225,.F.);
#148=ORIENTED_EDGE('',*,*,#226,.T.);
#149=ORIENTED_EDGE('',*,*,#227,.T.);
#150=ORIENTED_EDGE('',*,*,#228,.T.);
#151=ORIENTED_EDGE('',*,*,#229,.F.);
#152=ORIENTED_EDGE('',*,*,#230,.T.);
#153=ORIENTED_EDGE('',*,*,#225,.T.);
#154=ORIENTED_EDGE('',*,*,#229,.T.);
#155=ORIENTED_EDGE('',*,*,#231,.T.);
#156=ORIENTED_EDGE('',*,*,#232,.F.);
#157=ORIENTED_EDGE('',*,*,#233,.T.);
#158=ORIENTED_EDGE('',*,*,#234,.F.);
#159=ORIENTED_EDGE('',*,*,#235,.F.);
#160=ORIENTED_EDGE('',*,*,#226,.F.);
#161=ORIENTED_EDGE('',*,*,#230,.F.);
#162=ORIENTED_EDGE('',*,*,#233,.F.);
#163=ORIENTED_EDGE('',*,*,#216,.T.);
#164=ORIENTED_EDGE('',*,*,#236,.T.);
#165=ORIENTED_EDGE('',*,*,#222,.F.);
#166=ORIENTED_EDGE('',*,*,#235,.T.);
#167=ORIENTED_EDGE('',*,*,#232,.T.);
#168=ORIENTED_EDGE('',*,*,#237,.T.);
#169=ORIENTED_EDGE('',*,*,#238,.F.);
#170=ORIENTED_EDGE('',*,*,#218,.F.);
#171=ORIENTED_EDGE('',*,*,#239,.T.);
#172=ORIENTED_EDGE('',*,*,#227,.F.);
#173=ORIENTED_EDGE('',*,*,#224,.F.);
#174=ORIENTED_EDGE('',*,*,#240,.T.);
#175=ORIENTED_EDGE('',*,*,#220,.F.);
#176=ORIENTED_EDGE('',*,*,#239,.F.);
#177=ORIENTED_EDGE('',*,*,#217,.F.);
#178=ORIENTED_EDGE('',*,*,#237,.F.);
#179=ORIENTED_EDGE('',*,*,#231,.F.);
#180=ORIENTED_EDGE('',*,*,#228,.F.);
#181=ORIENTED_EDGE('',*,*,#241,.F.);
#182=ORIENTED_EDGE('',*,*,#221,.F.);
#183=ORIENTED_EDGE('',*,*,#240,.F.);
#184=ORIENTED_EDGE('',*,*,#223,.F.);
#185=ORIENTED_EDGE('',*,*,#236,.F.);
#186=ORIENTED_EDGE('',*,*,#215,.F.);
#187=ORIENTED_EDGE('',*,*,#242,.F.);
#188=ORIENTED_EDGE('',*,*,#219,.T.);
#189=ORIENTED_EDGE('',*,*,#238,.T.);
#190=ORIENTED_EDGE('',*,*,#242,.T.);
#191=ORIENTED_EDGE('',*,*,#234,.T.);
#192=ORIENTED_EDGE('',*,*,#214,.T.);
#193=ORIENTED_EDGE('',*,*,#241,.T.);
#194=VERTEX_POINT('',#329);
#195=VERTEX_POINT('',#330);
#196=VERTEX_POINT('',#332);
#197=VERTEX_POINT('',#334);
#198=VERTEX_POINT('',#336);
#199=VERTEX_POINT('',#338);
#200=VERTEX_POINT('',#340);
#201=VERTEX_POINT('',#342);
#202=VERTEX_POINT('',#346);
#203=VERTEX_POINT('',#347);
#204=VERTEX_POINT('',#349);
#205=VERTEX_POINT('',#351);
#206=VERTEX_POINT('',#353);
#207=VERTEX_POINT('',#357);
#208=VERTEX_POINT('',#359);
#209=VERTEX_POINT('',#361);
#210=VERTEX_POINT('',#365);
#211=VERTEX_POINT('',#367);
#212=VERTEX_POINT('',#371);
#213=VERTEX_POINT('',#385);
#214=EDGE_CURVE('',#194,#195,#243,.T.);
#215=EDGE_CURVE('',#194,#196,#90,.T.);
#216=EDGE_CURVE('',#197,#196,#91,.T.);
#217=EDGE_CURVE('',#197,#198,#92,.T.);
#218=EDGE_CURVE('',#198,#199,#93,.T.);
#219=EDGE_CURVE('',#200,#199,#244,.T.);
#220=EDGE_CURVE('',#200,#201,#94,.T.);
#221=EDGE_CURVE('',#201,#195,#95,.T.);
#222=EDGE_CURVE('',#202,#203,#96,.T.);
#223=EDGE_CURVE('',#203,#204,#97,.T.);
#224=EDGE_CURVE('',#204,#205,#98,.T.);
#225=EDGE_CURVE('',#206,#205,#99,.T.);
#226=EDGE_CURVE('',#206,#202,#100,.T.);
#227=EDGE_CURVE('',#205,#207,#101,.T.);
#228=EDGE_CURVE('',#207,#208,#102,.T.);
#229=EDGE_CURVE('',#209,#208,#103,.T.);
#230=EDGE_CURVE('',#209,#206,#104,.T.);
#231=EDGE_CURVE('',#208,#210,#105,.T.);
#232=EDGE_CURVE('',#211,#210,#106,.T.);
#233=EDGE_CURVE('',#211,#209,#107,.T.);
#234=EDGE_CURVE('',#212,#212,#245,.T.);
#235=EDGE_CURVE('',#202,#211,#108,.T.);
#236=EDGE_CURVE('',#196,#203,#109,.T.);
#237=EDGE_CURVE('',#210,#197,#110,.T.);
#238=EDGE_CURVE('',#199,#200,#36,.T.);
#239=EDGE_CURVE('',#198,#207,#111,.T.);
#240=EDGE_CURVE('',#204,#201,#112,.T.);
#241=EDGE_CURVE('',#195,#194,#37,.T.);
#242=EDGE_CURVE('',#213,#213,#246,.T.);
#243=CIRCLE('',#248,14.75);
#244=CIRCLE('',#249,8.4);
#245=CIRCLE('',#254,14.75);
#246=CIRCLE('',#262,8.4);
#247=AXIS2_PLACEMENT_3D('',#327,#266,#267);
#248=AXIS2_PLACEMENT_3D('',#328,#268,#269);
#249=AXIS2_PLACEMENT_3D('',#339,#274,#275);
#250=AXIS2_PLACEMENT_3D('',#344,#278,#279);
#251=AXIS2_PLACEMENT_3D('',#355,#285,#286);
#252=AXIS2_PLACEMENT_3D('',#363,#291,#292);
#253=AXIS2_PLACEMENT_3D('',#369,#296,#297);
#254=AXIS2_PLACEMENT_3D('',#370,#298,#299);
#255=AXIS2_PLACEMENT_3D('',#373,#301,#302);
#256=AXIS2_PLACEMENT_3D('',#376,#305,#306);
#257=AXIS2_PLACEMENT_3D('',#377,#307,#308);
#258=AXIS2_PLACEMENT_3D('',#380,#311,#312);
#259=AXIS2_PLACEMENT_3D('',#381,#313,#314);
#260=AXIS2_PLACEMENT_3D('',#382,#315,#316);
#261=AXIS2_PLACEMENT_3D('',#383,#317,#318);
#262=AXIS2_PLACEMENT_3D('',#384,#319,#320);
#263=AXIS2_PLACEMENT_3D('',#386,#321,#322);
#264=AXIS2_PLACEMENT_3D('',#387,#323,#324);
#265=AXIS2_PLACEMENT_3D('',#388,#325,#326);
#266=DIRECTION('',(0.,0.,1.));
#267=DIRECTION('',(1.,0.,0.));
#268=DIRECTION('',(0.,0.,1.));
#269=DIRECTION('',(1.,0.,0.));
#270=DIRECTION('',(1.,0.,0.));
#271=DIRECTION('',(0.,-1.,0.));
#272=DIRECTION('',(-1.,0.,0.));
#273=DIRECTION('',(0.,-1.,0.));
#274=DIRECTION('',(0.,0.,1.));
#275=DIRECTION('',(1.,0.,0.));
#276=DIRECTION('',(0.,-1.,0.));
#277=DIRECTION('',(1.,0.,0.));
#278=DIRECTION('',(0.,0.,1.));
#279=DIRECTION('',(1.,0.,0.));
#280=DIRECTION('',(0.,0.,1.));
#281=DIRECTION('',(-1.,0.,0.));
#282=DIRECTION('',(-0.707106781186548,0.,-0.707106781186548));
#283=DIRECTION('',(0.,0.,1.));
#284=DIRECTION('',(1.,0.,0.));
#285=DIRECTION('',(0.,-1.,0.));
#286=DIRECTION('',(0.,0.,-1.));
#287=DIRECTION('',(0.,1.,0.));
#288=DIRECTION('',(0.,0.707106781186547,-0.707106781186548));
#289=DIRECTION('',(0.,0.,1.));
#290=DIRECTION('',(0.,-1.,0.));
#291=DIRECTION('',(-1.,0.,0.));
#292=DIRECTION('',(0.,0.,1.));
#293=DIRECTION('',(1.,0.,0.));
#294=DIRECTION('',(0.,0.,1.));
#295=DIRECTION('',(-1.,0.,0.));
#296=DIRECTION('',(0.,1.,0.));
#297=DIRECTION('',(0.,0.,1.));
#298=DIRECTION('',(0.,0.,-1.));
#299=DIRECTION('',(-1.,0.,0.));
#300=DIRECTION('',(0.,1.,0.));
#301=DIRECTION('',(0.,0.,-1.));
#302=DIRECTION('',(-1.,0.,0.));
#303=DIRECTION('',(0.,-0.707106781186548,-0.707106781186547));
#304=DIRECTION('',(0.,-0.707106781186547,0.707106781186548));
#305=DIRECTION('',(1.,0.,0.));
#306=DIRECTION('',(0.,0.,-1.));
#307=DIRECTION('',(-0.707106781186548,0.,0.707106781186548));
#308=DIRECTION('',(-0.707106781186548,0.,-0.707106781186548));
#309=DIRECTION('',(-0.577350269189626,0.577350269189626,-0.577350269189626));
#310=DIRECTION('',(0.577350269189626,0.577350269189626,0.577350269189625));
#311=DIRECTION('',(0.707106781186548,0.,-0.707106781186548));
#312=DIRECTION('',(0.,1.,0.));
#313=DIRECTION('',(0.,-0.707106781186548,-0.707106781186547));
#314=DIRECTION('',(1.,0.,0.));
#315=DIRECTION('',(0.,-0.707106781186547,0.707106781186548));
#316=DIRECTION('',(0.,-0.707106781186548,-0.707106781186547));
#317=DIRECTION('',(0.,0.707106781186547,-0.707106781186548));
#318=DIRECTION('',(-1.,0.,0.));
#319=DIRECTION('',(0.,0.,-1.));
#320=DIRECTION('',(1.,0.,0.));
#321=DIRECTION('',(0.,0.,-1.));
#322=DIRECTION('',(-1.,0.,0.));
#323=DIRECTION('',(0.,0.,-1.));
#324=DIRECTION('',(1.,0.,0.));
#325=DIRECTION('',(0.,0.,-1.));
#326=DIRECTION('',(1.,0.,0.));
#327=CARTESIAN_POINT('',(0.,0.,0.));
#328=CARTESIAN_POINT('',(31.1,18.8,113.1));
#329=CARTESIAN_POINT('',(40.5801107588467,7.50000000000001,113.1));
#330=CARTESIAN_POINT('',(21.6198892411533,7.50000000000001,113.1));
#331=CARTESIAN_POINT('',(130.05,7.50000000000001,113.1));
#332=CARTESIAN_POINT('',(260.1,7.50000000000001,113.1));
#333=CARTESIAN_POINT('',(260.1,148.95,113.1));
#334=CARTESIAN_POINT('',(260.1,275.6,113.1));
#335=CARTESIAN_POINT('',(130.05,275.6,113.1));
#336=CARTESIAN_POINT('',(7.7,275.6,113.1));
#337=CARTESIAN_POINT('',(7.7,148.95,113.1));
#338=CARTESIAN_POINT('',(7.7,57.5315312023752,113.1));
#339=CARTESIAN_POINT('',(14.5,52.6,113.1));
#340=CARTESIAN_POINT('',(7.7,47.6684687976249,113.1));
#341=CARTESIAN_POINT('',(7.7,148.95,113.1));
#342=CARTESIAN_POINT('',(7.7,7.50000000000001,113.1));
#343=CARTESIAN_POINT('',(130.05,7.50000000000001,113.1));
#344=CARTESIAN_POINT('',(130.05,148.95,113.1));
#345=CARTESIAN_POINT('',(260.1,0.,0.));
#346=CARTESIAN_POINT('',(260.1,0.,0.));
#347=CARTESIAN_POINT('',(260.1,0.,105.6));
#348=CARTESIAN_POINT('',(130.05,0.,105.6));
#349=CARTESIAN_POINT('',(0.200000000000004,0.,105.6));
#350=CARTESIAN_POINT('',(12.325,0.,117.725));
#351=CARTESIAN_POINT('',(0.,0.,105.4));
#352=CARTESIAN_POINT('',(0.,0.,0.));
#353=CARTESIAN_POINT('',(0.,0.,0.));
#354=CARTESIAN_POINT('',(130.05,0.,0.));
#355=CARTESIAN_POINT('',(130.05,0.,0.));
#356=CARTESIAN_POINT('',(0.,148.95,105.4));
#357=CARTESIAN_POINT('',(0.,283.3,105.4));
#358=CARTESIAN_POINT('',(0.,268.825,119.875));
#359=CARTESIAN_POINT('',(0.,297.9,90.8));
#360=CARTESIAN_POINT('',(0.,297.9,0.));
#361=CARTESIAN_POINT('',(0.,297.9,0.));
#362=CARTESIAN_POINT('',(0.,148.95,0.));
#363=CARTESIAN_POINT('',(0.,148.95,0.));
#364=CARTESIAN_POINT('',(130.05,297.9,90.8));
#365=CARTESIAN_POINT('',(260.1,297.9,90.8));
#366=CARTESIAN_POINT('',(260.1,297.9,0.));
#367=CARTESIAN_POINT('',(260.1,297.9,0.));
#368=CARTESIAN_POINT('',(130.05,297.9,0.));
#369=CARTESIAN_POINT('',(130.05,297.9,0.));
#370=CARTESIAN_POINT('',(31.1,18.8,0.));
#371=CARTESIAN_POINT('',(16.35,18.8,0.));
#372=CARTESIAN_POINT('',(260.1,148.95,0.));
#373=CARTESIAN_POINT('',(130.05,148.95,0.));
#374=CARTESIAN_POINT('',(260.1,21.6750000000001,127.275));
#375=CARTESIAN_POINT('',(260.1,268.825,119.875));
#376=CARTESIAN_POINT('',(260.1,148.95,0.));
#377=CARTESIAN_POINT('',(14.5,52.6,119.9));
#378=CARTESIAN_POINT('',(44.7833333333333,238.516666666667,150.183333333333));
#379=CARTESIAN_POINT('',(49.7166666666667,49.5166666666668,155.116666666667));
#380=CARTESIAN_POINT('',(0.,148.95,105.4));
#381=CARTESIAN_POINT('',(130.05,297.9,90.8));
#382=CARTESIAN_POINT('',(31.1,18.8,124.4));
#383=CARTESIAN_POINT('',(130.05,0.,105.6));
#384=CARTESIAN_POINT('',(14.5,52.6,71.1));
#385=CARTESIAN_POINT('',(22.9,52.6,71.1));
#386=CARTESIAN_POINT('',(14.5,52.6,71.1));
#387=CARTESIAN_POINT('',(14.5,52.6,113.15));
#388=CARTESIAN_POINT('',(31.1,18.8,113.15));
#389=MECHANICAL_DESIGN_GEOMETRIC_PRESENTATION_REPRESENTATION('',(#24),#390);
#390=(
GEOMETRIC_REPRESENTATION_CONTEXT(3)
GLOBAL_UNCERTAINTY_ASSIGNED_CONTEXT((#391))
GLOBAL_UNIT_ASSIGNED_CONTEXT((#397,#393,#392))
REPRESENTATION_CONTEXT('featured_part_03337','TOP_LEVEL_ASSEMBLY_PART')
);
#391=UNCERTAINTY_MEASURE_WITH_UNIT(LENGTH_MEASURE(2.E-5),#397,
'DISTANCE_ACCURACY_VALUE','Maximum Tolerance applied to model');
#392=(
NAMED_UNIT(*)
SI_UNIT($,.STERADIAN.)
SOLID_ANGLE_UNIT()
);
#393=(
CONVERSION_BASED_UNIT('DEGREE',#395)
NAMED_UNIT(#394)
PLANE_ANGLE_UNIT()
);
#394=DIMENSIONAL_EXPONENTS(0.,0.,0.,0.,0.,0.,0.);
#395=PLANE_ANGLE_MEASURE_WITH_UNIT(PLANE_ANGLE_MEASURE(0.0174532925),#396);
#396=(
NAMED_UNIT(*)
PLANE_ANGLE_UNIT()
SI_UNIT($,.RADIAN.)
);
#397=(
LENGTH_UNIT()
NAMED_UNIT(*)
SI_UNIT(.MILLI.,.METRE.)
);
ENDSEC;
END-ISO-10303-21;
