ISO-10303-21;
HEADER;
/* Generated by software containing ST-Developer
 * from STEP Tools, Inc. (www.steptools.com) 
 */
/* OPTION: using custom schema-name function */

FILE_DESCRIPTION(
/* description */ (''),
/* implementation_level */ '2;1');

FILE_NAME(
/* name */ 'featured_part_07810.stp',
/* time_stamp */ '2026-07-10T10:25:35-04:00',
/* author */ (''),
/* organization */ (''),
/* preprocessor_version */ 'ST-DEVELOPER v20.1',
/* originating_system */ 'SIEMENS PLM Software NX2512.6002',
/* authorisation */ '');

FILE_SCHEMA (('AUTOMOTIVE_DESIGN { 1 0 10303 214 3 1 1 1 }'));
ENDSEC;

DATA;
#10=SHAPE_REPRESENTATION_RELATIONSHIP('None',
'relationship between featured_part_07810-None and featured_part_07810
-None',#22,#11);
#11=ADVANCED_BREP_SHAPE_REPRESENTATION('featured_part_07810-None',(#32),
#986);
#12=SHAPE_DEFINITION_REPRESENTATION(#13,#22);
#13=PRODUCT_DEFINITION_SHAPE('','',#14);
#14=PRODUCT_DEFINITION(' ','',#16,#15);
#15=PRODUCT_DEFINITION_CONTEXT('part definition',#21,'design');
#16=PRODUCT_DEFINITION_FORMATION_WITH_SPECIFIED_SOURCE(' ',' ',#18,
 .NOT_KNOWN.);
#17=PRODUCT_RELATED_PRODUCT_CATEGORY('part','',(#18));
#18=PRODUCT('featured_part_07810','featured_part_07810',' ',(#19));
#19=PRODUCT_CONTEXT(' ',#21,'mechanical');
#20=APPLICATION_PROTOCOL_DEFINITION('international standard',
'automotive_design',2010,#21);
#21=APPLICATION_CONTEXT(
'core data for automotive mechanical design processes');
#22=SHAPE_REPRESENTATION('featured_part_07810-None',(#623),#986);
#23=PRESENTATION_LAYER_ASSIGNMENT('1','Layer 1',(#32));
#24=STYLED_ITEM('',(#25),#32);
#25=PRESENTATION_STYLE_ASSIGNMENT((#26));
#26=SURFACE_STYLE_USAGE(.BOTH.,#27);
#27=SURFACE_SIDE_STYLE('',(#28));
#28=SURFACE_STYLE_FILL_AREA(#29);
#29=FILL_AREA_STYLE('',(#30));
#30=FILL_AREA_STYLE_COLOUR('',#31);
#31=COLOUR_RGB('medium steel',0.611764705882353,0.658823529411765,0.670588235294118);
#32=MANIFOLD_SOLID_BREP('',#33);
#33=CLOSED_SHELL('',(#52,#53,#54,#55,#56,#57,#58,#59,#60,#61,#62,#63,#64,
#65,#66,#67,#68,#69,#70,#71,#72,#73,#74,#75,#76,#77,#78,#79,#80,#81));
#34=CYLINDRICAL_SURFACE('',#647,7.9);
#35=CYLINDRICAL_SURFACE('',#648,7.9);
#36=CYLINDRICAL_SURFACE('',#657,10.);
#37=CYLINDRICAL_SURFACE('',#661,11.);
#38=FACE_BOUND('',#144,.T.);
#39=FACE_BOUND('',#145,.T.);
#40=FACE_BOUND('',#160,.T.);
#41=FACE_BOUND('',#161,.T.);
#42=FACE_BOUND('',#166,.T.);
#43=FACE_BOUND('',#167,.T.);
#44=CIRCLE('',#629,7.9);
#45=CIRCLE('',#630,7.9);
#46=CIRCLE('',#631,10.);
#47=CIRCLE('',#636,11.);
#48=CIRCLE('',#643,7.9);
#49=CIRCLE('',#644,7.9);
#50=CIRCLE('',#654,11.);
#51=CIRCLE('',#655,10.);
#52=ADVANCED_FACE('',(#108),#82,.F.);
#53=ADVANCED_FACE('',(#109),#83,.T.);
#54=ADVANCED_FACE('',(#110),#84,.F.);
#55=ADVANCED_FACE('',(#111),#85,.T.);
#56=ADVANCED_FACE('',(#112),#86,.F.);
#57=ADVANCED_FACE('',(#113),#87,.T.);
#58=ADVANCED_FACE('',(#114),#88,.T.);
#59=ADVANCED_FACE('',(#115),#89,.T.);
#60=ADVANCED_FACE('',(#116),#90,.T.);
#61=ADVANCED_FACE('',(#38,#39),#91,.T.);
#62=ADVANCED_FACE('',(#117),#92,.T.);
#63=ADVANCED_FACE('',(#118),#93,.F.);
#64=ADVANCED_FACE('',(#119),#94,.F.);
#65=ADVANCED_FACE('',(#120),#95,.F.);
#66=ADVANCED_FACE('',(#121),#96,.F.);
#67=ADVANCED_FACE('',(#122),#97,.F.);
#68=ADVANCED_FACE('',(#123),#98,.F.);
#69=ADVANCED_FACE('',(#124),#34,.F.);
#70=ADVANCED_FACE('',(#125),#35,.F.);
#71=ADVANCED_FACE('',(#126),#99,.F.);
#72=ADVANCED_FACE('',(#127),#100,.F.);
#73=ADVANCED_FACE('',(#128),#101,.F.);
#74=ADVANCED_FACE('',(#129),#102,.F.);
#75=ADVANCED_FACE('',(#130),#103,.F.);
#76=ADVANCED_FACE('',(#40,#41),#104,.F.);
#77=ADVANCED_FACE('',(#131),#36,.F.);
#78=ADVANCED_FACE('',(#132),#105,.F.);
#79=ADVANCED_FACE('',(#133),#106,.F.);
#80=ADVANCED_FACE('',(#134),#107,.F.);
#81=ADVANCED_FACE('',(#42,#43),#37,.F.);
#82=PLANE('',#624);
#83=PLANE('',#625);
#84=PLANE('',#626);
#85=PLANE('',#627);
#86=PLANE('',#628);
#87=PLANE('',#632);
#88=PLANE('',#633);
#89=PLANE('',#634);
#90=PLANE('',#635);
#91=PLANE('',#637);
#92=PLANE('',#638);
#93=PLANE('',#639);
#94=PLANE('',#640);
#95=PLANE('',#641);
#96=PLANE('',#642);
#97=PLANE('',#645);
#98=PLANE('',#646);
#99=PLANE('',#649);
#100=PLANE('',#650);
#101=PLANE('',#651);
#102=PLANE('',#652);
#103=PLANE('',#653);
#104=PLANE('',#656);
#105=PLANE('',#658);
#106=PLANE('',#659);
#107=PLANE('',#660);
#108=FACE_OUTER_BOUND('',#135,.T.);
#109=FACE_OUTER_BOUND('',#136,.T.);
#110=FACE_OUTER_BOUND('',#137,.T.);
#111=FACE_OUTER_BOUND('',#138,.T.);
#112=FACE_OUTER_BOUND('',#139,.T.);
#113=FACE_OUTER_BOUND('',#140,.T.);
#114=FACE_OUTER_BOUND('',#141,.T.);
#115=FACE_OUTER_BOUND('',#142,.T.);
#116=FACE_OUTER_BOUND('',#143,.T.);
#117=FACE_OUTER_BOUND('',#146,.T.);
#118=FACE_OUTER_BOUND('',#147,.T.);
#119=FACE_OUTER_BOUND('',#148,.T.);
#120=FACE_OUTER_BOUND('',#149,.T.);
#121=FACE_OUTER_BOUND('',#150,.T.);
#122=FACE_OUTER_BOUND('',#151,.T.);
#123=FACE_OUTER_BOUND('',#152,.T.);
#124=FACE_OUTER_BOUND('',#153,.T.);
#125=FACE_OUTER_BOUND('',#154,.T.);
#126=FACE_OUTER_BOUND('',#155,.T.);
#127=FACE_OUTER_BOUND('',#156,.T.);
#128=FACE_OUTER_BOUND('',#157,.T.);
#129=FACE_OUTER_BOUND('',#158,.T.);
#130=FACE_OUTER_BOUND('',#159,.T.);
#131=FACE_OUTER_BOUND('',#162,.T.);
#132=FACE_OUTER_BOUND('',#163,.T.);
#133=FACE_OUTER_BOUND('',#164,.T.);
#134=FACE_OUTER_BOUND('',#165,.T.);
#135=EDGE_LOOP('',(#168,#169,#170,#171));
#136=EDGE_LOOP('',(#172,#173,#174,#175));
#137=EDGE_LOOP('',(#176,#177,#178,#179));
#138=EDGE_LOOP('',(#180,#181,#182,#183));
#139=EDGE_LOOP('',(#184,#185,#186,#187));
#140=EDGE_LOOP('',(#188,#189,#190,#191,#192,#193,#194,#195,#196,#197,#198,
#199,#200));
#141=EDGE_LOOP('',(#201,#202,#203,#204,#205,#206,#207,#208,#209,#210,#211,
#212,#213,#214,#215,#216,#217));
#142=EDGE_LOOP('',(#218,#219,#220,#221,#222));
#143=EDGE_LOOP('',(#223,#224,#225,#226,#227,#228,#229,#230,#231,#232,#233,
#234,#235,#236,#237));
#144=EDGE_LOOP('',(#238));
#145=EDGE_LOOP('',(#239,#240,#241,#242));
#146=EDGE_LOOP('',(#243,#244,#245,#246));
#147=EDGE_LOOP('',(#247,#248,#249,#250));
#148=EDGE_LOOP('',(#251,#252,#253,#254,#255,#256,#257));
#149=EDGE_LOOP('',(#258,#259,#260,#261,#262));
#150=EDGE_LOOP('',(#263,#264,#265,#266));
#151=EDGE_LOOP('',(#267,#268,#269,#270,#271,#272));
#152=EDGE_LOOP('',(#273,#274,#275,#276,#277));
#153=EDGE_LOOP('',(#278,#279,#280,#281));
#154=EDGE_LOOP('',(#282,#283,#284,#285));
#155=EDGE_LOOP('',(#286,#287,#288,#289,#290));
#156=EDGE_LOOP('',(#291,#292,#293,#294));
#157=EDGE_LOOP('',(#295,#296,#297,#298,#299));
#158=EDGE_LOOP('',(#300,#301,#302,#303));
#159=EDGE_LOOP('',(#304,#305,#306,#307));
#160=EDGE_LOOP('',(#308));
#161=EDGE_LOOP('',(#309,#310,#311,#312,#313));
#162=EDGE_LOOP('',(#314,#315,#316,#317));
#163=EDGE_LOOP('',(#318,#319,#320,#321,#322));
#164=EDGE_LOOP('',(#323,#324,#325,#326));
#165=EDGE_LOOP('',(#327,#328,#329,#330,#331));
#166=EDGE_LOOP('',(#332));
#167=EDGE_LOOP('',(#333));
#168=ORIENTED_EDGE('',*,*,#390,.F.);
#169=ORIENTED_EDGE('',*,*,#391,.F.);
#170=ORIENTED_EDGE('',*,*,#392,.F.);
#171=ORIENTED_EDGE('',*,*,#393,.F.);
#172=ORIENTED_EDGE('',*,*,#394,.F.);
#173=ORIENTED_EDGE('',*,*,#395,.F.);
#174=ORIENTED_EDGE('',*,*,#396,.F.);
#175=ORIENTED_EDGE('',*,*,#391,.T.);
#176=ORIENTED_EDGE('',*,*,#397,.F.);
#177=ORIENTED_EDGE('',*,*,#398,.F.);
#178=ORIENTED_EDGE('',*,*,#399,.F.);
#179=ORIENTED_EDGE('',*,*,#400,.F.);
#180=ORIENTED_EDGE('',*,*,#401,.F.);
#181=ORIENTED_EDGE('',*,*,#402,.F.);
#182=ORIENTED_EDGE('',*,*,#403,.F.);
#183=ORIENTED_EDGE('',*,*,#398,.T.);
#184=ORIENTED_EDGE('',*,*,#404,.F.);
#185=ORIENTED_EDGE('',*,*,#405,.F.);
#186=ORIENTED_EDGE('',*,*,#406,.F.);
#187=ORIENTED_EDGE('',*,*,#407,.F.);
#188=ORIENTED_EDGE('',*,*,#408,.F.);
#189=ORIENTED_EDGE('',*,*,#407,.T.);
#190=ORIENTED_EDGE('',*,*,#409,.F.);
#191=ORIENTED_EDGE('',*,*,#410,.T.);
#192=ORIENTED_EDGE('',*,*,#411,.F.);
#193=ORIENTED_EDGE('',*,*,#412,.T.);
#194=ORIENTED_EDGE('',*,*,#413,.F.);
#195=ORIENTED_EDGE('',*,*,#414,.T.);
#196=ORIENTED_EDGE('',*,*,#415,.T.);
#197=ORIENTED_EDGE('',*,*,#416,.F.);
#198=ORIENTED_EDGE('',*,*,#417,.T.);
#199=ORIENTED_EDGE('',*,*,#418,.F.);
#200=ORIENTED_EDGE('',*,*,#419,.F.);
#201=ORIENTED_EDGE('',*,*,#420,.F.);
#202=ORIENTED_EDGE('',*,*,#393,.T.);
#203=ORIENTED_EDGE('',*,*,#421,.F.);
#204=ORIENTED_EDGE('',*,*,#422,.F.);
#205=ORIENTED_EDGE('',*,*,#423,.F.);
#206=ORIENTED_EDGE('',*,*,#400,.T.);
#207=ORIENTED_EDGE('',*,*,#424,.F.);
#208=ORIENTED_EDGE('',*,*,#425,.T.);
#209=ORIENTED_EDGE('',*,*,#426,.T.);
#210=ORIENTED_EDGE('',*,*,#427,.T.);
#211=ORIENTED_EDGE('',*,*,#428,.T.);
#212=ORIENTED_EDGE('',*,*,#429,.F.);
#213=ORIENTED_EDGE('',*,*,#430,.F.);
#214=ORIENTED_EDGE('',*,*,#431,.T.);
#215=ORIENTED_EDGE('',*,*,#405,.T.);
#216=ORIENTED_EDGE('',*,*,#432,.F.);
#217=ORIENTED_EDGE('',*,*,#433,.F.);
#218=ORIENTED_EDGE('',*,*,#424,.T.);
#219=ORIENTED_EDGE('',*,*,#399,.T.);
#220=ORIENTED_EDGE('',*,*,#403,.T.);
#221=ORIENTED_EDGE('',*,*,#434,.F.);
#222=ORIENTED_EDGE('',*,*,#435,.T.);
#223=ORIENTED_EDGE('',*,*,#436,.F.);
#224=ORIENTED_EDGE('',*,*,#437,.F.);
#225=ORIENTED_EDGE('',*,*,#438,.F.);
#226=ORIENTED_EDGE('',*,*,#419,.T.);
#227=ORIENTED_EDGE('',*,*,#439,.F.);
#228=ORIENTED_EDGE('',*,*,#440,.F.);
#229=ORIENTED_EDGE('',*,*,#441,.T.);
#230=ORIENTED_EDGE('',*,*,#442,.F.);
#231=ORIENTED_EDGE('',*,*,#443,.T.);
#232=ORIENTED_EDGE('',*,*,#434,.T.);
#233=ORIENTED_EDGE('',*,*,#402,.T.);
#234=ORIENTED_EDGE('',*,*,#444,.F.);
#235=ORIENTED_EDGE('',*,*,#445,.F.);
#236=ORIENTED_EDGE('',*,*,#446,.F.);
#237=ORIENTED_EDGE('',*,*,#395,.T.);
#238=ORIENTED_EDGE('',*,*,#447,.F.);
#239=ORIENTED_EDGE('',*,*,#448,.F.);
#240=ORIENTED_EDGE('',*,*,#425,.F.);
#241=ORIENTED_EDGE('',*,*,#435,.F.);
#242=ORIENTED_EDGE('',*,*,#443,.F.);
#243=ORIENTED_EDGE('',*,*,#442,.T.);
#244=ORIENTED_EDGE('',*,*,#449,.T.);
#245=ORIENTED_EDGE('',*,*,#426,.F.);
#246=ORIENTED_EDGE('',*,*,#448,.T.);
#247=ORIENTED_EDGE('',*,*,#450,.F.);
#248=ORIENTED_EDGE('',*,*,#428,.F.);
#249=ORIENTED_EDGE('',*,*,#451,.T.);
#250=ORIENTED_EDGE('',*,*,#414,.F.);
#251=ORIENTED_EDGE('',*,*,#452,.F.);
#252=ORIENTED_EDGE('',*,*,#415,.F.);
#253=ORIENTED_EDGE('',*,*,#451,.F.);
#254=ORIENTED_EDGE('',*,*,#427,.F.);
#255=ORIENTED_EDGE('',*,*,#449,.F.);
#256=ORIENTED_EDGE('',*,*,#441,.F.);
#257=ORIENTED_EDGE('',*,*,#453,.F.);
#258=ORIENTED_EDGE('',*,*,#454,.T.);
#259=ORIENTED_EDGE('',*,*,#455,.T.);
#260=ORIENTED_EDGE('',*,*,#409,.T.);
#261=ORIENTED_EDGE('',*,*,#406,.T.);
#262=ORIENTED_EDGE('',*,*,#431,.F.);
#263=ORIENTED_EDGE('',*,*,#411,.T.);
#264=ORIENTED_EDGE('',*,*,#456,.T.);
#265=ORIENTED_EDGE('',*,*,#457,.T.);
#266=ORIENTED_EDGE('',*,*,#458,.T.);
#267=ORIENTED_EDGE('',*,*,#457,.F.);
#268=ORIENTED_EDGE('',*,*,#459,.T.);
#269=ORIENTED_EDGE('',*,*,#454,.F.);
#270=ORIENTED_EDGE('',*,*,#430,.T.);
#271=ORIENTED_EDGE('',*,*,#460,.F.);
#272=ORIENTED_EDGE('',*,*,#461,.T.);
#273=ORIENTED_EDGE('',*,*,#413,.T.);
#274=ORIENTED_EDGE('',*,*,#462,.T.);
#275=ORIENTED_EDGE('',*,*,#460,.T.);
#276=ORIENTED_EDGE('',*,*,#429,.T.);
#277=ORIENTED_EDGE('',*,*,#450,.T.);
#278=ORIENTED_EDGE('',*,*,#410,.F.);
#279=ORIENTED_EDGE('',*,*,#455,.F.);
#280=ORIENTED_EDGE('',*,*,#459,.F.);
#281=ORIENTED_EDGE('',*,*,#456,.F.);
#282=ORIENTED_EDGE('',*,*,#412,.F.);
#283=ORIENTED_EDGE('',*,*,#458,.F.);
#284=ORIENTED_EDGE('',*,*,#461,.F.);
#285=ORIENTED_EDGE('',*,*,#462,.F.);
#286=ORIENTED_EDGE('',*,*,#423,.T.);
#287=ORIENTED_EDGE('',*,*,#463,.T.);
#288=ORIENTED_EDGE('',*,*,#444,.T.);
#289=ORIENTED_EDGE('',*,*,#401,.T.);
#290=ORIENTED_EDGE('',*,*,#397,.T.);
#291=ORIENTED_EDGE('',*,*,#422,.T.);
#292=ORIENTED_EDGE('',*,*,#464,.F.);
#293=ORIENTED_EDGE('',*,*,#445,.T.);
#294=ORIENTED_EDGE('',*,*,#463,.F.);
#295=ORIENTED_EDGE('',*,*,#421,.T.);
#296=ORIENTED_EDGE('',*,*,#392,.T.);
#297=ORIENTED_EDGE('',*,*,#396,.T.);
#298=ORIENTED_EDGE('',*,*,#446,.T.);
#299=ORIENTED_EDGE('',*,*,#464,.T.);
#300=ORIENTED_EDGE('',*,*,#465,.T.);
#301=ORIENTED_EDGE('',*,*,#466,.T.);
#302=ORIENTED_EDGE('',*,*,#416,.T.);
#303=ORIENTED_EDGE('',*,*,#452,.T.);
#304=ORIENTED_EDGE('',*,*,#418,.T.);
#305=ORIENTED_EDGE('',*,*,#467,.T.);
#306=ORIENTED_EDGE('',*,*,#468,.T.);
#307=ORIENTED_EDGE('',*,*,#439,.T.);
#308=ORIENTED_EDGE('',*,*,#469,.T.);
#309=ORIENTED_EDGE('',*,*,#468,.F.);
#310=ORIENTED_EDGE('',*,*,#470,.T.);
#311=ORIENTED_EDGE('',*,*,#465,.F.);
#312=ORIENTED_EDGE('',*,*,#453,.T.);
#313=ORIENTED_EDGE('',*,*,#440,.T.);
#314=ORIENTED_EDGE('',*,*,#417,.F.);
#315=ORIENTED_EDGE('',*,*,#466,.F.);
#316=ORIENTED_EDGE('',*,*,#470,.F.);
#317=ORIENTED_EDGE('',*,*,#467,.F.);
#318=ORIENTED_EDGE('',*,*,#420,.T.);
#319=ORIENTED_EDGE('',*,*,#471,.T.);
#320=ORIENTED_EDGE('',*,*,#436,.T.);
#321=ORIENTED_EDGE('',*,*,#394,.T.);
#322=ORIENTED_EDGE('',*,*,#390,.T.);
#323=ORIENTED_EDGE('',*,*,#433,.T.);
#324=ORIENTED_EDGE('',*,*,#472,.F.);
#325=ORIENTED_EDGE('',*,*,#437,.T.);
#326=ORIENTED_EDGE('',*,*,#471,.F.);
#327=ORIENTED_EDGE('',*,*,#432,.T.);
#328=ORIENTED_EDGE('',*,*,#404,.T.);
#329=ORIENTED_EDGE('',*,*,#408,.T.);
#330=ORIENTED_EDGE('',*,*,#438,.T.);
#331=ORIENTED_EDGE('',*,*,#472,.T.);
#332=ORIENTED_EDGE('',*,*,#447,.T.);
#333=ORIENTED_EDGE('',*,*,#469,.F.);
#334=VERTEX_POINT('',#817);
#335=VERTEX_POINT('',#818);
#336=VERTEX_POINT('',#820);
#337=VERTEX_POINT('',#822);
#338=VERTEX_POINT('',#826);
#339=VERTEX_POINT('',#828);
#340=VERTEX_POINT('',#832);
#341=VERTEX_POINT('',#833);
#342=VERTEX_POINT('',#835);
#343=VERTEX_POINT('',#837);
#344=VERTEX_POINT('',#841);
#345=VERTEX_POINT('',#843);
#346=VERTEX_POINT('',#847);
#347=VERTEX_POINT('',#848);
#348=VERTEX_POINT('',#850);
#349=VERTEX_POINT('',#852);
#350=VERTEX_POINT('',#856);
#351=VERTEX_POINT('',#858);
#352=VERTEX_POINT('',#860);
#353=VERTEX_POINT('',#862);
#354=VERTEX_POINT('',#864);
#355=VERTEX_POINT('',#866);
#356=VERTEX_POINT('',#868);
#357=VERTEX_POINT('',#870);
#358=VERTEX_POINT('',#872);
#359=VERTEX_POINT('',#874);
#360=VERTEX_POINT('',#876);
#361=VERTEX_POINT('',#880);
#362=VERTEX_POINT('',#882);
#363=VERTEX_POINT('',#884);
#364=VERTEX_POINT('',#887);
#365=VERTEX_POINT('',#889);
#366=VERTEX_POINT('',#891);
#367=VERTEX_POINT('',#893);
#368=VERTEX_POINT('',#895);
#369=VERTEX_POINT('',#897);
#370=VERTEX_POINT('',#899);
#371=VERTEX_POINT('',#902);
#372=VERTEX_POINT('',#906);
#373=VERTEX_POINT('',#910);
#374=VERTEX_POINT('',#912);
#375=VERTEX_POINT('',#915);
#376=VERTEX_POINT('',#917);
#377=VERTEX_POINT('',#919);
#378=VERTEX_POINT('',#921);
#379=VERTEX_POINT('',#924);
#380=VERTEX_POINT('',#926);
#381=VERTEX_POINT('',#930);
#382=VERTEX_POINT('',#939);
#383=VERTEX_POINT('',#943);
#384=VERTEX_POINT('',#947);
#385=VERTEX_POINT('',#949);
#386=VERTEX_POINT('',#954);
#387=VERTEX_POINT('',#967);
#388=VERTEX_POINT('',#971);
#389=VERTEX_POINT('',#975);
#390=EDGE_CURVE('',#334,#335,#473,.T.);
#391=EDGE_CURVE('',#336,#334,#474,.T.);
#392=EDGE_CURVE('',#337,#336,#475,.T.);
#393=EDGE_CURVE('',#335,#337,#476,.T.);
#394=EDGE_CURVE('',#338,#334,#477,.T.);
#395=EDGE_CURVE('',#339,#338,#478,.T.);
#396=EDGE_CURVE('',#336,#339,#479,.T.);
#397=EDGE_CURVE('',#340,#341,#480,.T.);
#398=EDGE_CURVE('',#342,#340,#481,.T.);
#399=EDGE_CURVE('',#343,#342,#482,.T.);
#400=EDGE_CURVE('',#341,#343,#483,.T.);
#401=EDGE_CURVE('',#344,#340,#484,.T.);
#402=EDGE_CURVE('',#345,#344,#485,.T.);
#403=EDGE_CURVE('',#342,#345,#486,.T.);
#404=EDGE_CURVE('',#346,#347,#487,.T.);
#405=EDGE_CURVE('',#348,#346,#488,.T.);
#406=EDGE_CURVE('',#349,#348,#489,.T.);
#407=EDGE_CURVE('',#347,#349,#490,.T.);
#408=EDGE_CURVE('',#347,#350,#491,.T.);
#409=EDGE_CURVE('',#351,#349,#492,.T.);
#410=EDGE_CURVE('',#351,#352,#44,.T.);
#411=EDGE_CURVE('',#353,#352,#493,.T.);
#412=EDGE_CURVE('',#353,#354,#45,.T.);
#413=EDGE_CURVE('',#355,#354,#494,.T.);
#414=EDGE_CURVE('',#355,#356,#495,.T.);
#415=EDGE_CURVE('',#356,#357,#496,.T.);
#416=EDGE_CURVE('',#358,#357,#497,.T.);
#417=EDGE_CURVE('',#358,#359,#46,.T.);
#418=EDGE_CURVE('',#360,#359,#498,.T.);
#419=EDGE_CURVE('',#350,#360,#499,.T.);
#420=EDGE_CURVE('',#335,#361,#500,.T.);
#421=EDGE_CURVE('',#362,#337,#501,.T.);
#422=EDGE_CURVE('',#363,#362,#502,.T.);
#423=EDGE_CURVE('',#341,#363,#503,.T.);
#424=EDGE_CURVE('',#364,#343,#504,.T.);
#425=EDGE_CURVE('',#364,#365,#505,.T.);
#426=EDGE_CURVE('',#365,#366,#506,.T.);
#427=EDGE_CURVE('',#366,#367,#507,.T.);
#428=EDGE_CURVE('',#367,#368,#508,.T.);
#429=EDGE_CURVE('',#369,#368,#509,.T.);
#430=EDGE_CURVE('',#370,#369,#510,.T.);
#431=EDGE_CURVE('',#370,#348,#511,.T.);
#432=EDGE_CURVE('',#371,#346,#512,.T.);
#433=EDGE_CURVE('',#361,#371,#513,.T.);
#434=EDGE_CURVE('',#372,#345,#514,.T.);
#435=EDGE_CURVE('',#372,#364,#515,.T.);
#436=EDGE_CURVE('',#373,#338,#516,.T.);
#437=EDGE_CURVE('',#374,#373,#517,.T.);
#438=EDGE_CURVE('',#350,#374,#518,.T.);
#439=EDGE_CURVE('',#375,#360,#519,.T.);
#440=EDGE_CURVE('',#376,#375,#520,.T.);
#441=EDGE_CURVE('',#376,#377,#521,.T.);
#442=EDGE_CURVE('',#378,#377,#522,.T.);
#443=EDGE_CURVE('',#378,#372,#523,.T.);
#444=EDGE_CURVE('',#379,#344,#524,.T.);
#445=EDGE_CURVE('',#380,#379,#525,.T.);
#446=EDGE_CURVE('',#339,#380,#526,.T.);
#447=EDGE_CURVE('',#381,#381,#47,.T.);
#448=EDGE_CURVE('',#365,#378,#527,.T.);
#449=EDGE_CURVE('',#377,#366,#528,.T.);
#450=EDGE_CURVE('',#368,#355,#529,.T.);
#451=EDGE_CURVE('',#367,#356,#530,.T.);
#452=EDGE_CURVE('',#357,#382,#531,.T.);
#453=EDGE_CURVE('',#382,#376,#532,.T.);
#454=EDGE_CURVE('',#370,#383,#533,.T.);
#455=EDGE_CURVE('',#383,#351,#534,.T.);
#456=EDGE_CURVE('',#352,#384,#535,.T.);
#457=EDGE_CURVE('',#384,#385,#536,.T.);
#458=EDGE_CURVE('',#385,#353,#537,.T.);
#459=EDGE_CURVE('',#384,#383,#48,.T.);
#460=EDGE_CURVE('',#386,#369,#538,.T.);
#461=EDGE_CURVE('',#386,#385,#49,.T.);
#462=EDGE_CURVE('',#354,#386,#539,.T.);
#463=EDGE_CURVE('',#363,#379,#540,.T.);
#464=EDGE_CURVE('',#380,#362,#541,.T.);
#465=EDGE_CURVE('',#382,#387,#542,.T.);
#466=EDGE_CURVE('',#387,#358,#543,.T.);
#467=EDGE_CURVE('',#359,#388,#544,.T.);
#468=EDGE_CURVE('',#388,#375,#545,.T.);
#469=EDGE_CURVE('',#389,#389,#50,.T.);
#470=EDGE_CURVE('',#388,#387,#51,.T.);
#471=EDGE_CURVE('',#361,#373,#546,.T.);
#472=EDGE_CURVE('',#374,#371,#547,.T.);
#473=LINE('',#816,#548);
#474=LINE('',#819,#549);
#475=LINE('',#821,#550);
#476=LINE('',#823,#551);
#477=LINE('',#825,#552);
#478=LINE('',#827,#553);
#479=LINE('',#829,#554);
#480=LINE('',#831,#555);
#481=LINE('',#834,#556);
#482=LINE('',#836,#557);
#483=LINE('',#838,#558);
#484=LINE('',#840,#559);
#485=LINE('',#842,#560);
#486=LINE('',#844,#561);
#487=LINE('',#846,#562);
#488=LINE('',#849,#563);
#489=LINE('',#851,#564);
#490=LINE('',#853,#565);
#491=LINE('',#855,#566);
#492=LINE('',#857,#567);
#493=LINE('',#861,#568);
#494=LINE('',#865,#569);
#495=LINE('',#867,#570);
#496=LINE('',#869,#571);
#497=LINE('',#871,#572);
#498=LINE('',#875,#573);
#499=LINE('',#877,#574);
#500=LINE('',#879,#575);
#501=LINE('',#881,#576);
#502=LINE('',#883,#577);
#503=LINE('',#885,#578);
#504=LINE('',#886,#579);
#505=LINE('',#888,#580);
#506=LINE('',#890,#581);
#507=LINE('',#892,#582);
#508=LINE('',#894,#583);
#509=LINE('',#896,#584);
#510=LINE('',#898,#585);
#511=LINE('',#900,#586);
#512=LINE('',#901,#587);
#513=LINE('',#903,#588);
#514=LINE('',#905,#589);
#515=LINE('',#907,#590);
#516=LINE('',#909,#591);
#517=LINE('',#911,#592);
#518=LINE('',#913,#593);
#519=LINE('',#914,#594);
#520=LINE('',#916,#595);
#521=LINE('',#918,#596);
#522=LINE('',#920,#597);
#523=LINE('',#922,#598);
#524=LINE('',#923,#599);
#525=LINE('',#925,#600);
#526=LINE('',#927,#601);
#527=LINE('',#931,#602);
#528=LINE('',#933,#603);
#529=LINE('',#935,#604);
#530=LINE('',#936,#605);
#531=LINE('',#938,#606);
#532=LINE('',#940,#607);
#533=LINE('',#942,#608);
#534=LINE('',#944,#609);
#535=LINE('',#946,#610);
#536=LINE('',#948,#611);
#537=LINE('',#950,#612);
#538=LINE('',#953,#613);
#539=LINE('',#957,#614);
#540=LINE('',#961,#615);
#541=LINE('',#963,#616);
#542=LINE('',#966,#617);
#543=LINE('',#968,#618);
#544=LINE('',#970,#619);
#545=LINE('',#972,#620);
#546=LINE('',#979,#621);
#547=LINE('',#981,#622);
#548=VECTOR('',#664,1.);
#549=VECTOR('',#665,1.);
#550=VECTOR('',#666,1.);
#551=VECTOR('',#667,1.);
#552=VECTOR('',#670,1.);
#553=VECTOR('',#671,1.);
#554=VECTOR('',#672,1.);
#555=VECTOR('',#675,1.);
#556=VECTOR('',#676,1.);
#557=VECTOR('',#677,1.);
#558=VECTOR('',#678,1.);
#559=VECTOR('',#681,1.);
#560=VECTOR('',#682,1.);
#561=VECTOR('',#683,1.);
#562=VECTOR('',#686,1.);
#563=VECTOR('',#687,1.);
#564=VECTOR('',#688,1.);
#565=VECTOR('',#689,1.);
#566=VECTOR('',#692,1.);
#567=VECTOR('',#693,1.);
#568=VECTOR('',#696,1.);
#569=VECTOR('',#699,1.);
#570=VECTOR('',#700,1.);
#571=VECTOR('',#701,1.);
#572=VECTOR('',#702,1.);
#573=VECTOR('',#705,1.);
#574=VECTOR('',#706,1.);
#575=VECTOR('',#709,1.);
#576=VECTOR('',#710,1.);
#577=VECTOR('',#711,1.);
#578=VECTOR('',#712,1.);
#579=VECTOR('',#713,1.);
#580=VECTOR('',#714,1.);
#581=VECTOR('',#715,1.);
#582=VECTOR('',#716,1.);
#583=VECTOR('',#717,1.);
#584=VECTOR('',#718,1.);
#585=VECTOR('',#719,1.);
#586=VECTOR('',#720,1.);
#587=VECTOR('',#721,1.);
#588=VECTOR('',#722,1.);
#589=VECTOR('',#725,1.);
#590=VECTOR('',#726,1.);
#591=VECTOR('',#729,1.);
#592=VECTOR('',#730,1.);
#593=VECTOR('',#731,1.);
#594=VECTOR('',#732,1.);
#595=VECTOR('',#733,1.);
#596=VECTOR('',#734,1.);
#597=VECTOR('',#735,1.);
#598=VECTOR('',#736,1.);
#599=VECTOR('',#737,1.);
#600=VECTOR('',#738,1.);
#601=VECTOR('',#739,1.);
#602=VECTOR('',#744,1.);
#603=VECTOR('',#747,1.);
#604=VECTOR('',#750,1.);
#605=VECTOR('',#751,1.);
#606=VECTOR('',#754,1.);
#607=VECTOR('',#755,1.);
#608=VECTOR('',#758,1.);
#609=VECTOR('',#759,1.);
#610=VECTOR('',#762,1.);
#611=VECTOR('',#763,1.);
#612=VECTOR('',#764,1.);
#613=VECTOR('',#769,1.);
#614=VECTOR('',#774,1.);
#615=VECTOR('',#781,1.);
#616=VECTOR('',#784,1.);
#617=VECTOR('',#789,1.);
#618=VECTOR('',#790,1.);
#619=VECTOR('',#793,1.);
#620=VECTOR('',#794,1.);
#621=VECTOR('',#805,1.);
#622=VECTOR('',#808,1.);
#623=AXIS2_PLACEMENT_3D('',#815,#662,#663);
#624=AXIS2_PLACEMENT_3D('',#824,#668,#669);
#625=AXIS2_PLACEMENT_3D('',#830,#673,#674);
#626=AXIS2_PLACEMENT_3D('',#839,#679,#680);
#627=AXIS2_PLACEMENT_3D('',#845,#684,#685);
#628=AXIS2_PLACEMENT_3D('',#854,#690,#691);
#629=AXIS2_PLACEMENT_3D('',#859,#694,#695);
#630=AXIS2_PLACEMENT_3D('',#863,#697,#698);
#631=AXIS2_PLACEMENT_3D('',#873,#703,#704);
#632=AXIS2_PLACEMENT_3D('',#878,#707,#708);
#633=AXIS2_PLACEMENT_3D('',#904,#723,#724);
#634=AXIS2_PLACEMENT_3D('',#908,#727,#728);
#635=AXIS2_PLACEMENT_3D('',#928,#740,#741);
#636=AXIS2_PLACEMENT_3D('',#929,#742,#743);
#637=AXIS2_PLACEMENT_3D('',#932,#745,#746);
#638=AXIS2_PLACEMENT_3D('',#934,#748,#749);
#639=AXIS2_PLACEMENT_3D('',#937,#752,#753);
#640=AXIS2_PLACEMENT_3D('',#941,#756,#757);
#641=AXIS2_PLACEMENT_3D('',#945,#760,#761);
#642=AXIS2_PLACEMENT_3D('',#951,#765,#766);
#643=AXIS2_PLACEMENT_3D('',#952,#767,#768);
#644=AXIS2_PLACEMENT_3D('',#955,#770,#771);
#645=AXIS2_PLACEMENT_3D('',#956,#772,#773);
#646=AXIS2_PLACEMENT_3D('',#958,#775,#776);
#647=AXIS2_PLACEMENT_3D('',#959,#777,#778);
#648=AXIS2_PLACEMENT_3D('',#960,#779,#780);
#649=AXIS2_PLACEMENT_3D('',#962,#782,#783);
#650=AXIS2_PLACEMENT_3D('',#964,#785,#786);
#651=AXIS2_PLACEMENT_3D('',#965,#787,#788);
#652=AXIS2_PLACEMENT_3D('',#969,#791,#792);
#653=AXIS2_PLACEMENT_3D('',#973,#795,#796);
#654=AXIS2_PLACEMENT_3D('',#974,#797,#798);
#655=AXIS2_PLACEMENT_3D('',#976,#799,#800);
#656=AXIS2_PLACEMENT_3D('',#977,#801,#802);
#657=AXIS2_PLACEMENT_3D('',#978,#803,#804);
#658=AXIS2_PLACEMENT_3D('',#980,#806,#807);
#659=AXIS2_PLACEMENT_3D('',#982,#809,#810);
#660=AXIS2_PLACEMENT_3D('',#983,#811,#812);
#661=AXIS2_PLACEMENT_3D('',#984,#813,#814);
#662=DIRECTION('',(0.,0.,1.));
#663=DIRECTION('',(1.,0.,0.));
#664=DIRECTION('',(0.,-0.707106781186548,-0.707106781186548));
#665=DIRECTION('',(1.,0.,0.));
#666=DIRECTION('',(0.,0.707106781186548,0.707106781186548));
#667=DIRECTION('',(-1.,0.,0.));
#668=DIRECTION('',(0.,0.707106781186548,-0.707106781186548));
#669=DIRECTION('',(-1.,0.,0.));
#670=DIRECTION('',(0.,-1.,0.));
#671=DIRECTION('',(1.,0.,0.));
#672=DIRECTION('',(0.,1.,0.));
#673=DIRECTION('',(0.,0.,1.));
#674=DIRECTION('',(1.,0.,0.));
#675=DIRECTION('',(0.,-0.707106781186548,-0.707106781186548));
#676=DIRECTION('',(1.,0.,0.));
#677=DIRECTION('',(0.,0.707106781186548,0.707106781186548));
#678=DIRECTION('',(-1.,0.,0.));
#679=DIRECTION('',(0.,0.707106781186548,-0.707106781186548));
#680=DIRECTION('',(-1.,0.,0.));
#681=DIRECTION('',(0.,-1.,0.));
#682=DIRECTION('',(1.,0.,0.));
#683=DIRECTION('',(0.,1.,0.));
#684=DIRECTION('',(0.,0.,1.));
#685=DIRECTION('',(1.,0.,0.));
#686=DIRECTION('',(0.,0.707106781186548,0.707106781186548));
#687=DIRECTION('',(-1.,0.,0.));
#688=DIRECTION('',(0.,-0.707106781186548,-0.707106781186548));
#689=DIRECTION('',(1.,0.,0.));
#690=DIRECTION('',(0.,0.707106781186548,-0.707106781186548));
#691=DIRECTION('',(-1.,0.,0.));
#692=DIRECTION('',(0.,1.,0.));
#693=DIRECTION('',(0.,-1.,0.));
#694=DIRECTION('',(0.,0.,-1.));
#695=DIRECTION('',(1.,0.,0.));
#696=DIRECTION('',(-1.,0.,0.));
#697=DIRECTION('',(0.,0.,-1.));
#698=DIRECTION('',(1.,0.,0.));
#699=DIRECTION('',(0.,1.,0.));
#700=DIRECTION('',(1.,0.,0.));
#701=DIRECTION('',(0.,1.,0.));
#702=DIRECTION('',(1.,0.,0.));
#703=DIRECTION('',(0.,0.,-1.));
#704=DIRECTION('',(1.,0.,0.));
#705=DIRECTION('',(0.,-1.,0.));
#706=DIRECTION('',(1.,0.,0.));
#707=DIRECTION('',(0.,0.,1.));
#708=DIRECTION('',(1.,0.,0.));
#709=DIRECTION('',(0.,0.,-1.));
#710=DIRECTION('',(0.,0.,1.));
#711=DIRECTION('',(1.,0.,0.));
#712=DIRECTION('',(0.,0.,-1.));
#713=DIRECTION('',(0.,0.,1.));
#714=DIRECTION('',(1.,0.,0.));
#715=DIRECTION('',(0.,0.,1.));
#716=DIRECTION('',(-0.707106781186548,0.,0.707106781186547));
#717=DIRECTION('',(-1.,0.,0.));
#718=DIRECTION('',(0.,0.,1.));
#719=DIRECTION('',(1.,0.,0.));
#720=DIRECTION('',(0.,0.,1.));
#721=DIRECTION('',(0.,0.,1.));
#722=DIRECTION('',(1.,0.,0.));
#723=DIRECTION('',(0.,-1.,0.));
#724=DIRECTION('',(0.,0.,-1.));
#725=DIRECTION('',(0.,0.,1.));
#726=DIRECTION('',(0.,-1.,0.));
#727=DIRECTION('',(-1.,0.,0.));
#728=DIRECTION('',(0.,0.,1.));
#729=DIRECTION('',(0.,0.,1.));
#730=DIRECTION('',(-1.,0.,0.));
#731=DIRECTION('',(0.,0.,-1.));
#732=DIRECTION('',(0.,0.,1.));
#733=DIRECTION('',(-1.,0.,0.));
#734=DIRECTION('',(0.707106781186548,0.,-0.707106781186547));
#735=DIRECTION('',(0.,0.,1.));
#736=DIRECTION('',(-1.,0.,0.));
#737=DIRECTION('',(0.,0.,1.));
#738=DIRECTION('',(-1.,0.,0.));
#739=DIRECTION('',(0.,0.,-1.));
#740=DIRECTION('',(0.,1.,0.));
#741=DIRECTION('',(0.,0.,1.));
#742=DIRECTION('',(0.,0.,-1.));
#743=DIRECTION('',(-1.,0.,0.));
#744=DIRECTION('',(0.,1.,0.));
#745=DIRECTION('',(0.,0.,-1.));
#746=DIRECTION('',(-1.,0.,0.));
#747=DIRECTION('',(0.,-1.,0.));
#748=DIRECTION('',(1.,0.,0.));
#749=DIRECTION('',(0.,0.,-1.));
#750=DIRECTION('',(0.,0.707106781186548,0.707106781186548));
#751=DIRECTION('',(-0.577350269189626,0.577350269189626,0.577350269189626));
#752=DIRECTION('',(0.,0.707106781186548,-0.707106781186548));
#753=DIRECTION('',(-1.,0.,0.));
#754=DIRECTION('',(0.707106781186548,0.,-0.707106781186547));
#755=DIRECTION('',(0.,1.,0.));
#756=DIRECTION('',(-0.707106781186547,0.,-0.707106781186548));
#757=DIRECTION('',(0.,-1.,0.));
#758=DIRECTION('',(0.,1.,0.));
#759=DIRECTION('',(0.,0.,1.));
#760=DIRECTION('',(-1.,0.,0.));
#761=DIRECTION('',(0.,0.,1.));
#762=DIRECTION('',(0.,0.,-1.));
#763=DIRECTION('',(1.,0.,0.));
#764=DIRECTION('',(0.,0.,1.));
#765=DIRECTION('',(0.,1.,0.));
#766=DIRECTION('',(0.,0.,1.));
#767=DIRECTION('',(0.,0.,1.));
#768=DIRECTION('',(-1.,0.,0.));
#769=DIRECTION('',(0.,-1.,0.));
#770=DIRECTION('',(0.,0.,1.));
#771=DIRECTION('',(-1.,0.,0.));
#772=DIRECTION('',(0.,0.,-1.));
#773=DIRECTION('',(-1.,0.,0.));
#774=DIRECTION('',(0.,0.,-1.));
#775=DIRECTION('',(1.,0.,0.));
#776=DIRECTION('',(0.,0.,-1.));
#777=DIRECTION('',(0.,0.,1.));
#778=DIRECTION('',(1.,0.,0.));
#779=DIRECTION('',(0.,0.,1.));
#780=DIRECTION('',(1.,0.,0.));
#781=DIRECTION('',(0.,1.,0.));
#782=DIRECTION('',(-1.,0.,0.));
#783=DIRECTION('',(0.,0.,1.));
#784=DIRECTION('',(0.,-1.,0.));
#785=DIRECTION('',(0.,0.,-1.));
#786=DIRECTION('',(-1.,0.,0.));
#787=DIRECTION('',(1.,0.,0.));
#788=DIRECTION('',(0.,0.,-1.));
#789=DIRECTION('',(-1.,0.,0.));
#790=DIRECTION('',(0.,0.,1.));
#791=DIRECTION('',(0.,-1.,0.));
#792=DIRECTION('',(0.,0.,-1.));
#793=DIRECTION('',(0.,0.,-1.));
#794=DIRECTION('',(0.,1.,0.));
#795=DIRECTION('',(-1.,0.,0.));
#796=DIRECTION('',(0.,0.,1.));
#797=DIRECTION('',(0.,0.,-1.));
#798=DIRECTION('',(-1.,0.,0.));
#799=DIRECTION('',(0.,0.,1.));
#800=DIRECTION('',(-1.,0.,0.));
#801=DIRECTION('',(0.,0.,-1.));
#802=DIRECTION('',(-1.,0.,0.));
#803=DIRECTION('',(0.,0.,1.));
#804=DIRECTION('',(1.,0.,0.));
#805=DIRECTION('',(0.,1.,0.));
#806=DIRECTION('',(-1.,0.,0.));
#807=DIRECTION('',(0.,0.,1.));
#808=DIRECTION('',(0.,-1.,0.));
#809=DIRECTION('',(0.,0.,-1.));
#810=DIRECTION('',(-1.,0.,0.));
#811=DIRECTION('',(1.,0.,0.));
#812=DIRECTION('',(0.,0.,-1.));
#813=DIRECTION('',(0.,0.,-1.));
#814=DIRECTION('',(1.,0.,0.));
#815=CARTESIAN_POINT('',(0.,0.,0.));
#816=CARTESIAN_POINT('',(235.4,0.,93.3));
#817=CARTESIAN_POINT('',(235.4,14.3,107.6));
#818=CARTESIAN_POINT('',(235.4,0.,93.3));
#819=CARTESIAN_POINT('',(229.5,14.3,107.6));
#820=CARTESIAN_POINT('',(101.8,14.3,107.6));
#821=CARTESIAN_POINT('',(101.8,0.,93.3));
#822=CARTESIAN_POINT('',(101.8,0.,93.3));
#823=CARTESIAN_POINT('',(229.5,0.,93.3));
#824=CARTESIAN_POINT('',(229.5,0.,93.3));
#825=CARTESIAN_POINT('',(235.4,132.95,107.6));
#826=CARTESIAN_POINT('',(235.4,265.9,107.6));
#827=CARTESIAN_POINT('',(229.5,265.9,107.6));
#828=CARTESIAN_POINT('',(101.8,265.9,107.6));
#829=CARTESIAN_POINT('',(101.8,132.95,107.6));
#830=CARTESIAN_POINT('',(229.5,132.95,107.6));
#831=CARTESIAN_POINT('',(66.6,0.,93.3));
#832=CARTESIAN_POINT('',(66.6,14.3,107.6));
#833=CARTESIAN_POINT('',(66.6,0.,93.3));
#834=CARTESIAN_POINT('',(229.5,14.3,107.6));
#835=CARTESIAN_POINT('',(0.,14.3,107.6));
#836=CARTESIAN_POINT('',(0.,19.825,113.125));
#837=CARTESIAN_POINT('',(0.,0.,93.3));
#838=CARTESIAN_POINT('',(229.5,0.,93.3));
#839=CARTESIAN_POINT('',(229.5,0.,93.3));
#840=CARTESIAN_POINT('',(66.6,132.95,107.6));
#841=CARTESIAN_POINT('',(66.6,265.9,107.6));
#842=CARTESIAN_POINT('',(229.5,265.9,107.6));
#843=CARTESIAN_POINT('',(0.,265.9,107.6));
#844=CARTESIAN_POINT('',(0.,132.95,107.6));
#845=CARTESIAN_POINT('',(229.5,132.95,107.6));
#846=CARTESIAN_POINT('',(262.,0.,93.3));
#847=CARTESIAN_POINT('',(262.,0.,93.3));
#848=CARTESIAN_POINT('',(262.,14.3,107.6));
#849=CARTESIAN_POINT('',(229.5,0.,93.3));
#850=CARTESIAN_POINT('',(295.6,-3.46944695195361E-15,93.3));
#851=CARTESIAN_POINT('',(295.6,0.,93.3));
#852=CARTESIAN_POINT('',(295.6,14.3,107.6));
#853=CARTESIAN_POINT('',(229.5,14.3,107.6));
#854=CARTESIAN_POINT('',(229.5,0.,93.3));
#855=CARTESIAN_POINT('',(262.,132.95,107.6));
#856=CARTESIAN_POINT('',(262.,265.9,107.6));
#857=CARTESIAN_POINT('',(295.6,132.95,107.6));
#858=CARTESIAN_POINT('',(295.6,50.5,107.6));
#859=CARTESIAN_POINT('',(303.5,50.5,107.6));
#860=CARTESIAN_POINT('',(303.5,58.4,107.6));
#861=CARTESIAN_POINT('',(229.5,58.4,107.6));
#862=CARTESIAN_POINT('',(413.8,58.4,107.6));
#863=CARTESIAN_POINT('',(413.8,50.5,107.6));
#864=CARTESIAN_POINT('',(421.7,50.5,107.6));
#865=CARTESIAN_POINT('',(421.7,132.95,107.6));
#866=CARTESIAN_POINT('',(421.7,14.3,107.6));
#867=CARTESIAN_POINT('',(229.5,14.3,107.6));
#868=CARTESIAN_POINT('',(443.,14.3,107.6));
#869=CARTESIAN_POINT('',(443.,132.95,107.6));
#870=CARTESIAN_POINT('',(443.,202.5,107.6));
#871=CARTESIAN_POINT('',(229.5,202.5,107.6));
#872=CARTESIAN_POINT('',(372.,202.5,107.6));
#873=CARTESIAN_POINT('',(372.,212.5,107.6));
#874=CARTESIAN_POINT('',(362.,212.5,107.6));
#875=CARTESIAN_POINT('',(362.,132.95,107.6));
#876=CARTESIAN_POINT('',(362.,265.9,107.6));
#877=CARTESIAN_POINT('',(229.5,265.9,107.6));
#878=CARTESIAN_POINT('',(229.5,132.95,107.6));
#879=CARTESIAN_POINT('',(235.4,0.,0.));
#880=CARTESIAN_POINT('',(235.4,0.,88.5));
#881=CARTESIAN_POINT('',(101.8,0.,0.));
#882=CARTESIAN_POINT('',(101.8,0.,68.9));
#883=CARTESIAN_POINT('',(229.5,0.,68.9));
#884=CARTESIAN_POINT('',(66.6,0.,68.9));
#885=CARTESIAN_POINT('',(66.6,0.,0.));
#886=CARTESIAN_POINT('',(0.,0.,0.));
#887=CARTESIAN_POINT('',(0.,0.,0.));
#888=CARTESIAN_POINT('',(229.5,0.,0.));
#889=CARTESIAN_POINT('',(459.,0.,0.));
#890=CARTESIAN_POINT('',(459.,0.,0.));
#891=CARTESIAN_POINT('',(459.,0.,91.6));
#892=CARTESIAN_POINT('',(390.05,0.,160.55));
#893=CARTESIAN_POINT('',(457.3,0.,93.3));
#894=CARTESIAN_POINT('',(229.5,0.,93.3));
#895=CARTESIAN_POINT('',(421.7,0.,93.3));
#896=CARTESIAN_POINT('',(421.7,0.,69.7));
#897=CARTESIAN_POINT('',(421.7,0.,69.7));
#898=CARTESIAN_POINT('',(358.65,0.,69.7));
#899=CARTESIAN_POINT('',(295.6,0.,69.7));
#900=CARTESIAN_POINT('',(295.6,0.,69.7));
#901=CARTESIAN_POINT('',(262.,0.,0.));
#902=CARTESIAN_POINT('',(262.,0.,88.5));
#903=CARTESIAN_POINT('',(229.5,0.,88.5));
#904=CARTESIAN_POINT('',(229.5,0.,0.));
#905=CARTESIAN_POINT('',(0.,265.9,0.));
#906=CARTESIAN_POINT('',(0.,265.9,0.));
#907=CARTESIAN_POINT('',(0.,132.95,0.));
#908=CARTESIAN_POINT('',(0.,132.95,0.));
#909=CARTESIAN_POINT('',(235.4,265.9,0.));
#910=CARTESIAN_POINT('',(235.4,265.9,88.5));
#911=CARTESIAN_POINT('',(229.5,265.9,88.5));
#912=CARTESIAN_POINT('',(262.,265.9,88.5));
#913=CARTESIAN_POINT('',(262.,265.9,0.));
#914=CARTESIAN_POINT('',(362.,265.9,92.9));
#915=CARTESIAN_POINT('',(362.,265.9,92.9));
#916=CARTESIAN_POINT('',(410.5,265.9,92.9));
#917=CARTESIAN_POINT('',(457.7,265.9,92.9));
#918=CARTESIAN_POINT('',(390.05,265.9,160.55));
#919=CARTESIAN_POINT('',(459.,265.9,91.6));
#920=CARTESIAN_POINT('',(459.,265.9,0.));
#921=CARTESIAN_POINT('',(459.,265.9,0.));
#922=CARTESIAN_POINT('',(229.5,265.9,0.));
#923=CARTESIAN_POINT('',(66.6,265.9,0.));
#924=CARTESIAN_POINT('',(66.6,265.9,68.9));
#925=CARTESIAN_POINT('',(229.5,265.9,68.9));
#926=CARTESIAN_POINT('',(101.8,265.9,68.9));
#927=CARTESIAN_POINT('',(101.8,265.9,0.));
#928=CARTESIAN_POINT('',(229.5,265.9,0.));
#929=CARTESIAN_POINT('',(444.,226.9,0.));
#930=CARTESIAN_POINT('',(433.,226.9,0.));
#931=CARTESIAN_POINT('',(459.,132.95,0.));
#932=CARTESIAN_POINT('',(229.5,132.95,0.));
#933=CARTESIAN_POINT('',(459.,132.95,91.6));
#934=CARTESIAN_POINT('',(459.,132.95,0.));
#935=CARTESIAN_POINT('',(421.7,0.,93.3));
#936=CARTESIAN_POINT('',(381.366666666667,75.9333333333334,169.233333333333));
#937=CARTESIAN_POINT('',(229.5,0.,93.3));
#938=CARTESIAN_POINT('',(459.,202.5,91.6));
#939=CARTESIAN_POINT('',(457.7,202.5,92.9));
#940=CARTESIAN_POINT('',(457.7,132.95,92.9));
#941=CARTESIAN_POINT('',(459.,132.95,91.6));
#942=CARTESIAN_POINT('',(295.6,29.2,69.7));
#943=CARTESIAN_POINT('',(295.6,50.5,69.7));
#944=CARTESIAN_POINT('',(295.6,50.5,107.6));
#945=CARTESIAN_POINT('',(295.6,29.2,69.7));
#946=CARTESIAN_POINT('',(303.5,58.4,69.7));
#947=CARTESIAN_POINT('',(303.5,58.4,69.7));
#948=CARTESIAN_POINT('',(358.65,58.4,69.7));
#949=CARTESIAN_POINT('',(413.8,58.4,69.7));
#950=CARTESIAN_POINT('',(413.8,58.4,107.6));
#951=CARTESIAN_POINT('',(358.65,58.4,69.7));
#952=CARTESIAN_POINT('',(303.5,50.5,69.7));
#953=CARTESIAN_POINT('',(421.7,29.2,69.7));
#954=CARTESIAN_POINT('',(421.7,50.5,69.7));
#955=CARTESIAN_POINT('',(413.8,50.5,69.7));
#956=CARTESIAN_POINT('',(358.65,29.2,69.7));
#957=CARTESIAN_POINT('',(421.7,50.5,69.7));
#958=CARTESIAN_POINT('',(421.7,29.2,69.7));
#959=CARTESIAN_POINT('',(303.5,50.5,69.7));
#960=CARTESIAN_POINT('',(413.8,50.5,69.7));
#961=CARTESIAN_POINT('',(66.6,132.95,68.9));
#962=CARTESIAN_POINT('',(66.6,132.95,68.9));
#963=CARTESIAN_POINT('',(101.8,132.95,68.9));
#964=CARTESIAN_POINT('',(84.2,132.95,68.9));
#965=CARTESIAN_POINT('',(101.8,132.95,68.9));
#966=CARTESIAN_POINT('',(410.5,202.5,92.9));
#967=CARTESIAN_POINT('',(372.,202.5,92.9));
#968=CARTESIAN_POINT('',(372.,202.5,107.6));
#969=CARTESIAN_POINT('',(410.5,202.5,92.9));
#970=CARTESIAN_POINT('',(362.,212.5,92.9));
#971=CARTESIAN_POINT('',(362.,212.5,92.9));
#972=CARTESIAN_POINT('',(362.,234.2,92.9));
#973=CARTESIAN_POINT('',(362.,234.2,92.9));
#974=CARTESIAN_POINT('',(444.,226.9,92.9));
#975=CARTESIAN_POINT('',(433.,226.9,92.9));
#976=CARTESIAN_POINT('',(372.,212.5,92.9));
#977=CARTESIAN_POINT('',(410.5,234.2,92.9));
#978=CARTESIAN_POINT('',(372.,212.5,92.9));
#979=CARTESIAN_POINT('',(235.4,132.95,88.5));
#980=CARTESIAN_POINT('',(235.4,132.95,88.5));
#981=CARTESIAN_POINT('',(262.,132.95,88.5));
#982=CARTESIAN_POINT('',(248.7,132.95,88.5));
#983=CARTESIAN_POINT('',(262.,132.95,88.5));
#984=CARTESIAN_POINT('',(444.,226.9,107.65));
#985=MECHANICAL_DESIGN_GEOMETRIC_PRESENTATION_REPRESENTATION('',(#24),#986);
#986=(
GEOMETRIC_REPRESENTATION_CONTEXT(3)
GLOBAL_UNCERTAINTY_ASSIGNED_CONTEXT((#987))
GLOBAL_UNIT_ASSIGNED_CONTEXT((#993,#989,#988))
REPRESENTATION_CONTEXT('featured_part_07810','TOP_LEVEL_ASSEMBLY_PART')
);
#987=UNCERTAINTY_MEASURE_WITH_UNIT(LENGTH_MEASURE(2.E-5),#993,
'DISTANCE_ACCURACY_VALUE','Maximum Tolerance applied to model');
#988=(
NAMED_UNIT(*)
SI_UNIT($,.STERADIAN.)
SOLID_ANGLE_UNIT()
);
#989=(
CONVERSION_BASED_UNIT('DEGREE',#991)
NAMED_UNIT(#990)
PLANE_ANGLE_UNIT()
);
#990=DIMENSIONAL_EXPONENTS(0.,0.,0.,0.,0.,0.,0.);
#991=PLANE_ANGLE_MEASURE_WITH_UNIT(PLANE_ANGLE_MEASURE(0.0174532925),#992);
#992=(
NAMED_UNIT(*)
PLANE_ANGLE_UNIT()
SI_UNIT($,.RADIAN.)
);
#993=(
LENGTH_UNIT()
NAMED_UNIT(*)
SI_UNIT(.MILLI.,.METRE.)
);
ENDSEC;
END-ISO-10303-21;
