ISO-10303-21;
HEADER;
/* Generated by software containing ST-Developer
 * from STEP Tools, Inc. (www.steptools.com) 
 */
/* OPTION: using custom schema-name function */

FILE_DESCRIPTION(
/* description */ (''),
/* implementation_level */ '2;1');

FILE_NAME(
/* name */ 'featured_part_04913.stp',
/* time_stamp */ '2026-07-07T20:12:11-04:00',
/* author */ (''),
/* organization */ (''),
/* preprocessor_version */ 'ST-DEVELOPER v20.1',
/* originating_system */ 'SIEMENS PLM Software NX2512.6002',
/* authorisation */ '');

FILE_SCHEMA (('AUTOMOTIVE_DESIGN { 1 0 10303 214 3 1 1 1 }'));
ENDSEC;

DATA;
#10=SHAPE_REPRESENTATION_RELATIONSHIP('None',
'relationship between featured_part_04913-None and featured_part_04913
-None',#22,#11);
#11=ADVANCED_BREP_SHAPE_REPRESENTATION('featured_part_04913-None',(#32),
#1081);
#12=SHAPE_DEFINITION_REPRESENTATION(#13,#22);
#13=PRODUCT_DEFINITION_SHAPE('','',#14);
#14=PRODUCT_DEFINITION(' ','',#16,#15);
#15=PRODUCT_DEFINITION_CONTEXT('part definition',#21,'design');
#16=PRODUCT_DEFINITION_FORMATION_WITH_SPECIFIED_SOURCE(' ',' ',#18,
 .NOT_KNOWN.);
#17=PRODUCT_RELATED_PRODUCT_CATEGORY('part','',(#18));
#18=PRODUCT('featured_part_04913','featured_part_04913',' ',(#19));
#19=PRODUCT_CONTEXT(' ',#21,'mechanical');
#20=APPLICATION_PROTOCOL_DEFINITION('international standard',
'automotive_design',2010,#21);
#21=APPLICATION_CONTEXT(
'core data for automotive mechanical design processes');
#22=SHAPE_REPRESENTATION('featured_part_04913-None',(#653),#1081);
#23=PRESENTATION_LAYER_ASSIGNMENT('1','Layer 1',(#32));
#24=STYLED_ITEM('',(#25),#32);
#25=PRESENTATION_STYLE_ASSIGNMENT((#26));
#26=SURFACE_STYLE_USAGE(.BOTH.,#27);
#27=SURFACE_SIDE_STYLE('',(#28));
#28=SURFACE_STYLE_FILL_AREA(#29);
#29=FILL_AREA_STYLE('',(#30));
#30=FILL_AREA_STYLE_COLOUR('',#31);
#31=COLOUR_RGB('medium steel',0.611764705882353,0.658823529411765,0.670588235294118);
#32=MANIFOLD_SOLID_BREP('',#33);
#33=CLOSED_SHELL('',(#66,#67,#68,#69,#70,#71,#72,#73,#74,#75,#76,#77,#78,
#79,#80,#81,#82,#83,#84,#85,#86,#87,#88,#89,#90,#91,#92,#93,#94,#95,#96,
#97,#98,#99,#100));
#34=PLANE('',#663);
#35=PLANE('',#664);
#36=PLANE('',#665);
#37=PLANE('',#666);
#38=PLANE('',#667);
#39=PLANE('',#668);
#40=PLANE('',#669);
#41=PLANE('',#670);
#42=PLANE('',#671);
#43=PLANE('',#678);
#44=PLANE('',#679);
#45=PLANE('',#681);
#46=PLANE('',#682);
#47=PLANE('',#683);
#48=PLANE('',#688);
#49=PLANE('',#689);
#50=PLANE('',#694);
#51=PLANE('',#695);
#52=PLANE('',#696);
#53=PLANE('',#697);
#54=PLANE('',#703);
#55=PLANE('',#710);
#56=PLANE('',#712);
#57=FACE_BOUND('',#145,.T.);
#58=FACE_BOUND('',#146,.T.);
#59=FACE_BOUND('',#147,.T.);
#60=FACE_BOUND('',#156,.T.);
#61=FACE_BOUND('',#157,.T.);
#62=FACE_BOUND('',#178,.T.);
#63=FACE_BOUND('',#179,.T.);
#64=FACE_BOUND('',#182,.T.);
#65=FACE_BOUND('',#183,.T.);
#66=ADVANCED_FACE('',(#113),#101,.F.);
#67=ADVANCED_FACE('',(#57,#58,#59),#34,.T.);
#68=ADVANCED_FACE('',(#114),#35,.T.);
#69=ADVANCED_FACE('',(#115),#36,.T.);
#70=ADVANCED_FACE('',(#116),#37,.T.);
#71=ADVANCED_FACE('',(#117),#38,.T.);
#72=ADVANCED_FACE('',(#118),#39,.T.);
#73=ADVANCED_FACE('',(#119),#40,.F.);
#74=ADVANCED_FACE('',(#120),#41,.F.);
#75=ADVANCED_FACE('',(#121),#42,.F.);
#76=ADVANCED_FACE('',(#60,#61),#43,.F.);
#77=ADVANCED_FACE('',(#122),#44,.F.);
#78=ADVANCED_FACE('',(#123),#102,.F.);
#79=ADVANCED_FACE('',(#124),#45,.F.);
#80=ADVANCED_FACE('',(#125),#46,.F.);
#81=ADVANCED_FACE('',(#126),#47,.F.);
#82=ADVANCED_FACE('',(#127),#48,.F.);
#83=ADVANCED_FACE('',(#128),#49,.F.);
#84=ADVANCED_FACE('',(#129),#103,.F.);
#85=ADVANCED_FACE('',(#130),#104,.F.);
#86=ADVANCED_FACE('',(#131),#105,.F.);
#87=ADVANCED_FACE('',(#132),#106,.F.);
#88=ADVANCED_FACE('',(#133),#50,.F.);
#89=ADVANCED_FACE('',(#134),#51,.F.);
#90=ADVANCED_FACE('',(#135),#52,.F.);
#91=ADVANCED_FACE('',(#136),#53,.F.);
#92=ADVANCED_FACE('',(#137),#54,.F.);
#93=ADVANCED_FACE('',(#138),#107,.F.);
#94=ADVANCED_FACE('',(#139),#108,.F.);
#95=ADVANCED_FACE('',(#140),#109,.F.);
#96=ADVANCED_FACE('',(#141),#110,.F.);
#97=ADVANCED_FACE('',(#62,#63),#111,.F.);
#98=ADVANCED_FACE('',(#142),#55,.F.);
#99=ADVANCED_FACE('',(#143),#56,.F.);
#100=ADVANCED_FACE('',(#64,#65),#112,.F.);
#101=CYLINDRICAL_SURFACE('',#656,9.2);
#102=CYLINDRICAL_SURFACE('',#680,3.3);
#103=CYLINDRICAL_SURFACE('',#690,11.2);
#104=CYLINDRICAL_SURFACE('',#691,11.2);
#105=CYLINDRICAL_SURFACE('',#692,11.2);
#106=CYLINDRICAL_SURFACE('',#693,11.2);
#107=CYLINDRICAL_SURFACE('',#704,9.2);
#108=CYLINDRICAL_SURFACE('',#705,9.2);
#109=CYLINDRICAL_SURFACE('',#706,9.2);
#110=CYLINDRICAL_SURFACE('',#707,9.2);
#111=CYLINDRICAL_SURFACE('',#709,2.95);
#112=CYLINDRICAL_SURFACE('',#713,2.95);
#113=FACE_OUTER_BOUND('',#144,.T.);
#114=FACE_OUTER_BOUND('',#148,.T.);
#115=FACE_OUTER_BOUND('',#149,.T.);
#116=FACE_OUTER_BOUND('',#150,.T.);
#117=FACE_OUTER_BOUND('',#151,.T.);
#118=FACE_OUTER_BOUND('',#152,.T.);
#119=FACE_OUTER_BOUND('',#153,.T.);
#120=FACE_OUTER_BOUND('',#154,.T.);
#121=FACE_OUTER_BOUND('',#155,.T.);
#122=FACE_OUTER_BOUND('',#158,.T.);
#123=FACE_OUTER_BOUND('',#159,.T.);
#124=FACE_OUTER_BOUND('',#160,.T.);
#125=FACE_OUTER_BOUND('',#161,.T.);
#126=FACE_OUTER_BOUND('',#162,.T.);
#127=FACE_OUTER_BOUND('',#163,.T.);
#128=FACE_OUTER_BOUND('',#164,.T.);
#129=FACE_OUTER_BOUND('',#165,.T.);
#130=FACE_OUTER_BOUND('',#166,.T.);
#131=FACE_OUTER_BOUND('',#167,.T.);
#132=FACE_OUTER_BOUND('',#168,.T.);
#133=FACE_OUTER_BOUND('',#169,.T.);
#134=FACE_OUTER_BOUND('',#170,.T.);
#135=FACE_OUTER_BOUND('',#171,.T.);
#136=FACE_OUTER_BOUND('',#172,.T.);
#137=FACE_OUTER_BOUND('',#173,.T.);
#138=FACE_OUTER_BOUND('',#174,.T.);
#139=FACE_OUTER_BOUND('',#175,.T.);
#140=FACE_OUTER_BOUND('',#176,.T.);
#141=FACE_OUTER_BOUND('',#177,.T.);
#142=FACE_OUTER_BOUND('',#180,.T.);
#143=FACE_OUTER_BOUND('',#181,.T.);
#144=EDGE_LOOP('',(#308,#309,#310,#311));
#145=EDGE_LOOP('',(#312));
#146=EDGE_LOOP('',(#313,#314,#315,#316,#317,#318,#319,#320));
#147=EDGE_LOOP('',(#321,#322,#323,#324,#325,#326,#327));
#148=EDGE_LOOP('',(#328,#329,#330,#331,#332,#333));
#149=EDGE_LOOP('',(#334,#335,#336,#337,#338,#339));
#150=EDGE_LOOP('',(#340,#341,#342,#343,#344));
#151=EDGE_LOOP('',(#345,#346,#347,#348));
#152=EDGE_LOOP('',(#349,#350,#351,#352,#353));
#153=EDGE_LOOP('',(#354,#355,#356,#357,#358));
#154=EDGE_LOOP('',(#359,#360,#361,#362));
#155=EDGE_LOOP('',(#363,#364,#365,#366));
#156=EDGE_LOOP('',(#367,#368,#369,#370,#371,#372,#373,#374,#375,#376));
#157=EDGE_LOOP('',(#377,#378,#379,#380,#381));
#158=EDGE_LOOP('',(#382,#383,#384,#385,#386));
#159=EDGE_LOOP('',(#387,#388,#389,#390));
#160=EDGE_LOOP('',(#391,#392,#393,#394));
#161=EDGE_LOOP('',(#395,#396,#397,#398));
#162=EDGE_LOOP('',(#399,#400,#401,#402));
#163=EDGE_LOOP('',(#403,#404,#405,#406,#407,#408,#409,#410));
#164=EDGE_LOOP('',(#411,#412,#413,#414));
#165=EDGE_LOOP('',(#415,#416,#417,#418));
#166=EDGE_LOOP('',(#419,#420,#421,#422));
#167=EDGE_LOOP('',(#423,#424,#425,#426));
#168=EDGE_LOOP('',(#427,#428,#429,#430));
#169=EDGE_LOOP('',(#431,#432,#433,#434));
#170=EDGE_LOOP('',(#435,#436,#437,#438));
#171=EDGE_LOOP('',(#439,#440,#441,#442));
#172=EDGE_LOOP('',(#443,#444,#445,#446));
#173=EDGE_LOOP('',(#447,#448,#449,#450,#451,#452,#453,#454,#455,#456));
#174=EDGE_LOOP('',(#457,#458,#459,#460));
#175=EDGE_LOOP('',(#461,#462,#463,#464));
#176=EDGE_LOOP('',(#465,#466,#467,#468));
#177=EDGE_LOOP('',(#469,#470,#471,#472));
#178=EDGE_LOOP('',(#473));
#179=EDGE_LOOP('',(#474,#475,#476,#477));
#180=EDGE_LOOP('',(#478));
#181=EDGE_LOOP('',(#479));
#182=EDGE_LOOP('',(#480));
#183=EDGE_LOOP('',(#481));
#184=LINE('',#902,#246);
#185=LINE('',#906,#247);
#186=LINE('',#910,#248);
#187=LINE('',#915,#249);
#188=LINE('',#919,#250);
#189=LINE('',#923,#251);
#190=LINE('',#926,#252);
#191=LINE('',#931,#253);
#192=LINE('',#933,#254);
#193=LINE('',#935,#255);
#194=LINE('',#937,#256);
#195=LINE('',#939,#257);
#196=LINE('',#941,#258);
#197=LINE('',#944,#259);
#198=LINE('',#946,#260);
#199=LINE('',#948,#261);
#200=LINE('',#950,#262);
#201=LINE('',#952,#263);
#202=LINE('',#954,#264);
#203=LINE('',#956,#265);
#204=LINE('',#958,#266);
#205=LINE('',#959,#267);
#206=LINE('',#961,#268);
#207=LINE('',#963,#269);
#208=LINE('',#965,#270);
#209=LINE('',#967,#271);
#210=LINE('',#969,#272);
#211=LINE('',#971,#273);
#212=LINE('',#973,#274);
#213=LINE('',#974,#275);
#214=LINE('',#977,#276);
#215=LINE('',#979,#277);
#216=LINE('',#985,#278);
#217=LINE('',#989,#279);
#218=LINE('',#993,#280);
#219=LINE('',#997,#281);
#220=LINE('',#998,#282);
#221=LINE('',#1002,#283);
#222=LINE('',#1005,#284);
#223=LINE('',#1007,#285);
#224=LINE('',#1009,#286);
#225=LINE('',#1011,#287);
#226=LINE('',#1013,#288);
#227=LINE('',#1015,#289);
#228=LINE('',#1017,#290);
#229=LINE('',#1019,#291);
#230=LINE('',#1021,#292);
#231=LINE('',#1025,#293);
#232=LINE('',#1031,#294);
#233=LINE('',#1032,#295);
#234=LINE('',#1038,#296);
#235=LINE('',#1040,#297);
#236=LINE('',#1042,#298);
#237=LINE('',#1044,#299);
#238=LINE('',#1046,#300);
#239=LINE('',#1048,#301);
#240=LINE('',#1050,#302);
#241=LINE('',#1052,#303);
#242=LINE('',#1054,#304);
#243=LINE('',#1057,#305);
#244=LINE('',#1058,#306);
#245=LINE('',#1067,#307);
#246=VECTOR('',#718,1.);
#247=VECTOR('',#721,1.);
#248=VECTOR('',#726,1.);
#249=VECTOR('',#729,1.);
#250=VECTOR('',#732,1.);
#251=VECTOR('',#735,1.);
#252=VECTOR('',#738,1.);
#253=VECTOR('',#741,1.);
#254=VECTOR('',#742,1.);
#255=VECTOR('',#743,1.);
#256=VECTOR('',#744,1.);
#257=VECTOR('',#745,1.);
#258=VECTOR('',#748,1.);
#259=VECTOR('',#749,1.);
#260=VECTOR('',#750,1.);
#261=VECTOR('',#751,1.);
#262=VECTOR('',#752,1.);
#263=VECTOR('',#753,1.);
#264=VECTOR('',#756,1.);
#265=VECTOR('',#757,1.);
#266=VECTOR('',#758,1.);
#267=VECTOR('',#759,1.);
#268=VECTOR('',#762,1.);
#269=VECTOR('',#763,1.);
#270=VECTOR('',#764,1.);
#271=VECTOR('',#767,1.);
#272=VECTOR('',#770,1.);
#273=VECTOR('',#771,1.);
#274=VECTOR('',#774,1.);
#275=VECTOR('',#775,1.);
#276=VECTOR('',#780,1.);
#277=VECTOR('',#781,1.);
#278=VECTOR('',#788,1.);
#279=VECTOR('',#791,1.);
#280=VECTOR('',#794,1.);
#281=VECTOR('',#797,1.);
#282=VECTOR('',#798,1.);
#283=VECTOR('',#803,1.);
#284=VECTOR('',#808,1.);
#285=VECTOR('',#809,1.);
#286=VECTOR('',#810,1.);
#287=VECTOR('',#813,1.);
#288=VECTOR('',#814,1.);
#289=VECTOR('',#815,1.);
#290=VECTOR('',#818,1.);
#291=VECTOR('',#819,1.);
#292=VECTOR('',#820,1.);
#293=VECTOR('',#825,1.);
#294=VECTOR('',#834,1.);
#295=VECTOR('',#835,1.);
#296=VECTOR('',#846,1.);
#297=VECTOR('',#847,1.);
#298=VECTOR('',#850,1.);
#299=VECTOR('',#851,1.);
#300=VECTOR('',#852,1.);
#301=VECTOR('',#855,1.);
#302=VECTOR('',#856,1.);
#303=VECTOR('',#857,1.);
#304=VECTOR('',#860,1.);
#305=VECTOR('',#861,1.);
#306=VECTOR('',#862,1.);
#307=VECTOR('',#877,1.);
#308=ORIENTED_EDGE('',*,*,#541,.F.);
#309=ORIENTED_EDGE('',*,*,#542,.T.);
#310=ORIENTED_EDGE('',*,*,#543,.F.);
#311=ORIENTED_EDGE('',*,*,#544,.F.);
#312=ORIENTED_EDGE('',*,*,#545,.F.);
#313=ORIENTED_EDGE('',*,*,#546,.F.);
#314=ORIENTED_EDGE('',*,*,#547,.T.);
#315=ORIENTED_EDGE('',*,*,#548,.F.);
#316=ORIENTED_EDGE('',*,*,#549,.T.);
#317=ORIENTED_EDGE('',*,*,#550,.F.);
#318=ORIENTED_EDGE('',*,*,#551,.T.);
#319=ORIENTED_EDGE('',*,*,#552,.F.);
#320=ORIENTED_EDGE('',*,*,#553,.T.);
#321=ORIENTED_EDGE('',*,*,#554,.F.);
#322=ORIENTED_EDGE('',*,*,#555,.T.);
#323=ORIENTED_EDGE('',*,*,#556,.F.);
#324=ORIENTED_EDGE('',*,*,#557,.T.);
#325=ORIENTED_EDGE('',*,*,#558,.T.);
#326=ORIENTED_EDGE('',*,*,#559,.F.);
#327=ORIENTED_EDGE('',*,*,#560,.F.);
#328=ORIENTED_EDGE('',*,*,#561,.F.);
#329=ORIENTED_EDGE('',*,*,#562,.F.);
#330=ORIENTED_EDGE('',*,*,#563,.T.);
#331=ORIENTED_EDGE('',*,*,#564,.T.);
#332=ORIENTED_EDGE('',*,*,#565,.T.);
#333=ORIENTED_EDGE('',*,*,#566,.F.);
#334=ORIENTED_EDGE('',*,*,#567,.T.);
#335=ORIENTED_EDGE('',*,*,#560,.T.);
#336=ORIENTED_EDGE('',*,*,#568,.F.);
#337=ORIENTED_EDGE('',*,*,#569,.T.);
#338=ORIENTED_EDGE('',*,*,#562,.T.);
#339=ORIENTED_EDGE('',*,*,#570,.F.);
#340=ORIENTED_EDGE('',*,*,#559,.T.);
#341=ORIENTED_EDGE('',*,*,#571,.T.);
#342=ORIENTED_EDGE('',*,*,#572,.F.);
#343=ORIENTED_EDGE('',*,*,#573,.T.);
#344=ORIENTED_EDGE('',*,*,#568,.T.);
#345=ORIENTED_EDGE('',*,*,#574,.F.);
#346=ORIENTED_EDGE('',*,*,#563,.F.);
#347=ORIENTED_EDGE('',*,*,#569,.F.);
#348=ORIENTED_EDGE('',*,*,#573,.F.);
#349=ORIENTED_EDGE('',*,*,#572,.T.);
#350=ORIENTED_EDGE('',*,*,#575,.T.);
#351=ORIENTED_EDGE('',*,*,#576,.T.);
#352=ORIENTED_EDGE('',*,*,#564,.F.);
#353=ORIENTED_EDGE('',*,*,#574,.T.);
#354=ORIENTED_EDGE('',*,*,#577,.F.);
#355=ORIENTED_EDGE('',*,*,#565,.F.);
#356=ORIENTED_EDGE('',*,*,#576,.F.);
#357=ORIENTED_EDGE('',*,*,#578,.T.);
#358=ORIENTED_EDGE('',*,*,#557,.F.);
#359=ORIENTED_EDGE('',*,*,#571,.F.);
#360=ORIENTED_EDGE('',*,*,#558,.F.);
#361=ORIENTED_EDGE('',*,*,#578,.F.);
#362=ORIENTED_EDGE('',*,*,#575,.F.);
#363=ORIENTED_EDGE('',*,*,#579,.T.);
#364=ORIENTED_EDGE('',*,*,#580,.T.);
#365=ORIENTED_EDGE('',*,*,#554,.T.);
#366=ORIENTED_EDGE('',*,*,#567,.F.);
#367=ORIENTED_EDGE('',*,*,#543,.T.);
#368=ORIENTED_EDGE('',*,*,#581,.T.);
#369=ORIENTED_EDGE('',*,*,#582,.T.);
#370=ORIENTED_EDGE('',*,*,#583,.T.);
#371=ORIENTED_EDGE('',*,*,#584,.T.);
#372=ORIENTED_EDGE('',*,*,#585,.T.);
#373=ORIENTED_EDGE('',*,*,#586,.T.);
#374=ORIENTED_EDGE('',*,*,#587,.T.);
#375=ORIENTED_EDGE('',*,*,#588,.T.);
#376=ORIENTED_EDGE('',*,*,#589,.T.);
#377=ORIENTED_EDGE('',*,*,#590,.F.);
#378=ORIENTED_EDGE('',*,*,#591,.T.);
#379=ORIENTED_EDGE('',*,*,#579,.F.);
#380=ORIENTED_EDGE('',*,*,#570,.T.);
#381=ORIENTED_EDGE('',*,*,#561,.T.);
#382=ORIENTED_EDGE('',*,*,#556,.T.);
#383=ORIENTED_EDGE('',*,*,#592,.T.);
#384=ORIENTED_EDGE('',*,*,#590,.T.);
#385=ORIENTED_EDGE('',*,*,#566,.T.);
#386=ORIENTED_EDGE('',*,*,#577,.T.);
#387=ORIENTED_EDGE('',*,*,#555,.F.);
#388=ORIENTED_EDGE('',*,*,#580,.F.);
#389=ORIENTED_EDGE('',*,*,#591,.F.);
#390=ORIENTED_EDGE('',*,*,#592,.F.);
#391=ORIENTED_EDGE('',*,*,#546,.T.);
#392=ORIENTED_EDGE('',*,*,#593,.T.);
#393=ORIENTED_EDGE('',*,*,#594,.T.);
#394=ORIENTED_EDGE('',*,*,#595,.T.);
#395=ORIENTED_EDGE('',*,*,#548,.T.);
#396=ORIENTED_EDGE('',*,*,#596,.T.);
#397=ORIENTED_EDGE('',*,*,#597,.T.);
#398=ORIENTED_EDGE('',*,*,#598,.T.);
#399=ORIENTED_EDGE('',*,*,#550,.T.);
#400=ORIENTED_EDGE('',*,*,#599,.T.);
#401=ORIENTED_EDGE('',*,*,#600,.T.);
#402=ORIENTED_EDGE('',*,*,#601,.T.);
#403=ORIENTED_EDGE('',*,*,#594,.F.);
#404=ORIENTED_EDGE('',*,*,#602,.T.);
#405=ORIENTED_EDGE('',*,*,#603,.F.);
#406=ORIENTED_EDGE('',*,*,#604,.T.);
#407=ORIENTED_EDGE('',*,*,#600,.F.);
#408=ORIENTED_EDGE('',*,*,#605,.T.);
#409=ORIENTED_EDGE('',*,*,#597,.F.);
#410=ORIENTED_EDGE('',*,*,#606,.T.);
#411=ORIENTED_EDGE('',*,*,#603,.T.);
#412=ORIENTED_EDGE('',*,*,#607,.T.);
#413=ORIENTED_EDGE('',*,*,#552,.T.);
#414=ORIENTED_EDGE('',*,*,#608,.T.);
#415=ORIENTED_EDGE('',*,*,#553,.F.);
#416=ORIENTED_EDGE('',*,*,#607,.F.);
#417=ORIENTED_EDGE('',*,*,#602,.F.);
#418=ORIENTED_EDGE('',*,*,#593,.F.);
#419=ORIENTED_EDGE('',*,*,#547,.F.);
#420=ORIENTED_EDGE('',*,*,#595,.F.);
#421=ORIENTED_EDGE('',*,*,#606,.F.);
#422=ORIENTED_EDGE('',*,*,#596,.F.);
#423=ORIENTED_EDGE('',*,*,#549,.F.);
#424=ORIENTED_EDGE('',*,*,#598,.F.);
#425=ORIENTED_EDGE('',*,*,#605,.F.);
#426=ORIENTED_EDGE('',*,*,#599,.F.);
#427=ORIENTED_EDGE('',*,*,#551,.F.);
#428=ORIENTED_EDGE('',*,*,#601,.F.);
#429=ORIENTED_EDGE('',*,*,#604,.F.);
#430=ORIENTED_EDGE('',*,*,#608,.F.);
#431=ORIENTED_EDGE('',*,*,#609,.T.);
#432=ORIENTED_EDGE('',*,*,#544,.T.);
#433=ORIENTED_EDGE('',*,*,#589,.F.);
#434=ORIENTED_EDGE('',*,*,#610,.T.);
#435=ORIENTED_EDGE('',*,*,#583,.F.);
#436=ORIENTED_EDGE('',*,*,#611,.T.);
#437=ORIENTED_EDGE('',*,*,#612,.T.);
#438=ORIENTED_EDGE('',*,*,#613,.T.);
#439=ORIENTED_EDGE('',*,*,#585,.F.);
#440=ORIENTED_EDGE('',*,*,#614,.T.);
#441=ORIENTED_EDGE('',*,*,#615,.T.);
#442=ORIENTED_EDGE('',*,*,#616,.T.);
#443=ORIENTED_EDGE('',*,*,#617,.T.);
#444=ORIENTED_EDGE('',*,*,#618,.T.);
#445=ORIENTED_EDGE('',*,*,#587,.F.);
#446=ORIENTED_EDGE('',*,*,#619,.T.);
#447=ORIENTED_EDGE('',*,*,#620,.T.);
#448=ORIENTED_EDGE('',*,*,#621,.T.);
#449=ORIENTED_EDGE('',*,*,#541,.T.);
#450=ORIENTED_EDGE('',*,*,#609,.F.);
#451=ORIENTED_EDGE('',*,*,#622,.T.);
#452=ORIENTED_EDGE('',*,*,#617,.F.);
#453=ORIENTED_EDGE('',*,*,#623,.T.);
#454=ORIENTED_EDGE('',*,*,#615,.F.);
#455=ORIENTED_EDGE('',*,*,#624,.T.);
#456=ORIENTED_EDGE('',*,*,#612,.F.);
#457=ORIENTED_EDGE('',*,*,#582,.F.);
#458=ORIENTED_EDGE('',*,*,#625,.T.);
#459=ORIENTED_EDGE('',*,*,#620,.F.);
#460=ORIENTED_EDGE('',*,*,#611,.F.);
#461=ORIENTED_EDGE('',*,*,#588,.F.);
#462=ORIENTED_EDGE('',*,*,#618,.F.);
#463=ORIENTED_EDGE('',*,*,#622,.F.);
#464=ORIENTED_EDGE('',*,*,#610,.F.);
#465=ORIENTED_EDGE('',*,*,#584,.F.);
#466=ORIENTED_EDGE('',*,*,#613,.F.);
#467=ORIENTED_EDGE('',*,*,#624,.F.);
#468=ORIENTED_EDGE('',*,*,#614,.F.);
#469=ORIENTED_EDGE('',*,*,#586,.F.);
#470=ORIENTED_EDGE('',*,*,#616,.F.);
#471=ORIENTED_EDGE('',*,*,#623,.F.);
#472=ORIENTED_EDGE('',*,*,#619,.F.);
#473=ORIENTED_EDGE('',*,*,#626,.T.);
#474=ORIENTED_EDGE('',*,*,#621,.F.);
#475=ORIENTED_EDGE('',*,*,#625,.F.);
#476=ORIENTED_EDGE('',*,*,#581,.F.);
#477=ORIENTED_EDGE('',*,*,#542,.F.);
#478=ORIENTED_EDGE('',*,*,#626,.F.);
#479=ORIENTED_EDGE('',*,*,#627,.F.);
#480=ORIENTED_EDGE('',*,*,#545,.T.);
#481=ORIENTED_EDGE('',*,*,#627,.T.);
#482=VERTEX_POINT('',#900);
#483=VERTEX_POINT('',#901);
#484=VERTEX_POINT('',#903);
#485=VERTEX_POINT('',#905);
#486=VERTEX_POINT('',#909);
#487=VERTEX_POINT('',#911);
#488=VERTEX_POINT('',#912);
#489=VERTEX_POINT('',#914);
#490=VERTEX_POINT('',#916);
#491=VERTEX_POINT('',#918);
#492=VERTEX_POINT('',#920);
#493=VERTEX_POINT('',#922);
#494=VERTEX_POINT('',#924);
#495=VERTEX_POINT('',#927);
#496=VERTEX_POINT('',#928);
#497=VERTEX_POINT('',#930);
#498=VERTEX_POINT('',#932);
#499=VERTEX_POINT('',#934);
#500=VERTEX_POINT('',#936);
#501=VERTEX_POINT('',#938);
#502=VERTEX_POINT('',#942);
#503=VERTEX_POINT('',#943);
#504=VERTEX_POINT('',#945);
#505=VERTEX_POINT('',#947);
#506=VERTEX_POINT('',#949);
#507=VERTEX_POINT('',#951);
#508=VERTEX_POINT('',#955);
#509=VERTEX_POINT('',#957);
#510=VERTEX_POINT('',#962);
#511=VERTEX_POINT('',#964);
#512=VERTEX_POINT('',#970);
#513=VERTEX_POINT('',#978);
#514=VERTEX_POINT('',#982);
#515=VERTEX_POINT('',#984);
#516=VERTEX_POINT('',#986);
#517=VERTEX_POINT('',#988);
#518=VERTEX_POINT('',#990);
#519=VERTEX_POINT('',#992);
#520=VERTEX_POINT('',#994);
#521=VERTEX_POINT('',#996);
#522=VERTEX_POINT('',#999);
#523=VERTEX_POINT('',#1006);
#524=VERTEX_POINT('',#1008);
#525=VERTEX_POINT('',#1012);
#526=VERTEX_POINT('',#1014);
#527=VERTEX_POINT('',#1018);
#528=VERTEX_POINT('',#1020);
#529=VERTEX_POINT('',#1024);
#530=VERTEX_POINT('',#1026);
#531=VERTEX_POINT('',#1039);
#532=VERTEX_POINT('',#1043);
#533=VERTEX_POINT('',#1045);
#534=VERTEX_POINT('',#1049);
#535=VERTEX_POINT('',#1051);
#536=VERTEX_POINT('',#1055);
#537=VERTEX_POINT('',#1056);
#538=VERTEX_POINT('',#1061);
#539=VERTEX_POINT('',#1073);
#540=VERTEX_POINT('',#1077);
#541=EDGE_CURVE('',#482,#483,#628,.T.);
#542=EDGE_CURVE('',#482,#484,#184,.T.);
#543=EDGE_CURVE('',#485,#484,#629,.T.);
#544=EDGE_CURVE('',#483,#485,#185,.T.);
#545=EDGE_CURVE('',#486,#486,#630,.T.);
#546=EDGE_CURVE('',#487,#488,#186,.T.);
#547=EDGE_CURVE('',#487,#489,#631,.T.);
#548=EDGE_CURVE('',#490,#489,#187,.T.);
#549=EDGE_CURVE('',#490,#491,#632,.T.);
#550=EDGE_CURVE('',#492,#491,#188,.T.);
#551=EDGE_CURVE('',#492,#493,#633,.T.);
#552=EDGE_CURVE('',#494,#493,#189,.T.);
#553=EDGE_CURVE('',#494,#488,#634,.T.);
#554=EDGE_CURVE('',#495,#496,#190,.T.);
#555=EDGE_CURVE('',#495,#497,#635,.T.);
#556=EDGE_CURVE('',#498,#497,#191,.T.);
#557=EDGE_CURVE('',#498,#499,#192,.T.);
#558=EDGE_CURVE('',#499,#500,#193,.T.);
#559=EDGE_CURVE('',#501,#500,#194,.T.);
#560=EDGE_CURVE('',#496,#501,#195,.T.);
#561=EDGE_CURVE('',#502,#503,#196,.T.);
#562=EDGE_CURVE('',#504,#502,#197,.T.);
#563=EDGE_CURVE('',#504,#505,#198,.T.);
#564=EDGE_CURVE('',#505,#506,#199,.T.);
#565=EDGE_CURVE('',#506,#507,#200,.T.);
#566=EDGE_CURVE('',#503,#507,#201,.T.);
#567=EDGE_CURVE('',#508,#496,#202,.T.);
#568=EDGE_CURVE('',#509,#501,#203,.T.);
#569=EDGE_CURVE('',#509,#504,#204,.T.);
#570=EDGE_CURVE('',#508,#502,#205,.T.);
#571=EDGE_CURVE('',#500,#510,#206,.T.);
#572=EDGE_CURVE('',#511,#510,#207,.T.);
#573=EDGE_CURVE('',#511,#509,#208,.T.);
#574=EDGE_CURVE('',#505,#511,#209,.T.);
#575=EDGE_CURVE('',#510,#512,#210,.T.);
#576=EDGE_CURVE('',#512,#506,#211,.T.);
#577=EDGE_CURVE('',#507,#498,#212,.T.);
#578=EDGE_CURVE('',#512,#499,#213,.T.);
#579=EDGE_CURVE('',#508,#513,#214,.T.);
#580=EDGE_CURVE('',#513,#495,#215,.T.);
#581=EDGE_CURVE('',#484,#514,#636,.T.);
#582=EDGE_CURVE('',#514,#515,#637,.T.);
#583=EDGE_CURVE('',#515,#516,#216,.T.);
#584=EDGE_CURVE('',#516,#517,#638,.T.);
#585=EDGE_CURVE('',#517,#518,#217,.T.);
#586=EDGE_CURVE('',#518,#519,#639,.T.);
#587=EDGE_CURVE('',#519,#520,#218,.T.);
#588=EDGE_CURVE('',#520,#521,#640,.T.);
#589=EDGE_CURVE('',#521,#485,#219,.T.);
#590=EDGE_CURVE('',#522,#503,#220,.T.);
#591=EDGE_CURVE('',#522,#513,#641,.T.);
#592=EDGE_CURVE('',#497,#522,#221,.T.);
#593=EDGE_CURVE('',#488,#523,#222,.T.);
#594=EDGE_CURVE('',#523,#524,#223,.T.);
#595=EDGE_CURVE('',#524,#487,#224,.T.);
#596=EDGE_CURVE('',#489,#525,#225,.T.);
#597=EDGE_CURVE('',#525,#526,#226,.T.);
#598=EDGE_CURVE('',#526,#490,#227,.T.);
#599=EDGE_CURVE('',#491,#527,#228,.T.);
#600=EDGE_CURVE('',#527,#528,#229,.T.);
#601=EDGE_CURVE('',#528,#492,#230,.T.);
#602=EDGE_CURVE('',#523,#529,#642,.T.);
#603=EDGE_CURVE('',#530,#529,#231,.T.);
#604=EDGE_CURVE('',#530,#528,#643,.T.);
#605=EDGE_CURVE('',#527,#526,#644,.T.);
#606=EDGE_CURVE('',#525,#524,#645,.T.);
#607=EDGE_CURVE('',#529,#494,#232,.T.);
#608=EDGE_CURVE('',#493,#530,#233,.T.);
#609=EDGE_CURVE('',#531,#483,#234,.T.);
#610=EDGE_CURVE('',#521,#531,#235,.T.);
#611=EDGE_CURVE('',#515,#532,#236,.T.);
#612=EDGE_CURVE('',#532,#533,#237,.T.);
#613=EDGE_CURVE('',#533,#516,#238,.T.);
#614=EDGE_CURVE('',#517,#534,#239,.T.);
#615=EDGE_CURVE('',#534,#535,#240,.T.);
#616=EDGE_CURVE('',#535,#518,#241,.T.);
#617=EDGE_CURVE('',#536,#537,#242,.T.);
#618=EDGE_CURVE('',#537,#520,#243,.T.);
#619=EDGE_CURVE('',#519,#536,#244,.T.);
#620=EDGE_CURVE('',#532,#538,#646,.T.);
#621=EDGE_CURVE('',#538,#482,#647,.T.);
#622=EDGE_CURVE('',#531,#537,#648,.T.);
#623=EDGE_CURVE('',#536,#535,#649,.T.);
#624=EDGE_CURVE('',#534,#533,#650,.T.);
#625=EDGE_CURVE('',#514,#538,#245,.T.);
#626=EDGE_CURVE('',#539,#539,#651,.T.);
#627=EDGE_CURVE('',#540,#540,#652,.T.);
#628=CIRCLE('',#654,9.2);
#629=CIRCLE('',#655,9.2);
#630=CIRCLE('',#657,2.95);
#631=CIRCLE('',#658,11.2);
#632=CIRCLE('',#659,11.2);
#633=CIRCLE('',#660,11.2);
#634=CIRCLE('',#661,11.2);
#635=CIRCLE('',#662,3.3);
#636=CIRCLE('',#672,2.95);
#637=CIRCLE('',#673,9.2);
#638=CIRCLE('',#674,9.2);
#639=CIRCLE('',#675,9.2);
#640=CIRCLE('',#676,9.2);
#641=CIRCLE('',#677,3.3);
#642=CIRCLE('',#684,11.2);
#643=CIRCLE('',#685,11.2);
#644=CIRCLE('',#686,11.2);
#645=CIRCLE('',#687,11.2);
#646=CIRCLE('',#698,9.2);
#647=CIRCLE('',#699,2.95);
#648=CIRCLE('',#700,9.2);
#649=CIRCLE('',#701,9.2);
#650=CIRCLE('',#702,9.2);
#651=CIRCLE('',#708,2.95);
#652=CIRCLE('',#711,2.95);
#653=AXIS2_PLACEMENT_3D('',#898,#714,#715);
#654=AXIS2_PLACEMENT_3D('',#899,#716,#717);
#655=AXIS2_PLACEMENT_3D('',#904,#719,#720);
#656=AXIS2_PLACEMENT_3D('',#907,#722,#723);
#657=AXIS2_PLACEMENT_3D('',#908,#724,#725);
#658=AXIS2_PLACEMENT_3D('',#913,#727,#728);
#659=AXIS2_PLACEMENT_3D('',#917,#730,#731);
#660=AXIS2_PLACEMENT_3D('',#921,#733,#734);
#661=AXIS2_PLACEMENT_3D('',#925,#736,#737);
#662=AXIS2_PLACEMENT_3D('',#929,#739,#740);
#663=AXIS2_PLACEMENT_3D('',#940,#746,#747);
#664=AXIS2_PLACEMENT_3D('',#953,#754,#755);
#665=AXIS2_PLACEMENT_3D('',#960,#760,#761);
#666=AXIS2_PLACEMENT_3D('',#966,#765,#766);
#667=AXIS2_PLACEMENT_3D('',#968,#768,#769);
#668=AXIS2_PLACEMENT_3D('',#972,#772,#773);
#669=AXIS2_PLACEMENT_3D('',#975,#776,#777);
#670=AXIS2_PLACEMENT_3D('',#976,#778,#779);
#671=AXIS2_PLACEMENT_3D('',#980,#782,#783);
#672=AXIS2_PLACEMENT_3D('',#981,#784,#785);
#673=AXIS2_PLACEMENT_3D('',#983,#786,#787);
#674=AXIS2_PLACEMENT_3D('',#987,#789,#790);
#675=AXIS2_PLACEMENT_3D('',#991,#792,#793);
#676=AXIS2_PLACEMENT_3D('',#995,#795,#796);
#677=AXIS2_PLACEMENT_3D('',#1000,#799,#800);
#678=AXIS2_PLACEMENT_3D('',#1001,#801,#802);
#679=AXIS2_PLACEMENT_3D('',#1003,#804,#805);
#680=AXIS2_PLACEMENT_3D('',#1004,#806,#807);
#681=AXIS2_PLACEMENT_3D('',#1010,#811,#812);
#682=AXIS2_PLACEMENT_3D('',#1016,#816,#817);
#683=AXIS2_PLACEMENT_3D('',#1022,#821,#822);
#684=AXIS2_PLACEMENT_3D('',#1023,#823,#824);
#685=AXIS2_PLACEMENT_3D('',#1027,#826,#827);
#686=AXIS2_PLACEMENT_3D('',#1028,#828,#829);
#687=AXIS2_PLACEMENT_3D('',#1029,#830,#831);
#688=AXIS2_PLACEMENT_3D('',#1030,#832,#833);
#689=AXIS2_PLACEMENT_3D('',#1033,#836,#837);
#690=AXIS2_PLACEMENT_3D('',#1034,#838,#839);
#691=AXIS2_PLACEMENT_3D('',#1035,#840,#841);
#692=AXIS2_PLACEMENT_3D('',#1036,#842,#843);
#693=AXIS2_PLACEMENT_3D('',#1037,#844,#845);
#694=AXIS2_PLACEMENT_3D('',#1041,#848,#849);
#695=AXIS2_PLACEMENT_3D('',#1047,#853,#854);
#696=AXIS2_PLACEMENT_3D('',#1053,#858,#859);
#697=AXIS2_PLACEMENT_3D('',#1059,#863,#864);
#698=AXIS2_PLACEMENT_3D('',#1060,#865,#866);
#699=AXIS2_PLACEMENT_3D('',#1062,#867,#868);
#700=AXIS2_PLACEMENT_3D('',#1063,#869,#870);
#701=AXIS2_PLACEMENT_3D('',#1064,#871,#872);
#702=AXIS2_PLACEMENT_3D('',#1065,#873,#874);
#703=AXIS2_PLACEMENT_3D('',#1066,#875,#876);
#704=AXIS2_PLACEMENT_3D('',#1068,#878,#879);
#705=AXIS2_PLACEMENT_3D('',#1069,#880,#881);
#706=AXIS2_PLACEMENT_3D('',#1070,#882,#883);
#707=AXIS2_PLACEMENT_3D('',#1071,#884,#885);
#708=AXIS2_PLACEMENT_3D('',#1072,#886,#887);
#709=AXIS2_PLACEMENT_3D('',#1074,#888,#889);
#710=AXIS2_PLACEMENT_3D('',#1075,#890,#891);
#711=AXIS2_PLACEMENT_3D('',#1076,#892,#893);
#712=AXIS2_PLACEMENT_3D('',#1078,#894,#895);
#713=AXIS2_PLACEMENT_3D('',#1079,#896,#897);
#714=DIRECTION('',(0.,0.,1.));
#715=DIRECTION('',(1.,0.,0.));
#716=DIRECTION('',(0.,0.,1.));
#717=DIRECTION('',(-1.,0.,0.));
#718=DIRECTION('',(0.,0.,1.));
#719=DIRECTION('',(0.,0.,-1.));
#720=DIRECTION('',(-1.,0.,0.));
#721=DIRECTION('',(0.,0.,1.));
#722=DIRECTION('',(0.,0.,1.));
#723=DIRECTION('',(1.,0.,0.));
#724=DIRECTION('',(0.,0.,1.));
#725=DIRECTION('',(1.,0.,0.));
#726=DIRECTION('',(1.,0.,0.));
#727=DIRECTION('',(0.,0.,-1.));
#728=DIRECTION('',(1.,0.,0.));
#729=DIRECTION('',(0.,-1.,0.));
#730=DIRECTION('',(0.,0.,-1.));
#731=DIRECTION('',(1.,0.,0.));
#732=DIRECTION('',(-1.,0.,0.));
#733=DIRECTION('',(0.,0.,-1.));
#734=DIRECTION('',(0.999999999999999,0.,0.));
#735=DIRECTION('',(0.,1.,0.));
#736=DIRECTION('',(0.,0.,-1.));
#737=DIRECTION('',(0.999999999999999,0.,0.));
#738=DIRECTION('',(-1.,0.,0.));
#739=DIRECTION('',(0.,0.,-1.));
#740=DIRECTION('',(0.999999999999999,0.,0.));
#741=DIRECTION('',(0.,1.,0.));
#742=DIRECTION('',(1.,0.,0.));
#743=DIRECTION('',(0.,1.,0.));
#744=DIRECTION('',(1.,0.,0.));
#745=DIRECTION('',(0.,1.,0.));
#746=DIRECTION('',(0.,0.,1.));
#747=DIRECTION('',(1.,0.,0.));
#748=DIRECTION('',(1.,0.,0.));
#749=DIRECTION('',(0.,0.,1.));
#750=DIRECTION('',(1.,0.,0.));
#751=DIRECTION('',(0.,0.,1.));
#752=DIRECTION('',(-1.,0.,0.));
#753=DIRECTION('',(0.,0.,1.));
#754=DIRECTION('',(0.,-1.,0.));
#755=DIRECTION('',(0.,0.,-1.));
#756=DIRECTION('',(0.,0.,1.));
#757=DIRECTION('',(0.,0.,1.));
#758=DIRECTION('',(0.,-1.,0.));
#759=DIRECTION('',(0.,-1.,0.));
#760=DIRECTION('',(-1.,0.,0.));
#761=DIRECTION('',(0.,0.,1.));
#762=DIRECTION('',(0.707106781186547,0.,-0.707106781186548));
#763=DIRECTION('',(0.,0.,1.));
#764=DIRECTION('',(-1.,0.,0.));
#765=DIRECTION('',(0.,1.,0.));
#766=DIRECTION('',(0.,0.,1.));
#767=DIRECTION('',(0.,1.,0.));
#768=DIRECTION('',(0.,0.,-1.));
#769=DIRECTION('',(-1.,0.,0.));
#770=DIRECTION('',(0.,-1.,0.));
#771=DIRECTION('',(0.,-0.707106781186548,-0.707106781186547));
#772=DIRECTION('',(1.,0.,0.));
#773=DIRECTION('',(0.,0.,-1.));
#774=DIRECTION('',(0.,0.707106781186548,0.707106781186547));
#775=DIRECTION('',(-0.577350269189624,0.577350269189627,0.577350269189626));
#776=DIRECTION('',(0.,0.707106781186547,-0.707106781186548));
#777=DIRECTION('',(-1.,0.,0.));
#778=DIRECTION('',(-0.707106781186548,0.,-0.707106781186547));
#779=DIRECTION('',(0.,-1.,0.));
#780=DIRECTION('',(1.,0.,0.));
#781=DIRECTION('',(0.,0.,1.));
#782=DIRECTION('',(0.,1.,0.));
#783=DIRECTION('',(0.,0.,1.));
#784=DIRECTION('',(0.,0.,-1.));
#785=DIRECTION('',(-1.,0.,0.));
#786=DIRECTION('',(0.,0.,-1.));
#787=DIRECTION('',(-1.,0.,0.));
#788=DIRECTION('',(0.,1.,0.));
#789=DIRECTION('',(0.,0.,-1.));
#790=DIRECTION('',(-1.,0.,0.));
#791=DIRECTION('',(1.,0.,0.));
#792=DIRECTION('',(0.,0.,-1.));
#793=DIRECTION('',(-1.,0.,0.));
#794=DIRECTION('',(0.,-1.,0.));
#795=DIRECTION('',(0.,0.,-1.));
#796=DIRECTION('',(-1.,0.,0.));
#797=DIRECTION('',(-1.,0.,0.));
#798=DIRECTION('',(0.,-1.,0.));
#799=DIRECTION('',(0.,0.,1.));
#800=DIRECTION('',(-0.999999999999999,0.,0.));
#801=DIRECTION('',(0.,0.,-1.));
#802=DIRECTION('',(-1.,0.,0.));
#803=DIRECTION('',(0.,0.,-1.));
#804=DIRECTION('',(1.,0.,0.));
#805=DIRECTION('',(0.,0.,-1.));
#806=DIRECTION('',(0.,0.,1.));
#807=DIRECTION('',(0.999999999999999,0.,0.));
#808=DIRECTION('',(0.,0.,-1.));
#809=DIRECTION('',(-1.,0.,0.));
#810=DIRECTION('',(0.,0.,1.));
#811=DIRECTION('',(0.,-1.,0.));
#812=DIRECTION('',(0.,0.,-1.));
#813=DIRECTION('',(0.,0.,-1.));
#814=DIRECTION('',(0.,1.,0.));
#815=DIRECTION('',(0.,0.,1.));
#816=DIRECTION('',(-1.,0.,0.));
#817=DIRECTION('',(0.,0.,1.));
#818=DIRECTION('',(0.,0.,-1.));
#819=DIRECTION('',(1.,0.,0.));
#820=DIRECTION('',(0.,0.,1.));
#821=DIRECTION('',(0.,1.,0.));
#822=DIRECTION('',(0.,0.,1.));
#823=DIRECTION('',(0.,0.,1.));
#824=DIRECTION('',(-1.,0.,0.));
#825=DIRECTION('',(0.,-1.,0.));
#826=DIRECTION('',(0.,0.,1.));
#827=DIRECTION('',(-1.,0.,0.));
#828=DIRECTION('',(0.,0.,1.));
#829=DIRECTION('',(-1.,0.,0.));
#830=DIRECTION('',(0.,0.,1.));
#831=DIRECTION('',(-1.,0.,0.));
#832=DIRECTION('',(0.,0.,-1.));
#833=DIRECTION('',(-1.,0.,0.));
#834=DIRECTION('',(0.,0.,1.));
#835=DIRECTION('',(0.,0.,-1.));
#836=DIRECTION('',(1.,0.,0.));
#837=DIRECTION('',(0.,0.,-1.));
#838=DIRECTION('',(0.,0.,1.));
#839=DIRECTION('',(0.999999999999999,0.,0.));
#840=DIRECTION('',(0.,0.,1.));
#841=DIRECTION('',(1.,0.,0.));
#842=DIRECTION('',(0.,0.,1.));
#843=DIRECTION('',(1.,0.,0.));
#844=DIRECTION('',(0.,0.,1.));
#845=DIRECTION('',(0.999999999999999,0.,0.));
#846=DIRECTION('',(-1.,0.,0.));
#847=DIRECTION('',(0.,0.,-1.));
#848=DIRECTION('',(0.,-1.,0.));
#849=DIRECTION('',(0.,0.,-1.));
#850=DIRECTION('',(0.,0.,-1.));
#851=DIRECTION('',(0.,1.,0.));
#852=DIRECTION('',(0.,0.,1.));
#853=DIRECTION('',(-1.,0.,0.));
#854=DIRECTION('',(0.,0.,1.));
#855=DIRECTION('',(0.,0.,-1.));
#856=DIRECTION('',(1.,0.,0.));
#857=DIRECTION('',(0.,0.,1.));
#858=DIRECTION('',(0.,1.,0.));
#859=DIRECTION('',(0.,0.,1.));
#860=DIRECTION('',(0.,-1.,0.));
#861=DIRECTION('',(0.,0.,1.));
#862=DIRECTION('',(0.,0.,-1.));
#863=DIRECTION('',(1.,0.,0.));
#864=DIRECTION('',(0.,0.,-1.));
#865=DIRECTION('',(0.,0.,1.));
#866=DIRECTION('',(-1.,0.,0.));
#867=DIRECTION('',(0.,0.,-1.));
#868=DIRECTION('',(-1.,0.,0.));
#869=DIRECTION('',(0.,0.,1.));
#870=DIRECTION('',(-1.,0.,0.));
#871=DIRECTION('',(0.,0.,1.));
#872=DIRECTION('',(-1.,0.,0.));
#873=DIRECTION('',(0.,0.,1.));
#874=DIRECTION('',(-1.,0.,0.));
#875=DIRECTION('',(0.,0.,-1.));
#876=DIRECTION('',(-1.,0.,0.));
#877=DIRECTION('',(0.,0.,-1.));
#878=DIRECTION('',(0.,0.,1.));
#879=DIRECTION('',(1.,0.,0.));
#880=DIRECTION('',(0.,0.,1.));
#881=DIRECTION('',(1.,0.,0.));
#882=DIRECTION('',(0.,0.,1.));
#883=DIRECTION('',(1.,0.,0.));
#884=DIRECTION('',(0.,0.,1.));
#885=DIRECTION('',(1.,0.,0.));
#886=DIRECTION('',(0.,0.,-1.));
#887=DIRECTION('',(1.,0.,0.));
#888=DIRECTION('',(0.,0.,-1.));
#889=DIRECTION('',(1.,0.,0.));
#890=DIRECTION('',(0.,0.,-1.));
#891=DIRECTION('',(-1.,0.,0.));
#892=DIRECTION('',(0.,0.,-1.));
#893=DIRECTION('',(1.,0.,0.));
#894=DIRECTION('',(0.,0.,-1.));
#895=DIRECTION('',(-1.,0.,0.));
#896=DIRECTION('',(0.,0.,-1.));
#897=DIRECTION('',(1.,0.,0.));
#898=CARTESIAN_POINT('',(0.,0.,0.));
#899=CARTESIAN_POINT('',(26.4,21.8,69.9));
#900=CARTESIAN_POINT('',(25.5388907738814,12.6403880594922,69.9));
#901=CARTESIAN_POINT('',(26.4,12.6,69.9));
#902=CARTESIAN_POINT('',(25.5388907738814,12.6403880594922,88.375));
#903=CARTESIAN_POINT('',(25.5388907738814,12.6403880594922,81.9));
#904=CARTESIAN_POINT('',(26.4,21.8,81.9));
#905=CARTESIAN_POINT('',(26.4,12.6,81.9));
#906=CARTESIAN_POINT('',(26.4,12.6,81.9));
#907=CARTESIAN_POINT('',(26.4,21.8,69.9));
#908=CARTESIAN_POINT('',(23.1,169.6,107.8));
#909=CARTESIAN_POINT('',(26.05,169.6,107.8));
#910=CARTESIAN_POINT('',(117.55,80.1,107.8));
#911=CARTESIAN_POINT('',(56.,80.1,107.8));
#912=CARTESIAN_POINT('',(135.6,80.1,107.8));
#913=CARTESIAN_POINT('',(56.,91.3,107.8));
#914=CARTESIAN_POINT('',(44.8,91.3,107.8));
#915=CARTESIAN_POINT('',(44.8,159.35,107.8));
#916=CARTESIAN_POINT('',(44.8,196.5,107.8));
#917=CARTESIAN_POINT('',(56.,196.5,107.8));
#918=CARTESIAN_POINT('',(56.,207.7,107.8));
#919=CARTESIAN_POINT('',(117.55,207.7,107.8));
#920=CARTESIAN_POINT('',(135.6,207.7,107.8));
#921=CARTESIAN_POINT('',(135.6,196.5,107.8));
#922=CARTESIAN_POINT('',(146.8,196.5,107.8));
#923=CARTESIAN_POINT('',(146.8,159.35,107.8));
#924=CARTESIAN_POINT('',(146.8,91.3,107.8));
#925=CARTESIAN_POINT('',(135.6,91.3,107.8));
#926=CARTESIAN_POINT('',(117.55,52.8,107.8));
#927=CARTESIAN_POINT('',(65.,52.8,107.8));
#928=CARTESIAN_POINT('',(0.,52.8,107.8));
#929=CARTESIAN_POINT('',(65.,49.5,107.8));
#930=CARTESIAN_POINT('',(68.3,49.5,107.8));
#931=CARTESIAN_POINT('',(68.3,159.35,107.8));
#932=CARTESIAN_POINT('',(68.3,6.20000000000001,107.8));
#933=CARTESIAN_POINT('',(117.55,6.20000000000001,107.8));
#934=CARTESIAN_POINT('',(229.7,6.20000000000001,107.8));
#935=CARTESIAN_POINT('',(229.7,159.35,107.8));
#936=CARTESIAN_POINT('',(229.7,318.7,107.8));
#937=CARTESIAN_POINT('',(117.55,318.7,107.8));
#938=CARTESIAN_POINT('',(0.,318.7,107.8));
#939=CARTESIAN_POINT('',(0.,159.35,107.8));
#940=CARTESIAN_POINT('',(117.55,159.35,107.8));
#941=CARTESIAN_POINT('',(34.15,0.,81.9));
#942=CARTESIAN_POINT('',(0.,0.,81.9));
#943=CARTESIAN_POINT('',(68.3,0.,81.9));
#944=CARTESIAN_POINT('',(0.,0.,0.));
#945=CARTESIAN_POINT('',(0.,0.,0.));
#946=CARTESIAN_POINT('',(117.55,0.,0.));
#947=CARTESIAN_POINT('',(235.1,0.,0.));
#948=CARTESIAN_POINT('',(235.1,0.,0.));
#949=CARTESIAN_POINT('',(235.1,0.,101.6));
#950=CARTESIAN_POINT('',(117.55,0.,101.6));
#951=CARTESIAN_POINT('',(68.3,0.,101.6));
#952=CARTESIAN_POINT('',(68.3,0.,81.9));
#953=CARTESIAN_POINT('',(117.55,0.,0.));
#954=CARTESIAN_POINT('',(0.,52.8,81.9));
#955=CARTESIAN_POINT('',(0.,52.8,81.9));
#956=CARTESIAN_POINT('',(0.,318.7,0.));
#957=CARTESIAN_POINT('',(0.,318.7,0.));
#958=CARTESIAN_POINT('',(0.,159.35,0.));
#959=CARTESIAN_POINT('',(0.,26.4,81.9));
#960=CARTESIAN_POINT('',(0.,159.35,0.));
#961=CARTESIAN_POINT('',(227.525,318.7,109.975));
#962=CARTESIAN_POINT('',(235.1,318.7,102.4));
#963=CARTESIAN_POINT('',(235.1,318.7,0.));
#964=CARTESIAN_POINT('',(235.1,318.7,0.));
#965=CARTESIAN_POINT('',(117.55,318.7,0.));
#966=CARTESIAN_POINT('',(117.55,318.7,0.));
#967=CARTESIAN_POINT('',(235.1,159.35,0.));
#968=CARTESIAN_POINT('',(117.55,159.35,0.));
#969=CARTESIAN_POINT('',(235.1,159.35,102.4));
#970=CARTESIAN_POINT('',(235.1,0.800000000000016,102.4));
#971=CARTESIAN_POINT('',(235.1,28.8750000000002,130.475));
#972=CARTESIAN_POINT('',(235.1,159.35,0.));
#973=CARTESIAN_POINT('',(68.3,0.,101.6));
#974=CARTESIAN_POINT('',(196.45,39.45,141.05));
#975=CARTESIAN_POINT('',(117.55,0.,101.6));
#976=CARTESIAN_POINT('',(235.1,159.35,102.4));
#977=CARTESIAN_POINT('',(34.15,52.8,81.9));
#978=CARTESIAN_POINT('',(65.,52.8,81.9));
#979=CARTESIAN_POINT('',(65.,52.8,107.8));
#980=CARTESIAN_POINT('',(34.15,52.8,81.9));
#981=CARTESIAN_POINT('',(23.1,14.3,81.9));
#982=CARTESIAN_POINT('',(20.2287030598988,14.9768706536445,81.9));
#983=CARTESIAN_POINT('',(26.4,21.8,81.9));
#984=CARTESIAN_POINT('',(17.2,21.8,81.9));
#985=CARTESIAN_POINT('',(17.2,26.4,81.9));
#986=CARTESIAN_POINT('',(17.2,23.8,81.9));
#987=CARTESIAN_POINT('',(26.4,23.8,81.9));
#988=CARTESIAN_POINT('',(26.4,33.,81.9));
#989=CARTESIAN_POINT('',(34.15,33.,81.9));
#990=CARTESIAN_POINT('',(32.1,33.,81.9));
#991=CARTESIAN_POINT('',(32.1,23.8,81.9));
#992=CARTESIAN_POINT('',(41.3,23.8,81.9));
#993=CARTESIAN_POINT('',(41.3,26.4,81.9));
#994=CARTESIAN_POINT('',(41.3,21.8,81.9));
#995=CARTESIAN_POINT('',(32.1,21.8,81.9));
#996=CARTESIAN_POINT('',(32.1,12.6,81.9));
#997=CARTESIAN_POINT('',(34.15,12.6,81.9));
#998=CARTESIAN_POINT('',(68.3,26.4,81.9));
#999=CARTESIAN_POINT('',(68.3,49.5,81.9));
#1000=CARTESIAN_POINT('',(65.,49.5,81.9));
#1001=CARTESIAN_POINT('',(34.15,26.4,81.9));
#1002=CARTESIAN_POINT('',(68.3,49.5,81.9));
#1003=CARTESIAN_POINT('',(68.3,26.4,81.9));
#1004=CARTESIAN_POINT('',(65.,49.5,81.9));
#1005=CARTESIAN_POINT('',(135.6,80.1,69.9));
#1006=CARTESIAN_POINT('',(135.6,80.1,69.9));
#1007=CARTESIAN_POINT('',(95.8,80.1,69.9));
#1008=CARTESIAN_POINT('',(56.,80.1,69.9));
#1009=CARTESIAN_POINT('',(56.,80.1,107.8));
#1010=CARTESIAN_POINT('',(95.8,80.1,69.9));
#1011=CARTESIAN_POINT('',(44.8,91.3,69.9));
#1012=CARTESIAN_POINT('',(44.8,91.3,69.9));
#1013=CARTESIAN_POINT('',(44.8,143.9,69.9));
#1014=CARTESIAN_POINT('',(44.8,196.5,69.9));
#1015=CARTESIAN_POINT('',(44.8,196.5,107.8));
#1016=CARTESIAN_POINT('',(44.8,143.9,69.9));
#1017=CARTESIAN_POINT('',(56.,207.7,69.9));
#1018=CARTESIAN_POINT('',(56.,207.7,69.9));
#1019=CARTESIAN_POINT('',(95.8,207.7,69.9));
#1020=CARTESIAN_POINT('',(135.6,207.7,69.9));
#1021=CARTESIAN_POINT('',(135.6,207.7,107.8));
#1022=CARTESIAN_POINT('',(95.8,207.7,69.9));
#1023=CARTESIAN_POINT('',(135.6,91.3,69.9));
#1024=CARTESIAN_POINT('',(146.8,91.3,69.9));
#1025=CARTESIAN_POINT('',(146.8,143.9,69.9));
#1026=CARTESIAN_POINT('',(146.8,196.5,69.9));
#1027=CARTESIAN_POINT('',(135.6,196.5,69.9));
#1028=CARTESIAN_POINT('',(56.,196.5,69.9));
#1029=CARTESIAN_POINT('',(56.,91.3,69.9));
#1030=CARTESIAN_POINT('',(95.8,143.9,69.9));
#1031=CARTESIAN_POINT('',(146.8,91.3,107.8));
#1032=CARTESIAN_POINT('',(146.8,196.5,69.9));
#1033=CARTESIAN_POINT('',(146.8,143.9,69.9));
#1034=CARTESIAN_POINT('',(135.6,91.3,69.9));
#1035=CARTESIAN_POINT('',(56.,91.3,69.9));
#1036=CARTESIAN_POINT('',(56.,196.5,69.9));
#1037=CARTESIAN_POINT('',(135.6,196.5,69.9));
#1038=CARTESIAN_POINT('',(29.25,12.6,69.9));
#1039=CARTESIAN_POINT('',(32.1,12.6,69.9));
#1040=CARTESIAN_POINT('',(32.1,12.6,69.9));
#1041=CARTESIAN_POINT('',(29.25,12.6,69.9));
#1042=CARTESIAN_POINT('',(17.2,21.8,69.9));
#1043=CARTESIAN_POINT('',(17.2,21.8,69.9));
#1044=CARTESIAN_POINT('',(17.2,22.8,69.9));
#1045=CARTESIAN_POINT('',(17.2,23.8,69.9));
#1046=CARTESIAN_POINT('',(17.2,23.8,81.9));
#1047=CARTESIAN_POINT('',(17.2,22.8,69.9));
#1048=CARTESIAN_POINT('',(26.4,33.,69.9));
#1049=CARTESIAN_POINT('',(26.4,33.,69.9));
#1050=CARTESIAN_POINT('',(29.25,33.,69.9));
#1051=CARTESIAN_POINT('',(32.1,33.,69.9));
#1052=CARTESIAN_POINT('',(32.1,33.,81.9));
#1053=CARTESIAN_POINT('',(29.25,33.,69.9));
#1054=CARTESIAN_POINT('',(41.3,22.8,69.9));
#1055=CARTESIAN_POINT('',(41.3,23.8,69.9));
#1056=CARTESIAN_POINT('',(41.3,21.8,69.9));
#1057=CARTESIAN_POINT('',(41.3,21.8,81.9));
#1058=CARTESIAN_POINT('',(41.3,23.8,69.9));
#1059=CARTESIAN_POINT('',(41.3,22.8,69.9));
#1060=CARTESIAN_POINT('',(26.4,21.8,69.9));
#1061=CARTESIAN_POINT('',(20.2287030598988,14.9768706536445,69.9));
#1062=CARTESIAN_POINT('',(23.1,14.3,69.9));
#1063=CARTESIAN_POINT('',(32.1,21.8,69.9));
#1064=CARTESIAN_POINT('',(32.1,23.8,69.9));
#1065=CARTESIAN_POINT('',(26.4,23.8,69.9));
#1066=CARTESIAN_POINT('',(29.25,22.8,69.9));
#1067=CARTESIAN_POINT('',(20.2287030598988,14.9768706536445,88.375));
#1068=CARTESIAN_POINT('',(26.4,21.8,69.9));
#1069=CARTESIAN_POINT('',(32.1,21.8,69.9));
#1070=CARTESIAN_POINT('',(26.4,23.8,69.9));
#1071=CARTESIAN_POINT('',(32.1,23.8,69.9));
#1072=CARTESIAN_POINT('',(23.1,14.3,68.9));
#1073=CARTESIAN_POINT('',(26.05,14.3,68.9));
#1074=CARTESIAN_POINT('',(23.1,14.3,107.85));
#1075=CARTESIAN_POINT('',(23.1,14.3,68.9));
#1076=CARTESIAN_POINT('',(23.1,169.6,58.6));
#1077=CARTESIAN_POINT('',(26.05,169.6,58.6));
#1078=CARTESIAN_POINT('',(23.1,169.6,58.6));
#1079=CARTESIAN_POINT('',(23.1,169.6,107.85));
#1080=MECHANICAL_DESIGN_GEOMETRIC_PRESENTATION_REPRESENTATION('',(#24),
#1081);
#1081=(
GEOMETRIC_REPRESENTATION_CONTEXT(3)
GLOBAL_UNCERTAINTY_ASSIGNED_CONTEXT((#1082))
GLOBAL_UNIT_ASSIGNED_CONTEXT((#1088,#1084,#1083))
REPRESENTATION_CONTEXT('featured_part_04913','TOP_LEVEL_ASSEMBLY_PART')
);
#1082=UNCERTAINTY_MEASURE_WITH_UNIT(LENGTH_MEASURE(2.E-5),#1088,
'DISTANCE_ACCURACY_VALUE','Maximum Tolerance applied to model');
#1083=(
NAMED_UNIT(*)
SI_UNIT($,.STERADIAN.)
SOLID_ANGLE_UNIT()
);
#1084=(
CONVERSION_BASED_UNIT('DEGREE',#1086)
NAMED_UNIT(#1085)
PLANE_ANGLE_UNIT()
);
#1085=DIMENSIONAL_EXPONENTS(0.,0.,0.,0.,0.,0.,0.);
#1086=PLANE_ANGLE_MEASURE_WITH_UNIT(PLANE_ANGLE_MEASURE(0.0174532925),#1087);
#1087=(
NAMED_UNIT(*)
PLANE_ANGLE_UNIT()
SI_UNIT($,.RADIAN.)
);
#1088=(
LENGTH_UNIT()
NAMED_UNIT(*)
SI_UNIT(.MILLI.,.METRE.)
);
ENDSEC;
END-ISO-10303-21;
