ISO-10303-21;
HEADER;
/* Generated by software containing ST-Developer
 * from STEP Tools, Inc. (www.steptools.com) 
 */
/* OPTION: using custom schema-name function */

FILE_DESCRIPTION(
/* description */ (''),
/* implementation_level */ '2;1');

FILE_NAME(
/* name */ 'featured_part_06468.stp',
/* time_stamp */ '2026-07-14T14:12:00-04:00',
/* author */ (''),
/* organization */ (''),
/* preprocessor_version */ 'ST-DEVELOPER v20.1',
/* originating_system */ 'SIEMENS PLM Software NX2512.6002',
/* authorisation */ '');

FILE_SCHEMA (('AUTOMOTIVE_DESIGN { 1 0 10303 214 3 1 1 1 }'));
ENDSEC;

DATA;
#10=SHAPE_REPRESENTATION_RELATIONSHIP('None',
'relationship between featured_part_06468-None and featured_part_06468
-None',#22,#11);
#11=ADVANCED_BREP_SHAPE_REPRESENTATION('featured_part_06468-None',(#32),
#629);
#12=SHAPE_DEFINITION_REPRESENTATION(#13,#22);
#13=PRODUCT_DEFINITION_SHAPE('','',#14);
#14=PRODUCT_DEFINITION(' ','',#16,#15);
#15=PRODUCT_DEFINITION_CONTEXT('part definition',#21,'design');
#16=PRODUCT_DEFINITION_FORMATION_WITH_SPECIFIED_SOURCE(' ',' ',#18,
 .NOT_KNOWN.);
#17=PRODUCT_RELATED_PRODUCT_CATEGORY('part','',(#18));
#18=PRODUCT('featured_part_06468','featured_part_06468',' ',(#19));
#19=PRODUCT_CONTEXT(' ',#21,'mechanical');
#20=APPLICATION_PROTOCOL_DEFINITION('international standard',
'automotive_design',2010,#21);
#21=APPLICATION_CONTEXT(
'core data for automotive mechanical design processes');
#22=SHAPE_REPRESENTATION('featured_part_06468-None',(#394),#629);
#23=PRESENTATION_LAYER_ASSIGNMENT('1','Layer 1',(#32));
#24=STYLED_ITEM('',(#25),#32);
#25=PRESENTATION_STYLE_ASSIGNMENT((#26));
#26=SURFACE_STYLE_USAGE(.BOTH.,#27);
#27=SURFACE_SIDE_STYLE('',(#28));
#28=SURFACE_STYLE_FILL_AREA(#29);
#29=FILL_AREA_STYLE('',(#30));
#30=FILL_AREA_STYLE_COLOUR('',#31);
#31=COLOUR_RGB('medium steel',0.611764705882353,0.658823529411765,0.670588235294118);
#32=MANIFOLD_SOLID_BREP('',#33);
#33=CLOSED_SHELL('',(#63,#64,#65,#66,#67,#68,#69,#70,#71,#72,#73,#74,#75,
#76,#77,#78,#79,#80,#81,#82));
#34=CYLINDRICAL_SURFACE('',#417,8.75);
#35=CYLINDRICAL_SURFACE('',#420,3.55);
#36=CYLINDRICAL_SURFACE('',#421,9.);
#37=CYLINDRICAL_SURFACE('',#424,3.25);
#38=ELLIPSE('',#410,4.59619407771256,3.25);
#39=FACE_BOUND('',#113,.T.);
#40=FACE_BOUND('',#114,.T.);
#41=FACE_BOUND('',#116,.T.);
#42=FACE_BOUND('',#117,.T.);
#43=FACE_BOUND('',#121,.T.);
#44=FACE_BOUND('',#122,.T.);
#45=FACE_BOUND('',#123,.T.);
#46=FACE_BOUND('',#130,.T.);
#47=FACE_BOUND('',#131,.T.);
#48=FACE_BOUND('',#133,.T.);
#49=FACE_BOUND('',#134,.T.);
#50=FACE_BOUND('',#135,.T.);
#51=FACE_BOUND('',#136,.T.);
#52=FACE_BOUND('',#138,.T.);
#53=FACE_BOUND('',#139,.T.);
#54=CIRCLE('',#396,8.75);
#55=CIRCLE('',#399,3.25);
#56=CIRCLE('',#400,9.);
#57=CIRCLE('',#401,3.55);
#58=CIRCLE('',#406,9.);
#59=CIRCLE('',#407,8.75);
#60=CIRCLE('',#415,9.);
#61=CIRCLE('',#418,3.55);
#62=CIRCLE('',#422,3.25);
#63=ADVANCED_FACE('',(#99),#83,.F.);
#64=ADVANCED_FACE('',(#39,#40),#84,.T.);
#65=ADVANCED_FACE('',(#100),#85,.F.);
#66=ADVANCED_FACE('',(#41,#42),#86,.T.);
#67=ADVANCED_FACE('',(#101),#87,.T.);
#68=ADVANCED_FACE('',(#102),#88,.T.);
#69=ADVANCED_FACE('',(#103),#89,.T.);
#70=ADVANCED_FACE('',(#43,#44,#45),#90,.T.);
#71=ADVANCED_FACE('',(#104),#91,.T.);
#72=ADVANCED_FACE('',(#105),#92,.F.);
#73=ADVANCED_FACE('',(#106),#93,.F.);
#74=ADVANCED_FACE('',(#107),#94,.F.);
#75=ADVANCED_FACE('',(#108),#95,.F.);
#76=ADVANCED_FACE('',(#109),#96,.F.);
#77=ADVANCED_FACE('',(#46,#47),#34,.F.);
#78=ADVANCED_FACE('',(#110),#97,.F.);
#79=ADVANCED_FACE('',(#48,#49),#35,.F.);
#80=ADVANCED_FACE('',(#50,#51),#36,.F.);
#81=ADVANCED_FACE('',(#111),#98,.F.);
#82=ADVANCED_FACE('',(#52,#53),#37,.F.);
#83=PLANE('',#395);
#84=PLANE('',#397);
#85=PLANE('',#398);
#86=PLANE('',#402);
#87=PLANE('',#403);
#88=PLANE('',#404);
#89=PLANE('',#405);
#90=PLANE('',#408);
#91=PLANE('',#409);
#92=PLANE('',#411);
#93=PLANE('',#412);
#94=PLANE('',#413);
#95=PLANE('',#414);
#96=PLANE('',#416);
#97=PLANE('',#419);
#98=PLANE('',#423);
#99=FACE_OUTER_BOUND('',#112,.T.);
#100=FACE_OUTER_BOUND('',#115,.T.);
#101=FACE_OUTER_BOUND('',#118,.T.);
#102=FACE_OUTER_BOUND('',#119,.T.);
#103=FACE_OUTER_BOUND('',#120,.T.);
#104=FACE_OUTER_BOUND('',#124,.T.);
#105=FACE_OUTER_BOUND('',#125,.T.);
#106=FACE_OUTER_BOUND('',#126,.T.);
#107=FACE_OUTER_BOUND('',#127,.T.);
#108=FACE_OUTER_BOUND('',#128,.T.);
#109=FACE_OUTER_BOUND('',#129,.T.);
#110=FACE_OUTER_BOUND('',#132,.T.);
#111=FACE_OUTER_BOUND('',#137,.T.);
#112=EDGE_LOOP('',(#140,#141,#142,#143));
#113=EDGE_LOOP('',(#144));
#114=EDGE_LOOP('',(#145,#146,#147,#148));
#115=EDGE_LOOP('',(#149,#150,#151,#152,#153));
#116=EDGE_LOOP('',(#154,#155,#156,#157,#158,#159,#160,#161));
#117=EDGE_LOOP('',(#162));
#118=EDGE_LOOP('',(#163,#164,#165,#166,#167));
#119=EDGE_LOOP('',(#168,#169,#170,#171,#172,#173,#174,#175));
#120=EDGE_LOOP('',(#176,#177,#178,#179,#180));
#121=EDGE_LOOP('',(#181));
#122=EDGE_LOOP('',(#182));
#123=EDGE_LOOP('',(#183,#184,#185,#186));
#124=EDGE_LOOP('',(#187,#188,#189,#190,#191,#192,#193,#194,#195));
#125=EDGE_LOOP('',(#196,#197,#198,#199,#200,#201));
#126=EDGE_LOOP('',(#202,#203,#204,#205));
#127=EDGE_LOOP('',(#206,#207,#208,#209,#210));
#128=EDGE_LOOP('',(#211,#212,#213,#214,#215));
#129=EDGE_LOOP('',(#216,#217,#218,#219,#220,#221));
#130=EDGE_LOOP('',(#222));
#131=EDGE_LOOP('',(#223));
#132=EDGE_LOOP('',(#224));
#133=EDGE_LOOP('',(#225));
#134=EDGE_LOOP('',(#226));
#135=EDGE_LOOP('',(#227));
#136=EDGE_LOOP('',(#228,#229,#230,#231));
#137=EDGE_LOOP('',(#232));
#138=EDGE_LOOP('',(#233,#234));
#139=EDGE_LOOP('',(#235));
#140=ORIENTED_EDGE('',*,*,#270,.T.);
#141=ORIENTED_EDGE('',*,*,#271,.T.);
#142=ORIENTED_EDGE('',*,*,#272,.T.);
#143=ORIENTED_EDGE('',*,*,#273,.T.);
#144=ORIENTED_EDGE('',*,*,#274,.F.);
#145=ORIENTED_EDGE('',*,*,#275,.F.);
#146=ORIENTED_EDGE('',*,*,#276,.T.);
#147=ORIENTED_EDGE('',*,*,#277,.T.);
#148=ORIENTED_EDGE('',*,*,#278,.F.);
#149=ORIENTED_EDGE('',*,*,#279,.F.);
#150=ORIENTED_EDGE('',*,*,#280,.F.);
#151=ORIENTED_EDGE('',*,*,#281,.F.);
#152=ORIENTED_EDGE('',*,*,#282,.T.);
#153=ORIENTED_EDGE('',*,*,#276,.F.);
#154=ORIENTED_EDGE('',*,*,#283,.F.);
#155=ORIENTED_EDGE('',*,*,#284,.T.);
#156=ORIENTED_EDGE('',*,*,#285,.F.);
#157=ORIENTED_EDGE('',*,*,#286,.F.);
#158=ORIENTED_EDGE('',*,*,#270,.F.);
#159=ORIENTED_EDGE('',*,*,#287,.F.);
#160=ORIENTED_EDGE('',*,*,#288,.F.);
#161=ORIENTED_EDGE('',*,*,#289,.T.);
#162=ORIENTED_EDGE('',*,*,#290,.F.);
#163=ORIENTED_EDGE('',*,*,#291,.T.);
#164=ORIENTED_EDGE('',*,*,#292,.T.);
#165=ORIENTED_EDGE('',*,*,#281,.T.);
#166=ORIENTED_EDGE('',*,*,#293,.F.);
#167=ORIENTED_EDGE('',*,*,#294,.T.);
#168=ORIENTED_EDGE('',*,*,#295,.F.);
#169=ORIENTED_EDGE('',*,*,#296,.F.);
#170=ORIENTED_EDGE('',*,*,#297,.F.);
#171=ORIENTED_EDGE('',*,*,#298,.T.);
#172=ORIENTED_EDGE('',*,*,#299,.F.);
#173=ORIENTED_EDGE('',*,*,#300,.T.);
#174=ORIENTED_EDGE('',*,*,#293,.T.);
#175=ORIENTED_EDGE('',*,*,#280,.T.);
#176=ORIENTED_EDGE('',*,*,#299,.T.);
#177=ORIENTED_EDGE('',*,*,#301,.T.);
#178=ORIENTED_EDGE('',*,*,#288,.T.);
#179=ORIENTED_EDGE('',*,*,#302,.F.);
#180=ORIENTED_EDGE('',*,*,#303,.T.);
#181=ORIENTED_EDGE('',*,*,#304,.F.);
#182=ORIENTED_EDGE('',*,*,#305,.F.);
#183=ORIENTED_EDGE('',*,*,#306,.F.);
#184=ORIENTED_EDGE('',*,*,#294,.F.);
#185=ORIENTED_EDGE('',*,*,#300,.F.);
#186=ORIENTED_EDGE('',*,*,#303,.F.);
#187=ORIENTED_EDGE('',*,*,#307,.F.);
#188=ORIENTED_EDGE('',*,*,#278,.T.);
#189=ORIENTED_EDGE('',*,*,#308,.T.);
#190=ORIENTED_EDGE('',*,*,#291,.F.);
#191=ORIENTED_EDGE('',*,*,#306,.T.);
#192=ORIENTED_EDGE('',*,*,#302,.T.);
#193=ORIENTED_EDGE('',*,*,#287,.T.);
#194=ORIENTED_EDGE('',*,*,#273,.F.);
#195=ORIENTED_EDGE('',*,*,#309,.F.);
#196=ORIENTED_EDGE('',*,*,#310,.F.);
#197=ORIENTED_EDGE('',*,*,#289,.F.);
#198=ORIENTED_EDGE('',*,*,#301,.F.);
#199=ORIENTED_EDGE('',*,*,#298,.F.);
#200=ORIENTED_EDGE('',*,*,#311,.F.);
#201=ORIENTED_EDGE('',*,*,#284,.F.);
#202=ORIENTED_EDGE('',*,*,#308,.F.);
#203=ORIENTED_EDGE('',*,*,#277,.F.);
#204=ORIENTED_EDGE('',*,*,#282,.F.);
#205=ORIENTED_EDGE('',*,*,#292,.F.);
#206=ORIENTED_EDGE('',*,*,#307,.T.);
#207=ORIENTED_EDGE('',*,*,#312,.T.);
#208=ORIENTED_EDGE('',*,*,#295,.T.);
#209=ORIENTED_EDGE('',*,*,#279,.T.);
#210=ORIENTED_EDGE('',*,*,#275,.T.);
#211=ORIENTED_EDGE('',*,*,#313,.T.);
#212=ORIENTED_EDGE('',*,*,#314,.T.);
#213=ORIENTED_EDGE('',*,*,#285,.T.);
#214=ORIENTED_EDGE('',*,*,#311,.T.);
#215=ORIENTED_EDGE('',*,*,#297,.T.);
#216=ORIENTED_EDGE('',*,*,#272,.F.);
#217=ORIENTED_EDGE('',*,*,#315,.T.);
#218=ORIENTED_EDGE('',*,*,#313,.F.);
#219=ORIENTED_EDGE('',*,*,#296,.T.);
#220=ORIENTED_EDGE('',*,*,#312,.F.);
#221=ORIENTED_EDGE('',*,*,#309,.T.);
#222=ORIENTED_EDGE('',*,*,#274,.T.);
#223=ORIENTED_EDGE('',*,*,#305,.T.);
#224=ORIENTED_EDGE('',*,*,#316,.F.);
#225=ORIENTED_EDGE('',*,*,#290,.T.);
#226=ORIENTED_EDGE('',*,*,#316,.T.);
#227=ORIENTED_EDGE('',*,*,#304,.T.);
#228=ORIENTED_EDGE('',*,*,#286,.T.);
#229=ORIENTED_EDGE('',*,*,#314,.F.);
#230=ORIENTED_EDGE('',*,*,#315,.F.);
#231=ORIENTED_EDGE('',*,*,#271,.F.);
#232=ORIENTED_EDGE('',*,*,#317,.F.);
#233=ORIENTED_EDGE('',*,*,#283,.T.);
#234=ORIENTED_EDGE('',*,*,#310,.T.);
#235=ORIENTED_EDGE('',*,*,#317,.T.);
#236=VERTEX_POINT('',#527);
#237=VERTEX_POINT('',#528);
#238=VERTEX_POINT('',#530);
#239=VERTEX_POINT('',#532);
#240=VERTEX_POINT('',#536);
#241=VERTEX_POINT('',#538);
#242=VERTEX_POINT('',#539);
#243=VERTEX_POINT('',#541);
#244=VERTEX_POINT('',#543);
#245=VERTEX_POINT('',#547);
#246=VERTEX_POINT('',#549);
#247=VERTEX_POINT('',#551);
#248=VERTEX_POINT('',#555);
#249=VERTEX_POINT('',#556);
#250=VERTEX_POINT('',#558);
#251=VERTEX_POINT('',#560);
#252=VERTEX_POINT('',#563);
#253=VERTEX_POINT('',#565);
#254=VERTEX_POINT('',#568);
#255=VERTEX_POINT('',#571);
#256=VERTEX_POINT('',#572);
#257=VERTEX_POINT('',#575);
#258=VERTEX_POINT('',#579);
#259=VERTEX_POINT('',#581);
#260=VERTEX_POINT('',#583);
#261=VERTEX_POINT('',#585);
#262=VERTEX_POINT('',#587);
#263=VERTEX_POINT('',#592);
#264=VERTEX_POINT('',#596);
#265=VERTEX_POINT('',#598);
#266=VERTEX_POINT('',#602);
#267=VERTEX_POINT('',#613);
#268=VERTEX_POINT('',#620);
#269=VERTEX_POINT('',#625);
#270=EDGE_CURVE('',#236,#237,#318,.T.);
#271=EDGE_CURVE('',#237,#238,#319,.T.);
#272=EDGE_CURVE('',#238,#239,#320,.T.);
#273=EDGE_CURVE('',#239,#236,#321,.T.);
#274=EDGE_CURVE('',#240,#240,#54,.T.);
#275=EDGE_CURVE('',#241,#242,#322,.T.);
#276=EDGE_CURVE('',#241,#243,#323,.T.);
#277=EDGE_CURVE('',#243,#244,#324,.T.);
#278=EDGE_CURVE('',#242,#244,#325,.T.);
#279=EDGE_CURVE('',#245,#241,#326,.T.);
#280=EDGE_CURVE('',#246,#245,#327,.T.);
#281=EDGE_CURVE('',#247,#246,#328,.T.);
#282=EDGE_CURVE('',#247,#243,#329,.T.);
#283=EDGE_CURVE('',#248,#249,#55,.T.);
#284=EDGE_CURVE('',#248,#250,#330,.T.);
#285=EDGE_CURVE('',#251,#250,#331,.T.);
#286=EDGE_CURVE('',#237,#251,#56,.T.);
#287=EDGE_CURVE('',#252,#236,#332,.T.);
#288=EDGE_CURVE('',#253,#252,#333,.T.);
#289=EDGE_CURVE('',#253,#249,#334,.T.);
#290=EDGE_CURVE('',#254,#254,#57,.T.);
#291=EDGE_CURVE('',#255,#256,#335,.T.);
#292=EDGE_CURVE('',#256,#247,#336,.T.);
#293=EDGE_CURVE('',#257,#246,#337,.T.);
#294=EDGE_CURVE('',#257,#255,#338,.T.);
#295=EDGE_CURVE('',#258,#245,#339,.T.);
#296=EDGE_CURVE('',#259,#258,#340,.T.);
#297=EDGE_CURVE('',#260,#259,#341,.T.);
#298=EDGE_CURVE('',#260,#261,#342,.T.);
#299=EDGE_CURVE('',#262,#261,#343,.T.);
#300=EDGE_CURVE('',#262,#257,#344,.T.);
#301=EDGE_CURVE('',#261,#253,#345,.T.);
#302=EDGE_CURVE('',#263,#252,#346,.T.);
#303=EDGE_CURVE('',#263,#262,#347,.T.);
#304=EDGE_CURVE('',#264,#264,#58,.T.);
#305=EDGE_CURVE('',#265,#265,#59,.T.);
#306=EDGE_CURVE('',#255,#263,#348,.T.);
#307=EDGE_CURVE('',#242,#266,#349,.T.);
#308=EDGE_CURVE('',#244,#256,#350,.T.);
#309=EDGE_CURVE('',#266,#239,#351,.T.);
#310=EDGE_CURVE('',#249,#248,#38,.T.);
#311=EDGE_CURVE('',#250,#260,#352,.T.);
#312=EDGE_CURVE('',#266,#258,#353,.T.);
#313=EDGE_CURVE('',#259,#267,#354,.T.);
#314=EDGE_CURVE('',#267,#251,#355,.T.);
#315=EDGE_CURVE('',#238,#267,#60,.T.);
#316=EDGE_CURVE('',#268,#268,#61,.T.);
#317=EDGE_CURVE('',#269,#269,#62,.T.);
#318=LINE('',#526,#356);
#319=LINE('',#529,#357);
#320=LINE('',#531,#358);
#321=LINE('',#533,#359);
#322=LINE('',#537,#360);
#323=LINE('',#540,#361);
#324=LINE('',#542,#362);
#325=LINE('',#544,#363);
#326=LINE('',#546,#364);
#327=LINE('',#548,#365);
#328=LINE('',#550,#366);
#329=LINE('',#552,#367);
#330=LINE('',#557,#368);
#331=LINE('',#559,#369);
#332=LINE('',#562,#370);
#333=LINE('',#564,#371);
#334=LINE('',#566,#372);
#335=LINE('',#570,#373);
#336=LINE('',#573,#374);
#337=LINE('',#574,#375);
#338=LINE('',#576,#376);
#339=LINE('',#578,#377);
#340=LINE('',#580,#378);
#341=LINE('',#582,#379);
#342=LINE('',#584,#380);
#343=LINE('',#586,#381);
#344=LINE('',#588,#382);
#345=LINE('',#590,#383);
#346=LINE('',#591,#384);
#347=LINE('',#593,#385);
#348=LINE('',#599,#386);
#349=LINE('',#601,#387);
#350=LINE('',#603,#388);
#351=LINE('',#604,#389);
#352=LINE('',#607,#390);
#353=LINE('',#610,#391);
#354=LINE('',#612,#392);
#355=LINE('',#614,#393);
#356=VECTOR('',#427,1.);
#357=VECTOR('',#428,1.);
#358=VECTOR('',#429,1.);
#359=VECTOR('',#430,1.);
#360=VECTOR('',#435,1.);
#361=VECTOR('',#436,1.);
#362=VECTOR('',#437,1.);
#363=VECTOR('',#438,1.);
#364=VECTOR('',#441,1.);
#365=VECTOR('',#442,1.);
#366=VECTOR('',#443,1.);
#367=VECTOR('',#444,1.);
#368=VECTOR('',#449,1.);
#369=VECTOR('',#450,1.);
#370=VECTOR('',#453,1.);
#371=VECTOR('',#454,1.);
#372=VECTOR('',#455,1.);
#373=VECTOR('',#460,1.);
#374=VECTOR('',#461,1.);
#375=VECTOR('',#462,1.);
#376=VECTOR('',#463,1.);
#377=VECTOR('',#466,1.);
#378=VECTOR('',#467,1.);
#379=VECTOR('',#468,1.);
#380=VECTOR('',#469,1.);
#381=VECTOR('',#470,1.);
#382=VECTOR('',#471,1.);
#383=VECTOR('',#474,1.);
#384=VECTOR('',#475,1.);
#385=VECTOR('',#476,1.);
#386=VECTOR('',#483,1.);
#387=VECTOR('',#486,1.);
#388=VECTOR('',#487,1.);
#389=VECTOR('',#488,1.);
#390=VECTOR('',#493,1.);
#391=VECTOR('',#498,1.);
#392=VECTOR('',#501,1.);
#393=VECTOR('',#502,1.);
#394=AXIS2_PLACEMENT_3D('',#525,#425,#426);
#395=AXIS2_PLACEMENT_3D('',#534,#431,#432);
#396=AXIS2_PLACEMENT_3D('',#535,#433,#434);
#397=AXIS2_PLACEMENT_3D('',#545,#439,#440);
#398=AXIS2_PLACEMENT_3D('',#553,#445,#446);
#399=AXIS2_PLACEMENT_3D('',#554,#447,#448);
#400=AXIS2_PLACEMENT_3D('',#561,#451,#452);
#401=AXIS2_PLACEMENT_3D('',#567,#456,#457);
#402=AXIS2_PLACEMENT_3D('',#569,#458,#459);
#403=AXIS2_PLACEMENT_3D('',#577,#464,#465);
#404=AXIS2_PLACEMENT_3D('',#589,#472,#473);
#405=AXIS2_PLACEMENT_3D('',#594,#477,#478);
#406=AXIS2_PLACEMENT_3D('',#595,#479,#480);
#407=AXIS2_PLACEMENT_3D('',#597,#481,#482);
#408=AXIS2_PLACEMENT_3D('',#600,#484,#485);
#409=AXIS2_PLACEMENT_3D('',#605,#489,#490);
#410=AXIS2_PLACEMENT_3D('',#606,#491,#492);
#411=AXIS2_PLACEMENT_3D('',#608,#494,#495);
#412=AXIS2_PLACEMENT_3D('',#609,#496,#497);
#413=AXIS2_PLACEMENT_3D('',#611,#499,#500);
#414=AXIS2_PLACEMENT_3D('',#615,#503,#504);
#415=AXIS2_PLACEMENT_3D('',#616,#505,#506);
#416=AXIS2_PLACEMENT_3D('',#617,#507,#508);
#417=AXIS2_PLACEMENT_3D('',#618,#509,#510);
#418=AXIS2_PLACEMENT_3D('',#619,#511,#512);
#419=AXIS2_PLACEMENT_3D('',#621,#513,#514);
#420=AXIS2_PLACEMENT_3D('',#622,#515,#516);
#421=AXIS2_PLACEMENT_3D('',#623,#517,#518);
#422=AXIS2_PLACEMENT_3D('',#624,#519,#520);
#423=AXIS2_PLACEMENT_3D('',#626,#521,#522);
#424=AXIS2_PLACEMENT_3D('',#627,#523,#524);
#425=DIRECTION('',(0.,0.,1.));
#426=DIRECTION('',(1.,0.,0.));
#427=DIRECTION('',(-1.,0.,0.));
#428=DIRECTION('',(0.,0.,-1.));
#429=DIRECTION('',(1.,0.,0.));
#430=DIRECTION('',(0.,0.,1.));
#431=DIRECTION('',(0.,1.,0.));
#432=DIRECTION('',(0.,0.,1.));
#433=DIRECTION('',(0.,0.,1.));
#434=DIRECTION('',(1.,0.,0.));
#435=DIRECTION('',(1.,0.,0.));
#436=DIRECTION('',(0.,-1.,0.));
#437=DIRECTION('',(1.,0.,0.));
#438=DIRECTION('',(0.,-1.,0.));
#439=DIRECTION('',(0.,0.,1.));
#440=DIRECTION('',(1.,0.,0.));
#441=DIRECTION('',(0.707106781186548,0.,0.707106781186548));
#442=DIRECTION('',(0.,1.,0.));
#443=DIRECTION('',(-0.707106781186548,0.,-0.707106781186548));
#444=DIRECTION('',(0.577350269189626,0.577350269189625,0.577350269189626));
#445=DIRECTION('',(0.707106781186548,0.,-0.707106781186548));
#446=DIRECTION('',(0.,1.,0.));
#447=DIRECTION('',(0.,0.,1.));
#448=DIRECTION('',(1.,0.,0.));
#449=DIRECTION('',(0.,-1.,0.));
#450=DIRECTION('',(-1.,0.,0.));
#451=DIRECTION('',(0.,0.,1.));
#452=DIRECTION('',(1.,0.,0.));
#453=DIRECTION('',(0.,-1.,0.));
#454=DIRECTION('',(1.,0.,0.));
#455=DIRECTION('',(0.,-1.,0.));
#456=DIRECTION('',(0.,0.,1.));
#457=DIRECTION('',(0.999999999999999,0.,0.));
#458=DIRECTION('',(0.,0.,1.));
#459=DIRECTION('',(1.,0.,0.));
#460=DIRECTION('',(0.,0.,1.));
#461=DIRECTION('',(-1.,0.,0.));
#462=DIRECTION('',(0.,0.,1.));
#463=DIRECTION('',(1.,0.,0.));
#464=DIRECTION('',(0.,-1.,0.));
#465=DIRECTION('',(0.,0.,-1.));
#466=DIRECTION('',(0.,0.,1.));
#467=DIRECTION('',(0.,-1.,0.));
#468=DIRECTION('',(0.,0.,-1.));
#469=DIRECTION('',(0.,1.,0.));
#470=DIRECTION('',(0.,0.,1.));
#471=DIRECTION('',(0.,-1.,0.));
#472=DIRECTION('',(-1.,0.,0.));
#473=DIRECTION('',(0.,0.,1.));
#474=DIRECTION('',(0.707106781186548,0.,0.707106781186548));
#475=DIRECTION('',(0.,0.,1.));
#476=DIRECTION('',(-1.,0.,0.));
#477=DIRECTION('',(0.,1.,0.));
#478=DIRECTION('',(0.,0.,1.));
#479=DIRECTION('',(0.,0.,-1.));
#480=DIRECTION('',(-1.,0.,0.));
#481=DIRECTION('',(0.,0.,-1.));
#482=DIRECTION('',(-1.,0.,0.));
#483=DIRECTION('',(0.,1.,0.));
#484=DIRECTION('',(0.,0.,-1.));
#485=DIRECTION('',(-1.,0.,0.));
#486=DIRECTION('',(0.,0.,-1.));
#487=DIRECTION('',(0.,-0.707106781186547,-0.707106781186549));
#488=DIRECTION('',(0.,1.,0.));
#489=DIRECTION('',(1.,0.,0.));
#490=DIRECTION('',(0.,0.,-1.));
#491=DIRECTION('',(-0.707106781186548,0.,0.707106781186548));
#492=DIRECTION('',(-0.707106781186548,0.,-0.707106781186548));
#493=DIRECTION('',(-0.707106781186548,0.,-0.707106781186548));
#494=DIRECTION('',(0.707106781186548,0.,-0.707106781186548));
#495=DIRECTION('',(0.,1.,0.));
#496=DIRECTION('',(0.,0.707106781186549,-0.707106781186547));
#497=DIRECTION('',(-1.,0.,0.));
#498=DIRECTION('',(-1.,0.,0.));
#499=DIRECTION('',(0.,-1.,0.));
#500=DIRECTION('',(0.,0.,-1.));
#501=DIRECTION('',(1.,0.,0.));
#502=DIRECTION('',(0.,0.,1.));
#503=DIRECTION('',(0.,1.,0.));
#504=DIRECTION('',(0.,0.,1.));
#505=DIRECTION('',(0.,0.,-1.));
#506=DIRECTION('',(-1.,0.,0.));
#507=DIRECTION('',(0.,0.,-1.));
#508=DIRECTION('',(-1.,0.,0.));
#509=DIRECTION('',(0.,0.,-1.));
#510=DIRECTION('',(1.,0.,0.));
#511=DIRECTION('',(0.,0.,-1.));
#512=DIRECTION('',(0.999999999999999,0.,0.));
#513=DIRECTION('',(0.,0.,-1.));
#514=DIRECTION('',(-1.,0.,0.));
#515=DIRECTION('',(0.,0.,-1.));
#516=DIRECTION('',(0.999999999999999,0.,0.));
#517=DIRECTION('',(0.,0.,-1.));
#518=DIRECTION('',(1.,0.,0.));
#519=DIRECTION('',(0.,0.,-1.));
#520=DIRECTION('',(1.,0.,0.));
#521=DIRECTION('',(0.,0.,-1.));
#522=DIRECTION('',(-1.,0.,0.));
#523=DIRECTION('',(0.,0.,-1.));
#524=DIRECTION('',(1.,0.,0.));
#525=CARTESIAN_POINT('',(0.,0.,0.));
#526=CARTESIAN_POINT('',(114.8,271.8,123.6));
#527=CARTESIAN_POINT('',(229.6,271.8,123.6));
#528=CARTESIAN_POINT('',(169.345808232895,271.8,123.6));
#529=CARTESIAN_POINT('',(169.345808232895,271.8,123.65));
#530=CARTESIAN_POINT('',(169.345808232895,271.8,100.8));
#531=CARTESIAN_POINT('',(114.8,271.8,100.8));
#532=CARTESIAN_POINT('',(229.6,271.8,100.8));
#533=CARTESIAN_POINT('',(229.6,271.8,0.));
#534=CARTESIAN_POINT('',(114.8,271.8,100.8));
#535=CARTESIAN_POINT('',(71.6,143.9,123.6));
#536=CARTESIAN_POINT('',(80.35,143.9,123.6));
#537=CARTESIAN_POINT('',(114.8,249.9,123.6));
#538=CARTESIAN_POINT('',(7.9,249.9,123.6));
#539=CARTESIAN_POINT('',(229.6,249.9,123.6));
#540=CARTESIAN_POINT('',(7.9,168.9,123.6));
#541=CARTESIAN_POINT('',(7.9,4.89999999999999,123.6));
#542=CARTESIAN_POINT('',(114.8,4.89999999999999,123.6));
#543=CARTESIAN_POINT('',(229.6,4.89999999999999,123.6));
#544=CARTESIAN_POINT('',(229.6,168.9,123.6));
#545=CARTESIAN_POINT('',(114.8,168.9,123.6));
#546=CARTESIAN_POINT('',(0.,249.9,115.7));
#547=CARTESIAN_POINT('',(0.,249.9,115.7));
#548=CARTESIAN_POINT('',(0.,168.9,115.7));
#549=CARTESIAN_POINT('',(0.,0.,115.7));
#550=CARTESIAN_POINT('',(-0.449999999999978,0.,115.25));
#551=CARTESIAN_POINT('',(3.00000000000005,0.,118.7));
#552=CARTESIAN_POINT('',(57.3,54.2999999999998,173.));
#553=CARTESIAN_POINT('',(0.,168.9,115.7));
#554=CARTESIAN_POINT('',(8.3,306.1,123.6));
#555=CARTESIAN_POINT('',(7.9,302.874709315426,123.6));
#556=CARTESIAN_POINT('',(7.9,309.325290684574,123.6));
#557=CARTESIAN_POINT('',(7.9,168.9,123.6));
#558=CARTESIAN_POINT('',(7.9,271.8,123.6));
#559=CARTESIAN_POINT('',(114.8,271.8,123.6));
#560=CARTESIAN_POINT('',(152.054191767105,271.8,123.6));
#561=CARTESIAN_POINT('',(160.7,274.3,123.6));
#562=CARTESIAN_POINT('',(229.6,168.9,123.6));
#563=CARTESIAN_POINT('',(229.6,337.8,123.6));
#564=CARTESIAN_POINT('',(114.8,337.8,123.6));
#565=CARTESIAN_POINT('',(7.9,337.8,123.6));
#566=CARTESIAN_POINT('',(7.9,168.9,123.6));
#567=CARTESIAN_POINT('',(101.6,330.2,123.6));
#568=CARTESIAN_POINT('',(105.15,330.2,123.6));
#569=CARTESIAN_POINT('',(114.8,168.9,123.6));
#570=CARTESIAN_POINT('',(229.6,0.,0.));
#571=CARTESIAN_POINT('',(229.6,0.,0.));
#572=CARTESIAN_POINT('',(229.6,0.,118.7));
#573=CARTESIAN_POINT('',(114.8,0.,118.7));
#574=CARTESIAN_POINT('',(0.,0.,0.));
#575=CARTESIAN_POINT('',(0.,0.,0.));
#576=CARTESIAN_POINT('',(114.8,0.,0.));
#577=CARTESIAN_POINT('',(114.8,0.,0.));
#578=CARTESIAN_POINT('',(0.,249.9,0.));
#579=CARTESIAN_POINT('',(0.,249.9,100.8));
#580=CARTESIAN_POINT('',(0.,168.9,100.8));
#581=CARTESIAN_POINT('',(0.,271.8,100.8));
#582=CARTESIAN_POINT('',(0.,271.8,0.));
#583=CARTESIAN_POINT('',(0.,271.8,115.7));
#584=CARTESIAN_POINT('',(0.,168.9,115.7));
#585=CARTESIAN_POINT('',(0.,337.8,115.7));
#586=CARTESIAN_POINT('',(0.,337.8,0.));
#587=CARTESIAN_POINT('',(0.,337.8,0.));
#588=CARTESIAN_POINT('',(0.,168.9,0.));
#589=CARTESIAN_POINT('',(0.,168.9,0.));
#590=CARTESIAN_POINT('',(-0.449999999999978,337.8,115.25));
#591=CARTESIAN_POINT('',(229.6,337.8,0.));
#592=CARTESIAN_POINT('',(229.6,337.8,0.));
#593=CARTESIAN_POINT('',(114.8,337.8,0.));
#594=CARTESIAN_POINT('',(114.8,337.8,0.));
#595=CARTESIAN_POINT('',(160.7,274.3,0.));
#596=CARTESIAN_POINT('',(151.7,274.3,0.));
#597=CARTESIAN_POINT('',(71.6,143.9,0.));
#598=CARTESIAN_POINT('',(62.85,143.9,0.));
#599=CARTESIAN_POINT('',(229.6,168.9,0.));
#600=CARTESIAN_POINT('',(114.8,168.9,0.));
#601=CARTESIAN_POINT('',(229.6,249.9,0.));
#602=CARTESIAN_POINT('',(229.6,249.9,100.8));
#603=CARTESIAN_POINT('',(229.6,25.0999999999997,143.8));
#604=CARTESIAN_POINT('',(229.6,168.9,100.8));
#605=CARTESIAN_POINT('',(229.6,168.9,0.));
#606=CARTESIAN_POINT('',(8.3,306.1,124.));
#607=CARTESIAN_POINT('',(0.,271.8,115.7));
#608=CARTESIAN_POINT('',(0.,168.9,115.7));
#609=CARTESIAN_POINT('',(114.8,0.,118.7));
#610=CARTESIAN_POINT('',(114.8,249.9,100.8));
#611=CARTESIAN_POINT('',(114.8,249.9,100.8));
#612=CARTESIAN_POINT('',(114.8,271.8,100.8));
#613=CARTESIAN_POINT('',(152.054191767105,271.8,100.8));
#614=CARTESIAN_POINT('',(152.054191767105,271.8,123.65));
#615=CARTESIAN_POINT('',(114.8,271.8,100.8));
#616=CARTESIAN_POINT('',(160.7,274.3,100.8));
#617=CARTESIAN_POINT('',(114.8,260.85,100.8));
#618=CARTESIAN_POINT('',(71.6,143.9,123.65));
#619=CARTESIAN_POINT('',(101.6,330.2,53.7));
#620=CARTESIAN_POINT('',(105.15,330.2,53.7));
#621=CARTESIAN_POINT('',(101.6,330.2,53.7));
#622=CARTESIAN_POINT('',(101.6,330.2,123.65));
#623=CARTESIAN_POINT('',(160.7,274.3,123.65));
#624=CARTESIAN_POINT('',(8.3,306.1,60.7));
#625=CARTESIAN_POINT('',(11.55,306.1,60.7));
#626=CARTESIAN_POINT('',(8.3,306.1,60.7));
#627=CARTESIAN_POINT('',(8.3,306.1,123.65));
#628=MECHANICAL_DESIGN_GEOMETRIC_PRESENTATION_REPRESENTATION('',(#24),#629);
#629=(
GEOMETRIC_REPRESENTATION_CONTEXT(3)
GLOBAL_UNCERTAINTY_ASSIGNED_CONTEXT((#630))
GLOBAL_UNIT_ASSIGNED_CONTEXT((#636,#632,#631))
REPRESENTATION_CONTEXT('featured_part_06468','TOP_LEVEL_ASSEMBLY_PART')
);
#630=UNCERTAINTY_MEASURE_WITH_UNIT(LENGTH_MEASURE(2.E-5),#636,
'DISTANCE_ACCURACY_VALUE','Maximum Tolerance applied to model');
#631=(
NAMED_UNIT(*)
SI_UNIT($,.STERADIAN.)
SOLID_ANGLE_UNIT()
);
#632=(
CONVERSION_BASED_UNIT('DEGREE',#634)
NAMED_UNIT(#633)
PLANE_ANGLE_UNIT()
);
#633=DIMENSIONAL_EXPONENTS(0.,0.,0.,0.,0.,0.,0.);
#634=PLANE_ANGLE_MEASURE_WITH_UNIT(PLANE_ANGLE_MEASURE(0.0174532925),#635);
#635=(
NAMED_UNIT(*)
PLANE_ANGLE_UNIT()
SI_UNIT($,.RADIAN.)
);
#636=(
LENGTH_UNIT()
NAMED_UNIT(*)
SI_UNIT(.MILLI.,.METRE.)
);
ENDSEC;
END-ISO-10303-21;
