ISO-10303-21;
HEADER;
/* Generated by software containing ST-Developer
 * from STEP Tools, Inc. (www.steptools.com) 
 */
/* OPTION: using custom schema-name function */

FILE_DESCRIPTION(
/* description */ (''),
/* implementation_level */ '2;1');

FILE_NAME(
/* name */ 'featured_part_02493.stp',
/* time_stamp */ '2026-07-13T14:16:07-04:00',
/* author */ (''),
/* organization */ (''),
/* preprocessor_version */ 'ST-DEVELOPER v20.1',
/* originating_system */ 'SIEMENS PLM Software NX2512.6002',
/* authorisation */ '');

FILE_SCHEMA (('AUTOMOTIVE_DESIGN { 1 0 10303 214 3 1 1 1 }'));
ENDSEC;

DATA;
#10=SHAPE_REPRESENTATION_RELATIONSHIP('None',
'relationship between featured_part_02493-None and featured_part_02493
-None',#22,#11);
#11=ADVANCED_BREP_SHAPE_REPRESENTATION('featured_part_02493-None',(#32),
#699);
#12=SHAPE_DEFINITION_REPRESENTATION(#13,#22);
#13=PRODUCT_DEFINITION_SHAPE('','',#14);
#14=PRODUCT_DEFINITION(' ','',#16,#15);
#15=PRODUCT_DEFINITION_CONTEXT('part definition',#21,'design');
#16=PRODUCT_DEFINITION_FORMATION_WITH_SPECIFIED_SOURCE(' ',' ',#18,
 .NOT_KNOWN.);
#17=PRODUCT_RELATED_PRODUCT_CATEGORY('part','',(#18));
#18=PRODUCT('featured_part_02493','featured_part_02493',' ',(#19));
#19=PRODUCT_CONTEXT(' ',#21,'mechanical');
#20=APPLICATION_PROTOCOL_DEFINITION('international standard',
'automotive_design',2010,#21);
#21=APPLICATION_CONTEXT(
'core data for automotive mechanical design processes');
#22=SHAPE_REPRESENTATION('featured_part_02493-None',(#425),#699);
#23=PRESENTATION_LAYER_ASSIGNMENT('1','Layer 1',(#32));
#24=STYLED_ITEM('',(#25),#32);
#25=PRESENTATION_STYLE_ASSIGNMENT((#26));
#26=SURFACE_STYLE_USAGE(.BOTH.,#27);
#27=SURFACE_SIDE_STYLE('',(#28));
#28=SURFACE_STYLE_FILL_AREA(#29);
#29=FILL_AREA_STYLE('',(#30));
#30=FILL_AREA_STYLE_COLOUR('',#31);
#31=COLOUR_RGB('medium steel',0.611764705882353,0.658823529411765,0.670588235294118);
#32=MANIFOLD_SOLID_BREP('',#33);
#33=CLOSED_SHELL('',(#59,#60,#61,#62,#63,#64,#65,#66,#67,#68,#69,#70,#71,
#72,#73,#74,#75,#76,#77,#78,#79,#80,#81));
#34=CYLINDRICAL_SURFACE('',#455,11.5);
#35=CYLINDRICAL_SURFACE('',#456,11.5);
#36=CYLINDRICAL_SURFACE('',#457,11.5);
#37=CYLINDRICAL_SURFACE('',#458,11.5);
#38=CYLINDRICAL_SURFACE('',#459,12.25);
#39=CYLINDRICAL_SURFACE('',#460,14.);
#40=CYLINDRICAL_SURFACE('',#462,5.65);
#41=CYLINDRICAL_SURFACE('',#464,14.75);
#42=CYLINDRICAL_SURFACE('',#467,5.15);
#43=ELLIPSE('',#443,7.28319984622144,5.15);
#44=FACE_OUTER_BOUND('',#122,.T.);
#45=FACE_OUTER_BOUND('',#123,.T.);
#46=FACE_OUTER_BOUND('',#124,.T.);
#47=FACE_OUTER_BOUND('',#129,.T.);
#48=FACE_OUTER_BOUND('',#130,.T.);
#49=FACE_OUTER_BOUND('',#131,.T.);
#50=FACE_OUTER_BOUND('',#132,.T.);
#51=FACE_OUTER_BOUND('',#133,.T.);
#52=FACE_OUTER_BOUND('',#136,.T.);
#53=FACE_OUTER_BOUND('',#137,.T.);
#54=FACE_OUTER_BOUND('',#138,.T.);
#55=FACE_OUTER_BOUND('',#139,.T.);
#56=FACE_OUTER_BOUND('',#140,.T.);
#57=FACE_OUTER_BOUND('',#147,.T.);
#58=FACE_OUTER_BOUND('',#150,.T.);
#59=ADVANCED_FACE('',(#96,#97,#98,#99,#100),#82,.T.);
#60=ADVANCED_FACE('',(#44),#83,.T.);
#61=ADVANCED_FACE('',(#45),#84,.T.);
#62=ADVANCED_FACE('',(#46),#85,.T.);
#63=ADVANCED_FACE('',(#101,#102,#103,#104),#86,.T.);
#64=ADVANCED_FACE('',(#47),#87,.T.);
#65=ADVANCED_FACE('',(#48),#88,.F.);
#66=ADVANCED_FACE('',(#49),#89,.F.);
#67=ADVANCED_FACE('',(#50),#90,.F.);
#68=ADVANCED_FACE('',(#51),#91,.F.);
#69=ADVANCED_FACE('',(#105,#106),#92,.F.);
#70=ADVANCED_FACE('',(#52),#93,.F.);
#71=ADVANCED_FACE('',(#53),#34,.F.);
#72=ADVANCED_FACE('',(#54),#35,.F.);
#73=ADVANCED_FACE('',(#55),#36,.F.);
#74=ADVANCED_FACE('',(#56),#37,.F.);
#75=ADVANCED_FACE('',(#107,#108),#38,.F.);
#76=ADVANCED_FACE('',(#109,#110),#39,.F.);
#77=ADVANCED_FACE('',(#111,#112),#40,.F.);
#78=ADVANCED_FACE('',(#57),#94,.F.);
#79=ADVANCED_FACE('',(#113,#114),#41,.F.);
#80=ADVANCED_FACE('',(#58),#95,.F.);
#81=ADVANCED_FACE('',(#115,#116),#42,.F.);
#82=PLANE('',#434);
#83=PLANE('',#435);
#84=PLANE('',#436);
#85=PLANE('',#437);
#86=PLANE('',#441);
#87=PLANE('',#442);
#88=PLANE('',#444);
#89=PLANE('',#445);
#90=PLANE('',#446);
#91=PLANE('',#447);
#92=PLANE('',#453);
#93=PLANE('',#454);
#94=PLANE('',#463);
#95=PLANE('',#466);
#96=FACE_BOUND('',#117,.T.);
#97=FACE_BOUND('',#118,.T.);
#98=FACE_BOUND('',#119,.T.);
#99=FACE_BOUND('',#120,.T.);
#100=FACE_BOUND('',#121,.T.);
#101=FACE_BOUND('',#125,.T.);
#102=FACE_BOUND('',#126,.T.);
#103=FACE_BOUND('',#127,.T.);
#104=FACE_BOUND('',#128,.T.);
#105=FACE_BOUND('',#134,.T.);
#106=FACE_BOUND('',#135,.T.);
#107=FACE_BOUND('',#141,.T.);
#108=FACE_BOUND('',#142,.T.);
#109=FACE_BOUND('',#143,.T.);
#110=FACE_BOUND('',#144,.T.);
#111=FACE_BOUND('',#145,.T.);
#112=FACE_BOUND('',#146,.T.);
#113=FACE_BOUND('',#148,.T.);
#114=FACE_BOUND('',#149,.T.);
#115=FACE_BOUND('',#151,.T.);
#116=FACE_BOUND('',#152,.T.);
#117=EDGE_LOOP('',(#217,#218,#219,#220,#221,#222));
#118=EDGE_LOOP('',(#223));
#119=EDGE_LOOP('',(#224));
#120=EDGE_LOOP('',(#225));
#121=EDGE_LOOP('',(#226,#227,#228,#229,#230,#231,#232,#233));
#122=EDGE_LOOP('',(#234,#235,#236,#237,#238));
#123=EDGE_LOOP('',(#239,#240,#241,#242));
#124=EDGE_LOOP('',(#243,#244,#245,#246,#247));
#125=EDGE_LOOP('',(#248));
#126=EDGE_LOOP('',(#249));
#127=EDGE_LOOP('',(#250));
#128=EDGE_LOOP('',(#251,#252,#253,#254));
#129=EDGE_LOOP('',(#255,#256,#257,#258));
#130=EDGE_LOOP('',(#259,#260,#261,#262,#263,#264));
#131=EDGE_LOOP('',(#265,#266,#267,#268));
#132=EDGE_LOOP('',(#269,#270,#271,#272));
#133=EDGE_LOOP('',(#273,#274,#275,#276));
#134=EDGE_LOOP('',(#277));
#135=EDGE_LOOP('',(#278,#279,#280,#281,#282,#283,#284,#285));
#136=EDGE_LOOP('',(#286,#287,#288,#289));
#137=EDGE_LOOP('',(#290,#291,#292,#293));
#138=EDGE_LOOP('',(#294,#295,#296,#297));
#139=EDGE_LOOP('',(#298,#299,#300,#301));
#140=EDGE_LOOP('',(#302,#303,#304,#305));
#141=EDGE_LOOP('',(#306));
#142=EDGE_LOOP('',(#307));
#143=EDGE_LOOP('',(#308));
#144=EDGE_LOOP('',(#309));
#145=EDGE_LOOP('',(#310));
#146=EDGE_LOOP('',(#311));
#147=EDGE_LOOP('',(#312));
#148=EDGE_LOOP('',(#313));
#149=EDGE_LOOP('',(#314));
#150=EDGE_LOOP('',(#315));
#151=EDGE_LOOP('',(#316,#317));
#152=EDGE_LOOP('',(#318));
#153=LINE('',#590,#185);
#154=LINE('',#592,#186);
#155=LINE('',#594,#187);
#156=LINE('',#596,#188);
#157=LINE('',#598,#189);
#158=LINE('',#605,#190);
#159=LINE('',#610,#191);
#160=LINE('',#614,#192);
#161=LINE('',#618,#193);
#162=LINE('',#622,#194);
#163=LINE('',#625,#195);
#164=LINE('',#626,#196);
#165=LINE('',#628,#197);
#166=LINE('',#630,#198);
#167=LINE('',#632,#199);
#168=LINE('',#634,#200);
#169=LINE('',#636,#201);
#170=LINE('',#638,#202);
#171=LINE('',#646,#203);
#172=LINE('',#648,#204);
#173=LINE('',#652,#205);
#174=LINE('',#655,#206);
#175=LINE('',#656,#207);
#176=LINE('',#658,#208);
#177=LINE('',#661,#209);
#178=LINE('',#662,#210);
#179=LINE('',#664,#211);
#180=LINE('',#666,#212);
#181=LINE('',#668,#213);
#182=LINE('',#676,#214);
#183=LINE('',#680,#215);
#184=LINE('',#681,#216);
#185=VECTOR('',#472,1.);
#186=VECTOR('',#473,1.);
#187=VECTOR('',#474,1.);
#188=VECTOR('',#475,1.);
#189=VECTOR('',#476,1.);
#190=VECTOR('',#483,1.);
#191=VECTOR('',#486,1.);
#192=VECTOR('',#489,1.);
#193=VECTOR('',#492,1.);
#194=VECTOR('',#497,1.);
#195=VECTOR('',#498,1.);
#196=VECTOR('',#499,1.);
#197=VECTOR('',#500,1.);
#198=VECTOR('',#503,1.);
#199=VECTOR('',#504,1.);
#200=VECTOR('',#507,1.);
#201=VECTOR('',#508,1.);
#202=VECTOR('',#509,1.);
#203=VECTOR('',#518,1.);
#204=VECTOR('',#521,1.);
#205=VECTOR('',#528,1.);
#206=VECTOR('',#529,1.);
#207=VECTOR('',#530,1.);
#208=VECTOR('',#533,1.);
#209=VECTOR('',#534,1.);
#210=VECTOR('',#535,1.);
#211=VECTOR('',#538,1.);
#212=VECTOR('',#539,1.);
#213=VECTOR('',#540,1.);
#214=VECTOR('',#551,1.);
#215=VECTOR('',#556,1.);
#216=VECTOR('',#557,1.);
#217=ORIENTED_EDGE('',*,*,#356,.F.);
#218=ORIENTED_EDGE('',*,*,#357,.T.);
#219=ORIENTED_EDGE('',*,*,#358,.F.);
#220=ORIENTED_EDGE('',*,*,#359,.F.);
#221=ORIENTED_EDGE('',*,*,#360,.F.);
#222=ORIENTED_EDGE('',*,*,#361,.T.);
#223=ORIENTED_EDGE('',*,*,#362,.F.);
#224=ORIENTED_EDGE('',*,*,#363,.F.);
#225=ORIENTED_EDGE('',*,*,#364,.F.);
#226=ORIENTED_EDGE('',*,*,#365,.F.);
#227=ORIENTED_EDGE('',*,*,#366,.T.);
#228=ORIENTED_EDGE('',*,*,#367,.F.);
#229=ORIENTED_EDGE('',*,*,#368,.T.);
#230=ORIENTED_EDGE('',*,*,#369,.F.);
#231=ORIENTED_EDGE('',*,*,#370,.T.);
#232=ORIENTED_EDGE('',*,*,#371,.F.);
#233=ORIENTED_EDGE('',*,*,#372,.T.);
#234=ORIENTED_EDGE('',*,*,#373,.T.);
#235=ORIENTED_EDGE('',*,*,#374,.T.);
#236=ORIENTED_EDGE('',*,*,#360,.T.);
#237=ORIENTED_EDGE('',*,*,#375,.F.);
#238=ORIENTED_EDGE('',*,*,#376,.T.);
#239=ORIENTED_EDGE('',*,*,#375,.T.);
#240=ORIENTED_EDGE('',*,*,#359,.T.);
#241=ORIENTED_EDGE('',*,*,#377,.F.);
#242=ORIENTED_EDGE('',*,*,#378,.T.);
#243=ORIENTED_EDGE('',*,*,#358,.T.);
#244=ORIENTED_EDGE('',*,*,#379,.T.);
#245=ORIENTED_EDGE('',*,*,#380,.F.);
#246=ORIENTED_EDGE('',*,*,#381,.T.);
#247=ORIENTED_EDGE('',*,*,#377,.T.);
#248=ORIENTED_EDGE('',*,*,#382,.F.);
#249=ORIENTED_EDGE('',*,*,#383,.F.);
#250=ORIENTED_EDGE('',*,*,#384,.F.);
#251=ORIENTED_EDGE('',*,*,#385,.F.);
#252=ORIENTED_EDGE('',*,*,#376,.F.);
#253=ORIENTED_EDGE('',*,*,#378,.F.);
#254=ORIENTED_EDGE('',*,*,#381,.F.);
#255=ORIENTED_EDGE('',*,*,#380,.T.);
#256=ORIENTED_EDGE('',*,*,#386,.T.);
#257=ORIENTED_EDGE('',*,*,#373,.F.);
#258=ORIENTED_EDGE('',*,*,#385,.T.);
#259=ORIENTED_EDGE('',*,*,#387,.F.);
#260=ORIENTED_EDGE('',*,*,#361,.F.);
#261=ORIENTED_EDGE('',*,*,#374,.F.);
#262=ORIENTED_EDGE('',*,*,#386,.F.);
#263=ORIENTED_EDGE('',*,*,#379,.F.);
#264=ORIENTED_EDGE('',*,*,#357,.F.);
#265=ORIENTED_EDGE('',*,*,#388,.T.);
#266=ORIENTED_EDGE('',*,*,#389,.T.);
#267=ORIENTED_EDGE('',*,*,#365,.T.);
#268=ORIENTED_EDGE('',*,*,#390,.T.);
#269=ORIENTED_EDGE('',*,*,#391,.T.);
#270=ORIENTED_EDGE('',*,*,#392,.T.);
#271=ORIENTED_EDGE('',*,*,#367,.T.);
#272=ORIENTED_EDGE('',*,*,#393,.T.);
#273=ORIENTED_EDGE('',*,*,#369,.T.);
#274=ORIENTED_EDGE('',*,*,#394,.T.);
#275=ORIENTED_EDGE('',*,*,#395,.T.);
#276=ORIENTED_EDGE('',*,*,#396,.T.);
#277=ORIENTED_EDGE('',*,*,#397,.T.);
#278=ORIENTED_EDGE('',*,*,#395,.F.);
#279=ORIENTED_EDGE('',*,*,#398,.T.);
#280=ORIENTED_EDGE('',*,*,#391,.F.);
#281=ORIENTED_EDGE('',*,*,#399,.T.);
#282=ORIENTED_EDGE('',*,*,#388,.F.);
#283=ORIENTED_EDGE('',*,*,#400,.T.);
#284=ORIENTED_EDGE('',*,*,#401,.F.);
#285=ORIENTED_EDGE('',*,*,#402,.T.);
#286=ORIENTED_EDGE('',*,*,#401,.T.);
#287=ORIENTED_EDGE('',*,*,#403,.T.);
#288=ORIENTED_EDGE('',*,*,#371,.T.);
#289=ORIENTED_EDGE('',*,*,#404,.T.);
#290=ORIENTED_EDGE('',*,*,#368,.F.);
#291=ORIENTED_EDGE('',*,*,#392,.F.);
#292=ORIENTED_EDGE('',*,*,#398,.F.);
#293=ORIENTED_EDGE('',*,*,#394,.F.);
#294=ORIENTED_EDGE('',*,*,#366,.F.);
#295=ORIENTED_EDGE('',*,*,#389,.F.);
#296=ORIENTED_EDGE('',*,*,#399,.F.);
#297=ORIENTED_EDGE('',*,*,#393,.F.);
#298=ORIENTED_EDGE('',*,*,#372,.F.);
#299=ORIENTED_EDGE('',*,*,#403,.F.);
#300=ORIENTED_EDGE('',*,*,#400,.F.);
#301=ORIENTED_EDGE('',*,*,#390,.F.);
#302=ORIENTED_EDGE('',*,*,#370,.F.);
#303=ORIENTED_EDGE('',*,*,#396,.F.);
#304=ORIENTED_EDGE('',*,*,#402,.F.);
#305=ORIENTED_EDGE('',*,*,#404,.F.);
#306=ORIENTED_EDGE('',*,*,#364,.T.);
#307=ORIENTED_EDGE('',*,*,#384,.T.);
#308=ORIENTED_EDGE('',*,*,#363,.T.);
#309=ORIENTED_EDGE('',*,*,#383,.T.);
#310=ORIENTED_EDGE('',*,*,#405,.T.);
#311=ORIENTED_EDGE('',*,*,#397,.F.);
#312=ORIENTED_EDGE('',*,*,#405,.F.);
#313=ORIENTED_EDGE('',*,*,#362,.T.);
#314=ORIENTED_EDGE('',*,*,#382,.T.);
#315=ORIENTED_EDGE('',*,*,#406,.F.);
#316=ORIENTED_EDGE('',*,*,#356,.T.);
#317=ORIENTED_EDGE('',*,*,#387,.T.);
#318=ORIENTED_EDGE('',*,*,#406,.T.);
#319=VERTEX_POINT('',#588);
#320=VERTEX_POINT('',#589);
#321=VERTEX_POINT('',#591);
#322=VERTEX_POINT('',#593);
#323=VERTEX_POINT('',#595);
#324=VERTEX_POINT('',#597);
#325=VERTEX_POINT('',#600);
#326=VERTEX_POINT('',#602);
#327=VERTEX_POINT('',#604);
#328=VERTEX_POINT('',#606);
#329=VERTEX_POINT('',#607);
#330=VERTEX_POINT('',#609);
#331=VERTEX_POINT('',#611);
#332=VERTEX_POINT('',#613);
#333=VERTEX_POINT('',#615);
#334=VERTEX_POINT('',#617);
#335=VERTEX_POINT('',#619);
#336=VERTEX_POINT('',#623);
#337=VERTEX_POINT('',#624);
#338=VERTEX_POINT('',#627);
#339=VERTEX_POINT('',#631);
#340=VERTEX_POINT('',#635);
#341=VERTEX_POINT('',#637);
#342=VERTEX_POINT('',#641);
#343=VERTEX_POINT('',#643);
#344=VERTEX_POINT('',#645);
#345=VERTEX_POINT('',#653);
#346=VERTEX_POINT('',#654);
#347=VERTEX_POINT('',#659);
#348=VERTEX_POINT('',#660);
#349=VERTEX_POINT('',#665);
#350=VERTEX_POINT('',#667);
#351=VERTEX_POINT('',#671);
#352=VERTEX_POINT('',#675);
#353=VERTEX_POINT('',#677);
#354=VERTEX_POINT('',#690);
#355=VERTEX_POINT('',#695);
#356=EDGE_CURVE('',#319,#320,#407,.T.);
#357=EDGE_CURVE('',#319,#321,#153,.T.);
#358=EDGE_CURVE('',#322,#321,#154,.T.);
#359=EDGE_CURVE('',#323,#322,#155,.T.);
#360=EDGE_CURVE('',#324,#323,#156,.T.);
#361=EDGE_CURVE('',#324,#320,#157,.T.);
#362=EDGE_CURVE('',#325,#325,#408,.T.);
#363=EDGE_CURVE('',#326,#326,#409,.T.);
#364=EDGE_CURVE('',#327,#327,#410,.T.);
#365=EDGE_CURVE('',#328,#329,#158,.T.);
#366=EDGE_CURVE('',#328,#330,#411,.T.);
#367=EDGE_CURVE('',#331,#330,#159,.T.);
#368=EDGE_CURVE('',#331,#332,#412,.T.);
#369=EDGE_CURVE('',#333,#332,#160,.T.);
#370=EDGE_CURVE('',#333,#334,#413,.T.);
#371=EDGE_CURVE('',#335,#334,#161,.T.);
#372=EDGE_CURVE('',#335,#329,#414,.T.);
#373=EDGE_CURVE('',#336,#337,#162,.T.);
#374=EDGE_CURVE('',#337,#324,#163,.T.);
#375=EDGE_CURVE('',#338,#323,#164,.T.);
#376=EDGE_CURVE('',#338,#336,#165,.T.);
#377=EDGE_CURVE('',#339,#322,#166,.T.);
#378=EDGE_CURVE('',#339,#338,#167,.T.);
#379=EDGE_CURVE('',#321,#340,#168,.T.);
#380=EDGE_CURVE('',#341,#340,#169,.T.);
#381=EDGE_CURVE('',#341,#339,#170,.T.);
#382=EDGE_CURVE('',#342,#342,#415,.T.);
#383=EDGE_CURVE('',#343,#343,#416,.T.);
#384=EDGE_CURVE('',#344,#344,#417,.T.);
#385=EDGE_CURVE('',#336,#341,#171,.T.);
#386=EDGE_CURVE('',#340,#337,#172,.T.);
#387=EDGE_CURVE('',#320,#319,#43,.T.);
#388=EDGE_CURVE('',#345,#346,#173,.T.);
#389=EDGE_CURVE('',#346,#328,#174,.T.);
#390=EDGE_CURVE('',#329,#345,#175,.T.);
#391=EDGE_CURVE('',#347,#348,#176,.T.);
#392=EDGE_CURVE('',#348,#331,#177,.T.);
#393=EDGE_CURVE('',#330,#347,#178,.T.);
#394=EDGE_CURVE('',#332,#349,#179,.T.);
#395=EDGE_CURVE('',#349,#350,#180,.T.);
#396=EDGE_CURVE('',#350,#333,#181,.T.);
#397=EDGE_CURVE('',#351,#351,#418,.T.);
#398=EDGE_CURVE('',#349,#348,#419,.T.);
#399=EDGE_CURVE('',#347,#346,#420,.T.);
#400=EDGE_CURVE('',#345,#352,#421,.T.);
#401=EDGE_CURVE('',#353,#352,#182,.T.);
#402=EDGE_CURVE('',#353,#350,#422,.T.);
#403=EDGE_CURVE('',#352,#335,#183,.T.);
#404=EDGE_CURVE('',#334,#353,#184,.T.);
#405=EDGE_CURVE('',#354,#354,#423,.T.);
#406=EDGE_CURVE('',#355,#355,#424,.T.);
#407=CIRCLE('',#426,5.15);
#408=CIRCLE('',#427,14.75);
#409=CIRCLE('',#428,14.);
#410=CIRCLE('',#429,12.25);
#411=CIRCLE('',#430,11.5);
#412=CIRCLE('',#431,11.5);
#413=CIRCLE('',#432,11.5);
#414=CIRCLE('',#433,11.5);
#415=CIRCLE('',#438,14.75);
#416=CIRCLE('',#439,14.);
#417=CIRCLE('',#440,12.25);
#418=CIRCLE('',#448,5.65);
#419=CIRCLE('',#449,11.5);
#420=CIRCLE('',#450,11.5);
#421=CIRCLE('',#451,11.5);
#422=CIRCLE('',#452,11.5);
#423=CIRCLE('',#461,5.65);
#424=CIRCLE('',#465,5.15);
#425=AXIS2_PLACEMENT_3D('',#586,#468,#469);
#426=AXIS2_PLACEMENT_3D('',#587,#470,#471);
#427=AXIS2_PLACEMENT_3D('',#599,#477,#478);
#428=AXIS2_PLACEMENT_3D('',#601,#479,#480);
#429=AXIS2_PLACEMENT_3D('',#603,#481,#482);
#430=AXIS2_PLACEMENT_3D('',#608,#484,#485);
#431=AXIS2_PLACEMENT_3D('',#612,#487,#488);
#432=AXIS2_PLACEMENT_3D('',#616,#490,#491);
#433=AXIS2_PLACEMENT_3D('',#620,#493,#494);
#434=AXIS2_PLACEMENT_3D('',#621,#495,#496);
#435=AXIS2_PLACEMENT_3D('',#629,#501,#502);
#436=AXIS2_PLACEMENT_3D('',#633,#505,#506);
#437=AXIS2_PLACEMENT_3D('',#639,#510,#511);
#438=AXIS2_PLACEMENT_3D('',#640,#512,#513);
#439=AXIS2_PLACEMENT_3D('',#642,#514,#515);
#440=AXIS2_PLACEMENT_3D('',#644,#516,#517);
#441=AXIS2_PLACEMENT_3D('',#647,#519,#520);
#442=AXIS2_PLACEMENT_3D('',#649,#522,#523);
#443=AXIS2_PLACEMENT_3D('',#650,#524,#525);
#444=AXIS2_PLACEMENT_3D('',#651,#526,#527);
#445=AXIS2_PLACEMENT_3D('',#657,#531,#532);
#446=AXIS2_PLACEMENT_3D('',#663,#536,#537);
#447=AXIS2_PLACEMENT_3D('',#669,#541,#542);
#448=AXIS2_PLACEMENT_3D('',#670,#543,#544);
#449=AXIS2_PLACEMENT_3D('',#672,#545,#546);
#450=AXIS2_PLACEMENT_3D('',#673,#547,#548);
#451=AXIS2_PLACEMENT_3D('',#674,#549,#550);
#452=AXIS2_PLACEMENT_3D('',#678,#552,#553);
#453=AXIS2_PLACEMENT_3D('',#679,#554,#555);
#454=AXIS2_PLACEMENT_3D('',#682,#558,#559);
#455=AXIS2_PLACEMENT_3D('',#683,#560,#561);
#456=AXIS2_PLACEMENT_3D('',#684,#562,#563);
#457=AXIS2_PLACEMENT_3D('',#685,#564,#565);
#458=AXIS2_PLACEMENT_3D('',#686,#566,#567);
#459=AXIS2_PLACEMENT_3D('',#687,#568,#569);
#460=AXIS2_PLACEMENT_3D('',#688,#570,#571);
#461=AXIS2_PLACEMENT_3D('',#689,#572,#573);
#462=AXIS2_PLACEMENT_3D('',#691,#574,#575);
#463=AXIS2_PLACEMENT_3D('',#692,#576,#577);
#464=AXIS2_PLACEMENT_3D('',#693,#578,#579);
#465=AXIS2_PLACEMENT_3D('',#694,#580,#581);
#466=AXIS2_PLACEMENT_3D('',#696,#582,#583);
#467=AXIS2_PLACEMENT_3D('',#697,#584,#585);
#468=DIRECTION('',(0.,0.,1.));
#469=DIRECTION('',(1.,0.,0.));
#470=DIRECTION('',(0.,0.,1.));
#471=DIRECTION('',(0.999999999999998,0.,0.));
#472=DIRECTION('',(0.,1.,0.));
#473=DIRECTION('',(1.,0.,0.));
#474=DIRECTION('',(0.,1.,0.));
#475=DIRECTION('',(-1.,0.,0.));
#476=DIRECTION('',(0.,1.,0.));
#477=DIRECTION('',(0.,0.,1.));
#478=DIRECTION('',(1.,0.,0.));
#479=DIRECTION('',(0.,0.,1.));
#480=DIRECTION('',(1.,0.,0.));
#481=DIRECTION('',(0.,0.,1.));
#482=DIRECTION('',(1.,0.,0.));
#483=DIRECTION('',(1.,0.,0.));
#484=DIRECTION('',(0.,0.,-1.));
#485=DIRECTION('',(1.,0.,0.));
#486=DIRECTION('',(0.,-1.,0.));
#487=DIRECTION('',(0.,0.,-1.));
#488=DIRECTION('',(1.,0.,0.));
#489=DIRECTION('',(-1.,0.,0.));
#490=DIRECTION('',(0.,0.,-1.));
#491=DIRECTION('',(1.,0.,0.));
#492=DIRECTION('',(0.,1.,0.));
#493=DIRECTION('',(0.,0.,-1.));
#494=DIRECTION('',(1.,0.,0.));
#495=DIRECTION('',(0.,0.,1.));
#496=DIRECTION('',(1.,0.,0.));
#497=DIRECTION('',(0.,0.,1.));
#498=DIRECTION('',(-0.707106781186548,0.,0.707106781186548));
#499=DIRECTION('',(0.,0.,1.));
#500=DIRECTION('',(1.,0.,0.));
#501=DIRECTION('',(0.,-1.,0.));
#502=DIRECTION('',(0.,0.,-1.));
#503=DIRECTION('',(0.,0.,1.));
#504=DIRECTION('',(0.,-1.,0.));
#505=DIRECTION('',(-1.,0.,0.));
#506=DIRECTION('',(0.,0.,1.));
#507=DIRECTION('',(0.707106781186548,0.,-0.707106781186548));
#508=DIRECTION('',(0.,0.,1.));
#509=DIRECTION('',(-1.,0.,0.));
#510=DIRECTION('',(0.,1.,0.));
#511=DIRECTION('',(0.,0.,1.));
#512=DIRECTION('',(0.,0.,-1.));
#513=DIRECTION('',(-1.,0.,0.));
#514=DIRECTION('',(0.,0.,-1.));
#515=DIRECTION('',(-1.,0.,0.));
#516=DIRECTION('',(0.,0.,-1.));
#517=DIRECTION('',(-1.,0.,0.));
#518=DIRECTION('',(0.,1.,0.));
#519=DIRECTION('',(0.,0.,-1.));
#520=DIRECTION('',(-1.,0.,0.));
#521=DIRECTION('',(0.,-1.,0.));
#522=DIRECTION('',(1.,0.,0.));
#523=DIRECTION('',(0.,0.,-1.));
#524=DIRECTION('',(0.707106781186548,0.,0.707106781186548));
#525=DIRECTION('',(0.707106781186548,0.,-0.707106781186548));
#526=DIRECTION('',(-0.707106781186547,0.,-0.707106781186547));
#527=DIRECTION('',(0.,-1.,0.));
#528=DIRECTION('',(-1.,0.,0.));
#529=DIRECTION('',(0.,0.,1.));
#530=DIRECTION('',(0.,0.,-1.));
#531=DIRECTION('',(0.,-1.,0.));
#532=DIRECTION('',(0.,0.,-1.));
#533=DIRECTION('',(0.,1.,0.));
#534=DIRECTION('',(0.,0.,1.));
#535=DIRECTION('',(0.,0.,-1.));
#536=DIRECTION('',(-1.,0.,0.));
#537=DIRECTION('',(0.,0.,1.));
#538=DIRECTION('',(0.,0.,-1.));
#539=DIRECTION('',(1.,0.,0.));
#540=DIRECTION('',(0.,0.,1.));
#541=DIRECTION('',(0.,1.,0.));
#542=DIRECTION('',(0.,0.,1.));
#543=DIRECTION('',(0.,0.,-1.));
#544=DIRECTION('',(-1.,0.,0.));
#545=DIRECTION('',(0.,0.,1.));
#546=DIRECTION('',(-1.,0.,0.));
#547=DIRECTION('',(0.,0.,1.));
#548=DIRECTION('',(-1.,0.,0.));
#549=DIRECTION('',(0.,0.,1.));
#550=DIRECTION('',(-1.,0.,0.));
#551=DIRECTION('',(0.,-1.,0.));
#552=DIRECTION('',(0.,0.,1.));
#553=DIRECTION('',(-1.,0.,0.));
#554=DIRECTION('',(0.,0.,-1.));
#555=DIRECTION('',(-1.,0.,0.));
#556=DIRECTION('',(0.,0.,1.));
#557=DIRECTION('',(0.,0.,-1.));
#558=DIRECTION('',(1.,0.,0.));
#559=DIRECTION('',(0.,0.,-1.));
#560=DIRECTION('',(0.,0.,1.));
#561=DIRECTION('',(1.,0.,0.));
#562=DIRECTION('',(0.,0.,1.));
#563=DIRECTION('',(1.,0.,0.));
#564=DIRECTION('',(0.,0.,1.));
#565=DIRECTION('',(1.,0.,0.));
#566=DIRECTION('',(0.,0.,1.));
#567=DIRECTION('',(1.,0.,0.));
#568=DIRECTION('',(0.,0.,-1.));
#569=DIRECTION('',(1.,0.,0.));
#570=DIRECTION('',(0.,0.,-1.));
#571=DIRECTION('',(1.,0.,0.));
#572=DIRECTION('',(0.,0.,-1.));
#573=DIRECTION('',(1.,0.,0.));
#574=DIRECTION('',(0.,0.,-1.));
#575=DIRECTION('',(1.,0.,0.));
#576=DIRECTION('',(0.,0.,-1.));
#577=DIRECTION('',(-1.,0.,0.));
#578=DIRECTION('',(0.,0.,-1.));
#579=DIRECTION('',(1.,0.,0.));
#580=DIRECTION('',(0.,0.,-1.));
#581=DIRECTION('',(0.999999999999998,0.,0.));
#582=DIRECTION('',(0.,0.,-1.));
#583=DIRECTION('',(-1.,0.,0.));
#584=DIRECTION('',(0.,0.,-1.));
#585=DIRECTION('',(0.999999999999998,0.,0.));
#586=CARTESIAN_POINT('',(0.,0.,0.));
#587=CARTESIAN_POINT('',(240.,68.5,140.8));
#588=CARTESIAN_POINT('',(242.6,72.9455033460791,140.8));
#589=CARTESIAN_POINT('',(242.6,64.054496653921,140.8));
#590=CARTESIAN_POINT('',(242.6,153.15,140.8));
#591=CARTESIAN_POINT('',(242.6,306.3,140.8));
#592=CARTESIAN_POINT('',(124.9,306.3,140.8));
#593=CARTESIAN_POINT('',(0.,306.3,140.8));
#594=CARTESIAN_POINT('',(0.,153.15,140.8));
#595=CARTESIAN_POINT('',(0.,0.,140.8));
#596=CARTESIAN_POINT('',(124.9,0.,140.8));
#597=CARTESIAN_POINT('',(242.6,0.,140.8));
#598=CARTESIAN_POINT('',(242.6,153.15,140.8));
#599=CARTESIAN_POINT('',(18.8,216.6,140.8));
#600=CARTESIAN_POINT('',(33.55,216.6,140.8));
#601=CARTESIAN_POINT('',(203.,127.9,140.8));
#602=CARTESIAN_POINT('',(217.,127.9,140.8));
#603=CARTESIAN_POINT('',(188.2,85.,140.8));
#604=CARTESIAN_POINT('',(200.45,85.,140.8));
#605=CARTESIAN_POINT('',(124.9,130.6,140.8));
#606=CARTESIAN_POINT('',(87.,130.6,140.8));
#607=CARTESIAN_POINT('',(116.3,130.6,140.8));
#608=CARTESIAN_POINT('',(87.,142.1,140.8));
#609=CARTESIAN_POINT('',(75.5,142.1,140.8));
#610=CARTESIAN_POINT('',(75.5,153.15,140.8));
#611=CARTESIAN_POINT('',(75.5,238.8,140.8));
#612=CARTESIAN_POINT('',(87.,238.8,140.8));
#613=CARTESIAN_POINT('',(87.,250.3,140.8));
#614=CARTESIAN_POINT('',(124.9,250.3,140.8));
#615=CARTESIAN_POINT('',(116.3,250.3,140.8));
#616=CARTESIAN_POINT('',(116.3,238.8,140.8));
#617=CARTESIAN_POINT('',(127.8,238.8,140.8));
#618=CARTESIAN_POINT('',(127.8,153.15,140.8));
#619=CARTESIAN_POINT('',(127.8,142.1,140.8));
#620=CARTESIAN_POINT('',(116.3,142.1,140.8));
#621=CARTESIAN_POINT('',(124.9,153.15,140.8));
#622=CARTESIAN_POINT('',(249.8,0.,0.));
#623=CARTESIAN_POINT('',(249.8,0.,0.));
#624=CARTESIAN_POINT('',(249.8,0.,133.6));
#625=CARTESIAN_POINT('',(254.15,0.,129.25));
#626=CARTESIAN_POINT('',(0.,0.,0.));
#627=CARTESIAN_POINT('',(0.,0.,0.));
#628=CARTESIAN_POINT('',(124.9,0.,0.));
#629=CARTESIAN_POINT('',(124.9,0.,0.));
#630=CARTESIAN_POINT('',(0.,306.3,0.));
#631=CARTESIAN_POINT('',(0.,306.3,0.));
#632=CARTESIAN_POINT('',(0.,153.15,0.));
#633=CARTESIAN_POINT('',(0.,153.15,0.));
#634=CARTESIAN_POINT('',(254.15,306.3,129.25));
#635=CARTESIAN_POINT('',(249.8,306.3,133.6));
#636=CARTESIAN_POINT('',(249.8,306.3,0.));
#637=CARTESIAN_POINT('',(249.8,306.3,0.));
#638=CARTESIAN_POINT('',(124.9,306.3,0.));
#639=CARTESIAN_POINT('',(124.9,306.3,0.));
#640=CARTESIAN_POINT('',(18.8,216.6,0.));
#641=CARTESIAN_POINT('',(4.05,216.6,0.));
#642=CARTESIAN_POINT('',(203.,127.9,0.));
#643=CARTESIAN_POINT('',(189.,127.9,0.));
#644=CARTESIAN_POINT('',(188.2,85.,0.));
#645=CARTESIAN_POINT('',(175.95,85.,0.));
#646=CARTESIAN_POINT('',(249.8,153.15,0.));
#647=CARTESIAN_POINT('',(124.9,153.15,0.));
#648=CARTESIAN_POINT('',(249.8,153.15,133.6));
#649=CARTESIAN_POINT('',(249.8,153.15,0.));
#650=CARTESIAN_POINT('',(240.,68.5,143.4));
#651=CARTESIAN_POINT('',(249.8,153.15,133.6));
#652=CARTESIAN_POINT('',(101.65,130.6,102.9));
#653=CARTESIAN_POINT('',(116.3,130.6,102.9));
#654=CARTESIAN_POINT('',(87.,130.6,102.9));
#655=CARTESIAN_POINT('',(87.,130.6,140.8));
#656=CARTESIAN_POINT('',(116.3,130.6,102.9));
#657=CARTESIAN_POINT('',(101.65,130.6,102.9));
#658=CARTESIAN_POINT('',(75.5,190.45,102.9));
#659=CARTESIAN_POINT('',(75.5,142.1,102.9));
#660=CARTESIAN_POINT('',(75.5,238.8,102.9));
#661=CARTESIAN_POINT('',(75.5,238.8,140.8));
#662=CARTESIAN_POINT('',(75.5,142.1,102.9));
#663=CARTESIAN_POINT('',(75.5,190.45,102.9));
#664=CARTESIAN_POINT('',(87.,250.3,102.9));
#665=CARTESIAN_POINT('',(87.,250.3,102.9));
#666=CARTESIAN_POINT('',(101.65,250.3,102.9));
#667=CARTESIAN_POINT('',(116.3,250.3,102.9));
#668=CARTESIAN_POINT('',(116.3,250.3,140.8));
#669=CARTESIAN_POINT('',(101.65,250.3,102.9));
#670=CARTESIAN_POINT('',(83.4,180.7,102.9));
#671=CARTESIAN_POINT('',(77.75,180.7,102.9));
#672=CARTESIAN_POINT('',(87.,238.8,102.9));
#673=CARTESIAN_POINT('',(87.,142.1,102.9));
#674=CARTESIAN_POINT('',(116.3,142.1,102.9));
#675=CARTESIAN_POINT('',(127.8,142.1,102.9));
#676=CARTESIAN_POINT('',(127.8,190.45,102.9));
#677=CARTESIAN_POINT('',(127.8,238.8,102.9));
#678=CARTESIAN_POINT('',(116.3,238.8,102.9));
#679=CARTESIAN_POINT('',(101.65,190.45,102.9));
#680=CARTESIAN_POINT('',(127.8,142.1,140.8));
#681=CARTESIAN_POINT('',(127.8,238.8,102.9));
#682=CARTESIAN_POINT('',(127.8,190.45,102.9));
#683=CARTESIAN_POINT('',(87.,238.8,102.9));
#684=CARTESIAN_POINT('',(87.,142.1,102.9));
#685=CARTESIAN_POINT('',(116.3,142.1,102.9));
#686=CARTESIAN_POINT('',(116.3,238.8,102.9));
#687=CARTESIAN_POINT('',(188.2,85.,140.85));
#688=CARTESIAN_POINT('',(203.,127.9,140.85));
#689=CARTESIAN_POINT('',(83.4,180.7,95.4));
#690=CARTESIAN_POINT('',(89.05,180.7,95.4));
#691=CARTESIAN_POINT('',(83.4,180.7,140.85));
#692=CARTESIAN_POINT('',(83.4,180.7,95.4));
#693=CARTESIAN_POINT('',(18.8,216.6,140.85));
#694=CARTESIAN_POINT('',(240.,68.5,56.8));
#695=CARTESIAN_POINT('',(245.15,68.5,56.8));
#696=CARTESIAN_POINT('',(240.,68.5,56.8));
#697=CARTESIAN_POINT('',(240.,68.5,140.85));
#698=MECHANICAL_DESIGN_GEOMETRIC_PRESENTATION_REPRESENTATION('',(#24),#699);
#699=(
GEOMETRIC_REPRESENTATION_CONTEXT(3)
GLOBAL_UNCERTAINTY_ASSIGNED_CONTEXT((#700))
GLOBAL_UNIT_ASSIGNED_CONTEXT((#706,#702,#701))
REPRESENTATION_CONTEXT('featured_part_02493','TOP_LEVEL_ASSEMBLY_PART')
);
#700=UNCERTAINTY_MEASURE_WITH_UNIT(LENGTH_MEASURE(2.E-5),#706,
'DISTANCE_ACCURACY_VALUE','Maximum Tolerance applied to model');
#701=(
NAMED_UNIT(*)
SI_UNIT($,.STERADIAN.)
SOLID_ANGLE_UNIT()
);
#702=(
CONVERSION_BASED_UNIT('DEGREE',#704)
NAMED_UNIT(#703)
PLANE_ANGLE_UNIT()
);
#703=DIMENSIONAL_EXPONENTS(0.,0.,0.,0.,0.,0.,0.);
#704=PLANE_ANGLE_MEASURE_WITH_UNIT(PLANE_ANGLE_MEASURE(0.0174532925),#705);
#705=(
NAMED_UNIT(*)
PLANE_ANGLE_UNIT()
SI_UNIT($,.RADIAN.)
);
#706=(
LENGTH_UNIT()
NAMED_UNIT(*)
SI_UNIT(.MILLI.,.METRE.)
);
ENDSEC;
END-ISO-10303-21;
