ISO-10303-21;
HEADER;
/* Generated by software containing ST-Developer
 * from STEP Tools, Inc. (www.steptools.com) 
 */
/* OPTION: using custom schema-name function */

FILE_DESCRIPTION(
/* description */ (''),
/* implementation_level */ '2;1');

FILE_NAME(
/* name */ 'featured_part_09891.stp',
/* time_stamp */ '2026-07-11T19:33:56-04:00',
/* author */ (''),
/* organization */ (''),
/* preprocessor_version */ 'ST-DEVELOPER v20.1',
/* originating_system */ 'SIEMENS PLM Software NX2512.6002',
/* authorisation */ '');

FILE_SCHEMA (('AUTOMOTIVE_DESIGN { 1 0 10303 214 3 1 1 1 }'));
ENDSEC;

DATA;
#10=SHAPE_REPRESENTATION_RELATIONSHIP('None',
'relationship between featured_part_09891-None and featured_part_09891
-None',#22,#11);
#11=ADVANCED_BREP_SHAPE_REPRESENTATION('featured_part_09891-None',(#32),
#741);
#12=SHAPE_DEFINITION_REPRESENTATION(#13,#22);
#13=PRODUCT_DEFINITION_SHAPE('','',#14);
#14=PRODUCT_DEFINITION(' ','',#16,#15);
#15=PRODUCT_DEFINITION_CONTEXT('part definition',#21,'design');
#16=PRODUCT_DEFINITION_FORMATION_WITH_SPECIFIED_SOURCE(' ',' ',#18,
 .NOT_KNOWN.);
#17=PRODUCT_RELATED_PRODUCT_CATEGORY('part','',(#18));
#18=PRODUCT('featured_part_09891','featured_part_09891',' ',(#19));
#19=PRODUCT_CONTEXT(' ',#21,'mechanical');
#20=APPLICATION_PROTOCOL_DEFINITION('international standard',
'automotive_design',2010,#21);
#21=APPLICATION_CONTEXT(
'core data for automotive mechanical design processes');
#22=SHAPE_REPRESENTATION('featured_part_09891-None',(#460),#741);
#23=PRESENTATION_LAYER_ASSIGNMENT('1','Layer 1',(#32));
#24=STYLED_ITEM('',(#25),#32);
#25=PRESENTATION_STYLE_ASSIGNMENT((#26));
#26=SURFACE_STYLE_USAGE(.BOTH.,#27);
#27=SURFACE_SIDE_STYLE('',(#28));
#28=SURFACE_STYLE_FILL_AREA(#29);
#29=FILL_AREA_STYLE('',(#30));
#30=FILL_AREA_STYLE_COLOUR('',#31);
#31=COLOUR_RGB('medium steel',0.611764705882353,0.658823529411765,0.670588235294118);
#32=MANIFOLD_SOLID_BREP('',#33);
#33=CLOSED_SHELL('',(#57,#58,#59,#60,#61,#62,#63,#64,#65,#66,#67,#68,#69,
#70,#71,#72,#73,#74,#75,#76,#77,#78,#79,#80,#81));
#34=CYLINDRICAL_SURFACE('',#486,12.1);
#35=CYLINDRICAL_SURFACE('',#487,12.1);
#36=CYLINDRICAL_SURFACE('',#489,2.55);
#37=CYLINDRICAL_SURFACE('',#491,12.25);
#38=CYLINDRICAL_SURFACE('',#494,15.);
#39=CYLINDRICAL_SURFACE('',#496,9.4);
#40=FACE_BOUND('',#120,.T.);
#41=FACE_BOUND('',#121,.T.);
#42=FACE_BOUND('',#125,.T.);
#43=FACE_BOUND('',#126,.T.);
#44=FACE_BOUND('',#130,.T.);
#45=FACE_BOUND('',#131,.T.);
#46=FACE_BOUND('',#132,.T.);
#47=FACE_BOUND('',#136,.T.);
#48=FACE_BOUND('',#137,.T.);
#49=FACE_BOUND('',#141,.T.);
#50=FACE_BOUND('',#142,.T.);
#51=FACE_BOUND('',#144,.T.);
#52=FACE_BOUND('',#145,.T.);
#53=FACE_BOUND('',#147,.T.);
#54=FACE_BOUND('',#148,.T.);
#55=FACE_BOUND('',#149,.T.);
#56=FACE_BOUND('',#150,.T.);
#57=ADVANCED_FACE('',(#101),#82,.T.);
#58=ADVANCED_FACE('',(#102),#83,.F.);
#59=ADVANCED_FACE('',(#40,#41),#84,.T.);
#60=ADVANCED_FACE('',(#103),#85,.T.);
#61=ADVANCED_FACE('',(#104),#86,.T.);
#62=ADVANCED_FACE('',(#105),#87,.T.);
#63=ADVANCED_FACE('',(#42,#43),#88,.T.);
#64=ADVANCED_FACE('',(#106),#89,.T.);
#65=ADVANCED_FACE('',(#107),#90,.F.);
#66=ADVANCED_FACE('',(#108),#91,.F.);
#67=ADVANCED_FACE('',(#44,#45,#46),#92,.F.);
#68=ADVANCED_FACE('',(#109),#93,.F.);
#69=ADVANCED_FACE('',(#110),#94,.F.);
#70=ADVANCED_FACE('',(#111),#95,.F.);
#71=ADVANCED_FACE('',(#47,#48),#96,.F.);
#72=ADVANCED_FACE('',(#112),#97,.F.);
#73=ADVANCED_FACE('',(#113),#34,.F.);
#74=ADVANCED_FACE('',(#114),#35,.F.);
#75=ADVANCED_FACE('',(#49,#50),#36,.F.);
#76=ADVANCED_FACE('',(#115),#98,.F.);
#77=ADVANCED_FACE('',(#51,#52),#37,.F.);
#78=ADVANCED_FACE('',(#116),#99,.F.);
#79=ADVANCED_FACE('',(#53,#54),#38,.F.);
#80=ADVANCED_FACE('',(#55,#56),#39,.F.);
#81=ADVANCED_FACE('',(#117),#100,.F.);
#82=PLANE('',#463);
#83=PLANE('',#464);
#84=PLANE('',#466);
#85=PLANE('',#467);
#86=PLANE('',#468);
#87=PLANE('',#469);
#88=PLANE('',#471);
#89=PLANE('',#472);
#90=PLANE('',#473);
#91=PLANE('',#474);
#92=PLANE('',#477);
#93=PLANE('',#478);
#94=PLANE('',#479);
#95=PLANE('',#480);
#96=PLANE('',#484);
#97=PLANE('',#485);
#98=PLANE('',#490);
#99=PLANE('',#493);
#100=PLANE('',#497);
#101=FACE_OUTER_BOUND('',#118,.T.);
#102=FACE_OUTER_BOUND('',#119,.T.);
#103=FACE_OUTER_BOUND('',#122,.T.);
#104=FACE_OUTER_BOUND('',#123,.T.);
#105=FACE_OUTER_BOUND('',#124,.T.);
#106=FACE_OUTER_BOUND('',#127,.T.);
#107=FACE_OUTER_BOUND('',#128,.T.);
#108=FACE_OUTER_BOUND('',#129,.T.);
#109=FACE_OUTER_BOUND('',#133,.T.);
#110=FACE_OUTER_BOUND('',#134,.T.);
#111=FACE_OUTER_BOUND('',#135,.T.);
#112=FACE_OUTER_BOUND('',#138,.T.);
#113=FACE_OUTER_BOUND('',#139,.T.);
#114=FACE_OUTER_BOUND('',#140,.T.);
#115=FACE_OUTER_BOUND('',#143,.T.);
#116=FACE_OUTER_BOUND('',#146,.T.);
#117=FACE_OUTER_BOUND('',#151,.T.);
#118=EDGE_LOOP('',(#164,#165,#166,#167,#168,#169,#170,#171,#172,#173));
#119=EDGE_LOOP('',(#174,#175,#176,#177));
#120=EDGE_LOOP('',(#178));
#121=EDGE_LOOP('',(#179,#180,#181,#182));
#122=EDGE_LOOP('',(#183,#184,#185,#186,#187,#188,#189,#190));
#123=EDGE_LOOP('',(#191,#192,#193,#194,#195,#196,#197,#198,#199));
#124=EDGE_LOOP('',(#200,#201,#202,#203,#204,#205,#206,#207));
#125=EDGE_LOOP('',(#208));
#126=EDGE_LOOP('',(#209,#210,#211,#212));
#127=EDGE_LOOP('',(#213,#214,#215,#216,#217));
#128=EDGE_LOOP('',(#218,#219,#220,#221));
#129=EDGE_LOOP('',(#222,#223,#224,#225,#226));
#130=EDGE_LOOP('',(#227));
#131=EDGE_LOOP('',(#228));
#132=EDGE_LOOP('',(#229,#230,#231,#232));
#133=EDGE_LOOP('',(#233,#234,#235,#236,#237));
#134=EDGE_LOOP('',(#238,#239,#240,#241));
#135=EDGE_LOOP('',(#242,#243,#244,#245));
#136=EDGE_LOOP('',(#246));
#137=EDGE_LOOP('',(#247,#248,#249,#250,#251,#252));
#138=EDGE_LOOP('',(#253,#254,#255,#256));
#139=EDGE_LOOP('',(#257,#258,#259,#260));
#140=EDGE_LOOP('',(#261,#262,#263,#264));
#141=EDGE_LOOP('',(#265));
#142=EDGE_LOOP('',(#266));
#143=EDGE_LOOP('',(#267));
#144=EDGE_LOOP('',(#268));
#145=EDGE_LOOP('',(#269));
#146=EDGE_LOOP('',(#270));
#147=EDGE_LOOP('',(#271));
#148=EDGE_LOOP('',(#272));
#149=EDGE_LOOP('',(#273));
#150=EDGE_LOOP('',(#274));
#151=EDGE_LOOP('',(#275));
#152=CIRCLE('',#461,12.1);
#153=CIRCLE('',#462,12.1);
#154=CIRCLE('',#465,15.);
#155=CIRCLE('',#470,12.25);
#156=CIRCLE('',#475,9.4);
#157=CIRCLE('',#476,12.25);
#158=CIRCLE('',#481,2.55);
#159=CIRCLE('',#482,12.1);
#160=CIRCLE('',#483,12.1);
#161=CIRCLE('',#488,2.55);
#162=CIRCLE('',#492,15.);
#163=CIRCLE('',#495,9.4);
#164=ORIENTED_EDGE('',*,*,#316,.F.);
#165=ORIENTED_EDGE('',*,*,#317,.F.);
#166=ORIENTED_EDGE('',*,*,#318,.T.);
#167=ORIENTED_EDGE('',*,*,#319,.F.);
#168=ORIENTED_EDGE('',*,*,#320,.F.);
#169=ORIENTED_EDGE('',*,*,#321,.F.);
#170=ORIENTED_EDGE('',*,*,#322,.F.);
#171=ORIENTED_EDGE('',*,*,#323,.T.);
#172=ORIENTED_EDGE('',*,*,#324,.F.);
#173=ORIENTED_EDGE('',*,*,#325,.T.);
#174=ORIENTED_EDGE('',*,*,#326,.F.);
#175=ORIENTED_EDGE('',*,*,#318,.F.);
#176=ORIENTED_EDGE('',*,*,#327,.F.);
#177=ORIENTED_EDGE('',*,*,#328,.F.);
#178=ORIENTED_EDGE('',*,*,#329,.F.);
#179=ORIENTED_EDGE('',*,*,#330,.F.);
#180=ORIENTED_EDGE('',*,*,#331,.T.);
#181=ORIENTED_EDGE('',*,*,#332,.F.);
#182=ORIENTED_EDGE('',*,*,#333,.F.);
#183=ORIENTED_EDGE('',*,*,#334,.F.);
#184=ORIENTED_EDGE('',*,*,#328,.T.);
#185=ORIENTED_EDGE('',*,*,#335,.F.);
#186=ORIENTED_EDGE('',*,*,#336,.T.);
#187=ORIENTED_EDGE('',*,*,#337,.T.);
#188=ORIENTED_EDGE('',*,*,#338,.T.);
#189=ORIENTED_EDGE('',*,*,#339,.F.);
#190=ORIENTED_EDGE('',*,*,#340,.F.);
#191=ORIENTED_EDGE('',*,*,#341,.F.);
#192=ORIENTED_EDGE('',*,*,#342,.F.);
#193=ORIENTED_EDGE('',*,*,#343,.T.);
#194=ORIENTED_EDGE('',*,*,#321,.T.);
#195=ORIENTED_EDGE('',*,*,#344,.F.);
#196=ORIENTED_EDGE('',*,*,#345,.T.);
#197=ORIENTED_EDGE('',*,*,#335,.T.);
#198=ORIENTED_EDGE('',*,*,#327,.T.);
#199=ORIENTED_EDGE('',*,*,#317,.T.);
#200=ORIENTED_EDGE('',*,*,#346,.F.);
#201=ORIENTED_EDGE('',*,*,#347,.F.);
#202=ORIENTED_EDGE('',*,*,#348,.F.);
#203=ORIENTED_EDGE('',*,*,#333,.T.);
#204=ORIENTED_EDGE('',*,*,#349,.F.);
#205=ORIENTED_EDGE('',*,*,#350,.T.);
#206=ORIENTED_EDGE('',*,*,#344,.T.);
#207=ORIENTED_EDGE('',*,*,#320,.T.);
#208=ORIENTED_EDGE('',*,*,#351,.F.);
#209=ORIENTED_EDGE('',*,*,#352,.F.);
#210=ORIENTED_EDGE('',*,*,#336,.F.);
#211=ORIENTED_EDGE('',*,*,#345,.F.);
#212=ORIENTED_EDGE('',*,*,#350,.F.);
#213=ORIENTED_EDGE('',*,*,#332,.T.);
#214=ORIENTED_EDGE('',*,*,#353,.T.);
#215=ORIENTED_EDGE('',*,*,#337,.F.);
#216=ORIENTED_EDGE('',*,*,#352,.T.);
#217=ORIENTED_EDGE('',*,*,#349,.T.);
#218=ORIENTED_EDGE('',*,*,#354,.F.);
#219=ORIENTED_EDGE('',*,*,#338,.F.);
#220=ORIENTED_EDGE('',*,*,#353,.F.);
#221=ORIENTED_EDGE('',*,*,#331,.F.);
#222=ORIENTED_EDGE('',*,*,#346,.T.);
#223=ORIENTED_EDGE('',*,*,#319,.T.);
#224=ORIENTED_EDGE('',*,*,#326,.T.);
#225=ORIENTED_EDGE('',*,*,#334,.T.);
#226=ORIENTED_EDGE('',*,*,#355,.T.);
#227=ORIENTED_EDGE('',*,*,#356,.T.);
#228=ORIENTED_EDGE('',*,*,#357,.T.);
#229=ORIENTED_EDGE('',*,*,#340,.T.);
#230=ORIENTED_EDGE('',*,*,#358,.F.);
#231=ORIENTED_EDGE('',*,*,#347,.T.);
#232=ORIENTED_EDGE('',*,*,#355,.F.);
#233=ORIENTED_EDGE('',*,*,#348,.T.);
#234=ORIENTED_EDGE('',*,*,#358,.T.);
#235=ORIENTED_EDGE('',*,*,#339,.T.);
#236=ORIENTED_EDGE('',*,*,#354,.T.);
#237=ORIENTED_EDGE('',*,*,#330,.T.);
#238=ORIENTED_EDGE('',*,*,#316,.T.);
#239=ORIENTED_EDGE('',*,*,#359,.T.);
#240=ORIENTED_EDGE('',*,*,#360,.T.);
#241=ORIENTED_EDGE('',*,*,#341,.T.);
#242=ORIENTED_EDGE('',*,*,#361,.T.);
#243=ORIENTED_EDGE('',*,*,#362,.T.);
#244=ORIENTED_EDGE('',*,*,#322,.T.);
#245=ORIENTED_EDGE('',*,*,#343,.F.);
#246=ORIENTED_EDGE('',*,*,#363,.T.);
#247=ORIENTED_EDGE('',*,*,#364,.F.);
#248=ORIENTED_EDGE('',*,*,#365,.T.);
#249=ORIENTED_EDGE('',*,*,#361,.F.);
#250=ORIENTED_EDGE('',*,*,#342,.T.);
#251=ORIENTED_EDGE('',*,*,#360,.F.);
#252=ORIENTED_EDGE('',*,*,#366,.T.);
#253=ORIENTED_EDGE('',*,*,#324,.T.);
#254=ORIENTED_EDGE('',*,*,#367,.T.);
#255=ORIENTED_EDGE('',*,*,#364,.T.);
#256=ORIENTED_EDGE('',*,*,#368,.T.);
#257=ORIENTED_EDGE('',*,*,#323,.F.);
#258=ORIENTED_EDGE('',*,*,#362,.F.);
#259=ORIENTED_EDGE('',*,*,#365,.F.);
#260=ORIENTED_EDGE('',*,*,#367,.F.);
#261=ORIENTED_EDGE('',*,*,#325,.F.);
#262=ORIENTED_EDGE('',*,*,#368,.F.);
#263=ORIENTED_EDGE('',*,*,#366,.F.);
#264=ORIENTED_EDGE('',*,*,#359,.F.);
#265=ORIENTED_EDGE('',*,*,#369,.T.);
#266=ORIENTED_EDGE('',*,*,#363,.F.);
#267=ORIENTED_EDGE('',*,*,#369,.F.);
#268=ORIENTED_EDGE('',*,*,#351,.T.);
#269=ORIENTED_EDGE('',*,*,#357,.F.);
#270=ORIENTED_EDGE('',*,*,#370,.F.);
#271=ORIENTED_EDGE('',*,*,#329,.T.);
#272=ORIENTED_EDGE('',*,*,#370,.T.);
#273=ORIENTED_EDGE('',*,*,#371,.T.);
#274=ORIENTED_EDGE('',*,*,#356,.F.);
#275=ORIENTED_EDGE('',*,*,#371,.F.);
#276=VERTEX_POINT('',#620);
#277=VERTEX_POINT('',#621);
#278=VERTEX_POINT('',#623);
#279=VERTEX_POINT('',#625);
#280=VERTEX_POINT('',#627);
#281=VERTEX_POINT('',#629);
#282=VERTEX_POINT('',#631);
#283=VERTEX_POINT('',#633);
#284=VERTEX_POINT('',#635);
#285=VERTEX_POINT('',#637);
#286=VERTEX_POINT('',#641);
#287=VERTEX_POINT('',#643);
#288=VERTEX_POINT('',#647);
#289=VERTEX_POINT('',#649);
#290=VERTEX_POINT('',#650);
#291=VERTEX_POINT('',#652);
#292=VERTEX_POINT('',#654);
#293=VERTEX_POINT('',#658);
#294=VERTEX_POINT('',#660);
#295=VERTEX_POINT('',#662);
#296=VERTEX_POINT('',#664);
#297=VERTEX_POINT('',#666);
#298=VERTEX_POINT('',#668);
#299=VERTEX_POINT('',#672);
#300=VERTEX_POINT('',#674);
#301=VERTEX_POINT('',#677);
#302=VERTEX_POINT('',#681);
#303=VERTEX_POINT('',#683);
#304=VERTEX_POINT('',#686);
#305=VERTEX_POINT('',#690);
#306=VERTEX_POINT('',#700);
#307=VERTEX_POINT('',#702);
#308=VERTEX_POINT('',#707);
#309=VERTEX_POINT('',#711);
#310=VERTEX_POINT('',#715);
#311=VERTEX_POINT('',#717);
#312=VERTEX_POINT('',#718);
#313=VERTEX_POINT('',#728);
#314=VERTEX_POINT('',#733);
#315=VERTEX_POINT('',#737);
#316=EDGE_CURVE('',#276,#277,#372,.T.);
#317=EDGE_CURVE('',#278,#276,#373,.T.);
#318=EDGE_CURVE('',#278,#279,#374,.T.);
#319=EDGE_CURVE('',#280,#279,#375,.T.);
#320=EDGE_CURVE('',#281,#280,#376,.T.);
#321=EDGE_CURVE('',#282,#281,#377,.T.);
#322=EDGE_CURVE('',#283,#282,#378,.T.);
#323=EDGE_CURVE('',#283,#284,#152,.T.);
#324=EDGE_CURVE('',#285,#284,#379,.T.);
#325=EDGE_CURVE('',#285,#277,#153,.T.);
#326=EDGE_CURVE('',#279,#286,#380,.T.);
#327=EDGE_CURVE('',#287,#278,#381,.T.);
#328=EDGE_CURVE('',#286,#287,#382,.T.);
#329=EDGE_CURVE('',#288,#288,#154,.T.);
#330=EDGE_CURVE('',#289,#290,#383,.T.);
#331=EDGE_CURVE('',#289,#291,#384,.T.);
#332=EDGE_CURVE('',#292,#291,#385,.T.);
#333=EDGE_CURVE('',#290,#292,#386,.T.);
#334=EDGE_CURVE('',#286,#293,#387,.T.);
#335=EDGE_CURVE('',#294,#287,#388,.T.);
#336=EDGE_CURVE('',#294,#295,#389,.T.);
#337=EDGE_CURVE('',#295,#296,#390,.T.);
#338=EDGE_CURVE('',#296,#297,#391,.T.);
#339=EDGE_CURVE('',#298,#297,#392,.T.);
#340=EDGE_CURVE('',#293,#298,#393,.T.);
#341=EDGE_CURVE('',#299,#276,#394,.T.);
#342=EDGE_CURVE('',#300,#299,#395,.T.);
#343=EDGE_CURVE('',#300,#282,#396,.T.);
#344=EDGE_CURVE('',#301,#281,#397,.T.);
#345=EDGE_CURVE('',#301,#294,#398,.T.);
#346=EDGE_CURVE('',#302,#280,#399,.T.);
#347=EDGE_CURVE('',#303,#302,#400,.T.);
#348=EDGE_CURVE('',#290,#303,#401,.T.);
#349=EDGE_CURVE('',#304,#292,#402,.T.);
#350=EDGE_CURVE('',#304,#301,#403,.T.);
#351=EDGE_CURVE('',#305,#305,#155,.T.);
#352=EDGE_CURVE('',#295,#304,#404,.T.);
#353=EDGE_CURVE('',#291,#296,#405,.T.);
#354=EDGE_CURVE('',#297,#289,#406,.T.);
#355=EDGE_CURVE('',#293,#302,#407,.T.);
#356=EDGE_CURVE('',#306,#306,#156,.T.);
#357=EDGE_CURVE('',#307,#307,#157,.T.);
#358=EDGE_CURVE('',#303,#298,#408,.T.);
#359=EDGE_CURVE('',#277,#308,#409,.T.);
#360=EDGE_CURVE('',#308,#299,#410,.T.);
#361=EDGE_CURVE('',#300,#309,#411,.T.);
#362=EDGE_CURVE('',#309,#283,#412,.T.);
#363=EDGE_CURVE('',#310,#310,#158,.T.);
#364=EDGE_CURVE('',#311,#312,#413,.T.);
#365=EDGE_CURVE('',#311,#309,#159,.T.);
#366=EDGE_CURVE('',#308,#312,#160,.T.);
#367=EDGE_CURVE('',#284,#311,#414,.T.);
#368=EDGE_CURVE('',#312,#285,#415,.T.);
#369=EDGE_CURVE('',#313,#313,#161,.T.);
#370=EDGE_CURVE('',#314,#314,#162,.T.);
#371=EDGE_CURVE('',#315,#315,#163,.T.);
#372=LINE('',#619,#416);
#373=LINE('',#622,#417);
#374=LINE('',#624,#418);
#375=LINE('',#626,#419);
#376=LINE('',#628,#420);
#377=LINE('',#630,#421);
#378=LINE('',#632,#422);
#379=LINE('',#636,#423);
#380=LINE('',#640,#424);
#381=LINE('',#642,#425);
#382=LINE('',#644,#426);
#383=LINE('',#648,#427);
#384=LINE('',#651,#428);
#385=LINE('',#653,#429);
#386=LINE('',#655,#430);
#387=LINE('',#657,#431);
#388=LINE('',#659,#432);
#389=LINE('',#661,#433);
#390=LINE('',#663,#434);
#391=LINE('',#665,#435);
#392=LINE('',#667,#436);
#393=LINE('',#669,#437);
#394=LINE('',#671,#438);
#395=LINE('',#673,#439);
#396=LINE('',#675,#440);
#397=LINE('',#676,#441);
#398=LINE('',#678,#442);
#399=LINE('',#680,#443);
#400=LINE('',#682,#444);
#401=LINE('',#684,#445);
#402=LINE('',#685,#446);
#403=LINE('',#687,#447);
#404=LINE('',#691,#448);
#405=LINE('',#693,#449);
#406=LINE('',#695,#450);
#407=LINE('',#697,#451);
#408=LINE('',#703,#452);
#409=LINE('',#706,#453);
#410=LINE('',#708,#454);
#411=LINE('',#710,#455);
#412=LINE('',#712,#456);
#413=LINE('',#716,#457);
#414=LINE('',#722,#458);
#415=LINE('',#723,#459);
#416=VECTOR('',#500,1.);
#417=VECTOR('',#501,1.);
#418=VECTOR('',#502,1.);
#419=VECTOR('',#503,1.);
#420=VECTOR('',#504,1.);
#421=VECTOR('',#505,1.);
#422=VECTOR('',#506,1.);
#423=VECTOR('',#509,1.);
#424=VECTOR('',#514,1.);
#425=VECTOR('',#515,1.);
#426=VECTOR('',#516,1.);
#427=VECTOR('',#521,1.);
#428=VECTOR('',#522,1.);
#429=VECTOR('',#523,1.);
#430=VECTOR('',#524,1.);
#431=VECTOR('',#527,1.);
#432=VECTOR('',#528,1.);
#433=VECTOR('',#529,1.);
#434=VECTOR('',#530,1.);
#435=VECTOR('',#531,1.);
#436=VECTOR('',#532,1.);
#437=VECTOR('',#533,1.);
#438=VECTOR('',#536,1.);
#439=VECTOR('',#537,1.);
#440=VECTOR('',#538,1.);
#441=VECTOR('',#539,1.);
#442=VECTOR('',#540,1.);
#443=VECTOR('',#543,1.);
#444=VECTOR('',#544,1.);
#445=VECTOR('',#545,1.);
#446=VECTOR('',#546,1.);
#447=VECTOR('',#547,1.);
#448=VECTOR('',#552,1.);
#449=VECTOR('',#555,1.);
#450=VECTOR('',#558,1.);
#451=VECTOR('',#561,1.);
#452=VECTOR('',#568,1.);
#453=VECTOR('',#573,1.);
#454=VECTOR('',#574,1.);
#455=VECTOR('',#577,1.);
#456=VECTOR('',#578,1.);
#457=VECTOR('',#583,1.);
#458=VECTOR('',#590,1.);
#459=VECTOR('',#591,1.);
#460=AXIS2_PLACEMENT_3D('',#618,#498,#499);
#461=AXIS2_PLACEMENT_3D('',#634,#507,#508);
#462=AXIS2_PLACEMENT_3D('',#638,#510,#511);
#463=AXIS2_PLACEMENT_3D('',#639,#512,#513);
#464=AXIS2_PLACEMENT_3D('',#645,#517,#518);
#465=AXIS2_PLACEMENT_3D('',#646,#519,#520);
#466=AXIS2_PLACEMENT_3D('',#656,#525,#526);
#467=AXIS2_PLACEMENT_3D('',#670,#534,#535);
#468=AXIS2_PLACEMENT_3D('',#679,#541,#542);
#469=AXIS2_PLACEMENT_3D('',#688,#548,#549);
#470=AXIS2_PLACEMENT_3D('',#689,#550,#551);
#471=AXIS2_PLACEMENT_3D('',#692,#553,#554);
#472=AXIS2_PLACEMENT_3D('',#694,#556,#557);
#473=AXIS2_PLACEMENT_3D('',#696,#559,#560);
#474=AXIS2_PLACEMENT_3D('',#698,#562,#563);
#475=AXIS2_PLACEMENT_3D('',#699,#564,#565);
#476=AXIS2_PLACEMENT_3D('',#701,#566,#567);
#477=AXIS2_PLACEMENT_3D('',#704,#569,#570);
#478=AXIS2_PLACEMENT_3D('',#705,#571,#572);
#479=AXIS2_PLACEMENT_3D('',#709,#575,#576);
#480=AXIS2_PLACEMENT_3D('',#713,#579,#580);
#481=AXIS2_PLACEMENT_3D('',#714,#581,#582);
#482=AXIS2_PLACEMENT_3D('',#719,#584,#585);
#483=AXIS2_PLACEMENT_3D('',#720,#586,#587);
#484=AXIS2_PLACEMENT_3D('',#721,#588,#589);
#485=AXIS2_PLACEMENT_3D('',#724,#592,#593);
#486=AXIS2_PLACEMENT_3D('',#725,#594,#595);
#487=AXIS2_PLACEMENT_3D('',#726,#596,#597);
#488=AXIS2_PLACEMENT_3D('',#727,#598,#599);
#489=AXIS2_PLACEMENT_3D('',#729,#600,#601);
#490=AXIS2_PLACEMENT_3D('',#730,#602,#603);
#491=AXIS2_PLACEMENT_3D('',#731,#604,#605);
#492=AXIS2_PLACEMENT_3D('',#732,#606,#607);
#493=AXIS2_PLACEMENT_3D('',#734,#608,#609);
#494=AXIS2_PLACEMENT_3D('',#735,#610,#611);
#495=AXIS2_PLACEMENT_3D('',#736,#612,#613);
#496=AXIS2_PLACEMENT_3D('',#738,#614,#615);
#497=AXIS2_PLACEMENT_3D('',#739,#616,#617);
#498=DIRECTION('',(0.,0.,1.));
#499=DIRECTION('',(1.,0.,0.));
#500=DIRECTION('',(1.,0.,0.));
#501=DIRECTION('',(0.,1.,0.));
#502=DIRECTION('',(1.,0.,0.));
#503=DIRECTION('',(0.,-1.,0.));
#504=DIRECTION('',(1.,0.,0.));
#505=DIRECTION('',(0.,1.,0.));
#506=DIRECTION('',(-1.,0.,0.));
#507=DIRECTION('',(0.,0.,-1.));
#508=DIRECTION('',(1.,0.,0.));
#509=DIRECTION('',(0.,1.,0.));
#510=DIRECTION('',(0.,0.,-1.));
#511=DIRECTION('',(1.,0.,0.));
#512=DIRECTION('',(0.,0.,1.));
#513=DIRECTION('',(1.,0.,0.));
#514=DIRECTION('',(0.,-0.707106781186548,-0.707106781186548));
#515=DIRECTION('',(0.,0.707106781186548,0.707106781186548));
#516=DIRECTION('',(-1.,0.,0.));
#517=DIRECTION('',(0.,0.707106781186547,-0.707106781186547));
#518=DIRECTION('',(-1.,0.,0.));
#519=DIRECTION('',(0.,0.,1.));
#520=DIRECTION('',(1.,0.,0.));
#521=DIRECTION('',(0.,1.,0.));
#522=DIRECTION('',(1.,0.,0.));
#523=DIRECTION('',(0.,-1.,0.));
#524=DIRECTION('',(1.,0.,0.));
#525=DIRECTION('',(0.,0.,1.));
#526=DIRECTION('',(1.,0.,0.));
#527=DIRECTION('',(0.,0.,-1.));
#528=DIRECTION('',(0.,0.,1.));
#529=DIRECTION('',(1.,0.,0.));
#530=DIRECTION('',(0.,0.,1.));
#531=DIRECTION('',(-1.,0.,0.));
#532=DIRECTION('',(0.,0.,1.));
#533=DIRECTION('',(1.,0.,0.));
#534=DIRECTION('',(0.,-1.,0.));
#535=DIRECTION('',(0.,0.,-1.));
#536=DIRECTION('',(0.,0.,1.));
#537=DIRECTION('',(0.,-1.,0.));
#538=DIRECTION('',(0.,0.,1.));
#539=DIRECTION('',(0.,0.,1.));
#540=DIRECTION('',(0.,-1.,0.));
#541=DIRECTION('',(-1.,0.,0.));
#542=DIRECTION('',(0.,0.,1.));
#543=DIRECTION('',(0.,0.,1.));
#544=DIRECTION('',(-1.,0.,0.));
#545=DIRECTION('',(0.,0.,-1.));
#546=DIRECTION('',(0.,0.,1.));
#547=DIRECTION('',(-1.,0.,0.));
#548=DIRECTION('',(0.,1.,0.));
#549=DIRECTION('',(0.,0.,1.));
#550=DIRECTION('',(0.,0.,-1.));
#551=DIRECTION('',(-1.,0.,0.));
#552=DIRECTION('',(0.,1.,0.));
#553=DIRECTION('',(0.,0.,-1.));
#554=DIRECTION('',(-1.,0.,0.));
#555=DIRECTION('',(0.,-0.707106781186548,-0.707106781186548));
#556=DIRECTION('',(1.,0.,0.));
#557=DIRECTION('',(0.,0.,-1.));
#558=DIRECTION('',(0.,0.707106781186548,0.707106781186548));
#559=DIRECTION('',(0.,0.707106781186547,-0.707106781186547));
#560=DIRECTION('',(-1.,0.,0.));
#561=DIRECTION('',(0.,1.,0.));
#562=DIRECTION('',(-1.,0.,0.));
#563=DIRECTION('',(0.,0.,1.));
#564=DIRECTION('',(0.,0.,-1.));
#565=DIRECTION('',(-0.999999999999999,0.,0.));
#566=DIRECTION('',(0.,0.,-1.));
#567=DIRECTION('',(-1.,0.,0.));
#568=DIRECTION('',(0.,-1.,0.));
#569=DIRECTION('',(0.,0.,-1.));
#570=DIRECTION('',(-1.,0.,0.));
#571=DIRECTION('',(1.,0.,0.));
#572=DIRECTION('',(0.,0.,-1.));
#573=DIRECTION('',(0.,0.,-1.));
#574=DIRECTION('',(-1.,0.,0.));
#575=DIRECTION('',(0.,-1.,0.));
#576=DIRECTION('',(0.,0.,-1.));
#577=DIRECTION('',(1.,0.,0.));
#578=DIRECTION('',(0.,0.,1.));
#579=DIRECTION('',(0.,1.,0.));
#580=DIRECTION('',(0.,0.,1.));
#581=DIRECTION('',(0.,0.,-1.));
#582=DIRECTION('',(-0.999999999999999,0.,0.));
#583=DIRECTION('',(0.,-1.,0.));
#584=DIRECTION('',(0.,0.,1.));
#585=DIRECTION('',(-1.,0.,0.));
#586=DIRECTION('',(0.,0.,1.));
#587=DIRECTION('',(-1.,0.,0.));
#588=DIRECTION('',(0.,0.,-1.));
#589=DIRECTION('',(-1.,0.,0.));
#590=DIRECTION('',(0.,0.,-1.));
#591=DIRECTION('',(0.,0.,1.));
#592=DIRECTION('',(1.,0.,0.));
#593=DIRECTION('',(0.,0.,-1.));
#594=DIRECTION('',(0.,0.,1.));
#595=DIRECTION('',(1.,0.,0.));
#596=DIRECTION('',(0.,0.,1.));
#597=DIRECTION('',(1.,0.,0.));
#598=DIRECTION('',(0.,0.,-1.));
#599=DIRECTION('',(0.999999999999999,0.,0.));
#600=DIRECTION('',(0.,0.,-1.));
#601=DIRECTION('',(0.999999999999999,0.,0.));
#602=DIRECTION('',(0.,0.,-1.));
#603=DIRECTION('',(-1.,0.,0.));
#604=DIRECTION('',(0.,0.,-1.));
#605=DIRECTION('',(1.,0.,0.));
#606=DIRECTION('',(0.,0.,-1.));
#607=DIRECTION('',(1.,0.,0.));
#608=DIRECTION('',(0.,0.,-1.));
#609=DIRECTION('',(-1.,0.,0.));
#610=DIRECTION('',(0.,0.,-1.));
#611=DIRECTION('',(1.,0.,0.));
#612=DIRECTION('',(0.,0.,-1.));
#613=DIRECTION('',(0.999999999999999,0.,0.));
#614=DIRECTION('',(0.,0.,-1.));
#615=DIRECTION('',(0.999999999999999,0.,0.));
#616=DIRECTION('',(0.,0.,-1.));
#617=DIRECTION('',(-1.,0.,0.));
#618=CARTESIAN_POINT('',(0.,0.,0.));
#619=CARTESIAN_POINT('',(217.8,35.4,149.3));
#620=CARTESIAN_POINT('',(0.,35.4,149.3));
#621=CARTESIAN_POINT('',(112.7,35.4,149.3));
#622=CARTESIAN_POINT('',(0.,121.7,149.3));
#623=CARTESIAN_POINT('',(0.,28.2,149.3));
#624=CARTESIAN_POINT('',(217.8,28.2,149.3));
#625=CARTESIAN_POINT('',(144.1,28.2,149.3));
#626=CARTESIAN_POINT('',(144.1,121.7,149.3));
#627=CARTESIAN_POINT('',(144.1,243.4,149.3));
#628=CARTESIAN_POINT('',(217.8,243.4,149.3));
#629=CARTESIAN_POINT('',(0.,243.4,149.3));
#630=CARTESIAN_POINT('',(0.,121.7,149.3));
#631=CARTESIAN_POINT('',(0.,92.,149.3));
#632=CARTESIAN_POINT('',(217.8,92.,149.3));
#633=CARTESIAN_POINT('',(112.7,92.,149.3));
#634=CARTESIAN_POINT('',(112.7,79.9,149.3));
#635=CARTESIAN_POINT('',(124.8,79.9,149.3));
#636=CARTESIAN_POINT('',(124.8,121.7,149.3));
#637=CARTESIAN_POINT('',(124.8,47.5,149.3));
#638=CARTESIAN_POINT('',(112.7,47.5,149.3));
#639=CARTESIAN_POINT('',(217.8,121.7,149.3));
#640=CARTESIAN_POINT('',(144.1,0.,121.1));
#641=CARTESIAN_POINT('',(144.1,0.,121.1));
#642=CARTESIAN_POINT('',(0.,0.299999999999995,121.4));
#643=CARTESIAN_POINT('',(0.,0.,121.1));
#644=CARTESIAN_POINT('',(217.8,0.,121.1));
#645=CARTESIAN_POINT('',(217.8,0.,121.1));
#646=CARTESIAN_POINT('',(275.8,217.4,149.3));
#647=CARTESIAN_POINT('',(290.8,217.4,149.3));
#648=CARTESIAN_POINT('',(187.4,121.7,149.3));
#649=CARTESIAN_POINT('',(187.4,28.2,149.3));
#650=CARTESIAN_POINT('',(187.4,243.4,149.3));
#651=CARTESIAN_POINT('',(217.8,28.2,149.3));
#652=CARTESIAN_POINT('',(435.6,28.2,149.3));
#653=CARTESIAN_POINT('',(435.6,121.7,149.3));
#654=CARTESIAN_POINT('',(435.6,243.4,149.3));
#655=CARTESIAN_POINT('',(217.8,243.4,149.3));
#656=CARTESIAN_POINT('',(217.8,121.7,149.3));
#657=CARTESIAN_POINT('',(144.1,0.,0.));
#658=CARTESIAN_POINT('',(144.1,0.,86.4));
#659=CARTESIAN_POINT('',(0.,0.,0.));
#660=CARTESIAN_POINT('',(0.,0.,0.));
#661=CARTESIAN_POINT('',(217.8,0.,0.));
#662=CARTESIAN_POINT('',(435.6,0.,0.));
#663=CARTESIAN_POINT('',(435.6,0.,0.));
#664=CARTESIAN_POINT('',(435.6,0.,121.1));
#665=CARTESIAN_POINT('',(217.8,0.,121.1));
#666=CARTESIAN_POINT('',(187.4,0.,121.1));
#667=CARTESIAN_POINT('',(187.4,0.,0.));
#668=CARTESIAN_POINT('',(187.4,0.,86.4));
#669=CARTESIAN_POINT('',(217.8,0.,86.4));
#670=CARTESIAN_POINT('',(217.8,0.,0.));
#671=CARTESIAN_POINT('',(0.,35.4,111.4));
#672=CARTESIAN_POINT('',(0.,35.4,111.4));
#673=CARTESIAN_POINT('',(0.,63.7,111.4));
#674=CARTESIAN_POINT('',(0.,92.,111.4));
#675=CARTESIAN_POINT('',(0.,92.,111.4));
#676=CARTESIAN_POINT('',(0.,243.4,0.));
#677=CARTESIAN_POINT('',(0.,243.4,0.));
#678=CARTESIAN_POINT('',(0.,121.7,0.));
#679=CARTESIAN_POINT('',(0.,121.7,0.));
#680=CARTESIAN_POINT('',(144.1,243.4,0.));
#681=CARTESIAN_POINT('',(144.1,243.4,86.4));
#682=CARTESIAN_POINT('',(217.8,243.4,86.4));
#683=CARTESIAN_POINT('',(187.4,243.4,86.4));
#684=CARTESIAN_POINT('',(187.4,243.4,0.));
#685=CARTESIAN_POINT('',(435.6,243.4,0.));
#686=CARTESIAN_POINT('',(435.6,243.4,0.));
#687=CARTESIAN_POINT('',(217.8,243.4,0.));
#688=CARTESIAN_POINT('',(217.8,243.4,0.));
#689=CARTESIAN_POINT('',(169.3,64.3,0.));
#690=CARTESIAN_POINT('',(157.05,64.3,0.));
#691=CARTESIAN_POINT('',(435.6,121.7,0.));
#692=CARTESIAN_POINT('',(217.8,121.7,0.));
#693=CARTESIAN_POINT('',(435.6,0.299999999999995,121.4));
#694=CARTESIAN_POINT('',(435.6,121.7,0.));
#695=CARTESIAN_POINT('',(187.4,0.,121.1));
#696=CARTESIAN_POINT('',(217.8,0.,121.1));
#697=CARTESIAN_POINT('',(144.1,121.7,86.4));
#698=CARTESIAN_POINT('',(144.1,121.7,86.4));
#699=CARTESIAN_POINT('',(172.1,147.8,86.4));
#700=CARTESIAN_POINT('',(162.7,147.8,86.4));
#701=CARTESIAN_POINT('',(169.3,64.3,86.4));
#702=CARTESIAN_POINT('',(157.05,64.3,86.4));
#703=CARTESIAN_POINT('',(187.4,121.7,86.4));
#704=CARTESIAN_POINT('',(165.75,121.7,86.4));
#705=CARTESIAN_POINT('',(187.4,121.7,86.4));
#706=CARTESIAN_POINT('',(112.7,35.4,111.4));
#707=CARTESIAN_POINT('',(112.7,35.4,111.4));
#708=CARTESIAN_POINT('',(62.4,35.4,111.4));
#709=CARTESIAN_POINT('',(62.4,35.4,111.4));
#710=CARTESIAN_POINT('',(62.4,92.,111.4));
#711=CARTESIAN_POINT('',(112.7,92.,111.4));
#712=CARTESIAN_POINT('',(112.7,92.,149.3));
#713=CARTESIAN_POINT('',(62.4,92.,111.4));
#714=CARTESIAN_POINT('',(84.6,46.2,111.4));
#715=CARTESIAN_POINT('',(82.05,46.2,111.4));
#716=CARTESIAN_POINT('',(124.8,63.7,111.4));
#717=CARTESIAN_POINT('',(124.8,79.9,111.4));
#718=CARTESIAN_POINT('',(124.8,47.5,111.4));
#719=CARTESIAN_POINT('',(112.7,79.9,111.4));
#720=CARTESIAN_POINT('',(112.7,47.5,111.4));
#721=CARTESIAN_POINT('',(62.4,63.7,111.4));
#722=CARTESIAN_POINT('',(124.8,79.9,111.4));
#723=CARTESIAN_POINT('',(124.8,47.5,149.3));
#724=CARTESIAN_POINT('',(124.8,63.7,111.4));
#725=CARTESIAN_POINT('',(112.7,79.9,111.4));
#726=CARTESIAN_POINT('',(112.7,47.5,111.4));
#727=CARTESIAN_POINT('',(84.6,46.2,97.4));
#728=CARTESIAN_POINT('',(87.15,46.2,97.4));
#729=CARTESIAN_POINT('',(84.6,46.2,149.35));
#730=CARTESIAN_POINT('',(84.6,46.2,97.4));
#731=CARTESIAN_POINT('',(169.3,64.3,149.35));
#732=CARTESIAN_POINT('',(275.8,217.4,96.7));
#733=CARTESIAN_POINT('',(290.8,217.4,96.7));
#734=CARTESIAN_POINT('',(275.8,217.4,96.7));
#735=CARTESIAN_POINT('',(275.8,217.4,149.35));
#736=CARTESIAN_POINT('',(172.1,147.8,57.7));
#737=CARTESIAN_POINT('',(181.5,147.8,57.7));
#738=CARTESIAN_POINT('',(172.1,147.8,149.35));
#739=CARTESIAN_POINT('',(172.1,147.8,57.7));
#740=MECHANICAL_DESIGN_GEOMETRIC_PRESENTATION_REPRESENTATION('',(#24),#741);
#741=(
GEOMETRIC_REPRESENTATION_CONTEXT(3)
GLOBAL_UNCERTAINTY_ASSIGNED_CONTEXT((#742))
GLOBAL_UNIT_ASSIGNED_CONTEXT((#748,#744,#743))
REPRESENTATION_CONTEXT('featured_part_09891','TOP_LEVEL_ASSEMBLY_PART')
);
#742=UNCERTAINTY_MEASURE_WITH_UNIT(LENGTH_MEASURE(2.E-5),#748,
'DISTANCE_ACCURACY_VALUE','Maximum Tolerance applied to model');
#743=(
NAMED_UNIT(*)
SI_UNIT($,.STERADIAN.)
SOLID_ANGLE_UNIT()
);
#744=(
CONVERSION_BASED_UNIT('DEGREE',#746)
NAMED_UNIT(#745)
PLANE_ANGLE_UNIT()
);
#745=DIMENSIONAL_EXPONENTS(0.,0.,0.,0.,0.,0.,0.);
#746=PLANE_ANGLE_MEASURE_WITH_UNIT(PLANE_ANGLE_MEASURE(0.0174532925),#747);
#747=(
NAMED_UNIT(*)
PLANE_ANGLE_UNIT()
SI_UNIT($,.RADIAN.)
);
#748=(
LENGTH_UNIT()
NAMED_UNIT(*)
SI_UNIT(.MILLI.,.METRE.)
);
ENDSEC;
END-ISO-10303-21;
