ISO-10303-21;
HEADER;
/* Generated by software containing ST-Developer
 * from STEP Tools, Inc. (www.steptools.com) 
 */
/* OPTION: using custom schema-name function */

FILE_DESCRIPTION(
/* description */ (''),
/* implementation_level */ '2;1');

FILE_NAME(
/* name */ 'featured_part_08186.stp',
/* time_stamp */ '2026-07-10T16:26:48-04:00',
/* author */ (''),
/* organization */ (''),
/* preprocessor_version */ 'ST-DEVELOPER v20.1',
/* originating_system */ 'SIEMENS PLM Software NX2512.6002',
/* authorisation */ '');

FILE_SCHEMA (('AUTOMOTIVE_DESIGN { 1 0 10303 214 3 1 1 1 }'));
ENDSEC;

DATA;
#10=SHAPE_REPRESENTATION_RELATIONSHIP('None',
'relationship between featured_part_08186-None and featured_part_08186
-None',#22,#11);
#11=ADVANCED_BREP_SHAPE_REPRESENTATION('featured_part_08186-None',(#32),
#702);
#12=SHAPE_DEFINITION_REPRESENTATION(#13,#22);
#13=PRODUCT_DEFINITION_SHAPE('','',#14);
#14=PRODUCT_DEFINITION(' ','',#16,#15);
#15=PRODUCT_DEFINITION_CONTEXT('part definition',#21,'design');
#16=PRODUCT_DEFINITION_FORMATION_WITH_SPECIFIED_SOURCE(' ',' ',#18,
 .NOT_KNOWN.);
#17=PRODUCT_RELATED_PRODUCT_CATEGORY('part','',(#18));
#18=PRODUCT('featured_part_08186','featured_part_08186',' ',(#19));
#19=PRODUCT_CONTEXT(' ',#21,'mechanical');
#20=APPLICATION_PROTOCOL_DEFINITION('international standard',
'automotive_design',2010,#21);
#21=APPLICATION_CONTEXT(
'core data for automotive mechanical design processes');
#22=SHAPE_REPRESENTATION('featured_part_08186-None',(#437),#702);
#23=PRESENTATION_LAYER_ASSIGNMENT('1','Layer 1',(#32));
#24=STYLED_ITEM('',(#25),#32);
#25=PRESENTATION_STYLE_ASSIGNMENT((#26));
#26=SURFACE_STYLE_USAGE(.BOTH.,#27);
#27=SURFACE_SIDE_STYLE('',(#28));
#28=SURFACE_STYLE_FILL_AREA(#29);
#29=FILL_AREA_STYLE('',(#30));
#30=FILL_AREA_STYLE_COLOUR('',#31);
#31=COLOUR_RGB('medium steel',0.611764705882353,0.658823529411765,0.670588235294118);
#32=MANIFOLD_SOLID_BREP('',#33);
#33=CLOSED_SHELL('',(#60,#61,#62,#63,#64,#65,#66,#67,#68,#69,#70,#71,#72,
#73,#74,#75,#76,#77,#78,#79,#80,#81));
#34=CYLINDRICAL_SURFACE('',#461,8.);
#35=CYLINDRICAL_SURFACE('',#462,8.);
#36=CYLINDRICAL_SURFACE('',#463,8.);
#37=CYLINDRICAL_SURFACE('',#464,8.);
#38=CYLINDRICAL_SURFACE('',#469,4.6);
#39=FACE_OUTER_BOUND('',#103,.T.);
#40=FACE_OUTER_BOUND('',#104,.T.);
#41=FACE_OUTER_BOUND('',#105,.T.);
#42=FACE_OUTER_BOUND('',#106,.T.);
#43=FACE_OUTER_BOUND('',#107,.T.);
#44=FACE_OUTER_BOUND('',#108,.T.);
#45=FACE_OUTER_BOUND('',#109,.T.);
#46=FACE_OUTER_BOUND('',#110,.T.);
#47=FACE_OUTER_BOUND('',#111,.T.);
#48=FACE_OUTER_BOUND('',#112,.T.);
#49=FACE_OUTER_BOUND('',#113,.T.);
#50=FACE_OUTER_BOUND('',#114,.T.);
#51=FACE_OUTER_BOUND('',#115,.T.);
#52=FACE_OUTER_BOUND('',#116,.T.);
#53=FACE_OUTER_BOUND('',#117,.T.);
#54=FACE_OUTER_BOUND('',#118,.T.);
#55=FACE_OUTER_BOUND('',#119,.T.);
#56=FACE_OUTER_BOUND('',#120,.T.);
#57=FACE_OUTER_BOUND('',#121,.T.);
#58=FACE_OUTER_BOUND('',#122,.T.);
#59=FACE_OUTER_BOUND('',#123,.T.);
#60=ADVANCED_FACE('',(#99,#100),#82,.T.);
#61=ADVANCED_FACE('',(#39),#83,.T.);
#62=ADVANCED_FACE('',(#40),#84,.T.);
#63=ADVANCED_FACE('',(#41),#85,.T.);
#64=ADVANCED_FACE('',(#42),#86,.T.);
#65=ADVANCED_FACE('',(#43),#87,.T.);
#66=ADVANCED_FACE('',(#44),#88,.F.);
#67=ADVANCED_FACE('',(#45),#89,.F.);
#68=ADVANCED_FACE('',(#46),#90,.F.);
#69=ADVANCED_FACE('',(#47),#91,.F.);
#70=ADVANCED_FACE('',(#48),#92,.F.);
#71=ADVANCED_FACE('',(#49),#93,.F.);
#72=ADVANCED_FACE('',(#50),#94,.F.);
#73=ADVANCED_FACE('',(#51),#95,.F.);
#74=ADVANCED_FACE('',(#52),#34,.F.);
#75=ADVANCED_FACE('',(#53),#35,.F.);
#76=ADVANCED_FACE('',(#54),#36,.F.);
#77=ADVANCED_FACE('',(#55),#37,.F.);
#78=ADVANCED_FACE('',(#56),#96,.F.);
#79=ADVANCED_FACE('',(#57),#97,.F.);
#80=ADVANCED_FACE('',(#58),#98,.F.);
#81=ADVANCED_FACE('',(#59),#38,.F.);
#82=PLANE('',#443);
#83=PLANE('',#444);
#84=PLANE('',#445);
#85=PLANE('',#446);
#86=PLANE('',#447);
#87=PLANE('',#448);
#88=PLANE('',#449);
#89=PLANE('',#450);
#90=PLANE('',#451);
#91=PLANE('',#452);
#92=PLANE('',#453);
#93=PLANE('',#454);
#94=PLANE('',#459);
#95=PLANE('',#460);
#96=PLANE('',#465);
#97=PLANE('',#467);
#98=PLANE('',#468);
#99=FACE_BOUND('',#101,.T.);
#100=FACE_BOUND('',#102,.T.);
#101=EDGE_LOOP('',(#134,#135,#136,#137,#138,#139,#140));
#102=EDGE_LOOP('',(#141,#142,#143,#144,#145,#146,#147,#148));
#103=EDGE_LOOP('',(#149,#150,#151,#152,#153));
#104=EDGE_LOOP('',(#154,#155,#156,#157,#158,#159,#160));
#105=EDGE_LOOP('',(#161,#162,#163,#164,#165,#166,#167));
#106=EDGE_LOOP('',(#168,#169,#170,#171));
#107=EDGE_LOOP('',(#172,#173,#174,#175));
#108=EDGE_LOOP('',(#176,#177,#178,#179));
#109=EDGE_LOOP('',(#180,#181,#182,#183,#184,#185));
#110=EDGE_LOOP('',(#186,#187,#188,#189));
#111=EDGE_LOOP('',(#190,#191,#192,#193));
#112=EDGE_LOOP('',(#194,#195,#196,#197));
#113=EDGE_LOOP('',(#198,#199,#200,#201));
#114=EDGE_LOOP('',(#202,#203,#204,#205,#206,#207,#208,#209));
#115=EDGE_LOOP('',(#210,#211,#212,#213));
#116=EDGE_LOOP('',(#214,#215,#216,#217));
#117=EDGE_LOOP('',(#218,#219,#220,#221));
#118=EDGE_LOOP('',(#222,#223,#224,#225));
#119=EDGE_LOOP('',(#226,#227,#228,#229));
#120=EDGE_LOOP('',(#230,#231,#232,#233));
#121=EDGE_LOOP('',(#234,#235,#236,#237,#238));
#122=EDGE_LOOP('',(#239,#240,#241,#242,#243));
#123=EDGE_LOOP('',(#244,#245,#246,#247));
#124=CIRCLE('',#438,4.6);
#125=CIRCLE('',#439,8.);
#126=CIRCLE('',#440,8.);
#127=CIRCLE('',#441,8.);
#128=CIRCLE('',#442,8.);
#129=CIRCLE('',#455,8.);
#130=CIRCLE('',#456,8.);
#131=CIRCLE('',#457,8.);
#132=CIRCLE('',#458,8.);
#133=CIRCLE('',#466,4.6);
#134=ORIENTED_EDGE('',*,*,#286,.F.);
#135=ORIENTED_EDGE('',*,*,#287,.F.);
#136=ORIENTED_EDGE('',*,*,#288,.T.);
#137=ORIENTED_EDGE('',*,*,#289,.T.);
#138=ORIENTED_EDGE('',*,*,#290,.T.);
#139=ORIENTED_EDGE('',*,*,#291,.F.);
#140=ORIENTED_EDGE('',*,*,#292,.T.);
#141=ORIENTED_EDGE('',*,*,#293,.F.);
#142=ORIENTED_EDGE('',*,*,#294,.T.);
#143=ORIENTED_EDGE('',*,*,#295,.F.);
#144=ORIENTED_EDGE('',*,*,#296,.T.);
#145=ORIENTED_EDGE('',*,*,#297,.F.);
#146=ORIENTED_EDGE('',*,*,#298,.T.);
#147=ORIENTED_EDGE('',*,*,#299,.F.);
#148=ORIENTED_EDGE('',*,*,#300,.T.);
#149=ORIENTED_EDGE('',*,*,#301,.T.);
#150=ORIENTED_EDGE('',*,*,#302,.T.);
#151=ORIENTED_EDGE('',*,*,#303,.T.);
#152=ORIENTED_EDGE('',*,*,#304,.F.);
#153=ORIENTED_EDGE('',*,*,#305,.T.);
#154=ORIENTED_EDGE('',*,*,#306,.F.);
#155=ORIENTED_EDGE('',*,*,#307,.F.);
#156=ORIENTED_EDGE('',*,*,#308,.F.);
#157=ORIENTED_EDGE('',*,*,#309,.T.);
#158=ORIENTED_EDGE('',*,*,#304,.T.);
#159=ORIENTED_EDGE('',*,*,#310,.T.);
#160=ORIENTED_EDGE('',*,*,#287,.T.);
#161=ORIENTED_EDGE('',*,*,#311,.F.);
#162=ORIENTED_EDGE('',*,*,#312,.T.);
#163=ORIENTED_EDGE('',*,*,#313,.T.);
#164=ORIENTED_EDGE('',*,*,#314,.T.);
#165=ORIENTED_EDGE('',*,*,#315,.F.);
#166=ORIENTED_EDGE('',*,*,#316,.T.);
#167=ORIENTED_EDGE('',*,*,#308,.T.);
#168=ORIENTED_EDGE('',*,*,#317,.F.);
#169=ORIENTED_EDGE('',*,*,#305,.F.);
#170=ORIENTED_EDGE('',*,*,#309,.F.);
#171=ORIENTED_EDGE('',*,*,#316,.F.);
#172=ORIENTED_EDGE('',*,*,#315,.T.);
#173=ORIENTED_EDGE('',*,*,#318,.T.);
#174=ORIENTED_EDGE('',*,*,#301,.F.);
#175=ORIENTED_EDGE('',*,*,#317,.T.);
#176=ORIENTED_EDGE('',*,*,#303,.F.);
#177=ORIENTED_EDGE('',*,*,#319,.T.);
#178=ORIENTED_EDGE('',*,*,#288,.F.);
#179=ORIENTED_EDGE('',*,*,#310,.F.);
#180=ORIENTED_EDGE('',*,*,#314,.F.);
#181=ORIENTED_EDGE('',*,*,#320,.T.);
#182=ORIENTED_EDGE('',*,*,#289,.F.);
#183=ORIENTED_EDGE('',*,*,#319,.F.);
#184=ORIENTED_EDGE('',*,*,#302,.F.);
#185=ORIENTED_EDGE('',*,*,#318,.F.);
#186=ORIENTED_EDGE('',*,*,#321,.F.);
#187=ORIENTED_EDGE('',*,*,#290,.F.);
#188=ORIENTED_EDGE('',*,*,#320,.F.);
#189=ORIENTED_EDGE('',*,*,#313,.F.);
#190=ORIENTED_EDGE('',*,*,#322,.T.);
#191=ORIENTED_EDGE('',*,*,#323,.T.);
#192=ORIENTED_EDGE('',*,*,#293,.T.);
#193=ORIENTED_EDGE('',*,*,#324,.T.);
#194=ORIENTED_EDGE('',*,*,#295,.T.);
#195=ORIENTED_EDGE('',*,*,#325,.T.);
#196=ORIENTED_EDGE('',*,*,#326,.T.);
#197=ORIENTED_EDGE('',*,*,#327,.T.);
#198=ORIENTED_EDGE('',*,*,#328,.T.);
#199=ORIENTED_EDGE('',*,*,#329,.T.);
#200=ORIENTED_EDGE('',*,*,#297,.T.);
#201=ORIENTED_EDGE('',*,*,#330,.T.);
#202=ORIENTED_EDGE('',*,*,#326,.F.);
#203=ORIENTED_EDGE('',*,*,#331,.T.);
#204=ORIENTED_EDGE('',*,*,#322,.F.);
#205=ORIENTED_EDGE('',*,*,#332,.T.);
#206=ORIENTED_EDGE('',*,*,#333,.F.);
#207=ORIENTED_EDGE('',*,*,#334,.T.);
#208=ORIENTED_EDGE('',*,*,#328,.F.);
#209=ORIENTED_EDGE('',*,*,#335,.T.);
#210=ORIENTED_EDGE('',*,*,#333,.T.);
#211=ORIENTED_EDGE('',*,*,#336,.T.);
#212=ORIENTED_EDGE('',*,*,#299,.T.);
#213=ORIENTED_EDGE('',*,*,#337,.T.);
#214=ORIENTED_EDGE('',*,*,#294,.F.);
#215=ORIENTED_EDGE('',*,*,#323,.F.);
#216=ORIENTED_EDGE('',*,*,#331,.F.);
#217=ORIENTED_EDGE('',*,*,#325,.F.);
#218=ORIENTED_EDGE('',*,*,#300,.F.);
#219=ORIENTED_EDGE('',*,*,#336,.F.);
#220=ORIENTED_EDGE('',*,*,#332,.F.);
#221=ORIENTED_EDGE('',*,*,#324,.F.);
#222=ORIENTED_EDGE('',*,*,#298,.F.);
#223=ORIENTED_EDGE('',*,*,#329,.F.);
#224=ORIENTED_EDGE('',*,*,#334,.F.);
#225=ORIENTED_EDGE('',*,*,#337,.F.);
#226=ORIENTED_EDGE('',*,*,#296,.F.);
#227=ORIENTED_EDGE('',*,*,#327,.F.);
#228=ORIENTED_EDGE('',*,*,#335,.F.);
#229=ORIENTED_EDGE('',*,*,#330,.F.);
#230=ORIENTED_EDGE('',*,*,#286,.T.);
#231=ORIENTED_EDGE('',*,*,#338,.T.);
#232=ORIENTED_EDGE('',*,*,#339,.T.);
#233=ORIENTED_EDGE('',*,*,#306,.T.);
#234=ORIENTED_EDGE('',*,*,#339,.F.);
#235=ORIENTED_EDGE('',*,*,#340,.T.);
#236=ORIENTED_EDGE('',*,*,#341,.F.);
#237=ORIENTED_EDGE('',*,*,#311,.T.);
#238=ORIENTED_EDGE('',*,*,#307,.T.);
#239=ORIENTED_EDGE('',*,*,#341,.T.);
#240=ORIENTED_EDGE('',*,*,#342,.T.);
#241=ORIENTED_EDGE('',*,*,#291,.T.);
#242=ORIENTED_EDGE('',*,*,#321,.T.);
#243=ORIENTED_EDGE('',*,*,#312,.F.);
#244=ORIENTED_EDGE('',*,*,#292,.F.);
#245=ORIENTED_EDGE('',*,*,#342,.F.);
#246=ORIENTED_EDGE('',*,*,#340,.F.);
#247=ORIENTED_EDGE('',*,*,#338,.F.);
#248=VERTEX_POINT('',#585);
#249=VERTEX_POINT('',#586);
#250=VERTEX_POINT('',#588);
#251=VERTEX_POINT('',#590);
#252=VERTEX_POINT('',#592);
#253=VERTEX_POINT('',#594);
#254=VERTEX_POINT('',#596);
#255=VERTEX_POINT('',#599);
#256=VERTEX_POINT('',#600);
#257=VERTEX_POINT('',#602);
#258=VERTEX_POINT('',#604);
#259=VERTEX_POINT('',#606);
#260=VERTEX_POINT('',#608);
#261=VERTEX_POINT('',#610);
#262=VERTEX_POINT('',#612);
#263=VERTEX_POINT('',#616);
#264=VERTEX_POINT('',#617);
#265=VERTEX_POINT('',#619);
#266=VERTEX_POINT('',#621);
#267=VERTEX_POINT('',#623);
#268=VERTEX_POINT('',#627);
#269=VERTEX_POINT('',#629);
#270=VERTEX_POINT('',#631);
#271=VERTEX_POINT('',#636);
#272=VERTEX_POINT('',#638);
#273=VERTEX_POINT('',#640);
#274=VERTEX_POINT('',#642);
#275=VERTEX_POINT('',#644);
#276=VERTEX_POINT('',#658);
#277=VERTEX_POINT('',#659);
#278=VERTEX_POINT('',#664);
#279=VERTEX_POINT('',#666);
#280=VERTEX_POINT('',#670);
#281=VERTEX_POINT('',#671);
#282=VERTEX_POINT('',#677);
#283=VERTEX_POINT('',#679);
#284=VERTEX_POINT('',#691);
#285=VERTEX_POINT('',#695);
#286=EDGE_CURVE('',#248,#249,#343,.T.);
#287=EDGE_CURVE('',#250,#248,#344,.T.);
#288=EDGE_CURVE('',#250,#251,#345,.T.);
#289=EDGE_CURVE('',#251,#252,#346,.T.);
#290=EDGE_CURVE('',#252,#253,#347,.T.);
#291=EDGE_CURVE('',#254,#253,#348,.T.);
#292=EDGE_CURVE('',#254,#249,#124,.T.);
#293=EDGE_CURVE('',#255,#256,#349,.T.);
#294=EDGE_CURVE('',#255,#257,#125,.T.);
#295=EDGE_CURVE('',#258,#257,#350,.T.);
#296=EDGE_CURVE('',#258,#259,#126,.T.);
#297=EDGE_CURVE('',#260,#259,#351,.T.);
#298=EDGE_CURVE('',#260,#261,#127,.T.);
#299=EDGE_CURVE('',#262,#261,#352,.T.);
#300=EDGE_CURVE('',#262,#256,#128,.T.);
#301=EDGE_CURVE('',#263,#264,#353,.T.);
#302=EDGE_CURVE('',#264,#265,#354,.T.);
#303=EDGE_CURVE('',#265,#266,#355,.T.);
#304=EDGE_CURVE('',#267,#266,#356,.T.);
#305=EDGE_CURVE('',#267,#263,#357,.T.);
#306=EDGE_CURVE('',#268,#248,#358,.T.);
#307=EDGE_CURVE('',#269,#268,#359,.T.);
#308=EDGE_CURVE('',#270,#269,#360,.T.);
#309=EDGE_CURVE('',#270,#267,#361,.T.);
#310=EDGE_CURVE('',#266,#250,#362,.T.);
#311=EDGE_CURVE('',#271,#269,#363,.T.);
#312=EDGE_CURVE('',#271,#272,#364,.T.);
#313=EDGE_CURVE('',#272,#273,#365,.T.);
#314=EDGE_CURVE('',#273,#274,#366,.T.);
#315=EDGE_CURVE('',#275,#274,#367,.T.);
#316=EDGE_CURVE('',#275,#270,#368,.T.);
#317=EDGE_CURVE('',#263,#275,#369,.T.);
#318=EDGE_CURVE('',#274,#264,#370,.T.);
#319=EDGE_CURVE('',#265,#251,#371,.T.);
#320=EDGE_CURVE('',#273,#252,#372,.T.);
#321=EDGE_CURVE('',#253,#272,#373,.T.);
#322=EDGE_CURVE('',#276,#277,#374,.T.);
#323=EDGE_CURVE('',#277,#255,#375,.T.);
#324=EDGE_CURVE('',#256,#276,#376,.T.);
#325=EDGE_CURVE('',#257,#278,#377,.T.);
#326=EDGE_CURVE('',#278,#279,#378,.T.);
#327=EDGE_CURVE('',#279,#258,#379,.T.);
#328=EDGE_CURVE('',#280,#281,#380,.T.);
#329=EDGE_CURVE('',#281,#260,#381,.T.);
#330=EDGE_CURVE('',#259,#280,#382,.T.);
#331=EDGE_CURVE('',#278,#277,#129,.T.);
#332=EDGE_CURVE('',#276,#282,#130,.T.);
#333=EDGE_CURVE('',#283,#282,#383,.T.);
#334=EDGE_CURVE('',#283,#281,#131,.T.);
#335=EDGE_CURVE('',#280,#279,#132,.T.);
#336=EDGE_CURVE('',#282,#262,#384,.T.);
#337=EDGE_CURVE('',#261,#283,#385,.T.);
#338=EDGE_CURVE('',#249,#284,#386,.T.);
#339=EDGE_CURVE('',#284,#268,#387,.T.);
#340=EDGE_CURVE('',#284,#285,#133,.T.);
#341=EDGE_CURVE('',#271,#285,#388,.T.);
#342=EDGE_CURVE('',#285,#254,#389,.T.);
#343=LINE('',#584,#390);
#344=LINE('',#587,#391);
#345=LINE('',#589,#392);
#346=LINE('',#591,#393);
#347=LINE('',#593,#394);
#348=LINE('',#595,#395);
#349=LINE('',#598,#396);
#350=LINE('',#603,#397);
#351=LINE('',#607,#398);
#352=LINE('',#611,#399);
#353=LINE('',#615,#400);
#354=LINE('',#618,#401);
#355=LINE('',#620,#402);
#356=LINE('',#622,#403);
#357=LINE('',#624,#404);
#358=LINE('',#626,#405);
#359=LINE('',#628,#406);
#360=LINE('',#630,#407);
#361=LINE('',#632,#408);
#362=LINE('',#633,#409);
#363=LINE('',#635,#410);
#364=LINE('',#637,#411);
#365=LINE('',#639,#412);
#366=LINE('',#641,#413);
#367=LINE('',#643,#414);
#368=LINE('',#645,#415);
#369=LINE('',#647,#416);
#370=LINE('',#649,#417);
#371=LINE('',#651,#418);
#372=LINE('',#653,#419);
#373=LINE('',#655,#420);
#374=LINE('',#657,#421);
#375=LINE('',#660,#422);
#376=LINE('',#661,#423);
#377=LINE('',#663,#424);
#378=LINE('',#665,#425);
#379=LINE('',#667,#426);
#380=LINE('',#669,#427);
#381=LINE('',#672,#428);
#382=LINE('',#673,#429);
#383=LINE('',#678,#430);
#384=LINE('',#683,#431);
#385=LINE('',#684,#432);
#386=LINE('',#690,#433);
#387=LINE('',#692,#434);
#388=LINE('',#696,#435);
#389=LINE('',#698,#436);
#390=VECTOR('',#472,1.);
#391=VECTOR('',#473,1.);
#392=VECTOR('',#474,1.);
#393=VECTOR('',#475,1.);
#394=VECTOR('',#476,1.);
#395=VECTOR('',#477,1.);
#396=VECTOR('',#480,1.);
#397=VECTOR('',#483,1.);
#398=VECTOR('',#486,1.);
#399=VECTOR('',#489,1.);
#400=VECTOR('',#494,1.);
#401=VECTOR('',#495,1.);
#402=VECTOR('',#496,1.);
#403=VECTOR('',#497,1.);
#404=VECTOR('',#498,1.);
#405=VECTOR('',#501,1.);
#406=VECTOR('',#502,1.);
#407=VECTOR('',#503,1.);
#408=VECTOR('',#504,1.);
#409=VECTOR('',#505,1.);
#410=VECTOR('',#508,1.);
#411=VECTOR('',#509,1.);
#412=VECTOR('',#510,1.);
#413=VECTOR('',#511,1.);
#414=VECTOR('',#512,1.);
#415=VECTOR('',#513,1.);
#416=VECTOR('',#516,1.);
#417=VECTOR('',#519,1.);
#418=VECTOR('',#522,1.);
#419=VECTOR('',#525,1.);
#420=VECTOR('',#528,1.);
#421=VECTOR('',#531,1.);
#422=VECTOR('',#532,1.);
#423=VECTOR('',#533,1.);
#424=VECTOR('',#536,1.);
#425=VECTOR('',#537,1.);
#426=VECTOR('',#538,1.);
#427=VECTOR('',#541,1.);
#428=VECTOR('',#542,1.);
#429=VECTOR('',#543,1.);
#430=VECTOR('',#550,1.);
#431=VECTOR('',#557,1.);
#432=VECTOR('',#558,1.);
#433=VECTOR('',#569,1.);
#434=VECTOR('',#570,1.);
#435=VECTOR('',#575,1.);
#436=VECTOR('',#578,1.);
#437=AXIS2_PLACEMENT_3D('',#583,#470,#471);
#438=AXIS2_PLACEMENT_3D('',#597,#478,#479);
#439=AXIS2_PLACEMENT_3D('',#601,#481,#482);
#440=AXIS2_PLACEMENT_3D('',#605,#484,#485);
#441=AXIS2_PLACEMENT_3D('',#609,#487,#488);
#442=AXIS2_PLACEMENT_3D('',#613,#490,#491);
#443=AXIS2_PLACEMENT_3D('',#614,#492,#493);
#444=AXIS2_PLACEMENT_3D('',#625,#499,#500);
#445=AXIS2_PLACEMENT_3D('',#634,#506,#507);
#446=AXIS2_PLACEMENT_3D('',#646,#514,#515);
#447=AXIS2_PLACEMENT_3D('',#648,#517,#518);
#448=AXIS2_PLACEMENT_3D('',#650,#520,#521);
#449=AXIS2_PLACEMENT_3D('',#652,#523,#524);
#450=AXIS2_PLACEMENT_3D('',#654,#526,#527);
#451=AXIS2_PLACEMENT_3D('',#656,#529,#530);
#452=AXIS2_PLACEMENT_3D('',#662,#534,#535);
#453=AXIS2_PLACEMENT_3D('',#668,#539,#540);
#454=AXIS2_PLACEMENT_3D('',#674,#544,#545);
#455=AXIS2_PLACEMENT_3D('',#675,#546,#547);
#456=AXIS2_PLACEMENT_3D('',#676,#548,#549);
#457=AXIS2_PLACEMENT_3D('',#680,#551,#552);
#458=AXIS2_PLACEMENT_3D('',#681,#553,#554);
#459=AXIS2_PLACEMENT_3D('',#682,#555,#556);
#460=AXIS2_PLACEMENT_3D('',#685,#559,#560);
#461=AXIS2_PLACEMENT_3D('',#686,#561,#562);
#462=AXIS2_PLACEMENT_3D('',#687,#563,#564);
#463=AXIS2_PLACEMENT_3D('',#688,#565,#566);
#464=AXIS2_PLACEMENT_3D('',#689,#567,#568);
#465=AXIS2_PLACEMENT_3D('',#693,#571,#572);
#466=AXIS2_PLACEMENT_3D('',#694,#573,#574);
#467=AXIS2_PLACEMENT_3D('',#697,#576,#577);
#468=AXIS2_PLACEMENT_3D('',#699,#579,#580);
#469=AXIS2_PLACEMENT_3D('',#700,#581,#582);
#470=DIRECTION('',(0.,0.,1.));
#471=DIRECTION('',(1.,0.,0.));
#472=DIRECTION('',(1.,0.,0.));
#473=DIRECTION('',(0.,1.,0.));
#474=DIRECTION('',(1.,0.,0.));
#475=DIRECTION('',(0.,1.,0.));
#476=DIRECTION('',(-1.,0.,0.));
#477=DIRECTION('',(0.,1.,0.));
#478=DIRECTION('',(0.,0.,-1.));
#479=DIRECTION('',(1.,0.,0.));
#480=DIRECTION('',(1.,0.,0.));
#481=DIRECTION('',(0.,0.,-1.));
#482=DIRECTION('',(1.,0.,0.));
#483=DIRECTION('',(0.,-1.,0.));
#484=DIRECTION('',(0.,0.,-1.));
#485=DIRECTION('',(1.,0.,0.));
#486=DIRECTION('',(-1.,0.,0.));
#487=DIRECTION('',(0.,0.,-1.));
#488=DIRECTION('',(1.,0.,0.));
#489=DIRECTION('',(0.,1.,0.));
#490=DIRECTION('',(0.,0.,-1.));
#491=DIRECTION('',(1.,0.,0.));
#492=DIRECTION('',(0.,0.,1.));
#493=DIRECTION('',(1.,0.,0.));
#494=DIRECTION('',(0.,0.,1.));
#495=DIRECTION('',(-0.707106781186548,0.,0.707106781186548));
#496=DIRECTION('',(-1.,0.,0.));
#497=DIRECTION('',(0.,0.,1.));
#498=DIRECTION('',(1.,0.,0.));
#499=DIRECTION('',(0.,-1.,0.));
#500=DIRECTION('',(0.,0.,-1.));
#501=DIRECTION('',(0.,0.,1.));
#502=DIRECTION('',(0.,-1.,0.));
#503=DIRECTION('',(0.,0.,1.));
#504=DIRECTION('',(0.,-1.,0.));
#505=DIRECTION('',(0.,0.707106781186545,0.70710678118655));
#506=DIRECTION('',(-1.,0.,0.));
#507=DIRECTION('',(0.,0.,1.));
#508=DIRECTION('',(-1.,0.,0.));
#509=DIRECTION('',(0.,0.,1.));
#510=DIRECTION('',(1.,0.,0.));
#511=DIRECTION('',(0.707106781186548,0.,-0.707106781186548));
#512=DIRECTION('',(0.,0.,1.));
#513=DIRECTION('',(-1.,0.,0.));
#514=DIRECTION('',(0.,1.,0.));
#515=DIRECTION('',(0.,0.,1.));
#516=DIRECTION('',(0.,1.,0.));
#517=DIRECTION('',(0.,0.,-1.));
#518=DIRECTION('',(-1.,0.,0.));
#519=DIRECTION('',(0.,-1.,0.));
#520=DIRECTION('',(1.,0.,0.));
#521=DIRECTION('',(0.,0.,-1.));
#522=DIRECTION('',(-0.577350269189627,0.577350269189623,0.577350269189627));
#523=DIRECTION('',(0.,0.70710678118655,-0.707106781186545));
#524=DIRECTION('',(-1.,0.,0.));
#525=DIRECTION('',(-0.577350269189626,-0.577350269189626,0.577350269189626));
#526=DIRECTION('',(-0.707106781186547,0.,-0.707106781186547));
#527=DIRECTION('',(0.,-1.,0.));
#528=DIRECTION('',(0.,0.707106781186548,-0.707106781186548));
#529=DIRECTION('',(0.,-0.707106781186548,-0.707106781186548));
#530=DIRECTION('',(1.,0.,0.));
#531=DIRECTION('',(-1.,0.,0.));
#532=DIRECTION('',(0.,0.,1.));
#533=DIRECTION('',(0.,0.,-1.));
#534=DIRECTION('',(0.,-1.,0.));
#535=DIRECTION('',(0.,0.,-1.));
#536=DIRECTION('',(0.,0.,-1.));
#537=DIRECTION('',(0.,1.,0.));
#538=DIRECTION('',(0.,0.,1.));
#539=DIRECTION('',(-1.,0.,0.));
#540=DIRECTION('',(0.,0.,1.));
#541=DIRECTION('',(1.,0.,0.));
#542=DIRECTION('',(0.,0.,1.));
#543=DIRECTION('',(0.,0.,-1.));
#544=DIRECTION('',(0.,1.,0.));
#545=DIRECTION('',(0.,0.,1.));
#546=DIRECTION('',(0.,0.,1.));
#547=DIRECTION('',(-1.,0.,0.));
#548=DIRECTION('',(0.,0.,1.));
#549=DIRECTION('',(-1.,0.,0.));
#550=DIRECTION('',(0.,-1.,0.));
#551=DIRECTION('',(0.,0.,1.));
#552=DIRECTION('',(-1.,0.,0.));
#553=DIRECTION('',(0.,0.,1.));
#554=DIRECTION('',(-1.,0.,0.));
#555=DIRECTION('',(0.,0.,-1.));
#556=DIRECTION('',(-1.,0.,0.));
#557=DIRECTION('',(0.,0.,1.));
#558=DIRECTION('',(0.,0.,-1.));
#559=DIRECTION('',(1.,0.,0.));
#560=DIRECTION('',(0.,0.,-1.));
#561=DIRECTION('',(0.,0.,1.));
#562=DIRECTION('',(1.,0.,0.));
#563=DIRECTION('',(0.,0.,1.));
#564=DIRECTION('',(1.,0.,0.));
#565=DIRECTION('',(0.,0.,1.));
#566=DIRECTION('',(1.,0.,0.));
#567=DIRECTION('',(0.,0.,1.));
#568=DIRECTION('',(1.,0.,0.));
#569=DIRECTION('',(0.,0.,-1.));
#570=DIRECTION('',(-1.,0.,0.));
#571=DIRECTION('',(0.,-1.,0.));
#572=DIRECTION('',(0.,0.,-1.));
#573=DIRECTION('',(0.,0.,1.));
#574=DIRECTION('',(-1.,0.,0.));
#575=DIRECTION('',(0.,-1.,0.));
#576=DIRECTION('',(0.,0.,-1.));
#577=DIRECTION('',(-1.,0.,0.));
#578=DIRECTION('',(0.,0.,1.));
#579=DIRECTION('',(1.,0.,0.));
#580=DIRECTION('',(0.,0.,-1.));
#581=DIRECTION('',(0.,0.,1.));
#582=DIRECTION('',(1.,0.,0.));
#583=CARTESIAN_POINT('',(0.,0.,0.));
#584=CARTESIAN_POINT('',(160.35,323.7,124.9));
#585=CARTESIAN_POINT('',(0.,323.7,124.9));
#586=CARTESIAN_POINT('',(45.5,323.7,124.9));
#587=CARTESIAN_POINT('',(0.,210.2,124.9));
#588=CARTESIAN_POINT('',(0.,2.09999999999999,124.9));
#589=CARTESIAN_POINT('',(160.35,2.09999999999999,124.9));
#590=CARTESIAN_POINT('',(296.6,2.09999999999999,124.9));
#591=CARTESIAN_POINT('',(296.6,210.2,124.9));
#592=CARTESIAN_POINT('',(296.6,402.8,124.9));
#593=CARTESIAN_POINT('',(160.35,402.8,124.9));
#594=CARTESIAN_POINT('',(50.1,402.8,124.9));
#595=CARTESIAN_POINT('',(50.1,210.2,124.9));
#596=CARTESIAN_POINT('',(50.1,328.3,124.9));
#597=CARTESIAN_POINT('',(45.5,328.3,124.9));
#598=CARTESIAN_POINT('',(160.35,140.4,124.9));
#599=CARTESIAN_POINT('',(154.1,140.4,124.9));
#600=CARTESIAN_POINT('',(244.3,140.4,124.9));
#601=CARTESIAN_POINT('',(154.1,148.4,124.9));
#602=CARTESIAN_POINT('',(146.1,148.4,124.9));
#603=CARTESIAN_POINT('',(146.1,210.2,124.9));
#604=CARTESIAN_POINT('',(146.1,303.,124.9));
#605=CARTESIAN_POINT('',(154.1,303.,124.9));
#606=CARTESIAN_POINT('',(154.1,311.,124.9));
#607=CARTESIAN_POINT('',(160.35,311.,124.9));
#608=CARTESIAN_POINT('',(244.3,311.,124.9));
#609=CARTESIAN_POINT('',(244.3,303.,124.9));
#610=CARTESIAN_POINT('',(252.3,303.,124.9));
#611=CARTESIAN_POINT('',(252.3,210.2,124.9));
#612=CARTESIAN_POINT('',(252.3,148.4,124.9));
#613=CARTESIAN_POINT('',(244.3,148.4,124.9));
#614=CARTESIAN_POINT('',(160.35,210.2,124.9));
#615=CARTESIAN_POINT('',(320.7,0.,0.));
#616=CARTESIAN_POINT('',(320.7,0.,0.));
#617=CARTESIAN_POINT('',(320.7,0.,100.8));
#618=CARTESIAN_POINT('',(290.925,0.,130.575));
#619=CARTESIAN_POINT('',(298.7,0.,122.8));
#620=CARTESIAN_POINT('',(160.35,0.,122.8));
#621=CARTESIAN_POINT('',(0.,0.,122.8));
#622=CARTESIAN_POINT('',(0.,0.,0.));
#623=CARTESIAN_POINT('',(0.,0.,0.));
#624=CARTESIAN_POINT('',(160.35,0.,0.));
#625=CARTESIAN_POINT('',(160.35,0.,0.));
#626=CARTESIAN_POINT('',(0.,323.7,99.));
#627=CARTESIAN_POINT('',(0.,323.7,99.));
#628=CARTESIAN_POINT('',(0.,372.05,99.));
#629=CARTESIAN_POINT('',(0.,420.4,99.));
#630=CARTESIAN_POINT('',(0.,420.4,0.));
#631=CARTESIAN_POINT('',(0.,420.4,0.));
#632=CARTESIAN_POINT('',(0.,210.2,0.));
#633=CARTESIAN_POINT('',(0.,43.6999999999993,166.5));
#634=CARTESIAN_POINT('',(0.,210.2,0.));
#635=CARTESIAN_POINT('',(25.05,420.4,99.));
#636=CARTESIAN_POINT('',(50.1,420.4,99.));
#637=CARTESIAN_POINT('',(50.1,420.4,99.));
#638=CARTESIAN_POINT('',(50.1,420.4,107.3));
#639=CARTESIAN_POINT('',(160.35,420.4,107.3));
#640=CARTESIAN_POINT('',(314.2,420.4,107.3));
#641=CARTESIAN_POINT('',(290.925,420.4,130.575));
#642=CARTESIAN_POINT('',(320.7,420.4,100.8));
#643=CARTESIAN_POINT('',(320.7,420.4,0.));
#644=CARTESIAN_POINT('',(320.7,420.4,0.));
#645=CARTESIAN_POINT('',(160.35,420.4,0.));
#646=CARTESIAN_POINT('',(160.35,420.4,0.));
#647=CARTESIAN_POINT('',(320.7,210.2,0.));
#648=CARTESIAN_POINT('',(160.35,210.2,0.));
#649=CARTESIAN_POINT('',(320.7,210.2,100.8));
#650=CARTESIAN_POINT('',(320.7,210.2,0.));
#651=CARTESIAN_POINT('',(252.583333333333,46.1166666666666,168.916666666667));
#652=CARTESIAN_POINT('',(160.35,0.,122.8));
#653=CARTESIAN_POINT('',(248.466666666667,354.666666666667,173.033333333333));
#654=CARTESIAN_POINT('',(320.7,210.2,100.8));
#655=CARTESIAN_POINT('',(50.1,420.4,107.3));
#656=CARTESIAN_POINT('',(160.35,420.4,107.3));
#657=CARTESIAN_POINT('',(199.2,140.4,87.));
#658=CARTESIAN_POINT('',(244.3,140.4,87.));
#659=CARTESIAN_POINT('',(154.1,140.4,87.));
#660=CARTESIAN_POINT('',(154.1,140.4,124.9));
#661=CARTESIAN_POINT('',(244.3,140.4,87.));
#662=CARTESIAN_POINT('',(199.2,140.4,87.));
#663=CARTESIAN_POINT('',(146.1,148.4,87.));
#664=CARTESIAN_POINT('',(146.1,148.4,87.));
#665=CARTESIAN_POINT('',(146.1,225.7,87.));
#666=CARTESIAN_POINT('',(146.1,303.,87.));
#667=CARTESIAN_POINT('',(146.1,303.,124.9));
#668=CARTESIAN_POINT('',(146.1,225.7,87.));
#669=CARTESIAN_POINT('',(199.2,311.,87.));
#670=CARTESIAN_POINT('',(154.1,311.,87.));
#671=CARTESIAN_POINT('',(244.3,311.,87.));
#672=CARTESIAN_POINT('',(244.3,311.,124.9));
#673=CARTESIAN_POINT('',(154.1,311.,87.));
#674=CARTESIAN_POINT('',(199.2,311.,87.));
#675=CARTESIAN_POINT('',(154.1,148.4,87.));
#676=CARTESIAN_POINT('',(244.3,148.4,87.));
#677=CARTESIAN_POINT('',(252.3,148.4,87.));
#678=CARTESIAN_POINT('',(252.3,225.7,87.));
#679=CARTESIAN_POINT('',(252.3,303.,87.));
#680=CARTESIAN_POINT('',(244.3,303.,87.));
#681=CARTESIAN_POINT('',(154.1,303.,87.));
#682=CARTESIAN_POINT('',(199.2,225.7,87.));
#683=CARTESIAN_POINT('',(252.3,148.4,124.9));
#684=CARTESIAN_POINT('',(252.3,303.,87.));
#685=CARTESIAN_POINT('',(252.3,225.7,87.));
#686=CARTESIAN_POINT('',(154.1,148.4,87.));
#687=CARTESIAN_POINT('',(244.3,148.4,87.));
#688=CARTESIAN_POINT('',(244.3,303.,87.));
#689=CARTESIAN_POINT('',(154.1,303.,87.));
#690=CARTESIAN_POINT('',(45.5,323.7,99.));
#691=CARTESIAN_POINT('',(45.5,323.7,99.));
#692=CARTESIAN_POINT('',(25.05,323.7,99.));
#693=CARTESIAN_POINT('',(25.05,323.7,99.));
#694=CARTESIAN_POINT('',(45.5,328.3,99.));
#695=CARTESIAN_POINT('',(50.1,328.3,99.));
#696=CARTESIAN_POINT('',(50.1,372.05,99.));
#697=CARTESIAN_POINT('',(25.05,372.05,99.));
#698=CARTESIAN_POINT('',(50.1,328.3,124.9));
#699=CARTESIAN_POINT('',(50.1,372.05,99.));
#700=CARTESIAN_POINT('',(45.5,328.3,99.));
#701=MECHANICAL_DESIGN_GEOMETRIC_PRESENTATION_REPRESENTATION('',(#24),#702);
#702=(
GEOMETRIC_REPRESENTATION_CONTEXT(3)
GLOBAL_UNCERTAINTY_ASSIGNED_CONTEXT((#703))
GLOBAL_UNIT_ASSIGNED_CONTEXT((#709,#705,#704))
REPRESENTATION_CONTEXT('featured_part_08186','TOP_LEVEL_ASSEMBLY_PART')
);
#703=UNCERTAINTY_MEASURE_WITH_UNIT(LENGTH_MEASURE(2.E-5),#709,
'DISTANCE_ACCURACY_VALUE','Maximum Tolerance applied to model');
#704=(
NAMED_UNIT(*)
SI_UNIT($,.STERADIAN.)
SOLID_ANGLE_UNIT()
);
#705=(
CONVERSION_BASED_UNIT('DEGREE',#707)
NAMED_UNIT(#706)
PLANE_ANGLE_UNIT()
);
#706=DIMENSIONAL_EXPONENTS(0.,0.,0.,0.,0.,0.,0.);
#707=PLANE_ANGLE_MEASURE_WITH_UNIT(PLANE_ANGLE_MEASURE(0.0174532925),#708);
#708=(
NAMED_UNIT(*)
PLANE_ANGLE_UNIT()
SI_UNIT($,.RADIAN.)
);
#709=(
LENGTH_UNIT()
NAMED_UNIT(*)
SI_UNIT(.MILLI.,.METRE.)
);
ENDSEC;
END-ISO-10303-21;
