ISO-10303-21;
HEADER;
/* Generated by software containing ST-Developer
 * from STEP Tools, Inc. (www.steptools.com) 
 */
/* OPTION: using custom schema-name function */

FILE_DESCRIPTION(
/* description */ (''),
/* implementation_level */ '2;1');

FILE_NAME(
/* name */ 'featured_part_02231.stp',
/* time_stamp */ '2026-07-13T13:04:27-04:00',
/* author */ (''),
/* organization */ (''),
/* preprocessor_version */ 'ST-DEVELOPER v20.1',
/* originating_system */ 'SIEMENS PLM Software NX2512.6002',
/* authorisation */ '');

FILE_SCHEMA (('AUTOMOTIVE_DESIGN { 1 0 10303 214 3 1 1 1 }'));
ENDSEC;

DATA;
#10=SHAPE_REPRESENTATION_RELATIONSHIP('None',
'relationship between featured_part_02231-None and featured_part_02231
-None',#22,#11);
#11=ADVANCED_BREP_SHAPE_REPRESENTATION('featured_part_02231-None',(#32),
#922);
#12=SHAPE_DEFINITION_REPRESENTATION(#13,#22);
#13=PRODUCT_DEFINITION_SHAPE('','',#14);
#14=PRODUCT_DEFINITION(' ','',#16,#15);
#15=PRODUCT_DEFINITION_CONTEXT('part definition',#21,'design');
#16=PRODUCT_DEFINITION_FORMATION_WITH_SPECIFIED_SOURCE(' ',' ',#18,
 .NOT_KNOWN.);
#17=PRODUCT_RELATED_PRODUCT_CATEGORY('part','',(#18));
#18=PRODUCT('featured_part_02231','featured_part_02231',' ',(#19));
#19=PRODUCT_CONTEXT(' ',#21,'mechanical');
#20=APPLICATION_PROTOCOL_DEFINITION('international standard',
'automotive_design',2010,#21);
#21=APPLICATION_CONTEXT(
'core data for automotive mechanical design processes');
#22=SHAPE_REPRESENTATION('featured_part_02231-None',(#564),#922);
#23=PRESENTATION_LAYER_ASSIGNMENT('1','Layer 1',(#32));
#24=STYLED_ITEM('',(#25),#32);
#25=PRESENTATION_STYLE_ASSIGNMENT((#26));
#26=SURFACE_STYLE_USAGE(.BOTH.,#27);
#27=SURFACE_SIDE_STYLE('',(#28));
#28=SURFACE_STYLE_FILL_AREA(#29);
#29=FILL_AREA_STYLE('',(#30));
#30=FILL_AREA_STYLE_COLOUR('',#31);
#31=COLOUR_RGB('medium steel',0.611764705882353,0.658823529411765,0.670588235294118);
#32=MANIFOLD_SOLID_BREP('',#33);
#33=CLOSED_SHELL('',(#61,#62,#63,#64,#65,#66,#67,#68,#69,#70,#71,#72,#73,
#74,#75,#76,#77,#78,#79,#80,#81,#82,#83,#84,#85,#86,#87,#88));
#34=CYLINDRICAL_SURFACE('',#594,14.4);
#35=CYLINDRICAL_SURFACE('',#604,12.);
#36=CYLINDRICAL_SURFACE('',#605,12.);
#37=CYLINDRICAL_SURFACE('',#606,12.);
#38=CYLINDRICAL_SURFACE('',#607,12.);
#39=CYLINDRICAL_SURFACE('',#608,19.25);
#40=CYLINDRICAL_SURFACE('',#609,11.5);
#41=CYLINDRICAL_SURFACE('',#610,7.);
#42=CYLINDRICAL_SURFACE('',#613,3.15);
#43=ELLIPSE('',#578,9.89949493661167,7.);
#44=ELLIPSE('',#579,27.2236110756821,19.25);
#45=ELLIPSE('',#582,4.45477272147524,3.15);
#46=FACE_BOUND('',#134,.T.);
#47=FACE_BOUND('',#135,.T.);
#48=FACE_BOUND('',#136,.T.);
#49=FACE_BOUND('',#137,.T.);
#50=FACE_BOUND('',#144,.T.);
#51=FACE_BOUND('',#145,.T.);
#52=FACE_BOUND('',#146,.T.);
#53=FACE_BOUND('',#158,.T.);
#54=FACE_BOUND('',#159,.T.);
#55=FACE_BOUND('',#160,.T.);
#56=FACE_BOUND('',#161,.T.);
#57=FACE_BOUND('',#162,.T.);
#58=FACE_BOUND('',#163,.T.);
#59=FACE_BOUND('',#165,.T.);
#60=FACE_BOUND('',#166,.T.);
#61=ADVANCED_FACE('',(#108),#89,.T.);
#62=ADVANCED_FACE('',(#109),#90,.T.);
#63=ADVANCED_FACE('',(#110),#91,.T.);
#64=ADVANCED_FACE('',(#111),#92,.T.);
#65=ADVANCED_FACE('',(#46,#47,#48,#49),#93,.T.);
#66=ADVANCED_FACE('',(#112),#94,.T.);
#67=ADVANCED_FACE('',(#113),#95,.F.);
#68=ADVANCED_FACE('',(#114),#96,.F.);
#69=ADVANCED_FACE('',(#115),#97,.F.);
#70=ADVANCED_FACE('',(#116),#98,.F.);
#71=ADVANCED_FACE('',(#117),#99,.F.);
#72=ADVANCED_FACE('',(#50,#51,#52),#100,.F.);
#73=ADVANCED_FACE('',(#118),#101,.F.);
#74=ADVANCED_FACE('',(#119),#34,.F.);
#75=ADVANCED_FACE('',(#120),#102,.F.);
#76=ADVANCED_FACE('',(#121),#103,.F.);
#77=ADVANCED_FACE('',(#122),#104,.F.);
#78=ADVANCED_FACE('',(#123),#105,.F.);
#79=ADVANCED_FACE('',(#124),#106,.F.);
#80=ADVANCED_FACE('',(#125),#35,.F.);
#81=ADVANCED_FACE('',(#126),#36,.F.);
#82=ADVANCED_FACE('',(#127),#37,.F.);
#83=ADVANCED_FACE('',(#128),#38,.F.);
#84=ADVANCED_FACE('',(#53,#54),#39,.F.);
#85=ADVANCED_FACE('',(#55,#56),#40,.F.);
#86=ADVANCED_FACE('',(#57,#58),#41,.F.);
#87=ADVANCED_FACE('',(#129),#107,.F.);
#88=ADVANCED_FACE('',(#59,#60),#42,.F.);
#89=PLANE('',#569);
#90=PLANE('',#570);
#91=PLANE('',#571);
#92=PLANE('',#572);
#93=PLANE('',#576);
#94=PLANE('',#577);
#95=PLANE('',#580);
#96=PLANE('',#581);
#97=PLANE('',#583);
#98=PLANE('',#584);
#99=PLANE('',#585);
#100=PLANE('',#592);
#101=PLANE('',#593);
#102=PLANE('',#595);
#103=PLANE('',#596);
#104=PLANE('',#597);
#105=PLANE('',#598);
#106=PLANE('',#603);
#107=PLANE('',#612);
#108=FACE_OUTER_BOUND('',#130,.T.);
#109=FACE_OUTER_BOUND('',#131,.T.);
#110=FACE_OUTER_BOUND('',#132,.T.);
#111=FACE_OUTER_BOUND('',#133,.T.);
#112=FACE_OUTER_BOUND('',#138,.T.);
#113=FACE_OUTER_BOUND('',#139,.T.);
#114=FACE_OUTER_BOUND('',#140,.T.);
#115=FACE_OUTER_BOUND('',#141,.T.);
#116=FACE_OUTER_BOUND('',#142,.T.);
#117=FACE_OUTER_BOUND('',#143,.T.);
#118=FACE_OUTER_BOUND('',#147,.T.);
#119=FACE_OUTER_BOUND('',#148,.T.);
#120=FACE_OUTER_BOUND('',#149,.T.);
#121=FACE_OUTER_BOUND('',#150,.T.);
#122=FACE_OUTER_BOUND('',#151,.T.);
#123=FACE_OUTER_BOUND('',#152,.T.);
#124=FACE_OUTER_BOUND('',#153,.T.);
#125=FACE_OUTER_BOUND('',#154,.T.);
#126=FACE_OUTER_BOUND('',#155,.T.);
#127=FACE_OUTER_BOUND('',#156,.T.);
#128=FACE_OUTER_BOUND('',#157,.T.);
#129=FACE_OUTER_BOUND('',#164,.T.);
#130=EDGE_LOOP('',(#273,#274,#275,#276,#277,#278,#279,#280,#281,#282,#283,
#284,#285));
#131=EDGE_LOOP('',(#286,#287,#288,#289,#290,#291,#292));
#132=EDGE_LOOP('',(#293,#294,#295,#296,#297,#298));
#133=EDGE_LOOP('',(#299,#300,#301,#302,#303,#304));
#134=EDGE_LOOP('',(#305));
#135=EDGE_LOOP('',(#306));
#136=EDGE_LOOP('',(#307));
#137=EDGE_LOOP('',(#308,#309,#310,#311));
#138=EDGE_LOOP('',(#312,#313,#314,#315));
#139=EDGE_LOOP('',(#316,#317,#318,#319,#320,#321,#322,#323,#324,#325));
#140=EDGE_LOOP('',(#326,#327,#328,#329,#330));
#141=EDGE_LOOP('',(#331,#332,#333,#334,#335,#336));
#142=EDGE_LOOP('',(#337,#338,#339,#340));
#143=EDGE_LOOP('',(#341,#342,#343,#344,#345));
#144=EDGE_LOOP('',(#346));
#145=EDGE_LOOP('',(#347,#348,#349,#350,#351,#352,#353,#354));
#146=EDGE_LOOP('',(#355,#356,#357,#358,#359));
#147=EDGE_LOOP('',(#360,#361,#362,#363,#364));
#148=EDGE_LOOP('',(#365,#366,#367,#368));
#149=EDGE_LOOP('',(#369,#370,#371,#372));
#150=EDGE_LOOP('',(#373,#374,#375,#376));
#151=EDGE_LOOP('',(#377,#378,#379,#380));
#152=EDGE_LOOP('',(#381,#382,#383,#384));
#153=EDGE_LOOP('',(#385,#386,#387,#388,#389,#390,#391,#392));
#154=EDGE_LOOP('',(#393,#394,#395,#396));
#155=EDGE_LOOP('',(#397,#398,#399,#400));
#156=EDGE_LOOP('',(#401,#402,#403,#404));
#157=EDGE_LOOP('',(#405,#406,#407,#408));
#158=EDGE_LOOP('',(#409));
#159=EDGE_LOOP('',(#410,#411));
#160=EDGE_LOOP('',(#412));
#161=EDGE_LOOP('',(#413));
#162=EDGE_LOOP('',(#414));
#163=EDGE_LOOP('',(#415,#416));
#164=EDGE_LOOP('',(#417));
#165=EDGE_LOOP('',(#418,#419));
#166=EDGE_LOOP('',(#420));
#167=LINE('',#771,#220);
#168=LINE('',#773,#221);
#169=LINE('',#775,#222);
#170=LINE('',#779,#223);
#171=LINE('',#781,#224);
#172=LINE('',#783,#225);
#173=LINE('',#787,#226);
#174=LINE('',#791,#227);
#175=LINE('',#793,#228);
#176=LINE('',#795,#229);
#177=LINE('',#798,#230);
#178=LINE('',#800,#231);
#179=LINE('',#802,#232);
#180=LINE('',#804,#233);
#181=LINE('',#806,#234);
#182=LINE('',#808,#235);
#183=LINE('',#810,#236);
#184=LINE('',#813,#237);
#185=LINE('',#815,#238);
#186=LINE('',#817,#239);
#187=LINE('',#818,#240);
#188=LINE('',#820,#241);
#189=LINE('',#822,#242);
#190=LINE('',#824,#243);
#191=LINE('',#826,#244);
#192=LINE('',#828,#245);
#193=LINE('',#836,#246);
#194=LINE('',#838,#247);
#195=LINE('',#841,#248);
#196=LINE('',#842,#249);
#197=LINE('',#845,#250);
#198=LINE('',#846,#251);
#199=LINE('',#850,#252);
#200=LINE('',#852,#253);
#201=LINE('',#854,#254);
#202=LINE('',#858,#255);
#203=LINE('',#863,#256);
#204=LINE('',#867,#257);
#205=LINE('',#871,#258);
#206=LINE('',#874,#259);
#207=LINE('',#878,#260);
#208=LINE('',#881,#261);
#209=LINE('',#884,#262);
#210=LINE('',#885,#263);
#211=LINE('',#887,#264);
#212=LINE('',#890,#265);
#213=LINE('',#891,#266);
#214=LINE('',#893,#267);
#215=LINE('',#896,#268);
#216=LINE('',#897,#269);
#217=LINE('',#899,#270);
#218=LINE('',#901,#271);
#219=LINE('',#903,#272);
#220=VECTOR('',#618,1.);
#221=VECTOR('',#619,1.);
#222=VECTOR('',#620,1.);
#223=VECTOR('',#623,1.);
#224=VECTOR('',#624,1.);
#225=VECTOR('',#625,1.);
#226=VECTOR('',#628,1.);
#227=VECTOR('',#631,1.);
#228=VECTOR('',#632,1.);
#229=VECTOR('',#635,1.);
#230=VECTOR('',#636,1.);
#231=VECTOR('',#637,1.);
#232=VECTOR('',#638,1.);
#233=VECTOR('',#639,1.);
#234=VECTOR('',#640,1.);
#235=VECTOR('',#641,1.);
#236=VECTOR('',#644,1.);
#237=VECTOR('',#645,1.);
#238=VECTOR('',#646,1.);
#239=VECTOR('',#647,1.);
#240=VECTOR('',#648,1.);
#241=VECTOR('',#651,1.);
#242=VECTOR('',#652,1.);
#243=VECTOR('',#653,1.);
#244=VECTOR('',#654,1.);
#245=VECTOR('',#655,1.);
#246=VECTOR('',#664,1.);
#247=VECTOR('',#667,1.);
#248=VECTOR('',#672,1.);
#249=VECTOR('',#673,1.);
#250=VECTOR('',#678,1.);
#251=VECTOR('',#679,1.);
#252=VECTOR('',#686,1.);
#253=VECTOR('',#689,1.);
#254=VECTOR('',#690,1.);
#255=VECTOR('',#695,1.);
#256=VECTOR('',#698,1.);
#257=VECTOR('',#701,1.);
#258=VECTOR('',#704,1.);
#259=VECTOR('',#707,1.);
#260=VECTOR('',#712,1.);
#261=VECTOR('',#717,1.);
#262=VECTOR('',#718,1.);
#263=VECTOR('',#719,1.);
#264=VECTOR('',#722,1.);
#265=VECTOR('',#723,1.);
#266=VECTOR('',#724,1.);
#267=VECTOR('',#727,1.);
#268=VECTOR('',#728,1.);
#269=VECTOR('',#729,1.);
#270=VECTOR('',#732,1.);
#271=VECTOR('',#733,1.);
#272=VECTOR('',#734,1.);
#273=ORIENTED_EDGE('',*,*,#472,.F.);
#274=ORIENTED_EDGE('',*,*,#473,.T.);
#275=ORIENTED_EDGE('',*,*,#474,.T.);
#276=ORIENTED_EDGE('',*,*,#475,.F.);
#277=ORIENTED_EDGE('',*,*,#476,.T.);
#278=ORIENTED_EDGE('',*,*,#477,.F.);
#279=ORIENTED_EDGE('',*,*,#478,.T.);
#280=ORIENTED_EDGE('',*,*,#479,.T.);
#281=ORIENTED_EDGE('',*,*,#480,.F.);
#282=ORIENTED_EDGE('',*,*,#481,.T.);
#283=ORIENTED_EDGE('',*,*,#482,.F.);
#284=ORIENTED_EDGE('',*,*,#483,.T.);
#285=ORIENTED_EDGE('',*,*,#484,.T.);
#286=ORIENTED_EDGE('',*,*,#485,.F.);
#287=ORIENTED_EDGE('',*,*,#486,.F.);
#288=ORIENTED_EDGE('',*,*,#487,.T.);
#289=ORIENTED_EDGE('',*,*,#488,.T.);
#290=ORIENTED_EDGE('',*,*,#489,.T.);
#291=ORIENTED_EDGE('',*,*,#490,.T.);
#292=ORIENTED_EDGE('',*,*,#491,.F.);
#293=ORIENTED_EDGE('',*,*,#492,.T.);
#294=ORIENTED_EDGE('',*,*,#493,.T.);
#295=ORIENTED_EDGE('',*,*,#494,.F.);
#296=ORIENTED_EDGE('',*,*,#495,.T.);
#297=ORIENTED_EDGE('',*,*,#486,.T.);
#298=ORIENTED_EDGE('',*,*,#496,.F.);
#299=ORIENTED_EDGE('',*,*,#497,.T.);
#300=ORIENTED_EDGE('',*,*,#498,.T.);
#301=ORIENTED_EDGE('',*,*,#499,.T.);
#302=ORIENTED_EDGE('',*,*,#500,.F.);
#303=ORIENTED_EDGE('',*,*,#501,.T.);
#304=ORIENTED_EDGE('',*,*,#494,.T.);
#305=ORIENTED_EDGE('',*,*,#502,.F.);
#306=ORIENTED_EDGE('',*,*,#503,.F.);
#307=ORIENTED_EDGE('',*,*,#504,.F.);
#308=ORIENTED_EDGE('',*,*,#505,.F.);
#309=ORIENTED_EDGE('',*,*,#487,.F.);
#310=ORIENTED_EDGE('',*,*,#495,.F.);
#311=ORIENTED_EDGE('',*,*,#501,.F.);
#312=ORIENTED_EDGE('',*,*,#500,.T.);
#313=ORIENTED_EDGE('',*,*,#506,.T.);
#314=ORIENTED_EDGE('',*,*,#488,.F.);
#315=ORIENTED_EDGE('',*,*,#505,.T.);
#316=ORIENTED_EDGE('',*,*,#507,.F.);
#317=ORIENTED_EDGE('',*,*,#479,.F.);
#318=ORIENTED_EDGE('',*,*,#508,.T.);
#319=ORIENTED_EDGE('',*,*,#489,.F.);
#320=ORIENTED_EDGE('',*,*,#506,.F.);
#321=ORIENTED_EDGE('',*,*,#499,.F.);
#322=ORIENTED_EDGE('',*,*,#509,.T.);
#323=ORIENTED_EDGE('',*,*,#483,.F.);
#324=ORIENTED_EDGE('',*,*,#510,.F.);
#325=ORIENTED_EDGE('',*,*,#481,.F.);
#326=ORIENTED_EDGE('',*,*,#511,.F.);
#327=ORIENTED_EDGE('',*,*,#474,.F.);
#328=ORIENTED_EDGE('',*,*,#512,.T.);
#329=ORIENTED_EDGE('',*,*,#497,.F.);
#330=ORIENTED_EDGE('',*,*,#493,.F.);
#331=ORIENTED_EDGE('',*,*,#513,.F.);
#332=ORIENTED_EDGE('',*,*,#484,.F.);
#333=ORIENTED_EDGE('',*,*,#509,.F.);
#334=ORIENTED_EDGE('',*,*,#498,.F.);
#335=ORIENTED_EDGE('',*,*,#512,.F.);
#336=ORIENTED_EDGE('',*,*,#473,.F.);
#337=ORIENTED_EDGE('',*,*,#514,.F.);
#338=ORIENTED_EDGE('',*,*,#490,.F.);
#339=ORIENTED_EDGE('',*,*,#508,.F.);
#340=ORIENTED_EDGE('',*,*,#478,.F.);
#341=ORIENTED_EDGE('',*,*,#515,.T.);
#342=ORIENTED_EDGE('',*,*,#516,.T.);
#343=ORIENTED_EDGE('',*,*,#475,.T.);
#344=ORIENTED_EDGE('',*,*,#511,.T.);
#345=ORIENTED_EDGE('',*,*,#492,.F.);
#346=ORIENTED_EDGE('',*,*,#517,.T.);
#347=ORIENTED_EDGE('',*,*,#518,.T.);
#348=ORIENTED_EDGE('',*,*,#519,.T.);
#349=ORIENTED_EDGE('',*,*,#520,.T.);
#350=ORIENTED_EDGE('',*,*,#521,.T.);
#351=ORIENTED_EDGE('',*,*,#522,.T.);
#352=ORIENTED_EDGE('',*,*,#523,.T.);
#353=ORIENTED_EDGE('',*,*,#524,.T.);
#354=ORIENTED_EDGE('',*,*,#525,.T.);
#355=ORIENTED_EDGE('',*,*,#526,.F.);
#356=ORIENTED_EDGE('',*,*,#527,.T.);
#357=ORIENTED_EDGE('',*,*,#515,.F.);
#358=ORIENTED_EDGE('',*,*,#496,.T.);
#359=ORIENTED_EDGE('',*,*,#485,.T.);
#360=ORIENTED_EDGE('',*,*,#477,.T.);
#361=ORIENTED_EDGE('',*,*,#528,.T.);
#362=ORIENTED_EDGE('',*,*,#526,.T.);
#363=ORIENTED_EDGE('',*,*,#491,.T.);
#364=ORIENTED_EDGE('',*,*,#514,.T.);
#365=ORIENTED_EDGE('',*,*,#476,.F.);
#366=ORIENTED_EDGE('',*,*,#516,.F.);
#367=ORIENTED_EDGE('',*,*,#527,.F.);
#368=ORIENTED_EDGE('',*,*,#528,.F.);
#369=ORIENTED_EDGE('',*,*,#529,.T.);
#370=ORIENTED_EDGE('',*,*,#530,.T.);
#371=ORIENTED_EDGE('',*,*,#522,.F.);
#372=ORIENTED_EDGE('',*,*,#531,.T.);
#373=ORIENTED_EDGE('',*,*,#532,.T.);
#374=ORIENTED_EDGE('',*,*,#533,.T.);
#375=ORIENTED_EDGE('',*,*,#524,.F.);
#376=ORIENTED_EDGE('',*,*,#534,.T.);
#377=ORIENTED_EDGE('',*,*,#535,.T.);
#378=ORIENTED_EDGE('',*,*,#536,.T.);
#379=ORIENTED_EDGE('',*,*,#518,.F.);
#380=ORIENTED_EDGE('',*,*,#537,.T.);
#381=ORIENTED_EDGE('',*,*,#520,.F.);
#382=ORIENTED_EDGE('',*,*,#538,.T.);
#383=ORIENTED_EDGE('',*,*,#539,.T.);
#384=ORIENTED_EDGE('',*,*,#540,.T.);
#385=ORIENTED_EDGE('',*,*,#539,.F.);
#386=ORIENTED_EDGE('',*,*,#541,.T.);
#387=ORIENTED_EDGE('',*,*,#535,.F.);
#388=ORIENTED_EDGE('',*,*,#542,.T.);
#389=ORIENTED_EDGE('',*,*,#532,.F.);
#390=ORIENTED_EDGE('',*,*,#543,.T.);
#391=ORIENTED_EDGE('',*,*,#529,.F.);
#392=ORIENTED_EDGE('',*,*,#544,.T.);
#393=ORIENTED_EDGE('',*,*,#519,.F.);
#394=ORIENTED_EDGE('',*,*,#536,.F.);
#395=ORIENTED_EDGE('',*,*,#541,.F.);
#396=ORIENTED_EDGE('',*,*,#538,.F.);
#397=ORIENTED_EDGE('',*,*,#525,.F.);
#398=ORIENTED_EDGE('',*,*,#533,.F.);
#399=ORIENTED_EDGE('',*,*,#542,.F.);
#400=ORIENTED_EDGE('',*,*,#537,.F.);
#401=ORIENTED_EDGE('',*,*,#523,.F.);
#402=ORIENTED_EDGE('',*,*,#530,.F.);
#403=ORIENTED_EDGE('',*,*,#543,.F.);
#404=ORIENTED_EDGE('',*,*,#534,.F.);
#405=ORIENTED_EDGE('',*,*,#521,.F.);
#406=ORIENTED_EDGE('',*,*,#540,.F.);
#407=ORIENTED_EDGE('',*,*,#544,.F.);
#408=ORIENTED_EDGE('',*,*,#531,.F.);
#409=ORIENTED_EDGE('',*,*,#504,.T.);
#410=ORIENTED_EDGE('',*,*,#482,.T.);
#411=ORIENTED_EDGE('',*,*,#510,.T.);
#412=ORIENTED_EDGE('',*,*,#503,.T.);
#413=ORIENTED_EDGE('',*,*,#517,.F.);
#414=ORIENTED_EDGE('',*,*,#502,.T.);
#415=ORIENTED_EDGE('',*,*,#480,.T.);
#416=ORIENTED_EDGE('',*,*,#507,.T.);
#417=ORIENTED_EDGE('',*,*,#545,.F.);
#418=ORIENTED_EDGE('',*,*,#472,.T.);
#419=ORIENTED_EDGE('',*,*,#513,.T.);
#420=ORIENTED_EDGE('',*,*,#545,.T.);
#421=VERTEX_POINT('',#769);
#422=VERTEX_POINT('',#770);
#423=VERTEX_POINT('',#772);
#424=VERTEX_POINT('',#774);
#425=VERTEX_POINT('',#776);
#426=VERTEX_POINT('',#778);
#427=VERTEX_POINT('',#780);
#428=VERTEX_POINT('',#782);
#429=VERTEX_POINT('',#784);
#430=VERTEX_POINT('',#786);
#431=VERTEX_POINT('',#788);
#432=VERTEX_POINT('',#790);
#433=VERTEX_POINT('',#792);
#434=VERTEX_POINT('',#796);
#435=VERTEX_POINT('',#797);
#436=VERTEX_POINT('',#799);
#437=VERTEX_POINT('',#801);
#438=VERTEX_POINT('',#803);
#439=VERTEX_POINT('',#805);
#440=VERTEX_POINT('',#807);
#441=VERTEX_POINT('',#811);
#442=VERTEX_POINT('',#812);
#443=VERTEX_POINT('',#814);
#444=VERTEX_POINT('',#816);
#445=VERTEX_POINT('',#821);
#446=VERTEX_POINT('',#823);
#447=VERTEX_POINT('',#825);
#448=VERTEX_POINT('',#827);
#449=VERTEX_POINT('',#831);
#450=VERTEX_POINT('',#833);
#451=VERTEX_POINT('',#835);
#452=VERTEX_POINT('',#853);
#453=VERTEX_POINT('',#857);
#454=VERTEX_POINT('',#859);
#455=VERTEX_POINT('',#860);
#456=VERTEX_POINT('',#862);
#457=VERTEX_POINT('',#864);
#458=VERTEX_POINT('',#866);
#459=VERTEX_POINT('',#868);
#460=VERTEX_POINT('',#870);
#461=VERTEX_POINT('',#872);
#462=VERTEX_POINT('',#875);
#463=VERTEX_POINT('',#882);
#464=VERTEX_POINT('',#883);
#465=VERTEX_POINT('',#888);
#466=VERTEX_POINT('',#889);
#467=VERTEX_POINT('',#894);
#468=VERTEX_POINT('',#895);
#469=VERTEX_POINT('',#900);
#470=VERTEX_POINT('',#902);
#471=VERTEX_POINT('',#918);
#472=EDGE_CURVE('',#421,#422,#546,.T.);
#473=EDGE_CURVE('',#421,#423,#167,.T.);
#474=EDGE_CURVE('',#423,#424,#168,.T.);
#475=EDGE_CURVE('',#425,#424,#169,.T.);
#476=EDGE_CURVE('',#425,#426,#547,.T.);
#477=EDGE_CURVE('',#427,#426,#170,.T.);
#478=EDGE_CURVE('',#427,#428,#171,.T.);
#479=EDGE_CURVE('',#428,#429,#172,.T.);
#480=EDGE_CURVE('',#430,#429,#548,.T.);
#481=EDGE_CURVE('',#430,#431,#173,.T.);
#482=EDGE_CURVE('',#432,#431,#549,.T.);
#483=EDGE_CURVE('',#432,#433,#174,.T.);
#484=EDGE_CURVE('',#433,#422,#175,.T.);
#485=EDGE_CURVE('',#434,#435,#176,.T.);
#486=EDGE_CURVE('',#436,#434,#177,.T.);
#487=EDGE_CURVE('',#436,#437,#178,.T.);
#488=EDGE_CURVE('',#437,#438,#179,.T.);
#489=EDGE_CURVE('',#438,#439,#180,.T.);
#490=EDGE_CURVE('',#439,#440,#181,.T.);
#491=EDGE_CURVE('',#435,#440,#182,.T.);
#492=EDGE_CURVE('',#441,#442,#183,.T.);
#493=EDGE_CURVE('',#442,#443,#184,.T.);
#494=EDGE_CURVE('',#444,#443,#185,.T.);
#495=EDGE_CURVE('',#444,#436,#186,.T.);
#496=EDGE_CURVE('',#441,#434,#187,.T.);
#497=EDGE_CURVE('',#443,#445,#188,.T.);
#498=EDGE_CURVE('',#445,#446,#189,.T.);
#499=EDGE_CURVE('',#446,#447,#190,.T.);
#500=EDGE_CURVE('',#448,#447,#191,.T.);
#501=EDGE_CURVE('',#448,#444,#192,.T.);
#502=EDGE_CURVE('',#449,#449,#550,.T.);
#503=EDGE_CURVE('',#450,#450,#551,.T.);
#504=EDGE_CURVE('',#451,#451,#552,.T.);
#505=EDGE_CURVE('',#437,#448,#193,.T.);
#506=EDGE_CURVE('',#447,#438,#194,.T.);
#507=EDGE_CURVE('',#429,#430,#43,.T.);
#508=EDGE_CURVE('',#428,#439,#195,.T.);
#509=EDGE_CURVE('',#446,#433,#196,.T.);
#510=EDGE_CURVE('',#431,#432,#44,.T.);
#511=EDGE_CURVE('',#424,#442,#197,.T.);
#512=EDGE_CURVE('',#423,#445,#198,.T.);
#513=EDGE_CURVE('',#422,#421,#45,.T.);
#514=EDGE_CURVE('',#440,#427,#199,.T.);
#515=EDGE_CURVE('',#441,#452,#200,.T.);
#516=EDGE_CURVE('',#452,#425,#201,.T.);
#517=EDGE_CURVE('',#453,#453,#553,.T.);
#518=EDGE_CURVE('',#454,#455,#202,.T.);
#519=EDGE_CURVE('',#455,#456,#554,.T.);
#520=EDGE_CURVE('',#456,#457,#203,.T.);
#521=EDGE_CURVE('',#457,#458,#555,.T.);
#522=EDGE_CURVE('',#458,#459,#204,.T.);
#523=EDGE_CURVE('',#459,#460,#556,.T.);
#524=EDGE_CURVE('',#460,#461,#205,.T.);
#525=EDGE_CURVE('',#461,#454,#557,.T.);
#526=EDGE_CURVE('',#462,#435,#206,.T.);
#527=EDGE_CURVE('',#462,#452,#558,.T.);
#528=EDGE_CURVE('',#426,#462,#207,.T.);
#529=EDGE_CURVE('',#463,#464,#208,.T.);
#530=EDGE_CURVE('',#464,#459,#209,.T.);
#531=EDGE_CURVE('',#458,#463,#210,.T.);
#532=EDGE_CURVE('',#465,#466,#211,.T.);
#533=EDGE_CURVE('',#466,#461,#212,.T.);
#534=EDGE_CURVE('',#460,#465,#213,.T.);
#535=EDGE_CURVE('',#467,#468,#214,.T.);
#536=EDGE_CURVE('',#468,#455,#215,.T.);
#537=EDGE_CURVE('',#454,#467,#216,.T.);
#538=EDGE_CURVE('',#456,#469,#217,.T.);
#539=EDGE_CURVE('',#469,#470,#218,.T.);
#540=EDGE_CURVE('',#470,#457,#219,.T.);
#541=EDGE_CURVE('',#469,#468,#559,.T.);
#542=EDGE_CURVE('',#467,#466,#560,.T.);
#543=EDGE_CURVE('',#465,#464,#561,.T.);
#544=EDGE_CURVE('',#463,#470,#562,.T.);
#545=EDGE_CURVE('',#471,#471,#563,.T.);
#546=CIRCLE('',#565,3.15);
#547=CIRCLE('',#566,14.4);
#548=CIRCLE('',#567,7.);
#549=CIRCLE('',#568,19.25);
#550=CIRCLE('',#573,7.);
#551=CIRCLE('',#574,11.5);
#552=CIRCLE('',#575,19.25);
#553=CIRCLE('',#586,11.5);
#554=CIRCLE('',#587,12.);
#555=CIRCLE('',#588,12.);
#556=CIRCLE('',#589,12.);
#557=CIRCLE('',#590,12.);
#558=CIRCLE('',#591,14.4);
#559=CIRCLE('',#599,12.);
#560=CIRCLE('',#600,12.);
#561=CIRCLE('',#601,12.);
#562=CIRCLE('',#602,12.);
#563=CIRCLE('',#611,3.15);
#564=AXIS2_PLACEMENT_3D('',#767,#614,#615);
#565=AXIS2_PLACEMENT_3D('',#768,#616,#617);
#566=AXIS2_PLACEMENT_3D('',#777,#621,#622);
#567=AXIS2_PLACEMENT_3D('',#785,#626,#627);
#568=AXIS2_PLACEMENT_3D('',#789,#629,#630);
#569=AXIS2_PLACEMENT_3D('',#794,#633,#634);
#570=AXIS2_PLACEMENT_3D('',#809,#642,#643);
#571=AXIS2_PLACEMENT_3D('',#819,#649,#650);
#572=AXIS2_PLACEMENT_3D('',#829,#656,#657);
#573=AXIS2_PLACEMENT_3D('',#830,#658,#659);
#574=AXIS2_PLACEMENT_3D('',#832,#660,#661);
#575=AXIS2_PLACEMENT_3D('',#834,#662,#663);
#576=AXIS2_PLACEMENT_3D('',#837,#665,#666);
#577=AXIS2_PLACEMENT_3D('',#839,#668,#669);
#578=AXIS2_PLACEMENT_3D('',#840,#670,#671);
#579=AXIS2_PLACEMENT_3D('',#843,#674,#675);
#580=AXIS2_PLACEMENT_3D('',#844,#676,#677);
#581=AXIS2_PLACEMENT_3D('',#847,#680,#681);
#582=AXIS2_PLACEMENT_3D('',#848,#682,#683);
#583=AXIS2_PLACEMENT_3D('',#849,#684,#685);
#584=AXIS2_PLACEMENT_3D('',#851,#687,#688);
#585=AXIS2_PLACEMENT_3D('',#855,#691,#692);
#586=AXIS2_PLACEMENT_3D('',#856,#693,#694);
#587=AXIS2_PLACEMENT_3D('',#861,#696,#697);
#588=AXIS2_PLACEMENT_3D('',#865,#699,#700);
#589=AXIS2_PLACEMENT_3D('',#869,#702,#703);
#590=AXIS2_PLACEMENT_3D('',#873,#705,#706);
#591=AXIS2_PLACEMENT_3D('',#876,#708,#709);
#592=AXIS2_PLACEMENT_3D('',#877,#710,#711);
#593=AXIS2_PLACEMENT_3D('',#879,#713,#714);
#594=AXIS2_PLACEMENT_3D('',#880,#715,#716);
#595=AXIS2_PLACEMENT_3D('',#886,#720,#721);
#596=AXIS2_PLACEMENT_3D('',#892,#725,#726);
#597=AXIS2_PLACEMENT_3D('',#898,#730,#731);
#598=AXIS2_PLACEMENT_3D('',#904,#735,#736);
#599=AXIS2_PLACEMENT_3D('',#905,#737,#738);
#600=AXIS2_PLACEMENT_3D('',#906,#739,#740);
#601=AXIS2_PLACEMENT_3D('',#907,#741,#742);
#602=AXIS2_PLACEMENT_3D('',#908,#743,#744);
#603=AXIS2_PLACEMENT_3D('',#909,#745,#746);
#604=AXIS2_PLACEMENT_3D('',#910,#747,#748);
#605=AXIS2_PLACEMENT_3D('',#911,#749,#750);
#606=AXIS2_PLACEMENT_3D('',#912,#751,#752);
#607=AXIS2_PLACEMENT_3D('',#913,#753,#754);
#608=AXIS2_PLACEMENT_3D('',#914,#755,#756);
#609=AXIS2_PLACEMENT_3D('',#915,#757,#758);
#610=AXIS2_PLACEMENT_3D('',#916,#759,#760);
#611=AXIS2_PLACEMENT_3D('',#917,#761,#762);
#612=AXIS2_PLACEMENT_3D('',#919,#763,#764);
#613=AXIS2_PLACEMENT_3D('',#920,#765,#766);
#614=DIRECTION('',(0.,0.,1.));
#615=DIRECTION('',(1.,0.,0.));
#616=DIRECTION('',(0.,0.,1.));
#617=DIRECTION('',(0.999999999999996,0.,0.));
#618=DIRECTION('',(-1.,0.,0.));
#619=DIRECTION('',(0.,-1.,0.));
#620=DIRECTION('',(-1.,0.,0.));
#621=DIRECTION('',(0.,0.,-1.));
#622=DIRECTION('',(1.,0.,0.));
#623=DIRECTION('',(0.,1.,0.));
#624=DIRECTION('',(1.,0.,0.));
#625=DIRECTION('',(0.,1.,0.));
#626=DIRECTION('',(0.,0.,1.));
#627=DIRECTION('',(1.,0.,0.));
#628=DIRECTION('',(0.,1.,0.));
#629=DIRECTION('',(0.,0.,1.));
#630=DIRECTION('',(0.999999999999999,0.,0.));
#631=DIRECTION('',(0.,1.,0.));
#632=DIRECTION('',(-1.,0.,0.));
#633=DIRECTION('',(0.,0.,1.));
#634=DIRECTION('',(1.,0.,0.));
#635=DIRECTION('',(1.,0.,0.));
#636=DIRECTION('',(0.,0.,1.));
#637=DIRECTION('',(1.,0.,0.));
#638=DIRECTION('',(0.,0.,1.));
#639=DIRECTION('',(-0.707106781186547,0.,0.707106781186548));
#640=DIRECTION('',(-1.,0.,0.));
#641=DIRECTION('',(0.,0.,1.));
#642=DIRECTION('',(0.,-1.,0.));
#643=DIRECTION('',(0.,0.,-1.));
#644=DIRECTION('',(0.,0.,1.));
#645=DIRECTION('',(0.,1.,0.));
#646=DIRECTION('',(0.,0.,1.));
#647=DIRECTION('',(0.,-1.,0.));
#648=DIRECTION('',(0.,-1.,0.));
#649=DIRECTION('',(-1.,0.,0.));
#650=DIRECTION('',(0.,0.,1.));
#651=DIRECTION('',(0.707106781186547,0.,0.707106781186548));
#652=DIRECTION('',(1.,0.,0.));
#653=DIRECTION('',(0.707106781186547,0.,-0.707106781186548));
#654=DIRECTION('',(0.,0.,1.));
#655=DIRECTION('',(-1.,0.,0.));
#656=DIRECTION('',(0.,1.,0.));
#657=DIRECTION('',(0.,0.,1.));
#658=DIRECTION('',(0.,0.,-1.));
#659=DIRECTION('',(-1.,0.,0.));
#660=DIRECTION('',(0.,0.,-1.));
#661=DIRECTION('',(-1.,0.,0.));
#662=DIRECTION('',(0.,0.,-1.));
#663=DIRECTION('',(-0.999999999999999,0.,0.));
#664=DIRECTION('',(0.,1.,0.));
#665=DIRECTION('',(0.,0.,-1.));
#666=DIRECTION('',(-1.,0.,0.));
#667=DIRECTION('',(0.,-1.,0.));
#668=DIRECTION('',(1.,0.,0.));
#669=DIRECTION('',(0.,0.,-1.));
#670=DIRECTION('',(0.707106781186548,0.,0.707106781186547));
#671=DIRECTION('',(0.707106781186547,0.,-0.707106781186548));
#672=DIRECTION('',(0.577350269189626,-0.577350269189626,-0.577350269189626));
#673=DIRECTION('',(-0.577350269189624,-0.577350269189628,0.577350269189625));
#674=DIRECTION('',(0.707106781186548,0.,0.707106781186547));
#675=DIRECTION('',(0.707106781186547,0.,-0.707106781186548));
#676=DIRECTION('',(-0.707106781186548,0.,-0.707106781186547));
#677=DIRECTION('',(0.,-1.,0.));
#678=DIRECTION('',(-0.707106781186547,0.,-0.707106781186548));
#679=DIRECTION('',(-0.577350269189624,0.577350269189628,-0.577350269189625));
#680=DIRECTION('',(0.707106781186548,0.,-0.707106781186547));
#681=DIRECTION('',(0.,1.,0.));
#682=DIRECTION('',(0.,0.707106781186546,0.70710678118655));
#683=DIRECTION('',(0.,0.70710678118655,-0.707106781186546));
#684=DIRECTION('',(0.,-0.707106781186546,-0.70710678118655));
#685=DIRECTION('',(1.,0.,0.));
#686=DIRECTION('',(0.,0.707106781186548,0.707106781186548));
#687=DIRECTION('',(0.,0.707106781186547,-0.707106781186547));
#688=DIRECTION('',(-1.,0.,0.));
#689=DIRECTION('',(1.,0.,0.));
#690=DIRECTION('',(0.,0.,1.));
#691=DIRECTION('',(0.,1.,0.));
#692=DIRECTION('',(0.,0.,1.));
#693=DIRECTION('',(0.,0.,-1.));
#694=DIRECTION('',(-1.,0.,0.));
#695=DIRECTION('',(1.,0.,0.));
#696=DIRECTION('',(0.,0.,-1.));
#697=DIRECTION('',(-1.,0.,0.));
#698=DIRECTION('',(0.,-1.,0.));
#699=DIRECTION('',(0.,0.,-1.));
#700=DIRECTION('',(-1.,0.,0.));
#701=DIRECTION('',(-1.,0.,0.));
#702=DIRECTION('',(0.,0.,-1.));
#703=DIRECTION('',(-1.,0.,0.));
#704=DIRECTION('',(0.,1.,0.));
#705=DIRECTION('',(0.,0.,-1.));
#706=DIRECTION('',(-1.,0.,0.));
#707=DIRECTION('',(0.,-1.,0.));
#708=DIRECTION('',(0.,0.,1.));
#709=DIRECTION('',(-1.,0.,0.));
#710=DIRECTION('',(0.,0.,-1.));
#711=DIRECTION('',(-1.,0.,0.));
#712=DIRECTION('',(0.,0.,-1.));
#713=DIRECTION('',(1.,0.,0.));
#714=DIRECTION('',(0.,0.,-1.));
#715=DIRECTION('',(0.,0.,1.));
#716=DIRECTION('',(1.,0.,0.));
#717=DIRECTION('',(-1.,0.,0.));
#718=DIRECTION('',(0.,0.,1.));
#719=DIRECTION('',(0.,0.,-1.));
#720=DIRECTION('',(0.,-1.,0.));
#721=DIRECTION('',(0.,0.,-1.));
#722=DIRECTION('',(0.,1.,0.));
#723=DIRECTION('',(0.,0.,1.));
#724=DIRECTION('',(0.,0.,-1.));
#725=DIRECTION('',(-1.,0.,0.));
#726=DIRECTION('',(0.,0.,1.));
#727=DIRECTION('',(1.,0.,0.));
#728=DIRECTION('',(0.,0.,1.));
#729=DIRECTION('',(0.,0.,-1.));
#730=DIRECTION('',(0.,1.,0.));
#731=DIRECTION('',(0.,0.,1.));
#732=DIRECTION('',(0.,0.,-1.));
#733=DIRECTION('',(0.,-1.,0.));
#734=DIRECTION('',(0.,0.,1.));
#735=DIRECTION('',(1.,0.,0.));
#736=DIRECTION('',(0.,0.,-1.));
#737=DIRECTION('',(0.,0.,1.));
#738=DIRECTION('',(-1.,0.,0.));
#739=DIRECTION('',(0.,0.,1.));
#740=DIRECTION('',(-1.,0.,0.));
#741=DIRECTION('',(0.,0.,1.));
#742=DIRECTION('',(-1.,0.,0.));
#743=DIRECTION('',(0.,0.,1.));
#744=DIRECTION('',(-1.,0.,0.));
#745=DIRECTION('',(0.,0.,-1.));
#746=DIRECTION('',(-1.,0.,0.));
#747=DIRECTION('',(0.,0.,1.));
#748=DIRECTION('',(1.,0.,0.));
#749=DIRECTION('',(0.,0.,1.));
#750=DIRECTION('',(1.,0.,0.));
#751=DIRECTION('',(0.,0.,1.));
#752=DIRECTION('',(1.,0.,0.));
#753=DIRECTION('',(0.,0.,1.));
#754=DIRECTION('',(1.,0.,0.));
#755=DIRECTION('',(0.,0.,-1.));
#756=DIRECTION('',(0.999999999999999,0.,0.));
#757=DIRECTION('',(0.,0.,-1.));
#758=DIRECTION('',(1.,0.,0.));
#759=DIRECTION('',(0.,0.,-1.));
#760=DIRECTION('',(1.,0.,0.));
#761=DIRECTION('',(0.,0.,-1.));
#762=DIRECTION('',(0.999999999999996,0.,0.));
#763=DIRECTION('',(0.,0.,-1.));
#764=DIRECTION('',(-1.,0.,0.));
#765=DIRECTION('',(0.,0.,-1.));
#766=DIRECTION('',(0.999999999999996,0.,0.));
#767=CARTESIAN_POINT('',(0.,0.,0.));
#768=CARTESIAN_POINT('',(301.4,299.6,115.));
#769=CARTESIAN_POINT('',(299.247675674997,301.9,115.));
#770=CARTESIAN_POINT('',(303.552324325003,301.9,115.));
#771=CARTESIAN_POINT('',(203.85,301.9,115.));
#772=CARTESIAN_POINT('',(18.2,301.9,115.));
#773=CARTESIAN_POINT('',(18.2,153.35,115.));
#774=CARTESIAN_POINT('',(18.2,95.2,115.));
#775=CARTESIAN_POINT('',(203.85,95.2,115.));
#776=CARTESIAN_POINT('',(75.1,95.2,115.));
#777=CARTESIAN_POINT('',(75.1,80.8,115.));
#778=CARTESIAN_POINT('',(89.5,80.8,115.));
#779=CARTESIAN_POINT('',(89.5,153.35,115.));
#780=CARTESIAN_POINT('',(89.5,10.6,115.));
#781=CARTESIAN_POINT('',(203.85,10.6,115.));
#782=CARTESIAN_POINT('',(385.4,10.6,115.));
#783=CARTESIAN_POINT('',(385.4,153.35,115.));
#784=CARTESIAN_POINT('',(385.4,19.7869688269182,115.));
#785=CARTESIAN_POINT('',(384.3,26.7,115.));
#786=CARTESIAN_POINT('',(385.4,33.6130311730817,115.));
#787=CARTESIAN_POINT('',(385.4,153.35,115.));
#788=CARTESIAN_POINT('',(385.4,56.290835878216,115.));
#789=CARTESIAN_POINT('',(375.5,72.8,115.));
#790=CARTESIAN_POINT('',(385.4,89.309164121784,115.));
#791=CARTESIAN_POINT('',(385.4,153.35,115.));
#792=CARTESIAN_POINT('',(385.4,301.9,115.));
#793=CARTESIAN_POINT('',(203.85,301.9,115.));
#794=CARTESIAN_POINT('',(203.85,153.35,115.));
#795=CARTESIAN_POINT('',(44.75,0.,91.));
#796=CARTESIAN_POINT('',(0.,0.,91.));
#797=CARTESIAN_POINT('',(89.5,0.,91.));
#798=CARTESIAN_POINT('',(0.,0.,0.));
#799=CARTESIAN_POINT('',(0.,0.,0.));
#800=CARTESIAN_POINT('',(203.85,0.,0.));
#801=CARTESIAN_POINT('',(407.7,0.,0.));
#802=CARTESIAN_POINT('',(407.7,0.,0.));
#803=CARTESIAN_POINT('',(407.7,0.,92.7));
#804=CARTESIAN_POINT('',(352.125,0.,148.275));
#805=CARTESIAN_POINT('',(396.,0.,104.4));
#806=CARTESIAN_POINT('',(203.85,0.,104.4));
#807=CARTESIAN_POINT('',(89.5,0.,104.4));
#808=CARTESIAN_POINT('',(89.5,0.,91.));
#809=CARTESIAN_POINT('',(203.85,0.,0.));
#810=CARTESIAN_POINT('',(0.,95.2,91.));
#811=CARTESIAN_POINT('',(0.,95.2,91.));
#812=CARTESIAN_POINT('',(0.,95.2,96.8));
#813=CARTESIAN_POINT('',(0.,153.35,96.8));
#814=CARTESIAN_POINT('',(0.,306.7,96.8));
#815=CARTESIAN_POINT('',(0.,306.7,0.));
#816=CARTESIAN_POINT('',(0.,306.7,0.));
#817=CARTESIAN_POINT('',(0.,153.35,0.));
#818=CARTESIAN_POINT('',(0.,47.6,91.));
#819=CARTESIAN_POINT('',(0.,153.35,0.));
#820=CARTESIAN_POINT('',(53.5249999999999,306.7,150.325));
#821=CARTESIAN_POINT('',(13.4,306.7,110.2));
#822=CARTESIAN_POINT('',(203.85,306.7,110.2));
#823=CARTESIAN_POINT('',(390.2,306.7,110.2));
#824=CARTESIAN_POINT('',(352.125,306.7,148.275));
#825=CARTESIAN_POINT('',(407.7,306.7,92.7));
#826=CARTESIAN_POINT('',(407.7,306.7,0.));
#827=CARTESIAN_POINT('',(407.7,306.7,0.));
#828=CARTESIAN_POINT('',(203.85,306.7,0.));
#829=CARTESIAN_POINT('',(203.85,306.7,0.));
#830=CARTESIAN_POINT('',(384.3,26.7,0.));
#831=CARTESIAN_POINT('',(377.3,26.7,0.));
#832=CARTESIAN_POINT('',(15.5,76.,0.));
#833=CARTESIAN_POINT('',(4.,76.,0.));
#834=CARTESIAN_POINT('',(375.5,72.8,0.));
#835=CARTESIAN_POINT('',(356.25,72.8,0.));
#836=CARTESIAN_POINT('',(407.7,153.35,0.));
#837=CARTESIAN_POINT('',(203.85,153.35,0.));
#838=CARTESIAN_POINT('',(407.7,153.35,92.7));
#839=CARTESIAN_POINT('',(407.7,153.35,0.));
#840=CARTESIAN_POINT('',(384.3,26.7,116.1));
#841=CARTESIAN_POINT('',(352.683333333333,43.3166666666667,147.716666666667));
#842=CARTESIAN_POINT('',(350.75,267.25,149.65));
#843=CARTESIAN_POINT('',(375.5,72.8,124.9));
#844=CARTESIAN_POINT('',(407.7,153.35,92.7));
#845=CARTESIAN_POINT('',(0.,95.2,96.8));
#846=CARTESIAN_POINT('',(55.5833333333334,264.516666666666,152.383333333333));
#847=CARTESIAN_POINT('',(0.,153.35,96.8));
#848=CARTESIAN_POINT('',(301.4,299.6,117.3));
#849=CARTESIAN_POINT('',(203.85,306.7,110.2));
#850=CARTESIAN_POINT('',(89.5,0.,104.4));
#851=CARTESIAN_POINT('',(203.85,0.,104.4));
#852=CARTESIAN_POINT('',(44.75,95.2,91.));
#853=CARTESIAN_POINT('',(75.1,95.2,91.));
#854=CARTESIAN_POINT('',(75.1,95.2,115.));
#855=CARTESIAN_POINT('',(44.75,95.2,91.));
#856=CARTESIAN_POINT('',(15.5,76.,91.));
#857=CARTESIAN_POINT('',(4.,76.,91.));
#858=CARTESIAN_POINT('',(44.75,55.4,91.));
#859=CARTESIAN_POINT('',(26.,55.4,91.));
#860=CARTESIAN_POINT('',(52.,55.4,91.));
#861=CARTESIAN_POINT('',(52.,43.4,91.));
#862=CARTESIAN_POINT('',(64.,43.4,91.));
#863=CARTESIAN_POINT('',(64.,47.6,91.));
#864=CARTESIAN_POINT('',(64.,28.6,91.));
#865=CARTESIAN_POINT('',(52.,28.6,91.));
#866=CARTESIAN_POINT('',(52.,16.6,91.));
#867=CARTESIAN_POINT('',(44.75,16.6,91.));
#868=CARTESIAN_POINT('',(26.,16.6,91.));
#869=CARTESIAN_POINT('',(26.,28.6,91.));
#870=CARTESIAN_POINT('',(14.,28.6,91.));
#871=CARTESIAN_POINT('',(14.,47.6,91.));
#872=CARTESIAN_POINT('',(14.,43.4,91.));
#873=CARTESIAN_POINT('',(26.,43.4,91.));
#874=CARTESIAN_POINT('',(89.5,47.6,91.));
#875=CARTESIAN_POINT('',(89.5,80.8,91.));
#876=CARTESIAN_POINT('',(75.1,80.8,91.));
#877=CARTESIAN_POINT('',(44.75,47.6,91.));
#878=CARTESIAN_POINT('',(89.5,80.8,91.));
#879=CARTESIAN_POINT('',(89.5,47.6,91.));
#880=CARTESIAN_POINT('',(75.1,80.8,91.));
#881=CARTESIAN_POINT('',(39.,16.6,77.1));
#882=CARTESIAN_POINT('',(52.,16.6,77.1));
#883=CARTESIAN_POINT('',(26.,16.6,77.1));
#884=CARTESIAN_POINT('',(26.,16.6,91.));
#885=CARTESIAN_POINT('',(52.,16.6,77.1));
#886=CARTESIAN_POINT('',(39.,16.6,77.1));
#887=CARTESIAN_POINT('',(14.,36.,77.1));
#888=CARTESIAN_POINT('',(14.,28.6,77.1));
#889=CARTESIAN_POINT('',(14.,43.4,77.1));
#890=CARTESIAN_POINT('',(14.,43.4,91.));
#891=CARTESIAN_POINT('',(14.,28.6,77.1));
#892=CARTESIAN_POINT('',(14.,36.,77.1));
#893=CARTESIAN_POINT('',(39.,55.4,77.1));
#894=CARTESIAN_POINT('',(26.,55.4,77.1));
#895=CARTESIAN_POINT('',(52.,55.4,77.1));
#896=CARTESIAN_POINT('',(52.,55.4,91.));
#897=CARTESIAN_POINT('',(26.,55.4,77.1));
#898=CARTESIAN_POINT('',(39.,55.4,77.1));
#899=CARTESIAN_POINT('',(64.,43.4,77.1));
#900=CARTESIAN_POINT('',(64.,43.4,77.1));
#901=CARTESIAN_POINT('',(64.,36.,77.1));
#902=CARTESIAN_POINT('',(64.,28.6,77.1));
#903=CARTESIAN_POINT('',(64.,28.6,91.));
#904=CARTESIAN_POINT('',(64.,36.,77.1));
#905=CARTESIAN_POINT('',(52.,43.4,77.1));
#906=CARTESIAN_POINT('',(26.,43.4,77.1));
#907=CARTESIAN_POINT('',(26.,28.6,77.1));
#908=CARTESIAN_POINT('',(52.,28.6,77.1));
#909=CARTESIAN_POINT('',(39.,36.,77.1));
#910=CARTESIAN_POINT('',(52.,43.4,77.1));
#911=CARTESIAN_POINT('',(26.,43.4,77.1));
#912=CARTESIAN_POINT('',(26.,28.6,77.1));
#913=CARTESIAN_POINT('',(52.,28.6,77.1));
#914=CARTESIAN_POINT('',(375.5,72.8,115.05));
#915=CARTESIAN_POINT('',(15.5,76.,115.05));
#916=CARTESIAN_POINT('',(384.3,26.7,115.05));
#917=CARTESIAN_POINT('',(301.4,299.6,86.8));
#918=CARTESIAN_POINT('',(304.55,299.6,86.8));
#919=CARTESIAN_POINT('',(301.4,299.6,86.8));
#920=CARTESIAN_POINT('',(301.4,299.6,115.05));
#921=MECHANICAL_DESIGN_GEOMETRIC_PRESENTATION_REPRESENTATION('',(#24),#922);
#922=(
GEOMETRIC_REPRESENTATION_CONTEXT(3)
GLOBAL_UNCERTAINTY_ASSIGNED_CONTEXT((#923))
GLOBAL_UNIT_ASSIGNED_CONTEXT((#929,#925,#924))
REPRESENTATION_CONTEXT('featured_part_02231','TOP_LEVEL_ASSEMBLY_PART')
);
#923=UNCERTAINTY_MEASURE_WITH_UNIT(LENGTH_MEASURE(2.E-5),#929,
'DISTANCE_ACCURACY_VALUE','Maximum Tolerance applied to model');
#924=(
NAMED_UNIT(*)
SI_UNIT($,.STERADIAN.)
SOLID_ANGLE_UNIT()
);
#925=(
CONVERSION_BASED_UNIT('DEGREE',#927)
NAMED_UNIT(#926)
PLANE_ANGLE_UNIT()
);
#926=DIMENSIONAL_EXPONENTS(0.,0.,0.,0.,0.,0.,0.);
#927=PLANE_ANGLE_MEASURE_WITH_UNIT(PLANE_ANGLE_MEASURE(0.0174532925),#928);
#928=(
NAMED_UNIT(*)
PLANE_ANGLE_UNIT()
SI_UNIT($,.RADIAN.)
);
#929=(
LENGTH_UNIT()
NAMED_UNIT(*)
SI_UNIT(.MILLI.,.METRE.)
);
ENDSEC;
END-ISO-10303-21;
