ISO-10303-21;
HEADER;
/* Generated by software containing ST-Developer
 * from STEP Tools, Inc. (www.steptools.com) 
 */
/* OPTION: using custom schema-name function */

FILE_DESCRIPTION(
/* description */ (''),
/* implementation_level */ '2;1');

FILE_NAME(
/* name */ 'featured_part_02508.stp',
/* time_stamp */ '2026-07-05T16:00:43-04:00',
/* author */ (''),
/* organization */ (''),
/* preprocessor_version */ 'ST-DEVELOPER v20.1',
/* originating_system */ 'SIEMENS PLM Software NX2512.6002',
/* authorisation */ '');

FILE_SCHEMA (('AUTOMOTIVE_DESIGN { 1 0 10303 214 3 1 1 1 }'));
ENDSEC;

DATA;
#10=SHAPE_REPRESENTATION_RELATIONSHIP('None',
'relationship between featured_part_02508-None and featured_part_02508
-None',#22,#11);
#11=ADVANCED_BREP_SHAPE_REPRESENTATION('featured_part_02508-None',(#32),
#1077);
#12=SHAPE_DEFINITION_REPRESENTATION(#13,#22);
#13=PRODUCT_DEFINITION_SHAPE('','',#14);
#14=PRODUCT_DEFINITION(' ','',#16,#15);
#15=PRODUCT_DEFINITION_CONTEXT('part definition',#21,'design');
#16=PRODUCT_DEFINITION_FORMATION_WITH_SPECIFIED_SOURCE(' ',' ',#18,
 .NOT_KNOWN.);
#17=PRODUCT_RELATED_PRODUCT_CATEGORY('part','',(#18));
#18=PRODUCT('featured_part_02508','featured_part_02508',' ',(#19));
#19=PRODUCT_CONTEXT(' ',#21,'mechanical');
#20=APPLICATION_PROTOCOL_DEFINITION('international standard',
'automotive_design',2010,#21);
#21=APPLICATION_CONTEXT(
'core data for automotive mechanical design processes');
#22=SHAPE_REPRESENTATION('featured_part_02508-None',(#657),#1077);
#23=PRESENTATION_LAYER_ASSIGNMENT('1','Layer 1',(#32));
#24=STYLED_ITEM('',(#25),#32);
#25=PRESENTATION_STYLE_ASSIGNMENT((#26));
#26=SURFACE_STYLE_USAGE(.BOTH.,#27);
#27=SURFACE_SIDE_STYLE('',(#28));
#28=SURFACE_STYLE_FILL_AREA(#29);
#29=FILL_AREA_STYLE('',(#30));
#30=FILL_AREA_STYLE_COLOUR('',#31);
#31=COLOUR_RGB('medium steel',0.611764705882353,0.658823529411765,0.670588235294118);
#32=MANIFOLD_SOLID_BREP('',#33);
#33=CLOSED_SHELL('',(#69,#70,#71,#72,#73,#74,#75,#76,#77,#78,#79,#80,#81,
#82,#83,#84,#85,#86,#87,#88,#89,#90,#91,#92,#93,#94,#95,#96,#97,#98,#99,
#100,#101,#102,#103,#104));
#34=CYLINDRICAL_SURFACE('',#686,6.8);
#35=CYLINDRICAL_SURFACE('',#696,5.4);
#36=CYLINDRICAL_SURFACE('',#697,5.4);
#37=CYLINDRICAL_SURFACE('',#698,5.4);
#38=CYLINDRICAL_SURFACE('',#699,5.4);
#39=CYLINDRICAL_SURFACE('',#703,4.6);
#40=CYLINDRICAL_SURFACE('',#706,6.);
#41=CYLINDRICAL_SURFACE('',#709,5.6);
#42=CYLINDRICAL_SURFACE('',#710,9.8);
#43=CYLINDRICAL_SURFACE('',#713,9.1);
#44=CYLINDRICAL_SURFACE('',#715,9.55);
#45=FACE_BOUND('',#159,.T.);
#46=FACE_BOUND('',#160,.T.);
#47=FACE_BOUND('',#161,.T.);
#48=FACE_BOUND('',#162,.T.);
#49=FACE_BOUND('',#163,.T.);
#50=FACE_BOUND('',#164,.T.);
#51=FACE_BOUND('',#168,.T.);
#52=FACE_BOUND('',#169,.T.);
#53=FACE_BOUND('',#170,.T.);
#54=FACE_BOUND('',#175,.T.);
#55=FACE_BOUND('',#176,.T.);
#56=FACE_BOUND('',#191,.T.);
#57=FACE_BOUND('',#192,.T.);
#58=FACE_BOUND('',#194,.T.);
#59=FACE_BOUND('',#195,.T.);
#60=FACE_BOUND('',#197,.T.);
#61=FACE_BOUND('',#198,.T.);
#62=FACE_BOUND('',#199,.T.);
#63=FACE_BOUND('',#200,.T.);
#64=FACE_BOUND('',#202,.T.);
#65=FACE_BOUND('',#203,.T.);
#66=FACE_BOUND('',#204,.T.);
#67=FACE_BOUND('',#205,.T.);
#68=ELLIPSE('',#660,6.50538238691624,4.6);
#69=ADVANCED_FACE('',(#130),#105,.T.);
#70=ADVANCED_FACE('',(#131),#106,.F.);
#71=ADVANCED_FACE('',(#45,#46,#47,#48,#49,#50),#107,.T.);
#72=ADVANCED_FACE('',(#132),#108,.T.);
#73=ADVANCED_FACE('',(#133),#109,.T.);
#74=ADVANCED_FACE('',(#134),#110,.T.);
#75=ADVANCED_FACE('',(#51,#52,#53),#111,.T.);
#76=ADVANCED_FACE('',(#135),#112,.T.);
#77=ADVANCED_FACE('',(#136),#113,.F.);
#78=ADVANCED_FACE('',(#137),#114,.F.);
#79=ADVANCED_FACE('',(#138),#115,.F.);
#80=ADVANCED_FACE('',(#54,#55),#116,.F.);
#81=ADVANCED_FACE('',(#139),#117,.F.);
#82=ADVANCED_FACE('',(#140),#34,.F.);
#83=ADVANCED_FACE('',(#141),#118,.F.);
#84=ADVANCED_FACE('',(#142),#119,.F.);
#85=ADVANCED_FACE('',(#143),#120,.F.);
#86=ADVANCED_FACE('',(#144),#121,.F.);
#87=ADVANCED_FACE('',(#145),#122,.F.);
#88=ADVANCED_FACE('',(#146),#35,.F.);
#89=ADVANCED_FACE('',(#147),#36,.F.);
#90=ADVANCED_FACE('',(#148),#37,.F.);
#91=ADVANCED_FACE('',(#149),#38,.F.);
#92=ADVANCED_FACE('',(#150),#123,.F.);
#93=ADVANCED_FACE('',(#151),#124,.F.);
#94=ADVANCED_FACE('',(#152),#125,.F.);
#95=ADVANCED_FACE('',(#56,#57),#39,.F.);
#96=ADVANCED_FACE('',(#153),#126,.F.);
#97=ADVANCED_FACE('',(#58,#59),#40,.F.);
#98=ADVANCED_FACE('',(#154),#127,.F.);
#99=ADVANCED_FACE('',(#60,#61),#41,.F.);
#100=ADVANCED_FACE('',(#62,#63),#42,.F.);
#101=ADVANCED_FACE('',(#155),#128,.F.);
#102=ADVANCED_FACE('',(#64,#65),#43,.F.);
#103=ADVANCED_FACE('',(#66,#67),#44,.F.);
#104=ADVANCED_FACE('',(#156),#129,.F.);
#105=PLANE('',#659);
#106=PLANE('',#661);
#107=PLANE('',#671);
#108=PLANE('',#672);
#109=PLANE('',#673);
#110=PLANE('',#674);
#111=PLANE('',#677);
#112=PLANE('',#678);
#113=PLANE('',#679);
#114=PLANE('',#680);
#115=PLANE('',#681);
#116=PLANE('',#684);
#117=PLANE('',#685);
#118=PLANE('',#687);
#119=PLANE('',#688);
#120=PLANE('',#689);
#121=PLANE('',#694);
#122=PLANE('',#695);
#123=PLANE('',#700);
#124=PLANE('',#701);
#125=PLANE('',#702);
#126=PLANE('',#705);
#127=PLANE('',#708);
#128=PLANE('',#712);
#129=PLANE('',#716);
#130=FACE_OUTER_BOUND('',#157,.T.);
#131=FACE_OUTER_BOUND('',#158,.T.);
#132=FACE_OUTER_BOUND('',#165,.T.);
#133=FACE_OUTER_BOUND('',#166,.T.);
#134=FACE_OUTER_BOUND('',#167,.T.);
#135=FACE_OUTER_BOUND('',#171,.T.);
#136=FACE_OUTER_BOUND('',#172,.T.);
#137=FACE_OUTER_BOUND('',#173,.T.);
#138=FACE_OUTER_BOUND('',#174,.T.);
#139=FACE_OUTER_BOUND('',#177,.T.);
#140=FACE_OUTER_BOUND('',#178,.T.);
#141=FACE_OUTER_BOUND('',#179,.T.);
#142=FACE_OUTER_BOUND('',#180,.T.);
#143=FACE_OUTER_BOUND('',#181,.T.);
#144=FACE_OUTER_BOUND('',#182,.T.);
#145=FACE_OUTER_BOUND('',#183,.T.);
#146=FACE_OUTER_BOUND('',#184,.T.);
#147=FACE_OUTER_BOUND('',#185,.T.);
#148=FACE_OUTER_BOUND('',#186,.T.);
#149=FACE_OUTER_BOUND('',#187,.T.);
#150=FACE_OUTER_BOUND('',#188,.T.);
#151=FACE_OUTER_BOUND('',#189,.T.);
#152=FACE_OUTER_BOUND('',#190,.T.);
#153=FACE_OUTER_BOUND('',#193,.T.);
#154=FACE_OUTER_BOUND('',#196,.T.);
#155=FACE_OUTER_BOUND('',#201,.T.);
#156=FACE_OUTER_BOUND('',#206,.T.);
#157=EDGE_LOOP('',(#327,#328,#329,#330,#331,#332));
#158=EDGE_LOOP('',(#333,#334,#335,#336,#337,#338,#339));
#159=EDGE_LOOP('',(#340));
#160=EDGE_LOOP('',(#341));
#161=EDGE_LOOP('',(#342));
#162=EDGE_LOOP('',(#343));
#163=EDGE_LOOP('',(#344,#345,#346,#347,#348,#349,#350));
#164=EDGE_LOOP('',(#351,#352,#353,#354,#355,#356,#357,#358));
#165=EDGE_LOOP('',(#359,#360,#361,#362,#363));
#166=EDGE_LOOP('',(#364,#365,#366,#367,#368,#369,#370,#371,#372,#373));
#167=EDGE_LOOP('',(#374,#375,#376,#377,#378,#379));
#168=EDGE_LOOP('',(#380));
#169=EDGE_LOOP('',(#381));
#170=EDGE_LOOP('',(#382,#383,#384,#385));
#171=EDGE_LOOP('',(#386,#387,#388,#389,#390,#391,#392,#393,#394));
#172=EDGE_LOOP('',(#395,#396,#397,#398));
#173=EDGE_LOOP('',(#399,#400,#401,#402));
#174=EDGE_LOOP('',(#403,#404,#405,#406,#407));
#175=EDGE_LOOP('',(#408));
#176=EDGE_LOOP('',(#409,#410,#411,#412,#413));
#177=EDGE_LOOP('',(#414,#415,#416,#417));
#178=EDGE_LOOP('',(#418,#419,#420,#421));
#179=EDGE_LOOP('',(#422,#423,#424,#425));
#180=EDGE_LOOP('',(#426,#427,#428,#429));
#181=EDGE_LOOP('',(#430,#431,#432,#433));
#182=EDGE_LOOP('',(#434,#435,#436,#437,#438,#439,#440,#441));
#183=EDGE_LOOP('',(#442,#443,#444,#445));
#184=EDGE_LOOP('',(#446,#447,#448,#449));
#185=EDGE_LOOP('',(#450,#451,#452,#453));
#186=EDGE_LOOP('',(#454,#455,#456,#457));
#187=EDGE_LOOP('',(#458,#459,#460,#461));
#188=EDGE_LOOP('',(#462,#463,#464,#465,#466));
#189=EDGE_LOOP('',(#467,#468,#469,#470,#471));
#190=EDGE_LOOP('',(#472,#473,#474,#475));
#191=EDGE_LOOP('',(#476,#477));
#192=EDGE_LOOP('',(#478));
#193=EDGE_LOOP('',(#479));
#194=EDGE_LOOP('',(#480));
#195=EDGE_LOOP('',(#481));
#196=EDGE_LOOP('',(#482));
#197=EDGE_LOOP('',(#483));
#198=EDGE_LOOP('',(#484));
#199=EDGE_LOOP('',(#485));
#200=EDGE_LOOP('',(#486));
#201=EDGE_LOOP('',(#487));
#202=EDGE_LOOP('',(#488));
#203=EDGE_LOOP('',(#489));
#204=EDGE_LOOP('',(#490));
#205=EDGE_LOOP('',(#491));
#206=EDGE_LOOP('',(#492));
#207=LINE('',#901,#267);
#208=LINE('',#903,#268);
#209=LINE('',#905,#269);
#210=LINE('',#907,#270);
#211=LINE('',#909,#271);
#212=LINE('',#912,#272);
#213=LINE('',#914,#273);
#214=LINE('',#916,#274);
#215=LINE('',#918,#275);
#216=LINE('',#928,#276);
#217=LINE('',#931,#277);
#218=LINE('',#933,#278);
#219=LINE('',#935,#279);
#220=LINE('',#939,#280);
#221=LINE('',#941,#281);
#222=LINE('',#942,#282);
#223=LINE('',#947,#283);
#224=LINE('',#951,#284);
#225=LINE('',#955,#285);
#226=LINE('',#959,#286);
#227=LINE('',#961,#287);
#228=LINE('',#963,#288);
#229=LINE('',#965,#289);
#230=LINE('',#967,#290);
#231=LINE('',#969,#291);
#232=LINE('',#971,#292);
#233=LINE('',#973,#293);
#234=LINE('',#975,#294);
#235=LINE('',#977,#295);
#236=LINE('',#979,#296);
#237=LINE('',#981,#297);
#238=LINE('',#983,#298);
#239=LINE('',#985,#299);
#240=LINE('',#986,#300);
#241=LINE('',#988,#301);
#242=LINE('',#994,#302);
#243=LINE('',#996,#303);
#244=LINE('',#998,#304);
#245=LINE('',#999,#305);
#246=LINE('',#1001,#306);
#247=LINE('',#1004,#307);
#248=LINE('',#1005,#308);
#249=LINE('',#1007,#309);
#250=LINE('',#1009,#310);
#251=LINE('',#1015,#311);
#252=LINE('',#1017,#312);
#253=LINE('',#1020,#313);
#254=LINE('',#1023,#314);
#255=LINE('',#1024,#315);
#256=LINE('',#1026,#316);
#257=LINE('',#1028,#317);
#258=LINE('',#1030,#318);
#259=LINE('',#1032,#319);
#260=LINE('',#1034,#320);
#261=LINE('',#1036,#321);
#262=LINE('',#1041,#322);
#263=LINE('',#1046,#323);
#264=LINE('',#1047,#324);
#265=LINE('',#1053,#325);
#266=LINE('',#1055,#326);
#267=VECTOR('',#721,1.);
#268=VECTOR('',#722,1.);
#269=VECTOR('',#723,1.);
#270=VECTOR('',#724,1.);
#271=VECTOR('',#725,1.);
#272=VECTOR('',#730,1.);
#273=VECTOR('',#731,1.);
#274=VECTOR('',#732,1.);
#275=VECTOR('',#733,1.);
#276=VECTOR('',#744,1.);
#277=VECTOR('',#745,1.);
#278=VECTOR('',#746,1.);
#279=VECTOR('',#747,1.);
#280=VECTOR('',#750,1.);
#281=VECTOR('',#751,1.);
#282=VECTOR('',#752,1.);
#283=VECTOR('',#755,1.);
#284=VECTOR('',#758,1.);
#285=VECTOR('',#761,1.);
#286=VECTOR('',#766,1.);
#287=VECTOR('',#767,1.);
#288=VECTOR('',#768,1.);
#289=VECTOR('',#769,1.);
#290=VECTOR('',#772,1.);
#291=VECTOR('',#773,1.);
#292=VECTOR('',#774,1.);
#293=VECTOR('',#775,1.);
#294=VECTOR('',#776,1.);
#295=VECTOR('',#777,1.);
#296=VECTOR('',#778,1.);
#297=VECTOR('',#779,1.);
#298=VECTOR('',#782,1.);
#299=VECTOR('',#783,1.);
#300=VECTOR('',#784,1.);
#301=VECTOR('',#785,1.);
#302=VECTOR('',#792,1.);
#303=VECTOR('',#795,1.);
#304=VECTOR('',#796,1.);
#305=VECTOR('',#797,1.);
#306=VECTOR('',#798,1.);
#307=VECTOR('',#803,1.);
#308=VECTOR('',#804,1.);
#309=VECTOR('',#807,1.);
#310=VECTOR('',#808,1.);
#311=VECTOR('',#815,1.);
#312=VECTOR('',#818,1.);
#313=VECTOR('',#823,1.);
#314=VECTOR('',#824,1.);
#315=VECTOR('',#825,1.);
#316=VECTOR('',#828,1.);
#317=VECTOR('',#829,1.);
#318=VECTOR('',#830,1.);
#319=VECTOR('',#833,1.);
#320=VECTOR('',#834,1.);
#321=VECTOR('',#835,1.);
#322=VECTOR('',#842,1.);
#323=VECTOR('',#849,1.);
#324=VECTOR('',#850,1.);
#325=VECTOR('',#861,1.);
#326=VECTOR('',#864,1.);
#327=ORIENTED_EDGE('',*,*,#552,.F.);
#328=ORIENTED_EDGE('',*,*,#553,.T.);
#329=ORIENTED_EDGE('',*,*,#554,.T.);
#330=ORIENTED_EDGE('',*,*,#555,.F.);
#331=ORIENTED_EDGE('',*,*,#556,.F.);
#332=ORIENTED_EDGE('',*,*,#557,.T.);
#333=ORIENTED_EDGE('',*,*,#558,.F.);
#334=ORIENTED_EDGE('',*,*,#557,.F.);
#335=ORIENTED_EDGE('',*,*,#559,.F.);
#336=ORIENTED_EDGE('',*,*,#560,.F.);
#337=ORIENTED_EDGE('',*,*,#561,.F.);
#338=ORIENTED_EDGE('',*,*,#562,.F.);
#339=ORIENTED_EDGE('',*,*,#553,.F.);
#340=ORIENTED_EDGE('',*,*,#563,.F.);
#341=ORIENTED_EDGE('',*,*,#564,.F.);
#342=ORIENTED_EDGE('',*,*,#565,.F.);
#343=ORIENTED_EDGE('',*,*,#566,.F.);
#344=ORIENTED_EDGE('',*,*,#567,.F.);
#345=ORIENTED_EDGE('',*,*,#568,.F.);
#346=ORIENTED_EDGE('',*,*,#569,.F.);
#347=ORIENTED_EDGE('',*,*,#570,.F.);
#348=ORIENTED_EDGE('',*,*,#571,.T.);
#349=ORIENTED_EDGE('',*,*,#572,.F.);
#350=ORIENTED_EDGE('',*,*,#573,.T.);
#351=ORIENTED_EDGE('',*,*,#574,.F.);
#352=ORIENTED_EDGE('',*,*,#575,.T.);
#353=ORIENTED_EDGE('',*,*,#576,.F.);
#354=ORIENTED_EDGE('',*,*,#577,.T.);
#355=ORIENTED_EDGE('',*,*,#578,.F.);
#356=ORIENTED_EDGE('',*,*,#579,.T.);
#357=ORIENTED_EDGE('',*,*,#580,.F.);
#358=ORIENTED_EDGE('',*,*,#581,.T.);
#359=ORIENTED_EDGE('',*,*,#582,.T.);
#360=ORIENTED_EDGE('',*,*,#561,.T.);
#361=ORIENTED_EDGE('',*,*,#583,.F.);
#362=ORIENTED_EDGE('',*,*,#584,.T.);
#363=ORIENTED_EDGE('',*,*,#585,.T.);
#364=ORIENTED_EDGE('',*,*,#586,.F.);
#365=ORIENTED_EDGE('',*,*,#587,.F.);
#366=ORIENTED_EDGE('',*,*,#588,.F.);
#367=ORIENTED_EDGE('',*,*,#589,.T.);
#368=ORIENTED_EDGE('',*,*,#590,.F.);
#369=ORIENTED_EDGE('',*,*,#591,.F.);
#370=ORIENTED_EDGE('',*,*,#592,.F.);
#371=ORIENTED_EDGE('',*,*,#593,.T.);
#372=ORIENTED_EDGE('',*,*,#583,.T.);
#373=ORIENTED_EDGE('',*,*,#560,.T.);
#374=ORIENTED_EDGE('',*,*,#594,.F.);
#375=ORIENTED_EDGE('',*,*,#595,.T.);
#376=ORIENTED_EDGE('',*,*,#569,.T.);
#377=ORIENTED_EDGE('',*,*,#596,.F.);
#378=ORIENTED_EDGE('',*,*,#597,.T.);
#379=ORIENTED_EDGE('',*,*,#592,.T.);
#380=ORIENTED_EDGE('',*,*,#598,.F.);
#381=ORIENTED_EDGE('',*,*,#599,.F.);
#382=ORIENTED_EDGE('',*,*,#600,.F.);
#383=ORIENTED_EDGE('',*,*,#584,.F.);
#384=ORIENTED_EDGE('',*,*,#593,.F.);
#385=ORIENTED_EDGE('',*,*,#597,.F.);
#386=ORIENTED_EDGE('',*,*,#601,.F.);
#387=ORIENTED_EDGE('',*,*,#555,.T.);
#388=ORIENTED_EDGE('',*,*,#602,.T.);
#389=ORIENTED_EDGE('',*,*,#585,.F.);
#390=ORIENTED_EDGE('',*,*,#600,.T.);
#391=ORIENTED_EDGE('',*,*,#596,.T.);
#392=ORIENTED_EDGE('',*,*,#568,.T.);
#393=ORIENTED_EDGE('',*,*,#603,.F.);
#394=ORIENTED_EDGE('',*,*,#604,.F.);
#395=ORIENTED_EDGE('',*,*,#554,.F.);
#396=ORIENTED_EDGE('',*,*,#562,.T.);
#397=ORIENTED_EDGE('',*,*,#582,.F.);
#398=ORIENTED_EDGE('',*,*,#602,.F.);
#399=ORIENTED_EDGE('',*,*,#605,.F.);
#400=ORIENTED_EDGE('',*,*,#573,.F.);
#401=ORIENTED_EDGE('',*,*,#606,.F.);
#402=ORIENTED_EDGE('',*,*,#589,.F.);
#403=ORIENTED_EDGE('',*,*,#572,.T.);
#404=ORIENTED_EDGE('',*,*,#607,.T.);
#405=ORIENTED_EDGE('',*,*,#608,.T.);
#406=ORIENTED_EDGE('',*,*,#590,.T.);
#407=ORIENTED_EDGE('',*,*,#606,.T.);
#408=ORIENTED_EDGE('',*,*,#609,.T.);
#409=ORIENTED_EDGE('',*,*,#608,.F.);
#410=ORIENTED_EDGE('',*,*,#610,.T.);
#411=ORIENTED_EDGE('',*,*,#611,.F.);
#412=ORIENTED_EDGE('',*,*,#594,.T.);
#413=ORIENTED_EDGE('',*,*,#591,.T.);
#414=ORIENTED_EDGE('',*,*,#611,.T.);
#415=ORIENTED_EDGE('',*,*,#612,.T.);
#416=ORIENTED_EDGE('',*,*,#570,.T.);
#417=ORIENTED_EDGE('',*,*,#595,.F.);
#418=ORIENTED_EDGE('',*,*,#571,.F.);
#419=ORIENTED_EDGE('',*,*,#612,.F.);
#420=ORIENTED_EDGE('',*,*,#610,.F.);
#421=ORIENTED_EDGE('',*,*,#607,.F.);
#422=ORIENTED_EDGE('',*,*,#613,.T.);
#423=ORIENTED_EDGE('',*,*,#614,.T.);
#424=ORIENTED_EDGE('',*,*,#574,.T.);
#425=ORIENTED_EDGE('',*,*,#615,.T.);
#426=ORIENTED_EDGE('',*,*,#576,.T.);
#427=ORIENTED_EDGE('',*,*,#616,.T.);
#428=ORIENTED_EDGE('',*,*,#617,.T.);
#429=ORIENTED_EDGE('',*,*,#618,.T.);
#430=ORIENTED_EDGE('',*,*,#578,.T.);
#431=ORIENTED_EDGE('',*,*,#619,.T.);
#432=ORIENTED_EDGE('',*,*,#620,.T.);
#433=ORIENTED_EDGE('',*,*,#621,.T.);
#434=ORIENTED_EDGE('',*,*,#617,.F.);
#435=ORIENTED_EDGE('',*,*,#622,.T.);
#436=ORIENTED_EDGE('',*,*,#613,.F.);
#437=ORIENTED_EDGE('',*,*,#623,.T.);
#438=ORIENTED_EDGE('',*,*,#624,.F.);
#439=ORIENTED_EDGE('',*,*,#625,.T.);
#440=ORIENTED_EDGE('',*,*,#620,.F.);
#441=ORIENTED_EDGE('',*,*,#626,.T.);
#442=ORIENTED_EDGE('',*,*,#624,.T.);
#443=ORIENTED_EDGE('',*,*,#627,.T.);
#444=ORIENTED_EDGE('',*,*,#580,.T.);
#445=ORIENTED_EDGE('',*,*,#628,.T.);
#446=ORIENTED_EDGE('',*,*,#575,.F.);
#447=ORIENTED_EDGE('',*,*,#614,.F.);
#448=ORIENTED_EDGE('',*,*,#622,.F.);
#449=ORIENTED_EDGE('',*,*,#616,.F.);
#450=ORIENTED_EDGE('',*,*,#581,.F.);
#451=ORIENTED_EDGE('',*,*,#627,.F.);
#452=ORIENTED_EDGE('',*,*,#623,.F.);
#453=ORIENTED_EDGE('',*,*,#615,.F.);
#454=ORIENTED_EDGE('',*,*,#577,.F.);
#455=ORIENTED_EDGE('',*,*,#618,.F.);
#456=ORIENTED_EDGE('',*,*,#626,.F.);
#457=ORIENTED_EDGE('',*,*,#619,.F.);
#458=ORIENTED_EDGE('',*,*,#579,.F.);
#459=ORIENTED_EDGE('',*,*,#621,.F.);
#460=ORIENTED_EDGE('',*,*,#625,.F.);
#461=ORIENTED_EDGE('',*,*,#628,.F.);
#462=ORIENTED_EDGE('',*,*,#601,.T.);
#463=ORIENTED_EDGE('',*,*,#629,.T.);
#464=ORIENTED_EDGE('',*,*,#586,.T.);
#465=ORIENTED_EDGE('',*,*,#559,.T.);
#466=ORIENTED_EDGE('',*,*,#556,.T.);
#467=ORIENTED_EDGE('',*,*,#603,.T.);
#468=ORIENTED_EDGE('',*,*,#567,.T.);
#469=ORIENTED_EDGE('',*,*,#605,.T.);
#470=ORIENTED_EDGE('',*,*,#588,.T.);
#471=ORIENTED_EDGE('',*,*,#630,.T.);
#472=ORIENTED_EDGE('',*,*,#587,.T.);
#473=ORIENTED_EDGE('',*,*,#629,.F.);
#474=ORIENTED_EDGE('',*,*,#604,.T.);
#475=ORIENTED_EDGE('',*,*,#630,.F.);
#476=ORIENTED_EDGE('',*,*,#552,.T.);
#477=ORIENTED_EDGE('',*,*,#558,.T.);
#478=ORIENTED_EDGE('',*,*,#599,.T.);
#479=ORIENTED_EDGE('',*,*,#631,.F.);
#480=ORIENTED_EDGE('',*,*,#566,.T.);
#481=ORIENTED_EDGE('',*,*,#631,.T.);
#482=ORIENTED_EDGE('',*,*,#632,.F.);
#483=ORIENTED_EDGE('',*,*,#565,.T.);
#484=ORIENTED_EDGE('',*,*,#632,.T.);
#485=ORIENTED_EDGE('',*,*,#564,.T.);
#486=ORIENTED_EDGE('',*,*,#598,.T.);
#487=ORIENTED_EDGE('',*,*,#633,.F.);
#488=ORIENTED_EDGE('',*,*,#563,.T.);
#489=ORIENTED_EDGE('',*,*,#633,.T.);
#490=ORIENTED_EDGE('',*,*,#634,.T.);
#491=ORIENTED_EDGE('',*,*,#609,.F.);
#492=ORIENTED_EDGE('',*,*,#634,.F.);
#493=VERTEX_POINT('',#899);
#494=VERTEX_POINT('',#900);
#495=VERTEX_POINT('',#902);
#496=VERTEX_POINT('',#904);
#497=VERTEX_POINT('',#906);
#498=VERTEX_POINT('',#908);
#499=VERTEX_POINT('',#913);
#500=VERTEX_POINT('',#915);
#501=VERTEX_POINT('',#917);
#502=VERTEX_POINT('',#921);
#503=VERTEX_POINT('',#923);
#504=VERTEX_POINT('',#925);
#505=VERTEX_POINT('',#927);
#506=VERTEX_POINT('',#929);
#507=VERTEX_POINT('',#930);
#508=VERTEX_POINT('',#932);
#509=VERTEX_POINT('',#934);
#510=VERTEX_POINT('',#936);
#511=VERTEX_POINT('',#938);
#512=VERTEX_POINT('',#940);
#513=VERTEX_POINT('',#943);
#514=VERTEX_POINT('',#944);
#515=VERTEX_POINT('',#946);
#516=VERTEX_POINT('',#948);
#517=VERTEX_POINT('',#950);
#518=VERTEX_POINT('',#952);
#519=VERTEX_POINT('',#954);
#520=VERTEX_POINT('',#956);
#521=VERTEX_POINT('',#960);
#522=VERTEX_POINT('',#962);
#523=VERTEX_POINT('',#964);
#524=VERTEX_POINT('',#968);
#525=VERTEX_POINT('',#970);
#526=VERTEX_POINT('',#972);
#527=VERTEX_POINT('',#974);
#528=VERTEX_POINT('',#976);
#529=VERTEX_POINT('',#978);
#530=VERTEX_POINT('',#980);
#531=VERTEX_POINT('',#984);
#532=VERTEX_POINT('',#987);
#533=VERTEX_POINT('',#991);
#534=VERTEX_POINT('',#993);
#535=VERTEX_POINT('',#997);
#536=VERTEX_POINT('',#1000);
#537=VERTEX_POINT('',#1008);
#538=VERTEX_POINT('',#1012);
#539=VERTEX_POINT('',#1014);
#540=VERTEX_POINT('',#1021);
#541=VERTEX_POINT('',#1022);
#542=VERTEX_POINT('',#1027);
#543=VERTEX_POINT('',#1029);
#544=VERTEX_POINT('',#1033);
#545=VERTEX_POINT('',#1035);
#546=VERTEX_POINT('',#1040);
#547=VERTEX_POINT('',#1042);
#548=VERTEX_POINT('',#1060);
#549=VERTEX_POINT('',#1064);
#550=VERTEX_POINT('',#1069);
#551=VERTEX_POINT('',#1073);
#552=EDGE_CURVE('',#493,#494,#635,.T.);
#553=EDGE_CURVE('',#493,#495,#207,.T.);
#554=EDGE_CURVE('',#495,#496,#208,.T.);
#555=EDGE_CURVE('',#497,#496,#209,.T.);
#556=EDGE_CURVE('',#498,#497,#210,.T.);
#557=EDGE_CURVE('',#498,#494,#211,.T.);
#558=EDGE_CURVE('',#494,#493,#68,.T.);
#559=EDGE_CURVE('',#499,#498,#212,.T.);
#560=EDGE_CURVE('',#500,#499,#213,.T.);
#561=EDGE_CURVE('',#501,#500,#214,.T.);
#562=EDGE_CURVE('',#495,#501,#215,.T.);
#563=EDGE_CURVE('',#502,#502,#636,.T.);
#564=EDGE_CURVE('',#503,#503,#637,.T.);
#565=EDGE_CURVE('',#504,#504,#638,.T.);
#566=EDGE_CURVE('',#505,#505,#639,.T.);
#567=EDGE_CURVE('',#506,#507,#216,.T.);
#568=EDGE_CURVE('',#508,#506,#217,.T.);
#569=EDGE_CURVE('',#509,#508,#218,.T.);
#570=EDGE_CURVE('',#510,#509,#219,.T.);
#571=EDGE_CURVE('',#510,#511,#640,.T.);
#572=EDGE_CURVE('',#512,#511,#220,.T.);
#573=EDGE_CURVE('',#512,#507,#221,.T.);
#574=EDGE_CURVE('',#513,#514,#222,.T.);
#575=EDGE_CURVE('',#513,#515,#641,.T.);
#576=EDGE_CURVE('',#516,#515,#223,.T.);
#577=EDGE_CURVE('',#516,#517,#642,.T.);
#578=EDGE_CURVE('',#518,#517,#224,.T.);
#579=EDGE_CURVE('',#518,#519,#643,.T.);
#580=EDGE_CURVE('',#520,#519,#225,.T.);
#581=EDGE_CURVE('',#520,#514,#644,.T.);
#582=EDGE_CURVE('',#521,#501,#226,.T.);
#583=EDGE_CURVE('',#522,#500,#227,.T.);
#584=EDGE_CURVE('',#522,#523,#228,.T.);
#585=EDGE_CURVE('',#523,#521,#229,.T.);
#586=EDGE_CURVE('',#524,#499,#230,.T.);
#587=EDGE_CURVE('',#525,#524,#231,.T.);
#588=EDGE_CURVE('',#526,#525,#232,.T.);
#589=EDGE_CURVE('',#526,#527,#233,.T.);
#590=EDGE_CURVE('',#528,#527,#234,.T.);
#591=EDGE_CURVE('',#529,#528,#235,.T.);
#592=EDGE_CURVE('',#530,#529,#236,.T.);
#593=EDGE_CURVE('',#530,#522,#237,.T.);
#594=EDGE_CURVE('',#531,#529,#238,.T.);
#595=EDGE_CURVE('',#531,#509,#239,.T.);
#596=EDGE_CURVE('',#532,#508,#240,.T.);
#597=EDGE_CURVE('',#532,#530,#241,.T.);
#598=EDGE_CURVE('',#533,#533,#645,.T.);
#599=EDGE_CURVE('',#534,#534,#646,.T.);
#600=EDGE_CURVE('',#523,#532,#242,.T.);
#601=EDGE_CURVE('',#497,#535,#243,.T.);
#602=EDGE_CURVE('',#496,#521,#244,.T.);
#603=EDGE_CURVE('',#536,#506,#245,.T.);
#604=EDGE_CURVE('',#535,#536,#246,.T.);
#605=EDGE_CURVE('',#507,#526,#247,.T.);
#606=EDGE_CURVE('',#527,#512,#248,.T.);
#607=EDGE_CURVE('',#511,#537,#249,.T.);
#608=EDGE_CURVE('',#537,#528,#250,.T.);
#609=EDGE_CURVE('',#538,#538,#647,.T.);
#610=EDGE_CURVE('',#537,#539,#648,.T.);
#611=EDGE_CURVE('',#531,#539,#251,.T.);
#612=EDGE_CURVE('',#539,#510,#252,.T.);
#613=EDGE_CURVE('',#540,#541,#253,.T.);
#614=EDGE_CURVE('',#541,#513,#254,.T.);
#615=EDGE_CURVE('',#514,#540,#255,.T.);
#616=EDGE_CURVE('',#515,#542,#256,.T.);
#617=EDGE_CURVE('',#542,#543,#257,.T.);
#618=EDGE_CURVE('',#543,#516,#258,.T.);
#619=EDGE_CURVE('',#517,#544,#259,.T.);
#620=EDGE_CURVE('',#544,#545,#260,.T.);
#621=EDGE_CURVE('',#545,#518,#261,.T.);
#622=EDGE_CURVE('',#542,#541,#649,.T.);
#623=EDGE_CURVE('',#540,#546,#650,.T.);
#624=EDGE_CURVE('',#547,#546,#262,.T.);
#625=EDGE_CURVE('',#547,#545,#651,.T.);
#626=EDGE_CURVE('',#544,#543,#652,.T.);
#627=EDGE_CURVE('',#546,#520,#263,.T.);
#628=EDGE_CURVE('',#519,#547,#264,.T.);
#629=EDGE_CURVE('',#535,#524,#265,.T.);
#630=EDGE_CURVE('',#525,#536,#266,.T.);
#631=EDGE_CURVE('',#548,#548,#653,.T.);
#632=EDGE_CURVE('',#549,#549,#654,.T.);
#633=EDGE_CURVE('',#550,#550,#655,.T.);
#634=EDGE_CURVE('',#551,#551,#656,.T.);
#635=CIRCLE('',#658,4.6);
#636=CIRCLE('',#662,9.1);
#637=CIRCLE('',#663,9.8);
#638=CIRCLE('',#664,5.6);
#639=CIRCLE('',#665,6.);
#640=CIRCLE('',#666,6.8);
#641=CIRCLE('',#667,5.4);
#642=CIRCLE('',#668,5.4);
#643=CIRCLE('',#669,5.4);
#644=CIRCLE('',#670,5.4);
#645=CIRCLE('',#675,9.8);
#646=CIRCLE('',#676,4.6);
#647=CIRCLE('',#682,9.55);
#648=CIRCLE('',#683,6.8);
#649=CIRCLE('',#690,5.4);
#650=CIRCLE('',#691,5.4);
#651=CIRCLE('',#692,5.4);
#652=CIRCLE('',#693,5.4);
#653=CIRCLE('',#704,6.);
#654=CIRCLE('',#707,5.6);
#655=CIRCLE('',#711,9.1);
#656=CIRCLE('',#714,9.55);
#657=AXIS2_PLACEMENT_3D('',#897,#717,#718);
#658=AXIS2_PLACEMENT_3D('',#898,#719,#720);
#659=AXIS2_PLACEMENT_3D('',#910,#726,#727);
#660=AXIS2_PLACEMENT_3D('',#911,#728,#729);
#661=AXIS2_PLACEMENT_3D('',#919,#734,#735);
#662=AXIS2_PLACEMENT_3D('',#920,#736,#737);
#663=AXIS2_PLACEMENT_3D('',#922,#738,#739);
#664=AXIS2_PLACEMENT_3D('',#924,#740,#741);
#665=AXIS2_PLACEMENT_3D('',#926,#742,#743);
#666=AXIS2_PLACEMENT_3D('',#937,#748,#749);
#667=AXIS2_PLACEMENT_3D('',#945,#753,#754);
#668=AXIS2_PLACEMENT_3D('',#949,#756,#757);
#669=AXIS2_PLACEMENT_3D('',#953,#759,#760);
#670=AXIS2_PLACEMENT_3D('',#957,#762,#763);
#671=AXIS2_PLACEMENT_3D('',#958,#764,#765);
#672=AXIS2_PLACEMENT_3D('',#966,#770,#771);
#673=AXIS2_PLACEMENT_3D('',#982,#780,#781);
#674=AXIS2_PLACEMENT_3D('',#989,#786,#787);
#675=AXIS2_PLACEMENT_3D('',#990,#788,#789);
#676=AXIS2_PLACEMENT_3D('',#992,#790,#791);
#677=AXIS2_PLACEMENT_3D('',#995,#793,#794);
#678=AXIS2_PLACEMENT_3D('',#1002,#799,#800);
#679=AXIS2_PLACEMENT_3D('',#1003,#801,#802);
#680=AXIS2_PLACEMENT_3D('',#1006,#805,#806);
#681=AXIS2_PLACEMENT_3D('',#1010,#809,#810);
#682=AXIS2_PLACEMENT_3D('',#1011,#811,#812);
#683=AXIS2_PLACEMENT_3D('',#1013,#813,#814);
#684=AXIS2_PLACEMENT_3D('',#1016,#816,#817);
#685=AXIS2_PLACEMENT_3D('',#1018,#819,#820);
#686=AXIS2_PLACEMENT_3D('',#1019,#821,#822);
#687=AXIS2_PLACEMENT_3D('',#1025,#826,#827);
#688=AXIS2_PLACEMENT_3D('',#1031,#831,#832);
#689=AXIS2_PLACEMENT_3D('',#1037,#836,#837);
#690=AXIS2_PLACEMENT_3D('',#1038,#838,#839);
#691=AXIS2_PLACEMENT_3D('',#1039,#840,#841);
#692=AXIS2_PLACEMENT_3D('',#1043,#843,#844);
#693=AXIS2_PLACEMENT_3D('',#1044,#845,#846);
#694=AXIS2_PLACEMENT_3D('',#1045,#847,#848);
#695=AXIS2_PLACEMENT_3D('',#1048,#851,#852);
#696=AXIS2_PLACEMENT_3D('',#1049,#853,#854);
#697=AXIS2_PLACEMENT_3D('',#1050,#855,#856);
#698=AXIS2_PLACEMENT_3D('',#1051,#857,#858);
#699=AXIS2_PLACEMENT_3D('',#1052,#859,#860);
#700=AXIS2_PLACEMENT_3D('',#1054,#862,#863);
#701=AXIS2_PLACEMENT_3D('',#1056,#865,#866);
#702=AXIS2_PLACEMENT_3D('',#1057,#867,#868);
#703=AXIS2_PLACEMENT_3D('',#1058,#869,#870);
#704=AXIS2_PLACEMENT_3D('',#1059,#871,#872);
#705=AXIS2_PLACEMENT_3D('',#1061,#873,#874);
#706=AXIS2_PLACEMENT_3D('',#1062,#875,#876);
#707=AXIS2_PLACEMENT_3D('',#1063,#877,#878);
#708=AXIS2_PLACEMENT_3D('',#1065,#879,#880);
#709=AXIS2_PLACEMENT_3D('',#1066,#881,#882);
#710=AXIS2_PLACEMENT_3D('',#1067,#883,#884);
#711=AXIS2_PLACEMENT_3D('',#1068,#885,#886);
#712=AXIS2_PLACEMENT_3D('',#1070,#887,#888);
#713=AXIS2_PLACEMENT_3D('',#1071,#889,#890);
#714=AXIS2_PLACEMENT_3D('',#1072,#891,#892);
#715=AXIS2_PLACEMENT_3D('',#1074,#893,#894);
#716=AXIS2_PLACEMENT_3D('',#1075,#895,#896);
#717=DIRECTION('',(0.,0.,1.));
#718=DIRECTION('',(1.,0.,0.));
#719=DIRECTION('',(0.,0.,1.));
#720=DIRECTION('',(1.,0.,0.));
#721=DIRECTION('',(0.,-1.,0.));
#722=DIRECTION('',(1.,0.,0.));
#723=DIRECTION('',(0.,-1.,0.));
#724=DIRECTION('',(1.,0.,0.));
#725=DIRECTION('',(0.,-1.,0.));
#726=DIRECTION('',(0.,0.,1.));
#727=DIRECTION('',(1.,0.,0.));
#728=DIRECTION('',(-0.707106781186548,0.,0.707106781186548));
#729=DIRECTION('',(-0.707106781186548,0.,-0.707106781186548));
#730=DIRECTION('',(0.707106781186548,0.,0.707106781186548));
#731=DIRECTION('',(0.,1.,0.));
#732=DIRECTION('',(-0.707106781186548,0.,-0.707106781186548));
#733=DIRECTION('',(-0.577350269189626,-0.577350269189626,-0.577350269189626));
#734=DIRECTION('',(0.707106781186547,0.,-0.707106781186547));
#735=DIRECTION('',(0.,1.,0.));
#736=DIRECTION('',(0.,0.,1.));
#737=DIRECTION('',(1.,0.,0.));
#738=DIRECTION('',(0.,0.,1.));
#739=DIRECTION('',(0.999999999999997,0.,0.));
#740=DIRECTION('',(0.,0.,1.));
#741=DIRECTION('',(0.999999999999999,0.,0.));
#742=DIRECTION('',(0.,0.,1.));
#743=DIRECTION('',(1.,0.,0.));
#744=DIRECTION('',(-1.,0.,0.));
#745=DIRECTION('',(0.,-1.,0.));
#746=DIRECTION('',(1.,0.,0.));
#747=DIRECTION('',(0.,1.,0.));
#748=DIRECTION('',(0.,0.,-1.));
#749=DIRECTION('',(1.,0.,0.));
#750=DIRECTION('',(1.,0.,0.));
#751=DIRECTION('',(0.,-1.,0.));
#752=DIRECTION('',(1.,0.,0.));
#753=DIRECTION('',(0.,0.,-1.));
#754=DIRECTION('',(0.999999999999998,0.,0.));
#755=DIRECTION('',(0.,-1.,0.));
#756=DIRECTION('',(0.,0.,-1.));
#757=DIRECTION('',(0.999999999999998,0.,0.));
#758=DIRECTION('',(-1.,0.,0.));
#759=DIRECTION('',(0.,0.,-1.));
#760=DIRECTION('',(1.,0.,0.));
#761=DIRECTION('',(0.,1.,0.));
#762=DIRECTION('',(0.,0.,-1.));
#763=DIRECTION('',(1.,0.,0.));
#764=DIRECTION('',(0.,0.,1.));
#765=DIRECTION('',(1.,0.,0.));
#766=DIRECTION('',(-1.,0.,0.));
#767=DIRECTION('',(0.,0.,1.));
#768=DIRECTION('',(1.,0.,0.));
#769=DIRECTION('',(0.,0.,1.));
#770=DIRECTION('',(0.,-1.,0.));
#771=DIRECTION('',(0.,0.,-1.));
#772=DIRECTION('',(0.,0.,1.));
#773=DIRECTION('',(0.,-1.,0.));
#774=DIRECTION('',(0.,0.,-1.));
#775=DIRECTION('',(0.,1.,0.));
#776=DIRECTION('',(0.,0.,1.));
#777=DIRECTION('',(0.,-1.,0.));
#778=DIRECTION('',(0.,0.,1.));
#779=DIRECTION('',(0.,-1.,0.));
#780=DIRECTION('',(-1.,0.,0.));
#781=DIRECTION('',(0.,0.,1.));
#782=DIRECTION('',(-1.,0.,0.));
#783=DIRECTION('',(0.,0.,1.));
#784=DIRECTION('',(0.,0.,1.));
#785=DIRECTION('',(-1.,0.,0.));
#786=DIRECTION('',(0.,1.,0.));
#787=DIRECTION('',(0.,0.,1.));
#788=DIRECTION('',(0.,0.,-1.));
#789=DIRECTION('',(-0.999999999999997,0.,0.));
#790=DIRECTION('',(0.,0.,-1.));
#791=DIRECTION('',(-1.,0.,0.));
#792=DIRECTION('',(0.,1.,0.));
#793=DIRECTION('',(0.,0.,-1.));
#794=DIRECTION('',(-1.,0.,0.));
#795=DIRECTION('',(0.,0.,-1.));
#796=DIRECTION('',(0.,-0.707106781186548,-0.707106781186548));
#797=DIRECTION('',(0.,0.,1.));
#798=DIRECTION('',(0.,1.,0.));
#799=DIRECTION('',(1.,0.,0.));
#800=DIRECTION('',(0.,0.,-1.));
#801=DIRECTION('',(0.,0.707106781186548,-0.707106781186548));
#802=DIRECTION('',(-1.,0.,0.));
#803=DIRECTION('',(-0.707106781186548,0.,-0.707106781186548));
#804=DIRECTION('',(0.707106781186548,0.,0.707106781186548));
#805=DIRECTION('',(0.707106781186547,0.,-0.707106781186547));
#806=DIRECTION('',(0.,1.,0.));
#807=DIRECTION('',(0.,0.,-1.));
#808=DIRECTION('',(-1.,0.,0.));
#809=DIRECTION('',(0.,-1.,0.));
#810=DIRECTION('',(0.,0.,-1.));
#811=DIRECTION('',(0.,0.,-1.));
#812=DIRECTION('',(-1.,0.,0.));
#813=DIRECTION('',(0.,0.,1.));
#814=DIRECTION('',(-1.,0.,0.));
#815=DIRECTION('',(0.,-1.,0.));
#816=DIRECTION('',(0.,0.,-1.));
#817=DIRECTION('',(-1.,0.,0.));
#818=DIRECTION('',(0.,0.,1.));
#819=DIRECTION('',(1.,0.,0.));
#820=DIRECTION('',(0.,0.,-1.));
#821=DIRECTION('',(0.,0.,1.));
#822=DIRECTION('',(1.,0.,0.));
#823=DIRECTION('',(-1.,0.,0.));
#824=DIRECTION('',(0.,0.,1.));
#825=DIRECTION('',(0.,0.,-1.));
#826=DIRECTION('',(0.,-1.,0.));
#827=DIRECTION('',(0.,0.,-1.));
#828=DIRECTION('',(0.,0.,-1.));
#829=DIRECTION('',(0.,1.,0.));
#830=DIRECTION('',(0.,0.,1.));
#831=DIRECTION('',(-1.,0.,0.));
#832=DIRECTION('',(0.,0.,1.));
#833=DIRECTION('',(0.,0.,-1.));
#834=DIRECTION('',(1.,0.,0.));
#835=DIRECTION('',(0.,0.,1.));
#836=DIRECTION('',(0.,1.,0.));
#837=DIRECTION('',(0.,0.,1.));
#838=DIRECTION('',(0.,0.,1.));
#839=DIRECTION('',(-0.999999999999998,0.,0.));
#840=DIRECTION('',(0.,0.,1.));
#841=DIRECTION('',(-1.,0.,0.));
#842=DIRECTION('',(0.,-1.,0.));
#843=DIRECTION('',(0.,0.,1.));
#844=DIRECTION('',(-1.,0.,0.));
#845=DIRECTION('',(0.,0.,1.));
#846=DIRECTION('',(-0.999999999999998,0.,0.));
#847=DIRECTION('',(0.,0.,-1.));
#848=DIRECTION('',(-1.,0.,0.));
#849=DIRECTION('',(0.,0.,1.));
#850=DIRECTION('',(0.,0.,-1.));
#851=DIRECTION('',(1.,0.,0.));
#852=DIRECTION('',(0.,0.,-1.));
#853=DIRECTION('',(0.,0.,1.));
#854=DIRECTION('',(0.999999999999998,0.,0.));
#855=DIRECTION('',(0.,0.,1.));
#856=DIRECTION('',(1.,0.,0.));
#857=DIRECTION('',(0.,0.,1.));
#858=DIRECTION('',(0.999999999999998,0.,0.));
#859=DIRECTION('',(0.,0.,1.));
#860=DIRECTION('',(1.,0.,0.));
#861=DIRECTION('',(-1.,0.,0.));
#862=DIRECTION('',(0.,-1.,0.));
#863=DIRECTION('',(0.,0.,-1.));
#864=DIRECTION('',(1.,0.,0.));
#865=DIRECTION('',(0.,1.,0.));
#866=DIRECTION('',(0.,0.,1.));
#867=DIRECTION('',(0.,0.,-1.));
#868=DIRECTION('',(-1.,0.,0.));
#869=DIRECTION('',(0.,0.,-1.));
#870=DIRECTION('',(1.,0.,0.));
#871=DIRECTION('',(0.,0.,-1.));
#872=DIRECTION('',(1.,0.,0.));
#873=DIRECTION('',(0.,0.,-1.));
#874=DIRECTION('',(-1.,0.,0.));
#875=DIRECTION('',(0.,0.,-1.));
#876=DIRECTION('',(1.,0.,0.));
#877=DIRECTION('',(0.,0.,-1.));
#878=DIRECTION('',(0.999999999999999,0.,0.));
#879=DIRECTION('',(0.,0.,-1.));
#880=DIRECTION('',(-1.,0.,0.));
#881=DIRECTION('',(0.,0.,-1.));
#882=DIRECTION('',(0.999999999999999,0.,0.));
#883=DIRECTION('',(0.,0.,-1.));
#884=DIRECTION('',(0.999999999999997,0.,0.));
#885=DIRECTION('',(0.,0.,-1.));
#886=DIRECTION('',(1.,0.,0.));
#887=DIRECTION('',(0.,0.,-1.));
#888=DIRECTION('',(-1.,0.,0.));
#889=DIRECTION('',(0.,0.,-1.));
#890=DIRECTION('',(1.,0.,0.));
#891=DIRECTION('',(0.,0.,-1.));
#892=DIRECTION('',(1.,0.,0.));
#893=DIRECTION('',(0.,0.,-1.));
#894=DIRECTION('',(1.,0.,0.));
#895=DIRECTION('',(0.,0.,-1.));
#896=DIRECTION('',(-1.,0.,0.));
#897=CARTESIAN_POINT('',(0.,0.,0.));
#898=CARTESIAN_POINT('',(10.8,20.9,72.));
#899=CARTESIAN_POINT('',(6.8,18.6284366616799,72.));
#900=CARTESIAN_POINT('',(6.8,23.1715633383201,72.));
#901=CARTESIAN_POINT('',(6.8,143.9,72.));
#902=CARTESIAN_POINT('',(6.8,2.3,72.));
#903=CARTESIAN_POINT('',(247.3,2.3,72.));
#904=CARTESIAN_POINT('',(494.6,2.3,72.));
#905=CARTESIAN_POINT('',(494.6,143.9,72.));
#906=CARTESIAN_POINT('',(494.6,32.3,72.));
#907=CARTESIAN_POINT('',(247.3,32.3,72.));
#908=CARTESIAN_POINT('',(6.8,32.3,72.));
#909=CARTESIAN_POINT('',(6.8,143.9,72.));
#910=CARTESIAN_POINT('',(247.3,143.9,72.));
#911=CARTESIAN_POINT('',(10.8,20.9,76.));
#912=CARTESIAN_POINT('',(0.,32.3,65.2));
#913=CARTESIAN_POINT('',(0.,32.3,65.2));
#914=CARTESIAN_POINT('',(0.,143.9,65.2));
#915=CARTESIAN_POINT('',(0.,0.,65.2));
#916=CARTESIAN_POINT('',(91.05,0.,156.25));
#917=CARTESIAN_POINT('',(4.5,0.,69.7));
#918=CARTESIAN_POINT('',(85.4333333333334,80.9333333333333,150.633333333333));
#919=CARTESIAN_POINT('',(0.,143.9,65.2));
#920=CARTESIAN_POINT('',(417.,274.7,72.));
#921=CARTESIAN_POINT('',(426.1,274.7,72.));
#922=CARTESIAN_POINT('',(480.8,205.6,72.));
#923=CARTESIAN_POINT('',(490.6,205.6,72.));
#924=CARTESIAN_POINT('',(108.1,95.2,72.));
#925=CARTESIAN_POINT('',(113.7,95.2,72.));
#926=CARTESIAN_POINT('',(209.9,70.3,72.));
#927=CARTESIAN_POINT('',(215.9,70.3,72.));
#928=CARTESIAN_POINT('',(247.3,54.8,72.));
#929=CARTESIAN_POINT('',(494.6,54.8,72.));
#930=CARTESIAN_POINT('',(6.8,54.8,72.));
#931=CARTESIAN_POINT('',(494.6,143.9,72.));
#932=CARTESIAN_POINT('',(494.6,287.8,72.));
#933=CARTESIAN_POINT('',(247.3,287.8,72.));
#934=CARTESIAN_POINT('',(109.9,287.8,72.));
#935=CARTESIAN_POINT('',(109.9,143.9,72.));
#936=CARTESIAN_POINT('',(109.9,210.8,72.));
#937=CARTESIAN_POINT('',(103.1,210.8,72.));
#938=CARTESIAN_POINT('',(103.1,204.,72.));
#939=CARTESIAN_POINT('',(247.3,204.,72.));
#940=CARTESIAN_POINT('',(6.8,204.,72.));
#941=CARTESIAN_POINT('',(6.8,143.9,72.));
#942=CARTESIAN_POINT('',(247.3,89.4,72.));
#943=CARTESIAN_POINT('',(198.6,89.4,72.));
#944=CARTESIAN_POINT('',(392.6,89.4,72.));
#945=CARTESIAN_POINT('',(198.6,94.8,72.));
#946=CARTESIAN_POINT('',(193.2,94.8,72.));
#947=CARTESIAN_POINT('',(193.2,143.9,72.));
#948=CARTESIAN_POINT('',(193.2,185.5,72.));
#949=CARTESIAN_POINT('',(198.6,185.5,72.));
#950=CARTESIAN_POINT('',(198.6,190.9,72.));
#951=CARTESIAN_POINT('',(247.3,190.9,72.));
#952=CARTESIAN_POINT('',(392.6,190.9,72.));
#953=CARTESIAN_POINT('',(392.6,185.5,72.));
#954=CARTESIAN_POINT('',(398.,185.5,72.));
#955=CARTESIAN_POINT('',(398.,143.9,72.));
#956=CARTESIAN_POINT('',(398.,94.8,72.));
#957=CARTESIAN_POINT('',(392.6,94.8,72.));
#958=CARTESIAN_POINT('',(247.3,143.9,72.));
#959=CARTESIAN_POINT('',(247.3,0.,69.7));
#960=CARTESIAN_POINT('',(494.6,0.,69.7));
#961=CARTESIAN_POINT('',(0.,0.,0.));
#962=CARTESIAN_POINT('',(0.,0.,0.));
#963=CARTESIAN_POINT('',(247.3,0.,0.));
#964=CARTESIAN_POINT('',(494.6,0.,0.));
#965=CARTESIAN_POINT('',(494.6,0.,0.));
#966=CARTESIAN_POINT('',(247.3,0.,0.));
#967=CARTESIAN_POINT('',(0.,32.3,0.));
#968=CARTESIAN_POINT('',(0.,32.3,63.1));
#969=CARTESIAN_POINT('',(0.,143.9,63.1));
#970=CARTESIAN_POINT('',(0.,54.8,63.1));
#971=CARTESIAN_POINT('',(0.,54.8,0.));
#972=CARTESIAN_POINT('',(0.,54.8,65.2));
#973=CARTESIAN_POINT('',(0.,143.9,65.2));
#974=CARTESIAN_POINT('',(0.,204.,65.2));
#975=CARTESIAN_POINT('',(0.,204.,55.4));
#976=CARTESIAN_POINT('',(0.,204.,55.4));
#977=CARTESIAN_POINT('',(0.,245.9,55.4));
#978=CARTESIAN_POINT('',(0.,287.8,55.4));
#979=CARTESIAN_POINT('',(0.,287.8,0.));
#980=CARTESIAN_POINT('',(0.,287.8,0.));
#981=CARTESIAN_POINT('',(0.,143.9,0.));
#982=CARTESIAN_POINT('',(0.,143.9,0.));
#983=CARTESIAN_POINT('',(54.95,287.8,55.4));
#984=CARTESIAN_POINT('',(109.9,287.8,55.4));
#985=CARTESIAN_POINT('',(109.9,287.8,55.4));
#986=CARTESIAN_POINT('',(494.6,287.8,0.));
#987=CARTESIAN_POINT('',(494.6,287.8,0.));
#988=CARTESIAN_POINT('',(247.3,287.8,0.));
#989=CARTESIAN_POINT('',(247.3,287.8,0.));
#990=CARTESIAN_POINT('',(480.8,205.6,0.));
#991=CARTESIAN_POINT('',(471.,205.6,0.));
#992=CARTESIAN_POINT('',(10.8,20.9,0.));
#993=CARTESIAN_POINT('',(6.2,20.9,0.));
#994=CARTESIAN_POINT('',(494.6,143.9,0.));
#995=CARTESIAN_POINT('',(247.3,143.9,0.));
#996=CARTESIAN_POINT('',(494.6,32.3,0.));
#997=CARTESIAN_POINT('',(494.6,32.3,63.1));
#998=CARTESIAN_POINT('',(494.6,37.1,106.8));
#999=CARTESIAN_POINT('',(494.6,54.8,0.));
#1000=CARTESIAN_POINT('',(494.6,54.8,63.1));
#1001=CARTESIAN_POINT('',(494.6,143.9,63.1));
#1002=CARTESIAN_POINT('',(494.6,143.9,0.));
#1003=CARTESIAN_POINT('',(247.3,0.,69.7));
#1004=CARTESIAN_POINT('',(0.,54.8,65.2));
#1005=CARTESIAN_POINT('',(0.,204.,65.2));
#1006=CARTESIAN_POINT('',(0.,143.9,65.2));
#1007=CARTESIAN_POINT('',(103.1,204.,55.4));
#1008=CARTESIAN_POINT('',(103.1,204.,55.4));
#1009=CARTESIAN_POINT('',(54.95,204.,55.4));
#1010=CARTESIAN_POINT('',(54.95,204.,55.4));
#1011=CARTESIAN_POINT('',(13.6,250.7,55.4));
#1012=CARTESIAN_POINT('',(4.05,250.7,55.4));
#1013=CARTESIAN_POINT('',(103.1,210.8,55.4));
#1014=CARTESIAN_POINT('',(109.9,210.8,55.4));
#1015=CARTESIAN_POINT('',(109.9,245.9,55.4));
#1016=CARTESIAN_POINT('',(54.95,245.9,55.4));
#1017=CARTESIAN_POINT('',(109.9,210.8,72.));
#1018=CARTESIAN_POINT('',(109.9,245.9,55.4));
#1019=CARTESIAN_POINT('',(103.1,210.8,55.4));
#1020=CARTESIAN_POINT('',(295.6,89.4,47.8));
#1021=CARTESIAN_POINT('',(392.6,89.4,47.8));
#1022=CARTESIAN_POINT('',(198.6,89.4,47.8));
#1023=CARTESIAN_POINT('',(198.6,89.4,72.));
#1024=CARTESIAN_POINT('',(392.6,89.4,47.8));
#1025=CARTESIAN_POINT('',(295.6,89.4,47.8));
#1026=CARTESIAN_POINT('',(193.2,94.8,47.8));
#1027=CARTESIAN_POINT('',(193.2,94.8,47.8));
#1028=CARTESIAN_POINT('',(193.2,140.15,47.8));
#1029=CARTESIAN_POINT('',(193.2,185.5,47.8));
#1030=CARTESIAN_POINT('',(193.2,185.5,72.));
#1031=CARTESIAN_POINT('',(193.2,140.15,47.8));
#1032=CARTESIAN_POINT('',(198.6,190.9,47.8));
#1033=CARTESIAN_POINT('',(198.6,190.9,47.8));
#1034=CARTESIAN_POINT('',(295.6,190.9,47.8));
#1035=CARTESIAN_POINT('',(392.6,190.9,47.8));
#1036=CARTESIAN_POINT('',(392.6,190.9,72.));
#1037=CARTESIAN_POINT('',(295.6,190.9,47.8));
#1038=CARTESIAN_POINT('',(198.6,94.8,47.8));
#1039=CARTESIAN_POINT('',(392.6,94.8,47.8));
#1040=CARTESIAN_POINT('',(398.,94.8,47.8));
#1041=CARTESIAN_POINT('',(398.,140.15,47.8));
#1042=CARTESIAN_POINT('',(398.,185.5,47.8));
#1043=CARTESIAN_POINT('',(392.6,185.5,47.8));
#1044=CARTESIAN_POINT('',(198.6,185.5,47.8));
#1045=CARTESIAN_POINT('',(295.6,140.15,47.8));
#1046=CARTESIAN_POINT('',(398.,94.8,72.));
#1047=CARTESIAN_POINT('',(398.,185.5,47.8));
#1048=CARTESIAN_POINT('',(398.,140.15,47.8));
#1049=CARTESIAN_POINT('',(198.6,94.8,47.8));
#1050=CARTESIAN_POINT('',(392.6,94.8,47.8));
#1051=CARTESIAN_POINT('',(198.6,185.5,47.8));
#1052=CARTESIAN_POINT('',(392.6,185.5,47.8));
#1053=CARTESIAN_POINT('',(247.3,32.3,63.1));
#1054=CARTESIAN_POINT('',(247.3,32.3,63.1));
#1055=CARTESIAN_POINT('',(247.3,54.8,63.1));
#1056=CARTESIAN_POINT('',(247.3,54.8,63.1));
#1057=CARTESIAN_POINT('',(247.3,43.55,63.1));
#1058=CARTESIAN_POINT('',(10.8,20.9,72.05));
#1059=CARTESIAN_POINT('',(209.9,70.3,52.9));
#1060=CARTESIAN_POINT('',(215.9,70.3,52.9));
#1061=CARTESIAN_POINT('',(209.9,70.3,52.9));
#1062=CARTESIAN_POINT('',(209.9,70.3,72.05));
#1063=CARTESIAN_POINT('',(108.1,95.2,24.));
#1064=CARTESIAN_POINT('',(113.7,95.2,24.));
#1065=CARTESIAN_POINT('',(108.1,95.2,24.));
#1066=CARTESIAN_POINT('',(108.1,95.2,72.05));
#1067=CARTESIAN_POINT('',(480.8,205.6,72.05));
#1068=CARTESIAN_POINT('',(417.,274.7,36.8));
#1069=CARTESIAN_POINT('',(426.1,274.7,36.8));
#1070=CARTESIAN_POINT('',(417.,274.7,36.8));
#1071=CARTESIAN_POINT('',(417.,274.7,72.05));
#1072=CARTESIAN_POINT('',(13.6,250.7,31.));
#1073=CARTESIAN_POINT('',(23.15,250.7,31.));
#1074=CARTESIAN_POINT('',(13.6,250.7,72.05));
#1075=CARTESIAN_POINT('',(13.6,250.7,31.));
#1076=MECHANICAL_DESIGN_GEOMETRIC_PRESENTATION_REPRESENTATION('',(#24),
#1077);
#1077=(
GEOMETRIC_REPRESENTATION_CONTEXT(3)
GLOBAL_UNCERTAINTY_ASSIGNED_CONTEXT((#1078))
GLOBAL_UNIT_ASSIGNED_CONTEXT((#1084,#1080,#1079))
REPRESENTATION_CONTEXT('featured_part_02508','TOP_LEVEL_ASSEMBLY_PART')
);
#1078=UNCERTAINTY_MEASURE_WITH_UNIT(LENGTH_MEASURE(2.E-5),#1084,
'DISTANCE_ACCURACY_VALUE','Maximum Tolerance applied to model');
#1079=(
NAMED_UNIT(*)
SI_UNIT($,.STERADIAN.)
SOLID_ANGLE_UNIT()
);
#1080=(
CONVERSION_BASED_UNIT('DEGREE',#1082)
NAMED_UNIT(#1081)
PLANE_ANGLE_UNIT()
);
#1081=DIMENSIONAL_EXPONENTS(0.,0.,0.,0.,0.,0.,0.);
#1082=PLANE_ANGLE_MEASURE_WITH_UNIT(PLANE_ANGLE_MEASURE(0.0174532925),#1083);
#1083=(
NAMED_UNIT(*)
PLANE_ANGLE_UNIT()
SI_UNIT($,.RADIAN.)
);
#1084=(
LENGTH_UNIT()
NAMED_UNIT(*)
SI_UNIT(.MILLI.,.METRE.)
);
ENDSEC;
END-ISO-10303-21;
