ISO-10303-21;
HEADER;
/* Generated by software containing ST-Developer
 * from STEP Tools, Inc. (www.steptools.com) 
 */
/* OPTION: using custom schema-name function */

FILE_DESCRIPTION(
/* description */ (''),
/* implementation_level */ '2;1');

FILE_NAME(
/* name */ 'featured_part_11416.stp',
/* time_stamp */ '2026-07-15T21:46:15-04:00',
/* author */ (''),
/* organization */ (''),
/* preprocessor_version */ 'ST-DEVELOPER v20.1',
/* originating_system */ 'SIEMENS PLM Software NX2512.6002',
/* authorisation */ '');

FILE_SCHEMA (('AUTOMOTIVE_DESIGN { 1 0 10303 214 3 1 1 1 }'));
ENDSEC;

DATA;
#10=SHAPE_REPRESENTATION_RELATIONSHIP('None',
'relationship between featured_part_11416-None and featured_part_11416
-None',#22,#11);
#11=ADVANCED_BREP_SHAPE_REPRESENTATION('featured_part_11416-None',(#32),
#502);
#12=SHAPE_DEFINITION_REPRESENTATION(#13,#22);
#13=PRODUCT_DEFINITION_SHAPE('','',#14);
#14=PRODUCT_DEFINITION(' ','',#16,#15);
#15=PRODUCT_DEFINITION_CONTEXT('part definition',#21,'design');
#16=PRODUCT_DEFINITION_FORMATION_WITH_SPECIFIED_SOURCE(' ',' ',#18,
 .NOT_KNOWN.);
#17=PRODUCT_RELATED_PRODUCT_CATEGORY('part','',(#18));
#18=PRODUCT('featured_part_11416','featured_part_11416',' ',(#19));
#19=PRODUCT_CONTEXT(' ',#21,'mechanical');
#20=APPLICATION_PROTOCOL_DEFINITION('international standard',
'automotive_design',2010,#21);
#21=APPLICATION_CONTEXT(
'core data for automotive mechanical design processes');
#22=SHAPE_REPRESENTATION('featured_part_11416-None',(#306),#502);
#23=PRESENTATION_LAYER_ASSIGNMENT('1','Layer 1',(#32));
#24=STYLED_ITEM('',(#25),#32);
#25=PRESENTATION_STYLE_ASSIGNMENT((#26));
#26=SURFACE_STYLE_USAGE(.BOTH.,#27);
#27=SURFACE_SIDE_STYLE('',(#28));
#28=SURFACE_STYLE_FILL_AREA(#29);
#29=FILL_AREA_STYLE('',(#30));
#30=FILL_AREA_STYLE_COLOUR('',#31);
#31=COLOUR_RGB('medium steel',0.611764705882353,0.658823529411765,0.670588235294118);
#32=MANIFOLD_SOLID_BREP('',#33);
#33=CLOSED_SHELL('',(#52,#53,#54,#55,#56,#57,#58,#59,#60,#61,#62,#63,#64,
#65,#66,#67,#68,#69,#70));
#34=CYLINDRICAL_SURFACE('',#325,9.25);
#35=CYLINDRICAL_SURFACE('',#328,5.);
#36=CYLINDRICAL_SURFACE('',#329,9.25);
#37=CYLINDRICAL_SURFACE('',#332,9.45);
#38=CYLINDRICAL_SURFACE('',#335,5.05);
#39=CYLINDRICAL_SURFACE('',#338,3.45);
#40=ELLIPSE('',#320,13.0814754519511,9.25);
#41=FACE_OUTER_BOUND('',#148,.T.);
#42=FACE_OUTER_BOUND('',#149,.T.);
#43=FACE_OUTER_BOUND('',#150,.T.);
#44=FACE_OUTER_BOUND('',#153,.T.);
#45=FACE_OUTER_BOUND('',#154,.T.);
#46=FACE_OUTER_BOUND('',#155,.T.);
#47=FACE_OUTER_BOUND('',#156,.T.);
#48=FACE_OUTER_BOUND('',#159,.T.);
#49=FACE_OUTER_BOUND('',#164,.T.);
#50=FACE_OUTER_BOUND('',#167,.T.);
#51=FACE_OUTER_BOUND('',#170,.T.);
#52=ADVANCED_FACE('',(#122,#123,#124,#125,#126,#127),#71,.T.);
#53=ADVANCED_FACE('',(#41),#72,.T.);
#54=ADVANCED_FACE('',(#42),#73,.T.);
#55=ADVANCED_FACE('',(#43),#74,.T.);
#56=ADVANCED_FACE('',(#128,#129),#75,.T.);
#57=ADVANCED_FACE('',(#44),#76,.T.);
#58=ADVANCED_FACE('',(#45),#77,.F.);
#59=ADVANCED_FACE('',(#46),#78,.F.);
#60=ADVANCED_FACE('',(#47),#79,.F.);
#61=ADVANCED_FACE('',(#130,#131),#34,.F.);
#62=ADVANCED_FACE('',(#48),#80,.F.);
#63=ADVANCED_FACE('',(#132,#133),#35,.F.);
#64=ADVANCED_FACE('',(#134,#135),#36,.F.);
#65=ADVANCED_FACE('',(#49),#81,.F.);
#66=ADVANCED_FACE('',(#136,#137),#37,.F.);
#67=ADVANCED_FACE('',(#50),#82,.F.);
#68=ADVANCED_FACE('',(#138,#139),#38,.F.);
#69=ADVANCED_FACE('',(#51),#83,.F.);
#70=ADVANCED_FACE('',(#140,#141),#39,.F.);
#71=PLANE('',#313);
#72=PLANE('',#314);
#73=PLANE('',#315);
#74=PLANE('',#316);
#75=PLANE('',#318);
#76=PLANE('',#319);
#77=PLANE('',#321);
#78=PLANE('',#322);
#79=PLANE('',#324);
#80=PLANE('',#327);
#81=PLANE('',#331);
#82=PLANE('',#334);
#83=PLANE('',#337);
#84=LINE('',#434,#103);
#85=LINE('',#436,#104);
#86=LINE('',#438,#105);
#87=LINE('',#440,#106);
#88=LINE('',#442,#107);
#89=LINE('',#448,#108);
#90=LINE('',#451,#109);
#91=LINE('',#452,#110);
#92=LINE('',#454,#111);
#93=LINE('',#456,#112);
#94=LINE('',#458,#113);
#95=LINE('',#460,#114);
#96=LINE('',#462,#115);
#97=LINE('',#464,#116);
#98=LINE('',#466,#117);
#99=LINE('',#468,#118);
#100=LINE('',#469,#119);
#101=LINE('',#473,#120);
#102=LINE('',#475,#121);
#103=VECTOR('',#349,1.);
#104=VECTOR('',#350,1.);
#105=VECTOR('',#351,1.);
#106=VECTOR('',#352,1.);
#107=VECTOR('',#353,1.);
#108=VECTOR('',#360,1.);
#109=VECTOR('',#361,1.);
#110=VECTOR('',#362,1.);
#111=VECTOR('',#363,1.);
#112=VECTOR('',#364,1.);
#113=VECTOR('',#367,1.);
#114=VECTOR('',#368,1.);
#115=VECTOR('',#369,1.);
#116=VECTOR('',#372,1.);
#117=VECTOR('',#373,1.);
#118=VECTOR('',#374,1.);
#119=VECTOR('',#375,1.);
#120=VECTOR('',#380,1.);
#121=VECTOR('',#383,1.);
#122=FACE_BOUND('',#142,.T.);
#123=FACE_BOUND('',#143,.T.);
#124=FACE_BOUND('',#144,.T.);
#125=FACE_BOUND('',#145,.T.);
#126=FACE_BOUND('',#146,.T.);
#127=FACE_BOUND('',#147,.T.);
#128=FACE_BOUND('',#151,.T.);
#129=FACE_BOUND('',#152,.T.);
#130=FACE_BOUND('',#157,.T.);
#131=FACE_BOUND('',#158,.T.);
#132=FACE_BOUND('',#160,.T.);
#133=FACE_BOUND('',#161,.T.);
#134=FACE_BOUND('',#162,.T.);
#135=FACE_BOUND('',#163,.T.);
#136=FACE_BOUND('',#165,.T.);
#137=FACE_BOUND('',#166,.T.);
#138=FACE_BOUND('',#168,.T.);
#139=FACE_BOUND('',#169,.T.);
#140=FACE_BOUND('',#171,.T.);
#141=FACE_BOUND('',#172,.T.);
#142=EDGE_LOOP('',(#173));
#143=EDGE_LOOP('',(#174));
#144=EDGE_LOOP('',(#175));
#145=EDGE_LOOP('',(#176,#177,#178,#179,#180,#181));
#146=EDGE_LOOP('',(#182));
#147=EDGE_LOOP('',(#183));
#148=EDGE_LOOP('',(#184,#185,#186,#187,#188,#189));
#149=EDGE_LOOP('',(#190,#191,#192,#193));
#150=EDGE_LOOP('',(#194,#195,#196,#197,#198,#199));
#151=EDGE_LOOP('',(#200));
#152=EDGE_LOOP('',(#201,#202,#203,#204));
#153=EDGE_LOOP('',(#205,#206,#207,#208));
#154=EDGE_LOOP('',(#209,#210,#211,#212,#213,#214));
#155=EDGE_LOOP('',(#215,#216,#217,#218));
#156=EDGE_LOOP('',(#219));
#157=EDGE_LOOP('',(#220));
#158=EDGE_LOOP('',(#221));
#159=EDGE_LOOP('',(#222));
#160=EDGE_LOOP('',(#223));
#161=EDGE_LOOP('',(#224));
#162=EDGE_LOOP('',(#225));
#163=EDGE_LOOP('',(#226,#227));
#164=EDGE_LOOP('',(#228));
#165=EDGE_LOOP('',(#229));
#166=EDGE_LOOP('',(#230));
#167=EDGE_LOOP('',(#231));
#168=EDGE_LOOP('',(#232));
#169=EDGE_LOOP('',(#233));
#170=EDGE_LOOP('',(#234));
#171=EDGE_LOOP('',(#235));
#172=EDGE_LOOP('',(#236));
#173=ORIENTED_EDGE('',*,*,#262,.F.);
#174=ORIENTED_EDGE('',*,*,#263,.F.);
#175=ORIENTED_EDGE('',*,*,#264,.F.);
#176=ORIENTED_EDGE('',*,*,#265,.F.);
#177=ORIENTED_EDGE('',*,*,#266,.T.);
#178=ORIENTED_EDGE('',*,*,#267,.F.);
#179=ORIENTED_EDGE('',*,*,#268,.T.);
#180=ORIENTED_EDGE('',*,*,#269,.F.);
#181=ORIENTED_EDGE('',*,*,#270,.T.);
#182=ORIENTED_EDGE('',*,*,#271,.F.);
#183=ORIENTED_EDGE('',*,*,#272,.F.);
#184=ORIENTED_EDGE('',*,*,#273,.T.);
#185=ORIENTED_EDGE('',*,*,#274,.T.);
#186=ORIENTED_EDGE('',*,*,#267,.T.);
#187=ORIENTED_EDGE('',*,*,#275,.T.);
#188=ORIENTED_EDGE('',*,*,#276,.F.);
#189=ORIENTED_EDGE('',*,*,#277,.T.);
#190=ORIENTED_EDGE('',*,*,#276,.T.);
#191=ORIENTED_EDGE('',*,*,#278,.T.);
#192=ORIENTED_EDGE('',*,*,#279,.F.);
#193=ORIENTED_EDGE('',*,*,#280,.T.);
#194=ORIENTED_EDGE('',*,*,#269,.T.);
#195=ORIENTED_EDGE('',*,*,#281,.T.);
#196=ORIENTED_EDGE('',*,*,#282,.F.);
#197=ORIENTED_EDGE('',*,*,#283,.T.);
#198=ORIENTED_EDGE('',*,*,#279,.T.);
#199=ORIENTED_EDGE('',*,*,#284,.T.);
#200=ORIENTED_EDGE('',*,*,#285,.F.);
#201=ORIENTED_EDGE('',*,*,#286,.F.);
#202=ORIENTED_EDGE('',*,*,#277,.F.);
#203=ORIENTED_EDGE('',*,*,#280,.F.);
#204=ORIENTED_EDGE('',*,*,#283,.F.);
#205=ORIENTED_EDGE('',*,*,#282,.T.);
#206=ORIENTED_EDGE('',*,*,#287,.T.);
#207=ORIENTED_EDGE('',*,*,#273,.F.);
#208=ORIENTED_EDGE('',*,*,#286,.T.);
#209=ORIENTED_EDGE('',*,*,#288,.F.);
#210=ORIENTED_EDGE('',*,*,#270,.F.);
#211=ORIENTED_EDGE('',*,*,#284,.F.);
#212=ORIENTED_EDGE('',*,*,#278,.F.);
#213=ORIENTED_EDGE('',*,*,#275,.F.);
#214=ORIENTED_EDGE('',*,*,#266,.F.);
#215=ORIENTED_EDGE('',*,*,#281,.F.);
#216=ORIENTED_EDGE('',*,*,#268,.F.);
#217=ORIENTED_EDGE('',*,*,#274,.F.);
#218=ORIENTED_EDGE('',*,*,#287,.F.);
#219=ORIENTED_EDGE('',*,*,#289,.F.);
#220=ORIENTED_EDGE('',*,*,#272,.T.);
#221=ORIENTED_EDGE('',*,*,#289,.T.);
#222=ORIENTED_EDGE('',*,*,#290,.F.);
#223=ORIENTED_EDGE('',*,*,#271,.T.);
#224=ORIENTED_EDGE('',*,*,#290,.T.);
#225=ORIENTED_EDGE('',*,*,#285,.T.);
#226=ORIENTED_EDGE('',*,*,#265,.T.);
#227=ORIENTED_EDGE('',*,*,#288,.T.);
#228=ORIENTED_EDGE('',*,*,#291,.F.);
#229=ORIENTED_EDGE('',*,*,#264,.T.);
#230=ORIENTED_EDGE('',*,*,#291,.T.);
#231=ORIENTED_EDGE('',*,*,#292,.F.);
#232=ORIENTED_EDGE('',*,*,#263,.T.);
#233=ORIENTED_EDGE('',*,*,#292,.T.);
#234=ORIENTED_EDGE('',*,*,#293,.F.);
#235=ORIENTED_EDGE('',*,*,#262,.T.);
#236=ORIENTED_EDGE('',*,*,#293,.T.);
#237=VERTEX_POINT('',#426);
#238=VERTEX_POINT('',#428);
#239=VERTEX_POINT('',#430);
#240=VERTEX_POINT('',#432);
#241=VERTEX_POINT('',#433);
#242=VERTEX_POINT('',#435);
#243=VERTEX_POINT('',#437);
#244=VERTEX_POINT('',#439);
#245=VERTEX_POINT('',#441);
#246=VERTEX_POINT('',#444);
#247=VERTEX_POINT('',#446);
#248=VERTEX_POINT('',#449);
#249=VERTEX_POINT('',#450);
#250=VERTEX_POINT('',#453);
#251=VERTEX_POINT('',#455);
#252=VERTEX_POINT('',#459);
#253=VERTEX_POINT('',#461);
#254=VERTEX_POINT('',#465);
#255=VERTEX_POINT('',#467);
#256=VERTEX_POINT('',#472);
#257=VERTEX_POINT('',#481);
#258=VERTEX_POINT('',#485);
#259=VERTEX_POINT('',#490);
#260=VERTEX_POINT('',#494);
#261=VERTEX_POINT('',#498);
#262=EDGE_CURVE('',#237,#237,#294,.T.);
#263=EDGE_CURVE('',#238,#238,#295,.T.);
#264=EDGE_CURVE('',#239,#239,#296,.T.);
#265=EDGE_CURVE('',#240,#241,#297,.T.);
#266=EDGE_CURVE('',#240,#242,#84,.T.);
#267=EDGE_CURVE('',#243,#242,#85,.T.);
#268=EDGE_CURVE('',#243,#244,#86,.T.);
#269=EDGE_CURVE('',#245,#244,#87,.T.);
#270=EDGE_CURVE('',#245,#241,#88,.T.);
#271=EDGE_CURVE('',#246,#246,#298,.T.);
#272=EDGE_CURVE('',#247,#247,#299,.T.);
#273=EDGE_CURVE('',#248,#249,#89,.T.);
#274=EDGE_CURVE('',#249,#243,#90,.T.);
#275=EDGE_CURVE('',#242,#250,#91,.T.);
#276=EDGE_CURVE('',#251,#250,#92,.T.);
#277=EDGE_CURVE('',#251,#248,#93,.T.);
#278=EDGE_CURVE('',#250,#252,#94,.T.);
#279=EDGE_CURVE('',#253,#252,#95,.T.);
#280=EDGE_CURVE('',#253,#251,#96,.T.);
#281=EDGE_CURVE('',#244,#254,#97,.T.);
#282=EDGE_CURVE('',#255,#254,#98,.T.);
#283=EDGE_CURVE('',#255,#253,#99,.T.);
#284=EDGE_CURVE('',#252,#245,#100,.T.);
#285=EDGE_CURVE('',#256,#256,#300,.T.);
#286=EDGE_CURVE('',#248,#255,#101,.T.);
#287=EDGE_CURVE('',#254,#249,#102,.T.);
#288=EDGE_CURVE('',#241,#240,#40,.T.);
#289=EDGE_CURVE('',#257,#257,#301,.T.);
#290=EDGE_CURVE('',#258,#258,#302,.T.);
#291=EDGE_CURVE('',#259,#259,#303,.T.);
#292=EDGE_CURVE('',#260,#260,#304,.T.);
#293=EDGE_CURVE('',#261,#261,#305,.T.);
#294=CIRCLE('',#307,3.45);
#295=CIRCLE('',#308,5.05);
#296=CIRCLE('',#309,9.45);
#297=CIRCLE('',#310,9.25);
#298=CIRCLE('',#311,5.);
#299=CIRCLE('',#312,9.25);
#300=CIRCLE('',#317,9.25);
#301=CIRCLE('',#323,9.25);
#302=CIRCLE('',#326,5.);
#303=CIRCLE('',#330,9.45);
#304=CIRCLE('',#333,5.05);
#305=CIRCLE('',#336,3.45);
#306=AXIS2_PLACEMENT_3D('',#424,#339,#340);
#307=AXIS2_PLACEMENT_3D('',#425,#341,#342);
#308=AXIS2_PLACEMENT_3D('',#427,#343,#344);
#309=AXIS2_PLACEMENT_3D('',#429,#345,#346);
#310=AXIS2_PLACEMENT_3D('',#431,#347,#348);
#311=AXIS2_PLACEMENT_3D('',#443,#354,#355);
#312=AXIS2_PLACEMENT_3D('',#445,#356,#357);
#313=AXIS2_PLACEMENT_3D('',#447,#358,#359);
#314=AXIS2_PLACEMENT_3D('',#457,#365,#366);
#315=AXIS2_PLACEMENT_3D('',#463,#370,#371);
#316=AXIS2_PLACEMENT_3D('',#470,#376,#377);
#317=AXIS2_PLACEMENT_3D('',#471,#378,#379);
#318=AXIS2_PLACEMENT_3D('',#474,#381,#382);
#319=AXIS2_PLACEMENT_3D('',#476,#384,#385);
#320=AXIS2_PLACEMENT_3D('',#477,#386,#387);
#321=AXIS2_PLACEMENT_3D('',#478,#388,#389);
#322=AXIS2_PLACEMENT_3D('',#479,#390,#391);
#323=AXIS2_PLACEMENT_3D('',#480,#392,#393);
#324=AXIS2_PLACEMENT_3D('',#482,#394,#395);
#325=AXIS2_PLACEMENT_3D('',#483,#396,#397);
#326=AXIS2_PLACEMENT_3D('',#484,#398,#399);
#327=AXIS2_PLACEMENT_3D('',#486,#400,#401);
#328=AXIS2_PLACEMENT_3D('',#487,#402,#403);
#329=AXIS2_PLACEMENT_3D('',#488,#404,#405);
#330=AXIS2_PLACEMENT_3D('',#489,#406,#407);
#331=AXIS2_PLACEMENT_3D('',#491,#408,#409);
#332=AXIS2_PLACEMENT_3D('',#492,#410,#411);
#333=AXIS2_PLACEMENT_3D('',#493,#412,#413);
#334=AXIS2_PLACEMENT_3D('',#495,#414,#415);
#335=AXIS2_PLACEMENT_3D('',#496,#416,#417);
#336=AXIS2_PLACEMENT_3D('',#497,#418,#419);
#337=AXIS2_PLACEMENT_3D('',#499,#420,#421);
#338=AXIS2_PLACEMENT_3D('',#500,#422,#423);
#339=DIRECTION('',(0.,0.,1.));
#340=DIRECTION('',(1.,0.,0.));
#341=DIRECTION('',(0.,0.,1.));
#342=DIRECTION('',(1.,0.,0.));
#343=DIRECTION('',(0.,0.,1.));
#344=DIRECTION('',(1.,0.,0.));
#345=DIRECTION('',(0.,0.,1.));
#346=DIRECTION('',(1.,0.,0.));
#347=DIRECTION('',(0.,0.,1.));
#348=DIRECTION('',(1.,0.,0.));
#349=DIRECTION('',(0.,-1.,0.));
#350=DIRECTION('',(-1.,0.,0.));
#351=DIRECTION('',(0.,1.,0.));
#352=DIRECTION('',(1.,0.,0.));
#353=DIRECTION('',(0.,-1.,0.));
#354=DIRECTION('',(0.,0.,1.));
#355=DIRECTION('',(1.,0.,0.));
#356=DIRECTION('',(0.,0.,1.));
#357=DIRECTION('',(0.999999999999999,0.,0.));
#358=DIRECTION('',(0.,0.,1.));
#359=DIRECTION('',(1.,0.,0.));
#360=DIRECTION('',(0.,0.,1.));
#361=DIRECTION('',(-0.707106781186548,0.,0.707106781186548));
#362=DIRECTION('',(-0.707106781186548,0.,-0.707106781186548));
#363=DIRECTION('',(0.,0.,1.));
#364=DIRECTION('',(1.,0.,0.));
#365=DIRECTION('',(0.,-1.,0.));
#366=DIRECTION('',(0.,0.,-1.));
#367=DIRECTION('',(0.,1.,0.));
#368=DIRECTION('',(0.,0.,1.));
#369=DIRECTION('',(0.,-1.,0.));
#370=DIRECTION('',(-1.,0.,0.));
#371=DIRECTION('',(0.,0.,1.));
#372=DIRECTION('',(0.707106781186548,0.,-0.707106781186548));
#373=DIRECTION('',(0.,0.,1.));
#374=DIRECTION('',(-1.,0.,0.));
#375=DIRECTION('',(0.707106781186548,0.,0.707106781186548));
#376=DIRECTION('',(0.,1.,0.));
#377=DIRECTION('',(0.,0.,1.));
#378=DIRECTION('',(0.,0.,-1.));
#379=DIRECTION('',(-1.,0.,0.));
#380=DIRECTION('',(0.,1.,0.));
#381=DIRECTION('',(0.,0.,-1.));
#382=DIRECTION('',(-1.,0.,0.));
#383=DIRECTION('',(0.,-1.,0.));
#384=DIRECTION('',(1.,0.,0.));
#385=DIRECTION('',(0.,0.,-1.));
#386=DIRECTION('',(-0.707106781186548,0.,0.707106781186548));
#387=DIRECTION('',(-0.707106781186548,0.,-0.707106781186548));
#388=DIRECTION('',(0.707106781186548,0.,-0.707106781186548));
#389=DIRECTION('',(0.,1.,0.));
#390=DIRECTION('',(-0.707106781186547,0.,-0.707106781186547));
#391=DIRECTION('',(0.,-1.,0.));
#392=DIRECTION('',(0.,0.,-1.));
#393=DIRECTION('',(0.999999999999999,0.,0.));
#394=DIRECTION('',(0.,0.,-1.));
#395=DIRECTION('',(-1.,0.,0.));
#396=DIRECTION('',(0.,0.,-1.));
#397=DIRECTION('',(0.999999999999999,0.,0.));
#398=DIRECTION('',(0.,0.,-1.));
#399=DIRECTION('',(1.,0.,0.));
#400=DIRECTION('',(0.,0.,-1.));
#401=DIRECTION('',(-1.,0.,0.));
#402=DIRECTION('',(0.,0.,-1.));
#403=DIRECTION('',(1.,0.,0.));
#404=DIRECTION('',(0.,0.,-1.));
#405=DIRECTION('',(1.,0.,0.));
#406=DIRECTION('',(0.,0.,-1.));
#407=DIRECTION('',(1.,0.,0.));
#408=DIRECTION('',(0.,0.,-1.));
#409=DIRECTION('',(-1.,0.,0.));
#410=DIRECTION('',(0.,0.,-1.));
#411=DIRECTION('',(1.,0.,0.));
#412=DIRECTION('',(0.,0.,-1.));
#413=DIRECTION('',(1.,0.,0.));
#414=DIRECTION('',(0.,0.,-1.));
#415=DIRECTION('',(-1.,0.,0.));
#416=DIRECTION('',(0.,0.,-1.));
#417=DIRECTION('',(1.,0.,0.));
#418=DIRECTION('',(0.,0.,-1.));
#419=DIRECTION('',(1.,0.,0.));
#420=DIRECTION('',(0.,0.,-1.));
#421=DIRECTION('',(-1.,0.,0.));
#422=DIRECTION('',(0.,0.,-1.));
#423=DIRECTION('',(1.,0.,0.));
#424=CARTESIAN_POINT('',(0.,0.,0.));
#425=CARTESIAN_POINT('',(199.2,218.7,130.7));
#426=CARTESIAN_POINT('',(202.65,218.7,130.7));
#427=CARTESIAN_POINT('',(44.6,99.5,130.7));
#428=CARTESIAN_POINT('',(49.65,99.5,130.7));
#429=CARTESIAN_POINT('',(46.,120.8,130.7));
#430=CARTESIAN_POINT('',(55.45,120.8,130.7));
#431=CARTESIAN_POINT('',(13.5,354.8,130.7));
#432=CARTESIAN_POINT('',(18.6,347.082973370527,130.7));
#433=CARTESIAN_POINT('',(18.6,362.517026629473,130.7));
#434=CARTESIAN_POINT('',(18.6,197.4,130.7));
#435=CARTESIAN_POINT('',(18.6,0.,130.7));
#436=CARTESIAN_POINT('',(110.5,0.,130.7));
#437=CARTESIAN_POINT('',(208.4,0.,130.7));
#438=CARTESIAN_POINT('',(208.4,197.4,130.7));
#439=CARTESIAN_POINT('',(208.4,394.8,130.7));
#440=CARTESIAN_POINT('',(110.5,394.8,130.7));
#441=CARTESIAN_POINT('',(18.6,394.8,130.7));
#442=CARTESIAN_POINT('',(18.6,197.4,130.7));
#443=CARTESIAN_POINT('',(162.6,363.4,130.7));
#444=CARTESIAN_POINT('',(167.6,363.4,130.7));
#445=CARTESIAN_POINT('',(91.9,104.3,130.7));
#446=CARTESIAN_POINT('',(101.15,104.3,130.7));
#447=CARTESIAN_POINT('',(110.5,197.4,130.7));
#448=CARTESIAN_POINT('',(221.,0.,0.));
#449=CARTESIAN_POINT('',(221.,0.,0.));
#450=CARTESIAN_POINT('',(221.,0.,118.1));
#451=CARTESIAN_POINT('',(224.8,0.,114.3));
#452=CARTESIAN_POINT('',(-0.799999999999995,0.,111.3));
#453=CARTESIAN_POINT('',(0.,0.,112.1));
#454=CARTESIAN_POINT('',(0.,0.,0.));
#455=CARTESIAN_POINT('',(0.,0.,0.));
#456=CARTESIAN_POINT('',(110.5,0.,0.));
#457=CARTESIAN_POINT('',(110.5,0.,0.));
#458=CARTESIAN_POINT('',(0.,197.4,112.1));
#459=CARTESIAN_POINT('',(0.,394.8,112.1));
#460=CARTESIAN_POINT('',(0.,394.8,0.));
#461=CARTESIAN_POINT('',(0.,394.8,0.));
#462=CARTESIAN_POINT('',(0.,197.4,0.));
#463=CARTESIAN_POINT('',(0.,197.4,0.));
#464=CARTESIAN_POINT('',(224.8,394.8,114.3));
#465=CARTESIAN_POINT('',(221.,394.8,118.1));
#466=CARTESIAN_POINT('',(221.,394.8,0.));
#467=CARTESIAN_POINT('',(221.,394.8,0.));
#468=CARTESIAN_POINT('',(110.5,394.8,0.));
#469=CARTESIAN_POINT('',(-0.799999999999995,394.8,111.3));
#470=CARTESIAN_POINT('',(110.5,394.8,0.));
#471=CARTESIAN_POINT('',(13.5,354.8,0.));
#472=CARTESIAN_POINT('',(4.25,354.8,0.));
#473=CARTESIAN_POINT('',(221.,197.4,0.));
#474=CARTESIAN_POINT('',(110.5,197.4,0.));
#475=CARTESIAN_POINT('',(221.,197.4,118.1));
#476=CARTESIAN_POINT('',(221.,197.4,0.));
#477=CARTESIAN_POINT('',(13.5,354.8,125.6));
#478=CARTESIAN_POINT('',(0.,197.4,112.1));
#479=CARTESIAN_POINT('',(221.,197.4,118.1));
#480=CARTESIAN_POINT('',(91.9,104.3,77.8));
#481=CARTESIAN_POINT('',(101.15,104.3,77.8));
#482=CARTESIAN_POINT('',(91.9,104.3,77.8));
#483=CARTESIAN_POINT('',(91.9,104.3,130.75));
#484=CARTESIAN_POINT('',(162.6,363.4,41.3));
#485=CARTESIAN_POINT('',(167.6,363.4,41.3));
#486=CARTESIAN_POINT('',(162.6,363.4,41.3));
#487=CARTESIAN_POINT('',(162.6,363.4,130.75));
#488=CARTESIAN_POINT('',(13.5,354.8,130.75));
#489=CARTESIAN_POINT('',(46.,120.8,54.7));
#490=CARTESIAN_POINT('',(55.45,120.8,54.7));
#491=CARTESIAN_POINT('',(46.,120.8,54.7));
#492=CARTESIAN_POINT('',(46.,120.8,130.75));
#493=CARTESIAN_POINT('',(44.6,99.5,54.9));
#494=CARTESIAN_POINT('',(49.65,99.5,54.9));
#495=CARTESIAN_POINT('',(44.6,99.5,54.9));
#496=CARTESIAN_POINT('',(44.6,99.5,130.75));
#497=CARTESIAN_POINT('',(199.2,218.7,83.5));
#498=CARTESIAN_POINT('',(202.65,218.7,83.5));
#499=CARTESIAN_POINT('',(199.2,218.7,83.5));
#500=CARTESIAN_POINT('',(199.2,218.7,130.75));
#501=MECHANICAL_DESIGN_GEOMETRIC_PRESENTATION_REPRESENTATION('',(#24),#502);
#502=(
GEOMETRIC_REPRESENTATION_CONTEXT(3)
GLOBAL_UNCERTAINTY_ASSIGNED_CONTEXT((#503))
GLOBAL_UNIT_ASSIGNED_CONTEXT((#509,#505,#504))
REPRESENTATION_CONTEXT('featured_part_11416','TOP_LEVEL_ASSEMBLY_PART')
);
#503=UNCERTAINTY_MEASURE_WITH_UNIT(LENGTH_MEASURE(2.E-5),#509,
'DISTANCE_ACCURACY_VALUE','Maximum Tolerance applied to model');
#504=(
NAMED_UNIT(*)
SI_UNIT($,.STERADIAN.)
SOLID_ANGLE_UNIT()
);
#505=(
CONVERSION_BASED_UNIT('DEGREE',#507)
NAMED_UNIT(#506)
PLANE_ANGLE_UNIT()
);
#506=DIMENSIONAL_EXPONENTS(0.,0.,0.,0.,0.,0.,0.);
#507=PLANE_ANGLE_MEASURE_WITH_UNIT(PLANE_ANGLE_MEASURE(0.0174532925),#508);
#508=(
NAMED_UNIT(*)
PLANE_ANGLE_UNIT()
SI_UNIT($,.RADIAN.)
);
#509=(
LENGTH_UNIT()
NAMED_UNIT(*)
SI_UNIT(.MILLI.,.METRE.)
);
ENDSEC;
END-ISO-10303-21;
