ISO-10303-21;
HEADER;
/* Generated by software containing ST-Developer
 * from STEP Tools, Inc. (www.steptools.com) 
 */
/* OPTION: using custom schema-name function */

FILE_DESCRIPTION(
/* description */ (''),
/* implementation_level */ '2;1');

FILE_NAME(
/* name */ 'featured_part_10792.stp',
/* time_stamp */ '2026-07-12T08:58:04-04:00',
/* author */ (''),
/* organization */ (''),
/* preprocessor_version */ 'ST-DEVELOPER v20.1',
/* originating_system */ 'SIEMENS PLM Software NX2512.6002',
/* authorisation */ '');

FILE_SCHEMA (('AUTOMOTIVE_DESIGN { 1 0 10303 214 3 1 1 1 }'));
ENDSEC;

DATA;
#10=SHAPE_REPRESENTATION_RELATIONSHIP('None',
'relationship between featured_part_10792-None and featured_part_10792
-None',#22,#11);
#11=ADVANCED_BREP_SHAPE_REPRESENTATION('featured_part_10792-None',(#32),
#1722);
#12=SHAPE_DEFINITION_REPRESENTATION(#13,#22);
#13=PRODUCT_DEFINITION_SHAPE('','',#14);
#14=PRODUCT_DEFINITION(' ','',#16,#15);
#15=PRODUCT_DEFINITION_CONTEXT('part definition',#21,'design');
#16=PRODUCT_DEFINITION_FORMATION_WITH_SPECIFIED_SOURCE(' ',' ',#18,
 .NOT_KNOWN.);
#17=PRODUCT_RELATED_PRODUCT_CATEGORY('part','',(#18));
#18=PRODUCT('featured_part_10792','featured_part_10792',' ',(#19));
#19=PRODUCT_CONTEXT(' ',#21,'mechanical');
#20=APPLICATION_PROTOCOL_DEFINITION('international standard',
'automotive_design',2010,#21);
#21=APPLICATION_CONTEXT(
'core data for automotive mechanical design processes');
#22=SHAPE_REPRESENTATION('featured_part_10792-None',(#1039),#1722);
#23=PRESENTATION_LAYER_ASSIGNMENT('1','Layer 1',(#32));
#24=STYLED_ITEM('',(#25),#32);
#25=PRESENTATION_STYLE_ASSIGNMENT((#26));
#26=SURFACE_STYLE_USAGE(.BOTH.,#27);
#27=SURFACE_SIDE_STYLE('',(#28));
#28=SURFACE_STYLE_FILL_AREA(#29);
#29=FILL_AREA_STYLE('',(#30));
#30=FILL_AREA_STYLE_COLOUR('',#31);
#31=COLOUR_RGB('medium steel',0.611764705882353,0.658823529411765,0.670588235294118);
#32=MANIFOLD_SOLID_BREP('',#33);
#33=CLOSED_SHELL('',(#101,#102,#103,#104,#105,#106,#107,#108,#109,#110,
#111,#112,#113,#114,#115,#116,#117,#118,#119,#120,#121,#122,#123,#124,#125,
#126,#127,#128,#129,#130,#131,#132,#133,#134,#135,#136,#137,#138,#139,#140,
#141,#142,#143,#144,#145,#146,#147,#148,#149,#150,#151,#152,#153,#154,#155));
#34=CYLINDRICAL_SURFACE('',#1071,11.1);
#35=CYLINDRICAL_SURFACE('',#1072,11.1);
#36=CYLINDRICAL_SURFACE('',#1082,10.);
#37=CYLINDRICAL_SURFACE('',#1083,10.);
#38=CYLINDRICAL_SURFACE('',#1084,10.);
#39=CYLINDRICAL_SURFACE('',#1085,10.);
#40=CYLINDRICAL_SURFACE('',#1100,11.9);
#41=CYLINDRICAL_SURFACE('',#1101,11.9);
#42=CYLINDRICAL_SURFACE('',#1102,11.9);
#43=CYLINDRICAL_SURFACE('',#1103,11.9);
#44=CYLINDRICAL_SURFACE('',#1113,6.8);
#45=CYLINDRICAL_SURFACE('',#1114,6.8);
#46=CYLINDRICAL_SURFACE('',#1115,6.8);
#47=CYLINDRICAL_SURFACE('',#1116,6.8);
#48=CYLINDRICAL_SURFACE('',#1126,7.5);
#49=CYLINDRICAL_SURFACE('',#1127,7.5);
#50=CYLINDRICAL_SURFACE('',#1128,7.5);
#51=CYLINDRICAL_SURFACE('',#1129,7.5);
#52=CYLINDRICAL_SURFACE('',#1131,3.4);
#53=FACE_BOUND('',#244,.T.);
#54=FACE_BOUND('',#245,.T.);
#55=FACE_BOUND('',#246,.T.);
#56=FACE_BOUND('',#258,.T.);
#57=FACE_BOUND('',#259,.T.);
#58=FACE_BOUND('',#275,.T.);
#59=FACE_BOUND('',#276,.T.);
#60=FACE_BOUND('',#277,.T.);
#61=FACE_BOUND('',#301,.T.);
#62=FACE_BOUND('',#302,.T.);
#63=CIRCLE('',#1041,7.5);
#64=CIRCLE('',#1042,7.5);
#65=CIRCLE('',#1043,7.5);
#66=CIRCLE('',#1044,7.5);
#67=CIRCLE('',#1045,11.9);
#68=CIRCLE('',#1046,11.9);
#69=CIRCLE('',#1047,11.9);
#70=CIRCLE('',#1048,11.9);
#71=CIRCLE('',#1049,11.1);
#72=CIRCLE('',#1050,11.1);
#73=CIRCLE('',#1063,10.);
#74=CIRCLE('',#1064,10.);
#75=CIRCLE('',#1065,10.);
#76=CIRCLE('',#1066,10.);
#77=CIRCLE('',#1067,11.1);
#78=CIRCLE('',#1068,11.1);
#79=CIRCLE('',#1077,10.);
#80=CIRCLE('',#1078,10.);
#81=CIRCLE('',#1079,10.);
#82=CIRCLE('',#1080,10.);
#83=CIRCLE('',#1089,3.4);
#84=CIRCLE('',#1090,6.8);
#85=CIRCLE('',#1091,6.8);
#86=CIRCLE('',#1092,6.8);
#87=CIRCLE('',#1093,6.8);
#88=CIRCLE('',#1094,11.9);
#89=CIRCLE('',#1095,11.9);
#90=CIRCLE('',#1096,11.9);
#91=CIRCLE('',#1097,11.9);
#92=CIRCLE('',#1108,6.8);
#93=CIRCLE('',#1109,6.8);
#94=CIRCLE('',#1110,6.8);
#95=CIRCLE('',#1111,6.8);
#96=CIRCLE('',#1120,7.5);
#97=CIRCLE('',#1121,7.5);
#98=CIRCLE('',#1122,7.5);
#99=CIRCLE('',#1123,7.5);
#100=CIRCLE('',#1130,3.4);
#101=ADVANCED_FACE('',(#192),#156,.F.);
#102=ADVANCED_FACE('',(#53,#54,#55),#157,.T.);
#103=ADVANCED_FACE('',(#193),#158,.T.);
#104=ADVANCED_FACE('',(#194),#159,.T.);
#105=ADVANCED_FACE('',(#195),#160,.T.);
#106=ADVANCED_FACE('',(#196),#161,.T.);
#107=ADVANCED_FACE('',(#197),#162,.T.);
#108=ADVANCED_FACE('',(#198),#163,.F.);
#109=ADVANCED_FACE('',(#199),#164,.F.);
#110=ADVANCED_FACE('',(#200),#165,.F.);
#111=ADVANCED_FACE('',(#201),#166,.F.);
#112=ADVANCED_FACE('',(#202),#167,.F.);
#113=ADVANCED_FACE('',(#203),#168,.F.);
#114=ADVANCED_FACE('',(#56,#57),#169,.F.);
#115=ADVANCED_FACE('',(#204),#170,.F.);
#116=ADVANCED_FACE('',(#205),#34,.F.);
#117=ADVANCED_FACE('',(#206),#35,.F.);
#118=ADVANCED_FACE('',(#207),#171,.F.);
#119=ADVANCED_FACE('',(#208),#172,.F.);
#120=ADVANCED_FACE('',(#209),#173,.F.);
#121=ADVANCED_FACE('',(#210),#174,.F.);
#122=ADVANCED_FACE('',(#211),#175,.F.);
#123=ADVANCED_FACE('',(#212),#36,.F.);
#124=ADVANCED_FACE('',(#213),#37,.F.);
#125=ADVANCED_FACE('',(#214),#38,.F.);
#126=ADVANCED_FACE('',(#215),#39,.F.);
#127=ADVANCED_FACE('',(#216),#176,.F.);
#128=ADVANCED_FACE('',(#217),#177,.F.);
#129=ADVANCED_FACE('',(#218),#178,.F.);
#130=ADVANCED_FACE('',(#58,#59,#60),#179,.F.);
#131=ADVANCED_FACE('',(#219),#180,.F.);
#132=ADVANCED_FACE('',(#220),#40,.F.);
#133=ADVANCED_FACE('',(#221),#41,.F.);
#134=ADVANCED_FACE('',(#222),#42,.F.);
#135=ADVANCED_FACE('',(#223),#43,.F.);
#136=ADVANCED_FACE('',(#224),#181,.F.);
#137=ADVANCED_FACE('',(#225),#182,.F.);
#138=ADVANCED_FACE('',(#226),#183,.F.);
#139=ADVANCED_FACE('',(#227),#184,.F.);
#140=ADVANCED_FACE('',(#228),#185,.F.);
#141=ADVANCED_FACE('',(#229),#44,.F.);
#142=ADVANCED_FACE('',(#230),#45,.F.);
#143=ADVANCED_FACE('',(#231),#46,.F.);
#144=ADVANCED_FACE('',(#232),#47,.F.);
#145=ADVANCED_FACE('',(#233),#186,.F.);
#146=ADVANCED_FACE('',(#234),#187,.F.);
#147=ADVANCED_FACE('',(#235),#188,.F.);
#148=ADVANCED_FACE('',(#236),#189,.F.);
#149=ADVANCED_FACE('',(#237),#190,.F.);
#150=ADVANCED_FACE('',(#238),#48,.F.);
#151=ADVANCED_FACE('',(#239),#49,.F.);
#152=ADVANCED_FACE('',(#240),#50,.F.);
#153=ADVANCED_FACE('',(#241),#51,.F.);
#154=ADVANCED_FACE('',(#61,#62),#52,.F.);
#155=ADVANCED_FACE('',(#242),#191,.F.);
#156=PLANE('',#1040);
#157=PLANE('',#1051);
#158=PLANE('',#1052);
#159=PLANE('',#1053);
#160=PLANE('',#1054);
#161=PLANE('',#1055);
#162=PLANE('',#1056);
#163=PLANE('',#1057);
#164=PLANE('',#1058);
#165=PLANE('',#1059);
#166=PLANE('',#1060);
#167=PLANE('',#1061);
#168=PLANE('',#1062);
#169=PLANE('',#1069);
#170=PLANE('',#1070);
#171=PLANE('',#1073);
#172=PLANE('',#1074);
#173=PLANE('',#1075);
#174=PLANE('',#1076);
#175=PLANE('',#1081);
#176=PLANE('',#1086);
#177=PLANE('',#1087);
#178=PLANE('',#1088);
#179=PLANE('',#1098);
#180=PLANE('',#1099);
#181=PLANE('',#1104);
#182=PLANE('',#1105);
#183=PLANE('',#1106);
#184=PLANE('',#1107);
#185=PLANE('',#1112);
#186=PLANE('',#1117);
#187=PLANE('',#1118);
#188=PLANE('',#1119);
#189=PLANE('',#1124);
#190=PLANE('',#1125);
#191=PLANE('',#1132);
#192=FACE_OUTER_BOUND('',#243,.T.);
#193=FACE_OUTER_BOUND('',#247,.T.);
#194=FACE_OUTER_BOUND('',#248,.T.);
#195=FACE_OUTER_BOUND('',#249,.T.);
#196=FACE_OUTER_BOUND('',#250,.T.);
#197=FACE_OUTER_BOUND('',#251,.T.);
#198=FACE_OUTER_BOUND('',#252,.T.);
#199=FACE_OUTER_BOUND('',#253,.T.);
#200=FACE_OUTER_BOUND('',#254,.T.);
#201=FACE_OUTER_BOUND('',#255,.T.);
#202=FACE_OUTER_BOUND('',#256,.T.);
#203=FACE_OUTER_BOUND('',#257,.T.);
#204=FACE_OUTER_BOUND('',#260,.T.);
#205=FACE_OUTER_BOUND('',#261,.T.);
#206=FACE_OUTER_BOUND('',#262,.T.);
#207=FACE_OUTER_BOUND('',#263,.T.);
#208=FACE_OUTER_BOUND('',#264,.T.);
#209=FACE_OUTER_BOUND('',#265,.T.);
#210=FACE_OUTER_BOUND('',#266,.T.);
#211=FACE_OUTER_BOUND('',#267,.T.);
#212=FACE_OUTER_BOUND('',#268,.T.);
#213=FACE_OUTER_BOUND('',#269,.T.);
#214=FACE_OUTER_BOUND('',#270,.T.);
#215=FACE_OUTER_BOUND('',#271,.T.);
#216=FACE_OUTER_BOUND('',#272,.T.);
#217=FACE_OUTER_BOUND('',#273,.T.);
#218=FACE_OUTER_BOUND('',#274,.T.);
#219=FACE_OUTER_BOUND('',#278,.T.);
#220=FACE_OUTER_BOUND('',#279,.T.);
#221=FACE_OUTER_BOUND('',#280,.T.);
#222=FACE_OUTER_BOUND('',#281,.T.);
#223=FACE_OUTER_BOUND('',#282,.T.);
#224=FACE_OUTER_BOUND('',#283,.T.);
#225=FACE_OUTER_BOUND('',#284,.T.);
#226=FACE_OUTER_BOUND('',#285,.T.);
#227=FACE_OUTER_BOUND('',#286,.T.);
#228=FACE_OUTER_BOUND('',#287,.T.);
#229=FACE_OUTER_BOUND('',#288,.T.);
#230=FACE_OUTER_BOUND('',#289,.T.);
#231=FACE_OUTER_BOUND('',#290,.T.);
#232=FACE_OUTER_BOUND('',#291,.T.);
#233=FACE_OUTER_BOUND('',#292,.T.);
#234=FACE_OUTER_BOUND('',#293,.T.);
#235=FACE_OUTER_BOUND('',#294,.T.);
#236=FACE_OUTER_BOUND('',#295,.T.);
#237=FACE_OUTER_BOUND('',#296,.T.);
#238=FACE_OUTER_BOUND('',#297,.T.);
#239=FACE_OUTER_BOUND('',#298,.T.);
#240=FACE_OUTER_BOUND('',#299,.T.);
#241=FACE_OUTER_BOUND('',#300,.T.);
#242=FACE_OUTER_BOUND('',#303,.T.);
#243=EDGE_LOOP('',(#304,#305,#306,#307,#308));
#244=EDGE_LOOP('',(#309,#310,#311,#312,#313,#314,#315,#316));
#245=EDGE_LOOP('',(#317,#318,#319,#320,#321,#322,#323,#324));
#246=EDGE_LOOP('',(#325,#326,#327,#328,#329,#330,#331,#332,#333,#334));
#247=EDGE_LOOP('',(#335,#336,#337,#338,#339,#340));
#248=EDGE_LOOP('',(#341,#342,#343,#344,#345,#346,#347,#348));
#249=EDGE_LOOP('',(#349,#350,#351,#352,#353,#354));
#250=EDGE_LOOP('',(#355,#356,#357,#358));
#251=EDGE_LOOP('',(#359,#360,#361,#362));
#252=EDGE_LOOP('',(#363,#364,#365,#366));
#253=EDGE_LOOP('',(#367,#368,#369,#370));
#254=EDGE_LOOP('',(#371,#372,#373,#374,#375));
#255=EDGE_LOOP('',(#376,#377,#378,#379,#380,#381));
#256=EDGE_LOOP('',(#382,#383,#384,#385,#386));
#257=EDGE_LOOP('',(#387,#388,#389,#390,#391));
#258=EDGE_LOOP('',(#392,#393,#394,#395,#396,#397,#398,#399));
#259=EDGE_LOOP('',(#400,#401,#402,#403,#404,#405));
#260=EDGE_LOOP('',(#406,#407,#408,#409));
#261=EDGE_LOOP('',(#410,#411,#412,#413));
#262=EDGE_LOOP('',(#414,#415,#416,#417));
#263=EDGE_LOOP('',(#418,#419,#420,#421));
#264=EDGE_LOOP('',(#422,#423,#424,#425));
#265=EDGE_LOOP('',(#426,#427,#428,#429));
#266=EDGE_LOOP('',(#430,#431,#432,#433));
#267=EDGE_LOOP('',(#434,#435,#436,#437,#438,#439,#440,#441));
#268=EDGE_LOOP('',(#442,#443,#444,#445));
#269=EDGE_LOOP('',(#446,#447,#448,#449));
#270=EDGE_LOOP('',(#450,#451,#452,#453));
#271=EDGE_LOOP('',(#454,#455,#456,#457));
#272=EDGE_LOOP('',(#458,#459,#460,#461));
#273=EDGE_LOOP('',(#462,#463,#464,#465));
#274=EDGE_LOOP('',(#466,#467,#468,#469));
#275=EDGE_LOOP('',(#470));
#276=EDGE_LOOP('',(#471,#472,#473,#474,#475,#476,#477,#478));
#277=EDGE_LOOP('',(#479,#480,#481,#482,#483,#484,#485,#486));
#278=EDGE_LOOP('',(#487,#488,#489,#490));
#279=EDGE_LOOP('',(#491,#492,#493,#494));
#280=EDGE_LOOP('',(#495,#496,#497,#498));
#281=EDGE_LOOP('',(#499,#500,#501,#502));
#282=EDGE_LOOP('',(#503,#504,#505,#506));
#283=EDGE_LOOP('',(#507,#508,#509,#510));
#284=EDGE_LOOP('',(#511,#512,#513,#514));
#285=EDGE_LOOP('',(#515,#516,#517,#518));
#286=EDGE_LOOP('',(#519,#520,#521,#522));
#287=EDGE_LOOP('',(#523,#524,#525,#526,#527,#528,#529,#530));
#288=EDGE_LOOP('',(#531,#532,#533,#534));
#289=EDGE_LOOP('',(#535,#536,#537,#538));
#290=EDGE_LOOP('',(#539,#540,#541,#542));
#291=EDGE_LOOP('',(#543,#544,#545,#546));
#292=EDGE_LOOP('',(#547,#548,#549,#550));
#293=EDGE_LOOP('',(#551,#552,#553,#554));
#294=EDGE_LOOP('',(#555,#556,#557,#558));
#295=EDGE_LOOP('',(#559,#560,#561,#562,#563,#564,#565,#566));
#296=EDGE_LOOP('',(#567,#568,#569,#570));
#297=EDGE_LOOP('',(#571,#572,#573,#574));
#298=EDGE_LOOP('',(#575,#576,#577,#578));
#299=EDGE_LOOP('',(#579,#580,#581,#582));
#300=EDGE_LOOP('',(#583,#584,#585,#586));
#301=EDGE_LOOP('',(#587));
#302=EDGE_LOOP('',(#588));
#303=EDGE_LOOP('',(#589));
#304=ORIENTED_EDGE('',*,*,#686,.F.);
#305=ORIENTED_EDGE('',*,*,#687,.F.);
#306=ORIENTED_EDGE('',*,*,#688,.F.);
#307=ORIENTED_EDGE('',*,*,#689,.F.);
#308=ORIENTED_EDGE('',*,*,#690,.F.);
#309=ORIENTED_EDGE('',*,*,#691,.F.);
#310=ORIENTED_EDGE('',*,*,#692,.T.);
#311=ORIENTED_EDGE('',*,*,#693,.F.);
#312=ORIENTED_EDGE('',*,*,#694,.T.);
#313=ORIENTED_EDGE('',*,*,#695,.F.);
#314=ORIENTED_EDGE('',*,*,#696,.T.);
#315=ORIENTED_EDGE('',*,*,#697,.F.);
#316=ORIENTED_EDGE('',*,*,#698,.T.);
#317=ORIENTED_EDGE('',*,*,#699,.F.);
#318=ORIENTED_EDGE('',*,*,#700,.T.);
#319=ORIENTED_EDGE('',*,*,#701,.F.);
#320=ORIENTED_EDGE('',*,*,#702,.T.);
#321=ORIENTED_EDGE('',*,*,#703,.F.);
#322=ORIENTED_EDGE('',*,*,#704,.T.);
#323=ORIENTED_EDGE('',*,*,#705,.F.);
#324=ORIENTED_EDGE('',*,*,#706,.T.);
#325=ORIENTED_EDGE('',*,*,#707,.F.);
#326=ORIENTED_EDGE('',*,*,#690,.T.);
#327=ORIENTED_EDGE('',*,*,#708,.T.);
#328=ORIENTED_EDGE('',*,*,#709,.T.);
#329=ORIENTED_EDGE('',*,*,#710,.T.);
#330=ORIENTED_EDGE('',*,*,#711,.T.);
#331=ORIENTED_EDGE('',*,*,#712,.F.);
#332=ORIENTED_EDGE('',*,*,#713,.T.);
#333=ORIENTED_EDGE('',*,*,#714,.F.);
#334=ORIENTED_EDGE('',*,*,#715,.T.);
#335=ORIENTED_EDGE('',*,*,#716,.T.);
#336=ORIENTED_EDGE('',*,*,#717,.T.);
#337=ORIENTED_EDGE('',*,*,#718,.T.);
#338=ORIENTED_EDGE('',*,*,#688,.T.);
#339=ORIENTED_EDGE('',*,*,#719,.F.);
#340=ORIENTED_EDGE('',*,*,#720,.T.);
#341=ORIENTED_EDGE('',*,*,#721,.F.);
#342=ORIENTED_EDGE('',*,*,#722,.F.);
#343=ORIENTED_EDGE('',*,*,#723,.T.);
#344=ORIENTED_EDGE('',*,*,#724,.T.);
#345=ORIENTED_EDGE('',*,*,#725,.F.);
#346=ORIENTED_EDGE('',*,*,#726,.T.);
#347=ORIENTED_EDGE('',*,*,#719,.T.);
#348=ORIENTED_EDGE('',*,*,#687,.T.);
#349=ORIENTED_EDGE('',*,*,#727,.T.);
#350=ORIENTED_EDGE('',*,*,#728,.T.);
#351=ORIENTED_EDGE('',*,*,#729,.F.);
#352=ORIENTED_EDGE('',*,*,#730,.T.);
#353=ORIENTED_EDGE('',*,*,#725,.T.);
#354=ORIENTED_EDGE('',*,*,#731,.T.);
#355=ORIENTED_EDGE('',*,*,#732,.F.);
#356=ORIENTED_EDGE('',*,*,#720,.F.);
#357=ORIENTED_EDGE('',*,*,#726,.F.);
#358=ORIENTED_EDGE('',*,*,#730,.F.);
#359=ORIENTED_EDGE('',*,*,#729,.T.);
#360=ORIENTED_EDGE('',*,*,#733,.T.);
#361=ORIENTED_EDGE('',*,*,#716,.F.);
#362=ORIENTED_EDGE('',*,*,#732,.T.);
#363=ORIENTED_EDGE('',*,*,#710,.F.);
#364=ORIENTED_EDGE('',*,*,#734,.T.);
#365=ORIENTED_EDGE('',*,*,#727,.F.);
#366=ORIENTED_EDGE('',*,*,#735,.T.);
#367=ORIENTED_EDGE('',*,*,#718,.F.);
#368=ORIENTED_EDGE('',*,*,#736,.T.);
#369=ORIENTED_EDGE('',*,*,#708,.F.);
#370=ORIENTED_EDGE('',*,*,#689,.T.);
#371=ORIENTED_EDGE('',*,*,#737,.F.);
#372=ORIENTED_EDGE('',*,*,#711,.F.);
#373=ORIENTED_EDGE('',*,*,#735,.F.);
#374=ORIENTED_EDGE('',*,*,#731,.F.);
#375=ORIENTED_EDGE('',*,*,#724,.F.);
#376=ORIENTED_EDGE('',*,*,#734,.F.);
#377=ORIENTED_EDGE('',*,*,#709,.F.);
#378=ORIENTED_EDGE('',*,*,#736,.F.);
#379=ORIENTED_EDGE('',*,*,#717,.F.);
#380=ORIENTED_EDGE('',*,*,#733,.F.);
#381=ORIENTED_EDGE('',*,*,#728,.F.);
#382=ORIENTED_EDGE('',*,*,#707,.T.);
#383=ORIENTED_EDGE('',*,*,#738,.T.);
#384=ORIENTED_EDGE('',*,*,#739,.T.);
#385=ORIENTED_EDGE('',*,*,#721,.T.);
#386=ORIENTED_EDGE('',*,*,#686,.T.);
#387=ORIENTED_EDGE('',*,*,#740,.T.);
#388=ORIENTED_EDGE('',*,*,#741,.T.);
#389=ORIENTED_EDGE('',*,*,#712,.T.);
#390=ORIENTED_EDGE('',*,*,#737,.T.);
#391=ORIENTED_EDGE('',*,*,#723,.F.);
#392=ORIENTED_EDGE('',*,*,#742,.T.);
#393=ORIENTED_EDGE('',*,*,#743,.T.);
#394=ORIENTED_EDGE('',*,*,#744,.T.);
#395=ORIENTED_EDGE('',*,*,#745,.T.);
#396=ORIENTED_EDGE('',*,*,#746,.T.);
#397=ORIENTED_EDGE('',*,*,#747,.T.);
#398=ORIENTED_EDGE('',*,*,#748,.T.);
#399=ORIENTED_EDGE('',*,*,#749,.T.);
#400=ORIENTED_EDGE('',*,*,#750,.F.);
#401=ORIENTED_EDGE('',*,*,#751,.T.);
#402=ORIENTED_EDGE('',*,*,#740,.F.);
#403=ORIENTED_EDGE('',*,*,#722,.T.);
#404=ORIENTED_EDGE('',*,*,#739,.F.);
#405=ORIENTED_EDGE('',*,*,#752,.T.);
#406=ORIENTED_EDGE('',*,*,#714,.T.);
#407=ORIENTED_EDGE('',*,*,#753,.T.);
#408=ORIENTED_EDGE('',*,*,#750,.T.);
#409=ORIENTED_EDGE('',*,*,#754,.T.);
#410=ORIENTED_EDGE('',*,*,#713,.F.);
#411=ORIENTED_EDGE('',*,*,#741,.F.);
#412=ORIENTED_EDGE('',*,*,#751,.F.);
#413=ORIENTED_EDGE('',*,*,#753,.F.);
#414=ORIENTED_EDGE('',*,*,#715,.F.);
#415=ORIENTED_EDGE('',*,*,#754,.F.);
#416=ORIENTED_EDGE('',*,*,#752,.F.);
#417=ORIENTED_EDGE('',*,*,#738,.F.);
#418=ORIENTED_EDGE('',*,*,#746,.F.);
#419=ORIENTED_EDGE('',*,*,#755,.T.);
#420=ORIENTED_EDGE('',*,*,#756,.T.);
#421=ORIENTED_EDGE('',*,*,#757,.T.);
#422=ORIENTED_EDGE('',*,*,#758,.T.);
#423=ORIENTED_EDGE('',*,*,#759,.T.);
#424=ORIENTED_EDGE('',*,*,#748,.F.);
#425=ORIENTED_EDGE('',*,*,#760,.T.);
#426=ORIENTED_EDGE('',*,*,#742,.F.);
#427=ORIENTED_EDGE('',*,*,#761,.T.);
#428=ORIENTED_EDGE('',*,*,#762,.T.);
#429=ORIENTED_EDGE('',*,*,#763,.T.);
#430=ORIENTED_EDGE('',*,*,#764,.T.);
#431=ORIENTED_EDGE('',*,*,#765,.T.);
#432=ORIENTED_EDGE('',*,*,#744,.F.);
#433=ORIENTED_EDGE('',*,*,#766,.T.);
#434=ORIENTED_EDGE('',*,*,#762,.F.);
#435=ORIENTED_EDGE('',*,*,#767,.T.);
#436=ORIENTED_EDGE('',*,*,#758,.F.);
#437=ORIENTED_EDGE('',*,*,#768,.T.);
#438=ORIENTED_EDGE('',*,*,#756,.F.);
#439=ORIENTED_EDGE('',*,*,#769,.T.);
#440=ORIENTED_EDGE('',*,*,#764,.F.);
#441=ORIENTED_EDGE('',*,*,#770,.T.);
#442=ORIENTED_EDGE('',*,*,#749,.F.);
#443=ORIENTED_EDGE('',*,*,#759,.F.);
#444=ORIENTED_EDGE('',*,*,#767,.F.);
#445=ORIENTED_EDGE('',*,*,#761,.F.);
#446=ORIENTED_EDGE('',*,*,#745,.F.);
#447=ORIENTED_EDGE('',*,*,#765,.F.);
#448=ORIENTED_EDGE('',*,*,#769,.F.);
#449=ORIENTED_EDGE('',*,*,#755,.F.);
#450=ORIENTED_EDGE('',*,*,#747,.F.);
#451=ORIENTED_EDGE('',*,*,#757,.F.);
#452=ORIENTED_EDGE('',*,*,#768,.F.);
#453=ORIENTED_EDGE('',*,*,#760,.F.);
#454=ORIENTED_EDGE('',*,*,#743,.F.);
#455=ORIENTED_EDGE('',*,*,#763,.F.);
#456=ORIENTED_EDGE('',*,*,#770,.F.);
#457=ORIENTED_EDGE('',*,*,#766,.F.);
#458=ORIENTED_EDGE('',*,*,#699,.T.);
#459=ORIENTED_EDGE('',*,*,#771,.T.);
#460=ORIENTED_EDGE('',*,*,#772,.T.);
#461=ORIENTED_EDGE('',*,*,#773,.T.);
#462=ORIENTED_EDGE('',*,*,#701,.T.);
#463=ORIENTED_EDGE('',*,*,#774,.T.);
#464=ORIENTED_EDGE('',*,*,#775,.T.);
#465=ORIENTED_EDGE('',*,*,#776,.T.);
#466=ORIENTED_EDGE('',*,*,#777,.T.);
#467=ORIENTED_EDGE('',*,*,#778,.T.);
#468=ORIENTED_EDGE('',*,*,#703,.T.);
#469=ORIENTED_EDGE('',*,*,#779,.T.);
#470=ORIENTED_EDGE('',*,*,#780,.T.);
#471=ORIENTED_EDGE('',*,*,#781,.T.);
#472=ORIENTED_EDGE('',*,*,#782,.T.);
#473=ORIENTED_EDGE('',*,*,#783,.T.);
#474=ORIENTED_EDGE('',*,*,#784,.T.);
#475=ORIENTED_EDGE('',*,*,#785,.T.);
#476=ORIENTED_EDGE('',*,*,#786,.T.);
#477=ORIENTED_EDGE('',*,*,#787,.T.);
#478=ORIENTED_EDGE('',*,*,#788,.T.);
#479=ORIENTED_EDGE('',*,*,#772,.F.);
#480=ORIENTED_EDGE('',*,*,#789,.T.);
#481=ORIENTED_EDGE('',*,*,#790,.F.);
#482=ORIENTED_EDGE('',*,*,#791,.T.);
#483=ORIENTED_EDGE('',*,*,#777,.F.);
#484=ORIENTED_EDGE('',*,*,#792,.T.);
#485=ORIENTED_EDGE('',*,*,#775,.F.);
#486=ORIENTED_EDGE('',*,*,#793,.T.);
#487=ORIENTED_EDGE('',*,*,#790,.T.);
#488=ORIENTED_EDGE('',*,*,#794,.T.);
#489=ORIENTED_EDGE('',*,*,#705,.T.);
#490=ORIENTED_EDGE('',*,*,#795,.T.);
#491=ORIENTED_EDGE('',*,*,#706,.F.);
#492=ORIENTED_EDGE('',*,*,#794,.F.);
#493=ORIENTED_EDGE('',*,*,#789,.F.);
#494=ORIENTED_EDGE('',*,*,#771,.F.);
#495=ORIENTED_EDGE('',*,*,#704,.F.);
#496=ORIENTED_EDGE('',*,*,#778,.F.);
#497=ORIENTED_EDGE('',*,*,#791,.F.);
#498=ORIENTED_EDGE('',*,*,#795,.F.);
#499=ORIENTED_EDGE('',*,*,#700,.F.);
#500=ORIENTED_EDGE('',*,*,#773,.F.);
#501=ORIENTED_EDGE('',*,*,#793,.F.);
#502=ORIENTED_EDGE('',*,*,#774,.F.);
#503=ORIENTED_EDGE('',*,*,#702,.F.);
#504=ORIENTED_EDGE('',*,*,#776,.F.);
#505=ORIENTED_EDGE('',*,*,#792,.F.);
#506=ORIENTED_EDGE('',*,*,#779,.F.);
#507=ORIENTED_EDGE('',*,*,#796,.T.);
#508=ORIENTED_EDGE('',*,*,#797,.T.);
#509=ORIENTED_EDGE('',*,*,#785,.F.);
#510=ORIENTED_EDGE('',*,*,#798,.T.);
#511=ORIENTED_EDGE('',*,*,#787,.F.);
#512=ORIENTED_EDGE('',*,*,#799,.T.);
#513=ORIENTED_EDGE('',*,*,#800,.T.);
#514=ORIENTED_EDGE('',*,*,#801,.T.);
#515=ORIENTED_EDGE('',*,*,#802,.T.);
#516=ORIENTED_EDGE('',*,*,#803,.T.);
#517=ORIENTED_EDGE('',*,*,#781,.F.);
#518=ORIENTED_EDGE('',*,*,#804,.T.);
#519=ORIENTED_EDGE('',*,*,#783,.F.);
#520=ORIENTED_EDGE('',*,*,#805,.T.);
#521=ORIENTED_EDGE('',*,*,#806,.T.);
#522=ORIENTED_EDGE('',*,*,#807,.T.);
#523=ORIENTED_EDGE('',*,*,#800,.F.);
#524=ORIENTED_EDGE('',*,*,#808,.T.);
#525=ORIENTED_EDGE('',*,*,#796,.F.);
#526=ORIENTED_EDGE('',*,*,#809,.T.);
#527=ORIENTED_EDGE('',*,*,#806,.F.);
#528=ORIENTED_EDGE('',*,*,#810,.T.);
#529=ORIENTED_EDGE('',*,*,#802,.F.);
#530=ORIENTED_EDGE('',*,*,#811,.T.);
#531=ORIENTED_EDGE('',*,*,#786,.F.);
#532=ORIENTED_EDGE('',*,*,#797,.F.);
#533=ORIENTED_EDGE('',*,*,#808,.F.);
#534=ORIENTED_EDGE('',*,*,#799,.F.);
#535=ORIENTED_EDGE('',*,*,#782,.F.);
#536=ORIENTED_EDGE('',*,*,#803,.F.);
#537=ORIENTED_EDGE('',*,*,#810,.F.);
#538=ORIENTED_EDGE('',*,*,#805,.F.);
#539=ORIENTED_EDGE('',*,*,#784,.F.);
#540=ORIENTED_EDGE('',*,*,#807,.F.);
#541=ORIENTED_EDGE('',*,*,#809,.F.);
#542=ORIENTED_EDGE('',*,*,#798,.F.);
#543=ORIENTED_EDGE('',*,*,#788,.F.);
#544=ORIENTED_EDGE('',*,*,#801,.F.);
#545=ORIENTED_EDGE('',*,*,#811,.F.);
#546=ORIENTED_EDGE('',*,*,#804,.F.);
#547=ORIENTED_EDGE('',*,*,#691,.T.);
#548=ORIENTED_EDGE('',*,*,#812,.T.);
#549=ORIENTED_EDGE('',*,*,#813,.T.);
#550=ORIENTED_EDGE('',*,*,#814,.T.);
#551=ORIENTED_EDGE('',*,*,#815,.T.);
#552=ORIENTED_EDGE('',*,*,#816,.T.);
#553=ORIENTED_EDGE('',*,*,#693,.T.);
#554=ORIENTED_EDGE('',*,*,#817,.T.);
#555=ORIENTED_EDGE('',*,*,#695,.T.);
#556=ORIENTED_EDGE('',*,*,#818,.T.);
#557=ORIENTED_EDGE('',*,*,#819,.T.);
#558=ORIENTED_EDGE('',*,*,#820,.T.);
#559=ORIENTED_EDGE('',*,*,#813,.F.);
#560=ORIENTED_EDGE('',*,*,#821,.T.);
#561=ORIENTED_EDGE('',*,*,#822,.F.);
#562=ORIENTED_EDGE('',*,*,#823,.T.);
#563=ORIENTED_EDGE('',*,*,#819,.F.);
#564=ORIENTED_EDGE('',*,*,#824,.T.);
#565=ORIENTED_EDGE('',*,*,#815,.F.);
#566=ORIENTED_EDGE('',*,*,#825,.T.);
#567=ORIENTED_EDGE('',*,*,#822,.T.);
#568=ORIENTED_EDGE('',*,*,#826,.T.);
#569=ORIENTED_EDGE('',*,*,#697,.T.);
#570=ORIENTED_EDGE('',*,*,#827,.T.);
#571=ORIENTED_EDGE('',*,*,#698,.F.);
#572=ORIENTED_EDGE('',*,*,#826,.F.);
#573=ORIENTED_EDGE('',*,*,#821,.F.);
#574=ORIENTED_EDGE('',*,*,#812,.F.);
#575=ORIENTED_EDGE('',*,*,#694,.F.);
#576=ORIENTED_EDGE('',*,*,#816,.F.);
#577=ORIENTED_EDGE('',*,*,#824,.F.);
#578=ORIENTED_EDGE('',*,*,#818,.F.);
#579=ORIENTED_EDGE('',*,*,#692,.F.);
#580=ORIENTED_EDGE('',*,*,#814,.F.);
#581=ORIENTED_EDGE('',*,*,#825,.F.);
#582=ORIENTED_EDGE('',*,*,#817,.F.);
#583=ORIENTED_EDGE('',*,*,#696,.F.);
#584=ORIENTED_EDGE('',*,*,#820,.F.);
#585=ORIENTED_EDGE('',*,*,#823,.F.);
#586=ORIENTED_EDGE('',*,*,#827,.F.);
#587=ORIENTED_EDGE('',*,*,#828,.T.);
#588=ORIENTED_EDGE('',*,*,#780,.F.);
#589=ORIENTED_EDGE('',*,*,#828,.F.);
#590=VERTEX_POINT('',#1428);
#591=VERTEX_POINT('',#1429);
#592=VERTEX_POINT('',#1431);
#593=VERTEX_POINT('',#1433);
#594=VERTEX_POINT('',#1435);
#595=VERTEX_POINT('',#1439);
#596=VERTEX_POINT('',#1440);
#597=VERTEX_POINT('',#1442);
#598=VERTEX_POINT('',#1444);
#599=VERTEX_POINT('',#1446);
#600=VERTEX_POINT('',#1448);
#601=VERTEX_POINT('',#1450);
#602=VERTEX_POINT('',#1452);
#603=VERTEX_POINT('',#1455);
#604=VERTEX_POINT('',#1456);
#605=VERTEX_POINT('',#1458);
#606=VERTEX_POINT('',#1460);
#607=VERTEX_POINT('',#1462);
#608=VERTEX_POINT('',#1464);
#609=VERTEX_POINT('',#1466);
#610=VERTEX_POINT('',#1468);
#611=VERTEX_POINT('',#1471);
#612=VERTEX_POINT('',#1473);
#613=VERTEX_POINT('',#1475);
#614=VERTEX_POINT('',#1477);
#615=VERTEX_POINT('',#1479);
#616=VERTEX_POINT('',#1481);
#617=VERTEX_POINT('',#1483);
#618=VERTEX_POINT('',#1485);
#619=VERTEX_POINT('',#1489);
#620=VERTEX_POINT('',#1490);
#621=VERTEX_POINT('',#1492);
#622=VERTEX_POINT('',#1495);
#623=VERTEX_POINT('',#1499);
#624=VERTEX_POINT('',#1501);
#625=VERTEX_POINT('',#1503);
#626=VERTEX_POINT('',#1505);
#627=VERTEX_POINT('',#1507);
#628=VERTEX_POINT('',#1511);
#629=VERTEX_POINT('',#1512);
#630=VERTEX_POINT('',#1514);
#631=VERTEX_POINT('',#1516);
#632=VERTEX_POINT('',#1533);
#633=VERTEX_POINT('',#1537);
#634=VERTEX_POINT('',#1541);
#635=VERTEX_POINT('',#1542);
#636=VERTEX_POINT('',#1544);
#637=VERTEX_POINT('',#1546);
#638=VERTEX_POINT('',#1548);
#639=VERTEX_POINT('',#1550);
#640=VERTEX_POINT('',#1552);
#641=VERTEX_POINT('',#1554);
#642=VERTEX_POINT('',#1557);
#643=VERTEX_POINT('',#1558);
#644=VERTEX_POINT('',#1568);
#645=VERTEX_POINT('',#1570);
#646=VERTEX_POINT('',#1574);
#647=VERTEX_POINT('',#1575);
#648=VERTEX_POINT('',#1580);
#649=VERTEX_POINT('',#1582);
#650=VERTEX_POINT('',#1586);
#651=VERTEX_POINT('',#1587);
#652=VERTEX_POINT('',#1601);
#653=VERTEX_POINT('',#1603);
#654=VERTEX_POINT('',#1607);
#655=VERTEX_POINT('',#1609);
#656=VERTEX_POINT('',#1613);
#657=VERTEX_POINT('',#1614);
#658=VERTEX_POINT('',#1619);
#659=VERTEX_POINT('',#1621);
#660=VERTEX_POINT('',#1622);
#661=VERTEX_POINT('',#1624);
#662=VERTEX_POINT('',#1626);
#663=VERTEX_POINT('',#1628);
#664=VERTEX_POINT('',#1630);
#665=VERTEX_POINT('',#1632);
#666=VERTEX_POINT('',#1634);
#667=VERTEX_POINT('',#1637);
#668=VERTEX_POINT('',#1639);
#669=VERTEX_POINT('',#1652);
#670=VERTEX_POINT('',#1653);
#671=VERTEX_POINT('',#1658);
#672=VERTEX_POINT('',#1660);
#673=VERTEX_POINT('',#1664);
#674=VERTEX_POINT('',#1665);
#675=VERTEX_POINT('',#1670);
#676=VERTEX_POINT('',#1672);
#677=VERTEX_POINT('',#1685);
#678=VERTEX_POINT('',#1687);
#679=VERTEX_POINT('',#1691);
#680=VERTEX_POINT('',#1692);
#681=VERTEX_POINT('',#1697);
#682=VERTEX_POINT('',#1699);
#683=VERTEX_POINT('',#1703);
#684=VERTEX_POINT('',#1705);
#685=VERTEX_POINT('',#1718);
#686=EDGE_CURVE('',#590,#591,#829,.T.);
#687=EDGE_CURVE('',#592,#590,#830,.T.);
#688=EDGE_CURVE('',#593,#592,#831,.T.);
#689=EDGE_CURVE('',#594,#593,#832,.T.);
#690=EDGE_CURVE('',#591,#594,#833,.T.);
#691=EDGE_CURVE('',#595,#596,#834,.T.);
#692=EDGE_CURVE('',#595,#597,#63,.T.);
#693=EDGE_CURVE('',#598,#597,#835,.T.);
#694=EDGE_CURVE('',#598,#599,#64,.T.);
#695=EDGE_CURVE('',#600,#599,#836,.T.);
#696=EDGE_CURVE('',#600,#601,#65,.T.);
#697=EDGE_CURVE('',#602,#601,#837,.T.);
#698=EDGE_CURVE('',#602,#596,#66,.T.);
#699=EDGE_CURVE('',#603,#604,#838,.T.);
#700=EDGE_CURVE('',#603,#605,#67,.T.);
#701=EDGE_CURVE('',#606,#605,#839,.T.);
#702=EDGE_CURVE('',#606,#607,#68,.T.);
#703=EDGE_CURVE('',#608,#607,#840,.T.);
#704=EDGE_CURVE('',#608,#609,#69,.T.);
#705=EDGE_CURVE('',#610,#609,#841,.T.);
#706=EDGE_CURVE('',#610,#604,#70,.T.);
#707=EDGE_CURVE('',#591,#611,#842,.T.);
#708=EDGE_CURVE('',#594,#612,#843,.T.);
#709=EDGE_CURVE('',#612,#613,#844,.T.);
#710=EDGE_CURVE('',#613,#614,#845,.T.);
#711=EDGE_CURVE('',#614,#615,#846,.T.);
#712=EDGE_CURVE('',#616,#615,#847,.T.);
#713=EDGE_CURVE('',#616,#617,#71,.T.);
#714=EDGE_CURVE('',#618,#617,#848,.T.);
#715=EDGE_CURVE('',#618,#611,#72,.T.);
#716=EDGE_CURVE('',#619,#620,#849,.T.);
#717=EDGE_CURVE('',#620,#621,#850,.T.);
#718=EDGE_CURVE('',#621,#593,#851,.T.);
#719=EDGE_CURVE('',#622,#592,#852,.T.);
#720=EDGE_CURVE('',#622,#619,#853,.T.);
#721=EDGE_CURVE('',#623,#590,#854,.T.);
#722=EDGE_CURVE('',#624,#623,#855,.T.);
#723=EDGE_CURVE('',#624,#625,#856,.T.);
#724=EDGE_CURVE('',#625,#626,#857,.T.);
#725=EDGE_CURVE('',#627,#626,#858,.T.);
#726=EDGE_CURVE('',#627,#622,#859,.T.);
#727=EDGE_CURVE('',#628,#629,#860,.T.);
#728=EDGE_CURVE('',#629,#630,#861,.T.);
#729=EDGE_CURVE('',#631,#630,#862,.T.);
#730=EDGE_CURVE('',#631,#627,#863,.T.);
#731=EDGE_CURVE('',#626,#628,#864,.T.);
#732=EDGE_CURVE('',#619,#631,#865,.T.);
#733=EDGE_CURVE('',#630,#620,#866,.T.);
#734=EDGE_CURVE('',#613,#629,#867,.T.);
#735=EDGE_CURVE('',#628,#614,#868,.T.);
#736=EDGE_CURVE('',#621,#612,#869,.T.);
#737=EDGE_CURVE('',#615,#625,#870,.T.);
#738=EDGE_CURVE('',#611,#632,#871,.T.);
#739=EDGE_CURVE('',#632,#623,#872,.T.);
#740=EDGE_CURVE('',#624,#633,#873,.T.);
#741=EDGE_CURVE('',#633,#616,#874,.T.);
#742=EDGE_CURVE('',#634,#635,#875,.T.);
#743=EDGE_CURVE('',#635,#636,#73,.T.);
#744=EDGE_CURVE('',#636,#637,#876,.T.);
#745=EDGE_CURVE('',#637,#638,#74,.T.);
#746=EDGE_CURVE('',#638,#639,#877,.T.);
#747=EDGE_CURVE('',#639,#640,#75,.T.);
#748=EDGE_CURVE('',#640,#641,#878,.T.);
#749=EDGE_CURVE('',#641,#634,#76,.T.);
#750=EDGE_CURVE('',#642,#643,#879,.T.);
#751=EDGE_CURVE('',#642,#633,#77,.T.);
#752=EDGE_CURVE('',#632,#643,#78,.T.);
#753=EDGE_CURVE('',#617,#642,#880,.T.);
#754=EDGE_CURVE('',#643,#618,#881,.T.);
#755=EDGE_CURVE('',#638,#644,#882,.T.);
#756=EDGE_CURVE('',#644,#645,#883,.T.);
#757=EDGE_CURVE('',#645,#639,#884,.T.);
#758=EDGE_CURVE('',#646,#647,#885,.T.);
#759=EDGE_CURVE('',#647,#641,#886,.T.);
#760=EDGE_CURVE('',#640,#646,#887,.T.);
#761=EDGE_CURVE('',#634,#648,#888,.T.);
#762=EDGE_CURVE('',#648,#649,#889,.T.);
#763=EDGE_CURVE('',#649,#635,#890,.T.);
#764=EDGE_CURVE('',#650,#651,#891,.T.);
#765=EDGE_CURVE('',#651,#637,#892,.T.);
#766=EDGE_CURVE('',#636,#650,#893,.T.);
#767=EDGE_CURVE('',#648,#647,#79,.T.);
#768=EDGE_CURVE('',#646,#645,#80,.T.);
#769=EDGE_CURVE('',#644,#651,#81,.T.);
#770=EDGE_CURVE('',#650,#649,#82,.T.);
#771=EDGE_CURVE('',#604,#652,#894,.T.);
#772=EDGE_CURVE('',#652,#653,#895,.T.);
#773=EDGE_CURVE('',#653,#603,#896,.T.);
#774=EDGE_CURVE('',#605,#654,#897,.T.);
#775=EDGE_CURVE('',#654,#655,#898,.T.);
#776=EDGE_CURVE('',#655,#606,#899,.T.);
#777=EDGE_CURVE('',#656,#657,#900,.T.);
#778=EDGE_CURVE('',#657,#608,#901,.T.);
#779=EDGE_CURVE('',#607,#656,#902,.T.);
#780=EDGE_CURVE('',#658,#658,#83,.T.);
#781=EDGE_CURVE('',#659,#660,#903,.T.);
#782=EDGE_CURVE('',#660,#661,#84,.T.);
#783=EDGE_CURVE('',#661,#662,#904,.T.);
#784=EDGE_CURVE('',#662,#663,#85,.T.);
#785=EDGE_CURVE('',#663,#664,#905,.T.);
#786=EDGE_CURVE('',#664,#665,#86,.T.);
#787=EDGE_CURVE('',#665,#666,#906,.T.);
#788=EDGE_CURVE('',#666,#659,#87,.T.);
#789=EDGE_CURVE('',#652,#667,#88,.T.);
#790=EDGE_CURVE('',#668,#667,#907,.T.);
#791=EDGE_CURVE('',#668,#657,#89,.T.);
#792=EDGE_CURVE('',#656,#655,#90,.T.);
#793=EDGE_CURVE('',#654,#653,#91,.T.);
#794=EDGE_CURVE('',#667,#610,#908,.T.);
#795=EDGE_CURVE('',#609,#668,#909,.T.);
#796=EDGE_CURVE('',#669,#670,#910,.T.);
#797=EDGE_CURVE('',#670,#664,#911,.T.);
#798=EDGE_CURVE('',#663,#669,#912,.T.);
#799=EDGE_CURVE('',#665,#671,#913,.T.);
#800=EDGE_CURVE('',#671,#672,#914,.T.);
#801=EDGE_CURVE('',#672,#666,#915,.T.);
#802=EDGE_CURVE('',#673,#674,#916,.T.);
#803=EDGE_CURVE('',#674,#660,#917,.T.);
#804=EDGE_CURVE('',#659,#673,#918,.T.);
#805=EDGE_CURVE('',#661,#675,#919,.T.);
#806=EDGE_CURVE('',#675,#676,#920,.T.);
#807=EDGE_CURVE('',#676,#662,#921,.T.);
#808=EDGE_CURVE('',#671,#670,#92,.T.);
#809=EDGE_CURVE('',#669,#676,#93,.T.);
#810=EDGE_CURVE('',#675,#674,#94,.T.);
#811=EDGE_CURVE('',#673,#672,#95,.T.);
#812=EDGE_CURVE('',#596,#677,#922,.T.);
#813=EDGE_CURVE('',#677,#678,#923,.T.);
#814=EDGE_CURVE('',#678,#595,#924,.T.);
#815=EDGE_CURVE('',#679,#680,#925,.T.);
#816=EDGE_CURVE('',#680,#598,#926,.T.);
#817=EDGE_CURVE('',#597,#679,#927,.T.);
#818=EDGE_CURVE('',#599,#681,#928,.T.);
#819=EDGE_CURVE('',#681,#682,#929,.T.);
#820=EDGE_CURVE('',#682,#600,#930,.T.);
#821=EDGE_CURVE('',#677,#683,#96,.T.);
#822=EDGE_CURVE('',#684,#683,#931,.T.);
#823=EDGE_CURVE('',#684,#682,#97,.T.);
#824=EDGE_CURVE('',#681,#680,#98,.T.);
#825=EDGE_CURVE('',#679,#678,#99,.T.);
#826=EDGE_CURVE('',#683,#602,#932,.T.);
#827=EDGE_CURVE('',#601,#684,#933,.T.);
#828=EDGE_CURVE('',#685,#685,#100,.T.);
#829=LINE('',#1427,#934);
#830=LINE('',#1430,#935);
#831=LINE('',#1432,#936);
#832=LINE('',#1434,#937);
#833=LINE('',#1436,#938);
#834=LINE('',#1438,#939);
#835=LINE('',#1443,#940);
#836=LINE('',#1447,#941);
#837=LINE('',#1451,#942);
#838=LINE('',#1454,#943);
#839=LINE('',#1459,#944);
#840=LINE('',#1463,#945);
#841=LINE('',#1467,#946);
#842=LINE('',#1470,#947);
#843=LINE('',#1472,#948);
#844=LINE('',#1474,#949);
#845=LINE('',#1476,#950);
#846=LINE('',#1478,#951);
#847=LINE('',#1480,#952);
#848=LINE('',#1484,#953);
#849=LINE('',#1488,#954);
#850=LINE('',#1491,#955);
#851=LINE('',#1493,#956);
#852=LINE('',#1494,#957);
#853=LINE('',#1496,#958);
#854=LINE('',#1498,#959);
#855=LINE('',#1500,#960);
#856=LINE('',#1502,#961);
#857=LINE('',#1504,#962);
#858=LINE('',#1506,#963);
#859=LINE('',#1508,#964);
#860=LINE('',#1510,#965);
#861=LINE('',#1513,#966);
#862=LINE('',#1515,#967);
#863=LINE('',#1517,#968);
#864=LINE('',#1518,#969);
#865=LINE('',#1520,#970);
#866=LINE('',#1522,#971);
#867=LINE('',#1524,#972);
#868=LINE('',#1525,#973);
#869=LINE('',#1527,#974);
#870=LINE('',#1529,#975);
#871=LINE('',#1532,#976);
#872=LINE('',#1534,#977);
#873=LINE('',#1536,#978);
#874=LINE('',#1538,#979);
#875=LINE('',#1540,#980);
#876=LINE('',#1545,#981);
#877=LINE('',#1549,#982);
#878=LINE('',#1553,#983);
#879=LINE('',#1556,#984);
#880=LINE('',#1562,#985);
#881=LINE('',#1563,#986);
#882=LINE('',#1567,#987);
#883=LINE('',#1569,#988);
#884=LINE('',#1571,#989);
#885=LINE('',#1573,#990);
#886=LINE('',#1576,#991);
#887=LINE('',#1577,#992);
#888=LINE('',#1579,#993);
#889=LINE('',#1581,#994);
#890=LINE('',#1583,#995);
#891=LINE('',#1585,#996);
#892=LINE('',#1588,#997);
#893=LINE('',#1589,#998);
#894=LINE('',#1600,#999);
#895=LINE('',#1602,#1000);
#896=LINE('',#1604,#1001);
#897=LINE('',#1606,#1002);
#898=LINE('',#1608,#1003);
#899=LINE('',#1610,#1004);
#900=LINE('',#1612,#1005);
#901=LINE('',#1615,#1006);
#902=LINE('',#1616,#1007);
#903=LINE('',#1620,#1008);
#904=LINE('',#1625,#1009);
#905=LINE('',#1629,#1010);
#906=LINE('',#1633,#1011);
#907=LINE('',#1638,#1012);
#908=LINE('',#1644,#1013);
#909=LINE('',#1645,#1014);
#910=LINE('',#1651,#1015);
#911=LINE('',#1654,#1016);
#912=LINE('',#1655,#1017);
#913=LINE('',#1657,#1018);
#914=LINE('',#1659,#1019);
#915=LINE('',#1661,#1020);
#916=LINE('',#1663,#1021);
#917=LINE('',#1666,#1022);
#918=LINE('',#1667,#1023);
#919=LINE('',#1669,#1024);
#920=LINE('',#1671,#1025);
#921=LINE('',#1673,#1026);
#922=LINE('',#1684,#1027);
#923=LINE('',#1686,#1028);
#924=LINE('',#1688,#1029);
#925=LINE('',#1690,#1030);
#926=LINE('',#1693,#1031);
#927=LINE('',#1694,#1032);
#928=LINE('',#1696,#1033);
#929=LINE('',#1698,#1034);
#930=LINE('',#1700,#1035);
#931=LINE('',#1704,#1036);
#932=LINE('',#1710,#1037);
#933=LINE('',#1711,#1038);
#934=VECTOR('',#1135,1.);
#935=VECTOR('',#1136,1.);
#936=VECTOR('',#1137,1.);
#937=VECTOR('',#1138,1.);
#938=VECTOR('',#1139,1.);
#939=VECTOR('',#1142,1.);
#940=VECTOR('',#1145,1.);
#941=VECTOR('',#1148,1.);
#942=VECTOR('',#1151,1.);
#943=VECTOR('',#1154,1.);
#944=VECTOR('',#1157,1.);
#945=VECTOR('',#1160,1.);
#946=VECTOR('',#1163,1.);
#947=VECTOR('',#1166,1.);
#948=VECTOR('',#1167,1.);
#949=VECTOR('',#1168,1.);
#950=VECTOR('',#1169,1.);
#951=VECTOR('',#1170,1.);
#952=VECTOR('',#1171,1.);
#953=VECTOR('',#1174,1.);
#954=VECTOR('',#1179,1.);
#955=VECTOR('',#1180,1.);
#956=VECTOR('',#1181,1.);
#957=VECTOR('',#1182,1.);
#958=VECTOR('',#1183,1.);
#959=VECTOR('',#1186,1.);
#960=VECTOR('',#1187,1.);
#961=VECTOR('',#1188,1.);
#962=VECTOR('',#1189,1.);
#963=VECTOR('',#1190,1.);
#964=VECTOR('',#1191,1.);
#965=VECTOR('',#1194,1.);
#966=VECTOR('',#1195,1.);
#967=VECTOR('',#1196,1.);
#968=VECTOR('',#1197,1.);
#969=VECTOR('',#1198,1.);
#970=VECTOR('',#1201,1.);
#971=VECTOR('',#1204,1.);
#972=VECTOR('',#1207,1.);
#973=VECTOR('',#1208,1.);
#974=VECTOR('',#1211,1.);
#975=VECTOR('',#1214,1.);
#976=VECTOR('',#1219,1.);
#977=VECTOR('',#1220,1.);
#978=VECTOR('',#1223,1.);
#979=VECTOR('',#1224,1.);
#980=VECTOR('',#1227,1.);
#981=VECTOR('',#1230,1.);
#982=VECTOR('',#1233,1.);
#983=VECTOR('',#1236,1.);
#984=VECTOR('',#1239,1.);
#985=VECTOR('',#1246,1.);
#986=VECTOR('',#1247,1.);
#987=VECTOR('',#1254,1.);
#988=VECTOR('',#1255,1.);
#989=VECTOR('',#1256,1.);
#990=VECTOR('',#1259,1.);
#991=VECTOR('',#1260,1.);
#992=VECTOR('',#1261,1.);
#993=VECTOR('',#1264,1.);
#994=VECTOR('',#1265,1.);
#995=VECTOR('',#1266,1.);
#996=VECTOR('',#1269,1.);
#997=VECTOR('',#1270,1.);
#998=VECTOR('',#1271,1.);
#999=VECTOR('',#1292,1.);
#1000=VECTOR('',#1293,1.);
#1001=VECTOR('',#1294,1.);
#1002=VECTOR('',#1297,1.);
#1003=VECTOR('',#1298,1.);
#1004=VECTOR('',#1299,1.);
#1005=VECTOR('',#1302,1.);
#1006=VECTOR('',#1303,1.);
#1007=VECTOR('',#1304,1.);
#1008=VECTOR('',#1309,1.);
#1009=VECTOR('',#1312,1.);
#1010=VECTOR('',#1315,1.);
#1011=VECTOR('',#1318,1.);
#1012=VECTOR('',#1323,1.);
#1013=VECTOR('',#1332,1.);
#1014=VECTOR('',#1333,1.);
#1015=VECTOR('',#1344,1.);
#1016=VECTOR('',#1345,1.);
#1017=VECTOR('',#1346,1.);
#1018=VECTOR('',#1349,1.);
#1019=VECTOR('',#1350,1.);
#1020=VECTOR('',#1351,1.);
#1021=VECTOR('',#1354,1.);
#1022=VECTOR('',#1355,1.);
#1023=VECTOR('',#1356,1.);
#1024=VECTOR('',#1359,1.);
#1025=VECTOR('',#1360,1.);
#1026=VECTOR('',#1361,1.);
#1027=VECTOR('',#1382,1.);
#1028=VECTOR('',#1383,1.);
#1029=VECTOR('',#1384,1.);
#1030=VECTOR('',#1387,1.);
#1031=VECTOR('',#1388,1.);
#1032=VECTOR('',#1389,1.);
#1033=VECTOR('',#1392,1.);
#1034=VECTOR('',#1393,1.);
#1035=VECTOR('',#1394,1.);
#1036=VECTOR('',#1399,1.);
#1037=VECTOR('',#1408,1.);
#1038=VECTOR('',#1409,1.);
#1039=AXIS2_PLACEMENT_3D('',#1426,#1133,#1134);
#1040=AXIS2_PLACEMENT_3D('',#1437,#1140,#1141);
#1041=AXIS2_PLACEMENT_3D('',#1441,#1143,#1144);
#1042=AXIS2_PLACEMENT_3D('',#1445,#1146,#1147);
#1043=AXIS2_PLACEMENT_3D('',#1449,#1149,#1150);
#1044=AXIS2_PLACEMENT_3D('',#1453,#1152,#1153);
#1045=AXIS2_PLACEMENT_3D('',#1457,#1155,#1156);
#1046=AXIS2_PLACEMENT_3D('',#1461,#1158,#1159);
#1047=AXIS2_PLACEMENT_3D('',#1465,#1161,#1162);
#1048=AXIS2_PLACEMENT_3D('',#1469,#1164,#1165);
#1049=AXIS2_PLACEMENT_3D('',#1482,#1172,#1173);
#1050=AXIS2_PLACEMENT_3D('',#1486,#1175,#1176);
#1051=AXIS2_PLACEMENT_3D('',#1487,#1177,#1178);
#1052=AXIS2_PLACEMENT_3D('',#1497,#1184,#1185);
#1053=AXIS2_PLACEMENT_3D('',#1509,#1192,#1193);
#1054=AXIS2_PLACEMENT_3D('',#1519,#1199,#1200);
#1055=AXIS2_PLACEMENT_3D('',#1521,#1202,#1203);
#1056=AXIS2_PLACEMENT_3D('',#1523,#1205,#1206);
#1057=AXIS2_PLACEMENT_3D('',#1526,#1209,#1210);
#1058=AXIS2_PLACEMENT_3D('',#1528,#1212,#1213);
#1059=AXIS2_PLACEMENT_3D('',#1530,#1215,#1216);
#1060=AXIS2_PLACEMENT_3D('',#1531,#1217,#1218);
#1061=AXIS2_PLACEMENT_3D('',#1535,#1221,#1222);
#1062=AXIS2_PLACEMENT_3D('',#1539,#1225,#1226);
#1063=AXIS2_PLACEMENT_3D('',#1543,#1228,#1229);
#1064=AXIS2_PLACEMENT_3D('',#1547,#1231,#1232);
#1065=AXIS2_PLACEMENT_3D('',#1551,#1234,#1235);
#1066=AXIS2_PLACEMENT_3D('',#1555,#1237,#1238);
#1067=AXIS2_PLACEMENT_3D('',#1559,#1240,#1241);
#1068=AXIS2_PLACEMENT_3D('',#1560,#1242,#1243);
#1069=AXIS2_PLACEMENT_3D('',#1561,#1244,#1245);
#1070=AXIS2_PLACEMENT_3D('',#1564,#1248,#1249);
#1071=AXIS2_PLACEMENT_3D('',#1565,#1250,#1251);
#1072=AXIS2_PLACEMENT_3D('',#1566,#1252,#1253);
#1073=AXIS2_PLACEMENT_3D('',#1572,#1257,#1258);
#1074=AXIS2_PLACEMENT_3D('',#1578,#1262,#1263);
#1075=AXIS2_PLACEMENT_3D('',#1584,#1267,#1268);
#1076=AXIS2_PLACEMENT_3D('',#1590,#1272,#1273);
#1077=AXIS2_PLACEMENT_3D('',#1591,#1274,#1275);
#1078=AXIS2_PLACEMENT_3D('',#1592,#1276,#1277);
#1079=AXIS2_PLACEMENT_3D('',#1593,#1278,#1279);
#1080=AXIS2_PLACEMENT_3D('',#1594,#1280,#1281);
#1081=AXIS2_PLACEMENT_3D('',#1595,#1282,#1283);
#1082=AXIS2_PLACEMENT_3D('',#1596,#1284,#1285);
#1083=AXIS2_PLACEMENT_3D('',#1597,#1286,#1287);
#1084=AXIS2_PLACEMENT_3D('',#1598,#1288,#1289);
#1085=AXIS2_PLACEMENT_3D('',#1599,#1290,#1291);
#1086=AXIS2_PLACEMENT_3D('',#1605,#1295,#1296);
#1087=AXIS2_PLACEMENT_3D('',#1611,#1300,#1301);
#1088=AXIS2_PLACEMENT_3D('',#1617,#1305,#1306);
#1089=AXIS2_PLACEMENT_3D('',#1618,#1307,#1308);
#1090=AXIS2_PLACEMENT_3D('',#1623,#1310,#1311);
#1091=AXIS2_PLACEMENT_3D('',#1627,#1313,#1314);
#1092=AXIS2_PLACEMENT_3D('',#1631,#1316,#1317);
#1093=AXIS2_PLACEMENT_3D('',#1635,#1319,#1320);
#1094=AXIS2_PLACEMENT_3D('',#1636,#1321,#1322);
#1095=AXIS2_PLACEMENT_3D('',#1640,#1324,#1325);
#1096=AXIS2_PLACEMENT_3D('',#1641,#1326,#1327);
#1097=AXIS2_PLACEMENT_3D('',#1642,#1328,#1329);
#1098=AXIS2_PLACEMENT_3D('',#1643,#1330,#1331);
#1099=AXIS2_PLACEMENT_3D('',#1646,#1334,#1335);
#1100=AXIS2_PLACEMENT_3D('',#1647,#1336,#1337);
#1101=AXIS2_PLACEMENT_3D('',#1648,#1338,#1339);
#1102=AXIS2_PLACEMENT_3D('',#1649,#1340,#1341);
#1103=AXIS2_PLACEMENT_3D('',#1650,#1342,#1343);
#1104=AXIS2_PLACEMENT_3D('',#1656,#1347,#1348);
#1105=AXIS2_PLACEMENT_3D('',#1662,#1352,#1353);
#1106=AXIS2_PLACEMENT_3D('',#1668,#1357,#1358);
#1107=AXIS2_PLACEMENT_3D('',#1674,#1362,#1363);
#1108=AXIS2_PLACEMENT_3D('',#1675,#1364,#1365);
#1109=AXIS2_PLACEMENT_3D('',#1676,#1366,#1367);
#1110=AXIS2_PLACEMENT_3D('',#1677,#1368,#1369);
#1111=AXIS2_PLACEMENT_3D('',#1678,#1370,#1371);
#1112=AXIS2_PLACEMENT_3D('',#1679,#1372,#1373);
#1113=AXIS2_PLACEMENT_3D('',#1680,#1374,#1375);
#1114=AXIS2_PLACEMENT_3D('',#1681,#1376,#1377);
#1115=AXIS2_PLACEMENT_3D('',#1682,#1378,#1379);
#1116=AXIS2_PLACEMENT_3D('',#1683,#1380,#1381);
#1117=AXIS2_PLACEMENT_3D('',#1689,#1385,#1386);
#1118=AXIS2_PLACEMENT_3D('',#1695,#1390,#1391);
#1119=AXIS2_PLACEMENT_3D('',#1701,#1395,#1396);
#1120=AXIS2_PLACEMENT_3D('',#1702,#1397,#1398);
#1121=AXIS2_PLACEMENT_3D('',#1706,#1400,#1401);
#1122=AXIS2_PLACEMENT_3D('',#1707,#1402,#1403);
#1123=AXIS2_PLACEMENT_3D('',#1708,#1404,#1405);
#1124=AXIS2_PLACEMENT_3D('',#1709,#1406,#1407);
#1125=AXIS2_PLACEMENT_3D('',#1712,#1410,#1411);
#1126=AXIS2_PLACEMENT_3D('',#1713,#1412,#1413);
#1127=AXIS2_PLACEMENT_3D('',#1714,#1414,#1415);
#1128=AXIS2_PLACEMENT_3D('',#1715,#1416,#1417);
#1129=AXIS2_PLACEMENT_3D('',#1716,#1418,#1419);
#1130=AXIS2_PLACEMENT_3D('',#1717,#1420,#1421);
#1131=AXIS2_PLACEMENT_3D('',#1719,#1422,#1423);
#1132=AXIS2_PLACEMENT_3D('',#1720,#1424,#1425);
#1133=DIRECTION('',(0.,0.,1.));
#1134=DIRECTION('',(1.,0.,0.));
#1135=DIRECTION('',(0.707106781186547,0.,0.707106781186548));
#1136=DIRECTION('',(0.,1.,0.));
#1137=DIRECTION('',(-0.707106781186547,0.,-0.707106781186548));
#1138=DIRECTION('',(-0.577350269189626,-0.577350269189626,-0.577350269189626));
#1139=DIRECTION('',(0.,-1.,0.));
#1140=DIRECTION('',(0.707106781186548,0.,-0.707106781186547));
#1141=DIRECTION('',(0.,1.,0.));
#1142=DIRECTION('',(1.,0.,0.));
#1143=DIRECTION('',(0.,0.,-1.));
#1144=DIRECTION('',(1.,0.,0.));
#1145=DIRECTION('',(0.,-1.,0.));
#1146=DIRECTION('',(0.,0.,-1.));
#1147=DIRECTION('',(1.,0.,0.));
#1148=DIRECTION('',(-1.,0.,0.));
#1149=DIRECTION('',(0.,0.,-1.));
#1150=DIRECTION('',(1.,0.,0.));
#1151=DIRECTION('',(0.,1.,0.));
#1152=DIRECTION('',(0.,0.,-1.));
#1153=DIRECTION('',(1.,0.,0.));
#1154=DIRECTION('',(1.,0.,0.));
#1155=DIRECTION('',(0.,0.,-1.));
#1156=DIRECTION('',(1.,0.,0.));
#1157=DIRECTION('',(0.,-1.,0.));
#1158=DIRECTION('',(0.,0.,-1.));
#1159=DIRECTION('',(1.,0.,0.));
#1160=DIRECTION('',(-1.,0.,0.));
#1161=DIRECTION('',(0.,0.,-1.));
#1162=DIRECTION('',(0.999999999999999,0.,0.));
#1163=DIRECTION('',(0.,1.,0.));
#1164=DIRECTION('',(0.,0.,-1.));
#1165=DIRECTION('',(0.999999999999999,0.,0.));
#1166=DIRECTION('',(1.,0.,0.));
#1167=DIRECTION('',(1.,0.,0.));
#1168=DIRECTION('',(0.,1.,0.));
#1169=DIRECTION('',(-1.,0.,0.));
#1170=DIRECTION('',(0.,-1.,0.));
#1171=DIRECTION('',(-1.,0.,0.));
#1172=DIRECTION('',(0.,0.,-1.));
#1173=DIRECTION('',(1.,0.,0.));
#1174=DIRECTION('',(0.,1.,0.));
#1175=DIRECTION('',(0.,0.,-1.));
#1176=DIRECTION('',(1.,0.,0.));
#1177=DIRECTION('',(0.,0.,1.));
#1178=DIRECTION('',(1.,0.,0.));
#1179=DIRECTION('',(0.,0.,1.));
#1180=DIRECTION('',(-0.707106781186548,0.,0.707106781186547));
#1181=DIRECTION('',(-1.,0.,0.));
#1182=DIRECTION('',(0.,0.,1.));
#1183=DIRECTION('',(1.,0.,0.));
#1184=DIRECTION('',(0.,-1.,0.));
#1185=DIRECTION('',(0.,0.,-1.));
#1186=DIRECTION('',(0.,0.,1.));
#1187=DIRECTION('',(0.,-1.,0.));
#1188=DIRECTION('',(0.,0.,1.));
#1189=DIRECTION('',(0.,1.,0.));
#1190=DIRECTION('',(0.,0.,1.));
#1191=DIRECTION('',(0.,-1.,0.));
#1192=DIRECTION('',(-1.,0.,0.));
#1193=DIRECTION('',(0.,0.,1.));
#1194=DIRECTION('',(1.,0.,0.));
#1195=DIRECTION('',(0.707106781186548,0.,-0.707106781186547));
#1196=DIRECTION('',(0.,0.,1.));
#1197=DIRECTION('',(-1.,0.,0.));
#1198=DIRECTION('',(0.707106781186547,0.,0.707106781186548));
#1199=DIRECTION('',(0.,1.,0.));
#1200=DIRECTION('',(0.,0.,1.));
#1201=DIRECTION('',(0.,1.,0.));
#1202=DIRECTION('',(0.,0.,-1.));
#1203=DIRECTION('',(-1.,0.,0.));
#1204=DIRECTION('',(0.,-1.,0.));
#1205=DIRECTION('',(1.,0.,0.));
#1206=DIRECTION('',(0.,0.,-1.));
#1207=DIRECTION('',(0.577350269189626,0.577350269189626,-0.577350269189625));
#1208=DIRECTION('',(0.577350269189626,-0.577350269189626,0.577350269189626));
#1209=DIRECTION('',(0.,-0.707106781186547,-0.707106781186547));
#1210=DIRECTION('',(1.,0.,0.));
#1211=DIRECTION('',(-0.577350269189626,0.577350269189626,0.577350269189625));
#1212=DIRECTION('',(0.,0.707106781186547,-0.707106781186547));
#1213=DIRECTION('',(-1.,0.,0.));
#1214=DIRECTION('',(-0.707106781186547,0.,-0.707106781186548));
#1215=DIRECTION('',(0.707106781186548,0.,-0.707106781186547));
#1216=DIRECTION('',(0.,1.,0.));
#1217=DIRECTION('',(-0.707106781186547,0.,-0.707106781186548));
#1218=DIRECTION('',(0.,-1.,0.));
#1219=DIRECTION('',(0.,0.,-1.));
#1220=DIRECTION('',(-1.,0.,0.));
#1221=DIRECTION('',(0.,-1.,0.));
#1222=DIRECTION('',(0.,0.,-1.));
#1223=DIRECTION('',(1.,0.,0.));
#1224=DIRECTION('',(0.,0.,1.));
#1225=DIRECTION('',(0.,1.,0.));
#1226=DIRECTION('',(0.,0.,1.));
#1227=DIRECTION('',(1.,0.,0.));
#1228=DIRECTION('',(0.,0.,-1.));
#1229=DIRECTION('',(-1.,0.,0.));
#1230=DIRECTION('',(0.,-1.,0.));
#1231=DIRECTION('',(0.,0.,-1.));
#1232=DIRECTION('',(-1.,0.,0.));
#1233=DIRECTION('',(-1.,0.,0.));
#1234=DIRECTION('',(0.,0.,-1.));
#1235=DIRECTION('',(-1.,0.,0.));
#1236=DIRECTION('',(0.,1.,0.));
#1237=DIRECTION('',(0.,0.,-1.));
#1238=DIRECTION('',(-1.,0.,0.));
#1239=DIRECTION('',(0.,-1.,0.));
#1240=DIRECTION('',(0.,0.,1.));
#1241=DIRECTION('',(-1.,0.,0.));
#1242=DIRECTION('',(0.,0.,1.));
#1243=DIRECTION('',(-1.,0.,0.));
#1244=DIRECTION('',(0.,0.,-1.));
#1245=DIRECTION('',(-1.,0.,0.));
#1246=DIRECTION('',(0.,0.,-1.));
#1247=DIRECTION('',(0.,0.,1.));
#1248=DIRECTION('',(1.,0.,0.));
#1249=DIRECTION('',(0.,0.,-1.));
#1250=DIRECTION('',(0.,0.,1.));
#1251=DIRECTION('',(1.,0.,0.));
#1252=DIRECTION('',(0.,0.,1.));
#1253=DIRECTION('',(1.,0.,0.));
#1254=DIRECTION('',(0.,0.,-1.));
#1255=DIRECTION('',(-1.,0.,0.));
#1256=DIRECTION('',(0.,0.,1.));
#1257=DIRECTION('',(0.,-1.,0.));
#1258=DIRECTION('',(0.,0.,-1.));
#1259=DIRECTION('',(0.,1.,0.));
#1260=DIRECTION('',(0.,0.,1.));
#1261=DIRECTION('',(0.,0.,-1.));
#1262=DIRECTION('',(-1.,0.,0.));
#1263=DIRECTION('',(0.,0.,1.));
#1264=DIRECTION('',(0.,0.,-1.));
#1265=DIRECTION('',(1.,0.,0.));
#1266=DIRECTION('',(0.,0.,1.));
#1267=DIRECTION('',(0.,1.,0.));
#1268=DIRECTION('',(0.,0.,1.));
#1269=DIRECTION('',(0.,-1.,0.));
#1270=DIRECTION('',(0.,0.,1.));
#1271=DIRECTION('',(0.,0.,-1.));
#1272=DIRECTION('',(1.,0.,0.));
#1273=DIRECTION('',(0.,0.,-1.));
#1274=DIRECTION('',(0.,0.,1.));
#1275=DIRECTION('',(-1.,0.,0.));
#1276=DIRECTION('',(0.,0.,1.));
#1277=DIRECTION('',(-1.,0.,0.));
#1278=DIRECTION('',(0.,0.,1.));
#1279=DIRECTION('',(-1.,0.,0.));
#1280=DIRECTION('',(0.,0.,1.));
#1281=DIRECTION('',(-1.,0.,0.));
#1282=DIRECTION('',(0.,0.,-1.));
#1283=DIRECTION('',(-1.,0.,0.));
#1284=DIRECTION('',(0.,0.,1.));
#1285=DIRECTION('',(1.,0.,0.));
#1286=DIRECTION('',(0.,0.,1.));
#1287=DIRECTION('',(1.,0.,0.));
#1288=DIRECTION('',(0.,0.,1.));
#1289=DIRECTION('',(1.,0.,0.));
#1290=DIRECTION('',(0.,0.,1.));
#1291=DIRECTION('',(1.,0.,0.));
#1292=DIRECTION('',(0.,0.,-1.));
#1293=DIRECTION('',(-1.,0.,0.));
#1294=DIRECTION('',(0.,0.,1.));
#1295=DIRECTION('',(0.,-1.,0.));
#1296=DIRECTION('',(0.,0.,-1.));
#1297=DIRECTION('',(0.,0.,-1.));
#1298=DIRECTION('',(0.,1.,0.));
#1299=DIRECTION('',(0.,0.,1.));
#1300=DIRECTION('',(-1.,0.,0.));
#1301=DIRECTION('',(0.,0.,1.));
#1302=DIRECTION('',(1.,0.,0.));
#1303=DIRECTION('',(0.,0.,1.));
#1304=DIRECTION('',(0.,0.,-1.));
#1305=DIRECTION('',(0.,1.,0.));
#1306=DIRECTION('',(0.,0.,1.));
#1307=DIRECTION('',(0.,0.,-1.));
#1308=DIRECTION('',(-1.,0.,0.));
#1309=DIRECTION('',(1.,0.,0.));
#1310=DIRECTION('',(0.,0.,-1.));
#1311=DIRECTION('',(-1.,0.,0.));
#1312=DIRECTION('',(0.,-1.,0.));
#1313=DIRECTION('',(0.,0.,-1.));
#1314=DIRECTION('',(-1.,0.,0.));
#1315=DIRECTION('',(-1.,0.,0.));
#1316=DIRECTION('',(0.,0.,-1.));
#1317=DIRECTION('',(-1.,0.,0.));
#1318=DIRECTION('',(0.,1.,0.));
#1319=DIRECTION('',(0.,0.,-1.));
#1320=DIRECTION('',(-1.,0.,0.));
#1321=DIRECTION('',(0.,0.,1.));
#1322=DIRECTION('',(-0.999999999999999,0.,0.));
#1323=DIRECTION('',(0.,-1.,0.));
#1324=DIRECTION('',(0.,0.,1.));
#1325=DIRECTION('',(-0.999999999999999,0.,0.));
#1326=DIRECTION('',(0.,0.,1.));
#1327=DIRECTION('',(-1.,0.,0.));
#1328=DIRECTION('',(0.,0.,1.));
#1329=DIRECTION('',(-1.,0.,0.));
#1330=DIRECTION('',(0.,0.,-1.));
#1331=DIRECTION('',(-1.,0.,0.));
#1332=DIRECTION('',(0.,0.,1.));
#1333=DIRECTION('',(0.,0.,-1.));
#1334=DIRECTION('',(1.,0.,0.));
#1335=DIRECTION('',(0.,0.,-1.));
#1336=DIRECTION('',(0.,0.,1.));
#1337=DIRECTION('',(0.999999999999999,0.,0.));
#1338=DIRECTION('',(0.,0.,1.));
#1339=DIRECTION('',(0.999999999999999,0.,0.));
#1340=DIRECTION('',(0.,0.,1.));
#1341=DIRECTION('',(1.,0.,0.));
#1342=DIRECTION('',(0.,0.,1.));
#1343=DIRECTION('',(1.,0.,0.));
#1344=DIRECTION('',(-1.,0.,0.));
#1345=DIRECTION('',(0.,0.,1.));
#1346=DIRECTION('',(0.,0.,-1.));
#1347=DIRECTION('',(0.,-1.,0.));
#1348=DIRECTION('',(0.,0.,-1.));
#1349=DIRECTION('',(0.,0.,-1.));
#1350=DIRECTION('',(0.,1.,0.));
#1351=DIRECTION('',(0.,0.,1.));
#1352=DIRECTION('',(-1.,0.,0.));
#1353=DIRECTION('',(0.,0.,1.));
#1354=DIRECTION('',(1.,0.,0.));
#1355=DIRECTION('',(0.,0.,1.));
#1356=DIRECTION('',(0.,0.,-1.));
#1357=DIRECTION('',(0.,1.,0.));
#1358=DIRECTION('',(0.,0.,1.));
#1359=DIRECTION('',(0.,0.,-1.));
#1360=DIRECTION('',(0.,-1.,0.));
#1361=DIRECTION('',(0.,0.,1.));
#1362=DIRECTION('',(1.,0.,0.));
#1363=DIRECTION('',(0.,0.,-1.));
#1364=DIRECTION('',(0.,0.,1.));
#1365=DIRECTION('',(-1.,0.,0.));
#1366=DIRECTION('',(0.,0.,1.));
#1367=DIRECTION('',(-1.,0.,0.));
#1368=DIRECTION('',(0.,0.,1.));
#1369=DIRECTION('',(-1.,0.,0.));
#1370=DIRECTION('',(0.,0.,1.));
#1371=DIRECTION('',(-1.,0.,0.));
#1372=DIRECTION('',(0.,0.,-1.));
#1373=DIRECTION('',(-1.,0.,0.));
#1374=DIRECTION('',(0.,0.,1.));
#1375=DIRECTION('',(1.,0.,0.));
#1376=DIRECTION('',(0.,0.,1.));
#1377=DIRECTION('',(1.,0.,0.));
#1378=DIRECTION('',(0.,0.,1.));
#1379=DIRECTION('',(1.,0.,0.));
#1380=DIRECTION('',(0.,0.,1.));
#1381=DIRECTION('',(1.,0.,0.));
#1382=DIRECTION('',(0.,0.,-1.));
#1383=DIRECTION('',(-1.,0.,0.));
#1384=DIRECTION('',(0.,0.,1.));
#1385=DIRECTION('',(0.,-1.,0.));
#1386=DIRECTION('',(0.,0.,-1.));
#1387=DIRECTION('',(0.,1.,0.));
#1388=DIRECTION('',(0.,0.,1.));
#1389=DIRECTION('',(0.,0.,-1.));
#1390=DIRECTION('',(-1.,0.,0.));
#1391=DIRECTION('',(0.,0.,1.));
#1392=DIRECTION('',(0.,0.,-1.));
#1393=DIRECTION('',(1.,0.,0.));
#1394=DIRECTION('',(0.,0.,1.));
#1395=DIRECTION('',(0.,1.,0.));
#1396=DIRECTION('',(0.,0.,1.));
#1397=DIRECTION('',(0.,0.,1.));
#1398=DIRECTION('',(-1.,0.,0.));
#1399=DIRECTION('',(0.,-1.,0.));
#1400=DIRECTION('',(0.,0.,1.));
#1401=DIRECTION('',(-1.,0.,0.));
#1402=DIRECTION('',(0.,0.,1.));
#1403=DIRECTION('',(-1.,0.,0.));
#1404=DIRECTION('',(0.,0.,1.));
#1405=DIRECTION('',(-1.,0.,0.));
#1406=DIRECTION('',(0.,0.,-1.));
#1407=DIRECTION('',(-1.,0.,0.));
#1408=DIRECTION('',(0.,0.,1.));
#1409=DIRECTION('',(0.,0.,-1.));
#1410=DIRECTION('',(1.,0.,0.));
#1411=DIRECTION('',(0.,0.,-1.));
#1412=DIRECTION('',(0.,0.,1.));
#1413=DIRECTION('',(1.,0.,0.));
#1414=DIRECTION('',(0.,0.,1.));
#1415=DIRECTION('',(1.,0.,0.));
#1416=DIRECTION('',(0.,0.,1.));
#1417=DIRECTION('',(1.,0.,0.));
#1418=DIRECTION('',(0.,0.,1.));
#1419=DIRECTION('',(1.,0.,0.));
#1420=DIRECTION('',(0.,0.,-1.));
#1421=DIRECTION('',(1.,0.,0.));
#1422=DIRECTION('',(0.,0.,-1.));
#1423=DIRECTION('',(1.,0.,0.));
#1424=DIRECTION('',(0.,0.,-1.));
#1425=DIRECTION('',(-1.,0.,0.));
#1426=CARTESIAN_POINT('',(0.,0.,0.));
#1427=CARTESIAN_POINT('',(0.,109.8,61.3));
#1428=CARTESIAN_POINT('',(0.,109.8,61.3));
#1429=CARTESIAN_POINT('',(9.99999999999999,109.8,71.3));
#1430=CARTESIAN_POINT('',(0.,113.6,61.3));
#1431=CARTESIAN_POINT('',(0.,0.,61.3));
#1432=CARTESIAN_POINT('',(29.775,0.,91.075));
#1433=CARTESIAN_POINT('',(6.39999999999999,0.,67.7));
#1434=CARTESIAN_POINT('',(44.5499999999999,38.15,105.85));
#1435=CARTESIAN_POINT('',(9.99999999999999,3.60000000000001,71.3));
#1436=CARTESIAN_POINT('',(9.99999999999999,113.6,71.3));
#1437=CARTESIAN_POINT('',(0.,113.6,61.3));
#1438=CARTESIAN_POINT('',(120.85,111.,71.3));
#1439=CARTESIAN_POINT('',(158.,111.,71.3));
#1440=CARTESIAN_POINT('',(203.1,111.,71.3));
#1441=CARTESIAN_POINT('',(158.,118.5,71.3));
#1442=CARTESIAN_POINT('',(150.5,118.5,71.3));
#1443=CARTESIAN_POINT('',(150.5,113.6,71.3));
#1444=CARTESIAN_POINT('',(150.5,150.7,71.3));
#1445=CARTESIAN_POINT('',(158.,150.7,71.3));
#1446=CARTESIAN_POINT('',(158.,158.2,71.3));
#1447=CARTESIAN_POINT('',(120.85,158.2,71.3));
#1448=CARTESIAN_POINT('',(203.1,158.2,71.3));
#1449=CARTESIAN_POINT('',(203.1,150.7,71.3));
#1450=CARTESIAN_POINT('',(210.6,150.7,71.3));
#1451=CARTESIAN_POINT('',(210.6,113.6,71.3));
#1452=CARTESIAN_POINT('',(210.6,118.5,71.3));
#1453=CARTESIAN_POINT('',(203.1,118.5,71.3));
#1454=CARTESIAN_POINT('',(120.85,33.9,71.3));
#1455=CARTESIAN_POINT('',(39.8,33.9,71.3));
#1456=CARTESIAN_POINT('',(109.3,33.9,71.3));
#1457=CARTESIAN_POINT('',(39.8,45.8,71.3));
#1458=CARTESIAN_POINT('',(27.9,45.8,71.3));
#1459=CARTESIAN_POINT('',(27.9,113.6,71.3));
#1460=CARTESIAN_POINT('',(27.9,81.1,71.3));
#1461=CARTESIAN_POINT('',(39.8,81.1,71.3));
#1462=CARTESIAN_POINT('',(39.8,93.,71.3));
#1463=CARTESIAN_POINT('',(120.85,93.,71.3));
#1464=CARTESIAN_POINT('',(109.3,93.,71.3));
#1465=CARTESIAN_POINT('',(109.3,81.1,71.3));
#1466=CARTESIAN_POINT('',(121.2,81.1,71.3));
#1467=CARTESIAN_POINT('',(121.2,113.6,71.3));
#1468=CARTESIAN_POINT('',(121.2,45.8,71.3));
#1469=CARTESIAN_POINT('',(109.3,45.8,71.3));
#1470=CARTESIAN_POINT('',(120.85,109.8,71.3));
#1471=CARTESIAN_POINT('',(41.5,109.8,71.3));
#1472=CARTESIAN_POINT('',(120.85,3.60000000000001,71.3));
#1473=CARTESIAN_POINT('',(232.5,3.60000000000001,71.3));
#1474=CARTESIAN_POINT('',(232.5,113.6,71.3));
#1475=CARTESIAN_POINT('',(232.5,220.2,71.3));
#1476=CARTESIAN_POINT('',(120.85,220.2,71.3));
#1477=CARTESIAN_POINT('',(9.99999999999999,220.2,71.3));
#1478=CARTESIAN_POINT('',(9.99999999999999,113.6,71.3));
#1479=CARTESIAN_POINT('',(9.99999999999999,194.9,71.3));
#1480=CARTESIAN_POINT('',(120.85,194.9,71.3));
#1481=CARTESIAN_POINT('',(41.5,194.9,71.3));
#1482=CARTESIAN_POINT('',(41.5,183.8,71.3));
#1483=CARTESIAN_POINT('',(52.6,183.8,71.3));
#1484=CARTESIAN_POINT('',(52.6,113.6,71.3));
#1485=CARTESIAN_POINT('',(52.6,120.9,71.3));
#1486=CARTESIAN_POINT('',(41.5,120.9,71.3));
#1487=CARTESIAN_POINT('',(120.85,113.6,71.3));
#1488=CARTESIAN_POINT('',(241.7,0.,0.));
#1489=CARTESIAN_POINT('',(241.7,0.,0.));
#1490=CARTESIAN_POINT('',(241.7,0.,62.1));
#1491=CARTESIAN_POINT('',(212.325,0.,91.475));
#1492=CARTESIAN_POINT('',(236.1,0.,67.7));
#1493=CARTESIAN_POINT('',(120.85,0.,67.7));
#1494=CARTESIAN_POINT('',(0.,0.,0.));
#1495=CARTESIAN_POINT('',(0.,0.,0.));
#1496=CARTESIAN_POINT('',(120.85,0.,0.));
#1497=CARTESIAN_POINT('',(120.85,0.,0.));
#1498=CARTESIAN_POINT('',(0.,109.8,47.));
#1499=CARTESIAN_POINT('',(0.,109.8,47.));
#1500=CARTESIAN_POINT('',(0.,152.35,47.));
#1501=CARTESIAN_POINT('',(0.,194.9,47.));
#1502=CARTESIAN_POINT('',(0.,194.9,47.));
#1503=CARTESIAN_POINT('',(-1.73472347597681E-15,194.9,61.3));
#1504=CARTESIAN_POINT('',(0.,113.6,61.3));
#1505=CARTESIAN_POINT('',(0.,227.2,61.3));
#1506=CARTESIAN_POINT('',(0.,227.2,0.));
#1507=CARTESIAN_POINT('',(0.,227.2,0.));
#1508=CARTESIAN_POINT('',(0.,113.6,0.));
#1509=CARTESIAN_POINT('',(0.,113.6,0.));
#1510=CARTESIAN_POINT('',(120.85,227.2,64.3));
#1511=CARTESIAN_POINT('',(2.99999999999999,227.2,64.3));
#1512=CARTESIAN_POINT('',(239.5,227.2,64.3));
#1513=CARTESIAN_POINT('',(212.325,227.2,91.475));
#1514=CARTESIAN_POINT('',(241.7,227.2,62.1));
#1515=CARTESIAN_POINT('',(241.7,227.2,0.));
#1516=CARTESIAN_POINT('',(241.7,227.2,0.));
#1517=CARTESIAN_POINT('',(120.85,227.2,0.));
#1518=CARTESIAN_POINT('',(29.775,227.2,91.075));
#1519=CARTESIAN_POINT('',(120.85,227.2,0.));
#1520=CARTESIAN_POINT('',(241.7,113.6,0.));
#1521=CARTESIAN_POINT('',(120.85,113.6,0.));
#1522=CARTESIAN_POINT('',(241.7,113.6,62.1));
#1523=CARTESIAN_POINT('',(241.7,113.6,0.));
#1524=CARTESIAN_POINT('',(199.95,187.65,103.85));
#1525=CARTESIAN_POINT('',(42.2833333333333,187.916666666667,103.583333333333));
#1526=CARTESIAN_POINT('',(120.85,227.2,64.3));
#1527=CARTESIAN_POINT('',(197.683333333333,38.4166666666667,106.116666666667));
#1528=CARTESIAN_POINT('',(120.85,0.,67.7));
#1529=CARTESIAN_POINT('',(0.,194.9,61.3));
#1530=CARTESIAN_POINT('',(0.,113.6,61.3));
#1531=CARTESIAN_POINT('',(241.7,113.6,62.1));
#1532=CARTESIAN_POINT('',(41.5,109.8,47.));
#1533=CARTESIAN_POINT('',(41.5,109.8,47.));
#1534=CARTESIAN_POINT('',(26.3,109.8,47.));
#1535=CARTESIAN_POINT('',(26.3,109.8,47.));
#1536=CARTESIAN_POINT('',(26.3,194.9,47.));
#1537=CARTESIAN_POINT('',(41.5,194.9,47.));
#1538=CARTESIAN_POINT('',(41.5,194.9,71.3));
#1539=CARTESIAN_POINT('',(26.3,194.9,47.));
#1540=CARTESIAN_POINT('',(26.3,163.9,47.));
#1541=CARTESIAN_POINT('',(25.2,163.9,47.));
#1542=CARTESIAN_POINT('',(27.4,163.9,47.));
#1543=CARTESIAN_POINT('',(27.4,153.9,47.));
#1544=CARTESIAN_POINT('',(37.4,153.9,47.));
#1545=CARTESIAN_POINT('',(37.4,152.35,47.));
#1546=CARTESIAN_POINT('',(37.4,142.4,47.));
#1547=CARTESIAN_POINT('',(27.4,142.4,47.));
#1548=CARTESIAN_POINT('',(27.4,132.4,47.));
#1549=CARTESIAN_POINT('',(26.3,132.4,47.));
#1550=CARTESIAN_POINT('',(25.2,132.4,47.));
#1551=CARTESIAN_POINT('',(25.2,142.4,47.));
#1552=CARTESIAN_POINT('',(15.2,142.4,47.));
#1553=CARTESIAN_POINT('',(15.2,152.35,47.));
#1554=CARTESIAN_POINT('',(15.2,153.9,47.));
#1555=CARTESIAN_POINT('',(25.2,153.9,47.));
#1556=CARTESIAN_POINT('',(52.6,152.35,47.));
#1557=CARTESIAN_POINT('',(52.6,183.8,47.));
#1558=CARTESIAN_POINT('',(52.6,120.9,47.));
#1559=CARTESIAN_POINT('',(41.5,183.8,47.));
#1560=CARTESIAN_POINT('',(41.5,120.9,47.));
#1561=CARTESIAN_POINT('',(26.3,152.35,47.));
#1562=CARTESIAN_POINT('',(52.6,183.8,47.));
#1563=CARTESIAN_POINT('',(52.6,120.9,71.3));
#1564=CARTESIAN_POINT('',(52.6,152.35,47.));
#1565=CARTESIAN_POINT('',(41.5,183.8,47.));
#1566=CARTESIAN_POINT('',(41.5,120.9,47.));
#1567=CARTESIAN_POINT('',(27.4,132.4,39.));
#1568=CARTESIAN_POINT('',(27.4,132.4,39.));
#1569=CARTESIAN_POINT('',(26.3,132.4,39.));
#1570=CARTESIAN_POINT('',(25.2,132.4,39.));
#1571=CARTESIAN_POINT('',(25.2,132.4,47.));
#1572=CARTESIAN_POINT('',(26.3,132.4,39.));
#1573=CARTESIAN_POINT('',(15.2,148.15,39.));
#1574=CARTESIAN_POINT('',(15.2,142.4,39.));
#1575=CARTESIAN_POINT('',(15.2,153.9,39.));
#1576=CARTESIAN_POINT('',(15.2,153.9,47.));
#1577=CARTESIAN_POINT('',(15.2,142.4,39.));
#1578=CARTESIAN_POINT('',(15.2,148.15,39.));
#1579=CARTESIAN_POINT('',(25.2,163.9,39.));
#1580=CARTESIAN_POINT('',(25.2,163.9,39.));
#1581=CARTESIAN_POINT('',(26.3,163.9,39.));
#1582=CARTESIAN_POINT('',(27.4,163.9,39.));
#1583=CARTESIAN_POINT('',(27.4,163.9,47.));
#1584=CARTESIAN_POINT('',(26.3,163.9,39.));
#1585=CARTESIAN_POINT('',(37.4,148.15,39.));
#1586=CARTESIAN_POINT('',(37.4,153.9,39.));
#1587=CARTESIAN_POINT('',(37.4,142.4,39.));
#1588=CARTESIAN_POINT('',(37.4,142.4,47.));
#1589=CARTESIAN_POINT('',(37.4,153.9,39.));
#1590=CARTESIAN_POINT('',(37.4,148.15,39.));
#1591=CARTESIAN_POINT('',(25.2,153.9,39.));
#1592=CARTESIAN_POINT('',(25.2,142.4,39.));
#1593=CARTESIAN_POINT('',(27.4,142.4,39.));
#1594=CARTESIAN_POINT('',(27.4,153.9,39.));
#1595=CARTESIAN_POINT('',(26.3,148.15,39.));
#1596=CARTESIAN_POINT('',(25.2,153.9,39.));
#1597=CARTESIAN_POINT('',(27.4,142.4,39.));
#1598=CARTESIAN_POINT('',(25.2,142.4,39.));
#1599=CARTESIAN_POINT('',(27.4,153.9,39.));
#1600=CARTESIAN_POINT('',(109.3,33.9,37.));
#1601=CARTESIAN_POINT('',(109.3,33.9,37.));
#1602=CARTESIAN_POINT('',(74.55,33.9,37.));
#1603=CARTESIAN_POINT('',(39.8,33.9,37.));
#1604=CARTESIAN_POINT('',(39.8,33.9,71.3));
#1605=CARTESIAN_POINT('',(74.55,33.9,37.));
#1606=CARTESIAN_POINT('',(27.9,45.8,37.));
#1607=CARTESIAN_POINT('',(27.9,45.8,37.));
#1608=CARTESIAN_POINT('',(27.9,63.45,37.));
#1609=CARTESIAN_POINT('',(27.9,81.1,37.));
#1610=CARTESIAN_POINT('',(27.9,81.1,71.3));
#1611=CARTESIAN_POINT('',(27.9,63.45,37.));
#1612=CARTESIAN_POINT('',(74.55,93.,37.));
#1613=CARTESIAN_POINT('',(39.8,93.,37.));
#1614=CARTESIAN_POINT('',(109.3,93.,37.));
#1615=CARTESIAN_POINT('',(109.3,93.,71.3));
#1616=CARTESIAN_POINT('',(39.8,93.,37.));
#1617=CARTESIAN_POINT('',(74.55,93.,37.));
#1618=CARTESIAN_POINT('',(86.1,44.3,37.));
#1619=CARTESIAN_POINT('',(82.7,44.3,37.));
#1620=CARTESIAN_POINT('',(74.55,72.8,37.));
#1621=CARTESIAN_POINT('',(53.7,72.8,37.));
#1622=CARTESIAN_POINT('',(80.1,72.8,37.));
#1623=CARTESIAN_POINT('',(80.1,66.,37.));
#1624=CARTESIAN_POINT('',(86.9,66.,37.));
#1625=CARTESIAN_POINT('',(86.9,63.45,37.));
#1626=CARTESIAN_POINT('',(86.9,56.3,37.));
#1627=CARTESIAN_POINT('',(80.1,56.3,37.));
#1628=CARTESIAN_POINT('',(80.1,49.5,37.));
#1629=CARTESIAN_POINT('',(74.55,49.5,37.));
#1630=CARTESIAN_POINT('',(53.7,49.5,37.));
#1631=CARTESIAN_POINT('',(53.7,56.3,37.));
#1632=CARTESIAN_POINT('',(46.9,56.3,37.));
#1633=CARTESIAN_POINT('',(46.9,63.45,37.));
#1634=CARTESIAN_POINT('',(46.9,66.,37.));
#1635=CARTESIAN_POINT('',(53.7,66.,37.));
#1636=CARTESIAN_POINT('',(109.3,45.8,37.));
#1637=CARTESIAN_POINT('',(121.2,45.8,37.));
#1638=CARTESIAN_POINT('',(121.2,63.45,37.));
#1639=CARTESIAN_POINT('',(121.2,81.1,37.));
#1640=CARTESIAN_POINT('',(109.3,81.1,37.));
#1641=CARTESIAN_POINT('',(39.8,81.1,37.));
#1642=CARTESIAN_POINT('',(39.8,45.8,37.));
#1643=CARTESIAN_POINT('',(74.55,63.45,37.));
#1644=CARTESIAN_POINT('',(121.2,45.8,71.3));
#1645=CARTESIAN_POINT('',(121.2,81.1,37.));
#1646=CARTESIAN_POINT('',(121.2,63.45,37.));
#1647=CARTESIAN_POINT('',(109.3,45.8,37.));
#1648=CARTESIAN_POINT('',(109.3,81.1,37.));
#1649=CARTESIAN_POINT('',(39.8,45.8,37.));
#1650=CARTESIAN_POINT('',(39.8,81.1,37.));
#1651=CARTESIAN_POINT('',(66.9,49.5,33.4));
#1652=CARTESIAN_POINT('',(80.1,49.5,33.4));
#1653=CARTESIAN_POINT('',(53.7,49.5,33.4));
#1654=CARTESIAN_POINT('',(53.7,49.5,37.));
#1655=CARTESIAN_POINT('',(80.1,49.5,33.4));
#1656=CARTESIAN_POINT('',(66.9,49.5,33.4));
#1657=CARTESIAN_POINT('',(46.9,56.3,33.4));
#1658=CARTESIAN_POINT('',(46.9,56.3,33.4));
#1659=CARTESIAN_POINT('',(46.9,61.15,33.4));
#1660=CARTESIAN_POINT('',(46.9,66.,33.4));
#1661=CARTESIAN_POINT('',(46.9,66.,37.));
#1662=CARTESIAN_POINT('',(46.9,61.15,33.4));
#1663=CARTESIAN_POINT('',(66.9,72.8,33.4));
#1664=CARTESIAN_POINT('',(53.7,72.8,33.4));
#1665=CARTESIAN_POINT('',(80.1,72.8,33.4));
#1666=CARTESIAN_POINT('',(80.1,72.8,37.));
#1667=CARTESIAN_POINT('',(53.7,72.8,33.4));
#1668=CARTESIAN_POINT('',(66.9,72.8,33.4));
#1669=CARTESIAN_POINT('',(86.9,66.,33.4));
#1670=CARTESIAN_POINT('',(86.9,66.,33.4));
#1671=CARTESIAN_POINT('',(86.9,61.15,33.4));
#1672=CARTESIAN_POINT('',(86.9,56.3,33.4));
#1673=CARTESIAN_POINT('',(86.9,56.3,37.));
#1674=CARTESIAN_POINT('',(86.9,61.15,33.4));
#1675=CARTESIAN_POINT('',(53.7,56.3,33.4));
#1676=CARTESIAN_POINT('',(80.1,56.3,33.4));
#1677=CARTESIAN_POINT('',(80.1,66.,33.4));
#1678=CARTESIAN_POINT('',(53.7,66.,33.4));
#1679=CARTESIAN_POINT('',(66.9,61.15,33.4));
#1680=CARTESIAN_POINT('',(53.7,56.3,33.4));
#1681=CARTESIAN_POINT('',(80.1,66.,33.4));
#1682=CARTESIAN_POINT('',(80.1,56.3,33.4));
#1683=CARTESIAN_POINT('',(53.7,66.,33.4));
#1684=CARTESIAN_POINT('',(203.1,111.,42.2));
#1685=CARTESIAN_POINT('',(203.1,111.,42.2));
#1686=CARTESIAN_POINT('',(180.55,111.,42.2));
#1687=CARTESIAN_POINT('',(158.,111.,42.2));
#1688=CARTESIAN_POINT('',(158.,111.,71.3));
#1689=CARTESIAN_POINT('',(180.55,111.,42.2));
#1690=CARTESIAN_POINT('',(150.5,134.6,42.2));
#1691=CARTESIAN_POINT('',(150.5,118.5,42.2));
#1692=CARTESIAN_POINT('',(150.5,150.7,42.2));
#1693=CARTESIAN_POINT('',(150.5,150.7,71.3));
#1694=CARTESIAN_POINT('',(150.5,118.5,42.2));
#1695=CARTESIAN_POINT('',(150.5,134.6,42.2));
#1696=CARTESIAN_POINT('',(158.,158.2,42.2));
#1697=CARTESIAN_POINT('',(158.,158.2,42.2));
#1698=CARTESIAN_POINT('',(180.55,158.2,42.2));
#1699=CARTESIAN_POINT('',(203.1,158.2,42.2));
#1700=CARTESIAN_POINT('',(203.1,158.2,71.3));
#1701=CARTESIAN_POINT('',(180.55,158.2,42.2));
#1702=CARTESIAN_POINT('',(203.1,118.5,42.2));
#1703=CARTESIAN_POINT('',(210.6,118.5,42.2));
#1704=CARTESIAN_POINT('',(210.6,134.6,42.2));
#1705=CARTESIAN_POINT('',(210.6,150.7,42.2));
#1706=CARTESIAN_POINT('',(203.1,150.7,42.2));
#1707=CARTESIAN_POINT('',(158.,150.7,42.2));
#1708=CARTESIAN_POINT('',(158.,118.5,42.2));
#1709=CARTESIAN_POINT('',(180.55,134.6,42.2));
#1710=CARTESIAN_POINT('',(210.6,118.5,71.3));
#1711=CARTESIAN_POINT('',(210.6,150.7,42.2));
#1712=CARTESIAN_POINT('',(210.6,134.6,42.2));
#1713=CARTESIAN_POINT('',(203.1,118.5,42.2));
#1714=CARTESIAN_POINT('',(158.,150.7,42.2));
#1715=CARTESIAN_POINT('',(158.,118.5,42.2));
#1716=CARTESIAN_POINT('',(203.1,150.7,42.2));
#1717=CARTESIAN_POINT('',(86.1,44.3,27.9));
#1718=CARTESIAN_POINT('',(89.5,44.3,27.9));
#1719=CARTESIAN_POINT('',(86.1,44.3,71.35));
#1720=CARTESIAN_POINT('',(86.1,44.3,27.9));
#1721=MECHANICAL_DESIGN_GEOMETRIC_PRESENTATION_REPRESENTATION('',(#24),
#1722);
#1722=(
GEOMETRIC_REPRESENTATION_CONTEXT(3)
GLOBAL_UNCERTAINTY_ASSIGNED_CONTEXT((#1723))
GLOBAL_UNIT_ASSIGNED_CONTEXT((#1729,#1725,#1724))
REPRESENTATION_CONTEXT('featured_part_10792','TOP_LEVEL_ASSEMBLY_PART')
);
#1723=UNCERTAINTY_MEASURE_WITH_UNIT(LENGTH_MEASURE(2.E-5),#1729,
'DISTANCE_ACCURACY_VALUE','Maximum Tolerance applied to model');
#1724=(
NAMED_UNIT(*)
SI_UNIT($,.STERADIAN.)
SOLID_ANGLE_UNIT()
);
#1725=(
CONVERSION_BASED_UNIT('DEGREE',#1727)
NAMED_UNIT(#1726)
PLANE_ANGLE_UNIT()
);
#1726=DIMENSIONAL_EXPONENTS(0.,0.,0.,0.,0.,0.,0.);
#1727=PLANE_ANGLE_MEASURE_WITH_UNIT(PLANE_ANGLE_MEASURE(0.0174532925),#1728);
#1728=(
NAMED_UNIT(*)
PLANE_ANGLE_UNIT()
SI_UNIT($,.RADIAN.)
);
#1729=(
LENGTH_UNIT()
NAMED_UNIT(*)
SI_UNIT(.MILLI.,.METRE.)
);
ENDSEC;
END-ISO-10303-21;
