ISO-10303-21;
HEADER;
/* Generated by software containing ST-Developer
 * from STEP Tools, Inc. (www.steptools.com) 
 */
/* OPTION: using custom schema-name function */

FILE_DESCRIPTION(
/* description */ (''),
/* implementation_level */ '2;1');

FILE_NAME(
/* name */ 'featured_part_05644.stp',
/* time_stamp */ '2026-07-08T07:14:18-04:00',
/* author */ (''),
/* organization */ (''),
/* preprocessor_version */ 'ST-DEVELOPER v20.1',
/* originating_system */ 'SIEMENS PLM Software NX2512.6002',
/* authorisation */ '');

FILE_SCHEMA (('AUTOMOTIVE_DESIGN { 1 0 10303 214 3 1 1 1 }'));
ENDSEC;

DATA;
#10=SHAPE_REPRESENTATION_RELATIONSHIP('None',
'relationship between featured_part_05644-None and featured_part_05644
-None',#22,#11);
#11=ADVANCED_BREP_SHAPE_REPRESENTATION('featured_part_05644-None',(#32),
#596);
#12=SHAPE_DEFINITION_REPRESENTATION(#13,#22);
#13=PRODUCT_DEFINITION_SHAPE('','',#14);
#14=PRODUCT_DEFINITION(' ','',#16,#15);
#15=PRODUCT_DEFINITION_CONTEXT('part definition',#21,'design');
#16=PRODUCT_DEFINITION_FORMATION_WITH_SPECIFIED_SOURCE(' ',' ',#18,
 .NOT_KNOWN.);
#17=PRODUCT_RELATED_PRODUCT_CATEGORY('part','',(#18));
#18=PRODUCT('featured_part_05644','featured_part_05644',' ',(#19));
#19=PRODUCT_CONTEXT(' ',#21,'mechanical');
#20=APPLICATION_PROTOCOL_DEFINITION('international standard',
'automotive_design',2010,#21);
#21=APPLICATION_CONTEXT(
'core data for automotive mechanical design processes');
#22=SHAPE_REPRESENTATION('featured_part_05644-None',(#373),#596);
#23=PRESENTATION_LAYER_ASSIGNMENT('1','Layer 1',(#32));
#24=STYLED_ITEM('',(#25),#32);
#25=PRESENTATION_STYLE_ASSIGNMENT((#26));
#26=SURFACE_STYLE_USAGE(.BOTH.,#27);
#27=SURFACE_SIDE_STYLE('',(#28));
#28=SURFACE_STYLE_FILL_AREA(#29);
#29=FILL_AREA_STYLE('',(#30));
#30=FILL_AREA_STYLE_COLOUR('',#31);
#31=COLOUR_RGB('medium steel',0.611764705882353,0.658823529411765,0.670588235294118);
#32=MANIFOLD_SOLID_BREP('',#33);
#33=CLOSED_SHELL('',(#63,#64,#65,#66,#67,#68,#69,#70,#71,#72,#73,#74,#75,
#76,#77,#78,#79,#80,#81));
#34=CYLINDRICAL_SURFACE('',#397,6.);
#35=CYLINDRICAL_SURFACE('',#399,8.75);
#36=CYLINDRICAL_SURFACE('',#401,4.7);
#37=CYLINDRICAL_SURFACE('',#402,8.3);
#38=ELLIPSE('',#379,6.64680374315355,4.7);
#39=FACE_BOUND('',#110,.T.);
#40=FACE_BOUND('',#111,.T.);
#41=FACE_BOUND('',#117,.T.);
#42=FACE_BOUND('',#118,.T.);
#43=FACE_BOUND('',#119,.T.);
#44=FACE_BOUND('',#124,.T.);
#45=FACE_BOUND('',#125,.T.);
#46=FACE_BOUND('',#127,.T.);
#47=FACE_BOUND('',#128,.T.);
#48=FACE_BOUND('',#129,.T.);
#49=FACE_BOUND('',#130,.T.);
#50=FACE_BOUND('',#132,.T.);
#51=FACE_BOUND('',#133,.T.);
#52=FACE_BOUND('',#134,.T.);
#53=FACE_BOUND('',#135,.T.);
#54=CIRCLE('',#375,8.3);
#55=CIRCLE('',#376,4.7);
#56=CIRCLE('',#377,6.);
#57=CIRCLE('',#385,8.3);
#58=CIRCLE('',#386,4.7);
#59=CIRCLE('',#392,8.75);
#60=CIRCLE('',#393,8.3);
#61=CIRCLE('',#395,6.);
#62=CIRCLE('',#398,8.75);
#63=ADVANCED_FACE('',(#97),#82,.F.);
#64=ADVANCED_FACE('',(#39,#40),#83,.T.);
#65=ADVANCED_FACE('',(#98),#84,.F.);
#66=ADVANCED_FACE('',(#99),#85,.T.);
#67=ADVANCED_FACE('',(#100),#86,.T.);
#68=ADVANCED_FACE('',(#101),#87,.T.);
#69=ADVANCED_FACE('',(#102),#88,.T.);
#70=ADVANCED_FACE('',(#41,#42,#43),#89,.T.);
#71=ADVANCED_FACE('',(#103),#90,.T.);
#72=ADVANCED_FACE('',(#104),#91,.F.);
#73=ADVANCED_FACE('',(#105),#92,.F.);
#74=ADVANCED_FACE('',(#106),#93,.F.);
#75=ADVANCED_FACE('',(#44,#45),#94,.F.);
#76=ADVANCED_FACE('',(#107),#95,.F.);
#77=ADVANCED_FACE('',(#46,#47),#34,.F.);
#78=ADVANCED_FACE('',(#48,#49),#35,.F.);
#79=ADVANCED_FACE('',(#108),#96,.F.);
#80=ADVANCED_FACE('',(#50,#51),#36,.F.);
#81=ADVANCED_FACE('',(#52,#53),#37,.F.);
#82=PLANE('',#374);
#83=PLANE('',#378);
#84=PLANE('',#380);
#85=PLANE('',#381);
#86=PLANE('',#382);
#87=PLANE('',#383);
#88=PLANE('',#384);
#89=PLANE('',#387);
#90=PLANE('',#388);
#91=PLANE('',#389);
#92=PLANE('',#390);
#93=PLANE('',#391);
#94=PLANE('',#394);
#95=PLANE('',#396);
#96=PLANE('',#400);
#97=FACE_OUTER_BOUND('',#109,.T.);
#98=FACE_OUTER_BOUND('',#112,.T.);
#99=FACE_OUTER_BOUND('',#113,.T.);
#100=FACE_OUTER_BOUND('',#114,.T.);
#101=FACE_OUTER_BOUND('',#115,.T.);
#102=FACE_OUTER_BOUND('',#116,.T.);
#103=FACE_OUTER_BOUND('',#120,.T.);
#104=FACE_OUTER_BOUND('',#121,.T.);
#105=FACE_OUTER_BOUND('',#122,.T.);
#106=FACE_OUTER_BOUND('',#123,.T.);
#107=FACE_OUTER_BOUND('',#126,.T.);
#108=FACE_OUTER_BOUND('',#131,.T.);
#109=EDGE_LOOP('',(#136,#137,#138,#139));
#110=EDGE_LOOP('',(#140,#141,#142,#143,#144,#145,#146,#147));
#111=EDGE_LOOP('',(#148));
#112=EDGE_LOOP('',(#149,#150,#151,#152,#153,#154));
#113=EDGE_LOOP('',(#155,#156,#157,#158));
#114=EDGE_LOOP('',(#159,#160,#161,#162,#163));
#115=EDGE_LOOP('',(#164,#165,#166,#167,#168,#169,#170,#171));
#116=EDGE_LOOP('',(#172,#173,#174,#175,#176));
#117=EDGE_LOOP('',(#177));
#118=EDGE_LOOP('',(#178));
#119=EDGE_LOOP('',(#179,#180,#181,#182));
#120=EDGE_LOOP('',(#183,#184,#185,#186,#187,#188,#189,#190));
#121=EDGE_LOOP('',(#191,#192,#193,#194));
#122=EDGE_LOOP('',(#195,#196,#197,#198,#199));
#123=EDGE_LOOP('',(#200,#201,#202,#203,#204));
#124=EDGE_LOOP('',(#205));
#125=EDGE_LOOP('',(#206,#207,#208,#209,#210,#211));
#126=EDGE_LOOP('',(#212));
#127=EDGE_LOOP('',(#213));
#128=EDGE_LOOP('',(#214));
#129=EDGE_LOOP('',(#215));
#130=EDGE_LOOP('',(#216));
#131=EDGE_LOOP('',(#217));
#132=EDGE_LOOP('',(#218,#219));
#133=EDGE_LOOP('',(#220));
#134=EDGE_LOOP('',(#221));
#135=EDGE_LOOP('',(#222,#223,#224,#225));
#136=ORIENTED_EDGE('',*,*,#258,.T.);
#137=ORIENTED_EDGE('',*,*,#259,.T.);
#138=ORIENTED_EDGE('',*,*,#260,.T.);
#139=ORIENTED_EDGE('',*,*,#261,.T.);
#140=ORIENTED_EDGE('',*,*,#262,.F.);
#141=ORIENTED_EDGE('',*,*,#258,.F.);
#142=ORIENTED_EDGE('',*,*,#263,.F.);
#143=ORIENTED_EDGE('',*,*,#264,.F.);
#144=ORIENTED_EDGE('',*,*,#265,.T.);
#145=ORIENTED_EDGE('',*,*,#266,.F.);
#146=ORIENTED_EDGE('',*,*,#267,.T.);
#147=ORIENTED_EDGE('',*,*,#268,.F.);
#148=ORIENTED_EDGE('',*,*,#269,.F.);
#149=ORIENTED_EDGE('',*,*,#270,.F.);
#150=ORIENTED_EDGE('',*,*,#265,.F.);
#151=ORIENTED_EDGE('',*,*,#271,.F.);
#152=ORIENTED_EDGE('',*,*,#272,.F.);
#153=ORIENTED_EDGE('',*,*,#273,.F.);
#154=ORIENTED_EDGE('',*,*,#267,.F.);
#155=ORIENTED_EDGE('',*,*,#274,.F.);
#156=ORIENTED_EDGE('',*,*,#275,.T.);
#157=ORIENTED_EDGE('',*,*,#276,.F.);
#158=ORIENTED_EDGE('',*,*,#277,.F.);
#159=ORIENTED_EDGE('',*,*,#278,.T.);
#160=ORIENTED_EDGE('',*,*,#271,.T.);
#161=ORIENTED_EDGE('',*,*,#264,.T.);
#162=ORIENTED_EDGE('',*,*,#279,.F.);
#163=ORIENTED_EDGE('',*,*,#280,.T.);
#164=ORIENTED_EDGE('',*,*,#261,.F.);
#165=ORIENTED_EDGE('',*,*,#281,.F.);
#166=ORIENTED_EDGE('',*,*,#282,.F.);
#167=ORIENTED_EDGE('',*,*,#277,.T.);
#168=ORIENTED_EDGE('',*,*,#283,.F.);
#169=ORIENTED_EDGE('',*,*,#284,.T.);
#170=ORIENTED_EDGE('',*,*,#279,.T.);
#171=ORIENTED_EDGE('',*,*,#263,.T.);
#172=ORIENTED_EDGE('',*,*,#276,.T.);
#173=ORIENTED_EDGE('',*,*,#285,.T.);
#174=ORIENTED_EDGE('',*,*,#286,.F.);
#175=ORIENTED_EDGE('',*,*,#287,.T.);
#176=ORIENTED_EDGE('',*,*,#283,.T.);
#177=ORIENTED_EDGE('',*,*,#288,.F.);
#178=ORIENTED_EDGE('',*,*,#289,.F.);
#179=ORIENTED_EDGE('',*,*,#290,.F.);
#180=ORIENTED_EDGE('',*,*,#280,.F.);
#181=ORIENTED_EDGE('',*,*,#284,.F.);
#182=ORIENTED_EDGE('',*,*,#287,.F.);
#183=ORIENTED_EDGE('',*,*,#291,.F.);
#184=ORIENTED_EDGE('',*,*,#272,.T.);
#185=ORIENTED_EDGE('',*,*,#278,.F.);
#186=ORIENTED_EDGE('',*,*,#290,.T.);
#187=ORIENTED_EDGE('',*,*,#286,.T.);
#188=ORIENTED_EDGE('',*,*,#292,.T.);
#189=ORIENTED_EDGE('',*,*,#293,.F.);
#190=ORIENTED_EDGE('',*,*,#294,.F.);
#191=ORIENTED_EDGE('',*,*,#295,.F.);
#192=ORIENTED_EDGE('',*,*,#292,.F.);
#193=ORIENTED_EDGE('',*,*,#285,.F.);
#194=ORIENTED_EDGE('',*,*,#275,.F.);
#195=ORIENTED_EDGE('',*,*,#296,.T.);
#196=ORIENTED_EDGE('',*,*,#297,.T.);
#197=ORIENTED_EDGE('',*,*,#268,.T.);
#198=ORIENTED_EDGE('',*,*,#273,.T.);
#199=ORIENTED_EDGE('',*,*,#291,.T.);
#200=ORIENTED_EDGE('',*,*,#282,.T.);
#201=ORIENTED_EDGE('',*,*,#298,.T.);
#202=ORIENTED_EDGE('',*,*,#293,.T.);
#203=ORIENTED_EDGE('',*,*,#295,.T.);
#204=ORIENTED_EDGE('',*,*,#274,.T.);
#205=ORIENTED_EDGE('',*,*,#299,.T.);
#206=ORIENTED_EDGE('',*,*,#260,.F.);
#207=ORIENTED_EDGE('',*,*,#300,.T.);
#208=ORIENTED_EDGE('',*,*,#296,.F.);
#209=ORIENTED_EDGE('',*,*,#294,.T.);
#210=ORIENTED_EDGE('',*,*,#298,.F.);
#211=ORIENTED_EDGE('',*,*,#281,.T.);
#212=ORIENTED_EDGE('',*,*,#301,.F.);
#213=ORIENTED_EDGE('',*,*,#269,.T.);
#214=ORIENTED_EDGE('',*,*,#301,.T.);
#215=ORIENTED_EDGE('',*,*,#302,.T.);
#216=ORIENTED_EDGE('',*,*,#299,.F.);
#217=ORIENTED_EDGE('',*,*,#302,.F.);
#218=ORIENTED_EDGE('',*,*,#266,.T.);
#219=ORIENTED_EDGE('',*,*,#270,.T.);
#220=ORIENTED_EDGE('',*,*,#289,.T.);
#221=ORIENTED_EDGE('',*,*,#288,.T.);
#222=ORIENTED_EDGE('',*,*,#262,.T.);
#223=ORIENTED_EDGE('',*,*,#297,.F.);
#224=ORIENTED_EDGE('',*,*,#300,.F.);
#225=ORIENTED_EDGE('',*,*,#259,.F.);
#226=VERTEX_POINT('',#500);
#227=VERTEX_POINT('',#501);
#228=VERTEX_POINT('',#503);
#229=VERTEX_POINT('',#505);
#230=VERTEX_POINT('',#509);
#231=VERTEX_POINT('',#511);
#232=VERTEX_POINT('',#513);
#233=VERTEX_POINT('',#515);
#234=VERTEX_POINT('',#517);
#235=VERTEX_POINT('',#519);
#236=VERTEX_POINT('',#522);
#237=VERTEX_POINT('',#526);
#238=VERTEX_POINT('',#528);
#239=VERTEX_POINT('',#532);
#240=VERTEX_POINT('',#533);
#241=VERTEX_POINT('',#535);
#242=VERTEX_POINT('',#537);
#243=VERTEX_POINT('',#541);
#244=VERTEX_POINT('',#543);
#245=VERTEX_POINT('',#547);
#246=VERTEX_POINT('',#550);
#247=VERTEX_POINT('',#554);
#248=VERTEX_POINT('',#556);
#249=VERTEX_POINT('',#560);
#250=VERTEX_POINT('',#562);
#251=VERTEX_POINT('',#566);
#252=VERTEX_POINT('',#568);
#253=VERTEX_POINT('',#570);
#254=VERTEX_POINT('',#576);
#255=VERTEX_POINT('',#582);
#256=VERTEX_POINT('',#586);
#257=VERTEX_POINT('',#590);
#258=EDGE_CURVE('',#226,#227,#303,.T.);
#259=EDGE_CURVE('',#227,#228,#304,.T.);
#260=EDGE_CURVE('',#228,#229,#305,.T.);
#261=EDGE_CURVE('',#229,#226,#306,.T.);
#262=EDGE_CURVE('',#227,#230,#54,.T.);
#263=EDGE_CURVE('',#231,#226,#307,.T.);
#264=EDGE_CURVE('',#232,#231,#308,.T.);
#265=EDGE_CURVE('',#232,#233,#309,.T.);
#266=EDGE_CURVE('',#234,#233,#55,.T.);
#267=EDGE_CURVE('',#234,#235,#310,.T.);
#268=EDGE_CURVE('',#230,#235,#311,.T.);
#269=EDGE_CURVE('',#236,#236,#56,.T.);
#270=EDGE_CURVE('',#233,#234,#38,.T.);
#271=EDGE_CURVE('',#237,#232,#312,.T.);
#272=EDGE_CURVE('',#238,#237,#313,.T.);
#273=EDGE_CURVE('',#235,#238,#314,.T.);
#274=EDGE_CURVE('',#239,#240,#315,.T.);
#275=EDGE_CURVE('',#239,#241,#316,.T.);
#276=EDGE_CURVE('',#242,#241,#317,.T.);
#277=EDGE_CURVE('',#240,#242,#318,.T.);
#278=EDGE_CURVE('',#243,#237,#319,.T.);
#279=EDGE_CURVE('',#244,#231,#320,.T.);
#280=EDGE_CURVE('',#244,#243,#321,.T.);
#281=EDGE_CURVE('',#245,#229,#322,.T.);
#282=EDGE_CURVE('',#240,#245,#323,.T.);
#283=EDGE_CURVE('',#246,#242,#324,.T.);
#284=EDGE_CURVE('',#246,#244,#325,.T.);
#285=EDGE_CURVE('',#241,#247,#326,.T.);
#286=EDGE_CURVE('',#248,#247,#327,.T.);
#287=EDGE_CURVE('',#248,#246,#328,.T.);
#288=EDGE_CURVE('',#249,#249,#57,.T.);
#289=EDGE_CURVE('',#250,#250,#58,.T.);
#290=EDGE_CURVE('',#243,#248,#329,.T.);
#291=EDGE_CURVE('',#238,#251,#330,.T.);
#292=EDGE_CURVE('',#247,#252,#331,.T.);
#293=EDGE_CURVE('',#253,#252,#332,.T.);
#294=EDGE_CURVE('',#251,#253,#333,.T.);
#295=EDGE_CURVE('',#252,#239,#334,.T.);
#296=EDGE_CURVE('',#251,#254,#335,.T.);
#297=EDGE_CURVE('',#254,#230,#336,.T.);
#298=EDGE_CURVE('',#245,#253,#337,.T.);
#299=EDGE_CURVE('',#255,#255,#59,.T.);
#300=EDGE_CURVE('',#228,#254,#60,.T.);
#301=EDGE_CURVE('',#256,#256,#61,.T.);
#302=EDGE_CURVE('',#257,#257,#62,.T.);
#303=LINE('',#499,#338);
#304=LINE('',#502,#339);
#305=LINE('',#504,#340);
#306=LINE('',#506,#341);
#307=LINE('',#510,#342);
#308=LINE('',#512,#343);
#309=LINE('',#514,#344);
#310=LINE('',#518,#345);
#311=LINE('',#520,#346);
#312=LINE('',#525,#347);
#313=LINE('',#527,#348);
#314=LINE('',#529,#349);
#315=LINE('',#531,#350);
#316=LINE('',#534,#351);
#317=LINE('',#536,#352);
#318=LINE('',#538,#353);
#319=LINE('',#540,#354);
#320=LINE('',#542,#355);
#321=LINE('',#544,#356);
#322=LINE('',#546,#357);
#323=LINE('',#548,#358);
#324=LINE('',#549,#359);
#325=LINE('',#551,#360);
#326=LINE('',#553,#361);
#327=LINE('',#555,#362);
#328=LINE('',#557,#363);
#329=LINE('',#563,#364);
#330=LINE('',#565,#365);
#331=LINE('',#567,#366);
#332=LINE('',#569,#367);
#333=LINE('',#571,#368);
#334=LINE('',#573,#369);
#335=LINE('',#575,#370);
#336=LINE('',#577,#371);
#337=LINE('',#579,#372);
#338=VECTOR('',#405,1.);
#339=VECTOR('',#406,1.);
#340=VECTOR('',#407,1.);
#341=VECTOR('',#408,1.);
#342=VECTOR('',#413,1.);
#343=VECTOR('',#414,1.);
#344=VECTOR('',#415,1.);
#345=VECTOR('',#418,1.);
#346=VECTOR('',#419,1.);
#347=VECTOR('',#426,1.);
#348=VECTOR('',#427,1.);
#349=VECTOR('',#428,1.);
#350=VECTOR('',#431,1.);
#351=VECTOR('',#432,1.);
#352=VECTOR('',#433,1.);
#353=VECTOR('',#434,1.);
#354=VECTOR('',#437,1.);
#355=VECTOR('',#438,1.);
#356=VECTOR('',#439,1.);
#357=VECTOR('',#442,1.);
#358=VECTOR('',#443,1.);
#359=VECTOR('',#444,1.);
#360=VECTOR('',#445,1.);
#361=VECTOR('',#448,1.);
#362=VECTOR('',#449,1.);
#363=VECTOR('',#450,1.);
#364=VECTOR('',#457,1.);
#365=VECTOR('',#460,1.);
#366=VECTOR('',#461,1.);
#367=VECTOR('',#462,1.);
#368=VECTOR('',#463,1.);
#369=VECTOR('',#466,1.);
#370=VECTOR('',#469,1.);
#371=VECTOR('',#470,1.);
#372=VECTOR('',#473,1.);
#373=AXIS2_PLACEMENT_3D('',#498,#403,#404);
#374=AXIS2_PLACEMENT_3D('',#507,#409,#410);
#375=AXIS2_PLACEMENT_3D('',#508,#411,#412);
#376=AXIS2_PLACEMENT_3D('',#516,#416,#417);
#377=AXIS2_PLACEMENT_3D('',#521,#420,#421);
#378=AXIS2_PLACEMENT_3D('',#523,#422,#423);
#379=AXIS2_PLACEMENT_3D('',#524,#424,#425);
#380=AXIS2_PLACEMENT_3D('',#530,#429,#430);
#381=AXIS2_PLACEMENT_3D('',#539,#435,#436);
#382=AXIS2_PLACEMENT_3D('',#545,#440,#441);
#383=AXIS2_PLACEMENT_3D('',#552,#446,#447);
#384=AXIS2_PLACEMENT_3D('',#558,#451,#452);
#385=AXIS2_PLACEMENT_3D('',#559,#453,#454);
#386=AXIS2_PLACEMENT_3D('',#561,#455,#456);
#387=AXIS2_PLACEMENT_3D('',#564,#458,#459);
#388=AXIS2_PLACEMENT_3D('',#572,#464,#465);
#389=AXIS2_PLACEMENT_3D('',#574,#467,#468);
#390=AXIS2_PLACEMENT_3D('',#578,#471,#472);
#391=AXIS2_PLACEMENT_3D('',#580,#474,#475);
#392=AXIS2_PLACEMENT_3D('',#581,#476,#477);
#393=AXIS2_PLACEMENT_3D('',#583,#478,#479);
#394=AXIS2_PLACEMENT_3D('',#584,#480,#481);
#395=AXIS2_PLACEMENT_3D('',#585,#482,#483);
#396=AXIS2_PLACEMENT_3D('',#587,#484,#485);
#397=AXIS2_PLACEMENT_3D('',#588,#486,#487);
#398=AXIS2_PLACEMENT_3D('',#589,#488,#489);
#399=AXIS2_PLACEMENT_3D('',#591,#490,#491);
#400=AXIS2_PLACEMENT_3D('',#592,#492,#493);
#401=AXIS2_PLACEMENT_3D('',#593,#494,#495);
#402=AXIS2_PLACEMENT_3D('',#594,#496,#497);
#403=DIRECTION('',(0.,0.,1.));
#404=DIRECTION('',(1.,0.,0.));
#405=DIRECTION('',(1.,0.,0.));
#406=DIRECTION('',(0.,0.,-1.));
#407=DIRECTION('',(-1.,0.,0.));
#408=DIRECTION('',(0.,0.,1.));
#409=DIRECTION('',(0.,-1.,0.));
#410=DIRECTION('',(0.,0.,-1.));
#411=DIRECTION('',(0.,0.,1.));
#412=DIRECTION('',(1.,0.,0.));
#413=DIRECTION('',(0.,1.,0.));
#414=DIRECTION('',(-1.,0.,0.));
#415=DIRECTION('',(0.,1.,0.));
#416=DIRECTION('',(0.,0.,1.));
#417=DIRECTION('',(1.,0.,0.));
#418=DIRECTION('',(0.,1.,0.));
#419=DIRECTION('',(1.,0.,0.));
#420=DIRECTION('',(0.,0.,1.));
#421=DIRECTION('',(1.,0.,0.));
#422=DIRECTION('',(0.,0.,1.));
#423=DIRECTION('',(1.,0.,0.));
#424=DIRECTION('',(0.707106781186548,0.,0.707106781186547));
#425=DIRECTION('',(0.707106781186547,0.,-0.707106781186548));
#426=DIRECTION('',(-0.707106781186547,0.,0.707106781186548));
#427=DIRECTION('',(0.,-1.,0.));
#428=DIRECTION('',(0.707106781186547,0.,-0.707106781186548));
#429=DIRECTION('',(-0.707106781186548,0.,-0.707106781186547));
#430=DIRECTION('',(0.,-1.,0.));
#431=DIRECTION('',(-1.,0.,0.));
#432=DIRECTION('',(0.,1.,0.));
#433=DIRECTION('',(1.,0.,0.));
#434=DIRECTION('',(0.,1.,0.));
#435=DIRECTION('',(0.,0.,1.));
#436=DIRECTION('',(1.,0.,0.));
#437=DIRECTION('',(0.,0.,1.));
#438=DIRECTION('',(0.,0.,1.));
#439=DIRECTION('',(1.,0.,0.));
#440=DIRECTION('',(0.,-1.,0.));
#441=DIRECTION('',(0.,0.,-1.));
#442=DIRECTION('',(0.,-1.,0.));
#443=DIRECTION('',(0.,0.,-1.));
#444=DIRECTION('',(0.,0.,1.));
#445=DIRECTION('',(0.,-1.,0.));
#446=DIRECTION('',(-1.,0.,0.));
#447=DIRECTION('',(0.,0.,1.));
#448=DIRECTION('',(0.707106781186547,0.,-0.707106781186548));
#449=DIRECTION('',(0.,0.,1.));
#450=DIRECTION('',(-1.,0.,0.));
#451=DIRECTION('',(0.,1.,0.));
#452=DIRECTION('',(0.,0.,1.));
#453=DIRECTION('',(0.,0.,-1.));
#454=DIRECTION('',(-1.,0.,0.));
#455=DIRECTION('',(0.,0.,-1.));
#456=DIRECTION('',(-1.,0.,0.));
#457=DIRECTION('',(0.,1.,0.));
#458=DIRECTION('',(0.,0.,-1.));
#459=DIRECTION('',(-1.,0.,0.));
#460=DIRECTION('',(0.,0.,-1.));
#461=DIRECTION('',(0.,-1.,0.));
#462=DIRECTION('',(0.,0.,1.));
#463=DIRECTION('',(0.,1.,0.));
#464=DIRECTION('',(1.,0.,0.));
#465=DIRECTION('',(0.,0.,-1.));
#466=DIRECTION('',(-0.707106781186547,0.,0.707106781186548));
#467=DIRECTION('',(-0.707106781186548,0.,-0.707106781186547));
#468=DIRECTION('',(0.,-1.,0.));
#469=DIRECTION('',(-1.,0.,0.));
#470=DIRECTION('',(0.,0.,1.));
#471=DIRECTION('',(0.,-1.,0.));
#472=DIRECTION('',(0.,0.,-1.));
#473=DIRECTION('',(1.,0.,0.));
#474=DIRECTION('',(0.,1.,0.));
#475=DIRECTION('',(0.,0.,1.));
#476=DIRECTION('',(0.,0.,-1.));
#477=DIRECTION('',(-1.,0.,0.));
#478=DIRECTION('',(0.,0.,-1.));
#479=DIRECTION('',(-1.,0.,0.));
#480=DIRECTION('',(0.,0.,-1.));
#481=DIRECTION('',(-1.,0.,0.));
#482=DIRECTION('',(0.,0.,-1.));
#483=DIRECTION('',(1.,0.,0.));
#484=DIRECTION('',(0.,0.,-1.));
#485=DIRECTION('',(-1.,0.,0.));
#486=DIRECTION('',(0.,0.,-1.));
#487=DIRECTION('',(1.,0.,0.));
#488=DIRECTION('',(0.,0.,-1.));
#489=DIRECTION('',(1.,0.,0.));
#490=DIRECTION('',(0.,0.,-1.));
#491=DIRECTION('',(1.,0.,0.));
#492=DIRECTION('',(0.,0.,-1.));
#493=DIRECTION('',(-1.,0.,0.));
#494=DIRECTION('',(0.,0.,-1.));
#495=DIRECTION('',(1.,0.,0.));
#496=DIRECTION('',(0.,0.,-1.));
#497=DIRECTION('',(1.,0.,0.));
#498=CARTESIAN_POINT('',(0.,0.,0.));
#499=CARTESIAN_POINT('',(119.85,153.9,79.4));
#500=CARTESIAN_POINT('',(0.,153.9,79.4));
#501=CARTESIAN_POINT('',(40.8006024315014,153.9,79.4));
#502=CARTESIAN_POINT('',(40.8006024315014,153.9,79.45));
#503=CARTESIAN_POINT('',(40.8006024315014,153.9,41.5));
#504=CARTESIAN_POINT('',(119.85,153.9,41.5));
#505=CARTESIAN_POINT('',(0.,153.9,41.5));
#506=CARTESIAN_POINT('',(0.,153.9,0.));
#507=CARTESIAN_POINT('',(119.85,153.9,41.5));
#508=CARTESIAN_POINT('',(49.1,153.8,79.4));
#509=CARTESIAN_POINT('',(57.3993975684986,153.9,79.4));
#510=CARTESIAN_POINT('',(0.,109.25,79.4));
#511=CARTESIAN_POINT('',(0.,0.,79.4));
#512=CARTESIAN_POINT('',(119.85,0.,79.4));
#513=CARTESIAN_POINT('',(224.5,0.,79.4));
#514=CARTESIAN_POINT('',(224.5,109.25,79.4));
#515=CARTESIAN_POINT('',(224.5,56.8010639502117,79.4));
#516=CARTESIAN_POINT('',(224.6,61.5,79.4));
#517=CARTESIAN_POINT('',(224.5,66.1989360497883,79.4));
#518=CARTESIAN_POINT('',(224.5,109.25,79.4));
#519=CARTESIAN_POINT('',(224.5,153.9,79.4));
#520=CARTESIAN_POINT('',(119.85,153.9,79.4));
#521=CARTESIAN_POINT('',(71.5,66.8,79.4));
#522=CARTESIAN_POINT('',(77.5,66.8,79.4));
#523=CARTESIAN_POINT('',(119.85,109.25,79.4));
#524=CARTESIAN_POINT('',(224.6,61.5,79.3));
#525=CARTESIAN_POINT('',(211.875,0.,92.025));
#526=CARTESIAN_POINT('',(239.7,0.,64.2));
#527=CARTESIAN_POINT('',(239.7,109.25,64.2));
#528=CARTESIAN_POINT('',(239.7,153.9,64.2));
#529=CARTESIAN_POINT('',(239.7,153.9,64.2));
#530=CARTESIAN_POINT('',(239.7,109.25,64.2));
#531=CARTESIAN_POINT('',(119.85,178.4,79.4));
#532=CARTESIAN_POINT('',(224.5,178.4,79.4));
#533=CARTESIAN_POINT('',(0.,178.4,79.4));
#534=CARTESIAN_POINT('',(224.5,109.25,79.4));
#535=CARTESIAN_POINT('',(224.5,218.5,79.4));
#536=CARTESIAN_POINT('',(119.85,218.5,79.4));
#537=CARTESIAN_POINT('',(0.,218.5,79.4));
#538=CARTESIAN_POINT('',(0.,109.25,79.4));
#539=CARTESIAN_POINT('',(119.85,109.25,79.4));
#540=CARTESIAN_POINT('',(239.7,0.,0.));
#541=CARTESIAN_POINT('',(239.7,0.,0.));
#542=CARTESIAN_POINT('',(0.,0.,0.));
#543=CARTESIAN_POINT('',(0.,0.,0.));
#544=CARTESIAN_POINT('',(119.85,0.,0.));
#545=CARTESIAN_POINT('',(119.85,0.,0.));
#546=CARTESIAN_POINT('',(0.,109.25,41.5));
#547=CARTESIAN_POINT('',(0.,178.4,41.5));
#548=CARTESIAN_POINT('',(0.,178.4,0.));
#549=CARTESIAN_POINT('',(0.,218.5,0.));
#550=CARTESIAN_POINT('',(0.,218.5,0.));
#551=CARTESIAN_POINT('',(0.,109.25,0.));
#552=CARTESIAN_POINT('',(0.,109.25,0.));
#553=CARTESIAN_POINT('',(211.875,218.5,92.025));
#554=CARTESIAN_POINT('',(239.7,218.5,64.2));
#555=CARTESIAN_POINT('',(239.7,218.5,0.));
#556=CARTESIAN_POINT('',(239.7,218.5,0.));
#557=CARTESIAN_POINT('',(119.85,218.5,0.));
#558=CARTESIAN_POINT('',(119.85,218.5,0.));
#559=CARTESIAN_POINT('',(49.1,153.8,0.));
#560=CARTESIAN_POINT('',(40.8,153.8,0.));
#561=CARTESIAN_POINT('',(224.6,61.5,0.));
#562=CARTESIAN_POINT('',(219.9,61.5,0.));
#563=CARTESIAN_POINT('',(239.7,109.25,0.));
#564=CARTESIAN_POINT('',(119.85,109.25,0.));
#565=CARTESIAN_POINT('',(239.7,153.9,0.));
#566=CARTESIAN_POINT('',(239.7,153.9,41.5));
#567=CARTESIAN_POINT('',(239.7,109.25,64.2));
#568=CARTESIAN_POINT('',(239.7,178.4,64.2));
#569=CARTESIAN_POINT('',(239.7,178.4,0.));
#570=CARTESIAN_POINT('',(239.7,178.4,41.5));
#571=CARTESIAN_POINT('',(239.7,109.25,41.5));
#572=CARTESIAN_POINT('',(239.7,109.25,0.));
#573=CARTESIAN_POINT('',(239.7,178.4,64.2));
#574=CARTESIAN_POINT('',(239.7,109.25,64.2));
#575=CARTESIAN_POINT('',(119.85,153.9,41.5));
#576=CARTESIAN_POINT('',(57.3993975684986,153.9,41.5));
#577=CARTESIAN_POINT('',(57.3993975684986,153.9,79.45));
#578=CARTESIAN_POINT('',(119.85,153.9,41.5));
#579=CARTESIAN_POINT('',(119.85,178.4,41.5));
#580=CARTESIAN_POINT('',(119.85,178.4,41.5));
#581=CARTESIAN_POINT('',(223.8,164.5,41.5));
#582=CARTESIAN_POINT('',(215.05,164.5,41.5));
#583=CARTESIAN_POINT('',(49.1,153.8,41.5));
#584=CARTESIAN_POINT('',(119.85,166.15,41.5));
#585=CARTESIAN_POINT('',(71.5,66.8,45.6));
#586=CARTESIAN_POINT('',(77.5,66.8,45.6));
#587=CARTESIAN_POINT('',(71.5,66.8,45.6));
#588=CARTESIAN_POINT('',(71.5,66.8,79.45));
#589=CARTESIAN_POINT('',(223.8,164.5,40.5));
#590=CARTESIAN_POINT('',(232.55,164.5,40.5));
#591=CARTESIAN_POINT('',(223.8,164.5,79.45));
#592=CARTESIAN_POINT('',(223.8,164.5,40.5));
#593=CARTESIAN_POINT('',(224.6,61.5,79.45));
#594=CARTESIAN_POINT('',(49.1,153.8,79.45));
#595=MECHANICAL_DESIGN_GEOMETRIC_PRESENTATION_REPRESENTATION('',(#24),#596);
#596=(
GEOMETRIC_REPRESENTATION_CONTEXT(3)
GLOBAL_UNCERTAINTY_ASSIGNED_CONTEXT((#597))
GLOBAL_UNIT_ASSIGNED_CONTEXT((#603,#599,#598))
REPRESENTATION_CONTEXT('featured_part_05644','TOP_LEVEL_ASSEMBLY_PART')
);
#597=UNCERTAINTY_MEASURE_WITH_UNIT(LENGTH_MEASURE(2.E-5),#603,
'DISTANCE_ACCURACY_VALUE','Maximum Tolerance applied to model');
#598=(
NAMED_UNIT(*)
SI_UNIT($,.STERADIAN.)
SOLID_ANGLE_UNIT()
);
#599=(
CONVERSION_BASED_UNIT('DEGREE',#601)
NAMED_UNIT(#600)
PLANE_ANGLE_UNIT()
);
#600=DIMENSIONAL_EXPONENTS(0.,0.,0.,0.,0.,0.,0.);
#601=PLANE_ANGLE_MEASURE_WITH_UNIT(PLANE_ANGLE_MEASURE(0.0174532925),#602);
#602=(
NAMED_UNIT(*)
PLANE_ANGLE_UNIT()
SI_UNIT($,.RADIAN.)
);
#603=(
LENGTH_UNIT()
NAMED_UNIT(*)
SI_UNIT(.MILLI.,.METRE.)
);
ENDSEC;
END-ISO-10303-21;
