ISO-10303-21;
HEADER;
/* Generated by software containing ST-Developer
 * from STEP Tools, Inc. (www.steptools.com) 
 */
/* OPTION: using custom schema-name function */

FILE_DESCRIPTION(
/* description */ (''),
/* implementation_level */ '2;1');

FILE_NAME(
/* name */ 'featured_part_03928.stp',
/* time_stamp */ '2026-07-13T22:31:05-04:00',
/* author */ (''),
/* organization */ (''),
/* preprocessor_version */ 'ST-DEVELOPER v20.1',
/* originating_system */ 'SIEMENS PLM Software NX2512.6002',
/* authorisation */ '');

FILE_SCHEMA (('AUTOMOTIVE_DESIGN { 1 0 10303 214 3 1 1 1 }'));
ENDSEC;

DATA;
#10=SHAPE_REPRESENTATION_RELATIONSHIP('None',
'relationship between featured_part_03928-None and featured_part_03928
-None',#22,#11);
#11=ADVANCED_BREP_SHAPE_REPRESENTATION('featured_part_03928-None',(#32),
#1062);
#12=SHAPE_DEFINITION_REPRESENTATION(#13,#22);
#13=PRODUCT_DEFINITION_SHAPE('','',#14);
#14=PRODUCT_DEFINITION(' ','',#16,#15);
#15=PRODUCT_DEFINITION_CONTEXT('part definition',#21,'design');
#16=PRODUCT_DEFINITION_FORMATION_WITH_SPECIFIED_SOURCE(' ',' ',#18,
 .NOT_KNOWN.);
#17=PRODUCT_RELATED_PRODUCT_CATEGORY('part','',(#18));
#18=PRODUCT('featured_part_03928','featured_part_03928',' ',(#19));
#19=PRODUCT_CONTEXT(' ',#21,'mechanical');
#20=APPLICATION_PROTOCOL_DEFINITION('international standard',
'automotive_design',2010,#21);
#21=APPLICATION_CONTEXT(
'core data for automotive mechanical design processes');
#22=SHAPE_REPRESENTATION('featured_part_03928-None',(#648),#1062);
#23=PRESENTATION_LAYER_ASSIGNMENT('1','Layer 1',(#32));
#24=STYLED_ITEM('',(#25),#32);
#25=PRESENTATION_STYLE_ASSIGNMENT((#26));
#26=SURFACE_STYLE_USAGE(.BOTH.,#27);
#27=SURFACE_SIDE_STYLE('',(#28));
#28=SURFACE_STYLE_FILL_AREA(#29);
#29=FILL_AREA_STYLE('',(#30));
#30=FILL_AREA_STYLE_COLOUR('',#31);
#31=COLOUR_RGB('medium steel',0.611764705882353,0.658823529411765,0.670588235294118);
#32=MANIFOLD_SOLID_BREP('',#33);
#33=CLOSED_SHELL('',(#87,#88,#89,#90,#91,#92,#93,#94,#95,#96,#97,#98,#99,
#100,#101,#102,#103,#104,#105,#106,#107,#108,#109,#110,#111,#112,#113,#114,
#115,#116,#117,#118,#119,#120));
#34=CYLINDRICAL_SURFACE('',#680,6.6);
#35=CYLINDRICAL_SURFACE('',#681,6.6);
#36=CYLINDRICAL_SURFACE('',#682,6.6);
#37=CYLINDRICAL_SURFACE('',#683,6.6);
#38=CYLINDRICAL_SURFACE('',#693,5.);
#39=CYLINDRICAL_SURFACE('',#694,5.);
#40=CYLINDRICAL_SURFACE('',#696,5.35);
#41=CYLINDRICAL_SURFACE('',#699,5.9);
#42=CYLINDRICAL_SURFACE('',#701,8.75);
#43=CYLINDRICAL_SURFACE('',#703,13.25);
#44=CYLINDRICAL_SURFACE('',#705,9.65);
#45=FACE_BOUND('',#176,.T.);
#46=FACE_BOUND('',#177,.T.);
#47=FACE_BOUND('',#178,.T.);
#48=FACE_BOUND('',#183,.T.);
#49=FACE_BOUND('',#184,.T.);
#50=FACE_BOUND('',#185,.T.);
#51=FACE_BOUND('',#196,.T.);
#52=FACE_BOUND('',#197,.T.);
#53=FACE_BOUND('',#198,.T.);
#54=FACE_BOUND('',#202,.T.);
#55=FACE_BOUND('',#203,.T.);
#56=FACE_BOUND('',#205,.T.);
#57=FACE_BOUND('',#206,.T.);
#58=FACE_BOUND('',#208,.T.);
#59=FACE_BOUND('',#209,.T.);
#60=FACE_BOUND('',#210,.T.);
#61=FACE_BOUND('',#211,.T.);
#62=FACE_BOUND('',#213,.T.);
#63=FACE_BOUND('',#214,.T.);
#64=CIRCLE('',#650,9.65);
#65=CIRCLE('',#651,5.);
#66=CIRCLE('',#652,5.);
#67=CIRCLE('',#654,6.6);
#68=CIRCLE('',#655,6.6);
#69=CIRCLE('',#656,6.6);
#70=CIRCLE('',#657,6.6);
#71=CIRCLE('',#662,9.65);
#72=CIRCLE('',#663,8.75);
#73=CIRCLE('',#669,8.75);
#74=CIRCLE('',#670,5.9);
#75=CIRCLE('',#674,6.6);
#76=CIRCLE('',#675,6.6);
#77=CIRCLE('',#676,6.6);
#78=CIRCLE('',#677,6.6);
#79=CIRCLE('',#686,13.25);
#80=CIRCLE('',#687,5.35);
#81=CIRCLE('',#688,9.65);
#82=CIRCLE('',#689,5.);
#83=CIRCLE('',#690,5.);
#84=CIRCLE('',#695,5.35);
#85=CIRCLE('',#698,5.9);
#86=CIRCLE('',#702,13.25);
#87=ADVANCED_FACE('',(#144),#121,.F.);
#88=ADVANCED_FACE('',(#145),#122,.T.);
#89=ADVANCED_FACE('',(#146),#123,.T.);
#90=ADVANCED_FACE('',(#147),#124,.T.);
#91=ADVANCED_FACE('',(#148),#125,.T.);
#92=ADVANCED_FACE('',(#149),#126,.T.);
#93=ADVANCED_FACE('',(#45,#46,#47),#127,.T.);
#94=ADVANCED_FACE('',(#150),#128,.T.);
#95=ADVANCED_FACE('',(#151),#129,.F.);
#96=ADVANCED_FACE('',(#152),#130,.F.);
#97=ADVANCED_FACE('',(#153),#131,.F.);
#98=ADVANCED_FACE('',(#48,#49,#50),#132,.F.);
#99=ADVANCED_FACE('',(#154),#133,.F.);
#100=ADVANCED_FACE('',(#155),#134,.F.);
#101=ADVANCED_FACE('',(#156),#135,.F.);
#102=ADVANCED_FACE('',(#157),#136,.F.);
#103=ADVANCED_FACE('',(#158),#34,.F.);
#104=ADVANCED_FACE('',(#159),#35,.F.);
#105=ADVANCED_FACE('',(#160),#36,.T.);
#106=ADVANCED_FACE('',(#161),#37,.T.);
#107=ADVANCED_FACE('',(#162),#137,.F.);
#108=ADVANCED_FACE('',(#163),#138,.F.);
#109=ADVANCED_FACE('',(#51,#52,#53),#139,.F.);
#110=ADVANCED_FACE('',(#164),#140,.F.);
#111=ADVANCED_FACE('',(#165),#38,.F.);
#112=ADVANCED_FACE('',(#166),#39,.F.);
#113=ADVANCED_FACE('',(#54,#55),#40,.F.);
#114=ADVANCED_FACE('',(#167),#141,.F.);
#115=ADVANCED_FACE('',(#56,#57),#41,.F.);
#116=ADVANCED_FACE('',(#168),#142,.F.);
#117=ADVANCED_FACE('',(#58,#59),#42,.F.);
#118=ADVANCED_FACE('',(#60,#61),#43,.F.);
#119=ADVANCED_FACE('',(#169),#143,.F.);
#120=ADVANCED_FACE('',(#62,#63),#44,.F.);
#121=PLANE('',#649);
#122=PLANE('',#653);
#123=PLANE('',#658);
#124=PLANE('',#659);
#125=PLANE('',#660);
#126=PLANE('',#661);
#127=PLANE('',#664);
#128=PLANE('',#665);
#129=PLANE('',#666);
#130=PLANE('',#667);
#131=PLANE('',#668);
#132=PLANE('',#671);
#133=PLANE('',#672);
#134=PLANE('',#673);
#135=PLANE('',#678);
#136=PLANE('',#679);
#137=PLANE('',#684);
#138=PLANE('',#685);
#139=PLANE('',#691);
#140=PLANE('',#692);
#141=PLANE('',#697);
#142=PLANE('',#700);
#143=PLANE('',#704);
#144=FACE_OUTER_BOUND('',#170,.T.);
#145=FACE_OUTER_BOUND('',#171,.T.);
#146=FACE_OUTER_BOUND('',#172,.T.);
#147=FACE_OUTER_BOUND('',#173,.T.);
#148=FACE_OUTER_BOUND('',#174,.T.);
#149=FACE_OUTER_BOUND('',#175,.T.);
#150=FACE_OUTER_BOUND('',#179,.T.);
#151=FACE_OUTER_BOUND('',#180,.T.);
#152=FACE_OUTER_BOUND('',#181,.T.);
#153=FACE_OUTER_BOUND('',#182,.T.);
#154=FACE_OUTER_BOUND('',#186,.T.);
#155=FACE_OUTER_BOUND('',#187,.T.);
#156=FACE_OUTER_BOUND('',#188,.T.);
#157=FACE_OUTER_BOUND('',#189,.T.);
#158=FACE_OUTER_BOUND('',#190,.T.);
#159=FACE_OUTER_BOUND('',#191,.T.);
#160=FACE_OUTER_BOUND('',#192,.T.);
#161=FACE_OUTER_BOUND('',#193,.T.);
#162=FACE_OUTER_BOUND('',#194,.T.);
#163=FACE_OUTER_BOUND('',#195,.T.);
#164=FACE_OUTER_BOUND('',#199,.T.);
#165=FACE_OUTER_BOUND('',#200,.T.);
#166=FACE_OUTER_BOUND('',#201,.T.);
#167=FACE_OUTER_BOUND('',#204,.T.);
#168=FACE_OUTER_BOUND('',#207,.T.);
#169=FACE_OUTER_BOUND('',#212,.T.);
#170=EDGE_LOOP('',(#215,#216,#217,#218));
#171=EDGE_LOOP('',(#219,#220,#221,#222,#223,#224,#225,#226,#227,#228,#229,
#230));
#172=EDGE_LOOP('',(#231,#232,#233,#234,#235,#236,#237,#238,#239,#240,#241,
#242));
#173=EDGE_LOOP('',(#243,#244,#245,#246,#247,#248,#249,#250));
#174=EDGE_LOOP('',(#251,#252,#253,#254,#255,#256,#257,#258,#259));
#175=EDGE_LOOP('',(#260,#261,#262,#263));
#176=EDGE_LOOP('',(#264));
#177=EDGE_LOOP('',(#265));
#178=EDGE_LOOP('',(#266,#267,#268,#269));
#179=EDGE_LOOP('',(#270,#271,#272,#273,#274,#275,#276,#277,#278));
#180=EDGE_LOOP('',(#279,#280,#281,#282));
#181=EDGE_LOOP('',(#283,#284,#285,#286));
#182=EDGE_LOOP('',(#287,#288,#289,#290,#291,#292,#293,#294));
#183=EDGE_LOOP('',(#295));
#184=EDGE_LOOP('',(#296));
#185=EDGE_LOOP('',(#297,#298,#299,#300));
#186=EDGE_LOOP('',(#301,#302,#303,#304));
#187=EDGE_LOOP('',(#305,#306,#307,#308));
#188=EDGE_LOOP('',(#309,#310,#311,#312,#313,#314,#315,#316));
#189=EDGE_LOOP('',(#317,#318,#319,#320));
#190=EDGE_LOOP('',(#321,#322,#323,#324));
#191=EDGE_LOOP('',(#325,#326,#327,#328));
#192=EDGE_LOOP('',(#329,#330,#331,#332));
#193=EDGE_LOOP('',(#333,#334,#335,#336));
#194=EDGE_LOOP('',(#337,#338,#339,#340));
#195=EDGE_LOOP('',(#341,#342,#343,#344));
#196=EDGE_LOOP('',(#345));
#197=EDGE_LOOP('',(#346));
#198=EDGE_LOOP('',(#347,#348,#349,#350,#351,#352,#353,#354));
#199=EDGE_LOOP('',(#355,#356,#357,#358));
#200=EDGE_LOOP('',(#359,#360,#361,#362));
#201=EDGE_LOOP('',(#363,#364,#365,#366));
#202=EDGE_LOOP('',(#367));
#203=EDGE_LOOP('',(#368));
#204=EDGE_LOOP('',(#369));
#205=EDGE_LOOP('',(#370));
#206=EDGE_LOOP('',(#371));
#207=EDGE_LOOP('',(#372));
#208=EDGE_LOOP('',(#373));
#209=EDGE_LOOP('',(#374));
#210=EDGE_LOOP('',(#375));
#211=EDGE_LOOP('',(#376));
#212=EDGE_LOOP('',(#377));
#213=EDGE_LOOP('',(#378));
#214=EDGE_LOOP('',(#379,#380,#381,#382));
#215=ORIENTED_EDGE('',*,*,#442,.T.);
#216=ORIENTED_EDGE('',*,*,#443,.T.);
#217=ORIENTED_EDGE('',*,*,#444,.T.);
#218=ORIENTED_EDGE('',*,*,#445,.T.);
#219=ORIENTED_EDGE('',*,*,#446,.F.);
#220=ORIENTED_EDGE('',*,*,#442,.F.);
#221=ORIENTED_EDGE('',*,*,#447,.T.);
#222=ORIENTED_EDGE('',*,*,#448,.F.);
#223=ORIENTED_EDGE('',*,*,#449,.F.);
#224=ORIENTED_EDGE('',*,*,#450,.F.);
#225=ORIENTED_EDGE('',*,*,#451,.F.);
#226=ORIENTED_EDGE('',*,*,#452,.F.);
#227=ORIENTED_EDGE('',*,*,#453,.F.);
#228=ORIENTED_EDGE('',*,*,#454,.F.);
#229=ORIENTED_EDGE('',*,*,#455,.T.);
#230=ORIENTED_EDGE('',*,*,#456,.F.);
#231=ORIENTED_EDGE('',*,*,#457,.F.);
#232=ORIENTED_EDGE('',*,*,#458,.T.);
#233=ORIENTED_EDGE('',*,*,#459,.F.);
#234=ORIENTED_EDGE('',*,*,#460,.T.);
#235=ORIENTED_EDGE('',*,*,#461,.F.);
#236=ORIENTED_EDGE('',*,*,#462,.T.);
#237=ORIENTED_EDGE('',*,*,#463,.F.);
#238=ORIENTED_EDGE('',*,*,#464,.T.);
#239=ORIENTED_EDGE('',*,*,#465,.F.);
#240=ORIENTED_EDGE('',*,*,#466,.F.);
#241=ORIENTED_EDGE('',*,*,#467,.T.);
#242=ORIENTED_EDGE('',*,*,#468,.F.);
#243=ORIENTED_EDGE('',*,*,#469,.T.);
#244=ORIENTED_EDGE('',*,*,#453,.T.);
#245=ORIENTED_EDGE('',*,*,#470,.F.);
#246=ORIENTED_EDGE('',*,*,#471,.T.);
#247=ORIENTED_EDGE('',*,*,#472,.T.);
#248=ORIENTED_EDGE('',*,*,#449,.T.);
#249=ORIENTED_EDGE('',*,*,#473,.F.);
#250=ORIENTED_EDGE('',*,*,#474,.F.);
#251=ORIENTED_EDGE('',*,*,#475,.F.);
#252=ORIENTED_EDGE('',*,*,#476,.F.);
#253=ORIENTED_EDGE('',*,*,#477,.F.);
#254=ORIENTED_EDGE('',*,*,#468,.T.);
#255=ORIENTED_EDGE('',*,*,#478,.T.);
#256=ORIENTED_EDGE('',*,*,#479,.F.);
#257=ORIENTED_EDGE('',*,*,#480,.T.);
#258=ORIENTED_EDGE('',*,*,#470,.T.);
#259=ORIENTED_EDGE('',*,*,#452,.T.);
#260=ORIENTED_EDGE('',*,*,#479,.T.);
#261=ORIENTED_EDGE('',*,*,#481,.T.);
#262=ORIENTED_EDGE('',*,*,#482,.F.);
#263=ORIENTED_EDGE('',*,*,#483,.T.);
#264=ORIENTED_EDGE('',*,*,#484,.F.);
#265=ORIENTED_EDGE('',*,*,#485,.F.);
#266=ORIENTED_EDGE('',*,*,#486,.F.);
#267=ORIENTED_EDGE('',*,*,#471,.F.);
#268=ORIENTED_EDGE('',*,*,#480,.F.);
#269=ORIENTED_EDGE('',*,*,#483,.F.);
#270=ORIENTED_EDGE('',*,*,#487,.F.);
#271=ORIENTED_EDGE('',*,*,#450,.T.);
#272=ORIENTED_EDGE('',*,*,#472,.F.);
#273=ORIENTED_EDGE('',*,*,#486,.T.);
#274=ORIENTED_EDGE('',*,*,#482,.T.);
#275=ORIENTED_EDGE('',*,*,#488,.T.);
#276=ORIENTED_EDGE('',*,*,#466,.T.);
#277=ORIENTED_EDGE('',*,*,#489,.F.);
#278=ORIENTED_EDGE('',*,*,#490,.F.);
#279=ORIENTED_EDGE('',*,*,#478,.F.);
#280=ORIENTED_EDGE('',*,*,#467,.F.);
#281=ORIENTED_EDGE('',*,*,#488,.F.);
#282=ORIENTED_EDGE('',*,*,#481,.F.);
#283=ORIENTED_EDGE('',*,*,#475,.T.);
#284=ORIENTED_EDGE('',*,*,#451,.T.);
#285=ORIENTED_EDGE('',*,*,#487,.T.);
#286=ORIENTED_EDGE('',*,*,#491,.T.);
#287=ORIENTED_EDGE('',*,*,#492,.F.);
#288=ORIENTED_EDGE('',*,*,#493,.T.);
#289=ORIENTED_EDGE('',*,*,#457,.T.);
#290=ORIENTED_EDGE('',*,*,#477,.T.);
#291=ORIENTED_EDGE('',*,*,#494,.T.);
#292=ORIENTED_EDGE('',*,*,#489,.T.);
#293=ORIENTED_EDGE('',*,*,#465,.T.);
#294=ORIENTED_EDGE('',*,*,#495,.T.);
#295=ORIENTED_EDGE('',*,*,#496,.T.);
#296=ORIENTED_EDGE('',*,*,#497,.T.);
#297=ORIENTED_EDGE('',*,*,#476,.T.);
#298=ORIENTED_EDGE('',*,*,#491,.F.);
#299=ORIENTED_EDGE('',*,*,#490,.T.);
#300=ORIENTED_EDGE('',*,*,#494,.F.);
#301=ORIENTED_EDGE('',*,*,#498,.T.);
#302=ORIENTED_EDGE('',*,*,#499,.T.);
#303=ORIENTED_EDGE('',*,*,#459,.T.);
#304=ORIENTED_EDGE('',*,*,#500,.T.);
#305=ORIENTED_EDGE('',*,*,#501,.T.);
#306=ORIENTED_EDGE('',*,*,#502,.T.);
#307=ORIENTED_EDGE('',*,*,#461,.T.);
#308=ORIENTED_EDGE('',*,*,#503,.T.);
#309=ORIENTED_EDGE('',*,*,#504,.F.);
#310=ORIENTED_EDGE('',*,*,#505,.T.);
#311=ORIENTED_EDGE('',*,*,#501,.F.);
#312=ORIENTED_EDGE('',*,*,#506,.T.);
#313=ORIENTED_EDGE('',*,*,#498,.F.);
#314=ORIENTED_EDGE('',*,*,#507,.T.);
#315=ORIENTED_EDGE('',*,*,#492,.T.);
#316=ORIENTED_EDGE('',*,*,#508,.T.);
#317=ORIENTED_EDGE('',*,*,#463,.T.);
#318=ORIENTED_EDGE('',*,*,#509,.T.);
#319=ORIENTED_EDGE('',*,*,#504,.T.);
#320=ORIENTED_EDGE('',*,*,#510,.T.);
#321=ORIENTED_EDGE('',*,*,#462,.F.);
#322=ORIENTED_EDGE('',*,*,#502,.F.);
#323=ORIENTED_EDGE('',*,*,#505,.F.);
#324=ORIENTED_EDGE('',*,*,#509,.F.);
#325=ORIENTED_EDGE('',*,*,#460,.F.);
#326=ORIENTED_EDGE('',*,*,#499,.F.);
#327=ORIENTED_EDGE('',*,*,#506,.F.);
#328=ORIENTED_EDGE('',*,*,#503,.F.);
#329=ORIENTED_EDGE('',*,*,#507,.F.);
#330=ORIENTED_EDGE('',*,*,#500,.F.);
#331=ORIENTED_EDGE('',*,*,#458,.F.);
#332=ORIENTED_EDGE('',*,*,#493,.F.);
#333=ORIENTED_EDGE('',*,*,#508,.F.);
#334=ORIENTED_EDGE('',*,*,#495,.F.);
#335=ORIENTED_EDGE('',*,*,#464,.F.);
#336=ORIENTED_EDGE('',*,*,#510,.F.);
#337=ORIENTED_EDGE('',*,*,#511,.T.);
#338=ORIENTED_EDGE('',*,*,#512,.T.);
#339=ORIENTED_EDGE('',*,*,#454,.T.);
#340=ORIENTED_EDGE('',*,*,#469,.F.);
#341=ORIENTED_EDGE('',*,*,#513,.T.);
#342=ORIENTED_EDGE('',*,*,#514,.T.);
#343=ORIENTED_EDGE('',*,*,#456,.T.);
#344=ORIENTED_EDGE('',*,*,#515,.T.);
#345=ORIENTED_EDGE('',*,*,#516,.T.);
#346=ORIENTED_EDGE('',*,*,#517,.T.);
#347=ORIENTED_EDGE('',*,*,#444,.F.);
#348=ORIENTED_EDGE('',*,*,#518,.T.);
#349=ORIENTED_EDGE('',*,*,#513,.F.);
#350=ORIENTED_EDGE('',*,*,#519,.T.);
#351=ORIENTED_EDGE('',*,*,#511,.F.);
#352=ORIENTED_EDGE('',*,*,#474,.T.);
#353=ORIENTED_EDGE('',*,*,#520,.F.);
#354=ORIENTED_EDGE('',*,*,#521,.T.);
#355=ORIENTED_EDGE('',*,*,#448,.T.);
#356=ORIENTED_EDGE('',*,*,#522,.T.);
#357=ORIENTED_EDGE('',*,*,#520,.T.);
#358=ORIENTED_EDGE('',*,*,#473,.T.);
#359=ORIENTED_EDGE('',*,*,#455,.F.);
#360=ORIENTED_EDGE('',*,*,#512,.F.);
#361=ORIENTED_EDGE('',*,*,#519,.F.);
#362=ORIENTED_EDGE('',*,*,#515,.F.);
#363=ORIENTED_EDGE('',*,*,#447,.F.);
#364=ORIENTED_EDGE('',*,*,#445,.F.);
#365=ORIENTED_EDGE('',*,*,#521,.F.);
#366=ORIENTED_EDGE('',*,*,#522,.F.);
#367=ORIENTED_EDGE('',*,*,#523,.T.);
#368=ORIENTED_EDGE('',*,*,#517,.F.);
#369=ORIENTED_EDGE('',*,*,#523,.F.);
#370=ORIENTED_EDGE('',*,*,#524,.T.);
#371=ORIENTED_EDGE('',*,*,#497,.F.);
#372=ORIENTED_EDGE('',*,*,#524,.F.);
#373=ORIENTED_EDGE('',*,*,#485,.T.);
#374=ORIENTED_EDGE('',*,*,#496,.F.);
#375=ORIENTED_EDGE('',*,*,#525,.T.);
#376=ORIENTED_EDGE('',*,*,#516,.F.);
#377=ORIENTED_EDGE('',*,*,#525,.F.);
#378=ORIENTED_EDGE('',*,*,#484,.T.);
#379=ORIENTED_EDGE('',*,*,#446,.T.);
#380=ORIENTED_EDGE('',*,*,#514,.F.);
#381=ORIENTED_EDGE('',*,*,#518,.F.);
#382=ORIENTED_EDGE('',*,*,#443,.F.);
#383=VERTEX_POINT('',#885);
#384=VERTEX_POINT('',#886);
#385=VERTEX_POINT('',#888);
#386=VERTEX_POINT('',#890);
#387=VERTEX_POINT('',#894);
#388=VERTEX_POINT('',#896);
#389=VERTEX_POINT('',#898);
#390=VERTEX_POINT('',#900);
#391=VERTEX_POINT('',#902);
#392=VERTEX_POINT('',#904);
#393=VERTEX_POINT('',#906);
#394=VERTEX_POINT('',#908);
#395=VERTEX_POINT('',#910);
#396=VERTEX_POINT('',#912);
#397=VERTEX_POINT('',#916);
#398=VERTEX_POINT('',#917);
#399=VERTEX_POINT('',#919);
#400=VERTEX_POINT('',#921);
#401=VERTEX_POINT('',#923);
#402=VERTEX_POINT('',#925);
#403=VERTEX_POINT('',#927);
#404=VERTEX_POINT('',#929);
#405=VERTEX_POINT('',#931);
#406=VERTEX_POINT('',#933);
#407=VERTEX_POINT('',#935);
#408=VERTEX_POINT('',#937);
#409=VERTEX_POINT('',#941);
#410=VERTEX_POINT('',#943);
#411=VERTEX_POINT('',#945);
#412=VERTEX_POINT('',#948);
#413=VERTEX_POINT('',#952);
#414=VERTEX_POINT('',#954);
#415=VERTEX_POINT('',#957);
#416=VERTEX_POINT('',#959);
#417=VERTEX_POINT('',#963);
#418=VERTEX_POINT('',#965);
#419=VERTEX_POINT('',#969);
#420=VERTEX_POINT('',#971);
#421=VERTEX_POINT('',#975);
#422=VERTEX_POINT('',#978);
#423=VERTEX_POINT('',#985);
#424=VERTEX_POINT('',#986);
#425=VERTEX_POINT('',#992);
#426=VERTEX_POINT('',#994);
#427=VERTEX_POINT('',#997);
#428=VERTEX_POINT('',#998);
#429=VERTEX_POINT('',#1003);
#430=VERTEX_POINT('',#1004);
#431=VERTEX_POINT('',#1009);
#432=VERTEX_POINT('',#1010);
#433=VERTEX_POINT('',#1024);
#434=VERTEX_POINT('',#1028);
#435=VERTEX_POINT('',#1029);
#436=VERTEX_POINT('',#1034);
#437=VERTEX_POINT('',#1036);
#438=VERTEX_POINT('',#1040);
#439=VERTEX_POINT('',#1048);
#440=VERTEX_POINT('',#1052);
#441=VERTEX_POINT('',#1057);
#442=EDGE_CURVE('',#383,#384,#526,.T.);
#443=EDGE_CURVE('',#384,#385,#527,.T.);
#444=EDGE_CURVE('',#385,#386,#528,.T.);
#445=EDGE_CURVE('',#386,#383,#529,.T.);
#446=EDGE_CURVE('',#384,#387,#64,.T.);
#447=EDGE_CURVE('',#383,#388,#65,.T.);
#448=EDGE_CURVE('',#389,#388,#530,.T.);
#449=EDGE_CURVE('',#390,#389,#531,.T.);
#450=EDGE_CURVE('',#391,#390,#532,.T.);
#451=EDGE_CURVE('',#392,#391,#533,.T.);
#452=EDGE_CURVE('',#393,#392,#534,.T.);
#453=EDGE_CURVE('',#394,#393,#535,.T.);
#454=EDGE_CURVE('',#395,#394,#536,.T.);
#455=EDGE_CURVE('',#395,#396,#66,.T.);
#456=EDGE_CURVE('',#387,#396,#537,.T.);
#457=EDGE_CURVE('',#397,#398,#538,.T.);
#458=EDGE_CURVE('',#397,#399,#67,.T.);
#459=EDGE_CURVE('',#400,#399,#539,.T.);
#460=EDGE_CURVE('',#400,#401,#68,.T.);
#461=EDGE_CURVE('',#402,#401,#540,.T.);
#462=EDGE_CURVE('',#402,#403,#69,.T.);
#463=EDGE_CURVE('',#404,#403,#541,.T.);
#464=EDGE_CURVE('',#404,#405,#70,.T.);
#465=EDGE_CURVE('',#406,#405,#542,.T.);
#466=EDGE_CURVE('',#407,#406,#543,.T.);
#467=EDGE_CURVE('',#407,#408,#544,.T.);
#468=EDGE_CURVE('',#398,#408,#545,.T.);
#469=EDGE_CURVE('',#409,#394,#546,.T.);
#470=EDGE_CURVE('',#410,#393,#547,.T.);
#471=EDGE_CURVE('',#410,#411,#548,.T.);
#472=EDGE_CURVE('',#411,#390,#549,.T.);
#473=EDGE_CURVE('',#412,#389,#550,.T.);
#474=EDGE_CURVE('',#409,#412,#551,.T.);
#475=EDGE_CURVE('',#413,#392,#552,.T.);
#476=EDGE_CURVE('',#414,#413,#553,.T.);
#477=EDGE_CURVE('',#398,#414,#554,.T.);
#478=EDGE_CURVE('',#408,#415,#555,.T.);
#479=EDGE_CURVE('',#416,#415,#556,.T.);
#480=EDGE_CURVE('',#416,#410,#557,.T.);
#481=EDGE_CURVE('',#415,#417,#558,.T.);
#482=EDGE_CURVE('',#418,#417,#559,.T.);
#483=EDGE_CURVE('',#418,#416,#560,.T.);
#484=EDGE_CURVE('',#419,#419,#71,.T.);
#485=EDGE_CURVE('',#420,#420,#72,.T.);
#486=EDGE_CURVE('',#411,#418,#561,.T.);
#487=EDGE_CURVE('',#391,#421,#562,.T.);
#488=EDGE_CURVE('',#417,#407,#563,.T.);
#489=EDGE_CURVE('',#422,#406,#564,.T.);
#490=EDGE_CURVE('',#421,#422,#565,.T.);
#491=EDGE_CURVE('',#421,#413,#566,.T.);
#492=EDGE_CURVE('',#423,#424,#567,.T.);
#493=EDGE_CURVE('',#423,#397,#568,.T.);
#494=EDGE_CURVE('',#414,#422,#569,.T.);
#495=EDGE_CURVE('',#405,#424,#570,.T.);
#496=EDGE_CURVE('',#425,#425,#73,.T.);
#497=EDGE_CURVE('',#426,#426,#74,.T.);
#498=EDGE_CURVE('',#427,#428,#571,.T.);
#499=EDGE_CURVE('',#428,#400,#572,.T.);
#500=EDGE_CURVE('',#399,#427,#573,.T.);
#501=EDGE_CURVE('',#429,#430,#574,.T.);
#502=EDGE_CURVE('',#430,#402,#575,.T.);
#503=EDGE_CURVE('',#401,#429,#576,.T.);
#504=EDGE_CURVE('',#431,#432,#577,.T.);
#505=EDGE_CURVE('',#431,#430,#75,.T.);
#506=EDGE_CURVE('',#429,#428,#76,.T.);
#507=EDGE_CURVE('',#427,#423,#77,.T.);
#508=EDGE_CURVE('',#424,#432,#78,.T.);
#509=EDGE_CURVE('',#403,#431,#578,.T.);
#510=EDGE_CURVE('',#432,#404,#579,.T.);
#511=EDGE_CURVE('',#409,#433,#580,.T.);
#512=EDGE_CURVE('',#433,#395,#581,.T.);
#513=EDGE_CURVE('',#434,#435,#582,.T.);
#514=EDGE_CURVE('',#435,#387,#583,.T.);
#515=EDGE_CURVE('',#396,#434,#584,.T.);
#516=EDGE_CURVE('',#436,#436,#79,.T.);
#517=EDGE_CURVE('',#437,#437,#80,.T.);
#518=EDGE_CURVE('',#385,#435,#81,.T.);
#519=EDGE_CURVE('',#434,#433,#82,.T.);
#520=EDGE_CURVE('',#438,#412,#585,.T.);
#521=EDGE_CURVE('',#438,#386,#83,.T.);
#522=EDGE_CURVE('',#388,#438,#586,.T.);
#523=EDGE_CURVE('',#439,#439,#84,.T.);
#524=EDGE_CURVE('',#440,#440,#85,.T.);
#525=EDGE_CURVE('',#441,#441,#86,.T.);
#526=LINE('',#884,#587);
#527=LINE('',#887,#588);
#528=LINE('',#889,#589);
#529=LINE('',#891,#590);
#530=LINE('',#897,#591);
#531=LINE('',#899,#592);
#532=LINE('',#901,#593);
#533=LINE('',#903,#594);
#534=LINE('',#905,#595);
#535=LINE('',#907,#596);
#536=LINE('',#909,#597);
#537=LINE('',#913,#598);
#538=LINE('',#915,#599);
#539=LINE('',#920,#600);
#540=LINE('',#924,#601);
#541=LINE('',#928,#602);
#542=LINE('',#932,#603);
#543=LINE('',#934,#604);
#544=LINE('',#936,#605);
#545=LINE('',#938,#606);
#546=LINE('',#940,#607);
#547=LINE('',#942,#608);
#548=LINE('',#944,#609);
#549=LINE('',#946,#610);
#550=LINE('',#947,#611);
#551=LINE('',#949,#612);
#552=LINE('',#951,#613);
#553=LINE('',#953,#614);
#554=LINE('',#955,#615);
#555=LINE('',#956,#616);
#556=LINE('',#958,#617);
#557=LINE('',#960,#618);
#558=LINE('',#962,#619);
#559=LINE('',#964,#620);
#560=LINE('',#966,#621);
#561=LINE('',#972,#622);
#562=LINE('',#974,#623);
#563=LINE('',#976,#624);
#564=LINE('',#977,#625);
#565=LINE('',#979,#626);
#566=LINE('',#982,#627);
#567=LINE('',#984,#628);
#568=LINE('',#987,#629);
#569=LINE('',#988,#630);
#570=LINE('',#989,#631);
#571=LINE('',#996,#632);
#572=LINE('',#999,#633);
#573=LINE('',#1000,#634);
#574=LINE('',#1002,#635);
#575=LINE('',#1005,#636);
#576=LINE('',#1006,#637);
#577=LINE('',#1008,#638);
#578=LINE('',#1016,#639);
#579=LINE('',#1017,#640);
#580=LINE('',#1023,#641);
#581=LINE('',#1025,#642);
#582=LINE('',#1027,#643);
#583=LINE('',#1030,#644);
#584=LINE('',#1031,#645);
#585=LINE('',#1039,#646);
#586=LINE('',#1043,#647);
#587=VECTOR('',#708,1.);
#588=VECTOR('',#709,1.);
#589=VECTOR('',#710,1.);
#590=VECTOR('',#711,1.);
#591=VECTOR('',#718,1.);
#592=VECTOR('',#719,1.);
#593=VECTOR('',#720,1.);
#594=VECTOR('',#721,1.);
#595=VECTOR('',#722,1.);
#596=VECTOR('',#723,1.);
#597=VECTOR('',#724,1.);
#598=VECTOR('',#727,1.);
#599=VECTOR('',#730,1.);
#600=VECTOR('',#733,1.);
#601=VECTOR('',#736,1.);
#602=VECTOR('',#739,1.);
#603=VECTOR('',#742,1.);
#604=VECTOR('',#743,1.);
#605=VECTOR('',#744,1.);
#606=VECTOR('',#745,1.);
#607=VECTOR('',#748,1.);
#608=VECTOR('',#749,1.);
#609=VECTOR('',#750,1.);
#610=VECTOR('',#751,1.);
#611=VECTOR('',#752,1.);
#612=VECTOR('',#753,1.);
#613=VECTOR('',#756,1.);
#614=VECTOR('',#757,1.);
#615=VECTOR('',#758,1.);
#616=VECTOR('',#759,1.);
#617=VECTOR('',#760,1.);
#618=VECTOR('',#761,1.);
#619=VECTOR('',#764,1.);
#620=VECTOR('',#765,1.);
#621=VECTOR('',#766,1.);
#622=VECTOR('',#773,1.);
#623=VECTOR('',#776,1.);
#624=VECTOR('',#777,1.);
#625=VECTOR('',#778,1.);
#626=VECTOR('',#779,1.);
#627=VECTOR('',#784,1.);
#628=VECTOR('',#787,1.);
#629=VECTOR('',#788,1.);
#630=VECTOR('',#789,1.);
#631=VECTOR('',#790,1.);
#632=VECTOR('',#799,1.);
#633=VECTOR('',#800,1.);
#634=VECTOR('',#801,1.);
#635=VECTOR('',#804,1.);
#636=VECTOR('',#805,1.);
#637=VECTOR('',#806,1.);
#638=VECTOR('',#809,1.);
#639=VECTOR('',#820,1.);
#640=VECTOR('',#821,1.);
#641=VECTOR('',#832,1.);
#642=VECTOR('',#833,1.);
#643=VECTOR('',#836,1.);
#644=VECTOR('',#837,1.);
#645=VECTOR('',#838,1.);
#646=VECTOR('',#849,1.);
#647=VECTOR('',#854,1.);
#648=AXIS2_PLACEMENT_3D('',#883,#706,#707);
#649=AXIS2_PLACEMENT_3D('',#892,#712,#713);
#650=AXIS2_PLACEMENT_3D('',#893,#714,#715);
#651=AXIS2_PLACEMENT_3D('',#895,#716,#717);
#652=AXIS2_PLACEMENT_3D('',#911,#725,#726);
#653=AXIS2_PLACEMENT_3D('',#914,#728,#729);
#654=AXIS2_PLACEMENT_3D('',#918,#731,#732);
#655=AXIS2_PLACEMENT_3D('',#922,#734,#735);
#656=AXIS2_PLACEMENT_3D('',#926,#737,#738);
#657=AXIS2_PLACEMENT_3D('',#930,#740,#741);
#658=AXIS2_PLACEMENT_3D('',#939,#746,#747);
#659=AXIS2_PLACEMENT_3D('',#950,#754,#755);
#660=AXIS2_PLACEMENT_3D('',#961,#762,#763);
#661=AXIS2_PLACEMENT_3D('',#967,#767,#768);
#662=AXIS2_PLACEMENT_3D('',#968,#769,#770);
#663=AXIS2_PLACEMENT_3D('',#970,#771,#772);
#664=AXIS2_PLACEMENT_3D('',#973,#774,#775);
#665=AXIS2_PLACEMENT_3D('',#980,#780,#781);
#666=AXIS2_PLACEMENT_3D('',#981,#782,#783);
#667=AXIS2_PLACEMENT_3D('',#983,#785,#786);
#668=AXIS2_PLACEMENT_3D('',#990,#791,#792);
#669=AXIS2_PLACEMENT_3D('',#991,#793,#794);
#670=AXIS2_PLACEMENT_3D('',#993,#795,#796);
#671=AXIS2_PLACEMENT_3D('',#995,#797,#798);
#672=AXIS2_PLACEMENT_3D('',#1001,#802,#803);
#673=AXIS2_PLACEMENT_3D('',#1007,#807,#808);
#674=AXIS2_PLACEMENT_3D('',#1011,#810,#811);
#675=AXIS2_PLACEMENT_3D('',#1012,#812,#813);
#676=AXIS2_PLACEMENT_3D('',#1013,#814,#815);
#677=AXIS2_PLACEMENT_3D('',#1014,#816,#817);
#678=AXIS2_PLACEMENT_3D('',#1015,#818,#819);
#679=AXIS2_PLACEMENT_3D('',#1018,#822,#823);
#680=AXIS2_PLACEMENT_3D('',#1019,#824,#825);
#681=AXIS2_PLACEMENT_3D('',#1020,#826,#827);
#682=AXIS2_PLACEMENT_3D('',#1021,#828,#829);
#683=AXIS2_PLACEMENT_3D('',#1022,#830,#831);
#684=AXIS2_PLACEMENT_3D('',#1026,#834,#835);
#685=AXIS2_PLACEMENT_3D('',#1032,#839,#840);
#686=AXIS2_PLACEMENT_3D('',#1033,#841,#842);
#687=AXIS2_PLACEMENT_3D('',#1035,#843,#844);
#688=AXIS2_PLACEMENT_3D('',#1037,#845,#846);
#689=AXIS2_PLACEMENT_3D('',#1038,#847,#848);
#690=AXIS2_PLACEMENT_3D('',#1041,#850,#851);
#691=AXIS2_PLACEMENT_3D('',#1042,#852,#853);
#692=AXIS2_PLACEMENT_3D('',#1044,#855,#856);
#693=AXIS2_PLACEMENT_3D('',#1045,#857,#858);
#694=AXIS2_PLACEMENT_3D('',#1046,#859,#860);
#695=AXIS2_PLACEMENT_3D('',#1047,#861,#862);
#696=AXIS2_PLACEMENT_3D('',#1049,#863,#864);
#697=AXIS2_PLACEMENT_3D('',#1050,#865,#866);
#698=AXIS2_PLACEMENT_3D('',#1051,#867,#868);
#699=AXIS2_PLACEMENT_3D('',#1053,#869,#870);
#700=AXIS2_PLACEMENT_3D('',#1054,#871,#872);
#701=AXIS2_PLACEMENT_3D('',#1055,#873,#874);
#702=AXIS2_PLACEMENT_3D('',#1056,#875,#876);
#703=AXIS2_PLACEMENT_3D('',#1058,#877,#878);
#704=AXIS2_PLACEMENT_3D('',#1059,#879,#880);
#705=AXIS2_PLACEMENT_3D('',#1060,#881,#882);
#706=DIRECTION('',(0.,0.,1.));
#707=DIRECTION('',(1.,0.,0.));
#708=DIRECTION('',(-1.,0.,0.));
#709=DIRECTION('',(0.,0.,-1.));
#710=DIRECTION('',(1.,0.,0.));
#711=DIRECTION('',(0.,0.,1.));
#712=DIRECTION('',(0.,1.,0.));
#713=DIRECTION('',(0.,0.,1.));
#714=DIRECTION('',(0.,0.,1.));
#715=DIRECTION('',(0.999999999999999,0.,0.));
#716=DIRECTION('',(0.,0.,-1.));
#717=DIRECTION('',(1.,0.,0.));
#718=DIRECTION('',(0.,1.,0.));
#719=DIRECTION('',(-1.,0.,0.));
#720=DIRECTION('',(0.,-1.,0.));
#721=DIRECTION('',(1.,0.,0.));
#722=DIRECTION('',(0.,1.,0.));
#723=DIRECTION('',(-1.,0.,0.));
#724=DIRECTION('',(0.,-1.,0.));
#725=DIRECTION('',(0.,0.,-1.));
#726=DIRECTION('',(1.,0.,0.));
#727=DIRECTION('',(-1.,0.,0.));
#728=DIRECTION('',(0.,0.,1.));
#729=DIRECTION('',(1.,0.,0.));
#730=DIRECTION('',(-1.,0.,0.));
#731=DIRECTION('',(0.,0.,1.));
#732=DIRECTION('',(1.,0.,0.));
#733=DIRECTION('',(0.,-1.,0.));
#734=DIRECTION('',(0.,0.,-1.));
#735=DIRECTION('',(1.,0.,0.));
#736=DIRECTION('',(-1.,0.,0.));
#737=DIRECTION('',(0.,0.,-1.));
#738=DIRECTION('',(0.999999999999999,0.,0.));
#739=DIRECTION('',(0.,1.,0.));
#740=DIRECTION('',(0.,0.,1.));
#741=DIRECTION('',(0.999999999999999,0.,0.));
#742=DIRECTION('',(-1.,0.,0.));
#743=DIRECTION('',(0.,-1.,0.));
#744=DIRECTION('',(-1.,0.,0.));
#745=DIRECTION('',(0.,1.,0.));
#746=DIRECTION('',(0.,0.,1.));
#747=DIRECTION('',(1.,0.,0.));
#748=DIRECTION('',(0.,0.,1.));
#749=DIRECTION('',(0.,0.,1.));
#750=DIRECTION('',(1.,0.,0.));
#751=DIRECTION('',(0.,0.,1.));
#752=DIRECTION('',(0.,0.,1.));
#753=DIRECTION('',(1.,0.,0.));
#754=DIRECTION('',(0.,-1.,0.));
#755=DIRECTION('',(0.,0.,-1.));
#756=DIRECTION('',(0.,0.,1.));
#757=DIRECTION('',(0.,-1.,0.));
#758=DIRECTION('',(0.,0.,-1.));
#759=DIRECTION('',(0.,0.707106781186547,-0.707106781186548));
#760=DIRECTION('',(0.,0.,1.));
#761=DIRECTION('',(0.,-1.,0.));
#762=DIRECTION('',(-1.,0.,0.));
#763=DIRECTION('',(0.,0.,1.));
#764=DIRECTION('',(1.,0.,0.));
#765=DIRECTION('',(0.,0.,1.));
#766=DIRECTION('',(-1.,0.,0.));
#767=DIRECTION('',(0.,1.,0.));
#768=DIRECTION('',(0.,0.,1.));
#769=DIRECTION('',(0.,0.,-1.));
#770=DIRECTION('',(-0.999999999999999,0.,0.));
#771=DIRECTION('',(0.,0.,-1.));
#772=DIRECTION('',(-1.,0.,0.));
#773=DIRECTION('',(0.,1.,0.));
#774=DIRECTION('',(0.,0.,-1.));
#775=DIRECTION('',(-1.,0.,0.));
#776=DIRECTION('',(0.,0.,-1.));
#777=DIRECTION('',(0.,-0.707106781186547,0.707106781186548));
#778=DIRECTION('',(0.,0.,1.));
#779=DIRECTION('',(0.,1.,0.));
#780=DIRECTION('',(1.,0.,0.));
#781=DIRECTION('',(0.,0.,-1.));
#782=DIRECTION('',(0.,-0.707106781186548,-0.707106781186547));
#783=DIRECTION('',(1.,0.,0.));
#784=DIRECTION('',(-1.,0.,0.));
#785=DIRECTION('',(0.,-1.,0.));
#786=DIRECTION('',(0.,0.,-1.));
#787=DIRECTION('',(1.,0.,0.));
#788=DIRECTION('',(0.,0.,1.));
#789=DIRECTION('',(1.,0.,0.));
#790=DIRECTION('',(0.,0.,-1.));
#791=DIRECTION('',(0.,1.,0.));
#792=DIRECTION('',(0.,0.,1.));
#793=DIRECTION('',(0.,0.,-1.));
#794=DIRECTION('',(-1.,0.,0.));
#795=DIRECTION('',(0.,0.,-1.));
#796=DIRECTION('',(-0.999999999999998,0.,0.));
#797=DIRECTION('',(0.,0.,-1.));
#798=DIRECTION('',(-1.,0.,0.));
#799=DIRECTION('',(0.,1.,0.));
#800=DIRECTION('',(0.,0.,1.));
#801=DIRECTION('',(0.,0.,-1.));
#802=DIRECTION('',(-1.,0.,0.));
#803=DIRECTION('',(0.,0.,1.));
#804=DIRECTION('',(1.,0.,0.));
#805=DIRECTION('',(0.,0.,1.));
#806=DIRECTION('',(0.,0.,-1.));
#807=DIRECTION('',(0.,1.,0.));
#808=DIRECTION('',(0.,0.,1.));
#809=DIRECTION('',(0.,-1.,0.));
#810=DIRECTION('',(0.,0.,1.));
#811=DIRECTION('',(-0.999999999999999,0.,0.));
#812=DIRECTION('',(0.,0.,1.));
#813=DIRECTION('',(-1.,0.,0.));
#814=DIRECTION('',(0.,0.,-1.));
#815=DIRECTION('',(-1.,0.,0.));
#816=DIRECTION('',(0.,0.,-1.));
#817=DIRECTION('',(-0.999999999999999,0.,0.));
#818=DIRECTION('',(0.,0.,-1.));
#819=DIRECTION('',(-1.,0.,0.));
#820=DIRECTION('',(0.,0.,-1.));
#821=DIRECTION('',(0.,0.,1.));
#822=DIRECTION('',(1.,0.,0.));
#823=DIRECTION('',(0.,0.,-1.));
#824=DIRECTION('',(0.,0.,1.));
#825=DIRECTION('',(0.999999999999999,0.,0.));
#826=DIRECTION('',(0.,0.,1.));
#827=DIRECTION('',(1.,0.,0.));
#828=DIRECTION('',(0.,0.,1.));
#829=DIRECTION('',(1.,0.,0.));
#830=DIRECTION('',(0.,0.,1.));
#831=DIRECTION('',(0.999999999999999,0.,0.));
#832=DIRECTION('',(0.,1.,0.));
#833=DIRECTION('',(0.,0.,1.));
#834=DIRECTION('',(-1.,0.,0.));
#835=DIRECTION('',(0.,0.,1.));
#836=DIRECTION('',(1.,0.,0.));
#837=DIRECTION('',(0.,0.,1.));
#838=DIRECTION('',(0.,0.,-1.));
#839=DIRECTION('',(0.,1.,0.));
#840=DIRECTION('',(0.,0.,1.));
#841=DIRECTION('',(0.,0.,-1.));
#842=DIRECTION('',(-1.,0.,0.));
#843=DIRECTION('',(0.,0.,-1.));
#844=DIRECTION('',(-0.999999999999999,0.,0.));
#845=DIRECTION('',(0.,0.,-1.));
#846=DIRECTION('',(-0.999999999999999,0.,0.));
#847=DIRECTION('',(0.,0.,1.));
#848=DIRECTION('',(-1.,0.,0.));
#849=DIRECTION('',(0.,-1.,0.));
#850=DIRECTION('',(0.,0.,1.));
#851=DIRECTION('',(-1.,0.,0.));
#852=DIRECTION('',(0.,0.,-1.));
#853=DIRECTION('',(-1.,0.,0.));
#854=DIRECTION('',(0.,0.,-1.));
#855=DIRECTION('',(1.,0.,0.));
#856=DIRECTION('',(0.,0.,-1.));
#857=DIRECTION('',(0.,0.,1.));
#858=DIRECTION('',(1.,0.,0.));
#859=DIRECTION('',(0.,0.,1.));
#860=DIRECTION('',(1.,0.,0.));
#861=DIRECTION('',(0.,0.,-1.));
#862=DIRECTION('',(0.999999999999999,0.,0.));
#863=DIRECTION('',(0.,0.,-1.));
#864=DIRECTION('',(0.999999999999999,0.,0.));
#865=DIRECTION('',(0.,0.,-1.));
#866=DIRECTION('',(-1.,0.,0.));
#867=DIRECTION('',(0.,0.,-1.));
#868=DIRECTION('',(0.999999999999998,0.,0.));
#869=DIRECTION('',(0.,0.,-1.));
#870=DIRECTION('',(0.999999999999998,0.,0.));
#871=DIRECTION('',(0.,0.,-1.));
#872=DIRECTION('',(-1.,0.,0.));
#873=DIRECTION('',(0.,0.,-1.));
#874=DIRECTION('',(1.,0.,0.));
#875=DIRECTION('',(0.,0.,-1.));
#876=DIRECTION('',(1.,0.,0.));
#877=DIRECTION('',(0.,0.,-1.));
#878=DIRECTION('',(1.,0.,0.));
#879=DIRECTION('',(0.,0.,-1.));
#880=DIRECTION('',(-1.,0.,0.));
#881=DIRECTION('',(0.,0.,-1.));
#882=DIRECTION('',(0.999999999999999,0.,0.));
#883=CARTESIAN_POINT('',(0.,0.,0.));
#884=CARTESIAN_POINT('',(133.85,108.4,104.4));
#885=CARTESIAN_POINT('',(225.9,108.4,104.4));
#886=CARTESIAN_POINT('',(145.303982644975,108.4,104.4));
#887=CARTESIAN_POINT('',(145.303982644975,108.4,104.45));
#888=CARTESIAN_POINT('',(145.303982644975,108.4,86.6));
#889=CARTESIAN_POINT('',(171.05,108.4,86.6));
#890=CARTESIAN_POINT('',(225.9,108.4,86.6));
#891=CARTESIAN_POINT('',(225.9,108.4,104.4));
#892=CARTESIAN_POINT('',(171.05,108.4,86.6));
#893=CARTESIAN_POINT('',(136.2,111.6,104.4));
#894=CARTESIAN_POINT('',(127.096017355025,108.4,104.4));
#895=CARTESIAN_POINT('',(225.9,103.4,104.4));
#896=CARTESIAN_POINT('',(230.9,103.4,104.4));
#897=CARTESIAN_POINT('',(230.9,222.25,104.4));
#898=CARTESIAN_POINT('',(230.9,0.,104.4));
#899=CARTESIAN_POINT('',(133.85,0.,104.4));
#900=CARTESIAN_POINT('',(267.7,0.,104.4));
#901=CARTESIAN_POINT('',(267.7,222.25,104.4));
#902=CARTESIAN_POINT('',(267.7,187.6,104.4));
#903=CARTESIAN_POINT('',(133.85,187.6,104.4));
#904=CARTESIAN_POINT('',(0.,187.6,104.4));
#905=CARTESIAN_POINT('',(0.,222.25,104.4));
#906=CARTESIAN_POINT('',(0.,0.,104.4));
#907=CARTESIAN_POINT('',(133.85,0.,104.4));
#908=CARTESIAN_POINT('',(111.2,0.,104.4));
#909=CARTESIAN_POINT('',(111.2,222.25,104.4));
#910=CARTESIAN_POINT('',(111.2,103.4,104.4));
#911=CARTESIAN_POINT('',(116.2,103.4,104.4));
#912=CARTESIAN_POINT('',(116.2,108.4,104.4));
#913=CARTESIAN_POINT('',(133.85,108.4,104.4));
#914=CARTESIAN_POINT('',(133.85,222.25,104.4));
#915=CARTESIAN_POINT('',(133.85,223.,104.4));
#916=CARTESIAN_POINT('',(3.19999999999998,223.,104.4));
#917=CARTESIAN_POINT('',(0.,223.,104.4));
#918=CARTESIAN_POINT('',(3.19999999999998,229.6,104.4));
#919=CARTESIAN_POINT('',(9.79999999999999,229.6,104.4));
#920=CARTESIAN_POINT('',(9.79999999999999,222.25,104.4));
#921=CARTESIAN_POINT('',(9.79999999999999,242.,104.4));
#922=CARTESIAN_POINT('',(16.4,242.,104.4));
#923=CARTESIAN_POINT('',(16.4,248.6,104.4));
#924=CARTESIAN_POINT('',(133.85,248.6,104.4));
#925=CARTESIAN_POINT('',(240.7,248.6,104.4));
#926=CARTESIAN_POINT('',(240.7,242.,104.4));
#927=CARTESIAN_POINT('',(247.3,242.,104.4));
#928=CARTESIAN_POINT('',(247.3,222.25,104.4));
#929=CARTESIAN_POINT('',(247.3,229.6,104.4));
#930=CARTESIAN_POINT('',(253.9,229.6,104.4));
#931=CARTESIAN_POINT('',(253.9,223.,104.4));
#932=CARTESIAN_POINT('',(133.85,223.,104.4));
#933=CARTESIAN_POINT('',(267.7,223.,104.4));
#934=CARTESIAN_POINT('',(267.7,222.25,104.4));
#935=CARTESIAN_POINT('',(267.7,426.2,104.4));
#936=CARTESIAN_POINT('',(133.85,426.2,104.4));
#937=CARTESIAN_POINT('',(0.,426.2,104.4));
#938=CARTESIAN_POINT('',(0.,222.25,104.4));
#939=CARTESIAN_POINT('',(133.85,222.25,104.4));
#940=CARTESIAN_POINT('',(111.2,0.,86.6));
#941=CARTESIAN_POINT('',(111.2,0.,86.6));
#942=CARTESIAN_POINT('',(0.,0.,0.));
#943=CARTESIAN_POINT('',(0.,0.,0.));
#944=CARTESIAN_POINT('',(133.85,0.,0.));
#945=CARTESIAN_POINT('',(267.7,0.,0.));
#946=CARTESIAN_POINT('',(267.7,0.,0.));
#947=CARTESIAN_POINT('',(230.9,0.,86.6));
#948=CARTESIAN_POINT('',(230.9,0.,86.6));
#949=CARTESIAN_POINT('',(171.05,0.,86.6));
#950=CARTESIAN_POINT('',(133.85,0.,0.));
#951=CARTESIAN_POINT('',(0.,187.6,0.));
#952=CARTESIAN_POINT('',(0.,187.6,65.9));
#953=CARTESIAN_POINT('',(0.,222.25,65.9));
#954=CARTESIAN_POINT('',(0.,223.,65.9));
#955=CARTESIAN_POINT('',(0.,223.,0.));
#956=CARTESIAN_POINT('',(0.,376.425,154.175));
#957=CARTESIAN_POINT('',(0.,444.5,86.1));
#958=CARTESIAN_POINT('',(0.,444.5,0.));
#959=CARTESIAN_POINT('',(0.,444.5,0.));
#960=CARTESIAN_POINT('',(0.,222.25,0.));
#961=CARTESIAN_POINT('',(0.,222.25,0.));
#962=CARTESIAN_POINT('',(133.85,444.5,86.1));
#963=CARTESIAN_POINT('',(267.7,444.5,86.1));
#964=CARTESIAN_POINT('',(267.7,444.5,0.));
#965=CARTESIAN_POINT('',(267.7,444.5,0.));
#966=CARTESIAN_POINT('',(133.85,444.5,0.));
#967=CARTESIAN_POINT('',(133.85,444.5,0.));
#968=CARTESIAN_POINT('',(136.2,111.6,0.));
#969=CARTESIAN_POINT('',(126.55,111.6,0.));
#970=CARTESIAN_POINT('',(222.,204.8,0.));
#971=CARTESIAN_POINT('',(213.25,204.8,0.));
#972=CARTESIAN_POINT('',(267.7,222.25,0.));
#973=CARTESIAN_POINT('',(133.85,222.25,0.));
#974=CARTESIAN_POINT('',(267.7,187.6,0.));
#975=CARTESIAN_POINT('',(267.7,187.6,65.9));
#976=CARTESIAN_POINT('',(267.7,376.425,154.175));
#977=CARTESIAN_POINT('',(267.7,223.,0.));
#978=CARTESIAN_POINT('',(267.7,223.,65.9));
#979=CARTESIAN_POINT('',(267.7,222.25,65.9));
#980=CARTESIAN_POINT('',(267.7,222.25,0.));
#981=CARTESIAN_POINT('',(133.85,444.5,86.1));
#982=CARTESIAN_POINT('',(133.85,187.6,65.9));
#983=CARTESIAN_POINT('',(133.85,187.6,65.9));
#984=CARTESIAN_POINT('',(128.55,223.,75.1));
#985=CARTESIAN_POINT('',(3.19999999999998,223.,75.1));
#986=CARTESIAN_POINT('',(253.9,223.,75.1));
#987=CARTESIAN_POINT('',(3.19999999999998,223.,65.9));
#988=CARTESIAN_POINT('',(133.85,223.,65.9));
#989=CARTESIAN_POINT('',(253.9,223.,65.9));
#990=CARTESIAN_POINT('',(133.85,223.,65.9));
#991=CARTESIAN_POINT('',(222.,204.8,65.9));
#992=CARTESIAN_POINT('',(213.25,204.8,65.9));
#993=CARTESIAN_POINT('',(152.6,193.6,65.9));
#994=CARTESIAN_POINT('',(146.7,193.6,65.9));
#995=CARTESIAN_POINT('',(133.85,205.3,65.9));
#996=CARTESIAN_POINT('',(9.79999999999999,235.8,75.1));
#997=CARTESIAN_POINT('',(9.79999999999999,229.6,75.1));
#998=CARTESIAN_POINT('',(9.79999999999999,242.,75.1));
#999=CARTESIAN_POINT('',(9.79999999999999,242.,104.4));
#1000=CARTESIAN_POINT('',(9.79999999999999,229.6,75.1));
#1001=CARTESIAN_POINT('',(9.79999999999999,235.8,75.1));
#1002=CARTESIAN_POINT('',(128.55,248.6,75.1));
#1003=CARTESIAN_POINT('',(16.4,248.6,75.1));
#1004=CARTESIAN_POINT('',(240.7,248.6,75.1));
#1005=CARTESIAN_POINT('',(240.7,248.6,104.4));
#1006=CARTESIAN_POINT('',(16.4,248.6,75.1));
#1007=CARTESIAN_POINT('',(128.55,248.6,75.1));
#1008=CARTESIAN_POINT('',(247.3,235.8,75.1));
#1009=CARTESIAN_POINT('',(247.3,242.,75.1));
#1010=CARTESIAN_POINT('',(247.3,229.6,75.1));
#1011=CARTESIAN_POINT('',(240.7,242.,75.1));
#1012=CARTESIAN_POINT('',(16.4,242.,75.1));
#1013=CARTESIAN_POINT('',(3.19999999999998,229.6,75.1));
#1014=CARTESIAN_POINT('',(253.9,229.6,75.1));
#1015=CARTESIAN_POINT('',(128.55,235.8,75.1));
#1016=CARTESIAN_POINT('',(247.3,242.,75.1));
#1017=CARTESIAN_POINT('',(247.3,229.6,75.1));
#1018=CARTESIAN_POINT('',(247.3,235.8,75.1));
#1019=CARTESIAN_POINT('',(240.7,242.,75.1));
#1020=CARTESIAN_POINT('',(16.4,242.,75.1));
#1021=CARTESIAN_POINT('',(3.19999999999998,229.6,65.9));
#1022=CARTESIAN_POINT('',(253.9,229.6,75.1));
#1023=CARTESIAN_POINT('',(111.2,54.2,86.6));
#1024=CARTESIAN_POINT('',(111.2,103.4,86.6));
#1025=CARTESIAN_POINT('',(111.2,103.4,104.4));
#1026=CARTESIAN_POINT('',(111.2,54.2,86.6));
#1027=CARTESIAN_POINT('',(171.05,108.4,86.6));
#1028=CARTESIAN_POINT('',(116.2,108.4,86.6));
#1029=CARTESIAN_POINT('',(127.096017355025,108.4,86.6));
#1030=CARTESIAN_POINT('',(127.096017355025,108.4,104.45));
#1031=CARTESIAN_POINT('',(116.2,108.4,86.6));
#1032=CARTESIAN_POINT('',(171.05,108.4,86.6));
#1033=CARTESIAN_POINT('',(134.8,24.2,86.6));
#1034=CARTESIAN_POINT('',(121.55,24.2,86.6));
#1035=CARTESIAN_POINT('',(213.2,54.9,86.6));
#1036=CARTESIAN_POINT('',(207.85,54.9,86.6));
#1037=CARTESIAN_POINT('',(136.2,111.6,86.6));
#1038=CARTESIAN_POINT('',(116.2,103.4,86.6));
#1039=CARTESIAN_POINT('',(230.9,54.2,86.6));
#1040=CARTESIAN_POINT('',(230.9,103.4,86.6));
#1041=CARTESIAN_POINT('',(225.9,103.4,86.6));
#1042=CARTESIAN_POINT('',(171.05,54.2,86.6));
#1043=CARTESIAN_POINT('',(230.9,103.4,86.6));
#1044=CARTESIAN_POINT('',(230.9,54.2,86.6));
#1045=CARTESIAN_POINT('',(116.2,103.4,86.6));
#1046=CARTESIAN_POINT('',(225.9,103.4,86.6));
#1047=CARTESIAN_POINT('',(213.2,54.9,42.1));
#1048=CARTESIAN_POINT('',(218.55,54.9,42.1));
#1049=CARTESIAN_POINT('',(213.2,54.9,104.45));
#1050=CARTESIAN_POINT('',(213.2,54.9,42.1));
#1051=CARTESIAN_POINT('',(152.6,193.6,58.1));
#1052=CARTESIAN_POINT('',(158.5,193.6,58.1));
#1053=CARTESIAN_POINT('',(152.6,193.6,104.45));
#1054=CARTESIAN_POINT('',(152.6,193.6,58.1));
#1055=CARTESIAN_POINT('',(222.,204.8,104.45));
#1056=CARTESIAN_POINT('',(134.8,24.2,72.5));
#1057=CARTESIAN_POINT('',(148.05,24.2,72.5));
#1058=CARTESIAN_POINT('',(134.8,24.2,104.45));
#1059=CARTESIAN_POINT('',(134.8,24.2,72.5));
#1060=CARTESIAN_POINT('',(136.2,111.6,104.45));
#1061=MECHANICAL_DESIGN_GEOMETRIC_PRESENTATION_REPRESENTATION('',(#24),
#1062);
#1062=(
GEOMETRIC_REPRESENTATION_CONTEXT(3)
GLOBAL_UNCERTAINTY_ASSIGNED_CONTEXT((#1063))
GLOBAL_UNIT_ASSIGNED_CONTEXT((#1069,#1065,#1064))
REPRESENTATION_CONTEXT('featured_part_03928','TOP_LEVEL_ASSEMBLY_PART')
);
#1063=UNCERTAINTY_MEASURE_WITH_UNIT(LENGTH_MEASURE(2.E-5),#1069,
'DISTANCE_ACCURACY_VALUE','Maximum Tolerance applied to model');
#1064=(
NAMED_UNIT(*)
SI_UNIT($,.STERADIAN.)
SOLID_ANGLE_UNIT()
);
#1065=(
CONVERSION_BASED_UNIT('DEGREE',#1067)
NAMED_UNIT(#1066)
PLANE_ANGLE_UNIT()
);
#1066=DIMENSIONAL_EXPONENTS(0.,0.,0.,0.,0.,0.,0.);
#1067=PLANE_ANGLE_MEASURE_WITH_UNIT(PLANE_ANGLE_MEASURE(0.0174532925),#1068);
#1068=(
NAMED_UNIT(*)
PLANE_ANGLE_UNIT()
SI_UNIT($,.RADIAN.)
);
#1069=(
LENGTH_UNIT()
NAMED_UNIT(*)
SI_UNIT(.MILLI.,.METRE.)
);
ENDSEC;
END-ISO-10303-21;
