ISO-10303-21;
HEADER;
/* Generated by software containing ST-Developer
 * from STEP Tools, Inc. (www.steptools.com) 
 */
/* OPTION: using custom schema-name function */

FILE_DESCRIPTION(
/* description */ (''),
/* implementation_level */ '2;1');

FILE_NAME(
/* name */ 'featured_part_06859.stp',
/* time_stamp */ '2026-07-09T16:56:08-04:00',
/* author */ (''),
/* organization */ (''),
/* preprocessor_version */ 'ST-DEVELOPER v20.1',
/* originating_system */ 'SIEMENS PLM Software NX2512.6002',
/* authorisation */ '');

FILE_SCHEMA (('AUTOMOTIVE_DESIGN { 1 0 10303 214 3 1 1 1 }'));
ENDSEC;

DATA;
#10=SHAPE_REPRESENTATION_RELATIONSHIP('None',
'relationship between featured_part_06859-None and featured_part_06859
-None',#22,#11);
#11=ADVANCED_BREP_SHAPE_REPRESENTATION('featured_part_06859-None',(#32),
#1374);
#12=SHAPE_DEFINITION_REPRESENTATION(#13,#22);
#13=PRODUCT_DEFINITION_SHAPE('','',#14);
#14=PRODUCT_DEFINITION(' ','',#16,#15);
#15=PRODUCT_DEFINITION_CONTEXT('part definition',#21,'design');
#16=PRODUCT_DEFINITION_FORMATION_WITH_SPECIFIED_SOURCE(' ',' ',#18,
 .NOT_KNOWN.);
#17=PRODUCT_RELATED_PRODUCT_CATEGORY('part','',(#18));
#18=PRODUCT('featured_part_06859','featured_part_06859',' ',(#19));
#19=PRODUCT_CONTEXT(' ',#21,'mechanical');
#20=APPLICATION_PROTOCOL_DEFINITION('international standard',
'automotive_design',2010,#21);
#21=APPLICATION_CONTEXT(
'core data for automotive mechanical design processes');
#22=SHAPE_REPRESENTATION('featured_part_06859-None',(#831),#1374);
#23=PRESENTATION_LAYER_ASSIGNMENT('1','Layer 1',(#32));
#24=STYLED_ITEM('',(#25),#32);
#25=PRESENTATION_STYLE_ASSIGNMENT((#26));
#26=SURFACE_STYLE_USAGE(.BOTH.,#27);
#27=SURFACE_SIDE_STYLE('',(#28));
#28=SURFACE_STYLE_FILL_AREA(#29);
#29=FILL_AREA_STYLE('',(#30));
#30=FILL_AREA_STYLE_COLOUR('',#31);
#31=COLOUR_RGB('medium steel',0.611764705882353,0.658823529411765,0.670588235294118);
#32=MANIFOLD_SOLID_BREP('',#33);
#33=CLOSED_SHELL('',(#99,#100,#101,#102,#103,#104,#105,#106,#107,#108,#109,
#110,#111,#112,#113,#114,#115,#116,#117,#118,#119,#120,#121,#122,#123,#124,
#125,#126,#127,#128,#129,#130,#131,#132,#133,#134,#135,#136,#137,#138,#139,
#140,#141,#142,#143,#144));
#34=CYLINDRICAL_SURFACE('',#860,5.3);
#35=CYLINDRICAL_SURFACE('',#861,5.3);
#36=CYLINDRICAL_SURFACE('',#871,11.4);
#37=CYLINDRICAL_SURFACE('',#872,11.4);
#38=CYLINDRICAL_SURFACE('',#873,11.4);
#39=CYLINDRICAL_SURFACE('',#874,11.4);
#40=CYLINDRICAL_SURFACE('',#882,11.1);
#41=CYLINDRICAL_SURFACE('',#883,11.1);
#42=CYLINDRICAL_SURFACE('',#891,3.5);
#43=CYLINDRICAL_SURFACE('',#892,3.5);
#44=CYLINDRICAL_SURFACE('',#895,5.75);
#45=CYLINDRICAL_SURFACE('',#897,5.75);
#46=CYLINDRICAL_SURFACE('',#901,5.75);
#47=CYLINDRICAL_SURFACE('',#904,5.75);
#48=CYLINDRICAL_SURFACE('',#906,5.75);
#49=FACE_BOUND('',#214,.T.);
#50=FACE_BOUND('',#215,.T.);
#51=FACE_BOUND('',#216,.T.);
#52=FACE_BOUND('',#217,.T.);
#53=FACE_BOUND('',#227,.T.);
#54=FACE_BOUND('',#228,.T.);
#55=FACE_BOUND('',#243,.T.);
#56=FACE_BOUND('',#244,.T.);
#57=FACE_BOUND('',#250,.T.);
#58=FACE_BOUND('',#251,.T.);
#59=FACE_BOUND('',#256,.T.);
#60=FACE_BOUND('',#257,.T.);
#61=FACE_BOUND('',#258,.T.);
#62=FACE_BOUND('',#259,.T.);
#63=FACE_BOUND('',#262,.T.);
#64=FACE_BOUND('',#263,.T.);
#65=FACE_BOUND('',#265,.T.);
#66=FACE_BOUND('',#266,.T.);
#67=FACE_BOUND('',#267,.T.);
#68=FACE_BOUND('',#268,.T.);
#69=CIRCLE('',#833,5.75);
#70=CIRCLE('',#834,5.75);
#71=CIRCLE('',#835,5.75);
#72=CIRCLE('',#836,5.3);
#73=CIRCLE('',#837,5.3);
#74=CIRCLE('',#838,11.1);
#75=CIRCLE('',#839,11.1);
#76=CIRCLE('',#840,3.5);
#77=CIRCLE('',#841,3.5);
#78=CIRCLE('',#852,11.4);
#79=CIRCLE('',#853,11.4);
#80=CIRCLE('',#854,11.4);
#81=CIRCLE('',#855,11.4);
#82=CIRCLE('',#856,5.3);
#83=CIRCLE('',#857,5.3);
#84=CIRCLE('',#866,11.4);
#85=CIRCLE('',#867,11.4);
#86=CIRCLE('',#868,11.4);
#87=CIRCLE('',#869,11.4);
#88=CIRCLE('',#877,5.75);
#89=CIRCLE('',#878,11.1);
#90=CIRCLE('',#879,11.1);
#91=CIRCLE('',#886,5.75);
#92=CIRCLE('',#887,3.5);
#93=CIRCLE('',#888,3.5);
#94=CIRCLE('',#893,5.75);
#95=CIRCLE('',#896,5.75);
#96=CIRCLE('',#899,5.75);
#97=CIRCLE('',#902,5.75);
#98=CIRCLE('',#905,5.75);
#99=ADVANCED_FACE('',(#176),#145,.F.);
#100=ADVANCED_FACE('',(#49,#50,#51,#52),#146,.T.);
#101=ADVANCED_FACE('',(#177),#147,.T.);
#102=ADVANCED_FACE('',(#178),#148,.T.);
#103=ADVANCED_FACE('',(#179),#149,.T.);
#104=ADVANCED_FACE('',(#180),#150,.T.);
#105=ADVANCED_FACE('',(#181),#151,.T.);
#106=ADVANCED_FACE('',(#182),#152,.F.);
#107=ADVANCED_FACE('',(#183),#153,.F.);
#108=ADVANCED_FACE('',(#184),#154,.F.);
#109=ADVANCED_FACE('',(#185),#155,.F.);
#110=ADVANCED_FACE('',(#53,#54),#156,.F.);
#111=ADVANCED_FACE('',(#186),#157,.F.);
#112=ADVANCED_FACE('',(#187),#34,.F.);
#113=ADVANCED_FACE('',(#188),#35,.F.);
#114=ADVANCED_FACE('',(#189),#158,.F.);
#115=ADVANCED_FACE('',(#190),#159,.F.);
#116=ADVANCED_FACE('',(#191),#160,.F.);
#117=ADVANCED_FACE('',(#192),#161,.F.);
#118=ADVANCED_FACE('',(#193),#162,.F.);
#119=ADVANCED_FACE('',(#194),#36,.F.);
#120=ADVANCED_FACE('',(#195),#37,.F.);
#121=ADVANCED_FACE('',(#196),#38,.F.);
#122=ADVANCED_FACE('',(#197),#39,.F.);
#123=ADVANCED_FACE('',(#198),#163,.F.);
#124=ADVANCED_FACE('',(#199),#164,.F.);
#125=ADVANCED_FACE('',(#55,#56),#165,.F.);
#126=ADVANCED_FACE('',(#200),#166,.F.);
#127=ADVANCED_FACE('',(#201),#40,.F.);
#128=ADVANCED_FACE('',(#202),#41,.F.);
#129=ADVANCED_FACE('',(#203),#167,.F.);
#130=ADVANCED_FACE('',(#204),#168,.F.);
#131=ADVANCED_FACE('',(#57,#58),#169,.F.);
#132=ADVANCED_FACE('',(#205),#170,.F.);
#133=ADVANCED_FACE('',(#206),#42,.F.);
#134=ADVANCED_FACE('',(#207),#43,.F.);
#135=ADVANCED_FACE('',(#208),#171,.F.);
#136=ADVANCED_FACE('',(#59,#60),#44,.F.);
#137=ADVANCED_FACE('',(#61,#62),#45,.F.);
#138=ADVANCED_FACE('',(#209),#172,.F.);
#139=ADVANCED_FACE('',(#210),#173,.F.);
#140=ADVANCED_FACE('',(#63,#64),#46,.F.);
#141=ADVANCED_FACE('',(#211),#174,.F.);
#142=ADVANCED_FACE('',(#65,#66),#47,.F.);
#143=ADVANCED_FACE('',(#67,#68),#48,.F.);
#144=ADVANCED_FACE('',(#212),#175,.F.);
#145=PLANE('',#832);
#146=PLANE('',#842);
#147=PLANE('',#843);
#148=PLANE('',#844);
#149=PLANE('',#845);
#150=PLANE('',#846);
#151=PLANE('',#847);
#152=PLANE('',#848);
#153=PLANE('',#849);
#154=PLANE('',#850);
#155=PLANE('',#851);
#156=PLANE('',#858);
#157=PLANE('',#859);
#158=PLANE('',#862);
#159=PLANE('',#863);
#160=PLANE('',#864);
#161=PLANE('',#865);
#162=PLANE('',#870);
#163=PLANE('',#875);
#164=PLANE('',#876);
#165=PLANE('',#880);
#166=PLANE('',#881);
#167=PLANE('',#884);
#168=PLANE('',#885);
#169=PLANE('',#889);
#170=PLANE('',#890);
#171=PLANE('',#894);
#172=PLANE('',#898);
#173=PLANE('',#900);
#174=PLANE('',#903);
#175=PLANE('',#907);
#176=FACE_OUTER_BOUND('',#213,.T.);
#177=FACE_OUTER_BOUND('',#218,.T.);
#178=FACE_OUTER_BOUND('',#219,.T.);
#179=FACE_OUTER_BOUND('',#220,.T.);
#180=FACE_OUTER_BOUND('',#221,.T.);
#181=FACE_OUTER_BOUND('',#222,.T.);
#182=FACE_OUTER_BOUND('',#223,.T.);
#183=FACE_OUTER_BOUND('',#224,.T.);
#184=FACE_OUTER_BOUND('',#225,.T.);
#185=FACE_OUTER_BOUND('',#226,.T.);
#186=FACE_OUTER_BOUND('',#229,.T.);
#187=FACE_OUTER_BOUND('',#230,.T.);
#188=FACE_OUTER_BOUND('',#231,.T.);
#189=FACE_OUTER_BOUND('',#232,.T.);
#190=FACE_OUTER_BOUND('',#233,.T.);
#191=FACE_OUTER_BOUND('',#234,.T.);
#192=FACE_OUTER_BOUND('',#235,.T.);
#193=FACE_OUTER_BOUND('',#236,.T.);
#194=FACE_OUTER_BOUND('',#237,.T.);
#195=FACE_OUTER_BOUND('',#238,.T.);
#196=FACE_OUTER_BOUND('',#239,.T.);
#197=FACE_OUTER_BOUND('',#240,.T.);
#198=FACE_OUTER_BOUND('',#241,.T.);
#199=FACE_OUTER_BOUND('',#242,.T.);
#200=FACE_OUTER_BOUND('',#245,.T.);
#201=FACE_OUTER_BOUND('',#246,.T.);
#202=FACE_OUTER_BOUND('',#247,.T.);
#203=FACE_OUTER_BOUND('',#248,.T.);
#204=FACE_OUTER_BOUND('',#249,.T.);
#205=FACE_OUTER_BOUND('',#252,.T.);
#206=FACE_OUTER_BOUND('',#253,.T.);
#207=FACE_OUTER_BOUND('',#254,.T.);
#208=FACE_OUTER_BOUND('',#255,.T.);
#209=FACE_OUTER_BOUND('',#260,.T.);
#210=FACE_OUTER_BOUND('',#261,.T.);
#211=FACE_OUTER_BOUND('',#264,.T.);
#212=FACE_OUTER_BOUND('',#269,.T.);
#213=EDGE_LOOP('',(#270,#271,#272,#273));
#214=EDGE_LOOP('',(#274));
#215=EDGE_LOOP('',(#275));
#216=EDGE_LOOP('',(#276));
#217=EDGE_LOOP('',(#277,#278,#279,#280,#281,#282,#283,#284,#285,#286,#287,
#288,#289,#290,#291,#292,#293,#294,#295,#296,#297,#298));
#218=EDGE_LOOP('',(#299,#300,#301,#302,#303,#304,#305,#306,#307,#308));
#219=EDGE_LOOP('',(#309,#310,#311,#312,#313,#314,#315,#316));
#220=EDGE_LOOP('',(#317,#318,#319,#320,#321,#322,#323,#324,#325,#326));
#221=EDGE_LOOP('',(#327,#328,#329,#330));
#222=EDGE_LOOP('',(#331,#332,#333,#334));
#223=EDGE_LOOP('',(#335,#336,#337,#338));
#224=EDGE_LOOP('',(#339,#340,#341,#342));
#225=EDGE_LOOP('',(#343,#344,#345,#346,#347));
#226=EDGE_LOOP('',(#348,#349,#350,#351,#352));
#227=EDGE_LOOP('',(#353,#354,#355,#356,#357,#358,#359,#360));
#228=EDGE_LOOP('',(#361,#362,#363,#364,#365,#366));
#229=EDGE_LOOP('',(#367,#368,#369,#370));
#230=EDGE_LOOP('',(#371,#372,#373,#374));
#231=EDGE_LOOP('',(#375,#376,#377,#378));
#232=EDGE_LOOP('',(#379,#380,#381,#382));
#233=EDGE_LOOP('',(#383,#384,#385,#386));
#234=EDGE_LOOP('',(#387,#388,#389,#390));
#235=EDGE_LOOP('',(#391,#392,#393,#394));
#236=EDGE_LOOP('',(#395,#396,#397,#398,#399,#400,#401,#402));
#237=EDGE_LOOP('',(#403,#404,#405,#406));
#238=EDGE_LOOP('',(#407,#408,#409,#410));
#239=EDGE_LOOP('',(#411,#412,#413,#414));
#240=EDGE_LOOP('',(#415,#416,#417,#418));
#241=EDGE_LOOP('',(#419,#420,#421,#422));
#242=EDGE_LOOP('',(#423,#424,#425,#426));
#243=EDGE_LOOP('',(#427));
#244=EDGE_LOOP('',(#428,#429,#430,#431,#432,#433));
#245=EDGE_LOOP('',(#434,#435,#436,#437));
#246=EDGE_LOOP('',(#438,#439,#440,#441));
#247=EDGE_LOOP('',(#442,#443,#444,#445));
#248=EDGE_LOOP('',(#446,#447,#448,#449));
#249=EDGE_LOOP('',(#450,#451,#452,#453));
#250=EDGE_LOOP('',(#454));
#251=EDGE_LOOP('',(#455,#456,#457,#458,#459,#460));
#252=EDGE_LOOP('',(#461,#462,#463,#464));
#253=EDGE_LOOP('',(#465,#466,#467,#468));
#254=EDGE_LOOP('',(#469,#470,#471,#472));
#255=EDGE_LOOP('',(#473));
#256=EDGE_LOOP('',(#474));
#257=EDGE_LOOP('',(#475));
#258=EDGE_LOOP('',(#476));
#259=EDGE_LOOP('',(#477));
#260=EDGE_LOOP('',(#478));
#261=EDGE_LOOP('',(#479));
#262=EDGE_LOOP('',(#480));
#263=EDGE_LOOP('',(#481));
#264=EDGE_LOOP('',(#482));
#265=EDGE_LOOP('',(#483));
#266=EDGE_LOOP('',(#484));
#267=EDGE_LOOP('',(#485));
#268=EDGE_LOOP('',(#486));
#269=EDGE_LOOP('',(#487));
#270=ORIENTED_EDGE('',*,*,#564,.F.);
#271=ORIENTED_EDGE('',*,*,#565,.F.);
#272=ORIENTED_EDGE('',*,*,#566,.F.);
#273=ORIENTED_EDGE('',*,*,#567,.F.);
#274=ORIENTED_EDGE('',*,*,#568,.F.);
#275=ORIENTED_EDGE('',*,*,#569,.F.);
#276=ORIENTED_EDGE('',*,*,#570,.F.);
#277=ORIENTED_EDGE('',*,*,#571,.F.);
#278=ORIENTED_EDGE('',*,*,#572,.F.);
#279=ORIENTED_EDGE('',*,*,#573,.T.);
#280=ORIENTED_EDGE('',*,*,#574,.F.);
#281=ORIENTED_EDGE('',*,*,#575,.T.);
#282=ORIENTED_EDGE('',*,*,#576,.F.);
#283=ORIENTED_EDGE('',*,*,#577,.T.);
#284=ORIENTED_EDGE('',*,*,#578,.F.);
#285=ORIENTED_EDGE('',*,*,#567,.T.);
#286=ORIENTED_EDGE('',*,*,#579,.F.);
#287=ORIENTED_EDGE('',*,*,#580,.F.);
#288=ORIENTED_EDGE('',*,*,#581,.T.);
#289=ORIENTED_EDGE('',*,*,#582,.F.);
#290=ORIENTED_EDGE('',*,*,#583,.T.);
#291=ORIENTED_EDGE('',*,*,#584,.F.);
#292=ORIENTED_EDGE('',*,*,#585,.F.);
#293=ORIENTED_EDGE('',*,*,#586,.T.);
#294=ORIENTED_EDGE('',*,*,#587,.F.);
#295=ORIENTED_EDGE('',*,*,#588,.F.);
#296=ORIENTED_EDGE('',*,*,#589,.T.);
#297=ORIENTED_EDGE('',*,*,#590,.F.);
#298=ORIENTED_EDGE('',*,*,#591,.T.);
#299=ORIENTED_EDGE('',*,*,#592,.T.);
#300=ORIENTED_EDGE('',*,*,#579,.T.);
#301=ORIENTED_EDGE('',*,*,#566,.T.);
#302=ORIENTED_EDGE('',*,*,#593,.F.);
#303=ORIENTED_EDGE('',*,*,#594,.T.);
#304=ORIENTED_EDGE('',*,*,#595,.T.);
#305=ORIENTED_EDGE('',*,*,#596,.T.);
#306=ORIENTED_EDGE('',*,*,#585,.T.);
#307=ORIENTED_EDGE('',*,*,#597,.F.);
#308=ORIENTED_EDGE('',*,*,#598,.F.);
#309=ORIENTED_EDGE('',*,*,#599,.F.);
#310=ORIENTED_EDGE('',*,*,#600,.F.);
#311=ORIENTED_EDGE('',*,*,#601,.T.);
#312=ORIENTED_EDGE('',*,*,#602,.T.);
#313=ORIENTED_EDGE('',*,*,#603,.F.);
#314=ORIENTED_EDGE('',*,*,#604,.T.);
#315=ORIENTED_EDGE('',*,*,#593,.T.);
#316=ORIENTED_EDGE('',*,*,#565,.T.);
#317=ORIENTED_EDGE('',*,*,#605,.F.);
#318=ORIENTED_EDGE('',*,*,#606,.F.);
#319=ORIENTED_EDGE('',*,*,#607,.T.);
#320=ORIENTED_EDGE('',*,*,#587,.T.);
#321=ORIENTED_EDGE('',*,*,#608,.T.);
#322=ORIENTED_EDGE('',*,*,#609,.F.);
#323=ORIENTED_EDGE('',*,*,#610,.T.);
#324=ORIENTED_EDGE('',*,*,#603,.T.);
#325=ORIENTED_EDGE('',*,*,#611,.T.);
#326=ORIENTED_EDGE('',*,*,#572,.T.);
#327=ORIENTED_EDGE('',*,*,#612,.F.);
#328=ORIENTED_EDGE('',*,*,#594,.F.);
#329=ORIENTED_EDGE('',*,*,#604,.F.);
#330=ORIENTED_EDGE('',*,*,#610,.F.);
#331=ORIENTED_EDGE('',*,*,#609,.T.);
#332=ORIENTED_EDGE('',*,*,#613,.T.);
#333=ORIENTED_EDGE('',*,*,#595,.F.);
#334=ORIENTED_EDGE('',*,*,#612,.T.);
#335=ORIENTED_EDGE('',*,*,#614,.F.);
#336=ORIENTED_EDGE('',*,*,#573,.F.);
#337=ORIENTED_EDGE('',*,*,#611,.F.);
#338=ORIENTED_EDGE('',*,*,#602,.F.);
#339=ORIENTED_EDGE('',*,*,#608,.F.);
#340=ORIENTED_EDGE('',*,*,#586,.F.);
#341=ORIENTED_EDGE('',*,*,#596,.F.);
#342=ORIENTED_EDGE('',*,*,#613,.F.);
#343=ORIENTED_EDGE('',*,*,#578,.T.);
#344=ORIENTED_EDGE('',*,*,#615,.T.);
#345=ORIENTED_EDGE('',*,*,#616,.T.);
#346=ORIENTED_EDGE('',*,*,#599,.T.);
#347=ORIENTED_EDGE('',*,*,#564,.T.);
#348=ORIENTED_EDGE('',*,*,#617,.T.);
#349=ORIENTED_EDGE('',*,*,#618,.T.);
#350=ORIENTED_EDGE('',*,*,#574,.T.);
#351=ORIENTED_EDGE('',*,*,#614,.T.);
#352=ORIENTED_EDGE('',*,*,#601,.F.);
#353=ORIENTED_EDGE('',*,*,#619,.T.);
#354=ORIENTED_EDGE('',*,*,#620,.T.);
#355=ORIENTED_EDGE('',*,*,#621,.T.);
#356=ORIENTED_EDGE('',*,*,#622,.T.);
#357=ORIENTED_EDGE('',*,*,#623,.T.);
#358=ORIENTED_EDGE('',*,*,#624,.T.);
#359=ORIENTED_EDGE('',*,*,#625,.T.);
#360=ORIENTED_EDGE('',*,*,#626,.T.);
#361=ORIENTED_EDGE('',*,*,#616,.F.);
#362=ORIENTED_EDGE('',*,*,#627,.T.);
#363=ORIENTED_EDGE('',*,*,#628,.F.);
#364=ORIENTED_EDGE('',*,*,#629,.T.);
#365=ORIENTED_EDGE('',*,*,#617,.F.);
#366=ORIENTED_EDGE('',*,*,#600,.T.);
#367=ORIENTED_EDGE('',*,*,#628,.T.);
#368=ORIENTED_EDGE('',*,*,#630,.T.);
#369=ORIENTED_EDGE('',*,*,#576,.T.);
#370=ORIENTED_EDGE('',*,*,#631,.T.);
#371=ORIENTED_EDGE('',*,*,#577,.F.);
#372=ORIENTED_EDGE('',*,*,#630,.F.);
#373=ORIENTED_EDGE('',*,*,#627,.F.);
#374=ORIENTED_EDGE('',*,*,#615,.F.);
#375=ORIENTED_EDGE('',*,*,#575,.F.);
#376=ORIENTED_EDGE('',*,*,#618,.F.);
#377=ORIENTED_EDGE('',*,*,#629,.F.);
#378=ORIENTED_EDGE('',*,*,#631,.F.);
#379=ORIENTED_EDGE('',*,*,#632,.T.);
#380=ORIENTED_EDGE('',*,*,#633,.T.);
#381=ORIENTED_EDGE('',*,*,#623,.F.);
#382=ORIENTED_EDGE('',*,*,#634,.T.);
#383=ORIENTED_EDGE('',*,*,#625,.F.);
#384=ORIENTED_EDGE('',*,*,#635,.T.);
#385=ORIENTED_EDGE('',*,*,#636,.T.);
#386=ORIENTED_EDGE('',*,*,#637,.T.);
#387=ORIENTED_EDGE('',*,*,#638,.T.);
#388=ORIENTED_EDGE('',*,*,#639,.T.);
#389=ORIENTED_EDGE('',*,*,#619,.F.);
#390=ORIENTED_EDGE('',*,*,#640,.T.);
#391=ORIENTED_EDGE('',*,*,#621,.F.);
#392=ORIENTED_EDGE('',*,*,#641,.T.);
#393=ORIENTED_EDGE('',*,*,#642,.T.);
#394=ORIENTED_EDGE('',*,*,#643,.T.);
#395=ORIENTED_EDGE('',*,*,#636,.F.);
#396=ORIENTED_EDGE('',*,*,#644,.T.);
#397=ORIENTED_EDGE('',*,*,#632,.F.);
#398=ORIENTED_EDGE('',*,*,#645,.T.);
#399=ORIENTED_EDGE('',*,*,#642,.F.);
#400=ORIENTED_EDGE('',*,*,#646,.T.);
#401=ORIENTED_EDGE('',*,*,#638,.F.);
#402=ORIENTED_EDGE('',*,*,#647,.T.);
#403=ORIENTED_EDGE('',*,*,#624,.F.);
#404=ORIENTED_EDGE('',*,*,#633,.F.);
#405=ORIENTED_EDGE('',*,*,#644,.F.);
#406=ORIENTED_EDGE('',*,*,#635,.F.);
#407=ORIENTED_EDGE('',*,*,#620,.F.);
#408=ORIENTED_EDGE('',*,*,#639,.F.);
#409=ORIENTED_EDGE('',*,*,#646,.F.);
#410=ORIENTED_EDGE('',*,*,#641,.F.);
#411=ORIENTED_EDGE('',*,*,#622,.F.);
#412=ORIENTED_EDGE('',*,*,#643,.F.);
#413=ORIENTED_EDGE('',*,*,#645,.F.);
#414=ORIENTED_EDGE('',*,*,#634,.F.);
#415=ORIENTED_EDGE('',*,*,#626,.F.);
#416=ORIENTED_EDGE('',*,*,#637,.F.);
#417=ORIENTED_EDGE('',*,*,#647,.F.);
#418=ORIENTED_EDGE('',*,*,#640,.F.);
#419=ORIENTED_EDGE('',*,*,#648,.T.);
#420=ORIENTED_EDGE('',*,*,#649,.T.);
#421=ORIENTED_EDGE('',*,*,#580,.T.);
#422=ORIENTED_EDGE('',*,*,#592,.F.);
#423=ORIENTED_EDGE('',*,*,#650,.T.);
#424=ORIENTED_EDGE('',*,*,#651,.T.);
#425=ORIENTED_EDGE('',*,*,#582,.T.);
#426=ORIENTED_EDGE('',*,*,#652,.T.);
#427=ORIENTED_EDGE('',*,*,#653,.T.);
#428=ORIENTED_EDGE('',*,*,#654,.F.);
#429=ORIENTED_EDGE('',*,*,#655,.T.);
#430=ORIENTED_EDGE('',*,*,#650,.F.);
#431=ORIENTED_EDGE('',*,*,#656,.T.);
#432=ORIENTED_EDGE('',*,*,#648,.F.);
#433=ORIENTED_EDGE('',*,*,#598,.T.);
#434=ORIENTED_EDGE('',*,*,#584,.T.);
#435=ORIENTED_EDGE('',*,*,#657,.T.);
#436=ORIENTED_EDGE('',*,*,#654,.T.);
#437=ORIENTED_EDGE('',*,*,#597,.T.);
#438=ORIENTED_EDGE('',*,*,#583,.F.);
#439=ORIENTED_EDGE('',*,*,#651,.F.);
#440=ORIENTED_EDGE('',*,*,#655,.F.);
#441=ORIENTED_EDGE('',*,*,#657,.F.);
#442=ORIENTED_EDGE('',*,*,#581,.F.);
#443=ORIENTED_EDGE('',*,*,#649,.F.);
#444=ORIENTED_EDGE('',*,*,#656,.F.);
#445=ORIENTED_EDGE('',*,*,#652,.F.);
#446=ORIENTED_EDGE('',*,*,#658,.T.);
#447=ORIENTED_EDGE('',*,*,#659,.T.);
#448=ORIENTED_EDGE('',*,*,#590,.T.);
#449=ORIENTED_EDGE('',*,*,#660,.T.);
#450=ORIENTED_EDGE('',*,*,#571,.T.);
#451=ORIENTED_EDGE('',*,*,#661,.T.);
#452=ORIENTED_EDGE('',*,*,#662,.T.);
#453=ORIENTED_EDGE('',*,*,#605,.T.);
#454=ORIENTED_EDGE('',*,*,#663,.T.);
#455=ORIENTED_EDGE('',*,*,#662,.F.);
#456=ORIENTED_EDGE('',*,*,#664,.T.);
#457=ORIENTED_EDGE('',*,*,#658,.F.);
#458=ORIENTED_EDGE('',*,*,#665,.T.);
#459=ORIENTED_EDGE('',*,*,#666,.F.);
#460=ORIENTED_EDGE('',*,*,#606,.T.);
#461=ORIENTED_EDGE('',*,*,#666,.T.);
#462=ORIENTED_EDGE('',*,*,#667,.T.);
#463=ORIENTED_EDGE('',*,*,#588,.T.);
#464=ORIENTED_EDGE('',*,*,#607,.F.);
#465=ORIENTED_EDGE('',*,*,#591,.F.);
#466=ORIENTED_EDGE('',*,*,#659,.F.);
#467=ORIENTED_EDGE('',*,*,#664,.F.);
#468=ORIENTED_EDGE('',*,*,#661,.F.);
#469=ORIENTED_EDGE('',*,*,#589,.F.);
#470=ORIENTED_EDGE('',*,*,#667,.F.);
#471=ORIENTED_EDGE('',*,*,#665,.F.);
#472=ORIENTED_EDGE('',*,*,#660,.F.);
#473=ORIENTED_EDGE('',*,*,#668,.F.);
#474=ORIENTED_EDGE('',*,*,#570,.T.);
#475=ORIENTED_EDGE('',*,*,#668,.T.);
#476=ORIENTED_EDGE('',*,*,#669,.T.);
#477=ORIENTED_EDGE('',*,*,#663,.F.);
#478=ORIENTED_EDGE('',*,*,#669,.F.);
#479=ORIENTED_EDGE('',*,*,#670,.F.);
#480=ORIENTED_EDGE('',*,*,#569,.T.);
#481=ORIENTED_EDGE('',*,*,#670,.T.);
#482=ORIENTED_EDGE('',*,*,#671,.F.);
#483=ORIENTED_EDGE('',*,*,#568,.T.);
#484=ORIENTED_EDGE('',*,*,#671,.T.);
#485=ORIENTED_EDGE('',*,*,#672,.T.);
#486=ORIENTED_EDGE('',*,*,#653,.F.);
#487=ORIENTED_EDGE('',*,*,#672,.F.);
#488=VERTEX_POINT('',#1143);
#489=VERTEX_POINT('',#1144);
#490=VERTEX_POINT('',#1146);
#491=VERTEX_POINT('',#1148);
#492=VERTEX_POINT('',#1152);
#493=VERTEX_POINT('',#1154);
#494=VERTEX_POINT('',#1156);
#495=VERTEX_POINT('',#1158);
#496=VERTEX_POINT('',#1159);
#497=VERTEX_POINT('',#1161);
#498=VERTEX_POINT('',#1163);
#499=VERTEX_POINT('',#1165);
#500=VERTEX_POINT('',#1167);
#501=VERTEX_POINT('',#1169);
#502=VERTEX_POINT('',#1171);
#503=VERTEX_POINT('',#1174);
#504=VERTEX_POINT('',#1176);
#505=VERTEX_POINT('',#1178);
#506=VERTEX_POINT('',#1180);
#507=VERTEX_POINT('',#1182);
#508=VERTEX_POINT('',#1184);
#509=VERTEX_POINT('',#1186);
#510=VERTEX_POINT('',#1188);
#511=VERTEX_POINT('',#1190);
#512=VERTEX_POINT('',#1192);
#513=VERTEX_POINT('',#1194);
#514=VERTEX_POINT('',#1196);
#515=VERTEX_POINT('',#1200);
#516=VERTEX_POINT('',#1202);
#517=VERTEX_POINT('',#1204);
#518=VERTEX_POINT('',#1206);
#519=VERTEX_POINT('',#1209);
#520=VERTEX_POINT('',#1213);
#521=VERTEX_POINT('',#1215);
#522=VERTEX_POINT('',#1217);
#523=VERTEX_POINT('',#1219);
#524=VERTEX_POINT('',#1221);
#525=VERTEX_POINT('',#1225);
#526=VERTEX_POINT('',#1227);
#527=VERTEX_POINT('',#1230);
#528=VERTEX_POINT('',#1232);
#529=VERTEX_POINT('',#1244);
#530=VERTEX_POINT('',#1248);
#531=VERTEX_POINT('',#1252);
#532=VERTEX_POINT('',#1253);
#533=VERTEX_POINT('',#1255);
#534=VERTEX_POINT('',#1257);
#535=VERTEX_POINT('',#1259);
#536=VERTEX_POINT('',#1261);
#537=VERTEX_POINT('',#1263);
#538=VERTEX_POINT('',#1265);
#539=VERTEX_POINT('',#1268);
#540=VERTEX_POINT('',#1270);
#541=VERTEX_POINT('',#1279);
#542=VERTEX_POINT('',#1280);
#543=VERTEX_POINT('',#1285);
#544=VERTEX_POINT('',#1287);
#545=VERTEX_POINT('',#1291);
#546=VERTEX_POINT('',#1292);
#547=VERTEX_POINT('',#1297);
#548=VERTEX_POINT('',#1299);
#549=VERTEX_POINT('',#1312);
#550=VERTEX_POINT('',#1316);
#551=VERTEX_POINT('',#1317);
#552=VERTEX_POINT('',#1322);
#553=VERTEX_POINT('',#1324);
#554=VERTEX_POINT('',#1333);
#555=VERTEX_POINT('',#1334);
#556=VERTEX_POINT('',#1339);
#557=VERTEX_POINT('',#1343);
#558=VERTEX_POINT('',#1346);
#559=VERTEX_POINT('',#1354);
#560=VERTEX_POINT('',#1358);
#561=VERTEX_POINT('',#1362);
#562=VERTEX_POINT('',#1366);
#563=VERTEX_POINT('',#1370);
#564=EDGE_CURVE('',#488,#489,#673,.T.);
#565=EDGE_CURVE('',#490,#488,#674,.T.);
#566=EDGE_CURVE('',#491,#490,#675,.T.);
#567=EDGE_CURVE('',#489,#491,#676,.T.);
#568=EDGE_CURVE('',#492,#492,#69,.T.);
#569=EDGE_CURVE('',#493,#493,#70,.T.);
#570=EDGE_CURVE('',#494,#494,#71,.T.);
#571=EDGE_CURVE('',#495,#496,#677,.T.);
#572=EDGE_CURVE('',#497,#495,#678,.T.);
#573=EDGE_CURVE('',#497,#498,#679,.T.);
#574=EDGE_CURVE('',#499,#498,#680,.T.);
#575=EDGE_CURVE('',#499,#500,#72,.T.);
#576=EDGE_CURVE('',#501,#500,#681,.T.);
#577=EDGE_CURVE('',#501,#502,#73,.T.);
#578=EDGE_CURVE('',#489,#502,#682,.T.);
#579=EDGE_CURVE('',#503,#491,#683,.T.);
#580=EDGE_CURVE('',#504,#503,#684,.T.);
#581=EDGE_CURVE('',#504,#505,#74,.T.);
#582=EDGE_CURVE('',#506,#505,#685,.T.);
#583=EDGE_CURVE('',#506,#507,#75,.T.);
#584=EDGE_CURVE('',#508,#507,#686,.T.);
#585=EDGE_CURVE('',#509,#508,#687,.T.);
#586=EDGE_CURVE('',#509,#510,#688,.T.);
#587=EDGE_CURVE('',#511,#510,#689,.T.);
#588=EDGE_CURVE('',#512,#511,#690,.T.);
#589=EDGE_CURVE('',#512,#513,#76,.T.);
#590=EDGE_CURVE('',#514,#513,#691,.T.);
#591=EDGE_CURVE('',#514,#496,#77,.T.);
#592=EDGE_CURVE('',#515,#503,#692,.T.);
#593=EDGE_CURVE('',#516,#490,#693,.T.);
#594=EDGE_CURVE('',#516,#517,#694,.T.);
#595=EDGE_CURVE('',#517,#518,#695,.T.);
#596=EDGE_CURVE('',#518,#509,#696,.T.);
#597=EDGE_CURVE('',#519,#508,#697,.T.);
#598=EDGE_CURVE('',#515,#519,#698,.T.);
#599=EDGE_CURVE('',#520,#488,#699,.T.);
#600=EDGE_CURVE('',#521,#520,#700,.T.);
#601=EDGE_CURVE('',#521,#522,#701,.T.);
#602=EDGE_CURVE('',#522,#523,#702,.T.);
#603=EDGE_CURVE('',#524,#523,#703,.T.);
#604=EDGE_CURVE('',#524,#516,#704,.T.);
#605=EDGE_CURVE('',#525,#495,#705,.T.);
#606=EDGE_CURVE('',#526,#525,#706,.T.);
#607=EDGE_CURVE('',#526,#511,#707,.T.);
#608=EDGE_CURVE('',#510,#527,#708,.T.);
#609=EDGE_CURVE('',#528,#527,#709,.T.);
#610=EDGE_CURVE('',#528,#524,#710,.T.);
#611=EDGE_CURVE('',#523,#497,#711,.T.);
#612=EDGE_CURVE('',#517,#528,#712,.T.);
#613=EDGE_CURVE('',#527,#518,#713,.T.);
#614=EDGE_CURVE('',#498,#522,#714,.T.);
#615=EDGE_CURVE('',#502,#529,#715,.T.);
#616=EDGE_CURVE('',#529,#520,#716,.T.);
#617=EDGE_CURVE('',#521,#530,#717,.T.);
#618=EDGE_CURVE('',#530,#499,#718,.T.);
#619=EDGE_CURVE('',#531,#532,#719,.T.);
#620=EDGE_CURVE('',#532,#533,#78,.T.);
#621=EDGE_CURVE('',#533,#534,#720,.T.);
#622=EDGE_CURVE('',#534,#535,#79,.T.);
#623=EDGE_CURVE('',#535,#536,#721,.T.);
#624=EDGE_CURVE('',#536,#537,#80,.T.);
#625=EDGE_CURVE('',#537,#538,#722,.T.);
#626=EDGE_CURVE('',#538,#531,#81,.T.);
#627=EDGE_CURVE('',#529,#539,#82,.T.);
#628=EDGE_CURVE('',#540,#539,#723,.T.);
#629=EDGE_CURVE('',#540,#530,#83,.T.);
#630=EDGE_CURVE('',#539,#501,#724,.T.);
#631=EDGE_CURVE('',#500,#540,#725,.T.);
#632=EDGE_CURVE('',#541,#542,#726,.T.);
#633=EDGE_CURVE('',#542,#536,#727,.T.);
#634=EDGE_CURVE('',#535,#541,#728,.T.);
#635=EDGE_CURVE('',#537,#543,#729,.T.);
#636=EDGE_CURVE('',#543,#544,#730,.T.);
#637=EDGE_CURVE('',#544,#538,#731,.T.);
#638=EDGE_CURVE('',#545,#546,#732,.T.);
#639=EDGE_CURVE('',#546,#532,#733,.T.);
#640=EDGE_CURVE('',#531,#545,#734,.T.);
#641=EDGE_CURVE('',#533,#547,#735,.T.);
#642=EDGE_CURVE('',#547,#548,#736,.T.);
#643=EDGE_CURVE('',#548,#534,#737,.T.);
#644=EDGE_CURVE('',#543,#542,#84,.T.);
#645=EDGE_CURVE('',#541,#548,#85,.T.);
#646=EDGE_CURVE('',#547,#546,#86,.T.);
#647=EDGE_CURVE('',#545,#544,#87,.T.);
#648=EDGE_CURVE('',#515,#549,#738,.T.);
#649=EDGE_CURVE('',#549,#504,#739,.T.);
#650=EDGE_CURVE('',#550,#551,#740,.T.);
#651=EDGE_CURVE('',#551,#506,#741,.T.);
#652=EDGE_CURVE('',#505,#550,#742,.T.);
#653=EDGE_CURVE('',#552,#552,#88,.T.);
#654=EDGE_CURVE('',#553,#519,#743,.T.);
#655=EDGE_CURVE('',#553,#551,#89,.T.);
#656=EDGE_CURVE('',#550,#549,#90,.T.);
#657=EDGE_CURVE('',#507,#553,#744,.T.);
#658=EDGE_CURVE('',#554,#555,#745,.T.);
#659=EDGE_CURVE('',#555,#514,#746,.T.);
#660=EDGE_CURVE('',#513,#554,#747,.T.);
#661=EDGE_CURVE('',#496,#556,#748,.T.);
#662=EDGE_CURVE('',#556,#525,#749,.T.);
#663=EDGE_CURVE('',#557,#557,#91,.T.);
#664=EDGE_CURVE('',#556,#555,#92,.T.);
#665=EDGE_CURVE('',#554,#558,#93,.T.);
#666=EDGE_CURVE('',#526,#558,#750,.T.);
#667=EDGE_CURVE('',#558,#512,#751,.T.);
#668=EDGE_CURVE('',#559,#559,#94,.T.);
#669=EDGE_CURVE('',#560,#560,#95,.T.);
#670=EDGE_CURVE('',#561,#561,#96,.T.);
#671=EDGE_CURVE('',#562,#562,#97,.T.);
#672=EDGE_CURVE('',#563,#563,#98,.T.);
#673=LINE('',#1142,#752);
#674=LINE('',#1145,#753);
#675=LINE('',#1147,#754);
#676=LINE('',#1149,#755);
#677=LINE('',#1157,#756);
#678=LINE('',#1160,#757);
#679=LINE('',#1162,#758);
#680=LINE('',#1164,#759);
#681=LINE('',#1168,#760);
#682=LINE('',#1172,#761);
#683=LINE('',#1173,#762);
#684=LINE('',#1175,#763);
#685=LINE('',#1179,#764);
#686=LINE('',#1183,#765);
#687=LINE('',#1185,#766);
#688=LINE('',#1187,#767);
#689=LINE('',#1189,#768);
#690=LINE('',#1191,#769);
#691=LINE('',#1195,#770);
#692=LINE('',#1199,#771);
#693=LINE('',#1201,#772);
#694=LINE('',#1203,#773);
#695=LINE('',#1205,#774);
#696=LINE('',#1207,#775);
#697=LINE('',#1208,#776);
#698=LINE('',#1210,#777);
#699=LINE('',#1212,#778);
#700=LINE('',#1214,#779);
#701=LINE('',#1216,#780);
#702=LINE('',#1218,#781);
#703=LINE('',#1220,#782);
#704=LINE('',#1222,#783);
#705=LINE('',#1224,#784);
#706=LINE('',#1226,#785);
#707=LINE('',#1228,#786);
#708=LINE('',#1229,#787);
#709=LINE('',#1231,#788);
#710=LINE('',#1233,#789);
#711=LINE('',#1234,#790);
#712=LINE('',#1236,#791);
#713=LINE('',#1238,#792);
#714=LINE('',#1240,#793);
#715=LINE('',#1243,#794);
#716=LINE('',#1245,#795);
#717=LINE('',#1247,#796);
#718=LINE('',#1249,#797);
#719=LINE('',#1251,#798);
#720=LINE('',#1256,#799);
#721=LINE('',#1260,#800);
#722=LINE('',#1264,#801);
#723=LINE('',#1269,#802);
#724=LINE('',#1273,#803);
#725=LINE('',#1274,#804);
#726=LINE('',#1278,#805);
#727=LINE('',#1281,#806);
#728=LINE('',#1282,#807);
#729=LINE('',#1284,#808);
#730=LINE('',#1286,#809);
#731=LINE('',#1288,#810);
#732=LINE('',#1290,#811);
#733=LINE('',#1293,#812);
#734=LINE('',#1294,#813);
#735=LINE('',#1296,#814);
#736=LINE('',#1298,#815);
#737=LINE('',#1300,#816);
#738=LINE('',#1311,#817);
#739=LINE('',#1313,#818);
#740=LINE('',#1315,#819);
#741=LINE('',#1318,#820);
#742=LINE('',#1319,#821);
#743=LINE('',#1323,#822);
#744=LINE('',#1328,#823);
#745=LINE('',#1332,#824);
#746=LINE('',#1335,#825);
#747=LINE('',#1336,#826);
#748=LINE('',#1338,#827);
#749=LINE('',#1340,#828);
#750=LINE('',#1347,#829);
#751=LINE('',#1349,#830);
#752=VECTOR('',#910,1.);
#753=VECTOR('',#911,1.);
#754=VECTOR('',#912,1.);
#755=VECTOR('',#913,1.);
#756=VECTOR('',#922,1.);
#757=VECTOR('',#923,1.);
#758=VECTOR('',#924,1.);
#759=VECTOR('',#925,1.);
#760=VECTOR('',#928,1.);
#761=VECTOR('',#931,1.);
#762=VECTOR('',#932,1.);
#763=VECTOR('',#933,1.);
#764=VECTOR('',#936,1.);
#765=VECTOR('',#939,1.);
#766=VECTOR('',#940,1.);
#767=VECTOR('',#941,1.);
#768=VECTOR('',#942,1.);
#769=VECTOR('',#943,1.);
#770=VECTOR('',#946,1.);
#771=VECTOR('',#951,1.);
#772=VECTOR('',#952,1.);
#773=VECTOR('',#953,1.);
#774=VECTOR('',#954,1.);
#775=VECTOR('',#955,1.);
#776=VECTOR('',#956,1.);
#777=VECTOR('',#957,1.);
#778=VECTOR('',#960,1.);
#779=VECTOR('',#961,1.);
#780=VECTOR('',#962,1.);
#781=VECTOR('',#963,1.);
#782=VECTOR('',#964,1.);
#783=VECTOR('',#965,1.);
#784=VECTOR('',#968,1.);
#785=VECTOR('',#969,1.);
#786=VECTOR('',#970,1.);
#787=VECTOR('',#971,1.);
#788=VECTOR('',#972,1.);
#789=VECTOR('',#973,1.);
#790=VECTOR('',#974,1.);
#791=VECTOR('',#977,1.);
#792=VECTOR('',#980,1.);
#793=VECTOR('',#983,1.);
#794=VECTOR('',#988,1.);
#795=VECTOR('',#989,1.);
#796=VECTOR('',#992,1.);
#797=VECTOR('',#993,1.);
#798=VECTOR('',#996,1.);
#799=VECTOR('',#999,1.);
#800=VECTOR('',#1002,1.);
#801=VECTOR('',#1005,1.);
#802=VECTOR('',#1010,1.);
#803=VECTOR('',#1015,1.);
#804=VECTOR('',#1016,1.);
#805=VECTOR('',#1023,1.);
#806=VECTOR('',#1024,1.);
#807=VECTOR('',#1025,1.);
#808=VECTOR('',#1028,1.);
#809=VECTOR('',#1029,1.);
#810=VECTOR('',#1030,1.);
#811=VECTOR('',#1033,1.);
#812=VECTOR('',#1034,1.);
#813=VECTOR('',#1035,1.);
#814=VECTOR('',#1038,1.);
#815=VECTOR('',#1039,1.);
#816=VECTOR('',#1040,1.);
#817=VECTOR('',#1061,1.);
#818=VECTOR('',#1062,1.);
#819=VECTOR('',#1065,1.);
#820=VECTOR('',#1066,1.);
#821=VECTOR('',#1067,1.);
#822=VECTOR('',#1072,1.);
#823=VECTOR('',#1079,1.);
#824=VECTOR('',#1086,1.);
#825=VECTOR('',#1087,1.);
#826=VECTOR('',#1088,1.);
#827=VECTOR('',#1091,1.);
#828=VECTOR('',#1092,1.);
#829=VECTOR('',#1101,1.);
#830=VECTOR('',#1104,1.);
#831=AXIS2_PLACEMENT_3D('',#1141,#908,#909);
#832=AXIS2_PLACEMENT_3D('',#1150,#914,#915);
#833=AXIS2_PLACEMENT_3D('',#1151,#916,#917);
#834=AXIS2_PLACEMENT_3D('',#1153,#918,#919);
#835=AXIS2_PLACEMENT_3D('',#1155,#920,#921);
#836=AXIS2_PLACEMENT_3D('',#1166,#926,#927);
#837=AXIS2_PLACEMENT_3D('',#1170,#929,#930);
#838=AXIS2_PLACEMENT_3D('',#1177,#934,#935);
#839=AXIS2_PLACEMENT_3D('',#1181,#937,#938);
#840=AXIS2_PLACEMENT_3D('',#1193,#944,#945);
#841=AXIS2_PLACEMENT_3D('',#1197,#947,#948);
#842=AXIS2_PLACEMENT_3D('',#1198,#949,#950);
#843=AXIS2_PLACEMENT_3D('',#1211,#958,#959);
#844=AXIS2_PLACEMENT_3D('',#1223,#966,#967);
#845=AXIS2_PLACEMENT_3D('',#1235,#975,#976);
#846=AXIS2_PLACEMENT_3D('',#1237,#978,#979);
#847=AXIS2_PLACEMENT_3D('',#1239,#981,#982);
#848=AXIS2_PLACEMENT_3D('',#1241,#984,#985);
#849=AXIS2_PLACEMENT_3D('',#1242,#986,#987);
#850=AXIS2_PLACEMENT_3D('',#1246,#990,#991);
#851=AXIS2_PLACEMENT_3D('',#1250,#994,#995);
#852=AXIS2_PLACEMENT_3D('',#1254,#997,#998);
#853=AXIS2_PLACEMENT_3D('',#1258,#1000,#1001);
#854=AXIS2_PLACEMENT_3D('',#1262,#1003,#1004);
#855=AXIS2_PLACEMENT_3D('',#1266,#1006,#1007);
#856=AXIS2_PLACEMENT_3D('',#1267,#1008,#1009);
#857=AXIS2_PLACEMENT_3D('',#1271,#1011,#1012);
#858=AXIS2_PLACEMENT_3D('',#1272,#1013,#1014);
#859=AXIS2_PLACEMENT_3D('',#1275,#1017,#1018);
#860=AXIS2_PLACEMENT_3D('',#1276,#1019,#1020);
#861=AXIS2_PLACEMENT_3D('',#1277,#1021,#1022);
#862=AXIS2_PLACEMENT_3D('',#1283,#1026,#1027);
#863=AXIS2_PLACEMENT_3D('',#1289,#1031,#1032);
#864=AXIS2_PLACEMENT_3D('',#1295,#1036,#1037);
#865=AXIS2_PLACEMENT_3D('',#1301,#1041,#1042);
#866=AXIS2_PLACEMENT_3D('',#1302,#1043,#1044);
#867=AXIS2_PLACEMENT_3D('',#1303,#1045,#1046);
#868=AXIS2_PLACEMENT_3D('',#1304,#1047,#1048);
#869=AXIS2_PLACEMENT_3D('',#1305,#1049,#1050);
#870=AXIS2_PLACEMENT_3D('',#1306,#1051,#1052);
#871=AXIS2_PLACEMENT_3D('',#1307,#1053,#1054);
#872=AXIS2_PLACEMENT_3D('',#1308,#1055,#1056);
#873=AXIS2_PLACEMENT_3D('',#1309,#1057,#1058);
#874=AXIS2_PLACEMENT_3D('',#1310,#1059,#1060);
#875=AXIS2_PLACEMENT_3D('',#1314,#1063,#1064);
#876=AXIS2_PLACEMENT_3D('',#1320,#1068,#1069);
#877=AXIS2_PLACEMENT_3D('',#1321,#1070,#1071);
#878=AXIS2_PLACEMENT_3D('',#1325,#1073,#1074);
#879=AXIS2_PLACEMENT_3D('',#1326,#1075,#1076);
#880=AXIS2_PLACEMENT_3D('',#1327,#1077,#1078);
#881=AXIS2_PLACEMENT_3D('',#1329,#1080,#1081);
#882=AXIS2_PLACEMENT_3D('',#1330,#1082,#1083);
#883=AXIS2_PLACEMENT_3D('',#1331,#1084,#1085);
#884=AXIS2_PLACEMENT_3D('',#1337,#1089,#1090);
#885=AXIS2_PLACEMENT_3D('',#1341,#1093,#1094);
#886=AXIS2_PLACEMENT_3D('',#1342,#1095,#1096);
#887=AXIS2_PLACEMENT_3D('',#1344,#1097,#1098);
#888=AXIS2_PLACEMENT_3D('',#1345,#1099,#1100);
#889=AXIS2_PLACEMENT_3D('',#1348,#1102,#1103);
#890=AXIS2_PLACEMENT_3D('',#1350,#1105,#1106);
#891=AXIS2_PLACEMENT_3D('',#1351,#1107,#1108);
#892=AXIS2_PLACEMENT_3D('',#1352,#1109,#1110);
#893=AXIS2_PLACEMENT_3D('',#1353,#1111,#1112);
#894=AXIS2_PLACEMENT_3D('',#1355,#1113,#1114);
#895=AXIS2_PLACEMENT_3D('',#1356,#1115,#1116);
#896=AXIS2_PLACEMENT_3D('',#1357,#1117,#1118);
#897=AXIS2_PLACEMENT_3D('',#1359,#1119,#1120);
#898=AXIS2_PLACEMENT_3D('',#1360,#1121,#1122);
#899=AXIS2_PLACEMENT_3D('',#1361,#1123,#1124);
#900=AXIS2_PLACEMENT_3D('',#1363,#1125,#1126);
#901=AXIS2_PLACEMENT_3D('',#1364,#1127,#1128);
#902=AXIS2_PLACEMENT_3D('',#1365,#1129,#1130);
#903=AXIS2_PLACEMENT_3D('',#1367,#1131,#1132);
#904=AXIS2_PLACEMENT_3D('',#1368,#1133,#1134);
#905=AXIS2_PLACEMENT_3D('',#1369,#1135,#1136);
#906=AXIS2_PLACEMENT_3D('',#1371,#1137,#1138);
#907=AXIS2_PLACEMENT_3D('',#1372,#1139,#1140);
#908=DIRECTION('',(0.,0.,1.));
#909=DIRECTION('',(1.,0.,0.));
#910=DIRECTION('',(0.707106781186549,0.,0.707106781186546));
#911=DIRECTION('',(0.,1.,0.));
#912=DIRECTION('',(-0.707106781186549,0.,-0.707106781186546));
#913=DIRECTION('',(0.,-1.,0.));
#914=DIRECTION('',(0.707106781186546,0.,-0.707106781186549));
#915=DIRECTION('',(0.,1.,0.));
#916=DIRECTION('',(0.,0.,1.));
#917=DIRECTION('',(1.,0.,0.));
#918=DIRECTION('',(0.,0.,1.));
#919=DIRECTION('',(1.,0.,0.));
#920=DIRECTION('',(0.,0.,1.));
#921=DIRECTION('',(0.999999999999996,0.,0.));
#922=DIRECTION('',(0.,-1.,0.));
#923=DIRECTION('',(1.,0.,0.));
#924=DIRECTION('',(0.,-1.,0.));
#925=DIRECTION('',(-1.,0.,0.));
#926=DIRECTION('',(0.,0.,-1.));
#927=DIRECTION('',(1.,0.,0.));
#928=DIRECTION('',(0.,1.,0.));
#929=DIRECTION('',(0.,0.,-1.));
#930=DIRECTION('',(1.,0.,0.));
#931=DIRECTION('',(1.,0.,0.));
#932=DIRECTION('',(-1.,0.,0.));
#933=DIRECTION('',(0.,-1.,0.));
#934=DIRECTION('',(0.,0.,-1.));
#935=DIRECTION('',(1.,0.,0.));
#936=DIRECTION('',(-1.,0.,0.));
#937=DIRECTION('',(0.,0.,-1.));
#938=DIRECTION('',(1.,0.,0.));
#939=DIRECTION('',(0.,1.,0.));
#940=DIRECTION('',(-1.,0.,0.));
#941=DIRECTION('',(0.,1.,0.));
#942=DIRECTION('',(1.,0.,0.));
#943=DIRECTION('',(0.,1.,0.));
#944=DIRECTION('',(0.,0.,-1.));
#945=DIRECTION('',(1.,0.,0.));
#946=DIRECTION('',(1.,0.,0.));
#947=DIRECTION('',(0.,0.,-1.));
#948=DIRECTION('',(1.,0.,0.));
#949=DIRECTION('',(0.,0.,1.));
#950=DIRECTION('',(1.,0.,0.));
#951=DIRECTION('',(0.,0.,1.));
#952=DIRECTION('',(0.,0.,1.));
#953=DIRECTION('',(1.,0.,0.));
#954=DIRECTION('',(0.,0.,1.));
#955=DIRECTION('',(-0.707106781186548,0.,0.707106781186548));
#956=DIRECTION('',(0.,0.,1.));
#957=DIRECTION('',(1.,0.,0.));
#958=DIRECTION('',(0.,-1.,0.));
#959=DIRECTION('',(0.,0.,-1.));
#960=DIRECTION('',(0.,0.,1.));
#961=DIRECTION('',(0.,-1.,0.));
#962=DIRECTION('',(0.,0.,1.));
#963=DIRECTION('',(0.,1.,0.));
#964=DIRECTION('',(0.,0.,1.));
#965=DIRECTION('',(0.,-1.,0.));
#966=DIRECTION('',(-1.,0.,0.));
#967=DIRECTION('',(0.,0.,1.));
#968=DIRECTION('',(0.,0.,1.));
#969=DIRECTION('',(-1.,0.,0.));
#970=DIRECTION('',(0.,0.,1.));
#971=DIRECTION('',(0.707106781186548,0.,-0.707106781186548));
#972=DIRECTION('',(0.,0.,1.));
#973=DIRECTION('',(-1.,0.,0.));
#974=DIRECTION('',(0.707106781186549,0.,0.707106781186546));
#975=DIRECTION('',(0.,1.,0.));
#976=DIRECTION('',(0.,0.,1.));
#977=DIRECTION('',(0.,1.,0.));
#978=DIRECTION('',(0.,0.,-1.));
#979=DIRECTION('',(-1.,0.,0.));
#980=DIRECTION('',(0.,-1.,0.));
#981=DIRECTION('',(1.,0.,0.));
#982=DIRECTION('',(0.,0.,-1.));
#983=DIRECTION('',(-0.707106781186549,0.,-0.707106781186546));
#984=DIRECTION('',(0.707106781186546,0.,-0.707106781186549));
#985=DIRECTION('',(0.,1.,0.));
#986=DIRECTION('',(-0.707106781186548,0.,-0.707106781186548));
#987=DIRECTION('',(0.,-1.,0.));
#988=DIRECTION('',(0.,0.,-1.));
#989=DIRECTION('',(-1.,0.,0.));
#990=DIRECTION('',(0.,-1.,0.));
#991=DIRECTION('',(0.,0.,-1.));
#992=DIRECTION('',(1.,0.,0.));
#993=DIRECTION('',(0.,0.,1.));
#994=DIRECTION('',(0.,1.,0.));
#995=DIRECTION('',(0.,0.,1.));
#996=DIRECTION('',(1.,0.,0.));
#997=DIRECTION('',(0.,0.,-1.));
#998=DIRECTION('',(-1.,0.,0.));
#999=DIRECTION('',(0.,-1.,0.));
#1000=DIRECTION('',(0.,0.,-1.));
#1001=DIRECTION('',(-1.,0.,0.));
#1002=DIRECTION('',(-1.,0.,0.));
#1003=DIRECTION('',(0.,0.,-1.));
#1004=DIRECTION('',(-1.,0.,0.));
#1005=DIRECTION('',(0.,1.,0.));
#1006=DIRECTION('',(0.,0.,-1.));
#1007=DIRECTION('',(-1.,0.,0.));
#1008=DIRECTION('',(0.,0.,1.));
#1009=DIRECTION('',(-1.,0.,0.));
#1010=DIRECTION('',(0.,-1.,0.));
#1011=DIRECTION('',(0.,0.,1.));
#1012=DIRECTION('',(-1.,0.,0.));
#1013=DIRECTION('',(0.,0.,-1.));
#1014=DIRECTION('',(-1.,0.,0.));
#1015=DIRECTION('',(0.,0.,1.));
#1016=DIRECTION('',(0.,0.,-1.));
#1017=DIRECTION('',(1.,0.,0.));
#1018=DIRECTION('',(0.,0.,-1.));
#1019=DIRECTION('',(0.,0.,1.));
#1020=DIRECTION('',(1.,0.,0.));
#1021=DIRECTION('',(0.,0.,1.));
#1022=DIRECTION('',(1.,0.,0.));
#1023=DIRECTION('',(-1.,0.,0.));
#1024=DIRECTION('',(0.,0.,1.));
#1025=DIRECTION('',(0.,0.,-1.));
#1026=DIRECTION('',(0.,-1.,0.));
#1027=DIRECTION('',(0.,0.,-1.));
#1028=DIRECTION('',(0.,0.,-1.));
#1029=DIRECTION('',(0.,1.,0.));
#1030=DIRECTION('',(0.,0.,1.));
#1031=DIRECTION('',(-1.,0.,0.));
#1032=DIRECTION('',(0.,0.,1.));
#1033=DIRECTION('',(1.,0.,0.));
#1034=DIRECTION('',(0.,0.,1.));
#1035=DIRECTION('',(0.,0.,-1.));
#1036=DIRECTION('',(0.,1.,0.));
#1037=DIRECTION('',(0.,0.,1.));
#1038=DIRECTION('',(0.,0.,-1.));
#1039=DIRECTION('',(0.,-1.,0.));
#1040=DIRECTION('',(0.,0.,1.));
#1041=DIRECTION('',(1.,0.,0.));
#1042=DIRECTION('',(0.,0.,-1.));
#1043=DIRECTION('',(0.,0.,1.));
#1044=DIRECTION('',(-1.,0.,0.));
#1045=DIRECTION('',(0.,0.,1.));
#1046=DIRECTION('',(-1.,0.,0.));
#1047=DIRECTION('',(0.,0.,1.));
#1048=DIRECTION('',(-1.,0.,0.));
#1049=DIRECTION('',(0.,0.,1.));
#1050=DIRECTION('',(-1.,0.,0.));
#1051=DIRECTION('',(0.,0.,-1.));
#1052=DIRECTION('',(-1.,0.,0.));
#1053=DIRECTION('',(0.,0.,1.));
#1054=DIRECTION('',(1.,0.,0.));
#1055=DIRECTION('',(0.,0.,1.));
#1056=DIRECTION('',(1.,0.,0.));
#1057=DIRECTION('',(0.,0.,1.));
#1058=DIRECTION('',(1.,0.,0.));
#1059=DIRECTION('',(0.,0.,1.));
#1060=DIRECTION('',(1.,0.,0.));
#1061=DIRECTION('',(0.,1.,0.));
#1062=DIRECTION('',(0.,0.,1.));
#1063=DIRECTION('',(-1.,0.,0.));
#1064=DIRECTION('',(0.,0.,1.));
#1065=DIRECTION('',(1.,0.,0.));
#1066=DIRECTION('',(0.,0.,1.));
#1067=DIRECTION('',(0.,0.,-1.));
#1068=DIRECTION('',(0.,1.,0.));
#1069=DIRECTION('',(0.,0.,1.));
#1070=DIRECTION('',(0.,0.,-1.));
#1071=DIRECTION('',(-1.,0.,0.));
#1072=DIRECTION('',(0.,-1.,0.));
#1073=DIRECTION('',(0.,0.,1.));
#1074=DIRECTION('',(-1.,0.,0.));
#1075=DIRECTION('',(0.,0.,1.));
#1076=DIRECTION('',(-1.,0.,0.));
#1077=DIRECTION('',(0.,0.,-1.));
#1078=DIRECTION('',(-1.,0.,0.));
#1079=DIRECTION('',(0.,0.,-1.));
#1080=DIRECTION('',(1.,0.,0.));
#1081=DIRECTION('',(0.,0.,-1.));
#1082=DIRECTION('',(0.,0.,1.));
#1083=DIRECTION('',(1.,0.,0.));
#1084=DIRECTION('',(0.,0.,1.));
#1085=DIRECTION('',(1.,0.,0.));
#1086=DIRECTION('',(-1.,0.,0.));
#1087=DIRECTION('',(0.,0.,1.));
#1088=DIRECTION('',(0.,0.,-1.));
#1089=DIRECTION('',(0.,-1.,0.));
#1090=DIRECTION('',(0.,0.,-1.));
#1091=DIRECTION('',(0.,0.,-1.));
#1092=DIRECTION('',(0.,1.,0.));
#1093=DIRECTION('',(-1.,0.,0.));
#1094=DIRECTION('',(0.,0.,1.));
#1095=DIRECTION('',(0.,0.,-1.));
#1096=DIRECTION('',(-0.999999999999996,0.,0.));
#1097=DIRECTION('',(0.,0.,1.));
#1098=DIRECTION('',(-1.,0.,0.));
#1099=DIRECTION('',(0.,0.,1.));
#1100=DIRECTION('',(-1.,0.,0.));
#1101=DIRECTION('',(0.,-1.,0.));
#1102=DIRECTION('',(0.,0.,-1.));
#1103=DIRECTION('',(-1.,0.,0.));
#1104=DIRECTION('',(0.,0.,1.));
#1105=DIRECTION('',(1.,0.,0.));
#1106=DIRECTION('',(0.,0.,-1.));
#1107=DIRECTION('',(0.,0.,1.));
#1108=DIRECTION('',(1.,0.,0.));
#1109=DIRECTION('',(0.,0.,1.));
#1110=DIRECTION('',(1.,0.,0.));
#1111=DIRECTION('',(0.,0.,-1.));
#1112=DIRECTION('',(0.999999999999996,0.,0.));
#1113=DIRECTION('',(0.,0.,-1.));
#1114=DIRECTION('',(-1.,0.,0.));
#1115=DIRECTION('',(0.,0.,-1.));
#1116=DIRECTION('',(0.999999999999996,0.,0.));
#1117=DIRECTION('',(0.,0.,-1.));
#1118=DIRECTION('',(0.999999999999996,0.,0.));
#1119=DIRECTION('',(0.,0.,-1.));
#1120=DIRECTION('',(0.999999999999996,0.,0.));
#1121=DIRECTION('',(0.,0.,-1.));
#1122=DIRECTION('',(-1.,0.,0.));
#1123=DIRECTION('',(0.,0.,-1.));
#1124=DIRECTION('',(1.,0.,0.));
#1125=DIRECTION('',(0.,0.,-1.));
#1126=DIRECTION('',(-1.,0.,0.));
#1127=DIRECTION('',(0.,0.,-1.));
#1128=DIRECTION('',(1.,0.,0.));
#1129=DIRECTION('',(0.,0.,-1.));
#1130=DIRECTION('',(1.,0.,0.));
#1131=DIRECTION('',(0.,0.,-1.));
#1132=DIRECTION('',(-1.,0.,0.));
#1133=DIRECTION('',(0.,0.,-1.));
#1134=DIRECTION('',(1.,0.,0.));
#1135=DIRECTION('',(0.,0.,-1.));
#1136=DIRECTION('',(1.,0.,0.));
#1137=DIRECTION('',(0.,0.,-1.));
#1138=DIRECTION('',(1.,0.,0.));
#1139=DIRECTION('',(0.,0.,-1.));
#1140=DIRECTION('',(-1.,0.,0.));
#1141=CARTESIAN_POINT('',(0.,0.,0.));
#1142=CARTESIAN_POINT('',(0.,270.2,106.1));
#1143=CARTESIAN_POINT('',(0.,270.2,106.1));
#1144=CARTESIAN_POINT('',(4.20000000000001,270.2,110.3));
#1145=CARTESIAN_POINT('',(0.,206.25,106.1));
#1146=CARTESIAN_POINT('',(0.,0.,106.1));
#1147=CARTESIAN_POINT('',(53.1250000000003,0.,159.225));
#1148=CARTESIAN_POINT('',(4.20000000000001,0.,110.3));
#1149=CARTESIAN_POINT('',(4.20000000000001,206.25,110.3));
#1150=CARTESIAN_POINT('',(0.,206.25,106.1));
#1151=CARTESIAN_POINT('',(44.3,199.7,110.3));
#1152=CARTESIAN_POINT('',(50.05,199.7,110.3));
#1153=CARTESIAN_POINT('',(154.2,364.1,110.3));
#1154=CARTESIAN_POINT('',(159.95,364.1,110.3));
#1155=CARTESIAN_POINT('',(352.2,112.8,110.3));
#1156=CARTESIAN_POINT('',(357.95,112.8,110.3));
#1157=CARTESIAN_POINT('',(220.7,206.25,110.3));
#1158=CARTESIAN_POINT('',(220.7,412.5,110.3));
#1159=CARTESIAN_POINT('',(220.7,301.,110.3));
#1160=CARTESIAN_POINT('',(212.35,412.5,110.3));
#1161=CARTESIAN_POINT('',(4.20000000000001,412.5,110.3));
#1162=CARTESIAN_POINT('',(4.20000000000001,206.25,110.3));
#1163=CARTESIAN_POINT('',(4.20000000000001,403.5,110.3));
#1164=CARTESIAN_POINT('',(212.35,403.5,110.3));
#1165=CARTESIAN_POINT('',(91.5,403.5,110.3));
#1166=CARTESIAN_POINT('',(91.5,398.2,110.3));
#1167=CARTESIAN_POINT('',(96.8,398.2,110.3));
#1168=CARTESIAN_POINT('',(96.8,206.25,110.3));
#1169=CARTESIAN_POINT('',(96.8,275.5,110.3));
#1170=CARTESIAN_POINT('',(91.5,275.5,110.3));
#1171=CARTESIAN_POINT('',(91.5,270.2,110.3));
#1172=CARTESIAN_POINT('',(212.35,270.2,110.3));
#1173=CARTESIAN_POINT('',(212.35,0.,110.3));
#1174=CARTESIAN_POINT('',(91.7,0.,110.3));
#1175=CARTESIAN_POINT('',(91.7,206.25,110.3));
#1176=CARTESIAN_POINT('',(91.7,108.1,110.3));
#1177=CARTESIAN_POINT('',(102.8,108.1,110.3));
#1178=CARTESIAN_POINT('',(102.8,119.2,110.3));
#1179=CARTESIAN_POINT('',(212.35,119.2,110.3));
#1180=CARTESIAN_POINT('',(201.1,119.2,110.3));
#1181=CARTESIAN_POINT('',(201.1,108.1,110.3));
#1182=CARTESIAN_POINT('',(212.2,108.1,110.3));
#1183=CARTESIAN_POINT('',(212.2,206.25,110.3));
#1184=CARTESIAN_POINT('',(212.2,0.,110.3));
#1185=CARTESIAN_POINT('',(212.35,0.,110.3));
#1186=CARTESIAN_POINT('',(410.1,0.,110.3));
#1187=CARTESIAN_POINT('',(410.1,206.25,110.3));
#1188=CARTESIAN_POINT('',(410.1,412.5,110.3));
#1189=CARTESIAN_POINT('',(212.35,412.5,110.3));
#1190=CARTESIAN_POINT('',(374.,412.5,110.3));
#1191=CARTESIAN_POINT('',(374.,206.25,110.3));
#1192=CARTESIAN_POINT('',(374.,301.,110.3));
#1193=CARTESIAN_POINT('',(370.5,301.,110.3));
#1194=CARTESIAN_POINT('',(370.5,297.5,110.3));
#1195=CARTESIAN_POINT('',(212.35,297.5,110.3));
#1196=CARTESIAN_POINT('',(224.2,297.5,110.3));
#1197=CARTESIAN_POINT('',(224.2,301.,110.3));
#1198=CARTESIAN_POINT('',(212.35,206.25,110.3));
#1199=CARTESIAN_POINT('',(91.7,0.,75.5));
#1200=CARTESIAN_POINT('',(91.7,0.,75.5));
#1201=CARTESIAN_POINT('',(0.,0.,0.));
#1202=CARTESIAN_POINT('',(0.,0.,0.));
#1203=CARTESIAN_POINT('',(212.35,0.,0.));
#1204=CARTESIAN_POINT('',(424.7,0.,0.));
#1205=CARTESIAN_POINT('',(424.7,0.,0.));
#1206=CARTESIAN_POINT('',(424.7,0.,95.7));
#1207=CARTESIAN_POINT('',(366.375,0.,154.025));
#1208=CARTESIAN_POINT('',(212.2,0.,75.5));
#1209=CARTESIAN_POINT('',(212.2,0.,75.5));
#1210=CARTESIAN_POINT('',(151.95,0.,75.5));
#1211=CARTESIAN_POINT('',(212.35,0.,0.));
#1212=CARTESIAN_POINT('',(0.,270.2,81.));
#1213=CARTESIAN_POINT('',(0.,270.2,81.));
#1214=CARTESIAN_POINT('',(0.,336.85,81.));
#1215=CARTESIAN_POINT('',(0.,403.5,81.));
#1216=CARTESIAN_POINT('',(0.,403.5,81.));
#1217=CARTESIAN_POINT('',(0.,403.5,106.1));
#1218=CARTESIAN_POINT('',(0.,206.25,106.1));
#1219=CARTESIAN_POINT('',(0.,412.5,106.1));
#1220=CARTESIAN_POINT('',(0.,412.5,0.));
#1221=CARTESIAN_POINT('',(0.,412.5,0.));
#1222=CARTESIAN_POINT('',(0.,206.25,0.));
#1223=CARTESIAN_POINT('',(0.,206.25,0.));
#1224=CARTESIAN_POINT('',(220.7,412.5,84.4));
#1225=CARTESIAN_POINT('',(220.7,412.5,84.4));
#1226=CARTESIAN_POINT('',(297.35,412.5,84.4));
#1227=CARTESIAN_POINT('',(374.,412.5,84.4));
#1228=CARTESIAN_POINT('',(374.,412.5,84.4));
#1229=CARTESIAN_POINT('',(366.375,412.5,154.025));
#1230=CARTESIAN_POINT('',(424.7,412.5,95.7));
#1231=CARTESIAN_POINT('',(424.7,412.5,0.));
#1232=CARTESIAN_POINT('',(424.7,412.5,0.));
#1233=CARTESIAN_POINT('',(212.35,412.5,0.));
#1234=CARTESIAN_POINT('',(53.1250000000003,412.5,159.225));
#1235=CARTESIAN_POINT('',(212.35,412.5,0.));
#1236=CARTESIAN_POINT('',(424.7,206.25,0.));
#1237=CARTESIAN_POINT('',(212.35,206.25,0.));
#1238=CARTESIAN_POINT('',(424.7,206.25,95.7));
#1239=CARTESIAN_POINT('',(424.7,206.25,0.));
#1240=CARTESIAN_POINT('',(0.,403.5,106.1));
#1241=CARTESIAN_POINT('',(0.,206.25,106.1));
#1242=CARTESIAN_POINT('',(424.7,206.25,95.7));
#1243=CARTESIAN_POINT('',(91.5,270.2,81.));
#1244=CARTESIAN_POINT('',(91.5,270.2,81.));
#1245=CARTESIAN_POINT('',(48.4,270.2,81.));
#1246=CARTESIAN_POINT('',(48.4,270.2,81.));
#1247=CARTESIAN_POINT('',(48.4,403.5,81.));
#1248=CARTESIAN_POINT('',(91.5,403.5,81.));
#1249=CARTESIAN_POINT('',(91.5,403.5,110.3));
#1250=CARTESIAN_POINT('',(48.4,403.5,81.));
#1251=CARTESIAN_POINT('',(48.4,370.7,81.));
#1252=CARTESIAN_POINT('',(33.6,370.7,81.));
#1253=CARTESIAN_POINT('',(52.6,370.7,81.));
#1254=CARTESIAN_POINT('',(52.6,359.3,81.));
#1255=CARTESIAN_POINT('',(64.,359.3,81.));
#1256=CARTESIAN_POINT('',(64.,336.85,81.));
#1257=CARTESIAN_POINT('',(64.,302.4,81.));
#1258=CARTESIAN_POINT('',(52.6,302.4,81.));
#1259=CARTESIAN_POINT('',(52.6,291.,81.));
#1260=CARTESIAN_POINT('',(48.4,291.,81.));
#1261=CARTESIAN_POINT('',(33.6,291.,81.));
#1262=CARTESIAN_POINT('',(33.6,302.4,81.));
#1263=CARTESIAN_POINT('',(22.2,302.4,81.));
#1264=CARTESIAN_POINT('',(22.2,336.85,81.));
#1265=CARTESIAN_POINT('',(22.2,359.3,81.));
#1266=CARTESIAN_POINT('',(33.6,359.3,81.));
#1267=CARTESIAN_POINT('',(91.5,275.5,81.));
#1268=CARTESIAN_POINT('',(96.8,275.5,81.));
#1269=CARTESIAN_POINT('',(96.8,336.85,81.));
#1270=CARTESIAN_POINT('',(96.8,398.2,81.));
#1271=CARTESIAN_POINT('',(91.5,398.2,81.));
#1272=CARTESIAN_POINT('',(48.4,336.85,81.));
#1273=CARTESIAN_POINT('',(96.8,275.5,110.3));
#1274=CARTESIAN_POINT('',(96.8,398.2,81.));
#1275=CARTESIAN_POINT('',(96.8,336.85,81.));
#1276=CARTESIAN_POINT('',(91.5,275.5,81.));
#1277=CARTESIAN_POINT('',(91.5,398.2,81.));
#1278=CARTESIAN_POINT('',(43.1,291.,72.4));
#1279=CARTESIAN_POINT('',(52.6,291.,72.4));
#1280=CARTESIAN_POINT('',(33.6,291.,72.4));
#1281=CARTESIAN_POINT('',(33.6,291.,81.));
#1282=CARTESIAN_POINT('',(52.6,291.,72.4));
#1283=CARTESIAN_POINT('',(43.1,291.,72.4));
#1284=CARTESIAN_POINT('',(22.2,302.4,72.4));
#1285=CARTESIAN_POINT('',(22.2,302.4,72.4));
#1286=CARTESIAN_POINT('',(22.2,330.85,72.4));
#1287=CARTESIAN_POINT('',(22.2,359.3,72.4));
#1288=CARTESIAN_POINT('',(22.2,359.3,81.));
#1289=CARTESIAN_POINT('',(22.2,330.85,72.4));
#1290=CARTESIAN_POINT('',(43.1,370.7,72.4));
#1291=CARTESIAN_POINT('',(33.6,370.7,72.4));
#1292=CARTESIAN_POINT('',(52.6,370.7,72.4));
#1293=CARTESIAN_POINT('',(52.6,370.7,81.));
#1294=CARTESIAN_POINT('',(33.6,370.7,72.4));
#1295=CARTESIAN_POINT('',(43.1,370.7,72.4));
#1296=CARTESIAN_POINT('',(64.,359.3,72.4));
#1297=CARTESIAN_POINT('',(64.,359.3,72.4));
#1298=CARTESIAN_POINT('',(64.,330.85,72.4));
#1299=CARTESIAN_POINT('',(64.,302.4,72.4));
#1300=CARTESIAN_POINT('',(64.,302.4,81.));
#1301=CARTESIAN_POINT('',(64.,330.85,72.4));
#1302=CARTESIAN_POINT('',(33.6,302.4,72.4));
#1303=CARTESIAN_POINT('',(52.6,302.4,72.4));
#1304=CARTESIAN_POINT('',(52.6,359.3,72.4));
#1305=CARTESIAN_POINT('',(33.6,359.3,72.4));
#1306=CARTESIAN_POINT('',(43.1,330.85,72.4));
#1307=CARTESIAN_POINT('',(33.6,302.4,72.4));
#1308=CARTESIAN_POINT('',(52.6,359.3,72.4));
#1309=CARTESIAN_POINT('',(52.6,302.4,72.4));
#1310=CARTESIAN_POINT('',(33.6,359.3,72.4));
#1311=CARTESIAN_POINT('',(91.7,59.6,75.5));
#1312=CARTESIAN_POINT('',(91.7,108.1,75.5));
#1313=CARTESIAN_POINT('',(91.7,108.1,110.3));
#1314=CARTESIAN_POINT('',(91.7,59.6,75.5));
#1315=CARTESIAN_POINT('',(151.95,119.2,75.5));
#1316=CARTESIAN_POINT('',(102.8,119.2,75.5));
#1317=CARTESIAN_POINT('',(201.1,119.2,75.5));
#1318=CARTESIAN_POINT('',(201.1,119.2,110.3));
#1319=CARTESIAN_POINT('',(102.8,119.2,75.5));
#1320=CARTESIAN_POINT('',(151.95,119.2,75.5));
#1321=CARTESIAN_POINT('',(166.6,44.4,75.5));
#1322=CARTESIAN_POINT('',(160.85,44.4,75.5));
#1323=CARTESIAN_POINT('',(212.2,59.6,75.5));
#1324=CARTESIAN_POINT('',(212.2,108.1,75.5));
#1325=CARTESIAN_POINT('',(201.1,108.1,75.5));
#1326=CARTESIAN_POINT('',(102.8,108.1,75.5));
#1327=CARTESIAN_POINT('',(151.95,59.6,75.5));
#1328=CARTESIAN_POINT('',(212.2,108.1,75.5));
#1329=CARTESIAN_POINT('',(212.2,59.6,75.5));
#1330=CARTESIAN_POINT('',(201.1,108.1,75.5));
#1331=CARTESIAN_POINT('',(102.8,108.1,75.5));
#1332=CARTESIAN_POINT('',(297.35,297.5,84.4));
#1333=CARTESIAN_POINT('',(370.5,297.5,84.4));
#1334=CARTESIAN_POINT('',(224.2,297.5,84.4));
#1335=CARTESIAN_POINT('',(224.2,297.5,110.3));
#1336=CARTESIAN_POINT('',(370.5,297.5,84.4));
#1337=CARTESIAN_POINT('',(297.35,297.5,84.4));
#1338=CARTESIAN_POINT('',(220.7,301.,84.4));
#1339=CARTESIAN_POINT('',(220.7,301.,84.4));
#1340=CARTESIAN_POINT('',(220.7,355.,84.4));
#1341=CARTESIAN_POINT('',(220.7,355.,84.4));
#1342=CARTESIAN_POINT('',(344.5,310.3,84.4));
#1343=CARTESIAN_POINT('',(338.75,310.3,84.4));
#1344=CARTESIAN_POINT('',(224.2,301.,84.4));
#1345=CARTESIAN_POINT('',(370.5,301.,84.4));
#1346=CARTESIAN_POINT('',(374.,301.,84.4));
#1347=CARTESIAN_POINT('',(374.,355.,84.4));
#1348=CARTESIAN_POINT('',(297.35,355.,84.4));
#1349=CARTESIAN_POINT('',(374.,301.,110.3));
#1350=CARTESIAN_POINT('',(374.,355.,84.4));
#1351=CARTESIAN_POINT('',(224.2,301.,84.4));
#1352=CARTESIAN_POINT('',(370.5,301.,84.4));
#1353=CARTESIAN_POINT('',(352.2,112.8,55.9));
#1354=CARTESIAN_POINT('',(357.95,112.8,55.9));
#1355=CARTESIAN_POINT('',(352.2,112.8,55.9));
#1356=CARTESIAN_POINT('',(352.2,112.8,110.35));
#1357=CARTESIAN_POINT('',(344.5,310.3,50.));
#1358=CARTESIAN_POINT('',(350.25,310.3,50.));
#1359=CARTESIAN_POINT('',(344.5,310.3,110.35));
#1360=CARTESIAN_POINT('',(344.5,310.3,50.));
#1361=CARTESIAN_POINT('',(154.2,364.1,59.));
#1362=CARTESIAN_POINT('',(159.95,364.1,59.));
#1363=CARTESIAN_POINT('',(154.2,364.1,59.));
#1364=CARTESIAN_POINT('',(154.2,364.1,110.35));
#1365=CARTESIAN_POINT('',(44.3,199.7,63.5));
#1366=CARTESIAN_POINT('',(50.05,199.7,63.5));
#1367=CARTESIAN_POINT('',(44.3,199.7,63.5));
#1368=CARTESIAN_POINT('',(44.3,199.7,110.35));
#1369=CARTESIAN_POINT('',(166.6,44.4,44.2));
#1370=CARTESIAN_POINT('',(172.35,44.4,44.2));
#1371=CARTESIAN_POINT('',(166.6,44.4,110.35));
#1372=CARTESIAN_POINT('',(166.6,44.4,44.2));
#1373=MECHANICAL_DESIGN_GEOMETRIC_PRESENTATION_REPRESENTATION('',(#24),
#1374);
#1374=(
GEOMETRIC_REPRESENTATION_CONTEXT(3)
GLOBAL_UNCERTAINTY_ASSIGNED_CONTEXT((#1375))
GLOBAL_UNIT_ASSIGNED_CONTEXT((#1381,#1377,#1376))
REPRESENTATION_CONTEXT('featured_part_06859','TOP_LEVEL_ASSEMBLY_PART')
);
#1375=UNCERTAINTY_MEASURE_WITH_UNIT(LENGTH_MEASURE(2.E-5),#1381,
'DISTANCE_ACCURACY_VALUE','Maximum Tolerance applied to model');
#1376=(
NAMED_UNIT(*)
SI_UNIT($,.STERADIAN.)
SOLID_ANGLE_UNIT()
);
#1377=(
CONVERSION_BASED_UNIT('DEGREE',#1379)
NAMED_UNIT(#1378)
PLANE_ANGLE_UNIT()
);
#1378=DIMENSIONAL_EXPONENTS(0.,0.,0.,0.,0.,0.,0.);
#1379=PLANE_ANGLE_MEASURE_WITH_UNIT(PLANE_ANGLE_MEASURE(0.0174532925),#1380);
#1380=(
NAMED_UNIT(*)
PLANE_ANGLE_UNIT()
SI_UNIT($,.RADIAN.)
);
#1381=(
LENGTH_UNIT()
NAMED_UNIT(*)
SI_UNIT(.MILLI.,.METRE.)
);
ENDSEC;
END-ISO-10303-21;
