ISO-10303-21;
HEADER;
/* Generated by software containing ST-Developer
 * from STEP Tools, Inc. (www.steptools.com) 
 */
/* OPTION: using custom schema-name function */

FILE_DESCRIPTION(
/* description */ (''),
/* implementation_level */ '2;1');

FILE_NAME(
/* name */ 'featured_part_11354.stp',
/* time_stamp */ '2026-07-12T17:31:04-04:00',
/* author */ (''),
/* organization */ (''),
/* preprocessor_version */ 'ST-DEVELOPER v20.1',
/* originating_system */ 'SIEMENS PLM Software NX2512.6002',
/* authorisation */ '');

FILE_SCHEMA (('AUTOMOTIVE_DESIGN { 1 0 10303 214 3 1 1 1 }'));
ENDSEC;

DATA;
#10=SHAPE_REPRESENTATION_RELATIONSHIP('None',
'relationship between featured_part_11354-None and featured_part_11354
-None',#22,#11);
#11=ADVANCED_BREP_SHAPE_REPRESENTATION('featured_part_11354-None',(#32),
#601);
#12=SHAPE_DEFINITION_REPRESENTATION(#13,#22);
#13=PRODUCT_DEFINITION_SHAPE('','',#14);
#14=PRODUCT_DEFINITION(' ','',#16,#15);
#15=PRODUCT_DEFINITION_CONTEXT('part definition',#21,'design');
#16=PRODUCT_DEFINITION_FORMATION_WITH_SPECIFIED_SOURCE(' ',' ',#18,
 .NOT_KNOWN.);
#17=PRODUCT_RELATED_PRODUCT_CATEGORY('part','',(#18));
#18=PRODUCT('featured_part_11354','featured_part_11354',' ',(#19));
#19=PRODUCT_CONTEXT(' ',#21,'mechanical');
#20=APPLICATION_PROTOCOL_DEFINITION('international standard',
'automotive_design',2010,#21);
#21=APPLICATION_CONTEXT(
'core data for automotive mechanical design processes');
#22=SHAPE_REPRESENTATION('featured_part_11354-None',(#376),#601);
#23=PRESENTATION_LAYER_ASSIGNMENT('1','Layer 1',(#32));
#24=STYLED_ITEM('',(#25),#32);
#25=PRESENTATION_STYLE_ASSIGNMENT((#26));
#26=SURFACE_STYLE_USAGE(.BOTH.,#27);
#27=SURFACE_SIDE_STYLE('',(#28));
#28=SURFACE_STYLE_FILL_AREA(#29);
#29=FILL_AREA_STYLE('',(#30));
#30=FILL_AREA_STYLE_COLOUR('',#31);
#31=COLOUR_RGB('medium steel',0.611764705882353,0.658823529411765,0.670588235294118);
#32=MANIFOLD_SOLID_BREP('',#33);
#33=CLOSED_SHELL('',(#53,#54,#55,#56,#57,#58,#59,#60,#61,#62,#63,#64,#65,
#66,#67,#68,#69,#70,#71,#72));
#34=CYLINDRICAL_SURFACE('',#397,3.5);
#35=CYLINDRICAL_SURFACE('',#398,3.5);
#36=CYLINDRICAL_SURFACE('',#401,9.55);
#37=CYLINDRICAL_SURFACE('',#404,9.55);
#38=FACE_BOUND('',#107,.T.);
#39=FACE_BOUND('',#108,.T.);
#40=FACE_BOUND('',#109,.T.);
#41=FACE_BOUND('',#125,.T.);
#42=FACE_BOUND('',#126,.T.);
#43=FACE_BOUND('',#128,.T.);
#44=FACE_BOUND('',#129,.T.);
#45=CIRCLE('',#378,9.55);
#46=CIRCLE('',#379,9.55);
#47=CIRCLE('',#380,3.5);
#48=CIRCLE('',#381,3.5);
#49=CIRCLE('',#393,3.5);
#50=CIRCLE('',#394,3.5);
#51=CIRCLE('',#399,9.55);
#52=CIRCLE('',#402,9.55);
#53=ADVANCED_FACE('',(#89),#73,.F.);
#54=ADVANCED_FACE('',(#38,#39,#40),#74,.T.);
#55=ADVANCED_FACE('',(#90),#75,.T.);
#56=ADVANCED_FACE('',(#91),#76,.T.);
#57=ADVANCED_FACE('',(#92),#77,.T.);
#58=ADVANCED_FACE('',(#93),#78,.T.);
#59=ADVANCED_FACE('',(#94),#79,.T.);
#60=ADVANCED_FACE('',(#95),#80,.F.);
#61=ADVANCED_FACE('',(#96),#81,.F.);
#62=ADVANCED_FACE('',(#97),#82,.F.);
#63=ADVANCED_FACE('',(#98),#83,.F.);
#64=ADVANCED_FACE('',(#99),#84,.F.);
#65=ADVANCED_FACE('',(#100),#85,.F.);
#66=ADVANCED_FACE('',(#101),#86,.F.);
#67=ADVANCED_FACE('',(#102),#34,.F.);
#68=ADVANCED_FACE('',(#103),#35,.F.);
#69=ADVANCED_FACE('',(#104),#87,.F.);
#70=ADVANCED_FACE('',(#41,#42),#36,.F.);
#71=ADVANCED_FACE('',(#105),#88,.F.);
#72=ADVANCED_FACE('',(#43,#44),#37,.F.);
#73=PLANE('',#377);
#74=PLANE('',#382);
#75=PLANE('',#383);
#76=PLANE('',#384);
#77=PLANE('',#385);
#78=PLANE('',#386);
#79=PLANE('',#387);
#80=PLANE('',#388);
#81=PLANE('',#389);
#82=PLANE('',#390);
#83=PLANE('',#391);
#84=PLANE('',#392);
#85=PLANE('',#395);
#86=PLANE('',#396);
#87=PLANE('',#400);
#88=PLANE('',#403);
#89=FACE_OUTER_BOUND('',#106,.T.);
#90=FACE_OUTER_BOUND('',#110,.T.);
#91=FACE_OUTER_BOUND('',#111,.T.);
#92=FACE_OUTER_BOUND('',#112,.T.);
#93=FACE_OUTER_BOUND('',#113,.T.);
#94=FACE_OUTER_BOUND('',#114,.T.);
#95=FACE_OUTER_BOUND('',#115,.T.);
#96=FACE_OUTER_BOUND('',#116,.T.);
#97=FACE_OUTER_BOUND('',#117,.T.);
#98=FACE_OUTER_BOUND('',#118,.T.);
#99=FACE_OUTER_BOUND('',#119,.T.);
#100=FACE_OUTER_BOUND('',#120,.T.);
#101=FACE_OUTER_BOUND('',#121,.T.);
#102=FACE_OUTER_BOUND('',#122,.T.);
#103=FACE_OUTER_BOUND('',#123,.T.);
#104=FACE_OUTER_BOUND('',#124,.T.);
#105=FACE_OUTER_BOUND('',#127,.T.);
#106=EDGE_LOOP('',(#130,#131,#132,#133));
#107=EDGE_LOOP('',(#134));
#108=EDGE_LOOP('',(#135));
#109=EDGE_LOOP('',(#136,#137,#138,#139,#140,#141,#142,#143,#144,#145));
#110=EDGE_LOOP('',(#146,#147,#148,#149));
#111=EDGE_LOOP('',(#150,#151,#152,#153,#154,#155));
#112=EDGE_LOOP('',(#156,#157,#158,#159,#160,#161,#162,#163));
#113=EDGE_LOOP('',(#164,#165,#166,#167));
#114=EDGE_LOOP('',(#168,#169,#170,#171,#172,#173));
#115=EDGE_LOOP('',(#174,#175,#176,#177,#178));
#116=EDGE_LOOP('',(#179,#180,#181,#182));
#117=EDGE_LOOP('',(#183,#184,#185,#186,#187));
#118=EDGE_LOOP('',(#188,#189,#190,#191));
#119=EDGE_LOOP('',(#192,#193,#194,#195,#196));
#120=EDGE_LOOP('',(#197,#198,#199,#200,#201,#202));
#121=EDGE_LOOP('',(#203,#204,#205,#206,#207));
#122=EDGE_LOOP('',(#208,#209,#210,#211));
#123=EDGE_LOOP('',(#212,#213,#214,#215));
#124=EDGE_LOOP('',(#216));
#125=EDGE_LOOP('',(#217));
#126=EDGE_LOOP('',(#218));
#127=EDGE_LOOP('',(#219));
#128=EDGE_LOOP('',(#220));
#129=EDGE_LOOP('',(#221));
#130=ORIENTED_EDGE('',*,*,#254,.F.);
#131=ORIENTED_EDGE('',*,*,#255,.F.);
#132=ORIENTED_EDGE('',*,*,#256,.F.);
#133=ORIENTED_EDGE('',*,*,#257,.F.);
#134=ORIENTED_EDGE('',*,*,#258,.F.);
#135=ORIENTED_EDGE('',*,*,#259,.F.);
#136=ORIENTED_EDGE('',*,*,#260,.F.);
#137=ORIENTED_EDGE('',*,*,#257,.T.);
#138=ORIENTED_EDGE('',*,*,#261,.F.);
#139=ORIENTED_EDGE('',*,*,#262,.T.);
#140=ORIENTED_EDGE('',*,*,#263,.T.);
#141=ORIENTED_EDGE('',*,*,#264,.T.);
#142=ORIENTED_EDGE('',*,*,#265,.F.);
#143=ORIENTED_EDGE('',*,*,#266,.T.);
#144=ORIENTED_EDGE('',*,*,#267,.F.);
#145=ORIENTED_EDGE('',*,*,#268,.T.);
#146=ORIENTED_EDGE('',*,*,#269,.T.);
#147=ORIENTED_EDGE('',*,*,#270,.T.);
#148=ORIENTED_EDGE('',*,*,#271,.F.);
#149=ORIENTED_EDGE('',*,*,#272,.T.);
#150=ORIENTED_EDGE('',*,*,#271,.T.);
#151=ORIENTED_EDGE('',*,*,#273,.T.);
#152=ORIENTED_EDGE('',*,*,#261,.T.);
#153=ORIENTED_EDGE('',*,*,#256,.T.);
#154=ORIENTED_EDGE('',*,*,#274,.F.);
#155=ORIENTED_EDGE('',*,*,#275,.T.);
#156=ORIENTED_EDGE('',*,*,#276,.F.);
#157=ORIENTED_EDGE('',*,*,#277,.F.);
#158=ORIENTED_EDGE('',*,*,#278,.T.);
#159=ORIENTED_EDGE('',*,*,#279,.T.);
#160=ORIENTED_EDGE('',*,*,#280,.F.);
#161=ORIENTED_EDGE('',*,*,#281,.T.);
#162=ORIENTED_EDGE('',*,*,#274,.T.);
#163=ORIENTED_EDGE('',*,*,#255,.T.);
#164=ORIENTED_EDGE('',*,*,#282,.F.);
#165=ORIENTED_EDGE('',*,*,#272,.F.);
#166=ORIENTED_EDGE('',*,*,#275,.F.);
#167=ORIENTED_EDGE('',*,*,#281,.F.);
#168=ORIENTED_EDGE('',*,*,#283,.T.);
#169=ORIENTED_EDGE('',*,*,#284,.T.);
#170=ORIENTED_EDGE('',*,*,#269,.F.);
#171=ORIENTED_EDGE('',*,*,#282,.T.);
#172=ORIENTED_EDGE('',*,*,#280,.T.);
#173=ORIENTED_EDGE('',*,*,#285,.T.);
#174=ORIENTED_EDGE('',*,*,#286,.F.);
#175=ORIENTED_EDGE('',*,*,#264,.F.);
#176=ORIENTED_EDGE('',*,*,#287,.T.);
#177=ORIENTED_EDGE('',*,*,#285,.F.);
#178=ORIENTED_EDGE('',*,*,#279,.F.);
#179=ORIENTED_EDGE('',*,*,#263,.F.);
#180=ORIENTED_EDGE('',*,*,#288,.T.);
#181=ORIENTED_EDGE('',*,*,#283,.F.);
#182=ORIENTED_EDGE('',*,*,#287,.F.);
#183=ORIENTED_EDGE('',*,*,#288,.F.);
#184=ORIENTED_EDGE('',*,*,#262,.F.);
#185=ORIENTED_EDGE('',*,*,#273,.F.);
#186=ORIENTED_EDGE('',*,*,#270,.F.);
#187=ORIENTED_EDGE('',*,*,#284,.F.);
#188=ORIENTED_EDGE('',*,*,#267,.T.);
#189=ORIENTED_EDGE('',*,*,#289,.T.);
#190=ORIENTED_EDGE('',*,*,#290,.T.);
#191=ORIENTED_EDGE('',*,*,#291,.T.);
#192=ORIENTED_EDGE('',*,*,#260,.T.);
#193=ORIENTED_EDGE('',*,*,#292,.T.);
#194=ORIENTED_EDGE('',*,*,#293,.T.);
#195=ORIENTED_EDGE('',*,*,#276,.T.);
#196=ORIENTED_EDGE('',*,*,#254,.T.);
#197=ORIENTED_EDGE('',*,*,#290,.F.);
#198=ORIENTED_EDGE('',*,*,#294,.T.);
#199=ORIENTED_EDGE('',*,*,#295,.F.);
#200=ORIENTED_EDGE('',*,*,#277,.T.);
#201=ORIENTED_EDGE('',*,*,#293,.F.);
#202=ORIENTED_EDGE('',*,*,#296,.T.);
#203=ORIENTED_EDGE('',*,*,#295,.T.);
#204=ORIENTED_EDGE('',*,*,#297,.T.);
#205=ORIENTED_EDGE('',*,*,#265,.T.);
#206=ORIENTED_EDGE('',*,*,#286,.T.);
#207=ORIENTED_EDGE('',*,*,#278,.F.);
#208=ORIENTED_EDGE('',*,*,#266,.F.);
#209=ORIENTED_EDGE('',*,*,#297,.F.);
#210=ORIENTED_EDGE('',*,*,#294,.F.);
#211=ORIENTED_EDGE('',*,*,#289,.F.);
#212=ORIENTED_EDGE('',*,*,#268,.F.);
#213=ORIENTED_EDGE('',*,*,#291,.F.);
#214=ORIENTED_EDGE('',*,*,#296,.F.);
#215=ORIENTED_EDGE('',*,*,#292,.F.);
#216=ORIENTED_EDGE('',*,*,#298,.F.);
#217=ORIENTED_EDGE('',*,*,#259,.T.);
#218=ORIENTED_EDGE('',*,*,#298,.T.);
#219=ORIENTED_EDGE('',*,*,#299,.F.);
#220=ORIENTED_EDGE('',*,*,#258,.T.);
#221=ORIENTED_EDGE('',*,*,#299,.T.);
#222=VERTEX_POINT('',#503);
#223=VERTEX_POINT('',#504);
#224=VERTEX_POINT('',#506);
#225=VERTEX_POINT('',#508);
#226=VERTEX_POINT('',#512);
#227=VERTEX_POINT('',#514);
#228=VERTEX_POINT('',#516);
#229=VERTEX_POINT('',#518);
#230=VERTEX_POINT('',#520);
#231=VERTEX_POINT('',#522);
#232=VERTEX_POINT('',#524);
#233=VERTEX_POINT('',#526);
#234=VERTEX_POINT('',#528);
#235=VERTEX_POINT('',#530);
#236=VERTEX_POINT('',#534);
#237=VERTEX_POINT('',#535);
#238=VERTEX_POINT('',#537);
#239=VERTEX_POINT('',#539);
#240=VERTEX_POINT('',#544);
#241=VERTEX_POINT('',#548);
#242=VERTEX_POINT('',#550);
#243=VERTEX_POINT('',#552);
#244=VERTEX_POINT('',#554);
#245=VERTEX_POINT('',#556);
#246=VERTEX_POINT('',#562);
#247=VERTEX_POINT('',#563);
#248=VERTEX_POINT('',#574);
#249=VERTEX_POINT('',#576);
#250=VERTEX_POINT('',#580);
#251=VERTEX_POINT('',#584);
#252=VERTEX_POINT('',#593);
#253=VERTEX_POINT('',#597);
#254=EDGE_CURVE('',#222,#223,#300,.T.);
#255=EDGE_CURVE('',#224,#222,#301,.T.);
#256=EDGE_CURVE('',#225,#224,#302,.T.);
#257=EDGE_CURVE('',#223,#225,#303,.T.);
#258=EDGE_CURVE('',#226,#226,#45,.T.);
#259=EDGE_CURVE('',#227,#227,#46,.T.);
#260=EDGE_CURVE('',#223,#228,#304,.T.);
#261=EDGE_CURVE('',#229,#225,#305,.T.);
#262=EDGE_CURVE('',#229,#230,#306,.T.);
#263=EDGE_CURVE('',#230,#231,#307,.T.);
#264=EDGE_CURVE('',#231,#232,#308,.T.);
#265=EDGE_CURVE('',#233,#232,#309,.T.);
#266=EDGE_CURVE('',#233,#234,#47,.T.);
#267=EDGE_CURVE('',#235,#234,#310,.T.);
#268=EDGE_CURVE('',#235,#228,#48,.T.);
#269=EDGE_CURVE('',#236,#237,#311,.T.);
#270=EDGE_CURVE('',#237,#238,#312,.T.);
#271=EDGE_CURVE('',#239,#238,#313,.T.);
#272=EDGE_CURVE('',#239,#236,#314,.T.);
#273=EDGE_CURVE('',#238,#229,#315,.T.);
#274=EDGE_CURVE('',#240,#224,#316,.T.);
#275=EDGE_CURVE('',#240,#239,#317,.T.);
#276=EDGE_CURVE('',#241,#222,#318,.T.);
#277=EDGE_CURVE('',#242,#241,#319,.T.);
#278=EDGE_CURVE('',#242,#243,#320,.T.);
#279=EDGE_CURVE('',#243,#244,#321,.T.);
#280=EDGE_CURVE('',#245,#244,#322,.T.);
#281=EDGE_CURVE('',#245,#240,#323,.T.);
#282=EDGE_CURVE('',#236,#245,#324,.T.);
#283=EDGE_CURVE('',#246,#247,#325,.T.);
#284=EDGE_CURVE('',#247,#237,#326,.T.);
#285=EDGE_CURVE('',#244,#246,#327,.T.);
#286=EDGE_CURVE('',#232,#243,#328,.T.);
#287=EDGE_CURVE('',#231,#246,#329,.T.);
#288=EDGE_CURVE('',#230,#247,#330,.T.);
#289=EDGE_CURVE('',#234,#248,#331,.T.);
#290=EDGE_CURVE('',#248,#249,#332,.T.);
#291=EDGE_CURVE('',#249,#235,#333,.T.);
#292=EDGE_CURVE('',#228,#250,#334,.T.);
#293=EDGE_CURVE('',#250,#241,#335,.T.);
#294=EDGE_CURVE('',#248,#251,#49,.T.);
#295=EDGE_CURVE('',#242,#251,#336,.T.);
#296=EDGE_CURVE('',#250,#249,#50,.T.);
#297=EDGE_CURVE('',#251,#233,#337,.T.);
#298=EDGE_CURVE('',#252,#252,#51,.T.);
#299=EDGE_CURVE('',#253,#253,#52,.T.);
#300=LINE('',#502,#338);
#301=LINE('',#505,#339);
#302=LINE('',#507,#340);
#303=LINE('',#509,#341);
#304=LINE('',#515,#342);
#305=LINE('',#517,#343);
#306=LINE('',#519,#344);
#307=LINE('',#521,#345);
#308=LINE('',#523,#346);
#309=LINE('',#525,#347);
#310=LINE('',#529,#348);
#311=LINE('',#533,#349);
#312=LINE('',#536,#350);
#313=LINE('',#538,#351);
#314=LINE('',#540,#352);
#315=LINE('',#542,#353);
#316=LINE('',#543,#354);
#317=LINE('',#545,#355);
#318=LINE('',#547,#356);
#319=LINE('',#549,#357);
#320=LINE('',#551,#358);
#321=LINE('',#553,#359);
#322=LINE('',#555,#360);
#323=LINE('',#557,#361);
#324=LINE('',#559,#362);
#325=LINE('',#561,#363);
#326=LINE('',#564,#364);
#327=LINE('',#565,#365);
#328=LINE('',#567,#366);
#329=LINE('',#568,#367);
#330=LINE('',#570,#368);
#331=LINE('',#573,#369);
#332=LINE('',#575,#370);
#333=LINE('',#577,#371);
#334=LINE('',#579,#372);
#335=LINE('',#581,#373);
#336=LINE('',#585,#374);
#337=LINE('',#588,#375);
#338=VECTOR('',#407,1.);
#339=VECTOR('',#408,1.);
#340=VECTOR('',#409,1.);
#341=VECTOR('',#410,1.);
#342=VECTOR('',#417,1.);
#343=VECTOR('',#418,1.);
#344=VECTOR('',#419,1.);
#345=VECTOR('',#420,1.);
#346=VECTOR('',#421,1.);
#347=VECTOR('',#422,1.);
#348=VECTOR('',#425,1.);
#349=VECTOR('',#430,1.);
#350=VECTOR('',#431,1.);
#351=VECTOR('',#432,1.);
#352=VECTOR('',#433,1.);
#353=VECTOR('',#436,1.);
#354=VECTOR('',#437,1.);
#355=VECTOR('',#438,1.);
#356=VECTOR('',#441,1.);
#357=VECTOR('',#442,1.);
#358=VECTOR('',#443,1.);
#359=VECTOR('',#444,1.);
#360=VECTOR('',#445,1.);
#361=VECTOR('',#446,1.);
#362=VECTOR('',#449,1.);
#363=VECTOR('',#452,1.);
#364=VECTOR('',#453,1.);
#365=VECTOR('',#454,1.);
#366=VECTOR('',#457,1.);
#367=VECTOR('',#458,1.);
#368=VECTOR('',#461,1.);
#369=VECTOR('',#466,1.);
#370=VECTOR('',#467,1.);
#371=VECTOR('',#468,1.);
#372=VECTOR('',#471,1.);
#373=VECTOR('',#472,1.);
#374=VECTOR('',#477,1.);
#375=VECTOR('',#482,1.);
#376=AXIS2_PLACEMENT_3D('',#501,#405,#406);
#377=AXIS2_PLACEMENT_3D('',#510,#411,#412);
#378=AXIS2_PLACEMENT_3D('',#511,#413,#414);
#379=AXIS2_PLACEMENT_3D('',#513,#415,#416);
#380=AXIS2_PLACEMENT_3D('',#527,#423,#424);
#381=AXIS2_PLACEMENT_3D('',#531,#426,#427);
#382=AXIS2_PLACEMENT_3D('',#532,#428,#429);
#383=AXIS2_PLACEMENT_3D('',#541,#434,#435);
#384=AXIS2_PLACEMENT_3D('',#546,#439,#440);
#385=AXIS2_PLACEMENT_3D('',#558,#447,#448);
#386=AXIS2_PLACEMENT_3D('',#560,#450,#451);
#387=AXIS2_PLACEMENT_3D('',#566,#455,#456);
#388=AXIS2_PLACEMENT_3D('',#569,#459,#460);
#389=AXIS2_PLACEMENT_3D('',#571,#462,#463);
#390=AXIS2_PLACEMENT_3D('',#572,#464,#465);
#391=AXIS2_PLACEMENT_3D('',#578,#469,#470);
#392=AXIS2_PLACEMENT_3D('',#582,#473,#474);
#393=AXIS2_PLACEMENT_3D('',#583,#475,#476);
#394=AXIS2_PLACEMENT_3D('',#586,#478,#479);
#395=AXIS2_PLACEMENT_3D('',#587,#480,#481);
#396=AXIS2_PLACEMENT_3D('',#589,#483,#484);
#397=AXIS2_PLACEMENT_3D('',#590,#485,#486);
#398=AXIS2_PLACEMENT_3D('',#591,#487,#488);
#399=AXIS2_PLACEMENT_3D('',#592,#489,#490);
#400=AXIS2_PLACEMENT_3D('',#594,#491,#492);
#401=AXIS2_PLACEMENT_3D('',#595,#493,#494);
#402=AXIS2_PLACEMENT_3D('',#596,#495,#496);
#403=AXIS2_PLACEMENT_3D('',#598,#497,#498);
#404=AXIS2_PLACEMENT_3D('',#599,#499,#500);
#405=DIRECTION('',(0.,0.,1.));
#406=DIRECTION('',(1.,0.,0.));
#407=DIRECTION('',(0.,-0.707106781186548,0.707106781186548));
#408=DIRECTION('',(1.,0.,0.));
#409=DIRECTION('',(0.,0.707106781186548,-0.707106781186548));
#410=DIRECTION('',(-1.,0.,0.));
#411=DIRECTION('',(0.,-0.707106781186547,-0.707106781186547));
#412=DIRECTION('',(1.,0.,0.));
#413=DIRECTION('',(0.,0.,1.));
#414=DIRECTION('',(1.,0.,0.));
#415=DIRECTION('',(0.,0.,1.));
#416=DIRECTION('',(1.,0.,0.));
#417=DIRECTION('',(0.,-1.,0.));
#418=DIRECTION('',(0.,1.,0.));
#419=DIRECTION('',(1.,0.,0.));
#420=DIRECTION('',(0.,1.,0.));
#421=DIRECTION('',(-1.,0.,0.));
#422=DIRECTION('',(0.,1.,0.));
#423=DIRECTION('',(0.,0.,-1.));
#424=DIRECTION('',(1.,0.,0.));
#425=DIRECTION('',(1.,0.,0.));
#426=DIRECTION('',(0.,0.,-1.));
#427=DIRECTION('',(1.,0.,0.));
#428=DIRECTION('',(0.,0.,1.));
#429=DIRECTION('',(1.,0.,0.));
#430=DIRECTION('',(0.,0.,1.));
#431=DIRECTION('',(-1.,0.,0.));
#432=DIRECTION('',(0.,0.,1.));
#433=DIRECTION('',(1.,0.,0.));
#434=DIRECTION('',(0.,-1.,0.));
#435=DIRECTION('',(0.,0.,-1.));
#436=DIRECTION('',(0.,0.707106781186548,0.707106781186548));
#437=DIRECTION('',(0.,0.,1.));
#438=DIRECTION('',(0.,-1.,0.));
#439=DIRECTION('',(-1.,0.,0.));
#440=DIRECTION('',(0.,0.,1.));
#441=DIRECTION('',(0.,0.,1.));
#442=DIRECTION('',(-1.,0.,0.));
#443=DIRECTION('',(0.,0.,1.));
#444=DIRECTION('',(1.,0.,0.));
#445=DIRECTION('',(0.,0.,1.));
#446=DIRECTION('',(-1.,0.,0.));
#447=DIRECTION('',(0.,1.,0.));
#448=DIRECTION('',(0.,0.,1.));
#449=DIRECTION('',(0.,1.,0.));
#450=DIRECTION('',(0.,0.,-1.));
#451=DIRECTION('',(-1.,0.,0.));
#452=DIRECTION('',(0.,-1.,0.));
#453=DIRECTION('',(0.,-0.707106781186548,-0.707106781186548));
#454=DIRECTION('',(0.,-0.707106781186548,0.707106781186548));
#455=DIRECTION('',(1.,0.,0.));
#456=DIRECTION('',(0.,0.,-1.));
#457=DIRECTION('',(0.,0.707106781186548,-0.707106781186548));
#458=DIRECTION('',(0.577350269189626,0.577350269189626,-0.577350269189626));
#459=DIRECTION('',(0.,-0.707106781186547,-0.707106781186547));
#460=DIRECTION('',(1.,0.,0.));
#461=DIRECTION('',(0.577350269189626,-0.577350269189626,-0.577350269189626));
#462=DIRECTION('',(-0.707106781186548,0.,-0.707106781186548));
#463=DIRECTION('',(0.,-1.,0.));
#464=DIRECTION('',(0.,0.707106781186548,-0.707106781186548));
#465=DIRECTION('',(-1.,0.,0.));
#466=DIRECTION('',(0.,0.,-1.));
#467=DIRECTION('',(-1.,0.,0.));
#468=DIRECTION('',(0.,0.,1.));
#469=DIRECTION('',(0.,-1.,0.));
#470=DIRECTION('',(0.,0.,-1.));
#471=DIRECTION('',(0.,0.,-1.));
#472=DIRECTION('',(0.,1.,0.));
#473=DIRECTION('',(-1.,0.,0.));
#474=DIRECTION('',(0.,0.,1.));
#475=DIRECTION('',(0.,0.,1.));
#476=DIRECTION('',(-1.,0.,0.));
#477=DIRECTION('',(0.,-1.,0.));
#478=DIRECTION('',(0.,0.,1.));
#479=DIRECTION('',(-1.,0.,0.));
#480=DIRECTION('',(0.,0.,-1.));
#481=DIRECTION('',(-1.,0.,0.));
#482=DIRECTION('',(0.,0.,1.));
#483=DIRECTION('',(1.,0.,0.));
#484=DIRECTION('',(0.,0.,-1.));
#485=DIRECTION('',(0.,0.,1.));
#486=DIRECTION('',(1.,0.,0.));
#487=DIRECTION('',(0.,0.,1.));
#488=DIRECTION('',(1.,0.,0.));
#489=DIRECTION('',(0.,0.,-1.));
#490=DIRECTION('',(1.,0.,0.));
#491=DIRECTION('',(0.,0.,-1.));
#492=DIRECTION('',(-1.,0.,0.));
#493=DIRECTION('',(0.,0.,-1.));
#494=DIRECTION('',(1.,0.,0.));
#495=DIRECTION('',(0.,0.,-1.));
#496=DIRECTION('',(1.,0.,0.));
#497=DIRECTION('',(0.,0.,-1.));
#498=DIRECTION('',(-1.,0.,0.));
#499=DIRECTION('',(0.,0.,-1.));
#500=DIRECTION('',(1.,0.,0.));
#501=CARTESIAN_POINT('',(0.,0.,0.));
#502=CARTESIAN_POINT('',(12.9,271.6,106.8));
#503=CARTESIAN_POINT('',(12.9,271.6,106.8));
#504=CARTESIAN_POINT('',(12.9,249.7,128.7));
#505=CARTESIAN_POINT('',(164.15,271.6,106.8));
#506=CARTESIAN_POINT('',(0.,271.6,106.8));
#507=CARTESIAN_POINT('',(0.,257.1,121.3));
#508=CARTESIAN_POINT('',(0.,249.7,128.7));
#509=CARTESIAN_POINT('',(164.15,249.7,128.7));
#510=CARTESIAN_POINT('',(164.15,271.6,106.8));
#511=CARTESIAN_POINT('',(164.2,201.7,128.7));
#512=CARTESIAN_POINT('',(173.75,201.7,128.7));
#513=CARTESIAN_POINT('',(164.2,69.9,128.7));
#514=CARTESIAN_POINT('',(173.75,69.9,128.7));
#515=CARTESIAN_POINT('',(12.9,135.8,128.7));
#516=CARTESIAN_POINT('',(12.9,218.9,128.7));
#517=CARTESIAN_POINT('',(0.,135.8,128.7));
#518=CARTESIAN_POINT('',(0.,24.5,128.7));
#519=CARTESIAN_POINT('',(164.15,24.5,128.7));
#520=CARTESIAN_POINT('',(321.7,24.5,128.7));
#521=CARTESIAN_POINT('',(321.7,135.8,128.7));
#522=CARTESIAN_POINT('',(321.7,249.7,128.7));
#523=CARTESIAN_POINT('',(164.15,249.7,128.7));
#524=CARTESIAN_POINT('',(97.3,249.7,128.7));
#525=CARTESIAN_POINT('',(97.3,135.8,128.7));
#526=CARTESIAN_POINT('',(97.3,218.9,128.7));
#527=CARTESIAN_POINT('',(93.8,218.9,128.7));
#528=CARTESIAN_POINT('',(93.8,215.4,128.7));
#529=CARTESIAN_POINT('',(164.15,215.4,128.7));
#530=CARTESIAN_POINT('',(16.4,215.4,128.7));
#531=CARTESIAN_POINT('',(16.4,218.9,128.7));
#532=CARTESIAN_POINT('',(164.15,135.8,128.7));
#533=CARTESIAN_POINT('',(328.3,0.,0.));
#534=CARTESIAN_POINT('',(328.3,0.,0.));
#535=CARTESIAN_POINT('',(328.3,0.,104.2));
#536=CARTESIAN_POINT('',(164.15,0.,104.2));
#537=CARTESIAN_POINT('',(0.,0.,104.2));
#538=CARTESIAN_POINT('',(0.,0.,0.));
#539=CARTESIAN_POINT('',(0.,0.,0.));
#540=CARTESIAN_POINT('',(164.15,0.,0.));
#541=CARTESIAN_POINT('',(164.15,0.,0.));
#542=CARTESIAN_POINT('',(0.,15.8,120.));
#543=CARTESIAN_POINT('',(0.,271.6,0.));
#544=CARTESIAN_POINT('',(0.,271.6,0.));
#545=CARTESIAN_POINT('',(0.,135.8,0.));
#546=CARTESIAN_POINT('',(0.,135.8,0.));
#547=CARTESIAN_POINT('',(12.9,271.6,106.3));
#548=CARTESIAN_POINT('',(12.9,271.6,106.3));
#549=CARTESIAN_POINT('',(55.1,271.6,106.3));
#550=CARTESIAN_POINT('',(97.3,271.6,106.3));
#551=CARTESIAN_POINT('',(97.3,271.6,106.3));
#552=CARTESIAN_POINT('',(97.3,271.6,106.8));
#553=CARTESIAN_POINT('',(164.15,271.6,106.8));
#554=CARTESIAN_POINT('',(328.3,271.6,106.8));
#555=CARTESIAN_POINT('',(328.3,271.6,0.));
#556=CARTESIAN_POINT('',(328.3,271.6,0.));
#557=CARTESIAN_POINT('',(164.15,271.6,0.));
#558=CARTESIAN_POINT('',(164.15,271.6,0.));
#559=CARTESIAN_POINT('',(328.3,135.8,0.));
#560=CARTESIAN_POINT('',(164.15,135.8,0.));
#561=CARTESIAN_POINT('',(328.3,135.8,122.1));
#562=CARTESIAN_POINT('',(328.3,256.3,122.1));
#563=CARTESIAN_POINT('',(328.3,17.9,122.1));
#564=CARTESIAN_POINT('',(328.3,15.8,120.));
#565=CARTESIAN_POINT('',(328.3,257.1,121.3));
#566=CARTESIAN_POINT('',(328.3,135.8,0.));
#567=CARTESIAN_POINT('',(97.3,271.6,106.8));
#568=CARTESIAN_POINT('',(283.783333333333,211.783333333333,166.616666666667));
#569=CARTESIAN_POINT('',(164.15,271.6,106.8));
#570=CARTESIAN_POINT('',(289.,57.2,161.4));
#571=CARTESIAN_POINT('',(328.3,135.8,122.1));
#572=CARTESIAN_POINT('',(164.15,0.,104.2));
#573=CARTESIAN_POINT('',(93.8,215.4,106.3));
#574=CARTESIAN_POINT('',(93.8,215.4,106.3));
#575=CARTESIAN_POINT('',(55.1,215.4,106.3));
#576=CARTESIAN_POINT('',(16.4,215.4,106.3));
#577=CARTESIAN_POINT('',(16.4,215.4,128.7));
#578=CARTESIAN_POINT('',(55.1,215.4,106.3));
#579=CARTESIAN_POINT('',(12.9,218.9,106.3));
#580=CARTESIAN_POINT('',(12.9,218.9,106.3));
#581=CARTESIAN_POINT('',(12.9,243.5,106.3));
#582=CARTESIAN_POINT('',(12.9,243.5,106.3));
#583=CARTESIAN_POINT('',(93.8,218.9,106.3));
#584=CARTESIAN_POINT('',(97.3,218.9,106.3));
#585=CARTESIAN_POINT('',(97.3,243.5,106.3));
#586=CARTESIAN_POINT('',(16.4,218.9,106.3));
#587=CARTESIAN_POINT('',(55.1,243.5,106.3));
#588=CARTESIAN_POINT('',(97.3,218.9,128.7));
#589=CARTESIAN_POINT('',(97.3,243.5,106.3));
#590=CARTESIAN_POINT('',(93.8,218.9,106.3));
#591=CARTESIAN_POINT('',(16.4,218.9,106.3));
#592=CARTESIAN_POINT('',(164.2,69.9,83.2));
#593=CARTESIAN_POINT('',(173.75,69.9,83.2));
#594=CARTESIAN_POINT('',(164.2,69.9,83.2));
#595=CARTESIAN_POINT('',(164.2,69.9,128.75));
#596=CARTESIAN_POINT('',(164.2,201.7,68.2));
#597=CARTESIAN_POINT('',(173.75,201.7,68.2));
#598=CARTESIAN_POINT('',(164.2,201.7,68.2));
#599=CARTESIAN_POINT('',(164.2,201.7,128.75));
#600=MECHANICAL_DESIGN_GEOMETRIC_PRESENTATION_REPRESENTATION('',(#24),#601);
#601=(
GEOMETRIC_REPRESENTATION_CONTEXT(3)
GLOBAL_UNCERTAINTY_ASSIGNED_CONTEXT((#602))
GLOBAL_UNIT_ASSIGNED_CONTEXT((#608,#604,#603))
REPRESENTATION_CONTEXT('featured_part_11354','TOP_LEVEL_ASSEMBLY_PART')
);
#602=UNCERTAINTY_MEASURE_WITH_UNIT(LENGTH_MEASURE(2.E-5),#608,
'DISTANCE_ACCURACY_VALUE','Maximum Tolerance applied to model');
#603=(
NAMED_UNIT(*)
SI_UNIT($,.STERADIAN.)
SOLID_ANGLE_UNIT()
);
#604=(
CONVERSION_BASED_UNIT('DEGREE',#606)
NAMED_UNIT(#605)
PLANE_ANGLE_UNIT()
);
#605=DIMENSIONAL_EXPONENTS(0.,0.,0.,0.,0.,0.,0.);
#606=PLANE_ANGLE_MEASURE_WITH_UNIT(PLANE_ANGLE_MEASURE(0.0174532925),#607);
#607=(
NAMED_UNIT(*)
PLANE_ANGLE_UNIT()
SI_UNIT($,.RADIAN.)
);
#608=(
LENGTH_UNIT()
NAMED_UNIT(*)
SI_UNIT(.MILLI.,.METRE.)
);
ENDSEC;
END-ISO-10303-21;
