ISO-10303-21;
HEADER;
/* Generated by software containing ST-Developer
 * from STEP Tools, Inc. (www.steptools.com) 
 */
/* OPTION: using custom schema-name function */

FILE_DESCRIPTION(
/* description */ (''),
/* implementation_level */ '2;1');

FILE_NAME(
/* name */ 'featured_part_10504.stp',
/* time_stamp */ '2026-07-12T04:50:01-04:00',
/* author */ (''),
/* organization */ (''),
/* preprocessor_version */ 'ST-DEVELOPER v20.1',
/* originating_system */ 'SIEMENS PLM Software NX2512.6002',
/* authorisation */ '');

FILE_SCHEMA (('AUTOMOTIVE_DESIGN { 1 0 10303 214 3 1 1 1 }'));
ENDSEC;

DATA;
#10=SHAPE_REPRESENTATION_RELATIONSHIP('None',
'relationship between featured_part_10504-None and featured_part_10504
-None',#22,#11);
#11=ADVANCED_BREP_SHAPE_REPRESENTATION('featured_part_10504-None',(#32),
#519);
#12=SHAPE_DEFINITION_REPRESENTATION(#13,#22);
#13=PRODUCT_DEFINITION_SHAPE('','',#14);
#14=PRODUCT_DEFINITION(' ','',#16,#15);
#15=PRODUCT_DEFINITION_CONTEXT('part definition',#21,'design');
#16=PRODUCT_DEFINITION_FORMATION_WITH_SPECIFIED_SOURCE(' ',' ',#18,
 .NOT_KNOWN.);
#17=PRODUCT_RELATED_PRODUCT_CATEGORY('part','',(#18));
#18=PRODUCT('featured_part_10504','featured_part_10504',' ',(#19));
#19=PRODUCT_CONTEXT(' ',#21,'mechanical');
#20=APPLICATION_PROTOCOL_DEFINITION('international standard',
'automotive_design',2010,#21);
#21=APPLICATION_CONTEXT(
'core data for automotive mechanical design processes');
#22=SHAPE_REPRESENTATION('featured_part_10504-None',(#334),#519);
#23=PRESENTATION_LAYER_ASSIGNMENT('1','Layer 1',(#32));
#24=STYLED_ITEM('',(#25),#32);
#25=PRESENTATION_STYLE_ASSIGNMENT((#26));
#26=SURFACE_STYLE_USAGE(.BOTH.,#27);
#27=SURFACE_SIDE_STYLE('',(#28));
#28=SURFACE_STYLE_FILL_AREA(#29);
#29=FILL_AREA_STYLE('',(#30));
#30=FILL_AREA_STYLE_COLOUR('',#31);
#31=COLOUR_RGB('medium steel',0.611764705882353,0.658823529411765,0.670588235294118);
#32=MANIFOLD_SOLID_BREP('',#33);
#33=CLOSED_SHELL('',(#37,#38,#39,#40,#41,#42,#43,#44,#45,#46,#47,#48,#49,
#50,#51,#52));
#34=CYLINDRICAL_SURFACE('',#352,9.1);
#35=CIRCLE('',#337,9.1);
#36=CIRCLE('',#350,9.1);
#37=ADVANCED_FACE('',(#68),#53,.T.);
#38=ADVANCED_FACE('',(#69),#54,.F.);
#39=ADVANCED_FACE('',(#70),#55,.T.);
#40=ADVANCED_FACE('',(#71),#56,.T.);
#41=ADVANCED_FACE('',(#72),#57,.T.);
#42=ADVANCED_FACE('',(#73),#58,.T.);
#43=ADVANCED_FACE('',(#74),#59,.T.);
#44=ADVANCED_FACE('',(#75),#60,.T.);
#45=ADVANCED_FACE('',(#76),#61,.F.);
#46=ADVANCED_FACE('',(#77),#62,.F.);
#47=ADVANCED_FACE('',(#78),#63,.F.);
#48=ADVANCED_FACE('',(#79),#64,.F.);
#49=ADVANCED_FACE('',(#80),#65,.F.);
#50=ADVANCED_FACE('',(#81),#66,.F.);
#51=ADVANCED_FACE('',(#82),#67,.F.);
#52=ADVANCED_FACE('',(#83),#34,.F.);
#53=PLANE('',#335);
#54=PLANE('',#336);
#55=PLANE('',#338);
#56=PLANE('',#339);
#57=PLANE('',#340);
#58=PLANE('',#341);
#59=PLANE('',#342);
#60=PLANE('',#343);
#61=PLANE('',#344);
#62=PLANE('',#345);
#63=PLANE('',#346);
#64=PLANE('',#347);
#65=PLANE('',#348);
#66=PLANE('',#349);
#67=PLANE('',#351);
#68=FACE_OUTER_BOUND('',#84,.T.);
#69=FACE_OUTER_BOUND('',#85,.T.);
#70=FACE_OUTER_BOUND('',#86,.T.);
#71=FACE_OUTER_BOUND('',#87,.T.);
#72=FACE_OUTER_BOUND('',#88,.T.);
#73=FACE_OUTER_BOUND('',#89,.T.);
#74=FACE_OUTER_BOUND('',#90,.T.);
#75=FACE_OUTER_BOUND('',#91,.T.);
#76=FACE_OUTER_BOUND('',#92,.T.);
#77=FACE_OUTER_BOUND('',#93,.T.);
#78=FACE_OUTER_BOUND('',#94,.T.);
#79=FACE_OUTER_BOUND('',#95,.T.);
#80=FACE_OUTER_BOUND('',#96,.T.);
#81=FACE_OUTER_BOUND('',#97,.T.);
#82=FACE_OUTER_BOUND('',#98,.T.);
#83=FACE_OUTER_BOUND('',#99,.T.);
#84=EDGE_LOOP('',(#100,#101,#102,#103));
#85=EDGE_LOOP('',(#104,#105,#106,#107));
#86=EDGE_LOOP('',(#108,#109,#110,#111,#112,#113,#114));
#87=EDGE_LOOP('',(#115,#116,#117,#118,#119,#120,#121,#122,#123,#124));
#88=EDGE_LOOP('',(#125,#126,#127,#128,#129));
#89=EDGE_LOOP('',(#130,#131,#132,#133,#134,#135,#136,#137));
#90=EDGE_LOOP('',(#138,#139,#140,#141));
#91=EDGE_LOOP('',(#142,#143,#144,#145,#146,#147));
#92=EDGE_LOOP('',(#148,#149,#150,#151));
#93=EDGE_LOOP('',(#152,#153,#154,#155,#156));
#94=EDGE_LOOP('',(#157,#158,#159,#160));
#95=EDGE_LOOP('',(#161,#162,#163,#164,#165));
#96=EDGE_LOOP('',(#166,#167,#168,#169,#170));
#97=EDGE_LOOP('',(#171,#172,#173,#174));
#98=EDGE_LOOP('',(#175,#176,#177,#178,#179));
#99=EDGE_LOOP('',(#180,#181,#182,#183));
#100=ORIENTED_EDGE('',*,*,#212,.F.);
#101=ORIENTED_EDGE('',*,*,#213,.F.);
#102=ORIENTED_EDGE('',*,*,#214,.F.);
#103=ORIENTED_EDGE('',*,*,#215,.T.);
#104=ORIENTED_EDGE('',*,*,#216,.F.);
#105=ORIENTED_EDGE('',*,*,#215,.F.);
#106=ORIENTED_EDGE('',*,*,#217,.F.);
#107=ORIENTED_EDGE('',*,*,#218,.F.);
#108=ORIENTED_EDGE('',*,*,#219,.F.);
#109=ORIENTED_EDGE('',*,*,#220,.T.);
#110=ORIENTED_EDGE('',*,*,#221,.F.);
#111=ORIENTED_EDGE('',*,*,#222,.F.);
#112=ORIENTED_EDGE('',*,*,#223,.F.);
#113=ORIENTED_EDGE('',*,*,#224,.F.);
#114=ORIENTED_EDGE('',*,*,#225,.T.);
#115=ORIENTED_EDGE('',*,*,#226,.T.);
#116=ORIENTED_EDGE('',*,*,#227,.T.);
#117=ORIENTED_EDGE('',*,*,#228,.F.);
#118=ORIENTED_EDGE('',*,*,#229,.F.);
#119=ORIENTED_EDGE('',*,*,#230,.F.);
#120=ORIENTED_EDGE('',*,*,#218,.T.);
#121=ORIENTED_EDGE('',*,*,#231,.F.);
#122=ORIENTED_EDGE('',*,*,#232,.T.);
#123=ORIENTED_EDGE('',*,*,#233,.T.);
#124=ORIENTED_EDGE('',*,*,#234,.F.);
#125=ORIENTED_EDGE('',*,*,#231,.T.);
#126=ORIENTED_EDGE('',*,*,#217,.T.);
#127=ORIENTED_EDGE('',*,*,#214,.T.);
#128=ORIENTED_EDGE('',*,*,#235,.F.);
#129=ORIENTED_EDGE('',*,*,#236,.T.);
#130=ORIENTED_EDGE('',*,*,#237,.F.);
#131=ORIENTED_EDGE('',*,*,#238,.F.);
#132=ORIENTED_EDGE('',*,*,#239,.F.);
#133=ORIENTED_EDGE('',*,*,#223,.T.);
#134=ORIENTED_EDGE('',*,*,#240,.F.);
#135=ORIENTED_EDGE('',*,*,#241,.T.);
#136=ORIENTED_EDGE('',*,*,#235,.T.);
#137=ORIENTED_EDGE('',*,*,#213,.T.);
#138=ORIENTED_EDGE('',*,*,#242,.F.);
#139=ORIENTED_EDGE('',*,*,#232,.F.);
#140=ORIENTED_EDGE('',*,*,#236,.F.);
#141=ORIENTED_EDGE('',*,*,#241,.F.);
#142=ORIENTED_EDGE('',*,*,#243,.F.);
#143=ORIENTED_EDGE('',*,*,#244,.F.);
#144=ORIENTED_EDGE('',*,*,#233,.F.);
#145=ORIENTED_EDGE('',*,*,#242,.T.);
#146=ORIENTED_EDGE('',*,*,#240,.T.);
#147=ORIENTED_EDGE('',*,*,#222,.T.);
#148=ORIENTED_EDGE('',*,*,#245,.F.);
#149=ORIENTED_EDGE('',*,*,#225,.F.);
#150=ORIENTED_EDGE('',*,*,#246,.F.);
#151=ORIENTED_EDGE('',*,*,#227,.F.);
#152=ORIENTED_EDGE('',*,*,#237,.T.);
#153=ORIENTED_EDGE('',*,*,#212,.T.);
#154=ORIENTED_EDGE('',*,*,#216,.T.);
#155=ORIENTED_EDGE('',*,*,#230,.T.);
#156=ORIENTED_EDGE('',*,*,#247,.T.);
#157=ORIENTED_EDGE('',*,*,#229,.T.);
#158=ORIENTED_EDGE('',*,*,#248,.F.);
#159=ORIENTED_EDGE('',*,*,#238,.T.);
#160=ORIENTED_EDGE('',*,*,#247,.F.);
#161=ORIENTED_EDGE('',*,*,#239,.T.);
#162=ORIENTED_EDGE('',*,*,#248,.T.);
#163=ORIENTED_EDGE('',*,*,#228,.T.);
#164=ORIENTED_EDGE('',*,*,#246,.T.);
#165=ORIENTED_EDGE('',*,*,#224,.T.);
#166=ORIENTED_EDGE('',*,*,#249,.T.);
#167=ORIENTED_EDGE('',*,*,#250,.T.);
#168=ORIENTED_EDGE('',*,*,#219,.T.);
#169=ORIENTED_EDGE('',*,*,#245,.T.);
#170=ORIENTED_EDGE('',*,*,#226,.F.);
#171=ORIENTED_EDGE('',*,*,#221,.T.);
#172=ORIENTED_EDGE('',*,*,#251,.T.);
#173=ORIENTED_EDGE('',*,*,#252,.T.);
#174=ORIENTED_EDGE('',*,*,#243,.T.);
#175=ORIENTED_EDGE('',*,*,#252,.F.);
#176=ORIENTED_EDGE('',*,*,#253,.T.);
#177=ORIENTED_EDGE('',*,*,#249,.F.);
#178=ORIENTED_EDGE('',*,*,#234,.T.);
#179=ORIENTED_EDGE('',*,*,#244,.T.);
#180=ORIENTED_EDGE('',*,*,#220,.F.);
#181=ORIENTED_EDGE('',*,*,#250,.F.);
#182=ORIENTED_EDGE('',*,*,#253,.F.);
#183=ORIENTED_EDGE('',*,*,#251,.F.);
#184=VERTEX_POINT('',#433);
#185=VERTEX_POINT('',#434);
#186=VERTEX_POINT('',#436);
#187=VERTEX_POINT('',#438);
#188=VERTEX_POINT('',#442);
#189=VERTEX_POINT('',#444);
#190=VERTEX_POINT('',#448);
#191=VERTEX_POINT('',#449);
#192=VERTEX_POINT('',#451);
#193=VERTEX_POINT('',#453);
#194=VERTEX_POINT('',#455);
#195=VERTEX_POINT('',#457);
#196=VERTEX_POINT('',#459);
#197=VERTEX_POINT('',#463);
#198=VERTEX_POINT('',#464);
#199=VERTEX_POINT('',#466);
#200=VERTEX_POINT('',#468);
#201=VERTEX_POINT('',#470);
#202=VERTEX_POINT('',#473);
#203=VERTEX_POINT('',#475);
#204=VERTEX_POINT('',#477);
#205=VERTEX_POINT('',#481);
#206=VERTEX_POINT('',#485);
#207=VERTEX_POINT('',#487);
#208=VERTEX_POINT('',#490);
#209=VERTEX_POINT('',#496);
#210=VERTEX_POINT('',#508);
#211=VERTEX_POINT('',#512);
#212=EDGE_CURVE('',#184,#185,#254,.T.);
#213=EDGE_CURVE('',#186,#184,#255,.T.);
#214=EDGE_CURVE('',#187,#186,#256,.T.);
#215=EDGE_CURVE('',#187,#185,#257,.T.);
#216=EDGE_CURVE('',#185,#188,#258,.T.);
#217=EDGE_CURVE('',#189,#187,#259,.T.);
#218=EDGE_CURVE('',#188,#189,#260,.T.);
#219=EDGE_CURVE('',#190,#191,#261,.T.);
#220=EDGE_CURVE('',#190,#192,#35,.T.);
#221=EDGE_CURVE('',#193,#192,#262,.T.);
#222=EDGE_CURVE('',#194,#193,#263,.T.);
#223=EDGE_CURVE('',#195,#194,#264,.T.);
#224=EDGE_CURVE('',#196,#195,#265,.T.);
#225=EDGE_CURVE('',#196,#191,#266,.T.);
#226=EDGE_CURVE('',#197,#198,#267,.T.);
#227=EDGE_CURVE('',#198,#199,#268,.T.);
#228=EDGE_CURVE('',#200,#199,#269,.T.);
#229=EDGE_CURVE('',#201,#200,#270,.T.);
#230=EDGE_CURVE('',#188,#201,#271,.T.);
#231=EDGE_CURVE('',#202,#189,#272,.T.);
#232=EDGE_CURVE('',#202,#203,#273,.T.);
#233=EDGE_CURVE('',#203,#204,#274,.T.);
#234=EDGE_CURVE('',#197,#204,#275,.T.);
#235=EDGE_CURVE('',#205,#186,#276,.T.);
#236=EDGE_CURVE('',#205,#202,#277,.T.);
#237=EDGE_CURVE('',#206,#184,#278,.T.);
#238=EDGE_CURVE('',#207,#206,#279,.T.);
#239=EDGE_CURVE('',#195,#207,#280,.T.);
#240=EDGE_CURVE('',#208,#194,#281,.T.);
#241=EDGE_CURVE('',#208,#205,#282,.T.);
#242=EDGE_CURVE('',#203,#208,#283,.T.);
#243=EDGE_CURVE('',#209,#193,#284,.T.);
#244=EDGE_CURVE('',#204,#209,#285,.T.);
#245=EDGE_CURVE('',#191,#198,#286,.T.);
#246=EDGE_CURVE('',#199,#196,#287,.T.);
#247=EDGE_CURVE('',#201,#206,#288,.T.);
#248=EDGE_CURVE('',#207,#200,#289,.T.);
#249=EDGE_CURVE('',#197,#210,#290,.T.);
#250=EDGE_CURVE('',#210,#190,#291,.T.);
#251=EDGE_CURVE('',#192,#211,#292,.T.);
#252=EDGE_CURVE('',#211,#209,#293,.T.);
#253=EDGE_CURVE('',#211,#210,#36,.T.);
#254=LINE('',#432,#294);
#255=LINE('',#435,#295);
#256=LINE('',#437,#296);
#257=LINE('',#439,#297);
#258=LINE('',#441,#298);
#259=LINE('',#443,#299);
#260=LINE('',#445,#300);
#261=LINE('',#447,#301);
#262=LINE('',#452,#302);
#263=LINE('',#454,#303);
#264=LINE('',#456,#304);
#265=LINE('',#458,#305);
#266=LINE('',#460,#306);
#267=LINE('',#462,#307);
#268=LINE('',#465,#308);
#269=LINE('',#467,#309);
#270=LINE('',#469,#310);
#271=LINE('',#471,#311);
#272=LINE('',#472,#312);
#273=LINE('',#474,#313);
#274=LINE('',#476,#314);
#275=LINE('',#478,#315);
#276=LINE('',#480,#316);
#277=LINE('',#482,#317);
#278=LINE('',#484,#318);
#279=LINE('',#486,#319);
#280=LINE('',#488,#320);
#281=LINE('',#489,#321);
#282=LINE('',#491,#322);
#283=LINE('',#493,#323);
#284=LINE('',#495,#324);
#285=LINE('',#497,#325);
#286=LINE('',#499,#326);
#287=LINE('',#500,#327);
#288=LINE('',#502,#328);
#289=LINE('',#504,#329);
#290=LINE('',#507,#330);
#291=LINE('',#509,#331);
#292=LINE('',#511,#332);
#293=LINE('',#513,#333);
#294=VECTOR('',#355,1.);
#295=VECTOR('',#356,1.);
#296=VECTOR('',#357,1.);
#297=VECTOR('',#358,1.);
#298=VECTOR('',#361,1.);
#299=VECTOR('',#362,1.);
#300=VECTOR('',#363,1.);
#301=VECTOR('',#366,1.);
#302=VECTOR('',#369,1.);
#303=VECTOR('',#370,1.);
#304=VECTOR('',#371,1.);
#305=VECTOR('',#372,1.);
#306=VECTOR('',#373,1.);
#307=VECTOR('',#376,1.);
#308=VECTOR('',#377,1.);
#309=VECTOR('',#378,1.);
#310=VECTOR('',#379,1.);
#311=VECTOR('',#380,1.);
#312=VECTOR('',#381,1.);
#313=VECTOR('',#382,1.);
#314=VECTOR('',#383,1.);
#315=VECTOR('',#384,1.);
#316=VECTOR('',#387,1.);
#317=VECTOR('',#388,1.);
#318=VECTOR('',#391,1.);
#319=VECTOR('',#392,1.);
#320=VECTOR('',#393,1.);
#321=VECTOR('',#394,1.);
#322=VECTOR('',#395,1.);
#323=VECTOR('',#398,1.);
#324=VECTOR('',#401,1.);
#325=VECTOR('',#402,1.);
#326=VECTOR('',#405,1.);
#327=VECTOR('',#406,1.);
#328=VECTOR('',#409,1.);
#329=VECTOR('',#412,1.);
#330=VECTOR('',#417,1.);
#331=VECTOR('',#418,1.);
#332=VECTOR('',#421,1.);
#333=VECTOR('',#422,1.);
#334=AXIS2_PLACEMENT_3D('',#431,#353,#354);
#335=AXIS2_PLACEMENT_3D('',#440,#359,#360);
#336=AXIS2_PLACEMENT_3D('',#446,#364,#365);
#337=AXIS2_PLACEMENT_3D('',#450,#367,#368);
#338=AXIS2_PLACEMENT_3D('',#461,#374,#375);
#339=AXIS2_PLACEMENT_3D('',#479,#385,#386);
#340=AXIS2_PLACEMENT_3D('',#483,#389,#390);
#341=AXIS2_PLACEMENT_3D('',#492,#396,#397);
#342=AXIS2_PLACEMENT_3D('',#494,#399,#400);
#343=AXIS2_PLACEMENT_3D('',#498,#403,#404);
#344=AXIS2_PLACEMENT_3D('',#501,#407,#408);
#345=AXIS2_PLACEMENT_3D('',#503,#410,#411);
#346=AXIS2_PLACEMENT_3D('',#505,#413,#414);
#347=AXIS2_PLACEMENT_3D('',#506,#415,#416);
#348=AXIS2_PLACEMENT_3D('',#510,#419,#420);
#349=AXIS2_PLACEMENT_3D('',#514,#423,#424);
#350=AXIS2_PLACEMENT_3D('',#515,#425,#426);
#351=AXIS2_PLACEMENT_3D('',#516,#427,#428);
#352=AXIS2_PLACEMENT_3D('',#517,#429,#430);
#353=DIRECTION('',(0.,0.,1.));
#354=DIRECTION('',(1.,0.,0.));
#355=DIRECTION('',(0.,-1.,0.));
#356=DIRECTION('',(1.,0.,0.));
#357=DIRECTION('',(0.,1.,0.));
#358=DIRECTION('',(1.,0.,0.));
#359=DIRECTION('',(0.,0.,1.));
#360=DIRECTION('',(1.,0.,0.));
#361=DIRECTION('',(0.,-0.707106781186548,-0.707106781186547));
#362=DIRECTION('',(0.,0.707106781186548,0.707106781186547));
#363=DIRECTION('',(-1.,0.,0.));
#364=DIRECTION('',(0.,0.707106781186547,-0.707106781186548));
#365=DIRECTION('',(-1.,0.,0.));
#366=DIRECTION('',(0.,-1.,0.));
#367=DIRECTION('',(0.,0.,-1.));
#368=DIRECTION('',(1.,0.,0.));
#369=DIRECTION('',(-1.,0.,0.));
#370=DIRECTION('',(0.,-1.,0.));
#371=DIRECTION('',(1.,0.,0.));
#372=DIRECTION('',(0.,1.,0.));
#373=DIRECTION('',(1.,0.,0.));
#374=DIRECTION('',(0.,0.,1.));
#375=DIRECTION('',(1.,0.,0.));
#376=DIRECTION('',(0.,0.,1.));
#377=DIRECTION('',(-1.,0.,0.));
#378=DIRECTION('',(0.,0.,1.));
#379=DIRECTION('',(1.,0.,0.));
#380=DIRECTION('',(0.,0.,-1.));
#381=DIRECTION('',(0.,0.,1.));
#382=DIRECTION('',(1.,0.,0.));
#383=DIRECTION('',(0.,0.,1.));
#384=DIRECTION('',(1.,0.,0.));
#385=DIRECTION('',(0.,-1.,0.));
#386=DIRECTION('',(0.,0.,-1.));
#387=DIRECTION('',(0.,0.,1.));
#388=DIRECTION('',(0.,-1.,0.));
#389=DIRECTION('',(-1.,0.,0.));
#390=DIRECTION('',(0.,0.,1.));
#391=DIRECTION('',(0.,0.,1.));
#392=DIRECTION('',(-1.,0.,0.));
#393=DIRECTION('',(0.,0.,-1.));
#394=DIRECTION('',(0.,0.,1.));
#395=DIRECTION('',(-1.,0.,0.));
#396=DIRECTION('',(0.,1.,0.));
#397=DIRECTION('',(0.,0.,1.));
#398=DIRECTION('',(0.,1.,0.));
#399=DIRECTION('',(0.,0.,-1.));
#400=DIRECTION('',(-1.,0.,0.));
#401=DIRECTION('',(0.,0.,1.));
#402=DIRECTION('',(0.,1.,0.));
#403=DIRECTION('',(1.,0.,0.));
#404=DIRECTION('',(0.,0.,-1.));
#405=DIRECTION('',(0.,-0.707106781186548,-0.707106781186547));
#406=DIRECTION('',(0.,0.707106781186548,0.707106781186547));
#407=DIRECTION('',(0.,0.707106781186547,-0.707106781186548));
#408=DIRECTION('',(-1.,0.,0.));
#409=DIRECTION('',(0.,1.,0.));
#410=DIRECTION('',(-1.,0.,0.));
#411=DIRECTION('',(0.,0.,1.));
#412=DIRECTION('',(0.,-1.,0.));
#413=DIRECTION('',(0.,0.,-1.));
#414=DIRECTION('',(-1.,0.,0.));
#415=DIRECTION('',(1.,0.,0.));
#416=DIRECTION('',(0.,0.,-1.));
#417=DIRECTION('',(0.,1.,0.));
#418=DIRECTION('',(0.,0.,1.));
#419=DIRECTION('',(-1.,0.,0.));
#420=DIRECTION('',(0.,0.,1.));
#421=DIRECTION('',(0.,0.,-1.));
#422=DIRECTION('',(1.,0.,0.));
#423=DIRECTION('',(0.,1.,0.));
#424=DIRECTION('',(0.,0.,1.));
#425=DIRECTION('',(0.,0.,1.));
#426=DIRECTION('',(-1.,0.,0.));
#427=DIRECTION('',(0.,0.,-1.));
#428=DIRECTION('',(-1.,0.,0.));
#429=DIRECTION('',(0.,0.,1.));
#430=DIRECTION('',(1.,0.,0.));
#431=CARTESIAN_POINT('',(0.,0.,0.));
#432=CARTESIAN_POINT('',(17.1,247.2,60.2));
#433=CARTESIAN_POINT('',(17.1,494.4,60.2));
#434=CARTESIAN_POINT('',(17.1,10.5,60.2));
#435=CARTESIAN_POINT('',(189.35,494.4,60.2));
#436=CARTESIAN_POINT('',(0.,494.4,60.2));
#437=CARTESIAN_POINT('',(0.,247.2,60.2));
#438=CARTESIAN_POINT('',(0.,10.5,60.2));
#439=CARTESIAN_POINT('',(189.35,10.5,60.2));
#440=CARTESIAN_POINT('',(189.35,247.2,60.2));
#441=CARTESIAN_POINT('',(17.1,0.,49.7));
#442=CARTESIAN_POINT('',(17.1,0.,49.7));
#443=CARTESIAN_POINT('',(0.,98.7500000000001,148.45));
#444=CARTESIAN_POINT('',(0.,0.,49.7));
#445=CARTESIAN_POINT('',(189.35,0.,49.7));
#446=CARTESIAN_POINT('',(189.35,0.,49.7));
#447=CARTESIAN_POINT('',(284.6,247.2,60.2));
#448=CARTESIAN_POINT('',(284.6,106.7,60.2));
#449=CARTESIAN_POINT('',(284.6,10.5,60.2));
#450=CARTESIAN_POINT('',(293.7,106.7,60.2));
#451=CARTESIAN_POINT('',(293.7,115.8,60.2));
#452=CARTESIAN_POINT('',(189.35,115.8,60.2));
#453=CARTESIAN_POINT('',(378.7,115.8,60.2));
#454=CARTESIAN_POINT('',(378.7,247.2,60.2));
#455=CARTESIAN_POINT('',(378.7,494.4,60.2));
#456=CARTESIAN_POINT('',(189.35,494.4,60.2));
#457=CARTESIAN_POINT('',(47.,494.4,60.2));
#458=CARTESIAN_POINT('',(47.,247.2,60.2));
#459=CARTESIAN_POINT('',(47.,10.5,60.2));
#460=CARTESIAN_POINT('',(189.35,10.5,60.2));
#461=CARTESIAN_POINT('',(189.35,247.2,60.2));
#462=CARTESIAN_POINT('',(284.6,0.,48.6));
#463=CARTESIAN_POINT('',(284.6,0.,48.6));
#464=CARTESIAN_POINT('',(284.6,0.,49.7));
#465=CARTESIAN_POINT('',(189.35,0.,49.7));
#466=CARTESIAN_POINT('',(47.,0.,49.7));
#467=CARTESIAN_POINT('',(47.,0.,0.));
#468=CARTESIAN_POINT('',(47.,0.,44.1));
#469=CARTESIAN_POINT('',(189.35,0.,44.1));
#470=CARTESIAN_POINT('',(17.1,0.,44.1));
#471=CARTESIAN_POINT('',(17.1,0.,0.));
#472=CARTESIAN_POINT('',(0.,0.,0.));
#473=CARTESIAN_POINT('',(0.,0.,0.));
#474=CARTESIAN_POINT('',(189.35,0.,0.));
#475=CARTESIAN_POINT('',(378.7,0.,0.));
#476=CARTESIAN_POINT('',(378.7,0.,0.));
#477=CARTESIAN_POINT('',(378.7,0.,48.6));
#478=CARTESIAN_POINT('',(331.65,0.,48.6));
#479=CARTESIAN_POINT('',(189.35,0.,0.));
#480=CARTESIAN_POINT('',(0.,494.4,0.));
#481=CARTESIAN_POINT('',(0.,494.4,0.));
#482=CARTESIAN_POINT('',(0.,247.2,0.));
#483=CARTESIAN_POINT('',(0.,247.2,0.));
#484=CARTESIAN_POINT('',(17.1,494.4,0.));
#485=CARTESIAN_POINT('',(17.1,494.4,44.1));
#486=CARTESIAN_POINT('',(189.35,494.4,44.1));
#487=CARTESIAN_POINT('',(47.,494.4,44.1));
#488=CARTESIAN_POINT('',(47.,494.4,0.));
#489=CARTESIAN_POINT('',(378.7,494.4,0.));
#490=CARTESIAN_POINT('',(378.7,494.4,0.));
#491=CARTESIAN_POINT('',(189.35,494.4,0.));
#492=CARTESIAN_POINT('',(189.35,494.4,0.));
#493=CARTESIAN_POINT('',(378.7,247.2,0.));
#494=CARTESIAN_POINT('',(189.35,247.2,0.));
#495=CARTESIAN_POINT('',(378.7,115.8,48.6));
#496=CARTESIAN_POINT('',(378.7,115.8,48.6));
#497=CARTESIAN_POINT('',(378.7,57.9,48.6));
#498=CARTESIAN_POINT('',(378.7,247.2,0.));
#499=CARTESIAN_POINT('',(284.6,0.,49.7));
#500=CARTESIAN_POINT('',(47.,0.,49.7));
#501=CARTESIAN_POINT('',(189.35,0.,49.7));
#502=CARTESIAN_POINT('',(17.1,247.2,44.1));
#503=CARTESIAN_POINT('',(17.1,247.2,44.1));
#504=CARTESIAN_POINT('',(47.,247.2,44.1));
#505=CARTESIAN_POINT('',(32.05,247.2,44.1));
#506=CARTESIAN_POINT('',(47.,247.2,44.1));
#507=CARTESIAN_POINT('',(284.6,57.9,48.6));
#508=CARTESIAN_POINT('',(284.6,106.7,48.6));
#509=CARTESIAN_POINT('',(284.6,106.7,60.2));
#510=CARTESIAN_POINT('',(284.6,57.9,48.6));
#511=CARTESIAN_POINT('',(293.7,115.8,48.6));
#512=CARTESIAN_POINT('',(293.7,115.8,48.6));
#513=CARTESIAN_POINT('',(331.65,115.8,48.6));
#514=CARTESIAN_POINT('',(331.65,115.8,48.6));
#515=CARTESIAN_POINT('',(293.7,106.7,48.6));
#516=CARTESIAN_POINT('',(331.65,57.9,48.6));
#517=CARTESIAN_POINT('',(293.7,106.7,48.6));
#518=MECHANICAL_DESIGN_GEOMETRIC_PRESENTATION_REPRESENTATION('',(#24),#519);
#519=(
GEOMETRIC_REPRESENTATION_CONTEXT(3)
GLOBAL_UNCERTAINTY_ASSIGNED_CONTEXT((#520))
GLOBAL_UNIT_ASSIGNED_CONTEXT((#526,#522,#521))
REPRESENTATION_CONTEXT('featured_part_10504','TOP_LEVEL_ASSEMBLY_PART')
);
#520=UNCERTAINTY_MEASURE_WITH_UNIT(LENGTH_MEASURE(2.E-5),#526,
'DISTANCE_ACCURACY_VALUE','Maximum Tolerance applied to model');
#521=(
NAMED_UNIT(*)
SI_UNIT($,.STERADIAN.)
SOLID_ANGLE_UNIT()
);
#522=(
CONVERSION_BASED_UNIT('DEGREE',#524)
NAMED_UNIT(#523)
PLANE_ANGLE_UNIT()
);
#523=DIMENSIONAL_EXPONENTS(0.,0.,0.,0.,0.,0.,0.);
#524=PLANE_ANGLE_MEASURE_WITH_UNIT(PLANE_ANGLE_MEASURE(0.0174532925),#525);
#525=(
NAMED_UNIT(*)
PLANE_ANGLE_UNIT()
SI_UNIT($,.RADIAN.)
);
#526=(
LENGTH_UNIT()
NAMED_UNIT(*)
SI_UNIT(.MILLI.,.METRE.)
);
ENDSEC;
END-ISO-10303-21;
