ISO-10303-21;
HEADER;
/* Generated by software containing ST-Developer
 * from STEP Tools, Inc. (www.steptools.com) 
 */
/* OPTION: using custom schema-name function */

FILE_DESCRIPTION(
/* description */ (''),
/* implementation_level */ '2;1');

FILE_NAME(
/* name */ 'featured_part_07232.stp',
/* time_stamp */ '2026-07-10T01:41:42-04:00',
/* author */ (''),
/* organization */ (''),
/* preprocessor_version */ 'ST-DEVELOPER v20.1',
/* originating_system */ 'SIEMENS PLM Software NX2512.6002',
/* authorisation */ '');

FILE_SCHEMA (('AUTOMOTIVE_DESIGN { 1 0 10303 214 3 1 1 1 }'));
ENDSEC;

DATA;
#10=SHAPE_REPRESENTATION_RELATIONSHIP('None',
'relationship between featured_part_07232-None and featured_part_07232
-None',#22,#11);
#11=ADVANCED_BREP_SHAPE_REPRESENTATION('featured_part_07232-None',(#32),
#837);
#12=SHAPE_DEFINITION_REPRESENTATION(#13,#22);
#13=PRODUCT_DEFINITION_SHAPE('','',#14);
#14=PRODUCT_DEFINITION(' ','',#16,#15);
#15=PRODUCT_DEFINITION_CONTEXT('part definition',#21,'design');
#16=PRODUCT_DEFINITION_FORMATION_WITH_SPECIFIED_SOURCE(' ',' ',#18,
 .NOT_KNOWN.);
#17=PRODUCT_RELATED_PRODUCT_CATEGORY('part','',(#18));
#18=PRODUCT('featured_part_07232','featured_part_07232',' ',(#19));
#19=PRODUCT_CONTEXT(' ',#21,'mechanical');
#20=APPLICATION_PROTOCOL_DEFINITION('international standard',
'automotive_design',2010,#21);
#21=APPLICATION_CONTEXT(
'core data for automotive mechanical design processes');
#22=SHAPE_REPRESENTATION('featured_part_07232-None',(#518),#837);
#23=PRESENTATION_LAYER_ASSIGNMENT('1','Layer 1',(#32));
#24=STYLED_ITEM('',(#25),#32);
#25=PRESENTATION_STYLE_ASSIGNMENT((#26));
#26=SURFACE_STYLE_USAGE(.BOTH.,#27);
#27=SURFACE_SIDE_STYLE('',(#28));
#28=SURFACE_STYLE_FILL_AREA(#29);
#29=FILL_AREA_STYLE('',(#30));
#30=FILL_AREA_STYLE_COLOUR('',#31);
#31=COLOUR_RGB('medium steel',0.611764705882353,0.658823529411765,0.670588235294118);
#32=MANIFOLD_SOLID_BREP('',#33);
#33=CLOSED_SHELL('',(#63,#64,#65,#66,#67,#68,#69,#70,#71,#72,#73,#74,#75,
#76,#77,#78,#79,#80,#81,#82,#83,#84,#85,#86,#87,#88));
#34=CYLINDRICAL_SURFACE('',#542,13.9);
#35=CYLINDRICAL_SURFACE('',#543,13.9);
#36=CYLINDRICAL_SURFACE('',#554,11.9);
#37=CYLINDRICAL_SURFACE('',#555,11.9);
#38=CYLINDRICAL_SURFACE('',#556,11.9);
#39=CYLINDRICAL_SURFACE('',#557,11.9);
#40=CYLINDRICAL_SURFACE('',#558,21.);
#41=FACE_BOUND('',#131,.T.);
#42=FACE_BOUND('',#132,.T.);
#43=FACE_BOUND('',#136,.T.);
#44=FACE_BOUND('',#137,.T.);
#45=FACE_BOUND('',#151,.T.);
#46=FACE_BOUND('',#152,.T.);
#47=FACE_BOUND('',#158,.T.);
#48=FACE_BOUND('',#159,.T.);
#49=CIRCLE('',#520,11.9);
#50=CIRCLE('',#521,11.9);
#51=CIRCLE('',#522,11.9);
#52=CIRCLE('',#523,11.9);
#53=CIRCLE('',#524,13.9);
#54=CIRCLE('',#525,13.9);
#55=CIRCLE('',#530,21.);
#56=CIRCLE('',#538,13.9);
#57=CIRCLE('',#539,13.9);
#58=CIRCLE('',#547,21.);
#59=CIRCLE('',#548,11.9);
#60=CIRCLE('',#549,11.9);
#61=CIRCLE('',#550,11.9);
#62=CIRCLE('',#551,11.9);
#63=ADVANCED_FACE('',(#108),#89,.F.);
#64=ADVANCED_FACE('',(#41,#42),#90,.T.);
#65=ADVANCED_FACE('',(#109),#91,.T.);
#66=ADVANCED_FACE('',(#110),#92,.T.);
#67=ADVANCED_FACE('',(#111),#93,.T.);
#68=ADVANCED_FACE('',(#43,#44),#94,.T.);
#69=ADVANCED_FACE('',(#112),#95,.T.);
#70=ADVANCED_FACE('',(#113),#96,.F.);
#71=ADVANCED_FACE('',(#114),#97,.F.);
#72=ADVANCED_FACE('',(#115),#98,.F.);
#73=ADVANCED_FACE('',(#116),#99,.F.);
#74=ADVANCED_FACE('',(#117),#100,.F.);
#75=ADVANCED_FACE('',(#118),#101,.F.);
#76=ADVANCED_FACE('',(#119),#102,.F.);
#77=ADVANCED_FACE('',(#120),#34,.F.);
#78=ADVANCED_FACE('',(#121),#35,.F.);
#79=ADVANCED_FACE('',(#122),#103,.F.);
#80=ADVANCED_FACE('',(#123),#104,.F.);
#81=ADVANCED_FACE('',(#124),#105,.F.);
#82=ADVANCED_FACE('',(#45,#46),#106,.F.);
#83=ADVANCED_FACE('',(#125),#107,.F.);
#84=ADVANCED_FACE('',(#126),#36,.F.);
#85=ADVANCED_FACE('',(#127),#37,.F.);
#86=ADVANCED_FACE('',(#128),#38,.F.);
#87=ADVANCED_FACE('',(#129),#39,.F.);
#88=ADVANCED_FACE('',(#47,#48),#40,.F.);
#89=PLANE('',#519);
#90=PLANE('',#526);
#91=PLANE('',#527);
#92=PLANE('',#528);
#93=PLANE('',#529);
#94=PLANE('',#531);
#95=PLANE('',#532);
#96=PLANE('',#533);
#97=PLANE('',#534);
#98=PLANE('',#535);
#99=PLANE('',#536);
#100=PLANE('',#537);
#101=PLANE('',#540);
#102=PLANE('',#541);
#103=PLANE('',#544);
#104=PLANE('',#545);
#105=PLANE('',#546);
#106=PLANE('',#552);
#107=PLANE('',#553);
#108=FACE_OUTER_BOUND('',#130,.T.);
#109=FACE_OUTER_BOUND('',#133,.T.);
#110=FACE_OUTER_BOUND('',#134,.T.);
#111=FACE_OUTER_BOUND('',#135,.T.);
#112=FACE_OUTER_BOUND('',#138,.T.);
#113=FACE_OUTER_BOUND('',#139,.T.);
#114=FACE_OUTER_BOUND('',#140,.T.);
#115=FACE_OUTER_BOUND('',#141,.T.);
#116=FACE_OUTER_BOUND('',#142,.T.);
#117=FACE_OUTER_BOUND('',#143,.T.);
#118=FACE_OUTER_BOUND('',#144,.T.);
#119=FACE_OUTER_BOUND('',#145,.T.);
#120=FACE_OUTER_BOUND('',#146,.T.);
#121=FACE_OUTER_BOUND('',#147,.T.);
#122=FACE_OUTER_BOUND('',#148,.T.);
#123=FACE_OUTER_BOUND('',#149,.T.);
#124=FACE_OUTER_BOUND('',#150,.T.);
#125=FACE_OUTER_BOUND('',#153,.T.);
#126=FACE_OUTER_BOUND('',#154,.T.);
#127=FACE_OUTER_BOUND('',#155,.T.);
#128=FACE_OUTER_BOUND('',#156,.T.);
#129=FACE_OUTER_BOUND('',#157,.T.);
#130=EDGE_LOOP('',(#160,#161,#162,#163));
#131=EDGE_LOOP('',(#164,#165,#166,#167,#168,#169,#170,#171));
#132=EDGE_LOOP('',(#172,#173,#174,#175,#176,#177,#178,#179,#180,#181));
#133=EDGE_LOOP('',(#182,#183,#184,#185,#186));
#134=EDGE_LOOP('',(#187,#188,#189,#190));
#135=EDGE_LOOP('',(#191,#192,#193,#194,#195,#196,#197,#198,#199));
#136=EDGE_LOOP('',(#200));
#137=EDGE_LOOP('',(#201,#202,#203,#204));
#138=EDGE_LOOP('',(#205,#206,#207,#208,#209,#210));
#139=EDGE_LOOP('',(#211,#212,#213,#214,#215,#216));
#140=EDGE_LOOP('',(#217,#218,#219,#220));
#141=EDGE_LOOP('',(#221,#222,#223,#224));
#142=EDGE_LOOP('',(#225,#226,#227,#228));
#143=EDGE_LOOP('',(#229,#230,#231,#232,#233));
#144=EDGE_LOOP('',(#234,#235,#236,#237,#238,#239));
#145=EDGE_LOOP('',(#240,#241,#242,#243,#244));
#146=EDGE_LOOP('',(#245,#246,#247,#248));
#147=EDGE_LOOP('',(#249,#250,#251,#252));
#148=EDGE_LOOP('',(#253,#254,#255,#256));
#149=EDGE_LOOP('',(#257,#258,#259,#260));
#150=EDGE_LOOP('',(#261,#262,#263,#264));
#151=EDGE_LOOP('',(#265));
#152=EDGE_LOOP('',(#266,#267,#268,#269,#270,#271,#272,#273));
#153=EDGE_LOOP('',(#274,#275,#276,#277));
#154=EDGE_LOOP('',(#278,#279,#280,#281));
#155=EDGE_LOOP('',(#282,#283,#284,#285));
#156=EDGE_LOOP('',(#286,#287,#288,#289));
#157=EDGE_LOOP('',(#290,#291,#292,#293));
#158=EDGE_LOOP('',(#294));
#159=EDGE_LOOP('',(#295));
#160=ORIENTED_EDGE('',*,*,#342,.F.);
#161=ORIENTED_EDGE('',*,*,#343,.F.);
#162=ORIENTED_EDGE('',*,*,#344,.F.);
#163=ORIENTED_EDGE('',*,*,#345,.F.);
#164=ORIENTED_EDGE('',*,*,#346,.F.);
#165=ORIENTED_EDGE('',*,*,#347,.T.);
#166=ORIENTED_EDGE('',*,*,#348,.F.);
#167=ORIENTED_EDGE('',*,*,#349,.T.);
#168=ORIENTED_EDGE('',*,*,#350,.F.);
#169=ORIENTED_EDGE('',*,*,#351,.T.);
#170=ORIENTED_EDGE('',*,*,#352,.F.);
#171=ORIENTED_EDGE('',*,*,#353,.T.);
#172=ORIENTED_EDGE('',*,*,#354,.F.);
#173=ORIENTED_EDGE('',*,*,#345,.T.);
#174=ORIENTED_EDGE('',*,*,#355,.T.);
#175=ORIENTED_EDGE('',*,*,#356,.T.);
#176=ORIENTED_EDGE('',*,*,#357,.F.);
#177=ORIENTED_EDGE('',*,*,#358,.T.);
#178=ORIENTED_EDGE('',*,*,#359,.F.);
#179=ORIENTED_EDGE('',*,*,#360,.T.);
#180=ORIENTED_EDGE('',*,*,#361,.F.);
#181=ORIENTED_EDGE('',*,*,#362,.T.);
#182=ORIENTED_EDGE('',*,*,#363,.T.);
#183=ORIENTED_EDGE('',*,*,#364,.T.);
#184=ORIENTED_EDGE('',*,*,#365,.T.);
#185=ORIENTED_EDGE('',*,*,#366,.F.);
#186=ORIENTED_EDGE('',*,*,#367,.T.);
#187=ORIENTED_EDGE('',*,*,#366,.T.);
#188=ORIENTED_EDGE('',*,*,#368,.T.);
#189=ORIENTED_EDGE('',*,*,#369,.F.);
#190=ORIENTED_EDGE('',*,*,#370,.T.);
#191=ORIENTED_EDGE('',*,*,#371,.F.);
#192=ORIENTED_EDGE('',*,*,#372,.F.);
#193=ORIENTED_EDGE('',*,*,#373,.T.);
#194=ORIENTED_EDGE('',*,*,#374,.T.);
#195=ORIENTED_EDGE('',*,*,#375,.F.);
#196=ORIENTED_EDGE('',*,*,#376,.T.);
#197=ORIENTED_EDGE('',*,*,#369,.T.);
#198=ORIENTED_EDGE('',*,*,#377,.T.);
#199=ORIENTED_EDGE('',*,*,#343,.T.);
#200=ORIENTED_EDGE('',*,*,#378,.F.);
#201=ORIENTED_EDGE('',*,*,#379,.F.);
#202=ORIENTED_EDGE('',*,*,#367,.F.);
#203=ORIENTED_EDGE('',*,*,#370,.F.);
#204=ORIENTED_EDGE('',*,*,#376,.F.);
#205=ORIENTED_EDGE('',*,*,#357,.T.);
#206=ORIENTED_EDGE('',*,*,#380,.T.);
#207=ORIENTED_EDGE('',*,*,#363,.F.);
#208=ORIENTED_EDGE('',*,*,#379,.T.);
#209=ORIENTED_EDGE('',*,*,#375,.T.);
#210=ORIENTED_EDGE('',*,*,#381,.T.);
#211=ORIENTED_EDGE('',*,*,#365,.F.);
#212=ORIENTED_EDGE('',*,*,#382,.T.);
#213=ORIENTED_EDGE('',*,*,#355,.F.);
#214=ORIENTED_EDGE('',*,*,#344,.T.);
#215=ORIENTED_EDGE('',*,*,#377,.F.);
#216=ORIENTED_EDGE('',*,*,#368,.F.);
#217=ORIENTED_EDGE('',*,*,#383,.F.);
#218=ORIENTED_EDGE('',*,*,#358,.F.);
#219=ORIENTED_EDGE('',*,*,#381,.F.);
#220=ORIENTED_EDGE('',*,*,#374,.F.);
#221=ORIENTED_EDGE('',*,*,#380,.F.);
#222=ORIENTED_EDGE('',*,*,#356,.F.);
#223=ORIENTED_EDGE('',*,*,#382,.F.);
#224=ORIENTED_EDGE('',*,*,#364,.F.);
#225=ORIENTED_EDGE('',*,*,#361,.T.);
#226=ORIENTED_EDGE('',*,*,#384,.T.);
#227=ORIENTED_EDGE('',*,*,#385,.T.);
#228=ORIENTED_EDGE('',*,*,#386,.T.);
#229=ORIENTED_EDGE('',*,*,#354,.T.);
#230=ORIENTED_EDGE('',*,*,#387,.T.);
#231=ORIENTED_EDGE('',*,*,#388,.T.);
#232=ORIENTED_EDGE('',*,*,#371,.T.);
#233=ORIENTED_EDGE('',*,*,#342,.T.);
#234=ORIENTED_EDGE('',*,*,#385,.F.);
#235=ORIENTED_EDGE('',*,*,#389,.T.);
#236=ORIENTED_EDGE('',*,*,#390,.F.);
#237=ORIENTED_EDGE('',*,*,#372,.T.);
#238=ORIENTED_EDGE('',*,*,#388,.F.);
#239=ORIENTED_EDGE('',*,*,#391,.T.);
#240=ORIENTED_EDGE('',*,*,#390,.T.);
#241=ORIENTED_EDGE('',*,*,#392,.T.);
#242=ORIENTED_EDGE('',*,*,#359,.T.);
#243=ORIENTED_EDGE('',*,*,#383,.T.);
#244=ORIENTED_EDGE('',*,*,#373,.F.);
#245=ORIENTED_EDGE('',*,*,#360,.F.);
#246=ORIENTED_EDGE('',*,*,#392,.F.);
#247=ORIENTED_EDGE('',*,*,#389,.F.);
#248=ORIENTED_EDGE('',*,*,#384,.F.);
#249=ORIENTED_EDGE('',*,*,#362,.F.);
#250=ORIENTED_EDGE('',*,*,#386,.F.);
#251=ORIENTED_EDGE('',*,*,#391,.F.);
#252=ORIENTED_EDGE('',*,*,#387,.F.);
#253=ORIENTED_EDGE('',*,*,#346,.T.);
#254=ORIENTED_EDGE('',*,*,#393,.T.);
#255=ORIENTED_EDGE('',*,*,#394,.T.);
#256=ORIENTED_EDGE('',*,*,#395,.T.);
#257=ORIENTED_EDGE('',*,*,#396,.T.);
#258=ORIENTED_EDGE('',*,*,#397,.T.);
#259=ORIENTED_EDGE('',*,*,#348,.T.);
#260=ORIENTED_EDGE('',*,*,#398,.T.);
#261=ORIENTED_EDGE('',*,*,#350,.T.);
#262=ORIENTED_EDGE('',*,*,#399,.T.);
#263=ORIENTED_EDGE('',*,*,#400,.T.);
#264=ORIENTED_EDGE('',*,*,#401,.T.);
#265=ORIENTED_EDGE('',*,*,#402,.T.);
#266=ORIENTED_EDGE('',*,*,#394,.F.);
#267=ORIENTED_EDGE('',*,*,#403,.T.);
#268=ORIENTED_EDGE('',*,*,#404,.F.);
#269=ORIENTED_EDGE('',*,*,#405,.T.);
#270=ORIENTED_EDGE('',*,*,#400,.F.);
#271=ORIENTED_EDGE('',*,*,#406,.T.);
#272=ORIENTED_EDGE('',*,*,#396,.F.);
#273=ORIENTED_EDGE('',*,*,#407,.T.);
#274=ORIENTED_EDGE('',*,*,#404,.T.);
#275=ORIENTED_EDGE('',*,*,#408,.T.);
#276=ORIENTED_EDGE('',*,*,#352,.T.);
#277=ORIENTED_EDGE('',*,*,#409,.T.);
#278=ORIENTED_EDGE('',*,*,#353,.F.);
#279=ORIENTED_EDGE('',*,*,#408,.F.);
#280=ORIENTED_EDGE('',*,*,#403,.F.);
#281=ORIENTED_EDGE('',*,*,#393,.F.);
#282=ORIENTED_EDGE('',*,*,#349,.F.);
#283=ORIENTED_EDGE('',*,*,#397,.F.);
#284=ORIENTED_EDGE('',*,*,#406,.F.);
#285=ORIENTED_EDGE('',*,*,#399,.F.);
#286=ORIENTED_EDGE('',*,*,#347,.F.);
#287=ORIENTED_EDGE('',*,*,#395,.F.);
#288=ORIENTED_EDGE('',*,*,#407,.F.);
#289=ORIENTED_EDGE('',*,*,#398,.F.);
#290=ORIENTED_EDGE('',*,*,#351,.F.);
#291=ORIENTED_EDGE('',*,*,#401,.F.);
#292=ORIENTED_EDGE('',*,*,#405,.F.);
#293=ORIENTED_EDGE('',*,*,#409,.F.);
#294=ORIENTED_EDGE('',*,*,#378,.T.);
#295=ORIENTED_EDGE('',*,*,#402,.F.);
#296=VERTEX_POINT('',#697);
#297=VERTEX_POINT('',#698);
#298=VERTEX_POINT('',#700);
#299=VERTEX_POINT('',#702);
#300=VERTEX_POINT('',#706);
#301=VERTEX_POINT('',#707);
#302=VERTEX_POINT('',#709);
#303=VERTEX_POINT('',#711);
#304=VERTEX_POINT('',#713);
#305=VERTEX_POINT('',#715);
#306=VERTEX_POINT('',#717);
#307=VERTEX_POINT('',#719);
#308=VERTEX_POINT('',#722);
#309=VERTEX_POINT('',#724);
#310=VERTEX_POINT('',#726);
#311=VERTEX_POINT('',#728);
#312=VERTEX_POINT('',#730);
#313=VERTEX_POINT('',#732);
#314=VERTEX_POINT('',#734);
#315=VERTEX_POINT('',#736);
#316=VERTEX_POINT('',#740);
#317=VERTEX_POINT('',#741);
#318=VERTEX_POINT('',#743);
#319=VERTEX_POINT('',#745);
#320=VERTEX_POINT('',#747);
#321=VERTEX_POINT('',#751);
#322=VERTEX_POINT('',#753);
#323=VERTEX_POINT('',#757);
#324=VERTEX_POINT('',#759);
#325=VERTEX_POINT('',#761);
#326=VERTEX_POINT('',#763);
#327=VERTEX_POINT('',#765);
#328=VERTEX_POINT('',#770);
#329=VERTEX_POINT('',#782);
#330=VERTEX_POINT('',#784);
#331=VERTEX_POINT('',#788);
#332=VERTEX_POINT('',#792);
#333=VERTEX_POINT('',#801);
#334=VERTEX_POINT('',#803);
#335=VERTEX_POINT('',#807);
#336=VERTEX_POINT('',#808);
#337=VERTEX_POINT('',#813);
#338=VERTEX_POINT('',#815);
#339=VERTEX_POINT('',#819);
#340=VERTEX_POINT('',#821);
#341=VERTEX_POINT('',#823);
#342=EDGE_CURVE('',#296,#297,#410,.T.);
#343=EDGE_CURVE('',#298,#296,#411,.T.);
#344=EDGE_CURVE('',#299,#298,#412,.T.);
#345=EDGE_CURVE('',#297,#299,#413,.T.);
#346=EDGE_CURVE('',#300,#301,#414,.T.);
#347=EDGE_CURVE('',#300,#302,#49,.T.);
#348=EDGE_CURVE('',#303,#302,#415,.T.);
#349=EDGE_CURVE('',#303,#304,#50,.T.);
#350=EDGE_CURVE('',#305,#304,#416,.T.);
#351=EDGE_CURVE('',#305,#306,#51,.T.);
#352=EDGE_CURVE('',#307,#306,#417,.T.);
#353=EDGE_CURVE('',#307,#301,#52,.T.);
#354=EDGE_CURVE('',#297,#308,#418,.T.);
#355=EDGE_CURVE('',#299,#309,#419,.T.);
#356=EDGE_CURVE('',#309,#310,#420,.T.);
#357=EDGE_CURVE('',#311,#310,#421,.T.);
#358=EDGE_CURVE('',#311,#312,#422,.T.);
#359=EDGE_CURVE('',#313,#312,#423,.T.);
#360=EDGE_CURVE('',#313,#314,#53,.T.);
#361=EDGE_CURVE('',#315,#314,#424,.T.);
#362=EDGE_CURVE('',#315,#308,#54,.T.);
#363=EDGE_CURVE('',#316,#317,#425,.T.);
#364=EDGE_CURVE('',#317,#318,#426,.T.);
#365=EDGE_CURVE('',#318,#319,#427,.T.);
#366=EDGE_CURVE('',#320,#319,#428,.T.);
#367=EDGE_CURVE('',#320,#316,#429,.T.);
#368=EDGE_CURVE('',#319,#321,#430,.T.);
#369=EDGE_CURVE('',#322,#321,#431,.T.);
#370=EDGE_CURVE('',#322,#320,#432,.T.);
#371=EDGE_CURVE('',#323,#296,#433,.T.);
#372=EDGE_CURVE('',#324,#323,#434,.T.);
#373=EDGE_CURVE('',#324,#325,#435,.T.);
#374=EDGE_CURVE('',#325,#326,#436,.T.);
#375=EDGE_CURVE('',#327,#326,#437,.T.);
#376=EDGE_CURVE('',#327,#322,#438,.T.);
#377=EDGE_CURVE('',#321,#298,#439,.T.);
#378=EDGE_CURVE('',#328,#328,#55,.T.);
#379=EDGE_CURVE('',#316,#327,#440,.T.);
#380=EDGE_CURVE('',#310,#317,#441,.T.);
#381=EDGE_CURVE('',#326,#311,#442,.T.);
#382=EDGE_CURVE('',#318,#309,#443,.T.);
#383=EDGE_CURVE('',#312,#325,#444,.T.);
#384=EDGE_CURVE('',#314,#329,#445,.T.);
#385=EDGE_CURVE('',#329,#330,#446,.T.);
#386=EDGE_CURVE('',#330,#315,#447,.T.);
#387=EDGE_CURVE('',#308,#331,#448,.T.);
#388=EDGE_CURVE('',#331,#323,#449,.T.);
#389=EDGE_CURVE('',#329,#332,#56,.T.);
#390=EDGE_CURVE('',#324,#332,#450,.T.);
#391=EDGE_CURVE('',#331,#330,#57,.T.);
#392=EDGE_CURVE('',#332,#313,#451,.T.);
#393=EDGE_CURVE('',#301,#333,#452,.T.);
#394=EDGE_CURVE('',#333,#334,#453,.T.);
#395=EDGE_CURVE('',#334,#300,#454,.T.);
#396=EDGE_CURVE('',#335,#336,#455,.T.);
#397=EDGE_CURVE('',#336,#303,#456,.T.);
#398=EDGE_CURVE('',#302,#335,#457,.T.);
#399=EDGE_CURVE('',#304,#337,#458,.T.);
#400=EDGE_CURVE('',#337,#338,#459,.T.);
#401=EDGE_CURVE('',#338,#305,#460,.T.);
#402=EDGE_CURVE('',#339,#339,#58,.T.);
#403=EDGE_CURVE('',#333,#340,#59,.T.);
#404=EDGE_CURVE('',#341,#340,#461,.T.);
#405=EDGE_CURVE('',#341,#338,#60,.T.);
#406=EDGE_CURVE('',#337,#336,#61,.T.);
#407=EDGE_CURVE('',#335,#334,#62,.T.);
#408=EDGE_CURVE('',#340,#307,#462,.T.);
#409=EDGE_CURVE('',#306,#341,#463,.T.);
#410=LINE('',#696,#464);
#411=LINE('',#699,#465);
#412=LINE('',#701,#466);
#413=LINE('',#703,#467);
#414=LINE('',#705,#468);
#415=LINE('',#710,#469);
#416=LINE('',#714,#470);
#417=LINE('',#718,#471);
#418=LINE('',#721,#472);
#419=LINE('',#723,#473);
#420=LINE('',#725,#474);
#421=LINE('',#727,#475);
#422=LINE('',#729,#476);
#423=LINE('',#731,#477);
#424=LINE('',#735,#478);
#425=LINE('',#739,#479);
#426=LINE('',#742,#480);
#427=LINE('',#744,#481);
#428=LINE('',#746,#482);
#429=LINE('',#748,#483);
#430=LINE('',#750,#484);
#431=LINE('',#752,#485);
#432=LINE('',#754,#486);
#433=LINE('',#756,#487);
#434=LINE('',#758,#488);
#435=LINE('',#760,#489);
#436=LINE('',#762,#490);
#437=LINE('',#764,#491);
#438=LINE('',#766,#492);
#439=LINE('',#767,#493);
#440=LINE('',#771,#494);
#441=LINE('',#773,#495);
#442=LINE('',#774,#496);
#443=LINE('',#776,#497);
#444=LINE('',#778,#498);
#445=LINE('',#781,#499);
#446=LINE('',#783,#500);
#447=LINE('',#785,#501);
#448=LINE('',#787,#502);
#449=LINE('',#789,#503);
#450=LINE('',#793,#504);
#451=LINE('',#796,#505);
#452=LINE('',#800,#506);
#453=LINE('',#802,#507);
#454=LINE('',#804,#508);
#455=LINE('',#806,#509);
#456=LINE('',#809,#510);
#457=LINE('',#810,#511);
#458=LINE('',#812,#512);
#459=LINE('',#814,#513);
#460=LINE('',#816,#514);
#461=LINE('',#822,#515);
#462=LINE('',#828,#516);
#463=LINE('',#829,#517);
#464=VECTOR('',#561,1.);
#465=VECTOR('',#562,1.);
#466=VECTOR('',#563,1.);
#467=VECTOR('',#564,1.);
#468=VECTOR('',#567,1.);
#469=VECTOR('',#570,1.);
#470=VECTOR('',#573,1.);
#471=VECTOR('',#576,1.);
#472=VECTOR('',#579,1.);
#473=VECTOR('',#580,1.);
#474=VECTOR('',#581,1.);
#475=VECTOR('',#582,1.);
#476=VECTOR('',#583,1.);
#477=VECTOR('',#584,1.);
#478=VECTOR('',#587,1.);
#479=VECTOR('',#592,1.);
#480=VECTOR('',#593,1.);
#481=VECTOR('',#594,1.);
#482=VECTOR('',#595,1.);
#483=VECTOR('',#596,1.);
#484=VECTOR('',#599,1.);
#485=VECTOR('',#600,1.);
#486=VECTOR('',#601,1.);
#487=VECTOR('',#604,1.);
#488=VECTOR('',#605,1.);
#489=VECTOR('',#606,1.);
#490=VECTOR('',#607,1.);
#491=VECTOR('',#608,1.);
#492=VECTOR('',#609,1.);
#493=VECTOR('',#610,1.);
#494=VECTOR('',#615,1.);
#495=VECTOR('',#618,1.);
#496=VECTOR('',#619,1.);
#497=VECTOR('',#622,1.);
#498=VECTOR('',#625,1.);
#499=VECTOR('',#630,1.);
#500=VECTOR('',#631,1.);
#501=VECTOR('',#632,1.);
#502=VECTOR('',#635,1.);
#503=VECTOR('',#636,1.);
#504=VECTOR('',#641,1.);
#505=VECTOR('',#646,1.);
#506=VECTOR('',#653,1.);
#507=VECTOR('',#654,1.);
#508=VECTOR('',#655,1.);
#509=VECTOR('',#658,1.);
#510=VECTOR('',#659,1.);
#511=VECTOR('',#660,1.);
#512=VECTOR('',#663,1.);
#513=VECTOR('',#664,1.);
#514=VECTOR('',#665,1.);
#515=VECTOR('',#672,1.);
#516=VECTOR('',#681,1.);
#517=VECTOR('',#682,1.);
#518=AXIS2_PLACEMENT_3D('',#695,#559,#560);
#519=AXIS2_PLACEMENT_3D('',#704,#565,#566);
#520=AXIS2_PLACEMENT_3D('',#708,#568,#569);
#521=AXIS2_PLACEMENT_3D('',#712,#571,#572);
#522=AXIS2_PLACEMENT_3D('',#716,#574,#575);
#523=AXIS2_PLACEMENT_3D('',#720,#577,#578);
#524=AXIS2_PLACEMENT_3D('',#733,#585,#586);
#525=AXIS2_PLACEMENT_3D('',#737,#588,#589);
#526=AXIS2_PLACEMENT_3D('',#738,#590,#591);
#527=AXIS2_PLACEMENT_3D('',#749,#597,#598);
#528=AXIS2_PLACEMENT_3D('',#755,#602,#603);
#529=AXIS2_PLACEMENT_3D('',#768,#611,#612);
#530=AXIS2_PLACEMENT_3D('',#769,#613,#614);
#531=AXIS2_PLACEMENT_3D('',#772,#616,#617);
#532=AXIS2_PLACEMENT_3D('',#775,#620,#621);
#533=AXIS2_PLACEMENT_3D('',#777,#623,#624);
#534=AXIS2_PLACEMENT_3D('',#779,#626,#627);
#535=AXIS2_PLACEMENT_3D('',#780,#628,#629);
#536=AXIS2_PLACEMENT_3D('',#786,#633,#634);
#537=AXIS2_PLACEMENT_3D('',#790,#637,#638);
#538=AXIS2_PLACEMENT_3D('',#791,#639,#640);
#539=AXIS2_PLACEMENT_3D('',#794,#642,#643);
#540=AXIS2_PLACEMENT_3D('',#795,#644,#645);
#541=AXIS2_PLACEMENT_3D('',#797,#647,#648);
#542=AXIS2_PLACEMENT_3D('',#798,#649,#650);
#543=AXIS2_PLACEMENT_3D('',#799,#651,#652);
#544=AXIS2_PLACEMENT_3D('',#805,#656,#657);
#545=AXIS2_PLACEMENT_3D('',#811,#661,#662);
#546=AXIS2_PLACEMENT_3D('',#817,#666,#667);
#547=AXIS2_PLACEMENT_3D('',#818,#668,#669);
#548=AXIS2_PLACEMENT_3D('',#820,#670,#671);
#549=AXIS2_PLACEMENT_3D('',#824,#673,#674);
#550=AXIS2_PLACEMENT_3D('',#825,#675,#676);
#551=AXIS2_PLACEMENT_3D('',#826,#677,#678);
#552=AXIS2_PLACEMENT_3D('',#827,#679,#680);
#553=AXIS2_PLACEMENT_3D('',#830,#683,#684);
#554=AXIS2_PLACEMENT_3D('',#831,#685,#686);
#555=AXIS2_PLACEMENT_3D('',#832,#687,#688);
#556=AXIS2_PLACEMENT_3D('',#833,#689,#690);
#557=AXIS2_PLACEMENT_3D('',#834,#691,#692);
#558=AXIS2_PLACEMENT_3D('',#835,#693,#694);
#559=DIRECTION('',(0.,0.,1.));
#560=DIRECTION('',(1.,0.,0.));
#561=DIRECTION('',(0.,-0.707106781186548,0.707106781186547));
#562=DIRECTION('',(1.,0.,0.));
#563=DIRECTION('',(-0.577350269189625,0.577350269189627,-0.577350269189625));
#564=DIRECTION('',(-1.,0.,0.));
#565=DIRECTION('',(0.,-0.707106781186547,-0.707106781186548));
#566=DIRECTION('',(1.,0.,0.));
#567=DIRECTION('',(1.,0.,0.));
#568=DIRECTION('',(0.,0.,-1.));
#569=DIRECTION('',(0.999999999999999,0.,0.));
#570=DIRECTION('',(0.,-1.,0.));
#571=DIRECTION('',(0.,0.,-1.));
#572=DIRECTION('',(0.999999999999999,0.,0.));
#573=DIRECTION('',(-1.,0.,0.));
#574=DIRECTION('',(0.,0.,-1.));
#575=DIRECTION('',(0.999999999999999,0.,0.));
#576=DIRECTION('',(0.,1.,0.));
#577=DIRECTION('',(0.,0.,-1.));
#578=DIRECTION('',(0.999999999999999,0.,0.));
#579=DIRECTION('',(0.,-1.,0.));
#580=DIRECTION('',(0.,-1.,0.));
#581=DIRECTION('',(1.,0.,0.));
#582=DIRECTION('',(0.,-1.,0.));
#583=DIRECTION('',(-1.,0.,0.));
#584=DIRECTION('',(0.,1.,0.));
#585=DIRECTION('',(0.,0.,-1.));
#586=DIRECTION('',(1.,0.,0.));
#587=DIRECTION('',(1.,0.,0.));
#588=DIRECTION('',(0.,0.,-1.));
#589=DIRECTION('',(1.,0.,0.));
#590=DIRECTION('',(0.,0.,1.));
#591=DIRECTION('',(1.,0.,0.));
#592=DIRECTION('',(0.,0.,1.));
#593=DIRECTION('',(-1.,0.,0.));
#594=DIRECTION('',(-0.707106781186548,0.,-0.707106781186548));
#595=DIRECTION('',(0.,0.,1.));
#596=DIRECTION('',(1.,0.,0.));
#597=DIRECTION('',(0.,-1.,0.));
#598=DIRECTION('',(0.,0.,-1.));
#599=DIRECTION('',(0.,1.,0.));
#600=DIRECTION('',(0.,0.,1.));
#601=DIRECTION('',(0.,-1.,0.));
#602=DIRECTION('',(-1.,0.,0.));
#603=DIRECTION('',(0.,0.,1.));
#604=DIRECTION('',(0.,0.,1.));
#605=DIRECTION('',(-1.,0.,0.));
#606=DIRECTION('',(0.,0.,1.));
#607=DIRECTION('',(1.,0.,0.));
#608=DIRECTION('',(0.,0.,1.));
#609=DIRECTION('',(-1.,0.,0.));
#610=DIRECTION('',(0.707106781186548,0.,0.707106781186548));
#611=DIRECTION('',(0.,1.,0.));
#612=DIRECTION('',(0.,0.,1.));
#613=DIRECTION('',(0.,0.,-1.));
#614=DIRECTION('',(-1.,0.,0.));
#615=DIRECTION('',(0.,1.,0.));
#616=DIRECTION('',(0.,0.,-1.));
#617=DIRECTION('',(-1.,0.,0.));
#618=DIRECTION('',(0.,-0.707106781186548,-0.707106781186548));
#619=DIRECTION('',(0.,-0.707106781186548,0.707106781186547));
#620=DIRECTION('',(1.,0.,0.));
#621=DIRECTION('',(0.,0.,-1.));
#622=DIRECTION('',(0.577350269189626,0.577350269189626,0.577350269189626));
#623=DIRECTION('',(0.707106781186548,0.,-0.707106781186548));
#624=DIRECTION('',(0.,1.,0.));
#625=DIRECTION('',(0.,0.707106781186548,-0.707106781186547));
#626=DIRECTION('',(0.,-0.707106781186547,-0.707106781186548));
#627=DIRECTION('',(1.,0.,0.));
#628=DIRECTION('',(0.,0.707106781186547,-0.707106781186547));
#629=DIRECTION('',(-1.,0.,0.));
#630=DIRECTION('',(0.,0.,-1.));
#631=DIRECTION('',(-1.,0.,0.));
#632=DIRECTION('',(0.,0.,1.));
#633=DIRECTION('',(0.,-1.,0.));
#634=DIRECTION('',(0.,0.,-1.));
#635=DIRECTION('',(0.,0.,-1.));
#636=DIRECTION('',(0.,1.,0.));
#637=DIRECTION('',(-1.,0.,0.));
#638=DIRECTION('',(0.,0.,1.));
#639=DIRECTION('',(0.,0.,1.));
#640=DIRECTION('',(-1.,0.,0.));
#641=DIRECTION('',(0.,-1.,0.));
#642=DIRECTION('',(0.,0.,1.));
#643=DIRECTION('',(-1.,0.,0.));
#644=DIRECTION('',(0.,0.,-1.));
#645=DIRECTION('',(-1.,0.,0.));
#646=DIRECTION('',(0.,0.,1.));
#647=DIRECTION('',(1.,0.,0.));
#648=DIRECTION('',(0.,0.,-1.));
#649=DIRECTION('',(0.,0.,1.));
#650=DIRECTION('',(1.,0.,0.));
#651=DIRECTION('',(0.,0.,1.));
#652=DIRECTION('',(1.,0.,0.));
#653=DIRECTION('',(0.,0.,-1.));
#654=DIRECTION('',(-1.,0.,0.));
#655=DIRECTION('',(0.,0.,1.));
#656=DIRECTION('',(0.,-1.,0.));
#657=DIRECTION('',(0.,0.,-1.));
#658=DIRECTION('',(0.,1.,0.));
#659=DIRECTION('',(0.,0.,1.));
#660=DIRECTION('',(0.,0.,-1.));
#661=DIRECTION('',(-1.,0.,0.));
#662=DIRECTION('',(0.,0.,1.));
#663=DIRECTION('',(0.,0.,-1.));
#664=DIRECTION('',(1.,0.,0.));
#665=DIRECTION('',(0.,0.,1.));
#666=DIRECTION('',(0.,1.,0.));
#667=DIRECTION('',(0.,0.,1.));
#668=DIRECTION('',(0.,0.,-1.));
#669=DIRECTION('',(-1.,0.,0.));
#670=DIRECTION('',(0.,0.,1.));
#671=DIRECTION('',(-0.999999999999999,0.,0.));
#672=DIRECTION('',(0.,-1.,0.));
#673=DIRECTION('',(0.,0.,1.));
#674=DIRECTION('',(-0.999999999999999,0.,0.));
#675=DIRECTION('',(0.,0.,1.));
#676=DIRECTION('',(-0.999999999999999,0.,0.));
#677=DIRECTION('',(0.,0.,1.));
#678=DIRECTION('',(-0.999999999999999,0.,0.));
#679=DIRECTION('',(0.,0.,-1.));
#680=DIRECTION('',(-1.,0.,0.));
#681=DIRECTION('',(0.,0.,1.));
#682=DIRECTION('',(0.,0.,-1.));
#683=DIRECTION('',(1.,0.,0.));
#684=DIRECTION('',(0.,0.,-1.));
#685=DIRECTION('',(0.,0.,1.));
#686=DIRECTION('',(0.999999999999999,0.,0.));
#687=DIRECTION('',(0.,0.,1.));
#688=DIRECTION('',(0.999999999999999,0.,0.));
#689=DIRECTION('',(0.,0.,1.));
#690=DIRECTION('',(0.999999999999999,0.,0.));
#691=DIRECTION('',(0.,0.,1.));
#692=DIRECTION('',(0.999999999999999,0.,0.));
#693=DIRECTION('',(0.,0.,-1.));
#694=DIRECTION('',(1.,0.,0.));
#695=CARTESIAN_POINT('',(0.,0.,0.));
#696=CARTESIAN_POINT('',(56.3,453.1,129.9));
#697=CARTESIAN_POINT('',(56.3,453.1,129.9));
#698=CARTESIAN_POINT('',(56.3,441.7,141.3));
#699=CARTESIAN_POINT('',(119.05,453.1,129.9));
#700=CARTESIAN_POINT('',(12.8,453.1,129.9));
#701=CARTESIAN_POINT('',(79.7833333333334,386.116666666666,196.883333333333));
#702=CARTESIAN_POINT('',(24.2,441.7,141.3));
#703=CARTESIAN_POINT('',(119.05,441.7,141.3));
#704=CARTESIAN_POINT('',(119.05,453.1,129.9));
#705=CARTESIAN_POINT('',(119.05,54.5,141.3));
#706=CARTESIAN_POINT('',(168.6,54.5,141.3));
#707=CARTESIAN_POINT('',(195.3,54.5,141.3));
#708=CARTESIAN_POINT('',(168.6,66.4,141.3));
#709=CARTESIAN_POINT('',(156.7,66.4,141.3));
#710=CARTESIAN_POINT('',(156.7,226.55,141.3));
#711=CARTESIAN_POINT('',(156.7,242.7,141.3));
#712=CARTESIAN_POINT('',(168.6,242.7,141.3));
#713=CARTESIAN_POINT('',(168.6,254.6,141.3));
#714=CARTESIAN_POINT('',(119.05,254.6,141.3));
#715=CARTESIAN_POINT('',(195.3,254.6,141.3));
#716=CARTESIAN_POINT('',(195.3,242.7,141.3));
#717=CARTESIAN_POINT('',(207.2,242.7,141.3));
#718=CARTESIAN_POINT('',(207.2,226.55,141.3));
#719=CARTESIAN_POINT('',(207.2,66.4,141.3));
#720=CARTESIAN_POINT('',(195.3,66.4,141.3));
#721=CARTESIAN_POINT('',(56.3,226.55,141.3));
#722=CARTESIAN_POINT('',(56.3,361.8,141.3));
#723=CARTESIAN_POINT('',(24.2,226.55,141.3));
#724=CARTESIAN_POINT('',(24.2,15.3,141.3));
#725=CARTESIAN_POINT('',(119.05,15.3,141.3));
#726=CARTESIAN_POINT('',(238.1,15.3,141.3));
#727=CARTESIAN_POINT('',(238.1,226.55,141.3));
#728=CARTESIAN_POINT('',(238.1,441.7,141.3));
#729=CARTESIAN_POINT('',(119.05,441.7,141.3));
#730=CARTESIAN_POINT('',(156.8,441.7,141.3));
#731=CARTESIAN_POINT('',(156.8,226.55,141.3));
#732=CARTESIAN_POINT('',(156.8,361.8,141.3));
#733=CARTESIAN_POINT('',(142.9,361.8,141.3));
#734=CARTESIAN_POINT('',(142.9,347.9,141.3));
#735=CARTESIAN_POINT('',(119.05,347.9,141.3));
#736=CARTESIAN_POINT('',(70.2,347.9,141.3));
#737=CARTESIAN_POINT('',(70.2,361.8,141.3));
#738=CARTESIAN_POINT('',(119.05,226.55,141.3));
#739=CARTESIAN_POINT('',(238.1,0.,0.));
#740=CARTESIAN_POINT('',(238.1,0.,0.));
#741=CARTESIAN_POINT('',(238.1,0.,126.));
#742=CARTESIAN_POINT('',(119.05,0.,126.));
#743=CARTESIAN_POINT('',(8.89999999999998,0.,126.));
#744=CARTESIAN_POINT('',(0.97499999999999,0.,118.075));
#745=CARTESIAN_POINT('',(0.,0.,117.1));
#746=CARTESIAN_POINT('',(0.,0.,0.));
#747=CARTESIAN_POINT('',(0.,0.,0.));
#748=CARTESIAN_POINT('',(119.05,0.,0.));
#749=CARTESIAN_POINT('',(119.05,0.,0.));
#750=CARTESIAN_POINT('',(0.,226.55,117.1));
#751=CARTESIAN_POINT('',(0.,453.1,117.1));
#752=CARTESIAN_POINT('',(0.,453.1,0.));
#753=CARTESIAN_POINT('',(0.,453.1,0.));
#754=CARTESIAN_POINT('',(0.,226.55,0.));
#755=CARTESIAN_POINT('',(0.,226.55,0.));
#756=CARTESIAN_POINT('',(56.3,453.1,105.));
#757=CARTESIAN_POINT('',(56.3,453.1,105.));
#758=CARTESIAN_POINT('',(106.55,453.1,105.));
#759=CARTESIAN_POINT('',(156.8,453.1,105.));
#760=CARTESIAN_POINT('',(156.8,453.1,105.));
#761=CARTESIAN_POINT('',(156.8,453.1,129.9));
#762=CARTESIAN_POINT('',(119.05,453.1,129.9));
#763=CARTESIAN_POINT('',(238.1,453.1,129.9));
#764=CARTESIAN_POINT('',(238.1,453.1,0.));
#765=CARTESIAN_POINT('',(238.1,453.1,0.));
#766=CARTESIAN_POINT('',(119.05,453.1,0.));
#767=CARTESIAN_POINT('',(0.97499999999999,453.1,118.075));
#768=CARTESIAN_POINT('',(119.05,453.1,0.));
#769=CARTESIAN_POINT('',(185.9,183.7,0.));
#770=CARTESIAN_POINT('',(164.9,183.7,0.));
#771=CARTESIAN_POINT('',(238.1,226.55,0.));
#772=CARTESIAN_POINT('',(119.05,226.55,0.));
#773=CARTESIAN_POINT('',(238.1,50.275,176.275));
#774=CARTESIAN_POINT('',(238.1,404.775,178.225));
#775=CARTESIAN_POINT('',(238.1,226.55,0.));
#776=CARTESIAN_POINT('',(78.4833333333333,69.5833333333334,195.583333333333));
#777=CARTESIAN_POINT('',(0.,226.55,117.1));
#778=CARTESIAN_POINT('',(156.8,453.1,129.9));
#779=CARTESIAN_POINT('',(119.05,453.1,129.9));
#780=CARTESIAN_POINT('',(119.05,0.,126.));
#781=CARTESIAN_POINT('',(142.9,347.9,105.));
#782=CARTESIAN_POINT('',(142.9,347.9,105.));
#783=CARTESIAN_POINT('',(106.55,347.9,105.));
#784=CARTESIAN_POINT('',(70.2,347.9,105.));
#785=CARTESIAN_POINT('',(70.2,347.9,141.3));
#786=CARTESIAN_POINT('',(106.55,347.9,105.));
#787=CARTESIAN_POINT('',(56.3,361.8,105.));
#788=CARTESIAN_POINT('',(56.3,361.8,105.));
#789=CARTESIAN_POINT('',(56.3,400.5,105.));
#790=CARTESIAN_POINT('',(56.3,400.5,105.));
#791=CARTESIAN_POINT('',(142.9,361.8,105.));
#792=CARTESIAN_POINT('',(156.8,361.8,105.));
#793=CARTESIAN_POINT('',(156.8,400.5,105.));
#794=CARTESIAN_POINT('',(70.2,361.8,105.));
#795=CARTESIAN_POINT('',(106.55,400.5,105.));
#796=CARTESIAN_POINT('',(156.8,361.8,141.3));
#797=CARTESIAN_POINT('',(156.8,400.5,105.));
#798=CARTESIAN_POINT('',(142.9,361.8,105.));
#799=CARTESIAN_POINT('',(70.2,361.8,105.));
#800=CARTESIAN_POINT('',(195.3,54.5,103.4));
#801=CARTESIAN_POINT('',(195.3,54.5,103.4));
#802=CARTESIAN_POINT('',(181.95,54.5,103.4));
#803=CARTESIAN_POINT('',(168.6,54.5,103.4));
#804=CARTESIAN_POINT('',(168.6,54.5,141.3));
#805=CARTESIAN_POINT('',(181.95,54.5,103.4));
#806=CARTESIAN_POINT('',(156.7,154.55,103.4));
#807=CARTESIAN_POINT('',(156.7,66.4,103.4));
#808=CARTESIAN_POINT('',(156.7,242.7,103.4));
#809=CARTESIAN_POINT('',(156.7,242.7,141.3));
#810=CARTESIAN_POINT('',(156.7,66.4,103.4));
#811=CARTESIAN_POINT('',(156.7,154.55,103.4));
#812=CARTESIAN_POINT('',(168.6,254.6,103.4));
#813=CARTESIAN_POINT('',(168.6,254.6,103.4));
#814=CARTESIAN_POINT('',(181.95,254.6,103.4));
#815=CARTESIAN_POINT('',(195.3,254.6,103.4));
#816=CARTESIAN_POINT('',(195.3,254.6,141.3));
#817=CARTESIAN_POINT('',(181.95,254.6,103.4));
#818=CARTESIAN_POINT('',(185.9,183.7,103.4));
#819=CARTESIAN_POINT('',(164.9,183.7,103.4));
#820=CARTESIAN_POINT('',(195.3,66.4,103.4));
#821=CARTESIAN_POINT('',(207.2,66.4,103.4));
#822=CARTESIAN_POINT('',(207.2,154.55,103.4));
#823=CARTESIAN_POINT('',(207.2,242.7,103.4));
#824=CARTESIAN_POINT('',(195.3,242.7,103.4));
#825=CARTESIAN_POINT('',(168.6,242.7,103.4));
#826=CARTESIAN_POINT('',(168.6,66.4,103.4));
#827=CARTESIAN_POINT('',(181.95,154.55,103.4));
#828=CARTESIAN_POINT('',(207.2,66.4,141.3));
#829=CARTESIAN_POINT('',(207.2,242.7,103.4));
#830=CARTESIAN_POINT('',(207.2,154.55,103.4));
#831=CARTESIAN_POINT('',(195.3,66.4,103.4));
#832=CARTESIAN_POINT('',(168.6,242.7,103.4));
#833=CARTESIAN_POINT('',(168.6,66.4,103.4));
#834=CARTESIAN_POINT('',(195.3,242.7,103.4));
#835=CARTESIAN_POINT('',(185.9,183.7,141.35));
#836=MECHANICAL_DESIGN_GEOMETRIC_PRESENTATION_REPRESENTATION('',(#24),#837);
#837=(
GEOMETRIC_REPRESENTATION_CONTEXT(3)
GLOBAL_UNCERTAINTY_ASSIGNED_CONTEXT((#838))
GLOBAL_UNIT_ASSIGNED_CONTEXT((#844,#840,#839))
REPRESENTATION_CONTEXT('featured_part_07232','TOP_LEVEL_ASSEMBLY_PART')
);
#838=UNCERTAINTY_MEASURE_WITH_UNIT(LENGTH_MEASURE(2.E-5),#844,
'DISTANCE_ACCURACY_VALUE','Maximum Tolerance applied to model');
#839=(
NAMED_UNIT(*)
SI_UNIT($,.STERADIAN.)
SOLID_ANGLE_UNIT()
);
#840=(
CONVERSION_BASED_UNIT('DEGREE',#842)
NAMED_UNIT(#841)
PLANE_ANGLE_UNIT()
);
#841=DIMENSIONAL_EXPONENTS(0.,0.,0.,0.,0.,0.,0.);
#842=PLANE_ANGLE_MEASURE_WITH_UNIT(PLANE_ANGLE_MEASURE(0.0174532925),#843);
#843=(
NAMED_UNIT(*)
PLANE_ANGLE_UNIT()
SI_UNIT($,.RADIAN.)
);
#844=(
LENGTH_UNIT()
NAMED_UNIT(*)
SI_UNIT(.MILLI.,.METRE.)
);
ENDSEC;
END-ISO-10303-21;
