ISO-10303-21;
HEADER;
/* Generated by software containing ST-Developer
 * from STEP Tools, Inc. (www.steptools.com) 
 */
/* OPTION: using custom schema-name function */

FILE_DESCRIPTION(
/* description */ (''),
/* implementation_level */ '2;1');

FILE_NAME(
/* name */ 'featured_part_00263.stp',
/* time_stamp */ '2026-06-30T21:26:11-04:00',
/* author */ (''),
/* organization */ (''),
/* preprocessor_version */ 'ST-DEVELOPER v20.1',
/* originating_system */ 'SIEMENS PLM Software NX2512.6002',
/* authorisation */ '');

FILE_SCHEMA (('AUTOMOTIVE_DESIGN { 1 0 10303 214 3 1 1 1 }'));
ENDSEC;

DATA;
#10=SHAPE_REPRESENTATION_RELATIONSHIP('None',
'relationship between featured_part_00263-None and featured_part_00263
-None',#22,#11);
#11=ADVANCED_BREP_SHAPE_REPRESENTATION('featured_part_00263-None',(#32),
#926);
#12=SHAPE_DEFINITION_REPRESENTATION(#13,#22);
#13=PRODUCT_DEFINITION_SHAPE('','',#14);
#14=PRODUCT_DEFINITION(' ','',#16,#15);
#15=PRODUCT_DEFINITION_CONTEXT('part definition',#21,'design');
#16=PRODUCT_DEFINITION_FORMATION_WITH_SPECIFIED_SOURCE(' ',' ',#18,
 .NOT_KNOWN.);
#17=PRODUCT_RELATED_PRODUCT_CATEGORY('part','',(#18));
#18=PRODUCT('featured_part_00263','featured_part_00263',' ',(#19));
#19=PRODUCT_CONTEXT(' ',#21,'mechanical');
#20=APPLICATION_PROTOCOL_DEFINITION('international standard',
'automotive_design',2010,#21);
#21=APPLICATION_CONTEXT(
'core data for automotive mechanical design processes');
#22=SHAPE_REPRESENTATION('featured_part_00263-None',(#561),#926);
#23=PRESENTATION_LAYER_ASSIGNMENT('1','Layer 1',(#32));
#24=STYLED_ITEM('',(#25),#32);
#25=PRESENTATION_STYLE_ASSIGNMENT((#26));
#26=SURFACE_STYLE_USAGE(.BOTH.,#27);
#27=SURFACE_SIDE_STYLE('',(#28));
#28=SURFACE_STYLE_FILL_AREA(#29);
#29=FILL_AREA_STYLE('',(#30));
#30=FILL_AREA_STYLE_COLOUR('',#31);
#31=COLOUR_RGB('medium steel',0.611764705882353,0.658823529411765,0.670588235294118);
#32=MANIFOLD_SOLID_BREP('',#33);
#33=CLOSED_SHELL('',(#69,#70,#71,#72,#73,#74,#75,#76,#77,#78,#79,#80,#81,
#82,#83,#84,#85,#86,#87,#88,#89,#90,#91,#92,#93,#94,#95,#96,#97,#98,#99));
#34=CYLINDRICAL_SURFACE('',#588,14.);
#35=CYLINDRICAL_SURFACE('',#598,9.5);
#36=CYLINDRICAL_SURFACE('',#599,9.5);
#37=CYLINDRICAL_SURFACE('',#600,9.5);
#38=CYLINDRICAL_SURFACE('',#601,9.5);
#39=CYLINDRICAL_SURFACE('',#604,4.75);
#40=CYLINDRICAL_SURFACE('',#607,3.85);
#41=CYLINDRICAL_SURFACE('',#608,6.65);
#42=CYLINDRICAL_SURFACE('',#610,5.1);
#43=CYLINDRICAL_SURFACE('',#614,5.75);
#44=ELLIPSE('',#574,5.44472221513641,3.85);
#45=ELLIPSE('',#575,6.7175144212722,4.75);
#46=ELLIPSE('',#577,8.13172798364529,5.75);
#47=FACE_OUTER_BOUND('',#142,.T.);
#48=FACE_OUTER_BOUND('',#143,.T.);
#49=FACE_OUTER_BOUND('',#144,.T.);
#50=FACE_OUTER_BOUND('',#147,.T.);
#51=FACE_OUTER_BOUND('',#148,.T.);
#52=FACE_OUTER_BOUND('',#151,.T.);
#53=FACE_OUTER_BOUND('',#152,.T.);
#54=FACE_OUTER_BOUND('',#153,.T.);
#55=FACE_OUTER_BOUND('',#157,.T.);
#56=FACE_OUTER_BOUND('',#158,.T.);
#57=FACE_OUTER_BOUND('',#159,.T.);
#58=FACE_OUTER_BOUND('',#160,.T.);
#59=FACE_OUTER_BOUND('',#161,.T.);
#60=FACE_OUTER_BOUND('',#162,.T.);
#61=FACE_OUTER_BOUND('',#163,.T.);
#62=FACE_OUTER_BOUND('',#164,.T.);
#63=FACE_OUTER_BOUND('',#165,.T.);
#64=FACE_OUTER_BOUND('',#166,.T.);
#65=FACE_OUTER_BOUND('',#167,.T.);
#66=FACE_OUTER_BOUND('',#170,.T.);
#67=FACE_OUTER_BOUND('',#177,.T.);
#68=FACE_OUTER_BOUND('',#178,.T.);
#69=ADVANCED_FACE('',(#121,#122),#100,.T.);
#70=ADVANCED_FACE('',(#47),#101,.T.);
#71=ADVANCED_FACE('',(#48),#102,.T.);
#72=ADVANCED_FACE('',(#49),#103,.T.);
#73=ADVANCED_FACE('',(#123,#124),#104,.T.);
#74=ADVANCED_FACE('',(#50),#105,.T.);
#75=ADVANCED_FACE('',(#51),#106,.F.);
#76=ADVANCED_FACE('',(#125,#126),#107,.F.);
#77=ADVANCED_FACE('',(#52),#108,.F.);
#78=ADVANCED_FACE('',(#53),#109,.F.);
#79=ADVANCED_FACE('',(#54),#110,.F.);
#80=ADVANCED_FACE('',(#127,#128,#129),#111,.F.);
#81=ADVANCED_FACE('',(#55),#34,.F.);
#82=ADVANCED_FACE('',(#56),#112,.F.);
#83=ADVANCED_FACE('',(#57),#113,.F.);
#84=ADVANCED_FACE('',(#58),#114,.F.);
#85=ADVANCED_FACE('',(#59),#115,.F.);
#86=ADVANCED_FACE('',(#60),#116,.F.);
#87=ADVANCED_FACE('',(#61),#35,.F.);
#88=ADVANCED_FACE('',(#62),#36,.F.);
#89=ADVANCED_FACE('',(#63),#37,.F.);
#90=ADVANCED_FACE('',(#64),#38,.F.);
#91=ADVANCED_FACE('',(#65),#117,.F.);
#92=ADVANCED_FACE('',(#130,#131),#39,.F.);
#93=ADVANCED_FACE('',(#66),#118,.F.);
#94=ADVANCED_FACE('',(#132,#133),#40,.F.);
#95=ADVANCED_FACE('',(#134,#135),#41,.F.);
#96=ADVANCED_FACE('',(#136,#137),#42,.F.);
#97=ADVANCED_FACE('',(#67),#119,.F.);
#98=ADVANCED_FACE('',(#68),#120,.F.);
#99=ADVANCED_FACE('',(#138,#139),#43,.F.);
#100=PLANE('',#566);
#101=PLANE('',#567);
#102=PLANE('',#568);
#103=PLANE('',#569);
#104=PLANE('',#571);
#105=PLANE('',#572);
#106=PLANE('',#573);
#107=PLANE('',#576);
#108=PLANE('',#578);
#109=PLANE('',#579);
#110=PLANE('',#580);
#111=PLANE('',#587);
#112=PLANE('',#589);
#113=PLANE('',#590);
#114=PLANE('',#591);
#115=PLANE('',#592);
#116=PLANE('',#597);
#117=PLANE('',#603);
#118=PLANE('',#606);
#119=PLANE('',#611);
#120=PLANE('',#613);
#121=FACE_BOUND('',#140,.T.);
#122=FACE_BOUND('',#141,.T.);
#123=FACE_BOUND('',#145,.T.);
#124=FACE_BOUND('',#146,.T.);
#125=FACE_BOUND('',#149,.T.);
#126=FACE_BOUND('',#150,.T.);
#127=FACE_BOUND('',#154,.T.);
#128=FACE_BOUND('',#155,.T.);
#129=FACE_BOUND('',#156,.T.);
#130=FACE_BOUND('',#168,.T.);
#131=FACE_BOUND('',#169,.T.);
#132=FACE_BOUND('',#171,.T.);
#133=FACE_BOUND('',#172,.T.);
#134=FACE_BOUND('',#173,.T.);
#135=FACE_BOUND('',#174,.T.);
#136=FACE_BOUND('',#175,.T.);
#137=FACE_BOUND('',#176,.T.);
#138=FACE_BOUND('',#179,.T.);
#139=FACE_BOUND('',#180,.T.);
#140=EDGE_LOOP('',(#279,#280,#281,#282,#283,#284,#285,#286,#287,#288,#289));
#141=EDGE_LOOP('',(#290));
#142=EDGE_LOOP('',(#291,#292,#293,#294,#295,#296,#297));
#143=EDGE_LOOP('',(#298,#299,#300,#301));
#144=EDGE_LOOP('',(#302,#303,#304,#305,#306));
#145=EDGE_LOOP('',(#307));
#146=EDGE_LOOP('',(#308,#309,#310,#311));
#147=EDGE_LOOP('',(#312,#313,#314,#315,#316,#317,#318));
#148=EDGE_LOOP('',(#319,#320,#321,#322,#323));
#149=EDGE_LOOP('',(#324));
#150=EDGE_LOOP('',(#325,#326,#327,#328,#329,#330,#331));
#151=EDGE_LOOP('',(#332,#333,#334,#335,#336,#337));
#152=EDGE_LOOP('',(#338,#339,#340,#341));
#153=EDGE_LOOP('',(#342,#343,#344,#345,#346));
#154=EDGE_LOOP('',(#347));
#155=EDGE_LOOP('',(#348,#349,#350,#351,#352,#353,#354,#355));
#156=EDGE_LOOP('',(#356,#357,#358,#359,#360));
#157=EDGE_LOOP('',(#361,#362,#363,#364));
#158=EDGE_LOOP('',(#365,#366,#367,#368));
#159=EDGE_LOOP('',(#369,#370,#371,#372));
#160=EDGE_LOOP('',(#373,#374,#375,#376));
#161=EDGE_LOOP('',(#377,#378,#379,#380));
#162=EDGE_LOOP('',(#381,#382,#383,#384,#385,#386,#387,#388));
#163=EDGE_LOOP('',(#389,#390,#391,#392));
#164=EDGE_LOOP('',(#393,#394,#395,#396));
#165=EDGE_LOOP('',(#397,#398,#399,#400));
#166=EDGE_LOOP('',(#401,#402,#403,#404));
#167=EDGE_LOOP('',(#405));
#168=EDGE_LOOP('',(#406,#407));
#169=EDGE_LOOP('',(#408));
#170=EDGE_LOOP('',(#409));
#171=EDGE_LOOP('',(#410));
#172=EDGE_LOOP('',(#411));
#173=EDGE_LOOP('',(#412));
#174=EDGE_LOOP('',(#413));
#175=EDGE_LOOP('',(#414));
#176=EDGE_LOOP('',(#415));
#177=EDGE_LOOP('',(#416));
#178=EDGE_LOOP('',(#417));
#179=EDGE_LOOP('',(#418,#419));
#180=EDGE_LOOP('',(#420));
#181=LINE('',#776,#230);
#182=LINE('',#778,#231);
#183=LINE('',#782,#232);
#184=LINE('',#784,#233);
#185=LINE('',#786,#234);
#186=LINE('',#788,#235);
#187=LINE('',#792,#236);
#188=LINE('',#794,#237);
#189=LINE('',#798,#238);
#190=LINE('',#800,#239);
#191=LINE('',#802,#240);
#192=LINE('',#804,#241);
#193=LINE('',#806,#242);
#194=LINE('',#808,#243);
#195=LINE('',#810,#244);
#196=LINE('',#812,#245);
#197=LINE('',#814,#246);
#198=LINE('',#816,#247);
#199=LINE('',#818,#248);
#200=LINE('',#820,#249);
#201=LINE('',#822,#250);
#202=LINE('',#826,#251);
#203=LINE('',#828,#252);
#204=LINE('',#831,#253);
#205=LINE('',#832,#254);
#206=LINE('',#834,#255);
#207=LINE('',#836,#256);
#208=LINE('',#841,#257);
#209=LINE('',#844,#258);
#210=LINE('',#846,#259);
#211=LINE('',#848,#260);
#212=LINE('',#850,#261);
#213=LINE('',#852,#262);
#214=LINE('',#856,#263);
#215=LINE('',#861,#264);
#216=LINE('',#865,#265);
#217=LINE('',#869,#266);
#218=LINE('',#875,#267);
#219=LINE('',#878,#268);
#220=LINE('',#879,#269);
#221=LINE('',#881,#270);
#222=LINE('',#883,#271);
#223=LINE('',#885,#272);
#224=LINE('',#887,#273);
#225=LINE('',#890,#274);
#226=LINE('',#891,#275);
#227=LINE('',#893,#276);
#228=LINE('',#896,#277);
#229=LINE('',#897,#278);
#230=VECTOR('',#619,1.);
#231=VECTOR('',#620,1.);
#232=VECTOR('',#623,1.);
#233=VECTOR('',#624,1.);
#234=VECTOR('',#625,1.);
#235=VECTOR('',#626,1.);
#236=VECTOR('',#629,1.);
#237=VECTOR('',#630,1.);
#238=VECTOR('',#635,1.);
#239=VECTOR('',#636,1.);
#240=VECTOR('',#637,1.);
#241=VECTOR('',#638,1.);
#242=VECTOR('',#639,1.);
#243=VECTOR('',#640,1.);
#244=VECTOR('',#643,1.);
#245=VECTOR('',#644,1.);
#246=VECTOR('',#645,1.);
#247=VECTOR('',#648,1.);
#248=VECTOR('',#649,1.);
#249=VECTOR('',#650,1.);
#250=VECTOR('',#651,1.);
#251=VECTOR('',#656,1.);
#252=VECTOR('',#659,1.);
#253=VECTOR('',#660,1.);
#254=VECTOR('',#661,1.);
#255=VECTOR('',#662,1.);
#256=VECTOR('',#665,1.);
#257=VECTOR('',#672,1.);
#258=VECTOR('',#677,1.);
#259=VECTOR('',#680,1.);
#260=VECTOR('',#681,1.);
#261=VECTOR('',#684,1.);
#262=VECTOR('',#685,1.);
#263=VECTOR('',#690,1.);
#264=VECTOR('',#693,1.);
#265=VECTOR('',#696,1.);
#266=VECTOR('',#699,1.);
#267=VECTOR('',#708,1.);
#268=VECTOR('',#709,1.);
#269=VECTOR('',#710,1.);
#270=VECTOR('',#713,1.);
#271=VECTOR('',#714,1.);
#272=VECTOR('',#715,1.);
#273=VECTOR('',#718,1.);
#274=VECTOR('',#719,1.);
#275=VECTOR('',#720,1.);
#276=VECTOR('',#723,1.);
#277=VECTOR('',#724,1.);
#278=VECTOR('',#725,1.);
#279=ORIENTED_EDGE('',*,*,#471,.F.);
#280=ORIENTED_EDGE('',*,*,#472,.T.);
#281=ORIENTED_EDGE('',*,*,#473,.T.);
#282=ORIENTED_EDGE('',*,*,#474,.F.);
#283=ORIENTED_EDGE('',*,*,#475,.T.);
#284=ORIENTED_EDGE('',*,*,#476,.T.);
#285=ORIENTED_EDGE('',*,*,#477,.F.);
#286=ORIENTED_EDGE('',*,*,#478,.F.);
#287=ORIENTED_EDGE('',*,*,#479,.T.);
#288=ORIENTED_EDGE('',*,*,#480,.F.);
#289=ORIENTED_EDGE('',*,*,#481,.T.);
#290=ORIENTED_EDGE('',*,*,#482,.F.);
#291=ORIENTED_EDGE('',*,*,#483,.T.);
#292=ORIENTED_EDGE('',*,*,#477,.T.);
#293=ORIENTED_EDGE('',*,*,#484,.T.);
#294=ORIENTED_EDGE('',*,*,#485,.F.);
#295=ORIENTED_EDGE('',*,*,#486,.T.);
#296=ORIENTED_EDGE('',*,*,#487,.T.);
#297=ORIENTED_EDGE('',*,*,#488,.F.);
#298=ORIENTED_EDGE('',*,*,#485,.T.);
#299=ORIENTED_EDGE('',*,*,#489,.T.);
#300=ORIENTED_EDGE('',*,*,#490,.F.);
#301=ORIENTED_EDGE('',*,*,#491,.T.);
#302=ORIENTED_EDGE('',*,*,#492,.T.);
#303=ORIENTED_EDGE('',*,*,#493,.T.);
#304=ORIENTED_EDGE('',*,*,#494,.F.);
#305=ORIENTED_EDGE('',*,*,#495,.T.);
#306=ORIENTED_EDGE('',*,*,#490,.T.);
#307=ORIENTED_EDGE('',*,*,#496,.F.);
#308=ORIENTED_EDGE('',*,*,#497,.F.);
#309=ORIENTED_EDGE('',*,*,#486,.F.);
#310=ORIENTED_EDGE('',*,*,#491,.F.);
#311=ORIENTED_EDGE('',*,*,#495,.F.);
#312=ORIENTED_EDGE('',*,*,#498,.F.);
#313=ORIENTED_EDGE('',*,*,#499,.F.);
#314=ORIENTED_EDGE('',*,*,#487,.F.);
#315=ORIENTED_EDGE('',*,*,#497,.T.);
#316=ORIENTED_EDGE('',*,*,#494,.T.);
#317=ORIENTED_EDGE('',*,*,#500,.T.);
#318=ORIENTED_EDGE('',*,*,#501,.T.);
#319=ORIENTED_EDGE('',*,*,#476,.F.);
#320=ORIENTED_EDGE('',*,*,#502,.T.);
#321=ORIENTED_EDGE('',*,*,#492,.F.);
#322=ORIENTED_EDGE('',*,*,#489,.F.);
#323=ORIENTED_EDGE('',*,*,#484,.F.);
#324=ORIENTED_EDGE('',*,*,#503,.F.);
#325=ORIENTED_EDGE('',*,*,#504,.F.);
#326=ORIENTED_EDGE('',*,*,#473,.F.);
#327=ORIENTED_EDGE('',*,*,#505,.T.);
#328=ORIENTED_EDGE('',*,*,#500,.F.);
#329=ORIENTED_EDGE('',*,*,#493,.F.);
#330=ORIENTED_EDGE('',*,*,#502,.F.);
#331=ORIENTED_EDGE('',*,*,#475,.F.);
#332=ORIENTED_EDGE('',*,*,#506,.F.);
#333=ORIENTED_EDGE('',*,*,#481,.F.);
#334=ORIENTED_EDGE('',*,*,#507,.F.);
#335=ORIENTED_EDGE('',*,*,#501,.F.);
#336=ORIENTED_EDGE('',*,*,#505,.F.);
#337=ORIENTED_EDGE('',*,*,#472,.F.);
#338=ORIENTED_EDGE('',*,*,#508,.T.);
#339=ORIENTED_EDGE('',*,*,#509,.T.);
#340=ORIENTED_EDGE('',*,*,#478,.T.);
#341=ORIENTED_EDGE('',*,*,#483,.F.);
#342=ORIENTED_EDGE('',*,*,#480,.T.);
#343=ORIENTED_EDGE('',*,*,#510,.T.);
#344=ORIENTED_EDGE('',*,*,#511,.T.);
#345=ORIENTED_EDGE('',*,*,#498,.T.);
#346=ORIENTED_EDGE('',*,*,#507,.T.);
#347=ORIENTED_EDGE('',*,*,#512,.T.);
#348=ORIENTED_EDGE('',*,*,#513,.T.);
#349=ORIENTED_EDGE('',*,*,#514,.T.);
#350=ORIENTED_EDGE('',*,*,#515,.T.);
#351=ORIENTED_EDGE('',*,*,#516,.T.);
#352=ORIENTED_EDGE('',*,*,#517,.T.);
#353=ORIENTED_EDGE('',*,*,#518,.T.);
#354=ORIENTED_EDGE('',*,*,#519,.T.);
#355=ORIENTED_EDGE('',*,*,#520,.T.);
#356=ORIENTED_EDGE('',*,*,#511,.F.);
#357=ORIENTED_EDGE('',*,*,#521,.T.);
#358=ORIENTED_EDGE('',*,*,#508,.F.);
#359=ORIENTED_EDGE('',*,*,#488,.T.);
#360=ORIENTED_EDGE('',*,*,#499,.T.);
#361=ORIENTED_EDGE('',*,*,#479,.F.);
#362=ORIENTED_EDGE('',*,*,#509,.F.);
#363=ORIENTED_EDGE('',*,*,#521,.F.);
#364=ORIENTED_EDGE('',*,*,#510,.F.);
#365=ORIENTED_EDGE('',*,*,#522,.T.);
#366=ORIENTED_EDGE('',*,*,#523,.T.);
#367=ORIENTED_EDGE('',*,*,#517,.F.);
#368=ORIENTED_EDGE('',*,*,#524,.T.);
#369=ORIENTED_EDGE('',*,*,#519,.F.);
#370=ORIENTED_EDGE('',*,*,#525,.T.);
#371=ORIENTED_EDGE('',*,*,#526,.T.);
#372=ORIENTED_EDGE('',*,*,#527,.T.);
#373=ORIENTED_EDGE('',*,*,#528,.T.);
#374=ORIENTED_EDGE('',*,*,#529,.T.);
#375=ORIENTED_EDGE('',*,*,#513,.F.);
#376=ORIENTED_EDGE('',*,*,#530,.T.);
#377=ORIENTED_EDGE('',*,*,#531,.T.);
#378=ORIENTED_EDGE('',*,*,#532,.T.);
#379=ORIENTED_EDGE('',*,*,#515,.F.);
#380=ORIENTED_EDGE('',*,*,#533,.T.);
#381=ORIENTED_EDGE('',*,*,#526,.F.);
#382=ORIENTED_EDGE('',*,*,#534,.T.);
#383=ORIENTED_EDGE('',*,*,#522,.F.);
#384=ORIENTED_EDGE('',*,*,#535,.T.);
#385=ORIENTED_EDGE('',*,*,#531,.F.);
#386=ORIENTED_EDGE('',*,*,#536,.T.);
#387=ORIENTED_EDGE('',*,*,#528,.F.);
#388=ORIENTED_EDGE('',*,*,#537,.T.);
#389=ORIENTED_EDGE('',*,*,#518,.F.);
#390=ORIENTED_EDGE('',*,*,#523,.F.);
#391=ORIENTED_EDGE('',*,*,#534,.F.);
#392=ORIENTED_EDGE('',*,*,#525,.F.);
#393=ORIENTED_EDGE('',*,*,#516,.F.);
#394=ORIENTED_EDGE('',*,*,#532,.F.);
#395=ORIENTED_EDGE('',*,*,#535,.F.);
#396=ORIENTED_EDGE('',*,*,#524,.F.);
#397=ORIENTED_EDGE('',*,*,#514,.F.);
#398=ORIENTED_EDGE('',*,*,#529,.F.);
#399=ORIENTED_EDGE('',*,*,#536,.F.);
#400=ORIENTED_EDGE('',*,*,#533,.F.);
#401=ORIENTED_EDGE('',*,*,#520,.F.);
#402=ORIENTED_EDGE('',*,*,#527,.F.);
#403=ORIENTED_EDGE('',*,*,#537,.F.);
#404=ORIENTED_EDGE('',*,*,#530,.F.);
#405=ORIENTED_EDGE('',*,*,#538,.F.);
#406=ORIENTED_EDGE('',*,*,#474,.T.);
#407=ORIENTED_EDGE('',*,*,#504,.T.);
#408=ORIENTED_EDGE('',*,*,#538,.T.);
#409=ORIENTED_EDGE('',*,*,#539,.F.);
#410=ORIENTED_EDGE('',*,*,#503,.T.);
#411=ORIENTED_EDGE('',*,*,#539,.T.);
#412=ORIENTED_EDGE('',*,*,#482,.T.);
#413=ORIENTED_EDGE('',*,*,#496,.T.);
#414=ORIENTED_EDGE('',*,*,#540,.T.);
#415=ORIENTED_EDGE('',*,*,#512,.F.);
#416=ORIENTED_EDGE('',*,*,#540,.F.);
#417=ORIENTED_EDGE('',*,*,#541,.F.);
#418=ORIENTED_EDGE('',*,*,#471,.T.);
#419=ORIENTED_EDGE('',*,*,#506,.T.);
#420=ORIENTED_EDGE('',*,*,#541,.T.);
#421=VERTEX_POINT('',#774);
#422=VERTEX_POINT('',#775);
#423=VERTEX_POINT('',#777);
#424=VERTEX_POINT('',#779);
#425=VERTEX_POINT('',#781);
#426=VERTEX_POINT('',#783);
#427=VERTEX_POINT('',#785);
#428=VERTEX_POINT('',#787);
#429=VERTEX_POINT('',#789);
#430=VERTEX_POINT('',#791);
#431=VERTEX_POINT('',#793);
#432=VERTEX_POINT('',#796);
#433=VERTEX_POINT('',#799);
#434=VERTEX_POINT('',#801);
#435=VERTEX_POINT('',#803);
#436=VERTEX_POINT('',#805);
#437=VERTEX_POINT('',#807);
#438=VERTEX_POINT('',#811);
#439=VERTEX_POINT('',#813);
#440=VERTEX_POINT('',#817);
#441=VERTEX_POINT('',#819);
#442=VERTEX_POINT('',#821);
#443=VERTEX_POINT('',#825);
#444=VERTEX_POINT('',#829);
#445=VERTEX_POINT('',#830);
#446=VERTEX_POINT('',#833);
#447=VERTEX_POINT('',#839);
#448=VERTEX_POINT('',#847);
#449=VERTEX_POINT('',#851);
#450=VERTEX_POINT('',#855);
#451=VERTEX_POINT('',#857);
#452=VERTEX_POINT('',#858);
#453=VERTEX_POINT('',#860);
#454=VERTEX_POINT('',#862);
#455=VERTEX_POINT('',#864);
#456=VERTEX_POINT('',#866);
#457=VERTEX_POINT('',#868);
#458=VERTEX_POINT('',#870);
#459=VERTEX_POINT('',#876);
#460=VERTEX_POINT('',#877);
#461=VERTEX_POINT('',#882);
#462=VERTEX_POINT('',#884);
#463=VERTEX_POINT('',#888);
#464=VERTEX_POINT('',#889);
#465=VERTEX_POINT('',#894);
#466=VERTEX_POINT('',#895);
#467=VERTEX_POINT('',#909);
#468=VERTEX_POINT('',#913);
#469=VERTEX_POINT('',#918);
#470=VERTEX_POINT('',#922);
#471=EDGE_CURVE('',#421,#422,#542,.T.);
#472=EDGE_CURVE('',#421,#423,#181,.T.);
#473=EDGE_CURVE('',#423,#424,#182,.T.);
#474=EDGE_CURVE('',#425,#424,#543,.T.);
#475=EDGE_CURVE('',#425,#426,#183,.T.);
#476=EDGE_CURVE('',#426,#427,#184,.T.);
#477=EDGE_CURVE('',#428,#427,#185,.T.);
#478=EDGE_CURVE('',#429,#428,#186,.T.);
#479=EDGE_CURVE('',#429,#430,#544,.T.);
#480=EDGE_CURVE('',#431,#430,#187,.T.);
#481=EDGE_CURVE('',#431,#422,#188,.T.);
#482=EDGE_CURVE('',#432,#432,#545,.T.);
#483=EDGE_CURVE('',#433,#428,#189,.T.);
#484=EDGE_CURVE('',#427,#434,#190,.T.);
#485=EDGE_CURVE('',#435,#434,#191,.T.);
#486=EDGE_CURVE('',#435,#436,#192,.T.);
#487=EDGE_CURVE('',#436,#437,#193,.T.);
#488=EDGE_CURVE('',#433,#437,#194,.T.);
#489=EDGE_CURVE('',#434,#438,#195,.T.);
#490=EDGE_CURVE('',#439,#438,#196,.T.);
#491=EDGE_CURVE('',#439,#435,#197,.T.);
#492=EDGE_CURVE('',#438,#440,#198,.T.);
#493=EDGE_CURVE('',#440,#441,#199,.T.);
#494=EDGE_CURVE('',#442,#441,#200,.T.);
#495=EDGE_CURVE('',#442,#439,#201,.T.);
#496=EDGE_CURVE('',#443,#443,#546,.T.);
#497=EDGE_CURVE('',#436,#442,#202,.T.);
#498=EDGE_CURVE('',#444,#445,#203,.T.);
#499=EDGE_CURVE('',#437,#444,#204,.T.);
#500=EDGE_CURVE('',#441,#446,#205,.T.);
#501=EDGE_CURVE('',#446,#445,#206,.T.);
#502=EDGE_CURVE('',#426,#440,#207,.T.);
#503=EDGE_CURVE('',#447,#447,#44,.T.);
#504=EDGE_CURVE('',#424,#425,#45,.T.);
#505=EDGE_CURVE('',#423,#446,#208,.T.);
#506=EDGE_CURVE('',#422,#421,#46,.T.);
#507=EDGE_CURVE('',#445,#431,#209,.T.);
#508=EDGE_CURVE('',#433,#448,#210,.T.);
#509=EDGE_CURVE('',#448,#429,#211,.T.);
#510=EDGE_CURVE('',#430,#449,#212,.T.);
#511=EDGE_CURVE('',#449,#444,#213,.T.);
#512=EDGE_CURVE('',#450,#450,#547,.T.);
#513=EDGE_CURVE('',#451,#452,#214,.T.);
#514=EDGE_CURVE('',#452,#453,#548,.T.);
#515=EDGE_CURVE('',#453,#454,#215,.T.);
#516=EDGE_CURVE('',#454,#455,#549,.T.);
#517=EDGE_CURVE('',#455,#456,#216,.T.);
#518=EDGE_CURVE('',#456,#457,#550,.T.);
#519=EDGE_CURVE('',#457,#458,#217,.T.);
#520=EDGE_CURVE('',#458,#451,#551,.T.);
#521=EDGE_CURVE('',#449,#448,#552,.T.);
#522=EDGE_CURVE('',#459,#460,#218,.T.);
#523=EDGE_CURVE('',#460,#456,#219,.T.);
#524=EDGE_CURVE('',#455,#459,#220,.T.);
#525=EDGE_CURVE('',#457,#461,#221,.T.);
#526=EDGE_CURVE('',#461,#462,#222,.T.);
#527=EDGE_CURVE('',#462,#458,#223,.T.);
#528=EDGE_CURVE('',#463,#464,#224,.T.);
#529=EDGE_CURVE('',#464,#452,#225,.T.);
#530=EDGE_CURVE('',#451,#463,#226,.T.);
#531=EDGE_CURVE('',#465,#466,#227,.T.);
#532=EDGE_CURVE('',#466,#454,#228,.T.);
#533=EDGE_CURVE('',#453,#465,#229,.T.);
#534=EDGE_CURVE('',#461,#460,#553,.T.);
#535=EDGE_CURVE('',#459,#466,#554,.T.);
#536=EDGE_CURVE('',#465,#464,#555,.T.);
#537=EDGE_CURVE('',#463,#462,#556,.T.);
#538=EDGE_CURVE('',#467,#467,#557,.T.);
#539=EDGE_CURVE('',#468,#468,#558,.T.);
#540=EDGE_CURVE('',#469,#469,#559,.T.);
#541=EDGE_CURVE('',#470,#470,#560,.T.);
#542=CIRCLE('',#562,5.75);
#543=CIRCLE('',#563,4.75);
#544=CIRCLE('',#564,14.);
#545=CIRCLE('',#565,6.65);
#546=CIRCLE('',#570,6.65);
#547=CIRCLE('',#581,5.1);
#548=CIRCLE('',#582,9.5);
#549=CIRCLE('',#583,9.5);
#550=CIRCLE('',#584,9.5);
#551=CIRCLE('',#585,9.5);
#552=CIRCLE('',#586,14.);
#553=CIRCLE('',#593,9.5);
#554=CIRCLE('',#594,9.5);
#555=CIRCLE('',#595,9.5);
#556=CIRCLE('',#596,9.5);
#557=CIRCLE('',#602,4.75);
#558=CIRCLE('',#605,3.85);
#559=CIRCLE('',#609,5.1);
#560=CIRCLE('',#612,5.75);
#561=AXIS2_PLACEMENT_3D('',#772,#615,#616);
#562=AXIS2_PLACEMENT_3D('',#773,#617,#618);
#563=AXIS2_PLACEMENT_3D('',#780,#621,#622);
#564=AXIS2_PLACEMENT_3D('',#790,#627,#628);
#565=AXIS2_PLACEMENT_3D('',#795,#631,#632);
#566=AXIS2_PLACEMENT_3D('',#797,#633,#634);
#567=AXIS2_PLACEMENT_3D('',#809,#641,#642);
#568=AXIS2_PLACEMENT_3D('',#815,#646,#647);
#569=AXIS2_PLACEMENT_3D('',#823,#652,#653);
#570=AXIS2_PLACEMENT_3D('',#824,#654,#655);
#571=AXIS2_PLACEMENT_3D('',#827,#657,#658);
#572=AXIS2_PLACEMENT_3D('',#835,#663,#664);
#573=AXIS2_PLACEMENT_3D('',#837,#666,#667);
#574=AXIS2_PLACEMENT_3D('',#838,#668,#669);
#575=AXIS2_PLACEMENT_3D('',#840,#670,#671);
#576=AXIS2_PLACEMENT_3D('',#842,#673,#674);
#577=AXIS2_PLACEMENT_3D('',#843,#675,#676);
#578=AXIS2_PLACEMENT_3D('',#845,#678,#679);
#579=AXIS2_PLACEMENT_3D('',#849,#682,#683);
#580=AXIS2_PLACEMENT_3D('',#853,#686,#687);
#581=AXIS2_PLACEMENT_3D('',#854,#688,#689);
#582=AXIS2_PLACEMENT_3D('',#859,#691,#692);
#583=AXIS2_PLACEMENT_3D('',#863,#694,#695);
#584=AXIS2_PLACEMENT_3D('',#867,#697,#698);
#585=AXIS2_PLACEMENT_3D('',#871,#700,#701);
#586=AXIS2_PLACEMENT_3D('',#872,#702,#703);
#587=AXIS2_PLACEMENT_3D('',#873,#704,#705);
#588=AXIS2_PLACEMENT_3D('',#874,#706,#707);
#589=AXIS2_PLACEMENT_3D('',#880,#711,#712);
#590=AXIS2_PLACEMENT_3D('',#886,#716,#717);
#591=AXIS2_PLACEMENT_3D('',#892,#721,#722);
#592=AXIS2_PLACEMENT_3D('',#898,#726,#727);
#593=AXIS2_PLACEMENT_3D('',#899,#728,#729);
#594=AXIS2_PLACEMENT_3D('',#900,#730,#731);
#595=AXIS2_PLACEMENT_3D('',#901,#732,#733);
#596=AXIS2_PLACEMENT_3D('',#902,#734,#735);
#597=AXIS2_PLACEMENT_3D('',#903,#736,#737);
#598=AXIS2_PLACEMENT_3D('',#904,#738,#739);
#599=AXIS2_PLACEMENT_3D('',#905,#740,#741);
#600=AXIS2_PLACEMENT_3D('',#906,#742,#743);
#601=AXIS2_PLACEMENT_3D('',#907,#744,#745);
#602=AXIS2_PLACEMENT_3D('',#908,#746,#747);
#603=AXIS2_PLACEMENT_3D('',#910,#748,#749);
#604=AXIS2_PLACEMENT_3D('',#911,#750,#751);
#605=AXIS2_PLACEMENT_3D('',#912,#752,#753);
#606=AXIS2_PLACEMENT_3D('',#914,#754,#755);
#607=AXIS2_PLACEMENT_3D('',#915,#756,#757);
#608=AXIS2_PLACEMENT_3D('',#916,#758,#759);
#609=AXIS2_PLACEMENT_3D('',#917,#760,#761);
#610=AXIS2_PLACEMENT_3D('',#919,#762,#763);
#611=AXIS2_PLACEMENT_3D('',#920,#764,#765);
#612=AXIS2_PLACEMENT_3D('',#921,#766,#767);
#613=AXIS2_PLACEMENT_3D('',#923,#768,#769);
#614=AXIS2_PLACEMENT_3D('',#924,#770,#771);
#615=DIRECTION('',(0.,0.,1.));
#616=DIRECTION('',(1.,0.,0.));
#617=DIRECTION('',(0.,0.,1.));
#618=DIRECTION('',(0.999999999999996,0.,0.));
#619=DIRECTION('',(0.,1.,0.));
#620=DIRECTION('',(-1.,0.,0.));
#621=DIRECTION('',(0.,0.,1.));
#622=DIRECTION('',(1.,0.,0.));
#623=DIRECTION('',(-1.,0.,0.));
#624=DIRECTION('',(0.,-1.,0.));
#625=DIRECTION('',(-1.,0.,0.));
#626=DIRECTION('',(0.,-1.,0.));
#627=DIRECTION('',(0.,0.,-1.));
#628=DIRECTION('',(1.,0.,0.));
#629=DIRECTION('',(-1.,0.,0.));
#630=DIRECTION('',(0.,1.,0.));
#631=DIRECTION('',(0.,0.,1.));
#632=DIRECTION('',(1.,0.,0.));
#633=DIRECTION('',(0.,0.,1.));
#634=DIRECTION('',(1.,0.,0.));
#635=DIRECTION('',(0.,0.,1.));
#636=DIRECTION('',(-0.707106781186548,0.,-0.707106781186548));
#637=DIRECTION('',(0.,0.,1.));
#638=DIRECTION('',(1.,0.,0.));
#639=DIRECTION('',(0.,0.,1.));
#640=DIRECTION('',(1.,0.,0.));
#641=DIRECTION('',(0.,-1.,0.));
#642=DIRECTION('',(0.,0.,-1.));
#643=DIRECTION('',(0.,1.,0.));
#644=DIRECTION('',(0.,0.,1.));
#645=DIRECTION('',(0.,-1.,0.));
#646=DIRECTION('',(-1.,0.,0.));
#647=DIRECTION('',(0.,0.,1.));
#648=DIRECTION('',(0.707106781186548,0.,0.707106781186548));
#649=DIRECTION('',(1.,0.,0.));
#650=DIRECTION('',(0.,0.,1.));
#651=DIRECTION('',(-1.,0.,0.));
#652=DIRECTION('',(0.,1.,0.));
#653=DIRECTION('',(0.,0.,1.));
#654=DIRECTION('',(0.,0.,-1.));
#655=DIRECTION('',(-1.,0.,0.));
#656=DIRECTION('',(0.,1.,0.));
#657=DIRECTION('',(0.,0.,-1.));
#658=DIRECTION('',(-1.,0.,0.));
#659=DIRECTION('',(0.,0.,1.));
#660=DIRECTION('',(0.,1.,0.));
#661=DIRECTION('',(0.,-0.707106781186548,0.707106781186547));
#662=DIRECTION('',(0.,-1.,0.));
#663=DIRECTION('',(1.,0.,0.));
#664=DIRECTION('',(0.,0.,-1.));
#665=DIRECTION('',(-0.577350269189626,0.577350269189626,-0.577350269189626));
#666=DIRECTION('',(0.707106781186547,0.,-0.707106781186547));
#667=DIRECTION('',(0.,1.,0.));
#668=DIRECTION('',(0.,0.707106781186547,0.707106781186548));
#669=DIRECTION('',(0.,0.707106781186548,-0.707106781186547));
#670=DIRECTION('',(0.,0.707106781186547,0.707106781186548));
#671=DIRECTION('',(0.,0.707106781186548,-0.707106781186547));
#672=DIRECTION('',(0.577350269189626,0.577350269189626,-0.577350269189625));
#673=DIRECTION('',(0.,-0.707106781186547,-0.707106781186548));
#674=DIRECTION('',(1.,0.,0.));
#675=DIRECTION('',(0.707106781186547,0.,0.707106781186548));
#676=DIRECTION('',(0.707106781186548,0.,-0.707106781186547));
#677=DIRECTION('',(-0.707106781186548,0.,0.707106781186547));
#678=DIRECTION('',(-0.707106781186547,0.,-0.707106781186548));
#679=DIRECTION('',(0.,-1.,0.));
#680=DIRECTION('',(0.,1.,0.));
#681=DIRECTION('',(0.,0.,1.));
#682=DIRECTION('',(-1.,0.,0.));
#683=DIRECTION('',(0.,0.,1.));
#684=DIRECTION('',(0.,0.,-1.));
#685=DIRECTION('',(1.,0.,0.));
#686=DIRECTION('',(0.,1.,0.));
#687=DIRECTION('',(0.,0.,1.));
#688=DIRECTION('',(0.,0.,-1.));
#689=DIRECTION('',(-0.999999999999999,0.,0.));
#690=DIRECTION('',(1.,0.,0.));
#691=DIRECTION('',(0.,0.,-1.));
#692=DIRECTION('',(-1.,0.,0.));
#693=DIRECTION('',(0.,-1.,0.));
#694=DIRECTION('',(0.,0.,-1.));
#695=DIRECTION('',(-1.,0.,0.));
#696=DIRECTION('',(-1.,0.,0.));
#697=DIRECTION('',(0.,0.,-1.));
#698=DIRECTION('',(-1.,0.,0.));
#699=DIRECTION('',(0.,1.,0.));
#700=DIRECTION('',(0.,0.,-1.));
#701=DIRECTION('',(-1.,0.,0.));
#702=DIRECTION('',(0.,0.,1.));
#703=DIRECTION('',(-1.,0.,0.));
#704=DIRECTION('',(0.,0.,-1.));
#705=DIRECTION('',(-1.,0.,0.));
#706=DIRECTION('',(0.,0.,1.));
#707=DIRECTION('',(1.,0.,0.));
#708=DIRECTION('',(-1.,0.,0.));
#709=DIRECTION('',(0.,0.,1.));
#710=DIRECTION('',(0.,0.,-1.));
#711=DIRECTION('',(0.,-1.,0.));
#712=DIRECTION('',(0.,0.,-1.));
#713=DIRECTION('',(0.,0.,-1.));
#714=DIRECTION('',(0.,1.,0.));
#715=DIRECTION('',(0.,0.,1.));
#716=DIRECTION('',(-1.,0.,0.));
#717=DIRECTION('',(0.,0.,1.));
#718=DIRECTION('',(1.,0.,0.));
#719=DIRECTION('',(0.,0.,1.));
#720=DIRECTION('',(0.,0.,-1.));
#721=DIRECTION('',(0.,1.,0.));
#722=DIRECTION('',(0.,0.,1.));
#723=DIRECTION('',(0.,-1.,0.));
#724=DIRECTION('',(0.,0.,1.));
#725=DIRECTION('',(0.,0.,-1.));
#726=DIRECTION('',(1.,0.,0.));
#727=DIRECTION('',(0.,0.,-1.));
#728=DIRECTION('',(0.,0.,1.));
#729=DIRECTION('',(-1.,0.,0.));
#730=DIRECTION('',(0.,0.,1.));
#731=DIRECTION('',(-1.,0.,0.));
#732=DIRECTION('',(0.,0.,1.));
#733=DIRECTION('',(-1.,0.,0.));
#734=DIRECTION('',(0.,0.,1.));
#735=DIRECTION('',(-1.,0.,0.));
#736=DIRECTION('',(0.,0.,-1.));
#737=DIRECTION('',(-1.,0.,0.));
#738=DIRECTION('',(0.,0.,1.));
#739=DIRECTION('',(1.,0.,0.));
#740=DIRECTION('',(0.,0.,1.));
#741=DIRECTION('',(1.,0.,0.));
#742=DIRECTION('',(0.,0.,1.));
#743=DIRECTION('',(1.,0.,0.));
#744=DIRECTION('',(0.,0.,1.));
#745=DIRECTION('',(1.,0.,0.));
#746=DIRECTION('',(0.,0.,-1.));
#747=DIRECTION('',(1.,0.,0.));
#748=DIRECTION('',(0.,0.,-1.));
#749=DIRECTION('',(-1.,0.,0.));
#750=DIRECTION('',(0.,0.,-1.));
#751=DIRECTION('',(1.,0.,0.));
#752=DIRECTION('',(0.,0.,-1.));
#753=DIRECTION('',(1.00000000000001,0.,0.));
#754=DIRECTION('',(0.,0.,-1.));
#755=DIRECTION('',(-1.,0.,0.));
#756=DIRECTION('',(0.,0.,-1.));
#757=DIRECTION('',(1.00000000000001,0.,0.));
#758=DIRECTION('',(0.,0.,-1.));
#759=DIRECTION('',(1.,0.,0.));
#760=DIRECTION('',(0.,0.,-1.));
#761=DIRECTION('',(0.999999999999999,0.,0.));
#762=DIRECTION('',(0.,0.,-1.));
#763=DIRECTION('',(0.999999999999999,0.,0.));
#764=DIRECTION('',(0.,0.,-1.));
#765=DIRECTION('',(-1.,0.,0.));
#766=DIRECTION('',(0.,0.,-1.));
#767=DIRECTION('',(0.999999999999996,0.,0.));
#768=DIRECTION('',(0.,0.,-1.));
#769=DIRECTION('',(-1.,0.,0.));
#770=DIRECTION('',(0.,0.,-1.));
#771=DIRECTION('',(0.999999999999996,0.,0.));
#772=CARTESIAN_POINT('',(0.,0.,0.));
#773=CARTESIAN_POINT('',(350.8,127.5,80.));
#774=CARTESIAN_POINT('',(350.3,133.228219618695,80.));
#775=CARTESIAN_POINT('',(350.3,121.771780381305,80.));
#776=CARTESIAN_POINT('',(350.3,195.05,80.));
#777=CARTESIAN_POINT('',(350.3,377.6,80.));
#778=CARTESIAN_POINT('',(180.9,377.6,80.));
#779=CARTESIAN_POINT('',(168.698790086469,377.6,80.));
#780=CARTESIAN_POINT('',(165.6,374.,80.));
#781=CARTESIAN_POINT('',(162.501209913531,377.6,80.));
#782=CARTESIAN_POINT('',(180.9,377.6,80.));
#783=CARTESIAN_POINT('',(13.9,377.6,80.));
#784=CARTESIAN_POINT('',(13.9,195.05,80.));
#785=CARTESIAN_POINT('',(13.9,0.,80.));
#786=CARTESIAN_POINT('',(180.9,0.,80.));
#787=CARTESIAN_POINT('',(290.9,0.,80.));
#788=CARTESIAN_POINT('',(290.9,195.05,80.));
#789=CARTESIAN_POINT('',(290.9,78.1,80.));
#790=CARTESIAN_POINT('',(304.9,78.1,80.));
#791=CARTESIAN_POINT('',(304.9,92.1,80.));
#792=CARTESIAN_POINT('',(180.9,92.1,80.));
#793=CARTESIAN_POINT('',(350.3,92.1,80.));
#794=CARTESIAN_POINT('',(350.3,195.05,80.));
#795=CARTESIAN_POINT('',(41.7,62.6,80.));
#796=CARTESIAN_POINT('',(48.35,62.6,80.));
#797=CARTESIAN_POINT('',(180.9,195.05,80.));
#798=CARTESIAN_POINT('',(290.9,0.,48.8));
#799=CARTESIAN_POINT('',(290.9,0.,48.8));
#800=CARTESIAN_POINT('',(57.4,0.,123.5));
#801=CARTESIAN_POINT('',(0.,0.,66.1));
#802=CARTESIAN_POINT('',(0.,0.,0.));
#803=CARTESIAN_POINT('',(0.,0.,0.));
#804=CARTESIAN_POINT('',(180.9,0.,0.));
#805=CARTESIAN_POINT('',(361.8,0.,0.));
#806=CARTESIAN_POINT('',(361.8,0.,0.));
#807=CARTESIAN_POINT('',(361.8,0.,48.8));
#808=CARTESIAN_POINT('',(326.35,0.,48.8));
#809=CARTESIAN_POINT('',(180.9,0.,0.));
#810=CARTESIAN_POINT('',(0.,195.05,66.1));
#811=CARTESIAN_POINT('',(0.,390.1,66.1));
#812=CARTESIAN_POINT('',(0.,390.1,0.));
#813=CARTESIAN_POINT('',(0.,390.1,0.));
#814=CARTESIAN_POINT('',(0.,195.05,0.));
#815=CARTESIAN_POINT('',(0.,195.05,0.));
#816=CARTESIAN_POINT('',(57.4,390.1,123.5));
#817=CARTESIAN_POINT('',(1.40000000000001,390.1,67.5));
#818=CARTESIAN_POINT('',(180.9,390.1,67.5));
#819=CARTESIAN_POINT('',(361.8,390.1,67.5));
#820=CARTESIAN_POINT('',(361.8,390.1,0.));
#821=CARTESIAN_POINT('',(361.8,390.1,0.));
#822=CARTESIAN_POINT('',(180.9,390.1,0.));
#823=CARTESIAN_POINT('',(180.9,390.1,0.));
#824=CARTESIAN_POINT('',(41.7,62.6,0.));
#825=CARTESIAN_POINT('',(35.05,62.6,0.));
#826=CARTESIAN_POINT('',(361.8,195.05,0.));
#827=CARTESIAN_POINT('',(180.9,195.05,0.));
#828=CARTESIAN_POINT('',(361.8,92.1,48.8));
#829=CARTESIAN_POINT('',(361.8,92.1,48.8));
#830=CARTESIAN_POINT('',(361.8,92.1,68.5));
#831=CARTESIAN_POINT('',(361.8,46.05,48.8));
#832=CARTESIAN_POINT('',(361.8,326.325,131.275));
#833=CARTESIAN_POINT('',(361.8,389.1,68.5));
#834=CARTESIAN_POINT('',(361.8,195.05,68.5));
#835=CARTESIAN_POINT('',(361.8,195.05,0.));
#836=CARTESIAN_POINT('',(65.4833333333333,326.016666666667,131.583333333333));
#837=CARTESIAN_POINT('',(0.,195.05,66.1));
#838=CARTESIAN_POINT('',(310.3,382.2,75.4000000000001));
#839=CARTESIAN_POINT('',(310.3,386.05,71.5500000000001));
#840=CARTESIAN_POINT('',(165.6,374.,83.6000000000001));
#841=CARTESIAN_POINT('',(302.166666666667,329.466666666667,128.133333333333));
#842=CARTESIAN_POINT('',(180.9,390.1,67.5));
#843=CARTESIAN_POINT('',(350.8,127.5,79.5));
#844=CARTESIAN_POINT('',(361.8,92.1,68.5));
#845=CARTESIAN_POINT('',(361.8,195.05,68.5));
#846=CARTESIAN_POINT('',(290.9,46.05,48.8));
#847=CARTESIAN_POINT('',(290.9,78.1,48.8));
#848=CARTESIAN_POINT('',(290.9,78.1,80.));
#849=CARTESIAN_POINT('',(290.9,46.05,48.8));
#850=CARTESIAN_POINT('',(304.9,92.1,48.8));
#851=CARTESIAN_POINT('',(304.9,92.1,48.8));
#852=CARTESIAN_POINT('',(326.35,92.1,48.8));
#853=CARTESIAN_POINT('',(326.35,92.1,48.8));
#854=CARTESIAN_POINT('',(326.,9.1,48.8));
#855=CARTESIAN_POINT('',(320.9,9.1,48.8));
#856=CARTESIAN_POINT('',(326.35,70.2,48.8));
#857=CARTESIAN_POINT('',(314.1,70.2,48.8));
#858=CARTESIAN_POINT('',(326.1,70.2,48.8));
#859=CARTESIAN_POINT('',(326.1,60.7,48.8));
#860=CARTESIAN_POINT('',(335.6,60.7,48.8));
#861=CARTESIAN_POINT('',(335.6,46.05,48.8));
#862=CARTESIAN_POINT('',(335.6,31.4,48.8));
#863=CARTESIAN_POINT('',(326.1,31.4,48.8));
#864=CARTESIAN_POINT('',(326.1,21.9,48.8));
#865=CARTESIAN_POINT('',(326.35,21.9,48.8));
#866=CARTESIAN_POINT('',(314.1,21.9,48.8));
#867=CARTESIAN_POINT('',(314.1,31.4,48.8));
#868=CARTESIAN_POINT('',(304.6,31.4,48.8));
#869=CARTESIAN_POINT('',(304.6,46.05,48.8));
#870=CARTESIAN_POINT('',(304.6,60.7,48.8));
#871=CARTESIAN_POINT('',(314.1,60.7,48.8));
#872=CARTESIAN_POINT('',(304.9,78.1,48.8));
#873=CARTESIAN_POINT('',(326.35,46.05,48.8));
#874=CARTESIAN_POINT('',(304.9,78.1,48.8));
#875=CARTESIAN_POINT('',(320.1,21.9,42.1));
#876=CARTESIAN_POINT('',(326.1,21.9,42.1));
#877=CARTESIAN_POINT('',(314.1,21.9,42.1));
#878=CARTESIAN_POINT('',(314.1,21.9,48.8));
#879=CARTESIAN_POINT('',(326.1,21.9,42.1));
#880=CARTESIAN_POINT('',(320.1,21.9,42.1));
#881=CARTESIAN_POINT('',(304.6,31.4,42.1));
#882=CARTESIAN_POINT('',(304.6,31.4,42.1));
#883=CARTESIAN_POINT('',(304.6,46.05,42.1));
#884=CARTESIAN_POINT('',(304.6,60.7,42.1));
#885=CARTESIAN_POINT('',(304.6,60.7,48.8));
#886=CARTESIAN_POINT('',(304.6,46.05,42.1));
#887=CARTESIAN_POINT('',(320.1,70.2,42.1));
#888=CARTESIAN_POINT('',(314.1,70.2,42.1));
#889=CARTESIAN_POINT('',(326.1,70.2,42.1));
#890=CARTESIAN_POINT('',(326.1,70.2,48.8));
#891=CARTESIAN_POINT('',(314.1,70.2,42.1));
#892=CARTESIAN_POINT('',(320.1,70.2,42.1));
#893=CARTESIAN_POINT('',(335.6,46.05,42.1));
#894=CARTESIAN_POINT('',(335.6,60.7,42.1));
#895=CARTESIAN_POINT('',(335.6,31.4,42.1));
#896=CARTESIAN_POINT('',(335.6,31.4,48.8));
#897=CARTESIAN_POINT('',(335.6,60.7,42.1));
#898=CARTESIAN_POINT('',(335.6,46.05,42.1));
#899=CARTESIAN_POINT('',(314.1,31.4,42.1));
#900=CARTESIAN_POINT('',(326.1,31.4,42.1));
#901=CARTESIAN_POINT('',(326.1,60.7,42.1));
#902=CARTESIAN_POINT('',(314.1,60.7,42.1));
#903=CARTESIAN_POINT('',(320.1,46.05,42.1));
#904=CARTESIAN_POINT('',(314.1,31.4,42.1));
#905=CARTESIAN_POINT('',(326.1,31.4,42.1));
#906=CARTESIAN_POINT('',(326.1,60.7,42.1));
#907=CARTESIAN_POINT('',(314.1,60.7,42.1));
#908=CARTESIAN_POINT('',(165.6,374.,43.7));
#909=CARTESIAN_POINT('',(170.35,374.,43.7));
#910=CARTESIAN_POINT('',(165.6,374.,43.7));
#911=CARTESIAN_POINT('',(165.6,374.,80.05));
#912=CARTESIAN_POINT('',(310.3,382.2,54.4));
#913=CARTESIAN_POINT('',(314.15,382.2,54.4));
#914=CARTESIAN_POINT('',(310.3,382.2,54.4));
#915=CARTESIAN_POINT('',(310.3,382.2,80.05));
#916=CARTESIAN_POINT('',(41.7,62.6,80.05));
#917=CARTESIAN_POINT('',(326.,9.1,33.5));
#918=CARTESIAN_POINT('',(331.1,9.1,33.5));
#919=CARTESIAN_POINT('',(326.,9.1,80.05));
#920=CARTESIAN_POINT('',(326.,9.1,33.5));
#921=CARTESIAN_POINT('',(350.8,127.5,39.6));
#922=CARTESIAN_POINT('',(356.55,127.5,39.6));
#923=CARTESIAN_POINT('',(350.8,127.5,39.6));
#924=CARTESIAN_POINT('',(350.8,127.5,80.05));
#925=MECHANICAL_DESIGN_GEOMETRIC_PRESENTATION_REPRESENTATION('',(#24),#926);
#926=(
GEOMETRIC_REPRESENTATION_CONTEXT(3)
GLOBAL_UNCERTAINTY_ASSIGNED_CONTEXT((#927))
GLOBAL_UNIT_ASSIGNED_CONTEXT((#933,#929,#928))
REPRESENTATION_CONTEXT('featured_part_00263','TOP_LEVEL_ASSEMBLY_PART')
);
#927=UNCERTAINTY_MEASURE_WITH_UNIT(LENGTH_MEASURE(2.E-5),#933,
'DISTANCE_ACCURACY_VALUE','Maximum Tolerance applied to model');
#928=(
NAMED_UNIT(*)
SI_UNIT($,.STERADIAN.)
SOLID_ANGLE_UNIT()
);
#929=(
CONVERSION_BASED_UNIT('DEGREE',#931)
NAMED_UNIT(#930)
PLANE_ANGLE_UNIT()
);
#930=DIMENSIONAL_EXPONENTS(0.,0.,0.,0.,0.,0.,0.);
#931=PLANE_ANGLE_MEASURE_WITH_UNIT(PLANE_ANGLE_MEASURE(0.0174532925),#932);
#932=(
NAMED_UNIT(*)
PLANE_ANGLE_UNIT()
SI_UNIT($,.RADIAN.)
);
#933=(
LENGTH_UNIT()
NAMED_UNIT(*)
SI_UNIT(.MILLI.,.METRE.)
);
ENDSEC;
END-ISO-10303-21;
