ISO-10303-21;
HEADER;
/* Generated by software containing ST-Developer
 * from STEP Tools, Inc. (www.steptools.com) 
 */
/* OPTION: using custom schema-name function */

FILE_DESCRIPTION(
/* description */ (''),
/* implementation_level */ '2;1');

FILE_NAME(
/* name */ 'featured_part_01238.stp',
/* time_stamp */ '2026-07-08T15:51:12-04:00',
/* author */ (''),
/* organization */ (''),
/* preprocessor_version */ 'ST-DEVELOPER v20.1',
/* originating_system */ 'SIEMENS PLM Software NX2512.6002',
/* authorisation */ '');

FILE_SCHEMA (('AUTOMOTIVE_DESIGN { 1 0 10303 214 3 1 1 1 }'));
ENDSEC;

DATA;
#10=SHAPE_REPRESENTATION_RELATIONSHIP('None',
'relationship between featured_part_01238-None and featured_part_01238
-None',#22,#11);
#11=ADVANCED_BREP_SHAPE_REPRESENTATION('featured_part_01238-None',(#32),
#1212);
#12=SHAPE_DEFINITION_REPRESENTATION(#13,#22);
#13=PRODUCT_DEFINITION_SHAPE('','',#14);
#14=PRODUCT_DEFINITION(' ','',#16,#15);
#15=PRODUCT_DEFINITION_CONTEXT('part definition',#21,'design');
#16=PRODUCT_DEFINITION_FORMATION_WITH_SPECIFIED_SOURCE(' ',' ',#18,
 .NOT_KNOWN.);
#17=PRODUCT_RELATED_PRODUCT_CATEGORY('part','',(#18));
#18=PRODUCT('featured_part_01238','featured_part_01238',' ',(#19));
#19=PRODUCT_CONTEXT(' ',#21,'mechanical');
#20=APPLICATION_PROTOCOL_DEFINITION('international standard',
'automotive_design',2010,#21);
#21=APPLICATION_CONTEXT(
'core data for automotive mechanical design processes');
#22=SHAPE_REPRESENTATION('featured_part_01238-None',(#738),#1212);
#23=PRESENTATION_LAYER_ASSIGNMENT('1','Layer 1',(#32));
#24=STYLED_ITEM('',(#25),#32);
#25=PRESENTATION_STYLE_ASSIGNMENT((#26));
#26=SURFACE_STYLE_USAGE(.BOTH.,#27);
#27=SURFACE_SIDE_STYLE('',(#28));
#28=SURFACE_STYLE_FILL_AREA(#29);
#29=FILL_AREA_STYLE('',(#30));
#30=FILL_AREA_STYLE_COLOUR('',#31);
#31=COLOUR_RGB('medium steel',0.611764705882353,0.658823529411765,0.670588235294118);
#32=MANIFOLD_SOLID_BREP('',#33);
#33=CLOSED_SHELL('',(#85,#86,#87,#88,#89,#90,#91,#92,#93,#94,#95,#96,#97,
#98,#99,#100,#101,#102,#103,#104,#105,#106,#107,#108,#109,#110,#111,#112,
#113,#114,#115,#116,#117,#118,#119,#120,#121,#122,#123));
#34=CYLINDRICAL_SURFACE('',#765,14.8);
#35=CYLINDRICAL_SURFACE('',#779,13.1);
#36=CYLINDRICAL_SURFACE('',#780,13.1);
#37=CYLINDRICAL_SURFACE('',#781,13.1);
#38=CYLINDRICAL_SURFACE('',#782,13.1);
#39=CYLINDRICAL_SURFACE('',#792,12.);
#40=CYLINDRICAL_SURFACE('',#793,12.);
#41=CYLINDRICAL_SURFACE('',#794,12.);
#42=CYLINDRICAL_SURFACE('',#795,12.);
#43=CYLINDRICAL_SURFACE('',#798,10.25);
#44=CYLINDRICAL_SURFACE('',#801,6.75);
#45=CYLINDRICAL_SURFACE('',#802,6.);
#46=ELLIPSE('',#755,14.4956890143243,10.25);
#47=FACE_BOUND('',#185,.T.);
#48=FACE_BOUND('',#186,.T.);
#49=FACE_BOUND('',#187,.T.);
#50=FACE_BOUND('',#188,.T.);
#51=FACE_BOUND('',#192,.T.);
#52=FACE_BOUND('',#193,.T.);
#53=FACE_BOUND('',#207,.T.);
#54=FACE_BOUND('',#208,.T.);
#55=FACE_BOUND('',#224,.T.);
#56=FACE_BOUND('',#225,.T.);
#57=FACE_BOUND('',#227,.T.);
#58=FACE_BOUND('',#228,.T.);
#59=FACE_BOUND('',#229,.T.);
#60=FACE_BOUND('',#230,.T.);
#61=CIRCLE('',#740,6.);
#62=CIRCLE('',#741,6.75);
#63=CIRCLE('',#742,10.25);
#64=CIRCLE('',#743,14.8);
#65=CIRCLE('',#744,13.1);
#66=CIRCLE('',#745,13.1);
#67=CIRCLE('',#746,13.1);
#68=CIRCLE('',#747,13.1);
#69=CIRCLE('',#752,6.);
#70=CIRCLE('',#762,14.8);
#71=CIRCLE('',#769,12.);
#72=CIRCLE('',#770,12.);
#73=CIRCLE('',#771,12.);
#74=CIRCLE('',#772,12.);
#75=CIRCLE('',#773,13.1);
#76=CIRCLE('',#774,13.1);
#77=CIRCLE('',#775,13.1);
#78=CIRCLE('',#776,13.1);
#79=CIRCLE('',#787,12.);
#80=CIRCLE('',#788,12.);
#81=CIRCLE('',#789,12.);
#82=CIRCLE('',#790,12.);
#83=CIRCLE('',#796,10.25);
#84=CIRCLE('',#799,6.75);
#85=ADVANCED_FACE('',(#151),#124,.T.);
#86=ADVANCED_FACE('',(#47,#48,#49,#50),#125,.T.);
#87=ADVANCED_FACE('',(#152),#126,.T.);
#88=ADVANCED_FACE('',(#153),#127,.T.);
#89=ADVANCED_FACE('',(#154),#128,.T.);
#90=ADVANCED_FACE('',(#51,#52),#129,.T.);
#91=ADVANCED_FACE('',(#155),#130,.T.);
#92=ADVANCED_FACE('',(#156),#131,.F.);
#93=ADVANCED_FACE('',(#157),#132,.F.);
#94=ADVANCED_FACE('',(#158),#133,.F.);
#95=ADVANCED_FACE('',(#159),#134,.F.);
#96=ADVANCED_FACE('',(#160),#135,.F.);
#97=ADVANCED_FACE('',(#161),#136,.F.);
#98=ADVANCED_FACE('',(#162),#137,.F.);
#99=ADVANCED_FACE('',(#163),#138,.F.);
#100=ADVANCED_FACE('',(#164),#34,.F.);
#101=ADVANCED_FACE('',(#165),#139,.F.);
#102=ADVANCED_FACE('',(#166),#140,.F.);
#103=ADVANCED_FACE('',(#167),#141,.F.);
#104=ADVANCED_FACE('',(#53,#54),#142,.F.);
#105=ADVANCED_FACE('',(#168),#143,.F.);
#106=ADVANCED_FACE('',(#169),#35,.F.);
#107=ADVANCED_FACE('',(#170),#36,.F.);
#108=ADVANCED_FACE('',(#171),#37,.F.);
#109=ADVANCED_FACE('',(#172),#38,.F.);
#110=ADVANCED_FACE('',(#173),#144,.F.);
#111=ADVANCED_FACE('',(#174),#145,.F.);
#112=ADVANCED_FACE('',(#175),#146,.F.);
#113=ADVANCED_FACE('',(#176),#147,.F.);
#114=ADVANCED_FACE('',(#177),#148,.F.);
#115=ADVANCED_FACE('',(#178),#39,.F.);
#116=ADVANCED_FACE('',(#179),#40,.F.);
#117=ADVANCED_FACE('',(#180),#41,.F.);
#118=ADVANCED_FACE('',(#181),#42,.F.);
#119=ADVANCED_FACE('',(#182),#149,.F.);
#120=ADVANCED_FACE('',(#55,#56),#43,.F.);
#121=ADVANCED_FACE('',(#183),#150,.F.);
#122=ADVANCED_FACE('',(#57,#58),#44,.F.);
#123=ADVANCED_FACE('',(#59,#60),#45,.F.);
#124=PLANE('',#739);
#125=PLANE('',#748);
#126=PLANE('',#749);
#127=PLANE('',#750);
#128=PLANE('',#751);
#129=PLANE('',#753);
#130=PLANE('',#754);
#131=PLANE('',#756);
#132=PLANE('',#757);
#133=PLANE('',#758);
#134=PLANE('',#759);
#135=PLANE('',#760);
#136=PLANE('',#761);
#137=PLANE('',#763);
#138=PLANE('',#764);
#139=PLANE('',#766);
#140=PLANE('',#767);
#141=PLANE('',#768);
#142=PLANE('',#777);
#143=PLANE('',#778);
#144=PLANE('',#783);
#145=PLANE('',#784);
#146=PLANE('',#785);
#147=PLANE('',#786);
#148=PLANE('',#791);
#149=PLANE('',#797);
#150=PLANE('',#800);
#151=FACE_OUTER_BOUND('',#184,.T.);
#152=FACE_OUTER_BOUND('',#189,.T.);
#153=FACE_OUTER_BOUND('',#190,.T.);
#154=FACE_OUTER_BOUND('',#191,.T.);
#155=FACE_OUTER_BOUND('',#194,.T.);
#156=FACE_OUTER_BOUND('',#195,.T.);
#157=FACE_OUTER_BOUND('',#196,.T.);
#158=FACE_OUTER_BOUND('',#197,.T.);
#159=FACE_OUTER_BOUND('',#198,.T.);
#160=FACE_OUTER_BOUND('',#199,.T.);
#161=FACE_OUTER_BOUND('',#200,.T.);
#162=FACE_OUTER_BOUND('',#201,.T.);
#163=FACE_OUTER_BOUND('',#202,.T.);
#164=FACE_OUTER_BOUND('',#203,.T.);
#165=FACE_OUTER_BOUND('',#204,.T.);
#166=FACE_OUTER_BOUND('',#205,.T.);
#167=FACE_OUTER_BOUND('',#206,.T.);
#168=FACE_OUTER_BOUND('',#209,.T.);
#169=FACE_OUTER_BOUND('',#210,.T.);
#170=FACE_OUTER_BOUND('',#211,.T.);
#171=FACE_OUTER_BOUND('',#212,.T.);
#172=FACE_OUTER_BOUND('',#213,.T.);
#173=FACE_OUTER_BOUND('',#214,.T.);
#174=FACE_OUTER_BOUND('',#215,.T.);
#175=FACE_OUTER_BOUND('',#216,.T.);
#176=FACE_OUTER_BOUND('',#217,.T.);
#177=FACE_OUTER_BOUND('',#218,.T.);
#178=FACE_OUTER_BOUND('',#219,.T.);
#179=FACE_OUTER_BOUND('',#220,.T.);
#180=FACE_OUTER_BOUND('',#221,.T.);
#181=FACE_OUTER_BOUND('',#222,.T.);
#182=FACE_OUTER_BOUND('',#223,.T.);
#183=FACE_OUTER_BOUND('',#226,.T.);
#184=EDGE_LOOP('',(#231,#232,#233,#234));
#185=EDGE_LOOP('',(#235));
#186=EDGE_LOOP('',(#236));
#187=EDGE_LOOP('',(#237,#238,#239,#240,#241,#242,#243,#244,#245));
#188=EDGE_LOOP('',(#246,#247,#248,#249,#250,#251,#252,#253));
#189=EDGE_LOOP('',(#254,#255,#256,#257));
#190=EDGE_LOOP('',(#258,#259,#260,#261,#262,#263,#264,#265,#266,#267,#268));
#191=EDGE_LOOP('',(#269,#270,#271,#272,#273,#274));
#192=EDGE_LOOP('',(#275));
#193=EDGE_LOOP('',(#276,#277,#278,#279));
#194=EDGE_LOOP('',(#280,#281,#282,#283,#284,#285,#286,#287,#288,#289));
#195=EDGE_LOOP('',(#290,#291,#292,#293,#294,#295));
#196=EDGE_LOOP('',(#296,#297,#298,#299));
#197=EDGE_LOOP('',(#300,#301,#302,#303));
#198=EDGE_LOOP('',(#304,#305,#306,#307));
#199=EDGE_LOOP('',(#308,#309,#310,#311));
#200=EDGE_LOOP('',(#312,#313,#314,#315));
#201=EDGE_LOOP('',(#316,#317,#318,#319,#320));
#202=EDGE_LOOP('',(#321,#322,#323,#324,#325));
#203=EDGE_LOOP('',(#326,#327,#328,#329));
#204=EDGE_LOOP('',(#330,#331,#332,#333));
#205=EDGE_LOOP('',(#334,#335,#336,#337));
#206=EDGE_LOOP('',(#338,#339,#340,#341));
#207=EDGE_LOOP('',(#342,#343,#344,#345,#346,#347,#348,#349));
#208=EDGE_LOOP('',(#350,#351,#352,#353,#354,#355,#356,#357));
#209=EDGE_LOOP('',(#358,#359,#360,#361));
#210=EDGE_LOOP('',(#362,#363,#364,#365));
#211=EDGE_LOOP('',(#366,#367,#368,#369));
#212=EDGE_LOOP('',(#370,#371,#372,#373));
#213=EDGE_LOOP('',(#374,#375,#376,#377));
#214=EDGE_LOOP('',(#378,#379,#380,#381));
#215=EDGE_LOOP('',(#382,#383,#384,#385));
#216=EDGE_LOOP('',(#386,#387,#388,#389));
#217=EDGE_LOOP('',(#390,#391,#392,#393));
#218=EDGE_LOOP('',(#394,#395,#396,#397,#398,#399,#400,#401));
#219=EDGE_LOOP('',(#402,#403,#404,#405));
#220=EDGE_LOOP('',(#406,#407,#408,#409));
#221=EDGE_LOOP('',(#410,#411,#412,#413));
#222=EDGE_LOOP('',(#414,#415,#416,#417));
#223=EDGE_LOOP('',(#418));
#224=EDGE_LOOP('',(#419,#420));
#225=EDGE_LOOP('',(#421));
#226=EDGE_LOOP('',(#422));
#227=EDGE_LOOP('',(#423));
#228=EDGE_LOOP('',(#424));
#229=EDGE_LOOP('',(#425));
#230=EDGE_LOOP('',(#426));
#231=ORIENTED_EDGE('',*,*,#494,.F.);
#232=ORIENTED_EDGE('',*,*,#495,.F.);
#233=ORIENTED_EDGE('',*,*,#496,.T.);
#234=ORIENTED_EDGE('',*,*,#497,.F.);
#235=ORIENTED_EDGE('',*,*,#498,.F.);
#236=ORIENTED_EDGE('',*,*,#499,.F.);
#237=ORIENTED_EDGE('',*,*,#500,.F.);
#238=ORIENTED_EDGE('',*,*,#501,.T.);
#239=ORIENTED_EDGE('',*,*,#502,.F.);
#240=ORIENTED_EDGE('',*,*,#503,.T.);
#241=ORIENTED_EDGE('',*,*,#504,.F.);
#242=ORIENTED_EDGE('',*,*,#505,.F.);
#243=ORIENTED_EDGE('',*,*,#506,.F.);
#244=ORIENTED_EDGE('',*,*,#507,.F.);
#245=ORIENTED_EDGE('',*,*,#508,.T.);
#246=ORIENTED_EDGE('',*,*,#509,.F.);
#247=ORIENTED_EDGE('',*,*,#510,.T.);
#248=ORIENTED_EDGE('',*,*,#511,.F.);
#249=ORIENTED_EDGE('',*,*,#512,.T.);
#250=ORIENTED_EDGE('',*,*,#513,.F.);
#251=ORIENTED_EDGE('',*,*,#514,.T.);
#252=ORIENTED_EDGE('',*,*,#515,.F.);
#253=ORIENTED_EDGE('',*,*,#516,.T.);
#254=ORIENTED_EDGE('',*,*,#517,.T.);
#255=ORIENTED_EDGE('',*,*,#518,.T.);
#256=ORIENTED_EDGE('',*,*,#519,.F.);
#257=ORIENTED_EDGE('',*,*,#520,.T.);
#258=ORIENTED_EDGE('',*,*,#521,.F.);
#259=ORIENTED_EDGE('',*,*,#522,.F.);
#260=ORIENTED_EDGE('',*,*,#523,.F.);
#261=ORIENTED_EDGE('',*,*,#524,.T.);
#262=ORIENTED_EDGE('',*,*,#519,.T.);
#263=ORIENTED_EDGE('',*,*,#525,.T.);
#264=ORIENTED_EDGE('',*,*,#495,.T.);
#265=ORIENTED_EDGE('',*,*,#526,.F.);
#266=ORIENTED_EDGE('',*,*,#527,.F.);
#267=ORIENTED_EDGE('',*,*,#528,.F.);
#268=ORIENTED_EDGE('',*,*,#505,.T.);
#269=ORIENTED_EDGE('',*,*,#529,.F.);
#270=ORIENTED_EDGE('',*,*,#530,.T.);
#271=ORIENTED_EDGE('',*,*,#531,.T.);
#272=ORIENTED_EDGE('',*,*,#532,.F.);
#273=ORIENTED_EDGE('',*,*,#533,.T.);
#274=ORIENTED_EDGE('',*,*,#523,.T.);
#275=ORIENTED_EDGE('',*,*,#534,.F.);
#276=ORIENTED_EDGE('',*,*,#535,.F.);
#277=ORIENTED_EDGE('',*,*,#520,.F.);
#278=ORIENTED_EDGE('',*,*,#524,.F.);
#279=ORIENTED_EDGE('',*,*,#533,.F.);
#280=ORIENTED_EDGE('',*,*,#536,.F.);
#281=ORIENTED_EDGE('',*,*,#497,.T.);
#282=ORIENTED_EDGE('',*,*,#537,.T.);
#283=ORIENTED_EDGE('',*,*,#517,.F.);
#284=ORIENTED_EDGE('',*,*,#535,.T.);
#285=ORIENTED_EDGE('',*,*,#532,.T.);
#286=ORIENTED_EDGE('',*,*,#538,.T.);
#287=ORIENTED_EDGE('',*,*,#507,.T.);
#288=ORIENTED_EDGE('',*,*,#539,.F.);
#289=ORIENTED_EDGE('',*,*,#540,.F.);
#290=ORIENTED_EDGE('',*,*,#541,.F.);
#291=ORIENTED_EDGE('',*,*,#508,.F.);
#292=ORIENTED_EDGE('',*,*,#538,.F.);
#293=ORIENTED_EDGE('',*,*,#531,.F.);
#294=ORIENTED_EDGE('',*,*,#542,.F.);
#295=ORIENTED_EDGE('',*,*,#501,.F.);
#296=ORIENTED_EDGE('',*,*,#537,.F.);
#297=ORIENTED_EDGE('',*,*,#496,.F.);
#298=ORIENTED_EDGE('',*,*,#525,.F.);
#299=ORIENTED_EDGE('',*,*,#518,.F.);
#300=ORIENTED_EDGE('',*,*,#526,.T.);
#301=ORIENTED_EDGE('',*,*,#494,.T.);
#302=ORIENTED_EDGE('',*,*,#536,.T.);
#303=ORIENTED_EDGE('',*,*,#543,.T.);
#304=ORIENTED_EDGE('',*,*,#528,.T.);
#305=ORIENTED_EDGE('',*,*,#544,.T.);
#306=ORIENTED_EDGE('',*,*,#539,.T.);
#307=ORIENTED_EDGE('',*,*,#506,.T.);
#308=ORIENTED_EDGE('',*,*,#527,.T.);
#309=ORIENTED_EDGE('',*,*,#543,.F.);
#310=ORIENTED_EDGE('',*,*,#540,.T.);
#311=ORIENTED_EDGE('',*,*,#544,.F.);
#312=ORIENTED_EDGE('',*,*,#504,.T.);
#313=ORIENTED_EDGE('',*,*,#545,.T.);
#314=ORIENTED_EDGE('',*,*,#546,.T.);
#315=ORIENTED_EDGE('',*,*,#521,.T.);
#316=ORIENTED_EDGE('',*,*,#546,.F.);
#317=ORIENTED_EDGE('',*,*,#547,.T.);
#318=ORIENTED_EDGE('',*,*,#548,.F.);
#319=ORIENTED_EDGE('',*,*,#529,.T.);
#320=ORIENTED_EDGE('',*,*,#522,.T.);
#321=ORIENTED_EDGE('',*,*,#548,.T.);
#322=ORIENTED_EDGE('',*,*,#549,.T.);
#323=ORIENTED_EDGE('',*,*,#502,.T.);
#324=ORIENTED_EDGE('',*,*,#542,.T.);
#325=ORIENTED_EDGE('',*,*,#530,.F.);
#326=ORIENTED_EDGE('',*,*,#503,.F.);
#327=ORIENTED_EDGE('',*,*,#549,.F.);
#328=ORIENTED_EDGE('',*,*,#547,.F.);
#329=ORIENTED_EDGE('',*,*,#545,.F.);
#330=ORIENTED_EDGE('',*,*,#550,.T.);
#331=ORIENTED_EDGE('',*,*,#551,.T.);
#332=ORIENTED_EDGE('',*,*,#509,.T.);
#333=ORIENTED_EDGE('',*,*,#552,.T.);
#334=ORIENTED_EDGE('',*,*,#511,.T.);
#335=ORIENTED_EDGE('',*,*,#553,.T.);
#336=ORIENTED_EDGE('',*,*,#554,.T.);
#337=ORIENTED_EDGE('',*,*,#555,.T.);
#338=ORIENTED_EDGE('',*,*,#513,.T.);
#339=ORIENTED_EDGE('',*,*,#556,.T.);
#340=ORIENTED_EDGE('',*,*,#557,.T.);
#341=ORIENTED_EDGE('',*,*,#558,.T.);
#342=ORIENTED_EDGE('',*,*,#559,.T.);
#343=ORIENTED_EDGE('',*,*,#560,.T.);
#344=ORIENTED_EDGE('',*,*,#561,.T.);
#345=ORIENTED_EDGE('',*,*,#562,.T.);
#346=ORIENTED_EDGE('',*,*,#563,.T.);
#347=ORIENTED_EDGE('',*,*,#564,.T.);
#348=ORIENTED_EDGE('',*,*,#565,.T.);
#349=ORIENTED_EDGE('',*,*,#566,.T.);
#350=ORIENTED_EDGE('',*,*,#554,.F.);
#351=ORIENTED_EDGE('',*,*,#567,.T.);
#352=ORIENTED_EDGE('',*,*,#550,.F.);
#353=ORIENTED_EDGE('',*,*,#568,.T.);
#354=ORIENTED_EDGE('',*,*,#569,.F.);
#355=ORIENTED_EDGE('',*,*,#570,.T.);
#356=ORIENTED_EDGE('',*,*,#557,.F.);
#357=ORIENTED_EDGE('',*,*,#571,.T.);
#358=ORIENTED_EDGE('',*,*,#515,.T.);
#359=ORIENTED_EDGE('',*,*,#572,.T.);
#360=ORIENTED_EDGE('',*,*,#569,.T.);
#361=ORIENTED_EDGE('',*,*,#573,.T.);
#362=ORIENTED_EDGE('',*,*,#510,.F.);
#363=ORIENTED_EDGE('',*,*,#551,.F.);
#364=ORIENTED_EDGE('',*,*,#567,.F.);
#365=ORIENTED_EDGE('',*,*,#553,.F.);
#366=ORIENTED_EDGE('',*,*,#512,.F.);
#367=ORIENTED_EDGE('',*,*,#555,.F.);
#368=ORIENTED_EDGE('',*,*,#571,.F.);
#369=ORIENTED_EDGE('',*,*,#556,.F.);
#370=ORIENTED_EDGE('',*,*,#514,.F.);
#371=ORIENTED_EDGE('',*,*,#558,.F.);
#372=ORIENTED_EDGE('',*,*,#570,.F.);
#373=ORIENTED_EDGE('',*,*,#572,.F.);
#374=ORIENTED_EDGE('',*,*,#516,.F.);
#375=ORIENTED_EDGE('',*,*,#573,.F.);
#376=ORIENTED_EDGE('',*,*,#568,.F.);
#377=ORIENTED_EDGE('',*,*,#552,.F.);
#378=ORIENTED_EDGE('',*,*,#563,.F.);
#379=ORIENTED_EDGE('',*,*,#574,.T.);
#380=ORIENTED_EDGE('',*,*,#575,.T.);
#381=ORIENTED_EDGE('',*,*,#576,.T.);
#382=ORIENTED_EDGE('',*,*,#577,.T.);
#383=ORIENTED_EDGE('',*,*,#578,.T.);
#384=ORIENTED_EDGE('',*,*,#565,.F.);
#385=ORIENTED_EDGE('',*,*,#579,.T.);
#386=ORIENTED_EDGE('',*,*,#580,.T.);
#387=ORIENTED_EDGE('',*,*,#581,.T.);
#388=ORIENTED_EDGE('',*,*,#559,.F.);
#389=ORIENTED_EDGE('',*,*,#582,.T.);
#390=ORIENTED_EDGE('',*,*,#583,.T.);
#391=ORIENTED_EDGE('',*,*,#584,.T.);
#392=ORIENTED_EDGE('',*,*,#561,.F.);
#393=ORIENTED_EDGE('',*,*,#585,.T.);
#394=ORIENTED_EDGE('',*,*,#575,.F.);
#395=ORIENTED_EDGE('',*,*,#586,.T.);
#396=ORIENTED_EDGE('',*,*,#583,.F.);
#397=ORIENTED_EDGE('',*,*,#587,.T.);
#398=ORIENTED_EDGE('',*,*,#580,.F.);
#399=ORIENTED_EDGE('',*,*,#588,.T.);
#400=ORIENTED_EDGE('',*,*,#577,.F.);
#401=ORIENTED_EDGE('',*,*,#589,.T.);
#402=ORIENTED_EDGE('',*,*,#562,.F.);
#403=ORIENTED_EDGE('',*,*,#584,.F.);
#404=ORIENTED_EDGE('',*,*,#586,.F.);
#405=ORIENTED_EDGE('',*,*,#574,.F.);
#406=ORIENTED_EDGE('',*,*,#560,.F.);
#407=ORIENTED_EDGE('',*,*,#581,.F.);
#408=ORIENTED_EDGE('',*,*,#587,.F.);
#409=ORIENTED_EDGE('',*,*,#585,.F.);
#410=ORIENTED_EDGE('',*,*,#566,.F.);
#411=ORIENTED_EDGE('',*,*,#578,.F.);
#412=ORIENTED_EDGE('',*,*,#588,.F.);
#413=ORIENTED_EDGE('',*,*,#582,.F.);
#414=ORIENTED_EDGE('',*,*,#564,.F.);
#415=ORIENTED_EDGE('',*,*,#576,.F.);
#416=ORIENTED_EDGE('',*,*,#589,.F.);
#417=ORIENTED_EDGE('',*,*,#579,.F.);
#418=ORIENTED_EDGE('',*,*,#590,.F.);
#419=ORIENTED_EDGE('',*,*,#500,.T.);
#420=ORIENTED_EDGE('',*,*,#541,.T.);
#421=ORIENTED_EDGE('',*,*,#590,.T.);
#422=ORIENTED_EDGE('',*,*,#591,.F.);
#423=ORIENTED_EDGE('',*,*,#499,.T.);
#424=ORIENTED_EDGE('',*,*,#591,.T.);
#425=ORIENTED_EDGE('',*,*,#498,.T.);
#426=ORIENTED_EDGE('',*,*,#534,.T.);
#427=VERTEX_POINT('',#1008);
#428=VERTEX_POINT('',#1009);
#429=VERTEX_POINT('',#1011);
#430=VERTEX_POINT('',#1013);
#431=VERTEX_POINT('',#1017);
#432=VERTEX_POINT('',#1019);
#433=VERTEX_POINT('',#1021);
#434=VERTEX_POINT('',#1022);
#435=VERTEX_POINT('',#1024);
#436=VERTEX_POINT('',#1026);
#437=VERTEX_POINT('',#1028);
#438=VERTEX_POINT('',#1030);
#439=VERTEX_POINT('',#1032);
#440=VERTEX_POINT('',#1034);
#441=VERTEX_POINT('',#1036);
#442=VERTEX_POINT('',#1039);
#443=VERTEX_POINT('',#1040);
#444=VERTEX_POINT('',#1042);
#445=VERTEX_POINT('',#1044);
#446=VERTEX_POINT('',#1046);
#447=VERTEX_POINT('',#1048);
#448=VERTEX_POINT('',#1050);
#449=VERTEX_POINT('',#1052);
#450=VERTEX_POINT('',#1056);
#451=VERTEX_POINT('',#1057);
#452=VERTEX_POINT('',#1059);
#453=VERTEX_POINT('',#1061);
#454=VERTEX_POINT('',#1065);
#455=VERTEX_POINT('',#1067);
#456=VERTEX_POINT('',#1069);
#457=VERTEX_POINT('',#1073);
#458=VERTEX_POINT('',#1075);
#459=VERTEX_POINT('',#1079);
#460=VERTEX_POINT('',#1081);
#461=VERTEX_POINT('',#1083);
#462=VERTEX_POINT('',#1085);
#463=VERTEX_POINT('',#1089);
#464=VERTEX_POINT('',#1093);
#465=VERTEX_POINT('',#1097);
#466=VERTEX_POINT('',#1110);
#467=VERTEX_POINT('',#1114);
#468=VERTEX_POINT('',#1121);
#469=VERTEX_POINT('',#1122);
#470=VERTEX_POINT('',#1127);
#471=VERTEX_POINT('',#1129);
#472=VERTEX_POINT('',#1133);
#473=VERTEX_POINT('',#1135);
#474=VERTEX_POINT('',#1139);
#475=VERTEX_POINT('',#1140);
#476=VERTEX_POINT('',#1142);
#477=VERTEX_POINT('',#1144);
#478=VERTEX_POINT('',#1146);
#479=VERTEX_POINT('',#1148);
#480=VERTEX_POINT('',#1150);
#481=VERTEX_POINT('',#1152);
#482=VERTEX_POINT('',#1156);
#483=VERTEX_POINT('',#1158);
#484=VERTEX_POINT('',#1170);
#485=VERTEX_POINT('',#1172);
#486=VERTEX_POINT('',#1176);
#487=VERTEX_POINT('',#1177);
#488=VERTEX_POINT('',#1182);
#489=VERTEX_POINT('',#1183);
#490=VERTEX_POINT('',#1188);
#491=VERTEX_POINT('',#1189);
#492=VERTEX_POINT('',#1203);
#493=VERTEX_POINT('',#1207);
#494=EDGE_CURVE('',#427,#428,#592,.T.);
#495=EDGE_CURVE('',#429,#427,#593,.T.);
#496=EDGE_CURVE('',#429,#430,#594,.T.);
#497=EDGE_CURVE('',#428,#430,#595,.T.);
#498=EDGE_CURVE('',#431,#431,#61,.T.);
#499=EDGE_CURVE('',#432,#432,#62,.T.);
#500=EDGE_CURVE('',#433,#434,#63,.T.);
#501=EDGE_CURVE('',#433,#435,#596,.T.);
#502=EDGE_CURVE('',#436,#435,#597,.T.);
#503=EDGE_CURVE('',#436,#437,#64,.T.);
#504=EDGE_CURVE('',#438,#437,#598,.T.);
#505=EDGE_CURVE('',#439,#438,#599,.T.);
#506=EDGE_CURVE('',#440,#439,#600,.T.);
#507=EDGE_CURVE('',#441,#440,#601,.T.);
#508=EDGE_CURVE('',#441,#434,#602,.T.);
#509=EDGE_CURVE('',#442,#443,#603,.T.);
#510=EDGE_CURVE('',#442,#444,#65,.T.);
#511=EDGE_CURVE('',#445,#444,#604,.T.);
#512=EDGE_CURVE('',#445,#446,#66,.T.);
#513=EDGE_CURVE('',#447,#446,#605,.T.);
#514=EDGE_CURVE('',#447,#448,#67,.T.);
#515=EDGE_CURVE('',#449,#448,#606,.T.);
#516=EDGE_CURVE('',#449,#443,#68,.T.);
#517=EDGE_CURVE('',#450,#451,#607,.T.);
#518=EDGE_CURVE('',#451,#452,#608,.T.);
#519=EDGE_CURVE('',#453,#452,#609,.T.);
#520=EDGE_CURVE('',#453,#450,#610,.T.);
#521=EDGE_CURVE('',#454,#438,#611,.T.);
#522=EDGE_CURVE('',#455,#454,#612,.T.);
#523=EDGE_CURVE('',#456,#455,#613,.T.);
#524=EDGE_CURVE('',#456,#453,#614,.T.);
#525=EDGE_CURVE('',#452,#429,#615,.T.);
#526=EDGE_CURVE('',#457,#427,#616,.T.);
#527=EDGE_CURVE('',#458,#457,#617,.T.);
#528=EDGE_CURVE('',#439,#458,#618,.T.);
#529=EDGE_CURVE('',#459,#455,#619,.T.);
#530=EDGE_CURVE('',#459,#460,#620,.T.);
#531=EDGE_CURVE('',#460,#461,#621,.T.);
#532=EDGE_CURVE('',#462,#461,#622,.T.);
#533=EDGE_CURVE('',#462,#456,#623,.T.);
#534=EDGE_CURVE('',#463,#463,#69,.T.);
#535=EDGE_CURVE('',#450,#462,#624,.T.);
#536=EDGE_CURVE('',#428,#464,#625,.T.);
#537=EDGE_CURVE('',#430,#451,#626,.T.);
#538=EDGE_CURVE('',#461,#441,#627,.T.);
#539=EDGE_CURVE('',#465,#440,#628,.T.);
#540=EDGE_CURVE('',#464,#465,#629,.T.);
#541=EDGE_CURVE('',#434,#433,#46,.T.);
#542=EDGE_CURVE('',#435,#460,#630,.T.);
#543=EDGE_CURVE('',#464,#457,#631,.T.);
#544=EDGE_CURVE('',#458,#465,#632,.T.);
#545=EDGE_CURVE('',#437,#466,#633,.T.);
#546=EDGE_CURVE('',#466,#454,#634,.T.);
#547=EDGE_CURVE('',#466,#467,#70,.T.);
#548=EDGE_CURVE('',#459,#467,#635,.T.);
#549=EDGE_CURVE('',#467,#436,#636,.T.);
#550=EDGE_CURVE('',#468,#469,#637,.T.);
#551=EDGE_CURVE('',#469,#442,#638,.T.);
#552=EDGE_CURVE('',#443,#468,#639,.T.);
#553=EDGE_CURVE('',#444,#470,#640,.T.);
#554=EDGE_CURVE('',#470,#471,#641,.T.);
#555=EDGE_CURVE('',#471,#445,#642,.T.);
#556=EDGE_CURVE('',#446,#472,#643,.T.);
#557=EDGE_CURVE('',#472,#473,#644,.T.);
#558=EDGE_CURVE('',#473,#447,#645,.T.);
#559=EDGE_CURVE('',#474,#475,#646,.T.);
#560=EDGE_CURVE('',#475,#476,#71,.T.);
#561=EDGE_CURVE('',#476,#477,#647,.T.);
#562=EDGE_CURVE('',#477,#478,#72,.T.);
#563=EDGE_CURVE('',#478,#479,#648,.T.);
#564=EDGE_CURVE('',#479,#480,#73,.T.);
#565=EDGE_CURVE('',#480,#481,#649,.T.);
#566=EDGE_CURVE('',#481,#474,#74,.T.);
#567=EDGE_CURVE('',#470,#469,#75,.T.);
#568=EDGE_CURVE('',#468,#482,#76,.T.);
#569=EDGE_CURVE('',#483,#482,#650,.T.);
#570=EDGE_CURVE('',#483,#473,#77,.T.);
#571=EDGE_CURVE('',#472,#471,#78,.T.);
#572=EDGE_CURVE('',#448,#483,#651,.T.);
#573=EDGE_CURVE('',#482,#449,#652,.T.);
#574=EDGE_CURVE('',#478,#484,#653,.T.);
#575=EDGE_CURVE('',#484,#485,#654,.T.);
#576=EDGE_CURVE('',#485,#479,#655,.T.);
#577=EDGE_CURVE('',#486,#487,#656,.T.);
#578=EDGE_CURVE('',#487,#481,#657,.T.);
#579=EDGE_CURVE('',#480,#486,#658,.T.);
#580=EDGE_CURVE('',#488,#489,#659,.T.);
#581=EDGE_CURVE('',#489,#475,#660,.T.);
#582=EDGE_CURVE('',#474,#488,#661,.T.);
#583=EDGE_CURVE('',#490,#491,#662,.T.);
#584=EDGE_CURVE('',#491,#477,#663,.T.);
#585=EDGE_CURVE('',#476,#490,#664,.T.);
#586=EDGE_CURVE('',#484,#491,#79,.T.);
#587=EDGE_CURVE('',#490,#489,#80,.T.);
#588=EDGE_CURVE('',#488,#487,#81,.T.);
#589=EDGE_CURVE('',#486,#485,#82,.T.);
#590=EDGE_CURVE('',#492,#492,#83,.T.);
#591=EDGE_CURVE('',#493,#493,#84,.T.);
#592=LINE('',#1007,#665);
#593=LINE('',#1010,#666);
#594=LINE('',#1012,#667);
#595=LINE('',#1014,#668);
#596=LINE('',#1023,#669);
#597=LINE('',#1025,#670);
#598=LINE('',#1029,#671);
#599=LINE('',#1031,#672);
#600=LINE('',#1033,#673);
#601=LINE('',#1035,#674);
#602=LINE('',#1037,#675);
#603=LINE('',#1038,#676);
#604=LINE('',#1043,#677);
#605=LINE('',#1047,#678);
#606=LINE('',#1051,#679);
#607=LINE('',#1055,#680);
#608=LINE('',#1058,#681);
#609=LINE('',#1060,#682);
#610=LINE('',#1062,#683);
#611=LINE('',#1064,#684);
#612=LINE('',#1066,#685);
#613=LINE('',#1068,#686);
#614=LINE('',#1070,#687);
#615=LINE('',#1071,#688);
#616=LINE('',#1072,#689);
#617=LINE('',#1074,#690);
#618=LINE('',#1076,#691);
#619=LINE('',#1078,#692);
#620=LINE('',#1080,#693);
#621=LINE('',#1082,#694);
#622=LINE('',#1084,#695);
#623=LINE('',#1086,#696);
#624=LINE('',#1090,#697);
#625=LINE('',#1092,#698);
#626=LINE('',#1094,#699);
#627=LINE('',#1095,#700);
#628=LINE('',#1096,#701);
#629=LINE('',#1098,#702);
#630=LINE('',#1101,#703);
#631=LINE('',#1104,#704);
#632=LINE('',#1106,#705);
#633=LINE('',#1109,#706);
#634=LINE('',#1111,#707);
#635=LINE('',#1115,#708);
#636=LINE('',#1117,#709);
#637=LINE('',#1120,#710);
#638=LINE('',#1123,#711);
#639=LINE('',#1124,#712);
#640=LINE('',#1126,#713);
#641=LINE('',#1128,#714);
#642=LINE('',#1130,#715);
#643=LINE('',#1132,#716);
#644=LINE('',#1134,#717);
#645=LINE('',#1136,#718);
#646=LINE('',#1138,#719);
#647=LINE('',#1143,#720);
#648=LINE('',#1147,#721);
#649=LINE('',#1151,#722);
#650=LINE('',#1157,#723);
#651=LINE('',#1162,#724);
#652=LINE('',#1163,#725);
#653=LINE('',#1169,#726);
#654=LINE('',#1171,#727);
#655=LINE('',#1173,#728);
#656=LINE('',#1175,#729);
#657=LINE('',#1178,#730);
#658=LINE('',#1179,#731);
#659=LINE('',#1181,#732);
#660=LINE('',#1184,#733);
#661=LINE('',#1185,#734);
#662=LINE('',#1187,#735);
#663=LINE('',#1190,#736);
#664=LINE('',#1191,#737);
#665=VECTOR('',#805,1.);
#666=VECTOR('',#806,1.);
#667=VECTOR('',#807,1.);
#668=VECTOR('',#808,1.);
#669=VECTOR('',#817,1.);
#670=VECTOR('',#818,1.);
#671=VECTOR('',#821,1.);
#672=VECTOR('',#822,1.);
#673=VECTOR('',#823,1.);
#674=VECTOR('',#824,1.);
#675=VECTOR('',#825,1.);
#676=VECTOR('',#826,1.);
#677=VECTOR('',#829,1.);
#678=VECTOR('',#832,1.);
#679=VECTOR('',#835,1.);
#680=VECTOR('',#840,1.);
#681=VECTOR('',#841,1.);
#682=VECTOR('',#842,1.);
#683=VECTOR('',#843,1.);
#684=VECTOR('',#846,1.);
#685=VECTOR('',#847,1.);
#686=VECTOR('',#848,1.);
#687=VECTOR('',#849,1.);
#688=VECTOR('',#850,1.);
#689=VECTOR('',#851,1.);
#690=VECTOR('',#852,1.);
#691=VECTOR('',#853,1.);
#692=VECTOR('',#856,1.);
#693=VECTOR('',#857,1.);
#694=VECTOR('',#858,1.);
#695=VECTOR('',#859,1.);
#696=VECTOR('',#860,1.);
#697=VECTOR('',#865,1.);
#698=VECTOR('',#868,1.);
#699=VECTOR('',#869,1.);
#700=VECTOR('',#870,1.);
#701=VECTOR('',#871,1.);
#702=VECTOR('',#872,1.);
#703=VECTOR('',#877,1.);
#704=VECTOR('',#882,1.);
#705=VECTOR('',#885,1.);
#706=VECTOR('',#890,1.);
#707=VECTOR('',#891,1.);
#708=VECTOR('',#896,1.);
#709=VECTOR('',#899,1.);
#710=VECTOR('',#904,1.);
#711=VECTOR('',#905,1.);
#712=VECTOR('',#906,1.);
#713=VECTOR('',#909,1.);
#714=VECTOR('',#910,1.);
#715=VECTOR('',#911,1.);
#716=VECTOR('',#914,1.);
#717=VECTOR('',#915,1.);
#718=VECTOR('',#916,1.);
#719=VECTOR('',#919,1.);
#720=VECTOR('',#922,1.);
#721=VECTOR('',#925,1.);
#722=VECTOR('',#928,1.);
#723=VECTOR('',#935,1.);
#724=VECTOR('',#942,1.);
#725=VECTOR('',#943,1.);
#726=VECTOR('',#954,1.);
#727=VECTOR('',#955,1.);
#728=VECTOR('',#956,1.);
#729=VECTOR('',#959,1.);
#730=VECTOR('',#960,1.);
#731=VECTOR('',#961,1.);
#732=VECTOR('',#964,1.);
#733=VECTOR('',#965,1.);
#734=VECTOR('',#966,1.);
#735=VECTOR('',#969,1.);
#736=VECTOR('',#970,1.);
#737=VECTOR('',#971,1.);
#738=AXIS2_PLACEMENT_3D('',#1006,#803,#804);
#739=AXIS2_PLACEMENT_3D('',#1015,#809,#810);
#740=AXIS2_PLACEMENT_3D('',#1016,#811,#812);
#741=AXIS2_PLACEMENT_3D('',#1018,#813,#814);
#742=AXIS2_PLACEMENT_3D('',#1020,#815,#816);
#743=AXIS2_PLACEMENT_3D('',#1027,#819,#820);
#744=AXIS2_PLACEMENT_3D('',#1041,#827,#828);
#745=AXIS2_PLACEMENT_3D('',#1045,#830,#831);
#746=AXIS2_PLACEMENT_3D('',#1049,#833,#834);
#747=AXIS2_PLACEMENT_3D('',#1053,#836,#837);
#748=AXIS2_PLACEMENT_3D('',#1054,#838,#839);
#749=AXIS2_PLACEMENT_3D('',#1063,#844,#845);
#750=AXIS2_PLACEMENT_3D('',#1077,#854,#855);
#751=AXIS2_PLACEMENT_3D('',#1087,#861,#862);
#752=AXIS2_PLACEMENT_3D('',#1088,#863,#864);
#753=AXIS2_PLACEMENT_3D('',#1091,#866,#867);
#754=AXIS2_PLACEMENT_3D('',#1099,#873,#874);
#755=AXIS2_PLACEMENT_3D('',#1100,#875,#876);
#756=AXIS2_PLACEMENT_3D('',#1102,#878,#879);
#757=AXIS2_PLACEMENT_3D('',#1103,#880,#881);
#758=AXIS2_PLACEMENT_3D('',#1105,#883,#884);
#759=AXIS2_PLACEMENT_3D('',#1107,#886,#887);
#760=AXIS2_PLACEMENT_3D('',#1108,#888,#889);
#761=AXIS2_PLACEMENT_3D('',#1112,#892,#893);
#762=AXIS2_PLACEMENT_3D('',#1113,#894,#895);
#763=AXIS2_PLACEMENT_3D('',#1116,#897,#898);
#764=AXIS2_PLACEMENT_3D('',#1118,#900,#901);
#765=AXIS2_PLACEMENT_3D('',#1119,#902,#903);
#766=AXIS2_PLACEMENT_3D('',#1125,#907,#908);
#767=AXIS2_PLACEMENT_3D('',#1131,#912,#913);
#768=AXIS2_PLACEMENT_3D('',#1137,#917,#918);
#769=AXIS2_PLACEMENT_3D('',#1141,#920,#921);
#770=AXIS2_PLACEMENT_3D('',#1145,#923,#924);
#771=AXIS2_PLACEMENT_3D('',#1149,#926,#927);
#772=AXIS2_PLACEMENT_3D('',#1153,#929,#930);
#773=AXIS2_PLACEMENT_3D('',#1154,#931,#932);
#774=AXIS2_PLACEMENT_3D('',#1155,#933,#934);
#775=AXIS2_PLACEMENT_3D('',#1159,#936,#937);
#776=AXIS2_PLACEMENT_3D('',#1160,#938,#939);
#777=AXIS2_PLACEMENT_3D('',#1161,#940,#941);
#778=AXIS2_PLACEMENT_3D('',#1164,#944,#945);
#779=AXIS2_PLACEMENT_3D('',#1165,#946,#947);
#780=AXIS2_PLACEMENT_3D('',#1166,#948,#949);
#781=AXIS2_PLACEMENT_3D('',#1167,#950,#951);
#782=AXIS2_PLACEMENT_3D('',#1168,#952,#953);
#783=AXIS2_PLACEMENT_3D('',#1174,#957,#958);
#784=AXIS2_PLACEMENT_3D('',#1180,#962,#963);
#785=AXIS2_PLACEMENT_3D('',#1186,#967,#968);
#786=AXIS2_PLACEMENT_3D('',#1192,#972,#973);
#787=AXIS2_PLACEMENT_3D('',#1193,#974,#975);
#788=AXIS2_PLACEMENT_3D('',#1194,#976,#977);
#789=AXIS2_PLACEMENT_3D('',#1195,#978,#979);
#790=AXIS2_PLACEMENT_3D('',#1196,#980,#981);
#791=AXIS2_PLACEMENT_3D('',#1197,#982,#983);
#792=AXIS2_PLACEMENT_3D('',#1198,#984,#985);
#793=AXIS2_PLACEMENT_3D('',#1199,#986,#987);
#794=AXIS2_PLACEMENT_3D('',#1200,#988,#989);
#795=AXIS2_PLACEMENT_3D('',#1201,#990,#991);
#796=AXIS2_PLACEMENT_3D('',#1202,#992,#993);
#797=AXIS2_PLACEMENT_3D('',#1204,#994,#995);
#798=AXIS2_PLACEMENT_3D('',#1205,#996,#997);
#799=AXIS2_PLACEMENT_3D('',#1206,#998,#999);
#800=AXIS2_PLACEMENT_3D('',#1208,#1000,#1001);
#801=AXIS2_PLACEMENT_3D('',#1209,#1002,#1003);
#802=AXIS2_PLACEMENT_3D('',#1210,#1004,#1005);
#803=DIRECTION('',(0.,0.,1.));
#804=DIRECTION('',(1.,0.,0.));
#805=DIRECTION('',(1.,0.,0.));
#806=DIRECTION('',(0.,1.,0.));
#807=DIRECTION('',(1.,0.,0.));
#808=DIRECTION('',(0.,-1.,0.));
#809=DIRECTION('',(0.,0.,1.));
#810=DIRECTION('',(1.,0.,0.));
#811=DIRECTION('',(0.,0.,1.));
#812=DIRECTION('',(1.,0.,0.));
#813=DIRECTION('',(0.,0.,1.));
#814=DIRECTION('',(0.999999999999997,0.,0.));
#815=DIRECTION('',(0.,0.,1.));
#816=DIRECTION('',(0.999999999999998,0.,0.));
#817=DIRECTION('',(-1.,0.,0.));
#818=DIRECTION('',(0.,1.,0.));
#819=DIRECTION('',(0.,0.,-1.));
#820=DIRECTION('',(1.,0.,0.));
#821=DIRECTION('',(1.,0.,0.));
#822=DIRECTION('',(0.,1.,0.));
#823=DIRECTION('',(-1.,0.,0.));
#824=DIRECTION('',(0.,-1.,0.));
#825=DIRECTION('',(-1.,0.,0.));
#826=DIRECTION('',(1.,0.,0.));
#827=DIRECTION('',(0.,0.,-1.));
#828=DIRECTION('',(1.,0.,0.));
#829=DIRECTION('',(0.,-1.,0.));
#830=DIRECTION('',(0.,0.,-1.));
#831=DIRECTION('',(1.,0.,0.));
#832=DIRECTION('',(-1.,0.,0.));
#833=DIRECTION('',(0.,0.,-1.));
#834=DIRECTION('',(1.,0.,0.));
#835=DIRECTION('',(0.,1.,0.));
#836=DIRECTION('',(0.,0.,-1.));
#837=DIRECTION('',(1.,0.,0.));
#838=DIRECTION('',(0.,0.,1.));
#839=DIRECTION('',(1.,0.,0.));
#840=DIRECTION('',(0.,0.,1.));
#841=DIRECTION('',(-1.,0.,0.));
#842=DIRECTION('',(0.,0.,1.));
#843=DIRECTION('',(1.,0.,0.));
#844=DIRECTION('',(0.,-1.,0.));
#845=DIRECTION('',(0.,0.,-1.));
#846=DIRECTION('',(0.,0.,1.));
#847=DIRECTION('',(0.,-1.,0.));
#848=DIRECTION('',(0.,0.,1.));
#849=DIRECTION('',(0.,-1.,0.));
#850=DIRECTION('',(0.,0.707106781186547,0.707106781186548));
#851=DIRECTION('',(0.,0.,1.));
#852=DIRECTION('',(0.,-1.,0.));
#853=DIRECTION('',(0.,0.,-1.));
#854=DIRECTION('',(-1.,0.,0.));
#855=DIRECTION('',(0.,0.,1.));
#856=DIRECTION('',(-1.,0.,0.));
#857=DIRECTION('',(0.,0.,1.));
#858=DIRECTION('',(1.,0.,0.));
#859=DIRECTION('',(0.,0.,1.));
#860=DIRECTION('',(-1.,0.,0.));
#861=DIRECTION('',(0.,1.,0.));
#862=DIRECTION('',(0.,0.,1.));
#863=DIRECTION('',(0.,0.,-1.));
#864=DIRECTION('',(-1.,0.,0.));
#865=DIRECTION('',(0.,1.,0.));
#866=DIRECTION('',(0.,0.,-1.));
#867=DIRECTION('',(-1.,0.,0.));
#868=DIRECTION('',(0.,0.,-1.));
#869=DIRECTION('',(0.,-0.707106781186547,-0.707106781186548));
#870=DIRECTION('',(0.,-0.707106781186546,0.707106781186549));
#871=DIRECTION('',(0.,0.,1.));
#872=DIRECTION('',(0.,1.,0.));
#873=DIRECTION('',(1.,0.,0.));
#874=DIRECTION('',(0.,0.,-1.));
#875=DIRECTION('',(0.,0.707106781186549,0.707106781186546));
#876=DIRECTION('',(0.,0.707106781186546,-0.707106781186549));
#877=DIRECTION('',(0.,0.707106781186546,-0.707106781186549));
#878=DIRECTION('',(0.,-0.707106781186549,-0.707106781186546));
#879=DIRECTION('',(1.,0.,0.));
#880=DIRECTION('',(0.,0.707106781186548,-0.707106781186547));
#881=DIRECTION('',(-1.,0.,0.));
#882=DIRECTION('',(-1.,0.,0.));
#883=DIRECTION('',(0.,-1.,0.));
#884=DIRECTION('',(0.,0.,-1.));
#885=DIRECTION('',(1.,0.,0.));
#886=DIRECTION('',(0.,1.,0.));
#887=DIRECTION('',(0.,0.,1.));
#888=DIRECTION('',(0.,0.,-1.));
#889=DIRECTION('',(-1.,0.,0.));
#890=DIRECTION('',(0.,0.,-1.));
#891=DIRECTION('',(-1.,0.,0.));
#892=DIRECTION('',(0.,-1.,0.));
#893=DIRECTION('',(0.,0.,-1.));
#894=DIRECTION('',(0.,0.,1.));
#895=DIRECTION('',(-1.,0.,0.));
#896=DIRECTION('',(0.,-1.,0.));
#897=DIRECTION('',(0.,0.,-1.));
#898=DIRECTION('',(-1.,0.,0.));
#899=DIRECTION('',(0.,0.,1.));
#900=DIRECTION('',(1.,0.,0.));
#901=DIRECTION('',(0.,0.,-1.));
#902=DIRECTION('',(0.,0.,1.));
#903=DIRECTION('',(1.,0.,0.));
#904=DIRECTION('',(-1.,0.,0.));
#905=DIRECTION('',(0.,0.,1.));
#906=DIRECTION('',(0.,0.,-1.));
#907=DIRECTION('',(0.,-1.,0.));
#908=DIRECTION('',(0.,0.,-1.));
#909=DIRECTION('',(0.,0.,-1.));
#910=DIRECTION('',(0.,1.,0.));
#911=DIRECTION('',(0.,0.,1.));
#912=DIRECTION('',(-1.,0.,0.));
#913=DIRECTION('',(0.,0.,1.));
#914=DIRECTION('',(0.,0.,-1.));
#915=DIRECTION('',(1.,0.,0.));
#916=DIRECTION('',(0.,0.,1.));
#917=DIRECTION('',(0.,1.,0.));
#918=DIRECTION('',(0.,0.,1.));
#919=DIRECTION('',(1.,0.,0.));
#920=DIRECTION('',(0.,0.,-1.));
#921=DIRECTION('',(-1.,0.,0.));
#922=DIRECTION('',(0.,-1.,0.));
#923=DIRECTION('',(0.,0.,-1.));
#924=DIRECTION('',(-1.,0.,0.));
#925=DIRECTION('',(-1.,0.,0.));
#926=DIRECTION('',(0.,0.,-1.));
#927=DIRECTION('',(-1.,0.,0.));
#928=DIRECTION('',(0.,1.,0.));
#929=DIRECTION('',(0.,0.,-1.));
#930=DIRECTION('',(-1.,0.,0.));
#931=DIRECTION('',(0.,0.,1.));
#932=DIRECTION('',(-1.,0.,0.));
#933=DIRECTION('',(0.,0.,1.));
#934=DIRECTION('',(-1.,0.,0.));
#935=DIRECTION('',(0.,-1.,0.));
#936=DIRECTION('',(0.,0.,1.));
#937=DIRECTION('',(-1.,0.,0.));
#938=DIRECTION('',(0.,0.,1.));
#939=DIRECTION('',(-1.,0.,0.));
#940=DIRECTION('',(0.,0.,-1.));
#941=DIRECTION('',(-1.,0.,0.));
#942=DIRECTION('',(0.,0.,-1.));
#943=DIRECTION('',(0.,0.,1.));
#944=DIRECTION('',(1.,0.,0.));
#945=DIRECTION('',(0.,0.,-1.));
#946=DIRECTION('',(0.,0.,1.));
#947=DIRECTION('',(1.,0.,0.));
#948=DIRECTION('',(0.,0.,1.));
#949=DIRECTION('',(1.,0.,0.));
#950=DIRECTION('',(0.,0.,1.));
#951=DIRECTION('',(1.,0.,0.));
#952=DIRECTION('',(0.,0.,1.));
#953=DIRECTION('',(1.,0.,0.));
#954=DIRECTION('',(0.,0.,-1.));
#955=DIRECTION('',(-1.,0.,0.));
#956=DIRECTION('',(0.,0.,1.));
#957=DIRECTION('',(0.,-1.,0.));
#958=DIRECTION('',(0.,0.,-1.));
#959=DIRECTION('',(0.,1.,0.));
#960=DIRECTION('',(0.,0.,1.));
#961=DIRECTION('',(0.,0.,-1.));
#962=DIRECTION('',(-1.,0.,0.));
#963=DIRECTION('',(0.,0.,1.));
#964=DIRECTION('',(1.,0.,0.));
#965=DIRECTION('',(0.,0.,1.));
#966=DIRECTION('',(0.,0.,-1.));
#967=DIRECTION('',(0.,1.,0.));
#968=DIRECTION('',(0.,0.,1.));
#969=DIRECTION('',(0.,-1.,0.));
#970=DIRECTION('',(0.,0.,1.));
#971=DIRECTION('',(0.,0.,-1.));
#972=DIRECTION('',(1.,0.,0.));
#973=DIRECTION('',(0.,0.,-1.));
#974=DIRECTION('',(0.,0.,1.));
#975=DIRECTION('',(-1.,0.,0.));
#976=DIRECTION('',(0.,0.,1.));
#977=DIRECTION('',(-1.,0.,0.));
#978=DIRECTION('',(0.,0.,1.));
#979=DIRECTION('',(-1.,0.,0.));
#980=DIRECTION('',(0.,0.,1.));
#981=DIRECTION('',(-1.,0.,0.));
#982=DIRECTION('',(0.,0.,-1.));
#983=DIRECTION('',(-1.,0.,0.));
#984=DIRECTION('',(0.,0.,1.));
#985=DIRECTION('',(1.,0.,0.));
#986=DIRECTION('',(0.,0.,1.));
#987=DIRECTION('',(1.,0.,0.));
#988=DIRECTION('',(0.,0.,1.));
#989=DIRECTION('',(1.,0.,0.));
#990=DIRECTION('',(0.,0.,1.));
#991=DIRECTION('',(1.,0.,0.));
#992=DIRECTION('',(0.,0.,-1.));
#993=DIRECTION('',(0.999999999999998,0.,0.));
#994=DIRECTION('',(0.,0.,-1.));
#995=DIRECTION('',(-1.,0.,0.));
#996=DIRECTION('',(0.,0.,-1.));
#997=DIRECTION('',(0.999999999999998,0.,0.));
#998=DIRECTION('',(0.,0.,-1.));
#999=DIRECTION('',(0.999999999999997,0.,0.));
#1000=DIRECTION('',(0.,0.,-1.));
#1001=DIRECTION('',(-1.,0.,0.));
#1002=DIRECTION('',(0.,0.,-1.));
#1003=DIRECTION('',(0.999999999999997,0.,0.));
#1004=DIRECTION('',(0.,0.,-1.));
#1005=DIRECTION('',(1.,0.,0.));
#1006=CARTESIAN_POINT('',(0.,0.,0.));
#1007=CARTESIAN_POINT('',(244.4,9.6,66.6));
#1008=CARTESIAN_POINT('',(0.,9.6,66.6));
#1009=CARTESIAN_POINT('',(488.8,9.6,66.6));
#1010=CARTESIAN_POINT('',(0.,205.85,66.6));
#1011=CARTESIAN_POINT('',(0.,5.39999999999999,66.6));
#1012=CARTESIAN_POINT('',(244.4,5.39999999999999,66.6));
#1013=CARTESIAN_POINT('',(488.8,5.39999999999999,66.6));
#1014=CARTESIAN_POINT('',(488.8,205.85,66.6));
#1015=CARTESIAN_POINT('',(244.4,205.85,66.6));
#1016=CARTESIAN_POINT('',(81.6,124.4,66.6));
#1017=CARTESIAN_POINT('',(87.6,124.4,66.6));
#1018=CARTESIAN_POINT('',(376.5,104.7,66.6));
#1019=CARTESIAN_POINT('',(383.25,104.7,66.6));
#1020=CARTESIAN_POINT('',(405.,397.4,66.6));
#1021=CARTESIAN_POINT('',(400.282744441945,406.5,66.6));
#1022=CARTESIAN_POINT('',(409.717255558055,406.5,66.6));
#1023=CARTESIAN_POINT('',(244.4,406.5,66.6));
#1024=CARTESIAN_POINT('',(74.5,406.5,66.6));
#1025=CARTESIAN_POINT('',(74.5,205.85,66.6));
#1026=CARTESIAN_POINT('',(74.5,334.8,66.6));
#1027=CARTESIAN_POINT('',(59.7,334.8,66.6));
#1028=CARTESIAN_POINT('',(59.7,320.,66.6));
#1029=CARTESIAN_POINT('',(244.4,320.,66.6));
#1030=CARTESIAN_POINT('',(0.,320.,66.6));
#1031=CARTESIAN_POINT('',(0.,205.85,66.6));
#1032=CARTESIAN_POINT('',(0.,39.8,66.6));
#1033=CARTESIAN_POINT('',(244.4,39.8,66.6));
#1034=CARTESIAN_POINT('',(488.8,39.8,66.6));
#1035=CARTESIAN_POINT('',(488.8,205.85,66.6));
#1036=CARTESIAN_POINT('',(488.8,406.5,66.6));
#1037=CARTESIAN_POINT('',(244.4,406.5,66.6));
#1038=CARTESIAN_POINT('',(244.4,192.4,66.6));
#1039=CARTESIAN_POINT('',(168.7,192.4,66.6));
#1040=CARTESIAN_POINT('',(343.3,192.4,66.6));
#1041=CARTESIAN_POINT('',(168.7,205.5,66.6));
#1042=CARTESIAN_POINT('',(155.6,205.5,66.6));
#1043=CARTESIAN_POINT('',(155.6,205.85,66.6));
#1044=CARTESIAN_POINT('',(155.6,280.,66.6));
#1045=CARTESIAN_POINT('',(168.7,280.,66.6));
#1046=CARTESIAN_POINT('',(168.7,293.1,66.6));
#1047=CARTESIAN_POINT('',(244.4,293.1,66.6));
#1048=CARTESIAN_POINT('',(343.3,293.1,66.6));
#1049=CARTESIAN_POINT('',(343.3,280.,66.6));
#1050=CARTESIAN_POINT('',(356.4,280.,66.6));
#1051=CARTESIAN_POINT('',(356.4,205.85,66.6));
#1052=CARTESIAN_POINT('',(356.4,205.5,66.6));
#1053=CARTESIAN_POINT('',(343.3,205.5,66.6));
#1054=CARTESIAN_POINT('',(244.4,205.85,66.6));
#1055=CARTESIAN_POINT('',(488.8,0.,0.));
#1056=CARTESIAN_POINT('',(488.8,0.,0.));
#1057=CARTESIAN_POINT('',(488.8,0.,61.2));
#1058=CARTESIAN_POINT('',(244.4,0.,61.2));
#1059=CARTESIAN_POINT('',(0.,0.,61.2));
#1060=CARTESIAN_POINT('',(0.,0.,0.));
#1061=CARTESIAN_POINT('',(0.,0.,0.));
#1062=CARTESIAN_POINT('',(244.4,0.,0.));
#1063=CARTESIAN_POINT('',(244.4,0.,0.));
#1064=CARTESIAN_POINT('',(0.,320.,51.3));
#1065=CARTESIAN_POINT('',(0.,320.,51.3));
#1066=CARTESIAN_POINT('',(0.,365.85,51.3));
#1067=CARTESIAN_POINT('',(0.,411.7,51.3));
#1068=CARTESIAN_POINT('',(0.,411.7,0.));
#1069=CARTESIAN_POINT('',(0.,411.7,0.));
#1070=CARTESIAN_POINT('',(0.,205.85,0.));
#1071=CARTESIAN_POINT('',(0.,72.3249999999998,133.525));
#1072=CARTESIAN_POINT('',(0.,9.6,0.));
#1073=CARTESIAN_POINT('',(0.,9.6,52.1));
#1074=CARTESIAN_POINT('',(0.,205.85,52.1));
#1075=CARTESIAN_POINT('',(0.,39.8,52.1));
#1076=CARTESIAN_POINT('',(0.,39.8,0.));
#1077=CARTESIAN_POINT('',(0.,205.85,0.));
#1078=CARTESIAN_POINT('',(37.25,411.7,51.3));
#1079=CARTESIAN_POINT('',(74.5,411.7,51.3));
#1080=CARTESIAN_POINT('',(74.5,411.7,51.3));
#1081=CARTESIAN_POINT('',(74.5,411.7,61.4));
#1082=CARTESIAN_POINT('',(244.4,411.7,61.4));
#1083=CARTESIAN_POINT('',(488.8,411.7,61.4));
#1084=CARTESIAN_POINT('',(488.8,411.7,0.));
#1085=CARTESIAN_POINT('',(488.8,411.7,0.));
#1086=CARTESIAN_POINT('',(244.4,411.7,0.));
#1087=CARTESIAN_POINT('',(244.4,411.7,0.));
#1088=CARTESIAN_POINT('',(81.6,124.4,0.));
#1089=CARTESIAN_POINT('',(75.6,124.4,0.));
#1090=CARTESIAN_POINT('',(488.8,205.85,0.));
#1091=CARTESIAN_POINT('',(244.4,205.85,0.));
#1092=CARTESIAN_POINT('',(488.8,9.6,0.));
#1093=CARTESIAN_POINT('',(488.8,9.6,52.1));
#1094=CARTESIAN_POINT('',(488.8,72.3249999999998,133.525));
#1095=CARTESIAN_POINT('',(488.8,339.475,133.625));
#1096=CARTESIAN_POINT('',(488.8,39.8,0.));
#1097=CARTESIAN_POINT('',(488.8,39.8,52.1));
#1098=CARTESIAN_POINT('',(488.8,205.85,52.1));
#1099=CARTESIAN_POINT('',(488.8,205.85,0.));
#1100=CARTESIAN_POINT('',(405.,397.4,75.7000000000001));
#1101=CARTESIAN_POINT('',(74.5,411.7,61.4));
#1102=CARTESIAN_POINT('',(244.4,411.7,61.4));
#1103=CARTESIAN_POINT('',(244.4,0.,61.2));
#1104=CARTESIAN_POINT('',(244.4,9.6,52.1));
#1105=CARTESIAN_POINT('',(244.4,9.6,52.1));
#1106=CARTESIAN_POINT('',(244.4,39.8,52.1));
#1107=CARTESIAN_POINT('',(244.4,39.8,52.1));
#1108=CARTESIAN_POINT('',(244.4,24.7,52.1));
#1109=CARTESIAN_POINT('',(59.7,320.,51.3));
#1110=CARTESIAN_POINT('',(59.7,320.,51.3));
#1111=CARTESIAN_POINT('',(37.25,320.,51.3));
#1112=CARTESIAN_POINT('',(37.25,320.,51.3));
#1113=CARTESIAN_POINT('',(59.7,334.8,51.3));
#1114=CARTESIAN_POINT('',(74.5,334.8,51.3));
#1115=CARTESIAN_POINT('',(74.5,365.85,51.3));
#1116=CARTESIAN_POINT('',(37.25,365.85,51.3));
#1117=CARTESIAN_POINT('',(74.5,334.8,66.6));
#1118=CARTESIAN_POINT('',(74.5,365.85,51.3));
#1119=CARTESIAN_POINT('',(59.7,334.8,51.3));
#1120=CARTESIAN_POINT('',(256.,192.4,51.));
#1121=CARTESIAN_POINT('',(343.3,192.4,51.));
#1122=CARTESIAN_POINT('',(168.7,192.4,51.));
#1123=CARTESIAN_POINT('',(168.7,192.4,66.6));
#1124=CARTESIAN_POINT('',(343.3,192.4,51.));
#1125=CARTESIAN_POINT('',(256.,192.4,51.));
#1126=CARTESIAN_POINT('',(155.6,205.5,51.));
#1127=CARTESIAN_POINT('',(155.6,205.5,51.));
#1128=CARTESIAN_POINT('',(155.6,242.75,51.));
#1129=CARTESIAN_POINT('',(155.6,280.,51.));
#1130=CARTESIAN_POINT('',(155.6,280.,66.6));
#1131=CARTESIAN_POINT('',(155.6,242.75,51.));
#1132=CARTESIAN_POINT('',(168.7,293.1,51.));
#1133=CARTESIAN_POINT('',(168.7,293.1,51.));
#1134=CARTESIAN_POINT('',(256.,293.1,51.));
#1135=CARTESIAN_POINT('',(343.3,293.1,51.));
#1136=CARTESIAN_POINT('',(343.3,293.1,66.6));
#1137=CARTESIAN_POINT('',(256.,293.1,51.));
#1138=CARTESIAN_POINT('',(256.,262.,51.));
#1139=CARTESIAN_POINT('',(211.5,262.,51.));
#1140=CARTESIAN_POINT('',(250.8,262.,51.));
#1141=CARTESIAN_POINT('',(250.8,250.,51.));
#1142=CARTESIAN_POINT('',(262.8,250.,51.));
#1143=CARTESIAN_POINT('',(262.8,242.75,51.));
#1144=CARTESIAN_POINT('',(262.8,226.1,51.));
#1145=CARTESIAN_POINT('',(250.8,226.1,51.));
#1146=CARTESIAN_POINT('',(250.8,214.1,51.));
#1147=CARTESIAN_POINT('',(256.,214.1,51.));
#1148=CARTESIAN_POINT('',(211.5,214.1,51.));
#1149=CARTESIAN_POINT('',(211.5,226.1,51.));
#1150=CARTESIAN_POINT('',(199.5,226.1,51.));
#1151=CARTESIAN_POINT('',(199.5,242.75,51.));
#1152=CARTESIAN_POINT('',(199.5,250.,51.));
#1153=CARTESIAN_POINT('',(211.5,250.,51.));
#1154=CARTESIAN_POINT('',(168.7,205.5,51.));
#1155=CARTESIAN_POINT('',(343.3,205.5,51.));
#1156=CARTESIAN_POINT('',(356.4,205.5,51.));
#1157=CARTESIAN_POINT('',(356.4,242.75,51.));
#1158=CARTESIAN_POINT('',(356.4,280.,51.));
#1159=CARTESIAN_POINT('',(343.3,280.,51.));
#1160=CARTESIAN_POINT('',(168.7,280.,51.));
#1161=CARTESIAN_POINT('',(256.,242.75,51.));
#1162=CARTESIAN_POINT('',(356.4,280.,51.));
#1163=CARTESIAN_POINT('',(356.4,205.5,66.6));
#1164=CARTESIAN_POINT('',(356.4,242.75,51.));
#1165=CARTESIAN_POINT('',(168.7,205.5,51.));
#1166=CARTESIAN_POINT('',(168.7,280.,51.));
#1167=CARTESIAN_POINT('',(343.3,280.,51.));
#1168=CARTESIAN_POINT('',(343.3,205.5,51.));
#1169=CARTESIAN_POINT('',(250.8,214.1,32.2));
#1170=CARTESIAN_POINT('',(250.8,214.1,32.2));
#1171=CARTESIAN_POINT('',(231.15,214.1,32.2));
#1172=CARTESIAN_POINT('',(211.5,214.1,32.2));
#1173=CARTESIAN_POINT('',(211.5,214.1,51.));
#1174=CARTESIAN_POINT('',(231.15,214.1,32.2));
#1175=CARTESIAN_POINT('',(199.5,238.05,32.2));
#1176=CARTESIAN_POINT('',(199.5,226.1,32.2));
#1177=CARTESIAN_POINT('',(199.5,250.,32.2));
#1178=CARTESIAN_POINT('',(199.5,250.,51.));
#1179=CARTESIAN_POINT('',(199.5,226.1,32.2));
#1180=CARTESIAN_POINT('',(199.5,238.05,32.2));
#1181=CARTESIAN_POINT('',(231.15,262.,32.2));
#1182=CARTESIAN_POINT('',(211.5,262.,32.2));
#1183=CARTESIAN_POINT('',(250.8,262.,32.2));
#1184=CARTESIAN_POINT('',(250.8,262.,51.));
#1185=CARTESIAN_POINT('',(211.5,262.,32.2));
#1186=CARTESIAN_POINT('',(231.15,262.,32.2));
#1187=CARTESIAN_POINT('',(262.8,238.05,32.2));
#1188=CARTESIAN_POINT('',(262.8,250.,32.2));
#1189=CARTESIAN_POINT('',(262.8,226.1,32.2));
#1190=CARTESIAN_POINT('',(262.8,226.1,51.));
#1191=CARTESIAN_POINT('',(262.8,250.,32.2));
#1192=CARTESIAN_POINT('',(262.8,238.05,32.2));
#1193=CARTESIAN_POINT('',(250.8,226.1,32.2));
#1194=CARTESIAN_POINT('',(250.8,250.,32.2));
#1195=CARTESIAN_POINT('',(211.5,250.,32.2));
#1196=CARTESIAN_POINT('',(211.5,226.1,32.2));
#1197=CARTESIAN_POINT('',(231.15,238.05,32.2));
#1198=CARTESIAN_POINT('',(250.8,226.1,32.2));
#1199=CARTESIAN_POINT('',(250.8,250.,32.2));
#1200=CARTESIAN_POINT('',(211.5,250.,32.2));
#1201=CARTESIAN_POINT('',(211.5,226.1,32.2));
#1202=CARTESIAN_POINT('',(405.,397.4,41.8));
#1203=CARTESIAN_POINT('',(415.25,397.4,41.8));
#1204=CARTESIAN_POINT('',(405.,397.4,41.8));
#1205=CARTESIAN_POINT('',(405.,397.4,66.65));
#1206=CARTESIAN_POINT('',(376.5,104.7,46.5));
#1207=CARTESIAN_POINT('',(383.25,104.7,46.5));
#1208=CARTESIAN_POINT('',(376.5,104.7,46.5));
#1209=CARTESIAN_POINT('',(376.5,104.7,66.65));
#1210=CARTESIAN_POINT('',(81.6,124.4,66.65));
#1211=MECHANICAL_DESIGN_GEOMETRIC_PRESENTATION_REPRESENTATION('',(#24),
#1212);
#1212=(
GEOMETRIC_REPRESENTATION_CONTEXT(3)
GLOBAL_UNCERTAINTY_ASSIGNED_CONTEXT((#1213))
GLOBAL_UNIT_ASSIGNED_CONTEXT((#1219,#1215,#1214))
REPRESENTATION_CONTEXT('featured_part_01238','TOP_LEVEL_ASSEMBLY_PART')
);
#1213=UNCERTAINTY_MEASURE_WITH_UNIT(LENGTH_MEASURE(2.E-5),#1219,
'DISTANCE_ACCURACY_VALUE','Maximum Tolerance applied to model');
#1214=(
NAMED_UNIT(*)
SI_UNIT($,.STERADIAN.)
SOLID_ANGLE_UNIT()
);
#1215=(
CONVERSION_BASED_UNIT('DEGREE',#1217)
NAMED_UNIT(#1216)
PLANE_ANGLE_UNIT()
);
#1216=DIMENSIONAL_EXPONENTS(0.,0.,0.,0.,0.,0.,0.);
#1217=PLANE_ANGLE_MEASURE_WITH_UNIT(PLANE_ANGLE_MEASURE(0.0174532925),#1218);
#1218=(
NAMED_UNIT(*)
PLANE_ANGLE_UNIT()
SI_UNIT($,.RADIAN.)
);
#1219=(
LENGTH_UNIT()
NAMED_UNIT(*)
SI_UNIT(.MILLI.,.METRE.)
);
ENDSEC;
END-ISO-10303-21;
