ISO-10303-21;
HEADER;
/* Generated by software containing ST-Developer
 * from STEP Tools, Inc. (www.steptools.com) 
 */
/* OPTION: using custom schema-name function */

FILE_DESCRIPTION(
/* description */ (''),
/* implementation_level */ '2;1');

FILE_NAME(
/* name */ 'featured_part_09424.stp',
/* time_stamp */ '2026-07-11T12:00:25-04:00',
/* author */ (''),
/* organization */ (''),
/* preprocessor_version */ 'ST-DEVELOPER v20.1',
/* originating_system */ 'SIEMENS PLM Software NX2512.6002',
/* authorisation */ '');

FILE_SCHEMA (('AUTOMOTIVE_DESIGN { 1 0 10303 214 3 1 1 1 }'));
ENDSEC;

DATA;
#10=SHAPE_REPRESENTATION_RELATIONSHIP('None',
'relationship between featured_part_09424-None and featured_part_09424
-None',#22,#11);
#11=ADVANCED_BREP_SHAPE_REPRESENTATION('featured_part_09424-None',(#32),
#1435);
#12=SHAPE_DEFINITION_REPRESENTATION(#13,#22);
#13=PRODUCT_DEFINITION_SHAPE('','',#14);
#14=PRODUCT_DEFINITION(' ','',#16,#15);
#15=PRODUCT_DEFINITION_CONTEXT('part definition',#21,'design');
#16=PRODUCT_DEFINITION_FORMATION_WITH_SPECIFIED_SOURCE(' ',' ',#18,
 .NOT_KNOWN.);
#17=PRODUCT_RELATED_PRODUCT_CATEGORY('part','',(#18));
#18=PRODUCT('featured_part_09424','featured_part_09424',' ',(#19));
#19=PRODUCT_CONTEXT(' ',#21,'mechanical');
#20=APPLICATION_PROTOCOL_DEFINITION('international standard',
'automotive_design',2010,#21);
#21=APPLICATION_CONTEXT(
'core data for automotive mechanical design processes');
#22=SHAPE_REPRESENTATION('featured_part_09424-None',(#870),#1435);
#23=PRESENTATION_LAYER_ASSIGNMENT('1','Layer 1',(#32));
#24=STYLED_ITEM('',(#25),#32);
#25=PRESENTATION_STYLE_ASSIGNMENT((#26));
#26=SURFACE_STYLE_USAGE(.BOTH.,#27);
#27=SURFACE_SIDE_STYLE('',(#28));
#28=SURFACE_STYLE_FILL_AREA(#29);
#29=FILL_AREA_STYLE('',(#30));
#30=FILL_AREA_STYLE_COLOUR('',#31);
#31=COLOUR_RGB('medium steel',0.611764705882353,0.658823529411765,0.670588235294118);
#32=MANIFOLD_SOLID_BREP('',#33);
#33=CLOSED_SHELL('',(#91,#92,#93,#94,#95,#96,#97,#98,#99,#100,#101,#102,
#103,#104,#105,#106,#107,#108,#109,#110,#111,#112,#113,#114,#115,#116,#117,
#118,#119,#120,#121,#122,#123,#124,#125,#126,#127,#128,#129,#130,#131,#132,
#133,#134,#135));
#34=CYLINDRICAL_SURFACE('',#894,14.4);
#35=CYLINDRICAL_SURFACE('',#904,14.);
#36=CYLINDRICAL_SURFACE('',#905,14.);
#37=CYLINDRICAL_SURFACE('',#906,14.);
#38=CYLINDRICAL_SURFACE('',#907,14.);
#39=CYLINDRICAL_SURFACE('',#921,3.7);
#40=CYLINDRICAL_SURFACE('',#922,3.7);
#41=CYLINDRICAL_SURFACE('',#923,3.7);
#42=CYLINDRICAL_SURFACE('',#924,3.7);
#43=CYLINDRICAL_SURFACE('',#934,8.9);
#44=CYLINDRICAL_SURFACE('',#935,8.9);
#45=CYLINDRICAL_SURFACE('',#936,8.9);
#46=CYLINDRICAL_SURFACE('',#937,8.9);
#47=CYLINDRICAL_SURFACE('',#942,11.2);
#48=CYLINDRICAL_SURFACE('',#945,8.55);
#49=FACE_OUTER_BOUND('',#174,.T.);
#50=FACE_OUTER_BOUND('',#175,.T.);
#51=FACE_OUTER_BOUND('',#176,.T.);
#52=FACE_OUTER_BOUND('',#177,.T.);
#53=FACE_OUTER_BOUND('',#178,.T.);
#54=FACE_OUTER_BOUND('',#179,.T.);
#55=FACE_OUTER_BOUND('',#180,.T.);
#56=FACE_OUTER_BOUND('',#181,.T.);
#57=FACE_OUTER_BOUND('',#184,.T.);
#58=FACE_OUTER_BOUND('',#185,.T.);
#59=FACE_OUTER_BOUND('',#186,.T.);
#60=FACE_OUTER_BOUND('',#187,.T.);
#61=FACE_OUTER_BOUND('',#188,.T.);
#62=FACE_OUTER_BOUND('',#189,.T.);
#63=FACE_OUTER_BOUND('',#190,.T.);
#64=FACE_OUTER_BOUND('',#191,.T.);
#65=FACE_OUTER_BOUND('',#192,.T.);
#66=FACE_OUTER_BOUND('',#193,.T.);
#67=FACE_OUTER_BOUND('',#194,.T.);
#68=FACE_OUTER_BOUND('',#195,.T.);
#69=FACE_OUTER_BOUND('',#196,.T.);
#70=FACE_OUTER_BOUND('',#197,.T.);
#71=FACE_OUTER_BOUND('',#200,.T.);
#72=FACE_OUTER_BOUND('',#201,.T.);
#73=FACE_OUTER_BOUND('',#202,.T.);
#74=FACE_OUTER_BOUND('',#203,.T.);
#75=FACE_OUTER_BOUND('',#204,.T.);
#76=FACE_OUTER_BOUND('',#205,.T.);
#77=FACE_OUTER_BOUND('',#206,.T.);
#78=FACE_OUTER_BOUND('',#207,.T.);
#79=FACE_OUTER_BOUND('',#208,.T.);
#80=FACE_OUTER_BOUND('',#209,.T.);
#81=FACE_OUTER_BOUND('',#210,.T.);
#82=FACE_OUTER_BOUND('',#211,.T.);
#83=FACE_OUTER_BOUND('',#212,.T.);
#84=FACE_OUTER_BOUND('',#213,.T.);
#85=FACE_OUTER_BOUND('',#214,.T.);
#86=FACE_OUTER_BOUND('',#215,.T.);
#87=FACE_OUTER_BOUND('',#216,.T.);
#88=FACE_OUTER_BOUND('',#217,.T.);
#89=FACE_OUTER_BOUND('',#218,.T.);
#90=FACE_OUTER_BOUND('',#219,.T.);
#91=ADVANCED_FACE('',(#166,#167),#136,.T.);
#92=ADVANCED_FACE('',(#49),#137,.T.);
#93=ADVANCED_FACE('',(#50),#138,.T.);
#94=ADVANCED_FACE('',(#51),#139,.T.);
#95=ADVANCED_FACE('',(#52),#140,.T.);
#96=ADVANCED_FACE('',(#53),#141,.T.);
#97=ADVANCED_FACE('',(#54),#142,.F.);
#98=ADVANCED_FACE('',(#55),#143,.F.);
#99=ADVANCED_FACE('',(#56),#144,.F.);
#100=ADVANCED_FACE('',(#168,#169),#145,.F.);
#101=ADVANCED_FACE('',(#57),#146,.F.);
#102=ADVANCED_FACE('',(#58),#34,.F.);
#103=ADVANCED_FACE('',(#59),#147,.F.);
#104=ADVANCED_FACE('',(#60),#148,.F.);
#105=ADVANCED_FACE('',(#61),#149,.F.);
#106=ADVANCED_FACE('',(#62),#150,.F.);
#107=ADVANCED_FACE('',(#63),#151,.F.);
#108=ADVANCED_FACE('',(#64),#35,.F.);
#109=ADVANCED_FACE('',(#65),#36,.F.);
#110=ADVANCED_FACE('',(#66),#37,.F.);
#111=ADVANCED_FACE('',(#67),#38,.F.);
#112=ADVANCED_FACE('',(#68),#152,.F.);
#113=ADVANCED_FACE('',(#69),#153,.F.);
#114=ADVANCED_FACE('',(#70),#154,.F.);
#115=ADVANCED_FACE('',(#170,#171),#155,.F.);
#116=ADVANCED_FACE('',(#71),#156,.F.);
#117=ADVANCED_FACE('',(#72),#39,.F.);
#118=ADVANCED_FACE('',(#73),#40,.F.);
#119=ADVANCED_FACE('',(#74),#41,.F.);
#120=ADVANCED_FACE('',(#75),#42,.F.);
#121=ADVANCED_FACE('',(#76),#157,.F.);
#122=ADVANCED_FACE('',(#77),#158,.F.);
#123=ADVANCED_FACE('',(#78),#159,.F.);
#124=ADVANCED_FACE('',(#79),#160,.F.);
#125=ADVANCED_FACE('',(#80),#161,.F.);
#126=ADVANCED_FACE('',(#81),#43,.F.);
#127=ADVANCED_FACE('',(#82),#44,.F.);
#128=ADVANCED_FACE('',(#83),#45,.F.);
#129=ADVANCED_FACE('',(#84),#46,.F.);
#130=ADVANCED_FACE('',(#85),#162,.F.);
#131=ADVANCED_FACE('',(#86),#163,.F.);
#132=ADVANCED_FACE('',(#87),#164,.F.);
#133=ADVANCED_FACE('',(#88),#47,.F.);
#134=ADVANCED_FACE('',(#89),#165,.F.);
#135=ADVANCED_FACE('',(#90),#48,.F.);
#136=PLANE('',#878);
#137=PLANE('',#879);
#138=PLANE('',#880);
#139=PLANE('',#881);
#140=PLANE('',#882);
#141=PLANE('',#883);
#142=PLANE('',#884);
#143=PLANE('',#885);
#144=PLANE('',#886);
#145=PLANE('',#892);
#146=PLANE('',#893);
#147=PLANE('',#895);
#148=PLANE('',#896);
#149=PLANE('',#897);
#150=PLANE('',#898);
#151=PLANE('',#903);
#152=PLANE('',#908);
#153=PLANE('',#909);
#154=PLANE('',#910);
#155=PLANE('',#919);
#156=PLANE('',#920);
#157=PLANE('',#925);
#158=PLANE('',#926);
#159=PLANE('',#927);
#160=PLANE('',#928);
#161=PLANE('',#933);
#162=PLANE('',#938);
#163=PLANE('',#939);
#164=PLANE('',#941);
#165=PLANE('',#944);
#166=FACE_BOUND('',#172,.T.);
#167=FACE_BOUND('',#173,.T.);
#168=FACE_BOUND('',#182,.T.);
#169=FACE_BOUND('',#183,.T.);
#170=FACE_BOUND('',#198,.T.);
#171=FACE_BOUND('',#199,.T.);
#172=EDGE_LOOP('',(#400,#401,#402,#403,#404,#405,#406,#407,#408,#409));
#173=EDGE_LOOP('',(#410,#411,#412,#413,#414,#415,#416,#417,#418,#419));
#174=EDGE_LOOP('',(#420,#421,#422,#423,#424,#425,#426,#427));
#175=EDGE_LOOP('',(#428,#429,#430,#431,#432,#433));
#176=EDGE_LOOP('',(#434,#435,#436,#437,#438));
#177=EDGE_LOOP('',(#439,#440,#441,#442));
#178=EDGE_LOOP('',(#443,#444,#445,#446,#447,#448));
#179=EDGE_LOOP('',(#449,#450,#451,#452));
#180=EDGE_LOOP('',(#453,#454,#455,#456));
#181=EDGE_LOOP('',(#457,#458,#459,#460));
#182=EDGE_LOOP('',(#461,#462,#463,#464,#465,#466,#467,#468));
#183=EDGE_LOOP('',(#469,#470,#471,#472,#473));
#184=EDGE_LOOP('',(#474,#475,#476,#477,#478));
#185=EDGE_LOOP('',(#479,#480,#481,#482));
#186=EDGE_LOOP('',(#483,#484,#485,#486));
#187=EDGE_LOOP('',(#487,#488,#489,#490));
#188=EDGE_LOOP('',(#491,#492,#493,#494));
#189=EDGE_LOOP('',(#495,#496,#497,#498));
#190=EDGE_LOOP('',(#499,#500,#501,#502,#503,#504,#505,#506));
#191=EDGE_LOOP('',(#507,#508,#509,#510));
#192=EDGE_LOOP('',(#511,#512,#513,#514));
#193=EDGE_LOOP('',(#515,#516,#517,#518));
#194=EDGE_LOOP('',(#519,#520,#521,#522));
#195=EDGE_LOOP('',(#523,#524,#525,#526,#527,#528,#529,#530));
#196=EDGE_LOOP('',(#531,#532,#533,#534));
#197=EDGE_LOOP('',(#535,#536,#537,#538));
#198=EDGE_LOOP('',(#539,#540,#541,#542,#543,#544,#545,#546));
#199=EDGE_LOOP('',(#547,#548,#549,#550,#551,#552,#553,#554));
#200=EDGE_LOOP('',(#555,#556,#557,#558));
#201=EDGE_LOOP('',(#559,#560,#561,#562));
#202=EDGE_LOOP('',(#563,#564,#565,#566));
#203=EDGE_LOOP('',(#567,#568,#569,#570));
#204=EDGE_LOOP('',(#571,#572,#573,#574));
#205=EDGE_LOOP('',(#575,#576,#577,#578));
#206=EDGE_LOOP('',(#579,#580,#581,#582));
#207=EDGE_LOOP('',(#583,#584,#585,#586));
#208=EDGE_LOOP('',(#587,#588,#589,#590));
#209=EDGE_LOOP('',(#591,#592,#593,#594,#595,#596,#597,#598));
#210=EDGE_LOOP('',(#599,#600,#601,#602));
#211=EDGE_LOOP('',(#603,#604,#605,#606));
#212=EDGE_LOOP('',(#607,#608,#609,#610));
#213=EDGE_LOOP('',(#611,#612,#613,#614));
#214=EDGE_LOOP('',(#615,#616,#617,#618,#619));
#215=EDGE_LOOP('',(#620,#621,#622,#623,#624));
#216=EDGE_LOOP('',(#625,#626,#627,#628,#629));
#217=EDGE_LOOP('',(#630,#631,#632,#633));
#218=EDGE_LOOP('',(#634,#635));
#219=EDGE_LOOP('',(#636,#637,#638,#639));
#220=LINE('',#1192,#310);
#221=LINE('',#1196,#311);
#222=LINE('',#1200,#312);
#223=LINE('',#1204,#313);
#224=LINE('',#1208,#314);
#225=LINE('',#1209,#315);
#226=LINE('',#1214,#316);
#227=LINE('',#1216,#317);
#228=LINE('',#1218,#318);
#229=LINE('',#1220,#319);
#230=LINE('',#1222,#320);
#231=LINE('',#1226,#321);
#232=LINE('',#1228,#322);
#233=LINE('',#1230,#323);
#234=LINE('',#1233,#324);
#235=LINE('',#1235,#325);
#236=LINE('',#1237,#326);
#237=LINE('',#1239,#327);
#238=LINE('',#1241,#328);
#239=LINE('',#1243,#329);
#240=LINE('',#1245,#330);
#241=LINE('',#1247,#331);
#242=LINE('',#1249,#332);
#243=LINE('',#1251,#333);
#244=LINE('',#1252,#334);
#245=LINE('',#1254,#335);
#246=LINE('',#1256,#336);
#247=LINE('',#1258,#337);
#248=LINE('',#1260,#338);
#249=LINE('',#1262,#339);
#250=LINE('',#1265,#340);
#251=LINE('',#1266,#341);
#252=LINE('',#1268,#342);
#253=LINE('',#1270,#343);
#254=LINE('',#1271,#344);
#255=LINE('',#1273,#345);
#256=LINE('',#1275,#346);
#257=LINE('',#1277,#347);
#258=LINE('',#1282,#348);
#259=LINE('',#1286,#349);
#260=LINE('',#1290,#350);
#261=LINE('',#1293,#351);
#262=LINE('',#1297,#352);
#263=LINE('',#1300,#353);
#264=LINE('',#1302,#354);
#265=LINE('',#1304,#355);
#266=LINE('',#1306,#356);
#267=LINE('',#1309,#357);
#268=LINE('',#1310,#358);
#269=LINE('',#1312,#359);
#270=LINE('',#1314,#360);
#271=LINE('',#1316,#361);
#272=LINE('',#1318,#362);
#273=LINE('',#1321,#363);
#274=LINE('',#1322,#364);
#275=LINE('',#1333,#365);
#276=LINE('',#1335,#366);
#277=LINE('',#1337,#367);
#278=LINE('',#1338,#368);
#279=LINE('',#1340,#369);
#280=LINE('',#1342,#370);
#281=LINE('',#1344,#371);
#282=LINE('',#1347,#372);
#283=LINE('',#1348,#373);
#284=LINE('',#1350,#374);
#285=LINE('',#1353,#375);
#286=LINE('',#1354,#376);
#287=LINE('',#1356,#377);
#288=LINE('',#1361,#378);
#289=LINE('',#1365,#379);
#290=LINE('',#1369,#380);
#291=LINE('',#1372,#381);
#292=LINE('',#1380,#382);
#293=LINE('',#1381,#383);
#294=LINE('',#1387,#384);
#295=LINE('',#1389,#385);
#296=LINE('',#1391,#386);
#297=LINE('',#1393,#387);
#298=LINE('',#1396,#388);
#299=LINE('',#1397,#389);
#300=LINE('',#1399,#390);
#301=LINE('',#1401,#391);
#302=LINE('',#1403,#392);
#303=LINE('',#1405,#393);
#304=LINE('',#1408,#394);
#305=LINE('',#1409,#395);
#306=LINE('',#1420,#396);
#307=LINE('',#1422,#397);
#308=LINE('',#1424,#398);
#309=LINE('',#1426,#399);
#310=VECTOR('',#950,1.);
#311=VECTOR('',#953,1.);
#312=VECTOR('',#956,1.);
#313=VECTOR('',#959,1.);
#314=VECTOR('',#962,1.);
#315=VECTOR('',#963,1.);
#316=VECTOR('',#966,1.);
#317=VECTOR('',#967,1.);
#318=VECTOR('',#968,1.);
#319=VECTOR('',#969,1.);
#320=VECTOR('',#970,1.);
#321=VECTOR('',#973,1.);
#322=VECTOR('',#974,1.);
#323=VECTOR('',#977,1.);
#324=VECTOR('',#978,1.);
#325=VECTOR('',#979,1.);
#326=VECTOR('',#980,1.);
#327=VECTOR('',#981,1.);
#328=VECTOR('',#982,1.);
#329=VECTOR('',#983,1.);
#330=VECTOR('',#984,1.);
#331=VECTOR('',#987,1.);
#332=VECTOR('',#988,1.);
#333=VECTOR('',#989,1.);
#334=VECTOR('',#990,1.);
#335=VECTOR('',#993,1.);
#336=VECTOR('',#994,1.);
#337=VECTOR('',#995,1.);
#338=VECTOR('',#998,1.);
#339=VECTOR('',#1001,1.);
#340=VECTOR('',#1002,1.);
#341=VECTOR('',#1003,1.);
#342=VECTOR('',#1006,1.);
#343=VECTOR('',#1009,1.);
#344=VECTOR('',#1010,1.);
#345=VECTOR('',#1013,1.);
#346=VECTOR('',#1014,1.);
#347=VECTOR('',#1017,1.);
#348=VECTOR('',#1020,1.);
#349=VECTOR('',#1023,1.);
#350=VECTOR('',#1026,1.);
#351=VECTOR('',#1029,1.);
#352=VECTOR('',#1034,1.);
#353=VECTOR('',#1039,1.);
#354=VECTOR('',#1040,1.);
#355=VECTOR('',#1041,1.);
#356=VECTOR('',#1044,1.);
#357=VECTOR('',#1045,1.);
#358=VECTOR('',#1046,1.);
#359=VECTOR('',#1049,1.);
#360=VECTOR('',#1050,1.);
#361=VECTOR('',#1051,1.);
#362=VECTOR('',#1054,1.);
#363=VECTOR('',#1055,1.);
#364=VECTOR('',#1056,1.);
#365=VECTOR('',#1077,1.);
#366=VECTOR('',#1078,1.);
#367=VECTOR('',#1079,1.);
#368=VECTOR('',#1080,1.);
#369=VECTOR('',#1081,1.);
#370=VECTOR('',#1082,1.);
#371=VECTOR('',#1085,1.);
#372=VECTOR('',#1086,1.);
#373=VECTOR('',#1087,1.);
#374=VECTOR('',#1090,1.);
#375=VECTOR('',#1091,1.);
#376=VECTOR('',#1092,1.);
#377=VECTOR('',#1095,1.);
#378=VECTOR('',#1098,1.);
#379=VECTOR('',#1101,1.);
#380=VECTOR('',#1104,1.);
#381=VECTOR('',#1107,1.);
#382=VECTOR('',#1118,1.);
#383=VECTOR('',#1119,1.);
#384=VECTOR('',#1130,1.);
#385=VECTOR('',#1131,1.);
#386=VECTOR('',#1132,1.);
#387=VECTOR('',#1135,1.);
#388=VECTOR('',#1136,1.);
#389=VECTOR('',#1137,1.);
#390=VECTOR('',#1140,1.);
#391=VECTOR('',#1141,1.);
#392=VECTOR('',#1142,1.);
#393=VECTOR('',#1145,1.);
#394=VECTOR('',#1146,1.);
#395=VECTOR('',#1147,1.);
#396=VECTOR('',#1168,1.);
#397=VECTOR('',#1169,1.);
#398=VECTOR('',#1172,1.);
#399=VECTOR('',#1173,1.);
#400=ORIENTED_EDGE('',*,*,#720,.F.);
#401=ORIENTED_EDGE('',*,*,#721,.F.);
#402=ORIENTED_EDGE('',*,*,#722,.T.);
#403=ORIENTED_EDGE('',*,*,#723,.F.);
#404=ORIENTED_EDGE('',*,*,#724,.T.);
#405=ORIENTED_EDGE('',*,*,#725,.F.);
#406=ORIENTED_EDGE('',*,*,#726,.T.);
#407=ORIENTED_EDGE('',*,*,#727,.F.);
#408=ORIENTED_EDGE('',*,*,#728,.T.);
#409=ORIENTED_EDGE('',*,*,#729,.F.);
#410=ORIENTED_EDGE('',*,*,#730,.F.);
#411=ORIENTED_EDGE('',*,*,#731,.T.);
#412=ORIENTED_EDGE('',*,*,#732,.F.);
#413=ORIENTED_EDGE('',*,*,#733,.T.);
#414=ORIENTED_EDGE('',*,*,#734,.F.);
#415=ORIENTED_EDGE('',*,*,#735,.F.);
#416=ORIENTED_EDGE('',*,*,#736,.F.);
#417=ORIENTED_EDGE('',*,*,#737,.T.);
#418=ORIENTED_EDGE('',*,*,#738,.F.);
#419=ORIENTED_EDGE('',*,*,#739,.T.);
#420=ORIENTED_EDGE('',*,*,#740,.T.);
#421=ORIENTED_EDGE('',*,*,#741,.T.);
#422=ORIENTED_EDGE('',*,*,#742,.F.);
#423=ORIENTED_EDGE('',*,*,#743,.F.);
#424=ORIENTED_EDGE('',*,*,#744,.F.);
#425=ORIENTED_EDGE('',*,*,#745,.T.);
#426=ORIENTED_EDGE('',*,*,#746,.T.);
#427=ORIENTED_EDGE('',*,*,#747,.F.);
#428=ORIENTED_EDGE('',*,*,#748,.T.);
#429=ORIENTED_EDGE('',*,*,#735,.T.);
#430=ORIENTED_EDGE('',*,*,#749,.F.);
#431=ORIENTED_EDGE('',*,*,#750,.T.);
#432=ORIENTED_EDGE('',*,*,#744,.T.);
#433=ORIENTED_EDGE('',*,*,#751,.F.);
#434=ORIENTED_EDGE('',*,*,#734,.T.);
#435=ORIENTED_EDGE('',*,*,#752,.T.);
#436=ORIENTED_EDGE('',*,*,#753,.F.);
#437=ORIENTED_EDGE('',*,*,#754,.T.);
#438=ORIENTED_EDGE('',*,*,#749,.T.);
#439=ORIENTED_EDGE('',*,*,#755,.F.);
#440=ORIENTED_EDGE('',*,*,#745,.F.);
#441=ORIENTED_EDGE('',*,*,#750,.F.);
#442=ORIENTED_EDGE('',*,*,#754,.F.);
#443=ORIENTED_EDGE('',*,*,#756,.F.);
#444=ORIENTED_EDGE('',*,*,#757,.F.);
#445=ORIENTED_EDGE('',*,*,#746,.F.);
#446=ORIENTED_EDGE('',*,*,#755,.T.);
#447=ORIENTED_EDGE('',*,*,#753,.T.);
#448=ORIENTED_EDGE('',*,*,#758,.T.);
#449=ORIENTED_EDGE('',*,*,#759,.F.);
#450=ORIENTED_EDGE('',*,*,#758,.F.);
#451=ORIENTED_EDGE('',*,*,#752,.F.);
#452=ORIENTED_EDGE('',*,*,#733,.F.);
#453=ORIENTED_EDGE('',*,*,#760,.F.);
#454=ORIENTED_EDGE('',*,*,#739,.F.);
#455=ORIENTED_EDGE('',*,*,#761,.F.);
#456=ORIENTED_EDGE('',*,*,#741,.F.);
#457=ORIENTED_EDGE('',*,*,#762,.T.);
#458=ORIENTED_EDGE('',*,*,#763,.T.);
#459=ORIENTED_EDGE('',*,*,#736,.T.);
#460=ORIENTED_EDGE('',*,*,#748,.F.);
#461=ORIENTED_EDGE('',*,*,#764,.T.);
#462=ORIENTED_EDGE('',*,*,#765,.T.);
#463=ORIENTED_EDGE('',*,*,#766,.T.);
#464=ORIENTED_EDGE('',*,*,#767,.T.);
#465=ORIENTED_EDGE('',*,*,#768,.T.);
#466=ORIENTED_EDGE('',*,*,#769,.T.);
#467=ORIENTED_EDGE('',*,*,#770,.T.);
#468=ORIENTED_EDGE('',*,*,#771,.T.);
#469=ORIENTED_EDGE('',*,*,#772,.F.);
#470=ORIENTED_EDGE('',*,*,#773,.T.);
#471=ORIENTED_EDGE('',*,*,#762,.F.);
#472=ORIENTED_EDGE('',*,*,#751,.T.);
#473=ORIENTED_EDGE('',*,*,#743,.T.);
#474=ORIENTED_EDGE('',*,*,#738,.T.);
#475=ORIENTED_EDGE('',*,*,#774,.T.);
#476=ORIENTED_EDGE('',*,*,#772,.T.);
#477=ORIENTED_EDGE('',*,*,#742,.T.);
#478=ORIENTED_EDGE('',*,*,#761,.T.);
#479=ORIENTED_EDGE('',*,*,#737,.F.);
#480=ORIENTED_EDGE('',*,*,#763,.F.);
#481=ORIENTED_EDGE('',*,*,#773,.F.);
#482=ORIENTED_EDGE('',*,*,#774,.F.);
#483=ORIENTED_EDGE('',*,*,#768,.F.);
#484=ORIENTED_EDGE('',*,*,#775,.T.);
#485=ORIENTED_EDGE('',*,*,#776,.T.);
#486=ORIENTED_EDGE('',*,*,#777,.T.);
#487=ORIENTED_EDGE('',*,*,#778,.T.);
#488=ORIENTED_EDGE('',*,*,#779,.T.);
#489=ORIENTED_EDGE('',*,*,#770,.F.);
#490=ORIENTED_EDGE('',*,*,#780,.T.);
#491=ORIENTED_EDGE('',*,*,#764,.F.);
#492=ORIENTED_EDGE('',*,*,#781,.T.);
#493=ORIENTED_EDGE('',*,*,#782,.T.);
#494=ORIENTED_EDGE('',*,*,#783,.T.);
#495=ORIENTED_EDGE('',*,*,#784,.T.);
#496=ORIENTED_EDGE('',*,*,#785,.T.);
#497=ORIENTED_EDGE('',*,*,#766,.F.);
#498=ORIENTED_EDGE('',*,*,#786,.T.);
#499=ORIENTED_EDGE('',*,*,#776,.F.);
#500=ORIENTED_EDGE('',*,*,#787,.T.);
#501=ORIENTED_EDGE('',*,*,#784,.F.);
#502=ORIENTED_EDGE('',*,*,#788,.T.);
#503=ORIENTED_EDGE('',*,*,#782,.F.);
#504=ORIENTED_EDGE('',*,*,#789,.T.);
#505=ORIENTED_EDGE('',*,*,#778,.F.);
#506=ORIENTED_EDGE('',*,*,#790,.T.);
#507=ORIENTED_EDGE('',*,*,#767,.F.);
#508=ORIENTED_EDGE('',*,*,#785,.F.);
#509=ORIENTED_EDGE('',*,*,#787,.F.);
#510=ORIENTED_EDGE('',*,*,#775,.F.);
#511=ORIENTED_EDGE('',*,*,#771,.F.);
#512=ORIENTED_EDGE('',*,*,#779,.F.);
#513=ORIENTED_EDGE('',*,*,#789,.F.);
#514=ORIENTED_EDGE('',*,*,#781,.F.);
#515=ORIENTED_EDGE('',*,*,#765,.F.);
#516=ORIENTED_EDGE('',*,*,#783,.F.);
#517=ORIENTED_EDGE('',*,*,#788,.F.);
#518=ORIENTED_EDGE('',*,*,#786,.F.);
#519=ORIENTED_EDGE('',*,*,#769,.F.);
#520=ORIENTED_EDGE('',*,*,#777,.F.);
#521=ORIENTED_EDGE('',*,*,#790,.F.);
#522=ORIENTED_EDGE('',*,*,#780,.F.);
#523=ORIENTED_EDGE('',*,*,#721,.T.);
#524=ORIENTED_EDGE('',*,*,#791,.T.);
#525=ORIENTED_EDGE('',*,*,#792,.T.);
#526=ORIENTED_EDGE('',*,*,#793,.T.);
#527=ORIENTED_EDGE('',*,*,#729,.T.);
#528=ORIENTED_EDGE('',*,*,#794,.T.);
#529=ORIENTED_EDGE('',*,*,#795,.T.);
#530=ORIENTED_EDGE('',*,*,#796,.T.);
#531=ORIENTED_EDGE('',*,*,#797,.T.);
#532=ORIENTED_EDGE('',*,*,#798,.T.);
#533=ORIENTED_EDGE('',*,*,#723,.T.);
#534=ORIENTED_EDGE('',*,*,#799,.T.);
#535=ORIENTED_EDGE('',*,*,#800,.T.);
#536=ORIENTED_EDGE('',*,*,#801,.T.);
#537=ORIENTED_EDGE('',*,*,#725,.T.);
#538=ORIENTED_EDGE('',*,*,#802,.T.);
#539=ORIENTED_EDGE('',*,*,#803,.T.);
#540=ORIENTED_EDGE('',*,*,#804,.T.);
#541=ORIENTED_EDGE('',*,*,#805,.T.);
#542=ORIENTED_EDGE('',*,*,#806,.T.);
#543=ORIENTED_EDGE('',*,*,#807,.T.);
#544=ORIENTED_EDGE('',*,*,#808,.T.);
#545=ORIENTED_EDGE('',*,*,#809,.T.);
#546=ORIENTED_EDGE('',*,*,#810,.T.);
#547=ORIENTED_EDGE('',*,*,#811,.F.);
#548=ORIENTED_EDGE('',*,*,#812,.T.);
#549=ORIENTED_EDGE('',*,*,#800,.F.);
#550=ORIENTED_EDGE('',*,*,#813,.T.);
#551=ORIENTED_EDGE('',*,*,#797,.F.);
#552=ORIENTED_EDGE('',*,*,#814,.T.);
#553=ORIENTED_EDGE('',*,*,#795,.F.);
#554=ORIENTED_EDGE('',*,*,#815,.T.);
#555=ORIENTED_EDGE('',*,*,#727,.T.);
#556=ORIENTED_EDGE('',*,*,#816,.T.);
#557=ORIENTED_EDGE('',*,*,#811,.T.);
#558=ORIENTED_EDGE('',*,*,#817,.T.);
#559=ORIENTED_EDGE('',*,*,#726,.F.);
#560=ORIENTED_EDGE('',*,*,#801,.F.);
#561=ORIENTED_EDGE('',*,*,#812,.F.);
#562=ORIENTED_EDGE('',*,*,#816,.F.);
#563=ORIENTED_EDGE('',*,*,#728,.F.);
#564=ORIENTED_EDGE('',*,*,#817,.F.);
#565=ORIENTED_EDGE('',*,*,#815,.F.);
#566=ORIENTED_EDGE('',*,*,#794,.F.);
#567=ORIENTED_EDGE('',*,*,#724,.F.);
#568=ORIENTED_EDGE('',*,*,#798,.F.);
#569=ORIENTED_EDGE('',*,*,#813,.F.);
#570=ORIENTED_EDGE('',*,*,#802,.F.);
#571=ORIENTED_EDGE('',*,*,#722,.F.);
#572=ORIENTED_EDGE('',*,*,#796,.F.);
#573=ORIENTED_EDGE('',*,*,#814,.F.);
#574=ORIENTED_EDGE('',*,*,#799,.F.);
#575=ORIENTED_EDGE('',*,*,#807,.F.);
#576=ORIENTED_EDGE('',*,*,#818,.T.);
#577=ORIENTED_EDGE('',*,*,#819,.T.);
#578=ORIENTED_EDGE('',*,*,#820,.T.);
#579=ORIENTED_EDGE('',*,*,#821,.T.);
#580=ORIENTED_EDGE('',*,*,#822,.T.);
#581=ORIENTED_EDGE('',*,*,#809,.F.);
#582=ORIENTED_EDGE('',*,*,#823,.T.);
#583=ORIENTED_EDGE('',*,*,#803,.F.);
#584=ORIENTED_EDGE('',*,*,#824,.T.);
#585=ORIENTED_EDGE('',*,*,#825,.T.);
#586=ORIENTED_EDGE('',*,*,#826,.T.);
#587=ORIENTED_EDGE('',*,*,#827,.T.);
#588=ORIENTED_EDGE('',*,*,#828,.T.);
#589=ORIENTED_EDGE('',*,*,#805,.F.);
#590=ORIENTED_EDGE('',*,*,#829,.T.);
#591=ORIENTED_EDGE('',*,*,#819,.F.);
#592=ORIENTED_EDGE('',*,*,#830,.T.);
#593=ORIENTED_EDGE('',*,*,#827,.F.);
#594=ORIENTED_EDGE('',*,*,#831,.T.);
#595=ORIENTED_EDGE('',*,*,#825,.F.);
#596=ORIENTED_EDGE('',*,*,#832,.T.);
#597=ORIENTED_EDGE('',*,*,#821,.F.);
#598=ORIENTED_EDGE('',*,*,#833,.T.);
#599=ORIENTED_EDGE('',*,*,#806,.F.);
#600=ORIENTED_EDGE('',*,*,#828,.F.);
#601=ORIENTED_EDGE('',*,*,#830,.F.);
#602=ORIENTED_EDGE('',*,*,#818,.F.);
#603=ORIENTED_EDGE('',*,*,#810,.F.);
#604=ORIENTED_EDGE('',*,*,#822,.F.);
#605=ORIENTED_EDGE('',*,*,#832,.F.);
#606=ORIENTED_EDGE('',*,*,#824,.F.);
#607=ORIENTED_EDGE('',*,*,#804,.F.);
#608=ORIENTED_EDGE('',*,*,#826,.F.);
#609=ORIENTED_EDGE('',*,*,#831,.F.);
#610=ORIENTED_EDGE('',*,*,#829,.F.);
#611=ORIENTED_EDGE('',*,*,#808,.F.);
#612=ORIENTED_EDGE('',*,*,#820,.F.);
#613=ORIENTED_EDGE('',*,*,#833,.F.);
#614=ORIENTED_EDGE('',*,*,#823,.F.);
#615=ORIENTED_EDGE('',*,*,#834,.T.);
#616=ORIENTED_EDGE('',*,*,#835,.T.);
#617=ORIENTED_EDGE('',*,*,#730,.T.);
#618=ORIENTED_EDGE('',*,*,#760,.T.);
#619=ORIENTED_EDGE('',*,*,#740,.F.);
#620=ORIENTED_EDGE('',*,*,#732,.T.);
#621=ORIENTED_EDGE('',*,*,#836,.T.);
#622=ORIENTED_EDGE('',*,*,#837,.T.);
#623=ORIENTED_EDGE('',*,*,#756,.T.);
#624=ORIENTED_EDGE('',*,*,#759,.T.);
#625=ORIENTED_EDGE('',*,*,#837,.F.);
#626=ORIENTED_EDGE('',*,*,#838,.T.);
#627=ORIENTED_EDGE('',*,*,#834,.F.);
#628=ORIENTED_EDGE('',*,*,#747,.T.);
#629=ORIENTED_EDGE('',*,*,#757,.T.);
#630=ORIENTED_EDGE('',*,*,#731,.F.);
#631=ORIENTED_EDGE('',*,*,#835,.F.);
#632=ORIENTED_EDGE('',*,*,#838,.F.);
#633=ORIENTED_EDGE('',*,*,#836,.F.);
#634=ORIENTED_EDGE('',*,*,#839,.F.);
#635=ORIENTED_EDGE('',*,*,#792,.F.);
#636=ORIENTED_EDGE('',*,*,#720,.T.);
#637=ORIENTED_EDGE('',*,*,#793,.F.);
#638=ORIENTED_EDGE('',*,*,#839,.T.);
#639=ORIENTED_EDGE('',*,*,#791,.F.);
#640=VERTEX_POINT('',#1190);
#641=VERTEX_POINT('',#1191);
#642=VERTEX_POINT('',#1193);
#643=VERTEX_POINT('',#1195);
#644=VERTEX_POINT('',#1197);
#645=VERTEX_POINT('',#1199);
#646=VERTEX_POINT('',#1201);
#647=VERTEX_POINT('',#1203);
#648=VERTEX_POINT('',#1205);
#649=VERTEX_POINT('',#1207);
#650=VERTEX_POINT('',#1210);
#651=VERTEX_POINT('',#1211);
#652=VERTEX_POINT('',#1213);
#653=VERTEX_POINT('',#1215);
#654=VERTEX_POINT('',#1217);
#655=VERTEX_POINT('',#1219);
#656=VERTEX_POINT('',#1221);
#657=VERTEX_POINT('',#1223);
#658=VERTEX_POINT('',#1225);
#659=VERTEX_POINT('',#1227);
#660=VERTEX_POINT('',#1231);
#661=VERTEX_POINT('',#1232);
#662=VERTEX_POINT('',#1234);
#663=VERTEX_POINT('',#1236);
#664=VERTEX_POINT('',#1238);
#665=VERTEX_POINT('',#1240);
#666=VERTEX_POINT('',#1242);
#667=VERTEX_POINT('',#1244);
#668=VERTEX_POINT('',#1248);
#669=VERTEX_POINT('',#1250);
#670=VERTEX_POINT('',#1255);
#671=VERTEX_POINT('',#1257);
#672=VERTEX_POINT('',#1263);
#673=VERTEX_POINT('',#1264);
#674=VERTEX_POINT('',#1274);
#675=VERTEX_POINT('',#1278);
#676=VERTEX_POINT('',#1279);
#677=VERTEX_POINT('',#1281);
#678=VERTEX_POINT('',#1283);
#679=VERTEX_POINT('',#1285);
#680=VERTEX_POINT('',#1287);
#681=VERTEX_POINT('',#1289);
#682=VERTEX_POINT('',#1291);
#683=VERTEX_POINT('',#1294);
#684=VERTEX_POINT('',#1301);
#685=VERTEX_POINT('',#1303);
#686=VERTEX_POINT('',#1307);
#687=VERTEX_POINT('',#1308);
#688=VERTEX_POINT('',#1313);
#689=VERTEX_POINT('',#1315);
#690=VERTEX_POINT('',#1319);
#691=VERTEX_POINT('',#1320);
#692=VERTEX_POINT('',#1334);
#693=VERTEX_POINT('',#1336);
#694=VERTEX_POINT('',#1339);
#695=VERTEX_POINT('',#1341);
#696=VERTEX_POINT('',#1345);
#697=VERTEX_POINT('',#1346);
#698=VERTEX_POINT('',#1351);
#699=VERTEX_POINT('',#1352);
#700=VERTEX_POINT('',#1357);
#701=VERTEX_POINT('',#1358);
#702=VERTEX_POINT('',#1360);
#703=VERTEX_POINT('',#1362);
#704=VERTEX_POINT('',#1364);
#705=VERTEX_POINT('',#1366);
#706=VERTEX_POINT('',#1368);
#707=VERTEX_POINT('',#1370);
#708=VERTEX_POINT('',#1373);
#709=VERTEX_POINT('',#1374);
#710=VERTEX_POINT('',#1388);
#711=VERTEX_POINT('',#1390);
#712=VERTEX_POINT('',#1394);
#713=VERTEX_POINT('',#1395);
#714=VERTEX_POINT('',#1400);
#715=VERTEX_POINT('',#1402);
#716=VERTEX_POINT('',#1406);
#717=VERTEX_POINT('',#1407);
#718=VERTEX_POINT('',#1421);
#719=VERTEX_POINT('',#1425);
#720=EDGE_CURVE('',#640,#641,#840,.T.);
#721=EDGE_CURVE('',#642,#640,#220,.T.);
#722=EDGE_CURVE('',#642,#643,#841,.T.);
#723=EDGE_CURVE('',#644,#643,#221,.T.);
#724=EDGE_CURVE('',#644,#645,#842,.T.);
#725=EDGE_CURVE('',#646,#645,#222,.T.);
#726=EDGE_CURVE('',#646,#647,#843,.T.);
#727=EDGE_CURVE('',#648,#647,#223,.T.);
#728=EDGE_CURVE('',#648,#649,#844,.T.);
#729=EDGE_CURVE('',#641,#649,#224,.T.);
#730=EDGE_CURVE('',#650,#651,#225,.T.);
#731=EDGE_CURVE('',#650,#652,#845,.T.);
#732=EDGE_CURVE('',#653,#652,#226,.T.);
#733=EDGE_CURVE('',#653,#654,#227,.T.);
#734=EDGE_CURVE('',#655,#654,#228,.T.);
#735=EDGE_CURVE('',#656,#655,#229,.T.);
#736=EDGE_CURVE('',#657,#656,#230,.T.);
#737=EDGE_CURVE('',#657,#658,#846,.T.);
#738=EDGE_CURVE('',#659,#658,#231,.T.);
#739=EDGE_CURVE('',#659,#651,#232,.T.);
#740=EDGE_CURVE('',#660,#661,#233,.T.);
#741=EDGE_CURVE('',#661,#662,#234,.T.);
#742=EDGE_CURVE('',#663,#662,#235,.T.);
#743=EDGE_CURVE('',#664,#663,#236,.T.);
#744=EDGE_CURVE('',#665,#664,#237,.T.);
#745=EDGE_CURVE('',#665,#666,#238,.T.);
#746=EDGE_CURVE('',#666,#667,#239,.T.);
#747=EDGE_CURVE('',#660,#667,#240,.T.);
#748=EDGE_CURVE('',#668,#656,#241,.T.);
#749=EDGE_CURVE('',#669,#655,#242,.T.);
#750=EDGE_CURVE('',#669,#665,#243,.T.);
#751=EDGE_CURVE('',#668,#664,#244,.T.);
#752=EDGE_CURVE('',#654,#670,#245,.T.);
#753=EDGE_CURVE('',#671,#670,#246,.T.);
#754=EDGE_CURVE('',#671,#669,#247,.T.);
#755=EDGE_CURVE('',#666,#671,#248,.T.);
#756=EDGE_CURVE('',#672,#673,#249,.T.);
#757=EDGE_CURVE('',#667,#672,#250,.T.);
#758=EDGE_CURVE('',#670,#673,#251,.T.);
#759=EDGE_CURVE('',#673,#653,#252,.T.);
#760=EDGE_CURVE('',#651,#661,#253,.T.);
#761=EDGE_CURVE('',#662,#659,#254,.T.);
#762=EDGE_CURVE('',#668,#674,#255,.T.);
#763=EDGE_CURVE('',#674,#657,#256,.T.);
#764=EDGE_CURVE('',#675,#676,#257,.T.);
#765=EDGE_CURVE('',#676,#677,#847,.T.);
#766=EDGE_CURVE('',#677,#678,#258,.T.);
#767=EDGE_CURVE('',#678,#679,#848,.T.);
#768=EDGE_CURVE('',#679,#680,#259,.T.);
#769=EDGE_CURVE('',#680,#681,#849,.T.);
#770=EDGE_CURVE('',#681,#682,#260,.T.);
#771=EDGE_CURVE('',#682,#675,#850,.T.);
#772=EDGE_CURVE('',#683,#663,#261,.T.);
#773=EDGE_CURVE('',#683,#674,#851,.T.);
#774=EDGE_CURVE('',#658,#683,#262,.T.);
#775=EDGE_CURVE('',#679,#684,#263,.T.);
#776=EDGE_CURVE('',#684,#685,#264,.T.);
#777=EDGE_CURVE('',#685,#680,#265,.T.);
#778=EDGE_CURVE('',#686,#687,#266,.T.);
#779=EDGE_CURVE('',#687,#682,#267,.T.);
#780=EDGE_CURVE('',#681,#686,#268,.T.);
#781=EDGE_CURVE('',#675,#688,#269,.T.);
#782=EDGE_CURVE('',#688,#689,#270,.T.);
#783=EDGE_CURVE('',#689,#676,#271,.T.);
#784=EDGE_CURVE('',#690,#691,#272,.T.);
#785=EDGE_CURVE('',#691,#678,#273,.T.);
#786=EDGE_CURVE('',#677,#690,#274,.T.);
#787=EDGE_CURVE('',#684,#691,#852,.T.);
#788=EDGE_CURVE('',#690,#689,#853,.T.);
#789=EDGE_CURVE('',#688,#687,#854,.T.);
#790=EDGE_CURVE('',#686,#685,#855,.T.);
#791=EDGE_CURVE('',#640,#692,#275,.T.);
#792=EDGE_CURVE('',#692,#693,#276,.T.);
#793=EDGE_CURVE('',#693,#641,#277,.T.);
#794=EDGE_CURVE('',#649,#694,#278,.T.);
#795=EDGE_CURVE('',#694,#695,#279,.T.);
#796=EDGE_CURVE('',#695,#642,#280,.T.);
#797=EDGE_CURVE('',#696,#697,#281,.T.);
#798=EDGE_CURVE('',#697,#644,#282,.T.);
#799=EDGE_CURVE('',#643,#696,#283,.T.);
#800=EDGE_CURVE('',#698,#699,#284,.T.);
#801=EDGE_CURVE('',#699,#646,#285,.T.);
#802=EDGE_CURVE('',#645,#698,#286,.T.);
#803=EDGE_CURVE('',#700,#701,#287,.T.);
#804=EDGE_CURVE('',#701,#702,#856,.T.);
#805=EDGE_CURVE('',#702,#703,#288,.T.);
#806=EDGE_CURVE('',#703,#704,#857,.T.);
#807=EDGE_CURVE('',#704,#705,#289,.T.);
#808=EDGE_CURVE('',#705,#706,#858,.T.);
#809=EDGE_CURVE('',#706,#707,#290,.T.);
#810=EDGE_CURVE('',#707,#700,#859,.T.);
#811=EDGE_CURVE('',#708,#709,#291,.T.);
#812=EDGE_CURVE('',#708,#699,#860,.T.);
#813=EDGE_CURVE('',#698,#697,#861,.T.);
#814=EDGE_CURVE('',#696,#695,#862,.T.);
#815=EDGE_CURVE('',#694,#709,#863,.T.);
#816=EDGE_CURVE('',#647,#708,#292,.T.);
#817=EDGE_CURVE('',#709,#648,#293,.T.);
#818=EDGE_CURVE('',#704,#710,#294,.T.);
#819=EDGE_CURVE('',#710,#711,#295,.T.);
#820=EDGE_CURVE('',#711,#705,#296,.T.);
#821=EDGE_CURVE('',#712,#713,#297,.T.);
#822=EDGE_CURVE('',#713,#707,#298,.T.);
#823=EDGE_CURVE('',#706,#712,#299,.T.);
#824=EDGE_CURVE('',#700,#714,#300,.T.);
#825=EDGE_CURVE('',#714,#715,#301,.T.);
#826=EDGE_CURVE('',#715,#701,#302,.T.);
#827=EDGE_CURVE('',#716,#717,#303,.T.);
#828=EDGE_CURVE('',#717,#703,#304,.T.);
#829=EDGE_CURVE('',#702,#716,#305,.T.);
#830=EDGE_CURVE('',#710,#717,#864,.T.);
#831=EDGE_CURVE('',#716,#715,#865,.T.);
#832=EDGE_CURVE('',#714,#713,#866,.T.);
#833=EDGE_CURVE('',#712,#711,#867,.T.);
#834=EDGE_CURVE('',#660,#718,#306,.T.);
#835=EDGE_CURVE('',#718,#650,#307,.T.);
#836=EDGE_CURVE('',#652,#719,#308,.T.);
#837=EDGE_CURVE('',#719,#672,#309,.T.);
#838=EDGE_CURVE('',#719,#718,#868,.T.);
#839=EDGE_CURVE('',#693,#692,#869,.T.);
#840=CIRCLE('',#871,8.55);
#841=CIRCLE('',#872,3.7);
#842=CIRCLE('',#873,3.7);
#843=CIRCLE('',#874,3.7);
#844=CIRCLE('',#875,3.7);
#845=CIRCLE('',#876,11.2);
#846=CIRCLE('',#877,14.4);
#847=CIRCLE('',#887,14.);
#848=CIRCLE('',#888,14.);
#849=CIRCLE('',#889,14.);
#850=CIRCLE('',#890,14.);
#851=CIRCLE('',#891,14.4);
#852=CIRCLE('',#899,14.);
#853=CIRCLE('',#900,14.);
#854=CIRCLE('',#901,14.);
#855=CIRCLE('',#902,14.);
#856=CIRCLE('',#911,8.9);
#857=CIRCLE('',#912,8.9);
#858=CIRCLE('',#913,8.9);
#859=CIRCLE('',#914,8.9);
#860=CIRCLE('',#915,3.7);
#861=CIRCLE('',#916,3.7);
#862=CIRCLE('',#917,3.7);
#863=CIRCLE('',#918,3.7);
#864=CIRCLE('',#929,8.9);
#865=CIRCLE('',#930,8.9);
#866=CIRCLE('',#931,8.9);
#867=CIRCLE('',#932,8.9);
#868=CIRCLE('',#940,11.2);
#869=CIRCLE('',#943,8.55);
#870=AXIS2_PLACEMENT_3D('',#1188,#946,#947);
#871=AXIS2_PLACEMENT_3D('',#1189,#948,#949);
#872=AXIS2_PLACEMENT_3D('',#1194,#951,#952);
#873=AXIS2_PLACEMENT_3D('',#1198,#954,#955);
#874=AXIS2_PLACEMENT_3D('',#1202,#957,#958);
#875=AXIS2_PLACEMENT_3D('',#1206,#960,#961);
#876=AXIS2_PLACEMENT_3D('',#1212,#964,#965);
#877=AXIS2_PLACEMENT_3D('',#1224,#971,#972);
#878=AXIS2_PLACEMENT_3D('',#1229,#975,#976);
#879=AXIS2_PLACEMENT_3D('',#1246,#985,#986);
#880=AXIS2_PLACEMENT_3D('',#1253,#991,#992);
#881=AXIS2_PLACEMENT_3D('',#1259,#996,#997);
#882=AXIS2_PLACEMENT_3D('',#1261,#999,#1000);
#883=AXIS2_PLACEMENT_3D('',#1267,#1004,#1005);
#884=AXIS2_PLACEMENT_3D('',#1269,#1007,#1008);
#885=AXIS2_PLACEMENT_3D('',#1272,#1011,#1012);
#886=AXIS2_PLACEMENT_3D('',#1276,#1015,#1016);
#887=AXIS2_PLACEMENT_3D('',#1280,#1018,#1019);
#888=AXIS2_PLACEMENT_3D('',#1284,#1021,#1022);
#889=AXIS2_PLACEMENT_3D('',#1288,#1024,#1025);
#890=AXIS2_PLACEMENT_3D('',#1292,#1027,#1028);
#891=AXIS2_PLACEMENT_3D('',#1295,#1030,#1031);
#892=AXIS2_PLACEMENT_3D('',#1296,#1032,#1033);
#893=AXIS2_PLACEMENT_3D('',#1298,#1035,#1036);
#894=AXIS2_PLACEMENT_3D('',#1299,#1037,#1038);
#895=AXIS2_PLACEMENT_3D('',#1305,#1042,#1043);
#896=AXIS2_PLACEMENT_3D('',#1311,#1047,#1048);
#897=AXIS2_PLACEMENT_3D('',#1317,#1052,#1053);
#898=AXIS2_PLACEMENT_3D('',#1323,#1057,#1058);
#899=AXIS2_PLACEMENT_3D('',#1324,#1059,#1060);
#900=AXIS2_PLACEMENT_3D('',#1325,#1061,#1062);
#901=AXIS2_PLACEMENT_3D('',#1326,#1063,#1064);
#902=AXIS2_PLACEMENT_3D('',#1327,#1065,#1066);
#903=AXIS2_PLACEMENT_3D('',#1328,#1067,#1068);
#904=AXIS2_PLACEMENT_3D('',#1329,#1069,#1070);
#905=AXIS2_PLACEMENT_3D('',#1330,#1071,#1072);
#906=AXIS2_PLACEMENT_3D('',#1331,#1073,#1074);
#907=AXIS2_PLACEMENT_3D('',#1332,#1075,#1076);
#908=AXIS2_PLACEMENT_3D('',#1343,#1083,#1084);
#909=AXIS2_PLACEMENT_3D('',#1349,#1088,#1089);
#910=AXIS2_PLACEMENT_3D('',#1355,#1093,#1094);
#911=AXIS2_PLACEMENT_3D('',#1359,#1096,#1097);
#912=AXIS2_PLACEMENT_3D('',#1363,#1099,#1100);
#913=AXIS2_PLACEMENT_3D('',#1367,#1102,#1103);
#914=AXIS2_PLACEMENT_3D('',#1371,#1105,#1106);
#915=AXIS2_PLACEMENT_3D('',#1375,#1108,#1109);
#916=AXIS2_PLACEMENT_3D('',#1376,#1110,#1111);
#917=AXIS2_PLACEMENT_3D('',#1377,#1112,#1113);
#918=AXIS2_PLACEMENT_3D('',#1378,#1114,#1115);
#919=AXIS2_PLACEMENT_3D('',#1379,#1116,#1117);
#920=AXIS2_PLACEMENT_3D('',#1382,#1120,#1121);
#921=AXIS2_PLACEMENT_3D('',#1383,#1122,#1123);
#922=AXIS2_PLACEMENT_3D('',#1384,#1124,#1125);
#923=AXIS2_PLACEMENT_3D('',#1385,#1126,#1127);
#924=AXIS2_PLACEMENT_3D('',#1386,#1128,#1129);
#925=AXIS2_PLACEMENT_3D('',#1392,#1133,#1134);
#926=AXIS2_PLACEMENT_3D('',#1398,#1138,#1139);
#927=AXIS2_PLACEMENT_3D('',#1404,#1143,#1144);
#928=AXIS2_PLACEMENT_3D('',#1410,#1148,#1149);
#929=AXIS2_PLACEMENT_3D('',#1411,#1150,#1151);
#930=AXIS2_PLACEMENT_3D('',#1412,#1152,#1153);
#931=AXIS2_PLACEMENT_3D('',#1413,#1154,#1155);
#932=AXIS2_PLACEMENT_3D('',#1414,#1156,#1157);
#933=AXIS2_PLACEMENT_3D('',#1415,#1158,#1159);
#934=AXIS2_PLACEMENT_3D('',#1416,#1160,#1161);
#935=AXIS2_PLACEMENT_3D('',#1417,#1162,#1163);
#936=AXIS2_PLACEMENT_3D('',#1418,#1164,#1165);
#937=AXIS2_PLACEMENT_3D('',#1419,#1166,#1167);
#938=AXIS2_PLACEMENT_3D('',#1423,#1170,#1171);
#939=AXIS2_PLACEMENT_3D('',#1427,#1174,#1175);
#940=AXIS2_PLACEMENT_3D('',#1428,#1176,#1177);
#941=AXIS2_PLACEMENT_3D('',#1429,#1178,#1179);
#942=AXIS2_PLACEMENT_3D('',#1430,#1180,#1181);
#943=AXIS2_PLACEMENT_3D('',#1431,#1182,#1183);
#944=AXIS2_PLACEMENT_3D('',#1432,#1184,#1185);
#945=AXIS2_PLACEMENT_3D('',#1433,#1186,#1187);
#946=DIRECTION('',(0.,0.,1.));
#947=DIRECTION('',(1.,0.,0.));
#948=DIRECTION('',(0.,0.,1.));
#949=DIRECTION('',(1.,0.,0.));
#950=DIRECTION('',(1.,0.,0.));
#951=DIRECTION('',(0.,0.,-1.));
#952=DIRECTION('',(1.,0.,0.));
#953=DIRECTION('',(0.,-1.,0.));
#954=DIRECTION('',(0.,0.,-1.));
#955=DIRECTION('',(1.,0.,0.));
#956=DIRECTION('',(-1.,0.,0.));
#957=DIRECTION('',(0.,0.,-1.));
#958=DIRECTION('',(0.999999999999995,0.,0.));
#959=DIRECTION('',(0.,1.,0.));
#960=DIRECTION('',(0.,0.,-1.));
#961=DIRECTION('',(0.999999999999995,0.,0.));
#962=DIRECTION('',(1.,0.,0.));
#963=DIRECTION('',(0.,-1.,0.));
#964=DIRECTION('',(0.,0.,-1.));
#965=DIRECTION('',(0.999999999999999,0.,0.));
#966=DIRECTION('',(-1.,0.,0.));
#967=DIRECTION('',(0.,1.,0.));
#968=DIRECTION('',(1.,0.,0.));
#969=DIRECTION('',(0.,1.,0.));
#970=DIRECTION('',(-1.,0.,0.));
#971=DIRECTION('',(0.,0.,-1.));
#972=DIRECTION('',(1.,0.,0.));
#973=DIRECTION('',(0.,1.,0.));
#974=DIRECTION('',(1.,0.,0.));
#975=DIRECTION('',(0.,0.,1.));
#976=DIRECTION('',(1.,0.,0.));
#977=DIRECTION('',(0.,0.,1.));
#978=DIRECTION('',(-1.,0.,0.));
#979=DIRECTION('',(0.,0.,1.));
#980=DIRECTION('',(1.,0.,0.));
#981=DIRECTION('',(0.,0.,1.));
#982=DIRECTION('',(1.,0.,0.));
#983=DIRECTION('',(0.,0.,1.));
#984=DIRECTION('',(1.,0.,0.));
#985=DIRECTION('',(0.,-1.,0.));
#986=DIRECTION('',(0.,0.,-1.));
#987=DIRECTION('',(0.,0.,1.));
#988=DIRECTION('',(0.,0.,1.));
#989=DIRECTION('',(0.,-1.,0.));
#990=DIRECTION('',(0.,-1.,0.));
#991=DIRECTION('',(-1.,0.,0.));
#992=DIRECTION('',(0.,0.,1.));
#993=DIRECTION('',(0.707106781186548,0.,-0.707106781186547));
#994=DIRECTION('',(0.,0.,1.));
#995=DIRECTION('',(-1.,0.,0.));
#996=DIRECTION('',(0.,1.,0.));
#997=DIRECTION('',(0.,0.,1.));
#998=DIRECTION('',(0.,1.,0.));
#999=DIRECTION('',(0.,0.,-1.));
#1000=DIRECTION('',(-1.,0.,0.));
#1001=DIRECTION('',(0.,0.,1.));
#1002=DIRECTION('',(0.,1.,0.));
#1003=DIRECTION('',(0.,-1.,0.));
#1004=DIRECTION('',(1.,0.,0.));
#1005=DIRECTION('',(0.,0.,-1.));
#1006=DIRECTION('',(-0.707106781186548,0.,0.707106781186547));
#1007=DIRECTION('',(-0.707106781186547,0.,-0.707106781186548));
#1008=DIRECTION('',(0.,-1.,0.));
#1009=DIRECTION('',(0.,-0.707106781186548,-0.707106781186548));
#1010=DIRECTION('',(0.,0.707106781186548,0.707106781186548));
#1011=DIRECTION('',(0.,0.707106781186547,-0.707106781186547));
#1012=DIRECTION('',(-1.,0.,0.));
#1013=DIRECTION('',(1.,0.,0.));
#1014=DIRECTION('',(0.,0.,1.));
#1015=DIRECTION('',(0.,1.,0.));
#1016=DIRECTION('',(0.,0.,1.));
#1017=DIRECTION('',(1.,0.,0.));
#1018=DIRECTION('',(0.,0.,-1.));
#1019=DIRECTION('',(-1.,0.,0.));
#1020=DIRECTION('',(0.,-1.,0.));
#1021=DIRECTION('',(0.,0.,-1.));
#1022=DIRECTION('',(-1.,0.,0.));
#1023=DIRECTION('',(-1.,0.,0.));
#1024=DIRECTION('',(0.,0.,-1.));
#1025=DIRECTION('',(-1.,0.,0.));
#1026=DIRECTION('',(0.,1.,0.));
#1027=DIRECTION('',(0.,0.,-1.));
#1028=DIRECTION('',(-1.,0.,0.));
#1029=DIRECTION('',(0.,-1.,0.));
#1030=DIRECTION('',(0.,0.,1.));
#1031=DIRECTION('',(-1.,0.,0.));
#1032=DIRECTION('',(0.,0.,-1.));
#1033=DIRECTION('',(-1.,0.,0.));
#1034=DIRECTION('',(0.,0.,-1.));
#1035=DIRECTION('',(1.,0.,0.));
#1036=DIRECTION('',(0.,0.,-1.));
#1037=DIRECTION('',(0.,0.,1.));
#1038=DIRECTION('',(1.,0.,0.));
#1039=DIRECTION('',(0.,0.,-1.));
#1040=DIRECTION('',(-1.,0.,0.));
#1041=DIRECTION('',(0.,0.,1.));
#1042=DIRECTION('',(0.,-1.,0.));
#1043=DIRECTION('',(0.,0.,-1.));
#1044=DIRECTION('',(0.,1.,0.));
#1045=DIRECTION('',(0.,0.,1.));
#1046=DIRECTION('',(0.,0.,-1.));
#1047=DIRECTION('',(-1.,0.,0.));
#1048=DIRECTION('',(0.,0.,1.));
#1049=DIRECTION('',(0.,0.,-1.));
#1050=DIRECTION('',(1.,0.,0.));
#1051=DIRECTION('',(0.,0.,1.));
#1052=DIRECTION('',(0.,1.,0.));
#1053=DIRECTION('',(0.,0.,1.));
#1054=DIRECTION('',(0.,-1.,0.));
#1055=DIRECTION('',(0.,0.,1.));
#1056=DIRECTION('',(0.,0.,-1.));
#1057=DIRECTION('',(1.,0.,0.));
#1058=DIRECTION('',(0.,0.,-1.));
#1059=DIRECTION('',(0.,0.,1.));
#1060=DIRECTION('',(-1.,0.,0.));
#1061=DIRECTION('',(0.,0.,1.));
#1062=DIRECTION('',(-1.,0.,0.));
#1063=DIRECTION('',(0.,0.,1.));
#1064=DIRECTION('',(-1.,0.,0.));
#1065=DIRECTION('',(0.,0.,1.));
#1066=DIRECTION('',(-1.,0.,0.));
#1067=DIRECTION('',(0.,0.,-1.));
#1068=DIRECTION('',(-1.,0.,0.));
#1069=DIRECTION('',(0.,0.,1.));
#1070=DIRECTION('',(1.,0.,0.));
#1071=DIRECTION('',(0.,0.,1.));
#1072=DIRECTION('',(1.,0.,0.));
#1073=DIRECTION('',(0.,0.,1.));
#1074=DIRECTION('',(1.,0.,0.));
#1075=DIRECTION('',(0.,0.,1.));
#1076=DIRECTION('',(1.,0.,0.));
#1077=DIRECTION('',(0.,0.,-1.));
#1078=DIRECTION('',(1.,0.,0.));
#1079=DIRECTION('',(0.,0.,1.));
#1080=DIRECTION('',(0.,0.,-1.));
#1081=DIRECTION('',(-1.,0.,0.));
#1082=DIRECTION('',(0.,0.,1.));
#1083=DIRECTION('',(0.,-1.,0.));
#1084=DIRECTION('',(0.,0.,-1.));
#1085=DIRECTION('',(0.,1.,0.));
#1086=DIRECTION('',(0.,0.,1.));
#1087=DIRECTION('',(0.,0.,-1.));
#1088=DIRECTION('',(-1.,0.,0.));
#1089=DIRECTION('',(0.,0.,1.));
#1090=DIRECTION('',(1.,0.,0.));
#1091=DIRECTION('',(0.,0.,1.));
#1092=DIRECTION('',(0.,0.,-1.));
#1093=DIRECTION('',(0.,1.,0.));
#1094=DIRECTION('',(0.,0.,1.));
#1095=DIRECTION('',(1.,0.,0.));
#1096=DIRECTION('',(0.,0.,-1.));
#1097=DIRECTION('',(-0.999999999999999,0.,0.));
#1098=DIRECTION('',(0.,-1.,0.));
#1099=DIRECTION('',(0.,0.,-1.));
#1100=DIRECTION('',(-0.999999999999999,0.,0.));
#1101=DIRECTION('',(-1.,0.,0.));
#1102=DIRECTION('',(0.,0.,-1.));
#1103=DIRECTION('',(-0.999999999999999,0.,0.));
#1104=DIRECTION('',(0.,1.,0.));
#1105=DIRECTION('',(0.,0.,-1.));
#1106=DIRECTION('',(-0.999999999999999,0.,0.));
#1107=DIRECTION('',(0.,-1.,0.));
#1108=DIRECTION('',(0.,0.,1.));
#1109=DIRECTION('',(-0.999999999999995,0.,0.));
#1110=DIRECTION('',(0.,0.,1.));
#1111=DIRECTION('',(-1.,0.,0.));
#1112=DIRECTION('',(0.,0.,1.));
#1113=DIRECTION('',(-1.,0.,0.));
#1114=DIRECTION('',(0.,0.,1.));
#1115=DIRECTION('',(-0.999999999999995,0.,0.));
#1116=DIRECTION('',(0.,0.,-1.));
#1117=DIRECTION('',(-1.,0.,0.));
#1118=DIRECTION('',(0.,0.,-1.));
#1119=DIRECTION('',(0.,0.,1.));
#1120=DIRECTION('',(1.,0.,0.));
#1121=DIRECTION('',(0.,0.,-1.));
#1122=DIRECTION('',(0.,0.,1.));
#1123=DIRECTION('',(0.999999999999995,0.,0.));
#1124=DIRECTION('',(0.,0.,1.));
#1125=DIRECTION('',(0.999999999999995,0.,0.));
#1126=DIRECTION('',(0.,0.,1.));
#1127=DIRECTION('',(1.,0.,0.));
#1128=DIRECTION('',(0.,0.,1.));
#1129=DIRECTION('',(1.,0.,0.));
#1130=DIRECTION('',(0.,0.,-1.));
#1131=DIRECTION('',(-1.,0.,0.));
#1132=DIRECTION('',(0.,0.,1.));
#1133=DIRECTION('',(0.,-1.,0.));
#1134=DIRECTION('',(0.,0.,-1.));
#1135=DIRECTION('',(0.,1.,0.));
#1136=DIRECTION('',(0.,0.,1.));
#1137=DIRECTION('',(0.,0.,-1.));
#1138=DIRECTION('',(-1.,0.,0.));
#1139=DIRECTION('',(0.,0.,1.));
#1140=DIRECTION('',(0.,0.,-1.));
#1141=DIRECTION('',(1.,0.,0.));
#1142=DIRECTION('',(0.,0.,1.));
#1143=DIRECTION('',(0.,1.,0.));
#1144=DIRECTION('',(0.,0.,1.));
#1145=DIRECTION('',(0.,-1.,0.));
#1146=DIRECTION('',(0.,0.,1.));
#1147=DIRECTION('',(0.,0.,-1.));
#1148=DIRECTION('',(1.,0.,0.));
#1149=DIRECTION('',(0.,0.,-1.));
#1150=DIRECTION('',(0.,0.,1.));
#1151=DIRECTION('',(-0.999999999999999,0.,0.));
#1152=DIRECTION('',(0.,0.,1.));
#1153=DIRECTION('',(-0.999999999999999,0.,0.));
#1154=DIRECTION('',(0.,0.,1.));
#1155=DIRECTION('',(-0.999999999999999,0.,0.));
#1156=DIRECTION('',(0.,0.,1.));
#1157=DIRECTION('',(-0.999999999999999,0.,0.));
#1158=DIRECTION('',(0.,0.,-1.));
#1159=DIRECTION('',(-1.,0.,0.));
#1160=DIRECTION('',(0.,0.,1.));
#1161=DIRECTION('',(0.999999999999999,0.,0.));
#1162=DIRECTION('',(0.,0.,1.));
#1163=DIRECTION('',(0.999999999999999,0.,0.));
#1164=DIRECTION('',(0.,0.,1.));
#1165=DIRECTION('',(0.999999999999999,0.,0.));
#1166=DIRECTION('',(0.,0.,1.));
#1167=DIRECTION('',(0.999999999999999,0.,0.));
#1168=DIRECTION('',(0.,1.,0.));
#1169=DIRECTION('',(0.,0.,1.));
#1170=DIRECTION('',(-1.,0.,0.));
#1171=DIRECTION('',(0.,0.,1.));
#1172=DIRECTION('',(0.,0.,-1.));
#1173=DIRECTION('',(1.,0.,0.));
#1174=DIRECTION('',(0.,1.,0.));
#1175=DIRECTION('',(0.,0.,1.));
#1176=DIRECTION('',(0.,0.,1.));
#1177=DIRECTION('',(-0.999999999999999,0.,0.));
#1178=DIRECTION('',(0.,0.,-1.));
#1179=DIRECTION('',(-1.,0.,0.));
#1180=DIRECTION('',(0.,0.,1.));
#1181=DIRECTION('',(0.999999999999999,0.,0.));
#1182=DIRECTION('',(0.,0.,-1.));
#1183=DIRECTION('',(1.,0.,0.));
#1184=DIRECTION('',(0.,0.,-1.));
#1185=DIRECTION('',(-1.,0.,0.));
#1186=DIRECTION('',(0.,0.,-1.));
#1187=DIRECTION('',(1.,0.,0.));
#1188=CARTESIAN_POINT('',(0.,0.,0.));
#1189=CARTESIAN_POINT('',(214.8,98.2,77.));
#1190=CARTESIAN_POINT('',(206.871412483929,101.4,77.));
#1191=CARTESIAN_POINT('',(222.728587516071,101.4,77.));
#1192=CARTESIAN_POINT('',(167.6,101.4,77.));
#1193=CARTESIAN_POINT('',(164.4,101.4,77.));
#1194=CARTESIAN_POINT('',(164.4,105.1,77.));
#1195=CARTESIAN_POINT('',(160.7,105.1,77.));
#1196=CARTESIAN_POINT('',(160.7,161.85,77.));
#1197=CARTESIAN_POINT('',(160.7,205.,77.));
#1198=CARTESIAN_POINT('',(164.4,205.,77.));
#1199=CARTESIAN_POINT('',(164.4,208.7,77.));
#1200=CARTESIAN_POINT('',(167.6,208.7,77.));
#1201=CARTESIAN_POINT('',(283.5,208.7,77.));
#1202=CARTESIAN_POINT('',(283.5,205.,77.));
#1203=CARTESIAN_POINT('',(287.2,205.,77.));
#1204=CARTESIAN_POINT('',(287.2,161.85,77.));
#1205=CARTESIAN_POINT('',(287.2,105.1,77.));
#1206=CARTESIAN_POINT('',(283.5,105.1,77.));
#1207=CARTESIAN_POINT('',(283.5,101.4,77.));
#1208=CARTESIAN_POINT('',(167.6,101.4,77.));
#1209=CARTESIAN_POINT('',(277.3,161.85,77.));
#1210=CARTESIAN_POINT('',(277.3,38.,77.));
#1211=CARTESIAN_POINT('',(277.3,14.9,77.));
#1212=CARTESIAN_POINT('',(288.5,38.,77.));
#1213=CARTESIAN_POINT('',(288.5,49.2,77.));
#1214=CARTESIAN_POINT('',(167.6,49.2,77.));
#1215=CARTESIAN_POINT('',(323.7,49.2,77.));
#1216=CARTESIAN_POINT('',(323.7,161.85,77.));
#1217=CARTESIAN_POINT('',(323.7,323.7,77.));
#1218=CARTESIAN_POINT('',(167.6,323.7,77.));
#1219=CARTESIAN_POINT('',(0.,323.7,77.));
#1220=CARTESIAN_POINT('',(0.,161.85,77.));
#1221=CARTESIAN_POINT('',(0.,61.5,77.));
#1222=CARTESIAN_POINT('',(167.6,61.5,77.));
#1223=CARTESIAN_POINT('',(78.6,61.5,77.));
#1224=CARTESIAN_POINT('',(78.6,47.1,77.));
#1225=CARTESIAN_POINT('',(93.,47.1,77.));
#1226=CARTESIAN_POINT('',(93.,161.85,77.));
#1227=CARTESIAN_POINT('',(93.,14.9,77.));
#1228=CARTESIAN_POINT('',(167.6,14.9,77.));
#1229=CARTESIAN_POINT('',(167.6,161.85,77.));
#1230=CARTESIAN_POINT('',(277.3,0.,41.));
#1231=CARTESIAN_POINT('',(277.3,0.,41.));
#1232=CARTESIAN_POINT('',(277.3,-1.73472347597681E-15,62.1));
#1233=CARTESIAN_POINT('',(167.6,0.,62.1));
#1234=CARTESIAN_POINT('',(93.,0.,62.1));
#1235=CARTESIAN_POINT('',(93.,0.,49.8));
#1236=CARTESIAN_POINT('',(93.,0.,49.8));
#1237=CARTESIAN_POINT('',(46.5,0.,49.8));
#1238=CARTESIAN_POINT('',(0.,0.,49.8));
#1239=CARTESIAN_POINT('',(0.,0.,0.));
#1240=CARTESIAN_POINT('',(0.,0.,0.));
#1241=CARTESIAN_POINT('',(167.6,0.,0.));
#1242=CARTESIAN_POINT('',(335.2,0.,0.));
#1243=CARTESIAN_POINT('',(335.2,0.,0.));
#1244=CARTESIAN_POINT('',(335.2,0.,41.));
#1245=CARTESIAN_POINT('',(306.25,0.,41.));
#1246=CARTESIAN_POINT('',(167.6,0.,0.));
#1247=CARTESIAN_POINT('',(0.,61.5,49.8));
#1248=CARTESIAN_POINT('',(0.,61.5,49.8));
#1249=CARTESIAN_POINT('',(0.,323.7,0.));
#1250=CARTESIAN_POINT('',(0.,323.7,0.));
#1251=CARTESIAN_POINT('',(0.,161.85,0.));
#1252=CARTESIAN_POINT('',(0.,30.75,49.8));
#1253=CARTESIAN_POINT('',(0.,161.85,0.));
#1254=CARTESIAN_POINT('',(284.15,323.7,116.55));
#1255=CARTESIAN_POINT('',(335.2,323.7,65.5));
#1256=CARTESIAN_POINT('',(335.2,323.7,0.));
#1257=CARTESIAN_POINT('',(335.2,323.7,0.));
#1258=CARTESIAN_POINT('',(167.6,323.7,0.));
#1259=CARTESIAN_POINT('',(167.6,323.7,0.));
#1260=CARTESIAN_POINT('',(335.2,161.85,0.));
#1261=CARTESIAN_POINT('',(167.6,161.85,0.));
#1262=CARTESIAN_POINT('',(335.2,49.2,41.));
#1263=CARTESIAN_POINT('',(335.2,49.2,41.));
#1264=CARTESIAN_POINT('',(335.2,49.2,65.5000000000001));
#1265=CARTESIAN_POINT('',(335.2,24.6,41.));
#1266=CARTESIAN_POINT('',(335.2,161.85,65.5));
#1267=CARTESIAN_POINT('',(335.2,161.85,0.));
#1268=CARTESIAN_POINT('',(335.2,49.2,65.5));
#1269=CARTESIAN_POINT('',(335.2,161.85,65.5));
#1270=CARTESIAN_POINT('',(277.3,0.,62.1));
#1271=CARTESIAN_POINT('',(93.,0.,62.1));
#1272=CARTESIAN_POINT('',(167.6,0.,62.1));
#1273=CARTESIAN_POINT('',(46.5,61.5,49.8));
#1274=CARTESIAN_POINT('',(78.6,61.5,49.8));
#1275=CARTESIAN_POINT('',(78.6,61.5,77.));
#1276=CARTESIAN_POINT('',(46.5,61.5,49.8));
#1277=CARTESIAN_POINT('',(46.5,47.1,49.8));
#1278=CARTESIAN_POINT('',(33.7,47.1,49.8));
#1279=CARTESIAN_POINT('',(47.7,47.1,49.8));
#1280=CARTESIAN_POINT('',(47.7,33.1,49.8));
#1281=CARTESIAN_POINT('',(61.7,33.1,49.8));
#1282=CARTESIAN_POINT('',(61.7,30.75,49.8));
#1283=CARTESIAN_POINT('',(61.7,25.7,49.8));
#1284=CARTESIAN_POINT('',(47.7,25.7,49.8));
#1285=CARTESIAN_POINT('',(47.7,11.7,49.8));
#1286=CARTESIAN_POINT('',(46.5,11.7,49.8));
#1287=CARTESIAN_POINT('',(33.7,11.7,49.8));
#1288=CARTESIAN_POINT('',(33.7,25.7,49.8));
#1289=CARTESIAN_POINT('',(19.7,25.7,49.8));
#1290=CARTESIAN_POINT('',(19.7,30.75,49.8));
#1291=CARTESIAN_POINT('',(19.7,33.1,49.8));
#1292=CARTESIAN_POINT('',(33.7,33.1,49.8));
#1293=CARTESIAN_POINT('',(93.,30.75,49.8));
#1294=CARTESIAN_POINT('',(93.,47.1,49.8));
#1295=CARTESIAN_POINT('',(78.6,47.1,49.8));
#1296=CARTESIAN_POINT('',(46.5,30.75,49.8));
#1297=CARTESIAN_POINT('',(93.,47.1,49.8));
#1298=CARTESIAN_POINT('',(93.,30.75,49.8));
#1299=CARTESIAN_POINT('',(78.6,47.1,49.8));
#1300=CARTESIAN_POINT('',(47.7,11.7,39.1));
#1301=CARTESIAN_POINT('',(47.7,11.7,39.1));
#1302=CARTESIAN_POINT('',(40.7,11.7,39.1));
#1303=CARTESIAN_POINT('',(33.7,11.7,39.1));
#1304=CARTESIAN_POINT('',(33.7,11.7,49.8));
#1305=CARTESIAN_POINT('',(40.7,11.7,39.1));
#1306=CARTESIAN_POINT('',(19.7,29.4,39.1));
#1307=CARTESIAN_POINT('',(19.7,25.7,39.1));
#1308=CARTESIAN_POINT('',(19.7,33.1,39.1));
#1309=CARTESIAN_POINT('',(19.7,33.1,49.8));
#1310=CARTESIAN_POINT('',(19.7,25.7,39.1));
#1311=CARTESIAN_POINT('',(19.7,29.4,39.1));
#1312=CARTESIAN_POINT('',(33.7,47.1,39.1));
#1313=CARTESIAN_POINT('',(33.7,47.1,39.1));
#1314=CARTESIAN_POINT('',(40.7,47.1,39.1));
#1315=CARTESIAN_POINT('',(47.7,47.1,39.1));
#1316=CARTESIAN_POINT('',(47.7,47.1,49.8));
#1317=CARTESIAN_POINT('',(40.7,47.1,39.1));
#1318=CARTESIAN_POINT('',(61.7,29.4,39.1));
#1319=CARTESIAN_POINT('',(61.7,33.1,39.1));
#1320=CARTESIAN_POINT('',(61.7,25.7,39.1));
#1321=CARTESIAN_POINT('',(61.7,25.7,49.8));
#1322=CARTESIAN_POINT('',(61.7,33.1,39.1));
#1323=CARTESIAN_POINT('',(61.7,29.4,39.1));
#1324=CARTESIAN_POINT('',(47.7,25.7,39.1));
#1325=CARTESIAN_POINT('',(47.7,33.1,39.1));
#1326=CARTESIAN_POINT('',(33.7,33.1,39.1));
#1327=CARTESIAN_POINT('',(33.7,25.7,39.1));
#1328=CARTESIAN_POINT('',(40.7,29.4,39.1));
#1329=CARTESIAN_POINT('',(47.7,25.7,39.1));
#1330=CARTESIAN_POINT('',(33.7,33.1,39.1));
#1331=CARTESIAN_POINT('',(47.7,33.1,39.1));
#1332=CARTESIAN_POINT('',(33.7,25.7,39.1));
#1333=CARTESIAN_POINT('',(206.871412483929,101.4,77.05));
#1334=CARTESIAN_POINT('',(206.871412483929,101.4,51.9));
#1335=CARTESIAN_POINT('',(223.95,101.4,51.9));
#1336=CARTESIAN_POINT('',(222.728587516071,101.4,51.9));
#1337=CARTESIAN_POINT('',(222.728587516071,101.4,77.05));
#1338=CARTESIAN_POINT('',(283.5,101.4,51.1));
#1339=CARTESIAN_POINT('',(283.5,101.4,51.1));
#1340=CARTESIAN_POINT('',(223.95,101.4,51.1));
#1341=CARTESIAN_POINT('',(164.4,101.4,51.1));
#1342=CARTESIAN_POINT('',(164.4,101.4,77.));
#1343=CARTESIAN_POINT('',(223.95,101.4,51.1));
#1344=CARTESIAN_POINT('',(160.7,155.05,51.1));
#1345=CARTESIAN_POINT('',(160.7,105.1,51.1));
#1346=CARTESIAN_POINT('',(160.7,205.,51.1));
#1347=CARTESIAN_POINT('',(160.7,205.,77.));
#1348=CARTESIAN_POINT('',(160.7,105.1,51.1));
#1349=CARTESIAN_POINT('',(160.7,155.05,51.1));
#1350=CARTESIAN_POINT('',(223.95,208.7,51.1));
#1351=CARTESIAN_POINT('',(164.4,208.7,51.1));
#1352=CARTESIAN_POINT('',(283.5,208.7,51.1));
#1353=CARTESIAN_POINT('',(283.5,208.7,77.));
#1354=CARTESIAN_POINT('',(164.4,208.7,51.1));
#1355=CARTESIAN_POINT('',(223.95,208.7,51.1));
#1356=CARTESIAN_POINT('',(223.95,182.5,51.1));
#1357=CARTESIAN_POINT('',(206.1,182.5,51.1));
#1358=CARTESIAN_POINT('',(241.8,182.5,51.1));
#1359=CARTESIAN_POINT('',(241.8,173.6,51.1));
#1360=CARTESIAN_POINT('',(250.7,173.6,51.1));
#1361=CARTESIAN_POINT('',(250.7,155.05,51.1));
#1362=CARTESIAN_POINT('',(250.7,136.5,51.1));
#1363=CARTESIAN_POINT('',(241.8,136.5,51.1));
#1364=CARTESIAN_POINT('',(241.8,127.6,51.1));
#1365=CARTESIAN_POINT('',(223.95,127.6,51.1));
#1366=CARTESIAN_POINT('',(206.1,127.6,51.1));
#1367=CARTESIAN_POINT('',(206.1,136.5,51.1));
#1368=CARTESIAN_POINT('',(197.2,136.5,51.1));
#1369=CARTESIAN_POINT('',(197.2,155.05,51.1));
#1370=CARTESIAN_POINT('',(197.2,173.6,51.1));
#1371=CARTESIAN_POINT('',(206.1,173.6,51.1));
#1372=CARTESIAN_POINT('',(287.2,155.05,51.1));
#1373=CARTESIAN_POINT('',(287.2,205.,51.1));
#1374=CARTESIAN_POINT('',(287.2,105.1,51.1));
#1375=CARTESIAN_POINT('',(283.5,205.,51.1));
#1376=CARTESIAN_POINT('',(164.4,205.,51.1));
#1377=CARTESIAN_POINT('',(164.4,105.1,51.1));
#1378=CARTESIAN_POINT('',(283.5,105.1,51.1));
#1379=CARTESIAN_POINT('',(223.95,155.05,51.1));
#1380=CARTESIAN_POINT('',(287.2,205.,51.1));
#1381=CARTESIAN_POINT('',(287.2,105.1,77.));
#1382=CARTESIAN_POINT('',(287.2,155.05,51.1));
#1383=CARTESIAN_POINT('',(283.5,205.,51.1));
#1384=CARTESIAN_POINT('',(283.5,105.1,51.1));
#1385=CARTESIAN_POINT('',(164.4,205.,51.1));
#1386=CARTESIAN_POINT('',(164.4,105.1,51.1));
#1387=CARTESIAN_POINT('',(241.8,127.6,39.1));
#1388=CARTESIAN_POINT('',(241.8,127.6,39.1));
#1389=CARTESIAN_POINT('',(223.95,127.6,39.1));
#1390=CARTESIAN_POINT('',(206.1,127.6,39.1));
#1391=CARTESIAN_POINT('',(206.1,127.6,51.1));
#1392=CARTESIAN_POINT('',(223.95,127.6,39.1));
#1393=CARTESIAN_POINT('',(197.2,155.05,39.1));
#1394=CARTESIAN_POINT('',(197.2,136.5,39.1));
#1395=CARTESIAN_POINT('',(197.2,173.6,39.1));
#1396=CARTESIAN_POINT('',(197.2,173.6,51.1));
#1397=CARTESIAN_POINT('',(197.2,136.5,39.1));
#1398=CARTESIAN_POINT('',(197.2,155.05,39.1));
#1399=CARTESIAN_POINT('',(206.1,182.5,39.1));
#1400=CARTESIAN_POINT('',(206.1,182.5,39.1));
#1401=CARTESIAN_POINT('',(223.95,182.5,39.1));
#1402=CARTESIAN_POINT('',(241.8,182.5,39.1));
#1403=CARTESIAN_POINT('',(241.8,182.5,51.1));
#1404=CARTESIAN_POINT('',(223.95,182.5,39.1));
#1405=CARTESIAN_POINT('',(250.7,155.05,39.1));
#1406=CARTESIAN_POINT('',(250.7,173.6,39.1));
#1407=CARTESIAN_POINT('',(250.7,136.5,39.1));
#1408=CARTESIAN_POINT('',(250.7,136.5,51.1));
#1409=CARTESIAN_POINT('',(250.7,173.6,39.1));
#1410=CARTESIAN_POINT('',(250.7,155.05,39.1));
#1411=CARTESIAN_POINT('',(241.8,136.5,39.1));
#1412=CARTESIAN_POINT('',(241.8,173.6,39.1));
#1413=CARTESIAN_POINT('',(206.1,173.6,39.1));
#1414=CARTESIAN_POINT('',(206.1,136.5,39.1));
#1415=CARTESIAN_POINT('',(223.95,155.05,39.1));
#1416=CARTESIAN_POINT('',(241.8,136.5,39.1));
#1417=CARTESIAN_POINT('',(206.1,173.6,39.1));
#1418=CARTESIAN_POINT('',(241.8,173.6,39.1));
#1419=CARTESIAN_POINT('',(206.1,136.5,39.1));
#1420=CARTESIAN_POINT('',(277.3,24.6,41.));
#1421=CARTESIAN_POINT('',(277.3,38.,41.));
#1422=CARTESIAN_POINT('',(277.3,38.,77.));
#1423=CARTESIAN_POINT('',(277.3,24.6,41.));
#1424=CARTESIAN_POINT('',(288.5,49.2,41.));
#1425=CARTESIAN_POINT('',(288.5,49.2,41.));
#1426=CARTESIAN_POINT('',(306.25,49.2,41.));
#1427=CARTESIAN_POINT('',(306.25,49.2,41.));
#1428=CARTESIAN_POINT('',(288.5,38.,41.));
#1429=CARTESIAN_POINT('',(306.25,24.6,41.));
#1430=CARTESIAN_POINT('',(288.5,38.,41.));
#1431=CARTESIAN_POINT('',(214.8,98.2,51.9));
#1432=CARTESIAN_POINT('',(214.8,98.2,51.9));
#1433=CARTESIAN_POINT('',(214.8,98.2,77.05));
#1434=MECHANICAL_DESIGN_GEOMETRIC_PRESENTATION_REPRESENTATION('',(#24),
#1435);
#1435=(
GEOMETRIC_REPRESENTATION_CONTEXT(3)
GLOBAL_UNCERTAINTY_ASSIGNED_CONTEXT((#1436))
GLOBAL_UNIT_ASSIGNED_CONTEXT((#1442,#1438,#1437))
REPRESENTATION_CONTEXT('featured_part_09424','TOP_LEVEL_ASSEMBLY_PART')
);
#1436=UNCERTAINTY_MEASURE_WITH_UNIT(LENGTH_MEASURE(2.E-5),#1442,
'DISTANCE_ACCURACY_VALUE','Maximum Tolerance applied to model');
#1437=(
NAMED_UNIT(*)
SI_UNIT($,.STERADIAN.)
SOLID_ANGLE_UNIT()
);
#1438=(
CONVERSION_BASED_UNIT('DEGREE',#1440)
NAMED_UNIT(#1439)
PLANE_ANGLE_UNIT()
);
#1439=DIMENSIONAL_EXPONENTS(0.,0.,0.,0.,0.,0.,0.);
#1440=PLANE_ANGLE_MEASURE_WITH_UNIT(PLANE_ANGLE_MEASURE(0.0174532925),#1441);
#1441=(
NAMED_UNIT(*)
PLANE_ANGLE_UNIT()
SI_UNIT($,.RADIAN.)
);
#1442=(
LENGTH_UNIT()
NAMED_UNIT(*)
SI_UNIT(.MILLI.,.METRE.)
);
ENDSEC;
END-ISO-10303-21;
