ISO-10303-21;
HEADER;
/* Generated by software containing ST-Developer
 * from STEP Tools, Inc. (www.steptools.com) 
 */
/* OPTION: using custom schema-name function */

FILE_DESCRIPTION(
/* description */ (''),
/* implementation_level */ '2;1');

FILE_NAME(
/* name */ 'featured_part_09133.stp',
/* time_stamp */ '2026-07-11T07:38:33-04:00',
/* author */ (''),
/* organization */ (''),
/* preprocessor_version */ 'ST-DEVELOPER v20.1',
/* originating_system */ 'SIEMENS PLM Software NX2512.6002',
/* authorisation */ '');

FILE_SCHEMA (('AUTOMOTIVE_DESIGN { 1 0 10303 214 3 1 1 1 }'));
ENDSEC;

DATA;
#10=SHAPE_REPRESENTATION_RELATIONSHIP('None',
'relationship between featured_part_09133-None and featured_part_09133
-None',#22,#11);
#11=ADVANCED_BREP_SHAPE_REPRESENTATION('featured_part_09133-None',(#32),
#944);
#12=SHAPE_DEFINITION_REPRESENTATION(#13,#22);
#13=PRODUCT_DEFINITION_SHAPE('','',#14);
#14=PRODUCT_DEFINITION(' ','',#16,#15);
#15=PRODUCT_DEFINITION_CONTEXT('part definition',#21,'design');
#16=PRODUCT_DEFINITION_FORMATION_WITH_SPECIFIED_SOURCE(' ',' ',#18,
 .NOT_KNOWN.);
#17=PRODUCT_RELATED_PRODUCT_CATEGORY('part','',(#18));
#18=PRODUCT('featured_part_09133','featured_part_09133',' ',(#19));
#19=PRODUCT_CONTEXT(' ',#21,'mechanical');
#20=APPLICATION_PROTOCOL_DEFINITION('international standard',
'automotive_design',2010,#21);
#21=APPLICATION_CONTEXT(
'core data for automotive mechanical design processes');
#22=SHAPE_REPRESENTATION('featured_part_09133-None',(#567),#944);
#23=PRESENTATION_LAYER_ASSIGNMENT('1','Layer 1',(#32));
#24=STYLED_ITEM('',(#25),#32);
#25=PRESENTATION_STYLE_ASSIGNMENT((#26));
#26=SURFACE_STYLE_USAGE(.BOTH.,#27);
#27=SURFACE_SIDE_STYLE('',(#28));
#28=SURFACE_STYLE_FILL_AREA(#29);
#29=FILL_AREA_STYLE('',(#30));
#30=FILL_AREA_STYLE_COLOUR('',#31);
#31=COLOUR_RGB('medium steel',0.611764705882353,0.658823529411765,0.670588235294118);
#32=MANIFOLD_SOLID_BREP('',#33);
#33=CLOSED_SHELL('',(#73,#74,#75,#76,#77,#78,#79,#80,#81,#82,#83,#84,#85,
#86,#87,#88,#89,#90,#91,#92,#93,#94,#95,#96,#97,#98,#99,#100,#101,#102,
#103,#104,#105));
#34=CYLINDRICAL_SURFACE('',#596,6.9);
#35=CYLINDRICAL_SURFACE('',#597,6.9);
#36=CYLINDRICAL_SURFACE('',#598,6.9);
#37=CYLINDRICAL_SURFACE('',#599,6.9);
#38=CYLINDRICAL_SURFACE('',#609,5.7);
#39=CYLINDRICAL_SURFACE('',#610,5.7);
#40=CYLINDRICAL_SURFACE('',#611,5.7);
#41=CYLINDRICAL_SURFACE('',#612,5.7);
#42=CYLINDRICAL_SURFACE('',#615,8.9);
#43=CYLINDRICAL_SURFACE('',#618,8.9);
#44=CYLINDRICAL_SURFACE('',#621,8.9);
#45=CYLINDRICAL_SURFACE('',#624,8.9);
#46=FACE_OUTER_BOUND('',#243,.T.);
#47=FACE_OUTER_BOUND('',#244,.T.);
#48=FACE_OUTER_BOUND('',#245,.T.);
#49=FACE_OUTER_BOUND('',#246,.T.);
#50=FACE_OUTER_BOUND('',#247,.T.);
#51=FACE_OUTER_BOUND('',#248,.T.);
#52=FACE_OUTER_BOUND('',#249,.T.);
#53=FACE_OUTER_BOUND('',#250,.T.);
#54=FACE_OUTER_BOUND('',#251,.T.);
#55=FACE_OUTER_BOUND('',#254,.T.);
#56=FACE_OUTER_BOUND('',#255,.T.);
#57=FACE_OUTER_BOUND('',#256,.T.);
#58=FACE_OUTER_BOUND('',#257,.T.);
#59=FACE_OUTER_BOUND('',#258,.T.);
#60=FACE_OUTER_BOUND('',#259,.T.);
#61=FACE_OUTER_BOUND('',#260,.T.);
#62=FACE_OUTER_BOUND('',#261,.T.);
#63=FACE_OUTER_BOUND('',#262,.T.);
#64=FACE_OUTER_BOUND('',#263,.T.);
#65=FACE_OUTER_BOUND('',#264,.T.);
#66=FACE_OUTER_BOUND('',#265,.T.);
#67=FACE_OUTER_BOUND('',#266,.T.);
#68=FACE_OUTER_BOUND('',#267,.T.);
#69=FACE_OUTER_BOUND('',#268,.T.);
#70=FACE_OUTER_BOUND('',#271,.T.);
#71=FACE_OUTER_BOUND('',#274,.T.);
#72=FACE_OUTER_BOUND('',#277,.T.);
#73=ADVANCED_FACE('',(#221,#222,#223,#224,#225,#226),#106,.T.);
#74=ADVANCED_FACE('',(#46),#107,.T.);
#75=ADVANCED_FACE('',(#47),#108,.T.);
#76=ADVANCED_FACE('',(#48),#109,.T.);
#77=ADVANCED_FACE('',(#49),#110,.T.);
#78=ADVANCED_FACE('',(#50),#111,.T.);
#79=ADVANCED_FACE('',(#51),#112,.F.);
#80=ADVANCED_FACE('',(#52),#113,.F.);
#81=ADVANCED_FACE('',(#53),#114,.F.);
#82=ADVANCED_FACE('',(#54),#115,.F.);
#83=ADVANCED_FACE('',(#227,#228),#116,.F.);
#84=ADVANCED_FACE('',(#55),#117,.F.);
#85=ADVANCED_FACE('',(#56),#34,.F.);
#86=ADVANCED_FACE('',(#57),#35,.F.);
#87=ADVANCED_FACE('',(#58),#36,.F.);
#88=ADVANCED_FACE('',(#59),#37,.F.);
#89=ADVANCED_FACE('',(#60),#118,.F.);
#90=ADVANCED_FACE('',(#61),#119,.F.);
#91=ADVANCED_FACE('',(#62),#120,.F.);
#92=ADVANCED_FACE('',(#63),#121,.F.);
#93=ADVANCED_FACE('',(#64),#122,.F.);
#94=ADVANCED_FACE('',(#65),#38,.F.);
#95=ADVANCED_FACE('',(#66),#39,.F.);
#96=ADVANCED_FACE('',(#67),#40,.F.);
#97=ADVANCED_FACE('',(#68),#41,.F.);
#98=ADVANCED_FACE('',(#69),#123,.F.);
#99=ADVANCED_FACE('',(#229,#230),#42,.F.);
#100=ADVANCED_FACE('',(#70),#124,.F.);
#101=ADVANCED_FACE('',(#231,#232),#43,.F.);
#102=ADVANCED_FACE('',(#71),#125,.F.);
#103=ADVANCED_FACE('',(#233,#234),#44,.F.);
#104=ADVANCED_FACE('',(#72),#126,.F.);
#105=ADVANCED_FACE('',(#235,#236),#45,.F.);
#106=PLANE('',#576);
#107=PLANE('',#577);
#108=PLANE('',#578);
#109=PLANE('',#579);
#110=PLANE('',#580);
#111=PLANE('',#581);
#112=PLANE('',#582);
#113=PLANE('',#583);
#114=PLANE('',#584);
#115=PLANE('',#585);
#116=PLANE('',#594);
#117=PLANE('',#595);
#118=PLANE('',#600);
#119=PLANE('',#601);
#120=PLANE('',#602);
#121=PLANE('',#603);
#122=PLANE('',#608);
#123=PLANE('',#614);
#124=PLANE('',#617);
#125=PLANE('',#620);
#126=PLANE('',#623);
#127=LINE('',#797,#174);
#128=LINE('',#802,#175);
#129=LINE('',#806,#176);
#130=LINE('',#810,#177);
#131=LINE('',#813,#178);
#132=LINE('',#816,#179);
#133=LINE('',#818,#180);
#134=LINE('',#820,#181);
#135=LINE('',#822,#182);
#136=LINE('',#825,#183);
#137=LINE('',#826,#184);
#138=LINE('',#828,#185);
#139=LINE('',#830,#186);
#140=LINE('',#832,#187);
#141=LINE('',#834,#188);
#142=LINE('',#836,#189);
#143=LINE('',#838,#190);
#144=LINE('',#840,#191);
#145=LINE('',#842,#192);
#146=LINE('',#845,#193);
#147=LINE('',#848,#194);
#148=LINE('',#849,#195);
#149=LINE('',#851,#196);
#150=LINE('',#853,#197);
#151=LINE('',#855,#198);
#152=LINE('',#857,#199);
#153=LINE('',#860,#200);
#154=LINE('',#861,#201);
#155=LINE('',#863,#202);
#156=LINE('',#868,#203);
#157=LINE('',#872,#204);
#158=LINE('',#876,#205);
#159=LINE('',#882,#206);
#160=LINE('',#887,#207);
#161=LINE('',#888,#208);
#162=LINE('',#894,#209);
#163=LINE('',#897,#210);
#164=LINE('',#898,#211);
#165=LINE('',#900,#212);
#166=LINE('',#902,#213);
#167=LINE('',#904,#214);
#168=LINE('',#906,#215);
#169=LINE('',#909,#216);
#170=LINE('',#910,#217);
#171=LINE('',#912,#218);
#172=LINE('',#915,#219);
#173=LINE('',#916,#220);
#174=VECTOR('',#635,1.);
#175=VECTOR('',#638,1.);
#176=VECTOR('',#641,1.);
#177=VECTOR('',#644,1.);
#178=VECTOR('',#647,1.);
#179=VECTOR('',#648,1.);
#180=VECTOR('',#649,1.);
#181=VECTOR('',#650,1.);
#182=VECTOR('',#653,1.);
#183=VECTOR('',#654,1.);
#184=VECTOR('',#655,1.);
#185=VECTOR('',#656,1.);
#186=VECTOR('',#659,1.);
#187=VECTOR('',#660,1.);
#188=VECTOR('',#663,1.);
#189=VECTOR('',#664,1.);
#190=VECTOR('',#665,1.);
#191=VECTOR('',#668,1.);
#192=VECTOR('',#671,1.);
#193=VECTOR('',#676,1.);
#194=VECTOR('',#677,1.);
#195=VECTOR('',#678,1.);
#196=VECTOR('',#681,1.);
#197=VECTOR('',#682,1.);
#198=VECTOR('',#683,1.);
#199=VECTOR('',#686,1.);
#200=VECTOR('',#687,1.);
#201=VECTOR('',#688,1.);
#202=VECTOR('',#691,1.);
#203=VECTOR('',#694,1.);
#204=VECTOR('',#697,1.);
#205=VECTOR('',#700,1.);
#206=VECTOR('',#707,1.);
#207=VECTOR('',#714,1.);
#208=VECTOR('',#715,1.);
#209=VECTOR('',#726,1.);
#210=VECTOR('',#727,1.);
#211=VECTOR('',#728,1.);
#212=VECTOR('',#731,1.);
#213=VECTOR('',#732,1.);
#214=VECTOR('',#733,1.);
#215=VECTOR('',#736,1.);
#216=VECTOR('',#737,1.);
#217=VECTOR('',#738,1.);
#218=VECTOR('',#741,1.);
#219=VECTOR('',#742,1.);
#220=VECTOR('',#743,1.);
#221=FACE_BOUND('',#237,.T.);
#222=FACE_BOUND('',#238,.T.);
#223=FACE_BOUND('',#239,.T.);
#224=FACE_BOUND('',#240,.T.);
#225=FACE_BOUND('',#241,.T.);
#226=FACE_BOUND('',#242,.T.);
#227=FACE_BOUND('',#252,.T.);
#228=FACE_BOUND('',#253,.T.);
#229=FACE_BOUND('',#269,.T.);
#230=FACE_BOUND('',#270,.T.);
#231=FACE_BOUND('',#272,.T.);
#232=FACE_BOUND('',#273,.T.);
#233=FACE_BOUND('',#275,.T.);
#234=FACE_BOUND('',#276,.T.);
#235=FACE_BOUND('',#278,.T.);
#236=FACE_BOUND('',#279,.T.);
#237=EDGE_LOOP('',(#280));
#238=EDGE_LOOP('',(#281));
#239=EDGE_LOOP('',(#282));
#240=EDGE_LOOP('',(#283));
#241=EDGE_LOOP('',(#284,#285,#286,#287,#288,#289,#290,#291));
#242=EDGE_LOOP('',(#292,#293,#294,#295));
#243=EDGE_LOOP('',(#296,#297,#298,#299,#300));
#244=EDGE_LOOP('',(#301,#302,#303,#304));
#245=EDGE_LOOP('',(#305,#306,#307,#308,#309));
#246=EDGE_LOOP('',(#310,#311,#312,#313));
#247=EDGE_LOOP('',(#314,#315,#316,#317));
#248=EDGE_LOOP('',(#318,#319,#320,#321));
#249=EDGE_LOOP('',(#322,#323,#324,#325));
#250=EDGE_LOOP('',(#326,#327,#328,#329));
#251=EDGE_LOOP('',(#330,#331,#332,#333));
#252=EDGE_LOOP('',(#334,#335,#336,#337,#338,#339,#340,#341));
#253=EDGE_LOOP('',(#342,#343,#344,#345,#346,#347,#348,#349));
#254=EDGE_LOOP('',(#350,#351,#352,#353));
#255=EDGE_LOOP('',(#354,#355,#356,#357));
#256=EDGE_LOOP('',(#358,#359,#360,#361));
#257=EDGE_LOOP('',(#362,#363,#364,#365));
#258=EDGE_LOOP('',(#366,#367,#368,#369));
#259=EDGE_LOOP('',(#370,#371,#372,#373));
#260=EDGE_LOOP('',(#374,#375,#376,#377));
#261=EDGE_LOOP('',(#378,#379,#380,#381));
#262=EDGE_LOOP('',(#382,#383,#384,#385));
#263=EDGE_LOOP('',(#386,#387,#388,#389,#390,#391,#392,#393));
#264=EDGE_LOOP('',(#394,#395,#396,#397));
#265=EDGE_LOOP('',(#398,#399,#400,#401));
#266=EDGE_LOOP('',(#402,#403,#404,#405));
#267=EDGE_LOOP('',(#406,#407,#408,#409));
#268=EDGE_LOOP('',(#410));
#269=EDGE_LOOP('',(#411));
#270=EDGE_LOOP('',(#412));
#271=EDGE_LOOP('',(#413));
#272=EDGE_LOOP('',(#414));
#273=EDGE_LOOP('',(#415));
#274=EDGE_LOOP('',(#416));
#275=EDGE_LOOP('',(#417));
#276=EDGE_LOOP('',(#418));
#277=EDGE_LOOP('',(#419));
#278=EDGE_LOOP('',(#420));
#279=EDGE_LOOP('',(#421));
#280=ORIENTED_EDGE('',*,*,#472,.F.);
#281=ORIENTED_EDGE('',*,*,#473,.F.);
#282=ORIENTED_EDGE('',*,*,#474,.F.);
#283=ORIENTED_EDGE('',*,*,#475,.F.);
#284=ORIENTED_EDGE('',*,*,#476,.F.);
#285=ORIENTED_EDGE('',*,*,#477,.T.);
#286=ORIENTED_EDGE('',*,*,#478,.F.);
#287=ORIENTED_EDGE('',*,*,#479,.T.);
#288=ORIENTED_EDGE('',*,*,#480,.F.);
#289=ORIENTED_EDGE('',*,*,#481,.T.);
#290=ORIENTED_EDGE('',*,*,#482,.F.);
#291=ORIENTED_EDGE('',*,*,#483,.T.);
#292=ORIENTED_EDGE('',*,*,#484,.F.);
#293=ORIENTED_EDGE('',*,*,#485,.T.);
#294=ORIENTED_EDGE('',*,*,#486,.F.);
#295=ORIENTED_EDGE('',*,*,#487,.F.);
#296=ORIENTED_EDGE('',*,*,#488,.T.);
#297=ORIENTED_EDGE('',*,*,#489,.T.);
#298=ORIENTED_EDGE('',*,*,#484,.T.);
#299=ORIENTED_EDGE('',*,*,#490,.F.);
#300=ORIENTED_EDGE('',*,*,#491,.T.);
#301=ORIENTED_EDGE('',*,*,#490,.T.);
#302=ORIENTED_EDGE('',*,*,#487,.T.);
#303=ORIENTED_EDGE('',*,*,#492,.F.);
#304=ORIENTED_EDGE('',*,*,#493,.T.);
#305=ORIENTED_EDGE('',*,*,#486,.T.);
#306=ORIENTED_EDGE('',*,*,#494,.T.);
#307=ORIENTED_EDGE('',*,*,#495,.F.);
#308=ORIENTED_EDGE('',*,*,#496,.T.);
#309=ORIENTED_EDGE('',*,*,#492,.T.);
#310=ORIENTED_EDGE('',*,*,#497,.F.);
#311=ORIENTED_EDGE('',*,*,#491,.F.);
#312=ORIENTED_EDGE('',*,*,#493,.F.);
#313=ORIENTED_EDGE('',*,*,#496,.F.);
#314=ORIENTED_EDGE('',*,*,#495,.T.);
#315=ORIENTED_EDGE('',*,*,#498,.T.);
#316=ORIENTED_EDGE('',*,*,#488,.F.);
#317=ORIENTED_EDGE('',*,*,#497,.T.);
#318=ORIENTED_EDGE('',*,*,#494,.F.);
#319=ORIENTED_EDGE('',*,*,#485,.F.);
#320=ORIENTED_EDGE('',*,*,#489,.F.);
#321=ORIENTED_EDGE('',*,*,#498,.F.);
#322=ORIENTED_EDGE('',*,*,#499,.T.);
#323=ORIENTED_EDGE('',*,*,#500,.T.);
#324=ORIENTED_EDGE('',*,*,#476,.T.);
#325=ORIENTED_EDGE('',*,*,#501,.T.);
#326=ORIENTED_EDGE('',*,*,#478,.T.);
#327=ORIENTED_EDGE('',*,*,#502,.T.);
#328=ORIENTED_EDGE('',*,*,#503,.T.);
#329=ORIENTED_EDGE('',*,*,#504,.T.);
#330=ORIENTED_EDGE('',*,*,#505,.T.);
#331=ORIENTED_EDGE('',*,*,#506,.T.);
#332=ORIENTED_EDGE('',*,*,#480,.T.);
#333=ORIENTED_EDGE('',*,*,#507,.T.);
#334=ORIENTED_EDGE('',*,*,#508,.T.);
#335=ORIENTED_EDGE('',*,*,#509,.T.);
#336=ORIENTED_EDGE('',*,*,#510,.T.);
#337=ORIENTED_EDGE('',*,*,#511,.T.);
#338=ORIENTED_EDGE('',*,*,#512,.T.);
#339=ORIENTED_EDGE('',*,*,#513,.T.);
#340=ORIENTED_EDGE('',*,*,#514,.T.);
#341=ORIENTED_EDGE('',*,*,#515,.T.);
#342=ORIENTED_EDGE('',*,*,#503,.F.);
#343=ORIENTED_EDGE('',*,*,#516,.T.);
#344=ORIENTED_EDGE('',*,*,#499,.F.);
#345=ORIENTED_EDGE('',*,*,#517,.T.);
#346=ORIENTED_EDGE('',*,*,#518,.F.);
#347=ORIENTED_EDGE('',*,*,#519,.T.);
#348=ORIENTED_EDGE('',*,*,#505,.F.);
#349=ORIENTED_EDGE('',*,*,#520,.T.);
#350=ORIENTED_EDGE('',*,*,#518,.T.);
#351=ORIENTED_EDGE('',*,*,#521,.T.);
#352=ORIENTED_EDGE('',*,*,#482,.T.);
#353=ORIENTED_EDGE('',*,*,#522,.T.);
#354=ORIENTED_EDGE('',*,*,#477,.F.);
#355=ORIENTED_EDGE('',*,*,#500,.F.);
#356=ORIENTED_EDGE('',*,*,#516,.F.);
#357=ORIENTED_EDGE('',*,*,#502,.F.);
#358=ORIENTED_EDGE('',*,*,#483,.F.);
#359=ORIENTED_EDGE('',*,*,#521,.F.);
#360=ORIENTED_EDGE('',*,*,#517,.F.);
#361=ORIENTED_EDGE('',*,*,#501,.F.);
#362=ORIENTED_EDGE('',*,*,#481,.F.);
#363=ORIENTED_EDGE('',*,*,#506,.F.);
#364=ORIENTED_EDGE('',*,*,#519,.F.);
#365=ORIENTED_EDGE('',*,*,#522,.F.);
#366=ORIENTED_EDGE('',*,*,#479,.F.);
#367=ORIENTED_EDGE('',*,*,#504,.F.);
#368=ORIENTED_EDGE('',*,*,#520,.F.);
#369=ORIENTED_EDGE('',*,*,#507,.F.);
#370=ORIENTED_EDGE('',*,*,#523,.T.);
#371=ORIENTED_EDGE('',*,*,#524,.T.);
#372=ORIENTED_EDGE('',*,*,#512,.F.);
#373=ORIENTED_EDGE('',*,*,#525,.T.);
#374=ORIENTED_EDGE('',*,*,#514,.F.);
#375=ORIENTED_EDGE('',*,*,#526,.T.);
#376=ORIENTED_EDGE('',*,*,#527,.T.);
#377=ORIENTED_EDGE('',*,*,#528,.T.);
#378=ORIENTED_EDGE('',*,*,#529,.T.);
#379=ORIENTED_EDGE('',*,*,#530,.T.);
#380=ORIENTED_EDGE('',*,*,#508,.F.);
#381=ORIENTED_EDGE('',*,*,#531,.T.);
#382=ORIENTED_EDGE('',*,*,#532,.T.);
#383=ORIENTED_EDGE('',*,*,#533,.T.);
#384=ORIENTED_EDGE('',*,*,#510,.F.);
#385=ORIENTED_EDGE('',*,*,#534,.T.);
#386=ORIENTED_EDGE('',*,*,#527,.F.);
#387=ORIENTED_EDGE('',*,*,#535,.T.);
#388=ORIENTED_EDGE('',*,*,#523,.F.);
#389=ORIENTED_EDGE('',*,*,#536,.T.);
#390=ORIENTED_EDGE('',*,*,#532,.F.);
#391=ORIENTED_EDGE('',*,*,#537,.T.);
#392=ORIENTED_EDGE('',*,*,#529,.F.);
#393=ORIENTED_EDGE('',*,*,#538,.T.);
#394=ORIENTED_EDGE('',*,*,#513,.F.);
#395=ORIENTED_EDGE('',*,*,#524,.F.);
#396=ORIENTED_EDGE('',*,*,#535,.F.);
#397=ORIENTED_EDGE('',*,*,#526,.F.);
#398=ORIENTED_EDGE('',*,*,#511,.F.);
#399=ORIENTED_EDGE('',*,*,#533,.F.);
#400=ORIENTED_EDGE('',*,*,#536,.F.);
#401=ORIENTED_EDGE('',*,*,#525,.F.);
#402=ORIENTED_EDGE('',*,*,#509,.F.);
#403=ORIENTED_EDGE('',*,*,#530,.F.);
#404=ORIENTED_EDGE('',*,*,#537,.F.);
#405=ORIENTED_EDGE('',*,*,#534,.F.);
#406=ORIENTED_EDGE('',*,*,#515,.F.);
#407=ORIENTED_EDGE('',*,*,#528,.F.);
#408=ORIENTED_EDGE('',*,*,#538,.F.);
#409=ORIENTED_EDGE('',*,*,#531,.F.);
#410=ORIENTED_EDGE('',*,*,#539,.F.);
#411=ORIENTED_EDGE('',*,*,#475,.T.);
#412=ORIENTED_EDGE('',*,*,#539,.T.);
#413=ORIENTED_EDGE('',*,*,#540,.F.);
#414=ORIENTED_EDGE('',*,*,#474,.T.);
#415=ORIENTED_EDGE('',*,*,#540,.T.);
#416=ORIENTED_EDGE('',*,*,#541,.F.);
#417=ORIENTED_EDGE('',*,*,#473,.T.);
#418=ORIENTED_EDGE('',*,*,#541,.T.);
#419=ORIENTED_EDGE('',*,*,#542,.F.);
#420=ORIENTED_EDGE('',*,*,#472,.T.);
#421=ORIENTED_EDGE('',*,*,#542,.T.);
#422=VERTEX_POINT('',#790);
#423=VERTEX_POINT('',#792);
#424=VERTEX_POINT('',#794);
#425=VERTEX_POINT('',#796);
#426=VERTEX_POINT('',#798);
#427=VERTEX_POINT('',#799);
#428=VERTEX_POINT('',#801);
#429=VERTEX_POINT('',#803);
#430=VERTEX_POINT('',#805);
#431=VERTEX_POINT('',#807);
#432=VERTEX_POINT('',#809);
#433=VERTEX_POINT('',#811);
#434=VERTEX_POINT('',#814);
#435=VERTEX_POINT('',#815);
#436=VERTEX_POINT('',#817);
#437=VERTEX_POINT('',#819);
#438=VERTEX_POINT('',#823);
#439=VERTEX_POINT('',#824);
#440=VERTEX_POINT('',#827);
#441=VERTEX_POINT('',#831);
#442=VERTEX_POINT('',#835);
#443=VERTEX_POINT('',#837);
#444=VERTEX_POINT('',#846);
#445=VERTEX_POINT('',#847);
#446=VERTEX_POINT('',#852);
#447=VERTEX_POINT('',#854);
#448=VERTEX_POINT('',#858);
#449=VERTEX_POINT('',#859);
#450=VERTEX_POINT('',#864);
#451=VERTEX_POINT('',#865);
#452=VERTEX_POINT('',#867);
#453=VERTEX_POINT('',#869);
#454=VERTEX_POINT('',#871);
#455=VERTEX_POINT('',#873);
#456=VERTEX_POINT('',#875);
#457=VERTEX_POINT('',#877);
#458=VERTEX_POINT('',#881);
#459=VERTEX_POINT('',#883);
#460=VERTEX_POINT('',#895);
#461=VERTEX_POINT('',#896);
#462=VERTEX_POINT('',#901);
#463=VERTEX_POINT('',#903);
#464=VERTEX_POINT('',#907);
#465=VERTEX_POINT('',#908);
#466=VERTEX_POINT('',#913);
#467=VERTEX_POINT('',#914);
#468=VERTEX_POINT('',#928);
#469=VERTEX_POINT('',#932);
#470=VERTEX_POINT('',#936);
#471=VERTEX_POINT('',#940);
#472=EDGE_CURVE('',#422,#422,#543,.T.);
#473=EDGE_CURVE('',#423,#423,#544,.T.);
#474=EDGE_CURVE('',#424,#424,#545,.T.);
#475=EDGE_CURVE('',#425,#425,#546,.T.);
#476=EDGE_CURVE('',#426,#427,#127,.T.);
#477=EDGE_CURVE('',#426,#428,#547,.T.);
#478=EDGE_CURVE('',#429,#428,#128,.T.);
#479=EDGE_CURVE('',#429,#430,#548,.T.);
#480=EDGE_CURVE('',#431,#430,#129,.T.);
#481=EDGE_CURVE('',#431,#432,#549,.T.);
#482=EDGE_CURVE('',#433,#432,#130,.T.);
#483=EDGE_CURVE('',#433,#427,#550,.T.);
#484=EDGE_CURVE('',#434,#435,#131,.T.);
#485=EDGE_CURVE('',#434,#436,#132,.T.);
#486=EDGE_CURVE('',#437,#436,#133,.T.);
#487=EDGE_CURVE('',#435,#437,#134,.T.);
#488=EDGE_CURVE('',#438,#439,#135,.T.);
#489=EDGE_CURVE('',#439,#434,#136,.T.);
#490=EDGE_CURVE('',#440,#435,#137,.T.);
#491=EDGE_CURVE('',#440,#438,#138,.T.);
#492=EDGE_CURVE('',#441,#437,#139,.T.);
#493=EDGE_CURVE('',#441,#440,#140,.T.);
#494=EDGE_CURVE('',#436,#442,#141,.T.);
#495=EDGE_CURVE('',#443,#442,#142,.T.);
#496=EDGE_CURVE('',#443,#441,#143,.T.);
#497=EDGE_CURVE('',#438,#443,#144,.T.);
#498=EDGE_CURVE('',#442,#439,#145,.T.);
#499=EDGE_CURVE('',#444,#445,#146,.T.);
#500=EDGE_CURVE('',#445,#426,#147,.T.);
#501=EDGE_CURVE('',#427,#444,#148,.T.);
#502=EDGE_CURVE('',#428,#446,#149,.T.);
#503=EDGE_CURVE('',#446,#447,#150,.T.);
#504=EDGE_CURVE('',#447,#429,#151,.T.);
#505=EDGE_CURVE('',#448,#449,#152,.T.);
#506=EDGE_CURVE('',#449,#431,#153,.T.);
#507=EDGE_CURVE('',#430,#448,#154,.T.);
#508=EDGE_CURVE('',#450,#451,#155,.T.);
#509=EDGE_CURVE('',#451,#452,#551,.T.);
#510=EDGE_CURVE('',#452,#453,#156,.T.);
#511=EDGE_CURVE('',#453,#454,#552,.T.);
#512=EDGE_CURVE('',#454,#455,#157,.T.);
#513=EDGE_CURVE('',#455,#456,#553,.T.);
#514=EDGE_CURVE('',#456,#457,#158,.T.);
#515=EDGE_CURVE('',#457,#450,#554,.T.);
#516=EDGE_CURVE('',#446,#445,#555,.T.);
#517=EDGE_CURVE('',#444,#458,#556,.T.);
#518=EDGE_CURVE('',#459,#458,#159,.T.);
#519=EDGE_CURVE('',#459,#449,#557,.T.);
#520=EDGE_CURVE('',#448,#447,#558,.T.);
#521=EDGE_CURVE('',#458,#433,#160,.T.);
#522=EDGE_CURVE('',#432,#459,#161,.T.);
#523=EDGE_CURVE('',#460,#461,#162,.T.);
#524=EDGE_CURVE('',#461,#455,#163,.T.);
#525=EDGE_CURVE('',#454,#460,#164,.T.);
#526=EDGE_CURVE('',#456,#462,#165,.T.);
#527=EDGE_CURVE('',#462,#463,#166,.T.);
#528=EDGE_CURVE('',#463,#457,#167,.T.);
#529=EDGE_CURVE('',#464,#465,#168,.T.);
#530=EDGE_CURVE('',#465,#451,#169,.T.);
#531=EDGE_CURVE('',#450,#464,#170,.T.);
#532=EDGE_CURVE('',#466,#467,#171,.T.);
#533=EDGE_CURVE('',#467,#453,#172,.T.);
#534=EDGE_CURVE('',#452,#466,#173,.T.);
#535=EDGE_CURVE('',#462,#461,#559,.T.);
#536=EDGE_CURVE('',#460,#467,#560,.T.);
#537=EDGE_CURVE('',#466,#465,#561,.T.);
#538=EDGE_CURVE('',#464,#463,#562,.T.);
#539=EDGE_CURVE('',#468,#468,#563,.T.);
#540=EDGE_CURVE('',#469,#469,#564,.T.);
#541=EDGE_CURVE('',#470,#470,#565,.T.);
#542=EDGE_CURVE('',#471,#471,#566,.T.);
#543=CIRCLE('',#568,8.9);
#544=CIRCLE('',#569,8.9);
#545=CIRCLE('',#570,8.9);
#546=CIRCLE('',#571,8.9);
#547=CIRCLE('',#572,6.9);
#548=CIRCLE('',#573,6.9);
#549=CIRCLE('',#574,6.9);
#550=CIRCLE('',#575,6.9);
#551=CIRCLE('',#586,5.7);
#552=CIRCLE('',#587,5.7);
#553=CIRCLE('',#588,5.7);
#554=CIRCLE('',#589,5.7);
#555=CIRCLE('',#590,6.9);
#556=CIRCLE('',#591,6.9);
#557=CIRCLE('',#592,6.9);
#558=CIRCLE('',#593,6.9);
#559=CIRCLE('',#604,5.7);
#560=CIRCLE('',#605,5.7);
#561=CIRCLE('',#606,5.7);
#562=CIRCLE('',#607,5.7);
#563=CIRCLE('',#613,8.9);
#564=CIRCLE('',#616,8.9);
#565=CIRCLE('',#619,8.9);
#566=CIRCLE('',#622,8.9);
#567=AXIS2_PLACEMENT_3D('',#788,#625,#626);
#568=AXIS2_PLACEMENT_3D('',#789,#627,#628);
#569=AXIS2_PLACEMENT_3D('',#791,#629,#630);
#570=AXIS2_PLACEMENT_3D('',#793,#631,#632);
#571=AXIS2_PLACEMENT_3D('',#795,#633,#634);
#572=AXIS2_PLACEMENT_3D('',#800,#636,#637);
#573=AXIS2_PLACEMENT_3D('',#804,#639,#640);
#574=AXIS2_PLACEMENT_3D('',#808,#642,#643);
#575=AXIS2_PLACEMENT_3D('',#812,#645,#646);
#576=AXIS2_PLACEMENT_3D('',#821,#651,#652);
#577=AXIS2_PLACEMENT_3D('',#829,#657,#658);
#578=AXIS2_PLACEMENT_3D('',#833,#661,#662);
#579=AXIS2_PLACEMENT_3D('',#839,#666,#667);
#580=AXIS2_PLACEMENT_3D('',#841,#669,#670);
#581=AXIS2_PLACEMENT_3D('',#843,#672,#673);
#582=AXIS2_PLACEMENT_3D('',#844,#674,#675);
#583=AXIS2_PLACEMENT_3D('',#850,#679,#680);
#584=AXIS2_PLACEMENT_3D('',#856,#684,#685);
#585=AXIS2_PLACEMENT_3D('',#862,#689,#690);
#586=AXIS2_PLACEMENT_3D('',#866,#692,#693);
#587=AXIS2_PLACEMENT_3D('',#870,#695,#696);
#588=AXIS2_PLACEMENT_3D('',#874,#698,#699);
#589=AXIS2_PLACEMENT_3D('',#878,#701,#702);
#590=AXIS2_PLACEMENT_3D('',#879,#703,#704);
#591=AXIS2_PLACEMENT_3D('',#880,#705,#706);
#592=AXIS2_PLACEMENT_3D('',#884,#708,#709);
#593=AXIS2_PLACEMENT_3D('',#885,#710,#711);
#594=AXIS2_PLACEMENT_3D('',#886,#712,#713);
#595=AXIS2_PLACEMENT_3D('',#889,#716,#717);
#596=AXIS2_PLACEMENT_3D('',#890,#718,#719);
#597=AXIS2_PLACEMENT_3D('',#891,#720,#721);
#598=AXIS2_PLACEMENT_3D('',#892,#722,#723);
#599=AXIS2_PLACEMENT_3D('',#893,#724,#725);
#600=AXIS2_PLACEMENT_3D('',#899,#729,#730);
#601=AXIS2_PLACEMENT_3D('',#905,#734,#735);
#602=AXIS2_PLACEMENT_3D('',#911,#739,#740);
#603=AXIS2_PLACEMENT_3D('',#917,#744,#745);
#604=AXIS2_PLACEMENT_3D('',#918,#746,#747);
#605=AXIS2_PLACEMENT_3D('',#919,#748,#749);
#606=AXIS2_PLACEMENT_3D('',#920,#750,#751);
#607=AXIS2_PLACEMENT_3D('',#921,#752,#753);
#608=AXIS2_PLACEMENT_3D('',#922,#754,#755);
#609=AXIS2_PLACEMENT_3D('',#923,#756,#757);
#610=AXIS2_PLACEMENT_3D('',#924,#758,#759);
#611=AXIS2_PLACEMENT_3D('',#925,#760,#761);
#612=AXIS2_PLACEMENT_3D('',#926,#762,#763);
#613=AXIS2_PLACEMENT_3D('',#927,#764,#765);
#614=AXIS2_PLACEMENT_3D('',#929,#766,#767);
#615=AXIS2_PLACEMENT_3D('',#930,#768,#769);
#616=AXIS2_PLACEMENT_3D('',#931,#770,#771);
#617=AXIS2_PLACEMENT_3D('',#933,#772,#773);
#618=AXIS2_PLACEMENT_3D('',#934,#774,#775);
#619=AXIS2_PLACEMENT_3D('',#935,#776,#777);
#620=AXIS2_PLACEMENT_3D('',#937,#778,#779);
#621=AXIS2_PLACEMENT_3D('',#938,#780,#781);
#622=AXIS2_PLACEMENT_3D('',#939,#782,#783);
#623=AXIS2_PLACEMENT_3D('',#941,#784,#785);
#624=AXIS2_PLACEMENT_3D('',#942,#786,#787);
#625=DIRECTION('',(0.,0.,1.));
#626=DIRECTION('',(1.,0.,0.));
#627=DIRECTION('',(0.,0.,1.));
#628=DIRECTION('',(1.,0.,0.));
#629=DIRECTION('',(0.,0.,1.));
#630=DIRECTION('',(1.,0.,0.));
#631=DIRECTION('',(0.,0.,1.));
#632=DIRECTION('',(1.,0.,0.));
#633=DIRECTION('',(0.,0.,1.));
#634=DIRECTION('',(1.,0.,0.));
#635=DIRECTION('',(1.,0.,0.));
#636=DIRECTION('',(0.,0.,-1.));
#637=DIRECTION('',(1.,0.,0.));
#638=DIRECTION('',(0.,-1.,0.));
#639=DIRECTION('',(0.,0.,-1.));
#640=DIRECTION('',(1.,0.,0.));
#641=DIRECTION('',(-1.,0.,0.));
#642=DIRECTION('',(0.,0.,-1.));
#643=DIRECTION('',(0.999999999999998,0.,0.));
#644=DIRECTION('',(0.,1.,0.));
#645=DIRECTION('',(0.,0.,-1.));
#646=DIRECTION('',(0.999999999999998,0.,0.));
#647=DIRECTION('',(-1.,0.,0.));
#648=DIRECTION('',(0.,1.,0.));
#649=DIRECTION('',(1.,0.,0.));
#650=DIRECTION('',(0.,1.,0.));
#651=DIRECTION('',(0.,0.,1.));
#652=DIRECTION('',(1.,0.,0.));
#653=DIRECTION('',(0.,0.,1.));
#654=DIRECTION('',(-0.707106781186545,0.,0.70710678118655));
#655=DIRECTION('',(0.,0.,1.));
#656=DIRECTION('',(1.,0.,0.));
#657=DIRECTION('',(0.,-1.,0.));
#658=DIRECTION('',(0.,0.,-1.));
#659=DIRECTION('',(0.,0.,1.));
#660=DIRECTION('',(0.,-1.,0.));
#661=DIRECTION('',(-1.,0.,0.));
#662=DIRECTION('',(0.,0.,1.));
#663=DIRECTION('',(0.707106781186545,0.,-0.70710678118655));
#664=DIRECTION('',(0.,0.,1.));
#665=DIRECTION('',(-1.,0.,0.));
#666=DIRECTION('',(0.,1.,0.));
#667=DIRECTION('',(0.,0.,1.));
#668=DIRECTION('',(0.,1.,0.));
#669=DIRECTION('',(0.,0.,-1.));
#670=DIRECTION('',(-1.,0.,0.));
#671=DIRECTION('',(0.,-1.,0.));
#672=DIRECTION('',(1.,0.,0.));
#673=DIRECTION('',(0.,0.,-1.));
#674=DIRECTION('',(-0.70710678118655,0.,-0.707106781186545));
#675=DIRECTION('',(0.,-1.,0.));
#676=DIRECTION('',(-1.,0.,0.));
#677=DIRECTION('',(0.,0.,1.));
#678=DIRECTION('',(0.,0.,-1.));
#679=DIRECTION('',(0.,-1.,0.));
#680=DIRECTION('',(0.,0.,-1.));
#681=DIRECTION('',(0.,0.,-1.));
#682=DIRECTION('',(0.,1.,0.));
#683=DIRECTION('',(0.,0.,1.));
#684=DIRECTION('',(-1.,0.,0.));
#685=DIRECTION('',(0.,0.,1.));
#686=DIRECTION('',(1.,0.,0.));
#687=DIRECTION('',(0.,0.,1.));
#688=DIRECTION('',(0.,0.,-1.));
#689=DIRECTION('',(0.,1.,0.));
#690=DIRECTION('',(0.,0.,1.));
#691=DIRECTION('',(1.,0.,0.));
#692=DIRECTION('',(0.,0.,-1.));
#693=DIRECTION('',(-1.,0.,0.));
#694=DIRECTION('',(0.,-1.,0.));
#695=DIRECTION('',(0.,0.,-1.));
#696=DIRECTION('',(-1.,0.,0.));
#697=DIRECTION('',(-1.,0.,0.));
#698=DIRECTION('',(0.,0.,-1.));
#699=DIRECTION('',(-0.999999999999999,0.,0.));
#700=DIRECTION('',(0.,1.,0.));
#701=DIRECTION('',(0.,0.,-1.));
#702=DIRECTION('',(-0.999999999999999,0.,0.));
#703=DIRECTION('',(0.,0.,1.));
#704=DIRECTION('',(-1.,0.,0.));
#705=DIRECTION('',(0.,0.,1.));
#706=DIRECTION('',(-0.999999999999998,0.,0.));
#707=DIRECTION('',(0.,-1.,0.));
#708=DIRECTION('',(0.,0.,1.));
#709=DIRECTION('',(-0.999999999999998,0.,0.));
#710=DIRECTION('',(0.,0.,1.));
#711=DIRECTION('',(-1.,0.,0.));
#712=DIRECTION('',(0.,0.,-1.));
#713=DIRECTION('',(-1.,0.,0.));
#714=DIRECTION('',(0.,0.,1.));
#715=DIRECTION('',(0.,0.,-1.));
#716=DIRECTION('',(1.,0.,0.));
#717=DIRECTION('',(0.,0.,-1.));
#718=DIRECTION('',(0.,0.,1.));
#719=DIRECTION('',(1.,0.,0.));
#720=DIRECTION('',(0.,0.,1.));
#721=DIRECTION('',(0.999999999999998,0.,0.));
#722=DIRECTION('',(0.,0.,1.));
#723=DIRECTION('',(0.999999999999998,0.,0.));
#724=DIRECTION('',(0.,0.,1.));
#725=DIRECTION('',(1.,0.,0.));
#726=DIRECTION('',(-1.,0.,0.));
#727=DIRECTION('',(0.,0.,1.));
#728=DIRECTION('',(0.,0.,-1.));
#729=DIRECTION('',(0.,-1.,0.));
#730=DIRECTION('',(0.,0.,-1.));
#731=DIRECTION('',(0.,0.,-1.));
#732=DIRECTION('',(0.,1.,0.));
#733=DIRECTION('',(0.,0.,1.));
#734=DIRECTION('',(-1.,0.,0.));
#735=DIRECTION('',(0.,0.,1.));
#736=DIRECTION('',(1.,0.,0.));
#737=DIRECTION('',(0.,0.,1.));
#738=DIRECTION('',(0.,0.,-1.));
#739=DIRECTION('',(0.,1.,0.));
#740=DIRECTION('',(0.,0.,1.));
#741=DIRECTION('',(0.,-1.,0.));
#742=DIRECTION('',(0.,0.,1.));
#743=DIRECTION('',(0.,0.,-1.));
#744=DIRECTION('',(1.,0.,0.));
#745=DIRECTION('',(0.,0.,-1.));
#746=DIRECTION('',(0.,0.,1.));
#747=DIRECTION('',(-0.999999999999999,0.,0.));
#748=DIRECTION('',(0.,0.,1.));
#749=DIRECTION('',(-1.,0.,0.));
#750=DIRECTION('',(0.,0.,1.));
#751=DIRECTION('',(-1.,0.,0.));
#752=DIRECTION('',(0.,0.,1.));
#753=DIRECTION('',(-0.999999999999999,0.,0.));
#754=DIRECTION('',(0.,0.,-1.));
#755=DIRECTION('',(-1.,0.,0.));
#756=DIRECTION('',(0.,0.,1.));
#757=DIRECTION('',(0.999999999999999,0.,0.));
#758=DIRECTION('',(0.,0.,1.));
#759=DIRECTION('',(1.,0.,0.));
#760=DIRECTION('',(0.,0.,1.));
#761=DIRECTION('',(1.,0.,0.));
#762=DIRECTION('',(0.,0.,1.));
#763=DIRECTION('',(0.999999999999999,0.,0.));
#764=DIRECTION('',(0.,0.,-1.));
#765=DIRECTION('',(1.,0.,0.));
#766=DIRECTION('',(0.,0.,-1.));
#767=DIRECTION('',(-1.,0.,0.));
#768=DIRECTION('',(0.,0.,-1.));
#769=DIRECTION('',(1.,0.,0.));
#770=DIRECTION('',(0.,0.,-1.));
#771=DIRECTION('',(1.,0.,0.));
#772=DIRECTION('',(0.,0.,-1.));
#773=DIRECTION('',(-1.,0.,0.));
#774=DIRECTION('',(0.,0.,-1.));
#775=DIRECTION('',(1.,0.,0.));
#776=DIRECTION('',(0.,0.,-1.));
#777=DIRECTION('',(1.,0.,0.));
#778=DIRECTION('',(0.,0.,-1.));
#779=DIRECTION('',(-1.,0.,0.));
#780=DIRECTION('',(0.,0.,-1.));
#781=DIRECTION('',(1.,0.,0.));
#782=DIRECTION('',(0.,0.,-1.));
#783=DIRECTION('',(1.,0.,0.));
#784=DIRECTION('',(0.,0.,-1.));
#785=DIRECTION('',(-1.,0.,0.));
#786=DIRECTION('',(0.,0.,-1.));
#787=DIRECTION('',(1.,0.,0.));
#788=CARTESIAN_POINT('',(0.,0.,0.));
#789=CARTESIAN_POINT('',(67.3,95.6,62.9));
#790=CARTESIAN_POINT('',(76.2,95.6,62.9));
#791=CARTESIAN_POINT('',(50.5,311.1,62.9));
#792=CARTESIAN_POINT('',(59.4,311.1,62.9));
#793=CARTESIAN_POINT('',(266.,327.9,62.9));
#794=CARTESIAN_POINT('',(274.9,327.9,62.9));
#795=CARTESIAN_POINT('',(282.8,112.4,62.9));
#796=CARTESIAN_POINT('',(291.7,112.4,62.9));
#797=CARTESIAN_POINT('',(166.65,168.5,62.9));
#798=CARTESIAN_POINT('',(71.4,168.5,62.9));
#799=CARTESIAN_POINT('',(192.2,168.5,62.9));
#800=CARTESIAN_POINT('',(71.4,175.4,62.9));
#801=CARTESIAN_POINT('',(64.5,175.4,62.9));
#802=CARTESIAN_POINT('',(64.5,211.75,62.9));
#803=CARTESIAN_POINT('',(64.5,350.8,62.9));
#804=CARTESIAN_POINT('',(71.4,350.8,62.9));
#805=CARTESIAN_POINT('',(71.4,357.7,62.9));
#806=CARTESIAN_POINT('',(166.65,357.7,62.9));
#807=CARTESIAN_POINT('',(192.2,357.7,62.9));
#808=CARTESIAN_POINT('',(192.2,350.8,62.9));
#809=CARTESIAN_POINT('',(199.1,350.8,62.9));
#810=CARTESIAN_POINT('',(199.1,211.75,62.9));
#811=CARTESIAN_POINT('',(199.1,175.4,62.9));
#812=CARTESIAN_POINT('',(192.2,175.4,62.9));
#813=CARTESIAN_POINT('',(166.65,0.,62.9));
#814=CARTESIAN_POINT('',(330.6,0.,62.9));
#815=CARTESIAN_POINT('',(0.,0.,62.9));
#816=CARTESIAN_POINT('',(330.6,211.75,62.9));
#817=CARTESIAN_POINT('',(330.6,423.5,62.9));
#818=CARTESIAN_POINT('',(166.65,423.5,62.9));
#819=CARTESIAN_POINT('',(0.,423.5,62.9));
#820=CARTESIAN_POINT('',(0.,211.75,62.9));
#821=CARTESIAN_POINT('',(166.65,211.75,62.9));
#822=CARTESIAN_POINT('',(333.3,0.,0.));
#823=CARTESIAN_POINT('',(333.3,0.,0.));
#824=CARTESIAN_POINT('',(333.3,0.,60.2));
#825=CARTESIAN_POINT('',(280.075000000001,0.,113.425));
#826=CARTESIAN_POINT('',(0.,0.,0.));
#827=CARTESIAN_POINT('',(0.,0.,0.));
#828=CARTESIAN_POINT('',(166.65,0.,0.));
#829=CARTESIAN_POINT('',(166.65,0.,0.));
#830=CARTESIAN_POINT('',(0.,423.5,0.));
#831=CARTESIAN_POINT('',(0.,423.5,0.));
#832=CARTESIAN_POINT('',(0.,211.75,0.));
#833=CARTESIAN_POINT('',(0.,211.75,0.));
#834=CARTESIAN_POINT('',(280.075000000001,423.5,113.425));
#835=CARTESIAN_POINT('',(333.3,423.5,60.2));
#836=CARTESIAN_POINT('',(333.3,423.5,0.));
#837=CARTESIAN_POINT('',(333.3,423.5,0.));
#838=CARTESIAN_POINT('',(166.65,423.5,0.));
#839=CARTESIAN_POINT('',(166.65,423.5,0.));
#840=CARTESIAN_POINT('',(333.3,211.75,0.));
#841=CARTESIAN_POINT('',(166.65,211.75,0.));
#842=CARTESIAN_POINT('',(333.3,211.75,60.2));
#843=CARTESIAN_POINT('',(333.3,211.75,0.));
#844=CARTESIAN_POINT('',(333.3,211.75,60.2));
#845=CARTESIAN_POINT('',(131.8,168.5,53.6));
#846=CARTESIAN_POINT('',(192.2,168.5,53.6));
#847=CARTESIAN_POINT('',(71.4,168.5,53.6));
#848=CARTESIAN_POINT('',(71.4,168.5,62.9));
#849=CARTESIAN_POINT('',(192.2,168.5,53.6));
#850=CARTESIAN_POINT('',(131.8,168.5,53.6));
#851=CARTESIAN_POINT('',(64.5,175.4,53.6));
#852=CARTESIAN_POINT('',(64.5,175.4,53.6));
#853=CARTESIAN_POINT('',(64.5,263.1,53.6));
#854=CARTESIAN_POINT('',(64.5,350.8,53.6));
#855=CARTESIAN_POINT('',(64.5,350.8,62.9));
#856=CARTESIAN_POINT('',(64.5,263.1,53.6));
#857=CARTESIAN_POINT('',(131.8,357.7,53.6));
#858=CARTESIAN_POINT('',(71.4,357.7,53.6));
#859=CARTESIAN_POINT('',(192.2,357.7,53.6));
#860=CARTESIAN_POINT('',(192.2,357.7,62.9));
#861=CARTESIAN_POINT('',(71.4,357.7,53.6));
#862=CARTESIAN_POINT('',(131.8,357.7,53.6));
#863=CARTESIAN_POINT('',(131.8,310.7,53.6));
#864=CARTESIAN_POINT('',(91.6,310.7,53.6));
#865=CARTESIAN_POINT('',(159.3,310.7,53.6));
#866=CARTESIAN_POINT('',(159.3,305.,53.6));
#867=CARTESIAN_POINT('',(165.,305.,53.6));
#868=CARTESIAN_POINT('',(165.,263.1,53.6));
#869=CARTESIAN_POINT('',(165.,217.6,53.6));
#870=CARTESIAN_POINT('',(159.3,217.6,53.6));
#871=CARTESIAN_POINT('',(159.3,211.9,53.6));
#872=CARTESIAN_POINT('',(131.8,211.9,53.6));
#873=CARTESIAN_POINT('',(91.6,211.9,53.6));
#874=CARTESIAN_POINT('',(91.6,217.6,53.6));
#875=CARTESIAN_POINT('',(85.9,217.6,53.6));
#876=CARTESIAN_POINT('',(85.9,263.1,53.6));
#877=CARTESIAN_POINT('',(85.9,305.,53.6));
#878=CARTESIAN_POINT('',(91.6,305.,53.6));
#879=CARTESIAN_POINT('',(71.4,175.4,53.6));
#880=CARTESIAN_POINT('',(192.2,175.4,53.6));
#881=CARTESIAN_POINT('',(199.1,175.4,53.6));
#882=CARTESIAN_POINT('',(199.1,263.1,53.6));
#883=CARTESIAN_POINT('',(199.1,350.8,53.6));
#884=CARTESIAN_POINT('',(192.2,350.8,53.6));
#885=CARTESIAN_POINT('',(71.4,350.8,53.6));
#886=CARTESIAN_POINT('',(131.8,263.1,53.6));
#887=CARTESIAN_POINT('',(199.1,175.4,62.9));
#888=CARTESIAN_POINT('',(199.1,350.8,53.6));
#889=CARTESIAN_POINT('',(199.1,263.1,53.6));
#890=CARTESIAN_POINT('',(71.4,175.4,53.6));
#891=CARTESIAN_POINT('',(192.2,175.4,53.6));
#892=CARTESIAN_POINT('',(192.2,350.8,53.6));
#893=CARTESIAN_POINT('',(71.4,350.8,53.6));
#894=CARTESIAN_POINT('',(125.45,211.9,46.9));
#895=CARTESIAN_POINT('',(159.3,211.9,46.9));
#896=CARTESIAN_POINT('',(91.6,211.9,46.9));
#897=CARTESIAN_POINT('',(91.6,211.9,53.6));
#898=CARTESIAN_POINT('',(159.3,211.9,46.9));
#899=CARTESIAN_POINT('',(125.45,211.9,46.9));
#900=CARTESIAN_POINT('',(85.9,217.6,46.9));
#901=CARTESIAN_POINT('',(85.9,217.6,46.9));
#902=CARTESIAN_POINT('',(85.9,261.3,46.9));
#903=CARTESIAN_POINT('',(85.9,305.,46.9));
#904=CARTESIAN_POINT('',(85.9,305.,53.6));
#905=CARTESIAN_POINT('',(85.9,261.3,46.9));
#906=CARTESIAN_POINT('',(125.45,310.7,46.9));
#907=CARTESIAN_POINT('',(91.6,310.7,46.9));
#908=CARTESIAN_POINT('',(159.3,310.7,46.9));
#909=CARTESIAN_POINT('',(159.3,310.7,53.6));
#910=CARTESIAN_POINT('',(91.6,310.7,46.9));
#911=CARTESIAN_POINT('',(125.45,310.7,46.9));
#912=CARTESIAN_POINT('',(165.,261.3,46.9));
#913=CARTESIAN_POINT('',(165.,305.,46.9));
#914=CARTESIAN_POINT('',(165.,217.6,46.9));
#915=CARTESIAN_POINT('',(165.,217.6,53.6));
#916=CARTESIAN_POINT('',(165.,305.,46.9));
#917=CARTESIAN_POINT('',(165.,261.3,46.9));
#918=CARTESIAN_POINT('',(91.6,217.6,46.9));
#919=CARTESIAN_POINT('',(159.3,217.6,46.9));
#920=CARTESIAN_POINT('',(159.3,305.,46.9));
#921=CARTESIAN_POINT('',(91.6,305.,46.9));
#922=CARTESIAN_POINT('',(125.45,261.3,46.9));
#923=CARTESIAN_POINT('',(91.6,217.6,46.9));
#924=CARTESIAN_POINT('',(159.3,217.6,46.9));
#925=CARTESIAN_POINT('',(159.3,305.,46.9));
#926=CARTESIAN_POINT('',(91.6,305.,46.9));
#927=CARTESIAN_POINT('',(282.8,112.4,25.5));
#928=CARTESIAN_POINT('',(291.7,112.4,25.5));
#929=CARTESIAN_POINT('',(282.8,112.4,25.5));
#930=CARTESIAN_POINT('',(282.8,112.4,62.95));
#931=CARTESIAN_POINT('',(266.,327.9,22.5));
#932=CARTESIAN_POINT('',(274.9,327.9,22.5));
#933=CARTESIAN_POINT('',(266.,327.9,22.5));
#934=CARTESIAN_POINT('',(266.,327.9,62.95));
#935=CARTESIAN_POINT('',(50.5,311.1,36.2));
#936=CARTESIAN_POINT('',(59.4,311.1,36.2));
#937=CARTESIAN_POINT('',(50.5,311.1,36.2));
#938=CARTESIAN_POINT('',(50.5,311.1,62.95));
#939=CARTESIAN_POINT('',(67.3,95.6,40.9));
#940=CARTESIAN_POINT('',(76.2,95.6,40.9));
#941=CARTESIAN_POINT('',(67.3,95.6,40.9));
#942=CARTESIAN_POINT('',(67.3,95.6,62.95));
#943=MECHANICAL_DESIGN_GEOMETRIC_PRESENTATION_REPRESENTATION('',(#24),#944);
#944=(
GEOMETRIC_REPRESENTATION_CONTEXT(3)
GLOBAL_UNCERTAINTY_ASSIGNED_CONTEXT((#945))
GLOBAL_UNIT_ASSIGNED_CONTEXT((#951,#947,#946))
REPRESENTATION_CONTEXT('featured_part_09133','TOP_LEVEL_ASSEMBLY_PART')
);
#945=UNCERTAINTY_MEASURE_WITH_UNIT(LENGTH_MEASURE(2.E-5),#951,
'DISTANCE_ACCURACY_VALUE','Maximum Tolerance applied to model');
#946=(
NAMED_UNIT(*)
SI_UNIT($,.STERADIAN.)
SOLID_ANGLE_UNIT()
);
#947=(
CONVERSION_BASED_UNIT('DEGREE',#949)
NAMED_UNIT(#948)
PLANE_ANGLE_UNIT()
);
#948=DIMENSIONAL_EXPONENTS(0.,0.,0.,0.,0.,0.,0.);
#949=PLANE_ANGLE_MEASURE_WITH_UNIT(PLANE_ANGLE_MEASURE(0.0174532925),#950);
#950=(
NAMED_UNIT(*)
PLANE_ANGLE_UNIT()
SI_UNIT($,.RADIAN.)
);
#951=(
LENGTH_UNIT()
NAMED_UNIT(*)
SI_UNIT(.MILLI.,.METRE.)
);
ENDSEC;
END-ISO-10303-21;
