ISO-10303-21;
HEADER;
/* Generated by software containing ST-Developer
 * from STEP Tools, Inc. (www.steptools.com) 
 */
/* OPTION: using custom schema-name function */

FILE_DESCRIPTION(
/* description */ (''),
/* implementation_level */ '2;1');

FILE_NAME(
/* name */ 'featured_part_00566.stp',
/* time_stamp */ '2026-07-01T13:07:33-04:00',
/* author */ (''),
/* organization */ (''),
/* preprocessor_version */ 'ST-DEVELOPER v20.1',
/* originating_system */ 'SIEMENS PLM Software NX2512.6002',
/* authorisation */ '');

FILE_SCHEMA (('AUTOMOTIVE_DESIGN { 1 0 10303 214 3 1 1 1 }'));
ENDSEC;

DATA;
#10=SHAPE_REPRESENTATION_RELATIONSHIP('None',
'relationship between featured_part_00566-None and featured_part_00566
-None',#22,#11);
#11=ADVANCED_BREP_SHAPE_REPRESENTATION('featured_part_00566-None',(#32),
#695);
#12=SHAPE_DEFINITION_REPRESENTATION(#13,#22);
#13=PRODUCT_DEFINITION_SHAPE('','',#14);
#14=PRODUCT_DEFINITION(' ','',#16,#15);
#15=PRODUCT_DEFINITION_CONTEXT('part definition',#21,'design');
#16=PRODUCT_DEFINITION_FORMATION_WITH_SPECIFIED_SOURCE(' ',' ',#18,
 .NOT_KNOWN.);
#17=PRODUCT_RELATED_PRODUCT_CATEGORY('part','',(#18));
#18=PRODUCT('featured_part_00566','featured_part_00566',' ',(#19));
#19=PRODUCT_CONTEXT(' ',#21,'mechanical');
#20=APPLICATION_PROTOCOL_DEFINITION('international standard',
'automotive_design',2010,#21);
#21=APPLICATION_CONTEXT(
'core data for automotive mechanical design processes');
#22=SHAPE_REPRESENTATION('featured_part_00566-None',(#436),#695);
#23=PRESENTATION_LAYER_ASSIGNMENT('1','Layer 1',(#32));
#24=STYLED_ITEM('',(#25),#32);
#25=PRESENTATION_STYLE_ASSIGNMENT((#26));
#26=SURFACE_STYLE_USAGE(.BOTH.,#27);
#27=SURFACE_SIDE_STYLE('',(#28));
#28=SURFACE_STYLE_FILL_AREA(#29);
#29=FILL_AREA_STYLE('',(#30));
#30=FILL_AREA_STYLE_COLOUR('',#31);
#31=COLOUR_RGB('medium steel',0.611764705882353,0.658823529411765,0.670588235294118);
#32=MANIFOLD_SOLID_BREP('',#33);
#33=CLOSED_SHELL('',(#50,#51,#52,#53,#54,#55,#56,#57,#58,#59,#60,#61,#62,
#63,#64,#65,#66,#67,#68,#69,#70,#71));
#34=CYLINDRICAL_SURFACE('',#455,9.1);
#35=CYLINDRICAL_SURFACE('',#462,3.6);
#36=CYLINDRICAL_SURFACE('',#463,3.6);
#37=CYLINDRICAL_SURFACE('',#466,3.65);
#38=FACE_BOUND('',#111,.T.);
#39=FACE_BOUND('',#112,.T.);
#40=FACE_BOUND('',#132,.T.);
#41=FACE_BOUND('',#133,.T.);
#42=CIRCLE('',#438,3.65);
#43=CIRCLE('',#439,3.6);
#44=CIRCLE('',#440,3.6);
#45=CIRCLE('',#441,9.1);
#46=CIRCLE('',#452,9.1);
#47=CIRCLE('',#459,3.6);
#48=CIRCLE('',#460,3.6);
#49=CIRCLE('',#464,3.65);
#50=ADVANCED_FACE('',(#90),#72,.F.);
#51=ADVANCED_FACE('',(#38,#39),#73,.T.);
#52=ADVANCED_FACE('',(#91),#74,.T.);
#53=ADVANCED_FACE('',(#92),#75,.T.);
#54=ADVANCED_FACE('',(#93),#76,.T.);
#55=ADVANCED_FACE('',(#94),#77,.T.);
#56=ADVANCED_FACE('',(#95),#78,.T.);
#57=ADVANCED_FACE('',(#96),#79,.F.);
#58=ADVANCED_FACE('',(#97),#80,.F.);
#59=ADVANCED_FACE('',(#98),#81,.F.);
#60=ADVANCED_FACE('',(#99),#82,.F.);
#61=ADVANCED_FACE('',(#100),#83,.F.);
#62=ADVANCED_FACE('',(#101),#84,.F.);
#63=ADVANCED_FACE('',(#102),#34,.F.);
#64=ADVANCED_FACE('',(#103),#85,.F.);
#65=ADVANCED_FACE('',(#104),#86,.F.);
#66=ADVANCED_FACE('',(#105),#87,.F.);
#67=ADVANCED_FACE('',(#106),#88,.F.);
#68=ADVANCED_FACE('',(#107),#35,.F.);
#69=ADVANCED_FACE('',(#108),#36,.F.);
#70=ADVANCED_FACE('',(#109),#89,.F.);
#71=ADVANCED_FACE('',(#40,#41),#37,.F.);
#72=PLANE('',#437);
#73=PLANE('',#442);
#74=PLANE('',#443);
#75=PLANE('',#444);
#76=PLANE('',#445);
#77=PLANE('',#446);
#78=PLANE('',#447);
#79=PLANE('',#448);
#80=PLANE('',#449);
#81=PLANE('',#450);
#82=PLANE('',#451);
#83=PLANE('',#453);
#84=PLANE('',#454);
#85=PLANE('',#456);
#86=PLANE('',#457);
#87=PLANE('',#458);
#88=PLANE('',#461);
#89=PLANE('',#465);
#90=FACE_OUTER_BOUND('',#110,.T.);
#91=FACE_OUTER_BOUND('',#113,.T.);
#92=FACE_OUTER_BOUND('',#114,.T.);
#93=FACE_OUTER_BOUND('',#115,.T.);
#94=FACE_OUTER_BOUND('',#116,.T.);
#95=FACE_OUTER_BOUND('',#117,.T.);
#96=FACE_OUTER_BOUND('',#118,.T.);
#97=FACE_OUTER_BOUND('',#119,.T.);
#98=FACE_OUTER_BOUND('',#120,.T.);
#99=FACE_OUTER_BOUND('',#121,.T.);
#100=FACE_OUTER_BOUND('',#122,.T.);
#101=FACE_OUTER_BOUND('',#123,.T.);
#102=FACE_OUTER_BOUND('',#124,.T.);
#103=FACE_OUTER_BOUND('',#125,.T.);
#104=FACE_OUTER_BOUND('',#126,.T.);
#105=FACE_OUTER_BOUND('',#127,.T.);
#106=FACE_OUTER_BOUND('',#128,.T.);
#107=FACE_OUTER_BOUND('',#129,.T.);
#108=FACE_OUTER_BOUND('',#130,.T.);
#109=FACE_OUTER_BOUND('',#131,.T.);
#110=EDGE_LOOP('',(#134,#135,#136,#137));
#111=EDGE_LOOP('',(#138));
#112=EDGE_LOOP('',(#139,#140,#141,#142,#143,#144,#145,#146,#147,#148,#149,
#150,#151));
#113=EDGE_LOOP('',(#152,#153,#154,#155,#156,#157));
#114=EDGE_LOOP('',(#158,#159,#160,#161,#162,#163));
#115=EDGE_LOOP('',(#164,#165,#166,#167,#168,#169));
#116=EDGE_LOOP('',(#170,#171,#172,#173));
#117=EDGE_LOOP('',(#174,#175,#176,#177,#178,#179,#180,#181,#182));
#118=EDGE_LOOP('',(#183,#184,#185,#186,#187));
#119=EDGE_LOOP('',(#188,#189,#190,#191));
#120=EDGE_LOOP('',(#192,#193,#194,#195));
#121=EDGE_LOOP('',(#196,#197,#198,#199,#200));
#122=EDGE_LOOP('',(#201,#202,#203,#204,#205));
#123=EDGE_LOOP('',(#206,#207,#208,#209,#210));
#124=EDGE_LOOP('',(#211,#212,#213,#214));
#125=EDGE_LOOP('',(#215,#216,#217,#218,#219));
#126=EDGE_LOOP('',(#220,#221,#222,#223));
#127=EDGE_LOOP('',(#224,#225,#226,#227,#228));
#128=EDGE_LOOP('',(#229,#230,#231,#232,#233,#234));
#129=EDGE_LOOP('',(#235,#236,#237,#238));
#130=EDGE_LOOP('',(#239,#240,#241,#242));
#131=EDGE_LOOP('',(#243));
#132=EDGE_LOOP('',(#244));
#133=EDGE_LOOP('',(#245));
#134=ORIENTED_EDGE('',*,*,#284,.F.);
#135=ORIENTED_EDGE('',*,*,#285,.F.);
#136=ORIENTED_EDGE('',*,*,#286,.F.);
#137=ORIENTED_EDGE('',*,*,#287,.F.);
#138=ORIENTED_EDGE('',*,*,#288,.F.);
#139=ORIENTED_EDGE('',*,*,#289,.F.);
#140=ORIENTED_EDGE('',*,*,#290,.T.);
#141=ORIENTED_EDGE('',*,*,#291,.F.);
#142=ORIENTED_EDGE('',*,*,#292,.T.);
#143=ORIENTED_EDGE('',*,*,#293,.F.);
#144=ORIENTED_EDGE('',*,*,#294,.T.);
#145=ORIENTED_EDGE('',*,*,#295,.T.);
#146=ORIENTED_EDGE('',*,*,#296,.F.);
#147=ORIENTED_EDGE('',*,*,#297,.T.);
#148=ORIENTED_EDGE('',*,*,#298,.F.);
#149=ORIENTED_EDGE('',*,*,#299,.T.);
#150=ORIENTED_EDGE('',*,*,#300,.F.);
#151=ORIENTED_EDGE('',*,*,#285,.T.);
#152=ORIENTED_EDGE('',*,*,#300,.T.);
#153=ORIENTED_EDGE('',*,*,#301,.T.);
#154=ORIENTED_EDGE('',*,*,#302,.F.);
#155=ORIENTED_EDGE('',*,*,#303,.T.);
#156=ORIENTED_EDGE('',*,*,#304,.T.);
#157=ORIENTED_EDGE('',*,*,#286,.T.);
#158=ORIENTED_EDGE('',*,*,#305,.F.);
#159=ORIENTED_EDGE('',*,*,#306,.F.);
#160=ORIENTED_EDGE('',*,*,#307,.F.);
#161=ORIENTED_EDGE('',*,*,#308,.T.);
#162=ORIENTED_EDGE('',*,*,#302,.T.);
#163=ORIENTED_EDGE('',*,*,#309,.T.);
#164=ORIENTED_EDGE('',*,*,#310,.F.);
#165=ORIENTED_EDGE('',*,*,#311,.T.);
#166=ORIENTED_EDGE('',*,*,#312,.T.);
#167=ORIENTED_EDGE('',*,*,#313,.F.);
#168=ORIENTED_EDGE('',*,*,#314,.T.);
#169=ORIENTED_EDGE('',*,*,#307,.T.);
#170=ORIENTED_EDGE('',*,*,#315,.F.);
#171=ORIENTED_EDGE('',*,*,#303,.F.);
#172=ORIENTED_EDGE('',*,*,#308,.F.);
#173=ORIENTED_EDGE('',*,*,#314,.F.);
#174=ORIENTED_EDGE('',*,*,#316,.T.);
#175=ORIENTED_EDGE('',*,*,#287,.T.);
#176=ORIENTED_EDGE('',*,*,#304,.F.);
#177=ORIENTED_EDGE('',*,*,#315,.T.);
#178=ORIENTED_EDGE('',*,*,#313,.T.);
#179=ORIENTED_EDGE('',*,*,#317,.T.);
#180=ORIENTED_EDGE('',*,*,#318,.T.);
#181=ORIENTED_EDGE('',*,*,#319,.F.);
#182=ORIENTED_EDGE('',*,*,#320,.F.);
#183=ORIENTED_EDGE('',*,*,#321,.F.);
#184=ORIENTED_EDGE('',*,*,#295,.F.);
#185=ORIENTED_EDGE('',*,*,#322,.T.);
#186=ORIENTED_EDGE('',*,*,#317,.F.);
#187=ORIENTED_EDGE('',*,*,#312,.F.);
#188=ORIENTED_EDGE('',*,*,#323,.F.);
#189=ORIENTED_EDGE('',*,*,#318,.F.);
#190=ORIENTED_EDGE('',*,*,#322,.F.);
#191=ORIENTED_EDGE('',*,*,#294,.F.);
#192=ORIENTED_EDGE('',*,*,#324,.F.);
#193=ORIENTED_EDGE('',*,*,#309,.F.);
#194=ORIENTED_EDGE('',*,*,#301,.F.);
#195=ORIENTED_EDGE('',*,*,#299,.F.);
#196=ORIENTED_EDGE('',*,*,#298,.T.);
#197=ORIENTED_EDGE('',*,*,#325,.T.);
#198=ORIENTED_EDGE('',*,*,#326,.T.);
#199=ORIENTED_EDGE('',*,*,#305,.T.);
#200=ORIENTED_EDGE('',*,*,#324,.T.);
#201=ORIENTED_EDGE('',*,*,#326,.F.);
#202=ORIENTED_EDGE('',*,*,#327,.T.);
#203=ORIENTED_EDGE('',*,*,#328,.F.);
#204=ORIENTED_EDGE('',*,*,#310,.T.);
#205=ORIENTED_EDGE('',*,*,#306,.T.);
#206=ORIENTED_EDGE('',*,*,#328,.T.);
#207=ORIENTED_EDGE('',*,*,#329,.T.);
#208=ORIENTED_EDGE('',*,*,#296,.T.);
#209=ORIENTED_EDGE('',*,*,#321,.T.);
#210=ORIENTED_EDGE('',*,*,#311,.F.);
#211=ORIENTED_EDGE('',*,*,#297,.F.);
#212=ORIENTED_EDGE('',*,*,#329,.F.);
#213=ORIENTED_EDGE('',*,*,#327,.F.);
#214=ORIENTED_EDGE('',*,*,#325,.F.);
#215=ORIENTED_EDGE('',*,*,#330,.T.);
#216=ORIENTED_EDGE('',*,*,#331,.T.);
#217=ORIENTED_EDGE('',*,*,#289,.T.);
#218=ORIENTED_EDGE('',*,*,#284,.T.);
#219=ORIENTED_EDGE('',*,*,#316,.F.);
#220=ORIENTED_EDGE('',*,*,#291,.T.);
#221=ORIENTED_EDGE('',*,*,#332,.T.);
#222=ORIENTED_EDGE('',*,*,#333,.T.);
#223=ORIENTED_EDGE('',*,*,#334,.T.);
#224=ORIENTED_EDGE('',*,*,#293,.T.);
#225=ORIENTED_EDGE('',*,*,#335,.T.);
#226=ORIENTED_EDGE('',*,*,#336,.T.);
#227=ORIENTED_EDGE('',*,*,#319,.T.);
#228=ORIENTED_EDGE('',*,*,#323,.T.);
#229=ORIENTED_EDGE('',*,*,#333,.F.);
#230=ORIENTED_EDGE('',*,*,#337,.T.);
#231=ORIENTED_EDGE('',*,*,#330,.F.);
#232=ORIENTED_EDGE('',*,*,#320,.T.);
#233=ORIENTED_EDGE('',*,*,#336,.F.);
#234=ORIENTED_EDGE('',*,*,#338,.T.);
#235=ORIENTED_EDGE('',*,*,#290,.F.);
#236=ORIENTED_EDGE('',*,*,#331,.F.);
#237=ORIENTED_EDGE('',*,*,#337,.F.);
#238=ORIENTED_EDGE('',*,*,#332,.F.);
#239=ORIENTED_EDGE('',*,*,#292,.F.);
#240=ORIENTED_EDGE('',*,*,#334,.F.);
#241=ORIENTED_EDGE('',*,*,#338,.F.);
#242=ORIENTED_EDGE('',*,*,#335,.F.);
#243=ORIENTED_EDGE('',*,*,#339,.F.);
#244=ORIENTED_EDGE('',*,*,#288,.T.);
#245=ORIENTED_EDGE('',*,*,#339,.T.);
#246=VERTEX_POINT('',#579);
#247=VERTEX_POINT('',#580);
#248=VERTEX_POINT('',#582);
#249=VERTEX_POINT('',#584);
#250=VERTEX_POINT('',#588);
#251=VERTEX_POINT('',#590);
#252=VERTEX_POINT('',#592);
#253=VERTEX_POINT('',#594);
#254=VERTEX_POINT('',#596);
#255=VERTEX_POINT('',#598);
#256=VERTEX_POINT('',#600);
#257=VERTEX_POINT('',#602);
#258=VERTEX_POINT('',#604);
#259=VERTEX_POINT('',#606);
#260=VERTEX_POINT('',#608);
#261=VERTEX_POINT('',#610);
#262=VERTEX_POINT('',#614);
#263=VERTEX_POINT('',#616);
#264=VERTEX_POINT('',#618);
#265=VERTEX_POINT('',#622);
#266=VERTEX_POINT('',#623);
#267=VERTEX_POINT('',#625);
#268=VERTEX_POINT('',#627);
#269=VERTEX_POINT('',#632);
#270=VERTEX_POINT('',#634);
#271=VERTEX_POINT('',#636);
#272=VERTEX_POINT('',#638);
#273=VERTEX_POINT('',#644);
#274=VERTEX_POINT('',#646);
#275=VERTEX_POINT('',#648);
#276=VERTEX_POINT('',#650);
#277=VERTEX_POINT('',#661);
#278=VERTEX_POINT('',#665);
#279=VERTEX_POINT('',#672);
#280=VERTEX_POINT('',#676);
#281=VERTEX_POINT('',#678);
#282=VERTEX_POINT('',#682);
#283=VERTEX_POINT('',#691);
#284=EDGE_CURVE('',#246,#247,#340,.T.);
#285=EDGE_CURVE('',#248,#246,#341,.T.);
#286=EDGE_CURVE('',#249,#248,#342,.T.);
#287=EDGE_CURVE('',#247,#249,#343,.T.);
#288=EDGE_CURVE('',#250,#250,#42,.T.);
#289=EDGE_CURVE('',#251,#246,#344,.T.);
#290=EDGE_CURVE('',#251,#252,#43,.T.);
#291=EDGE_CURVE('',#253,#252,#345,.T.);
#292=EDGE_CURVE('',#253,#254,#44,.T.);
#293=EDGE_CURVE('',#255,#254,#346,.T.);
#294=EDGE_CURVE('',#255,#256,#347,.T.);
#295=EDGE_CURVE('',#256,#257,#348,.T.);
#296=EDGE_CURVE('',#258,#257,#349,.T.);
#297=EDGE_CURVE('',#258,#259,#45,.T.);
#298=EDGE_CURVE('',#260,#259,#350,.T.);
#299=EDGE_CURVE('',#260,#261,#351,.T.);
#300=EDGE_CURVE('',#248,#261,#352,.T.);
#301=EDGE_CURVE('',#261,#262,#353,.T.);
#302=EDGE_CURVE('',#263,#262,#354,.T.);
#303=EDGE_CURVE('',#263,#264,#355,.T.);
#304=EDGE_CURVE('',#264,#249,#356,.T.);
#305=EDGE_CURVE('',#265,#266,#357,.T.);
#306=EDGE_CURVE('',#267,#265,#358,.T.);
#307=EDGE_CURVE('',#268,#267,#359,.T.);
#308=EDGE_CURVE('',#268,#263,#360,.T.);
#309=EDGE_CURVE('',#262,#266,#361,.T.);
#310=EDGE_CURVE('',#269,#267,#362,.T.);
#311=EDGE_CURVE('',#269,#270,#363,.T.);
#312=EDGE_CURVE('',#270,#271,#364,.T.);
#313=EDGE_CURVE('',#272,#271,#365,.T.);
#314=EDGE_CURVE('',#272,#268,#366,.T.);
#315=EDGE_CURVE('',#264,#272,#367,.T.);
#316=EDGE_CURVE('',#273,#247,#368,.T.);
#317=EDGE_CURVE('',#271,#274,#369,.T.);
#318=EDGE_CURVE('',#274,#275,#370,.T.);
#319=EDGE_CURVE('',#276,#275,#371,.T.);
#320=EDGE_CURVE('',#273,#276,#372,.T.);
#321=EDGE_CURVE('',#257,#270,#373,.T.);
#322=EDGE_CURVE('',#256,#274,#374,.T.);
#323=EDGE_CURVE('',#275,#255,#375,.T.);
#324=EDGE_CURVE('',#266,#260,#376,.T.);
#325=EDGE_CURVE('',#259,#277,#377,.T.);
#326=EDGE_CURVE('',#277,#265,#378,.T.);
#327=EDGE_CURVE('',#277,#278,#46,.T.);
#328=EDGE_CURVE('',#269,#278,#379,.T.);
#329=EDGE_CURVE('',#278,#258,#380,.T.);
#330=EDGE_CURVE('',#273,#279,#381,.T.);
#331=EDGE_CURVE('',#279,#251,#382,.T.);
#332=EDGE_CURVE('',#252,#280,#383,.T.);
#333=EDGE_CURVE('',#280,#281,#384,.T.);
#334=EDGE_CURVE('',#281,#253,#385,.T.);
#335=EDGE_CURVE('',#254,#282,#386,.T.);
#336=EDGE_CURVE('',#282,#276,#387,.T.);
#337=EDGE_CURVE('',#280,#279,#47,.T.);
#338=EDGE_CURVE('',#282,#281,#48,.T.);
#339=EDGE_CURVE('',#283,#283,#49,.T.);
#340=LINE('',#578,#388);
#341=LINE('',#581,#389);
#342=LINE('',#583,#390);
#343=LINE('',#585,#391);
#344=LINE('',#589,#392);
#345=LINE('',#593,#393);
#346=LINE('',#597,#394);
#347=LINE('',#599,#395);
#348=LINE('',#601,#396);
#349=LINE('',#603,#397);
#350=LINE('',#607,#398);
#351=LINE('',#609,#399);
#352=LINE('',#611,#400);
#353=LINE('',#613,#401);
#354=LINE('',#615,#402);
#355=LINE('',#617,#403);
#356=LINE('',#619,#404);
#357=LINE('',#621,#405);
#358=LINE('',#624,#406);
#359=LINE('',#626,#407);
#360=LINE('',#628,#408);
#361=LINE('',#629,#409);
#362=LINE('',#631,#410);
#363=LINE('',#633,#411);
#364=LINE('',#635,#412);
#365=LINE('',#637,#413);
#366=LINE('',#639,#414);
#367=LINE('',#641,#415);
#368=LINE('',#643,#416);
#369=LINE('',#645,#417);
#370=LINE('',#647,#418);
#371=LINE('',#649,#419);
#372=LINE('',#651,#420);
#373=LINE('',#653,#421);
#374=LINE('',#654,#422);
#375=LINE('',#656,#423);
#376=LINE('',#658,#424);
#377=LINE('',#660,#425);
#378=LINE('',#662,#426);
#379=LINE('',#666,#427);
#380=LINE('',#668,#428);
#381=LINE('',#671,#429);
#382=LINE('',#673,#430);
#383=LINE('',#675,#431);
#384=LINE('',#677,#432);
#385=LINE('',#679,#433);
#386=LINE('',#681,#434);
#387=LINE('',#683,#435);
#388=VECTOR('',#469,1.);
#389=VECTOR('',#470,1.);
#390=VECTOR('',#471,1.);
#391=VECTOR('',#472,1.);
#392=VECTOR('',#477,1.);
#393=VECTOR('',#480,1.);
#394=VECTOR('',#483,1.);
#395=VECTOR('',#484,1.);
#396=VECTOR('',#485,1.);
#397=VECTOR('',#486,1.);
#398=VECTOR('',#489,1.);
#399=VECTOR('',#490,1.);
#400=VECTOR('',#491,1.);
#401=VECTOR('',#494,1.);
#402=VECTOR('',#495,1.);
#403=VECTOR('',#496,1.);
#404=VECTOR('',#497,1.);
#405=VECTOR('',#500,1.);
#406=VECTOR('',#501,1.);
#407=VECTOR('',#502,1.);
#408=VECTOR('',#503,1.);
#409=VECTOR('',#504,1.);
#410=VECTOR('',#507,1.);
#411=VECTOR('',#508,1.);
#412=VECTOR('',#509,1.);
#413=VECTOR('',#510,1.);
#414=VECTOR('',#511,1.);
#415=VECTOR('',#514,1.);
#416=VECTOR('',#517,1.);
#417=VECTOR('',#518,1.);
#418=VECTOR('',#519,1.);
#419=VECTOR('',#520,1.);
#420=VECTOR('',#521,1.);
#421=VECTOR('',#524,1.);
#422=VECTOR('',#525,1.);
#423=VECTOR('',#528,1.);
#424=VECTOR('',#531,1.);
#425=VECTOR('',#534,1.);
#426=VECTOR('',#535,1.);
#427=VECTOR('',#540,1.);
#428=VECTOR('',#543,1.);
#429=VECTOR('',#548,1.);
#430=VECTOR('',#549,1.);
#431=VECTOR('',#552,1.);
#432=VECTOR('',#553,1.);
#433=VECTOR('',#554,1.);
#434=VECTOR('',#557,1.);
#435=VECTOR('',#558,1.);
#436=AXIS2_PLACEMENT_3D('',#577,#467,#468);
#437=AXIS2_PLACEMENT_3D('',#586,#473,#474);
#438=AXIS2_PLACEMENT_3D('',#587,#475,#476);
#439=AXIS2_PLACEMENT_3D('',#591,#478,#479);
#440=AXIS2_PLACEMENT_3D('',#595,#481,#482);
#441=AXIS2_PLACEMENT_3D('',#605,#487,#488);
#442=AXIS2_PLACEMENT_3D('',#612,#492,#493);
#443=AXIS2_PLACEMENT_3D('',#620,#498,#499);
#444=AXIS2_PLACEMENT_3D('',#630,#505,#506);
#445=AXIS2_PLACEMENT_3D('',#640,#512,#513);
#446=AXIS2_PLACEMENT_3D('',#642,#515,#516);
#447=AXIS2_PLACEMENT_3D('',#652,#522,#523);
#448=AXIS2_PLACEMENT_3D('',#655,#526,#527);
#449=AXIS2_PLACEMENT_3D('',#657,#529,#530);
#450=AXIS2_PLACEMENT_3D('',#659,#532,#533);
#451=AXIS2_PLACEMENT_3D('',#663,#536,#537);
#452=AXIS2_PLACEMENT_3D('',#664,#538,#539);
#453=AXIS2_PLACEMENT_3D('',#667,#541,#542);
#454=AXIS2_PLACEMENT_3D('',#669,#544,#545);
#455=AXIS2_PLACEMENT_3D('',#670,#546,#547);
#456=AXIS2_PLACEMENT_3D('',#674,#550,#551);
#457=AXIS2_PLACEMENT_3D('',#680,#555,#556);
#458=AXIS2_PLACEMENT_3D('',#684,#559,#560);
#459=AXIS2_PLACEMENT_3D('',#685,#561,#562);
#460=AXIS2_PLACEMENT_3D('',#686,#563,#564);
#461=AXIS2_PLACEMENT_3D('',#687,#565,#566);
#462=AXIS2_PLACEMENT_3D('',#688,#567,#568);
#463=AXIS2_PLACEMENT_3D('',#689,#569,#570);
#464=AXIS2_PLACEMENT_3D('',#690,#571,#572);
#465=AXIS2_PLACEMENT_3D('',#692,#573,#574);
#466=AXIS2_PLACEMENT_3D('',#693,#575,#576);
#467=DIRECTION('',(0.,0.,1.));
#468=DIRECTION('',(1.,0.,0.));
#469=DIRECTION('',(0.707106781186547,0.,-0.707106781186548));
#470=DIRECTION('',(0.,1.,0.));
#471=DIRECTION('',(-0.707106781186547,0.,0.707106781186548));
#472=DIRECTION('',(0.,-1.,0.));
#473=DIRECTION('',(-0.707106781186548,0.,-0.707106781186547));
#474=DIRECTION('',(0.,-1.,0.));
#475=DIRECTION('',(0.,0.,1.));
#476=DIRECTION('',(0.999999999999996,0.,0.));
#477=DIRECTION('',(1.,0.,0.));
#478=DIRECTION('',(0.,0.,-1.));
#479=DIRECTION('',(0.999999999999998,0.,0.));
#480=DIRECTION('',(0.,-1.,0.));
#481=DIRECTION('',(0.,0.,-1.));
#482=DIRECTION('',(0.999999999999998,0.,0.));
#483=DIRECTION('',(-1.,0.,0.));
#484=DIRECTION('',(0.,1.,0.));
#485=DIRECTION('',(-1.,0.,0.));
#486=DIRECTION('',(0.,1.,0.));
#487=DIRECTION('',(0.,0.,-1.));
#488=DIRECTION('',(1.,0.,0.));
#489=DIRECTION('',(1.,0.,0.));
#490=DIRECTION('',(0.,-1.,0.));
#491=DIRECTION('',(-1.,0.,0.));
#492=DIRECTION('',(0.,0.,1.));
#493=DIRECTION('',(1.,0.,0.));
#494=DIRECTION('',(-0.707106781186548,0.,-0.707106781186548));
#495=DIRECTION('',(0.,0.,1.));
#496=DIRECTION('',(1.,0.,0.));
#497=DIRECTION('',(0.,0.,1.));
#498=DIRECTION('',(0.,-1.,0.));
#499=DIRECTION('',(0.,0.,-1.));
#500=DIRECTION('',(0.,0.,1.));
#501=DIRECTION('',(0.,-1.,0.));
#502=DIRECTION('',(0.,0.,1.));
#503=DIRECTION('',(0.,-1.,0.));
#504=DIRECTION('',(0.,1.,0.));
#505=DIRECTION('',(-1.,0.,0.));
#506=DIRECTION('',(0.,0.,1.));
#507=DIRECTION('',(-1.,0.,0.));
#508=DIRECTION('',(0.,0.,1.));
#509=DIRECTION('',(1.,0.,0.));
#510=DIRECTION('',(0.,0.,1.));
#511=DIRECTION('',(-1.,0.,0.));
#512=DIRECTION('',(0.,1.,0.));
#513=DIRECTION('',(0.,0.,1.));
#514=DIRECTION('',(0.,1.,0.));
#515=DIRECTION('',(0.,0.,-1.));
#516=DIRECTION('',(-1.,0.,0.));
#517=DIRECTION('',(0.,0.,1.));
#518=DIRECTION('',(0.,-0.707106781186548,0.707106781186548));
#519=DIRECTION('',(0.,-1.,0.));
#520=DIRECTION('',(0.,0.,1.));
#521=DIRECTION('',(0.,1.,0.));
#522=DIRECTION('',(1.,0.,0.));
#523=DIRECTION('',(0.,0.,-1.));
#524=DIRECTION('',(0.,0.707106781186548,-0.707106781186548));
#525=DIRECTION('',(0.577350269189625,0.577350269189626,-0.577350269189626));
#526=DIRECTION('',(0.,-0.707106781186548,-0.707106781186548));
#527=DIRECTION('',(1.,0.,0.));
#528=DIRECTION('',(-0.707106781186547,0.,0.707106781186548));
#529=DIRECTION('',(-0.707106781186548,0.,-0.707106781186547));
#530=DIRECTION('',(0.,-1.,0.));
#531=DIRECTION('',(0.707106781186548,0.,0.707106781186548));
#532=DIRECTION('',(0.707106781186547,0.,-0.707106781186547));
#533=DIRECTION('',(0.,1.,0.));
#534=DIRECTION('',(0.,0.,-1.));
#535=DIRECTION('',(-1.,0.,0.));
#536=DIRECTION('',(0.,-1.,0.));
#537=DIRECTION('',(0.,0.,-1.));
#538=DIRECTION('',(0.,0.,1.));
#539=DIRECTION('',(-1.,0.,0.));
#540=DIRECTION('',(0.,-1.,0.));
#541=DIRECTION('',(0.,0.,-1.));
#542=DIRECTION('',(-1.,0.,0.));
#543=DIRECTION('',(0.,0.,1.));
#544=DIRECTION('',(1.,0.,0.));
#545=DIRECTION('',(0.,0.,-1.));
#546=DIRECTION('',(0.,0.,1.));
#547=DIRECTION('',(1.,0.,0.));
#548=DIRECTION('',(-1.,0.,0.));
#549=DIRECTION('',(0.,0.,1.));
#550=DIRECTION('',(0.,-1.,0.));
#551=DIRECTION('',(0.,0.,-1.));
#552=DIRECTION('',(0.,0.,-1.));
#553=DIRECTION('',(0.,1.,0.));
#554=DIRECTION('',(0.,0.,1.));
#555=DIRECTION('',(-1.,0.,0.));
#556=DIRECTION('',(0.,0.,1.));
#557=DIRECTION('',(0.,0.,-1.));
#558=DIRECTION('',(1.,0.,0.));
#559=DIRECTION('',(0.,1.,0.));
#560=DIRECTION('',(0.,0.,1.));
#561=DIRECTION('',(0.,0.,1.));
#562=DIRECTION('',(-0.999999999999998,0.,0.));
#563=DIRECTION('',(0.,0.,1.));
#564=DIRECTION('',(-0.999999999999998,0.,0.));
#565=DIRECTION('',(0.,0.,-1.));
#566=DIRECTION('',(-1.,0.,0.));
#567=DIRECTION('',(0.,0.,1.));
#568=DIRECTION('',(0.999999999999998,0.,0.));
#569=DIRECTION('',(0.,0.,1.));
#570=DIRECTION('',(0.999999999999998,0.,0.));
#571=DIRECTION('',(0.,0.,-1.));
#572=DIRECTION('',(0.999999999999996,0.,0.));
#573=DIRECTION('',(0.,0.,-1.));
#574=DIRECTION('',(-1.,0.,0.));
#575=DIRECTION('',(0.,0.,-1.));
#576=DIRECTION('',(0.999999999999996,0.,0.));
#577=CARTESIAN_POINT('',(0.,0.,0.));
#578=CARTESIAN_POINT('',(267.6,76.7,116.3));
#579=CARTESIAN_POINT('',(257.4,76.7,126.5));
#580=CARTESIAN_POINT('',(267.6,76.7,116.3));
#581=CARTESIAN_POINT('',(257.4,224.6,126.5));
#582=CARTESIAN_POINT('',(257.4,0.,126.5));
#583=CARTESIAN_POINT('',(258.85,0.,125.05));
#584=CARTESIAN_POINT('',(267.6,0.,116.3));
#585=CARTESIAN_POINT('',(267.6,224.6,116.3));
#586=CARTESIAN_POINT('',(267.6,224.6,116.3));
#587=CARTESIAN_POINT('',(238.7,396.3,126.5));
#588=CARTESIAN_POINT('',(242.35,396.3,126.5));
#589=CARTESIAN_POINT('',(133.8,76.7,126.5));
#590=CARTESIAN_POINT('',(200.7,76.7,126.5));
#591=CARTESIAN_POINT('',(200.7,80.3,126.5));
#592=CARTESIAN_POINT('',(197.1,80.3,126.5));
#593=CARTESIAN_POINT('',(197.1,224.6,126.5));
#594=CARTESIAN_POINT('',(197.1,233.7,126.5));
#595=CARTESIAN_POINT('',(200.7,233.7,126.5));
#596=CARTESIAN_POINT('',(200.7,237.3,126.5));
#597=CARTESIAN_POINT('',(133.8,237.3,126.5));
#598=CARTESIAN_POINT('',(257.4,237.3,126.5));
#599=CARTESIAN_POINT('',(257.4,224.6,126.5));
#600=CARTESIAN_POINT('',(257.4,425.,126.5));
#601=CARTESIAN_POINT('',(133.8,425.,126.5));
#602=CARTESIAN_POINT('',(76.4,425.,126.5));
#603=CARTESIAN_POINT('',(76.4,224.6,126.5));
#604=CARTESIAN_POINT('',(76.4,389.7,126.5));
#605=CARTESIAN_POINT('',(67.3,389.7,126.5));
#606=CARTESIAN_POINT('',(67.3,380.6,126.5));
#607=CARTESIAN_POINT('',(133.8,380.6,126.5));
#608=CARTESIAN_POINT('',(20.9,380.6,126.5));
#609=CARTESIAN_POINT('',(20.9,224.6,126.5));
#610=CARTESIAN_POINT('',(20.9,0.,126.5));
#611=CARTESIAN_POINT('',(133.8,0.,126.5));
#612=CARTESIAN_POINT('',(133.8,224.6,126.5));
#613=CARTESIAN_POINT('',(14.1,0.,119.7));
#614=CARTESIAN_POINT('',(0.,0.,105.6));
#615=CARTESIAN_POINT('',(0.,0.,0.));
#616=CARTESIAN_POINT('',(0.,0.,0.));
#617=CARTESIAN_POINT('',(133.8,0.,0.));
#618=CARTESIAN_POINT('',(267.6,0.,0.));
#619=CARTESIAN_POINT('',(267.6,0.,0.));
#620=CARTESIAN_POINT('',(133.8,0.,0.));
#621=CARTESIAN_POINT('',(0.,380.6,88.6));
#622=CARTESIAN_POINT('',(0.,380.6,88.6));
#623=CARTESIAN_POINT('',(0.,380.6,105.6));
#624=CARTESIAN_POINT('',(0.,414.9,88.6));
#625=CARTESIAN_POINT('',(0.,449.2,88.6));
#626=CARTESIAN_POINT('',(0.,449.2,0.));
#627=CARTESIAN_POINT('',(0.,449.2,0.));
#628=CARTESIAN_POINT('',(0.,224.6,0.));
#629=CARTESIAN_POINT('',(0.,224.6,105.6));
#630=CARTESIAN_POINT('',(0.,224.6,0.));
#631=CARTESIAN_POINT('',(38.2,449.2,88.6));
#632=CARTESIAN_POINT('',(76.4,449.2,88.6));
#633=CARTESIAN_POINT('',(76.4,449.2,88.6));
#634=CARTESIAN_POINT('',(76.4,449.2,102.3));
#635=CARTESIAN_POINT('',(133.8,449.2,102.3));
#636=CARTESIAN_POINT('',(267.6,449.2,102.3));
#637=CARTESIAN_POINT('',(267.6,449.2,0.));
#638=CARTESIAN_POINT('',(267.6,449.2,0.));
#639=CARTESIAN_POINT('',(133.8,449.2,0.));
#640=CARTESIAN_POINT('',(133.8,449.2,0.));
#641=CARTESIAN_POINT('',(267.6,224.6,0.));
#642=CARTESIAN_POINT('',(133.8,224.6,0.));
#643=CARTESIAN_POINT('',(267.6,76.7,100.6));
#644=CARTESIAN_POINT('',(267.6,76.7,100.6));
#645=CARTESIAN_POINT('',(267.6,388.05,163.45));
#646=CARTESIAN_POINT('',(267.6,435.2,116.3));
#647=CARTESIAN_POINT('',(267.6,224.6,116.3));
#648=CARTESIAN_POINT('',(267.6,237.3,116.3));
#649=CARTESIAN_POINT('',(267.6,237.3,100.6));
#650=CARTESIAN_POINT('',(267.6,237.3,100.6));
#651=CARTESIAN_POINT('',(267.6,157.,100.6));
#652=CARTESIAN_POINT('',(267.6,224.6,0.));
#653=CARTESIAN_POINT('',(76.4,449.2,102.3));
#654=CARTESIAN_POINT('',(232.333333333333,399.933333333333,151.566666666667));
#655=CARTESIAN_POINT('',(133.8,449.2,102.3));
#656=CARTESIAN_POINT('',(267.6,237.3,116.3));
#657=CARTESIAN_POINT('',(267.6,224.6,116.3));
#658=CARTESIAN_POINT('',(0.,380.6,105.6));
#659=CARTESIAN_POINT('',(0.,224.6,105.6));
#660=CARTESIAN_POINT('',(67.3,380.6,88.6));
#661=CARTESIAN_POINT('',(67.3,380.6,88.6));
#662=CARTESIAN_POINT('',(38.2,380.6,88.6));
#663=CARTESIAN_POINT('',(38.2,380.6,88.6));
#664=CARTESIAN_POINT('',(67.3,389.7,88.6));
#665=CARTESIAN_POINT('',(76.4,389.7,88.6));
#666=CARTESIAN_POINT('',(76.4,414.9,88.6));
#667=CARTESIAN_POINT('',(38.2,414.9,88.6));
#668=CARTESIAN_POINT('',(76.4,389.7,126.5));
#669=CARTESIAN_POINT('',(76.4,414.9,88.6));
#670=CARTESIAN_POINT('',(67.3,389.7,88.6));
#671=CARTESIAN_POINT('',(232.35,76.7,100.6));
#672=CARTESIAN_POINT('',(200.7,76.7,100.6));
#673=CARTESIAN_POINT('',(200.7,76.7,126.5));
#674=CARTESIAN_POINT('',(232.35,76.7,100.6));
#675=CARTESIAN_POINT('',(197.1,80.3,100.6));
#676=CARTESIAN_POINT('',(197.1,80.3,100.6));
#677=CARTESIAN_POINT('',(197.1,157.,100.6));
#678=CARTESIAN_POINT('',(197.1,233.7,100.6));
#679=CARTESIAN_POINT('',(197.1,233.7,126.5));
#680=CARTESIAN_POINT('',(197.1,157.,100.6));
#681=CARTESIAN_POINT('',(200.7,237.3,100.6));
#682=CARTESIAN_POINT('',(200.7,237.3,100.6));
#683=CARTESIAN_POINT('',(232.35,237.3,100.6));
#684=CARTESIAN_POINT('',(232.35,237.3,100.6));
#685=CARTESIAN_POINT('',(200.7,80.3,100.6));
#686=CARTESIAN_POINT('',(200.7,233.7,100.6));
#687=CARTESIAN_POINT('',(232.35,157.,100.6));
#688=CARTESIAN_POINT('',(200.7,80.3,100.6));
#689=CARTESIAN_POINT('',(200.7,233.7,100.6));
#690=CARTESIAN_POINT('',(238.7,396.3,57.6));
#691=CARTESIAN_POINT('',(242.35,396.3,57.6));
#692=CARTESIAN_POINT('',(238.7,396.3,57.6));
#693=CARTESIAN_POINT('',(238.7,396.3,126.55));
#694=MECHANICAL_DESIGN_GEOMETRIC_PRESENTATION_REPRESENTATION('',(#24),#695);
#695=(
GEOMETRIC_REPRESENTATION_CONTEXT(3)
GLOBAL_UNCERTAINTY_ASSIGNED_CONTEXT((#696))
GLOBAL_UNIT_ASSIGNED_CONTEXT((#702,#698,#697))
REPRESENTATION_CONTEXT('featured_part_00566','TOP_LEVEL_ASSEMBLY_PART')
);
#696=UNCERTAINTY_MEASURE_WITH_UNIT(LENGTH_MEASURE(2.E-5),#702,
'DISTANCE_ACCURACY_VALUE','Maximum Tolerance applied to model');
#697=(
NAMED_UNIT(*)
SI_UNIT($,.STERADIAN.)
SOLID_ANGLE_UNIT()
);
#698=(
CONVERSION_BASED_UNIT('DEGREE',#700)
NAMED_UNIT(#699)
PLANE_ANGLE_UNIT()
);
#699=DIMENSIONAL_EXPONENTS(0.,0.,0.,0.,0.,0.,0.);
#700=PLANE_ANGLE_MEASURE_WITH_UNIT(PLANE_ANGLE_MEASURE(0.0174532925),#701);
#701=(
NAMED_UNIT(*)
PLANE_ANGLE_UNIT()
SI_UNIT($,.RADIAN.)
);
#702=(
LENGTH_UNIT()
NAMED_UNIT(*)
SI_UNIT(.MILLI.,.METRE.)
);
ENDSEC;
END-ISO-10303-21;
