ISO-10303-21;
HEADER;
/* Generated by software containing ST-Developer
 * from STEP Tools, Inc. (www.steptools.com) 
 */
/* OPTION: using custom schema-name function */

FILE_DESCRIPTION(
/* description */ (''),
/* implementation_level */ '2;1');

FILE_NAME(
/* name */ 'featured_part_05709.stp',
/* time_stamp */ '2026-07-08T08:10:31-04:00',
/* author */ (''),
/* organization */ (''),
/* preprocessor_version */ 'ST-DEVELOPER v20.1',
/* originating_system */ 'SIEMENS PLM Software NX2512.6002',
/* authorisation */ '');

FILE_SCHEMA (('AUTOMOTIVE_DESIGN { 1 0 10303 214 3 1 1 1 }'));
ENDSEC;

DATA;
#10=SHAPE_REPRESENTATION_RELATIONSHIP('None',
'relationship between featured_part_05709-None and featured_part_05709
-None',#22,#11);
#11=ADVANCED_BREP_SHAPE_REPRESENTATION('featured_part_05709-None',(#32),
#913);
#12=SHAPE_DEFINITION_REPRESENTATION(#13,#22);
#13=PRODUCT_DEFINITION_SHAPE('','',#14);
#14=PRODUCT_DEFINITION(' ','',#16,#15);
#15=PRODUCT_DEFINITION_CONTEXT('part definition',#21,'design');
#16=PRODUCT_DEFINITION_FORMATION_WITH_SPECIFIED_SOURCE(' ',' ',#18,
 .NOT_KNOWN.);
#17=PRODUCT_RELATED_PRODUCT_CATEGORY('part','',(#18));
#18=PRODUCT('featured_part_05709','featured_part_05709',' ',(#19));
#19=PRODUCT_CONTEXT(' ',#21,'mechanical');
#20=APPLICATION_PROTOCOL_DEFINITION('international standard',
'automotive_design',2010,#21);
#21=APPLICATION_CONTEXT(
'core data for automotive mechanical design processes');
#22=SHAPE_REPRESENTATION('featured_part_05709-None',(#558),#913);
#23=PRESENTATION_LAYER_ASSIGNMENT('1','Layer 1',(#32));
#24=STYLED_ITEM('',(#25),#32);
#25=PRESENTATION_STYLE_ASSIGNMENT((#26));
#26=SURFACE_STYLE_USAGE(.BOTH.,#27);
#27=SURFACE_SIDE_STYLE('',(#28));
#28=SURFACE_STYLE_FILL_AREA(#29);
#29=FILL_AREA_STYLE('',(#30));
#30=FILL_AREA_STYLE_COLOUR('',#31);
#31=COLOUR_RGB('medium steel',0.611764705882353,0.658823529411765,0.670588235294118);
#32=MANIFOLD_SOLID_BREP('',#33);
#33=CLOSED_SHELL('',(#66,#67,#68,#69,#70,#71,#72,#73,#74,#75,#76,#77,#78,
#79,#80,#81,#82,#83,#84,#85,#86,#87,#88,#89,#90,#91,#92,#93,#94));
#34=CYLINDRICAL_SURFACE('',#590,4.9);
#35=CYLINDRICAL_SURFACE('',#591,4.9);
#36=CYLINDRICAL_SURFACE('',#592,4.9);
#37=CYLINDRICAL_SURFACE('',#593,4.9);
#38=CYLINDRICAL_SURFACE('',#599,13.7);
#39=CYLINDRICAL_SURFACE('',#602,14.5);
#40=CYLINDRICAL_SURFACE('',#603,8.5);
#41=CYLINDRICAL_SURFACE('',#606,6.9);
#42=CYLINDRICAL_SURFACE('',#607,7.25);
#43=ELLIPSE('',#576,20.5060966544099,14.5);
#44=ELLIPSE('',#578,9.75807358037435,6.9);
#45=FACE_OUTER_BOUND('',#134,.T.);
#46=FACE_OUTER_BOUND('',#135,.T.);
#47=FACE_OUTER_BOUND('',#136,.T.);
#48=FACE_OUTER_BOUND('',#140,.T.);
#49=FACE_OUTER_BOUND('',#141,.T.);
#50=FACE_OUTER_BOUND('',#142,.T.);
#51=FACE_OUTER_BOUND('',#143,.T.);
#52=FACE_OUTER_BOUND('',#144,.T.);
#53=FACE_OUTER_BOUND('',#145,.T.);
#54=FACE_OUTER_BOUND('',#146,.T.);
#55=FACE_OUTER_BOUND('',#147,.T.);
#56=FACE_OUTER_BOUND('',#150,.T.);
#57=FACE_OUTER_BOUND('',#151,.T.);
#58=FACE_OUTER_BOUND('',#152,.T.);
#59=FACE_OUTER_BOUND('',#153,.T.);
#60=FACE_OUTER_BOUND('',#154,.T.);
#61=FACE_OUTER_BOUND('',#155,.T.);
#62=FACE_OUTER_BOUND('',#156,.T.);
#63=FACE_OUTER_BOUND('',#159,.T.);
#64=FACE_OUTER_BOUND('',#160,.T.);
#65=FACE_OUTER_BOUND('',#165,.T.);
#66=ADVANCED_FACE('',(#115,#116),#95,.T.);
#67=ADVANCED_FACE('',(#45),#96,.T.);
#68=ADVANCED_FACE('',(#46),#97,.T.);
#69=ADVANCED_FACE('',(#47),#98,.T.);
#70=ADVANCED_FACE('',(#117,#118,#119),#99,.T.);
#71=ADVANCED_FACE('',(#48),#100,.T.);
#72=ADVANCED_FACE('',(#49),#101,.F.);
#73=ADVANCED_FACE('',(#50),#102,.F.);
#74=ADVANCED_FACE('',(#51),#103,.F.);
#75=ADVANCED_FACE('',(#52),#104,.F.);
#76=ADVANCED_FACE('',(#53),#105,.F.);
#77=ADVANCED_FACE('',(#54),#106,.F.);
#78=ADVANCED_FACE('',(#55),#107,.F.);
#79=ADVANCED_FACE('',(#120,#121),#108,.F.);
#80=ADVANCED_FACE('',(#56),#109,.F.);
#81=ADVANCED_FACE('',(#57),#34,.F.);
#82=ADVANCED_FACE('',(#58),#35,.F.);
#83=ADVANCED_FACE('',(#59),#36,.F.);
#84=ADVANCED_FACE('',(#60),#37,.F.);
#85=ADVANCED_FACE('',(#61),#110,.F.);
#86=ADVANCED_FACE('',(#62),#111,.F.);
#87=ADVANCED_FACE('',(#122,#123),#112,.F.);
#88=ADVANCED_FACE('',(#63),#38,.F.);
#89=ADVANCED_FACE('',(#64),#113,.F.);
#90=ADVANCED_FACE('',(#124,#125),#39,.F.);
#91=ADVANCED_FACE('',(#126,#127),#40,.F.);
#92=ADVANCED_FACE('',(#65),#114,.F.);
#93=ADVANCED_FACE('',(#128,#129),#41,.F.);
#94=ADVANCED_FACE('',(#130,#131),#42,.F.);
#95=PLANE('',#566);
#96=PLANE('',#567);
#97=PLANE('',#568);
#98=PLANE('',#569);
#99=PLANE('',#572);
#100=PLANE('',#573);
#101=PLANE('',#574);
#102=PLANE('',#575);
#103=PLANE('',#577);
#104=PLANE('',#579);
#105=PLANE('',#580);
#106=PLANE('',#581);
#107=PLANE('',#582);
#108=PLANE('',#588);
#109=PLANE('',#589);
#110=PLANE('',#594);
#111=PLANE('',#595);
#112=PLANE('',#598);
#113=PLANE('',#601);
#114=PLANE('',#605);
#115=FACE_BOUND('',#132,.T.);
#116=FACE_BOUND('',#133,.T.);
#117=FACE_BOUND('',#137,.T.);
#118=FACE_BOUND('',#138,.T.);
#119=FACE_BOUND('',#139,.T.);
#120=FACE_BOUND('',#148,.T.);
#121=FACE_BOUND('',#149,.T.);
#122=FACE_BOUND('',#157,.T.);
#123=FACE_BOUND('',#158,.T.);
#124=FACE_BOUND('',#161,.T.);
#125=FACE_BOUND('',#162,.T.);
#126=FACE_BOUND('',#163,.T.);
#127=FACE_BOUND('',#164,.T.);
#128=FACE_BOUND('',#166,.T.);
#129=FACE_BOUND('',#167,.T.);
#130=FACE_BOUND('',#168,.T.);
#131=FACE_BOUND('',#169,.T.);
#132=EDGE_LOOP('',(#274,#275,#276,#277,#278,#279,#280,#281,#282,#283,#284));
#133=EDGE_LOOP('',(#285,#286,#287,#288,#289,#290,#291,#292));
#134=EDGE_LOOP('',(#293,#294,#295,#296,#297,#298));
#135=EDGE_LOOP('',(#299,#300,#301,#302));
#136=EDGE_LOOP('',(#303,#304,#305,#306,#307,#308,#309));
#137=EDGE_LOOP('',(#310));
#138=EDGE_LOOP('',(#311));
#139=EDGE_LOOP('',(#312,#313,#314,#315));
#140=EDGE_LOOP('',(#316,#317,#318,#319,#320,#321));
#141=EDGE_LOOP('',(#322,#323,#324,#325));
#142=EDGE_LOOP('',(#326,#327,#328,#329));
#143=EDGE_LOOP('',(#330,#331,#332,#333,#334,#335,#336));
#144=EDGE_LOOP('',(#337,#338,#339,#340,#341,#342,#343,#344));
#145=EDGE_LOOP('',(#345,#346,#347,#348));
#146=EDGE_LOOP('',(#349,#350,#351,#352));
#147=EDGE_LOOP('',(#353,#354,#355,#356));
#148=EDGE_LOOP('',(#357));
#149=EDGE_LOOP('',(#358,#359,#360,#361,#362,#363,#364,#365));
#150=EDGE_LOOP('',(#366,#367,#368,#369));
#151=EDGE_LOOP('',(#370,#371,#372,#373));
#152=EDGE_LOOP('',(#374,#375,#376,#377));
#153=EDGE_LOOP('',(#378,#379,#380,#381));
#154=EDGE_LOOP('',(#382,#383,#384,#385));
#155=EDGE_LOOP('',(#386,#387,#388,#389,#390));
#156=EDGE_LOOP('',(#391,#392,#393,#394,#395));
#157=EDGE_LOOP('',(#396));
#158=EDGE_LOOP('',(#397,#398,#399,#400,#401));
#159=EDGE_LOOP('',(#402,#403,#404,#405));
#160=EDGE_LOOP('',(#406));
#161=EDGE_LOOP('',(#407,#408));
#162=EDGE_LOOP('',(#409));
#163=EDGE_LOOP('',(#410));
#164=EDGE_LOOP('',(#411));
#165=EDGE_LOOP('',(#412));
#166=EDGE_LOOP('',(#413,#414));
#167=EDGE_LOOP('',(#415));
#168=EDGE_LOOP('',(#416));
#169=EDGE_LOOP('',(#417));
#170=LINE('',#764,#222);
#171=LINE('',#766,#223);
#172=LINE('',#768,#224);
#173=LINE('',#772,#225);
#174=LINE('',#774,#226);
#175=LINE('',#778,#227);
#176=LINE('',#780,#228);
#177=LINE('',#782,#229);
#178=LINE('',#783,#230);
#179=LINE('',#788,#231);
#180=LINE('',#792,#232);
#181=LINE('',#796,#233);
#182=LINE('',#800,#234);
#183=LINE('',#803,#235);
#184=LINE('',#805,#236);
#185=LINE('',#807,#237);
#186=LINE('',#809,#238);
#187=LINE('',#811,#239);
#188=LINE('',#813,#240);
#189=LINE('',#815,#241);
#190=LINE('',#817,#242);
#191=LINE('',#819,#243);
#192=LINE('',#822,#244);
#193=LINE('',#824,#245);
#194=LINE('',#826,#246);
#195=LINE('',#827,#247);
#196=LINE('',#829,#248);
#197=LINE('',#835,#249);
#198=LINE('',#837,#250);
#199=LINE('',#840,#251);
#200=LINE('',#841,#252);
#201=LINE('',#843,#253);
#202=LINE('',#844,#254);
#203=LINE('',#846,#255);
#204=LINE('',#847,#256);
#205=LINE('',#850,#257);
#206=LINE('',#854,#258);
#207=LINE('',#857,#259);
#208=LINE('',#858,#260);
#209=LINE('',#860,#261);
#210=LINE('',#862,#262);
#211=LINE('',#864,#263);
#212=LINE('',#866,#264);
#213=LINE('',#868,#265);
#214=LINE('',#870,#266);
#215=LINE('',#877,#267);
#216=LINE('',#882,#268);
#217=LINE('',#883,#269);
#218=LINE('',#889,#270);
#219=LINE('',#891,#271);
#220=LINE('',#893,#272);
#221=LINE('',#895,#273);
#222=VECTOR('',#612,1.);
#223=VECTOR('',#613,1.);
#224=VECTOR('',#614,1.);
#225=VECTOR('',#617,1.);
#226=VECTOR('',#618,1.);
#227=VECTOR('',#621,1.);
#228=VECTOR('',#622,1.);
#229=VECTOR('',#623,1.);
#230=VECTOR('',#624,1.);
#231=VECTOR('',#627,1.);
#232=VECTOR('',#630,1.);
#233=VECTOR('',#633,1.);
#234=VECTOR('',#638,1.);
#235=VECTOR('',#639,1.);
#236=VECTOR('',#640,1.);
#237=VECTOR('',#641,1.);
#238=VECTOR('',#642,1.);
#239=VECTOR('',#643,1.);
#240=VECTOR('',#646,1.);
#241=VECTOR('',#647,1.);
#242=VECTOR('',#648,1.);
#243=VECTOR('',#651,1.);
#244=VECTOR('',#652,1.);
#245=VECTOR('',#653,1.);
#246=VECTOR('',#654,1.);
#247=VECTOR('',#655,1.);
#248=VECTOR('',#656,1.);
#249=VECTOR('',#663,1.);
#250=VECTOR('',#666,1.);
#251=VECTOR('',#667,1.);
#252=VECTOR('',#668,1.);
#253=VECTOR('',#671,1.);
#254=VECTOR('',#672,1.);
#255=VECTOR('',#675,1.);
#256=VECTOR('',#676,1.);
#257=VECTOR('',#681,1.);
#258=VECTOR('',#688,1.);
#259=VECTOR('',#689,1.);
#260=VECTOR('',#690,1.);
#261=VECTOR('',#693,1.);
#262=VECTOR('',#694,1.);
#263=VECTOR('',#695,1.);
#264=VECTOR('',#698,1.);
#265=VECTOR('',#699,1.);
#266=VECTOR('',#700,1.);
#267=VECTOR('',#709,1.);
#268=VECTOR('',#716,1.);
#269=VECTOR('',#717,1.);
#270=VECTOR('',#728,1.);
#271=VECTOR('',#729,1.);
#272=VECTOR('',#732,1.);
#273=VECTOR('',#733,1.);
#274=ORIENTED_EDGE('',*,*,#468,.F.);
#275=ORIENTED_EDGE('',*,*,#469,.T.);
#276=ORIENTED_EDGE('',*,*,#470,.T.);
#277=ORIENTED_EDGE('',*,*,#471,.T.);
#278=ORIENTED_EDGE('',*,*,#472,.F.);
#279=ORIENTED_EDGE('',*,*,#473,.T.);
#280=ORIENTED_EDGE('',*,*,#474,.F.);
#281=ORIENTED_EDGE('',*,*,#475,.T.);
#282=ORIENTED_EDGE('',*,*,#476,.F.);
#283=ORIENTED_EDGE('',*,*,#477,.T.);
#284=ORIENTED_EDGE('',*,*,#478,.T.);
#285=ORIENTED_EDGE('',*,*,#479,.F.);
#286=ORIENTED_EDGE('',*,*,#480,.T.);
#287=ORIENTED_EDGE('',*,*,#481,.F.);
#288=ORIENTED_EDGE('',*,*,#482,.T.);
#289=ORIENTED_EDGE('',*,*,#483,.F.);
#290=ORIENTED_EDGE('',*,*,#484,.T.);
#291=ORIENTED_EDGE('',*,*,#485,.F.);
#292=ORIENTED_EDGE('',*,*,#486,.T.);
#293=ORIENTED_EDGE('',*,*,#487,.T.);
#294=ORIENTED_EDGE('',*,*,#488,.T.);
#295=ORIENTED_EDGE('',*,*,#489,.F.);
#296=ORIENTED_EDGE('',*,*,#490,.T.);
#297=ORIENTED_EDGE('',*,*,#491,.T.);
#298=ORIENTED_EDGE('',*,*,#492,.T.);
#299=ORIENTED_EDGE('',*,*,#489,.T.);
#300=ORIENTED_EDGE('',*,*,#493,.T.);
#301=ORIENTED_EDGE('',*,*,#494,.F.);
#302=ORIENTED_EDGE('',*,*,#495,.T.);
#303=ORIENTED_EDGE('',*,*,#496,.F.);
#304=ORIENTED_EDGE('',*,*,#497,.F.);
#305=ORIENTED_EDGE('',*,*,#498,.F.);
#306=ORIENTED_EDGE('',*,*,#499,.T.);
#307=ORIENTED_EDGE('',*,*,#494,.T.);
#308=ORIENTED_EDGE('',*,*,#500,.T.);
#309=ORIENTED_EDGE('',*,*,#501,.T.);
#310=ORIENTED_EDGE('',*,*,#502,.F.);
#311=ORIENTED_EDGE('',*,*,#503,.F.);
#312=ORIENTED_EDGE('',*,*,#504,.F.);
#313=ORIENTED_EDGE('',*,*,#490,.F.);
#314=ORIENTED_EDGE('',*,*,#495,.F.);
#315=ORIENTED_EDGE('',*,*,#499,.F.);
#316=ORIENTED_EDGE('',*,*,#505,.T.);
#317=ORIENTED_EDGE('',*,*,#506,.T.);
#318=ORIENTED_EDGE('',*,*,#491,.F.);
#319=ORIENTED_EDGE('',*,*,#504,.T.);
#320=ORIENTED_EDGE('',*,*,#498,.T.);
#321=ORIENTED_EDGE('',*,*,#507,.F.);
#322=ORIENTED_EDGE('',*,*,#508,.F.);
#323=ORIENTED_EDGE('',*,*,#501,.F.);
#324=ORIENTED_EDGE('',*,*,#509,.T.);
#325=ORIENTED_EDGE('',*,*,#477,.F.);
#326=ORIENTED_EDGE('',*,*,#470,.F.);
#327=ORIENTED_EDGE('',*,*,#510,.T.);
#328=ORIENTED_EDGE('',*,*,#487,.F.);
#329=ORIENTED_EDGE('',*,*,#511,.T.);
#330=ORIENTED_EDGE('',*,*,#512,.F.);
#331=ORIENTED_EDGE('',*,*,#471,.F.);
#332=ORIENTED_EDGE('',*,*,#511,.F.);
#333=ORIENTED_EDGE('',*,*,#492,.F.);
#334=ORIENTED_EDGE('',*,*,#506,.F.);
#335=ORIENTED_EDGE('',*,*,#513,.F.);
#336=ORIENTED_EDGE('',*,*,#473,.F.);
#337=ORIENTED_EDGE('',*,*,#514,.F.);
#338=ORIENTED_EDGE('',*,*,#478,.F.);
#339=ORIENTED_EDGE('',*,*,#509,.F.);
#340=ORIENTED_EDGE('',*,*,#500,.F.);
#341=ORIENTED_EDGE('',*,*,#493,.F.);
#342=ORIENTED_EDGE('',*,*,#488,.F.);
#343=ORIENTED_EDGE('',*,*,#510,.F.);
#344=ORIENTED_EDGE('',*,*,#469,.F.);
#345=ORIENTED_EDGE('',*,*,#515,.T.);
#346=ORIENTED_EDGE('',*,*,#516,.T.);
#347=ORIENTED_EDGE('',*,*,#479,.T.);
#348=ORIENTED_EDGE('',*,*,#517,.T.);
#349=ORIENTED_EDGE('',*,*,#481,.T.);
#350=ORIENTED_EDGE('',*,*,#518,.T.);
#351=ORIENTED_EDGE('',*,*,#519,.T.);
#352=ORIENTED_EDGE('',*,*,#520,.T.);
#353=ORIENTED_EDGE('',*,*,#483,.T.);
#354=ORIENTED_EDGE('',*,*,#521,.T.);
#355=ORIENTED_EDGE('',*,*,#522,.T.);
#356=ORIENTED_EDGE('',*,*,#523,.T.);
#357=ORIENTED_EDGE('',*,*,#524,.T.);
#358=ORIENTED_EDGE('',*,*,#519,.F.);
#359=ORIENTED_EDGE('',*,*,#525,.T.);
#360=ORIENTED_EDGE('',*,*,#515,.F.);
#361=ORIENTED_EDGE('',*,*,#526,.T.);
#362=ORIENTED_EDGE('',*,*,#527,.F.);
#363=ORIENTED_EDGE('',*,*,#528,.T.);
#364=ORIENTED_EDGE('',*,*,#522,.F.);
#365=ORIENTED_EDGE('',*,*,#529,.T.);
#366=ORIENTED_EDGE('',*,*,#527,.T.);
#367=ORIENTED_EDGE('',*,*,#530,.T.);
#368=ORIENTED_EDGE('',*,*,#485,.T.);
#369=ORIENTED_EDGE('',*,*,#531,.T.);
#370=ORIENTED_EDGE('',*,*,#480,.F.);
#371=ORIENTED_EDGE('',*,*,#516,.F.);
#372=ORIENTED_EDGE('',*,*,#525,.F.);
#373=ORIENTED_EDGE('',*,*,#518,.F.);
#374=ORIENTED_EDGE('',*,*,#482,.F.);
#375=ORIENTED_EDGE('',*,*,#520,.F.);
#376=ORIENTED_EDGE('',*,*,#529,.F.);
#377=ORIENTED_EDGE('',*,*,#521,.F.);
#378=ORIENTED_EDGE('',*,*,#486,.F.);
#379=ORIENTED_EDGE('',*,*,#530,.F.);
#380=ORIENTED_EDGE('',*,*,#526,.F.);
#381=ORIENTED_EDGE('',*,*,#517,.F.);
#382=ORIENTED_EDGE('',*,*,#484,.F.);
#383=ORIENTED_EDGE('',*,*,#523,.F.);
#384=ORIENTED_EDGE('',*,*,#528,.F.);
#385=ORIENTED_EDGE('',*,*,#531,.F.);
#386=ORIENTED_EDGE('',*,*,#532,.T.);
#387=ORIENTED_EDGE('',*,*,#533,.T.);
#388=ORIENTED_EDGE('',*,*,#474,.T.);
#389=ORIENTED_EDGE('',*,*,#513,.T.);
#390=ORIENTED_EDGE('',*,*,#505,.F.);
#391=ORIENTED_EDGE('',*,*,#476,.T.);
#392=ORIENTED_EDGE('',*,*,#534,.T.);
#393=ORIENTED_EDGE('',*,*,#535,.T.);
#394=ORIENTED_EDGE('',*,*,#496,.T.);
#395=ORIENTED_EDGE('',*,*,#508,.T.);
#396=ORIENTED_EDGE('',*,*,#536,.T.);
#397=ORIENTED_EDGE('',*,*,#535,.F.);
#398=ORIENTED_EDGE('',*,*,#537,.T.);
#399=ORIENTED_EDGE('',*,*,#532,.F.);
#400=ORIENTED_EDGE('',*,*,#507,.T.);
#401=ORIENTED_EDGE('',*,*,#497,.T.);
#402=ORIENTED_EDGE('',*,*,#475,.F.);
#403=ORIENTED_EDGE('',*,*,#533,.F.);
#404=ORIENTED_EDGE('',*,*,#537,.F.);
#405=ORIENTED_EDGE('',*,*,#534,.F.);
#406=ORIENTED_EDGE('',*,*,#538,.F.);
#407=ORIENTED_EDGE('',*,*,#472,.T.);
#408=ORIENTED_EDGE('',*,*,#512,.T.);
#409=ORIENTED_EDGE('',*,*,#538,.T.);
#410=ORIENTED_EDGE('',*,*,#503,.T.);
#411=ORIENTED_EDGE('',*,*,#536,.F.);
#412=ORIENTED_EDGE('',*,*,#539,.F.);
#413=ORIENTED_EDGE('',*,*,#468,.T.);
#414=ORIENTED_EDGE('',*,*,#514,.T.);
#415=ORIENTED_EDGE('',*,*,#539,.T.);
#416=ORIENTED_EDGE('',*,*,#502,.T.);
#417=ORIENTED_EDGE('',*,*,#524,.F.);
#418=VERTEX_POINT('',#762);
#419=VERTEX_POINT('',#763);
#420=VERTEX_POINT('',#765);
#421=VERTEX_POINT('',#767);
#422=VERTEX_POINT('',#769);
#423=VERTEX_POINT('',#771);
#424=VERTEX_POINT('',#773);
#425=VERTEX_POINT('',#775);
#426=VERTEX_POINT('',#777);
#427=VERTEX_POINT('',#779);
#428=VERTEX_POINT('',#781);
#429=VERTEX_POINT('',#784);
#430=VERTEX_POINT('',#785);
#431=VERTEX_POINT('',#787);
#432=VERTEX_POINT('',#789);
#433=VERTEX_POINT('',#791);
#434=VERTEX_POINT('',#793);
#435=VERTEX_POINT('',#795);
#436=VERTEX_POINT('',#797);
#437=VERTEX_POINT('',#801);
#438=VERTEX_POINT('',#802);
#439=VERTEX_POINT('',#804);
#440=VERTEX_POINT('',#806);
#441=VERTEX_POINT('',#808);
#442=VERTEX_POINT('',#810);
#443=VERTEX_POINT('',#814);
#444=VERTEX_POINT('',#816);
#445=VERTEX_POINT('',#820);
#446=VERTEX_POINT('',#821);
#447=VERTEX_POINT('',#823);
#448=VERTEX_POINT('',#825);
#449=VERTEX_POINT('',#828);
#450=VERTEX_POINT('',#832);
#451=VERTEX_POINT('',#834);
#452=VERTEX_POINT('',#838);
#453=VERTEX_POINT('',#839);
#454=VERTEX_POINT('',#855);
#455=VERTEX_POINT('',#856);
#456=VERTEX_POINT('',#861);
#457=VERTEX_POINT('',#863);
#458=VERTEX_POINT('',#867);
#459=VERTEX_POINT('',#869);
#460=VERTEX_POINT('',#873);
#461=VERTEX_POINT('',#876);
#462=VERTEX_POINT('',#878);
#463=VERTEX_POINT('',#890);
#464=VERTEX_POINT('',#894);
#465=VERTEX_POINT('',#898);
#466=VERTEX_POINT('',#903);
#467=VERTEX_POINT('',#908);
#468=EDGE_CURVE('',#418,#419,#540,.T.);
#469=EDGE_CURVE('',#418,#420,#170,.T.);
#470=EDGE_CURVE('',#420,#421,#171,.T.);
#471=EDGE_CURVE('',#421,#422,#172,.T.);
#472=EDGE_CURVE('',#423,#422,#541,.T.);
#473=EDGE_CURVE('',#423,#424,#173,.T.);
#474=EDGE_CURVE('',#425,#424,#174,.T.);
#475=EDGE_CURVE('',#425,#426,#542,.T.);
#476=EDGE_CURVE('',#427,#426,#175,.T.);
#477=EDGE_CURVE('',#427,#428,#176,.T.);
#478=EDGE_CURVE('',#428,#419,#177,.T.);
#479=EDGE_CURVE('',#429,#430,#178,.T.);
#480=EDGE_CURVE('',#429,#431,#543,.T.);
#481=EDGE_CURVE('',#432,#431,#179,.T.);
#482=EDGE_CURVE('',#432,#433,#544,.T.);
#483=EDGE_CURVE('',#434,#433,#180,.T.);
#484=EDGE_CURVE('',#434,#435,#545,.T.);
#485=EDGE_CURVE('',#436,#435,#181,.T.);
#486=EDGE_CURVE('',#436,#430,#546,.T.);
#487=EDGE_CURVE('',#437,#438,#182,.T.);
#488=EDGE_CURVE('',#438,#439,#183,.T.);
#489=EDGE_CURVE('',#440,#439,#184,.T.);
#490=EDGE_CURVE('',#440,#441,#185,.T.);
#491=EDGE_CURVE('',#441,#442,#186,.T.);
#492=EDGE_CURVE('',#442,#437,#187,.T.);
#493=EDGE_CURVE('',#439,#443,#188,.T.);
#494=EDGE_CURVE('',#444,#443,#189,.T.);
#495=EDGE_CURVE('',#444,#440,#190,.T.);
#496=EDGE_CURVE('',#445,#446,#191,.T.);
#497=EDGE_CURVE('',#447,#445,#192,.T.);
#498=EDGE_CURVE('',#448,#447,#193,.T.);
#499=EDGE_CURVE('',#448,#444,#194,.T.);
#500=EDGE_CURVE('',#443,#449,#195,.T.);
#501=EDGE_CURVE('',#449,#446,#196,.T.);
#502=EDGE_CURVE('',#450,#450,#547,.T.);
#503=EDGE_CURVE('',#451,#451,#548,.T.);
#504=EDGE_CURVE('',#441,#448,#197,.T.);
#505=EDGE_CURVE('',#452,#453,#198,.T.);
#506=EDGE_CURVE('',#453,#442,#199,.T.);
#507=EDGE_CURVE('',#452,#447,#200,.T.);
#508=EDGE_CURVE('',#446,#427,#201,.T.);
#509=EDGE_CURVE('',#449,#428,#202,.T.);
#510=EDGE_CURVE('',#420,#438,#203,.T.);
#511=EDGE_CURVE('',#437,#421,#204,.T.);
#512=EDGE_CURVE('',#422,#423,#43,.T.);
#513=EDGE_CURVE('',#424,#453,#205,.T.);
#514=EDGE_CURVE('',#419,#418,#44,.T.);
#515=EDGE_CURVE('',#454,#455,#206,.T.);
#516=EDGE_CURVE('',#455,#429,#207,.T.);
#517=EDGE_CURVE('',#430,#454,#208,.T.);
#518=EDGE_CURVE('',#431,#456,#209,.T.);
#519=EDGE_CURVE('',#456,#457,#210,.T.);
#520=EDGE_CURVE('',#457,#432,#211,.T.);
#521=EDGE_CURVE('',#433,#458,#212,.T.);
#522=EDGE_CURVE('',#458,#459,#213,.T.);
#523=EDGE_CURVE('',#459,#434,#214,.T.);
#524=EDGE_CURVE('',#460,#460,#549,.T.);
#525=EDGE_CURVE('',#456,#455,#550,.T.);
#526=EDGE_CURVE('',#454,#461,#551,.T.);
#527=EDGE_CURVE('',#462,#461,#215,.T.);
#528=EDGE_CURVE('',#462,#459,#552,.T.);
#529=EDGE_CURVE('',#458,#457,#553,.T.);
#530=EDGE_CURVE('',#461,#436,#216,.T.);
#531=EDGE_CURVE('',#435,#462,#217,.T.);
#532=EDGE_CURVE('',#452,#463,#218,.T.);
#533=EDGE_CURVE('',#463,#425,#219,.T.);
#534=EDGE_CURVE('',#426,#464,#220,.T.);
#535=EDGE_CURVE('',#464,#445,#221,.T.);
#536=EDGE_CURVE('',#465,#465,#554,.T.);
#537=EDGE_CURVE('',#464,#463,#555,.T.);
#538=EDGE_CURVE('',#466,#466,#556,.T.);
#539=EDGE_CURVE('',#467,#467,#557,.T.);
#540=CIRCLE('',#559,6.9);
#541=CIRCLE('',#560,14.5);
#542=CIRCLE('',#561,13.7);
#543=CIRCLE('',#562,4.9);
#544=CIRCLE('',#563,4.9);
#545=CIRCLE('',#564,4.9);
#546=CIRCLE('',#565,4.9);
#547=CIRCLE('',#570,7.25);
#548=CIRCLE('',#571,8.5);
#549=CIRCLE('',#583,7.25);
#550=CIRCLE('',#584,4.9);
#551=CIRCLE('',#585,4.9);
#552=CIRCLE('',#586,4.9);
#553=CIRCLE('',#587,4.9);
#554=CIRCLE('',#596,8.5);
#555=CIRCLE('',#597,13.7);
#556=CIRCLE('',#600,14.5);
#557=CIRCLE('',#604,6.9);
#558=AXIS2_PLACEMENT_3D('',#760,#608,#609);
#559=AXIS2_PLACEMENT_3D('',#761,#610,#611);
#560=AXIS2_PLACEMENT_3D('',#770,#615,#616);
#561=AXIS2_PLACEMENT_3D('',#776,#619,#620);
#562=AXIS2_PLACEMENT_3D('',#786,#625,#626);
#563=AXIS2_PLACEMENT_3D('',#790,#628,#629);
#564=AXIS2_PLACEMENT_3D('',#794,#631,#632);
#565=AXIS2_PLACEMENT_3D('',#798,#634,#635);
#566=AXIS2_PLACEMENT_3D('',#799,#636,#637);
#567=AXIS2_PLACEMENT_3D('',#812,#644,#645);
#568=AXIS2_PLACEMENT_3D('',#818,#649,#650);
#569=AXIS2_PLACEMENT_3D('',#830,#657,#658);
#570=AXIS2_PLACEMENT_3D('',#831,#659,#660);
#571=AXIS2_PLACEMENT_3D('',#833,#661,#662);
#572=AXIS2_PLACEMENT_3D('',#836,#664,#665);
#573=AXIS2_PLACEMENT_3D('',#842,#669,#670);
#574=AXIS2_PLACEMENT_3D('',#845,#673,#674);
#575=AXIS2_PLACEMENT_3D('',#848,#677,#678);
#576=AXIS2_PLACEMENT_3D('',#849,#679,#680);
#577=AXIS2_PLACEMENT_3D('',#851,#682,#683);
#578=AXIS2_PLACEMENT_3D('',#852,#684,#685);
#579=AXIS2_PLACEMENT_3D('',#853,#686,#687);
#580=AXIS2_PLACEMENT_3D('',#859,#691,#692);
#581=AXIS2_PLACEMENT_3D('',#865,#696,#697);
#582=AXIS2_PLACEMENT_3D('',#871,#701,#702);
#583=AXIS2_PLACEMENT_3D('',#872,#703,#704);
#584=AXIS2_PLACEMENT_3D('',#874,#705,#706);
#585=AXIS2_PLACEMENT_3D('',#875,#707,#708);
#586=AXIS2_PLACEMENT_3D('',#879,#710,#711);
#587=AXIS2_PLACEMENT_3D('',#880,#712,#713);
#588=AXIS2_PLACEMENT_3D('',#881,#714,#715);
#589=AXIS2_PLACEMENT_3D('',#884,#718,#719);
#590=AXIS2_PLACEMENT_3D('',#885,#720,#721);
#591=AXIS2_PLACEMENT_3D('',#886,#722,#723);
#592=AXIS2_PLACEMENT_3D('',#887,#724,#725);
#593=AXIS2_PLACEMENT_3D('',#888,#726,#727);
#594=AXIS2_PLACEMENT_3D('',#892,#730,#731);
#595=AXIS2_PLACEMENT_3D('',#896,#734,#735);
#596=AXIS2_PLACEMENT_3D('',#897,#736,#737);
#597=AXIS2_PLACEMENT_3D('',#899,#738,#739);
#598=AXIS2_PLACEMENT_3D('',#900,#740,#741);
#599=AXIS2_PLACEMENT_3D('',#901,#742,#743);
#600=AXIS2_PLACEMENT_3D('',#902,#744,#745);
#601=AXIS2_PLACEMENT_3D('',#904,#746,#747);
#602=AXIS2_PLACEMENT_3D('',#905,#748,#749);
#603=AXIS2_PLACEMENT_3D('',#906,#750,#751);
#604=AXIS2_PLACEMENT_3D('',#907,#752,#753);
#605=AXIS2_PLACEMENT_3D('',#909,#754,#755);
#606=AXIS2_PLACEMENT_3D('',#910,#756,#757);
#607=AXIS2_PLACEMENT_3D('',#911,#758,#759);
#608=DIRECTION('',(0.,0.,1.));
#609=DIRECTION('',(1.,0.,0.));
#610=DIRECTION('',(0.,0.,1.));
#611=DIRECTION('',(1.,0.,0.));
#612=DIRECTION('',(0.,-1.,0.));
#613=DIRECTION('',(1.,0.,0.));
#614=DIRECTION('',(0.,1.,0.));
#615=DIRECTION('',(0.,0.,1.));
#616=DIRECTION('',(1.,0.,0.));
#617=DIRECTION('',(0.,1.,0.));
#618=DIRECTION('',(1.,0.,0.));
#619=DIRECTION('',(0.,0.,-1.));
#620=DIRECTION('',(0.999999999999999,0.,0.));
#621=DIRECTION('',(0.,-1.,0.));
#622=DIRECTION('',(-1.,0.,0.));
#623=DIRECTION('',(0.,-1.,0.));
#624=DIRECTION('',(1.,0.,0.));
#625=DIRECTION('',(0.,0.,-1.));
#626=DIRECTION('',(1.,0.,0.));
#627=DIRECTION('',(0.,-1.,0.));
#628=DIRECTION('',(0.,0.,-1.));
#629=DIRECTION('',(1.,0.,0.));
#630=DIRECTION('',(-1.,0.,0.));
#631=DIRECTION('',(0.,0.,-1.));
#632=DIRECTION('',(0.999999999999997,0.,0.));
#633=DIRECTION('',(0.,1.,0.));
#634=DIRECTION('',(0.,0.,-1.));
#635=DIRECTION('',(0.999999999999997,0.,0.));
#636=DIRECTION('',(0.,0.,1.));
#637=DIRECTION('',(1.,0.,0.));
#638=DIRECTION('',(-1.,0.,0.));
#639=DIRECTION('',(-0.707106781186548,0.,-0.707106781186547));
#640=DIRECTION('',(0.,0.,1.));
#641=DIRECTION('',(1.,0.,0.));
#642=DIRECTION('',(0.,0.,1.));
#643=DIRECTION('',(-0.707106781186548,0.,0.707106781186547));
#644=DIRECTION('',(0.,-1.,0.));
#645=DIRECTION('',(0.,0.,-1.));
#646=DIRECTION('',(0.,1.,0.));
#647=DIRECTION('',(0.,0.,1.));
#648=DIRECTION('',(0.,-1.,0.));
#649=DIRECTION('',(-1.,0.,0.));
#650=DIRECTION('',(0.,0.,1.));
#651=DIRECTION('',(0.,0.,1.));
#652=DIRECTION('',(-1.,0.,0.));
#653=DIRECTION('',(0.,0.,1.));
#654=DIRECTION('',(-1.,0.,0.));
#655=DIRECTION('',(0.707106781186548,0.,0.707106781186547));
#656=DIRECTION('',(1.,0.,0.));
#657=DIRECTION('',(0.,1.,0.));
#658=DIRECTION('',(0.,0.,1.));
#659=DIRECTION('',(0.,0.,-1.));
#660=DIRECTION('',(-1.,0.,0.));
#661=DIRECTION('',(0.,0.,-1.));
#662=DIRECTION('',(-1.,0.,0.));
#663=DIRECTION('',(0.,1.,0.));
#664=DIRECTION('',(0.,0.,-1.));
#665=DIRECTION('',(-1.,0.,0.));
#666=DIRECTION('',(0.,0.,1.));
#667=DIRECTION('',(0.,-1.,0.));
#668=DIRECTION('',(0.,1.,0.));
#669=DIRECTION('',(1.,0.,0.));
#670=DIRECTION('',(0.,0.,-1.));
#671=DIRECTION('',(0.,-0.707106781186546,0.707106781186549));
#672=DIRECTION('',(0.577350269189627,-0.577350269189624,0.577350269189627));
#673=DIRECTION('',(0.,-0.707106781186549,-0.707106781186546));
#674=DIRECTION('',(1.,0.,0.));
#675=DIRECTION('',(-0.577350269189626,-0.577350269189626,-0.577350269189626));
#676=DIRECTION('',(-0.577350269189626,0.577350269189626,0.577350269189626));
#677=DIRECTION('',(0.,0.707106781186547,-0.707106781186547));
#678=DIRECTION('',(-1.,0.,0.));
#679=DIRECTION('',(0.707106781186547,0.,0.707106781186548));
#680=DIRECTION('',(0.707106781186548,0.,-0.707106781186547));
#681=DIRECTION('',(0.707106781186548,0.,-0.707106781186547));
#682=DIRECTION('',(-0.707106781186547,0.,-0.707106781186548));
#683=DIRECTION('',(0.,-1.,0.));
#684=DIRECTION('',(-0.707106781186547,0.,0.707106781186548));
#685=DIRECTION('',(-0.707106781186548,0.,-0.707106781186547));
#686=DIRECTION('',(0.707106781186547,0.,-0.707106781186548));
#687=DIRECTION('',(0.,1.,0.));
#688=DIRECTION('',(-1.,0.,0.));
#689=DIRECTION('',(0.,0.,1.));
#690=DIRECTION('',(0.,0.,-1.));
#691=DIRECTION('',(0.,-1.,0.));
#692=DIRECTION('',(0.,0.,-1.));
#693=DIRECTION('',(0.,0.,-1.));
#694=DIRECTION('',(0.,1.,0.));
#695=DIRECTION('',(0.,0.,1.));
#696=DIRECTION('',(-1.,0.,0.));
#697=DIRECTION('',(0.,0.,1.));
#698=DIRECTION('',(0.,0.,-1.));
#699=DIRECTION('',(1.,0.,0.));
#700=DIRECTION('',(0.,0.,1.));
#701=DIRECTION('',(0.,1.,0.));
#702=DIRECTION('',(0.,0.,1.));
#703=DIRECTION('',(0.,0.,-1.));
#704=DIRECTION('',(-1.,0.,0.));
#705=DIRECTION('',(0.,0.,1.));
#706=DIRECTION('',(-1.,0.,0.));
#707=DIRECTION('',(0.,0.,1.));
#708=DIRECTION('',(-0.999999999999997,0.,0.));
#709=DIRECTION('',(0.,-1.,0.));
#710=DIRECTION('',(0.,0.,1.));
#711=DIRECTION('',(-0.999999999999997,0.,0.));
#712=DIRECTION('',(0.,0.,1.));
#713=DIRECTION('',(-1.,0.,0.));
#714=DIRECTION('',(0.,0.,-1.));
#715=DIRECTION('',(-1.,0.,0.));
#716=DIRECTION('',(0.,0.,1.));
#717=DIRECTION('',(0.,0.,-1.));
#718=DIRECTION('',(1.,0.,0.));
#719=DIRECTION('',(0.,0.,-1.));
#720=DIRECTION('',(0.,0.,1.));
#721=DIRECTION('',(1.,0.,0.));
#722=DIRECTION('',(0.,0.,1.));
#723=DIRECTION('',(1.,0.,0.));
#724=DIRECTION('',(0.,0.,1.));
#725=DIRECTION('',(0.999999999999997,0.,0.));
#726=DIRECTION('',(0.,0.,1.));
#727=DIRECTION('',(0.999999999999997,0.,0.));
#728=DIRECTION('',(-1.,0.,0.));
#729=DIRECTION('',(0.,0.,1.));
#730=DIRECTION('',(0.,-1.,0.));
#731=DIRECTION('',(0.,0.,-1.));
#732=DIRECTION('',(0.,0.,-1.));
#733=DIRECTION('',(0.,1.,0.));
#734=DIRECTION('',(-1.,0.,0.));
#735=DIRECTION('',(0.,0.,1.));
#736=DIRECTION('',(0.,0.,-1.));
#737=DIRECTION('',(-1.,0.,0.));
#738=DIRECTION('',(0.,0.,1.));
#739=DIRECTION('',(-0.999999999999999,0.,0.));
#740=DIRECTION('',(0.,0.,-1.));
#741=DIRECTION('',(-1.,0.,0.));
#742=DIRECTION('',(0.,0.,1.));
#743=DIRECTION('',(0.999999999999999,0.,0.));
#744=DIRECTION('',(0.,0.,-1.));
#745=DIRECTION('',(1.,0.,0.));
#746=DIRECTION('',(0.,0.,-1.));
#747=DIRECTION('',(-1.,0.,0.));
#748=DIRECTION('',(0.,0.,-1.));
#749=DIRECTION('',(1.,0.,0.));
#750=DIRECTION('',(0.,0.,-1.));
#751=DIRECTION('',(1.,0.,0.));
#752=DIRECTION('',(0.,0.,-1.));
#753=DIRECTION('',(1.,0.,0.));
#754=DIRECTION('',(0.,0.,-1.));
#755=DIRECTION('',(-1.,0.,0.));
#756=DIRECTION('',(0.,0.,-1.));
#757=DIRECTION('',(1.,0.,0.));
#758=DIRECTION('',(0.,0.,-1.));
#759=DIRECTION('',(1.,0.,0.));
#760=CARTESIAN_POINT('',(0.,0.,0.));
#761=CARTESIAN_POINT('',(10.9,73.8,97.9));
#762=CARTESIAN_POINT('',(14.,67.6355859970311,97.9));
#763=CARTESIAN_POINT('',(14.,79.964414002969,97.9));
#764=CARTESIAN_POINT('',(14.,240.1,97.9));
#765=CARTESIAN_POINT('',(14.,6.3,97.9));
#766=CARTESIAN_POINT('',(153.25,6.3,97.9));
#767=CARTESIAN_POINT('',(295.1,6.3,97.9));
#768=CARTESIAN_POINT('',(295.1,240.1,97.9));
#769=CARTESIAN_POINT('',(295.1,12.4410526771435,97.9));
#770=CARTESIAN_POINT('',(287.2,24.6,97.9));
#771=CARTESIAN_POINT('',(295.1,36.7589473228566,97.9));
#772=CARTESIAN_POINT('',(295.1,240.1,97.9));
#773=CARTESIAN_POINT('',(295.1,330.3,97.9));
#774=CARTESIAN_POINT('',(153.25,330.3,97.9));
#775=CARTESIAN_POINT('',(245.5,330.3,97.9));
#776=CARTESIAN_POINT('',(245.5,344.,97.9));
#777=CARTESIAN_POINT('',(231.8,344.,97.9));
#778=CARTESIAN_POINT('',(231.8,240.1,97.9));
#779=CARTESIAN_POINT('',(231.8,477.5,97.9));
#780=CARTESIAN_POINT('',(153.25,477.5,97.9));
#781=CARTESIAN_POINT('',(14.,477.5,97.9));
#782=CARTESIAN_POINT('',(14.,240.1,97.9));
#783=CARTESIAN_POINT('',(153.25,68.9,97.9));
#784=CARTESIAN_POINT('',(86.6,68.9,97.9));
#785=CARTESIAN_POINT('',(165.,68.9,97.9));
#786=CARTESIAN_POINT('',(86.6,73.8,97.9));
#787=CARTESIAN_POINT('',(81.7,73.8,97.9));
#788=CARTESIAN_POINT('',(81.7,240.1,97.9));
#789=CARTESIAN_POINT('',(81.7,198.5,97.9));
#790=CARTESIAN_POINT('',(86.6,198.5,97.9));
#791=CARTESIAN_POINT('',(86.6,203.4,97.9));
#792=CARTESIAN_POINT('',(153.25,203.4,97.9));
#793=CARTESIAN_POINT('',(165.,203.4,97.9));
#794=CARTESIAN_POINT('',(165.,198.5,97.9));
#795=CARTESIAN_POINT('',(169.9,198.5,97.9));
#796=CARTESIAN_POINT('',(169.9,240.1,97.9));
#797=CARTESIAN_POINT('',(169.9,73.8,97.9));
#798=CARTESIAN_POINT('',(165.,73.8,97.9));
#799=CARTESIAN_POINT('',(153.25,240.1,97.9));
#800=CARTESIAN_POINT('',(153.25,0.,91.6));
#801=CARTESIAN_POINT('',(301.4,0.,91.6));
#802=CARTESIAN_POINT('',(7.70000000000001,0.,91.6));
#803=CARTESIAN_POINT('',(34.6750000000001,0.,118.575));
#804=CARTESIAN_POINT('',(0.,0.,83.9));
#805=CARTESIAN_POINT('',(0.,0.,0.));
#806=CARTESIAN_POINT('',(0.,0.,0.));
#807=CARTESIAN_POINT('',(153.25,0.,0.));
#808=CARTESIAN_POINT('',(306.5,0.,0.));
#809=CARTESIAN_POINT('',(306.5,0.,0.));
#810=CARTESIAN_POINT('',(306.5,0.,86.5));
#811=CARTESIAN_POINT('',(273.125,0.,119.875));
#812=CARTESIAN_POINT('',(153.25,0.,0.));
#813=CARTESIAN_POINT('',(0.,240.1,83.9));
#814=CARTESIAN_POINT('',(0.,480.2,83.9));
#815=CARTESIAN_POINT('',(0.,480.2,0.));
#816=CARTESIAN_POINT('',(0.,480.2,0.));
#817=CARTESIAN_POINT('',(0.,240.1,0.));
#818=CARTESIAN_POINT('',(0.,240.1,0.));
#819=CARTESIAN_POINT('',(231.8,480.2,63.1));
#820=CARTESIAN_POINT('',(231.8,480.2,63.1));
#821=CARTESIAN_POINT('',(231.8,480.2,95.2000000000001));
#822=CARTESIAN_POINT('',(269.15,480.2,63.1));
#823=CARTESIAN_POINT('',(306.5,480.2,63.1));
#824=CARTESIAN_POINT('',(306.5,480.2,0.));
#825=CARTESIAN_POINT('',(306.5,480.2,0.));
#826=CARTESIAN_POINT('',(153.25,480.2,0.));
#827=CARTESIAN_POINT('',(34.6750000000001,480.2,118.575));
#828=CARTESIAN_POINT('',(11.3,480.2,95.2));
#829=CARTESIAN_POINT('',(153.25,480.2,95.2));
#830=CARTESIAN_POINT('',(153.25,480.2,0.));
#831=CARTESIAN_POINT('',(148.2,123.9,0.));
#832=CARTESIAN_POINT('',(140.95,123.9,0.));
#833=CARTESIAN_POINT('',(285.4,421.5,0.));
#834=CARTESIAN_POINT('',(276.9,421.5,0.));
#835=CARTESIAN_POINT('',(306.5,240.1,0.));
#836=CARTESIAN_POINT('',(153.25,240.1,0.));
#837=CARTESIAN_POINT('',(306.5,330.3,63.1));
#838=CARTESIAN_POINT('',(306.5,330.3,63.1));
#839=CARTESIAN_POINT('',(306.5,330.3,86.5));
#840=CARTESIAN_POINT('',(306.5,240.1,86.5));
#841=CARTESIAN_POINT('',(306.5,405.25,63.1));
#842=CARTESIAN_POINT('',(306.5,240.1,0.));
#843=CARTESIAN_POINT('',(231.8,480.2,95.2));
#844=CARTESIAN_POINT('',(58.6166666666669,432.883333333333,142.516666666667));
#845=CARTESIAN_POINT('',(153.25,480.2,95.2));
#846=CARTESIAN_POINT('',(56.2166666666667,48.5166666666667,140.116666666667));
#847=CARTESIAN_POINT('',(252.016666666667,49.3833333333333,140.983333333333));
#848=CARTESIAN_POINT('',(153.25,0.,91.6));
#849=CARTESIAN_POINT('',(287.2,24.6,105.8));
#850=CARTESIAN_POINT('',(306.5,330.3,86.5));
#851=CARTESIAN_POINT('',(306.5,240.1,86.5));
#852=CARTESIAN_POINT('',(10.9,73.8,94.8));
#853=CARTESIAN_POINT('',(0.,240.1,83.9));
#854=CARTESIAN_POINT('',(125.8,68.9,72.));
#855=CARTESIAN_POINT('',(165.,68.9,72.));
#856=CARTESIAN_POINT('',(86.6,68.9,72.));
#857=CARTESIAN_POINT('',(86.6,68.9,97.9));
#858=CARTESIAN_POINT('',(165.,68.9,72.));
#859=CARTESIAN_POINT('',(125.8,68.9,72.));
#860=CARTESIAN_POINT('',(81.7,73.8,72.));
#861=CARTESIAN_POINT('',(81.7,73.8,72.));
#862=CARTESIAN_POINT('',(81.7,136.15,72.));
#863=CARTESIAN_POINT('',(81.7,198.5,72.));
#864=CARTESIAN_POINT('',(81.7,198.5,97.9));
#865=CARTESIAN_POINT('',(81.7,136.15,72.));
#866=CARTESIAN_POINT('',(86.6,203.4,72.));
#867=CARTESIAN_POINT('',(86.6,203.4,72.));
#868=CARTESIAN_POINT('',(125.8,203.4,72.));
#869=CARTESIAN_POINT('',(165.,203.4,72.));
#870=CARTESIAN_POINT('',(165.,203.4,97.9));
#871=CARTESIAN_POINT('',(125.8,203.4,72.));
#872=CARTESIAN_POINT('',(148.2,123.9,72.));
#873=CARTESIAN_POINT('',(140.95,123.9,72.));
#874=CARTESIAN_POINT('',(86.6,73.8,72.));
#875=CARTESIAN_POINT('',(165.,73.8,72.));
#876=CARTESIAN_POINT('',(169.9,73.8,72.));
#877=CARTESIAN_POINT('',(169.9,136.15,72.));
#878=CARTESIAN_POINT('',(169.9,198.5,72.));
#879=CARTESIAN_POINT('',(165.,198.5,72.));
#880=CARTESIAN_POINT('',(86.6,198.5,72.));
#881=CARTESIAN_POINT('',(125.8,136.15,72.));
#882=CARTESIAN_POINT('',(169.9,73.8,97.9));
#883=CARTESIAN_POINT('',(169.9,198.5,72.));
#884=CARTESIAN_POINT('',(169.9,136.15,72.));
#885=CARTESIAN_POINT('',(86.6,73.8,72.));
#886=CARTESIAN_POINT('',(86.6,198.5,72.));
#887=CARTESIAN_POINT('',(165.,73.8,72.));
#888=CARTESIAN_POINT('',(165.,198.5,72.));
#889=CARTESIAN_POINT('',(269.15,330.3,63.1));
#890=CARTESIAN_POINT('',(245.5,330.3,63.1));
#891=CARTESIAN_POINT('',(245.5,330.3,97.9));
#892=CARTESIAN_POINT('',(269.15,330.3,63.1));
#893=CARTESIAN_POINT('',(231.8,344.,63.1));
#894=CARTESIAN_POINT('',(231.8,344.,63.1));
#895=CARTESIAN_POINT('',(231.8,405.25,63.1));
#896=CARTESIAN_POINT('',(231.8,405.25,63.1));
#897=CARTESIAN_POINT('',(285.4,421.5,63.1));
#898=CARTESIAN_POINT('',(276.9,421.5,63.1));
#899=CARTESIAN_POINT('',(245.5,344.,63.1));
#900=CARTESIAN_POINT('',(269.15,405.25,63.1));
#901=CARTESIAN_POINT('',(245.5,344.,63.1));
#902=CARTESIAN_POINT('',(287.2,24.6,38.3));
#903=CARTESIAN_POINT('',(301.7,24.6,38.3));
#904=CARTESIAN_POINT('',(287.2,24.6,38.3));
#905=CARTESIAN_POINT('',(287.2,24.6,97.95));
#906=CARTESIAN_POINT('',(285.4,421.5,97.95));
#907=CARTESIAN_POINT('',(10.9,73.8,52.7));
#908=CARTESIAN_POINT('',(17.8,73.8,52.7));
#909=CARTESIAN_POINT('',(10.9,73.8,52.7));
#910=CARTESIAN_POINT('',(10.9,73.8,97.95));
#911=CARTESIAN_POINT('',(148.2,123.9,97.95));
#912=MECHANICAL_DESIGN_GEOMETRIC_PRESENTATION_REPRESENTATION('',(#24),#913);
#913=(
GEOMETRIC_REPRESENTATION_CONTEXT(3)
GLOBAL_UNCERTAINTY_ASSIGNED_CONTEXT((#914))
GLOBAL_UNIT_ASSIGNED_CONTEXT((#920,#916,#915))
REPRESENTATION_CONTEXT('featured_part_05709','TOP_LEVEL_ASSEMBLY_PART')
);
#914=UNCERTAINTY_MEASURE_WITH_UNIT(LENGTH_MEASURE(2.E-5),#920,
'DISTANCE_ACCURACY_VALUE','Maximum Tolerance applied to model');
#915=(
NAMED_UNIT(*)
SI_UNIT($,.STERADIAN.)
SOLID_ANGLE_UNIT()
);
#916=(
CONVERSION_BASED_UNIT('DEGREE',#918)
NAMED_UNIT(#917)
PLANE_ANGLE_UNIT()
);
#917=DIMENSIONAL_EXPONENTS(0.,0.,0.,0.,0.,0.,0.);
#918=PLANE_ANGLE_MEASURE_WITH_UNIT(PLANE_ANGLE_MEASURE(0.0174532925),#919);
#919=(
NAMED_UNIT(*)
PLANE_ANGLE_UNIT()
SI_UNIT($,.RADIAN.)
);
#920=(
LENGTH_UNIT()
NAMED_UNIT(*)
SI_UNIT(.MILLI.,.METRE.)
);
ENDSEC;
END-ISO-10303-21;
