ISO-10303-21;
HEADER;
/* Generated by software containing ST-Developer
 * from STEP Tools, Inc. (www.steptools.com) 
 */
/* OPTION: using custom schema-name function */

FILE_DESCRIPTION(
/* description */ (''),
/* implementation_level */ '2;1');

FILE_NAME(
/* name */ 'featured_part_02041.stp',
/* time_stamp */ '2026-07-03T17:27:37-04:00',
/* author */ (''),
/* organization */ (''),
/* preprocessor_version */ 'ST-DEVELOPER v20.1',
/* originating_system */ 'SIEMENS PLM Software NX2512.6002',
/* authorisation */ '');

FILE_SCHEMA (('AUTOMOTIVE_DESIGN { 1 0 10303 214 3 1 1 1 }'));
ENDSEC;

DATA;
#10=SHAPE_REPRESENTATION_RELATIONSHIP('None',
'relationship between featured_part_02041-None and featured_part_02041
-None',#22,#11);
#11=ADVANCED_BREP_SHAPE_REPRESENTATION('featured_part_02041-None',(#32),
#1437);
#12=SHAPE_DEFINITION_REPRESENTATION(#13,#22);
#13=PRODUCT_DEFINITION_SHAPE('','',#14);
#14=PRODUCT_DEFINITION(' ','',#16,#15);
#15=PRODUCT_DEFINITION_CONTEXT('part definition',#21,'design');
#16=PRODUCT_DEFINITION_FORMATION_WITH_SPECIFIED_SOURCE(' ',' ',#18,
 .NOT_KNOWN.);
#17=PRODUCT_RELATED_PRODUCT_CATEGORY('part','',(#18));
#18=PRODUCT('featured_part_02041','featured_part_02041',' ',(#19));
#19=PRODUCT_CONTEXT(' ',#21,'mechanical');
#20=APPLICATION_PROTOCOL_DEFINITION('international standard',
'automotive_design',2010,#21);
#21=APPLICATION_CONTEXT(
'core data for automotive mechanical design processes');
#22=SHAPE_REPRESENTATION('featured_part_02041-None',(#875),#1437);
#23=PRESENTATION_LAYER_ASSIGNMENT('1','Layer 1',(#32));
#24=STYLED_ITEM('',(#25),#32);
#25=PRESENTATION_STYLE_ASSIGNMENT((#26));
#26=SURFACE_STYLE_USAGE(.BOTH.,#27);
#27=SURFACE_SIDE_STYLE('',(#28));
#28=SURFACE_STYLE_FILL_AREA(#29);
#29=FILL_AREA_STYLE('',(#30));
#30=FILL_AREA_STYLE_COLOUR('',#31);
#31=COLOUR_RGB('medium steel',0.611764705882353,0.658823529411765,0.670588235294118);
#32=MANIFOLD_SOLID_BREP('',#33);
#33=CLOSED_SHELL('',(#96,#97,#98,#99,#100,#101,#102,#103,#104,#105,#106,
#107,#108,#109,#110,#111,#112,#113,#114,#115,#116,#117,#118,#119,#120,#121,
#122,#123,#124,#125,#126,#127,#128,#129,#130,#131,#132,#133,#134,#135,#136,
#137,#138,#139));
#34=CYLINDRICAL_SURFACE('',#906,10.5);
#35=CYLINDRICAL_SURFACE('',#917,7.6);
#36=CYLINDRICAL_SURFACE('',#918,7.6);
#37=CYLINDRICAL_SURFACE('',#919,7.6);
#38=CYLINDRICAL_SURFACE('',#920,7.6);
#39=CYLINDRICAL_SURFACE('',#931,10.7);
#40=CYLINDRICAL_SURFACE('',#932,10.7);
#41=CYLINDRICAL_SURFACE('',#933,10.7);
#42=CYLINDRICAL_SURFACE('',#934,10.7);
#43=CYLINDRICAL_SURFACE('',#939,4.5);
#44=CYLINDRICAL_SURFACE('',#946,9.);
#45=CYLINDRICAL_SURFACE('',#947,9.);
#46=CYLINDRICAL_SURFACE('',#948,13.);
#47=CYLINDRICAL_SURFACE('',#949,13.);
#48=CYLINDRICAL_SURFACE('',#950,13.);
#49=FACE_BOUND('',#208,.T.);
#50=FACE_BOUND('',#209,.T.);
#51=FACE_BOUND('',#210,.T.);
#52=FACE_BOUND('',#211,.T.);
#53=FACE_BOUND('',#215,.T.);
#54=FACE_BOUND('',#216,.T.);
#55=FACE_BOUND('',#217,.T.);
#56=FACE_BOUND('',#218,.T.);
#57=FACE_BOUND('',#238,.T.);
#58=FACE_BOUND('',#239,.T.);
#59=FACE_BOUND('',#255,.T.);
#60=FACE_BOUND('',#256,.T.);
#61=FACE_BOUND('',#257,.T.);
#62=FACE_BOUND('',#258,.T.);
#63=FACE_BOUND('',#259,.T.);
#64=FACE_BOUND('',#260,.T.);
#65=CIRCLE('',#877,13.);
#66=CIRCLE('',#878,7.6);
#67=CIRCLE('',#879,7.6);
#68=CIRCLE('',#880,7.6);
#69=CIRCLE('',#881,7.6);
#70=CIRCLE('',#882,13.);
#71=CIRCLE('',#883,9.);
#72=CIRCLE('',#884,9.);
#73=CIRCLE('',#885,10.5);
#74=CIRCLE('',#886,4.5);
#75=CIRCLE('',#887,10.7);
#76=CIRCLE('',#888,10.7);
#77=CIRCLE('',#889,10.7);
#78=CIRCLE('',#890,10.7);
#79=CIRCLE('',#895,13.);
#80=CIRCLE('',#896,13.);
#81=CIRCLE('',#897,13.);
#82=CIRCLE('',#903,10.5);
#83=CIRCLE('',#910,13.);
#84=CIRCLE('',#911,7.6);
#85=CIRCLE('',#912,7.6);
#86=CIRCLE('',#913,7.6);
#87=CIRCLE('',#914,7.6);
#88=CIRCLE('',#924,13.);
#89=CIRCLE('',#925,10.7);
#90=CIRCLE('',#926,10.7);
#91=CIRCLE('',#927,10.7);
#92=CIRCLE('',#928,10.7);
#93=CIRCLE('',#937,4.5);
#94=CIRCLE('',#943,9.);
#95=CIRCLE('',#944,9.);
#96=ADVANCED_FACE('',(#169),#140,.F.);
#97=ADVANCED_FACE('',(#49,#50,#51,#52),#141,.T.);
#98=ADVANCED_FACE('',(#170),#142,.T.);
#99=ADVANCED_FACE('',(#171),#143,.T.);
#100=ADVANCED_FACE('',(#172),#144,.T.);
#101=ADVANCED_FACE('',(#53,#54,#55,#56),#145,.T.);
#102=ADVANCED_FACE('',(#173),#146,.T.);
#103=ADVANCED_FACE('',(#174),#147,.F.);
#104=ADVANCED_FACE('',(#175),#148,.F.);
#105=ADVANCED_FACE('',(#176),#149,.F.);
#106=ADVANCED_FACE('',(#177),#150,.F.);
#107=ADVANCED_FACE('',(#178),#151,.F.);
#108=ADVANCED_FACE('',(#179),#34,.F.);
#109=ADVANCED_FACE('',(#180),#152,.F.);
#110=ADVANCED_FACE('',(#181),#153,.F.);
#111=ADVANCED_FACE('',(#182),#154,.F.);
#112=ADVANCED_FACE('',(#183),#155,.F.);
#113=ADVANCED_FACE('',(#184),#156,.F.);
#114=ADVANCED_FACE('',(#185),#35,.F.);
#115=ADVANCED_FACE('',(#186),#36,.F.);
#116=ADVANCED_FACE('',(#187),#37,.F.);
#117=ADVANCED_FACE('',(#188),#38,.F.);
#118=ADVANCED_FACE('',(#189),#157,.F.);
#119=ADVANCED_FACE('',(#190),#158,.F.);
#120=ADVANCED_FACE('',(#191),#159,.F.);
#121=ADVANCED_FACE('',(#57,#58),#160,.F.);
#122=ADVANCED_FACE('',(#192),#161,.F.);
#123=ADVANCED_FACE('',(#193),#39,.F.);
#124=ADVANCED_FACE('',(#194),#40,.F.);
#125=ADVANCED_FACE('',(#195),#41,.F.);
#126=ADVANCED_FACE('',(#196),#42,.F.);
#127=ADVANCED_FACE('',(#197),#162,.F.);
#128=ADVANCED_FACE('',(#198),#163,.F.);
#129=ADVANCED_FACE('',(#199),#164,.F.);
#130=ADVANCED_FACE('',(#200),#43,.F.);
#131=ADVANCED_FACE('',(#201),#165,.F.);
#132=ADVANCED_FACE('',(#202),#166,.F.);
#133=ADVANCED_FACE('',(#203),#167,.F.);
#134=ADVANCED_FACE('',(#204),#168,.F.);
#135=ADVANCED_FACE('',(#205),#44,.F.);
#136=ADVANCED_FACE('',(#206),#45,.F.);
#137=ADVANCED_FACE('',(#59,#60),#46,.F.);
#138=ADVANCED_FACE('',(#61,#62),#47,.F.);
#139=ADVANCED_FACE('',(#63,#64),#48,.F.);
#140=PLANE('',#876);
#141=PLANE('',#891);
#142=PLANE('',#892);
#143=PLANE('',#893);
#144=PLANE('',#894);
#145=PLANE('',#898);
#146=PLANE('',#899);
#147=PLANE('',#900);
#148=PLANE('',#901);
#149=PLANE('',#902);
#150=PLANE('',#904);
#151=PLANE('',#905);
#152=PLANE('',#907);
#153=PLANE('',#908);
#154=PLANE('',#909);
#155=PLANE('',#915);
#156=PLANE('',#916);
#157=PLANE('',#921);
#158=PLANE('',#922);
#159=PLANE('',#923);
#160=PLANE('',#929);
#161=PLANE('',#930);
#162=PLANE('',#935);
#163=PLANE('',#936);
#164=PLANE('',#938);
#165=PLANE('',#940);
#166=PLANE('',#941);
#167=PLANE('',#942);
#168=PLANE('',#945);
#169=FACE_OUTER_BOUND('',#207,.T.);
#170=FACE_OUTER_BOUND('',#212,.T.);
#171=FACE_OUTER_BOUND('',#213,.T.);
#172=FACE_OUTER_BOUND('',#214,.T.);
#173=FACE_OUTER_BOUND('',#219,.T.);
#174=FACE_OUTER_BOUND('',#220,.T.);
#175=FACE_OUTER_BOUND('',#221,.T.);
#176=FACE_OUTER_BOUND('',#222,.T.);
#177=FACE_OUTER_BOUND('',#223,.T.);
#178=FACE_OUTER_BOUND('',#224,.T.);
#179=FACE_OUTER_BOUND('',#225,.T.);
#180=FACE_OUTER_BOUND('',#226,.T.);
#181=FACE_OUTER_BOUND('',#227,.T.);
#182=FACE_OUTER_BOUND('',#228,.T.);
#183=FACE_OUTER_BOUND('',#229,.T.);
#184=FACE_OUTER_BOUND('',#230,.T.);
#185=FACE_OUTER_BOUND('',#231,.T.);
#186=FACE_OUTER_BOUND('',#232,.T.);
#187=FACE_OUTER_BOUND('',#233,.T.);
#188=FACE_OUTER_BOUND('',#234,.T.);
#189=FACE_OUTER_BOUND('',#235,.T.);
#190=FACE_OUTER_BOUND('',#236,.T.);
#191=FACE_OUTER_BOUND('',#237,.T.);
#192=FACE_OUTER_BOUND('',#240,.T.);
#193=FACE_OUTER_BOUND('',#241,.T.);
#194=FACE_OUTER_BOUND('',#242,.T.);
#195=FACE_OUTER_BOUND('',#243,.T.);
#196=FACE_OUTER_BOUND('',#244,.T.);
#197=FACE_OUTER_BOUND('',#245,.T.);
#198=FACE_OUTER_BOUND('',#246,.T.);
#199=FACE_OUTER_BOUND('',#247,.T.);
#200=FACE_OUTER_BOUND('',#248,.T.);
#201=FACE_OUTER_BOUND('',#249,.T.);
#202=FACE_OUTER_BOUND('',#250,.T.);
#203=FACE_OUTER_BOUND('',#251,.T.);
#204=FACE_OUTER_BOUND('',#252,.T.);
#205=FACE_OUTER_BOUND('',#253,.T.);
#206=FACE_OUTER_BOUND('',#254,.T.);
#207=EDGE_LOOP('',(#261,#262,#263,#264));
#208=EDGE_LOOP('',(#265,#266,#267,#268,#269,#270,#271,#272,#273,#274));
#209=EDGE_LOOP('',(#275));
#210=EDGE_LOOP('',(#276,#277,#278,#279,#280,#281,#282,#283,#284,#285,#286,
#287,#288,#289,#290,#291));
#211=EDGE_LOOP('',(#292,#293,#294,#295,#296,#297,#298,#299));
#212=EDGE_LOOP('',(#300,#301,#302,#303,#304,#305,#306));
#213=EDGE_LOOP('',(#307,#308,#309,#310,#311,#312));
#214=EDGE_LOOP('',(#313,#314,#315,#316,#317,#318));
#215=EDGE_LOOP('',(#319));
#216=EDGE_LOOP('',(#320));
#217=EDGE_LOOP('',(#321));
#218=EDGE_LOOP('',(#322,#323,#324,#325));
#219=EDGE_LOOP('',(#326,#327,#328,#329,#330,#331,#332,#333,#334,#335));
#220=EDGE_LOOP('',(#336,#337,#338,#339));
#221=EDGE_LOOP('',(#340,#341,#342,#343,#344));
#222=EDGE_LOOP('',(#345,#346,#347,#348,#349));
#223=EDGE_LOOP('',(#350,#351,#352,#353,#354));
#224=EDGE_LOOP('',(#355,#356,#357,#358));
#225=EDGE_LOOP('',(#359,#360,#361,#362));
#226=EDGE_LOOP('',(#363,#364,#365,#366));
#227=EDGE_LOOP('',(#367,#368,#369,#370));
#228=EDGE_LOOP('',(#371,#372,#373,#374));
#229=EDGE_LOOP('',(#375,#376,#377,#378,#379,#380,#381,#382,#383,#384));
#230=EDGE_LOOP('',(#385,#386,#387,#388));
#231=EDGE_LOOP('',(#389,#390,#391,#392));
#232=EDGE_LOOP('',(#393,#394,#395,#396));
#233=EDGE_LOOP('',(#397,#398,#399,#400));
#234=EDGE_LOOP('',(#401,#402,#403,#404));
#235=EDGE_LOOP('',(#405,#406,#407,#408));
#236=EDGE_LOOP('',(#409,#410,#411,#412));
#237=EDGE_LOOP('',(#413,#414,#415,#416));
#238=EDGE_LOOP('',(#417));
#239=EDGE_LOOP('',(#418,#419,#420,#421,#422,#423,#424,#425));
#240=EDGE_LOOP('',(#426,#427,#428,#429));
#241=EDGE_LOOP('',(#430,#431,#432,#433));
#242=EDGE_LOOP('',(#434,#435,#436,#437));
#243=EDGE_LOOP('',(#438,#439,#440,#441));
#244=EDGE_LOOP('',(#442,#443,#444,#445));
#245=EDGE_LOOP('',(#446,#447,#448,#449,#450));
#246=EDGE_LOOP('',(#451,#452,#453,#454));
#247=EDGE_LOOP('',(#455,#456,#457,#458,#459));
#248=EDGE_LOOP('',(#460,#461,#462,#463));
#249=EDGE_LOOP('',(#464,#465,#466,#467));
#250=EDGE_LOOP('',(#468,#469,#470,#471));
#251=EDGE_LOOP('',(#472,#473,#474,#475));
#252=EDGE_LOOP('',(#476,#477,#478,#479,#480,#481));
#253=EDGE_LOOP('',(#482,#483,#484,#485));
#254=EDGE_LOOP('',(#486,#487,#488,#489));
#255=EDGE_LOOP('',(#490));
#256=EDGE_LOOP('',(#491));
#257=EDGE_LOOP('',(#492));
#258=EDGE_LOOP('',(#493));
#259=EDGE_LOOP('',(#494));
#260=EDGE_LOOP('',(#495,#496,#497,#498));
#261=ORIENTED_EDGE('',*,*,#580,.T.);
#262=ORIENTED_EDGE('',*,*,#581,.T.);
#263=ORIENTED_EDGE('',*,*,#582,.T.);
#264=ORIENTED_EDGE('',*,*,#583,.T.);
#265=ORIENTED_EDGE('',*,*,#584,.F.);
#266=ORIENTED_EDGE('',*,*,#580,.F.);
#267=ORIENTED_EDGE('',*,*,#585,.T.);
#268=ORIENTED_EDGE('',*,*,#586,.F.);
#269=ORIENTED_EDGE('',*,*,#587,.T.);
#270=ORIENTED_EDGE('',*,*,#588,.F.);
#271=ORIENTED_EDGE('',*,*,#589,.T.);
#272=ORIENTED_EDGE('',*,*,#590,.F.);
#273=ORIENTED_EDGE('',*,*,#591,.T.);
#274=ORIENTED_EDGE('',*,*,#592,.F.);
#275=ORIENTED_EDGE('',*,*,#593,.F.);
#276=ORIENTED_EDGE('',*,*,#594,.F.);
#277=ORIENTED_EDGE('',*,*,#595,.T.);
#278=ORIENTED_EDGE('',*,*,#596,.F.);
#279=ORIENTED_EDGE('',*,*,#597,.T.);
#280=ORIENTED_EDGE('',*,*,#598,.F.);
#281=ORIENTED_EDGE('',*,*,#599,.F.);
#282=ORIENTED_EDGE('',*,*,#600,.F.);
#283=ORIENTED_EDGE('',*,*,#601,.F.);
#284=ORIENTED_EDGE('',*,*,#602,.T.);
#285=ORIENTED_EDGE('',*,*,#603,.F.);
#286=ORIENTED_EDGE('',*,*,#604,.T.);
#287=ORIENTED_EDGE('',*,*,#605,.T.);
#288=ORIENTED_EDGE('',*,*,#606,.F.);
#289=ORIENTED_EDGE('',*,*,#607,.T.);
#290=ORIENTED_EDGE('',*,*,#608,.F.);
#291=ORIENTED_EDGE('',*,*,#609,.F.);
#292=ORIENTED_EDGE('',*,*,#610,.F.);
#293=ORIENTED_EDGE('',*,*,#611,.T.);
#294=ORIENTED_EDGE('',*,*,#612,.F.);
#295=ORIENTED_EDGE('',*,*,#613,.T.);
#296=ORIENTED_EDGE('',*,*,#614,.F.);
#297=ORIENTED_EDGE('',*,*,#615,.T.);
#298=ORIENTED_EDGE('',*,*,#616,.F.);
#299=ORIENTED_EDGE('',*,*,#617,.T.);
#300=ORIENTED_EDGE('',*,*,#618,.T.);
#301=ORIENTED_EDGE('',*,*,#619,.T.);
#302=ORIENTED_EDGE('',*,*,#620,.T.);
#303=ORIENTED_EDGE('',*,*,#621,.F.);
#304=ORIENTED_EDGE('',*,*,#622,.T.);
#305=ORIENTED_EDGE('',*,*,#623,.T.);
#306=ORIENTED_EDGE('',*,*,#624,.F.);
#307=ORIENTED_EDGE('',*,*,#625,.F.);
#308=ORIENTED_EDGE('',*,*,#626,.F.);
#309=ORIENTED_EDGE('',*,*,#627,.F.);
#310=ORIENTED_EDGE('',*,*,#628,.T.);
#311=ORIENTED_EDGE('',*,*,#621,.T.);
#312=ORIENTED_EDGE('',*,*,#629,.T.);
#313=ORIENTED_EDGE('',*,*,#630,.F.);
#314=ORIENTED_EDGE('',*,*,#631,.T.);
#315=ORIENTED_EDGE('',*,*,#600,.T.);
#316=ORIENTED_EDGE('',*,*,#632,.F.);
#317=ORIENTED_EDGE('',*,*,#633,.T.);
#318=ORIENTED_EDGE('',*,*,#627,.T.);
#319=ORIENTED_EDGE('',*,*,#634,.F.);
#320=ORIENTED_EDGE('',*,*,#635,.F.);
#321=ORIENTED_EDGE('',*,*,#636,.F.);
#322=ORIENTED_EDGE('',*,*,#637,.F.);
#323=ORIENTED_EDGE('',*,*,#622,.F.);
#324=ORIENTED_EDGE('',*,*,#628,.F.);
#325=ORIENTED_EDGE('',*,*,#633,.F.);
#326=ORIENTED_EDGE('',*,*,#638,.T.);
#327=ORIENTED_EDGE('',*,*,#609,.T.);
#328=ORIENTED_EDGE('',*,*,#639,.F.);
#329=ORIENTED_EDGE('',*,*,#640,.F.);
#330=ORIENTED_EDGE('',*,*,#623,.F.);
#331=ORIENTED_EDGE('',*,*,#637,.T.);
#332=ORIENTED_EDGE('',*,*,#632,.T.);
#333=ORIENTED_EDGE('',*,*,#599,.T.);
#334=ORIENTED_EDGE('',*,*,#641,.F.);
#335=ORIENTED_EDGE('',*,*,#642,.F.);
#336=ORIENTED_EDGE('',*,*,#643,.F.);
#337=ORIENTED_EDGE('',*,*,#605,.F.);
#338=ORIENTED_EDGE('',*,*,#644,.T.);
#339=ORIENTED_EDGE('',*,*,#619,.F.);
#340=ORIENTED_EDGE('',*,*,#645,.F.);
#341=ORIENTED_EDGE('',*,*,#629,.F.);
#342=ORIENTED_EDGE('',*,*,#620,.F.);
#343=ORIENTED_EDGE('',*,*,#644,.F.);
#344=ORIENTED_EDGE('',*,*,#604,.F.);
#345=ORIENTED_EDGE('',*,*,#603,.T.);
#346=ORIENTED_EDGE('',*,*,#646,.T.);
#347=ORIENTED_EDGE('',*,*,#647,.T.);
#348=ORIENTED_EDGE('',*,*,#625,.T.);
#349=ORIENTED_EDGE('',*,*,#645,.T.);
#350=ORIENTED_EDGE('',*,*,#647,.F.);
#351=ORIENTED_EDGE('',*,*,#648,.T.);
#352=ORIENTED_EDGE('',*,*,#649,.F.);
#353=ORIENTED_EDGE('',*,*,#630,.T.);
#354=ORIENTED_EDGE('',*,*,#626,.T.);
#355=ORIENTED_EDGE('',*,*,#649,.T.);
#356=ORIENTED_EDGE('',*,*,#650,.T.);
#357=ORIENTED_EDGE('',*,*,#601,.T.);
#358=ORIENTED_EDGE('',*,*,#631,.F.);
#359=ORIENTED_EDGE('',*,*,#602,.F.);
#360=ORIENTED_EDGE('',*,*,#650,.F.);
#361=ORIENTED_EDGE('',*,*,#648,.F.);
#362=ORIENTED_EDGE('',*,*,#646,.F.);
#363=ORIENTED_EDGE('',*,*,#651,.T.);
#364=ORIENTED_EDGE('',*,*,#652,.T.);
#365=ORIENTED_EDGE('',*,*,#592,.T.);
#366=ORIENTED_EDGE('',*,*,#653,.T.);
#367=ORIENTED_EDGE('',*,*,#654,.T.);
#368=ORIENTED_EDGE('',*,*,#655,.T.);
#369=ORIENTED_EDGE('',*,*,#586,.T.);
#370=ORIENTED_EDGE('',*,*,#656,.T.);
#371=ORIENTED_EDGE('',*,*,#588,.T.);
#372=ORIENTED_EDGE('',*,*,#657,.T.);
#373=ORIENTED_EDGE('',*,*,#658,.T.);
#374=ORIENTED_EDGE('',*,*,#659,.T.);
#375=ORIENTED_EDGE('',*,*,#582,.F.);
#376=ORIENTED_EDGE('',*,*,#660,.T.);
#377=ORIENTED_EDGE('',*,*,#651,.F.);
#378=ORIENTED_EDGE('',*,*,#661,.T.);
#379=ORIENTED_EDGE('',*,*,#662,.F.);
#380=ORIENTED_EDGE('',*,*,#663,.T.);
#381=ORIENTED_EDGE('',*,*,#658,.F.);
#382=ORIENTED_EDGE('',*,*,#664,.T.);
#383=ORIENTED_EDGE('',*,*,#654,.F.);
#384=ORIENTED_EDGE('',*,*,#665,.T.);
#385=ORIENTED_EDGE('',*,*,#590,.T.);
#386=ORIENTED_EDGE('',*,*,#666,.T.);
#387=ORIENTED_EDGE('',*,*,#662,.T.);
#388=ORIENTED_EDGE('',*,*,#667,.T.);
#389=ORIENTED_EDGE('',*,*,#587,.F.);
#390=ORIENTED_EDGE('',*,*,#655,.F.);
#391=ORIENTED_EDGE('',*,*,#664,.F.);
#392=ORIENTED_EDGE('',*,*,#657,.F.);
#393=ORIENTED_EDGE('',*,*,#589,.F.);
#394=ORIENTED_EDGE('',*,*,#659,.F.);
#395=ORIENTED_EDGE('',*,*,#663,.F.);
#396=ORIENTED_EDGE('',*,*,#666,.F.);
#397=ORIENTED_EDGE('',*,*,#585,.F.);
#398=ORIENTED_EDGE('',*,*,#583,.F.);
#399=ORIENTED_EDGE('',*,*,#665,.F.);
#400=ORIENTED_EDGE('',*,*,#656,.F.);
#401=ORIENTED_EDGE('',*,*,#591,.F.);
#402=ORIENTED_EDGE('',*,*,#667,.F.);
#403=ORIENTED_EDGE('',*,*,#661,.F.);
#404=ORIENTED_EDGE('',*,*,#653,.F.);
#405=ORIENTED_EDGE('',*,*,#668,.T.);
#406=ORIENTED_EDGE('',*,*,#669,.T.);
#407=ORIENTED_EDGE('',*,*,#610,.T.);
#408=ORIENTED_EDGE('',*,*,#670,.T.);
#409=ORIENTED_EDGE('',*,*,#671,.T.);
#410=ORIENTED_EDGE('',*,*,#672,.T.);
#411=ORIENTED_EDGE('',*,*,#612,.T.);
#412=ORIENTED_EDGE('',*,*,#673,.T.);
#413=ORIENTED_EDGE('',*,*,#614,.T.);
#414=ORIENTED_EDGE('',*,*,#674,.T.);
#415=ORIENTED_EDGE('',*,*,#675,.T.);
#416=ORIENTED_EDGE('',*,*,#676,.T.);
#417=ORIENTED_EDGE('',*,*,#677,.T.);
#418=ORIENTED_EDGE('',*,*,#675,.F.);
#419=ORIENTED_EDGE('',*,*,#678,.T.);
#420=ORIENTED_EDGE('',*,*,#671,.F.);
#421=ORIENTED_EDGE('',*,*,#679,.T.);
#422=ORIENTED_EDGE('',*,*,#668,.F.);
#423=ORIENTED_EDGE('',*,*,#680,.T.);
#424=ORIENTED_EDGE('',*,*,#681,.F.);
#425=ORIENTED_EDGE('',*,*,#682,.T.);
#426=ORIENTED_EDGE('',*,*,#681,.T.);
#427=ORIENTED_EDGE('',*,*,#683,.T.);
#428=ORIENTED_EDGE('',*,*,#616,.T.);
#429=ORIENTED_EDGE('',*,*,#684,.T.);
#430=ORIENTED_EDGE('',*,*,#613,.F.);
#431=ORIENTED_EDGE('',*,*,#672,.F.);
#432=ORIENTED_EDGE('',*,*,#678,.F.);
#433=ORIENTED_EDGE('',*,*,#674,.F.);
#434=ORIENTED_EDGE('',*,*,#611,.F.);
#435=ORIENTED_EDGE('',*,*,#669,.F.);
#436=ORIENTED_EDGE('',*,*,#679,.F.);
#437=ORIENTED_EDGE('',*,*,#673,.F.);
#438=ORIENTED_EDGE('',*,*,#617,.F.);
#439=ORIENTED_EDGE('',*,*,#683,.F.);
#440=ORIENTED_EDGE('',*,*,#680,.F.);
#441=ORIENTED_EDGE('',*,*,#670,.F.);
#442=ORIENTED_EDGE('',*,*,#615,.F.);
#443=ORIENTED_EDGE('',*,*,#676,.F.);
#444=ORIENTED_EDGE('',*,*,#682,.F.);
#445=ORIENTED_EDGE('',*,*,#684,.F.);
#446=ORIENTED_EDGE('',*,*,#685,.T.);
#447=ORIENTED_EDGE('',*,*,#686,.T.);
#448=ORIENTED_EDGE('',*,*,#606,.T.);
#449=ORIENTED_EDGE('',*,*,#643,.T.);
#450=ORIENTED_EDGE('',*,*,#618,.F.);
#451=ORIENTED_EDGE('',*,*,#608,.T.);
#452=ORIENTED_EDGE('',*,*,#687,.T.);
#453=ORIENTED_EDGE('',*,*,#688,.T.);
#454=ORIENTED_EDGE('',*,*,#639,.T.);
#455=ORIENTED_EDGE('',*,*,#688,.F.);
#456=ORIENTED_EDGE('',*,*,#689,.T.);
#457=ORIENTED_EDGE('',*,*,#685,.F.);
#458=ORIENTED_EDGE('',*,*,#624,.T.);
#459=ORIENTED_EDGE('',*,*,#640,.T.);
#460=ORIENTED_EDGE('',*,*,#607,.F.);
#461=ORIENTED_EDGE('',*,*,#686,.F.);
#462=ORIENTED_EDGE('',*,*,#689,.F.);
#463=ORIENTED_EDGE('',*,*,#687,.F.);
#464=ORIENTED_EDGE('',*,*,#690,.T.);
#465=ORIENTED_EDGE('',*,*,#691,.T.);
#466=ORIENTED_EDGE('',*,*,#594,.T.);
#467=ORIENTED_EDGE('',*,*,#638,.F.);
#468=ORIENTED_EDGE('',*,*,#596,.T.);
#469=ORIENTED_EDGE('',*,*,#692,.T.);
#470=ORIENTED_EDGE('',*,*,#693,.T.);
#471=ORIENTED_EDGE('',*,*,#694,.T.);
#472=ORIENTED_EDGE('',*,*,#598,.T.);
#473=ORIENTED_EDGE('',*,*,#695,.T.);
#474=ORIENTED_EDGE('',*,*,#696,.T.);
#475=ORIENTED_EDGE('',*,*,#641,.T.);
#476=ORIENTED_EDGE('',*,*,#693,.F.);
#477=ORIENTED_EDGE('',*,*,#697,.T.);
#478=ORIENTED_EDGE('',*,*,#690,.F.);
#479=ORIENTED_EDGE('',*,*,#642,.T.);
#480=ORIENTED_EDGE('',*,*,#696,.F.);
#481=ORIENTED_EDGE('',*,*,#698,.T.);
#482=ORIENTED_EDGE('',*,*,#595,.F.);
#483=ORIENTED_EDGE('',*,*,#691,.F.);
#484=ORIENTED_EDGE('',*,*,#697,.F.);
#485=ORIENTED_EDGE('',*,*,#692,.F.);
#486=ORIENTED_EDGE('',*,*,#597,.F.);
#487=ORIENTED_EDGE('',*,*,#694,.F.);
#488=ORIENTED_EDGE('',*,*,#698,.F.);
#489=ORIENTED_EDGE('',*,*,#695,.F.);
#490=ORIENTED_EDGE('',*,*,#636,.T.);
#491=ORIENTED_EDGE('',*,*,#677,.F.);
#492=ORIENTED_EDGE('',*,*,#593,.T.);
#493=ORIENTED_EDGE('',*,*,#635,.T.);
#494=ORIENTED_EDGE('',*,*,#634,.T.);
#495=ORIENTED_EDGE('',*,*,#584,.T.);
#496=ORIENTED_EDGE('',*,*,#652,.F.);
#497=ORIENTED_EDGE('',*,*,#660,.F.);
#498=ORIENTED_EDGE('',*,*,#581,.F.);
#499=VERTEX_POINT('',#1193);
#500=VERTEX_POINT('',#1194);
#501=VERTEX_POINT('',#1196);
#502=VERTEX_POINT('',#1198);
#503=VERTEX_POINT('',#1202);
#504=VERTEX_POINT('',#1204);
#505=VERTEX_POINT('',#1206);
#506=VERTEX_POINT('',#1208);
#507=VERTEX_POINT('',#1210);
#508=VERTEX_POINT('',#1212);
#509=VERTEX_POINT('',#1214);
#510=VERTEX_POINT('',#1216);
#511=VERTEX_POINT('',#1219);
#512=VERTEX_POINT('',#1221);
#513=VERTEX_POINT('',#1222);
#514=VERTEX_POINT('',#1224);
#515=VERTEX_POINT('',#1226);
#516=VERTEX_POINT('',#1228);
#517=VERTEX_POINT('',#1230);
#518=VERTEX_POINT('',#1232);
#519=VERTEX_POINT('',#1234);
#520=VERTEX_POINT('',#1236);
#521=VERTEX_POINT('',#1238);
#522=VERTEX_POINT('',#1240);
#523=VERTEX_POINT('',#1242);
#524=VERTEX_POINT('',#1244);
#525=VERTEX_POINT('',#1246);
#526=VERTEX_POINT('',#1248);
#527=VERTEX_POINT('',#1250);
#528=VERTEX_POINT('',#1253);
#529=VERTEX_POINT('',#1254);
#530=VERTEX_POINT('',#1256);
#531=VERTEX_POINT('',#1258);
#532=VERTEX_POINT('',#1260);
#533=VERTEX_POINT('',#1262);
#534=VERTEX_POINT('',#1264);
#535=VERTEX_POINT('',#1266);
#536=VERTEX_POINT('',#1270);
#537=VERTEX_POINT('',#1271);
#538=VERTEX_POINT('',#1273);
#539=VERTEX_POINT('',#1275);
#540=VERTEX_POINT('',#1277);
#541=VERTEX_POINT('',#1279);
#542=VERTEX_POINT('',#1281);
#543=VERTEX_POINT('',#1285);
#544=VERTEX_POINT('',#1286);
#545=VERTEX_POINT('',#1288);
#546=VERTEX_POINT('',#1290);
#547=VERTEX_POINT('',#1295);
#548=VERTEX_POINT('',#1298);
#549=VERTEX_POINT('',#1302);
#550=VERTEX_POINT('',#1304);
#551=VERTEX_POINT('',#1306);
#552=VERTEX_POINT('',#1310);
#553=VERTEX_POINT('',#1312);
#554=VERTEX_POINT('',#1315);
#555=VERTEX_POINT('',#1324);
#556=VERTEX_POINT('',#1328);
#557=VERTEX_POINT('',#1335);
#558=VERTEX_POINT('',#1336);
#559=VERTEX_POINT('',#1341);
#560=VERTEX_POINT('',#1342);
#561=VERTEX_POINT('',#1347);
#562=VERTEX_POINT('',#1349);
#563=VERTEX_POINT('',#1354);
#564=VERTEX_POINT('',#1356);
#565=VERTEX_POINT('',#1369);
#566=VERTEX_POINT('',#1370);
#567=VERTEX_POINT('',#1375);
#568=VERTEX_POINT('',#1376);
#569=VERTEX_POINT('',#1381);
#570=VERTEX_POINT('',#1383);
#571=VERTEX_POINT('',#1387);
#572=VERTEX_POINT('',#1391);
#573=VERTEX_POINT('',#1393);
#574=VERTEX_POINT('',#1404);
#575=VERTEX_POINT('',#1408);
#576=VERTEX_POINT('',#1415);
#577=VERTEX_POINT('',#1419);
#578=VERTEX_POINT('',#1421);
#579=VERTEX_POINT('',#1425);
#580=EDGE_CURVE('',#499,#500,#699,.T.);
#581=EDGE_CURVE('',#500,#501,#700,.T.);
#582=EDGE_CURVE('',#501,#502,#701,.T.);
#583=EDGE_CURVE('',#502,#499,#702,.T.);
#584=EDGE_CURVE('',#500,#503,#65,.T.);
#585=EDGE_CURVE('',#499,#504,#66,.T.);
#586=EDGE_CURVE('',#505,#504,#703,.T.);
#587=EDGE_CURVE('',#505,#506,#67,.T.);
#588=EDGE_CURVE('',#507,#506,#704,.T.);
#589=EDGE_CURVE('',#507,#508,#68,.T.);
#590=EDGE_CURVE('',#509,#508,#705,.T.);
#591=EDGE_CURVE('',#509,#510,#69,.T.);
#592=EDGE_CURVE('',#503,#510,#706,.T.);
#593=EDGE_CURVE('',#511,#511,#70,.T.);
#594=EDGE_CURVE('',#512,#513,#707,.T.);
#595=EDGE_CURVE('',#512,#514,#71,.T.);
#596=EDGE_CURVE('',#515,#514,#708,.T.);
#597=EDGE_CURVE('',#515,#516,#72,.T.);
#598=EDGE_CURVE('',#517,#516,#709,.T.);
#599=EDGE_CURVE('',#518,#517,#710,.T.);
#600=EDGE_CURVE('',#519,#518,#711,.T.);
#601=EDGE_CURVE('',#520,#519,#712,.T.);
#602=EDGE_CURVE('',#520,#521,#73,.T.);
#603=EDGE_CURVE('',#522,#521,#713,.T.);
#604=EDGE_CURVE('',#522,#523,#714,.T.);
#605=EDGE_CURVE('',#523,#524,#715,.T.);
#606=EDGE_CURVE('',#525,#524,#716,.T.);
#607=EDGE_CURVE('',#525,#526,#74,.T.);
#608=EDGE_CURVE('',#527,#526,#717,.T.);
#609=EDGE_CURVE('',#513,#527,#718,.T.);
#610=EDGE_CURVE('',#528,#529,#719,.T.);
#611=EDGE_CURVE('',#528,#530,#75,.T.);
#612=EDGE_CURVE('',#531,#530,#720,.T.);
#613=EDGE_CURVE('',#531,#532,#76,.T.);
#614=EDGE_CURVE('',#533,#532,#721,.T.);
#615=EDGE_CURVE('',#533,#534,#77,.T.);
#616=EDGE_CURVE('',#535,#534,#722,.T.);
#617=EDGE_CURVE('',#535,#529,#78,.T.);
#618=EDGE_CURVE('',#536,#537,#723,.T.);
#619=EDGE_CURVE('',#537,#538,#724,.T.);
#620=EDGE_CURVE('',#538,#539,#725,.T.);
#621=EDGE_CURVE('',#540,#539,#726,.T.);
#622=EDGE_CURVE('',#540,#541,#727,.T.);
#623=EDGE_CURVE('',#541,#542,#728,.T.);
#624=EDGE_CURVE('',#536,#542,#729,.T.);
#625=EDGE_CURVE('',#543,#544,#730,.T.);
#626=EDGE_CURVE('',#545,#543,#731,.T.);
#627=EDGE_CURVE('',#546,#545,#732,.T.);
#628=EDGE_CURVE('',#546,#540,#733,.T.);
#629=EDGE_CURVE('',#539,#544,#734,.T.);
#630=EDGE_CURVE('',#547,#545,#735,.T.);
#631=EDGE_CURVE('',#547,#519,#736,.T.);
#632=EDGE_CURVE('',#548,#518,#737,.T.);
#633=EDGE_CURVE('',#548,#546,#738,.T.);
#634=EDGE_CURVE('',#549,#549,#79,.T.);
#635=EDGE_CURVE('',#550,#550,#80,.T.);
#636=EDGE_CURVE('',#551,#551,#81,.T.);
#637=EDGE_CURVE('',#541,#548,#739,.T.);
#638=EDGE_CURVE('',#552,#513,#740,.T.);
#639=EDGE_CURVE('',#553,#527,#741,.T.);
#640=EDGE_CURVE('',#542,#553,#742,.T.);
#641=EDGE_CURVE('',#554,#517,#743,.T.);
#642=EDGE_CURVE('',#552,#554,#744,.T.);
#643=EDGE_CURVE('',#524,#537,#745,.T.);
#644=EDGE_CURVE('',#523,#538,#746,.T.);
#645=EDGE_CURVE('',#544,#522,#747,.T.);
#646=EDGE_CURVE('',#521,#555,#748,.T.);
#647=EDGE_CURVE('',#555,#543,#749,.T.);
#648=EDGE_CURVE('',#555,#556,#82,.T.);
#649=EDGE_CURVE('',#547,#556,#750,.T.);
#650=EDGE_CURVE('',#556,#520,#751,.T.);
#651=EDGE_CURVE('',#557,#558,#752,.T.);
#652=EDGE_CURVE('',#558,#503,#753,.T.);
#653=EDGE_CURVE('',#510,#557,#754,.T.);
#654=EDGE_CURVE('',#559,#560,#755,.T.);
#655=EDGE_CURVE('',#560,#505,#756,.T.);
#656=EDGE_CURVE('',#504,#559,#757,.T.);
#657=EDGE_CURVE('',#506,#561,#758,.T.);
#658=EDGE_CURVE('',#561,#562,#759,.T.);
#659=EDGE_CURVE('',#562,#507,#760,.T.);
#660=EDGE_CURVE('',#501,#558,#83,.T.);
#661=EDGE_CURVE('',#557,#563,#84,.T.);
#662=EDGE_CURVE('',#564,#563,#761,.T.);
#663=EDGE_CURVE('',#564,#562,#85,.T.);
#664=EDGE_CURVE('',#561,#560,#86,.T.);
#665=EDGE_CURVE('',#559,#502,#87,.T.);
#666=EDGE_CURVE('',#508,#564,#762,.T.);
#667=EDGE_CURVE('',#563,#509,#763,.T.);
#668=EDGE_CURVE('',#565,#566,#764,.T.);
#669=EDGE_CURVE('',#566,#528,#765,.T.);
#670=EDGE_CURVE('',#529,#565,#766,.T.);
#671=EDGE_CURVE('',#567,#568,#767,.T.);
#672=EDGE_CURVE('',#568,#531,#768,.T.);
#673=EDGE_CURVE('',#530,#567,#769,.T.);
#674=EDGE_CURVE('',#532,#569,#770,.T.);
#675=EDGE_CURVE('',#569,#570,#771,.T.);
#676=EDGE_CURVE('',#570,#533,#772,.T.);
#677=EDGE_CURVE('',#571,#571,#88,.T.);
#678=EDGE_CURVE('',#569,#568,#89,.T.);
#679=EDGE_CURVE('',#567,#566,#90,.T.);
#680=EDGE_CURVE('',#565,#572,#91,.T.);
#681=EDGE_CURVE('',#573,#572,#773,.T.);
#682=EDGE_CURVE('',#573,#570,#92,.T.);
#683=EDGE_CURVE('',#572,#535,#774,.T.);
#684=EDGE_CURVE('',#534,#573,#775,.T.);
#685=EDGE_CURVE('',#536,#574,#776,.T.);
#686=EDGE_CURVE('',#574,#525,#777,.T.);
#687=EDGE_CURVE('',#526,#575,#778,.T.);
#688=EDGE_CURVE('',#575,#553,#779,.T.);
#689=EDGE_CURVE('',#575,#574,#93,.T.);
#690=EDGE_CURVE('',#552,#576,#780,.T.);
#691=EDGE_CURVE('',#576,#512,#781,.T.);
#692=EDGE_CURVE('',#514,#577,#782,.T.);
#693=EDGE_CURVE('',#577,#578,#783,.T.);
#694=EDGE_CURVE('',#578,#515,#784,.T.);
#695=EDGE_CURVE('',#516,#579,#785,.T.);
#696=EDGE_CURVE('',#579,#554,#786,.T.);
#697=EDGE_CURVE('',#577,#576,#94,.T.);
#698=EDGE_CURVE('',#579,#578,#95,.T.);
#699=LINE('',#1192,#787);
#700=LINE('',#1195,#788);
#701=LINE('',#1197,#789);
#702=LINE('',#1199,#790);
#703=LINE('',#1205,#791);
#704=LINE('',#1209,#792);
#705=LINE('',#1213,#793);
#706=LINE('',#1217,#794);
#707=LINE('',#1220,#795);
#708=LINE('',#1225,#796);
#709=LINE('',#1229,#797);
#710=LINE('',#1231,#798);
#711=LINE('',#1233,#799);
#712=LINE('',#1235,#800);
#713=LINE('',#1239,#801);
#714=LINE('',#1241,#802);
#715=LINE('',#1243,#803);
#716=LINE('',#1245,#804);
#717=LINE('',#1249,#805);
#718=LINE('',#1251,#806);
#719=LINE('',#1252,#807);
#720=LINE('',#1257,#808);
#721=LINE('',#1261,#809);
#722=LINE('',#1265,#810);
#723=LINE('',#1269,#811);
#724=LINE('',#1272,#812);
#725=LINE('',#1274,#813);
#726=LINE('',#1276,#814);
#727=LINE('',#1278,#815);
#728=LINE('',#1280,#816);
#729=LINE('',#1282,#817);
#730=LINE('',#1284,#818);
#731=LINE('',#1287,#819);
#732=LINE('',#1289,#820);
#733=LINE('',#1291,#821);
#734=LINE('',#1292,#822);
#735=LINE('',#1294,#823);
#736=LINE('',#1296,#824);
#737=LINE('',#1297,#825);
#738=LINE('',#1299,#826);
#739=LINE('',#1307,#827);
#740=LINE('',#1309,#828);
#741=LINE('',#1311,#829);
#742=LINE('',#1313,#830);
#743=LINE('',#1314,#831);
#744=LINE('',#1316,#832);
#745=LINE('',#1318,#833);
#746=LINE('',#1319,#834);
#747=LINE('',#1321,#835);
#748=LINE('',#1323,#836);
#749=LINE('',#1325,#837);
#750=LINE('',#1329,#838);
#751=LINE('',#1331,#839);
#752=LINE('',#1334,#840);
#753=LINE('',#1337,#841);
#754=LINE('',#1338,#842);
#755=LINE('',#1340,#843);
#756=LINE('',#1343,#844);
#757=LINE('',#1344,#845);
#758=LINE('',#1346,#846);
#759=LINE('',#1348,#847);
#760=LINE('',#1350,#848);
#761=LINE('',#1355,#849);
#762=LINE('',#1361,#850);
#763=LINE('',#1362,#851);
#764=LINE('',#1368,#852);
#765=LINE('',#1371,#853);
#766=LINE('',#1372,#854);
#767=LINE('',#1374,#855);
#768=LINE('',#1377,#856);
#769=LINE('',#1378,#857);
#770=LINE('',#1380,#858);
#771=LINE('',#1382,#859);
#772=LINE('',#1384,#860);
#773=LINE('',#1392,#861);
#774=LINE('',#1396,#862);
#775=LINE('',#1397,#863);
#776=LINE('',#1403,#864);
#777=LINE('',#1405,#865);
#778=LINE('',#1407,#866);
#779=LINE('',#1409,#867);
#780=LINE('',#1414,#868);
#781=LINE('',#1416,#869);
#782=LINE('',#1418,#870);
#783=LINE('',#1420,#871);
#784=LINE('',#1422,#872);
#785=LINE('',#1424,#873);
#786=LINE('',#1426,#874);
#787=VECTOR('',#953,1.);
#788=VECTOR('',#954,1.);
#789=VECTOR('',#955,1.);
#790=VECTOR('',#956,1.);
#791=VECTOR('',#963,1.);
#792=VECTOR('',#966,1.);
#793=VECTOR('',#969,1.);
#794=VECTOR('',#972,1.);
#795=VECTOR('',#975,1.);
#796=VECTOR('',#978,1.);
#797=VECTOR('',#981,1.);
#798=VECTOR('',#982,1.);
#799=VECTOR('',#983,1.);
#800=VECTOR('',#984,1.);
#801=VECTOR('',#987,1.);
#802=VECTOR('',#988,1.);
#803=VECTOR('',#989,1.);
#804=VECTOR('',#990,1.);
#805=VECTOR('',#993,1.);
#806=VECTOR('',#994,1.);
#807=VECTOR('',#995,1.);
#808=VECTOR('',#998,1.);
#809=VECTOR('',#1001,1.);
#810=VECTOR('',#1004,1.);
#811=VECTOR('',#1009,1.);
#812=VECTOR('',#1010,1.);
#813=VECTOR('',#1011,1.);
#814=VECTOR('',#1012,1.);
#815=VECTOR('',#1013,1.);
#816=VECTOR('',#1014,1.);
#817=VECTOR('',#1015,1.);
#818=VECTOR('',#1018,1.);
#819=VECTOR('',#1019,1.);
#820=VECTOR('',#1020,1.);
#821=VECTOR('',#1021,1.);
#822=VECTOR('',#1022,1.);
#823=VECTOR('',#1025,1.);
#824=VECTOR('',#1026,1.);
#825=VECTOR('',#1027,1.);
#826=VECTOR('',#1028,1.);
#827=VECTOR('',#1037,1.);
#828=VECTOR('',#1040,1.);
#829=VECTOR('',#1041,1.);
#830=VECTOR('',#1042,1.);
#831=VECTOR('',#1043,1.);
#832=VECTOR('',#1044,1.);
#833=VECTOR('',#1047,1.);
#834=VECTOR('',#1048,1.);
#835=VECTOR('',#1051,1.);
#836=VECTOR('',#1054,1.);
#837=VECTOR('',#1055,1.);
#838=VECTOR('',#1060,1.);
#839=VECTOR('',#1063,1.);
#840=VECTOR('',#1068,1.);
#841=VECTOR('',#1069,1.);
#842=VECTOR('',#1070,1.);
#843=VECTOR('',#1073,1.);
#844=VECTOR('',#1074,1.);
#845=VECTOR('',#1075,1.);
#846=VECTOR('',#1078,1.);
#847=VECTOR('',#1079,1.);
#848=VECTOR('',#1080,1.);
#849=VECTOR('',#1087,1.);
#850=VECTOR('',#1096,1.);
#851=VECTOR('',#1097,1.);
#852=VECTOR('',#1108,1.);
#853=VECTOR('',#1109,1.);
#854=VECTOR('',#1110,1.);
#855=VECTOR('',#1113,1.);
#856=VECTOR('',#1114,1.);
#857=VECTOR('',#1115,1.);
#858=VECTOR('',#1118,1.);
#859=VECTOR('',#1119,1.);
#860=VECTOR('',#1120,1.);
#861=VECTOR('',#1131,1.);
#862=VECTOR('',#1136,1.);
#863=VECTOR('',#1137,1.);
#864=VECTOR('',#1148,1.);
#865=VECTOR('',#1149,1.);
#866=VECTOR('',#1152,1.);
#867=VECTOR('',#1153,1.);
#868=VECTOR('',#1162,1.);
#869=VECTOR('',#1163,1.);
#870=VECTOR('',#1166,1.);
#871=VECTOR('',#1167,1.);
#872=VECTOR('',#1168,1.);
#873=VECTOR('',#1171,1.);
#874=VECTOR('',#1172,1.);
#875=AXIS2_PLACEMENT_3D('',#1191,#951,#952);
#876=AXIS2_PLACEMENT_3D('',#1200,#957,#958);
#877=AXIS2_PLACEMENT_3D('',#1201,#959,#960);
#878=AXIS2_PLACEMENT_3D('',#1203,#961,#962);
#879=AXIS2_PLACEMENT_3D('',#1207,#964,#965);
#880=AXIS2_PLACEMENT_3D('',#1211,#967,#968);
#881=AXIS2_PLACEMENT_3D('',#1215,#970,#971);
#882=AXIS2_PLACEMENT_3D('',#1218,#973,#974);
#883=AXIS2_PLACEMENT_3D('',#1223,#976,#977);
#884=AXIS2_PLACEMENT_3D('',#1227,#979,#980);
#885=AXIS2_PLACEMENT_3D('',#1237,#985,#986);
#886=AXIS2_PLACEMENT_3D('',#1247,#991,#992);
#887=AXIS2_PLACEMENT_3D('',#1255,#996,#997);
#888=AXIS2_PLACEMENT_3D('',#1259,#999,#1000);
#889=AXIS2_PLACEMENT_3D('',#1263,#1002,#1003);
#890=AXIS2_PLACEMENT_3D('',#1267,#1005,#1006);
#891=AXIS2_PLACEMENT_3D('',#1268,#1007,#1008);
#892=AXIS2_PLACEMENT_3D('',#1283,#1016,#1017);
#893=AXIS2_PLACEMENT_3D('',#1293,#1023,#1024);
#894=AXIS2_PLACEMENT_3D('',#1300,#1029,#1030);
#895=AXIS2_PLACEMENT_3D('',#1301,#1031,#1032);
#896=AXIS2_PLACEMENT_3D('',#1303,#1033,#1034);
#897=AXIS2_PLACEMENT_3D('',#1305,#1035,#1036);
#898=AXIS2_PLACEMENT_3D('',#1308,#1038,#1039);
#899=AXIS2_PLACEMENT_3D('',#1317,#1045,#1046);
#900=AXIS2_PLACEMENT_3D('',#1320,#1049,#1050);
#901=AXIS2_PLACEMENT_3D('',#1322,#1052,#1053);
#902=AXIS2_PLACEMENT_3D('',#1326,#1056,#1057);
#903=AXIS2_PLACEMENT_3D('',#1327,#1058,#1059);
#904=AXIS2_PLACEMENT_3D('',#1330,#1061,#1062);
#905=AXIS2_PLACEMENT_3D('',#1332,#1064,#1065);
#906=AXIS2_PLACEMENT_3D('',#1333,#1066,#1067);
#907=AXIS2_PLACEMENT_3D('',#1339,#1071,#1072);
#908=AXIS2_PLACEMENT_3D('',#1345,#1076,#1077);
#909=AXIS2_PLACEMENT_3D('',#1351,#1081,#1082);
#910=AXIS2_PLACEMENT_3D('',#1352,#1083,#1084);
#911=AXIS2_PLACEMENT_3D('',#1353,#1085,#1086);
#912=AXIS2_PLACEMENT_3D('',#1357,#1088,#1089);
#913=AXIS2_PLACEMENT_3D('',#1358,#1090,#1091);
#914=AXIS2_PLACEMENT_3D('',#1359,#1092,#1093);
#915=AXIS2_PLACEMENT_3D('',#1360,#1094,#1095);
#916=AXIS2_PLACEMENT_3D('',#1363,#1098,#1099);
#917=AXIS2_PLACEMENT_3D('',#1364,#1100,#1101);
#918=AXIS2_PLACEMENT_3D('',#1365,#1102,#1103);
#919=AXIS2_PLACEMENT_3D('',#1366,#1104,#1105);
#920=AXIS2_PLACEMENT_3D('',#1367,#1106,#1107);
#921=AXIS2_PLACEMENT_3D('',#1373,#1111,#1112);
#922=AXIS2_PLACEMENT_3D('',#1379,#1116,#1117);
#923=AXIS2_PLACEMENT_3D('',#1385,#1121,#1122);
#924=AXIS2_PLACEMENT_3D('',#1386,#1123,#1124);
#925=AXIS2_PLACEMENT_3D('',#1388,#1125,#1126);
#926=AXIS2_PLACEMENT_3D('',#1389,#1127,#1128);
#927=AXIS2_PLACEMENT_3D('',#1390,#1129,#1130);
#928=AXIS2_PLACEMENT_3D('',#1394,#1132,#1133);
#929=AXIS2_PLACEMENT_3D('',#1395,#1134,#1135);
#930=AXIS2_PLACEMENT_3D('',#1398,#1138,#1139);
#931=AXIS2_PLACEMENT_3D('',#1399,#1140,#1141);
#932=AXIS2_PLACEMENT_3D('',#1400,#1142,#1143);
#933=AXIS2_PLACEMENT_3D('',#1401,#1144,#1145);
#934=AXIS2_PLACEMENT_3D('',#1402,#1146,#1147);
#935=AXIS2_PLACEMENT_3D('',#1406,#1150,#1151);
#936=AXIS2_PLACEMENT_3D('',#1410,#1154,#1155);
#937=AXIS2_PLACEMENT_3D('',#1411,#1156,#1157);
#938=AXIS2_PLACEMENT_3D('',#1412,#1158,#1159);
#939=AXIS2_PLACEMENT_3D('',#1413,#1160,#1161);
#940=AXIS2_PLACEMENT_3D('',#1417,#1164,#1165);
#941=AXIS2_PLACEMENT_3D('',#1423,#1169,#1170);
#942=AXIS2_PLACEMENT_3D('',#1427,#1173,#1174);
#943=AXIS2_PLACEMENT_3D('',#1428,#1175,#1176);
#944=AXIS2_PLACEMENT_3D('',#1429,#1177,#1178);
#945=AXIS2_PLACEMENT_3D('',#1430,#1179,#1180);
#946=AXIS2_PLACEMENT_3D('',#1431,#1181,#1182);
#947=AXIS2_PLACEMENT_3D('',#1432,#1183,#1184);
#948=AXIS2_PLACEMENT_3D('',#1433,#1185,#1186);
#949=AXIS2_PLACEMENT_3D('',#1434,#1187,#1188);
#950=AXIS2_PLACEMENT_3D('',#1435,#1189,#1190);
#951=DIRECTION('',(0.,0.,1.));
#952=DIRECTION('',(1.,0.,0.));
#953=DIRECTION('',(1.,0.,0.));
#954=DIRECTION('',(0.,0.,-1.));
#955=DIRECTION('',(-1.,0.,0.));
#956=DIRECTION('',(0.,0.,1.));
#957=DIRECTION('',(0.,-1.,0.));
#958=DIRECTION('',(0.,0.,-1.));
#959=DIRECTION('',(0.,0.,1.));
#960=DIRECTION('',(1.,0.,0.));
#961=DIRECTION('',(0.,0.,-1.));
#962=DIRECTION('',(0.999999999999999,0.,0.));
#963=DIRECTION('',(0.,-1.,0.));
#964=DIRECTION('',(0.,0.,-1.));
#965=DIRECTION('',(0.999999999999999,0.,0.));
#966=DIRECTION('',(-1.,0.,0.));
#967=DIRECTION('',(0.,0.,-1.));
#968=DIRECTION('',(0.999999999999999,0.,0.));
#969=DIRECTION('',(0.,1.,0.));
#970=DIRECTION('',(0.,0.,-1.));
#971=DIRECTION('',(0.999999999999999,0.,0.));
#972=DIRECTION('',(1.,0.,0.));
#973=DIRECTION('',(0.,0.,1.));
#974=DIRECTION('',(1.,0.,0.));
#975=DIRECTION('',(1.,0.,0.));
#976=DIRECTION('',(0.,0.,-1.));
#977=DIRECTION('',(1.,0.,0.));
#978=DIRECTION('',(0.,-1.,0.));
#979=DIRECTION('',(0.,0.,-1.));
#980=DIRECTION('',(1.,0.,0.));
#981=DIRECTION('',(-1.,0.,0.));
#982=DIRECTION('',(0.,-1.,0.));
#983=DIRECTION('',(1.,0.,0.));
#984=DIRECTION('',(0.,1.,0.));
#985=DIRECTION('',(0.,0.,-1.));
#986=DIRECTION('',(1.,0.,0.));
#987=DIRECTION('',(1.,0.,0.));
#988=DIRECTION('',(0.,-1.,0.));
#989=DIRECTION('',(1.,0.,0.));
#990=DIRECTION('',(0.,-1.,0.));
#991=DIRECTION('',(0.,0.,-1.));
#992=DIRECTION('',(1.,0.,0.));
#993=DIRECTION('',(-1.,0.,0.));
#994=DIRECTION('',(0.,-1.,0.));
#995=DIRECTION('',(1.,0.,0.));
#996=DIRECTION('',(0.,0.,-1.));
#997=DIRECTION('',(0.999999999999999,0.,0.));
#998=DIRECTION('',(0.,-1.,0.));
#999=DIRECTION('',(0.,0.,-1.));
#1000=DIRECTION('',(0.999999999999999,0.,0.));
#1001=DIRECTION('',(-1.,0.,0.));
#1002=DIRECTION('',(0.,0.,-1.));
#1003=DIRECTION('',(0.999999999999999,0.,0.));
#1004=DIRECTION('',(0.,1.,0.));
#1005=DIRECTION('',(0.,0.,-1.));
#1006=DIRECTION('',(0.999999999999999,0.,0.));
#1007=DIRECTION('',(0.,0.,1.));
#1008=DIRECTION('',(1.,0.,0.));
#1009=DIRECTION('',(0.,0.,1.));
#1010=DIRECTION('',(-1.,0.,0.));
#1011=DIRECTION('',(-0.707106781186548,0.,-0.707106781186548));
#1012=DIRECTION('',(0.,0.,1.));
#1013=DIRECTION('',(1.,0.,0.));
#1014=DIRECTION('',(0.,0.,1.));
#1015=DIRECTION('',(1.,0.,0.));
#1016=DIRECTION('',(0.,-1.,0.));
#1017=DIRECTION('',(0.,0.,-1.));
#1018=DIRECTION('',(0.,0.,1.));
#1019=DIRECTION('',(0.,-1.,0.));
#1020=DIRECTION('',(0.,0.,1.));
#1021=DIRECTION('',(0.,-1.,0.));
#1022=DIRECTION('',(0.,1.,0.));
#1023=DIRECTION('',(-1.,0.,0.));
#1024=DIRECTION('',(0.,0.,1.));
#1025=DIRECTION('',(-1.,0.,0.));
#1026=DIRECTION('',(0.,0.,1.));
#1027=DIRECTION('',(0.,0.,1.));
#1028=DIRECTION('',(-1.,0.,0.));
#1029=DIRECTION('',(0.,1.,0.));
#1030=DIRECTION('',(0.,0.,1.));
#1031=DIRECTION('',(0.,0.,-1.));
#1032=DIRECTION('',(-1.,0.,0.));
#1033=DIRECTION('',(0.,0.,-1.));
#1034=DIRECTION('',(-1.,0.,0.));
#1035=DIRECTION('',(0.,0.,-1.));
#1036=DIRECTION('',(-1.,0.,0.));
#1037=DIRECTION('',(0.,1.,0.));
#1038=DIRECTION('',(0.,0.,-1.));
#1039=DIRECTION('',(-1.,0.,0.));
#1040=DIRECTION('',(0.,0.,1.));
#1041=DIRECTION('',(0.,0.,1.));
#1042=DIRECTION('',(0.,1.,0.));
#1043=DIRECTION('',(0.,0.,1.));
#1044=DIRECTION('',(0.,1.,0.));
#1045=DIRECTION('',(1.,0.,0.));
#1046=DIRECTION('',(0.,0.,-1.));
#1047=DIRECTION('',(0.,-0.707106781186548,-0.707106781186548));
#1048=DIRECTION('',(-0.577350269189626,-0.577350269189626,-0.577350269189626));
#1049=DIRECTION('',(0.,0.707106781186547,-0.707106781186547));
#1050=DIRECTION('',(-1.,0.,0.));
#1051=DIRECTION('',(0.707106781186548,0.,0.707106781186548));
#1052=DIRECTION('',(0.707106781186547,0.,-0.707106781186547));
#1053=DIRECTION('',(0.,1.,0.));
#1054=DIRECTION('',(0.,0.,-1.));
#1055=DIRECTION('',(-1.,0.,0.));
#1056=DIRECTION('',(0.,-1.,0.));
#1057=DIRECTION('',(0.,0.,-1.));
#1058=DIRECTION('',(0.,0.,1.));
#1059=DIRECTION('',(-1.,0.,0.));
#1060=DIRECTION('',(0.,-1.,0.));
#1061=DIRECTION('',(0.,0.,-1.));
#1062=DIRECTION('',(-1.,0.,0.));
#1063=DIRECTION('',(0.,0.,1.));
#1064=DIRECTION('',(1.,0.,0.));
#1065=DIRECTION('',(0.,0.,-1.));
#1066=DIRECTION('',(0.,0.,1.));
#1067=DIRECTION('',(1.,0.,0.));
#1068=DIRECTION('',(-1.,0.,0.));
#1069=DIRECTION('',(0.,0.,1.));
#1070=DIRECTION('',(0.,0.,-1.));
#1071=DIRECTION('',(0.,-1.,0.));
#1072=DIRECTION('',(0.,0.,-1.));
#1073=DIRECTION('',(0.,1.,0.));
#1074=DIRECTION('',(0.,0.,1.));
#1075=DIRECTION('',(0.,0.,-1.));
#1076=DIRECTION('',(-1.,0.,0.));
#1077=DIRECTION('',(0.,0.,1.));
#1078=DIRECTION('',(0.,0.,-1.));
#1079=DIRECTION('',(1.,0.,0.));
#1080=DIRECTION('',(0.,0.,1.));
#1081=DIRECTION('',(0.,1.,0.));
#1082=DIRECTION('',(0.,0.,1.));
#1083=DIRECTION('',(0.,0.,-1.));
#1084=DIRECTION('',(-1.,0.,0.));
#1085=DIRECTION('',(0.,0.,1.));
#1086=DIRECTION('',(-0.999999999999999,0.,0.));
#1087=DIRECTION('',(0.,-1.,0.));
#1088=DIRECTION('',(0.,0.,1.));
#1089=DIRECTION('',(-0.999999999999999,0.,0.));
#1090=DIRECTION('',(0.,0.,1.));
#1091=DIRECTION('',(-1.,0.,0.));
#1092=DIRECTION('',(0.,0.,1.));
#1093=DIRECTION('',(-1.,0.,0.));
#1094=DIRECTION('',(0.,0.,-1.));
#1095=DIRECTION('',(-1.,0.,0.));
#1096=DIRECTION('',(0.,0.,-1.));
#1097=DIRECTION('',(0.,0.,1.));
#1098=DIRECTION('',(1.,0.,0.));
#1099=DIRECTION('',(0.,0.,-1.));
#1100=DIRECTION('',(0.,0.,1.));
#1101=DIRECTION('',(0.999999999999999,0.,0.));
#1102=DIRECTION('',(0.,0.,1.));
#1103=DIRECTION('',(0.999999999999999,0.,0.));
#1104=DIRECTION('',(0.,0.,1.));
#1105=DIRECTION('',(0.999999999999999,0.,0.));
#1106=DIRECTION('',(0.,0.,1.));
#1107=DIRECTION('',(0.999999999999999,0.,0.));
#1108=DIRECTION('',(-1.,0.,0.));
#1109=DIRECTION('',(0.,0.,1.));
#1110=DIRECTION('',(0.,0.,-1.));
#1111=DIRECTION('',(0.,-1.,0.));
#1112=DIRECTION('',(0.,0.,-1.));
#1113=DIRECTION('',(0.,1.,0.));
#1114=DIRECTION('',(0.,0.,1.));
#1115=DIRECTION('',(0.,0.,-1.));
#1116=DIRECTION('',(-1.,0.,0.));
#1117=DIRECTION('',(0.,0.,1.));
#1118=DIRECTION('',(0.,0.,-1.));
#1119=DIRECTION('',(1.,0.,0.));
#1120=DIRECTION('',(0.,0.,1.));
#1121=DIRECTION('',(0.,1.,0.));
#1122=DIRECTION('',(0.,0.,1.));
#1123=DIRECTION('',(0.,0.,-1.));
#1124=DIRECTION('',(-1.,0.,0.));
#1125=DIRECTION('',(0.,0.,1.));
#1126=DIRECTION('',(-0.999999999999999,0.,0.));
#1127=DIRECTION('',(0.,0.,1.));
#1128=DIRECTION('',(-0.999999999999999,0.,0.));
#1129=DIRECTION('',(0.,0.,1.));
#1130=DIRECTION('',(-0.999999999999999,0.,0.));
#1131=DIRECTION('',(0.,-1.,0.));
#1132=DIRECTION('',(0.,0.,1.));
#1133=DIRECTION('',(-0.999999999999999,0.,0.));
#1134=DIRECTION('',(0.,0.,-1.));
#1135=DIRECTION('',(-1.,0.,0.));
#1136=DIRECTION('',(0.,0.,1.));
#1137=DIRECTION('',(0.,0.,-1.));
#1138=DIRECTION('',(1.,0.,0.));
#1139=DIRECTION('',(0.,0.,-1.));
#1140=DIRECTION('',(0.,0.,1.));
#1141=DIRECTION('',(0.999999999999999,0.,0.));
#1142=DIRECTION('',(0.,0.,1.));
#1143=DIRECTION('',(0.999999999999999,0.,0.));
#1144=DIRECTION('',(0.,0.,1.));
#1145=DIRECTION('',(0.999999999999999,0.,0.));
#1146=DIRECTION('',(0.,0.,1.));
#1147=DIRECTION('',(0.999999999999999,0.,0.));
#1148=DIRECTION('',(0.,1.,0.));
#1149=DIRECTION('',(0.,0.,1.));
#1150=DIRECTION('',(-1.,0.,0.));
#1151=DIRECTION('',(0.,0.,1.));
#1152=DIRECTION('',(0.,0.,-1.));
#1153=DIRECTION('',(1.,0.,0.));
#1154=DIRECTION('',(0.,1.,0.));
#1155=DIRECTION('',(0.,0.,1.));
#1156=DIRECTION('',(0.,0.,1.));
#1157=DIRECTION('',(-1.,0.,0.));
#1158=DIRECTION('',(0.,0.,-1.));
#1159=DIRECTION('',(-1.,0.,0.));
#1160=DIRECTION('',(0.,0.,1.));
#1161=DIRECTION('',(1.,0.,0.));
#1162=DIRECTION('',(-1.,0.,0.));
#1163=DIRECTION('',(0.,0.,1.));
#1164=DIRECTION('',(0.,-1.,0.));
#1165=DIRECTION('',(0.,0.,-1.));
#1166=DIRECTION('',(0.,0.,-1.));
#1167=DIRECTION('',(0.,1.,0.));
#1168=DIRECTION('',(0.,0.,1.));
#1169=DIRECTION('',(-1.,0.,0.));
#1170=DIRECTION('',(0.,0.,1.));
#1171=DIRECTION('',(0.,0.,-1.));
#1172=DIRECTION('',(1.,0.,0.));
#1173=DIRECTION('',(0.,1.,0.));
#1174=DIRECTION('',(0.,0.,1.));
#1175=DIRECTION('',(0.,0.,1.));
#1176=DIRECTION('',(-1.,0.,0.));
#1177=DIRECTION('',(0.,0.,1.));
#1178=DIRECTION('',(-1.,0.,0.));
#1179=DIRECTION('',(0.,0.,-1.));
#1180=DIRECTION('',(-1.,0.,0.));
#1181=DIRECTION('',(0.,0.,1.));
#1182=DIRECTION('',(1.,0.,0.));
#1183=DIRECTION('',(0.,0.,1.));
#1184=DIRECTION('',(1.,0.,0.));
#1185=DIRECTION('',(0.,0.,-1.));
#1186=DIRECTION('',(1.,0.,0.));
#1187=DIRECTION('',(0.,0.,-1.));
#1188=DIRECTION('',(1.,0.,0.));
#1189=DIRECTION('',(0.,0.,-1.));
#1190=DIRECTION('',(1.,0.,0.));
#1191=CARTESIAN_POINT('',(0.,0.,0.));
#1192=CARTESIAN_POINT('',(180.85,45.5,141.6));
#1193=CARTESIAN_POINT('',(67.5,45.5,141.6));
#1194=CARTESIAN_POINT('',(143.7,45.5,141.6));
#1195=CARTESIAN_POINT('',(143.7,45.5,141.65));
#1196=CARTESIAN_POINT('',(143.7,45.5,103.7));
#1197=CARTESIAN_POINT('',(135.15,45.5,103.7));
#1198=CARTESIAN_POINT('',(67.5,45.5,103.7));
#1199=CARTESIAN_POINT('',(67.5,45.5,141.6));
#1200=CARTESIAN_POINT('',(135.15,45.5,103.7));
#1201=CARTESIAN_POINT('',(156.7,45.5,141.6));
#1202=CARTESIAN_POINT('',(169.7,45.5,141.6));
#1203=CARTESIAN_POINT('',(67.5,53.1,141.6));
#1204=CARTESIAN_POINT('',(59.9,53.1,141.6));
#1205=CARTESIAN_POINT('',(59.9,128.05,141.6));
#1206=CARTESIAN_POINT('',(59.9,147.7,141.6));
#1207=CARTESIAN_POINT('',(67.5,147.7,141.6));
#1208=CARTESIAN_POINT('',(67.5,155.3,141.6));
#1209=CARTESIAN_POINT('',(180.85,155.3,141.6));
#1210=CARTESIAN_POINT('',(202.8,155.3,141.6));
#1211=CARTESIAN_POINT('',(202.8,147.7,141.6));
#1212=CARTESIAN_POINT('',(210.4,147.7,141.6));
#1213=CARTESIAN_POINT('',(210.4,128.05,141.6));
#1214=CARTESIAN_POINT('',(210.4,53.1,141.6));
#1215=CARTESIAN_POINT('',(202.8,53.1,141.6));
#1216=CARTESIAN_POINT('',(202.8,45.5,141.6));
#1217=CARTESIAN_POINT('',(180.85,45.5,141.6));
#1218=CARTESIAN_POINT('',(121.5,190.2,141.6));
#1219=CARTESIAN_POINT('',(134.5,190.2,141.6));
#1220=CARTESIAN_POINT('',(180.85,54.,141.6));
#1221=CARTESIAN_POINT('',(298.4,54.,141.6));
#1222=CARTESIAN_POINT('',(361.7,54.,141.6));
#1223=CARTESIAN_POINT('',(298.4,63.,141.6));
#1224=CARTESIAN_POINT('',(289.4,63.,141.6));
#1225=CARTESIAN_POINT('',(289.4,128.05,141.6));
#1226=CARTESIAN_POINT('',(289.4,97.3,141.6));
#1227=CARTESIAN_POINT('',(298.4,97.3,141.6));
#1228=CARTESIAN_POINT('',(298.4,106.3,141.6));
#1229=CARTESIAN_POINT('',(180.85,106.3,141.6));
#1230=CARTESIAN_POINT('',(361.7,106.3,141.6));
#1231=CARTESIAN_POINT('',(361.7,128.05,141.6));
#1232=CARTESIAN_POINT('',(361.7,256.1,141.6));
#1233=CARTESIAN_POINT('',(180.85,256.1,141.6));
#1234=CARTESIAN_POINT('',(71.,256.1,141.6));
#1235=CARTESIAN_POINT('',(71.,128.05,141.6));
#1236=CARTESIAN_POINT('',(71.,209.4,141.6));
#1237=CARTESIAN_POINT('',(60.5,209.4,141.6));
#1238=CARTESIAN_POINT('',(60.5,198.9,141.6));
#1239=CARTESIAN_POINT('',(180.85,198.9,141.6));
#1240=CARTESIAN_POINT('',(2.5,198.9,141.6));
#1241=CARTESIAN_POINT('',(2.5,128.05,141.6));
#1242=CARTESIAN_POINT('',(2.5,2.20000000000001,141.6));
#1243=CARTESIAN_POINT('',(180.85,2.20000000000001,141.6));
#1244=CARTESIAN_POINT('',(284.5,2.20000000000001,141.6));
#1245=CARTESIAN_POINT('',(284.5,128.05,141.6));
#1246=CARTESIAN_POINT('',(284.5,47.6,141.6));
#1247=CARTESIAN_POINT('',(289.,47.6,141.6));
#1248=CARTESIAN_POINT('',(289.,52.1,141.6));
#1249=CARTESIAN_POINT('',(180.85,52.1,141.6));
#1250=CARTESIAN_POINT('',(361.7,52.1,141.6));
#1251=CARTESIAN_POINT('',(361.7,128.05,141.6));
#1252=CARTESIAN_POINT('',(180.85,126.5,141.6));
#1253=CARTESIAN_POINT('',(228.5,126.5,141.6));
#1254=CARTESIAN_POINT('',(292.7,126.5,141.6));
#1255=CARTESIAN_POINT('',(228.5,137.2,141.6));
#1256=CARTESIAN_POINT('',(217.8,137.2,141.6));
#1257=CARTESIAN_POINT('',(217.8,128.05,141.6));
#1258=CARTESIAN_POINT('',(217.8,205.2,141.6));
#1259=CARTESIAN_POINT('',(228.5,205.2,141.6));
#1260=CARTESIAN_POINT('',(228.5,215.9,141.6));
#1261=CARTESIAN_POINT('',(180.85,215.9,141.6));
#1262=CARTESIAN_POINT('',(292.7,215.9,141.6));
#1263=CARTESIAN_POINT('',(292.7,205.2,141.6));
#1264=CARTESIAN_POINT('',(303.4,205.2,141.6));
#1265=CARTESIAN_POINT('',(303.4,128.05,141.6));
#1266=CARTESIAN_POINT('',(303.4,137.2,141.6));
#1267=CARTESIAN_POINT('',(292.7,137.2,141.6));
#1268=CARTESIAN_POINT('',(180.85,128.05,141.6));
#1269=CARTESIAN_POINT('',(284.5,0.,115.7));
#1270=CARTESIAN_POINT('',(284.5,0.,115.7));
#1271=CARTESIAN_POINT('',(284.5,0.,139.4));
#1272=CARTESIAN_POINT('',(180.85,0.,139.4));
#1273=CARTESIAN_POINT('',(0.299999999999995,0.,139.4));
#1274=CARTESIAN_POINT('',(20.875,0.,159.975));
#1275=CARTESIAN_POINT('',(0.,0.,139.1));
#1276=CARTESIAN_POINT('',(0.,0.,0.));
#1277=CARTESIAN_POINT('',(0.,0.,0.));
#1278=CARTESIAN_POINT('',(180.85,0.,0.));
#1279=CARTESIAN_POINT('',(361.7,0.,0.));
#1280=CARTESIAN_POINT('',(361.7,0.,0.));
#1281=CARTESIAN_POINT('',(361.7,0.,115.7));
#1282=CARTESIAN_POINT('',(323.1,0.,115.7));
#1283=CARTESIAN_POINT('',(180.85,0.,0.));
#1284=CARTESIAN_POINT('',(0.,198.9,103.7));
#1285=CARTESIAN_POINT('',(0.,198.9,103.7));
#1286=CARTESIAN_POINT('',(0.,198.9,139.1));
#1287=CARTESIAN_POINT('',(0.,227.5,103.7));
#1288=CARTESIAN_POINT('',(0.,256.1,103.7));
#1289=CARTESIAN_POINT('',(0.,256.1,0.));
#1290=CARTESIAN_POINT('',(0.,256.1,0.));
#1291=CARTESIAN_POINT('',(0.,128.05,0.));
#1292=CARTESIAN_POINT('',(0.,128.05,139.1));
#1293=CARTESIAN_POINT('',(0.,128.05,0.));
#1294=CARTESIAN_POINT('',(35.5,256.1,103.7));
#1295=CARTESIAN_POINT('',(71.,256.1,103.7));
#1296=CARTESIAN_POINT('',(71.,256.1,103.7));
#1297=CARTESIAN_POINT('',(361.7,256.1,0.));
#1298=CARTESIAN_POINT('',(361.7,256.1,0.));
#1299=CARTESIAN_POINT('',(180.85,256.1,0.));
#1300=CARTESIAN_POINT('',(180.85,256.1,0.));
#1301=CARTESIAN_POINT('',(156.7,45.5,0.));
#1302=CARTESIAN_POINT('',(143.7,45.5,0.));
#1303=CARTESIAN_POINT('',(121.5,190.2,0.));
#1304=CARTESIAN_POINT('',(108.5,190.2,0.));
#1305=CARTESIAN_POINT('',(264.4,148.4,0.));
#1306=CARTESIAN_POINT('',(251.4,148.4,0.));
#1307=CARTESIAN_POINT('',(361.7,128.05,0.));
#1308=CARTESIAN_POINT('',(180.85,128.05,0.));
#1309=CARTESIAN_POINT('',(361.7,54.,103.7));
#1310=CARTESIAN_POINT('',(361.7,54.,103.7));
#1311=CARTESIAN_POINT('',(361.7,52.1,115.7));
#1312=CARTESIAN_POINT('',(361.7,52.1,115.7));
#1313=CARTESIAN_POINT('',(361.7,26.05,115.7));
#1314=CARTESIAN_POINT('',(361.7,106.3,103.7));
#1315=CARTESIAN_POINT('',(361.7,106.3,103.7));
#1316=CARTESIAN_POINT('',(361.7,80.15,103.7));
#1317=CARTESIAN_POINT('',(361.7,128.05,0.));
#1318=CARTESIAN_POINT('',(284.5,0.,139.4));
#1319=CARTESIAN_POINT('',(60.4833333333333,60.1833333333333,199.583333333333));
#1320=CARTESIAN_POINT('',(180.85,0.,139.4));
#1321=CARTESIAN_POINT('',(0.,198.9,139.1));
#1322=CARTESIAN_POINT('',(0.,128.05,139.1));
#1323=CARTESIAN_POINT('',(60.5,198.9,103.7));
#1324=CARTESIAN_POINT('',(60.5,198.9,103.7));
#1325=CARTESIAN_POINT('',(35.5,198.9,103.7));
#1326=CARTESIAN_POINT('',(35.5,198.9,103.7));
#1327=CARTESIAN_POINT('',(60.5,209.4,103.7));
#1328=CARTESIAN_POINT('',(71.,209.4,103.7));
#1329=CARTESIAN_POINT('',(71.,227.5,103.7));
#1330=CARTESIAN_POINT('',(35.5,227.5,103.7));
#1331=CARTESIAN_POINT('',(71.,209.4,141.6));
#1332=CARTESIAN_POINT('',(71.,227.5,103.7));
#1333=CARTESIAN_POINT('',(60.5,209.4,103.7));
#1334=CARTESIAN_POINT('',(135.15,45.5,103.7));
#1335=CARTESIAN_POINT('',(202.8,45.5,103.7));
#1336=CARTESIAN_POINT('',(169.7,45.5,103.7));
#1337=CARTESIAN_POINT('',(169.7,45.5,141.65));
#1338=CARTESIAN_POINT('',(202.8,45.5,103.7));
#1339=CARTESIAN_POINT('',(135.15,45.5,103.7));
#1340=CARTESIAN_POINT('',(59.9,100.4,103.7));
#1341=CARTESIAN_POINT('',(59.9,53.1,103.7));
#1342=CARTESIAN_POINT('',(59.9,147.7,103.7));
#1343=CARTESIAN_POINT('',(59.9,147.7,141.6));
#1344=CARTESIAN_POINT('',(59.9,53.1,103.7));
#1345=CARTESIAN_POINT('',(59.9,100.4,103.7));
#1346=CARTESIAN_POINT('',(67.5,155.3,103.7));
#1347=CARTESIAN_POINT('',(67.5,155.3,103.7));
#1348=CARTESIAN_POINT('',(135.15,155.3,103.7));
#1349=CARTESIAN_POINT('',(202.8,155.3,103.7));
#1350=CARTESIAN_POINT('',(202.8,155.3,141.6));
#1351=CARTESIAN_POINT('',(135.15,155.3,103.7));
#1352=CARTESIAN_POINT('',(156.7,45.5,103.7));
#1353=CARTESIAN_POINT('',(202.8,53.1,103.7));
#1354=CARTESIAN_POINT('',(210.4,53.1,103.7));
#1355=CARTESIAN_POINT('',(210.4,100.4,103.7));
#1356=CARTESIAN_POINT('',(210.4,147.7,103.7));
#1357=CARTESIAN_POINT('',(202.8,147.7,103.7));
#1358=CARTESIAN_POINT('',(67.5,147.7,103.7));
#1359=CARTESIAN_POINT('',(67.5,53.1,103.7));
#1360=CARTESIAN_POINT('',(135.15,100.4,103.7));
#1361=CARTESIAN_POINT('',(210.4,147.7,103.7));
#1362=CARTESIAN_POINT('',(210.4,53.1,141.6));
#1363=CARTESIAN_POINT('',(210.4,100.4,103.7));
#1364=CARTESIAN_POINT('',(67.5,147.7,103.7));
#1365=CARTESIAN_POINT('',(202.8,147.7,103.7));
#1366=CARTESIAN_POINT('',(67.5,53.1,103.7));
#1367=CARTESIAN_POINT('',(202.8,53.1,103.7));
#1368=CARTESIAN_POINT('',(260.6,126.5,103.7));
#1369=CARTESIAN_POINT('',(292.7,126.5,103.7));
#1370=CARTESIAN_POINT('',(228.5,126.5,103.7));
#1371=CARTESIAN_POINT('',(228.5,126.5,141.6));
#1372=CARTESIAN_POINT('',(292.7,126.5,103.7));
#1373=CARTESIAN_POINT('',(260.6,126.5,103.7));
#1374=CARTESIAN_POINT('',(217.8,171.2,103.7));
#1375=CARTESIAN_POINT('',(217.8,137.2,103.7));
#1376=CARTESIAN_POINT('',(217.8,205.2,103.7));
#1377=CARTESIAN_POINT('',(217.8,205.2,141.6));
#1378=CARTESIAN_POINT('',(217.8,137.2,103.7));
#1379=CARTESIAN_POINT('',(217.8,171.2,103.7));
#1380=CARTESIAN_POINT('',(228.5,215.9,103.7));
#1381=CARTESIAN_POINT('',(228.5,215.9,103.7));
#1382=CARTESIAN_POINT('',(260.6,215.9,103.7));
#1383=CARTESIAN_POINT('',(292.7,215.9,103.7));
#1384=CARTESIAN_POINT('',(292.7,215.9,141.6));
#1385=CARTESIAN_POINT('',(260.6,215.9,103.7));
#1386=CARTESIAN_POINT('',(264.4,148.4,103.7));
#1387=CARTESIAN_POINT('',(251.4,148.4,103.7));
#1388=CARTESIAN_POINT('',(228.5,205.2,103.7));
#1389=CARTESIAN_POINT('',(228.5,137.2,103.7));
#1390=CARTESIAN_POINT('',(292.7,137.2,103.7));
#1391=CARTESIAN_POINT('',(303.4,137.2,103.7));
#1392=CARTESIAN_POINT('',(303.4,171.2,103.7));
#1393=CARTESIAN_POINT('',(303.4,205.2,103.7));
#1394=CARTESIAN_POINT('',(292.7,205.2,103.7));
#1395=CARTESIAN_POINT('',(260.6,171.2,103.7));
#1396=CARTESIAN_POINT('',(303.4,137.2,141.6));
#1397=CARTESIAN_POINT('',(303.4,205.2,103.7));
#1398=CARTESIAN_POINT('',(303.4,171.2,103.7));
#1399=CARTESIAN_POINT('',(228.5,205.2,103.7));
#1400=CARTESIAN_POINT('',(228.5,137.2,103.7));
#1401=CARTESIAN_POINT('',(292.7,137.2,103.7));
#1402=CARTESIAN_POINT('',(292.7,205.2,103.7));
#1403=CARTESIAN_POINT('',(284.5,26.05,115.7));
#1404=CARTESIAN_POINT('',(284.5,47.6,115.7));
#1405=CARTESIAN_POINT('',(284.5,47.6,141.6));
#1406=CARTESIAN_POINT('',(284.5,26.05,115.7));
#1407=CARTESIAN_POINT('',(289.,52.1,115.7));
#1408=CARTESIAN_POINT('',(289.,52.1,115.7));
#1409=CARTESIAN_POINT('',(323.1,52.1,115.7));
#1410=CARTESIAN_POINT('',(323.1,52.1,115.7));
#1411=CARTESIAN_POINT('',(289.,47.6,115.7));
#1412=CARTESIAN_POINT('',(323.1,26.05,115.7));
#1413=CARTESIAN_POINT('',(289.,47.6,115.7));
#1414=CARTESIAN_POINT('',(325.55,54.,103.7));
#1415=CARTESIAN_POINT('',(298.4,54.,103.7));
#1416=CARTESIAN_POINT('',(298.4,54.,141.6));
#1417=CARTESIAN_POINT('',(325.55,54.,103.7));
#1418=CARTESIAN_POINT('',(289.4,63.,103.7));
#1419=CARTESIAN_POINT('',(289.4,63.,103.7));
#1420=CARTESIAN_POINT('',(289.4,80.15,103.7));
#1421=CARTESIAN_POINT('',(289.4,97.3,103.7));
#1422=CARTESIAN_POINT('',(289.4,97.3,141.6));
#1423=CARTESIAN_POINT('',(289.4,80.15,103.7));
#1424=CARTESIAN_POINT('',(298.4,106.3,103.7));
#1425=CARTESIAN_POINT('',(298.4,106.3,103.7));
#1426=CARTESIAN_POINT('',(325.55,106.3,103.7));
#1427=CARTESIAN_POINT('',(325.55,106.3,103.7));
#1428=CARTESIAN_POINT('',(298.4,63.,103.7));
#1429=CARTESIAN_POINT('',(298.4,97.3,103.7));
#1430=CARTESIAN_POINT('',(325.55,80.15,103.7));
#1431=CARTESIAN_POINT('',(298.4,63.,103.7));
#1432=CARTESIAN_POINT('',(298.4,97.3,103.7));
#1433=CARTESIAN_POINT('',(264.4,148.4,141.65));
#1434=CARTESIAN_POINT('',(121.5,190.2,141.65));
#1435=CARTESIAN_POINT('',(156.7,45.5,141.65));
#1436=MECHANICAL_DESIGN_GEOMETRIC_PRESENTATION_REPRESENTATION('',(#24),
#1437);
#1437=(
GEOMETRIC_REPRESENTATION_CONTEXT(3)
GLOBAL_UNCERTAINTY_ASSIGNED_CONTEXT((#1438))
GLOBAL_UNIT_ASSIGNED_CONTEXT((#1444,#1440,#1439))
REPRESENTATION_CONTEXT('featured_part_02041','TOP_LEVEL_ASSEMBLY_PART')
);
#1438=UNCERTAINTY_MEASURE_WITH_UNIT(LENGTH_MEASURE(2.E-5),#1444,
'DISTANCE_ACCURACY_VALUE','Maximum Tolerance applied to model');
#1439=(
NAMED_UNIT(*)
SI_UNIT($,.STERADIAN.)
SOLID_ANGLE_UNIT()
);
#1440=(
CONVERSION_BASED_UNIT('DEGREE',#1442)
NAMED_UNIT(#1441)
PLANE_ANGLE_UNIT()
);
#1441=DIMENSIONAL_EXPONENTS(0.,0.,0.,0.,0.,0.,0.);
#1442=PLANE_ANGLE_MEASURE_WITH_UNIT(PLANE_ANGLE_MEASURE(0.0174532925),#1443);
#1443=(
NAMED_UNIT(*)
PLANE_ANGLE_UNIT()
SI_UNIT($,.RADIAN.)
);
#1444=(
LENGTH_UNIT()
NAMED_UNIT(*)
SI_UNIT(.MILLI.,.METRE.)
);
ENDSEC;
END-ISO-10303-21;
