ISO-10303-21;
HEADER;
/* Generated by software containing ST-Developer
 * from STEP Tools, Inc. (www.steptools.com) 
 */
/* OPTION: using custom schema-name function */

FILE_DESCRIPTION(
/* description */ (''),
/* implementation_level */ '2;1');

FILE_NAME(
/* name */ 'featured_part_00168.stp',
/* time_stamp */ '2026-06-30T20:17:25-04:00',
/* author */ (''),
/* organization */ (''),
/* preprocessor_version */ 'ST-DEVELOPER v20.1',
/* originating_system */ 'SIEMENS PLM Software NX2512.6002',
/* authorisation */ '');

FILE_SCHEMA (('AUTOMOTIVE_DESIGN { 1 0 10303 214 3 1 1 1 }'));
ENDSEC;

DATA;
#10=SHAPE_REPRESENTATION_RELATIONSHIP('None',
'relationship between featured_part_00168-None and featured_part_00168
-None',#22,#11);
#11=ADVANCED_BREP_SHAPE_REPRESENTATION('featured_part_00168-None',(#32),
#636);
#12=SHAPE_DEFINITION_REPRESENTATION(#13,#22);
#13=PRODUCT_DEFINITION_SHAPE('','',#14);
#14=PRODUCT_DEFINITION(' ','',#16,#15);
#15=PRODUCT_DEFINITION_CONTEXT('part definition',#21,'design');
#16=PRODUCT_DEFINITION_FORMATION_WITH_SPECIFIED_SOURCE(' ',' ',#18,
 .NOT_KNOWN.);
#17=PRODUCT_RELATED_PRODUCT_CATEGORY('part','',(#18));
#18=PRODUCT('featured_part_00168','featured_part_00168',' ',(#19));
#19=PRODUCT_CONTEXT(' ',#21,'mechanical');
#20=APPLICATION_PROTOCOL_DEFINITION('international standard',
'automotive_design',2010,#21);
#21=APPLICATION_CONTEXT(
'core data for automotive mechanical design processes');
#22=SHAPE_REPRESENTATION('featured_part_00168-None',(#395),#636);
#23=PRESENTATION_LAYER_ASSIGNMENT('1','Layer 1',(#32));
#24=STYLED_ITEM('',(#25),#32);
#25=PRESENTATION_STYLE_ASSIGNMENT((#26));
#26=SURFACE_STYLE_USAGE(.BOTH.,#27);
#27=SURFACE_SIDE_STYLE('',(#28));
#28=SURFACE_STYLE_FILL_AREA(#29);
#29=FILL_AREA_STYLE('',(#30));
#30=FILL_AREA_STYLE_COLOUR('',#31);
#31=COLOUR_RGB('medium steel',0.611764705882353,0.658823529411765,0.670588235294118);
#32=MANIFOLD_SOLID_BREP('',#33);
#33=CLOSED_SHELL('',(#41,#42,#43,#44,#45,#46,#47,#48,#49,#50,#51,#52,#53,
#54,#55,#56,#57,#58,#59,#60));
#34=CYLINDRICAL_SURFACE('',#412,9.8);
#35=CYLINDRICAL_SURFACE('',#422,9.2);
#36=CYLINDRICAL_SURFACE('',#423,9.2);
#37=CYLINDRICAL_SURFACE('',#424,9.2);
#38=CYLINDRICAL_SURFACE('',#425,9.2);
#39=FACE_BOUND('',#103,.T.);
#40=FACE_BOUND('',#104,.T.);
#41=ADVANCED_FACE('',(#76),#61,.T.);
#42=ADVANCED_FACE('',(#77),#62,.T.);
#43=ADVANCED_FACE('',(#78),#63,.T.);
#44=ADVANCED_FACE('',(#79),#64,.T.);
#45=ADVANCED_FACE('',(#80),#65,.T.);
#46=ADVANCED_FACE('',(#81),#66,.T.);
#47=ADVANCED_FACE('',(#82),#67,.F.);
#48=ADVANCED_FACE('',(#83),#68,.F.);
#49=ADVANCED_FACE('',(#39,#40),#69,.F.);
#50=ADVANCED_FACE('',(#84),#70,.F.);
#51=ADVANCED_FACE('',(#85),#34,.F.);
#52=ADVANCED_FACE('',(#86),#71,.F.);
#53=ADVANCED_FACE('',(#87),#72,.F.);
#54=ADVANCED_FACE('',(#88),#73,.F.);
#55=ADVANCED_FACE('',(#89),#74,.F.);
#56=ADVANCED_FACE('',(#90),#75,.F.);
#57=ADVANCED_FACE('',(#91),#35,.F.);
#58=ADVANCED_FACE('',(#92),#36,.F.);
#59=ADVANCED_FACE('',(#93),#37,.F.);
#60=ADVANCED_FACE('',(#94),#38,.F.);
#61=PLANE('',#397);
#62=PLANE('',#398);
#63=PLANE('',#399);
#64=PLANE('',#400);
#65=PLANE('',#401);
#66=PLANE('',#402);
#67=PLANE('',#403);
#68=PLANE('',#404);
#69=PLANE('',#410);
#70=PLANE('',#411);
#71=PLANE('',#413);
#72=PLANE('',#414);
#73=PLANE('',#415);
#74=PLANE('',#416);
#75=PLANE('',#421);
#76=FACE_OUTER_BOUND('',#95,.T.);
#77=FACE_OUTER_BOUND('',#96,.T.);
#78=FACE_OUTER_BOUND('',#97,.T.);
#79=FACE_OUTER_BOUND('',#98,.T.);
#80=FACE_OUTER_BOUND('',#99,.T.);
#81=FACE_OUTER_BOUND('',#100,.T.);
#82=FACE_OUTER_BOUND('',#101,.T.);
#83=FACE_OUTER_BOUND('',#102,.T.);
#84=FACE_OUTER_BOUND('',#105,.T.);
#85=FACE_OUTER_BOUND('',#106,.T.);
#86=FACE_OUTER_BOUND('',#107,.T.);
#87=FACE_OUTER_BOUND('',#108,.T.);
#88=FACE_OUTER_BOUND('',#109,.T.);
#89=FACE_OUTER_BOUND('',#110,.T.);
#90=FACE_OUTER_BOUND('',#111,.T.);
#91=FACE_OUTER_BOUND('',#112,.T.);
#92=FACE_OUTER_BOUND('',#113,.T.);
#93=FACE_OUTER_BOUND('',#114,.T.);
#94=FACE_OUTER_BOUND('',#115,.T.);
#95=EDGE_LOOP('',(#126,#127,#128,#129,#130,#131,#132));
#96=EDGE_LOOP('',(#133,#134,#135,#136,#137));
#97=EDGE_LOOP('',(#138,#139,#140,#141,#142,#143));
#98=EDGE_LOOP('',(#144,#145,#146,#147,#148,#149));
#99=EDGE_LOOP('',(#150,#151,#152,#153));
#100=EDGE_LOOP('',(#154,#155,#156,#157));
#101=EDGE_LOOP('',(#158,#159,#160,#161));
#102=EDGE_LOOP('',(#162,#163,#164,#165,#166));
#103=EDGE_LOOP('',(#167,#168,#169,#170,#171,#172,#173,#174));
#104=EDGE_LOOP('',(#175,#176,#177,#178,#179));
#105=EDGE_LOOP('',(#180,#181,#182,#183));
#106=EDGE_LOOP('',(#184,#185,#186,#187));
#107=EDGE_LOOP('',(#188,#189,#190,#191));
#108=EDGE_LOOP('',(#192,#193,#194,#195));
#109=EDGE_LOOP('',(#196,#197,#198,#199));
#110=EDGE_LOOP('',(#200,#201,#202,#203));
#111=EDGE_LOOP('',(#204,#205,#206,#207,#208,#209,#210,#211));
#112=EDGE_LOOP('',(#212,#213,#214,#215));
#113=EDGE_LOOP('',(#216,#217,#218,#219));
#114=EDGE_LOOP('',(#220,#221,#222,#223));
#115=EDGE_LOOP('',(#224,#225,#226,#227));
#116=CIRCLE('',#396,9.8);
#117=CIRCLE('',#405,9.2);
#118=CIRCLE('',#406,9.2);
#119=CIRCLE('',#407,9.2);
#120=CIRCLE('',#408,9.2);
#121=CIRCLE('',#409,9.8);
#122=CIRCLE('',#417,9.2);
#123=CIRCLE('',#418,9.2);
#124=CIRCLE('',#419,9.2);
#125=CIRCLE('',#420,9.2);
#126=ORIENTED_EDGE('',*,*,#262,.F.);
#127=ORIENTED_EDGE('',*,*,#263,.T.);
#128=ORIENTED_EDGE('',*,*,#264,.F.);
#129=ORIENTED_EDGE('',*,*,#265,.F.);
#130=ORIENTED_EDGE('',*,*,#266,.F.);
#131=ORIENTED_EDGE('',*,*,#267,.F.);
#132=ORIENTED_EDGE('',*,*,#268,.T.);
#133=ORIENTED_EDGE('',*,*,#264,.T.);
#134=ORIENTED_EDGE('',*,*,#269,.T.);
#135=ORIENTED_EDGE('',*,*,#270,.F.);
#136=ORIENTED_EDGE('',*,*,#271,.T.);
#137=ORIENTED_EDGE('',*,*,#272,.T.);
#138=ORIENTED_EDGE('',*,*,#273,.F.);
#139=ORIENTED_EDGE('',*,*,#274,.F.);
#140=ORIENTED_EDGE('',*,*,#275,.F.);
#141=ORIENTED_EDGE('',*,*,#276,.T.);
#142=ORIENTED_EDGE('',*,*,#270,.T.);
#143=ORIENTED_EDGE('',*,*,#277,.T.);
#144=ORIENTED_EDGE('',*,*,#278,.F.);
#145=ORIENTED_EDGE('',*,*,#279,.T.);
#146=ORIENTED_EDGE('',*,*,#266,.T.);
#147=ORIENTED_EDGE('',*,*,#280,.F.);
#148=ORIENTED_EDGE('',*,*,#281,.T.);
#149=ORIENTED_EDGE('',*,*,#275,.T.);
#150=ORIENTED_EDGE('',*,*,#282,.F.);
#151=ORIENTED_EDGE('',*,*,#271,.F.);
#152=ORIENTED_EDGE('',*,*,#276,.F.);
#153=ORIENTED_EDGE('',*,*,#281,.F.);
#154=ORIENTED_EDGE('',*,*,#282,.T.);
#155=ORIENTED_EDGE('',*,*,#280,.T.);
#156=ORIENTED_EDGE('',*,*,#265,.T.);
#157=ORIENTED_EDGE('',*,*,#272,.F.);
#158=ORIENTED_EDGE('',*,*,#283,.F.);
#159=ORIENTED_EDGE('',*,*,#277,.F.);
#160=ORIENTED_EDGE('',*,*,#269,.F.);
#161=ORIENTED_EDGE('',*,*,#263,.F.);
#162=ORIENTED_EDGE('',*,*,#262,.T.);
#163=ORIENTED_EDGE('',*,*,#284,.T.);
#164=ORIENTED_EDGE('',*,*,#285,.T.);
#165=ORIENTED_EDGE('',*,*,#273,.T.);
#166=ORIENTED_EDGE('',*,*,#283,.T.);
#167=ORIENTED_EDGE('',*,*,#286,.T.);
#168=ORIENTED_EDGE('',*,*,#287,.T.);
#169=ORIENTED_EDGE('',*,*,#288,.T.);
#170=ORIENTED_EDGE('',*,*,#289,.T.);
#171=ORIENTED_EDGE('',*,*,#290,.T.);
#172=ORIENTED_EDGE('',*,*,#291,.T.);
#173=ORIENTED_EDGE('',*,*,#292,.T.);
#174=ORIENTED_EDGE('',*,*,#293,.T.);
#175=ORIENTED_EDGE('',*,*,#285,.F.);
#176=ORIENTED_EDGE('',*,*,#294,.T.);
#177=ORIENTED_EDGE('',*,*,#295,.F.);
#178=ORIENTED_EDGE('',*,*,#278,.T.);
#179=ORIENTED_EDGE('',*,*,#274,.T.);
#180=ORIENTED_EDGE('',*,*,#295,.T.);
#181=ORIENTED_EDGE('',*,*,#296,.T.);
#182=ORIENTED_EDGE('',*,*,#267,.T.);
#183=ORIENTED_EDGE('',*,*,#279,.F.);
#184=ORIENTED_EDGE('',*,*,#268,.F.);
#185=ORIENTED_EDGE('',*,*,#296,.F.);
#186=ORIENTED_EDGE('',*,*,#294,.F.);
#187=ORIENTED_EDGE('',*,*,#284,.F.);
#188=ORIENTED_EDGE('',*,*,#290,.F.);
#189=ORIENTED_EDGE('',*,*,#297,.T.);
#190=ORIENTED_EDGE('',*,*,#298,.T.);
#191=ORIENTED_EDGE('',*,*,#299,.T.);
#192=ORIENTED_EDGE('',*,*,#300,.T.);
#193=ORIENTED_EDGE('',*,*,#301,.T.);
#194=ORIENTED_EDGE('',*,*,#292,.F.);
#195=ORIENTED_EDGE('',*,*,#302,.T.);
#196=ORIENTED_EDGE('',*,*,#286,.F.);
#197=ORIENTED_EDGE('',*,*,#303,.T.);
#198=ORIENTED_EDGE('',*,*,#304,.T.);
#199=ORIENTED_EDGE('',*,*,#305,.T.);
#200=ORIENTED_EDGE('',*,*,#306,.T.);
#201=ORIENTED_EDGE('',*,*,#307,.T.);
#202=ORIENTED_EDGE('',*,*,#288,.F.);
#203=ORIENTED_EDGE('',*,*,#308,.T.);
#204=ORIENTED_EDGE('',*,*,#304,.F.);
#205=ORIENTED_EDGE('',*,*,#309,.T.);
#206=ORIENTED_EDGE('',*,*,#300,.F.);
#207=ORIENTED_EDGE('',*,*,#310,.T.);
#208=ORIENTED_EDGE('',*,*,#298,.F.);
#209=ORIENTED_EDGE('',*,*,#311,.T.);
#210=ORIENTED_EDGE('',*,*,#306,.F.);
#211=ORIENTED_EDGE('',*,*,#312,.T.);
#212=ORIENTED_EDGE('',*,*,#293,.F.);
#213=ORIENTED_EDGE('',*,*,#301,.F.);
#214=ORIENTED_EDGE('',*,*,#309,.F.);
#215=ORIENTED_EDGE('',*,*,#303,.F.);
#216=ORIENTED_EDGE('',*,*,#289,.F.);
#217=ORIENTED_EDGE('',*,*,#307,.F.);
#218=ORIENTED_EDGE('',*,*,#311,.F.);
#219=ORIENTED_EDGE('',*,*,#297,.F.);
#220=ORIENTED_EDGE('',*,*,#291,.F.);
#221=ORIENTED_EDGE('',*,*,#299,.F.);
#222=ORIENTED_EDGE('',*,*,#310,.F.);
#223=ORIENTED_EDGE('',*,*,#302,.F.);
#224=ORIENTED_EDGE('',*,*,#287,.F.);
#225=ORIENTED_EDGE('',*,*,#305,.F.);
#226=ORIENTED_EDGE('',*,*,#312,.F.);
#227=ORIENTED_EDGE('',*,*,#308,.F.);
#228=VERTEX_POINT('',#531);
#229=VERTEX_POINT('',#532);
#230=VERTEX_POINT('',#534);
#231=VERTEX_POINT('',#536);
#232=VERTEX_POINT('',#538);
#233=VERTEX_POINT('',#540);
#234=VERTEX_POINT('',#542);
#235=VERTEX_POINT('',#546);
#236=VERTEX_POINT('',#548);
#237=VERTEX_POINT('',#550);
#238=VERTEX_POINT('',#554);
#239=VERTEX_POINT('',#555);
#240=VERTEX_POINT('',#557);
#241=VERTEX_POINT('',#559);
#242=VERTEX_POINT('',#564);
#243=VERTEX_POINT('',#567);
#244=VERTEX_POINT('',#576);
#245=VERTEX_POINT('',#580);
#246=VERTEX_POINT('',#581);
#247=VERTEX_POINT('',#583);
#248=VERTEX_POINT('',#585);
#249=VERTEX_POINT('',#587);
#250=VERTEX_POINT('',#589);
#251=VERTEX_POINT('',#591);
#252=VERTEX_POINT('',#593);
#253=VERTEX_POINT('',#596);
#254=VERTEX_POINT('',#603);
#255=VERTEX_POINT('',#605);
#256=VERTEX_POINT('',#609);
#257=VERTEX_POINT('',#610);
#258=VERTEX_POINT('',#615);
#259=VERTEX_POINT('',#617);
#260=VERTEX_POINT('',#621);
#261=VERTEX_POINT('',#622);
#262=EDGE_CURVE('',#228,#229,#313,.T.);
#263=EDGE_CURVE('',#228,#230,#314,.T.);
#264=EDGE_CURVE('',#231,#230,#315,.T.);
#265=EDGE_CURVE('',#232,#231,#316,.T.);
#266=EDGE_CURVE('',#233,#232,#317,.T.);
#267=EDGE_CURVE('',#234,#233,#318,.T.);
#268=EDGE_CURVE('',#234,#229,#116,.T.);
#269=EDGE_CURVE('',#230,#235,#319,.T.);
#270=EDGE_CURVE('',#236,#235,#320,.T.);
#271=EDGE_CURVE('',#236,#237,#321,.T.);
#272=EDGE_CURVE('',#237,#231,#322,.T.);
#273=EDGE_CURVE('',#238,#239,#323,.T.);
#274=EDGE_CURVE('',#240,#238,#324,.T.);
#275=EDGE_CURVE('',#241,#240,#325,.T.);
#276=EDGE_CURVE('',#241,#236,#326,.T.);
#277=EDGE_CURVE('',#235,#239,#327,.T.);
#278=EDGE_CURVE('',#242,#240,#328,.T.);
#279=EDGE_CURVE('',#242,#233,#329,.T.);
#280=EDGE_CURVE('',#243,#232,#330,.T.);
#281=EDGE_CURVE('',#243,#241,#331,.T.);
#282=EDGE_CURVE('',#237,#243,#332,.T.);
#283=EDGE_CURVE('',#239,#228,#333,.T.);
#284=EDGE_CURVE('',#229,#244,#334,.T.);
#285=EDGE_CURVE('',#244,#238,#335,.T.);
#286=EDGE_CURVE('',#245,#246,#336,.T.);
#287=EDGE_CURVE('',#246,#247,#117,.T.);
#288=EDGE_CURVE('',#247,#248,#337,.T.);
#289=EDGE_CURVE('',#248,#249,#118,.T.);
#290=EDGE_CURVE('',#249,#250,#338,.T.);
#291=EDGE_CURVE('',#250,#251,#119,.T.);
#292=EDGE_CURVE('',#251,#252,#339,.T.);
#293=EDGE_CURVE('',#252,#245,#120,.T.);
#294=EDGE_CURVE('',#244,#253,#121,.T.);
#295=EDGE_CURVE('',#242,#253,#340,.T.);
#296=EDGE_CURVE('',#253,#234,#341,.T.);
#297=EDGE_CURVE('',#249,#254,#342,.T.);
#298=EDGE_CURVE('',#254,#255,#343,.T.);
#299=EDGE_CURVE('',#255,#250,#344,.T.);
#300=EDGE_CURVE('',#256,#257,#345,.T.);
#301=EDGE_CURVE('',#257,#252,#346,.T.);
#302=EDGE_CURVE('',#251,#256,#347,.T.);
#303=EDGE_CURVE('',#245,#258,#348,.T.);
#304=EDGE_CURVE('',#258,#259,#349,.T.);
#305=EDGE_CURVE('',#259,#246,#350,.T.);
#306=EDGE_CURVE('',#260,#261,#351,.T.);
#307=EDGE_CURVE('',#261,#248,#352,.T.);
#308=EDGE_CURVE('',#247,#260,#353,.T.);
#309=EDGE_CURVE('',#258,#257,#122,.T.);
#310=EDGE_CURVE('',#256,#255,#123,.T.);
#311=EDGE_CURVE('',#254,#261,#124,.T.);
#312=EDGE_CURVE('',#260,#259,#125,.T.);
#313=LINE('',#530,#354);
#314=LINE('',#533,#355);
#315=LINE('',#535,#356);
#316=LINE('',#537,#357);
#317=LINE('',#539,#358);
#318=LINE('',#541,#359);
#319=LINE('',#545,#360);
#320=LINE('',#547,#361);
#321=LINE('',#549,#362);
#322=LINE('',#551,#363);
#323=LINE('',#553,#364);
#324=LINE('',#556,#365);
#325=LINE('',#558,#366);
#326=LINE('',#560,#367);
#327=LINE('',#561,#368);
#328=LINE('',#563,#369);
#329=LINE('',#565,#370);
#330=LINE('',#566,#371);
#331=LINE('',#568,#372);
#332=LINE('',#570,#373);
#333=LINE('',#573,#374);
#334=LINE('',#575,#375);
#335=LINE('',#577,#376);
#336=LINE('',#579,#377);
#337=LINE('',#584,#378);
#338=LINE('',#588,#379);
#339=LINE('',#592,#380);
#340=LINE('',#597,#381);
#341=LINE('',#599,#382);
#342=LINE('',#602,#383);
#343=LINE('',#604,#384);
#344=LINE('',#606,#385);
#345=LINE('',#608,#386);
#346=LINE('',#611,#387);
#347=LINE('',#612,#388);
#348=LINE('',#614,#389);
#349=LINE('',#616,#390);
#350=LINE('',#618,#391);
#351=LINE('',#620,#392);
#352=LINE('',#623,#393);
#353=LINE('',#624,#394);
#354=VECTOR('',#428,1.);
#355=VECTOR('',#429,1.);
#356=VECTOR('',#430,1.);
#357=VECTOR('',#431,1.);
#358=VECTOR('',#432,1.);
#359=VECTOR('',#433,1.);
#360=VECTOR('',#438,1.);
#361=VECTOR('',#439,1.);
#362=VECTOR('',#440,1.);
#363=VECTOR('',#441,1.);
#364=VECTOR('',#444,1.);
#365=VECTOR('',#445,1.);
#366=VECTOR('',#446,1.);
#367=VECTOR('',#447,1.);
#368=VECTOR('',#448,1.);
#369=VECTOR('',#451,1.);
#370=VECTOR('',#452,1.);
#371=VECTOR('',#453,1.);
#372=VECTOR('',#454,1.);
#373=VECTOR('',#457,1.);
#374=VECTOR('',#462,1.);
#375=VECTOR('',#465,1.);
#376=VECTOR('',#466,1.);
#377=VECTOR('',#469,1.);
#378=VECTOR('',#472,1.);
#379=VECTOR('',#475,1.);
#380=VECTOR('',#478,1.);
#381=VECTOR('',#483,1.);
#382=VECTOR('',#486,1.);
#383=VECTOR('',#491,1.);
#384=VECTOR('',#492,1.);
#385=VECTOR('',#493,1.);
#386=VECTOR('',#496,1.);
#387=VECTOR('',#497,1.);
#388=VECTOR('',#498,1.);
#389=VECTOR('',#501,1.);
#390=VECTOR('',#502,1.);
#391=VECTOR('',#503,1.);
#392=VECTOR('',#506,1.);
#393=VECTOR('',#507,1.);
#394=VECTOR('',#508,1.);
#395=AXIS2_PLACEMENT_3D('',#529,#426,#427);
#396=AXIS2_PLACEMENT_3D('',#543,#434,#435);
#397=AXIS2_PLACEMENT_3D('',#544,#436,#437);
#398=AXIS2_PLACEMENT_3D('',#552,#442,#443);
#399=AXIS2_PLACEMENT_3D('',#562,#449,#450);
#400=AXIS2_PLACEMENT_3D('',#569,#455,#456);
#401=AXIS2_PLACEMENT_3D('',#571,#458,#459);
#402=AXIS2_PLACEMENT_3D('',#572,#460,#461);
#403=AXIS2_PLACEMENT_3D('',#574,#463,#464);
#404=AXIS2_PLACEMENT_3D('',#578,#467,#468);
#405=AXIS2_PLACEMENT_3D('',#582,#470,#471);
#406=AXIS2_PLACEMENT_3D('',#586,#473,#474);
#407=AXIS2_PLACEMENT_3D('',#590,#476,#477);
#408=AXIS2_PLACEMENT_3D('',#594,#479,#480);
#409=AXIS2_PLACEMENT_3D('',#595,#481,#482);
#410=AXIS2_PLACEMENT_3D('',#598,#484,#485);
#411=AXIS2_PLACEMENT_3D('',#600,#487,#488);
#412=AXIS2_PLACEMENT_3D('',#601,#489,#490);
#413=AXIS2_PLACEMENT_3D('',#607,#494,#495);
#414=AXIS2_PLACEMENT_3D('',#613,#499,#500);
#415=AXIS2_PLACEMENT_3D('',#619,#504,#505);
#416=AXIS2_PLACEMENT_3D('',#625,#509,#510);
#417=AXIS2_PLACEMENT_3D('',#626,#511,#512);
#418=AXIS2_PLACEMENT_3D('',#627,#513,#514);
#419=AXIS2_PLACEMENT_3D('',#628,#515,#516);
#420=AXIS2_PLACEMENT_3D('',#629,#517,#518);
#421=AXIS2_PLACEMENT_3D('',#630,#519,#520);
#422=AXIS2_PLACEMENT_3D('',#631,#521,#522);
#423=AXIS2_PLACEMENT_3D('',#632,#523,#524);
#424=AXIS2_PLACEMENT_3D('',#633,#525,#526);
#425=AXIS2_PLACEMENT_3D('',#634,#527,#528);
#426=DIRECTION('',(0.,0.,1.));
#427=DIRECTION('',(1.,0.,0.));
#428=DIRECTION('',(1.,0.,0.));
#429=DIRECTION('',(0.,-1.,0.));
#430=DIRECTION('',(-1.,0.,0.));
#431=DIRECTION('',(0.,-1.,0.));
#432=DIRECTION('',(1.,0.,0.));
#433=DIRECTION('',(0.,1.,0.));
#434=DIRECTION('',(0.,0.,-1.));
#435=DIRECTION('',(1.,0.,0.));
#436=DIRECTION('',(0.,0.,1.));
#437=DIRECTION('',(1.,0.,0.));
#438=DIRECTION('',(-0.707106781186548,0.,-0.707106781186548));
#439=DIRECTION('',(0.,0.,1.));
#440=DIRECTION('',(1.,0.,0.));
#441=DIRECTION('',(0.,0.,1.));
#442=DIRECTION('',(0.,-1.,0.));
#443=DIRECTION('',(0.,0.,-1.));
#444=DIRECTION('',(0.,0.,1.));
#445=DIRECTION('',(0.,-1.,0.));
#446=DIRECTION('',(0.,0.,1.));
#447=DIRECTION('',(0.,-1.,0.));
#448=DIRECTION('',(0.,1.,0.));
#449=DIRECTION('',(-1.,0.,0.));
#450=DIRECTION('',(0.,0.,1.));
#451=DIRECTION('',(-1.,0.,0.));
#452=DIRECTION('',(0.,0.,1.));
#453=DIRECTION('',(0.,0.,1.));
#454=DIRECTION('',(-1.,0.,0.));
#455=DIRECTION('',(0.,1.,0.));
#456=DIRECTION('',(0.,0.,1.));
#457=DIRECTION('',(0.,1.,0.));
#458=DIRECTION('',(0.,0.,-1.));
#459=DIRECTION('',(-1.,0.,0.));
#460=DIRECTION('',(1.,0.,0.));
#461=DIRECTION('',(0.,0.,-1.));
#462=DIRECTION('',(0.707106781186548,0.,0.707106781186548));
#463=DIRECTION('',(0.707106781186547,0.,-0.707106781186547));
#464=DIRECTION('',(0.,1.,0.));
#465=DIRECTION('',(0.,0.,-1.));
#466=DIRECTION('',(-1.,0.,0.));
#467=DIRECTION('',(0.,-1.,0.));
#468=DIRECTION('',(0.,0.,-1.));
#469=DIRECTION('',(1.,0.,0.));
#470=DIRECTION('',(0.,0.,-1.));
#471=DIRECTION('',(-1.,0.,0.));
#472=DIRECTION('',(0.,-1.,0.));
#473=DIRECTION('',(0.,0.,-1.));
#474=DIRECTION('',(-1.,0.,0.));
#475=DIRECTION('',(-1.,0.,0.));
#476=DIRECTION('',(0.,0.,-1.));
#477=DIRECTION('',(-1.,0.,0.));
#478=DIRECTION('',(0.,1.,0.));
#479=DIRECTION('',(0.,0.,-1.));
#480=DIRECTION('',(-1.,0.,0.));
#481=DIRECTION('',(0.,0.,1.));
#482=DIRECTION('',(-1.,0.,0.));
#483=DIRECTION('',(0.,-1.,0.));
#484=DIRECTION('',(0.,0.,-1.));
#485=DIRECTION('',(-1.,0.,0.));
#486=DIRECTION('',(0.,0.,1.));
#487=DIRECTION('',(1.,0.,0.));
#488=DIRECTION('',(0.,0.,-1.));
#489=DIRECTION('',(0.,0.,1.));
#490=DIRECTION('',(1.,0.,0.));
#491=DIRECTION('',(0.,0.,-1.));
#492=DIRECTION('',(-1.,0.,0.));
#493=DIRECTION('',(0.,0.,1.));
#494=DIRECTION('',(0.,-1.,0.));
#495=DIRECTION('',(0.,0.,-1.));
#496=DIRECTION('',(0.,1.,0.));
#497=DIRECTION('',(0.,0.,1.));
#498=DIRECTION('',(0.,0.,-1.));
#499=DIRECTION('',(-1.,0.,0.));
#500=DIRECTION('',(0.,0.,1.));
#501=DIRECTION('',(0.,0.,-1.));
#502=DIRECTION('',(1.,0.,0.));
#503=DIRECTION('',(0.,0.,1.));
#504=DIRECTION('',(0.,1.,0.));
#505=DIRECTION('',(0.,0.,1.));
#506=DIRECTION('',(0.,-1.,0.));
#507=DIRECTION('',(0.,0.,1.));
#508=DIRECTION('',(0.,0.,-1.));
#509=DIRECTION('',(1.,0.,0.));
#510=DIRECTION('',(0.,0.,-1.));
#511=DIRECTION('',(0.,0.,1.));
#512=DIRECTION('',(-1.,0.,0.));
#513=DIRECTION('',(0.,0.,1.));
#514=DIRECTION('',(-1.,0.,0.));
#515=DIRECTION('',(0.,0.,1.));
#516=DIRECTION('',(-1.,0.,0.));
#517=DIRECTION('',(0.,0.,1.));
#518=DIRECTION('',(-1.,0.,0.));
#519=DIRECTION('',(0.,0.,-1.));
#520=DIRECTION('',(-1.,0.,0.));
#521=DIRECTION('',(0.,0.,1.));
#522=DIRECTION('',(1.,0.,0.));
#523=DIRECTION('',(0.,0.,1.));
#524=DIRECTION('',(1.,0.,0.));
#525=DIRECTION('',(0.,0.,1.));
#526=DIRECTION('',(1.,0.,0.));
#527=DIRECTION('',(0.,0.,1.));
#528=DIRECTION('',(1.,0.,0.));
#529=CARTESIAN_POINT('',(0.,0.,0.));
#530=CARTESIAN_POINT('',(103.15,270.,93.4));
#531=CARTESIAN_POINT('',(9.6,270.,93.4));
#532=CARTESIAN_POINT('',(48.,270.,93.4));
#533=CARTESIAN_POINT('',(9.6,181.85,93.4));
#534=CARTESIAN_POINT('',(9.6,0.,93.4));
#535=CARTESIAN_POINT('',(103.15,0.,93.4));
#536=CARTESIAN_POINT('',(206.3,0.,93.4));
#537=CARTESIAN_POINT('',(206.3,181.85,93.4));
#538=CARTESIAN_POINT('',(206.3,363.7,93.4));
#539=CARTESIAN_POINT('',(103.15,363.7,93.4));
#540=CARTESIAN_POINT('',(57.8,363.7,93.4));
#541=CARTESIAN_POINT('',(57.8,181.85,93.4));
#542=CARTESIAN_POINT('',(57.8,279.8,93.4));
#543=CARTESIAN_POINT('',(48.,279.8,93.4));
#544=CARTESIAN_POINT('',(103.15,181.85,93.4));
#545=CARTESIAN_POINT('',(9.67500000000002,0.,93.475));
#546=CARTESIAN_POINT('',(0.,0.,83.8));
#547=CARTESIAN_POINT('',(0.,0.,0.));
#548=CARTESIAN_POINT('',(0.,0.,0.));
#549=CARTESIAN_POINT('',(103.15,0.,0.));
#550=CARTESIAN_POINT('',(206.3,0.,0.));
#551=CARTESIAN_POINT('',(206.3,0.,0.));
#552=CARTESIAN_POINT('',(103.15,0.,0.));
#553=CARTESIAN_POINT('',(0.,270.,79.9));
#554=CARTESIAN_POINT('',(0.,270.,79.9));
#555=CARTESIAN_POINT('',(0.,270.,83.8));
#556=CARTESIAN_POINT('',(0.,316.85,79.9));
#557=CARTESIAN_POINT('',(0.,363.7,79.9));
#558=CARTESIAN_POINT('',(0.,363.7,0.));
#559=CARTESIAN_POINT('',(0.,363.7,0.));
#560=CARTESIAN_POINT('',(0.,181.85,0.));
#561=CARTESIAN_POINT('',(0.,181.85,83.8));
#562=CARTESIAN_POINT('',(0.,181.85,0.));
#563=CARTESIAN_POINT('',(28.9,363.7,79.9));
#564=CARTESIAN_POINT('',(57.8,363.7,79.9));
#565=CARTESIAN_POINT('',(57.8,363.7,79.9));
#566=CARTESIAN_POINT('',(206.3,363.7,0.));
#567=CARTESIAN_POINT('',(206.3,363.7,0.));
#568=CARTESIAN_POINT('',(103.15,363.7,0.));
#569=CARTESIAN_POINT('',(103.15,363.7,0.));
#570=CARTESIAN_POINT('',(206.3,181.85,0.));
#571=CARTESIAN_POINT('',(103.15,181.85,0.));
#572=CARTESIAN_POINT('',(206.3,181.85,0.));
#573=CARTESIAN_POINT('',(0.,270.,83.8));
#574=CARTESIAN_POINT('',(0.,181.85,83.8));
#575=CARTESIAN_POINT('',(48.,270.,79.9));
#576=CARTESIAN_POINT('',(48.,270.,79.9));
#577=CARTESIAN_POINT('',(28.9,270.,79.9));
#578=CARTESIAN_POINT('',(28.9,270.,79.9));
#579=CARTESIAN_POINT('',(28.9,321.1,79.9));
#580=CARTESIAN_POINT('',(22.,321.1,79.9));
#581=CARTESIAN_POINT('',(24.2,321.1,79.9));
#582=CARTESIAN_POINT('',(24.2,311.9,79.9));
#583=CARTESIAN_POINT('',(33.4,311.9,79.9));
#584=CARTESIAN_POINT('',(33.4,316.85,79.9));
#585=CARTESIAN_POINT('',(33.4,295.2,79.9));
#586=CARTESIAN_POINT('',(24.2,295.2,79.9));
#587=CARTESIAN_POINT('',(24.2,286.,79.9));
#588=CARTESIAN_POINT('',(28.9,286.,79.9));
#589=CARTESIAN_POINT('',(22.,286.,79.9));
#590=CARTESIAN_POINT('',(22.,295.2,79.9));
#591=CARTESIAN_POINT('',(12.8,295.2,79.9));
#592=CARTESIAN_POINT('',(12.8,316.85,79.9));
#593=CARTESIAN_POINT('',(12.8,311.9,79.9));
#594=CARTESIAN_POINT('',(22.,311.9,79.9));
#595=CARTESIAN_POINT('',(48.,279.8,79.9));
#596=CARTESIAN_POINT('',(57.8,279.8,79.9));
#597=CARTESIAN_POINT('',(57.8,316.85,79.9));
#598=CARTESIAN_POINT('',(28.9,316.85,79.9));
#599=CARTESIAN_POINT('',(57.8,279.8,93.4));
#600=CARTESIAN_POINT('',(57.8,316.85,79.9));
#601=CARTESIAN_POINT('',(48.,279.8,79.9));
#602=CARTESIAN_POINT('',(24.2,286.,55.5));
#603=CARTESIAN_POINT('',(24.2,286.,55.5));
#604=CARTESIAN_POINT('',(23.1,286.,55.5));
#605=CARTESIAN_POINT('',(22.,286.,55.5));
#606=CARTESIAN_POINT('',(22.,286.,79.9));
#607=CARTESIAN_POINT('',(23.1,286.,55.5));
#608=CARTESIAN_POINT('',(12.8,303.55,55.5));
#609=CARTESIAN_POINT('',(12.8,295.2,55.5));
#610=CARTESIAN_POINT('',(12.8,311.9,55.5));
#611=CARTESIAN_POINT('',(12.8,311.9,79.9));
#612=CARTESIAN_POINT('',(12.8,295.2,55.5));
#613=CARTESIAN_POINT('',(12.8,303.55,55.5));
#614=CARTESIAN_POINT('',(22.,321.1,55.5));
#615=CARTESIAN_POINT('',(22.,321.1,55.5));
#616=CARTESIAN_POINT('',(23.1,321.1,55.5));
#617=CARTESIAN_POINT('',(24.2,321.1,55.5));
#618=CARTESIAN_POINT('',(24.2,321.1,79.9));
#619=CARTESIAN_POINT('',(23.1,321.1,55.5));
#620=CARTESIAN_POINT('',(33.4,303.55,55.5));
#621=CARTESIAN_POINT('',(33.4,311.9,55.5));
#622=CARTESIAN_POINT('',(33.4,295.2,55.5));
#623=CARTESIAN_POINT('',(33.4,295.2,79.9));
#624=CARTESIAN_POINT('',(33.4,311.9,55.5));
#625=CARTESIAN_POINT('',(33.4,303.55,55.5));
#626=CARTESIAN_POINT('',(22.,311.9,55.5));
#627=CARTESIAN_POINT('',(22.,295.2,55.5));
#628=CARTESIAN_POINT('',(24.2,295.2,55.5));
#629=CARTESIAN_POINT('',(24.2,311.9,55.5));
#630=CARTESIAN_POINT('',(23.1,303.55,55.5));
#631=CARTESIAN_POINT('',(22.,311.9,55.5));
#632=CARTESIAN_POINT('',(24.2,295.2,55.5));
#633=CARTESIAN_POINT('',(22.,295.2,55.5));
#634=CARTESIAN_POINT('',(24.2,311.9,55.5));
#635=MECHANICAL_DESIGN_GEOMETRIC_PRESENTATION_REPRESENTATION('',(#24),#636);
#636=(
GEOMETRIC_REPRESENTATION_CONTEXT(3)
GLOBAL_UNCERTAINTY_ASSIGNED_CONTEXT((#637))
GLOBAL_UNIT_ASSIGNED_CONTEXT((#643,#639,#638))
REPRESENTATION_CONTEXT('featured_part_00168','TOP_LEVEL_ASSEMBLY_PART')
);
#637=UNCERTAINTY_MEASURE_WITH_UNIT(LENGTH_MEASURE(2.E-5),#643,
'DISTANCE_ACCURACY_VALUE','Maximum Tolerance applied to model');
#638=(
NAMED_UNIT(*)
SI_UNIT($,.STERADIAN.)
SOLID_ANGLE_UNIT()
);
#639=(
CONVERSION_BASED_UNIT('DEGREE',#641)
NAMED_UNIT(#640)
PLANE_ANGLE_UNIT()
);
#640=DIMENSIONAL_EXPONENTS(0.,0.,0.,0.,0.,0.,0.);
#641=PLANE_ANGLE_MEASURE_WITH_UNIT(PLANE_ANGLE_MEASURE(0.0174532925),#642);
#642=(
NAMED_UNIT(*)
PLANE_ANGLE_UNIT()
SI_UNIT($,.RADIAN.)
);
#643=(
LENGTH_UNIT()
NAMED_UNIT(*)
SI_UNIT(.MILLI.,.METRE.)
);
ENDSEC;
END-ISO-10303-21;
