ISO-10303-21;
HEADER;
/* Generated by software containing ST-Developer
 * from STEP Tools, Inc. (www.steptools.com) 
 */
/* OPTION: using custom schema-name function */

FILE_DESCRIPTION(
/* description */ (''),
/* implementation_level */ '2;1');

FILE_NAME(
/* name */ 'featured_part_10487.stp',
/* time_stamp */ '2026-07-12T04:30:53-04:00',
/* author */ (''),
/* organization */ (''),
/* preprocessor_version */ 'ST-DEVELOPER v20.1',
/* originating_system */ 'SIEMENS PLM Software NX2512.6002',
/* authorisation */ '');

FILE_SCHEMA (('AUTOMOTIVE_DESIGN { 1 0 10303 214 3 1 1 1 }'));
ENDSEC;

DATA;
#10=SHAPE_REPRESENTATION_RELATIONSHIP('None',
'relationship between featured_part_10487-None and featured_part_10487
-None',#22,#11);
#11=ADVANCED_BREP_SHAPE_REPRESENTATION('featured_part_10487-None',(#32),
#1159);
#12=SHAPE_DEFINITION_REPRESENTATION(#13,#22);
#13=PRODUCT_DEFINITION_SHAPE('','',#14);
#14=PRODUCT_DEFINITION(' ','',#16,#15);
#15=PRODUCT_DEFINITION_CONTEXT('part definition',#21,'design');
#16=PRODUCT_DEFINITION_FORMATION_WITH_SPECIFIED_SOURCE(' ',' ',#18,
 .NOT_KNOWN.);
#17=PRODUCT_RELATED_PRODUCT_CATEGORY('part','',(#18));
#18=PRODUCT('featured_part_10487','featured_part_10487',' ',(#19));
#19=PRODUCT_CONTEXT(' ',#21,'mechanical');
#20=APPLICATION_PROTOCOL_DEFINITION('international standard',
'automotive_design',2010,#21);
#21=APPLICATION_CONTEXT(
'core data for automotive mechanical design processes');
#22=SHAPE_REPRESENTATION('featured_part_10487-None',(#713),#1159);
#23=PRESENTATION_LAYER_ASSIGNMENT('1','Layer 1',(#32));
#24=STYLED_ITEM('',(#25),#32);
#25=PRESENTATION_STYLE_ASSIGNMENT((#26));
#26=SURFACE_STYLE_USAGE(.BOTH.,#27);
#27=SURFACE_SIDE_STYLE('',(#28));
#28=SURFACE_STYLE_FILL_AREA(#29);
#29=FILL_AREA_STYLE('',(#30));
#30=FILL_AREA_STYLE_COLOUR('',#31);
#31=COLOUR_RGB('medium steel',0.611764705882353,0.658823529411765,0.670588235294118);
#32=MANIFOLD_SOLID_BREP('',#33);
#33=CLOSED_SHELL('',(#72,#73,#74,#75,#76,#77,#78,#79,#80,#81,#82,#83,#84,
#85,#86,#87,#88,#89,#90,#91,#92,#93,#94,#95,#96,#97,#98,#99,#100,#101,#102,
#103,#104,#105,#106,#107));
#34=CYLINDRICAL_SURFACE('',#746,11.2);
#35=CYLINDRICAL_SURFACE('',#747,11.2);
#36=CYLINDRICAL_SURFACE('',#757,3.1);
#37=CYLINDRICAL_SURFACE('',#758,3.1);
#38=CYLINDRICAL_SURFACE('',#759,3.1);
#39=CYLINDRICAL_SURFACE('',#760,3.1);
#40=CYLINDRICAL_SURFACE('',#765,7.8);
#41=CYLINDRICAL_SURFACE('',#766,5.95);
#42=CYLINDRICAL_SURFACE('',#769,11.75);
#43=ELLIPSE('',#729,16.6170093578839,11.75);
#44=FACE_BOUND('',#174,.T.);
#45=FACE_BOUND('',#175,.T.);
#46=FACE_BOUND('',#184,.T.);
#47=FACE_BOUND('',#185,.T.);
#48=FACE_BOUND('',#186,.T.);
#49=FACE_BOUND('',#203,.T.);
#50=FACE_BOUND('',#204,.T.);
#51=FACE_BOUND('',#206,.T.);
#52=FACE_BOUND('',#207,.T.);
#53=CIRCLE('',#715,11.2);
#54=CIRCLE('',#716,11.2);
#55=CIRCLE('',#719,11.75);
#56=CIRCLE('',#720,7.8);
#57=CIRCLE('',#725,5.95);
#58=CIRCLE('',#733,11.75);
#59=CIRCLE('',#737,5.95);
#60=CIRCLE('',#738,3.1);
#61=CIRCLE('',#739,3.1);
#62=CIRCLE('',#740,3.1);
#63=CIRCLE('',#741,3.1);
#64=CIRCLE('',#742,11.2);
#65=CIRCLE('',#743,11.2);
#66=CIRCLE('',#752,3.1);
#67=CIRCLE('',#753,3.1);
#68=CIRCLE('',#754,3.1);
#69=CIRCLE('',#755,3.1);
#70=CIRCLE('',#763,7.8);
#71=CIRCLE('',#767,11.75);
#72=ADVANCED_FACE('',(#135),#108,.F.);
#73=ADVANCED_FACE('',(#136),#109,.T.);
#74=ADVANCED_FACE('',(#137),#110,.F.);
#75=ADVANCED_FACE('',(#138),#111,.T.);
#76=ADVANCED_FACE('',(#139),#112,.T.);
#77=ADVANCED_FACE('',(#140),#113,.T.);
#78=ADVANCED_FACE('',(#141),#114,.T.);
#79=ADVANCED_FACE('',(#44,#45),#115,.T.);
#80=ADVANCED_FACE('',(#142),#116,.T.);
#81=ADVANCED_FACE('',(#143),#117,.F.);
#82=ADVANCED_FACE('',(#144),#118,.F.);
#83=ADVANCED_FACE('',(#145),#119,.F.);
#84=ADVANCED_FACE('',(#146),#120,.F.);
#85=ADVANCED_FACE('',(#147),#121,.F.);
#86=ADVANCED_FACE('',(#148),#122,.F.);
#87=ADVANCED_FACE('',(#149),#123,.F.);
#88=ADVANCED_FACE('',(#46,#47,#48),#124,.F.);
#89=ADVANCED_FACE('',(#150),#125,.F.);
#90=ADVANCED_FACE('',(#151),#34,.F.);
#91=ADVANCED_FACE('',(#152),#35,.F.);
#92=ADVANCED_FACE('',(#153),#126,.F.);
#93=ADVANCED_FACE('',(#154),#127,.F.);
#94=ADVANCED_FACE('',(#155),#128,.F.);
#95=ADVANCED_FACE('',(#156),#129,.F.);
#96=ADVANCED_FACE('',(#157),#130,.F.);
#97=ADVANCED_FACE('',(#158),#36,.F.);
#98=ADVANCED_FACE('',(#159),#37,.F.);
#99=ADVANCED_FACE('',(#160),#38,.F.);
#100=ADVANCED_FACE('',(#161),#39,.F.);
#101=ADVANCED_FACE('',(#162),#131,.F.);
#102=ADVANCED_FACE('',(#163),#132,.F.);
#103=ADVANCED_FACE('',(#164),#133,.F.);
#104=ADVANCED_FACE('',(#165),#40,.F.);
#105=ADVANCED_FACE('',(#49,#50),#41,.F.);
#106=ADVANCED_FACE('',(#166),#134,.F.);
#107=ADVANCED_FACE('',(#51,#52),#42,.F.);
#108=PLANE('',#714);
#109=PLANE('',#717);
#110=PLANE('',#718);
#111=PLANE('',#721);
#112=PLANE('',#722);
#113=PLANE('',#723);
#114=PLANE('',#724);
#115=PLANE('',#726);
#116=PLANE('',#727);
#117=PLANE('',#728);
#118=PLANE('',#730);
#119=PLANE('',#731);
#120=PLANE('',#732);
#121=PLANE('',#734);
#122=PLANE('',#735);
#123=PLANE('',#736);
#124=PLANE('',#744);
#125=PLANE('',#745);
#126=PLANE('',#748);
#127=PLANE('',#749);
#128=PLANE('',#750);
#129=PLANE('',#751);
#130=PLANE('',#756);
#131=PLANE('',#761);
#132=PLANE('',#762);
#133=PLANE('',#764);
#134=PLANE('',#768);
#135=FACE_OUTER_BOUND('',#167,.T.);
#136=FACE_OUTER_BOUND('',#168,.T.);
#137=FACE_OUTER_BOUND('',#169,.T.);
#138=FACE_OUTER_BOUND('',#170,.T.);
#139=FACE_OUTER_BOUND('',#171,.T.);
#140=FACE_OUTER_BOUND('',#172,.T.);
#141=FACE_OUTER_BOUND('',#173,.T.);
#142=FACE_OUTER_BOUND('',#176,.T.);
#143=FACE_OUTER_BOUND('',#177,.T.);
#144=FACE_OUTER_BOUND('',#178,.T.);
#145=FACE_OUTER_BOUND('',#179,.T.);
#146=FACE_OUTER_BOUND('',#180,.T.);
#147=FACE_OUTER_BOUND('',#181,.T.);
#148=FACE_OUTER_BOUND('',#182,.T.);
#149=FACE_OUTER_BOUND('',#183,.T.);
#150=FACE_OUTER_BOUND('',#187,.T.);
#151=FACE_OUTER_BOUND('',#188,.T.);
#152=FACE_OUTER_BOUND('',#189,.T.);
#153=FACE_OUTER_BOUND('',#190,.T.);
#154=FACE_OUTER_BOUND('',#191,.T.);
#155=FACE_OUTER_BOUND('',#192,.T.);
#156=FACE_OUTER_BOUND('',#193,.T.);
#157=FACE_OUTER_BOUND('',#194,.T.);
#158=FACE_OUTER_BOUND('',#195,.T.);
#159=FACE_OUTER_BOUND('',#196,.T.);
#160=FACE_OUTER_BOUND('',#197,.T.);
#161=FACE_OUTER_BOUND('',#198,.T.);
#162=FACE_OUTER_BOUND('',#199,.T.);
#163=FACE_OUTER_BOUND('',#200,.T.);
#164=FACE_OUTER_BOUND('',#201,.T.);
#165=FACE_OUTER_BOUND('',#202,.T.);
#166=FACE_OUTER_BOUND('',#205,.T.);
#167=EDGE_LOOP('',(#208,#209,#210,#211));
#168=EDGE_LOOP('',(#212,#213,#214,#215,#216,#217,#218,#219,#220,#221));
#169=EDGE_LOOP('',(#222,#223,#224,#225));
#170=EDGE_LOOP('',(#226,#227,#228,#229,#230,#231,#232,#233));
#171=EDGE_LOOP('',(#234,#235,#236,#237,#238,#239,#240,#241,#242));
#172=EDGE_LOOP('',(#243,#244,#245,#246,#247,#248,#249,#250));
#173=EDGE_LOOP('',(#251,#252,#253,#254,#255,#256,#257));
#174=EDGE_LOOP('',(#258));
#175=EDGE_LOOP('',(#259,#260,#261,#262));
#176=EDGE_LOOP('',(#263,#264,#265,#266,#267,#268,#269,#270,#271,#272));
#177=EDGE_LOOP('',(#273,#274,#275,#276));
#178=EDGE_LOOP('',(#277,#278,#279,#280,#281,#282));
#179=EDGE_LOOP('',(#283,#284,#285,#286,#287));
#180=EDGE_LOOP('',(#288,#289,#290,#291));
#181=EDGE_LOOP('',(#292,#293,#294,#295,#296,#297));
#182=EDGE_LOOP('',(#298,#299,#300,#301));
#183=EDGE_LOOP('',(#302,#303,#304,#305));
#184=EDGE_LOOP('',(#306));
#185=EDGE_LOOP('',(#307,#308,#309,#310,#311,#312,#313,#314));
#186=EDGE_LOOP('',(#315,#316,#317,#318,#319,#320));
#187=EDGE_LOOP('',(#321,#322,#323,#324));
#188=EDGE_LOOP('',(#325,#326,#327,#328));
#189=EDGE_LOOP('',(#329,#330,#331,#332));
#190=EDGE_LOOP('',(#333,#334,#335,#336));
#191=EDGE_LOOP('',(#337,#338,#339,#340));
#192=EDGE_LOOP('',(#341,#342,#343,#344));
#193=EDGE_LOOP('',(#345,#346,#347,#348));
#194=EDGE_LOOP('',(#349,#350,#351,#352,#353,#354,#355,#356));
#195=EDGE_LOOP('',(#357,#358,#359,#360));
#196=EDGE_LOOP('',(#361,#362,#363,#364));
#197=EDGE_LOOP('',(#365,#366,#367,#368));
#198=EDGE_LOOP('',(#369,#370,#371,#372));
#199=EDGE_LOOP('',(#373,#374,#375,#376));
#200=EDGE_LOOP('',(#377,#378,#379,#380,#381));
#201=EDGE_LOOP('',(#382,#383,#384,#385,#386));
#202=EDGE_LOOP('',(#387,#388,#389,#390));
#203=EDGE_LOOP('',(#391));
#204=EDGE_LOOP('',(#392));
#205=EDGE_LOOP('',(#393));
#206=EDGE_LOOP('',(#394,#395,#396,#397,#398));
#207=EDGE_LOOP('',(#399));
#208=ORIENTED_EDGE('',*,*,#465,.T.);
#209=ORIENTED_EDGE('',*,*,#466,.T.);
#210=ORIENTED_EDGE('',*,*,#467,.T.);
#211=ORIENTED_EDGE('',*,*,#468,.T.);
#212=ORIENTED_EDGE('',*,*,#469,.F.);
#213=ORIENTED_EDGE('',*,*,#470,.T.);
#214=ORIENTED_EDGE('',*,*,#471,.F.);
#215=ORIENTED_EDGE('',*,*,#472,.T.);
#216=ORIENTED_EDGE('',*,*,#473,.F.);
#217=ORIENTED_EDGE('',*,*,#474,.F.);
#218=ORIENTED_EDGE('',*,*,#475,.F.);
#219=ORIENTED_EDGE('',*,*,#476,.F.);
#220=ORIENTED_EDGE('',*,*,#477,.T.);
#221=ORIENTED_EDGE('',*,*,#478,.F.);
#222=ORIENTED_EDGE('',*,*,#479,.F.);
#223=ORIENTED_EDGE('',*,*,#480,.F.);
#224=ORIENTED_EDGE('',*,*,#481,.F.);
#225=ORIENTED_EDGE('',*,*,#477,.F.);
#226=ORIENTED_EDGE('',*,*,#482,.F.);
#227=ORIENTED_EDGE('',*,*,#465,.F.);
#228=ORIENTED_EDGE('',*,*,#483,.F.);
#229=ORIENTED_EDGE('',*,*,#484,.F.);
#230=ORIENTED_EDGE('',*,*,#485,.T.);
#231=ORIENTED_EDGE('',*,*,#486,.F.);
#232=ORIENTED_EDGE('',*,*,#487,.T.);
#233=ORIENTED_EDGE('',*,*,#488,.T.);
#234=ORIENTED_EDGE('',*,*,#489,.T.);
#235=ORIENTED_EDGE('',*,*,#478,.T.);
#236=ORIENTED_EDGE('',*,*,#481,.T.);
#237=ORIENTED_EDGE('',*,*,#490,.F.);
#238=ORIENTED_EDGE('',*,*,#491,.T.);
#239=ORIENTED_EDGE('',*,*,#492,.T.);
#240=ORIENTED_EDGE('',*,*,#474,.T.);
#241=ORIENTED_EDGE('',*,*,#493,.F.);
#242=ORIENTED_EDGE('',*,*,#494,.F.);
#243=ORIENTED_EDGE('',*,*,#495,.F.);
#244=ORIENTED_EDGE('',*,*,#496,.F.);
#245=ORIENTED_EDGE('',*,*,#497,.F.);
#246=ORIENTED_EDGE('',*,*,#498,.T.);
#247=ORIENTED_EDGE('',*,*,#499,.F.);
#248=ORIENTED_EDGE('',*,*,#500,.T.);
#249=ORIENTED_EDGE('',*,*,#490,.T.);
#250=ORIENTED_EDGE('',*,*,#480,.T.);
#251=ORIENTED_EDGE('',*,*,#501,.F.);
#252=ORIENTED_EDGE('',*,*,#502,.F.);
#253=ORIENTED_EDGE('',*,*,#503,.F.);
#254=ORIENTED_EDGE('',*,*,#504,.T.);
#255=ORIENTED_EDGE('',*,*,#499,.T.);
#256=ORIENTED_EDGE('',*,*,#505,.T.);
#257=ORIENTED_EDGE('',*,*,#506,.T.);
#258=ORIENTED_EDGE('',*,*,#507,.F.);
#259=ORIENTED_EDGE('',*,*,#508,.F.);
#260=ORIENTED_EDGE('',*,*,#491,.F.);
#261=ORIENTED_EDGE('',*,*,#500,.F.);
#262=ORIENTED_EDGE('',*,*,#504,.F.);
#263=ORIENTED_EDGE('',*,*,#509,.T.);
#264=ORIENTED_EDGE('',*,*,#483,.T.);
#265=ORIENTED_EDGE('',*,*,#468,.F.);
#266=ORIENTED_EDGE('',*,*,#510,.F.);
#267=ORIENTED_EDGE('',*,*,#511,.F.);
#268=ORIENTED_EDGE('',*,*,#475,.T.);
#269=ORIENTED_EDGE('',*,*,#492,.F.);
#270=ORIENTED_EDGE('',*,*,#508,.T.);
#271=ORIENTED_EDGE('',*,*,#503,.T.);
#272=ORIENTED_EDGE('',*,*,#512,.F.);
#273=ORIENTED_EDGE('',*,*,#513,.F.);
#274=ORIENTED_EDGE('',*,*,#506,.F.);
#275=ORIENTED_EDGE('',*,*,#514,.T.);
#276=ORIENTED_EDGE('',*,*,#487,.F.);
#277=ORIENTED_EDGE('',*,*,#515,.F.);
#278=ORIENTED_EDGE('',*,*,#488,.F.);
#279=ORIENTED_EDGE('',*,*,#514,.F.);
#280=ORIENTED_EDGE('',*,*,#505,.F.);
#281=ORIENTED_EDGE('',*,*,#498,.F.);
#282=ORIENTED_EDGE('',*,*,#516,.F.);
#283=ORIENTED_EDGE('',*,*,#511,.T.);
#284=ORIENTED_EDGE('',*,*,#517,.T.);
#285=ORIENTED_EDGE('',*,*,#495,.T.);
#286=ORIENTED_EDGE('',*,*,#479,.T.);
#287=ORIENTED_EDGE('',*,*,#476,.T.);
#288=ORIENTED_EDGE('',*,*,#518,.T.);
#289=ORIENTED_EDGE('',*,*,#519,.T.);
#290=ORIENTED_EDGE('',*,*,#516,.T.);
#291=ORIENTED_EDGE('',*,*,#497,.T.);
#292=ORIENTED_EDGE('',*,*,#467,.F.);
#293=ORIENTED_EDGE('',*,*,#520,.T.);
#294=ORIENTED_EDGE('',*,*,#518,.F.);
#295=ORIENTED_EDGE('',*,*,#496,.T.);
#296=ORIENTED_EDGE('',*,*,#517,.F.);
#297=ORIENTED_EDGE('',*,*,#510,.T.);
#298=ORIENTED_EDGE('',*,*,#521,.T.);
#299=ORIENTED_EDGE('',*,*,#522,.T.);
#300=ORIENTED_EDGE('',*,*,#469,.T.);
#301=ORIENTED_EDGE('',*,*,#489,.F.);
#302=ORIENTED_EDGE('',*,*,#523,.T.);
#303=ORIENTED_EDGE('',*,*,#524,.T.);
#304=ORIENTED_EDGE('',*,*,#471,.T.);
#305=ORIENTED_EDGE('',*,*,#525,.T.);
#306=ORIENTED_EDGE('',*,*,#526,.T.);
#307=ORIENTED_EDGE('',*,*,#527,.T.);
#308=ORIENTED_EDGE('',*,*,#528,.T.);
#309=ORIENTED_EDGE('',*,*,#529,.T.);
#310=ORIENTED_EDGE('',*,*,#530,.T.);
#311=ORIENTED_EDGE('',*,*,#531,.T.);
#312=ORIENTED_EDGE('',*,*,#532,.T.);
#313=ORIENTED_EDGE('',*,*,#533,.T.);
#314=ORIENTED_EDGE('',*,*,#534,.T.);
#315=ORIENTED_EDGE('',*,*,#535,.F.);
#316=ORIENTED_EDGE('',*,*,#536,.T.);
#317=ORIENTED_EDGE('',*,*,#523,.F.);
#318=ORIENTED_EDGE('',*,*,#537,.T.);
#319=ORIENTED_EDGE('',*,*,#521,.F.);
#320=ORIENTED_EDGE('',*,*,#494,.T.);
#321=ORIENTED_EDGE('',*,*,#473,.T.);
#322=ORIENTED_EDGE('',*,*,#538,.T.);
#323=ORIENTED_EDGE('',*,*,#535,.T.);
#324=ORIENTED_EDGE('',*,*,#493,.T.);
#325=ORIENTED_EDGE('',*,*,#472,.F.);
#326=ORIENTED_EDGE('',*,*,#524,.F.);
#327=ORIENTED_EDGE('',*,*,#536,.F.);
#328=ORIENTED_EDGE('',*,*,#538,.F.);
#329=ORIENTED_EDGE('',*,*,#470,.F.);
#330=ORIENTED_EDGE('',*,*,#522,.F.);
#331=ORIENTED_EDGE('',*,*,#537,.F.);
#332=ORIENTED_EDGE('',*,*,#525,.F.);
#333=ORIENTED_EDGE('',*,*,#531,.F.);
#334=ORIENTED_EDGE('',*,*,#539,.T.);
#335=ORIENTED_EDGE('',*,*,#540,.T.);
#336=ORIENTED_EDGE('',*,*,#541,.T.);
#337=ORIENTED_EDGE('',*,*,#533,.F.);
#338=ORIENTED_EDGE('',*,*,#542,.T.);
#339=ORIENTED_EDGE('',*,*,#543,.T.);
#340=ORIENTED_EDGE('',*,*,#544,.T.);
#341=ORIENTED_EDGE('',*,*,#545,.T.);
#342=ORIENTED_EDGE('',*,*,#546,.T.);
#343=ORIENTED_EDGE('',*,*,#527,.F.);
#344=ORIENTED_EDGE('',*,*,#547,.T.);
#345=ORIENTED_EDGE('',*,*,#548,.T.);
#346=ORIENTED_EDGE('',*,*,#549,.T.);
#347=ORIENTED_EDGE('',*,*,#529,.F.);
#348=ORIENTED_EDGE('',*,*,#550,.T.);
#349=ORIENTED_EDGE('',*,*,#540,.F.);
#350=ORIENTED_EDGE('',*,*,#551,.T.);
#351=ORIENTED_EDGE('',*,*,#548,.F.);
#352=ORIENTED_EDGE('',*,*,#552,.T.);
#353=ORIENTED_EDGE('',*,*,#545,.F.);
#354=ORIENTED_EDGE('',*,*,#553,.T.);
#355=ORIENTED_EDGE('',*,*,#543,.F.);
#356=ORIENTED_EDGE('',*,*,#554,.T.);
#357=ORIENTED_EDGE('',*,*,#530,.F.);
#358=ORIENTED_EDGE('',*,*,#549,.F.);
#359=ORIENTED_EDGE('',*,*,#551,.F.);
#360=ORIENTED_EDGE('',*,*,#539,.F.);
#361=ORIENTED_EDGE('',*,*,#528,.F.);
#362=ORIENTED_EDGE('',*,*,#546,.F.);
#363=ORIENTED_EDGE('',*,*,#552,.F.);
#364=ORIENTED_EDGE('',*,*,#550,.F.);
#365=ORIENTED_EDGE('',*,*,#532,.F.);
#366=ORIENTED_EDGE('',*,*,#541,.F.);
#367=ORIENTED_EDGE('',*,*,#554,.F.);
#368=ORIENTED_EDGE('',*,*,#542,.F.);
#369=ORIENTED_EDGE('',*,*,#534,.F.);
#370=ORIENTED_EDGE('',*,*,#544,.F.);
#371=ORIENTED_EDGE('',*,*,#553,.F.);
#372=ORIENTED_EDGE('',*,*,#547,.F.);
#373=ORIENTED_EDGE('',*,*,#555,.T.);
#374=ORIENTED_EDGE('',*,*,#556,.T.);
#375=ORIENTED_EDGE('',*,*,#484,.T.);
#376=ORIENTED_EDGE('',*,*,#509,.F.);
#377=ORIENTED_EDGE('',*,*,#486,.T.);
#378=ORIENTED_EDGE('',*,*,#557,.T.);
#379=ORIENTED_EDGE('',*,*,#558,.T.);
#380=ORIENTED_EDGE('',*,*,#501,.T.);
#381=ORIENTED_EDGE('',*,*,#513,.T.);
#382=ORIENTED_EDGE('',*,*,#558,.F.);
#383=ORIENTED_EDGE('',*,*,#559,.T.);
#384=ORIENTED_EDGE('',*,*,#555,.F.);
#385=ORIENTED_EDGE('',*,*,#512,.T.);
#386=ORIENTED_EDGE('',*,*,#502,.T.);
#387=ORIENTED_EDGE('',*,*,#485,.F.);
#388=ORIENTED_EDGE('',*,*,#556,.F.);
#389=ORIENTED_EDGE('',*,*,#559,.F.);
#390=ORIENTED_EDGE('',*,*,#557,.F.);
#391=ORIENTED_EDGE('',*,*,#507,.T.);
#392=ORIENTED_EDGE('',*,*,#526,.F.);
#393=ORIENTED_EDGE('',*,*,#560,.F.);
#394=ORIENTED_EDGE('',*,*,#482,.T.);
#395=ORIENTED_EDGE('',*,*,#515,.T.);
#396=ORIENTED_EDGE('',*,*,#519,.F.);
#397=ORIENTED_EDGE('',*,*,#520,.F.);
#398=ORIENTED_EDGE('',*,*,#466,.F.);
#399=ORIENTED_EDGE('',*,*,#560,.T.);
#400=VERTEX_POINT('',#962);
#401=VERTEX_POINT('',#963);
#402=VERTEX_POINT('',#965);
#403=VERTEX_POINT('',#967);
#404=VERTEX_POINT('',#971);
#405=VERTEX_POINT('',#972);
#406=VERTEX_POINT('',#974);
#407=VERTEX_POINT('',#976);
#408=VERTEX_POINT('',#978);
#409=VERTEX_POINT('',#980);
#410=VERTEX_POINT('',#982);
#411=VERTEX_POINT('',#984);
#412=VERTEX_POINT('',#986);
#413=VERTEX_POINT('',#988);
#414=VERTEX_POINT('',#992);
#415=VERTEX_POINT('',#994);
#416=VERTEX_POINT('',#998);
#417=VERTEX_POINT('',#1000);
#418=VERTEX_POINT('',#1002);
#419=VERTEX_POINT('',#1004);
#420=VERTEX_POINT('',#1006);
#421=VERTEX_POINT('',#1008);
#422=VERTEX_POINT('',#1012);
#423=VERTEX_POINT('',#1014);
#424=VERTEX_POINT('',#1016);
#425=VERTEX_POINT('',#1019);
#426=VERTEX_POINT('',#1023);
#427=VERTEX_POINT('',#1025);
#428=VERTEX_POINT('',#1027);
#429=VERTEX_POINT('',#1029);
#430=VERTEX_POINT('',#1031);
#431=VERTEX_POINT('',#1035);
#432=VERTEX_POINT('',#1036);
#433=VERTEX_POINT('',#1038);
#434=VERTEX_POINT('',#1040);
#435=VERTEX_POINT('',#1043);
#436=VERTEX_POINT('',#1047);
#437=VERTEX_POINT('',#1051);
#438=VERTEX_POINT('',#1053);
#439=VERTEX_POINT('',#1061);
#440=VERTEX_POINT('',#1067);
#441=VERTEX_POINT('',#1073);
#442=VERTEX_POINT('',#1077);
#443=VERTEX_POINT('',#1078);
#444=VERTEX_POINT('',#1083);
#445=VERTEX_POINT('',#1085);
#446=VERTEX_POINT('',#1086);
#447=VERTEX_POINT('',#1088);
#448=VERTEX_POINT('',#1090);
#449=VERTEX_POINT('',#1092);
#450=VERTEX_POINT('',#1094);
#451=VERTEX_POINT('',#1096);
#452=VERTEX_POINT('',#1098);
#453=VERTEX_POINT('',#1101);
#454=VERTEX_POINT('',#1110);
#455=VERTEX_POINT('',#1112);
#456=VERTEX_POINT('',#1116);
#457=VERTEX_POINT('',#1118);
#458=VERTEX_POINT('',#1122);
#459=VERTEX_POINT('',#1123);
#460=VERTEX_POINT('',#1128);
#461=VERTEX_POINT('',#1129);
#462=VERTEX_POINT('',#1143);
#463=VERTEX_POINT('',#1147);
#464=VERTEX_POINT('',#1155);
#465=EDGE_CURVE('',#400,#401,#561,.T.);
#466=EDGE_CURVE('',#401,#402,#562,.T.);
#467=EDGE_CURVE('',#402,#403,#563,.T.);
#468=EDGE_CURVE('',#403,#400,#564,.T.);
#469=EDGE_CURVE('',#404,#405,#565,.T.);
#470=EDGE_CURVE('',#404,#406,#53,.T.);
#471=EDGE_CURVE('',#407,#406,#566,.T.);
#472=EDGE_CURVE('',#407,#408,#54,.T.);
#473=EDGE_CURVE('',#409,#408,#567,.T.);
#474=EDGE_CURVE('',#410,#409,#568,.T.);
#475=EDGE_CURVE('',#411,#410,#569,.T.);
#476=EDGE_CURVE('',#412,#411,#570,.T.);
#477=EDGE_CURVE('',#412,#413,#571,.T.);
#478=EDGE_CURVE('',#405,#413,#572,.T.);
#479=EDGE_CURVE('',#414,#412,#573,.T.);
#480=EDGE_CURVE('',#415,#414,#574,.T.);
#481=EDGE_CURVE('',#413,#415,#575,.T.);
#482=EDGE_CURVE('',#401,#416,#55,.T.);
#483=EDGE_CURVE('',#417,#400,#576,.T.);
#484=EDGE_CURVE('',#418,#417,#577,.T.);
#485=EDGE_CURVE('',#418,#419,#56,.T.);
#486=EDGE_CURVE('',#420,#419,#578,.T.);
#487=EDGE_CURVE('',#420,#421,#579,.T.);
#488=EDGE_CURVE('',#421,#416,#580,.T.);
#489=EDGE_CURVE('',#422,#405,#581,.T.);
#490=EDGE_CURVE('',#423,#415,#582,.T.);
#491=EDGE_CURVE('',#423,#424,#583,.T.);
#492=EDGE_CURVE('',#424,#410,#584,.T.);
#493=EDGE_CURVE('',#425,#409,#585,.T.);
#494=EDGE_CURVE('',#422,#425,#586,.T.);
#495=EDGE_CURVE('',#426,#414,#587,.T.);
#496=EDGE_CURVE('',#427,#426,#588,.T.);
#497=EDGE_CURVE('',#428,#427,#589,.T.);
#498=EDGE_CURVE('',#428,#429,#590,.T.);
#499=EDGE_CURVE('',#430,#429,#591,.T.);
#500=EDGE_CURVE('',#430,#423,#592,.T.);
#501=EDGE_CURVE('',#431,#432,#593,.T.);
#502=EDGE_CURVE('',#433,#431,#594,.T.);
#503=EDGE_CURVE('',#434,#433,#595,.T.);
#504=EDGE_CURVE('',#434,#430,#596,.T.);
#505=EDGE_CURVE('',#429,#435,#597,.T.);
#506=EDGE_CURVE('',#435,#432,#598,.T.);
#507=EDGE_CURVE('',#436,#436,#57,.T.);
#508=EDGE_CURVE('',#424,#434,#599,.T.);
#509=EDGE_CURVE('',#437,#417,#600,.T.);
#510=EDGE_CURVE('',#438,#403,#601,.T.);
#511=EDGE_CURVE('',#411,#438,#602,.T.);
#512=EDGE_CURVE('',#437,#433,#603,.T.);
#513=EDGE_CURVE('',#432,#420,#604,.T.);
#514=EDGE_CURVE('',#435,#421,#605,.T.);
#515=EDGE_CURVE('',#416,#439,#43,.T.);
#516=EDGE_CURVE('',#439,#428,#606,.T.);
#517=EDGE_CURVE('',#438,#426,#607,.T.);
#518=EDGE_CURVE('',#427,#440,#608,.T.);
#519=EDGE_CURVE('',#440,#439,#609,.T.);
#520=EDGE_CURVE('',#402,#440,#58,.T.);
#521=EDGE_CURVE('',#422,#441,#610,.T.);
#522=EDGE_CURVE('',#441,#404,#611,.T.);
#523=EDGE_CURVE('',#442,#443,#612,.T.);
#524=EDGE_CURVE('',#443,#407,#613,.T.);
#525=EDGE_CURVE('',#406,#442,#614,.T.);
#526=EDGE_CURVE('',#444,#444,#59,.T.);
#527=EDGE_CURVE('',#445,#446,#615,.T.);
#528=EDGE_CURVE('',#446,#447,#60,.T.);
#529=EDGE_CURVE('',#447,#448,#616,.T.);
#530=EDGE_CURVE('',#448,#449,#61,.T.);
#531=EDGE_CURVE('',#449,#450,#617,.T.);
#532=EDGE_CURVE('',#450,#451,#62,.T.);
#533=EDGE_CURVE('',#451,#452,#618,.T.);
#534=EDGE_CURVE('',#452,#445,#63,.T.);
#535=EDGE_CURVE('',#453,#425,#619,.T.);
#536=EDGE_CURVE('',#453,#443,#64,.T.);
#537=EDGE_CURVE('',#442,#441,#65,.T.);
#538=EDGE_CURVE('',#408,#453,#620,.T.);
#539=EDGE_CURVE('',#449,#454,#621,.T.);
#540=EDGE_CURVE('',#454,#455,#622,.T.);
#541=EDGE_CURVE('',#455,#450,#623,.T.);
#542=EDGE_CURVE('',#451,#456,#624,.T.);
#543=EDGE_CURVE('',#456,#457,#625,.T.);
#544=EDGE_CURVE('',#457,#452,#626,.T.);
#545=EDGE_CURVE('',#458,#459,#627,.T.);
#546=EDGE_CURVE('',#459,#446,#628,.T.);
#547=EDGE_CURVE('',#445,#458,#629,.T.);
#548=EDGE_CURVE('',#460,#461,#630,.T.);
#549=EDGE_CURVE('',#461,#448,#631,.T.);
#550=EDGE_CURVE('',#447,#460,#632,.T.);
#551=EDGE_CURVE('',#454,#461,#66,.T.);
#552=EDGE_CURVE('',#460,#459,#67,.T.);
#553=EDGE_CURVE('',#458,#457,#68,.T.);
#554=EDGE_CURVE('',#456,#455,#69,.T.);
#555=EDGE_CURVE('',#437,#462,#633,.T.);
#556=EDGE_CURVE('',#462,#418,#634,.T.);
#557=EDGE_CURVE('',#419,#463,#635,.T.);
#558=EDGE_CURVE('',#463,#431,#636,.T.);
#559=EDGE_CURVE('',#463,#462,#70,.T.);
#560=EDGE_CURVE('',#464,#464,#71,.T.);
#561=LINE('',#961,#637);
#562=LINE('',#964,#638);
#563=LINE('',#966,#639);
#564=LINE('',#968,#640);
#565=LINE('',#970,#641);
#566=LINE('',#975,#642);
#567=LINE('',#979,#643);
#568=LINE('',#981,#644);
#569=LINE('',#983,#645);
#570=LINE('',#985,#646);
#571=LINE('',#987,#647);
#572=LINE('',#989,#648);
#573=LINE('',#991,#649);
#574=LINE('',#993,#650);
#575=LINE('',#995,#651);
#576=LINE('',#999,#652);
#577=LINE('',#1001,#653);
#578=LINE('',#1005,#654);
#579=LINE('',#1007,#655);
#580=LINE('',#1009,#656);
#581=LINE('',#1011,#657);
#582=LINE('',#1013,#658);
#583=LINE('',#1015,#659);
#584=LINE('',#1017,#660);
#585=LINE('',#1018,#661);
#586=LINE('',#1020,#662);
#587=LINE('',#1022,#663);
#588=LINE('',#1024,#664);
#589=LINE('',#1026,#665);
#590=LINE('',#1028,#666);
#591=LINE('',#1030,#667);
#592=LINE('',#1032,#668);
#593=LINE('',#1034,#669);
#594=LINE('',#1037,#670);
#595=LINE('',#1039,#671);
#596=LINE('',#1041,#672);
#597=LINE('',#1042,#673);
#598=LINE('',#1044,#674);
#599=LINE('',#1048,#675);
#600=LINE('',#1050,#676);
#601=LINE('',#1052,#677);
#602=LINE('',#1054,#678);
#603=LINE('',#1055,#679);
#604=LINE('',#1057,#680);
#605=LINE('',#1058,#681);
#606=LINE('',#1062,#682);
#607=LINE('',#1064,#683);
#608=LINE('',#1066,#684);
#609=LINE('',#1068,#685);
#610=LINE('',#1072,#686);
#611=LINE('',#1074,#687);
#612=LINE('',#1076,#688);
#613=LINE('',#1079,#689);
#614=LINE('',#1080,#690);
#615=LINE('',#1084,#691);
#616=LINE('',#1089,#692);
#617=LINE('',#1093,#693);
#618=LINE('',#1097,#694);
#619=LINE('',#1100,#695);
#620=LINE('',#1105,#696);
#621=LINE('',#1109,#697);
#622=LINE('',#1111,#698);
#623=LINE('',#1113,#699);
#624=LINE('',#1115,#700);
#625=LINE('',#1117,#701);
#626=LINE('',#1119,#702);
#627=LINE('',#1121,#703);
#628=LINE('',#1124,#704);
#629=LINE('',#1125,#705);
#630=LINE('',#1127,#706);
#631=LINE('',#1130,#707);
#632=LINE('',#1131,#708);
#633=LINE('',#1142,#709);
#634=LINE('',#1144,#710);
#635=LINE('',#1146,#711);
#636=LINE('',#1148,#712);
#637=VECTOR('',#772,1.);
#638=VECTOR('',#773,1.);
#639=VECTOR('',#774,1.);
#640=VECTOR('',#775,1.);
#641=VECTOR('',#778,1.);
#642=VECTOR('',#781,1.);
#643=VECTOR('',#784,1.);
#644=VECTOR('',#785,1.);
#645=VECTOR('',#786,1.);
#646=VECTOR('',#787,1.);
#647=VECTOR('',#788,1.);
#648=VECTOR('',#789,1.);
#649=VECTOR('',#792,1.);
#650=VECTOR('',#793,1.);
#651=VECTOR('',#794,1.);
#652=VECTOR('',#799,1.);
#653=VECTOR('',#800,1.);
#654=VECTOR('',#803,1.);
#655=VECTOR('',#804,1.);
#656=VECTOR('',#805,1.);
#657=VECTOR('',#808,1.);
#658=VECTOR('',#809,1.);
#659=VECTOR('',#810,1.);
#660=VECTOR('',#811,1.);
#661=VECTOR('',#812,1.);
#662=VECTOR('',#813,1.);
#663=VECTOR('',#816,1.);
#664=VECTOR('',#817,1.);
#665=VECTOR('',#818,1.);
#666=VECTOR('',#819,1.);
#667=VECTOR('',#820,1.);
#668=VECTOR('',#821,1.);
#669=VECTOR('',#824,1.);
#670=VECTOR('',#825,1.);
#671=VECTOR('',#826,1.);
#672=VECTOR('',#827,1.);
#673=VECTOR('',#828,1.);
#674=VECTOR('',#829,1.);
#675=VECTOR('',#834,1.);
#676=VECTOR('',#837,1.);
#677=VECTOR('',#838,1.);
#678=VECTOR('',#839,1.);
#679=VECTOR('',#840,1.);
#680=VECTOR('',#843,1.);
#681=VECTOR('',#844,1.);
#682=VECTOR('',#849,1.);
#683=VECTOR('',#852,1.);
#684=VECTOR('',#855,1.);
#685=VECTOR('',#856,1.);
#686=VECTOR('',#863,1.);
#687=VECTOR('',#864,1.);
#688=VECTOR('',#867,1.);
#689=VECTOR('',#868,1.);
#690=VECTOR('',#869,1.);
#691=VECTOR('',#874,1.);
#692=VECTOR('',#877,1.);
#693=VECTOR('',#880,1.);
#694=VECTOR('',#883,1.);
#695=VECTOR('',#886,1.);
#696=VECTOR('',#893,1.);
#697=VECTOR('',#900,1.);
#698=VECTOR('',#901,1.);
#699=VECTOR('',#902,1.);
#700=VECTOR('',#905,1.);
#701=VECTOR('',#906,1.);
#702=VECTOR('',#907,1.);
#703=VECTOR('',#910,1.);
#704=VECTOR('',#911,1.);
#705=VECTOR('',#912,1.);
#706=VECTOR('',#915,1.);
#707=VECTOR('',#916,1.);
#708=VECTOR('',#917,1.);
#709=VECTOR('',#938,1.);
#710=VECTOR('',#939,1.);
#711=VECTOR('',#942,1.);
#712=VECTOR('',#943,1.);
#713=AXIS2_PLACEMENT_3D('',#960,#770,#771);
#714=AXIS2_PLACEMENT_3D('',#969,#776,#777);
#715=AXIS2_PLACEMENT_3D('',#973,#779,#780);
#716=AXIS2_PLACEMENT_3D('',#977,#782,#783);
#717=AXIS2_PLACEMENT_3D('',#990,#790,#791);
#718=AXIS2_PLACEMENT_3D('',#996,#795,#796);
#719=AXIS2_PLACEMENT_3D('',#997,#797,#798);
#720=AXIS2_PLACEMENT_3D('',#1003,#801,#802);
#721=AXIS2_PLACEMENT_3D('',#1010,#806,#807);
#722=AXIS2_PLACEMENT_3D('',#1021,#814,#815);
#723=AXIS2_PLACEMENT_3D('',#1033,#822,#823);
#724=AXIS2_PLACEMENT_3D('',#1045,#830,#831);
#725=AXIS2_PLACEMENT_3D('',#1046,#832,#833);
#726=AXIS2_PLACEMENT_3D('',#1049,#835,#836);
#727=AXIS2_PLACEMENT_3D('',#1056,#841,#842);
#728=AXIS2_PLACEMENT_3D('',#1059,#845,#846);
#729=AXIS2_PLACEMENT_3D('',#1060,#847,#848);
#730=AXIS2_PLACEMENT_3D('',#1063,#850,#851);
#731=AXIS2_PLACEMENT_3D('',#1065,#853,#854);
#732=AXIS2_PLACEMENT_3D('',#1069,#857,#858);
#733=AXIS2_PLACEMENT_3D('',#1070,#859,#860);
#734=AXIS2_PLACEMENT_3D('',#1071,#861,#862);
#735=AXIS2_PLACEMENT_3D('',#1075,#865,#866);
#736=AXIS2_PLACEMENT_3D('',#1081,#870,#871);
#737=AXIS2_PLACEMENT_3D('',#1082,#872,#873);
#738=AXIS2_PLACEMENT_3D('',#1087,#875,#876);
#739=AXIS2_PLACEMENT_3D('',#1091,#878,#879);
#740=AXIS2_PLACEMENT_3D('',#1095,#881,#882);
#741=AXIS2_PLACEMENT_3D('',#1099,#884,#885);
#742=AXIS2_PLACEMENT_3D('',#1102,#887,#888);
#743=AXIS2_PLACEMENT_3D('',#1103,#889,#890);
#744=AXIS2_PLACEMENT_3D('',#1104,#891,#892);
#745=AXIS2_PLACEMENT_3D('',#1106,#894,#895);
#746=AXIS2_PLACEMENT_3D('',#1107,#896,#897);
#747=AXIS2_PLACEMENT_3D('',#1108,#898,#899);
#748=AXIS2_PLACEMENT_3D('',#1114,#903,#904);
#749=AXIS2_PLACEMENT_3D('',#1120,#908,#909);
#750=AXIS2_PLACEMENT_3D('',#1126,#913,#914);
#751=AXIS2_PLACEMENT_3D('',#1132,#918,#919);
#752=AXIS2_PLACEMENT_3D('',#1133,#920,#921);
#753=AXIS2_PLACEMENT_3D('',#1134,#922,#923);
#754=AXIS2_PLACEMENT_3D('',#1135,#924,#925);
#755=AXIS2_PLACEMENT_3D('',#1136,#926,#927);
#756=AXIS2_PLACEMENT_3D('',#1137,#928,#929);
#757=AXIS2_PLACEMENT_3D('',#1138,#930,#931);
#758=AXIS2_PLACEMENT_3D('',#1139,#932,#933);
#759=AXIS2_PLACEMENT_3D('',#1140,#934,#935);
#760=AXIS2_PLACEMENT_3D('',#1141,#936,#937);
#761=AXIS2_PLACEMENT_3D('',#1145,#940,#941);
#762=AXIS2_PLACEMENT_3D('',#1149,#944,#945);
#763=AXIS2_PLACEMENT_3D('',#1150,#946,#947);
#764=AXIS2_PLACEMENT_3D('',#1151,#948,#949);
#765=AXIS2_PLACEMENT_3D('',#1152,#950,#951);
#766=AXIS2_PLACEMENT_3D('',#1153,#952,#953);
#767=AXIS2_PLACEMENT_3D('',#1154,#954,#955);
#768=AXIS2_PLACEMENT_3D('',#1156,#956,#957);
#769=AXIS2_PLACEMENT_3D('',#1157,#958,#959);
#770=DIRECTION('',(0.,0.,1.));
#771=DIRECTION('',(1.,0.,0.));
#772=DIRECTION('',(-1.,0.,0.));
#773=DIRECTION('',(0.,0.,-1.));
#774=DIRECTION('',(1.,0.,0.));
#775=DIRECTION('',(0.,0.,1.));
#776=DIRECTION('',(0.,1.,0.));
#777=DIRECTION('',(0.,0.,1.));
#778=DIRECTION('',(0.,-1.,0.));
#779=DIRECTION('',(0.,0.,-1.));
#780=DIRECTION('',(0.999999999999999,0.,0.));
#781=DIRECTION('',(-1.,0.,0.));
#782=DIRECTION('',(0.,0.,-1.));
#783=DIRECTION('',(0.999999999999999,0.,0.));
#784=DIRECTION('',(0.,1.,0.));
#785=DIRECTION('',(-1.,0.,0.));
#786=DIRECTION('',(0.,-1.,0.));
#787=DIRECTION('',(1.,0.,0.));
#788=DIRECTION('',(0.,-1.,0.));
#789=DIRECTION('',(-1.,0.,0.));
#790=DIRECTION('',(0.,0.,1.));
#791=DIRECTION('',(1.,0.,0.));
#792=DIRECTION('',(0.707106781186548,0.,0.707106781186547));
#793=DIRECTION('',(0.,1.,0.));
#794=DIRECTION('',(-0.707106781186548,0.,-0.707106781186547));
#795=DIRECTION('',(0.707106781186547,0.,-0.707106781186548));
#796=DIRECTION('',(0.,1.,0.));
#797=DIRECTION('',(0.,0.,1.));
#798=DIRECTION('',(1.,0.,0.));
#799=DIRECTION('',(0.,-1.,0.));
#800=DIRECTION('',(1.,0.,0.));
#801=DIRECTION('',(0.,0.,-1.));
#802=DIRECTION('',(0.999999999999997,0.,0.));
#803=DIRECTION('',(0.,-1.,0.));
#804=DIRECTION('',(-1.,0.,0.));
#805=DIRECTION('',(0.,-1.,0.));
#806=DIRECTION('',(0.,0.,1.));
#807=DIRECTION('',(1.,0.,0.));
#808=DIRECTION('',(0.,0.,1.));
#809=DIRECTION('',(0.,0.,1.));
#810=DIRECTION('',(1.,0.,0.));
#811=DIRECTION('',(0.,0.,1.));
#812=DIRECTION('',(0.,0.,1.));
#813=DIRECTION('',(1.,0.,0.));
#814=DIRECTION('',(0.,-1.,0.));
#815=DIRECTION('',(0.,0.,-1.));
#816=DIRECTION('',(0.,0.,1.));
#817=DIRECTION('',(0.,-1.,0.));
#818=DIRECTION('',(0.,0.,-1.));
#819=DIRECTION('',(0.,1.,0.));
#820=DIRECTION('',(0.,0.,1.));
#821=DIRECTION('',(0.,-1.,0.));
#822=DIRECTION('',(-1.,0.,0.));
#823=DIRECTION('',(0.,0.,1.));
#824=DIRECTION('',(0.,0.,1.));
#825=DIRECTION('',(-1.,0.,0.));
#826=DIRECTION('',(0.,0.,1.));
#827=DIRECTION('',(-1.,0.,0.));
#828=DIRECTION('',(0.707106781186548,0.,0.707106781186547));
#829=DIRECTION('',(1.,0.,0.));
#830=DIRECTION('',(0.,1.,0.));
#831=DIRECTION('',(0.,0.,1.));
#832=DIRECTION('',(0.,0.,-1.));
#833=DIRECTION('',(-1.,0.,0.));
#834=DIRECTION('',(0.,1.,0.));
#835=DIRECTION('',(0.,0.,-1.));
#836=DIRECTION('',(-1.,0.,0.));
#837=DIRECTION('',(0.,0.,1.));
#838=DIRECTION('',(0.,1.,0.));
#839=DIRECTION('',(0.,0.,-1.));
#840=DIRECTION('',(0.,1.,0.));
#841=DIRECTION('',(1.,0.,0.));
#842=DIRECTION('',(0.,0.,-1.));
#843=DIRECTION('',(0.,-0.707106781186548,0.707106781186548));
#844=DIRECTION('',(0.577350269189626,-0.577350269189626,0.577350269189626));
#845=DIRECTION('',(0.,-0.707106781186548,-0.707106781186548));
#846=DIRECTION('',(1.,0.,0.));
#847=DIRECTION('',(-0.707106781186547,0.,0.707106781186548));
#848=DIRECTION('',(-0.707106781186548,0.,-0.707106781186547));
#849=DIRECTION('',(-0.707106781186548,0.,-0.707106781186547));
#850=DIRECTION('',(0.707106781186547,0.,-0.707106781186548));
#851=DIRECTION('',(0.,1.,0.));
#852=DIRECTION('',(-1.,0.,0.));
#853=DIRECTION('',(0.,-1.,0.));
#854=DIRECTION('',(0.,0.,-1.));
#855=DIRECTION('',(1.,0.,0.));
#856=DIRECTION('',(0.,0.,1.));
#857=DIRECTION('',(0.,1.,0.));
#858=DIRECTION('',(0.,0.,1.));
#859=DIRECTION('',(0.,0.,-1.));
#860=DIRECTION('',(-1.,0.,0.));
#861=DIRECTION('',(0.,0.,-1.));
#862=DIRECTION('',(-1.,0.,0.));
#863=DIRECTION('',(0.,1.,0.));
#864=DIRECTION('',(0.,0.,1.));
#865=DIRECTION('',(-1.,0.,0.));
#866=DIRECTION('',(0.,0.,1.));
#867=DIRECTION('',(1.,0.,0.));
#868=DIRECTION('',(0.,0.,1.));
#869=DIRECTION('',(0.,0.,-1.));
#870=DIRECTION('',(0.,1.,0.));
#871=DIRECTION('',(0.,0.,1.));
#872=DIRECTION('',(0.,0.,-1.));
#873=DIRECTION('',(-1.,0.,0.));
#874=DIRECTION('',(1.,0.,0.));
#875=DIRECTION('',(0.,0.,-1.));
#876=DIRECTION('',(-0.999999999999997,0.,0.));
#877=DIRECTION('',(0.,-1.,0.));
#878=DIRECTION('',(0.,0.,-1.));
#879=DIRECTION('',(-0.999999999999997,0.,0.));
#880=DIRECTION('',(-1.,0.,0.));
#881=DIRECTION('',(0.,0.,-1.));
#882=DIRECTION('',(-0.999999999999997,0.,0.));
#883=DIRECTION('',(0.,1.,0.));
#884=DIRECTION('',(0.,0.,-1.));
#885=DIRECTION('',(-0.999999999999997,0.,0.));
#886=DIRECTION('',(0.,-1.,0.));
#887=DIRECTION('',(0.,0.,1.));
#888=DIRECTION('',(-0.999999999999999,0.,0.));
#889=DIRECTION('',(0.,0.,1.));
#890=DIRECTION('',(-1.,0.,0.));
#891=DIRECTION('',(0.,0.,-1.));
#892=DIRECTION('',(-1.,0.,0.));
#893=DIRECTION('',(0.,0.,-1.));
#894=DIRECTION('',(1.,0.,0.));
#895=DIRECTION('',(0.,0.,-1.));
#896=DIRECTION('',(0.,0.,1.));
#897=DIRECTION('',(0.999999999999999,0.,0.));
#898=DIRECTION('',(0.,0.,1.));
#899=DIRECTION('',(0.999999999999999,0.,0.));
#900=DIRECTION('',(0.,0.,-1.));
#901=DIRECTION('',(-1.,0.,0.));
#902=DIRECTION('',(0.,0.,1.));
#903=DIRECTION('',(0.,-1.,0.));
#904=DIRECTION('',(0.,0.,-1.));
#905=DIRECTION('',(0.,0.,-1.));
#906=DIRECTION('',(0.,1.,0.));
#907=DIRECTION('',(0.,0.,1.));
#908=DIRECTION('',(-1.,0.,0.));
#909=DIRECTION('',(0.,0.,1.));
#910=DIRECTION('',(1.,0.,0.));
#911=DIRECTION('',(0.,0.,1.));
#912=DIRECTION('',(0.,0.,-1.));
#913=DIRECTION('',(0.,1.,0.));
#914=DIRECTION('',(0.,0.,1.));
#915=DIRECTION('',(0.,-1.,0.));
#916=DIRECTION('',(0.,0.,1.));
#917=DIRECTION('',(0.,0.,-1.));
#918=DIRECTION('',(1.,0.,0.));
#919=DIRECTION('',(0.,0.,-1.));
#920=DIRECTION('',(0.,0.,1.));
#921=DIRECTION('',(-0.999999999999997,0.,0.));
#922=DIRECTION('',(0.,0.,1.));
#923=DIRECTION('',(-0.999999999999997,0.,0.));
#924=DIRECTION('',(0.,0.,1.));
#925=DIRECTION('',(-0.999999999999997,0.,0.));
#926=DIRECTION('',(0.,0.,1.));
#927=DIRECTION('',(-0.999999999999997,0.,0.));
#928=DIRECTION('',(0.,0.,-1.));
#929=DIRECTION('',(-1.,0.,0.));
#930=DIRECTION('',(0.,0.,1.));
#931=DIRECTION('',(0.999999999999997,0.,0.));
#932=DIRECTION('',(0.,0.,1.));
#933=DIRECTION('',(0.999999999999997,0.,0.));
#934=DIRECTION('',(0.,0.,1.));
#935=DIRECTION('',(0.999999999999997,0.,0.));
#936=DIRECTION('',(0.,0.,1.));
#937=DIRECTION('',(0.999999999999997,0.,0.));
#938=DIRECTION('',(-1.,0.,0.));
#939=DIRECTION('',(0.,0.,1.));
#940=DIRECTION('',(0.,-1.,0.));
#941=DIRECTION('',(0.,0.,-1.));
#942=DIRECTION('',(0.,0.,-1.));
#943=DIRECTION('',(0.,1.,0.));
#944=DIRECTION('',(-1.,0.,0.));
#945=DIRECTION('',(0.,0.,1.));
#946=DIRECTION('',(0.,0.,1.));
#947=DIRECTION('',(-0.999999999999997,0.,0.));
#948=DIRECTION('',(0.,0.,-1.));
#949=DIRECTION('',(-1.,0.,0.));
#950=DIRECTION('',(0.,0.,1.));
#951=DIRECTION('',(0.999999999999997,0.,0.));
#952=DIRECTION('',(0.,0.,-1.));
#953=DIRECTION('',(1.,0.,0.));
#954=DIRECTION('',(0.,0.,-1.));
#955=DIRECTION('',(1.,0.,0.));
#956=DIRECTION('',(0.,0.,-1.));
#957=DIRECTION('',(-1.,0.,0.));
#958=DIRECTION('',(0.,0.,-1.));
#959=DIRECTION('',(1.,0.,0.));
#960=CARTESIAN_POINT('',(0.,0.,0.));
#961=CARTESIAN_POINT('',(230.8,133.5,80.6));
#962=CARTESIAN_POINT('',(461.6,133.5,80.6));
#963=CARTESIAN_POINT('',(28.4405541105224,133.5,80.6));
#964=CARTESIAN_POINT('',(28.4405541105224,133.5,80.65));
#965=CARTESIAN_POINT('',(28.4405541105224,133.5,61.6));
#966=CARTESIAN_POINT('',(230.8,133.5,61.6));
#967=CARTESIAN_POINT('',(461.6,133.5,61.6));
#968=CARTESIAN_POINT('',(461.6,133.5,0.));
#969=CARTESIAN_POINT('',(230.8,133.5,61.6));
#970=CARTESIAN_POINT('',(121.8,102.1,80.6));
#971=CARTESIAN_POINT('',(121.8,39.1,80.6));
#972=CARTESIAN_POINT('',(121.8,0.,80.6));
#973=CARTESIAN_POINT('',(133.,39.1,80.6));
#974=CARTESIAN_POINT('',(133.,50.3,80.6));
#975=CARTESIAN_POINT('',(230.8,50.3,80.6));
#976=CARTESIAN_POINT('',(277.3,50.3,80.6));
#977=CARTESIAN_POINT('',(277.3,39.1,80.6));
#978=CARTESIAN_POINT('',(288.5,39.1,80.6));
#979=CARTESIAN_POINT('',(288.5,102.1,80.6));
#980=CARTESIAN_POINT('',(288.5,0.,80.6));
#981=CARTESIAN_POINT('',(230.8,0.,80.6));
#982=CARTESIAN_POINT('',(461.6,0.,80.6));
#983=CARTESIAN_POINT('',(461.6,102.1,80.6));
#984=CARTESIAN_POINT('',(461.6,111.7,80.6));
#985=CARTESIAN_POINT('',(230.8,111.7,80.6));
#986=CARTESIAN_POINT('',(13.5,111.7,80.6));
#987=CARTESIAN_POINT('',(13.5,102.1,80.6));
#988=CARTESIAN_POINT('',(13.5,0.,80.6));
#989=CARTESIAN_POINT('',(230.8,0.,80.6));
#990=CARTESIAN_POINT('',(230.8,102.1,80.6));
#991=CARTESIAN_POINT('',(0.,111.7,67.1));
#992=CARTESIAN_POINT('',(0.,111.7,67.1));
#993=CARTESIAN_POINT('',(0.,102.1,67.1));
#994=CARTESIAN_POINT('',(0.,0.,67.1));
#995=CARTESIAN_POINT('',(81.8500000000001,0.,148.95));
#996=CARTESIAN_POINT('',(0.,102.1,67.1));
#997=CARTESIAN_POINT('',(16.8,131.9,80.6));
#998=CARTESIAN_POINT('',(13.5,143.177078522383,80.6));
#999=CARTESIAN_POINT('',(461.6,102.1,80.6));
#1000=CARTESIAN_POINT('',(461.6,141.,80.6));
#1001=CARTESIAN_POINT('',(230.8,141.,80.6));
#1002=CARTESIAN_POINT('',(386.8,141.,80.6));
#1003=CARTESIAN_POINT('',(386.8,148.8,80.6));
#1004=CARTESIAN_POINT('',(379.,148.8,80.6));
#1005=CARTESIAN_POINT('',(379.,102.1,80.6));
#1006=CARTESIAN_POINT('',(379.,196.4,80.6));
#1007=CARTESIAN_POINT('',(230.8,196.4,80.6));
#1008=CARTESIAN_POINT('',(13.5,196.4,80.6));
#1009=CARTESIAN_POINT('',(13.5,102.1,80.6));
#1010=CARTESIAN_POINT('',(230.8,102.1,80.6));
#1011=CARTESIAN_POINT('',(121.8,0.,62.4));
#1012=CARTESIAN_POINT('',(121.8,0.,62.4));
#1013=CARTESIAN_POINT('',(0.,0.,0.));
#1014=CARTESIAN_POINT('',(0.,0.,0.));
#1015=CARTESIAN_POINT('',(230.8,0.,0.));
#1016=CARTESIAN_POINT('',(461.6,0.,0.));
#1017=CARTESIAN_POINT('',(461.6,0.,0.));
#1018=CARTESIAN_POINT('',(288.5,0.,62.4));
#1019=CARTESIAN_POINT('',(288.5,0.,62.4));
#1020=CARTESIAN_POINT('',(205.15,0.,62.4));
#1021=CARTESIAN_POINT('',(230.8,0.,0.));
#1022=CARTESIAN_POINT('',(0.,111.7,0.));
#1023=CARTESIAN_POINT('',(0.,111.7,61.6));
#1024=CARTESIAN_POINT('',(0.,102.1,61.6));
#1025=CARTESIAN_POINT('',(0.,133.5,61.6));
#1026=CARTESIAN_POINT('',(0.,133.5,0.));
#1027=CARTESIAN_POINT('',(0.,133.5,67.1));
#1028=CARTESIAN_POINT('',(0.,102.1,67.1));
#1029=CARTESIAN_POINT('',(0.,204.2,67.1));
#1030=CARTESIAN_POINT('',(0.,204.2,0.));
#1031=CARTESIAN_POINT('',(0.,204.2,0.));
#1032=CARTESIAN_POINT('',(0.,102.1,0.));
#1033=CARTESIAN_POINT('',(0.,102.1,0.));
#1034=CARTESIAN_POINT('',(379.,204.2,45.6));
#1035=CARTESIAN_POINT('',(379.,204.2,45.6));
#1036=CARTESIAN_POINT('',(379.,204.2,72.8));
#1037=CARTESIAN_POINT('',(420.3,204.2,45.6));
#1038=CARTESIAN_POINT('',(461.6,204.2,45.6));
#1039=CARTESIAN_POINT('',(461.6,204.2,0.));
#1040=CARTESIAN_POINT('',(461.6,204.2,0.));
#1041=CARTESIAN_POINT('',(230.8,204.2,0.));
#1042=CARTESIAN_POINT('',(81.8500000000001,204.2,148.95));
#1043=CARTESIAN_POINT('',(5.70000000000001,204.2,72.8));
#1044=CARTESIAN_POINT('',(230.8,204.2,72.8));
#1045=CARTESIAN_POINT('',(230.8,204.2,0.));
#1046=CARTESIAN_POINT('',(164.9,29.5,0.));
#1047=CARTESIAN_POINT('',(158.95,29.5,0.));
#1048=CARTESIAN_POINT('',(461.6,102.1,0.));
#1049=CARTESIAN_POINT('',(230.8,102.1,0.));
#1050=CARTESIAN_POINT('',(461.6,141.,45.6));
#1051=CARTESIAN_POINT('',(461.6,141.,45.6));
#1052=CARTESIAN_POINT('',(461.6,102.1,61.6));
#1053=CARTESIAN_POINT('',(461.6,111.7,61.6));
#1054=CARTESIAN_POINT('',(461.6,111.7,0.));
#1055=CARTESIAN_POINT('',(461.6,172.6,45.6));
#1056=CARTESIAN_POINT('',(461.6,102.1,0.));
#1057=CARTESIAN_POINT('',(379.,204.2,72.8));
#1058=CARTESIAN_POINT('',(80.7333333333335,129.166666666667,147.833333333333));
#1059=CARTESIAN_POINT('',(230.8,204.2,72.8));
#1060=CARTESIAN_POINT('',(16.8,131.9,83.9));
#1061=CARTESIAN_POINT('',(5.1594458894776,133.5,72.2594458894776));
#1062=CARTESIAN_POINT('',(0.,133.5,67.1));
#1063=CARTESIAN_POINT('',(0.,102.1,67.1));
#1064=CARTESIAN_POINT('',(230.8,111.7,61.6));
#1065=CARTESIAN_POINT('',(230.8,111.7,61.6));
#1066=CARTESIAN_POINT('',(230.8,133.5,61.6));
#1067=CARTESIAN_POINT('',(5.1594458894776,133.5,61.6));
#1068=CARTESIAN_POINT('',(5.1594458894776,133.5,80.65));
#1069=CARTESIAN_POINT('',(230.8,133.5,61.6));
#1070=CARTESIAN_POINT('',(16.8,131.9,61.6));
#1071=CARTESIAN_POINT('',(230.8,122.6,61.6));
#1072=CARTESIAN_POINT('',(121.8,25.15,62.4));
#1073=CARTESIAN_POINT('',(121.8,39.1,62.4));
#1074=CARTESIAN_POINT('',(121.8,39.1,80.6));
#1075=CARTESIAN_POINT('',(121.8,25.15,62.4));
#1076=CARTESIAN_POINT('',(205.15,50.3,62.4));
#1077=CARTESIAN_POINT('',(133.,50.3,62.4));
#1078=CARTESIAN_POINT('',(277.3,50.3,62.4));
#1079=CARTESIAN_POINT('',(277.3,50.3,80.6));
#1080=CARTESIAN_POINT('',(133.,50.3,62.4));
#1081=CARTESIAN_POINT('',(205.15,50.3,62.4));
#1082=CARTESIAN_POINT('',(164.9,29.5,62.4));
#1083=CARTESIAN_POINT('',(158.95,29.5,62.4));
#1084=CARTESIAN_POINT('',(205.15,25.2,62.4));
#1085=CARTESIAN_POINT('',(170.4,25.2,62.4));
#1086=CARTESIAN_POINT('',(233.4,25.2,62.4));
#1087=CARTESIAN_POINT('',(233.4,22.1,62.4));
#1088=CARTESIAN_POINT('',(236.5,22.1,62.4));
#1089=CARTESIAN_POINT('',(236.5,25.15,62.4));
#1090=CARTESIAN_POINT('',(236.5,11.4,62.4));
#1091=CARTESIAN_POINT('',(233.4,11.4,62.4));
#1092=CARTESIAN_POINT('',(233.4,8.3,62.4));
#1093=CARTESIAN_POINT('',(205.15,8.3,62.4));
#1094=CARTESIAN_POINT('',(170.4,8.3,62.4));
#1095=CARTESIAN_POINT('',(170.4,11.4,62.4));
#1096=CARTESIAN_POINT('',(167.3,11.4,62.4));
#1097=CARTESIAN_POINT('',(167.3,25.15,62.4));
#1098=CARTESIAN_POINT('',(167.3,22.1,62.4));
#1099=CARTESIAN_POINT('',(170.4,22.1,62.4));
#1100=CARTESIAN_POINT('',(288.5,25.15,62.4));
#1101=CARTESIAN_POINT('',(288.5,39.1,62.4));
#1102=CARTESIAN_POINT('',(277.3,39.1,62.4));
#1103=CARTESIAN_POINT('',(133.,39.1,62.4));
#1104=CARTESIAN_POINT('',(205.15,25.15,62.4));
#1105=CARTESIAN_POINT('',(288.5,39.1,62.4));
#1106=CARTESIAN_POINT('',(288.5,25.15,62.4));
#1107=CARTESIAN_POINT('',(277.3,39.1,62.4));
#1108=CARTESIAN_POINT('',(133.,39.1,62.4));
#1109=CARTESIAN_POINT('',(233.4,8.3,54.7));
#1110=CARTESIAN_POINT('',(233.4,8.3,54.7));
#1111=CARTESIAN_POINT('',(201.9,8.3,54.7));
#1112=CARTESIAN_POINT('',(170.4,8.3,54.7));
#1113=CARTESIAN_POINT('',(170.4,8.3,62.4));
#1114=CARTESIAN_POINT('',(201.9,8.3,54.7));
#1115=CARTESIAN_POINT('',(167.3,11.4,54.7));
#1116=CARTESIAN_POINT('',(167.3,11.4,54.7));
#1117=CARTESIAN_POINT('',(167.3,16.75,54.7));
#1118=CARTESIAN_POINT('',(167.3,22.1,54.7));
#1119=CARTESIAN_POINT('',(167.3,22.1,62.4));
#1120=CARTESIAN_POINT('',(167.3,16.75,54.7));
#1121=CARTESIAN_POINT('',(201.9,25.2,54.7));
#1122=CARTESIAN_POINT('',(170.4,25.2,54.7));
#1123=CARTESIAN_POINT('',(233.4,25.2,54.7));
#1124=CARTESIAN_POINT('',(233.4,25.2,62.4));
#1125=CARTESIAN_POINT('',(170.4,25.2,54.7));
#1126=CARTESIAN_POINT('',(201.9,25.2,54.7));
#1127=CARTESIAN_POINT('',(236.5,16.75,54.7));
#1128=CARTESIAN_POINT('',(236.5,22.1,54.7));
#1129=CARTESIAN_POINT('',(236.5,11.4,54.7));
#1130=CARTESIAN_POINT('',(236.5,11.4,62.4));
#1131=CARTESIAN_POINT('',(236.5,22.1,54.7));
#1132=CARTESIAN_POINT('',(236.5,16.75,54.7));
#1133=CARTESIAN_POINT('',(233.4,11.4,54.7));
#1134=CARTESIAN_POINT('',(233.4,22.1,54.7));
#1135=CARTESIAN_POINT('',(170.4,22.1,54.7));
#1136=CARTESIAN_POINT('',(170.4,11.4,54.7));
#1137=CARTESIAN_POINT('',(201.9,16.75,54.7));
#1138=CARTESIAN_POINT('',(233.4,11.4,54.7));
#1139=CARTESIAN_POINT('',(233.4,22.1,54.7));
#1140=CARTESIAN_POINT('',(170.4,11.4,54.7));
#1141=CARTESIAN_POINT('',(170.4,22.1,54.7));
#1142=CARTESIAN_POINT('',(420.3,141.,45.6));
#1143=CARTESIAN_POINT('',(386.8,141.,45.6));
#1144=CARTESIAN_POINT('',(386.8,141.,80.6));
#1145=CARTESIAN_POINT('',(420.3,141.,45.6));
#1146=CARTESIAN_POINT('',(379.,148.8,45.6));
#1147=CARTESIAN_POINT('',(379.,148.8,45.6));
#1148=CARTESIAN_POINT('',(379.,172.6,45.6));
#1149=CARTESIAN_POINT('',(379.,172.6,45.6));
#1150=CARTESIAN_POINT('',(386.8,148.8,45.6));
#1151=CARTESIAN_POINT('',(420.3,172.6,45.6));
#1152=CARTESIAN_POINT('',(386.8,148.8,45.6));
#1153=CARTESIAN_POINT('',(164.9,29.5,80.65));
#1154=CARTESIAN_POINT('',(16.8,131.9,34.1));
#1155=CARTESIAN_POINT('',(28.55,131.9,34.1));
#1156=CARTESIAN_POINT('',(16.8,131.9,34.1));
#1157=CARTESIAN_POINT('',(16.8,131.9,80.65));
#1158=MECHANICAL_DESIGN_GEOMETRIC_PRESENTATION_REPRESENTATION('',(#24),
#1159);
#1159=(
GEOMETRIC_REPRESENTATION_CONTEXT(3)
GLOBAL_UNCERTAINTY_ASSIGNED_CONTEXT((#1160))
GLOBAL_UNIT_ASSIGNED_CONTEXT((#1166,#1162,#1161))
REPRESENTATION_CONTEXT('featured_part_10487','TOP_LEVEL_ASSEMBLY_PART')
);
#1160=UNCERTAINTY_MEASURE_WITH_UNIT(LENGTH_MEASURE(2.E-5),#1166,
'DISTANCE_ACCURACY_VALUE','Maximum Tolerance applied to model');
#1161=(
NAMED_UNIT(*)
SI_UNIT($,.STERADIAN.)
SOLID_ANGLE_UNIT()
);
#1162=(
CONVERSION_BASED_UNIT('DEGREE',#1164)
NAMED_UNIT(#1163)
PLANE_ANGLE_UNIT()
);
#1163=DIMENSIONAL_EXPONENTS(0.,0.,0.,0.,0.,0.,0.);
#1164=PLANE_ANGLE_MEASURE_WITH_UNIT(PLANE_ANGLE_MEASURE(0.0174532925),#1165);
#1165=(
NAMED_UNIT(*)
PLANE_ANGLE_UNIT()
SI_UNIT($,.RADIAN.)
);
#1166=(
LENGTH_UNIT()
NAMED_UNIT(*)
SI_UNIT(.MILLI.,.METRE.)
);
ENDSEC;
END-ISO-10303-21;
