ISO-10303-21;
HEADER;
/* Generated by software containing ST-Developer
 * from STEP Tools, Inc. (www.steptools.com) 
 */
/* OPTION: using custom schema-name function */

FILE_DESCRIPTION(
/* description */ (''),
/* implementation_level */ '2;1');

FILE_NAME(
/* name */ 'featured_part_00645.stp',
/* time_stamp */ '2026-07-01T13:59:37-04:00',
/* author */ (''),
/* organization */ (''),
/* preprocessor_version */ 'ST-DEVELOPER v20.1',
/* originating_system */ 'SIEMENS PLM Software NX2512.6002',
/* authorisation */ '');

FILE_SCHEMA (('AUTOMOTIVE_DESIGN { 1 0 10303 214 3 1 1 1 }'));
ENDSEC;

DATA;
#10=SHAPE_REPRESENTATION_RELATIONSHIP('None',
'relationship between featured_part_00645-None and featured_part_00645
-None',#22,#11);
#11=ADVANCED_BREP_SHAPE_REPRESENTATION('featured_part_00645-None',(#32),
#404);
#12=SHAPE_DEFINITION_REPRESENTATION(#13,#22);
#13=PRODUCT_DEFINITION_SHAPE('','',#14);
#14=PRODUCT_DEFINITION(' ','',#16,#15);
#15=PRODUCT_DEFINITION_CONTEXT('part definition',#21,'design');
#16=PRODUCT_DEFINITION_FORMATION_WITH_SPECIFIED_SOURCE(' ',' ',#18,
 .NOT_KNOWN.);
#17=PRODUCT_RELATED_PRODUCT_CATEGORY('part','',(#18));
#18=PRODUCT('featured_part_00645','featured_part_00645',' ',(#19));
#19=PRODUCT_CONTEXT(' ',#21,'mechanical');
#20=APPLICATION_PROTOCOL_DEFINITION('international standard',
'automotive_design',2010,#21);
#21=APPLICATION_CONTEXT(
'core data for automotive mechanical design processes');
#22=SHAPE_REPRESENTATION('featured_part_00645-None',(#256),#404);
#23=PRESENTATION_LAYER_ASSIGNMENT('1','Layer 1',(#32));
#24=STYLED_ITEM('',(#25),#32);
#25=PRESENTATION_STYLE_ASSIGNMENT((#26));
#26=SURFACE_STYLE_USAGE(.BOTH.,#27);
#27=SURFACE_SIDE_STYLE('',(#28));
#28=SURFACE_STYLE_FILL_AREA(#29);
#29=FILL_AREA_STYLE('',(#30));
#30=FILL_AREA_STYLE_COLOUR('',#31);
#31=COLOUR_RGB('medium steel',0.611764705882353,0.658823529411765,0.670588235294118);
#32=MANIFOLD_SOLID_BREP('',#33);
#33=CLOSED_SHELL('',(#45,#46,#47,#48,#49,#50,#51,#52,#53,#54,#55,#56));
#34=CYLINDRICAL_SURFACE('',#274,8.);
#35=CYLINDRICAL_SURFACE('',#275,8.);
#36=CYLINDRICAL_SURFACE('',#276,8.);
#37=CYLINDRICAL_SURFACE('',#277,8.);
#38=ELLIPSE('',#272,11.3137084989848,8.);
#39=FACE_OUTER_BOUND('',#124,.T.);
#40=FACE_OUTER_BOUND('',#125,.T.);
#41=FACE_OUTER_BOUND('',#126,.T.);
#42=FACE_OUTER_BOUND('',#132,.T.);
#43=FACE_OUTER_BOUND('',#133,.T.);
#44=FACE_OUTER_BOUND('',#134,.T.);
#45=ADVANCED_FACE('',(#103,#104,#105,#106),#57,.T.);
#46=ADVANCED_FACE('',(#39),#58,.T.);
#47=ADVANCED_FACE('',(#40),#59,.T.);
#48=ADVANCED_FACE('',(#41),#60,.T.);
#49=ADVANCED_FACE('',(#107,#108,#109,#110,#111),#61,.T.);
#50=ADVANCED_FACE('',(#42),#62,.T.);
#51=ADVANCED_FACE('',(#43),#63,.F.);
#52=ADVANCED_FACE('',(#44),#64,.F.);
#53=ADVANCED_FACE('',(#112,#113),#34,.F.);
#54=ADVANCED_FACE('',(#114,#115),#35,.F.);
#55=ADVANCED_FACE('',(#116,#117),#36,.F.);
#56=ADVANCED_FACE('',(#118,#119),#37,.F.);
#57=PLANE('',#261);
#58=PLANE('',#262);
#59=PLANE('',#263);
#60=PLANE('',#264);
#61=PLANE('',#269);
#62=PLANE('',#270);
#63=PLANE('',#271);
#64=PLANE('',#273);
#65=LINE('',#351,#84);
#66=LINE('',#353,#85);
#67=LINE('',#355,#86);
#68=LINE('',#357,#87);
#69=LINE('',#359,#88);
#70=LINE('',#361,#89);
#71=LINE('',#364,#90);
#72=LINE('',#366,#91);
#73=LINE('',#368,#92);
#74=LINE('',#370,#93);
#75=LINE('',#372,#94);
#76=LINE('',#374,#95);
#77=LINE('',#376,#96);
#78=LINE('',#378,#97);
#79=LINE('',#379,#98);
#80=LINE('',#381,#99);
#81=LINE('',#391,#100);
#82=LINE('',#393,#101);
#83=LINE('',#395,#102);
#84=VECTOR('',#288,1.);
#85=VECTOR('',#289,1.);
#86=VECTOR('',#290,1.);
#87=VECTOR('',#291,1.);
#88=VECTOR('',#292,1.);
#89=VECTOR('',#295,1.);
#90=VECTOR('',#296,1.);
#91=VECTOR('',#297,1.);
#92=VECTOR('',#298,1.);
#93=VECTOR('',#299,1.);
#94=VECTOR('',#302,1.);
#95=VECTOR('',#303,1.);
#96=VECTOR('',#304,1.);
#97=VECTOR('',#307,1.);
#98=VECTOR('',#308,1.);
#99=VECTOR('',#309,1.);
#100=VECTOR('',#320,1.);
#101=VECTOR('',#323,1.);
#102=VECTOR('',#326,1.);
#103=FACE_BOUND('',#120,.T.);
#104=FACE_BOUND('',#121,.T.);
#105=FACE_BOUND('',#122,.T.);
#106=FACE_BOUND('',#123,.T.);
#107=FACE_BOUND('',#127,.T.);
#108=FACE_BOUND('',#128,.T.);
#109=FACE_BOUND('',#129,.T.);
#110=FACE_BOUND('',#130,.T.);
#111=FACE_BOUND('',#131,.T.);
#112=FACE_BOUND('',#135,.T.);
#113=FACE_BOUND('',#136,.T.);
#114=FACE_BOUND('',#137,.T.);
#115=FACE_BOUND('',#138,.T.);
#116=FACE_BOUND('',#139,.T.);
#117=FACE_BOUND('',#140,.T.);
#118=FACE_BOUND('',#141,.T.);
#119=FACE_BOUND('',#142,.T.);
#120=EDGE_LOOP('',(#143));
#121=EDGE_LOOP('',(#144));
#122=EDGE_LOOP('',(#145));
#123=EDGE_LOOP('',(#146,#147,#148,#149,#150,#151));
#124=EDGE_LOOP('',(#152,#153,#154,#155,#156));
#125=EDGE_LOOP('',(#157,#158,#159,#160));
#126=EDGE_LOOP('',(#161,#162,#163,#164,#165));
#127=EDGE_LOOP('',(#166));
#128=EDGE_LOOP('',(#167));
#129=EDGE_LOOP('',(#168));
#130=EDGE_LOOP('',(#169));
#131=EDGE_LOOP('',(#170,#171,#172,#173));
#132=EDGE_LOOP('',(#174,#175,#176,#177,#178));
#133=EDGE_LOOP('',(#179,#180,#181,#182,#183));
#134=EDGE_LOOP('',(#184,#185,#186,#187,#188,#189));
#135=EDGE_LOOP('',(#190));
#136=EDGE_LOOP('',(#191,#192));
#137=EDGE_LOOP('',(#193));
#138=EDGE_LOOP('',(#194));
#139=EDGE_LOOP('',(#195));
#140=EDGE_LOOP('',(#196));
#141=EDGE_LOOP('',(#197));
#142=EDGE_LOOP('',(#198));
#143=ORIENTED_EDGE('',*,*,#220,.F.);
#144=ORIENTED_EDGE('',*,*,#221,.F.);
#145=ORIENTED_EDGE('',*,*,#222,.F.);
#146=ORIENTED_EDGE('',*,*,#223,.F.);
#147=ORIENTED_EDGE('',*,*,#224,.T.);
#148=ORIENTED_EDGE('',*,*,#225,.F.);
#149=ORIENTED_EDGE('',*,*,#226,.F.);
#150=ORIENTED_EDGE('',*,*,#227,.T.);
#151=ORIENTED_EDGE('',*,*,#228,.T.);
#152=ORIENTED_EDGE('',*,*,#229,.T.);
#153=ORIENTED_EDGE('',*,*,#230,.T.);
#154=ORIENTED_EDGE('',*,*,#231,.T.);
#155=ORIENTED_EDGE('',*,*,#232,.F.);
#156=ORIENTED_EDGE('',*,*,#233,.T.);
#157=ORIENTED_EDGE('',*,*,#232,.T.);
#158=ORIENTED_EDGE('',*,*,#234,.T.);
#159=ORIENTED_EDGE('',*,*,#235,.F.);
#160=ORIENTED_EDGE('',*,*,#236,.T.);
#161=ORIENTED_EDGE('',*,*,#235,.T.);
#162=ORIENTED_EDGE('',*,*,#237,.T.);
#163=ORIENTED_EDGE('',*,*,#226,.T.);
#164=ORIENTED_EDGE('',*,*,#238,.F.);
#165=ORIENTED_EDGE('',*,*,#239,.T.);
#166=ORIENTED_EDGE('',*,*,#240,.F.);
#167=ORIENTED_EDGE('',*,*,#241,.F.);
#168=ORIENTED_EDGE('',*,*,#242,.F.);
#169=ORIENTED_EDGE('',*,*,#243,.F.);
#170=ORIENTED_EDGE('',*,*,#244,.F.);
#171=ORIENTED_EDGE('',*,*,#233,.F.);
#172=ORIENTED_EDGE('',*,*,#236,.F.);
#173=ORIENTED_EDGE('',*,*,#239,.F.);
#174=ORIENTED_EDGE('',*,*,#225,.T.);
#175=ORIENTED_EDGE('',*,*,#245,.T.);
#176=ORIENTED_EDGE('',*,*,#229,.F.);
#177=ORIENTED_EDGE('',*,*,#244,.T.);
#178=ORIENTED_EDGE('',*,*,#238,.T.);
#179=ORIENTED_EDGE('',*,*,#231,.F.);
#180=ORIENTED_EDGE('',*,*,#246,.T.);
#181=ORIENTED_EDGE('',*,*,#227,.F.);
#182=ORIENTED_EDGE('',*,*,#237,.F.);
#183=ORIENTED_EDGE('',*,*,#234,.F.);
#184=ORIENTED_EDGE('',*,*,#247,.F.);
#185=ORIENTED_EDGE('',*,*,#228,.F.);
#186=ORIENTED_EDGE('',*,*,#246,.F.);
#187=ORIENTED_EDGE('',*,*,#230,.F.);
#188=ORIENTED_EDGE('',*,*,#245,.F.);
#189=ORIENTED_EDGE('',*,*,#224,.F.);
#190=ORIENTED_EDGE('',*,*,#243,.T.);
#191=ORIENTED_EDGE('',*,*,#223,.T.);
#192=ORIENTED_EDGE('',*,*,#247,.T.);
#193=ORIENTED_EDGE('',*,*,#222,.T.);
#194=ORIENTED_EDGE('',*,*,#242,.T.);
#195=ORIENTED_EDGE('',*,*,#221,.T.);
#196=ORIENTED_EDGE('',*,*,#241,.T.);
#197=ORIENTED_EDGE('',*,*,#220,.T.);
#198=ORIENTED_EDGE('',*,*,#240,.T.);
#199=VERTEX_POINT('',#343);
#200=VERTEX_POINT('',#345);
#201=VERTEX_POINT('',#347);
#202=VERTEX_POINT('',#349);
#203=VERTEX_POINT('',#350);
#204=VERTEX_POINT('',#352);
#205=VERTEX_POINT('',#354);
#206=VERTEX_POINT('',#356);
#207=VERTEX_POINT('',#358);
#208=VERTEX_POINT('',#362);
#209=VERTEX_POINT('',#363);
#210=VERTEX_POINT('',#365);
#211=VERTEX_POINT('',#367);
#212=VERTEX_POINT('',#369);
#213=VERTEX_POINT('',#373);
#214=VERTEX_POINT('',#375);
#215=VERTEX_POINT('',#380);
#216=VERTEX_POINT('',#384);
#217=VERTEX_POINT('',#386);
#218=VERTEX_POINT('',#388);
#219=VERTEX_POINT('',#390);
#220=EDGE_CURVE('',#199,#199,#248,.T.);
#221=EDGE_CURVE('',#200,#200,#249,.T.);
#222=EDGE_CURVE('',#201,#201,#250,.T.);
#223=EDGE_CURVE('',#202,#203,#251,.T.);
#224=EDGE_CURVE('',#202,#204,#65,.T.);
#225=EDGE_CURVE('',#205,#204,#66,.T.);
#226=EDGE_CURVE('',#206,#205,#67,.T.);
#227=EDGE_CURVE('',#206,#207,#68,.T.);
#228=EDGE_CURVE('',#207,#203,#69,.T.);
#229=EDGE_CURVE('',#208,#209,#70,.T.);
#230=EDGE_CURVE('',#209,#210,#71,.T.);
#231=EDGE_CURVE('',#210,#211,#72,.T.);
#232=EDGE_CURVE('',#212,#211,#73,.T.);
#233=EDGE_CURVE('',#212,#208,#74,.T.);
#234=EDGE_CURVE('',#211,#213,#75,.T.);
#235=EDGE_CURVE('',#214,#213,#76,.T.);
#236=EDGE_CURVE('',#214,#212,#77,.T.);
#237=EDGE_CURVE('',#213,#206,#78,.T.);
#238=EDGE_CURVE('',#215,#205,#79,.T.);
#239=EDGE_CURVE('',#215,#214,#80,.T.);
#240=EDGE_CURVE('',#216,#216,#252,.T.);
#241=EDGE_CURVE('',#217,#217,#253,.T.);
#242=EDGE_CURVE('',#218,#218,#254,.T.);
#243=EDGE_CURVE('',#219,#219,#255,.T.);
#244=EDGE_CURVE('',#208,#215,#81,.T.);
#245=EDGE_CURVE('',#204,#209,#82,.T.);
#246=EDGE_CURVE('',#210,#207,#83,.T.);
#247=EDGE_CURVE('',#203,#202,#38,.T.);
#248=CIRCLE('',#257,8.);
#249=CIRCLE('',#258,8.);
#250=CIRCLE('',#259,8.);
#251=CIRCLE('',#260,8.);
#252=CIRCLE('',#265,8.);
#253=CIRCLE('',#266,8.);
#254=CIRCLE('',#267,8.);
#255=CIRCLE('',#268,8.);
#256=AXIS2_PLACEMENT_3D('',#341,#278,#279);
#257=AXIS2_PLACEMENT_3D('',#342,#280,#281);
#258=AXIS2_PLACEMENT_3D('',#344,#282,#283);
#259=AXIS2_PLACEMENT_3D('',#346,#284,#285);
#260=AXIS2_PLACEMENT_3D('',#348,#286,#287);
#261=AXIS2_PLACEMENT_3D('',#360,#293,#294);
#262=AXIS2_PLACEMENT_3D('',#371,#300,#301);
#263=AXIS2_PLACEMENT_3D('',#377,#305,#306);
#264=AXIS2_PLACEMENT_3D('',#382,#310,#311);
#265=AXIS2_PLACEMENT_3D('',#383,#312,#313);
#266=AXIS2_PLACEMENT_3D('',#385,#314,#315);
#267=AXIS2_PLACEMENT_3D('',#387,#316,#317);
#268=AXIS2_PLACEMENT_3D('',#389,#318,#319);
#269=AXIS2_PLACEMENT_3D('',#392,#321,#322);
#270=AXIS2_PLACEMENT_3D('',#394,#324,#325);
#271=AXIS2_PLACEMENT_3D('',#396,#327,#328);
#272=AXIS2_PLACEMENT_3D('',#397,#329,#330);
#273=AXIS2_PLACEMENT_3D('',#398,#331,#332);
#274=AXIS2_PLACEMENT_3D('',#399,#333,#334);
#275=AXIS2_PLACEMENT_3D('',#400,#335,#336);
#276=AXIS2_PLACEMENT_3D('',#401,#337,#338);
#277=AXIS2_PLACEMENT_3D('',#402,#339,#340);
#278=DIRECTION('',(0.,0.,1.));
#279=DIRECTION('',(1.,0.,0.));
#280=DIRECTION('',(0.,0.,1.));
#281=DIRECTION('',(1.,0.,0.));
#282=DIRECTION('',(0.,0.,1.));
#283=DIRECTION('',(1.,0.,0.));
#284=DIRECTION('',(0.,0.,1.));
#285=DIRECTION('',(1.,0.,0.));
#286=DIRECTION('',(0.,0.,1.));
#287=DIRECTION('',(1.,0.,0.));
#288=DIRECTION('',(1.,0.,0.));
#289=DIRECTION('',(0.,-1.,0.));
#290=DIRECTION('',(1.,0.,0.));
#291=DIRECTION('',(0.,-1.,0.));
#292=DIRECTION('',(1.,0.,0.));
#293=DIRECTION('',(0.,0.,1.));
#294=DIRECTION('',(1.,0.,0.));
#295=DIRECTION('',(0.,0.,1.));
#296=DIRECTION('',(-1.,0.,0.));
#297=DIRECTION('',(-0.707106781186548,0.,-0.707106781186548));
#298=DIRECTION('',(0.,0.,1.));
#299=DIRECTION('',(1.,0.,0.));
#300=DIRECTION('',(0.,-1.,0.));
#301=DIRECTION('',(0.,0.,-1.));
#302=DIRECTION('',(0.,1.,0.));
#303=DIRECTION('',(0.,0.,1.));
#304=DIRECTION('',(0.,-1.,0.));
#305=DIRECTION('',(-1.,0.,0.));
#306=DIRECTION('',(0.,0.,1.));
#307=DIRECTION('',(0.707106781186548,0.,0.707106781186548));
#308=DIRECTION('',(0.,0.,1.));
#309=DIRECTION('',(-1.,0.,0.));
#310=DIRECTION('',(0.,1.,0.));
#311=DIRECTION('',(0.,0.,1.));
#312=DIRECTION('',(0.,0.,-1.));
#313=DIRECTION('',(-1.,0.,0.));
#314=DIRECTION('',(0.,0.,-1.));
#315=DIRECTION('',(-1.,0.,0.));
#316=DIRECTION('',(0.,0.,-1.));
#317=DIRECTION('',(-1.,0.,0.));
#318=DIRECTION('',(0.,0.,-1.));
#319=DIRECTION('',(-1.,0.,0.));
#320=DIRECTION('',(0.,1.,0.));
#321=DIRECTION('',(0.,0.,-1.));
#322=DIRECTION('',(-1.,0.,0.));
#323=DIRECTION('',(0.,-0.707106781186548,-0.707106781186548));
#324=DIRECTION('',(1.,0.,0.));
#325=DIRECTION('',(0.,0.,-1.));
#326=DIRECTION('',(0.577350269189626,0.577350269189626,0.577350269189626));
#327=DIRECTION('',(0.707106781186548,0.,-0.707106781186548));
#328=DIRECTION('',(0.,1.,0.));
#329=DIRECTION('',(0.,-0.707106781186548,0.707106781186548));
#330=DIRECTION('',(0.,-0.707106781186548,-0.707106781186548));
#331=DIRECTION('',(0.,0.707106781186548,-0.707106781186548));
#332=DIRECTION('',(-1.,0.,0.));
#333=DIRECTION('',(0.,0.,-1.));
#334=DIRECTION('',(1.,0.,0.));
#335=DIRECTION('',(0.,0.,-1.));
#336=DIRECTION('',(1.,0.,0.));
#337=DIRECTION('',(0.,0.,-1.));
#338=DIRECTION('',(1.,0.,0.));
#339=DIRECTION('',(0.,0.,-1.));
#340=DIRECTION('',(1.,0.,0.));
#341=CARTESIAN_POINT('',(0.,0.,0.));
#342=CARTESIAN_POINT('',(227.7,373.2,147.));
#343=CARTESIAN_POINT('',(235.7,373.2,147.));
#344=CARTESIAN_POINT('',(227.7,254.9,147.));
#345=CARTESIAN_POINT('',(235.7,254.9,147.));
#346=CARTESIAN_POINT('',(227.7,136.7,147.));
#347=CARTESIAN_POINT('',(235.7,136.7,147.));
#348=CARTESIAN_POINT('',(227.7,18.4,147.));
#349=CARTESIAN_POINT('',(233.779473661428,13.2,147.));
#350=CARTESIAN_POINT('',(221.620526338572,13.2,147.));
#351=CARTESIAN_POINT('',(119.85,13.2,147.));
#352=CARTESIAN_POINT('',(239.7,13.2,147.));
#353=CARTESIAN_POINT('',(239.7,240.55,147.));
#354=CARTESIAN_POINT('',(239.7,481.1,147.));
#355=CARTESIAN_POINT('',(119.85,481.1,147.));
#356=CARTESIAN_POINT('',(27.5,481.1,147.));
#357=CARTESIAN_POINT('',(27.5,240.55,147.));
#358=CARTESIAN_POINT('',(27.5,13.2,147.));
#359=CARTESIAN_POINT('',(119.85,13.2,147.));
#360=CARTESIAN_POINT('',(119.85,240.55,147.));
#361=CARTESIAN_POINT('',(239.7,0.,0.));
#362=CARTESIAN_POINT('',(239.7,0.,0.));
#363=CARTESIAN_POINT('',(239.7,0.,133.8));
#364=CARTESIAN_POINT('',(119.85,0.,133.8));
#365=CARTESIAN_POINT('',(14.3,0.,133.8));
#366=CARTESIAN_POINT('',(0.175000000000008,0.,119.675));
#367=CARTESIAN_POINT('',(0.,0.,119.5));
#368=CARTESIAN_POINT('',(0.,0.,0.));
#369=CARTESIAN_POINT('',(0.,0.,0.));
#370=CARTESIAN_POINT('',(119.85,0.,0.));
#371=CARTESIAN_POINT('',(119.85,0.,0.));
#372=CARTESIAN_POINT('',(0.,240.55,119.5));
#373=CARTESIAN_POINT('',(0.,481.1,119.5));
#374=CARTESIAN_POINT('',(0.,481.1,0.));
#375=CARTESIAN_POINT('',(0.,481.1,0.));
#376=CARTESIAN_POINT('',(0.,240.55,0.));
#377=CARTESIAN_POINT('',(0.,240.55,0.));
#378=CARTESIAN_POINT('',(0.175000000000008,481.1,119.675));
#379=CARTESIAN_POINT('',(239.7,481.1,0.));
#380=CARTESIAN_POINT('',(239.7,481.1,0.));
#381=CARTESIAN_POINT('',(119.85,481.1,0.));
#382=CARTESIAN_POINT('',(119.85,481.1,0.));
#383=CARTESIAN_POINT('',(227.7,373.2,0.));
#384=CARTESIAN_POINT('',(219.7,373.2,0.));
#385=CARTESIAN_POINT('',(227.7,254.9,0.));
#386=CARTESIAN_POINT('',(219.7,254.9,0.));
#387=CARTESIAN_POINT('',(227.7,136.7,0.));
#388=CARTESIAN_POINT('',(219.7,136.7,0.));
#389=CARTESIAN_POINT('',(227.7,18.4,0.));
#390=CARTESIAN_POINT('',(219.7,18.4,0.));
#391=CARTESIAN_POINT('',(239.7,240.55,0.));
#392=CARTESIAN_POINT('',(119.85,240.55,0.));
#393=CARTESIAN_POINT('',(239.7,53.375,187.175));
#394=CARTESIAN_POINT('',(239.7,240.55,0.));
#395=CARTESIAN_POINT('',(84.95,70.65,204.45));
#396=CARTESIAN_POINT('',(0.,240.55,119.5));
#397=CARTESIAN_POINT('',(227.7,18.4,152.2));
#398=CARTESIAN_POINT('',(119.85,0.,133.8));
#399=CARTESIAN_POINT('',(227.7,18.4,147.05));
#400=CARTESIAN_POINT('',(227.7,136.7,147.05));
#401=CARTESIAN_POINT('',(227.7,254.9,147.05));
#402=CARTESIAN_POINT('',(227.7,373.2,147.05));
#403=MECHANICAL_DESIGN_GEOMETRIC_PRESENTATION_REPRESENTATION('',(#24),#404);
#404=(
GEOMETRIC_REPRESENTATION_CONTEXT(3)
GLOBAL_UNCERTAINTY_ASSIGNED_CONTEXT((#405))
GLOBAL_UNIT_ASSIGNED_CONTEXT((#411,#407,#406))
REPRESENTATION_CONTEXT('featured_part_00645','TOP_LEVEL_ASSEMBLY_PART')
);
#405=UNCERTAINTY_MEASURE_WITH_UNIT(LENGTH_MEASURE(2.E-5),#411,
'DISTANCE_ACCURACY_VALUE','Maximum Tolerance applied to model');
#406=(
NAMED_UNIT(*)
SI_UNIT($,.STERADIAN.)
SOLID_ANGLE_UNIT()
);
#407=(
CONVERSION_BASED_UNIT('DEGREE',#409)
NAMED_UNIT(#408)
PLANE_ANGLE_UNIT()
);
#408=DIMENSIONAL_EXPONENTS(0.,0.,0.,0.,0.,0.,0.);
#409=PLANE_ANGLE_MEASURE_WITH_UNIT(PLANE_ANGLE_MEASURE(0.0174532925),#410);
#410=(
NAMED_UNIT(*)
PLANE_ANGLE_UNIT()
SI_UNIT($,.RADIAN.)
);
#411=(
LENGTH_UNIT()
NAMED_UNIT(*)
SI_UNIT(.MILLI.,.METRE.)
);
ENDSEC;
END-ISO-10303-21;
