ISO-10303-21;
HEADER;
/* Generated by software containing ST-Developer
 * from STEP Tools, Inc. (www.steptools.com) 
 */
/* OPTION: using custom schema-name function */

FILE_DESCRIPTION(
/* description */ (''),
/* implementation_level */ '2;1');

FILE_NAME(
/* name */ 'featured_part_04793.stp',
/* time_stamp */ '2026-07-07T19:23:33-04:00',
/* author */ (''),
/* organization */ (''),
/* preprocessor_version */ 'ST-DEVELOPER v20.1',
/* originating_system */ 'SIEMENS PLM Software NX2512.6002',
/* authorisation */ '');

FILE_SCHEMA (('AUTOMOTIVE_DESIGN { 1 0 10303 214 3 1 1 1 }'));
ENDSEC;

DATA;
#10=SHAPE_REPRESENTATION_RELATIONSHIP('None',
'relationship between featured_part_04793-None and featured_part_04793
-None',#22,#11);
#11=ADVANCED_BREP_SHAPE_REPRESENTATION('featured_part_04793-None',(#32),
#1054);
#12=SHAPE_DEFINITION_REPRESENTATION(#13,#22);
#13=PRODUCT_DEFINITION_SHAPE('','',#14);
#14=PRODUCT_DEFINITION(' ','',#16,#15);
#15=PRODUCT_DEFINITION_CONTEXT('part definition',#21,'design');
#16=PRODUCT_DEFINITION_FORMATION_WITH_SPECIFIED_SOURCE(' ',' ',#18,
 .NOT_KNOWN.);
#17=PRODUCT_RELATED_PRODUCT_CATEGORY('part','',(#18));
#18=PRODUCT('featured_part_04793','featured_part_04793',' ',(#19));
#19=PRODUCT_CONTEXT(' ',#21,'mechanical');
#20=APPLICATION_PROTOCOL_DEFINITION('international standard',
'automotive_design',2010,#21);
#21=APPLICATION_CONTEXT(
'core data for automotive mechanical design processes');
#22=SHAPE_REPRESENTATION('featured_part_04793-None',(#641),#1054);
#23=PRESENTATION_LAYER_ASSIGNMENT('1','Layer 1',(#32));
#24=STYLED_ITEM('',(#25),#32);
#25=PRESENTATION_STYLE_ASSIGNMENT((#26));
#26=SURFACE_STYLE_USAGE(.BOTH.,#27);
#27=SURFACE_SIDE_STYLE('',(#28));
#28=SURFACE_STYLE_FILL_AREA(#29);
#29=FILL_AREA_STYLE('',(#30));
#30=FILL_AREA_STYLE_COLOUR('',#31);
#31=COLOUR_RGB('medium steel',0.611764705882353,0.658823529411765,0.670588235294118);
#32=MANIFOLD_SOLID_BREP('',#33);
#33=CLOSED_SHELL('',(#76,#77,#78,#79,#80,#81,#82,#83,#84,#85,#86,#87,#88,
#89,#90,#91,#92,#93,#94,#95,#96,#97,#98,#99,#100,#101,#102,#103,#104,#105,
#106,#107,#108));
#34=CYLINDRICAL_SURFACE('',#669,4.3);
#35=CYLINDRICAL_SURFACE('',#670,4.3);
#36=CYLINDRICAL_SURFACE('',#671,4.3);
#37=CYLINDRICAL_SURFACE('',#672,4.3);
#38=CYLINDRICAL_SURFACE('',#682,9.);
#39=CYLINDRICAL_SURFACE('',#683,9.);
#40=CYLINDRICAL_SURFACE('',#684,9.);
#41=CYLINDRICAL_SURFACE('',#685,9.);
#42=CYLINDRICAL_SURFACE('',#692,6.2);
#43=CYLINDRICAL_SURFACE('',#693,6.2);
#44=CYLINDRICAL_SURFACE('',#696,14.);
#45=FACE_OUTER_BOUND('',#137,.T.);
#46=FACE_OUTER_BOUND('',#138,.T.);
#47=FACE_OUTER_BOUND('',#139,.T.);
#48=FACE_OUTER_BOUND('',#140,.T.);
#49=FACE_OUTER_BOUND('',#141,.T.);
#50=FACE_OUTER_BOUND('',#142,.T.);
#51=FACE_OUTER_BOUND('',#143,.T.);
#52=FACE_OUTER_BOUND('',#144,.T.);
#53=FACE_OUTER_BOUND('',#145,.T.);
#54=FACE_OUTER_BOUND('',#148,.T.);
#55=FACE_OUTER_BOUND('',#149,.T.);
#56=FACE_OUTER_BOUND('',#150,.T.);
#57=FACE_OUTER_BOUND('',#151,.T.);
#58=FACE_OUTER_BOUND('',#152,.T.);
#59=FACE_OUTER_BOUND('',#153,.T.);
#60=FACE_OUTER_BOUND('',#154,.T.);
#61=FACE_OUTER_BOUND('',#155,.T.);
#62=FACE_OUTER_BOUND('',#156,.T.);
#63=FACE_OUTER_BOUND('',#157,.T.);
#64=FACE_OUTER_BOUND('',#158,.T.);
#65=FACE_OUTER_BOUND('',#159,.T.);
#66=FACE_OUTER_BOUND('',#160,.T.);
#67=FACE_OUTER_BOUND('',#161,.T.);
#68=FACE_OUTER_BOUND('',#162,.T.);
#69=FACE_OUTER_BOUND('',#163,.T.);
#70=FACE_OUTER_BOUND('',#164,.T.);
#71=FACE_OUTER_BOUND('',#165,.T.);
#72=FACE_OUTER_BOUND('',#166,.T.);
#73=FACE_OUTER_BOUND('',#167,.T.);
#74=FACE_OUTER_BOUND('',#168,.T.);
#75=FACE_OUTER_BOUND('',#169,.T.);
#76=ADVANCED_FACE('',(#131,#132),#109,.T.);
#77=ADVANCED_FACE('',(#45),#110,.T.);
#78=ADVANCED_FACE('',(#46),#111,.T.);
#79=ADVANCED_FACE('',(#47),#112,.T.);
#80=ADVANCED_FACE('',(#48),#113,.T.);
#81=ADVANCED_FACE('',(#49),#114,.T.);
#82=ADVANCED_FACE('',(#50),#115,.F.);
#83=ADVANCED_FACE('',(#51),#116,.F.);
#84=ADVANCED_FACE('',(#52),#117,.F.);
#85=ADVANCED_FACE('',(#53),#118,.F.);
#86=ADVANCED_FACE('',(#133,#134),#119,.F.);
#87=ADVANCED_FACE('',(#54),#120,.F.);
#88=ADVANCED_FACE('',(#55),#34,.F.);
#89=ADVANCED_FACE('',(#56),#35,.F.);
#90=ADVANCED_FACE('',(#57),#36,.F.);
#91=ADVANCED_FACE('',(#58),#37,.F.);
#92=ADVANCED_FACE('',(#59),#121,.F.);
#93=ADVANCED_FACE('',(#60),#122,.F.);
#94=ADVANCED_FACE('',(#61),#123,.F.);
#95=ADVANCED_FACE('',(#62),#124,.F.);
#96=ADVANCED_FACE('',(#63),#125,.F.);
#97=ADVANCED_FACE('',(#64),#38,.F.);
#98=ADVANCED_FACE('',(#65),#39,.F.);
#99=ADVANCED_FACE('',(#66),#40,.F.);
#100=ADVANCED_FACE('',(#67),#41,.F.);
#101=ADVANCED_FACE('',(#68),#126,.F.);
#102=ADVANCED_FACE('',(#69),#127,.F.);
#103=ADVANCED_FACE('',(#70),#128,.F.);
#104=ADVANCED_FACE('',(#71),#129,.F.);
#105=ADVANCED_FACE('',(#72),#42,.F.);
#106=ADVANCED_FACE('',(#73),#43,.F.);
#107=ADVANCED_FACE('',(#74),#130,.F.);
#108=ADVANCED_FACE('',(#75),#44,.F.);
#109=PLANE('',#649);
#110=PLANE('',#650);
#111=PLANE('',#651);
#112=PLANE('',#652);
#113=PLANE('',#653);
#114=PLANE('',#654);
#115=PLANE('',#655);
#116=PLANE('',#656);
#117=PLANE('',#657);
#118=PLANE('',#658);
#119=PLANE('',#667);
#120=PLANE('',#668);
#121=PLANE('',#673);
#122=PLANE('',#674);
#123=PLANE('',#675);
#124=PLANE('',#676);
#125=PLANE('',#681);
#126=PLANE('',#686);
#127=PLANE('',#687);
#128=PLANE('',#690);
#129=PLANE('',#691);
#130=PLANE('',#695);
#131=FACE_BOUND('',#135,.T.);
#132=FACE_BOUND('',#136,.T.);
#133=FACE_BOUND('',#146,.T.);
#134=FACE_BOUND('',#147,.T.);
#135=EDGE_LOOP('',(#300,#301,#302,#303,#304,#305,#306,#307,#308,#309));
#136=EDGE_LOOP('',(#310,#311,#312,#313,#314,#315,#316,#317,#318,#319));
#137=EDGE_LOOP('',(#320,#321,#322,#323));
#138=EDGE_LOOP('',(#324,#325,#326,#327,#328));
#139=EDGE_LOOP('',(#329,#330,#331,#332,#333,#334,#335,#336));
#140=EDGE_LOOP('',(#337,#338,#339,#340));
#141=EDGE_LOOP('',(#341,#342,#343,#344,#345));
#142=EDGE_LOOP('',(#346,#347,#348,#349));
#143=EDGE_LOOP('',(#350,#351,#352,#353,#354,#355,#356,#357));
#144=EDGE_LOOP('',(#358,#359,#360,#361));
#145=EDGE_LOOP('',(#362,#363,#364,#365));
#146=EDGE_LOOP('',(#366,#367,#368,#369,#370,#371,#372,#373));
#147=EDGE_LOOP('',(#374,#375,#376,#377,#378,#379,#380,#381));
#148=EDGE_LOOP('',(#382,#383,#384,#385));
#149=EDGE_LOOP('',(#386,#387,#388,#389));
#150=EDGE_LOOP('',(#390,#391,#392,#393));
#151=EDGE_LOOP('',(#394,#395,#396,#397));
#152=EDGE_LOOP('',(#398,#399,#400,#401));
#153=EDGE_LOOP('',(#402,#403,#404,#405));
#154=EDGE_LOOP('',(#406,#407,#408,#409));
#155=EDGE_LOOP('',(#410,#411,#412,#413));
#156=EDGE_LOOP('',(#414,#415,#416,#417));
#157=EDGE_LOOP('',(#418,#419,#420,#421,#422,#423,#424,#425));
#158=EDGE_LOOP('',(#426,#427,#428,#429));
#159=EDGE_LOOP('',(#430,#431,#432,#433));
#160=EDGE_LOOP('',(#434,#435,#436,#437));
#161=EDGE_LOOP('',(#438,#439,#440,#441));
#162=EDGE_LOOP('',(#442,#443,#444,#445));
#163=EDGE_LOOP('',(#446,#447,#448,#449));
#164=EDGE_LOOP('',(#450,#451,#452,#453,#454,#455));
#165=EDGE_LOOP('',(#456,#457,#458,#459));
#166=EDGE_LOOP('',(#460,#461,#462,#463));
#167=EDGE_LOOP('',(#464,#465,#466,#467));
#168=EDGE_LOOP('',(#468,#469));
#169=EDGE_LOOP('',(#470,#471,#472,#473));
#170=LINE('',#878,#235);
#171=LINE('',#882,#236);
#172=LINE('',#886,#237);
#173=LINE('',#890,#238);
#174=LINE('',#894,#239);
#175=LINE('',#895,#240);
#176=LINE('',#898,#241);
#177=LINE('',#900,#242);
#178=LINE('',#902,#243);
#179=LINE('',#904,#244);
#180=LINE('',#906,#245);
#181=LINE('',#908,#246);
#182=LINE('',#912,#247);
#183=LINE('',#916,#248);
#184=LINE('',#919,#249);
#185=LINE('',#921,#250);
#186=LINE('',#923,#251);
#187=LINE('',#925,#252);
#188=LINE('',#926,#253);
#189=LINE('',#928,#254);
#190=LINE('',#930,#255);
#191=LINE('',#932,#256);
#192=LINE('',#934,#257);
#193=LINE('',#935,#258);
#194=LINE('',#937,#259);
#195=LINE('',#939,#260);
#196=LINE('',#941,#261);
#197=LINE('',#944,#262);
#198=LINE('',#946,#263);
#199=LINE('',#948,#264);
#200=LINE('',#949,#265);
#201=LINE('',#951,#266);
#202=LINE('',#953,#267);
#203=LINE('',#955,#268);
#204=LINE('',#957,#269);
#205=LINE('',#959,#270);
#206=LINE('',#961,#271);
#207=LINE('',#964,#272);
#208=LINE('',#965,#273);
#209=LINE('',#967,#274);
#210=LINE('',#972,#275);
#211=LINE('',#976,#276);
#212=LINE('',#980,#277);
#213=LINE('',#983,#278);
#214=LINE('',#991,#279);
#215=LINE('',#992,#280);
#216=LINE('',#998,#281);
#217=LINE('',#1000,#282);
#218=LINE('',#1002,#283);
#219=LINE('',#1004,#284);
#220=LINE('',#1006,#285);
#221=LINE('',#1008,#286);
#222=LINE('',#1010,#287);
#223=LINE('',#1013,#288);
#224=LINE('',#1014,#289);
#225=LINE('',#1016,#290);
#226=LINE('',#1019,#291);
#227=LINE('',#1020,#292);
#228=LINE('',#1031,#293);
#229=LINE('',#1034,#294);
#230=LINE('',#1035,#295);
#231=LINE('',#1037,#296);
#232=LINE('',#1039,#297);
#233=LINE('',#1044,#298);
#234=LINE('',#1046,#299);
#235=VECTOR('',#701,1.);
#236=VECTOR('',#704,1.);
#237=VECTOR('',#707,1.);
#238=VECTOR('',#710,1.);
#239=VECTOR('',#713,1.);
#240=VECTOR('',#714,1.);
#241=VECTOR('',#715,1.);
#242=VECTOR('',#716,1.);
#243=VECTOR('',#717,1.);
#244=VECTOR('',#718,1.);
#245=VECTOR('',#719,1.);
#246=VECTOR('',#720,1.);
#247=VECTOR('',#723,1.);
#248=VECTOR('',#728,1.);
#249=VECTOR('',#729,1.);
#250=VECTOR('',#730,1.);
#251=VECTOR('',#731,1.);
#252=VECTOR('',#734,1.);
#253=VECTOR('',#735,1.);
#254=VECTOR('',#736,1.);
#255=VECTOR('',#739,1.);
#256=VECTOR('',#740,1.);
#257=VECTOR('',#741,1.);
#258=VECTOR('',#742,1.);
#259=VECTOR('',#743,1.);
#260=VECTOR('',#746,1.);
#261=VECTOR('',#749,1.);
#262=VECTOR('',#754,1.);
#263=VECTOR('',#755,1.);
#264=VECTOR('',#756,1.);
#265=VECTOR('',#757,1.);
#266=VECTOR('',#758,1.);
#267=VECTOR('',#759,1.);
#268=VECTOR('',#762,1.);
#269=VECTOR('',#763,1.);
#270=VECTOR('',#764,1.);
#271=VECTOR('',#767,1.);
#272=VECTOR('',#768,1.);
#273=VECTOR('',#769,1.);
#274=VECTOR('',#772,1.);
#275=VECTOR('',#775,1.);
#276=VECTOR('',#778,1.);
#277=VECTOR('',#781,1.);
#278=VECTOR('',#784,1.);
#279=VECTOR('',#795,1.);
#280=VECTOR('',#796,1.);
#281=VECTOR('',#807,1.);
#282=VECTOR('',#808,1.);
#283=VECTOR('',#809,1.);
#284=VECTOR('',#812,1.);
#285=VECTOR('',#813,1.);
#286=VECTOR('',#814,1.);
#287=VECTOR('',#817,1.);
#288=VECTOR('',#818,1.);
#289=VECTOR('',#819,1.);
#290=VECTOR('',#822,1.);
#291=VECTOR('',#823,1.);
#292=VECTOR('',#824,1.);
#293=VECTOR('',#845,1.);
#294=VECTOR('',#846,1.);
#295=VECTOR('',#847,1.);
#296=VECTOR('',#850,1.);
#297=VECTOR('',#851,1.);
#298=VECTOR('',#858,1.);
#299=VECTOR('',#861,1.);
#300=ORIENTED_EDGE('',*,*,#532,.F.);
#301=ORIENTED_EDGE('',*,*,#533,.F.);
#302=ORIENTED_EDGE('',*,*,#534,.T.);
#303=ORIENTED_EDGE('',*,*,#535,.F.);
#304=ORIENTED_EDGE('',*,*,#536,.T.);
#305=ORIENTED_EDGE('',*,*,#537,.F.);
#306=ORIENTED_EDGE('',*,*,#538,.T.);
#307=ORIENTED_EDGE('',*,*,#539,.F.);
#308=ORIENTED_EDGE('',*,*,#540,.T.);
#309=ORIENTED_EDGE('',*,*,#541,.F.);
#310=ORIENTED_EDGE('',*,*,#542,.F.);
#311=ORIENTED_EDGE('',*,*,#543,.F.);
#312=ORIENTED_EDGE('',*,*,#544,.F.);
#313=ORIENTED_EDGE('',*,*,#545,.T.);
#314=ORIENTED_EDGE('',*,*,#546,.F.);
#315=ORIENTED_EDGE('',*,*,#547,.F.);
#316=ORIENTED_EDGE('',*,*,#548,.F.);
#317=ORIENTED_EDGE('',*,*,#549,.T.);
#318=ORIENTED_EDGE('',*,*,#550,.F.);
#319=ORIENTED_EDGE('',*,*,#551,.T.);
#320=ORIENTED_EDGE('',*,*,#552,.T.);
#321=ORIENTED_EDGE('',*,*,#553,.T.);
#322=ORIENTED_EDGE('',*,*,#554,.F.);
#323=ORIENTED_EDGE('',*,*,#555,.T.);
#324=ORIENTED_EDGE('',*,*,#554,.T.);
#325=ORIENTED_EDGE('',*,*,#556,.T.);
#326=ORIENTED_EDGE('',*,*,#544,.T.);
#327=ORIENTED_EDGE('',*,*,#557,.F.);
#328=ORIENTED_EDGE('',*,*,#558,.T.);
#329=ORIENTED_EDGE('',*,*,#559,.F.);
#330=ORIENTED_EDGE('',*,*,#560,.F.);
#331=ORIENTED_EDGE('',*,*,#561,.T.);
#332=ORIENTED_EDGE('',*,*,#547,.T.);
#333=ORIENTED_EDGE('',*,*,#562,.F.);
#334=ORIENTED_EDGE('',*,*,#563,.T.);
#335=ORIENTED_EDGE('',*,*,#557,.T.);
#336=ORIENTED_EDGE('',*,*,#543,.T.);
#337=ORIENTED_EDGE('',*,*,#564,.F.);
#338=ORIENTED_EDGE('',*,*,#555,.F.);
#339=ORIENTED_EDGE('',*,*,#558,.F.);
#340=ORIENTED_EDGE('',*,*,#563,.F.);
#341=ORIENTED_EDGE('',*,*,#546,.T.);
#342=ORIENTED_EDGE('',*,*,#565,.T.);
#343=ORIENTED_EDGE('',*,*,#552,.F.);
#344=ORIENTED_EDGE('',*,*,#564,.T.);
#345=ORIENTED_EDGE('',*,*,#562,.T.);
#346=ORIENTED_EDGE('',*,*,#565,.F.);
#347=ORIENTED_EDGE('',*,*,#545,.F.);
#348=ORIENTED_EDGE('',*,*,#556,.F.);
#349=ORIENTED_EDGE('',*,*,#553,.F.);
#350=ORIENTED_EDGE('',*,*,#533,.T.);
#351=ORIENTED_EDGE('',*,*,#566,.T.);
#352=ORIENTED_EDGE('',*,*,#567,.T.);
#353=ORIENTED_EDGE('',*,*,#568,.T.);
#354=ORIENTED_EDGE('',*,*,#541,.T.);
#355=ORIENTED_EDGE('',*,*,#569,.T.);
#356=ORIENTED_EDGE('',*,*,#570,.T.);
#357=ORIENTED_EDGE('',*,*,#571,.T.);
#358=ORIENTED_EDGE('',*,*,#535,.T.);
#359=ORIENTED_EDGE('',*,*,#572,.T.);
#360=ORIENTED_EDGE('',*,*,#573,.T.);
#361=ORIENTED_EDGE('',*,*,#574,.T.);
#362=ORIENTED_EDGE('',*,*,#575,.T.);
#363=ORIENTED_EDGE('',*,*,#576,.T.);
#364=ORIENTED_EDGE('',*,*,#537,.T.);
#365=ORIENTED_EDGE('',*,*,#577,.T.);
#366=ORIENTED_EDGE('',*,*,#578,.T.);
#367=ORIENTED_EDGE('',*,*,#579,.T.);
#368=ORIENTED_EDGE('',*,*,#580,.T.);
#369=ORIENTED_EDGE('',*,*,#581,.T.);
#370=ORIENTED_EDGE('',*,*,#582,.T.);
#371=ORIENTED_EDGE('',*,*,#583,.T.);
#372=ORIENTED_EDGE('',*,*,#584,.T.);
#373=ORIENTED_EDGE('',*,*,#585,.T.);
#374=ORIENTED_EDGE('',*,*,#586,.F.);
#375=ORIENTED_EDGE('',*,*,#587,.T.);
#376=ORIENTED_EDGE('',*,*,#575,.F.);
#377=ORIENTED_EDGE('',*,*,#588,.T.);
#378=ORIENTED_EDGE('',*,*,#573,.F.);
#379=ORIENTED_EDGE('',*,*,#589,.T.);
#380=ORIENTED_EDGE('',*,*,#570,.F.);
#381=ORIENTED_EDGE('',*,*,#590,.T.);
#382=ORIENTED_EDGE('',*,*,#539,.T.);
#383=ORIENTED_EDGE('',*,*,#591,.T.);
#384=ORIENTED_EDGE('',*,*,#586,.T.);
#385=ORIENTED_EDGE('',*,*,#592,.T.);
#386=ORIENTED_EDGE('',*,*,#538,.F.);
#387=ORIENTED_EDGE('',*,*,#576,.F.);
#388=ORIENTED_EDGE('',*,*,#587,.F.);
#389=ORIENTED_EDGE('',*,*,#591,.F.);
#390=ORIENTED_EDGE('',*,*,#534,.F.);
#391=ORIENTED_EDGE('',*,*,#571,.F.);
#392=ORIENTED_EDGE('',*,*,#589,.F.);
#393=ORIENTED_EDGE('',*,*,#572,.F.);
#394=ORIENTED_EDGE('',*,*,#540,.F.);
#395=ORIENTED_EDGE('',*,*,#592,.F.);
#396=ORIENTED_EDGE('',*,*,#590,.F.);
#397=ORIENTED_EDGE('',*,*,#569,.F.);
#398=ORIENTED_EDGE('',*,*,#536,.F.);
#399=ORIENTED_EDGE('',*,*,#574,.F.);
#400=ORIENTED_EDGE('',*,*,#588,.F.);
#401=ORIENTED_EDGE('',*,*,#577,.F.);
#402=ORIENTED_EDGE('',*,*,#582,.F.);
#403=ORIENTED_EDGE('',*,*,#593,.T.);
#404=ORIENTED_EDGE('',*,*,#594,.T.);
#405=ORIENTED_EDGE('',*,*,#595,.T.);
#406=ORIENTED_EDGE('',*,*,#584,.F.);
#407=ORIENTED_EDGE('',*,*,#596,.T.);
#408=ORIENTED_EDGE('',*,*,#597,.T.);
#409=ORIENTED_EDGE('',*,*,#598,.T.);
#410=ORIENTED_EDGE('',*,*,#599,.T.);
#411=ORIENTED_EDGE('',*,*,#600,.T.);
#412=ORIENTED_EDGE('',*,*,#578,.F.);
#413=ORIENTED_EDGE('',*,*,#601,.T.);
#414=ORIENTED_EDGE('',*,*,#602,.T.);
#415=ORIENTED_EDGE('',*,*,#603,.T.);
#416=ORIENTED_EDGE('',*,*,#580,.F.);
#417=ORIENTED_EDGE('',*,*,#604,.T.);
#418=ORIENTED_EDGE('',*,*,#594,.F.);
#419=ORIENTED_EDGE('',*,*,#605,.T.);
#420=ORIENTED_EDGE('',*,*,#602,.F.);
#421=ORIENTED_EDGE('',*,*,#606,.T.);
#422=ORIENTED_EDGE('',*,*,#599,.F.);
#423=ORIENTED_EDGE('',*,*,#607,.T.);
#424=ORIENTED_EDGE('',*,*,#597,.F.);
#425=ORIENTED_EDGE('',*,*,#608,.T.);
#426=ORIENTED_EDGE('',*,*,#581,.F.);
#427=ORIENTED_EDGE('',*,*,#603,.F.);
#428=ORIENTED_EDGE('',*,*,#605,.F.);
#429=ORIENTED_EDGE('',*,*,#593,.F.);
#430=ORIENTED_EDGE('',*,*,#579,.F.);
#431=ORIENTED_EDGE('',*,*,#600,.F.);
#432=ORIENTED_EDGE('',*,*,#606,.F.);
#433=ORIENTED_EDGE('',*,*,#604,.F.);
#434=ORIENTED_EDGE('',*,*,#583,.F.);
#435=ORIENTED_EDGE('',*,*,#595,.F.);
#436=ORIENTED_EDGE('',*,*,#608,.F.);
#437=ORIENTED_EDGE('',*,*,#596,.F.);
#438=ORIENTED_EDGE('',*,*,#585,.F.);
#439=ORIENTED_EDGE('',*,*,#598,.F.);
#440=ORIENTED_EDGE('',*,*,#607,.F.);
#441=ORIENTED_EDGE('',*,*,#601,.F.);
#442=ORIENTED_EDGE('',*,*,#609,.T.);
#443=ORIENTED_EDGE('',*,*,#610,.T.);
#444=ORIENTED_EDGE('',*,*,#550,.T.);
#445=ORIENTED_EDGE('',*,*,#611,.T.);
#446=ORIENTED_EDGE('',*,*,#542,.T.);
#447=ORIENTED_EDGE('',*,*,#612,.T.);
#448=ORIENTED_EDGE('',*,*,#613,.T.);
#449=ORIENTED_EDGE('',*,*,#559,.T.);
#450=ORIENTED_EDGE('',*,*,#613,.F.);
#451=ORIENTED_EDGE('',*,*,#614,.T.);
#452=ORIENTED_EDGE('',*,*,#609,.F.);
#453=ORIENTED_EDGE('',*,*,#615,.T.);
#454=ORIENTED_EDGE('',*,*,#616,.F.);
#455=ORIENTED_EDGE('',*,*,#560,.T.);
#456=ORIENTED_EDGE('',*,*,#616,.T.);
#457=ORIENTED_EDGE('',*,*,#617,.T.);
#458=ORIENTED_EDGE('',*,*,#548,.T.);
#459=ORIENTED_EDGE('',*,*,#561,.F.);
#460=ORIENTED_EDGE('',*,*,#551,.F.);
#461=ORIENTED_EDGE('',*,*,#610,.F.);
#462=ORIENTED_EDGE('',*,*,#614,.F.);
#463=ORIENTED_EDGE('',*,*,#612,.F.);
#464=ORIENTED_EDGE('',*,*,#549,.F.);
#465=ORIENTED_EDGE('',*,*,#617,.F.);
#466=ORIENTED_EDGE('',*,*,#615,.F.);
#467=ORIENTED_EDGE('',*,*,#611,.F.);
#468=ORIENTED_EDGE('',*,*,#618,.F.);
#469=ORIENTED_EDGE('',*,*,#567,.F.);
#470=ORIENTED_EDGE('',*,*,#532,.T.);
#471=ORIENTED_EDGE('',*,*,#568,.F.);
#472=ORIENTED_EDGE('',*,*,#618,.T.);
#473=ORIENTED_EDGE('',*,*,#566,.F.);
#474=VERTEX_POINT('',#876);
#475=VERTEX_POINT('',#877);
#476=VERTEX_POINT('',#879);
#477=VERTEX_POINT('',#881);
#478=VERTEX_POINT('',#883);
#479=VERTEX_POINT('',#885);
#480=VERTEX_POINT('',#887);
#481=VERTEX_POINT('',#889);
#482=VERTEX_POINT('',#891);
#483=VERTEX_POINT('',#893);
#484=VERTEX_POINT('',#896);
#485=VERTEX_POINT('',#897);
#486=VERTEX_POINT('',#899);
#487=VERTEX_POINT('',#901);
#488=VERTEX_POINT('',#903);
#489=VERTEX_POINT('',#905);
#490=VERTEX_POINT('',#907);
#491=VERTEX_POINT('',#909);
#492=VERTEX_POINT('',#911);
#493=VERTEX_POINT('',#913);
#494=VERTEX_POINT('',#917);
#495=VERTEX_POINT('',#918);
#496=VERTEX_POINT('',#920);
#497=VERTEX_POINT('',#922);
#498=VERTEX_POINT('',#927);
#499=VERTEX_POINT('',#931);
#500=VERTEX_POINT('',#933);
#501=VERTEX_POINT('',#936);
#502=VERTEX_POINT('',#945);
#503=VERTEX_POINT('',#947);
#504=VERTEX_POINT('',#950);
#505=VERTEX_POINT('',#952);
#506=VERTEX_POINT('',#956);
#507=VERTEX_POINT('',#958);
#508=VERTEX_POINT('',#962);
#509=VERTEX_POINT('',#963);
#510=VERTEX_POINT('',#968);
#511=VERTEX_POINT('',#969);
#512=VERTEX_POINT('',#971);
#513=VERTEX_POINT('',#973);
#514=VERTEX_POINT('',#975);
#515=VERTEX_POINT('',#977);
#516=VERTEX_POINT('',#979);
#517=VERTEX_POINT('',#981);
#518=VERTEX_POINT('',#984);
#519=VERTEX_POINT('',#985);
#520=VERTEX_POINT('',#999);
#521=VERTEX_POINT('',#1001);
#522=VERTEX_POINT('',#1005);
#523=VERTEX_POINT('',#1007);
#524=VERTEX_POINT('',#1011);
#525=VERTEX_POINT('',#1012);
#526=VERTEX_POINT('',#1017);
#527=VERTEX_POINT('',#1018);
#528=VERTEX_POINT('',#1032);
#529=VERTEX_POINT('',#1033);
#530=VERTEX_POINT('',#1038);
#531=VERTEX_POINT('',#1043);
#532=EDGE_CURVE('',#474,#475,#619,.T.);
#533=EDGE_CURVE('',#476,#474,#170,.T.);
#534=EDGE_CURVE('',#476,#477,#620,.T.);
#535=EDGE_CURVE('',#478,#477,#171,.T.);
#536=EDGE_CURVE('',#478,#479,#621,.T.);
#537=EDGE_CURVE('',#480,#479,#172,.T.);
#538=EDGE_CURVE('',#480,#481,#622,.T.);
#539=EDGE_CURVE('',#482,#481,#173,.T.);
#540=EDGE_CURVE('',#482,#483,#623,.T.);
#541=EDGE_CURVE('',#475,#483,#174,.T.);
#542=EDGE_CURVE('',#484,#485,#175,.T.);
#543=EDGE_CURVE('',#486,#484,#176,.T.);
#544=EDGE_CURVE('',#487,#486,#177,.T.);
#545=EDGE_CURVE('',#487,#488,#178,.T.);
#546=EDGE_CURVE('',#489,#488,#179,.T.);
#547=EDGE_CURVE('',#490,#489,#180,.T.);
#548=EDGE_CURVE('',#491,#490,#181,.T.);
#549=EDGE_CURVE('',#491,#492,#624,.T.);
#550=EDGE_CURVE('',#493,#492,#182,.T.);
#551=EDGE_CURVE('',#493,#485,#625,.T.);
#552=EDGE_CURVE('',#494,#495,#183,.T.);
#553=EDGE_CURVE('',#495,#496,#184,.T.);
#554=EDGE_CURVE('',#497,#496,#185,.T.);
#555=EDGE_CURVE('',#497,#494,#186,.T.);
#556=EDGE_CURVE('',#496,#487,#187,.T.);
#557=EDGE_CURVE('',#498,#486,#188,.T.);
#558=EDGE_CURVE('',#498,#497,#189,.T.);
#559=EDGE_CURVE('',#499,#484,#190,.T.);
#560=EDGE_CURVE('',#500,#499,#191,.T.);
#561=EDGE_CURVE('',#500,#490,#192,.T.);
#562=EDGE_CURVE('',#501,#489,#193,.T.);
#563=EDGE_CURVE('',#501,#498,#194,.T.);
#564=EDGE_CURVE('',#494,#501,#195,.T.);
#565=EDGE_CURVE('',#488,#495,#196,.T.);
#566=EDGE_CURVE('',#474,#502,#197,.T.);
#567=EDGE_CURVE('',#502,#503,#198,.T.);
#568=EDGE_CURVE('',#503,#475,#199,.T.);
#569=EDGE_CURVE('',#483,#504,#200,.T.);
#570=EDGE_CURVE('',#504,#505,#201,.T.);
#571=EDGE_CURVE('',#505,#476,#202,.T.);
#572=EDGE_CURVE('',#477,#506,#203,.T.);
#573=EDGE_CURVE('',#506,#507,#204,.T.);
#574=EDGE_CURVE('',#507,#478,#205,.T.);
#575=EDGE_CURVE('',#508,#509,#206,.T.);
#576=EDGE_CURVE('',#509,#480,#207,.T.);
#577=EDGE_CURVE('',#479,#508,#208,.T.);
#578=EDGE_CURVE('',#510,#511,#209,.T.);
#579=EDGE_CURVE('',#511,#512,#626,.T.);
#580=EDGE_CURVE('',#512,#513,#210,.T.);
#581=EDGE_CURVE('',#513,#514,#627,.T.);
#582=EDGE_CURVE('',#514,#515,#211,.T.);
#583=EDGE_CURVE('',#515,#516,#628,.T.);
#584=EDGE_CURVE('',#516,#517,#212,.T.);
#585=EDGE_CURVE('',#517,#510,#629,.T.);
#586=EDGE_CURVE('',#518,#519,#213,.T.);
#587=EDGE_CURVE('',#518,#509,#630,.T.);
#588=EDGE_CURVE('',#508,#507,#631,.T.);
#589=EDGE_CURVE('',#506,#505,#632,.T.);
#590=EDGE_CURVE('',#504,#519,#633,.T.);
#591=EDGE_CURVE('',#481,#518,#214,.T.);
#592=EDGE_CURVE('',#519,#482,#215,.T.);
#593=EDGE_CURVE('',#514,#520,#216,.T.);
#594=EDGE_CURVE('',#520,#521,#217,.T.);
#595=EDGE_CURVE('',#521,#515,#218,.T.);
#596=EDGE_CURVE('',#516,#522,#219,.T.);
#597=EDGE_CURVE('',#522,#523,#220,.T.);
#598=EDGE_CURVE('',#523,#517,#221,.T.);
#599=EDGE_CURVE('',#524,#525,#222,.T.);
#600=EDGE_CURVE('',#525,#511,#223,.T.);
#601=EDGE_CURVE('',#510,#524,#224,.T.);
#602=EDGE_CURVE('',#526,#527,#225,.T.);
#603=EDGE_CURVE('',#527,#513,#226,.T.);
#604=EDGE_CURVE('',#512,#526,#227,.T.);
#605=EDGE_CURVE('',#520,#527,#634,.T.);
#606=EDGE_CURVE('',#526,#525,#635,.T.);
#607=EDGE_CURVE('',#524,#523,#636,.T.);
#608=EDGE_CURVE('',#522,#521,#637,.T.);
#609=EDGE_CURVE('',#528,#529,#228,.T.);
#610=EDGE_CURVE('',#529,#493,#229,.T.);
#611=EDGE_CURVE('',#492,#528,#230,.T.);
#612=EDGE_CURVE('',#485,#530,#231,.T.);
#613=EDGE_CURVE('',#530,#499,#232,.T.);
#614=EDGE_CURVE('',#530,#529,#638,.T.);
#615=EDGE_CURVE('',#528,#531,#639,.T.);
#616=EDGE_CURVE('',#500,#531,#233,.T.);
#617=EDGE_CURVE('',#531,#491,#234,.T.);
#618=EDGE_CURVE('',#503,#502,#640,.T.);
#619=CIRCLE('',#642,14.);
#620=CIRCLE('',#643,4.3);
#621=CIRCLE('',#644,4.3);
#622=CIRCLE('',#645,4.3);
#623=CIRCLE('',#646,4.3);
#624=CIRCLE('',#647,6.2);
#625=CIRCLE('',#648,6.2);
#626=CIRCLE('',#659,9.);
#627=CIRCLE('',#660,9.);
#628=CIRCLE('',#661,9.);
#629=CIRCLE('',#662,9.);
#630=CIRCLE('',#663,4.3);
#631=CIRCLE('',#664,4.3);
#632=CIRCLE('',#665,4.3);
#633=CIRCLE('',#666,4.3);
#634=CIRCLE('',#677,9.);
#635=CIRCLE('',#678,9.);
#636=CIRCLE('',#679,9.);
#637=CIRCLE('',#680,9.);
#638=CIRCLE('',#688,6.2);
#639=CIRCLE('',#689,6.2);
#640=CIRCLE('',#694,14.);
#641=AXIS2_PLACEMENT_3D('',#874,#697,#698);
#642=AXIS2_PLACEMENT_3D('',#875,#699,#700);
#643=AXIS2_PLACEMENT_3D('',#880,#702,#703);
#644=AXIS2_PLACEMENT_3D('',#884,#705,#706);
#645=AXIS2_PLACEMENT_3D('',#888,#708,#709);
#646=AXIS2_PLACEMENT_3D('',#892,#711,#712);
#647=AXIS2_PLACEMENT_3D('',#910,#721,#722);
#648=AXIS2_PLACEMENT_3D('',#914,#724,#725);
#649=AXIS2_PLACEMENT_3D('',#915,#726,#727);
#650=AXIS2_PLACEMENT_3D('',#924,#732,#733);
#651=AXIS2_PLACEMENT_3D('',#929,#737,#738);
#652=AXIS2_PLACEMENT_3D('',#938,#744,#745);
#653=AXIS2_PLACEMENT_3D('',#940,#747,#748);
#654=AXIS2_PLACEMENT_3D('',#942,#750,#751);
#655=AXIS2_PLACEMENT_3D('',#943,#752,#753);
#656=AXIS2_PLACEMENT_3D('',#954,#760,#761);
#657=AXIS2_PLACEMENT_3D('',#960,#765,#766);
#658=AXIS2_PLACEMENT_3D('',#966,#770,#771);
#659=AXIS2_PLACEMENT_3D('',#970,#773,#774);
#660=AXIS2_PLACEMENT_3D('',#974,#776,#777);
#661=AXIS2_PLACEMENT_3D('',#978,#779,#780);
#662=AXIS2_PLACEMENT_3D('',#982,#782,#783);
#663=AXIS2_PLACEMENT_3D('',#986,#785,#786);
#664=AXIS2_PLACEMENT_3D('',#987,#787,#788);
#665=AXIS2_PLACEMENT_3D('',#988,#789,#790);
#666=AXIS2_PLACEMENT_3D('',#989,#791,#792);
#667=AXIS2_PLACEMENT_3D('',#990,#793,#794);
#668=AXIS2_PLACEMENT_3D('',#993,#797,#798);
#669=AXIS2_PLACEMENT_3D('',#994,#799,#800);
#670=AXIS2_PLACEMENT_3D('',#995,#801,#802);
#671=AXIS2_PLACEMENT_3D('',#996,#803,#804);
#672=AXIS2_PLACEMENT_3D('',#997,#805,#806);
#673=AXIS2_PLACEMENT_3D('',#1003,#810,#811);
#674=AXIS2_PLACEMENT_3D('',#1009,#815,#816);
#675=AXIS2_PLACEMENT_3D('',#1015,#820,#821);
#676=AXIS2_PLACEMENT_3D('',#1021,#825,#826);
#677=AXIS2_PLACEMENT_3D('',#1022,#827,#828);
#678=AXIS2_PLACEMENT_3D('',#1023,#829,#830);
#679=AXIS2_PLACEMENT_3D('',#1024,#831,#832);
#680=AXIS2_PLACEMENT_3D('',#1025,#833,#834);
#681=AXIS2_PLACEMENT_3D('',#1026,#835,#836);
#682=AXIS2_PLACEMENT_3D('',#1027,#837,#838);
#683=AXIS2_PLACEMENT_3D('',#1028,#839,#840);
#684=AXIS2_PLACEMENT_3D('',#1029,#841,#842);
#685=AXIS2_PLACEMENT_3D('',#1030,#843,#844);
#686=AXIS2_PLACEMENT_3D('',#1036,#848,#849);
#687=AXIS2_PLACEMENT_3D('',#1040,#852,#853);
#688=AXIS2_PLACEMENT_3D('',#1041,#854,#855);
#689=AXIS2_PLACEMENT_3D('',#1042,#856,#857);
#690=AXIS2_PLACEMENT_3D('',#1045,#859,#860);
#691=AXIS2_PLACEMENT_3D('',#1047,#862,#863);
#692=AXIS2_PLACEMENT_3D('',#1048,#864,#865);
#693=AXIS2_PLACEMENT_3D('',#1049,#866,#867);
#694=AXIS2_PLACEMENT_3D('',#1050,#868,#869);
#695=AXIS2_PLACEMENT_3D('',#1051,#870,#871);
#696=AXIS2_PLACEMENT_3D('',#1052,#872,#873);
#697=DIRECTION('',(0.,0.,1.));
#698=DIRECTION('',(1.,0.,0.));
#699=DIRECTION('',(0.,0.,1.));
#700=DIRECTION('',(1.,0.,0.));
#701=DIRECTION('',(1.,0.,0.));
#702=DIRECTION('',(0.,0.,-1.));
#703=DIRECTION('',(1.,0.,0.));
#704=DIRECTION('',(0.,-1.,0.));
#705=DIRECTION('',(0.,0.,-1.));
#706=DIRECTION('',(1.,0.,0.));
#707=DIRECTION('',(-1.,0.,0.));
#708=DIRECTION('',(0.,0.,-1.));
#709=DIRECTION('',(1.,0.,0.));
#710=DIRECTION('',(0.,1.,0.));
#711=DIRECTION('',(0.,0.,-1.));
#712=DIRECTION('',(1.,0.,0.));
#713=DIRECTION('',(1.,0.,0.));
#714=DIRECTION('',(0.,-1.,0.));
#715=DIRECTION('',(1.,0.,0.));
#716=DIRECTION('',(0.,1.,0.));
#717=DIRECTION('',(1.,0.,0.));
#718=DIRECTION('',(0.,-1.,0.));
#719=DIRECTION('',(1.,0.,0.));
#720=DIRECTION('',(0.,1.,0.));
#721=DIRECTION('',(0.,0.,-1.));
#722=DIRECTION('',(0.999999999999999,0.,0.));
#723=DIRECTION('',(1.,0.,0.));
#724=DIRECTION('',(0.,0.,-1.));
#725=DIRECTION('',(1.,0.,0.));
#726=DIRECTION('',(0.,0.,1.));
#727=DIRECTION('',(1.,0.,0.));
#728=DIRECTION('',(0.,0.,1.));
#729=DIRECTION('',(-1.,0.,0.));
#730=DIRECTION('',(0.,0.,1.));
#731=DIRECTION('',(1.,0.,0.));
#732=DIRECTION('',(0.,-1.,0.));
#733=DIRECTION('',(0.,0.,-1.));
#734=DIRECTION('',(0.,0.707106781186548,0.707106781186547));
#735=DIRECTION('',(0.,0.,1.));
#736=DIRECTION('',(0.,-1.,0.));
#737=DIRECTION('',(-1.,0.,0.));
#738=DIRECTION('',(0.,0.,1.));
#739=DIRECTION('',(0.,0.,1.));
#740=DIRECTION('',(-1.,0.,0.));
#741=DIRECTION('',(0.,0.,1.));
#742=DIRECTION('',(0.,0.,1.));
#743=DIRECTION('',(-1.,0.,0.));
#744=DIRECTION('',(0.,1.,0.));
#745=DIRECTION('',(0.,0.,1.));
#746=DIRECTION('',(0.,1.,0.));
#747=DIRECTION('',(0.,0.,-1.));
#748=DIRECTION('',(-1.,0.,0.));
#749=DIRECTION('',(0.,-0.707106781186548,-0.707106781186547));
#750=DIRECTION('',(1.,0.,0.));
#751=DIRECTION('',(0.,0.,-1.));
#752=DIRECTION('',(0.,0.707106781186547,-0.707106781186548));
#753=DIRECTION('',(-1.,0.,0.));
#754=DIRECTION('',(0.,0.,-1.));
#755=DIRECTION('',(1.,0.,0.));
#756=DIRECTION('',(0.,0.,1.));
#757=DIRECTION('',(0.,0.,-1.));
#758=DIRECTION('',(-1.,0.,0.));
#759=DIRECTION('',(0.,0.,1.));
#760=DIRECTION('',(0.,-1.,0.));
#761=DIRECTION('',(0.,0.,-1.));
#762=DIRECTION('',(0.,0.,-1.));
#763=DIRECTION('',(0.,1.,0.));
#764=DIRECTION('',(0.,0.,1.));
#765=DIRECTION('',(-1.,0.,0.));
#766=DIRECTION('',(0.,0.,1.));
#767=DIRECTION('',(1.,0.,0.));
#768=DIRECTION('',(0.,0.,1.));
#769=DIRECTION('',(0.,0.,-1.));
#770=DIRECTION('',(0.,1.,0.));
#771=DIRECTION('',(0.,0.,1.));
#772=DIRECTION('',(1.,0.,0.));
#773=DIRECTION('',(0.,0.,-1.));
#774=DIRECTION('',(-1.,0.,0.));
#775=DIRECTION('',(0.,-1.,0.));
#776=DIRECTION('',(0.,0.,-1.));
#777=DIRECTION('',(-1.,0.,0.));
#778=DIRECTION('',(-1.,0.,0.));
#779=DIRECTION('',(0.,0.,-1.));
#780=DIRECTION('',(-1.,0.,0.));
#781=DIRECTION('',(0.,1.,0.));
#782=DIRECTION('',(0.,0.,-1.));
#783=DIRECTION('',(-1.,0.,0.));
#784=DIRECTION('',(0.,-1.,0.));
#785=DIRECTION('',(0.,0.,1.));
#786=DIRECTION('',(-1.,0.,0.));
#787=DIRECTION('',(0.,0.,1.));
#788=DIRECTION('',(-1.,0.,0.));
#789=DIRECTION('',(0.,0.,1.));
#790=DIRECTION('',(-1.,0.,0.));
#791=DIRECTION('',(0.,0.,1.));
#792=DIRECTION('',(-1.,0.,0.));
#793=DIRECTION('',(0.,0.,-1.));
#794=DIRECTION('',(-1.,0.,0.));
#795=DIRECTION('',(0.,0.,-1.));
#796=DIRECTION('',(0.,0.,1.));
#797=DIRECTION('',(1.,0.,0.));
#798=DIRECTION('',(0.,0.,-1.));
#799=DIRECTION('',(0.,0.,1.));
#800=DIRECTION('',(1.,0.,0.));
#801=DIRECTION('',(0.,0.,1.));
#802=DIRECTION('',(1.,0.,0.));
#803=DIRECTION('',(0.,0.,1.));
#804=DIRECTION('',(1.,0.,0.));
#805=DIRECTION('',(0.,0.,1.));
#806=DIRECTION('',(1.,0.,0.));
#807=DIRECTION('',(0.,0.,-1.));
#808=DIRECTION('',(-1.,0.,0.));
#809=DIRECTION('',(0.,0.,1.));
#810=DIRECTION('',(0.,-1.,0.));
#811=DIRECTION('',(0.,0.,-1.));
#812=DIRECTION('',(0.,0.,-1.));
#813=DIRECTION('',(0.,1.,0.));
#814=DIRECTION('',(0.,0.,1.));
#815=DIRECTION('',(-1.,0.,0.));
#816=DIRECTION('',(0.,0.,1.));
#817=DIRECTION('',(1.,0.,0.));
#818=DIRECTION('',(0.,0.,1.));
#819=DIRECTION('',(0.,0.,-1.));
#820=DIRECTION('',(0.,1.,0.));
#821=DIRECTION('',(0.,0.,1.));
#822=DIRECTION('',(0.,-1.,0.));
#823=DIRECTION('',(0.,0.,1.));
#824=DIRECTION('',(0.,0.,-1.));
#825=DIRECTION('',(1.,0.,0.));
#826=DIRECTION('',(0.,0.,-1.));
#827=DIRECTION('',(0.,0.,1.));
#828=DIRECTION('',(-1.,0.,0.));
#829=DIRECTION('',(0.,0.,1.));
#830=DIRECTION('',(-1.,0.,0.));
#831=DIRECTION('',(0.,0.,1.));
#832=DIRECTION('',(-1.,0.,0.));
#833=DIRECTION('',(0.,0.,1.));
#834=DIRECTION('',(-1.,0.,0.));
#835=DIRECTION('',(0.,0.,-1.));
#836=DIRECTION('',(-1.,0.,0.));
#837=DIRECTION('',(0.,0.,1.));
#838=DIRECTION('',(1.,0.,0.));
#839=DIRECTION('',(0.,0.,1.));
#840=DIRECTION('',(1.,0.,0.));
#841=DIRECTION('',(0.,0.,1.));
#842=DIRECTION('',(1.,0.,0.));
#843=DIRECTION('',(0.,0.,1.));
#844=DIRECTION('',(1.,0.,0.));
#845=DIRECTION('',(-1.,0.,0.));
#846=DIRECTION('',(0.,0.,1.));
#847=DIRECTION('',(0.,0.,-1.));
#848=DIRECTION('',(0.,-1.,0.));
#849=DIRECTION('',(0.,0.,-1.));
#850=DIRECTION('',(0.,0.,-1.));
#851=DIRECTION('',(0.,1.,0.));
#852=DIRECTION('',(-1.,0.,0.));
#853=DIRECTION('',(0.,0.,1.));
#854=DIRECTION('',(0.,0.,1.));
#855=DIRECTION('',(-1.,0.,0.));
#856=DIRECTION('',(0.,0.,1.));
#857=DIRECTION('',(-0.999999999999999,0.,0.));
#858=DIRECTION('',(0.,-1.,0.));
#859=DIRECTION('',(0.,0.,-1.));
#860=DIRECTION('',(-1.,0.,0.));
#861=DIRECTION('',(0.,0.,1.));
#862=DIRECTION('',(1.,0.,0.));
#863=DIRECTION('',(0.,0.,-1.));
#864=DIRECTION('',(0.,0.,1.));
#865=DIRECTION('',(1.,0.,0.));
#866=DIRECTION('',(0.,0.,1.));
#867=DIRECTION('',(0.999999999999999,0.,0.));
#868=DIRECTION('',(0.,0.,-1.));
#869=DIRECTION('',(1.,0.,0.));
#870=DIRECTION('',(0.,0.,-1.));
#871=DIRECTION('',(-1.,0.,0.));
#872=DIRECTION('',(0.,0.,-1.));
#873=DIRECTION('',(1.,0.,0.));
#874=CARTESIAN_POINT('',(0.,0.,0.));
#875=CARTESIAN_POINT('',(107.9,199.9,59.));
#876=CARTESIAN_POINT('',(94.3707723797698,203.5,59.));
#877=CARTESIAN_POINT('',(121.42922762023,203.5,59.));
#878=CARTESIAN_POINT('',(107.9,203.5,59.));
#879=CARTESIAN_POINT('',(77.,203.5,59.));
#880=CARTESIAN_POINT('',(77.,207.8,59.));
#881=CARTESIAN_POINT('',(72.7,207.8,59.));
#882=CARTESIAN_POINT('',(72.7,199.95,59.));
#883=CARTESIAN_POINT('',(72.7,348.,59.));
#884=CARTESIAN_POINT('',(77.,348.,59.));
#885=CARTESIAN_POINT('',(77.,352.3,59.));
#886=CARTESIAN_POINT('',(107.9,352.3,59.));
#887=CARTESIAN_POINT('',(149.9,352.3,59.));
#888=CARTESIAN_POINT('',(149.9,348.,59.));
#889=CARTESIAN_POINT('',(154.2,348.,59.));
#890=CARTESIAN_POINT('',(154.2,199.95,59.));
#891=CARTESIAN_POINT('',(154.2,207.8,59.));
#892=CARTESIAN_POINT('',(149.9,207.8,59.));
#893=CARTESIAN_POINT('',(149.9,203.5,59.));
#894=CARTESIAN_POINT('',(107.9,203.5,59.));
#895=CARTESIAN_POINT('',(19.2,199.95,59.));
#896=CARTESIAN_POINT('',(19.2,399.9,59.));
#897=CARTESIAN_POINT('',(19.2,306.8,59.));
#898=CARTESIAN_POINT('',(107.9,399.9,59.));
#899=CARTESIAN_POINT('',(0.,399.9,59.));
#900=CARTESIAN_POINT('',(0.,199.95,59.));
#901=CARTESIAN_POINT('',(0.,8.50000000000001,59.));
#902=CARTESIAN_POINT('',(107.9,8.50000000000001,59.));
#903=CARTESIAN_POINT('',(215.8,8.50000000000001,59.));
#904=CARTESIAN_POINT('',(215.8,199.95,59.));
#905=CARTESIAN_POINT('',(215.8,399.9,59.));
#906=CARTESIAN_POINT('',(107.9,399.9,59.));
#907=CARTESIAN_POINT('',(65.8,399.9,59.));
#908=CARTESIAN_POINT('',(65.8,199.95,59.));
#909=CARTESIAN_POINT('',(65.8,306.8,59.));
#910=CARTESIAN_POINT('',(59.6,306.8,59.));
#911=CARTESIAN_POINT('',(59.6,300.6,59.));
#912=CARTESIAN_POINT('',(107.9,300.6,59.));
#913=CARTESIAN_POINT('',(25.4,300.6,59.));
#914=CARTESIAN_POINT('',(25.4,306.8,59.));
#915=CARTESIAN_POINT('',(107.9,199.95,59.));
#916=CARTESIAN_POINT('',(215.8,0.,0.));
#917=CARTESIAN_POINT('',(215.8,0.,0.));
#918=CARTESIAN_POINT('',(215.8,0.,50.5));
#919=CARTESIAN_POINT('',(107.9,0.,50.5));
#920=CARTESIAN_POINT('',(0.,0.,50.5));
#921=CARTESIAN_POINT('',(0.,0.,0.));
#922=CARTESIAN_POINT('',(0.,0.,0.));
#923=CARTESIAN_POINT('',(107.9,0.,0.));
#924=CARTESIAN_POINT('',(107.9,0.,0.));
#925=CARTESIAN_POINT('',(0.,74.7250000000001,125.225));
#926=CARTESIAN_POINT('',(0.,399.9,0.));
#927=CARTESIAN_POINT('',(0.,399.9,0.));
#928=CARTESIAN_POINT('',(0.,199.95,0.));
#929=CARTESIAN_POINT('',(0.,199.95,0.));
#930=CARTESIAN_POINT('',(19.2,399.9,33.9));
#931=CARTESIAN_POINT('',(19.2,399.9,33.9));
#932=CARTESIAN_POINT('',(42.5,399.9,33.9));
#933=CARTESIAN_POINT('',(65.8,399.9,33.9));
#934=CARTESIAN_POINT('',(65.8,399.9,33.9));
#935=CARTESIAN_POINT('',(215.8,399.9,0.));
#936=CARTESIAN_POINT('',(215.8,399.9,0.));
#937=CARTESIAN_POINT('',(107.9,399.9,0.));
#938=CARTESIAN_POINT('',(107.9,399.9,0.));
#939=CARTESIAN_POINT('',(215.8,199.95,0.));
#940=CARTESIAN_POINT('',(107.9,199.95,0.));
#941=CARTESIAN_POINT('',(215.8,74.7250000000001,125.225));
#942=CARTESIAN_POINT('',(215.8,199.95,0.));
#943=CARTESIAN_POINT('',(107.9,0.,50.5));
#944=CARTESIAN_POINT('',(94.3707723797698,203.5,59.05));
#945=CARTESIAN_POINT('',(94.3707723797698,203.5,45.2));
#946=CARTESIAN_POINT('',(113.45,203.5,45.2));
#947=CARTESIAN_POINT('',(121.42922762023,203.5,45.2));
#948=CARTESIAN_POINT('',(121.42922762023,203.5,59.05));
#949=CARTESIAN_POINT('',(149.9,203.5,33.9));
#950=CARTESIAN_POINT('',(149.9,203.5,33.9));
#951=CARTESIAN_POINT('',(113.45,203.5,33.9));
#952=CARTESIAN_POINT('',(77.,203.5,33.9));
#953=CARTESIAN_POINT('',(77.,203.5,59.));
#954=CARTESIAN_POINT('',(113.45,203.5,33.9));
#955=CARTESIAN_POINT('',(72.7,207.8,33.9));
#956=CARTESIAN_POINT('',(72.7,207.8,33.9));
#957=CARTESIAN_POINT('',(72.7,277.9,33.9));
#958=CARTESIAN_POINT('',(72.7,348.,33.9));
#959=CARTESIAN_POINT('',(72.7,348.,59.));
#960=CARTESIAN_POINT('',(72.7,277.9,33.9));
#961=CARTESIAN_POINT('',(113.45,352.3,33.9));
#962=CARTESIAN_POINT('',(77.,352.3,33.9));
#963=CARTESIAN_POINT('',(149.9,352.3,33.9));
#964=CARTESIAN_POINT('',(149.9,352.3,59.));
#965=CARTESIAN_POINT('',(77.,352.3,33.9));
#966=CARTESIAN_POINT('',(113.45,352.3,33.9));
#967=CARTESIAN_POINT('',(113.45,317.2,33.9));
#968=CARTESIAN_POINT('',(101.4,317.2,33.9));
#969=CARTESIAN_POINT('',(114.3,317.2,33.9));
#970=CARTESIAN_POINT('',(114.3,308.2,33.9));
#971=CARTESIAN_POINT('',(123.3,308.2,33.9));
#972=CARTESIAN_POINT('',(123.3,277.9,33.9));
#973=CARTESIAN_POINT('',(123.3,245.1,33.9));
#974=CARTESIAN_POINT('',(114.3,245.1,33.9));
#975=CARTESIAN_POINT('',(114.3,236.1,33.9));
#976=CARTESIAN_POINT('',(113.45,236.1,33.9));
#977=CARTESIAN_POINT('',(101.4,236.1,33.9));
#978=CARTESIAN_POINT('',(101.4,245.1,33.9));
#979=CARTESIAN_POINT('',(92.4,245.1,33.9));
#980=CARTESIAN_POINT('',(92.4,277.9,33.9));
#981=CARTESIAN_POINT('',(92.4,308.2,33.9));
#982=CARTESIAN_POINT('',(101.4,308.2,33.9));
#983=CARTESIAN_POINT('',(154.2,277.9,33.9));
#984=CARTESIAN_POINT('',(154.2,348.,33.9));
#985=CARTESIAN_POINT('',(154.2,207.8,33.9));
#986=CARTESIAN_POINT('',(149.9,348.,33.9));
#987=CARTESIAN_POINT('',(77.,348.,33.9));
#988=CARTESIAN_POINT('',(77.,207.8,33.9));
#989=CARTESIAN_POINT('',(149.9,207.8,33.9));
#990=CARTESIAN_POINT('',(113.45,277.9,33.9));
#991=CARTESIAN_POINT('',(154.2,348.,33.9));
#992=CARTESIAN_POINT('',(154.2,207.8,59.));
#993=CARTESIAN_POINT('',(154.2,277.9,33.9));
#994=CARTESIAN_POINT('',(149.9,348.,33.9));
#995=CARTESIAN_POINT('',(77.,207.8,33.9));
#996=CARTESIAN_POINT('',(149.9,207.8,33.9));
#997=CARTESIAN_POINT('',(77.,348.,33.9));
#998=CARTESIAN_POINT('',(114.3,236.1,21.1));
#999=CARTESIAN_POINT('',(114.3,236.1,21.1));
#1000=CARTESIAN_POINT('',(107.85,236.1,21.1));
#1001=CARTESIAN_POINT('',(101.4,236.1,21.1));
#1002=CARTESIAN_POINT('',(101.4,236.1,33.9));
#1003=CARTESIAN_POINT('',(107.85,236.1,21.1));
#1004=CARTESIAN_POINT('',(92.4,245.1,21.1));
#1005=CARTESIAN_POINT('',(92.4,245.1,21.1));
#1006=CARTESIAN_POINT('',(92.4,276.65,21.1));
#1007=CARTESIAN_POINT('',(92.4,308.2,21.1));
#1008=CARTESIAN_POINT('',(92.4,308.2,33.9));
#1009=CARTESIAN_POINT('',(92.4,276.65,21.1));
#1010=CARTESIAN_POINT('',(107.85,317.2,21.1));
#1011=CARTESIAN_POINT('',(101.4,317.2,21.1));
#1012=CARTESIAN_POINT('',(114.3,317.2,21.1));
#1013=CARTESIAN_POINT('',(114.3,317.2,33.9));
#1014=CARTESIAN_POINT('',(101.4,317.2,21.1));
#1015=CARTESIAN_POINT('',(107.85,317.2,21.1));
#1016=CARTESIAN_POINT('',(123.3,276.65,21.1));
#1017=CARTESIAN_POINT('',(123.3,308.2,21.1));
#1018=CARTESIAN_POINT('',(123.3,245.1,21.1));
#1019=CARTESIAN_POINT('',(123.3,245.1,33.9));
#1020=CARTESIAN_POINT('',(123.3,308.2,21.1));
#1021=CARTESIAN_POINT('',(123.3,276.65,21.1));
#1022=CARTESIAN_POINT('',(114.3,245.1,21.1));
#1023=CARTESIAN_POINT('',(114.3,308.2,21.1));
#1024=CARTESIAN_POINT('',(101.4,308.2,21.1));
#1025=CARTESIAN_POINT('',(101.4,245.1,21.1));
#1026=CARTESIAN_POINT('',(107.85,276.65,21.1));
#1027=CARTESIAN_POINT('',(114.3,245.1,21.1));
#1028=CARTESIAN_POINT('',(114.3,308.2,21.1));
#1029=CARTESIAN_POINT('',(101.4,245.1,21.1));
#1030=CARTESIAN_POINT('',(101.4,308.2,21.1));
#1031=CARTESIAN_POINT('',(42.5,300.6,33.9));
#1032=CARTESIAN_POINT('',(59.6,300.6,33.9));
#1033=CARTESIAN_POINT('',(25.4,300.6,33.9));
#1034=CARTESIAN_POINT('',(25.4,300.6,59.));
#1035=CARTESIAN_POINT('',(59.6,300.6,33.9));
#1036=CARTESIAN_POINT('',(42.5,300.6,33.9));
#1037=CARTESIAN_POINT('',(19.2,306.8,33.9));
#1038=CARTESIAN_POINT('',(19.2,306.8,33.9));
#1039=CARTESIAN_POINT('',(19.2,350.25,33.9));
#1040=CARTESIAN_POINT('',(19.2,350.25,33.9));
#1041=CARTESIAN_POINT('',(25.4,306.8,33.9));
#1042=CARTESIAN_POINT('',(59.6,306.8,33.9));
#1043=CARTESIAN_POINT('',(65.8,306.8,33.9));
#1044=CARTESIAN_POINT('',(65.8,350.25,33.9));
#1045=CARTESIAN_POINT('',(42.5,350.25,33.9));
#1046=CARTESIAN_POINT('',(65.8,306.8,59.));
#1047=CARTESIAN_POINT('',(65.8,350.25,33.9));
#1048=CARTESIAN_POINT('',(25.4,306.8,33.9));
#1049=CARTESIAN_POINT('',(59.6,306.8,33.9));
#1050=CARTESIAN_POINT('',(107.9,199.9,45.2));
#1051=CARTESIAN_POINT('',(107.9,199.9,45.2));
#1052=CARTESIAN_POINT('',(107.9,199.9,59.05));
#1053=MECHANICAL_DESIGN_GEOMETRIC_PRESENTATION_REPRESENTATION('',(#24),
#1054);
#1054=(
GEOMETRIC_REPRESENTATION_CONTEXT(3)
GLOBAL_UNCERTAINTY_ASSIGNED_CONTEXT((#1055))
GLOBAL_UNIT_ASSIGNED_CONTEXT((#1061,#1057,#1056))
REPRESENTATION_CONTEXT('featured_part_04793','TOP_LEVEL_ASSEMBLY_PART')
);
#1055=UNCERTAINTY_MEASURE_WITH_UNIT(LENGTH_MEASURE(2.E-5),#1061,
'DISTANCE_ACCURACY_VALUE','Maximum Tolerance applied to model');
#1056=(
NAMED_UNIT(*)
SI_UNIT($,.STERADIAN.)
SOLID_ANGLE_UNIT()
);
#1057=(
CONVERSION_BASED_UNIT('DEGREE',#1059)
NAMED_UNIT(#1058)
PLANE_ANGLE_UNIT()
);
#1058=DIMENSIONAL_EXPONENTS(0.,0.,0.,0.,0.,0.,0.);
#1059=PLANE_ANGLE_MEASURE_WITH_UNIT(PLANE_ANGLE_MEASURE(0.0174532925),#1060);
#1060=(
NAMED_UNIT(*)
PLANE_ANGLE_UNIT()
SI_UNIT($,.RADIAN.)
);
#1061=(
LENGTH_UNIT()
NAMED_UNIT(*)
SI_UNIT(.MILLI.,.METRE.)
);
ENDSEC;
END-ISO-10303-21;
