ISO-10303-21;
HEADER;
/* Generated by software containing ST-Developer
 * from STEP Tools, Inc. (www.steptools.com) 
 */
/* OPTION: using custom schema-name function */

FILE_DESCRIPTION(
/* description */ (''),
/* implementation_level */ '2;1');

FILE_NAME(
/* name */ 'featured_part_10261.stp',
/* time_stamp */ '2026-07-12T01:10:43-04:00',
/* author */ (''),
/* organization */ (''),
/* preprocessor_version */ 'ST-DEVELOPER v20.1',
/* originating_system */ 'SIEMENS PLM Software NX2512.6002',
/* authorisation */ '');

FILE_SCHEMA (('AUTOMOTIVE_DESIGN { 1 0 10303 214 3 1 1 1 }'));
ENDSEC;

DATA;
#10=SHAPE_REPRESENTATION_RELATIONSHIP('None',
'relationship between featured_part_10261-None and featured_part_10261
-None',#22,#11);
#11=ADVANCED_BREP_SHAPE_REPRESENTATION('featured_part_10261-None',(#32),
#578);
#12=SHAPE_DEFINITION_REPRESENTATION(#13,#22);
#13=PRODUCT_DEFINITION_SHAPE('','',#14);
#14=PRODUCT_DEFINITION(' ','',#16,#15);
#15=PRODUCT_DEFINITION_CONTEXT('part definition',#21,'design');
#16=PRODUCT_DEFINITION_FORMATION_WITH_SPECIFIED_SOURCE(' ',' ',#18,
 .NOT_KNOWN.);
#17=PRODUCT_RELATED_PRODUCT_CATEGORY('part','',(#18));
#18=PRODUCT('featured_part_10261','featured_part_10261',' ',(#19));
#19=PRODUCT_CONTEXT(' ',#21,'mechanical');
#20=APPLICATION_PROTOCOL_DEFINITION('international standard',
'automotive_design',2010,#21);
#21=APPLICATION_CONTEXT(
'core data for automotive mechanical design processes');
#22=SHAPE_REPRESENTATION('featured_part_10261-None',(#360),#578);
#23=PRESENTATION_LAYER_ASSIGNMENT('1','Layer 1',(#32));
#24=STYLED_ITEM('',(#25),#32);
#25=PRESENTATION_STYLE_ASSIGNMENT((#26));
#26=SURFACE_STYLE_USAGE(.BOTH.,#27);
#27=SURFACE_SIDE_STYLE('',(#28));
#28=SURFACE_STYLE_FILL_AREA(#29);
#29=FILL_AREA_STYLE('',(#30));
#30=FILL_AREA_STYLE_COLOUR('',#31);
#31=COLOUR_RGB('medium steel',0.611764705882353,0.658823529411765,0.670588235294118);
#32=MANIFOLD_SOLID_BREP('',#33);
#33=CLOSED_SHELL('',(#53,#54,#55,#56,#57,#58,#59,#60,#61,#62,#63,#64,#65,
#66,#67,#68,#69,#70));
#34=CYLINDRICAL_SURFACE('',#383,12.5);
#35=CYLINDRICAL_SURFACE('',#384,12.5);
#36=CYLINDRICAL_SURFACE('',#385,11.5);
#37=CYLINDRICAL_SURFACE('',#386,25.);
#38=CYLINDRICAL_SURFACE('',#389,3.65);
#39=ELLIPSE('',#375,35.3553390593275,25.);
#40=FACE_OUTER_BOUND('',#165,.T.);
#41=FACE_OUTER_BOUND('',#166,.T.);
#42=FACE_OUTER_BOUND('',#167,.T.);
#43=FACE_OUTER_BOUND('',#171,.T.);
#44=FACE_OUTER_BOUND('',#172,.T.);
#45=FACE_OUTER_BOUND('',#173,.T.);
#46=FACE_OUTER_BOUND('',#174,.T.);
#47=FACE_OUTER_BOUND('',#175,.T.);
#48=FACE_OUTER_BOUND('',#176,.T.);
#49=FACE_OUTER_BOUND('',#177,.T.);
#50=FACE_OUTER_BOUND('',#178,.T.);
#51=FACE_OUTER_BOUND('',#179,.T.);
#52=FACE_OUTER_BOUND('',#184,.T.);
#53=ADVANCED_FACE('',(#150,#151,#152),#71,.T.);
#54=ADVANCED_FACE('',(#40),#72,.T.);
#55=ADVANCED_FACE('',(#41),#73,.T.);
#56=ADVANCED_FACE('',(#42),#74,.T.);
#57=ADVANCED_FACE('',(#153,#154,#155),#75,.T.);
#58=ADVANCED_FACE('',(#43),#76,.T.);
#59=ADVANCED_FACE('',(#44),#77,.F.);
#60=ADVANCED_FACE('',(#45),#78,.F.);
#61=ADVANCED_FACE('',(#46),#79,.F.);
#62=ADVANCED_FACE('',(#47),#80,.F.);
#63=ADVANCED_FACE('',(#48),#81,.F.);
#64=ADVANCED_FACE('',(#49),#82,.F.);
#65=ADVANCED_FACE('',(#50),#34,.F.);
#66=ADVANCED_FACE('',(#51),#35,.F.);
#67=ADVANCED_FACE('',(#156,#157),#36,.F.);
#68=ADVANCED_FACE('',(#158,#159),#37,.F.);
#69=ADVANCED_FACE('',(#52),#83,.F.);
#70=ADVANCED_FACE('',(#160,#161),#38,.F.);
#71=PLANE('',#366);
#72=PLANE('',#367);
#73=PLANE('',#368);
#74=PLANE('',#369);
#75=PLANE('',#372);
#76=PLANE('',#373);
#77=PLANE('',#374);
#78=PLANE('',#376);
#79=PLANE('',#377);
#80=PLANE('',#378);
#81=PLANE('',#381);
#82=PLANE('',#382);
#83=PLANE('',#388);
#84=LINE('',#489,#117);
#85=LINE('',#491,#118);
#86=LINE('',#493,#119);
#87=LINE('',#497,#120);
#88=LINE('',#501,#121);
#89=LINE('',#503,#122);
#90=LINE('',#505,#123);
#91=LINE('',#507,#124);
#92=LINE('',#509,#125);
#93=LINE('',#513,#126);
#94=LINE('',#515,#127);
#95=LINE('',#517,#128);
#96=LINE('',#519,#129);
#97=LINE('',#521,#130);
#98=LINE('',#523,#131);
#99=LINE('',#525,#132);
#100=LINE('',#527,#133);
#101=LINE('',#529,#134);
#102=LINE('',#531,#135);
#103=LINE('',#533,#136);
#104=LINE('',#539,#137);
#105=LINE('',#541,#138);
#106=LINE('',#543,#139);
#107=LINE('',#545,#140);
#108=LINE('',#547,#141);
#109=LINE('',#548,#142);
#110=LINE('',#552,#143);
#111=LINE('',#554,#144);
#112=LINE('',#556,#145);
#113=LINE('',#558,#146);
#114=LINE('',#560,#147);
#115=LINE('',#566,#148);
#116=LINE('',#567,#149);
#117=VECTOR('',#396,1.);
#118=VECTOR('',#397,1.);
#119=VECTOR('',#398,1.);
#120=VECTOR('',#401,1.);
#121=VECTOR('',#404,1.);
#122=VECTOR('',#405,1.);
#123=VECTOR('',#406,1.);
#124=VECTOR('',#407,1.);
#125=VECTOR('',#408,1.);
#126=VECTOR('',#413,1.);
#127=VECTOR('',#414,1.);
#128=VECTOR('',#415,1.);
#129=VECTOR('',#416,1.);
#130=VECTOR('',#419,1.);
#131=VECTOR('',#420,1.);
#132=VECTOR('',#421,1.);
#133=VECTOR('',#424,1.);
#134=VECTOR('',#425,1.);
#135=VECTOR('',#426,1.);
#136=VECTOR('',#427,1.);
#137=VECTOR('',#434,1.);
#138=VECTOR('',#437,1.);
#139=VECTOR('',#440,1.);
#140=VECTOR('',#441,1.);
#141=VECTOR('',#442,1.);
#142=VECTOR('',#443,1.);
#143=VECTOR('',#450,1.);
#144=VECTOR('',#451,1.);
#145=VECTOR('',#454,1.);
#146=VECTOR('',#455,1.);
#147=VECTOR('',#458,1.);
#148=VECTOR('',#465,1.);
#149=VECTOR('',#466,1.);
#150=FACE_BOUND('',#162,.T.);
#151=FACE_BOUND('',#163,.T.);
#152=FACE_BOUND('',#164,.T.);
#153=FACE_BOUND('',#168,.T.);
#154=FACE_BOUND('',#169,.T.);
#155=FACE_BOUND('',#170,.T.);
#156=FACE_BOUND('',#180,.T.);
#157=FACE_BOUND('',#181,.T.);
#158=FACE_BOUND('',#182,.T.);
#159=FACE_BOUND('',#183,.T.);
#160=FACE_BOUND('',#185,.T.);
#161=FACE_BOUND('',#186,.T.);
#162=EDGE_LOOP('',(#187));
#163=EDGE_LOOP('',(#188,#189,#190,#191,#192,#193,#194,#195,#196,#197,#198,
#199));
#164=EDGE_LOOP('',(#200));
#165=EDGE_LOOP('',(#201,#202,#203,#204,#205));
#166=EDGE_LOOP('',(#206,#207,#208,#209));
#167=EDGE_LOOP('',(#210,#211,#212,#213,#214));
#168=EDGE_LOOP('',(#215));
#169=EDGE_LOOP('',(#216));
#170=EDGE_LOOP('',(#217,#218,#219,#220));
#171=EDGE_LOOP('',(#221,#222,#223,#224,#225));
#172=EDGE_LOOP('',(#226,#227,#228,#229,#230,#231,#232,#233,#234));
#173=EDGE_LOOP('',(#235,#236,#237,#238,#239,#240));
#174=EDGE_LOOP('',(#241,#242,#243,#244));
#175=EDGE_LOOP('',(#245,#246,#247,#248));
#176=EDGE_LOOP('',(#249,#250,#251,#252,#253,#254));
#177=EDGE_LOOP('',(#255,#256,#257,#258));
#178=EDGE_LOOP('',(#259,#260,#261,#262));
#179=EDGE_LOOP('',(#263,#264,#265,#266));
#180=EDGE_LOOP('',(#267));
#181=EDGE_LOOP('',(#268));
#182=EDGE_LOOP('',(#269));
#183=EDGE_LOOP('',(#270,#271));
#184=EDGE_LOOP('',(#272));
#185=EDGE_LOOP('',(#273));
#186=EDGE_LOOP('',(#274));
#187=ORIENTED_EDGE('',*,*,#306,.F.);
#188=ORIENTED_EDGE('',*,*,#307,.F.);
#189=ORIENTED_EDGE('',*,*,#308,.T.);
#190=ORIENTED_EDGE('',*,*,#309,.T.);
#191=ORIENTED_EDGE('',*,*,#310,.F.);
#192=ORIENTED_EDGE('',*,*,#311,.T.);
#193=ORIENTED_EDGE('',*,*,#312,.F.);
#194=ORIENTED_EDGE('',*,*,#313,.T.);
#195=ORIENTED_EDGE('',*,*,#314,.F.);
#196=ORIENTED_EDGE('',*,*,#315,.T.);
#197=ORIENTED_EDGE('',*,*,#316,.F.);
#198=ORIENTED_EDGE('',*,*,#317,.F.);
#199=ORIENTED_EDGE('',*,*,#318,.T.);
#200=ORIENTED_EDGE('',*,*,#319,.F.);
#201=ORIENTED_EDGE('',*,*,#316,.T.);
#202=ORIENTED_EDGE('',*,*,#320,.T.);
#203=ORIENTED_EDGE('',*,*,#321,.F.);
#204=ORIENTED_EDGE('',*,*,#322,.T.);
#205=ORIENTED_EDGE('',*,*,#323,.T.);
#206=ORIENTED_EDGE('',*,*,#321,.T.);
#207=ORIENTED_EDGE('',*,*,#324,.T.);
#208=ORIENTED_EDGE('',*,*,#325,.F.);
#209=ORIENTED_EDGE('',*,*,#326,.T.);
#210=ORIENTED_EDGE('',*,*,#327,.T.);
#211=ORIENTED_EDGE('',*,*,#328,.T.);
#212=ORIENTED_EDGE('',*,*,#329,.F.);
#213=ORIENTED_EDGE('',*,*,#330,.T.);
#214=ORIENTED_EDGE('',*,*,#325,.T.);
#215=ORIENTED_EDGE('',*,*,#331,.F.);
#216=ORIENTED_EDGE('',*,*,#332,.F.);
#217=ORIENTED_EDGE('',*,*,#333,.F.);
#218=ORIENTED_EDGE('',*,*,#322,.F.);
#219=ORIENTED_EDGE('',*,*,#326,.F.);
#220=ORIENTED_EDGE('',*,*,#330,.F.);
#221=ORIENTED_EDGE('',*,*,#329,.T.);
#222=ORIENTED_EDGE('',*,*,#334,.T.);
#223=ORIENTED_EDGE('',*,*,#317,.T.);
#224=ORIENTED_EDGE('',*,*,#323,.F.);
#225=ORIENTED_EDGE('',*,*,#333,.T.);
#226=ORIENTED_EDGE('',*,*,#335,.F.);
#227=ORIENTED_EDGE('',*,*,#336,.F.);
#228=ORIENTED_EDGE('',*,*,#337,.F.);
#229=ORIENTED_EDGE('',*,*,#309,.F.);
#230=ORIENTED_EDGE('',*,*,#338,.T.);
#231=ORIENTED_EDGE('',*,*,#327,.F.);
#232=ORIENTED_EDGE('',*,*,#324,.F.);
#233=ORIENTED_EDGE('',*,*,#320,.F.);
#234=ORIENTED_EDGE('',*,*,#315,.F.);
#235=ORIENTED_EDGE('',*,*,#339,.F.);
#236=ORIENTED_EDGE('',*,*,#318,.F.);
#237=ORIENTED_EDGE('',*,*,#334,.F.);
#238=ORIENTED_EDGE('',*,*,#328,.F.);
#239=ORIENTED_EDGE('',*,*,#338,.F.);
#240=ORIENTED_EDGE('',*,*,#308,.F.);
#241=ORIENTED_EDGE('',*,*,#314,.T.);
#242=ORIENTED_EDGE('',*,*,#340,.T.);
#243=ORIENTED_EDGE('',*,*,#341,.T.);
#244=ORIENTED_EDGE('',*,*,#335,.T.);
#245=ORIENTED_EDGE('',*,*,#342,.T.);
#246=ORIENTED_EDGE('',*,*,#343,.T.);
#247=ORIENTED_EDGE('',*,*,#310,.T.);
#248=ORIENTED_EDGE('',*,*,#337,.T.);
#249=ORIENTED_EDGE('',*,*,#344,.F.);
#250=ORIENTED_EDGE('',*,*,#345,.T.);
#251=ORIENTED_EDGE('',*,*,#342,.F.);
#252=ORIENTED_EDGE('',*,*,#336,.T.);
#253=ORIENTED_EDGE('',*,*,#341,.F.);
#254=ORIENTED_EDGE('',*,*,#346,.T.);
#255=ORIENTED_EDGE('',*,*,#312,.T.);
#256=ORIENTED_EDGE('',*,*,#347,.T.);
#257=ORIENTED_EDGE('',*,*,#344,.T.);
#258=ORIENTED_EDGE('',*,*,#348,.T.);
#259=ORIENTED_EDGE('',*,*,#311,.F.);
#260=ORIENTED_EDGE('',*,*,#343,.F.);
#261=ORIENTED_EDGE('',*,*,#345,.F.);
#262=ORIENTED_EDGE('',*,*,#347,.F.);
#263=ORIENTED_EDGE('',*,*,#313,.F.);
#264=ORIENTED_EDGE('',*,*,#348,.F.);
#265=ORIENTED_EDGE('',*,*,#346,.F.);
#266=ORIENTED_EDGE('',*,*,#340,.F.);
#267=ORIENTED_EDGE('',*,*,#319,.T.);
#268=ORIENTED_EDGE('',*,*,#332,.T.);
#269=ORIENTED_EDGE('',*,*,#331,.T.);
#270=ORIENTED_EDGE('',*,*,#307,.T.);
#271=ORIENTED_EDGE('',*,*,#339,.T.);
#272=ORIENTED_EDGE('',*,*,#349,.F.);
#273=ORIENTED_EDGE('',*,*,#306,.T.);
#274=ORIENTED_EDGE('',*,*,#349,.T.);
#275=VERTEX_POINT('',#485);
#276=VERTEX_POINT('',#487);
#277=VERTEX_POINT('',#488);
#278=VERTEX_POINT('',#490);
#279=VERTEX_POINT('',#492);
#280=VERTEX_POINT('',#494);
#281=VERTEX_POINT('',#496);
#282=VERTEX_POINT('',#498);
#283=VERTEX_POINT('',#500);
#284=VERTEX_POINT('',#502);
#285=VERTEX_POINT('',#504);
#286=VERTEX_POINT('',#506);
#287=VERTEX_POINT('',#508);
#288=VERTEX_POINT('',#511);
#289=VERTEX_POINT('',#514);
#290=VERTEX_POINT('',#516);
#291=VERTEX_POINT('',#518);
#292=VERTEX_POINT('',#522);
#293=VERTEX_POINT('',#524);
#294=VERTEX_POINT('',#528);
#295=VERTEX_POINT('',#530);
#296=VERTEX_POINT('',#532);
#297=VERTEX_POINT('',#536);
#298=VERTEX_POINT('',#538);
#299=VERTEX_POINT('',#544);
#300=VERTEX_POINT('',#546);
#301=VERTEX_POINT('',#553);
#302=VERTEX_POINT('',#557);
#303=VERTEX_POINT('',#561);
#304=VERTEX_POINT('',#562);
#305=VERTEX_POINT('',#574);
#306=EDGE_CURVE('',#275,#275,#350,.T.);
#307=EDGE_CURVE('',#276,#277,#351,.T.);
#308=EDGE_CURVE('',#276,#278,#84,.T.);
#309=EDGE_CURVE('',#278,#279,#85,.T.);
#310=EDGE_CURVE('',#280,#279,#86,.T.);
#311=EDGE_CURVE('',#280,#281,#352,.T.);
#312=EDGE_CURVE('',#282,#281,#87,.T.);
#313=EDGE_CURVE('',#282,#283,#353,.T.);
#314=EDGE_CURVE('',#284,#283,#88,.T.);
#315=EDGE_CURVE('',#284,#285,#89,.T.);
#316=EDGE_CURVE('',#286,#285,#90,.T.);
#317=EDGE_CURVE('',#287,#286,#91,.T.);
#318=EDGE_CURVE('',#287,#277,#92,.T.);
#319=EDGE_CURVE('',#288,#288,#354,.T.);
#320=EDGE_CURVE('',#285,#289,#93,.T.);
#321=EDGE_CURVE('',#290,#289,#94,.T.);
#322=EDGE_CURVE('',#290,#291,#95,.T.);
#323=EDGE_CURVE('',#291,#286,#96,.T.);
#324=EDGE_CURVE('',#289,#292,#97,.T.);
#325=EDGE_CURVE('',#293,#292,#98,.T.);
#326=EDGE_CURVE('',#293,#290,#99,.T.);
#327=EDGE_CURVE('',#292,#294,#100,.T.);
#328=EDGE_CURVE('',#294,#295,#101,.T.);
#329=EDGE_CURVE('',#296,#295,#102,.T.);
#330=EDGE_CURVE('',#296,#293,#103,.T.);
#331=EDGE_CURVE('',#297,#297,#355,.T.);
#332=EDGE_CURVE('',#298,#298,#356,.T.);
#333=EDGE_CURVE('',#291,#296,#104,.T.);
#334=EDGE_CURVE('',#295,#287,#105,.T.);
#335=EDGE_CURVE('',#299,#284,#106,.T.);
#336=EDGE_CURVE('',#300,#299,#107,.T.);
#337=EDGE_CURVE('',#279,#300,#108,.T.);
#338=EDGE_CURVE('',#278,#294,#109,.T.);
#339=EDGE_CURVE('',#277,#276,#39,.T.);
#340=EDGE_CURVE('',#283,#301,#110,.T.);
#341=EDGE_CURVE('',#301,#299,#111,.T.);
#342=EDGE_CURVE('',#300,#302,#112,.T.);
#343=EDGE_CURVE('',#302,#280,#113,.T.);
#344=EDGE_CURVE('',#303,#304,#114,.T.);
#345=EDGE_CURVE('',#303,#302,#357,.T.);
#346=EDGE_CURVE('',#301,#304,#358,.T.);
#347=EDGE_CURVE('',#281,#303,#115,.T.);
#348=EDGE_CURVE('',#304,#282,#116,.T.);
#349=EDGE_CURVE('',#305,#305,#359,.T.);
#350=CIRCLE('',#361,3.65);
#351=CIRCLE('',#362,25.);
#352=CIRCLE('',#363,12.5);
#353=CIRCLE('',#364,12.5);
#354=CIRCLE('',#365,11.5);
#355=CIRCLE('',#370,25.);
#356=CIRCLE('',#371,11.5);
#357=CIRCLE('',#379,12.5);
#358=CIRCLE('',#380,12.5);
#359=CIRCLE('',#387,3.65);
#360=AXIS2_PLACEMENT_3D('',#483,#390,#391);
#361=AXIS2_PLACEMENT_3D('',#484,#392,#393);
#362=AXIS2_PLACEMENT_3D('',#486,#394,#395);
#363=AXIS2_PLACEMENT_3D('',#495,#399,#400);
#364=AXIS2_PLACEMENT_3D('',#499,#402,#403);
#365=AXIS2_PLACEMENT_3D('',#510,#409,#410);
#366=AXIS2_PLACEMENT_3D('',#512,#411,#412);
#367=AXIS2_PLACEMENT_3D('',#520,#417,#418);
#368=AXIS2_PLACEMENT_3D('',#526,#422,#423);
#369=AXIS2_PLACEMENT_3D('',#534,#428,#429);
#370=AXIS2_PLACEMENT_3D('',#535,#430,#431);
#371=AXIS2_PLACEMENT_3D('',#537,#432,#433);
#372=AXIS2_PLACEMENT_3D('',#540,#435,#436);
#373=AXIS2_PLACEMENT_3D('',#542,#438,#439);
#374=AXIS2_PLACEMENT_3D('',#549,#444,#445);
#375=AXIS2_PLACEMENT_3D('',#550,#446,#447);
#376=AXIS2_PLACEMENT_3D('',#551,#448,#449);
#377=AXIS2_PLACEMENT_3D('',#555,#452,#453);
#378=AXIS2_PLACEMENT_3D('',#559,#456,#457);
#379=AXIS2_PLACEMENT_3D('',#563,#459,#460);
#380=AXIS2_PLACEMENT_3D('',#564,#461,#462);
#381=AXIS2_PLACEMENT_3D('',#565,#463,#464);
#382=AXIS2_PLACEMENT_3D('',#568,#467,#468);
#383=AXIS2_PLACEMENT_3D('',#569,#469,#470);
#384=AXIS2_PLACEMENT_3D('',#570,#471,#472);
#385=AXIS2_PLACEMENT_3D('',#571,#473,#474);
#386=AXIS2_PLACEMENT_3D('',#572,#475,#476);
#387=AXIS2_PLACEMENT_3D('',#573,#477,#478);
#388=AXIS2_PLACEMENT_3D('',#575,#479,#480);
#389=AXIS2_PLACEMENT_3D('',#576,#481,#482);
#390=DIRECTION('',(0.,0.,1.));
#391=DIRECTION('',(1.,0.,0.));
#392=DIRECTION('',(0.,0.,1.));
#393=DIRECTION('',(0.999999999999996,0.,0.));
#394=DIRECTION('',(0.,0.,1.));
#395=DIRECTION('',(1.,0.,0.));
#396=DIRECTION('',(-1.,0.,0.));
#397=DIRECTION('',(0.,-1.,0.));
#398=DIRECTION('',(-1.,0.,0.));
#399=DIRECTION('',(0.,0.,-1.));
#400=DIRECTION('',(1.,0.,0.));
#401=DIRECTION('',(0.,1.,0.));
#402=DIRECTION('',(0.,0.,-1.));
#403=DIRECTION('',(1.,0.,0.));
#404=DIRECTION('',(1.,0.,0.));
#405=DIRECTION('',(0.,-1.,0.));
#406=DIRECTION('',(-1.,0.,0.));
#407=DIRECTION('',(0.,-1.,0.));
#408=DIRECTION('',(-1.,0.,0.));
#409=DIRECTION('',(0.,0.,1.));
#410=DIRECTION('',(1.,0.,0.));
#411=DIRECTION('',(0.,0.,1.));
#412=DIRECTION('',(1.,0.,0.));
#413=DIRECTION('',(-0.707106781186548,0.,-0.707106781186548));
#414=DIRECTION('',(0.,0.,1.));
#415=DIRECTION('',(1.,0.,0.));
#416=DIRECTION('',(0.,0.,1.));
#417=DIRECTION('',(0.,-1.,0.));
#418=DIRECTION('',(0.,0.,-1.));
#419=DIRECTION('',(0.,1.,0.));
#420=DIRECTION('',(0.,0.,1.));
#421=DIRECTION('',(0.,-1.,0.));
#422=DIRECTION('',(-1.,0.,0.));
#423=DIRECTION('',(0.,0.,1.));
#424=DIRECTION('',(0.707106781186548,0.,0.707106781186548));
#425=DIRECTION('',(1.,0.,0.));
#426=DIRECTION('',(0.,0.,1.));
#427=DIRECTION('',(-1.,0.,0.));
#428=DIRECTION('',(0.,1.,0.));
#429=DIRECTION('',(0.,0.,1.));
#430=DIRECTION('',(0.,0.,-1.));
#431=DIRECTION('',(-1.,0.,0.));
#432=DIRECTION('',(0.,0.,-1.));
#433=DIRECTION('',(-1.,0.,0.));
#434=DIRECTION('',(0.,1.,0.));
#435=DIRECTION('',(0.,0.,-1.));
#436=DIRECTION('',(-1.,0.,0.));
#437=DIRECTION('',(0.,-0.707106781186546,0.707106781186549));
#438=DIRECTION('',(1.,0.,0.));
#439=DIRECTION('',(0.,0.,-1.));
#440=DIRECTION('',(0.707106781186548,0.,0.707106781186548));
#441=DIRECTION('',(0.,-1.,0.));
#442=DIRECTION('',(-0.707106781186548,0.,-0.707106781186548));
#443=DIRECTION('',(-0.577350269189627,0.577350269189624,-0.577350269189627));
#444=DIRECTION('',(0.707106781186547,0.,-0.707106781186547));
#445=DIRECTION('',(0.,1.,0.));
#446=DIRECTION('',(0.,0.707106781186549,0.707106781186546));
#447=DIRECTION('',(0.,0.707106781186546,-0.707106781186549));
#448=DIRECTION('',(0.,-0.707106781186549,-0.707106781186546));
#449=DIRECTION('',(1.,0.,0.));
#450=DIRECTION('',(0.,0.,-1.));
#451=DIRECTION('',(-1.,0.,0.));
#452=DIRECTION('',(0.,-1.,0.));
#453=DIRECTION('',(0.,0.,-1.));
#454=DIRECTION('',(1.,0.,0.));
#455=DIRECTION('',(0.,0.,1.));
#456=DIRECTION('',(0.,1.,0.));
#457=DIRECTION('',(0.,0.,1.));
#458=DIRECTION('',(0.,-1.,0.));
#459=DIRECTION('',(0.,0.,1.));
#460=DIRECTION('',(-1.,0.,0.));
#461=DIRECTION('',(0.,0.,1.));
#462=DIRECTION('',(-1.,0.,0.));
#463=DIRECTION('',(0.,0.,-1.));
#464=DIRECTION('',(-1.,0.,0.));
#465=DIRECTION('',(0.,0.,-1.));
#466=DIRECTION('',(0.,0.,1.));
#467=DIRECTION('',(1.,0.,0.));
#468=DIRECTION('',(0.,0.,-1.));
#469=DIRECTION('',(0.,0.,1.));
#470=DIRECTION('',(1.,0.,0.));
#471=DIRECTION('',(0.,0.,1.));
#472=DIRECTION('',(1.,0.,0.));
#473=DIRECTION('',(0.,0.,-1.));
#474=DIRECTION('',(1.,0.,0.));
#475=DIRECTION('',(0.,0.,-1.));
#476=DIRECTION('',(1.,0.,0.));
#477=DIRECTION('',(0.,0.,-1.));
#478=DIRECTION('',(0.999999999999996,0.,0.));
#479=DIRECTION('',(0.,0.,-1.));
#480=DIRECTION('',(-1.,0.,0.));
#481=DIRECTION('',(0.,0.,-1.));
#482=DIRECTION('',(0.999999999999996,0.,0.));
#483=CARTESIAN_POINT('',(0.,0.,0.));
#484=CARTESIAN_POINT('',(219.7,94.5,148.5));
#485=CARTESIAN_POINT('',(223.35,94.5,148.5));
#486=CARTESIAN_POINT('',(150.1,410.8,148.5));
#487=CARTESIAN_POINT('',(142.447549412117,434.6,148.5));
#488=CARTESIAN_POINT('',(157.752450587883,434.6,148.5));
#489=CARTESIAN_POINT('',(181.5,434.6,148.5));
#490=CARTESIAN_POINT('',(25.2,434.6,148.5));
#491=CARTESIAN_POINT('',(25.2,219.9,148.5));
#492=CARTESIAN_POINT('',(25.2,341.8,148.5));
#493=CARTESIAN_POINT('',(181.5,341.8,148.5));
#494=CARTESIAN_POINT('',(44.9,341.8,148.5));
#495=CARTESIAN_POINT('',(44.9,329.3,148.5));
#496=CARTESIAN_POINT('',(57.4,329.3,148.5));
#497=CARTESIAN_POINT('',(57.4,219.9,148.5));
#498=CARTESIAN_POINT('',(57.4,210.5,148.5));
#499=CARTESIAN_POINT('',(44.9,210.5,148.5));
#500=CARTESIAN_POINT('',(44.9,198.,148.5));
#501=CARTESIAN_POINT('',(181.5,198.,148.5));
#502=CARTESIAN_POINT('',(25.2,198.,148.5));
#503=CARTESIAN_POINT('',(25.2,219.9,148.5));
#504=CARTESIAN_POINT('',(25.2,0.,148.5));
#505=CARTESIAN_POINT('',(181.5,0.,148.5));
#506=CARTESIAN_POINT('',(363.,0.,148.5));
#507=CARTESIAN_POINT('',(363.,219.9,148.5));
#508=CARTESIAN_POINT('',(363.,434.6,148.5));
#509=CARTESIAN_POINT('',(181.5,434.6,148.5));
#510=CARTESIAN_POINT('',(76.1,255.2,148.5));
#511=CARTESIAN_POINT('',(87.6,255.2,148.5));
#512=CARTESIAN_POINT('',(181.5,219.9,148.5));
#513=CARTESIAN_POINT('',(29.1,0.,152.4));
#514=CARTESIAN_POINT('',(0.,0.,123.3));
#515=CARTESIAN_POINT('',(0.,0.,0.));
#516=CARTESIAN_POINT('',(0.,0.,0.));
#517=CARTESIAN_POINT('',(181.5,0.,0.));
#518=CARTESIAN_POINT('',(363.,0.,0.));
#519=CARTESIAN_POINT('',(363.,0.,0.));
#520=CARTESIAN_POINT('',(181.5,0.,0.));
#521=CARTESIAN_POINT('',(0.,219.9,123.3));
#522=CARTESIAN_POINT('',(0.,439.8,123.3));
#523=CARTESIAN_POINT('',(0.,439.8,0.));
#524=CARTESIAN_POINT('',(0.,439.8,0.));
#525=CARTESIAN_POINT('',(0.,219.9,0.));
#526=CARTESIAN_POINT('',(0.,219.9,0.));
#527=CARTESIAN_POINT('',(29.1,439.8,152.4));
#528=CARTESIAN_POINT('',(20.,439.8,143.3));
#529=CARTESIAN_POINT('',(181.5,439.8,143.3));
#530=CARTESIAN_POINT('',(363.,439.8,143.3));
#531=CARTESIAN_POINT('',(363.,439.8,0.));
#532=CARTESIAN_POINT('',(363.,439.8,0.));
#533=CARTESIAN_POINT('',(181.5,439.8,0.));
#534=CARTESIAN_POINT('',(181.5,439.8,0.));
#535=CARTESIAN_POINT('',(150.1,410.8,0.));
#536=CARTESIAN_POINT('',(125.1,410.8,0.));
#537=CARTESIAN_POINT('',(76.1,255.2,0.));
#538=CARTESIAN_POINT('',(64.6,255.2,0.));
#539=CARTESIAN_POINT('',(363.,219.9,0.));
#540=CARTESIAN_POINT('',(181.5,219.9,0.));
#541=CARTESIAN_POINT('',(363.,401.500000000001,181.6));
#542=CARTESIAN_POINT('',(363.,219.9,0.));
#543=CARTESIAN_POINT('',(0.,198.,123.3));
#544=CARTESIAN_POINT('',(6.00000000000003,198.,129.3));
#545=CARTESIAN_POINT('',(6.00000000000003,219.9,129.3));
#546=CARTESIAN_POINT('',(6.00000000000003,341.8,129.3));
#547=CARTESIAN_POINT('',(0.,341.8,123.3));
#548=CARTESIAN_POINT('',(79.9666666666665,379.833333333334,203.266666666666));
#549=CARTESIAN_POINT('',(0.,219.9,123.3));
#550=CARTESIAN_POINT('',(150.1,410.8,172.3));
#551=CARTESIAN_POINT('',(181.5,439.8,143.3));
#552=CARTESIAN_POINT('',(44.9,198.,129.3));
#553=CARTESIAN_POINT('',(44.9,198.,129.3));
#554=CARTESIAN_POINT('',(28.7,198.,129.3));
#555=CARTESIAN_POINT('',(28.7,198.,129.3));
#556=CARTESIAN_POINT('',(28.7,341.8,129.3));
#557=CARTESIAN_POINT('',(44.9,341.8,129.3));
#558=CARTESIAN_POINT('',(44.9,341.8,148.5));
#559=CARTESIAN_POINT('',(28.7,341.8,129.3));
#560=CARTESIAN_POINT('',(57.4,269.9,129.3));
#561=CARTESIAN_POINT('',(57.4,329.3,129.3));
#562=CARTESIAN_POINT('',(57.4,210.5,129.3));
#563=CARTESIAN_POINT('',(44.9,329.3,129.3));
#564=CARTESIAN_POINT('',(44.9,210.5,129.3));
#565=CARTESIAN_POINT('',(28.7,269.9,129.3));
#566=CARTESIAN_POINT('',(57.4,329.3,129.3));
#567=CARTESIAN_POINT('',(57.4,210.5,148.5));
#568=CARTESIAN_POINT('',(57.4,269.9,129.3));
#569=CARTESIAN_POINT('',(44.9,329.3,129.3));
#570=CARTESIAN_POINT('',(44.9,210.5,129.3));
#571=CARTESIAN_POINT('',(76.1,255.2,148.55));
#572=CARTESIAN_POINT('',(150.1,410.8,148.55));
#573=CARTESIAN_POINT('',(219.7,94.5,79.6));
#574=CARTESIAN_POINT('',(223.35,94.5,79.6));
#575=CARTESIAN_POINT('',(219.7,94.5,79.6));
#576=CARTESIAN_POINT('',(219.7,94.5,148.55));
#577=MECHANICAL_DESIGN_GEOMETRIC_PRESENTATION_REPRESENTATION('',(#24),#578);
#578=(
GEOMETRIC_REPRESENTATION_CONTEXT(3)
GLOBAL_UNCERTAINTY_ASSIGNED_CONTEXT((#579))
GLOBAL_UNIT_ASSIGNED_CONTEXT((#585,#581,#580))
REPRESENTATION_CONTEXT('featured_part_10261','TOP_LEVEL_ASSEMBLY_PART')
);
#579=UNCERTAINTY_MEASURE_WITH_UNIT(LENGTH_MEASURE(2.E-5),#585,
'DISTANCE_ACCURACY_VALUE','Maximum Tolerance applied to model');
#580=(
NAMED_UNIT(*)
SI_UNIT($,.STERADIAN.)
SOLID_ANGLE_UNIT()
);
#581=(
CONVERSION_BASED_UNIT('DEGREE',#583)
NAMED_UNIT(#582)
PLANE_ANGLE_UNIT()
);
#582=DIMENSIONAL_EXPONENTS(0.,0.,0.,0.,0.,0.,0.);
#583=PLANE_ANGLE_MEASURE_WITH_UNIT(PLANE_ANGLE_MEASURE(0.0174532925),#584);
#584=(
NAMED_UNIT(*)
PLANE_ANGLE_UNIT()
SI_UNIT($,.RADIAN.)
);
#585=(
LENGTH_UNIT()
NAMED_UNIT(*)
SI_UNIT(.MILLI.,.METRE.)
);
ENDSEC;
END-ISO-10303-21;
