ISO-10303-21;
HEADER;
/* Generated by software containing ST-Developer
 * from STEP Tools, Inc. (www.steptools.com) 
 */
/* OPTION: using custom schema-name function */

FILE_DESCRIPTION(
/* description */ (''),
/* implementation_level */ '2;1');

FILE_NAME(
/* name */ 'featured_part_02141.stp',
/* time_stamp */ '2026-07-03T19:20:40-04:00',
/* author */ (''),
/* organization */ (''),
/* preprocessor_version */ 'ST-DEVELOPER v20.1',
/* originating_system */ 'SIEMENS PLM Software NX2512.6002',
/* authorisation */ '');

FILE_SCHEMA (('AUTOMOTIVE_DESIGN { 1 0 10303 214 3 1 1 1 }'));
ENDSEC;

DATA;
#10=SHAPE_REPRESENTATION_RELATIONSHIP('None',
'relationship between featured_part_02141-None and featured_part_02141
-None',#22,#11);
#11=ADVANCED_BREP_SHAPE_REPRESENTATION('featured_part_02141-None',(#32),
#488);
#12=SHAPE_DEFINITION_REPRESENTATION(#13,#22);
#13=PRODUCT_DEFINITION_SHAPE('','',#14);
#14=PRODUCT_DEFINITION(' ','',#16,#15);
#15=PRODUCT_DEFINITION_CONTEXT('part definition',#21,'design');
#16=PRODUCT_DEFINITION_FORMATION_WITH_SPECIFIED_SOURCE(' ',' ',#18,
 .NOT_KNOWN.);
#17=PRODUCT_RELATED_PRODUCT_CATEGORY('part','',(#18));
#18=PRODUCT('featured_part_02141','featured_part_02141',' ',(#19));
#19=PRODUCT_CONTEXT(' ',#21,'mechanical');
#20=APPLICATION_PROTOCOL_DEFINITION('international standard',
'automotive_design',2010,#21);
#21=APPLICATION_CONTEXT(
'core data for automotive mechanical design processes');
#22=SHAPE_REPRESENTATION('featured_part_02141-None',(#311),#488);
#23=PRESENTATION_LAYER_ASSIGNMENT('1','Layer 1',(#32));
#24=STYLED_ITEM('',(#25),#32);
#25=PRESENTATION_STYLE_ASSIGNMENT((#26));
#26=SURFACE_STYLE_USAGE(.BOTH.,#27);
#27=SURFACE_SIDE_STYLE('',(#28));
#28=SURFACE_STYLE_FILL_AREA(#29);
#29=FILL_AREA_STYLE('',(#30));
#30=FILL_AREA_STYLE_COLOUR('',#31);
#31=COLOUR_RGB('medium steel',0.611764705882353,0.658823529411765,0.670588235294118);
#32=MANIFOLD_SOLID_BREP('',#33);
#33=CLOSED_SHELL('',(#36,#37,#38,#39,#40,#41,#42,#43,#44,#45,#46,#47,#48,
#49,#50));
#34=CYLINDRICAL_SURFACE('',#325,14.4);
#35=CYLINDRICAL_SURFACE('',#330,11.);
#36=ADVANCED_FACE('',(#64),#51,.T.);
#37=ADVANCED_FACE('',(#65),#52,.T.);
#38=ADVANCED_FACE('',(#66),#53,.T.);
#39=ADVANCED_FACE('',(#67),#54,.T.);
#40=ADVANCED_FACE('',(#68),#55,.T.);
#41=ADVANCED_FACE('',(#69),#56,.T.);
#42=ADVANCED_FACE('',(#70),#57,.F.);
#43=ADVANCED_FACE('',(#71),#58,.F.);
#44=ADVANCED_FACE('',(#72),#59,.F.);
#45=ADVANCED_FACE('',(#73),#60,.F.);
#46=ADVANCED_FACE('',(#74),#34,.F.);
#47=ADVANCED_FACE('',(#75),#61,.F.);
#48=ADVANCED_FACE('',(#76),#62,.F.);
#49=ADVANCED_FACE('',(#77),#63,.F.);
#50=ADVANCED_FACE('',(#78),#35,.F.);
#51=PLANE('',#314);
#52=PLANE('',#315);
#53=PLANE('',#316);
#54=PLANE('',#317);
#55=PLANE('',#318);
#56=PLANE('',#319);
#57=PLANE('',#320);
#58=PLANE('',#321);
#59=PLANE('',#322);
#60=PLANE('',#324);
#61=PLANE('',#326);
#62=PLANE('',#327);
#63=PLANE('',#329);
#64=FACE_OUTER_BOUND('',#79,.T.);
#65=FACE_OUTER_BOUND('',#80,.T.);
#66=FACE_OUTER_BOUND('',#81,.T.);
#67=FACE_OUTER_BOUND('',#82,.T.);
#68=FACE_OUTER_BOUND('',#83,.T.);
#69=FACE_OUTER_BOUND('',#84,.T.);
#70=FACE_OUTER_BOUND('',#85,.T.);
#71=FACE_OUTER_BOUND('',#86,.T.);
#72=FACE_OUTER_BOUND('',#87,.T.);
#73=FACE_OUTER_BOUND('',#88,.T.);
#74=FACE_OUTER_BOUND('',#89,.T.);
#75=FACE_OUTER_BOUND('',#90,.T.);
#76=FACE_OUTER_BOUND('',#91,.T.);
#77=FACE_OUTER_BOUND('',#92,.T.);
#78=FACE_OUTER_BOUND('',#93,.T.);
#79=EDGE_LOOP('',(#98,#99,#100,#101,#102,#103,#104,#105,#106,#107));
#80=EDGE_LOOP('',(#108,#109,#110,#111,#112,#113));
#81=EDGE_LOOP('',(#114,#115,#116,#117,#118));
#82=EDGE_LOOP('',(#119,#120,#121,#122,#123,#124));
#83=EDGE_LOOP('',(#125,#126,#127,#128));
#84=EDGE_LOOP('',(#129,#130,#131,#132,#133,#134,#135,#136));
#85=EDGE_LOOP('',(#137,#138,#139,#140));
#86=EDGE_LOOP('',(#141,#142,#143,#144));
#87=EDGE_LOOP('',(#145,#146,#147,#148));
#88=EDGE_LOOP('',(#149,#150,#151,#152,#153));
#89=EDGE_LOOP('',(#154,#155,#156,#157));
#90=EDGE_LOOP('',(#158,#159,#160,#161));
#91=EDGE_LOOP('',(#162,#163,#164,#165,#166));
#92=EDGE_LOOP('',(#167,#168,#169,#170,#171));
#93=EDGE_LOOP('',(#172,#173,#174,#175));
#94=CIRCLE('',#312,11.);
#95=CIRCLE('',#313,14.4);
#96=CIRCLE('',#323,14.4);
#97=CIRCLE('',#328,11.);
#98=ORIENTED_EDGE('',*,*,#202,.F.);
#99=ORIENTED_EDGE('',*,*,#203,.T.);
#100=ORIENTED_EDGE('',*,*,#204,.F.);
#101=ORIENTED_EDGE('',*,*,#205,.T.);
#102=ORIENTED_EDGE('',*,*,#206,.F.);
#103=ORIENTED_EDGE('',*,*,#207,.F.);
#104=ORIENTED_EDGE('',*,*,#208,.F.);
#105=ORIENTED_EDGE('',*,*,#209,.T.);
#106=ORIENTED_EDGE('',*,*,#210,.F.);
#107=ORIENTED_EDGE('',*,*,#211,.F.);
#108=ORIENTED_EDGE('',*,*,#212,.T.);
#109=ORIENTED_EDGE('',*,*,#207,.T.);
#110=ORIENTED_EDGE('',*,*,#213,.F.);
#111=ORIENTED_EDGE('',*,*,#214,.T.);
#112=ORIENTED_EDGE('',*,*,#215,.T.);
#113=ORIENTED_EDGE('',*,*,#216,.F.);
#114=ORIENTED_EDGE('',*,*,#206,.T.);
#115=ORIENTED_EDGE('',*,*,#217,.T.);
#116=ORIENTED_EDGE('',*,*,#218,.F.);
#117=ORIENTED_EDGE('',*,*,#219,.T.);
#118=ORIENTED_EDGE('',*,*,#213,.T.);
#119=ORIENTED_EDGE('',*,*,#220,.F.);
#120=ORIENTED_EDGE('',*,*,#221,.F.);
#121=ORIENTED_EDGE('',*,*,#222,.F.);
#122=ORIENTED_EDGE('',*,*,#223,.T.);
#123=ORIENTED_EDGE('',*,*,#218,.T.);
#124=ORIENTED_EDGE('',*,*,#224,.T.);
#125=ORIENTED_EDGE('',*,*,#225,.F.);
#126=ORIENTED_EDGE('',*,*,#214,.F.);
#127=ORIENTED_EDGE('',*,*,#219,.F.);
#128=ORIENTED_EDGE('',*,*,#223,.F.);
#129=ORIENTED_EDGE('',*,*,#226,.T.);
#130=ORIENTED_EDGE('',*,*,#211,.T.);
#131=ORIENTED_EDGE('',*,*,#227,.F.);
#132=ORIENTED_EDGE('',*,*,#228,.F.);
#133=ORIENTED_EDGE('',*,*,#215,.F.);
#134=ORIENTED_EDGE('',*,*,#225,.T.);
#135=ORIENTED_EDGE('',*,*,#222,.T.);
#136=ORIENTED_EDGE('',*,*,#229,.F.);
#137=ORIENTED_EDGE('',*,*,#230,.F.);
#138=ORIENTED_EDGE('',*,*,#224,.F.);
#139=ORIENTED_EDGE('',*,*,#217,.F.);
#140=ORIENTED_EDGE('',*,*,#205,.F.);
#141=ORIENTED_EDGE('',*,*,#231,.T.);
#142=ORIENTED_EDGE('',*,*,#232,.T.);
#143=ORIENTED_EDGE('',*,*,#208,.T.);
#144=ORIENTED_EDGE('',*,*,#212,.F.);
#145=ORIENTED_EDGE('',*,*,#210,.T.);
#146=ORIENTED_EDGE('',*,*,#233,.T.);
#147=ORIENTED_EDGE('',*,*,#234,.T.);
#148=ORIENTED_EDGE('',*,*,#227,.T.);
#149=ORIENTED_EDGE('',*,*,#234,.F.);
#150=ORIENTED_EDGE('',*,*,#235,.T.);
#151=ORIENTED_EDGE('',*,*,#231,.F.);
#152=ORIENTED_EDGE('',*,*,#216,.T.);
#153=ORIENTED_EDGE('',*,*,#228,.T.);
#154=ORIENTED_EDGE('',*,*,#209,.F.);
#155=ORIENTED_EDGE('',*,*,#232,.F.);
#156=ORIENTED_EDGE('',*,*,#235,.F.);
#157=ORIENTED_EDGE('',*,*,#233,.F.);
#158=ORIENTED_EDGE('',*,*,#236,.T.);
#159=ORIENTED_EDGE('',*,*,#237,.T.);
#160=ORIENTED_EDGE('',*,*,#202,.T.);
#161=ORIENTED_EDGE('',*,*,#226,.F.);
#162=ORIENTED_EDGE('',*,*,#204,.T.);
#163=ORIENTED_EDGE('',*,*,#238,.T.);
#164=ORIENTED_EDGE('',*,*,#239,.T.);
#165=ORIENTED_EDGE('',*,*,#220,.T.);
#166=ORIENTED_EDGE('',*,*,#230,.T.);
#167=ORIENTED_EDGE('',*,*,#239,.F.);
#168=ORIENTED_EDGE('',*,*,#240,.T.);
#169=ORIENTED_EDGE('',*,*,#236,.F.);
#170=ORIENTED_EDGE('',*,*,#229,.T.);
#171=ORIENTED_EDGE('',*,*,#221,.T.);
#172=ORIENTED_EDGE('',*,*,#203,.F.);
#173=ORIENTED_EDGE('',*,*,#237,.F.);
#174=ORIENTED_EDGE('',*,*,#240,.F.);
#175=ORIENTED_EDGE('',*,*,#238,.F.);
#176=VERTEX_POINT('',#408);
#177=VERTEX_POINT('',#409);
#178=VERTEX_POINT('',#411);
#179=VERTEX_POINT('',#413);
#180=VERTEX_POINT('',#415);
#181=VERTEX_POINT('',#417);
#182=VERTEX_POINT('',#419);
#183=VERTEX_POINT('',#421);
#184=VERTEX_POINT('',#423);
#185=VERTEX_POINT('',#425);
#186=VERTEX_POINT('',#429);
#187=VERTEX_POINT('',#431);
#188=VERTEX_POINT('',#433);
#189=VERTEX_POINT('',#435);
#190=VERTEX_POINT('',#439);
#191=VERTEX_POINT('',#441);
#192=VERTEX_POINT('',#445);
#193=VERTEX_POINT('',#446);
#194=VERTEX_POINT('',#448);
#195=VERTEX_POINT('',#450);
#196=VERTEX_POINT('',#457);
#197=VERTEX_POINT('',#459);
#198=VERTEX_POINT('',#466);
#199=VERTEX_POINT('',#470);
#200=VERTEX_POINT('',#477);
#201=VERTEX_POINT('',#481);
#202=EDGE_CURVE('',#176,#177,#241,.T.);
#203=EDGE_CURVE('',#176,#178,#94,.T.);
#204=EDGE_CURVE('',#179,#178,#242,.T.);
#205=EDGE_CURVE('',#179,#180,#243,.T.);
#206=EDGE_CURVE('',#181,#180,#244,.T.);
#207=EDGE_CURVE('',#182,#181,#245,.T.);
#208=EDGE_CURVE('',#183,#182,#246,.T.);
#209=EDGE_CURVE('',#183,#184,#95,.T.);
#210=EDGE_CURVE('',#185,#184,#247,.T.);
#211=EDGE_CURVE('',#177,#185,#248,.T.);
#212=EDGE_CURVE('',#186,#182,#249,.T.);
#213=EDGE_CURVE('',#187,#181,#250,.T.);
#214=EDGE_CURVE('',#187,#188,#251,.T.);
#215=EDGE_CURVE('',#188,#189,#252,.T.);
#216=EDGE_CURVE('',#186,#189,#253,.T.);
#217=EDGE_CURVE('',#180,#190,#254,.T.);
#218=EDGE_CURVE('',#191,#190,#255,.T.);
#219=EDGE_CURVE('',#191,#187,#256,.T.);
#220=EDGE_CURVE('',#192,#193,#257,.T.);
#221=EDGE_CURVE('',#194,#192,#258,.T.);
#222=EDGE_CURVE('',#195,#194,#259,.T.);
#223=EDGE_CURVE('',#195,#191,#260,.T.);
#224=EDGE_CURVE('',#190,#193,#261,.T.);
#225=EDGE_CURVE('',#188,#195,#262,.T.);
#226=EDGE_CURVE('',#196,#177,#263,.T.);
#227=EDGE_CURVE('',#197,#185,#264,.T.);
#228=EDGE_CURVE('',#189,#197,#265,.T.);
#229=EDGE_CURVE('',#196,#194,#266,.T.);
#230=EDGE_CURVE('',#193,#179,#267,.T.);
#231=EDGE_CURVE('',#186,#198,#268,.T.);
#232=EDGE_CURVE('',#198,#183,#269,.T.);
#233=EDGE_CURVE('',#184,#199,#270,.T.);
#234=EDGE_CURVE('',#199,#197,#271,.T.);
#235=EDGE_CURVE('',#199,#198,#96,.T.);
#236=EDGE_CURVE('',#196,#200,#272,.T.);
#237=EDGE_CURVE('',#200,#176,#273,.T.);
#238=EDGE_CURVE('',#178,#201,#274,.T.);
#239=EDGE_CURVE('',#201,#192,#275,.T.);
#240=EDGE_CURVE('',#201,#200,#97,.T.);
#241=LINE('',#407,#276);
#242=LINE('',#412,#277);
#243=LINE('',#414,#278);
#244=LINE('',#416,#279);
#245=LINE('',#418,#280);
#246=LINE('',#420,#281);
#247=LINE('',#424,#282);
#248=LINE('',#426,#283);
#249=LINE('',#428,#284);
#250=LINE('',#430,#285);
#251=LINE('',#432,#286);
#252=LINE('',#434,#287);
#253=LINE('',#436,#288);
#254=LINE('',#438,#289);
#255=LINE('',#440,#290);
#256=LINE('',#442,#291);
#257=LINE('',#444,#292);
#258=LINE('',#447,#293);
#259=LINE('',#449,#294);
#260=LINE('',#451,#295);
#261=LINE('',#452,#296);
#262=LINE('',#454,#297);
#263=LINE('',#456,#298);
#264=LINE('',#458,#299);
#265=LINE('',#460,#300);
#266=LINE('',#461,#301);
#267=LINE('',#463,#302);
#268=LINE('',#465,#303);
#269=LINE('',#467,#304);
#270=LINE('',#469,#305);
#271=LINE('',#471,#306);
#272=LINE('',#476,#307);
#273=LINE('',#478,#308);
#274=LINE('',#480,#309);
#275=LINE('',#482,#310);
#276=VECTOR('',#333,1.);
#277=VECTOR('',#336,1.);
#278=VECTOR('',#337,1.);
#279=VECTOR('',#338,1.);
#280=VECTOR('',#339,1.);
#281=VECTOR('',#340,1.);
#282=VECTOR('',#343,1.);
#283=VECTOR('',#344,1.);
#284=VECTOR('',#347,1.);
#285=VECTOR('',#348,1.);
#286=VECTOR('',#349,1.);
#287=VECTOR('',#350,1.);
#288=VECTOR('',#351,1.);
#289=VECTOR('',#354,1.);
#290=VECTOR('',#355,1.);
#291=VECTOR('',#356,1.);
#292=VECTOR('',#359,1.);
#293=VECTOR('',#360,1.);
#294=VECTOR('',#361,1.);
#295=VECTOR('',#362,1.);
#296=VECTOR('',#363,1.);
#297=VECTOR('',#366,1.);
#298=VECTOR('',#369,1.);
#299=VECTOR('',#370,1.);
#300=VECTOR('',#371,1.);
#301=VECTOR('',#372,1.);
#302=VECTOR('',#375,1.);
#303=VECTOR('',#378,1.);
#304=VECTOR('',#379,1.);
#305=VECTOR('',#382,1.);
#306=VECTOR('',#383,1.);
#307=VECTOR('',#392,1.);
#308=VECTOR('',#393,1.);
#309=VECTOR('',#396,1.);
#310=VECTOR('',#397,1.);
#311=AXIS2_PLACEMENT_3D('',#406,#331,#332);
#312=AXIS2_PLACEMENT_3D('',#410,#334,#335);
#313=AXIS2_PLACEMENT_3D('',#422,#341,#342);
#314=AXIS2_PLACEMENT_3D('',#427,#345,#346);
#315=AXIS2_PLACEMENT_3D('',#437,#352,#353);
#316=AXIS2_PLACEMENT_3D('',#443,#357,#358);
#317=AXIS2_PLACEMENT_3D('',#453,#364,#365);
#318=AXIS2_PLACEMENT_3D('',#455,#367,#368);
#319=AXIS2_PLACEMENT_3D('',#462,#373,#374);
#320=AXIS2_PLACEMENT_3D('',#464,#376,#377);
#321=AXIS2_PLACEMENT_3D('',#468,#380,#381);
#322=AXIS2_PLACEMENT_3D('',#472,#384,#385);
#323=AXIS2_PLACEMENT_3D('',#473,#386,#387);
#324=AXIS2_PLACEMENT_3D('',#474,#388,#389);
#325=AXIS2_PLACEMENT_3D('',#475,#390,#391);
#326=AXIS2_PLACEMENT_3D('',#479,#394,#395);
#327=AXIS2_PLACEMENT_3D('',#483,#398,#399);
#328=AXIS2_PLACEMENT_3D('',#484,#400,#401);
#329=AXIS2_PLACEMENT_3D('',#485,#402,#403);
#330=AXIS2_PLACEMENT_3D('',#486,#404,#405);
#331=DIRECTION('',(0.,0.,1.));
#332=DIRECTION('',(1.,0.,0.));
#333=DIRECTION('',(1.,0.,0.));
#334=DIRECTION('',(0.,0.,-1.));
#335=DIRECTION('',(1.,0.,0.));
#336=DIRECTION('',(0.,-1.,0.));
#337=DIRECTION('',(-1.,0.,0.));
#338=DIRECTION('',(0.,1.,0.));
#339=DIRECTION('',(-1.,0.,0.));
#340=DIRECTION('',(0.,-1.,0.));
#341=DIRECTION('',(0.,0.,-1.));
#342=DIRECTION('',(1.,0.,0.));
#343=DIRECTION('',(-1.,0.,0.));
#344=DIRECTION('',(0.,-1.,0.));
#345=DIRECTION('',(0.,0.,1.));
#346=DIRECTION('',(1.,0.,0.));
#347=DIRECTION('',(0.,0.,1.));
#348=DIRECTION('',(0.,0.,1.));
#349=DIRECTION('',(1.,0.,0.));
#350=DIRECTION('',(0.,0.,1.));
#351=DIRECTION('',(1.,0.,0.));
#352=DIRECTION('',(0.,-1.,0.));
#353=DIRECTION('',(0.,0.,-1.));
#354=DIRECTION('',(0.,0.707106781186548,-0.707106781186548));
#355=DIRECTION('',(0.,0.,1.));
#356=DIRECTION('',(0.,-1.,0.));
#357=DIRECTION('',(-1.,0.,0.));
#358=DIRECTION('',(0.,0.,1.));
#359=DIRECTION('',(0.,0.,1.));
#360=DIRECTION('',(-1.,0.,0.));
#361=DIRECTION('',(0.,0.,1.));
#362=DIRECTION('',(-1.,0.,0.));
#363=DIRECTION('',(1.,0.,0.));
#364=DIRECTION('',(0.,1.,0.));
#365=DIRECTION('',(0.,0.,1.));
#366=DIRECTION('',(0.,1.,0.));
#367=DIRECTION('',(0.,0.,-1.));
#368=DIRECTION('',(-1.,0.,0.));
#369=DIRECTION('',(0.,0.,1.));
#370=DIRECTION('',(0.,0.,1.));
#371=DIRECTION('',(0.,1.,0.));
#372=DIRECTION('',(0.,1.,0.));
#373=DIRECTION('',(1.,0.,0.));
#374=DIRECTION('',(0.,0.,-1.));
#375=DIRECTION('',(0.,-0.707106781186548,0.707106781186548));
#376=DIRECTION('',(0.,-0.707106781186547,-0.707106781186547));
#377=DIRECTION('',(1.,0.,0.));
#378=DIRECTION('',(0.,1.,0.));
#379=DIRECTION('',(0.,0.,1.));
#380=DIRECTION('',(-1.,0.,0.));
#381=DIRECTION('',(0.,0.,1.));
#382=DIRECTION('',(0.,0.,-1.));
#383=DIRECTION('',(1.,0.,0.));
#384=DIRECTION('',(0.,1.,0.));
#385=DIRECTION('',(0.,0.,1.));
#386=DIRECTION('',(0.,0.,1.));
#387=DIRECTION('',(-1.,0.,0.));
#388=DIRECTION('',(0.,0.,-1.));
#389=DIRECTION('',(-1.,0.,0.));
#390=DIRECTION('',(0.,0.,1.));
#391=DIRECTION('',(1.,0.,0.));
#392=DIRECTION('',(-1.,0.,0.));
#393=DIRECTION('',(0.,0.,1.));
#394=DIRECTION('',(0.,-1.,0.));
#395=DIRECTION('',(0.,0.,-1.));
#396=DIRECTION('',(0.,0.,-1.));
#397=DIRECTION('',(0.,1.,0.));
#398=DIRECTION('',(-1.,0.,0.));
#399=DIRECTION('',(0.,0.,1.));
#400=DIRECTION('',(0.,0.,1.));
#401=DIRECTION('',(-1.,0.,0.));
#402=DIRECTION('',(0.,0.,-1.));
#403=DIRECTION('',(-1.,0.,0.));
#404=DIRECTION('',(0.,0.,1.));
#405=DIRECTION('',(1.,0.,0.));
#406=CARTESIAN_POINT('',(0.,0.,0.));
#407=CARTESIAN_POINT('',(245.85,181.1,136.6));
#408=CARTESIAN_POINT('',(413.6,181.1,136.6));
#409=CARTESIAN_POINT('',(491.7,181.1,136.6));
#410=CARTESIAN_POINT('',(413.6,192.1,136.6));
#411=CARTESIAN_POINT('',(402.6,192.1,136.6));
#412=CARTESIAN_POINT('',(402.6,106.85,136.6));
#413=CARTESIAN_POINT('',(402.6,198.4,136.6));
#414=CARTESIAN_POINT('',(245.85,198.4,136.6));
#415=CARTESIAN_POINT('',(0.,198.4,136.6));
#416=CARTESIAN_POINT('',(0.,106.85,136.6));
#417=CARTESIAN_POINT('',(0.,0.,136.6));
#418=CARTESIAN_POINT('',(245.85,0.,136.6));
#419=CARTESIAN_POINT('',(411.3,0.,136.6));
#420=CARTESIAN_POINT('',(411.3,106.85,136.6));
#421=CARTESIAN_POINT('',(411.3,18.5,136.6));
#422=CARTESIAN_POINT('',(425.7,18.5,136.6));
#423=CARTESIAN_POINT('',(425.7,32.9,136.6));
#424=CARTESIAN_POINT('',(245.85,32.9,136.6));
#425=CARTESIAN_POINT('',(491.7,32.9,136.6));
#426=CARTESIAN_POINT('',(491.7,106.85,136.6));
#427=CARTESIAN_POINT('',(245.85,106.85,136.6));
#428=CARTESIAN_POINT('',(411.3,0.,101.1));
#429=CARTESIAN_POINT('',(411.3,0.,101.1));
#430=CARTESIAN_POINT('',(0.,0.,0.));
#431=CARTESIAN_POINT('',(0.,0.,0.));
#432=CARTESIAN_POINT('',(245.85,0.,0.));
#433=CARTESIAN_POINT('',(491.7,0.,0.));
#434=CARTESIAN_POINT('',(491.7,0.,0.));
#435=CARTESIAN_POINT('',(491.7,0.,101.1));
#436=CARTESIAN_POINT('',(451.5,0.,101.1));
#437=CARTESIAN_POINT('',(245.85,0.,0.));
#438=CARTESIAN_POINT('',(0.,220.925,114.075));
#439=CARTESIAN_POINT('',(0.,213.7,121.3));
#440=CARTESIAN_POINT('',(0.,213.7,0.));
#441=CARTESIAN_POINT('',(0.,213.7,0.));
#442=CARTESIAN_POINT('',(0.,106.85,0.));
#443=CARTESIAN_POINT('',(0.,106.85,0.));
#444=CARTESIAN_POINT('',(402.6,213.7,98.7));
#445=CARTESIAN_POINT('',(402.6,213.7,98.7));
#446=CARTESIAN_POINT('',(402.6,213.7,121.3));
#447=CARTESIAN_POINT('',(447.15,213.7,98.7));
#448=CARTESIAN_POINT('',(491.7,213.7,98.7));
#449=CARTESIAN_POINT('',(491.7,213.7,0.));
#450=CARTESIAN_POINT('',(491.7,213.7,0.));
#451=CARTESIAN_POINT('',(245.85,213.7,0.));
#452=CARTESIAN_POINT('',(245.85,213.7,121.3));
#453=CARTESIAN_POINT('',(245.85,213.7,0.));
#454=CARTESIAN_POINT('',(491.7,106.85,0.));
#455=CARTESIAN_POINT('',(245.85,106.85,0.));
#456=CARTESIAN_POINT('',(491.7,181.1,98.7));
#457=CARTESIAN_POINT('',(491.7,181.1,98.7));
#458=CARTESIAN_POINT('',(491.7,32.9,101.1));
#459=CARTESIAN_POINT('',(491.7,32.9,101.1));
#460=CARTESIAN_POINT('',(491.7,16.45,101.1));
#461=CARTESIAN_POINT('',(491.7,197.4,98.7));
#462=CARTESIAN_POINT('',(491.7,106.85,0.));
#463=CARTESIAN_POINT('',(402.6,213.7,121.3));
#464=CARTESIAN_POINT('',(245.85,213.7,121.3));
#465=CARTESIAN_POINT('',(411.3,16.45,101.1));
#466=CARTESIAN_POINT('',(411.3,18.5,101.1));
#467=CARTESIAN_POINT('',(411.3,18.5,136.6));
#468=CARTESIAN_POINT('',(411.3,16.45,101.1));
#469=CARTESIAN_POINT('',(425.7,32.9,101.1));
#470=CARTESIAN_POINT('',(425.7,32.9,101.1));
#471=CARTESIAN_POINT('',(451.5,32.9,101.1));
#472=CARTESIAN_POINT('',(451.5,32.9,101.1));
#473=CARTESIAN_POINT('',(425.7,18.5,101.1));
#474=CARTESIAN_POINT('',(451.5,16.45,101.1));
#475=CARTESIAN_POINT('',(425.7,18.5,101.1));
#476=CARTESIAN_POINT('',(447.15,181.1,98.7));
#477=CARTESIAN_POINT('',(413.6,181.1,98.7));
#478=CARTESIAN_POINT('',(413.6,181.1,136.6));
#479=CARTESIAN_POINT('',(447.15,181.1,98.7));
#480=CARTESIAN_POINT('',(402.6,192.1,98.7));
#481=CARTESIAN_POINT('',(402.6,192.1,98.7));
#482=CARTESIAN_POINT('',(402.6,197.4,98.7));
#483=CARTESIAN_POINT('',(402.6,197.4,98.7));
#484=CARTESIAN_POINT('',(413.6,192.1,98.7));
#485=CARTESIAN_POINT('',(447.15,197.4,98.7));
#486=CARTESIAN_POINT('',(413.6,192.1,98.7));
#487=MECHANICAL_DESIGN_GEOMETRIC_PRESENTATION_REPRESENTATION('',(#24),#488);
#488=(
GEOMETRIC_REPRESENTATION_CONTEXT(3)
GLOBAL_UNCERTAINTY_ASSIGNED_CONTEXT((#489))
GLOBAL_UNIT_ASSIGNED_CONTEXT((#495,#491,#490))
REPRESENTATION_CONTEXT('featured_part_02141','TOP_LEVEL_ASSEMBLY_PART')
);
#489=UNCERTAINTY_MEASURE_WITH_UNIT(LENGTH_MEASURE(2.E-5),#495,
'DISTANCE_ACCURACY_VALUE','Maximum Tolerance applied to model');
#490=(
NAMED_UNIT(*)
SI_UNIT($,.STERADIAN.)
SOLID_ANGLE_UNIT()
);
#491=(
CONVERSION_BASED_UNIT('DEGREE',#493)
NAMED_UNIT(#492)
PLANE_ANGLE_UNIT()
);
#492=DIMENSIONAL_EXPONENTS(0.,0.,0.,0.,0.,0.,0.);
#493=PLANE_ANGLE_MEASURE_WITH_UNIT(PLANE_ANGLE_MEASURE(0.0174532925),#494);
#494=(
NAMED_UNIT(*)
PLANE_ANGLE_UNIT()
SI_UNIT($,.RADIAN.)
);
#495=(
LENGTH_UNIT()
NAMED_UNIT(*)
SI_UNIT(.MILLI.,.METRE.)
);
ENDSEC;
END-ISO-10303-21;
