ISO-10303-21;
HEADER;
/* Generated by software containing ST-Developer
 * from STEP Tools, Inc. (www.steptools.com) 
 */
/* OPTION: using custom schema-name function */

FILE_DESCRIPTION(
/* description */ (''),
/* implementation_level */ '2;1');

FILE_NAME(
/* name */ 'featured_part_03602.stp',
/* time_stamp */ '2026-07-06T15:54:17-04:00',
/* author */ (''),
/* organization */ (''),
/* preprocessor_version */ 'ST-DEVELOPER v20.1',
/* originating_system */ 'SIEMENS PLM Software NX2512.6002',
/* authorisation */ '');

FILE_SCHEMA (('AUTOMOTIVE_DESIGN { 1 0 10303 214 3 1 1 1 }'));
ENDSEC;

DATA;
#10=SHAPE_REPRESENTATION_RELATIONSHIP('None',
'relationship between featured_part_03602-None and featured_part_03602
-None',#22,#11);
#11=ADVANCED_BREP_SHAPE_REPRESENTATION('featured_part_03602-None',(#32),
#891);
#12=SHAPE_DEFINITION_REPRESENTATION(#13,#22);
#13=PRODUCT_DEFINITION_SHAPE('','',#14);
#14=PRODUCT_DEFINITION(' ','',#16,#15);
#15=PRODUCT_DEFINITION_CONTEXT('part definition',#21,'design');
#16=PRODUCT_DEFINITION_FORMATION_WITH_SPECIFIED_SOURCE(' ',' ',#18,
 .NOT_KNOWN.);
#17=PRODUCT_RELATED_PRODUCT_CATEGORY('part','',(#18));
#18=PRODUCT('featured_part_03602','featured_part_03602',' ',(#19));
#19=PRODUCT_CONTEXT(' ',#21,'mechanical');
#20=APPLICATION_PROTOCOL_DEFINITION('international standard',
'automotive_design',2010,#21);
#21=APPLICATION_CONTEXT(
'core data for automotive mechanical design processes');
#22=SHAPE_REPRESENTATION('featured_part_03602-None',(#541),#891);
#23=PRESENTATION_LAYER_ASSIGNMENT('1','Layer 1',(#32));
#24=STYLED_ITEM('',(#25),#32);
#25=PRESENTATION_STYLE_ASSIGNMENT((#26));
#26=SURFACE_STYLE_USAGE(.BOTH.,#27);
#27=SURFACE_SIDE_STYLE('',(#28));
#28=SURFACE_STYLE_FILL_AREA(#29);
#29=FILL_AREA_STYLE('',(#30));
#30=FILL_AREA_STYLE_COLOUR('',#31);
#31=COLOUR_RGB('medium steel',0.611764705882353,0.658823529411765,0.670588235294118);
#32=MANIFOLD_SOLID_BREP('',#33);
#33=CLOSED_SHELL('',(#68,#69,#70,#71,#72,#73,#74,#75,#76,#77,#78,#79,#80,
#81,#82,#83,#84,#85,#86,#87,#88,#89,#90,#91,#92,#93,#94));
#34=CYLINDRICAL_SURFACE('',#574,8.3);
#35=CYLINDRICAL_SURFACE('',#575,8.3);
#36=CYLINDRICAL_SURFACE('',#576,8.3);
#37=CYLINDRICAL_SURFACE('',#577,8.3);
#38=CYLINDRICAL_SURFACE('',#584,8.2);
#39=CYLINDRICAL_SURFACE('',#585,8.2);
#40=CYLINDRICAL_SURFACE('',#588,8.25);
#41=CYLINDRICAL_SURFACE('',#589,13.);
#42=CYLINDRICAL_SURFACE('',#590,11.25);
#43=CYLINDRICAL_SURFACE('',#591,12.25);
#44=ELLIPSE('',#561,17.3241161390704,12.25);
#45=ELLIPSE('',#562,15.9099025766973,11.25);
#46=ELLIPSE('',#563,18.3847763108502,13.);
#47=FACE_OUTER_BOUND('',#130,.T.);
#48=FACE_OUTER_BOUND('',#131,.T.);
#49=FACE_OUTER_BOUND('',#132,.T.);
#50=FACE_OUTER_BOUND('',#137,.T.);
#51=FACE_OUTER_BOUND('',#138,.T.);
#52=FACE_OUTER_BOUND('',#139,.T.);
#53=FACE_OUTER_BOUND('',#140,.T.);
#54=FACE_OUTER_BOUND('',#141,.T.);
#55=FACE_OUTER_BOUND('',#142,.T.);
#56=FACE_OUTER_BOUND('',#143,.T.);
#57=FACE_OUTER_BOUND('',#144,.T.);
#58=FACE_OUTER_BOUND('',#145,.T.);
#59=FACE_OUTER_BOUND('',#146,.T.);
#60=FACE_OUTER_BOUND('',#147,.T.);
#61=FACE_OUTER_BOUND('',#148,.T.);
#62=FACE_OUTER_BOUND('',#149,.T.);
#63=FACE_OUTER_BOUND('',#150,.T.);
#64=FACE_OUTER_BOUND('',#151,.T.);
#65=FACE_OUTER_BOUND('',#152,.T.);
#66=FACE_OUTER_BOUND('',#153,.T.);
#67=FACE_OUTER_BOUND('',#154,.T.);
#68=ADVANCED_FACE('',(#112,#113,#114),#95,.T.);
#69=ADVANCED_FACE('',(#47),#96,.T.);
#70=ADVANCED_FACE('',(#48),#97,.T.);
#71=ADVANCED_FACE('',(#49),#98,.T.);
#72=ADVANCED_FACE('',(#115,#116,#117,#118),#99,.T.);
#73=ADVANCED_FACE('',(#50),#100,.T.);
#74=ADVANCED_FACE('',(#51),#101,.F.);
#75=ADVANCED_FACE('',(#52),#102,.F.);
#76=ADVANCED_FACE('',(#53),#103,.F.);
#77=ADVANCED_FACE('',(#54),#104,.F.);
#78=ADVANCED_FACE('',(#55),#105,.F.);
#79=ADVANCED_FACE('',(#56),#106,.F.);
#80=ADVANCED_FACE('',(#57),#34,.F.);
#81=ADVANCED_FACE('',(#58),#35,.F.);
#82=ADVANCED_FACE('',(#59),#36,.F.);
#83=ADVANCED_FACE('',(#60),#37,.F.);
#84=ADVANCED_FACE('',(#61),#107,.F.);
#85=ADVANCED_FACE('',(#62),#108,.F.);
#86=ADVANCED_FACE('',(#63),#109,.F.);
#87=ADVANCED_FACE('',(#64),#110,.F.);
#88=ADVANCED_FACE('',(#65),#38,.F.);
#89=ADVANCED_FACE('',(#66),#39,.F.);
#90=ADVANCED_FACE('',(#67),#111,.F.);
#91=ADVANCED_FACE('',(#119,#120),#40,.F.);
#92=ADVANCED_FACE('',(#121,#122),#41,.F.);
#93=ADVANCED_FACE('',(#123,#124),#42,.F.);
#94=ADVANCED_FACE('',(#125,#126),#43,.F.);
#95=PLANE('',#552);
#96=PLANE('',#553);
#97=PLANE('',#554);
#98=PLANE('',#555);
#99=PLANE('',#559);
#100=PLANE('',#560);
#101=PLANE('',#564);
#102=PLANE('',#565);
#103=PLANE('',#566);
#104=PLANE('',#567);
#105=PLANE('',#572);
#106=PLANE('',#573);
#107=PLANE('',#578);
#108=PLANE('',#579);
#109=PLANE('',#582);
#110=PLANE('',#583);
#111=PLANE('',#587);
#112=FACE_BOUND('',#127,.T.);
#113=FACE_BOUND('',#128,.T.);
#114=FACE_BOUND('',#129,.T.);
#115=FACE_BOUND('',#133,.T.);
#116=FACE_BOUND('',#134,.T.);
#117=FACE_BOUND('',#135,.T.);
#118=FACE_BOUND('',#136,.T.);
#119=FACE_BOUND('',#155,.T.);
#120=FACE_BOUND('',#156,.T.);
#121=FACE_BOUND('',#157,.T.);
#122=FACE_BOUND('',#158,.T.);
#123=FACE_BOUND('',#159,.T.);
#124=FACE_BOUND('',#160,.T.);
#125=FACE_BOUND('',#161,.T.);
#126=FACE_BOUND('',#162,.T.);
#127=EDGE_LOOP('',(#259,#260,#261,#262,#263,#264,#265,#266,#267,#268,#269,
#270,#271,#272,#273,#274));
#128=EDGE_LOOP('',(#275));
#129=EDGE_LOOP('',(#276,#277,#278,#279,#280,#281,#282,#283));
#130=EDGE_LOOP('',(#284,#285,#286,#287,#288,#289,#290,#291,#292));
#131=EDGE_LOOP('',(#293,#294,#295,#296));
#132=EDGE_LOOP('',(#297,#298,#299,#300,#301));
#133=EDGE_LOOP('',(#302));
#134=EDGE_LOOP('',(#303));
#135=EDGE_LOOP('',(#304));
#136=EDGE_LOOP('',(#305,#306,#307,#308));
#137=EDGE_LOOP('',(#309,#310,#311,#312));
#138=EDGE_LOOP('',(#313,#314,#315,#316,#317,#318,#319,#320,#321,#322));
#139=EDGE_LOOP('',(#323,#324,#325,#326));
#140=EDGE_LOOP('',(#327,#328,#329,#330));
#141=EDGE_LOOP('',(#331,#332,#333,#334));
#142=EDGE_LOOP('',(#335,#336,#337,#338,#339,#340,#341,#342));
#143=EDGE_LOOP('',(#343,#344,#345,#346));
#144=EDGE_LOOP('',(#347,#348,#349,#350));
#145=EDGE_LOOP('',(#351,#352,#353,#354));
#146=EDGE_LOOP('',(#355,#356,#357,#358));
#147=EDGE_LOOP('',(#359,#360,#361,#362));
#148=EDGE_LOOP('',(#363,#364,#365,#366));
#149=EDGE_LOOP('',(#367,#368,#369,#370));
#150=EDGE_LOOP('',(#371,#372,#373,#374,#375,#376));
#151=EDGE_LOOP('',(#377,#378,#379,#380));
#152=EDGE_LOOP('',(#381,#382,#383,#384));
#153=EDGE_LOOP('',(#385,#386,#387,#388));
#154=EDGE_LOOP('',(#389));
#155=EDGE_LOOP('',(#390));
#156=EDGE_LOOP('',(#391));
#157=EDGE_LOOP('',(#392));
#158=EDGE_LOOP('',(#393,#394));
#159=EDGE_LOOP('',(#395));
#160=EDGE_LOOP('',(#396,#397));
#161=EDGE_LOOP('',(#398));
#162=EDGE_LOOP('',(#399,#400));
#163=LINE('',#746,#211);
#164=LINE('',#750,#212);
#165=LINE('',#754,#213);
#166=LINE('',#756,#214);
#167=LINE('',#758,#215);
#168=LINE('',#762,#216);
#169=LINE('',#766,#217);
#170=LINE('',#768,#218);
#171=LINE('',#770,#219);
#172=LINE('',#772,#220);
#173=LINE('',#774,#221);
#174=LINE('',#777,#222);
#175=LINE('',#782,#223);
#176=LINE('',#786,#224);
#177=LINE('',#790,#225);
#178=LINE('',#794,#226);
#179=LINE('',#796,#227);
#180=LINE('',#798,#228);
#181=LINE('',#800,#229);
#182=LINE('',#802,#230);
#183=LINE('',#803,#231);
#184=LINE('',#805,#232);
#185=LINE('',#807,#233);
#186=LINE('',#809,#234);
#187=LINE('',#811,#235);
#188=LINE('',#813,#236);
#189=LINE('',#814,#237);
#190=LINE('',#816,#238);
#191=LINE('',#824,#239);
#192=LINE('',#831,#240);
#193=LINE('',#834,#241);
#194=LINE('',#835,#242);
#195=LINE('',#837,#243);
#196=LINE('',#839,#244);
#197=LINE('',#841,#245);
#198=LINE('',#843,#246);
#199=LINE('',#846,#247);
#200=LINE('',#847,#248);
#201=LINE('',#849,#249);
#202=LINE('',#857,#250);
#203=LINE('',#858,#251);
#204=LINE('',#864,#252);
#205=LINE('',#866,#253);
#206=LINE('',#868,#254);
#207=LINE('',#870,#255);
#208=LINE('',#872,#256);
#209=LINE('',#875,#257);
#210=LINE('',#879,#258);
#211=VECTOR('',#596,1.);
#212=VECTOR('',#599,1.);
#213=VECTOR('',#602,1.);
#214=VECTOR('',#603,1.);
#215=VECTOR('',#604,1.);
#216=VECTOR('',#607,1.);
#217=VECTOR('',#610,1.);
#218=VECTOR('',#611,1.);
#219=VECTOR('',#612,1.);
#220=VECTOR('',#613,1.);
#221=VECTOR('',#614,1.);
#222=VECTOR('',#617,1.);
#223=VECTOR('',#620,1.);
#224=VECTOR('',#623,1.);
#225=VECTOR('',#626,1.);
#226=VECTOR('',#631,1.);
#227=VECTOR('',#632,1.);
#228=VECTOR('',#633,1.);
#229=VECTOR('',#634,1.);
#230=VECTOR('',#635,1.);
#231=VECTOR('',#636,1.);
#232=VECTOR('',#637,1.);
#233=VECTOR('',#640,1.);
#234=VECTOR('',#641,1.);
#235=VECTOR('',#642,1.);
#236=VECTOR('',#645,1.);
#237=VECTOR('',#646,1.);
#238=VECTOR('',#647,1.);
#239=VECTOR('',#656,1.);
#240=VECTOR('',#669,1.);
#241=VECTOR('',#670,1.);
#242=VECTOR('',#671,1.);
#243=VECTOR('',#674,1.);
#244=VECTOR('',#675,1.);
#245=VECTOR('',#676,1.);
#246=VECTOR('',#679,1.);
#247=VECTOR('',#680,1.);
#248=VECTOR('',#681,1.);
#249=VECTOR('',#684,1.);
#250=VECTOR('',#695,1.);
#251=VECTOR('',#696,1.);
#252=VECTOR('',#707,1.);
#253=VECTOR('',#708,1.);
#254=VECTOR('',#711,1.);
#255=VECTOR('',#712,1.);
#256=VECTOR('',#713,1.);
#257=VECTOR('',#718,1.);
#258=VECTOR('',#723,1.);
#259=ORIENTED_EDGE('',*,*,#450,.F.);
#260=ORIENTED_EDGE('',*,*,#451,.T.);
#261=ORIENTED_EDGE('',*,*,#452,.F.);
#262=ORIENTED_EDGE('',*,*,#453,.T.);
#263=ORIENTED_EDGE('',*,*,#454,.F.);
#264=ORIENTED_EDGE('',*,*,#455,.T.);
#265=ORIENTED_EDGE('',*,*,#456,.F.);
#266=ORIENTED_EDGE('',*,*,#457,.F.);
#267=ORIENTED_EDGE('',*,*,#458,.T.);
#268=ORIENTED_EDGE('',*,*,#459,.F.);
#269=ORIENTED_EDGE('',*,*,#460,.T.);
#270=ORIENTED_EDGE('',*,*,#461,.F.);
#271=ORIENTED_EDGE('',*,*,#462,.F.);
#272=ORIENTED_EDGE('',*,*,#463,.F.);
#273=ORIENTED_EDGE('',*,*,#464,.F.);
#274=ORIENTED_EDGE('',*,*,#465,.T.);
#275=ORIENTED_EDGE('',*,*,#466,.F.);
#276=ORIENTED_EDGE('',*,*,#467,.F.);
#277=ORIENTED_EDGE('',*,*,#468,.T.);
#278=ORIENTED_EDGE('',*,*,#469,.F.);
#279=ORIENTED_EDGE('',*,*,#470,.T.);
#280=ORIENTED_EDGE('',*,*,#471,.F.);
#281=ORIENTED_EDGE('',*,*,#472,.T.);
#282=ORIENTED_EDGE('',*,*,#473,.F.);
#283=ORIENTED_EDGE('',*,*,#474,.T.);
#284=ORIENTED_EDGE('',*,*,#475,.T.);
#285=ORIENTED_EDGE('',*,*,#456,.T.);
#286=ORIENTED_EDGE('',*,*,#476,.T.);
#287=ORIENTED_EDGE('',*,*,#477,.F.);
#288=ORIENTED_EDGE('',*,*,#478,.T.);
#289=ORIENTED_EDGE('',*,*,#479,.T.);
#290=ORIENTED_EDGE('',*,*,#462,.T.);
#291=ORIENTED_EDGE('',*,*,#480,.F.);
#292=ORIENTED_EDGE('',*,*,#481,.F.);
#293=ORIENTED_EDGE('',*,*,#477,.T.);
#294=ORIENTED_EDGE('',*,*,#482,.T.);
#295=ORIENTED_EDGE('',*,*,#483,.F.);
#296=ORIENTED_EDGE('',*,*,#484,.T.);
#297=ORIENTED_EDGE('',*,*,#483,.T.);
#298=ORIENTED_EDGE('',*,*,#485,.T.);
#299=ORIENTED_EDGE('',*,*,#464,.T.);
#300=ORIENTED_EDGE('',*,*,#486,.F.);
#301=ORIENTED_EDGE('',*,*,#487,.T.);
#302=ORIENTED_EDGE('',*,*,#488,.F.);
#303=ORIENTED_EDGE('',*,*,#489,.F.);
#304=ORIENTED_EDGE('',*,*,#490,.F.);
#305=ORIENTED_EDGE('',*,*,#491,.F.);
#306=ORIENTED_EDGE('',*,*,#478,.F.);
#307=ORIENTED_EDGE('',*,*,#484,.F.);
#308=ORIENTED_EDGE('',*,*,#487,.F.);
#309=ORIENTED_EDGE('',*,*,#491,.T.);
#310=ORIENTED_EDGE('',*,*,#486,.T.);
#311=ORIENTED_EDGE('',*,*,#463,.T.);
#312=ORIENTED_EDGE('',*,*,#479,.F.);
#313=ORIENTED_EDGE('',*,*,#492,.F.);
#314=ORIENTED_EDGE('',*,*,#465,.F.);
#315=ORIENTED_EDGE('',*,*,#485,.F.);
#316=ORIENTED_EDGE('',*,*,#482,.F.);
#317=ORIENTED_EDGE('',*,*,#476,.F.);
#318=ORIENTED_EDGE('',*,*,#455,.F.);
#319=ORIENTED_EDGE('',*,*,#493,.F.);
#320=ORIENTED_EDGE('',*,*,#453,.F.);
#321=ORIENTED_EDGE('',*,*,#494,.F.);
#322=ORIENTED_EDGE('',*,*,#451,.F.);
#323=ORIENTED_EDGE('',*,*,#495,.T.);
#324=ORIENTED_EDGE('',*,*,#496,.T.);
#325=ORIENTED_EDGE('',*,*,#467,.T.);
#326=ORIENTED_EDGE('',*,*,#497,.T.);
#327=ORIENTED_EDGE('',*,*,#469,.T.);
#328=ORIENTED_EDGE('',*,*,#498,.T.);
#329=ORIENTED_EDGE('',*,*,#499,.T.);
#330=ORIENTED_EDGE('',*,*,#500,.T.);
#331=ORIENTED_EDGE('',*,*,#501,.T.);
#332=ORIENTED_EDGE('',*,*,#502,.T.);
#333=ORIENTED_EDGE('',*,*,#471,.T.);
#334=ORIENTED_EDGE('',*,*,#503,.T.);
#335=ORIENTED_EDGE('',*,*,#504,.F.);
#336=ORIENTED_EDGE('',*,*,#505,.T.);
#337=ORIENTED_EDGE('',*,*,#501,.F.);
#338=ORIENTED_EDGE('',*,*,#506,.T.);
#339=ORIENTED_EDGE('',*,*,#499,.F.);
#340=ORIENTED_EDGE('',*,*,#507,.T.);
#341=ORIENTED_EDGE('',*,*,#495,.F.);
#342=ORIENTED_EDGE('',*,*,#508,.T.);
#343=ORIENTED_EDGE('',*,*,#473,.T.);
#344=ORIENTED_EDGE('',*,*,#509,.T.);
#345=ORIENTED_EDGE('',*,*,#504,.T.);
#346=ORIENTED_EDGE('',*,*,#510,.T.);
#347=ORIENTED_EDGE('',*,*,#472,.F.);
#348=ORIENTED_EDGE('',*,*,#502,.F.);
#349=ORIENTED_EDGE('',*,*,#505,.F.);
#350=ORIENTED_EDGE('',*,*,#509,.F.);
#351=ORIENTED_EDGE('',*,*,#468,.F.);
#352=ORIENTED_EDGE('',*,*,#496,.F.);
#353=ORIENTED_EDGE('',*,*,#507,.F.);
#354=ORIENTED_EDGE('',*,*,#498,.F.);
#355=ORIENTED_EDGE('',*,*,#470,.F.);
#356=ORIENTED_EDGE('',*,*,#500,.F.);
#357=ORIENTED_EDGE('',*,*,#506,.F.);
#358=ORIENTED_EDGE('',*,*,#503,.F.);
#359=ORIENTED_EDGE('',*,*,#474,.F.);
#360=ORIENTED_EDGE('',*,*,#510,.F.);
#361=ORIENTED_EDGE('',*,*,#508,.F.);
#362=ORIENTED_EDGE('',*,*,#497,.F.);
#363=ORIENTED_EDGE('',*,*,#511,.T.);
#364=ORIENTED_EDGE('',*,*,#512,.T.);
#365=ORIENTED_EDGE('',*,*,#457,.T.);
#366=ORIENTED_EDGE('',*,*,#475,.F.);
#367=ORIENTED_EDGE('',*,*,#459,.T.);
#368=ORIENTED_EDGE('',*,*,#513,.T.);
#369=ORIENTED_EDGE('',*,*,#514,.T.);
#370=ORIENTED_EDGE('',*,*,#515,.T.);
#371=ORIENTED_EDGE('',*,*,#514,.F.);
#372=ORIENTED_EDGE('',*,*,#516,.T.);
#373=ORIENTED_EDGE('',*,*,#511,.F.);
#374=ORIENTED_EDGE('',*,*,#481,.T.);
#375=ORIENTED_EDGE('',*,*,#517,.F.);
#376=ORIENTED_EDGE('',*,*,#518,.T.);
#377=ORIENTED_EDGE('',*,*,#461,.T.);
#378=ORIENTED_EDGE('',*,*,#519,.T.);
#379=ORIENTED_EDGE('',*,*,#517,.T.);
#380=ORIENTED_EDGE('',*,*,#480,.T.);
#381=ORIENTED_EDGE('',*,*,#458,.F.);
#382=ORIENTED_EDGE('',*,*,#512,.F.);
#383=ORIENTED_EDGE('',*,*,#516,.F.);
#384=ORIENTED_EDGE('',*,*,#513,.F.);
#385=ORIENTED_EDGE('',*,*,#460,.F.);
#386=ORIENTED_EDGE('',*,*,#515,.F.);
#387=ORIENTED_EDGE('',*,*,#518,.F.);
#388=ORIENTED_EDGE('',*,*,#519,.F.);
#389=ORIENTED_EDGE('',*,*,#520,.F.);
#390=ORIENTED_EDGE('',*,*,#466,.T.);
#391=ORIENTED_EDGE('',*,*,#520,.T.);
#392=ORIENTED_EDGE('',*,*,#490,.T.);
#393=ORIENTED_EDGE('',*,*,#452,.T.);
#394=ORIENTED_EDGE('',*,*,#494,.T.);
#395=ORIENTED_EDGE('',*,*,#489,.T.);
#396=ORIENTED_EDGE('',*,*,#454,.T.);
#397=ORIENTED_EDGE('',*,*,#493,.T.);
#398=ORIENTED_EDGE('',*,*,#488,.T.);
#399=ORIENTED_EDGE('',*,*,#450,.T.);
#400=ORIENTED_EDGE('',*,*,#492,.T.);
#401=VERTEX_POINT('',#744);
#402=VERTEX_POINT('',#745);
#403=VERTEX_POINT('',#747);
#404=VERTEX_POINT('',#749);
#405=VERTEX_POINT('',#751);
#406=VERTEX_POINT('',#753);
#407=VERTEX_POINT('',#755);
#408=VERTEX_POINT('',#757);
#409=VERTEX_POINT('',#759);
#410=VERTEX_POINT('',#761);
#411=VERTEX_POINT('',#763);
#412=VERTEX_POINT('',#765);
#413=VERTEX_POINT('',#767);
#414=VERTEX_POINT('',#769);
#415=VERTEX_POINT('',#771);
#416=VERTEX_POINT('',#773);
#417=VERTEX_POINT('',#776);
#418=VERTEX_POINT('',#778);
#419=VERTEX_POINT('',#779);
#420=VERTEX_POINT('',#781);
#421=VERTEX_POINT('',#783);
#422=VERTEX_POINT('',#785);
#423=VERTEX_POINT('',#787);
#424=VERTEX_POINT('',#789);
#425=VERTEX_POINT('',#791);
#426=VERTEX_POINT('',#795);
#427=VERTEX_POINT('',#797);
#428=VERTEX_POINT('',#799);
#429=VERTEX_POINT('',#801);
#430=VERTEX_POINT('',#804);
#431=VERTEX_POINT('',#808);
#432=VERTEX_POINT('',#810);
#433=VERTEX_POINT('',#815);
#434=VERTEX_POINT('',#819);
#435=VERTEX_POINT('',#821);
#436=VERTEX_POINT('',#823);
#437=VERTEX_POINT('',#832);
#438=VERTEX_POINT('',#833);
#439=VERTEX_POINT('',#838);
#440=VERTEX_POINT('',#840);
#441=VERTEX_POINT('',#844);
#442=VERTEX_POINT('',#845);
#443=VERTEX_POINT('',#850);
#444=VERTEX_POINT('',#851);
#445=VERTEX_POINT('',#865);
#446=VERTEX_POINT('',#869);
#447=VERTEX_POINT('',#871);
#448=VERTEX_POINT('',#876);
#449=VERTEX_POINT('',#884);
#450=EDGE_CURVE('',#401,#402,#521,.T.);
#451=EDGE_CURVE('',#401,#403,#163,.T.);
#452=EDGE_CURVE('',#404,#403,#522,.T.);
#453=EDGE_CURVE('',#404,#405,#164,.T.);
#454=EDGE_CURVE('',#406,#405,#523,.T.);
#455=EDGE_CURVE('',#406,#407,#165,.T.);
#456=EDGE_CURVE('',#408,#407,#166,.T.);
#457=EDGE_CURVE('',#409,#408,#167,.T.);
#458=EDGE_CURVE('',#409,#410,#524,.T.);
#459=EDGE_CURVE('',#411,#410,#168,.T.);
#460=EDGE_CURVE('',#411,#412,#525,.T.);
#461=EDGE_CURVE('',#413,#412,#169,.T.);
#462=EDGE_CURVE('',#414,#413,#170,.T.);
#463=EDGE_CURVE('',#415,#414,#171,.T.);
#464=EDGE_CURVE('',#416,#415,#172,.T.);
#465=EDGE_CURVE('',#416,#402,#173,.T.);
#466=EDGE_CURVE('',#417,#417,#526,.T.);
#467=EDGE_CURVE('',#418,#419,#174,.T.);
#468=EDGE_CURVE('',#418,#420,#527,.T.);
#469=EDGE_CURVE('',#421,#420,#175,.T.);
#470=EDGE_CURVE('',#421,#422,#528,.T.);
#471=EDGE_CURVE('',#423,#422,#176,.T.);
#472=EDGE_CURVE('',#423,#424,#529,.T.);
#473=EDGE_CURVE('',#425,#424,#177,.T.);
#474=EDGE_CURVE('',#425,#419,#530,.T.);
#475=EDGE_CURVE('',#426,#408,#178,.T.);
#476=EDGE_CURVE('',#407,#427,#179,.T.);
#477=EDGE_CURVE('',#428,#427,#180,.T.);
#478=EDGE_CURVE('',#428,#429,#181,.T.);
#479=EDGE_CURVE('',#429,#414,#182,.T.);
#480=EDGE_CURVE('',#430,#413,#183,.T.);
#481=EDGE_CURVE('',#426,#430,#184,.T.);
#482=EDGE_CURVE('',#427,#431,#185,.T.);
#483=EDGE_CURVE('',#432,#431,#186,.T.);
#484=EDGE_CURVE('',#432,#428,#187,.T.);
#485=EDGE_CURVE('',#431,#416,#188,.T.);
#486=EDGE_CURVE('',#433,#415,#189,.T.);
#487=EDGE_CURVE('',#433,#432,#190,.T.);
#488=EDGE_CURVE('',#434,#434,#531,.T.);
#489=EDGE_CURVE('',#435,#435,#532,.T.);
#490=EDGE_CURVE('',#436,#436,#533,.T.);
#491=EDGE_CURVE('',#429,#433,#191,.T.);
#492=EDGE_CURVE('',#402,#401,#44,.T.);
#493=EDGE_CURVE('',#405,#406,#45,.T.);
#494=EDGE_CURVE('',#403,#404,#46,.T.);
#495=EDGE_CURVE('',#437,#438,#192,.T.);
#496=EDGE_CURVE('',#438,#418,#193,.T.);
#497=EDGE_CURVE('',#419,#437,#194,.T.);
#498=EDGE_CURVE('',#420,#439,#195,.T.);
#499=EDGE_CURVE('',#439,#440,#196,.T.);
#500=EDGE_CURVE('',#440,#421,#197,.T.);
#501=EDGE_CURVE('',#441,#442,#198,.T.);
#502=EDGE_CURVE('',#442,#423,#199,.T.);
#503=EDGE_CURVE('',#422,#441,#200,.T.);
#504=EDGE_CURVE('',#443,#444,#201,.T.);
#505=EDGE_CURVE('',#443,#442,#534,.T.);
#506=EDGE_CURVE('',#441,#440,#535,.T.);
#507=EDGE_CURVE('',#439,#438,#536,.T.);
#508=EDGE_CURVE('',#437,#444,#537,.T.);
#509=EDGE_CURVE('',#424,#443,#202,.T.);
#510=EDGE_CURVE('',#444,#425,#203,.T.);
#511=EDGE_CURVE('',#426,#445,#204,.T.);
#512=EDGE_CURVE('',#445,#409,#205,.T.);
#513=EDGE_CURVE('',#410,#446,#206,.T.);
#514=EDGE_CURVE('',#446,#447,#207,.T.);
#515=EDGE_CURVE('',#447,#411,#208,.T.);
#516=EDGE_CURVE('',#446,#445,#538,.T.);
#517=EDGE_CURVE('',#448,#430,#209,.T.);
#518=EDGE_CURVE('',#448,#447,#539,.T.);
#519=EDGE_CURVE('',#412,#448,#210,.T.);
#520=EDGE_CURVE('',#449,#449,#540,.T.);
#521=CIRCLE('',#542,12.25);
#522=CIRCLE('',#543,13.);
#523=CIRCLE('',#544,11.25);
#524=CIRCLE('',#545,8.2);
#525=CIRCLE('',#546,8.2);
#526=CIRCLE('',#547,8.25);
#527=CIRCLE('',#548,8.3);
#528=CIRCLE('',#549,8.3);
#529=CIRCLE('',#550,8.3);
#530=CIRCLE('',#551,8.3);
#531=CIRCLE('',#556,12.25);
#532=CIRCLE('',#557,11.25);
#533=CIRCLE('',#558,13.);
#534=CIRCLE('',#568,8.3);
#535=CIRCLE('',#569,8.3);
#536=CIRCLE('',#570,8.3);
#537=CIRCLE('',#571,8.3);
#538=CIRCLE('',#580,8.2);
#539=CIRCLE('',#581,8.2);
#540=CIRCLE('',#586,8.25);
#541=AXIS2_PLACEMENT_3D('',#742,#592,#593);
#542=AXIS2_PLACEMENT_3D('',#743,#594,#595);
#543=AXIS2_PLACEMENT_3D('',#748,#597,#598);
#544=AXIS2_PLACEMENT_3D('',#752,#600,#601);
#545=AXIS2_PLACEMENT_3D('',#760,#605,#606);
#546=AXIS2_PLACEMENT_3D('',#764,#608,#609);
#547=AXIS2_PLACEMENT_3D('',#775,#615,#616);
#548=AXIS2_PLACEMENT_3D('',#780,#618,#619);
#549=AXIS2_PLACEMENT_3D('',#784,#621,#622);
#550=AXIS2_PLACEMENT_3D('',#788,#624,#625);
#551=AXIS2_PLACEMENT_3D('',#792,#627,#628);
#552=AXIS2_PLACEMENT_3D('',#793,#629,#630);
#553=AXIS2_PLACEMENT_3D('',#806,#638,#639);
#554=AXIS2_PLACEMENT_3D('',#812,#643,#644);
#555=AXIS2_PLACEMENT_3D('',#817,#648,#649);
#556=AXIS2_PLACEMENT_3D('',#818,#650,#651);
#557=AXIS2_PLACEMENT_3D('',#820,#652,#653);
#558=AXIS2_PLACEMENT_3D('',#822,#654,#655);
#559=AXIS2_PLACEMENT_3D('',#825,#657,#658);
#560=AXIS2_PLACEMENT_3D('',#826,#659,#660);
#561=AXIS2_PLACEMENT_3D('',#827,#661,#662);
#562=AXIS2_PLACEMENT_3D('',#828,#663,#664);
#563=AXIS2_PLACEMENT_3D('',#829,#665,#666);
#564=AXIS2_PLACEMENT_3D('',#830,#667,#668);
#565=AXIS2_PLACEMENT_3D('',#836,#672,#673);
#566=AXIS2_PLACEMENT_3D('',#842,#677,#678);
#567=AXIS2_PLACEMENT_3D('',#848,#682,#683);
#568=AXIS2_PLACEMENT_3D('',#852,#685,#686);
#569=AXIS2_PLACEMENT_3D('',#853,#687,#688);
#570=AXIS2_PLACEMENT_3D('',#854,#689,#690);
#571=AXIS2_PLACEMENT_3D('',#855,#691,#692);
#572=AXIS2_PLACEMENT_3D('',#856,#693,#694);
#573=AXIS2_PLACEMENT_3D('',#859,#697,#698);
#574=AXIS2_PLACEMENT_3D('',#860,#699,#700);
#575=AXIS2_PLACEMENT_3D('',#861,#701,#702);
#576=AXIS2_PLACEMENT_3D('',#862,#703,#704);
#577=AXIS2_PLACEMENT_3D('',#863,#705,#706);
#578=AXIS2_PLACEMENT_3D('',#867,#709,#710);
#579=AXIS2_PLACEMENT_3D('',#873,#714,#715);
#580=AXIS2_PLACEMENT_3D('',#874,#716,#717);
#581=AXIS2_PLACEMENT_3D('',#877,#719,#720);
#582=AXIS2_PLACEMENT_3D('',#878,#721,#722);
#583=AXIS2_PLACEMENT_3D('',#880,#724,#725);
#584=AXIS2_PLACEMENT_3D('',#881,#726,#727);
#585=AXIS2_PLACEMENT_3D('',#882,#728,#729);
#586=AXIS2_PLACEMENT_3D('',#883,#730,#731);
#587=AXIS2_PLACEMENT_3D('',#885,#732,#733);
#588=AXIS2_PLACEMENT_3D('',#886,#734,#735);
#589=AXIS2_PLACEMENT_3D('',#887,#736,#737);
#590=AXIS2_PLACEMENT_3D('',#888,#738,#739);
#591=AXIS2_PLACEMENT_3D('',#889,#740,#741);
#592=DIRECTION('',(0.,0.,1.));
#593=DIRECTION('',(1.,0.,0.));
#594=DIRECTION('',(0.,0.,1.));
#595=DIRECTION('',(1.,0.,0.));
#596=DIRECTION('',(0.,-1.,0.));
#597=DIRECTION('',(0.,0.,1.));
#598=DIRECTION('',(1.,0.,0.));
#599=DIRECTION('',(0.,-1.,0.));
#600=DIRECTION('',(0.,0.,1.));
#601=DIRECTION('',(1.,0.,0.));
#602=DIRECTION('',(0.,-1.,0.));
#603=DIRECTION('',(-1.,0.,0.));
#604=DIRECTION('',(0.,-1.,0.));
#605=DIRECTION('',(0.,0.,-1.));
#606=DIRECTION('',(0.999999999999998,0.,0.));
#607=DIRECTION('',(-1.,0.,0.));
#608=DIRECTION('',(0.,0.,-1.));
#609=DIRECTION('',(0.999999999999998,0.,0.));
#610=DIRECTION('',(0.,1.,0.));
#611=DIRECTION('',(-1.,0.,0.));
#612=DIRECTION('',(0.,-1.,0.));
#613=DIRECTION('',(1.,0.,0.));
#614=DIRECTION('',(0.,-1.,0.));
#615=DIRECTION('',(0.,0.,1.));
#616=DIRECTION('',(1.,0.,0.));
#617=DIRECTION('',(1.,0.,0.));
#618=DIRECTION('',(0.,0.,-1.));
#619=DIRECTION('',(1.,0.,0.));
#620=DIRECTION('',(0.,-1.,0.));
#621=DIRECTION('',(0.,0.,-1.));
#622=DIRECTION('',(1.,0.,0.));
#623=DIRECTION('',(-1.,0.,0.));
#624=DIRECTION('',(0.,0.,-1.));
#625=DIRECTION('',(1.,0.,0.));
#626=DIRECTION('',(0.,1.,0.));
#627=DIRECTION('',(0.,0.,-1.));
#628=DIRECTION('',(1.,0.,0.));
#629=DIRECTION('',(0.,0.,1.));
#630=DIRECTION('',(1.,0.,0.));
#631=DIRECTION('',(0.,0.,1.));
#632=DIRECTION('',(-0.707106781186548,0.,-0.707106781186548));
#633=DIRECTION('',(0.,0.,1.));
#634=DIRECTION('',(1.,0.,0.));
#635=DIRECTION('',(0.,0.,1.));
#636=DIRECTION('',(0.,0.,1.));
#637=DIRECTION('',(1.,0.,0.));
#638=DIRECTION('',(0.,-1.,0.));
#639=DIRECTION('',(0.,0.,-1.));
#640=DIRECTION('',(0.,1.,0.));
#641=DIRECTION('',(0.,0.,1.));
#642=DIRECTION('',(0.,-1.,0.));
#643=DIRECTION('',(-1.,0.,0.));
#644=DIRECTION('',(0.,0.,1.));
#645=DIRECTION('',(0.707106781186548,0.,0.707106781186548));
#646=DIRECTION('',(0.,0.,1.));
#647=DIRECTION('',(-1.,0.,0.));
#648=DIRECTION('',(0.,1.,0.));
#649=DIRECTION('',(0.,0.,1.));
#650=DIRECTION('',(0.,0.,-1.));
#651=DIRECTION('',(-1.,0.,0.));
#652=DIRECTION('',(0.,0.,-1.));
#653=DIRECTION('',(-1.,0.,0.));
#654=DIRECTION('',(0.,0.,-1.));
#655=DIRECTION('',(-1.,0.,0.));
#656=DIRECTION('',(0.,1.,0.));
#657=DIRECTION('',(0.,0.,-1.));
#658=DIRECTION('',(-1.,0.,0.));
#659=DIRECTION('',(1.,0.,0.));
#660=DIRECTION('',(0.,0.,-1.));
#661=DIRECTION('',(-0.707106781186548,0.,0.707106781186548));
#662=DIRECTION('',(-0.707106781186548,0.,-0.707106781186548));
#663=DIRECTION('',(-0.707106781186548,0.,0.707106781186548));
#664=DIRECTION('',(-0.707106781186548,0.,-0.707106781186548));
#665=DIRECTION('',(-0.707106781186548,0.,0.707106781186548));
#666=DIRECTION('',(-0.707106781186548,0.,-0.707106781186548));
#667=DIRECTION('',(0.707106781186548,0.,-0.707106781186548));
#668=DIRECTION('',(0.,1.,0.));
#669=DIRECTION('',(-1.,0.,0.));
#670=DIRECTION('',(0.,0.,1.));
#671=DIRECTION('',(0.,0.,-1.));
#672=DIRECTION('',(0.,-1.,0.));
#673=DIRECTION('',(0.,0.,-1.));
#674=DIRECTION('',(0.,0.,-1.));
#675=DIRECTION('',(0.,1.,0.));
#676=DIRECTION('',(0.,0.,1.));
#677=DIRECTION('',(-1.,0.,0.));
#678=DIRECTION('',(0.,0.,1.));
#679=DIRECTION('',(1.,0.,0.));
#680=DIRECTION('',(0.,0.,1.));
#681=DIRECTION('',(0.,0.,-1.));
#682=DIRECTION('',(0.,1.,0.));
#683=DIRECTION('',(0.,0.,1.));
#684=DIRECTION('',(0.,-1.,0.));
#685=DIRECTION('',(0.,0.,1.));
#686=DIRECTION('',(-1.,0.,0.));
#687=DIRECTION('',(0.,0.,1.));
#688=DIRECTION('',(-1.,0.,0.));
#689=DIRECTION('',(0.,0.,1.));
#690=DIRECTION('',(-1.,0.,0.));
#691=DIRECTION('',(0.,0.,1.));
#692=DIRECTION('',(-1.,0.,0.));
#693=DIRECTION('',(0.,0.,-1.));
#694=DIRECTION('',(-1.,0.,0.));
#695=DIRECTION('',(0.,0.,-1.));
#696=DIRECTION('',(0.,0.,1.));
#697=DIRECTION('',(1.,0.,0.));
#698=DIRECTION('',(0.,0.,-1.));
#699=DIRECTION('',(0.,0.,1.));
#700=DIRECTION('',(1.,0.,0.));
#701=DIRECTION('',(0.,0.,1.));
#702=DIRECTION('',(1.,0.,0.));
#703=DIRECTION('',(0.,0.,1.));
#704=DIRECTION('',(1.,0.,0.));
#705=DIRECTION('',(0.,0.,1.));
#706=DIRECTION('',(1.,0.,0.));
#707=DIRECTION('',(0.,1.,0.));
#708=DIRECTION('',(0.,0.,1.));
#709=DIRECTION('',(-1.,0.,0.));
#710=DIRECTION('',(0.,0.,1.));
#711=DIRECTION('',(0.,0.,-1.));
#712=DIRECTION('',(1.,0.,0.));
#713=DIRECTION('',(0.,0.,1.));
#714=DIRECTION('',(0.,1.,0.));
#715=DIRECTION('',(0.,0.,1.));
#716=DIRECTION('',(0.,0.,1.));
#717=DIRECTION('',(-0.999999999999998,0.,0.));
#718=DIRECTION('',(0.,-1.,0.));
#719=DIRECTION('',(0.,0.,1.));
#720=DIRECTION('',(-0.999999999999998,0.,0.));
#721=DIRECTION('',(0.,0.,-1.));
#722=DIRECTION('',(-1.,0.,0.));
#723=DIRECTION('',(0.,0.,-1.));
#724=DIRECTION('',(1.,0.,0.));
#725=DIRECTION('',(0.,0.,-1.));
#726=DIRECTION('',(0.,0.,1.));
#727=DIRECTION('',(0.999999999999998,0.,0.));
#728=DIRECTION('',(0.,0.,1.));
#729=DIRECTION('',(0.999999999999998,0.,0.));
#730=DIRECTION('',(0.,0.,-1.));
#731=DIRECTION('',(1.,0.,0.));
#732=DIRECTION('',(0.,0.,-1.));
#733=DIRECTION('',(-1.,0.,0.));
#734=DIRECTION('',(0.,0.,-1.));
#735=DIRECTION('',(1.,0.,0.));
#736=DIRECTION('',(0.,0.,-1.));
#737=DIRECTION('',(1.,0.,0.));
#738=DIRECTION('',(0.,0.,-1.));
#739=DIRECTION('',(1.,0.,0.));
#740=DIRECTION('',(0.,0.,-1.));
#741=DIRECTION('',(1.,0.,0.));
#742=CARTESIAN_POINT('',(0.,0.,0.));
#743=CARTESIAN_POINT('',(21.9,272.5,148.9));
#744=CARTESIAN_POINT('',(19.9,260.414368034728,148.9));
#745=CARTESIAN_POINT('',(19.9,284.585631965272,148.9));
#746=CARTESIAN_POINT('',(19.9,220.9,148.9));
#747=CARTESIAN_POINT('',(19.9,258.572410978184,148.9));
#748=CARTESIAN_POINT('',(17.,245.9,148.9));
#749=CARTESIAN_POINT('',(19.9,233.227589021816,148.9));
#750=CARTESIAN_POINT('',(19.9,220.9,148.9));
#751=CARTESIAN_POINT('',(19.9,201.562548992054,148.9));
#752=CARTESIAN_POINT('',(18.5,190.4,148.9));
#753=CARTESIAN_POINT('',(19.9,179.237451007946,148.9));
#754=CARTESIAN_POINT('',(19.9,220.9,148.9));
#755=CARTESIAN_POINT('',(19.9,0.,148.9));
#756=CARTESIAN_POINT('',(142.3,0.,148.9));
#757=CARTESIAN_POINT('',(149.3,0.,148.9));
#758=CARTESIAN_POINT('',(149.3,220.9,148.9));
#759=CARTESIAN_POINT('',(149.3,92.1,148.9));
#760=CARTESIAN_POINT('',(157.5,92.1,148.9));
#761=CARTESIAN_POINT('',(157.5,100.3,148.9));
#762=CARTESIAN_POINT('',(142.3,100.3,148.9));
#763=CARTESIAN_POINT('',(234.1,100.3,148.9));
#764=CARTESIAN_POINT('',(234.1,92.1,148.9));
#765=CARTESIAN_POINT('',(242.3,92.1,148.9));
#766=CARTESIAN_POINT('',(242.3,220.9,148.9));
#767=CARTESIAN_POINT('',(242.3,0.,148.9));
#768=CARTESIAN_POINT('',(142.3,0.,148.9));
#769=CARTESIAN_POINT('',(284.6,0.,148.9));
#770=CARTESIAN_POINT('',(284.6,220.9,148.9));
#771=CARTESIAN_POINT('',(284.6,441.8,148.9));
#772=CARTESIAN_POINT('',(142.3,441.8,148.9));
#773=CARTESIAN_POINT('',(19.9,441.8,148.9));
#774=CARTESIAN_POINT('',(19.9,220.9,148.9));
#775=CARTESIAN_POINT('',(42.6,421.6,148.9));
#776=CARTESIAN_POINT('',(50.85,421.6,148.9));
#777=CARTESIAN_POINT('',(142.3,138.3,148.9));
#778=CARTESIAN_POINT('',(76.8,138.3,148.9));
#779=CARTESIAN_POINT('',(185.3,138.3,148.9));
#780=CARTESIAN_POINT('',(76.8,146.6,148.9));
#781=CARTESIAN_POINT('',(68.5,146.6,148.9));
#782=CARTESIAN_POINT('',(68.5,220.9,148.9));
#783=CARTESIAN_POINT('',(68.5,320.7,148.9));
#784=CARTESIAN_POINT('',(76.8,320.7,148.9));
#785=CARTESIAN_POINT('',(76.8,329.,148.9));
#786=CARTESIAN_POINT('',(142.3,329.,148.9));
#787=CARTESIAN_POINT('',(185.3,329.,148.9));
#788=CARTESIAN_POINT('',(185.3,320.7,148.9));
#789=CARTESIAN_POINT('',(193.6,320.7,148.9));
#790=CARTESIAN_POINT('',(193.6,220.9,148.9));
#791=CARTESIAN_POINT('',(193.6,146.6,148.9));
#792=CARTESIAN_POINT('',(185.3,146.6,148.9));
#793=CARTESIAN_POINT('',(142.3,220.9,148.9));
#794=CARTESIAN_POINT('',(149.3,0.,111.));
#795=CARTESIAN_POINT('',(149.3,0.,111.));
#796=CARTESIAN_POINT('',(6.65000000000002,0.,135.65));
#797=CARTESIAN_POINT('',(0.,0.,129.));
#798=CARTESIAN_POINT('',(0.,0.,0.));
#799=CARTESIAN_POINT('',(0.,0.,0.));
#800=CARTESIAN_POINT('',(142.3,0.,0.));
#801=CARTESIAN_POINT('',(284.6,0.,0.));
#802=CARTESIAN_POINT('',(284.6,0.,0.));
#803=CARTESIAN_POINT('',(242.3,0.,111.));
#804=CARTESIAN_POINT('',(242.3,0.,111.));
#805=CARTESIAN_POINT('',(195.8,0.,111.));
#806=CARTESIAN_POINT('',(142.3,0.,0.));
#807=CARTESIAN_POINT('',(0.,220.9,129.));
#808=CARTESIAN_POINT('',(0.,441.8,129.));
#809=CARTESIAN_POINT('',(0.,441.8,0.));
#810=CARTESIAN_POINT('',(0.,441.8,0.));
#811=CARTESIAN_POINT('',(0.,220.9,0.));
#812=CARTESIAN_POINT('',(0.,220.9,0.));
#813=CARTESIAN_POINT('',(6.65000000000002,441.8,135.65));
#814=CARTESIAN_POINT('',(284.6,441.8,0.));
#815=CARTESIAN_POINT('',(284.6,441.8,0.));
#816=CARTESIAN_POINT('',(142.3,441.8,0.));
#817=CARTESIAN_POINT('',(142.3,441.8,0.));
#818=CARTESIAN_POINT('',(21.9,272.5,0.));
#819=CARTESIAN_POINT('',(9.65,272.5,0.));
#820=CARTESIAN_POINT('',(18.5,190.4,0.));
#821=CARTESIAN_POINT('',(7.25,190.4,0.));
#822=CARTESIAN_POINT('',(17.,245.9,0.));
#823=CARTESIAN_POINT('',(4.,245.9,0.));
#824=CARTESIAN_POINT('',(284.6,220.9,0.));
#825=CARTESIAN_POINT('',(142.3,220.9,0.));
#826=CARTESIAN_POINT('',(284.6,220.9,0.));
#827=CARTESIAN_POINT('',(21.9,272.5,150.9));
#828=CARTESIAN_POINT('',(18.5,190.4,147.5));
#829=CARTESIAN_POINT('',(17.,245.9,146.));
#830=CARTESIAN_POINT('',(0.,220.9,129.));
#831=CARTESIAN_POINT('',(131.05,138.3,111.));
#832=CARTESIAN_POINT('',(185.3,138.3,111.));
#833=CARTESIAN_POINT('',(76.8,138.3,111.));
#834=CARTESIAN_POINT('',(76.8,138.3,148.9));
#835=CARTESIAN_POINT('',(185.3,138.3,111.));
#836=CARTESIAN_POINT('',(131.05,138.3,111.));
#837=CARTESIAN_POINT('',(68.5,146.6,111.));
#838=CARTESIAN_POINT('',(68.5,146.6,111.));
#839=CARTESIAN_POINT('',(68.5,233.65,111.));
#840=CARTESIAN_POINT('',(68.5,320.7,111.));
#841=CARTESIAN_POINT('',(68.5,320.7,148.9));
#842=CARTESIAN_POINT('',(68.5,233.65,111.));
#843=CARTESIAN_POINT('',(131.05,329.,111.));
#844=CARTESIAN_POINT('',(76.8,329.,111.));
#845=CARTESIAN_POINT('',(185.3,329.,111.));
#846=CARTESIAN_POINT('',(185.3,329.,148.9));
#847=CARTESIAN_POINT('',(76.8,329.,111.));
#848=CARTESIAN_POINT('',(131.05,329.,111.));
#849=CARTESIAN_POINT('',(193.6,233.65,111.));
#850=CARTESIAN_POINT('',(193.6,320.7,111.));
#851=CARTESIAN_POINT('',(193.6,146.6,111.));
#852=CARTESIAN_POINT('',(185.3,320.7,111.));
#853=CARTESIAN_POINT('',(76.8,320.7,111.));
#854=CARTESIAN_POINT('',(76.8,146.6,111.));
#855=CARTESIAN_POINT('',(185.3,146.6,111.));
#856=CARTESIAN_POINT('',(131.05,233.65,111.));
#857=CARTESIAN_POINT('',(193.6,320.7,111.));
#858=CARTESIAN_POINT('',(193.6,146.6,148.9));
#859=CARTESIAN_POINT('',(193.6,233.65,111.));
#860=CARTESIAN_POINT('',(185.3,320.7,111.));
#861=CARTESIAN_POINT('',(76.8,146.6,111.));
#862=CARTESIAN_POINT('',(76.8,320.7,111.));
#863=CARTESIAN_POINT('',(185.3,146.6,111.));
#864=CARTESIAN_POINT('',(149.3,50.15,111.));
#865=CARTESIAN_POINT('',(149.3,92.1,111.));
#866=CARTESIAN_POINT('',(149.3,92.1,148.9));
#867=CARTESIAN_POINT('',(149.3,50.15,111.));
#868=CARTESIAN_POINT('',(157.5,100.3,111.));
#869=CARTESIAN_POINT('',(157.5,100.3,111.));
#870=CARTESIAN_POINT('',(195.8,100.3,111.));
#871=CARTESIAN_POINT('',(234.1,100.3,111.));
#872=CARTESIAN_POINT('',(234.1,100.3,148.9));
#873=CARTESIAN_POINT('',(195.8,100.3,111.));
#874=CARTESIAN_POINT('',(157.5,92.1,111.));
#875=CARTESIAN_POINT('',(242.3,50.15,111.));
#876=CARTESIAN_POINT('',(242.3,92.1,111.));
#877=CARTESIAN_POINT('',(234.1,92.1,111.));
#878=CARTESIAN_POINT('',(195.8,50.15,111.));
#879=CARTESIAN_POINT('',(242.3,92.1,111.));
#880=CARTESIAN_POINT('',(242.3,50.15,111.));
#881=CARTESIAN_POINT('',(157.5,92.1,111.));
#882=CARTESIAN_POINT('',(234.1,92.1,111.));
#883=CARTESIAN_POINT('',(42.6,421.6,92.3));
#884=CARTESIAN_POINT('',(50.85,421.6,92.3));
#885=CARTESIAN_POINT('',(42.6,421.6,92.3));
#886=CARTESIAN_POINT('',(42.6,421.6,148.95));
#887=CARTESIAN_POINT('',(17.,245.9,148.95));
#888=CARTESIAN_POINT('',(18.5,190.4,148.95));
#889=CARTESIAN_POINT('',(21.9,272.5,148.95));
#890=MECHANICAL_DESIGN_GEOMETRIC_PRESENTATION_REPRESENTATION('',(#24),#891);
#891=(
GEOMETRIC_REPRESENTATION_CONTEXT(3)
GLOBAL_UNCERTAINTY_ASSIGNED_CONTEXT((#892))
GLOBAL_UNIT_ASSIGNED_CONTEXT((#898,#894,#893))
REPRESENTATION_CONTEXT('featured_part_03602','TOP_LEVEL_ASSEMBLY_PART')
);
#892=UNCERTAINTY_MEASURE_WITH_UNIT(LENGTH_MEASURE(2.E-5),#898,
'DISTANCE_ACCURACY_VALUE','Maximum Tolerance applied to model');
#893=(
NAMED_UNIT(*)
SI_UNIT($,.STERADIAN.)
SOLID_ANGLE_UNIT()
);
#894=(
CONVERSION_BASED_UNIT('DEGREE',#896)
NAMED_UNIT(#895)
PLANE_ANGLE_UNIT()
);
#895=DIMENSIONAL_EXPONENTS(0.,0.,0.,0.,0.,0.,0.);
#896=PLANE_ANGLE_MEASURE_WITH_UNIT(PLANE_ANGLE_MEASURE(0.0174532925),#897);
#897=(
NAMED_UNIT(*)
PLANE_ANGLE_UNIT()
SI_UNIT($,.RADIAN.)
);
#898=(
LENGTH_UNIT()
NAMED_UNIT(*)
SI_UNIT(.MILLI.,.METRE.)
);
ENDSEC;
END-ISO-10303-21;
