ISO-10303-21;
HEADER;
/* Generated by software containing ST-Developer
 * from STEP Tools, Inc. (www.steptools.com) 
 */
/* OPTION: using custom schema-name function */

FILE_DESCRIPTION(
/* description */ (''),
/* implementation_level */ '2;1');

FILE_NAME(
/* name */ 'featured_part_00073.stp',
/* time_stamp */ '2026-06-30T18:28:51-04:00',
/* author */ (''),
/* organization */ (''),
/* preprocessor_version */ 'ST-DEVELOPER v20.1',
/* originating_system */ 'SIEMENS PLM Software NX2512.6002',
/* authorisation */ '');

FILE_SCHEMA (('AUTOMOTIVE_DESIGN { 1 0 10303 214 3 1 1 1 }'));
ENDSEC;

DATA;
#10=SHAPE_REPRESENTATION_RELATIONSHIP('None',
'relationship between featured_part_00073-None and featured_part_00073
-None',#22,#11);
#11=ADVANCED_BREP_SHAPE_REPRESENTATION('featured_part_00073-None',(#32),
#824);
#12=SHAPE_DEFINITION_REPRESENTATION(#13,#22);
#13=PRODUCT_DEFINITION_SHAPE('','',#14);
#14=PRODUCT_DEFINITION(' ','',#16,#15);
#15=PRODUCT_DEFINITION_CONTEXT('part definition',#21,'design');
#16=PRODUCT_DEFINITION_FORMATION_WITH_SPECIFIED_SOURCE(' ',' ',#18,
 .NOT_KNOWN.);
#17=PRODUCT_RELATED_PRODUCT_CATEGORY('part','',(#18));
#18=PRODUCT('featured_part_00073','featured_part_00073',' ',(#19));
#19=PRODUCT_CONTEXT(' ',#21,'mechanical');
#20=APPLICATION_PROTOCOL_DEFINITION('international standard',
'automotive_design',2010,#21);
#21=APPLICATION_CONTEXT(
'core data for automotive mechanical design processes');
#22=SHAPE_REPRESENTATION('featured_part_00073-None',(#501),#824);
#23=PRESENTATION_LAYER_ASSIGNMENT('1','Layer 1',(#32));
#24=STYLED_ITEM('',(#25),#32);
#25=PRESENTATION_STYLE_ASSIGNMENT((#26));
#26=SURFACE_STYLE_USAGE(.BOTH.,#27);
#27=SURFACE_SIDE_STYLE('',(#28));
#28=SURFACE_STYLE_FILL_AREA(#29);
#29=FILL_AREA_STYLE('',(#30));
#30=FILL_AREA_STYLE_COLOUR('',#31);
#31=COLOUR_RGB('medium steel',0.611764705882353,0.658823529411765,0.670588235294118);
#32=MANIFOLD_SOLID_BREP('',#33);
#33=CLOSED_SHELL('',(#67,#68,#69,#70,#71,#72,#73,#74,#75,#76,#77,#78,#79,
#80,#81,#82,#83,#84,#85,#86,#87,#88,#89,#90,#91,#92,#93));
#34=CYLINDRICAL_SURFACE('',#527,9.7);
#35=CYLINDRICAL_SURFACE('',#528,9.7);
#36=CYLINDRICAL_SURFACE('',#529,9.7);
#37=CYLINDRICAL_SURFACE('',#530,9.7);
#38=CYLINDRICAL_SURFACE('',#540,6.6);
#39=CYLINDRICAL_SURFACE('',#541,6.6);
#40=CYLINDRICAL_SURFACE('',#542,6.6);
#41=CYLINDRICAL_SURFACE('',#543,6.6);
#42=CYLINDRICAL_SURFACE('',#546,3.75);
#43=ELLIPSE('',#512,5.30330085889911,3.75);
#44=FACE_OUTER_BOUND('',#122,.T.);
#45=FACE_OUTER_BOUND('',#123,.T.);
#46=FACE_OUTER_BOUND('',#124,.T.);
#47=FACE_OUTER_BOUND('',#125,.T.);
#48=FACE_OUTER_BOUND('',#126,.T.);
#49=FACE_OUTER_BOUND('',#129,.T.);
#50=FACE_OUTER_BOUND('',#130,.T.);
#51=FACE_OUTER_BOUND('',#131,.T.);
#52=FACE_OUTER_BOUND('',#134,.T.);
#53=FACE_OUTER_BOUND('',#135,.T.);
#54=FACE_OUTER_BOUND('',#136,.T.);
#55=FACE_OUTER_BOUND('',#137,.T.);
#56=FACE_OUTER_BOUND('',#138,.T.);
#57=FACE_OUTER_BOUND('',#139,.T.);
#58=FACE_OUTER_BOUND('',#140,.T.);
#59=FACE_OUTER_BOUND('',#141,.T.);
#60=FACE_OUTER_BOUND('',#142,.T.);
#61=FACE_OUTER_BOUND('',#143,.T.);
#62=FACE_OUTER_BOUND('',#144,.T.);
#63=FACE_OUTER_BOUND('',#145,.T.);
#64=FACE_OUTER_BOUND('',#146,.T.);
#65=FACE_OUTER_BOUND('',#147,.T.);
#66=FACE_OUTER_BOUND('',#148,.T.);
#67=ADVANCED_FACE('',(#112,#113),#94,.T.);
#68=ADVANCED_FACE('',(#44),#95,.T.);
#69=ADVANCED_FACE('',(#45),#96,.T.);
#70=ADVANCED_FACE('',(#46),#97,.T.);
#71=ADVANCED_FACE('',(#47),#98,.T.);
#72=ADVANCED_FACE('',(#48),#99,.T.);
#73=ADVANCED_FACE('',(#114,#115),#100,.F.);
#74=ADVANCED_FACE('',(#49),#101,.F.);
#75=ADVANCED_FACE('',(#50),#102,.F.);
#76=ADVANCED_FACE('',(#51),#103,.F.);
#77=ADVANCED_FACE('',(#116,#117),#104,.F.);
#78=ADVANCED_FACE('',(#52),#105,.F.);
#79=ADVANCED_FACE('',(#53),#34,.F.);
#80=ADVANCED_FACE('',(#54),#35,.F.);
#81=ADVANCED_FACE('',(#55),#36,.F.);
#82=ADVANCED_FACE('',(#56),#37,.F.);
#83=ADVANCED_FACE('',(#57),#106,.F.);
#84=ADVANCED_FACE('',(#58),#107,.F.);
#85=ADVANCED_FACE('',(#59),#108,.F.);
#86=ADVANCED_FACE('',(#60),#109,.F.);
#87=ADVANCED_FACE('',(#61),#110,.F.);
#88=ADVANCED_FACE('',(#62),#38,.F.);
#89=ADVANCED_FACE('',(#63),#39,.F.);
#90=ADVANCED_FACE('',(#64),#40,.F.);
#91=ADVANCED_FACE('',(#65),#41,.F.);
#92=ADVANCED_FACE('',(#66),#111,.F.);
#93=ADVANCED_FACE('',(#118,#119),#42,.F.);
#94=PLANE('',#506);
#95=PLANE('',#507);
#96=PLANE('',#508);
#97=PLANE('',#509);
#98=PLANE('',#510);
#99=PLANE('',#511);
#100=PLANE('',#513);
#101=PLANE('',#514);
#102=PLANE('',#515);
#103=PLANE('',#516);
#104=PLANE('',#525);
#105=PLANE('',#526);
#106=PLANE('',#531);
#107=PLANE('',#532);
#108=PLANE('',#533);
#109=PLANE('',#534);
#110=PLANE('',#539);
#111=PLANE('',#545);
#112=FACE_BOUND('',#120,.T.);
#113=FACE_BOUND('',#121,.T.);
#114=FACE_BOUND('',#127,.T.);
#115=FACE_BOUND('',#128,.T.);
#116=FACE_BOUND('',#132,.T.);
#117=FACE_BOUND('',#133,.T.);
#118=FACE_BOUND('',#149,.T.);
#119=FACE_BOUND('',#150,.T.);
#120=EDGE_LOOP('',(#168,#169,#170,#171,#172,#173,#174,#175));
#121=EDGE_LOOP('',(#176,#177,#178,#179));
#122=EDGE_LOOP('',(#180,#181,#182,#183));
#123=EDGE_LOOP('',(#184,#185,#186,#187,#188));
#124=EDGE_LOOP('',(#189,#190,#191,#192));
#125=EDGE_LOOP('',(#193,#194,#195,#196));
#126=EDGE_LOOP('',(#197,#198,#199,#200,#201));
#127=EDGE_LOOP('',(#202));
#128=EDGE_LOOP('',(#203,#204,#205,#206));
#129=EDGE_LOOP('',(#207,#208,#209,#210));
#130=EDGE_LOOP('',(#211,#212,#213,#214));
#131=EDGE_LOOP('',(#215,#216,#217,#218));
#132=EDGE_LOOP('',(#219,#220,#221,#222,#223,#224,#225,#226));
#133=EDGE_LOOP('',(#227,#228,#229,#230,#231,#232,#233,#234));
#134=EDGE_LOOP('',(#235,#236,#237,#238));
#135=EDGE_LOOP('',(#239,#240,#241,#242));
#136=EDGE_LOOP('',(#243,#244,#245,#246));
#137=EDGE_LOOP('',(#247,#248,#249,#250));
#138=EDGE_LOOP('',(#251,#252,#253,#254));
#139=EDGE_LOOP('',(#255,#256,#257,#258));
#140=EDGE_LOOP('',(#259,#260,#261,#262));
#141=EDGE_LOOP('',(#263,#264,#265,#266));
#142=EDGE_LOOP('',(#267,#268,#269,#270));
#143=EDGE_LOOP('',(#271,#272,#273,#274,#275,#276,#277,#278));
#144=EDGE_LOOP('',(#279,#280,#281,#282));
#145=EDGE_LOOP('',(#283,#284,#285,#286));
#146=EDGE_LOOP('',(#287,#288,#289,#290));
#147=EDGE_LOOP('',(#291,#292,#293,#294));
#148=EDGE_LOOP('',(#295));
#149=EDGE_LOOP('',(#296));
#150=EDGE_LOOP('',(#297));
#151=CIRCLE('',#502,9.7);
#152=CIRCLE('',#503,9.7);
#153=CIRCLE('',#504,9.7);
#154=CIRCLE('',#505,9.7);
#155=CIRCLE('',#517,6.6);
#156=CIRCLE('',#518,6.6);
#157=CIRCLE('',#519,6.6);
#158=CIRCLE('',#520,6.6);
#159=CIRCLE('',#521,9.7);
#160=CIRCLE('',#522,9.7);
#161=CIRCLE('',#523,9.7);
#162=CIRCLE('',#524,9.7);
#163=CIRCLE('',#535,6.6);
#164=CIRCLE('',#536,6.6);
#165=CIRCLE('',#537,6.6);
#166=CIRCLE('',#538,6.6);
#167=CIRCLE('',#544,3.75);
#168=ORIENTED_EDGE('',*,*,#342,.F.);
#169=ORIENTED_EDGE('',*,*,#343,.T.);
#170=ORIENTED_EDGE('',*,*,#344,.F.);
#171=ORIENTED_EDGE('',*,*,#345,.T.);
#172=ORIENTED_EDGE('',*,*,#346,.F.);
#173=ORIENTED_EDGE('',*,*,#347,.T.);
#174=ORIENTED_EDGE('',*,*,#348,.F.);
#175=ORIENTED_EDGE('',*,*,#349,.T.);
#176=ORIENTED_EDGE('',*,*,#350,.F.);
#177=ORIENTED_EDGE('',*,*,#351,.T.);
#178=ORIENTED_EDGE('',*,*,#352,.F.);
#179=ORIENTED_EDGE('',*,*,#353,.F.);
#180=ORIENTED_EDGE('',*,*,#354,.T.);
#181=ORIENTED_EDGE('',*,*,#355,.T.);
#182=ORIENTED_EDGE('',*,*,#356,.F.);
#183=ORIENTED_EDGE('',*,*,#357,.T.);
#184=ORIENTED_EDGE('',*,*,#356,.T.);
#185=ORIENTED_EDGE('',*,*,#358,.T.);
#186=ORIENTED_EDGE('',*,*,#350,.T.);
#187=ORIENTED_EDGE('',*,*,#359,.F.);
#188=ORIENTED_EDGE('',*,*,#360,.T.);
#189=ORIENTED_EDGE('',*,*,#359,.T.);
#190=ORIENTED_EDGE('',*,*,#353,.T.);
#191=ORIENTED_EDGE('',*,*,#361,.F.);
#192=ORIENTED_EDGE('',*,*,#362,.T.);
#193=ORIENTED_EDGE('',*,*,#363,.F.);
#194=ORIENTED_EDGE('',*,*,#357,.F.);
#195=ORIENTED_EDGE('',*,*,#360,.F.);
#196=ORIENTED_EDGE('',*,*,#362,.F.);
#197=ORIENTED_EDGE('',*,*,#352,.T.);
#198=ORIENTED_EDGE('',*,*,#364,.T.);
#199=ORIENTED_EDGE('',*,*,#354,.F.);
#200=ORIENTED_EDGE('',*,*,#363,.T.);
#201=ORIENTED_EDGE('',*,*,#361,.T.);
#202=ORIENTED_EDGE('',*,*,#365,.F.);
#203=ORIENTED_EDGE('',*,*,#364,.F.);
#204=ORIENTED_EDGE('',*,*,#351,.F.);
#205=ORIENTED_EDGE('',*,*,#358,.F.);
#206=ORIENTED_EDGE('',*,*,#355,.F.);
#207=ORIENTED_EDGE('',*,*,#366,.T.);
#208=ORIENTED_EDGE('',*,*,#367,.T.);
#209=ORIENTED_EDGE('',*,*,#342,.T.);
#210=ORIENTED_EDGE('',*,*,#368,.T.);
#211=ORIENTED_EDGE('',*,*,#344,.T.);
#212=ORIENTED_EDGE('',*,*,#369,.T.);
#213=ORIENTED_EDGE('',*,*,#370,.T.);
#214=ORIENTED_EDGE('',*,*,#371,.T.);
#215=ORIENTED_EDGE('',*,*,#346,.T.);
#216=ORIENTED_EDGE('',*,*,#372,.T.);
#217=ORIENTED_EDGE('',*,*,#373,.T.);
#218=ORIENTED_EDGE('',*,*,#374,.T.);
#219=ORIENTED_EDGE('',*,*,#375,.T.);
#220=ORIENTED_EDGE('',*,*,#376,.T.);
#221=ORIENTED_EDGE('',*,*,#377,.T.);
#222=ORIENTED_EDGE('',*,*,#378,.T.);
#223=ORIENTED_EDGE('',*,*,#379,.T.);
#224=ORIENTED_EDGE('',*,*,#380,.T.);
#225=ORIENTED_EDGE('',*,*,#381,.T.);
#226=ORIENTED_EDGE('',*,*,#382,.T.);
#227=ORIENTED_EDGE('',*,*,#370,.F.);
#228=ORIENTED_EDGE('',*,*,#383,.T.);
#229=ORIENTED_EDGE('',*,*,#366,.F.);
#230=ORIENTED_EDGE('',*,*,#384,.T.);
#231=ORIENTED_EDGE('',*,*,#385,.F.);
#232=ORIENTED_EDGE('',*,*,#386,.T.);
#233=ORIENTED_EDGE('',*,*,#373,.F.);
#234=ORIENTED_EDGE('',*,*,#387,.T.);
#235=ORIENTED_EDGE('',*,*,#385,.T.);
#236=ORIENTED_EDGE('',*,*,#388,.T.);
#237=ORIENTED_EDGE('',*,*,#348,.T.);
#238=ORIENTED_EDGE('',*,*,#389,.T.);
#239=ORIENTED_EDGE('',*,*,#343,.F.);
#240=ORIENTED_EDGE('',*,*,#367,.F.);
#241=ORIENTED_EDGE('',*,*,#383,.F.);
#242=ORIENTED_EDGE('',*,*,#369,.F.);
#243=ORIENTED_EDGE('',*,*,#349,.F.);
#244=ORIENTED_EDGE('',*,*,#388,.F.);
#245=ORIENTED_EDGE('',*,*,#384,.F.);
#246=ORIENTED_EDGE('',*,*,#368,.F.);
#247=ORIENTED_EDGE('',*,*,#345,.F.);
#248=ORIENTED_EDGE('',*,*,#371,.F.);
#249=ORIENTED_EDGE('',*,*,#387,.F.);
#250=ORIENTED_EDGE('',*,*,#372,.F.);
#251=ORIENTED_EDGE('',*,*,#347,.F.);
#252=ORIENTED_EDGE('',*,*,#374,.F.);
#253=ORIENTED_EDGE('',*,*,#386,.F.);
#254=ORIENTED_EDGE('',*,*,#389,.F.);
#255=ORIENTED_EDGE('',*,*,#390,.T.);
#256=ORIENTED_EDGE('',*,*,#391,.T.);
#257=ORIENTED_EDGE('',*,*,#379,.F.);
#258=ORIENTED_EDGE('',*,*,#392,.T.);
#259=ORIENTED_EDGE('',*,*,#393,.T.);
#260=ORIENTED_EDGE('',*,*,#394,.T.);
#261=ORIENTED_EDGE('',*,*,#381,.F.);
#262=ORIENTED_EDGE('',*,*,#395,.T.);
#263=ORIENTED_EDGE('',*,*,#375,.F.);
#264=ORIENTED_EDGE('',*,*,#396,.T.);
#265=ORIENTED_EDGE('',*,*,#397,.T.);
#266=ORIENTED_EDGE('',*,*,#398,.T.);
#267=ORIENTED_EDGE('',*,*,#399,.T.);
#268=ORIENTED_EDGE('',*,*,#400,.T.);
#269=ORIENTED_EDGE('',*,*,#377,.F.);
#270=ORIENTED_EDGE('',*,*,#401,.T.);
#271=ORIENTED_EDGE('',*,*,#397,.F.);
#272=ORIENTED_EDGE('',*,*,#402,.T.);
#273=ORIENTED_EDGE('',*,*,#393,.F.);
#274=ORIENTED_EDGE('',*,*,#403,.T.);
#275=ORIENTED_EDGE('',*,*,#390,.F.);
#276=ORIENTED_EDGE('',*,*,#404,.T.);
#277=ORIENTED_EDGE('',*,*,#399,.F.);
#278=ORIENTED_EDGE('',*,*,#405,.T.);
#279=ORIENTED_EDGE('',*,*,#382,.F.);
#280=ORIENTED_EDGE('',*,*,#394,.F.);
#281=ORIENTED_EDGE('',*,*,#402,.F.);
#282=ORIENTED_EDGE('',*,*,#396,.F.);
#283=ORIENTED_EDGE('',*,*,#380,.F.);
#284=ORIENTED_EDGE('',*,*,#391,.F.);
#285=ORIENTED_EDGE('',*,*,#403,.F.);
#286=ORIENTED_EDGE('',*,*,#395,.F.);
#287=ORIENTED_EDGE('',*,*,#378,.F.);
#288=ORIENTED_EDGE('',*,*,#400,.F.);
#289=ORIENTED_EDGE('',*,*,#404,.F.);
#290=ORIENTED_EDGE('',*,*,#392,.F.);
#291=ORIENTED_EDGE('',*,*,#376,.F.);
#292=ORIENTED_EDGE('',*,*,#398,.F.);
#293=ORIENTED_EDGE('',*,*,#405,.F.);
#294=ORIENTED_EDGE('',*,*,#401,.F.);
#295=ORIENTED_EDGE('',*,*,#406,.F.);
#296=ORIENTED_EDGE('',*,*,#365,.T.);
#297=ORIENTED_EDGE('',*,*,#406,.T.);
#298=VERTEX_POINT('',#688);
#299=VERTEX_POINT('',#689);
#300=VERTEX_POINT('',#691);
#301=VERTEX_POINT('',#693);
#302=VERTEX_POINT('',#695);
#303=VERTEX_POINT('',#697);
#304=VERTEX_POINT('',#699);
#305=VERTEX_POINT('',#701);
#306=VERTEX_POINT('',#704);
#307=VERTEX_POINT('',#705);
#308=VERTEX_POINT('',#707);
#309=VERTEX_POINT('',#709);
#310=VERTEX_POINT('',#713);
#311=VERTEX_POINT('',#714);
#312=VERTEX_POINT('',#716);
#313=VERTEX_POINT('',#718);
#314=VERTEX_POINT('',#723);
#315=VERTEX_POINT('',#727);
#316=VERTEX_POINT('',#735);
#317=VERTEX_POINT('',#738);
#318=VERTEX_POINT('',#739);
#319=VERTEX_POINT('',#744);
#320=VERTEX_POINT('',#746);
#321=VERTEX_POINT('',#750);
#322=VERTEX_POINT('',#752);
#323=VERTEX_POINT('',#756);
#324=VERTEX_POINT('',#757);
#325=VERTEX_POINT('',#759);
#326=VERTEX_POINT('',#761);
#327=VERTEX_POINT('',#763);
#328=VERTEX_POINT('',#765);
#329=VERTEX_POINT('',#767);
#330=VERTEX_POINT('',#769);
#331=VERTEX_POINT('',#773);
#332=VERTEX_POINT('',#775);
#333=VERTEX_POINT('',#787);
#334=VERTEX_POINT('',#788);
#335=VERTEX_POINT('',#793);
#336=VERTEX_POINT('',#794);
#337=VERTEX_POINT('',#799);
#338=VERTEX_POINT('',#801);
#339=VERTEX_POINT('',#805);
#340=VERTEX_POINT('',#806);
#341=VERTEX_POINT('',#820);
#342=EDGE_CURVE('',#298,#299,#407,.T.);
#343=EDGE_CURVE('',#298,#300,#151,.T.);
#344=EDGE_CURVE('',#301,#300,#408,.T.);
#345=EDGE_CURVE('',#301,#302,#152,.T.);
#346=EDGE_CURVE('',#303,#302,#409,.T.);
#347=EDGE_CURVE('',#303,#304,#153,.T.);
#348=EDGE_CURVE('',#305,#304,#410,.T.);
#349=EDGE_CURVE('',#305,#299,#154,.T.);
#350=EDGE_CURVE('',#306,#307,#411,.T.);
#351=EDGE_CURVE('',#306,#308,#412,.T.);
#352=EDGE_CURVE('',#309,#308,#413,.T.);
#353=EDGE_CURVE('',#307,#309,#414,.T.);
#354=EDGE_CURVE('',#310,#311,#415,.T.);
#355=EDGE_CURVE('',#311,#312,#416,.T.);
#356=EDGE_CURVE('',#313,#312,#417,.T.);
#357=EDGE_CURVE('',#313,#310,#418,.T.);
#358=EDGE_CURVE('',#312,#306,#419,.T.);
#359=EDGE_CURVE('',#314,#307,#420,.T.);
#360=EDGE_CURVE('',#314,#313,#421,.T.);
#361=EDGE_CURVE('',#315,#309,#422,.T.);
#362=EDGE_CURVE('',#315,#314,#423,.T.);
#363=EDGE_CURVE('',#310,#315,#424,.T.);
#364=EDGE_CURVE('',#308,#311,#425,.T.);
#365=EDGE_CURVE('',#316,#316,#43,.T.);
#366=EDGE_CURVE('',#317,#318,#426,.T.);
#367=EDGE_CURVE('',#318,#298,#427,.T.);
#368=EDGE_CURVE('',#299,#317,#428,.T.);
#369=EDGE_CURVE('',#300,#319,#429,.T.);
#370=EDGE_CURVE('',#319,#320,#430,.T.);
#371=EDGE_CURVE('',#320,#301,#431,.T.);
#372=EDGE_CURVE('',#302,#321,#432,.T.);
#373=EDGE_CURVE('',#321,#322,#433,.T.);
#374=EDGE_CURVE('',#322,#303,#434,.T.);
#375=EDGE_CURVE('',#323,#324,#435,.T.);
#376=EDGE_CURVE('',#324,#325,#155,.T.);
#377=EDGE_CURVE('',#325,#326,#436,.T.);
#378=EDGE_CURVE('',#326,#327,#156,.T.);
#379=EDGE_CURVE('',#327,#328,#437,.T.);
#380=EDGE_CURVE('',#328,#329,#157,.T.);
#381=EDGE_CURVE('',#329,#330,#438,.T.);
#382=EDGE_CURVE('',#330,#323,#158,.T.);
#383=EDGE_CURVE('',#319,#318,#159,.T.);
#384=EDGE_CURVE('',#317,#331,#160,.T.);
#385=EDGE_CURVE('',#332,#331,#439,.T.);
#386=EDGE_CURVE('',#332,#322,#161,.T.);
#387=EDGE_CURVE('',#321,#320,#162,.T.);
#388=EDGE_CURVE('',#331,#305,#440,.T.);
#389=EDGE_CURVE('',#304,#332,#441,.T.);
#390=EDGE_CURVE('',#333,#334,#442,.T.);
#391=EDGE_CURVE('',#334,#328,#443,.T.);
#392=EDGE_CURVE('',#327,#333,#444,.T.);
#393=EDGE_CURVE('',#335,#336,#445,.T.);
#394=EDGE_CURVE('',#336,#330,#446,.T.);
#395=EDGE_CURVE('',#329,#335,#447,.T.);
#396=EDGE_CURVE('',#323,#337,#448,.T.);
#397=EDGE_CURVE('',#337,#338,#449,.T.);
#398=EDGE_CURVE('',#338,#324,#450,.T.);
#399=EDGE_CURVE('',#339,#340,#451,.T.);
#400=EDGE_CURVE('',#340,#326,#452,.T.);
#401=EDGE_CURVE('',#325,#339,#453,.T.);
#402=EDGE_CURVE('',#337,#336,#163,.T.);
#403=EDGE_CURVE('',#335,#334,#164,.T.);
#404=EDGE_CURVE('',#333,#340,#165,.T.);
#405=EDGE_CURVE('',#339,#338,#166,.T.);
#406=EDGE_CURVE('',#341,#341,#167,.T.);
#407=LINE('',#687,#454);
#408=LINE('',#692,#455);
#409=LINE('',#696,#456);
#410=LINE('',#700,#457);
#411=LINE('',#703,#458);
#412=LINE('',#706,#459);
#413=LINE('',#708,#460);
#414=LINE('',#710,#461);
#415=LINE('',#712,#462);
#416=LINE('',#715,#463);
#417=LINE('',#717,#464);
#418=LINE('',#719,#465);
#419=LINE('',#721,#466);
#420=LINE('',#722,#467);
#421=LINE('',#724,#468);
#422=LINE('',#726,#469);
#423=LINE('',#728,#470);
#424=LINE('',#730,#471);
#425=LINE('',#732,#472);
#426=LINE('',#737,#473);
#427=LINE('',#740,#474);
#428=LINE('',#741,#475);
#429=LINE('',#743,#476);
#430=LINE('',#745,#477);
#431=LINE('',#747,#478);
#432=LINE('',#749,#479);
#433=LINE('',#751,#480);
#434=LINE('',#753,#481);
#435=LINE('',#755,#482);
#436=LINE('',#760,#483);
#437=LINE('',#764,#484);
#438=LINE('',#768,#485);
#439=LINE('',#774,#486);
#440=LINE('',#779,#487);
#441=LINE('',#780,#488);
#442=LINE('',#786,#489);
#443=LINE('',#789,#490);
#444=LINE('',#790,#491);
#445=LINE('',#792,#492);
#446=LINE('',#795,#493);
#447=LINE('',#796,#494);
#448=LINE('',#798,#495);
#449=LINE('',#800,#496);
#450=LINE('',#802,#497);
#451=LINE('',#804,#498);
#452=LINE('',#807,#499);
#453=LINE('',#808,#500);
#454=VECTOR('',#549,1.);
#455=VECTOR('',#552,1.);
#456=VECTOR('',#555,1.);
#457=VECTOR('',#558,1.);
#458=VECTOR('',#561,1.);
#459=VECTOR('',#562,1.);
#460=VECTOR('',#563,1.);
#461=VECTOR('',#564,1.);
#462=VECTOR('',#567,1.);
#463=VECTOR('',#568,1.);
#464=VECTOR('',#569,1.);
#465=VECTOR('',#570,1.);
#466=VECTOR('',#573,1.);
#467=VECTOR('',#574,1.);
#468=VECTOR('',#575,1.);
#469=VECTOR('',#578,1.);
#470=VECTOR('',#579,1.);
#471=VECTOR('',#582,1.);
#472=VECTOR('',#585,1.);
#473=VECTOR('',#592,1.);
#474=VECTOR('',#593,1.);
#475=VECTOR('',#594,1.);
#476=VECTOR('',#597,1.);
#477=VECTOR('',#598,1.);
#478=VECTOR('',#599,1.);
#479=VECTOR('',#602,1.);
#480=VECTOR('',#603,1.);
#481=VECTOR('',#604,1.);
#482=VECTOR('',#607,1.);
#483=VECTOR('',#610,1.);
#484=VECTOR('',#613,1.);
#485=VECTOR('',#616,1.);
#486=VECTOR('',#623,1.);
#487=VECTOR('',#630,1.);
#488=VECTOR('',#631,1.);
#489=VECTOR('',#642,1.);
#490=VECTOR('',#643,1.);
#491=VECTOR('',#644,1.);
#492=VECTOR('',#647,1.);
#493=VECTOR('',#648,1.);
#494=VECTOR('',#649,1.);
#495=VECTOR('',#652,1.);
#496=VECTOR('',#653,1.);
#497=VECTOR('',#654,1.);
#498=VECTOR('',#657,1.);
#499=VECTOR('',#658,1.);
#500=VECTOR('',#659,1.);
#501=AXIS2_PLACEMENT_3D('',#686,#547,#548);
#502=AXIS2_PLACEMENT_3D('',#690,#550,#551);
#503=AXIS2_PLACEMENT_3D('',#694,#553,#554);
#504=AXIS2_PLACEMENT_3D('',#698,#556,#557);
#505=AXIS2_PLACEMENT_3D('',#702,#559,#560);
#506=AXIS2_PLACEMENT_3D('',#711,#565,#566);
#507=AXIS2_PLACEMENT_3D('',#720,#571,#572);
#508=AXIS2_PLACEMENT_3D('',#725,#576,#577);
#509=AXIS2_PLACEMENT_3D('',#729,#580,#581);
#510=AXIS2_PLACEMENT_3D('',#731,#583,#584);
#511=AXIS2_PLACEMENT_3D('',#733,#586,#587);
#512=AXIS2_PLACEMENT_3D('',#734,#588,#589);
#513=AXIS2_PLACEMENT_3D('',#736,#590,#591);
#514=AXIS2_PLACEMENT_3D('',#742,#595,#596);
#515=AXIS2_PLACEMENT_3D('',#748,#600,#601);
#516=AXIS2_PLACEMENT_3D('',#754,#605,#606);
#517=AXIS2_PLACEMENT_3D('',#758,#608,#609);
#518=AXIS2_PLACEMENT_3D('',#762,#611,#612);
#519=AXIS2_PLACEMENT_3D('',#766,#614,#615);
#520=AXIS2_PLACEMENT_3D('',#770,#617,#618);
#521=AXIS2_PLACEMENT_3D('',#771,#619,#620);
#522=AXIS2_PLACEMENT_3D('',#772,#621,#622);
#523=AXIS2_PLACEMENT_3D('',#776,#624,#625);
#524=AXIS2_PLACEMENT_3D('',#777,#626,#627);
#525=AXIS2_PLACEMENT_3D('',#778,#628,#629);
#526=AXIS2_PLACEMENT_3D('',#781,#632,#633);
#527=AXIS2_PLACEMENT_3D('',#782,#634,#635);
#528=AXIS2_PLACEMENT_3D('',#783,#636,#637);
#529=AXIS2_PLACEMENT_3D('',#784,#638,#639);
#530=AXIS2_PLACEMENT_3D('',#785,#640,#641);
#531=AXIS2_PLACEMENT_3D('',#791,#645,#646);
#532=AXIS2_PLACEMENT_3D('',#797,#650,#651);
#533=AXIS2_PLACEMENT_3D('',#803,#655,#656);
#534=AXIS2_PLACEMENT_3D('',#809,#660,#661);
#535=AXIS2_PLACEMENT_3D('',#810,#662,#663);
#536=AXIS2_PLACEMENT_3D('',#811,#664,#665);
#537=AXIS2_PLACEMENT_3D('',#812,#666,#667);
#538=AXIS2_PLACEMENT_3D('',#813,#668,#669);
#539=AXIS2_PLACEMENT_3D('',#814,#670,#671);
#540=AXIS2_PLACEMENT_3D('',#815,#672,#673);
#541=AXIS2_PLACEMENT_3D('',#816,#674,#675);
#542=AXIS2_PLACEMENT_3D('',#817,#676,#677);
#543=AXIS2_PLACEMENT_3D('',#818,#678,#679);
#544=AXIS2_PLACEMENT_3D('',#819,#680,#681);
#545=AXIS2_PLACEMENT_3D('',#821,#682,#683);
#546=AXIS2_PLACEMENT_3D('',#822,#684,#685);
#547=DIRECTION('',(0.,0.,1.));
#548=DIRECTION('',(1.,0.,0.));
#549=DIRECTION('',(1.,0.,0.));
#550=DIRECTION('',(0.,0.,-1.));
#551=DIRECTION('',(0.999999999999999,0.,0.));
#552=DIRECTION('',(0.,-1.,0.));
#553=DIRECTION('',(0.,0.,-1.));
#554=DIRECTION('',(0.999999999999999,0.,0.));
#555=DIRECTION('',(-1.,0.,0.));
#556=DIRECTION('',(0.,0.,-1.));
#557=DIRECTION('',(0.999999999999999,0.,0.));
#558=DIRECTION('',(0.,1.,0.));
#559=DIRECTION('',(0.,0.,-1.));
#560=DIRECTION('',(0.999999999999999,0.,0.));
#561=DIRECTION('',(0.,1.,0.));
#562=DIRECTION('',(1.,0.,0.));
#563=DIRECTION('',(0.,-1.,0.));
#564=DIRECTION('',(1.,0.,0.));
#565=DIRECTION('',(0.,0.,1.));
#566=DIRECTION('',(1.,0.,0.));
#567=DIRECTION('',(0.,0.,1.));
#568=DIRECTION('',(-1.,0.,0.));
#569=DIRECTION('',(0.,0.,1.));
#570=DIRECTION('',(1.,0.,0.));
#571=DIRECTION('',(0.,-1.,0.));
#572=DIRECTION('',(0.,0.,-1.));
#573=DIRECTION('',(0.,0.707106781186548,0.707106781186548));
#574=DIRECTION('',(0.,0.,1.));
#575=DIRECTION('',(0.,-1.,0.));
#576=DIRECTION('',(-1.,0.,0.));
#577=DIRECTION('',(0.,0.,1.));
#578=DIRECTION('',(0.,0.,1.));
#579=DIRECTION('',(-1.,0.,0.));
#580=DIRECTION('',(0.,1.,0.));
#581=DIRECTION('',(0.,0.,1.));
#582=DIRECTION('',(0.,1.,0.));
#583=DIRECTION('',(0.,0.,-1.));
#584=DIRECTION('',(-1.,0.,0.));
#585=DIRECTION('',(0.,-0.707106781186548,-0.707106781186548));
#586=DIRECTION('',(1.,0.,0.));
#587=DIRECTION('',(0.,0.,-1.));
#588=DIRECTION('',(0.,-0.707106781186548,0.707106781186548));
#589=DIRECTION('',(0.,-0.707106781186548,-0.707106781186548));
#590=DIRECTION('',(0.,0.707106781186548,-0.707106781186548));
#591=DIRECTION('',(-1.,0.,0.));
#592=DIRECTION('',(-1.,0.,0.));
#593=DIRECTION('',(0.,0.,1.));
#594=DIRECTION('',(0.,0.,-1.));
#595=DIRECTION('',(0.,-1.,0.));
#596=DIRECTION('',(0.,0.,-1.));
#597=DIRECTION('',(0.,0.,-1.));
#598=DIRECTION('',(0.,1.,0.));
#599=DIRECTION('',(0.,0.,1.));
#600=DIRECTION('',(-1.,0.,0.));
#601=DIRECTION('',(0.,0.,1.));
#602=DIRECTION('',(0.,0.,-1.));
#603=DIRECTION('',(1.,0.,0.));
#604=DIRECTION('',(0.,0.,1.));
#605=DIRECTION('',(0.,1.,0.));
#606=DIRECTION('',(0.,0.,1.));
#607=DIRECTION('',(1.,0.,0.));
#608=DIRECTION('',(0.,0.,-1.));
#609=DIRECTION('',(-0.999999999999999,0.,0.));
#610=DIRECTION('',(0.,-1.,0.));
#611=DIRECTION('',(0.,0.,-1.));
#612=DIRECTION('',(-0.999999999999999,0.,0.));
#613=DIRECTION('',(-1.,0.,0.));
#614=DIRECTION('',(0.,0.,-1.));
#615=DIRECTION('',(-0.999999999999999,0.,0.));
#616=DIRECTION('',(0.,1.,0.));
#617=DIRECTION('',(0.,0.,-1.));
#618=DIRECTION('',(-0.999999999999999,0.,0.));
#619=DIRECTION('',(0.,0.,1.));
#620=DIRECTION('',(-0.999999999999999,0.,0.));
#621=DIRECTION('',(0.,0.,1.));
#622=DIRECTION('',(-0.999999999999999,0.,0.));
#623=DIRECTION('',(0.,-1.,0.));
#624=DIRECTION('',(0.,0.,1.));
#625=DIRECTION('',(-0.999999999999999,0.,0.));
#626=DIRECTION('',(0.,0.,1.));
#627=DIRECTION('',(-0.999999999999999,0.,0.));
#628=DIRECTION('',(0.,0.,-1.));
#629=DIRECTION('',(-1.,0.,0.));
#630=DIRECTION('',(0.,0.,1.));
#631=DIRECTION('',(0.,0.,-1.));
#632=DIRECTION('',(1.,0.,0.));
#633=DIRECTION('',(0.,0.,-1.));
#634=DIRECTION('',(0.,0.,1.));
#635=DIRECTION('',(0.999999999999999,0.,0.));
#636=DIRECTION('',(0.,0.,1.));
#637=DIRECTION('',(0.999999999999999,0.,0.));
#638=DIRECTION('',(0.,0.,1.));
#639=DIRECTION('',(0.999999999999999,0.,0.));
#640=DIRECTION('',(0.,0.,1.));
#641=DIRECTION('',(0.999999999999999,0.,0.));
#642=DIRECTION('',(-1.,0.,0.));
#643=DIRECTION('',(0.,0.,1.));
#644=DIRECTION('',(0.,0.,-1.));
#645=DIRECTION('',(0.,-1.,0.));
#646=DIRECTION('',(0.,0.,-1.));
#647=DIRECTION('',(0.,1.,0.));
#648=DIRECTION('',(0.,0.,1.));
#649=DIRECTION('',(0.,0.,-1.));
#650=DIRECTION('',(-1.,0.,0.));
#651=DIRECTION('',(0.,0.,1.));
#652=DIRECTION('',(0.,0.,-1.));
#653=DIRECTION('',(1.,0.,0.));
#654=DIRECTION('',(0.,0.,1.));
#655=DIRECTION('',(0.,1.,0.));
#656=DIRECTION('',(0.,0.,1.));
#657=DIRECTION('',(0.,-1.,0.));
#658=DIRECTION('',(0.,0.,1.));
#659=DIRECTION('',(0.,0.,-1.));
#660=DIRECTION('',(1.,0.,0.));
#661=DIRECTION('',(0.,0.,-1.));
#662=DIRECTION('',(0.,0.,1.));
#663=DIRECTION('',(-0.999999999999999,0.,0.));
#664=DIRECTION('',(0.,0.,1.));
#665=DIRECTION('',(-0.999999999999999,0.,0.));
#666=DIRECTION('',(0.,0.,1.));
#667=DIRECTION('',(-0.999999999999999,0.,0.));
#668=DIRECTION('',(0.,0.,1.));
#669=DIRECTION('',(-0.999999999999999,0.,0.));
#670=DIRECTION('',(0.,0.,-1.));
#671=DIRECTION('',(-1.,0.,0.));
#672=DIRECTION('',(0.,0.,1.));
#673=DIRECTION('',(0.999999999999999,0.,0.));
#674=DIRECTION('',(0.,0.,1.));
#675=DIRECTION('',(0.999999999999999,0.,0.));
#676=DIRECTION('',(0.,0.,1.));
#677=DIRECTION('',(0.999999999999999,0.,0.));
#678=DIRECTION('',(0.,0.,1.));
#679=DIRECTION('',(0.999999999999999,0.,0.));
#680=DIRECTION('',(0.,0.,-1.));
#681=DIRECTION('',(1.,0.,0.));
#682=DIRECTION('',(0.,0.,-1.));
#683=DIRECTION('',(-1.,0.,0.));
#684=DIRECTION('',(0.,0.,-1.));
#685=DIRECTION('',(1.,0.,0.));
#686=CARTESIAN_POINT('',(0.,0.,0.));
#687=CARTESIAN_POINT('',(146.75,135.1,116.1));
#688=CARTESIAN_POINT('',(136.3,135.1,116.1));
#689=CARTESIAN_POINT('',(233.4,135.1,116.1));
#690=CARTESIAN_POINT('',(136.3,144.8,116.1));
#691=CARTESIAN_POINT('',(126.6,144.8,116.1));
#692=CARTESIAN_POINT('',(126.6,156.35,116.1));
#693=CARTESIAN_POINT('',(126.6,241.5,116.1));
#694=CARTESIAN_POINT('',(136.3,241.5,116.1));
#695=CARTESIAN_POINT('',(136.3,251.2,116.1));
#696=CARTESIAN_POINT('',(146.75,251.2,116.1));
#697=CARTESIAN_POINT('',(233.4,251.2,116.1));
#698=CARTESIAN_POINT('',(233.4,241.5,116.1));
#699=CARTESIAN_POINT('',(243.1,241.5,116.1));
#700=CARTESIAN_POINT('',(243.1,156.35,116.1));
#701=CARTESIAN_POINT('',(243.1,144.8,116.1));
#702=CARTESIAN_POINT('',(233.4,144.8,116.1));
#703=CARTESIAN_POINT('',(0.,156.35,116.1));
#704=CARTESIAN_POINT('',(0.,18.6,116.1));
#705=CARTESIAN_POINT('',(0.,312.7,116.1));
#706=CARTESIAN_POINT('',(146.75,18.6,116.1));
#707=CARTESIAN_POINT('',(293.5,18.6,116.1));
#708=CARTESIAN_POINT('',(293.5,156.35,116.1));
#709=CARTESIAN_POINT('',(293.5,312.7,116.1));
#710=CARTESIAN_POINT('',(146.75,312.7,116.1));
#711=CARTESIAN_POINT('',(146.75,156.35,116.1));
#712=CARTESIAN_POINT('',(293.5,0.,0.));
#713=CARTESIAN_POINT('',(293.5,0.,0.));
#714=CARTESIAN_POINT('',(293.5,0.,97.5));
#715=CARTESIAN_POINT('',(146.75,0.,97.5));
#716=CARTESIAN_POINT('',(0.,0.,97.5));
#717=CARTESIAN_POINT('',(0.,0.,0.));
#718=CARTESIAN_POINT('',(0.,0.,0.));
#719=CARTESIAN_POINT('',(146.75,0.,0.));
#720=CARTESIAN_POINT('',(146.75,0.,0.));
#721=CARTESIAN_POINT('',(0.,29.425,126.925));
#722=CARTESIAN_POINT('',(0.,312.7,0.));
#723=CARTESIAN_POINT('',(0.,312.7,0.));
#724=CARTESIAN_POINT('',(0.,156.35,0.));
#725=CARTESIAN_POINT('',(0.,156.35,0.));
#726=CARTESIAN_POINT('',(293.5,312.7,0.));
#727=CARTESIAN_POINT('',(293.5,312.7,0.));
#728=CARTESIAN_POINT('',(146.75,312.7,0.));
#729=CARTESIAN_POINT('',(146.75,312.7,0.));
#730=CARTESIAN_POINT('',(293.5,156.35,0.));
#731=CARTESIAN_POINT('',(146.75,156.35,0.));
#732=CARTESIAN_POINT('',(293.5,29.425,126.925));
#733=CARTESIAN_POINT('',(293.5,156.35,0.));
#734=CARTESIAN_POINT('',(20.3,7.8,105.3));
#735=CARTESIAN_POINT('',(20.3,4.05,101.55));
#736=CARTESIAN_POINT('',(146.75,0.,97.5));
#737=CARTESIAN_POINT('',(184.85,135.1,89.5));
#738=CARTESIAN_POINT('',(233.4,135.1,89.5));
#739=CARTESIAN_POINT('',(136.3,135.1,89.5));
#740=CARTESIAN_POINT('',(136.3,135.1,116.1));
#741=CARTESIAN_POINT('',(233.4,135.1,89.5));
#742=CARTESIAN_POINT('',(184.85,135.1,89.5));
#743=CARTESIAN_POINT('',(126.6,144.8,89.5));
#744=CARTESIAN_POINT('',(126.6,144.8,89.5));
#745=CARTESIAN_POINT('',(126.6,193.15,89.5));
#746=CARTESIAN_POINT('',(126.6,241.5,89.5));
#747=CARTESIAN_POINT('',(126.6,241.5,116.1));
#748=CARTESIAN_POINT('',(126.6,193.15,89.5));
#749=CARTESIAN_POINT('',(136.3,251.2,89.5));
#750=CARTESIAN_POINT('',(136.3,251.2,89.5));
#751=CARTESIAN_POINT('',(184.85,251.2,89.5));
#752=CARTESIAN_POINT('',(233.4,251.2,89.5));
#753=CARTESIAN_POINT('',(233.4,251.2,116.1));
#754=CARTESIAN_POINT('',(184.85,251.2,89.5));
#755=CARTESIAN_POINT('',(184.85,212.5,89.5));
#756=CARTESIAN_POINT('',(159.6,212.5,89.5));
#757=CARTESIAN_POINT('',(192.,212.5,89.5));
#758=CARTESIAN_POINT('',(192.,205.9,89.5));
#759=CARTESIAN_POINT('',(198.6,205.9,89.5));
#760=CARTESIAN_POINT('',(198.6,193.15,89.5));
#761=CARTESIAN_POINT('',(198.6,169.,89.5));
#762=CARTESIAN_POINT('',(192.,169.,89.5));
#763=CARTESIAN_POINT('',(192.,162.4,89.5));
#764=CARTESIAN_POINT('',(184.85,162.4,89.5));
#765=CARTESIAN_POINT('',(159.6,162.4,89.5));
#766=CARTESIAN_POINT('',(159.6,169.,89.5));
#767=CARTESIAN_POINT('',(153.,169.,89.5));
#768=CARTESIAN_POINT('',(153.,193.15,89.5));
#769=CARTESIAN_POINT('',(153.,205.9,89.5));
#770=CARTESIAN_POINT('',(159.6,205.9,89.5));
#771=CARTESIAN_POINT('',(136.3,144.8,89.5));
#772=CARTESIAN_POINT('',(233.4,144.8,89.5));
#773=CARTESIAN_POINT('',(243.1,144.8,89.5));
#774=CARTESIAN_POINT('',(243.1,193.15,89.5));
#775=CARTESIAN_POINT('',(243.1,241.5,89.5));
#776=CARTESIAN_POINT('',(233.4,241.5,89.5));
#777=CARTESIAN_POINT('',(136.3,241.5,89.5));
#778=CARTESIAN_POINT('',(184.85,193.15,89.5));
#779=CARTESIAN_POINT('',(243.1,144.8,116.1));
#780=CARTESIAN_POINT('',(243.1,241.5,89.5));
#781=CARTESIAN_POINT('',(243.1,193.15,89.5));
#782=CARTESIAN_POINT('',(136.3,144.8,89.5));
#783=CARTESIAN_POINT('',(233.4,144.8,89.5));
#784=CARTESIAN_POINT('',(136.3,241.5,89.5));
#785=CARTESIAN_POINT('',(233.4,241.5,89.5));
#786=CARTESIAN_POINT('',(175.8,162.4,78.2));
#787=CARTESIAN_POINT('',(192.,162.4,78.2));
#788=CARTESIAN_POINT('',(159.6,162.4,78.2));
#789=CARTESIAN_POINT('',(159.6,162.4,89.5));
#790=CARTESIAN_POINT('',(192.,162.4,78.2));
#791=CARTESIAN_POINT('',(175.8,162.4,78.2));
#792=CARTESIAN_POINT('',(153.,187.45,78.2));
#793=CARTESIAN_POINT('',(153.,169.,78.2));
#794=CARTESIAN_POINT('',(153.,205.9,78.2));
#795=CARTESIAN_POINT('',(153.,205.9,89.5));
#796=CARTESIAN_POINT('',(153.,169.,78.2));
#797=CARTESIAN_POINT('',(153.,187.45,78.2));
#798=CARTESIAN_POINT('',(159.6,212.5,78.2));
#799=CARTESIAN_POINT('',(159.6,212.5,78.2));
#800=CARTESIAN_POINT('',(175.8,212.5,78.2));
#801=CARTESIAN_POINT('',(192.,212.5,78.2));
#802=CARTESIAN_POINT('',(192.,212.5,89.5));
#803=CARTESIAN_POINT('',(175.8,212.5,78.2));
#804=CARTESIAN_POINT('',(198.6,187.45,78.2));
#805=CARTESIAN_POINT('',(198.6,205.9,78.2));
#806=CARTESIAN_POINT('',(198.6,169.,78.2));
#807=CARTESIAN_POINT('',(198.6,169.,89.5));
#808=CARTESIAN_POINT('',(198.6,205.9,78.2));
#809=CARTESIAN_POINT('',(198.6,187.45,78.2));
#810=CARTESIAN_POINT('',(159.6,205.9,78.2));
#811=CARTESIAN_POINT('',(159.6,169.,78.2));
#812=CARTESIAN_POINT('',(192.,169.,78.2));
#813=CARTESIAN_POINT('',(192.,205.9,78.2));
#814=CARTESIAN_POINT('',(175.8,187.45,78.2));
#815=CARTESIAN_POINT('',(159.6,205.9,78.2));
#816=CARTESIAN_POINT('',(159.6,169.,78.2));
#817=CARTESIAN_POINT('',(192.,169.,78.2));
#818=CARTESIAN_POINT('',(192.,205.9,78.2));
#819=CARTESIAN_POINT('',(20.3,7.8,81.4));
#820=CARTESIAN_POINT('',(24.05,7.8,81.4));
#821=CARTESIAN_POINT('',(20.3,7.8,81.4));
#822=CARTESIAN_POINT('',(20.3,7.8,116.15));
#823=MECHANICAL_DESIGN_GEOMETRIC_PRESENTATION_REPRESENTATION('',(#24),#824);
#824=(
GEOMETRIC_REPRESENTATION_CONTEXT(3)
GLOBAL_UNCERTAINTY_ASSIGNED_CONTEXT((#825))
GLOBAL_UNIT_ASSIGNED_CONTEXT((#831,#827,#826))
REPRESENTATION_CONTEXT('featured_part_00073','TOP_LEVEL_ASSEMBLY_PART')
);
#825=UNCERTAINTY_MEASURE_WITH_UNIT(LENGTH_MEASURE(2.E-5),#831,
'DISTANCE_ACCURACY_VALUE','Maximum Tolerance applied to model');
#826=(
NAMED_UNIT(*)
SI_UNIT($,.STERADIAN.)
SOLID_ANGLE_UNIT()
);
#827=(
CONVERSION_BASED_UNIT('DEGREE',#829)
NAMED_UNIT(#828)
PLANE_ANGLE_UNIT()
);
#828=DIMENSIONAL_EXPONENTS(0.,0.,0.,0.,0.,0.,0.);
#829=PLANE_ANGLE_MEASURE_WITH_UNIT(PLANE_ANGLE_MEASURE(0.0174532925),#830);
#830=(
NAMED_UNIT(*)
PLANE_ANGLE_UNIT()
SI_UNIT($,.RADIAN.)
);
#831=(
LENGTH_UNIT()
NAMED_UNIT(*)
SI_UNIT(.MILLI.,.METRE.)
);
ENDSEC;
END-ISO-10303-21;
