ISO-10303-21;
HEADER;
/* Generated by software containing ST-Developer
 * from STEP Tools, Inc. (www.steptools.com) 
 */
/* OPTION: using custom schema-name function */

FILE_DESCRIPTION(
/* description */ (''),
/* implementation_level */ '2;1');

FILE_NAME(
/* name */ 'featured_part_02984.stp',
/* time_stamp */ '2026-07-08T16:39:18-04:00',
/* author */ (''),
/* organization */ (''),
/* preprocessor_version */ 'ST-DEVELOPER v20.1',
/* originating_system */ 'SIEMENS PLM Software NX2512.6002',
/* authorisation */ '');

FILE_SCHEMA (('AUTOMOTIVE_DESIGN { 1 0 10303 214 3 1 1 1 }'));
ENDSEC;

DATA;
#10=SHAPE_REPRESENTATION_RELATIONSHIP('None',
'relationship between featured_part_02984-None and featured_part_02984
-None',#22,#11);
#11=ADVANCED_BREP_SHAPE_REPRESENTATION('featured_part_02984-None',(#32),
#1434);
#12=SHAPE_DEFINITION_REPRESENTATION(#13,#22);
#13=PRODUCT_DEFINITION_SHAPE('','',#14);
#14=PRODUCT_DEFINITION(' ','',#16,#15);
#15=PRODUCT_DEFINITION_CONTEXT('part definition',#21,'design');
#16=PRODUCT_DEFINITION_FORMATION_WITH_SPECIFIED_SOURCE(' ',' ',#18,
 .NOT_KNOWN.);
#17=PRODUCT_RELATED_PRODUCT_CATEGORY('part','',(#18));
#18=PRODUCT('featured_part_02984','featured_part_02984',' ',(#19));
#19=PRODUCT_CONTEXT(' ',#21,'mechanical');
#20=APPLICATION_PROTOCOL_DEFINITION('international standard',
'automotive_design',2010,#21);
#21=APPLICATION_CONTEXT(
'core data for automotive mechanical design processes');
#22=SHAPE_REPRESENTATION('featured_part_02984-None',(#871),#1434);
#23=PRESENTATION_LAYER_ASSIGNMENT('1','Layer 1',(#32));
#24=STYLED_ITEM('',(#25),#32);
#25=PRESENTATION_STYLE_ASSIGNMENT((#26));
#26=SURFACE_STYLE_USAGE(.BOTH.,#27);
#27=SURFACE_SIDE_STYLE('',(#28));
#28=SURFACE_STYLE_FILL_AREA(#29);
#29=FILL_AREA_STYLE('',(#30));
#30=FILL_AREA_STYLE_COLOUR('',#31);
#31=COLOUR_RGB('medium steel',0.611764705882353,0.658823529411765,0.670588235294118);
#32=MANIFOLD_SOLID_BREP('',#33);
#33=CLOSED_SHELL('',(#96,#97,#98,#99,#100,#101,#102,#103,#104,#105,#106,
#107,#108,#109,#110,#111,#112,#113,#114,#115,#116,#117,#118,#119,#120,#121,
#122,#123,#124,#125,#126,#127,#128,#129,#130,#131,#132,#133,#134,#135,#136,
#137,#138,#139,#140,#141));
#34=CYLINDRICAL_SURFACE('',#901,10.7);
#35=CYLINDRICAL_SURFACE('',#902,10.7);
#36=CYLINDRICAL_SURFACE('',#913,5.2);
#37=CYLINDRICAL_SURFACE('',#914,5.2);
#38=CYLINDRICAL_SURFACE('',#915,5.2);
#39=CYLINDRICAL_SURFACE('',#916,5.2);
#40=CYLINDRICAL_SURFACE('',#922,11.9);
#41=CYLINDRICAL_SURFACE('',#927,12.3);
#42=CYLINDRICAL_SURFACE('',#937,14.1);
#43=CYLINDRICAL_SURFACE('',#938,14.1);
#44=CYLINDRICAL_SURFACE('',#939,14.1);
#45=CYLINDRICAL_SURFACE('',#940,14.1);
#46=CYLINDRICAL_SURFACE('',#943,2.65);
#47=CYLINDRICAL_SURFACE('',#945,5.9);
#48=CYLINDRICAL_SURFACE('',#947,8.5);
#49=FACE_BOUND('',#212,.T.);
#50=FACE_BOUND('',#213,.T.);
#51=FACE_BOUND('',#214,.T.);
#52=FACE_BOUND('',#218,.T.);
#53=FACE_BOUND('',#219,.T.);
#54=FACE_BOUND('',#225,.T.);
#55=FACE_BOUND('',#226,.T.);
#56=FACE_BOUND('',#233,.T.);
#57=FACE_BOUND('',#234,.T.);
#58=FACE_BOUND('',#242,.T.);
#59=FACE_BOUND('',#243,.T.);
#60=FACE_BOUND('',#259,.T.);
#61=FACE_BOUND('',#260,.T.);
#62=FACE_BOUND('',#261,.T.);
#63=FACE_BOUND('',#262,.T.);
#64=FACE_BOUND('',#264,.T.);
#65=FACE_BOUND('',#265,.T.);
#66=CIRCLE('',#873,2.65);
#67=CIRCLE('',#874,12.3);
#68=CIRCLE('',#875,10.7);
#69=CIRCLE('',#876,10.7);
#70=CIRCLE('',#877,11.9);
#71=CIRCLE('',#878,5.2);
#72=CIRCLE('',#879,5.2);
#73=CIRCLE('',#880,5.2);
#74=CIRCLE('',#881,5.2);
#75=CIRCLE('',#886,8.5);
#76=CIRCLE('',#893,14.1);
#77=CIRCLE('',#894,14.1);
#78=CIRCLE('',#895,14.1);
#79=CIRCLE('',#896,14.1);
#80=CIRCLE('',#897,10.7);
#81=CIRCLE('',#898,10.7);
#82=CIRCLE('',#906,5.9);
#83=CIRCLE('',#907,5.2);
#84=CIRCLE('',#908,5.2);
#85=CIRCLE('',#909,5.2);
#86=CIRCLE('',#910,5.2);
#87=CIRCLE('',#919,8.5);
#88=CIRCLE('',#920,11.9);
#89=CIRCLE('',#925,12.3);
#90=CIRCLE('',#932,14.1);
#91=CIRCLE('',#933,14.1);
#92=CIRCLE('',#934,14.1);
#93=CIRCLE('',#935,14.1);
#94=CIRCLE('',#941,2.65);
#95=CIRCLE('',#944,5.9);
#96=ADVANCED_FACE('',(#173),#142,.F.);
#97=ADVANCED_FACE('',(#49,#50,#51),#143,.T.);
#98=ADVANCED_FACE('',(#174),#144,.T.);
#99=ADVANCED_FACE('',(#175),#145,.T.);
#100=ADVANCED_FACE('',(#176),#146,.T.);
#101=ADVANCED_FACE('',(#52,#53),#147,.T.);
#102=ADVANCED_FACE('',(#177),#148,.T.);
#103=ADVANCED_FACE('',(#178),#149,.F.);
#104=ADVANCED_FACE('',(#179),#150,.F.);
#105=ADVANCED_FACE('',(#180),#151,.F.);
#106=ADVANCED_FACE('',(#181),#152,.F.);
#107=ADVANCED_FACE('',(#54,#55),#153,.F.);
#108=ADVANCED_FACE('',(#182),#154,.F.);
#109=ADVANCED_FACE('',(#183),#34,.F.);
#110=ADVANCED_FACE('',(#184),#35,.F.);
#111=ADVANCED_FACE('',(#185),#155,.F.);
#112=ADVANCED_FACE('',(#186),#156,.F.);
#113=ADVANCED_FACE('',(#187),#157,.F.);
#114=ADVANCED_FACE('',(#56,#57),#158,.F.);
#115=ADVANCED_FACE('',(#188),#159,.F.);
#116=ADVANCED_FACE('',(#189),#36,.F.);
#117=ADVANCED_FACE('',(#190),#37,.F.);
#118=ADVANCED_FACE('',(#191),#38,.F.);
#119=ADVANCED_FACE('',(#192),#39,.F.);
#120=ADVANCED_FACE('',(#193),#160,.F.);
#121=ADVANCED_FACE('',(#194),#161,.F.);
#122=ADVANCED_FACE('',(#58,#59),#162,.F.);
#123=ADVANCED_FACE('',(#195),#40,.F.);
#124=ADVANCED_FACE('',(#196),#163,.F.);
#125=ADVANCED_FACE('',(#197),#164,.F.);
#126=ADVANCED_FACE('',(#198),#165,.F.);
#127=ADVANCED_FACE('',(#199),#41,.F.);
#128=ADVANCED_FACE('',(#200),#166,.F.);
#129=ADVANCED_FACE('',(#201),#167,.F.);
#130=ADVANCED_FACE('',(#202),#168,.F.);
#131=ADVANCED_FACE('',(#203),#169,.F.);
#132=ADVANCED_FACE('',(#204),#170,.F.);
#133=ADVANCED_FACE('',(#205),#42,.F.);
#134=ADVANCED_FACE('',(#206),#43,.F.);
#135=ADVANCED_FACE('',(#207),#44,.F.);
#136=ADVANCED_FACE('',(#208),#45,.F.);
#137=ADVANCED_FACE('',(#209),#171,.F.);
#138=ADVANCED_FACE('',(#60,#61),#46,.F.);
#139=ADVANCED_FACE('',(#62,#63),#47,.F.);
#140=ADVANCED_FACE('',(#210),#172,.F.);
#141=ADVANCED_FACE('',(#64,#65),#48,.F.);
#142=PLANE('',#872);
#143=PLANE('',#882);
#144=PLANE('',#883);
#145=PLANE('',#884);
#146=PLANE('',#885);
#147=PLANE('',#887);
#148=PLANE('',#888);
#149=PLANE('',#889);
#150=PLANE('',#890);
#151=PLANE('',#891);
#152=PLANE('',#892);
#153=PLANE('',#899);
#154=PLANE('',#900);
#155=PLANE('',#903);
#156=PLANE('',#904);
#157=PLANE('',#905);
#158=PLANE('',#911);
#159=PLANE('',#912);
#160=PLANE('',#917);
#161=PLANE('',#918);
#162=PLANE('',#921);
#163=PLANE('',#923);
#164=PLANE('',#924);
#165=PLANE('',#926);
#166=PLANE('',#928);
#167=PLANE('',#929);
#168=PLANE('',#930);
#169=PLANE('',#931);
#170=PLANE('',#936);
#171=PLANE('',#942);
#172=PLANE('',#946);
#173=FACE_OUTER_BOUND('',#211,.T.);
#174=FACE_OUTER_BOUND('',#215,.T.);
#175=FACE_OUTER_BOUND('',#216,.T.);
#176=FACE_OUTER_BOUND('',#217,.T.);
#177=FACE_OUTER_BOUND('',#220,.T.);
#178=FACE_OUTER_BOUND('',#221,.T.);
#179=FACE_OUTER_BOUND('',#222,.T.);
#180=FACE_OUTER_BOUND('',#223,.T.);
#181=FACE_OUTER_BOUND('',#224,.T.);
#182=FACE_OUTER_BOUND('',#227,.T.);
#183=FACE_OUTER_BOUND('',#228,.T.);
#184=FACE_OUTER_BOUND('',#229,.T.);
#185=FACE_OUTER_BOUND('',#230,.T.);
#186=FACE_OUTER_BOUND('',#231,.T.);
#187=FACE_OUTER_BOUND('',#232,.T.);
#188=FACE_OUTER_BOUND('',#235,.T.);
#189=FACE_OUTER_BOUND('',#236,.T.);
#190=FACE_OUTER_BOUND('',#237,.T.);
#191=FACE_OUTER_BOUND('',#238,.T.);
#192=FACE_OUTER_BOUND('',#239,.T.);
#193=FACE_OUTER_BOUND('',#240,.T.);
#194=FACE_OUTER_BOUND('',#241,.T.);
#195=FACE_OUTER_BOUND('',#244,.T.);
#196=FACE_OUTER_BOUND('',#245,.T.);
#197=FACE_OUTER_BOUND('',#246,.T.);
#198=FACE_OUTER_BOUND('',#247,.T.);
#199=FACE_OUTER_BOUND('',#248,.T.);
#200=FACE_OUTER_BOUND('',#249,.T.);
#201=FACE_OUTER_BOUND('',#250,.T.);
#202=FACE_OUTER_BOUND('',#251,.T.);
#203=FACE_OUTER_BOUND('',#252,.T.);
#204=FACE_OUTER_BOUND('',#253,.T.);
#205=FACE_OUTER_BOUND('',#254,.T.);
#206=FACE_OUTER_BOUND('',#255,.T.);
#207=FACE_OUTER_BOUND('',#256,.T.);
#208=FACE_OUTER_BOUND('',#257,.T.);
#209=FACE_OUTER_BOUND('',#258,.T.);
#210=FACE_OUTER_BOUND('',#263,.T.);
#211=EDGE_LOOP('',(#266,#267,#268,#269));
#212=EDGE_LOOP('',(#270));
#213=EDGE_LOOP('',(#271,#272,#273,#274,#275,#276,#277,#278,#279,#280,#281,
#282,#283,#284,#285,#286));
#214=EDGE_LOOP('',(#287,#288,#289,#290,#291,#292,#293,#294));
#215=EDGE_LOOP('',(#295,#296,#297,#298,#299,#300,#301));
#216=EDGE_LOOP('',(#302,#303,#304,#305,#306,#307,#308,#309));
#217=EDGE_LOOP('',(#310,#311,#312,#313,#314,#315,#316));
#218=EDGE_LOOP('',(#317));
#219=EDGE_LOOP('',(#318,#319,#320,#321));
#220=EDGE_LOOP('',(#322,#323,#324,#325,#326,#327,#328,#329));
#221=EDGE_LOOP('',(#330,#331,#332,#333));
#222=EDGE_LOOP('',(#334,#335,#336,#337));
#223=EDGE_LOOP('',(#338,#339,#340,#341,#342));
#224=EDGE_LOOP('',(#343,#344,#345,#346,#347));
#225=EDGE_LOOP('',(#348,#349,#350,#351,#352,#353,#354,#355));
#226=EDGE_LOOP('',(#356,#357,#358,#359,#360,#361));
#227=EDGE_LOOP('',(#362,#363,#364,#365));
#228=EDGE_LOOP('',(#366,#367,#368,#369));
#229=EDGE_LOOP('',(#370,#371,#372,#373));
#230=EDGE_LOOP('',(#374,#375,#376,#377));
#231=EDGE_LOOP('',(#378,#379,#380,#381));
#232=EDGE_LOOP('',(#382,#383,#384,#385));
#233=EDGE_LOOP('',(#386));
#234=EDGE_LOOP('',(#387,#388,#389,#390,#391,#392,#393,#394));
#235=EDGE_LOOP('',(#395,#396,#397,#398));
#236=EDGE_LOOP('',(#399,#400,#401,#402));
#237=EDGE_LOOP('',(#403,#404,#405,#406));
#238=EDGE_LOOP('',(#407,#408,#409,#410));
#239=EDGE_LOOP('',(#411,#412,#413,#414));
#240=EDGE_LOOP('',(#415,#416,#417,#418));
#241=EDGE_LOOP('',(#419,#420,#421,#422,#423));
#242=EDGE_LOOP('',(#424));
#243=EDGE_LOOP('',(#425,#426,#427,#428,#429));
#244=EDGE_LOOP('',(#430,#431,#432,#433));
#245=EDGE_LOOP('',(#434,#435,#436,#437,#438));
#246=EDGE_LOOP('',(#439,#440,#441,#442));
#247=EDGE_LOOP('',(#443,#444,#445,#446,#447));
#248=EDGE_LOOP('',(#448,#449,#450,#451));
#249=EDGE_LOOP('',(#452,#453,#454,#455));
#250=EDGE_LOOP('',(#456,#457,#458,#459));
#251=EDGE_LOOP('',(#460,#461,#462,#463));
#252=EDGE_LOOP('',(#464,#465,#466,#467));
#253=EDGE_LOOP('',(#468,#469,#470,#471,#472,#473,#474,#475));
#254=EDGE_LOOP('',(#476,#477,#478,#479));
#255=EDGE_LOOP('',(#480,#481,#482,#483));
#256=EDGE_LOOP('',(#484,#485,#486,#487));
#257=EDGE_LOOP('',(#488,#489,#490,#491));
#258=EDGE_LOOP('',(#492));
#259=EDGE_LOOP('',(#493));
#260=EDGE_LOOP('',(#494));
#261=EDGE_LOOP('',(#495));
#262=EDGE_LOOP('',(#496));
#263=EDGE_LOOP('',(#497));
#264=EDGE_LOOP('',(#498));
#265=EDGE_LOOP('',(#499));
#266=ORIENTED_EDGE('',*,*,#580,.F.);
#267=ORIENTED_EDGE('',*,*,#581,.F.);
#268=ORIENTED_EDGE('',*,*,#582,.F.);
#269=ORIENTED_EDGE('',*,*,#583,.F.);
#270=ORIENTED_EDGE('',*,*,#584,.F.);
#271=ORIENTED_EDGE('',*,*,#585,.F.);
#272=ORIENTED_EDGE('',*,*,#586,.T.);
#273=ORIENTED_EDGE('',*,*,#587,.F.);
#274=ORIENTED_EDGE('',*,*,#588,.F.);
#275=ORIENTED_EDGE('',*,*,#589,.T.);
#276=ORIENTED_EDGE('',*,*,#590,.F.);
#277=ORIENTED_EDGE('',*,*,#591,.T.);
#278=ORIENTED_EDGE('',*,*,#592,.F.);
#279=ORIENTED_EDGE('',*,*,#593,.T.);
#280=ORIENTED_EDGE('',*,*,#594,.F.);
#281=ORIENTED_EDGE('',*,*,#583,.T.);
#282=ORIENTED_EDGE('',*,*,#595,.F.);
#283=ORIENTED_EDGE('',*,*,#596,.F.);
#284=ORIENTED_EDGE('',*,*,#597,.T.);
#285=ORIENTED_EDGE('',*,*,#598,.F.);
#286=ORIENTED_EDGE('',*,*,#599,.T.);
#287=ORIENTED_EDGE('',*,*,#600,.F.);
#288=ORIENTED_EDGE('',*,*,#601,.T.);
#289=ORIENTED_EDGE('',*,*,#602,.F.);
#290=ORIENTED_EDGE('',*,*,#603,.T.);
#291=ORIENTED_EDGE('',*,*,#604,.F.);
#292=ORIENTED_EDGE('',*,*,#605,.T.);
#293=ORIENTED_EDGE('',*,*,#606,.F.);
#294=ORIENTED_EDGE('',*,*,#607,.T.);
#295=ORIENTED_EDGE('',*,*,#608,.T.);
#296=ORIENTED_EDGE('',*,*,#595,.T.);
#297=ORIENTED_EDGE('',*,*,#582,.T.);
#298=ORIENTED_EDGE('',*,*,#609,.F.);
#299=ORIENTED_EDGE('',*,*,#610,.T.);
#300=ORIENTED_EDGE('',*,*,#611,.T.);
#301=ORIENTED_EDGE('',*,*,#612,.F.);
#302=ORIENTED_EDGE('',*,*,#613,.F.);
#303=ORIENTED_EDGE('',*,*,#614,.F.);
#304=ORIENTED_EDGE('',*,*,#615,.T.);
#305=ORIENTED_EDGE('',*,*,#616,.T.);
#306=ORIENTED_EDGE('',*,*,#617,.F.);
#307=ORIENTED_EDGE('',*,*,#618,.T.);
#308=ORIENTED_EDGE('',*,*,#609,.T.);
#309=ORIENTED_EDGE('',*,*,#581,.T.);
#310=ORIENTED_EDGE('',*,*,#619,.F.);
#311=ORIENTED_EDGE('',*,*,#620,.F.);
#312=ORIENTED_EDGE('',*,*,#621,.F.);
#313=ORIENTED_EDGE('',*,*,#622,.T.);
#314=ORIENTED_EDGE('',*,*,#617,.T.);
#315=ORIENTED_EDGE('',*,*,#623,.T.);
#316=ORIENTED_EDGE('',*,*,#588,.T.);
#317=ORIENTED_EDGE('',*,*,#624,.F.);
#318=ORIENTED_EDGE('',*,*,#625,.F.);
#319=ORIENTED_EDGE('',*,*,#610,.F.);
#320=ORIENTED_EDGE('',*,*,#618,.F.);
#321=ORIENTED_EDGE('',*,*,#622,.F.);
#322=ORIENTED_EDGE('',*,*,#626,.T.);
#323=ORIENTED_EDGE('',*,*,#627,.T.);
#324=ORIENTED_EDGE('',*,*,#628,.F.);
#325=ORIENTED_EDGE('',*,*,#629,.F.);
#326=ORIENTED_EDGE('',*,*,#611,.F.);
#327=ORIENTED_EDGE('',*,*,#625,.T.);
#328=ORIENTED_EDGE('',*,*,#621,.T.);
#329=ORIENTED_EDGE('',*,*,#630,.F.);
#330=ORIENTED_EDGE('',*,*,#631,.F.);
#331=ORIENTED_EDGE('',*,*,#589,.F.);
#332=ORIENTED_EDGE('',*,*,#623,.F.);
#333=ORIENTED_EDGE('',*,*,#616,.F.);
#334=ORIENTED_EDGE('',*,*,#632,.F.);
#335=ORIENTED_EDGE('',*,*,#599,.F.);
#336=ORIENTED_EDGE('',*,*,#633,.F.);
#337=ORIENTED_EDGE('',*,*,#627,.F.);
#338=ORIENTED_EDGE('',*,*,#594,.T.);
#339=ORIENTED_EDGE('',*,*,#634,.T.);
#340=ORIENTED_EDGE('',*,*,#635,.T.);
#341=ORIENTED_EDGE('',*,*,#613,.T.);
#342=ORIENTED_EDGE('',*,*,#580,.T.);
#343=ORIENTED_EDGE('',*,*,#636,.T.);
#344=ORIENTED_EDGE('',*,*,#637,.T.);
#345=ORIENTED_EDGE('',*,*,#590,.T.);
#346=ORIENTED_EDGE('',*,*,#631,.T.);
#347=ORIENTED_EDGE('',*,*,#615,.F.);
#348=ORIENTED_EDGE('',*,*,#638,.T.);
#349=ORIENTED_EDGE('',*,*,#639,.T.);
#350=ORIENTED_EDGE('',*,*,#640,.T.);
#351=ORIENTED_EDGE('',*,*,#641,.T.);
#352=ORIENTED_EDGE('',*,*,#642,.T.);
#353=ORIENTED_EDGE('',*,*,#643,.T.);
#354=ORIENTED_EDGE('',*,*,#644,.T.);
#355=ORIENTED_EDGE('',*,*,#645,.T.);
#356=ORIENTED_EDGE('',*,*,#635,.F.);
#357=ORIENTED_EDGE('',*,*,#646,.T.);
#358=ORIENTED_EDGE('',*,*,#647,.F.);
#359=ORIENTED_EDGE('',*,*,#648,.T.);
#360=ORIENTED_EDGE('',*,*,#636,.F.);
#361=ORIENTED_EDGE('',*,*,#614,.T.);
#362=ORIENTED_EDGE('',*,*,#647,.T.);
#363=ORIENTED_EDGE('',*,*,#649,.T.);
#364=ORIENTED_EDGE('',*,*,#592,.T.);
#365=ORIENTED_EDGE('',*,*,#650,.T.);
#366=ORIENTED_EDGE('',*,*,#593,.F.);
#367=ORIENTED_EDGE('',*,*,#649,.F.);
#368=ORIENTED_EDGE('',*,*,#646,.F.);
#369=ORIENTED_EDGE('',*,*,#634,.F.);
#370=ORIENTED_EDGE('',*,*,#591,.F.);
#371=ORIENTED_EDGE('',*,*,#637,.F.);
#372=ORIENTED_EDGE('',*,*,#648,.F.);
#373=ORIENTED_EDGE('',*,*,#650,.F.);
#374=ORIENTED_EDGE('',*,*,#600,.T.);
#375=ORIENTED_EDGE('',*,*,#651,.T.);
#376=ORIENTED_EDGE('',*,*,#652,.T.);
#377=ORIENTED_EDGE('',*,*,#653,.T.);
#378=ORIENTED_EDGE('',*,*,#654,.T.);
#379=ORIENTED_EDGE('',*,*,#655,.T.);
#380=ORIENTED_EDGE('',*,*,#602,.T.);
#381=ORIENTED_EDGE('',*,*,#656,.T.);
#382=ORIENTED_EDGE('',*,*,#657,.T.);
#383=ORIENTED_EDGE('',*,*,#658,.T.);
#384=ORIENTED_EDGE('',*,*,#604,.T.);
#385=ORIENTED_EDGE('',*,*,#659,.T.);
#386=ORIENTED_EDGE('',*,*,#660,.T.);
#387=ORIENTED_EDGE('',*,*,#661,.F.);
#388=ORIENTED_EDGE('',*,*,#662,.T.);
#389=ORIENTED_EDGE('',*,*,#657,.F.);
#390=ORIENTED_EDGE('',*,*,#663,.T.);
#391=ORIENTED_EDGE('',*,*,#654,.F.);
#392=ORIENTED_EDGE('',*,*,#664,.T.);
#393=ORIENTED_EDGE('',*,*,#652,.F.);
#394=ORIENTED_EDGE('',*,*,#665,.T.);
#395=ORIENTED_EDGE('',*,*,#606,.T.);
#396=ORIENTED_EDGE('',*,*,#666,.T.);
#397=ORIENTED_EDGE('',*,*,#661,.T.);
#398=ORIENTED_EDGE('',*,*,#667,.T.);
#399=ORIENTED_EDGE('',*,*,#605,.F.);
#400=ORIENTED_EDGE('',*,*,#658,.F.);
#401=ORIENTED_EDGE('',*,*,#662,.F.);
#402=ORIENTED_EDGE('',*,*,#666,.F.);
#403=ORIENTED_EDGE('',*,*,#607,.F.);
#404=ORIENTED_EDGE('',*,*,#667,.F.);
#405=ORIENTED_EDGE('',*,*,#665,.F.);
#406=ORIENTED_EDGE('',*,*,#651,.F.);
#407=ORIENTED_EDGE('',*,*,#603,.F.);
#408=ORIENTED_EDGE('',*,*,#655,.F.);
#409=ORIENTED_EDGE('',*,*,#663,.F.);
#410=ORIENTED_EDGE('',*,*,#659,.F.);
#411=ORIENTED_EDGE('',*,*,#601,.F.);
#412=ORIENTED_EDGE('',*,*,#653,.F.);
#413=ORIENTED_EDGE('',*,*,#664,.F.);
#414=ORIENTED_EDGE('',*,*,#656,.F.);
#415=ORIENTED_EDGE('',*,*,#668,.T.);
#416=ORIENTED_EDGE('',*,*,#669,.T.);
#417=ORIENTED_EDGE('',*,*,#596,.T.);
#418=ORIENTED_EDGE('',*,*,#608,.F.);
#419=ORIENTED_EDGE('',*,*,#598,.T.);
#420=ORIENTED_EDGE('',*,*,#670,.T.);
#421=ORIENTED_EDGE('',*,*,#671,.T.);
#422=ORIENTED_EDGE('',*,*,#628,.T.);
#423=ORIENTED_EDGE('',*,*,#633,.T.);
#424=ORIENTED_EDGE('',*,*,#672,.T.);
#425=ORIENTED_EDGE('',*,*,#671,.F.);
#426=ORIENTED_EDGE('',*,*,#673,.T.);
#427=ORIENTED_EDGE('',*,*,#668,.F.);
#428=ORIENTED_EDGE('',*,*,#612,.T.);
#429=ORIENTED_EDGE('',*,*,#629,.T.);
#430=ORIENTED_EDGE('',*,*,#597,.F.);
#431=ORIENTED_EDGE('',*,*,#669,.F.);
#432=ORIENTED_EDGE('',*,*,#673,.F.);
#433=ORIENTED_EDGE('',*,*,#670,.F.);
#434=ORIENTED_EDGE('',*,*,#674,.T.);
#435=ORIENTED_EDGE('',*,*,#675,.T.);
#436=ORIENTED_EDGE('',*,*,#585,.T.);
#437=ORIENTED_EDGE('',*,*,#632,.T.);
#438=ORIENTED_EDGE('',*,*,#626,.F.);
#439=ORIENTED_EDGE('',*,*,#587,.T.);
#440=ORIENTED_EDGE('',*,*,#676,.T.);
#441=ORIENTED_EDGE('',*,*,#677,.T.);
#442=ORIENTED_EDGE('',*,*,#619,.T.);
#443=ORIENTED_EDGE('',*,*,#677,.F.);
#444=ORIENTED_EDGE('',*,*,#678,.T.);
#445=ORIENTED_EDGE('',*,*,#674,.F.);
#446=ORIENTED_EDGE('',*,*,#630,.T.);
#447=ORIENTED_EDGE('',*,*,#620,.T.);
#448=ORIENTED_EDGE('',*,*,#586,.F.);
#449=ORIENTED_EDGE('',*,*,#675,.F.);
#450=ORIENTED_EDGE('',*,*,#678,.F.);
#451=ORIENTED_EDGE('',*,*,#676,.F.);
#452=ORIENTED_EDGE('',*,*,#642,.F.);
#453=ORIENTED_EDGE('',*,*,#679,.T.);
#454=ORIENTED_EDGE('',*,*,#680,.T.);
#455=ORIENTED_EDGE('',*,*,#681,.T.);
#456=ORIENTED_EDGE('',*,*,#644,.F.);
#457=ORIENTED_EDGE('',*,*,#682,.T.);
#458=ORIENTED_EDGE('',*,*,#683,.T.);
#459=ORIENTED_EDGE('',*,*,#684,.T.);
#460=ORIENTED_EDGE('',*,*,#685,.T.);
#461=ORIENTED_EDGE('',*,*,#686,.T.);
#462=ORIENTED_EDGE('',*,*,#638,.F.);
#463=ORIENTED_EDGE('',*,*,#687,.T.);
#464=ORIENTED_EDGE('',*,*,#640,.F.);
#465=ORIENTED_EDGE('',*,*,#688,.T.);
#466=ORIENTED_EDGE('',*,*,#689,.T.);
#467=ORIENTED_EDGE('',*,*,#690,.T.);
#468=ORIENTED_EDGE('',*,*,#689,.F.);
#469=ORIENTED_EDGE('',*,*,#691,.T.);
#470=ORIENTED_EDGE('',*,*,#685,.F.);
#471=ORIENTED_EDGE('',*,*,#692,.T.);
#472=ORIENTED_EDGE('',*,*,#683,.F.);
#473=ORIENTED_EDGE('',*,*,#693,.T.);
#474=ORIENTED_EDGE('',*,*,#680,.F.);
#475=ORIENTED_EDGE('',*,*,#694,.T.);
#476=ORIENTED_EDGE('',*,*,#639,.F.);
#477=ORIENTED_EDGE('',*,*,#686,.F.);
#478=ORIENTED_EDGE('',*,*,#691,.F.);
#479=ORIENTED_EDGE('',*,*,#688,.F.);
#480=ORIENTED_EDGE('',*,*,#641,.F.);
#481=ORIENTED_EDGE('',*,*,#690,.F.);
#482=ORIENTED_EDGE('',*,*,#694,.F.);
#483=ORIENTED_EDGE('',*,*,#679,.F.);
#484=ORIENTED_EDGE('',*,*,#643,.F.);
#485=ORIENTED_EDGE('',*,*,#681,.F.);
#486=ORIENTED_EDGE('',*,*,#693,.F.);
#487=ORIENTED_EDGE('',*,*,#682,.F.);
#488=ORIENTED_EDGE('',*,*,#645,.F.);
#489=ORIENTED_EDGE('',*,*,#684,.F.);
#490=ORIENTED_EDGE('',*,*,#692,.F.);
#491=ORIENTED_EDGE('',*,*,#687,.F.);
#492=ORIENTED_EDGE('',*,*,#695,.F.);
#493=ORIENTED_EDGE('',*,*,#584,.T.);
#494=ORIENTED_EDGE('',*,*,#695,.T.);
#495=ORIENTED_EDGE('',*,*,#696,.T.);
#496=ORIENTED_EDGE('',*,*,#660,.F.);
#497=ORIENTED_EDGE('',*,*,#696,.F.);
#498=ORIENTED_EDGE('',*,*,#624,.T.);
#499=ORIENTED_EDGE('',*,*,#672,.F.);
#500=VERTEX_POINT('',#1191);
#501=VERTEX_POINT('',#1192);
#502=VERTEX_POINT('',#1194);
#503=VERTEX_POINT('',#1196);
#504=VERTEX_POINT('',#1200);
#505=VERTEX_POINT('',#1202);
#506=VERTEX_POINT('',#1203);
#507=VERTEX_POINT('',#1205);
#508=VERTEX_POINT('',#1207);
#509=VERTEX_POINT('',#1209);
#510=VERTEX_POINT('',#1211);
#511=VERTEX_POINT('',#1213);
#512=VERTEX_POINT('',#1215);
#513=VERTEX_POINT('',#1217);
#514=VERTEX_POINT('',#1219);
#515=VERTEX_POINT('',#1222);
#516=VERTEX_POINT('',#1224);
#517=VERTEX_POINT('',#1226);
#518=VERTEX_POINT('',#1228);
#519=VERTEX_POINT('',#1231);
#520=VERTEX_POINT('',#1232);
#521=VERTEX_POINT('',#1234);
#522=VERTEX_POINT('',#1236);
#523=VERTEX_POINT('',#1238);
#524=VERTEX_POINT('',#1240);
#525=VERTEX_POINT('',#1242);
#526=VERTEX_POINT('',#1244);
#527=VERTEX_POINT('',#1248);
#528=VERTEX_POINT('',#1250);
#529=VERTEX_POINT('',#1252);
#530=VERTEX_POINT('',#1254);
#531=VERTEX_POINT('',#1258);
#532=VERTEX_POINT('',#1260);
#533=VERTEX_POINT('',#1262);
#534=VERTEX_POINT('',#1264);
#535=VERTEX_POINT('',#1266);
#536=VERTEX_POINT('',#1270);
#537=VERTEX_POINT('',#1272);
#538=VERTEX_POINT('',#1274);
#539=VERTEX_POINT('',#1279);
#540=VERTEX_POINT('',#1283);
#541=VERTEX_POINT('',#1284);
#542=VERTEX_POINT('',#1286);
#543=VERTEX_POINT('',#1288);
#544=VERTEX_POINT('',#1298);
#545=VERTEX_POINT('',#1302);
#546=VERTEX_POINT('',#1306);
#547=VERTEX_POINT('',#1307);
#548=VERTEX_POINT('',#1309);
#549=VERTEX_POINT('',#1311);
#550=VERTEX_POINT('',#1313);
#551=VERTEX_POINT('',#1315);
#552=VERTEX_POINT('',#1317);
#553=VERTEX_POINT('',#1319);
#554=VERTEX_POINT('',#1322);
#555=VERTEX_POINT('',#1324);
#556=VERTEX_POINT('',#1333);
#557=VERTEX_POINT('',#1335);
#558=VERTEX_POINT('',#1339);
#559=VERTEX_POINT('',#1340);
#560=VERTEX_POINT('',#1345);
#561=VERTEX_POINT('',#1346);
#562=VERTEX_POINT('',#1351);
#563=VERTEX_POINT('',#1353);
#564=VERTEX_POINT('',#1354);
#565=VERTEX_POINT('',#1368);
#566=VERTEX_POINT('',#1372);
#567=VERTEX_POINT('',#1376);
#568=VERTEX_POINT('',#1381);
#569=VERTEX_POINT('',#1385);
#570=VERTEX_POINT('',#1392);
#571=VERTEX_POINT('',#1394);
#572=VERTEX_POINT('',#1398);
#573=VERTEX_POINT('',#1400);
#574=VERTEX_POINT('',#1404);
#575=VERTEX_POINT('',#1405);
#576=VERTEX_POINT('',#1410);
#577=VERTEX_POINT('',#1412);
#578=VERTEX_POINT('',#1425);
#579=VERTEX_POINT('',#1429);
#580=EDGE_CURVE('',#500,#501,#697,.T.);
#581=EDGE_CURVE('',#502,#500,#698,.T.);
#582=EDGE_CURVE('',#503,#502,#699,.T.);
#583=EDGE_CURVE('',#501,#503,#700,.T.);
#584=EDGE_CURVE('',#504,#504,#66,.T.);
#585=EDGE_CURVE('',#505,#506,#701,.T.);
#586=EDGE_CURVE('',#505,#507,#67,.T.);
#587=EDGE_CURVE('',#508,#507,#702,.T.);
#588=EDGE_CURVE('',#509,#508,#703,.T.);
#589=EDGE_CURVE('',#509,#510,#704,.T.);
#590=EDGE_CURVE('',#511,#510,#705,.T.);
#591=EDGE_CURVE('',#511,#512,#68,.T.);
#592=EDGE_CURVE('',#513,#512,#706,.T.);
#593=EDGE_CURVE('',#513,#514,#69,.T.);
#594=EDGE_CURVE('',#501,#514,#707,.T.);
#595=EDGE_CURVE('',#515,#503,#708,.T.);
#596=EDGE_CURVE('',#516,#515,#709,.T.);
#597=EDGE_CURVE('',#516,#517,#70,.T.);
#598=EDGE_CURVE('',#518,#517,#710,.T.);
#599=EDGE_CURVE('',#518,#506,#711,.T.);
#600=EDGE_CURVE('',#519,#520,#712,.T.);
#601=EDGE_CURVE('',#519,#521,#71,.T.);
#602=EDGE_CURVE('',#522,#521,#713,.T.);
#603=EDGE_CURVE('',#522,#523,#72,.T.);
#604=EDGE_CURVE('',#524,#523,#714,.T.);
#605=EDGE_CURVE('',#524,#525,#73,.T.);
#606=EDGE_CURVE('',#526,#525,#715,.T.);
#607=EDGE_CURVE('',#526,#520,#74,.T.);
#608=EDGE_CURVE('',#527,#515,#716,.T.);
#609=EDGE_CURVE('',#528,#502,#717,.T.);
#610=EDGE_CURVE('',#528,#529,#718,.T.);
#611=EDGE_CURVE('',#529,#530,#719,.T.);
#612=EDGE_CURVE('',#527,#530,#720,.T.);
#613=EDGE_CURVE('',#531,#500,#721,.T.);
#614=EDGE_CURVE('',#532,#531,#722,.T.);
#615=EDGE_CURVE('',#532,#533,#723,.T.);
#616=EDGE_CURVE('',#533,#534,#724,.T.);
#617=EDGE_CURVE('',#535,#534,#725,.T.);
#618=EDGE_CURVE('',#535,#528,#726,.T.);
#619=EDGE_CURVE('',#536,#508,#727,.T.);
#620=EDGE_CURVE('',#537,#536,#728,.T.);
#621=EDGE_CURVE('',#538,#537,#729,.T.);
#622=EDGE_CURVE('',#538,#535,#730,.T.);
#623=EDGE_CURVE('',#534,#509,#731,.T.);
#624=EDGE_CURVE('',#539,#539,#75,.T.);
#625=EDGE_CURVE('',#529,#538,#732,.T.);
#626=EDGE_CURVE('',#540,#541,#733,.T.);
#627=EDGE_CURVE('',#541,#542,#734,.T.);
#628=EDGE_CURVE('',#543,#542,#735,.T.);
#629=EDGE_CURVE('',#530,#543,#736,.T.);
#630=EDGE_CURVE('',#540,#537,#737,.T.);
#631=EDGE_CURVE('',#510,#533,#738,.T.);
#632=EDGE_CURVE('',#506,#541,#739,.T.);
#633=EDGE_CURVE('',#542,#518,#740,.T.);
#634=EDGE_CURVE('',#514,#544,#741,.T.);
#635=EDGE_CURVE('',#544,#531,#742,.T.);
#636=EDGE_CURVE('',#532,#545,#743,.T.);
#637=EDGE_CURVE('',#545,#511,#744,.T.);
#638=EDGE_CURVE('',#546,#547,#745,.T.);
#639=EDGE_CURVE('',#547,#548,#76,.T.);
#640=EDGE_CURVE('',#548,#549,#746,.T.);
#641=EDGE_CURVE('',#549,#550,#77,.T.);
#642=EDGE_CURVE('',#550,#551,#747,.T.);
#643=EDGE_CURVE('',#551,#552,#78,.T.);
#644=EDGE_CURVE('',#552,#553,#748,.T.);
#645=EDGE_CURVE('',#553,#546,#79,.T.);
#646=EDGE_CURVE('',#544,#554,#80,.T.);
#647=EDGE_CURVE('',#555,#554,#749,.T.);
#648=EDGE_CURVE('',#555,#545,#81,.T.);
#649=EDGE_CURVE('',#554,#513,#750,.T.);
#650=EDGE_CURVE('',#512,#555,#751,.T.);
#651=EDGE_CURVE('',#520,#556,#752,.T.);
#652=EDGE_CURVE('',#556,#557,#753,.T.);
#653=EDGE_CURVE('',#557,#519,#754,.T.);
#654=EDGE_CURVE('',#558,#559,#755,.T.);
#655=EDGE_CURVE('',#559,#522,#756,.T.);
#656=EDGE_CURVE('',#521,#558,#757,.T.);
#657=EDGE_CURVE('',#560,#561,#758,.T.);
#658=EDGE_CURVE('',#561,#524,#759,.T.);
#659=EDGE_CURVE('',#523,#560,#760,.T.);
#660=EDGE_CURVE('',#562,#562,#82,.T.);
#661=EDGE_CURVE('',#563,#564,#761,.T.);
#662=EDGE_CURVE('',#563,#561,#83,.T.);
#663=EDGE_CURVE('',#560,#559,#84,.T.);
#664=EDGE_CURVE('',#558,#557,#85,.T.);
#665=EDGE_CURVE('',#556,#564,#86,.T.);
#666=EDGE_CURVE('',#525,#563,#762,.T.);
#667=EDGE_CURVE('',#564,#526,#763,.T.);
#668=EDGE_CURVE('',#527,#565,#764,.T.);
#669=EDGE_CURVE('',#565,#516,#765,.T.);
#670=EDGE_CURVE('',#517,#566,#766,.T.);
#671=EDGE_CURVE('',#566,#543,#767,.T.);
#672=EDGE_CURVE('',#567,#567,#87,.T.);
#673=EDGE_CURVE('',#566,#565,#88,.T.);
#674=EDGE_CURVE('',#540,#568,#768,.T.);
#675=EDGE_CURVE('',#568,#505,#769,.T.);
#676=EDGE_CURVE('',#507,#569,#770,.T.);
#677=EDGE_CURVE('',#569,#536,#771,.T.);
#678=EDGE_CURVE('',#569,#568,#89,.T.);
#679=EDGE_CURVE('',#550,#570,#772,.T.);
#680=EDGE_CURVE('',#570,#571,#773,.T.);
#681=EDGE_CURVE('',#571,#551,#774,.T.);
#682=EDGE_CURVE('',#552,#572,#775,.T.);
#683=EDGE_CURVE('',#572,#573,#776,.T.);
#684=EDGE_CURVE('',#573,#553,#777,.T.);
#685=EDGE_CURVE('',#574,#575,#778,.T.);
#686=EDGE_CURVE('',#575,#547,#779,.T.);
#687=EDGE_CURVE('',#546,#574,#780,.T.);
#688=EDGE_CURVE('',#548,#576,#781,.T.);
#689=EDGE_CURVE('',#576,#577,#782,.T.);
#690=EDGE_CURVE('',#577,#549,#783,.T.);
#691=EDGE_CURVE('',#576,#575,#90,.T.);
#692=EDGE_CURVE('',#574,#573,#91,.T.);
#693=EDGE_CURVE('',#572,#571,#92,.T.);
#694=EDGE_CURVE('',#570,#577,#93,.T.);
#695=EDGE_CURVE('',#578,#578,#94,.T.);
#696=EDGE_CURVE('',#579,#579,#95,.T.);
#697=LINE('',#1190,#784);
#698=LINE('',#1193,#785);
#699=LINE('',#1195,#786);
#700=LINE('',#1197,#787);
#701=LINE('',#1201,#788);
#702=LINE('',#1206,#789);
#703=LINE('',#1208,#790);
#704=LINE('',#1210,#791);
#705=LINE('',#1212,#792);
#706=LINE('',#1216,#793);
#707=LINE('',#1220,#794);
#708=LINE('',#1221,#795);
#709=LINE('',#1223,#796);
#710=LINE('',#1227,#797);
#711=LINE('',#1229,#798);
#712=LINE('',#1230,#799);
#713=LINE('',#1235,#800);
#714=LINE('',#1239,#801);
#715=LINE('',#1243,#802);
#716=LINE('',#1247,#803);
#717=LINE('',#1249,#804);
#718=LINE('',#1251,#805);
#719=LINE('',#1253,#806);
#720=LINE('',#1255,#807);
#721=LINE('',#1257,#808);
#722=LINE('',#1259,#809);
#723=LINE('',#1261,#810);
#724=LINE('',#1263,#811);
#725=LINE('',#1265,#812);
#726=LINE('',#1267,#813);
#727=LINE('',#1269,#814);
#728=LINE('',#1271,#815);
#729=LINE('',#1273,#816);
#730=LINE('',#1275,#817);
#731=LINE('',#1276,#818);
#732=LINE('',#1280,#819);
#733=LINE('',#1282,#820);
#734=LINE('',#1285,#821);
#735=LINE('',#1287,#822);
#736=LINE('',#1289,#823);
#737=LINE('',#1290,#824);
#738=LINE('',#1292,#825);
#739=LINE('',#1294,#826);
#740=LINE('',#1295,#827);
#741=LINE('',#1297,#828);
#742=LINE('',#1299,#829);
#743=LINE('',#1301,#830);
#744=LINE('',#1303,#831);
#745=LINE('',#1305,#832);
#746=LINE('',#1310,#833);
#747=LINE('',#1314,#834);
#748=LINE('',#1318,#835);
#749=LINE('',#1323,#836);
#750=LINE('',#1327,#837);
#751=LINE('',#1328,#838);
#752=LINE('',#1332,#839);
#753=LINE('',#1334,#840);
#754=LINE('',#1336,#841);
#755=LINE('',#1338,#842);
#756=LINE('',#1341,#843);
#757=LINE('',#1342,#844);
#758=LINE('',#1344,#845);
#759=LINE('',#1347,#846);
#760=LINE('',#1348,#847);
#761=LINE('',#1352,#848);
#762=LINE('',#1360,#849);
#763=LINE('',#1361,#850);
#764=LINE('',#1367,#851);
#765=LINE('',#1369,#852);
#766=LINE('',#1371,#853);
#767=LINE('',#1373,#854);
#768=LINE('',#1380,#855);
#769=LINE('',#1382,#856);
#770=LINE('',#1384,#857);
#771=LINE('',#1386,#858);
#772=LINE('',#1391,#859);
#773=LINE('',#1393,#860);
#774=LINE('',#1395,#861);
#775=LINE('',#1397,#862);
#776=LINE('',#1399,#863);
#777=LINE('',#1401,#864);
#778=LINE('',#1403,#865);
#779=LINE('',#1406,#866);
#780=LINE('',#1407,#867);
#781=LINE('',#1409,#868);
#782=LINE('',#1411,#869);
#783=LINE('',#1413,#870);
#784=VECTOR('',#950,1.);
#785=VECTOR('',#951,1.);
#786=VECTOR('',#952,1.);
#787=VECTOR('',#953,1.);
#788=VECTOR('',#958,1.);
#789=VECTOR('',#961,1.);
#790=VECTOR('',#962,1.);
#791=VECTOR('',#963,1.);
#792=VECTOR('',#964,1.);
#793=VECTOR('',#967,1.);
#794=VECTOR('',#970,1.);
#795=VECTOR('',#971,1.);
#796=VECTOR('',#972,1.);
#797=VECTOR('',#975,1.);
#798=VECTOR('',#976,1.);
#799=VECTOR('',#977,1.);
#800=VECTOR('',#980,1.);
#801=VECTOR('',#983,1.);
#802=VECTOR('',#986,1.);
#803=VECTOR('',#991,1.);
#804=VECTOR('',#992,1.);
#805=VECTOR('',#993,1.);
#806=VECTOR('',#994,1.);
#807=VECTOR('',#995,1.);
#808=VECTOR('',#998,1.);
#809=VECTOR('',#999,1.);
#810=VECTOR('',#1000,1.);
#811=VECTOR('',#1001,1.);
#812=VECTOR('',#1002,1.);
#813=VECTOR('',#1003,1.);
#814=VECTOR('',#1006,1.);
#815=VECTOR('',#1007,1.);
#816=VECTOR('',#1008,1.);
#817=VECTOR('',#1009,1.);
#818=VECTOR('',#1010,1.);
#819=VECTOR('',#1015,1.);
#820=VECTOR('',#1018,1.);
#821=VECTOR('',#1019,1.);
#822=VECTOR('',#1020,1.);
#823=VECTOR('',#1021,1.);
#824=VECTOR('',#1022,1.);
#825=VECTOR('',#1025,1.);
#826=VECTOR('',#1028,1.);
#827=VECTOR('',#1029,1.);
#828=VECTOR('',#1032,1.);
#829=VECTOR('',#1033,1.);
#830=VECTOR('',#1036,1.);
#831=VECTOR('',#1037,1.);
#832=VECTOR('',#1040,1.);
#833=VECTOR('',#1043,1.);
#834=VECTOR('',#1046,1.);
#835=VECTOR('',#1049,1.);
#836=VECTOR('',#1054,1.);
#837=VECTOR('',#1059,1.);
#838=VECTOR('',#1060,1.);
#839=VECTOR('',#1067,1.);
#840=VECTOR('',#1068,1.);
#841=VECTOR('',#1069,1.);
#842=VECTOR('',#1072,1.);
#843=VECTOR('',#1073,1.);
#844=VECTOR('',#1074,1.);
#845=VECTOR('',#1077,1.);
#846=VECTOR('',#1078,1.);
#847=VECTOR('',#1079,1.);
#848=VECTOR('',#1084,1.);
#849=VECTOR('',#1095,1.);
#850=VECTOR('',#1096,1.);
#851=VECTOR('',#1107,1.);
#852=VECTOR('',#1108,1.);
#853=VECTOR('',#1111,1.);
#854=VECTOR('',#1112,1.);
#855=VECTOR('',#1123,1.);
#856=VECTOR('',#1124,1.);
#857=VECTOR('',#1127,1.);
#858=VECTOR('',#1128,1.);
#859=VECTOR('',#1137,1.);
#860=VECTOR('',#1138,1.);
#861=VECTOR('',#1139,1.);
#862=VECTOR('',#1142,1.);
#863=VECTOR('',#1143,1.);
#864=VECTOR('',#1144,1.);
#865=VECTOR('',#1147,1.);
#866=VECTOR('',#1148,1.);
#867=VECTOR('',#1149,1.);
#868=VECTOR('',#1152,1.);
#869=VECTOR('',#1153,1.);
#870=VECTOR('',#1154,1.);
#871=AXIS2_PLACEMENT_3D('',#1189,#948,#949);
#872=AXIS2_PLACEMENT_3D('',#1198,#954,#955);
#873=AXIS2_PLACEMENT_3D('',#1199,#956,#957);
#874=AXIS2_PLACEMENT_3D('',#1204,#959,#960);
#875=AXIS2_PLACEMENT_3D('',#1214,#965,#966);
#876=AXIS2_PLACEMENT_3D('',#1218,#968,#969);
#877=AXIS2_PLACEMENT_3D('',#1225,#973,#974);
#878=AXIS2_PLACEMENT_3D('',#1233,#978,#979);
#879=AXIS2_PLACEMENT_3D('',#1237,#981,#982);
#880=AXIS2_PLACEMENT_3D('',#1241,#984,#985);
#881=AXIS2_PLACEMENT_3D('',#1245,#987,#988);
#882=AXIS2_PLACEMENT_3D('',#1246,#989,#990);
#883=AXIS2_PLACEMENT_3D('',#1256,#996,#997);
#884=AXIS2_PLACEMENT_3D('',#1268,#1004,#1005);
#885=AXIS2_PLACEMENT_3D('',#1277,#1011,#1012);
#886=AXIS2_PLACEMENT_3D('',#1278,#1013,#1014);
#887=AXIS2_PLACEMENT_3D('',#1281,#1016,#1017);
#888=AXIS2_PLACEMENT_3D('',#1291,#1023,#1024);
#889=AXIS2_PLACEMENT_3D('',#1293,#1026,#1027);
#890=AXIS2_PLACEMENT_3D('',#1296,#1030,#1031);
#891=AXIS2_PLACEMENT_3D('',#1300,#1034,#1035);
#892=AXIS2_PLACEMENT_3D('',#1304,#1038,#1039);
#893=AXIS2_PLACEMENT_3D('',#1308,#1041,#1042);
#894=AXIS2_PLACEMENT_3D('',#1312,#1044,#1045);
#895=AXIS2_PLACEMENT_3D('',#1316,#1047,#1048);
#896=AXIS2_PLACEMENT_3D('',#1320,#1050,#1051);
#897=AXIS2_PLACEMENT_3D('',#1321,#1052,#1053);
#898=AXIS2_PLACEMENT_3D('',#1325,#1055,#1056);
#899=AXIS2_PLACEMENT_3D('',#1326,#1057,#1058);
#900=AXIS2_PLACEMENT_3D('',#1329,#1061,#1062);
#901=AXIS2_PLACEMENT_3D('',#1330,#1063,#1064);
#902=AXIS2_PLACEMENT_3D('',#1331,#1065,#1066);
#903=AXIS2_PLACEMENT_3D('',#1337,#1070,#1071);
#904=AXIS2_PLACEMENT_3D('',#1343,#1075,#1076);
#905=AXIS2_PLACEMENT_3D('',#1349,#1080,#1081);
#906=AXIS2_PLACEMENT_3D('',#1350,#1082,#1083);
#907=AXIS2_PLACEMENT_3D('',#1355,#1085,#1086);
#908=AXIS2_PLACEMENT_3D('',#1356,#1087,#1088);
#909=AXIS2_PLACEMENT_3D('',#1357,#1089,#1090);
#910=AXIS2_PLACEMENT_3D('',#1358,#1091,#1092);
#911=AXIS2_PLACEMENT_3D('',#1359,#1093,#1094);
#912=AXIS2_PLACEMENT_3D('',#1362,#1097,#1098);
#913=AXIS2_PLACEMENT_3D('',#1363,#1099,#1100);
#914=AXIS2_PLACEMENT_3D('',#1364,#1101,#1102);
#915=AXIS2_PLACEMENT_3D('',#1365,#1103,#1104);
#916=AXIS2_PLACEMENT_3D('',#1366,#1105,#1106);
#917=AXIS2_PLACEMENT_3D('',#1370,#1109,#1110);
#918=AXIS2_PLACEMENT_3D('',#1374,#1113,#1114);
#919=AXIS2_PLACEMENT_3D('',#1375,#1115,#1116);
#920=AXIS2_PLACEMENT_3D('',#1377,#1117,#1118);
#921=AXIS2_PLACEMENT_3D('',#1378,#1119,#1120);
#922=AXIS2_PLACEMENT_3D('',#1379,#1121,#1122);
#923=AXIS2_PLACEMENT_3D('',#1383,#1125,#1126);
#924=AXIS2_PLACEMENT_3D('',#1387,#1129,#1130);
#925=AXIS2_PLACEMENT_3D('',#1388,#1131,#1132);
#926=AXIS2_PLACEMENT_3D('',#1389,#1133,#1134);
#927=AXIS2_PLACEMENT_3D('',#1390,#1135,#1136);
#928=AXIS2_PLACEMENT_3D('',#1396,#1140,#1141);
#929=AXIS2_PLACEMENT_3D('',#1402,#1145,#1146);
#930=AXIS2_PLACEMENT_3D('',#1408,#1150,#1151);
#931=AXIS2_PLACEMENT_3D('',#1414,#1155,#1156);
#932=AXIS2_PLACEMENT_3D('',#1415,#1157,#1158);
#933=AXIS2_PLACEMENT_3D('',#1416,#1159,#1160);
#934=AXIS2_PLACEMENT_3D('',#1417,#1161,#1162);
#935=AXIS2_PLACEMENT_3D('',#1418,#1163,#1164);
#936=AXIS2_PLACEMENT_3D('',#1419,#1165,#1166);
#937=AXIS2_PLACEMENT_3D('',#1420,#1167,#1168);
#938=AXIS2_PLACEMENT_3D('',#1421,#1169,#1170);
#939=AXIS2_PLACEMENT_3D('',#1422,#1171,#1172);
#940=AXIS2_PLACEMENT_3D('',#1423,#1173,#1174);
#941=AXIS2_PLACEMENT_3D('',#1424,#1175,#1176);
#942=AXIS2_PLACEMENT_3D('',#1426,#1177,#1178);
#943=AXIS2_PLACEMENT_3D('',#1427,#1179,#1180);
#944=AXIS2_PLACEMENT_3D('',#1428,#1181,#1182);
#945=AXIS2_PLACEMENT_3D('',#1430,#1183,#1184);
#946=AXIS2_PLACEMENT_3D('',#1431,#1185,#1186);
#947=AXIS2_PLACEMENT_3D('',#1432,#1187,#1188);
#948=DIRECTION('',(0.,0.,1.));
#949=DIRECTION('',(1.,0.,0.));
#950=DIRECTION('',(0.707106781186547,0.,0.707106781186548));
#951=DIRECTION('',(0.,1.,0.));
#952=DIRECTION('',(-0.707106781186547,0.,-0.707106781186548));
#953=DIRECTION('',(0.,-1.,0.));
#954=DIRECTION('',(0.707106781186548,0.,-0.707106781186547));
#955=DIRECTION('',(0.,1.,0.));
#956=DIRECTION('',(0.,0.,1.));
#957=DIRECTION('',(1.00000000000001,0.,0.));
#958=DIRECTION('',(1.,0.,0.));
#959=DIRECTION('',(0.,0.,-1.));
#960=DIRECTION('',(1.,0.,0.));
#961=DIRECTION('',(0.,-1.,0.));
#962=DIRECTION('',(1.,0.,0.));
#963=DIRECTION('',(0.,-1.,0.));
#964=DIRECTION('',(-1.,0.,0.));
#965=DIRECTION('',(0.,0.,-1.));
#966=DIRECTION('',(1.,0.,0.));
#967=DIRECTION('',(0.,1.,0.));
#968=DIRECTION('',(0.,0.,-1.));
#969=DIRECTION('',(1.,0.,0.));
#970=DIRECTION('',(1.,0.,0.));
#971=DIRECTION('',(-1.,0.,0.));
#972=DIRECTION('',(0.,-1.,0.));
#973=DIRECTION('',(0.,0.,-1.));
#974=DIRECTION('',(0.999999999999999,0.,0.));
#975=DIRECTION('',(-1.,0.,0.));
#976=DIRECTION('',(0.,1.,0.));
#977=DIRECTION('',(1.,0.,0.));
#978=DIRECTION('',(0.,0.,-1.));
#979=DIRECTION('',(1.,0.,0.));
#980=DIRECTION('',(0.,-1.,0.));
#981=DIRECTION('',(0.,0.,-1.));
#982=DIRECTION('',(1.,0.,0.));
#983=DIRECTION('',(-1.,0.,0.));
#984=DIRECTION('',(0.,0.,-1.));
#985=DIRECTION('',(1.,0.,0.));
#986=DIRECTION('',(0.,1.,0.));
#987=DIRECTION('',(0.,0.,-1.));
#988=DIRECTION('',(1.,0.,0.));
#989=DIRECTION('',(0.,0.,1.));
#990=DIRECTION('',(1.,0.,0.));
#991=DIRECTION('',(0.,0.,1.));
#992=DIRECTION('',(0.,0.,1.));
#993=DIRECTION('',(1.,0.,0.));
#994=DIRECTION('',(0.,0.,1.));
#995=DIRECTION('',(1.,0.,0.));
#996=DIRECTION('',(0.,-1.,0.));
#997=DIRECTION('',(0.,0.,-1.));
#998=DIRECTION('',(0.,0.,1.));
#999=DIRECTION('',(0.,-1.,0.));
#1000=DIRECTION('',(0.,0.,1.));
#1001=DIRECTION('',(0.,1.,0.));
#1002=DIRECTION('',(0.,0.,1.));
#1003=DIRECTION('',(0.,-1.,0.));
#1004=DIRECTION('',(-1.,0.,0.));
#1005=DIRECTION('',(0.,0.,1.));
#1006=DIRECTION('',(0.,0.,1.));
#1007=DIRECTION('',(-1.,0.,0.));
#1008=DIRECTION('',(0.,0.,1.));
#1009=DIRECTION('',(-1.,0.,0.));
#1010=DIRECTION('',(0.707106781186547,0.,0.707106781186548));
#1011=DIRECTION('',(0.,1.,0.));
#1012=DIRECTION('',(0.,0.,1.));
#1013=DIRECTION('',(0.,0.,-1.));
#1014=DIRECTION('',(-1.,0.,0.));
#1015=DIRECTION('',(0.,1.,0.));
#1016=DIRECTION('',(0.,0.,-1.));
#1017=DIRECTION('',(-1.,0.,0.));
#1018=DIRECTION('',(0.,0.,1.));
#1019=DIRECTION('',(0.,-1.,0.));
#1020=DIRECTION('',(0.,0.,1.));
#1021=DIRECTION('',(0.,1.,0.));
#1022=DIRECTION('',(0.,1.,0.));
#1023=DIRECTION('',(1.,0.,0.));
#1024=DIRECTION('',(0.,0.,-1.));
#1025=DIRECTION('',(-0.707106781186547,0.,-0.707106781186548));
#1026=DIRECTION('',(0.707106781186548,0.,-0.707106781186547));
#1027=DIRECTION('',(0.,1.,0.));
#1028=DIRECTION('',(0.707106781186547,0.,-0.707106781186548));
#1029=DIRECTION('',(-0.707106781186547,0.,0.707106781186548));
#1030=DIRECTION('',(-0.707106781186548,0.,-0.707106781186547));
#1031=DIRECTION('',(0.,-1.,0.));
#1032=DIRECTION('',(0.,0.,-1.));
#1033=DIRECTION('',(-1.,0.,0.));
#1034=DIRECTION('',(0.,-1.,0.));
#1035=DIRECTION('',(0.,0.,-1.));
#1036=DIRECTION('',(1.,0.,0.));
#1037=DIRECTION('',(0.,0.,1.));
#1038=DIRECTION('',(0.,1.,0.));
#1039=DIRECTION('',(0.,0.,1.));
#1040=DIRECTION('',(1.,0.,0.));
#1041=DIRECTION('',(0.,0.,-1.));
#1042=DIRECTION('',(-1.,0.,0.));
#1043=DIRECTION('',(0.,-1.,0.));
#1044=DIRECTION('',(0.,0.,-1.));
#1045=DIRECTION('',(-1.,0.,0.));
#1046=DIRECTION('',(-1.,0.,0.));
#1047=DIRECTION('',(0.,0.,-1.));
#1048=DIRECTION('',(-1.,0.,0.));
#1049=DIRECTION('',(0.,1.,0.));
#1050=DIRECTION('',(0.,0.,-1.));
#1051=DIRECTION('',(-1.,0.,0.));
#1052=DIRECTION('',(0.,0.,1.));
#1053=DIRECTION('',(-1.,0.,0.));
#1054=DIRECTION('',(0.,-1.,0.));
#1055=DIRECTION('',(0.,0.,1.));
#1056=DIRECTION('',(-1.,0.,0.));
#1057=DIRECTION('',(0.,0.,-1.));
#1058=DIRECTION('',(-1.,0.,0.));
#1059=DIRECTION('',(0.,0.,1.));
#1060=DIRECTION('',(0.,0.,-1.));
#1061=DIRECTION('',(1.,0.,0.));
#1062=DIRECTION('',(0.,0.,-1.));
#1063=DIRECTION('',(0.,0.,1.));
#1064=DIRECTION('',(1.,0.,0.));
#1065=DIRECTION('',(0.,0.,1.));
#1066=DIRECTION('',(1.,0.,0.));
#1067=DIRECTION('',(0.,0.,-1.));
#1068=DIRECTION('',(-1.,0.,0.));
#1069=DIRECTION('',(0.,0.,1.));
#1070=DIRECTION('',(0.,-1.,0.));
#1071=DIRECTION('',(0.,0.,-1.));
#1072=DIRECTION('',(0.,1.,0.));
#1073=DIRECTION('',(0.,0.,1.));
#1074=DIRECTION('',(0.,0.,-1.));
#1075=DIRECTION('',(-1.,0.,0.));
#1076=DIRECTION('',(0.,0.,1.));
#1077=DIRECTION('',(1.,0.,0.));
#1078=DIRECTION('',(0.,0.,1.));
#1079=DIRECTION('',(0.,0.,-1.));
#1080=DIRECTION('',(0.,1.,0.));
#1081=DIRECTION('',(0.,0.,1.));
#1082=DIRECTION('',(0.,0.,-1.));
#1083=DIRECTION('',(-0.999999999999998,0.,0.));
#1084=DIRECTION('',(0.,-1.,0.));
#1085=DIRECTION('',(0.,0.,1.));
#1086=DIRECTION('',(-1.,0.,0.));
#1087=DIRECTION('',(0.,0.,1.));
#1088=DIRECTION('',(-1.,0.,0.));
#1089=DIRECTION('',(0.,0.,1.));
#1090=DIRECTION('',(-1.,0.,0.));
#1091=DIRECTION('',(0.,0.,1.));
#1092=DIRECTION('',(-1.,0.,0.));
#1093=DIRECTION('',(0.,0.,-1.));
#1094=DIRECTION('',(-1.,0.,0.));
#1095=DIRECTION('',(0.,0.,-1.));
#1096=DIRECTION('',(0.,0.,1.));
#1097=DIRECTION('',(1.,0.,0.));
#1098=DIRECTION('',(0.,0.,-1.));
#1099=DIRECTION('',(0.,0.,1.));
#1100=DIRECTION('',(1.,0.,0.));
#1101=DIRECTION('',(0.,0.,1.));
#1102=DIRECTION('',(1.,0.,0.));
#1103=DIRECTION('',(0.,0.,1.));
#1104=DIRECTION('',(1.,0.,0.));
#1105=DIRECTION('',(0.,0.,1.));
#1106=DIRECTION('',(1.,0.,0.));
#1107=DIRECTION('',(0.,1.,0.));
#1108=DIRECTION('',(0.,0.,1.));
#1109=DIRECTION('',(-1.,0.,0.));
#1110=DIRECTION('',(0.,0.,1.));
#1111=DIRECTION('',(0.,0.,-1.));
#1112=DIRECTION('',(1.,0.,0.));
#1113=DIRECTION('',(0.,1.,0.));
#1114=DIRECTION('',(0.,0.,1.));
#1115=DIRECTION('',(0.,0.,-1.));
#1116=DIRECTION('',(-1.,0.,0.));
#1117=DIRECTION('',(0.,0.,1.));
#1118=DIRECTION('',(-0.999999999999999,0.,0.));
#1119=DIRECTION('',(0.,0.,-1.));
#1120=DIRECTION('',(-1.,0.,0.));
#1121=DIRECTION('',(0.,0.,1.));
#1122=DIRECTION('',(0.999999999999999,0.,0.));
#1123=DIRECTION('',(-1.,0.,0.));
#1124=DIRECTION('',(0.,0.,1.));
#1125=DIRECTION('',(0.,-1.,0.));
#1126=DIRECTION('',(0.,0.,-1.));
#1127=DIRECTION('',(0.,0.,-1.));
#1128=DIRECTION('',(0.,1.,0.));
#1129=DIRECTION('',(-1.,0.,0.));
#1130=DIRECTION('',(0.,0.,1.));
#1131=DIRECTION('',(0.,0.,1.));
#1132=DIRECTION('',(-1.,0.,0.));
#1133=DIRECTION('',(0.,0.,-1.));
#1134=DIRECTION('',(-1.,0.,0.));
#1135=DIRECTION('',(0.,0.,1.));
#1136=DIRECTION('',(1.,0.,0.));
#1137=DIRECTION('',(0.,0.,-1.));
#1138=DIRECTION('',(-1.,0.,0.));
#1139=DIRECTION('',(0.,0.,1.));
#1140=DIRECTION('',(0.,-1.,0.));
#1141=DIRECTION('',(0.,0.,-1.));
#1142=DIRECTION('',(0.,0.,-1.));
#1143=DIRECTION('',(0.,1.,0.));
#1144=DIRECTION('',(0.,0.,1.));
#1145=DIRECTION('',(-1.,0.,0.));
#1146=DIRECTION('',(0.,0.,1.));
#1147=DIRECTION('',(1.,0.,0.));
#1148=DIRECTION('',(0.,0.,1.));
#1149=DIRECTION('',(0.,0.,-1.));
#1150=DIRECTION('',(0.,1.,0.));
#1151=DIRECTION('',(0.,0.,1.));
#1152=DIRECTION('',(0.,0.,-1.));
#1153=DIRECTION('',(0.,-1.,0.));
#1154=DIRECTION('',(0.,0.,1.));
#1155=DIRECTION('',(1.,0.,0.));
#1156=DIRECTION('',(0.,0.,-1.));
#1157=DIRECTION('',(0.,0.,1.));
#1158=DIRECTION('',(-1.,0.,0.));
#1159=DIRECTION('',(0.,0.,1.));
#1160=DIRECTION('',(-1.,0.,0.));
#1161=DIRECTION('',(0.,0.,1.));
#1162=DIRECTION('',(-1.,0.,0.));
#1163=DIRECTION('',(0.,0.,1.));
#1164=DIRECTION('',(-1.,0.,0.));
#1165=DIRECTION('',(0.,0.,-1.));
#1166=DIRECTION('',(-1.,0.,0.));
#1167=DIRECTION('',(0.,0.,1.));
#1168=DIRECTION('',(1.,0.,0.));
#1169=DIRECTION('',(0.,0.,1.));
#1170=DIRECTION('',(1.,0.,0.));
#1171=DIRECTION('',(0.,0.,1.));
#1172=DIRECTION('',(1.,0.,0.));
#1173=DIRECTION('',(0.,0.,1.));
#1174=DIRECTION('',(1.,0.,0.));
#1175=DIRECTION('',(0.,0.,-1.));
#1176=DIRECTION('',(1.00000000000001,0.,0.));
#1177=DIRECTION('',(0.,0.,-1.));
#1178=DIRECTION('',(-1.,0.,0.));
#1179=DIRECTION('',(0.,0.,-1.));
#1180=DIRECTION('',(1.00000000000001,0.,0.));
#1181=DIRECTION('',(0.,0.,-1.));
#1182=DIRECTION('',(0.999999999999998,0.,0.));
#1183=DIRECTION('',(0.,0.,-1.));
#1184=DIRECTION('',(0.999999999999998,0.,0.));
#1185=DIRECTION('',(0.,0.,-1.));
#1186=DIRECTION('',(-1.,0.,0.));
#1187=DIRECTION('',(0.,0.,-1.));
#1188=DIRECTION('',(1.,0.,0.));
#1189=CARTESIAN_POINT('',(0.,0.,0.));
#1190=CARTESIAN_POINT('',(0.,16.7,87.2));
#1191=CARTESIAN_POINT('',(0.,16.7,87.2));
#1192=CARTESIAN_POINT('',(11.7,16.7,98.9));
#1193=CARTESIAN_POINT('',(0.,237.9,87.2));
#1194=CARTESIAN_POINT('',(0.,0.,87.2));
#1195=CARTESIAN_POINT('',(25.6749999999999,0.,112.875));
#1196=CARTESIAN_POINT('',(11.7,0.,98.9));
#1197=CARTESIAN_POINT('',(11.7,237.9,98.9));
#1198=CARTESIAN_POINT('',(0.,237.9,87.2));
#1199=CARTESIAN_POINT('',(181.5,317.3,98.9));
#1200=CARTESIAN_POINT('',(184.15,317.3,98.9));
#1201=CARTESIAN_POINT('',(138.55,336.,98.9));
#1202=CARTESIAN_POINT('',(231.,336.,98.9));
#1203=CARTESIAN_POINT('',(259.9,336.,98.9));
#1204=CARTESIAN_POINT('',(231.,348.3,98.9));
#1205=CARTESIAN_POINT('',(218.7,348.3,98.9));
#1206=CARTESIAN_POINT('',(218.7,237.9,98.9));
#1207=CARTESIAN_POINT('',(218.7,475.8,98.9));
#1208=CARTESIAN_POINT('',(138.55,475.8,98.9));
#1209=CARTESIAN_POINT('',(11.7,475.8,98.9));
#1210=CARTESIAN_POINT('',(11.7,237.9,98.9));
#1211=CARTESIAN_POINT('',(11.7,246.9,98.9));
#1212=CARTESIAN_POINT('',(138.55,246.9,98.9));
#1213=CARTESIAN_POINT('',(55.,246.9,98.9));
#1214=CARTESIAN_POINT('',(55.,236.2,98.9));
#1215=CARTESIAN_POINT('',(65.7,236.2,98.9));
#1216=CARTESIAN_POINT('',(65.7,237.9,98.9));
#1217=CARTESIAN_POINT('',(65.7,27.4,98.9));
#1218=CARTESIAN_POINT('',(55.,27.4,98.9));
#1219=CARTESIAN_POINT('',(55.,16.7,98.9));
#1220=CARTESIAN_POINT('',(138.55,16.7,98.9));
#1221=CARTESIAN_POINT('',(138.55,0.,98.9));
#1222=CARTESIAN_POINT('',(201.7,0.,98.9));
#1223=CARTESIAN_POINT('',(201.7,237.9,98.9));
#1224=CARTESIAN_POINT('',(201.7,90.8,98.9));
#1225=CARTESIAN_POINT('',(213.6,90.8,98.9));
#1226=CARTESIAN_POINT('',(213.6,102.7,98.9));
#1227=CARTESIAN_POINT('',(138.55,102.7,98.9));
#1228=CARTESIAN_POINT('',(259.9,102.7,98.9));
#1229=CARTESIAN_POINT('',(259.9,237.9,98.9));
#1230=CARTESIAN_POINT('',(138.55,135.8,98.9));
#1231=CARTESIAN_POINT('',(132.8,135.8,98.9));
#1232=CARTESIAN_POINT('',(181.,135.8,98.9));
#1233=CARTESIAN_POINT('',(132.8,141.,98.9));
#1234=CARTESIAN_POINT('',(127.6,141.,98.9));
#1235=CARTESIAN_POINT('',(127.6,237.9,98.9));
#1236=CARTESIAN_POINT('',(127.6,302.9,98.9));
#1237=CARTESIAN_POINT('',(132.8,302.9,98.9));
#1238=CARTESIAN_POINT('',(132.8,308.1,98.9));
#1239=CARTESIAN_POINT('',(138.55,308.1,98.9));
#1240=CARTESIAN_POINT('',(181.,308.1,98.9));
#1241=CARTESIAN_POINT('',(181.,302.9,98.9));
#1242=CARTESIAN_POINT('',(186.2,302.9,98.9));
#1243=CARTESIAN_POINT('',(186.2,237.9,98.9));
#1244=CARTESIAN_POINT('',(186.2,141.,98.9));
#1245=CARTESIAN_POINT('',(181.,141.,98.9));
#1246=CARTESIAN_POINT('',(138.55,237.9,98.9));
#1247=CARTESIAN_POINT('',(201.7,0.,61.));
#1248=CARTESIAN_POINT('',(201.7,0.,61.));
#1249=CARTESIAN_POINT('',(0.,0.,0.));
#1250=CARTESIAN_POINT('',(0.,0.,0.));
#1251=CARTESIAN_POINT('',(138.55,0.,0.));
#1252=CARTESIAN_POINT('',(277.1,0.,0.));
#1253=CARTESIAN_POINT('',(277.1,0.,0.));
#1254=CARTESIAN_POINT('',(277.1,0.,61.));
#1255=CARTESIAN_POINT('',(239.4,0.,61.));
#1256=CARTESIAN_POINT('',(138.55,0.,0.));
#1257=CARTESIAN_POINT('',(0.,16.7,85.9));
#1258=CARTESIAN_POINT('',(0.,16.7,85.9));
#1259=CARTESIAN_POINT('',(0.,131.8,85.9));
#1260=CARTESIAN_POINT('',(0.,246.9,85.9));
#1261=CARTESIAN_POINT('',(0.,246.9,85.9));
#1262=CARTESIAN_POINT('',(0.,246.9,87.2));
#1263=CARTESIAN_POINT('',(0.,237.9,87.2));
#1264=CARTESIAN_POINT('',(0.,475.8,87.2));
#1265=CARTESIAN_POINT('',(0.,475.8,0.));
#1266=CARTESIAN_POINT('',(0.,475.8,0.));
#1267=CARTESIAN_POINT('',(0.,237.9,0.));
#1268=CARTESIAN_POINT('',(0.,237.9,0.));
#1269=CARTESIAN_POINT('',(218.7,475.8,61.));
#1270=CARTESIAN_POINT('',(218.7,475.8,61.));
#1271=CARTESIAN_POINT('',(247.9,475.8,61.));
#1272=CARTESIAN_POINT('',(277.1,475.8,61.));
#1273=CARTESIAN_POINT('',(277.1,475.8,0.));
#1274=CARTESIAN_POINT('',(277.1,475.8,0.));
#1275=CARTESIAN_POINT('',(138.55,475.8,0.));
#1276=CARTESIAN_POINT('',(25.6749999999999,475.8,112.875));
#1277=CARTESIAN_POINT('',(138.55,475.8,0.));
#1278=CARTESIAN_POINT('',(222.1,12.5,0.));
#1279=CARTESIAN_POINT('',(213.6,12.5,0.));
#1280=CARTESIAN_POINT('',(277.1,237.9,0.));
#1281=CARTESIAN_POINT('',(138.55,237.9,0.));
#1282=CARTESIAN_POINT('',(277.1,336.,61.));
#1283=CARTESIAN_POINT('',(277.1,336.,61.));
#1284=CARTESIAN_POINT('',(277.1,336.,81.7));
#1285=CARTESIAN_POINT('',(277.1,237.9,81.7));
#1286=CARTESIAN_POINT('',(277.1,102.7,81.7));
#1287=CARTESIAN_POINT('',(277.1,102.7,61.));
#1288=CARTESIAN_POINT('',(277.1,102.7,61.));
#1289=CARTESIAN_POINT('',(277.1,51.35,61.));
#1290=CARTESIAN_POINT('',(277.1,405.9,61.));
#1291=CARTESIAN_POINT('',(277.1,237.9,0.));
#1292=CARTESIAN_POINT('',(0.,246.9,87.2));
#1293=CARTESIAN_POINT('',(0.,237.9,87.2));
#1294=CARTESIAN_POINT('',(277.1,336.,81.7));
#1295=CARTESIAN_POINT('',(277.1,102.7,81.7));
#1296=CARTESIAN_POINT('',(277.1,237.9,81.7));
#1297=CARTESIAN_POINT('',(55.,16.7,85.9));
#1298=CARTESIAN_POINT('',(55.,16.7,85.9));
#1299=CARTESIAN_POINT('',(32.85,16.7,85.9));
#1300=CARTESIAN_POINT('',(32.85,16.7,85.9));
#1301=CARTESIAN_POINT('',(32.85,246.9,85.9));
#1302=CARTESIAN_POINT('',(55.,246.9,85.9));
#1303=CARTESIAN_POINT('',(55.,246.9,98.9));
#1304=CARTESIAN_POINT('',(32.85,246.9,85.9));
#1305=CARTESIAN_POINT('',(32.85,190.4,85.9));
#1306=CARTESIAN_POINT('',(30.2,190.4,85.9));
#1307=CARTESIAN_POINT('',(35.5,190.4,85.9));
#1308=CARTESIAN_POINT('',(35.5,176.3,85.9));
#1309=CARTESIAN_POINT('',(49.6,176.3,85.9));
#1310=CARTESIAN_POINT('',(49.6,131.8,85.9));
#1311=CARTESIAN_POINT('',(49.6,82.5,85.9));
#1312=CARTESIAN_POINT('',(35.5,82.5,85.9));
#1313=CARTESIAN_POINT('',(35.5,68.4,85.9));
#1314=CARTESIAN_POINT('',(32.85,68.4,85.9));
#1315=CARTESIAN_POINT('',(30.2,68.4,85.9));
#1316=CARTESIAN_POINT('',(30.2,82.5,85.9));
#1317=CARTESIAN_POINT('',(16.1,82.5,85.9));
#1318=CARTESIAN_POINT('',(16.1,131.8,85.9));
#1319=CARTESIAN_POINT('',(16.1,176.3,85.9));
#1320=CARTESIAN_POINT('',(30.2,176.3,85.9));
#1321=CARTESIAN_POINT('',(55.,27.4,85.9));
#1322=CARTESIAN_POINT('',(65.7,27.4,85.9));
#1323=CARTESIAN_POINT('',(65.7,131.8,85.9));
#1324=CARTESIAN_POINT('',(65.7,236.2,85.9));
#1325=CARTESIAN_POINT('',(55.,236.2,85.9));
#1326=CARTESIAN_POINT('',(32.85,131.8,85.9));
#1327=CARTESIAN_POINT('',(65.7,27.4,98.9));
#1328=CARTESIAN_POINT('',(65.7,236.2,85.9));
#1329=CARTESIAN_POINT('',(65.7,131.8,85.9));
#1330=CARTESIAN_POINT('',(55.,27.4,85.9));
#1331=CARTESIAN_POINT('',(55.,236.2,85.9));
#1332=CARTESIAN_POINT('',(181.,135.8,74.7));
#1333=CARTESIAN_POINT('',(181.,135.8,74.7));
#1334=CARTESIAN_POINT('',(156.9,135.8,74.7));
#1335=CARTESIAN_POINT('',(132.8,135.8,74.7));
#1336=CARTESIAN_POINT('',(132.8,135.8,98.9));
#1337=CARTESIAN_POINT('',(156.9,135.8,74.7));
#1338=CARTESIAN_POINT('',(127.6,221.95,74.7));
#1339=CARTESIAN_POINT('',(127.6,141.,74.7));
#1340=CARTESIAN_POINT('',(127.6,302.9,74.7));
#1341=CARTESIAN_POINT('',(127.6,302.9,98.9));
#1342=CARTESIAN_POINT('',(127.6,141.,74.7));
#1343=CARTESIAN_POINT('',(127.6,221.95,74.7));
#1344=CARTESIAN_POINT('',(156.9,308.1,74.7));
#1345=CARTESIAN_POINT('',(132.8,308.1,74.7));
#1346=CARTESIAN_POINT('',(181.,308.1,74.7));
#1347=CARTESIAN_POINT('',(181.,308.1,98.9));
#1348=CARTESIAN_POINT('',(132.8,308.1,74.7));
#1349=CARTESIAN_POINT('',(156.9,308.1,74.7));
#1350=CARTESIAN_POINT('',(161.3,253.3,74.7));
#1351=CARTESIAN_POINT('',(155.4,253.3,74.7));
#1352=CARTESIAN_POINT('',(186.2,221.95,74.7));
#1353=CARTESIAN_POINT('',(186.2,302.9,74.7));
#1354=CARTESIAN_POINT('',(186.2,141.,74.7));
#1355=CARTESIAN_POINT('',(181.,302.9,74.7));
#1356=CARTESIAN_POINT('',(132.8,302.9,74.7));
#1357=CARTESIAN_POINT('',(132.8,141.,74.7));
#1358=CARTESIAN_POINT('',(181.,141.,74.7));
#1359=CARTESIAN_POINT('',(156.9,221.95,74.7));
#1360=CARTESIAN_POINT('',(186.2,302.9,74.7));
#1361=CARTESIAN_POINT('',(186.2,141.,98.9));
#1362=CARTESIAN_POINT('',(186.2,221.95,74.7));
#1363=CARTESIAN_POINT('',(181.,302.9,74.7));
#1364=CARTESIAN_POINT('',(181.,141.,74.7));
#1365=CARTESIAN_POINT('',(132.8,302.9,74.7));
#1366=CARTESIAN_POINT('',(132.8,141.,74.7));
#1367=CARTESIAN_POINT('',(201.7,51.35,61.));
#1368=CARTESIAN_POINT('',(201.7,90.8,61.));
#1369=CARTESIAN_POINT('',(201.7,90.8,98.9));
#1370=CARTESIAN_POINT('',(201.7,51.35,61.));
#1371=CARTESIAN_POINT('',(213.6,102.7,61.));
#1372=CARTESIAN_POINT('',(213.6,102.7,61.));
#1373=CARTESIAN_POINT('',(239.4,102.7,61.));
#1374=CARTESIAN_POINT('',(239.4,102.7,61.));
#1375=CARTESIAN_POINT('',(222.1,12.5,61.));
#1376=CARTESIAN_POINT('',(213.6,12.5,61.));
#1377=CARTESIAN_POINT('',(213.6,90.8,61.));
#1378=CARTESIAN_POINT('',(239.4,51.35,61.));
#1379=CARTESIAN_POINT('',(213.6,90.8,61.));
#1380=CARTESIAN_POINT('',(247.9,336.,61.));
#1381=CARTESIAN_POINT('',(231.,336.,61.));
#1382=CARTESIAN_POINT('',(231.,336.,98.9));
#1383=CARTESIAN_POINT('',(247.9,336.,61.));
#1384=CARTESIAN_POINT('',(218.7,348.3,61.));
#1385=CARTESIAN_POINT('',(218.7,348.3,61.));
#1386=CARTESIAN_POINT('',(218.7,405.9,61.));
#1387=CARTESIAN_POINT('',(218.7,405.9,61.));
#1388=CARTESIAN_POINT('',(231.,348.3,61.));
#1389=CARTESIAN_POINT('',(247.9,405.9,61.));
#1390=CARTESIAN_POINT('',(231.,348.3,61.));
#1391=CARTESIAN_POINT('',(35.5,68.4,68.6));
#1392=CARTESIAN_POINT('',(35.5,68.4,68.6));
#1393=CARTESIAN_POINT('',(32.85,68.4,68.6));
#1394=CARTESIAN_POINT('',(30.2,68.4,68.6));
#1395=CARTESIAN_POINT('',(30.2,68.4,85.9));
#1396=CARTESIAN_POINT('',(32.85,68.4,68.6));
#1397=CARTESIAN_POINT('',(16.1,82.5,68.6));
#1398=CARTESIAN_POINT('',(16.1,82.5,68.6));
#1399=CARTESIAN_POINT('',(16.1,129.4,68.6));
#1400=CARTESIAN_POINT('',(16.1,176.3,68.6));
#1401=CARTESIAN_POINT('',(16.1,176.3,85.9));
#1402=CARTESIAN_POINT('',(16.1,129.4,68.6));
#1403=CARTESIAN_POINT('',(32.85,190.4,68.6));
#1404=CARTESIAN_POINT('',(30.2,190.4,68.6));
#1405=CARTESIAN_POINT('',(35.5,190.4,68.6));
#1406=CARTESIAN_POINT('',(35.5,190.4,85.9));
#1407=CARTESIAN_POINT('',(30.2,190.4,68.6));
#1408=CARTESIAN_POINT('',(32.85,190.4,68.6));
#1409=CARTESIAN_POINT('',(49.6,176.3,68.6));
#1410=CARTESIAN_POINT('',(49.6,176.3,68.6));
#1411=CARTESIAN_POINT('',(49.6,129.4,68.6));
#1412=CARTESIAN_POINT('',(49.6,82.5,68.6));
#1413=CARTESIAN_POINT('',(49.6,82.5,85.9));
#1414=CARTESIAN_POINT('',(49.6,129.4,68.6));
#1415=CARTESIAN_POINT('',(35.5,176.3,68.6));
#1416=CARTESIAN_POINT('',(30.2,176.3,68.6));
#1417=CARTESIAN_POINT('',(30.2,82.5,68.6));
#1418=CARTESIAN_POINT('',(35.5,82.5,68.6));
#1419=CARTESIAN_POINT('',(32.85,129.4,68.6));
#1420=CARTESIAN_POINT('',(35.5,176.3,68.6));
#1421=CARTESIAN_POINT('',(35.5,82.5,68.6));
#1422=CARTESIAN_POINT('',(30.2,82.5,68.6));
#1423=CARTESIAN_POINT('',(30.2,176.3,68.6));
#1424=CARTESIAN_POINT('',(181.5,317.3,47.));
#1425=CARTESIAN_POINT('',(184.15,317.3,47.));
#1426=CARTESIAN_POINT('',(181.5,317.3,47.));
#1427=CARTESIAN_POINT('',(181.5,317.3,98.95));
#1428=CARTESIAN_POINT('',(161.3,253.3,63.2));
#1429=CARTESIAN_POINT('',(167.2,253.3,63.2));
#1430=CARTESIAN_POINT('',(161.3,253.3,98.95));
#1431=CARTESIAN_POINT('',(161.3,253.3,63.2));
#1432=CARTESIAN_POINT('',(222.1,12.5,98.95));
#1433=MECHANICAL_DESIGN_GEOMETRIC_PRESENTATION_REPRESENTATION('',(#24),
#1434);
#1434=(
GEOMETRIC_REPRESENTATION_CONTEXT(3)
GLOBAL_UNCERTAINTY_ASSIGNED_CONTEXT((#1435))
GLOBAL_UNIT_ASSIGNED_CONTEXT((#1441,#1437,#1436))
REPRESENTATION_CONTEXT('featured_part_02984','TOP_LEVEL_ASSEMBLY_PART')
);
#1435=UNCERTAINTY_MEASURE_WITH_UNIT(LENGTH_MEASURE(2.E-5),#1441,
'DISTANCE_ACCURACY_VALUE','Maximum Tolerance applied to model');
#1436=(
NAMED_UNIT(*)
SI_UNIT($,.STERADIAN.)
SOLID_ANGLE_UNIT()
);
#1437=(
CONVERSION_BASED_UNIT('DEGREE',#1439)
NAMED_UNIT(#1438)
PLANE_ANGLE_UNIT()
);
#1438=DIMENSIONAL_EXPONENTS(0.,0.,0.,0.,0.,0.,0.);
#1439=PLANE_ANGLE_MEASURE_WITH_UNIT(PLANE_ANGLE_MEASURE(0.0174532925),#1440);
#1440=(
NAMED_UNIT(*)
PLANE_ANGLE_UNIT()
SI_UNIT($,.RADIAN.)
);
#1441=(
LENGTH_UNIT()
NAMED_UNIT(*)
SI_UNIT(.MILLI.,.METRE.)
);
ENDSEC;
END-ISO-10303-21;
