ISO-10303-21;
HEADER;
/* Generated by software containing ST-Developer
 * from STEP Tools, Inc. (www.steptools.com) 
 */
/* OPTION: using custom schema-name function */

FILE_DESCRIPTION(
/* description */ (''),
/* implementation_level */ '2;1');

FILE_NAME(
/* name */ 'featured_part_10103.stp',
/* time_stamp */ '2026-07-11T22:45:46-04:00',
/* author */ (''),
/* organization */ (''),
/* preprocessor_version */ 'ST-DEVELOPER v20.1',
/* originating_system */ 'SIEMENS PLM Software NX2512.6002',
/* authorisation */ '');

FILE_SCHEMA (('AUTOMOTIVE_DESIGN { 1 0 10303 214 3 1 1 1 }'));
ENDSEC;

DATA;
#10=SHAPE_REPRESENTATION_RELATIONSHIP('None',
'relationship between featured_part_10103-None and featured_part_10103
-None',#22,#11);
#11=ADVANCED_BREP_SHAPE_REPRESENTATION('featured_part_10103-None',(#32),
#1037);
#12=SHAPE_DEFINITION_REPRESENTATION(#13,#22);
#13=PRODUCT_DEFINITION_SHAPE('','',#14);
#14=PRODUCT_DEFINITION(' ','',#16,#15);
#15=PRODUCT_DEFINITION_CONTEXT('part definition',#21,'design');
#16=PRODUCT_DEFINITION_FORMATION_WITH_SPECIFIED_SOURCE(' ',' ',#18,
 .NOT_KNOWN.);
#17=PRODUCT_RELATED_PRODUCT_CATEGORY('part','',(#18));
#18=PRODUCT('featured_part_10103','featured_part_10103',' ',(#19));
#19=PRODUCT_CONTEXT(' ',#21,'mechanical');
#20=APPLICATION_PROTOCOL_DEFINITION('international standard',
'automotive_design',2010,#21);
#21=APPLICATION_CONTEXT(
'core data for automotive mechanical design processes');
#22=SHAPE_REPRESENTATION('featured_part_10103-None',(#635),#1037);
#23=PRESENTATION_LAYER_ASSIGNMENT('1','Layer 1',(#32));
#24=STYLED_ITEM('',(#25),#32);
#25=PRESENTATION_STYLE_ASSIGNMENT((#26));
#26=SURFACE_STYLE_USAGE(.BOTH.,#27);
#27=SURFACE_SIDE_STYLE('',(#28));
#28=SURFACE_STYLE_FILL_AREA(#29);
#29=FILL_AREA_STYLE('',(#30));
#30=FILL_AREA_STYLE_COLOUR('',#31);
#31=COLOUR_RGB('medium steel',0.611764705882353,0.658823529411765,0.670588235294118);
#32=MANIFOLD_SOLID_BREP('',#33);
#33=CLOSED_SHELL('',(#74,#75,#76,#77,#78,#79,#80,#81,#82,#83,#84,#85,#86,
#87,#88,#89,#90,#91,#92,#93,#94,#95,#96,#97,#98,#99,#100,#101,#102,#103,
#104,#105,#106));
#34=CYLINDRICAL_SURFACE('',#665,5.8);
#35=CYLINDRICAL_SURFACE('',#666,5.8);
#36=CYLINDRICAL_SURFACE('',#667,5.8);
#37=CYLINDRICAL_SURFACE('',#668,5.8);
#38=CYLINDRICAL_SURFACE('',#678,13.7);
#39=CYLINDRICAL_SURFACE('',#679,13.7);
#40=CYLINDRICAL_SURFACE('',#680,13.7);
#41=CYLINDRICAL_SURFACE('',#681,13.7);
#42=CYLINDRICAL_SURFACE('',#687,8.45);
#43=ELLIPSE('',#649,11.9501046020526,8.45);
#44=FACE_OUTER_BOUND('',#157,.T.);
#45=FACE_OUTER_BOUND('',#158,.T.);
#46=FACE_OUTER_BOUND('',#159,.T.);
#47=FACE_OUTER_BOUND('',#160,.T.);
#48=FACE_OUTER_BOUND('',#161,.T.);
#49=FACE_OUTER_BOUND('',#162,.T.);
#50=FACE_OUTER_BOUND('',#163,.T.);
#51=FACE_OUTER_BOUND('',#164,.T.);
#52=FACE_OUTER_BOUND('',#165,.T.);
#53=FACE_OUTER_BOUND('',#166,.T.);
#54=FACE_OUTER_BOUND('',#167,.T.);
#55=FACE_OUTER_BOUND('',#168,.T.);
#56=FACE_OUTER_BOUND('',#171,.T.);
#57=FACE_OUTER_BOUND('',#172,.T.);
#58=FACE_OUTER_BOUND('',#173,.T.);
#59=FACE_OUTER_BOUND('',#174,.T.);
#60=FACE_OUTER_BOUND('',#175,.T.);
#61=FACE_OUTER_BOUND('',#176,.T.);
#62=FACE_OUTER_BOUND('',#177,.T.);
#63=FACE_OUTER_BOUND('',#178,.T.);
#64=FACE_OUTER_BOUND('',#179,.T.);
#65=FACE_OUTER_BOUND('',#180,.T.);
#66=FACE_OUTER_BOUND('',#181,.T.);
#67=FACE_OUTER_BOUND('',#182,.T.);
#68=FACE_OUTER_BOUND('',#183,.T.);
#69=FACE_OUTER_BOUND('',#184,.T.);
#70=FACE_OUTER_BOUND('',#185,.T.);
#71=FACE_OUTER_BOUND('',#186,.T.);
#72=FACE_OUTER_BOUND('',#187,.T.);
#73=FACE_OUTER_BOUND('',#188,.T.);
#74=ADVANCED_FACE('',(#149,#150),#107,.T.);
#75=ADVANCED_FACE('',(#44),#108,.F.);
#76=ADVANCED_FACE('',(#45),#109,.T.);
#77=ADVANCED_FACE('',(#46),#110,.T.);
#78=ADVANCED_FACE('',(#47),#111,.T.);
#79=ADVANCED_FACE('',(#48),#112,.T.);
#80=ADVANCED_FACE('',(#49),#113,.T.);
#81=ADVANCED_FACE('',(#50),#114,.T.);
#82=ADVANCED_FACE('',(#51),#115,.F.);
#83=ADVANCED_FACE('',(#52),#116,.F.);
#84=ADVANCED_FACE('',(#53),#117,.F.);
#85=ADVANCED_FACE('',(#54),#118,.F.);
#86=ADVANCED_FACE('',(#55),#119,.F.);
#87=ADVANCED_FACE('',(#151,#152),#120,.F.);
#88=ADVANCED_FACE('',(#56),#121,.F.);
#89=ADVANCED_FACE('',(#57),#34,.F.);
#90=ADVANCED_FACE('',(#58),#35,.F.);
#91=ADVANCED_FACE('',(#59),#36,.F.);
#92=ADVANCED_FACE('',(#60),#37,.F.);
#93=ADVANCED_FACE('',(#61),#122,.F.);
#94=ADVANCED_FACE('',(#62),#123,.F.);
#95=ADVANCED_FACE('',(#63),#124,.F.);
#96=ADVANCED_FACE('',(#64),#125,.F.);
#97=ADVANCED_FACE('',(#65),#126,.F.);
#98=ADVANCED_FACE('',(#66),#38,.F.);
#99=ADVANCED_FACE('',(#67),#39,.F.);
#100=ADVANCED_FACE('',(#68),#40,.F.);
#101=ADVANCED_FACE('',(#69),#41,.F.);
#102=ADVANCED_FACE('',(#70),#127,.F.);
#103=ADVANCED_FACE('',(#71),#128,.F.);
#104=ADVANCED_FACE('',(#72),#129,.F.);
#105=ADVANCED_FACE('',(#73),#130,.F.);
#106=ADVANCED_FACE('',(#153,#154),#42,.F.);
#107=PLANE('',#640);
#108=PLANE('',#641);
#109=PLANE('',#643);
#110=PLANE('',#644);
#111=PLANE('',#645);
#112=PLANE('',#646);
#113=PLANE('',#647);
#114=PLANE('',#648);
#115=PLANE('',#650);
#116=PLANE('',#651);
#117=PLANE('',#652);
#118=PLANE('',#653);
#119=PLANE('',#654);
#120=PLANE('',#663);
#121=PLANE('',#664);
#122=PLANE('',#669);
#123=PLANE('',#670);
#124=PLANE('',#671);
#125=PLANE('',#672);
#126=PLANE('',#677);
#127=PLANE('',#682);
#128=PLANE('',#683);
#129=PLANE('',#684);
#130=PLANE('',#686);
#131=CIRCLE('',#636,5.8);
#132=CIRCLE('',#637,5.8);
#133=CIRCLE('',#638,5.8);
#134=CIRCLE('',#639,5.8);
#135=CIRCLE('',#642,8.45);
#136=CIRCLE('',#655,13.7);
#137=CIRCLE('',#656,13.7);
#138=CIRCLE('',#657,13.7);
#139=CIRCLE('',#658,13.7);
#140=CIRCLE('',#659,5.8);
#141=CIRCLE('',#660,5.8);
#142=CIRCLE('',#661,5.8);
#143=CIRCLE('',#662,5.8);
#144=CIRCLE('',#673,13.7);
#145=CIRCLE('',#674,13.7);
#146=CIRCLE('',#675,13.7);
#147=CIRCLE('',#676,13.7);
#148=CIRCLE('',#685,8.45);
#149=FACE_BOUND('',#155,.T.);
#150=FACE_BOUND('',#156,.T.);
#151=FACE_BOUND('',#169,.T.);
#152=FACE_BOUND('',#170,.T.);
#153=FACE_BOUND('',#189,.T.);
#154=FACE_BOUND('',#190,.T.);
#155=EDGE_LOOP('',(#191,#192,#193,#194));
#156=EDGE_LOOP('',(#195,#196,#197,#198,#199,#200,#201,#202));
#157=EDGE_LOOP('',(#203,#204,#205,#206));
#158=EDGE_LOOP('',(#207,#208,#209,#210,#211,#212));
#159=EDGE_LOOP('',(#213,#214,#215,#216,#217));
#160=EDGE_LOOP('',(#218,#219,#220,#221,#222,#223,#224,#225,#226));
#161=EDGE_LOOP('',(#227,#228,#229,#230));
#162=EDGE_LOOP('',(#231,#232,#233,#234));
#163=EDGE_LOOP('',(#235,#236,#237,#238,#239,#240,#241,#242,#243));
#164=EDGE_LOOP('',(#244,#245,#246,#247,#248,#249,#250));
#165=EDGE_LOOP('',(#251,#252,#253,#254));
#166=EDGE_LOOP('',(#255,#256,#257,#258));
#167=EDGE_LOOP('',(#259,#260,#261,#262));
#168=EDGE_LOOP('',(#263,#264,#265,#266));
#169=EDGE_LOOP('',(#267,#268,#269,#270,#271,#272,#273,#274));
#170=EDGE_LOOP('',(#275,#276,#277,#278,#279,#280,#281,#282));
#171=EDGE_LOOP('',(#283,#284,#285,#286));
#172=EDGE_LOOP('',(#287,#288,#289,#290));
#173=EDGE_LOOP('',(#291,#292,#293,#294));
#174=EDGE_LOOP('',(#295,#296,#297,#298));
#175=EDGE_LOOP('',(#299,#300,#301,#302));
#176=EDGE_LOOP('',(#303,#304,#305,#306));
#177=EDGE_LOOP('',(#307,#308,#309,#310));
#178=EDGE_LOOP('',(#311,#312,#313,#314));
#179=EDGE_LOOP('',(#315,#316,#317,#318));
#180=EDGE_LOOP('',(#319,#320,#321,#322,#323,#324,#325,#326));
#181=EDGE_LOOP('',(#327,#328,#329,#330));
#182=EDGE_LOOP('',(#331,#332,#333,#334));
#183=EDGE_LOOP('',(#335,#336,#337,#338));
#184=EDGE_LOOP('',(#339,#340,#341,#342));
#185=EDGE_LOOP('',(#343,#344,#345,#346,#347));
#186=EDGE_LOOP('',(#348,#349,#350,#351,#352));
#187=EDGE_LOOP('',(#353,#354,#355,#356));
#188=EDGE_LOOP('',(#357));
#189=EDGE_LOOP('',(#358,#359));
#190=EDGE_LOOP('',(#360));
#191=ORIENTED_EDGE('',*,*,#418,.F.);
#192=ORIENTED_EDGE('',*,*,#419,.F.);
#193=ORIENTED_EDGE('',*,*,#420,.F.);
#194=ORIENTED_EDGE('',*,*,#421,.T.);
#195=ORIENTED_EDGE('',*,*,#422,.F.);
#196=ORIENTED_EDGE('',*,*,#423,.T.);
#197=ORIENTED_EDGE('',*,*,#424,.F.);
#198=ORIENTED_EDGE('',*,*,#425,.T.);
#199=ORIENTED_EDGE('',*,*,#426,.F.);
#200=ORIENTED_EDGE('',*,*,#427,.T.);
#201=ORIENTED_EDGE('',*,*,#428,.F.);
#202=ORIENTED_EDGE('',*,*,#429,.T.);
#203=ORIENTED_EDGE('',*,*,#430,.F.);
#204=ORIENTED_EDGE('',*,*,#421,.F.);
#205=ORIENTED_EDGE('',*,*,#431,.F.);
#206=ORIENTED_EDGE('',*,*,#432,.F.);
#207=ORIENTED_EDGE('',*,*,#433,.F.);
#208=ORIENTED_EDGE('',*,*,#434,.T.);
#209=ORIENTED_EDGE('',*,*,#435,.F.);
#210=ORIENTED_EDGE('',*,*,#436,.F.);
#211=ORIENTED_EDGE('',*,*,#437,.T.);
#212=ORIENTED_EDGE('',*,*,#438,.T.);
#213=ORIENTED_EDGE('',*,*,#439,.T.);
#214=ORIENTED_EDGE('',*,*,#431,.T.);
#215=ORIENTED_EDGE('',*,*,#420,.T.);
#216=ORIENTED_EDGE('',*,*,#440,.F.);
#217=ORIENTED_EDGE('',*,*,#441,.T.);
#218=ORIENTED_EDGE('',*,*,#442,.F.);
#219=ORIENTED_EDGE('',*,*,#443,.F.);
#220=ORIENTED_EDGE('',*,*,#444,.F.);
#221=ORIENTED_EDGE('',*,*,#435,.T.);
#222=ORIENTED_EDGE('',*,*,#445,.T.);
#223=ORIENTED_EDGE('',*,*,#446,.F.);
#224=ORIENTED_EDGE('',*,*,#447,.T.);
#225=ORIENTED_EDGE('',*,*,#440,.T.);
#226=ORIENTED_EDGE('',*,*,#419,.T.);
#227=ORIENTED_EDGE('',*,*,#446,.T.);
#228=ORIENTED_EDGE('',*,*,#448,.T.);
#229=ORIENTED_EDGE('',*,*,#449,.F.);
#230=ORIENTED_EDGE('',*,*,#450,.T.);
#231=ORIENTED_EDGE('',*,*,#451,.F.);
#232=ORIENTED_EDGE('',*,*,#441,.F.);
#233=ORIENTED_EDGE('',*,*,#447,.F.);
#234=ORIENTED_EDGE('',*,*,#450,.F.);
#235=ORIENTED_EDGE('',*,*,#452,.F.);
#236=ORIENTED_EDGE('',*,*,#432,.T.);
#237=ORIENTED_EDGE('',*,*,#439,.F.);
#238=ORIENTED_EDGE('',*,*,#451,.T.);
#239=ORIENTED_EDGE('',*,*,#449,.T.);
#240=ORIENTED_EDGE('',*,*,#453,.T.);
#241=ORIENTED_EDGE('',*,*,#454,.T.);
#242=ORIENTED_EDGE('',*,*,#455,.F.);
#243=ORIENTED_EDGE('',*,*,#456,.F.);
#244=ORIENTED_EDGE('',*,*,#457,.F.);
#245=ORIENTED_EDGE('',*,*,#438,.F.);
#246=ORIENTED_EDGE('',*,*,#458,.T.);
#247=ORIENTED_EDGE('',*,*,#453,.F.);
#248=ORIENTED_EDGE('',*,*,#448,.F.);
#249=ORIENTED_EDGE('',*,*,#445,.F.);
#250=ORIENTED_EDGE('',*,*,#434,.F.);
#251=ORIENTED_EDGE('',*,*,#459,.F.);
#252=ORIENTED_EDGE('',*,*,#454,.F.);
#253=ORIENTED_EDGE('',*,*,#458,.F.);
#254=ORIENTED_EDGE('',*,*,#437,.F.);
#255=ORIENTED_EDGE('',*,*,#422,.T.);
#256=ORIENTED_EDGE('',*,*,#460,.T.);
#257=ORIENTED_EDGE('',*,*,#461,.T.);
#258=ORIENTED_EDGE('',*,*,#462,.T.);
#259=ORIENTED_EDGE('',*,*,#463,.T.);
#260=ORIENTED_EDGE('',*,*,#464,.T.);
#261=ORIENTED_EDGE('',*,*,#424,.T.);
#262=ORIENTED_EDGE('',*,*,#465,.T.);
#263=ORIENTED_EDGE('',*,*,#466,.T.);
#264=ORIENTED_EDGE('',*,*,#467,.T.);
#265=ORIENTED_EDGE('',*,*,#426,.T.);
#266=ORIENTED_EDGE('',*,*,#468,.T.);
#267=ORIENTED_EDGE('',*,*,#469,.T.);
#268=ORIENTED_EDGE('',*,*,#470,.T.);
#269=ORIENTED_EDGE('',*,*,#471,.T.);
#270=ORIENTED_EDGE('',*,*,#472,.T.);
#271=ORIENTED_EDGE('',*,*,#473,.T.);
#272=ORIENTED_EDGE('',*,*,#474,.T.);
#273=ORIENTED_EDGE('',*,*,#475,.T.);
#274=ORIENTED_EDGE('',*,*,#476,.T.);
#275=ORIENTED_EDGE('',*,*,#461,.F.);
#276=ORIENTED_EDGE('',*,*,#477,.T.);
#277=ORIENTED_EDGE('',*,*,#478,.F.);
#278=ORIENTED_EDGE('',*,*,#479,.T.);
#279=ORIENTED_EDGE('',*,*,#466,.F.);
#280=ORIENTED_EDGE('',*,*,#480,.T.);
#281=ORIENTED_EDGE('',*,*,#463,.F.);
#282=ORIENTED_EDGE('',*,*,#481,.T.);
#283=ORIENTED_EDGE('',*,*,#478,.T.);
#284=ORIENTED_EDGE('',*,*,#482,.T.);
#285=ORIENTED_EDGE('',*,*,#428,.T.);
#286=ORIENTED_EDGE('',*,*,#483,.T.);
#287=ORIENTED_EDGE('',*,*,#429,.F.);
#288=ORIENTED_EDGE('',*,*,#482,.F.);
#289=ORIENTED_EDGE('',*,*,#477,.F.);
#290=ORIENTED_EDGE('',*,*,#460,.F.);
#291=ORIENTED_EDGE('',*,*,#427,.F.);
#292=ORIENTED_EDGE('',*,*,#467,.F.);
#293=ORIENTED_EDGE('',*,*,#479,.F.);
#294=ORIENTED_EDGE('',*,*,#483,.F.);
#295=ORIENTED_EDGE('',*,*,#425,.F.);
#296=ORIENTED_EDGE('',*,*,#464,.F.);
#297=ORIENTED_EDGE('',*,*,#480,.F.);
#298=ORIENTED_EDGE('',*,*,#468,.F.);
#299=ORIENTED_EDGE('',*,*,#423,.F.);
#300=ORIENTED_EDGE('',*,*,#462,.F.);
#301=ORIENTED_EDGE('',*,*,#481,.F.);
#302=ORIENTED_EDGE('',*,*,#465,.F.);
#303=ORIENTED_EDGE('',*,*,#473,.F.);
#304=ORIENTED_EDGE('',*,*,#484,.T.);
#305=ORIENTED_EDGE('',*,*,#485,.T.);
#306=ORIENTED_EDGE('',*,*,#486,.T.);
#307=ORIENTED_EDGE('',*,*,#487,.T.);
#308=ORIENTED_EDGE('',*,*,#488,.T.);
#309=ORIENTED_EDGE('',*,*,#475,.F.);
#310=ORIENTED_EDGE('',*,*,#489,.T.);
#311=ORIENTED_EDGE('',*,*,#469,.F.);
#312=ORIENTED_EDGE('',*,*,#490,.T.);
#313=ORIENTED_EDGE('',*,*,#491,.T.);
#314=ORIENTED_EDGE('',*,*,#492,.T.);
#315=ORIENTED_EDGE('',*,*,#493,.T.);
#316=ORIENTED_EDGE('',*,*,#494,.T.);
#317=ORIENTED_EDGE('',*,*,#471,.F.);
#318=ORIENTED_EDGE('',*,*,#495,.T.);
#319=ORIENTED_EDGE('',*,*,#491,.F.);
#320=ORIENTED_EDGE('',*,*,#496,.T.);
#321=ORIENTED_EDGE('',*,*,#487,.F.);
#322=ORIENTED_EDGE('',*,*,#497,.T.);
#323=ORIENTED_EDGE('',*,*,#485,.F.);
#324=ORIENTED_EDGE('',*,*,#498,.T.);
#325=ORIENTED_EDGE('',*,*,#493,.F.);
#326=ORIENTED_EDGE('',*,*,#499,.T.);
#327=ORIENTED_EDGE('',*,*,#476,.F.);
#328=ORIENTED_EDGE('',*,*,#488,.F.);
#329=ORIENTED_EDGE('',*,*,#496,.F.);
#330=ORIENTED_EDGE('',*,*,#490,.F.);
#331=ORIENTED_EDGE('',*,*,#472,.F.);
#332=ORIENTED_EDGE('',*,*,#494,.F.);
#333=ORIENTED_EDGE('',*,*,#498,.F.);
#334=ORIENTED_EDGE('',*,*,#484,.F.);
#335=ORIENTED_EDGE('',*,*,#470,.F.);
#336=ORIENTED_EDGE('',*,*,#492,.F.);
#337=ORIENTED_EDGE('',*,*,#499,.F.);
#338=ORIENTED_EDGE('',*,*,#495,.F.);
#339=ORIENTED_EDGE('',*,*,#474,.F.);
#340=ORIENTED_EDGE('',*,*,#486,.F.);
#341=ORIENTED_EDGE('',*,*,#497,.F.);
#342=ORIENTED_EDGE('',*,*,#489,.F.);
#343=ORIENTED_EDGE('',*,*,#442,.T.);
#344=ORIENTED_EDGE('',*,*,#418,.T.);
#345=ORIENTED_EDGE('',*,*,#430,.T.);
#346=ORIENTED_EDGE('',*,*,#452,.T.);
#347=ORIENTED_EDGE('',*,*,#500,.T.);
#348=ORIENTED_EDGE('',*,*,#444,.T.);
#349=ORIENTED_EDGE('',*,*,#501,.T.);
#350=ORIENTED_EDGE('',*,*,#455,.T.);
#351=ORIENTED_EDGE('',*,*,#459,.T.);
#352=ORIENTED_EDGE('',*,*,#436,.T.);
#353=ORIENTED_EDGE('',*,*,#443,.T.);
#354=ORIENTED_EDGE('',*,*,#500,.F.);
#355=ORIENTED_EDGE('',*,*,#456,.T.);
#356=ORIENTED_EDGE('',*,*,#501,.F.);
#357=ORIENTED_EDGE('',*,*,#502,.F.);
#358=ORIENTED_EDGE('',*,*,#433,.T.);
#359=ORIENTED_EDGE('',*,*,#457,.T.);
#360=ORIENTED_EDGE('',*,*,#502,.T.);
#361=VERTEX_POINT('',#862);
#362=VERTEX_POINT('',#863);
#363=VERTEX_POINT('',#865);
#364=VERTEX_POINT('',#867);
#365=VERTEX_POINT('',#870);
#366=VERTEX_POINT('',#871);
#367=VERTEX_POINT('',#873);
#368=VERTEX_POINT('',#875);
#369=VERTEX_POINT('',#877);
#370=VERTEX_POINT('',#879);
#371=VERTEX_POINT('',#881);
#372=VERTEX_POINT('',#883);
#373=VERTEX_POINT('',#887);
#374=VERTEX_POINT('',#889);
#375=VERTEX_POINT('',#893);
#376=VERTEX_POINT('',#894);
#377=VERTEX_POINT('',#896);
#378=VERTEX_POINT('',#898);
#379=VERTEX_POINT('',#900);
#380=VERTEX_POINT('',#902);
#381=VERTEX_POINT('',#906);
#382=VERTEX_POINT('',#908);
#383=VERTEX_POINT('',#912);
#384=VERTEX_POINT('',#914);
#385=VERTEX_POINT('',#917);
#386=VERTEX_POINT('',#919);
#387=VERTEX_POINT('',#923);
#388=VERTEX_POINT('',#925);
#389=VERTEX_POINT('',#931);
#390=VERTEX_POINT('',#933);
#391=VERTEX_POINT('',#935);
#392=VERTEX_POINT('',#937);
#393=VERTEX_POINT('',#946);
#394=VERTEX_POINT('',#948);
#395=VERTEX_POINT('',#952);
#396=VERTEX_POINT('',#953);
#397=VERTEX_POINT('',#958);
#398=VERTEX_POINT('',#959);
#399=VERTEX_POINT('',#964);
#400=VERTEX_POINT('',#965);
#401=VERTEX_POINT('',#967);
#402=VERTEX_POINT('',#969);
#403=VERTEX_POINT('',#971);
#404=VERTEX_POINT('',#973);
#405=VERTEX_POINT('',#975);
#406=VERTEX_POINT('',#977);
#407=VERTEX_POINT('',#980);
#408=VERTEX_POINT('',#982);
#409=VERTEX_POINT('',#995);
#410=VERTEX_POINT('',#997);
#411=VERTEX_POINT('',#1001);
#412=VERTEX_POINT('',#1002);
#413=VERTEX_POINT('',#1007);
#414=VERTEX_POINT('',#1009);
#415=VERTEX_POINT('',#1013);
#416=VERTEX_POINT('',#1014);
#417=VERTEX_POINT('',#1033);
#418=EDGE_CURVE('',#361,#362,#503,.T.);
#419=EDGE_CURVE('',#363,#361,#504,.T.);
#420=EDGE_CURVE('',#364,#363,#505,.T.);
#421=EDGE_CURVE('',#364,#362,#506,.T.);
#422=EDGE_CURVE('',#365,#366,#507,.T.);
#423=EDGE_CURVE('',#365,#367,#131,.T.);
#424=EDGE_CURVE('',#368,#367,#508,.T.);
#425=EDGE_CURVE('',#368,#369,#132,.T.);
#426=EDGE_CURVE('',#370,#369,#509,.T.);
#427=EDGE_CURVE('',#370,#371,#133,.T.);
#428=EDGE_CURVE('',#372,#371,#510,.T.);
#429=EDGE_CURVE('',#372,#366,#134,.T.);
#430=EDGE_CURVE('',#362,#373,#511,.T.);
#431=EDGE_CURVE('',#374,#364,#512,.T.);
#432=EDGE_CURVE('',#373,#374,#513,.T.);
#433=EDGE_CURVE('',#375,#376,#135,.T.);
#434=EDGE_CURVE('',#375,#377,#514,.T.);
#435=EDGE_CURVE('',#378,#377,#515,.T.);
#436=EDGE_CURVE('',#379,#378,#516,.T.);
#437=EDGE_CURVE('',#379,#380,#517,.T.);
#438=EDGE_CURVE('',#380,#376,#518,.T.);
#439=EDGE_CURVE('',#381,#374,#519,.T.);
#440=EDGE_CURVE('',#382,#363,#520,.T.);
#441=EDGE_CURVE('',#382,#381,#521,.T.);
#442=EDGE_CURVE('',#383,#361,#522,.T.);
#443=EDGE_CURVE('',#384,#383,#523,.T.);
#444=EDGE_CURVE('',#378,#384,#524,.T.);
#445=EDGE_CURVE('',#377,#385,#525,.T.);
#446=EDGE_CURVE('',#386,#385,#526,.T.);
#447=EDGE_CURVE('',#386,#382,#527,.T.);
#448=EDGE_CURVE('',#385,#387,#528,.T.);
#449=EDGE_CURVE('',#388,#387,#529,.T.);
#450=EDGE_CURVE('',#388,#386,#530,.T.);
#451=EDGE_CURVE('',#381,#388,#531,.T.);
#452=EDGE_CURVE('',#373,#389,#532,.T.);
#453=EDGE_CURVE('',#387,#390,#533,.T.);
#454=EDGE_CURVE('',#390,#391,#534,.T.);
#455=EDGE_CURVE('',#392,#391,#535,.T.);
#456=EDGE_CURVE('',#389,#392,#536,.T.);
#457=EDGE_CURVE('',#376,#375,#43,.T.);
#458=EDGE_CURVE('',#380,#390,#537,.T.);
#459=EDGE_CURVE('',#391,#379,#538,.T.);
#460=EDGE_CURVE('',#366,#393,#539,.T.);
#461=EDGE_CURVE('',#393,#394,#540,.T.);
#462=EDGE_CURVE('',#394,#365,#541,.T.);
#463=EDGE_CURVE('',#395,#396,#542,.T.);
#464=EDGE_CURVE('',#396,#368,#543,.T.);
#465=EDGE_CURVE('',#367,#395,#544,.T.);
#466=EDGE_CURVE('',#397,#398,#545,.T.);
#467=EDGE_CURVE('',#398,#370,#546,.T.);
#468=EDGE_CURVE('',#369,#397,#547,.T.);
#469=EDGE_CURVE('',#399,#400,#548,.T.);
#470=EDGE_CURVE('',#400,#401,#136,.T.);
#471=EDGE_CURVE('',#401,#402,#549,.T.);
#472=EDGE_CURVE('',#402,#403,#137,.T.);
#473=EDGE_CURVE('',#403,#404,#550,.T.);
#474=EDGE_CURVE('',#404,#405,#138,.T.);
#475=EDGE_CURVE('',#405,#406,#551,.T.);
#476=EDGE_CURVE('',#406,#399,#139,.T.);
#477=EDGE_CURVE('',#393,#407,#140,.T.);
#478=EDGE_CURVE('',#408,#407,#552,.T.);
#479=EDGE_CURVE('',#408,#398,#141,.T.);
#480=EDGE_CURVE('',#397,#396,#142,.T.);
#481=EDGE_CURVE('',#395,#394,#143,.T.);
#482=EDGE_CURVE('',#407,#372,#553,.T.);
#483=EDGE_CURVE('',#371,#408,#554,.T.);
#484=EDGE_CURVE('',#403,#409,#555,.T.);
#485=EDGE_CURVE('',#409,#410,#556,.T.);
#486=EDGE_CURVE('',#410,#404,#557,.T.);
#487=EDGE_CURVE('',#411,#412,#558,.T.);
#488=EDGE_CURVE('',#412,#406,#559,.T.);
#489=EDGE_CURVE('',#405,#411,#560,.T.);
#490=EDGE_CURVE('',#399,#413,#561,.T.);
#491=EDGE_CURVE('',#413,#414,#562,.T.);
#492=EDGE_CURVE('',#414,#400,#563,.T.);
#493=EDGE_CURVE('',#415,#416,#564,.T.);
#494=EDGE_CURVE('',#416,#402,#565,.T.);
#495=EDGE_CURVE('',#401,#415,#566,.T.);
#496=EDGE_CURVE('',#413,#412,#144,.T.);
#497=EDGE_CURVE('',#411,#410,#145,.T.);
#498=EDGE_CURVE('',#409,#416,#146,.T.);
#499=EDGE_CURVE('',#415,#414,#147,.T.);
#500=EDGE_CURVE('',#389,#383,#567,.T.);
#501=EDGE_CURVE('',#384,#392,#568,.T.);
#502=EDGE_CURVE('',#417,#417,#148,.T.);
#503=LINE('',#861,#569);
#504=LINE('',#864,#570);
#505=LINE('',#866,#571);
#506=LINE('',#868,#572);
#507=LINE('',#869,#573);
#508=LINE('',#874,#574);
#509=LINE('',#878,#575);
#510=LINE('',#882,#576);
#511=LINE('',#886,#577);
#512=LINE('',#888,#578);
#513=LINE('',#890,#579);
#514=LINE('',#895,#580);
#515=LINE('',#897,#581);
#516=LINE('',#899,#582);
#517=LINE('',#901,#583);
#518=LINE('',#903,#584);
#519=LINE('',#905,#585);
#520=LINE('',#907,#586);
#521=LINE('',#909,#587);
#522=LINE('',#911,#588);
#523=LINE('',#913,#589);
#524=LINE('',#915,#590);
#525=LINE('',#916,#591);
#526=LINE('',#918,#592);
#527=LINE('',#920,#593);
#528=LINE('',#922,#594);
#529=LINE('',#924,#595);
#530=LINE('',#926,#596);
#531=LINE('',#928,#597);
#532=LINE('',#930,#598);
#533=LINE('',#932,#599);
#534=LINE('',#934,#600);
#535=LINE('',#936,#601);
#536=LINE('',#938,#602);
#537=LINE('',#941,#603);
#538=LINE('',#943,#604);
#539=LINE('',#945,#605);
#540=LINE('',#947,#606);
#541=LINE('',#949,#607);
#542=LINE('',#951,#608);
#543=LINE('',#954,#609);
#544=LINE('',#955,#610);
#545=LINE('',#957,#611);
#546=LINE('',#960,#612);
#547=LINE('',#961,#613);
#548=LINE('',#963,#614);
#549=LINE('',#968,#615);
#550=LINE('',#972,#616);
#551=LINE('',#976,#617);
#552=LINE('',#981,#618);
#553=LINE('',#987,#619);
#554=LINE('',#988,#620);
#555=LINE('',#994,#621);
#556=LINE('',#996,#622);
#557=LINE('',#998,#623);
#558=LINE('',#1000,#624);
#559=LINE('',#1003,#625);
#560=LINE('',#1004,#626);
#561=LINE('',#1006,#627);
#562=LINE('',#1008,#628);
#563=LINE('',#1010,#629);
#564=LINE('',#1012,#630);
#565=LINE('',#1015,#631);
#566=LINE('',#1016,#632);
#567=LINE('',#1027,#633);
#568=LINE('',#1029,#634);
#569=VECTOR('',#690,1.);
#570=VECTOR('',#691,1.);
#571=VECTOR('',#692,1.);
#572=VECTOR('',#693,1.);
#573=VECTOR('',#694,1.);
#574=VECTOR('',#697,1.);
#575=VECTOR('',#700,1.);
#576=VECTOR('',#703,1.);
#577=VECTOR('',#708,1.);
#578=VECTOR('',#709,1.);
#579=VECTOR('',#710,1.);
#580=VECTOR('',#715,1.);
#581=VECTOR('',#716,1.);
#582=VECTOR('',#717,1.);
#583=VECTOR('',#718,1.);
#584=VECTOR('',#719,1.);
#585=VECTOR('',#722,1.);
#586=VECTOR('',#723,1.);
#587=VECTOR('',#724,1.);
#588=VECTOR('',#727,1.);
#589=VECTOR('',#728,1.);
#590=VECTOR('',#729,1.);
#591=VECTOR('',#730,1.);
#592=VECTOR('',#731,1.);
#593=VECTOR('',#732,1.);
#594=VECTOR('',#735,1.);
#595=VECTOR('',#736,1.);
#596=VECTOR('',#737,1.);
#597=VECTOR('',#740,1.);
#598=VECTOR('',#743,1.);
#599=VECTOR('',#744,1.);
#600=VECTOR('',#745,1.);
#601=VECTOR('',#746,1.);
#602=VECTOR('',#747,1.);
#603=VECTOR('',#752,1.);
#604=VECTOR('',#755,1.);
#605=VECTOR('',#758,1.);
#606=VECTOR('',#759,1.);
#607=VECTOR('',#760,1.);
#608=VECTOR('',#763,1.);
#609=VECTOR('',#764,1.);
#610=VECTOR('',#765,1.);
#611=VECTOR('',#768,1.);
#612=VECTOR('',#769,1.);
#613=VECTOR('',#770,1.);
#614=VECTOR('',#773,1.);
#615=VECTOR('',#776,1.);
#616=VECTOR('',#779,1.);
#617=VECTOR('',#782,1.);
#618=VECTOR('',#787,1.);
#619=VECTOR('',#796,1.);
#620=VECTOR('',#797,1.);
#621=VECTOR('',#808,1.);
#622=VECTOR('',#809,1.);
#623=VECTOR('',#810,1.);
#624=VECTOR('',#813,1.);
#625=VECTOR('',#814,1.);
#626=VECTOR('',#815,1.);
#627=VECTOR('',#818,1.);
#628=VECTOR('',#819,1.);
#629=VECTOR('',#820,1.);
#630=VECTOR('',#823,1.);
#631=VECTOR('',#824,1.);
#632=VECTOR('',#825,1.);
#633=VECTOR('',#846,1.);
#634=VECTOR('',#849,1.);
#635=AXIS2_PLACEMENT_3D('',#860,#688,#689);
#636=AXIS2_PLACEMENT_3D('',#872,#695,#696);
#637=AXIS2_PLACEMENT_3D('',#876,#698,#699);
#638=AXIS2_PLACEMENT_3D('',#880,#701,#702);
#639=AXIS2_PLACEMENT_3D('',#884,#704,#705);
#640=AXIS2_PLACEMENT_3D('',#885,#706,#707);
#641=AXIS2_PLACEMENT_3D('',#891,#711,#712);
#642=AXIS2_PLACEMENT_3D('',#892,#713,#714);
#643=AXIS2_PLACEMENT_3D('',#904,#720,#721);
#644=AXIS2_PLACEMENT_3D('',#910,#725,#726);
#645=AXIS2_PLACEMENT_3D('',#921,#733,#734);
#646=AXIS2_PLACEMENT_3D('',#927,#738,#739);
#647=AXIS2_PLACEMENT_3D('',#929,#741,#742);
#648=AXIS2_PLACEMENT_3D('',#939,#748,#749);
#649=AXIS2_PLACEMENT_3D('',#940,#750,#751);
#650=AXIS2_PLACEMENT_3D('',#942,#753,#754);
#651=AXIS2_PLACEMENT_3D('',#944,#756,#757);
#652=AXIS2_PLACEMENT_3D('',#950,#761,#762);
#653=AXIS2_PLACEMENT_3D('',#956,#766,#767);
#654=AXIS2_PLACEMENT_3D('',#962,#771,#772);
#655=AXIS2_PLACEMENT_3D('',#966,#774,#775);
#656=AXIS2_PLACEMENT_3D('',#970,#777,#778);
#657=AXIS2_PLACEMENT_3D('',#974,#780,#781);
#658=AXIS2_PLACEMENT_3D('',#978,#783,#784);
#659=AXIS2_PLACEMENT_3D('',#979,#785,#786);
#660=AXIS2_PLACEMENT_3D('',#983,#788,#789);
#661=AXIS2_PLACEMENT_3D('',#984,#790,#791);
#662=AXIS2_PLACEMENT_3D('',#985,#792,#793);
#663=AXIS2_PLACEMENT_3D('',#986,#794,#795);
#664=AXIS2_PLACEMENT_3D('',#989,#798,#799);
#665=AXIS2_PLACEMENT_3D('',#990,#800,#801);
#666=AXIS2_PLACEMENT_3D('',#991,#802,#803);
#667=AXIS2_PLACEMENT_3D('',#992,#804,#805);
#668=AXIS2_PLACEMENT_3D('',#993,#806,#807);
#669=AXIS2_PLACEMENT_3D('',#999,#811,#812);
#670=AXIS2_PLACEMENT_3D('',#1005,#816,#817);
#671=AXIS2_PLACEMENT_3D('',#1011,#821,#822);
#672=AXIS2_PLACEMENT_3D('',#1017,#826,#827);
#673=AXIS2_PLACEMENT_3D('',#1018,#828,#829);
#674=AXIS2_PLACEMENT_3D('',#1019,#830,#831);
#675=AXIS2_PLACEMENT_3D('',#1020,#832,#833);
#676=AXIS2_PLACEMENT_3D('',#1021,#834,#835);
#677=AXIS2_PLACEMENT_3D('',#1022,#836,#837);
#678=AXIS2_PLACEMENT_3D('',#1023,#838,#839);
#679=AXIS2_PLACEMENT_3D('',#1024,#840,#841);
#680=AXIS2_PLACEMENT_3D('',#1025,#842,#843);
#681=AXIS2_PLACEMENT_3D('',#1026,#844,#845);
#682=AXIS2_PLACEMENT_3D('',#1028,#847,#848);
#683=AXIS2_PLACEMENT_3D('',#1030,#850,#851);
#684=AXIS2_PLACEMENT_3D('',#1031,#852,#853);
#685=AXIS2_PLACEMENT_3D('',#1032,#854,#855);
#686=AXIS2_PLACEMENT_3D('',#1034,#856,#857);
#687=AXIS2_PLACEMENT_3D('',#1035,#858,#859);
#688=DIRECTION('',(0.,0.,1.));
#689=DIRECTION('',(1.,0.,0.));
#690=DIRECTION('',(1.,0.,0.));
#691=DIRECTION('',(0.,1.,0.));
#692=DIRECTION('',(-1.,0.,0.));
#693=DIRECTION('',(0.,1.,0.));
#694=DIRECTION('',(1.,0.,0.));
#695=DIRECTION('',(0.,0.,-1.));
#696=DIRECTION('',(1.,0.,0.));
#697=DIRECTION('',(0.,-1.,0.));
#698=DIRECTION('',(0.,0.,-1.));
#699=DIRECTION('',(1.,0.,0.));
#700=DIRECTION('',(-1.,0.,0.));
#701=DIRECTION('',(0.,0.,-1.));
#702=DIRECTION('',(1.,0.,0.));
#703=DIRECTION('',(0.,1.,0.));
#704=DIRECTION('',(0.,0.,-1.));
#705=DIRECTION('',(1.,0.,0.));
#706=DIRECTION('',(0.,0.,1.));
#707=DIRECTION('',(1.,0.,0.));
#708=DIRECTION('',(0.707106781186548,0.,-0.707106781186548));
#709=DIRECTION('',(-0.707106781186548,0.,0.707106781186548));
#710=DIRECTION('',(0.,-1.,0.));
#711=DIRECTION('',(-0.707106781186547,0.,-0.707106781186547));
#712=DIRECTION('',(0.,-1.,0.));
#713=DIRECTION('',(0.,0.,1.));
#714=DIRECTION('',(1.,0.,0.));
#715=DIRECTION('',(-1.,0.,0.));
#716=DIRECTION('',(0.,1.,0.));
#717=DIRECTION('',(-1.,0.,0.));
#718=DIRECTION('',(0.,1.,0.));
#719=DIRECTION('',(-1.,0.,0.));
#720=DIRECTION('',(0.,0.,1.));
#721=DIRECTION('',(1.,0.,0.));
#722=DIRECTION('',(0.,0.,1.));
#723=DIRECTION('',(0.,0.,1.));
#724=DIRECTION('',(1.,0.,0.));
#725=DIRECTION('',(0.,-1.,0.));
#726=DIRECTION('',(0.,0.,-1.));
#727=DIRECTION('',(0.,0.,1.));
#728=DIRECTION('',(0.,-1.,0.));
#729=DIRECTION('',(0.,0.,-1.));
#730=DIRECTION('',(0.,0.707106781186548,-0.707106781186547));
#731=DIRECTION('',(0.,0.,1.));
#732=DIRECTION('',(0.,-1.,0.));
#733=DIRECTION('',(-1.,0.,0.));
#734=DIRECTION('',(0.,0.,1.));
#735=DIRECTION('',(1.,0.,0.));
#736=DIRECTION('',(0.,0.,1.));
#737=DIRECTION('',(-1.,0.,0.));
#738=DIRECTION('',(0.,1.,0.));
#739=DIRECTION('',(0.,0.,1.));
#740=DIRECTION('',(0.,1.,0.));
#741=DIRECTION('',(0.,0.,-1.));
#742=DIRECTION('',(-1.,0.,0.));
#743=DIRECTION('',(0.,0.,-1.));
#744=DIRECTION('',(0.,-0.707106781186548,0.707106781186547));
#745=DIRECTION('',(0.,-1.,0.));
#746=DIRECTION('',(0.,0.,1.));
#747=DIRECTION('',(0.,1.,0.));
#748=DIRECTION('',(1.,0.,0.));
#749=DIRECTION('',(0.,0.,-1.));
#750=DIRECTION('',(0.,0.707106781186547,0.707106781186548));
#751=DIRECTION('',(0.,0.707106781186548,-0.707106781186547));
#752=DIRECTION('',(0.577350269189626,0.577350269189626,-0.577350269189626));
#753=DIRECTION('',(0.,-0.707106781186547,-0.707106781186548));
#754=DIRECTION('',(1.,0.,0.));
#755=DIRECTION('',(-0.707106781186548,0.,0.707106781186548));
#756=DIRECTION('',(-0.707106781186547,0.,-0.707106781186547));
#757=DIRECTION('',(0.,-1.,0.));
#758=DIRECTION('',(0.,0.,-1.));
#759=DIRECTION('',(-1.,0.,0.));
#760=DIRECTION('',(0.,0.,1.));
#761=DIRECTION('',(0.,-1.,0.));
#762=DIRECTION('',(0.,0.,-1.));
#763=DIRECTION('',(0.,1.,0.));
#764=DIRECTION('',(0.,0.,1.));
#765=DIRECTION('',(0.,0.,-1.));
#766=DIRECTION('',(-1.,0.,0.));
#767=DIRECTION('',(0.,0.,1.));
#768=DIRECTION('',(1.,0.,0.));
#769=DIRECTION('',(0.,0.,1.));
#770=DIRECTION('',(0.,0.,-1.));
#771=DIRECTION('',(0.,1.,0.));
#772=DIRECTION('',(0.,0.,1.));
#773=DIRECTION('',(1.,0.,0.));
#774=DIRECTION('',(0.,0.,-1.));
#775=DIRECTION('',(-1.,0.,0.));
#776=DIRECTION('',(0.,-1.,0.));
#777=DIRECTION('',(0.,0.,-1.));
#778=DIRECTION('',(-1.,0.,0.));
#779=DIRECTION('',(-1.,0.,0.));
#780=DIRECTION('',(0.,0.,-1.));
#781=DIRECTION('',(-1.,0.,0.));
#782=DIRECTION('',(0.,1.,0.));
#783=DIRECTION('',(0.,0.,-1.));
#784=DIRECTION('',(-1.,0.,0.));
#785=DIRECTION('',(0.,0.,1.));
#786=DIRECTION('',(-1.,0.,0.));
#787=DIRECTION('',(0.,-1.,0.));
#788=DIRECTION('',(0.,0.,1.));
#789=DIRECTION('',(-1.,0.,0.));
#790=DIRECTION('',(0.,0.,1.));
#791=DIRECTION('',(-1.,0.,0.));
#792=DIRECTION('',(0.,0.,1.));
#793=DIRECTION('',(-1.,0.,0.));
#794=DIRECTION('',(0.,0.,-1.));
#795=DIRECTION('',(-1.,0.,0.));
#796=DIRECTION('',(0.,0.,1.));
#797=DIRECTION('',(0.,0.,-1.));
#798=DIRECTION('',(1.,0.,0.));
#799=DIRECTION('',(0.,0.,-1.));
#800=DIRECTION('',(0.,0.,1.));
#801=DIRECTION('',(1.,0.,0.));
#802=DIRECTION('',(0.,0.,1.));
#803=DIRECTION('',(1.,0.,0.));
#804=DIRECTION('',(0.,0.,1.));
#805=DIRECTION('',(1.,0.,0.));
#806=DIRECTION('',(0.,0.,1.));
#807=DIRECTION('',(1.,0.,0.));
#808=DIRECTION('',(0.,0.,-1.));
#809=DIRECTION('',(-1.,0.,0.));
#810=DIRECTION('',(0.,0.,1.));
#811=DIRECTION('',(0.,-1.,0.));
#812=DIRECTION('',(0.,0.,-1.));
#813=DIRECTION('',(0.,1.,0.));
#814=DIRECTION('',(0.,0.,1.));
#815=DIRECTION('',(0.,0.,-1.));
#816=DIRECTION('',(-1.,0.,0.));
#817=DIRECTION('',(0.,0.,1.));
#818=DIRECTION('',(0.,0.,-1.));
#819=DIRECTION('',(1.,0.,0.));
#820=DIRECTION('',(0.,0.,1.));
#821=DIRECTION('',(0.,1.,0.));
#822=DIRECTION('',(0.,0.,1.));
#823=DIRECTION('',(0.,-1.,0.));
#824=DIRECTION('',(0.,0.,1.));
#825=DIRECTION('',(0.,0.,-1.));
#826=DIRECTION('',(1.,0.,0.));
#827=DIRECTION('',(0.,0.,-1.));
#828=DIRECTION('',(0.,0.,1.));
#829=DIRECTION('',(-1.,0.,0.));
#830=DIRECTION('',(0.,0.,1.));
#831=DIRECTION('',(-1.,0.,0.));
#832=DIRECTION('',(0.,0.,1.));
#833=DIRECTION('',(-1.,0.,0.));
#834=DIRECTION('',(0.,0.,1.));
#835=DIRECTION('',(-1.,0.,0.));
#836=DIRECTION('',(0.,0.,-1.));
#837=DIRECTION('',(-1.,0.,0.));
#838=DIRECTION('',(0.,0.,1.));
#839=DIRECTION('',(1.,0.,0.));
#840=DIRECTION('',(0.,0.,1.));
#841=DIRECTION('',(0.999999999999999,0.,0.));
#842=DIRECTION('',(0.,0.,1.));
#843=DIRECTION('',(0.999999999999999,0.,0.));
#844=DIRECTION('',(0.,0.,1.));
#845=DIRECTION('',(1.,0.,0.));
#846=DIRECTION('',(-1.,0.,0.));
#847=DIRECTION('',(0.,-1.,0.));
#848=DIRECTION('',(0.,0.,-1.));
#849=DIRECTION('',(1.,0.,0.));
#850=DIRECTION('',(0.,1.,0.));
#851=DIRECTION('',(0.,0.,1.));
#852=DIRECTION('',(0.,0.,-1.));
#853=DIRECTION('',(-1.,0.,0.));
#854=DIRECTION('',(0.,0.,-1.));
#855=DIRECTION('',(1.,0.,0.));
#856=DIRECTION('',(0.,0.,-1.));
#857=DIRECTION('',(-1.,0.,0.));
#858=DIRECTION('',(0.,0.,-1.));
#859=DIRECTION('',(1.,0.,0.));
#860=CARTESIAN_POINT('',(0.,0.,0.));
#861=CARTESIAN_POINT('',(177.4,246.5,97.));
#862=CARTESIAN_POINT('',(0.,246.5,97.));
#863=CARTESIAN_POINT('',(344.2,246.5,97.));
#864=CARTESIAN_POINT('',(0.,236.1,97.));
#865=CARTESIAN_POINT('',(0.,0.,97.));
#866=CARTESIAN_POINT('',(177.4,0.,97.));
#867=CARTESIAN_POINT('',(344.2,0.,97.));
#868=CARTESIAN_POINT('',(344.2,236.1,97.));
#869=CARTESIAN_POINT('',(177.4,63.5,97.));
#870=CARTESIAN_POINT('',(54.,63.5,97.));
#871=CARTESIAN_POINT('',(175.9,63.5,97.));
#872=CARTESIAN_POINT('',(54.,69.3,97.));
#873=CARTESIAN_POINT('',(48.2,69.3,97.));
#874=CARTESIAN_POINT('',(48.2,236.1,97.));
#875=CARTESIAN_POINT('',(48.2,210.5,97.));
#876=CARTESIAN_POINT('',(54.,210.5,97.));
#877=CARTESIAN_POINT('',(54.,216.3,97.));
#878=CARTESIAN_POINT('',(177.4,216.3,97.));
#879=CARTESIAN_POINT('',(175.9,216.3,97.));
#880=CARTESIAN_POINT('',(175.9,210.5,97.));
#881=CARTESIAN_POINT('',(181.7,210.5,97.));
#882=CARTESIAN_POINT('',(181.7,236.1,97.));
#883=CARTESIAN_POINT('',(181.7,69.3,97.));
#884=CARTESIAN_POINT('',(175.9,69.3,97.));
#885=CARTESIAN_POINT('',(177.4,236.1,97.));
#886=CARTESIAN_POINT('',(354.8,246.5,86.4));
#887=CARTESIAN_POINT('',(354.8,246.5,86.4));
#888=CARTESIAN_POINT('',(309.3,0.,131.9));
#889=CARTESIAN_POINT('',(354.8,0.,86.4));
#890=CARTESIAN_POINT('',(354.8,236.1,86.4));
#891=CARTESIAN_POINT('',(354.8,236.1,86.4));
#892=CARTESIAN_POINT('',(79.4,459.8,97.));
#893=CARTESIAN_POINT('',(72.3118055895737,455.2,97.));
#894=CARTESIAN_POINT('',(86.4881944104264,455.2,97.));
#895=CARTESIAN_POINT('',(177.4,455.2,97.));
#896=CARTESIAN_POINT('',(0.,455.2,97.));
#897=CARTESIAN_POINT('',(0.,236.1,97.));
#898=CARTESIAN_POINT('',(0.,281.9,97.));
#899=CARTESIAN_POINT('',(177.4,281.9,97.));
#900=CARTESIAN_POINT('',(344.2,281.9,97.));
#901=CARTESIAN_POINT('',(344.2,236.1,97.));
#902=CARTESIAN_POINT('',(344.2,455.2,97.));
#903=CARTESIAN_POINT('',(177.4,455.2,97.));
#904=CARTESIAN_POINT('',(177.4,236.1,97.));
#905=CARTESIAN_POINT('',(354.8,0.,0.));
#906=CARTESIAN_POINT('',(354.8,0.,0.));
#907=CARTESIAN_POINT('',(0.,0.,0.));
#908=CARTESIAN_POINT('',(0.,0.,0.));
#909=CARTESIAN_POINT('',(177.4,0.,0.));
#910=CARTESIAN_POINT('',(177.4,0.,0.));
#911=CARTESIAN_POINT('',(0.,246.5,0.));
#912=CARTESIAN_POINT('',(0.,246.5,44.1));
#913=CARTESIAN_POINT('',(0.,236.1,44.1));
#914=CARTESIAN_POINT('',(0.,281.9,44.1));
#915=CARTESIAN_POINT('',(0.,281.9,0.));
#916=CARTESIAN_POINT('',(0.,394.15,158.05));
#917=CARTESIAN_POINT('',(0.,472.2,80.));
#918=CARTESIAN_POINT('',(0.,472.2,0.));
#919=CARTESIAN_POINT('',(0.,472.2,0.));
#920=CARTESIAN_POINT('',(0.,236.1,0.));
#921=CARTESIAN_POINT('',(0.,236.1,0.));
#922=CARTESIAN_POINT('',(177.4,472.2,80.));
#923=CARTESIAN_POINT('',(354.8,472.2,80.));
#924=CARTESIAN_POINT('',(354.8,472.2,0.));
#925=CARTESIAN_POINT('',(354.8,472.2,0.));
#926=CARTESIAN_POINT('',(177.4,472.2,0.));
#927=CARTESIAN_POINT('',(177.4,472.2,0.));
#928=CARTESIAN_POINT('',(354.8,236.1,0.));
#929=CARTESIAN_POINT('',(177.4,236.1,0.));
#930=CARTESIAN_POINT('',(354.8,246.5,0.));
#931=CARTESIAN_POINT('',(354.8,246.5,44.1));
#932=CARTESIAN_POINT('',(354.8,394.15,158.05));
#933=CARTESIAN_POINT('',(354.8,465.8,86.4));
#934=CARTESIAN_POINT('',(354.8,236.1,86.4));
#935=CARTESIAN_POINT('',(354.8,281.9,86.4));
#936=CARTESIAN_POINT('',(354.8,281.9,0.));
#937=CARTESIAN_POINT('',(354.8,281.9,44.1));
#938=CARTESIAN_POINT('',(354.8,236.1,44.1));
#939=CARTESIAN_POINT('',(354.8,236.1,0.));
#940=CARTESIAN_POINT('',(79.4,459.8,92.3999999999999));
#941=CARTESIAN_POINT('',(299.933333333333,410.933333333333,141.266666666667));
#942=CARTESIAN_POINT('',(177.4,472.2,80.));
#943=CARTESIAN_POINT('',(354.8,281.9,86.4));
#944=CARTESIAN_POINT('',(354.8,236.1,86.4));
#945=CARTESIAN_POINT('',(175.9,63.5,82.));
#946=CARTESIAN_POINT('',(175.9,63.5,82.));
#947=CARTESIAN_POINT('',(114.95,63.5,82.));
#948=CARTESIAN_POINT('',(54.,63.5,82.));
#949=CARTESIAN_POINT('',(54.,63.5,97.));
#950=CARTESIAN_POINT('',(114.95,63.5,82.));
#951=CARTESIAN_POINT('',(48.2,139.9,82.));
#952=CARTESIAN_POINT('',(48.2,69.3,82.));
#953=CARTESIAN_POINT('',(48.2,210.5,82.));
#954=CARTESIAN_POINT('',(48.2,210.5,97.));
#955=CARTESIAN_POINT('',(48.2,69.3,82.));
#956=CARTESIAN_POINT('',(48.2,139.9,82.));
#957=CARTESIAN_POINT('',(114.95,216.3,82.));
#958=CARTESIAN_POINT('',(54.,216.3,82.));
#959=CARTESIAN_POINT('',(175.9,216.3,82.));
#960=CARTESIAN_POINT('',(175.9,216.3,97.));
#961=CARTESIAN_POINT('',(54.,216.3,82.));
#962=CARTESIAN_POINT('',(114.95,216.3,82.));
#963=CARTESIAN_POINT('',(114.95,146.1,82.));
#964=CARTESIAN_POINT('',(88.6,146.1,82.));
#965=CARTESIAN_POINT('',(134.9,146.1,82.));
#966=CARTESIAN_POINT('',(134.9,132.4,82.));
#967=CARTESIAN_POINT('',(148.6,132.4,82.));
#968=CARTESIAN_POINT('',(148.6,139.9,82.));
#969=CARTESIAN_POINT('',(148.6,111.,82.));
#970=CARTESIAN_POINT('',(134.9,111.,82.));
#971=CARTESIAN_POINT('',(134.9,97.3,82.));
#972=CARTESIAN_POINT('',(114.95,97.3,82.));
#973=CARTESIAN_POINT('',(88.6,97.3,82.));
#974=CARTESIAN_POINT('',(88.6,111.,82.));
#975=CARTESIAN_POINT('',(74.9,111.,82.));
#976=CARTESIAN_POINT('',(74.9,139.9,82.));
#977=CARTESIAN_POINT('',(74.9,132.4,82.));
#978=CARTESIAN_POINT('',(88.6,132.4,82.));
#979=CARTESIAN_POINT('',(175.9,69.3,82.));
#980=CARTESIAN_POINT('',(181.7,69.3,82.));
#981=CARTESIAN_POINT('',(181.7,139.9,82.));
#982=CARTESIAN_POINT('',(181.7,210.5,82.));
#983=CARTESIAN_POINT('',(175.9,210.5,82.));
#984=CARTESIAN_POINT('',(54.,210.5,82.));
#985=CARTESIAN_POINT('',(54.,69.3,82.));
#986=CARTESIAN_POINT('',(114.95,139.9,82.));
#987=CARTESIAN_POINT('',(181.7,69.3,97.));
#988=CARTESIAN_POINT('',(181.7,210.5,82.));
#989=CARTESIAN_POINT('',(181.7,139.9,82.));
#990=CARTESIAN_POINT('',(175.9,69.3,82.));
#991=CARTESIAN_POINT('',(175.9,210.5,82.));
#992=CARTESIAN_POINT('',(54.,210.5,82.));
#993=CARTESIAN_POINT('',(54.,69.3,82.));
#994=CARTESIAN_POINT('',(134.9,97.3,59.1));
#995=CARTESIAN_POINT('',(134.9,97.3,59.1));
#996=CARTESIAN_POINT('',(111.75,97.3,59.1));
#997=CARTESIAN_POINT('',(88.6,97.3,59.1));
#998=CARTESIAN_POINT('',(88.6,97.3,82.));
#999=CARTESIAN_POINT('',(111.75,97.3,59.1));
#1000=CARTESIAN_POINT('',(74.9,121.7,59.1));
#1001=CARTESIAN_POINT('',(74.9,111.,59.1));
#1002=CARTESIAN_POINT('',(74.9,132.4,59.1));
#1003=CARTESIAN_POINT('',(74.9,132.4,82.));
#1004=CARTESIAN_POINT('',(74.9,111.,59.1));
#1005=CARTESIAN_POINT('',(74.9,121.7,59.1));
#1006=CARTESIAN_POINT('',(88.6,146.1,59.1));
#1007=CARTESIAN_POINT('',(88.6,146.1,59.1));
#1008=CARTESIAN_POINT('',(111.75,146.1,59.1));
#1009=CARTESIAN_POINT('',(134.9,146.1,59.1));
#1010=CARTESIAN_POINT('',(134.9,146.1,82.));
#1011=CARTESIAN_POINT('',(111.75,146.1,59.1));
#1012=CARTESIAN_POINT('',(148.6,121.7,59.1));
#1013=CARTESIAN_POINT('',(148.6,132.4,59.1));
#1014=CARTESIAN_POINT('',(148.6,111.,59.1));
#1015=CARTESIAN_POINT('',(148.6,111.,82.));
#1016=CARTESIAN_POINT('',(148.6,132.4,59.1));
#1017=CARTESIAN_POINT('',(148.6,121.7,59.1));
#1018=CARTESIAN_POINT('',(88.6,132.4,59.1));
#1019=CARTESIAN_POINT('',(88.6,111.,59.1));
#1020=CARTESIAN_POINT('',(134.9,111.,59.1));
#1021=CARTESIAN_POINT('',(134.9,132.4,59.1));
#1022=CARTESIAN_POINT('',(111.75,121.7,59.1));
#1023=CARTESIAN_POINT('',(88.6,132.4,59.1));
#1024=CARTESIAN_POINT('',(134.9,111.,59.1));
#1025=CARTESIAN_POINT('',(134.9,132.4,59.1));
#1026=CARTESIAN_POINT('',(88.6,111.,59.1));
#1027=CARTESIAN_POINT('',(177.4,246.5,44.1));
#1028=CARTESIAN_POINT('',(177.4,246.5,44.1));
#1029=CARTESIAN_POINT('',(177.4,281.9,44.1));
#1030=CARTESIAN_POINT('',(177.4,281.9,44.1));
#1031=CARTESIAN_POINT('',(177.4,264.2,44.1));
#1032=CARTESIAN_POINT('',(79.4,459.8,41.1));
#1033=CARTESIAN_POINT('',(87.85,459.8,41.1));
#1034=CARTESIAN_POINT('',(79.4,459.8,41.1));
#1035=CARTESIAN_POINT('',(79.4,459.8,97.05));
#1036=MECHANICAL_DESIGN_GEOMETRIC_PRESENTATION_REPRESENTATION('',(#24),
#1037);
#1037=(
GEOMETRIC_REPRESENTATION_CONTEXT(3)
GLOBAL_UNCERTAINTY_ASSIGNED_CONTEXT((#1038))
GLOBAL_UNIT_ASSIGNED_CONTEXT((#1044,#1040,#1039))
REPRESENTATION_CONTEXT('featured_part_10103','TOP_LEVEL_ASSEMBLY_PART')
);
#1038=UNCERTAINTY_MEASURE_WITH_UNIT(LENGTH_MEASURE(2.E-5),#1044,
'DISTANCE_ACCURACY_VALUE','Maximum Tolerance applied to model');
#1039=(
NAMED_UNIT(*)
SI_UNIT($,.STERADIAN.)
SOLID_ANGLE_UNIT()
);
#1040=(
CONVERSION_BASED_UNIT('DEGREE',#1042)
NAMED_UNIT(#1041)
PLANE_ANGLE_UNIT()
);
#1041=DIMENSIONAL_EXPONENTS(0.,0.,0.,0.,0.,0.,0.);
#1042=PLANE_ANGLE_MEASURE_WITH_UNIT(PLANE_ANGLE_MEASURE(0.0174532925),#1043);
#1043=(
NAMED_UNIT(*)
PLANE_ANGLE_UNIT()
SI_UNIT($,.RADIAN.)
);
#1044=(
LENGTH_UNIT()
NAMED_UNIT(*)
SI_UNIT(.MILLI.,.METRE.)
);
ENDSEC;
END-ISO-10303-21;
