ISO-10303-21;
HEADER;
/* Generated by software containing ST-Developer
 * from STEP Tools, Inc. (www.steptools.com) 
 */
/* OPTION: using custom schema-name function */

FILE_DESCRIPTION(
/* description */ (''),
/* implementation_level */ '2;1');

FILE_NAME(
/* name */ 'featured_part_10924.stp',
/* time_stamp */ '2026-07-12T11:10:28-04:00',
/* author */ (''),
/* organization */ (''),
/* preprocessor_version */ 'ST-DEVELOPER v20.1',
/* originating_system */ 'SIEMENS PLM Software NX2512.6002',
/* authorisation */ '');

FILE_SCHEMA (('AUTOMOTIVE_DESIGN { 1 0 10303 214 3 1 1 1 }'));
ENDSEC;

DATA;
#10=SHAPE_REPRESENTATION_RELATIONSHIP('None',
'relationship between featured_part_10924-None and featured_part_10924
-None',#22,#11);
#11=ADVANCED_BREP_SHAPE_REPRESENTATION('featured_part_10924-None',(#32),
#759);
#12=SHAPE_DEFINITION_REPRESENTATION(#13,#22);
#13=PRODUCT_DEFINITION_SHAPE('','',#14);
#14=PRODUCT_DEFINITION(' ','',#16,#15);
#15=PRODUCT_DEFINITION_CONTEXT('part definition',#21,'design');
#16=PRODUCT_DEFINITION_FORMATION_WITH_SPECIFIED_SOURCE(' ',' ',#18,
 .NOT_KNOWN.);
#17=PRODUCT_RELATED_PRODUCT_CATEGORY('part','',(#18));
#18=PRODUCT('featured_part_10924','featured_part_10924',' ',(#19));
#19=PRODUCT_CONTEXT(' ',#21,'mechanical');
#20=APPLICATION_PROTOCOL_DEFINITION('international standard',
'automotive_design',2010,#21);
#21=APPLICATION_CONTEXT(
'core data for automotive mechanical design processes');
#22=SHAPE_REPRESENTATION('featured_part_10924-None',(#465),#759);
#23=PRESENTATION_LAYER_ASSIGNMENT('1','Layer 1',(#32));
#24=STYLED_ITEM('',(#25),#32);
#25=PRESENTATION_STYLE_ASSIGNMENT((#26));
#26=SURFACE_STYLE_USAGE(.BOTH.,#27);
#27=SURFACE_SIDE_STYLE('',(#28));
#28=SURFACE_STYLE_FILL_AREA(#29);
#29=FILL_AREA_STYLE('',(#30));
#30=FILL_AREA_STYLE_COLOUR('',#31);
#31=COLOUR_RGB('medium steel',0.611764705882353,0.658823529411765,0.670588235294118);
#32=MANIFOLD_SOLID_BREP('',#33);
#33=CLOSED_SHELL('',(#62,#63,#64,#65,#66,#67,#68,#69,#70,#71,#72,#73,#74,
#75,#76,#77,#78,#79,#80,#81,#82,#83,#84,#85,#86));
#34=FACE_BOUND('',#116,.T.);
#35=FACE_BOUND('',#117,.T.);
#36=FACE_BOUND('',#132,.T.);
#37=FACE_BOUND('',#133,.T.);
#38=FACE_BOUND('',#135,.T.);
#39=FACE_BOUND('',#136,.T.);
#40=FACE_BOUND('',#138,.T.);
#41=FACE_BOUND('',#139,.T.);
#42=FACE_BOUND('',#142,.T.);
#43=FACE_BOUND('',#143,.T.);
#44=PLANE('',#469);
#45=PLANE('',#475);
#46=PLANE('',#476);
#47=PLANE('',#477);
#48=PLANE('',#478);
#49=PLANE('',#479);
#50=PLANE('',#480);
#51=PLANE('',#481);
#52=PLANE('',#482);
#53=PLANE('',#483);
#54=PLANE('',#484);
#55=PLANE('',#487);
#56=PLANE('',#490);
#57=PLANE('',#491);
#58=PLANE('',#495);
#59=PLANE('',#499);
#60=PLANE('',#502);
#61=PLANE('',#504);
#62=ADVANCED_FACE('',(#94),#87,.F.);
#63=ADVANCED_FACE('',(#95),#44,.F.);
#64=ADVANCED_FACE('',(#34,#35),#45,.T.);
#65=ADVANCED_FACE('',(#96),#46,.T.);
#66=ADVANCED_FACE('',(#97),#47,.T.);
#67=ADVANCED_FACE('',(#98),#48,.T.);
#68=ADVANCED_FACE('',(#99),#49,.T.);
#69=ADVANCED_FACE('',(#100),#50,.T.);
#70=ADVANCED_FACE('',(#101),#51,.F.);
#71=ADVANCED_FACE('',(#102),#52,.F.);
#72=ADVANCED_FACE('',(#103),#53,.F.);
#73=ADVANCED_FACE('',(#104),#54,.F.);
#74=ADVANCED_FACE('',(#105),#55,.F.);
#75=ADVANCED_FACE('',(#106),#88,.F.);
#76=ADVANCED_FACE('',(#107),#89,.F.);
#77=ADVANCED_FACE('',(#108),#56,.F.);
#78=ADVANCED_FACE('',(#109),#57,.F.);
#79=ADVANCED_FACE('',(#36,#37),#58,.F.);
#80=ADVANCED_FACE('',(#110),#90,.F.);
#81=ADVANCED_FACE('',(#38,#39),#91,.F.);
#82=ADVANCED_FACE('',(#111),#59,.F.);
#83=ADVANCED_FACE('',(#40,#41),#92,.F.);
#84=ADVANCED_FACE('',(#112),#60,.F.);
#85=ADVANCED_FACE('',(#113),#61,.F.);
#86=ADVANCED_FACE('',(#42,#43),#93,.F.);
#87=CYLINDRICAL_SURFACE('',#468,12.7);
#88=CYLINDRICAL_SURFACE('',#488,12.2);
#89=CYLINDRICAL_SURFACE('',#489,12.2);
#90=CYLINDRICAL_SURFACE('',#496,12.7);
#91=CYLINDRICAL_SURFACE('',#498,8.65);
#92=CYLINDRICAL_SURFACE('',#501,4.75);
#93=CYLINDRICAL_SURFACE('',#505,11.75);
#94=FACE_OUTER_BOUND('',#114,.T.);
#95=FACE_OUTER_BOUND('',#115,.T.);
#96=FACE_OUTER_BOUND('',#118,.T.);
#97=FACE_OUTER_BOUND('',#119,.T.);
#98=FACE_OUTER_BOUND('',#120,.T.);
#99=FACE_OUTER_BOUND('',#121,.T.);
#100=FACE_OUTER_BOUND('',#122,.T.);
#101=FACE_OUTER_BOUND('',#123,.T.);
#102=FACE_OUTER_BOUND('',#124,.T.);
#103=FACE_OUTER_BOUND('',#125,.T.);
#104=FACE_OUTER_BOUND('',#126,.T.);
#105=FACE_OUTER_BOUND('',#127,.T.);
#106=FACE_OUTER_BOUND('',#128,.T.);
#107=FACE_OUTER_BOUND('',#129,.T.);
#108=FACE_OUTER_BOUND('',#130,.T.);
#109=FACE_OUTER_BOUND('',#131,.T.);
#110=FACE_OUTER_BOUND('',#134,.T.);
#111=FACE_OUTER_BOUND('',#137,.T.);
#112=FACE_OUTER_BOUND('',#140,.T.);
#113=FACE_OUTER_BOUND('',#141,.T.);
#114=EDGE_LOOP('',(#232,#233,#234,#235));
#115=EDGE_LOOP('',(#236,#237,#238,#239));
#116=EDGE_LOOP('',(#240));
#117=EDGE_LOOP('',(#241,#242,#243,#244,#245,#246,#247,#248,#249,#250,#251,
#252,#253,#254,#255));
#118=EDGE_LOOP('',(#256,#257,#258,#259,#260,#261));
#119=EDGE_LOOP('',(#262,#263,#264,#265));
#120=EDGE_LOOP('',(#266,#267,#268,#269,#270));
#121=EDGE_LOOP('',(#271,#272,#273,#274));
#122=EDGE_LOOP('',(#275,#276,#277,#278,#279,#280,#281,#282,#283,#284));
#123=EDGE_LOOP('',(#285,#286,#287,#288));
#124=EDGE_LOOP('',(#289,#290,#291,#292,#293));
#125=EDGE_LOOP('',(#294,#295,#296,#297));
#126=EDGE_LOOP('',(#298,#299,#300,#301,#302));
#127=EDGE_LOOP('',(#303,#304,#305,#306,#307,#308));
#128=EDGE_LOOP('',(#309,#310,#311,#312));
#129=EDGE_LOOP('',(#313,#314,#315,#316));
#130=EDGE_LOOP('',(#317,#318,#319,#320));
#131=EDGE_LOOP('',(#321,#322,#323,#324,#325));
#132=EDGE_LOOP('',(#326));
#133=EDGE_LOOP('',(#327,#328,#329,#330,#331,#332,#333));
#134=EDGE_LOOP('',(#334,#335,#336,#337));
#135=EDGE_LOOP('',(#338));
#136=EDGE_LOOP('',(#339,#340,#341,#342));
#137=EDGE_LOOP('',(#343));
#138=EDGE_LOOP('',(#344));
#139=EDGE_LOOP('',(#345));
#140=EDGE_LOOP('',(#346));
#141=EDGE_LOOP('',(#347));
#142=EDGE_LOOP('',(#348));
#143=EDGE_LOOP('',(#349));
#144=LINE('',#636,#188);
#145=LINE('',#640,#189);
#146=LINE('',#642,#190);
#147=LINE('',#645,#191);
#148=LINE('',#647,#192);
#149=LINE('',#649,#193);
#150=LINE('',#657,#194);
#151=LINE('',#658,#195);
#152=LINE('',#662,#196);
#153=LINE('',#666,#197);
#154=LINE('',#668,#198);
#155=LINE('',#670,#199);
#156=LINE('',#672,#200);
#157=LINE('',#674,#201);
#158=LINE('',#676,#202);
#159=LINE('',#678,#203);
#160=LINE('',#680,#204);
#161=LINE('',#682,#205);
#162=LINE('',#684,#206);
#163=LINE('',#686,#207);
#164=LINE('',#688,#208);
#165=LINE('',#690,#209);
#166=LINE('',#692,#210);
#167=LINE('',#694,#211);
#168=LINE('',#696,#212);
#169=LINE('',#698,#213);
#170=LINE('',#700,#214);
#171=LINE('',#702,#215);
#172=LINE('',#703,#216);
#173=LINE('',#705,#217);
#174=LINE('',#707,#218);
#175=LINE('',#709,#219);
#176=LINE('',#711,#220);
#177=LINE('',#713,#221);
#178=LINE('',#715,#222);
#179=LINE('',#717,#223);
#180=LINE('',#720,#224);
#181=LINE('',#721,#225);
#182=LINE('',#723,#226);
#183=LINE('',#725,#227);
#184=LINE('',#732,#228);
#185=LINE('',#734,#229);
#186=LINE('',#736,#230);
#187=LINE('',#744,#231);
#188=VECTOR('',#510,1.);
#189=VECTOR('',#513,1.);
#190=VECTOR('',#516,1.);
#191=VECTOR('',#517,1.);
#192=VECTOR('',#518,1.);
#193=VECTOR('',#519,1.);
#194=VECTOR('',#528,1.);
#195=VECTOR('',#529,1.);
#196=VECTOR('',#532,1.);
#197=VECTOR('',#535,1.);
#198=VECTOR('',#536,1.);
#199=VECTOR('',#537,1.);
#200=VECTOR('',#538,1.);
#201=VECTOR('',#539,1.);
#202=VECTOR('',#540,1.);
#203=VECTOR('',#543,1.);
#204=VECTOR('',#544,1.);
#205=VECTOR('',#545,1.);
#206=VECTOR('',#546,1.);
#207=VECTOR('',#547,1.);
#208=VECTOR('',#550,1.);
#209=VECTOR('',#551,1.);
#210=VECTOR('',#554,1.);
#211=VECTOR('',#555,1.);
#212=VECTOR('',#556,1.);
#213=VECTOR('',#559,1.);
#214=VECTOR('',#562,1.);
#215=VECTOR('',#563,1.);
#216=VECTOR('',#564,1.);
#217=VECTOR('',#565,1.);
#218=VECTOR('',#566,1.);
#219=VECTOR('',#567,1.);
#220=VECTOR('',#570,1.);
#221=VECTOR('',#573,1.);
#222=VECTOR('',#574,1.);
#223=VECTOR('',#577,1.);
#224=VECTOR('',#578,1.);
#225=VECTOR('',#579,1.);
#226=VECTOR('',#582,1.);
#227=VECTOR('',#583,1.);
#228=VECTOR('',#596,1.);
#229=VECTOR('',#599,1.);
#230=VECTOR('',#600,1.);
#231=VECTOR('',#611,1.);
#232=ORIENTED_EDGE('',*,*,#391,.F.);
#233=ORIENTED_EDGE('',*,*,#392,.T.);
#234=ORIENTED_EDGE('',*,*,#393,.F.);
#235=ORIENTED_EDGE('',*,*,#394,.F.);
#236=ORIENTED_EDGE('',*,*,#395,.F.);
#237=ORIENTED_EDGE('',*,*,#396,.F.);
#238=ORIENTED_EDGE('',*,*,#397,.F.);
#239=ORIENTED_EDGE('',*,*,#398,.F.);
#240=ORIENTED_EDGE('',*,*,#399,.F.);
#241=ORIENTED_EDGE('',*,*,#400,.F.);
#242=ORIENTED_EDGE('',*,*,#401,.T.);
#243=ORIENTED_EDGE('',*,*,#402,.F.);
#244=ORIENTED_EDGE('',*,*,#398,.T.);
#245=ORIENTED_EDGE('',*,*,#403,.F.);
#246=ORIENTED_EDGE('',*,*,#404,.T.);
#247=ORIENTED_EDGE('',*,*,#405,.F.);
#248=ORIENTED_EDGE('',*,*,#406,.T.);
#249=ORIENTED_EDGE('',*,*,#407,.F.);
#250=ORIENTED_EDGE('',*,*,#408,.T.);
#251=ORIENTED_EDGE('',*,*,#409,.F.);
#252=ORIENTED_EDGE('',*,*,#410,.F.);
#253=ORIENTED_EDGE('',*,*,#411,.F.);
#254=ORIENTED_EDGE('',*,*,#412,.F.);
#255=ORIENTED_EDGE('',*,*,#393,.T.);
#256=ORIENTED_EDGE('',*,*,#413,.T.);
#257=ORIENTED_EDGE('',*,*,#411,.T.);
#258=ORIENTED_EDGE('',*,*,#414,.F.);
#259=ORIENTED_EDGE('',*,*,#415,.T.);
#260=ORIENTED_EDGE('',*,*,#416,.T.);
#261=ORIENTED_EDGE('',*,*,#417,.F.);
#262=ORIENTED_EDGE('',*,*,#414,.T.);
#263=ORIENTED_EDGE('',*,*,#410,.T.);
#264=ORIENTED_EDGE('',*,*,#418,.F.);
#265=ORIENTED_EDGE('',*,*,#419,.T.);
#266=ORIENTED_EDGE('',*,*,#409,.T.);
#267=ORIENTED_EDGE('',*,*,#420,.T.);
#268=ORIENTED_EDGE('',*,*,#421,.F.);
#269=ORIENTED_EDGE('',*,*,#422,.T.);
#270=ORIENTED_EDGE('',*,*,#418,.T.);
#271=ORIENTED_EDGE('',*,*,#423,.F.);
#272=ORIENTED_EDGE('',*,*,#415,.F.);
#273=ORIENTED_EDGE('',*,*,#419,.F.);
#274=ORIENTED_EDGE('',*,*,#422,.F.);
#275=ORIENTED_EDGE('',*,*,#424,.F.);
#276=ORIENTED_EDGE('',*,*,#425,.F.);
#277=ORIENTED_EDGE('',*,*,#416,.F.);
#278=ORIENTED_EDGE('',*,*,#423,.T.);
#279=ORIENTED_EDGE('',*,*,#421,.T.);
#280=ORIENTED_EDGE('',*,*,#426,.T.);
#281=ORIENTED_EDGE('',*,*,#427,.F.);
#282=ORIENTED_EDGE('',*,*,#428,.F.);
#283=ORIENTED_EDGE('',*,*,#429,.T.);
#284=ORIENTED_EDGE('',*,*,#396,.T.);
#285=ORIENTED_EDGE('',*,*,#430,.F.);
#286=ORIENTED_EDGE('',*,*,#426,.F.);
#287=ORIENTED_EDGE('',*,*,#420,.F.);
#288=ORIENTED_EDGE('',*,*,#408,.F.);
#289=ORIENTED_EDGE('',*,*,#431,.T.);
#290=ORIENTED_EDGE('',*,*,#432,.T.);
#291=ORIENTED_EDGE('',*,*,#403,.T.);
#292=ORIENTED_EDGE('',*,*,#397,.T.);
#293=ORIENTED_EDGE('',*,*,#429,.F.);
#294=ORIENTED_EDGE('',*,*,#433,.T.);
#295=ORIENTED_EDGE('',*,*,#434,.T.);
#296=ORIENTED_EDGE('',*,*,#405,.T.);
#297=ORIENTED_EDGE('',*,*,#435,.T.);
#298=ORIENTED_EDGE('',*,*,#407,.T.);
#299=ORIENTED_EDGE('',*,*,#436,.T.);
#300=ORIENTED_EDGE('',*,*,#437,.T.);
#301=ORIENTED_EDGE('',*,*,#427,.T.);
#302=ORIENTED_EDGE('',*,*,#430,.T.);
#303=ORIENTED_EDGE('',*,*,#437,.F.);
#304=ORIENTED_EDGE('',*,*,#438,.T.);
#305=ORIENTED_EDGE('',*,*,#433,.F.);
#306=ORIENTED_EDGE('',*,*,#439,.T.);
#307=ORIENTED_EDGE('',*,*,#431,.F.);
#308=ORIENTED_EDGE('',*,*,#428,.T.);
#309=ORIENTED_EDGE('',*,*,#406,.F.);
#310=ORIENTED_EDGE('',*,*,#434,.F.);
#311=ORIENTED_EDGE('',*,*,#438,.F.);
#312=ORIENTED_EDGE('',*,*,#436,.F.);
#313=ORIENTED_EDGE('',*,*,#404,.F.);
#314=ORIENTED_EDGE('',*,*,#432,.F.);
#315=ORIENTED_EDGE('',*,*,#439,.F.);
#316=ORIENTED_EDGE('',*,*,#435,.F.);
#317=ORIENTED_EDGE('',*,*,#440,.T.);
#318=ORIENTED_EDGE('',*,*,#394,.T.);
#319=ORIENTED_EDGE('',*,*,#412,.T.);
#320=ORIENTED_EDGE('',*,*,#413,.F.);
#321=ORIENTED_EDGE('',*,*,#402,.T.);
#322=ORIENTED_EDGE('',*,*,#441,.T.);
#323=ORIENTED_EDGE('',*,*,#442,.T.);
#324=ORIENTED_EDGE('',*,*,#424,.T.);
#325=ORIENTED_EDGE('',*,*,#395,.T.);
#326=ORIENTED_EDGE('',*,*,#443,.T.);
#327=ORIENTED_EDGE('',*,*,#444,.T.);
#328=ORIENTED_EDGE('',*,*,#445,.T.);
#329=ORIENTED_EDGE('',*,*,#391,.T.);
#330=ORIENTED_EDGE('',*,*,#440,.F.);
#331=ORIENTED_EDGE('',*,*,#417,.T.);
#332=ORIENTED_EDGE('',*,*,#425,.T.);
#333=ORIENTED_EDGE('',*,*,#442,.F.);
#334=ORIENTED_EDGE('',*,*,#401,.F.);
#335=ORIENTED_EDGE('',*,*,#446,.T.);
#336=ORIENTED_EDGE('',*,*,#444,.F.);
#337=ORIENTED_EDGE('',*,*,#441,.F.);
#338=ORIENTED_EDGE('',*,*,#447,.T.);
#339=ORIENTED_EDGE('',*,*,#445,.F.);
#340=ORIENTED_EDGE('',*,*,#446,.F.);
#341=ORIENTED_EDGE('',*,*,#400,.T.);
#342=ORIENTED_EDGE('',*,*,#392,.F.);
#343=ORIENTED_EDGE('',*,*,#447,.F.);
#344=ORIENTED_EDGE('',*,*,#448,.T.);
#345=ORIENTED_EDGE('',*,*,#443,.F.);
#346=ORIENTED_EDGE('',*,*,#448,.F.);
#347=ORIENTED_EDGE('',*,*,#449,.F.);
#348=ORIENTED_EDGE('',*,*,#399,.T.);
#349=ORIENTED_EDGE('',*,*,#449,.T.);
#350=VERTEX_POINT('',#634);
#351=VERTEX_POINT('',#635);
#352=VERTEX_POINT('',#637);
#353=VERTEX_POINT('',#639);
#354=VERTEX_POINT('',#643);
#355=VERTEX_POINT('',#644);
#356=VERTEX_POINT('',#646);
#357=VERTEX_POINT('',#648);
#358=VERTEX_POINT('',#652);
#359=VERTEX_POINT('',#654);
#360=VERTEX_POINT('',#656);
#361=VERTEX_POINT('',#659);
#362=VERTEX_POINT('',#661);
#363=VERTEX_POINT('',#663);
#364=VERTEX_POINT('',#665);
#365=VERTEX_POINT('',#667);
#366=VERTEX_POINT('',#669);
#367=VERTEX_POINT('',#671);
#368=VERTEX_POINT('',#673);
#369=VERTEX_POINT('',#675);
#370=VERTEX_POINT('',#679);
#371=VERTEX_POINT('',#681);
#372=VERTEX_POINT('',#683);
#373=VERTEX_POINT('',#685);
#374=VERTEX_POINT('',#689);
#375=VERTEX_POINT('',#693);
#376=VERTEX_POINT('',#695);
#377=VERTEX_POINT('',#701);
#378=VERTEX_POINT('',#704);
#379=VERTEX_POINT('',#706);
#380=VERTEX_POINT('',#708);
#381=VERTEX_POINT('',#714);
#382=VERTEX_POINT('',#718);
#383=VERTEX_POINT('',#719);
#384=VERTEX_POINT('',#724);
#385=VERTEX_POINT('',#735);
#386=VERTEX_POINT('',#739);
#387=VERTEX_POINT('',#741);
#388=VERTEX_POINT('',#747);
#389=VERTEX_POINT('',#751);
#390=VERTEX_POINT('',#755);
#391=EDGE_CURVE('',#350,#351,#450,.T.);
#392=EDGE_CURVE('',#350,#352,#144,.T.);
#393=EDGE_CURVE('',#353,#352,#451,.T.);
#394=EDGE_CURVE('',#351,#353,#145,.T.);
#395=EDGE_CURVE('',#354,#355,#146,.T.);
#396=EDGE_CURVE('',#356,#354,#147,.T.);
#397=EDGE_CURVE('',#357,#356,#148,.T.);
#398=EDGE_CURVE('',#355,#357,#149,.T.);
#399=EDGE_CURVE('',#358,#358,#452,.T.);
#400=EDGE_CURVE('',#359,#352,#453,.T.);
#401=EDGE_CURVE('',#359,#360,#454,.T.);
#402=EDGE_CURVE('',#355,#360,#150,.T.);
#403=EDGE_CURVE('',#361,#357,#151,.T.);
#404=EDGE_CURVE('',#361,#362,#455,.T.);
#405=EDGE_CURVE('',#363,#362,#152,.T.);
#406=EDGE_CURVE('',#363,#364,#456,.T.);
#407=EDGE_CURVE('',#365,#364,#153,.T.);
#408=EDGE_CURVE('',#365,#366,#154,.T.);
#409=EDGE_CURVE('',#367,#366,#155,.T.);
#410=EDGE_CURVE('',#368,#367,#156,.T.);
#411=EDGE_CURVE('',#369,#368,#157,.T.);
#412=EDGE_CURVE('',#353,#369,#158,.T.);
#413=EDGE_CURVE('',#370,#369,#159,.T.);
#414=EDGE_CURVE('',#371,#368,#160,.T.);
#415=EDGE_CURVE('',#371,#372,#161,.T.);
#416=EDGE_CURVE('',#372,#373,#162,.T.);
#417=EDGE_CURVE('',#370,#373,#163,.T.);
#418=EDGE_CURVE('',#374,#367,#164,.T.);
#419=EDGE_CURVE('',#374,#371,#165,.T.);
#420=EDGE_CURVE('',#366,#375,#166,.T.);
#421=EDGE_CURVE('',#376,#375,#167,.T.);
#422=EDGE_CURVE('',#376,#374,#168,.T.);
#423=EDGE_CURVE('',#372,#376,#169,.T.);
#424=EDGE_CURVE('',#377,#354,#170,.T.);
#425=EDGE_CURVE('',#373,#377,#171,.T.);
#426=EDGE_CURVE('',#375,#378,#172,.T.);
#427=EDGE_CURVE('',#379,#378,#173,.T.);
#428=EDGE_CURVE('',#380,#379,#174,.T.);
#429=EDGE_CURVE('',#380,#356,#175,.T.);
#430=EDGE_CURVE('',#378,#365,#176,.T.);
#431=EDGE_CURVE('',#380,#381,#177,.T.);
#432=EDGE_CURVE('',#381,#361,#178,.T.);
#433=EDGE_CURVE('',#382,#383,#179,.T.);
#434=EDGE_CURVE('',#383,#363,#180,.T.);
#435=EDGE_CURVE('',#362,#382,#181,.T.);
#436=EDGE_CURVE('',#364,#384,#182,.T.);
#437=EDGE_CURVE('',#384,#379,#183,.T.);
#438=EDGE_CURVE('',#384,#383,#457,.T.);
#439=EDGE_CURVE('',#382,#381,#458,.T.);
#440=EDGE_CURVE('',#370,#351,#184,.T.);
#441=EDGE_CURVE('',#360,#385,#185,.T.);
#442=EDGE_CURVE('',#385,#377,#186,.T.);
#443=EDGE_CURVE('',#386,#386,#459,.T.);
#444=EDGE_CURVE('',#385,#387,#460,.T.);
#445=EDGE_CURVE('',#387,#350,#461,.T.);
#446=EDGE_CURVE('',#359,#387,#187,.T.);
#447=EDGE_CURVE('',#388,#388,#462,.T.);
#448=EDGE_CURVE('',#389,#389,#463,.T.);
#449=EDGE_CURVE('',#390,#390,#464,.T.);
#450=CIRCLE('',#466,12.7);
#451=CIRCLE('',#467,12.7);
#452=CIRCLE('',#470,11.75);
#453=CIRCLE('',#471,8.65);
#454=CIRCLE('',#472,12.7);
#455=CIRCLE('',#473,12.2);
#456=CIRCLE('',#474,12.2);
#457=CIRCLE('',#485,12.2);
#458=CIRCLE('',#486,12.2);
#459=CIRCLE('',#492,4.75);
#460=CIRCLE('',#493,12.7);
#461=CIRCLE('',#494,8.65);
#462=CIRCLE('',#497,8.65);
#463=CIRCLE('',#500,4.75);
#464=CIRCLE('',#503,11.75);
#465=AXIS2_PLACEMENT_3D('',#632,#506,#507);
#466=AXIS2_PLACEMENT_3D('',#633,#508,#509);
#467=AXIS2_PLACEMENT_3D('',#638,#511,#512);
#468=AXIS2_PLACEMENT_3D('',#641,#514,#515);
#469=AXIS2_PLACEMENT_3D('',#650,#520,#521);
#470=AXIS2_PLACEMENT_3D('',#651,#522,#523);
#471=AXIS2_PLACEMENT_3D('',#653,#524,#525);
#472=AXIS2_PLACEMENT_3D('',#655,#526,#527);
#473=AXIS2_PLACEMENT_3D('',#660,#530,#531);
#474=AXIS2_PLACEMENT_3D('',#664,#533,#534);
#475=AXIS2_PLACEMENT_3D('',#677,#541,#542);
#476=AXIS2_PLACEMENT_3D('',#687,#548,#549);
#477=AXIS2_PLACEMENT_3D('',#691,#552,#553);
#478=AXIS2_PLACEMENT_3D('',#697,#557,#558);
#479=AXIS2_PLACEMENT_3D('',#699,#560,#561);
#480=AXIS2_PLACEMENT_3D('',#710,#568,#569);
#481=AXIS2_PLACEMENT_3D('',#712,#571,#572);
#482=AXIS2_PLACEMENT_3D('',#716,#575,#576);
#483=AXIS2_PLACEMENT_3D('',#722,#580,#581);
#484=AXIS2_PLACEMENT_3D('',#726,#584,#585);
#485=AXIS2_PLACEMENT_3D('',#727,#586,#587);
#486=AXIS2_PLACEMENT_3D('',#728,#588,#589);
#487=AXIS2_PLACEMENT_3D('',#729,#590,#591);
#488=AXIS2_PLACEMENT_3D('',#730,#592,#593);
#489=AXIS2_PLACEMENT_3D('',#731,#594,#595);
#490=AXIS2_PLACEMENT_3D('',#733,#597,#598);
#491=AXIS2_PLACEMENT_3D('',#737,#601,#602);
#492=AXIS2_PLACEMENT_3D('',#738,#603,#604);
#493=AXIS2_PLACEMENT_3D('',#740,#605,#606);
#494=AXIS2_PLACEMENT_3D('',#742,#607,#608);
#495=AXIS2_PLACEMENT_3D('',#743,#609,#610);
#496=AXIS2_PLACEMENT_3D('',#745,#612,#613);
#497=AXIS2_PLACEMENT_3D('',#746,#614,#615);
#498=AXIS2_PLACEMENT_3D('',#748,#616,#617);
#499=AXIS2_PLACEMENT_3D('',#749,#618,#619);
#500=AXIS2_PLACEMENT_3D('',#750,#620,#621);
#501=AXIS2_PLACEMENT_3D('',#752,#622,#623);
#502=AXIS2_PLACEMENT_3D('',#753,#624,#625);
#503=AXIS2_PLACEMENT_3D('',#754,#626,#627);
#504=AXIS2_PLACEMENT_3D('',#756,#628,#629);
#505=AXIS2_PLACEMENT_3D('',#757,#630,#631);
#506=DIRECTION('',(0.,0.,1.));
#507=DIRECTION('',(1.,0.,0.));
#508=DIRECTION('',(0.,0.,1.));
#509=DIRECTION('',(-0.999999999999999,0.,0.));
#510=DIRECTION('',(0.,0.,1.));
#511=DIRECTION('',(0.,0.,-1.));
#512=DIRECTION('',(0.999999999999999,0.,0.));
#513=DIRECTION('',(0.,0.,1.));
#514=DIRECTION('',(0.,0.,1.));
#515=DIRECTION('',(0.999999999999999,0.,0.));
#516=DIRECTION('',(-0.707106781186548,0.,0.707106781186547));
#517=DIRECTION('',(0.,-1.,0.));
#518=DIRECTION('',(0.707106781186548,0.,-0.707106781186547));
#519=DIRECTION('',(0.,1.,0.));
#520=DIRECTION('',(-0.707106781186547,0.,-0.707106781186548));
#521=DIRECTION('',(0.,-1.,0.));
#522=DIRECTION('',(0.,0.,1.));
#523=DIRECTION('',(1.,0.,0.));
#524=DIRECTION('',(0.,0.,1.));
#525=DIRECTION('',(0.999999999999999,0.,0.));
#526=DIRECTION('',(0.,0.,-1.));
#527=DIRECTION('',(0.999999999999999,0.,0.));
#528=DIRECTION('',(-1.,0.,0.));
#529=DIRECTION('',(1.,0.,0.));
#530=DIRECTION('',(0.,0.,-1.));
#531=DIRECTION('',(0.999999999999999,0.,0.));
#532=DIRECTION('',(0.,-1.,0.));
#533=DIRECTION('',(0.,0.,-1.));
#534=DIRECTION('',(0.999999999999999,0.,0.));
#535=DIRECTION('',(-1.,0.,0.));
#536=DIRECTION('',(0.,1.,0.));
#537=DIRECTION('',(1.,0.,0.));
#538=DIRECTION('',(0.,1.,0.));
#539=DIRECTION('',(-1.,0.,0.));
#540=DIRECTION('',(0.,-1.,0.));
#541=DIRECTION('',(0.,0.,1.));
#542=DIRECTION('',(1.,0.,0.));
#543=DIRECTION('',(0.,0.,1.));
#544=DIRECTION('',(0.,0.,1.));
#545=DIRECTION('',(1.,0.,0.));
#546=DIRECTION('',(0.,0.,1.));
#547=DIRECTION('',(1.,0.,0.));
#548=DIRECTION('',(0.,-1.,0.));
#549=DIRECTION('',(0.,0.,-1.));
#550=DIRECTION('',(0.,0.,1.));
#551=DIRECTION('',(0.,-1.,0.));
#552=DIRECTION('',(-1.,0.,0.));
#553=DIRECTION('',(0.,0.,1.));
#554=DIRECTION('',(0.707106781186548,0.,-0.707106781186547));
#555=DIRECTION('',(0.,0.,1.));
#556=DIRECTION('',(-1.,0.,0.));
#557=DIRECTION('',(0.,1.,0.));
#558=DIRECTION('',(0.,0.,1.));
#559=DIRECTION('',(0.,1.,0.));
#560=DIRECTION('',(0.,0.,-1.));
#561=DIRECTION('',(-1.,0.,0.));
#562=DIRECTION('',(0.,0.,1.));
#563=DIRECTION('',(0.,1.,0.));
#564=DIRECTION('',(0.,-1.,0.));
#565=DIRECTION('',(0.,0.,1.));
#566=DIRECTION('',(0.,1.,0.));
#567=DIRECTION('',(0.,0.,1.));
#568=DIRECTION('',(1.,0.,0.));
#569=DIRECTION('',(0.,0.,-1.));
#570=DIRECTION('',(-0.707106781186548,0.,0.707106781186547));
#571=DIRECTION('',(-0.707106781186547,0.,-0.707106781186548));
#572=DIRECTION('',(0.,-1.,0.));
#573=DIRECTION('',(-1.,0.,0.));
#574=DIRECTION('',(0.,0.,1.));
#575=DIRECTION('',(0.,-1.,0.));
#576=DIRECTION('',(0.,0.,-1.));
#577=DIRECTION('',(0.,1.,0.));
#578=DIRECTION('',(0.,0.,1.));
#579=DIRECTION('',(0.,0.,-1.));
#580=DIRECTION('',(-1.,0.,0.));
#581=DIRECTION('',(0.,0.,1.));
#582=DIRECTION('',(0.,0.,-1.));
#583=DIRECTION('',(1.,0.,0.));
#584=DIRECTION('',(0.,1.,0.));
#585=DIRECTION('',(0.,0.,1.));
#586=DIRECTION('',(0.,0.,1.));
#587=DIRECTION('',(-0.999999999999999,0.,0.));
#588=DIRECTION('',(0.,0.,1.));
#589=DIRECTION('',(-0.999999999999999,0.,0.));
#590=DIRECTION('',(0.,0.,-1.));
#591=DIRECTION('',(-1.,0.,0.));
#592=DIRECTION('',(0.,0.,1.));
#593=DIRECTION('',(0.999999999999999,0.,0.));
#594=DIRECTION('',(0.,0.,1.));
#595=DIRECTION('',(0.999999999999999,0.,0.));
#596=DIRECTION('',(0.,1.,0.));
#597=DIRECTION('',(-1.,0.,0.));
#598=DIRECTION('',(0.,0.,1.));
#599=DIRECTION('',(0.,0.,-1.));
#600=DIRECTION('',(1.,0.,0.));
#601=DIRECTION('',(0.,1.,0.));
#602=DIRECTION('',(0.,0.,1.));
#603=DIRECTION('',(0.,0.,-1.));
#604=DIRECTION('',(-1.,0.,0.));
#605=DIRECTION('',(0.,0.,1.));
#606=DIRECTION('',(-0.999999999999999,0.,0.));
#607=DIRECTION('',(0.,0.,-1.));
#608=DIRECTION('',(-0.999999999999999,0.,0.));
#609=DIRECTION('',(0.,0.,-1.));
#610=DIRECTION('',(-1.,0.,0.));
#611=DIRECTION('',(0.,0.,-1.));
#612=DIRECTION('',(0.,0.,1.));
#613=DIRECTION('',(0.999999999999999,0.,0.));
#614=DIRECTION('',(0.,0.,-1.));
#615=DIRECTION('',(0.999999999999999,0.,0.));
#616=DIRECTION('',(0.,0.,-1.));
#617=DIRECTION('',(0.999999999999999,0.,0.));
#618=DIRECTION('',(0.,0.,-1.));
#619=DIRECTION('',(-1.,0.,0.));
#620=DIRECTION('',(0.,0.,-1.));
#621=DIRECTION('',(0.999999999999995,0.,0.));
#622=DIRECTION('',(0.,0.,-1.));
#623=DIRECTION('',(0.999999999999995,0.,0.));
#624=DIRECTION('',(0.,0.,-1.));
#625=DIRECTION('',(-1.,0.,0.));
#626=DIRECTION('',(0.,0.,-1.));
#627=DIRECTION('',(1.,0.,0.));
#628=DIRECTION('',(0.,0.,-1.));
#629=DIRECTION('',(-1.,0.,0.));
#630=DIRECTION('',(0.,0.,-1.));
#631=DIRECTION('',(1.,0.,0.));
#632=CARTESIAN_POINT('',(0.,0.,0.));
#633=CARTESIAN_POINT('',(206.2,109.4,70.2));
#634=CARTESIAN_POINT('',(193.54406159394,110.456987730304,70.2));
#635=CARTESIAN_POINT('',(193.5,109.4,70.2));
#636=CARTESIAN_POINT('',(193.54406159394,110.456987730304,82.875));
#637=CARTESIAN_POINT('',(193.54406159394,110.456987730304,108.1));
#638=CARTESIAN_POINT('',(206.2,109.4,108.1));
#639=CARTESIAN_POINT('',(193.5,109.4,108.1));
#640=CARTESIAN_POINT('',(193.5,109.4,108.1));
#641=CARTESIAN_POINT('',(206.2,109.4,70.2));
#642=CARTESIAN_POINT('',(259.6,122.1,95.6));
#643=CARTESIAN_POINT('',(259.6,122.1,95.6));
#644=CARTESIAN_POINT('',(247.1,122.1,108.1));
#645=CARTESIAN_POINT('',(259.6,180.3,95.6));
#646=CARTESIAN_POINT('',(259.6,150.7,95.6));
#647=CARTESIAN_POINT('',(259.6,150.7,95.6));
#648=CARTESIAN_POINT('',(247.1,150.7,108.1));
#649=CARTESIAN_POINT('',(247.1,180.3,108.1));
#650=CARTESIAN_POINT('',(259.6,180.3,95.6));
#651=CARTESIAN_POINT('',(97.3,131.1,108.1));
#652=CARTESIAN_POINT('',(109.05,131.1,108.1));
#653=CARTESIAN_POINT('',(197.4,118.2,108.1));
#654=CARTESIAN_POINT('',(205.143012269697,122.05593840606,108.1));
#655=CARTESIAN_POINT('',(206.2,109.4,108.1));
#656=CARTESIAN_POINT('',(206.2,122.1,108.1));
#657=CARTESIAN_POINT('',(129.8,122.1,108.1));
#658=CARTESIAN_POINT('',(129.8,150.7,108.1));
#659=CARTESIAN_POINT('',(210.2,150.7,108.1));
#660=CARTESIAN_POINT('',(210.2,162.9,108.1));
#661=CARTESIAN_POINT('',(198.,162.9,108.1));
#662=CARTESIAN_POINT('',(198.,180.3,108.1));
#663=CARTESIAN_POINT('',(198.,256.7,108.1));
#664=CARTESIAN_POINT('',(210.2,256.7,108.1));
#665=CARTESIAN_POINT('',(210.2,268.9,108.1));
#666=CARTESIAN_POINT('',(129.8,268.9,108.1));
#667=CARTESIAN_POINT('',(247.1,268.9,108.1));
#668=CARTESIAN_POINT('',(247.1,180.3,108.1));
#669=CARTESIAN_POINT('',(247.1,360.6,108.1));
#670=CARTESIAN_POINT('',(129.8,360.6,108.1));
#671=CARTESIAN_POINT('',(0.,360.6,108.1));
#672=CARTESIAN_POINT('',(0.,180.3,108.1));
#673=CARTESIAN_POINT('',(0.,0.,108.1));
#674=CARTESIAN_POINT('',(129.8,0.,108.1));
#675=CARTESIAN_POINT('',(193.5,0.,108.1));
#676=CARTESIAN_POINT('',(193.5,180.3,108.1));
#677=CARTESIAN_POINT('',(129.8,180.3,108.1));
#678=CARTESIAN_POINT('',(193.5,0.,70.2));
#679=CARTESIAN_POINT('',(193.5,0.,70.2));
#680=CARTESIAN_POINT('',(0.,0.,0.));
#681=CARTESIAN_POINT('',(0.,0.,0.));
#682=CARTESIAN_POINT('',(129.8,0.,0.));
#683=CARTESIAN_POINT('',(259.6,0.,0.));
#684=CARTESIAN_POINT('',(259.6,0.,0.));
#685=CARTESIAN_POINT('',(259.6,0.,70.2));
#686=CARTESIAN_POINT('',(226.55,0.,70.2));
#687=CARTESIAN_POINT('',(129.8,0.,0.));
#688=CARTESIAN_POINT('',(0.,360.6,0.));
#689=CARTESIAN_POINT('',(0.,360.6,0.));
#690=CARTESIAN_POINT('',(0.,180.3,0.));
#691=CARTESIAN_POINT('',(0.,180.3,0.));
#692=CARTESIAN_POINT('',(242.5,360.6,112.7));
#693=CARTESIAN_POINT('',(259.6,360.6,95.6));
#694=CARTESIAN_POINT('',(259.6,360.6,0.));
#695=CARTESIAN_POINT('',(259.6,360.6,0.));
#696=CARTESIAN_POINT('',(129.8,360.6,0.));
#697=CARTESIAN_POINT('',(129.8,360.6,0.));
#698=CARTESIAN_POINT('',(259.6,180.3,0.));
#699=CARTESIAN_POINT('',(129.8,180.3,0.));
#700=CARTESIAN_POINT('',(259.6,122.1,70.2));
#701=CARTESIAN_POINT('',(259.6,122.1,70.2));
#702=CARTESIAN_POINT('',(259.6,61.05,70.2));
#703=CARTESIAN_POINT('',(259.6,180.3,95.6));
#704=CARTESIAN_POINT('',(259.6,268.9,95.6));
#705=CARTESIAN_POINT('',(259.6,268.9,95.5));
#706=CARTESIAN_POINT('',(259.6,268.9,95.5));
#707=CARTESIAN_POINT('',(259.6,209.8,95.5));
#708=CARTESIAN_POINT('',(259.6,150.7,95.5));
#709=CARTESIAN_POINT('',(259.6,150.7,95.5));
#710=CARTESIAN_POINT('',(259.6,180.3,0.));
#711=CARTESIAN_POINT('',(259.6,268.9,95.6));
#712=CARTESIAN_POINT('',(259.6,180.3,95.6));
#713=CARTESIAN_POINT('',(228.8,150.7,95.5));
#714=CARTESIAN_POINT('',(210.2,150.7,95.5));
#715=CARTESIAN_POINT('',(210.2,150.7,108.1));
#716=CARTESIAN_POINT('',(228.8,150.7,95.5));
#717=CARTESIAN_POINT('',(198.,209.8,95.5));
#718=CARTESIAN_POINT('',(198.,162.9,95.5));
#719=CARTESIAN_POINT('',(198.,256.7,95.5));
#720=CARTESIAN_POINT('',(198.,256.7,108.1));
#721=CARTESIAN_POINT('',(198.,162.9,95.5));
#722=CARTESIAN_POINT('',(198.,209.8,95.5));
#723=CARTESIAN_POINT('',(210.2,268.9,95.5));
#724=CARTESIAN_POINT('',(210.2,268.9,95.5));
#725=CARTESIAN_POINT('',(228.8,268.9,95.5));
#726=CARTESIAN_POINT('',(228.8,268.9,95.5));
#727=CARTESIAN_POINT('',(210.2,256.7,95.5));
#728=CARTESIAN_POINT('',(210.2,162.9,95.5));
#729=CARTESIAN_POINT('',(228.8,209.8,95.5));
#730=CARTESIAN_POINT('',(210.2,256.7,95.5));
#731=CARTESIAN_POINT('',(210.2,162.9,95.5));
#732=CARTESIAN_POINT('',(193.5,61.05,70.2));
#733=CARTESIAN_POINT('',(193.5,61.05,70.2));
#734=CARTESIAN_POINT('',(206.2,122.1,70.2));
#735=CARTESIAN_POINT('',(206.2,122.1,70.2));
#736=CARTESIAN_POINT('',(226.55,122.1,70.2));
#737=CARTESIAN_POINT('',(226.55,122.1,70.2));
#738=CARTESIAN_POINT('',(250.9,70.3,70.2));
#739=CARTESIAN_POINT('',(246.15,70.3,70.2));
#740=CARTESIAN_POINT('',(206.2,109.4,70.2));
#741=CARTESIAN_POINT('',(205.143012269697,122.05593840606,70.2));
#742=CARTESIAN_POINT('',(197.4,118.2,70.2));
#743=CARTESIAN_POINT('',(226.55,61.05,70.2));
#744=CARTESIAN_POINT('',(205.143012269697,122.05593840606,82.875));
#745=CARTESIAN_POINT('',(206.2,109.4,70.2));
#746=CARTESIAN_POINT('',(197.4,118.2,57.6));
#747=CARTESIAN_POINT('',(206.05,118.2,57.6));
#748=CARTESIAN_POINT('',(197.4,118.2,108.15));
#749=CARTESIAN_POINT('',(197.4,118.2,57.6));
#750=CARTESIAN_POINT('',(250.9,70.3,53.));
#751=CARTESIAN_POINT('',(255.65,70.3,53.));
#752=CARTESIAN_POINT('',(250.9,70.3,108.15));
#753=CARTESIAN_POINT('',(250.9,70.3,53.));
#754=CARTESIAN_POINT('',(97.3,131.1,59.7));
#755=CARTESIAN_POINT('',(109.05,131.1,59.7));
#756=CARTESIAN_POINT('',(97.3,131.1,59.7));
#757=CARTESIAN_POINT('',(97.3,131.1,108.15));
#758=MECHANICAL_DESIGN_GEOMETRIC_PRESENTATION_REPRESENTATION('',(#24),#759);
#759=(
GEOMETRIC_REPRESENTATION_CONTEXT(3)
GLOBAL_UNCERTAINTY_ASSIGNED_CONTEXT((#760))
GLOBAL_UNIT_ASSIGNED_CONTEXT((#766,#762,#761))
REPRESENTATION_CONTEXT('featured_part_10924','TOP_LEVEL_ASSEMBLY_PART')
);
#760=UNCERTAINTY_MEASURE_WITH_UNIT(LENGTH_MEASURE(2.E-5),#766,
'DISTANCE_ACCURACY_VALUE','Maximum Tolerance applied to model');
#761=(
NAMED_UNIT(*)
SI_UNIT($,.STERADIAN.)
SOLID_ANGLE_UNIT()
);
#762=(
CONVERSION_BASED_UNIT('DEGREE',#764)
NAMED_UNIT(#763)
PLANE_ANGLE_UNIT()
);
#763=DIMENSIONAL_EXPONENTS(0.,0.,0.,0.,0.,0.,0.);
#764=PLANE_ANGLE_MEASURE_WITH_UNIT(PLANE_ANGLE_MEASURE(0.0174532925),#765);
#765=(
NAMED_UNIT(*)
PLANE_ANGLE_UNIT()
SI_UNIT($,.RADIAN.)
);
#766=(
LENGTH_UNIT()
NAMED_UNIT(*)
SI_UNIT(.MILLI.,.METRE.)
);
ENDSEC;
END-ISO-10303-21;
