ISO-10303-21;
HEADER;
/* Generated by software containing ST-Developer
 * from STEP Tools, Inc. (www.steptools.com) 
 */
/* OPTION: using custom schema-name function */

FILE_DESCRIPTION(
/* description */ (''),
/* implementation_level */ '2;1');

FILE_NAME(
/* name */ 'featured_part_11184.stp',
/* time_stamp */ '2026-07-15T20:27:26-04:00',
/* author */ (''),
/* organization */ (''),
/* preprocessor_version */ 'ST-DEVELOPER v20.1',
/* originating_system */ 'SIEMENS PLM Software NX2512.6002',
/* authorisation */ '');

FILE_SCHEMA (('AUTOMOTIVE_DESIGN { 1 0 10303 214 3 1 1 1 }'));
ENDSEC;

DATA;
#10=SHAPE_REPRESENTATION_RELATIONSHIP('None',
'relationship between featured_part_11184-None and featured_part_11184
-None',#22,#11);
#11=ADVANCED_BREP_SHAPE_REPRESENTATION('featured_part_11184-None',(#32),
#1066);
#12=SHAPE_DEFINITION_REPRESENTATION(#13,#22);
#13=PRODUCT_DEFINITION_SHAPE('','',#14);
#14=PRODUCT_DEFINITION(' ','',#16,#15);
#15=PRODUCT_DEFINITION_CONTEXT('part definition',#21,'design');
#16=PRODUCT_DEFINITION_FORMATION_WITH_SPECIFIED_SOURCE(' ',' ',#18,
 .NOT_KNOWN.);
#17=PRODUCT_RELATED_PRODUCT_CATEGORY('part','',(#18));
#18=PRODUCT('featured_part_11184','featured_part_11184',' ',(#19));
#19=PRODUCT_CONTEXT(' ',#21,'mechanical');
#20=APPLICATION_PROTOCOL_DEFINITION('international standard',
'automotive_design',2010,#21);
#21=APPLICATION_CONTEXT(
'core data for automotive mechanical design processes');
#22=SHAPE_REPRESENTATION('featured_part_11184-None',(#652),#1066);
#23=PRESENTATION_LAYER_ASSIGNMENT('1','Layer 1',(#32));
#24=STYLED_ITEM('',(#25),#32);
#25=PRESENTATION_STYLE_ASSIGNMENT((#26));
#26=SURFACE_STYLE_USAGE(.BOTH.,#27);
#27=SURFACE_SIDE_STYLE('',(#28));
#28=SURFACE_STYLE_FILL_AREA(#29);
#29=FILL_AREA_STYLE('',(#30));
#30=FILL_AREA_STYLE_COLOUR('',#31);
#31=COLOUR_RGB('medium steel',0.611764705882353,0.658823529411765,0.670588235294118);
#32=MANIFOLD_SOLID_BREP('',#33);
#33=CLOSED_SHELL('',(#78,#79,#80,#81,#82,#83,#84,#85,#86,#87,#88,#89,#90,
#91,#92,#93,#94,#95,#96,#97,#98,#99,#100,#101,#102,#103,#104,#105,#106,
#107,#108,#109,#110,#111));
#34=CYLINDRICAL_SURFACE('',#681,14.6);
#35=CYLINDRICAL_SURFACE('',#682,14.6);
#36=CYLINDRICAL_SURFACE('',#683,14.6);
#37=CYLINDRICAL_SURFACE('',#684,14.6);
#38=CYLINDRICAL_SURFACE('',#694,5.6);
#39=CYLINDRICAL_SURFACE('',#695,5.6);
#40=CYLINDRICAL_SURFACE('',#700,3.3);
#41=CYLINDRICAL_SURFACE('',#701,13.75);
#42=CYLINDRICAL_SURFACE('',#703,8.3);
#43=CYLINDRICAL_SURFACE('',#706,4.75);
#44=FACE_BOUND('',#166,.T.);
#45=FACE_BOUND('',#167,.T.);
#46=FACE_BOUND('',#171,.T.);
#47=FACE_BOUND('',#172,.T.);
#48=FACE_BOUND('',#188,.T.);
#49=FACE_BOUND('',#189,.T.);
#50=FACE_BOUND('',#190,.T.);
#51=FACE_BOUND('',#197,.T.);
#52=FACE_BOUND('',#198,.T.);
#53=FACE_BOUND('',#199,.T.);
#54=FACE_BOUND('',#200,.T.);
#55=FACE_BOUND('',#202,.T.);
#56=FACE_BOUND('',#203,.T.);
#57=CIRCLE('',#655,13.75);
#58=CIRCLE('',#656,5.6);
#59=CIRCLE('',#657,3.3);
#60=CIRCLE('',#658,5.6);
#61=CIRCLE('',#659,14.6);
#62=CIRCLE('',#660,14.6);
#63=CIRCLE('',#661,14.6);
#64=CIRCLE('',#662,14.6);
#65=CIRCLE('',#667,13.75);
#66=CIRCLE('',#675,14.6);
#67=CIRCLE('',#676,14.6);
#68=CIRCLE('',#677,14.6);
#69=CIRCLE('',#678,14.6);
#70=CIRCLE('',#688,4.75);
#71=CIRCLE('',#689,8.3);
#72=CIRCLE('',#690,13.75);
#73=CIRCLE('',#691,5.6);
#74=CIRCLE('',#692,5.6);
#75=CIRCLE('',#697,3.3);
#76=CIRCLE('',#702,8.3);
#77=CIRCLE('',#705,4.75);
#78=ADVANCED_FACE('',(#136),#112,.F.);
#79=ADVANCED_FACE('',(#137),#113,.F.);
#80=ADVANCED_FACE('',(#44,#45),#114,.T.);
#81=ADVANCED_FACE('',(#138),#115,.T.);
#82=ADVANCED_FACE('',(#139),#116,.T.);
#83=ADVANCED_FACE('',(#140),#117,.T.);
#84=ADVANCED_FACE('',(#46,#47),#118,.T.);
#85=ADVANCED_FACE('',(#141),#119,.T.);
#86=ADVANCED_FACE('',(#142),#120,.F.);
#87=ADVANCED_FACE('',(#143),#121,.F.);
#88=ADVANCED_FACE('',(#144),#122,.F.);
#89=ADVANCED_FACE('',(#145),#123,.F.);
#90=ADVANCED_FACE('',(#146),#124,.F.);
#91=ADVANCED_FACE('',(#147),#125,.F.);
#92=ADVANCED_FACE('',(#148),#126,.F.);
#93=ADVANCED_FACE('',(#149),#34,.F.);
#94=ADVANCED_FACE('',(#150),#35,.F.);
#95=ADVANCED_FACE('',(#151),#36,.F.);
#96=ADVANCED_FACE('',(#152),#37,.F.);
#97=ADVANCED_FACE('',(#153),#127,.F.);
#98=ADVANCED_FACE('',(#154),#128,.F.);
#99=ADVANCED_FACE('',(#155),#129,.F.);
#100=ADVANCED_FACE('',(#48,#49,#50),#130,.F.);
#101=ADVANCED_FACE('',(#156),#38,.F.);
#102=ADVANCED_FACE('',(#157),#39,.F.);
#103=ADVANCED_FACE('',(#158),#131,.F.);
#104=ADVANCED_FACE('',(#159),#132,.F.);
#105=ADVANCED_FACE('',(#160),#133,.F.);
#106=ADVANCED_FACE('',(#161),#40,.F.);
#107=ADVANCED_FACE('',(#51,#52),#41,.F.);
#108=ADVANCED_FACE('',(#53,#54),#42,.F.);
#109=ADVANCED_FACE('',(#162),#134,.F.);
#110=ADVANCED_FACE('',(#55,#56),#43,.F.);
#111=ADVANCED_FACE('',(#163),#135,.F.);
#112=PLANE('',#653);
#113=PLANE('',#654);
#114=PLANE('',#663);
#115=PLANE('',#664);
#116=PLANE('',#665);
#117=PLANE('',#666);
#118=PLANE('',#668);
#119=PLANE('',#669);
#120=PLANE('',#670);
#121=PLANE('',#671);
#122=PLANE('',#672);
#123=PLANE('',#673);
#124=PLANE('',#674);
#125=PLANE('',#679);
#126=PLANE('',#680);
#127=PLANE('',#685);
#128=PLANE('',#686);
#129=PLANE('',#687);
#130=PLANE('',#693);
#131=PLANE('',#696);
#132=PLANE('',#698);
#133=PLANE('',#699);
#134=PLANE('',#704);
#135=PLANE('',#707);
#136=FACE_OUTER_BOUND('',#164,.T.);
#137=FACE_OUTER_BOUND('',#165,.T.);
#138=FACE_OUTER_BOUND('',#168,.T.);
#139=FACE_OUTER_BOUND('',#169,.T.);
#140=FACE_OUTER_BOUND('',#170,.T.);
#141=FACE_OUTER_BOUND('',#173,.T.);
#142=FACE_OUTER_BOUND('',#174,.T.);
#143=FACE_OUTER_BOUND('',#175,.T.);
#144=FACE_OUTER_BOUND('',#176,.T.);
#145=FACE_OUTER_BOUND('',#177,.T.);
#146=FACE_OUTER_BOUND('',#178,.T.);
#147=FACE_OUTER_BOUND('',#179,.T.);
#148=FACE_OUTER_BOUND('',#180,.T.);
#149=FACE_OUTER_BOUND('',#181,.T.);
#150=FACE_OUTER_BOUND('',#182,.T.);
#151=FACE_OUTER_BOUND('',#183,.T.);
#152=FACE_OUTER_BOUND('',#184,.T.);
#153=FACE_OUTER_BOUND('',#185,.T.);
#154=FACE_OUTER_BOUND('',#186,.T.);
#155=FACE_OUTER_BOUND('',#187,.T.);
#156=FACE_OUTER_BOUND('',#191,.T.);
#157=FACE_OUTER_BOUND('',#192,.T.);
#158=FACE_OUTER_BOUND('',#193,.T.);
#159=FACE_OUTER_BOUND('',#194,.T.);
#160=FACE_OUTER_BOUND('',#195,.T.);
#161=FACE_OUTER_BOUND('',#196,.T.);
#162=FACE_OUTER_BOUND('',#201,.T.);
#163=FACE_OUTER_BOUND('',#204,.T.);
#164=EDGE_LOOP('',(#205,#206,#207,#208));
#165=EDGE_LOOP('',(#209,#210,#211,#212));
#166=EDGE_LOOP('',(#213,#214,#215,#216,#217,#218,#219,#220,#221,#222,#223,
#224,#225,#226,#227));
#167=EDGE_LOOP('',(#228,#229,#230,#231,#232,#233,#234,#235));
#168=EDGE_LOOP('',(#236,#237,#238,#239,#240));
#169=EDGE_LOOP('',(#241,#242,#243,#244,#245,#246));
#170=EDGE_LOOP('',(#247,#248,#249,#250,#251,#252));
#171=EDGE_LOOP('',(#253));
#172=EDGE_LOOP('',(#254,#255,#256,#257));
#173=EDGE_LOOP('',(#258,#259,#260,#261,#262,#263,#264,#265,#266));
#174=EDGE_LOOP('',(#267,#268,#269,#270,#271));
#175=EDGE_LOOP('',(#272,#273,#274,#275));
#176=EDGE_LOOP('',(#276,#277,#278,#279));
#177=EDGE_LOOP('',(#280,#281,#282,#283));
#178=EDGE_LOOP('',(#284,#285,#286,#287));
#179=EDGE_LOOP('',(#288,#289,#290,#291,#292,#293,#294,#295));
#180=EDGE_LOOP('',(#296,#297,#298,#299));
#181=EDGE_LOOP('',(#300,#301,#302,#303));
#182=EDGE_LOOP('',(#304,#305,#306,#307));
#183=EDGE_LOOP('',(#308,#309,#310,#311));
#184=EDGE_LOOP('',(#312,#313,#314,#315));
#185=EDGE_LOOP('',(#316,#317,#318,#319,#320));
#186=EDGE_LOOP('',(#321,#322,#323,#324));
#187=EDGE_LOOP('',(#325,#326,#327,#328,#329));
#188=EDGE_LOOP('',(#330));
#189=EDGE_LOOP('',(#331));
#190=EDGE_LOOP('',(#332,#333,#334,#335,#336,#337,#338,#339));
#191=EDGE_LOOP('',(#340,#341,#342,#343));
#192=EDGE_LOOP('',(#344,#345,#346,#347));
#193=EDGE_LOOP('',(#348,#349,#350,#351));
#194=EDGE_LOOP('',(#352,#353,#354,#355,#356));
#195=EDGE_LOOP('',(#357,#358,#359,#360,#361));
#196=EDGE_LOOP('',(#362,#363,#364,#365));
#197=EDGE_LOOP('',(#366));
#198=EDGE_LOOP('',(#367,#368,#369,#370));
#199=EDGE_LOOP('',(#371));
#200=EDGE_LOOP('',(#372));
#201=EDGE_LOOP('',(#373));
#202=EDGE_LOOP('',(#374));
#203=EDGE_LOOP('',(#375));
#204=EDGE_LOOP('',(#376));
#205=ORIENTED_EDGE('',*,*,#436,.T.);
#206=ORIENTED_EDGE('',*,*,#437,.T.);
#207=ORIENTED_EDGE('',*,*,#438,.T.);
#208=ORIENTED_EDGE('',*,*,#439,.T.);
#209=ORIENTED_EDGE('',*,*,#440,.F.);
#210=ORIENTED_EDGE('',*,*,#441,.F.);
#211=ORIENTED_EDGE('',*,*,#442,.F.);
#212=ORIENTED_EDGE('',*,*,#443,.F.);
#213=ORIENTED_EDGE('',*,*,#444,.F.);
#214=ORIENTED_EDGE('',*,*,#436,.F.);
#215=ORIENTED_EDGE('',*,*,#445,.T.);
#216=ORIENTED_EDGE('',*,*,#446,.F.);
#217=ORIENTED_EDGE('',*,*,#447,.T.);
#218=ORIENTED_EDGE('',*,*,#448,.T.);
#219=ORIENTED_EDGE('',*,*,#449,.F.);
#220=ORIENTED_EDGE('',*,*,#450,.T.);
#221=ORIENTED_EDGE('',*,*,#451,.F.);
#222=ORIENTED_EDGE('',*,*,#452,.F.);
#223=ORIENTED_EDGE('',*,*,#453,.F.);
#224=ORIENTED_EDGE('',*,*,#441,.T.);
#225=ORIENTED_EDGE('',*,*,#454,.F.);
#226=ORIENTED_EDGE('',*,*,#455,.T.);
#227=ORIENTED_EDGE('',*,*,#456,.F.);
#228=ORIENTED_EDGE('',*,*,#457,.F.);
#229=ORIENTED_EDGE('',*,*,#458,.T.);
#230=ORIENTED_EDGE('',*,*,#459,.F.);
#231=ORIENTED_EDGE('',*,*,#460,.T.);
#232=ORIENTED_EDGE('',*,*,#461,.F.);
#233=ORIENTED_EDGE('',*,*,#462,.T.);
#234=ORIENTED_EDGE('',*,*,#463,.F.);
#235=ORIENTED_EDGE('',*,*,#464,.T.);
#236=ORIENTED_EDGE('',*,*,#465,.T.);
#237=ORIENTED_EDGE('',*,*,#442,.T.);
#238=ORIENTED_EDGE('',*,*,#453,.T.);
#239=ORIENTED_EDGE('',*,*,#466,.F.);
#240=ORIENTED_EDGE('',*,*,#467,.T.);
#241=ORIENTED_EDGE('',*,*,#468,.F.);
#242=ORIENTED_EDGE('',*,*,#469,.F.);
#243=ORIENTED_EDGE('',*,*,#470,.F.);
#244=ORIENTED_EDGE('',*,*,#471,.T.);
#245=ORIENTED_EDGE('',*,*,#466,.T.);
#246=ORIENTED_EDGE('',*,*,#452,.T.);
#247=ORIENTED_EDGE('',*,*,#472,.F.);
#248=ORIENTED_EDGE('',*,*,#473,.T.);
#249=ORIENTED_EDGE('',*,*,#474,.T.);
#250=ORIENTED_EDGE('',*,*,#475,.F.);
#251=ORIENTED_EDGE('',*,*,#476,.T.);
#252=ORIENTED_EDGE('',*,*,#470,.T.);
#253=ORIENTED_EDGE('',*,*,#477,.F.);
#254=ORIENTED_EDGE('',*,*,#478,.F.);
#255=ORIENTED_EDGE('',*,*,#467,.F.);
#256=ORIENTED_EDGE('',*,*,#471,.F.);
#257=ORIENTED_EDGE('',*,*,#476,.F.);
#258=ORIENTED_EDGE('',*,*,#479,.T.);
#259=ORIENTED_EDGE('',*,*,#443,.T.);
#260=ORIENTED_EDGE('',*,*,#465,.F.);
#261=ORIENTED_EDGE('',*,*,#478,.T.);
#262=ORIENTED_EDGE('',*,*,#475,.T.);
#263=ORIENTED_EDGE('',*,*,#480,.T.);
#264=ORIENTED_EDGE('',*,*,#481,.T.);
#265=ORIENTED_EDGE('',*,*,#482,.F.);
#266=ORIENTED_EDGE('',*,*,#483,.F.);
#267=ORIENTED_EDGE('',*,*,#484,.F.);
#268=ORIENTED_EDGE('',*,*,#448,.F.);
#269=ORIENTED_EDGE('',*,*,#485,.T.);
#270=ORIENTED_EDGE('',*,*,#480,.F.);
#271=ORIENTED_EDGE('',*,*,#474,.F.);
#272=ORIENTED_EDGE('',*,*,#486,.F.);
#273=ORIENTED_EDGE('',*,*,#481,.F.);
#274=ORIENTED_EDGE('',*,*,#485,.F.);
#275=ORIENTED_EDGE('',*,*,#447,.F.);
#276=ORIENTED_EDGE('',*,*,#487,.T.);
#277=ORIENTED_EDGE('',*,*,#488,.T.);
#278=ORIENTED_EDGE('',*,*,#457,.T.);
#279=ORIENTED_EDGE('',*,*,#489,.T.);
#280=ORIENTED_EDGE('',*,*,#490,.T.);
#281=ORIENTED_EDGE('',*,*,#491,.T.);
#282=ORIENTED_EDGE('',*,*,#459,.T.);
#283=ORIENTED_EDGE('',*,*,#492,.T.);
#284=ORIENTED_EDGE('',*,*,#461,.T.);
#285=ORIENTED_EDGE('',*,*,#493,.T.);
#286=ORIENTED_EDGE('',*,*,#494,.T.);
#287=ORIENTED_EDGE('',*,*,#495,.T.);
#288=ORIENTED_EDGE('',*,*,#494,.F.);
#289=ORIENTED_EDGE('',*,*,#496,.T.);
#290=ORIENTED_EDGE('',*,*,#490,.F.);
#291=ORIENTED_EDGE('',*,*,#497,.T.);
#292=ORIENTED_EDGE('',*,*,#487,.F.);
#293=ORIENTED_EDGE('',*,*,#498,.T.);
#294=ORIENTED_EDGE('',*,*,#499,.F.);
#295=ORIENTED_EDGE('',*,*,#500,.T.);
#296=ORIENTED_EDGE('',*,*,#499,.T.);
#297=ORIENTED_EDGE('',*,*,#501,.T.);
#298=ORIENTED_EDGE('',*,*,#463,.T.);
#299=ORIENTED_EDGE('',*,*,#502,.T.);
#300=ORIENTED_EDGE('',*,*,#460,.F.);
#301=ORIENTED_EDGE('',*,*,#491,.F.);
#302=ORIENTED_EDGE('',*,*,#496,.F.);
#303=ORIENTED_EDGE('',*,*,#493,.F.);
#304=ORIENTED_EDGE('',*,*,#458,.F.);
#305=ORIENTED_EDGE('',*,*,#488,.F.);
#306=ORIENTED_EDGE('',*,*,#497,.F.);
#307=ORIENTED_EDGE('',*,*,#492,.F.);
#308=ORIENTED_EDGE('',*,*,#464,.F.);
#309=ORIENTED_EDGE('',*,*,#501,.F.);
#310=ORIENTED_EDGE('',*,*,#498,.F.);
#311=ORIENTED_EDGE('',*,*,#489,.F.);
#312=ORIENTED_EDGE('',*,*,#462,.F.);
#313=ORIENTED_EDGE('',*,*,#495,.F.);
#314=ORIENTED_EDGE('',*,*,#500,.F.);
#315=ORIENTED_EDGE('',*,*,#502,.F.);
#316=ORIENTED_EDGE('',*,*,#503,.T.);
#317=ORIENTED_EDGE('',*,*,#504,.T.);
#318=ORIENTED_EDGE('',*,*,#454,.T.);
#319=ORIENTED_EDGE('',*,*,#440,.T.);
#320=ORIENTED_EDGE('',*,*,#479,.F.);
#321=ORIENTED_EDGE('',*,*,#505,.T.);
#322=ORIENTED_EDGE('',*,*,#506,.T.);
#323=ORIENTED_EDGE('',*,*,#456,.T.);
#324=ORIENTED_EDGE('',*,*,#507,.T.);
#325=ORIENTED_EDGE('',*,*,#446,.T.);
#326=ORIENTED_EDGE('',*,*,#508,.T.);
#327=ORIENTED_EDGE('',*,*,#509,.T.);
#328=ORIENTED_EDGE('',*,*,#482,.T.);
#329=ORIENTED_EDGE('',*,*,#486,.T.);
#330=ORIENTED_EDGE('',*,*,#510,.T.);
#331=ORIENTED_EDGE('',*,*,#511,.T.);
#332=ORIENTED_EDGE('',*,*,#438,.F.);
#333=ORIENTED_EDGE('',*,*,#512,.T.);
#334=ORIENTED_EDGE('',*,*,#505,.F.);
#335=ORIENTED_EDGE('',*,*,#513,.T.);
#336=ORIENTED_EDGE('',*,*,#503,.F.);
#337=ORIENTED_EDGE('',*,*,#483,.T.);
#338=ORIENTED_EDGE('',*,*,#509,.F.);
#339=ORIENTED_EDGE('',*,*,#514,.T.);
#340=ORIENTED_EDGE('',*,*,#445,.F.);
#341=ORIENTED_EDGE('',*,*,#439,.F.);
#342=ORIENTED_EDGE('',*,*,#514,.F.);
#343=ORIENTED_EDGE('',*,*,#508,.F.);
#344=ORIENTED_EDGE('',*,*,#455,.F.);
#345=ORIENTED_EDGE('',*,*,#504,.F.);
#346=ORIENTED_EDGE('',*,*,#513,.F.);
#347=ORIENTED_EDGE('',*,*,#507,.F.);
#348=ORIENTED_EDGE('',*,*,#451,.T.);
#349=ORIENTED_EDGE('',*,*,#515,.T.);
#350=ORIENTED_EDGE('',*,*,#516,.T.);
#351=ORIENTED_EDGE('',*,*,#468,.T.);
#352=ORIENTED_EDGE('',*,*,#516,.F.);
#353=ORIENTED_EDGE('',*,*,#517,.T.);
#354=ORIENTED_EDGE('',*,*,#518,.F.);
#355=ORIENTED_EDGE('',*,*,#472,.T.);
#356=ORIENTED_EDGE('',*,*,#469,.T.);
#357=ORIENTED_EDGE('',*,*,#518,.T.);
#358=ORIENTED_EDGE('',*,*,#519,.T.);
#359=ORIENTED_EDGE('',*,*,#449,.T.);
#360=ORIENTED_EDGE('',*,*,#484,.T.);
#361=ORIENTED_EDGE('',*,*,#473,.F.);
#362=ORIENTED_EDGE('',*,*,#450,.F.);
#363=ORIENTED_EDGE('',*,*,#519,.F.);
#364=ORIENTED_EDGE('',*,*,#517,.F.);
#365=ORIENTED_EDGE('',*,*,#515,.F.);
#366=ORIENTED_EDGE('',*,*,#477,.T.);
#367=ORIENTED_EDGE('',*,*,#444,.T.);
#368=ORIENTED_EDGE('',*,*,#506,.F.);
#369=ORIENTED_EDGE('',*,*,#512,.F.);
#370=ORIENTED_EDGE('',*,*,#437,.F.);
#371=ORIENTED_EDGE('',*,*,#520,.T.);
#372=ORIENTED_EDGE('',*,*,#511,.F.);
#373=ORIENTED_EDGE('',*,*,#520,.F.);
#374=ORIENTED_EDGE('',*,*,#521,.T.);
#375=ORIENTED_EDGE('',*,*,#510,.F.);
#376=ORIENTED_EDGE('',*,*,#521,.F.);
#377=VERTEX_POINT('',#887);
#378=VERTEX_POINT('',#888);
#379=VERTEX_POINT('',#890);
#380=VERTEX_POINT('',#892);
#381=VERTEX_POINT('',#896);
#382=VERTEX_POINT('',#897);
#383=VERTEX_POINT('',#899);
#384=VERTEX_POINT('',#901);
#385=VERTEX_POINT('',#905);
#386=VERTEX_POINT('',#907);
#387=VERTEX_POINT('',#909);
#388=VERTEX_POINT('',#911);
#389=VERTEX_POINT('',#913);
#390=VERTEX_POINT('',#915);
#391=VERTEX_POINT('',#917);
#392=VERTEX_POINT('',#919);
#393=VERTEX_POINT('',#921);
#394=VERTEX_POINT('',#924);
#395=VERTEX_POINT('',#926);
#396=VERTEX_POINT('',#929);
#397=VERTEX_POINT('',#930);
#398=VERTEX_POINT('',#932);
#399=VERTEX_POINT('',#934);
#400=VERTEX_POINT('',#936);
#401=VERTEX_POINT('',#938);
#402=VERTEX_POINT('',#940);
#403=VERTEX_POINT('',#942);
#404=VERTEX_POINT('',#946);
#405=VERTEX_POINT('',#948);
#406=VERTEX_POINT('',#952);
#407=VERTEX_POINT('',#954);
#408=VERTEX_POINT('',#956);
#409=VERTEX_POINT('',#960);
#410=VERTEX_POINT('',#962);
#411=VERTEX_POINT('',#964);
#412=VERTEX_POINT('',#966);
#413=VERTEX_POINT('',#970);
#414=VERTEX_POINT('',#974);
#415=VERTEX_POINT('',#976);
#416=VERTEX_POINT('',#978);
#417=VERTEX_POINT('',#980);
#418=VERTEX_POINT('',#989);
#419=VERTEX_POINT('',#990);
#420=VERTEX_POINT('',#995);
#421=VERTEX_POINT('',#996);
#422=VERTEX_POINT('',#1001);
#423=VERTEX_POINT('',#1003);
#424=VERTEX_POINT('',#1009);
#425=VERTEX_POINT('',#1011);
#426=VERTEX_POINT('',#1022);
#427=VERTEX_POINT('',#1026);
#428=VERTEX_POINT('',#1027);
#429=VERTEX_POINT('',#1032);
#430=VERTEX_POINT('',#1036);
#431=VERTEX_POINT('',#1038);
#432=VERTEX_POINT('',#1046);
#433=VERTEX_POINT('',#1050);
#434=VERTEX_POINT('',#1058);
#435=VERTEX_POINT('',#1062);
#436=EDGE_CURVE('',#377,#378,#522,.T.);
#437=EDGE_CURVE('',#378,#379,#523,.T.);
#438=EDGE_CURVE('',#379,#380,#524,.T.);
#439=EDGE_CURVE('',#380,#377,#525,.T.);
#440=EDGE_CURVE('',#381,#382,#526,.T.);
#441=EDGE_CURVE('',#383,#381,#527,.T.);
#442=EDGE_CURVE('',#384,#383,#528,.T.);
#443=EDGE_CURVE('',#382,#384,#529,.T.);
#444=EDGE_CURVE('',#378,#385,#57,.T.);
#445=EDGE_CURVE('',#377,#386,#58,.T.);
#446=EDGE_CURVE('',#387,#386,#530,.T.);
#447=EDGE_CURVE('',#387,#388,#531,.T.);
#448=EDGE_CURVE('',#388,#389,#532,.T.);
#449=EDGE_CURVE('',#390,#389,#533,.T.);
#450=EDGE_CURVE('',#390,#391,#59,.T.);
#451=EDGE_CURVE('',#392,#391,#534,.T.);
#452=EDGE_CURVE('',#393,#392,#535,.T.);
#453=EDGE_CURVE('',#383,#393,#536,.T.);
#454=EDGE_CURVE('',#394,#381,#537,.T.);
#455=EDGE_CURVE('',#394,#395,#60,.T.);
#456=EDGE_CURVE('',#385,#395,#538,.T.);
#457=EDGE_CURVE('',#396,#397,#539,.T.);
#458=EDGE_CURVE('',#396,#398,#61,.T.);
#459=EDGE_CURVE('',#399,#398,#540,.T.);
#460=EDGE_CURVE('',#399,#400,#62,.T.);
#461=EDGE_CURVE('',#401,#400,#541,.T.);
#462=EDGE_CURVE('',#401,#402,#63,.T.);
#463=EDGE_CURVE('',#403,#402,#542,.T.);
#464=EDGE_CURVE('',#403,#397,#64,.T.);
#465=EDGE_CURVE('',#404,#384,#543,.T.);
#466=EDGE_CURVE('',#405,#393,#544,.T.);
#467=EDGE_CURVE('',#405,#404,#545,.T.);
#468=EDGE_CURVE('',#406,#392,#546,.T.);
#469=EDGE_CURVE('',#407,#406,#547,.T.);
#470=EDGE_CURVE('',#408,#407,#548,.T.);
#471=EDGE_CURVE('',#408,#405,#549,.T.);
#472=EDGE_CURVE('',#409,#407,#550,.T.);
#473=EDGE_CURVE('',#409,#410,#551,.T.);
#474=EDGE_CURVE('',#410,#411,#552,.T.);
#475=EDGE_CURVE('',#412,#411,#553,.T.);
#476=EDGE_CURVE('',#412,#408,#554,.T.);
#477=EDGE_CURVE('',#413,#413,#65,.T.);
#478=EDGE_CURVE('',#404,#412,#555,.T.);
#479=EDGE_CURVE('',#414,#382,#556,.T.);
#480=EDGE_CURVE('',#411,#415,#557,.T.);
#481=EDGE_CURVE('',#415,#416,#558,.T.);
#482=EDGE_CURVE('',#417,#416,#559,.T.);
#483=EDGE_CURVE('',#414,#417,#560,.T.);
#484=EDGE_CURVE('',#389,#410,#561,.T.);
#485=EDGE_CURVE('',#388,#415,#562,.T.);
#486=EDGE_CURVE('',#416,#387,#563,.T.);
#487=EDGE_CURVE('',#418,#419,#564,.T.);
#488=EDGE_CURVE('',#419,#396,#565,.T.);
#489=EDGE_CURVE('',#397,#418,#566,.T.);
#490=EDGE_CURVE('',#420,#421,#567,.T.);
#491=EDGE_CURVE('',#421,#399,#568,.T.);
#492=EDGE_CURVE('',#398,#420,#569,.T.);
#493=EDGE_CURVE('',#400,#422,#570,.T.);
#494=EDGE_CURVE('',#422,#423,#571,.T.);
#495=EDGE_CURVE('',#423,#401,#572,.T.);
#496=EDGE_CURVE('',#422,#421,#66,.T.);
#497=EDGE_CURVE('',#420,#419,#67,.T.);
#498=EDGE_CURVE('',#418,#424,#68,.T.);
#499=EDGE_CURVE('',#425,#424,#573,.T.);
#500=EDGE_CURVE('',#425,#423,#69,.T.);
#501=EDGE_CURVE('',#424,#403,#574,.T.);
#502=EDGE_CURVE('',#402,#425,#575,.T.);
#503=EDGE_CURVE('',#414,#426,#576,.T.);
#504=EDGE_CURVE('',#426,#394,#577,.T.);
#505=EDGE_CURVE('',#427,#428,#578,.T.);
#506=EDGE_CURVE('',#428,#385,#579,.T.);
#507=EDGE_CURVE('',#395,#427,#580,.T.);
#508=EDGE_CURVE('',#386,#429,#581,.T.);
#509=EDGE_CURVE('',#429,#417,#582,.T.);
#510=EDGE_CURVE('',#430,#430,#70,.T.);
#511=EDGE_CURVE('',#431,#431,#71,.T.);
#512=EDGE_CURVE('',#379,#428,#72,.T.);
#513=EDGE_CURVE('',#427,#426,#73,.T.);
#514=EDGE_CURVE('',#429,#380,#74,.T.);
#515=EDGE_CURVE('',#391,#432,#583,.T.);
#516=EDGE_CURVE('',#432,#406,#584,.T.);
#517=EDGE_CURVE('',#432,#433,#75,.T.);
#518=EDGE_CURVE('',#409,#433,#585,.T.);
#519=EDGE_CURVE('',#433,#390,#586,.T.);
#520=EDGE_CURVE('',#434,#434,#76,.T.);
#521=EDGE_CURVE('',#435,#435,#77,.T.);
#522=LINE('',#886,#587);
#523=LINE('',#889,#588);
#524=LINE('',#891,#589);
#525=LINE('',#893,#590);
#526=LINE('',#895,#591);
#527=LINE('',#898,#592);
#528=LINE('',#900,#593);
#529=LINE('',#902,#594);
#530=LINE('',#908,#595);
#531=LINE('',#910,#596);
#532=LINE('',#912,#597);
#533=LINE('',#914,#598);
#534=LINE('',#918,#599);
#535=LINE('',#920,#600);
#536=LINE('',#922,#601);
#537=LINE('',#923,#602);
#538=LINE('',#927,#603);
#539=LINE('',#928,#604);
#540=LINE('',#933,#605);
#541=LINE('',#937,#606);
#542=LINE('',#941,#607);
#543=LINE('',#945,#608);
#544=LINE('',#947,#609);
#545=LINE('',#949,#610);
#546=LINE('',#951,#611);
#547=LINE('',#953,#612);
#548=LINE('',#955,#613);
#549=LINE('',#957,#614);
#550=LINE('',#959,#615);
#551=LINE('',#961,#616);
#552=LINE('',#963,#617);
#553=LINE('',#965,#618);
#554=LINE('',#967,#619);
#555=LINE('',#971,#620);
#556=LINE('',#973,#621);
#557=LINE('',#975,#622);
#558=LINE('',#977,#623);
#559=LINE('',#979,#624);
#560=LINE('',#981,#625);
#561=LINE('',#983,#626);
#562=LINE('',#984,#627);
#563=LINE('',#986,#628);
#564=LINE('',#988,#629);
#565=LINE('',#991,#630);
#566=LINE('',#992,#631);
#567=LINE('',#994,#632);
#568=LINE('',#997,#633);
#569=LINE('',#998,#634);
#570=LINE('',#1000,#635);
#571=LINE('',#1002,#636);
#572=LINE('',#1004,#637);
#573=LINE('',#1010,#638);
#574=LINE('',#1014,#639);
#575=LINE('',#1015,#640);
#576=LINE('',#1021,#641);
#577=LINE('',#1023,#642);
#578=LINE('',#1025,#643);
#579=LINE('',#1028,#644);
#580=LINE('',#1029,#645);
#581=LINE('',#1031,#646);
#582=LINE('',#1033,#647);
#583=LINE('',#1045,#648);
#584=LINE('',#1047,#649);
#585=LINE('',#1051,#650);
#586=LINE('',#1053,#651);
#587=VECTOR('',#710,1.);
#588=VECTOR('',#711,1.);
#589=VECTOR('',#712,1.);
#590=VECTOR('',#713,1.);
#591=VECTOR('',#716,1.);
#592=VECTOR('',#717,1.);
#593=VECTOR('',#718,1.);
#594=VECTOR('',#719,1.);
#595=VECTOR('',#726,1.);
#596=VECTOR('',#727,1.);
#597=VECTOR('',#728,1.);
#598=VECTOR('',#729,1.);
#599=VECTOR('',#732,1.);
#600=VECTOR('',#733,1.);
#601=VECTOR('',#734,1.);
#602=VECTOR('',#735,1.);
#603=VECTOR('',#738,1.);
#604=VECTOR('',#739,1.);
#605=VECTOR('',#742,1.);
#606=VECTOR('',#745,1.);
#607=VECTOR('',#748,1.);
#608=VECTOR('',#753,1.);
#609=VECTOR('',#754,1.);
#610=VECTOR('',#755,1.);
#611=VECTOR('',#758,1.);
#612=VECTOR('',#759,1.);
#613=VECTOR('',#760,1.);
#614=VECTOR('',#761,1.);
#615=VECTOR('',#764,1.);
#616=VECTOR('',#765,1.);
#617=VECTOR('',#766,1.);
#618=VECTOR('',#767,1.);
#619=VECTOR('',#768,1.);
#620=VECTOR('',#773,1.);
#621=VECTOR('',#776,1.);
#622=VECTOR('',#777,1.);
#623=VECTOR('',#778,1.);
#624=VECTOR('',#779,1.);
#625=VECTOR('',#780,1.);
#626=VECTOR('',#783,1.);
#627=VECTOR('',#784,1.);
#628=VECTOR('',#787,1.);
#629=VECTOR('',#790,1.);
#630=VECTOR('',#791,1.);
#631=VECTOR('',#792,1.);
#632=VECTOR('',#795,1.);
#633=VECTOR('',#796,1.);
#634=VECTOR('',#797,1.);
#635=VECTOR('',#800,1.);
#636=VECTOR('',#801,1.);
#637=VECTOR('',#802,1.);
#638=VECTOR('',#811,1.);
#639=VECTOR('',#816,1.);
#640=VECTOR('',#817,1.);
#641=VECTOR('',#828,1.);
#642=VECTOR('',#829,1.);
#643=VECTOR('',#832,1.);
#644=VECTOR('',#833,1.);
#645=VECTOR('',#834,1.);
#646=VECTOR('',#837,1.);
#647=VECTOR('',#838,1.);
#648=VECTOR('',#857,1.);
#649=VECTOR('',#858,1.);
#650=VECTOR('',#863,1.);
#651=VECTOR('',#866,1.);
#652=AXIS2_PLACEMENT_3D('',#885,#708,#709);
#653=AXIS2_PLACEMENT_3D('',#894,#714,#715);
#654=AXIS2_PLACEMENT_3D('',#903,#720,#721);
#655=AXIS2_PLACEMENT_3D('',#904,#722,#723);
#656=AXIS2_PLACEMENT_3D('',#906,#724,#725);
#657=AXIS2_PLACEMENT_3D('',#916,#730,#731);
#658=AXIS2_PLACEMENT_3D('',#925,#736,#737);
#659=AXIS2_PLACEMENT_3D('',#931,#740,#741);
#660=AXIS2_PLACEMENT_3D('',#935,#743,#744);
#661=AXIS2_PLACEMENT_3D('',#939,#746,#747);
#662=AXIS2_PLACEMENT_3D('',#943,#749,#750);
#663=AXIS2_PLACEMENT_3D('',#944,#751,#752);
#664=AXIS2_PLACEMENT_3D('',#950,#756,#757);
#665=AXIS2_PLACEMENT_3D('',#958,#762,#763);
#666=AXIS2_PLACEMENT_3D('',#968,#769,#770);
#667=AXIS2_PLACEMENT_3D('',#969,#771,#772);
#668=AXIS2_PLACEMENT_3D('',#972,#774,#775);
#669=AXIS2_PLACEMENT_3D('',#982,#781,#782);
#670=AXIS2_PLACEMENT_3D('',#985,#785,#786);
#671=AXIS2_PLACEMENT_3D('',#987,#788,#789);
#672=AXIS2_PLACEMENT_3D('',#993,#793,#794);
#673=AXIS2_PLACEMENT_3D('',#999,#798,#799);
#674=AXIS2_PLACEMENT_3D('',#1005,#803,#804);
#675=AXIS2_PLACEMENT_3D('',#1006,#805,#806);
#676=AXIS2_PLACEMENT_3D('',#1007,#807,#808);
#677=AXIS2_PLACEMENT_3D('',#1008,#809,#810);
#678=AXIS2_PLACEMENT_3D('',#1012,#812,#813);
#679=AXIS2_PLACEMENT_3D('',#1013,#814,#815);
#680=AXIS2_PLACEMENT_3D('',#1016,#818,#819);
#681=AXIS2_PLACEMENT_3D('',#1017,#820,#821);
#682=AXIS2_PLACEMENT_3D('',#1018,#822,#823);
#683=AXIS2_PLACEMENT_3D('',#1019,#824,#825);
#684=AXIS2_PLACEMENT_3D('',#1020,#826,#827);
#685=AXIS2_PLACEMENT_3D('',#1024,#830,#831);
#686=AXIS2_PLACEMENT_3D('',#1030,#835,#836);
#687=AXIS2_PLACEMENT_3D('',#1034,#839,#840);
#688=AXIS2_PLACEMENT_3D('',#1035,#841,#842);
#689=AXIS2_PLACEMENT_3D('',#1037,#843,#844);
#690=AXIS2_PLACEMENT_3D('',#1039,#845,#846);
#691=AXIS2_PLACEMENT_3D('',#1040,#847,#848);
#692=AXIS2_PLACEMENT_3D('',#1041,#849,#850);
#693=AXIS2_PLACEMENT_3D('',#1042,#851,#852);
#694=AXIS2_PLACEMENT_3D('',#1043,#853,#854);
#695=AXIS2_PLACEMENT_3D('',#1044,#855,#856);
#696=AXIS2_PLACEMENT_3D('',#1048,#859,#860);
#697=AXIS2_PLACEMENT_3D('',#1049,#861,#862);
#698=AXIS2_PLACEMENT_3D('',#1052,#864,#865);
#699=AXIS2_PLACEMENT_3D('',#1054,#867,#868);
#700=AXIS2_PLACEMENT_3D('',#1055,#869,#870);
#701=AXIS2_PLACEMENT_3D('',#1056,#871,#872);
#702=AXIS2_PLACEMENT_3D('',#1057,#873,#874);
#703=AXIS2_PLACEMENT_3D('',#1059,#875,#876);
#704=AXIS2_PLACEMENT_3D('',#1060,#877,#878);
#705=AXIS2_PLACEMENT_3D('',#1061,#879,#880);
#706=AXIS2_PLACEMENT_3D('',#1063,#881,#882);
#707=AXIS2_PLACEMENT_3D('',#1064,#883,#884);
#708=DIRECTION('',(0.,0.,1.));
#709=DIRECTION('',(1.,0.,0.));
#710=DIRECTION('',(0.,-1.,0.));
#711=DIRECTION('',(0.,0.,-1.));
#712=DIRECTION('',(0.,1.,0.));
#713=DIRECTION('',(0.,0.,1.));
#714=DIRECTION('',(-1.,0.,0.));
#715=DIRECTION('',(0.,0.,1.));
#716=DIRECTION('',(0.707106781186546,0.,-0.707106781186549));
#717=DIRECTION('',(0.,1.,0.));
#718=DIRECTION('',(-0.707106781186546,0.,0.707106781186549));
#719=DIRECTION('',(0.,-1.,0.));
#720=DIRECTION('',(-0.707106781186549,0.,-0.707106781186546));
#721=DIRECTION('',(0.,-1.,0.));
#722=DIRECTION('',(0.,0.,1.));
#723=DIRECTION('',(0.999999999999999,0.,0.));
#724=DIRECTION('',(0.,0.,-1.));
#725=DIRECTION('',(0.999999999999999,0.,0.));
#726=DIRECTION('',(-1.,0.,0.));
#727=DIRECTION('',(0.,1.,0.));
#728=DIRECTION('',(-1.,0.,0.));
#729=DIRECTION('',(0.,1.,0.));
#730=DIRECTION('',(0.,0.,-1.));
#731=DIRECTION('',(0.999999999999999,0.,0.));
#732=DIRECTION('',(1.,0.,0.));
#733=DIRECTION('',(0.,1.,0.));
#734=DIRECTION('',(-1.,0.,0.));
#735=DIRECTION('',(1.,0.,0.));
#736=DIRECTION('',(0.,0.,-1.));
#737=DIRECTION('',(0.999999999999999,0.,0.));
#738=DIRECTION('',(0.,-1.,0.));
#739=DIRECTION('',(1.,0.,0.));
#740=DIRECTION('',(0.,0.,-1.));
#741=DIRECTION('',(1.,0.,0.));
#742=DIRECTION('',(0.,-1.,0.));
#743=DIRECTION('',(0.,0.,-1.));
#744=DIRECTION('',(1.,0.,0.));
#745=DIRECTION('',(-1.,0.,0.));
#746=DIRECTION('',(0.,0.,-1.));
#747=DIRECTION('',(1.,0.,0.));
#748=DIRECTION('',(0.,1.,0.));
#749=DIRECTION('',(0.,0.,-1.));
#750=DIRECTION('',(1.,0.,0.));
#751=DIRECTION('',(0.,0.,1.));
#752=DIRECTION('',(1.,0.,0.));
#753=DIRECTION('',(0.,0.,1.));
#754=DIRECTION('',(0.,0.,1.));
#755=DIRECTION('',(1.,0.,0.));
#756=DIRECTION('',(0.,-1.,0.));
#757=DIRECTION('',(0.,0.,-1.));
#758=DIRECTION('',(0.,0.,1.));
#759=DIRECTION('',(0.,-1.,0.));
#760=DIRECTION('',(0.,0.,1.));
#761=DIRECTION('',(0.,-1.,0.));
#762=DIRECTION('',(-1.,0.,0.));
#763=DIRECTION('',(0.,0.,1.));
#764=DIRECTION('',(-1.,0.,0.));
#765=DIRECTION('',(0.,0.,1.));
#766=DIRECTION('',(1.,0.,0.));
#767=DIRECTION('',(0.,0.,1.));
#768=DIRECTION('',(-1.,0.,0.));
#769=DIRECTION('',(0.,1.,0.));
#770=DIRECTION('',(0.,0.,1.));
#771=DIRECTION('',(0.,0.,-1.));
#772=DIRECTION('',(-0.999999999999999,0.,0.));
#773=DIRECTION('',(0.,1.,0.));
#774=DIRECTION('',(0.,0.,-1.));
#775=DIRECTION('',(-1.,0.,0.));
#776=DIRECTION('',(0.,0.,1.));
#777=DIRECTION('',(0.,-0.707106781186548,0.707106781186547));
#778=DIRECTION('',(0.,-1.,0.));
#779=DIRECTION('',(0.,0.,1.));
#780=DIRECTION('',(0.,1.,0.));
#781=DIRECTION('',(1.,0.,0.));
#782=DIRECTION('',(0.,0.,-1.));
#783=DIRECTION('',(0.,0.707106781186548,-0.707106781186547));
#784=DIRECTION('',(0.577350269189624,0.577350269189627,-0.577350269189626));
#785=DIRECTION('',(0.,-0.707106781186547,-0.707106781186548));
#786=DIRECTION('',(1.,0.,0.));
#787=DIRECTION('',(-0.707106781186546,0.,0.707106781186549));
#788=DIRECTION('',(-0.707106781186549,0.,-0.707106781186546));
#789=DIRECTION('',(0.,-1.,0.));
#790=DIRECTION('',(-1.,0.,0.));
#791=DIRECTION('',(0.,0.,1.));
#792=DIRECTION('',(0.,0.,-1.));
#793=DIRECTION('',(0.,-1.,0.));
#794=DIRECTION('',(0.,0.,-1.));
#795=DIRECTION('',(0.,1.,0.));
#796=DIRECTION('',(0.,0.,1.));
#797=DIRECTION('',(0.,0.,-1.));
#798=DIRECTION('',(-1.,0.,0.));
#799=DIRECTION('',(0.,0.,1.));
#800=DIRECTION('',(0.,0.,-1.));
#801=DIRECTION('',(1.,0.,0.));
#802=DIRECTION('',(0.,0.,1.));
#803=DIRECTION('',(0.,1.,0.));
#804=DIRECTION('',(0.,0.,1.));
#805=DIRECTION('',(0.,0.,1.));
#806=DIRECTION('',(-1.,0.,0.));
#807=DIRECTION('',(0.,0.,1.));
#808=DIRECTION('',(-1.,0.,0.));
#809=DIRECTION('',(0.,0.,1.));
#810=DIRECTION('',(-1.,0.,0.));
#811=DIRECTION('',(0.,-1.,0.));
#812=DIRECTION('',(0.,0.,1.));
#813=DIRECTION('',(-1.,0.,0.));
#814=DIRECTION('',(0.,0.,-1.));
#815=DIRECTION('',(-1.,0.,0.));
#816=DIRECTION('',(0.,0.,1.));
#817=DIRECTION('',(0.,0.,-1.));
#818=DIRECTION('',(1.,0.,0.));
#819=DIRECTION('',(0.,0.,-1.));
#820=DIRECTION('',(0.,0.,1.));
#821=DIRECTION('',(1.,0.,0.));
#822=DIRECTION('',(0.,0.,1.));
#823=DIRECTION('',(1.,0.,0.));
#824=DIRECTION('',(0.,0.,1.));
#825=DIRECTION('',(1.,0.,0.));
#826=DIRECTION('',(0.,0.,1.));
#827=DIRECTION('',(1.,0.,0.));
#828=DIRECTION('',(-1.,0.,0.));
#829=DIRECTION('',(0.,0.,1.));
#830=DIRECTION('',(0.,-1.,0.));
#831=DIRECTION('',(0.,0.,-1.));
#832=DIRECTION('',(0.,1.,0.));
#833=DIRECTION('',(0.,0.,1.));
#834=DIRECTION('',(0.,0.,-1.));
#835=DIRECTION('',(-1.,0.,0.));
#836=DIRECTION('',(0.,0.,1.));
#837=DIRECTION('',(0.,0.,-1.));
#838=DIRECTION('',(1.,0.,0.));
#839=DIRECTION('',(0.,1.,0.));
#840=DIRECTION('',(0.,0.,1.));
#841=DIRECTION('',(0.,0.,-1.));
#842=DIRECTION('',(-0.999999999999995,0.,0.));
#843=DIRECTION('',(0.,0.,-1.));
#844=DIRECTION('',(-0.999999999999997,0.,0.));
#845=DIRECTION('',(0.,0.,-1.));
#846=DIRECTION('',(-0.999999999999999,0.,0.));
#847=DIRECTION('',(0.,0.,1.));
#848=DIRECTION('',(-0.999999999999999,0.,0.));
#849=DIRECTION('',(0.,0.,1.));
#850=DIRECTION('',(-0.999999999999999,0.,0.));
#851=DIRECTION('',(0.,0.,-1.));
#852=DIRECTION('',(-1.,0.,0.));
#853=DIRECTION('',(0.,0.,1.));
#854=DIRECTION('',(0.999999999999999,0.,0.));
#855=DIRECTION('',(0.,0.,1.));
#856=DIRECTION('',(0.999999999999999,0.,0.));
#857=DIRECTION('',(0.,0.,-1.));
#858=DIRECTION('',(-1.,0.,0.));
#859=DIRECTION('',(0.,-1.,0.));
#860=DIRECTION('',(0.,0.,-1.));
#861=DIRECTION('',(0.,0.,1.));
#862=DIRECTION('',(-0.999999999999999,0.,0.));
#863=DIRECTION('',(0.,-1.,0.));
#864=DIRECTION('',(0.,0.,-1.));
#865=DIRECTION('',(-1.,0.,0.));
#866=DIRECTION('',(0.,0.,1.));
#867=DIRECTION('',(1.,0.,0.));
#868=DIRECTION('',(0.,0.,-1.));
#869=DIRECTION('',(0.,0.,1.));
#870=DIRECTION('',(0.999999999999999,0.,0.));
#871=DIRECTION('',(0.,0.,-1.));
#872=DIRECTION('',(0.999999999999999,0.,0.));
#873=DIRECTION('',(0.,0.,-1.));
#874=DIRECTION('',(0.999999999999997,0.,0.));
#875=DIRECTION('',(0.,0.,-1.));
#876=DIRECTION('',(0.999999999999997,0.,0.));
#877=DIRECTION('',(0.,0.,-1.));
#878=DIRECTION('',(-1.,0.,0.));
#879=DIRECTION('',(0.,0.,-1.));
#880=DIRECTION('',(0.999999999999995,0.,0.));
#881=DIRECTION('',(0.,0.,-1.));
#882=DIRECTION('',(0.999999999999995,0.,0.));
#883=DIRECTION('',(0.,0.,-1.));
#884=DIRECTION('',(-1.,0.,0.));
#885=CARTESIAN_POINT('',(0.,0.,0.));
#886=CARTESIAN_POINT('',(314.2,211.6,139.2));
#887=CARTESIAN_POINT('',(314.2,191.6,139.2));
#888=CARTESIAN_POINT('',(314.2,168.228805914146,139.2));
#889=CARTESIAN_POINT('',(314.2,168.228805914146,139.25));
#890=CARTESIAN_POINT('',(314.2,168.228805914146,109.3));
#891=CARTESIAN_POINT('',(314.2,113.55,109.3));
#892=CARTESIAN_POINT('',(314.2,191.6,109.3));
#893=CARTESIAN_POINT('',(314.2,191.6,139.2));
#894=CARTESIAN_POINT('',(314.2,113.55,109.3));
#895=CARTESIAN_POINT('',(432.7,29.9,131.4));
#896=CARTESIAN_POINT('',(424.9,29.9,139.2));
#897=CARTESIAN_POINT('',(432.7,29.9,131.4));
#898=CARTESIAN_POINT('',(424.9,211.6,139.2));
#899=CARTESIAN_POINT('',(424.9,0.,139.2));
#900=CARTESIAN_POINT('',(390.225,0.,173.875));
#901=CARTESIAN_POINT('',(432.7,0.,131.4));
#902=CARTESIAN_POINT('',(432.7,211.6,131.4));
#903=CARTESIAN_POINT('',(432.7,211.6,131.4));
#904=CARTESIAN_POINT('',(319.4,155.5,139.2));
#905=CARTESIAN_POINT('',(314.2,142.771194085854,139.2));
#906=CARTESIAN_POINT('',(319.8,191.6,139.2));
#907=CARTESIAN_POINT('',(319.8,197.2,139.2));
#908=CARTESIAN_POINT('',(216.35,197.2,139.2));
#909=CARTESIAN_POINT('',(424.9,197.2,139.2));
#910=CARTESIAN_POINT('',(424.9,211.6,139.2));
#911=CARTESIAN_POINT('',(424.9,408.8,139.2));
#912=CARTESIAN_POINT('',(216.35,408.8,139.2));
#913=CARTESIAN_POINT('',(106.5,408.8,139.2));
#914=CARTESIAN_POINT('',(106.5,211.6,139.2));
#915=CARTESIAN_POINT('',(106.5,285.7,139.2));
#916=CARTESIAN_POINT('',(103.2,285.7,139.2));
#917=CARTESIAN_POINT('',(103.2,282.4,139.2));
#918=CARTESIAN_POINT('',(216.35,282.4,139.2));
#919=CARTESIAN_POINT('',(0.,282.4,139.2));
#920=CARTESIAN_POINT('',(0.,211.6,139.2));
#921=CARTESIAN_POINT('',(0.,0.,139.2));
#922=CARTESIAN_POINT('',(216.35,0.,139.2));
#923=CARTESIAN_POINT('',(216.35,29.9,139.2));
#924=CARTESIAN_POINT('',(319.8,29.9,139.2));
#925=CARTESIAN_POINT('',(319.8,35.5,139.2));
#926=CARTESIAN_POINT('',(314.2,35.5,139.2));
#927=CARTESIAN_POINT('',(314.2,211.6,139.2));
#928=CARTESIAN_POINT('',(216.35,171.7,139.2));
#929=CARTESIAN_POINT('',(173.8,171.7,139.2));
#930=CARTESIAN_POINT('',(298.6,171.7,139.2));
#931=CARTESIAN_POINT('',(173.8,186.3,139.2));
#932=CARTESIAN_POINT('',(159.2,186.3,139.2));
#933=CARTESIAN_POINT('',(159.2,211.6,139.2));
#934=CARTESIAN_POINT('',(159.2,326.4,139.2));
#935=CARTESIAN_POINT('',(173.8,326.4,139.2));
#936=CARTESIAN_POINT('',(173.8,341.,139.2));
#937=CARTESIAN_POINT('',(216.35,341.,139.2));
#938=CARTESIAN_POINT('',(298.6,341.,139.2));
#939=CARTESIAN_POINT('',(298.6,326.4,139.2));
#940=CARTESIAN_POINT('',(313.2,326.4,139.2));
#941=CARTESIAN_POINT('',(313.2,211.6,139.2));
#942=CARTESIAN_POINT('',(313.2,186.3,139.2));
#943=CARTESIAN_POINT('',(298.6,186.3,139.2));
#944=CARTESIAN_POINT('',(216.35,211.6,139.2));
#945=CARTESIAN_POINT('',(432.7,0.,0.));
#946=CARTESIAN_POINT('',(432.7,0.,0.));
#947=CARTESIAN_POINT('',(0.,0.,0.));
#948=CARTESIAN_POINT('',(0.,0.,0.));
#949=CARTESIAN_POINT('',(216.35,0.,0.));
#950=CARTESIAN_POINT('',(216.35,0.,0.));
#951=CARTESIAN_POINT('',(0.,282.4,113.3));
#952=CARTESIAN_POINT('',(0.,282.4,113.3));
#953=CARTESIAN_POINT('',(0.,352.8,113.3));
#954=CARTESIAN_POINT('',(0.,423.2,113.3));
#955=CARTESIAN_POINT('',(0.,423.2,0.));
#956=CARTESIAN_POINT('',(0.,423.2,0.));
#957=CARTESIAN_POINT('',(0.,211.6,0.));
#958=CARTESIAN_POINT('',(0.,211.6,0.));
#959=CARTESIAN_POINT('',(53.25,423.2,113.3));
#960=CARTESIAN_POINT('',(106.5,423.2,113.3));
#961=CARTESIAN_POINT('',(106.5,423.2,113.3));
#962=CARTESIAN_POINT('',(106.5,423.2,124.8));
#963=CARTESIAN_POINT('',(216.35,423.2,124.8));
#964=CARTESIAN_POINT('',(432.7,423.2,124.8));
#965=CARTESIAN_POINT('',(432.7,423.2,0.));
#966=CARTESIAN_POINT('',(432.7,423.2,0.));
#967=CARTESIAN_POINT('',(216.35,423.2,0.));
#968=CARTESIAN_POINT('',(216.35,423.2,0.));
#969=CARTESIAN_POINT('',(319.4,155.5,0.));
#970=CARTESIAN_POINT('',(305.65,155.5,0.));
#971=CARTESIAN_POINT('',(432.7,211.6,0.));
#972=CARTESIAN_POINT('',(216.35,211.6,0.));
#973=CARTESIAN_POINT('',(432.7,29.9,109.3));
#974=CARTESIAN_POINT('',(432.7,29.9,109.3));
#975=CARTESIAN_POINT('',(432.7,379.8,168.2));
#976=CARTESIAN_POINT('',(432.7,416.6,131.4));
#977=CARTESIAN_POINT('',(432.7,211.6,131.4));
#978=CARTESIAN_POINT('',(432.7,197.2,131.4));
#979=CARTESIAN_POINT('',(432.7,197.2,109.3));
#980=CARTESIAN_POINT('',(432.7,197.2,109.3));
#981=CARTESIAN_POINT('',(432.7,113.55,109.3));
#982=CARTESIAN_POINT('',(432.7,211.6,0.));
#983=CARTESIAN_POINT('',(106.5,423.2,124.8));
#984=CARTESIAN_POINT('',(364.983333333334,348.883333333333,199.116666666666));
#985=CARTESIAN_POINT('',(216.35,423.2,124.8));
#986=CARTESIAN_POINT('',(432.7,197.2,131.4));
#987=CARTESIAN_POINT('',(432.7,211.6,131.4));
#988=CARTESIAN_POINT('',(236.2,171.7,101.3));
#989=CARTESIAN_POINT('',(298.6,171.7,101.3));
#990=CARTESIAN_POINT('',(173.8,171.7,101.3));
#991=CARTESIAN_POINT('',(173.8,171.7,139.2));
#992=CARTESIAN_POINT('',(298.6,171.7,101.3));
#993=CARTESIAN_POINT('',(236.2,171.7,101.3));
#994=CARTESIAN_POINT('',(159.2,256.35,101.3));
#995=CARTESIAN_POINT('',(159.2,186.3,101.3));
#996=CARTESIAN_POINT('',(159.2,326.4,101.3));
#997=CARTESIAN_POINT('',(159.2,326.4,139.2));
#998=CARTESIAN_POINT('',(159.2,186.3,101.3));
#999=CARTESIAN_POINT('',(159.2,256.35,101.3));
#1000=CARTESIAN_POINT('',(173.8,341.,101.3));
#1001=CARTESIAN_POINT('',(173.8,341.,101.3));
#1002=CARTESIAN_POINT('',(236.2,341.,101.3));
#1003=CARTESIAN_POINT('',(298.6,341.,101.3));
#1004=CARTESIAN_POINT('',(298.6,341.,139.2));
#1005=CARTESIAN_POINT('',(236.2,341.,101.3));
#1006=CARTESIAN_POINT('',(173.8,326.4,101.3));
#1007=CARTESIAN_POINT('',(173.8,186.3,101.3));
#1008=CARTESIAN_POINT('',(298.6,186.3,101.3));
#1009=CARTESIAN_POINT('',(313.2,186.3,101.3));
#1010=CARTESIAN_POINT('',(313.2,256.35,101.3));
#1011=CARTESIAN_POINT('',(313.2,326.4,101.3));
#1012=CARTESIAN_POINT('',(298.6,326.4,101.3));
#1013=CARTESIAN_POINT('',(236.2,256.35,101.3));
#1014=CARTESIAN_POINT('',(313.2,186.3,139.2));
#1015=CARTESIAN_POINT('',(313.2,326.4,101.3));
#1016=CARTESIAN_POINT('',(313.2,256.35,101.3));
#1017=CARTESIAN_POINT('',(173.8,326.4,101.3));
#1018=CARTESIAN_POINT('',(173.8,186.3,101.3));
#1019=CARTESIAN_POINT('',(298.6,186.3,101.3));
#1020=CARTESIAN_POINT('',(298.6,326.4,101.3));
#1021=CARTESIAN_POINT('',(373.45,29.9,109.3));
#1022=CARTESIAN_POINT('',(319.8,29.9,109.3));
#1023=CARTESIAN_POINT('',(319.8,29.9,139.2));
#1024=CARTESIAN_POINT('',(373.45,29.9,109.3));
#1025=CARTESIAN_POINT('',(314.2,113.55,109.3));
#1026=CARTESIAN_POINT('',(314.2,35.5,109.3));
#1027=CARTESIAN_POINT('',(314.2,142.771194085854,109.3));
#1028=CARTESIAN_POINT('',(314.2,142.771194085854,139.25));
#1029=CARTESIAN_POINT('',(314.2,35.5,109.3));
#1030=CARTESIAN_POINT('',(314.2,113.55,109.3));
#1031=CARTESIAN_POINT('',(319.8,197.2,109.3));
#1032=CARTESIAN_POINT('',(319.8,197.2,109.3));
#1033=CARTESIAN_POINT('',(373.45,197.2,109.3));
#1034=CARTESIAN_POINT('',(373.45,197.2,109.3));
#1035=CARTESIAN_POINT('',(378.4,174.1,109.3));
#1036=CARTESIAN_POINT('',(373.65,174.1,109.3));
#1037=CARTESIAN_POINT('',(326.9,91.4,109.3));
#1038=CARTESIAN_POINT('',(318.6,91.4,109.3));
#1039=CARTESIAN_POINT('',(319.4,155.5,109.3));
#1040=CARTESIAN_POINT('',(319.8,35.5,109.3));
#1041=CARTESIAN_POINT('',(319.8,191.6,109.3));
#1042=CARTESIAN_POINT('',(373.45,113.55,109.3));
#1043=CARTESIAN_POINT('',(319.8,191.6,109.3));
#1044=CARTESIAN_POINT('',(319.8,35.5,109.3));
#1045=CARTESIAN_POINT('',(103.2,282.4,113.3));
#1046=CARTESIAN_POINT('',(103.2,282.4,113.3));
#1047=CARTESIAN_POINT('',(53.25,282.4,113.3));
#1048=CARTESIAN_POINT('',(53.25,282.4,113.3));
#1049=CARTESIAN_POINT('',(103.2,285.7,113.3));
#1050=CARTESIAN_POINT('',(106.5,285.7,113.3));
#1051=CARTESIAN_POINT('',(106.5,352.8,113.3));
#1052=CARTESIAN_POINT('',(53.25,352.8,113.3));
#1053=CARTESIAN_POINT('',(106.5,285.7,139.2));
#1054=CARTESIAN_POINT('',(106.5,352.8,113.3));
#1055=CARTESIAN_POINT('',(103.2,285.7,113.3));
#1056=CARTESIAN_POINT('',(319.4,155.5,139.25));
#1057=CARTESIAN_POINT('',(326.9,91.4,67.7));
#1058=CARTESIAN_POINT('',(335.2,91.4,67.7));
#1059=CARTESIAN_POINT('',(326.9,91.4,139.25));
#1060=CARTESIAN_POINT('',(326.9,91.4,67.7));
#1061=CARTESIAN_POINT('',(378.4,174.1,62.1));
#1062=CARTESIAN_POINT('',(383.15,174.1,62.1));
#1063=CARTESIAN_POINT('',(378.4,174.1,139.25));
#1064=CARTESIAN_POINT('',(378.4,174.1,62.1));
#1065=MECHANICAL_DESIGN_GEOMETRIC_PRESENTATION_REPRESENTATION('',(#24),
#1066);
#1066=(
GEOMETRIC_REPRESENTATION_CONTEXT(3)
GLOBAL_UNCERTAINTY_ASSIGNED_CONTEXT((#1067))
GLOBAL_UNIT_ASSIGNED_CONTEXT((#1073,#1069,#1068))
REPRESENTATION_CONTEXT('featured_part_11184','TOP_LEVEL_ASSEMBLY_PART')
);
#1067=UNCERTAINTY_MEASURE_WITH_UNIT(LENGTH_MEASURE(2.E-5),#1073,
'DISTANCE_ACCURACY_VALUE','Maximum Tolerance applied to model');
#1068=(
NAMED_UNIT(*)
SI_UNIT($,.STERADIAN.)
SOLID_ANGLE_UNIT()
);
#1069=(
CONVERSION_BASED_UNIT('DEGREE',#1071)
NAMED_UNIT(#1070)
PLANE_ANGLE_UNIT()
);
#1070=DIMENSIONAL_EXPONENTS(0.,0.,0.,0.,0.,0.,0.);
#1071=PLANE_ANGLE_MEASURE_WITH_UNIT(PLANE_ANGLE_MEASURE(0.0174532925),#1072);
#1072=(
NAMED_UNIT(*)
PLANE_ANGLE_UNIT()
SI_UNIT($,.RADIAN.)
);
#1073=(
LENGTH_UNIT()
NAMED_UNIT(*)
SI_UNIT(.MILLI.,.METRE.)
);
ENDSEC;
END-ISO-10303-21;
