ISO-10303-21;
HEADER;
/* Generated by software containing ST-Developer
 * from STEP Tools, Inc. (www.steptools.com) 
 */
/* OPTION: using custom schema-name function */

FILE_DESCRIPTION(
/* description */ (''),
/* implementation_level */ '2;1');

FILE_NAME(
/* name */ 'featured_part_11051.stp',
/* time_stamp */ '2026-07-12T12:54:08-04:00',
/* author */ (''),
/* organization */ (''),
/* preprocessor_version */ 'ST-DEVELOPER v20.1',
/* originating_system */ 'SIEMENS PLM Software NX2512.6002',
/* authorisation */ '');

FILE_SCHEMA (('AUTOMOTIVE_DESIGN { 1 0 10303 214 3 1 1 1 }'));
ENDSEC;

DATA;
#10=SHAPE_REPRESENTATION_RELATIONSHIP('None',
'relationship between featured_part_11051-None and featured_part_11051
-None',#22,#11);
#11=ADVANCED_BREP_SHAPE_REPRESENTATION('featured_part_11051-None',(#32),
#1240);
#12=SHAPE_DEFINITION_REPRESENTATION(#13,#22);
#13=PRODUCT_DEFINITION_SHAPE('','',#14);
#14=PRODUCT_DEFINITION(' ','',#16,#15);
#15=PRODUCT_DEFINITION_CONTEXT('part definition',#21,'design');
#16=PRODUCT_DEFINITION_FORMATION_WITH_SPECIFIED_SOURCE(' ',' ',#18,
 .NOT_KNOWN.);
#17=PRODUCT_RELATED_PRODUCT_CATEGORY('part','',(#18));
#18=PRODUCT('featured_part_11051','featured_part_11051',' ',(#19));
#19=PRODUCT_CONTEXT(' ',#21,'mechanical');
#20=APPLICATION_PROTOCOL_DEFINITION('international standard',
'automotive_design',2010,#21);
#21=APPLICATION_CONTEXT(
'core data for automotive mechanical design processes');
#22=SHAPE_REPRESENTATION('featured_part_11051-None',(#749),#1240);
#23=PRESENTATION_LAYER_ASSIGNMENT('1','Layer 1',(#32));
#24=STYLED_ITEM('',(#25),#32);
#25=PRESENTATION_STYLE_ASSIGNMENT((#26));
#26=SURFACE_STYLE_USAGE(.BOTH.,#27);
#27=SURFACE_SIDE_STYLE('',(#28));
#28=SURFACE_STYLE_FILL_AREA(#29);
#29=FILL_AREA_STYLE('',(#30));
#30=FILL_AREA_STYLE_COLOUR('',#31);
#31=COLOUR_RGB('medium steel',0.611764705882353,0.658823529411765,0.670588235294118);
#32=MANIFOLD_SOLID_BREP('',#33);
#33=CLOSED_SHELL('',(#85,#86,#87,#88,#89,#90,#91,#92,#93,#94,#95,#96,#97,
#98,#99,#100,#101,#102,#103,#104,#105,#106,#107,#108,#109,#110,#111,#112,
#113,#114,#115,#116,#117,#118,#119,#120,#121,#122,#123,#124));
#34=CYLINDRICAL_SURFACE('',#780,5.7);
#35=CYLINDRICAL_SURFACE('',#781,5.7);
#36=CYLINDRICAL_SURFACE('',#782,5.7);
#37=CYLINDRICAL_SURFACE('',#783,5.7);
#38=CYLINDRICAL_SURFACE('',#793,6.3);
#39=CYLINDRICAL_SURFACE('',#794,6.3);
#40=CYLINDRICAL_SURFACE('',#795,6.3);
#41=CYLINDRICAL_SURFACE('',#796,6.3);
#42=CYLINDRICAL_SURFACE('',#806,9.6);
#43=CYLINDRICAL_SURFACE('',#807,9.6);
#44=CYLINDRICAL_SURFACE('',#808,9.6);
#45=CYLINDRICAL_SURFACE('',#809,9.6);
#46=CYLINDRICAL_SURFACE('',#814,14.6);
#47=CYLINDRICAL_SURFACE('',#816,4.55);
#48=FACE_OUTER_BOUND('',#162,.T.);
#49=FACE_OUTER_BOUND('',#163,.T.);
#50=FACE_OUTER_BOUND('',#164,.T.);
#51=FACE_OUTER_BOUND('',#165,.T.);
#52=FACE_OUTER_BOUND('',#166,.T.);
#53=FACE_OUTER_BOUND('',#167,.T.);
#54=FACE_OUTER_BOUND('',#168,.T.);
#55=FACE_OUTER_BOUND('',#169,.T.);
#56=FACE_OUTER_BOUND('',#170,.T.);
#57=FACE_OUTER_BOUND('',#174,.T.);
#58=FACE_OUTER_BOUND('',#175,.T.);
#59=FACE_OUTER_BOUND('',#176,.T.);
#60=FACE_OUTER_BOUND('',#177,.T.);
#61=FACE_OUTER_BOUND('',#178,.T.);
#62=FACE_OUTER_BOUND('',#179,.T.);
#63=FACE_OUTER_BOUND('',#180,.T.);
#64=FACE_OUTER_BOUND('',#181,.T.);
#65=FACE_OUTER_BOUND('',#182,.T.);
#66=FACE_OUTER_BOUND('',#183,.T.);
#67=FACE_OUTER_BOUND('',#184,.T.);
#68=FACE_OUTER_BOUND('',#185,.T.);
#69=FACE_OUTER_BOUND('',#186,.T.);
#70=FACE_OUTER_BOUND('',#187,.T.);
#71=FACE_OUTER_BOUND('',#188,.T.);
#72=FACE_OUTER_BOUND('',#189,.T.);
#73=FACE_OUTER_BOUND('',#190,.T.);
#74=FACE_OUTER_BOUND('',#191,.T.);
#75=FACE_OUTER_BOUND('',#192,.T.);
#76=FACE_OUTER_BOUND('',#193,.T.);
#77=FACE_OUTER_BOUND('',#194,.T.);
#78=FACE_OUTER_BOUND('',#195,.T.);
#79=FACE_OUTER_BOUND('',#196,.T.);
#80=FACE_OUTER_BOUND('',#197,.T.);
#81=FACE_OUTER_BOUND('',#198,.T.);
#82=FACE_OUTER_BOUND('',#199,.T.);
#83=FACE_OUTER_BOUND('',#200,.T.);
#84=FACE_OUTER_BOUND('',#203,.T.);
#85=ADVANCED_FACE('',(#151,#152,#153),#125,.T.);
#86=ADVANCED_FACE('',(#48),#126,.T.);
#87=ADVANCED_FACE('',(#49),#127,.T.);
#88=ADVANCED_FACE('',(#50),#128,.T.);
#89=ADVANCED_FACE('',(#51),#129,.T.);
#90=ADVANCED_FACE('',(#52),#130,.T.);
#91=ADVANCED_FACE('',(#53),#131,.F.);
#92=ADVANCED_FACE('',(#54),#132,.F.);
#93=ADVANCED_FACE('',(#55),#133,.F.);
#94=ADVANCED_FACE('',(#56),#134,.F.);
#95=ADVANCED_FACE('',(#154,#155,#156),#135,.F.);
#96=ADVANCED_FACE('',(#57),#136,.F.);
#97=ADVANCED_FACE('',(#58),#34,.F.);
#98=ADVANCED_FACE('',(#59),#35,.F.);
#99=ADVANCED_FACE('',(#60),#36,.F.);
#100=ADVANCED_FACE('',(#61),#37,.F.);
#101=ADVANCED_FACE('',(#62),#137,.F.);
#102=ADVANCED_FACE('',(#63),#138,.F.);
#103=ADVANCED_FACE('',(#64),#139,.F.);
#104=ADVANCED_FACE('',(#65),#140,.F.);
#105=ADVANCED_FACE('',(#66),#141,.F.);
#106=ADVANCED_FACE('',(#67),#38,.F.);
#107=ADVANCED_FACE('',(#68),#39,.F.);
#108=ADVANCED_FACE('',(#69),#40,.F.);
#109=ADVANCED_FACE('',(#70),#41,.F.);
#110=ADVANCED_FACE('',(#71),#142,.F.);
#111=ADVANCED_FACE('',(#72),#143,.F.);
#112=ADVANCED_FACE('',(#73),#144,.F.);
#113=ADVANCED_FACE('',(#74),#145,.F.);
#114=ADVANCED_FACE('',(#75),#146,.F.);
#115=ADVANCED_FACE('',(#76),#42,.F.);
#116=ADVANCED_FACE('',(#77),#43,.F.);
#117=ADVANCED_FACE('',(#78),#44,.F.);
#118=ADVANCED_FACE('',(#79),#45,.F.);
#119=ADVANCED_FACE('',(#80),#147,.F.);
#120=ADVANCED_FACE('',(#81),#148,.F.);
#121=ADVANCED_FACE('',(#82),#149,.F.);
#122=ADVANCED_FACE('',(#83),#46,.F.);
#123=ADVANCED_FACE('',(#157,#158),#47,.F.);
#124=ADVANCED_FACE('',(#84),#150,.F.);
#125=PLANE('',#759);
#126=PLANE('',#760);
#127=PLANE('',#761);
#128=PLANE('',#762);
#129=PLANE('',#763);
#130=PLANE('',#764);
#131=PLANE('',#765);
#132=PLANE('',#766);
#133=PLANE('',#767);
#134=PLANE('',#768);
#135=PLANE('',#778);
#136=PLANE('',#779);
#137=PLANE('',#784);
#138=PLANE('',#785);
#139=PLANE('',#786);
#140=PLANE('',#787);
#141=PLANE('',#792);
#142=PLANE('',#797);
#143=PLANE('',#798);
#144=PLANE('',#799);
#145=PLANE('',#804);
#146=PLANE('',#805);
#147=PLANE('',#810);
#148=PLANE('',#812);
#149=PLANE('',#813);
#150=PLANE('',#817);
#151=FACE_BOUND('',#159,.T.);
#152=FACE_BOUND('',#160,.T.);
#153=FACE_BOUND('',#161,.T.);
#154=FACE_BOUND('',#171,.T.);
#155=FACE_BOUND('',#172,.T.);
#156=FACE_BOUND('',#173,.T.);
#157=FACE_BOUND('',#201,.T.);
#158=FACE_BOUND('',#202,.T.);
#159=EDGE_LOOP('',(#232,#233,#234,#235,#236,#237,#238));
#160=EDGE_LOOP('',(#239,#240,#241,#242,#243,#244,#245,#246));
#161=EDGE_LOOP('',(#247,#248,#249,#250,#251,#252,#253,#254));
#162=EDGE_LOOP('',(#255,#256,#257,#258,#259));
#163=EDGE_LOOP('',(#260,#261,#262,#263,#264,#265));
#164=EDGE_LOOP('',(#266,#267,#268,#269,#270,#271));
#165=EDGE_LOOP('',(#272,#273,#274,#275));
#166=EDGE_LOOP('',(#276,#277,#278,#279));
#167=EDGE_LOOP('',(#280,#281,#282,#283));
#168=EDGE_LOOP('',(#284,#285,#286,#287));
#169=EDGE_LOOP('',(#288,#289,#290,#291));
#170=EDGE_LOOP('',(#292,#293,#294,#295));
#171=EDGE_LOOP('',(#296));
#172=EDGE_LOOP('',(#297,#298,#299,#300,#301,#302,#303,#304));
#173=EDGE_LOOP('',(#305,#306,#307,#308,#309,#310,#311,#312));
#174=EDGE_LOOP('',(#313,#314,#315,#316));
#175=EDGE_LOOP('',(#317,#318,#319,#320));
#176=EDGE_LOOP('',(#321,#322,#323,#324));
#177=EDGE_LOOP('',(#325,#326,#327,#328));
#178=EDGE_LOOP('',(#329,#330,#331,#332));
#179=EDGE_LOOP('',(#333,#334,#335,#336));
#180=EDGE_LOOP('',(#337,#338,#339,#340));
#181=EDGE_LOOP('',(#341,#342,#343,#344));
#182=EDGE_LOOP('',(#345,#346,#347,#348));
#183=EDGE_LOOP('',(#349,#350,#351,#352,#353,#354,#355,#356));
#184=EDGE_LOOP('',(#357,#358,#359,#360));
#185=EDGE_LOOP('',(#361,#362,#363,#364));
#186=EDGE_LOOP('',(#365,#366,#367,#368));
#187=EDGE_LOOP('',(#369,#370,#371,#372));
#188=EDGE_LOOP('',(#373,#374,#375,#376));
#189=EDGE_LOOP('',(#377,#378,#379,#380));
#190=EDGE_LOOP('',(#381,#382,#383,#384));
#191=EDGE_LOOP('',(#385,#386,#387,#388,#389,#390,#391,#392));
#192=EDGE_LOOP('',(#393,#394,#395,#396));
#193=EDGE_LOOP('',(#397,#398,#399,#400));
#194=EDGE_LOOP('',(#401,#402,#403,#404));
#195=EDGE_LOOP('',(#405,#406,#407,#408));
#196=EDGE_LOOP('',(#409,#410,#411,#412));
#197=EDGE_LOOP('',(#413,#414,#415,#416,#417));
#198=EDGE_LOOP('',(#418,#419,#420,#421,#422));
#199=EDGE_LOOP('',(#423,#424,#425,#426));
#200=EDGE_LOOP('',(#427,#428,#429,#430));
#201=EDGE_LOOP('',(#431));
#202=EDGE_LOOP('',(#432));
#203=EDGE_LOOP('',(#433));
#204=CIRCLE('',#750,14.6);
#205=CIRCLE('',#751,9.6);
#206=CIRCLE('',#752,9.6);
#207=CIRCLE('',#753,9.6);
#208=CIRCLE('',#754,9.6);
#209=CIRCLE('',#755,5.7);
#210=CIRCLE('',#756,5.7);
#211=CIRCLE('',#757,5.7);
#212=CIRCLE('',#758,5.7);
#213=CIRCLE('',#769,4.55);
#214=CIRCLE('',#770,6.3);
#215=CIRCLE('',#771,6.3);
#216=CIRCLE('',#772,6.3);
#217=CIRCLE('',#773,6.3);
#218=CIRCLE('',#774,5.7);
#219=CIRCLE('',#775,5.7);
#220=CIRCLE('',#776,5.7);
#221=CIRCLE('',#777,5.7);
#222=CIRCLE('',#788,6.3);
#223=CIRCLE('',#789,6.3);
#224=CIRCLE('',#790,6.3);
#225=CIRCLE('',#791,6.3);
#226=CIRCLE('',#800,9.6);
#227=CIRCLE('',#801,9.6);
#228=CIRCLE('',#802,9.6);
#229=CIRCLE('',#803,9.6);
#230=CIRCLE('',#811,14.6);
#231=CIRCLE('',#815,4.55);
#232=ORIENTED_EDGE('',*,*,#502,.F.);
#233=ORIENTED_EDGE('',*,*,#503,.T.);
#234=ORIENTED_EDGE('',*,*,#504,.F.);
#235=ORIENTED_EDGE('',*,*,#505,.F.);
#236=ORIENTED_EDGE('',*,*,#506,.F.);
#237=ORIENTED_EDGE('',*,*,#507,.F.);
#238=ORIENTED_EDGE('',*,*,#508,.T.);
#239=ORIENTED_EDGE('',*,*,#509,.F.);
#240=ORIENTED_EDGE('',*,*,#510,.T.);
#241=ORIENTED_EDGE('',*,*,#511,.F.);
#242=ORIENTED_EDGE('',*,*,#512,.T.);
#243=ORIENTED_EDGE('',*,*,#513,.F.);
#244=ORIENTED_EDGE('',*,*,#514,.T.);
#245=ORIENTED_EDGE('',*,*,#515,.F.);
#246=ORIENTED_EDGE('',*,*,#516,.T.);
#247=ORIENTED_EDGE('',*,*,#517,.F.);
#248=ORIENTED_EDGE('',*,*,#518,.T.);
#249=ORIENTED_EDGE('',*,*,#519,.F.);
#250=ORIENTED_EDGE('',*,*,#520,.T.);
#251=ORIENTED_EDGE('',*,*,#521,.F.);
#252=ORIENTED_EDGE('',*,*,#522,.T.);
#253=ORIENTED_EDGE('',*,*,#523,.F.);
#254=ORIENTED_EDGE('',*,*,#524,.T.);
#255=ORIENTED_EDGE('',*,*,#504,.T.);
#256=ORIENTED_EDGE('',*,*,#525,.T.);
#257=ORIENTED_EDGE('',*,*,#526,.F.);
#258=ORIENTED_EDGE('',*,*,#527,.T.);
#259=ORIENTED_EDGE('',*,*,#528,.T.);
#260=ORIENTED_EDGE('',*,*,#529,.F.);
#261=ORIENTED_EDGE('',*,*,#530,.F.);
#262=ORIENTED_EDGE('',*,*,#531,.F.);
#263=ORIENTED_EDGE('',*,*,#532,.T.);
#264=ORIENTED_EDGE('',*,*,#526,.T.);
#265=ORIENTED_EDGE('',*,*,#533,.T.);
#266=ORIENTED_EDGE('',*,*,#534,.F.);
#267=ORIENTED_EDGE('',*,*,#535,.T.);
#268=ORIENTED_EDGE('',*,*,#506,.T.);
#269=ORIENTED_EDGE('',*,*,#536,.F.);
#270=ORIENTED_EDGE('',*,*,#537,.T.);
#271=ORIENTED_EDGE('',*,*,#531,.T.);
#272=ORIENTED_EDGE('',*,*,#538,.F.);
#273=ORIENTED_EDGE('',*,*,#527,.F.);
#274=ORIENTED_EDGE('',*,*,#532,.F.);
#275=ORIENTED_EDGE('',*,*,#537,.F.);
#276=ORIENTED_EDGE('',*,*,#538,.T.);
#277=ORIENTED_EDGE('',*,*,#536,.T.);
#278=ORIENTED_EDGE('',*,*,#505,.T.);
#279=ORIENTED_EDGE('',*,*,#528,.F.);
#280=ORIENTED_EDGE('',*,*,#539,.F.);
#281=ORIENTED_EDGE('',*,*,#533,.F.);
#282=ORIENTED_EDGE('',*,*,#525,.F.);
#283=ORIENTED_EDGE('',*,*,#503,.F.);
#284=ORIENTED_EDGE('',*,*,#517,.T.);
#285=ORIENTED_EDGE('',*,*,#540,.T.);
#286=ORIENTED_EDGE('',*,*,#541,.T.);
#287=ORIENTED_EDGE('',*,*,#542,.T.);
#288=ORIENTED_EDGE('',*,*,#543,.T.);
#289=ORIENTED_EDGE('',*,*,#544,.T.);
#290=ORIENTED_EDGE('',*,*,#519,.T.);
#291=ORIENTED_EDGE('',*,*,#545,.T.);
#292=ORIENTED_EDGE('',*,*,#546,.T.);
#293=ORIENTED_EDGE('',*,*,#547,.T.);
#294=ORIENTED_EDGE('',*,*,#521,.T.);
#295=ORIENTED_EDGE('',*,*,#548,.T.);
#296=ORIENTED_EDGE('',*,*,#549,.T.);
#297=ORIENTED_EDGE('',*,*,#550,.T.);
#298=ORIENTED_EDGE('',*,*,#551,.T.);
#299=ORIENTED_EDGE('',*,*,#552,.T.);
#300=ORIENTED_EDGE('',*,*,#553,.T.);
#301=ORIENTED_EDGE('',*,*,#554,.T.);
#302=ORIENTED_EDGE('',*,*,#555,.T.);
#303=ORIENTED_EDGE('',*,*,#556,.T.);
#304=ORIENTED_EDGE('',*,*,#557,.T.);
#305=ORIENTED_EDGE('',*,*,#558,.F.);
#306=ORIENTED_EDGE('',*,*,#559,.T.);
#307=ORIENTED_EDGE('',*,*,#546,.F.);
#308=ORIENTED_EDGE('',*,*,#560,.T.);
#309=ORIENTED_EDGE('',*,*,#543,.F.);
#310=ORIENTED_EDGE('',*,*,#561,.T.);
#311=ORIENTED_EDGE('',*,*,#541,.F.);
#312=ORIENTED_EDGE('',*,*,#562,.T.);
#313=ORIENTED_EDGE('',*,*,#523,.T.);
#314=ORIENTED_EDGE('',*,*,#563,.T.);
#315=ORIENTED_EDGE('',*,*,#558,.T.);
#316=ORIENTED_EDGE('',*,*,#564,.T.);
#317=ORIENTED_EDGE('',*,*,#522,.F.);
#318=ORIENTED_EDGE('',*,*,#547,.F.);
#319=ORIENTED_EDGE('',*,*,#559,.F.);
#320=ORIENTED_EDGE('',*,*,#563,.F.);
#321=ORIENTED_EDGE('',*,*,#520,.F.);
#322=ORIENTED_EDGE('',*,*,#544,.F.);
#323=ORIENTED_EDGE('',*,*,#560,.F.);
#324=ORIENTED_EDGE('',*,*,#548,.F.);
#325=ORIENTED_EDGE('',*,*,#524,.F.);
#326=ORIENTED_EDGE('',*,*,#564,.F.);
#327=ORIENTED_EDGE('',*,*,#562,.F.);
#328=ORIENTED_EDGE('',*,*,#540,.F.);
#329=ORIENTED_EDGE('',*,*,#518,.F.);
#330=ORIENTED_EDGE('',*,*,#542,.F.);
#331=ORIENTED_EDGE('',*,*,#561,.F.);
#332=ORIENTED_EDGE('',*,*,#545,.F.);
#333=ORIENTED_EDGE('',*,*,#565,.T.);
#334=ORIENTED_EDGE('',*,*,#566,.T.);
#335=ORIENTED_EDGE('',*,*,#554,.F.);
#336=ORIENTED_EDGE('',*,*,#567,.T.);
#337=ORIENTED_EDGE('',*,*,#556,.F.);
#338=ORIENTED_EDGE('',*,*,#568,.T.);
#339=ORIENTED_EDGE('',*,*,#569,.T.);
#340=ORIENTED_EDGE('',*,*,#570,.T.);
#341=ORIENTED_EDGE('',*,*,#550,.F.);
#342=ORIENTED_EDGE('',*,*,#571,.T.);
#343=ORIENTED_EDGE('',*,*,#572,.T.);
#344=ORIENTED_EDGE('',*,*,#573,.T.);
#345=ORIENTED_EDGE('',*,*,#552,.F.);
#346=ORIENTED_EDGE('',*,*,#574,.T.);
#347=ORIENTED_EDGE('',*,*,#575,.T.);
#348=ORIENTED_EDGE('',*,*,#576,.T.);
#349=ORIENTED_EDGE('',*,*,#569,.F.);
#350=ORIENTED_EDGE('',*,*,#577,.T.);
#351=ORIENTED_EDGE('',*,*,#565,.F.);
#352=ORIENTED_EDGE('',*,*,#578,.T.);
#353=ORIENTED_EDGE('',*,*,#575,.F.);
#354=ORIENTED_EDGE('',*,*,#579,.T.);
#355=ORIENTED_EDGE('',*,*,#572,.F.);
#356=ORIENTED_EDGE('',*,*,#580,.T.);
#357=ORIENTED_EDGE('',*,*,#555,.F.);
#358=ORIENTED_EDGE('',*,*,#566,.F.);
#359=ORIENTED_EDGE('',*,*,#577,.F.);
#360=ORIENTED_EDGE('',*,*,#568,.F.);
#361=ORIENTED_EDGE('',*,*,#557,.F.);
#362=ORIENTED_EDGE('',*,*,#570,.F.);
#363=ORIENTED_EDGE('',*,*,#580,.F.);
#364=ORIENTED_EDGE('',*,*,#571,.F.);
#365=ORIENTED_EDGE('',*,*,#551,.F.);
#366=ORIENTED_EDGE('',*,*,#573,.F.);
#367=ORIENTED_EDGE('',*,*,#579,.F.);
#368=ORIENTED_EDGE('',*,*,#574,.F.);
#369=ORIENTED_EDGE('',*,*,#553,.F.);
#370=ORIENTED_EDGE('',*,*,#576,.F.);
#371=ORIENTED_EDGE('',*,*,#578,.F.);
#372=ORIENTED_EDGE('',*,*,#567,.F.);
#373=ORIENTED_EDGE('',*,*,#581,.T.);
#374=ORIENTED_EDGE('',*,*,#582,.T.);
#375=ORIENTED_EDGE('',*,*,#509,.T.);
#376=ORIENTED_EDGE('',*,*,#583,.T.);
#377=ORIENTED_EDGE('',*,*,#584,.T.);
#378=ORIENTED_EDGE('',*,*,#585,.T.);
#379=ORIENTED_EDGE('',*,*,#511,.T.);
#380=ORIENTED_EDGE('',*,*,#586,.T.);
#381=ORIENTED_EDGE('',*,*,#513,.T.);
#382=ORIENTED_EDGE('',*,*,#587,.T.);
#383=ORIENTED_EDGE('',*,*,#588,.T.);
#384=ORIENTED_EDGE('',*,*,#589,.T.);
#385=ORIENTED_EDGE('',*,*,#588,.F.);
#386=ORIENTED_EDGE('',*,*,#590,.T.);
#387=ORIENTED_EDGE('',*,*,#584,.F.);
#388=ORIENTED_EDGE('',*,*,#591,.T.);
#389=ORIENTED_EDGE('',*,*,#581,.F.);
#390=ORIENTED_EDGE('',*,*,#592,.T.);
#391=ORIENTED_EDGE('',*,*,#593,.F.);
#392=ORIENTED_EDGE('',*,*,#594,.T.);
#393=ORIENTED_EDGE('',*,*,#515,.T.);
#394=ORIENTED_EDGE('',*,*,#595,.T.);
#395=ORIENTED_EDGE('',*,*,#593,.T.);
#396=ORIENTED_EDGE('',*,*,#596,.T.);
#397=ORIENTED_EDGE('',*,*,#512,.F.);
#398=ORIENTED_EDGE('',*,*,#585,.F.);
#399=ORIENTED_EDGE('',*,*,#590,.F.);
#400=ORIENTED_EDGE('',*,*,#587,.F.);
#401=ORIENTED_EDGE('',*,*,#510,.F.);
#402=ORIENTED_EDGE('',*,*,#582,.F.);
#403=ORIENTED_EDGE('',*,*,#591,.F.);
#404=ORIENTED_EDGE('',*,*,#586,.F.);
#405=ORIENTED_EDGE('',*,*,#514,.F.);
#406=ORIENTED_EDGE('',*,*,#589,.F.);
#407=ORIENTED_EDGE('',*,*,#594,.F.);
#408=ORIENTED_EDGE('',*,*,#595,.F.);
#409=ORIENTED_EDGE('',*,*,#516,.F.);
#410=ORIENTED_EDGE('',*,*,#596,.F.);
#411=ORIENTED_EDGE('',*,*,#592,.F.);
#412=ORIENTED_EDGE('',*,*,#583,.F.);
#413=ORIENTED_EDGE('',*,*,#502,.T.);
#414=ORIENTED_EDGE('',*,*,#597,.T.);
#415=ORIENTED_EDGE('',*,*,#598,.T.);
#416=ORIENTED_EDGE('',*,*,#529,.T.);
#417=ORIENTED_EDGE('',*,*,#539,.T.);
#418=ORIENTED_EDGE('',*,*,#598,.F.);
#419=ORIENTED_EDGE('',*,*,#599,.T.);
#420=ORIENTED_EDGE('',*,*,#600,.F.);
#421=ORIENTED_EDGE('',*,*,#534,.T.);
#422=ORIENTED_EDGE('',*,*,#530,.T.);
#423=ORIENTED_EDGE('',*,*,#600,.T.);
#424=ORIENTED_EDGE('',*,*,#601,.T.);
#425=ORIENTED_EDGE('',*,*,#507,.T.);
#426=ORIENTED_EDGE('',*,*,#535,.F.);
#427=ORIENTED_EDGE('',*,*,#508,.F.);
#428=ORIENTED_EDGE('',*,*,#601,.F.);
#429=ORIENTED_EDGE('',*,*,#599,.F.);
#430=ORIENTED_EDGE('',*,*,#597,.F.);
#431=ORIENTED_EDGE('',*,*,#602,.T.);
#432=ORIENTED_EDGE('',*,*,#549,.F.);
#433=ORIENTED_EDGE('',*,*,#602,.F.);
#434=VERTEX_POINT('',#1031);
#435=VERTEX_POINT('',#1032);
#436=VERTEX_POINT('',#1034);
#437=VERTEX_POINT('',#1036);
#438=VERTEX_POINT('',#1038);
#439=VERTEX_POINT('',#1040);
#440=VERTEX_POINT('',#1042);
#441=VERTEX_POINT('',#1045);
#442=VERTEX_POINT('',#1046);
#443=VERTEX_POINT('',#1048);
#444=VERTEX_POINT('',#1050);
#445=VERTEX_POINT('',#1052);
#446=VERTEX_POINT('',#1054);
#447=VERTEX_POINT('',#1056);
#448=VERTEX_POINT('',#1058);
#449=VERTEX_POINT('',#1061);
#450=VERTEX_POINT('',#1062);
#451=VERTEX_POINT('',#1064);
#452=VERTEX_POINT('',#1066);
#453=VERTEX_POINT('',#1068);
#454=VERTEX_POINT('',#1070);
#455=VERTEX_POINT('',#1072);
#456=VERTEX_POINT('',#1074);
#457=VERTEX_POINT('',#1078);
#458=VERTEX_POINT('',#1080);
#459=VERTEX_POINT('',#1082);
#460=VERTEX_POINT('',#1086);
#461=VERTEX_POINT('',#1087);
#462=VERTEX_POINT('',#1089);
#463=VERTEX_POINT('',#1091);
#464=VERTEX_POINT('',#1096);
#465=VERTEX_POINT('',#1099);
#466=VERTEX_POINT('',#1108);
#467=VERTEX_POINT('',#1110);
#468=VERTEX_POINT('',#1114);
#469=VERTEX_POINT('',#1115);
#470=VERTEX_POINT('',#1120);
#471=VERTEX_POINT('',#1121);
#472=VERTEX_POINT('',#1126);
#473=VERTEX_POINT('',#1128);
#474=VERTEX_POINT('',#1129);
#475=VERTEX_POINT('',#1131);
#476=VERTEX_POINT('',#1133);
#477=VERTEX_POINT('',#1135);
#478=VERTEX_POINT('',#1137);
#479=VERTEX_POINT('',#1139);
#480=VERTEX_POINT('',#1141);
#481=VERTEX_POINT('',#1144);
#482=VERTEX_POINT('',#1145);
#483=VERTEX_POINT('',#1159);
#484=VERTEX_POINT('',#1160);
#485=VERTEX_POINT('',#1165);
#486=VERTEX_POINT('',#1167);
#487=VERTEX_POINT('',#1171);
#488=VERTEX_POINT('',#1173);
#489=VERTEX_POINT('',#1177);
#490=VERTEX_POINT('',#1179);
#491=VERTEX_POINT('',#1192);
#492=VERTEX_POINT('',#1193);
#493=VERTEX_POINT('',#1198);
#494=VERTEX_POINT('',#1199);
#495=VERTEX_POINT('',#1204);
#496=VERTEX_POINT('',#1206);
#497=VERTEX_POINT('',#1212);
#498=VERTEX_POINT('',#1214);
#499=VERTEX_POINT('',#1225);
#500=VERTEX_POINT('',#1229);
#501=VERTEX_POINT('',#1236);
#502=EDGE_CURVE('',#434,#435,#603,.T.);
#503=EDGE_CURVE('',#434,#436,#604,.T.);
#504=EDGE_CURVE('',#437,#436,#605,.T.);
#505=EDGE_CURVE('',#438,#437,#606,.T.);
#506=EDGE_CURVE('',#439,#438,#607,.T.);
#507=EDGE_CURVE('',#440,#439,#608,.T.);
#508=EDGE_CURVE('',#440,#435,#204,.T.);
#509=EDGE_CURVE('',#441,#442,#609,.T.);
#510=EDGE_CURVE('',#441,#443,#205,.T.);
#511=EDGE_CURVE('',#444,#443,#610,.T.);
#512=EDGE_CURVE('',#444,#445,#206,.T.);
#513=EDGE_CURVE('',#446,#445,#611,.T.);
#514=EDGE_CURVE('',#446,#447,#207,.T.);
#515=EDGE_CURVE('',#448,#447,#612,.T.);
#516=EDGE_CURVE('',#448,#442,#208,.T.);
#517=EDGE_CURVE('',#449,#450,#613,.T.);
#518=EDGE_CURVE('',#449,#451,#209,.T.);
#519=EDGE_CURVE('',#452,#451,#614,.T.);
#520=EDGE_CURVE('',#452,#453,#210,.T.);
#521=EDGE_CURVE('',#454,#453,#615,.T.);
#522=EDGE_CURVE('',#454,#455,#211,.T.);
#523=EDGE_CURVE('',#456,#455,#616,.T.);
#524=EDGE_CURVE('',#456,#450,#212,.T.);
#525=EDGE_CURVE('',#436,#457,#617,.T.);
#526=EDGE_CURVE('',#458,#457,#618,.T.);
#527=EDGE_CURVE('',#458,#459,#619,.T.);
#528=EDGE_CURVE('',#459,#437,#620,.T.);
#529=EDGE_CURVE('',#460,#461,#621,.T.);
#530=EDGE_CURVE('',#462,#460,#622,.T.);
#531=EDGE_CURVE('',#463,#462,#623,.T.);
#532=EDGE_CURVE('',#463,#458,#624,.T.);
#533=EDGE_CURVE('',#457,#461,#625,.T.);
#534=EDGE_CURVE('',#464,#462,#626,.T.);
#535=EDGE_CURVE('',#464,#439,#627,.T.);
#536=EDGE_CURVE('',#465,#438,#628,.T.);
#537=EDGE_CURVE('',#465,#463,#629,.T.);
#538=EDGE_CURVE('',#459,#465,#630,.T.);
#539=EDGE_CURVE('',#461,#434,#631,.T.);
#540=EDGE_CURVE('',#450,#466,#632,.T.);
#541=EDGE_CURVE('',#466,#467,#633,.T.);
#542=EDGE_CURVE('',#467,#449,#634,.T.);
#543=EDGE_CURVE('',#468,#469,#635,.T.);
#544=EDGE_CURVE('',#469,#452,#636,.T.);
#545=EDGE_CURVE('',#451,#468,#637,.T.);
#546=EDGE_CURVE('',#470,#471,#638,.T.);
#547=EDGE_CURVE('',#471,#454,#639,.T.);
#548=EDGE_CURVE('',#453,#470,#640,.T.);
#549=EDGE_CURVE('',#472,#472,#213,.T.);
#550=EDGE_CURVE('',#473,#474,#641,.T.);
#551=EDGE_CURVE('',#474,#475,#214,.T.);
#552=EDGE_CURVE('',#475,#476,#642,.T.);
#553=EDGE_CURVE('',#476,#477,#215,.T.);
#554=EDGE_CURVE('',#477,#478,#643,.T.);
#555=EDGE_CURVE('',#478,#479,#216,.T.);
#556=EDGE_CURVE('',#479,#480,#644,.T.);
#557=EDGE_CURVE('',#480,#473,#217,.T.);
#558=EDGE_CURVE('',#481,#482,#645,.T.);
#559=EDGE_CURVE('',#481,#471,#218,.T.);
#560=EDGE_CURVE('',#470,#469,#219,.T.);
#561=EDGE_CURVE('',#468,#467,#220,.T.);
#562=EDGE_CURVE('',#466,#482,#221,.T.);
#563=EDGE_CURVE('',#455,#481,#646,.T.);
#564=EDGE_CURVE('',#482,#456,#647,.T.);
#565=EDGE_CURVE('',#483,#484,#648,.T.);
#566=EDGE_CURVE('',#484,#478,#649,.T.);
#567=EDGE_CURVE('',#477,#483,#650,.T.);
#568=EDGE_CURVE('',#479,#485,#651,.T.);
#569=EDGE_CURVE('',#485,#486,#652,.T.);
#570=EDGE_CURVE('',#486,#480,#653,.T.);
#571=EDGE_CURVE('',#473,#487,#654,.T.);
#572=EDGE_CURVE('',#487,#488,#655,.T.);
#573=EDGE_CURVE('',#488,#474,#656,.T.);
#574=EDGE_CURVE('',#475,#489,#657,.T.);
#575=EDGE_CURVE('',#489,#490,#658,.T.);
#576=EDGE_CURVE('',#490,#476,#659,.T.);
#577=EDGE_CURVE('',#485,#484,#222,.T.);
#578=EDGE_CURVE('',#483,#490,#223,.T.);
#579=EDGE_CURVE('',#489,#488,#224,.T.);
#580=EDGE_CURVE('',#487,#486,#225,.T.);
#581=EDGE_CURVE('',#491,#492,#660,.T.);
#582=EDGE_CURVE('',#492,#441,#661,.T.);
#583=EDGE_CURVE('',#442,#491,#662,.T.);
#584=EDGE_CURVE('',#493,#494,#663,.T.);
#585=EDGE_CURVE('',#494,#444,#664,.T.);
#586=EDGE_CURVE('',#443,#493,#665,.T.);
#587=EDGE_CURVE('',#445,#495,#666,.T.);
#588=EDGE_CURVE('',#495,#496,#667,.T.);
#589=EDGE_CURVE('',#496,#446,#668,.T.);
#590=EDGE_CURVE('',#495,#494,#226,.T.);
#591=EDGE_CURVE('',#493,#492,#227,.T.);
#592=EDGE_CURVE('',#491,#497,#228,.T.);
#593=EDGE_CURVE('',#498,#497,#669,.T.);
#594=EDGE_CURVE('',#498,#496,#229,.T.);
#595=EDGE_CURVE('',#447,#498,#670,.T.);
#596=EDGE_CURVE('',#497,#448,#671,.T.);
#597=EDGE_CURVE('',#435,#499,#672,.T.);
#598=EDGE_CURVE('',#499,#460,#673,.T.);
#599=EDGE_CURVE('',#499,#500,#230,.T.);
#600=EDGE_CURVE('',#464,#500,#674,.T.);
#601=EDGE_CURVE('',#500,#440,#675,.T.);
#602=EDGE_CURVE('',#501,#501,#231,.T.);
#603=LINE('',#1030,#676);
#604=LINE('',#1033,#677);
#605=LINE('',#1035,#678);
#606=LINE('',#1037,#679);
#607=LINE('',#1039,#680);
#608=LINE('',#1041,#681);
#609=LINE('',#1044,#682);
#610=LINE('',#1049,#683);
#611=LINE('',#1053,#684);
#612=LINE('',#1057,#685);
#613=LINE('',#1060,#686);
#614=LINE('',#1065,#687);
#615=LINE('',#1069,#688);
#616=LINE('',#1073,#689);
#617=LINE('',#1077,#690);
#618=LINE('',#1079,#691);
#619=LINE('',#1081,#692);
#620=LINE('',#1083,#693);
#621=LINE('',#1085,#694);
#622=LINE('',#1088,#695);
#623=LINE('',#1090,#696);
#624=LINE('',#1092,#697);
#625=LINE('',#1093,#698);
#626=LINE('',#1095,#699);
#627=LINE('',#1097,#700);
#628=LINE('',#1098,#701);
#629=LINE('',#1100,#702);
#630=LINE('',#1102,#703);
#631=LINE('',#1105,#704);
#632=LINE('',#1107,#705);
#633=LINE('',#1109,#706);
#634=LINE('',#1111,#707);
#635=LINE('',#1113,#708);
#636=LINE('',#1116,#709);
#637=LINE('',#1117,#710);
#638=LINE('',#1119,#711);
#639=LINE('',#1122,#712);
#640=LINE('',#1123,#713);
#641=LINE('',#1127,#714);
#642=LINE('',#1132,#715);
#643=LINE('',#1136,#716);
#644=LINE('',#1140,#717);
#645=LINE('',#1143,#718);
#646=LINE('',#1151,#719);
#647=LINE('',#1152,#720);
#648=LINE('',#1158,#721);
#649=LINE('',#1161,#722);
#650=LINE('',#1162,#723);
#651=LINE('',#1164,#724);
#652=LINE('',#1166,#725);
#653=LINE('',#1168,#726);
#654=LINE('',#1170,#727);
#655=LINE('',#1172,#728);
#656=LINE('',#1174,#729);
#657=LINE('',#1176,#730);
#658=LINE('',#1178,#731);
#659=LINE('',#1180,#732);
#660=LINE('',#1191,#733);
#661=LINE('',#1194,#734);
#662=LINE('',#1195,#735);
#663=LINE('',#1197,#736);
#664=LINE('',#1200,#737);
#665=LINE('',#1201,#738);
#666=LINE('',#1203,#739);
#667=LINE('',#1205,#740);
#668=LINE('',#1207,#741);
#669=LINE('',#1213,#742);
#670=LINE('',#1217,#743);
#671=LINE('',#1218,#744);
#672=LINE('',#1224,#745);
#673=LINE('',#1226,#746);
#674=LINE('',#1230,#747);
#675=LINE('',#1232,#748);
#676=VECTOR('',#820,1.);
#677=VECTOR('',#821,1.);
#678=VECTOR('',#822,1.);
#679=VECTOR('',#823,1.);
#680=VECTOR('',#824,1.);
#681=VECTOR('',#825,1.);
#682=VECTOR('',#828,1.);
#683=VECTOR('',#831,1.);
#684=VECTOR('',#834,1.);
#685=VECTOR('',#837,1.);
#686=VECTOR('',#840,1.);
#687=VECTOR('',#843,1.);
#688=VECTOR('',#846,1.);
#689=VECTOR('',#849,1.);
#690=VECTOR('',#854,1.);
#691=VECTOR('',#855,1.);
#692=VECTOR('',#856,1.);
#693=VECTOR('',#857,1.);
#694=VECTOR('',#860,1.);
#695=VECTOR('',#861,1.);
#696=VECTOR('',#862,1.);
#697=VECTOR('',#863,1.);
#698=VECTOR('',#864,1.);
#699=VECTOR('',#867,1.);
#700=VECTOR('',#868,1.);
#701=VECTOR('',#869,1.);
#702=VECTOR('',#870,1.);
#703=VECTOR('',#873,1.);
#704=VECTOR('',#878,1.);
#705=VECTOR('',#881,1.);
#706=VECTOR('',#882,1.);
#707=VECTOR('',#883,1.);
#708=VECTOR('',#886,1.);
#709=VECTOR('',#887,1.);
#710=VECTOR('',#888,1.);
#711=VECTOR('',#891,1.);
#712=VECTOR('',#892,1.);
#713=VECTOR('',#893,1.);
#714=VECTOR('',#898,1.);
#715=VECTOR('',#901,1.);
#716=VECTOR('',#904,1.);
#717=VECTOR('',#907,1.);
#718=VECTOR('',#910,1.);
#719=VECTOR('',#921,1.);
#720=VECTOR('',#922,1.);
#721=VECTOR('',#933,1.);
#722=VECTOR('',#934,1.);
#723=VECTOR('',#935,1.);
#724=VECTOR('',#938,1.);
#725=VECTOR('',#939,1.);
#726=VECTOR('',#940,1.);
#727=VECTOR('',#943,1.);
#728=VECTOR('',#944,1.);
#729=VECTOR('',#945,1.);
#730=VECTOR('',#948,1.);
#731=VECTOR('',#949,1.);
#732=VECTOR('',#950,1.);
#733=VECTOR('',#971,1.);
#734=VECTOR('',#972,1.);
#735=VECTOR('',#973,1.);
#736=VECTOR('',#976,1.);
#737=VECTOR('',#977,1.);
#738=VECTOR('',#978,1.);
#739=VECTOR('',#981,1.);
#740=VECTOR('',#982,1.);
#741=VECTOR('',#983,1.);
#742=VECTOR('',#992,1.);
#743=VECTOR('',#997,1.);
#744=VECTOR('',#998,1.);
#745=VECTOR('',#1009,1.);
#746=VECTOR('',#1010,1.);
#747=VECTOR('',#1015,1.);
#748=VECTOR('',#1018,1.);
#749=AXIS2_PLACEMENT_3D('',#1029,#818,#819);
#750=AXIS2_PLACEMENT_3D('',#1043,#826,#827);
#751=AXIS2_PLACEMENT_3D('',#1047,#829,#830);
#752=AXIS2_PLACEMENT_3D('',#1051,#832,#833);
#753=AXIS2_PLACEMENT_3D('',#1055,#835,#836);
#754=AXIS2_PLACEMENT_3D('',#1059,#838,#839);
#755=AXIS2_PLACEMENT_3D('',#1063,#841,#842);
#756=AXIS2_PLACEMENT_3D('',#1067,#844,#845);
#757=AXIS2_PLACEMENT_3D('',#1071,#847,#848);
#758=AXIS2_PLACEMENT_3D('',#1075,#850,#851);
#759=AXIS2_PLACEMENT_3D('',#1076,#852,#853);
#760=AXIS2_PLACEMENT_3D('',#1084,#858,#859);
#761=AXIS2_PLACEMENT_3D('',#1094,#865,#866);
#762=AXIS2_PLACEMENT_3D('',#1101,#871,#872);
#763=AXIS2_PLACEMENT_3D('',#1103,#874,#875);
#764=AXIS2_PLACEMENT_3D('',#1104,#876,#877);
#765=AXIS2_PLACEMENT_3D('',#1106,#879,#880);
#766=AXIS2_PLACEMENT_3D('',#1112,#884,#885);
#767=AXIS2_PLACEMENT_3D('',#1118,#889,#890);
#768=AXIS2_PLACEMENT_3D('',#1124,#894,#895);
#769=AXIS2_PLACEMENT_3D('',#1125,#896,#897);
#770=AXIS2_PLACEMENT_3D('',#1130,#899,#900);
#771=AXIS2_PLACEMENT_3D('',#1134,#902,#903);
#772=AXIS2_PLACEMENT_3D('',#1138,#905,#906);
#773=AXIS2_PLACEMENT_3D('',#1142,#908,#909);
#774=AXIS2_PLACEMENT_3D('',#1146,#911,#912);
#775=AXIS2_PLACEMENT_3D('',#1147,#913,#914);
#776=AXIS2_PLACEMENT_3D('',#1148,#915,#916);
#777=AXIS2_PLACEMENT_3D('',#1149,#917,#918);
#778=AXIS2_PLACEMENT_3D('',#1150,#919,#920);
#779=AXIS2_PLACEMENT_3D('',#1153,#923,#924);
#780=AXIS2_PLACEMENT_3D('',#1154,#925,#926);
#781=AXIS2_PLACEMENT_3D('',#1155,#927,#928);
#782=AXIS2_PLACEMENT_3D('',#1156,#929,#930);
#783=AXIS2_PLACEMENT_3D('',#1157,#931,#932);
#784=AXIS2_PLACEMENT_3D('',#1163,#936,#937);
#785=AXIS2_PLACEMENT_3D('',#1169,#941,#942);
#786=AXIS2_PLACEMENT_3D('',#1175,#946,#947);
#787=AXIS2_PLACEMENT_3D('',#1181,#951,#952);
#788=AXIS2_PLACEMENT_3D('',#1182,#953,#954);
#789=AXIS2_PLACEMENT_3D('',#1183,#955,#956);
#790=AXIS2_PLACEMENT_3D('',#1184,#957,#958);
#791=AXIS2_PLACEMENT_3D('',#1185,#959,#960);
#792=AXIS2_PLACEMENT_3D('',#1186,#961,#962);
#793=AXIS2_PLACEMENT_3D('',#1187,#963,#964);
#794=AXIS2_PLACEMENT_3D('',#1188,#965,#966);
#795=AXIS2_PLACEMENT_3D('',#1189,#967,#968);
#796=AXIS2_PLACEMENT_3D('',#1190,#969,#970);
#797=AXIS2_PLACEMENT_3D('',#1196,#974,#975);
#798=AXIS2_PLACEMENT_3D('',#1202,#979,#980);
#799=AXIS2_PLACEMENT_3D('',#1208,#984,#985);
#800=AXIS2_PLACEMENT_3D('',#1209,#986,#987);
#801=AXIS2_PLACEMENT_3D('',#1210,#988,#989);
#802=AXIS2_PLACEMENT_3D('',#1211,#990,#991);
#803=AXIS2_PLACEMENT_3D('',#1215,#993,#994);
#804=AXIS2_PLACEMENT_3D('',#1216,#995,#996);
#805=AXIS2_PLACEMENT_3D('',#1219,#999,#1000);
#806=AXIS2_PLACEMENT_3D('',#1220,#1001,#1002);
#807=AXIS2_PLACEMENT_3D('',#1221,#1003,#1004);
#808=AXIS2_PLACEMENT_3D('',#1222,#1005,#1006);
#809=AXIS2_PLACEMENT_3D('',#1223,#1007,#1008);
#810=AXIS2_PLACEMENT_3D('',#1227,#1011,#1012);
#811=AXIS2_PLACEMENT_3D('',#1228,#1013,#1014);
#812=AXIS2_PLACEMENT_3D('',#1231,#1016,#1017);
#813=AXIS2_PLACEMENT_3D('',#1233,#1019,#1020);
#814=AXIS2_PLACEMENT_3D('',#1234,#1021,#1022);
#815=AXIS2_PLACEMENT_3D('',#1235,#1023,#1024);
#816=AXIS2_PLACEMENT_3D('',#1237,#1025,#1026);
#817=AXIS2_PLACEMENT_3D('',#1238,#1027,#1028);
#818=DIRECTION('',(0.,0.,1.));
#819=DIRECTION('',(1.,0.,0.));
#820=DIRECTION('',(1.,0.,0.));
#821=DIRECTION('',(0.,-1.,0.));
#822=DIRECTION('',(-1.,0.,0.));
#823=DIRECTION('',(0.,-1.,0.));
#824=DIRECTION('',(1.,0.,0.));
#825=DIRECTION('',(0.,1.,0.));
#826=DIRECTION('',(0.,0.,-1.));
#827=DIRECTION('',(1.,0.,0.));
#828=DIRECTION('',(1.,0.,0.));
#829=DIRECTION('',(0.,0.,-1.));
#830=DIRECTION('',(1.,0.,0.));
#831=DIRECTION('',(0.,-1.,0.));
#832=DIRECTION('',(0.,0.,-1.));
#833=DIRECTION('',(1.,0.,0.));
#834=DIRECTION('',(-1.,0.,0.));
#835=DIRECTION('',(0.,0.,-1.));
#836=DIRECTION('',(1.,0.,0.));
#837=DIRECTION('',(0.,1.,0.));
#838=DIRECTION('',(0.,0.,-1.));
#839=DIRECTION('',(1.,0.,0.));
#840=DIRECTION('',(1.,0.,0.));
#841=DIRECTION('',(0.,0.,-1.));
#842=DIRECTION('',(1.,0.,0.));
#843=DIRECTION('',(0.,-1.,0.));
#844=DIRECTION('',(0.,0.,-1.));
#845=DIRECTION('',(1.,0.,0.));
#846=DIRECTION('',(-1.,0.,0.));
#847=DIRECTION('',(0.,0.,-1.));
#848=DIRECTION('',(0.999999999999997,0.,0.));
#849=DIRECTION('',(0.,1.,0.));
#850=DIRECTION('',(0.,0.,-1.));
#851=DIRECTION('',(0.999999999999997,0.,0.));
#852=DIRECTION('',(0.,0.,1.));
#853=DIRECTION('',(1.,0.,0.));
#854=DIRECTION('',(-0.707106781186547,0.,-0.707106781186548));
#855=DIRECTION('',(0.,0.,1.));
#856=DIRECTION('',(1.,0.,0.));
#857=DIRECTION('',(0.,0.,1.));
#858=DIRECTION('',(0.,-1.,0.));
#859=DIRECTION('',(0.,0.,-1.));
#860=DIRECTION('',(0.,0.,1.));
#861=DIRECTION('',(0.,-1.,0.));
#862=DIRECTION('',(0.,0.,1.));
#863=DIRECTION('',(0.,-1.,0.));
#864=DIRECTION('',(0.,1.,0.));
#865=DIRECTION('',(-1.,0.,0.));
#866=DIRECTION('',(0.,0.,1.));
#867=DIRECTION('',(-1.,0.,0.));
#868=DIRECTION('',(0.,0.,1.));
#869=DIRECTION('',(0.,0.,1.));
#870=DIRECTION('',(-1.,0.,0.));
#871=DIRECTION('',(0.,1.,0.));
#872=DIRECTION('',(0.,0.,1.));
#873=DIRECTION('',(0.,1.,0.));
#874=DIRECTION('',(0.,0.,-1.));
#875=DIRECTION('',(-1.,0.,0.));
#876=DIRECTION('',(1.,0.,0.));
#877=DIRECTION('',(0.,0.,-1.));
#878=DIRECTION('',(0.707106781186547,0.,0.707106781186548));
#879=DIRECTION('',(0.707106781186548,0.,-0.707106781186547));
#880=DIRECTION('',(0.,1.,0.));
#881=DIRECTION('',(0.,0.,-1.));
#882=DIRECTION('',(-1.,0.,0.));
#883=DIRECTION('',(0.,0.,1.));
#884=DIRECTION('',(0.,-1.,0.));
#885=DIRECTION('',(0.,0.,-1.));
#886=DIRECTION('',(0.,1.,0.));
#887=DIRECTION('',(0.,0.,1.));
#888=DIRECTION('',(0.,0.,-1.));
#889=DIRECTION('',(-1.,0.,0.));
#890=DIRECTION('',(0.,0.,1.));
#891=DIRECTION('',(1.,0.,0.));
#892=DIRECTION('',(0.,0.,1.));
#893=DIRECTION('',(0.,0.,-1.));
#894=DIRECTION('',(0.,1.,0.));
#895=DIRECTION('',(0.,0.,1.));
#896=DIRECTION('',(0.,0.,-1.));
#897=DIRECTION('',(-1.,0.,0.));
#898=DIRECTION('',(1.,0.,0.));
#899=DIRECTION('',(0.,0.,-1.));
#900=DIRECTION('',(-1.,0.,0.));
#901=DIRECTION('',(0.,-1.,0.));
#902=DIRECTION('',(0.,0.,-1.));
#903=DIRECTION('',(-1.,0.,0.));
#904=DIRECTION('',(-1.,0.,0.));
#905=DIRECTION('',(0.,0.,-1.));
#906=DIRECTION('',(-1.,0.,0.));
#907=DIRECTION('',(0.,1.,0.));
#908=DIRECTION('',(0.,0.,-1.));
#909=DIRECTION('',(-1.,0.,0.));
#910=DIRECTION('',(0.,-1.,0.));
#911=DIRECTION('',(0.,0.,1.));
#912=DIRECTION('',(-1.,0.,0.));
#913=DIRECTION('',(0.,0.,1.));
#914=DIRECTION('',(-1.,0.,0.));
#915=DIRECTION('',(0.,0.,1.));
#916=DIRECTION('',(-1.,0.,0.));
#917=DIRECTION('',(0.,0.,1.));
#918=DIRECTION('',(-1.,0.,0.));
#919=DIRECTION('',(0.,0.,-1.));
#920=DIRECTION('',(-1.,0.,0.));
#921=DIRECTION('',(0.,0.,-1.));
#922=DIRECTION('',(0.,0.,1.));
#923=DIRECTION('',(1.,0.,0.));
#924=DIRECTION('',(0.,0.,-1.));
#925=DIRECTION('',(0.,0.,1.));
#926=DIRECTION('',(0.999999999999997,0.,0.));
#927=DIRECTION('',(0.,0.,1.));
#928=DIRECTION('',(1.,0.,0.));
#929=DIRECTION('',(0.,0.,1.));
#930=DIRECTION('',(0.999999999999997,0.,0.));
#931=DIRECTION('',(0.,0.,1.));
#932=DIRECTION('',(1.,0.,0.));
#933=DIRECTION('',(-1.,0.,0.));
#934=DIRECTION('',(0.,0.,1.));
#935=DIRECTION('',(0.,0.,-1.));
#936=DIRECTION('',(0.,-1.,0.));
#937=DIRECTION('',(0.,0.,-1.));
#938=DIRECTION('',(0.,0.,-1.));
#939=DIRECTION('',(0.,1.,0.));
#940=DIRECTION('',(0.,0.,1.));
#941=DIRECTION('',(-1.,0.,0.));
#942=DIRECTION('',(0.,0.,1.));
#943=DIRECTION('',(0.,0.,-1.));
#944=DIRECTION('',(1.,0.,0.));
#945=DIRECTION('',(0.,0.,1.));
#946=DIRECTION('',(0.,1.,0.));
#947=DIRECTION('',(0.,0.,1.));
#948=DIRECTION('',(0.,0.,-1.));
#949=DIRECTION('',(0.,-1.,0.));
#950=DIRECTION('',(0.,0.,1.));
#951=DIRECTION('',(1.,0.,0.));
#952=DIRECTION('',(0.,0.,-1.));
#953=DIRECTION('',(0.,0.,1.));
#954=DIRECTION('',(-1.,0.,0.));
#955=DIRECTION('',(0.,0.,1.));
#956=DIRECTION('',(-1.,0.,0.));
#957=DIRECTION('',(0.,0.,1.));
#958=DIRECTION('',(-1.,0.,0.));
#959=DIRECTION('',(0.,0.,1.));
#960=DIRECTION('',(-1.,0.,0.));
#961=DIRECTION('',(0.,0.,-1.));
#962=DIRECTION('',(-1.,0.,0.));
#963=DIRECTION('',(0.,0.,1.));
#964=DIRECTION('',(1.,0.,0.));
#965=DIRECTION('',(0.,0.,1.));
#966=DIRECTION('',(1.,0.,0.));
#967=DIRECTION('',(0.,0.,1.));
#968=DIRECTION('',(1.,0.,0.));
#969=DIRECTION('',(0.,0.,1.));
#970=DIRECTION('',(1.,0.,0.));
#971=DIRECTION('',(-1.,0.,0.));
#972=DIRECTION('',(0.,0.,1.));
#973=DIRECTION('',(0.,0.,-1.));
#974=DIRECTION('',(0.,-1.,0.));
#975=DIRECTION('',(0.,0.,-1.));
#976=DIRECTION('',(0.,1.,0.));
#977=DIRECTION('',(0.,0.,1.));
#978=DIRECTION('',(0.,0.,-1.));
#979=DIRECTION('',(-1.,0.,0.));
#980=DIRECTION('',(0.,0.,1.));
#981=DIRECTION('',(0.,0.,-1.));
#982=DIRECTION('',(1.,0.,0.));
#983=DIRECTION('',(0.,0.,1.));
#984=DIRECTION('',(0.,1.,0.));
#985=DIRECTION('',(0.,0.,1.));
#986=DIRECTION('',(0.,0.,1.));
#987=DIRECTION('',(-1.,0.,0.));
#988=DIRECTION('',(0.,0.,1.));
#989=DIRECTION('',(-1.,0.,0.));
#990=DIRECTION('',(0.,0.,1.));
#991=DIRECTION('',(-1.,0.,0.));
#992=DIRECTION('',(0.,-1.,0.));
#993=DIRECTION('',(0.,0.,1.));
#994=DIRECTION('',(-1.,0.,0.));
#995=DIRECTION('',(0.,0.,-1.));
#996=DIRECTION('',(-1.,0.,0.));
#997=DIRECTION('',(0.,0.,-1.));
#998=DIRECTION('',(0.,0.,1.));
#999=DIRECTION('',(1.,0.,0.));
#1000=DIRECTION('',(0.,0.,-1.));
#1001=DIRECTION('',(0.,0.,1.));
#1002=DIRECTION('',(1.,0.,0.));
#1003=DIRECTION('',(0.,0.,1.));
#1004=DIRECTION('',(1.,0.,0.));
#1005=DIRECTION('',(0.,0.,1.));
#1006=DIRECTION('',(1.,0.,0.));
#1007=DIRECTION('',(0.,0.,1.));
#1008=DIRECTION('',(1.,0.,0.));
#1009=DIRECTION('',(0.,0.,-1.));
#1010=DIRECTION('',(-1.,0.,0.));
#1011=DIRECTION('',(0.,-1.,0.));
#1012=DIRECTION('',(0.,0.,-1.));
#1013=DIRECTION('',(0.,0.,1.));
#1014=DIRECTION('',(-1.,0.,0.));
#1015=DIRECTION('',(0.,-1.,0.));
#1016=DIRECTION('',(0.,0.,-1.));
#1017=DIRECTION('',(-1.,0.,0.));
#1018=DIRECTION('',(0.,0.,1.));
#1019=DIRECTION('',(1.,0.,0.));
#1020=DIRECTION('',(0.,0.,-1.));
#1021=DIRECTION('',(0.,0.,1.));
#1022=DIRECTION('',(1.,0.,0.));
#1023=DIRECTION('',(0.,0.,-1.));
#1024=DIRECTION('',(1.,0.,0.));
#1025=DIRECTION('',(0.,0.,-1.));
#1026=DIRECTION('',(1.,0.,0.));
#1027=DIRECTION('',(0.,0.,-1.));
#1028=DIRECTION('',(-1.,0.,0.));
#1029=CARTESIAN_POINT('',(0.,0.,0.));
#1030=CARTESIAN_POINT('',(154.1,219.7,54.));
#1031=CARTESIAN_POINT('',(5.09999999999999,219.7,54.));
#1032=CARTESIAN_POINT('',(91.,219.7,54.));
#1033=CARTESIAN_POINT('',(5.09999999999999,157.8,54.));
#1034=CARTESIAN_POINT('',(5.09999999999999,0.,54.));
#1035=CARTESIAN_POINT('',(154.1,0.,54.));
#1036=CARTESIAN_POINT('',(308.2,0.,54.));
#1037=CARTESIAN_POINT('',(308.2,157.8,54.));
#1038=CARTESIAN_POINT('',(308.2,315.6,54.));
#1039=CARTESIAN_POINT('',(154.1,315.6,54.));
#1040=CARTESIAN_POINT('',(105.6,315.6,54.));
#1041=CARTESIAN_POINT('',(105.6,157.8,54.));
#1042=CARTESIAN_POINT('',(105.6,234.3,54.));
#1043=CARTESIAN_POINT('',(91.,234.3,54.));
#1044=CARTESIAN_POINT('',(154.1,49.,54.));
#1045=CARTESIAN_POINT('',(73.8,49.,54.));
#1046=CARTESIAN_POINT('',(148.8,49.,54.));
#1047=CARTESIAN_POINT('',(73.8,58.6,54.));
#1048=CARTESIAN_POINT('',(64.2,58.6,54.));
#1049=CARTESIAN_POINT('',(64.2,157.8,54.));
#1050=CARTESIAN_POINT('',(64.2,118.5,54.));
#1051=CARTESIAN_POINT('',(73.8,118.5,54.));
#1052=CARTESIAN_POINT('',(73.8,128.1,54.));
#1053=CARTESIAN_POINT('',(154.1,128.1,54.));
#1054=CARTESIAN_POINT('',(148.8,128.1,54.));
#1055=CARTESIAN_POINT('',(148.8,118.5,54.));
#1056=CARTESIAN_POINT('',(158.4,118.5,54.));
#1057=CARTESIAN_POINT('',(158.4,157.8,54.));
#1058=CARTESIAN_POINT('',(158.4,58.6,54.));
#1059=CARTESIAN_POINT('',(148.8,58.6,54.));
#1060=CARTESIAN_POINT('',(154.1,160.7,54.));
#1061=CARTESIAN_POINT('',(143.3,160.7,54.));
#1062=CARTESIAN_POINT('',(251.7,160.7,54.));
#1063=CARTESIAN_POINT('',(143.3,166.4,54.));
#1064=CARTESIAN_POINT('',(137.6,166.4,54.));
#1065=CARTESIAN_POINT('',(137.6,157.8,54.));
#1066=CARTESIAN_POINT('',(137.6,276.5,54.));
#1067=CARTESIAN_POINT('',(143.3,276.5,54.));
#1068=CARTESIAN_POINT('',(143.3,282.2,54.));
#1069=CARTESIAN_POINT('',(154.1,282.2,54.));
#1070=CARTESIAN_POINT('',(251.7,282.2,54.));
#1071=CARTESIAN_POINT('',(251.7,276.5,54.));
#1072=CARTESIAN_POINT('',(257.4,276.5,54.));
#1073=CARTESIAN_POINT('',(257.4,157.8,54.));
#1074=CARTESIAN_POINT('',(257.4,166.4,54.));
#1075=CARTESIAN_POINT('',(251.7,166.4,54.));
#1076=CARTESIAN_POINT('',(154.1,157.8,54.));
#1077=CARTESIAN_POINT('',(52.5999999999999,0.,101.5));
#1078=CARTESIAN_POINT('',(0.,0.,48.9));
#1079=CARTESIAN_POINT('',(0.,0.,0.));
#1080=CARTESIAN_POINT('',(0.,0.,0.));
#1081=CARTESIAN_POINT('',(154.1,0.,0.));
#1082=CARTESIAN_POINT('',(308.2,0.,0.));
#1083=CARTESIAN_POINT('',(308.2,0.,0.));
#1084=CARTESIAN_POINT('',(154.1,0.,0.));
#1085=CARTESIAN_POINT('',(0.,219.7,25.));
#1086=CARTESIAN_POINT('',(0.,219.7,25.));
#1087=CARTESIAN_POINT('',(0.,219.7,48.9));
#1088=CARTESIAN_POINT('',(0.,267.65,25.));
#1089=CARTESIAN_POINT('',(0.,315.6,25.));
#1090=CARTESIAN_POINT('',(0.,315.6,0.));
#1091=CARTESIAN_POINT('',(0.,315.6,0.));
#1092=CARTESIAN_POINT('',(0.,157.8,0.));
#1093=CARTESIAN_POINT('',(0.,157.8,48.9));
#1094=CARTESIAN_POINT('',(0.,157.8,0.));
#1095=CARTESIAN_POINT('',(52.8,315.6,25.));
#1096=CARTESIAN_POINT('',(105.6,315.6,25.));
#1097=CARTESIAN_POINT('',(105.6,315.6,25.));
#1098=CARTESIAN_POINT('',(308.2,315.6,0.));
#1099=CARTESIAN_POINT('',(308.2,315.6,0.));
#1100=CARTESIAN_POINT('',(154.1,315.6,0.));
#1101=CARTESIAN_POINT('',(154.1,315.6,0.));
#1102=CARTESIAN_POINT('',(308.2,157.8,0.));
#1103=CARTESIAN_POINT('',(154.1,157.8,0.));
#1104=CARTESIAN_POINT('',(308.2,157.8,0.));
#1105=CARTESIAN_POINT('',(0.,219.7,48.9));
#1106=CARTESIAN_POINT('',(0.,157.8,48.9));
#1107=CARTESIAN_POINT('',(251.7,160.7,38.2));
#1108=CARTESIAN_POINT('',(251.7,160.7,38.2));
#1109=CARTESIAN_POINT('',(197.5,160.7,38.2));
#1110=CARTESIAN_POINT('',(143.3,160.7,38.2));
#1111=CARTESIAN_POINT('',(143.3,160.7,54.));
#1112=CARTESIAN_POINT('',(197.5,160.7,38.2));
#1113=CARTESIAN_POINT('',(137.6,221.45,38.2));
#1114=CARTESIAN_POINT('',(137.6,166.4,38.2));
#1115=CARTESIAN_POINT('',(137.6,276.5,38.2));
#1116=CARTESIAN_POINT('',(137.6,276.5,54.));
#1117=CARTESIAN_POINT('',(137.6,166.4,38.2));
#1118=CARTESIAN_POINT('',(137.6,221.45,38.2));
#1119=CARTESIAN_POINT('',(197.5,282.2,38.2));
#1120=CARTESIAN_POINT('',(143.3,282.2,38.2));
#1121=CARTESIAN_POINT('',(251.7,282.2,38.2));
#1122=CARTESIAN_POINT('',(251.7,282.2,54.));
#1123=CARTESIAN_POINT('',(143.3,282.2,38.2));
#1124=CARTESIAN_POINT('',(197.5,282.2,38.2));
#1125=CARTESIAN_POINT('',(233.1,239.3,38.2));
#1126=CARTESIAN_POINT('',(228.55,239.3,38.2));
#1127=CARTESIAN_POINT('',(197.5,236.4,38.2));
#1128=CARTESIAN_POINT('',(166.5,236.4,38.2));
#1129=CARTESIAN_POINT('',(197.1,236.4,38.2));
#1130=CARTESIAN_POINT('',(197.1,230.1,38.2));
#1131=CARTESIAN_POINT('',(203.4,230.1,38.2));
#1132=CARTESIAN_POINT('',(203.4,221.45,38.2));
#1133=CARTESIAN_POINT('',(203.4,186.5,38.2));
#1134=CARTESIAN_POINT('',(197.1,186.5,38.2));
#1135=CARTESIAN_POINT('',(197.1,180.2,38.2));
#1136=CARTESIAN_POINT('',(197.5,180.2,38.2));
#1137=CARTESIAN_POINT('',(166.5,180.2,38.2));
#1138=CARTESIAN_POINT('',(166.5,186.5,38.2));
#1139=CARTESIAN_POINT('',(160.2,186.5,38.2));
#1140=CARTESIAN_POINT('',(160.2,221.45,38.2));
#1141=CARTESIAN_POINT('',(160.2,230.1,38.2));
#1142=CARTESIAN_POINT('',(166.5,230.1,38.2));
#1143=CARTESIAN_POINT('',(257.4,221.45,38.2));
#1144=CARTESIAN_POINT('',(257.4,276.5,38.2));
#1145=CARTESIAN_POINT('',(257.4,166.4,38.2));
#1146=CARTESIAN_POINT('',(251.7,276.5,38.2));
#1147=CARTESIAN_POINT('',(143.3,276.5,38.2));
#1148=CARTESIAN_POINT('',(143.3,166.4,38.2));
#1149=CARTESIAN_POINT('',(251.7,166.4,38.2));
#1150=CARTESIAN_POINT('',(197.5,221.45,38.2));
#1151=CARTESIAN_POINT('',(257.4,276.5,38.2));
#1152=CARTESIAN_POINT('',(257.4,166.4,54.));
#1153=CARTESIAN_POINT('',(257.4,221.45,38.2));
#1154=CARTESIAN_POINT('',(251.7,276.5,38.2));
#1155=CARTESIAN_POINT('',(143.3,276.5,38.2));
#1156=CARTESIAN_POINT('',(251.7,166.4,38.2));
#1157=CARTESIAN_POINT('',(143.3,166.4,38.2));
#1158=CARTESIAN_POINT('',(181.8,180.2,22.8));
#1159=CARTESIAN_POINT('',(197.1,180.2,22.8));
#1160=CARTESIAN_POINT('',(166.5,180.2,22.8));
#1161=CARTESIAN_POINT('',(166.5,180.2,38.2));
#1162=CARTESIAN_POINT('',(197.1,180.2,22.8));
#1163=CARTESIAN_POINT('',(181.8,180.2,22.8));
#1164=CARTESIAN_POINT('',(160.2,186.5,22.8));
#1165=CARTESIAN_POINT('',(160.2,186.5,22.8));
#1166=CARTESIAN_POINT('',(160.2,208.3,22.8));
#1167=CARTESIAN_POINT('',(160.2,230.1,22.8));
#1168=CARTESIAN_POINT('',(160.2,230.1,38.2));
#1169=CARTESIAN_POINT('',(160.2,208.3,22.8));
#1170=CARTESIAN_POINT('',(166.5,236.4,22.8));
#1171=CARTESIAN_POINT('',(166.5,236.4,22.8));
#1172=CARTESIAN_POINT('',(181.8,236.4,22.8));
#1173=CARTESIAN_POINT('',(197.1,236.4,22.8));
#1174=CARTESIAN_POINT('',(197.1,236.4,38.2));
#1175=CARTESIAN_POINT('',(181.8,236.4,22.8));
#1176=CARTESIAN_POINT('',(203.4,230.1,22.8));
#1177=CARTESIAN_POINT('',(203.4,230.1,22.8));
#1178=CARTESIAN_POINT('',(203.4,208.3,22.8));
#1179=CARTESIAN_POINT('',(203.4,186.5,22.8));
#1180=CARTESIAN_POINT('',(203.4,186.5,38.2));
#1181=CARTESIAN_POINT('',(203.4,208.3,22.8));
#1182=CARTESIAN_POINT('',(166.5,186.5,22.8));
#1183=CARTESIAN_POINT('',(197.1,186.5,22.8));
#1184=CARTESIAN_POINT('',(197.1,230.1,22.8));
#1185=CARTESIAN_POINT('',(166.5,230.1,22.8));
#1186=CARTESIAN_POINT('',(181.8,208.3,22.8));
#1187=CARTESIAN_POINT('',(166.5,186.5,22.8));
#1188=CARTESIAN_POINT('',(166.5,230.1,22.8));
#1189=CARTESIAN_POINT('',(197.1,230.1,22.8));
#1190=CARTESIAN_POINT('',(197.1,186.5,22.8));
#1191=CARTESIAN_POINT('',(111.3,49.,27.2));
#1192=CARTESIAN_POINT('',(148.8,49.,27.2));
#1193=CARTESIAN_POINT('',(73.8,49.,27.2));
#1194=CARTESIAN_POINT('',(73.8,49.,54.));
#1195=CARTESIAN_POINT('',(148.8,49.,27.2));
#1196=CARTESIAN_POINT('',(111.3,49.,27.2));
#1197=CARTESIAN_POINT('',(64.2,88.55,27.2));
#1198=CARTESIAN_POINT('',(64.2,58.6,27.2));
#1199=CARTESIAN_POINT('',(64.2,118.5,27.2));
#1200=CARTESIAN_POINT('',(64.2,118.5,54.));
#1201=CARTESIAN_POINT('',(64.2,58.6,27.2));
#1202=CARTESIAN_POINT('',(64.2,88.55,27.2));
#1203=CARTESIAN_POINT('',(73.8,128.1,27.2));
#1204=CARTESIAN_POINT('',(73.8,128.1,27.2));
#1205=CARTESIAN_POINT('',(111.3,128.1,27.2));
#1206=CARTESIAN_POINT('',(148.8,128.1,27.2));
#1207=CARTESIAN_POINT('',(148.8,128.1,54.));
#1208=CARTESIAN_POINT('',(111.3,128.1,27.2));
#1209=CARTESIAN_POINT('',(73.8,118.5,27.2));
#1210=CARTESIAN_POINT('',(73.8,58.6,27.2));
#1211=CARTESIAN_POINT('',(148.8,58.6,27.2));
#1212=CARTESIAN_POINT('',(158.4,58.6,27.2));
#1213=CARTESIAN_POINT('',(158.4,88.55,27.2));
#1214=CARTESIAN_POINT('',(158.4,118.5,27.2));
#1215=CARTESIAN_POINT('',(148.8,118.5,27.2));
#1216=CARTESIAN_POINT('',(111.3,88.55,27.2));
#1217=CARTESIAN_POINT('',(158.4,118.5,27.2));
#1218=CARTESIAN_POINT('',(158.4,58.6,54.));
#1219=CARTESIAN_POINT('',(158.4,88.55,27.2));
#1220=CARTESIAN_POINT('',(73.8,118.5,27.2));
#1221=CARTESIAN_POINT('',(73.8,58.6,27.2));
#1222=CARTESIAN_POINT('',(148.8,118.5,27.2));
#1223=CARTESIAN_POINT('',(148.8,58.6,27.2));
#1224=CARTESIAN_POINT('',(91.,219.7,25.));
#1225=CARTESIAN_POINT('',(91.,219.7,25.));
#1226=CARTESIAN_POINT('',(52.8,219.7,25.));
#1227=CARTESIAN_POINT('',(52.8,219.7,25.));
#1228=CARTESIAN_POINT('',(91.,234.3,25.));
#1229=CARTESIAN_POINT('',(105.6,234.3,25.));
#1230=CARTESIAN_POINT('',(105.6,267.65,25.));
#1231=CARTESIAN_POINT('',(52.8,267.65,25.));
#1232=CARTESIAN_POINT('',(105.6,234.3,54.));
#1233=CARTESIAN_POINT('',(105.6,267.65,25.));
#1234=CARTESIAN_POINT('',(91.,234.3,25.));
#1235=CARTESIAN_POINT('',(233.1,239.3,20.6));
#1236=CARTESIAN_POINT('',(237.65,239.3,20.6));
#1237=CARTESIAN_POINT('',(233.1,239.3,54.05));
#1238=CARTESIAN_POINT('',(233.1,239.3,20.6));
#1239=MECHANICAL_DESIGN_GEOMETRIC_PRESENTATION_REPRESENTATION('',(#24),
#1240);
#1240=(
GEOMETRIC_REPRESENTATION_CONTEXT(3)
GLOBAL_UNCERTAINTY_ASSIGNED_CONTEXT((#1241))
GLOBAL_UNIT_ASSIGNED_CONTEXT((#1247,#1243,#1242))
REPRESENTATION_CONTEXT('featured_part_11051','TOP_LEVEL_ASSEMBLY_PART')
);
#1241=UNCERTAINTY_MEASURE_WITH_UNIT(LENGTH_MEASURE(2.E-5),#1247,
'DISTANCE_ACCURACY_VALUE','Maximum Tolerance applied to model');
#1242=(
NAMED_UNIT(*)
SI_UNIT($,.STERADIAN.)
SOLID_ANGLE_UNIT()
);
#1243=(
CONVERSION_BASED_UNIT('DEGREE',#1245)
NAMED_UNIT(#1244)
PLANE_ANGLE_UNIT()
);
#1244=DIMENSIONAL_EXPONENTS(0.,0.,0.,0.,0.,0.,0.);
#1245=PLANE_ANGLE_MEASURE_WITH_UNIT(PLANE_ANGLE_MEASURE(0.0174532925),#1246);
#1246=(
NAMED_UNIT(*)
PLANE_ANGLE_UNIT()
SI_UNIT($,.RADIAN.)
);
#1247=(
LENGTH_UNIT()
NAMED_UNIT(*)
SI_UNIT(.MILLI.,.METRE.)
);
ENDSEC;
END-ISO-10303-21;
