ISO-10303-21;
HEADER;
/* Generated by software containing ST-Developer
 * from STEP Tools, Inc. (www.steptools.com) 
 */
/* OPTION: using custom schema-name function */

FILE_DESCRIPTION(
/* description */ (''),
/* implementation_level */ '2;1');

FILE_NAME(
/* name */ 'featured_part_11202.stp',
/* time_stamp */ '2026-07-12T15:25:17-04:00',
/* author */ (''),
/* organization */ (''),
/* preprocessor_version */ 'ST-DEVELOPER v20.1',
/* originating_system */ 'SIEMENS PLM Software NX2512.6002',
/* authorisation */ '');

FILE_SCHEMA (('AUTOMOTIVE_DESIGN { 1 0 10303 214 3 1 1 1 }'));
ENDSEC;

DATA;
#10=SHAPE_REPRESENTATION_RELATIONSHIP('None',
'relationship between featured_part_11202-None and featured_part_11202
-None',#22,#11);
#11=ADVANCED_BREP_SHAPE_REPRESENTATION('featured_part_11202-None',(#32),
#1127);
#12=SHAPE_DEFINITION_REPRESENTATION(#13,#22);
#13=PRODUCT_DEFINITION_SHAPE('','',#14);
#14=PRODUCT_DEFINITION(' ','',#16,#15);
#15=PRODUCT_DEFINITION_CONTEXT('part definition',#21,'design');
#16=PRODUCT_DEFINITION_FORMATION_WITH_SPECIFIED_SOURCE(' ',' ',#18,
 .NOT_KNOWN.);
#17=PRODUCT_RELATED_PRODUCT_CATEGORY('part','',(#18));
#18=PRODUCT('featured_part_11202','featured_part_11202',' ',(#19));
#19=PRODUCT_CONTEXT(' ',#21,'mechanical');
#20=APPLICATION_PROTOCOL_DEFINITION('international standard',
'automotive_design',2010,#21);
#21=APPLICATION_CONTEXT(
'core data for automotive mechanical design processes');
#22=SHAPE_REPRESENTATION('featured_part_11202-None',(#691),#1127);
#23=PRESENTATION_LAYER_ASSIGNMENT('1','Layer 1',(#32));
#24=STYLED_ITEM('',(#25),#32);
#25=PRESENTATION_STYLE_ASSIGNMENT((#26));
#26=SURFACE_STYLE_USAGE(.BOTH.,#27);
#27=SURFACE_SIDE_STYLE('',(#28));
#28=SURFACE_STYLE_FILL_AREA(#29);
#29=FILL_AREA_STYLE('',(#30));
#30=FILL_AREA_STYLE_COLOUR('',#31);
#31=COLOUR_RGB('medium steel',0.611764705882353,0.658823529411765,0.670588235294118);
#32=MANIFOLD_SOLID_BREP('',#33);
#33=CLOSED_SHELL('',(#74,#75,#76,#77,#78,#79,#80,#81,#82,#83,#84,#85,#86,
#87,#88,#89,#90,#91,#92,#93,#94,#95,#96,#97,#98,#99,#100,#101,#102,#103,
#104,#105,#106,#107,#108));
#34=CYLINDRICAL_SURFACE('',#725,8.7);
#35=CYLINDRICAL_SURFACE('',#726,8.7);
#36=CYLINDRICAL_SURFACE('',#727,8.7);
#37=CYLINDRICAL_SURFACE('',#728,8.7);
#38=CYLINDRICAL_SURFACE('',#740,8.5);
#39=CYLINDRICAL_SURFACE('',#741,8.5);
#40=CYLINDRICAL_SURFACE('',#742,8.5);
#41=CYLINDRICAL_SURFACE('',#743,8.5);
#42=CYLINDRICAL_SURFACE('',#746,5.65);
#43=CYLINDRICAL_SURFACE('',#747,12.5);
#44=FACE_BOUND('',#166,.T.);
#45=FACE_BOUND('',#167,.T.);
#46=FACE_BOUND('',#168,.T.);
#47=FACE_BOUND('',#174,.T.);
#48=FACE_BOUND('',#175,.T.);
#49=FACE_BOUND('',#201,.T.);
#50=FACE_BOUND('',#202,.T.);
#51=FACE_BOUND('',#203,.T.);
#52=FACE_BOUND('',#204,.T.);
#53=CIRCLE('',#693,12.5);
#54=CIRCLE('',#694,8.7);
#55=CIRCLE('',#695,8.7);
#56=CIRCLE('',#696,8.7);
#57=CIRCLE('',#697,8.7);
#58=CIRCLE('',#698,5.65);
#59=CIRCLE('',#700,8.5);
#60=CIRCLE('',#701,8.5);
#61=CIRCLE('',#702,8.5);
#62=CIRCLE('',#703,8.5);
#63=CIRCLE('',#709,12.5);
#64=CIRCLE('',#718,12.5);
#65=CIRCLE('',#719,8.7);
#66=CIRCLE('',#720,8.7);
#67=CIRCLE('',#721,8.7);
#68=CIRCLE('',#722,8.7);
#69=CIRCLE('',#734,8.5);
#70=CIRCLE('',#735,8.5);
#71=CIRCLE('',#736,8.5);
#72=CIRCLE('',#737,8.5);
#73=CIRCLE('',#744,5.65);
#74=ADVANCED_FACE('',(#134),#109,.F.);
#75=ADVANCED_FACE('',(#44,#45,#46),#110,.T.);
#76=ADVANCED_FACE('',(#135),#111,.T.);
#77=ADVANCED_FACE('',(#136),#112,.T.);
#78=ADVANCED_FACE('',(#137),#113,.T.);
#79=ADVANCED_FACE('',(#138),#114,.T.);
#80=ADVANCED_FACE('',(#139),#115,.T.);
#81=ADVANCED_FACE('',(#47,#48),#116,.T.);
#82=ADVANCED_FACE('',(#140),#117,.T.);
#83=ADVANCED_FACE('',(#141),#118,.F.);
#84=ADVANCED_FACE('',(#142),#119,.F.);
#85=ADVANCED_FACE('',(#143),#120,.F.);
#86=ADVANCED_FACE('',(#144),#121,.F.);
#87=ADVANCED_FACE('',(#145),#122,.F.);
#88=ADVANCED_FACE('',(#146),#123,.F.);
#89=ADVANCED_FACE('',(#147),#124,.F.);
#90=ADVANCED_FACE('',(#148),#125,.F.);
#91=ADVANCED_FACE('',(#149),#34,.F.);
#92=ADVANCED_FACE('',(#150),#35,.F.);
#93=ADVANCED_FACE('',(#151),#36,.F.);
#94=ADVANCED_FACE('',(#152),#37,.F.);
#95=ADVANCED_FACE('',(#153),#126,.F.);
#96=ADVANCED_FACE('',(#154),#127,.F.);
#97=ADVANCED_FACE('',(#155),#128,.F.);
#98=ADVANCED_FACE('',(#156),#129,.F.);
#99=ADVANCED_FACE('',(#157),#130,.F.);
#100=ADVANCED_FACE('',(#158),#131,.F.);
#101=ADVANCED_FACE('',(#159),#132,.F.);
#102=ADVANCED_FACE('',(#160),#38,.T.);
#103=ADVANCED_FACE('',(#161),#39,.T.);
#104=ADVANCED_FACE('',(#162),#40,.F.);
#105=ADVANCED_FACE('',(#163),#41,.F.);
#106=ADVANCED_FACE('',(#164),#133,.F.);
#107=ADVANCED_FACE('',(#49,#50),#42,.F.);
#108=ADVANCED_FACE('',(#51,#52),#43,.F.);
#109=PLANE('',#692);
#110=PLANE('',#699);
#111=PLANE('',#704);
#112=PLANE('',#705);
#113=PLANE('',#706);
#114=PLANE('',#707);
#115=PLANE('',#708);
#116=PLANE('',#710);
#117=PLANE('',#711);
#118=PLANE('',#712);
#119=PLANE('',#713);
#120=PLANE('',#714);
#121=PLANE('',#715);
#122=PLANE('',#716);
#123=PLANE('',#717);
#124=PLANE('',#723);
#125=PLANE('',#724);
#126=PLANE('',#729);
#127=PLANE('',#730);
#128=PLANE('',#731);
#129=PLANE('',#732);
#130=PLANE('',#733);
#131=PLANE('',#738);
#132=PLANE('',#739);
#133=PLANE('',#745);
#134=FACE_OUTER_BOUND('',#165,.T.);
#135=FACE_OUTER_BOUND('',#169,.T.);
#136=FACE_OUTER_BOUND('',#170,.T.);
#137=FACE_OUTER_BOUND('',#171,.T.);
#138=FACE_OUTER_BOUND('',#172,.T.);
#139=FACE_OUTER_BOUND('',#173,.T.);
#140=FACE_OUTER_BOUND('',#176,.T.);
#141=FACE_OUTER_BOUND('',#177,.T.);
#142=FACE_OUTER_BOUND('',#178,.T.);
#143=FACE_OUTER_BOUND('',#179,.T.);
#144=FACE_OUTER_BOUND('',#180,.T.);
#145=FACE_OUTER_BOUND('',#181,.T.);
#146=FACE_OUTER_BOUND('',#182,.T.);
#147=FACE_OUTER_BOUND('',#183,.T.);
#148=FACE_OUTER_BOUND('',#184,.T.);
#149=FACE_OUTER_BOUND('',#185,.T.);
#150=FACE_OUTER_BOUND('',#186,.T.);
#151=FACE_OUTER_BOUND('',#187,.T.);
#152=FACE_OUTER_BOUND('',#188,.T.);
#153=FACE_OUTER_BOUND('',#189,.T.);
#154=FACE_OUTER_BOUND('',#190,.T.);
#155=FACE_OUTER_BOUND('',#191,.T.);
#156=FACE_OUTER_BOUND('',#192,.T.);
#157=FACE_OUTER_BOUND('',#193,.T.);
#158=FACE_OUTER_BOUND('',#194,.T.);
#159=FACE_OUTER_BOUND('',#195,.T.);
#160=FACE_OUTER_BOUND('',#196,.T.);
#161=FACE_OUTER_BOUND('',#197,.T.);
#162=FACE_OUTER_BOUND('',#198,.T.);
#163=FACE_OUTER_BOUND('',#199,.T.);
#164=FACE_OUTER_BOUND('',#200,.T.);
#165=EDGE_LOOP('',(#205,#206,#207,#208));
#166=EDGE_LOOP('',(#209,#210,#211,#212,#213,#214,#215,#216,#217,#218));
#167=EDGE_LOOP('',(#219));
#168=EDGE_LOOP('',(#220,#221,#222,#223));
#169=EDGE_LOOP('',(#224,#225,#226,#227,#228,#229,#230,#231,#232,#233,#234,
#235));
#170=EDGE_LOOP('',(#236,#237,#238,#239));
#171=EDGE_LOOP('',(#240,#241,#242,#243,#244,#245,#246,#247,#248,#249,#250,
#251));
#172=EDGE_LOOP('',(#252,#253,#254,#255));
#173=EDGE_LOOP('',(#256,#257,#258,#259,#260,#261,#262,#263,#264,#265,#266,
#267));
#174=EDGE_LOOP('',(#268));
#175=EDGE_LOOP('',(#269,#270,#271,#272));
#176=EDGE_LOOP('',(#273,#274,#275,#276));
#177=EDGE_LOOP('',(#277,#278,#279,#280));
#178=EDGE_LOOP('',(#281,#282,#283,#284));
#179=EDGE_LOOP('',(#285,#286,#287,#288));
#180=EDGE_LOOP('',(#289,#290,#291,#292));
#181=EDGE_LOOP('',(#293,#294,#295,#296));
#182=EDGE_LOOP('',(#297,#298,#299,#300));
#183=EDGE_LOOP('',(#301,#302,#303,#304,#305,#306,#307,#308,#309,#310));
#184=EDGE_LOOP('',(#311,#312,#313,#314));
#185=EDGE_LOOP('',(#315,#316,#317,#318));
#186=EDGE_LOOP('',(#319,#320,#321,#322));
#187=EDGE_LOOP('',(#323,#324,#325,#326));
#188=EDGE_LOOP('',(#327,#328,#329,#330));
#189=EDGE_LOOP('',(#331,#332,#333,#334));
#190=EDGE_LOOP('',(#335,#336,#337,#338));
#191=EDGE_LOOP('',(#339,#340,#341,#342,#343,#344,#345,#346));
#192=EDGE_LOOP('',(#347,#348,#349,#350));
#193=EDGE_LOOP('',(#351,#352,#353,#354));
#194=EDGE_LOOP('',(#355,#356,#357,#358,#359,#360,#361,#362));
#195=EDGE_LOOP('',(#363,#364,#365,#366));
#196=EDGE_LOOP('',(#367,#368,#369,#370));
#197=EDGE_LOOP('',(#371,#372,#373,#374));
#198=EDGE_LOOP('',(#375,#376,#377,#378));
#199=EDGE_LOOP('',(#379,#380,#381,#382));
#200=EDGE_LOOP('',(#383));
#201=EDGE_LOOP('',(#384));
#202=EDGE_LOOP('',(#385));
#203=EDGE_LOOP('',(#386));
#204=EDGE_LOOP('',(#387,#388,#389,#390));
#205=ORIENTED_EDGE('',*,*,#454,.T.);
#206=ORIENTED_EDGE('',*,*,#455,.T.);
#207=ORIENTED_EDGE('',*,*,#456,.T.);
#208=ORIENTED_EDGE('',*,*,#457,.T.);
#209=ORIENTED_EDGE('',*,*,#458,.F.);
#210=ORIENTED_EDGE('',*,*,#454,.F.);
#211=ORIENTED_EDGE('',*,*,#459,.T.);
#212=ORIENTED_EDGE('',*,*,#460,.F.);
#213=ORIENTED_EDGE('',*,*,#461,.T.);
#214=ORIENTED_EDGE('',*,*,#462,.F.);
#215=ORIENTED_EDGE('',*,*,#463,.T.);
#216=ORIENTED_EDGE('',*,*,#464,.F.);
#217=ORIENTED_EDGE('',*,*,#465,.T.);
#218=ORIENTED_EDGE('',*,*,#466,.F.);
#219=ORIENTED_EDGE('',*,*,#467,.F.);
#220=ORIENTED_EDGE('',*,*,#468,.F.);
#221=ORIENTED_EDGE('',*,*,#469,.F.);
#222=ORIENTED_EDGE('',*,*,#470,.F.);
#223=ORIENTED_EDGE('',*,*,#471,.F.);
#224=ORIENTED_EDGE('',*,*,#472,.F.);
#225=ORIENTED_EDGE('',*,*,#473,.T.);
#226=ORIENTED_EDGE('',*,*,#474,.F.);
#227=ORIENTED_EDGE('',*,*,#475,.T.);
#228=ORIENTED_EDGE('',*,*,#476,.F.);
#229=ORIENTED_EDGE('',*,*,#477,.T.);
#230=ORIENTED_EDGE('',*,*,#478,.F.);
#231=ORIENTED_EDGE('',*,*,#479,.T.);
#232=ORIENTED_EDGE('',*,*,#480,.F.);
#233=ORIENTED_EDGE('',*,*,#481,.F.);
#234=ORIENTED_EDGE('',*,*,#482,.F.);
#235=ORIENTED_EDGE('',*,*,#483,.F.);
#236=ORIENTED_EDGE('',*,*,#484,.F.);
#237=ORIENTED_EDGE('',*,*,#485,.F.);
#238=ORIENTED_EDGE('',*,*,#486,.F.);
#239=ORIENTED_EDGE('',*,*,#487,.F.);
#240=ORIENTED_EDGE('',*,*,#488,.F.);
#241=ORIENTED_EDGE('',*,*,#471,.T.);
#242=ORIENTED_EDGE('',*,*,#489,.F.);
#243=ORIENTED_EDGE('',*,*,#490,.T.);
#244=ORIENTED_EDGE('',*,*,#491,.T.);
#245=ORIENTED_EDGE('',*,*,#485,.T.);
#246=ORIENTED_EDGE('',*,*,#492,.F.);
#247=ORIENTED_EDGE('',*,*,#493,.F.);
#248=ORIENTED_EDGE('',*,*,#494,.F.);
#249=ORIENTED_EDGE('',*,*,#481,.T.);
#250=ORIENTED_EDGE('',*,*,#495,.F.);
#251=ORIENTED_EDGE('',*,*,#496,.F.);
#252=ORIENTED_EDGE('',*,*,#489,.T.);
#253=ORIENTED_EDGE('',*,*,#470,.T.);
#254=ORIENTED_EDGE('',*,*,#497,.F.);
#255=ORIENTED_EDGE('',*,*,#498,.T.);
#256=ORIENTED_EDGE('',*,*,#499,.F.);
#257=ORIENTED_EDGE('',*,*,#500,.F.);
#258=ORIENTED_EDGE('',*,*,#501,.F.);
#259=ORIENTED_EDGE('',*,*,#483,.T.);
#260=ORIENTED_EDGE('',*,*,#502,.F.);
#261=ORIENTED_EDGE('',*,*,#503,.F.);
#262=ORIENTED_EDGE('',*,*,#504,.F.);
#263=ORIENTED_EDGE('',*,*,#487,.T.);
#264=ORIENTED_EDGE('',*,*,#505,.F.);
#265=ORIENTED_EDGE('',*,*,#506,.T.);
#266=ORIENTED_EDGE('',*,*,#497,.T.);
#267=ORIENTED_EDGE('',*,*,#469,.T.);
#268=ORIENTED_EDGE('',*,*,#507,.F.);
#269=ORIENTED_EDGE('',*,*,#508,.F.);
#270=ORIENTED_EDGE('',*,*,#490,.F.);
#271=ORIENTED_EDGE('',*,*,#498,.F.);
#272=ORIENTED_EDGE('',*,*,#506,.F.);
#273=ORIENTED_EDGE('',*,*,#508,.T.);
#274=ORIENTED_EDGE('',*,*,#505,.T.);
#275=ORIENTED_EDGE('',*,*,#486,.T.);
#276=ORIENTED_EDGE('',*,*,#491,.F.);
#277=ORIENTED_EDGE('',*,*,#494,.T.);
#278=ORIENTED_EDGE('',*,*,#509,.T.);
#279=ORIENTED_EDGE('',*,*,#502,.T.);
#280=ORIENTED_EDGE('',*,*,#482,.T.);
#281=ORIENTED_EDGE('',*,*,#493,.T.);
#282=ORIENTED_EDGE('',*,*,#510,.F.);
#283=ORIENTED_EDGE('',*,*,#503,.T.);
#284=ORIENTED_EDGE('',*,*,#509,.F.);
#285=ORIENTED_EDGE('',*,*,#492,.T.);
#286=ORIENTED_EDGE('',*,*,#484,.T.);
#287=ORIENTED_EDGE('',*,*,#504,.T.);
#288=ORIENTED_EDGE('',*,*,#510,.T.);
#289=ORIENTED_EDGE('',*,*,#511,.T.);
#290=ORIENTED_EDGE('',*,*,#512,.T.);
#291=ORIENTED_EDGE('',*,*,#466,.T.);
#292=ORIENTED_EDGE('',*,*,#513,.T.);
#293=ORIENTED_EDGE('',*,*,#514,.T.);
#294=ORIENTED_EDGE('',*,*,#515,.T.);
#295=ORIENTED_EDGE('',*,*,#460,.T.);
#296=ORIENTED_EDGE('',*,*,#516,.T.);
#297=ORIENTED_EDGE('',*,*,#462,.T.);
#298=ORIENTED_EDGE('',*,*,#517,.T.);
#299=ORIENTED_EDGE('',*,*,#518,.T.);
#300=ORIENTED_EDGE('',*,*,#519,.T.);
#301=ORIENTED_EDGE('',*,*,#456,.F.);
#302=ORIENTED_EDGE('',*,*,#520,.T.);
#303=ORIENTED_EDGE('',*,*,#511,.F.);
#304=ORIENTED_EDGE('',*,*,#521,.T.);
#305=ORIENTED_EDGE('',*,*,#522,.F.);
#306=ORIENTED_EDGE('',*,*,#523,.T.);
#307=ORIENTED_EDGE('',*,*,#518,.F.);
#308=ORIENTED_EDGE('',*,*,#524,.T.);
#309=ORIENTED_EDGE('',*,*,#514,.F.);
#310=ORIENTED_EDGE('',*,*,#525,.T.);
#311=ORIENTED_EDGE('',*,*,#464,.T.);
#312=ORIENTED_EDGE('',*,*,#526,.T.);
#313=ORIENTED_EDGE('',*,*,#522,.T.);
#314=ORIENTED_EDGE('',*,*,#527,.T.);
#315=ORIENTED_EDGE('',*,*,#461,.F.);
#316=ORIENTED_EDGE('',*,*,#515,.F.);
#317=ORIENTED_EDGE('',*,*,#524,.F.);
#318=ORIENTED_EDGE('',*,*,#517,.F.);
#319=ORIENTED_EDGE('',*,*,#463,.F.);
#320=ORIENTED_EDGE('',*,*,#519,.F.);
#321=ORIENTED_EDGE('',*,*,#523,.F.);
#322=ORIENTED_EDGE('',*,*,#526,.F.);
#323=ORIENTED_EDGE('',*,*,#465,.F.);
#324=ORIENTED_EDGE('',*,*,#527,.F.);
#325=ORIENTED_EDGE('',*,*,#521,.F.);
#326=ORIENTED_EDGE('',*,*,#513,.F.);
#327=ORIENTED_EDGE('',*,*,#459,.F.);
#328=ORIENTED_EDGE('',*,*,#457,.F.);
#329=ORIENTED_EDGE('',*,*,#525,.F.);
#330=ORIENTED_EDGE('',*,*,#516,.F.);
#331=ORIENTED_EDGE('',*,*,#488,.T.);
#332=ORIENTED_EDGE('',*,*,#528,.T.);
#333=ORIENTED_EDGE('',*,*,#499,.T.);
#334=ORIENTED_EDGE('',*,*,#468,.T.);
#335=ORIENTED_EDGE('',*,*,#496,.T.);
#336=ORIENTED_EDGE('',*,*,#529,.F.);
#337=ORIENTED_EDGE('',*,*,#500,.T.);
#338=ORIENTED_EDGE('',*,*,#528,.F.);
#339=ORIENTED_EDGE('',*,*,#530,.F.);
#340=ORIENTED_EDGE('',*,*,#531,.T.);
#341=ORIENTED_EDGE('',*,*,#472,.T.);
#342=ORIENTED_EDGE('',*,*,#501,.T.);
#343=ORIENTED_EDGE('',*,*,#529,.T.);
#344=ORIENTED_EDGE('',*,*,#495,.T.);
#345=ORIENTED_EDGE('',*,*,#480,.T.);
#346=ORIENTED_EDGE('',*,*,#532,.T.);
#347=ORIENTED_EDGE('',*,*,#533,.T.);
#348=ORIENTED_EDGE('',*,*,#534,.T.);
#349=ORIENTED_EDGE('',*,*,#478,.T.);
#350=ORIENTED_EDGE('',*,*,#535,.T.);
#351=ORIENTED_EDGE('',*,*,#474,.T.);
#352=ORIENTED_EDGE('',*,*,#536,.T.);
#353=ORIENTED_EDGE('',*,*,#537,.T.);
#354=ORIENTED_EDGE('',*,*,#538,.T.);
#355=ORIENTED_EDGE('',*,*,#539,.F.);
#356=ORIENTED_EDGE('',*,*,#540,.T.);
#357=ORIENTED_EDGE('',*,*,#537,.F.);
#358=ORIENTED_EDGE('',*,*,#541,.T.);
#359=ORIENTED_EDGE('',*,*,#530,.T.);
#360=ORIENTED_EDGE('',*,*,#542,.T.);
#361=ORIENTED_EDGE('',*,*,#533,.F.);
#362=ORIENTED_EDGE('',*,*,#543,.T.);
#363=ORIENTED_EDGE('',*,*,#476,.T.);
#364=ORIENTED_EDGE('',*,*,#544,.T.);
#365=ORIENTED_EDGE('',*,*,#539,.T.);
#366=ORIENTED_EDGE('',*,*,#545,.T.);
#367=ORIENTED_EDGE('',*,*,#541,.F.);
#368=ORIENTED_EDGE('',*,*,#536,.F.);
#369=ORIENTED_EDGE('',*,*,#473,.F.);
#370=ORIENTED_EDGE('',*,*,#531,.F.);
#371=ORIENTED_EDGE('',*,*,#542,.F.);
#372=ORIENTED_EDGE('',*,*,#532,.F.);
#373=ORIENTED_EDGE('',*,*,#479,.F.);
#374=ORIENTED_EDGE('',*,*,#534,.F.);
#375=ORIENTED_EDGE('',*,*,#475,.F.);
#376=ORIENTED_EDGE('',*,*,#538,.F.);
#377=ORIENTED_EDGE('',*,*,#540,.F.);
#378=ORIENTED_EDGE('',*,*,#544,.F.);
#379=ORIENTED_EDGE('',*,*,#477,.F.);
#380=ORIENTED_EDGE('',*,*,#545,.F.);
#381=ORIENTED_EDGE('',*,*,#543,.F.);
#382=ORIENTED_EDGE('',*,*,#535,.F.);
#383=ORIENTED_EDGE('',*,*,#546,.F.);
#384=ORIENTED_EDGE('',*,*,#467,.T.);
#385=ORIENTED_EDGE('',*,*,#546,.T.);
#386=ORIENTED_EDGE('',*,*,#507,.T.);
#387=ORIENTED_EDGE('',*,*,#458,.T.);
#388=ORIENTED_EDGE('',*,*,#512,.F.);
#389=ORIENTED_EDGE('',*,*,#520,.F.);
#390=ORIENTED_EDGE('',*,*,#455,.F.);
#391=VERTEX_POINT('',#936);
#392=VERTEX_POINT('',#937);
#393=VERTEX_POINT('',#939);
#394=VERTEX_POINT('',#941);
#395=VERTEX_POINT('',#945);
#396=VERTEX_POINT('',#947);
#397=VERTEX_POINT('',#949);
#398=VERTEX_POINT('',#951);
#399=VERTEX_POINT('',#953);
#400=VERTEX_POINT('',#955);
#401=VERTEX_POINT('',#957);
#402=VERTEX_POINT('',#959);
#403=VERTEX_POINT('',#962);
#404=VERTEX_POINT('',#964);
#405=VERTEX_POINT('',#965);
#406=VERTEX_POINT('',#967);
#407=VERTEX_POINT('',#969);
#408=VERTEX_POINT('',#973);
#409=VERTEX_POINT('',#974);
#410=VERTEX_POINT('',#976);
#411=VERTEX_POINT('',#978);
#412=VERTEX_POINT('',#980);
#413=VERTEX_POINT('',#982);
#414=VERTEX_POINT('',#984);
#415=VERTEX_POINT('',#986);
#416=VERTEX_POINT('',#988);
#417=VERTEX_POINT('',#990);
#418=VERTEX_POINT('',#992);
#419=VERTEX_POINT('',#994);
#420=VERTEX_POINT('',#998);
#421=VERTEX_POINT('',#999);
#422=VERTEX_POINT('',#1001);
#423=VERTEX_POINT('',#1003);
#424=VERTEX_POINT('',#1007);
#425=VERTEX_POINT('',#1009);
#426=VERTEX_POINT('',#1011);
#427=VERTEX_POINT('',#1014);
#428=VERTEX_POINT('',#1016);
#429=VERTEX_POINT('',#1019);
#430=VERTEX_POINT('',#1023);
#431=VERTEX_POINT('',#1027);
#432=VERTEX_POINT('',#1029);
#433=VERTEX_POINT('',#1032);
#434=VERTEX_POINT('',#1034);
#435=VERTEX_POINT('',#1037);
#436=VERTEX_POINT('',#1041);
#437=VERTEX_POINT('',#1051);
#438=VERTEX_POINT('',#1052);
#439=VERTEX_POINT('',#1057);
#440=VERTEX_POINT('',#1058);
#441=VERTEX_POINT('',#1063);
#442=VERTEX_POINT('',#1065);
#443=VERTEX_POINT('',#1070);
#444=VERTEX_POINT('',#1072);
#445=VERTEX_POINT('',#1089);
#446=VERTEX_POINT('',#1090);
#447=VERTEX_POINT('',#1095);
#448=VERTEX_POINT('',#1096);
#449=VERTEX_POINT('',#1101);
#450=VERTEX_POINT('',#1103);
#451=VERTEX_POINT('',#1107);
#452=VERTEX_POINT('',#1108);
#453=VERTEX_POINT('',#1122);
#454=EDGE_CURVE('',#391,#392,#547,.T.);
#455=EDGE_CURVE('',#392,#393,#548,.T.);
#456=EDGE_CURVE('',#393,#394,#549,.T.);
#457=EDGE_CURVE('',#394,#391,#550,.T.);
#458=EDGE_CURVE('',#392,#395,#53,.T.);
#459=EDGE_CURVE('',#391,#396,#54,.T.);
#460=EDGE_CURVE('',#397,#396,#551,.T.);
#461=EDGE_CURVE('',#397,#398,#55,.T.);
#462=EDGE_CURVE('',#399,#398,#552,.T.);
#463=EDGE_CURVE('',#399,#400,#56,.T.);
#464=EDGE_CURVE('',#401,#400,#553,.T.);
#465=EDGE_CURVE('',#401,#402,#57,.T.);
#466=EDGE_CURVE('',#395,#402,#554,.T.);
#467=EDGE_CURVE('',#403,#403,#58,.T.);
#468=EDGE_CURVE('',#404,#405,#555,.T.);
#469=EDGE_CURVE('',#406,#404,#556,.T.);
#470=EDGE_CURVE('',#407,#406,#557,.T.);
#471=EDGE_CURVE('',#405,#407,#558,.T.);
#472=EDGE_CURVE('',#408,#409,#559,.T.);
#473=EDGE_CURVE('',#408,#410,#59,.T.);
#474=EDGE_CURVE('',#411,#410,#560,.T.);
#475=EDGE_CURVE('',#411,#412,#60,.T.);
#476=EDGE_CURVE('',#413,#412,#561,.T.);
#477=EDGE_CURVE('',#413,#414,#61,.T.);
#478=EDGE_CURVE('',#415,#414,#562,.T.);
#479=EDGE_CURVE('',#415,#416,#62,.T.);
#480=EDGE_CURVE('',#417,#416,#563,.T.);
#481=EDGE_CURVE('',#418,#417,#564,.T.);
#482=EDGE_CURVE('',#419,#418,#565,.T.);
#483=EDGE_CURVE('',#409,#419,#566,.T.);
#484=EDGE_CURVE('',#420,#421,#567,.T.);
#485=EDGE_CURVE('',#422,#420,#568,.T.);
#486=EDGE_CURVE('',#423,#422,#569,.T.);
#487=EDGE_CURVE('',#421,#423,#570,.T.);
#488=EDGE_CURVE('',#405,#424,#571,.T.);
#489=EDGE_CURVE('',#425,#407,#572,.T.);
#490=EDGE_CURVE('',#425,#426,#573,.T.);
#491=EDGE_CURVE('',#426,#422,#574,.T.);
#492=EDGE_CURVE('',#427,#420,#575,.T.);
#493=EDGE_CURVE('',#428,#427,#576,.T.);
#494=EDGE_CURVE('',#418,#428,#577,.T.);
#495=EDGE_CURVE('',#429,#417,#578,.T.);
#496=EDGE_CURVE('',#424,#429,#579,.T.);
#497=EDGE_CURVE('',#430,#406,#580,.T.);
#498=EDGE_CURVE('',#430,#425,#581,.T.);
#499=EDGE_CURVE('',#431,#404,#582,.T.);
#500=EDGE_CURVE('',#432,#431,#583,.T.);
#501=EDGE_CURVE('',#409,#432,#584,.T.);
#502=EDGE_CURVE('',#433,#419,#585,.T.);
#503=EDGE_CURVE('',#434,#433,#586,.T.);
#504=EDGE_CURVE('',#421,#434,#587,.T.);
#505=EDGE_CURVE('',#435,#423,#588,.T.);
#506=EDGE_CURVE('',#435,#430,#589,.T.);
#507=EDGE_CURVE('',#436,#436,#63,.T.);
#508=EDGE_CURVE('',#426,#435,#590,.T.);
#509=EDGE_CURVE('',#428,#433,#591,.T.);
#510=EDGE_CURVE('',#434,#427,#592,.T.);
#511=EDGE_CURVE('',#437,#438,#593,.T.);
#512=EDGE_CURVE('',#438,#395,#594,.T.);
#513=EDGE_CURVE('',#402,#437,#595,.T.);
#514=EDGE_CURVE('',#439,#440,#596,.T.);
#515=EDGE_CURVE('',#440,#397,#597,.T.);
#516=EDGE_CURVE('',#396,#439,#598,.T.);
#517=EDGE_CURVE('',#398,#441,#599,.T.);
#518=EDGE_CURVE('',#441,#442,#600,.T.);
#519=EDGE_CURVE('',#442,#399,#601,.T.);
#520=EDGE_CURVE('',#393,#438,#64,.T.);
#521=EDGE_CURVE('',#437,#443,#65,.T.);
#522=EDGE_CURVE('',#444,#443,#602,.T.);
#523=EDGE_CURVE('',#444,#442,#66,.T.);
#524=EDGE_CURVE('',#441,#440,#67,.T.);
#525=EDGE_CURVE('',#439,#394,#68,.T.);
#526=EDGE_CURVE('',#400,#444,#603,.T.);
#527=EDGE_CURVE('',#443,#401,#604,.T.);
#528=EDGE_CURVE('',#424,#431,#605,.T.);
#529=EDGE_CURVE('',#432,#429,#606,.T.);
#530=EDGE_CURVE('',#445,#446,#607,.T.);
#531=EDGE_CURVE('',#445,#408,#608,.T.);
#532=EDGE_CURVE('',#416,#446,#609,.T.);
#533=EDGE_CURVE('',#447,#448,#610,.T.);
#534=EDGE_CURVE('',#448,#415,#611,.T.);
#535=EDGE_CURVE('',#414,#447,#612,.T.);
#536=EDGE_CURVE('',#410,#449,#613,.T.);
#537=EDGE_CURVE('',#449,#450,#614,.T.);
#538=EDGE_CURVE('',#450,#411,#615,.T.);
#539=EDGE_CURVE('',#451,#452,#616,.T.);
#540=EDGE_CURVE('',#451,#450,#69,.T.);
#541=EDGE_CURVE('',#449,#445,#70,.T.);
#542=EDGE_CURVE('',#446,#448,#71,.T.);
#543=EDGE_CURVE('',#447,#452,#72,.T.);
#544=EDGE_CURVE('',#412,#451,#617,.T.);
#545=EDGE_CURVE('',#452,#413,#618,.T.);
#546=EDGE_CURVE('',#453,#453,#73,.T.);
#547=LINE('',#935,#619);
#548=LINE('',#938,#620);
#549=LINE('',#940,#621);
#550=LINE('',#942,#622);
#551=LINE('',#948,#623);
#552=LINE('',#952,#624);
#553=LINE('',#956,#625);
#554=LINE('',#960,#626);
#555=LINE('',#963,#627);
#556=LINE('',#966,#628);
#557=LINE('',#968,#629);
#558=LINE('',#970,#630);
#559=LINE('',#972,#631);
#560=LINE('',#977,#632);
#561=LINE('',#981,#633);
#562=LINE('',#985,#634);
#563=LINE('',#989,#635);
#564=LINE('',#991,#636);
#565=LINE('',#993,#637);
#566=LINE('',#995,#638);
#567=LINE('',#997,#639);
#568=LINE('',#1000,#640);
#569=LINE('',#1002,#641);
#570=LINE('',#1004,#642);
#571=LINE('',#1006,#643);
#572=LINE('',#1008,#644);
#573=LINE('',#1010,#645);
#574=LINE('',#1012,#646);
#575=LINE('',#1013,#647);
#576=LINE('',#1015,#648);
#577=LINE('',#1017,#649);
#578=LINE('',#1018,#650);
#579=LINE('',#1020,#651);
#580=LINE('',#1022,#652);
#581=LINE('',#1024,#653);
#582=LINE('',#1026,#654);
#583=LINE('',#1028,#655);
#584=LINE('',#1030,#656);
#585=LINE('',#1031,#657);
#586=LINE('',#1033,#658);
#587=LINE('',#1035,#659);
#588=LINE('',#1036,#660);
#589=LINE('',#1038,#661);
#590=LINE('',#1042,#662);
#591=LINE('',#1045,#663);
#592=LINE('',#1047,#664);
#593=LINE('',#1050,#665);
#594=LINE('',#1053,#666);
#595=LINE('',#1054,#667);
#596=LINE('',#1056,#668);
#597=LINE('',#1059,#669);
#598=LINE('',#1060,#670);
#599=LINE('',#1062,#671);
#600=LINE('',#1064,#672);
#601=LINE('',#1066,#673);
#602=LINE('',#1071,#674);
#603=LINE('',#1077,#675);
#604=LINE('',#1078,#676);
#605=LINE('',#1084,#677);
#606=LINE('',#1086,#678);
#607=LINE('',#1088,#679);
#608=LINE('',#1091,#680);
#609=LINE('',#1092,#681);
#610=LINE('',#1094,#682);
#611=LINE('',#1097,#683);
#612=LINE('',#1098,#684);
#613=LINE('',#1100,#685);
#614=LINE('',#1102,#686);
#615=LINE('',#1104,#687);
#616=LINE('',#1106,#688);
#617=LINE('',#1114,#689);
#618=LINE('',#1115,#690);
#619=VECTOR('',#750,1.);
#620=VECTOR('',#751,1.);
#621=VECTOR('',#752,1.);
#622=VECTOR('',#753,1.);
#623=VECTOR('',#760,1.);
#624=VECTOR('',#763,1.);
#625=VECTOR('',#766,1.);
#626=VECTOR('',#769,1.);
#627=VECTOR('',#772,1.);
#628=VECTOR('',#773,1.);
#629=VECTOR('',#774,1.);
#630=VECTOR('',#775,1.);
#631=VECTOR('',#778,1.);
#632=VECTOR('',#781,1.);
#633=VECTOR('',#784,1.);
#634=VECTOR('',#787,1.);
#635=VECTOR('',#790,1.);
#636=VECTOR('',#791,1.);
#637=VECTOR('',#792,1.);
#638=VECTOR('',#793,1.);
#639=VECTOR('',#796,1.);
#640=VECTOR('',#797,1.);
#641=VECTOR('',#798,1.);
#642=VECTOR('',#799,1.);
#643=VECTOR('',#802,1.);
#644=VECTOR('',#803,1.);
#645=VECTOR('',#804,1.);
#646=VECTOR('',#805,1.);
#647=VECTOR('',#806,1.);
#648=VECTOR('',#807,1.);
#649=VECTOR('',#808,1.);
#650=VECTOR('',#809,1.);
#651=VECTOR('',#810,1.);
#652=VECTOR('',#813,1.);
#653=VECTOR('',#814,1.);
#654=VECTOR('',#817,1.);
#655=VECTOR('',#818,1.);
#656=VECTOR('',#819,1.);
#657=VECTOR('',#820,1.);
#658=VECTOR('',#821,1.);
#659=VECTOR('',#822,1.);
#660=VECTOR('',#823,1.);
#661=VECTOR('',#824,1.);
#662=VECTOR('',#829,1.);
#663=VECTOR('',#834,1.);
#664=VECTOR('',#837,1.);
#665=VECTOR('',#842,1.);
#666=VECTOR('',#843,1.);
#667=VECTOR('',#844,1.);
#668=VECTOR('',#847,1.);
#669=VECTOR('',#848,1.);
#670=VECTOR('',#849,1.);
#671=VECTOR('',#852,1.);
#672=VECTOR('',#853,1.);
#673=VECTOR('',#854,1.);
#674=VECTOR('',#861,1.);
#675=VECTOR('',#870,1.);
#676=VECTOR('',#871,1.);
#677=VECTOR('',#882,1.);
#678=VECTOR('',#885,1.);
#679=VECTOR('',#888,1.);
#680=VECTOR('',#889,1.);
#681=VECTOR('',#890,1.);
#682=VECTOR('',#893,1.);
#683=VECTOR('',#894,1.);
#684=VECTOR('',#895,1.);
#685=VECTOR('',#898,1.);
#686=VECTOR('',#899,1.);
#687=VECTOR('',#900,1.);
#688=VECTOR('',#903,1.);
#689=VECTOR('',#914,1.);
#690=VECTOR('',#915,1.);
#691=AXIS2_PLACEMENT_3D('',#934,#748,#749);
#692=AXIS2_PLACEMENT_3D('',#943,#754,#755);
#693=AXIS2_PLACEMENT_3D('',#944,#756,#757);
#694=AXIS2_PLACEMENT_3D('',#946,#758,#759);
#695=AXIS2_PLACEMENT_3D('',#950,#761,#762);
#696=AXIS2_PLACEMENT_3D('',#954,#764,#765);
#697=AXIS2_PLACEMENT_3D('',#958,#767,#768);
#698=AXIS2_PLACEMENT_3D('',#961,#770,#771);
#699=AXIS2_PLACEMENT_3D('',#971,#776,#777);
#700=AXIS2_PLACEMENT_3D('',#975,#779,#780);
#701=AXIS2_PLACEMENT_3D('',#979,#782,#783);
#702=AXIS2_PLACEMENT_3D('',#983,#785,#786);
#703=AXIS2_PLACEMENT_3D('',#987,#788,#789);
#704=AXIS2_PLACEMENT_3D('',#996,#794,#795);
#705=AXIS2_PLACEMENT_3D('',#1005,#800,#801);
#706=AXIS2_PLACEMENT_3D('',#1021,#811,#812);
#707=AXIS2_PLACEMENT_3D('',#1025,#815,#816);
#708=AXIS2_PLACEMENT_3D('',#1039,#825,#826);
#709=AXIS2_PLACEMENT_3D('',#1040,#827,#828);
#710=AXIS2_PLACEMENT_3D('',#1043,#830,#831);
#711=AXIS2_PLACEMENT_3D('',#1044,#832,#833);
#712=AXIS2_PLACEMENT_3D('',#1046,#835,#836);
#713=AXIS2_PLACEMENT_3D('',#1048,#838,#839);
#714=AXIS2_PLACEMENT_3D('',#1049,#840,#841);
#715=AXIS2_PLACEMENT_3D('',#1055,#845,#846);
#716=AXIS2_PLACEMENT_3D('',#1061,#850,#851);
#717=AXIS2_PLACEMENT_3D('',#1067,#855,#856);
#718=AXIS2_PLACEMENT_3D('',#1068,#857,#858);
#719=AXIS2_PLACEMENT_3D('',#1069,#859,#860);
#720=AXIS2_PLACEMENT_3D('',#1073,#862,#863);
#721=AXIS2_PLACEMENT_3D('',#1074,#864,#865);
#722=AXIS2_PLACEMENT_3D('',#1075,#866,#867);
#723=AXIS2_PLACEMENT_3D('',#1076,#868,#869);
#724=AXIS2_PLACEMENT_3D('',#1079,#872,#873);
#725=AXIS2_PLACEMENT_3D('',#1080,#874,#875);
#726=AXIS2_PLACEMENT_3D('',#1081,#876,#877);
#727=AXIS2_PLACEMENT_3D('',#1082,#878,#879);
#728=AXIS2_PLACEMENT_3D('',#1083,#880,#881);
#729=AXIS2_PLACEMENT_3D('',#1085,#883,#884);
#730=AXIS2_PLACEMENT_3D('',#1087,#886,#887);
#731=AXIS2_PLACEMENT_3D('',#1093,#891,#892);
#732=AXIS2_PLACEMENT_3D('',#1099,#896,#897);
#733=AXIS2_PLACEMENT_3D('',#1105,#901,#902);
#734=AXIS2_PLACEMENT_3D('',#1109,#904,#905);
#735=AXIS2_PLACEMENT_3D('',#1110,#906,#907);
#736=AXIS2_PLACEMENT_3D('',#1111,#908,#909);
#737=AXIS2_PLACEMENT_3D('',#1112,#910,#911);
#738=AXIS2_PLACEMENT_3D('',#1113,#912,#913);
#739=AXIS2_PLACEMENT_3D('',#1116,#916,#917);
#740=AXIS2_PLACEMENT_3D('',#1117,#918,#919);
#741=AXIS2_PLACEMENT_3D('',#1118,#920,#921);
#742=AXIS2_PLACEMENT_3D('',#1119,#922,#923);
#743=AXIS2_PLACEMENT_3D('',#1120,#924,#925);
#744=AXIS2_PLACEMENT_3D('',#1121,#926,#927);
#745=AXIS2_PLACEMENT_3D('',#1123,#928,#929);
#746=AXIS2_PLACEMENT_3D('',#1124,#930,#931);
#747=AXIS2_PLACEMENT_3D('',#1125,#932,#933);
#748=DIRECTION('',(0.,0.,1.));
#749=DIRECTION('',(1.,0.,0.));
#750=DIRECTION('',(1.,0.,0.));
#751=DIRECTION('',(0.,0.,-1.));
#752=DIRECTION('',(-1.,0.,0.));
#753=DIRECTION('',(0.,0.,1.));
#754=DIRECTION('',(0.,-1.,0.));
#755=DIRECTION('',(0.,0.,-1.));
#756=DIRECTION('',(0.,0.,1.));
#757=DIRECTION('',(1.,0.,0.));
#758=DIRECTION('',(0.,0.,-1.));
#759=DIRECTION('',(1.,0.,0.));
#760=DIRECTION('',(0.,-1.,0.));
#761=DIRECTION('',(0.,0.,-1.));
#762=DIRECTION('',(1.,0.,0.));
#763=DIRECTION('',(-1.,0.,0.));
#764=DIRECTION('',(0.,0.,-1.));
#765=DIRECTION('',(0.999999999999998,0.,0.));
#766=DIRECTION('',(0.,1.,0.));
#767=DIRECTION('',(0.,0.,-1.));
#768=DIRECTION('',(0.999999999999998,0.,0.));
#769=DIRECTION('',(1.,0.,0.));
#770=DIRECTION('',(0.,0.,1.));
#771=DIRECTION('',(0.999999999999998,0.,0.));
#772=DIRECTION('',(0.,-1.,0.));
#773=DIRECTION('',(1.,0.,0.));
#774=DIRECTION('',(0.,1.,0.));
#775=DIRECTION('',(-1.,0.,0.));
#776=DIRECTION('',(0.,0.,1.));
#777=DIRECTION('',(1.,0.,0.));
#778=DIRECTION('',(0.,1.,0.));
#779=DIRECTION('',(0.,0.,1.));
#780=DIRECTION('',(1.,0.,0.));
#781=DIRECTION('',(-1.,0.,0.));
#782=DIRECTION('',(0.,0.,-1.));
#783=DIRECTION('',(1.,0.,0.));
#784=DIRECTION('',(0.,1.,0.));
#785=DIRECTION('',(0.,0.,-1.));
#786=DIRECTION('',(1.,0.,0.));
#787=DIRECTION('',(1.,0.,0.));
#788=DIRECTION('',(0.,0.,1.));
#789=DIRECTION('',(1.,0.,0.));
#790=DIRECTION('',(0.,1.,0.));
#791=DIRECTION('',(-1.,0.,0.));
#792=DIRECTION('',(0.,-1.,0.));
#793=DIRECTION('',(1.,0.,0.));
#794=DIRECTION('',(0.,0.,1.));
#795=DIRECTION('',(1.,0.,0.));
#796=DIRECTION('',(0.,1.,0.));
#797=DIRECTION('',(-1.,0.,0.));
#798=DIRECTION('',(0.,-1.,0.));
#799=DIRECTION('',(1.,0.,0.));
#800=DIRECTION('',(0.,0.,1.));
#801=DIRECTION('',(1.,0.,0.));
#802=DIRECTION('',(0.,0.,-1.));
#803=DIRECTION('',(0.,0.,1.));
#804=DIRECTION('',(1.,0.,0.));
#805=DIRECTION('',(0.,0.,1.));
#806=DIRECTION('',(0.,0.,1.));
#807=DIRECTION('',(1.,0.,0.));
#808=DIRECTION('',(0.,0.,-1.));
#809=DIRECTION('',(0.,0.,1.));
#810=DIRECTION('',(1.,0.,0.));
#811=DIRECTION('',(0.,-1.,0.));
#812=DIRECTION('',(0.,0.,-1.));
#813=DIRECTION('',(0.,0.,1.));
#814=DIRECTION('',(0.,-1.,0.));
#815=DIRECTION('',(-1.,0.,0.));
#816=DIRECTION('',(0.,0.,1.));
#817=DIRECTION('',(0.,0.,1.));
#818=DIRECTION('',(-1.,0.,0.));
#819=DIRECTION('',(0.,0.,-1.));
#820=DIRECTION('',(0.,0.,1.));
#821=DIRECTION('',(-1.,0.,0.));
#822=DIRECTION('',(0.,0.,-1.));
#823=DIRECTION('',(0.,0.,1.));
#824=DIRECTION('',(-1.,0.,0.));
#825=DIRECTION('',(0.,1.,0.));
#826=DIRECTION('',(0.,0.,1.));
#827=DIRECTION('',(0.,0.,-1.));
#828=DIRECTION('',(-1.,0.,0.));
#829=DIRECTION('',(0.,1.,0.));
#830=DIRECTION('',(0.,0.,-1.));
#831=DIRECTION('',(-1.,0.,0.));
#832=DIRECTION('',(1.,0.,0.));
#833=DIRECTION('',(0.,0.,-1.));
#834=DIRECTION('',(0.,1.,0.));
#835=DIRECTION('',(-1.,0.,0.));
#836=DIRECTION('',(0.,0.,1.));
#837=DIRECTION('',(0.,-1.,0.));
#838=DIRECTION('',(0.,0.,-1.));
#839=DIRECTION('',(-1.,0.,0.));
#840=DIRECTION('',(1.,0.,0.));
#841=DIRECTION('',(0.,0.,-1.));
#842=DIRECTION('',(-1.,0.,0.));
#843=DIRECTION('',(0.,0.,1.));
#844=DIRECTION('',(0.,0.,-1.));
#845=DIRECTION('',(0.,-1.,0.));
#846=DIRECTION('',(0.,0.,-1.));
#847=DIRECTION('',(0.,1.,0.));
#848=DIRECTION('',(0.,0.,1.));
#849=DIRECTION('',(0.,0.,-1.));
#850=DIRECTION('',(-1.,0.,0.));
#851=DIRECTION('',(0.,0.,1.));
#852=DIRECTION('',(0.,0.,-1.));
#853=DIRECTION('',(1.,0.,0.));
#854=DIRECTION('',(0.,0.,1.));
#855=DIRECTION('',(0.,1.,0.));
#856=DIRECTION('',(0.,0.,1.));
#857=DIRECTION('',(0.,0.,-1.));
#858=DIRECTION('',(-1.,0.,0.));
#859=DIRECTION('',(0.,0.,1.));
#860=DIRECTION('',(-0.999999999999998,0.,0.));
#861=DIRECTION('',(0.,-1.,0.));
#862=DIRECTION('',(0.,0.,1.));
#863=DIRECTION('',(-0.999999999999998,0.,0.));
#864=DIRECTION('',(0.,0.,1.));
#865=DIRECTION('',(-1.,0.,0.));
#866=DIRECTION('',(0.,0.,1.));
#867=DIRECTION('',(-1.,0.,0.));
#868=DIRECTION('',(0.,0.,-1.));
#869=DIRECTION('',(-1.,0.,0.));
#870=DIRECTION('',(0.,0.,-1.));
#871=DIRECTION('',(0.,0.,1.));
#872=DIRECTION('',(1.,0.,0.));
#873=DIRECTION('',(0.,0.,-1.));
#874=DIRECTION('',(0.,0.,1.));
#875=DIRECTION('',(1.,0.,0.));
#876=DIRECTION('',(0.,0.,1.));
#877=DIRECTION('',(0.999999999999998,0.,0.));
#878=DIRECTION('',(0.,0.,1.));
#879=DIRECTION('',(0.999999999999998,0.,0.));
#880=DIRECTION('',(0.,0.,1.));
#881=DIRECTION('',(1.,0.,0.));
#882=DIRECTION('',(0.,1.,0.));
#883=DIRECTION('',(-1.,0.,0.));
#884=DIRECTION('',(0.,0.,1.));
#885=DIRECTION('',(0.,-1.,0.));
#886=DIRECTION('',(0.,0.,-1.));
#887=DIRECTION('',(-1.,0.,0.));
#888=DIRECTION('',(0.,-1.,0.));
#889=DIRECTION('',(0.,0.,1.));
#890=DIRECTION('',(0.,0.,-1.));
#891=DIRECTION('',(1.,0.,0.));
#892=DIRECTION('',(0.,0.,-1.));
#893=DIRECTION('',(-1.,0.,0.));
#894=DIRECTION('',(0.,0.,1.));
#895=DIRECTION('',(0.,0.,-1.));
#896=DIRECTION('',(0.,-1.,0.));
#897=DIRECTION('',(0.,0.,-1.));
#898=DIRECTION('',(0.,0.,-1.));
#899=DIRECTION('',(1.,0.,0.));
#900=DIRECTION('',(0.,0.,1.));
#901=DIRECTION('',(0.,1.,0.));
#902=DIRECTION('',(0.,0.,1.));
#903=DIRECTION('',(0.,-1.,0.));
#904=DIRECTION('',(0.,0.,1.));
#905=DIRECTION('',(-1.,0.,0.));
#906=DIRECTION('',(0.,0.,-1.));
#907=DIRECTION('',(-1.,0.,0.));
#908=DIRECTION('',(0.,0.,-1.));
#909=DIRECTION('',(-1.,0.,0.));
#910=DIRECTION('',(0.,0.,1.));
#911=DIRECTION('',(-1.,0.,0.));
#912=DIRECTION('',(0.,0.,-1.));
#913=DIRECTION('',(-1.,0.,0.));
#914=DIRECTION('',(0.,0.,-1.));
#915=DIRECTION('',(0.,0.,1.));
#916=DIRECTION('',(1.,0.,0.));
#917=DIRECTION('',(0.,0.,-1.));
#918=DIRECTION('',(0.,0.,1.));
#919=DIRECTION('',(1.,0.,0.));
#920=DIRECTION('',(0.,0.,1.));
#921=DIRECTION('',(1.,0.,0.));
#922=DIRECTION('',(0.,0.,1.));
#923=DIRECTION('',(1.,0.,0.));
#924=DIRECTION('',(0.,0.,1.));
#925=DIRECTION('',(1.,0.,0.));
#926=DIRECTION('',(0.,0.,-1.));
#927=DIRECTION('',(0.999999999999998,0.,0.));
#928=DIRECTION('',(0.,0.,-1.));
#929=DIRECTION('',(-1.,0.,0.));
#930=DIRECTION('',(0.,0.,-1.));
#931=DIRECTION('',(0.999999999999998,0.,0.));
#932=DIRECTION('',(0.,0.,-1.));
#933=DIRECTION('',(1.,0.,0.));
#934=CARTESIAN_POINT('',(0.,0.,0.));
#935=CARTESIAN_POINT('',(146.3,61.,108.7));
#936=CARTESIAN_POINT('',(70.8,61.,108.7));
#937=CARTESIAN_POINT('',(97.267783785664,61.,108.7));
#938=CARTESIAN_POINT('',(97.267783785664,61.,108.75));
#939=CARTESIAN_POINT('',(97.267783785664,61.,70.8));
#940=CARTESIAN_POINT('',(113.05,61.,70.8));
#941=CARTESIAN_POINT('',(70.8,61.,70.8));
#942=CARTESIAN_POINT('',(70.8,61.,108.7));
#943=CARTESIAN_POINT('',(113.05,61.,70.8));
#944=CARTESIAN_POINT('',(109.7,59.7,108.7));
#945=CARTESIAN_POINT('',(122.132216214336,61.,108.7));
#946=CARTESIAN_POINT('',(70.8,69.7,108.7));
#947=CARTESIAN_POINT('',(62.1,69.7,108.7));
#948=CARTESIAN_POINT('',(62.1,201.,108.7));
#949=CARTESIAN_POINT('',(62.1,156.2,108.7));
#950=CARTESIAN_POINT('',(70.8,156.2,108.7));
#951=CARTESIAN_POINT('',(70.8,164.9,108.7));
#952=CARTESIAN_POINT('',(146.3,164.9,108.7));
#953=CARTESIAN_POINT('',(155.3,164.9,108.7));
#954=CARTESIAN_POINT('',(155.3,156.2,108.7));
#955=CARTESIAN_POINT('',(164.,156.2,108.7));
#956=CARTESIAN_POINT('',(164.,201.,108.7));
#957=CARTESIAN_POINT('',(164.,69.7,108.7));
#958=CARTESIAN_POINT('',(155.3,69.7,108.7));
#959=CARTESIAN_POINT('',(155.3,61.,108.7));
#960=CARTESIAN_POINT('',(146.3,61.,108.7));
#961=CARTESIAN_POINT('',(170.4,340.7,108.7));
#962=CARTESIAN_POINT('',(176.05,340.7,108.7));
#963=CARTESIAN_POINT('',(215.7,201.,108.7));
#964=CARTESIAN_POINT('',(215.7,402.,108.7));
#965=CARTESIAN_POINT('',(215.7,0.,108.7));
#966=CARTESIAN_POINT('',(146.3,402.,108.7));
#967=CARTESIAN_POINT('',(0.,402.,108.7));
#968=CARTESIAN_POINT('',(0.,201.,108.7));
#969=CARTESIAN_POINT('',(0.,0.,108.7));
#970=CARTESIAN_POINT('',(146.3,0.,108.7));
#971=CARTESIAN_POINT('',(146.3,201.,108.7));
#972=CARTESIAN_POINT('',(232.5,201.,108.7));
#973=CARTESIAN_POINT('',(232.5,396.7,108.7));
#974=CARTESIAN_POINT('',(232.5,402.,108.7));
#975=CARTESIAN_POINT('',(241.,396.7,108.7));
#976=CARTESIAN_POINT('',(241.,388.2,108.7));
#977=CARTESIAN_POINT('',(146.3,388.2,108.7));
#978=CARTESIAN_POINT('',(243.,388.2,108.7));
#979=CARTESIAN_POINT('',(243.,379.7,108.7));
#980=CARTESIAN_POINT('',(251.5,379.7,108.7));
#981=CARTESIAN_POINT('',(251.5,201.,108.7));
#982=CARTESIAN_POINT('',(251.5,80.1,108.7));
#983=CARTESIAN_POINT('',(243.,80.1,108.7));
#984=CARTESIAN_POINT('',(243.,71.6,108.7));
#985=CARTESIAN_POINT('',(146.3,71.6,108.7));
#986=CARTESIAN_POINT('',(241.,71.6,108.7));
#987=CARTESIAN_POINT('',(241.,63.1,108.7));
#988=CARTESIAN_POINT('',(232.5,63.1,108.7));
#989=CARTESIAN_POINT('',(232.5,201.,108.7));
#990=CARTESIAN_POINT('',(232.5,0.,108.7));
#991=CARTESIAN_POINT('',(146.3,0.,108.7));
#992=CARTESIAN_POINT('',(271.3,0.,108.7));
#993=CARTESIAN_POINT('',(271.3,201.,108.7));
#994=CARTESIAN_POINT('',(271.3,402.,108.7));
#995=CARTESIAN_POINT('',(146.3,402.,108.7));
#996=CARTESIAN_POINT('',(146.3,201.,108.7));
#997=CARTESIAN_POINT('',(291.1,201.,108.7));
#998=CARTESIAN_POINT('',(291.1,0.,108.7));
#999=CARTESIAN_POINT('',(291.1,402.,108.7));
#1000=CARTESIAN_POINT('',(146.3,0.,108.7));
#1001=CARTESIAN_POINT('',(292.6,0.,108.7));
#1002=CARTESIAN_POINT('',(292.6,201.,108.7));
#1003=CARTESIAN_POINT('',(292.6,402.,108.7));
#1004=CARTESIAN_POINT('',(146.3,402.,108.7));
#1005=CARTESIAN_POINT('',(146.3,201.,108.7));
#1006=CARTESIAN_POINT('',(215.7,0.,0.));
#1007=CARTESIAN_POINT('',(215.7,0.,70.8));
#1008=CARTESIAN_POINT('',(0.,0.,0.));
#1009=CARTESIAN_POINT('',(0.,0.,0.));
#1010=CARTESIAN_POINT('',(146.3,0.,0.));
#1011=CARTESIAN_POINT('',(292.6,0.,0.));
#1012=CARTESIAN_POINT('',(292.6,0.,0.));
#1013=CARTESIAN_POINT('',(291.1,0.,0.));
#1014=CARTESIAN_POINT('',(291.1,0.,71.4));
#1015=CARTESIAN_POINT('',(146.3,0.,71.4));
#1016=CARTESIAN_POINT('',(271.3,0.,71.4));
#1017=CARTESIAN_POINT('',(271.3,0.,0.));
#1018=CARTESIAN_POINT('',(232.5,0.,0.));
#1019=CARTESIAN_POINT('',(232.5,0.,70.8));
#1020=CARTESIAN_POINT('',(146.3,0.,70.8));
#1021=CARTESIAN_POINT('',(146.3,0.,0.));
#1022=CARTESIAN_POINT('',(0.,402.,0.));
#1023=CARTESIAN_POINT('',(0.,402.,0.));
#1024=CARTESIAN_POINT('',(0.,201.,0.));
#1025=CARTESIAN_POINT('',(0.,201.,0.));
#1026=CARTESIAN_POINT('',(215.7,402.,0.));
#1027=CARTESIAN_POINT('',(215.7,402.,70.8));
#1028=CARTESIAN_POINT('',(146.3,402.,70.8));
#1029=CARTESIAN_POINT('',(232.5,402.,70.8));
#1030=CARTESIAN_POINT('',(232.5,402.,0.));
#1031=CARTESIAN_POINT('',(271.3,402.,0.));
#1032=CARTESIAN_POINT('',(271.3,402.,71.4));
#1033=CARTESIAN_POINT('',(146.3,402.,71.4));
#1034=CARTESIAN_POINT('',(291.1,402.,71.4));
#1035=CARTESIAN_POINT('',(291.1,402.,0.));
#1036=CARTESIAN_POINT('',(292.6,402.,0.));
#1037=CARTESIAN_POINT('',(292.6,402.,0.));
#1038=CARTESIAN_POINT('',(146.3,402.,0.));
#1039=CARTESIAN_POINT('',(146.3,402.,0.));
#1040=CARTESIAN_POINT('',(109.7,59.7,0.));
#1041=CARTESIAN_POINT('',(97.2,59.7,0.));
#1042=CARTESIAN_POINT('',(292.6,201.,0.));
#1043=CARTESIAN_POINT('',(146.3,201.,0.));
#1044=CARTESIAN_POINT('',(292.6,201.,0.));
#1045=CARTESIAN_POINT('',(271.3,201.,71.4));
#1046=CARTESIAN_POINT('',(271.3,201.,71.4));
#1047=CARTESIAN_POINT('',(291.1,201.,71.4));
#1048=CARTESIAN_POINT('',(281.2,201.,71.4));
#1049=CARTESIAN_POINT('',(291.1,201.,71.4));
#1050=CARTESIAN_POINT('',(113.05,61.,70.8));
#1051=CARTESIAN_POINT('',(155.3,61.,70.8));
#1052=CARTESIAN_POINT('',(122.132216214336,61.,70.8));
#1053=CARTESIAN_POINT('',(122.132216214336,61.,108.75));
#1054=CARTESIAN_POINT('',(155.3,61.,70.8));
#1055=CARTESIAN_POINT('',(113.05,61.,70.8));
#1056=CARTESIAN_POINT('',(62.1,112.95,70.8));
#1057=CARTESIAN_POINT('',(62.1,69.7,70.8));
#1058=CARTESIAN_POINT('',(62.1,156.2,70.8));
#1059=CARTESIAN_POINT('',(62.1,156.2,108.7));
#1060=CARTESIAN_POINT('',(62.1,69.7,70.8));
#1061=CARTESIAN_POINT('',(62.1,112.95,70.8));
#1062=CARTESIAN_POINT('',(70.8,164.9,70.8));
#1063=CARTESIAN_POINT('',(70.8,164.9,70.8));
#1064=CARTESIAN_POINT('',(113.05,164.9,70.8));
#1065=CARTESIAN_POINT('',(155.3,164.9,70.8));
#1066=CARTESIAN_POINT('',(155.3,164.9,108.7));
#1067=CARTESIAN_POINT('',(113.05,164.9,70.8));
#1068=CARTESIAN_POINT('',(109.7,59.7,70.8));
#1069=CARTESIAN_POINT('',(155.3,69.7,70.8));
#1070=CARTESIAN_POINT('',(164.,69.7,70.8));
#1071=CARTESIAN_POINT('',(164.,112.95,70.8));
#1072=CARTESIAN_POINT('',(164.,156.2,70.8));
#1073=CARTESIAN_POINT('',(155.3,156.2,70.8));
#1074=CARTESIAN_POINT('',(70.8,156.2,70.8));
#1075=CARTESIAN_POINT('',(70.8,69.7,70.8));
#1076=CARTESIAN_POINT('',(113.05,112.95,70.8));
#1077=CARTESIAN_POINT('',(164.,156.2,70.8));
#1078=CARTESIAN_POINT('',(164.,69.7,108.7));
#1079=CARTESIAN_POINT('',(164.,112.95,70.8));
#1080=CARTESIAN_POINT('',(70.8,156.2,70.8));
#1081=CARTESIAN_POINT('',(155.3,156.2,70.8));
#1082=CARTESIAN_POINT('',(155.3,69.7,70.8));
#1083=CARTESIAN_POINT('',(70.8,69.7,70.8));
#1084=CARTESIAN_POINT('',(215.7,201.,70.8));
#1085=CARTESIAN_POINT('',(215.7,201.,70.8));
#1086=CARTESIAN_POINT('',(232.5,201.,70.8));
#1087=CARTESIAN_POINT('',(224.1,201.,70.8));
#1088=CARTESIAN_POINT('',(232.5,229.9,77.4));
#1089=CARTESIAN_POINT('',(232.5,396.7,77.4));
#1090=CARTESIAN_POINT('',(232.5,63.1,77.4));
#1091=CARTESIAN_POINT('',(232.5,396.7,70.8));
#1092=CARTESIAN_POINT('',(232.5,63.1,70.8));
#1093=CARTESIAN_POINT('',(232.5,201.,70.8));
#1094=CARTESIAN_POINT('',(242.,71.6,77.4));
#1095=CARTESIAN_POINT('',(243.,71.6,77.4));
#1096=CARTESIAN_POINT('',(241.,71.6,77.4));
#1097=CARTESIAN_POINT('',(241.,71.6,77.4));
#1098=CARTESIAN_POINT('',(243.,71.6,77.4));
#1099=CARTESIAN_POINT('',(242.,71.6,77.4));
#1100=CARTESIAN_POINT('',(241.,388.2,77.4));
#1101=CARTESIAN_POINT('',(241.,388.2,77.4));
#1102=CARTESIAN_POINT('',(242.,388.2,77.4));
#1103=CARTESIAN_POINT('',(243.,388.2,77.4));
#1104=CARTESIAN_POINT('',(243.,388.2,108.7));
#1105=CARTESIAN_POINT('',(242.,388.2,77.4));
#1106=CARTESIAN_POINT('',(251.5,229.9,77.4));
#1107=CARTESIAN_POINT('',(251.5,379.7,77.4));
#1108=CARTESIAN_POINT('',(251.5,80.1,77.4));
#1109=CARTESIAN_POINT('',(243.,379.7,77.4));
#1110=CARTESIAN_POINT('',(241.,396.7,77.4));
#1111=CARTESIAN_POINT('',(241.,63.1,77.4));
#1112=CARTESIAN_POINT('',(243.,80.1,77.4));
#1113=CARTESIAN_POINT('',(242.,229.9,77.4));
#1114=CARTESIAN_POINT('',(251.5,379.7,77.4));
#1115=CARTESIAN_POINT('',(251.5,80.1,108.7));
#1116=CARTESIAN_POINT('',(251.5,229.9,77.4));
#1117=CARTESIAN_POINT('',(241.,396.7,70.8));
#1118=CARTESIAN_POINT('',(241.,63.1,77.4));
#1119=CARTESIAN_POINT('',(243.,379.7,77.4));
#1120=CARTESIAN_POINT('',(243.,80.1,77.4));
#1121=CARTESIAN_POINT('',(170.4,340.7,79.5));
#1122=CARTESIAN_POINT('',(176.05,340.7,79.5));
#1123=CARTESIAN_POINT('',(170.4,340.7,79.5));
#1124=CARTESIAN_POINT('',(170.4,340.7,108.75));
#1125=CARTESIAN_POINT('',(109.7,59.7,108.75));
#1126=MECHANICAL_DESIGN_GEOMETRIC_PRESENTATION_REPRESENTATION('',(#24),
#1127);
#1127=(
GEOMETRIC_REPRESENTATION_CONTEXT(3)
GLOBAL_UNCERTAINTY_ASSIGNED_CONTEXT((#1128))
GLOBAL_UNIT_ASSIGNED_CONTEXT((#1134,#1130,#1129))
REPRESENTATION_CONTEXT('featured_part_11202','TOP_LEVEL_ASSEMBLY_PART')
);
#1128=UNCERTAINTY_MEASURE_WITH_UNIT(LENGTH_MEASURE(2.E-5),#1134,
'DISTANCE_ACCURACY_VALUE','Maximum Tolerance applied to model');
#1129=(
NAMED_UNIT(*)
SI_UNIT($,.STERADIAN.)
SOLID_ANGLE_UNIT()
);
#1130=(
CONVERSION_BASED_UNIT('DEGREE',#1132)
NAMED_UNIT(#1131)
PLANE_ANGLE_UNIT()
);
#1131=DIMENSIONAL_EXPONENTS(0.,0.,0.,0.,0.,0.,0.);
#1132=PLANE_ANGLE_MEASURE_WITH_UNIT(PLANE_ANGLE_MEASURE(0.0174532925),#1133);
#1133=(
NAMED_UNIT(*)
PLANE_ANGLE_UNIT()
SI_UNIT($,.RADIAN.)
);
#1134=(
LENGTH_UNIT()
NAMED_UNIT(*)
SI_UNIT(.MILLI.,.METRE.)
);
ENDSEC;
END-ISO-10303-21;
