ISO-10303-21;
HEADER;
/* Generated by software containing ST-Developer
 * from STEP Tools, Inc. (www.steptools.com) 
 */
/* OPTION: using custom schema-name function */

FILE_DESCRIPTION(
/* description */ (''),
/* implementation_level */ '2;1');

FILE_NAME(
/* name */ 'featured_part_11229.stp',
/* time_stamp */ '2026-07-12T15:49:13-04:00',
/* author */ (''),
/* organization */ (''),
/* preprocessor_version */ 'ST-DEVELOPER v20.1',
/* originating_system */ 'SIEMENS PLM Software NX2512.6002',
/* authorisation */ '');

FILE_SCHEMA (('AUTOMOTIVE_DESIGN { 1 0 10303 214 3 1 1 1 }'));
ENDSEC;

DATA;
#10=SHAPE_REPRESENTATION_RELATIONSHIP('None',
'relationship between featured_part_11229-None and featured_part_11229
-None',#22,#11);
#11=ADVANCED_BREP_SHAPE_REPRESENTATION('featured_part_11229-None',(#32),
#945);
#12=SHAPE_DEFINITION_REPRESENTATION(#13,#22);
#13=PRODUCT_DEFINITION_SHAPE('','',#14);
#14=PRODUCT_DEFINITION(' ','',#16,#15);
#15=PRODUCT_DEFINITION_CONTEXT('part definition',#21,'design');
#16=PRODUCT_DEFINITION_FORMATION_WITH_SPECIFIED_SOURCE(' ',' ',#18,
 .NOT_KNOWN.);
#17=PRODUCT_RELATED_PRODUCT_CATEGORY('part','',(#18));
#18=PRODUCT('featured_part_11229','featured_part_11229',' ',(#19));
#19=PRODUCT_CONTEXT(' ',#21,'mechanical');
#20=APPLICATION_PROTOCOL_DEFINITION('international standard',
'automotive_design',2010,#21);
#21=APPLICATION_CONTEXT(
'core data for automotive mechanical design processes');
#22=SHAPE_REPRESENTATION('featured_part_11229-None',(#573),#945);
#23=PRESENTATION_LAYER_ASSIGNMENT('1','Layer 1',(#32));
#24=STYLED_ITEM('',(#25),#32);
#25=PRESENTATION_STYLE_ASSIGNMENT((#26));
#26=SURFACE_STYLE_USAGE(.BOTH.,#27);
#27=SURFACE_SIDE_STYLE('',(#28));
#28=SURFACE_STYLE_FILL_AREA(#29);
#29=FILL_AREA_STYLE('',(#30));
#30=FILL_AREA_STYLE_COLOUR('',#31);
#31=COLOUR_RGB('medium steel',0.611764705882353,0.658823529411765,0.670588235294118);
#32=MANIFOLD_SOLID_BREP('',#33);
#33=CLOSED_SHELL('',(#73,#74,#75,#76,#77,#78,#79,#80,#81,#82,#83,#84,#85,
#86,#87,#88,#89,#90,#91,#92,#93,#94,#95,#96,#97,#98,#99,#100,#101,#102,
#103));
#34=CYLINDRICAL_SURFACE('',#603,9.);
#35=CYLINDRICAL_SURFACE('',#604,9.);
#36=CYLINDRICAL_SURFACE('',#605,9.);
#37=CYLINDRICAL_SURFACE('',#606,9.);
#38=CYLINDRICAL_SURFACE('',#616,8.5);
#39=CYLINDRICAL_SURFACE('',#617,8.5);
#40=CYLINDRICAL_SURFACE('',#618,8.5);
#41=CYLINDRICAL_SURFACE('',#619,8.5);
#42=CYLINDRICAL_SURFACE('',#622,12.75);
#43=CYLINDRICAL_SURFACE('',#625,12.75);
#44=FACE_BOUND('',#154,.T.);
#45=FACE_BOUND('',#155,.T.);
#46=FACE_BOUND('',#156,.T.);
#47=FACE_BOUND('',#157,.T.);
#48=FACE_BOUND('',#184,.T.);
#49=FACE_BOUND('',#185,.T.);
#50=FACE_BOUND('',#187,.T.);
#51=FACE_BOUND('',#188,.T.);
#52=CIRCLE('',#575,12.75);
#53=CIRCLE('',#576,9.);
#54=CIRCLE('',#577,9.);
#55=CIRCLE('',#578,9.);
#56=CIRCLE('',#579,9.);
#57=CIRCLE('',#580,12.75);
#58=CIRCLE('',#581,8.5);
#59=CIRCLE('',#582,8.5);
#60=CIRCLE('',#583,8.5);
#61=CIRCLE('',#584,8.5);
#62=CIRCLE('',#596,12.75);
#63=CIRCLE('',#597,9.);
#64=CIRCLE('',#598,9.);
#65=CIRCLE('',#599,9.);
#66=CIRCLE('',#600,9.);
#67=CIRCLE('',#610,8.5);
#68=CIRCLE('',#611,8.5);
#69=CIRCLE('',#612,8.5);
#70=CIRCLE('',#613,8.5);
#71=CIRCLE('',#620,12.75);
#72=CIRCLE('',#623,12.75);
#73=ADVANCED_FACE('',(#125),#104,.F.);
#74=ADVANCED_FACE('',(#44,#45,#46,#47),#105,.T.);
#75=ADVANCED_FACE('',(#126),#106,.T.);
#76=ADVANCED_FACE('',(#127),#107,.T.);
#77=ADVANCED_FACE('',(#128),#108,.T.);
#78=ADVANCED_FACE('',(#129),#109,.T.);
#79=ADVANCED_FACE('',(#130),#110,.T.);
#80=ADVANCED_FACE('',(#131),#111,.F.);
#81=ADVANCED_FACE('',(#132),#112,.F.);
#82=ADVANCED_FACE('',(#133),#113,.F.);
#83=ADVANCED_FACE('',(#134),#114,.F.);
#84=ADVANCED_FACE('',(#135),#115,.F.);
#85=ADVANCED_FACE('',(#136),#116,.F.);
#86=ADVANCED_FACE('',(#137),#117,.F.);
#87=ADVANCED_FACE('',(#138),#34,.F.);
#88=ADVANCED_FACE('',(#139),#35,.F.);
#89=ADVANCED_FACE('',(#140),#36,.F.);
#90=ADVANCED_FACE('',(#141),#37,.F.);
#91=ADVANCED_FACE('',(#142),#118,.F.);
#92=ADVANCED_FACE('',(#143),#119,.F.);
#93=ADVANCED_FACE('',(#144),#120,.F.);
#94=ADVANCED_FACE('',(#145),#121,.F.);
#95=ADVANCED_FACE('',(#146),#122,.F.);
#96=ADVANCED_FACE('',(#147),#38,.F.);
#97=ADVANCED_FACE('',(#148),#39,.F.);
#98=ADVANCED_FACE('',(#149),#40,.F.);
#99=ADVANCED_FACE('',(#150),#41,.F.);
#100=ADVANCED_FACE('',(#151),#123,.F.);
#101=ADVANCED_FACE('',(#48,#49),#42,.F.);
#102=ADVANCED_FACE('',(#152),#124,.F.);
#103=ADVANCED_FACE('',(#50,#51),#43,.F.);
#104=PLANE('',#574);
#105=PLANE('',#585);
#106=PLANE('',#586);
#107=PLANE('',#587);
#108=PLANE('',#588);
#109=PLANE('',#589);
#110=PLANE('',#590);
#111=PLANE('',#591);
#112=PLANE('',#592);
#113=PLANE('',#593);
#114=PLANE('',#594);
#115=PLANE('',#595);
#116=PLANE('',#601);
#117=PLANE('',#602);
#118=PLANE('',#607);
#119=PLANE('',#608);
#120=PLANE('',#609);
#121=PLANE('',#614);
#122=PLANE('',#615);
#123=PLANE('',#621);
#124=PLANE('',#624);
#125=FACE_OUTER_BOUND('',#153,.T.);
#126=FACE_OUTER_BOUND('',#158,.T.);
#127=FACE_OUTER_BOUND('',#159,.T.);
#128=FACE_OUTER_BOUND('',#160,.T.);
#129=FACE_OUTER_BOUND('',#161,.T.);
#130=FACE_OUTER_BOUND('',#162,.T.);
#131=FACE_OUTER_BOUND('',#163,.T.);
#132=FACE_OUTER_BOUND('',#164,.T.);
#133=FACE_OUTER_BOUND('',#165,.T.);
#134=FACE_OUTER_BOUND('',#166,.T.);
#135=FACE_OUTER_BOUND('',#167,.T.);
#136=FACE_OUTER_BOUND('',#168,.T.);
#137=FACE_OUTER_BOUND('',#169,.T.);
#138=FACE_OUTER_BOUND('',#170,.T.);
#139=FACE_OUTER_BOUND('',#171,.T.);
#140=FACE_OUTER_BOUND('',#172,.T.);
#141=FACE_OUTER_BOUND('',#173,.T.);
#142=FACE_OUTER_BOUND('',#174,.T.);
#143=FACE_OUTER_BOUND('',#175,.T.);
#144=FACE_OUTER_BOUND('',#176,.T.);
#145=FACE_OUTER_BOUND('',#177,.T.);
#146=FACE_OUTER_BOUND('',#178,.T.);
#147=FACE_OUTER_BOUND('',#179,.T.);
#148=FACE_OUTER_BOUND('',#180,.T.);
#149=FACE_OUTER_BOUND('',#181,.T.);
#150=FACE_OUTER_BOUND('',#182,.T.);
#151=FACE_OUTER_BOUND('',#183,.T.);
#152=FACE_OUTER_BOUND('',#186,.T.);
#153=EDGE_LOOP('',(#189,#190,#191,#192));
#154=EDGE_LOOP('',(#193,#194,#195,#196,#197,#198,#199,#200,#201,#202));
#155=EDGE_LOOP('',(#203));
#156=EDGE_LOOP('',(#204,#205,#206,#207,#208,#209,#210,#211));
#157=EDGE_LOOP('',(#212,#213,#214,#215));
#158=EDGE_LOOP('',(#216,#217,#218,#219,#220));
#159=EDGE_LOOP('',(#221,#222,#223,#224,#225));
#160=EDGE_LOOP('',(#226,#227,#228,#229,#230));
#161=EDGE_LOOP('',(#231,#232,#233,#234));
#162=EDGE_LOOP('',(#235,#236,#237,#238));
#163=EDGE_LOOP('',(#239,#240,#241,#242,#243));
#164=EDGE_LOOP('',(#244,#245,#246,#247));
#165=EDGE_LOOP('',(#248,#249,#250,#251));
#166=EDGE_LOOP('',(#252,#253,#254,#255));
#167=EDGE_LOOP('',(#256,#257,#258,#259));
#168=EDGE_LOOP('',(#260,#261,#262,#263,#264,#265,#266,#267,#268,#269));
#169=EDGE_LOOP('',(#270,#271,#272,#273));
#170=EDGE_LOOP('',(#274,#275,#276,#277));
#171=EDGE_LOOP('',(#278,#279,#280,#281));
#172=EDGE_LOOP('',(#282,#283,#284,#285));
#173=EDGE_LOOP('',(#286,#287,#288,#289));
#174=EDGE_LOOP('',(#290,#291,#292,#293));
#175=EDGE_LOOP('',(#294,#295,#296,#297));
#176=EDGE_LOOP('',(#298,#299,#300,#301));
#177=EDGE_LOOP('',(#302,#303,#304,#305,#306,#307,#308,#309));
#178=EDGE_LOOP('',(#310,#311,#312,#313));
#179=EDGE_LOOP('',(#314,#315,#316,#317));
#180=EDGE_LOOP('',(#318,#319,#320,#321));
#181=EDGE_LOOP('',(#322,#323,#324,#325));
#182=EDGE_LOOP('',(#326,#327,#328,#329));
#183=EDGE_LOOP('',(#330));
#184=EDGE_LOOP('',(#331));
#185=EDGE_LOOP('',(#332));
#186=EDGE_LOOP('',(#333));
#187=EDGE_LOOP('',(#334,#335,#336,#337));
#188=EDGE_LOOP('',(#338));
#189=ORIENTED_EDGE('',*,*,#390,.T.);
#190=ORIENTED_EDGE('',*,*,#391,.T.);
#191=ORIENTED_EDGE('',*,*,#392,.T.);
#192=ORIENTED_EDGE('',*,*,#393,.T.);
#193=ORIENTED_EDGE('',*,*,#394,.F.);
#194=ORIENTED_EDGE('',*,*,#390,.F.);
#195=ORIENTED_EDGE('',*,*,#395,.T.);
#196=ORIENTED_EDGE('',*,*,#396,.F.);
#197=ORIENTED_EDGE('',*,*,#397,.T.);
#198=ORIENTED_EDGE('',*,*,#398,.F.);
#199=ORIENTED_EDGE('',*,*,#399,.T.);
#200=ORIENTED_EDGE('',*,*,#400,.F.);
#201=ORIENTED_EDGE('',*,*,#401,.T.);
#202=ORIENTED_EDGE('',*,*,#402,.F.);
#203=ORIENTED_EDGE('',*,*,#403,.F.);
#204=ORIENTED_EDGE('',*,*,#404,.F.);
#205=ORIENTED_EDGE('',*,*,#405,.T.);
#206=ORIENTED_EDGE('',*,*,#406,.F.);
#207=ORIENTED_EDGE('',*,*,#407,.T.);
#208=ORIENTED_EDGE('',*,*,#408,.F.);
#209=ORIENTED_EDGE('',*,*,#409,.T.);
#210=ORIENTED_EDGE('',*,*,#410,.F.);
#211=ORIENTED_EDGE('',*,*,#411,.T.);
#212=ORIENTED_EDGE('',*,*,#412,.F.);
#213=ORIENTED_EDGE('',*,*,#413,.T.);
#214=ORIENTED_EDGE('',*,*,#414,.T.);
#215=ORIENTED_EDGE('',*,*,#415,.F.);
#216=ORIENTED_EDGE('',*,*,#416,.T.);
#217=ORIENTED_EDGE('',*,*,#417,.T.);
#218=ORIENTED_EDGE('',*,*,#418,.F.);
#219=ORIENTED_EDGE('',*,*,#419,.T.);
#220=ORIENTED_EDGE('',*,*,#420,.T.);
#221=ORIENTED_EDGE('',*,*,#418,.T.);
#222=ORIENTED_EDGE('',*,*,#421,.T.);
#223=ORIENTED_EDGE('',*,*,#412,.T.);
#224=ORIENTED_EDGE('',*,*,#422,.F.);
#225=ORIENTED_EDGE('',*,*,#423,.T.);
#226=ORIENTED_EDGE('',*,*,#415,.T.);
#227=ORIENTED_EDGE('',*,*,#424,.T.);
#228=ORIENTED_EDGE('',*,*,#425,.F.);
#229=ORIENTED_EDGE('',*,*,#426,.T.);
#230=ORIENTED_EDGE('',*,*,#422,.T.);
#231=ORIENTED_EDGE('',*,*,#427,.F.);
#232=ORIENTED_EDGE('',*,*,#419,.F.);
#233=ORIENTED_EDGE('',*,*,#423,.F.);
#234=ORIENTED_EDGE('',*,*,#426,.F.);
#235=ORIENTED_EDGE('',*,*,#425,.T.);
#236=ORIENTED_EDGE('',*,*,#428,.T.);
#237=ORIENTED_EDGE('',*,*,#420,.F.);
#238=ORIENTED_EDGE('',*,*,#427,.T.);
#239=ORIENTED_EDGE('',*,*,#414,.F.);
#240=ORIENTED_EDGE('',*,*,#429,.T.);
#241=ORIENTED_EDGE('',*,*,#416,.F.);
#242=ORIENTED_EDGE('',*,*,#428,.F.);
#243=ORIENTED_EDGE('',*,*,#424,.F.);
#244=ORIENTED_EDGE('',*,*,#429,.F.);
#245=ORIENTED_EDGE('',*,*,#413,.F.);
#246=ORIENTED_EDGE('',*,*,#421,.F.);
#247=ORIENTED_EDGE('',*,*,#417,.F.);
#248=ORIENTED_EDGE('',*,*,#400,.T.);
#249=ORIENTED_EDGE('',*,*,#430,.T.);
#250=ORIENTED_EDGE('',*,*,#431,.T.);
#251=ORIENTED_EDGE('',*,*,#432,.T.);
#252=ORIENTED_EDGE('',*,*,#433,.T.);
#253=ORIENTED_EDGE('',*,*,#434,.T.);
#254=ORIENTED_EDGE('',*,*,#402,.T.);
#255=ORIENTED_EDGE('',*,*,#435,.T.);
#256=ORIENTED_EDGE('',*,*,#396,.T.);
#257=ORIENTED_EDGE('',*,*,#436,.T.);
#258=ORIENTED_EDGE('',*,*,#437,.T.);
#259=ORIENTED_EDGE('',*,*,#438,.T.);
#260=ORIENTED_EDGE('',*,*,#392,.F.);
#261=ORIENTED_EDGE('',*,*,#439,.T.);
#262=ORIENTED_EDGE('',*,*,#433,.F.);
#263=ORIENTED_EDGE('',*,*,#440,.T.);
#264=ORIENTED_EDGE('',*,*,#431,.F.);
#265=ORIENTED_EDGE('',*,*,#441,.T.);
#266=ORIENTED_EDGE('',*,*,#442,.F.);
#267=ORIENTED_EDGE('',*,*,#443,.T.);
#268=ORIENTED_EDGE('',*,*,#437,.F.);
#269=ORIENTED_EDGE('',*,*,#444,.T.);
#270=ORIENTED_EDGE('',*,*,#442,.T.);
#271=ORIENTED_EDGE('',*,*,#445,.T.);
#272=ORIENTED_EDGE('',*,*,#398,.T.);
#273=ORIENTED_EDGE('',*,*,#446,.T.);
#274=ORIENTED_EDGE('',*,*,#395,.F.);
#275=ORIENTED_EDGE('',*,*,#393,.F.);
#276=ORIENTED_EDGE('',*,*,#444,.F.);
#277=ORIENTED_EDGE('',*,*,#436,.F.);
#278=ORIENTED_EDGE('',*,*,#399,.F.);
#279=ORIENTED_EDGE('',*,*,#445,.F.);
#280=ORIENTED_EDGE('',*,*,#441,.F.);
#281=ORIENTED_EDGE('',*,*,#430,.F.);
#282=ORIENTED_EDGE('',*,*,#401,.F.);
#283=ORIENTED_EDGE('',*,*,#432,.F.);
#284=ORIENTED_EDGE('',*,*,#440,.F.);
#285=ORIENTED_EDGE('',*,*,#435,.F.);
#286=ORIENTED_EDGE('',*,*,#397,.F.);
#287=ORIENTED_EDGE('',*,*,#438,.F.);
#288=ORIENTED_EDGE('',*,*,#443,.F.);
#289=ORIENTED_EDGE('',*,*,#446,.F.);
#290=ORIENTED_EDGE('',*,*,#447,.T.);
#291=ORIENTED_EDGE('',*,*,#448,.T.);
#292=ORIENTED_EDGE('',*,*,#404,.T.);
#293=ORIENTED_EDGE('',*,*,#449,.T.);
#294=ORIENTED_EDGE('',*,*,#450,.T.);
#295=ORIENTED_EDGE('',*,*,#451,.T.);
#296=ORIENTED_EDGE('',*,*,#406,.T.);
#297=ORIENTED_EDGE('',*,*,#452,.T.);
#298=ORIENTED_EDGE('',*,*,#408,.T.);
#299=ORIENTED_EDGE('',*,*,#453,.T.);
#300=ORIENTED_EDGE('',*,*,#454,.T.);
#301=ORIENTED_EDGE('',*,*,#455,.T.);
#302=ORIENTED_EDGE('',*,*,#454,.F.);
#303=ORIENTED_EDGE('',*,*,#456,.T.);
#304=ORIENTED_EDGE('',*,*,#450,.F.);
#305=ORIENTED_EDGE('',*,*,#457,.T.);
#306=ORIENTED_EDGE('',*,*,#447,.F.);
#307=ORIENTED_EDGE('',*,*,#458,.T.);
#308=ORIENTED_EDGE('',*,*,#459,.F.);
#309=ORIENTED_EDGE('',*,*,#460,.T.);
#310=ORIENTED_EDGE('',*,*,#410,.T.);
#311=ORIENTED_EDGE('',*,*,#461,.T.);
#312=ORIENTED_EDGE('',*,*,#459,.T.);
#313=ORIENTED_EDGE('',*,*,#462,.T.);
#314=ORIENTED_EDGE('',*,*,#407,.F.);
#315=ORIENTED_EDGE('',*,*,#451,.F.);
#316=ORIENTED_EDGE('',*,*,#456,.F.);
#317=ORIENTED_EDGE('',*,*,#453,.F.);
#318=ORIENTED_EDGE('',*,*,#409,.F.);
#319=ORIENTED_EDGE('',*,*,#455,.F.);
#320=ORIENTED_EDGE('',*,*,#460,.F.);
#321=ORIENTED_EDGE('',*,*,#461,.F.);
#322=ORIENTED_EDGE('',*,*,#405,.F.);
#323=ORIENTED_EDGE('',*,*,#448,.F.);
#324=ORIENTED_EDGE('',*,*,#457,.F.);
#325=ORIENTED_EDGE('',*,*,#452,.F.);
#326=ORIENTED_EDGE('',*,*,#411,.F.);
#327=ORIENTED_EDGE('',*,*,#462,.F.);
#328=ORIENTED_EDGE('',*,*,#458,.F.);
#329=ORIENTED_EDGE('',*,*,#449,.F.);
#330=ORIENTED_EDGE('',*,*,#463,.F.);
#331=ORIENTED_EDGE('',*,*,#403,.T.);
#332=ORIENTED_EDGE('',*,*,#463,.T.);
#333=ORIENTED_EDGE('',*,*,#464,.F.);
#334=ORIENTED_EDGE('',*,*,#394,.T.);
#335=ORIENTED_EDGE('',*,*,#434,.F.);
#336=ORIENTED_EDGE('',*,*,#439,.F.);
#337=ORIENTED_EDGE('',*,*,#391,.F.);
#338=ORIENTED_EDGE('',*,*,#464,.T.);
#339=VERTEX_POINT('',#788);
#340=VERTEX_POINT('',#789);
#341=VERTEX_POINT('',#791);
#342=VERTEX_POINT('',#793);
#343=VERTEX_POINT('',#797);
#344=VERTEX_POINT('',#799);
#345=VERTEX_POINT('',#801);
#346=VERTEX_POINT('',#803);
#347=VERTEX_POINT('',#805);
#348=VERTEX_POINT('',#807);
#349=VERTEX_POINT('',#809);
#350=VERTEX_POINT('',#811);
#351=VERTEX_POINT('',#814);
#352=VERTEX_POINT('',#816);
#353=VERTEX_POINT('',#817);
#354=VERTEX_POINT('',#819);
#355=VERTEX_POINT('',#821);
#356=VERTEX_POINT('',#823);
#357=VERTEX_POINT('',#825);
#358=VERTEX_POINT('',#827);
#359=VERTEX_POINT('',#829);
#360=VERTEX_POINT('',#832);
#361=VERTEX_POINT('',#833);
#362=VERTEX_POINT('',#835);
#363=VERTEX_POINT('',#837);
#364=VERTEX_POINT('',#841);
#365=VERTEX_POINT('',#842);
#366=VERTEX_POINT('',#844);
#367=VERTEX_POINT('',#846);
#368=VERTEX_POINT('',#848);
#369=VERTEX_POINT('',#853);
#370=VERTEX_POINT('',#857);
#371=VERTEX_POINT('',#859);
#372=VERTEX_POINT('',#870);
#373=VERTEX_POINT('',#872);
#374=VERTEX_POINT('',#876);
#375=VERTEX_POINT('',#877);
#376=VERTEX_POINT('',#882);
#377=VERTEX_POINT('',#884);
#378=VERTEX_POINT('',#890);
#379=VERTEX_POINT('',#892);
#380=VERTEX_POINT('',#904);
#381=VERTEX_POINT('',#905);
#382=VERTEX_POINT('',#910);
#383=VERTEX_POINT('',#911);
#384=VERTEX_POINT('',#916);
#385=VERTEX_POINT('',#918);
#386=VERTEX_POINT('',#924);
#387=VERTEX_POINT('',#926);
#388=VERTEX_POINT('',#937);
#389=VERTEX_POINT('',#941);
#390=EDGE_CURVE('',#339,#340,#465,.T.);
#391=EDGE_CURVE('',#340,#341,#466,.T.);
#392=EDGE_CURVE('',#341,#342,#467,.T.);
#393=EDGE_CURVE('',#342,#339,#468,.T.);
#394=EDGE_CURVE('',#340,#343,#52,.T.);
#395=EDGE_CURVE('',#339,#344,#53,.T.);
#396=EDGE_CURVE('',#345,#344,#469,.T.);
#397=EDGE_CURVE('',#345,#346,#54,.T.);
#398=EDGE_CURVE('',#347,#346,#470,.T.);
#399=EDGE_CURVE('',#347,#348,#55,.T.);
#400=EDGE_CURVE('',#349,#348,#471,.T.);
#401=EDGE_CURVE('',#349,#350,#56,.T.);
#402=EDGE_CURVE('',#343,#350,#472,.T.);
#403=EDGE_CURVE('',#351,#351,#57,.T.);
#404=EDGE_CURVE('',#352,#353,#473,.T.);
#405=EDGE_CURVE('',#352,#354,#58,.T.);
#406=EDGE_CURVE('',#355,#354,#474,.T.);
#407=EDGE_CURVE('',#355,#356,#59,.T.);
#408=EDGE_CURVE('',#357,#356,#475,.T.);
#409=EDGE_CURVE('',#357,#358,#60,.T.);
#410=EDGE_CURVE('',#359,#358,#476,.T.);
#411=EDGE_CURVE('',#359,#353,#61,.T.);
#412=EDGE_CURVE('',#360,#361,#477,.T.);
#413=EDGE_CURVE('',#360,#362,#478,.T.);
#414=EDGE_CURVE('',#362,#363,#479,.T.);
#415=EDGE_CURVE('',#361,#363,#480,.T.);
#416=EDGE_CURVE('',#364,#365,#481,.T.);
#417=EDGE_CURVE('',#365,#366,#482,.T.);
#418=EDGE_CURVE('',#367,#366,#483,.T.);
#419=EDGE_CURVE('',#367,#368,#484,.T.);
#420=EDGE_CURVE('',#368,#364,#485,.T.);
#421=EDGE_CURVE('',#366,#360,#486,.T.);
#422=EDGE_CURVE('',#369,#361,#487,.T.);
#423=EDGE_CURVE('',#369,#367,#488,.T.);
#424=EDGE_CURVE('',#363,#370,#489,.T.);
#425=EDGE_CURVE('',#371,#370,#490,.T.);
#426=EDGE_CURVE('',#371,#369,#491,.T.);
#427=EDGE_CURVE('',#368,#371,#492,.T.);
#428=EDGE_CURVE('',#370,#364,#493,.T.);
#429=EDGE_CURVE('',#362,#365,#494,.T.);
#430=EDGE_CURVE('',#348,#372,#495,.T.);
#431=EDGE_CURVE('',#372,#373,#496,.T.);
#432=EDGE_CURVE('',#373,#349,#497,.T.);
#433=EDGE_CURVE('',#374,#375,#498,.T.);
#434=EDGE_CURVE('',#375,#343,#499,.T.);
#435=EDGE_CURVE('',#350,#374,#500,.T.);
#436=EDGE_CURVE('',#344,#376,#501,.T.);
#437=EDGE_CURVE('',#376,#377,#502,.T.);
#438=EDGE_CURVE('',#377,#345,#503,.T.);
#439=EDGE_CURVE('',#341,#375,#62,.T.);
#440=EDGE_CURVE('',#374,#373,#63,.T.);
#441=EDGE_CURVE('',#372,#378,#64,.T.);
#442=EDGE_CURVE('',#379,#378,#504,.T.);
#443=EDGE_CURVE('',#379,#377,#65,.T.);
#444=EDGE_CURVE('',#376,#342,#66,.T.);
#445=EDGE_CURVE('',#378,#347,#505,.T.);
#446=EDGE_CURVE('',#346,#379,#506,.T.);
#447=EDGE_CURVE('',#380,#381,#507,.T.);
#448=EDGE_CURVE('',#381,#352,#508,.T.);
#449=EDGE_CURVE('',#353,#380,#509,.T.);
#450=EDGE_CURVE('',#382,#383,#510,.T.);
#451=EDGE_CURVE('',#383,#355,#511,.T.);
#452=EDGE_CURVE('',#354,#382,#512,.T.);
#453=EDGE_CURVE('',#356,#384,#513,.T.);
#454=EDGE_CURVE('',#384,#385,#514,.T.);
#455=EDGE_CURVE('',#385,#357,#515,.T.);
#456=EDGE_CURVE('',#384,#383,#67,.T.);
#457=EDGE_CURVE('',#382,#381,#68,.T.);
#458=EDGE_CURVE('',#380,#386,#69,.T.);
#459=EDGE_CURVE('',#387,#386,#516,.T.);
#460=EDGE_CURVE('',#387,#385,#70,.T.);
#461=EDGE_CURVE('',#358,#387,#517,.T.);
#462=EDGE_CURVE('',#386,#359,#518,.T.);
#463=EDGE_CURVE('',#388,#388,#71,.T.);
#464=EDGE_CURVE('',#389,#389,#72,.T.);
#465=LINE('',#787,#519);
#466=LINE('',#790,#520);
#467=LINE('',#792,#521);
#468=LINE('',#794,#522);
#469=LINE('',#800,#523);
#470=LINE('',#804,#524);
#471=LINE('',#808,#525);
#472=LINE('',#812,#526);
#473=LINE('',#815,#527);
#474=LINE('',#820,#528);
#475=LINE('',#824,#529);
#476=LINE('',#828,#530);
#477=LINE('',#831,#531);
#478=LINE('',#834,#532);
#479=LINE('',#836,#533);
#480=LINE('',#838,#534);
#481=LINE('',#840,#535);
#482=LINE('',#843,#536);
#483=LINE('',#845,#537);
#484=LINE('',#847,#538);
#485=LINE('',#849,#539);
#486=LINE('',#851,#540);
#487=LINE('',#852,#541);
#488=LINE('',#854,#542);
#489=LINE('',#856,#543);
#490=LINE('',#858,#544);
#491=LINE('',#860,#545);
#492=LINE('',#862,#546);
#493=LINE('',#864,#547);
#494=LINE('',#866,#548);
#495=LINE('',#869,#549);
#496=LINE('',#871,#550);
#497=LINE('',#873,#551);
#498=LINE('',#875,#552);
#499=LINE('',#878,#553);
#500=LINE('',#879,#554);
#501=LINE('',#881,#555);
#502=LINE('',#883,#556);
#503=LINE('',#885,#557);
#504=LINE('',#891,#558);
#505=LINE('',#896,#559);
#506=LINE('',#897,#560);
#507=LINE('',#903,#561);
#508=LINE('',#906,#562);
#509=LINE('',#907,#563);
#510=LINE('',#909,#564);
#511=LINE('',#912,#565);
#512=LINE('',#913,#566);
#513=LINE('',#915,#567);
#514=LINE('',#917,#568);
#515=LINE('',#919,#569);
#516=LINE('',#925,#570);
#517=LINE('',#929,#571);
#518=LINE('',#930,#572);
#519=VECTOR('',#628,1.);
#520=VECTOR('',#629,1.);
#521=VECTOR('',#630,1.);
#522=VECTOR('',#631,1.);
#523=VECTOR('',#638,1.);
#524=VECTOR('',#641,1.);
#525=VECTOR('',#644,1.);
#526=VECTOR('',#647,1.);
#527=VECTOR('',#650,1.);
#528=VECTOR('',#653,1.);
#529=VECTOR('',#656,1.);
#530=VECTOR('',#659,1.);
#531=VECTOR('',#662,1.);
#532=VECTOR('',#663,1.);
#533=VECTOR('',#664,1.);
#534=VECTOR('',#665,1.);
#535=VECTOR('',#668,1.);
#536=VECTOR('',#669,1.);
#537=VECTOR('',#670,1.);
#538=VECTOR('',#671,1.);
#539=VECTOR('',#672,1.);
#540=VECTOR('',#675,1.);
#541=VECTOR('',#676,1.);
#542=VECTOR('',#677,1.);
#543=VECTOR('',#680,1.);
#544=VECTOR('',#681,1.);
#545=VECTOR('',#682,1.);
#546=VECTOR('',#685,1.);
#547=VECTOR('',#688,1.);
#548=VECTOR('',#691,1.);
#549=VECTOR('',#696,1.);
#550=VECTOR('',#697,1.);
#551=VECTOR('',#698,1.);
#552=VECTOR('',#701,1.);
#553=VECTOR('',#702,1.);
#554=VECTOR('',#703,1.);
#555=VECTOR('',#706,1.);
#556=VECTOR('',#707,1.);
#557=VECTOR('',#708,1.);
#558=VECTOR('',#717,1.);
#559=VECTOR('',#724,1.);
#560=VECTOR('',#725,1.);
#561=VECTOR('',#736,1.);
#562=VECTOR('',#737,1.);
#563=VECTOR('',#738,1.);
#564=VECTOR('',#741,1.);
#565=VECTOR('',#742,1.);
#566=VECTOR('',#743,1.);
#567=VECTOR('',#746,1.);
#568=VECTOR('',#747,1.);
#569=VECTOR('',#748,1.);
#570=VECTOR('',#757,1.);
#571=VECTOR('',#762,1.);
#572=VECTOR('',#763,1.);
#573=AXIS2_PLACEMENT_3D('',#786,#626,#627);
#574=AXIS2_PLACEMENT_3D('',#795,#632,#633);
#575=AXIS2_PLACEMENT_3D('',#796,#634,#635);
#576=AXIS2_PLACEMENT_3D('',#798,#636,#637);
#577=AXIS2_PLACEMENT_3D('',#802,#639,#640);
#578=AXIS2_PLACEMENT_3D('',#806,#642,#643);
#579=AXIS2_PLACEMENT_3D('',#810,#645,#646);
#580=AXIS2_PLACEMENT_3D('',#813,#648,#649);
#581=AXIS2_PLACEMENT_3D('',#818,#651,#652);
#582=AXIS2_PLACEMENT_3D('',#822,#654,#655);
#583=AXIS2_PLACEMENT_3D('',#826,#657,#658);
#584=AXIS2_PLACEMENT_3D('',#830,#660,#661);
#585=AXIS2_PLACEMENT_3D('',#839,#666,#667);
#586=AXIS2_PLACEMENT_3D('',#850,#673,#674);
#587=AXIS2_PLACEMENT_3D('',#855,#678,#679);
#588=AXIS2_PLACEMENT_3D('',#861,#683,#684);
#589=AXIS2_PLACEMENT_3D('',#863,#686,#687);
#590=AXIS2_PLACEMENT_3D('',#865,#689,#690);
#591=AXIS2_PLACEMENT_3D('',#867,#692,#693);
#592=AXIS2_PLACEMENT_3D('',#868,#694,#695);
#593=AXIS2_PLACEMENT_3D('',#874,#699,#700);
#594=AXIS2_PLACEMENT_3D('',#880,#704,#705);
#595=AXIS2_PLACEMENT_3D('',#886,#709,#710);
#596=AXIS2_PLACEMENT_3D('',#887,#711,#712);
#597=AXIS2_PLACEMENT_3D('',#888,#713,#714);
#598=AXIS2_PLACEMENT_3D('',#889,#715,#716);
#599=AXIS2_PLACEMENT_3D('',#893,#718,#719);
#600=AXIS2_PLACEMENT_3D('',#894,#720,#721);
#601=AXIS2_PLACEMENT_3D('',#895,#722,#723);
#602=AXIS2_PLACEMENT_3D('',#898,#726,#727);
#603=AXIS2_PLACEMENT_3D('',#899,#728,#729);
#604=AXIS2_PLACEMENT_3D('',#900,#730,#731);
#605=AXIS2_PLACEMENT_3D('',#901,#732,#733);
#606=AXIS2_PLACEMENT_3D('',#902,#734,#735);
#607=AXIS2_PLACEMENT_3D('',#908,#739,#740);
#608=AXIS2_PLACEMENT_3D('',#914,#744,#745);
#609=AXIS2_PLACEMENT_3D('',#920,#749,#750);
#610=AXIS2_PLACEMENT_3D('',#921,#751,#752);
#611=AXIS2_PLACEMENT_3D('',#922,#753,#754);
#612=AXIS2_PLACEMENT_3D('',#923,#755,#756);
#613=AXIS2_PLACEMENT_3D('',#927,#758,#759);
#614=AXIS2_PLACEMENT_3D('',#928,#760,#761);
#615=AXIS2_PLACEMENT_3D('',#931,#764,#765);
#616=AXIS2_PLACEMENT_3D('',#932,#766,#767);
#617=AXIS2_PLACEMENT_3D('',#933,#768,#769);
#618=AXIS2_PLACEMENT_3D('',#934,#770,#771);
#619=AXIS2_PLACEMENT_3D('',#935,#772,#773);
#620=AXIS2_PLACEMENT_3D('',#936,#774,#775);
#621=AXIS2_PLACEMENT_3D('',#938,#776,#777);
#622=AXIS2_PLACEMENT_3D('',#939,#778,#779);
#623=AXIS2_PLACEMENT_3D('',#940,#780,#781);
#624=AXIS2_PLACEMENT_3D('',#942,#782,#783);
#625=AXIS2_PLACEMENT_3D('',#943,#784,#785);
#626=DIRECTION('',(0.,0.,1.));
#627=DIRECTION('',(1.,0.,0.));
#628=DIRECTION('',(0.,-1.,0.));
#629=DIRECTION('',(0.,0.,-1.));
#630=DIRECTION('',(0.,1.,0.));
#631=DIRECTION('',(0.,0.,1.));
#632=DIRECTION('',(-1.,0.,0.));
#633=DIRECTION('',(0.,0.,1.));
#634=DIRECTION('',(0.,0.,1.));
#635=DIRECTION('',(1.,0.,0.));
#636=DIRECTION('',(0.,0.,-1.));
#637=DIRECTION('',(1.,0.,0.));
#638=DIRECTION('',(-1.,0.,0.));
#639=DIRECTION('',(0.,0.,-1.));
#640=DIRECTION('',(1.,0.,0.));
#641=DIRECTION('',(0.,1.,0.));
#642=DIRECTION('',(0.,0.,-1.));
#643=DIRECTION('',(1.,0.,0.));
#644=DIRECTION('',(1.,0.,0.));
#645=DIRECTION('',(0.,0.,-1.));
#646=DIRECTION('',(1.,0.,0.));
#647=DIRECTION('',(0.,-1.,0.));
#648=DIRECTION('',(0.,0.,1.));
#649=DIRECTION('',(1.,0.,0.));
#650=DIRECTION('',(1.,0.,0.));
#651=DIRECTION('',(0.,0.,-1.));
#652=DIRECTION('',(1.,0.,0.));
#653=DIRECTION('',(0.,-1.,0.));
#654=DIRECTION('',(0.,0.,-1.));
#655=DIRECTION('',(1.,0.,0.));
#656=DIRECTION('',(-1.,0.,0.));
#657=DIRECTION('',(0.,0.,-1.));
#658=DIRECTION('',(1.,0.,0.));
#659=DIRECTION('',(0.,1.,0.));
#660=DIRECTION('',(0.,0.,-1.));
#661=DIRECTION('',(1.,0.,0.));
#662=DIRECTION('',(0.,1.,0.));
#663=DIRECTION('',(1.,0.,0.));
#664=DIRECTION('',(0.,1.,0.));
#665=DIRECTION('',(1.,0.,0.));
#666=DIRECTION('',(0.,0.,1.));
#667=DIRECTION('',(1.,0.,0.));
#668=DIRECTION('',(-0.707106781186546,0.,0.707106781186549));
#669=DIRECTION('',(-1.,0.,0.));
#670=DIRECTION('',(0.,0.,1.));
#671=DIRECTION('',(1.,0.,0.));
#672=DIRECTION('',(0.,0.,1.));
#673=DIRECTION('',(0.,-1.,0.));
#674=DIRECTION('',(0.,0.,-1.));
#675=DIRECTION('',(0.,0.707106781186548,0.707106781186547));
#676=DIRECTION('',(0.,0.,1.));
#677=DIRECTION('',(0.,-1.,0.));
#678=DIRECTION('',(-1.,0.,0.));
#679=DIRECTION('',(0.,0.,1.));
#680=DIRECTION('',(0.707106781186546,0.,-0.707106781186549));
#681=DIRECTION('',(0.,0.,1.));
#682=DIRECTION('',(-1.,0.,0.));
#683=DIRECTION('',(0.,1.,0.));
#684=DIRECTION('',(0.,0.,1.));
#685=DIRECTION('',(0.,1.,0.));
#686=DIRECTION('',(0.,0.,-1.));
#687=DIRECTION('',(-1.,0.,0.));
#688=DIRECTION('',(0.,-1.,0.));
#689=DIRECTION('',(1.,0.,0.));
#690=DIRECTION('',(0.,0.,-1.));
#691=DIRECTION('',(0.577350269189624,-0.577350269189628,-0.577350269189626));
#692=DIRECTION('',(-0.707106781186549,0.,-0.707106781186546));
#693=DIRECTION('',(0.,-1.,0.));
#694=DIRECTION('',(0.,0.707106781186547,-0.707106781186548));
#695=DIRECTION('',(-1.,0.,0.));
#696=DIRECTION('',(0.,0.,-1.));
#697=DIRECTION('',(-1.,0.,0.));
#698=DIRECTION('',(0.,0.,1.));
#699=DIRECTION('',(0.,-1.,0.));
#700=DIRECTION('',(0.,0.,-1.));
#701=DIRECTION('',(0.,1.,0.));
#702=DIRECTION('',(0.,0.,1.));
#703=DIRECTION('',(0.,0.,-1.));
#704=DIRECTION('',(-1.,0.,0.));
#705=DIRECTION('',(0.,0.,1.));
#706=DIRECTION('',(0.,0.,-1.));
#707=DIRECTION('',(1.,0.,0.));
#708=DIRECTION('',(0.,0.,1.));
#709=DIRECTION('',(0.,1.,0.));
#710=DIRECTION('',(0.,0.,1.));
#711=DIRECTION('',(0.,0.,-1.));
#712=DIRECTION('',(-1.,0.,0.));
#713=DIRECTION('',(0.,0.,1.));
#714=DIRECTION('',(-1.,0.,0.));
#715=DIRECTION('',(0.,0.,1.));
#716=DIRECTION('',(-1.,0.,0.));
#717=DIRECTION('',(0.,-1.,0.));
#718=DIRECTION('',(0.,0.,1.));
#719=DIRECTION('',(-1.,0.,0.));
#720=DIRECTION('',(0.,0.,1.));
#721=DIRECTION('',(-1.,0.,0.));
#722=DIRECTION('',(0.,0.,-1.));
#723=DIRECTION('',(-1.,0.,0.));
#724=DIRECTION('',(0.,0.,1.));
#725=DIRECTION('',(0.,0.,-1.));
#726=DIRECTION('',(1.,0.,0.));
#727=DIRECTION('',(0.,0.,-1.));
#728=DIRECTION('',(0.,0.,1.));
#729=DIRECTION('',(1.,0.,0.));
#730=DIRECTION('',(0.,0.,1.));
#731=DIRECTION('',(1.,0.,0.));
#732=DIRECTION('',(0.,0.,1.));
#733=DIRECTION('',(1.,0.,0.));
#734=DIRECTION('',(0.,0.,1.));
#735=DIRECTION('',(1.,0.,0.));
#736=DIRECTION('',(-1.,0.,0.));
#737=DIRECTION('',(0.,0.,1.));
#738=DIRECTION('',(0.,0.,-1.));
#739=DIRECTION('',(0.,-1.,0.));
#740=DIRECTION('',(0.,0.,-1.));
#741=DIRECTION('',(0.,1.,0.));
#742=DIRECTION('',(0.,0.,1.));
#743=DIRECTION('',(0.,0.,-1.));
#744=DIRECTION('',(-1.,0.,0.));
#745=DIRECTION('',(0.,0.,1.));
#746=DIRECTION('',(0.,0.,-1.));
#747=DIRECTION('',(1.,0.,0.));
#748=DIRECTION('',(0.,0.,1.));
#749=DIRECTION('',(0.,1.,0.));
#750=DIRECTION('',(0.,0.,1.));
#751=DIRECTION('',(0.,0.,1.));
#752=DIRECTION('',(-1.,0.,0.));
#753=DIRECTION('',(0.,0.,1.));
#754=DIRECTION('',(-1.,0.,0.));
#755=DIRECTION('',(0.,0.,1.));
#756=DIRECTION('',(-1.,0.,0.));
#757=DIRECTION('',(0.,-1.,0.));
#758=DIRECTION('',(0.,0.,1.));
#759=DIRECTION('',(-1.,0.,0.));
#760=DIRECTION('',(0.,0.,-1.));
#761=DIRECTION('',(-1.,0.,0.));
#762=DIRECTION('',(0.,0.,-1.));
#763=DIRECTION('',(0.,0.,1.));
#764=DIRECTION('',(1.,0.,0.));
#765=DIRECTION('',(0.,0.,-1.));
#766=DIRECTION('',(0.,0.,1.));
#767=DIRECTION('',(1.,0.,0.));
#768=DIRECTION('',(0.,0.,1.));
#769=DIRECTION('',(1.,0.,0.));
#770=DIRECTION('',(0.,0.,1.));
#771=DIRECTION('',(1.,0.,0.));
#772=DIRECTION('',(0.,0.,1.));
#773=DIRECTION('',(1.,0.,0.));
#774=DIRECTION('',(0.,0.,-1.));
#775=DIRECTION('',(1.,0.,0.));
#776=DIRECTION('',(0.,0.,-1.));
#777=DIRECTION('',(-1.,0.,0.));
#778=DIRECTION('',(0.,0.,-1.));
#779=DIRECTION('',(1.,0.,0.));
#780=DIRECTION('',(0.,0.,-1.));
#781=DIRECTION('',(1.,0.,0.));
#782=DIRECTION('',(0.,0.,-1.));
#783=DIRECTION('',(-1.,0.,0.));
#784=DIRECTION('',(0.,0.,-1.));
#785=DIRECTION('',(1.,0.,0.));
#786=CARTESIAN_POINT('',(0.,0.,0.));
#787=CARTESIAN_POINT('',(80.1,133.45,55.4));
#788=CARTESIAN_POINT('',(80.1,193.8,55.4));
#789=CARTESIAN_POINT('',(80.1,169.46870548424,55.4));
#790=CARTESIAN_POINT('',(80.1,169.46870548424,55.45));
#791=CARTESIAN_POINT('',(80.1,169.46870548424,23.3));
#792=CARTESIAN_POINT('',(80.1,165.1,23.3));
#793=CARTESIAN_POINT('',(80.1,193.8,23.3));
#794=CARTESIAN_POINT('',(80.1,193.8,55.4));
#795=CARTESIAN_POINT('',(80.1,165.1,23.3));
#796=CARTESIAN_POINT('',(73.6,158.5,55.4));
#797=CARTESIAN_POINT('',(80.1,147.53129451576,55.4));
#798=CARTESIAN_POINT('',(89.1,193.8,55.4));
#799=CARTESIAN_POINT('',(89.1,202.8,55.4));
#800=CARTESIAN_POINT('',(212.1,202.8,55.4));
#801=CARTESIAN_POINT('',(182.9,202.8,55.4));
#802=CARTESIAN_POINT('',(182.9,193.8,55.4));
#803=CARTESIAN_POINT('',(191.9,193.8,55.4));
#804=CARTESIAN_POINT('',(191.9,133.45,55.4));
#805=CARTESIAN_POINT('',(191.9,136.4,55.4));
#806=CARTESIAN_POINT('',(182.9,136.4,55.4));
#807=CARTESIAN_POINT('',(182.9,127.4,55.4));
#808=CARTESIAN_POINT('',(212.1,127.4,55.4));
#809=CARTESIAN_POINT('',(89.1,127.4,55.4));
#810=CARTESIAN_POINT('',(89.1,136.4,55.4));
#811=CARTESIAN_POINT('',(80.1,136.4,55.4));
#812=CARTESIAN_POINT('',(80.1,133.45,55.4));
#813=CARTESIAN_POINT('',(73.6,29.,55.4));
#814=CARTESIAN_POINT('',(86.35,29.,55.4));
#815=CARTESIAN_POINT('',(212.1,125.2,55.4));
#816=CARTESIAN_POINT('',(202.2,125.2,55.4));
#817=CARTESIAN_POINT('',(328.,125.2,55.4));
#818=CARTESIAN_POINT('',(202.2,133.7,55.4));
#819=CARTESIAN_POINT('',(193.7,133.7,55.4));
#820=CARTESIAN_POINT('',(193.7,133.45,55.4));
#821=CARTESIAN_POINT('',(193.7,200.1,55.4));
#822=CARTESIAN_POINT('',(202.2,200.1,55.4));
#823=CARTESIAN_POINT('',(202.2,208.6,55.4));
#824=CARTESIAN_POINT('',(212.1,208.6,55.4));
#825=CARTESIAN_POINT('',(328.,208.6,55.4));
#826=CARTESIAN_POINT('',(328.,200.1,55.4));
#827=CARTESIAN_POINT('',(336.5,200.1,55.4));
#828=CARTESIAN_POINT('',(336.5,133.45,55.4));
#829=CARTESIAN_POINT('',(336.5,133.7,55.4));
#830=CARTESIAN_POINT('',(328.,133.7,55.4));
#831=CARTESIAN_POINT('',(0.,133.45,55.4));
#832=CARTESIAN_POINT('',(0.,2.70000000000001,55.4));
#833=CARTESIAN_POINT('',(0.,266.9,55.4));
#834=CARTESIAN_POINT('',(212.1,2.70000000000001,55.4));
#835=CARTESIAN_POINT('',(417.4,2.70000000000001,55.4));
#836=CARTESIAN_POINT('',(417.4,133.45,55.4));
#837=CARTESIAN_POINT('',(417.4,266.9,55.4));
#838=CARTESIAN_POINT('',(212.1,266.9,55.4));
#839=CARTESIAN_POINT('',(212.1,133.45,55.4));
#840=CARTESIAN_POINT('',(342.450000000001,0.,130.35));
#841=CARTESIAN_POINT('',(424.2,0.,48.6));
#842=CARTESIAN_POINT('',(420.1,0.,52.7));
#843=CARTESIAN_POINT('',(212.1,0.,52.7));
#844=CARTESIAN_POINT('',(0.,0.,52.7));
#845=CARTESIAN_POINT('',(0.,0.,0.));
#846=CARTESIAN_POINT('',(0.,0.,0.));
#847=CARTESIAN_POINT('',(212.1,0.,0.));
#848=CARTESIAN_POINT('',(424.2,0.,0.));
#849=CARTESIAN_POINT('',(424.2,0.,0.));
#850=CARTESIAN_POINT('',(212.1,0.,0.));
#851=CARTESIAN_POINT('',(0.,40.3750000000002,93.0750000000001));
#852=CARTESIAN_POINT('',(0.,266.9,0.));
#853=CARTESIAN_POINT('',(0.,266.9,0.));
#854=CARTESIAN_POINT('',(0.,133.45,0.));
#855=CARTESIAN_POINT('',(0.,133.45,0.));
#856=CARTESIAN_POINT('',(342.450000000001,266.9,130.35));
#857=CARTESIAN_POINT('',(424.2,266.9,48.6));
#858=CARTESIAN_POINT('',(424.2,266.9,0.));
#859=CARTESIAN_POINT('',(424.2,266.9,0.));
#860=CARTESIAN_POINT('',(212.1,266.9,0.));
#861=CARTESIAN_POINT('',(212.1,266.9,0.));
#862=CARTESIAN_POINT('',(424.2,133.45,0.));
#863=CARTESIAN_POINT('',(212.1,133.45,0.));
#864=CARTESIAN_POINT('',(424.2,133.45,48.6));
#865=CARTESIAN_POINT('',(424.2,133.45,0.));
#866=CARTESIAN_POINT('',(378.35,41.7500000000003,94.4500000000001));
#867=CARTESIAN_POINT('',(424.2,133.45,48.6));
#868=CARTESIAN_POINT('',(212.1,0.,52.7));
#869=CARTESIAN_POINT('',(182.9,127.4,23.3));
#870=CARTESIAN_POINT('',(182.9,127.4,23.3));
#871=CARTESIAN_POINT('',(136.,127.4,23.3));
#872=CARTESIAN_POINT('',(89.1,127.4,23.3));
#873=CARTESIAN_POINT('',(89.1,127.4,55.4));
#874=CARTESIAN_POINT('',(136.,127.4,23.3));
#875=CARTESIAN_POINT('',(80.1,165.1,23.3));
#876=CARTESIAN_POINT('',(80.1,136.4,23.3));
#877=CARTESIAN_POINT('',(80.1,147.53129451576,23.3));
#878=CARTESIAN_POINT('',(80.1,147.53129451576,55.45));
#879=CARTESIAN_POINT('',(80.1,136.4,23.3));
#880=CARTESIAN_POINT('',(80.1,165.1,23.3));
#881=CARTESIAN_POINT('',(89.1,202.8,23.3));
#882=CARTESIAN_POINT('',(89.1,202.8,23.3));
#883=CARTESIAN_POINT('',(136.,202.8,23.3));
#884=CARTESIAN_POINT('',(182.9,202.8,23.3));
#885=CARTESIAN_POINT('',(182.9,202.8,55.4));
#886=CARTESIAN_POINT('',(136.,202.8,23.3));
#887=CARTESIAN_POINT('',(73.6,158.5,23.3));
#888=CARTESIAN_POINT('',(89.1,136.4,23.3));
#889=CARTESIAN_POINT('',(182.9,136.4,23.3));
#890=CARTESIAN_POINT('',(191.9,136.4,23.3));
#891=CARTESIAN_POINT('',(191.9,165.1,23.3));
#892=CARTESIAN_POINT('',(191.9,193.8,23.3));
#893=CARTESIAN_POINT('',(182.9,193.8,23.3));
#894=CARTESIAN_POINT('',(89.1,193.8,23.3));
#895=CARTESIAN_POINT('',(136.,165.1,23.3));
#896=CARTESIAN_POINT('',(191.9,136.4,55.4));
#897=CARTESIAN_POINT('',(191.9,193.8,23.3));
#898=CARTESIAN_POINT('',(191.9,165.1,23.3));
#899=CARTESIAN_POINT('',(89.1,193.8,23.3));
#900=CARTESIAN_POINT('',(182.9,136.4,23.3));
#901=CARTESIAN_POINT('',(89.1,136.4,23.3));
#902=CARTESIAN_POINT('',(182.9,193.8,23.3));
#903=CARTESIAN_POINT('',(265.1,125.2,47.7));
#904=CARTESIAN_POINT('',(328.,125.2,47.7));
#905=CARTESIAN_POINT('',(202.2,125.2,47.7));
#906=CARTESIAN_POINT('',(202.2,125.2,55.4));
#907=CARTESIAN_POINT('',(328.,125.2,47.7));
#908=CARTESIAN_POINT('',(265.1,125.2,47.7));
#909=CARTESIAN_POINT('',(193.7,166.9,47.7));
#910=CARTESIAN_POINT('',(193.7,133.7,47.7));
#911=CARTESIAN_POINT('',(193.7,200.1,47.7));
#912=CARTESIAN_POINT('',(193.7,200.1,55.4));
#913=CARTESIAN_POINT('',(193.7,133.7,47.7));
#914=CARTESIAN_POINT('',(193.7,166.9,47.7));
#915=CARTESIAN_POINT('',(202.2,208.6,47.7));
#916=CARTESIAN_POINT('',(202.2,208.6,47.7));
#917=CARTESIAN_POINT('',(265.1,208.6,47.7));
#918=CARTESIAN_POINT('',(328.,208.6,47.7));
#919=CARTESIAN_POINT('',(328.,208.6,55.4));
#920=CARTESIAN_POINT('',(265.1,208.6,47.7));
#921=CARTESIAN_POINT('',(202.2,200.1,47.7));
#922=CARTESIAN_POINT('',(202.2,133.7,47.7));
#923=CARTESIAN_POINT('',(328.,133.7,47.7));
#924=CARTESIAN_POINT('',(336.5,133.7,47.7));
#925=CARTESIAN_POINT('',(336.5,166.9,47.7));
#926=CARTESIAN_POINT('',(336.5,200.1,47.7));
#927=CARTESIAN_POINT('',(328.,200.1,47.7));
#928=CARTESIAN_POINT('',(265.1,166.9,47.7));
#929=CARTESIAN_POINT('',(336.5,200.1,47.7));
#930=CARTESIAN_POINT('',(336.5,133.7,55.4));
#931=CARTESIAN_POINT('',(336.5,166.9,47.7));
#932=CARTESIAN_POINT('',(202.2,200.1,47.7));
#933=CARTESIAN_POINT('',(328.,200.1,47.7));
#934=CARTESIAN_POINT('',(202.2,133.7,47.7));
#935=CARTESIAN_POINT('',(328.,133.7,47.7));
#936=CARTESIAN_POINT('',(73.6,29.,27.5));
#937=CARTESIAN_POINT('',(86.35,29.,27.5));
#938=CARTESIAN_POINT('',(73.6,29.,27.5));
#939=CARTESIAN_POINT('',(73.6,29.,55.45));
#940=CARTESIAN_POINT('',(73.6,158.5,18.6));
#941=CARTESIAN_POINT('',(86.35,158.5,18.6));
#942=CARTESIAN_POINT('',(73.6,158.5,18.6));
#943=CARTESIAN_POINT('',(73.6,158.5,55.45));
#944=MECHANICAL_DESIGN_GEOMETRIC_PRESENTATION_REPRESENTATION('',(#24),#945);
#945=(
GEOMETRIC_REPRESENTATION_CONTEXT(3)
GLOBAL_UNCERTAINTY_ASSIGNED_CONTEXT((#946))
GLOBAL_UNIT_ASSIGNED_CONTEXT((#952,#948,#947))
REPRESENTATION_CONTEXT('featured_part_11229','TOP_LEVEL_ASSEMBLY_PART')
);
#946=UNCERTAINTY_MEASURE_WITH_UNIT(LENGTH_MEASURE(2.E-5),#952,
'DISTANCE_ACCURACY_VALUE','Maximum Tolerance applied to model');
#947=(
NAMED_UNIT(*)
SI_UNIT($,.STERADIAN.)
SOLID_ANGLE_UNIT()
);
#948=(
CONVERSION_BASED_UNIT('DEGREE',#950)
NAMED_UNIT(#949)
PLANE_ANGLE_UNIT()
);
#949=DIMENSIONAL_EXPONENTS(0.,0.,0.,0.,0.,0.,0.);
#950=PLANE_ANGLE_MEASURE_WITH_UNIT(PLANE_ANGLE_MEASURE(0.0174532925),#951);
#951=(
NAMED_UNIT(*)
PLANE_ANGLE_UNIT()
SI_UNIT($,.RADIAN.)
);
#952=(
LENGTH_UNIT()
NAMED_UNIT(*)
SI_UNIT(.MILLI.,.METRE.)
);
ENDSEC;
END-ISO-10303-21;
